  0
SECTION
  2
HEADER
  9
$ACADVER
  1
AC1015
  9
$ACADMAINTVER
 70
     6
  9
$DWGCODEPAGE
  3
DOS932
  9
$INSBASE
 10
0.0
 20
0.0
 30
0.0
  9
$EXTMIN
 10
0.0
 20
0.0
 30
0.0
  9
$EXTMAX
 10
841.0
 20
594.0
 30
0.0
  9
$LIMMIN
 10
0.0
 20
0.0
  9
$LIMMAX
 10
841.0
 20
594.0
  9
$ORTHOMODE
 70
     0
  9
$REGENMODE
 70
     1
  9
$FILLMODE
 70
     1
  9
$QTEXTMODE
 70
     0
  9
$MIRRTEXT
 70
     1
  9
$LTSCALE
 40
1.0
  9
$ATTMODE
 70
     1
  9
$TEXTSIZE
 40
3.5
  9
$TRACEWID
 40
1.0
  9
$TEXTSTYLE
  7
Standard
  9
$CLAYER
  8
0
  9
$CELTYPE
  6
ByLayer
  9
$CECOLOR
 62
   256
  9
$CELTSCALE
 40
1.0
  9
$DISPSILH
 70
     0
  9
$DIMSCALE
 40
1.0
  9
$DIMASZ
 40
3.302
  9
$DIMEXO
 40
1.0
  9
$DIMDLI
 40
3.75
  9
$DIMRND
 40
0.0
  9
$DIMDLE
 40
0.0
  9
$DIMEXE
 40
1.0
  9
$DIMTP
 40
0.0
  9
$DIMTM
 40
0.0
  9
$DIMTXT
 40
3.5
  9
$DIMCEN
 40
2.5
  9
$DIMTSZ
 40
0.0
  9
$DIMTOL
 70
     0
  9
$DIMLIM
 70
     0
  9
$DIMTIH
 70
     1
  9
$DIMTOH
 70
     1
  9
$DIMSE1
 70
     0
  9
$DIMSE2
 70
     0
  9
$DIMTAD
 70
     1
  9
$DIMZIN
 70
     1
  9
$DIMBLK
  1

  9
$DIMASO
 70
     1
  9
$DIMSHO
 70
     1
  9
$DIMPOST
  1

  9
$DIMAPOST
  1

  9
$DIMALT
 70
     0
  9
$DIMALTD
 70
     3
  9
$DIMALTF
 40
0.0393700787
  9
$DIMLFAC
 40
0.5
  9
$DIMTOFL
 70
     1
  9
$DIMTVP
 40
0.0
  9
$DIMTIX
 70
     0
  9
$DIMSOXD
 70
     0
  9
$DIMSAH
 70
     0
  9
$DIMBLK1
  1

  9
$DIMBLK2
  1

  9
$DIMSTYLE
  2
ISO-25
  9
$DIMCLRD
 70
     0
  9
$DIMCLRE
 70
     0
  9
$DIMCLRT
 70
     0
  9
$DIMTFAC
 40
1.0
  9
$DIMGAP
 40
1.524
  9
$DIMJUST
 70
     0
  9
$DIMSD1
 70
     0
  9
$DIMSD2
 70
     0
  9
$DIMTOLJ
 70
     0
  9
$DIMTZIN
 70
     1
  9
$DIMALTZ
 70
     0
  9
$DIMALTTZ
 70
     0
  9
$DIMUPT
 70
     0
  9
$DIMDEC
 70
     2
  9
$DIMTDEC
 70
     2
  9
$DIMALTU
 70
     2
  9
$DIMALTTD
 70
     3
  9
$DIMTXSTY
  7
Standard
  9
$DIMAUNIT
 70
     0
  9
$DIMADEC
 70
     2
  9
$DIMALTRND
 40
0.0
  9
$DIMAZIN
 70
     0
  9
$DIMDSEP
 70
    44
  9
$DIMATFIT
 70
     3
  9
$DIMFRAC
 70
     0
  9
$DIMLDRBLK
  1

  9
$DIMLUNIT
 70
     2
  9
$DIMLWD
 70
    -2
  9
$DIMLWE
 70
    -2
  9
$DIMTMOVE
 70
     0
  9
$LUNITS
 70
     2
  9
$LUPREC
 70
     2
  9
$SKETCHINC
 40
1.0
  9
$FILLETRAD
 40
0.0
  9
$AUNITS
 70
     0
  9
$AUPREC
 70
     2
  9
$MENU
  1
.
  9
$ELEVATION
 40
0.0
  9
$PELEVATION
 40
0.0
  9
$THICKNESS
 40
0.0
  9
$LIMCHECK
 70
     0
  9
$CHAMFERA
 40
0.0
  9
$CHAMFERB
 40
0.0
  9
$CHAMFERC
 40
0.0
  9
$CHAMFERD
 40
0.0
  9
$SKPOLY
 70
     0
  9
$TDCREATE
 40
2461263.441766146
  9
$TDUCREATE
 40
2461263.066766146
  9
$TDUPDATE
 40
2461263.441766493
  9
$TDUUPDATE
 40
2461263.066766493
  9
$TDINDWG
 40
0.0000000116
  9
$TDUSRTIMER
 40
0.0000000116
  9
$USRTIMER
 70
     1
  9
$ANGBASE
 50
0.0
  9
$ANGDIR
 70
     0
  9
$PDMODE
 70
     0
  9
$PDSIZE
 40
-1.0
  9
$PLINEWID
 40
0.0
  9
$SPLFRAME
 70
     0
  9
$SPLINETYPE
 70
     6
  9
$SPLINESEGS
 70
     8
  9
$HANDSEED
  5
DD
  9
$SURFTAB1
 70
     6
  9
$SURFTAB2
 70
     6
  9
$SURFTYPE
 70
     6
  9
$SURFU
 70
     6
  9
$SURFV
 70
     6
  9
$UCSBASE
  2

  9
$UCSNAME
  2

  9
$UCSORG
 10
0.0
 20
0.0
 30
0.0
  9
$UCSXDIR
 10
1.0
 20
0.0
 30
0.0
  9
$UCSYDIR
 10
0.0
 20
1.0
 30
0.0
  9
$UCSORTHOREF
  2

  9
$UCSORTHOVIEW
 70
     0
  9
$UCSORGTOP
 10
0.0
 20
0.0
 30
0.0
  9
$UCSORGBOTTOM
 10
0.0
 20
0.0
 30
0.0
  9
$UCSORGLEFT
 10
0.0
 20
0.0
 30
0.0
  9
$UCSORGRIGHT
 10
0.0
 20
0.0
 30
0.0
  9
$UCSORGFRONT
 10
0.0
 20
0.0
 30
0.0
  9
$UCSORGBACK
 10
0.0
 20
0.0
 30
0.0
  9
$PUCSBASE
  2

  9
$PUCSNAME
  2

  9
$PUCSORG
 10
0.0
 20
0.0
 30
0.0
  9
$PUCSXDIR
 10
1.0
 20
0.0
 30
0.0
  9
$PUCSYDIR
 10
0.0
 20
1.0
 30
0.0
  9
$PUCSORTHOREF
  2

  9
$PUCSORTHOVIEW
 70
     0
  9
$PUCSORGTOP
 10
0.0
 20
0.0
 30
0.0
  9
$PUCSORGBOTTOM
 10
0.0
 20
0.0
 30
0.0
  9
$PUCSORGLEFT
 10
0.0
 20
0.0
 30
0.0
  9
$PUCSORGRIGHT
 10
0.0
 20
0.0
 30
0.0
  9
$PUCSORGFRONT
 10
0.0
 20
0.0
 30
0.0
  9
$PUCSORGBACK
 10
0.0
 20
0.0
 30
0.0
  9
$USERI1
 70
     0
  9
$USERI2
 70
     0
  9
$USERI3
 70
     0
  9
$USERI4
 70
     0
  9
$USERI5
 70
     0
  9
$USERR1
 40
0.0
  9
$USERR2
 40
0.0
  9
$USERR3
 40
0.0
  9
$USERR4
 40
0.0
  9
$USERR5
 40
0.0
  9
$WORLDVIEW
 70
     1
  9
$SHADEDGE
 70
     3
  9
$SHADEDIF
 70
    70
  9
$TILEMODE
 70
     1
  9
$MAXACTVP
 70
    64
  9
$PINSBASE
 10
0.0
 20
0.0
 30
0.0
  9
$PLIMCHECK
 70
     0
  9
$PEXTMIN
 10
1.0000000000E+20
 20
1.0000000000E+20
 30
1.0000000000E+20
  9
$PEXTMAX
 10
-1.0000000000E+20
 20
-1.0000000000E+20
 30
-1.0000000000E+20
  9
$PLIMMIN
 10
0.0
 20
0.0
  9
$PLIMMAX
 10
420.0
 20
297.0
  9
$UNITMODE
 70
     0
  9
$VISRETAIN
 70
     1
  9
$PLINEGEN
 70
     0
  9
$PSLTSCALE
 70
     1
  9
$TREEDEPTH
 70
  3020
  9
$CMLSTYLE
  2
Standard
  9
$CMLJUST
 70
     0
  9
$CMLSCALE
 40
20.0
  9
$PROXYGRAPHICS
 70
     1
  9
$MEASUREMENT
 70
     1
  9
$CELWEIGHT
370
    -1
  9
$ENDCAPS
280
     0
  9
$JOINSTYLE
280
     0
  9
$LWDISPLAY
290
     1
  9
$INSUNITS
 70
     4
  9
$HYPERLINKBASE
  1

  9
$STYLESHEET
  1

  9
$XEDIT
290
     1
  9
$CEPSNTYPE
380
     0
  9
$PSTYLEMODE
290
     1
  9
$FINGERPRINTGUID
  2
{a1124c1d-73fe-4bc4-b1bd-7e3029145a50}
  9
$VERSIONGUID
  2
{FAEB1C32-E019-11D5-929B-00C0DF256EC4}
  9
$EXTNAMES
290
     1
  9
$PSVPSCALE
 40
0.0
  9
$OLESTARTUP
290
     0
  0
ENDSEC
  0
SECTION
  2
CLASSES
  0
CLASS
  1
ACDBDICTIONARYWDFLT
  2
AcDbDictionaryWithDefault
  3
ObjectDBX Classes
 90
        0
280
     0
281
     0
  0
CLASS
  1
VISUALSTYLE
  2
AcDbVisualStyle
  3
ObjectDBX Classes
 90
     4095
280
     0
281
     0
  0
CLASS
  1
MATERIAL
  2
AcDbMaterial
  3
ObjectDBX Classes
 90
     1153
280
     0
281
     0
  0
CLASS
  1
SCALE
  2
AcDbScale
  3
ObjectDBX Classes
 90
     1153
280
     0
281
     0
  0
CLASS
  1
TABLESTYLE
  2
AcDbTableStyle
  3
ObjectDBX Classes
 90
     4095
280
     0
281
     0
  0
CLASS
  1
MLEADERSTYLE
  2
AcDbMLeaderStyle
  3
ACDB_MLEADERSTYLE_CLASS
 90
     4095
280
     0
281
     0
  0
CLASS
  1
SUN
  2
AcDbSun
  3
SCENEOE
 90
     1153
280
     0
281
     0
  0
CLASS
  1
ACDBPLACEHOLDER
  2
AcDbPlaceHolder
  3
ObjectDBX Classes
 90
        0
280
     0
281
     0
  0
CLASS
  1
LAYOUT
  2
AcDbLayout
  3
ObjectDBX Classes
 90
        0
280
     0
281
     0
  0
ENDSEC
  0
SECTION
  2
TABLES
  0
TABLE
  2
VPORT
  5
8
330
0
100
AcDbSymbolTable
 70
     1
  0
VPORT
  5
29
330
8
100
AcDbSymbolTableRecord
100
AcDbViewportTableRecord
  2
*Active
 70
     0
 10
0.0
 20
0.0
 11
1.0
 21
1.0
 12
420.5
 22
297.0
 13
0.0
 23
0.0
 14
10.0
 24
10.0
 15
10.0
 25
10.0
 16
0.0
 26
0.0
 36
1.0
 17
0.0
 27
0.0
 37
0.0
 40
594.0
 41
1.4158249158
 42
50.0
 43
0.0
 44
0.0
 50
0.0
 51
0.0
 71
     0
 72
  2000
 73
     1
 74
     3
 75
     0
 76
     0
 77
     0
 78
     0
281
     0
 65
     1
110
0.0
120
0.0
130
0.0
111
1.0
121
0.0
131
0.0
112
0.0
122
1.0
132
0.0
 79
     0
146
0.0
  0
ENDTAB
  0
TABLE
  2
LTYPE
  5
5
330
0
100
AcDbSymbolTable
 70
     6
  0
LTYPE
  5
14
330
5
100
AcDbSymbolTableRecord
100
AcDbLinetypeTableRecord
  2
ByBlock
 70
     0
  3

 72
    65
 73
     0
 40
0.0
  0
LTYPE
  5
15
330
5
100
AcDbSymbolTableRecord
100
AcDbLinetypeTableRecord
  2
ByLayer
 70
     0
  3

 72
    65
 73
     0
 40
0.0
  0
LTYPE
  5
16
330
5
100
AcDbSymbolTableRecord
100
AcDbLinetypeTableRecord
  2
Continuous
 70
     0
  3
Solid line
 72
    65
 73
     0
 40
0.0
  0
LTYPE
  5
5E
330
5
100
AcDbSymbolTableRecord
100
AcDbLinetypeTableRecord
  2
HIDDEN
 70
     0
  3
Hidden __ __ __ __ __ __ __ __ __ __ __ __ __ __
 72
    65
 73
     2
 40
1.905
 49
1.27
 74
     0
 49
-0.635
 74
     0
  0
LTYPE
  5
5F
330
5
100
AcDbSymbolTableRecord
100
AcDbLinetypeTableRecord
  2
PHANTOM
 70
     0
  3
Phantom ______  __  __  ______  __  __  ______
 72
    65
 73
     6
 40
12.7
 49
6.35
 74
     0
 49
-1.27
 74
     0
 49
1.27
 74
     0
 49
-1.27
 74
     0
 49
1.27
 74
     0
 49
-1.27
 74
     0
  0
LTYPE
  5
60
330
5
100
AcDbSymbolTableRecord
100
AcDbLinetypeTableRecord
  2
CENTER
 70
     0
  3
Center ____ _ ____ _ ____ _ ____ _ ____ _ ____
 72
    65
 73
     4
 40
10.16
 49
6.35
 74
     0
 49
-1.27
 74
     0
 49
1.27
 74
     0
 49
-1.27
 74
     0
  0
LTYPE
  5
61
330
5
100
AcDbSymbolTableRecord
100
AcDbLinetypeTableRecord
  2
CENTERX2
 70
     0
  3
Center (2x) ________  __  ________  __  _____
 72
    65
 73
     4
 40
20.32
 49
12.7
 74
     0
 49
-2.54
 74
     0
 49
2.54
 74
     0
 49
-2.54
 74
     0
  0
LTYPE
  5
62
330
5
100
AcDbSymbolTableRecord
100
AcDbLinetypeTableRecord
  2
DOT2
 70
     0
  3
Dot (.5x) ........................................
 72
    65
 73
     2
 40
0.635
 49
0.0
 74
     0
 49
-0.635
 74
     0
  0
ENDTAB
  0
TABLE
  2
LAYER
  5
2
330
0
100
AcDbSymbolTable
 70
     1
  0
LAYER
  5
10
330
2
100
AcDbSymbolTableRecord
100
AcDbLayerTableRecord
  2
0
 70
     0
 62
     7
  6
Continuous
370
    -3
390
F
  0
ENDTAB
  0
TABLE
  2
STYLE
  5
3
330
0
100
AcDbSymbolTable
 70
     1
  0
STYLE
  5
11
330
3
100
AcDbSymbolTableRecord
100
AcDbTextStyleTableRecord
  2
Standard
 70
     0
 40
0.0
 41
1.0
 50
0.0
 71
     0
 42
3.5
  3
txt
  4
bigfont
  0
ENDTAB
  0
TABLE
  2
VIEW
  5
6
330
0
100
AcDbSymbolTable
 70
     0
  0
ENDTAB
  0
TABLE
  2
UCS
  5
7
330
0
100
AcDbSymbolTable
 70
     0
  0
ENDTAB
  0
TABLE
  2
APPID
  5
9
330
0
100
AcDbSymbolTable
 70
     1
  0
APPID
  5
12
330
9
100
AcDbSymbolTableRecord
100
AcDbRegAppTableRecord
  2
ACAD
 70
     0
  0
ENDTAB
  0
TABLE
  2
DIMSTYLE
  5
A
330
0
100
AcDbSymbolTable
 70
     1
100
AcDbDimStyleTable
  0
DIMSTYLE
105
27
330
A
100
AcDbSymbolTableRecord
100
AcDbDimStyleTableRecord
  2
ISO-25
 70
     0
 41
2.5
 42
0.625
 43
3.75
 44
1.25
 73
     0
 74
     0
 77
     1
 78
     8
140
2.5
141
2.5
143
0.0393700787
147
0.625
171
     3
172
     1
178
     0
271
     2
272
     2
274
     3
278
    44
283
     0
284
     8
340
11
  0
ENDTAB
  0
TABLE
  2
BLOCK_RECORD
  5
1
330
0
100
AcDbSymbolTable
 70
     1
  0
BLOCK_RECORD
  5
1F
330
1
100
AcDbSymbolTableRecord
100
AcDbBlockTableRecord
  2
*Model_Space
340
22
  0
BLOCK_RECORD
  5
1B
330
1
100
AcDbSymbolTableRecord
100
AcDbBlockTableRecord
  2
*Paper_Space
340
1E
  0
BLOCK_RECORD
  5
23
330
1
100
AcDbSymbolTableRecord
100
AcDbBlockTableRecord
  2
*Paper_Space0
340
26
  0
ENDTAB
  0
ENDSEC
  0
SECTION
  2
BLOCKS
  0
BLOCK
  5
20
330
1F
100
AcDbEntity
  8
0
100
AcDbBlockBegin
  2
*Model_Space
 70
     0
 10
0.0
 20
0.0
 30
0.0
  3
*Model_Space
  1

  0
ENDBLK
  5
21
330
1F
100
AcDbEntity
  8
0
100
AcDbBlockEnd
  0
BLOCK
  5
1C
330
1B
100
AcDbEntity
 67
     1
  8
0
100
AcDbBlockBegin
  2
*Paper_Space
 70
     0
 10
0.0
 20
0.0
 30
0.0
  3
*Paper_Space
  1

  0
ENDBLK
  5
1D
330
1B
100
AcDbEntity
 67
     1
  8
0
100
AcDbBlockEnd
  0
BLOCK
  5
24
330
23
100
AcDbEntity
  8
0
100
AcDbBlockBegin
  2
*Paper_Space0
 70
     0
 10
0.0
 20
0.0
 30
0.0
  3
*Paper_Space0
  1

  0
ENDBLK
  5
25
330
23
100
AcDbEntity
  8
0
100
AcDbBlockEnd
  0
ENDSEC
  0
SECTION
  2
ENTITIES
  0
LINE
  5
63
330
1F
100
AcDbEntity
  8
0
  6
Continuous
 62
     7
370
    25
100
AcDbLine
 10
291.5471465194
 20
153.1837644998
 30
0.0
 11
401.5471465194
 21
153.1837644998
 31
0.0
  0
ARC
  5
64
330
1F
100
AcDbEntity
  8
0
  6
Continuous
 62
     7
370
    25
100
AcDbCircle
 10
381.5471465194
 20
163.1837644998
 30
0.0
 40
3.5
100
AcDbArc
 50
90.0
 51
180.0
  0
ARC
  5
65
330
1F
100
AcDbEntity
  8
0
  6
Continuous
 62
     7
370
    25
100
AcDbCircle
 10
301.5471465194
 20
163.1837644998
 30
0.0
 40
3.5
100
AcDbArc
 50
90.0
 51
180.0
  0
LINE
  5
66
330
1F
100
AcDbEntity
  8
0
  6
Continuous
 62
     7
370
    25
100
AcDbLine
 10
291.5471465194
 20
173.1837644998
 30
0.0
 11
291.5471465194
 21
153.1837644998
 31
0.0
  0
LINE
  5
67
330
1F
100
AcDbEntity
  8
0
  6
Continuous
 62
     7
370
    25
100
AcDbLine
 10
401.5471465194
 20
153.1837644998
 30
0.0
 11
401.5471465194
 21
173.1837644998
 31
0.0
  0
LINE
  5
68
330
1F
100
AcDbEntity
  8
0
  6
Continuous
 62
     7
370
    25
100
AcDbLine
 10
401.5471465194
 20
173.1837644998
 30
0.0
 11
291.5471465194
 21
173.1837644998
 31
0.0
  0
ARC
  5
69
330
1F
100
AcDbEntity
  8
0
  6
Continuous
 62
     7
370
    25
100
AcDbCircle
 10
301.5471465194
 20
163.1837644998
 30
0.0
 40
3.5
100
AcDbArc
 50
180.0
 51
270.0
  0
LINE
  5
6A
330
1F
100
AcDbEntity
  8
0
  6
Continuous
 62
     7
370
    25
100
AcDbLine
 10
301.5471465194
 20
159.6837644998
 30
0.0
 11
311.5471465194
 21
159.6837644998
 31
0.0
  0
ARC
  5
6B
330
1F
100
AcDbEntity
  8
0
  6
Continuous
 62
     7
370
    25
100
AcDbCircle
 10
311.5471465194
 20
163.1837644998
 30
0.0
 40
3.5
100
AcDbArc
 50
270.0
 51
90.0
  0
LINE
  5
6C
330
1F
100
AcDbEntity
  8
0
  6
Continuous
 62
     7
370
    25
100
AcDbLine
 10
311.5471465194
 20
166.6837644998
 30
0.0
 11
301.5471465194
 21
166.6837644998
 31
0.0
  0
ARC
  5
6D
330
1F
100
AcDbEntity
  8
0
  6
Continuous
 62
     7
370
    25
100
AcDbCircle
 10
391.5471465194
 20
163.1837644998
 30
0.0
 40
3.5
100
AcDbArc
 50
270.0
 51
90.0
  0
LINE
  5
6E
330
1F
100
AcDbEntity
  8
0
  6
Continuous
 62
     7
370
    25
100
AcDbLine
 10
391.5471465194
 20
166.6837644998
 30
0.0
 11
381.5471465194
 21
166.6837644998
 31
0.0
  0
ARC
  5
6F
330
1F
100
AcDbEntity
  8
0
  6
Continuous
 62
     7
370
    25
100
AcDbCircle
 10
381.5471465194
 20
163.1837644998
 30
0.0
 40
3.5
100
AcDbArc
 50
180.0
 51
270.0
  0
LINE
  5
70
330
1F
100
AcDbEntity
  8
0
  6
Continuous
 62
     7
370
    25
100
AcDbLine
 10
381.5471465194
 20
159.6837644998
 30
0.0
 11
391.5471465194
 21
159.6837644998
 31
0.0
  0
LINE
  5
71
330
1F
100
AcDbEntity
  8
0
  6
Continuous
 62
     7
370
    25
100
AcDbLine
 10
366.5471465194
 20
173.1837644998
 30
0.0
 11
366.5471465194
 21
249.6837644998
 31
0.0
  0
ARC
  5
72
330
1F
100
AcDbEntity
  8
0
  6
Continuous
 62
     7
370
    25
100
AcDbCircle
 10
334.0471465194
 20
239.6837644998
 30
0.0
 40
2.5
100
AcDbArc
 50
180.0
 51
0.0
  0
ARC
  5
73
330
1F
100
AcDbEntity
  8
0
  6
Continuous
 62
     7
370
    25
100
AcDbCircle
 10
359.0471465194
 20
239.6837644998
 30
0.0
 40
2.5
100
AcDbArc
 50
180.0
 51
0.0
  0
LINE
  5
74
330
1F
100
AcDbEntity
  8
0
  6
Continuous
 62
     7
370
    25
100
AcDbLine
 10
366.5471465194
 20
249.6837644998
 30
0.0
 11
326.5471465194
 21
249.6837644998
 31
0.0
  0
LINE
  5
75
330
1F
100
AcDbEntity
  8
0
  6
Continuous
 62
     7
370
    25
100
AcDbLine
 10
326.5471465194
 20
249.6837644998
 30
0.0
 11
326.5471465194
 21
173.1837644998
 31
0.0
  0
ARC
  5
76
330
1F
100
AcDbEntity
  8
0
  6
Continuous
 62
     7
370
    25
100
AcDbCircle
 10
334.0471465194
 20
239.6837644998
 30
0.0
 40
2.5
100
AcDbArc
 50
0.0
 51
180.0
  0
ARC
  5
77
330
1F
100
AcDbEntity
  8
0
  6
Continuous
 62
     7
370
    25
100
AcDbCircle
 10
359.0471465194
 20
239.6837644998
 30
0.0
 40
2.5
100
AcDbArc
 50
0.0
 51
180.0
  0
LINE
  5
78
330
1F
100
AcDbEntity
  8
0
  6
HIDDEN
 62
     7
370
    18
100
AcDbLine
 10
326.5471465194
 20
173.1837644998
 30
0.0
 11
326.5471465194
 21
153.1837644998
 31
0.0
  0
LINE
  5
79
330
1F
100
AcDbEntity
  8
0
  6
HIDDEN
 62
     7
370
    18
100
AcDbLine
 10
366.5471465194
 20
153.1837644998
 30
0.0
 11
366.5471465194
 21
173.1837644998
 31
0.0
  0
LINE
  5
7A
330
1F
100
AcDbEntity
  8
0
  6
Continuous
 62
     7
370
    25
100
AcDbLine
 10
366.5471465194
 20
377.13
 30
0.0
 11
326.5471465194
 21
377.13
 31
0.0
  0
LINE
  5
7B
330
1F
100
AcDbEntity
  8
0
  6
Continuous
 62
     7
370
    25
100
AcDbLine
 10
326.5471465194
 20
377.13
 30
0.0
 11
326.5471465194
 21
381.63
 31
0.0
  0
LINE
  5
7C
330
1F
100
AcDbEntity
  8
0
  6
Continuous
 62
     7
370
    25
100
AcDbLine
 10
366.5471465194
 20
381.63
 30
0.0
 11
326.5471465194
 21
381.63
 31
0.0
  0
LINE
  5
7D
330
1F
100
AcDbEntity
  8
0
  6
Continuous
 62
     7
370
    25
100
AcDbLine
 10
366.5471465194
 20
377.13
 30
0.0
 11
366.5471465194
 21
381.63
 31
0.0
  0
LINE
  5
7E
330
1F
100
AcDbEntity
  8
0
  6
Continuous
 62
     7
370
    25
100
AcDbLine
 10
401.5471465194
 20
372.63
 30
0.0
 11
401.5471465194
 21
377.13
 31
0.0
  0
LINE
  5
7F
330
1F
100
AcDbEntity
  8
0
  6
Continuous
 62
     7
370
    25
100
AcDbLine
 10
401.5471465194
 20
372.63
 30
0.0
 11
291.5471465194
 21
372.63
 31
0.0
  0
LINE
  5
80
330
1F
100
AcDbEntity
  8
0
  6
Continuous
 62
     7
370
    25
100
AcDbLine
 10
291.5471465194
 20
372.63
 30
0.0
 11
291.5471465194
 21
377.13
 31
0.0
  0
LINE
  5
81
330
1F
100
AcDbEntity
  8
0
  6
Continuous
 62
     7
370
    25
100
AcDbLine
 10
326.5471465194
 20
377.13
 30
0.0
 11
291.5471465194
 21
377.13
 31
0.0
  0
LINE
  5
82
330
1F
100
AcDbEntity
  8
0
  6
Continuous
 62
     7
370
    25
100
AcDbLine
 10
401.5471465194
 20
377.13
 30
0.0
 11
366.5471465194
 21
377.13
 31
0.0
  0
LINE
  5
83
330
1F
100
AcDbEntity
  8
0
  6
HIDDEN
 62
     7
370
    18
100
AcDbLine
 10
356.5471465194
 20
377.13
 30
0.0
 11
356.5471465194
 21
381.63
 31
0.0
  0
LINE
  5
84
330
1F
100
AcDbEntity
  8
0
  6
HIDDEN
 62
     7
370
    18
100
AcDbLine
 10
361.5471465194
 20
377.13
 30
0.0
 11
361.5471465194
 21
381.63
 31
0.0
  0
LINE
  5
85
330
1F
100
AcDbEntity
  8
0
  6
HIDDEN
 62
     7
370
    18
100
AcDbLine
 10
331.5471465194
 20
377.13
 30
0.0
 11
331.5471465194
 21
381.63
 31
0.0
  0
LINE
  5
86
330
1F
100
AcDbEntity
  8
0
  6
HIDDEN
 62
     7
370
    18
100
AcDbLine
 10
336.5471465194
 20
377.13
 30
0.0
 11
336.5471465194
 21
381.63
 31
0.0
  0
LINE
  5
87
330
1F
100
AcDbEntity
  8
0
  6
HIDDEN
 62
     7
370
    18
100
AcDbLine
 10
378.0471465194
 20
372.63
 30
0.0
 11
378.0471465194
 21
377.13
 31
0.0
  0
LINE
  5
88
330
1F
100
AcDbEntity
  8
0
  6
HIDDEN
 62
     7
370
    18
100
AcDbLine
 10
298.0471465194
 20
372.63
 30
0.0
 11
298.0471465194
 21
377.13
 31
0.0
  0
LINE
  5
89
330
1F
100
AcDbEntity
  8
0
  6
HIDDEN
 62
     7
370
    18
100
AcDbLine
 10
395.0471465194
 20
372.63
 30
0.0
 11
395.0471465194
 21
377.13
 31
0.0
  0
LINE
  5
8A
330
1F
100
AcDbEntity
  8
0
  6
HIDDEN
 62
     7
370
    18
100
AcDbLine
 10
315.0471465194
 20
372.63
 30
0.0
 11
315.0471465194
 21
377.13
 31
0.0
  0
LINE
  5
8B
330
1F
100
AcDbEntity
  8
0
  6
Continuous
 62
     7
370
    25
100
AcDbLine
 10
502.88
 20
153.1837644998
 30
0.0
 11
502.88
 21
173.1837644998
 31
0.0
  0
LINE
  5
8C
330
1F
100
AcDbEntity
  8
0
  6
Continuous
 62
     7
370
    25
100
AcDbLine
 10
507.38
 20
153.1837644998
 30
0.0
 11
507.38
 21
173.1837644998
 31
0.0
  0
LINE
  5
8D
330
1F
100
AcDbEntity
  8
0
  6
Continuous
 62
     7
370
    25
100
AcDbLine
 10
502.88
 20
173.1837644998
 30
0.0
 11
507.38
 21
173.1837644998
 31
0.0
  0
LINE
  5
8E
330
1F
100
AcDbEntity
  8
0
  6
Continuous
 62
     7
370
    25
100
AcDbLine
 10
502.88
 20
153.1837644998
 30
0.0
 11
507.38
 21
153.1837644998
 31
0.0
  0
LINE
  5
8F
330
1F
100
AcDbEntity
  8
0
  6
Continuous
 62
     7
370
    25
100
AcDbLine
 10
507.38
 20
173.1837644998
 30
0.0
 11
507.38
 21
249.6837644998
 31
0.0
  0
LINE
  5
90
330
1F
100
AcDbEntity
  8
0
  6
Continuous
 62
     7
370
    25
100
AcDbLine
 10
511.88
 20
153.1837644998
 30
0.0
 11
511.88
 21
249.6837644998
 31
0.0
  0
LINE
  5
91
330
1F
100
AcDbEntity
  8
0
  6
Continuous
 62
     7
370
    25
100
AcDbLine
 10
507.38
 20
249.6837644998
 30
0.0
 11
511.88
 21
249.6837644998
 31
0.0
  0
LINE
  5
92
330
1F
100
AcDbEntity
  8
0
  6
Continuous
 62
     7
370
    25
100
AcDbLine
 10
507.38
 20
153.1837644998
 30
0.0
 11
511.88
 21
153.1837644998
 31
0.0
  0
LINE
  5
93
330
1F
100
AcDbEntity
  8
0
  6
HIDDEN
 62
     7
370
    18
100
AcDbLine
 10
502.88
 20
166.6837644998
 30
0.0
 11
507.38
 21
166.6837644998
 31
0.0
  0
LINE
  5
94
330
1F
100
AcDbEntity
  8
0
  6
HIDDEN
 62
     7
370
    18
100
AcDbLine
 10
502.88
 20
159.6837644998
 30
0.0
 11
507.38
 21
159.6837644998
 31
0.0
  0
LINE
  5
95
330
1F
100
AcDbEntity
  8
0
  6
HIDDEN
 62
     7
370
    18
100
AcDbLine
 10
511.88
 20
242.1837644998
 30
0.0
 11
507.38
 21
242.1837644998
 31
0.0
  0
LINE
  5
96
330
1F
100
AcDbEntity
  8
0
  6
HIDDEN
 62
     7
370
    18
100
AcDbLine
 10
507.38
 20
237.1837644998
 30
0.0
 11
511.88
 21
237.1837644998
 31
0.0
  0
LINE
  5
97
330
1F
100
AcDbEntity
  8
0
  6
Continuous
 62
     7
370
    25
100
AcDbLine
 10
521.5221356237
 20
345.898640946
 30
0.0
 11
521.5221356237
 21
408.3640130553
 31
0.0
  0
LINE
  5
98
330
1F
100
AcDbEntity
  8
0
  6
Continuous
 62
     7
370
    25
100
AcDbLine
 10
521.5221356237
 20
408.3640130553
 30
0.0
 11
524.7041161391
 21
410.2009313069
 31
0.0
  0
LINE
  5
99
330
1F
100
AcDbEntity
  8
0
  6
Continuous
 62
     7
370
    25
100
AcDbLine
 10
524.7041161391
 20
344.0617226944
 30
0.0
 11
524.7041161391
 21
410.2009313069
 31
0.0
  0
LINE
  5
9A
330
1F
100
AcDbEntity
  8
0
  6
Continuous
 62
     7
370
    25
100
AcDbLine
 10
493.2378643763
 20
424.6921752917
 30
0.0
 11
493.2378643763
 21
362.2268031825
 31
0.0
  0
LINE
  5
9B
330
1F
100
AcDbEntity
  8
0
  6
Continuous
 62
     7
370
    25
100
AcDbLine
 10
521.5221356237
 20
408.3640130553
 30
0.0
 11
493.2378643763
 21
424.6921752917
 31
0.0
  0
LINE
  5
9C
330
1F
100
AcDbEntity
  8
0
  6
Continuous
 62
     7
370
    25
100
AcDbLine
 10
521.5221356237
 20
345.898640946
 30
0.0
 11
493.2378643763
 21
362.2268031825
 31
0.0
  0
LWPOLYLINE
  5
9D
330
1F
100
AcDbEntity
  8
0
  6
Continuous
 62
     7
370
    25
100
AcDbPolyline
 90
       16
 70
   128
 43
0.0
 10
517.9866017178
 20
402.239625216
 10
517.9479717685
 20
402.686346763
 10
517.8337702349
 20
403.158145625
 10
517.6489882719
 20
403.6344019275
 10
517.401701738
 20
404.094300985
 10
517.1027182413
 20
404.5177430016
 10
516.7651047954
 20
404.8862215295
 10
516.4036167278
 20
405.1836322888
 10
516.0340528018
 20
405.3969770021
 10
515.6725647343
 20
405.5169314818
 10
515.3349512883
 20
405.5382531414
 10
515.0359677917
 20
405.4600101222
 10
514.7886812578
 20
405.2856220196
 10
514.6038992948
 20
405.0227104303
 10
514.4896977611
 20
404.6827658525
 10
514.4510678119
 20
404.2806454955
  0
LWPOLYLINE
  5
9E
330
1F
100
AcDbEntity
  8
0
  6
Continuous
 62
     7
370
    25
100
AcDbPolyline
 90
       16
 70
   128
 43
0.0
 10
514.4510678119
 20
404.2806454955
 10
514.4896977611
 20
403.8339239484
 10
514.6038992948
 20
403.3621250865
 10
514.7886812578
 20
402.8858687839
 10
515.0359677917
 20
402.4259697265
 10
515.3349512883
 20
402.0025277098
 10
515.6725647343
 20
401.6340491819
 10
516.0340528018
 20
401.3366384227
 10
516.4036167278
 20
401.1232937094
 10
516.7651047954
 20
401.0033392297
 10
517.1027182413
 20
400.98201757
 10
517.401701738
 20
401.0602605893
 10
517.6489882719
 20
401.2346486919
 10
517.8337702349
 20
401.4975602812
 10
517.9479717685
 20
401.8375048589
 10
517.9866017178
 20
402.239625216
  0
LWPOLYLINE
  5
9F
330
1F
100
AcDbEntity
  8
0
  6
Continuous
 62
     7
370
    25
100
AcDbPolyline
 90
       16
 70
   128
 43
0.0
 10
500.3089321881
 20
412.4447266137
 10
500.2703022389
 20
412.8914481608
 10
500.1561007052
 20
413.3632470228
 10
499.9713187422
 20
413.8395033253
 10
499.7240322083
 20
414.2994023828
 10
499.4250487117
 20
414.7228443994
 10
499.0874352657
 20
415.0913229273
 10
498.7259471982
 20
415.3887336866
 10
498.3563832722
 20
415.6020783999
 10
497.9948952046
 20
415.7220328796
 10
497.6572817587
 20
415.7433545392
 10
497.358298262
 20
415.66511152
 10
497.1110117281
 20
415.4907234173
 10
496.9262297651
 20
415.2278118281
 10
496.8120282315
 20
414.8878672503
 10
496.7733982822
 20
414.4857468933
  0
LWPOLYLINE
  5
A0
330
1F
100
AcDbEntity
  8
0
  6
Continuous
 62
     7
370
    25
100
AcDbPolyline
 90
       16
 70
   128
 43
0.0
 10
496.7733982822
 20
414.4857468933
 10
496.8120282315
 20
414.0390253462
 10
496.9262297651
 20
413.5672264843
 10
497.1110117281
 20
413.0909701817
 10
497.358298262
 20
412.6310711243
 10
497.6572817587
 20
412.2076291076
 10
497.9948952046
 20
411.8391505797
 10
498.3563832722
 20
411.5417398205
 10
498.7259471982
 20
411.3283951072
 10
499.0874352657
 20
411.2084406275
 10
499.4250487117
 20
411.1871189678
 10
499.7240322083
 20
411.265361987
 10
499.9713187422
 20
411.4397500897
 10
500.1561007052
 20
411.7026616789
 10
500.2703022389
 20
412.0426062567
 10
500.3089321881
 20
412.4447266137
  0
LINE
  5
A1
330
1F
100
AcDbEntity
  8
0
  6
Continuous
 62
     7
370
    25
100
AcDbLine
 10
493.2378643763
 20
424.6921752917
 30
0.0
 11
496.4198448916
 21
426.5290935433
 31
0.0
  0
LINE
  5
A2
330
1F
100
AcDbEntity
  8
0
  6
Continuous
 62
     7
370
    25
100
AcDbLine
 10
524.7041161391
 20
410.2009313069
 30
0.0
 11
496.4198448916
 21
426.5290935433
 31
0.0
  0
LINE
  5
A3
330
1F
100
AcDbEntity
  8
0
  6
Continuous
 62
     7
370
    25
100
AcDbLine
 10
543.0888924499
 20
313.4437644998
 30
0.0
 11
546.2708729653
 21
315.2806827514
 31
0.0
  0
LINE
  5
A4
330
1F
100
AcDbEntity
  8
0
  6
Continuous
 62
     7
370
    25
100
AcDbLine
 10
543.0888924499
 20
313.4437644998
 30
0.0
 11
543.0888924499
 21
329.7745807375
 31
0.0
  0
LINE
  5
A5
330
1F
100
AcDbEntity
  8
0
  6
Continuous
 62
     7
370
    25
100
AcDbLine
 10
543.0888924499
 20
329.7745807375
 30
0.0
 11
546.2708729653
 21
331.6114989891
 31
0.0
  0
LINE
  5
A6
330
1F
100
AcDbEntity
  8
0
  6
Continuous
 62
     7
370
    25
100
AcDbLine
 10
546.2708729653
 20
315.2806827514
 30
0.0
 11
546.2708729653
 21
331.6114989891
 31
0.0
  0
LINE
  5
A7
330
1F
100
AcDbEntity
  8
0
  6
Continuous
 62
     7
370
    25
100
AcDbLine
 10
543.0888924499
 20
329.7745807375
 30
0.0
 11
465.3071465194
 21
374.6770268878
 31
0.0
  0
LINE
  5
A8
330
1F
100
AcDbEntity
  8
0
  6
Continuous
 62
     7
370
    25
100
AcDbLine
 10
465.3071465194
 20
358.34621065
 30
0.0
 11
543.0888924499
 21
313.4437644998
 31
0.0
  0
LINE
  5
A9
330
1F
100
AcDbEntity
  8
0
  6
Continuous
 62
     7
370
    25
100
AcDbLine
 10
465.3071465194
 20
374.6770268878
 30
0.0
 11
465.3071465194
 21
358.34621065
 31
0.0
  0
ARC
  5
AA
330
1F
100
AcDbEntity
  8
0
  6
Continuous
 62
     7
370
    25
100
AcDbCircle
 10
475.2538710224
 20
364.0896845668
 30
0.0
 40
5.355531548246109
100
AcDbArc
 50
182.476303705
 51
237.5236964406
  0
LINE
  5
AB
330
1F
100
AcDbEntity
  8
0
  6
Continuous
 62
     7
370
    25
100
AcDbLine
 10
472.3782143313
 20
359.5716853682
 30
0.0
 11
479.4492821431
 21
355.4896448091
 31
0.0
  0
LWPOLYLINE
  5
AC
330
1F
100
AcDbEntity
  8
0
  6
Continuous
 62
     7
370
    25
100
AcDbPolyline
 90
       19
 70
   128
 43
0.0
 10
479.4492821431
 20
355.4896448091
 10
479.879039457
 20
355.2849690065
 10
480.2957388124
 20
355.1733478024
 10
480.6867190102
 20
355.1581727507
 10
481.040100315
 20
355.2399049376
 10
481.3451454146
 20
355.4160609719
 10
481.5925856681
 20
355.6812884417
 10
481.7749027285
 20
356.0275285445
 10
481.8865569843
 20
356.44426095
 10
481.9241558773
 20
356.918823455
 10
481.8865569843
 20
357.4367967178
 10
481.7749027285
 20
357.9824423831
 10
481.5925856681
 20
358.5391812833
 10
481.3451454146
 20
359.0900971886
 10
481.040100315
 20
359.6184507982
 10
480.6867190102
 20
360.1081883549
 10
480.2957388124
 20
360.5444294309
 10
479.879039457
 20
360.9139190619
 10
479.4492821431
 20
361.2054304923
  0
LINE
  5
AD
330
1F
100
AcDbEntity
  8
0
  6
Continuous
 62
     7
370
    25
100
AcDbLine
 10
479.4492821431
 20
361.2054304923
 30
0.0
 11
472.3782143313
 21
365.2874710514
 31
0.0
  0
ARC
  5
AE
330
1F
100
AcDbEntity
  8
0
  6
Continuous
 62
     7
370
    25
100
AcDbCircle
 10
471.4196778345
 20
364.0899167731
 30
0.0
 40
1.53392583430245
100
AcDbArc
 50
51.325810101
 51
188.6849416537
  0
LINE
  5
AF
330
1F
100
AcDbEntity
  8
0
  6
Continuous
 62
     7
370
    25
100
AcDbLine
 10
536.0178246381
 20
328.5491060194
 30
0.0
 11
528.9467568262
 21
332.6311465785
 31
0.0
  0
ARC
  5
B0
330
1F
100
AcDbEntity
  8
0
  6
Continuous
 62
     7
370
    25
100
AcDbCircle
 10
527.9882203294
 20
331.4335923002
 30
0.0
 40
1.533925834302498
100
AcDbArc
 50
51.325810101
 51
188.6849416537
  0
ARC
  5
B1
330
1F
100
AcDbEntity
  8
0
  6
Continuous
 62
     7
370
    25
100
AcDbCircle
 10
531.8224135173
 20
331.4333600939
 30
0.0
 40
5.355531548246406
100
AcDbArc
 50
182.476303705
 51
237.5236964406
  0
LINE
  5
B2
330
1F
100
AcDbEntity
  8
0
  6
Continuous
 62
     7
370
    25
100
AcDbLine
 10
528.9467568262
 20
326.9153608953
 30
0.0
 11
536.0178246381
 21
322.8333203362
 31
0.0
  0
LWPOLYLINE
  5
B3
330
1F
100
AcDbEntity
  8
0
  6
Continuous
 62
     7
370
    25
100
AcDbPolyline
 90
       19
 70
   128
 43
0.0
 10
536.0178246381
 20
322.8333203362
 10
536.4475819519
 20
322.6286445336
 10
536.8642813073
 20
322.5170233295
 10
537.2552615051
 20
322.5018482778
 10
537.6086428099
 20
322.5835804646
 10
537.9136879095
 20
322.759736499
 10
538.161128163
 20
323.0249639687
 10
538.3434452234
 20
323.3712040716
 10
538.4550994792
 20
323.7879364771
 10
538.4926983722
 20
324.2624989821
 10
538.4550994792
 20
324.7804722449
 10
538.3434452234
 20
325.3261179101
 10
538.161128163
 20
325.8828568103
 10
537.9136879095
 20
326.4337727157
 10
537.6086428099
 20
326.9621263253
 10
537.2552615051
 20
327.451863882
 10
536.8642813073
 20
327.888104958
 10
536.4475819519
 20
328.257594589
 10
536.0178246381
 20
328.5491060194
  0
LINE
  5
B4
330
1F
100
AcDbEntity
  8
0
  6
Continuous
 62
     7
370
    25
100
AcDbLine
 10
465.3071465194
 20
374.6770268878
 30
0.0
 11
468.4891270347
 21
376.5139451394
 31
0.0
  0
LINE
  5
B5
330
1F
100
AcDbEntity
  8
0
  6
Continuous
 62
     7
370
    25
100
AcDbLine
 10
493.2378643763
 20
362.2268031825
 30
0.0
 11
468.4891270347
 21
376.5139451394
 31
0.0
  0
LINE
  5
B6
330
1F
100
AcDbEntity
  8
0
  6
Continuous
 62
     7
370
    25
100
AcDbLine
 10
546.2708729653
 20
331.6114989891
 30
0.0
 11
521.5221356237
 21
345.898640946
 31
0.0
  0
LINE
  5
B7
330
1F
100
AcDbEntity
  8
0
  6
Continuous
 62
     7
370
    25
100
AcDbLine
 10
532.1287373415
 20
328.7522791469
 30
0.0
 11
538.389686997
 21
325.1379098448
 31
0.0
  0
ARC
  5
B8
330
1F
100
AcDbEntity
  8
0
  6
Continuous
 62
     7
370
    25
100
AcDbCircle
 10
535.1231165908
 20
333.3645177342
 30
0.0
 40
5.499004625850481
100
AcDbArc
 50
192.6157131788
 51
237.0073709028
  0
LINE
  5
B9
330
1F
100
AcDbEntity
  8
0
  6
Continuous
 62
     7
370
    25
100
AcDbLine
 10
475.5601948466
 20
361.4086036198
 30
0.0
 11
481.8211445021
 21
357.7942343177
 31
0.0
  0
ARC
  5
BA
330
1F
100
AcDbEntity
  8
0
  6
Continuous
 62
     7
370
    25
100
AcDbCircle
 10
478.5545740959
 20
366.0208422071
 30
0.0
 40
5.49900462585059
100
AcDbArc
 50
192.6157131788
 51
237.0073709028
  0
LINE
  5
BB
330
1F
100
AcDbEntity
  8
0
  6
HIDDEN
 62
     7
370
    18
100
AcDbLine
 10
521.5221356237
 20
329.5678247083
 30
0.0
 11
524.7041161391
 21
331.4047429599
 31
0.0
  0
LINE
  5
BC
330
1F
100
AcDbEntity
  8
0
  6
HIDDEN
 62
     7
370
    18
100
AcDbLine
 10
521.5221356237
 20
329.5678247083
 30
0.0
 11
521.5221356237
 21
345.898640946
 31
0.0
  0
LINE
  5
BD
330
1F
100
AcDbEntity
  8
0
  6
HIDDEN
 62
     7
370
    18
100
AcDbLine
 10
524.7041161391
 20
331.4047429599
 30
0.0
 11
524.7041161391
 21
344.0617226944
 31
0.0
  0
LWPOLYLINE
  5
BE
330
1F
100
AcDbEntity
  8
0
  6
HIDDEN
 62
     7
370
    18
100
AcDbPolyline
 90
       16
 70
   128
 43
0.0
 10
521.1685822331
 20
404.0765434676
 10
521.1299522839
 20
404.5232650146
 10
521.0157507502
 20
404.9950638766
 10
520.8309687872
 20
405.4713201791
 10
520.5836822533
 20
405.9312192366
 10
520.2846987567
 20
406.3546612532
 10
519.9470853107
 20
406.7231397811
 10
519.5855972432
 20
407.0205505404
 10
519.2160333172
 20
407.2338952537
 10
518.8545452496
 20
407.3538497334
 10
518.5169318037
 20
407.375171393
 10
518.217948307
 20
407.2969283738
 10
517.9706617731
 20
407.1225402712
 10
517.7858798101
 20
406.8596286819
 10
517.6716782765
 20
406.5196841041
 10
517.6330483272
 20
406.1175637471
  0
LWPOLYLINE
  5
BF
330
1F
100
AcDbEntity
  8
0
  6
HIDDEN
 62
     7
370
    18
100
AcDbPolyline
 90
       16
 70
   128
 43
0.0
 10
517.6330483272
 20
406.1175637471
 10
517.6716782765
 20
405.6708422
 10
517.7858798101
 20
405.1990433381
 10
517.9706617731
 20
404.7227870355
 10
518.217948307
 20
404.2628879781
 10
518.5169318037
 20
403.8394459614
 10
518.8545452496
 20
403.4709674336
 10
519.2160333172
 20
403.1735566743
 10
519.5855972432
 20
402.960211961
 10
519.9470853107
 20
402.8402574813
 10
520.2846987567
 20
402.8189358217
 10
520.5836822533
 20
402.8971788409
 10
520.8309687872
 20
403.0715669435
 10
521.0157507502
 20
403.3344785328
 10
521.1299522839
 20
403.6744231105
 10
521.1685822331
 20
404.0765434676
  0
LWPOLYLINE
  5
C0
330
1F
100
AcDbEntity
  8
0
  6
HIDDEN
 62
     7
370
    18
100
AcDbPolyline
 90
       16
 70
   128
 43
0.0
 10
503.4909127035
 20
414.2816448653
 10
503.4522827542
 20
414.7283664124
 10
503.3380812206
 20
415.2001652744
 10
503.1532992576
 20
415.6764215769
 10
502.9060127236
 20
416.1363206344
 10
502.607029227
 20
416.559762651
 10
502.2694157811
 20
416.9282411789
 10
501.9079277135
 20
417.2256519382
 10
501.5383637875
 20
417.4389966515
 10
501.1768757199
 20
417.5589511312
 10
500.839262274
 20
417.5802727908
 10
500.5402787774
 20
417.5020297716
 10
500.2929922435
 20
417.3276416689
 10
500.1082102805
 20
417.0647300797
 10
499.9940087468
 20
416.7247855019
 10
499.9553787975
 20
416.3226651449
  0
LWPOLYLINE
  5
C1
330
1F
100
AcDbEntity
  8
0
  6
HIDDEN
 62
     7
370
    18
100
AcDbPolyline
 90
       16
 70
   128
 43
0.0
 10
499.9553787975
 20
416.3226651449
 10
499.9940087468
 20
415.8759435978
 10
500.1082102805
 20
415.4041447359
 10
500.2929922435
 20
414.9278884333
 10
500.5402787774
 20
414.4679893759
 10
500.839262274
 20
414.0445473592
 10
501.1768757199
 20
413.6760688313
 10
501.5383637875
 20
413.3786580721
 10
501.9079277135
 20
413.1653133588
 10
502.2694157811
 20
413.0453588791
 10
502.607029227
 20
413.0240372194
 10
502.9060127236
 20
413.1022802386
 10
503.1532992576
 20
413.2766683413
 10
503.3380812206
 20
413.5395799305
 10
503.4522827542
 20
413.8795245083
 10
503.4909127035
 20
414.2816448653
  0
LINE
  5
C2
330
1F
100
AcDbEntity
  8
0
  6
HIDDEN
 62
     7
370
    18
100
AcDbLine
 10
496.4198448916
 20
426.5290935433
 30
0.0
 11
496.4198448916
 21
347.7329051963
 31
0.0
  0
LWPOLYLINE
  5
C3
330
1F
100
AcDbEntity
  8
0
  6
HIDDEN
 62
     7
370
    18
100
AcDbPolyline
 90
       19
 70
   128
 43
0.0
 10
539.1998051534
 20
324.6702385878
 10
539.6295624673
 20
324.4655627852
 10
540.0462618227
 20
324.3539415811
 10
540.4372420205
 20
324.3387665294
 10
540.7906233252
 20
324.4204987162
 10
541.0956684249
 20
324.5966547506
 10
541.3431086783
 20
324.8618822203
 10
541.5254257388
 20
325.2081223232
 10
541.6370799945
 20
325.6248547287
 10
541.6746788875
 20
326.0994172337
 10
541.6370799945
 20
326.6173904965
 10
541.5254257388
 20
327.1630361618
 10
541.3431086783
 20
327.7197750619
 10
541.0956684249
 20
328.2706909673
 10
540.7906233252
 20
328.7990445769
 10
540.4372420205
 20
329.2887821336
 10
540.0462618227
 20
329.7250232096
 10
539.6295624673
 20
330.0945128406
 10
539.1998051534
 20
330.386024271
  0
LINE
  5
C4
330
1F
100
AcDbEntity
  8
0
  6
HIDDEN
 62
     7
370
    18
100
AcDbLine
 10
539.1998051534
 20
330.386024271
 30
0.0
 11
532.1287373415
 21
334.4680648301
 31
0.0
  0
LINE
  5
C5
330
1F
100
AcDbEntity
  8
0
  6
HIDDEN
 62
     7
370
    18
100
AcDbLine
 10
521.5221356237
 20
329.5678247083
 30
0.0
 11
546.2708729653
 21
315.2806827514
 31
0.0
  0
LINE
  5
C6
330
1F
100
AcDbEntity
  8
0
  6
HIDDEN
 62
     7
370
    18
100
AcDbLine
 10
493.2378643763
 20
345.8959869447
 30
0.0
 11
496.4198448916
 21
347.7329051963
 31
0.0
  0
LINE
  5
C7
330
1F
100
AcDbEntity
  8
0
  6
HIDDEN
 62
     7
370
    18
100
AcDbLine
 10
496.4198448916
 20
347.7329051963
 30
0.0
 11
524.7041161391
 21
331.4047429599
 31
0.0
  0
LINE
  5
C8
330
1F
100
AcDbEntity
  8
0
  6
HIDDEN
 62
     7
370
    18
100
AcDbLine
 10
538.389686997
 20
325.1379098448
 30
0.0
 11
539.1998051534
 21
324.6702385878
 31
0.0
  0
ARC
  5
C9
330
1F
100
AcDbEntity
  8
0
  6
HIDDEN
 62
     7
370
    18
100
AcDbCircle
 10
531.1702008448
 20
333.2705105518
 30
0.0
 40
1.53392583430242
100
AcDbArc
 50
51.325810101
 51
188.6849416537
  0
LWPOLYLINE
  5
CA
330
1F
100
AcDbEntity
  8
0
  6
HIDDEN
 62
     7
370
    18
100
AcDbPolyline
 90
        3
 70
   128
 43
0.0
 10
529.6538636074
 20
333.0388861842
 10
529.6914625004
 20
332.5209129213
 10
529.7568749826
 20
332.1634753214
  0
LINE
  5
CB
330
1F
100
AcDbEntity
  8
0
  6
HIDDEN
 62
     7
370
    18
100
AcDbLine
 10
468.4891270347
 20
360.1831289016
 30
0.0
 11
493.2378643763
 21
345.8959869447
 31
0.0
  0
LINE
  5
CC
330
1F
100
AcDbEntity
  8
0
  6
HIDDEN
 62
     7
370
    18
100
AcDbLine
 10
493.2378643763
 20
362.2268031825
 30
0.0
 11
493.2378643763
 21
345.8959869447
 31
0.0
  0
LWPOLYLINE
  5
CD
330
1F
100
AcDbEntity
  8
0
  6
HIDDEN
 62
     7
370
    18
100
AcDbPolyline
 90
       19
 70
   128
 43
0.0
 10
482.6312626585
 20
357.3265630607
 10
483.0610199724
 20
357.1218872581
 10
483.4777193277
 20
357.010266054
 10
483.8686995255
 20
356.9950910023
 10
484.2220808303
 20
357.0768231892
 10
484.5271259299
 20
357.2529792235
 10
484.7745661834
 20
357.5182066933
 10
484.9568832438
 20
357.8644467961
 10
485.0685374996
 20
358.2811792016
 10
485.1061363926
 20
358.7557417066
 10
485.0685374996
 20
359.2737149694
 10
484.9568832438
 20
359.8193606347
 10
484.7745661834
 20
360.3760995349
 10
484.5271259299
 20
360.9270154402
 10
484.2220808303
 20
361.4553690498
 10
483.8686995255
 20
361.9451066065
 10
483.4777193277
 20
362.3813476825
 10
483.0610199724
 20
362.7508373135
 10
482.6312626585
 20
363.0423487439
  0
LINE
  5
CE
330
1F
100
AcDbEntity
  8
0
  6
HIDDEN
 62
     7
370
    18
100
AcDbLine
 10
482.6312626585
 20
363.0423487439
 30
0.0
 11
475.5601948466
 21
367.124389303
 31
0.0
  0
LINE
  5
CF
330
1F
100
AcDbEntity
  8
0
  6
HIDDEN
 62
     7
370
    18
100
AcDbLine
 10
481.8211445021
 20
357.7942343177
 30
0.0
 11
482.6312626585
 21
357.3265630607
 31
0.0
  0
ARC
  5
D0
330
1F
100
AcDbEntity
  8
0
  6
HIDDEN
 62
     7
370
    18
100
AcDbCircle
 10
474.6016583498
 20
365.9268350247
 30
0.0
 40
1.53392583430245
100
AcDbArc
 50
51.325810101
 51
188.6849416537
  0
LWPOLYLINE
  5
D1
330
1F
100
AcDbEntity
  8
0
  6
HIDDEN
 62
     7
370
    18
100
AcDbPolyline
 90
        3
 70
   128
 43
0.0
 10
473.0853211125
 20
365.6952106571
 10
473.1229200055
 20
365.1772373942
 10
473.1883324877
 20
364.8197997943
  0
LINE
  5
D2
330
1F
100
AcDbEntity
  8
0
  6
HIDDEN
 62
     7
370
    18
100
AcDbLine
 10
468.4891270347
 20
376.5139451394
 30
0.0
 11
468.4891270347
 21
360.1831289016
 31
0.0
  0
LINE
  5
D3
330
1F
100
AcDbEntity
  8
0
  6
HIDDEN
 62
     7
370
    18
100
AcDbLine
 10
465.3071465194
 20
358.34621065
 30
0.0
 11
468.4891270347
 21
360.1831289016
 31
0.0
  0
LINE
  5
D4
330
1F
100
AcDbEntity
  8
0
  6
HIDDEN
 62
     7
370
    18
100
AcDbLine
 10
518.1509168644
 20
407.2621757633
 30
0.0
 11
514.968936349
 21
405.4252575117
 31
0.0
  0
LINE
  5
D5
330
1F
100
AcDbEntity
  8
0
  6
HIDDEN
 62
     7
370
    18
100
AcDbLine
 10
517.4687331806
 20
401.0950131998
 30
0.0
 11
520.650713696
 21
402.9319314514
 31
0.0
  0
LINE
  5
D6
330
1F
100
AcDbEntity
  8
0
  6
HIDDEN
 62
     7
370
    18
100
AcDbLine
 10
500.4732473347
 20
417.4672771611
 30
0.0
 11
497.2912668194
 21
415.6303589095
 31
0.0
  0
LINE
  5
D7
330
1F
100
AcDbEntity
  8
0
  6
HIDDEN
 62
     7
370
    18
100
AcDbLine
 10
499.791063651
 20
411.3001145976
 30
0.0
 11
502.9730441663
 21
413.1370328492
 31
0.0
  0
LINE
  5
D8
330
1F
100
AcDbEntity
  8
0
  6
HIDDEN
 62
     7
370
    18
100
AcDbLine
 10
537.7676824202
 20
322.6600421594
 30
0.0
 11
540.9496629355
 21
324.496960411
 31
0.0
  0
LINE
  5
D9
330
1F
100
AcDbEntity
  8
0
  6
HIDDEN
 62
     7
370
    18
100
AcDbLine
 10
530.3788795594
 20
334.6413430068
 30
0.0
 11
527.1968990441
 21
332.8044247552
 31
0.0
  0
LINE
  5
DA
330
1F
100
AcDbEntity
  8
0
  6
HIDDEN
 62
     7
370
    18
100
AcDbLine
 10
481.1991399252
 20
355.3163666323
 30
0.0
 11
484.3811204406
 21
357.1532848839
 31
0.0
  0
LINE
  5
DB
330
1F
100
AcDbEntity
  8
0
  6
HIDDEN
 62
     7
370
    18
100
AcDbLine
 10
473.8103370645
 20
367.2976674797
 30
0.0
 11
470.6283565492
 21
365.4607492281
 31
0.0
  0
ENDSEC
  0
SECTION
  2
OBJECTS
  0
DICTIONARY
  5
C
330
0
100
AcDbDictionary
281
     1
  3
ACAD_GROUP
350
D
  3
ACAD_LAYOUT
350
1A
  3
ACAD_MLINESTYLE
350
17
  3
ACAD_PLOTSETTINGS
350
19
  3
ACAD_PLOTSTYLENAME
350
E
  3
ACAD_SCALELIST
350
47
  3
DWGPROPS
350
DC
  0
DICTIONARY
  5
D
102
{ACAD_REACTORS
330
C
102
}
330
C
100
AcDbDictionary
281
     1
  0
DICTIONARY
  5
1A
102
{ACAD_REACTORS
330
C
102
}
330
C
100
AcDbDictionary
281
     1
  3
Layout1
350
1E
  3
Layout2
350
26
  3
Model
350
22
  0
DICTIONARY
  5
17
102
{ACAD_REACTORS
330
C
102
}
330
C
100
AcDbDictionary
281
     1
  3
Standard
350
18
  0
DICTIONARY
  5
19
102
{ACAD_REACTORS
330
C
102
}
330
C
100
AcDbDictionary
281
     1
  0
ACDBDICTIONARYWDFLT
  5
E
102
{ACAD_REACTORS
330
C
102
}
330
C
100
AcDbDictionary
281
     1
  3
Normal
350
F
100
AcDbDictionaryWithDefault
340
F
  0
DICTIONARY
  5
47
102
{ACAD_REACTORS
330
C
102
}
330
C
100
AcDbDictionary
281
     1
  3
A0
350
48
  3
A1
350
49
  3
A2
350
4A
  3
A3
350
4B
  3
A4
350
4C
  3
A5
350
4D
  3
A6
350
4E
  3
A7
350
4F
  3
A8
350
50
  3
A9
350
51
  3
B0
350
52
  3
B1
350
53
  3
B2
350
54
  3
B3
350
55
  3
B4
350
56
  3
B5
350
57
  3
B6
350
58
  0
XRECORD
  5
DC
102
{ACAD_REACTORS
330
C
102
}
330
C
100
AcDbXrecord
280
     1
  1
DWGPROPS COOKIE
  2

  3

  4

  6

  7

  8
imaizumi
  9

300
=
301
=
302
=
303
=
304
=
305
=
306
=
307
=
308
=
309
=
 40
0.0
 41
2461263.066766146
 42
2461263.066766493
  1

 90
        0
  0
LAYOUT
  5
1E
102
{ACAD_REACTORS
330
1A
102
}
330
1A
100
AcDbPlotSettings
  1

  2
none_device
  4

  6

 40
0.0
 41
0.0
 42
0.0
 43
0.0
 44
0.0
 45
0.0
 46
0.0
 47
0.0
 48
0.0
 49
0.0
140
0.0
141
0.0
142
1.0
143
1.0
 70
   688
 72
     1
 73
     0
 74
     5
  7

 75
    16
147
1.0
148
0.0
149
0.0
100
AcDbLayout
  1
Layout1
 70
     1
 71
     1
 10
0.0
 20
0.0
 11
420.0
 21
297.0
 12
0.0
 22
0.0
 32
0.0
 14
1.0000000000E+20
 24
1.0000000000E+20
 34
1.0000000000E+20
 15
-1.0000000000E+20
 25
-1.0000000000E+20
 35
-1.0000000000E+20
146
0.0
 13
0.0
 23
0.0
 33
0.0
 16
1.0
 26
0.0
 36
0.0
 17
0.0
 27
1.0
 37
0.0
 76
     0
330
1B
  0
LAYOUT
  5
26
102
{ACAD_REACTORS
330
1A
102
}
330
1A
100
AcDbPlotSettings
  1

  2
none_device
  4

  6

 40
0.0
 41
0.0
 42
0.0
 43
0.0
 44
0.0
 45
0.0
 46
0.0
 47
0.0
 48
0.0
 49
0.0
140
0.0
141
0.0
142
1.0
143
1.0
 70
   688
 72
     1
 73
     0
 74
     5
  7

 75
    16
147
1.0
148
0.0
149
0.0
100
AcDbLayout
  1
Layout2
 70
     1
 71
     2
 10
0.0
 20
0.0
 11
0.0
 21
0.0
 12
0.0
 22
0.0
 32
0.0
 14
0.0
 24
0.0
 34
0.0
 15
0.0
 25
0.0
 35
0.0
146
0.0
 13
0.0
 23
0.0
 33
0.0
 16
1.0
 26
0.0
 36
0.0
 17
0.0
 27
1.0
 37
0.0
 76
     0
330
23
  0
LAYOUT
  5
22
102
{ACAD_REACTORS
330
1A
102
}
330
1A
100
AcDbPlotSettings
  1

  2
none_device
  4
Letter_(8.50_x_11.00_Inches)
  6

 40
6.35
 41
6.35
 42
6.35000508
 43
6.35000508
 44
215.9
 45
279.4
 46
0.0
 47
0.0
 48
0.0
 49
0.0
140
0.0
141
0.0
142
1.0
143
1.0
 70
  1712
 72
     1
 73
     0
 74
     0
  7

 75
     0
147
1.0
148
0.0
149
0.0
100
AcDbLayout
  1
Model
 70
     1
 71
     0
 10
0.0
 20
0.0
 11
841.0
 21
594.0
 12
0.0
 22
0.0
 32
0.0
 14
0.0
 24
0.0
 34
0.0
 15
841.0
 25
594.0
 35
0.0
146
0.0
 13
0.0
 23
0.0
 33
0.0
 16
1.0
 26
0.0
 36
0.0
 17
0.0
 27
1.0
 37
0.0
 76
     0
330
1F
331
29
  0
MLINESTYLE
  5
18
102
{ACAD_REACTORS
330
17
102
}
330
17
100
AcDbMlineStyle
  2
Standard
 70
     0
  3

 62
   256
 51
90.0
 52
90.0
 71
     2
 49
0.5
 62
   256
  6
BYLAYER
 49
-0.5
 62
   256
  6
BYLAYER
  0
ACDBPLACEHOLDER
  5
F
102
{ACAD_REACTORS
330
E
102
}
330
E
  0
SCALE
  5
48
102
{ACAD_REACTORS
330
47
102
}
330
47
100
AcDbScale
 70
     0
300
1:1
140
1.0
141
1.0
290
     1
  0
SCALE
  5
49
102
{ACAD_REACTORS
330
47
102
}
330
47
100
AcDbScale
 70
     0
300
1:2
140
1.0
141
2.0
290
     0
  0
SCALE
  5
4A
102
{ACAD_REACTORS
330
47
102
}
330
47
100
AcDbScale
 70
     0
300
1:4
140
1.0
141
4.0
290
     0
  0
SCALE
  5
4B
102
{ACAD_REACTORS
330
47
102
}
330
47
100
AcDbScale
 70
     0
300
1:5
140
1.0
141
5.0
290
     0
  0
SCALE
  5
4C
102
{ACAD_REACTORS
330
47
102
}
330
47
100
AcDbScale
 70
     0
300
1:8
140
1.0
141
8.0
290
     0
  0
SCALE
  5
4D
102
{ACAD_REACTORS
330
47
102
}
330
47
100
AcDbScale
 70
     0
300
1:10
140
1.0
141
10.0
290
     0
  0
SCALE
  5
4E
102
{ACAD_REACTORS
330
47
102
}
330
47
100
AcDbScale
 70
     0
300
1:16
140
1.0
141
16.0
290
     0
  0
SCALE
  5
4F
102
{ACAD_REACTORS
330
47
102
}
330
47
100
AcDbScale
 70
     0
300
1:20
140
1.0
141
20.0
290
     0
  0
SCALE
  5
50
102
{ACAD_REACTORS
330
47
102
}
330
47
100
AcDbScale
 70
     0
300
1:30
140
1.0
141
30.0
290
     0
  0
SCALE
  5
51
102
{ACAD_REACTORS
330
47
102
}
330
47
100
AcDbScale
 70
     0
300
1:40
140
1.0
141
40.0
290
     0
  0
SCALE
  5
52
102
{ACAD_REACTORS
330
47
102
}
330
47
100
AcDbScale
 70
     0
300
1:50
140
1.0
141
50.0
290
     0
  0
SCALE
  5
53
102
{ACAD_REACTORS
330
47
102
}
330
47
100
AcDbScale
 70
     0
300
1:100
140
1.0
141
100.0
290
     0
  0
SCALE
  5
54
102
{ACAD_REACTORS
330
47
102
}
330
47
100
AcDbScale
 70
     0
300
2:1
140
2.0
141
1.0
290
     0
  0
SCALE
  5
55
102
{ACAD_REACTORS
330
47
102
}
330
47
100
AcDbScale
 70
     0
300
4:1
140
4.0
141
1.0
290
     0
  0
SCALE
  5
56
102
{ACAD_REACTORS
330
47
102
}
330
47
100
AcDbScale
 70
     0
300
8:1
140
8.0
141
1.0
290
     0
  0
SCALE
  5
57
102
{ACAD_REACTORS
330
47
102
}
330
47
100
AcDbScale
 70
     0
300
10:1
140
10.0
141
1.0
290
     0
  0
SCALE
  5
58
102
{ACAD_REACTORS
330
47
102
}
330
47
100
AcDbScale
 70
     0
300
100:1
140
100.0
141
1.0
290
     0
  0
ENDSEC
  0
EOF
