  0
SECTION
  2
HEADER
  9
$ACADVER
  1
AC1015
  9
$ACADMAINTVER
 70
     6
  9
$DWGCODEPAGE
  3
DOS932
  9
$INSBASE
 10
0.0
 20
0.0
 30
0.0
  9
$EXTMIN
 10
0.0
 20
0.0
 30
0.0
  9
$EXTMAX
 10
841.0
 20
594.0
 30
0.0
  9
$LIMMIN
 10
0.0
 20
0.0
  9
$LIMMAX
 10
841.0
 20
594.0
  9
$ORTHOMODE
 70
     0
  9
$REGENMODE
 70
     1
  9
$FILLMODE
 70
     1
  9
$QTEXTMODE
 70
     0
  9
$MIRRTEXT
 70
     1
  9
$LTSCALE
 40
1.0
  9
$ATTMODE
 70
     1
  9
$TEXTSIZE
 40
3.5
  9
$TRACEWID
 40
1.0
  9
$TEXTSTYLE
  7
Standard
  9
$CLAYER
  8
0
  9
$CELTYPE
  6
ByLayer
  9
$CECOLOR
 62
   256
  9
$CELTSCALE
 40
1.0
  9
$DISPSILH
 70
     0
  9
$DIMSCALE
 40
1.0
  9
$DIMASZ
 40
3.302
  9
$DIMEXO
 40
1.0
  9
$DIMDLI
 40
3.75
  9
$DIMRND
 40
0.0
  9
$DIMDLE
 40
0.0
  9
$DIMEXE
 40
1.0
  9
$DIMTP
 40
0.0
  9
$DIMTM
 40
0.0
  9
$DIMTXT
 40
3.5
  9
$DIMCEN
 40
2.5
  9
$DIMTSZ
 40
0.0
  9
$DIMTOL
 70
     0
  9
$DIMLIM
 70
     0
  9
$DIMTIH
 70
     1
  9
$DIMTOH
 70
     1
  9
$DIMSE1
 70
     0
  9
$DIMSE2
 70
     0
  9
$DIMTAD
 70
     1
  9
$DIMZIN
 70
     1
  9
$DIMBLK
  1

  9
$DIMASO
 70
     1
  9
$DIMSHO
 70
     1
  9
$DIMPOST
  1

  9
$DIMAPOST
  1

  9
$DIMALT
 70
     0
  9
$DIMALTD
 70
     3
  9
$DIMALTF
 40
0.0393700787
  9
$DIMLFAC
 40
10.0
  9
$DIMTOFL
 70
     1
  9
$DIMTVP
 40
0.0
  9
$DIMTIX
 70
     0
  9
$DIMSOXD
 70
     0
  9
$DIMSAH
 70
     0
  9
$DIMBLK1
  1

  9
$DIMBLK2
  1

  9
$DIMSTYLE
  2
ISO-25
  9
$DIMCLRD
 70
     0
  9
$DIMCLRE
 70
     0
  9
$DIMCLRT
 70
     0
  9
$DIMTFAC
 40
1.0
  9
$DIMGAP
 40
1.524
  9
$DIMJUST
 70
     0
  9
$DIMSD1
 70
     0
  9
$DIMSD2
 70
     0
  9
$DIMTOLJ
 70
     0
  9
$DIMTZIN
 70
     1
  9
$DIMALTZ
 70
     0
  9
$DIMALTTZ
 70
     0
  9
$DIMUPT
 70
     0
  9
$DIMDEC
 70
     2
  9
$DIMTDEC
 70
     2
  9
$DIMALTU
 70
     2
  9
$DIMALTTD
 70
     3
  9
$DIMTXSTY
  7
Standard
  9
$DIMAUNIT
 70
     0
  9
$DIMADEC
 70
     2
  9
$DIMALTRND
 40
0.0
  9
$DIMAZIN
 70
     0
  9
$DIMDSEP
 70
    44
  9
$DIMATFIT
 70
     3
  9
$DIMFRAC
 70
     0
  9
$DIMLDRBLK
  1

  9
$DIMLUNIT
 70
     2
  9
$DIMLWD
 70
    -2
  9
$DIMLWE
 70
    -2
  9
$DIMTMOVE
 70
     0
  9
$LUNITS
 70
     2
  9
$LUPREC
 70
     2
  9
$SKETCHINC
 40
1.0
  9
$FILLETRAD
 40
0.0
  9
$AUNITS
 70
     0
  9
$AUPREC
 70
     2
  9
$MENU
  1
.
  9
$ELEVATION
 40
0.0
  9
$PELEVATION
 40
0.0
  9
$THICKNESS
 40
0.0
  9
$LIMCHECK
 70
     0
  9
$CHAMFERA
 40
0.0
  9
$CHAMFERB
 40
0.0
  9
$CHAMFERC
 40
0.0
  9
$CHAMFERD
 40
0.0
  9
$SKPOLY
 70
     0
  9
$TDCREATE
 40
2461263.426963183
  9
$TDUCREATE
 40
2461263.051963183
  9
$TDUPDATE
 40
2461263.426963727
  9
$TDUUPDATE
 40
2461263.051963727
  9
$TDINDWG
 40
0.0000000116
  9
$TDUSRTIMER
 40
0.0000000116
  9
$USRTIMER
 70
     1
  9
$ANGBASE
 50
0.0
  9
$ANGDIR
 70
     0
  9
$PDMODE
 70
     0
  9
$PDSIZE
 40
-1.0
  9
$PLINEWID
 40
0.0
  9
$SPLFRAME
 70
     0
  9
$SPLINETYPE
 70
     6
  9
$SPLINESEGS
 70
     8
  9
$HANDSEED
  5
10D
  9
$SURFTAB1
 70
     6
  9
$SURFTAB2
 70
     6
  9
$SURFTYPE
 70
     6
  9
$SURFU
 70
     6
  9
$SURFV
 70
     6
  9
$UCSBASE
  2

  9
$UCSNAME
  2

  9
$UCSORG
 10
0.0
 20
0.0
 30
0.0
  9
$UCSXDIR
 10
1.0
 20
0.0
 30
0.0
  9
$UCSYDIR
 10
0.0
 20
1.0
 30
0.0
  9
$UCSORTHOREF
  2

  9
$UCSORTHOVIEW
 70
     0
  9
$UCSORGTOP
 10
0.0
 20
0.0
 30
0.0
  9
$UCSORGBOTTOM
 10
0.0
 20
0.0
 30
0.0
  9
$UCSORGLEFT
 10
0.0
 20
0.0
 30
0.0
  9
$UCSORGRIGHT
 10
0.0
 20
0.0
 30
0.0
  9
$UCSORGFRONT
 10
0.0
 20
0.0
 30
0.0
  9
$UCSORGBACK
 10
0.0
 20
0.0
 30
0.0
  9
$PUCSBASE
  2

  9
$PUCSNAME
  2

  9
$PUCSORG
 10
0.0
 20
0.0
 30
0.0
  9
$PUCSXDIR
 10
1.0
 20
0.0
 30
0.0
  9
$PUCSYDIR
 10
0.0
 20
1.0
 30
0.0
  9
$PUCSORTHOREF
  2

  9
$PUCSORTHOVIEW
 70
     0
  9
$PUCSORGTOP
 10
0.0
 20
0.0
 30
0.0
  9
$PUCSORGBOTTOM
 10
0.0
 20
0.0
 30
0.0
  9
$PUCSORGLEFT
 10
0.0
 20
0.0
 30
0.0
  9
$PUCSORGRIGHT
 10
0.0
 20
0.0
 30
0.0
  9
$PUCSORGFRONT
 10
0.0
 20
0.0
 30
0.0
  9
$PUCSORGBACK
 10
0.0
 20
0.0
 30
0.0
  9
$USERI1
 70
     0
  9
$USERI2
 70
     0
  9
$USERI3
 70
     0
  9
$USERI4
 70
     0
  9
$USERI5
 70
     0
  9
$USERR1
 40
0.0
  9
$USERR2
 40
0.0
  9
$USERR3
 40
0.0
  9
$USERR4
 40
0.0
  9
$USERR5
 40
0.0
  9
$WORLDVIEW
 70
     1
  9
$SHADEDGE
 70
     3
  9
$SHADEDIF
 70
    70
  9
$TILEMODE
 70
     1
  9
$MAXACTVP
 70
    64
  9
$PINSBASE
 10
0.0
 20
0.0
 30
0.0
  9
$PLIMCHECK
 70
     0
  9
$PEXTMIN
 10
1.0000000000E+20
 20
1.0000000000E+20
 30
1.0000000000E+20
  9
$PEXTMAX
 10
-1.0000000000E+20
 20
-1.0000000000E+20
 30
-1.0000000000E+20
  9
$PLIMMIN
 10
0.0
 20
0.0
  9
$PLIMMAX
 10
420.0
 20
297.0
  9
$UNITMODE
 70
     0
  9
$VISRETAIN
 70
     1
  9
$PLINEGEN
 70
     0
  9
$PSLTSCALE
 70
     1
  9
$TREEDEPTH
 70
  3020
  9
$CMLSTYLE
  2
Standard
  9
$CMLJUST
 70
     0
  9
$CMLSCALE
 40
20.0
  9
$PROXYGRAPHICS
 70
     1
  9
$MEASUREMENT
 70
     1
  9
$CELWEIGHT
370
    -1
  9
$ENDCAPS
280
     0
  9
$JOINSTYLE
280
     0
  9
$LWDISPLAY
290
     1
  9
$INSUNITS
 70
     4
  9
$HYPERLINKBASE
  1

  9
$STYLESHEET
  1

  9
$XEDIT
290
     1
  9
$CEPSNTYPE
380
     0
  9
$PSTYLEMODE
290
     1
  9
$FINGERPRINTGUID
  2
{e1616332-a9f0-40e5-86bc-7e2840eb38b9}
  9
$VERSIONGUID
  2
{FAEB1C32-E019-11D5-929B-00C0DF256EC4}
  9
$EXTNAMES
290
     1
  9
$PSVPSCALE
 40
0.0
  9
$OLESTARTUP
290
     0
  0
ENDSEC
  0
SECTION
  2
CLASSES
  0
CLASS
  1
ACDBDICTIONARYWDFLT
  2
AcDbDictionaryWithDefault
  3
ObjectDBX Classes
 90
        0
280
     0
281
     0
  0
CLASS
  1
VISUALSTYLE
  2
AcDbVisualStyle
  3
ObjectDBX Classes
 90
     4095
280
     0
281
     0
  0
CLASS
  1
MATERIAL
  2
AcDbMaterial
  3
ObjectDBX Classes
 90
     1153
280
     0
281
     0
  0
CLASS
  1
SCALE
  2
AcDbScale
  3
ObjectDBX Classes
 90
     1153
280
     0
281
     0
  0
CLASS
  1
TABLESTYLE
  2
AcDbTableStyle
  3
ObjectDBX Classes
 90
     4095
280
     0
281
     0
  0
CLASS
  1
MLEADERSTYLE
  2
AcDbMLeaderStyle
  3
ACDB_MLEADERSTYLE_CLASS
 90
     4095
280
     0
281
     0
  0
CLASS
  1
SUN
  2
AcDbSun
  3
SCENEOE
 90
     1153
280
     0
281
     0
  0
CLASS
  1
ACDBPLACEHOLDER
  2
AcDbPlaceHolder
  3
ObjectDBX Classes
 90
        0
280
     0
281
     0
  0
CLASS
  1
LAYOUT
  2
AcDbLayout
  3
ObjectDBX Classes
 90
        0
280
     0
281
     0
  0
ENDSEC
  0
SECTION
  2
TABLES
  0
TABLE
  2
VPORT
  5
8
330
0
100
AcDbSymbolTable
 70
     1
  0
VPORT
  5
29
330
8
100
AcDbSymbolTableRecord
100
AcDbViewportTableRecord
  2
*Active
 70
     0
 10
0.0
 20
0.0
 11
1.0
 21
1.0
 12
420.5
 22
297.0
 13
0.0
 23
0.0
 14
10.0
 24
10.0
 15
10.0
 25
10.0
 16
0.0
 26
0.0
 36
1.0
 17
0.0
 27
0.0
 37
0.0
 40
594.0
 41
1.4158249158
 42
50.0
 43
0.0
 44
0.0
 50
0.0
 51
0.0
 71
     0
 72
  2000
 73
     1
 74
     3
 75
     0
 76
     0
 77
     0
 78
     0
281
     0
 65
     1
110
0.0
120
0.0
130
0.0
111
1.0
121
0.0
131
0.0
112
0.0
122
1.0
132
0.0
 79
     0
146
0.0
  0
ENDTAB
  0
TABLE
  2
LTYPE
  5
5
330
0
100
AcDbSymbolTable
 70
     6
  0
LTYPE
  5
14
330
5
100
AcDbSymbolTableRecord
100
AcDbLinetypeTableRecord
  2
ByBlock
 70
     0
  3

 72
    65
 73
     0
 40
0.0
  0
LTYPE
  5
15
330
5
100
AcDbSymbolTableRecord
100
AcDbLinetypeTableRecord
  2
ByLayer
 70
     0
  3

 72
    65
 73
     0
 40
0.0
  0
LTYPE
  5
16
330
5
100
AcDbSymbolTableRecord
100
AcDbLinetypeTableRecord
  2
Continuous
 70
     0
  3
Solid line
 72
    65
 73
     0
 40
0.0
  0
LTYPE
  5
5E
330
5
100
AcDbSymbolTableRecord
100
AcDbLinetypeTableRecord
  2
HIDDEN
 70
     0
  3
Hidden __ __ __ __ __ __ __ __ __ __ __ __ __ __
 72
    65
 73
     2
 40
1.905
 49
1.27
 74
     0
 49
-0.635
 74
     0
  0
LTYPE
  5
5F
330
5
100
AcDbSymbolTableRecord
100
AcDbLinetypeTableRecord
  2
PHANTOM
 70
     0
  3
Phantom ______  __  __  ______  __  __  ______
 72
    65
 73
     6
 40
12.7
 49
6.35
 74
     0
 49
-1.27
 74
     0
 49
1.27
 74
     0
 49
-1.27
 74
     0
 49
1.27
 74
     0
 49
-1.27
 74
     0
  0
LTYPE
  5
60
330
5
100
AcDbSymbolTableRecord
100
AcDbLinetypeTableRecord
  2
CENTER
 70
     0
  3
Center ____ _ ____ _ ____ _ ____ _ ____ _ ____
 72
    65
 73
     4
 40
10.16
 49
6.35
 74
     0
 49
-1.27
 74
     0
 49
1.27
 74
     0
 49
-1.27
 74
     0
  0
LTYPE
  5
61
330
5
100
AcDbSymbolTableRecord
100
AcDbLinetypeTableRecord
  2
CENTERX2
 70
     0
  3
Center (2x) ________  __  ________  __  _____
 72
    65
 73
     4
 40
20.32
 49
12.7
 74
     0
 49
-2.54
 74
     0
 49
2.54
 74
     0
 49
-2.54
 74
     0
  0
LTYPE
  5
62
330
5
100
AcDbSymbolTableRecord
100
AcDbLinetypeTableRecord
  2
DOT2
 70
     0
  3
Dot (.5x) ........................................
 72
    65
 73
     2
 40
0.635
 49
0.0
 74
     0
 49
-0.635
 74
     0
  0
ENDTAB
  0
TABLE
  2
LAYER
  5
2
330
0
100
AcDbSymbolTable
 70
     1
  0
LAYER
  5
10
330
2
100
AcDbSymbolTableRecord
100
AcDbLayerTableRecord
  2
0
 70
     0
 62
     7
  6
Continuous
370
    -3
390
F
  0
ENDTAB
  0
TABLE
  2
STYLE
  5
3
330
0
100
AcDbSymbolTable
 70
     1
  0
STYLE
  5
11
330
3
100
AcDbSymbolTableRecord
100
AcDbTextStyleTableRecord
  2
Standard
 70
     0
 40
0.0
 41
1.0
 50
0.0
 71
     0
 42
3.5
  3
txt
  4
bigfont
  0
ENDTAB
  0
TABLE
  2
VIEW
  5
6
330
0
100
AcDbSymbolTable
 70
     0
  0
ENDTAB
  0
TABLE
  2
UCS
  5
7
330
0
100
AcDbSymbolTable
 70
     0
  0
ENDTAB
  0
TABLE
  2
APPID
  5
9
330
0
100
AcDbSymbolTable
 70
     1
  0
APPID
  5
12
330
9
100
AcDbSymbolTableRecord
100
AcDbRegAppTableRecord
  2
ACAD
 70
     0
  0
ENDTAB
  0
TABLE
  2
DIMSTYLE
  5
A
330
0
100
AcDbSymbolTable
 70
     1
100
AcDbDimStyleTable
  0
DIMSTYLE
105
27
330
A
100
AcDbSymbolTableRecord
100
AcDbDimStyleTableRecord
  2
ISO-25
 70
     0
 41
2.5
 42
0.625
 43
3.75
 44
1.25
 73
     0
 74
     0
 77
     1
 78
     8
140
2.5
141
2.5
143
0.0393700787
147
0.625
171
     3
172
     1
178
     0
271
     2
272
     2
274
     3
278
    44
283
     0
284
     8
340
11
  0
ENDTAB
  0
TABLE
  2
BLOCK_RECORD
  5
1
330
0
100
AcDbSymbolTable
 70
     1
  0
BLOCK_RECORD
  5
1F
330
1
100
AcDbSymbolTableRecord
100
AcDbBlockTableRecord
  2
*Model_Space
340
22
  0
BLOCK_RECORD
  5
1B
330
1
100
AcDbSymbolTableRecord
100
AcDbBlockTableRecord
  2
*Paper_Space
340
1E
  0
BLOCK_RECORD
  5
23
330
1
100
AcDbSymbolTableRecord
100
AcDbBlockTableRecord
  2
*Paper_Space0
340
26
  0
ENDTAB
  0
ENDSEC
  0
SECTION
  2
BLOCKS
  0
BLOCK
  5
20
330
1F
100
AcDbEntity
  8
0
100
AcDbBlockBegin
  2
*Model_Space
 70
     0
 10
0.0
 20
0.0
 30
0.0
  3
*Model_Space
  1

  0
ENDBLK
  5
21
330
1F
100
AcDbEntity
  8
0
100
AcDbBlockEnd
  0
BLOCK
  5
1C
330
1B
100
AcDbEntity
 67
     1
  8
0
100
AcDbBlockBegin
  2
*Paper_Space
 70
     0
 10
0.0
 20
0.0
 30
0.0
  3
*Paper_Space
  1

  0
ENDBLK
  5
1D
330
1B
100
AcDbEntity
 67
     1
  8
0
100
AcDbBlockEnd
  0
BLOCK
  5
24
330
23
100
AcDbEntity
  8
0
100
AcDbBlockBegin
  2
*Paper_Space0
 70
     0
 10
0.0
 20
0.0
 30
0.0
  3
*Paper_Space0
  1

  0
ENDBLK
  5
25
330
23
100
AcDbEntity
  8
0
100
AcDbBlockEnd
  0
ENDSEC
  0
SECTION
  2
ENTITIES
  0
LINE
  5
63
330
1F
100
AcDbEntity
  8
0
  6
Continuous
 62
     7
370
    25
100
AcDbLine
 10
340.3357287525
 20
292.8194545114
 30
0.0
 11
340.3357287525
 21
-1562.1805454886
 31
0.0
  0
LINE
  5
64
330
1F
100
AcDbEntity
  8
0
  6
Continuous
 62
     7
370
    25
100
AcDbLine
 10
380.3357287525
 20
-1562.1805454886
 30
0.0
 11
380.3357287525
 21
292.8194545114
 31
0.0
  0
ARC
  5
65
330
1F
100
AcDbEntity
  8
0
  6
Continuous
 62
     7
370
    25
100
AcDbCircle
 10
344.8357287525
 20
293.3194545114
 30
0.0
 40
0.5000000000000568
100
AcDbArc
 50
270.0
 51
0.0
  0
ARC
  5
66
330
1F
100
AcDbEntity
  8
0
  6
Continuous
 62
     7
370
    25
100
AcDbCircle
 10
375.8357287525
 20
293.3194545114
 30
0.0
 40
0.5000000000000568
100
AcDbArc
 50
180.0
 51
270.0
  0
ARC
  5
67
330
1F
100
AcDbEntity
  8
0
  6
Continuous
 62
     7
370
    25
100
AcDbCircle
 10
344.8357287525
 20
-1562.6805454886
 30
0.0
 40
0.5
100
AcDbArc
 50
0.0
 51
90.0
  0
ARC
  5
68
330
1F
100
AcDbEntity
  8
0
  6
Continuous
 62
     7
370
    25
100
AcDbCircle
 10
375.8357287525
 20
-1562.6805454886
 30
0.0
 40
0.5
100
AcDbArc
 50
90.0
 51
180.0
  0
LINE
  5
69
330
1F
100
AcDbEntity
  8
0
  6
Continuous
 62
     7
370
    25
100
AcDbLine
 10
345.3357287525
 20
-1592.1805454886
 30
0.0
 11
346.3357287525
 21
-1593.1805454886
 31
0.0
  0
LINE
  5
6A
330
1F
100
AcDbEntity
  8
0
  6
Continuous
 62
     7
370
    25
100
AcDbLine
 10
375.3357287525
 20
-1592.1805454886
 30
0.0
 11
375.3357287525
 21
-1562.6805454886
 31
0.0
  0
LINE
  5
6B
330
1F
100
AcDbEntity
  8
0
  6
Continuous
 62
     7
370
    25
100
AcDbLine
 10
375.3357287525
 20
402.8194545114
 30
0.0
 11
374.3357287525
 21
403.8194545114
 31
0.0
  0
LINE
  5
6C
330
1F
100
AcDbEntity
  8
0
  6
Continuous
 62
     7
370
    25
100
AcDbLine
 10
374.3357287525
 20
-1593.1805454886
 30
0.0
 11
375.3357287525
 21
-1592.1805454886
 31
0.0
  0
LINE
  5
6D
330
1F
100
AcDbEntity
  8
0
  6
Continuous
 62
     7
370
    25
100
AcDbLine
 10
345.3357287525
 20
402.8194545114
 30
0.0
 11
345.3357287525
 21
293.3194545114
 31
0.0
  0
LINE
  5
6E
330
1F
100
AcDbEntity
  8
0
  6
Continuous
 62
     7
370
    25
100
AcDbLine
 10
375.3357287525
 20
293.3194545114
 30
0.0
 11
375.3357287525
 21
402.8194545114
 31
0.0
  0
LINE
  5
6F
330
1F
100
AcDbEntity
  8
0
  6
Continuous
 62
     7
370
    25
100
AcDbLine
 10
346.3357287525
 20
403.8194545114
 30
0.0
 11
345.3357287525
 21
402.8194545114
 31
0.0
  0
LINE
  5
70
330
1F
100
AcDbEntity
  8
0
  6
Continuous
 62
     7
370
    25
100
AcDbLine
 10
345.3357287525
 20
-1562.6805454886
 30
0.0
 11
345.3357287525
 21
-1592.1805454886
 31
0.0
  0
LINE
  5
71
330
1F
100
AcDbEntity
  8
0
  6
Continuous
 62
     7
370
    25
100
AcDbLine
 10
347.8357287525
 20
433.8194545114
 30
0.0
 11
347.8357287525
 21
403.8194545114
 31
0.0
  0
LINE
  5
72
330
1F
100
AcDbEntity
  8
0
  6
Continuous
 62
     7
370
    25
100
AcDbLine
 10
372.8357287525
 20
403.8194545114
 30
0.0
 11
372.8357287525
 21
433.8194545114
 31
0.0
  0
LINE
  5
73
330
1F
100
AcDbEntity
  8
0
  6
Continuous
 62
     7
370
    25
100
AcDbLine
 10
372.8357287525
 20
433.8194545114
 30
0.0
 11
371.8357287525
 21
434.8194545114
 31
0.0
  0
LINE
  5
74
330
1F
100
AcDbEntity
  8
0
  6
Continuous
 62
     7
370
    25
100
AcDbLine
 10
348.8357287525
 20
434.8194545114
 30
0.0
 11
347.8357287525
 21
433.8194545114
 31
0.0
  0
LINE
  5
75
330
1F
100
AcDbEntity
  8
0
  6
Continuous
 62
     7
370
    25
100
AcDbLine
 10
360.3357287525
 20
-1562.1805454886
 30
0.0
 11
340.3357287525
 21
-1562.1805454886
 31
0.0
  0
LINE
  5
76
330
1F
100
AcDbEntity
  8
0
  6
Continuous
 62
     7
370
    25
100
AcDbLine
 10
360.3357287525
 20
292.8194545114
 30
0.0
 11
340.3357287525
 21
292.8194545114
 31
0.0
  0
LINE
  5
77
330
1F
100
AcDbEntity
  8
0
  6
Continuous
 62
     7
370
    25
100
AcDbLine
 10
380.3357287525
 20
292.8194545114
 30
0.0
 11
360.3357287525
 21
292.8194545114
 31
0.0
  0
LINE
  5
78
330
1F
100
AcDbEntity
  8
0
  6
Continuous
 62
     7
370
    25
100
AcDbLine
 10
380.3357287525
 20
-1562.1805454886
 30
0.0
 11
360.3357287525
 21
-1562.1805454886
 31
0.0
  0
LINE
  5
79
330
1F
100
AcDbEntity
  8
0
  6
Continuous
 62
     7
370
    25
100
AcDbLine
 10
360.3357287525
 20
-1592.1805454886
 30
0.0
 11
345.3357287525
 21
-1592.1805454886
 31
0.0
  0
LINE
  5
7A
330
1F
100
AcDbEntity
  8
0
  6
Continuous
 62
     7
370
    25
100
AcDbLine
 10
360.3357287525
 20
-1593.1805454886
 30
0.0
 11
346.3357287525
 21
-1593.1805454886
 31
0.0
  0
LINE
  5
7B
330
1F
100
AcDbEntity
  8
0
  6
Continuous
 62
     7
370
    25
100
AcDbLine
 10
375.3357287525
 20
-1592.1805454886
 30
0.0
 11
360.3357287525
 21
-1592.1805454886
 31
0.0
  0
LINE
  5
7C
330
1F
100
AcDbEntity
  8
0
  6
Continuous
 62
     7
370
    25
100
AcDbLine
 10
375.3357287525
 20
402.8194545114
 30
0.0
 11
360.3357287525
 21
402.8194545114
 31
0.0
  0
LINE
  5
7D
330
1F
100
AcDbEntity
  8
0
  6
Continuous
 62
     7
370
    25
100
AcDbLine
 10
374.3357287525
 20
403.8194545114
 30
0.0
 11
360.3357287525
 21
403.8194545114
 31
0.0
  0
LINE
  5
7E
330
1F
100
AcDbEntity
  8
0
  6
Continuous
 62
     7
370
    25
100
AcDbLine
 10
374.3357287525
 20
-1593.1805454886
 30
0.0
 11
360.3357287525
 21
-1593.1805454886
 31
0.0
  0
LINE
  5
7F
330
1F
100
AcDbEntity
  8
0
  6
Continuous
 62
     7
370
    25
100
AcDbLine
 10
360.3357287525
 20
402.8194545114
 30
0.0
 11
345.3357287525
 21
402.8194545114
 31
0.0
  0
LINE
  5
80
330
1F
100
AcDbEntity
  8
0
  6
Continuous
 62
     7
370
    25
100
AcDbLine
 10
360.3357287525
 20
403.8194545114
 30
0.0
 11
346.3357287525
 21
403.8194545114
 31
0.0
  0
LINE
  5
81
330
1F
100
AcDbEntity
  8
0
  6
Continuous
 62
     7
370
    25
100
AcDbLine
 10
356.3357287525
 20
433.8194545114
 30
0.0
 11
347.8357287525
 21
433.8194545114
 31
0.0
  0
LINE
  5
82
330
1F
100
AcDbEntity
  8
0
  6
Continuous
 62
     7
370
    25
100
AcDbLine
 10
356.3357287525
 20
433.8194545114
 30
0.0
 11
356.3357287525
 21
409.8194545114
 31
0.0
  0
SPLINE
  5
83
330
1F
100
AcDbEntity
  8
0
  6
Continuous
 62
     7
370
    25
100
AcDbSpline
210
0.0
220
0.0
230
1.0
 70
     8
 71
     3
 72
    24
 73
    20
 74
     0
 42
0.00000001
 43
0.00000001
 40
0.0
 40
0.0
 40
0.0
 40
0.0
 40
0.0308896850159201
 40
0.062012084573593
 40
0.0933754763753188
 40
0.1249879487852018
 40
0.1860788899812757
 40
0.2503337682660594
 40
0.309322707773557
 40
0.3750940947955532
 40
0.5002911726990329
 40
0.571716749588471
 40
0.6252460236521666
 40
0.690616405910435
 40
0.7501643673641103
 40
0.8151999384886103
 40
0.878484835028171
 40
0.9400673739132793
 40
1.0
 40
1.0
 40
1.0
 40
1.0
 10
356.3357287525381
 20
409.8194545113957
 30
0.0
 10
356.3366472105629
 20
409.7543520784091
 30
0.0
 10
356.3384910460271
 20
409.6236567482938
 30
0.0
 10
356.3534733669634
 20
409.4273860825203
 30
0.0
 10
356.3776051918198
 20
409.2306544964591
 30
0.0
 10
356.4224734020759
 20
408.9734004160939
 30
0.0
 10
356.5027793683636
 20
408.653011294696
 30
0.0
 10
356.6334221876463
 20
408.288782358117
 30
0.0
 10
356.8023262732792
 20
407.9310577227994
 30
0.0
 10
357.0700813058448
 20
407.4830682647136
 30
0.0
 10
357.4191183850851
 20
407.0585439985002
 30
0.0
 10
357.8078018287198
 20
406.7112903841852
 30
0.0
 10
358.1279280997608
 20
406.4770154049717
 30
0.0
 10
358.4480427509185
 20
406.2856292814512
 30
0.0
 10
358.8077458876965
 20
406.1159143488429
 30
0.0
 10
359.179366564374
 20
405.9829969501379
 30
0.0
 10
359.5675089108159
 20
405.8877761720946
 30
0.0
 10
359.9532015008982
 20
405.8299517210823
 30
0.0
 10
360.2093791144038
 20
405.8229217640937
 30
0.0
 10
360.3357287525381
 20
405.8194545113957
 30
0.0
  0
LINE
  5
84
330
1F
100
AcDbEntity
  8
0
  6
Continuous
 62
     7
370
    25
100
AcDbLine
 10
364.3357287525
 20
409.8194545114
 30
0.0
 11
364.3357287525
 21
433.8194545114
 31
0.0
  0
LINE
  5
85
330
1F
100
AcDbEntity
  8
0
  6
Continuous
 62
     7
370
    25
100
AcDbLine
 10
372.8357287525
 20
433.8194545114
 30
0.0
 11
364.3357287525
 21
433.8194545114
 31
0.0
  0
SPLINE
  5
86
330
1F
100
AcDbEntity
  8
0
  6
Continuous
 62
     7
370
    25
100
AcDbSpline
210
0.0
220
0.0
230
1.0
 70
     8
 71
     3
 72
    27
 73
    23
 74
     0
 42
0.00000001
 43
0.00000001
 40
0.0
 40
0.0
 40
0.0
 40
0.0
 40
0.0297800940116126
 40
0.059966969437498
 40
0.0905676077314472
 40
0.1215887108342164
 40
0.1530367117136394
 40
0.1849177847642119
 40
0.217237856024604
 40
0.2500026131789069
 40
0.309582513479943
 40
0.3750149117530516
 40
0.4285682793481765
 40
0.5001703893020976
 40
0.6245525389766493
 40
0.6905640140735151
 40
0.7497522179507556
 40
0.8135114651681836
 40
0.8741607268873864
 40
0.916544423379387
 40
0.9584842504707195
 40
1.0
 40
1.0
 40
1.0
 40
1.0
 10
360.3357287525381
 20
405.8194545113957
 30
0.0
 10
360.3984967067571
 20
405.8203086292085
 30
0.0
 10
360.5248899945296
 20
405.8220285316626
 30
0.0
 10
360.7153088263697
 20
405.8360703557782
 30
0.0
 10
360.9073683718458
 20
405.8588866501664
 30
0.0
 10
361.1005763120702
 20
405.8916172530314
 30
0.0
 10
361.2944077752397
 20
405.9343228726066
 30
0.0
 10
361.4883037469655
 20
405.9873269056723
 30
0.0
 10
361.6816794564373
 20
406.0508482469987
 30
0.0
 10
361.925450388347
 20
406.1449950451452
 30
0.0
 10
362.2242643613789
 20
406.2860775324299
 30
0.0
 10
362.5445463471028
 20
406.4776753204583
 30
0.0
 10
362.8650586432314
 20
406.7124035022266
 30
0.0
 10
363.2526435117273
 20
407.0590318708499
 30
0.0
 10
363.6011337230223
 20
407.4829071031676
 30
0.0
 10
363.8686946115965
 20
407.9301478413746
 30
0.0
 10
364.0375979065417
 20
408.2877825187567
 30
0.0
 10
364.1677885618637
 20
408.6505338591019
 30
0.0
 10
364.2536110194389
 20
408.9908983256794
 30
0.0
 10
364.3035796257872
 20
409.2920402248903
 30
0.0
 10
364.3307306356704
 20
409.5560257807375
 30
0.0
 10
364.334068367117
 20
409.7319429074322
 30
0.0
 10
364.3357287525381
 20
409.8194545113957
 30
0.0
  0
LINE
  5
87
330
1F
100
AcDbEntity
  8
0
  6
Continuous
 62
     7
370
    25
100
AcDbLine
 10
371.8357287525
 20
434.8194545114
 30
0.0
 11
364.3357287525
 21
434.8194545114
 31
0.0
  0
SPLINE
  5
88
330
1F
100
AcDbEntity
  8
0
  6
Continuous
 62
     7
370
    25
100
AcDbSpline
210
0.0
220
0.0
230
1.0
 70
    24
 71
     3
 72
     8
 73
     4
 74
     0
 42
0.00000001
 43
0.00000001
 40
0.0
 40
0.0
 40
0.0
 40
0.0
 40
1.0
 40
1.0
 40
1.0
 40
1.0
 10
364.3357287525381
 20
433.8194545113958
 30
0.0
 10
364.3357287525381
 20
434.1536755629636
 30
0.0
 10
364.3357287525381
 20
434.4870908166089
 30
0.0
 10
364.3357287525381
 20
434.8194545113957
 30
0.0
  0
LINE
  5
89
330
1F
100
AcDbEntity
  8
0
  6
Continuous
 62
     7
370
    25
100
AcDbLine
 10
356.3357287525
 20
434.8194545114
 30
0.0
 11
348.8357287525
 21
434.8194545114
 31
0.0
  0
SPLINE
  5
8A
330
1F
100
AcDbEntity
  8
0
  6
Continuous
 62
     7
370
    25
100
AcDbSpline
210
0.0
220
0.0
230
1.0
 70
    24
 71
     3
 72
     8
 73
     4
 74
     0
 42
0.00000001
 43
0.00000001
 40
0.0
 40
0.0
 40
0.0
 40
0.0
 40
1.0
 40
1.0
 40
1.0
 40
1.0
 10
356.3357287525381
 20
434.8194545113957
 30
0.0
 10
356.3357287525381
 20
434.4870996025161
 30
0.0
 10
356.3357287525381
 20
434.1536836519497
 30
0.0
 10
356.3357287525381
 20
433.8194545113958
 30
0.0
  0
LINE
  5
8B
330
1F
100
AcDbEntity
  8
0
  6
Continuous
 62
     7
370
    25
100
AcDbLine
 10
364.3357287525
 20
434.8194545114
 30
0.0
 11
356.3357287525
 21
434.8194545114
 31
0.0
  0
LINE
  5
8C
330
1F
100
AcDbEntity
  8
0
  6
HIDDEN
 62
     7
370
    18
100
AcDbLine
 10
356.3357287525
 20
433.8194545114
 30
0.0
 11
360.3357287525
 21
433.8194545114
 31
0.0
  0
LINE
  5
8D
330
1F
100
AcDbEntity
  8
0
  6
HIDDEN
 62
     7
370
    18
100
AcDbLine
 10
360.3357287525
 20
433.8194545114
 30
0.0
 11
364.3357287525
 21
433.8194545114
 31
0.0
  0
ARC
  5
8E
330
1F
100
AcDbEntity
  8
0
  6
Continuous
 62
     7
370
    25
100
AcDbCircle
 10
360.3357287525
 20
1342.88
 30
0.0
 40
12.50000000000014
100
AcDbArc
 50
288.6629248849
 51
90.0
  0
SPLINE
  5
8F
330
1F
100
AcDbEntity
  8
0
  6
Continuous
 62
     7
370
    25
100
AcDbSpline
210
0.0
220
0.0
230
1.0
 70
    24
 71
     3
 72
     8
 73
     4
 74
     0
 42
0.00000001
 43
0.00000001
 40
0.0
 40
0.0
 40
0.0
 40
0.0
 40
1.0
 40
1.0
 40
1.0
 40
1.0
 10
364.3357287525381
 20
1331.037280717669
 30
0.0
 10
364.3357287525381
 20
1331.390051314101
 30
0.0
 10
364.3357287525381
 20
1331.743571736107
 30
0.0
 10
364.3357287525381
 20
1332.098070673573
 30
0.0
  0
ARC
  5
90
330
1F
100
AcDbEntity
  8
0
  6
Continuous
 62
     7
370
    25
100
AcDbCircle
 10
360.3357287525
 20
1342.88
 30
0.0
 40
11.50000000000009
100
AcDbArc
 50
290.3544063982
 51
90.0
  0
SPLINE
  5
91
330
1F
100
AcDbEntity
  8
0
  6
Continuous
 62
     7
370
    25
100
AcDbSpline
210
0.0
220
0.0
230
1.0
 70
    24
 71
     3
 72
     8
 73
     4
 74
     0
 42
0.00000001
 43
0.00000001
 40
0.0
 40
0.0
 40
0.0
 40
0.0
 40
1.0
 40
1.0
 40
1.0
 40
1.0
 10
356.3357287525381
 20
1332.098070673573
 30
0.0
 10
356.3357287525381
 20
1331.743581107151
 30
0.0
 10
356.3357287525381
 20
1331.390059852033
 30
0.0
 10
356.3357287525381
 20
1331.037280717669
 30
0.0
  0
ARC
  5
92
330
1F
100
AcDbEntity
  8
0
  6
Continuous
 62
     7
370
    25
100
AcDbCircle
 10
360.3357287525
 20
1342.88
 30
0.0
 40
12.50000000000014
100
AcDbArc
 50
90.0
 51
251.3370751151
  0
ARC
  5
93
330
1F
100
AcDbEntity
  8
0
  6
Continuous
 62
     7
370
    25
100
AcDbCircle
 10
360.3357287525
 20
1342.88
 30
0.0
 40
11.50000000000009
100
AcDbArc
 50
90.0
 51
249.6455936018
  0
LINE
  5
94
330
1F
100
AcDbEntity
  8
0
  6
Continuous
 62
     7
370
    25
100
AcDbLine
 10
364.3357287525
 20
1332.0980706736
 30
0.0
 11
364.3357287525
 21
1334.38
 31
0.0
  0
LINE
  5
95
330
1F
100
AcDbEntity
  8
0
  6
Continuous
 62
     7
370
    25
100
AcDbLine
 10
364.3357287525
 20
1334.38
 30
0.0
 11
356.3357287525
 21
1334.38
 31
0.0
  0
LINE
  5
96
330
1F
100
AcDbEntity
  8
0
  6
Continuous
 62
     7
370
    25
100
AcDbLine
 10
356.3357287525
 20
1334.38
 30
0.0
 11
356.3357287525
 21
1332.0980706736
 31
0.0
  0
SPLINE
  5
97
330
1F
100
AcDbEntity
  8
0
  6
Continuous
 62
     7
370
    25
100
AcDbSpline
210
0.0
220
0.0
230
1.0
 70
     8
 71
     3
 72
    27
 73
    23
 74
     0
 42
0.00000001
 43
0.00000001
 40
0.0
 40
0.0
 40
0.0
 40
0.0
 40
0.0297800940116126
 40
0.059966969437498
 40
0.0905676077314472
 40
0.1215887108342164
 40
0.1530367117136394
 40
0.1849177847642119
 40
0.217237856024604
 40
0.2500026131789069
 40
0.309582513479943
 40
0.3750149117530516
 40
0.4285682793481765
 40
0.5001703893020976
 40
0.6245525389766493
 40
0.6905640140735151
 40
0.7497522179507556
 40
0.8135114651681836
 40
0.8741607268873864
 40
0.916544423379387
 40
0.9584842504707195
 40
1.0
 40
1.0
 40
1.0
 40
1.0
 10
360.3357287525381
 20
1330.379999999997
 30
0.0
 10
360.3984967067571
 20
1330.380289220053
 30
0.0
 10
360.5248899945296
 20
1330.380871610768
 30
0.0
 10
360.7153088263697
 20
1330.385508949682
 30
0.0
 10
360.9073683718458
 20
1330.392888249175
 30
0.0
 10
361.1005763120702
 20
1330.403290522757
 30
0.0
 10
361.2944077752397
 20
1330.416638603158
 30
0.0
 10
361.4883037469655
 20
1330.43295450936
 30
0.0
 10
361.6816794564373
 20
1330.452228470249
 30
0.0
 10
361.925450388347
 20
1330.480444544762
 30
0.0
 10
362.2242643613789
 20
1330.521940815785
 30
0.0
 10
362.5445463471028
 20
1330.57526804946
 30
0.0
 10
362.8650586432314
 20
1330.637491299234
 30
0.0
 10
363.2526435117273
 20
1330.722098828628
 30
0.0
 10
363.6011337230223
 20
1330.812507101668
 30
0.0
 10
363.8686946115965
 20
1330.889050317999
 30
0.0
 10
364.0375979065417
 20
1330.940436192058
 30
0.0
 10
364.1677885618637
 20
1330.981613320674
 30
0.0
 10
364.2536110194389
 20
1331.009822395993
 30
0.0
 10
364.3035796257872
 20
1331.026424292176
 30
0.0
 10
364.3307306356704
 20
1331.035568307508
 30
0.0
 10
364.334068367117
 20
1331.036711851246
 30
0.0
 10
364.3357287525381
 20
1331.037280717669
 30
0.0
  0
SPLINE
  5
98
330
1F
100
AcDbEntity
  8
0
  6
Continuous
 62
     7
370
    25
100
AcDbSpline
210
0.0
220
0.0
230
1.0
 70
     8
 71
     3
 72
    24
 73
    20
 74
     0
 42
0.00000001
 43
0.00000001
 40
0.0
 40
0.0
 40
0.0
 40
0.0
 40
0.0308896850159201
 40
0.062012084573593
 40
0.0933754763753188
 40
0.1249879487852018
 40
0.1860788899812757
 40
0.2503337682660594
 40
0.309322707773557
 40
0.3750940947955532
 40
0.5002911726990329
 40
0.571716749588471
 40
0.6252460236521666
 40
0.690616405910435
 40
0.7501643673641103
 40
0.8151999384886103
 40
0.878484835028171
 40
0.9400673739132793
 40
1.0
 40
1.0
 40
1.0
 40
1.0
 10
356.3357287525381
 20
1331.037280717669
 30
0.0
 10
356.3366472105629
 20
1331.036965935552
 30
0.0
 10
356.3384910460271
 20
1331.036333999833
 30
0.0
 10
356.3534733669634
 20
1331.031266730812
 30
0.0
 10
356.3776051918198
 20
1331.023189900112
 30
0.0
 10
356.4224734020759
 20
1331.008302635864
 30
0.0
 10
356.5027793683636
 20
1330.981896587377
 30
0.0
 10
356.6334221876463
 20
1330.940569650164
 30
0.0
 10
356.8023262732792
 20
1330.889184895469
 30
0.0
 10
357.0700813058448
 20
1330.812564766697
 30
0.0
 10
357.4191183850851
 20
1330.722001406122
 30
0.0
 10
357.8078018287198
 20
1330.637202789547
 30
0.0
 10
358.1279280997608
 20
1330.575087970612
 30
0.0
 10
358.4480427509185
 20
1330.521812459589
 30
0.0
 10
358.8077458876965
 20
1330.471884898106
 30
0.0
 10
359.179366564374
 20
1330.431745519328
 30
0.0
 10
359.5675089108159
 20
1330.402190328309
 30
0.0
 10
359.9532015008982
 20
1330.383549200142
 30
0.0
 10
360.2093791144038
 20
1330.381172309034
 30
0.0
 10
360.3357287525381
 20
1330.379999999997
 30
0.0
  0
ARC
  5
99
330
1F
100
AcDbEntity
  8
0
  6
Continuous
 62
     7
370
    25
100
AcDbCircle
 10
360.3357287525
 20
1342.88
 30
0.0
 40
15.0
100
AcDbArc
 50
270.0
 51
90.0
  0
ARC
  5
9A
330
1F
100
AcDbEntity
  8
0
  6
Continuous
 62
     7
370
    25
100
AcDbCircle
 10
360.3357287525
 20
1342.88
 30
0.0
 40
14.0
100
AcDbArc
 50
270.0
 51
90.0
  0
ARC
  5
9B
330
1F
100
AcDbEntity
  8
0
  6
Continuous
 62
     7
370
    25
100
AcDbCircle
 10
360.3357287525
 20
1342.88
 30
0.0
 40
15.0
100
AcDbArc
 50
90.0
 51
270.0
  0
ARC
  5
9C
330
1F
100
AcDbEntity
  8
0
  6
Continuous
 62
     7
370
    25
100
AcDbCircle
 10
360.3357287525
 20
1342.88
 30
0.0
 40
14.0
100
AcDbArc
 50
90.0
 51
270.0
  0
ARC
  5
9D
330
1F
100
AcDbEntity
  8
0
  6
Continuous
 62
     7
370
    25
100
AcDbCircle
 10
360.3357287525
 20
1342.88
 30
0.0
 40
20.0
100
AcDbArc
 50
90.0
 51
270.0
  0
ARC
  5
9E
330
1F
100
AcDbEntity
  8
0
  6
Continuous
 62
     7
370
    25
100
AcDbCircle
 10
360.3357287525
 20
1342.88
 30
0.0
 40
20.0
100
AcDbArc
 50
270.0
 51
90.0
  0
LINE
  5
9F
330
1F
100
AcDbEntity
  8
0
  6
Continuous
 62
     7
370
    25
100
AcDbLine
 10
492.38
 20
292.8194545114
 30
0.0
 11
492.38
 21
-1562.1805454886
 31
0.0
  0
LINE
  5
A0
330
1F
100
AcDbEntity
  8
0
  6
Continuous
 62
     7
370
    25
100
AcDbLine
 10
452.38
 20
292.8194545114
 30
0.0
 11
452.38
 21
-1562.1805454886
 31
0.0
  0
LINE
  5
A1
330
1F
100
AcDbEntity
  8
0
  6
Continuous
 62
     7
370
    25
100
AcDbLine
 10
492.38
 20
292.8194545114
 30
0.0
 11
452.38
 21
292.8194545114
 31
0.0
  0
LINE
  5
A2
330
1F
100
AcDbEntity
  8
0
  6
Continuous
 62
     7
370
    25
100
AcDbLine
 10
492.38
 20
-1562.1805454886
 30
0.0
 11
452.38
 21
-1562.1805454886
 31
0.0
  0
ARC
  5
A3
330
1F
100
AcDbEntity
  8
0
  6
Continuous
 62
     7
370
    25
100
AcDbCircle
 10
487.88
 20
293.3194545114
 30
0.0
 40
0.5000000000000568
100
AcDbArc
 50
180.0
 51
270.0
  0
ARC
  5
A4
330
1F
100
AcDbEntity
  8
0
  6
Continuous
 62
     7
370
    25
100
AcDbCircle
 10
456.88
 20
293.3194545114
 30
0.0
 40
0.5000000000000568
100
AcDbArc
 50
270.0
 51
0.0
  0
ARC
  5
A5
330
1F
100
AcDbEntity
  8
0
  6
Continuous
 62
     7
370
    25
100
AcDbCircle
 10
487.88
 20
-1562.6805454886
 30
0.0
 40
0.5
100
AcDbArc
 50
90.0
 51
180.0
  0
ARC
  5
A6
330
1F
100
AcDbEntity
  8
0
  6
Continuous
 62
     7
370
    25
100
AcDbCircle
 10
456.88
 20
-1562.6805454886
 30
0.0
 40
0.5
100
AcDbArc
 50
0.0
 51
90.0
  0
LINE
  5
A7
330
1F
100
AcDbEntity
  8
0
  6
Continuous
 62
     7
370
    25
100
AcDbLine
 10
486.38
 20
403.8194545114
 30
0.0
 11
487.38
 21
402.8194545114
 31
0.0
  0
LINE
  5
A8
330
1F
100
AcDbEntity
  8
0
  6
Continuous
 62
     7
370
    25
100
AcDbLine
 10
487.38
 20
402.8194545114
 30
0.0
 11
457.38
 21
402.8194545114
 31
0.0
  0
LINE
  5
A9
330
1F
100
AcDbEntity
  8
0
  6
Continuous
 62
     7
370
    25
100
AcDbLine
 10
458.38
 20
403.8194545114
 30
0.0
 11
457.38
 21
402.8194545114
 31
0.0
  0
LINE
  5
AA
330
1F
100
AcDbEntity
  8
0
  6
Continuous
 62
     7
370
    25
100
AcDbLine
 10
486.38
 20
403.8194545114
 30
0.0
 11
458.38
 21
403.8194545114
 31
0.0
  0
LINE
  5
AB
330
1F
100
AcDbEntity
  8
0
  6
Continuous
 62
     7
370
    25
100
AcDbLine
 10
487.38
 20
-1562.6805454886
 30
0.0
 11
487.38
 21
-1592.1805454886
 31
0.0
  0
LINE
  5
AC
330
1F
100
AcDbEntity
  8
0
  6
Continuous
 62
     7
370
    25
100
AcDbLine
 10
487.38
 20
-1592.1805454886
 30
0.0
 11
457.38
 21
-1592.1805454886
 31
0.0
  0
LINE
  5
AD
330
1F
100
AcDbEntity
  8
0
  6
Continuous
 62
     7
370
    25
100
AcDbLine
 10
457.38
 20
-1562.6805454886
 30
0.0
 11
457.38
 21
-1592.1805454886
 31
0.0
  0
LINE
  5
AE
330
1F
100
AcDbEntity
  8
0
  6
Continuous
 62
     7
370
    25
100
AcDbLine
 10
487.38
 20
402.8194545114
 30
0.0
 11
487.38
 21
293.3194545114
 31
0.0
  0
LINE
  5
AF
330
1F
100
AcDbEntity
  8
0
  6
Continuous
 62
     7
370
    25
100
AcDbLine
 10
457.38
 20
402.8194545114
 30
0.0
 11
457.38
 21
293.3194545114
 31
0.0
  0
LINE
  5
B0
330
1F
100
AcDbEntity
  8
0
  6
Continuous
 62
     7
370
    25
100
AcDbLine
 10
458.38
 20
-1593.1805454886
 30
0.0
 11
457.38
 21
-1592.1805454886
 31
0.0
  0
LINE
  5
B1
330
1F
100
AcDbEntity
  8
0
  6
Continuous
 62
     7
370
    25
100
AcDbLine
 10
486.38
 20
-1593.1805454886
 30
0.0
 11
487.38
 21
-1592.1805454886
 31
0.0
  0
LINE
  5
B2
330
1F
100
AcDbEntity
  8
0
  6
Continuous
 62
     7
370
    25
100
AcDbLine
 10
486.38
 20
-1593.1805454886
 30
0.0
 11
458.38
 21
-1593.1805454886
 31
0.0
  0
LINE
  5
B3
330
1F
100
AcDbEntity
  8
0
  6
Continuous
 62
     7
370
    25
100
AcDbLine
 10
484.88
 20
433.8194545114
 30
0.0
 11
460.5372807177
 21
433.8194545114
 31
0.0
  0
SPLINE
  5
B4
330
1F
100
AcDbEntity
  8
0
  6
Continuous
 62
     7
370
    25
100
AcDbSpline
210
0.0
220
0.0
230
1.0
 70
     8
 71
     3
 72
     8
 73
     4
 74
     0
 42
0.00000001
 43
0.00000001
 40
0.0
 40
0.0
 40
0.0
 40
0.0
 40
1.0
 40
1.0
 40
1.0
 40
1.0
 10
460.537280717673
 20
433.8194545113958
 30
0.0
 10
460.8900513141046
 20
434.1536755629636
 30
0.0
 10
461.2435717361104
 20
434.4870908166089
 30
0.0
 10
461.5980706735761
 20
434.8194545113957
 30
0.0
  0
LINE
  5
B5
330
1F
100
AcDbEntity
  8
0
  6
Continuous
 62
     7
370
    25
100
AcDbLine
 10
483.88
 20
434.8194545114
 30
0.0
 11
461.5980706736
 21
434.8194545114
 31
0.0
  0
LINE
  5
B6
330
1F
100
AcDbEntity
  8
0
  6
Continuous
 62
     7
370
    25
100
AcDbLine
 10
483.88
 20
434.8194545114
 30
0.0
 11
484.88
 21
433.8194545114
 31
0.0
  0
LINE
  5
B7
330
1F
100
AcDbEntity
  8
0
  6
Continuous
 62
     7
370
    25
100
AcDbLine
 10
460.5372807177
 20
409.8194545114
 30
0.0
 11
460.5372807177
 21
433.8194545114
 31
0.0
  0
LINE
  5
B8
330
1F
100
AcDbEntity
  8
0
  6
Continuous
 62
     7
370
    25
100
AcDbLine
 10
484.88
 20
433.8194545114
 30
0.0
 11
484.88
 21
403.8194545114
 31
0.0
  0
LINE
  5
B9
330
1F
100
AcDbEntity
  8
0
  6
Continuous
 62
     7
370
    25
100
AcDbLine
 10
459.88
 20
405.8194545114
 30
0.0
 11
459.88
 21
403.8194545114
 31
0.0
  0
SPLINE
  5
BA
330
1F
100
AcDbEntity
  8
0
  6
Continuous
 62
     7
370
    25
100
AcDbSpline
210
0.0
220
0.0
230
1.0
 70
     8
 71
     3
 72
    27
 73
    23
 74
     0
 42
0.00000001
 43
0.00000001
 40
0.0
 40
0.0
 40
0.0
 40
0.0
 40
0.0297800940116126
 40
0.059966969437498
 40
0.0905676077314472
 40
0.1215887108342164
 40
0.1530367117136394
 40
0.1849177847642119
 40
0.217237856024604
 40
0.2500026131789069
 40
0.309582513479943
 40
0.3750149117530516
 40
0.4285682793481765
 40
0.5001703893020976
 40
0.6245525389766493
 40
0.6905640140735151
 40
0.7497522179507556
 40
0.8135114651681836
 40
0.8741607268873864
 40
0.916544423379387
 40
0.9584842504707195
 40
1.0
 40
1.0
 40
1.0
 40
1.0
 10
459.88
 20
405.8194545113957
 30
0.0
 10
459.8802892200561
 20
405.8203086292085
 30
0.0
 10
459.8808716107719
 20
405.8220285316626
 30
0.0
 10
459.8855089496855
 20
405.8360703557782
 30
0.0
 10
459.892888249179
 20
405.8588866501664
 30
0.0
 10
459.9032905227606
 20
405.8916172530314
 30
0.0
 10
459.9166386031615
 20
405.9343228726066
 30
0.0
 10
459.9329545093636
 20
405.9873269056723
 30
0.0
 10
459.9522284702529
 20
406.0508482469987
 30
0.0
 10
459.9804445447652
 20
406.1449950451452
 30
0.0
 10
460.0219408157881
 20
406.2860775324299
 30
0.0
 10
460.0752680494631
 20
406.4776753204583
 30
0.0
 10
460.1374912992379
 20
406.7124035022266
 30
0.0
 10
460.2220988286311
 20
407.0590318708499
 30
0.0
 10
460.312507101671
 20
407.4829071031676
 30
0.0
 10
460.3890503180019
 20
407.9301478413746
 30
0.0
 10
460.4404361920612
 20
408.2877825187567
 30
0.0
 10
460.4816133206779
 20
408.6505338591019
 30
0.0
 10
460.5098223959961
 20
408.9908983256794
 30
0.0
 10
460.5264242921791
 20
409.2920402248903
 30
0.0
 10
460.5355683075111
 20
409.5560257807375
 30
0.0
 10
460.5367118512493
 20
409.7319429074322
 30
0.0
 10
460.537280717673
 20
409.8194545113957
 30
0.0
  0
LINE
  5
BB
330
1F
100
AcDbEntity
  8
0
  6
HIDDEN
 62
     7
370
    18
100
AcDbLine
 10
463.88
 20
405.8194545114
 30
0.0
 11
463.88
 21
409.8194545114
 31
0.0
  0
LINE
  5
BC
330
1F
100
AcDbEntity
  8
0
  6
HIDDEN
 62
     7
370
    18
100
AcDbLine
 10
463.88
 20
409.8194545114
 30
0.0
 11
463.88
 21
434.8194545114
 31
0.0
  0
LINE
  5
BD
330
1F
100
AcDbEntity
  8
0
  6
HIDDEN
 62
     7
370
    18
100
AcDbLine
 10
459.8775
 20
405.8194545114
 30
0.0
 11
463.88
 21
405.8194545114
 31
0.0
  0
LINE
  5
BE
330
1F
100
AcDbEntity
  8
0
  6
Continuous
 62
     7
370
    25
100
AcDbLine
 10
484.88
 20
2145.5396180837
 30
0.0
 11
484.88
 21
2170.0358424403
 31
0.0
  0
LINE
  5
BF
330
1F
100
AcDbEntity
  8
0
  6
Continuous
 62
     7
370
    25
100
AcDbLine
 10
464.246950704
 20
2175.5459669938
 30
0.0
 11
463.5397290261
 21
2175.1375638985
 31
0.0
  0
LINE
  5
C0
330
1F
100
AcDbEntity
  8
0
  6
Continuous
 62
     7
370
    25
100
AcDbLine
 10
459.88
 20
2170.0358424403
 30
0.0
 11
459.88
 21
2145.5396180837
 31
0.0
  0
LINE
  5
C1
330
1F
100
AcDbEntity
  8
0
  6
Continuous
 62
     7
370
    25
100
AcDbLine
 10
487.38
 20
2055.3118583703
 30
0.0
 11
487.38
 21
2144.7230772718
 31
0.0
  0
LINE
  5
C2
330
1F
100
AcDbEntity
  8
0
  6
Continuous
 62
     7
370
    25
100
AcDbLine
 10
457.38
 20
2144.7230772718
 30
0.0
 11
457.38
 21
2055.3118583703
 31
0.0
  0
LINE
  5
C3
330
1F
100
AcDbEntity
  8
0
  6
Continuous
 62
     7
370
    25
100
AcDbLine
 10
492.38
 20
540.2203819163
 30
0.0
 11
492.38
 21
2054.9035879644
 31
0.0
  0
LINE
  5
C4
330
1F
100
AcDbEntity
  8
0
  6
Continuous
 62
     7
370
    25
100
AcDbLine
 10
452.38
 20
2054.9035879644
 30
0.0
 11
452.38
 21
540.2203819163
 31
0.0
  0
LINE
  5
C5
330
1F
100
AcDbEntity
  8
0
  6
Continuous
 62
     7
370
    25
100
AcDbLine
 10
487.38
 20
515.7241575597
 30
0.0
 11
487.38
 21
532.5835833107
 31
0.0
  0
LINE
  5
C6
330
1F
100
AcDbEntity
  8
0
  6
Continuous
 62
     7
370
    25
100
AcDbLine
 10
457.38
 20
532.5835833107
 30
0.0
 11
457.38
 21
515.7241575597
 31
0.0
  0
LINE
  5
C7
330
1F
100
AcDbEntity
  8
0
  6
Continuous
 62
     7
370
    25
100
AcDbLine
 10
482.2811034908
 20
509.1936887146
 30
0.0
 11
482.9883251687
 21
509.6020918098
 31
0.0
  0
LWPOLYLINE
  5
C8
330
1F
100
AcDbEntity
  8
0
  6
Continuous
 62
     7
370
    25
100
AcDbPolyline
 90
       17
 70
   128
 43
0.0
 10
481.2188347648
 20
2175.1383931392
 10
482.6298468369
 20
2174.1661994545
 10
483.7242090748
 20
2173.0664061204
 10
484.4681132054
 20
2171.8729891934
 10
484.8385777028
 20
2170.6228170559
 10
484.8241577598
 20
2169.3545114362
 10
484.4252988535
 20
2168.1072542628
 10
483.6543229833
 20
2166.9195772115
 10
482.5350480058
 20
2165.8281713419
 10
481.1020518265
 20
2164.8667535959
 10
479.3996041804
 20
2164.065025175
 10
477.4802990012
 20
2163.4477539786
 10
475.4034296301
 20
2163.0340094447
 10
473.2331570594
 20
2162.8365734365
 10
471.036527798
 20
2162.8615453699
 10
468.8814025959
 20
2163.1081537837
 10
466.8343600125
 20
2163.5687801726
  0
SPLINE
  5
C9
330
1F
100
AcDbEntity
  8
0
  6
Continuous
 62
     7
370
    25
100
AcDbSpline
210
0.0
220
0.0
230
1.0
 70
     8
 71
     3
 72
     8
 73
     4
 74
     0
 42
0.00000001
 43
0.00000001
 40
0.0
 40
0.0
 40
0.0
 40
0.0
 40
1.0
 40
1.0
 40
1.0
 40
1.0
 10
466.8343600125241
 20
2163.568780172554
 30
0.0
 10
467.0838064934641
 20
2163.98568768962
 30
0.0
 10
467.3337831811523
 20
2164.402243321637
 30
0.0
 10
467.5844517837577
 20
2164.818339746909
 30
0.0
  0
LWPOLYLINE
  5
CA
330
1F
100
AcDbEntity
  8
0
  6
Continuous
 62
     7
370
    25
100
AcDbPolyline
 90
       16
 70
   128
 43
0.0
 10
480.5117279836
 20
2175.5467298951
 10
481.8736830743
 20
2174.5989752415
 10
482.9089964326
 20
2173.5223145259
 10
483.5820468411
 20
2172.3537915721
 10
483.8696771806
 20
2171.1336108359
 10
483.7619911787
 20
2169.903754122
 10
483.2626939035
 20
2168.7065361491
 10
482.3889642862
 20
2167.5831486601
 10
481.1708640586
 20
2166.5722431701
 10
479.6503034431
 20
2165.7086011141
 10
477.8795991803
 20
2165.0219371493
 10
475.9196745074
 20
2164.535876786
 10
473.8379630207
 20
2164.267143523
 10
471.7060885401
 20
2164.2249834558
 10
469.5974008042
 20
2164.4108471527
 10
467.5844517838
 20
2164.8183397469
  0
LINE
  5
CB
330
1F
100
AcDbEntity
  8
0
  6
Continuous
 62
     7
370
    25
100
AcDbLine
 10
480.5117279836
 20
2175.5467298951
 30
0.0
 11
481.2188347648
 21
2175.1383931392
 31
0.0
  0
LINE
  5
CC
330
1F
100
AcDbEntity
  8
0
  6
Continuous
 62
     7
370
    25
100
AcDbLine
 10
466.8343600125
 20
2143.9718006873
 30
0.0
 11
466.8343600125
 21
2163.5687801726
 31
0.0
  0
LWPOLYLINE
  5
CD
330
1F
100
AcDbEntity
  8
0
  6
Continuous
 62
     7
370
    25
100
AcDbPolyline
 90
       15
 70
   128
 43
0.0
 10
484.88
 20
2145.5396180837
 10
484.8324337261
 20
2144.9106938421
 10
484.4540728286
 20
2143.6719549038
 10
483.708847338
 20
2142.4899639661
 10
482.6194005536
 20
2141.4006352256
 10
481.2188347648
 20
2140.4370673848
 10
479.5497054544
 20
2139.628537965
 10
477.6627282718
 20
2138.9996137234
 10
475.6152380638
 20
2138.5694042049
 10
473.4694467843
 20
2138.350981108
 10
471.2905532157
 20
2138.350981108
 10
469.1447619362
 20
2138.5694042049
 10
467.0972717282
 20
2138.9996137234
 10
465.2102945456
 20
2139.628537965
 10
463.5411652352
 20
2140.4370673848
  0
SPLINE
  5
CE
330
1F
100
AcDbEntity
  8
0
  6
Continuous
 62
     7
370
    25
100
AcDbSpline
210
0.0
220
0.0
230
1.0
 70
     8
 71
     3
 72
    27
 73
    23
 74
     0
 42
0.00000001
 43
0.00000001
 40
0.0
 40
0.0
 40
0.0
 40
0.0
 40
0.0297800940116126
 40
0.059966969437498
 40
0.0905676077314472
 40
0.1215887108342164
 40
0.1530367117136394
 40
0.1849177847642119
 40
0.217237856024604
 40
0.2500026131789069
 40
0.309582513479943
 40
0.3750149117530516
 40
0.4285682793481765
 40
0.5001703893020976
 40
0.6245525389766493
 40
0.6905640140735151
 40
0.7497522179507556
 40
0.8135114651681836
 40
0.8741607268873864
 40
0.916544423379387
 40
0.9584842504707195
 40
1.0
 40
1.0
 40
1.0
 40
1.0
 10
463.5411652351682
 20
2142.070149008572
 30
0.0
 10
463.5857533907006
 20
2142.045342357931
 30
0.0
 10
463.6755387540054
 20
2141.995390210021
 30
0.0
 10
463.8134642950575
 20
2141.931019173559
 30
0.0
 10
463.9544888547676
 20
2141.874262383646
 30
0.0
 10
464.0984630176687
 20
2141.826366242116
 30
0.0
 10
464.2449610778505
 20
2141.787563074525
 30
0.0
 10
464.3936033222192
 20
2141.758354127721
 30
0.0
 10
464.5439693461486
 20
2141.739152855427
 30
0.0
 10
464.7362932027843
 20
2141.728037191362
 30
0.0
 10
464.9769288840627
 20
2141.738198670454
 30
0.0
 10
465.2411104966135
 20
2141.785674071315
 30
0.0
 10
465.5117453965229
 20
2141.871904575109
 30
0.0
 10
465.845635843095
 20
2142.031264205977
 30
0.0
 10
466.1559839376208
 20
2142.272025538358
 30
0.0
 10
466.3993022836332
 20
2142.559241665282
 30
0.0
 10
466.5550702488582
 20
2142.803293887264
 30
0.0
 10
466.6762455709582
 20
2143.06315947859
 30
0.0
 10
466.7568780411362
 20
2143.317562940155
 30
0.0
 10
466.8039504949031
 20
2143.549837164607
 30
0.0
 10
466.829614953356
 20
2143.758041616494
 30
0.0
 10
466.8327836934276
 20
2143.900789453628
 30
0.0
 10
466.8343600125241
 20
2143.971800687296
 30
0.0
  0
LWPOLYLINE
  5
CF
330
1F
100
AcDbEntity
  8
0
  6
Continuous
 62
     7
370
    25
100
AcDbPolyline
 90
       16
 70
   128
 43
0.0
 10
461.9275975343
 20
2168.0839721942
 10
461.2217231744
 20
2169.2460229288
 10
460.899762923
 20
2170.4633424473
 10
460.9727942146
 20
2171.6940473887
 10
461.4383043187
 20
2172.8957938501
 10
462.2802767931
 20
2174.0272342803
 10
463.4697425489
 20
2175.049440093
 10
464.9657765678
 20
2175.9272410518
 10
466.7169059766
 20
2176.6304353453
 10
468.6628810347
 20
2177.134828717
 10
470.7367480993
 20
2177.4230668987
 10
472.8671532476
 20
2177.4852327043
 10
474.9807972949
 20
2177.3191872437
 10
477.0049577427
 20
2176.9306435133
 10
478.8699908848
 20
2176.3329698334
 10
480.5117279836
 20
2175.5467298951
  0
LINE
  5
D0
330
1F
100
AcDbEntity
  8
0
  6
Continuous
 62
     7
370
    25
100
AcDbLine
 10
467.5844517838
 20
2164.8183397469
 30
0.0
 11
469.1980194847
 21
2165.7498325533
 31
0.0
  0
LINE
  5
D1
330
1F
100
AcDbEntity
  8
0
  6
Continuous
 62
     7
370
    25
100
AcDbLine
 10
469.1980194847
 20
2165.7498325533
 30
0.0
 11
463.5411652352
 21
2169.0154650005
 31
0.0
  0
LINE
  5
D2
330
1F
100
AcDbEntity
  8
0
  6
Continuous
 62
     7
370
    25
100
AcDbLine
 10
463.5411652352
 20
2169.0154650005
 30
0.0
 11
461.9275975343
 21
2168.0839721942
 31
0.0
  0
ARC
  5
D3
330
1F
100
AcDbEntity
  8
0
  6
Continuous
 62
     7
370
    25
100
AcDbCircle
 10
469.3530300018
 20
2148.7143160341
 30
0.0
 40
5.812951004580166
100
AcDbArc
 50
181.107665289
 51
243.8831401164
  0
LINE
  5
D4
330
1F
100
AcDbEntity
  8
0
  6
Continuous
 62
     7
370
    25
100
AcDbLine
 10
463.5411652352
 20
2169.0154650005
 30
0.0
 11
463.5411652352
 21
2148.6019447034
 31
0.0
  0
SPLINE
  5
D5
330
1F
100
AcDbEntity
  8
0
  6
Continuous
 62
     7
370
    25
100
AcDbSpline
210
0.0
220
0.0
230
1.0
 70
     8
 71
     3
 72
     8
 73
     4
 74
     0
 42
0.00000001
 43
0.00000001
 40
0.0
 40
0.0
 40
0.0
 40
0.0
 40
1.0
 40
1.0
 40
1.0
 40
1.0
 10
461.9275975342654
 20
2168.0839721942
 30
0.0
 10
461.6769355579885
 20
2167.667886768278
 30
0.0
 10
461.4269582812011
 20
2167.251330227117
 30
0.0
 10
461.1775057630317
 20
2166.834412619845
 30
0.0
  0
LWPOLYLINE
  5
D6
330
1F
100
AcDbEntity
  8
0
  6
Continuous
 62
     7
370
    25
100
AcDbPolyline
 90
        9
 70
   128
 43
0.0
 10
461.177505763
 20
2166.8344126198
 10
460.3795909985
 20
2168.0161451493
 10
459.9524064098
 20
2169.2602724465
 10
459.9091490654
 20
2170.5283595271
 10
460.25115532
 20
2171.7812312141
 10
460.9678595304
 20
2172.9801823816
 10
462.0371204614
 20
2174.0881736773
 10
463.4259052978
 20
2175.0709757839
 10
463.5397290261
 20
2175.1375638985
  0
ARC
  5
D7
330
1F
100
AcDbEntity
  8
0
  6
Continuous
 62
     7
370
    25
100
AcDbCircle
 10
465.9772030928
 20
2146.0497140909
 30
0.0
 40
6.11850337018133
100
AcDbArc
 50
184.7822660226
 51
246.537874935
  0
LINE
  5
D8
330
1F
100
AcDbEntity
  8
0
  6
Continuous
 62
     7
370
    25
100
AcDbLine
 10
461.177505763
 20
2166.8344126198
 30
0.0
 11
461.177505763
 21
2147.2374331346
 31
0.0
  0
SPLINE
  5
D9
330
1F
100
AcDbEntity
  8
0
  6
Continuous
 62
     7
370
    25
100
AcDbSpline
210
0.0
220
0.0
230
1.0
 70
     8
 71
     3
 72
    24
 73
    20
 74
     0
 42
0.00000001
 43
0.00000001
 40
0.0
 40
0.0
 40
0.0
 40
0.0
 40
0.0308896850159201
 40
0.062012084573593
 40
0.0933754763753188
 40
0.1249879487852018
 40
0.1860788899812757
 40
0.2503337682660594
 40
0.309322707773557
 40
0.3750940947955532
 40
0.5002911726990329
 40
0.571716749588471
 40
0.6252460236521666
 40
0.690616405910435
 40
0.7501643673641103
 40
0.8151999384886103
 40
0.878484835028171
 40
0.9400673739132793
 40
1.0
 40
1.0
 40
1.0
 40
1.0
 10
461.1775057630317
 20
2147.237433134586
 30
0.0
 10
461.1779326263592
 20
2147.183770927472
 30
0.0
 10
461.1787895688872
 20
2147.076042236671
 30
0.0
 10
461.1858005693326
 20
2146.907594903952
 30
0.0
 10
461.1971531645727
 20
2146.733807831112
 30
0.0
 10
461.2183528948008
 20
2146.499356948414
 30
0.0
 10
461.2564658921835
 20
2146.194185877863
 30
0.0
 10
461.3196217580626
 20
2145.826579334181
 30
0.0
 10
461.4027204738888
 20
2145.444559771933
 30
0.0
 10
461.5378732604831
 20
2144.938182758499
 30
0.0
 10
461.7206417797101
 20
2144.412094686986
 30
0.0
 10
461.9355208016236
 20
2143.935270641445
 30
0.0
 10
462.1179624490314
 20
2143.587943196449
 30
0.0
 10
462.3066462145069
 20
2143.279249237126
 30
0.0
 10
462.5256906244438
 20
2142.973457155809
 30
0.0
 10
462.7600832980249
 20
2142.696842550458
 30
0.0
 10
463.0136427072707
 20
2142.44858507011
 30
0.0
 10
463.2731872850352
 20
2142.236318382202
 30
0.0
 10
463.4526514969126
 20
2142.125035137958
 30
0.0
 10
463.5411652351682
 20
2142.070149008572
 30
0.0
  0
LWPOLYLINE
  5
DA
330
1F
100
AcDbEntity
  8
0
  6
Continuous
 62
     7
370
    25
100
AcDbPolyline
 90
       20
 70
   128
 43
0.0
 10
484.88
 20
2149.5096941145
 10
485.7450978628
 20
2148.6543243254
 10
486.6458477444
 20
2147.398952977
 10
487.1953251089
 20
2146.077692688
 10
487.38
 20
2144.7230772718
 10
487.1953251089
 20
2143.3684618556
 10
486.6458477444
 20
2142.0472015666
 10
485.7450978628
 20
2140.7918302183
 10
484.5152549156
 20
2139.6332592194
 10
482.9866017178
 20
2138.6000164331
 10
481.1967787844
 20
2137.717543726
 10
479.1898574961
 20
2137.0075705048
 10
477.0152549156
 20
2136.4875786665
 10
474.7265169756
 20
2136.1703721359
 10
472.38
 20
2136.0637615905
 10
470.0334830244
 20
2136.1703721359
 10
467.7447450844
 20
2136.4875786665
 10
465.5701425039
 20
2137.0075705048
 10
463.5632212156
 20
2137.717543726
 10
461.7733982822
 20
2138.6000164331
  0
LWPOLYLINE
  5
DB
330
1F
100
AcDbEntity
  8
0
  6
Continuous
 62
     7
370
    25
100
AcDbPolyline
 90
       19
 70
   128
 43
0.0
 10
484.88
 20
2149.1792786208
 10
484.9574737465
 20
2149.0892171987
 10
485.7979847544
 20
2147.8457134287
 10
486.2724881163
 20
2146.5393053892
 10
486.3680406174
 20
2145.205628486
 10
486.0820358346
 20
2143.8810619484
 10
485.4222752327
 20
2142.6017364986
 10
484.4067553612
 20
2141.4025487999
 10
483.0631769548
 20
2140.3162095668
 10
481.4281893301
 20
2139.3723513017
 10
479.5463906873
 20
2138.5967199974
 10
477.4691115879
 20
2138.0104728542
 10
475.2530147907
 20
2137.6296011658
 10
472.9585496395
 20
2137.4644941191
 10
470.6483031622
 20
2137.5196554038
 10
468.3852928605
 20
2137.793580364
 10
466.2312477561
 20
2138.2787970408
 10
464.2449245844
 20
2138.962069988
 10
462.4805050634
 20
2139.8247613009
  0
ARC
  5
DC
330
1F
100
AcDbEntity
  8
0
  6
Continuous
 62
     7
370
    25
100
AcDbCircle
 10
479.933217921
 20
2056.0736951661
 30
0.0
 40
7.485650181227332
100
AcDbArc
 50
297.7650203101
 51
354.1587252942
  0
LWPOLYLINE
  5
DD
330
1F
100
AcDbEntity
  8
0
  6
Continuous
 62
     7
370
    25
100
AcDbPolyline
 90
        9
 70
   128
 43
0.0
 10
462.4805050634
 20
2139.8247613009
 10
460.9861179582
 20
2140.8433390094
 10
459.8025262535
 20
2141.9900189687
 10
458.9620152456
 20
2143.2335227387
 10
458.4875118837
 20
2144.5399307782
 10
458.3919593826
 20
2145.8736076814
 10
458.6779641654
 20
2147.198174219
 10
459.3377247673
 20
2148.4774996688
 10
459.88
 20
2149.1792786208
  0
LWPOLYLINE
  5
DE
330
1F
100
AcDbEntity
  8
0
  6
Continuous
 62
     7
370
    25
100
AcDbPolyline
 90
       10
 70
   128
 43
0.0
 10
461.7733982822
 20
2138.6000164331
 10
460.2447450844
 20
2139.6332592194
 10
459.0149021372
 20
2140.7918302183
 10
458.1141522556
 20
2142.0472015666
 10
457.5646748911
 20
2143.3684618556
 10
457.38
 20
2144.7230772718
 10
457.5646748911
 20
2146.077692688
 10
458.1141522556
 20
2147.398952977
 10
459.0149021372
 20
2148.6543243254
 10
459.88
 20
2149.5096941145
  0
ARC
  5
DF
330
1F
100
AcDbEntity
  8
0
  6
Continuous
 62
     7
370
    25
100
AcDbCircle
 10
463.756698036
 20
2055.6295599483
 30
0.0
 40
6.384607437818598
100
AcDbArc
 50
182.8522474122
 51
228.6135009475
  0
LWPOLYLINE
  5
E0
330
1F
100
AcDbEntity
  8
0
  6
Continuous
 62
     7
370
    25
100
AcDbPolyline
 90
       13
 70
   128
 43
0.0
 10
458.2378643763
 20
2046.7395068461
 10
456.4438977717
 20
2047.9272231071
 10
454.9467905993
 20
2049.2448958455
 10
453.7744311332
 20
2050.6679793114
 10
452.948658212
 20
2052.1699641525
 10
452.4848544228
 20
2053.722871233
 10
452.3916595527
 20
2055.2977728321
 10
452.6708096457
 20
2056.865331513
 10
453.3171046637
 20
2058.3963466234
 10
454.3185053535
 20
2059.8622982485
 10
455.6563575149
 20
2061.2358784832
 10
457.3057394935
 20
2062.4915001268
 10
457.38
 20
2062.5403865699
  0
LWPOLYLINE
  5
E1
330
1F
100
AcDbEntity
  8
0
  6
Continuous
 62
     7
370
    25
100
AcDbPolyline
 90
       24
 70
   128
 43
0.0
 10
487.38
 20
2062.5403865699
 10
488.3161022283
 20
2061.8799528217
 10
489.8132094007
 20
2060.5622800833
 10
490.9855688668
 20
2059.1391966173
 10
491.811341788
 20
2057.6372117763
 10
492.2751455772
 20
2056.0843046958
 10
492.3683404473
 20
2054.5094030966
 10
492.0891903543
 20
2052.9418444157
 10
491.4428953363
 20
2051.4108293054
 10
490.4414946465
 20
2049.9448776803
 10
489.1036424851
 20
2048.5712974455
 10
487.4542605065
 20
2047.315675802
 10
485.5240735764
 20
2046.2014026052
 10
483.349037425
 20
2045.2492346564
 10
480.9696688606
 20
2044.4769090431
 10
478.4302910176
 20
2043.89881273
 10
475.7782077006
 20
2043.5257145577
 10
473.0628222037
 20
2043.3645646392
 10
470.3347170212
 20
2043.4183648925
 10
467.6447115907
 20
2043.6861131209
 10
465.0429156237
 20
2044.1628216812
 10
462.5777956564
 20
2044.8396103952
 10
460.2952722096
 20
2045.7038719694
 10
458.2378643763
 20
2046.7395068461
  0
ARC
  5
E2
330
1F
100
AcDbEntity
  8
0
  6
Continuous
 62
     7
370
    25
100
AcDbCircle
 10
472.4156372579
 20
2070.5593612201
 30
0.0
 40
24.64077638035788
100
AcDbArc
 50
246.8003028795
 51
289.3872422828
  0
LWPOLYLINE
  5
E3
330
1F
100
AcDbEntity
  8
0
  6
Continuous
 62
     7
370
    25
100
AcDbPolyline
 90
       19
 70
   128
 43
0.0
 10
492.38
 20
540.2203819163
 10
492.3683404473
 20
539.8261970486
 10
492.0891903543
 20
538.2586383677
 10
491.4428953363
 20
536.7276232573
 10
490.4414946465
 20
535.2616716322
 10
489.1036424851
 20
533.8880913975
 10
487.4542605065
 20
532.6324697539
 10
485.5240735764
 20
531.5181965571
 10
483.349037425
 20
530.5660286084
 10
480.9696688606
 20
529.793702995
 10
478.4302910176
 20
529.2156066819
 10
475.7782077006
 20
528.8425085096
 10
473.0628222037
 20
528.6813585911
 10
470.3347170212
 20
528.7351588445
 10
467.6447115907
 20
529.0029070728
 10
465.0429156237
 20
529.4796156332
 10
462.5777956564
 20
530.1564043471
 10
460.2952722096
 20
531.0206659214
 10
458.2378643763
 20
532.0563007981
  0
LWPOLYLINE
  5
E4
330
1F
100
AcDbEntity
  8
0
  6
Continuous
 62
     7
370
    25
100
AcDbPolyline
 90
        7
 70
   128
 43
0.0
 10
458.2378643763
 20
532.0563007981
 10
456.4438977717
 20
533.244017059
 10
454.9467905993
 20
534.5616897974
 10
453.7744311332
 20
535.9847732634
 10
452.948658212
 20
537.4867581044
 10
452.4848544228
 20
539.0396651849
 10
452.38
 20
540.2203819163
  0
LWPOLYLINE
  5
E5
330
1F
100
AcDbEntity
  8
0
  6
Continuous
 62
     7
370
    25
100
AcDbPolyline
 90
       16
 70
   128
 43
0.0
 10
487.38
 20
515.7241575597
 10
487.1953251089
 20
514.3695421435
 10
486.6458477444
 20
513.0482818546
 10
485.7450978628
 20
511.7929105062
 10
484.5152549156
 20
510.6343395073
 10
482.9866017178
 20
509.6010967211
 10
481.1967787844
 20
508.7186240139
 10
479.1898574961
 20
508.0086507927
 10
477.0152549156
 20
507.4886589544
 10
474.7265169756
 20
507.1714524238
 10
472.38
 20
507.0648418785
 10
470.0334830244
 20
507.1714524238
 10
467.7447450844
 20
507.4886589544
 10
465.5701425039
 20
508.0086507927
 10
463.5632212156
 20
508.7186240139
 10
461.7733982822
 20
509.6010967211
  0
ARC
  5
E6
330
1F
100
AcDbEntity
  8
0
  6
Continuous
 62
     7
370
    25
100
AcDbCircle
 10
464.8231043178
 20
516.4270103628
 30
0.0
 40
7.47621588424538
100
AcDbArc
 50
185.3944478058
 51
245.9256931518
  0
LINE
  5
E7
330
1F
100
AcDbEntity
  8
0
  6
Continuous
 62
     7
370
    25
100
AcDbLine
 10
462.4805050634
 20
509.1927599651
 30
0.0
 11
461.7733982822
 21
509.6010967211
 31
0.0
  0
ARC
  5
E8
330
1F
100
AcDbEntity
  8
0
  6
Continuous
 62
     7
370
    25
100
AcDbCircle
 10
472.3799196787
 20
528.0525373258
 30
0.0
 40
21.29999088787413
100
AcDbArc
 50
242.3052155084
 51
297.7001594227
  0
ARC
  5
E9
330
1F
100
AcDbEntity
  8
0
  6
HIDDEN
 62
     7
370
    18
100
AcDbCircle
 10
478.7827969072
 20
2145.0295220765
 30
0.0
 40
6.118503370180249
100
AcDbArc
 50
4.7822660226
 51
66.537874935
  0
LWPOLYLINE
  5
EA
330
1F
100
AcDbEntity
  8
0
  6
HIDDEN
 62
     7
370
    18
100
AcDbPolyline
 90
        6
 70
   128
 43
0.0
 10
466.7941491775
 20
2143.494878487
 10
467.2436244088
 20
2143.3582546781
 10
468.032100111
 20
2143.3670016101
 10
468.6578379712
 20
2143.7283498177
 10
469.0595864078
 20
2144.4069280205
 10
469.1980194847
 20
2145.3363122561
  0
LINE
  5
EB
330
1F
100
AcDbEntity
  8
0
  6
HIDDEN
 62
     7
370
    18
100
AcDbLine
 10
469.1980194847
 20
2145.3363122561
 30
0.0
 11
469.1980194847
 21
2165.7498325533
 31
0.0
  0
ARC
  5
EC
330
1F
100
AcDbEntity
  8
0
  6
HIDDEN
 62
     7
370
    18
100
AcDbCircle
 10
472.3800773125
 20
2158.1799781533
 30
0.0
 40
19.12358418637335
100
AcDbArc
 50
62.4713904063
 51
117.5339845248
  0
LWPOLYLINE
  5
ED
330
1F
100
AcDbEntity
  8
0
  6
HIDDEN
 62
     7
370
    18
100
AcDbPolyline
 90
       15
 70
   128
 43
0.0
 10
459.88
 20
2145.5396180837
 10
459.9275662739
 20
2146.1685423253
 10
460.3059271714
 20
2147.4072812636
 10
461.051152662
 20
2148.5892722013
 10
462.1405994464
 20
2149.6786009418
 10
463.5411652352
 20
2150.6421687826
 10
465.2102945456
 20
2151.4506982024
 10
467.0972717282
 20
2152.079622444
 10
469.1447619362
 20
2152.5098319625
 10
471.2905532157
 20
2152.7282550594
 10
473.4694467843
 20
2152.7282550594
 10
475.6152380638
 20
2152.5098319625
 10
477.6627282718
 20
2152.079622444
 10
479.5497054544
 20
2151.4506982024
 10
481.2188347648
 20
2150.6421687826
  0
LINE
  5
EE
330
1F
100
AcDbEntity
  8
0
  6
HIDDEN
 62
     7
370
    18
100
AcDbLine
 10
482.2794949366
 20
2151.2544748665
 30
0.0
 11
482.9866017178
 21
2150.8461381105
 31
0.0
  0
LWPOLYLINE
  5
EF
330
1F
100
AcDbEntity
  8
0
  6
HIDDEN
 62
     7
370
    18
100
AcDbPolyline
 90
        3
 70
   128
 43
0.0
 10
482.9866017178
 20
2150.8461381105
 10
484.5152549156
 20
2149.8128953242
 10
484.88
 20
2149.5096941145
  0
LWPOLYLINE
  5
F0
330
1F
100
AcDbEntity
  8
0
  6
HIDDEN
 62
     7
370
    18
100
AcDbPolyline
 90
        3
 70
   128
 43
0.0
 10
482.2794949366
 20
2151.2544748665
 10
483.7738820418
 20
2150.235897158
 10
484.88
 20
2149.1792786208
  0
ARC
  5
F1
330
1F
100
AcDbEntity
  8
0
  6
HIDDEN
 62
     7
370
    18
100
AcDbCircle
 10
481.003301964
 20
2054.9941567923
 30
0.0
 40
6.384607437816724
100
AcDbArc
 50
2.8522474122
 51
48.6135009475
  0
LWPOLYLINE
  5
F2
330
1F
100
AcDbEntity
  8
0
  6
HIDDEN
 62
     7
370
    18
100
AcDbPolyline
 90
       13
 70
   128
 43
0.0
 10
459.88
 20
2149.1792786208
 10
460.3532446388
 20
2149.6766873674
 10
461.6968230452
 20
2150.7630266006
 10
463.3318106699
 20
2151.7068848657
 10
465.2136093127
 20
2152.48251617
 10
467.2908884121
 20
2153.0687633132
 10
469.5069852093
 20
2153.4496350016
 10
471.8014503605
 20
2153.6147420483
 10
474.1116968378
 20
2153.5595807635
 10
476.3747071395
 20
2153.2856558034
 10
478.5287522439
 20
2152.8004391266
 10
480.5150754156
 20
2152.1171661794
 10
482.2794949366
 20
2151.2544748665
  0
LWPOLYLINE
  5
F3
330
1F
100
AcDbEntity
  8
0
  6
HIDDEN
 62
     7
370
    18
100
AcDbPolyline
 90
       13
 70
   128
 43
0.0
 10
459.88
 20
2149.5096941145
 10
460.2447450844
 20
2149.8128953242
 10
461.7733982822
 20
2150.8461381105
 10
463.5632212156
 20
2151.7286108176
 10
465.5701425039
 20
2152.4385840388
 10
467.7447450844
 20
2152.9585758771
 10
470.0334830244
 20
2153.2757824077
 10
472.38
 20
2153.3823929531
 10
474.7265169756
 20
2153.2757824077
 10
477.0152549156
 20
2152.9585758771
 10
479.1898574961
 20
2152.4385840388
 10
481.1967787844
 20
2151.7286108176
 10
482.9866017178
 20
2150.8461381105
  0
ARC
  5
F4
330
1F
100
AcDbEntity
  8
0
  6
HIDDEN
 62
     7
370
    18
100
AcDbCircle
 10
464.826782079
 20
2054.5500215745
 30
0.0
 40
7.4856501812265
100
AcDbArc
 50
117.7650203101
 51
174.1587252942
  0
ARC
  5
F5
330
1F
100
AcDbEntity
  8
0
  6
HIDDEN
 62
     7
370
    18
100
AcDbCircle
 10
472.4339244295
 20
2036.1172466429
 30
0.0
 40
30.4105732325138
100
AcDbArc
 50
62.4018853475
 51
119.6712479913
  0
LINE
  5
F6
330
1F
100
AcDbEntity
  8
0
  6
HIDDEN
 62
     7
370
    18
100
AcDbLine
 10
486.5221356237
 20
2063.0676690826
 30
0.0
 11
487.38
 21
2062.5403865699
 31
0.0
  0
LWPOLYLINE
  5
F7
330
1F
100
AcDbEntity
  8
0
  6
HIDDEN
 62
     7
370
    18
100
AcDbPolyline
 90
       13
 70
   128
 43
0.0
 10
459.0418226588
 20
2059.4617131621
 10
459.8402365872
 20
2060.1630666185
 10
461.4198448916
 20
2061.230750831
 10
463.2693285895
 20
2062.142639295
 10
465.343147254
 20
2062.8762782903
 10
467.5902365872
 20
2063.4136031899
 10
469.9552657919
 20
2063.7413832715
 10
472.38
 20
2063.8515475017
 10
474.8047342081
 20
2063.7413832715
 10
477.1697634128
 20
2063.4136031899
 10
479.416852746
 20
2062.8762782903
 10
481.4906714105
 20
2062.142639295
 10
482.9288545975
 20
2061.4595958832
  0
LWPOLYLINE
  5
F8
330
1F
100
AcDbEntity
  8
0
  6
HIDDEN
 62
     7
370
    18
100
AcDbPolyline
 90
        7
 70
   128
 43
0.0
 10
486.5221356237
 20
548.3844630345
 10
488.3161022283
 20
547.1967467736
 10
489.8132094007
 20
545.8790740352
 10
490.9855688668
 20
544.4559905693
 10
491.811341788
 20
542.9540057282
 10
492.2751455772
 20
541.4010986477
 10
492.38
 20
540.2203819163
  0
LWPOLYLINE
  5
F9
330
1F
100
AcDbEntity
  8
0
  6
HIDDEN
 62
     7
370
    18
100
AcDbPolyline
 90
       19
 70
   128
 43
0.0
 10
452.38
 20
540.2203819163
 10
452.3916595527
 20
540.6145667841
 10
452.6708096457
 20
542.182125465
 10
453.3171046637
 20
543.7131405753
 10
454.3185053535
 20
545.1790922004
 10
455.6563575149
 20
546.5526724352
 10
457.3057394935
 20
547.8082940787
 10
459.2359264236
 20
548.9225672755
 10
461.410962575
 20
549.8747352243
 10
463.7903311394
 20
550.6470608376
 10
466.3297089824
 20
551.2251571507
 10
468.9817922994
 20
551.598255323
 10
471.6971777963
 20
551.7594052415
 10
474.4252829788
 20
551.7056049882
 10
477.1152884093
 20
551.4378567598
 10
479.7170843763
 20
550.9611481994
 10
482.1822043436
 20
550.2843594855
 10
484.4647277904
 20
549.4200979113
 10
486.5221356237
 20
548.3844630345
  0
LWPOLYLINE
  5
FA
330
1F
100
AcDbEntity
  8
0
  6
HIDDEN
 62
     7
370
    18
100
AcDbPolyline
 90
       10
 70
   128
 43
0.0
 10
485.2243900013
 20
544.2845694199
 10
485.7450978628
 20
543.7433585639
 10
486.6458477444
 20
542.4879872155
 10
487.1953251089
 20
541.1667269266
 10
487.38
 20
539.8121115104
 10
487.1953251089
 20
538.4574960941
 10
486.6458477444
 20
537.1362358052
 10
485.7450978628
 20
535.8808644568
 10
484.5152549156
 20
534.722293458
 10
483.4203819124
 20
533.9501543833
  0
LWPOLYLINE
  5
FB
330
1F
100
AcDbEntity
  8
0
  6
HIDDEN
 62
     7
370
    18
100
AcDbPolyline
 90
       13
 70
   128
 43
0.0
 10
485.7181773412
 20
535.6622567186
 10
484.9197634128
 20
534.9609032622
 10
483.3401551084
 20
533.8932190497
 10
481.4906714105
 20
532.9813305856
 10
479.416852746
 20
532.2476915904
 10
477.1697634128
 20
531.7103666908
 10
474.8047342081
 20
531.3825866092
 10
472.38
 20
531.272422379
 10
469.9552657919
 20
531.3825866092
 10
467.5902365872
 20
531.7103666908
 10
465.343147254
 20
532.2476915904
 10
463.2693285895
 20
532.9813305856
 10
461.8311454025
 20
533.6643739974
  0
ARC
  5
FC
330
1F
100
AcDbEntity
  8
0
  6
HIDDEN
 62
     7
370
    18
100
AcDbCircle
 10
479.9368956822
 20
515.0213047567
 30
0.0
 40
7.476215884245122
100
AcDbArc
 50
5.3944478058
 51
65.9256931518
  0
LWPOLYLINE
  5
FD
330
1F
100
AcDbEntity
  8
0
  6
HIDDEN
 62
     7
370
    18
100
AcDbPolyline
 90
       10
 70
   128
 43
0.0
 10
459.5356099987
 20
535.3396536008
 10
459.0149021372
 20
535.8808644568
 10
458.1141522556
 20
537.1362358052
 10
457.5646748911
 20
538.4574960941
 10
457.38
 20
539.8121115104
 10
457.5646748911
 20
541.1667269266
 10
458.1141522556
 20
542.4879872155
 10
459.0149021372
 20
543.7433585639
 10
460.2447450844
 20
544.9019295628
 10
461.3396180876
 20
545.6740686374
  0
ARC
  5
FE
330
1F
100
AcDbEntity
  8
0
  6
HIDDEN
 62
     7
370
    18
100
AcDbCircle
 10
472.3443627421
 20
524.5646086606
 30
0.0
 40
24.64077638035713
100
AcDbArc
 50
66.8003028795
 51
109.3872422828
  0
LWPOLYLINE
  5
FF
330
1F
100
AcDbEntity
  8
0
  6
HIDDEN
 62
     7
370
    18
100
AcDbPolyline
 90
       16
 70
   128
 43
0.0
 10
457.38
 20
515.7241575597
 10
457.5646748911
 20
517.078772976
 10
458.1141522556
 20
518.4000332649
 10
459.0149021372
 20
519.6554046133
 10
460.2447450844
 20
520.8139756121
 10
461.7733982822
 20
521.8472183984
 10
463.5632212156
 20
522.7296911056
 10
465.5701425039
 20
523.4396643268
 10
467.7447450844
 20
523.9596561651
 10
470.0334830244
 20
524.2768626957
 10
472.38
 20
524.383473241
 10
474.7265169756
 20
524.2768626957
 10
477.0152549156
 20
523.9596561651
 10
479.1898574961
 20
523.4396643268
 10
481.1967787844
 20
522.7296911056
 10
482.9866017178
 20
521.8472183984
  0
LWPOLYLINE
  5
100
330
1F
100
AcDbEntity
  8
0
  6
HIDDEN
 62
     7
370
    18
100
AcDbPolyline
 90
       11
 70
   128
 43
0.0
 10
482.2794949366
 20
520.6224735306
 10
483.7738820418
 20
519.6038958222
 10
484.9574737465
 20
518.4572158629
 10
485.7979847544
 20
517.2137120929
 10
486.2724881163
 20
515.9073040534
 10
486.3680406174
 20
514.5736271501
 10
486.0820358346
 20
513.2490606125
 10
485.4222752327
 20
511.9697351627
 10
484.4067553612
 20
510.7705474641
 10
483.0631769548
 20
509.684208231
 10
482.2811034908
 20
509.1936887146
  0
LWPOLYLINE
  5
101
330
1F
100
AcDbEntity
  8
0
  6
HIDDEN
 62
     7
370
    18
100
AcDbPolyline
 90
       20
 70
   128
 43
0.0
 10
462.4805050634
 20
509.1927599651
 10
460.9861179582
 20
510.2113376735
 10
459.8025262535
 20
511.3580176328
 10
458.9620152456
 20
512.6015214028
 10
458.4875118837
 20
513.9079294423
 10
458.3919593826
 20
515.2416063456
 10
458.6779641654
 20
516.5661728832
 10
459.3377247673
 20
517.845498333
 10
460.3532446388
 20
519.0446860316
 10
461.6968230452
 20
520.1310252647
 10
463.3318106699
 20
521.0748835299
 10
465.2136093127
 20
521.8505148341
 10
467.2908884121
 20
522.4367619773
 10
469.5069852093
 20
522.8176336657
 10
471.8014503605
 20
522.9827407124
 10
474.1116968378
 20
522.9275794277
 10
476.3747071395
 20
522.6536544675
 10
478.5287522439
 20
522.1684377908
 10
480.5150754156
 20
521.4851648435
 10
482.2794949366
 20
520.6224735306
  0
LINE
  5
102
330
1F
100
AcDbEntity
  8
0
  6
HIDDEN
 62
     7
370
    18
100
AcDbLine
 10
465.7702296388
 20
2142.0044467014
 30
0.0
 11
468.3694298252
 21
2143.5049330302
 31
0.0
  0
LINE
  5
103
330
1F
100
AcDbEntity
  8
0
  6
HIDDEN
 62
     7
370
    18
100
AcDbLine
 10
462.4788965092
 20
2151.253546117
 30
0.0
 11
461.7716748313
 21
2150.8451430217
 31
0.0
  0
SPLINE
  5
104
330
1F
100
AcDbEntity
  8
0
  6
HIDDEN
 62
     7
370
    18
100
AcDbSpline
210
0.0
220
0.0
230
1.0
 70
     8
 71
     3
 72
     9
 73
     5
 74
     0
 42
0.00000001
 43
0.00000001
 40
0.0
 40
0.0
 40
0.0
 40
0.0
 40
0.8291019732316588
 40
1.0
 40
1.0
 40
1.0
 40
1.0
 10
484.0916174955201
 20
2060.545685356093
 30
0.0
 10
484.4630844959404
 20
2060.28954253792
 30
0.0
 10
484.9111198551767
 20
2059.980602472109
 30
0.0
 10
485.2287861597649
 20
2059.631237060625
 30
0.0
 10
485.2830747043899
 20
2059.571531201181
 30
0.0
  0
SPLINE
  5
105
330
1F
100
AcDbEntity
  8
0
  6
HIDDEN
 62
     7
370
    18
100
AcDbSpline
210
0.0
220
0.0
230
1.0
 70
     8
 71
     3
 72
     9
 73
     5
 74
     0
 42
0.00000001
 43
0.00000001
 40
0.0
 40
0.0
 40
0.0
 40
0.0
 40
0.7339794622826157
 40
1.0
 40
1.0
 40
1.0
 40
1.0
 10
483.0901754252325
 20
2061.205996805753
 30
0.0
 10
483.3558046793975
 20
2061.053276695383
 30
0.0
 10
483.717707522481
 20
2060.845205327969
 30
0.0
 10
484.0130502613226
 20
2060.608621510446
 30
0.0
 10
484.0916174955201
 20
2060.545685356093
 30
0.0
  0
LINE
  5
106
330
1F
100
AcDbEntity
  8
0
  6
HIDDEN
 62
     7
370
    18
100
AcDbLine
 10
482.6993902285
 20
2061.4229868294
 30
0.0
 11
483.0901754252
 21
2061.2059968058
 31
0.0
  0
LINE
  5
107
330
1F
100
AcDbEntity
  8
0
  6
HIDDEN
 62
     7
370
    18
100
AcDbLine
 10
462.0606097715
 20
533.7009830513
 30
0.0
 11
461.6698245748
 21
533.9179730749
 31
0.0
  0
LINE
  5
108
330
1F
100
AcDbEntity
  8
0
  6
HIDDEN
 62
     7
370
    18
100
AcDbLine
 10
487.38
 20
532.5835833107
 30
0.0
 11
487.38
 21
539.8121115104
 31
0.0
  0
SPLINE
  5
109
330
1F
100
AcDbEntity
  8
0
  6
HIDDEN
 62
     7
370
    18
100
AcDbSpline
210
0.0
220
0.0
230
1.0
 70
     8
 71
     3
 72
     9
 73
     5
 74
     0
 42
0.00000001
 43
0.00000001
 40
0.0
 40
0.0
 40
0.0
 40
0.0
 40
0.8291019732315129
 40
1.0
 40
1.0
 40
1.0
 40
1.0
 10
460.6683825044798
 20
534.5782845245888
 30
0.0
 10
460.2969155040596
 20
534.8344273427623
 30
0.0
 10
459.8488801448233
 20
535.1433674085724
 30
0.0
 10
459.531213840235
 20
535.4927328200565
 30
0.0
 10
459.47692529561
 20
535.5524386795005
 30
0.0
  0
SPLINE
  5
10A
330
1F
100
AcDbEntity
  8
0
  6
HIDDEN
 62
     7
370
    18
100
AcDbSpline
210
0.0
220
0.0
230
1.0
 70
     8
 71
     3
 72
     9
 73
     5
 74
     0
 42
0.00000001
 43
0.00000001
 40
0.0
 40
0.0
 40
0.0
 40
0.0
 40
0.7339794622825094
 40
1.0
 40
1.0
 40
1.0
 40
1.0
 10
461.6698245747676
 20
533.9179730749293
 30
0.0
 10
461.4041953206026
 20
534.0706931852992
 30
0.0
 10
461.042292477519
 20
534.2787645527129
 30
0.0
 10
460.7469497386774
 20
534.5153483702361
 30
0.0
 10
460.6683825044798
 20
534.578284524589
 30
0.0
  0
LINE
  5
10B
330
1F
100
AcDbEntity
  8
0
  6
HIDDEN
 62
     7
370
    18
100
AcDbLine
 10
457.38
 20
539.8121115104
 30
0.0
 11
457.38
 21
532.5835833107
 31
0.0
  0
ENDSEC
  0
SECTION
  2
OBJECTS
  0
DICTIONARY
  5
C
330
0
100
AcDbDictionary
281
     1
  3
ACAD_GROUP
350
D
  3
ACAD_LAYOUT
350
1A
  3
ACAD_MLINESTYLE
350
17
  3
ACAD_PLOTSETTINGS
350
19
  3
ACAD_PLOTSTYLENAME
350
E
  3
ACAD_SCALELIST
350
47
  3
DWGPROPS
350
10C
  0
DICTIONARY
  5
D
102
{ACAD_REACTORS
330
C
102
}
330
C
100
AcDbDictionary
281
     1
  0
DICTIONARY
  5
1A
102
{ACAD_REACTORS
330
C
102
}
330
C
100
AcDbDictionary
281
     1
  3
Layout1
350
1E
  3
Layout2
350
26
  3
Model
350
22
  0
DICTIONARY
  5
17
102
{ACAD_REACTORS
330
C
102
}
330
C
100
AcDbDictionary
281
     1
  3
Standard
350
18
  0
DICTIONARY
  5
19
102
{ACAD_REACTORS
330
C
102
}
330
C
100
AcDbDictionary
281
     1
  0
ACDBDICTIONARYWDFLT
  5
E
102
{ACAD_REACTORS
330
C
102
}
330
C
100
AcDbDictionary
281
     1
  3
Normal
350
F
100
AcDbDictionaryWithDefault
340
F
  0
DICTIONARY
  5
47
102
{ACAD_REACTORS
330
C
102
}
330
C
100
AcDbDictionary
281
     1
  3
A0
350
48
  3
A1
350
49
  3
A2
350
4A
  3
A3
350
4B
  3
A4
350
4C
  3
A5
350
4D
  3
A6
350
4E
  3
A7
350
4F
  3
A8
350
50
  3
A9
350
51
  3
B0
350
52
  3
B1
350
53
  3
B2
350
54
  3
B3
350
55
  3
B4
350
56
  3
B5
350
57
  3
B6
350
58
  0
XRECORD
  5
10C
102
{ACAD_REACTORS
330
C
102
}
330
C
100
AcDbXrecord
280
     1
  1
DWGPROPS COOKIE
  2

  3

  4

  6

  7

  8
imaizumi
  9

300
=
301
=
302
=
303
=
304
=
305
=
306
=
307
=
308
=
309
=
 40
0.0
 41
2461263.051963183
 42
2461263.051963727
  1

 90
        0
  0
LAYOUT
  5
1E
102
{ACAD_REACTORS
330
1A
102
}
330
1A
100
AcDbPlotSettings
  1

  2
none_device
  4

  6

 40
0.0
 41
0.0
 42
0.0
 43
0.0
 44
0.0
 45
0.0
 46
0.0
 47
0.0
 48
0.0
 49
0.0
140
0.0
141
0.0
142
1.0
143
1.0
 70
   688
 72
     1
 73
     0
 74
     5
  7

 75
    16
147
1.0
148
0.0
149
0.0
100
AcDbLayout
  1
Layout1
 70
     1
 71
     1
 10
0.0
 20
0.0
 11
420.0
 21
297.0
 12
0.0
 22
0.0
 32
0.0
 14
1.0000000000E+20
 24
1.0000000000E+20
 34
1.0000000000E+20
 15
-1.0000000000E+20
 25
-1.0000000000E+20
 35
-1.0000000000E+20
146
0.0
 13
0.0
 23
0.0
 33
0.0
 16
1.0
 26
0.0
 36
0.0
 17
0.0
 27
1.0
 37
0.0
 76
     0
330
1B
  0
LAYOUT
  5
26
102
{ACAD_REACTORS
330
1A
102
}
330
1A
100
AcDbPlotSettings
  1

  2
none_device
  4

  6

 40
0.0
 41
0.0
 42
0.0
 43
0.0
 44
0.0
 45
0.0
 46
0.0
 47
0.0
 48
0.0
 49
0.0
140
0.0
141
0.0
142
1.0
143
1.0
 70
   688
 72
     1
 73
     0
 74
     5
  7

 75
    16
147
1.0
148
0.0
149
0.0
100
AcDbLayout
  1
Layout2
 70
     1
 71
     2
 10
0.0
 20
0.0
 11
0.0
 21
0.0
 12
0.0
 22
0.0
 32
0.0
 14
0.0
 24
0.0
 34
0.0
 15
0.0
 25
0.0
 35
0.0
146
0.0
 13
0.0
 23
0.0
 33
0.0
 16
1.0
 26
0.0
 36
0.0
 17
0.0
 27
1.0
 37
0.0
 76
     0
330
23
  0
LAYOUT
  5
22
102
{ACAD_REACTORS
330
1A
102
}
330
1A
100
AcDbPlotSettings
  1

  2
none_device
  4
Letter_(8.50_x_11.00_Inches)
  6

 40
6.35
 41
6.35
 42
6.35000508
 43
6.35000508
 44
215.9
 45
279.4
 46
0.0
 47
0.0
 48
0.0
 49
0.0
140
0.0
141
0.0
142
1.0
143
1.0
 70
  1712
 72
     1
 73
     0
 74
     0
  7

 75
     0
147
1.0
148
0.0
149
0.0
100
AcDbLayout
  1
Model
 70
     1
 71
     0
 10
0.0
 20
0.0
 11
841.0
 21
594.0
 12
0.0
 22
0.0
 32
0.0
 14
0.0
 24
0.0
 34
0.0
 15
841.0
 25
594.0
 35
0.0
146
0.0
 13
0.0
 23
0.0
 33
0.0
 16
1.0
 26
0.0
 36
0.0
 17
0.0
 27
1.0
 37
0.0
 76
     0
330
1F
331
29
  0
MLINESTYLE
  5
18
102
{ACAD_REACTORS
330
17
102
}
330
17
100
AcDbMlineStyle
  2
Standard
 70
     0
  3

 62
   256
 51
90.0
 52
90.0
 71
     2
 49
0.5
 62
   256
  6
BYLAYER
 49
-0.5
 62
   256
  6
BYLAYER
  0
ACDBPLACEHOLDER
  5
F
102
{ACAD_REACTORS
330
E
102
}
330
E
  0
SCALE
  5
48
102
{ACAD_REACTORS
330
47
102
}
330
47
100
AcDbScale
 70
     0
300
1:1
140
1.0
141
1.0
290
     1
  0
SCALE
  5
49
102
{ACAD_REACTORS
330
47
102
}
330
47
100
AcDbScale
 70
     0
300
1:2
140
1.0
141
2.0
290
     0
  0
SCALE
  5
4A
102
{ACAD_REACTORS
330
47
102
}
330
47
100
AcDbScale
 70
     0
300
1:4
140
1.0
141
4.0
290
     0
  0
SCALE
  5
4B
102
{ACAD_REACTORS
330
47
102
}
330
47
100
AcDbScale
 70
     0
300
1:5
140
1.0
141
5.0
290
     0
  0
SCALE
  5
4C
102
{ACAD_REACTORS
330
47
102
}
330
47
100
AcDbScale
 70
     0
300
1:8
140
1.0
141
8.0
290
     0
  0
SCALE
  5
4D
102
{ACAD_REACTORS
330
47
102
}
330
47
100
AcDbScale
 70
     0
300
1:10
140
1.0
141
10.0
290
     0
  0
SCALE
  5
4E
102
{ACAD_REACTORS
330
47
102
}
330
47
100
AcDbScale
 70
     0
300
1:16
140
1.0
141
16.0
290
     0
  0
SCALE
  5
4F
102
{ACAD_REACTORS
330
47
102
}
330
47
100
AcDbScale
 70
     0
300
1:20
140
1.0
141
20.0
290
     0
  0
SCALE
  5
50
102
{ACAD_REACTORS
330
47
102
}
330
47
100
AcDbScale
 70
     0
300
1:30
140
1.0
141
30.0
290
     0
  0
SCALE
  5
51
102
{ACAD_REACTORS
330
47
102
}
330
47
100
AcDbScale
 70
     0
300
1:40
140
1.0
141
40.0
290
     0
  0
SCALE
  5
52
102
{ACAD_REACTORS
330
47
102
}
330
47
100
AcDbScale
 70
     0
300
1:50
140
1.0
141
50.0
290
     0
  0
SCALE
  5
53
102
{ACAD_REACTORS
330
47
102
}
330
47
100
AcDbScale
 70
     0
300
1:100
140
1.0
141
100.0
290
     0
  0
SCALE
  5
54
102
{ACAD_REACTORS
330
47
102
}
330
47
100
AcDbScale
 70
     0
300
2:1
140
2.0
141
1.0
290
     0
  0
SCALE
  5
55
102
{ACAD_REACTORS
330
47
102
}
330
47
100
AcDbScale
 70
     0
300
4:1
140
4.0
141
1.0
290
     0
  0
SCALE
  5
56
102
{ACAD_REACTORS
330
47
102
}
330
47
100
AcDbScale
 70
     0
300
8:1
140
8.0
141
1.0
290
     0
  0
SCALE
  5
57
102
{ACAD_REACTORS
330
47
102
}
330
47
100
AcDbScale
 70
     0
300
10:1
140
10.0
141
1.0
290
     0
  0
SCALE
  5
58
102
{ACAD_REACTORS
330
47
102
}
330
47
100
AcDbScale
 70
     0
300
100:1
140
100.0
141
1.0
290
     0
  0
ENDSEC
  0
EOF
