  0
SECTION
  2
HEADER
  9
$ACADVER
  1
AC1015
  9
$ACADMAINTVER
 70
     6
  9
$DWGCODEPAGE
  3
DOS932
  9
$INSBASE
 10
0.0
 20
0.0
 30
0.0
  9
$EXTMIN
 10
0.0
 20
0.0
 30
0.0
  9
$EXTMAX
 10
841.0
 20
594.0
 30
0.0
  9
$LIMMIN
 10
0.0
 20
0.0
  9
$LIMMAX
 10
841.0
 20
594.0
  9
$ORTHOMODE
 70
     0
  9
$REGENMODE
 70
     1
  9
$FILLMODE
 70
     1
  9
$QTEXTMODE
 70
     0
  9
$MIRRTEXT
 70
     1
  9
$LTSCALE
 40
1.0
  9
$ATTMODE
 70
     1
  9
$TEXTSIZE
 40
3.5
  9
$TRACEWID
 40
1.0
  9
$TEXTSTYLE
  7
Standard
  9
$CLAYER
  8
0
  9
$CELTYPE
  6
ByLayer
  9
$CECOLOR
 62
   256
  9
$CELTSCALE
 40
1.0
  9
$DISPSILH
 70
     0
  9
$DIMSCALE
 40
1.0
  9
$DIMASZ
 40
3.302
  9
$DIMEXO
 40
1.0
  9
$DIMDLI
 40
3.75
  9
$DIMRND
 40
0.0
  9
$DIMDLE
 40
0.0
  9
$DIMEXE
 40
1.0
  9
$DIMTP
 40
0.0
  9
$DIMTM
 40
0.0
  9
$DIMTXT
 40
3.5
  9
$DIMCEN
 40
2.5
  9
$DIMTSZ
 40
0.0
  9
$DIMTOL
 70
     0
  9
$DIMLIM
 70
     0
  9
$DIMTIH
 70
     1
  9
$DIMTOH
 70
     1
  9
$DIMSE1
 70
     0
  9
$DIMSE2
 70
     0
  9
$DIMTAD
 70
     1
  9
$DIMZIN
 70
     1
  9
$DIMBLK
  1

  9
$DIMASO
 70
     1
  9
$DIMSHO
 70
     1
  9
$DIMPOST
  1

  9
$DIMAPOST
  1

  9
$DIMALT
 70
     0
  9
$DIMALTD
 70
     3
  9
$DIMALTF
 40
0.0393700787
  9
$DIMLFAC
 40
0.5
  9
$DIMTOFL
 70
     1
  9
$DIMTVP
 40
0.0
  9
$DIMTIX
 70
     0
  9
$DIMSOXD
 70
     0
  9
$DIMSAH
 70
     0
  9
$DIMBLK1
  1

  9
$DIMBLK2
  1

  9
$DIMSTYLE
  2
ISO-25
  9
$DIMCLRD
 70
     0
  9
$DIMCLRE
 70
     0
  9
$DIMCLRT
 70
     0
  9
$DIMTFAC
 40
1.0
  9
$DIMGAP
 40
1.524
  9
$DIMJUST
 70
     0
  9
$DIMSD1
 70
     0
  9
$DIMSD2
 70
     0
  9
$DIMTOLJ
 70
     0
  9
$DIMTZIN
 70
     1
  9
$DIMALTZ
 70
     0
  9
$DIMALTTZ
 70
     0
  9
$DIMUPT
 70
     0
  9
$DIMDEC
 70
     2
  9
$DIMTDEC
 70
     2
  9
$DIMALTU
 70
     2
  9
$DIMALTTD
 70
     3
  9
$DIMTXSTY
  7
Standard
  9
$DIMAUNIT
 70
     0
  9
$DIMADEC
 70
     2
  9
$DIMALTRND
 40
0.0
  9
$DIMAZIN
 70
     0
  9
$DIMDSEP
 70
    44
  9
$DIMATFIT
 70
     3
  9
$DIMFRAC
 70
     0
  9
$DIMLDRBLK
  1

  9
$DIMLUNIT
 70
     2
  9
$DIMLWD
 70
    -2
  9
$DIMLWE
 70
    -2
  9
$DIMTMOVE
 70
     0
  9
$LUNITS
 70
     2
  9
$LUPREC
 70
     2
  9
$SKETCHINC
 40
1.0
  9
$FILLETRAD
 40
0.0
  9
$AUNITS
 70
     0
  9
$AUPREC
 70
     2
  9
$MENU
  1
.
  9
$ELEVATION
 40
0.0
  9
$PELEVATION
 40
0.0
  9
$THICKNESS
 40
0.0
  9
$LIMCHECK
 70
     0
  9
$CHAMFERA
 40
0.0
  9
$CHAMFERB
 40
0.0
  9
$CHAMFERC
 40
0.0
  9
$CHAMFERD
 40
0.0
  9
$SKPOLY
 70
     0
  9
$TDCREATE
 40
2461262.740635857
  9
$TDUCREATE
 40
2461262.365635857
  9
$TDUPDATE
 40
2461262.740636632
  9
$TDUUPDATE
 40
2461262.365636632
  9
$TDINDWG
 40
0.0000000116
  9
$TDUSRTIMER
 40
0.0000000116
  9
$USRTIMER
 70
     1
  9
$ANGBASE
 50
0.0
  9
$ANGDIR
 70
     0
  9
$PDMODE
 70
     0
  9
$PDSIZE
 40
-1.0
  9
$PLINEWID
 40
0.0
  9
$SPLFRAME
 70
     0
  9
$SPLINETYPE
 70
     6
  9
$SPLINESEGS
 70
     8
  9
$HANDSEED
  5
D8
  9
$SURFTAB1
 70
     6
  9
$SURFTAB2
 70
     6
  9
$SURFTYPE
 70
     6
  9
$SURFU
 70
     6
  9
$SURFV
 70
     6
  9
$UCSBASE
  2

  9
$UCSNAME
  2

  9
$UCSORG
 10
0.0
 20
0.0
 30
0.0
  9
$UCSXDIR
 10
1.0
 20
0.0
 30
0.0
  9
$UCSYDIR
 10
0.0
 20
1.0
 30
0.0
  9
$UCSORTHOREF
  2

  9
$UCSORTHOVIEW
 70
     0
  9
$UCSORGTOP
 10
0.0
 20
0.0
 30
0.0
  9
$UCSORGBOTTOM
 10
0.0
 20
0.0
 30
0.0
  9
$UCSORGLEFT
 10
0.0
 20
0.0
 30
0.0
  9
$UCSORGRIGHT
 10
0.0
 20
0.0
 30
0.0
  9
$UCSORGFRONT
 10
0.0
 20
0.0
 30
0.0
  9
$UCSORGBACK
 10
0.0
 20
0.0
 30
0.0
  9
$PUCSBASE
  2

  9
$PUCSNAME
  2

  9
$PUCSORG
 10
0.0
 20
0.0
 30
0.0
  9
$PUCSXDIR
 10
1.0
 20
0.0
 30
0.0
  9
$PUCSYDIR
 10
0.0
 20
1.0
 30
0.0
  9
$PUCSORTHOREF
  2

  9
$PUCSORTHOVIEW
 70
     0
  9
$PUCSORGTOP
 10
0.0
 20
0.0
 30
0.0
  9
$PUCSORGBOTTOM
 10
0.0
 20
0.0
 30
0.0
  9
$PUCSORGLEFT
 10
0.0
 20
0.0
 30
0.0
  9
$PUCSORGRIGHT
 10
0.0
 20
0.0
 30
0.0
  9
$PUCSORGFRONT
 10
0.0
 20
0.0
 30
0.0
  9
$PUCSORGBACK
 10
0.0
 20
0.0
 30
0.0
  9
$USERI1
 70
     0
  9
$USERI2
 70
     0
  9
$USERI3
 70
     0
  9
$USERI4
 70
     0
  9
$USERI5
 70
     0
  9
$USERR1
 40
0.0
  9
$USERR2
 40
0.0
  9
$USERR3
 40
0.0
  9
$USERR4
 40
0.0
  9
$USERR5
 40
0.0
  9
$WORLDVIEW
 70
     1
  9
$SHADEDGE
 70
     3
  9
$SHADEDIF
 70
    70
  9
$TILEMODE
 70
     1
  9
$MAXACTVP
 70
    64
  9
$PINSBASE
 10
0.0
 20
0.0
 30
0.0
  9
$PLIMCHECK
 70
     0
  9
$PEXTMIN
 10
1.0000000000E+20
 20
1.0000000000E+20
 30
1.0000000000E+20
  9
$PEXTMAX
 10
-1.0000000000E+20
 20
-1.0000000000E+20
 30
-1.0000000000E+20
  9
$PLIMMIN
 10
0.0
 20
0.0
  9
$PLIMMAX
 10
420.0
 20
297.0
  9
$UNITMODE
 70
     0
  9
$VISRETAIN
 70
     1
  9
$PLINEGEN
 70
     0
  9
$PSLTSCALE
 70
     1
  9
$TREEDEPTH
 70
  3020
  9
$CMLSTYLE
  2
Standard
  9
$CMLJUST
 70
     0
  9
$CMLSCALE
 40
20.0
  9
$PROXYGRAPHICS
 70
     1
  9
$MEASUREMENT
 70
     1
  9
$CELWEIGHT
370
    -1
  9
$ENDCAPS
280
     0
  9
$JOINSTYLE
280
     0
  9
$LWDISPLAY
290
     1
  9
$INSUNITS
 70
     4
  9
$HYPERLINKBASE
  1

  9
$STYLESHEET
  1

  9
$XEDIT
290
     1
  9
$CEPSNTYPE
380
     0
  9
$PSTYLEMODE
290
     1
  9
$FINGERPRINTGUID
  2
{ecb9289f-303d-4eca-9634-7c68bf538df1}
  9
$VERSIONGUID
  2
{FAEB1C32-E019-11D5-929B-00C0DF256EC4}
  9
$EXTNAMES
290
     1
  9
$PSVPSCALE
 40
0.0
  9
$OLESTARTUP
290
     0
  0
ENDSEC
  0
SECTION
  2
CLASSES
  0
CLASS
  1
ACDBDICTIONARYWDFLT
  2
AcDbDictionaryWithDefault
  3
ObjectDBX Classes
 90
        0
280
     0
281
     0
  0
CLASS
  1
VISUALSTYLE
  2
AcDbVisualStyle
  3
ObjectDBX Classes
 90
     4095
280
     0
281
     0
  0
CLASS
  1
MATERIAL
  2
AcDbMaterial
  3
ObjectDBX Classes
 90
     1153
280
     0
281
     0
  0
CLASS
  1
SCALE
  2
AcDbScale
  3
ObjectDBX Classes
 90
     1153
280
     0
281
     0
  0
CLASS
  1
TABLESTYLE
  2
AcDbTableStyle
  3
ObjectDBX Classes
 90
     4095
280
     0
281
     0
  0
CLASS
  1
MLEADERSTYLE
  2
AcDbMLeaderStyle
  3
ACDB_MLEADERSTYLE_CLASS
 90
     4095
280
     0
281
     0
  0
CLASS
  1
SUN
  2
AcDbSun
  3
SCENEOE
 90
     1153
280
     0
281
     0
  0
CLASS
  1
ACDBPLACEHOLDER
  2
AcDbPlaceHolder
  3
ObjectDBX Classes
 90
        0
280
     0
281
     0
  0
CLASS
  1
LAYOUT
  2
AcDbLayout
  3
ObjectDBX Classes
 90
        0
280
     0
281
     0
  0
ENDSEC
  0
SECTION
  2
TABLES
  0
TABLE
  2
VPORT
  5
8
330
0
100
AcDbSymbolTable
 70
     1
  0
VPORT
  5
29
330
8
100
AcDbSymbolTableRecord
100
AcDbViewportTableRecord
  2
*Active
 70
     0
 10
0.0
 20
0.0
 11
1.0
 21
1.0
 12
420.5
 22
297.0
 13
0.0
 23
0.0
 14
10.0
 24
10.0
 15
10.0
 25
10.0
 16
0.0
 26
0.0
 36
1.0
 17
0.0
 27
0.0
 37
0.0
 40
594.0
 41
1.4158249158
 42
50.0
 43
0.0
 44
0.0
 50
0.0
 51
0.0
 71
     0
 72
  2000
 73
     1
 74
     3
 75
     0
 76
     0
 77
     0
 78
     0
281
     0
 65
     1
110
0.0
120
0.0
130
0.0
111
1.0
121
0.0
131
0.0
112
0.0
122
1.0
132
0.0
 79
     0
146
0.0
  0
ENDTAB
  0
TABLE
  2
LTYPE
  5
5
330
0
100
AcDbSymbolTable
 70
     6
  0
LTYPE
  5
14
330
5
100
AcDbSymbolTableRecord
100
AcDbLinetypeTableRecord
  2
ByBlock
 70
     0
  3

 72
    65
 73
     0
 40
0.0
  0
LTYPE
  5
15
330
5
100
AcDbSymbolTableRecord
100
AcDbLinetypeTableRecord
  2
ByLayer
 70
     0
  3

 72
    65
 73
     0
 40
0.0
  0
LTYPE
  5
16
330
5
100
AcDbSymbolTableRecord
100
AcDbLinetypeTableRecord
  2
Continuous
 70
     0
  3
Solid line
 72
    65
 73
     0
 40
0.0
  0
LTYPE
  5
5E
330
5
100
AcDbSymbolTableRecord
100
AcDbLinetypeTableRecord
  2
HIDDEN
 70
     0
  3
Hidden __ __ __ __ __ __ __ __ __ __ __ __ __ __
 72
    65
 73
     2
 40
1.905
 49
1.27
 74
     0
 49
-0.635
 74
     0
  0
LTYPE
  5
5F
330
5
100
AcDbSymbolTableRecord
100
AcDbLinetypeTableRecord
  2
PHANTOM
 70
     0
  3
Phantom ______  __  __  ______  __  __  ______
 72
    65
 73
     6
 40
12.7
 49
6.35
 74
     0
 49
-1.27
 74
     0
 49
1.27
 74
     0
 49
-1.27
 74
     0
 49
1.27
 74
     0
 49
-1.27
 74
     0
  0
LTYPE
  5
60
330
5
100
AcDbSymbolTableRecord
100
AcDbLinetypeTableRecord
  2
CENTER
 70
     0
  3
Center ____ _ ____ _ ____ _ ____ _ ____ _ ____
 72
    65
 73
     4
 40
10.16
 49
6.35
 74
     0
 49
-1.27
 74
     0
 49
1.27
 74
     0
 49
-1.27
 74
     0
  0
LTYPE
  5
61
330
5
100
AcDbSymbolTableRecord
100
AcDbLinetypeTableRecord
  2
CENTERX2
 70
     0
  3
Center (2x) ________  __  ________  __  _____
 72
    65
 73
     4
 40
20.32
 49
12.7
 74
     0
 49
-2.54
 74
     0
 49
2.54
 74
     0
 49
-2.54
 74
     0
  0
LTYPE
  5
62
330
5
100
AcDbSymbolTableRecord
100
AcDbLinetypeTableRecord
  2
DOT2
 70
     0
  3
Dot (.5x) ........................................
 72
    65
 73
     2
 40
0.635
 49
0.0
 74
     0
 49
-0.635
 74
     0
  0
ENDTAB
  0
TABLE
  2
LAYER
  5
2
330
0
100
AcDbSymbolTable
 70
     1
  0
LAYER
  5
10
330
2
100
AcDbSymbolTableRecord
100
AcDbLayerTableRecord
  2
0
 70
     0
 62
     7
  6
Continuous
370
    -3
390
F
  0
ENDTAB
  0
TABLE
  2
STYLE
  5
3
330
0
100
AcDbSymbolTable
 70
     1
  0
STYLE
  5
11
330
3
100
AcDbSymbolTableRecord
100
AcDbTextStyleTableRecord
  2
Standard
 70
     0
 40
0.0
 41
1.0
 50
0.0
 71
     0
 42
3.5
  3
txt
  4
bigfont
  0
ENDTAB
  0
TABLE
  2
VIEW
  5
6
330
0
100
AcDbSymbolTable
 70
     0
  0
ENDTAB
  0
TABLE
  2
UCS
  5
7
330
0
100
AcDbSymbolTable
 70
     0
  0
ENDTAB
  0
TABLE
  2
APPID
  5
9
330
0
100
AcDbSymbolTable
 70
     1
  0
APPID
  5
12
330
9
100
AcDbSymbolTableRecord
100
AcDbRegAppTableRecord
  2
ACAD
 70
     0
  0
ENDTAB
  0
TABLE
  2
DIMSTYLE
  5
A
330
0
100
AcDbSymbolTable
 70
     1
100
AcDbDimStyleTable
  0
DIMSTYLE
105
27
330
A
100
AcDbSymbolTableRecord
100
AcDbDimStyleTableRecord
  2
ISO-25
 70
     0
 41
2.5
 42
0.625
 43
3.75
 44
1.25
 73
     0
 74
     0
 77
     1
 78
     8
140
2.5
141
2.5
143
0.0393700787
147
0.625
171
     3
172
     1
178
     0
271
     2
272
     2
274
     3
278
    44
283
     0
284
     8
340
11
  0
ENDTAB
  0
TABLE
  2
BLOCK_RECORD
  5
1
330
0
100
AcDbSymbolTable
 70
     2
  0
BLOCK_RECORD
  5
1F
330
1
100
AcDbSymbolTableRecord
100
AcDbBlockTableRecord
  2
*Model_Space
340
22
  0
BLOCK_RECORD
  5
1B
330
1
100
AcDbSymbolTableRecord
100
AcDbBlockTableRecord
  2
*Paper_Space
340
1E
  0
BLOCK_RECORD
  5
23
330
1
100
AcDbSymbolTableRecord
100
AcDbBlockTableRecord
  2
*Paper_Space0
340
26
  0
BLOCK_RECORD
  5
A0
330
1
100
AcDbSymbolTableRecord
100
AcDbBlockTableRecord
  2
SW_CENTERMARKSYMBOL_0
340
0
102
{BLKREFS
331
AB
102
}
  0
ENDTAB
  0
ENDSEC
  0
SECTION
  2
BLOCKS
  0
BLOCK
  5
20
330
1F
100
AcDbEntity
  8
0
100
AcDbBlockBegin
  2
*Model_Space
 70
     0
 10
0.0
 20
0.0
 30
0.0
  3
*Model_Space
  1

  0
ENDBLK
  5
21
330
1F
100
AcDbEntity
  8
0
100
AcDbBlockEnd
  0
BLOCK
  5
1C
330
1B
100
AcDbEntity
 67
     1
  8
0
100
AcDbBlockBegin
  2
*Paper_Space
 70
     0
 10
0.0
 20
0.0
 30
0.0
  3
*Paper_Space
  1

  0
ENDBLK
  5
1D
330
1B
100
AcDbEntity
 67
     1
  8
0
100
AcDbBlockEnd
  0
BLOCK
  5
24
330
23
100
AcDbEntity
  8
0
100
AcDbBlockBegin
  2
*Paper_Space0
 70
     0
 10
0.0
 20
0.0
 30
0.0
  3
*Paper_Space0
  1

  0
ENDBLK
  5
25
330
23
100
AcDbEntity
  8
0
100
AcDbBlockEnd
  0
BLOCK
  5
A1
330
A0
100
AcDbEntity
  8
0
100
AcDbBlockBegin
  2
SW_CENTERMARKSYMBOL_0
 70
     0
 10
0.0
 20
0.0
 30
0.0
  3
SW_CENTERMARKSYMBOL_0
  1

  0
LINE
  5
A3
330
A0
100
AcDbEntity
  8
0
  6
Continuous
 62
     0
370
    18
100
AcDbLine
 10
0.0
 20
0.0
 30
0.0
 11
0.0
 21
2.5
 31
0.0
  0
LINE
  5
A4
330
A0
100
AcDbEntity
  8
0
  6
Continuous
 62
     0
370
    18
100
AcDbLine
 10
0.0
 20
0.0
 30
0.0
 11
-2.5
 21
0.0
 31
0.0
  0
LINE
  5
A5
330
A0
100
AcDbEntity
  8
0
  6
Continuous
 62
     0
370
    18
100
AcDbLine
 10
0.0
 20
0.0
 30
0.0
 11
0.0
 21
-2.5
 31
0.0
  0
LINE
  5
A6
330
A0
100
AcDbEntity
  8
0
  6
Continuous
 62
     0
370
    18
100
AcDbLine
 10
0.0
 20
0.0
 30
0.0
 11
2.5
 21
0.0
 31
0.0
  0
LINE
  5
A7
330
A0
100
AcDbEntity
  8
0
  6
Continuous
 62
     0
370
    18
100
AcDbLine
 10
0.0
 20
5.0
 30
0.0
 11
0.0
 21
17.5
 31
0.0
  0
LINE
  5
A8
330
A0
100
AcDbEntity
  8
0
  6
Continuous
 62
     0
370
    18
100
AcDbLine
 10
-5.0
 20
0.0
 30
0.0
 11
-17.5
 21
0.0
 31
0.0
  0
LINE
  5
A9
330
A0
100
AcDbEntity
  8
0
  6
Continuous
 62
     0
370
    18
100
AcDbLine
 10
0.0
 20
-5.0
 30
0.0
 11
0.0
 21
-17.5
 31
0.0
  0
LINE
  5
AA
330
A0
100
AcDbEntity
  8
0
  6
Continuous
 62
     0
370
    18
100
AcDbLine
 10
5.0
 20
0.0
 30
0.0
 11
17.5
 21
0.0
 31
0.0
  0
ENDBLK
  5
A2
330
A0
100
AcDbEntity
  8
0
100
AcDbBlockEnd
  0
ENDSEC
  0
SECTION
  2
ENTITIES
  0
LINE
  5
63
330
1F
100
AcDbEntity
  8
0
  6
Continuous
 62
     7
370
    25
100
AcDbLine
 10
316.4362338159
 20
215.8288688025
 30
0.0
 11
339.4362338159
 21
215.8288688025
 31
0.0
  0
LINE
  5
64
330
1F
100
AcDbEntity
  8
0
  6
Continuous
 62
     7
370
    25
100
AcDbLine
 10
339.4362338159
 20
245.8288688025
 30
0.0
 11
316.4362338159
 21
245.8288688025
 31
0.0
  0
LINE
  5
65
330
1F
100
AcDbEntity
  8
0
  6
Continuous
 62
     7
370
    25
100
AcDbLine
 10
339.4362338159
 20
218.3288688025
 30
0.0
 11
388.4362338159
 21
218.3288688025
 31
0.0
  0
LINE
  5
66
330
1F
100
AcDbEntity
  8
0
  6
Continuous
 62
     7
370
    25
100
AcDbLine
 10
388.4362338159
 20
243.3288688025
 30
0.0
 11
339.4362338159
 21
243.3288688025
 31
0.0
  0
LINE
  5
67
330
1F
100
AcDbEntity
  8
0
  6
Continuous
 62
     7
370
    25
100
AcDbLine
 10
311.4362338159
 20
218.3288688025
 30
0.0
 11
316.4362338159
 21
218.3288688025
 31
0.0
  0
LINE
  5
68
330
1F
100
AcDbEntity
  8
0
  6
Continuous
 62
     7
370
    25
100
AcDbLine
 10
316.4362338159
 20
243.3288688025
 30
0.0
 11
311.4362338159
 21
243.3288688025
 31
0.0
  0
LINE
  5
69
330
1F
100
AcDbEntity
  8
0
  6
Continuous
 62
     7
370
    25
100
AcDbLine
 10
389.4362338159
 20
242.3288688025
 30
0.0
 11
388.4362338159
 21
243.3288688025
 31
0.0
  0
LINE
  5
6A
330
1F
100
AcDbEntity
  8
0
  6
Continuous
 62
     7
370
    25
100
AcDbLine
 10
388.4362338159
 20
218.3288688025
 30
0.0
 11
389.4362338159
 21
219.3288688025
 31
0.0
  0
LINE
  5
6B
330
1F
100
AcDbEntity
  8
0
  6
Continuous
 62
     7
370
    25
100
AcDbLine
 10
339.4362338159
 20
230.8288688025
 30
0.0
 11
339.4362338159
 21
245.8288688025
 31
0.0
  0
LINE
  5
6C
330
1F
100
AcDbEntity
  8
0
  6
Continuous
 62
     7
370
    25
100
AcDbLine
 10
339.4362338159
 20
215.8288688025
 30
0.0
 11
339.4362338159
 21
230.8288688025
 31
0.0
  0
LINE
  5
6D
330
1F
100
AcDbEntity
  8
0
  6
Continuous
 62
     7
370
    25
100
AcDbLine
 10
316.4362338159
 20
230.8288688025
 30
0.0
 11
316.4362338159
 21
245.8288688025
 31
0.0
  0
LINE
  5
6E
330
1F
100
AcDbEntity
  8
0
  6
Continuous
 62
     7
370
    25
100
AcDbLine
 10
316.4362338159
 20
215.8288688025
 30
0.0
 11
316.4362338159
 21
230.8288688025
 31
0.0
  0
LINE
  5
6F
330
1F
100
AcDbEntity
  8
0
  6
Continuous
 62
     7
370
    25
100
AcDbLine
 10
379.4362338159
 20
238.9529072071
 30
0.0
 11
388.4362338159
 21
238.9529072071
 31
0.0
  0
LINE
  5
70
330
1F
100
AcDbEntity
  8
0
  6
Continuous
 62
     7
370
    25
100
AcDbLine
 10
379.4362338159
 20
238.9529072071
 30
0.0
 11
379.4362338159
 21
222.7048303979
 31
0.0
  0
LINE
  5
71
330
1F
100
AcDbEntity
  8
0
  6
Continuous
 62
     7
370
    25
100
AcDbLine
 10
388.4362338159
 20
222.7048303979
 30
0.0
 11
379.4362338159
 21
222.7048303979
 31
0.0
  0
LINE
  5
72
330
1F
100
AcDbEntity
  8
0
  6
Continuous
 62
     7
370
    25
100
AcDbLine
 10
388.4362338159
 20
218.3288688025
 30
0.0
 11
388.4362338159
 21
222.7048303979
 31
0.0
  0
LINE
  5
73
330
1F
100
AcDbEntity
  8
0
  6
Continuous
 62
     7
370
    25
100
AcDbLine
 10
388.4362338159
 20
238.9529072071
 30
0.0
 11
388.4362338159
 21
243.3288688025
 31
0.0
  0
LINE
  5
74
330
1F
100
AcDbEntity
  8
0
  6
Continuous
 62
     7
370
    25
100
AcDbLine
 10
311.4362338159
 20
230.8288688025
 30
0.0
 11
311.4362338159
 21
243.3288688025
 31
0.0
  0
LINE
  5
75
330
1F
100
AcDbEntity
  8
0
  6
Continuous
 62
     7
370
    25
100
AcDbLine
 10
311.4362338159
 20
218.3288688025
 30
0.0
 11
311.4362338159
 21
230.8288688025
 31
0.0
  0
SPLINE
  5
76
330
1F
100
AcDbEntity
  8
0
  6
Continuous
 62
     7
370
    25
100
AcDbSpline
210
0.0
220
0.0
230
1.0
 70
     8
 71
     3
 72
     8
 73
     4
 74
     0
 42
0.00000001
 43
0.00000001
 40
0.0
 40
0.0
 40
0.0
 40
0.0
 40
1.0
 40
1.0
 40
1.0
 40
1.0
 10
388.4362338159265
 20
238.9529072071366
 30
0.0
 10
388.7867103367088
 20
238.4136487384324
 30
0.0
 10
389.1221585918325
 20
237.8669323819132
 30
0.0
 10
389.4362338159265
 20
237.3096095009085
 30
0.0
  0
LINE
  5
77
330
1F
100
AcDbEntity
  8
0
  6
Continuous
 62
     7
370
    25
100
AcDbLine
 10
389.4362338159
 20
237.3096095009
 30
0.0
 11
389.4362338159
 21
242.3288688025
 31
0.0
  0
SPLINE
  5
78
330
1F
100
AcDbEntity
  8
0
  6
Continuous
 62
     7
370
    25
100
AcDbSpline
210
0.0
220
0.0
230
1.0
 70
     8
 71
     3
 72
     8
 73
     4
 74
     0
 42
0.00000001
 43
0.00000001
 40
0.0
 40
0.0
 40
0.0
 40
0.0
 40
1.0
 40
1.0
 40
1.0
 40
1.0
 10
389.4362338159265
 20
224.3481281040928
 30
0.0
 10
389.1219123338253
 20
223.7903682410802
 30
0.0
 10
388.7864660778217
 20
223.2437130391865
 30
0.0
 10
388.4362338159265
 20
222.7048303978646
 30
0.0
  0
LINE
  5
79
330
1F
100
AcDbEntity
  8
0
  6
Continuous
 62
     7
370
    25
100
AcDbLine
 10
389.4362338159
 20
219.3288688025
 30
0.0
 11
389.4362338159
 21
224.3481281041
 31
0.0
  0
LINE
  5
7A
330
1F
100
AcDbEntity
  8
0
  6
Continuous
 62
     7
370
    25
100
AcDbLine
 10
389.4362338159
 20
237.3096095009
 30
0.0
 11
389.4362338159
 21
224.3481281041
 31
0.0
  0
LINE
  5
7B
330
1F
100
AcDbEntity
  8
0
  6
HIDDEN
 62
     7
370
    18
100
AcDbLine
 10
369.4362338159
 20
235.0788688025
 30
0.0
 11
369.4362338159
 21
226.5788688025
 31
0.0
  0
LINE
  5
7C
330
1F
100
AcDbEntity
  8
0
  6
HIDDEN
 62
     7
370
    18
100
AcDbLine
 10
389.4362338159
 20
235.0788688025
 30
0.0
 11
369.4362338159
 21
235.0788688025
 31
0.0
  0
LINE
  5
7D
330
1F
100
AcDbEntity
  8
0
  6
HIDDEN
 62
     7
370
    18
100
AcDbLine
 10
369.4362338159
 20
226.5788688025
 30
0.0
 11
389.4362338159
 21
226.5788688025
 31
0.0
  0
LINE
  5
7E
330
1F
100
AcDbEntity
  8
0
  6
Continuous
 62
     7
370
    25
100
AcDbLine
 10
316.4362338159
 20
328.88
 30
0.0
 11
339.4362338159
 21
328.88
 31
0.0
  0
LINE
  5
7F
330
1F
100
AcDbEntity
  8
0
  6
Continuous
 62
     7
370
    25
100
AcDbLine
 10
339.4362338159
 20
358.88
 30
0.0
 11
316.4362338159
 21
358.88
 31
0.0
  0
LINE
  5
80
330
1F
100
AcDbEntity
  8
0
  6
Continuous
 62
     7
370
    25
100
AcDbLine
 10
339.4362338159
 20
331.38
 30
0.0
 11
379.4362338159
 21
331.38
 31
0.0
  0
LINE
  5
81
330
1F
100
AcDbEntity
  8
0
  6
Continuous
 62
     7
370
    25
100
AcDbLine
 10
379.4362338159
 20
356.38
 30
0.0
 11
339.4362338159
 21
356.38
 31
0.0
  0
LINE
  5
82
330
1F
100
AcDbEntity
  8
0
  6
Continuous
 62
     7
370
    25
100
AcDbLine
 10
311.4362338159
 20
331.38
 30
0.0
 11
316.4362338159
 21
331.38
 31
0.0
  0
LINE
  5
83
330
1F
100
AcDbEntity
  8
0
  6
Continuous
 62
     7
370
    25
100
AcDbLine
 10
316.4362338159
 20
356.38
 30
0.0
 11
311.4362338159
 21
356.38
 31
0.0
  0
LINE
  5
84
330
1F
100
AcDbEntity
  8
0
  6
Continuous
 62
     7
370
    25
100
AcDbLine
 10
339.4362338159
 20
328.88
 30
0.0
 11
339.4362338159
 21
358.88
 31
0.0
  0
LINE
  5
85
330
1F
100
AcDbEntity
  8
0
  6
Continuous
 62
     7
370
    25
100
AcDbLine
 10
316.4362338159
 20
328.88
 30
0.0
 11
316.4362338159
 21
358.88
 31
0.0
  0
LINE
  5
86
330
1F
100
AcDbEntity
  8
0
  6
Continuous
 62
     7
370
    25
100
AcDbLine
 10
379.4362338159
 20
334.38
 30
0.0
 11
388.4362338159
 21
334.38
 31
0.0
  0
LINE
  5
87
330
1F
100
AcDbEntity
  8
0
  6
Continuous
 62
     7
370
    25
100
AcDbLine
 10
379.4362338159
 20
334.38
 30
0.0
 11
379.4362338159
 21
331.38
 31
0.0
  0
LINE
  5
88
330
1F
100
AcDbEntity
  8
0
  6
Continuous
 62
     7
370
    25
100
AcDbLine
 10
379.4362338159
 20
356.38
 30
0.0
 11
379.4362338159
 21
353.38
 31
0.0
  0
LINE
  5
89
330
1F
100
AcDbEntity
  8
0
  6
Continuous
 62
     7
370
    25
100
AcDbLine
 10
388.4362338159
 20
353.38
 30
0.0
 11
379.4362338159
 21
353.38
 31
0.0
  0
LINE
  5
8A
330
1F
100
AcDbEntity
  8
0
  6
Continuous
 62
     7
370
    25
100
AcDbLine
 10
388.4362338159
 20
334.38
 30
0.0
 11
388.4362338159
 21
353.38
 31
0.0
  0
LINE
  5
8B
330
1F
100
AcDbEntity
  8
0
  6
Continuous
 62
     7
370
    25
100
AcDbLine
 10
311.4362338159
 20
331.38
 30
0.0
 11
311.4362338159
 21
356.38
 31
0.0
  0
SPLINE
  5
8C
330
1F
100
AcDbEntity
  8
0
  6
Continuous
 62
     7
370
    25
100
AcDbSpline
210
0.0
220
0.0
230
1.0
 70
    24
 71
     3
 72
     8
 73
     4
 74
     0
 42
0.00000001
 43
0.00000001
 40
0.0
 40
0.0
 40
0.0
 40
0.0
 40
1.0
 40
1.0
 40
1.0
 40
1.0
 10
388.4362338159265
 20
334.3800000000001
 30
0.0
 10
388.7867103367088
 20
334.3800000000001
 30
0.0
 10
389.1221585918325
 20
334.3800000000001
 30
0.0
 10
389.4362338159265
 20
334.3800000000001
 30
0.0
  0
SPLINE
  5
8D
330
1F
100
AcDbEntity
  8
0
  6
Continuous
 62
     7
370
    25
100
AcDbSpline
210
0.0
220
0.0
230
1.0
 70
    24
 71
     3
 72
     8
 73
     4
 74
     0
 42
0.00000001
 43
0.00000001
 40
0.0
 40
0.0
 40
0.0
 40
0.0
 40
1.0
 40
1.0
 40
1.0
 40
1.0
 10
389.4362338159265
 20
353.3800000000001
 30
0.0
 10
389.1219123338253
 20
353.3800000000001
 30
0.0
 10
388.7864660778217
 20
353.3800000000001
 30
0.0
 10
388.4362338159265
 20
353.3800000000001
 30
0.0
  0
LINE
  5
8E
330
1F
100
AcDbEntity
  8
0
  6
Continuous
 62
     7
370
    25
100
AcDbLine
 10
389.4362338159
 20
334.38
 30
0.0
 11
389.4362338159
 21
353.38
 31
0.0
  0
LINE
  5
8F
330
1F
100
AcDbEntity
  8
0
  6
HIDDEN
 62
     7
370
    18
100
AcDbLine
 10
369.4362338159
 20
348.13
 30
0.0
 11
369.4362338159
 21
339.63
 31
0.0
  0
LINE
  5
90
330
1F
100
AcDbEntity
  8
0
  6
HIDDEN
 62
     7
370
    18
100
AcDbLine
 10
389.4362338159
 20
348.13
 30
0.0
 11
369.4362338159
 21
348.13
 31
0.0
  0
LINE
  5
91
330
1F
100
AcDbEntity
  8
0
  6
HIDDEN
 62
     7
370
    18
100
AcDbLine
 10
369.4362338159
 20
339.63
 30
0.0
 11
389.4362338159
 21
339.63
 31
0.0
  0
SPLINE
  5
92
330
1F
100
AcDbEntity
  8
0
  6
Continuous
 62
     7
370
    25
100
AcDbSpline
210
0.0
220
0.0
230
1.0
 70
    24
 71
     3
 72
     8
 73
     4
 74
     0
 42
0.00000001
 43
0.00000001
 40
0.0
 40
0.0
 40
0.0
 40
0.0
 40
1.0
 40
1.0
 40
1.0
 40
1.0
 10
481.8799999999999
 20
224.3481281040928
 30
0.0
 10
481.8799999999999
 20
223.7903682410802
 30
0.0
 10
481.8799999999999
 20
223.2437130391865
 30
0.0
 10
481.8799999999999
 20
222.7048303978646
 30
0.0
  0
ARC
  5
93
330
1F
100
AcDbEntity
  8
0
  6
Continuous
 62
     7
370
    25
100
AcDbCircle
 10
491.38
 20
230.8288688025
 30
0.0
 40
11.5
100
AcDbArc
 50
214.3011527568
 51
325.6988472432
  0
SPLINE
  5
94
330
1F
100
AcDbEntity
  8
0
  6
Continuous
 62
     7
370
    25
100
AcDbSpline
210
0.0
220
0.0
230
1.0
 70
    24
 71
     3
 72
     8
 73
     4
 74
     0
 42
0.00000001
 43
0.00000001
 40
0.0
 40
0.0
 40
0.0
 40
0.0
 40
1.0
 40
1.0
 40
1.0
 40
1.0
 10
500.8799999999999
 20
222.7048303978646
 30
0.0
 10
500.8799999999999
 20
223.2440888665689
 30
0.0
 10
500.8799999999999
 20
223.790805223088
 30
0.0
 10
500.8799999999999
 20
224.3481281040928
 30
0.0
  0
ARC
  5
95
330
1F
100
AcDbEntity
  8
0
  6
Continuous
 62
     7
370
    25
100
AcDbCircle
 10
491.38
 20
230.8288688025
 30
0.0
 40
12.50000000000001
100
AcDbArc
 50
220.5358021113
 51
319.4641978887
  0
LINE
  5
96
330
1F
100
AcDbEntity
  8
0
  6
Continuous
 62
     7
370
    25
100
AcDbLine
 10
481.88
 20
237.3096095009
 30
0.0
 11
481.88
 21
224.3481281041
 31
0.0
  0
ARC
  5
97
330
1F
100
AcDbEntity
  8
0
  6
Continuous
 62
     7
370
    25
100
AcDbCircle
 10
491.38
 20
230.8288688025
 30
0.0
 40
11.50000000000001
100
AcDbArc
 50
34.3011527568
 51
145.6988472432
  0
LINE
  5
98
330
1F
100
AcDbEntity
  8
0
  6
Continuous
 62
     7
370
    25
100
AcDbLine
 10
500.88
 20
224.3481281041
 30
0.0
 11
500.88
 21
237.3096095009
 31
0.0
  0
CIRCLE
  5
99
330
1F
100
AcDbEntity
  8
0
  6
Continuous
 62
     7
370
    25
100
AcDbCircle
 10
491.38
 20
230.8288688025
 30
0.0
 40
4.249999999999943
  0
SPLINE
  5
9A
330
1F
100
AcDbEntity
  8
0
  6
Continuous
 62
     7
370
    25
100
AcDbSpline
210
0.0
220
0.0
230
1.0
 70
    24
 71
     3
 72
     8
 73
     4
 74
     0
 42
0.00000001
 43
0.00000001
 40
0.0
 40
0.0
 40
0.0
 40
0.0
 40
1.0
 40
1.0
 40
1.0
 40
1.0
 10
481.8799999999999
 20
238.9529072071366
 30
0.0
 10
481.8799999999999
 20
238.4136487384324
 30
0.0
 10
481.8799999999999
 20
237.8669323819132
 30
0.0
 10
481.8799999999999
 20
237.3096095009085
 30
0.0
  0
ARC
  5
9B
330
1F
100
AcDbEntity
  8
0
  6
Continuous
 62
     7
370
    25
100
AcDbCircle
 10
491.38
 20
230.8288688025
 30
0.0
 40
12.50000000000001
100
AcDbArc
 50
40.5358021113
 51
139.4641978887
  0
SPLINE
  5
9C
330
1F
100
AcDbEntity
  8
0
  6
Continuous
 62
     7
370
    25
100
AcDbSpline
210
0.0
220
0.0
230
1.0
 70
    24
 71
     3
 72
     8
 73
     4
 74
     0
 42
0.00000001
 43
0.00000001
 40
0.0
 40
0.0
 40
0.0
 40
0.0
 40
1.0
 40
1.0
 40
1.0
 40
1.0
 10
500.8799999999999
 20
237.3096095009085
 30
0.0
 10
500.8799999999999
 20
237.867369363921
 30
0.0
 10
500.8799999999999
 20
238.4140245658148
 30
0.0
 10
500.8799999999999
 20
238.9529072071366
 30
0.0
  0
ARC
  5
9D
330
1F
100
AcDbEntity
  8
0
  6
Continuous
 62
     7
370
    25
100
AcDbCircle
 10
491.38
 20
230.8288688025
 30
0.0
 40
12.50000000000001
100
AcDbArc
 50
319.4641978887
 51
40.5358021113
  0
ARC
  5
9E
330
1F
100
AcDbEntity
  8
0
  6
Continuous
 62
     7
370
    25
100
AcDbCircle
 10
491.38
 20
230.8288688025
 30
0.0
 40
12.50000000000001
100
AcDbArc
 50
139.4641978887
 51
220.5358021113
  0
CIRCLE
  5
9F
330
1F
100
AcDbEntity
  8
0
  6
Continuous
 62
     7
370
    25
100
AcDbCircle
 10
491.38
 20
230.8288688025
 30
0.0
 40
15.0
  0
INSERT
  5
AB
330
1F
100
AcDbEntity
  8
0
  6
Continuous
 62
     7
370
    18
100
AcDbBlockReference
  2
SW_CENTERMARKSYMBOL_0
 10
491.38
 20
230.8288688025
 30
0.0
  0
LINE
  5
AC
330
1F
100
AcDbEntity
  8
0
  6
Continuous
 62
     7
370
    25
100
AcDbLine
 10
477.352333328
 20
337.5446338353
 30
0.0
 11
512.0005656061
 21
317.5426350956
 31
0.0
  0
LINE
  5
AD
330
1F
100
AcDbEntity
  8
0
  6
Continuous
 62
     7
370
    25
100
AcDbLine
 10
524.4995497641
 20
339.1938566551
 30
0.0
 11
489.8513174859
 21
359.1958553948
 31
0.0
  0
LINE
  5
AE
330
1F
100
AcDbEntity
  8
0
  6
Continuous
 62
     7
370
    25
100
AcDbLine
 10
518.2514942443
 20
318.1623151696
 30
0.0
 11
518.9584861008
 21
318.5705855701
 31
0.0
  0
LINE
  5
AF
330
1F
100
AcDbEntity
  8
0
  6
Continuous
 62
     7
370
    25
100
AcDbLine
 10
459.8389789449
 20
344.7682049653
 30
0.0
 11
476.1024349122
 21
335.3795116793
 31
0.0
  0
LINE
  5
B0
330
1F
100
AcDbEntity
  8
0
  6
Continuous
 62
     7
370
    25
100
AcDbLine
 10
491.1012159017
 20
361.3609775507
 30
0.0
 11
474.8377599344
 21
370.7496708367
 31
0.0
  0
LWPOLYLINE
  5
B1
330
1F
100
AcDbEntity
  8
0
  6
Continuous
 62
     7
370
    25
100
AcDbPolyline
 90
       35
 70
   128
 43
0.0
 10
474.7629906421
 20
343.2676939161
 10
474.7845215994
 20
343.9921110695
 10
474.8490095745
 20
344.7378580494
 10
474.9561403884
 20
345.5013016515
 10
475.1053921108
 20
346.2787224554
 10
475.2960376021
 20
347.066332945
 10
475.5271480567
 20
347.8602959612
 10
475.7975975277
 20
348.6567433959
 10
476.1060684124
 20
349.4517950374
 10
476.4510578717
 20
350.241577474
 10
476.8308851517
 20
351.022242965
 10
477.243699772
 20
351.7899881865
 10
477.6874905413
 20
352.5410727612
 10
478.1600953555
 20
353.2718374804
 10
478.6592117315
 20
353.9787221318
 10
479.1824080245
 20
354.6582828446
 10
479.7271352748
 20
355.3072088671
 10
480.2907396259
 20
355.9223386972
 10
480.8704752541
 20
356.500675484
 10
481.4635177457
 20
357.0394016288
 10
482.0669778573
 20
357.5358925122
 10
482.6779155919
 20
357.9877292803
 10
483.2933545222
 20
358.3927106298
 10
483.9102962917
 20
358.7488635324
 10
484.525735222
 20
359.0544528469
 10
485.1366729566
 20
359.3079897728
 10
485.7401330681
 20
359.5082391038
 10
486.3331755598
 20
359.6542252452
 10
486.912911188
 20
359.7452369673
 10
487.4765155391
 20
359.78083087
 10
488.0212427894
 20
359.7608335435
 10
488.5444390824
 20
359.6853424127
 10
489.0435554584
 20
359.5547252628
 10
489.5161602726
 20
359.3696184475
 10
489.8513174859
 20
359.1958553948
  0
ARC
  5
B2
330
1F
100
AcDbEntity
  8
0
  6
Continuous
 62
     7
370
    25
100
AcDbCircle
 10
480.9486574589
 20
342.6190470497
 30
0.0
 40
6.219583324114786
100
AcDbArc
 50
174.0136776181
 51
234.6741419885
  0
LINE
  5
B3
330
1F
100
AcDbEntity
  8
0
  6
Continuous
 62
     7
370
    25
100
AcDbLine
 10
505.1685822331
 20
334.7977527621
 30
0.0
 11
511.5325432638
 21
331.1239162589
 31
0.0
  0
LWPOLYLINE
  5
B4
330
1F
100
AcDbEntity
  8
0
  6
Continuous
 62
     7
370
    25
100
AcDbPolyline
 90
       21
 70
   128
 43
0.0
 10
505.1685822331
 20
334.7977527621
 10
504.7793076878
 20
334.0080878291
 10
504.4255900956
 20
333.2085865039
 10
504.1091991898
 20
332.4032488815
 10
503.8317179493
 20
331.5961042573
 10
503.5945346785
 20
330.7911909675
 10
503.3988360618
 20
329.9925361846
 10
503.2456012257
 20
329.2041357681
 10
503.1355968406
 20
328.4299342726
 10
503.0693732845
 20
327.673805212
 10
503.0472618896
 20
326.9395316797
 10
503.0693732845
 20
326.2307874205
 10
503.1355968406
 20
325.5511184503
 10
503.2456012257
 20
324.9039253144
 10
503.3988360618
 20
324.2924460738
 10
503.5945346785
 20
323.7197401043
 10
503.8317179493
 20
323.18867279
 10
504.1091991898
 20
322.7019011868
 10
504.4255900956
 20
322.2618607286
 10
504.7793076878
 20
321.8707530423
 10
505.1685822331
 20
321.5305349327
  0
LINE
  5
B5
330
1F
100
AcDbEntity
  8
0
  6
Continuous
 62
     7
370
    25
100
AcDbLine
 10
511.5325432638
 20
317.8566984295
 30
0.0
 11
505.1685822331
 21
321.5305349327
 31
0.0
  0
ARC
  5
B6
330
1F
100
AcDbEntity
  8
0
  6
Continuous
 62
     7
370
    25
100
AcDbCircle
 10
514.6626632732
 20
323.051862244
 30
0.0
 40
6.065259955846861
100
AcDbArc
 50
238.9307629195
 51
306.2779335535
  0
LWPOLYLINE
  5
B7
330
1F
100
AcDbEntity
  8
0
  6
Continuous
 62
     7
370
    25
100
AcDbPolyline
 90
       25
 70
   128
 43
0.0
 10
511.5325432638
 20
331.1239162589
 10
511.9628431661
 20
331.9127521341
 10
512.4256701528
 20
332.6832504046
 10
512.9186297755
 20
333.4314248754
 10
513.4391716933
 20
334.1534048446
 10
513.9846028676
 20
334.8454551279
 10
514.5521014948
 20
335.5039953836
 10
515.1387316043
 20
336.1256186345
 10
515.7414582484
 20
336.7071088952
 10
516.3571632037
 20
337.2454578089
 10
516.9826611029
 20
337.7378802122
 10
517.6147159145
 20
338.1818285437
 10
518.2500576851
 20
338.5750060239
 10
518.8853994556
 20
338.9153785379
 10
519.5174542673
 20
339.2011851588
 10
520.1429521665
 20
339.4309472576
 10
520.7586571217
 20
339.6034761538
 10
521.3613837659
 20
339.717879264
 10
521.9480138754
 20
339.7735647206
 10
522.5155125025
 20
339.7702444331
 10
523.0609436769
 20
339.7079355792
 10
523.5814855947
 20
339.5869605156
 10
524.0744452173
 20
339.4079451102
 10
524.5372722041
 20
339.1718155043
 10
524.9675721064
 20
338.8797933212
  0
SPLINE
  5
B8
330
1F
100
AcDbEntity
  8
0
  6
Continuous
 62
     7
370
    25
100
AcDbSpline
210
0.0
220
0.0
230
1.0
 70
     8
 71
     3
 72
     8
 73
     4
 74
     0
 42
0.00000001
 43
0.00000001
 40
0.0
 40
0.0
 40
0.0
 40
0.0
 40
1.0
 40
1.0
 40
1.0
 40
1.0
 10
511.5325432638165
 20
331.1239162589232
 30
0.0
 10
511.7803675883084
 20
330.5405237737861
 30
0.0
 10
512.0175653242435
 20
329.9571762178729
 30
0.0
 10
512.239650045003
 20
329.3738925597983
 30
0.0
  0
SPLINE
  5
B9
330
1F
100
AcDbEntity
  8
0
  6
Continuous
 62
     7
370
    25
100
AcDbSpline
210
0.0
220
0.0
230
1.0
 70
     8
 71
     3
 72
     8
 73
     4
 74
     0
 42
0.00000001
 43
0.00000001
 40
0.0
 40
0.0
 40
0.0
 40
0.0
 40
1.0
 40
1.0
 40
1.0
 40
1.0
 10
525.6746788875475
 20
337.1297696221141
 30
0.0
 10
525.4524200360812
 20
337.7135106173494
 30
0.0
 10
525.2152237137373
 20
338.2968074219662
 30
0.0
 10
524.9675721063609
 20
338.8797933212389
 30
0.0
  0
LWPOLYLINE
  5
BA
330
1F
100
AcDbEntity
  8
0
  6
Continuous
 62
     7
370
    25
100
AcDbPolyline
 90
       27
 70
   128
 43
0.0
 10
512.239650045
 20
329.3738925598
 10
512.6007847668
 20
330.1471137704
 10
512.9974472537
 20
330.9081107618
 10
513.4274204369
 20
331.6526300873
 10
513.8883010637
 20
332.3765103989
 10
514.3775131302
 20
333.0757057066
 10
514.8923222794
 20
333.7463079922
 10
515.4298510844
 20
334.3845690528
 10
515.9870951309
 20
334.9869214508
 10
516.5609398103
 20
335.5499984529
 10
517.1481777278
 20
336.0706528482
 10
517.7455266297
 20
336.5459745388
 10
518.3496477489
 20
336.9733068054
 10
518.9571644663
 20
337.3502611561
 10
519.5646811836
 20
337.674730677
 10
520.1688023028
 20
337.9449018079
 10
520.7661512047
 20
338.1592644791
 10
521.3533891222
 20
338.3166205514
 10
521.9272338016
 20
338.4160905135
 10
522.4844778482
 20
338.4571183969
 10
523.0220066531
 20
338.4394748843
 10
523.5368158024
 20
338.3632585905
 10
524.0260278689
 20
338.2288955121
 10
524.4869084956
 20
338.0371366455
 10
524.9168816788
 20
337.7890537904
 10
525.3135441657
 20
337.4860335581
 10
525.6746788875
 20
337.1297696221
  0
LINE
  5
BB
330
1F
100
AcDbEntity
  8
0
  6
Continuous
 62
     7
370
    25
100
AcDbLine
 10
512.239650045
 20
329.3738925598
 30
0.0
 11
512.239650045
 21
318.7903140168
 31
0.0
  0
LINE
  5
BC
330
1F
100
AcDbEntity
  8
0
  6
Continuous
 62
     7
370
    25
100
AcDbLine
 10
525.6746788875
 20
326.5461910791
 30
0.0
 11
525.6746788875
 21
337.1297696221
 31
0.0
  0
LWPOLYLINE
  5
BD
330
1F
100
AcDbEntity
  8
0
  6
Continuous
 62
     7
370
    25
100
AcDbPolyline
 90
       27
 70
   128
 43
0.0
 10
525.6746788875
 20
326.5461910791
 10
525.3135441657
 20
325.7729698685
 10
524.9168816788
 20
325.0119728771
 10
524.4869084956
 20
324.2674535516
 10
524.0260278689
 20
323.54357324
 10
523.5368158024
 20
322.8443779323
 10
523.0220066531
 20
322.1737756467
 10
522.4844778482
 20
321.5355145861
 10
521.9272338016
 20
320.9331621881
 10
521.3533891222
 20
320.370085186
 10
520.7661512047
 20
319.8494307907
 10
520.1688023028
 20
319.3741091001
 10
519.5646811836
 20
318.9467768335
 10
518.9571644663
 20
318.5698224828
 10
518.3496477489
 20
318.2453529619
 10
517.7455266297
 20
317.975181831
 10
517.1481777278
 20
317.7608191599
 10
516.5609398103
 20
317.6034630875
 10
515.9870951309
 20
317.5039931254
 10
515.4298510844
 20
317.462965242
 10
514.8923222794
 20
317.4806087547
 10
514.3775131302
 20
317.5568250484
 10
513.8883010637
 20
317.6911881269
 10
513.4274204369
 20
317.8829469934
 10
512.9974472537
 20
318.1310298485
 10
512.6007847668
 20
318.4340500808
 10
512.239650045
 20
318.7903140168
  0
LWPOLYLINE
  5
BE
330
1F
100
AcDbEntity
  8
0
  6
Continuous
 62
     7
370
    25
100
AcDbPolyline
 90
       53
 70
   128
 43
0.0
 10
521.9623682863
 20
329.6949090571
 10
521.9404569669
 20
330.1005581763
 10
521.875042525
 20
330.4749937471
 10
521.7670788506
 20
330.8127556556
 10
521.618140297
 20
331.1089185726
 10
521.4303987239
 20
331.3591637759
 10
521.206591826
 20
331.5598421269
 10
520.949983212
 20
331.7080272833
 10
520.6643148132
 20
331.801558372
 10
520.3537523182
 20
331.839071499
 10
520.0228244274
 20
331.8200196385
 10
519.6763568148
 20
331.7446806094
 10
519.3194017582
 20
331.6141530246
 10
518.9571644663
 20
331.43034027
 10
518.5949271743
 20
331.1959227495
 10
518.2379721178
 20
330.9143187986
 10
517.8915045051
 20
330.5896348368
 10
517.5605766144
 20
330.2266054875
 10
517.2500141194
 20
329.8305245361
 10
516.9643457206
 20
329.4071677347
 10
516.7077371065
 20
328.9627085788
 10
516.4839302087
 20
328.5036282838
 10
516.2961886355
 20
328.0366212741
 10
516.147250082
 20
327.5684975634
 10
516.0392864075
 20
327.1060834497
 10
515.9738719656
 20
326.656121972
 10
515.9519606462
 20
326.2251745818
 10
515.9738719656
 20
325.8195254626
 10
516.0392864075
 20
325.4450898918
 10
516.147250082
 20
325.1073279833
 10
516.2961886355
 20
324.8111650663
 10
516.4839302087
 20
324.5609198631
 10
516.7077371065
 20
324.3602415121
 10
516.9643457206
 20
324.2120563556
 10
517.2500141194
 20
324.1185252669
 10
517.5605766144
 20
324.0810121399
 10
517.8915045051
 20
324.1000640004
 10
518.2379721178
 20
324.1754030295
 10
518.5949271743
 20
324.3059306144
 10
518.9571644663
 20
324.4897433689
 10
519.3194017582
 20
324.7241608894
 10
519.6763568148
 20
325.0057648403
 10
520.0228244274
 20
325.3304488021
 10
520.3537523182
 20
325.6934781514
 10
520.6643148132
 20
326.0895591028
 10
520.949983212
 20
326.5129159042
 10
521.206591826
 20
326.9573750601
 10
521.4303987239
 20
327.4164553551
 10
521.618140297
 20
327.8834623649
 10
521.7670788506
 20
328.3515860755
 10
521.875042525
 20
328.8140001892
 10
521.9404569669
 20
329.2639616669
 10
521.9623682863
 20
329.6949090571
  0
SPLINE
  5
BF
330
1F
100
AcDbEntity
  8
0
  6
Continuous
 62
     7
370
    25
100
AcDbSpline
210
0.0
220
0.0
230
1.0
 70
     8
 71
     3
 72
     8
 73
     4
 74
     0
 42
0.00000001
 43
0.00000001
 40
0.0
 40
0.0
 40
0.0
 40
0.0
 40
1.0
 40
1.0
 40
1.0
 40
1.0
 10
512.239650045003
 20
318.7903140168004
 30
0.0
 10
512.0173911935367
 20
318.4631876292726
 30
0.0
 10
511.780194871193
 20
318.1537518691377
 30
0.0
 10
511.5325432638165
 20
317.8566984294982
 30
0.0
  0
LINE
  5
C0
330
1F
100
AcDbEntity
  8
0
  6
Continuous
 62
     7
370
    25
100
AcDbLine
 10
505.1685822331
 20
321.5305349327
 30
0.0
 11
505.1685822331
 21
334.7977527621
 31
0.0
  0
LWPOLYLINE
  5
C1
330
1F
100
AcDbEntity
  8
0
  6
Continuous
 62
     7
370
    25
100
AcDbPolyline
 90
       47
 70
   128
 43
0.0
 10
472.9952236891
 20
342.2471837764
 10
473.0170160899
 20
343.0445035032
 10
473.0823037426
 20
343.8637078426
 10
473.1908183663
 20
344.7014305082
 10
473.342114051
 20
345.554229118
 10
473.5355690904
 20
346.4185993394
 10
473.7703885362
 20
347.29098929
 10
474.045607465
 20
348.1678141322
 10
474.360094943
 20
349.0454708046
 10
474.7125586739
 20
349.9203528278
 10
475.1015503086
 20
350.7888651239
 10
475.5254713969
 20
351.6474387895
 10
475.9825799562
 20
352.4925457612
 10
476.4709976294
 20
353.3207133134
 10
476.9887174035
 20
354.1285383277
 10
477.5336118569
 20
354.9127012781
 10
478.1034419014
 20
355.6699798707
 10
478.6958659831
 20
356.3972622853
 10
479.3084497044
 20
357.0915599625
 10
479.9386758275
 20
357.7500198843
 10
480.5839546178
 20
358.3699362975
 10
481.2416344866
 20
358.9487618327
 10
481.9090128861
 20
359.4841179715
 10
482.5833474154
 20
359.9738048208
 10
483.2618670892
 20
360.4158101523
 10
483.9417837247
 20
360.8083176711
 10
484.6203033985
 20
361.1497144799
 10
485.2946379278
 20
361.4385977058
 10
485.9620163273
 20
361.6737802657
 10
486.6196961961
 20
361.854295744
 10
487.2649749864
 20
361.9794023638
 10
487.8952011094
 20
362.0485860354
 10
488.5077848308
 20
362.061562468
 10
489.1002089125
 20
362.0182783388
 10
489.670038957
 20
361.9189115116
 10
490.2149334104
 20
361.7638703059
 10
490.7326531845
 20
361.5537918193
 10
491.2210708577
 20
361.2895393094
 10
491.678179417
 20
360.9721986464
 10
492.1021005053
 20
360.6030738511
 10
492.49109214
 20
360.1836817366
 10
492.8435558709
 20
359.715745675
 10
493.1580433489
 20
359.201188516
 10
493.4332622777
 20
358.6421246852
 10
493.6680817235
 20
358.0408514959
 10
493.8615367629
 20
357.3998397086
 10
493.9974353632
 20
356.8023524914
  0
LWPOLYLINE
  5
C2
330
1F
100
AcDbEntity
  8
0
  6
Continuous
 62
     7
370
    25
100
AcDbPolyline
 90
       23
 70
   128
 43
0.0
 10
481.4984512052
 20
335.1511309319
 10
481.2416344866
 20
335.0667089644
 10
480.5839546178
 20
334.8861934861
 10
479.9386758275
 20
334.7610868662
 10
479.3084497044
 20
334.6919031947
 10
478.6958659831
 20
334.678926762
 10
478.1034419014
 20
334.7222108912
 10
477.5336118569
 20
334.8215777185
 10
476.9887174035
 20
334.9766189242
 10
476.4709976294
 20
335.1866974108
 10
475.9825799562
 20
335.4509499207
 10
475.5254713969
 20
335.7682905837
 10
475.1015503086
 20
336.1374153789
 10
474.7125586739
 20
336.5568074934
 10
474.360094943
 20
337.024743555
 10
474.045607465
 20
337.5393007141
 10
473.7703885362
 20
338.0983645448
 10
473.5355690904
 20
338.6996377341
 10
473.342114051
 20
339.3406495214
 10
473.1908183663
 20
340.0187658518
 10
473.0823037426
 20
340.7312001998
 10
473.0170160899
 20
341.4750250199
 10
472.9952236891
 20
342.2471837764
  0
LWPOLYLINE
  5
C3
330
1F
100
AcDbEntity
  8
0
  6
Continuous
 62
     7
370
    25
100
AcDbPolyline
 90
       38
 70
   128
 43
0.0
 10
456.7317677219
 20
351.6358770623
 10
456.7535601226
 20
352.4331967891
 10
456.8188477753
 20
353.2524011285
 10
456.927362399
 20
354.0901237942
 10
457.0786580837
 20
354.9429224039
 10
457.2721131231
 20
355.8072926254
 10
457.5069325689
 20
356.6796825759
 10
457.7821514977
 20
357.5565074181
 10
458.0966389758
 20
358.4341640906
 10
458.4491027066
 20
359.3090461138
 10
458.8380943413
 20
360.1775584098
 10
459.2620154296
 20
361.0361320754
 10
459.7191239889
 20
361.8812390472
 10
460.2075416621
 20
362.7094065993
 10
460.7252614362
 20
363.5172316137
 10
461.2701558896
 20
364.3013945641
 10
461.8399859341
 20
365.0586731566
 10
462.4324100158
 20
365.7859555713
 10
463.0449937372
 20
366.4802532485
 10
463.6752198602
 20
367.1387131703
 10
464.3204986505
 20
367.7586295835
 10
464.9781785193
 20
368.3374551186
 10
465.6455569188
 20
368.8728112575
 10
466.3198914481
 20
369.3624981068
 10
466.9984111219
 20
369.8045034382
 10
467.6783277574
 20
370.1970109571
 10
468.3568474312
 20
370.5384077659
 10
469.0311819605
 20
370.8272909917
 10
469.69856036
 20
371.0624735516
 10
470.3562402288
 20
371.2429890299
 10
471.0015190192
 20
371.3680956498
 10
471.6317451422
 20
371.4372793213
 10
472.2443288635
 20
371.450255754
 10
472.8367529452
 20
371.4069716248
 10
473.4065829897
 20
371.3076047976
 10
473.9514774431
 20
371.1525635918
 10
474.4691972172
 20
370.9424851052
 10
474.8377599344
 20
370.7496708367
  0
ARC
  5
C4
330
1F
100
AcDbEntity
  8
0
  6
Continuous
 62
     7
370
    25
100
AcDbCircle
 10
464.2089573941
 20
350.8821088176
 30
0.0
 40
7.515086956371775
100
AcDbArc
 50
174.243515443
 51
234.4443041636
  0
LWPOLYLINE
  5
C5
330
1F
100
AcDbEntity
  8
0
  6
Continuous
 62
     7
370
    25
100
AcDbPolyline
 90
       34
 70
   128
 43
0.0
 10
454.9640007689
 20
354.6974074817
 10
454.9855317261
 20
355.421824635
 10
455.0500197012
 20
356.1675716149
 10
455.1571505152
 20
356.9310152171
 10
455.3064022376
 20
357.7084360209
 10
455.4970477289
 20
358.4960465105
 10
455.7281581835
 20
359.2900095267
 10
455.9986076544
 20
360.0864569614
 10
456.3070785392
 20
360.8815086029
 10
456.6520679985
 20
361.6712910395
 10
457.0318952785
 20
362.4519565305
 10
457.4447098988
 20
363.2197017521
 10
457.888500668
 20
363.9707863267
 10
458.3611054822
 20
364.7015510459
 10
458.8602218583
 20
365.4084356973
 10
459.3834181513
 20
366.0879964101
 10
459.9281454016
 20
366.7369224327
 10
460.4917497527
 20
367.3520522627
 10
461.0714853809
 20
367.9303890495
 10
461.6645278725
 20
368.4691151944
 10
462.2679879841
 20
368.9656060777
 10
462.8789257187
 20
369.4174428458
 10
463.494364649
 20
369.8224241953
 10
464.1113064185
 20
370.1785770979
 10
464.7267453488
 20
370.4841664124
 10
465.3376830833
 20
370.7377033383
 10
465.9411431949
 20
370.9379526693
 10
466.5341856865
 20
371.0839388107
 10
467.1139213147
 20
371.1749505328
 10
467.6775256659
 20
371.2105444355
 10
468.2222529161
 20
371.190547109
 10
468.7454492092
 20
371.1150559782
 10
469.2445655852
 20
370.9844388283
 10
469.3537307326
 20
370.9473589788
  0
ARC
  5
C6
330
1F
100
AcDbEntity
  8
0
  6
Continuous
 62
     7
370
    25
100
AcDbCircle
 10
461.7078896263
 20
354.1991277765
 30
0.0
 40
6.76227177700914
100
AcDbArc
 50
175.7743162023
 51
224.9890184368
  0
LWPOLYLINE
  5
C7
330
1F
100
AcDbEntity
  8
0
  6
HIDDEN
 62
     7
370
    18
100
AcDbPolyline
 90
       47
 70
   128
 43
0.0
 10
489.8513174859
 20
359.1958553948
 10
489.9599510419
 20
359.1309237885
 10
490.3727656622
 20
358.8398041822
 10
490.7525929422
 20
358.4976779341
 10
491.0975824015
 20
358.1062118489
 10
491.4060532862
 20
357.66731311
 10
491.6765027572
 20
357.1831199879
 10
491.9076132118
 20
356.6559914229
 10
492.0982587031
 20
356.0884955323
 10
492.2475104255
 20
355.483397099
 10
492.3546412394
 20
354.8436441019
 10
492.4191292145
 20
354.1723533532
 10
492.4406601718
 20
353.4727953139
 10
492.4191292145
 20
352.7483781606
 10
492.3546412394
 20
352.0026311806
 10
492.2475104255
 20
351.2391875785
 10
492.0982587031
 20
350.4617667746
 10
491.9076132118
 20
349.6741562851
 10
491.6765027572
 20
348.8801932689
 10
491.4060532862
 20
348.0837458341
 10
491.0975824015
 20
347.2886941926
 10
490.7525929422
 20
346.4989117561
 10
490.3727656622
 20
345.7182462651
 10
489.9599510419
 20
344.9505010435
 10
489.5161602726
 20
344.1994164689
 10
489.0435554584
 20
343.4686517497
 10
488.5444390824
 20
342.7617670982
 10
488.0212427894
 20
342.0822063855
 10
487.4765155391
 20
341.4332803629
 10
486.912911188
 20
340.8181505329
 10
486.3331755598
 20
340.2398137461
 10
485.7401330681
 20
339.7010876012
 10
485.1366729566
 20
339.2045967179
 10
484.525735222
 20
338.7527599498
 10
483.9102962917
 20
338.3477786002
 10
483.2933545222
 20
337.9916256977
 10
482.6779155919
 20
337.6860363832
 10
482.0669778573
 20
337.4324994573
 10
481.4635177457
 20
337.2322501263
 10
480.8704752541
 20
337.0862639848
 10
480.2907396259
 20
336.9952522628
 10
479.7271352748
 20
336.9596583601
 10
479.1824080245
 20
336.9796556866
 10
478.6592117315
 20
337.0551468174
 10
478.1600953555
 20
337.1857639673
 10
477.6874905413
 20
337.3708707826
 10
477.352333328
 20
337.5446338353
  0
ARC
  5
C8
330
1F
100
AcDbEntity
  8
0
  6
HIDDEN
 62
     7
370
    18
100
AcDbCircle
 10
508.4232119017
 20
333.7743266687
 30
0.0
 40
18.44803612461189
100
AcDbArc
 50
302.1917845673
 51
333.7417114204
  0
LINE
  5
C9
330
1F
100
AcDbEntity
  8
0
  6
HIDDEN
 62
     7
370
    18
100
AcDbLine
 10
518.6036110757
 20
329.286411995
 30
0.0
 11
524.9675721064
 21
325.6125754918
 31
0.0
  0
LWPOLYLINE
  5
CA
330
1F
100
AcDbEntity
  8
0
  6
HIDDEN
 62
     7
370
    18
100
AcDbPolyline
 90
       21
 70
   128
 43
0.0
 10
518.6036110757
 20
329.286411995
 10
518.9928856211
 20
330.076076928
 10
519.3466032132
 20
330.8755782532
 10
519.662994119
 20
331.6809158757
 10
519.9404753595
 20
332.4880604999
 10
520.1776586303
 20
333.2929737896
 10
520.3733572471
 20
334.0916285726
 10
520.5265920831
 20
334.8800289891
 10
520.6365964683
 20
335.6542304846
 10
520.7028200244
 20
336.4103595451
 10
520.7249314192
 20
337.1446330775
 10
520.7028200244
 20
337.8533773367
 10
520.6365964683
 20
338.5330463069
 10
520.5265920831
 20
339.1802394428
 10
520.3733572471
 20
339.7917186834
 10
520.1776586303
 20
340.3644246528
 10
519.9404753595
 20
340.8954919671
 10
519.662994119
 20
341.3822635704
 10
519.3466032132
 20
341.8223040286
 10
518.9928856211
 20
342.2134117148
 10
518.6036110757
 20
342.5536298244
  0
LINE
  5
CB
330
1F
100
AcDbEntity
  8
0
  6
HIDDEN
 62
     7
370
    18
100
AcDbLine
 10
524.9675721064
 20
338.8797933212
 30
0.0
 11
518.6036110757
 21
342.5536298244
 31
0.0
  0
LWPOLYLINE
  5
CC
330
1F
100
AcDbEntity
  8
0
  6
HIDDEN
 62
     7
370
    18
100
AcDbPolyline
 90
       53
 70
   128
 43
0.0
 10
507.8202326626
 20
337.8589901753
 10
507.7983213432
 20
338.2646392946
 10
507.7329069013
 20
338.6390748653
 10
507.6249432269
 20
338.9768367738
 10
507.4760046733
 20
339.2729996908
 10
507.2882631002
 20
339.5232448941
 10
507.0644562023
 20
339.7239232451
 10
506.8078475882
 20
339.8721084016
 10
506.5221791895
 20
339.9656394902
 10
506.2116166944
 20
340.0031526173
 10
505.8806888037
 20
339.9841007567
 10
505.5342211911
 20
339.9087617277
 10
505.1772661345
 20
339.7782341428
 10
504.8150288425
 20
339.5944213882
 10
504.4527915506
 20
339.3600038678
 10
504.095836494
 20
339.0783999168
 10
503.7493688814
 20
338.7537159551
 10
503.4184409907
 20
338.3906866058
 10
503.1078784956
 20
337.9946056543
 10
502.8222100968
 20
337.5712488529
 10
502.5656014828
 20
337.1267896971
 10
502.3417945849
 20
336.667709402
 10
502.1540530118
 20
336.2007023923
 10
502.0051144582
 20
335.7325786817
 10
501.8971507838
 20
335.270164568
 10
501.8317363419
 20
334.8202030902
 10
501.8098250225
 20
334.3892557001
 10
501.8317363419
 20
333.9836065808
 10
501.8971507838
 20
333.60917101
 10
502.0051144582
 20
333.2714091016
 10
502.1540530118
 20
332.9752461846
 10
502.3417945849
 20
332.7250009813
 10
502.5656014828
 20
332.5243226303
 10
502.8222100968
 20
332.3761374738
 10
503.1078784956
 20
332.2826063851
 10
503.4184409907
 20
332.2450932581
 10
503.7493688814
 20
332.2641451187
 10
504.095836494
 20
332.3394841477
 10
504.4527915506
 20
332.4700117326
 10
504.8150288425
 20
332.6538244872
 10
505.1772661345
 20
332.8882420076
 10
505.5342211911
 20
333.1698459586
 10
505.8806888037
 20
333.4945299203
 10
506.2116166944
 20
333.8575592696
 10
506.5221791895
 20
334.253640221
 10
506.8078475882
 20
334.6769970224
 10
507.0644562023
 20
335.1214561783
 10
507.2882631002
 20
335.5805364733
 10
507.4760046733
 20
336.0475434831
 10
507.6249432269
 20
336.5156671937
 10
507.7329069013
 20
336.9780813074
 10
507.7983213432
 20
337.4280427851
 10
507.8202326626
 20
337.8589901753
  0
SPLINE
  5
CD
330
1F
100
AcDbEntity
  8
0
  6
HIDDEN
 62
     7
370
    18
100
AcDbSpline
210
0.0
220
0.0
230
1.0
 70
     8
 71
     3
 72
     8
 73
     4
 74
     0
 42
0.00000001
 43
0.00000001
 40
0.0
 40
0.0
 40
0.0
 40
0.0
 40
1.0
 40
1.0
 40
1.0
 40
1.0
 10
524.9675721063609
 20
325.612575491814
 30
0.0
 10
525.2153964308528
 20
325.909836102381
 30
0.0
 10
525.4525941667879
 20
326.2193209817145
 30
0.0
 10
525.6746788875475
 20
326.5461910791161
 30
0.0
  0
LINE
  5
CE
330
1F
100
AcDbEntity
  8
0
  6
HIDDEN
 62
     7
370
    18
100
AcDbLine
 10
518.6036110757
 20
342.5536298244
 30
0.0
 11
518.6036110757
 21
329.286411995
 31
0.0
  0
LWPOLYLINE
  5
CF
330
1F
100
AcDbEntity
  8
0
  6
HIDDEN
 62
     7
370
    18
100
AcDbPolyline
 90
       33
 70
   128
 43
0.0
 10
493.9974353632
 20
356.8023524914
 10
494.0128324476
 20
356.7217233782
 10
494.1213470713
 20
356.0092890302
 10
494.186634724
 20
355.2654642101
 10
494.2084271247
 20
354.4933054537
 10
494.186634724
 20
353.6959857269
 10
494.1213470713
 20
352.8767813875
 10
494.0128324476
 20
352.0390587219
 10
493.8615367629
 20
351.1862601121
 10
493.6680817235
 20
350.3218898906
 10
493.4332622777
 20
349.4494999401
 10
493.1580433489
 20
348.5726750979
 10
492.8435558709
 20
347.6950184254
 10
492.49109214
 20
346.8201364022
 10
492.1021005053
 20
345.9516241062
 10
491.678179417
 20
345.0930504406
 10
491.2210708577
 20
344.2479434688
 10
490.7326531845
 20
343.4197759167
 10
490.2149334104
 20
342.6119509023
 10
489.670038957
 20
341.8277879519
 10
489.1002089125
 20
341.0705093594
 10
488.5077848308
 20
340.3432269447
 10
487.8952011094
 20
339.6489292675
 10
487.2649749864
 20
338.9904693458
 10
486.6196961961
 20
338.3705529325
 10
485.9620163273
 20
337.7917273974
 10
485.2946379278
 20
337.2563712585
 10
484.6203033985
 20
336.7666844092
 10
483.9417837247
 20
336.3246790778
 10
483.2618670892
 20
335.9321715589
 10
482.5833474154
 20
335.5907747502
 10
481.9090128861
 20
335.3018915243
 10
481.4984512052
 20
335.1511309319
  0
LWPOLYLINE
  5
D0
330
1F
100
AcDbEntity
  8
0
  6
HIDDEN
 62
     7
370
    18
100
AcDbPolyline
 90
       51
 70
   128
 43
0.0
 10
474.8377599344
 20
370.7496708367
 10
474.9576148904
 20
370.6782325953
 10
475.4147234497
 20
370.3608919323
 10
475.838644538
 20
369.9917671371
 10
476.2276361727
 20
369.5723750226
 10
476.5800999036
 20
369.104438961
 10
476.8945873816
 20
368.5898818019
 10
477.1698063104
 20
368.0308179712
 10
477.4046257562
 20
367.4295447819
 10
477.5980807956
 20
366.7885329946
 10
477.7493764803
 20
366.1104166642
 10
477.857891104
 20
365.3979823162
 10
477.9231787567
 20
364.6541574961
 10
477.9449711575
 20
363.8819987397
 10
477.9231787567
 20
363.0846790129
 10
477.857891104
 20
362.2654746735
 10
477.7493764803
 20
361.4277520078
 10
477.5980807956
 20
360.574953398
 10
477.4046257562
 20
359.7105831766
 10
477.1698063104
 20
358.838193226
 10
476.8945873816
 20
357.9613683839
 10
476.5800999036
 20
357.0837117114
 10
476.2276361727
 20
356.2088296882
 10
475.838644538
 20
355.3403173922
 10
475.4147234497
 20
354.4817437266
 10
474.9576148904
 20
353.6366367548
 10
474.4691972172
 20
352.8084692027
 10
473.9514774431
 20
352.0006441883
 10
473.4065829897
 20
351.2164812379
 10
472.8367529452
 20
350.4592026453
 10
472.2443288635
 20
349.7319202307
 10
471.6317451422
 20
349.0376225535
 10
471.0015190191
 20
348.3791626317
 10
470.3562402288
 20
347.7592462185
 10
469.69856036
 20
347.1804206833
 10
469.0311819605
 20
346.6450645445
 10
468.3568474312
 20
346.1553776952
 10
467.6783277574
 20
345.7133723638
 10
466.9984111219
 20
345.3208648449
 10
466.3198914481
 20
344.9794680361
 10
465.6455569188
 20
344.6905848102
 10
464.9781785193
 20
344.4554022503
 10
464.3204986505
 20
344.2748867721
 10
463.6752198602
 20
344.1497801522
 10
463.0449937372
 20
344.0805964806
 10
462.4324100158
 20
344.067620048
 10
461.8399859341
 20
344.1109041772
 10
461.2701558896
 20
344.2102710044
 10
460.7252614362
 20
344.3653122101
 10
460.2075416621
 20
344.5753906967
 10
459.8389789449
 20
344.7682049653
  0
LWPOLYLINE
  5
D1
330
1F
100
AcDbEntity
  8
0
  6
HIDDEN
 62
     7
370
    18
100
AcDbPolyline
 90
       50
 70
   128
 43
0.0
 10
469.3537307326
 20
370.9473589788
 10
469.7171703994
 20
370.799332013
 10
470.1609611687
 20
370.560637354
 10
470.573775789
 20
370.2695177477
 10
470.9536030689
 20
369.9273914996
 10
471.2985925283
 20
369.5359254144
 10
471.607063413
 20
369.0970266755
 10
471.877512884
 20
368.6128335534
 10
472.1086233386
 20
368.0857049884
 10
472.2992688299
 20
367.5182090978
 10
472.4485205522
 20
366.9131106645
 10
472.5556513662
 20
366.2733576674
 10
472.6201393413
 20
365.6020669187
 10
472.6416702986
 20
364.9025088794
 10
472.6201393413
 20
364.1780917261
 10
472.5556513662
 20
363.4323447462
 10
472.4485205522
 20
362.668901144
 10
472.2992688299
 20
361.8914803402
 10
472.1086233386
 20
361.1038698506
 10
471.877512884
 20
360.3099068344
 10
471.607063413
 20
359.5134593996
 10
471.2985925283
 20
358.7184077581
 10
470.9536030689
 20
357.9286253216
 10
470.573775789
 20
357.1479598306
 10
470.1609611687
 20
356.380214609
 10
469.7171703994
 20
355.6291300344
 10
469.2445655852
 20
354.8983653152
 10
468.7454492092
 20
354.1914806637
 10
468.2222529161
 20
353.511919951
 10
467.6775256659
 20
352.8629939284
 10
467.1139213147
 20
352.2478640984
 10
466.5341856865
 20
351.6695273116
 10
465.9411431949
 20
351.1308011667
 10
465.3376830833
 20
350.6343102834
 10
464.7267453488
 20
350.1824735153
 10
464.1113064185
 20
349.7774921658
 10
463.494364649
 20
349.4213392632
 10
462.8789257187
 20
349.1157499487
 10
462.2679879841
 20
348.8622130228
 10
461.6645278725
 20
348.6619636918
 10
461.0714853809
 20
348.5159775504
 10
460.4917497527
 20
348.4249658283
 10
459.9281454016
 20
348.3893719256
 10
459.3834181513
 20
348.4093692521
 10
458.8602218583
 20
348.4848603829
 10
458.3611054822
 20
348.6154775328
 10
457.888500668
 20
348.8005843481
 10
457.4447098988
 20
349.0392790071
 10
457.0318952785
 20
349.3303986134
 10
456.9253250125
 20
349.4183961065
  0
LWPOLYLINE
  5
D2
330
1F
100
AcDbEntity
  8
0
  6
HIDDEN
 62
     7
370
    18
100
AcDbPolyline
 90
       91
 70
   128
 43
0.0
 10
458.4995346748
 20
352.6563872021
 10
458.5210656321
 20
353.3808043555
 10
458.5855536072
 20
354.1265513354
 10
458.6926844212
 20
354.8899949375
 10
458.8419361435
 20
355.6674157414
 10
459.0325816348
 20
356.455026231
 10
459.2636920894
 20
357.2489892471
 10
459.5341415604
 20
358.0454366819
 10
459.8426124451
 20
358.8404883234
 10
460.1876019044
 20
359.6302707599
 10
460.5674291844
 20
360.4109362509
 10
460.9802438047
 20
361.1786814725
 10
461.424034574
 20
361.9297660472
 10
461.8966393882
 20
362.6605307663
 10
462.3957557642
 20
363.3674154178
 10
462.9189520572
 20
364.0469761305
 10
463.4636793075
 20
364.6959021531
 10
464.0272836586
 20
365.3110319831
 10
464.6070192869
 20
365.8893687699
 10
465.2000617785
 20
366.4280949148
 10
465.80352189
 20
366.9245857981
 10
466.4144596246
 20
367.3764225662
 10
467.0298985549
 20
367.7814039158
 10
467.6468403244
 20
368.1375568183
 10
468.2622792547
 20
368.4431461328
 10
468.8732169893
 20
368.6966830588
 10
469.4766771009
 20
368.8969323897
 10
470.0697195925
 20
369.0429185312
 10
470.6494552207
 20
369.1339302532
 10
471.2130595718
 20
369.1695241559
 10
471.7577868221
 20
369.1495268294
 10
472.2809831151
 20
369.0740356986
 10
472.7800994911
 20
368.9434185487
 10
473.2527043054
 20
368.7583117334
 10
473.6964950746
 20
368.5196170744
 10
474.1093096949
 20
368.2284974681
 10
474.4891369749
 20
367.8863712201
 10
474.8341264342
 20
367.4949051349
 10
475.1425973189
 20
367.0560063959
 10
475.4130467899
 20
366.5718132739
 10
475.6441572445
 20
366.0446847088
 10
475.8348027358
 20
365.4771888182
 10
475.9840544582
 20
364.872090385
 10
476.0911852722
 20
364.2323373879
 10
476.1556732472
 20
363.5610466391
 10
476.1772042045
 20
362.8614885999
 10
476.1556732472
 20
362.1370714465
 10
476.0911852722
 20
361.3913244666
 10
475.9840544582
 20
360.6278808645
 10
475.8348027358
 20
359.8504600606
 10
475.6441572445
 20
359.062849571
 10
475.4130467899
 20
358.2688865548
 10
475.1425973189
 20
357.4724391201
 10
474.8341264342
 20
356.6773874786
 10
474.4891369749
 20
355.887605042
 10
474.1093096949
 20
355.1069395511
 10
473.6964950746
 20
354.3391943295
 10
473.2527043054
 20
353.5881097548
 10
472.7800994911
 20
352.8573450356
 10
472.2809831151
 20
352.1504603842
 10
471.7577868221
 20
351.4708996714
 10
471.2130595718
 20
350.8219736489
 10
470.6494552207
 20
350.2068438188
 10
470.0697195925
 20
349.628507032
 10
469.4766771009
 20
349.0897808872
 10
468.8732169893
 20
348.5932900039
 10
468.2622792547
 20
348.1414532358
 10
467.6468403244
 20
347.7364718862
 10
467.0298985549
 20
347.3803189836
 10
466.4144596246
 20
347.0747296692
 10
465.80352189
 20
346.8211927432
 10
465.2000617785
 20
346.6209434122
 10
464.6070192869
 20
346.4749572708
 10
464.0272836586
 20
346.3839455488
 10
463.4636793075
 20
346.348351646
 10
462.9189520572
 20
346.3683489725
 10
462.3957557642
 20
346.4438401033
 10
461.8966393882
 20
346.5744572532
 10
461.424034574
 20
346.7595640686
 10
460.9802438047
 20
346.9982587276
 10
460.5674291844
 20
347.2893783338
 10
460.1876019044
 20
347.6315045819
 10
459.8426124451
 20
348.0229706671
 10
459.5341415604
 20
348.461869406
 10
459.2636920894
 20
348.9460625281
 10
459.0325816348
 20
349.4731910931
 10
458.8419361435
 20
350.0406869837
 10
458.6926844212
 20
350.645785417
 10
458.5855536072
 20
351.2855384141
 10
458.5210656321
 20
351.9568291628
 10
458.4995346748
 20
352.6563872021
  0
LINE
  5
D3
330
1F
100
AcDbEntity
  8
0
  6
HIDDEN
 62
     7
370
    18
100
AcDbLine
 10
521.0819917731
 20
331.6407494846
 30
0.0
 11
506.9398561494
 21
339.8048306028
 31
0.0
  0
LINE
  5
D4
330
1F
100
AcDbEntity
  8
0
  6
HIDDEN
 62
     7
370
    18
100
AcDbLine
 10
502.6902015357
 20
332.4434152726
 30
0.0
 11
516.8323371594
 21
324.2793341543
 31
0.0
  0
LINE
  5
D5
330
1F
100
AcDbEntity
  8
0
  6
HIDDEN
 62
     7
370
    18
100
AcDbLine
 10
457.5533434547
 20
348.9743474008
 30
0.0
 11
461.0888773607
 21
346.9333271212
 31
0.0
  0
LINE
  5
D6
330
1F
100
AcDbEntity
  8
0
  6
HIDDEN
 62
     7
370
    18
100
AcDbLine
 10
473.5878615186
 20
368.5845486807
 30
0.0
 11
470.0523276127
 21
370.6255689603
 31
0.0
  0
ENDSEC
  0
SECTION
  2
OBJECTS
  0
DICTIONARY
  5
C
330
0
100
AcDbDictionary
281
     1
  3
ACAD_GROUP
350
D
  3
ACAD_LAYOUT
350
1A
  3
ACAD_MLINESTYLE
350
17
  3
ACAD_PLOTSETTINGS
350
19
  3
ACAD_PLOTSTYLENAME
350
E
  3
ACAD_SCALELIST
350
47
  3
DWGPROPS
350
D7
  0
DICTIONARY
  5
D
102
{ACAD_REACTORS
330
C
102
}
330
C
100
AcDbDictionary
281
     1
  0
DICTIONARY
  5
1A
102
{ACAD_REACTORS
330
C
102
}
330
C
100
AcDbDictionary
281
     1
  3
Layout1
350
1E
  3
Layout2
350
26
  3
Model
350
22
  0
DICTIONARY
  5
17
102
{ACAD_REACTORS
330
C
102
}
330
C
100
AcDbDictionary
281
     1
  3
Standard
350
18
  0
DICTIONARY
  5
19
102
{ACAD_REACTORS
330
C
102
}
330
C
100
AcDbDictionary
281
     1
  0
ACDBDICTIONARYWDFLT
  5
E
102
{ACAD_REACTORS
330
C
102
}
330
C
100
AcDbDictionary
281
     1
  3
Normal
350
F
100
AcDbDictionaryWithDefault
340
F
  0
DICTIONARY
  5
47
102
{ACAD_REACTORS
330
C
102
}
330
C
100
AcDbDictionary
281
     1
  3
A0
350
48
  3
A1
350
49
  3
A2
350
4A
  3
A3
350
4B
  3
A4
350
4C
  3
A5
350
4D
  3
A6
350
4E
  3
A7
350
4F
  3
A8
350
50
  3
A9
350
51
  3
B0
350
52
  3
B1
350
53
  3
B2
350
54
  3
B3
350
55
  3
B4
350
56
  3
B5
350
57
  3
B6
350
58
  0
XRECORD
  5
D7
102
{ACAD_REACTORS
330
C
102
}
330
C
100
AcDbXrecord
280
     1
  1
DWGPROPS COOKIE
  2

  3

  4

  6

  7

  8
imaizumi
  9

300
=
301
=
302
=
303
=
304
=
305
=
306
=
307
=
308
=
309
=
 40
0.0
 41
2461262.365635857
 42
2461262.365636632
  1

 90
        0
  0
LAYOUT
  5
1E
102
{ACAD_REACTORS
330
1A
102
}
330
1A
100
AcDbPlotSettings
  1

  2
none_device
  4

  6

 40
0.0
 41
0.0
 42
0.0
 43
0.0
 44
0.0
 45
0.0
 46
0.0
 47
0.0
 48
0.0
 49
0.0
140
0.0
141
0.0
142
1.0
143
1.0
 70
   688
 72
     1
 73
     0
 74
     5
  7

 75
    16
147
1.0
148
0.0
149
0.0
100
AcDbLayout
  1
Layout1
 70
     1
 71
     1
 10
0.0
 20
0.0
 11
420.0
 21
297.0
 12
0.0
 22
0.0
 32
0.0
 14
1.0000000000E+20
 24
1.0000000000E+20
 34
1.0000000000E+20
 15
-1.0000000000E+20
 25
-1.0000000000E+20
 35
-1.0000000000E+20
146
0.0
 13
0.0
 23
0.0
 33
0.0
 16
1.0
 26
0.0
 36
0.0
 17
0.0
 27
1.0
 37
0.0
 76
     0
330
1B
  0
LAYOUT
  5
26
102
{ACAD_REACTORS
330
1A
102
}
330
1A
100
AcDbPlotSettings
  1

  2
none_device
  4

  6

 40
0.0
 41
0.0
 42
0.0
 43
0.0
 44
0.0
 45
0.0
 46
0.0
 47
0.0
 48
0.0
 49
0.0
140
0.0
141
0.0
142
1.0
143
1.0
 70
   688
 72
     1
 73
     0
 74
     5
  7

 75
    16
147
1.0
148
0.0
149
0.0
100
AcDbLayout
  1
Layout2
 70
     1
 71
     2
 10
0.0
 20
0.0
 11
0.0
 21
0.0
 12
0.0
 22
0.0
 32
0.0
 14
0.0
 24
0.0
 34
0.0
 15
0.0
 25
0.0
 35
0.0
146
0.0
 13
0.0
 23
0.0
 33
0.0
 16
1.0
 26
0.0
 36
0.0
 17
0.0
 27
1.0
 37
0.0
 76
     0
330
23
  0
LAYOUT
  5
22
102
{ACAD_REACTORS
330
1A
102
}
330
1A
100
AcDbPlotSettings
  1

  2
none_device
  4
Letter_(8.50_x_11.00_Inches)
  6

 40
6.35
 41
6.35
 42
6.35000508
 43
6.35000508
 44
215.9
 45
279.4
 46
0.0
 47
0.0
 48
0.0
 49
0.0
140
0.0
141
0.0
142
1.0
143
1.0
 70
  1712
 72
     1
 73
     0
 74
     0
  7

 75
     0
147
1.0
148
0.0
149
0.0
100
AcDbLayout
  1
Model
 70
     1
 71
     0
 10
0.0
 20
0.0
 11
841.0
 21
594.0
 12
0.0
 22
0.0
 32
0.0
 14
0.0
 24
0.0
 34
0.0
 15
841.0
 25
594.0
 35
0.0
146
0.0
 13
0.0
 23
0.0
 33
0.0
 16
1.0
 26
0.0
 36
0.0
 17
0.0
 27
1.0
 37
0.0
 76
     0
330
1F
331
29
  0
MLINESTYLE
  5
18
102
{ACAD_REACTORS
330
17
102
}
330
17
100
AcDbMlineStyle
  2
Standard
 70
     0
  3

 62
   256
 51
90.0
 52
90.0
 71
     2
 49
0.5
 62
   256
  6
BYLAYER
 49
-0.5
 62
   256
  6
BYLAYER
  0
ACDBPLACEHOLDER
  5
F
102
{ACAD_REACTORS
330
E
102
}
330
E
  0
SCALE
  5
48
102
{ACAD_REACTORS
330
47
102
}
330
47
100
AcDbScale
 70
     0
300
1:1
140
1.0
141
1.0
290
     1
  0
SCALE
  5
49
102
{ACAD_REACTORS
330
47
102
}
330
47
100
AcDbScale
 70
     0
300
1:2
140
1.0
141
2.0
290
     0
  0
SCALE
  5
4A
102
{ACAD_REACTORS
330
47
102
}
330
47
100
AcDbScale
 70
     0
300
1:4
140
1.0
141
4.0
290
     0
  0
SCALE
  5
4B
102
{ACAD_REACTORS
330
47
102
}
330
47
100
AcDbScale
 70
     0
300
1:5
140
1.0
141
5.0
290
     0
  0
SCALE
  5
4C
102
{ACAD_REACTORS
330
47
102
}
330
47
100
AcDbScale
 70
     0
300
1:8
140
1.0
141
8.0
290
     0
  0
SCALE
  5
4D
102
{ACAD_REACTORS
330
47
102
}
330
47
100
AcDbScale
 70
     0
300
1:10
140
1.0
141
10.0
290
     0
  0
SCALE
  5
4E
102
{ACAD_REACTORS
330
47
102
}
330
47
100
AcDbScale
 70
     0
300
1:16
140
1.0
141
16.0
290
     0
  0
SCALE
  5
4F
102
{ACAD_REACTORS
330
47
102
}
330
47
100
AcDbScale
 70
     0
300
1:20
140
1.0
141
20.0
290
     0
  0
SCALE
  5
50
102
{ACAD_REACTORS
330
47
102
}
330
47
100
AcDbScale
 70
     0
300
1:30
140
1.0
141
30.0
290
     0
  0
SCALE
  5
51
102
{ACAD_REACTORS
330
47
102
}
330
47
100
AcDbScale
 70
     0
300
1:40
140
1.0
141
40.0
290
     0
  0
SCALE
  5
52
102
{ACAD_REACTORS
330
47
102
}
330
47
100
AcDbScale
 70
     0
300
1:50
140
1.0
141
50.0
290
     0
  0
SCALE
  5
53
102
{ACAD_REACTORS
330
47
102
}
330
47
100
AcDbScale
 70
     0
300
1:100
140
1.0
141
100.0
290
     0
  0
SCALE
  5
54
102
{ACAD_REACTORS
330
47
102
}
330
47
100
AcDbScale
 70
     0
300
2:1
140
2.0
141
1.0
290
     0
  0
SCALE
  5
55
102
{ACAD_REACTORS
330
47
102
}
330
47
100
AcDbScale
 70
     0
300
4:1
140
4.0
141
1.0
290
     0
  0
SCALE
  5
56
102
{ACAD_REACTORS
330
47
102
}
330
47
100
AcDbScale
 70
     0
300
8:1
140
8.0
141
1.0
290
     0
  0
SCALE
  5
57
102
{ACAD_REACTORS
330
47
102
}
330
47
100
AcDbScale
 70
     0
300
10:1
140
10.0
141
1.0
290
     0
  0
SCALE
  5
58
102
{ACAD_REACTORS
330
47
102
}
330
47
100
AcDbScale
 70
     0
300
100:1
140
100.0
141
1.0
290
     0
  0
ENDSEC
  0
EOF
