  0
SECTION
  2
HEADER
  9
$ACADVER
  1
AC1015
  9
$ACADMAINTVER
 70
     6
  9
$DWGCODEPAGE
  3
DOS932
  9
$INSBASE
 10
0.0
 20
0.0
 30
0.0
  9
$EXTMIN
 10
0.0
 20
0.0
 30
0.0
  9
$EXTMAX
 10
841.0
 20
594.0
 30
0.0
  9
$LIMMIN
 10
0.0
 20
0.0
  9
$LIMMAX
 10
841.0
 20
594.0
  9
$ORTHOMODE
 70
     0
  9
$REGENMODE
 70
     1
  9
$FILLMODE
 70
     1
  9
$QTEXTMODE
 70
     0
  9
$MIRRTEXT
 70
     1
  9
$LTSCALE
 40
1.0
  9
$ATTMODE
 70
     1
  9
$TEXTSIZE
 40
3.5
  9
$TRACEWID
 40
1.0
  9
$TEXTSTYLE
  7
Standard
  9
$CLAYER
  8
0
  9
$CELTYPE
  6
ByLayer
  9
$CECOLOR
 62
   256
  9
$CELTSCALE
 40
1.0
  9
$DISPSILH
 70
     0
  9
$DIMSCALE
 40
1.0
  9
$DIMASZ
 40
3.302
  9
$DIMEXO
 40
1.0
  9
$DIMDLI
 40
3.75
  9
$DIMRND
 40
0.0
  9
$DIMDLE
 40
0.0
  9
$DIMEXE
 40
1.0
  9
$DIMTP
 40
0.0
  9
$DIMTM
 40
0.0
  9
$DIMTXT
 40
3.5
  9
$DIMCEN
 40
2.5
  9
$DIMTSZ
 40
0.0
  9
$DIMTOL
 70
     0
  9
$DIMLIM
 70
     0
  9
$DIMTIH
 70
     1
  9
$DIMTOH
 70
     1
  9
$DIMSE1
 70
     0
  9
$DIMSE2
 70
     0
  9
$DIMTAD
 70
     1
  9
$DIMZIN
 70
     1
  9
$DIMBLK
  1

  9
$DIMASO
 70
     1
  9
$DIMSHO
 70
     1
  9
$DIMPOST
  1

  9
$DIMAPOST
  1

  9
$DIMALT
 70
     0
  9
$DIMALTD
 70
     3
  9
$DIMALTF
 40
0.0393700787
  9
$DIMLFAC
 40
0.5
  9
$DIMTOFL
 70
     1
  9
$DIMTVP
 40
0.0
  9
$DIMTIX
 70
     0
  9
$DIMSOXD
 70
     0
  9
$DIMSAH
 70
     0
  9
$DIMBLK1
  1

  9
$DIMBLK2
  1

  9
$DIMSTYLE
  2
ISO-25
  9
$DIMCLRD
 70
     0
  9
$DIMCLRE
 70
     0
  9
$DIMCLRT
 70
     0
  9
$DIMTFAC
 40
1.0
  9
$DIMGAP
 40
1.524
  9
$DIMJUST
 70
     0
  9
$DIMSD1
 70
     0
  9
$DIMSD2
 70
     0
  9
$DIMTOLJ
 70
     0
  9
$DIMTZIN
 70
     1
  9
$DIMALTZ
 70
     0
  9
$DIMALTTZ
 70
     0
  9
$DIMUPT
 70
     0
  9
$DIMDEC
 70
     2
  9
$DIMTDEC
 70
     2
  9
$DIMALTU
 70
     2
  9
$DIMALTTD
 70
     3
  9
$DIMTXSTY
  7
Standard
  9
$DIMAUNIT
 70
     0
  9
$DIMADEC
 70
     2
  9
$DIMALTRND
 40
0.0
  9
$DIMAZIN
 70
     0
  9
$DIMDSEP
 70
    44
  9
$DIMATFIT
 70
     3
  9
$DIMFRAC
 70
     0
  9
$DIMLDRBLK
  1

  9
$DIMLUNIT
 70
     2
  9
$DIMLWD
 70
    -2
  9
$DIMLWE
 70
    -2
  9
$DIMTMOVE
 70
     0
  9
$LUNITS
 70
     2
  9
$LUPREC
 70
     2
  9
$SKETCHINC
 40
1.0
  9
$FILLETRAD
 40
0.0
  9
$AUNITS
 70
     0
  9
$AUPREC
 70
     2
  9
$MENU
  1
.
  9
$ELEVATION
 40
0.0
  9
$PELEVATION
 40
0.0
  9
$THICKNESS
 40
0.0
  9
$LIMCHECK
 70
     0
  9
$CHAMFERA
 40
0.0
  9
$CHAMFERB
 40
0.0
  9
$CHAMFERC
 40
0.0
  9
$CHAMFERD
 40
0.0
  9
$SKPOLY
 70
     0
  9
$TDCREATE
 40
2461262.744824526
  9
$TDUCREATE
 40
2461262.369824526
  9
$TDUPDATE
 40
2461262.744825186
  9
$TDUUPDATE
 40
2461262.369825186
  9
$TDINDWG
 40
0.0000000116
  9
$TDUSRTIMER
 40
0.0000000116
  9
$USRTIMER
 70
     1
  9
$ANGBASE
 50
0.0
  9
$ANGDIR
 70
     0
  9
$PDMODE
 70
     0
  9
$PDSIZE
 40
-1.0
  9
$PLINEWID
 40
0.0
  9
$SPLFRAME
 70
     0
  9
$SPLINETYPE
 70
     6
  9
$SPLINESEGS
 70
     8
  9
$HANDSEED
  5
D7
  9
$SURFTAB1
 70
     6
  9
$SURFTAB2
 70
     6
  9
$SURFTYPE
 70
     6
  9
$SURFU
 70
     6
  9
$SURFV
 70
     6
  9
$UCSBASE
  2

  9
$UCSNAME
  2

  9
$UCSORG
 10
0.0
 20
0.0
 30
0.0
  9
$UCSXDIR
 10
1.0
 20
0.0
 30
0.0
  9
$UCSYDIR
 10
0.0
 20
1.0
 30
0.0
  9
$UCSORTHOREF
  2

  9
$UCSORTHOVIEW
 70
     0
  9
$UCSORGTOP
 10
0.0
 20
0.0
 30
0.0
  9
$UCSORGBOTTOM
 10
0.0
 20
0.0
 30
0.0
  9
$UCSORGLEFT
 10
0.0
 20
0.0
 30
0.0
  9
$UCSORGRIGHT
 10
0.0
 20
0.0
 30
0.0
  9
$UCSORGFRONT
 10
0.0
 20
0.0
 30
0.0
  9
$UCSORGBACK
 10
0.0
 20
0.0
 30
0.0
  9
$PUCSBASE
  2

  9
$PUCSNAME
  2

  9
$PUCSORG
 10
0.0
 20
0.0
 30
0.0
  9
$PUCSXDIR
 10
1.0
 20
0.0
 30
0.0
  9
$PUCSYDIR
 10
0.0
 20
1.0
 30
0.0
  9
$PUCSORTHOREF
  2

  9
$PUCSORTHOVIEW
 70
     0
  9
$PUCSORGTOP
 10
0.0
 20
0.0
 30
0.0
  9
$PUCSORGBOTTOM
 10
0.0
 20
0.0
 30
0.0
  9
$PUCSORGLEFT
 10
0.0
 20
0.0
 30
0.0
  9
$PUCSORGRIGHT
 10
0.0
 20
0.0
 30
0.0
  9
$PUCSORGFRONT
 10
0.0
 20
0.0
 30
0.0
  9
$PUCSORGBACK
 10
0.0
 20
0.0
 30
0.0
  9
$USERI1
 70
     0
  9
$USERI2
 70
     0
  9
$USERI3
 70
     0
  9
$USERI4
 70
     0
  9
$USERI5
 70
     0
  9
$USERR1
 40
0.0
  9
$USERR2
 40
0.0
  9
$USERR3
 40
0.0
  9
$USERR4
 40
0.0
  9
$USERR5
 40
0.0
  9
$WORLDVIEW
 70
     1
  9
$SHADEDGE
 70
     3
  9
$SHADEDIF
 70
    70
  9
$TILEMODE
 70
     1
  9
$MAXACTVP
 70
    64
  9
$PINSBASE
 10
0.0
 20
0.0
 30
0.0
  9
$PLIMCHECK
 70
     0
  9
$PEXTMIN
 10
1.0000000000E+20
 20
1.0000000000E+20
 30
1.0000000000E+20
  9
$PEXTMAX
 10
-1.0000000000E+20
 20
-1.0000000000E+20
 30
-1.0000000000E+20
  9
$PLIMMIN
 10
0.0
 20
0.0
  9
$PLIMMAX
 10
420.0
 20
297.0
  9
$UNITMODE
 70
     0
  9
$VISRETAIN
 70
     1
  9
$PLINEGEN
 70
     0
  9
$PSLTSCALE
 70
     1
  9
$TREEDEPTH
 70
  3020
  9
$CMLSTYLE
  2
Standard
  9
$CMLJUST
 70
     0
  9
$CMLSCALE
 40
20.0
  9
$PROXYGRAPHICS
 70
     1
  9
$MEASUREMENT
 70
     1
  9
$CELWEIGHT
370
    -1
  9
$ENDCAPS
280
     0
  9
$JOINSTYLE
280
     0
  9
$LWDISPLAY
290
     1
  9
$INSUNITS
 70
     4
  9
$HYPERLINKBASE
  1

  9
$STYLESHEET
  1

  9
$XEDIT
290
     1
  9
$CEPSNTYPE
380
     0
  9
$PSTYLEMODE
290
     1
  9
$FINGERPRINTGUID
  2
{8565336d-7890-4523-99f0-34a082d8e159}
  9
$VERSIONGUID
  2
{FAEB1C32-E019-11D5-929B-00C0DF256EC4}
  9
$EXTNAMES
290
     1
  9
$PSVPSCALE
 40
0.0
  9
$OLESTARTUP
290
     0
  0
ENDSEC
  0
SECTION
  2
CLASSES
  0
CLASS
  1
ACDBDICTIONARYWDFLT
  2
AcDbDictionaryWithDefault
  3
ObjectDBX Classes
 90
        0
280
     0
281
     0
  0
CLASS
  1
VISUALSTYLE
  2
AcDbVisualStyle
  3
ObjectDBX Classes
 90
     4095
280
     0
281
     0
  0
CLASS
  1
MATERIAL
  2
AcDbMaterial
  3
ObjectDBX Classes
 90
     1153
280
     0
281
     0
  0
CLASS
  1
SCALE
  2
AcDbScale
  3
ObjectDBX Classes
 90
     1153
280
     0
281
     0
  0
CLASS
  1
TABLESTYLE
  2
AcDbTableStyle
  3
ObjectDBX Classes
 90
     4095
280
     0
281
     0
  0
CLASS
  1
MLEADERSTYLE
  2
AcDbMLeaderStyle
  3
ACDB_MLEADERSTYLE_CLASS
 90
     4095
280
     0
281
     0
  0
CLASS
  1
SUN
  2
AcDbSun
  3
SCENEOE
 90
     1153
280
     0
281
     0
  0
CLASS
  1
ACDBPLACEHOLDER
  2
AcDbPlaceHolder
  3
ObjectDBX Classes
 90
        0
280
     0
281
     0
  0
CLASS
  1
LAYOUT
  2
AcDbLayout
  3
ObjectDBX Classes
 90
        0
280
     0
281
     0
  0
ENDSEC
  0
SECTION
  2
TABLES
  0
TABLE
  2
VPORT
  5
8
330
0
100
AcDbSymbolTable
 70
     1
  0
VPORT
  5
29
330
8
100
AcDbSymbolTableRecord
100
AcDbViewportTableRecord
  2
*Active
 70
     0
 10
0.0
 20
0.0
 11
1.0
 21
1.0
 12
420.5
 22
297.0
 13
0.0
 23
0.0
 14
10.0
 24
10.0
 15
10.0
 25
10.0
 16
0.0
 26
0.0
 36
1.0
 17
0.0
 27
0.0
 37
0.0
 40
594.0
 41
1.4158249158
 42
50.0
 43
0.0
 44
0.0
 50
0.0
 51
0.0
 71
     0
 72
  2000
 73
     1
 74
     3
 75
     0
 76
     0
 77
     0
 78
     0
281
     0
 65
     1
110
0.0
120
0.0
130
0.0
111
1.0
121
0.0
131
0.0
112
0.0
122
1.0
132
0.0
 79
     0
146
0.0
  0
ENDTAB
  0
TABLE
  2
LTYPE
  5
5
330
0
100
AcDbSymbolTable
 70
     6
  0
LTYPE
  5
14
330
5
100
AcDbSymbolTableRecord
100
AcDbLinetypeTableRecord
  2
ByBlock
 70
     0
  3

 72
    65
 73
     0
 40
0.0
  0
LTYPE
  5
15
330
5
100
AcDbSymbolTableRecord
100
AcDbLinetypeTableRecord
  2
ByLayer
 70
     0
  3

 72
    65
 73
     0
 40
0.0
  0
LTYPE
  5
16
330
5
100
AcDbSymbolTableRecord
100
AcDbLinetypeTableRecord
  2
Continuous
 70
     0
  3
Solid line
 72
    65
 73
     0
 40
0.0
  0
LTYPE
  5
5E
330
5
100
AcDbSymbolTableRecord
100
AcDbLinetypeTableRecord
  2
HIDDEN
 70
     0
  3
Hidden __ __ __ __ __ __ __ __ __ __ __ __ __ __
 72
    65
 73
     2
 40
1.905
 49
1.27
 74
     0
 49
-0.635
 74
     0
  0
LTYPE
  5
5F
330
5
100
AcDbSymbolTableRecord
100
AcDbLinetypeTableRecord
  2
PHANTOM
 70
     0
  3
Phantom ______  __  __  ______  __  __  ______
 72
    65
 73
     6
 40
12.7
 49
6.35
 74
     0
 49
-1.27
 74
     0
 49
1.27
 74
     0
 49
-1.27
 74
     0
 49
1.27
 74
     0
 49
-1.27
 74
     0
  0
LTYPE
  5
60
330
5
100
AcDbSymbolTableRecord
100
AcDbLinetypeTableRecord
  2
CENTER
 70
     0
  3
Center ____ _ ____ _ ____ _ ____ _ ____ _ ____
 72
    65
 73
     4
 40
10.16
 49
6.35
 74
     0
 49
-1.27
 74
     0
 49
1.27
 74
     0
 49
-1.27
 74
     0
  0
LTYPE
  5
61
330
5
100
AcDbSymbolTableRecord
100
AcDbLinetypeTableRecord
  2
CENTERX2
 70
     0
  3
Center (2x) ________  __  ________  __  _____
 72
    65
 73
     4
 40
20.32
 49
12.7
 74
     0
 49
-2.54
 74
     0
 49
2.54
 74
     0
 49
-2.54
 74
     0
  0
LTYPE
  5
62
330
5
100
AcDbSymbolTableRecord
100
AcDbLinetypeTableRecord
  2
DOT2
 70
     0
  3
Dot (.5x) ........................................
 72
    65
 73
     2
 40
0.635
 49
0.0
 74
     0
 49
-0.635
 74
     0
  0
ENDTAB
  0
TABLE
  2
LAYER
  5
2
330
0
100
AcDbSymbolTable
 70
     1
  0
LAYER
  5
10
330
2
100
AcDbSymbolTableRecord
100
AcDbLayerTableRecord
  2
0
 70
     0
 62
     7
  6
Continuous
370
    -3
390
F
  0
ENDTAB
  0
TABLE
  2
STYLE
  5
3
330
0
100
AcDbSymbolTable
 70
     1
  0
STYLE
  5
11
330
3
100
AcDbSymbolTableRecord
100
AcDbTextStyleTableRecord
  2
Standard
 70
     0
 40
0.0
 41
1.0
 50
0.0
 71
     0
 42
3.5
  3
txt
  4
bigfont
  0
ENDTAB
  0
TABLE
  2
VIEW
  5
6
330
0
100
AcDbSymbolTable
 70
     0
  0
ENDTAB
  0
TABLE
  2
UCS
  5
7
330
0
100
AcDbSymbolTable
 70
     0
  0
ENDTAB
  0
TABLE
  2
APPID
  5
9
330
0
100
AcDbSymbolTable
 70
     1
  0
APPID
  5
12
330
9
100
AcDbSymbolTableRecord
100
AcDbRegAppTableRecord
  2
ACAD
 70
     0
  0
ENDTAB
  0
TABLE
  2
DIMSTYLE
  5
A
330
0
100
AcDbSymbolTable
 70
     1
100
AcDbDimStyleTable
  0
DIMSTYLE
105
27
330
A
100
AcDbSymbolTableRecord
100
AcDbDimStyleTableRecord
  2
ISO-25
 70
     0
 41
2.5
 42
0.625
 43
3.75
 44
1.25
 73
     0
 74
     0
 77
     1
 78
     8
140
2.5
141
2.5
143
0.0393700787
147
0.625
171
     3
172
     1
178
     0
271
     2
272
     2
274
     3
278
    44
283
     0
284
     8
340
11
  0
ENDTAB
  0
TABLE
  2
BLOCK_RECORD
  5
1
330
0
100
AcDbSymbolTable
 70
     4
  0
BLOCK_RECORD
  5
1F
330
1
100
AcDbSymbolTableRecord
100
AcDbBlockTableRecord
  2
*Model_Space
340
22
  0
BLOCK_RECORD
  5
1B
330
1
100
AcDbSymbolTableRecord
100
AcDbBlockTableRecord
  2
*Paper_Space
340
1E
  0
BLOCK_RECORD
  5
23
330
1
100
AcDbSymbolTableRecord
100
AcDbBlockTableRecord
  2
*Paper_Space0
340
26
  0
BLOCK_RECORD
  5
8E
330
1
100
AcDbSymbolTableRecord
100
AcDbBlockTableRecord
  2
SW_CENTERMARKSYMBOL_0
340
0
102
{BLKREFS
331
99
102
}
  0
BLOCK_RECORD
  5
9A
330
1
100
AcDbSymbolTableRecord
100
AcDbBlockTableRecord
  2
SW_CENTERMARKSYMBOL_1
340
0
102
{BLKREFS
331
A5
102
}
  0
BLOCK_RECORD
  5
A6
330
1
100
AcDbSymbolTableRecord
100
AcDbBlockTableRecord
  2
SW_CENTERMARKSYMBOL_2
340
0
102
{BLKREFS
331
B1
102
}
  0
ENDTAB
  0
ENDSEC
  0
SECTION
  2
BLOCKS
  0
BLOCK
  5
20
330
1F
100
AcDbEntity
  8
0
100
AcDbBlockBegin
  2
*Model_Space
 70
     0
 10
0.0
 20
0.0
 30
0.0
  3
*Model_Space
  1

  0
ENDBLK
  5
21
330
1F
100
AcDbEntity
  8
0
100
AcDbBlockEnd
  0
BLOCK
  5
1C
330
1B
100
AcDbEntity
 67
     1
  8
0
100
AcDbBlockBegin
  2
*Paper_Space
 70
     0
 10
0.0
 20
0.0
 30
0.0
  3
*Paper_Space
  1

  0
ENDBLK
  5
1D
330
1B
100
AcDbEntity
 67
     1
  8
0
100
AcDbBlockEnd
  0
BLOCK
  5
24
330
23
100
AcDbEntity
  8
0
100
AcDbBlockBegin
  2
*Paper_Space0
 70
     0
 10
0.0
 20
0.0
 30
0.0
  3
*Paper_Space0
  1

  0
ENDBLK
  5
25
330
23
100
AcDbEntity
  8
0
100
AcDbBlockEnd
  0
BLOCK
  5
8F
330
8E
100
AcDbEntity
  8
0
100
AcDbBlockBegin
  2
SW_CENTERMARKSYMBOL_0
 70
     0
 10
0.0
 20
0.0
 30
0.0
  3
SW_CENTERMARKSYMBOL_0
  1

  0
LINE
  5
91
330
8E
100
AcDbEntity
  8
0
  6
Continuous
 62
     0
370
    18
100
AcDbLine
 10
0.0
 20
0.0
 30
0.0
 11
0.0
 21
2.5
 31
0.0
  0
LINE
  5
92
330
8E
100
AcDbEntity
  8
0
  6
Continuous
 62
     0
370
    18
100
AcDbLine
 10
0.0
 20
0.0
 30
0.0
 11
-2.5
 21
0.0
 31
0.0
  0
LINE
  5
93
330
8E
100
AcDbEntity
  8
0
  6
Continuous
 62
     0
370
    18
100
AcDbLine
 10
0.0
 20
0.0
 30
0.0
 11
0.0
 21
-2.5
 31
0.0
  0
LINE
  5
94
330
8E
100
AcDbEntity
  8
0
  6
Continuous
 62
     0
370
    18
100
AcDbLine
 10
0.0
 20
0.0
 30
0.0
 11
2.5
 21
0.0
 31
0.0
  0
LINE
  5
95
330
8E
100
AcDbEntity
  8
0
  6
Continuous
 62
     0
370
    18
100
AcDbLine
 10
0.0
 20
5.0
 30
0.0
 11
0.0
 21
6.5
 31
0.0
  0
LINE
  5
96
330
8E
100
AcDbEntity
  8
0
  6
Continuous
 62
     0
370
    18
100
AcDbLine
 10
-5.0
 20
0.0
 30
0.0
 11
-6.5
 21
0.0
 31
0.0
  0
LINE
  5
97
330
8E
100
AcDbEntity
  8
0
  6
Continuous
 62
     0
370
    18
100
AcDbLine
 10
0.0
 20
-5.0
 30
0.0
 11
0.0
 21
-6.5
 31
0.0
  0
LINE
  5
98
330
8E
100
AcDbEntity
  8
0
  6
Continuous
 62
     0
370
    18
100
AcDbLine
 10
5.0
 20
0.0
 30
0.0
 11
6.5
 21
0.0
 31
0.0
  0
ENDBLK
  5
90
330
8E
100
AcDbEntity
  8
0
100
AcDbBlockEnd
  0
BLOCK
  5
9B
330
9A
100
AcDbEntity
  8
0
100
AcDbBlockBegin
  2
SW_CENTERMARKSYMBOL_1
 70
     0
 10
0.0
 20
0.0
 30
0.0
  3
SW_CENTERMARKSYMBOL_1
  1

  0
LINE
  5
9D
330
9A
100
AcDbEntity
  8
0
  6
Continuous
 62
     0
370
    18
100
AcDbLine
 10
0.0
 20
0.0
 30
0.0
 11
0.0
 21
2.5
 31
0.0
  0
LINE
  5
9E
330
9A
100
AcDbEntity
  8
0
  6
Continuous
 62
     0
370
    18
100
AcDbLine
 10
0.0
 20
0.0
 30
0.0
 11
-2.5
 21
0.0
 31
0.0
  0
LINE
  5
9F
330
9A
100
AcDbEntity
  8
0
  6
Continuous
 62
     0
370
    18
100
AcDbLine
 10
0.0
 20
0.0
 30
0.0
 11
0.0
 21
-2.5
 31
0.0
  0
LINE
  5
A0
330
9A
100
AcDbEntity
  8
0
  6
Continuous
 62
     0
370
    18
100
AcDbLine
 10
0.0
 20
0.0
 30
0.0
 11
2.5
 21
0.0
 31
0.0
  0
LINE
  5
A1
330
9A
100
AcDbEntity
  8
0
  6
Continuous
 62
     0
370
    18
100
AcDbLine
 10
0.0
 20
5.0
 30
0.0
 11
0.0
 21
6.5
 31
0.0
  0
LINE
  5
A2
330
9A
100
AcDbEntity
  8
0
  6
Continuous
 62
     0
370
    18
100
AcDbLine
 10
-5.0
 20
0.0
 30
0.0
 11
-6.5
 21
0.0
 31
0.0
  0
LINE
  5
A3
330
9A
100
AcDbEntity
  8
0
  6
Continuous
 62
     0
370
    18
100
AcDbLine
 10
0.0
 20
-5.0
 30
0.0
 11
0.0
 21
-6.5
 31
0.0
  0
LINE
  5
A4
330
9A
100
AcDbEntity
  8
0
  6
Continuous
 62
     0
370
    18
100
AcDbLine
 10
5.0
 20
0.0
 30
0.0
 11
6.5
 21
0.0
 31
0.0
  0
ENDBLK
  5
9C
330
9A
100
AcDbEntity
  8
0
100
AcDbBlockEnd
  0
BLOCK
  5
A7
330
A6
100
AcDbEntity
  8
0
100
AcDbBlockBegin
  2
SW_CENTERMARKSYMBOL_2
 70
     0
 10
0.0
 20
0.0
 30
0.0
  3
SW_CENTERMARKSYMBOL_2
  1

  0
LINE
  5
A9
330
A6
100
AcDbEntity
  8
0
  6
Continuous
 62
     0
370
    18
100
AcDbLine
 10
0.0
 20
0.0
 30
0.0
 11
0.0
 21
2.5
 31
0.0
  0
LINE
  5
AA
330
A6
100
AcDbEntity
  8
0
  6
Continuous
 62
     0
370
    18
100
AcDbLine
 10
0.0
 20
0.0
 30
0.0
 11
-2.5
 21
0.0
 31
0.0
  0
LINE
  5
AB
330
A6
100
AcDbEntity
  8
0
  6
Continuous
 62
     0
370
    18
100
AcDbLine
 10
0.0
 20
0.0
 30
0.0
 11
0.0
 21
-2.5
 31
0.0
  0
LINE
  5
AC
330
A6
100
AcDbEntity
  8
0
  6
Continuous
 62
     0
370
    18
100
AcDbLine
 10
0.0
 20
0.0
 30
0.0
 11
2.5
 21
0.0
 31
0.0
  0
LINE
  5
AD
330
A6
100
AcDbEntity
  8
0
  6
Continuous
 62
     0
370
    18
100
AcDbLine
 10
0.0
 20
5.0
 30
0.0
 11
0.0
 21
40.0
 31
0.0
  0
LINE
  5
AE
330
A6
100
AcDbEntity
  8
0
  6
Continuous
 62
     0
370
    18
100
AcDbLine
 10
-5.0
 20
0.0
 30
0.0
 11
-40.0
 21
0.0
 31
0.0
  0
LINE
  5
AF
330
A6
100
AcDbEntity
  8
0
  6
Continuous
 62
     0
370
    18
100
AcDbLine
 10
0.0
 20
-5.0
 30
0.0
 11
0.0
 21
-40.0
 31
0.0
  0
LINE
  5
B0
330
A6
100
AcDbEntity
  8
0
  6
Continuous
 62
     0
370
    18
100
AcDbLine
 10
5.0
 20
0.0
 30
0.0
 11
40.0
 21
0.0
 31
0.0
  0
ENDBLK
  5
A8
330
A6
100
AcDbEntity
  8
0
100
AcDbBlockEnd
  0
ENDSEC
  0
SECTION
  2
ENTITIES
  0
LINE
  5
63
330
1F
100
AcDbEntity
  8
0
  6
Continuous
 62
     7
370
    25
100
AcDbLine
 10
327.9613600818
 20
173.5279863394
 30
0.0
 11
367.9613600818
 21
173.5279863394
 31
0.0
  0
LINE
  5
64
330
1F
100
AcDbEntity
  8
0
  6
Continuous
 62
     7
370
    25
100
AcDbLine
 10
367.9613600818
 20
248.5279863394
 30
0.0
 11
327.9613600818
 21
248.5279863394
 31
0.0
  0
LINE
  5
65
330
1F
100
AcDbEntity
  8
0
  6
Continuous
 62
     7
370
    25
100
AcDbLine
 10
327.9613600818
 20
211.0279863394
 30
0.0
 11
327.9613600818
 21
248.5279863394
 31
0.0
  0
LINE
  5
66
330
1F
100
AcDbEntity
  8
0
  6
Continuous
 62
     7
370
    25
100
AcDbLine
 10
327.9613600818
 20
173.5279863394
 30
0.0
 11
327.9613600818
 21
211.0279863394
 31
0.0
  0
LINE
  5
67
330
1F
100
AcDbEntity
  8
0
  6
Continuous
 62
     7
370
    25
100
AcDbLine
 10
367.9613600818
 20
211.0279863394
 30
0.0
 11
367.9613600818
 21
248.5279863394
 31
0.0
  0
LINE
  5
68
330
1F
100
AcDbEntity
  8
0
  6
Continuous
 62
     7
370
    25
100
AcDbLine
 10
367.9613600818
 20
173.5279863394
 30
0.0
 11
367.9613600818
 21
211.0279863394
 31
0.0
  0
LINE
  5
69
330
1F
100
AcDbEntity
  8
0
  6
HIDDEN
 62
     7
370
    18
100
AcDbLine
 10
360.9613600818
 20
216.5279863394
 30
0.0
 11
360.9613600818
 21
205.5279863394
 31
0.0
  0
LINE
  5
6A
330
1F
100
AcDbEntity
  8
0
  6
HIDDEN
 62
     7
370
    18
100
AcDbLine
 10
362.9613600818
 20
211.0279863394
 30
0.0
 11
362.9613600818
 21
227.5279863394
 31
0.0
  0
LINE
  5
6B
330
1F
100
AcDbEntity
  8
0
  6
HIDDEN
 62
     7
370
    18
100
AcDbLine
 10
362.9613600818
 20
194.5279863394
 30
0.0
 11
362.9613600818
 21
211.0279863394
 31
0.0
  0
LINE
  5
6C
330
1F
100
AcDbEntity
  8
0
  6
HIDDEN
 62
     7
370
    18
100
AcDbLine
 10
367.9613600818
 20
216.5279863394
 30
0.0
 11
360.9613600818
 21
216.5279863394
 31
0.0
  0
LINE
  5
6D
330
1F
100
AcDbEntity
  8
0
  6
HIDDEN
 62
     7
370
    18
100
AcDbLine
 10
360.9613600818
 20
205.5279863394
 30
0.0
 11
367.9613600818
 21
205.5279863394
 31
0.0
  0
LINE
  5
6E
330
1F
100
AcDbEntity
  8
0
  6
HIDDEN
 62
     7
370
    18
100
AcDbLine
 10
360.9613600818
 20
215.0279863394
 30
0.0
 11
327.9613600818
 21
215.0279863394
 31
0.0
  0
LINE
  5
6F
330
1F
100
AcDbEntity
  8
0
  6
HIDDEN
 62
     7
370
    18
100
AcDbLine
 10
327.9613600818
 20
207.0279863394
 30
0.0
 11
360.9613600818
 21
207.0279863394
 31
0.0
  0
LINE
  5
70
330
1F
100
AcDbEntity
  8
0
  6
HIDDEN
 62
     7
370
    18
100
AcDbLine
 10
327.9613600818
 20
194.5279863394
 30
0.0
 11
362.9613600818
 21
194.5279863394
 31
0.0
  0
LINE
  5
71
330
1F
100
AcDbEntity
  8
0
  6
HIDDEN
 62
     7
370
    18
100
AcDbLine
 10
362.9613600818
 20
227.5279863394
 30
0.0
 11
327.9613600818
 21
227.5279863394
 31
0.0
  0
LINE
  5
72
330
1F
100
AcDbEntity
  8
0
  6
HIDDEN
 62
     7
370
    18
100
AcDbLine
 10
362.9613600818
 20
198.0279863394
 30
0.0
 11
367.9613600818
 21
198.0279863394
 31
0.0
  0
LINE
  5
73
330
1F
100
AcDbEntity
  8
0
  6
HIDDEN
 62
     7
370
    18
100
AcDbLine
 10
367.9613600818
 20
224.0279863394
 30
0.0
 11
362.9613600818
 21
224.0279863394
 31
0.0
  0
LINE
  5
74
330
1F
100
AcDbEntity
  8
0
  6
Continuous
 62
     7
370
    25
100
AcDbLine
 10
327.9613600818
 20
328.88
 30
0.0
 11
367.9613600818
 21
328.88
 31
0.0
  0
LINE
  5
75
330
1F
100
AcDbEntity
  8
0
  6
Continuous
 62
     7
370
    25
100
AcDbLine
 10
367.9613600818
 20
403.88
 30
0.0
 11
327.9613600818
 21
403.88
 31
0.0
  0
LINE
  5
76
330
1F
100
AcDbEntity
  8
0
  6
Continuous
 62
     7
370
    25
100
AcDbLine
 10
327.9613600818
 20
328.88
 30
0.0
 11
327.9613600818
 21
403.88
 31
0.0
  0
LINE
  5
77
330
1F
100
AcDbEntity
  8
0
  6
Continuous
 62
     7
370
    25
100
AcDbLine
 10
367.9613600818
 20
328.88
 30
0.0
 11
367.9613600818
 21
403.88
 31
0.0
  0
LINE
  5
78
330
1F
100
AcDbEntity
  8
0
  6
HIDDEN
 62
     7
370
    18
100
AcDbLine
 10
362.9613600818
 20
349.88
 30
0.0
 11
362.9613600818
 21
382.88
 31
0.0
  0
LINE
  5
79
330
1F
100
AcDbEntity
  8
0
  6
HIDDEN
 62
     7
370
    18
100
AcDbLine
 10
360.9613600818
 20
401.88
 30
0.0
 11
360.9613600818
 21
390.88
 31
0.0
  0
LINE
  5
7A
330
1F
100
AcDbEntity
  8
0
  6
HIDDEN
 62
     7
370
    18
100
AcDbLine
 10
360.9613600818
 20
341.88
 30
0.0
 11
360.9613600818
 21
330.88
 31
0.0
  0
LINE
  5
7B
330
1F
100
AcDbEntity
  8
0
  6
HIDDEN
 62
     7
370
    18
100
AcDbLine
 10
327.9613600818
 20
349.88
 30
0.0
 11
362.9613600818
 21
349.88
 31
0.0
  0
LINE
  5
7C
330
1F
100
AcDbEntity
  8
0
  6
HIDDEN
 62
     7
370
    18
100
AcDbLine
 10
362.9613600818
 20
382.88
 30
0.0
 11
327.9613600818
 21
382.88
 31
0.0
  0
LINE
  5
7D
330
1F
100
AcDbEntity
  8
0
  6
HIDDEN
 62
     7
370
    18
100
AcDbLine
 10
362.9613600818
 20
353.38
 30
0.0
 11
367.9613600818
 21
353.38
 31
0.0
  0
LINE
  5
7E
330
1F
100
AcDbEntity
  8
0
  6
HIDDEN
 62
     7
370
    18
100
AcDbLine
 10
367.9613600818
 20
379.38
 30
0.0
 11
362.9613600818
 21
379.38
 31
0.0
  0
LINE
  5
7F
330
1F
100
AcDbEntity
  8
0
  6
HIDDEN
 62
     7
370
    18
100
AcDbLine
 10
367.9613600818
 20
401.88
 30
0.0
 11
360.9613600818
 21
401.88
 31
0.0
  0
LINE
  5
80
330
1F
100
AcDbEntity
  8
0
  6
HIDDEN
 62
     7
370
    18
100
AcDbLine
 10
360.9613600818
 20
390.88
 30
0.0
 11
367.9613600818
 21
390.88
 31
0.0
  0
LINE
  5
81
330
1F
100
AcDbEntity
  8
0
  6
HIDDEN
 62
     7
370
    18
100
AcDbLine
 10
367.9613600818
 20
341.88
 30
0.0
 11
360.9613600818
 21
341.88
 31
0.0
  0
LINE
  5
82
330
1F
100
AcDbEntity
  8
0
  6
HIDDEN
 62
     7
370
    18
100
AcDbLine
 10
360.9613600818
 20
330.88
 30
0.0
 11
367.9613600818
 21
330.88
 31
0.0
  0
LINE
  5
83
330
1F
100
AcDbEntity
  8
0
  6
HIDDEN
 62
     7
370
    18
100
AcDbLine
 10
360.9613600818
 20
400.38
 30
0.0
 11
327.9613600818
 21
400.38
 31
0.0
  0
LINE
  5
84
330
1F
100
AcDbEntity
  8
0
  6
HIDDEN
 62
     7
370
    18
100
AcDbLine
 10
327.9613600818
 20
392.38
 30
0.0
 11
360.9613600818
 21
392.38
 31
0.0
  0
LINE
  5
85
330
1F
100
AcDbEntity
  8
0
  6
HIDDEN
 62
     7
370
    18
100
AcDbLine
 10
360.9613600818
 20
340.38
 30
0.0
 11
327.9613600818
 21
340.38
 31
0.0
  0
LINE
  5
86
330
1F
100
AcDbEntity
  8
0
  6
HIDDEN
 62
     7
370
    18
100
AcDbLine
 10
327.9613600818
 20
332.38
 30
0.0
 11
360.9613600818
 21
332.38
 31
0.0
  0
CIRCLE
  5
87
330
1F
100
AcDbEntity
  8
0
  6
Continuous
 62
     7
370
    25
100
AcDbCircle
 10
472.38
 20
211.0279863394
 30
0.0
 40
13.0
  0
CIRCLE
  5
88
330
1F
100
AcDbEntity
  8
0
  6
Continuous
 62
     7
370
    25
100
AcDbCircle
 10
472.38
 20
211.0279863394
 30
0.0
 40
37.5
  0
CIRCLE
  5
89
330
1F
100
AcDbEntity
  8
0
  6
Continuous
 62
     7
370
    25
100
AcDbCircle
 10
442.38
 20
211.0279863394
 30
0.0
 40
5.5
  0
CIRCLE
  5
8A
330
1F
100
AcDbEntity
  8
0
  6
Continuous
 62
     7
370
    25
100
AcDbCircle
 10
502.38
 20
211.0279863394
 30
0.0
 40
5.500000000000057
  0
CIRCLE
  5
8B
330
1F
100
AcDbEntity
  8
0
  6
Continuous
 62
     7
370
    25
100
AcDbCircle
 10
502.38
 20
211.0279863394
 30
0.0
 40
4.0
  0
CIRCLE
  5
8C
330
1F
100
AcDbEntity
  8
0
  6
Continuous
 62
     7
370
    25
100
AcDbCircle
 10
442.38
 20
211.0279863394
 30
0.0
 40
4.0
  0
CIRCLE
  5
8D
330
1F
100
AcDbEntity
  8
0
  6
HIDDEN
 62
     7
370
    18
100
AcDbCircle
 10
472.38
 20
211.0279863394
 30
0.0
 40
16.5
  0
INSERT
  5
99
330
1F
100
AcDbEntity
  8
0
  6
Continuous
 62
     7
370
    18
100
AcDbBlockReference
  2
SW_CENTERMARKSYMBOL_0
 10
442.38
 20
211.0279863394
 30
0.0
  0
INSERT
  5
A5
330
1F
100
AcDbEntity
  8
0
  6
Continuous
 62
     7
370
    18
100
AcDbBlockReference
  2
SW_CENTERMARKSYMBOL_1
 10
502.38
 20
211.0279863394
 30
0.0
  0
INSERT
  5
B1
330
1F
100
AcDbEntity
  8
0
  6
Continuous
 62
     7
370
    18
100
AcDbBlockReference
  2
SW_CENTERMARKSYMBOL_2
 10
472.38
 20
211.0279863394
 30
0.0
  0
LINE
  5
B2
330
1F
100
AcDbEntity
  8
0
  6
Continuous
 62
     7
370
    25
100
AcDbLine
 10
439.4893881393
 20
342.067248779
 30
0.0
 11
467.7736593868
 21
325.7390865425
 31
0.0
  0
LINE
  5
B3
330
1F
100
AcDbEntity
  8
0
  6
Continuous
 62
     7
370
    25
100
AcDbLine
 10
505.2706118607
 20
390.692751221
 30
0.0
 11
476.9863406132
 21
407.0209134575
 31
0.0
  0
LWPOLYLINE
  5
B4
330
1F
100
AcDbEntity
  8
0
  6
Continuous
 62
     7
370
    25
100
AcDbPolyline
 90
       82
 70
   128
 43
0.0
 10
477.3297474683
 20
352.9092661549
 10
477.3573895203
 20
353.7478079851
 10
477.4401494337
 20
354.6132215599
 10
477.5775294807
 20
355.5003021803
 10
477.7687034415
 20
356.403714839
 10
478.0125215734
 20
357.3180263061
 10
478.3075175255
 20
358.2377378049
 10
478.6519171574
 20
359.157318082
 10
479.0436492092
 20
360.0712366736
 10
479.4803577583
 20
360.9739971657
 10
479.959416388
 20
361.8601702505
 10
480.4779439834
 20
362.7244263787
 10
481.0328220585
 20
363.5615678123
 10
481.6207135112
 20
364.3665598843
 10
482.2380826933
 20
365.1345612776
 10
482.8812166738
 20
365.8609531415
 10
483.5462475692
 20
366.5413668697
 10
484.2291758056
 20
367.1717103742
 10
484.9258941721
 20
367.7481926948
 10
485.6322125226
 20
368.2673467991
 10
486.3438829752
 20
368.7260504332
 10
487.0566254603
 20
369.1215448995
 10
487.7661534606
 20
369.4514516478
 10
488.4681997913
 20
369.7137865799
 10
489.158542263
 20
369.9069719828
 10
489.8330290751
 20
370.0298460168
 10
490.4876037843
 20
370.0816697029
 10
491.1183297014
 20
370.0621313674
 10
491.7214135666
 20
369.9713485161
 10
492.2932283624
 20
369.8098671277
 10
492.8303351274
 20
369.5786583705
 10
493.3295036384
 20
369.279112761
 10
493.7877318372
 20
368.9130318017
 10
494.2022638854
 20
368.4826171467
 10
494.5706067385
 20
367.9904573602
 10
494.8905451394
 20
367.4395123493
 10
495.1601549408
 20
366.8330955619
 10
495.3778146776
 20
366.1748540601
 10
495.5422153186
 20
365.4687465856
 10
495.652368139
 20
364.7190197519
 10
495.7076106667
 20
363.9301825044
 10
495.7076106667
 20
363.1069790031
 10
495.652368139
 20
362.2543600907
 10
495.5422153186
 20
361.3774535177
 10
495.3778146776
 20
360.4815331034
 10
495.1601549408
 20
359.5719870186
 10
494.8905451394
 20
358.6542853805
 10
494.5706067385
 20
357.7339473546
 10
494.2022638854
 20
356.8165079623
 10
493.7877318372
 20
355.9074847918
 10
493.3295036384
 20
355.0123448156
 10
492.8303351274
 20
354.1364715108
 10
492.2932283624
 20
353.2851324825
 10
491.7214135666
 20
352.4634477837
 10
491.1183297014
 20
351.676359123
 10
490.4876037843
 20
350.9286001442
 10
489.8330290751
 20
350.2246679577
 10
489.158542263
 20
349.5687960946
 10
488.4681997913
 20
348.9649290453
 10
487.7661534606
 20
348.4166985375
 10
487.0566254603
 20
347.9274016938
 10
486.3438829752
 20
347.4999812031
 10
485.6322125226
 20
347.1370076224
 10
484.9258941721
 20
346.8406639177
 10
484.2291758056
 20
346.6127323348
 10
483.5462475692
 20
346.454583681
 10
482.8812166738
 20
346.3671690811
 10
482.2380826933
 20
346.3510142566
 10
481.6207135112
 20
346.4062163646
 10
481.0328220585
 20
346.5324434132
 10
480.4779439834
 20
346.7289362579
 10
479.959416388
 20
346.9945131678
 10
479.4803577583
 20
347.3275769319
 10
479.0436492092
 20
347.7261244657
 10
478.6519171574
 20
348.1877588575
 10
478.3075175255
 20
348.7097037835
 10
478.0125215734
 20
349.2888202057
 10
477.7687034415
 20
349.9216252498
 10
477.5775294807
 20
350.6043131517
 10
477.4401494337
 20
351.332778146
 10
477.3573895203
 20
352.1026391587
 10
477.3297474683
 20
352.9092661549
  0
LWPOLYLINE
  5
B5
330
1F
100
AcDbEntity
  8
0
  6
Continuous
 62
     7
370
    25
100
AcDbPolyline
 90
      139
 70
   128
 43
0.0
 10
460.0056313292
 20
342.9082667851
 10
460.0331110814
 20
344.3178002982
 10
460.115493382
 20
345.7561397844
 10
460.2526074812
 20
347.2203040655
 10
460.4441691889
 20
348.7072584373
 10
460.6897814643
 20
350.21392096
 10
460.9889352385
 20
351.7371688454
 10
461.3410104696
 20
353.2738449295
 10
461.7452774279
 20
354.8207642166
 10
462.2008982084
 20
356.3747204802
 10
462.7069284674
 20
357.9324929086
 10
463.2623193801
 20
359.4908527806
 10
463.8659198138
 20
361.0465701575
 10
464.5164787145
 20
362.5964205773
 10
465.2126476996
 20
364.1371917385
 10
465.9529838525
 20
365.6656901574
 10
466.7359527135
 20
367.1787477877
 10
467.55993146
 20
368.6732285864
 10
468.4232122704
 20
370.1460350139
 10
469.3240058632
 20
371.5941144539
 10
470.2604452062
 20
373.0144655406
 10
471.2305893858
 20
374.4041443795
 10
472.2324276302
 20
375.7602706491
 10
473.2638834765
 20
377.0800335704
 10
474.322819075
 20
378.3606977334
 10
475.40703962
 20
379.599608766
 10
476.5142978987
 20
380.7941988359
 10
477.6422989495
 20
381.9419919727
 10
478.7887048177
 20
383.0406091999
 10
479.9511394022
 20
384.0877734656
 10
481.1271933799
 20
385.0813143618
 10
482.3144291992
 20
386.0191726233
 10
483.5103861326
 20
386.8994043957
 10
484.7125853767
 20
387.7201852643
 10
485.91853519
 20
388.4798140353
 10
487.1257360574
 20
389.1767162621
 10
488.3316858708
 20
389.8094475083
 10
489.5338851149
 20
390.376696342
 10
490.7298420483
 20
390.8772870532
 10
491.9170778676
 20
391.3101820913
 10
493.0931318452
 20
391.6744842152
 10
494.2555664298
 20
391.9694383531
 10
495.401972298
 20
392.1944331675
 10
496.5299733487
 20
392.3490023223
 10
497.6372316275
 20
392.4328254493
 10
498.7214521725
 20
392.4457288123
 10
499.780387771
 20
392.3876856671
 10
500.8118436173
 20
392.258816317
 10
501.8136818616
 20
392.0593878634
 10
502.7838260413
 20
391.7898136522
 10
503.7202653843
 20
391.4506524171
 10
504.6210589771
 20
391.0426071217
 10
505.4843397874
 20
390.566523502
 10
506.308318534
 20
390.023388314
 10
507.091287395
 20
389.4143272885
 10
507.8316235479
 20
388.7406027974
 10
508.527792533
 20
388.0036112375
 10
509.1783514337
 20
387.2048801364
 10
509.7819518674
 20
386.3460649863
 10
510.33734278
 20
385.4289458128
 10
510.8433730391
 20
384.4554234853
 10
511.2989938196
 20
383.4275157776
 10
511.7032607778
 20
382.3473531854
 10
512.0553360089
 20
381.2171745105
 10
512.3544897831
 20
380.039322221
 10
512.6001020586
 20
378.8162375954
 10
512.7916637663
 20
377.5504556634
 10
512.9287778654
 20
376.2445999515
 10
513.011160166
 20
374.901377045
 10
513.0386399182
 20
373.5235709784
 10
513.011160166
 20
372.1140374653
 10
512.9287778654
 20
370.6756979791
 10
512.7916637663
 20
369.2115336981
 10
512.6001020586
 20
367.7245793262
 10
512.3544897831
 20
366.2179168035
 10
512.0553360089
 20
364.6946689182
 10
511.7032607778
 20
363.1579928341
 10
511.2989938196
 20
361.611073547
 10
510.8433730391
 20
360.0571172834
 10
510.33734278
 20
358.4993448549
 10
509.7819518674
 20
356.9409849829
 10
509.1783514337
 20
355.385267606
 10
508.527792533
 20
353.8354171862
 10
507.8316235479
 20
352.2946460251
 10
507.091287395
 20
350.7661476062
 10
506.308318534
 20
349.2530899758
 10
505.4843397874
 20
347.7586091771
 10
504.6210589771
 20
346.2858027496
 10
503.7202653843
 20
344.8377233097
 10
502.7838260413
 20
343.417372223
 10
501.8136818616
 20
342.027693384
 10
500.8118436173
 20
340.6715671145
 10
499.780387771
 20
339.3518041931
 10
498.7214521725
 20
338.0711400301
 10
497.6372316275
 20
336.8322289975
 10
496.5299733487
 20
335.6376389277
 10
495.401972298
 20
334.4898457908
 10
494.2555664298
 20
333.3912285636
 10
493.0931318452
 20
332.344064298
 10
491.9170778676
 20
331.3505234018
 10
490.7298420483
 20
330.4126651402
 10
489.5338851149
 20
329.5324333678
 10
488.3316858708
 20
328.7116524993
 10
487.1257360574
 20
327.9520237283
 10
485.91853519
 20
327.2551215015
 10
484.7125853767
 20
326.6223902552
 10
483.5103861326
 20
326.0551414215
 10
482.3144291992
 20
325.5545507103
 10
481.1271933799
 20
325.1216556722
 10
479.9511394022
 20
324.7573535483
 10
478.7887048177
 20
324.4623994105
 10
477.6422989495
 20
324.2374045961
 10
476.5142978987
 20
324.0828354413
 10
475.40703962
 20
323.9990123143
 10
474.322819075
 20
323.9861089513
 10
473.2638834765
 20
324.0441520964
 10
472.2324276302
 20
324.1730214465
 10
471.2305893858
 20
324.3724499002
 10
470.2604452062
 20
324.6420241113
 10
469.3240058632
 20
324.9811853464
 10
468.4232122704
 20
325.3892306419
 10
467.55993146
 20
325.8653142616
 10
466.7359527135
 20
326.4084494495
 10
465.9529838525
 20
327.017510475
 10
465.2126476996
 20
327.6912349662
 10
464.5164787145
 20
328.4282265261
 10
463.8659198138
 20
329.2269576271
 10
463.2623193801
 20
330.0857727772
 10
462.7069284674
 20
331.0028919508
 10
462.2008982084
 20
331.9764142782
 10
461.7452774279
 20
333.0043219859
 10
461.3410104696
 20
334.0844845781
 10
460.9889352385
 20
335.214663253
 10
460.6897814643
 20
336.3925155426
 10
460.4441691889
 20
337.6156001682
 10
460.2526074812
 20
338.8813821001
 10
460.115493382
 20
340.187237812
 10
460.0331110814
 20
341.5304607185
 10
460.0056313292
 20
342.9082667851
  0
LWPOLYLINE
  5
B6
330
1F
100
AcDbEntity
  8
0
  6
Continuous
 62
     7
370
    25
100
AcDbPolyline
 90
       53
 70
   128
 43
0.0
 10
469.1980194847
 20
348.2149195119
 10
469.1696636595
 20
348.7398771957
 10
469.085009676
 20
349.2244408755
 10
468.9452919796
 20
349.6615445218
 10
468.7525479691
 20
350.0448141791
 10
468.5095882862
 20
350.3686609127
 10
468.2199558302
 20
350.6283623081
 10
467.8878740943
 20
350.8201313342
 10
467.5181855783
 20
350.9411715666
 10
467.1162811729
 20
350.9897179662
 10
466.6880215496
 20
350.9650626173
 10
466.239651698
 20
350.8675650503
 10
465.7777098601
 20
350.6986469993
 10
465.3089321881
 20
350.4607716698
 10
464.8401545162
 20
350.1574078198
 10
464.3782126783
 20
349.7929791774
 10
463.9298428267
 20
349.3727999328
 10
463.5015832033
 20
348.9029972455
 10
463.099678798
 20
348.3904218966
 10
462.7299902819
 20
347.8425483889
 10
462.3979085461
 20
347.2673659519
 10
462.10827609
 20
346.6732620406
 10
461.8653164071
 20
346.068900028
 10
461.6725723967
 20
345.4630928731
 10
461.5328547003
 20
344.8646746083
 10
461.4482007167
 20
344.2823715195
 10
461.4198448916
 20
343.7246748969
 10
461.4482007167
 20
343.1997172132
 10
461.5328547003
 20
342.7151535334
 10
461.6725723967
 20
342.2780498871
 10
461.8653164071
 20
341.8947802298
 10
462.10827609
 20
341.5709334961
 10
462.3979085461
 20
341.3112321007
 10
462.7299902819
 20
341.1194630747
 10
463.099678798
 20
340.9984228423
 10
463.5015832033
 20
340.9498764426
 10
463.9298428267
 20
340.9745317916
 10
464.3782126783
 20
341.0720293586
 10
464.8401545162
 20
341.2409474096
 10
465.3089321881
 20
341.4788227391
 10
465.7777098601
 20
341.782186589
 10
466.239651698
 20
342.1466152314
 10
466.6880215496
 20
342.5667944761
 10
467.1162811729
 20
343.0365971634
 10
467.5181855783
 20
343.5491725123
 10
467.8878740943
 20
344.09704602
 10
468.2199558302
 20
344.672228457
 10
468.5095882862
 20
345.2663323682
 10
468.7525479691
 20
345.8706943808
 10
468.9452919796
 20
346.4765015358
 10
469.085009676
 20
347.0749198006
 10
469.1696636595
 20
347.6572228894
 10
469.1980194847
 20
348.2149195119
  0
LWPOLYLINE
  5
B7
330
1F
100
AcDbEntity
  8
0
  6
Continuous
 62
     7
370
    25
100
AcDbPolyline
 90
       53
 70
   128
 43
0.0
 10
511.6244263559
 20
372.7071628666
 10
511.5960705307
 20
373.2321205504
 10
511.5114165471
 20
373.7166842302
 10
511.3716988508
 20
374.1537878765
 10
511.1789548403
 20
374.5370575337
 10
510.9359951574
 20
374.8609042674
 10
510.6463627014
 20
375.1206056628
 10
510.3142809655
 20
375.3123746888
 10
509.9445924494
 20
375.4334149213
 10
509.5426880441
 20
375.4819613209
 10
509.1144284208
 20
375.457305972
 10
508.6660585692
 20
375.359808405
 10
508.2041167313
 20
375.190890354
 10
507.7353390593
 20
374.9530150245
 10
507.2665613874
 20
374.6496511745
 10
506.8046195495
 20
374.2852225321
 10
506.3562496978
 20
373.8650432875
 10
505.9279900745
 20
373.3952406002
 10
505.5260856692
 20
372.8826652513
 10
505.1563971531
 20
372.3347917436
 10
504.8243154173
 20
371.7596093066
 10
504.5346829612
 20
371.1655053953
 10
504.2917232783
 20
370.5611433827
 10
504.0989792679
 20
369.9553362278
 10
503.9592615715
 20
369.356917963
 10
503.8746075879
 20
368.7746148742
 10
503.8462517628
 20
368.2169182516
 10
503.8746075879
 20
367.6919605678
 10
503.9592615715
 20
367.207396888
 10
504.0989792679
 20
366.7702932418
 10
504.2917232783
 20
366.3870235845
 10
504.5346829612
 20
366.0631768508
 10
504.8243154173
 20
365.8034754554
 10
505.1563971531
 20
365.6117064294
 10
505.5260856692
 20
365.490666197
 10
505.9279900745
 20
365.4421197973
 10
506.3562496978
 20
365.4667751463
 10
506.8046195495
 20
365.5642727133
 10
507.2665613874
 20
365.7331907643
 10
507.7353390593
 20
365.9710660937
 10
508.2041167313
 20
366.2744299437
 10
508.6660585692
 20
366.6388585861
 10
509.1144284208
 20
367.0590378308
 10
509.5426880441
 20
367.5288405181
 10
509.9445924494
 20
368.041415867
 10
510.3142809655
 20
368.5892893747
 10
510.6463627014
 20
369.1644718117
 10
510.9359951574
 20
369.7585757229
 10
511.1789548403
 20
370.3629377355
 10
511.3716988508
 20
370.9687448904
 10
511.5114165471
 20
371.5671631552
 10
511.5960705307
 20
372.149466244
 10
511.6244263559
 20
372.7071628666
  0
LWPOLYLINE
  5
B8
330
1F
100
AcDbEntity
  8
0
  6
Continuous
 62
     7
370
    25
100
AcDbPolyline
 90
       53
 70
   128
 43
0.0
 10
431.7213600818
 20
359.2364290216
 10
431.748839834
 20
360.6459625347
 10
431.8312221346
 20
362.0843020208
 10
431.9683362337
 20
363.5484663019
 10
432.1598979414
 20
365.0354206738
 10
432.4055102169
 20
366.5420831965
 10
432.7046639911
 20
368.0653310818
 10
433.0567392222
 20
369.6020071659
 10
433.4610061804
 20
371.148926453
 10
433.9166269609
 20
372.7028827166
 10
434.42265722
 20
374.2606551451
 10
434.9780481326
 20
375.8190150171
 10
435.5816485663
 20
377.374732394
 10
436.232207467
 20
378.9245828138
 10
436.9283764521
 20
380.4653539749
 10
437.668712605
 20
381.9938523938
 10
438.451681466
 20
383.5069100242
 10
439.2756602126
 20
385.0013908229
 10
440.1389410229
 20
386.4741972504
 10
441.0397346157
 20
387.9222766903
 10
441.9761739587
 20
389.342627777
 10
442.9463181384
 20
390.732306616
 10
443.9481563827
 20
392.0884328855
 10
444.979612229
 20
393.4081958069
 10
446.0385478275
 20
394.6888599699
 10
447.1227683725
 20
395.9277710025
 10
448.2300266513
 20
397.1223610723
 10
449.358027702
 20
398.2701542092
 10
450.5044335702
 20
399.3687714364
 10
451.6668681548
 20
400.415935702
 10
452.8429221324
 20
401.4094765982
 10
454.0301579517
 20
402.3473348598
 10
455.2261148851
 20
403.2275666322
 10
456.4283141292
 20
404.0483475007
 10
457.6342639426
 20
404.8079762717
 10
458.84146481
 20
405.5048784985
 10
460.0474146233
 20
406.1376097448
 10
461.2496138674
 20
406.7048585785
 10
462.4455708008
 20
407.2054492897
 10
463.6328066201
 20
407.6383443278
 10
464.8088605978
 20
408.0026464517
 10
465.9712951823
 20
408.2976005895
 10
467.1177010505
 20
408.5225954039
 10
468.2457021013
 20
408.6771645587
 10
469.35296038
 20
408.7609876857
 10
470.437180925
 20
408.7738910487
 10
471.4961165235
 20
408.7158479036
 10
472.5275723698
 20
408.5869785535
 10
473.5294106142
 20
408.3875500998
 10
474.4995547938
 20
408.1179758887
 10
475.4359941368
 20
407.7788146536
 10
476.3367877296
 20
407.3707693581
 10
476.9863406132
 20
407.0209134575
  0
LWPOLYLINE
  5
B9
330
1F
100
AcDbEntity
  8
0
  6
Continuous
 62
     7
370
    25
100
AcDbPolyline
 90
       19
 70
   128
 43
0.0
 10
439.4893881393
 20
342.067248779
 10
439.2756602126
 20
342.193476498
 10
438.451681466
 20
342.736611686
 10
437.668712605
 20
343.3456727115
 10
436.9283764521
 20
344.0193972026
 10
436.232207467
 20
344.7563887625
 10
435.5816485663
 20
345.5551198636
 10
434.9780481326
 20
346.4139350137
 10
434.42265722
 20
347.3310541872
 10
433.9166269609
 20
348.3045765147
 10
433.4610061804
 20
349.3324842224
 10
433.0567392222
 20
350.4126468146
 10
432.7046639911
 20
351.5428254895
 10
432.4055102169
 20
352.720677779
 10
432.1598979414
 20
353.9437624046
 10
431.9683362337
 20
355.2095443366
 10
431.8312221346
 20
356.5154000485
 10
431.748839834
 20
357.858622955
 10
431.7213600818
 20
359.2364290216
  0
ARC
  5
BA
330
1F
100
AcDbEntity
  8
0
  6
Continuous
 62
     7
370
    25
100
AcDbCircle
 10
455.2196093897
 20
351.7942392792
 30
0.0
 40
9.113519596275609
100
AcDbArc
 50
314.7422250333
 51
345.2631514994
  0
LWPOLYLINE
  5
BB
330
1F
100
AcDbEntity
  8
0
  6
Continuous
 62
     7
370
    25
100
AcDbPolyline
 90
       36
 70
   128
 43
0.0
 10
491.0088989347
 20
370.0707671393
 10
491.0350728326
 20
370.0314776398
 10
491.3550112335
 20
369.4805326288
 10
491.6246210349
 20
368.8741158415
 10
491.8422807717
 20
368.2158743396
 10
492.0066814127
 20
367.5097668652
 10
492.116834233
 20
366.7600400315
 10
492.1720767607
 20
365.9712027839
 10
492.1720767607
 20
365.1479992826
 10
492.116834233
 20
364.2953803702
 10
492.0066814127
 20
363.4184737973
 10
491.8422807717
 20
362.522553383
 10
491.6246210349
 20
361.6130072982
 10
491.3550112335
 20
360.69530566
 10
491.0350728326
 20
359.7749676342
 10
490.6667299794
 20
358.8575282418
 10
490.2521979312
 20
357.9485050714
 10
489.7939697325
 20
357.0533650952
 10
489.2948012215
 20
356.1774917904
 10
488.7576944565
 20
355.326152762
 10
488.1858796606
 20
354.5044680633
 10
487.5827957955
 20
353.7173794026
 10
486.9520698784
 20
352.9696204238
 10
486.2974951691
 20
352.2656882373
 10
485.6230083571
 20
351.6098163741
 10
484.9326658853
 20
351.0059493249
 10
484.2306195547
 20
350.457718817
 10
483.5210915544
 20
349.9684219733
 10
482.8083490693
 20
349.5410014826
 10
482.0966786166
 20
349.178027902
 10
481.3903602662
 20
348.8816841973
 10
480.6936418997
 20
348.6537526143
 10
480.0107136633
 20
348.4956039606
 10
479.3456827679
 20
348.4081893606
 10
478.7025487874
 20
348.3920345362
 10
478.4998384068
 20
348.4020909038
  0
ARC
  5
BC
330
1F
100
AcDbEntity
  8
0
  6
Continuous
 62
     7
370
    25
100
AcDbCircle
 10
497.6460162609
 20
376.2864826339
 30
0.0
 40
9.11351959627691
100
AcDbArc
 50
314.7422250333
 51
345.2631514994
  0
LWPOLYLINE
  5
BD
330
1F
100
AcDbEntity
  8
0
  6
HIDDEN
 62
     7
370
    18
100
AcDbPolyline
 90
       71
 70
   128
 43
0.0
 10
476.9863406132
 20
407.0209134575
 10
477.20006854
 20
406.8946857384
 10
478.0240472865
 20
406.3515505505
 10
478.8070161475
 20
405.742489525
 10
479.5473523004
 20
405.0687650338
 10
480.2435212855
 20
404.3317734739
 10
480.8940801862
 20
403.5330423729
 10
481.4976806199
 20
402.6742272228
 10
482.0530715326
 20
401.7571080492
 10
482.5591017916
 20
400.7835857218
 10
483.0147225721
 20
399.7556780141
 10
483.4189895304
 20
398.6755154219
 10
483.7710647615
 20
397.545336747
 10
484.0702185357
 20
396.3674844574
 10
484.3158308111
 20
395.1443998318
 10
484.5073925188
 20
393.8786178999
 10
484.644506618
 20
392.572762188
 10
484.7268889186
 20
391.2295392815
 10
484.7543686708
 20
389.8517332149
 10
484.7268889186
 20
388.4421997018
 10
484.644506618
 20
387.0038602156
 10
484.5073925188
 20
385.5396959345
 10
484.3158308111
 20
384.0527415627
 10
484.0702185357
 20
382.54607904
 10
483.7710647615
 20
381.0228311546
 10
483.4189895304
 20
379.4861550705
 10
483.0147225721
 20
377.9392357834
 10
482.5591017916
 20
376.3852795198
 10
482.0530715326
 20
374.8275070914
 10
481.4976806199
 20
373.2691472194
 10
480.8940801862
 20
371.7134298425
 10
480.2435212855
 20
370.1635794227
 10
479.5473523004
 20
368.6228082615
 10
478.8070161475
 20
367.0943098426
 10
478.0240472865
 20
365.5812522123
 10
477.20006854
 20
364.0867714136
 10
476.3367877296
 20
362.6139649861
 10
475.4359941368
 20
361.1658855461
 10
474.4995547938
 20
359.7455344594
 10
473.5294106142
 20
358.3558556205
 10
472.5275723698
 20
356.9997293509
 10
471.4961165235
 20
355.6799664296
 10
470.437180925
 20
354.3993022666
 10
469.35296038
 20
353.160391234
 10
468.2457021013
 20
351.9658011641
 10
467.1177010505
 20
350.8180080273
 10
465.9712951823
 20
349.7193908001
 10
464.8088605978
 20
348.6722265344
 10
463.6328066201
 20
347.6786856382
 10
462.4455708008
 20
346.7408273767
 10
461.2496138674
 20
345.8605956043
 10
460.0474146233
 20
345.0398147357
 10
458.84146481
 20
344.2801859647
 10
457.6342639426
 20
343.5832837379
 10
456.4283141292
 20
342.9505524917
 10
455.2261148851
 20
342.383303658
 10
454.0301579517
 20
341.8827129468
 10
452.8429221324
 20
341.4498179087
 10
451.6668681548
 20
341.0855157848
 10
450.5044335702
 20
340.7905616469
 10
449.358027702
 20
340.5655668325
 10
448.2300266513
 20
340.4109976777
 10
447.1227683725
 20
340.3271745507
 10
446.0385478275
 20
340.3142711877
 10
444.979612229
 20
340.3723143329
 10
443.9481563827
 20
340.501183683
 10
442.9463181384
 20
340.7006121366
 10
441.9761739587
 20
340.9701863478
 10
441.0397346157
 20
341.3093475829
 10
440.1389410229
 20
341.7173928783
 10
439.4893881393
 20
342.067248779
  0
LWPOLYLINE
  5
BE
330
1F
100
AcDbEntity
  8
0
  6
HIDDEN
 62
     7
370
    18
100
AcDbPolyline
 90
       43
 70
   128
 43
0.0
 10
464.2482720164
 20
351.0723479033
 10
464.2199161912
 20
351.5973055871
 10
464.1352622076
 20
352.0818692669
 10
463.9955445113
 20
352.5189729132
 10
463.8028005008
 20
352.9022425704
 10
463.5598408179
 20
353.2260893041
 10
463.2702083619
 20
353.4857906995
 10
462.938126626
 20
353.6775597255
 10
462.5684381099
 20
353.798599958
 10
462.1665337046
 20
353.8471463576
 10
461.7382740813
 20
353.8224910087
 10
461.2899042297
 20
353.7249934417
 10
460.8279623918
 20
353.5560753906
 10
460.3591847198
 20
353.3182000612
 10
459.8904070479
 20
353.0148362112
 10
459.42846521
 20
352.6504075688
 10
458.9800953583
 20
352.2302283242
 10
458.551835735
 20
351.7604256369
 10
458.1499313297
 20
351.247850288
 10
457.7802428136
 20
350.6999767803
 10
457.4481610778
 20
350.1247943432
 10
457.1585286217
 20
349.530690432
 10
456.9155689388
 20
348.9263284194
 10
456.7228249284
 20
348.3205212645
 10
456.583107232
 20
347.7221029997
 10
456.4984532484
 20
347.1397999109
 10
456.4700974233
 20
346.5821032883
 10
456.4984532484
 20
346.0571456045
 10
456.583107232
 20
345.5725819247
 10
456.7228249284
 20
345.1354782785
 10
456.9155689388
 20
344.7522086212
 10
457.1585286217
 20
344.4283618875
 10
457.4481610778
 20
344.1686604921
 10
457.7802428136
 20
343.9768914661
 10
458.1499313297
 20
343.8558512337
 10
458.551835735
 20
343.807304834
 10
458.9800953583
 20
343.831960183
 10
459.42846521
 20
343.92945775
 10
459.8904070479
 20
344.098375801
 10
460.3591847198
 20
344.3362511304
 10
460.8279623918
 20
344.6396149804
 10
461.2899042297
 20
345.0040436228
 10
461.6347830365
 20
345.3210803507
  0
ARC
  5
BF
330
1F
100
AcDbEntity
  8
0
  6
HIDDEN
 62
     7
370
    18
100
AcDbCircle
 10
457.7289157745
 20
351.1374340921
 30
0.0
 40
6.519681128684308
100
AcDbArc
 50
345.2357490363
 51
359.4280048681
  0
LWPOLYLINE
  5
C0
330
1F
100
AcDbEntity
  8
0
  6
HIDDEN
 62
     7
370
    18
100
AcDbPolyline
 90
       46
 70
   128
 43
0.0
 10
463.1876118446
 20
350.4600418195
 10
463.1600857862
 20
349.9895892968
 10
463.0780433746
 20
349.4965126869
 10
462.9430814719
 20
348.990409165
 10
462.7578269581
 20
348.4811294606
 10
462.5258856015
 20
347.9785861238
 10
462.2517718769
 20
347.492560589
 10
461.940821096
 20
347.0325127904
 10
461.5990855621
 20
346.6073970351
 10
461.2332167687
 20
346.2254877177
 10
460.8503359357
 20
345.8942182687
 10
460.4578954029
 20
345.6200364711
 10
460.063533579
 20
345.4082789616
 10
459.6749262682
 20
345.2630673594
 10
459.2996372699
 20
345.1872280431
 10
458.9449711575
 20
345.1822371387
 10
458.6178311034
 20
345.2481917885
 10
458.3245845166
 20
345.3838082603
 10
458.0709391086
 20
345.5864469337
 10
457.8618317985
 20
345.8521636774
 10
457.7013326223
 20
346.1757866173
 10
457.5925655139
 20
346.5510168009
 10
457.5376475014
 20
346.9705507996
 10
457.5376475014
 20
347.4262228612
 10
457.5925655139
 20
347.9091638475
 10
457.7013326223
 20
348.4099738614
 10
457.8618317985
 20
348.9189052057
 10
458.0709391086
 20
349.4260521107
 10
458.3245845166
 20
349.9215435387
 10
458.6178311034
 20
350.3957353127
 10
458.9449711575
 20
350.8393978293
 10
459.2996372699
 20
351.2438957021
 10
459.6749262682
 20
351.6013558402
 10
460.063533579
 20
351.9048206887
 10
460.4578954029
 20
352.1483836494
 10
460.8503359357
 20
352.3273040463
 10
461.2332167687
 20
352.4380993975
 10
461.5990855621
 20
352.4786131974
 10
461.940821096
 20
352.4480568911
 10
462.2517718769
 20
352.3470252222
 10
462.5258856015
 20
352.1774846573
 10
462.7578269581
 20
351.9427351107
 10
462.9430814719
 20
351.6473457151
 10
463.0780433746
 20
351.2970658893
 10
463.1600857862
 20
350.8987134316
 10
463.1876118446
 20
350.4600418195
  0
LWPOLYLINE
  5
C1
330
1F
100
AcDbEntity
  8
0
  6
HIDDEN
 62
     7
370
    18
100
AcDbPolyline
 90
       46
 70
   128
 43
0.0
 10
439.8530880654
 20
363.9307756645
 10
439.8255620071
 20
364.3694472767
 10
439.7435195954
 20
364.7677997344
 10
439.6085576928
 20
365.1180795602
 10
439.4233031789
 20
365.4134689557
 10
439.1913618224
 20
365.6482185024
 10
438.9172480977
 20
365.8177590673
 10
438.6062973168
 20
365.9187907361
 10
438.264561783
 20
365.9493470425
 10
437.8986929896
 20
365.9088332425
 10
437.5158121565
 20
365.7980378914
 10
437.1233716238
 20
365.6191174944
 10
436.7290097999
 20
365.3755545338
 10
436.3404024891
 20
365.0720896853
 10
435.9651134907
 20
364.7146295472
 10
435.6104473783
 20
364.3101316743
 10
435.2833073242
 20
363.8664691578
 10
434.9900607375
 20
363.3922773838
 10
434.7364153294
 20
362.8967859558
 10
434.5273080193
 20
362.3896390508
 10
434.3668088431
 20
361.8807077065
 10
434.2580417348
 20
361.3798976926
 10
434.2031237222
 20
360.8969567063
 10
434.2031237222
 20
360.4412846447
 10
434.2580417348
 20
360.021750646
 10
434.3668088431
 20
359.6465204624
 10
434.5273080193
 20
359.3228975225
 10
434.7364153294
 20
359.0571807788
 10
434.9900607375
 20
358.8545421054
 10
435.2833073242
 20
358.7189256336
 10
435.6104473783
 20
358.6529709838
 10
435.9651134907
 20
358.6579618882
 10
436.3404024891
 20
358.7338012045
 10
436.7290097999
 20
358.8790128067
 10
437.1233716238
 20
359.0907703162
 10
437.5158121565
 20
359.3649521138
 10
437.8986929896
 20
359.6962215628
 10
438.264561783
 20
360.0781308802
 10
438.6062973168
 20
360.5032466355
 10
438.9172480977
 20
360.9632944341
 10
439.1913618224
 20
361.4493199689
 10
439.4233031789
 20
361.9518633057
 10
439.6085576928
 20
362.4611430101
 10
439.7435195954
 20
362.967246532
 10
439.8255620071
 20
363.4603231419
 10
439.8530880654
 20
363.9307756645
  0
LWPOLYLINE
  5
C2
330
1F
100
AcDbEntity
  8
0
  6
HIDDEN
 62
     7
370
    18
100
AcDbPolyline
 90
       92
 70
   128
 43
0.0
 10
471.3193398282
 20
353.5215722388
 10
471.3471397363
 20
354.4671331877
 10
471.4304069813
 20
355.4402851987
 10
471.5687447569
 20
356.4363907594
 10
471.7614938205
 20
357.450702973
 10
472.0077356352
 20
358.4783881801
 10
472.3062967465
 20
359.5145489925
 10
472.6557543748
 20
360.5542476321
 10
473.0544431953
 20
361.5925294615
 10
473.5004632743
 20
362.6244465949
 10
473.9916891229
 20
363.6450814772
 10
474.5257798262
 20
364.6495703185
 10
475.100190199
 20
365.6331262718
 10
475.712182914
 20
366.5910622453
 10
476.3588415474
 20
367.5188132378
 10
477.0370844763
 20
368.4119580932
 10
477.7436795643
 20
369.2662405696
 10
478.4752595639
 20
370.0775896221
 10
479.2283381633
 20
370.8421388027
 10
479.9993266001
 20
371.5562446867
 10
480.7845507632
 20
372.2165042341
 10
481.580268702
 20
372.8197710076
 10
482.3826884579
 20
373.3631701662
 10
483.1879861356
 20
373.8441121656
 10
483.9923241248
 20
374.260305098
 10
484.7918693888
 20
374.6097656147
 10
485.5828117302
 20
374.890828377
 10
486.3613819485
 20
375.102153993
 10
487.1238698022
 20
375.2427353999
 10
487.8666416894
 20
375.3119026632
 10
488.5861579638
 20
375.3093261694
 10
489.2789898026
 20
375.2350181967
 10
489.9418355467
 20
375.0893328564
 10
490.5715364341
 20
374.8729644056
 10
491.1650916535
 20
374.5869439383
 10
491.7196726439
 20
374.2326344724
 10
492.2326365743
 20
373.8117244539
 10
492.7015389379
 20
373.3262197106
 10
493.1241452016
 20
372.7784338938
 10
493.498441454
 20
372.1709774524
 10
493.8226440029
 20
371.5067451929
 10
494.0952078757
 20
370.7889024844
 10
494.3148341813
 20
370.0208701746
 10
494.4804763003
 20
369.2063082869
 10
494.5913448727
 20
368.3490985799
 10
494.6469115591
 20
367.4533260481
 10
494.6469115591
 20
366.5232594556
 10
494.5913448727
 20
365.5633309932
 10
494.4804763003
 20
364.5781151572
 10
494.3148341813
 20
363.5723069497
 10
494.0952078757
 20
362.5506995049
 10
493.8226440029
 20
361.5181612475
 10
493.498441454
 20
360.4796126925
 10
493.1241452016
 20
359.4400029967
 10
492.7015389379
 20
358.4042863738
 10
492.2326365743
 20
357.3773984851
 10
491.7196726439
 20
356.364232919
 10
491.1650916535
 20
355.3696178709
 10
490.5715364341
 20
354.3982931345
 10
489.9418355467
 20
353.4548875144
 10
489.2789898026
 20
352.543896768
 10
488.5861579638
 20
351.6696621811
 10
487.8666416894
 20
350.8363498797
 10
487.1238698022
 20
350.0479309763
 10
486.3613819485
 20
349.308162646
 10
485.5828117302
 20
348.6205702219
 10
484.7918693888
 20
347.988430395
 10
483.9923241248
 20
347.4147555994
 10
483.1879861356
 20
346.9022796567
 10
482.3826884579
 20
346.4534447483
 10
481.580268702
 20
346.0703897768
 10
480.7845507632
 20
345.7549401737
 10
479.9993266001
 20
345.5085991999
 10
479.2283381633
 20
345.3325407824
 10
478.4752595639
 20
345.2276039197
 10
477.7436795643
 20
345.1942886837
 10
477.0370844763
 20
345.2327538368
 10
476.3588415474
 20
345.3428160749
 10
475.712182914
 20
345.5239509014
 10
475.100190199
 20
345.7752951263
 10
474.5257798262
 20
346.0956509799
 10
473.9916891229
 20
346.4834918207
 10
473.5004632743
 20
346.9369694106
 10
473.0544431953
 20
347.4539227221
 10
472.6557543748
 20
348.0318882374
 10
472.3062967465
 20
348.6681116877
 10
472.0077356352
 20
349.3595611784
 10
471.7614938205
 20
350.1029416378
 10
471.5687447569
 20
350.8947105195
 10
471.4304069813
 20
351.7310946842
 10
471.3471397363
 20
352.6081083806
 10
471.3193398282
 20
353.5215722388
  0
LWPOLYLINE
  5
C3
330
1F
100
AcDbEntity
  8
0
  6
HIDDEN
 62
     7
370
    18
100
AcDbPolyline
 90
       92
 70
   128
 43
0.0
 10
446.5706024867
 20
367.8087141957
 10
446.5984023948
 20
368.7542751446
 10
446.6816696398
 20
369.7274271556
 10
446.8200074153
 20
370.7235327163
 10
447.012756479
 20
371.7378449299
 10
447.2589982937
 20
372.765530137
 10
447.557559405
 20
373.8016909494
 10
447.9070170333
 20
374.841389589
 10
448.3057058538
 20
375.8796714184
 10
448.7517259327
 20
376.9115885518
 10
449.2429517813
 20
377.9322234341
 10
449.7770424847
 20
378.9367122754
 10
450.3514528574
 20
379.9202682287
 10
450.9634455725
 20
380.8782042022
 10
451.6101042059
 20
381.8059551947
 10
452.2883471348
 20
382.6991000501
 10
452.9949422228
 20
383.5533825265
 10
453.7265222224
 20
384.364731579
 10
454.4796008218
 20
385.1292807596
 10
455.2505892586
 20
385.8433866436
 10
456.0358134217
 20
386.503646191
 10
456.8315313604
 20
387.1069129644
 10
457.6339511164
 20
387.6503121231
 10
458.4392487941
 20
388.1312541225
 10
459.2435867833
 20
388.5474470549
 10
460.0431320473
 20
388.8969075716
 10
460.8340743887
 20
389.1779703339
 10
461.612644607
 20
389.3892959499
 10
462.3751324607
 20
389.5298773568
 10
463.1179043479
 20
389.5990446201
 10
463.8374206222
 20
389.5964681263
 10
464.5302524611
 20
389.5221601536
 10
465.1930982051
 20
389.3764748133
 10
465.8227990926
 20
389.1601063625
 10
466.416354312
 20
388.8740858952
 10
466.9709353023
 20
388.5197764293
 10
467.4838992327
 20
388.0988664108
 10
467.9528015964
 20
387.6133616675
 10
468.3754078601
 20
387.0655758507
 10
468.7497041124
 20
386.4581194093
 10
469.0739066614
 20
385.7938871497
 10
469.3464705341
 20
385.0760444413
 10
469.5660968397
 20
384.3080121315
 10
469.7317389588
 20
383.4934502438
 10
469.8426075311
 20
382.6362405368
 10
469.8981742176
 20
381.740468005
 10
469.8981742176
 20
380.8104014125
 10
469.8426075311
 20
379.8504729501
 10
469.7317389588
 20
378.8652571141
 10
469.5660968397
 20
377.8594489066
 10
469.3464705341
 20
376.8378414618
 10
469.0739066614
 20
375.8053032044
 10
468.7497041124
 20
374.7667546494
 10
468.3754078601
 20
373.7271449536
 10
467.9528015964
 20
372.6914283307
 10
467.4838992327
 20
371.664540442
 10
466.9709353023
 20
370.6513748759
 10
466.416354312
 20
369.6567598278
 10
465.8227990926
 20
368.6854350914
 10
465.1930982051
 20
367.7420294713
 10
464.5302524611
 20
366.8310387249
 10
463.8374206222
 20
365.956804138
 10
463.1179043479
 20
365.1234918366
 10
462.3751324607
 20
364.3350729332
 10
461.612644607
 20
363.5953046029
 10
460.8340743887
 20
362.9077121788
 10
460.0431320473
 20
362.2755723519
 10
459.2435867833
 20
361.7018975563
 10
458.4392487941
 20
361.1894216136
 10
457.6339511164
 20
360.7405867052
 10
456.8315313604
 20
360.3575317337
 10
456.0358134217
 20
360.0420821306
 10
455.2505892586
 20
359.7957411568
 10
454.4796008218
 20
359.6196827393
 10
453.7265222224
 20
359.5147458766
 10
452.9949422228
 20
359.4814306406
 10
452.2883471348
 20
359.5198957937
 10
451.6101042059
 20
359.6299580318
 10
450.9634455725
 20
359.8110928583
 10
450.3514528574
 20
360.0624370832
 10
449.7770424847
 20
360.3827929368
 10
449.2429517813
 20
360.7706337776
 10
448.7517259327
 20
361.2241113674
 10
448.3057058538
 20
361.741064679
 10
447.9070170333
 20
362.3190301943
 10
447.557559405
 20
362.9552536446
 10
447.2589982937
 20
363.6467031353
 10
447.012756479
 20
364.3900835947
 10
446.8200074153
 20
365.1818524764
 10
446.6816696398
 20
366.0182366411
 10
446.5984023948
 20
366.8952503374
 10
446.5706024867
 20
367.8087141957
  0
LWPOLYLINE
  5
C4
330
1F
100
AcDbEntity
  8
0
  6
HIDDEN
 62
     7
370
    18
100
AcDbPolyline
 90
       35
 70
   128
 43
0.0
 10
473.7942135624
 20
354.9502864345
 10
473.8218556144
 20
355.7888282646
 10
473.9046155278
 20
356.6542418394
 10
474.0419955748
 20
357.5413224598
 10
474.2331695356
 20
358.4447351186
 10
474.4769876675
 20
359.3590465857
 10
474.7719836196
 20
360.2787580844
 10
475.1163832515
 20
361.1983383616
 10
475.5081153033
 20
362.1122569532
 10
475.9448238523
 20
363.0150174453
 10
476.423882482
 20
363.90119053
 10
476.9424100774
 20
364.7654466582
 10
477.4972881525
 20
365.6025880919
 10
478.0851796053
 20
366.4075801639
 10
478.7025487874
 20
367.1755815572
 10
479.3456827679
 20
367.901973421
 10
480.0107136633
 20
368.5823871493
 10
480.6936418997
 20
369.2127306537
 10
481.3903602662
 20
369.7892129743
 10
482.0966786166
 20
370.3083670787
 10
482.8083490693
 20
370.7670707128
 10
483.5210915544
 20
371.1625651791
 10
484.2306195547
 20
371.4924719273
 10
484.9326658853
 20
371.7548068595
 10
485.6230083571
 20
371.9479922624
 10
486.2974951691
 20
372.0708662964
 10
486.9520698784
 20
372.1226899824
 10
487.5827957955
 20
372.1031516469
 10
488.1858796606
 20
372.0123687956
 10
488.7576944565
 20
371.8508874073
 10
489.2948012215
 20
371.61967865
 10
489.7939697325
 20
371.3201330405
 10
490.2521979312
 20
370.9540520812
 10
490.6667299794
 20
370.5236374262
 10
491.0088989347
 20
370.0707671393
  0
LWPOLYLINE
  5
C5
330
1F
100
AcDbEntity
  8
0
  6
HIDDEN
 62
     7
370
    18
100
AcDbPolyline
 90
       15
 70
   128
 43
0.0
 10
478.4998384068
 20
348.4020909038
 10
478.0851796053
 20
348.4472366442
 10
477.4972881525
 20
348.5734636927
 10
476.9424100774
 20
348.7699565375
 10
476.423882482
 20
349.0355334473
 10
475.9448238523
 20
349.3685972115
 10
475.5081153033
 20
349.7671447453
 10
475.1163832515
 20
350.228779137
 10
474.7719836196
 20
350.7507240631
 10
474.4769876675
 20
351.3298404853
 10
474.2331695356
 20
351.9626455293
 10
474.0419955748
 20
352.6453334312
 10
473.9046155278
 20
353.3737984256
 10
473.8218556144
 20
354.1436594383
 10
473.7942135624
 20
354.9502864345
  0
LWPOLYLINE
  5
C6
330
1F
100
AcDbEntity
  8
0
  6
HIDDEN
 62
     7
370
    18
100
AcDbPolyline
 90
       43
 70
   128
 43
0.0
 10
506.6746788875
 20
375.564591258
 10
506.6463230624
 20
376.0895489418
 10
506.5616690788
 20
376.5741126216
 10
506.4219513825
 20
377.0112162678
 10
506.229207372
 20
377.3944859251
 10
505.9862476891
 20
377.7183326588
 10
505.696615233
 20
377.9780340542
 10
505.3645334972
 20
378.1698030802
 10
504.9948449811
 20
378.2908433126
 10
504.5929405758
 20
378.3393897123
 10
504.1646809525
 20
378.3147343634
 10
503.7163111009
 20
378.2172367963
 10
503.254369263
 20
378.0483187453
 10
502.785591591
 20
377.8104434159
 10
502.3168139191
 20
377.5070795659
 10
501.8548720812
 20
377.1426509235
 10
501.4065022295
 20
376.7224716788
 10
500.9782426062
 20
376.2526689915
 10
500.5763382009
 20
375.7400936426
 10
500.2066496848
 20
375.192220135
 10
499.874567949
 20
374.6170376979
 10
499.5849354929
 20
374.0229337867
 10
499.34197581
 20
373.4185717741
 10
499.1492317995
 20
372.8127646192
 10
499.0095141032
 20
372.2143463544
 10
498.9248601196
 20
371.6320432656
 10
498.8965042945
 20
371.074346643
 10
498.9248601196
 20
370.5493889592
 10
499.0095141032
 20
370.0648252794
 10
499.1492317995
 20
369.6277216331
 10
499.34197581
 20
369.2444519759
 10
499.5849354929
 20
368.9206052422
 10
499.874567949
 20
368.6609038468
 10
500.2066496848
 20
368.4691348208
 10
500.5763382009
 20
368.3480945884
 10
500.9782426062
 20
368.2995481887
 10
501.4065022295
 20
368.3242035376
 10
501.8548720812
 20
368.4217011046
 10
502.3168139191
 20
368.5906191557
 10
502.785591591
 20
368.8284944851
 10
503.254369263
 20
369.1318583351
 10
503.7163111009
 20
369.4962869775
 10
504.0611899077
 20
369.8133237054
  0
ARC
  5
C7
330
1F
100
AcDbEntity
  8
0
  6
HIDDEN
 62
     7
370
    18
100
AcDbCircle
 10
500.1553226457
 20
375.6296774468
 30
0.0
 40
6.519681128687607
100
AcDbArc
 50
345.2357490363
 51
359.4280048681
  0
LWPOLYLINE
  5
C8
330
1F
100
AcDbEntity
  8
0
  6
HIDDEN
 62
     7
370
    18
100
AcDbPolyline
 90
       46
 70
   128
 43
0.0
 10
505.6140187158
 20
374.9522851741
 10
505.5864926574
 20
374.4818326515
 10
505.5044502458
 20
373.9887560416
 10
505.3694883431
 20
373.4826525197
 10
505.1842338293
 20
372.9733728153
 10
504.9522924727
 20
372.4708294785
 10
504.678178748
 20
371.9848039437
 10
504.3672279672
 20
371.5247561451
 10
504.0254924333
 20
371.0996403898
 10
503.6596236399
 20
370.7177310724
 10
503.2767428069
 20
370.3864616234
 10
502.8843022741
 20
370.1122798258
 10
502.4899404502
 20
369.9005223163
 10
502.1013331394
 20
369.7553107141
 10
501.7260441411
 20
369.6794713978
 10
501.3713780286
 20
369.6744804934
 10
501.0442379745
 20
369.7404351432
 10
500.7509913878
 20
369.876051615
 10
500.4973459798
 20
370.0786902884
 10
500.2882386697
 20
370.3444070321
 10
500.1277394935
 20
370.668029972
 10
500.0189723851
 20
371.0432601556
 10
499.9640543726
 20
371.4627941543
 10
499.9640543726
 20
371.9184662159
 10
500.0189723851
 20
372.4014072022
 10
500.1277394935
 20
372.9022172161
 10
500.2882386697
 20
373.4111485604
 10
500.4973459798
 20
373.9182954654
 10
500.7509913878
 20
374.4137868934
 10
501.0442379745
 20
374.8879786674
 10
501.3713780286
 20
375.3316411839
 10
501.7260441411
 20
375.7361390568
 10
502.1013331394
 20
376.0935991949
 10
502.4899404502
 20
376.3970640434
 10
502.8843022741
 20
376.640627004
 10
503.2767428069
 20
376.819547401
 10
503.6596236399
 20
376.9303427521
 10
504.0254924333
 20
376.9708565521
 10
504.3672279672
 20
376.9403002457
 10
504.678178748
 20
376.8392685769
 10
504.9522924727
 20
376.669728012
 10
505.1842338293
 20
376.4349784653
 10
505.3694883431
 20
376.1395890698
 10
505.5044502458
 20
375.789309244
 10
505.5864926574
 20
375.3909567863
 10
505.6140187158
 20
374.9522851741
  0
LWPOLYLINE
  5
C9
330
1F
100
AcDbEntity
  8
0
  6
HIDDEN
 62
     7
370
    18
100
AcDbPolyline
 90
       46
 70
   128
 43
0.0
 10
482.2794949366
 20
388.4230190192
 10
482.2519688783
 20
388.8616906314
 10
482.1699264666
 20
389.2600430891
 10
482.034964564
 20
389.6103229149
 10
481.8497100501
 20
389.9057123104
 10
481.6177686935
 20
390.1404618571
 10
481.3436549689
 20
390.3100024219
 10
481.032704188
 20
390.4110340908
 10
480.6909686541
 20
390.4415903972
 10
480.3250998608
 20
390.4010765972
 10
479.9422190277
 20
390.2902812461
 10
479.549778495
 20
390.1113608491
 10
479.1554166711
 20
389.8677978884
 10
478.7668093603
 20
389.56433304
 10
478.3915203619
 20
389.2068729019
 10
478.0368542495
 20
388.802375029
 10
477.7097141954
 20
388.3587125125
 10
477.4164676087
 20
387.8845207385
 10
477.1628222006
 20
387.3890293104
 10
476.9537148905
 20
386.8818824055
 10
476.7932157143
 20
386.3729510612
 10
476.6844486059
 20
385.8721410473
 10
476.6295305934
 20
385.389200061
 10
476.6295305934
 20
384.9335279994
 10
476.6844486059
 20
384.5139940007
 10
476.7932157143
 20
384.1387638171
 10
476.9537148905
 20
383.8151408772
 10
477.1628222006
 20
383.5494241335
 10
477.4164676087
 20
383.3467854601
 10
477.7097141954
 20
383.2111689883
 10
478.0368542495
 20
383.1452143385
 10
478.3915203619
 20
383.1502052429
 10
478.7668093603
 20
383.2260445592
 10
479.1554166711
 20
383.3712561614
 10
479.549778495
 20
383.5830136708
 10
479.9422190277
 20
383.8571954685
 10
480.3250998608
 20
384.1884649175
 10
480.6909686541
 20
384.5703742349
 10
481.032704188
 20
384.9954899902
 10
481.3436549689
 20
385.4555377888
 10
481.6177686935
 20
385.9415633236
 10
481.8497100501
 20
386.4441066604
 10
482.034964564
 20
386.9533863648
 10
482.1699264666
 20
387.4594898866
 10
482.2519688783
 20
387.9525664966
 10
482.2794949366
 20
388.4230190192
  0
LINE
  5
CA
330
1F
100
AcDbEntity
  8
0
  6
HIDDEN
 62
     7
370
    18
100
AcDbLine
 10
468.0587087029
 20
350.7330659475
 30
0.0
 11
463.1089612346
 21
353.5904943389
 31
0.0
  0
LINE
  5
CB
330
1F
100
AcDbEntity
  8
0
  6
HIDDEN
 62
     7
370
    18
100
AcDbLine
 10
457.6094082051
 20
344.0639568527
 30
0.0
 11
462.5591556734
 21
341.2065284613
 31
0.0
  0
LINE
  5
CC
330
1F
100
AcDbEntity
  8
0
  6
HIDDEN
 62
     7
370
    18
100
AcDbLine
 10
462.3590221851
 20
352.2914210453
 30
0.0
 11
439.0244984059
 21
365.7621548904
 31
0.0
  0
LINE
  5
CD
330
1F
100
AcDbEntity
  8
0
  6
HIDDEN
 62
     7
370
    18
100
AcDbLine
 10
435.0248234754
 20
358.8337639914
 30
0.0
 11
458.3593472546
 21
345.3630301463
 31
0.0
  0
LINE
  5
CE
330
1F
100
AcDbEntity
  8
0
  6
HIDDEN
 62
     7
370
    18
100
AcDbLine
 10
449.988534832
 20
360.2542748889
 30
0.0
 11
474.7372721736
 21
345.967132932
 31
0.0
  0
LINE
  5
CF
330
1F
100
AcDbEntity
  8
0
  6
HIDDEN
 62
     7
370
    18
100
AcDbLine
 10
491.235931262
 20
374.5467453906
 30
0.0
 11
466.4871939205
 21
388.8338873475
 31
0.0
  0
LINE
  5
D0
330
1F
100
AcDbEntity
  8
0
  6
HIDDEN
 62
     7
370
    18
100
AcDbLine
 10
476.4871299557
 20
348.9983039504
 30
0.0
 11
480.0226638616
 21
346.9572836708
 31
0.0
  0
LINE
  5
D1
330
1F
100
AcDbEntity
  8
0
  6
HIDDEN
 62
     7
370
    18
100
AcDbLine
 10
493.0216073859
 20
369.4745540927
 30
0.0
 11
489.4860734799
 21
371.5155743723
 31
0.0
  0
LINE
  5
D2
330
1F
100
AcDbEntity
  8
0
  6
HIDDEN
 62
     7
370
    18
100
AcDbLine
 10
510.4851155741
 20
375.2253093022
 30
0.0
 11
505.5353681058
 21
378.0827376936
 31
0.0
  0
LINE
  5
D3
330
1F
100
AcDbEntity
  8
0
  6
HIDDEN
 62
     7
370
    18
100
AcDbLine
 10
500.0358150763
 20
368.5562002074
 30
0.0
 11
504.9855625446
 21
365.698771816
 31
0.0
  0
LINE
  5
D4
330
1F
100
AcDbEntity
  8
0
  6
HIDDEN
 62
     7
370
    18
100
AcDbLine
 10
504.7854290563
 20
376.7836644
 30
0.0
 11
481.4509052771
 21
390.2543982451
 31
0.0
  0
LINE
  5
D5
330
1F
100
AcDbEntity
  8
0
  6
HIDDEN
 62
     7
370
    18
100
AcDbLine
 10
477.4512303466
 20
383.326007346
 30
0.0
 11
500.7857541257
 21
369.855273501
 31
0.0
  0
ENDSEC
  0
SECTION
  2
OBJECTS
  0
DICTIONARY
  5
C
330
0
100
AcDbDictionary
281
     1
  3
ACAD_GROUP
350
D
  3
ACAD_LAYOUT
350
1A
  3
ACAD_MLINESTYLE
350
17
  3
ACAD_PLOTSETTINGS
350
19
  3
ACAD_PLOTSTYLENAME
350
E
  3
ACAD_SCALELIST
350
47
  3
DWGPROPS
350
D6
  0
DICTIONARY
  5
D
102
{ACAD_REACTORS
330
C
102
}
330
C
100
AcDbDictionary
281
     1
  0
DICTIONARY
  5
1A
102
{ACAD_REACTORS
330
C
102
}
330
C
100
AcDbDictionary
281
     1
  3
Layout1
350
1E
  3
Layout2
350
26
  3
Model
350
22
  0
DICTIONARY
  5
17
102
{ACAD_REACTORS
330
C
102
}
330
C
100
AcDbDictionary
281
     1
  3
Standard
350
18
  0
DICTIONARY
  5
19
102
{ACAD_REACTORS
330
C
102
}
330
C
100
AcDbDictionary
281
     1
  0
ACDBDICTIONARYWDFLT
  5
E
102
{ACAD_REACTORS
330
C
102
}
330
C
100
AcDbDictionary
281
     1
  3
Normal
350
F
100
AcDbDictionaryWithDefault
340
F
  0
DICTIONARY
  5
47
102
{ACAD_REACTORS
330
C
102
}
330
C
100
AcDbDictionary
281
     1
  3
A0
350
48
  3
A1
350
49
  3
A2
350
4A
  3
A3
350
4B
  3
A4
350
4C
  3
A5
350
4D
  3
A6
350
4E
  3
A7
350
4F
  3
A8
350
50
  3
A9
350
51
  3
B0
350
52
  3
B1
350
53
  3
B2
350
54
  3
B3
350
55
  3
B4
350
56
  3
B5
350
57
  3
B6
350
58
  0
XRECORD
  5
D6
102
{ACAD_REACTORS
330
C
102
}
330
C
100
AcDbXrecord
280
     1
  1
DWGPROPS COOKIE
  2

  3

  4

  6

  7

  8
imaizumi
  9

300
=
301
=
302
=
303
=
304
=
305
=
306
=
307
=
308
=
309
=
 40
0.0
 41
2461262.369824526
 42
2461262.369825186
  1

 90
        0
  0
LAYOUT
  5
1E
102
{ACAD_REACTORS
330
1A
102
}
330
1A
100
AcDbPlotSettings
  1

  2
none_device
  4

  6

 40
0.0
 41
0.0
 42
0.0
 43
0.0
 44
0.0
 45
0.0
 46
0.0
 47
0.0
 48
0.0
 49
0.0
140
0.0
141
0.0
142
1.0
143
1.0
 70
   688
 72
     1
 73
     0
 74
     5
  7

 75
    16
147
1.0
148
0.0
149
0.0
100
AcDbLayout
  1
Layout1
 70
     1
 71
     1
 10
0.0
 20
0.0
 11
420.0
 21
297.0
 12
0.0
 22
0.0
 32
0.0
 14
1.0000000000E+20
 24
1.0000000000E+20
 34
1.0000000000E+20
 15
-1.0000000000E+20
 25
-1.0000000000E+20
 35
-1.0000000000E+20
146
0.0
 13
0.0
 23
0.0
 33
0.0
 16
1.0
 26
0.0
 36
0.0
 17
0.0
 27
1.0
 37
0.0
 76
     0
330
1B
  0
LAYOUT
  5
26
102
{ACAD_REACTORS
330
1A
102
}
330
1A
100
AcDbPlotSettings
  1

  2
none_device
  4

  6

 40
0.0
 41
0.0
 42
0.0
 43
0.0
 44
0.0
 45
0.0
 46
0.0
 47
0.0
 48
0.0
 49
0.0
140
0.0
141
0.0
142
1.0
143
1.0
 70
   688
 72
     1
 73
     0
 74
     5
  7

 75
    16
147
1.0
148
0.0
149
0.0
100
AcDbLayout
  1
Layout2
 70
     1
 71
     2
 10
0.0
 20
0.0
 11
0.0
 21
0.0
 12
0.0
 22
0.0
 32
0.0
 14
0.0
 24
0.0
 34
0.0
 15
0.0
 25
0.0
 35
0.0
146
0.0
 13
0.0
 23
0.0
 33
0.0
 16
1.0
 26
0.0
 36
0.0
 17
0.0
 27
1.0
 37
0.0
 76
     0
330
23
  0
LAYOUT
  5
22
102
{ACAD_REACTORS
330
1A
102
}
330
1A
100
AcDbPlotSettings
  1

  2
none_device
  4
Letter_(8.50_x_11.00_Inches)
  6

 40
6.35
 41
6.35
 42
6.35000508
 43
6.35000508
 44
215.9
 45
279.4
 46
0.0
 47
0.0
 48
0.0
 49
0.0
140
0.0
141
0.0
142
1.0
143
1.0
 70
  1712
 72
     1
 73
     0
 74
     0
  7

 75
     0
147
1.0
148
0.0
149
0.0
100
AcDbLayout
  1
Model
 70
     1
 71
     0
 10
0.0
 20
0.0
 11
841.0
 21
594.0
 12
0.0
 22
0.0
 32
0.0
 14
0.0
 24
0.0
 34
0.0
 15
841.0
 25
594.0
 35
0.0
146
0.0
 13
0.0
 23
0.0
 33
0.0
 16
1.0
 26
0.0
 36
0.0
 17
0.0
 27
1.0
 37
0.0
 76
     0
330
1F
331
29
  0
MLINESTYLE
  5
18
102
{ACAD_REACTORS
330
17
102
}
330
17
100
AcDbMlineStyle
  2
Standard
 70
     0
  3

 62
   256
 51
90.0
 52
90.0
 71
     2
 49
0.5
 62
   256
  6
BYLAYER
 49
-0.5
 62
   256
  6
BYLAYER
  0
ACDBPLACEHOLDER
  5
F
102
{ACAD_REACTORS
330
E
102
}
330
E
  0
SCALE
  5
48
102
{ACAD_REACTORS
330
47
102
}
330
47
100
AcDbScale
 70
     0
300
1:1
140
1.0
141
1.0
290
     1
  0
SCALE
  5
49
102
{ACAD_REACTORS
330
47
102
}
330
47
100
AcDbScale
 70
     0
300
1:2
140
1.0
141
2.0
290
     0
  0
SCALE
  5
4A
102
{ACAD_REACTORS
330
47
102
}
330
47
100
AcDbScale
 70
     0
300
1:4
140
1.0
141
4.0
290
     0
  0
SCALE
  5
4B
102
{ACAD_REACTORS
330
47
102
}
330
47
100
AcDbScale
 70
     0
300
1:5
140
1.0
141
5.0
290
     0
  0
SCALE
  5
4C
102
{ACAD_REACTORS
330
47
102
}
330
47
100
AcDbScale
 70
     0
300
1:8
140
1.0
141
8.0
290
     0
  0
SCALE
  5
4D
102
{ACAD_REACTORS
330
47
102
}
330
47
100
AcDbScale
 70
     0
300
1:10
140
1.0
141
10.0
290
     0
  0
SCALE
  5
4E
102
{ACAD_REACTORS
330
47
102
}
330
47
100
AcDbScale
 70
     0
300
1:16
140
1.0
141
16.0
290
     0
  0
SCALE
  5
4F
102
{ACAD_REACTORS
330
47
102
}
330
47
100
AcDbScale
 70
     0
300
1:20
140
1.0
141
20.0
290
     0
  0
SCALE
  5
50
102
{ACAD_REACTORS
330
47
102
}
330
47
100
AcDbScale
 70
     0
300
1:30
140
1.0
141
30.0
290
     0
  0
SCALE
  5
51
102
{ACAD_REACTORS
330
47
102
}
330
47
100
AcDbScale
 70
     0
300
1:40
140
1.0
141
40.0
290
     0
  0
SCALE
  5
52
102
{ACAD_REACTORS
330
47
102
}
330
47
100
AcDbScale
 70
     0
300
1:50
140
1.0
141
50.0
290
     0
  0
SCALE
  5
53
102
{ACAD_REACTORS
330
47
102
}
330
47
100
AcDbScale
 70
     0
300
1:100
140
1.0
141
100.0
290
     0
  0
SCALE
  5
54
102
{ACAD_REACTORS
330
47
102
}
330
47
100
AcDbScale
 70
     0
300
2:1
140
2.0
141
1.0
290
     0
  0
SCALE
  5
55
102
{ACAD_REACTORS
330
47
102
}
330
47
100
AcDbScale
 70
     0
300
4:1
140
4.0
141
1.0
290
     0
  0
SCALE
  5
56
102
{ACAD_REACTORS
330
47
102
}
330
47
100
AcDbScale
 70
     0
300
8:1
140
8.0
141
1.0
290
     0
  0
SCALE
  5
57
102
{ACAD_REACTORS
330
47
102
}
330
47
100
AcDbScale
 70
     0
300
10:1
140
10.0
141
1.0
290
     0
  0
SCALE
  5
58
102
{ACAD_REACTORS
330
47
102
}
330
47
100
AcDbScale
 70
     0
300
100:1
140
100.0
141
1.0
290
     0
  0
ENDSEC
  0
EOF
