  0
SECTION
  2
HEADER
  9
$ACADVER
  1
AC1015
  9
$ACADMAINTVER
 70
     6
  9
$DWGCODEPAGE
  3
DOS932
  9
$INSBASE
 10
0.0
 20
0.0
 30
0.0
  9
$EXTMIN
 10
0.0
 20
0.0
 30
0.0
  9
$EXTMAX
 10
841.0
 20
594.0
 30
0.0
  9
$LIMMIN
 10
0.0
 20
0.0
  9
$LIMMAX
 10
841.0
 20
594.0
  9
$ORTHOMODE
 70
     0
  9
$REGENMODE
 70
     1
  9
$FILLMODE
 70
     1
  9
$QTEXTMODE
 70
     0
  9
$MIRRTEXT
 70
     1
  9
$LTSCALE
 40
1.0
  9
$ATTMODE
 70
     1
  9
$TEXTSIZE
 40
3.5
  9
$TRACEWID
 40
1.0
  9
$TEXTSTYLE
  7
Standard
  9
$CLAYER
  8
0
  9
$CELTYPE
  6
ByLayer
  9
$CECOLOR
 62
   256
  9
$CELTSCALE
 40
1.0
  9
$DISPSILH
 70
     0
  9
$DIMSCALE
 40
1.0
  9
$DIMASZ
 40
3.302
  9
$DIMEXO
 40
1.0
  9
$DIMDLI
 40
3.75
  9
$DIMRND
 40
0.0
  9
$DIMDLE
 40
0.0
  9
$DIMEXE
 40
1.0
  9
$DIMTP
 40
0.0
  9
$DIMTM
 40
0.0
  9
$DIMTXT
 40
3.5
  9
$DIMCEN
 40
2.5
  9
$DIMTSZ
 40
0.0
  9
$DIMTOL
 70
     0
  9
$DIMLIM
 70
     0
  9
$DIMTIH
 70
     1
  9
$DIMTOH
 70
     1
  9
$DIMSE1
 70
     0
  9
$DIMSE2
 70
     0
  9
$DIMTAD
 70
     1
  9
$DIMZIN
 70
     1
  9
$DIMBLK
  1

  9
$DIMASO
 70
     1
  9
$DIMSHO
 70
     1
  9
$DIMPOST
  1

  9
$DIMAPOST
  1

  9
$DIMALT
 70
     0
  9
$DIMALTD
 70
     3
  9
$DIMALTF
 40
0.0393700787
  9
$DIMLFAC
 40
1.0
  9
$DIMTOFL
 70
     1
  9
$DIMTVP
 40
0.0
  9
$DIMTIX
 70
     0
  9
$DIMSOXD
 70
     0
  9
$DIMSAH
 70
     0
  9
$DIMBLK1
  1

  9
$DIMBLK2
  1

  9
$DIMSTYLE
  2
ISO-25
  9
$DIMCLRD
 70
     0
  9
$DIMCLRE
 70
     0
  9
$DIMCLRT
 70
     0
  9
$DIMTFAC
 40
1.0
  9
$DIMGAP
 40
1.524
  9
$DIMJUST
 70
     0
  9
$DIMSD1
 70
     0
  9
$DIMSD2
 70
     0
  9
$DIMTOLJ
 70
     0
  9
$DIMTZIN
 70
     1
  9
$DIMALTZ
 70
     0
  9
$DIMALTTZ
 70
     0
  9
$DIMUPT
 70
     0
  9
$DIMDEC
 70
     2
  9
$DIMTDEC
 70
     2
  9
$DIMALTU
 70
     2
  9
$DIMALTTD
 70
     3
  9
$DIMTXSTY
  7
Standard
  9
$DIMAUNIT
 70
     0
  9
$DIMADEC
 70
     2
  9
$DIMALTRND
 40
0.0
  9
$DIMAZIN
 70
     0
  9
$DIMDSEP
 70
    44
  9
$DIMATFIT
 70
     3
  9
$DIMFRAC
 70
     0
  9
$DIMLDRBLK
  1

  9
$DIMLUNIT
 70
     2
  9
$DIMLWD
 70
    -2
  9
$DIMLWE
 70
    -2
  9
$DIMTMOVE
 70
     0
  9
$LUNITS
 70
     2
  9
$LUPREC
 70
     2
  9
$SKETCHINC
 40
1.0
  9
$FILLETRAD
 40
0.0
  9
$AUNITS
 70
     0
  9
$AUPREC
 70
     2
  9
$MENU
  1
.
  9
$ELEVATION
 40
0.0
  9
$PELEVATION
 40
0.0
  9
$THICKNESS
 40
0.0
  9
$LIMCHECK
 70
     0
  9
$CHAMFERA
 40
0.0
  9
$CHAMFERB
 40
0.0
  9
$CHAMFERC
 40
0.0
  9
$CHAMFERD
 40
0.0
  9
$SKPOLY
 70
     0
  9
$TDCREATE
 40
2461262.741235961
  9
$TDUCREATE
 40
2461262.366235961
  9
$TDUPDATE
 40
2461262.741236331
  9
$TDUUPDATE
 40
2461262.366236331
  9
$TDINDWG
 40
0.0000000116
  9
$TDUSRTIMER
 40
0.0000000116
  9
$USRTIMER
 70
     1
  9
$ANGBASE
 50
0.0
  9
$ANGDIR
 70
     0
  9
$PDMODE
 70
     0
  9
$PDSIZE
 40
-1.0
  9
$PLINEWID
 40
0.0
  9
$SPLFRAME
 70
     0
  9
$SPLINETYPE
 70
     6
  9
$SPLINESEGS
 70
     8
  9
$HANDSEED
  5
F6
  9
$SURFTAB1
 70
     6
  9
$SURFTAB2
 70
     6
  9
$SURFTYPE
 70
     6
  9
$SURFU
 70
     6
  9
$SURFV
 70
     6
  9
$UCSBASE
  2

  9
$UCSNAME
  2

  9
$UCSORG
 10
0.0
 20
0.0
 30
0.0
  9
$UCSXDIR
 10
1.0
 20
0.0
 30
0.0
  9
$UCSYDIR
 10
0.0
 20
1.0
 30
0.0
  9
$UCSORTHOREF
  2

  9
$UCSORTHOVIEW
 70
     0
  9
$UCSORGTOP
 10
0.0
 20
0.0
 30
0.0
  9
$UCSORGBOTTOM
 10
0.0
 20
0.0
 30
0.0
  9
$UCSORGLEFT
 10
0.0
 20
0.0
 30
0.0
  9
$UCSORGRIGHT
 10
0.0
 20
0.0
 30
0.0
  9
$UCSORGFRONT
 10
0.0
 20
0.0
 30
0.0
  9
$UCSORGBACK
 10
0.0
 20
0.0
 30
0.0
  9
$PUCSBASE
  2

  9
$PUCSNAME
  2

  9
$PUCSORG
 10
0.0
 20
0.0
 30
0.0
  9
$PUCSXDIR
 10
1.0
 20
0.0
 30
0.0
  9
$PUCSYDIR
 10
0.0
 20
1.0
 30
0.0
  9
$PUCSORTHOREF
  2

  9
$PUCSORTHOVIEW
 70
     0
  9
$PUCSORGTOP
 10
0.0
 20
0.0
 30
0.0
  9
$PUCSORGBOTTOM
 10
0.0
 20
0.0
 30
0.0
  9
$PUCSORGLEFT
 10
0.0
 20
0.0
 30
0.0
  9
$PUCSORGRIGHT
 10
0.0
 20
0.0
 30
0.0
  9
$PUCSORGFRONT
 10
0.0
 20
0.0
 30
0.0
  9
$PUCSORGBACK
 10
0.0
 20
0.0
 30
0.0
  9
$USERI1
 70
     0
  9
$USERI2
 70
     0
  9
$USERI3
 70
     0
  9
$USERI4
 70
     0
  9
$USERI5
 70
     0
  9
$USERR1
 40
0.0
  9
$USERR2
 40
0.0
  9
$USERR3
 40
0.0
  9
$USERR4
 40
0.0
  9
$USERR5
 40
0.0
  9
$WORLDVIEW
 70
     1
  9
$SHADEDGE
 70
     3
  9
$SHADEDIF
 70
    70
  9
$TILEMODE
 70
     1
  9
$MAXACTVP
 70
    64
  9
$PINSBASE
 10
0.0
 20
0.0
 30
0.0
  9
$PLIMCHECK
 70
     0
  9
$PEXTMIN
 10
1.0000000000E+20
 20
1.0000000000E+20
 30
1.0000000000E+20
  9
$PEXTMAX
 10
-1.0000000000E+20
 20
-1.0000000000E+20
 30
-1.0000000000E+20
  9
$PLIMMIN
 10
0.0
 20
0.0
  9
$PLIMMAX
 10
420.0
 20
297.0
  9
$UNITMODE
 70
     0
  9
$VISRETAIN
 70
     1
  9
$PLINEGEN
 70
     0
  9
$PSLTSCALE
 70
     1
  9
$TREEDEPTH
 70
  3020
  9
$CMLSTYLE
  2
Standard
  9
$CMLJUST
 70
     0
  9
$CMLSCALE
 40
20.0
  9
$PROXYGRAPHICS
 70
     1
  9
$MEASUREMENT
 70
     1
  9
$CELWEIGHT
370
    -1
  9
$ENDCAPS
280
     0
  9
$JOINSTYLE
280
     0
  9
$LWDISPLAY
290
     1
  9
$INSUNITS
 70
     4
  9
$HYPERLINKBASE
  1

  9
$STYLESHEET
  1

  9
$XEDIT
290
     1
  9
$CEPSNTYPE
380
     0
  9
$PSTYLEMODE
290
     1
  9
$FINGERPRINTGUID
  2
{0a5f0a54-5b7e-479e-8e8a-fb99ed81d21a}
  9
$VERSIONGUID
  2
{FAEB1C32-E019-11D5-929B-00C0DF256EC4}
  9
$EXTNAMES
290
     1
  9
$PSVPSCALE
 40
0.0
  9
$OLESTARTUP
290
     0
  0
ENDSEC
  0
SECTION
  2
CLASSES
  0
CLASS
  1
ACDBDICTIONARYWDFLT
  2
AcDbDictionaryWithDefault
  3
ObjectDBX Classes
 90
        0
280
     0
281
     0
  0
CLASS
  1
VISUALSTYLE
  2
AcDbVisualStyle
  3
ObjectDBX Classes
 90
     4095
280
     0
281
     0
  0
CLASS
  1
MATERIAL
  2
AcDbMaterial
  3
ObjectDBX Classes
 90
     1153
280
     0
281
     0
  0
CLASS
  1
SCALE
  2
AcDbScale
  3
ObjectDBX Classes
 90
     1153
280
     0
281
     0
  0
CLASS
  1
TABLESTYLE
  2
AcDbTableStyle
  3
ObjectDBX Classes
 90
     4095
280
     0
281
     0
  0
CLASS
  1
MLEADERSTYLE
  2
AcDbMLeaderStyle
  3
ACDB_MLEADERSTYLE_CLASS
 90
     4095
280
     0
281
     0
  0
CLASS
  1
SUN
  2
AcDbSun
  3
SCENEOE
 90
     1153
280
     0
281
     0
  0
CLASS
  1
ACDBPLACEHOLDER
  2
AcDbPlaceHolder
  3
ObjectDBX Classes
 90
        0
280
     0
281
     0
  0
CLASS
  1
LAYOUT
  2
AcDbLayout
  3
ObjectDBX Classes
 90
        0
280
     0
281
     0
  0
ENDSEC
  0
SECTION
  2
TABLES
  0
TABLE
  2
VPORT
  5
8
330
0
100
AcDbSymbolTable
 70
     1
  0
VPORT
  5
29
330
8
100
AcDbSymbolTableRecord
100
AcDbViewportTableRecord
  2
*Active
 70
     0
 10
0.0
 20
0.0
 11
1.0
 21
1.0
 12
420.5
 22
297.0
 13
0.0
 23
0.0
 14
10.0
 24
10.0
 15
10.0
 25
10.0
 16
0.0
 26
0.0
 36
1.0
 17
0.0
 27
0.0
 37
0.0
 40
594.0
 41
1.4158249158
 42
50.0
 43
0.0
 44
0.0
 50
0.0
 51
0.0
 71
     0
 72
  2000
 73
     1
 74
     3
 75
     0
 76
     0
 77
     0
 78
     0
281
     0
 65
     1
110
0.0
120
0.0
130
0.0
111
1.0
121
0.0
131
0.0
112
0.0
122
1.0
132
0.0
 79
     0
146
0.0
  0
ENDTAB
  0
TABLE
  2
LTYPE
  5
5
330
0
100
AcDbSymbolTable
 70
     6
  0
LTYPE
  5
14
330
5
100
AcDbSymbolTableRecord
100
AcDbLinetypeTableRecord
  2
ByBlock
 70
     0
  3

 72
    65
 73
     0
 40
0.0
  0
LTYPE
  5
15
330
5
100
AcDbSymbolTableRecord
100
AcDbLinetypeTableRecord
  2
ByLayer
 70
     0
  3

 72
    65
 73
     0
 40
0.0
  0
LTYPE
  5
16
330
5
100
AcDbSymbolTableRecord
100
AcDbLinetypeTableRecord
  2
Continuous
 70
     0
  3
Solid line
 72
    65
 73
     0
 40
0.0
  0
LTYPE
  5
5E
330
5
100
AcDbSymbolTableRecord
100
AcDbLinetypeTableRecord
  2
HIDDEN
 70
     0
  3
Hidden __ __ __ __ __ __ __ __ __ __ __ __ __ __
 72
    65
 73
     2
 40
1.905
 49
1.27
 74
     0
 49
-0.635
 74
     0
  0
LTYPE
  5
5F
330
5
100
AcDbSymbolTableRecord
100
AcDbLinetypeTableRecord
  2
PHANTOM
 70
     0
  3
Phantom ______  __  __  ______  __  __  ______
 72
    65
 73
     6
 40
12.7
 49
6.35
 74
     0
 49
-1.27
 74
     0
 49
1.27
 74
     0
 49
-1.27
 74
     0
 49
1.27
 74
     0
 49
-1.27
 74
     0
  0
LTYPE
  5
60
330
5
100
AcDbSymbolTableRecord
100
AcDbLinetypeTableRecord
  2
CENTER
 70
     0
  3
Center ____ _ ____ _ ____ _ ____ _ ____ _ ____
 72
    65
 73
     4
 40
10.16
 49
6.35
 74
     0
 49
-1.27
 74
     0
 49
1.27
 74
     0
 49
-1.27
 74
     0
  0
LTYPE
  5
61
330
5
100
AcDbSymbolTableRecord
100
AcDbLinetypeTableRecord
  2
CENTERX2
 70
     0
  3
Center (2x) ________  __  ________  __  _____
 72
    65
 73
     4
 40
20.32
 49
12.7
 74
     0
 49
-2.54
 74
     0
 49
2.54
 74
     0
 49
-2.54
 74
     0
  0
LTYPE
  5
62
330
5
100
AcDbSymbolTableRecord
100
AcDbLinetypeTableRecord
  2
DOT2
 70
     0
  3
Dot (.5x) ........................................
 72
    65
 73
     2
 40
0.635
 49
0.0
 74
     0
 49
-0.635
 74
     0
  0
ENDTAB
  0
TABLE
  2
LAYER
  5
2
330
0
100
AcDbSymbolTable
 70
     1
  0
LAYER
  5
10
330
2
100
AcDbSymbolTableRecord
100
AcDbLayerTableRecord
  2
0
 70
     0
 62
     7
  6
Continuous
370
    -3
390
F
  0
ENDTAB
  0
TABLE
  2
STYLE
  5
3
330
0
100
AcDbSymbolTable
 70
     1
  0
STYLE
  5
11
330
3
100
AcDbSymbolTableRecord
100
AcDbTextStyleTableRecord
  2
Standard
 70
     0
 40
0.0
 41
1.0
 50
0.0
 71
     0
 42
3.5
  3
txt
  4
bigfont
  0
ENDTAB
  0
TABLE
  2
VIEW
  5
6
330
0
100
AcDbSymbolTable
 70
     0
  0
ENDTAB
  0
TABLE
  2
UCS
  5
7
330
0
100
AcDbSymbolTable
 70
     0
  0
ENDTAB
  0
TABLE
  2
APPID
  5
9
330
0
100
AcDbSymbolTable
 70
     1
  0
APPID
  5
12
330
9
100
AcDbSymbolTableRecord
100
AcDbRegAppTableRecord
  2
ACAD
 70
     0
  0
ENDTAB
  0
TABLE
  2
DIMSTYLE
  5
A
330
0
100
AcDbSymbolTable
 70
     1
100
AcDbDimStyleTable
  0
DIMSTYLE
105
27
330
A
100
AcDbSymbolTableRecord
100
AcDbDimStyleTableRecord
  2
ISO-25
 70
     0
 41
2.5
 42
0.625
 43
3.75
 44
1.25
 73
     0
 74
     0
 77
     1
 78
     8
140
2.5
141
2.5
143
0.0393700787
147
0.625
171
     3
172
     1
178
     0
271
     2
272
     2
274
     3
278
    44
283
     0
284
     8
340
11
  0
ENDTAB
  0
TABLE
  2
BLOCK_RECORD
  5
1
330
0
100
AcDbSymbolTable
 70
     1
  0
BLOCK_RECORD
  5
1F
330
1
100
AcDbSymbolTableRecord
100
AcDbBlockTableRecord
  2
*Model_Space
340
22
  0
BLOCK_RECORD
  5
1B
330
1
100
AcDbSymbolTableRecord
100
AcDbBlockTableRecord
  2
*Paper_Space
340
1E
  0
BLOCK_RECORD
  5
23
330
1
100
AcDbSymbolTableRecord
100
AcDbBlockTableRecord
  2
*Paper_Space0
340
26
  0
ENDTAB
  0
ENDSEC
  0
SECTION
  2
BLOCKS
  0
BLOCK
  5
20
330
1F
100
AcDbEntity
  8
0
100
AcDbBlockBegin
  2
*Model_Space
 70
     0
 10
0.0
 20
0.0
 30
0.0
  3
*Model_Space
  1

  0
ENDBLK
  5
21
330
1F
100
AcDbEntity
  8
0
100
AcDbBlockEnd
  0
BLOCK
  5
1C
330
1B
100
AcDbEntity
 67
     1
  8
0
100
AcDbBlockBegin
  2
*Paper_Space
 70
     0
 10
0.0
 20
0.0
 30
0.0
  3
*Paper_Space
  1

  0
ENDBLK
  5
1D
330
1B
100
AcDbEntity
 67
     1
  8
0
100
AcDbBlockEnd
  0
BLOCK
  5
24
330
23
100
AcDbEntity
  8
0
100
AcDbBlockBegin
  2
*Paper_Space0
 70
     0
 10
0.0
 20
0.0
 30
0.0
  3
*Paper_Space0
  1

  0
ENDBLK
  5
25
330
23
100
AcDbEntity
  8
0
100
AcDbBlockEnd
  0
ENDSEC
  0
SECTION
  2
ENTITIES
  0
LWPOLYLINE
  5
63
330
1F
100
AcDbEntity
  8
0
  6
Continuous
 62
     7
100
AcDbPolyline
 90
       17
 70
   128
 43
0.0
 10
150.7071067812
 20
267.7431877289
 10
150.4918055862
 20
268.8688035568
 10
149.8786796564
 20
269.5744731102
 10
148.9610718567
 20
269.7527645964
 10
147.8786796564
 20
269.3765347528
 10
146.7962874561
 20
268.5030611626
 10
145.8786796564
 20
267.2653222619
 10
145.2655537267
 20
265.8517525781
 10
145.0502525317
 20
264.4775552816
 10
145.2655537267
 20
263.3519394536
 10
145.8786796564
 20
262.6462699003
 10
146.7962874561
 20
262.4679784141
 10
147.8786796564
 20
262.8442082577
 10
148.9610718567
 20
263.7176818479
 10
149.8786796564
 20
264.9554207486
 10
150.4918055862
 20
266.3689904324
 10
150.7071067812
 20
267.7431877289
  0
LWPOLYLINE
  5
64
330
1F
100
AcDbEntity
  8
0
  6
Continuous
 62
     7
100
AcDbPolyline
 90
       17
 70
   128
 43
0.0
 10
164.8492424049
 20
275.9072688471
 10
164.6339412099
 20
277.0328846751
 10
164.0208152802
 20
277.7385542284
 10
163.1032074805
 20
277.9168457146
 10
162.0208152802
 20
277.540615871
 10
160.9384230799
 20
276.6671422808
 10
160.0208152802
 20
275.4294033801
 10
159.4076893504
 20
274.0158336963
 10
159.1923881554
 20
272.6416363998
 10
159.4076893504
 20
271.5160205718
 10
160.0208152802
 20
270.8103510185
 10
160.9384230799
 20
270.6320595323
 10
162.0208152802
 20
271.0082893759
 10
163.1032074805
 20
271.8817629661
 10
164.0208152802
 20
273.1195018668
 10
164.6339412099
 20
274.5330715506
 10
164.8492424049
 20
275.9072688471
  0
LWPOLYLINE
  5
65
330
1F
100
AcDbEntity
  8
0
  6
Continuous
 62
     7
100
AcDbPolyline
 90
       17
 70
   128
 43
0.0
 10
150.7071067812
 20
247.3296674317
 10
150.4918055862
 20
248.4552832597
 10
149.8786796564
 20
249.1609528131
 10
148.9610718567
 20
249.3392442992
 10
147.8786796564
 20
248.9630144556
 10
146.7962874561
 20
248.0895408654
 10
145.8786796564
 20
246.8518019647
 10
145.2655537267
 20
245.4382322809
 10
145.0502525317
 20
244.0640349844
 10
145.2655537267
 20
242.9384191565
 10
145.8786796564
 20
242.2327496031
 10
146.7962874561
 20
242.054458117
 10
147.8786796564
 20
242.4306879605
 10
148.9610718567
 20
243.3041615507
 10
149.8786796564
 20
244.5419004515
 10
150.4918055862
 20
245.9554701352
 10
150.7071067812
 20
247.3296674317
  0
LWPOLYLINE
  5
66
330
1F
100
AcDbEntity
  8
0
  6
Continuous
 62
     7
100
AcDbPolyline
 90
       17
 70
   128
 43
0.0
 10
164.8492424049
 20
255.49374855
 10
164.6339412099
 20
256.6193643779
 10
164.0208152802
 20
257.3250339313
 10
163.1032074805
 20
257.5033254174
 10
162.0208152802
 20
257.1270955739
 10
160.9384230799
 20
256.2536219837
 10
160.0208152802
 20
255.0158830829
 10
159.4076893504
 20
253.6023133992
 10
159.1923881554
 20
252.2281161027
 10
159.4076893504
 20
251.1025002747
 10
160.0208152802
 20
250.3968307213
 10
160.9384230799
 20
250.2185392352
 10
162.0208152802
 20
250.5947690788
 10
163.1032074805
 20
251.468242669
 10
164.0208152802
 20
252.7059815697
 10
164.6339412099
 20
254.1195512535
 10
164.8492424049
 20
255.49374855
  0
LWPOLYLINE
  5
67
330
1F
100
AcDbEntity
  8
0
  6
Continuous
 62
     7
100
AcDbPolyline
 90
       17
 70
   128
 43
0.0
 10
150.7071067812
 20
267.7431877289
 10
150.4918055862
 20
268.8688035568
 10
149.8786796564
 20
269.5744731102
 10
148.9610718567
 20
269.7527645964
 10
147.8786796564
 20
269.3765347528
 10
146.7962874561
 20
268.5030611626
 10
145.8786796564
 20
267.2653222619
 10
145.2655537267
 20
265.8517525781
 10
145.0502525317
 20
264.4775552816
 10
145.2655537267
 20
263.3519394536
 10
145.8786796564
 20
262.6462699003
 10
146.7962874561
 20
262.4679784141
 10
147.8786796564
 20
262.8442082577
 10
148.9610718567
 20
263.7176818479
 10
149.8786796564
 20
264.9554207486
 10
150.4918055862
 20
266.3689904324
 10
150.7071067812
 20
267.7431877289
  0
LWPOLYLINE
  5
68
330
1F
100
AcDbEntity
  8
0
  6
Continuous
 62
     7
100
AcDbPolyline
 90
       17
 70
   128
 43
0.0
 10
164.8492424049
 20
275.9072688471
 10
164.6339412099
 20
277.0328846751
 10
164.0208152802
 20
277.7385542284
 10
163.1032074805
 20
277.9168457146
 10
162.0208152802
 20
277.540615871
 10
160.9384230799
 20
276.6671422808
 10
160.0208152802
 20
275.4294033801
 10
159.4076893504
 20
274.0158336963
 10
159.1923881554
 20
272.6416363998
 10
159.4076893504
 20
271.5160205718
 10
160.0208152802
 20
270.8103510185
 10
160.9384230799
 20
270.6320595323
 10
162.0208152802
 20
271.0082893759
 10
163.1032074805
 20
271.8817629661
 10
164.0208152802
 20
273.1195018668
 10
164.6339412099
 20
274.5330715506
 10
164.8492424049
 20
275.9072688471
  0
LWPOLYLINE
  5
69
330
1F
100
AcDbEntity
  8
0
  6
Continuous
 62
     7
100
AcDbPolyline
 90
       17
 70
   128
 43
0.0
 10
152.4748737342
 20
266.7223458389
 10
152.2595725392
 20
267.8479616669
 10
151.6464466094
 20
268.5536312203
 10
150.7288388097
 20
268.7319227064
 10
149.6464466094
 20
268.3556928628
 10
148.5640544091
 20
267.4822192727
 10
147.6464466094
 20
266.2444803719
 10
147.0333206797
 20
264.8309106881
 10
146.8180194847
 20
263.4567133916
 10
147.0333206797
 20
262.3310975637
 10
147.6464466094
 20
261.6254280103
 10
148.5640544091
 20
261.4471365242
 10
149.6464466094
 20
261.8233663677
 10
150.7288388097
 20
262.6968399579
 10
151.6464466094
 20
263.9345788587
 10
152.2595725392
 20
265.3481485424
 10
152.4748737342
 20
266.7223458389
  0
LWPOLYLINE
  5
6A
330
1F
100
AcDbEntity
  8
0
  6
Continuous
 62
     7
100
AcDbPolyline
 90
       17
 70
   128
 43
0.0
 10
152.4748737342
 20
283.0531620767
 10
152.2595725392
 20
284.1787779046
 10
151.6464466094
 20
284.884447458
 10
150.7288388097
 20
285.0627389441
 10
149.6464466094
 20
284.6865091006
 10
148.5640544091
 20
283.8130355104
 10
147.6464466094
 20
282.5752966096
 10
147.0333206797
 20
281.1617269259
 10
146.8180194847
 20
279.7875296294
 10
147.0333206797
 20
278.6619138014
 10
147.6464466094
 20
277.956244248
 10
148.5640544091
 20
277.7779527619
 10
149.6464466094
 20
278.1541826055
 10
150.7288388097
 20
279.0276561956
 10
151.6464466094
 20
280.2653950964
 10
152.2595725392
 20
281.6789647802
 10
152.4748737342
 20
283.0531620767
  0
LINE
  5
6B
330
1F
100
AcDbEntity
  8
0
  6
Continuous
 62
     7
370
    25
100
AcDbLine
 10
125.3926840147
 20
283.7501876132
 30
0.0
 11
125.3926840147
 21
367.690583075
 31
0.0
  0
LINE
  5
6C
330
1F
100
AcDbEntity
  8
0
  6
Continuous
 62
     7
370
    25
100
AcDbLine
 10
156.9296464556
 20
265.5442867195
 30
0.0
 11
125.3926840147
 21
283.7501876132
 31
0.0
  0
ARC
  5
6D
330
1F
100
AcDbEntity
  8
0
  6
Continuous
 62
     7
370
    25
100
AcDbCircle
 10
154.279696631
 20
261.4015484153
 30
0.0
 40
4.917775384230548
100
AcDbArc
 50
2.6054784857
 51
57.39452166
  0
LINE
  5
6E
330
1F
100
AcDbEntity
  8
0
  6
Continuous
 62
     7
370
    25
100
AcDbLine
 10
159.1923881554
 20
220.7980625483
 30
0.0
 11
159.1923881554
 21
261.6251031426
 31
0.0
  0
LINE
  5
6F
330
1F
100
AcDbEntity
  8
0
  6
Continuous
 62
     7
370
    25
100
AcDbLine
 10
156.9296464556
 20
222.1043155272
 30
0.0
 11
159.1923881554
 21
220.7980625483
 31
0.0
  0
LINE
  5
70
330
1F
100
AcDbEntity
  8
0
  6
Continuous
 62
     7
370
    25
100
AcDbLine
 10
156.9296464556
 20
262.9313561215
 30
0.0
 11
156.9296464556
 21
222.1043155272
 31
0.0
  0
LINE
  5
71
330
1F
100
AcDbEntity
  8
0
  6
Continuous
 62
     7
370
    25
100
AcDbLine
 10
125.3926840147
 20
281.1372570151
 30
0.0
 11
156.9296464556
 21
262.9313561215
 31
0.0
  0
ARC
  5
72
330
1F
100
AcDbEntity
  8
0
  6
Continuous
 62
     7
370
    25
100
AcDbCircle
 10
128.0426338393
 20
285.2799953193
 30
0.0
 40
4.917775384230769
100
AcDbArc
 50
182.6054784857
 51
237.39452166
  0
LINE
  5
73
330
1F
100
AcDbEntity
  8
0
  6
Continuous
 62
     7
370
    25
100
AcDbLine
 10
123.1299423149
 20
368.9968360539
 30
0.0
 11
123.1299423149
 21
285.0564405921
 31
0.0
  0
LINE
  5
74
330
1F
100
AcDbEntity
  8
0
  6
Continuous
 62
     7
370
    25
100
AcDbLine
 10
125.3926840147
 20
367.690583075
 30
0.0
 11
123.1299423149
 21
368.9968360539
 31
0.0
  0
LINE
  5
75
330
1F
100
AcDbEntity
  8
0
  6
Continuous
 62
     7
370
    25
100
AcDbLine
 10
125.3926840147
 20
283.7501876132
 30
0.0
 11
143.0703535444
 21
293.9552890109
 31
0.0
  0
LINE
  5
76
330
1F
100
AcDbEntity
  8
0
  6
Continuous
 62
     7
370
    25
100
AcDbLine
 10
125.3926840147
 20
367.690583075
 30
0.0
 11
143.0703535444
 21
377.8956844728
 31
0.0
  0
LINE
  5
77
330
1F
100
AcDbEntity
  8
0
  6
Continuous
 62
     7
370
    25
100
AcDbLine
 10
143.0703535444
 20
293.9552890109
 30
0.0
 11
143.0703535444
 21
377.8956844728
 31
0.0
  0
LINE
  5
78
330
1F
100
AcDbEntity
  8
0
  6
Continuous
 62
     7
370
    25
100
AcDbLine
 10
123.1299423149
 20
368.9968360539
 30
0.0
 11
140.8076118446
 21
379.2019374517
 31
0.0
  0
LINE
  5
79
330
1F
100
AcDbEntity
  8
0
  6
Continuous
 62
     7
370
    25
100
AcDbLine
 10
143.0703535444
 20
377.8956844728
 30
0.0
 11
140.8076118446
 21
379.2019374517
 31
0.0
  0
ARC
  5
7A
330
1F
100
AcDbEntity
  8
0
  6
Continuous
 62
     7
370
    25
100
AcDbCircle
 10
171.9573661607
 20
271.6066498131
 30
0.0
 40
4.917775384230578
100
AcDbArc
 50
2.6054784857
 51
57.39452166
  0
LINE
  5
7B
330
1F
100
AcDbEntity
  8
0
  6
Continuous
 62
     7
370
    25
100
AcDbLine
 10
159.1923881554
 20
220.7980625483
 30
0.0
 11
176.8700576851
 21
231.0031639461
 31
0.0
  0
LWPOLYLINE
  5
7C
330
1F
100
AcDbEntity
  8
0
  6
Continuous
 62
     7
370
    25
100
AcDbPolyline
 90
       38
 70
   128
 43
0.0
 10
170.859650045
 20
252.0296538274
 10
170.8189656957
 20
252.5581515206
 10
170.6980830623
 20
253.0244721475
 10
170.5004797182
 20
253.4152005127
 10
170.2318403518
 20
253.7190960725
 10
169.8998932285
 20
253.927416305
 10
169.5141878628
 20
254.0341682164
 10
169.0858202956
 20
254.0362807485
 10
168.6271138821
 20
253.9336931277
 10
168.1512647706
 20
253.729356613
 10
167.6719622736
 20
253.4291495938
 10
167.2029950512
 20
253.0417084797
 10
166.7578544368
 20
252.5781792459
 10
166.3493463151
 20
252.0518967847
 10
165.9892227212
 20
251.4780012842
 10
165.6878437552
 20
250.873002673
 10
165.4538795412
 20
250.2543056598
 10
165.2940608036
 20
249.6397090311
 10
165.2129852366
 20
249.0468936129
 10
165.2129852366
 20
248.4929136256
 10
165.2940608036
 20
247.9937060646
 10
165.4538795412
 20
247.5636322226
 10
165.6878437552
 20
247.215064541
 10
165.9892227212
 20
246.9580306774
 10
166.3493463151
 20
246.799925028
 10
166.7578544368
 20
246.7452960046
 10
167.2029950512
 20
246.7957151846
 10
167.6719622736
 20
246.9497321001
 10
168.1512647706
 20
247.2029159648
 10
168.6271138821
 20
247.5479831399
 10
169.0858202956
 20
247.975006671
 10
169.5141878628
 20
248.4717018686
 10
169.8998932285
 20
249.0237797163
 10
170.2318403518
 20
249.6153579394
 10
170.5004797182
 20
250.2294179097
 10
170.6980830623
 20
250.8482942397
 10
170.8189656957
 20
251.4541829843
 10
170.859650045
 20
252.0296538274
  0
LWPOLYLINE
  5
7D
330
1F
100
AcDbEntity
  8
0
  6
Continuous
 62
     7
370
    25
100
AcDbPolyline
 90
       38
 70
   128
 43
0.0
 10
170.859650045
 20
235.6988375897
 10
170.8189656957
 20
236.2273352829
 10
170.6980830623
 20
236.6936559098
 10
170.5004797182
 20
237.084384275
 10
170.2318403518
 20
237.3882798348
 10
169.8998932285
 20
237.5966000673
 10
169.5141878628
 20
237.7033519787
 10
169.0858202956
 20
237.7054645108
 10
168.6271138821
 20
237.60287689
 10
168.1512647706
 20
237.3985403752
 10
167.6719622736
 20
237.0983333561
 10
167.2029950512
 20
236.710892242
 10
166.7578544368
 20
236.2473630082
 10
166.3493463151
 20
235.721080547
 10
165.9892227212
 20
235.1471850465
 10
165.6878437552
 20
234.5421864353
 10
165.4538795412
 20
233.9234894221
 10
165.2940608036
 20
233.3088927934
 10
165.2129852366
 20
232.7160773752
 10
165.2129852366
 20
232.1620973878
 10
165.2940608036
 20
231.6628898268
 10
165.4538795412
 20
231.2328159848
 10
165.6878437552
 20
230.8842483033
 10
165.9892227212
 20
230.6272144397
 10
166.3493463151
 20
230.4691087903
 10
166.7578544368
 20
230.4144797669
 10
167.2029950512
 20
230.4648989469
 10
167.6719622736
 20
230.6189158624
 10
168.1512647706
 20
230.8720997271
 10
168.6271138821
 20
231.2171669022
 10
169.0858202956
 20
231.6441904333
 10
169.5141878628
 20
232.1408856309
 10
169.8998932285
 20
232.6929634786
 10
170.2318403518
 20
233.2845417017
 10
170.5004797182
 20
233.898601672
 10
170.6980830623
 20
234.517478002
 10
170.8189656957
 20
235.1233667466
 10
170.859650045
 20
235.6988375897
  0
LINE
  5
7E
330
1F
100
AcDbEntity
  8
0
  6
Continuous
 62
     7
370
    25
100
AcDbLine
 10
176.8700576851
 20
231.0031639461
 30
0.0
 11
176.8700576851
 21
271.8302045404
 31
0.0
  0
LINE
  5
7F
330
1F
100
AcDbEntity
  8
0
  6
Continuous
 62
     7
370
    25
100
AcDbLine
 10
174.6073159853
 20
275.7493881173
 30
0.0
 11
143.0703535444
 21
293.9552890109
 31
0.0
  0
LWPOLYLINE
  5
80
330
1F
100
AcDbEntity
  8
0
  6
Continuous
 62
     7
370
    25
100
AcDbPolyline
 90
        3
 70
   128
 43
0.0
 10
168.5969083452
 20
253.3359068063
 10
168.5562239959
 20
253.8644044995
 10
168.5490233446
 20
253.9067220663
  0
ARC
  5
81
330
1F
100
AcDbEntity
  8
0
  6
Continuous
 62
     7
370
    25
100
AcDbCircle
 10
162.7113739356
 20
253.5054738989
 30
0.0
 40
5.887976586686348
100
AcDbArc
 50
295.5481759124
 51
358.3497179258
  0
LWPOLYLINE
  5
82
330
1F
100
AcDbEntity
  8
0
  6
Continuous
 62
     7
370
    25
100
AcDbPolyline
 90
        3
 70
   128
 43
0.0
 10
168.5969083452
 20
237.0050905686
 10
168.5562239959
 20
237.5335882618
 10
168.5490233446
 20
237.5759058286
  0
ARC
  5
83
330
1F
100
AcDbEntity
  8
0
  6
Continuous
 62
     7
370
    25
100
AcDbCircle
 10
162.7113739356
 20
237.1746576612
 30
0.0
 40
5.887976586686316
100
AcDbArc
 50
295.5481759124
 51
358.3497179258
  0
LINE
  5
84
330
1F
100
AcDbEntity
  8
0
  6
HIDDEN
 62
     7
370
    18
100
AcDbLine
 10
140.8076118446
 20
379.2019374517
 30
0.0
 11
140.8076118446
 21
295.2615419899
 31
0.0
  0
LINE
  5
85
330
1F
100
AcDbEntity
  8
0
  6
HIDDEN
 62
     7
370
    18
100
AcDbLine
 10
174.6073159853
 20
273.1364575193
 30
0.0
 11
174.6073159853
 21
232.309416925
 31
0.0
  0
LINE
  5
86
330
1F
100
AcDbEntity
  8
0
  6
HIDDEN
 62
     7
370
    18
100
AcDbLine
 10
156.9296464556
 20
262.9313561215
 30
0.0
 11
174.6073159853
 21
273.1364575193
 31
0.0
  0
LINE
  5
87
330
1F
100
AcDbEntity
  8
0
  6
HIDDEN
 62
     7
370
    18
100
AcDbLine
 10
143.0703535444
 20
291.3423584129
 30
0.0
 11
174.6073159853
 21
273.1364575193
 31
0.0
  0
LWPOLYLINE
  5
88
330
1F
100
AcDbEntity
  8
0
  6
HIDDEN
 62
     7
370
    18
100
AcDbPolyline
 90
       27
 70
   128
 43
0.0
 10
168.5490233446
 20
253.9067220663
 10
168.4353413625
 20
254.3307251264
 10
168.2377380184
 20
254.7214534916
 10
167.969098652
 20
255.0253490514
 10
167.6371515287
 20
255.2336692839
 10
167.251446163
 20
255.3404211953
 10
166.8230785959
 20
255.3425337274
 10
166.3643721823
 20
255.2399461066
 10
165.8885230708
 20
255.0356095919
 10
165.4092205738
 20
254.7354025728
 10
164.9402533514
 20
254.3479614586
 10
164.495112737
 20
253.8844322248
 10
164.0866046153
 20
253.3581497636
 10
163.7264810214
 20
252.7842542631
 10
163.4251020554
 20
252.179255652
 10
163.1911378414
 20
251.5605586387
 10
163.0313191038
 20
250.94596201
 10
162.9502435368
 20
250.3531465919
 10
162.9502435368
 20
249.7991666045
 10
163.0313191038
 20
249.2999590435
 10
163.1911378414
 20
248.8698852015
 10
163.4251020554
 20
248.5213175199
 10
163.7264810214
 20
248.2642836563
 10
164.0866046153
 20
248.1061780069
 10
164.495112737
 20
248.0515489835
 10
164.9402533514
 20
248.1019681635
 10
165.2506807961
 20
248.1932061201
  0
LWPOLYLINE
  5
89
330
1F
100
AcDbEntity
  8
0
  6
HIDDEN
 62
     7
370
    18
100
AcDbPolyline
 90
       27
 70
   128
 43
0.0
 10
168.5490233446
 20
237.5759058286
 10
168.4353413625
 20
237.9999088887
 10
168.2377380184
 20
238.3906372539
 10
167.969098652
 20
238.6945328137
 10
167.6371515287
 20
238.9028530462
 10
167.251446163
 20
239.0096049576
 10
166.8230785959
 20
239.0117174897
 10
166.3643721823
 20
238.9091298689
 10
165.8885230708
 20
238.7047933542
 10
165.4092205738
 20
238.404586335
 10
164.9402533514
 20
238.0171452209
 10
164.495112737
 20
237.5536159871
 10
164.0866046153
 20
237.0273335259
 10
163.7264810214
 20
236.4534380254
 10
163.4251020554
 20
235.8484394142
 10
163.1911378414
 20
235.229742401
 10
163.0313191038
 20
234.6151457723
 10
162.9502435368
 20
234.0223303541
 10
162.9502435368
 20
233.4683503668
 10
163.0313191038
 20
232.9691428058
 10
163.1911378414
 20
232.5390689638
 10
163.4251020554
 20
232.1905012822
 10
163.7264810214
 20
231.9334674186
 10
164.0866046153
 20
231.7753617692
 10
164.495112737
 20
231.7207327458
 10
164.9402533514
 20
231.7711519258
 10
165.2506807961
 20
231.8623898824
  0
ARC
  5
8A
330
1F
100
AcDbEntity
  8
0
  6
HIDDEN
 62
     7
370
    18
100
AcDbCircle
 10
145.720303369
 20
295.4850967171
 30
0.0
 40
4.917775384230576
100
AcDbArc
 50
182.6054784857
 51
237.39452166
  0
LINE
  5
8B
330
1F
100
AcDbEntity
  8
0
  6
HIDDEN
 62
     7
370
    18
100
AcDbLine
 10
156.9296464556
 20
222.1043155272
 30
0.0
 11
174.6073159853
 21
232.309416925
 31
0.0
  0
LINE
  5
8C
330
1F
100
AcDbEntity
  8
0
  6
HIDDEN
 62
     7
370
    18
100
AcDbLine
 10
174.6073159853
 20
232.309416925
 30
0.0
 11
176.8700576851
 21
231.0031639461
 31
0.0
  0
LINE
  5
8D
330
1F
100
AcDbEntity
  8
0
  6
HIDDEN
 62
     7
370
    18
100
AcDbLine
 10
170.0310603855
 20
253.8610330533
 30
0.0
 11
167.7683186857
 21
255.1672860322
 31
0.0
  0
LINE
  5
8E
330
1F
100
AcDbEntity
  8
0
  6
HIDDEN
 62
     7
370
    18
100
AcDbLine
 10
163.7686437552
 20
248.2388951331
 30
0.0
 11
166.031385455
 21
246.9326421542
 31
0.0
  0
LINE
  5
8F
330
1F
100
AcDbEntity
  8
0
  6
HIDDEN
 62
     7
370
    18
100
AcDbLine
 10
170.0310603855
 20
237.5302168156
 30
0.0
 11
167.7683186857
 21
238.8364697945
 31
0.0
  0
LINE
  5
90
330
1F
100
AcDbEntity
  8
0
  6
HIDDEN
 62
     7
370
    18
100
AcDbLine
 10
163.7686437552
 20
231.9080788954
 30
0.0
 11
166.031385455
 21
230.6018259165
 31
0.0
  0
LWPOLYLINE
  5
91
330
1F
100
AcDbEntity
  8
0
  6
Continuous
 62
     7
100
AcDbPolyline
 90
       17
 70
   128
 43
0.0
 10
400.7071067812
 20
267.7431877289
 10
400.4918055862
 20
268.8688035568
 10
399.8786796564
 20
269.5744731102
 10
398.9610718567
 20
269.7527645964
 10
397.8786796564
 20
269.3765347528
 10
396.7962874561
 20
268.5030611626
 10
395.8786796564
 20
267.2653222619
 10
395.2655537267
 20
265.8517525781
 10
395.0502525317
 20
264.4775552816
 10
395.2655537267
 20
263.3519394536
 10
395.8786796564
 20
262.6462699003
 10
396.7962874561
 20
262.4679784141
 10
397.8786796564
 20
262.8442082577
 10
398.9610718567
 20
263.7176818479
 10
399.8786796564
 20
264.9554207486
 10
400.4918055862
 20
266.3689904324
 10
400.7071067812
 20
267.7431877289
  0
LWPOLYLINE
  5
92
330
1F
100
AcDbEntity
  8
0
  6
Continuous
 62
     7
100
AcDbPolyline
 90
       17
 70
   128
 43
0.0
 10
414.8492424049
 20
275.9072688471
 10
414.6339412099
 20
277.0328846751
 10
414.0208152802
 20
277.7385542284
 10
413.1032074805
 20
277.9168457146
 10
412.0208152802
 20
277.540615871
 10
410.9384230799
 20
276.6671422808
 10
410.0208152802
 20
275.4294033801
 10
409.4076893504
 20
274.0158336963
 10
409.1923881554
 20
272.6416363998
 10
409.4076893504
 20
271.5160205718
 10
410.0208152802
 20
270.8103510185
 10
410.9384230799
 20
270.6320595323
 10
412.0208152802
 20
271.0082893759
 10
413.1032074805
 20
271.8817629661
 10
414.0208152802
 20
273.1195018668
 10
414.6339412099
 20
274.5330715506
 10
414.8492424049
 20
275.9072688471
  0
LWPOLYLINE
  5
93
330
1F
100
AcDbEntity
  8
0
  6
Continuous
 62
     7
100
AcDbPolyline
 90
       17
 70
   128
 43
0.0
 10
400.7071067812
 20
247.3296674317
 10
400.4918055862
 20
248.4552832597
 10
399.8786796564
 20
249.1609528131
 10
398.9610718567
 20
249.3392442992
 10
397.8786796564
 20
248.9630144556
 10
396.7962874561
 20
248.0895408654
 10
395.8786796564
 20
246.8518019647
 10
395.2655537267
 20
245.4382322809
 10
395.0502525317
 20
244.0640349844
 10
395.2655537267
 20
242.9384191565
 10
395.8786796564
 20
242.2327496031
 10
396.7962874561
 20
242.054458117
 10
397.8786796564
 20
242.4306879605
 10
398.9610718567
 20
243.3041615507
 10
399.8786796564
 20
244.5419004515
 10
400.4918055862
 20
245.9554701352
 10
400.7071067812
 20
247.3296674317
  0
LWPOLYLINE
  5
94
330
1F
100
AcDbEntity
  8
0
  6
Continuous
 62
     7
100
AcDbPolyline
 90
       17
 70
   128
 43
0.0
 10
414.8492424049
 20
255.49374855
 10
414.6339412099
 20
256.6193643779
 10
414.0208152802
 20
257.3250339313
 10
413.1032074805
 20
257.5033254174
 10
412.0208152802
 20
257.1270955739
 10
410.9384230799
 20
256.2536219837
 10
410.0208152802
 20
255.0158830829
 10
409.4076893504
 20
253.6023133992
 10
409.1923881554
 20
252.2281161027
 10
409.4076893504
 20
251.1025002747
 10
410.0208152802
 20
250.3968307213
 10
410.9384230799
 20
250.2185392352
 10
412.0208152802
 20
250.5947690788
 10
413.1032074805
 20
251.468242669
 10
414.0208152802
 20
252.7059815697
 10
414.6339412099
 20
254.1195512535
 10
414.8492424049
 20
255.49374855
  0
LWPOLYLINE
  5
95
330
1F
100
AcDbEntity
  8
0
  6
Continuous
 62
     7
100
AcDbPolyline
 90
       17
 70
   128
 43
0.0
 10
400.7071067812
 20
267.7431877289
 10
400.4918055862
 20
268.8688035568
 10
399.8786796564
 20
269.5744731102
 10
398.9610718567
 20
269.7527645964
 10
397.8786796564
 20
269.3765347528
 10
396.7962874561
 20
268.5030611626
 10
395.8786796564
 20
267.2653222619
 10
395.2655537267
 20
265.8517525781
 10
395.0502525317
 20
264.4775552816
 10
395.2655537267
 20
263.3519394536
 10
395.8786796564
 20
262.6462699003
 10
396.7962874561
 20
262.4679784141
 10
397.8786796564
 20
262.8442082577
 10
398.9610718567
 20
263.7176818479
 10
399.8786796564
 20
264.9554207486
 10
400.4918055862
 20
266.3689904324
 10
400.7071067812
 20
267.7431877289
  0
LWPOLYLINE
  5
96
330
1F
100
AcDbEntity
  8
0
  6
Continuous
 62
     7
100
AcDbPolyline
 90
       17
 70
   128
 43
0.0
 10
414.8492424049
 20
275.9072688471
 10
414.6339412099
 20
277.0328846751
 10
414.0208152802
 20
277.7385542284
 10
413.1032074805
 20
277.9168457146
 10
412.0208152802
 20
277.540615871
 10
410.9384230799
 20
276.6671422808
 10
410.0208152802
 20
275.4294033801
 10
409.4076893504
 20
274.0158336963
 10
409.1923881554
 20
272.6416363998
 10
409.4076893504
 20
271.5160205718
 10
410.0208152802
 20
270.8103510185
 10
410.9384230799
 20
270.6320595323
 10
412.0208152802
 20
271.0082893759
 10
413.1032074805
 20
271.8817629661
 10
414.0208152802
 20
273.1195018668
 10
414.6339412099
 20
274.5330715506
 10
414.8492424049
 20
275.9072688471
  0
LWPOLYLINE
  5
97
330
1F
100
AcDbEntity
  8
0
  6
Continuous
 62
     7
100
AcDbPolyline
 90
       17
 70
   128
 43
0.0
 10
402.4748737342
 20
266.7223458389
 10
402.2595725392
 20
267.8479616669
 10
401.6464466094
 20
268.5536312203
 10
400.7288388097
 20
268.7319227064
 10
399.6464466094
 20
268.3556928628
 10
398.5640544091
 20
267.4822192727
 10
397.6464466094
 20
266.2444803719
 10
397.0333206797
 20
264.8309106881
 10
396.8180194847
 20
263.4567133916
 10
397.0333206797
 20
262.3310975637
 10
397.6464466094
 20
261.6254280103
 10
398.5640544091
 20
261.4471365242
 10
399.6464466094
 20
261.8233663677
 10
400.7288388097
 20
262.6968399579
 10
401.6464466094
 20
263.9345788587
 10
402.2595725392
 20
265.3481485424
 10
402.4748737342
 20
266.7223458389
  0
LWPOLYLINE
  5
98
330
1F
100
AcDbEntity
  8
0
  6
Continuous
 62
     7
100
AcDbPolyline
 90
       17
 70
   128
 43
0.0
 10
402.4748737342
 20
283.0531620767
 10
402.2595725392
 20
284.1787779046
 10
401.6464466094
 20
284.884447458
 10
400.7288388097
 20
285.0627389441
 10
399.6464466094
 20
284.6865091006
 10
398.5640544091
 20
283.8130355104
 10
397.6464466094
 20
282.5752966096
 10
397.0333206797
 20
281.1617269259
 10
396.8180194847
 20
279.7875296294
 10
397.0333206797
 20
278.6619138014
 10
397.6464466094
 20
277.956244248
 10
398.5640544091
 20
277.7779527619
 10
399.6464466094
 20
278.1541826055
 10
400.7288388097
 20
279.0276561956
 10
401.6464466094
 20
280.2653950964
 10
402.2595725392
 20
281.6789647802
 10
402.4748737342
 20
283.0531620767
  0
LINE
  5
99
330
1F
100
AcDbEntity
  8
0
  6
Continuous
 62
     7
370
    25
100
AcDbLine
 10
375.3926840147
 20
283.7501876132
 30
0.0
 11
375.3926840147
 21
367.690583075
 31
0.0
  0
LINE
  5
9A
330
1F
100
AcDbEntity
  8
0
  6
Continuous
 62
     7
370
    25
100
AcDbLine
 10
406.9296464556
 20
265.5442867195
 30
0.0
 11
375.3926840147
 21
283.7501876132
 31
0.0
  0
ARC
  5
9B
330
1F
100
AcDbEntity
  8
0
  6
Continuous
 62
     7
370
    25
100
AcDbCircle
 10
404.279696631
 20
261.4015484153
 30
0.0
 40
4.917775384230404
100
AcDbArc
 50
2.6054784857
 51
57.39452166
  0
LINE
  5
9C
330
1F
100
AcDbEntity
  8
0
  6
Continuous
 62
     7
370
    25
100
AcDbLine
 10
409.1923881554
 20
220.7980625483
 30
0.0
 11
409.1923881554
 21
261.6251031426
 31
0.0
  0
LINE
  5
9D
330
1F
100
AcDbEntity
  8
0
  6
Continuous
 62
     7
370
    25
100
AcDbLine
 10
406.9296464556
 20
222.1043155272
 30
0.0
 11
409.1923881554
 21
220.7980625483
 31
0.0
  0
LINE
  5
9E
330
1F
100
AcDbEntity
  8
0
  6
Continuous
 62
     7
370
    25
100
AcDbLine
 10
406.9296464556
 20
262.9313561215
 30
0.0
 11
406.9296464556
 21
222.1043155272
 31
0.0
  0
LINE
  5
9F
330
1F
100
AcDbEntity
  8
0
  6
Continuous
 62
     7
370
    25
100
AcDbLine
 10
375.3926840147
 20
281.1372570151
 30
0.0
 11
406.9296464556
 21
262.9313561215
 31
0.0
  0
ARC
  5
A0
330
1F
100
AcDbEntity
  8
0
  6
Continuous
 62
     7
370
    25
100
AcDbCircle
 10
378.0426338393
 20
285.2799953193
 30
0.0
 40
4.917775384230591
100
AcDbArc
 50
182.6054784857
 51
237.39452166
  0
LINE
  5
A1
330
1F
100
AcDbEntity
  8
0
  6
Continuous
 62
     7
370
    25
100
AcDbLine
 10
373.1299423149
 20
368.9968360539
 30
0.0
 11
373.1299423149
 21
285.0564405921
 31
0.0
  0
LINE
  5
A2
330
1F
100
AcDbEntity
  8
0
  6
Continuous
 62
     7
370
    25
100
AcDbLine
 10
375.3926840147
 20
367.690583075
 30
0.0
 11
373.1299423149
 21
368.9968360539
 31
0.0
  0
LINE
  5
A3
330
1F
100
AcDbEntity
  8
0
  6
Continuous
 62
     7
370
    25
100
AcDbLine
 10
375.3926840147
 20
283.7501876132
 30
0.0
 11
393.0703535444
 21
293.9552890109
 31
0.0
  0
LINE
  5
A4
330
1F
100
AcDbEntity
  8
0
  6
Continuous
 62
     7
370
    25
100
AcDbLine
 10
375.3926840147
 20
367.690583075
 30
0.0
 11
393.0703535444
 21
377.8956844728
 31
0.0
  0
LINE
  5
A5
330
1F
100
AcDbEntity
  8
0
  6
Continuous
 62
     7
370
    25
100
AcDbLine
 10
393.0703535444
 20
293.9552890109
 30
0.0
 11
393.0703535444
 21
377.8956844728
 31
0.0
  0
LINE
  5
A6
330
1F
100
AcDbEntity
  8
0
  6
Continuous
 62
     7
370
    25
100
AcDbLine
 10
373.1299423149
 20
368.9968360539
 30
0.0
 11
390.8076118446
 21
379.2019374517
 31
0.0
  0
LINE
  5
A7
330
1F
100
AcDbEntity
  8
0
  6
Continuous
 62
     7
370
    25
100
AcDbLine
 10
393.0703535444
 20
377.8956844728
 30
0.0
 11
390.8076118446
 21
379.2019374517
 31
0.0
  0
ARC
  5
A8
330
1F
100
AcDbEntity
  8
0
  6
Continuous
 62
     7
370
    25
100
AcDbCircle
 10
421.9573661607
 20
271.6066498131
 30
0.0
 40
4.917775384230347
100
AcDbArc
 50
2.6054784857
 51
57.39452166
  0
LINE
  5
A9
330
1F
100
AcDbEntity
  8
0
  6
Continuous
 62
     7
370
    25
100
AcDbLine
 10
409.1923881554
 20
220.7980625483
 30
0.0
 11
426.8700576851
 21
231.0031639461
 31
0.0
  0
LWPOLYLINE
  5
AA
330
1F
100
AcDbEntity
  8
0
  6
Continuous
 62
     7
370
    25
100
AcDbPolyline
 90
       38
 70
   128
 43
0.0
 10
420.859650045
 20
252.0296538274
 10
420.8189656957
 20
252.5581515206
 10
420.6980830623
 20
253.0244721475
 10
420.5004797182
 20
253.4152005127
 10
420.2318403518
 20
253.7190960725
 10
419.8998932285
 20
253.927416305
 10
419.5141878628
 20
254.0341682164
 10
419.0858202956
 20
254.0362807485
 10
418.6271138821
 20
253.9336931277
 10
418.1512647706
 20
253.729356613
 10
417.6719622736
 20
253.4291495938
 10
417.2029950512
 20
253.0417084797
 10
416.7578544368
 20
252.5781792459
 10
416.3493463151
 20
252.0518967847
 10
415.9892227212
 20
251.4780012842
 10
415.6878437552
 20
250.873002673
 10
415.4538795412
 20
250.2543056598
 10
415.2940608036
 20
249.6397090311
 10
415.2129852366
 20
249.0468936129
 10
415.2129852366
 20
248.4929136256
 10
415.2940608036
 20
247.9937060646
 10
415.4538795412
 20
247.5636322226
 10
415.6878437552
 20
247.215064541
 10
415.9892227212
 20
246.9580306774
 10
416.3493463151
 20
246.799925028
 10
416.7578544368
 20
246.7452960046
 10
417.2029950512
 20
246.7957151846
 10
417.6719622736
 20
246.9497321001
 10
418.1512647706
 20
247.2029159648
 10
418.6271138821
 20
247.5479831399
 10
419.0858202956
 20
247.975006671
 10
419.5141878628
 20
248.4717018686
 10
419.8998932285
 20
249.0237797163
 10
420.2318403518
 20
249.6153579394
 10
420.5004797182
 20
250.2294179097
 10
420.6980830623
 20
250.8482942397
 10
420.8189656957
 20
251.4541829843
 10
420.859650045
 20
252.0296538274
  0
LWPOLYLINE
  5
AB
330
1F
100
AcDbEntity
  8
0
  6
Continuous
 62
     7
370
    25
100
AcDbPolyline
 90
       38
 70
   128
 43
0.0
 10
420.859650045
 20
235.6988375897
 10
420.8189656957
 20
236.2273352829
 10
420.6980830623
 20
236.6936559098
 10
420.5004797182
 20
237.084384275
 10
420.2318403518
 20
237.3882798348
 10
419.8998932285
 20
237.5966000673
 10
419.5141878628
 20
237.7033519787
 10
419.0858202956
 20
237.7054645108
 10
418.6271138821
 20
237.60287689
 10
418.1512647706
 20
237.3985403752
 10
417.6719622736
 20
237.0983333561
 10
417.2029950512
 20
236.710892242
 10
416.7578544368
 20
236.2473630082
 10
416.3493463151
 20
235.721080547
 10
415.9892227212
 20
235.1471850465
 10
415.6878437552
 20
234.5421864353
 10
415.4538795412
 20
233.9234894221
 10
415.2940608036
 20
233.3088927934
 10
415.2129852366
 20
232.7160773752
 10
415.2129852366
 20
232.1620973878
 10
415.2940608036
 20
231.6628898268
 10
415.4538795412
 20
231.2328159848
 10
415.6878437552
 20
230.8842483033
 10
415.9892227212
 20
230.6272144397
 10
416.3493463151
 20
230.4691087903
 10
416.7578544368
 20
230.4144797669
 10
417.2029950512
 20
230.4648989469
 10
417.6719622736
 20
230.6189158624
 10
418.1512647706
 20
230.8720997271
 10
418.6271138821
 20
231.2171669022
 10
419.0858202956
 20
231.6441904333
 10
419.5141878628
 20
232.1408856309
 10
419.8998932285
 20
232.6929634786
 10
420.2318403518
 20
233.2845417017
 10
420.5004797182
 20
233.898601672
 10
420.6980830623
 20
234.517478002
 10
420.8189656957
 20
235.1233667466
 10
420.859650045
 20
235.6988375897
  0
LINE
  5
AC
330
1F
100
AcDbEntity
  8
0
  6
Continuous
 62
     7
370
    25
100
AcDbLine
 10
426.8700576851
 20
231.0031639461
 30
0.0
 11
426.8700576851
 21
271.8302045404
 31
0.0
  0
LINE
  5
AD
330
1F
100
AcDbEntity
  8
0
  6
Continuous
 62
     7
370
    25
100
AcDbLine
 10
424.6073159853
 20
275.7493881173
 30
0.0
 11
393.0703535444
 21
293.9552890109
 31
0.0
  0
LWPOLYLINE
  5
AE
330
1F
100
AcDbEntity
  8
0
  6
Continuous
 62
     7
370
    25
100
AcDbPolyline
 90
        3
 70
   128
 43
0.0
 10
418.5969083452
 20
253.3359068063
 10
418.5562239959
 20
253.8644044995
 10
418.5490233446
 20
253.9067220663
  0
ARC
  5
AF
330
1F
100
AcDbEntity
  8
0
  6
Continuous
 62
     7
370
    25
100
AcDbCircle
 10
412.7113739356
 20
253.5054738989
 30
0.0
 40
5.887976586686374
100
AcDbArc
 50
295.5481759124
 51
358.3497179258
  0
LWPOLYLINE
  5
B0
330
1F
100
AcDbEntity
  8
0
  6
Continuous
 62
     7
370
    25
100
AcDbPolyline
 90
        3
 70
   128
 43
0.0
 10
418.5969083452
 20
237.0050905686
 10
418.5562239959
 20
237.5335882618
 10
418.5490233446
 20
237.5759058286
  0
ARC
  5
B1
330
1F
100
AcDbEntity
  8
0
  6
Continuous
 62
     7
370
    25
100
AcDbCircle
 10
412.7113739356
 20
237.1746576612
 30
0.0
 40
5.887976586686321
100
AcDbArc
 50
295.5481759124
 51
358.3497179258
  0
LINE
  5
B2
330
1F
100
AcDbEntity
  8
0
  6
PHANTOM
 62
     8
370
    18
100
AcDbLine
 10
409.1923881554
 20
261.6251031426
 30
0.0
 11
426.8700576851
 21
271.8302045404
 31
0.0
  0
LINE
  5
B3
330
1F
100
AcDbEntity
  8
0
  6
PHANTOM
 62
     8
370
    18
100
AcDbLine
 10
406.9296464556
 20
265.5442867195
 30
0.0
 11
424.6073159853
 21
275.7493881173
 31
0.0
  0
LINE
  5
B4
330
1F
100
AcDbEntity
  8
0
  6
HIDDEN
 62
     7
370
    18
100
AcDbLine
 10
390.8076118446
 20
379.2019374517
 30
0.0
 11
390.8076118446
 21
295.2615419899
 31
0.0
  0
LINE
  5
B5
330
1F
100
AcDbEntity
  8
0
  6
HIDDEN
 62
     7
370
    18
100
AcDbLine
 10
424.6073159853
 20
273.1364575193
 30
0.0
 11
424.6073159853
 21
232.309416925
 31
0.0
  0
LINE
  5
B6
330
1F
100
AcDbEntity
  8
0
  6
HIDDEN
 62
     7
370
    18
100
AcDbLine
 10
406.9296464556
 20
262.9313561215
 30
0.0
 11
424.6073159853
 21
273.1364575193
 31
0.0
  0
LINE
  5
B7
330
1F
100
AcDbEntity
  8
0
  6
HIDDEN
 62
     7
370
    18
100
AcDbLine
 10
393.0703535444
 20
291.3423584129
 30
0.0
 11
424.6073159853
 21
273.1364575193
 31
0.0
  0
LWPOLYLINE
  5
B8
330
1F
100
AcDbEntity
  8
0
  6
HIDDEN
 62
     7
370
    18
100
AcDbPolyline
 90
       27
 70
   128
 43
0.0
 10
418.5490233446
 20
253.9067220663
 10
418.4353413625
 20
254.3307251264
 10
418.2377380184
 20
254.7214534916
 10
417.969098652
 20
255.0253490514
 10
417.6371515287
 20
255.2336692839
 10
417.251446163
 20
255.3404211953
 10
416.8230785959
 20
255.3425337274
 10
416.3643721823
 20
255.2399461066
 10
415.8885230708
 20
255.0356095919
 10
415.4092205738
 20
254.7354025728
 10
414.9402533514
 20
254.3479614586
 10
414.495112737
 20
253.8844322248
 10
414.0866046153
 20
253.3581497636
 10
413.7264810214
 20
252.7842542631
 10
413.4251020554
 20
252.179255652
 10
413.1911378414
 20
251.5605586387
 10
413.0313191038
 20
250.94596201
 10
412.9502435368
 20
250.3531465919
 10
412.9502435368
 20
249.7991666045
 10
413.0313191038
 20
249.2999590435
 10
413.1911378414
 20
248.8698852015
 10
413.4251020554
 20
248.5213175199
 10
413.7264810214
 20
248.2642836563
 10
414.0866046153
 20
248.1061780069
 10
414.495112737
 20
248.0515489835
 10
414.9402533514
 20
248.1019681635
 10
415.2506807961
 20
248.1932061201
  0
LWPOLYLINE
  5
B9
330
1F
100
AcDbEntity
  8
0
  6
HIDDEN
 62
     7
370
    18
100
AcDbPolyline
 90
       27
 70
   128
 43
0.0
 10
418.5490233446
 20
237.5759058286
 10
418.4353413625
 20
237.9999088887
 10
418.2377380184
 20
238.3906372539
 10
417.969098652
 20
238.6945328137
 10
417.6371515287
 20
238.9028530462
 10
417.251446163
 20
239.0096049576
 10
416.8230785959
 20
239.0117174897
 10
416.3643721823
 20
238.9091298689
 10
415.8885230708
 20
238.7047933542
 10
415.4092205738
 20
238.404586335
 10
414.9402533514
 20
238.0171452209
 10
414.495112737
 20
237.5536159871
 10
414.0866046153
 20
237.0273335259
 10
413.7264810214
 20
236.4534380254
 10
413.4251020554
 20
235.8484394142
 10
413.1911378414
 20
235.229742401
 10
413.0313191038
 20
234.6151457723
 10
412.9502435368
 20
234.0223303541
 10
412.9502435368
 20
233.4683503668
 10
413.0313191038
 20
232.9691428058
 10
413.1911378414
 20
232.5390689638
 10
413.4251020554
 20
232.1905012822
 10
413.7264810214
 20
231.9334674186
 10
414.0866046153
 20
231.7753617692
 10
414.495112737
 20
231.7207327458
 10
414.9402533514
 20
231.7711519258
 10
415.2506807961
 20
231.8623898824
  0
ARC
  5
BA
330
1F
100
AcDbEntity
  8
0
  6
HIDDEN
 62
     7
370
    18
100
AcDbCircle
 10
395.720303369
 20
295.4850967171
 30
0.0
 40
4.917775384230294
100
AcDbArc
 50
182.6054784857
 51
237.39452166
  0
LINE
  5
BB
330
1F
100
AcDbEntity
  8
0
  6
HIDDEN
 62
     7
370
    18
100
AcDbLine
 10
406.9296464556
 20
222.1043155272
 30
0.0
 11
424.6073159853
 21
232.309416925
 31
0.0
  0
LINE
  5
BC
330
1F
100
AcDbEntity
  8
0
  6
HIDDEN
 62
     7
370
    18
100
AcDbLine
 10
424.6073159853
 20
232.309416925
 30
0.0
 11
426.8700576851
 21
231.0031639461
 31
0.0
  0
LINE
  5
BD
330
1F
100
AcDbEntity
  8
0
  6
HIDDEN
 62
     7
370
    18
100
AcDbLine
 10
420.0310603855
 20
253.8610330533
 30
0.0
 11
417.7683186857
 21
255.1672860322
 31
0.0
  0
LINE
  5
BE
330
1F
100
AcDbEntity
  8
0
  6
HIDDEN
 62
     7
370
    18
100
AcDbLine
 10
413.7686437552
 20
248.2388951331
 30
0.0
 11
416.031385455
 21
246.9326421542
 31
0.0
  0
LINE
  5
BF
330
1F
100
AcDbEntity
  8
0
  6
HIDDEN
 62
     7
370
    18
100
AcDbLine
 10
420.0310603855
 20
237.5302168156
 30
0.0
 11
417.7683186857
 21
238.8364697945
 31
0.0
  0
LINE
  5
C0
330
1F
100
AcDbEntity
  8
0
  6
HIDDEN
 62
     7
370
    18
100
AcDbLine
 10
413.7686437552
 20
231.9080788954
 30
0.0
 11
416.031385455
 21
230.6018259165
 31
0.0
  0
LINE
  5
C1
330
1F
100
AcDbEntity
  8
0
  6
HIDDEN
 62
     7
370
    18
100
AcDbLine
 10
375.3926840147
 20
281.1372570151
 30
0.0
 11
393.0703535444
 21
291.3423584129
 31
0.0
  0
LINE
  5
C2
330
1F
100
AcDbEntity
  8
0
  6
HIDDEN
 62
     7
370
    18
100
AcDbLine
 10
373.1299423149
 20
285.0564405921
 30
0.0
 11
390.8076118446
 21
295.2615419899
 31
0.0
  0
LWPOLYLINE
  5
C3
330
1F
100
AcDbEntity
  8
0
  6
Continuous
 62
     7
100
AcDbPolyline
 90
       17
 70
   128
 43
0.0
 10
650.7071067812
 20
267.7431877289
 10
650.4918055862
 20
268.8688035568
 10
649.8786796564
 20
269.5744731102
 10
648.9610718567
 20
269.7527645964
 10
647.8786796564
 20
269.3765347528
 10
646.7962874561
 20
268.5030611626
 10
645.8786796564
 20
267.2653222619
 10
645.2655537267
 20
265.8517525781
 10
645.0502525317
 20
264.4775552816
 10
645.2655537267
 20
263.3519394536
 10
645.8786796564
 20
262.6462699003
 10
646.7962874561
 20
262.4679784141
 10
647.8786796564
 20
262.8442082577
 10
648.9610718567
 20
263.7176818479
 10
649.8786796564
 20
264.9554207486
 10
650.4918055862
 20
266.3689904324
 10
650.7071067812
 20
267.7431877289
  0
LWPOLYLINE
  5
C4
330
1F
100
AcDbEntity
  8
0
  6
Continuous
 62
     7
100
AcDbPolyline
 90
       17
 70
   128
 43
0.0
 10
664.8492424049
 20
275.9072688471
 10
664.6339412099
 20
277.0328846751
 10
664.0208152802
 20
277.7385542284
 10
663.1032074805
 20
277.9168457146
 10
662.0208152802
 20
277.540615871
 10
660.9384230799
 20
276.6671422808
 10
660.0208152802
 20
275.4294033801
 10
659.4076893504
 20
274.0158336963
 10
659.1923881554
 20
272.6416363998
 10
659.4076893504
 20
271.5160205718
 10
660.0208152802
 20
270.8103510185
 10
660.9384230799
 20
270.6320595323
 10
662.0208152802
 20
271.0082893759
 10
663.1032074805
 20
271.8817629661
 10
664.0208152802
 20
273.1195018668
 10
664.6339412099
 20
274.5330715506
 10
664.8492424049
 20
275.9072688471
  0
LWPOLYLINE
  5
C5
330
1F
100
AcDbEntity
  8
0
  6
Continuous
 62
     7
100
AcDbPolyline
 90
       17
 70
   128
 43
0.0
 10
650.7071067812
 20
247.3296674317
 10
650.4918055862
 20
248.4552832597
 10
649.8786796564
 20
249.1609528131
 10
648.9610718567
 20
249.3392442992
 10
647.8786796564
 20
248.9630144556
 10
646.7962874561
 20
248.0895408654
 10
645.8786796564
 20
246.8518019647
 10
645.2655537267
 20
245.4382322809
 10
645.0502525317
 20
244.0640349844
 10
645.2655537267
 20
242.9384191565
 10
645.8786796564
 20
242.2327496031
 10
646.7962874561
 20
242.054458117
 10
647.8786796564
 20
242.4306879605
 10
648.9610718567
 20
243.3041615507
 10
649.8786796564
 20
244.5419004515
 10
650.4918055862
 20
245.9554701352
 10
650.7071067812
 20
247.3296674317
  0
LWPOLYLINE
  5
C6
330
1F
100
AcDbEntity
  8
0
  6
Continuous
 62
     7
100
AcDbPolyline
 90
       17
 70
   128
 43
0.0
 10
664.8492424049
 20
255.49374855
 10
664.6339412099
 20
256.6193643779
 10
664.0208152802
 20
257.3250339313
 10
663.1032074805
 20
257.5033254174
 10
662.0208152802
 20
257.1270955739
 10
660.9384230799
 20
256.2536219837
 10
660.0208152802
 20
255.0158830829
 10
659.4076893504
 20
253.6023133992
 10
659.1923881554
 20
252.2281161027
 10
659.4076893504
 20
251.1025002747
 10
660.0208152802
 20
250.3968307213
 10
660.9384230799
 20
250.2185392352
 10
662.0208152802
 20
250.5947690788
 10
663.1032074805
 20
251.468242669
 10
664.0208152802
 20
252.7059815697
 10
664.6339412099
 20
254.1195512535
 10
664.8492424049
 20
255.49374855
  0
LWPOLYLINE
  5
C7
330
1F
100
AcDbEntity
  8
0
  6
Continuous
 62
     7
100
AcDbPolyline
 90
       17
 70
   128
 43
0.0
 10
650.7071067812
 20
267.7431877289
 10
650.4918055862
 20
268.8688035568
 10
649.8786796564
 20
269.5744731102
 10
648.9610718567
 20
269.7527645964
 10
647.8786796564
 20
269.3765347528
 10
646.7962874561
 20
268.5030611626
 10
645.8786796564
 20
267.2653222619
 10
645.2655537267
 20
265.8517525781
 10
645.0502525317
 20
264.4775552816
 10
645.2655537267
 20
263.3519394536
 10
645.8786796564
 20
262.6462699003
 10
646.7962874561
 20
262.4679784141
 10
647.8786796564
 20
262.8442082577
 10
648.9610718567
 20
263.7176818479
 10
649.8786796564
 20
264.9554207486
 10
650.4918055862
 20
266.3689904324
 10
650.7071067812
 20
267.7431877289
  0
LWPOLYLINE
  5
C8
330
1F
100
AcDbEntity
  8
0
  6
Continuous
 62
     7
100
AcDbPolyline
 90
       17
 70
   128
 43
0.0
 10
664.8492424049
 20
275.9072688471
 10
664.6339412099
 20
277.0328846751
 10
664.0208152802
 20
277.7385542284
 10
663.1032074805
 20
277.9168457146
 10
662.0208152802
 20
277.540615871
 10
660.9384230799
 20
276.6671422808
 10
660.0208152802
 20
275.4294033801
 10
659.4076893504
 20
274.0158336963
 10
659.1923881554
 20
272.6416363998
 10
659.4076893504
 20
271.5160205718
 10
660.0208152802
 20
270.8103510185
 10
660.9384230799
 20
270.6320595323
 10
662.0208152802
 20
271.0082893759
 10
663.1032074805
 20
271.8817629661
 10
664.0208152802
 20
273.1195018668
 10
664.6339412099
 20
274.5330715506
 10
664.8492424049
 20
275.9072688471
  0
LWPOLYLINE
  5
C9
330
1F
100
AcDbEntity
  8
0
  6
Continuous
 62
     7
100
AcDbPolyline
 90
       17
 70
   128
 43
0.0
 10
652.4748737342
 20
266.7223458389
 10
652.2595725392
 20
267.8479616669
 10
651.6464466094
 20
268.5536312203
 10
650.7288388097
 20
268.7319227064
 10
649.6464466094
 20
268.3556928628
 10
648.5640544091
 20
267.4822192727
 10
647.6464466094
 20
266.2444803719
 10
647.0333206797
 20
264.8309106881
 10
646.8180194847
 20
263.4567133916
 10
647.0333206797
 20
262.3310975637
 10
647.6464466094
 20
261.6254280103
 10
648.5640544091
 20
261.4471365242
 10
649.6464466094
 20
261.8233663677
 10
650.7288388097
 20
262.6968399579
 10
651.6464466094
 20
263.9345788587
 10
652.2595725392
 20
265.3481485424
 10
652.4748737342
 20
266.7223458389
  0
LWPOLYLINE
  5
CA
330
1F
100
AcDbEntity
  8
0
  6
Continuous
 62
     7
100
AcDbPolyline
 90
       17
 70
   128
 43
0.0
 10
652.4748737342
 20
283.0531620767
 10
652.2595725392
 20
284.1787779046
 10
651.6464466094
 20
284.884447458
 10
650.7288388097
 20
285.0627389441
 10
649.6464466094
 20
284.6865091006
 10
648.5640544091
 20
283.8130355104
 10
647.6464466094
 20
282.5752966096
 10
647.0333206797
 20
281.1617269259
 10
646.8180194847
 20
279.7875296294
 10
647.0333206797
 20
278.6619138014
 10
647.6464466094
 20
277.956244248
 10
648.5640544091
 20
277.7779527619
 10
649.6464466094
 20
278.1541826055
 10
650.7288388097
 20
279.0276561956
 10
651.6464466094
 20
280.2653950964
 10
652.2595725392
 20
281.6789647802
 10
652.4748737342
 20
283.0531620767
  0
LINE
  5
CB
330
1F
100
AcDbEntity
  8
0
  6
Continuous
 62
     7
370
    25
100
AcDbLine
 10
625.3926840147
 20
283.7501876132
 30
0.0
 11
625.3926840147
 21
367.690583075
 31
0.0
  0
LINE
  5
CC
330
1F
100
AcDbEntity
  8
0
  6
Continuous
 62
     7
370
    25
100
AcDbLine
 10
656.9296464556
 20
265.5442867195
 30
0.0
 11
625.3926840147
 21
283.7501876132
 31
0.0
  0
ARC
  5
CD
330
1F
100
AcDbEntity
  8
0
  6
Continuous
 62
     7
370
    25
100
AcDbCircle
 10
654.279696631
 20
261.4015484153
 30
0.0
 40
4.917775384230748
100
AcDbArc
 50
2.6054784857
 51
57.39452166
  0
LINE
  5
CE
330
1F
100
AcDbEntity
  8
0
  6
Continuous
 62
     7
370
    25
100
AcDbLine
 10
659.1923881554
 20
220.7980625483
 30
0.0
 11
659.1923881554
 21
261.6251031426
 31
0.0
  0
LINE
  5
CF
330
1F
100
AcDbEntity
  8
0
  6
Continuous
 62
     7
370
    25
100
AcDbLine
 10
656.9296464556
 20
222.1043155272
 30
0.0
 11
659.1923881554
 21
220.7980625483
 31
0.0
  0
LINE
  5
D0
330
1F
100
AcDbEntity
  8
0
  6
Continuous
 62
     7
370
    25
100
AcDbLine
 10
656.9296464556
 20
262.9313561215
 30
0.0
 11
656.9296464556
 21
222.1043155272
 31
0.0
  0
LINE
  5
D1
330
1F
100
AcDbEntity
  8
0
  6
Continuous
 62
     7
370
    25
100
AcDbLine
 10
625.3926840147
 20
281.1372570151
 30
0.0
 11
656.9296464556
 21
262.9313561215
 31
0.0
  0
ARC
  5
D2
330
1F
100
AcDbEntity
  8
0
  6
Continuous
 62
     7
370
    25
100
AcDbCircle
 10
628.0426338393
 20
285.2799953193
 30
0.0
 40
4.917775384231511
100
AcDbArc
 50
182.6054784857
 51
237.39452166
  0
LINE
  5
D3
330
1F
100
AcDbEntity
  8
0
  6
Continuous
 62
     7
370
    25
100
AcDbLine
 10
623.1299423149
 20
368.9968360539
 30
0.0
 11
623.1299423149
 21
285.0564405921
 31
0.0
  0
LINE
  5
D4
330
1F
100
AcDbEntity
  8
0
  6
Continuous
 62
     7
370
    25
100
AcDbLine
 10
625.3926840147
 20
367.690583075
 30
0.0
 11
623.1299423149
 21
368.9968360539
 31
0.0
  0
LINE
  5
D5
330
1F
100
AcDbEntity
  8
0
  6
Continuous
 62
     7
370
    25
100
AcDbLine
 10
625.3926840147
 20
283.7501876132
 30
0.0
 11
643.0703535444
 21
293.9552890109
 31
0.0
  0
LINE
  5
D6
330
1F
100
AcDbEntity
  8
0
  6
Continuous
 62
     7
370
    25
100
AcDbLine
 10
625.3926840147
 20
367.690583075
 30
0.0
 11
643.0703535444
 21
377.8956844728
 31
0.0
  0
LINE
  5
D7
330
1F
100
AcDbEntity
  8
0
  6
Continuous
 62
     7
370
    25
100
AcDbLine
 10
643.0703535444
 20
293.9552890109
 30
0.0
 11
643.0703535444
 21
377.8956844728
 31
0.0
  0
LINE
  5
D8
330
1F
100
AcDbEntity
  8
0
  6
Continuous
 62
     7
370
    25
100
AcDbLine
 10
623.1299423149
 20
368.9968360539
 30
0.0
 11
640.8076118446
 21
379.2019374517
 31
0.0
  0
LINE
  5
D9
330
1F
100
AcDbEntity
  8
0
  6
Continuous
 62
     7
370
    25
100
AcDbLine
 10
643.0703535444
 20
377.8956844728
 30
0.0
 11
640.8076118446
 21
379.2019374517
 31
0.0
  0
LINE
  5
DA
330
1F
100
AcDbEntity
  8
0
  6
Continuous
 62
     7
370
    25
100
AcDbLine
 10
659.1923881554
 20
261.6251031426
 30
0.0
 11
676.8700576851
 21
271.8302045404
 31
0.0
  0
LINE
  5
DB
330
1F
100
AcDbEntity
  8
0
  6
Continuous
 62
     7
370
    25
100
AcDbLine
 10
656.9296464556
 20
265.5442867195
 30
0.0
 11
674.6073159853
 21
275.7493881173
 31
0.0
  0
ARC
  5
DC
330
1F
100
AcDbEntity
  8
0
  6
Continuous
 62
     7
370
    25
100
AcDbCircle
 10
671.9573661607
 20
271.6066498131
 30
0.0
 40
4.917775384230462
100
AcDbArc
 50
2.6054784857
 51
57.39452166
  0
LINE
  5
DD
330
1F
100
AcDbEntity
  8
0
  6
Continuous
 62
     7
370
    25
100
AcDbLine
 10
659.1923881554
 20
220.7980625483
 30
0.0
 11
676.8700576851
 21
231.0031639461
 31
0.0
  0
LWPOLYLINE
  5
DE
330
1F
100
AcDbEntity
  8
0
  6
Continuous
 62
     7
370
    25
100
AcDbPolyline
 90
       38
 70
   128
 43
0.0
 10
670.859650045
 20
252.0296538274
 10
670.8189656957
 20
252.5581515206
 10
670.6980830623
 20
253.0244721475
 10
670.5004797182
 20
253.4152005127
 10
670.2318403518
 20
253.7190960725
 10
669.8998932285
 20
253.927416305
 10
669.5141878628
 20
254.0341682164
 10
669.0858202956
 20
254.0362807485
 10
668.6271138821
 20
253.9336931277
 10
668.1512647706
 20
253.729356613
 10
667.6719622736
 20
253.4291495938
 10
667.2029950512
 20
253.0417084797
 10
666.7578544368
 20
252.5781792459
 10
666.3493463151
 20
252.0518967847
 10
665.9892227212
 20
251.4780012842
 10
665.6878437552
 20
250.873002673
 10
665.4538795412
 20
250.2543056598
 10
665.2940608036
 20
249.6397090311
 10
665.2129852366
 20
249.0468936129
 10
665.2129852366
 20
248.4929136256
 10
665.2940608036
 20
247.9937060646
 10
665.4538795412
 20
247.5636322226
 10
665.6878437552
 20
247.215064541
 10
665.9892227212
 20
246.9580306774
 10
666.3493463151
 20
246.799925028
 10
666.7578544368
 20
246.7452960046
 10
667.2029950512
 20
246.7957151846
 10
667.6719622736
 20
246.9497321001
 10
668.1512647706
 20
247.2029159648
 10
668.6271138821
 20
247.5479831399
 10
669.0858202956
 20
247.975006671
 10
669.5141878628
 20
248.4717018686
 10
669.8998932285
 20
249.0237797163
 10
670.2318403518
 20
249.6153579394
 10
670.5004797182
 20
250.2294179097
 10
670.6980830623
 20
250.8482942397
 10
670.8189656957
 20
251.4541829843
 10
670.859650045
 20
252.0296538274
  0
LWPOLYLINE
  5
DF
330
1F
100
AcDbEntity
  8
0
  6
Continuous
 62
     7
370
    25
100
AcDbPolyline
 90
       38
 70
   128
 43
0.0
 10
670.859650045
 20
235.6988375897
 10
670.8189656957
 20
236.2273352829
 10
670.6980830623
 20
236.6936559098
 10
670.5004797182
 20
237.084384275
 10
670.2318403518
 20
237.3882798348
 10
669.8998932285
 20
237.5966000673
 10
669.5141878628
 20
237.7033519787
 10
669.0858202956
 20
237.7054645108
 10
668.6271138821
 20
237.60287689
 10
668.1512647706
 20
237.3985403752
 10
667.6719622736
 20
237.0983333561
 10
667.2029950512
 20
236.710892242
 10
666.7578544368
 20
236.2473630082
 10
666.3493463151
 20
235.721080547
 10
665.9892227212
 20
235.1471850465
 10
665.6878437552
 20
234.5421864353
 10
665.4538795412
 20
233.9234894221
 10
665.2940608036
 20
233.3088927934
 10
665.2129852366
 20
232.7160773752
 10
665.2129852366
 20
232.1620973878
 10
665.2940608036
 20
231.6628898268
 10
665.4538795412
 20
231.2328159848
 10
665.6878437552
 20
230.8842483033
 10
665.9892227212
 20
230.6272144397
 10
666.3493463151
 20
230.4691087903
 10
666.7578544368
 20
230.4144797669
 10
667.2029950512
 20
230.4648989469
 10
667.6719622736
 20
230.6189158624
 10
668.1512647706
 20
230.8720997271
 10
668.6271138821
 20
231.2171669022
 10
669.0858202956
 20
231.6441904333
 10
669.5141878628
 20
232.1408856309
 10
669.8998932285
 20
232.6929634786
 10
670.2318403518
 20
233.2845417017
 10
670.5004797182
 20
233.898601672
 10
670.6980830623
 20
234.517478002
 10
670.8189656957
 20
235.1233667466
 10
670.859650045
 20
235.6988375897
  0
LINE
  5
E0
330
1F
100
AcDbEntity
  8
0
  6
Continuous
 62
     7
370
    25
100
AcDbLine
 10
676.8700576851
 20
231.0031639461
 30
0.0
 11
676.8700576851
 21
271.8302045404
 31
0.0
  0
LINE
  5
E1
330
1F
100
AcDbEntity
  8
0
  6
Continuous
 62
     7
370
    25
100
AcDbLine
 10
674.6073159853
 20
275.7493881173
 30
0.0
 11
643.0703535444
 21
293.9552890109
 31
0.0
  0
LWPOLYLINE
  5
E2
330
1F
100
AcDbEntity
  8
0
  6
Continuous
 62
     7
370
    25
100
AcDbPolyline
 90
        3
 70
   128
 43
0.0
 10
668.5969083452
 20
253.3359068063
 10
668.5562239959
 20
253.8644044995
 10
668.5490233446
 20
253.9067220663
  0
ARC
  5
E3
330
1F
100
AcDbEntity
  8
0
  6
Continuous
 62
     7
370
    25
100
AcDbCircle
 10
662.7113739356
 20
253.5054738989
 30
0.0
 40
5.887976586686624
100
AcDbArc
 50
295.5481759124
 51
358.3497179258
  0
LWPOLYLINE
  5
E4
330
1F
100
AcDbEntity
  8
0
  6
Continuous
 62
     7
370
    25
100
AcDbPolyline
 90
        3
 70
   128
 43
0.0
 10
668.5969083452
 20
237.0050905686
 10
668.5562239959
 20
237.5335882618
 10
668.5490233446
 20
237.5759058286
  0
ARC
  5
E5
330
1F
100
AcDbEntity
  8
0
  6
Continuous
 62
     7
370
    25
100
AcDbCircle
 10
662.7113739356
 20
237.1746576612
 30
0.0
 40
5.887976586686373
100
AcDbArc
 50
295.5481759124
 51
358.3497179258
  0
LINE
  5
E6
330
1F
100
AcDbEntity
  8
0
  6
HIDDEN
 62
     7
370
    18
100
AcDbLine
 10
640.8076118446
 20
379.2019374517
 30
0.0
 11
640.8076118446
 21
295.2615419899
 31
0.0
  0
LINE
  5
E7
330
1F
100
AcDbEntity
  8
0
  6
HIDDEN
 62
     7
370
    18
100
AcDbLine
 10
674.6073159853
 20
273.1364575193
 30
0.0
 11
674.6073159853
 21
232.309416925
 31
0.0
  0
LINE
  5
E8
330
1F
100
AcDbEntity
  8
0
  6
HIDDEN
 62
     7
370
    18
100
AcDbLine
 10
656.9296464556
 20
262.9313561215
 30
0.0
 11
674.6073159853
 21
273.1364575193
 31
0.0
  0
LINE
  5
E9
330
1F
100
AcDbEntity
  8
0
  6
HIDDEN
 62
     7
370
    18
100
AcDbLine
 10
643.0703535444
 20
291.3423584129
 30
0.0
 11
674.6073159853
 21
273.1364575193
 31
0.0
  0
LWPOLYLINE
  5
EA
330
1F
100
AcDbEntity
  8
0
  6
HIDDEN
 62
     7
370
    18
100
AcDbPolyline
 90
       27
 70
   128
 43
0.0
 10
668.5490233446
 20
253.9067220663
 10
668.4353413625
 20
254.3307251264
 10
668.2377380184
 20
254.7214534916
 10
667.969098652
 20
255.0253490514
 10
667.6371515287
 20
255.2336692839
 10
667.251446163
 20
255.3404211953
 10
666.8230785959
 20
255.3425337274
 10
666.3643721823
 20
255.2399461066
 10
665.8885230708
 20
255.0356095919
 10
665.4092205738
 20
254.7354025728
 10
664.9402533514
 20
254.3479614586
 10
664.495112737
 20
253.8844322248
 10
664.0866046153
 20
253.3581497636
 10
663.7264810214
 20
252.7842542631
 10
663.4251020554
 20
252.179255652
 10
663.1911378414
 20
251.5605586387
 10
663.0313191038
 20
250.94596201
 10
662.9502435368
 20
250.3531465919
 10
662.9502435368
 20
249.7991666045
 10
663.0313191038
 20
249.2999590435
 10
663.1911378414
 20
248.8698852015
 10
663.4251020554
 20
248.5213175199
 10
663.7264810214
 20
248.2642836563
 10
664.0866046153
 20
248.1061780069
 10
664.495112737
 20
248.0515489835
 10
664.9402533514
 20
248.1019681635
 10
665.2506807961
 20
248.1932061201
  0
LWPOLYLINE
  5
EB
330
1F
100
AcDbEntity
  8
0
  6
HIDDEN
 62
     7
370
    18
100
AcDbPolyline
 90
       27
 70
   128
 43
0.0
 10
668.5490233446
 20
237.5759058286
 10
668.4353413625
 20
237.9999088887
 10
668.2377380184
 20
238.3906372539
 10
667.969098652
 20
238.6945328137
 10
667.6371515287
 20
238.9028530462
 10
667.251446163
 20
239.0096049576
 10
666.8230785959
 20
239.0117174897
 10
666.3643721823
 20
238.9091298689
 10
665.8885230708
 20
238.7047933542
 10
665.4092205738
 20
238.404586335
 10
664.9402533514
 20
238.0171452209
 10
664.495112737
 20
237.5536159871
 10
664.0866046153
 20
237.0273335259
 10
663.7264810214
 20
236.4534380254
 10
663.4251020554
 20
235.8484394142
 10
663.1911378414
 20
235.229742401
 10
663.0313191038
 20
234.6151457723
 10
662.9502435368
 20
234.0223303541
 10
662.9502435368
 20
233.4683503668
 10
663.0313191038
 20
232.9691428058
 10
663.1911378414
 20
232.5390689638
 10
663.4251020554
 20
232.1905012822
 10
663.7264810214
 20
231.9334674186
 10
664.0866046153
 20
231.7753617692
 10
664.495112737
 20
231.7207327458
 10
664.9402533514
 20
231.7711519258
 10
665.2506807961
 20
231.8623898824
  0
LINE
  5
EC
330
1F
100
AcDbEntity
  8
0
  6
HIDDEN
 62
     7
370
    18
100
AcDbLine
 10
625.3926840147
 20
281.1372570151
 30
0.0
 11
643.0703535444
 21
291.3423584129
 31
0.0
  0
LINE
  5
ED
330
1F
100
AcDbEntity
  8
0
  6
HIDDEN
 62
     7
370
    18
100
AcDbLine
 10
623.1299423149
 20
285.0564405921
 30
0.0
 11
640.8076118446
 21
295.2615419899
 31
0.0
  0
ARC
  5
EE
330
1F
100
AcDbEntity
  8
0
  6
HIDDEN
 62
     7
370
    18
100
AcDbCircle
 10
645.720303369
 20
295.4850967171
 30
0.0
 40
4.917775384230748
100
AcDbArc
 50
182.6054784857
 51
237.39452166
  0
LINE
  5
EF
330
1F
100
AcDbEntity
  8
0
  6
HIDDEN
 62
     7
370
    18
100
AcDbLine
 10
656.9296464556
 20
222.1043155272
 30
0.0
 11
674.6073159853
 21
232.309416925
 31
0.0
  0
LINE
  5
F0
330
1F
100
AcDbEntity
  8
0
  6
HIDDEN
 62
     7
370
    18
100
AcDbLine
 10
674.6073159853
 20
232.309416925
 30
0.0
 11
676.8700576851
 21
231.0031639461
 31
0.0
  0
LINE
  5
F1
330
1F
100
AcDbEntity
  8
0
  6
HIDDEN
 62
     7
370
    18
100
AcDbLine
 10
670.0310603855
 20
253.8610330533
 30
0.0
 11
667.7683186857
 21
255.1672860322
 31
0.0
  0
LINE
  5
F2
330
1F
100
AcDbEntity
  8
0
  6
HIDDEN
 62
     7
370
    18
100
AcDbLine
 10
663.7686437552
 20
248.2388951331
 30
0.0
 11
666.031385455
 21
246.9326421542
 31
0.0
  0
LINE
  5
F3
330
1F
100
AcDbEntity
  8
0
  6
HIDDEN
 62
     7
370
    18
100
AcDbLine
 10
670.0310603855
 20
237.5302168156
 30
0.0
 11
667.7683186857
 21
238.8364697945
 31
0.0
  0
LINE
  5
F4
330
1F
100
AcDbEntity
  8
0
  6
HIDDEN
 62
     7
370
    18
100
AcDbLine
 10
663.7686437552
 20
231.9080788954
 30
0.0
 11
666.031385455
 21
230.6018259165
 31
0.0
  0
ENDSEC
  0
SECTION
  2
OBJECTS
  0
DICTIONARY
  5
C
330
0
100
AcDbDictionary
281
     1
  3
ACAD_GROUP
350
D
  3
ACAD_LAYOUT
350
1A
  3
ACAD_MLINESTYLE
350
17
  3
ACAD_PLOTSETTINGS
350
19
  3
ACAD_PLOTSTYLENAME
350
E
  3
ACAD_SCALELIST
350
47
  3
DWGPROPS
350
F5
  0
DICTIONARY
  5
D
102
{ACAD_REACTORS
330
C
102
}
330
C
100
AcDbDictionary
281
     1
  0
DICTIONARY
  5
1A
102
{ACAD_REACTORS
330
C
102
}
330
C
100
AcDbDictionary
281
     1
  3
Layout1
350
1E
  3
Layout2
350
26
  3
Model
350
22
  0
DICTIONARY
  5
17
102
{ACAD_REACTORS
330
C
102
}
330
C
100
AcDbDictionary
281
     1
  3
Standard
350
18
  0
DICTIONARY
  5
19
102
{ACAD_REACTORS
330
C
102
}
330
C
100
AcDbDictionary
281
     1
  0
ACDBDICTIONARYWDFLT
  5
E
102
{ACAD_REACTORS
330
C
102
}
330
C
100
AcDbDictionary
281
     1
  3
Normal
350
F
100
AcDbDictionaryWithDefault
340
F
  0
DICTIONARY
  5
47
102
{ACAD_REACTORS
330
C
102
}
330
C
100
AcDbDictionary
281
     1
  3
A0
350
48
  3
A1
350
49
  3
A2
350
4A
  3
A3
350
4B
  3
A4
350
4C
  3
A5
350
4D
  3
A6
350
4E
  3
A7
350
4F
  3
A8
350
50
  3
A9
350
51
  3
B0
350
52
  3
B1
350
53
  3
B2
350
54
  3
B3
350
55
  3
B4
350
56
  3
B5
350
57
  3
B6
350
58
  0
XRECORD
  5
F5
102
{ACAD_REACTORS
330
C
102
}
330
C
100
AcDbXrecord
280
     1
  1
DWGPROPS COOKIE
  2

  3

  4

  6

  7

  8
imaizumi
  9

300
=
301
=
302
=
303
=
304
=
305
=
306
=
307
=
308
=
309
=
 40
0.0
 41
2461262.366235961
 42
2461262.366236331
  1

 90
        0
  0
LAYOUT
  5
1E
102
{ACAD_REACTORS
330
1A
102
}
330
1A
100
AcDbPlotSettings
  1

  2
none_device
  4

  6

 40
0.0
 41
0.0
 42
0.0
 43
0.0
 44
0.0
 45
0.0
 46
0.0
 47
0.0
 48
0.0
 49
0.0
140
0.0
141
0.0
142
1.0
143
1.0
 70
   688
 72
     1
 73
     0
 74
     5
  7

 75
    16
147
1.0
148
0.0
149
0.0
100
AcDbLayout
  1
Layout1
 70
     1
 71
     1
 10
0.0
 20
0.0
 11
420.0
 21
297.0
 12
0.0
 22
0.0
 32
0.0
 14
1.0000000000E+20
 24
1.0000000000E+20
 34
1.0000000000E+20
 15
-1.0000000000E+20
 25
-1.0000000000E+20
 35
-1.0000000000E+20
146
0.0
 13
0.0
 23
0.0
 33
0.0
 16
1.0
 26
0.0
 36
0.0
 17
0.0
 27
1.0
 37
0.0
 76
     0
330
1B
  0
LAYOUT
  5
26
102
{ACAD_REACTORS
330
1A
102
}
330
1A
100
AcDbPlotSettings
  1

  2
none_device
  4

  6

 40
0.0
 41
0.0
 42
0.0
 43
0.0
 44
0.0
 45
0.0
 46
0.0
 47
0.0
 48
0.0
 49
0.0
140
0.0
141
0.0
142
1.0
143
1.0
 70
   688
 72
     1
 73
     0
 74
     5
  7

 75
    16
147
1.0
148
0.0
149
0.0
100
AcDbLayout
  1
Layout2
 70
     1
 71
     2
 10
0.0
 20
0.0
 11
0.0
 21
0.0
 12
0.0
 22
0.0
 32
0.0
 14
0.0
 24
0.0
 34
0.0
 15
0.0
 25
0.0
 35
0.0
146
0.0
 13
0.0
 23
0.0
 33
0.0
 16
1.0
 26
0.0
 36
0.0
 17
0.0
 27
1.0
 37
0.0
 76
     0
330
23
  0
LAYOUT
  5
22
102
{ACAD_REACTORS
330
1A
102
}
330
1A
100
AcDbPlotSettings
  1

  2
none_device
  4
Letter_(8.50_x_11.00_Inches)
  6

 40
6.35
 41
6.35
 42
6.35000508
 43
6.35000508
 44
215.9
 45
279.4
 46
0.0
 47
0.0
 48
0.0
 49
0.0
140
0.0
141
0.0
142
1.0
143
1.0
 70
  1712
 72
     1
 73
     0
 74
     0
  7

 75
     0
147
1.0
148
0.0
149
0.0
100
AcDbLayout
  1
Model
 70
     1
 71
     0
 10
0.0
 20
0.0
 11
841.0
 21
594.0
 12
0.0
 22
0.0
 32
0.0
 14
0.0
 24
0.0
 34
0.0
 15
841.0
 25
594.0
 35
0.0
146
0.0
 13
0.0
 23
0.0
 33
0.0
 16
1.0
 26
0.0
 36
0.0
 17
0.0
 27
1.0
 37
0.0
 76
     0
330
1F
331
29
  0
MLINESTYLE
  5
18
102
{ACAD_REACTORS
330
17
102
}
330
17
100
AcDbMlineStyle
  2
Standard
 70
     0
  3

 62
   256
 51
90.0
 52
90.0
 71
     2
 49
0.5
 62
   256
  6
BYLAYER
 49
-0.5
 62
   256
  6
BYLAYER
  0
ACDBPLACEHOLDER
  5
F
102
{ACAD_REACTORS
330
E
102
}
330
E
  0
SCALE
  5
48
102
{ACAD_REACTORS
330
47
102
}
330
47
100
AcDbScale
 70
     0
300
1:1
140
1.0
141
1.0
290
     1
  0
SCALE
  5
49
102
{ACAD_REACTORS
330
47
102
}
330
47
100
AcDbScale
 70
     0
300
1:2
140
1.0
141
2.0
290
     0
  0
SCALE
  5
4A
102
{ACAD_REACTORS
330
47
102
}
330
47
100
AcDbScale
 70
     0
300
1:4
140
1.0
141
4.0
290
     0
  0
SCALE
  5
4B
102
{ACAD_REACTORS
330
47
102
}
330
47
100
AcDbScale
 70
     0
300
1:5
140
1.0
141
5.0
290
     0
  0
SCALE
  5
4C
102
{ACAD_REACTORS
330
47
102
}
330
47
100
AcDbScale
 70
     0
300
1:8
140
1.0
141
8.0
290
     0
  0
SCALE
  5
4D
102
{ACAD_REACTORS
330
47
102
}
330
47
100
AcDbScale
 70
     0
300
1:10
140
1.0
141
10.0
290
     0
  0
SCALE
  5
4E
102
{ACAD_REACTORS
330
47
102
}
330
47
100
AcDbScale
 70
     0
300
1:16
140
1.0
141
16.0
290
     0
  0
SCALE
  5
4F
102
{ACAD_REACTORS
330
47
102
}
330
47
100
AcDbScale
 70
     0
300
1:20
140
1.0
141
20.0
290
     0
  0
SCALE
  5
50
102
{ACAD_REACTORS
330
47
102
}
330
47
100
AcDbScale
 70
     0
300
1:30
140
1.0
141
30.0
290
     0
  0
SCALE
  5
51
102
{ACAD_REACTORS
330
47
102
}
330
47
100
AcDbScale
 70
     0
300
1:40
140
1.0
141
40.0
290
     0
  0
SCALE
  5
52
102
{ACAD_REACTORS
330
47
102
}
330
47
100
AcDbScale
 70
     0
300
1:50
140
1.0
141
50.0
290
     0
  0
SCALE
  5
53
102
{ACAD_REACTORS
330
47
102
}
330
47
100
AcDbScale
 70
     0
300
1:100
140
1.0
141
100.0
290
     0
  0
SCALE
  5
54
102
{ACAD_REACTORS
330
47
102
}
330
47
100
AcDbScale
 70
     0
300
2:1
140
2.0
141
1.0
290
     0
  0
SCALE
  5
55
102
{ACAD_REACTORS
330
47
102
}
330
47
100
AcDbScale
 70
     0
300
4:1
140
4.0
141
1.0
290
     0
  0
SCALE
  5
56
102
{ACAD_REACTORS
330
47
102
}
330
47
100
AcDbScale
 70
     0
300
8:1
140
8.0
141
1.0
290
     0
  0
SCALE
  5
57
102
{ACAD_REACTORS
330
47
102
}
330
47
100
AcDbScale
 70
     0
300
10:1
140
10.0
141
1.0
290
     0
  0
SCALE
  5
58
102
{ACAD_REACTORS
330
47
102
}
330
47
100
AcDbScale
 70
     0
300
100:1
140
100.0
141
1.0
290
     0
  0
ENDSEC
  0
EOF
