  0
SECTION
  2
HEADER
  9
$ACADVER
  1
AC1015
  9
$ACADMAINTVER
 70
     6
  9
$DWGCODEPAGE
  3
DOS932
  9
$INSBASE
 10
0.0
 20
0.0
 30
0.0
  9
$EXTMIN
 10
0.0
 20
0.0
 30
0.0
  9
$EXTMAX
 10
841.0
 20
594.0
 30
0.0
  9
$LIMMIN
 10
0.0
 20
0.0
  9
$LIMMAX
 10
841.0
 20
594.0
  9
$ORTHOMODE
 70
     0
  9
$REGENMODE
 70
     1
  9
$FILLMODE
 70
     1
  9
$QTEXTMODE
 70
     0
  9
$MIRRTEXT
 70
     1
  9
$LTSCALE
 40
1.0
  9
$ATTMODE
 70
     1
  9
$TEXTSIZE
 40
3.5
  9
$TRACEWID
 40
1.0
  9
$TEXTSTYLE
  7
Standard
  9
$CLAYER
  8
0
  9
$CELTYPE
  6
ByLayer
  9
$CECOLOR
 62
   256
  9
$CELTSCALE
 40
1.0
  9
$DISPSILH
 70
     0
  9
$DIMSCALE
 40
1.0
  9
$DIMASZ
 40
3.302
  9
$DIMEXO
 40
1.0
  9
$DIMDLI
 40
3.75
  9
$DIMRND
 40
0.0
  9
$DIMDLE
 40
0.0
  9
$DIMEXE
 40
1.0
  9
$DIMTP
 40
0.0
  9
$DIMTM
 40
0.0
  9
$DIMTXT
 40
3.5
  9
$DIMCEN
 40
2.5
  9
$DIMTSZ
 40
0.0
  9
$DIMTOL
 70
     0
  9
$DIMLIM
 70
     0
  9
$DIMTIH
 70
     1
  9
$DIMTOH
 70
     1
  9
$DIMSE1
 70
     0
  9
$DIMSE2
 70
     0
  9
$DIMTAD
 70
     1
  9
$DIMZIN
 70
     1
  9
$DIMBLK
  1

  9
$DIMASO
 70
     1
  9
$DIMSHO
 70
     1
  9
$DIMPOST
  1

  9
$DIMAPOST
  1

  9
$DIMALT
 70
     0
  9
$DIMALTD
 70
     3
  9
$DIMALTF
 40
0.0393700787
  9
$DIMLFAC
 40
0.5
  9
$DIMTOFL
 70
     1
  9
$DIMTVP
 40
0.0
  9
$DIMTIX
 70
     0
  9
$DIMSOXD
 70
     0
  9
$DIMSAH
 70
     0
  9
$DIMBLK1
  1

  9
$DIMBLK2
  1

  9
$DIMSTYLE
  2
ISO-25
  9
$DIMCLRD
 70
     0
  9
$DIMCLRE
 70
     0
  9
$DIMCLRT
 70
     0
  9
$DIMTFAC
 40
1.0
  9
$DIMGAP
 40
1.524
  9
$DIMJUST
 70
     0
  9
$DIMSD1
 70
     0
  9
$DIMSD2
 70
     0
  9
$DIMTOLJ
 70
     0
  9
$DIMTZIN
 70
     1
  9
$DIMALTZ
 70
     0
  9
$DIMALTTZ
 70
     0
  9
$DIMUPT
 70
     0
  9
$DIMDEC
 70
     2
  9
$DIMTDEC
 70
     2
  9
$DIMALTU
 70
     2
  9
$DIMALTTD
 70
     3
  9
$DIMTXSTY
  7
Standard
  9
$DIMAUNIT
 70
     0
  9
$DIMADEC
 70
     2
  9
$DIMALTRND
 40
0.0
  9
$DIMAZIN
 70
     0
  9
$DIMDSEP
 70
    44
  9
$DIMATFIT
 70
     3
  9
$DIMFRAC
 70
     0
  9
$DIMLDRBLK
  1

  9
$DIMLUNIT
 70
     2
  9
$DIMLWD
 70
    -2
  9
$DIMLWE
 70
    -2
  9
$DIMTMOVE
 70
     0
  9
$LUNITS
 70
     2
  9
$LUPREC
 70
     2
  9
$SKETCHINC
 40
1.0
  9
$FILLETRAD
 40
0.0
  9
$AUNITS
 70
     0
  9
$AUPREC
 70
     2
  9
$MENU
  1
.
  9
$ELEVATION
 40
0.0
  9
$PELEVATION
 40
0.0
  9
$THICKNESS
 40
0.0
  9
$LIMCHECK
 70
     0
  9
$CHAMFERA
 40
0.0
  9
$CHAMFERB
 40
0.0
  9
$CHAMFERC
 40
0.0
  9
$CHAMFERD
 40
0.0
  9
$SKPOLY
 70
     0
  9
$TDCREATE
 40
2461263.449376007
  9
$TDUCREATE
 40
2461263.074376007
  9
$TDUPDATE
 40
2461263.449376424
  9
$TDUUPDATE
 40
2461263.074376424
  9
$TDINDWG
 40
0.0000000116
  9
$TDUSRTIMER
 40
0.0000000116
  9
$USRTIMER
 70
     1
  9
$ANGBASE
 50
0.0
  9
$ANGDIR
 70
     0
  9
$PDMODE
 70
     0
  9
$PDSIZE
 40
-1.0
  9
$PLINEWID
 40
0.0
  9
$SPLFRAME
 70
     0
  9
$SPLINETYPE
 70
     6
  9
$SPLINESEGS
 70
     8
  9
$HANDSEED
  5
CD
  9
$SURFTAB1
 70
     6
  9
$SURFTAB2
 70
     6
  9
$SURFTYPE
 70
     6
  9
$SURFU
 70
     6
  9
$SURFV
 70
     6
  9
$UCSBASE
  2

  9
$UCSNAME
  2

  9
$UCSORG
 10
0.0
 20
0.0
 30
0.0
  9
$UCSXDIR
 10
1.0
 20
0.0
 30
0.0
  9
$UCSYDIR
 10
0.0
 20
1.0
 30
0.0
  9
$UCSORTHOREF
  2

  9
$UCSORTHOVIEW
 70
     0
  9
$UCSORGTOP
 10
0.0
 20
0.0
 30
0.0
  9
$UCSORGBOTTOM
 10
0.0
 20
0.0
 30
0.0
  9
$UCSORGLEFT
 10
0.0
 20
0.0
 30
0.0
  9
$UCSORGRIGHT
 10
0.0
 20
0.0
 30
0.0
  9
$UCSORGFRONT
 10
0.0
 20
0.0
 30
0.0
  9
$UCSORGBACK
 10
0.0
 20
0.0
 30
0.0
  9
$PUCSBASE
  2

  9
$PUCSNAME
  2

  9
$PUCSORG
 10
0.0
 20
0.0
 30
0.0
  9
$PUCSXDIR
 10
1.0
 20
0.0
 30
0.0
  9
$PUCSYDIR
 10
0.0
 20
1.0
 30
0.0
  9
$PUCSORTHOREF
  2

  9
$PUCSORTHOVIEW
 70
     0
  9
$PUCSORGTOP
 10
0.0
 20
0.0
 30
0.0
  9
$PUCSORGBOTTOM
 10
0.0
 20
0.0
 30
0.0
  9
$PUCSORGLEFT
 10
0.0
 20
0.0
 30
0.0
  9
$PUCSORGRIGHT
 10
0.0
 20
0.0
 30
0.0
  9
$PUCSORGFRONT
 10
0.0
 20
0.0
 30
0.0
  9
$PUCSORGBACK
 10
0.0
 20
0.0
 30
0.0
  9
$USERI1
 70
     0
  9
$USERI2
 70
     0
  9
$USERI3
 70
     0
  9
$USERI4
 70
     0
  9
$USERI5
 70
     0
  9
$USERR1
 40
0.0
  9
$USERR2
 40
0.0
  9
$USERR3
 40
0.0
  9
$USERR4
 40
0.0
  9
$USERR5
 40
0.0
  9
$WORLDVIEW
 70
     1
  9
$SHADEDGE
 70
     3
  9
$SHADEDIF
 70
    70
  9
$TILEMODE
 70
     1
  9
$MAXACTVP
 70
    64
  9
$PINSBASE
 10
0.0
 20
0.0
 30
0.0
  9
$PLIMCHECK
 70
     0
  9
$PEXTMIN
 10
1.0000000000E+20
 20
1.0000000000E+20
 30
1.0000000000E+20
  9
$PEXTMAX
 10
-1.0000000000E+20
 20
-1.0000000000E+20
 30
-1.0000000000E+20
  9
$PLIMMIN
 10
0.0
 20
0.0
  9
$PLIMMAX
 10
420.0
 20
297.0
  9
$UNITMODE
 70
     0
  9
$VISRETAIN
 70
     1
  9
$PLINEGEN
 70
     0
  9
$PSLTSCALE
 70
     1
  9
$TREEDEPTH
 70
  3020
  9
$CMLSTYLE
  2
Standard
  9
$CMLJUST
 70
     0
  9
$CMLSCALE
 40
20.0
  9
$PROXYGRAPHICS
 70
     1
  9
$MEASUREMENT
 70
     1
  9
$CELWEIGHT
370
    -1
  9
$ENDCAPS
280
     0
  9
$JOINSTYLE
280
     0
  9
$LWDISPLAY
290
     1
  9
$INSUNITS
 70
     4
  9
$HYPERLINKBASE
  1

  9
$STYLESHEET
  1

  9
$XEDIT
290
     1
  9
$CEPSNTYPE
380
     0
  9
$PSTYLEMODE
290
     1
  9
$FINGERPRINTGUID
  2
{23768f1f-b42b-4889-a1e3-aac3bc09cfc5}
  9
$VERSIONGUID
  2
{FAEB1C32-E019-11D5-929B-00C0DF256EC4}
  9
$EXTNAMES
290
     1
  9
$PSVPSCALE
 40
0.0
  9
$OLESTARTUP
290
     0
  0
ENDSEC
  0
SECTION
  2
CLASSES
  0
CLASS
  1
ACDBDICTIONARYWDFLT
  2
AcDbDictionaryWithDefault
  3
ObjectDBX Classes
 90
        0
280
     0
281
     0
  0
CLASS
  1
VISUALSTYLE
  2
AcDbVisualStyle
  3
ObjectDBX Classes
 90
     4095
280
     0
281
     0
  0
CLASS
  1
MATERIAL
  2
AcDbMaterial
  3
ObjectDBX Classes
 90
     1153
280
     0
281
     0
  0
CLASS
  1
SCALE
  2
AcDbScale
  3
ObjectDBX Classes
 90
     1153
280
     0
281
     0
  0
CLASS
  1
TABLESTYLE
  2
AcDbTableStyle
  3
ObjectDBX Classes
 90
     4095
280
     0
281
     0
  0
CLASS
  1
MLEADERSTYLE
  2
AcDbMLeaderStyle
  3
ACDB_MLEADERSTYLE_CLASS
 90
     4095
280
     0
281
     0
  0
CLASS
  1
SUN
  2
AcDbSun
  3
SCENEOE
 90
     1153
280
     0
281
     0
  0
CLASS
  1
ACDBPLACEHOLDER
  2
AcDbPlaceHolder
  3
ObjectDBX Classes
 90
        0
280
     0
281
     0
  0
CLASS
  1
LAYOUT
  2
AcDbLayout
  3
ObjectDBX Classes
 90
        0
280
     0
281
     0
  0
ENDSEC
  0
SECTION
  2
TABLES
  0
TABLE
  2
VPORT
  5
8
330
0
100
AcDbSymbolTable
 70
     1
  0
VPORT
  5
29
330
8
100
AcDbSymbolTableRecord
100
AcDbViewportTableRecord
  2
*Active
 70
     0
 10
0.0
 20
0.0
 11
1.0
 21
1.0
 12
420.5
 22
297.0
 13
0.0
 23
0.0
 14
10.0
 24
10.0
 15
10.0
 25
10.0
 16
0.0
 26
0.0
 36
1.0
 17
0.0
 27
0.0
 37
0.0
 40
594.0
 41
1.4158249158
 42
50.0
 43
0.0
 44
0.0
 50
0.0
 51
0.0
 71
     0
 72
  2000
 73
     1
 74
     3
 75
     0
 76
     0
 77
     0
 78
     0
281
     0
 65
     1
110
0.0
120
0.0
130
0.0
111
1.0
121
0.0
131
0.0
112
0.0
122
1.0
132
0.0
 79
     0
146
0.0
  0
ENDTAB
  0
TABLE
  2
LTYPE
  5
5
330
0
100
AcDbSymbolTable
 70
     6
  0
LTYPE
  5
14
330
5
100
AcDbSymbolTableRecord
100
AcDbLinetypeTableRecord
  2
ByBlock
 70
     0
  3

 72
    65
 73
     0
 40
0.0
  0
LTYPE
  5
15
330
5
100
AcDbSymbolTableRecord
100
AcDbLinetypeTableRecord
  2
ByLayer
 70
     0
  3

 72
    65
 73
     0
 40
0.0
  0
LTYPE
  5
16
330
5
100
AcDbSymbolTableRecord
100
AcDbLinetypeTableRecord
  2
Continuous
 70
     0
  3
Solid line
 72
    65
 73
     0
 40
0.0
  0
LTYPE
  5
5E
330
5
100
AcDbSymbolTableRecord
100
AcDbLinetypeTableRecord
  2
HIDDEN
 70
     0
  3
Hidden __ __ __ __ __ __ __ __ __ __ __ __ __ __
 72
    65
 73
     2
 40
1.905
 49
1.27
 74
     0
 49
-0.635
 74
     0
  0
LTYPE
  5
5F
330
5
100
AcDbSymbolTableRecord
100
AcDbLinetypeTableRecord
  2
PHANTOM
 70
     0
  3
Phantom ______  __  __  ______  __  __  ______
 72
    65
 73
     6
 40
12.7
 49
6.35
 74
     0
 49
-1.27
 74
     0
 49
1.27
 74
     0
 49
-1.27
 74
     0
 49
1.27
 74
     0
 49
-1.27
 74
     0
  0
LTYPE
  5
60
330
5
100
AcDbSymbolTableRecord
100
AcDbLinetypeTableRecord
  2
CENTER
 70
     0
  3
Center ____ _ ____ _ ____ _ ____ _ ____ _ ____
 72
    65
 73
     4
 40
10.16
 49
6.35
 74
     0
 49
-1.27
 74
     0
 49
1.27
 74
     0
 49
-1.27
 74
     0
  0
LTYPE
  5
61
330
5
100
AcDbSymbolTableRecord
100
AcDbLinetypeTableRecord
  2
CENTERX2
 70
     0
  3
Center (2x) ________  __  ________  __  _____
 72
    65
 73
     4
 40
20.32
 49
12.7
 74
     0
 49
-2.54
 74
     0
 49
2.54
 74
     0
 49
-2.54
 74
     0
  0
LTYPE
  5
62
330
5
100
AcDbSymbolTableRecord
100
AcDbLinetypeTableRecord
  2
DOT2
 70
     0
  3
Dot (.5x) ........................................
 72
    65
 73
     2
 40
0.635
 49
0.0
 74
     0
 49
-0.635
 74
     0
  0
ENDTAB
  0
TABLE
  2
LAYER
  5
2
330
0
100
AcDbSymbolTable
 70
     1
  0
LAYER
  5
10
330
2
100
AcDbSymbolTableRecord
100
AcDbLayerTableRecord
  2
0
 70
     0
 62
     7
  6
Continuous
370
    -3
390
F
  0
ENDTAB
  0
TABLE
  2
STYLE
  5
3
330
0
100
AcDbSymbolTable
 70
     1
  0
STYLE
  5
11
330
3
100
AcDbSymbolTableRecord
100
AcDbTextStyleTableRecord
  2
Standard
 70
     0
 40
0.0
 41
1.0
 50
0.0
 71
     0
 42
3.5
  3
txt
  4
bigfont
  0
ENDTAB
  0
TABLE
  2
VIEW
  5
6
330
0
100
AcDbSymbolTable
 70
     0
  0
ENDTAB
  0
TABLE
  2
UCS
  5
7
330
0
100
AcDbSymbolTable
 70
     0
  0
ENDTAB
  0
TABLE
  2
APPID
  5
9
330
0
100
AcDbSymbolTable
 70
     1
  0
APPID
  5
12
330
9
100
AcDbSymbolTableRecord
100
AcDbRegAppTableRecord
  2
ACAD
 70
     0
  0
ENDTAB
  0
TABLE
  2
DIMSTYLE
  5
A
330
0
100
AcDbSymbolTable
 70
     1
100
AcDbDimStyleTable
  0
DIMSTYLE
105
27
330
A
100
AcDbSymbolTableRecord
100
AcDbDimStyleTableRecord
  2
ISO-25
 70
     0
 41
2.5
 42
0.625
 43
3.75
 44
1.25
 73
     0
 74
     0
 77
     1
 78
     8
140
2.5
141
2.5
143
0.0393700787
147
0.625
171
     3
172
     1
178
     0
271
     2
272
     2
274
     3
278
    44
283
     0
284
     8
340
11
  0
ENDTAB
  0
TABLE
  2
BLOCK_RECORD
  5
1
330
0
100
AcDbSymbolTable
 70
     1
  0
BLOCK_RECORD
  5
1F
330
1
100
AcDbSymbolTableRecord
100
AcDbBlockTableRecord
  2
*Model_Space
340
22
  0
BLOCK_RECORD
  5
1B
330
1
100
AcDbSymbolTableRecord
100
AcDbBlockTableRecord
  2
*Paper_Space
340
1E
  0
BLOCK_RECORD
  5
23
330
1
100
AcDbSymbolTableRecord
100
AcDbBlockTableRecord
  2
*Paper_Space0
340
26
  0
ENDTAB
  0
ENDSEC
  0
SECTION
  2
BLOCKS
  0
BLOCK
  5
20
330
1F
100
AcDbEntity
  8
0
100
AcDbBlockBegin
  2
*Model_Space
 70
     0
 10
0.0
 20
0.0
 30
0.0
  3
*Model_Space
  1

  0
ENDBLK
  5
21
330
1F
100
AcDbEntity
  8
0
100
AcDbBlockEnd
  0
BLOCK
  5
1C
330
1B
100
AcDbEntity
 67
     1
  8
0
100
AcDbBlockBegin
  2
*Paper_Space
 70
     0
 10
0.0
 20
0.0
 30
0.0
  3
*Paper_Space
  1

  0
ENDBLK
  5
1D
330
1B
100
AcDbEntity
 67
     1
  8
0
100
AcDbBlockEnd
  0
BLOCK
  5
24
330
23
100
AcDbEntity
  8
0
100
AcDbBlockBegin
  2
*Paper_Space0
 70
     0
 10
0.0
 20
0.0
 30
0.0
  3
*Paper_Space0
  1

  0
ENDBLK
  5
25
330
23
100
AcDbEntity
  8
0
100
AcDbBlockEnd
  0
ENDSEC
  0
SECTION
  2
ENTITIES
  0
LINE
  5
63
330
1F
100
AcDbEntity
  8
0
  6
Continuous
 62
     7
370
    25
100
AcDbLine
 10
391.4843524641
 20
239.4709301561
 30
0.0
 11
390.4843524641
 21
240.4709301561
 31
0.0
  0
LINE
  5
64
330
1F
100
AcDbEntity
  8
0
  6
Continuous
 62
     7
370
    25
100
AcDbLine
 10
299.9843524641
 20
242.9709301561
 30
0.0
 11
341.4843524641
 21
242.9709301561
 31
0.0
  0
LINE
  5
65
330
1F
100
AcDbEntity
  8
0
  6
Continuous
 62
     7
370
    25
100
AcDbLine
 10
299.9843524641
 20
212.9709301561
 30
0.0
 11
341.4843524641
 21
212.9709301561
 31
0.0
  0
LINE
  5
66
330
1F
100
AcDbEntity
  8
0
  6
Continuous
 62
     7
370
    25
100
AcDbLine
 10
299.9843524641
 20
242.9709301561
 30
0.0
 11
299.9843524641
 21
212.9709301561
 31
0.0
  0
LINE
  5
67
330
1F
100
AcDbEntity
  8
0
  6
Continuous
 62
     7
370
    25
100
AcDbLine
 10
341.4843524641
 20
242.9709301561
 30
0.0
 11
341.4843524641
 21
212.9709301561
 31
0.0
  0
LINE
  5
68
330
1F
100
AcDbEntity
  8
0
  6
Continuous
 62
     7
370
    25
100
AcDbLine
 10
299.4843524641
 20
242.4709301561
 30
0.0
 11
299.9843524641
 21
242.9709301561
 31
0.0
  0
LINE
  5
69
330
1F
100
AcDbEntity
  8
0
  6
Continuous
 62
     7
370
    25
100
AcDbLine
 10
299.4843524641
 20
213.4709301561
 30
0.0
 11
299.9843524641
 21
212.9709301561
 31
0.0
  0
LINE
  5
6A
330
1F
100
AcDbEntity
  8
0
  6
Continuous
 62
     7
370
    25
100
AcDbLine
 10
299.4843524641
 20
242.4709301561
 30
0.0
 11
299.4843524641
 21
213.4709301561
 31
0.0
  0
LINE
  5
6B
330
1F
100
AcDbEntity
  8
0
  6
Continuous
 62
     7
370
    25
100
AcDbLine
 10
341.4843524641
 20
240.4709301561
 30
0.0
 11
390.4843524641
 21
240.4709301561
 31
0.0
  0
LINE
  5
6C
330
1F
100
AcDbEntity
  8
0
  6
Continuous
 62
     7
370
    25
100
AcDbLine
 10
390.4843524641
 20
240.4709301561
 30
0.0
 11
390.4843524641
 21
236.0949685607
 31
0.0
  0
LINE
  5
6D
330
1F
100
AcDbEntity
  8
0
  6
Continuous
 62
     7
370
    25
100
AcDbLine
 10
381.4843524641
 20
236.0949685607
 30
0.0
 11
390.4843524641
 21
236.0949685607
 31
0.0
  0
LINE
  5
6E
330
1F
100
AcDbEntity
  8
0
  6
Continuous
 62
     7
370
    25
100
AcDbLine
 10
381.4843524641
 20
219.8468917514
 30
0.0
 11
381.4843524641
 21
236.0949685607
 31
0.0
  0
LINE
  5
6F
330
1F
100
AcDbEntity
  8
0
  6
Continuous
 62
     7
370
    25
100
AcDbLine
 10
390.4843524641
 20
219.8468917514
 30
0.0
 11
381.4843524641
 21
219.8468917514
 31
0.0
  0
LINE
  5
70
330
1F
100
AcDbEntity
  8
0
  6
Continuous
 62
     7
370
    25
100
AcDbLine
 10
390.4843524641
 20
219.8468917514
 30
0.0
 11
390.4843524641
 21
215.4709301561
 31
0.0
  0
LINE
  5
71
330
1F
100
AcDbEntity
  8
0
  6
Continuous
 62
     7
370
    25
100
AcDbLine
 10
341.4843524641
 20
215.4709301561
 30
0.0
 11
390.4843524641
 21
215.4709301561
 31
0.0
  0
SPLINE
  5
72
330
1F
100
AcDbEntity
  8
0
  6
Continuous
 62
     7
370
    25
100
AcDbSpline
210
0.0
220
0.0
230
1.0
 70
     8
 71
     3
 72
    11
 73
     7
 74
     0
 42
0.00000001
 43
0.00000001
 40
0.0
 40
0.0
 40
0.0
 40
0.0
 40
0.2591096554616883
 40
0.5120259152943244
 40
0.7589234695788394
 40
0.9999999999999999
 40
0.9999999999999999
 40
0.9999999999999999
 40
0.9999999999999999
 10
390.4843524641441
 20
236.0949685606872
 30
0.0
 10
390.5743694767706
 20
235.9552870667654
 30
0.0
 10
390.7522518609682
 20
235.6792628304336
 30
0.0
 10
391.0082297340562
 20
235.265278932497
 30
0.0
 10
391.252674437686
 20
234.8578011334804
 30
0.0
 10
391.4077430578361
 20
234.585966713394
 30
0.0
 10
391.4843524641441
 20
234.4516708544591
 30
0.0
  0
LINE
  5
73
330
1F
100
AcDbEntity
  8
0
  6
Continuous
 62
     7
370
    25
100
AcDbLine
 10
391.4843524641
 20
234.4516708545
 30
0.0
 11
391.4843524641
 21
221.4901894576
 31
0.0
  0
SPLINE
  5
74
330
1F
100
AcDbEntity
  8
0
  6
Continuous
 62
     7
370
    25
100
AcDbSpline
210
0.0
220
0.0
230
1.0
 70
     8
 71
     3
 72
    11
 73
     7
 74
     0
 42
0.00000001
 43
0.00000001
 40
0.0
 40
0.0
 40
0.0
 40
0.0
 40
0.2410765304211764
 40
0.4879740847056958
 40
0.7408903445383274
 40
1.0
 40
1.0
 40
1.0
 40
1.0
 10
391.4843524641441
 20
221.4901894576434
 30
0.0
 10
391.4077430578361
 20
221.3558935987085
 30
0.0
 10
391.2526744376859
 20
221.0840591786221
 30
0.0
 10
391.0082297340562
 20
220.6765813796055
 30
0.0
 10
390.7522518609682
 20
220.2625974816688
 30
0.0
 10
390.5743694767706
 20
219.9865732453371
 30
0.0
 10
390.4843524641441
 20
219.8468917514153
 30
0.0
  0
LINE
  5
75
330
1F
100
AcDbEntity
  8
0
  6
Continuous
 62
     7
370
    25
100
AcDbLine
 10
391.4843524641
 20
221.4901894576
 30
0.0
 11
391.4843524641
 21
216.4709301561
 31
0.0
  0
LINE
  5
76
330
1F
100
AcDbEntity
  8
0
  6
Continuous
 62
     7
370
    25
100
AcDbLine
 10
391.4843524641
 20
216.4709301561
 30
0.0
 11
390.4843524641
 21
215.4709301561
 31
0.0
  0
LINE
  5
77
330
1F
100
AcDbEntity
  8
0
  6
Continuous
 62
     7
370
    25
100
AcDbLine
 10
391.4843524641
 20
239.4709301561
 30
0.0
 11
391.4843524641
 21
234.4516708545
 31
0.0
  0
LINE
  5
78
330
1F
100
AcDbEntity
  8
0
  6
Continuous
 62
     7
370
    25
100
AcDbLine
 10
341.4843524641
 20
358.88
 30
0.0
 11
299.9843524641
 21
358.88
 31
0.0
  0
LINE
  5
79
330
1F
100
AcDbEntity
  8
0
  6
Continuous
 62
     7
370
    25
100
AcDbLine
 10
299.9843524641
 20
328.88
 30
0.0
 11
341.4843524641
 21
328.88
 31
0.0
  0
LINE
  5
7A
330
1F
100
AcDbEntity
  8
0
  6
Continuous
 62
     7
370
    25
100
AcDbLine
 10
299.9843524641
 20
358.88
 30
0.0
 11
299.4843524641
 21
358.38
 31
0.0
  0
LINE
  5
7B
330
1F
100
AcDbEntity
  8
0
  6
Continuous
 62
     7
370
    25
100
AcDbLine
 10
299.4843524641
 20
329.38
 30
0.0
 11
299.9843524641
 21
328.88
 31
0.0
  0
LINE
  5
7C
330
1F
100
AcDbEntity
  8
0
  6
Continuous
 62
     7
370
    25
100
AcDbLine
 10
341.4843524641
 20
331.38
 30
0.0
 11
381.4843524641
 21
331.38
 31
0.0
  0
LINE
  5
7D
330
1F
100
AcDbEntity
  8
0
  6
Continuous
 62
     7
370
    25
100
AcDbLine
 10
381.4843524641
 20
356.38
 30
0.0
 11
341.4843524641
 21
356.38
 31
0.0
  0
LINE
  5
7E
330
1F
100
AcDbEntity
  8
0
  6
Continuous
 62
     7
370
    25
100
AcDbLine
 10
299.9843524641
 20
358.88
 30
0.0
 11
299.9843524641
 21
343.88
 31
0.0
  0
LINE
  5
7F
330
1F
100
AcDbEntity
  8
0
  6
Continuous
 62
     7
370
    25
100
AcDbLine
 10
341.4843524641
 20
358.88
 30
0.0
 11
341.4843524641
 21
343.88
 31
0.0
  0
LINE
  5
80
330
1F
100
AcDbEntity
  8
0
  6
Continuous
 62
     7
370
    25
100
AcDbLine
 10
299.9843524641
 20
343.88
 30
0.0
 11
299.9843524641
 21
328.88
 31
0.0
  0
LINE
  5
81
330
1F
100
AcDbEntity
  8
0
  6
Continuous
 62
     7
370
    25
100
AcDbLine
 10
341.4843524641
 20
343.88
 30
0.0
 11
341.4843524641
 21
328.88
 31
0.0
  0
LINE
  5
82
330
1F
100
AcDbEntity
  8
0
  6
Continuous
 62
     7
370
    25
100
AcDbLine
 10
299.4843524641
 20
358.38
 30
0.0
 11
299.4843524641
 21
343.88
 31
0.0
  0
LINE
  5
83
330
1F
100
AcDbEntity
  8
0
  6
Continuous
 62
     7
370
    25
100
AcDbLine
 10
299.4843524641
 20
343.88
 30
0.0
 11
299.4843524641
 21
329.38
 31
0.0
  0
SPLINE
  5
84
330
1F
100
AcDbEntity
  8
0
  6
Continuous
 62
     7
370
    25
100
AcDbSpline
210
0.0
220
0.0
230
1.0
 70
     8
 71
     3
 72
    11
 73
     7
 74
     0
 42
0.00000001
 43
0.00000001
 40
0.0
 40
0.0
 40
0.0
 40
0.0
 40
0.2591096554616883
 40
0.5120259152943244
 40
0.7589234695788394
 40
0.9999999999999999
 40
0.9999999999999999
 40
0.9999999999999999
 40
0.9999999999999999
 10
390.4843524641441
 20
334.38
 30
0.0
 10
390.5743694767706
 20
334.3799980257358
 30
0.0
 10
390.7522518609682
 20
334.3799941243975
 30
0.0
 10
391.0082297340562
 20
334.3799872553176
 30
0.0
 10
391.252674437686
 20
334.3799948242381
 30
0.0
 10
391.4077430578361
 20
334.3799982885212
 30
0.0
 10
391.4843524641441
 20
334.38
 30
0.0
  0
LINE
  5
85
330
1F
100
AcDbEntity
  8
0
  6
Continuous
 62
     7
370
    25
100
AcDbLine
 10
390.4843524641
 20
343.88
 30
0.0
 11
390.4843524641
 21
334.38
 31
0.0
  0
LINE
  5
86
330
1F
100
AcDbEntity
  8
0
  6
Continuous
 62
     7
370
    25
100
AcDbLine
 10
390.4843524641
 20
353.38
 30
0.0
 11
390.4843524641
 21
343.88
 31
0.0
  0
SPLINE
  5
87
330
1F
100
AcDbEntity
  8
0
  6
Continuous
 62
     7
370
    25
100
AcDbSpline
210
0.0
220
0.0
230
1.0
 70
     8
 71
     3
 72
    11
 73
     7
 74
     0
 42
0.00000001
 43
0.00000001
 40
0.0
 40
0.0
 40
0.0
 40
0.0
 40
0.2410765304211805
 40
0.4879740847056979
 40
0.7408903445383321
 40
1.0
 40
1.0
 40
1.0
 40
1.0
 10
391.4843524641441
 20
353.3800000000001
 30
0.0
 10
391.4077430578361
 20
353.3800017114789
 30
0.0
 10
391.2526744376859
 20
353.3800051757619
 30
0.0
 10
391.0082297340562
 20
353.3800127446825
 30
0.0
 10
390.7522518609682
 20
353.3800058756026
 30
0.0
 10
390.5743694767706
 20
353.3800019742642
 30
0.0
 10
390.4843524641441
 20
353.3800000000001
 30
0.0
  0
LINE
  5
88
330
1F
100
AcDbEntity
  8
0
  6
Continuous
 62
     7
370
    25
100
AcDbLine
 10
391.4843524641
 20
353.38
 30
0.0
 11
391.4843524641
 21
334.38
 31
0.0
  0
LINE
  5
89
330
1F
100
AcDbEntity
  8
0
  6
Continuous
 62
     7
370
    25
100
AcDbLine
 10
381.4843524641
 20
334.38
 30
0.0
 11
390.4843524641
 21
334.38
 31
0.0
  0
LINE
  5
8A
330
1F
100
AcDbEntity
  8
0
  6
Continuous
 62
     7
370
    25
100
AcDbLine
 10
381.4843524641
 20
331.38
 30
0.0
 11
381.4843524641
 21
334.38
 31
0.0
  0
LINE
  5
8B
330
1F
100
AcDbEntity
  8
0
  6
Continuous
 62
     7
370
    25
100
AcDbLine
 10
381.4843524641
 20
353.38
 30
0.0
 11
381.4843524641
 21
356.38
 31
0.0
  0
LINE
  5
8C
330
1F
100
AcDbEntity
  8
0
  6
Continuous
 62
     7
370
    25
100
AcDbLine
 10
390.4843524641
 20
353.38
 30
0.0
 11
381.4843524641
 21
353.38
 31
0.0
  0
LINE
  5
8D
330
1F
100
AcDbEntity
  8
0
  6
Continuous
 62
     7
370
    25
100
AcDbLine
 10
488.88125
 20
234.4516708545
 30
0.0
 11
488.88125
 21
221.4901894576
 31
0.0
  0
ARC
  5
8E
330
1F
100
AcDbEntity
  8
0
  6
Continuous
 62
     7
370
    25
100
AcDbCircle
 10
498.38125
 20
227.9709301561
 30
0.0
 40
11.50000000000004
100
AcDbArc
 50
34.3011527568
 51
145.6988472432
  0
LINE
  5
8F
330
1F
100
AcDbEntity
  8
0
  6
Continuous
 62
     7
370
    25
100
AcDbLine
 10
507.88125
 20
221.4901894576
 30
0.0
 11
507.88125
 21
234.4516708545
 31
0.0
  0
ARC
  5
90
330
1F
100
AcDbEntity
  8
0
  6
Continuous
 62
     7
370
    25
100
AcDbCircle
 10
498.38125
 20
227.9709301561
 30
0.0
 40
11.50000000000006
100
AcDbArc
 50
270.0
 51
325.6988472432
  0
ARC
  5
91
330
1F
100
AcDbEntity
  8
0
  6
Continuous
 62
     7
370
    25
100
AcDbCircle
 10
498.38125
 20
227.9709301561
 30
0.0
 40
11.50000000000003
100
AcDbArc
 50
214.3011527568
 51
270.0
  0
SPLINE
  5
92
330
1F
100
AcDbEntity
  8
0
  6
Continuous
 62
     7
370
    25
100
AcDbSpline
210
0.0
220
0.0
230
1.0
 70
     8
 71
     3
 72
    11
 73
     7
 74
     0
 42
0.00000001
 43
0.00000001
 40
0.0
 40
0.0
 40
0.0
 40
0.0
 40
0.2591096554616883
 40
0.5120259152943244
 40
0.7589234695788394
 40
0.9999999999999999
 40
0.9999999999999999
 40
0.9999999999999999
 40
0.9999999999999999
 10
488.8812499999997
 20
236.0949685606872
 30
0.0
 10
488.8812480257355
 20
235.9552870667654
 30
0.0
 10
488.8812441243971
 20
235.6792628304336
 30
0.0
 10
488.8812372553172
 20
235.265278932497
 30
0.0
 10
488.8812448242378
 20
234.8578011334804
 30
0.0
 10
488.8812482885208
 20
234.585966713394
 30
0.0
 10
488.8812499999997
 20
234.4516708544591
 30
0.0
  0
ARC
  5
93
330
1F
100
AcDbEntity
  8
0
  6
Continuous
 62
     7
370
    25
100
AcDbCircle
 10
498.38125
 20
227.9709301561
 30
0.0
 40
12.50000000000001
100
AcDbArc
 50
90.0
 51
139.4641978887
  0
ARC
  5
94
330
1F
100
AcDbEntity
  8
0
  6
Continuous
 62
     7
370
    25
100
AcDbCircle
 10
498.38125
 20
227.9709301561
 30
0.0
 40
12.50000000000005
100
AcDbArc
 50
40.5358021113
 51
90.0
  0
SPLINE
  5
95
330
1F
100
AcDbEntity
  8
0
  6
Continuous
 62
     7
370
    25
100
AcDbSpline
210
0.0
220
0.0
230
1.0
 70
     8
 71
     3
 72
    11
 73
     7
 74
     0
 42
0.00000001
 43
0.00000001
 40
0.0
 40
0.0
 40
0.0
 40
0.0
 40
0.2410765304211805
 40
0.4879740847056979
 40
0.7408903445383321
 40
1.0
 40
1.0
 40
1.0
 40
1.0
 10
507.8812499999996
 20
234.4516708544591
 30
0.0
 10
507.8812517114786
 20
234.585966713394
 30
0.0
 10
507.8812551757616
 20
234.8578011334804
 30
0.0
 10
507.8812627446821
 20
235.265278932497
 30
0.0
 10
507.8812558756023
 20
235.6792628304337
 30
0.0
 10
507.8812519742639
 20
235.9552870667654
 30
0.0
 10
507.8812499999996
 20
236.0949685606872
 30
0.0
  0
ARC
  5
96
330
1F
100
AcDbEntity
  8
0
  6
Continuous
 62
     7
370
    25
100
AcDbCircle
 10
498.38125
 20
227.9709301561
 30
0.0
 40
12.50000000000003
100
AcDbArc
 50
220.5358021113
 51
270.0
  0
SPLINE
  5
97
330
1F
100
AcDbEntity
  8
0
  6
Continuous
 62
     7
370
    25
100
AcDbSpline
210
0.0
220
0.0
230
1.0
 70
     8
 71
     3
 72
    11
 73
     7
 74
     0
 42
0.00000001
 43
0.00000001
 40
0.0
 40
0.0
 40
0.0
 40
0.0
 40
0.2410765304211764
 40
0.4879740847056958
 40
0.7408903445383274
 40
1.0
 40
1.0
 40
1.0
 40
1.0
 10
488.8812499999997
 20
221.4901894576434
 30
0.0
 10
488.8812482885208
 20
221.3558935987085
 30
0.0
 10
488.8812448242378
 20
221.0840591786221
 30
0.0
 10
488.8812372553172
 20
220.6765813796055
 30
0.0
 10
488.8812441243971
 20
220.2625974816688
 30
0.0
 10
488.8812480257355
 20
219.9865732453371
 30
0.0
 10
488.8812499999997
 20
219.8468917514153
 30
0.0
  0
SPLINE
  5
98
330
1F
100
AcDbEntity
  8
0
  6
Continuous
 62
     7
370
    25
100
AcDbSpline
210
0.0
220
0.0
230
1.0
 70
     8
 71
     3
 72
    11
 73
     7
 74
     0
 42
0.00000001
 43
0.00000001
 40
0.0
 40
0.0
 40
0.0
 40
0.0
 40
0.2591096554616898
 40
0.5120259152943307
 40
0.7589234695788406
 40
1.0
 40
1.0
 40
1.0
 40
1.0
 10
507.8812499999997
 20
219.8468917514153
 30
0.0
 10
507.8812519742639
 20
219.9865732453371
 30
0.0
 10
507.8812558756023
 20
220.2625974816689
 30
0.0
 10
507.8812627446821
 20
220.6765813796055
 30
0.0
 10
507.8812551757616
 20
221.0840591786221
 30
0.0
 10
507.8812517114786
 20
221.3558935987086
 30
0.0
 10
507.8812499999997
 20
221.4901894576434
 30
0.0
  0
ARC
  5
99
330
1F
100
AcDbEntity
  8
0
  6
Continuous
 62
     7
370
    25
100
AcDbCircle
 10
498.38125
 20
227.9709301561
 30
0.0
 40
12.50000000000005
100
AcDbArc
 50
270.0
 51
319.4641978887
  0
ARC
  5
9A
330
1F
100
AcDbEntity
  8
0
  6
Continuous
 62
     7
370
    25
100
AcDbCircle
 10
498.38125
 20
227.9709301561
 30
0.0
 40
12.50000000000001
100
AcDbArc
 50
139.4641978887
 51
220.5358021113
  0
ARC
  5
9B
330
1F
100
AcDbEntity
  8
0
  6
Continuous
 62
     7
370
    25
100
AcDbCircle
 10
498.38125
 20
227.9709301561
 30
0.0
 40
12.50000000000005
100
AcDbArc
 50
319.4641978887
 51
40.5358021113
  0
ARC
  5
9C
330
1F
100
AcDbEntity
  8
0
  6
Continuous
 62
     7
370
    25
100
AcDbCircle
 10
498.38125
 20
227.9709301561
 30
0.0
 40
15.00000000000003
100
AcDbArc
 50
270.0
 51
90.0
  0
ARC
  5
9D
330
1F
100
AcDbEntity
  8
0
  6
Continuous
 62
     7
370
    25
100
AcDbCircle
 10
498.38125
 20
227.9709301561
 30
0.0
 40
15.00000000000003
100
AcDbArc
 50
90.0
 51
270.0
  0
ARC
  5
9E
330
1F
100
AcDbEntity
  8
0
  6
HIDDEN
 62
     7
370
    18
100
AcDbCircle
 10
498.38125
 20
227.9709301561
 30
0.0
 40
14.50000000000003
100
AcDbArc
 50
270.0
 51
90.0
  0
ARC
  5
9F
330
1F
100
AcDbEntity
  8
0
  6
HIDDEN
 62
     7
370
    18
100
AcDbCircle
 10
498.38125
 20
227.9709301561
 30
0.0
 40
14.50000000000003
100
AcDbArc
 50
90.0
 51
270.0
  0
LINE
  5
A0
330
1F
100
AcDbEntity
  8
0
  6
Continuous
 62
     7
370
    25
100
AcDbLine
 10
473.7063980673
 20
312.3154722653
 30
0.0
 11
503.0513294865
 21
329.2559405856
 31
0.0
  0
LINE
  5
A1
330
1F
100
AcDbEntity
  8
0
  6
Continuous
 62
     7
370
    25
100
AcDbLine
 10
455.6004058547
 20
331.4292660396
 30
0.0
 11
455.6004058547
 21
331.0210619837
 31
0.0
  0
LINE
  5
A2
330
1F
100
AcDbEntity
  8
0
  6
Continuous
 62
     7
370
    25
100
AcDbLine
 10
488.052548497
 20
355.237406457
 30
0.0
 11
458.7076170778
 21
338.2969381367
 31
0.0
  0
LINE
  5
A3
330
1F
100
AcDbEntity
  8
0
  6
Continuous
 62
     7
370
    25
100
AcDbLine
 10
505.947548948
 20
333.8145656449
 30
0.0
 11
536.4496633489
 21
351.4230614812
 31
0.0
  0
LINE
  5
A4
330
1F
100
AcDbEntity
  8
0
  6
Continuous
 62
     7
370
    25
100
AcDbLine
 10
523.9506791909
 20
373.0742830407
 30
0.0
 11
493.4485647901
 21
355.4657872044
 31
0.0
  0
LINE
  5
A5
330
1F
100
AcDbEntity
  8
0
  6
Continuous
 62
     7
370
    25
100
AcDbLine
 10
530.9085996856
 20
372.0463325662
 30
0.0
 11
530.2016078291
 21
372.4546029667
 31
0.0
  0
LWPOLYLINE
  5
A6
330
1F
100
AcDbEntity
  8
0
  6
Continuous
 62
     7
370
    25
100
AcDbPolyline
 90
       47
 70
   128
 43
0.0
 10
466.2070075725
 20
337.5543173792
 10
466.9308276714
 20
337.107911754
 10
467.6512729867
 20
336.6064811249
 10
468.3649844701
 20
336.052363393
 10
469.0686344689
 20
335.4481421109
 10
469.7589422422
 20
334.7966344373
 10
470.4326892565
 20
334.1008780017
 10
471.086734192
 20
333.3641167416
 10
471.7180275895
 20
332.5897857783
 10
472.3236260677
 20
331.7814954001
 10
472.9007060469
 20
330.9430142298
 10
473.4465769139
 20
330.0782516538
 10
473.9586935667
 20
329.1912395944
 10
474.434668281
 20
328.2861137112
 10
474.8722818431
 20
327.367094119
 10
475.2694938965
 20
326.4384657113
 10
475.6244524552
 20
325.5045581824
 10
475.9355025387
 20
324.5697258403
 10
476.2011938877
 20
323.638327305
 10
476.4202877266
 20
322.7147051864
 10
476.5917625388
 20
321.8031658371
 10
476.7148188296
 20
320.9079592744
 10
476.7888828536
 20
320.0332593646
 10
476.8136092903
 20
319.1831443623
 10
476.7888828536
 20
318.3615778962
 10
476.7148188296
 20
317.5723904883
 10
476.5917625388
 20
316.8192616947
 10
476.4202877266
 20
316.1057029495
 10
476.2011938877
 20
315.4350411928
 10
475.9355025387
 20
314.8104033595
 10
475.6244524552
 20
314.2347017995
 10
475.2694938965
 20
313.7106206991
 10
474.8722818431
 20
313.2406035664
 10
474.434668281
 20
312.8268418383
 10
473.9586935667
 20
312.4712646628
 10
473.4465769139
 20
312.175529905
 10
472.9007060469
 20
311.9410164168
 10
472.3236260677
 20
311.7688176083
 10
471.7180275895
 20
311.6597363499
 10
471.086734192
 20
311.6142812288
 10
470.4326892565
 20
311.6326641776
 10
469.7589422422
 20
311.7147994867
 10
469.0686344689
 20
311.8603042032
 10
468.3649844701
 20
312.0684999171
 10
467.6512729867
 20
312.3384159238
 10
466.9308276714
 20
312.6687937503
 10
466.2070075725
 20
313.0580930227
  0
LINE
  5
A7
330
1F
100
AcDbEntity
  8
0
  6
Continuous
 62
     7
370
    25
100
AcDbLine
 10
465.8534541819
 20
313.2622614007
 30
0.0
 11
466.2070075725
 21
313.0580930227
 31
0.0
  0
LWPOLYLINE
  5
A8
330
1F
100
AcDbEntity
  8
0
  6
Continuous
 62
     7
370
    25
100
AcDbPolyline
 90
       46
 70
   128
 43
0.0
 10
465.8534541819
 20
336.9419449454
 10
466.5686706784
 20
336.500217991
 10
467.2804027119
 20
336.002960567
 10
467.9851827957
 20
335.4525952615
 10
468.6795773119
 20
334.851803399
 10
469.3602032403
 20
334.203511977
 10
470.0237446398
 20
333.5108794062
 10
470.6669688034
 20
332.7772801228
 10
471.2867420076
 20
332.0062881488
 10
471.8800447797
 20
331.2016596797
 10
472.4439866082
 20
330.3673147843
 10
472.9758200252
 20
329.5073183073
 10
473.4729539917
 20
328.6258600649
 10
473.932966521
 20
327.7272344332
 10
474.3536164784
 20
326.8158194258
 10
474.7328544995
 20
325.8960553651
 10
475.0688329749
 20
324.9724232492
 10
475.359915051
 20
324.0494229208
 10
475.6046826054
 20
323.1315511448
 10
475.8019431551
 20
322.2232797001
 10
475.9507356666
 20
321.3290335941
 10
476.0503352376
 20
320.4531695038
 10
476.1002566291
 20
319.599954551
 10
476.1002566291
 20
318.7735455132
 10
476.0503352376
 20
317.9779685722
 10
475.9507356666
 20
317.2170996988
 10
475.8019431551
 20
316.4946457698
 10
475.6046826054
 20
315.814126508
 10
475.359915051
 20
315.1788573349
 10
475.0688329749
 20
314.5919332181
 10
474.7328544995
 20
314.0562135928
 10
474.3536164784
 20
313.5743084312
 10
473.932966521
 20
313.1485655268
 10
473.4729539917
 20
312.7810590563
 10
472.9758200252
 20
312.4735794742
 10
472.4439866082
 20
312.2276247901
 10
471.8800447797
 20
312.0443932706
 10
471.2867420076
 20
311.9247776012
 10
470.6669688034
 20
311.8693605374
 10
470.0237446398
 20
311.8784120655
 10
469.3602032403
 20
311.9518880875
 10
468.6795773119
 20
312.0894306355
 10
467.9851827957
 20
312.2903696161
 10
467.2804027119
 20
312.5537260748
 10
466.5686706784
 20
312.8782169653
 10
465.8534541819
 20
313.2622614007
  0
LWPOLYLINE
  5
A9
330
1F
100
AcDbEntity
  8
0
  6
Continuous
 62
     7
370
    25
100
AcDbPolyline
 90
       36
 70
   128
 43
0.0
 10
495.5519389918
 20
354.4947856996
 10
496.2757590906
 20
354.0483800743
 10
496.996204406
 20
353.5469494452
 10
497.7099158893
 20
352.9928317133
 10
498.4135658882
 20
352.3886104313
 10
499.1038736615
 20
351.7371027577
 10
499.7776206757
 20
351.041346322
 10
500.4316656113
 20
350.3045850619
 10
501.0629590088
 20
349.5302540986
 10
501.6685574869
 20
348.7219637204
 10
502.2456374661
 20
347.8834825501
 10
502.7915083331
 20
347.0187199741
 10
503.3036249859
 20
346.1317079147
 10
503.7795997003
 20
345.2265820315
 10
504.2172132624
 20
344.3075624393
 10
504.6144253158
 20
343.3789340316
 10
504.9693838745
 20
342.4450265027
 10
505.2804339579
 20
341.5101941606
 10
505.5461253069
 20
340.5787956253
 10
505.7652191459
 20
339.6551735067
 10
505.9366939581
 20
338.7436341574
 10
506.0597502488
 20
337.8484275948
 10
506.1338142729
 20
336.9737276849
 10
506.1585407096
 20
336.1236126826
 10
506.1338142729
 20
335.3020462165
 10
506.0597502488
 20
334.5128588086
 10
505.9366939581
 20
333.759730015
 10
505.7652191459
 20
333.0461712698
 10
505.5461253069
 20
332.3755095132
 10
505.2804339579
 20
331.7508716799
 10
504.9693838745
 20
331.1751701198
 10
504.6144253158
 20
330.6510890194
 10
504.2172132624
 20
330.1810718867
 10
503.7795997003
 20
329.7673101586
 10
503.3036249859
 20
329.4117329831
 10
503.0513294865
 20
329.2559405856
  0
LWPOLYLINE
  5
AA
330
1F
100
AcDbEntity
  8
0
  6
Continuous
 62
     7
370
    25
100
AcDbPolyline
 90
       46
 70
   128
 43
0.0
 10
465.8534541819
 20
313.2622614007
 10
465.1382376855
 20
313.703988355
 10
464.426505652
 20
314.201245779
 10
463.7217255682
 20
314.7516110845
 10
463.027331052
 20
315.3524029471
 10
462.3467051235
 20
316.000694369
 10
461.683163724
 20
316.6933269399
 10
461.0399395605
 20
317.4269262232
 10
460.4201663562
 20
318.1979181972
 10
459.8268635842
 20
319.0025466663
 10
459.2629217557
 20
319.8368915617
 10
458.7310883387
 20
320.6968880387
 10
458.2339543722
 20
321.5783462811
 10
457.7739418429
 20
322.4769719128
 10
457.3532918855
 20
323.3883869202
 10
456.9740538644
 20
324.3081509809
 10
456.638075389
 20
325.2317830968
 10
456.3469933129
 20
326.1547834252
 10
456.1022257585
 20
327.0726552013
 10
455.9049652088
 20
327.9809266459
 10
455.7561726973
 20
328.8751727519
 10
455.6565731263
 20
329.7510368423
 10
455.6066517348
 20
330.604251795
 10
455.6066517348
 20
331.4306608328
 10
455.6565731263
 20
332.2262377738
 10
455.7561726973
 20
332.9871066472
 10
455.9049652088
 20
333.7095605762
 10
456.1022257585
 20
334.390079838
 10
456.3469933129
 20
335.0253490111
 10
456.638075389
 20
335.6122731279
 10
456.9740538644
 20
336.1479927532
 10
457.3532918855
 20
336.6298979148
 10
457.7739418429
 20
337.0556408192
 10
458.2339543722
 20
337.4231472897
 10
458.7310883387
 20
337.7306268718
 10
459.2629217557
 20
337.9765815559
 10
459.8268635842
 20
338.1598130754
 10
460.4201663562
 20
338.2794287448
 10
461.0399395605
 20
338.3348458087
 10
461.683163724
 20
338.3257942805
 10
462.3467051235
 20
338.2523182585
 10
463.027331052
 20
338.1147757105
 10
463.7217255682
 20
337.9138367299
 10
464.426505652
 20
337.6504802713
 10
465.1382376855
 20
337.3259893807
 10
465.8534541819
 20
336.9419449454
  0
LWPOLYLINE
  5
AB
330
1F
100
AcDbEntity
  8
0
  6
Continuous
 62
     7
370
    25
100
AcDbPolyline
 90
       24
 70
   128
 43
0.0
 10
455.6004058547
 20
331.4292660396
 10
455.6251322914
 20
332.2508325058
 10
455.6991963155
 20
333.0400199136
 10
455.8222526063
 20
333.7931487072
 10
455.9937274185
 20
334.5067074525
 10
456.2128212574
 20
335.1773692091
 10
456.4785126064
 20
335.8020070424
 10
456.7895626898
 20
336.3777086024
 10
457.1445212486
 20
336.9017897028
 10
457.5417333019
 20
337.3718068355
 10
457.979346864
 20
337.7855685637
 10
458.4553215784
 20
338.1411457391
 10
458.9674382312
 20
338.4368804969
 10
459.5133090982
 20
338.6713939851
 10
460.0903890774
 20
338.8435927936
 10
460.6959875555
 20
338.952674052
 10
461.327280953
 20
338.9981291732
 10
461.9813258886
 20
338.9797462243
 10
462.6550729028
 20
338.8976109152
 10
463.3453806761
 20
338.7521061987
 10
464.049030675
 20
338.5439104848
 10
464.7627421583
 20
338.2739944781
 10
465.4831874737
 20
337.9436166516
 10
466.2070075725
 20
337.5543173792
  0
ARC
  5
AC
330
1F
100
AcDbEntity
  8
0
  6
Continuous
 62
     7
370
    25
100
AcDbCircle
 10
491.1642996499
 20
348.4237877661
 30
0.0
 40
7.490553711334723
100
AcDbArc
 50
54.1435599035
 51
114.5459816674
  0
ARC
  5
AD
330
1F
100
AcDbEntity
  8
0
  6
Continuous
 62
     7
370
    25
100
AcDbCircle
 10
520.2597802439
 20
356.7400682002
 30
0.0
 40
18.59526945173911
100
AcDbArc
 50
26.3868033237
 51
57.6855449884
  0
LINE
  5
AE
330
1F
100
AcDbEntity
  8
0
  6
Continuous
 62
     7
370
    25
100
AcDbLine
 10
530.5537246605
 20
361.3305061413
 30
0.0
 11
536.9176856912
 21
365.0043426445
 31
0.0
  0
LWPOLYLINE
  5
AF
330
1F
100
AcDbEntity
  8
0
  6
Continuous
 62
     7
370
    25
100
AcDbPolyline
 90
       20
 70
   128
 43
0.0
 10
530.5537246605
 20
348.0632883119
 10
530.9625186376
 20
348.4228383705
 10
531.3318078979
 20
348.8386660638
 10
531.6595452852
 20
349.3084662494
 10
531.943913986
 20
349.8296345884
 10
532.1833376014
 20
350.3992819821
 10
532.3764888857
 20
351.014250588
 10
532.522297104
 20
351.6711313256
 10
532.619953968
 20
352.3662827739
 10
532.6689181164
 20
353.0958513585
 10
532.6689181164
 20
353.8557927131
 10
532.619953968
 20
354.6418941001
 10
532.522297104
 20
355.4497977636
 10
532.3764888857
 20
356.2750250867
 10
532.1833376014
 20
357.1130014187
 10
531.943913986
 20
357.9590814346
 10
531.6595452852
 20
358.8085748869
 10
531.3318078979
 20
359.6567726055
 10
530.9625186376
 20
360.4989726032
 10
530.5537246605
 20
361.3305061413
  0
LINE
  5
B0
330
1F
100
AcDbEntity
  8
0
  6
Continuous
 62
     7
370
    25
100
AcDbLine
 10
536.9176856912
 20
351.7371248151
 30
0.0
 11
530.5537246605
 21
348.0632883119
 31
0.0
  0
LINE
  5
B1
330
1F
100
AcDbEntity
  8
0
  6
Continuous
 62
     7
370
    25
100
AcDbLine
 10
536.9176856912
 20
351.7371248151
 30
0.0
 11
536.4496633489
 21
351.4230614812
 31
0.0
  0
ARC
  5
B2
330
1F
100
AcDbEntity
  8
0
  6
Continuous
 62
     7
370
    25
100
AcDbCircle
 10
526.5367351778
 20
367.3248710024
 30
0.0
 40
6.304238602140381
100
AcDbArc
 50
54.4715713202
 51
114.2179702507
  0
SPLINE
  5
B3
330
1F
100
AcDbEntity
  8
0
  6
Continuous
 62
     7
370
    25
100
AcDbSpline
210
0.0
220
0.0
230
1.0
 70
     8
 71
     3
 72
    11
 73
     7
 74
     0
 42
0.00000001
 43
0.00000001
 40
0.0
 40
0.0
 40
0.0
 40
0.0
 40
0.2591096554616883
 40
0.5120259152943244
 40
0.7589234695788394
 40
0.9999999999999999
 40
0.9999999999999999
 40
0.9999999999999999
 40
0.9999999999999999
 10
536.9176856911904
 20
365.0043426444956
 30
0.0
 10
536.9813387272563
 20
364.9270315077958
 30
0.0
 10
537.107123326039
 20
364.7742571719239
 30
0.0
 10
537.2881318731061
 20
364.5407108258268
 30
0.0
 10
537.4609750286328
 20
364.3077749821242
 30
0.0
 10
537.5706226518722
 20
364.1491121378725
 30
0.0
 10
537.624792472377
 20
364.0707270571935
 30
0.0
  0
LINE
  5
B4
330
1F
100
AcDbEntity
  8
0
  6
Continuous
 62
     7
370
    25
100
AcDbLine
 10
537.6247924724
 20
364.0707270572
 30
0.0
 11
537.6247924724
 21
353.4871485142
 31
0.0
  0
SPLINE
  5
B5
330
1F
100
AcDbEntity
  8
0
  6
Continuous
 62
     7
370
    25
100
AcDbSpline
210
0.0
220
0.0
230
1.0
 70
     8
 71
     3
 72
    11
 73
     7
 74
     0
 42
0.00000001
 43
0.00000001
 40
0.0
 40
0.0
 40
0.0
 40
0.0
 40
0.2410765304211764
 40
0.4879740847056958
 40
0.7408903445383274
 40
1.0
 40
1.0
 40
1.0
 40
1.0
 10
537.624792472377
 20
353.4871485141956
 30
0.0
 10
537.5706226518722
 20
353.3462174954995
 30
0.0
 10
537.4609750286328
 20
353.0609525435994
 30
0.0
 10
537.2881318731061
 20
352.6284438816331
 30
0.0
 10
537.107123326039
 20
352.1859207314725
 30
0.0
 10
536.9813387272563
 20
351.8879249592756
 30
0.0
 10
536.9176856911904
 20
351.7371248150707
 30
0.0
  0
ARC
  5
B6
330
1F
100
AcDbEntity
  8
0
  6
Continuous
 62
     7
370
    25
100
AcDbCircle
 10
521.5958295442
 20
357.3884957525
 30
0.0
 40
17.36605504321527
100
AcDbArc
 50
22.6305143225
 51
57.5704047306
  0
ARC
  5
B7
330
1F
100
AcDbEntity
  8
0
  6
HIDDEN
 62
     7
370
    18
100
AcDbCircle
 10
499.9395783336
 20
336.0695592765
 30
0.0
 40
7.490553711334979
100
AcDbArc
 50
234.1435599035
 51
294.5459816674
  0
ARC
  5
B8
330
1F
100
AcDbEntity
  8
0
  6
HIDDEN
 62
     7
370
    18
100
AcDbCircle
 10
478.5912185836
 20
332.4555693005
 30
0.0
 40
23.01370826952583
100
AcDbArc
 50
182.5559702386
 51
237.444029907
  0
LWPOLYLINE
  5
B9
330
1F
100
AcDbEntity
  8
0
  6
HIDDEN
 62
     7
370
    18
100
AcDbPolyline
 90
       36
 70
   128
 43
0.0
 10
495.5519389918
 20
329.998561343
 10
494.828118893
 20
330.4449669683
 10
494.1076735776
 20
330.9463975974
 10
493.3939620942
 20
331.5005153293
 10
492.6903120954
 20
332.1047366113
 10
492.0000043221
 20
332.7562442849
 10
491.3262573078
 20
333.4520007206
 10
490.6722123723
 20
334.1887619806
 10
490.0409189748
 20
334.963092944
 10
489.4353204966
 20
335.7713833222
 10
488.8582405174
 20
336.6098644924
 10
488.3123696504
 20
337.4746270684
 10
487.8002529976
 20
338.3616391279
 10
487.3242782833
 20
339.266765011
 10
486.8866647212
 20
340.1857846033
 10
486.4894526678
 20
341.114413011
 10
486.1344941091
 20
342.0483205399
 10
485.8234440256
 20
342.9831528819
 10
485.5577526766
 20
343.9145514172
 10
485.3386588377
 20
344.8381735359
 10
485.1671840255
 20
345.7497128851
 10
485.0441277347
 20
346.6449194478
 10
484.9700637107
 20
347.5196193577
 10
484.945337274
 20
348.36973436
 10
484.9700637107
 20
349.1913008261
 10
485.0441277347
 20
349.980488234
 10
485.1671840255
 20
350.7336170276
 10
485.3386588377
 20
351.4471757728
 10
485.5577526766
 20
352.1178375294
 10
485.8234440256
 20
352.7424753627
 10
486.1344941091
 20
353.3181769228
 10
486.4894526678
 20
353.8422580231
 10
486.8866647212
 20
354.3122751558
 10
487.3242782833
 20
354.726036884
 10
487.8002529976
 20
355.0816140594
 10
488.052548497
 20
355.237406457
  0
ARC
  5
BA
330
1F
100
AcDbEntity
  8
0
  6
HIDDEN
 62
     7
370
    18
100
AcDbCircle
 10
533.863607362
 20
357.1724735194
 30
0.0
 40
6.304238602140578
100
AcDbArc
 50
234.4715713202
 51
294.2179702507
  0
LWPOLYLINE
  5
BB
330
1F
100
AcDbEntity
  8
0
  6
HIDDEN
 62
     7
370
    18
100
AcDbPolyline
 90
       43
 70
   128
 43
0.0
 10
495.5519389918
 20
352.4534336699
 10
496.2124659409
 20
352.0435794071
 10
496.8692989555
 20
351.5789368726
 10
497.5187647587
 20
351.062104536
 10
498.1572312745
 20
350.4959727332
 10
498.781127939
 20
349.8837075031
 10
499.386965669
 20
349.228732881
 10
499.9713563742
 20
348.5347117508
 10
500.5310319047
 20
347.8055253602
 10
501.062862328
 20
347.0452516152
 10
501.5638734325
 20
346.258142275
 10
502.0312633609
 20
345.4485991744
 10
502.4624182793
 20
344.6211496067
 10
502.8549269943
 20
343.7804210055
 10
503.206594438
 20
342.9311150662
 10
503.5154539434
 20
342.0779814522
 10
503.779778243
 20
341.2257912327
 10
503.9980891279
 20
340.379310201
 10
504.1691657152
 20
339.5432722225
 10
504.2920512752
 20
338.7223527607
 10
504.3660585819
 20
337.9211427302
 10
504.3907737566
 20
337.1441228224
 10
504.3660585819
 20
336.3956384479
 10
504.2920512752
 20
335.679875435
 10
504.1691657152
 20
335.0008366207
 10
503.9980891279
 20
334.3623194655
 10
503.779778243
 20
333.7678948164
 10
503.5154539434
 20
333.2208869372
 10
503.206594438
 20
332.7243549177
 10
502.8549269943
 20
332.2810755664
 10
502.4624182793
 20
331.8935278813
 10
502.0312633609
 20
331.5638791863
 10
501.5638734325
 20
331.2939730106
 10
501.062862328
 20
331.0853187789
 10
500.5310319047
 20
330.9390833704
 10
499.9713563742
 20
330.8560845928
 10
499.386965669
 20
330.836786609
 10
498.781127939
 20
330.8812973411
 10
498.1572312745
 20
330.9893678669
 10
497.5187647587
 20
331.1603938124
 10
496.8692989555
 20
331.393418731
 10
496.2124659409
 20
331.687139453
 10
495.5519389918
 20
332.0399133727
  0
ARC
  5
BC
330
1F
100
AcDbEntity
  8
0
  6
HIDDEN
 62
     7
370
    18
100
AcDbCircle
 10
540.140562296
 20
367.7572763217
 30
0.0
 40
18.59526945174005
100
AcDbArc
 50
206.3868033237
 51
237.6855449884
  0
LINE
  5
BD
330
1F
100
AcDbEntity
  8
0
  6
HIDDEN
 62
     7
370
    18
100
AcDbLine
 10
517.118695818
 20
355.8191653742
 30
0.0
 11
523.4826568486
 21
359.4930018774
 31
0.0
  0
LWPOLYLINE
  5
BE
330
1F
100
AcDbEntity
  8
0
  6
HIDDEN
 62
     7
370
    18
100
AcDbPolyline
 90
       20
 70
   128
 43
0.0
 10
517.118695818
 20
369.0863832036
 10
516.7099018409
 20
368.726833145
 10
516.3406125806
 20
368.3110054517
 10
516.0128751933
 20
367.841205266
 10
515.7285064925
 20
367.3200369271
 10
515.4890828771
 20
366.7503895334
 10
515.2959315928
 20
366.1354209274
 10
515.1501233745
 20
365.4785401899
 10
515.0524665105
 20
364.7833887416
 10
515.003502362
 20
364.053820157
 10
515.003502362
 20
363.2938788024
 10
515.0524665105
 20
362.5077774154
 10
515.1501233745
 20
361.6998737518
 10
515.2959315928
 20
360.8746464288
 10
515.4890828771
 20
360.0366700968
 10
515.7285064925
 20
359.1905900809
 10
516.0128751933
 20
358.3410966285
 10
516.3406125806
 20
357.49289891
 10
516.7099018409
 20
356.6506989122
 10
517.118695818
 20
355.8191653742
  0
LINE
  5
BF
330
1F
100
AcDbEntity
  8
0
  6
HIDDEN
 62
     7
370
    18
100
AcDbLine
 10
523.4826568486
 20
372.7602197068
 30
0.0
 11
517.118695818
 21
369.0863832036
 31
0.0
  0
LINE
  5
C0
330
1F
100
AcDbEntity
  8
0
  6
HIDDEN
 62
     7
370
    18
100
AcDbLine
 10
523.4826568486
 20
372.7602197068
 30
0.0
 11
523.9506791909
 21
373.0742830407
 31
0.0
  0
LWPOLYLINE
  5
C1
330
1F
100
AcDbEntity
  8
0
  6
HIDDEN
 62
     7
370
    18
100
AcDbPolyline
 90
       43
 70
   128
 43
0.0
 10
495.5519389918
 20
332.0399133727
 10
494.8914120426
 20
332.4497676355
 10
494.2345790281
 20
332.9144101699
 10
493.5851132248
 20
333.4312425066
 10
492.9466467091
 20
333.9973743093
 10
492.3227500446
 20
334.6096395395
 10
491.7169123146
 20
335.2646141615
 10
491.1325216094
 20
335.9586352917
 10
490.5728460788
 20
336.6878216824
 10
490.0410156556
 20
337.4480954274
 10
489.5400045511
 20
338.2352047675
 10
489.0726146226
 20
339.0447478682
 10
488.6414597043
 20
339.8721974359
 10
488.2489509893
 20
340.7129260371
 10
487.8972835456
 20
341.5622319763
 10
487.5884240401
 20
342.4153655903
 10
487.3240997406
 20
343.2675558099
 10
487.1057888557
 20
344.1140368415
 10
486.9347122684
 20
344.95007482
 10
486.8118267084
 20
345.7709942819
 10
486.7378194016
 20
346.5722043124
 10
486.7131042269
 20
347.3492242202
 10
486.7378194016
 20
348.0977085946
 10
486.8118267084
 20
348.8134716076
 10
486.9347122684
 20
349.4925104219
 10
487.1057888557
 20
350.1310275771
 10
487.3240997406
 20
350.7254522262
 10
487.5884240401
 20
351.2724601054
 10
487.8972835456
 20
351.7689921249
 10
488.2489509893
 20
352.2122714762
 10
488.6414597043
 20
352.5998191612
 10
489.0726146226
 20
352.9294678562
 10
489.5400045511
 20
353.199374032
 10
490.0410156556
 20
353.4080282637
 10
490.5728460788
 20
353.5542636722
 10
491.1325216094
 20
353.6372624497
 10
491.7169123146
 20
353.6565604336
 10
492.3227500446
 20
353.6120497015
 10
492.9466467091
 20
353.5039791756
 10
493.5851132248
 20
353.3329532301
 10
494.2345790281
 20
353.0999283115
 10
494.8914120426
 20
352.8062075896
 10
495.5519389918
 20
352.4534336699
  0
LINE
  5
C2
330
1F
100
AcDbEntity
  8
0
  6
HIDDEN
 62
     7
370
    18
100
AcDbLine
 10
530.5537246605
 20
361.3305061413
 30
0.0
 11
530.5537246605
 21
348.0632883119
 31
0.0
  0
SPLINE
  5
C3
330
1F
100
AcDbEntity
  8
0
  6
HIDDEN
 62
     7
370
    18
100
AcDbSpline
210
0.0
220
0.0
230
1.0
 70
     8
 71
     3
 72
    11
 73
     7
 74
     0
 42
0.00000001
 43
0.00000001
 40
0.0
 40
0.0
 40
0.0
 40
0.0
 40
0.2410765304211805
 40
0.4879740847056979
 40
0.7408903445383321
 40
1.0
 40
1.0
 40
1.0
 40
1.0
 10
524.1897636298326
 20
371.8266041195092
 30
0.0
 10
524.1355913889312
 20
371.9049905974535
 30
0.0
 10
524.0259388664558
 20
372.0636562699739
 30
0.0
 10
523.8530850068589
 20
372.2965982930047
 30
0.0
 10
523.6720861741377
 20
372.5301390311292
 30
0.0
 10
523.5463070926808
 20
372.6829101819169
 30
0.0
 10
523.482656848646
 20
372.7602197068114
 30
0.0
  0
LWPOLYLINE
  5
C4
330
1F
100
AcDbEntity
  8
0
  6
HIDDEN
 62
     7
370
    18
100
AcDbPolyline
 90
       14
 70
   128
 43
0.0
 10
524.1897636298
 20
371.8266041195
 10
524.566096843
 20
372.1960234013
 10
524.9807635482
 20
372.5077769568
 10
525.4312570164
 20
372.7599801843
 10
525.91485394
 20
372.9511084734
 10
526.4286308953
 20
373.0800064218
 10
526.9694820155
 20
373.1458948201
 10
527.5341377657
 20
373.148375362
 10
528.1191847084
 20
373.0874330522
 10
528.7210861377
 20
372.963436297
 10
529.3362034598
 20
372.7771346775
 10
529.9608181882
 20
372.5296544178
 10
530.5911544236
 20
372.2224915771
 10
530.9085996856
 20
372.0463325662
  0
LINE
  5
C5
330
1F
100
AcDbEntity
  8
0
  6
HIDDEN
 62
     7
370
    18
100
AcDbLine
 10
524.1897636298
 20
361.2430255765
 30
0.0
 11
524.1897636298
 21
371.8266041195
 31
0.0
  0
LINE
  5
C6
330
1F
100
AcDbEntity
  8
0
  6
HIDDEN
 62
     7
370
    18
100
AcDbLine
 10
517.118695818
 20
355.8191653742
 30
0.0
 11
517.118695818
 21
369.0863832036
 31
0.0
  0
LWPOLYLINE
  5
C7
330
1F
100
AcDbEntity
  8
0
  6
HIDDEN
 62
     7
370
    18
100
AcDbPolyline
 90
       13
 70
   128
 43
0.0
 10
537.6247924724
 20
353.4871485142
 10
537.2319302075
 20
353.1035739235
 10
536.7975836416
 20
352.782660814
 10
536.3246017163
 20
352.5265141006
 10
535.8160867878
 20
352.3368138865
 10
535.2753742785
 20
352.2148044426
 10
534.7060107993
 20
352.1612860462
 10
534.111730887
 20
352.1766097324
 10
533.4964325087
 20
352.2606749907
 10
532.8641514949
 20
352.4129304252
 10
532.2190350674
 20
352.6323773705
 10
531.5653146375
 20
352.9175764427
 10
530.9072780511
 20
353.2666569802
  0
SPLINE
  5
C8
330
1F
100
AcDbEntity
  8
0
  6
HIDDEN
 62
     7
370
    18
100
AcDbSpline
210
0.0
220
0.0
230
1.0
 70
     8
 71
     3
 72
    11
 73
     7
 74
     0
 42
0.00000001
 43
0.00000001
 40
0.0
 40
0.0
 40
0.0
 40
0.0
 40
0.2591096554616898
 40
0.5120259152943307
 40
0.7589234695788406
 40
1.0
 40
1.0
 40
1.0
 40
1.0
 10
523.482656848646
 20
359.4930018773865
 30
0.0
 10
523.5463070926808
 20
359.6438036333967
 30
0.0
 10
523.6720861741377
 20
359.9418025906779
 30
0.0
 10
523.8530850068589
 20
360.384331348811
 30
0.0
 10
524.0259388664558
 20
360.8168338314491
 30
0.0
 10
524.1355913889312
 20
361.1020959550805
 30
0.0
 10
524.1897636298326
 20
361.2430255765113
 30
0.0
  0
ARC
  5
C9
330
1F
100
AcDbEntity
  8
0
  6
HIDDEN
 62
     7
370
    18
100
AcDbCircle
 10
540.2556464531
 20
367.9564905971
 30
0.0
 40
17.41215677257103
100
AcDbArc
 50
202.6786308833
 51
237.5279957942
  0
LINE
  5
CA
330
1F
100
AcDbEntity
  8
0
  6
HIDDEN
 62
     7
370
    18
100
AcDbLine
 10
501.8014310708
 20
331.4210627415
 30
0.0
 11
505.947548948
 21
333.8145656449
 31
0.0
  0
LINE
  5
CB
330
1F
100
AcDbEntity
  8
0
  6
HIDDEN
 62
     7
370
    18
100
AcDbLine
 10
493.4485647901
 20
355.4657872044
 30
0.0
 11
489.3024469128
 21
353.072284301
 31
0.0
  0
ENDSEC
  0
SECTION
  2
OBJECTS
  0
DICTIONARY
  5
C
330
0
100
AcDbDictionary
281
     1
  3
ACAD_GROUP
350
D
  3
ACAD_LAYOUT
350
1A
  3
ACAD_MLINESTYLE
350
17
  3
ACAD_PLOTSETTINGS
350
19
  3
ACAD_PLOTSTYLENAME
350
E
  3
ACAD_SCALELIST
350
47
  3
DWGPROPS
350
CC
  0
DICTIONARY
  5
D
102
{ACAD_REACTORS
330
C
102
}
330
C
100
AcDbDictionary
281
     1
  0
DICTIONARY
  5
1A
102
{ACAD_REACTORS
330
C
102
}
330
C
100
AcDbDictionary
281
     1
  3
Layout1
350
1E
  3
Layout2
350
26
  3
Model
350
22
  0
DICTIONARY
  5
17
102
{ACAD_REACTORS
330
C
102
}
330
C
100
AcDbDictionary
281
     1
  3
Standard
350
18
  0
DICTIONARY
  5
19
102
{ACAD_REACTORS
330
C
102
}
330
C
100
AcDbDictionary
281
     1
  0
ACDBDICTIONARYWDFLT
  5
E
102
{ACAD_REACTORS
330
C
102
}
330
C
100
AcDbDictionary
281
     1
  3
Normal
350
F
100
AcDbDictionaryWithDefault
340
F
  0
DICTIONARY
  5
47
102
{ACAD_REACTORS
330
C
102
}
330
C
100
AcDbDictionary
281
     1
  3
A0
350
48
  3
A1
350
49
  3
A2
350
4A
  3
A3
350
4B
  3
A4
350
4C
  3
A5
350
4D
  3
A6
350
4E
  3
A7
350
4F
  3
A8
350
50
  3
A9
350
51
  3
B0
350
52
  3
B1
350
53
  3
B2
350
54
  3
B3
350
55
  3
B4
350
56
  3
B5
350
57
  3
B6
350
58
  0
XRECORD
  5
CC
102
{ACAD_REACTORS
330
C
102
}
330
C
100
AcDbXrecord
280
     1
  1
DWGPROPS COOKIE
  2

  3

  4

  6

  7

  8
imaizumi
  9

300
=
301
=
302
=
303
=
304
=
305
=
306
=
307
=
308
=
309
=
 40
0.0
 41
2461263.074376007
 42
2461263.074376424
  1

 90
        0
  0
LAYOUT
  5
1E
102
{ACAD_REACTORS
330
1A
102
}
330
1A
100
AcDbPlotSettings
  1

  2
none_device
  4

  6

 40
0.0
 41
0.0
 42
0.0
 43
0.0
 44
0.0
 45
0.0
 46
0.0
 47
0.0
 48
0.0
 49
0.0
140
0.0
141
0.0
142
1.0
143
1.0
 70
   688
 72
     1
 73
     0
 74
     5
  7

 75
    16
147
1.0
148
0.0
149
0.0
100
AcDbLayout
  1
Layout1
 70
     1
 71
     1
 10
0.0
 20
0.0
 11
420.0
 21
297.0
 12
0.0
 22
0.0
 32
0.0
 14
1.0000000000E+20
 24
1.0000000000E+20
 34
1.0000000000E+20
 15
-1.0000000000E+20
 25
-1.0000000000E+20
 35
-1.0000000000E+20
146
0.0
 13
0.0
 23
0.0
 33
0.0
 16
1.0
 26
0.0
 36
0.0
 17
0.0
 27
1.0
 37
0.0
 76
     0
330
1B
  0
LAYOUT
  5
26
102
{ACAD_REACTORS
330
1A
102
}
330
1A
100
AcDbPlotSettings
  1

  2
none_device
  4

  6

 40
0.0
 41
0.0
 42
0.0
 43
0.0
 44
0.0
 45
0.0
 46
0.0
 47
0.0
 48
0.0
 49
0.0
140
0.0
141
0.0
142
1.0
143
1.0
 70
   688
 72
     1
 73
     0
 74
     5
  7

 75
    16
147
1.0
148
0.0
149
0.0
100
AcDbLayout
  1
Layout2
 70
     1
 71
     2
 10
0.0
 20
0.0
 11
0.0
 21
0.0
 12
0.0
 22
0.0
 32
0.0
 14
0.0
 24
0.0
 34
0.0
 15
0.0
 25
0.0
 35
0.0
146
0.0
 13
0.0
 23
0.0
 33
0.0
 16
1.0
 26
0.0
 36
0.0
 17
0.0
 27
1.0
 37
0.0
 76
     0
330
23
  0
LAYOUT
  5
22
102
{ACAD_REACTORS
330
1A
102
}
330
1A
100
AcDbPlotSettings
  1

  2
none_device
  4
Letter_(8.50_x_11.00_Inches)
  6

 40
6.35
 41
6.35
 42
6.35000508
 43
6.35000508
 44
215.9
 45
279.4
 46
0.0
 47
0.0
 48
0.0
 49
0.0
140
0.0
141
0.0
142
1.0
143
1.0
 70
  1712
 72
     1
 73
     0
 74
     0
  7

 75
     0
147
1.0
148
0.0
149
0.0
100
AcDbLayout
  1
Model
 70
     1
 71
     0
 10
0.0
 20
0.0
 11
841.0
 21
594.0
 12
0.0
 22
0.0
 32
0.0
 14
0.0
 24
0.0
 34
0.0
 15
841.0
 25
594.0
 35
0.0
146
0.0
 13
0.0
 23
0.0
 33
0.0
 16
1.0
 26
0.0
 36
0.0
 17
0.0
 27
1.0
 37
0.0
 76
     0
330
1F
331
29
  0
MLINESTYLE
  5
18
102
{ACAD_REACTORS
330
17
102
}
330
17
100
AcDbMlineStyle
  2
Standard
 70
     0
  3

 62
   256
 51
90.0
 52
90.0
 71
     2
 49
0.5
 62
   256
  6
BYLAYER
 49
-0.5
 62
   256
  6
BYLAYER
  0
ACDBPLACEHOLDER
  5
F
102
{ACAD_REACTORS
330
E
102
}
330
E
  0
SCALE
  5
48
102
{ACAD_REACTORS
330
47
102
}
330
47
100
AcDbScale
 70
     0
300
1:1
140
1.0
141
1.0
290
     1
  0
SCALE
  5
49
102
{ACAD_REACTORS
330
47
102
}
330
47
100
AcDbScale
 70
     0
300
1:2
140
1.0
141
2.0
290
     0
  0
SCALE
  5
4A
102
{ACAD_REACTORS
330
47
102
}
330
47
100
AcDbScale
 70
     0
300
1:4
140
1.0
141
4.0
290
     0
  0
SCALE
  5
4B
102
{ACAD_REACTORS
330
47
102
}
330
47
100
AcDbScale
 70
     0
300
1:5
140
1.0
141
5.0
290
     0
  0
SCALE
  5
4C
102
{ACAD_REACTORS
330
47
102
}
330
47
100
AcDbScale
 70
     0
300
1:8
140
1.0
141
8.0
290
     0
  0
SCALE
  5
4D
102
{ACAD_REACTORS
330
47
102
}
330
47
100
AcDbScale
 70
     0
300
1:10
140
1.0
141
10.0
290
     0
  0
SCALE
  5
4E
102
{ACAD_REACTORS
330
47
102
}
330
47
100
AcDbScale
 70
     0
300
1:16
140
1.0
141
16.0
290
     0
  0
SCALE
  5
4F
102
{ACAD_REACTORS
330
47
102
}
330
47
100
AcDbScale
 70
     0
300
1:20
140
1.0
141
20.0
290
     0
  0
SCALE
  5
50
102
{ACAD_REACTORS
330
47
102
}
330
47
100
AcDbScale
 70
     0
300
1:30
140
1.0
141
30.0
290
     0
  0
SCALE
  5
51
102
{ACAD_REACTORS
330
47
102
}
330
47
100
AcDbScale
 70
     0
300
1:40
140
1.0
141
40.0
290
     0
  0
SCALE
  5
52
102
{ACAD_REACTORS
330
47
102
}
330
47
100
AcDbScale
 70
     0
300
1:50
140
1.0
141
50.0
290
     0
  0
SCALE
  5
53
102
{ACAD_REACTORS
330
47
102
}
330
47
100
AcDbScale
 70
     0
300
1:100
140
1.0
141
100.0
290
     0
  0
SCALE
  5
54
102
{ACAD_REACTORS
330
47
102
}
330
47
100
AcDbScale
 70
     0
300
2:1
140
2.0
141
1.0
290
     0
  0
SCALE
  5
55
102
{ACAD_REACTORS
330
47
102
}
330
47
100
AcDbScale
 70
     0
300
4:1
140
4.0
141
1.0
290
     0
  0
SCALE
  5
56
102
{ACAD_REACTORS
330
47
102
}
330
47
100
AcDbScale
 70
     0
300
8:1
140
8.0
141
1.0
290
     0
  0
SCALE
  5
57
102
{ACAD_REACTORS
330
47
102
}
330
47
100
AcDbScale
 70
     0
300
10:1
140
10.0
141
1.0
290
     0
  0
SCALE
  5
58
102
{ACAD_REACTORS
330
47
102
}
330
47
100
AcDbScale
 70
     0
300
100:1
140
100.0
141
1.0
290
     0
  0
ENDSEC
  0
EOF
