  0
SECTION
  2
HEADER
  9
$ACADVER
  1
AC1015
  9
$ACADMAINTVER
 70
     6
  9
$DWGCODEPAGE
  3
DOS932
  9
$INSBASE
 10
0.0
 20
0.0
 30
0.0
  9
$EXTMIN
 10
0.0
 20
0.0
 30
0.0
  9
$EXTMAX
 10
841.0
 20
594.0
 30
0.0
  9
$LIMMIN
 10
0.0
 20
0.0
  9
$LIMMAX
 10
841.0
 20
594.0
  9
$ORTHOMODE
 70
     0
  9
$REGENMODE
 70
     1
  9
$FILLMODE
 70
     1
  9
$QTEXTMODE
 70
     0
  9
$MIRRTEXT
 70
     1
  9
$LTSCALE
 40
1.0
  9
$ATTMODE
 70
     1
  9
$TEXTSIZE
 40
3.5
  9
$TRACEWID
 40
1.0
  9
$TEXTSTYLE
  7
Standard
  9
$CLAYER
  8
0
  9
$CELTYPE
  6
ByLayer
  9
$CECOLOR
 62
   256
  9
$CELTSCALE
 40
1.0
  9
$DISPSILH
 70
     0
  9
$DIMSCALE
 40
1.0
  9
$DIMASZ
 40
3.302
  9
$DIMEXO
 40
1.0
  9
$DIMDLI
 40
3.75
  9
$DIMRND
 40
0.0
  9
$DIMDLE
 40
0.0
  9
$DIMEXE
 40
1.0
  9
$DIMTP
 40
0.0
  9
$DIMTM
 40
0.0
  9
$DIMTXT
 40
3.5
  9
$DIMCEN
 40
2.5
  9
$DIMTSZ
 40
0.0
  9
$DIMTOL
 70
     0
  9
$DIMLIM
 70
     0
  9
$DIMTIH
 70
     1
  9
$DIMTOH
 70
     1
  9
$DIMSE1
 70
     0
  9
$DIMSE2
 70
     0
  9
$DIMTAD
 70
     1
  9
$DIMZIN
 70
     1
  9
$DIMBLK
  1

  9
$DIMASO
 70
     1
  9
$DIMSHO
 70
     1
  9
$DIMPOST
  1

  9
$DIMAPOST
  1

  9
$DIMALT
 70
     0
  9
$DIMALTD
 70
     3
  9
$DIMALTF
 40
0.0393700787
  9
$DIMLFAC
 40
1.0
  9
$DIMTOFL
 70
     1
  9
$DIMTVP
 40
0.0
  9
$DIMTIX
 70
     0
  9
$DIMSOXD
 70
     0
  9
$DIMSAH
 70
     0
  9
$DIMBLK1
  1

  9
$DIMBLK2
  1

  9
$DIMSTYLE
  2
ISO-25
  9
$DIMCLRD
 70
     0
  9
$DIMCLRE
 70
     0
  9
$DIMCLRT
 70
     0
  9
$DIMTFAC
 40
1.0
  9
$DIMGAP
 40
1.524
  9
$DIMJUST
 70
     0
  9
$DIMSD1
 70
     0
  9
$DIMSD2
 70
     0
  9
$DIMTOLJ
 70
     0
  9
$DIMTZIN
 70
     1
  9
$DIMALTZ
 70
     0
  9
$DIMALTTZ
 70
     0
  9
$DIMUPT
 70
     0
  9
$DIMDEC
 70
     2
  9
$DIMTDEC
 70
     2
  9
$DIMALTU
 70
     2
  9
$DIMALTTD
 70
     3
  9
$DIMTXSTY
  7
Standard
  9
$DIMAUNIT
 70
     0
  9
$DIMADEC
 70
     2
  9
$DIMALTRND
 40
0.0
  9
$DIMAZIN
 70
     0
  9
$DIMDSEP
 70
    44
  9
$DIMATFIT
 70
     3
  9
$DIMFRAC
 70
     0
  9
$DIMLDRBLK
  1

  9
$DIMLUNIT
 70
     2
  9
$DIMLWD
 70
    -2
  9
$DIMLWE
 70
    -2
  9
$DIMTMOVE
 70
     0
  9
$LUNITS
 70
     2
  9
$LUPREC
 70
     2
  9
$SKETCHINC
 40
1.0
  9
$FILLETRAD
 40
0.0
  9
$AUNITS
 70
     0
  9
$AUPREC
 70
     2
  9
$MENU
  1
.
  9
$ELEVATION
 40
0.0
  9
$PELEVATION
 40
0.0
  9
$THICKNESS
 40
0.0
  9
$LIMCHECK
 70
     0
  9
$CHAMFERA
 40
0.0
  9
$CHAMFERB
 40
0.0
  9
$CHAMFERC
 40
0.0
  9
$CHAMFERD
 40
0.0
  9
$SKPOLY
 70
     0
  9
$TDCREATE
 40
2461263.440981447
  9
$TDUCREATE
 40
2461263.065981447
  9
$TDUPDATE
 40
2461263.440982222
  9
$TDUUPDATE
 40
2461263.065982222
  9
$TDINDWG
 40
0.0000000116
  9
$TDUSRTIMER
 40
0.0000000116
  9
$USRTIMER
 70
     1
  9
$ANGBASE
 50
0.0
  9
$ANGDIR
 70
     0
  9
$PDMODE
 70
     0
  9
$PDSIZE
 40
-1.0
  9
$PLINEWID
 40
0.0
  9
$SPLFRAME
 70
     0
  9
$SPLINETYPE
 70
     6
  9
$SPLINESEGS
 70
     8
  9
$HANDSEED
  5
1AA
  9
$SURFTAB1
 70
     6
  9
$SURFTAB2
 70
     6
  9
$SURFTYPE
 70
     6
  9
$SURFU
 70
     6
  9
$SURFV
 70
     6
  9
$UCSBASE
  2

  9
$UCSNAME
  2

  9
$UCSORG
 10
0.0
 20
0.0
 30
0.0
  9
$UCSXDIR
 10
1.0
 20
0.0
 30
0.0
  9
$UCSYDIR
 10
0.0
 20
1.0
 30
0.0
  9
$UCSORTHOREF
  2

  9
$UCSORTHOVIEW
 70
     0
  9
$UCSORGTOP
 10
0.0
 20
0.0
 30
0.0
  9
$UCSORGBOTTOM
 10
0.0
 20
0.0
 30
0.0
  9
$UCSORGLEFT
 10
0.0
 20
0.0
 30
0.0
  9
$UCSORGRIGHT
 10
0.0
 20
0.0
 30
0.0
  9
$UCSORGFRONT
 10
0.0
 20
0.0
 30
0.0
  9
$UCSORGBACK
 10
0.0
 20
0.0
 30
0.0
  9
$PUCSBASE
  2

  9
$PUCSNAME
  2

  9
$PUCSORG
 10
0.0
 20
0.0
 30
0.0
  9
$PUCSXDIR
 10
1.0
 20
0.0
 30
0.0
  9
$PUCSYDIR
 10
0.0
 20
1.0
 30
0.0
  9
$PUCSORTHOREF
  2

  9
$PUCSORTHOVIEW
 70
     0
  9
$PUCSORGTOP
 10
0.0
 20
0.0
 30
0.0
  9
$PUCSORGBOTTOM
 10
0.0
 20
0.0
 30
0.0
  9
$PUCSORGLEFT
 10
0.0
 20
0.0
 30
0.0
  9
$PUCSORGRIGHT
 10
0.0
 20
0.0
 30
0.0
  9
$PUCSORGFRONT
 10
0.0
 20
0.0
 30
0.0
  9
$PUCSORGBACK
 10
0.0
 20
0.0
 30
0.0
  9
$USERI1
 70
     0
  9
$USERI2
 70
     0
  9
$USERI3
 70
     0
  9
$USERI4
 70
     0
  9
$USERI5
 70
     0
  9
$USERR1
 40
0.0
  9
$USERR2
 40
0.0
  9
$USERR3
 40
0.0
  9
$USERR4
 40
0.0
  9
$USERR5
 40
0.0
  9
$WORLDVIEW
 70
     1
  9
$SHADEDGE
 70
     3
  9
$SHADEDIF
 70
    70
  9
$TILEMODE
 70
     1
  9
$MAXACTVP
 70
    64
  9
$PINSBASE
 10
0.0
 20
0.0
 30
0.0
  9
$PLIMCHECK
 70
     0
  9
$PEXTMIN
 10
1.0000000000E+20
 20
1.0000000000E+20
 30
1.0000000000E+20
  9
$PEXTMAX
 10
-1.0000000000E+20
 20
-1.0000000000E+20
 30
-1.0000000000E+20
  9
$PLIMMIN
 10
0.0
 20
0.0
  9
$PLIMMAX
 10
420.0
 20
297.0
  9
$UNITMODE
 70
     0
  9
$VISRETAIN
 70
     1
  9
$PLINEGEN
 70
     0
  9
$PSLTSCALE
 70
     1
  9
$TREEDEPTH
 70
  3020
  9
$CMLSTYLE
  2
Standard
  9
$CMLJUST
 70
     0
  9
$CMLSCALE
 40
20.0
  9
$PROXYGRAPHICS
 70
     1
  9
$MEASUREMENT
 70
     1
  9
$CELWEIGHT
370
    -1
  9
$ENDCAPS
280
     0
  9
$JOINSTYLE
280
     0
  9
$LWDISPLAY
290
     1
  9
$INSUNITS
 70
     4
  9
$HYPERLINKBASE
  1

  9
$STYLESHEET
  1

  9
$XEDIT
290
     1
  9
$CEPSNTYPE
380
     0
  9
$PSTYLEMODE
290
     1
  9
$FINGERPRINTGUID
  2
{8ea8b72a-16f9-4c76-abc3-2cf6d70ca3f1}
  9
$VERSIONGUID
  2
{FAEB1C32-E019-11D5-929B-00C0DF256EC4}
  9
$EXTNAMES
290
     1
  9
$PSVPSCALE
 40
0.0
  9
$OLESTARTUP
290
     0
  0
ENDSEC
  0
SECTION
  2
CLASSES
  0
CLASS
  1
ACDBDICTIONARYWDFLT
  2
AcDbDictionaryWithDefault
  3
ObjectDBX Classes
 90
        0
280
     0
281
     0
  0
CLASS
  1
VISUALSTYLE
  2
AcDbVisualStyle
  3
ObjectDBX Classes
 90
     4095
280
     0
281
     0
  0
CLASS
  1
MATERIAL
  2
AcDbMaterial
  3
ObjectDBX Classes
 90
     1153
280
     0
281
     0
  0
CLASS
  1
SCALE
  2
AcDbScale
  3
ObjectDBX Classes
 90
     1153
280
     0
281
     0
  0
CLASS
  1
TABLESTYLE
  2
AcDbTableStyle
  3
ObjectDBX Classes
 90
     4095
280
     0
281
     0
  0
CLASS
  1
MLEADERSTYLE
  2
AcDbMLeaderStyle
  3
ACDB_MLEADERSTYLE_CLASS
 90
     4095
280
     0
281
     0
  0
CLASS
  1
SUN
  2
AcDbSun
  3
SCENEOE
 90
     1153
280
     0
281
     0
  0
CLASS
  1
ACDBPLACEHOLDER
  2
AcDbPlaceHolder
  3
ObjectDBX Classes
 90
        0
280
     0
281
     0
  0
CLASS
  1
LAYOUT
  2
AcDbLayout
  3
ObjectDBX Classes
 90
        0
280
     0
281
     0
  0
ENDSEC
  0
SECTION
  2
TABLES
  0
TABLE
  2
VPORT
  5
8
330
0
100
AcDbSymbolTable
 70
     1
  0
VPORT
  5
29
330
8
100
AcDbSymbolTableRecord
100
AcDbViewportTableRecord
  2
*Active
 70
     0
 10
0.0
 20
0.0
 11
1.0
 21
1.0
 12
420.5
 22
297.0
 13
0.0
 23
0.0
 14
10.0
 24
10.0
 15
10.0
 25
10.0
 16
0.0
 26
0.0
 36
1.0
 17
0.0
 27
0.0
 37
0.0
 40
594.0
 41
1.4158249158
 42
50.0
 43
0.0
 44
0.0
 50
0.0
 51
0.0
 71
     0
 72
  2000
 73
     1
 74
     3
 75
     0
 76
     0
 77
     0
 78
     0
281
     0
 65
     1
110
0.0
120
0.0
130
0.0
111
1.0
121
0.0
131
0.0
112
0.0
122
1.0
132
0.0
 79
     0
146
0.0
  0
ENDTAB
  0
TABLE
  2
LTYPE
  5
5
330
0
100
AcDbSymbolTable
 70
     6
  0
LTYPE
  5
14
330
5
100
AcDbSymbolTableRecord
100
AcDbLinetypeTableRecord
  2
ByBlock
 70
     0
  3

 72
    65
 73
     0
 40
0.0
  0
LTYPE
  5
15
330
5
100
AcDbSymbolTableRecord
100
AcDbLinetypeTableRecord
  2
ByLayer
 70
     0
  3

 72
    65
 73
     0
 40
0.0
  0
LTYPE
  5
16
330
5
100
AcDbSymbolTableRecord
100
AcDbLinetypeTableRecord
  2
Continuous
 70
     0
  3
Solid line
 72
    65
 73
     0
 40
0.0
  0
LTYPE
  5
5E
330
5
100
AcDbSymbolTableRecord
100
AcDbLinetypeTableRecord
  2
HIDDEN
 70
     0
  3
Hidden __ __ __ __ __ __ __ __ __ __ __ __ __ __
 72
    65
 73
     2
 40
1.905
 49
1.27
 74
     0
 49
-0.635
 74
     0
  0
LTYPE
  5
5F
330
5
100
AcDbSymbolTableRecord
100
AcDbLinetypeTableRecord
  2
PHANTOM
 70
     0
  3
Phantom ______  __  __  ______  __  __  ______
 72
    65
 73
     6
 40
12.7
 49
6.35
 74
     0
 49
-1.27
 74
     0
 49
1.27
 74
     0
 49
-1.27
 74
     0
 49
1.27
 74
     0
 49
-1.27
 74
     0
  0
LTYPE
  5
60
330
5
100
AcDbSymbolTableRecord
100
AcDbLinetypeTableRecord
  2
CENTER
 70
     0
  3
Center ____ _ ____ _ ____ _ ____ _ ____ _ ____
 72
    65
 73
     4
 40
10.16
 49
6.35
 74
     0
 49
-1.27
 74
     0
 49
1.27
 74
     0
 49
-1.27
 74
     0
  0
LTYPE
  5
61
330
5
100
AcDbSymbolTableRecord
100
AcDbLinetypeTableRecord
  2
CENTERX2
 70
     0
  3
Center (2x) ________  __  ________  __  _____
 72
    65
 73
     4
 40
20.32
 49
12.7
 74
     0
 49
-2.54
 74
     0
 49
2.54
 74
     0
 49
-2.54
 74
     0
  0
LTYPE
  5
62
330
5
100
AcDbSymbolTableRecord
100
AcDbLinetypeTableRecord
  2
DOT2
 70
     0
  3
Dot (.5x) ........................................
 72
    65
 73
     2
 40
0.635
 49
0.0
 74
     0
 49
-0.635
 74
     0
  0
ENDTAB
  0
TABLE
  2
LAYER
  5
2
330
0
100
AcDbSymbolTable
 70
     1
  0
LAYER
  5
10
330
2
100
AcDbSymbolTableRecord
100
AcDbLayerTableRecord
  2
0
 70
     0
 62
     7
  6
Continuous
370
    -3
390
F
  0
ENDTAB
  0
TABLE
  2
STYLE
  5
3
330
0
100
AcDbSymbolTable
 70
     1
  0
STYLE
  5
11
330
3
100
AcDbSymbolTableRecord
100
AcDbTextStyleTableRecord
  2
Standard
 70
     0
 40
0.0
 41
1.0
 50
0.0
 71
     0
 42
3.5
  3
txt
  4
bigfont
  0
ENDTAB
  0
TABLE
  2
VIEW
  5
6
330
0
100
AcDbSymbolTable
 70
     0
  0
ENDTAB
  0
TABLE
  2
UCS
  5
7
330
0
100
AcDbSymbolTable
 70
     0
  0
ENDTAB
  0
TABLE
  2
APPID
  5
9
330
0
100
AcDbSymbolTable
 70
     1
  0
APPID
  5
12
330
9
100
AcDbSymbolTableRecord
100
AcDbRegAppTableRecord
  2
ACAD
 70
     0
  0
ENDTAB
  0
TABLE
  2
DIMSTYLE
  5
A
330
0
100
AcDbSymbolTable
 70
     1
100
AcDbDimStyleTable
  0
DIMSTYLE
105
27
330
A
100
AcDbSymbolTableRecord
100
AcDbDimStyleTableRecord
  2
ISO-25
 70
     0
 41
2.5
 42
0.625
 43
3.75
 44
1.25
 73
     0
 74
     0
 77
     1
 78
     8
140
2.5
141
2.5
143
0.0393700787
147
0.625
171
     3
172
     1
178
     0
271
     2
272
     2
274
     3
278
    44
283
     0
284
     8
340
11
  0
ENDTAB
  0
TABLE
  2
BLOCK_RECORD
  5
1
330
0
100
AcDbSymbolTable
 70
     1
  0
BLOCK_RECORD
  5
1F
330
1
100
AcDbSymbolTableRecord
100
AcDbBlockTableRecord
  2
*Model_Space
340
22
  0
BLOCK_RECORD
  5
1B
330
1
100
AcDbSymbolTableRecord
100
AcDbBlockTableRecord
  2
*Paper_Space
340
1E
  0
BLOCK_RECORD
  5
23
330
1
100
AcDbSymbolTableRecord
100
AcDbBlockTableRecord
  2
*Paper_Space0
340
26
  0
ENDTAB
  0
ENDSEC
  0
SECTION
  2
BLOCKS
  0
BLOCK
  5
20
330
1F
100
AcDbEntity
  8
0
100
AcDbBlockBegin
  2
*Model_Space
 70
     0
 10
0.0
 20
0.0
 30
0.0
  3
*Model_Space
  1

  0
ENDBLK
  5
21
330
1F
100
AcDbEntity
  8
0
100
AcDbBlockEnd
  0
BLOCK
  5
1C
330
1B
100
AcDbEntity
 67
     1
  8
0
100
AcDbBlockBegin
  2
*Paper_Space
 70
     0
 10
0.0
 20
0.0
 30
0.0
  3
*Paper_Space
  1

  0
ENDBLK
  5
1D
330
1B
100
AcDbEntity
 67
     1
  8
0
100
AcDbBlockEnd
  0
BLOCK
  5
24
330
23
100
AcDbEntity
  8
0
100
AcDbBlockBegin
  2
*Paper_Space0
 70
     0
 10
0.0
 20
0.0
 30
0.0
  3
*Paper_Space0
  1

  0
ENDBLK
  5
25
330
23
100
AcDbEntity
  8
0
100
AcDbBlockEnd
  0
ENDSEC
  0
SECTION
  2
ENTITIES
  0
LINE
  5
63
330
1F
100
AcDbEntity
  8
0
  6
Continuous
 62
     7
370
    25
100
AcDbLine
 10
390.5834200735
 20
-1.226995036
 30
0.0
 11
390.5834200735
 21
-5.726995036
 31
0.0
  0
LINE
  5
64
330
1F
100
AcDbEntity
  8
0
  6
Continuous
 62
     7
370
    25
100
AcDbLine
 10
385.5834200735
 20
-1.226995036
 30
0.0
 11
390.5834200735
 21
-1.226995036
 31
0.0
  0
LINE
  5
65
330
1F
100
AcDbEntity
  8
0
  6
Continuous
 62
     7
370
    25
100
AcDbLine
 10
390.5834200735
 20
-5.726995036
 30
0.0
 11
385.5834200735
 21
-5.726995036
 31
0.0
  0
LINE
  5
66
330
1F
100
AcDbEntity
  8
0
  6
Continuous
 62
     7
370
    25
100
AcDbLine
 10
140.5834200735
 20
-5.726995036
 30
0.0
 11
140.5834200735
 21
-1.226995036
 31
0.0
  0
LINE
  5
67
330
1F
100
AcDbEntity
  8
0
  6
Continuous
 62
     7
370
    25
100
AcDbLine
 10
140.5834200735
 20
-1.226995036
 30
0.0
 11
145.5834200735
 21
-1.226995036
 31
0.0
  0
LINE
  5
68
330
1F
100
AcDbEntity
  8
0
  6
Continuous
 62
     7
370
    25
100
AcDbLine
 10
145.5834200735
 20
-5.726995036
 30
0.0
 11
140.5834200735
 21
-5.726995036
 31
0.0
  0
LINE
  5
69
330
1F
100
AcDbEntity
  8
0
  6
Continuous
 62
     7
370
    25
100
AcDbLine
 10
145.5834200735
 20
-1.226995036
 30
0.0
 11
385.5834200735
 21
-1.226995036
 31
0.0
  0
LINE
  5
6A
330
1F
100
AcDbEntity
  8
0
  6
Continuous
 62
     7
370
    25
100
AcDbLine
 10
145.5834200735
 20
-5.726995036
 30
0.0
 11
385.5834200735
 21
-5.726995036
 31
0.0
  0
LINE
  5
6B
330
1F
100
AcDbEntity
  8
0
  6
Continuous
 62
     7
370
    25
100
AcDbLine
 10
140.5834200735
 20
214.273004964
 30
0.0
 11
390.5834200735
 21
214.273004964
 31
0.0
  0
LINE
  5
6C
330
1F
100
AcDbEntity
  8
0
  6
Continuous
 62
     7
370
    25
100
AcDbLine
 10
140.5834200735
 20
214.273004964
 30
0.0
 11
140.5834200735
 21
209.773004964
 31
0.0
  0
LINE
  5
6D
330
1F
100
AcDbEntity
  8
0
  6
Continuous
 62
     7
370
    25
100
AcDbLine
 10
390.5834200735
 20
214.273004964
 30
0.0
 11
390.5834200735
 21
209.773004964
 31
0.0
  0
ARC
  5
6E
330
1F
100
AcDbEntity
  8
0
  6
Continuous
 62
     7
370
    25
100
AcDbCircle
 10
170.5834200735
 20
182.273004964
 30
0.0
 40
3.0
100
AcDbArc
 50
0.0
 51
180.0
  0
ARC
  5
6F
330
1F
100
AcDbEntity
  8
0
  6
Continuous
 62
     7
370
    25
100
AcDbCircle
 10
210.5834200735
 20
182.273004964
 30
0.0
 40
3.000000000000028
100
AcDbArc
 50
180.0
 51
0.0
  0
ARC
  5
70
330
1F
100
AcDbEntity
  8
0
  6
Continuous
 62
     7
370
    25
100
AcDbCircle
 10
320.5834200735
 20
182.273004964
 30
0.0
 40
3.000000000000057
100
AcDbArc
 50
180.0
 51
0.0
  0
ARC
  5
71
330
1F
100
AcDbEntity
  8
0
  6
Continuous
 62
     7
370
    25
100
AcDbCircle
 10
320.5834200735
 20
182.273004964
 30
0.0
 40
3.000000000000057
100
AcDbArc
 50
0.0
 51
180.0
  0
ARC
  5
72
330
1F
100
AcDbEntity
  8
0
  6
Continuous
 62
     7
370
    25
100
AcDbCircle
 10
170.5834200735
 20
182.273004964
 30
0.0
 40
3.0
100
AcDbArc
 50
180.0
 51
0.0
  0
ARC
  5
73
330
1F
100
AcDbEntity
  8
0
  6
Continuous
 62
     7
370
    25
100
AcDbCircle
 10
360.5834200735
 20
182.273004964
 30
0.0
 40
3.0
100
AcDbArc
 50
0.0
 51
180.0
  0
ARC
  5
74
330
1F
100
AcDbEntity
  8
0
  6
Continuous
 62
     7
370
    25
100
AcDbCircle
 10
360.5834200735
 20
182.273004964
 30
0.0
 40
3.0
100
AcDbArc
 50
180.0
 51
0.0
  0
ARC
  5
75
330
1F
100
AcDbEntity
  8
0
  6
Continuous
 62
     7
370
    25
100
AcDbCircle
 10
210.5834200735
 20
182.273004964
 30
0.0
 40
3.000000000000028
100
AcDbArc
 50
0.0
 51
180.0
  0
LINE
  5
76
330
1F
100
AcDbEntity
  8
0
  6
Continuous
 62
     7
370
    25
100
AcDbLine
 10
140.5834200735
 20
209.773004964
 30
0.0
 11
140.5834200735
 21
-1.226995036
 31
0.0
  0
LINE
  5
77
330
1F
100
AcDbEntity
  8
0
  6
Continuous
 62
     7
370
    25
100
AcDbLine
 10
390.5834200735
 20
209.773004964
 30
0.0
 11
390.5834200735
 21
-1.226995036
 31
0.0
  0
LINE
  5
78
330
1F
100
AcDbEntity
  8
0
  6
HIDDEN
 62
     7
370
    18
100
AcDbLine
 10
378.2834200735
 20
-1.226995036
 30
0.0
 11
378.2834200735
 21
209.773004964
 31
0.0
  0
LINE
  5
79
330
1F
100
AcDbEntity
  8
0
  6
HIDDEN
 62
     7
370
    18
100
AcDbLine
 10
300.5834200735
 20
209.773004964
 30
0.0
 11
378.2834200735
 21
209.773004964
 31
0.0
  0
LINE
  5
7A
330
1F
100
AcDbEntity
  8
0
  6
HIDDEN
 62
     7
370
    18
100
AcDbLine
 10
380.5834200735
 20
209.773004964
 30
0.0
 11
390.5834200735
 21
209.773004964
 31
0.0
  0
LINE
  5
7B
330
1F
100
AcDbEntity
  8
0
  6
HIDDEN
 62
     7
370
    18
100
AcDbLine
 10
380.5834200735
 20
209.773004964
 30
0.0
 11
380.5834200735
 21
-1.226995036
 31
0.0
  0
LINE
  5
7C
330
1F
100
AcDbEntity
  8
0
  6
HIDDEN
 62
     7
370
    18
100
AcDbLine
 10
300.5834200735
 20
209.773004964
 30
0.0
 11
300.5834200735
 21
-1.226995036
 31
0.0
  0
LINE
  5
7D
330
1F
100
AcDbEntity
  8
0
  6
HIDDEN
 62
     7
370
    18
100
AcDbLine
 10
298.2834200735
 20
-1.226995036
 30
0.0
 11
298.2834200735
 21
209.773004964
 31
0.0
  0
LINE
  5
7E
330
1F
100
AcDbEntity
  8
0
  6
HIDDEN
 62
     7
370
    18
100
AcDbLine
 10
232.8834200735
 20
209.773004964
 30
0.0
 11
298.2834200735
 21
209.773004964
 31
0.0
  0
LINE
  5
7F
330
1F
100
AcDbEntity
  8
0
  6
HIDDEN
 62
     7
370
    18
100
AcDbLine
 10
232.8834200735
 20
209.773004964
 30
0.0
 11
232.8834200735
 21
-1.226995036
 31
0.0
  0
LINE
  5
80
330
1F
100
AcDbEntity
  8
0
  6
HIDDEN
 62
     7
370
    18
100
AcDbLine
 10
152.8834200735
 20
209.773004964
 30
0.0
 11
230.5834200735
 21
209.773004964
 31
0.0
  0
LINE
  5
81
330
1F
100
AcDbEntity
  8
0
  6
HIDDEN
 62
     7
370
    18
100
AcDbLine
 10
152.8834200735
 20
209.773004964
 30
0.0
 11
152.8834200735
 21
-1.226995036
 31
0.0
  0
LINE
  5
82
330
1F
100
AcDbEntity
  8
0
  6
HIDDEN
 62
     7
370
    18
100
AcDbLine
 10
230.5834200735
 20
-1.226995036
 30
0.0
 11
230.5834200735
 21
209.773004964
 31
0.0
  0
LINE
  5
83
330
1F
100
AcDbEntity
  8
0
  6
HIDDEN
 62
     7
370
    18
100
AcDbLine
 10
140.5834200735
 20
209.773004964
 30
0.0
 11
150.5834200735
 21
209.773004964
 31
0.0
  0
LINE
  5
84
330
1F
100
AcDbEntity
  8
0
  6
HIDDEN
 62
     7
370
    18
100
AcDbLine
 10
150.5834200735
 20
-1.226995036
 30
0.0
 11
150.5834200735
 21
209.773004964
 31
0.0
  0
LINE
  5
85
330
1F
100
AcDbEntity
  8
0
  6
HIDDEN
 62
     7
370
    18
100
AcDbLine
 10
244.5834200735
 20
209.773004964
 30
0.0
 11
244.5834200735
 21
214.273004964
 31
0.0
  0
LINE
  5
86
330
1F
100
AcDbEntity
  8
0
  6
HIDDEN
 62
     7
370
    18
100
AcDbLine
 10
286.5834200735
 20
214.273004964
 30
0.0
 11
286.5834200735
 21
209.773004964
 31
0.0
  0
LINE
  5
87
330
1F
100
AcDbEntity
  8
0
  6
HIDDEN
 62
     7
370
    18
100
AcDbLine
 10
269.5834200735
 20
-5.726995036
 30
0.0
 11
269.5834200735
 21
-1.226995036
 31
0.0
  0
LINE
  5
88
330
1F
100
AcDbEntity
  8
0
  6
HIDDEN
 62
     7
370
    18
100
AcDbLine
 10
261.5834200735
 20
-1.226995036
 30
0.0
 11
261.5834200735
 21
-5.726995036
 31
0.0
  0
LINE
  5
89
330
1F
100
AcDbEntity
  8
0
  6
HIDDEN
 62
     7
370
    18
100
AcDbLine
 10
151.5834200735
 20
-1.226995036
 30
0.0
 11
151.5834200735
 21
-5.726995036
 31
0.0
  0
LINE
  5
8A
330
1F
100
AcDbEntity
  8
0
  6
HIDDEN
 62
     7
370
    18
100
AcDbLine
 10
379.5834200735
 20
-5.726995036
 30
0.0
 11
379.5834200735
 21
-1.226995036
 31
0.0
  0
LINE
  5
8B
330
1F
100
AcDbEntity
  8
0
  6
HIDDEN
 62
     7
370
    18
100
AcDbLine
 10
371.5834200735
 20
-1.226995036
 30
0.0
 11
371.5834200735
 21
-5.726995036
 31
0.0
  0
LINE
  5
8C
330
1F
100
AcDbEntity
  8
0
  6
HIDDEN
 62
     7
370
    18
100
AcDbLine
 10
159.5834200735
 20
-5.726995036
 30
0.0
 11
159.5834200735
 21
-1.226995036
 31
0.0
  0
LINE
  5
8D
330
1F
100
AcDbEntity
  8
0
  6
HIDDEN
 62
     7
370
    18
100
AcDbLine
 10
364.0834200735
 20
214.273004964
 30
0.0
 11
364.0834200735
 21
209.773004964
 31
0.0
  0
LINE
  5
8E
330
1F
100
AcDbEntity
  8
0
  6
HIDDEN
 62
     7
370
    18
100
AcDbLine
 10
367.0834200735
 20
209.773004964
 30
0.0
 11
367.0834200735
 21
214.273004964
 31
0.0
  0
LINE
  5
8F
330
1F
100
AcDbEntity
  8
0
  6
HIDDEN
 62
     7
370
    18
100
AcDbLine
 10
167.0834200735
 20
209.773004964
 30
0.0
 11
167.0834200735
 21
214.273004964
 31
0.0
  0
LINE
  5
90
330
1F
100
AcDbEntity
  8
0
  6
HIDDEN
 62
     7
370
    18
100
AcDbLine
 10
164.0834200735
 20
214.273004964
 30
0.0
 11
164.0834200735
 21
209.773004964
 31
0.0
  0
LINE
  5
91
330
1F
100
AcDbEntity
  8
0
  6
HIDDEN
 62
     7
370
    18
100
AcDbLine
 10
264.0834200735
 20
214.273004964
 30
0.0
 11
264.0834200735
 21
209.773004964
 31
0.0
  0
LINE
  5
92
330
1F
100
AcDbEntity
  8
0
  6
HIDDEN
 62
     7
370
    18
100
AcDbLine
 10
267.0834200735
 20
209.773004964
 30
0.0
 11
267.0834200735
 21
214.273004964
 31
0.0
  0
LINE
  5
93
330
1F
100
AcDbEntity
  8
0
  6
HIDDEN
 62
     7
370
    18
100
AcDbLine
 10
261.0834200735
 20
214.273004964
 30
0.0
 11
261.0834200735
 21
209.773004964
 31
0.0
  0
LINE
  5
94
330
1F
100
AcDbEntity
  8
0
  6
HIDDEN
 62
     7
370
    18
100
AcDbLine
 10
270.0834200735
 20
209.773004964
 30
0.0
 11
270.0834200735
 21
214.273004964
 31
0.0
  0
ARC
  5
95
330
1F
100
AcDbEntity
  8
0
  6
Continuous
 62
     7
370
    25
100
AcDbCircle
 10
239.5834200735
 20
470.88
 30
0.0
 40
5.000000000000028
100
AcDbArc
 50
270.0
 51
0.0
  0
LINE
  5
96
330
1F
100
AcDbEntity
  8
0
  6
Continuous
 62
     7
370
    25
100
AcDbLine
 10
244.5834200735
 20
470.88
 30
0.0
 11
244.5834200735
 21
482.88
 31
0.0
  0
ARC
  5
97
330
1F
100
AcDbEntity
  8
0
  6
Continuous
 62
     7
370
    25
100
AcDbCircle
 10
249.5834200735
 20
482.88
 30
0.0
 40
5.000000000000057
100
AcDbArc
 50
90.0
 51
180.0
  0
ARC
  5
98
330
1F
100
AcDbEntity
  8
0
  6
Continuous
 62
     7
370
    25
100
AcDbCircle
 10
281.5834200735
 20
482.88
 30
0.0
 40
5.000000000000057
100
AcDbArc
 50
0.0
 51
90.0
  0
LINE
  5
99
330
1F
100
AcDbEntity
  8
0
  6
Continuous
 62
     7
370
    25
100
AcDbLine
 10
286.5834200735
 20
482.88
 30
0.0
 11
286.5834200735
 21
470.88
 31
0.0
  0
ARC
  5
9A
330
1F
100
AcDbEntity
  8
0
  6
Continuous
 62
     7
370
    25
100
AcDbCircle
 10
291.5834200735
 20
470.88
 30
0.0
 40
5.0
100
AcDbArc
 50
180.0
 51
270.0
  0
LINE
  5
9B
330
1F
100
AcDbEntity
  8
0
  6
Continuous
 62
     7
370
    25
100
AcDbLine
 10
291.5834200735
 20
465.88
 30
0.0
 11
385.5834200735
 21
465.88
 31
0.0
  0
ARC
  5
9C
330
1F
100
AcDbEntity
  8
0
  6
Continuous
 62
     7
370
    25
100
AcDbCircle
 10
385.5834200735
 20
460.88
 30
0.0
 40
5.0
100
AcDbArc
 50
0.0
 51
90.0
  0
LINE
  5
9D
330
1F
100
AcDbEntity
  8
0
  6
Continuous
 62
     7
370
    25
100
AcDbLine
 10
390.5834200735
 20
460.88
 30
0.0
 11
390.5834200735
 21
430.38
 31
0.0
  0
LINE
  5
9E
330
1F
100
AcDbEntity
  8
0
  6
Continuous
 62
     7
370
    25
100
AcDbLine
 10
140.5834200735
 20
460.88
 30
0.0
 11
140.5834200735
 21
430.38
 31
0.0
  0
ARC
  5
9F
330
1F
100
AcDbEntity
  8
0
  6
Continuous
 62
     7
370
    25
100
AcDbCircle
 10
145.5834200735
 20
460.88
 30
0.0
 40
5.0
100
AcDbArc
 50
90.0
 51
180.0
  0
LINE
  5
A0
330
1F
100
AcDbEntity
  8
0
  6
Continuous
 62
     7
370
    25
100
AcDbLine
 10
145.5834200735
 20
465.88
 30
0.0
 11
239.5834200735
 21
465.88
 31
0.0
  0
ARC
  5
A1
330
1F
100
AcDbEntity
  8
0
  6
Continuous
 62
     7
370
    25
100
AcDbCircle
 10
265.5834200735
 20
477.88
 30
0.0
 40
4.5
100
AcDbArc
 50
90.0
 51
270.0
  0
ARC
  5
A2
330
1F
100
AcDbEntity
  8
0
  6
Continuous
 62
     7
370
    25
100
AcDbCircle
 10
265.5834200735
 20
477.88
 30
0.0
 40
4.5
100
AcDbArc
 50
270.0
 51
90.0
  0
ARC
  5
A3
330
1F
100
AcDbEntity
  8
0
  6
Continuous
 62
     7
370
    25
100
AcDbCircle
 10
165.5834200735
 20
450.88
 30
0.0
 40
1.5
100
AcDbArc
 50
90.0
 51
270.0
  0
ARC
  5
A4
330
1F
100
AcDbEntity
  8
0
  6
Continuous
 62
     7
370
    25
100
AcDbCircle
 10
165.5834200735
 20
450.88
 30
0.0
 40
1.5
100
AcDbArc
 50
270.0
 51
90.0
  0
ARC
  5
A5
330
1F
100
AcDbEntity
  8
0
  6
Continuous
 62
     7
370
    25
100
AcDbCircle
 10
265.5834200735
 20
450.88
 30
0.0
 40
1.5
100
AcDbArc
 50
90.0
 51
270.0
  0
ARC
  5
A6
330
1F
100
AcDbEntity
  8
0
  6
Continuous
 62
     7
370
    25
100
AcDbCircle
 10
265.5834200735
 20
450.88
 30
0.0
 40
1.5
100
AcDbArc
 50
270.0
 51
90.0
  0
ARC
  5
A7
330
1F
100
AcDbEntity
  8
0
  6
Continuous
 62
     7
370
    25
100
AcDbCircle
 10
365.5834200735
 20
450.88
 30
0.0
 40
1.5
100
AcDbArc
 50
90.0
 51
270.0
  0
ARC
  5
A8
330
1F
100
AcDbEntity
  8
0
  6
Continuous
 62
     7
370
    25
100
AcDbCircle
 10
365.5834200735
 20
450.88
 30
0.0
 40
1.5
100
AcDbArc
 50
270.0
 51
90.0
  0
LINE
  5
A9
330
1F
100
AcDbEntity
  8
0
  6
Continuous
 62
     7
370
    25
100
AcDbLine
 10
249.5834200735
 20
487.88
 30
0.0
 11
281.5834200735
 21
487.88
 31
0.0
  0
LINE
  5
AA
330
1F
100
AcDbEntity
  8
0
  6
Continuous
 62
     7
370
    25
100
AcDbLine
 10
140.5834200735
 20
425.88
 30
0.0
 11
390.5834200735
 21
425.88
 31
0.0
  0
LINE
  5
AB
330
1F
100
AcDbEntity
  8
0
  6
Continuous
 62
     7
370
    25
100
AcDbLine
 10
140.5834200735
 20
430.38
 30
0.0
 11
140.5834200735
 21
425.88
 31
0.0
  0
LINE
  5
AC
330
1F
100
AcDbEntity
  8
0
  6
Continuous
 62
     7
370
    25
100
AcDbLine
 10
390.5834200735
 20
430.38
 30
0.0
 11
390.5834200735
 21
425.88
 31
0.0
  0
ARC
  5
AD
330
1F
100
AcDbEntity
  8
0
  6
Continuous
 62
     7
370
    25
100
AcDbCircle
 10
145.5834200735
 20
394.88
 30
0.0
 40
5.0
100
AcDbArc
 50
180.0
 51
270.0
  0
ARC
  5
AE
330
1F
100
AcDbEntity
  8
0
  6
Continuous
 62
     7
370
    25
100
AcDbCircle
 10
385.5834200735
 20
394.88
 30
0.0
 40
5.0
100
AcDbArc
 50
270.0
 51
0.0
  0
LINE
  5
AF
330
1F
100
AcDbEntity
  8
0
  6
Continuous
 62
     7
370
    25
100
AcDbLine
 10
145.5834200735
 20
389.88
 30
0.0
 11
385.5834200735
 21
389.88
 31
0.0
  0
ARC
  5
B0
330
1F
100
AcDbEntity
  8
0
  6
Continuous
 62
     7
370
    25
100
AcDbCircle
 10
155.5834200735
 20
407.88
 30
0.0
 40
4.0
100
AcDbArc
 50
270.0
 51
90.0
  0
ARC
  5
B1
330
1F
100
AcDbEntity
  8
0
  6
Continuous
 62
     7
370
    25
100
AcDbCircle
 10
155.5834200735
 20
407.88
 30
0.0
 40
4.0
100
AcDbArc
 50
90.0
 51
270.0
  0
ARC
  5
B2
330
1F
100
AcDbEntity
  8
0
  6
Continuous
 62
     7
370
    25
100
AcDbCircle
 10
265.5834200735
 20
407.88
 30
0.0
 40
4.0
100
AcDbArc
 50
270.0
 51
90.0
  0
ARC
  5
B3
330
1F
100
AcDbEntity
  8
0
  6
Continuous
 62
     7
370
    25
100
AcDbCircle
 10
265.5834200735
 20
407.88
 30
0.0
 40
4.0
100
AcDbArc
 50
90.0
 51
270.0
  0
ARC
  5
B4
330
1F
100
AcDbEntity
  8
0
  6
Continuous
 62
     7
370
    25
100
AcDbCircle
 10
375.5834200735
 20
407.88
 30
0.0
 40
4.0
100
AcDbArc
 50
270.0
 51
90.0
  0
ARC
  5
B5
330
1F
100
AcDbEntity
  8
0
  6
Continuous
 62
     7
370
    25
100
AcDbCircle
 10
375.5834200735
 20
407.88
 30
0.0
 40
4.0
100
AcDbArc
 50
90.0
 51
270.0
  0
LINE
  5
B6
330
1F
100
AcDbEntity
  8
0
  6
Continuous
 62
     7
370
    25
100
AcDbLine
 10
140.5834200735
 20
425.88
 30
0.0
 11
140.5834200735
 21
394.88
 31
0.0
  0
LINE
  5
B7
330
1F
100
AcDbEntity
  8
0
  6
Continuous
 62
     7
370
    25
100
AcDbLine
 10
390.5834200735
 20
425.88
 30
0.0
 11
390.5834200735
 21
394.88
 31
0.0
  0
LINE
  5
B8
330
1F
100
AcDbEntity
  8
0
  6
HIDDEN
 62
     7
370
    18
100
AcDbLine
 10
232.8834200735
 20
465.88
 30
0.0
 11
232.8834200735
 21
430.38
 31
0.0
  0
LINE
  5
B9
330
1F
100
AcDbEntity
  8
0
  6
HIDDEN
 62
     7
370
    18
100
AcDbLine
 10
380.5834200735
 20
465.88
 30
0.0
 11
380.5834200735
 21
430.38
 31
0.0
  0
LINE
  5
BA
330
1F
100
AcDbEntity
  8
0
  6
HIDDEN
 62
     7
370
    18
100
AcDbLine
 10
230.5834200735
 20
465.88
 30
0.0
 11
230.5834200735
 21
430.38
 31
0.0
  0
LINE
  5
BB
330
1F
100
AcDbEntity
  8
0
  6
HIDDEN
 62
     7
370
    18
100
AcDbLine
 10
378.2834200735
 20
465.88
 30
0.0
 11
378.2834200735
 21
430.38
 31
0.0
  0
LINE
  5
BC
330
1F
100
AcDbEntity
  8
0
  6
HIDDEN
 62
     7
370
    18
100
AcDbLine
 10
300.5834200735
 20
465.88
 30
0.0
 11
300.5834200735
 21
430.38
 31
0.0
  0
LINE
  5
BD
330
1F
100
AcDbEntity
  8
0
  6
HIDDEN
 62
     7
370
    18
100
AcDbLine
 10
150.5834200735
 20
465.88
 30
0.0
 11
150.5834200735
 21
430.38
 31
0.0
  0
LINE
  5
BE
330
1F
100
AcDbEntity
  8
0
  6
HIDDEN
 62
     7
370
    18
100
AcDbLine
 10
152.8834200735
 20
465.88
 30
0.0
 11
152.8834200735
 21
430.38
 31
0.0
  0
LINE
  5
BF
330
1F
100
AcDbEntity
  8
0
  6
HIDDEN
 62
     7
370
    18
100
AcDbLine
 10
298.2834200735
 20
465.88
 30
0.0
 11
298.2834200735
 21
430.38
 31
0.0
  0
LINE
  5
C0
330
1F
100
AcDbEntity
  8
0
  6
HIDDEN
 62
     7
370
    18
100
AcDbLine
 10
152.8834200735
 20
430.38
 30
0.0
 11
230.5834200735
 21
430.38
 31
0.0
  0
LINE
  5
C1
330
1F
100
AcDbEntity
  8
0
  6
HIDDEN
 62
     7
370
    18
100
AcDbLine
 10
380.5834200735
 20
430.38
 30
0.0
 11
390.5834200735
 21
430.38
 31
0.0
  0
LINE
  5
C2
330
1F
100
AcDbEntity
  8
0
  6
HIDDEN
 62
     7
370
    18
100
AcDbLine
 10
300.5834200735
 20
430.38
 30
0.0
 11
378.2834200735
 21
430.38
 31
0.0
  0
LINE
  5
C3
330
1F
100
AcDbEntity
  8
0
  6
HIDDEN
 62
     7
370
    18
100
AcDbLine
 10
140.5834200735
 20
430.38
 30
0.0
 11
150.5834200735
 21
430.38
 31
0.0
  0
LINE
  5
C4
330
1F
100
AcDbEntity
  8
0
  6
HIDDEN
 62
     7
370
    18
100
AcDbLine
 10
232.8834200735
 20
430.38
 30
0.0
 11
298.2834200735
 21
430.38
 31
0.0
  0
LINE
  5
C5
330
1F
100
AcDbEntity
  8
0
  6
HIDDEN
 62
     7
370
    18
100
AcDbLine
 10
213.5834200735
 20
430.38
 30
0.0
 11
213.5834200735
 21
425.88
 31
0.0
  0
LINE
  5
C6
330
1F
100
AcDbEntity
  8
0
  6
HIDDEN
 62
     7
370
    18
100
AcDbLine
 10
207.5834200735
 20
430.38
 30
0.0
 11
207.5834200735
 21
425.88
 31
0.0
  0
LINE
  5
C7
330
1F
100
AcDbEntity
  8
0
  6
HIDDEN
 62
     7
370
    18
100
AcDbLine
 10
323.5834200735
 20
430.38
 30
0.0
 11
323.5834200735
 21
425.88
 31
0.0
  0
LINE
  5
C8
330
1F
100
AcDbEntity
  8
0
  6
HIDDEN
 62
     7
370
    18
100
AcDbLine
 10
317.5834200735
 20
430.38
 30
0.0
 11
317.5834200735
 21
425.88
 31
0.0
  0
LINE
  5
C9
330
1F
100
AcDbEntity
  8
0
  6
HIDDEN
 62
     7
370
    18
100
AcDbLine
 10
173.5834200735
 20
430.38
 30
0.0
 11
173.5834200735
 21
425.88
 31
0.0
  0
LINE
  5
CA
330
1F
100
AcDbEntity
  8
0
  6
HIDDEN
 62
     7
370
    18
100
AcDbLine
 10
167.5834200735
 20
430.38
 30
0.0
 11
167.5834200735
 21
425.88
 31
0.0
  0
LINE
  5
CB
330
1F
100
AcDbEntity
  8
0
  6
HIDDEN
 62
     7
370
    18
100
AcDbLine
 10
363.5834200735
 20
430.38
 30
0.0
 11
363.5834200735
 21
425.88
 31
0.0
  0
LINE
  5
CC
330
1F
100
AcDbEntity
  8
0
  6
HIDDEN
 62
     7
370
    18
100
AcDbLine
 10
357.5834200735
 20
430.38
 30
0.0
 11
357.5834200735
 21
425.88
 31
0.0
  0
LINE
  5
CD
330
1F
100
AcDbEntity
  8
0
  6
HIDDEN
 62
     7
370
    18
100
AcDbLine
 10
239.5834200735
 20
465.88
 30
0.0
 11
291.5834200735
 21
465.88
 31
0.0
  0
LINE
  5
CE
330
1F
100
AcDbEntity
  8
0
  6
Continuous
 62
     7
370
    25
100
AcDbLine
 10
604.38
 20
214.273004964
 30
0.0
 11
604.38
 21
209.773004964
 31
0.0
  0
LINE
  5
CF
330
1F
100
AcDbEntity
  8
0
  6
Continuous
 62
     7
370
    25
100
AcDbLine
 10
604.38
 20
209.773004964
 30
0.0
 11
599.38
 21
209.773004964
 31
0.0
  0
LINE
  5
D0
330
1F
100
AcDbEntity
  8
0
  6
Continuous
 62
     7
370
    25
100
AcDbLine
 10
599.38
 20
214.273004964
 30
0.0
 11
604.38
 21
214.273004964
 31
0.0
  0
LINE
  5
D1
330
1F
100
AcDbEntity
  8
0
  6
Continuous
 62
     7
370
    25
100
AcDbLine
 10
604.38
 20
-1.226995036
 30
0.0
 11
604.38
 21
-5.726995036
 31
0.0
  0
LINE
  5
D2
330
1F
100
AcDbEntity
  8
0
  6
Continuous
 62
     7
370
    25
100
AcDbLine
 10
599.38
 20
-1.226995036
 30
0.0
 11
604.38
 21
-1.226995036
 31
0.0
  0
LINE
  5
D3
330
1F
100
AcDbEntity
  8
0
  6
Continuous
 62
     7
370
    25
100
AcDbLine
 10
604.38
 20
-5.726995036
 30
0.0
 11
599.38
 21
-5.726995036
 31
0.0
  0
LINE
  5
D4
330
1F
100
AcDbEntity
  8
0
  6
Continuous
 62
     7
370
    25
100
AcDbLine
 10
564.38
 20
209.773004964
 30
0.0
 11
564.38
 21
-1.226995036
 31
0.0
  0
ARC
  5
D5
330
1F
100
AcDbEntity
  8
0
  6
Continuous
 62
     7
370
    25
100
AcDbCircle
 10
568.88
 20
209.773004964
 30
0.0
 40
4.500000000000114
100
AcDbArc
 50
90.0
 51
180.0
  0
LINE
  5
D6
330
1F
100
AcDbEntity
  8
0
  6
Continuous
 62
     7
370
    25
100
AcDbLine
 10
568.88
 20
-1.226995036
 30
0.0
 11
568.88
 21
209.773004964
 31
0.0
  0
LINE
  5
D7
330
1F
100
AcDbEntity
  8
0
  6
Continuous
 62
     7
370
    25
100
AcDbLine
 10
564.38
 20
-1.226995036
 30
0.0
 11
533.38
 21
-1.226995036
 31
0.0
  0
LINE
  5
D8
330
1F
100
AcDbEntity
  8
0
  6
Continuous
 62
     7
370
    25
100
AcDbLine
 10
568.88
 20
209.773004964
 30
0.0
 11
599.38
 21
209.773004964
 31
0.0
  0
LINE
  5
D9
330
1F
100
AcDbEntity
  8
0
  6
Continuous
 62
     7
370
    25
100
AcDbLine
 10
599.38
 20
-1.226995036
 30
0.0
 11
568.88
 21
-1.226995036
 31
0.0
  0
LINE
  5
DA
330
1F
100
AcDbEntity
  8
0
  6
Continuous
 62
     7
370
    25
100
AcDbLine
 10
533.38
 20
-5.726995036
 30
0.0
 11
599.38
 21
-5.726995036
 31
0.0
  0
LINE
  5
DB
330
1F
100
AcDbEntity
  8
0
  6
Continuous
 62
     7
370
    25
100
AcDbLine
 10
599.38
 20
214.273004964
 30
0.0
 11
568.88
 21
214.273004964
 31
0.0
  0
LINE
  5
DC
330
1F
100
AcDbEntity
  8
0
  6
Continuous
 62
     7
370
    25
100
AcDbLine
 10
528.38
 20
-5.726995036
 30
0.0
 11
528.38
 21
-1.226995036
 31
0.0
  0
LINE
  5
DD
330
1F
100
AcDbEntity
  8
0
  6
Continuous
 62
     7
370
    25
100
AcDbLine
 10
528.38
 20
-1.226995036
 30
0.0
 11
533.38
 21
-1.226995036
 31
0.0
  0
LINE
  5
DE
330
1F
100
AcDbEntity
  8
0
  6
Continuous
 62
     7
370
    25
100
AcDbLine
 10
533.38
 20
-5.726995036
 30
0.0
 11
528.38
 21
-5.726995036
 31
0.0
  0
LINE
  5
DF
330
1F
100
AcDbEntity
  8
0
  6
Continuous
 62
     7
370
    25
100
AcDbLine
 10
604.38
 20
209.773004964
 30
0.0
 11
604.38
 21
-1.226995036
 31
0.0
  0
LINE
  5
E0
330
1F
100
AcDbEntity
  8
0
  6
Continuous
 62
     7
370
    25
100
AcDbLine
 10
609.38
 20
209.773004964
 30
0.0
 11
604.38
 21
209.773004964
 31
0.0
  0
LINE
  5
E1
330
1F
100
AcDbEntity
  8
0
  6
Continuous
 62
     7
370
    25
100
AcDbLine
 10
604.38
 20
214.273004964
 30
0.0
 11
609.38
 21
214.273004964
 31
0.0
  0
LINE
  5
E2
330
1F
100
AcDbEntity
  8
0
  6
Continuous
 62
     7
370
    25
100
AcDbLine
 10
626.38
 20
214.273004964
 30
0.0
 11
626.38
 21
209.773004964
 31
0.0
  0
LINE
  5
E3
330
1F
100
AcDbEntity
  8
0
  6
Continuous
 62
     7
370
    25
100
AcDbLine
 10
626.38
 20
209.773004964
 30
0.0
 11
621.38
 21
209.773004964
 31
0.0
  0
LINE
  5
E4
330
1F
100
AcDbEntity
  8
0
  6
Continuous
 62
     7
370
    25
100
AcDbLine
 10
621.38
 20
214.273004964
 30
0.0
 11
626.38
 21
214.273004964
 31
0.0
  0
LINE
  5
E5
330
1F
100
AcDbEntity
  8
0
  6
Continuous
 62
     7
370
    25
100
AcDbLine
 10
621.38
 20
209.773004964
 30
0.0
 11
609.38
 21
209.773004964
 31
0.0
  0
LINE
  5
E6
330
1F
100
AcDbEntity
  8
0
  6
Continuous
 62
     7
370
    25
100
AcDbLine
 10
621.38
 20
214.273004964
 30
0.0
 11
609.38
 21
214.273004964
 31
0.0
  0
LINE
  5
E7
330
1F
100
AcDbEntity
  8
0
  6
HIDDEN
 62
     7
370
    18
100
AcDbLine
 10
542.38
 20
-5.726995036
 30
0.0
 11
542.38
 21
-1.226995036
 31
0.0
  0
LINE
  5
E8
330
1F
100
AcDbEntity
  8
0
  6
HIDDEN
 62
     7
370
    18
100
AcDbLine
 10
550.38
 20
-5.726995036
 30
0.0
 11
550.38
 21
-1.226995036
 31
0.0
  0
LINE
  5
E9
330
1F
100
AcDbEntity
  8
0
  6
HIDDEN
 62
     7
370
    18
100
AcDbLine
 10
587.88
 20
209.773004964
 30
0.0
 11
587.88
 21
214.273004964
 31
0.0
  0
LINE
  5
EA
330
1F
100
AcDbEntity
  8
0
  6
HIDDEN
 62
     7
370
    18
100
AcDbLine
 10
590.88
 20
209.773004964
 30
0.0
 11
590.88
 21
214.273004964
 31
0.0
  0
LINE
  5
EB
330
1F
100
AcDbEntity
  8
0
  6
HIDDEN
 62
     7
370
    18
100
AcDbLine
 10
611.88
 20
209.773004964
 30
0.0
 11
611.88
 21
214.273004964
 31
0.0
  0
LINE
  5
EC
330
1F
100
AcDbEntity
  8
0
  6
HIDDEN
 62
     7
370
    18
100
AcDbLine
 10
620.88
 20
209.773004964
 30
0.0
 11
620.88
 21
214.273004964
 31
0.0
  0
LINE
  5
ED
330
1F
100
AcDbEntity
  8
0
  6
HIDDEN
 62
     7
370
    18
100
AcDbLine
 10
564.38
 20
179.273004964
 30
0.0
 11
568.88
 21
179.273004964
 31
0.0
  0
LINE
  5
EE
330
1F
100
AcDbEntity
  8
0
  6
HIDDEN
 62
     7
370
    18
100
AcDbLine
 10
568.88
 20
185.273004964
 30
0.0
 11
564.38
 21
185.273004964
 31
0.0
  0
LINE
  5
EF
330
1F
100
AcDbEntity
  8
0
  6
Continuous
 62
     7
370
    25
100
AcDbLine
 10
682.7891629285
 20
485.0210581746
 30
0.0
 11
682.7891629285
 21
488.6954918281
 31
0.0
  0
LINE
  5
F0
330
1F
100
AcDbEntity
  8
0
  6
Continuous
 62
     7
370
    25
100
AcDbLine
 10
624.8064068712
 20
536.4547692195
 30
0.0
 11
624.8064068712
 21
540.129202873
 31
0.0
  0
LINE
  5
F1
330
1F
100
AcDbEntity
  8
0
  6
Continuous
 62
     7
370
    25
100
AcDbLine
 10
682.7891629285
 20
309.0565132133
 30
0.0
 11
682.7891629285
 21
312.7309468667
 31
0.0
  0
LINE
  5
F2
330
1F
100
AcDbEntity
  8
0
  6
Continuous
 62
     7
370
    25
100
AcDbLine
 10
456.4144878854
 20
383.7584525953
 30
0.0
 11
456.4144878854
 21
380.0840189418
 31
0.0
  0
LINE
  5
F3
330
1F
100
AcDbEntity
  8
0
  6
Continuous
 62
     7
370
    25
100
AcDbLine
 10
656.5759594929
 20
468.6928959382
 30
0.0
 11
656.5759594929
 21
296.4027846303
 31
0.0
  0
ARC
  5
F4
330
1F
100
AcDbEntity
  8
0
  6
Continuous
 62
     7
370
    25
100
AcDbCircle
 10
663.484431949
 20
468.378522103
 30
0.0
 40
6.915621634074411
100
AcDbArc
 50
122.60547834
 51
177.3945215143
  0
LINE
  5
F5
330
1F
100
AcDbEntity
  8
0
  6
Continuous
 62
     7
370
    25
100
AcDbLine
 10
681.3246968344
 20
486.6544715486
 30
0.0
 11
659.7579400082
 21
474.2042478433
 31
0.0
  0
LINE
  5
F6
330
1F
100
AcDbEntity
  8
0
  6
Continuous
 62
     7
370
    25
100
AcDbLine
 10
659.7579400082
 20
470.5298141898
 30
0.0
 11
681.3246968344
 21
482.9800378951
 31
0.0
  0
LINE
  5
F7
330
1F
100
AcDbEntity
  8
0
  6
Continuous
 62
     7
370
    25
100
AcDbLine
 10
659.7579400082
 20
298.2397028819
 30
0.0
 11
659.7579400082
 21
470.5298141898
 31
0.0
  0
LINE
  5
F8
330
1F
100
AcDbEntity
  8
0
  6
Continuous
 62
     7
370
    25
100
AcDbLine
 10
681.3246968344
 20
310.6899265872
 30
0.0
 11
659.7579400082
 21
298.2397028819
 31
0.0
  0
LINE
  5
F9
330
1F
100
AcDbEntity
  8
0
  6
Continuous
 62
     7
370
    25
100
AcDbLine
 10
634.6556492761
 20
280.0740252435
 30
0.0
 11
681.3246968344
 21
307.0154929337
 31
0.0
  0
LINE
  5
FA
330
1F
100
AcDbEntity
  8
0
  6
Continuous
 62
     7
370
    25
100
AcDbLine
 10
656.5759594929
 20
296.4027846303
 30
0.0
 11
634.6556492761
 21
283.748458897
 31
0.0
  0
ARC
  5
FB
330
1F
100
AcDbEntity
  8
0
  6
Continuous
 62
     7
370
    25
100
AcDbCircle
 10
486.7077366524
 20
570.4295360808
 30
0.0
 40
6.915621634074664
100
AcDbArc
 50
122.60547834
 51
177.3945215143
  0
LINE
  5
FC
330
1F
100
AcDbEntity
  8
0
  6
Continuous
 62
     7
370
    25
100
AcDbLine
 10
479.7992641963
 20
570.743909916
 30
0.0
 11
479.7992641963
 21
398.4537986081
 31
0.0
  0
LINE
  5
FD
330
1F
100
AcDbEntity
  8
0
  6
Continuous
 62
     7
370
    25
100
AcDbLine
 10
479.7992641963
 20
398.4537986081
 30
0.0
 11
656.5759594929
 21
296.4027846303
 31
0.0
  0
LWPOLYLINE
  5
FE
330
1F
100
AcDbEntity
  8
0
  6
Continuous
 62
     7
370
    25
100
AcDbPolyline
 90
       12
 70
   128
 43
0.0
 10
498.8911472883
 20
537.2675280796
 10
498.9770756674
 20
536.5277842901
 10
499.2278993986
 20
535.7487593482
 10
499.6232982347
 20
534.9935652217
 10
500.1312393138
 20
534.3233832474
 10
500.7105722702
 20
533.7925075831
 10
501.3143629935
 20
533.4439466179
 10
501.89369595
 20
533.3059386882
 10
502.401637029
 20
533.3896643758
 10
502.7970358651
 20
533.6883407233
 10
503.0478595963
 20
534.1777707494
 10
503.1337879754
 20
534.8183037441
  0
LWPOLYLINE
  5
FF
330
1F
100
AcDbEntity
  8
0
  6
Continuous
 62
     7
370
    25
100
AcDbPolyline
 90
       12
 70
   128
 43
0.0
 10
503.1337879754
 20
534.8183037441
 10
503.0478595963
 20
535.5580475336
 10
502.7970358651
 20
536.3370724754
 10
502.401637029
 20
537.0922666019
 10
501.89369595
 20
537.7624485763
 10
501.3143629935
 20
538.2933242405
 10
500.7105722702
 20
538.6418852057
 10
500.1312393138
 20
538.7798931354
 10
499.6232982347
 20
538.6961674479
 10
499.2278993986
 20
538.3974911003
 10
498.9770756674
 20
537.9080610743
 10
498.8911472883
 20
537.2675280796
  0
LWPOLYLINE
  5
100
330
1F
100
AcDbEntity
  8
0
  6
Continuous
 62
     7
370
    25
100
AcDbPolyline
 90
       12
 70
   128
 43
0.0
 10
527.1754185358
 20
520.9393658431
 10
527.2613469149
 20
520.1996220536
 10
527.512170646
 20
519.4205971117
 10
527.9075694822
 20
518.6654029852
 10
528.4155105612
 20
517.9952210109
 10
528.9948435177
 20
517.4643453466
 10
529.5986342409
 20
517.1157843814
 10
530.1779671974
 20
516.9777764518
 10
530.6859082764
 20
517.0615021393
 10
531.0813071126
 20
517.3601784868
 10
531.3321308437
 20
517.8496085129
 10
531.4180592229
 20
518.4901415076
  0
LWPOLYLINE
  5
101
330
1F
100
AcDbEntity
  8
0
  6
Continuous
 62
     7
370
    25
100
AcDbPolyline
 90
       12
 70
   128
 43
0.0
 10
531.4180592229
 20
518.4901415076
 10
531.3321308437
 20
519.2298852971
 10
531.0813071126
 20
520.008910239
 10
530.6859082764
 20
520.7641043655
 10
530.1779671974
 20
521.4342863398
 10
529.5986342409
 20
521.9651620041
 10
528.9948435177
 20
522.3137229693
 10
528.4155105612
 20
522.451730899
 10
527.9075694822
 20
522.3680052114
 10
527.512170646
 20
522.0693288639
 10
527.2613469149
 20
521.5798988378
 10
527.1754185358
 20
520.9393658431
  0
LWPOLYLINE
  5
102
330
1F
100
AcDbEntity
  8
0
  6
Continuous
 62
     7
370
    25
100
AcDbPolyline
 90
       12
 70
   128
 43
0.0
 10
604.9571644663
 20
476.0369196929
 10
605.0430928454
 20
475.2971759034
 10
605.2939165765
 20
474.5181509615
 10
605.6893154127
 20
473.762956835
 10
606.1972564917
 20
473.0927748607
 10
606.7765894482
 20
472.5618991964
 10
607.3803801715
 20
472.2133382312
 10
607.9597131279
 20
472.0753303015
 10
608.467654207
 20
472.1590559891
 10
608.8630530431
 20
472.4577323366
 10
609.1138767743
 20
472.9471623627
 10
609.1998051534
 20
473.5876953574
  0
LWPOLYLINE
  5
103
330
1F
100
AcDbEntity
  8
0
  6
Continuous
 62
     7
370
    25
100
AcDbPolyline
 90
       12
 70
   128
 43
0.0
 10
609.1998051534
 20
473.5876953574
 10
609.1138767743
 20
474.3274391469
 10
608.8630530431
 20
475.1064640887
 10
608.467654207
 20
475.8616582152
 10
607.9597131279
 20
476.5318401895
 10
607.3803801715
 20
477.0627158538
 10
606.7765894482
 20
477.411276819
 10
606.1972564917
 20
477.5492847487
 10
605.6893154127
 20
477.4655590612
 10
605.2939165765
 20
477.1668827136
 10
605.0430928454
 20
476.6774526876
 10
604.9571644663
 20
476.0369196929
  0
LWPOLYLINE
  5
104
330
1F
100
AcDbEntity
  8
0
  6
Continuous
 62
     7
370
    25
100
AcDbPolyline
 90
       12
 70
   128
 43
0.0
 10
633.2414357137
 20
459.7087574564
 10
633.3273640929
 20
458.9690136669
 10
633.578187824
 20
458.189988725
 10
633.9735866602
 20
457.4347945985
 10
634.4815277392
 20
456.7646126242
 10
635.0608606957
 20
456.2337369599
 10
635.6646514189
 20
455.8851759947
 10
636.2439843754
 20
455.7471680651
 10
636.7519254544
 20
455.8308937526
 10
637.1473242906
 20
456.1295701001
 10
637.3981480217
 20
456.6190001262
 10
637.4840764009
 20
457.2595331209
  0
LWPOLYLINE
  5
105
330
1F
100
AcDbEntity
  8
0
  6
Continuous
 62
     7
370
    25
100
AcDbPolyline
 90
       12
 70
   128
 43
0.0
 10
637.4840764009
 20
457.2595331209
 10
637.3981480217
 20
457.9992769104
 10
637.1473242906
 20
458.7783018523
 10
636.7519254544
 20
459.5334959788
 10
636.2439843754
 20
460.2036779531
 10
635.6646514189
 20
460.7345536174
 10
635.0608606957
 20
461.0831145826
 10
634.4815277392
 20
461.2211225123
 10
633.9735866602
 20
461.1373968247
 10
633.578187824
 20
460.8387204772
 10
633.3273640929
 20
460.3492904511
 10
633.2414357137
 20
459.7087574564
  0
ARC
  5
106
330
1F
100
AcDbEntity
  8
0
  6
Continuous
 62
     7
370
    25
100
AcDbCircle
 10
581.6226406871
 20
557.1578596955
 30
0.0
 40
7.685109539558453
100
AcDbArc
 50
242.6096722366
 51
297.3903277634
  0
LINE
  5
107
330
1F
100
AcDbEntity
  8
0
  6
Continuous
 62
     7
370
    25
100
AcDbLine
 10
585.1581745931
 20
550.3343042707
 30
0.0
 11
593.6434559673
 21
555.2327529417
 31
0.0
  0
ARC
  5
108
330
1F
100
AcDbEntity
  8
0
  6
Continuous
 62
     7
370
    25
100
AcDbCircle
 10
597.1789898732
 20
548.4091975169
 30
0.0
 40
7.685109539558554
100
AcDbArc
 50
62.6096722366
 51
117.3903277634
  0
LINE
  5
109
330
1F
100
AcDbEntity
  8
0
  6
Continuous
 62
     7
370
    25
100
AcDbLine
 10
600.7145237792
 20
555.2327529417
 30
0.0
 11
623.3419407771
 21
542.1702231525
 31
0.0
  0
ARC
  5
10A
330
1F
100
AcDbEntity
  8
0
  6
Continuous
 62
     7
370
    25
100
AcDbCircle
 10
622.5673056431
 20
540.129202873
 30
0.0
 40
2.183076584171495
100
AcDbArc
 50
290.7834207995
 51
69.2165792005
  0
LINE
  5
10B
330
1F
100
AcDbEntity
  8
0
  6
Continuous
 62
     7
370
    25
100
AcDbLine
 10
623.3419407771
 20
538.0881825934
 30
0.0
 11
614.8566594029
 21
533.1897339225
 31
0.0
  0
ARC
  5
10C
330
1F
100
AcDbEntity
  8
0
  6
Continuous
 62
     7
370
    25
100
AcDbCircle
 10
615.6312945369
 20
531.1487136429
 30
0.0
 40
2.183076584171374
100
AcDbArc
 50
110.7834207995
 51
249.2165792005
  0
LINE
  5
10D
330
1F
100
AcDbEntity
  8
0
  6
Continuous
 62
     7
370
    25
100
AcDbLine
 10
614.8566594029
 20
529.1076933633
 30
0.0
 11
681.3246968344
 21
490.7365121077
 31
0.0
  0
ARC
  5
10E
330
1F
100
AcDbEntity
  8
0
  6
Continuous
 62
     7
370
    25
100
AcDbCircle
 10
680.5500617004
 20
488.6954918281
 30
0.0
 40
2.183076584171441
100
AcDbArc
 50
290.7834207995
 51
69.2165792005
  0
LINE
  5
10F
330
1F
100
AcDbEntity
  8
0
  6
Continuous
 62
     7
370
    25
100
AcDbLine
 10
504.5480015378
 20
588.7054855264
 30
0.0
 11
482.9812447116
 21
576.2552618211
 31
0.0
  0
ARC
  5
110
330
1F
100
AcDbEntity
  8
0
  6
Continuous
 62
     7
370
    25
100
AcDbCircle
 10
508.0835354437
 20
581.8819301016
 30
0.0
 40
7.685109539559059
100
AcDbArc
 50
62.6096722366
 51
117.3903277634
  0
LINE
  5
111
330
1F
100
AcDbEntity
  8
0
  6
Continuous
 62
     7
370
    25
100
AcDbLine
 10
511.6190693497
 20
588.7054855264
 30
0.0
 11
578.0871067812
 21
550.3343042707
 31
0.0
  0
LWPOLYLINE
  5
112
330
1F
100
AcDbEntity
  8
0
  6
Continuous
 62
     7
370
    25
100
AcDbPolyline
 90
       14
 70
   128
 43
0.0
 10
608.1391449816
 20
546.4563657396
 10
607.2851846301
 20
546.8425915453
 10
606.2959282086
 20
547.0996162992
 10
605.2288677047
 20
547.2125026568
 10
604.1460167961
 20
547.1746900734
 10
603.1103068417
 20
546.9883760788
 10
602.1819295394
 20
546.6643885653
 10
601.4148388035
 20
546.2215565094
 10
600.8536151593
 20
545.6856157006
 10
600.530874885
 20
545.0877130706
 10
600.4653744723
 20
544.4625965471
 10
600.660920567
 20
543.8465956301
 10
601.1061487409
 20
543.2755100539
 10
601.7751839509
 20
542.7825292364
  0
LWPOLYLINE
  5
113
330
1F
100
AcDbEntity
  8
0
  6
Continuous
 62
     7
370
    25
100
AcDbPolyline
 90
       14
 70
   128
 43
0.0
 10
601.7751839509
 20
542.7825292364
 10
602.6291443025
 20
542.3963034307
 10
603.6184007239
 20
542.1392786768
 10
604.6854612279
 20
542.0263923192
 10
605.7683121364
 20
542.0642049026
 10
606.8040220908
 20
542.2505188971
 10
607.7323993931
 20
542.5745064107
 10
608.499490129
 20
543.0173384666
 10
609.0607137732
 20
543.5532792754
 10
609.3834540475
 20
544.1511819053
 10
609.4489544603
 20
544.7762984288
 10
609.2534083656
 20
545.3922993458
 10
608.8081801916
 20
545.963384922
 10
608.1391449816
 20
546.4563657396
  0
LWPOLYLINE
  5
114
330
1F
100
AcDbEntity
  8
0
  6
Continuous
 62
     7
370
    25
100
AcDbPolyline
 90
        9
 70
   128
 43
0.0
 10
516.2152634274
 20
575.0306496534
 10
515.7286284041
 20
575.2183600219
 10
515.1546032556
 20
575.2842751376
 10
514.580578107
 20
575.2183600219
 10
514.0939430838
 20
575.0306496534
 10
513.7687839568
 20
574.7497212342
 10
513.6546032556
 20
574.4183435695
 10
513.7687839568
 20
574.0869659048
 10
514.0939430838
 20
573.8060374856
  0
LWPOLYLINE
  5
115
330
1F
100
AcDbEntity
  8
0
  6
Continuous
 62
     7
370
    25
100
AcDbPolyline
 90
        9
 70
   128
 43
0.0
 10
514.0939430838
 20
573.8060374856
 10
514.580578107
 20
573.6183271172
 10
515.1546032556
 20
573.5524120014
 10
515.7286284041
 20
573.6183271172
 10
516.2152634274
 20
573.8060374856
 10
516.5404225544
 20
574.0869659048
 10
516.6546032556
 20
574.4183435695
 10
516.5404225544
 20
574.7497212342
 10
516.2152634274
 20
575.0306496534
  0
LWPOLYLINE
  5
116
330
1F
100
AcDbEntity
  8
0
  6
Continuous
 62
     7
370
    25
100
AcDbPolyline
 90
        9
 70
   128
 43
0.0
 10
586.925941546
 20
534.2102440622
 10
586.4393065228
 20
534.3979544307
 10
585.8652813742
 20
534.4638695465
 10
585.2912562257
 20
534.3979544307
 10
584.8046212025
 20
534.2102440622
 10
584.4794620755
 20
533.9293156431
 10
584.3652813742
 20
533.5979379784
 10
584.4794620755
 20
533.2665603137
 10
584.8046212025
 20
532.9856318945
  0
LWPOLYLINE
  5
117
330
1F
100
AcDbEntity
  8
0
  6
Continuous
 62
     7
370
    25
100
AcDbPolyline
 90
        9
 70
   128
 43
0.0
 10
584.8046212025
 20
532.9856318945
 10
585.2912562257
 20
532.797921526
 10
585.8652813742
 20
532.7320064102
 10
586.4393065228
 20
532.797921526
 10
586.925941546
 20
532.9856318945
 10
587.251100673
 20
533.2665603137
 10
587.3652813742
 20
533.5979379784
 10
587.251100673
 20
533.9293156431
 10
586.925941546
 20
534.2102440622
  0
LWPOLYLINE
  5
118
330
1F
100
AcDbEntity
  8
0
  6
Continuous
 62
     7
370
    25
100
AcDbPolyline
 90
        9
 70
   128
 43
0.0
 10
657.6366196647
 20
493.3898384711
 10
657.1499846414
 20
493.5775488396
 10
656.5759594929
 20
493.6434639554
 10
656.0019343443
 20
493.5775488396
 10
655.5152993211
 20
493.3898384711
 10
655.1901401941
 20
493.1089100519
 10
655.0759594929
 20
492.7775323872
 10
655.1901401941
 20
492.4461547225
 10
655.5152993211
 20
492.1652263034
  0
LWPOLYLINE
  5
119
330
1F
100
AcDbEntity
  8
0
  6
Continuous
 62
     7
370
    25
100
AcDbPolyline
 90
        9
 70
   128
 43
0.0
 10
655.5152993211
 20
492.1652263034
 10
656.0019343443
 20
491.9775159349
 10
656.5759594929
 20
491.9116008191
 10
657.1499846414
 20
491.9775159349
 10
657.6366196647
 20
492.1652263034
 10
657.9617787917
 20
492.4461547225
 10
658.0759594929
 20
492.7775323872
 10
657.9617787917
 20
493.1089100519
 10
657.6366196647
 20
493.3898384711
  0
LINE
  5
11A
330
1F
100
AcDbEntity
  8
0
  6
Continuous
 62
     7
370
    25
100
AcDbLine
 10
677.7891629285
 20
316.8129874259
 30
0.0
 11
659.7579400082
 21
306.4037840001
 31
0.0
  0
LINE
  5
11B
330
1F
100
AcDbEntity
  8
0
  6
Continuous
 62
     7
370
    25
100
AcDbLine
 10
677.7891629285
 20
480.9390176155
 30
0.0
 11
677.7891629285
 21
316.8129874259
 31
0.0
  0
ARC
  5
11C
330
1F
100
AcDbEntity
  8
0
  6
Continuous
 62
     7
370
    25
100
AcDbCircle
 10
680.286877616
 20
485.2705900591
 30
0.0
 40
2.514696392469138
100
AcDbArc
 50
294.3746582936
 51
354.3052007488
  0
LINE
  5
11D
330
1F
100
AcDbEntity
  8
0
  6
Continuous
 62
     7
370
    25
100
AcDbLine
 10
614.8566594029
 20
529.515300269
 30
0.0
 11
614.5358079196
 21
529.3114968162
 31
0.0
  0
LINE
  5
11E
330
1F
100
AcDbEntity
  8
0
  6
Continuous
 62
     7
370
    25
100
AcDbLine
 10
623.3419407771
 20
534.4137489399
 30
0.0
 11
614.8566594029
 21
529.515300269
 31
0.0
  0
ARC
  5
11F
330
1F
100
AcDbEntity
  8
0
  6
Continuous
 62
     7
370
    25
100
AcDbCircle
 10
622.3041215587
 20
536.704301104
 30
0.0
 40
2.51469639246925
100
AcDbArc
 50
294.3746582936
 51
354.3052007488
  0
ARC
  5
120
330
1F
100
AcDbEntity
  8
0
  6
Continuous
 62
     7
370
    25
100
AcDbCircle
 10
604.9571399149
 20
536.7464291122
 30
0.0
 40
6.822935760548044
100
AcDbArc
 50
62.2011488635
 51
117.793474458
  0
ARC
  5
121
330
1F
100
AcDbEntity
  8
0
  6
Continuous
 62
     7
370
    25
100
AcDbCircle
 10
631.1201153702
 20
286.8975806683
 30
0.0
 40
7.685109539558556
100
AcDbArc
 50
242.6096722366
 51
297.3903277634
  0
ARC
  5
122
330
1F
100
AcDbEntity
  8
0
  6
Continuous
 62
     7
370
    25
100
AcDbCircle
 10
631.1201153702
 20
290.5720143218
 30
0.0
 40
7.685109539558354
100
AcDbArc
 50
242.6096722366
 51
297.3903277634
  0
ARC
  5
123
330
1F
100
AcDbEntity
  8
0
  6
Continuous
 62
     7
370
    25
100
AcDbCircle
 10
458.6535891135
 20
383.7584525953
 30
0.0
 40
2.183076584171474
100
AcDbArc
 50
110.7834207995
 51
249.2165792005
  0
LINE
  5
124
330
1F
100
AcDbEntity
  8
0
  6
Continuous
 62
     7
370
    25
100
AcDbLine
 10
479.7992641963
 20
398.4537986081
 30
0.0
 11
457.8789539795
 21
385.7994728749
 31
0.0
  0
LINE
  5
125
330
1F
100
AcDbEntity
  8
0
  6
Continuous
 62
     7
370
    25
100
AcDbLine
 10
457.8789539795
 20
381.7174323158
 30
0.0
 11
627.5845814642
 21
283.748458897
 31
0.0
  0
LWPOLYLINE
  5
126
330
1F
100
AcDbEntity
  8
0
  6
Continuous
 62
     7
370
    25
100
AcDbPolyline
 90
       13
 70
   128
 43
0.0
 10
480.5063709774
 20
386.6158809867
 10
481.1420454678
 20
386.1376401872
 10
481.5416471579
 20
385.5807169806
 10
481.6779438527
 20
384.9830647631
 10
481.5416471579
 20
384.3854125455
 10
481.1420454678
 20
383.8284893389
 10
480.5063709774
 20
383.3502485394
 10
479.6779438527
 20
382.9832814672
 10
478.7132200331
 20
382.7525963218
 10
477.6779438527
 20
382.6739139147
 10
476.6426676723
 20
382.7525963218
 10
475.6779438527
 20
382.9832814672
 10
474.849516728
 20
383.3502485394
  0
LWPOLYLINE
  5
127
330
1F
100
AcDbEntity
  8
0
  6
Continuous
 62
     7
370
    25
100
AcDbPolyline
 90
       13
 70
   128
 43
0.0
 10
474.849516728
 20
383.3502485394
 10
474.2138422376
 20
383.8284893389
 10
473.8142405475
 20
384.3854125455
 10
473.6779438527
 20
384.9830647631
 10
473.8142405475
 20
385.5807169806
 10
474.2138422376
 20
386.1376401872
 10
474.849516728
 20
386.6158809867
 10
475.6779438527
 20
386.9828480589
 10
476.6426676723
 20
387.2135332043
 10
477.6779438527
 20
387.2922156114
 10
478.7132200331
 20
387.2135332043
 10
479.6779438527
 20
386.9828480589
 10
480.5063709774
 20
386.6158809867
  0
LWPOLYLINE
  5
128
330
1F
100
AcDbEntity
  8
0
  6
Continuous
 62
     7
370
    25
100
AcDbPolyline
 90
       13
 70
   128
 43
0.0
 10
558.288116908
 20
341.7134348364
 10
558.9237913984
 20
341.235194037
 10
559.3233930884
 20
340.6782708304
 10
559.4596897832
 20
340.0806186128
 10
559.3233930884
 20
339.4829663952
 10
558.9237913984
 20
338.9260431886
 10
558.288116908
 20
338.4478023892
 10
557.4596897832
 20
338.080835317
 10
556.4949659636
 20
337.8501501716
 10
555.4596897832
 20
337.7714677645
 10
554.4244136028
 20
337.8501501716
 10
553.4596897832
 20
338.080835317
 10
552.6312626585
 20
338.4478023892
  0
LWPOLYLINE
  5
129
330
1F
100
AcDbEntity
  8
0
  6
Continuous
 62
     7
370
    25
100
AcDbPolyline
 90
       13
 70
   128
 43
0.0
 10
552.6312626585
 20
338.4478023892
 10
551.9955881681
 20
338.9260431886
 10
551.5959864781
 20
339.4829663952
 10
551.4596897832
 20
340.0806186128
 10
551.5959864781
 20
340.6782708304
 10
551.9955881681
 20
341.235194037
 10
552.6312626585
 20
341.7134348364
 10
553.4596897832
 20
342.0804019086
 10
554.4244136028
 20
342.311087054
 10
555.4596897832
 20
342.3897694611
 10
556.4949659636
 20
342.311087054
 10
557.4596897832
 20
342.0804019086
 10
558.288116908
 20
341.7134348364
  0
LWPOLYLINE
  5
12A
330
1F
100
AcDbEntity
  8
0
  6
Continuous
 62
     7
370
    25
100
AcDbPolyline
 90
       13
 70
   128
 43
0.0
 10
636.0698628385
 20
296.8109886862
 10
636.7055373289
 20
296.3327478867
 10
637.1051390189
 20
295.7758246801
 10
637.2414357137
 20
295.1781724626
 10
637.1051390189
 20
294.580520245
 10
636.7055373289
 20
294.0235970384
 10
636.0698628385
 20
293.5453562389
 10
635.2414357137
 20
293.1783891667
 10
634.2767118941
 20
292.9477040213
 10
633.2414357137
 20
292.8690216142
 10
632.2061595333
 20
292.9477040213
 10
631.2414357137
 20
293.1783891667
 10
630.413008589
 20
293.5453562389
  0
LWPOLYLINE
  5
12B
330
1F
100
AcDbEntity
  8
0
  6
Continuous
 62
     7
370
    25
100
AcDbPolyline
 90
       13
 70
   128
 43
0.0
 10
630.413008589
 20
293.5453562389
 10
629.7773340986
 20
294.0235970384
 10
629.3777324086
 20
294.580520245
 10
629.2414357137
 20
295.1781724626
 10
629.3777324086
 20
295.7758246801
 10
629.7773340986
 20
296.3327478867
 10
630.413008589
 20
296.8109886862
 10
631.2414357137
 20
297.1779557584
 10
632.2061595333
 20
297.4086409038
 10
633.2414357137
 20
297.4873233109
 10
634.2767118941
 20
297.4086409038
 10
635.2414357137
 20
297.1779557584
 10
636.0698628385
 20
296.8109886862
  0
LINE
  5
12C
330
1F
100
AcDbEntity
  8
0
  6
Continuous
 62
     7
370
    25
100
AcDbLine
 10
457.8789539795
 20
378.0429986623
 30
0.0
 11
627.5845814642
 21
280.0740252435
 31
0.0
  0
ARC
  5
12D
330
1F
100
AcDbEntity
  8
0
  6
Continuous
 62
     7
370
    25
100
AcDbCircle
 10
633.2414357137
 20
287.5623351993
 30
0.0
 40
6.266112225261912
100
AcDbArc
 50
67.2501336832
 51
112.7498663168
  0
ARC
  5
12E
330
1F
100
AcDbEntity
  8
0
  6
Continuous
 62
     7
370
    25
100
AcDbCircle
 10
680.5500617004
 20
312.7309468667
 30
0.0
 40
2.183076584171441
100
AcDbArc
 50
290.7834207995
 51
69.2165792005
  0
LINE
  5
12F
330
1F
100
AcDbEntity
  8
0
  6
Continuous
 62
     7
370
    25
100
AcDbLine
 10
677.7891629285
 20
316.8129874259
 30
0.0
 11
681.3246968344
 21
314.7719671463
 31
0.0
  0
ARC
  5
130
330
1F
100
AcDbEntity
  8
0
  6
Continuous
 62
     7
370
    25
100
AcDbCircle
 10
680.286877616
 20
309.3060450978
 30
0.0
 40
2.514696392469133
100
AcDbArc
 50
294.3746582936
 51
354.3052007488
  0
ARC
  5
131
330
1F
100
AcDbEntity
  8
0
  6
Continuous
 62
     7
370
    25
100
AcDbCircle
 10
555.4596897832
 20
332.4647813496
 30
0.0
 40
6.266112225261799
100
AcDbArc
 50
67.2501336832
 51
112.7498663168
  0
ARC
  5
132
330
1F
100
AcDbEntity
  8
0
  6
Continuous
 62
     7
370
    25
100
AcDbCircle
 10
458.9167731979
 20
380.3335508263
 30
0.0
 40
2.514696392469076
100
AcDbArc
 50
185.6947992512
 51
245.6253417064
  0
ARC
  5
133
330
1F
100
AcDbEntity
  8
0
  6
Continuous
 62
     7
370
    25
100
AcDbCircle
 10
477.6779438527
 20
377.3672274998
 30
0.0
 40
6.266112225261034
100
AcDbArc
 50
67.2501336832
 51
112.7498663168
  0
LINE
  5
134
330
1F
100
AcDbEntity
  8
0
  6
HIDDEN
 62
     7
370
    18
100
AcDbLine
 10
652.6868721964
 20
474.6118547489
 30
0.0
 11
659.7579400082
 21
470.5298141898
 31
0.0
  0
LINE
  5
135
330
1F
100
AcDbEntity
  8
0
  6
HIDDEN
 62
     7
370
    18
100
AcDbLine
 10
659.7579400082
 20
306.4037840001
 30
0.0
 11
652.6868721964
 21
302.321743441
 31
0.0
  0
LINE
  5
136
330
1F
100
AcDbEntity
  8
0
  6
HIDDEN
 62
     7
370
    18
100
AcDbLine
 10
677.7891629285
 20
489.1030987337
 30
0.0
 11
677.7891629285
 21
480.9390176155
 31
0.0
  0
LINE
  5
137
330
1F
100
AcDbEntity
  8
0
  6
HIDDEN
 62
     7
370
    18
100
AcDbLine
 10
677.7891629285
 20
489.1030987337
 30
0.0
 11
652.6868721964
 21
474.6118547489
 31
0.0
  0
LINE
  5
138
330
1F
100
AcDbEntity
  8
0
  6
HIDDEN
 62
     7
370
    18
100
AcDbLine
 10
652.6868721964
 20
474.6118547489
 30
0.0
 11
652.6868721964
 21
302.321743441
 31
0.0
  0
LINE
  5
139
330
1F
100
AcDbEntity
  8
0
  6
HIDDEN
 62
     7
370
    18
100
AcDbLine
 10
596.1183297014
 20
507.2681792218
 30
0.0
 11
651.0605265996
 21
475.5507240775
 31
0.0
  0
LINE
  5
13A
330
1F
100
AcDbEntity
  8
0
  6
HIDDEN
 62
     7
370
    18
100
AcDbLine
 10
651.0605265996
 20
303.2606127696
 30
0.0
 11
651.0605265996
 21
475.5507240775
 31
0.0
  0
LINE
  5
13B
330
1F
100
AcDbEntity
  8
0
  6
HIDDEN
 62
     7
370
    18
100
AcDbLine
 10
676.1628173318
 20
490.0419680623
 30
0.0
 11
651.0605265996
 21
475.5507240775
 31
0.0
  0
ARC
  5
13C
330
1F
100
AcDbEntity
  8
0
  6
HIDDEN
 62
     7
370
    18
100
AcDbCircle
 10
680.286877616
 20
484.7715262901
 30
0.0
 40
2.514696392469263
100
AcDbArc
 50
5.6947992512
 51
65.6253417064
  0
LINE
  5
13D
330
1F
100
AcDbEntity
  8
0
  6
HIDDEN
 62
     7
370
    18
100
AcDbLine
 10
676.1628173318
 20
317.7518567545
 30
0.0
 11
676.1628173318
 21
490.0419680623
 31
0.0
  0
LINE
  5
13E
330
1F
100
AcDbEntity
  8
0
  6
HIDDEN
 62
     7
370
    18
100
AcDbLine
 10
621.2206204336
 20
521.7594232067
 30
0.0
 11
676.1628173318
 21
490.0419680623
 31
0.0
  0
LINE
  5
13F
330
1F
100
AcDbEntity
  8
0
  6
HIDDEN
 62
     7
370
    18
100
AcDbLine
 10
677.7891629285
 20
489.1030987337
 30
0.0
 11
681.3246968344
 21
487.0620784542
 31
0.0
  0
LWPOLYLINE
  5
140
330
1F
100
AcDbEntity
  8
0
  6
HIDDEN
 62
     7
370
    18
100
AcDbPolyline
 90
        9
 70
   128
 43
0.0
 10
655.5152993211
 20
488.4907926499
 10
656.0019343443
 20
488.3030822814
 10
656.5759594929
 20
488.2371671656
 10
657.1499846414
 20
488.3030822814
 10
657.6366196647
 20
488.4907926499
 10
657.9617787917
 20
488.7717210691
 10
658.0759594929
 20
489.1030987337
 10
657.9617787917
 20
489.4344763984
 10
657.6366196647
 20
489.7154048176
  0
LWPOLYLINE
  5
141
330
1F
100
AcDbEntity
  8
0
  6
HIDDEN
 62
     7
370
    18
100
AcDbPolyline
 90
        9
 70
   128
 43
0.0
 10
657.6366196647
 20
489.7154048176
 10
657.1499846414
 20
489.9031151861
 10
656.5759594929
 20
489.9690303019
 10
656.0019343443
 20
489.9031151861
 10
655.5152993211
 20
489.7154048176
 10
655.1901401941
 20
489.4344763984
 10
655.0759594929
 20
489.1030987337
 10
655.1901401941
 20
488.7717210691
 10
655.5152993211
 20
488.4907926499
  0
LWPOLYLINE
  5
142
330
1F
100
AcDbEntity
  8
0
  6
HIDDEN
 62
     7
370
    18
100
AcDbPolyline
 90
       12
 70
   128
 43
0.0
 10
640.6660569162
 20
459.0964513725
 10
640.5801285371
 20
459.836195162
 10
640.3293048059
 20
460.6152201039
 10
639.9339059698
 20
461.3704142304
 10
639.4259648907
 20
462.0405962047
 10
638.8466319343
 20
462.571471869
 10
638.242841211
 20
462.9200328342
 10
637.6635082545
 20
463.0580407639
 10
637.1555671755
 20
462.9743150763
 10
636.7601683394
 20
462.6756387288
 10
636.5093446082
 20
462.1862087027
 10
636.4234162291
 20
461.545675708
  0
LWPOLYLINE
  5
143
330
1F
100
AcDbEntity
  8
0
  6
HIDDEN
 62
     7
370
    18
100
AcDbPolyline
 90
       12
 70
   128
 43
0.0
 10
636.4234162291
 20
461.545675708
 10
636.5093446082
 20
460.8059319185
 10
636.7601683394
 20
460.0269069766
 10
637.1555671755
 20
459.2717128501
 10
637.6635082545
 20
458.6015308758
 10
638.242841211
 20
458.0706552115
 10
638.8466319343
 20
457.7220942463
 10
639.4259648907
 20
457.5840863167
 10
639.9339059698
 20
457.6678120042
 10
640.3293048059
 20
457.9664883517
 10
640.5801285371
 20
458.4559183778
 10
640.6660569162
 20
459.0964513725
  0
LWPOLYLINE
  5
144
330
1F
100
AcDbEntity
  8
0
  6
HIDDEN
 62
     7
370
    18
100
AcDbPolyline
 90
       12
 70
   128
 43
0.0
 10
612.3817856687
 20
475.424613609
 10
612.2958572896
 20
476.1643573985
 10
612.0450335585
 20
476.9433823403
 10
611.6496347223
 20
477.6985764668
 10
611.1416936433
 20
478.3687584411
 10
610.5623606868
 20
478.8996341054
 10
609.9585699636
 20
479.2481950706
 10
609.3792370071
 20
479.3862030003
 10
608.8712959281
 20
479.3024773128
 10
608.4758970919
 20
479.0038009652
 10
608.2250733607
 20
478.5143709392
 10
608.1391449816
 20
477.8738379445
  0
LWPOLYLINE
  5
145
330
1F
100
AcDbEntity
  8
0
  6
HIDDEN
 62
     7
370
    18
100
AcDbPolyline
 90
       12
 70
   128
 43
0.0
 10
608.1391449816
 20
477.8738379445
 10
608.2250733607
 20
477.134094155
 10
608.4758970919
 20
476.3550692131
 10
608.8712959281
 20
475.5998750866
 10
609.3792370071
 20
474.9296931123
 10
609.9585699636
 20
474.398817448
 10
610.5623606868
 20
474.0502564828
 10
611.1416936433
 20
473.9122485531
 10
611.6496347223
 20
473.9959742407
 10
612.0450335585
 20
474.2946505882
 10
612.2958572896
 20
474.7840806143
 10
612.3817856687
 20
475.424613609
  0
LINE
  5
146
330
1F
100
AcDbEntity
  8
0
  6
HIDDEN
 62
     7
370
    18
100
AcDbLine
 10
621.2206204336
 20
349.4693118988
 30
0.0
 11
596.1183297014
 21
334.9780679139
 31
0.0
  0
LINE
  5
147
330
1F
100
AcDbEntity
  8
0
  6
HIDDEN
 62
     7
370
    18
100
AcDbLine
 10
621.2206204336
 20
521.7594232067
 30
0.0
 11
621.2206204336
 21
349.4693118988
 31
0.0
  0
LINE
  5
148
330
1F
100
AcDbEntity
  8
0
  6
HIDDEN
 62
     7
370
    18
100
AcDbLine
 10
596.1183297014
 20
507.2681792218
 30
0.0
 11
596.1183297014
 21
334.9780679139
 31
0.0
  0
LINE
  5
149
330
1F
100
AcDbEntity
  8
0
  6
HIDDEN
 62
     7
370
    18
100
AcDbLine
 10
621.2206204336
 20
521.7594232067
 30
0.0
 11
596.1183297014
 21
507.2681792218
 31
0.0
  0
LINE
  5
14A
330
1F
100
AcDbEntity
  8
0
  6
HIDDEN
 62
     7
370
    18
100
AcDbLine
 10
619.5942748368
 20
350.4081812274
 30
0.0
 11
619.5942748368
 21
522.6982925353
 31
0.0
  0
LINE
  5
14B
330
1F
100
AcDbEntity
  8
0
  6
HIDDEN
 62
     7
370
    18
100
AcDbLine
 10
594.4919841047
 20
335.9169372425
 30
0.0
 11
594.4919841047
 21
508.2070485504
 31
0.0
  0
LINE
  5
14C
330
1F
100
AcDbEntity
  8
0
  6
HIDDEN
 62
     7
370
    18
100
AcDbLine
 10
548.2472006151
 20
534.903593807
 30
0.0
 11
594.4919841047
 21
508.2070485504
 31
0.0
  0
LINE
  5
14D
330
1F
100
AcDbEntity
  8
0
  6
HIDDEN
 62
     7
370
    18
100
AcDbLine
 10
619.5942748368
 20
522.6982925353
 30
0.0
 11
594.4919841047
 21
508.2070485504
 31
0.0
  0
LINE
  5
14E
330
1F
100
AcDbEntity
  8
0
  6
HIDDEN
 62
     7
370
    18
100
AcDbLine
 10
614.8566594029
 20
525.4332597099
 30
0.0
 11
619.5942748368
 21
522.6982925353
 31
0.0
  0
LINE
  5
14F
330
1F
100
AcDbEntity
  8
0
  6
HIDDEN
 62
     7
370
    18
100
AcDbLine
 10
573.3494913472
 20
549.3948377919
 30
0.0
 11
578.0871067812
 21
546.6598706172
 31
0.0
  0
LWPOLYLINE
  5
150
330
1F
100
AcDbEntity
  8
0
  6
HIDDEN
 62
     7
370
    18
100
AcDbPolyline
 90
        9
 70
   128
 43
0.0
 10
614.5358079196
 20
529.3114968162
 10
614.2348452473
 20
529.077899333
 10
613.7727956463
 20
528.578872205
 10
613.4882669068
 20
528.0373962176
 10
613.3921933088
 20
527.4742799894
 10
613.4882669068
 20
526.9111637612
 10
613.7727956463
 20
526.3696877738
 10
614.2348452473
 20
525.8706606458
 10
614.8566594029
 20
525.4332597099
  0
LWPOLYLINE
  5
151
330
1F
100
AcDbEntity
  8
0
  6
HIDDEN
 62
     7
370
    18
100
AcDbPolyline
 90
        9
 70
   128
 43
0.0
 10
584.8046212025
 20
529.311198241
 10
585.2912562257
 20
529.1234878725
 10
585.8652813742
 20
529.0575727568
 10
586.4393065228
 20
529.1234878725
 10
586.925941546
 20
529.311198241
 10
587.251100673
 20
529.5921266602
 10
587.3652813742
 20
529.9235043249
 10
587.251100673
 20
530.2548819896
 10
586.925941546
 20
530.5358104087
  0
LWPOLYLINE
  5
152
330
1F
100
AcDbEntity
  8
0
  6
HIDDEN
 62
     7
370
    18
100
AcDbPolyline
 90
        9
 70
   128
 43
0.0
 10
586.925941546
 20
530.5358104087
 10
586.4393065228
 20
530.7235207772
 10
585.8652813742
 20
530.789435893
 10
585.2912562257
 20
530.7235207772
 10
584.8046212025
 20
530.5358104087
 10
584.4794620755
 20
530.2548819896
 10
584.3652813742
 20
529.9235043249
 10
584.4794620755
 20
529.5921266602
 10
584.8046212025
 20
529.311198241
  0
ARC
  5
153
330
1F
100
AcDbEntity
  8
0
  6
HIDDEN
 62
     7
370
    18
100
AcDbCircle
 10
622.3041215587
 20
536.205237335
 30
0.0
 40
2.514696392469614
100
AcDbArc
 50
5.6947992512
 51
65.6253417064
  0
LINE
  5
154
330
1F
100
AcDbEntity
  8
0
  6
HIDDEN
 62
     7
370
    18
100
AcDbLine
 10
573.3494913472
 20
377.104726484
 30
0.0
 11
548.2472006151
 21
362.6134824991
 31
0.0
  0
LINE
  5
155
330
1F
100
AcDbEntity
  8
0
  6
HIDDEN
 62
     7
370
    18
100
AcDbLine
 10
573.3494913472
 20
549.3948377919
 30
0.0
 11
548.2472006151
 21
534.903593807
 31
0.0
  0
LINE
  5
156
330
1F
100
AcDbEntity
  8
0
  6
HIDDEN
 62
     7
370
    18
100
AcDbLine
 10
548.2472006151
 20
534.903593807
 30
0.0
 11
548.2472006151
 21
362.6134824991
 31
0.0
  0
LINE
  5
157
330
1F
100
AcDbEntity
  8
0
  6
HIDDEN
 62
     7
370
    18
100
AcDbLine
 10
573.3494913472
 20
549.3948377919
 30
0.0
 11
573.3494913472
 21
377.104726484
 31
0.0
  0
LWPOLYLINE
  5
158
330
1F
100
AcDbEntity
  8
0
  6
HIDDEN
 62
     7
370
    18
100
AcDbPolyline
 90
       14
 70
   128
 43
0.0
 10
601.7751839509
 20
539.1080955829
 10
602.6291443025
 20
538.7218697772
 10
603.6184007239
 20
538.4648450233
 10
604.6854612279
 20
538.3519586657
 10
605.7683121364
 20
538.3897712491
 10
606.8040220908
 20
538.5760852436
 10
607.7323993931
 20
538.9000727572
 10
608.499490129
 20
539.3429048131
 10
609.0607137732
 20
539.8788456219
 10
609.3834540475
 20
540.4767482518
 10
609.4489544603
 20
541.1018647754
 10
609.2534083656
 20
541.7178656923
 10
608.8081801916
 20
542.2889512685
 10
608.1391449816
 20
542.7819320861
  0
LINE
  5
159
330
1F
100
AcDbEntity
  8
0
  6
HIDDEN
 62
     7
370
    18
100
AcDbLine
 10
491.6786581202
 20
567.5599182799
 30
0.0
 11
546.6208550184
 21
535.8424631356
 31
0.0
  0
LINE
  5
15A
330
1F
100
AcDbEntity
  8
0
  6
HIDDEN
 62
     7
370
    18
100
AcDbLine
 10
516.7809488523
 20
582.0511622648
 30
0.0
 11
571.7231457505
 21
550.3337071205
 31
0.0
  0
LINE
  5
15B
330
1F
100
AcDbEntity
  8
0
  6
HIDDEN
 62
     7
370
    18
100
AcDbLine
 10
571.7231457505
 20
550.3337071205
 30
0.0
 11
546.6208550184
 21
535.8424631356
 31
0.0
  0
LINE
  5
15C
330
1F
100
AcDbEntity
  8
0
  6
HIDDEN
 62
     7
370
    18
100
AcDbLine
 10
546.6208550184
 20
363.5523518277
 30
0.0
 11
546.6208550184
 21
535.8424631356
 31
0.0
  0
LINE
  5
15D
330
1F
100
AcDbEntity
  8
0
  6
HIDDEN
 62
     7
370
    18
100
AcDbLine
 10
571.7231457505
 20
378.0435958126
 30
0.0
 11
571.7231457505
 21
550.3337071205
 31
0.0
  0
LINE
  5
15E
330
1F
100
AcDbEntity
  8
0
  6
HIDDEN
 62
     7
370
    18
100
AcDbLine
 10
600.7145237792
 20
551.5583192882
 30
0.0
 11
623.3419407771
 21
538.495789499
 31
0.0
  0
LWPOLYLINE
  5
15F
330
1F
100
AcDbEntity
  8
0
  6
HIDDEN
 62
     7
370
    18
100
AcDbPolyline
 90
        8
 70
   128
 43
0.0
 10
601.7757012384
 20
542.7822306612
 10
601.4148388035
 20
542.5471228559
 10
600.8536151593
 20
542.0111820471
 10
600.530874885
 20
541.4132794172
 10
600.4653744723
 20
540.7881628936
 10
600.660920567
 20
540.1721619766
 10
601.1061487409
 20
539.6010764004
 10
601.7751839509
 20
539.1080955829
  0
LINE
  5
160
330
1F
100
AcDbEntity
  8
0
  6
HIDDEN
 62
     7
370
    18
100
AcDbLine
 10
511.6190693497
 20
409.0665069115
 30
0.0
 11
681.3246968344
 21
311.0975334928
 31
0.0
  0
ARC
  5
161
330
1F
100
AcDbEntity
  8
0
  6
HIDDEN
 62
     7
370
    18
100
AcDbCircle
 10
581.6226406871
 20
553.483426042
 30
0.0
 40
7.68510953955815
100
AcDbArc
 50
242.6096722366
 51
297.3903277634
  0
LINE
  5
162
330
1F
100
AcDbEntity
  8
0
  6
HIDDEN
 62
     7
370
    18
100
AcDbLine
 10
585.1581745931
 20
546.6598706172
 30
0.0
 11
593.6434559673
 21
551.5583192882
 31
0.0
  0
ARC
  5
163
330
1F
100
AcDbEntity
  8
0
  6
HIDDEN
 62
     7
370
    18
100
AcDbCircle
 10
597.1789898732
 20
544.7347638634
 30
0.0
 40
7.685109539559059
100
AcDbArc
 50
62.6096722366
 51
117.3903277634
  0
LWPOLYLINE
  5
164
330
1F
100
AcDbEntity
  8
0
  6
HIDDEN
 62
     7
370
    18
100
AcDbPolyline
 90
       13
 70
   128
 43
0.0
 10
630.413008589
 20
289.8709225854
 10
631.2414357137
 20
289.5039555132
 10
632.2061595333
 20
289.2732703679
 10
633.2414357137
 20
289.1945879607
 10
634.2767118941
 20
289.2732703679
 10
635.2414357137
 20
289.5039555132
 10
636.0698628385
 20
289.8709225854
 10
636.7055373289
 20
290.3491633849
 10
637.1051390189
 20
290.9060865915
 10
637.2414357137
 20
291.5037388091
 10
637.1051390189
 20
292.1013910266
 10
636.7055373289
 20
292.6583142332
 10
636.0698628385
 20
293.1365550327
  0
LWPOLYLINE
  5
165
330
1F
100
AcDbEntity
  8
0
  6
HIDDEN
 62
     7
370
    18
100
AcDbPolyline
 90
       12
 70
   128
 43
0.0
 10
534.6000397382
 20
520.3270597592
 10
534.5141113591
 20
521.0668035487
 10
534.2632876279
 20
521.8458284906
 10
533.8678887918
 20
522.6010226171
 10
533.3599477128
 20
523.2712045914
 10
532.7806147563
 20
523.8020802557
 10
532.176824033
 20
524.1506412209
 10
531.5974910766
 20
524.2886491506
 10
531.0895499975
 20
524.204923463
 10
530.6941511614
 20
523.9062471155
 10
530.4433274302
 20
523.4168170894
 10
530.3573990511
 20
522.7762840947
  0
LINE
  5
166
330
1F
100
AcDbEntity
  8
0
  6
HIDDEN
 62
     7
370
    18
100
AcDbLine
 10
636.0698628385
 20
293.1365550327
 30
0.0
 11
635.6645965154
 21
293.3409556358
 31
0.0
  0
LWPOLYLINE
  5
167
330
1F
100
AcDbEntity
  8
0
  6
HIDDEN
 62
     7
370
    18
100
AcDbPolyline
 90
        8
 70
   128
 43
0.0
 10
630.8182749121
 20
293.3409556358
 10
630.413008589
 20
293.1365550327
 10
629.7773340986
 20
292.6583142332
 10
629.3777324086
 20
292.1013910266
 10
629.2414357137
 20
291.5037388091
 10
629.3777324086
 20
290.9060865915
 10
629.7773340986
 20
290.3491633849
 10
630.413008589
 20
289.8709225854
  0
LWPOLYLINE
  5
168
330
1F
100
AcDbEntity
  8
0
  6
HIDDEN
 62
     7
370
    18
100
AcDbPolyline
 90
       12
 70
   128
 43
0.0
 10
530.3573990511
 20
522.7762840947
 10
530.4433274302
 20
522.0365403052
 10
530.6941511614
 20
521.2575153633
 10
531.0895499975
 20
520.5023212369
 10
531.5974910766
 20
519.8321392625
 10
532.176824033
 20
519.3012635982
 10
532.7806147563
 20
518.952702633
 10
533.3599477128
 20
518.8146947034
 10
533.8678887918
 20
518.8984203909
 10
534.2632876279
 20
519.1970967384
 10
534.5141113591
 20
519.6865267645
 10
534.6000397382
 20
520.3270597592
  0
LINE
  5
169
330
1F
100
AcDbEntity
  8
0
  6
HIDDEN
 62
     7
370
    18
100
AcDbLine
 10
457.8789539795
 20
382.1250392214
 30
0.0
 11
504.5480015378
 21
409.0665069115
 31
0.0
  0
LINE
  5
16A
330
1F
100
AcDbEntity
  8
0
  6
HIDDEN
 62
     7
370
    18
100
AcDbLine
 10
652.6868721964
 20
302.321743441
 30
0.0
 11
659.7579400082
 21
298.2397028819
 31
0.0
  0
LINE
  5
16B
330
1F
100
AcDbEntity
  8
0
  6
HIDDEN
 62
     7
370
    18
100
AcDbLine
 10
621.2206204336
 20
349.4693118988
 30
0.0
 11
676.1628173318
 21
317.7518567545
 31
0.0
  0
LINE
  5
16C
330
1F
100
AcDbEntity
  8
0
  6
HIDDEN
 62
     7
370
    18
100
AcDbLine
 10
676.1628173318
 20
317.7518567545
 30
0.0
 11
651.0605265996
 21
303.2606127696
 31
0.0
  0
LINE
  5
16D
330
1F
100
AcDbEntity
  8
0
  6
HIDDEN
 62
     7
370
    18
100
AcDbLine
 10
596.1183297014
 20
334.9780679139
 30
0.0
 11
651.0605265996
 21
303.2606127696
 31
0.0
  0
LWPOLYLINE
  5
16E
330
1F
100
AcDbEntity
  8
0
  6
HIDDEN
 62
     7
370
    18
100
AcDbPolyline
 90
       12
 70
   128
 43
0.0
 10
506.3157684908
 20
536.6552219957
 10
506.2298401116
 20
537.3949657852
 10
505.9790163805
 20
538.173990727
 10
505.5836175443
 20
538.9291848535
 10
505.0756764653
 20
539.5993668279
 10
504.4963435088
 20
540.1302424921
 10
503.8925527856
 20
540.4788034573
 10
503.3132198291
 20
540.616811387
 10
502.8052787501
 20
540.5330856995
 10
502.4098799139
 20
540.2344093519
 10
502.1590561828
 20
539.7449793259
 10
502.0731278036
 20
539.1044463312
  0
LINE
  5
16F
330
1F
100
AcDbEntity
  8
0
  6
HIDDEN
 62
     7
370
    18
100
AcDbLine
 10
516.7809488523
 20
409.7610509569
 30
0.0
 11
491.6786581202
 21
395.269806972
 31
0.0
  0
LINE
  5
170
330
1F
100
AcDbEntity
  8
0
  6
HIDDEN
 62
     7
370
    18
100
AcDbLine
 10
516.7809488523
 20
582.0511622648
 30
0.0
 11
491.6786581202
 21
567.5599182799
 31
0.0
  0
LINE
  5
171
330
1F
100
AcDbEntity
  8
0
  6
HIDDEN
 62
     7
370
    18
100
AcDbLine
 10
491.6786581202
 20
567.5599182799
 30
0.0
 11
491.6786581202
 21
395.269806972
 31
0.0
  0
LINE
  5
172
330
1F
100
AcDbEntity
  8
0
  6
HIDDEN
 62
     7
370
    18
100
AcDbLine
 10
516.7809488523
 20
582.0511622648
 30
0.0
 11
516.7809488523
 21
409.7610509569
 31
0.0
  0
LWPOLYLINE
  5
173
330
1F
100
AcDbEntity
  8
0
  6
HIDDEN
 62
     7
370
    18
100
AcDbPolyline
 90
        9
 70
   128
 43
0.0
 10
514.0939430838
 20
570.1316038322
 10
514.580578107
 20
569.9438934637
 10
515.1546032556
 20
569.8779783479
 10
515.7286284041
 20
569.9438934637
 10
516.2152634274
 20
570.1316038322
 10
516.5404225544
 20
570.4125322513
 10
516.6546032556
 20
570.743909916
 10
516.5404225544
 20
571.0752875807
 10
516.2152634274
 20
571.3562159999
  0
LWPOLYLINE
  5
174
330
1F
100
AcDbEntity
  8
0
  6
HIDDEN
 62
     7
370
    18
100
AcDbPolyline
 90
        9
 70
   128
 43
0.0
 10
516.2152634274
 20
571.3562159999
 10
515.7286284041
 20
571.5439263684
 10
515.1546032556
 20
571.6098414841
 10
514.580578107
 20
571.5439263684
 10
514.0939430838
 20
571.3562159999
 10
513.7687839568
 20
571.0752875807
 10
513.6546032556
 20
570.743909916
 10
513.7687839568
 20
570.4125322513
 10
514.0939430838
 20
570.1316038322
  0
LWPOLYLINE
  5
175
330
1F
100
AcDbEntity
  8
0
  6
HIDDEN
 62
     7
370
    18
100
AcDbPolyline
 90
       12
 70
   128
 43
0.0
 10
502.0731278036
 20
539.1044463312
 10
502.1590561828
 20
538.3647025417
 10
502.4098799139
 20
537.5856775998
 10
502.8052787501
 20
536.8304834733
 10
503.3132198291
 20
536.160301499
 10
503.8925527856
 20
535.6294258347
 10
504.4963435088
 20
535.2808648695
 10
505.0756764653
 20
535.1428569398
 10
505.5836175443
 20
535.2265826274
 10
505.9790163805
 20
535.5252589749
 10
506.2298401116
 20
536.014689001
 10
506.3157684908
 20
536.6552219957
  0
LINE
  5
176
330
1F
100
AcDbEntity
  8
0
  6
HIDDEN
 62
     7
370
    18
100
AcDbLine
 10
482.9812447116
 20
572.5808281676
 30
0.0
 11
504.5480015378
 21
585.0310518729
 31
0.0
  0
LINE
  5
177
330
1F
100
AcDbEntity
  8
0
  6
HIDDEN
 62
     7
370
    18
100
AcDbLine
 10
511.6190693497
 20
585.0310518729
 30
0.0
 11
515.1546032556
 21
582.9900315934
 31
0.0
  0
LINE
  5
178
330
1F
100
AcDbEntity
  8
0
  6
HIDDEN
 62
     7
370
    18
100
AcDbLine
 10
482.9812447116
 20
572.5808281676
 30
0.0
 11
490.0523125235
 21
568.4987876085
 31
0.0
  0
LINE
  5
179
330
1F
100
AcDbEntity
  8
0
  6
HIDDEN
 62
     7
370
    18
100
AcDbLine
 10
482.9812447116
 20
400.2907168597
 30
0.0
 11
482.9812447116
 21
572.5808281676
 31
0.0
  0
LINE
  5
17A
330
1F
100
AcDbEntity
  8
0
  6
HIDDEN
 62
     7
370
    18
100
AcDbLine
 10
490.0523125235
 20
396.2086763006
 30
0.0
 11
490.0523125235
 21
568.4987876085
 31
0.0
  0
LINE
  5
17B
330
1F
100
AcDbEntity
  8
0
  6
HIDDEN
 62
     7
370
    18
100
AcDbLine
 10
515.1546032556
 20
582.9900315934
 30
0.0
 11
490.0523125235
 21
568.4987876085
 31
0.0
  0
LINE
  5
17C
330
1F
100
AcDbEntity
  8
0
  6
HIDDEN
 62
     7
370
    18
100
AcDbLine
 10
515.1546032556
 20
410.6999202855
 30
0.0
 11
515.1546032556
 21
582.9900315934
 31
0.0
  0
ARC
  5
17D
330
1F
100
AcDbEntity
  8
0
  6
HIDDEN
 62
     7
370
    18
100
AcDbCircle
 10
680.286877616
 20
308.8069813288
 30
0.0
 40
2.514696392469257
100
AcDbArc
 50
5.6947992512
 51
65.6253417064
  0
ARC
  5
17E
330
1F
100
AcDbEntity
  8
0
  6
HIDDEN
 62
     7
370
    18
100
AcDbCircle
 10
508.0835354437
 20
578.2074964481
 30
0.0
 40
7.685109539558352
100
AcDbArc
 50
62.6096722366
 51
117.3903277634
  0
LINE
  5
17F
330
1F
100
AcDbEntity
  8
0
  6
HIDDEN
 62
     7
370
    18
100
AcDbLine
 10
548.2472006151
 20
362.6134824991
 30
0.0
 11
594.4919841047
 21
335.9169372425
 31
0.0
  0
LINE
  5
180
330
1F
100
AcDbEntity
  8
0
  6
HIDDEN
 62
     7
370
    18
100
AcDbLine
 10
619.5942748368
 20
350.4081812274
 30
0.0
 11
594.4919841047
 21
335.9169372425
 31
0.0
  0
LINE
  5
181
330
1F
100
AcDbEntity
  8
0
  6
HIDDEN
 62
     7
370
    18
100
AcDbLine
 10
573.3494913472
 20
377.104726484
 30
0.0
 11
619.5942748368
 21
350.4081812274
 31
0.0
  0
LWPOLYLINE
  5
182
330
1F
100
AcDbEntity
  8
0
  6
HIDDEN
 62
     7
370
    18
100
AcDbPolyline
 90
       13
 70
   128
 43
0.0
 10
552.6312626585
 20
334.7733687357
 10
553.4596897832
 20
334.4064016635
 10
554.4244136028
 20
334.1757165181
 10
555.4596897832
 20
334.097034111
 10
556.4949659636
 20
334.1757165181
 10
557.4596897832
 20
334.4064016635
 10
558.288116908
 20
334.7733687357
 10
558.9237913984
 20
335.2516095351
 10
559.3233930884
 20
335.8085327417
 10
559.4596897832
 20
336.4061849593
 10
559.3233930884
 20
337.0038371769
 10
558.9237913984
 20
337.5607603835
 10
558.288116908
 20
338.039001183
  0
LINE
  5
183
330
1F
100
AcDbEntity
  8
0
  6
HIDDEN
 62
     7
370
    18
100
AcDbLine
 10
558.288116908
 20
338.039001183
 30
0.0
 11
557.8828505848
 21
338.2434017861
 31
0.0
  0
LWPOLYLINE
  5
184
330
1F
100
AcDbEntity
  8
0
  6
HIDDEN
 62
     7
370
    18
100
AcDbPolyline
 90
        8
 70
   128
 43
0.0
 10
553.0365289816
 20
338.2434017861
 10
552.6312626585
 20
338.039001183
 10
551.9955881681
 20
337.5607603835
 10
551.5959864781
 20
337.0038371769
 10
551.4596897832
 20
336.4061849593
 10
551.5959864781
 20
335.8085327417
 10
551.9955881681
 20
335.2516095351
 10
552.6312626585
 20
334.7733687357
  0
LINE
  5
185
330
1F
100
AcDbEntity
  8
0
  6
HIDDEN
 62
     7
370
    18
100
AcDbLine
 10
571.7231457505
 20
378.0435958126
 30
0.0
 11
546.6208550184
 21
363.5523518277
 31
0.0
  0
LINE
  5
186
330
1F
100
AcDbEntity
  8
0
  6
HIDDEN
 62
     7
370
    18
100
AcDbLine
 10
491.6786581202
 20
395.269806972
 30
0.0
 11
546.6208550184
 21
363.5523518277
 31
0.0
  0
LINE
  5
187
330
1F
100
AcDbEntity
  8
0
  6
HIDDEN
 62
     7
370
    18
100
AcDbLine
 10
516.7809488523
 20
409.7610509569
 30
0.0
 11
571.7231457505
 21
378.0435958126
 31
0.0
  0
LWPOLYLINE
  5
188
330
1F
100
AcDbEntity
  8
0
  6
HIDDEN
 62
     7
370
    18
100
AcDbPolyline
 90
       13
 70
   128
 43
0.0
 10
474.849516728
 20
379.6758148859
 10
475.6779438527
 20
379.3088478137
 10
476.6426676723
 20
379.0781626684
 10
477.6779438527
 20
378.9994802612
 10
478.7132200331
 20
379.0781626684
 10
479.6779438527
 20
379.3088478137
 10
480.5063709774
 20
379.6758148859
 10
481.1420454678
 20
380.1540556854
 10
481.5416471579
 20
380.710978892
 10
481.6779438527
 20
381.3086311096
 10
481.5416471579
 20
381.9062833271
 10
481.1420454678
 20
382.4632065337
 10
480.5063709774
 20
382.9414473332
  0
ARC
  5
189
330
1F
100
AcDbEntity
  8
0
  6
HIDDEN
 62
     7
370
    18
100
AcDbCircle
 10
458.9167731979
 20
379.8344870573
 30
0.0
 40
2.514696392468912
100
AcDbArc
 50
114.3746582936
 51
174.3052007488
  0
LINE
  5
18A
330
1F
100
AcDbEntity
  8
0
  6
HIDDEN
 62
     7
370
    18
100
AcDbLine
 10
480.5063709774
 20
382.9414473332
 30
0.0
 11
480.1011046543
 21
383.1458479363
 31
0.0
  0
LWPOLYLINE
  5
18B
330
1F
100
AcDbEntity
  8
0
  6
HIDDEN
 62
     7
370
    18
100
AcDbPolyline
 90
        8
 70
   128
 43
0.0
 10
475.2547830511
 20
383.1458479363
 10
474.849516728
 20
382.9414473332
 10
474.2138422376
 20
382.4632065337
 10
473.8142405475
 20
381.9062833271
 10
473.6779438527
 20
381.3086311096
 10
473.8142405475
 20
380.710978892
 10
474.2138422376
 20
380.1540556854
 10
474.849516728
 20
379.6758148859
  0
ARC
  5
18C
330
1F
100
AcDbEntity
  8
0
  6
HIDDEN
 62
     7
370
    18
100
AcDbCircle
 10
508.0835354437
 20
405.9173851402
 30
0.0
 40
7.685109539558352
100
AcDbArc
 50
62.6096722366
 51
117.3903277634
  0
LINE
  5
18D
330
1F
100
AcDbEntity
  8
0
  6
HIDDEN
 62
     7
370
    18
100
AcDbLine
 10
515.1546032556
 20
410.6999202855
 30
0.0
 11
490.0523125235
 21
396.2086763006
 31
0.0
  0
LINE
  5
18E
330
1F
100
AcDbEntity
  8
0
  6
HIDDEN
 62
     7
370
    18
100
AcDbLine
 10
482.9812447116
 20
400.2907168597
 30
0.0
 11
490.0523125235
 21
396.2086763006
 31
0.0
  0
LINE
  5
18F
330
1F
100
AcDbEntity
  8
0
  6
HIDDEN
 62
     7
370
    18
100
AcDbLine
 10
504.5480015378
 20
412.740940565
 30
0.0
 11
482.9812447116
 21
400.2907168597
 31
0.0
  0
LINE
  5
190
330
1F
100
AcDbEntity
  8
0
  6
HIDDEN
 62
     7
370
    18
100
AcDbLine
 10
511.6190693497
 20
412.740940565
 30
0.0
 11
515.1546032556
 21
410.6999202855
 31
0.0
  0
ARC
  5
191
330
1F
100
AcDbEntity
  8
0
  6
HIDDEN
 62
     7
370
    18
100
AcDbCircle
 10
508.0835354437
 20
402.2429514868
 30
0.0
 40
7.685109539559311
100
AcDbArc
 50
62.6096722366
 51
117.3903277634
  0
LINE
  5
192
330
1F
100
AcDbEntity
  8
0
  6
HIDDEN
 62
     7
370
    18
100
AcDbLine
 10
658.0759594929
 20
489.1030987337
 30
0.0
 11
658.0759594929
 21
492.7775323872
 31
0.0
  0
LINE
  5
193
330
1F
100
AcDbEntity
  8
0
  6
HIDDEN
 62
     7
370
    18
100
AcDbLine
 10
655.0759594929
 20
492.7775323872
 30
0.0
 11
655.0759594929
 21
489.1030987337
 31
0.0
  0
LINE
  5
194
330
1F
100
AcDbEntity
  8
0
  6
HIDDEN
 62
     7
370
    18
100
AcDbLine
 10
637.0448584737
 20
462.9192101274
 30
0.0
 11
633.8628779583
 21
461.0822918758
 31
0.0
  0
LINE
  5
195
330
1F
100
AcDbEntity
  8
0
  6
HIDDEN
 62
     7
370
    18
100
AcDbLine
 10
636.8626341563
 20
455.8859987015
 30
0.0
 11
640.0446146716
 21
457.7229169531
 31
0.0
  0
LINE
  5
196
330
1F
100
AcDbEntity
  8
0
  6
HIDDEN
 62
     7
370
    18
100
AcDbLine
 10
608.7605872262
 20
479.2473723639
 30
0.0
 11
605.5786067109
 21
477.4104541123
 31
0.0
  0
LINE
  5
197
330
1F
100
AcDbEntity
  8
0
  6
HIDDEN
 62
     7
370
    18
100
AcDbLine
 10
608.5783629088
 20
472.214160938
 30
0.0
 11
611.7603434241
 21
474.0510791896
 31
0.0
  0
LINE
  5
198
330
1F
100
AcDbEntity
  8
0
  6
HIDDEN
 62
     7
370
    18
100
AcDbLine
 10
613.3921933088
 20
531.1487136429
 30
0.0
 11
613.3921933088
 21
527.4742799894
 31
0.0
  0
LINE
  5
199
330
1F
100
AcDbEntity
  8
0
  6
HIDDEN
 62
     7
370
    18
100
AcDbLine
 10
587.3652813742
 20
529.9235043249
 30
0.0
 11
587.3652813742
 21
533.5979379784
 31
0.0
  0
LINE
  5
19A
330
1F
100
AcDbEntity
  8
0
  6
HIDDEN
 62
     7
370
    18
100
AcDbLine
 10
584.3652813742
 20
533.5979379784
 30
0.0
 11
584.3652813742
 21
529.9235043249
 31
0.0
  0
LINE
  5
19B
330
1F
100
AcDbEntity
  8
0
  6
HIDDEN
 62
     7
370
    18
100
AcDbLine
 10
609.4571644663
 20
540.9450138345
 30
0.0
 11
609.4571644663
 21
544.619447488
 31
0.0
  0
LINE
  5
19C
330
1F
100
AcDbEntity
  8
0
  6
HIDDEN
 62
     7
370
    18
100
AcDbLine
 10
600.4571644663
 20
544.619447488
 30
0.0
 11
600.4571644663
 21
540.9450138345
 31
0.0
  0
LINE
  5
19D
330
1F
100
AcDbEntity
  8
0
  6
HIDDEN
 62
     7
370
    18
100
AcDbLine
 10
637.2414357137
 20
291.5037388091
 30
0.0
 11
637.2414357137
 21
295.1781724626
 31
0.0
  0
LINE
  5
19E
330
1F
100
AcDbEntity
  8
0
  6
HIDDEN
 62
     7
370
    18
100
AcDbLine
 10
530.9788412957
 20
524.1498185141
 30
0.0
 11
527.7968607804
 21
522.3129002625
 31
0.0
  0
LINE
  5
19F
330
1F
100
AcDbEntity
  8
0
  6
HIDDEN
 62
     7
370
    18
100
AcDbLine
 10
629.2414357137
 20
295.1781724626
 30
0.0
 11
629.2414357137
 21
291.5037388091
 31
0.0
  0
LINE
  5
1A0
330
1F
100
AcDbEntity
  8
0
  6
HIDDEN
 62
     7
370
    18
100
AcDbLine
 10
530.7966169783
 20
517.1166070882
 30
0.0
 11
533.9785974936
 21
518.9535253398
 31
0.0
  0
LINE
  5
1A1
330
1F
100
AcDbEntity
  8
0
  6
HIDDEN
 62
     7
370
    18
100
AcDbLine
 10
502.6945700482
 20
540.4779807506
 30
0.0
 11
499.5125895329
 21
538.641062499
 31
0.0
  0
LINE
  5
1A2
330
1F
100
AcDbEntity
  8
0
  6
HIDDEN
 62
     7
370
    18
100
AcDbLine
 10
516.6546032556
 20
570.743909916
 30
0.0
 11
516.6546032556
 21
574.4183435695
 31
0.0
  0
LINE
  5
1A3
330
1F
100
AcDbEntity
  8
0
  6
HIDDEN
 62
     7
370
    18
100
AcDbLine
 10
513.6546032556
 20
574.4183435695
 30
0.0
 11
513.6546032556
 21
570.743909916
 31
0.0
  0
LINE
  5
1A4
330
1F
100
AcDbEntity
  8
0
  6
HIDDEN
 62
     7
370
    18
100
AcDbLine
 10
502.5123457308
 20
533.4447693247
 30
0.0
 11
505.6943262461
 21
535.2816875763
 31
0.0
  0
LINE
  5
1A5
330
1F
100
AcDbEntity
  8
0
  6
HIDDEN
 62
     7
370
    18
100
AcDbLine
 10
559.4596897832
 20
336.4061849593
 30
0.0
 11
559.4596897832
 21
340.0806186128
 31
0.0
  0
LINE
  5
1A6
330
1F
100
AcDbEntity
  8
0
  6
HIDDEN
 62
     7
370
    18
100
AcDbLine
 10
551.4596897832
 20
340.0806186128
 30
0.0
 11
551.4596897832
 21
336.4061849593
 31
0.0
  0
LINE
  5
1A7
330
1F
100
AcDbEntity
  8
0
  6
HIDDEN
 62
     7
370
    18
100
AcDbLine
 10
481.6779438527
 20
381.3086311096
 30
0.0
 11
481.6779438527
 21
384.9830647631
 31
0.0
  0
LINE
  5
1A8
330
1F
100
AcDbEntity
  8
0
  6
HIDDEN
 62
     7
370
    18
100
AcDbLine
 10
473.6779438527
 20
384.9830647631
 30
0.0
 11
473.6779438527
 21
381.3086311096
 31
0.0
  0
ENDSEC
  0
SECTION
  2
OBJECTS
  0
DICTIONARY
  5
C
330
0
100
AcDbDictionary
281
     1
  3
ACAD_GROUP
350
D
  3
ACAD_LAYOUT
350
1A
  3
ACAD_MLINESTYLE
350
17
  3
ACAD_PLOTSETTINGS
350
19
  3
ACAD_PLOTSTYLENAME
350
E
  3
ACAD_SCALELIST
350
47
  3
DWGPROPS
350
1A9
  0
DICTIONARY
  5
D
102
{ACAD_REACTORS
330
C
102
}
330
C
100
AcDbDictionary
281
     1
  0
DICTIONARY
  5
1A
102
{ACAD_REACTORS
330
C
102
}
330
C
100
AcDbDictionary
281
     1
  3
Layout1
350
1E
  3
Layout2
350
26
  3
Model
350
22
  0
DICTIONARY
  5
17
102
{ACAD_REACTORS
330
C
102
}
330
C
100
AcDbDictionary
281
     1
  3
Standard
350
18
  0
DICTIONARY
  5
19
102
{ACAD_REACTORS
330
C
102
}
330
C
100
AcDbDictionary
281
     1
  0
ACDBDICTIONARYWDFLT
  5
E
102
{ACAD_REACTORS
330
C
102
}
330
C
100
AcDbDictionary
281
     1
  3
Normal
350
F
100
AcDbDictionaryWithDefault
340
F
  0
DICTIONARY
  5
47
102
{ACAD_REACTORS
330
C
102
}
330
C
100
AcDbDictionary
281
     1
  3
A0
350
48
  3
A1
350
49
  3
A2
350
4A
  3
A3
350
4B
  3
A4
350
4C
  3
A5
350
4D
  3
A6
350
4E
  3
A7
350
4F
  3
A8
350
50
  3
A9
350
51
  3
B0
350
52
  3
B1
350
53
  3
B2
350
54
  3
B3
350
55
  3
B4
350
56
  3
B5
350
57
  3
B6
350
58
  0
XRECORD
  5
1A9
102
{ACAD_REACTORS
330
C
102
}
330
C
100
AcDbXrecord
280
     1
  1
DWGPROPS COOKIE
  2

  3

  4

  6

  7

  8
imaizumi
  9

300
=
301
=
302
=
303
=
304
=
305
=
306
=
307
=
308
=
309
=
 40
0.0
 41
2461263.065981447
 42
2461263.065982222
  1

 90
        0
  0
LAYOUT
  5
1E
102
{ACAD_REACTORS
330
1A
102
}
330
1A
100
AcDbPlotSettings
  1

  2
none_device
  4

  6

 40
0.0
 41
0.0
 42
0.0
 43
0.0
 44
0.0
 45
0.0
 46
0.0
 47
0.0
 48
0.0
 49
0.0
140
0.0
141
0.0
142
1.0
143
1.0
 70
   688
 72
     1
 73
     0
 74
     5
  7

 75
    16
147
1.0
148
0.0
149
0.0
100
AcDbLayout
  1
Layout1
 70
     1
 71
     1
 10
0.0
 20
0.0
 11
420.0
 21
297.0
 12
0.0
 22
0.0
 32
0.0
 14
1.0000000000E+20
 24
1.0000000000E+20
 34
1.0000000000E+20
 15
-1.0000000000E+20
 25
-1.0000000000E+20
 35
-1.0000000000E+20
146
0.0
 13
0.0
 23
0.0
 33
0.0
 16
1.0
 26
0.0
 36
0.0
 17
0.0
 27
1.0
 37
0.0
 76
     0
330
1B
  0
LAYOUT
  5
26
102
{ACAD_REACTORS
330
1A
102
}
330
1A
100
AcDbPlotSettings
  1

  2
none_device
  4

  6

 40
0.0
 41
0.0
 42
0.0
 43
0.0
 44
0.0
 45
0.0
 46
0.0
 47
0.0
 48
0.0
 49
0.0
140
0.0
141
0.0
142
1.0
143
1.0
 70
   688
 72
     1
 73
     0
 74
     5
  7

 75
    16
147
1.0
148
0.0
149
0.0
100
AcDbLayout
  1
Layout2
 70
     1
 71
     2
 10
0.0
 20
0.0
 11
0.0
 21
0.0
 12
0.0
 22
0.0
 32
0.0
 14
0.0
 24
0.0
 34
0.0
 15
0.0
 25
0.0
 35
0.0
146
0.0
 13
0.0
 23
0.0
 33
0.0
 16
1.0
 26
0.0
 36
0.0
 17
0.0
 27
1.0
 37
0.0
 76
     0
330
23
  0
LAYOUT
  5
22
102
{ACAD_REACTORS
330
1A
102
}
330
1A
100
AcDbPlotSettings
  1

  2
none_device
  4
Letter_(8.50_x_11.00_Inches)
  6

 40
6.35
 41
6.35
 42
6.35000508
 43
6.35000508
 44
215.9
 45
279.4
 46
0.0
 47
0.0
 48
0.0
 49
0.0
140
0.0
141
0.0
142
1.0
143
1.0
 70
  1712
 72
     1
 73
     0
 74
     0
  7

 75
     0
147
1.0
148
0.0
149
0.0
100
AcDbLayout
  1
Model
 70
     1
 71
     0
 10
0.0
 20
0.0
 11
841.0
 21
594.0
 12
0.0
 22
0.0
 32
0.0
 14
0.0
 24
0.0
 34
0.0
 15
841.0
 25
594.0
 35
0.0
146
0.0
 13
0.0
 23
0.0
 33
0.0
 16
1.0
 26
0.0
 36
0.0
 17
0.0
 27
1.0
 37
0.0
 76
     0
330
1F
331
29
  0
MLINESTYLE
  5
18
102
{ACAD_REACTORS
330
17
102
}
330
17
100
AcDbMlineStyle
  2
Standard
 70
     0
  3

 62
   256
 51
90.0
 52
90.0
 71
     2
 49
0.5
 62
   256
  6
BYLAYER
 49
-0.5
 62
   256
  6
BYLAYER
  0
ACDBPLACEHOLDER
  5
F
102
{ACAD_REACTORS
330
E
102
}
330
E
  0
SCALE
  5
48
102
{ACAD_REACTORS
330
47
102
}
330
47
100
AcDbScale
 70
     0
300
1:1
140
1.0
141
1.0
290
     1
  0
SCALE
  5
49
102
{ACAD_REACTORS
330
47
102
}
330
47
100
AcDbScale
 70
     0
300
1:2
140
1.0
141
2.0
290
     0
  0
SCALE
  5
4A
102
{ACAD_REACTORS
330
47
102
}
330
47
100
AcDbScale
 70
     0
300
1:4
140
1.0
141
4.0
290
     0
  0
SCALE
  5
4B
102
{ACAD_REACTORS
330
47
102
}
330
47
100
AcDbScale
 70
     0
300
1:5
140
1.0
141
5.0
290
     0
  0
SCALE
  5
4C
102
{ACAD_REACTORS
330
47
102
}
330
47
100
AcDbScale
 70
     0
300
1:8
140
1.0
141
8.0
290
     0
  0
SCALE
  5
4D
102
{ACAD_REACTORS
330
47
102
}
330
47
100
AcDbScale
 70
     0
300
1:10
140
1.0
141
10.0
290
     0
  0
SCALE
  5
4E
102
{ACAD_REACTORS
330
47
102
}
330
47
100
AcDbScale
 70
     0
300
1:16
140
1.0
141
16.0
290
     0
  0
SCALE
  5
4F
102
{ACAD_REACTORS
330
47
102
}
330
47
100
AcDbScale
 70
     0
300
1:20
140
1.0
141
20.0
290
     0
  0
SCALE
  5
50
102
{ACAD_REACTORS
330
47
102
}
330
47
100
AcDbScale
 70
     0
300
1:30
140
1.0
141
30.0
290
     0
  0
SCALE
  5
51
102
{ACAD_REACTORS
330
47
102
}
330
47
100
AcDbScale
 70
     0
300
1:40
140
1.0
141
40.0
290
     0
  0
SCALE
  5
52
102
{ACAD_REACTORS
330
47
102
}
330
47
100
AcDbScale
 70
     0
300
1:50
140
1.0
141
50.0
290
     0
  0
SCALE
  5
53
102
{ACAD_REACTORS
330
47
102
}
330
47
100
AcDbScale
 70
     0
300
1:100
140
1.0
141
100.0
290
     0
  0
SCALE
  5
54
102
{ACAD_REACTORS
330
47
102
}
330
47
100
AcDbScale
 70
     0
300
2:1
140
2.0
141
1.0
290
     0
  0
SCALE
  5
55
102
{ACAD_REACTORS
330
47
102
}
330
47
100
AcDbScale
 70
     0
300
4:1
140
4.0
141
1.0
290
     0
  0
SCALE
  5
56
102
{ACAD_REACTORS
330
47
102
}
330
47
100
AcDbScale
 70
     0
300
8:1
140
8.0
141
1.0
290
     0
  0
SCALE
  5
57
102
{ACAD_REACTORS
330
47
102
}
330
47
100
AcDbScale
 70
     0
300
10:1
140
10.0
141
1.0
290
     0
  0
SCALE
  5
58
102
{ACAD_REACTORS
330
47
102
}
330
47
100
AcDbScale
 70
     0
300
100:1
140
100.0
141
1.0
290
     0
  0
ENDSEC
  0
EOF
