  0
SECTION
  2
HEADER
  9
$ACADVER
  1
AC1015
  9
$ACADMAINTVER
 70
     6
  9
$DWGCODEPAGE
  3
DOS932
  9
$INSBASE
 10
0.0
 20
0.0
 30
0.0
  9
$EXTMIN
 10
0.0
 20
0.0
 30
0.0
  9
$EXTMAX
 10
841.0
 20
594.0
 30
0.0
  9
$LIMMIN
 10
0.0
 20
0.0
  9
$LIMMAX
 10
841.0
 20
594.0
  9
$ORTHOMODE
 70
     0
  9
$REGENMODE
 70
     1
  9
$FILLMODE
 70
     1
  9
$QTEXTMODE
 70
     0
  9
$MIRRTEXT
 70
     1
  9
$LTSCALE
 40
1.0
  9
$ATTMODE
 70
     1
  9
$TEXTSIZE
 40
3.5
  9
$TRACEWID
 40
1.0
  9
$TEXTSTYLE
  7
Standard
  9
$CLAYER
  8
0
  9
$CELTYPE
  6
ByLayer
  9
$CECOLOR
 62
   256
  9
$CELTSCALE
 40
1.0
  9
$DISPSILH
 70
     0
  9
$DIMSCALE
 40
1.0
  9
$DIMASZ
 40
3.302
  9
$DIMEXO
 40
1.0
  9
$DIMDLI
 40
3.75
  9
$DIMRND
 40
0.0
  9
$DIMDLE
 40
0.0
  9
$DIMEXE
 40
1.0
  9
$DIMTP
 40
0.0
  9
$DIMTM
 40
0.0
  9
$DIMTXT
 40
3.5
  9
$DIMCEN
 40
2.5
  9
$DIMTSZ
 40
0.0
  9
$DIMTOL
 70
     0
  9
$DIMLIM
 70
     0
  9
$DIMTIH
 70
     1
  9
$DIMTOH
 70
     1
  9
$DIMSE1
 70
     0
  9
$DIMSE2
 70
     0
  9
$DIMTAD
 70
     1
  9
$DIMZIN
 70
     1
  9
$DIMBLK
  1

  9
$DIMASO
 70
     1
  9
$DIMSHO
 70
     1
  9
$DIMPOST
  1

  9
$DIMAPOST
  1

  9
$DIMALT
 70
     0
  9
$DIMALTD
 70
     3
  9
$DIMALTF
 40
0.0393700787
  9
$DIMLFAC
 40
2.0
  9
$DIMTOFL
 70
     1
  9
$DIMTVP
 40
0.0
  9
$DIMTIX
 70
     0
  9
$DIMSOXD
 70
     0
  9
$DIMSAH
 70
     0
  9
$DIMBLK1
  1

  9
$DIMBLK2
  1

  9
$DIMSTYLE
  2
ISO-25
  9
$DIMCLRD
 70
     0
  9
$DIMCLRE
 70
     0
  9
$DIMCLRT
 70
     0
  9
$DIMTFAC
 40
1.0
  9
$DIMGAP
 40
1.524
  9
$DIMJUST
 70
     0
  9
$DIMSD1
 70
     0
  9
$DIMSD2
 70
     0
  9
$DIMTOLJ
 70
     0
  9
$DIMTZIN
 70
     1
  9
$DIMALTZ
 70
     0
  9
$DIMALTTZ
 70
     0
  9
$DIMUPT
 70
     0
  9
$DIMDEC
 70
     2
  9
$DIMTDEC
 70
     2
  9
$DIMALTU
 70
     2
  9
$DIMALTTD
 70
     3
  9
$DIMTXSTY
  7
Standard
  9
$DIMAUNIT
 70
     0
  9
$DIMADEC
 70
     2
  9
$DIMALTRND
 40
0.0
  9
$DIMAZIN
 70
     0
  9
$DIMDSEP
 70
    44
  9
$DIMATFIT
 70
     3
  9
$DIMFRAC
 70
     0
  9
$DIMLDRBLK
  1

  9
$DIMLUNIT
 70
     2
  9
$DIMLWD
 70
    -2
  9
$DIMLWE
 70
    -2
  9
$DIMTMOVE
 70
     0
  9
$LUNITS
 70
     2
  9
$LUPREC
 70
     2
  9
$SKETCHINC
 40
1.0
  9
$FILLETRAD
 40
0.0
  9
$AUNITS
 70
     0
  9
$AUPREC
 70
     2
  9
$MENU
  1
.
  9
$ELEVATION
 40
0.0
  9
$PELEVATION
 40
0.0
  9
$THICKNESS
 40
0.0
  9
$LIMCHECK
 70
     0
  9
$CHAMFERA
 40
0.0
  9
$CHAMFERB
 40
0.0
  9
$CHAMFERC
 40
0.0
  9
$CHAMFERD
 40
0.0
  9
$SKPOLY
 70
     0
  9
$TDCREATE
 40
2461263.440850938
  9
$TDUCREATE
 40
2461263.065850938
  9
$TDUPDATE
 40
2461263.440851285
  9
$TDUUPDATE
 40
2461263.065851285
  9
$TDINDWG
 40
0.0000000116
  9
$TDUSRTIMER
 40
0.0000000116
  9
$USRTIMER
 70
     1
  9
$ANGBASE
 50
0.0
  9
$ANGDIR
 70
     0
  9
$PDMODE
 70
     0
  9
$PDSIZE
 40
-1.0
  9
$PLINEWID
 40
0.0
  9
$SPLFRAME
 70
     0
  9
$SPLINETYPE
 70
     6
  9
$SPLINESEGS
 70
     8
  9
$HANDSEED
  5
125
  9
$SURFTAB1
 70
     6
  9
$SURFTAB2
 70
     6
  9
$SURFTYPE
 70
     6
  9
$SURFU
 70
     6
  9
$SURFV
 70
     6
  9
$UCSBASE
  2

  9
$UCSNAME
  2

  9
$UCSORG
 10
0.0
 20
0.0
 30
0.0
  9
$UCSXDIR
 10
1.0
 20
0.0
 30
0.0
  9
$UCSYDIR
 10
0.0
 20
1.0
 30
0.0
  9
$UCSORTHOREF
  2

  9
$UCSORTHOVIEW
 70
     0
  9
$UCSORGTOP
 10
0.0
 20
0.0
 30
0.0
  9
$UCSORGBOTTOM
 10
0.0
 20
0.0
 30
0.0
  9
$UCSORGLEFT
 10
0.0
 20
0.0
 30
0.0
  9
$UCSORGRIGHT
 10
0.0
 20
0.0
 30
0.0
  9
$UCSORGFRONT
 10
0.0
 20
0.0
 30
0.0
  9
$UCSORGBACK
 10
0.0
 20
0.0
 30
0.0
  9
$PUCSBASE
  2

  9
$PUCSNAME
  2

  9
$PUCSORG
 10
0.0
 20
0.0
 30
0.0
  9
$PUCSXDIR
 10
1.0
 20
0.0
 30
0.0
  9
$PUCSYDIR
 10
0.0
 20
1.0
 30
0.0
  9
$PUCSORTHOREF
  2

  9
$PUCSORTHOVIEW
 70
     0
  9
$PUCSORGTOP
 10
0.0
 20
0.0
 30
0.0
  9
$PUCSORGBOTTOM
 10
0.0
 20
0.0
 30
0.0
  9
$PUCSORGLEFT
 10
0.0
 20
0.0
 30
0.0
  9
$PUCSORGRIGHT
 10
0.0
 20
0.0
 30
0.0
  9
$PUCSORGFRONT
 10
0.0
 20
0.0
 30
0.0
  9
$PUCSORGBACK
 10
0.0
 20
0.0
 30
0.0
  9
$USERI1
 70
     0
  9
$USERI2
 70
     0
  9
$USERI3
 70
     0
  9
$USERI4
 70
     0
  9
$USERI5
 70
     0
  9
$USERR1
 40
0.0
  9
$USERR2
 40
0.0
  9
$USERR3
 40
0.0
  9
$USERR4
 40
0.0
  9
$USERR5
 40
0.0
  9
$WORLDVIEW
 70
     1
  9
$SHADEDGE
 70
     3
  9
$SHADEDIF
 70
    70
  9
$TILEMODE
 70
     1
  9
$MAXACTVP
 70
    64
  9
$PINSBASE
 10
0.0
 20
0.0
 30
0.0
  9
$PLIMCHECK
 70
     0
  9
$PEXTMIN
 10
1.0000000000E+20
 20
1.0000000000E+20
 30
1.0000000000E+20
  9
$PEXTMAX
 10
-1.0000000000E+20
 20
-1.0000000000E+20
 30
-1.0000000000E+20
  9
$PLIMMIN
 10
0.0
 20
0.0
  9
$PLIMMAX
 10
420.0
 20
297.0
  9
$UNITMODE
 70
     0
  9
$VISRETAIN
 70
     1
  9
$PLINEGEN
 70
     0
  9
$PSLTSCALE
 70
     1
  9
$TREEDEPTH
 70
  3020
  9
$CMLSTYLE
  2
Standard
  9
$CMLJUST
 70
     0
  9
$CMLSCALE
 40
20.0
  9
$PROXYGRAPHICS
 70
     1
  9
$MEASUREMENT
 70
     1
  9
$CELWEIGHT
370
    -1
  9
$ENDCAPS
280
     0
  9
$JOINSTYLE
280
     0
  9
$LWDISPLAY
290
     1
  9
$INSUNITS
 70
     4
  9
$HYPERLINKBASE
  1

  9
$STYLESHEET
  1

  9
$XEDIT
290
     1
  9
$CEPSNTYPE
380
     0
  9
$PSTYLEMODE
290
     1
  9
$FINGERPRINTGUID
  2
{4885df0e-bfbd-49f2-83ba-bc9b05c22020}
  9
$VERSIONGUID
  2
{FAEB1C32-E019-11D5-929B-00C0DF256EC4}
  9
$EXTNAMES
290
     1
  9
$PSVPSCALE
 40
0.0
  9
$OLESTARTUP
290
     0
  0
ENDSEC
  0
SECTION
  2
CLASSES
  0
CLASS
  1
ACDBDICTIONARYWDFLT
  2
AcDbDictionaryWithDefault
  3
ObjectDBX Classes
 90
        0
280
     0
281
     0
  0
CLASS
  1
VISUALSTYLE
  2
AcDbVisualStyle
  3
ObjectDBX Classes
 90
     4095
280
     0
281
     0
  0
CLASS
  1
MATERIAL
  2
AcDbMaterial
  3
ObjectDBX Classes
 90
     1153
280
     0
281
     0
  0
CLASS
  1
SCALE
  2
AcDbScale
  3
ObjectDBX Classes
 90
     1153
280
     0
281
     0
  0
CLASS
  1
TABLESTYLE
  2
AcDbTableStyle
  3
ObjectDBX Classes
 90
     4095
280
     0
281
     0
  0
CLASS
  1
MLEADERSTYLE
  2
AcDbMLeaderStyle
  3
ACDB_MLEADERSTYLE_CLASS
 90
     4095
280
     0
281
     0
  0
CLASS
  1
SUN
  2
AcDbSun
  3
SCENEOE
 90
     1153
280
     0
281
     0
  0
CLASS
  1
ACDBPLACEHOLDER
  2
AcDbPlaceHolder
  3
ObjectDBX Classes
 90
        0
280
     0
281
     0
  0
CLASS
  1
LAYOUT
  2
AcDbLayout
  3
ObjectDBX Classes
 90
        0
280
     0
281
     0
  0
ENDSEC
  0
SECTION
  2
TABLES
  0
TABLE
  2
VPORT
  5
8
330
0
100
AcDbSymbolTable
 70
     1
  0
VPORT
  5
29
330
8
100
AcDbSymbolTableRecord
100
AcDbViewportTableRecord
  2
*Active
 70
     0
 10
0.0
 20
0.0
 11
1.0
 21
1.0
 12
420.5
 22
297.0
 13
0.0
 23
0.0
 14
10.0
 24
10.0
 15
10.0
 25
10.0
 16
0.0
 26
0.0
 36
1.0
 17
0.0
 27
0.0
 37
0.0
 40
594.0
 41
1.4158249158
 42
50.0
 43
0.0
 44
0.0
 50
0.0
 51
0.0
 71
     0
 72
  2000
 73
     1
 74
     3
 75
     0
 76
     0
 77
     0
 78
     0
281
     0
 65
     1
110
0.0
120
0.0
130
0.0
111
1.0
121
0.0
131
0.0
112
0.0
122
1.0
132
0.0
 79
     0
146
0.0
  0
ENDTAB
  0
TABLE
  2
LTYPE
  5
5
330
0
100
AcDbSymbolTable
 70
     6
  0
LTYPE
  5
14
330
5
100
AcDbSymbolTableRecord
100
AcDbLinetypeTableRecord
  2
ByBlock
 70
     0
  3

 72
    65
 73
     0
 40
0.0
  0
LTYPE
  5
15
330
5
100
AcDbSymbolTableRecord
100
AcDbLinetypeTableRecord
  2
ByLayer
 70
     0
  3

 72
    65
 73
     0
 40
0.0
  0
LTYPE
  5
16
330
5
100
AcDbSymbolTableRecord
100
AcDbLinetypeTableRecord
  2
Continuous
 70
     0
  3
Solid line
 72
    65
 73
     0
 40
0.0
  0
LTYPE
  5
5E
330
5
100
AcDbSymbolTableRecord
100
AcDbLinetypeTableRecord
  2
HIDDEN
 70
     0
  3
Hidden __ __ __ __ __ __ __ __ __ __ __ __ __ __
 72
    65
 73
     2
 40
1.905
 49
1.27
 74
     0
 49
-0.635
 74
     0
  0
LTYPE
  5
5F
330
5
100
AcDbSymbolTableRecord
100
AcDbLinetypeTableRecord
  2
PHANTOM
 70
     0
  3
Phantom ______  __  __  ______  __  __  ______
 72
    65
 73
     6
 40
12.7
 49
6.35
 74
     0
 49
-1.27
 74
     0
 49
1.27
 74
     0
 49
-1.27
 74
     0
 49
1.27
 74
     0
 49
-1.27
 74
     0
  0
LTYPE
  5
60
330
5
100
AcDbSymbolTableRecord
100
AcDbLinetypeTableRecord
  2
CENTER
 70
     0
  3
Center ____ _ ____ _ ____ _ ____ _ ____ _ ____
 72
    65
 73
     4
 40
10.16
 49
6.35
 74
     0
 49
-1.27
 74
     0
 49
1.27
 74
     0
 49
-1.27
 74
     0
  0
LTYPE
  5
61
330
5
100
AcDbSymbolTableRecord
100
AcDbLinetypeTableRecord
  2
CENTERX2
 70
     0
  3
Center (2x) ________  __  ________  __  _____
 72
    65
 73
     4
 40
20.32
 49
12.7
 74
     0
 49
-2.54
 74
     0
 49
2.54
 74
     0
 49
-2.54
 74
     0
  0
LTYPE
  5
62
330
5
100
AcDbSymbolTableRecord
100
AcDbLinetypeTableRecord
  2
DOT2
 70
     0
  3
Dot (.5x) ........................................
 72
    65
 73
     2
 40
0.635
 49
0.0
 74
     0
 49
-0.635
 74
     0
  0
ENDTAB
  0
TABLE
  2
LAYER
  5
2
330
0
100
AcDbSymbolTable
 70
     1
  0
LAYER
  5
10
330
2
100
AcDbSymbolTableRecord
100
AcDbLayerTableRecord
  2
0
 70
     0
 62
     7
  6
Continuous
370
    -3
390
F
  0
ENDTAB
  0
TABLE
  2
STYLE
  5
3
330
0
100
AcDbSymbolTable
 70
     1
  0
STYLE
  5
11
330
3
100
AcDbSymbolTableRecord
100
AcDbTextStyleTableRecord
  2
Standard
 70
     0
 40
0.0
 41
1.0
 50
0.0
 71
     0
 42
3.5
  3
txt
  4
bigfont
  0
ENDTAB
  0
TABLE
  2
VIEW
  5
6
330
0
100
AcDbSymbolTable
 70
     0
  0
ENDTAB
  0
TABLE
  2
UCS
  5
7
330
0
100
AcDbSymbolTable
 70
     0
  0
ENDTAB
  0
TABLE
  2
APPID
  5
9
330
0
100
AcDbSymbolTable
 70
     1
  0
APPID
  5
12
330
9
100
AcDbSymbolTableRecord
100
AcDbRegAppTableRecord
  2
ACAD
 70
     0
  0
ENDTAB
  0
TABLE
  2
DIMSTYLE
  5
A
330
0
100
AcDbSymbolTable
 70
     1
100
AcDbDimStyleTable
  0
DIMSTYLE
105
27
330
A
100
AcDbSymbolTableRecord
100
AcDbDimStyleTableRecord
  2
ISO-25
 70
     0
 41
2.5
 42
0.625
 43
3.75
 44
1.25
 73
     0
 74
     0
 77
     1
 78
     8
140
2.5
141
2.5
143
0.0393700787
147
0.625
171
     3
172
     1
178
     0
271
     2
272
     2
274
     3
278
    44
283
     0
284
     8
340
11
  0
ENDTAB
  0
TABLE
  2
BLOCK_RECORD
  5
1
330
0
100
AcDbSymbolTable
 70
     1
  0
BLOCK_RECORD
  5
1F
330
1
100
AcDbSymbolTableRecord
100
AcDbBlockTableRecord
  2
*Model_Space
340
22
  0
BLOCK_RECORD
  5
1B
330
1
100
AcDbSymbolTableRecord
100
AcDbBlockTableRecord
  2
*Paper_Space
340
1E
  0
BLOCK_RECORD
  5
23
330
1
100
AcDbSymbolTableRecord
100
AcDbBlockTableRecord
  2
*Paper_Space0
340
26
  0
ENDTAB
  0
ENDSEC
  0
SECTION
  2
BLOCKS
  0
BLOCK
  5
20
330
1F
100
AcDbEntity
  8
0
100
AcDbBlockBegin
  2
*Model_Space
 70
     0
 10
0.0
 20
0.0
 30
0.0
  3
*Model_Space
  1

  0
ENDBLK
  5
21
330
1F
100
AcDbEntity
  8
0
100
AcDbBlockEnd
  0
BLOCK
  5
1C
330
1B
100
AcDbEntity
 67
     1
  8
0
100
AcDbBlockBegin
  2
*Paper_Space
 70
     0
 10
0.0
 20
0.0
 30
0.0
  3
*Paper_Space
  1

  0
ENDBLK
  5
1D
330
1B
100
AcDbEntity
 67
     1
  8
0
100
AcDbBlockEnd
  0
BLOCK
  5
24
330
23
100
AcDbEntity
  8
0
100
AcDbBlockBegin
  2
*Paper_Space0
 70
     0
 10
0.0
 20
0.0
 30
0.0
  3
*Paper_Space0
  1

  0
ENDBLK
  5
25
330
23
100
AcDbEntity
  8
0
100
AcDbBlockEnd
  0
ENDSEC
  0
SECTION
  2
ENTITIES
  0
ARC
  5
63
330
1F
100
AcDbEntity
  8
0
  6
Continuous
 62
     7
370
    25
100
AcDbCircle
 10
29.0890600148
 20
-15.8722781193
 30
0.0
 40
3.000000000000158
100
AcDbArc
 50
210.0
 51
300.0
  0
LINE
  5
64
330
1F
100
AcDbEntity
  8
0
  6
Continuous
 62
     7
370
    25
100
AcDbLine
 10
-35.5090161966
 20
90.01487195
 30
0.0
 11
26.4909838034
 21
-17.3722781193
 31
0.0
  0
ARC
  5
65
330
1F
100
AcDbEntity
  8
0
  6
Continuous
 62
     7
370
    25
100
AcDbCircle
 10
-32.9109399852
 20
91.51487195
 30
0.0
 40
3.000000000000163
100
AcDbArc
 50
120.0
 51
180.0
  0
LINE
  5
66
330
1F
100
AcDbEntity
  8
0
  6
Continuous
 62
     7
370
    25
100
AcDbLine
 10
183.8274617684
 20
220.1129481613
 30
0.0
 11
-34.4109399852
 21
94.1129481613
 31
0.0
  0
LINE
  5
67
330
1F
100
AcDbEntity
  8
0
  6
Continuous
 62
     7
370
    25
100
AcDbLine
 10
183.8274617684
 20
255.1129481613
 30
0.0
 11
183.8274617684
 21
220.1129481613
 31
0.0
  0
ARC
  5
68
330
1F
100
AcDbEntity
  8
0
  6
Continuous
 62
     7
370
    25
100
AcDbCircle
 10
193.8274617684
 20
255.1129481613
 30
0.0
 40
10.0
100
AcDbArc
 50
90.0
 51
180.0
  0
LINE
  5
69
330
1F
100
AcDbEntity
  8
0
  6
Continuous
 62
     7
370
    25
100
AcDbLine
 10
333.8274617684
 20
265.1129481613
 30
0.0
 11
193.8274617684
 21
265.1129481613
 31
0.0
  0
ARC
  5
6A
330
1F
100
AcDbEntity
  8
0
  6
Continuous
 62
     7
370
    25
100
AcDbCircle
 10
333.8274617684
 20
255.1129481613
 30
0.0
 40
10.0
100
AcDbArc
 50
0.0
 51
90.0
  0
LINE
  5
6B
330
1F
100
AcDbEntity
  8
0
  6
Continuous
 62
     7
370
    25
100
AcDbLine
 10
343.8274617684
 20
162.3779212424
 30
0.0
 11
343.8274617684
 21
255.1129481613
 31
0.0
  0
LINE
  5
6C
330
1F
100
AcDbEntity
  8
0
  6
Continuous
 62
     7
370
    25
100
AcDbLine
 10
30.5890600148
 20
-18.4703543307
 30
0.0
 11
343.8274617684
 21
162.3779212424
 31
0.0
  0
ARC
  5
6D
330
1F
100
AcDbEntity
  8
0
  6
Continuous
 62
     7
370
    25
100
AcDbCircle
 10
328.8274617684
 20
240.1129481613
 30
0.0
 40
7.0
100
AcDbArc
 50
0.0
 51
180.0
  0
ARC
  5
6E
330
1F
100
AcDbEntity
  8
0
  6
Continuous
 62
     7
370
    25
100
AcDbCircle
 10
328.8274617684
 20
240.1129481613
 30
0.0
 40
7.0
100
AcDbArc
 50
180.0
 51
0.0
  0
ARC
  5
6F
330
1F
100
AcDbEntity
  8
0
  6
Continuous
 62
     7
370
    25
100
AcDbCircle
 10
303.8274617684
 20
240.1129481613
 30
0.0
 40
5.0
100
AcDbArc
 50
0.0
 51
180.0
  0
ARC
  5
70
330
1F
100
AcDbEntity
  8
0
  6
Continuous
 62
     7
370
    25
100
AcDbCircle
 10
303.8274617684
 20
240.1129481613
 30
0.0
 40
5.0
100
AcDbArc
 50
180.0
 51
0.0
  0
ARC
  5
71
330
1F
100
AcDbEntity
  8
0
  6
Continuous
 62
     7
370
    25
100
AcDbCircle
 10
223.8274617684
 20
240.1129481613
 30
0.0
 40
5.0
100
AcDbArc
 50
0.0
 51
180.0
  0
ARC
  5
72
330
1F
100
AcDbEntity
  8
0
  6
Continuous
 62
     7
370
    25
100
AcDbCircle
 10
223.8274617684
 20
240.1129481613
 30
0.0
 40
5.0
100
AcDbArc
 50
180.0
 51
0.0
  0
ARC
  5
73
330
1F
100
AcDbEntity
  8
0
  6
Continuous
 62
     7
370
    25
100
AcDbCircle
 10
198.8274617684
 20
240.1129481613
 30
0.0
 40
7.0
100
AcDbArc
 50
0.0
 51
180.0
  0
ARC
  5
74
330
1F
100
AcDbEntity
  8
0
  6
Continuous
 62
     7
370
    25
100
AcDbCircle
 10
198.8274617684
 20
240.1129481613
 30
0.0
 40
7.0
100
AcDbArc
 50
180.0
 51
0.0
  0
ARC
  5
75
330
1F
100
AcDbEntity
  8
0
  6
Continuous
 62
     7
370
    25
100
AcDbCircle
 10
68.8448128759
 20
53.2687380321
 30
0.0
 40
3.0
100
AcDbArc
 50
0.0
 51
180.0
  0
ARC
  5
76
330
1F
100
AcDbEntity
  8
0
  6
Continuous
 62
     7
370
    25
100
AcDbCircle
 10
68.8448128759
 20
53.2687380321
 30
0.0
 40
3.0
100
AcDbArc
 50
180.0
 51
0.0
  0
ARC
  5
77
330
1F
100
AcDbEntity
  8
0
  6
Continuous
 62
     7
370
    25
100
AcDbCircle
 10
24.0531616299
 20
0.850153745
 30
0.0
 40
2.500000000000004
100
AcDbArc
 50
0.0
 51
180.0
  0
ARC
  5
78
330
1F
100
AcDbEntity
  8
0
  6
Continuous
 62
     7
370
    25
100
AcDbCircle
 10
24.0531616299
 20
0.850153745
 30
0.0
 40
2.500000000000004
100
AcDbArc
 50
180.0
 51
0.0
  0
ARC
  5
79
330
1F
100
AcDbEntity
  8
0
  6
Continuous
 62
     7
370
    25
100
AcDbCircle
 10
164.1076072922
 20
108.2687380321
 30
0.0
 40
3.000000000000028
100
AcDbArc
 50
0.0
 51
180.0
  0
ARC
  5
7A
330
1F
100
AcDbEntity
  8
0
  6
Continuous
 62
     7
370
    25
100
AcDbCircle
 10
164.1076072922
 20
108.2687380321
 30
0.0
 40
3.000000000000028
100
AcDbArc
 50
180.0
 51
0.0
  0
ARC
  5
7B
330
1F
100
AcDbEntity
  8
0
  6
Continuous
 62
     7
370
    25
100
AcDbCircle
 10
327.1620529545
 20
175.850153745
 30
0.0
 40
2.500000000000057
100
AcDbArc
 50
0.0
 51
180.0
  0
ARC
  5
7C
330
1F
100
AcDbEntity
  8
0
  6
Continuous
 62
     7
370
    25
100
AcDbCircle
 10
327.1620529545
 20
175.850153745
 30
0.0
 40
2.500000000000057
100
AcDbArc
 50
180.0
 51
0.0
  0
ARC
  5
7D
330
1F
100
AcDbEntity
  8
0
  6
Continuous
 62
     7
370
    25
100
AcDbCircle
 10
289.6620529545
 20
240.8020590289
 30
0.0
 40
2.5
100
AcDbArc
 50
0.0
 51
180.0
  0
ARC
  5
7E
330
1F
100
AcDbEntity
  8
0
  6
Continuous
 62
     7
370
    25
100
AcDbCircle
 10
289.6620529545
 20
240.8020590289
 30
0.0
 40
2.5
100
AcDbArc
 50
180.0
 51
0.0
  0
ARC
  5
7F
330
1F
100
AcDbEntity
  8
0
  6
Continuous
 62
     7
370
    25
100
AcDbCircle
 10
-13.4468383701
 20
65.8020590289
 30
0.0
 40
2.500000000000004
100
AcDbArc
 50
0.0
 51
180.0
  0
ARC
  5
80
330
1F
100
AcDbEntity
  8
0
  6
Continuous
 62
     7
370
    25
100
AcDbCircle
 10
-13.4468383701
 20
65.8020590289
 30
0.0
 40
2.500000000000004
100
AcDbArc
 50
180.0
 51
0.0
  0
ARC
  5
81
330
1F
100
AcDbEntity
  8
0
  6
Continuous
 62
     7
370
    25
100
AcDbCircle
 10
259.3704017085
 20
163.2687380321
 30
0.0
 40
3.0
100
AcDbArc
 50
0.0
 51
180.0
  0
ARC
  5
82
330
1F
100
AcDbEntity
  8
0
  6
Continuous
 62
     7
370
    25
100
AcDbCircle
 10
259.3704017085
 20
163.2687380321
 30
0.0
 40
3.0
100
AcDbArc
 50
180.0
 51
0.0
  0
ARC
  5
83
330
1F
100
AcDbEntity
  8
0
  6
Continuous
 62
     7
370
    25
100
AcDbCircle
 10
-32.9109399852
 20
91.51487195
 30
0.0
 40
3.000000000000007
100
AcDbArc
 50
180.0
 51
210.0
  0
LINE
  5
84
330
1F
100
AcDbEntity
  8
0
  6
Continuous
 62
     7
370
    25
100
AcDbLine
 10
183.8274617684
 20
462.8726131403
 30
0.0
 11
183.8274617684
 21
478.8726131403
 31
0.0
  0
LINE
  5
85
330
1F
100
AcDbEntity
  8
0
  6
Continuous
 62
     7
370
    25
100
AcDbLine
 10
193.8274617684
 20
462.8726131403
 30
0.0
 11
183.8274617684
 21
462.8726131403
 31
0.0
  0
LINE
  5
86
330
1F
100
AcDbEntity
  8
0
  6
Continuous
 62
     7
370
    25
100
AcDbLine
 10
193.8274617684
 20
478.8726131403
 30
0.0
 11
183.8274617684
 21
478.8726131403
 31
0.0
  0
LINE
  5
87
330
1F
100
AcDbEntity
  8
0
  6
Continuous
 62
     7
370
    25
100
AcDbLine
 10
333.8274617684
 20
462.8726131403
 30
0.0
 11
193.8274617684
 21
462.8726131403
 31
0.0
  0
LINE
  5
88
330
1F
100
AcDbEntity
  8
0
  6
Continuous
 62
     7
370
    25
100
AcDbLine
 10
333.8274617684
 20
478.8726131403
 30
0.0
 11
193.8274617684
 21
478.8726131403
 31
0.0
  0
LINE
  5
89
330
1F
100
AcDbEntity
  8
0
  6
Continuous
 62
     7
370
    25
100
AcDbLine
 10
343.8274617684
 20
462.8726131403
 30
0.0
 11
343.8274617684
 21
478.8726131403
 31
0.0
  0
LINE
  5
8A
330
1F
100
AcDbEntity
  8
0
  6
Continuous
 62
     7
370
    25
100
AcDbLine
 10
343.8274617684
 20
462.8726131403
 30
0.0
 11
333.8274617684
 21
462.8726131403
 31
0.0
  0
LINE
  5
8B
330
1F
100
AcDbEntity
  8
0
  6
Continuous
 62
     7
370
    25
100
AcDbLine
 10
343.8274617684
 20
478.8726131403
 30
0.0
 11
333.8274617684
 21
478.8726131403
 31
0.0
  0
LINE
  5
8C
330
1F
100
AcDbEntity
  8
0
  6
Continuous
 62
     7
370
    25
100
AcDbLine
 10
183.8274617684
 20
462.8726131403
 30
0.0
 11
-34.4109399852
 21
462.8726131403
 31
0.0
  0
LINE
  5
8D
330
1F
100
AcDbEntity
  8
0
  6
Continuous
 62
     7
370
    25
100
AcDbLine
 10
183.8274617684
 20
478.8726131403
 30
0.0
 11
-34.4109399852
 21
478.8726131403
 31
0.0
  0
LINE
  5
8E
330
1F
100
AcDbEntity
  8
0
  6
Continuous
 62
     7
370
    25
100
AcDbLine
 10
-35.9109399852
 20
462.8726131403
 30
0.0
 11
-35.9109399852
 21
478.8726131403
 31
0.0
  0
LINE
  5
8F
330
1F
100
AcDbEntity
  8
0
  6
Continuous
 62
     7
370
    25
100
AcDbLine
 10
-34.4109399852
 20
462.8726131403
 30
0.0
 11
-35.9109399852
 21
462.8726131403
 31
0.0
  0
LINE
  5
90
330
1F
100
AcDbEntity
  8
0
  6
Continuous
 62
     7
370
    25
100
AcDbLine
 10
-34.4109399852
 20
478.8726131403
 30
0.0
 11
-35.9109399852
 21
478.8726131403
 31
0.0
  0
LINE
  5
91
330
1F
100
AcDbEntity
  8
0
  6
HIDDEN
 62
     7
370
    18
100
AcDbLine
 10
191.8274617684
 20
462.8726131403
 30
0.0
 11
191.8274617684
 21
478.8726131403
 31
0.0
  0
LINE
  5
92
330
1F
100
AcDbEntity
  8
0
  6
HIDDEN
 62
     7
370
    18
100
AcDbLine
 10
205.8274617684
 20
462.8726131403
 30
0.0
 11
205.8274617684
 21
478.8726131403
 31
0.0
  0
LINE
  5
93
330
1F
100
AcDbEntity
  8
0
  6
HIDDEN
 62
     7
370
    18
100
AcDbLine
 10
321.8274617684
 20
462.8726131403
 30
0.0
 11
321.8274617684
 21
478.8726131403
 31
0.0
  0
LINE
  5
94
330
1F
100
AcDbEntity
  8
0
  6
HIDDEN
 62
     7
370
    18
100
AcDbLine
 10
335.8274617684
 20
462.8726131403
 30
0.0
 11
335.8274617684
 21
478.8726131403
 31
0.0
  0
LINE
  5
95
330
1F
100
AcDbEntity
  8
0
  6
HIDDEN
 62
     7
370
    18
100
AcDbLine
 10
218.8274617684
 20
462.8726131403
 30
0.0
 11
218.8274617684
 21
478.8726131403
 31
0.0
  0
LINE
  5
96
330
1F
100
AcDbEntity
  8
0
  6
HIDDEN
 62
     7
370
    18
100
AcDbLine
 10
228.8274617684
 20
462.8726131403
 30
0.0
 11
228.8274617684
 21
478.8726131403
 31
0.0
  0
LINE
  5
97
330
1F
100
AcDbEntity
  8
0
  6
HIDDEN
 62
     7
370
    18
100
AcDbLine
 10
298.8274617684
 20
462.8726131403
 30
0.0
 11
298.8274617684
 21
478.8726131403
 31
0.0
  0
LINE
  5
98
330
1F
100
AcDbEntity
  8
0
  6
HIDDEN
 62
     7
370
    18
100
AcDbLine
 10
308.8274617684
 20
462.8726131403
 30
0.0
 11
308.8274617684
 21
478.8726131403
 31
0.0
  0
LINE
  5
99
330
1F
100
AcDbEntity
  8
0
  6
HIDDEN
 62
     7
370
    18
100
AcDbLine
 10
287.1620529545
 20
462.8726131403
 30
0.0
 11
287.1620529545
 21
478.8726131403
 31
0.0
  0
LINE
  5
9A
330
1F
100
AcDbEntity
  8
0
  6
HIDDEN
 62
     7
370
    18
100
AcDbLine
 10
292.1620529545
 20
462.8726131403
 30
0.0
 11
292.1620529545
 21
478.8726131403
 31
0.0
  0
LINE
  5
9B
330
1F
100
AcDbEntity
  8
0
  6
HIDDEN
 62
     7
370
    18
100
AcDbLine
 10
324.6620529545
 20
462.8726131403
 30
0.0
 11
324.6620529545
 21
478.8726131403
 31
0.0
  0
LINE
  5
9C
330
1F
100
AcDbEntity
  8
0
  6
HIDDEN
 62
     7
370
    18
100
AcDbLine
 10
329.6620529545
 20
462.8726131403
 30
0.0
 11
329.6620529545
 21
478.8726131403
 31
0.0
  0
LINE
  5
9D
330
1F
100
AcDbEntity
  8
0
  6
HIDDEN
 62
     7
370
    18
100
AcDbLine
 10
256.3704017085
 20
462.8726131403
 30
0.0
 11
256.3704017085
 21
478.8726131403
 31
0.0
  0
LINE
  5
9E
330
1F
100
AcDbEntity
  8
0
  6
HIDDEN
 62
     7
370
    18
100
AcDbLine
 10
262.3704017085
 20
462.8726131403
 30
0.0
 11
262.3704017085
 21
478.8726131403
 31
0.0
  0
LINE
  5
9F
330
1F
100
AcDbEntity
  8
0
  6
HIDDEN
 62
     7
370
    18
100
AcDbLine
 10
161.1076072922
 20
462.8726131403
 30
0.0
 11
161.1076072922
 21
478.8726131403
 31
0.0
  0
LINE
  5
A0
330
1F
100
AcDbEntity
  8
0
  6
HIDDEN
 62
     7
370
    18
100
AcDbLine
 10
167.1076072922
 20
462.8726131403
 30
0.0
 11
167.1076072922
 21
478.8726131403
 31
0.0
  0
LINE
  5
A1
330
1F
100
AcDbEntity
  8
0
  6
HIDDEN
 62
     7
370
    18
100
AcDbLine
 10
-15.9468383701
 20
462.8726131403
 30
0.0
 11
-15.9468383701
 21
478.8726131403
 31
0.0
  0
LINE
  5
A2
330
1F
100
AcDbEntity
  8
0
  6
HIDDEN
 62
     7
370
    18
100
AcDbLine
 10
-10.9468383701
 20
462.8726131403
 30
0.0
 11
-10.9468383701
 21
478.8726131403
 31
0.0
  0
LINE
  5
A3
330
1F
100
AcDbEntity
  8
0
  6
HIDDEN
 62
     7
370
    18
100
AcDbLine
 10
65.8448128759
 20
462.8726131403
 30
0.0
 11
65.8448128759
 21
478.8726131403
 31
0.0
  0
LINE
  5
A4
330
1F
100
AcDbEntity
  8
0
  6
HIDDEN
 62
     7
370
    18
100
AcDbLine
 10
71.8448128759
 20
462.8726131403
 30
0.0
 11
71.8448128759
 21
478.8726131403
 31
0.0
  0
LINE
  5
A5
330
1F
100
AcDbEntity
  8
0
  6
HIDDEN
 62
     7
370
    18
100
AcDbLine
 10
21.5531616299
 20
462.8726131403
 30
0.0
 11
21.5531616299
 21
478.8726131403
 31
0.0
  0
LINE
  5
A6
330
1F
100
AcDbEntity
  8
0
  6
HIDDEN
 62
     7
370
    18
100
AcDbLine
 10
26.5531616299
 20
462.8726131403
 30
0.0
 11
26.5531616299
 21
478.8726131403
 31
0.0
  0
LINE
  5
A7
330
1F
100
AcDbEntity
  8
0
  6
Continuous
 62
     7
370
    25
100
AcDbLine
 10
634.2492008768
 20
-18.8722781193
 30
0.0
 11
650.2492008768
 21
-18.8722781193
 31
0.0
  0
LINE
  5
A8
330
1F
100
AcDbEntity
  8
0
  6
Continuous
 62
     7
370
    25
100
AcDbLine
 10
634.2492008768
 20
162.3779212424
 30
0.0
 11
650.2492008768
 21
162.3779212424
 31
0.0
  0
LINE
  5
A9
330
1F
100
AcDbEntity
  8
0
  6
Continuous
 62
     7
370
    25
100
AcDbLine
 10
634.2492008768
 20
162.3779212424
 30
0.0
 11
634.2492008768
 21
255.1129481613
 31
0.0
  0
LINE
  5
AA
330
1F
100
AcDbEntity
  8
0
  6
Continuous
 62
     7
370
    25
100
AcDbLine
 10
650.2492008768
 20
162.3779212424
 30
0.0
 11
650.2492008768
 21
255.1129481613
 31
0.0
  0
LINE
  5
AB
330
1F
100
AcDbEntity
  8
0
  6
Continuous
 62
     7
370
    25
100
AcDbLine
 10
634.2492008768
 20
-18.4703543307
 30
0.0
 11
634.2492008768
 21
162.3779212424
 31
0.0
  0
LINE
  5
AC
330
1F
100
AcDbEntity
  8
0
  6
Continuous
 62
     7
370
    25
100
AcDbLine
 10
650.2492008768
 20
-18.4703543307
 30
0.0
 11
650.2492008768
 21
162.3779212424
 31
0.0
  0
LINE
  5
AD
330
1F
100
AcDbEntity
  8
0
  6
Continuous
 62
     7
370
    25
100
AcDbLine
 10
634.2492008768
 20
265.1129481613
 30
0.0
 11
650.2492008768
 21
265.1129481613
 31
0.0
  0
LINE
  5
AE
330
1F
100
AcDbEntity
  8
0
  6
Continuous
 62
     7
370
    25
100
AcDbLine
 10
634.2492008768
 20
255.1129481613
 30
0.0
 11
634.2492008768
 21
265.1129481613
 31
0.0
  0
LINE
  5
AF
330
1F
100
AcDbEntity
  8
0
  6
Continuous
 62
     7
370
    25
100
AcDbLine
 10
650.2492008768
 20
255.1129481613
 30
0.0
 11
650.2492008768
 21
265.1129481613
 31
0.0
  0
LINE
  5
B0
330
1F
100
AcDbEntity
  8
0
  6
Continuous
 62
     7
370
    25
100
AcDbLine
 10
634.2492008768
 20
-18.8722781193
 30
0.0
 11
634.2492008768
 21
-18.4703543307
 31
0.0
  0
LINE
  5
B1
330
1F
100
AcDbEntity
  8
0
  6
Continuous
 62
     7
370
    25
100
AcDbLine
 10
650.2492008768
 20
-18.8722781193
 30
0.0
 11
650.2492008768
 21
-18.4703543307
 31
0.0
  0
LINE
  5
B2
330
1F
100
AcDbEntity
  8
0
  6
HIDDEN
 62
     7
370
    18
100
AcDbLine
 10
634.2492008768
 20
220.1129481613
 30
0.0
 11
650.2492008768
 21
220.1129481613
 31
0.0
  0
LINE
  5
B3
330
1F
100
AcDbEntity
  8
0
  6
HIDDEN
 62
     7
370
    18
100
AcDbLine
 10
650.2492008768
 20
247.1129481613
 30
0.0
 11
634.2492008768
 21
247.1129481613
 31
0.0
  0
LINE
  5
B4
330
1F
100
AcDbEntity
  8
0
  6
HIDDEN
 62
     7
370
    18
100
AcDbLine
 10
634.2492008768
 20
233.1129481613
 30
0.0
 11
650.2492008768
 21
233.1129481613
 31
0.0
  0
LINE
  5
B5
330
1F
100
AcDbEntity
  8
0
  6
HIDDEN
 62
     7
370
    18
100
AcDbLine
 10
650.2492008768
 20
178.350153745
 30
0.0
 11
634.2492008768
 21
178.350153745
 31
0.0
  0
LINE
  5
B6
330
1F
100
AcDbEntity
  8
0
  6
HIDDEN
 62
     7
370
    18
100
AcDbLine
 10
634.2492008768
 20
173.350153745
 30
0.0
 11
650.2492008768
 21
173.350153745
 31
0.0
  0
LINE
  5
B7
330
1F
100
AcDbEntity
  8
0
  6
HIDDEN
 62
     7
370
    18
100
AcDbLine
 10
650.2492008768
 20
245.1129481613
 30
0.0
 11
634.2492008768
 21
245.1129481613
 31
0.0
  0
LINE
  5
B8
330
1F
100
AcDbEntity
  8
0
  6
HIDDEN
 62
     7
370
    18
100
AcDbLine
 10
634.2492008768
 20
235.1129481613
 30
0.0
 11
650.2492008768
 21
235.1129481613
 31
0.0
  0
LINE
  5
B9
330
1F
100
AcDbEntity
  8
0
  6
HIDDEN
 62
     7
370
    18
100
AcDbLine
 10
650.2492008768
 20
243.3020590289
 30
0.0
 11
634.2492008768
 21
243.3020590289
 31
0.0
  0
LINE
  5
BA
330
1F
100
AcDbEntity
  8
0
  6
HIDDEN
 62
     7
370
    18
100
AcDbLine
 10
634.2492008768
 20
238.3020590289
 30
0.0
 11
650.2492008768
 21
238.3020590289
 31
0.0
  0
LINE
  5
BB
330
1F
100
AcDbEntity
  8
0
  6
HIDDEN
 62
     7
370
    18
100
AcDbLine
 10
634.2492008768
 20
160.2687380321
 30
0.0
 11
650.2492008768
 21
160.2687380321
 31
0.0
  0
LINE
  5
BC
330
1F
100
AcDbEntity
  8
0
  6
HIDDEN
 62
     7
370
    18
100
AcDbLine
 10
650.2492008768
 20
166.2687380321
 30
0.0
 11
634.2492008768
 21
166.2687380321
 31
0.0
  0
LINE
  5
BD
330
1F
100
AcDbEntity
  8
0
  6
HIDDEN
 62
     7
370
    18
100
AcDbLine
 10
634.2492008768
 20
105.2687380321
 30
0.0
 11
650.2492008768
 21
105.2687380321
 31
0.0
  0
LINE
  5
BE
330
1F
100
AcDbEntity
  8
0
  6
HIDDEN
 62
     7
370
    18
100
AcDbLine
 10
650.2492008768
 20
111.2687380321
 30
0.0
 11
634.2492008768
 21
111.2687380321
 31
0.0
  0
LINE
  5
BF
330
1F
100
AcDbEntity
  8
0
  6
HIDDEN
 62
     7
370
    18
100
AcDbLine
 10
650.2492008768
 20
56.2687380321
 30
0.0
 11
634.2492008768
 21
56.2687380321
 31
0.0
  0
LINE
  5
C0
330
1F
100
AcDbEntity
  8
0
  6
HIDDEN
 62
     7
370
    18
100
AcDbLine
 10
634.2492008768
 20
50.2687380321
 30
0.0
 11
650.2492008768
 21
50.2687380321
 31
0.0
  0
LINE
  5
C1
330
1F
100
AcDbEntity
  8
0
  6
HIDDEN
 62
     7
370
    18
100
AcDbLine
 10
650.2492008768
 20
3.350153745
 30
0.0
 11
634.2492008768
 21
3.350153745
 31
0.0
  0
LINE
  5
C2
330
1F
100
AcDbEntity
  8
0
  6
HIDDEN
 62
     7
370
    18
100
AcDbLine
 10
634.2492008768
 20
-1.649846255
 30
0.0
 11
650.2492008768
 21
-1.649846255
 31
0.0
  0
LINE
  5
C3
330
1F
100
AcDbEntity
  8
0
  6
HIDDEN
 62
     7
370
    18
100
AcDbLine
 10
634.2492008768
 20
63.3020590289
 30
0.0
 11
650.2492008768
 21
63.3020590289
 31
0.0
  0
LINE
  5
C4
330
1F
100
AcDbEntity
  8
0
  6
HIDDEN
 62
     7
370
    18
100
AcDbLine
 10
650.2492008768
 20
68.3020590289
 30
0.0
 11
634.2492008768
 21
68.3020590289
 31
0.0
  0
LINE
  5
C5
330
1F
100
AcDbEntity
  8
0
  6
Continuous
 62
     7
370
    25
100
AcDbLine
 10
717.3902903944
 20
394.1855971071
 30
0.0
 11
717.3902903944
 21
407.2502500973
 31
0.0
  0
LINE
  5
C6
330
1F
100
AcDbEntity
  8
0
  6
Continuous
 62
     7
370
    25
100
AcDbLine
 10
755.0372427517
 20
553.5225305826
 30
0.0
 11
755.0372427517
 21
566.5871835728
 31
0.0
  0
ARC
  5
C7
330
1F
100
AcDbEntity
  8
0
  6
Continuous
 62
     7
370
    25
100
AcDbCircle
 10
632.1461875625
 20
583.3414182183
 30
0.0
 40
3.559594459033873
100
AcDbArc
 50
75.4757485669
 51
141.3904241684
  0
LINE
  5
C8
330
1F
100
AcDbEntity
  8
0
  6
Continuous
 62
     7
370
    25
100
AcDbLine
 10
752.813699887
 20
568.2600349037
 30
0.0
 11
633.0388974272
 21
586.7872536482
 31
0.0
  0
ARC
  5
C9
330
1F
100
AcDbEntity
  8
0
  6
Continuous
 62
     7
370
    25
100
AcDbCircle
 10
752.2716569164
 20
564.3920967826
 30
0.0
 40
3.905733719842732
100
AcDbArc
 50
61.1111612194
 51
82.0226660454
  0
ARC
  5
CA
330
1F
100
AcDbEntity
  8
0
  6
Continuous
 62
     7
370
    25
100
AcDbCircle
 10
753.6914521658
 20
566.5783626164
 30
0.0
 40
1.318919971809056
100
AcDbArc
 50
340.5389980879
 51
69.2579248011
  0
LINE
  5
CB
330
1F
100
AcDbEntity
  8
0
  6
Continuous
 62
     7
370
    25
100
AcDbLine
 10
689.7126208647
 20
425.6194326133
 30
0.0
 11
754.9350202306
 21
566.1389444096
 31
0.0
  0
LINE
  5
CC
330
1F
100
AcDbEntity
  8
0
  6
Continuous
 62
     7
370
    25
100
AcDbLine
 10
714.4613582063
 20
411.3322906564
 30
0.0
 11
689.7126208647
 21
425.6194326133
 31
0.0
  0
LWPOLYLINE
  5
CD
330
1F
100
AcDbEntity
  8
0
  6
Continuous
 62
     7
370
    25
100
AcDbPolyline
 90
        9
 70
   128
 43
0.0
 10
714.4613582063
 20
403.1682095382
 10
715.7049865174
 20
404.0430114101
 10
716.6290857195
 20
405.0410656661
 10
717.1981431984
 20
406.1240176408
 10
717.3902903944
 20
407.2502500973
 10
717.1981431984
 20
408.3764825538
 10
716.6290857195
 20
409.4594345285
 10
715.7049865174
 20
410.4574887845
 10
714.4613582063
 20
411.3322906564
  0
LINE
  5
CE
330
1F
100
AcDbEntity
  8
0
  6
Continuous
 62
     7
370
    25
100
AcDbLine
 10
615.4664088401
 20
346.0196417106
 30
0.0
 11
714.4613582063
 21
403.1682095382
 31
0.0
  0
ARC
  5
CF
330
1F
100
AcDbEntity
  8
0
  6
Continuous
 62
     7
370
    25
100
AcDbCircle
 10
608.3953410283
 20
359.6667525602
 30
0.0
 40
15.3702190791168
100
AcDbArc
 50
242.6096722366
 51
297.3903277634
  0
LINE
  5
D0
330
1F
100
AcDbEntity
  8
0
  6
Continuous
 62
     7
370
    25
100
AcDbLine
 10
535.7507068285
 20
383.874455824
 30
0.0
 11
601.3242732164
 21
346.0196417106
 31
0.0
  0
LINE
  5
D1
330
1F
100
AcDbEntity
  8
0
  6
Continuous
 62
     7
370
    25
100
AcDbLine
 10
629.364662813
 20
585.5626414805
 30
0.0
 11
535.7507068285
 21
383.874455824
 31
0.0
  0
LWPOLYLINE
  5
D2
330
1F
100
AcDbEntity
  8
0
  6
Continuous
 62
     7
370
    25
100
AcDbPolyline
 90
       15
 70
   128
 43
0.0
 10
596.3745257481
 20
355.4083349966
 10
597.6000486808
 20
354.8441390578
 10
599.0123197827
 20
354.4515176503
 10
600.5405218837
 20
354.2501584511
 10
602.1080245491
 20
354.2501584511
 10
603.6362266501
 20
354.4515176503
 10
605.048497752
 20
354.8441390578
 10
606.2740206847
 20
355.4083349966
 10
607.251342611
 20
356.1158143265
 10
607.9314565286
 20
356.9311010798
 10
608.2802586857
 20
357.8133133742
 10
608.2802586857
 20
358.7182134017
 10
607.9314565286
 20
359.6004256961
 10
607.251342611
 20
360.4157124494
 10
606.2740206847
 20
361.1231917793
  0
LWPOLYLINE
  5
D3
330
1F
100
AcDbEntity
  8
0
  6
Continuous
 62
     7
370
    25
100
AcDbPolyline
 90
       15
 70
   128
 43
0.0
 10
606.2740206847
 20
361.1231917793
 10
605.048497752
 20
361.6873877181
 10
603.6362266501
 20
362.0800091256
 10
602.1080245491
 20
362.2813683248
 10
600.5405218837
 20
362.2813683248
 10
599.0123197827
 20
362.0800091256
 10
597.6000486808
 20
361.6873877181
 10
596.3745257481
 20
361.1231917793
 10
595.3972038218
 20
360.4157124494
 10
594.7170899042
 20
359.6004256961
 10
594.3682877472
 20
358.7182134017
 10
594.3682877472
 20
357.8133133742
 10
594.7170899042
 20
356.9311010798
 10
595.3972038218
 20
356.1158143265
 10
596.3745257481
 20
355.4083349966
  0
LWPOLYLINE
  5
D4
330
1F
100
AcDbEntity
  8
0
  6
Continuous
 62
     7
370
    25
100
AcDbPolyline
 90
       13
 70
   128
 43
0.0
 10
615.4664088401
 20
366.4298445062
 10
616.5019427461
 20
365.9711356659
 10
617.7078475206
 20
365.6827792342
 10
619.0019427461
 20
365.5844262253
 10
620.2960379716
 20
365.6827792342
 10
621.5019427461
 20
365.9711356659
 10
622.537476652
 20
366.4298445062
 10
623.332069765
 20
367.0276455055
 10
623.8315718775
 20
367.7237995138
 10
624.0019427461
 20
368.4708647857
 10
623.8315718775
 20
369.2179300577
 10
623.332069765
 20
369.9140840659
 10
622.537476652
 20
370.5118850653
  0
LWPOLYLINE
  5
D5
330
1F
100
AcDbEntity
  8
0
  6
Continuous
 62
     7
370
    25
100
AcDbPolyline
 90
       13
 70
   128
 43
0.0
 10
622.537476652
 20
370.5118850653
 10
621.5019427461
 20
370.9705939055
 10
620.2960379716
 20
371.2589503372
 10
619.0019427461
 20
371.3573033462
 10
617.7078475206
 20
371.2589503372
 10
616.5019427461
 20
370.9705939055
 10
615.4664088401
 20
370.5118850653
 10
614.6718157271
 20
369.9140840659
 10
614.1723136146
 20
369.2179300577
 10
614.0019427461
 20
368.4708647857
 10
614.1723136146
 20
367.7237995138
 10
614.6718157271
 20
367.0276455055
 10
615.4664088401
 20
366.4298445062
  0
LWPOLYLINE
  5
D6
330
1F
100
AcDbEntity
  8
0
  6
Continuous
 62
     7
370
    25
100
AcDbPolyline
 90
       13
 70
   128
 43
0.0
 10
672.0349513351
 20
399.0861689791
 10
673.070485241
 20
398.6274601389
 10
674.2763900155
 20
398.3391037071
 10
675.570485241
 20
398.2407506982
 10
676.8645804665
 20
398.3391037071
 10
678.070485241
 20
398.6274601389
 10
679.1060191469
 20
399.0861689791
 10
679.9006122599
 20
399.6839699784
 10
680.4001143724
 20
400.3801239867
 10
680.570485241
 20
401.1271892586
 10
680.4001143724
 20
401.8742545306
 10
679.9006122599
 20
402.5704085389
 10
679.1060191469
 20
403.1682095382
  0
LWPOLYLINE
  5
D7
330
1F
100
AcDbEntity
  8
0
  6
Continuous
 62
     7
370
    25
100
AcDbPolyline
 90
       13
 70
   128
 43
0.0
 10
679.1060191469
 20
403.1682095382
 10
678.070485241
 20
403.6269183784
 10
676.8645804665
 20
403.9152748102
 10
675.570485241
 20
404.0136278191
 10
674.2763900155
 20
403.9152748102
 10
673.070485241
 20
403.6269183784
 10
672.0349513351
 20
403.1682095382
 10
671.2403582221
 20
402.5704085389
 10
670.7408561095
 20
401.8742545306
 10
670.570485241
 20
401.1271892586
 10
670.7408561095
 20
400.3801239867
 10
671.2403582221
 20
399.6839699784
 10
672.0349513351
 20
399.0861689791
  0
LWPOLYLINE
  5
D8
330
1F
100
AcDbEntity
  8
0
  6
Continuous
 62
     7
370
    25
100
AcDbPolyline
 90
       15
 70
   128
 43
0.0
 10
688.2984073023
 20
408.474862265
 10
689.523930235
 20
407.9106663262
 10
690.936201337
 20
407.5180449188
 10
692.4644034379
 20
407.3166857196
 10
694.0319061034
 20
407.3166857196
 10
695.5601082043
 20
407.5180449188
 10
696.9723793063
 20
407.9106663262
 10
698.197902239
 20
408.474862265
 10
699.1752241653
 20
409.182341595
 10
699.8553380828
 20
409.9976283482
 10
700.2041402399
 20
410.8798406427
 10
700.2041402399
 20
411.7847406701
 10
699.8553380828
 20
412.6669529646
 10
699.1752241653
 20
413.4822397179
 10
698.197902239
 20
414.1897190478
  0
LWPOLYLINE
  5
D9
330
1F
100
AcDbEntity
  8
0
  6
Continuous
 62
     7
370
    25
100
AcDbPolyline
 90
       15
 70
   128
 43
0.0
 10
698.197902239
 20
414.1897190478
 10
696.9723793063
 20
414.7539149866
 10
695.5601082043
 20
415.146536394
 10
694.0319061034
 20
415.3478955933
 10
692.4644034379
 20
415.3478955933
 10
690.936201337
 20
415.146536394
 10
689.523930235
 20
414.7539149866
 10
688.2984073023
 20
414.1897190478
 10
687.3210853761
 20
413.4822397179
 10
686.6409714585
 20
412.6669529646
 10
686.2921693014
 20
411.7847406701
 10
686.2921693014
 20
410.8798406427
 10
686.6409714585
 20
409.9976283482
 10
687.3210853761
 20
409.182341595
 10
688.2984073023
 20
408.474862265
  0
LWPOLYLINE
  5
DA
330
1F
100
AcDbEntity
  8
0
  6
Continuous
 62
     7
370
    25
100
AcDbPolyline
 90
       10
 70
   128
 43
0.0
 10
650.9196388878
 20
539.437687363
 10
651.7731044461
 20
539.0926984843
 10
652.7794920031
 20
538.9370266566
 10
653.8174163666
 20
538.9894481999
 10
654.7616885404
 20
539.2436403023
 10
655.4984153642
 20
539.6689436448
 10
655.9387367102
 20
540.2140603676
 10
656.0295433256
 20
540.8132413488
 10
655.7598825924
 20
541.394216519
 10
655.1622795749
 20
541.8869116985
  0
LWPOLYLINE
  5
DB
330
1F
100
AcDbEntity
  8
0
  6
Continuous
 62
     7
370
    25
100
AcDbPolyline
 90
       10
 70
   128
 43
0.0
 10
655.1622795749
 20
541.8869116985
 10
654.3088140166
 20
542.2319005773
 10
653.3024264596
 20
542.3875724049
 10
652.264502096
 20
542.3351508617
 10
651.3202299223
 20
542.0809587593
 10
650.5835030985
 20
541.6556554167
 10
650.1431817525
 20
541.110538694
 10
650.0523751371
 20
540.5113577128
 10
650.3220358702
 20
539.9303825426
 10
650.9196388878
 20
539.437687363
  0
LWPOLYLINE
  5
DC
330
1F
100
AcDbEntity
  8
0
  6
Continuous
 62
     7
370
    25
100
AcDbPolyline
 90
        9
 70
   128
 43
0.0
 10
645.8801362054
 20
579.3234018117
 10
646.6911945774
 20
579.0105511975
 10
647.6479031583
 20
578.9006926712
 10
648.6046117393
 20
579.0105511975
 10
649.4156701113
 20
579.3234018117
 10
649.9576019896
 20
579.7916158437
 10
650.1479031583
 20
580.3439119515
 10
649.9576019896
 20
580.8962080593
 10
649.4156701113
 20
581.3644220912
  0
LWPOLYLINE
  5
DD
330
1F
100
AcDbEntity
  8
0
  6
Continuous
 62
     7
370
    25
100
AcDbPolyline
 90
        9
 70
   128
 43
0.0
 10
649.4156701113
 20
581.3644220912
 10
648.6046117393
 20
581.6772727054
 10
647.6479031583
 20
581.7871312317
 10
646.6911945774
 20
581.6772727054
 10
645.8801362054
 20
581.3644220912
 10
645.3382043271
 20
580.8962080593
 10
645.1479031583
 20
580.3439119515
 10
645.3382043271
 20
579.7916158437
 10
645.8801362054
 20
579.3234018117
  0
LWPOLYLINE
  5
DE
330
1F
100
AcDbEntity
  8
0
  6
Continuous
 62
     7
370
    25
100
AcDbPolyline
 90
       10
 70
   128
 43
0.0
 10
622.4495439265
 20
478.0998052297
 10
623.3030094848
 20
477.754816351
 10
624.3093970418
 20
477.5991445233
 10
625.3473214054
 20
477.6515660666
 10
626.2915935791
 20
477.905758169
 10
627.0283204029
 20
478.3310615115
 10
627.4686417489
 20
478.8761782343
 10
627.5594483643
 20
479.4753592155
 10
627.2897876312
 20
480.0563343857
 10
626.6921846136
 20
480.5490295652
  0
LWPOLYLINE
  5
DF
330
1F
100
AcDbEntity
  8
0
  6
Continuous
 62
     7
370
    25
100
AcDbPolyline
 90
       10
 70
   128
 43
0.0
 10
626.6921846136
 20
480.5490295652
 10
625.8387190553
 20
480.8940184439
 10
624.8323314983
 20
481.0496902716
 10
623.7944071347
 20
480.9972687284
 10
622.850134961
 20
480.743076626
 10
622.1134081372
 20
480.3177732834
 10
621.6730867912
 20
479.7726565607
 10
621.5822801758
 20
479.1734755795
 10
621.8519409089
 20
478.5925004093
 10
622.4495439265
 20
478.0998052297
  0
LWPOLYLINE
  5
E0
330
1F
100
AcDbEntity
  8
0
  6
Continuous
 62
     7
370
    25
100
AcDbPolyline
 90
        9
 70
   128
 43
0.0
 10
555.2934704195
 20
384.1574132057
 10
556.1045287916
 20
383.8445625916
 10
557.0612373725
 20
383.7347040653
 10
558.0179459534
 20
383.8445625916
 10
558.8290043254
 20
384.1574132057
 10
559.3709362037
 20
384.6256272377
 10
559.5612373725
 20
385.1779233455
 10
559.3709362037
 20
385.7302194533
 10
558.8290043254
 20
386.1984334853
  0
LWPOLYLINE
  5
E1
330
1F
100
AcDbEntity
  8
0
  6
Continuous
 62
     7
370
    25
100
AcDbPolyline
 90
        9
 70
   128
 43
0.0
 10
558.8290043254
 20
386.1984334853
 10
558.0179459534
 20
386.5112840994
 10
557.0612373725
 20
386.6211426257
 10
556.1045287916
 20
386.5112840994
 10
555.2934704195
 20
386.1984334853
 10
554.7515385412
 20
385.7302194533
 10
554.5612373725
 20
385.1779233455
 10
554.7515385412
 20
384.6256272377
 10
555.2934704195
 20
384.1574132057
  0
LWPOLYLINE
  5
E2
330
1F
100
AcDbEntity
  8
0
  6
Continuous
 62
     7
370
    25
100
AcDbPolyline
 90
        9
 70
   128
 43
0.0
 10
627.7379073912
 20
372.9514341264
 10
628.5489657632
 20
372.6385835122
 10
629.5056743441
 20
372.5287249859
 10
630.4623829251
 20
372.6385835122
 10
631.2734412971
 20
372.9514341264
 10
631.8153731754
 20
373.4196481583
 10
632.0056743441
 20
373.9719442661
 10
631.8153731754
 20
374.524240374
 10
631.2734412971
 20
374.9924544059
  0
LWPOLYLINE
  5
E3
330
1F
100
AcDbEntity
  8
0
  6
Continuous
 62
     7
370
    25
100
AcDbPolyline
 90
        9
 70
   128
 43
0.0
 10
631.2734412971
 20
374.9924544059
 10
630.4623829251
 20
375.3053050201
 10
629.5056743441
 20
375.4151635464
 10
628.5489657632
 20
375.3053050201
 10
627.7379073912
 20
374.9924544059
 10
627.1959755129
 20
374.524240374
 10
627.0056743441
 20
373.9719442661
 10
627.1959755129
 20
373.4196481583
 10
627.7379073912
 20
372.9514341264
  0
LWPOLYLINE
  5
E4
330
1F
100
AcDbEntity
  8
0
  6
Continuous
 62
     7
370
    25
100
AcDbPolyline
 90
        9
 70
   128
 43
0.0
 10
718.3245731771
 20
568.1174227323
 10
719.1356315491
 20
567.8045721182
 10
720.09234013
 20
567.6947135919
 10
721.0490487109
 20
567.8045721182
 10
721.860107083
 20
568.1174227323
 10
722.4020389613
 20
568.5856367643
 10
722.59234013
 20
569.1379328721
 10
722.4020389613
 20
569.6902289799
 10
721.860107083
 20
570.1584430119
  0
LWPOLYLINE
  5
E5
330
1F
100
AcDbEntity
  8
0
  6
Continuous
 62
     7
370
    25
100
AcDbPolyline
 90
        9
 70
   128
 43
0.0
 10
721.860107083
 20
570.1584430119
 10
721.0490487109
 20
570.471293626
 10
720.09234013
 20
570.5811521523
 10
719.1356315491
 20
570.471293626
 10
718.3245731771
 20
570.1584430119
 10
717.7826412988
 20
569.6902289799
 10
717.59234013
 20
569.1379328721
 10
717.7826412988
 20
568.5856367643
 10
718.3245731771
 20
568.1174227323
  0
LWPOLYLINE
  5
E6
330
1F
100
AcDbEntity
  8
0
  6
Continuous
 62
     7
370
    25
100
AcDbPolyline
 90
       10
 70
   128
 43
0.0
 10
593.9794489652
 20
416.7619230964
 10
594.8329145236
 20
416.4169342177
 10
595.8393020805
 20
416.26126239
 10
596.8772264441
 20
416.3136839333
 10
597.8214986178
 20
416.5678760357
 10
598.5582254416
 20
416.9931793782
 10
598.9985467876
 20
417.538296101
 10
599.0893534031
 20
418.1374770822
 10
598.8196926699
 20
418.7184522524
 10
598.2220896523
 20
419.2111474319
  0
LWPOLYLINE
  5
E7
330
1F
100
AcDbEntity
  8
0
  6
Continuous
 62
     7
370
    25
100
AcDbPolyline
 90
       10
 70
   128
 43
0.0
 10
598.2220896523
 20
419.2111474319
 10
597.368624094
 20
419.5561363106
 10
596.362236537
 20
419.7118081383
 10
595.3243121735
 20
419.6593865951
 10
594.3800399997
 20
419.4051944927
 10
593.6433131759
 20
418.9798911501
 10
593.2029918299
 20
418.4347744273
 10
593.1121852145
 20
417.8355934462
 10
593.3818459477
 20
417.254618276
 10
593.9794489652
 20
416.7619230964
  0
ARC
  5
E8
330
1F
100
AcDbEntity
  8
0
  6
Continuous
 62
     7
370
    25
100
AcDbCircle
 10
608.3953410283
 20
346.60209957
 30
0.0
 40
15.3702190791162
100
AcDbArc
 50
242.6096722366
 51
297.3903277634
  0
LINE
  5
E9
330
1F
100
AcDbEntity
  8
0
  6
Continuous
 62
     7
370
    25
100
AcDbLine
 10
615.4664088401
 20
332.9549887204
 30
0.0
 11
714.4613582063
 21
390.103556548
 31
0.0
  0
LINE
  5
EA
330
1F
100
AcDbEntity
  8
0
  6
Continuous
 62
     7
370
    25
100
AcDbLine
 10
535.7507068285
 20
383.874455824
 30
0.0
 11
535.7507068285
 21
370.8098028338
 31
0.0
  0
LINE
  5
EB
330
1F
100
AcDbEntity
  8
0
  6
Continuous
 62
     7
370
    25
100
AcDbLine
 10
535.7507068285
 20
370.8098028338
 30
0.0
 11
601.3242732164
 21
332.9549887204
 31
0.0
  0
ARC
  5
EC
330
1F
100
AcDbEntity
  8
0
  6
Continuous
 62
     7
370
    25
100
AcDbCircle
 10
712.3857197695
 20
394.6846608761
 30
0.0
 40
5.029392784937191
100
AcDbArc
 50
294.3746582936
 51
354.3052007488
  0
LINE
  5
ED
330
1F
100
AcDbEntity
  8
0
  6
Continuous
 62
     7
370
    25
100
AcDbLine
 10
694.495133946
 20
422.8585465786
 30
0.0
 11
754.9350202306
 21
553.0742914194
 31
0.0
  0
LWPOLYLINE
  5
EE
330
1F
100
AcDbEntity
  8
0
  6
Continuous
 62
     7
370
    25
100
AcDbPolyline
 90
        3
 70
   128
 43
0.0
 10
754.9350202306
 20
553.0742914194
 10
755.0115773358
 20
553.296477082
 10
755.0372427517
 20
553.5225305826
  0
LWPOLYLINE
  5
EF
330
1F
100
AcDbEntity
  8
0
  6
HIDDEN
 62
     7
370
    18
100
AcDbPolyline
 90
       15
 70
   128
 43
0.0
 10
596.3745257481
 20
342.3436820064
 10
597.6000486808
 20
341.7794860676
 10
599.0123197827
 20
341.3868646602
 10
600.5405218837
 20
341.1855054609
 10
602.1080245491
 20
341.1855054609
 10
603.6362266501
 20
341.3868646602
 10
605.048497752
 20
341.7794860676
 10
606.2740206847
 20
342.3436820064
 10
607.251342611
 20
343.0511613363
 10
607.9314565286
 20
343.8664480896
 10
608.2802586857
 20
344.7486603841
 10
608.2802586857
 20
345.6535604115
 10
607.9314565286
 20
346.535772706
 10
607.251342611
 20
347.3510594592
 10
606.2740206847
 20
348.0585387892
  0
LWPOLYLINE
  5
F0
330
1F
100
AcDbEntity
  8
0
  6
HIDDEN
 62
     7
370
    18
100
AcDbPolyline
 90
       15
 70
   128
 43
0.0
 10
606.2740206847
 20
348.0585387892
 10
605.048497752
 20
348.622734728
 10
603.6362266501
 20
349.0153561354
 10
602.1080245491
 20
349.2167153346
 10
600.5405218837
 20
349.2167153346
 10
599.0123197827
 20
349.0153561354
 10
597.6000486808
 20
348.622734728
 10
596.3745257481
 20
348.0585387892
 10
595.3972038218
 20
347.3510594592
 10
594.7170899042
 20
346.535772706
 10
594.3682877472
 20
345.6535604115
 10
594.3682877472
 20
344.7486603841
 10
594.7170899042
 20
343.8664480896
 10
595.3972038218
 20
343.0511613363
 10
596.3745257481
 20
342.3436820064
  0
LWPOLYLINE
  5
F1
330
1F
100
AcDbEntity
  8
0
  6
HIDDEN
 62
     7
370
    18
100
AcDbPolyline
 90
       13
 70
   128
 43
0.0
 10
615.4664088401
 20
353.365191516
 10
616.5019427461
 20
352.9064826758
 10
617.7078475206
 20
352.618126244
 10
619.0019427461
 20
352.5197732351
 10
620.2960379716
 20
352.618126244
 10
621.5019427461
 20
352.9064826758
 10
622.537476652
 20
353.365191516
 10
623.332069765
 20
353.9629925153
 10
623.8315718775
 20
354.6591465236
 10
624.0019427461
 20
355.4062117956
 10
623.8315718775
 20
356.1532770675
 10
623.332069765
 20
356.8494310758
 10
622.537476652
 20
357.4472320751
  0
LWPOLYLINE
  5
F2
330
1F
100
AcDbEntity
  8
0
  6
HIDDEN
 62
     7
370
    18
100
AcDbPolyline
 90
       13
 70
   128
 43
0.0
 10
622.537476652
 20
357.4472320751
 10
621.5019427461
 20
357.9059409154
 10
620.2960379716
 20
358.1942973471
 10
619.0019427461
 20
358.292650356
 10
617.7078475206
 20
358.1942973471
 10
616.5019427461
 20
357.9059409154
 10
615.4664088401
 20
357.4472320751
 10
614.6718157271
 20
356.8494310758
 10
614.1723136146
 20
356.1532770675
 10
614.0019427461
 20
355.4062117956
 10
614.1723136146
 20
354.6591465236
 10
614.6718157271
 20
353.9629925153
 10
615.4664088401
 20
353.365191516
  0
LWPOLYLINE
  5
F3
330
1F
100
AcDbEntity
  8
0
  6
HIDDEN
 62
     7
370
    18
100
AcDbPolyline
 90
        9
 70
   128
 43
0.0
 10
627.7379073912
 20
359.8867811362
 10
628.5489657632
 20
359.5739305221
 10
629.5056743441
 20
359.4640719958
 10
630.4623829251
 20
359.5739305221
 10
631.2734412971
 20
359.8867811362
 10
631.8153731754
 20
360.3549951682
 10
632.0056743441
 20
360.907291276
 10
631.8153731754
 20
361.4595873838
 10
631.2734412971
 20
361.9278014157
  0
LWPOLYLINE
  5
F4
330
1F
100
AcDbEntity
  8
0
  6
HIDDEN
 62
     7
370
    18
100
AcDbPolyline
 90
        9
 70
   128
 43
0.0
 10
631.2734412971
 20
361.9278014157
 10
630.4623829251
 20
362.2406520299
 10
629.5056743441
 20
362.3505105562
 10
628.5489657632
 20
362.2406520299
 10
627.7379073912
 20
361.9278014157
 10
627.1959755129
 20
361.4595873838
 10
627.0056743441
 20
360.907291276
 10
627.1959755129
 20
360.3549951682
 10
627.7379073912
 20
359.8867811362
  0
LWPOLYLINE
  5
F5
330
1F
100
AcDbEntity
  8
0
  6
HIDDEN
 62
     7
370
    18
100
AcDbPolyline
 90
        9
 70
   128
 43
0.0
 10
555.2934704195
 20
371.0927602155
 10
556.1045287916
 20
370.7799096014
 10
557.0612373725
 20
370.6700510751
 10
558.0179459534
 20
370.7799096014
 10
558.8290043254
 20
371.0927602155
 10
559.3709362037
 20
371.5609742475
 10
559.5612373725
 20
372.1132703553
 10
559.3709362037
 20
372.6655664631
 10
558.8290043254
 20
373.1337804951
  0
LINE
  5
F6
330
1F
100
AcDbEntity
  8
0
  6
HIDDEN
 62
     7
370
    18
100
AcDbLine
 10
629.364662813
 20
572.4979884903
 30
0.0
 11
535.7507068285
 21
370.8098028338
 31
0.0
  0
LWPOLYLINE
  5
F7
330
1F
100
AcDbEntity
  8
0
  6
HIDDEN
 62
     7
370
    18
100
AcDbPolyline
 90
        9
 70
   128
 43
0.0
 10
558.8290043254
 20
373.1337804951
 10
558.0179459534
 20
373.4466311092
 10
557.0612373725
 20
373.5564896355
 10
556.1045287916
 20
373.4466311092
 10
555.2934704195
 20
373.1337804951
 10
554.7515385412
 20
372.6655664631
 10
554.5612373725
 20
372.1132703553
 10
554.7515385412
 20
371.5609742475
 10
555.2934704195
 20
371.0927602155
  0
LWPOLYLINE
  5
F8
330
1F
100
AcDbEntity
  8
0
  6
HIDDEN
 62
     7
370
    18
100
AcDbPolyline
 90
       13
 70
   128
 43
0.0
 10
672.0349513351
 20
386.0215159889
 10
673.070485241
 20
385.5628071487
 10
674.2763900155
 20
385.274450717
 10
675.570485241
 20
385.176097708
 10
676.8645804665
 20
385.274450717
 10
678.070485241
 20
385.5628071487
 10
679.1060191469
 20
386.0215159889
 10
679.9006122599
 20
386.6193169883
 10
680.4001143724
 20
387.3154709965
 10
680.570485241
 20
388.0625362685
 10
680.4001143724
 20
388.8096015404
 10
679.9006122599
 20
389.5057555487
 10
679.1060191469
 20
390.103556548
  0
LWPOLYLINE
  5
F9
330
1F
100
AcDbEntity
  8
0
  6
HIDDEN
 62
     7
370
    18
100
AcDbPolyline
 90
       13
 70
   128
 43
0.0
 10
679.1060191469
 20
390.103556548
 10
678.070485241
 20
390.5622653883
 10
676.8645804665
 20
390.85062182
 10
675.570485241
 20
390.9489748289
 10
674.2763900155
 20
390.85062182
 10
673.070485241
 20
390.5622653883
 10
672.0349513351
 20
390.103556548
 10
671.2403582221
 20
389.5057555487
 10
670.7408561095
 20
388.8096015404
 10
670.570485241
 20
388.0625362685
 10
670.7408561095
 20
387.3154709965
 10
671.2403582221
 20
386.6193169883
 10
672.0349513351
 20
386.0215159889
  0
ARC
  5
FA
330
1F
100
AcDbEntity
  8
0
  6
HIDDEN
 62
     7
370
    18
100
AcDbCircle
 10
712.3857197695
 20
393.6865333382
 30
0.0
 40
5.029392784937191
100
AcDbArc
 50
5.6947992512
 51
65.6253417064
  0
LWPOLYLINE
  5
FB
330
1F
100
AcDbEntity
  8
0
  6
HIDDEN
 62
     7
370
    18
100
AcDbPolyline
 90
       15
 70
   128
 43
0.0
 10
688.2984073023
 20
395.4102092749
 10
689.523930235
 20
394.8460133361
 10
690.936201337
 20
394.4533919286
 10
692.4644034379
 20
394.2520327294
 10
694.0319061034
 20
394.2520327294
 10
695.5601082043
 20
394.4533919286
 10
696.9723793063
 20
394.8460133361
 10
698.197902239
 20
395.4102092749
 10
699.1752241653
 20
396.1176886048
 10
699.8553380828
 20
396.9329753581
 10
700.2041402399
 20
397.8151876525
 10
700.2041402399
 20
398.72008768
 10
699.8553380828
 20
399.6022999744
 10
699.1752241653
 20
400.4175867277
 10
698.197902239
 20
401.1250660576
  0
LWPOLYLINE
  5
FC
330
1F
100
AcDbEntity
  8
0
  6
HIDDEN
 62
     7
370
    18
100
AcDbPolyline
 90
       15
 70
   128
 43
0.0
 10
698.197902239
 20
401.1250660576
 10
696.9723793063
 20
401.6892619964
 10
695.5601082043
 20
402.0818834039
 10
694.0319061034
 20
402.2832426031
 10
692.4644034379
 20
402.2832426031
 10
690.936201337
 20
402.0818834039
 10
689.523930235
 20
401.6892619964
 10
688.2984073023
 20
401.1250660576
 10
687.3210853761
 20
400.4175867277
 10
686.6409714585
 20
399.6022999744
 10
686.2921693014
 20
398.72008768
 10
686.2921693014
 20
397.8151876525
 10
686.6409714585
 20
396.9329753581
 10
687.3210853761
 20
396.1176886048
 10
688.2984073023
 20
395.4102092749
  0
LINE
  5
FD
330
1F
100
AcDbEntity
  8
0
  6
HIDDEN
 62
     7
370
    18
100
AcDbLine
 10
714.4613582063
 20
398.2676376663
 30
0.0
 11
689.7126208647
 21
412.5547796232
 31
0.0
  0
LWPOLYLINE
  5
FE
330
1F
100
AcDbEntity
  8
0
  6
HIDDEN
 62
     7
370
    18
100
AcDbPolyline
 90
       10
 70
   128
 43
0.0
 10
593.9794489652
 20
403.6972701063
 10
594.8329145236
 20
403.3522812275
 10
595.8393020805
 20
403.1966093998
 10
596.8772264441
 20
403.2490309431
 10
597.8214986178
 20
403.5032230455
 10
598.5582254416
 20
403.9285263881
 10
598.9985467876
 20
404.4736431108
 10
599.0893534031
 20
405.072824092
 10
598.8196926699
 20
405.6537992622
 10
598.2220896523
 20
406.1464944417
  0
LWPOLYLINE
  5
FF
330
1F
100
AcDbEntity
  8
0
  6
HIDDEN
 62
     7
370
    18
100
AcDbPolyline
 90
       10
 70
   128
 43
0.0
 10
598.2220896523
 20
406.1464944417
 10
597.368624094
 20
406.4914833205
 10
596.362236537
 20
406.6471551482
 10
595.3243121735
 20
406.5947336049
 10
594.3800399997
 20
406.3405415025
 10
593.6433131759
 20
405.9152381599
 10
593.2029918299
 20
405.3701214372
 10
593.1121852145
 20
404.770940456
 10
593.3818459477
 20
404.1899652858
 10
593.9794489652
 20
403.6972701063
  0
LINE
  5
100
330
1F
100
AcDbEntity
  8
0
  6
HIDDEN
 62
     7
370
    18
100
AcDbLine
 10
689.7126208647
 20
425.6194326133
 30
0.0
 11
689.7126208647
 21
412.5547796232
 31
0.0
  0
LINE
  5
101
330
1F
100
AcDbEntity
  8
0
  6
HIDDEN
 62
     7
370
    18
100
AcDbLine
 10
689.7126208647
 20
412.5547796232
 30
0.0
 11
694.495133946
 21
422.8585465786
 31
0.0
  0
LWPOLYLINE
  5
102
330
1F
100
AcDbEntity
  8
0
  6
HIDDEN
 62
     7
370
    18
100
AcDbPolyline
 90
       10
 70
   128
 43
0.0
 10
622.4495439265
 20
465.0351522396
 10
623.3030094848
 20
464.6901633608
 10
624.3093970418
 20
464.5344915331
 10
625.3473214054
 20
464.5869130764
 10
626.2915935791
 20
464.8411051788
 10
627.0283204029
 20
465.2664085214
 10
627.4686417489
 20
465.8115252441
 10
627.5594483643
 20
466.4107062253
 10
627.2897876312
 20
466.9916813955
 10
626.6921846136
 20
467.484376575
  0
LWPOLYLINE
  5
103
330
1F
100
AcDbEntity
  8
0
  6
HIDDEN
 62
     7
370
    18
100
AcDbPolyline
 90
       10
 70
   128
 43
0.0
 10
626.6921846136
 20
467.484376575
 10
625.8387190553
 20
467.8293654538
 10
624.8323314983
 20
467.9850372815
 10
623.7944071347
 20
467.9326157382
 10
622.850134961
 20
467.6784236358
 10
622.1134081372
 20
467.2531202932
 10
621.6730867912
 20
466.7080035705
 10
621.5822801758
 20
466.1088225893
 10
621.8519409089
 20
465.5278474191
 10
622.4495439265
 20
465.0351522396
  0
LWPOLYLINE
  5
104
330
1F
100
AcDbEntity
  8
0
  6
HIDDEN
 62
     7
370
    18
100
AcDbPolyline
 90
       10
 70
   128
 43
0.0
 10
650.9196388878
 20
526.3730343729
 10
651.7731044461
 20
526.0280454941
 10
652.7794920031
 20
525.8723736664
 10
653.8174163666
 20
525.9247952097
 10
654.7616885404
 20
526.1789873121
 10
655.4984153642
 20
526.6042906547
 10
655.9387367102
 20
527.1494073774
 10
656.0295433256
 20
527.7485883586
 10
655.7598825924
 20
528.3295635288
 10
655.1622795749
 20
528.8222587083
  0
LWPOLYLINE
  5
105
330
1F
100
AcDbEntity
  8
0
  6
HIDDEN
 62
     7
370
    18
100
AcDbPolyline
 90
       10
 70
   128
 43
0.0
 10
655.1622795749
 20
528.8222587083
 10
654.3088140166
 20
529.1672475871
 10
653.3024264596
 20
529.3229194148
 10
652.264502096
 20
529.2704978715
 10
651.3202299223
 20
529.0163057691
 10
650.5835030985
 20
528.5910024266
 10
650.1431817525
 20
528.0458857038
 10
650.0523751371
 20
527.4467047226
 10
650.3220358702
 20
526.8657295524
 10
650.9196388878
 20
526.3730343729
  0
LINE
  5
106
330
1F
100
AcDbEntity
  8
0
  6
HIDDEN
 62
     7
370
    18
100
AcDbLine
 10
752.813699887
 20
555.1953819135
 30
0.0
 11
633.0388974272
 21
573.7226006581
 31
0.0
  0
ARC
  5
107
330
1F
100
AcDbEntity
  8
0
  6
HIDDEN
 62
     7
370
    18
100
AcDbCircle
 10
753.5293992589
 20
553.3681674649
 30
0.0
 40
1.515724239711768
100
AcDbArc
 50
5.8452026488
 51
65.4749383088
  0
LWPOLYLINE
  5
108
330
1F
100
AcDbEntity
  8
0
  6
HIDDEN
 62
     7
370
    18
100
AcDbPolyline
 90
        9
 70
   128
 43
0.0
 10
718.3245731771
 20
555.0527697422
 10
719.1356315491
 20
554.739919128
 10
720.09234013
 20
554.6300606017
 10
721.0490487109
 20
554.739919128
 10
721.860107083
 20
555.0527697422
 10
722.4020389613
 20
555.5209837741
 10
722.59234013
 20
556.0732798819
 10
722.4020389613
 20
556.6255759897
 10
721.860107083
 20
557.0937900217
  0
ARC
  5
109
330
1F
100
AcDbEntity
  8
0
  6
HIDDEN
 62
     7
370
    18
100
AcDbCircle
 10
752.2716569164
 20
551.3274437925
 30
0.0
 40
3.905733719839962
100
AcDbArc
 50
61.1111612194
 51
82.0226660454
  0
LWPOLYLINE
  5
10A
330
1F
100
AcDbEntity
  8
0
  6
HIDDEN
 62
     7
370
    18
100
AcDbPolyline
 90
        9
 70
   128
 43
0.0
 10
721.860107083
 20
557.0937900217
 10
721.0490487109
 20
557.4066406359
 10
720.09234013
 20
557.5164991621
 10
719.1356315491
 20
557.4066406359
 10
718.3245731771
 20
557.0937900217
 10
717.7826412988
 20
556.6255759897
 10
717.59234013
 20
556.0732798819
 10
717.7826412988
 20
555.5209837741
 10
718.3245731771
 20
555.0527697422
  0
LWPOLYLINE
  5
10B
330
1F
100
AcDbEntity
  8
0
  6
HIDDEN
 62
     7
370
    18
100
AcDbPolyline
 90
        9
 70
   128
 43
0.0
 10
645.8801362054
 20
566.2587488215
 10
646.6911945774
 20
565.9458982074
 10
647.6479031583
 20
565.8360396811
 10
648.6046117393
 20
565.9458982074
 10
649.4156701113
 20
566.2587488215
 10
649.9576019896
 20
566.7269628535
 10
650.1479031583
 20
567.2792589613
 10
649.9576019896
 20
567.8315550691
 10
649.4156701113
 20
568.2997691011
  0
LWPOLYLINE
  5
10C
330
1F
100
AcDbEntity
  8
0
  6
HIDDEN
 62
     7
370
    18
100
AcDbPolyline
 90
        9
 70
   128
 43
0.0
 10
649.4156701113
 20
568.2997691011
 10
648.6046117393
 20
568.6126197152
 10
647.6479031583
 20
568.7224782415
 10
646.6911945774
 20
568.6126197152
 10
645.8801362054
 20
568.2997691011
 10
645.3382043271
 20
567.8315550691
 10
645.1479031583
 20
567.2792589613
 10
645.3382043271
 20
566.7269628535
 10
645.8801362054
 20
566.2587488215
  0
ARC
  5
10D
330
1F
100
AcDbEntity
  8
0
  6
HIDDEN
 62
     7
370
    18
100
AcDbCircle
 10
632.1461875625
 20
570.2767652281
 30
0.0
 40
3.559594459033873
100
AcDbArc
 50
75.4757485669
 51
141.3904241684
  0
LINE
  5
10E
330
1F
100
AcDbEntity
  8
0
  6
HIDDEN
 62
     7
370
    18
100
AcDbLine
 10
608.3242732164
 20
345.2011103978
 30
0.0
 11
608.3242732164
 21
358.265763388
 31
0.0
  0
LINE
  5
10F
330
1F
100
AcDbEntity
  8
0
  6
HIDDEN
 62
     7
370
    18
100
AcDbLine
 10
594.3242732164
 20
358.265763388
 30
0.0
 11
594.3242732164
 21
345.2011103978
 31
0.0
  0
LINE
  5
110
330
1F
100
AcDbEntity
  8
0
  6
HIDDEN
 62
     7
370
    18
100
AcDbLine
 10
624.0019427461
 20
355.4062117956
 30
0.0
 11
624.0019427461
 21
368.4708647857
 31
0.0
  0
LINE
  5
111
330
1F
100
AcDbEntity
  8
0
  6
HIDDEN
 62
     7
370
    18
100
AcDbLine
 10
614.0019427461
 20
368.4708647857
 30
0.0
 11
614.0019427461
 21
355.4062117956
 31
0.0
  0
LINE
  5
112
330
1F
100
AcDbEntity
  8
0
  6
HIDDEN
 62
     7
370
    18
100
AcDbLine
 10
632.0056743441
 20
360.907291276
 30
0.0
 11
632.0056743441
 21
373.9719442661
 31
0.0
  0
LINE
  5
113
330
1F
100
AcDbEntity
  8
0
  6
HIDDEN
 62
     7
370
    18
100
AcDbLine
 10
627.0056743441
 20
373.9719442661
 30
0.0
 11
627.0056743441
 21
360.907291276
 31
0.0
  0
LINE
  5
114
330
1F
100
AcDbEntity
  8
0
  6
HIDDEN
 62
     7
370
    18
100
AcDbLine
 10
559.5612373725
 20
372.1132703553
 30
0.0
 11
559.5612373725
 21
385.1779233455
 31
0.0
  0
LINE
  5
115
330
1F
100
AcDbEntity
  8
0
  6
HIDDEN
 62
     7
370
    18
100
AcDbLine
 10
554.5612373725
 20
385.1779233455
 30
0.0
 11
554.5612373725
 21
372.1132703553
 31
0.0
  0
LINE
  5
116
330
1F
100
AcDbEntity
  8
0
  6
HIDDEN
 62
     7
370
    18
100
AcDbLine
 10
680.570485241
 20
388.0625362685
 30
0.0
 11
680.570485241
 21
401.1271892586
 31
0.0
  0
LINE
  5
117
330
1F
100
AcDbEntity
  8
0
  6
HIDDEN
 62
     7
370
    18
100
AcDbLine
 10
670.570485241
 20
401.1271892586
 30
0.0
 11
670.570485241
 21
388.0625362685
 31
0.0
  0
LINE
  5
118
330
1F
100
AcDbEntity
  8
0
  6
HIDDEN
 62
     7
370
    18
100
AcDbLine
 10
700.2481547707
 20
398.2676376663
 30
0.0
 11
700.2481547707
 21
411.3322906564
 31
0.0
  0
LINE
  5
119
330
1F
100
AcDbEntity
  8
0
  6
HIDDEN
 62
     7
370
    18
100
AcDbLine
 10
686.2481547707
 20
411.3322906564
 30
0.0
 11
686.2481547707
 21
398.2676376663
 31
0.0
  0
LINE
  5
11A
330
1F
100
AcDbEntity
  8
0
  6
HIDDEN
 62
     7
370
    18
100
AcDbLine
 10
599.1007693088
 20
404.921882274
 30
0.0
 11
599.1007693088
 21
417.9865352642
 31
0.0
  0
LINE
  5
11B
330
1F
100
AcDbEntity
  8
0
  6
HIDDEN
 62
     7
370
    18
100
AcDbLine
 10
593.1007693088
 20
417.9865352642
 30
0.0
 11
593.1007693088
 21
404.921882274
 31
0.0
  0
LINE
  5
11C
330
1F
100
AcDbEntity
  8
0
  6
HIDDEN
 62
     7
370
    18
100
AcDbLine
 10
627.5708642701
 20
466.2597644073
 30
0.0
 11
627.5708642701
 21
479.3244173975
 31
0.0
  0
LINE
  5
11D
330
1F
100
AcDbEntity
  8
0
  6
HIDDEN
 62
     7
370
    18
100
AcDbLine
 10
621.5708642701
 20
479.3244173975
 30
0.0
 11
621.5708642701
 21
466.2597644073
 31
0.0
  0
LINE
  5
11E
330
1F
100
AcDbEntity
  8
0
  6
HIDDEN
 62
     7
370
    18
100
AcDbLine
 10
656.0409592313
 20
527.5976465406
 30
0.0
 11
656.0409592313
 21
540.6622995308
 31
0.0
  0
LINE
  5
11F
330
1F
100
AcDbEntity
  8
0
  6
HIDDEN
 62
     7
370
    18
100
AcDbLine
 10
650.0409592313
 20
540.6622995308
 30
0.0
 11
650.0409592313
 21
527.5976465406
 31
0.0
  0
LINE
  5
120
330
1F
100
AcDbEntity
  8
0
  6
HIDDEN
 62
     7
370
    18
100
AcDbLine
 10
722.59234013
 20
556.0732798819
 30
0.0
 11
722.59234013
 21
569.1379328721
 31
0.0
  0
LINE
  5
121
330
1F
100
AcDbEntity
  8
0
  6
HIDDEN
 62
     7
370
    18
100
AcDbLine
 10
717.59234013
 20
569.1379328721
 30
0.0
 11
717.59234013
 21
556.0732798819
 31
0.0
  0
LINE
  5
122
330
1F
100
AcDbEntity
  8
0
  6
HIDDEN
 62
     7
370
    18
100
AcDbLine
 10
650.1479031583
 20
567.2792589613
 30
0.0
 11
650.1479031583
 21
580.3439119515
 31
0.0
  0
LINE
  5
123
330
1F
100
AcDbEntity
  8
0
  6
HIDDEN
 62
     7
370
    18
100
AcDbLine
 10
645.1479031583
 20
580.3439119515
 30
0.0
 11
645.1479031583
 21
567.2792589613
 31
0.0
  0
ENDSEC
  0
SECTION
  2
OBJECTS
  0
DICTIONARY
  5
C
330
0
100
AcDbDictionary
281
     1
  3
ACAD_GROUP
350
D
  3
ACAD_LAYOUT
350
1A
  3
ACAD_MLINESTYLE
350
17
  3
ACAD_PLOTSETTINGS
350
19
  3
ACAD_PLOTSTYLENAME
350
E
  3
ACAD_SCALELIST
350
47
  3
DWGPROPS
350
124
  0
DICTIONARY
  5
D
102
{ACAD_REACTORS
330
C
102
}
330
C
100
AcDbDictionary
281
     1
  0
DICTIONARY
  5
1A
102
{ACAD_REACTORS
330
C
102
}
330
C
100
AcDbDictionary
281
     1
  3
Layout1
350
1E
  3
Layout2
350
26
  3
Model
350
22
  0
DICTIONARY
  5
17
102
{ACAD_REACTORS
330
C
102
}
330
C
100
AcDbDictionary
281
     1
  3
Standard
350
18
  0
DICTIONARY
  5
19
102
{ACAD_REACTORS
330
C
102
}
330
C
100
AcDbDictionary
281
     1
  0
ACDBDICTIONARYWDFLT
  5
E
102
{ACAD_REACTORS
330
C
102
}
330
C
100
AcDbDictionary
281
     1
  3
Normal
350
F
100
AcDbDictionaryWithDefault
340
F
  0
DICTIONARY
  5
47
102
{ACAD_REACTORS
330
C
102
}
330
C
100
AcDbDictionary
281
     1
  3
A0
350
48
  3
A1
350
49
  3
A2
350
4A
  3
A3
350
4B
  3
A4
350
4C
  3
A5
350
4D
  3
A6
350
4E
  3
A7
350
4F
  3
A8
350
50
  3
A9
350
51
  3
B0
350
52
  3
B1
350
53
  3
B2
350
54
  3
B3
350
55
  3
B4
350
56
  3
B5
350
57
  3
B6
350
58
  0
XRECORD
  5
124
102
{ACAD_REACTORS
330
C
102
}
330
C
100
AcDbXrecord
280
     1
  1
DWGPROPS COOKIE
  2

  3

  4

  6

  7

  8
imaizumi
  9

300
=
301
=
302
=
303
=
304
=
305
=
306
=
307
=
308
=
309
=
 40
0.0
 41
2461263.065850938
 42
2461263.065851285
  1

 90
        0
  0
LAYOUT
  5
1E
102
{ACAD_REACTORS
330
1A
102
}
330
1A
100
AcDbPlotSettings
  1

  2
none_device
  4

  6

 40
0.0
 41
0.0
 42
0.0
 43
0.0
 44
0.0
 45
0.0
 46
0.0
 47
0.0
 48
0.0
 49
0.0
140
0.0
141
0.0
142
1.0
143
1.0
 70
   688
 72
     1
 73
     0
 74
     5
  7

 75
    16
147
1.0
148
0.0
149
0.0
100
AcDbLayout
  1
Layout1
 70
     1
 71
     1
 10
0.0
 20
0.0
 11
420.0
 21
297.0
 12
0.0
 22
0.0
 32
0.0
 14
1.0000000000E+20
 24
1.0000000000E+20
 34
1.0000000000E+20
 15
-1.0000000000E+20
 25
-1.0000000000E+20
 35
-1.0000000000E+20
146
0.0
 13
0.0
 23
0.0
 33
0.0
 16
1.0
 26
0.0
 36
0.0
 17
0.0
 27
1.0
 37
0.0
 76
     0
330
1B
  0
LAYOUT
  5
26
102
{ACAD_REACTORS
330
1A
102
}
330
1A
100
AcDbPlotSettings
  1

  2
none_device
  4

  6

 40
0.0
 41
0.0
 42
0.0
 43
0.0
 44
0.0
 45
0.0
 46
0.0
 47
0.0
 48
0.0
 49
0.0
140
0.0
141
0.0
142
1.0
143
1.0
 70
   688
 72
     1
 73
     0
 74
     5
  7

 75
    16
147
1.0
148
0.0
149
0.0
100
AcDbLayout
  1
Layout2
 70
     1
 71
     2
 10
0.0
 20
0.0
 11
0.0
 21
0.0
 12
0.0
 22
0.0
 32
0.0
 14
0.0
 24
0.0
 34
0.0
 15
0.0
 25
0.0
 35
0.0
146
0.0
 13
0.0
 23
0.0
 33
0.0
 16
1.0
 26
0.0
 36
0.0
 17
0.0
 27
1.0
 37
0.0
 76
     0
330
23
  0
LAYOUT
  5
22
102
{ACAD_REACTORS
330
1A
102
}
330
1A
100
AcDbPlotSettings
  1

  2
none_device
  4
Letter_(8.50_x_11.00_Inches)
  6

 40
6.35
 41
6.35
 42
6.35000508
 43
6.35000508
 44
215.9
 45
279.4
 46
0.0
 47
0.0
 48
0.0
 49
0.0
140
0.0
141
0.0
142
1.0
143
1.0
 70
  1712
 72
     1
 73
     0
 74
     0
  7

 75
     0
147
1.0
148
0.0
149
0.0
100
AcDbLayout
  1
Model
 70
     1
 71
     0
 10
0.0
 20
0.0
 11
841.0
 21
594.0
 12
0.0
 22
0.0
 32
0.0
 14
0.0
 24
0.0
 34
0.0
 15
841.0
 25
594.0
 35
0.0
146
0.0
 13
0.0
 23
0.0
 33
0.0
 16
1.0
 26
0.0
 36
0.0
 17
0.0
 27
1.0
 37
0.0
 76
     0
330
1F
331
29
  0
MLINESTYLE
  5
18
102
{ACAD_REACTORS
330
17
102
}
330
17
100
AcDbMlineStyle
  2
Standard
 70
     0
  3

 62
   256
 51
90.0
 52
90.0
 71
     2
 49
0.5
 62
   256
  6
BYLAYER
 49
-0.5
 62
   256
  6
BYLAYER
  0
ACDBPLACEHOLDER
  5
F
102
{ACAD_REACTORS
330
E
102
}
330
E
  0
SCALE
  5
48
102
{ACAD_REACTORS
330
47
102
}
330
47
100
AcDbScale
 70
     0
300
1:1
140
1.0
141
1.0
290
     1
  0
SCALE
  5
49
102
{ACAD_REACTORS
330
47
102
}
330
47
100
AcDbScale
 70
     0
300
1:2
140
1.0
141
2.0
290
     0
  0
SCALE
  5
4A
102
{ACAD_REACTORS
330
47
102
}
330
47
100
AcDbScale
 70
     0
300
1:4
140
1.0
141
4.0
290
     0
  0
SCALE
  5
4B
102
{ACAD_REACTORS
330
47
102
}
330
47
100
AcDbScale
 70
     0
300
1:5
140
1.0
141
5.0
290
     0
  0
SCALE
  5
4C
102
{ACAD_REACTORS
330
47
102
}
330
47
100
AcDbScale
 70
     0
300
1:8
140
1.0
141
8.0
290
     0
  0
SCALE
  5
4D
102
{ACAD_REACTORS
330
47
102
}
330
47
100
AcDbScale
 70
     0
300
1:10
140
1.0
141
10.0
290
     0
  0
SCALE
  5
4E
102
{ACAD_REACTORS
330
47
102
}
330
47
100
AcDbScale
 70
     0
300
1:16
140
1.0
141
16.0
290
     0
  0
SCALE
  5
4F
102
{ACAD_REACTORS
330
47
102
}
330
47
100
AcDbScale
 70
     0
300
1:20
140
1.0
141
20.0
290
     0
  0
SCALE
  5
50
102
{ACAD_REACTORS
330
47
102
}
330
47
100
AcDbScale
 70
     0
300
1:30
140
1.0
141
30.0
290
     0
  0
SCALE
  5
51
102
{ACAD_REACTORS
330
47
102
}
330
47
100
AcDbScale
 70
     0
300
1:40
140
1.0
141
40.0
290
     0
  0
SCALE
  5
52
102
{ACAD_REACTORS
330
47
102
}
330
47
100
AcDbScale
 70
     0
300
1:50
140
1.0
141
50.0
290
     0
  0
SCALE
  5
53
102
{ACAD_REACTORS
330
47
102
}
330
47
100
AcDbScale
 70
     0
300
1:100
140
1.0
141
100.0
290
     0
  0
SCALE
  5
54
102
{ACAD_REACTORS
330
47
102
}
330
47
100
AcDbScale
 70
     0
300
2:1
140
2.0
141
1.0
290
     0
  0
SCALE
  5
55
102
{ACAD_REACTORS
330
47
102
}
330
47
100
AcDbScale
 70
     0
300
4:1
140
4.0
141
1.0
290
     0
  0
SCALE
  5
56
102
{ACAD_REACTORS
330
47
102
}
330
47
100
AcDbScale
 70
     0
300
8:1
140
8.0
141
1.0
290
     0
  0
SCALE
  5
57
102
{ACAD_REACTORS
330
47
102
}
330
47
100
AcDbScale
 70
     0
300
10:1
140
10.0
141
1.0
290
     0
  0
SCALE
  5
58
102
{ACAD_REACTORS
330
47
102
}
330
47
100
AcDbScale
 70
     0
300
100:1
140
100.0
141
1.0
290
     0
  0
ENDSEC
  0
EOF
