  0
SECTION
  2
HEADER
  9
$ACADVER
  1
AC1015
  9
$ACADMAINTVER
 70
     6
  9
$DWGCODEPAGE
  3
DOS932
  9
$INSBASE
 10
0.0
 20
0.0
 30
0.0
  9
$EXTMIN
 10
0.0
 20
0.0
 30
0.0
  9
$EXTMAX
 10
841.0
 20
594.0
 30
0.0
  9
$LIMMIN
 10
0.0
 20
0.0
  9
$LIMMAX
 10
841.0
 20
594.0
  9
$ORTHOMODE
 70
     0
  9
$REGENMODE
 70
     1
  9
$FILLMODE
 70
     1
  9
$QTEXTMODE
 70
     0
  9
$MIRRTEXT
 70
     1
  9
$LTSCALE
 40
1.0
  9
$ATTMODE
 70
     1
  9
$TEXTSIZE
 40
3.5
  9
$TRACEWID
 40
1.0
  9
$TEXTSTYLE
  7
Standard
  9
$CLAYER
  8
0
  9
$CELTYPE
  6
ByLayer
  9
$CECOLOR
 62
   256
  9
$CELTSCALE
 40
1.0
  9
$DISPSILH
 70
     0
  9
$DIMSCALE
 40
1.0
  9
$DIMASZ
 40
3.302
  9
$DIMEXO
 40
1.0
  9
$DIMDLI
 40
3.75
  9
$DIMRND
 40
0.0
  9
$DIMDLE
 40
0.0
  9
$DIMEXE
 40
1.0
  9
$DIMTP
 40
0.0
  9
$DIMTM
 40
0.0
  9
$DIMTXT
 40
3.5
  9
$DIMCEN
 40
2.5
  9
$DIMTSZ
 40
0.0
  9
$DIMTOL
 70
     0
  9
$DIMLIM
 70
     0
  9
$DIMTIH
 70
     1
  9
$DIMTOH
 70
     1
  9
$DIMSE1
 70
     0
  9
$DIMSE2
 70
     0
  9
$DIMTAD
 70
     1
  9
$DIMZIN
 70
     1
  9
$DIMBLK
  1

  9
$DIMASO
 70
     1
  9
$DIMSHO
 70
     1
  9
$DIMPOST
  1

  9
$DIMAPOST
  1

  9
$DIMALT
 70
     0
  9
$DIMALTD
 70
     3
  9
$DIMALTF
 40
0.0393700787
  9
$DIMLFAC
 40
0.5
  9
$DIMTOFL
 70
     1
  9
$DIMTVP
 40
0.0
  9
$DIMTIX
 70
     0
  9
$DIMSOXD
 70
     0
  9
$DIMSAH
 70
     0
  9
$DIMBLK1
  1

  9
$DIMBLK2
  1

  9
$DIMSTYLE
  2
ISO-25
  9
$DIMCLRD
 70
     0
  9
$DIMCLRE
 70
     0
  9
$DIMCLRT
 70
     0
  9
$DIMTFAC
 40
1.0
  9
$DIMGAP
 40
1.524
  9
$DIMJUST
 70
     0
  9
$DIMSD1
 70
     0
  9
$DIMSD2
 70
     0
  9
$DIMTOLJ
 70
     0
  9
$DIMTZIN
 70
     1
  9
$DIMALTZ
 70
     0
  9
$DIMALTTZ
 70
     0
  9
$DIMUPT
 70
     0
  9
$DIMDEC
 70
     2
  9
$DIMTDEC
 70
     2
  9
$DIMALTU
 70
     2
  9
$DIMALTTD
 70
     3
  9
$DIMTXSTY
  7
Standard
  9
$DIMAUNIT
 70
     0
  9
$DIMADEC
 70
     2
  9
$DIMALTRND
 40
0.0
  9
$DIMAZIN
 70
     0
  9
$DIMDSEP
 70
    44
  9
$DIMATFIT
 70
     3
  9
$DIMFRAC
 70
     0
  9
$DIMLDRBLK
  1

  9
$DIMLUNIT
 70
     2
  9
$DIMLWD
 70
    -2
  9
$DIMLWE
 70
    -2
  9
$DIMTMOVE
 70
     0
  9
$LUNITS
 70
     2
  9
$LUPREC
 70
     2
  9
$SKETCHINC
 40
1.0
  9
$FILLETRAD
 40
0.0
  9
$AUNITS
 70
     0
  9
$AUPREC
 70
     2
  9
$MENU
  1
.
  9
$ELEVATION
 40
0.0
  9
$PELEVATION
 40
0.0
  9
$THICKNESS
 40
0.0
  9
$LIMCHECK
 70
     0
  9
$CHAMFERA
 40
0.0
  9
$CHAMFERB
 40
0.0
  9
$CHAMFERC
 40
0.0
  9
$CHAMFERD
 40
0.0
  9
$SKPOLY
 70
     0
  9
$TDCREATE
 40
2461263.442844769
  9
$TDUCREATE
 40
2461263.067844769
  9
$TDUPDATE
 40
2461263.442845382
  9
$TDUUPDATE
 40
2461263.067845382
  9
$TDINDWG
 40
0.0000000116
  9
$TDUSRTIMER
 40
0.0000000116
  9
$USRTIMER
 70
     1
  9
$ANGBASE
 50
0.0
  9
$ANGDIR
 70
     0
  9
$PDMODE
 70
     0
  9
$PDSIZE
 40
-1.0
  9
$PLINEWID
 40
0.0
  9
$SPLFRAME
 70
     0
  9
$SPLINETYPE
 70
     6
  9
$SPLINESEGS
 70
     8
  9
$HANDSEED
  5
CA
  9
$SURFTAB1
 70
     6
  9
$SURFTAB2
 70
     6
  9
$SURFTYPE
 70
     6
  9
$SURFU
 70
     6
  9
$SURFV
 70
     6
  9
$UCSBASE
  2

  9
$UCSNAME
  2

  9
$UCSORG
 10
0.0
 20
0.0
 30
0.0
  9
$UCSXDIR
 10
1.0
 20
0.0
 30
0.0
  9
$UCSYDIR
 10
0.0
 20
1.0
 30
0.0
  9
$UCSORTHOREF
  2

  9
$UCSORTHOVIEW
 70
     0
  9
$UCSORGTOP
 10
0.0
 20
0.0
 30
0.0
  9
$UCSORGBOTTOM
 10
0.0
 20
0.0
 30
0.0
  9
$UCSORGLEFT
 10
0.0
 20
0.0
 30
0.0
  9
$UCSORGRIGHT
 10
0.0
 20
0.0
 30
0.0
  9
$UCSORGFRONT
 10
0.0
 20
0.0
 30
0.0
  9
$UCSORGBACK
 10
0.0
 20
0.0
 30
0.0
  9
$PUCSBASE
  2

  9
$PUCSNAME
  2

  9
$PUCSORG
 10
0.0
 20
0.0
 30
0.0
  9
$PUCSXDIR
 10
1.0
 20
0.0
 30
0.0
  9
$PUCSYDIR
 10
0.0
 20
1.0
 30
0.0
  9
$PUCSORTHOREF
  2

  9
$PUCSORTHOVIEW
 70
     0
  9
$PUCSORGTOP
 10
0.0
 20
0.0
 30
0.0
  9
$PUCSORGBOTTOM
 10
0.0
 20
0.0
 30
0.0
  9
$PUCSORGLEFT
 10
0.0
 20
0.0
 30
0.0
  9
$PUCSORGRIGHT
 10
0.0
 20
0.0
 30
0.0
  9
$PUCSORGFRONT
 10
0.0
 20
0.0
 30
0.0
  9
$PUCSORGBACK
 10
0.0
 20
0.0
 30
0.0
  9
$USERI1
 70
     0
  9
$USERI2
 70
     0
  9
$USERI3
 70
     0
  9
$USERI4
 70
     0
  9
$USERI5
 70
     0
  9
$USERR1
 40
0.0
  9
$USERR2
 40
0.0
  9
$USERR3
 40
0.0
  9
$USERR4
 40
0.0
  9
$USERR5
 40
0.0
  9
$WORLDVIEW
 70
     1
  9
$SHADEDGE
 70
     3
  9
$SHADEDIF
 70
    70
  9
$TILEMODE
 70
     1
  9
$MAXACTVP
 70
    64
  9
$PINSBASE
 10
0.0
 20
0.0
 30
0.0
  9
$PLIMCHECK
 70
     0
  9
$PEXTMIN
 10
1.0000000000E+20
 20
1.0000000000E+20
 30
1.0000000000E+20
  9
$PEXTMAX
 10
-1.0000000000E+20
 20
-1.0000000000E+20
 30
-1.0000000000E+20
  9
$PLIMMIN
 10
0.0
 20
0.0
  9
$PLIMMAX
 10
420.0
 20
297.0
  9
$UNITMODE
 70
     0
  9
$VISRETAIN
 70
     1
  9
$PLINEGEN
 70
     0
  9
$PSLTSCALE
 70
     1
  9
$TREEDEPTH
 70
  3020
  9
$CMLSTYLE
  2
Standard
  9
$CMLJUST
 70
     0
  9
$CMLSCALE
 40
20.0
  9
$PROXYGRAPHICS
 70
     1
  9
$MEASUREMENT
 70
     1
  9
$CELWEIGHT
370
    -1
  9
$ENDCAPS
280
     0
  9
$JOINSTYLE
280
     0
  9
$LWDISPLAY
290
     1
  9
$INSUNITS
 70
     4
  9
$HYPERLINKBASE
  1

  9
$STYLESHEET
  1

  9
$XEDIT
290
     1
  9
$CEPSNTYPE
380
     0
  9
$PSTYLEMODE
290
     1
  9
$FINGERPRINTGUID
  2
{154a848e-e6a9-457c-bf1e-1f44867f4100}
  9
$VERSIONGUID
  2
{FAEB1C32-E019-11D5-929B-00C0DF256EC4}
  9
$EXTNAMES
290
     1
  9
$PSVPSCALE
 40
0.0
  9
$OLESTARTUP
290
     0
  0
ENDSEC
  0
SECTION
  2
CLASSES
  0
CLASS
  1
ACDBDICTIONARYWDFLT
  2
AcDbDictionaryWithDefault
  3
ObjectDBX Classes
 90
        0
280
     0
281
     0
  0
CLASS
  1
VISUALSTYLE
  2
AcDbVisualStyle
  3
ObjectDBX Classes
 90
     4095
280
     0
281
     0
  0
CLASS
  1
MATERIAL
  2
AcDbMaterial
  3
ObjectDBX Classes
 90
     1153
280
     0
281
     0
  0
CLASS
  1
SCALE
  2
AcDbScale
  3
ObjectDBX Classes
 90
     1153
280
     0
281
     0
  0
CLASS
  1
TABLESTYLE
  2
AcDbTableStyle
  3
ObjectDBX Classes
 90
     4095
280
     0
281
     0
  0
CLASS
  1
MLEADERSTYLE
  2
AcDbMLeaderStyle
  3
ACDB_MLEADERSTYLE_CLASS
 90
     4095
280
     0
281
     0
  0
CLASS
  1
SUN
  2
AcDbSun
  3
SCENEOE
 90
     1153
280
     0
281
     0
  0
CLASS
  1
ACDBPLACEHOLDER
  2
AcDbPlaceHolder
  3
ObjectDBX Classes
 90
        0
280
     0
281
     0
  0
CLASS
  1
LAYOUT
  2
AcDbLayout
  3
ObjectDBX Classes
 90
        0
280
     0
281
     0
  0
ENDSEC
  0
SECTION
  2
TABLES
  0
TABLE
  2
VPORT
  5
8
330
0
100
AcDbSymbolTable
 70
     1
  0
VPORT
  5
29
330
8
100
AcDbSymbolTableRecord
100
AcDbViewportTableRecord
  2
*Active
 70
     0
 10
0.0
 20
0.0
 11
1.0
 21
1.0
 12
420.5
 22
297.0
 13
0.0
 23
0.0
 14
10.0
 24
10.0
 15
10.0
 25
10.0
 16
0.0
 26
0.0
 36
1.0
 17
0.0
 27
0.0
 37
0.0
 40
594.0
 41
1.4158249158
 42
50.0
 43
0.0
 44
0.0
 50
0.0
 51
0.0
 71
     0
 72
  2000
 73
     1
 74
     3
 75
     0
 76
     0
 77
     0
 78
     0
281
     0
 65
     1
110
0.0
120
0.0
130
0.0
111
1.0
121
0.0
131
0.0
112
0.0
122
1.0
132
0.0
 79
     0
146
0.0
  0
ENDTAB
  0
TABLE
  2
LTYPE
  5
5
330
0
100
AcDbSymbolTable
 70
     6
  0
LTYPE
  5
14
330
5
100
AcDbSymbolTableRecord
100
AcDbLinetypeTableRecord
  2
ByBlock
 70
     0
  3

 72
    65
 73
     0
 40
0.0
  0
LTYPE
  5
15
330
5
100
AcDbSymbolTableRecord
100
AcDbLinetypeTableRecord
  2
ByLayer
 70
     0
  3

 72
    65
 73
     0
 40
0.0
  0
LTYPE
  5
16
330
5
100
AcDbSymbolTableRecord
100
AcDbLinetypeTableRecord
  2
Continuous
 70
     0
  3
Solid line
 72
    65
 73
     0
 40
0.0
  0
LTYPE
  5
5E
330
5
100
AcDbSymbolTableRecord
100
AcDbLinetypeTableRecord
  2
HIDDEN
 70
     0
  3
Hidden __ __ __ __ __ __ __ __ __ __ __ __ __ __
 72
    65
 73
     2
 40
1.905
 49
1.27
 74
     0
 49
-0.635
 74
     0
  0
LTYPE
  5
5F
330
5
100
AcDbSymbolTableRecord
100
AcDbLinetypeTableRecord
  2
PHANTOM
 70
     0
  3
Phantom ______  __  __  ______  __  __  ______
 72
    65
 73
     6
 40
12.7
 49
6.35
 74
     0
 49
-1.27
 74
     0
 49
1.27
 74
     0
 49
-1.27
 74
     0
 49
1.27
 74
     0
 49
-1.27
 74
     0
  0
LTYPE
  5
60
330
5
100
AcDbSymbolTableRecord
100
AcDbLinetypeTableRecord
  2
CENTER
 70
     0
  3
Center ____ _ ____ _ ____ _ ____ _ ____ _ ____
 72
    65
 73
     4
 40
10.16
 49
6.35
 74
     0
 49
-1.27
 74
     0
 49
1.27
 74
     0
 49
-1.27
 74
     0
  0
LTYPE
  5
61
330
5
100
AcDbSymbolTableRecord
100
AcDbLinetypeTableRecord
  2
CENTERX2
 70
     0
  3
Center (2x) ________  __  ________  __  _____
 72
    65
 73
     4
 40
20.32
 49
12.7
 74
     0
 49
-2.54
 74
     0
 49
2.54
 74
     0
 49
-2.54
 74
     0
  0
LTYPE
  5
62
330
5
100
AcDbSymbolTableRecord
100
AcDbLinetypeTableRecord
  2
DOT2
 70
     0
  3
Dot (.5x) ........................................
 72
    65
 73
     2
 40
0.635
 49
0.0
 74
     0
 49
-0.635
 74
     0
  0
ENDTAB
  0
TABLE
  2
LAYER
  5
2
330
0
100
AcDbSymbolTable
 70
     1
  0
LAYER
  5
10
330
2
100
AcDbSymbolTableRecord
100
AcDbLayerTableRecord
  2
0
 70
     0
 62
     7
  6
Continuous
370
    -3
390
F
  0
ENDTAB
  0
TABLE
  2
STYLE
  5
3
330
0
100
AcDbSymbolTable
 70
     1
  0
STYLE
  5
11
330
3
100
AcDbSymbolTableRecord
100
AcDbTextStyleTableRecord
  2
Standard
 70
     0
 40
0.0
 41
1.0
 50
0.0
 71
     0
 42
3.5
  3
txt
  4
bigfont
  0
ENDTAB
  0
TABLE
  2
VIEW
  5
6
330
0
100
AcDbSymbolTable
 70
     0
  0
ENDTAB
  0
TABLE
  2
UCS
  5
7
330
0
100
AcDbSymbolTable
 70
     0
  0
ENDTAB
  0
TABLE
  2
APPID
  5
9
330
0
100
AcDbSymbolTable
 70
     1
  0
APPID
  5
12
330
9
100
AcDbSymbolTableRecord
100
AcDbRegAppTableRecord
  2
ACAD
 70
     0
  0
ENDTAB
  0
TABLE
  2
DIMSTYLE
  5
A
330
0
100
AcDbSymbolTable
 70
     1
100
AcDbDimStyleTable
  0
DIMSTYLE
105
27
330
A
100
AcDbSymbolTableRecord
100
AcDbDimStyleTableRecord
  2
ISO-25
 70
     0
 41
2.5
 42
0.625
 43
3.75
 44
1.25
 73
     0
 74
     0
 77
     1
 78
     8
140
2.5
141
2.5
143
0.0393700787
147
0.625
171
     3
172
     1
178
     0
271
     2
272
     2
274
     3
278
    44
283
     0
284
     8
340
11
  0
ENDTAB
  0
TABLE
  2
BLOCK_RECORD
  5
1
330
0
100
AcDbSymbolTable
 70
     1
  0
BLOCK_RECORD
  5
1F
330
1
100
AcDbSymbolTableRecord
100
AcDbBlockTableRecord
  2
*Model_Space
340
22
  0
BLOCK_RECORD
  5
1B
330
1
100
AcDbSymbolTableRecord
100
AcDbBlockTableRecord
  2
*Paper_Space
340
1E
  0
BLOCK_RECORD
  5
23
330
1
100
AcDbSymbolTableRecord
100
AcDbBlockTableRecord
  2
*Paper_Space0
340
26
  0
ENDTAB
  0
ENDSEC
  0
SECTION
  2
BLOCKS
  0
BLOCK
  5
20
330
1F
100
AcDbEntity
  8
0
100
AcDbBlockBegin
  2
*Model_Space
 70
     0
 10
0.0
 20
0.0
 30
0.0
  3
*Model_Space
  1

  0
ENDBLK
  5
21
330
1F
100
AcDbEntity
  8
0
100
AcDbBlockEnd
  0
BLOCK
  5
1C
330
1B
100
AcDbEntity
 67
     1
  8
0
100
AcDbBlockBegin
  2
*Paper_Space
 70
     0
 10
0.0
 20
0.0
 30
0.0
  3
*Paper_Space
  1

  0
ENDBLK
  5
1D
330
1B
100
AcDbEntity
 67
     1
  8
0
100
AcDbBlockEnd
  0
BLOCK
  5
24
330
23
100
AcDbEntity
  8
0
100
AcDbBlockBegin
  2
*Paper_Space0
 70
     0
 10
0.0
 20
0.0
 30
0.0
  3
*Paper_Space0
  1

  0
ENDBLK
  5
25
330
23
100
AcDbEntity
  8
0
100
AcDbBlockEnd
  0
ENDSEC
  0
SECTION
  2
ENTITIES
  0
LINE
  5
63
330
1F
100
AcDbEntity
  8
0
  6
Continuous
 62
     7
370
    25
100
AcDbLine
 10
355.586991411
 20
255.6738795689
 30
0.0
 11
315.586991411
 21
255.6738795689
 31
0.0
  0
LINE
  5
64
330
1F
100
AcDbEntity
  8
0
  6
Continuous
 62
     7
370
    25
100
AcDbLine
 10
315.586991411
 20
180.6738795689
 30
0.0
 11
355.586991411
 21
180.6738795689
 31
0.0
  0
LINE
  5
65
330
1F
100
AcDbEntity
  8
0
  6
Continuous
 62
     7
370
    25
100
AcDbLine
 10
355.586991411
 20
218.1738795689
 30
0.0
 11
355.586991411
 21
255.6738795689
 31
0.0
  0
LINE
  5
66
330
1F
100
AcDbEntity
  8
0
  6
Continuous
 62
     7
370
    25
100
AcDbLine
 10
315.586991411
 20
218.1738795689
 30
0.0
 11
315.586991411
 21
255.6738795689
 31
0.0
  0
LINE
  5
67
330
1F
100
AcDbEntity
  8
0
  6
Continuous
 62
     7
370
    25
100
AcDbLine
 10
355.586991411
 20
180.6738795689
 30
0.0
 11
355.586991411
 21
218.1738795689
 31
0.0
  0
LINE
  5
68
330
1F
100
AcDbEntity
  8
0
  6
Continuous
 62
     7
370
    25
100
AcDbLine
 10
315.586991411
 20
180.6738795689
 30
0.0
 11
315.586991411
 21
218.1738795689
 31
0.0
  0
LINE
  5
69
330
1F
100
AcDbEntity
  8
0
  6
HIDDEN
 62
     7
370
    18
100
AcDbLine
 10
350.586991411
 20
218.1738795689
 30
0.0
 11
350.586991411
 21
234.6738795689
 31
0.0
  0
LINE
  5
6A
330
1F
100
AcDbEntity
  8
0
  6
HIDDEN
 62
     7
370
    18
100
AcDbLine
 10
350.586991411
 20
201.6738795689
 30
0.0
 11
350.586991411
 21
218.1738795689
 31
0.0
  0
LINE
  5
6B
330
1F
100
AcDbEntity
  8
0
  6
HIDDEN
 62
     7
370
    18
100
AcDbLine
 10
348.586991411
 20
188.1738795689
 30
0.0
 11
348.586991411
 21
182.6738795689
 31
0.0
  0
LINE
  5
6C
330
1F
100
AcDbEntity
  8
0
  6
HIDDEN
 62
     7
370
    18
100
AcDbLine
 10
348.586991411
 20
248.1738795689
 30
0.0
 11
348.586991411
 21
242.6738795689
 31
0.0
  0
LINE
  5
6D
330
1F
100
AcDbEntity
  8
0
  6
HIDDEN
 62
     7
370
    18
100
AcDbLine
 10
348.586991411
 20
253.6738795689
 30
0.0
 11
348.586991411
 21
248.1738795689
 31
0.0
  0
LINE
  5
6E
330
1F
100
AcDbEntity
  8
0
  6
HIDDEN
 62
     7
370
    18
100
AcDbLine
 10
348.586991411
 20
193.6738795689
 30
0.0
 11
348.586991411
 21
188.1738795689
 31
0.0
  0
LINE
  5
6F
330
1F
100
AcDbEntity
  8
0
  6
HIDDEN
 62
     7
370
    18
100
AcDbLine
 10
350.586991411
 20
234.6738795689
 30
0.0
 11
315.586991411
 21
234.6738795689
 31
0.0
  0
LINE
  5
70
330
1F
100
AcDbEntity
  8
0
  6
HIDDEN
 62
     7
370
    18
100
AcDbLine
 10
315.586991411
 20
201.6738795689
 30
0.0
 11
350.586991411
 21
201.6738795689
 31
0.0
  0
LINE
  5
71
330
1F
100
AcDbEntity
  8
0
  6
HIDDEN
 62
     7
370
    18
100
AcDbLine
 10
355.586991411
 20
231.1738795689
 30
0.0
 11
350.586991411
 21
231.1738795689
 31
0.0
  0
LINE
  5
72
330
1F
100
AcDbEntity
  8
0
  6
HIDDEN
 62
     7
370
    18
100
AcDbLine
 10
350.586991411
 20
205.1738795689
 30
0.0
 11
355.586991411
 21
205.1738795689
 31
0.0
  0
LINE
  5
73
330
1F
100
AcDbEntity
  8
0
  6
HIDDEN
 62
     7
370
    18
100
AcDbLine
 10
348.586991411
 20
182.6738795689
 30
0.0
 11
355.586991411
 21
182.6738795689
 31
0.0
  0
LINE
  5
74
330
1F
100
AcDbEntity
  8
0
  6
HIDDEN
 62
     7
370
    18
100
AcDbLine
 10
348.586991411
 20
242.6738795689
 30
0.0
 11
355.586991411
 21
242.6738795689
 31
0.0
  0
LINE
  5
75
330
1F
100
AcDbEntity
  8
0
  6
HIDDEN
 62
     7
370
    18
100
AcDbLine
 10
355.586991411
 20
253.6738795689
 30
0.0
 11
348.586991411
 21
253.6738795689
 31
0.0
  0
LINE
  5
76
330
1F
100
AcDbEntity
  8
0
  6
HIDDEN
 62
     7
370
    18
100
AcDbLine
 10
355.586991411
 20
193.6738795689
 30
0.0
 11
348.586991411
 21
193.6738795689
 31
0.0
  0
LINE
  5
77
330
1F
100
AcDbEntity
  8
0
  6
HIDDEN
 62
     7
370
    18
100
AcDbLine
 10
315.586991411
 20
184.6738795689
 30
0.0
 11
348.586991411
 21
184.6738795689
 31
0.0
  0
LINE
  5
78
330
1F
100
AcDbEntity
  8
0
  6
HIDDEN
 62
     7
370
    18
100
AcDbLine
 10
348.586991411
 20
191.6738795689
 30
0.0
 11
315.586991411
 21
191.6738795689
 31
0.0
  0
LINE
  5
79
330
1F
100
AcDbEntity
  8
0
  6
HIDDEN
 62
     7
370
    18
100
AcDbLine
 10
348.586991411
 20
251.6738795689
 30
0.0
 11
315.586991411
 21
251.6738795689
 31
0.0
  0
LINE
  5
7A
330
1F
100
AcDbEntity
  8
0
  6
HIDDEN
 62
     7
370
    18
100
AcDbLine
 10
315.586991411
 20
244.6738795689
 30
0.0
 11
348.586991411
 21
244.6738795689
 31
0.0
  0
LINE
  5
7B
330
1F
100
AcDbEntity
  8
0
  6
Continuous
 62
     7
370
    25
100
AcDbLine
 10
355.586991411
 20
403.88
 30
0.0
 11
315.586991411
 21
403.88
 31
0.0
  0
LINE
  5
7C
330
1F
100
AcDbEntity
  8
0
  6
Continuous
 62
     7
370
    25
100
AcDbLine
 10
355.586991411
 20
328.88
 30
0.0
 11
315.586991411
 21
328.88
 31
0.0
  0
LINE
  5
7D
330
1F
100
AcDbEntity
  8
0
  6
Continuous
 62
     7
370
    25
100
AcDbLine
 10
355.586991411
 20
328.88
 30
0.0
 11
355.586991411
 21
403.88
 31
0.0
  0
LINE
  5
7E
330
1F
100
AcDbEntity
  8
0
  6
Continuous
 62
     7
370
    25
100
AcDbLine
 10
315.586991411
 20
328.88
 30
0.0
 11
315.586991411
 21
403.88
 31
0.0
  0
LINE
  5
7F
330
1F
100
AcDbEntity
  8
0
  6
HIDDEN
 62
     7
370
    18
100
AcDbLine
 10
348.586991411
 20
360.88
 30
0.0
 11
355.586991411
 21
360.88
 31
0.0
  0
LINE
  5
80
330
1F
100
AcDbEntity
  8
0
  6
HIDDEN
 62
     7
370
    18
100
AcDbLine
 10
348.586991411
 20
371.88
 30
0.0
 11
355.586991411
 21
371.88
 31
0.0
  0
LINE
  5
81
330
1F
100
AcDbEntity
  8
0
  6
HIDDEN
 62
     7
370
    18
100
AcDbLine
 10
348.586991411
 20
371.88
 30
0.0
 11
348.586991411
 21
360.88
 31
0.0
  0
LINE
  5
82
330
1F
100
AcDbEntity
  8
0
  6
HIDDEN
 62
     7
370
    18
100
AcDbLine
 10
315.586991411
 20
362.88
 30
0.0
 11
348.586991411
 21
362.88
 31
0.0
  0
LINE
  5
83
330
1F
100
AcDbEntity
  8
0
  6
HIDDEN
 62
     7
370
    18
100
AcDbLine
 10
315.586991411
 20
369.88
 30
0.0
 11
348.586991411
 21
369.88
 31
0.0
  0
LINE
  5
84
330
1F
100
AcDbEntity
  8
0
  6
HIDDEN
 62
     7
370
    18
100
AcDbLine
 10
350.586991411
 20
382.88
 30
0.0
 11
315.586991411
 21
382.88
 31
0.0
  0
LINE
  5
85
330
1F
100
AcDbEntity
  8
0
  6
HIDDEN
 62
     7
370
    18
100
AcDbLine
 10
350.586991411
 20
349.88
 30
0.0
 11
315.586991411
 21
349.88
 31
0.0
  0
LINE
  5
86
330
1F
100
AcDbEntity
  8
0
  6
HIDDEN
 62
     7
370
    18
100
AcDbLine
 10
350.586991411
 20
349.88
 30
0.0
 11
350.586991411
 21
382.88
 31
0.0
  0
LINE
  5
87
330
1F
100
AcDbEntity
  8
0
  6
HIDDEN
 62
     7
370
    18
100
AcDbLine
 10
355.586991411
 20
379.38
 30
0.0
 11
350.586991411
 21
379.38
 31
0.0
  0
LINE
  5
88
330
1F
100
AcDbEntity
  8
0
  6
HIDDEN
 62
     7
370
    18
100
AcDbLine
 10
355.586991411
 20
353.38
 30
0.0
 11
350.586991411
 21
353.38
 31
0.0
  0
ARC
  5
89
330
1F
100
AcDbEntity
  8
0
  6
Continuous
 62
     7
370
    25
100
AcDbCircle
 10
472.38
 20
218.1738795689
 30
0.0
 40
37.50000000000006
100
AcDbArc
 50
180.0
 51
0.0
  0
ARC
  5
8A
330
1F
100
AcDbEntity
  8
0
  6
Continuous
 62
     7
370
    25
100
AcDbCircle
 10
472.38
 20
248.1738795689
 30
0.0
 40
5.500000000000057
100
AcDbArc
 50
0.0
 51
180.0
  0
ARC
  5
8B
330
1F
100
AcDbEntity
  8
0
  6
Continuous
 62
     7
370
    25
100
AcDbCircle
 10
472.38
 20
248.1738795689
 30
0.0
 40
5.500000000000057
100
AcDbArc
 50
180.0
 51
0.0
  0
ARC
  5
8C
330
1F
100
AcDbEntity
  8
0
  6
Continuous
 62
     7
370
    25
100
AcDbCircle
 10
472.38
 20
188.1738795689
 30
0.0
 40
5.500000000000057
100
AcDbArc
 50
0.0
 51
180.0
  0
ARC
  5
8D
330
1F
100
AcDbEntity
  8
0
  6
Continuous
 62
     7
370
    25
100
AcDbCircle
 10
472.38
 20
188.1738795689
 30
0.0
 40
5.500000000000057
100
AcDbArc
 50
180.0
 51
0.0
  0
ARC
  5
8E
330
1F
100
AcDbEntity
  8
0
  6
Continuous
 62
     7
370
    25
100
AcDbCircle
 10
472.38
 20
218.1738795689
 30
0.0
 40
13.00000000000006
100
AcDbArc
 50
0.0
 51
180.0
  0
ARC
  5
8F
330
1F
100
AcDbEntity
  8
0
  6
Continuous
 62
     7
370
    25
100
AcDbCircle
 10
472.38
 20
218.1738795689
 30
0.0
 40
13.00000000000006
100
AcDbArc
 50
180.0
 51
0.0
  0
ARC
  5
90
330
1F
100
AcDbEntity
  8
0
  6
Continuous
 62
     7
370
    25
100
AcDbCircle
 10
472.38
 20
218.1738795689
 30
0.0
 40
37.50000000000006
100
AcDbArc
 50
0.0
 51
180.0
  0
ARC
  5
91
330
1F
100
AcDbEntity
  8
0
  6
Continuous
 62
     7
370
    25
100
AcDbCircle
 10
472.38
 20
248.1738795689
 30
0.0
 40
3.500000000000057
100
AcDbArc
 50
180.0
 51
0.0
  0
ARC
  5
92
330
1F
100
AcDbEntity
  8
0
  6
Continuous
 62
     7
370
    25
100
AcDbCircle
 10
472.38
 20
248.1738795689
 30
0.0
 40
3.500000000000057
100
AcDbArc
 50
0.0
 51
180.0
  0
ARC
  5
93
330
1F
100
AcDbEntity
  8
0
  6
Continuous
 62
     7
370
    25
100
AcDbCircle
 10
472.38
 20
188.1738795689
 30
0.0
 40
3.500000000000057
100
AcDbArc
 50
180.0
 51
0.0
  0
ARC
  5
94
330
1F
100
AcDbEntity
  8
0
  6
Continuous
 62
     7
370
    25
100
AcDbCircle
 10
472.38
 20
188.1738795689
 30
0.0
 40
3.500000000000057
100
AcDbArc
 50
0.0
 51
180.0
  0
ARC
  5
95
330
1F
100
AcDbEntity
  8
0
  6
HIDDEN
 62
     7
370
    18
100
AcDbCircle
 10
472.38
 20
218.1738795689
 30
0.0
 40
16.50000000000006
100
AcDbArc
 50
0.0
 51
180.0
  0
ARC
  5
96
330
1F
100
AcDbEntity
  8
0
  6
HIDDEN
 62
     7
370
    18
100
AcDbCircle
 10
472.38
 20
218.1738795689
 30
0.0
 40
16.50000000000006
100
AcDbArc
 50
180.0
 51
0.0
  0
LINE
  5
97
330
1F
100
AcDbEntity
  8
0
  6
Continuous
 62
     7
370
    25
100
AcDbLine
 10
509.88
 20
350.0491837623
 30
0.0
 11
509.88
 21
382.7108162377
 31
0.0
  0
LINE
  5
98
330
1F
100
AcDbEntity
  8
0
  6
Continuous
 62
     7
370
    25
100
AcDbLine
 10
434.88
 20
382.7108162377
 30
0.0
 11
434.88
 21
350.0491837623
 31
0.0
  0
LWPOLYLINE
  5
99
330
1F
100
AcDbEntity
  8
0
  6
Continuous
 62
     7
370
    25
100
AcDbPolyline
 90
       70
 70
   128
 43
0.0
 10
445.8634957055
 20
367.403164141
 10
444.6840873943
 20
368.1157495132
 10
443.5620830914
 20
368.8585853898
 10
442.4998083219
 20
369.6301321303
 10
441.4994648126
 20
370.428790586
 10
440.5631259281
 20
371.2529054155
 10
439.6927323738
 20
372.1007685148
 10
438.8900881732
 20
372.9706225583
 10
438.1568569289
 20
373.8606646405
 10
437.4945583748
 20
374.7690500134
 10
436.9045652257
 20
375.6938959096
 10
436.3881003325
 20
376.6332854447
 10
435.9462341476
 20
377.5852715904
 10
435.579882506
 20
378.5478812101
 10
435.2898047276
 20
379.5191191484
 10
435.0766020428
 20
380.4969723663
 10
434.9407163468
 20
381.4794141137
 10
434.8824292833
 20
382.46440813
 10
434.9018616613
 20
383.4499128647
 10
434.9989732041
 20
384.4338857089
 10
435.1735626333
 20
385.4142872284
 10
435.4252680856
 20
386.3890853914
 10
435.753567863
 20
387.35625978
 10
436.1577815142
 20
388.3138057774
 10
436.6370712445
 20
389.2597387234
 10
437.1904436528
 20
390.1920980274
 10
437.8167517903
 20
391.1089512325
 10
438.5146975378
 20
392.0083980204
 10
439.2828342961
 20
392.8885741503
 10
440.1195699845
 20
393.7476553226
 10
441.0231703404
 20
394.5838609606
 10
441.9917625143
 20
395.3954579002
 10
443.0233389508
 20
396.180763983
 10
444.1157615502
 20
396.9381515422
 10
445.2667661
 20
397.6660507763
 10
446.4739669674
 20
398.3629530031
 10
447.7348620443
 20
399.0274137862
 10
449.0468379331
 20
399.6580559293
 10
450.4071753634
 20
400.2535723302
 10
451.8130548282
 20
400.8127286901
 10
453.2615624275
 20
401.3343660723
 10
454.7496959082
 20
401.8174033034
 10
456.2743708864
 20
402.2608392152
 10
457.8324272403
 20
402.6637547189
 10
459.4206356604
 20
403.0253147107
 10
461.035704342
 20
403.3447698022
 10
462.6742858087
 20
403.6214578741
 10
464.3329838501
 20
403.8548054479
 10
466.0083605614
 20
404.0443288753
 10
467.6969434684
 20
404.18963534
 10
469.3952327252
 20
404.2904236721
 10
471.099708368
 20
404.3464849725
 10
472.8068376107
 20
404.3577030455
 10
474.5130821673
 20
404.32405464
 10
476.2149055853
 20
404.2456094974
 10
477.9087805759
 20
404.1225302073
 10
479.5911963245
 20
403.9550718703
 10
481.2586657675
 20
403.7435815693
 10
482.9077328199
 20
403.4884976504
 10
484.5349795383
 20
403.1903488138
 10
486.1370332055
 20
402.8497530186
 10
487.7105733206
 20
402.4674162016
 10
489.2523384814
 20
402.0441308142
 10
490.7591331442
 20
401.58077418
 10
492.2278342469
 20
401.0783066764
 10
493.6553976823
 20
400.537769744
 10
495.038864607
 20
399.9602837282
 10
496.3753675748
 20
399.347045557
 10
497.6621364789
 20
398.69932626
 10
498.8965042945
 20
398.0184683344
  0
LWPOLYLINE
  5
9A
330
1F
100
AcDbEntity
  8
0
  6
Continuous
 62
     7
370
    25
100
AcDbPolyline
 90
       70
 70
   128
 43
0.0
 10
498.8965042945
 20
398.0184683344
 10
500.0759126057
 20
397.3058829623
 10
501.1979169086
 20
396.5630470856
 10
502.2601916781
 20
395.7915003452
 10
503.2605351874
 20
394.9928418894
 10
504.1968740719
 20
394.16872706
 10
505.0672676262
 20
393.3208639606
 10
505.8699118268
 20
392.4510099172
 10
506.6031430711
 20
391.5609678349
 10
507.2654416252
 20
390.652582462
 10
507.8554347743
 20
389.7277365658
 10
508.3718996675
 20
388.7883470307
 10
508.8137658524
 20
387.836360885
 10
509.180117494
 20
386.8737512653
 10
509.4701952724
 20
385.902513327
 10
509.6833979572
 20
384.9246601091
 10
509.8192836532
 20
383.9422183618
 10
509.8775707167
 20
382.9572243454
 10
509.8581383387
 20
381.9717196107
 10
509.7610267959
 20
380.9877467666
 10
509.5864373667
 20
380.007345247
 10
509.3347319144
 20
379.032547084
 10
509.006432137
 20
378.0653726954
 10
508.6022184858
 20
377.107826698
 10
508.1229287555
 20
376.1618937521
 10
507.5695563472
 20
375.229534448
 10
506.9432482097
 20
374.3126812429
 10
506.2453024622
 20
373.413234455
 10
505.4771657039
 20
372.5330583252
 10
504.6404300155
 20
371.6739771528
 10
503.7368296596
 20
370.8377715149
 10
502.7682374857
 20
370.0261745752
 10
501.7366610492
 20
369.2408684924
 10
500.6442384498
 20
368.4834809333
 10
499.4932339
 20
367.7555816991
 10
498.2860330326
 20
367.0586794724
 10
497.0251379557
 20
366.3942186892
 10
495.7131620669
 20
365.7635765461
 10
494.3528246366
 20
365.1680601453
 10
492.9469451718
 20
364.6089037853
 10
491.4984375725
 20
364.0872664032
 10
490.0103040918
 20
363.604229172
 10
488.4856291136
 20
363.1607932602
 10
486.9275727597
 20
362.7578777565
 10
485.3393643396
 20
362.3963177647
 10
483.724295658
 20
362.0768626732
 10
482.0857141913
 20
361.8001746014
 10
480.4270161499
 20
361.5668270275
 10
478.7516394386
 20
361.3773036001
 10
477.0630565316
 20
361.2319971354
 10
475.3647672748
 20
361.1312088033
 10
473.660291632
 20
361.0751475029
 10
471.9531623893
 20
361.0639294299
 10
470.2469178327
 20
361.0975778354
 10
468.5450944147
 20
361.176022978
 10
466.8512194241
 20
361.2991022681
 10
465.1688036755
 20
361.4665606051
 10
463.5013342325
 20
361.6780509061
 10
461.8522671801
 20
361.9331348251
 10
460.2250204617
 20
362.2312836616
 10
458.6229667945
 20
362.5718794568
 10
457.0494266794
 20
362.9542162738
 10
455.5076615186
 20
363.3775016613
 10
454.0008668558
 20
363.8408582954
 10
452.5321657531
 20
364.343325799
 10
451.1046023177
 20
364.8838627314
 10
449.721135393
 20
365.4613487472
 10
448.3846324252
 20
366.0745869185
 10
447.0978635211
 20
366.7223062155
 10
445.8634957055
 20
367.403164141
  0
LWPOLYLINE
  5
9B
330
1F
100
AcDbEntity
  8
0
  6
Continuous
 62
     7
370
    25
100
AcDbPolyline
 90
       27
 70
   128
 43
0.0
 10
455.0558838609
 20
397.2020602226
 10
454.5587503639
 20
397.4563103429
 10
454.0121545424
 20
397.6741139851
 10
453.4240669944
 20
397.8522950816
 10
452.8030633606
 20
397.9882553509
 10
452.1581992724
 20
398.0800121861
 10
451.4988783002
 20
398.1262275658
 10
450.8347148286
 20
398.1262275658
 10
450.1753938564
 20
398.0800121861
 10
449.5305297682
 20
397.9882553509
 10
448.9095261344
 20
397.8522950816
 10
448.3214385864
 20
397.6741139851
 10
447.7748427649
 20
397.4563103429
 10
447.2777092679
 20
397.2020602226
 10
446.8372874211
 20
396.9150711634
 10
446.4599995667
 20
396.5995281122
 10
446.1513474114
 20
396.2600323971
 10
445.9158317986
 20
395.9015346302
 10
445.7568870762
 20
395.5292625161
 10
445.6768310162
 20
395.1486446206
 10
445.6768310162
 20
394.7652312096
 10
445.7568870762
 20
394.384613314
 10
445.9158317986
 20
394.0123411999
 10
446.1513474114
 20
393.653843433
 10
446.4599995667
 20
393.3143477179
 10
446.8372874211
 20
392.9988046667
 10
447.2777092679
 20
392.7118156075
  0
LWPOLYLINE
  5
9C
330
1F
100
AcDbEntity
  8
0
  6
Continuous
 62
     7
370
    25
100
AcDbPolyline
 90
       27
 70
   128
 43
0.0
 10
447.2777092679
 20
392.7118156075
 10
447.7748427649
 20
392.4575654872
 10
448.3214385864
 20
392.239761845
 10
448.9095261344
 20
392.0615807485
 10
449.5305297682
 20
391.9256204792
 10
450.1753938564
 20
391.833863644
 10
450.8347148286
 20
391.7876482643
 10
451.4988783002
 20
391.7876482643
 10
452.1581992724
 20
391.833863644
 10
452.8030633606
 20
391.9256204792
 10
453.4240669944
 20
392.0615807485
 10
454.0121545424
 20
392.239761845
 10
454.5587503639
 20
392.4575654872
 10
455.0558838609
 20
392.7118156075
 10
455.4963057078
 20
392.9988046667
 10
455.8735935621
 20
393.3143477179
 10
456.1822457174
 20
393.653843433
 10
456.4177613302
 20
394.0123411999
 10
456.5767060526
 20
394.384613314
 10
456.6567621126
 20
394.7652312096
 10
456.6567621126
 20
395.1486446206
 10
456.5767060526
 20
395.5292625161
 10
456.4177613302
 20
395.9015346302
 10
456.1822457174
 20
396.2600323971
 10
455.8735935621
 20
396.5995281122
 10
455.4963057078
 20
396.9150711634
 10
455.0558838609
 20
397.2020602226
  0
LWPOLYLINE
  5
9D
330
1F
100
AcDbEntity
  8
0
  6
Continuous
 62
     7
370
    25
100
AcDbPolyline
 90
       27
 70
   128
 43
0.0
 10
497.4822907321
 20
372.7098168679
 10
496.9851572351
 20
372.9640669882
 10
496.4385614136
 20
373.1818706304
 10
495.8504738656
 20
373.360051727
 10
495.2294702318
 20
373.4960119963
 10
494.5846061436
 20
373.5877688314
 10
493.9252851714
 20
373.6339842111
 10
493.2611216998
 20
373.6339842111
 10
492.6018007276
 20
373.5877688314
 10
491.9569366394
 20
373.4960119963
 10
491.3359330056
 20
373.360051727
 10
490.7478454576
 20
373.1818706304
 10
490.2012496361
 20
372.9640669882
 10
489.7041161391
 20
372.7098168679
 10
489.2636942922
 20
372.4228278088
 10
488.8864064379
 20
372.1072847575
 10
488.5777542826
 20
371.7677890425
 10
488.3422386698
 20
371.4092912755
 10
488.1832939474
 20
371.0370191614
 10
488.1032378874
 20
370.6564012659
 10
488.1032378874
 20
370.2729878549
 10
488.1832939474
 20
369.8923699593
 10
488.3422386698
 20
369.5200978452
 10
488.5777542826
 20
369.1616000783
 10
488.8864064379
 20
368.8221043632
 10
489.2636942922
 20
368.506561312
 10
489.7041161391
 20
368.2195722529
  0
LWPOLYLINE
  5
9E
330
1F
100
AcDbEntity
  8
0
  6
Continuous
 62
     7
370
    25
100
AcDbPolyline
 90
       27
 70
   128
 43
0.0
 10
489.7041161391
 20
368.2195722529
 10
490.2012496361
 20
367.9653221326
 10
490.7478454576
 20
367.7475184903
 10
491.3359330056
 20
367.5693373938
 10
491.9569366394
 20
367.4333771245
 10
492.6018007276
 20
367.3416202893
 10
493.2611216998
 20
367.2954049096
 10
493.9252851714
 20
367.2954049096
 10
494.5846061436
 20
367.3416202893
 10
495.2294702318
 20
367.4333771245
 10
495.8504738656
 20
367.5693373938
 10
496.4385614136
 20
367.7475184903
 10
496.9851572351
 20
367.9653221326
 10
497.4822907321
 20
368.2195722529
 10
497.9227125789
 20
368.506561312
 10
498.3000004333
 20
368.8221043632
 10
498.6086525886
 20
369.1616000783
 10
498.8441682014
 20
369.5200978452
 10
499.0031129238
 20
369.8923699593
 10
499.0831689838
 20
370.2729878549
 10
499.0831689838
 20
370.6564012659
 10
499.0031129238
 20
371.0370191614
 10
498.8441682014
 20
371.4092912755
 10
498.6086525886
 20
371.7677890425
 10
498.3000004333
 20
372.1072847575
 10
497.9227125789
 20
372.4228278088
 10
497.4822907321
 20
372.7098168679
  0
LWPOLYLINE
  5
9F
330
1F
100
AcDbEntity
  8
0
  6
Continuous
 62
     7
370
    25
100
AcDbPolyline
 90
       41
 70
   128
 43
0.0
 10
463.1876118446
 20
377.4041635109
 10
462.4947224472
 20
377.8368773245
 10
461.8627790731
 20
378.2996405923
 10
461.2956778634
 20
378.7896002248
 10
460.7969151856
 20
379.303735458
 10
460.3695660774
 20
379.8388764771
 10
460.0162652882
 20
380.3917239599
 10
459.7391910348
 20
380.9588694177
 10
459.5400515723
 20
381.5368162103
 10
459.4200746615
 20
382.1220011035
 10
459.38
 20
382.7108162377
 10
459.4200746615
 20
383.299631372
 10
459.5400515723
 20
383.8848162651
 10
459.7391910348
 20
384.4627630577
 10
460.0162652882
 20
385.0299085155
 10
460.3695660774
 20
385.5827559983
 10
460.7969151856
 20
386.1178970175
 10
461.2956778634
 20
386.6320322506
 10
461.8627790731
 20
387.1219918831
 10
462.4947224472
 20
387.5847551509
 10
463.1876118446
 20
388.0174689646
 10
463.9371753717
 20
388.4174654995
 10
464.7387917202
 20
388.7822786441
 10
465.5875186587
 20
389.109659204
 10
466.4781235034
 20
389.3975887691
 10
467.4051153793
 20
389.6442921581
 10
468.3627790731
 20
389.8482483623
 10
469.3452102699
 20
390.0081999241
 10
470.3463519545
 20
390.1231606889
 10
471.3600317555
 20
390.1924218852
 10
472.38
 20
390.2155564948
 10
473.3999682445
 20
390.1924218852
 10
474.4136480455
 20
390.1231606889
 10
475.4147897301
 20
390.0081999241
 10
476.3972209269
 20
389.8482483623
 10
477.3548846207
 20
389.6442921581
 10
478.2818764966
 20
389.3975887691
 10
479.1724813413
 20
389.109659204
 10
480.0212082798
 20
388.7822786441
 10
480.8228246283
 20
388.4174654995
 10
481.5723881554
 20
388.0174689646
  0
LWPOLYLINE
  5
A0
330
1F
100
AcDbEntity
  8
0
  6
Continuous
 62
     7
370
    25
100
AcDbPolyline
 90
       41
 70
   128
 43
0.0
 10
481.5723881554
 20
388.0174689646
 10
482.2652775528
 20
387.5847551509
 10
482.8972209269
 20
387.1219918831
 10
483.4643221366
 20
386.6320322506
 10
483.9630848144
 20
386.1178970175
 10
484.3904339226
 20
385.5827559983
 10
484.7437347118
 20
385.0299085155
 10
485.0208089652
 20
384.4627630577
 10
485.2199484277
 20
383.8848162651
 10
485.3399253385
 20
383.299631372
 10
485.38
 20
382.7108162377
 10
485.3399253385
 20
382.1220011035
 10
485.2199484277
 20
381.5368162103
 10
485.0208089652
 20
380.9588694177
 10
484.7437347118
 20
380.3917239599
 10
484.3904339226
 20
379.8388764771
 10
483.9630848144
 20
379.303735458
 10
483.4643221366
 20
378.7896002248
 10
482.8972209269
 20
378.2996405923
 10
482.2652775528
 20
377.8368773245
 10
481.5723881554
 20
377.4041635109
 10
480.8228246283
 20
377.0041669759
 10
480.0212082798
 20
376.6393538313
 10
479.1724813413
 20
376.3119732715
 10
478.2818764966
 20
376.0240437063
 10
477.3548846207
 20
375.7773403174
 10
476.3972209269
 20
375.5733841131
 10
475.4147897301
 20
375.4134325513
 10
474.4136480455
 20
375.2984717866
 10
473.3999682445
 20
375.2292105902
 10
472.38
 20
375.2060759806
 10
471.3600317555
 20
375.2292105902
 10
470.3463519545
 20
375.2984717866
 10
469.3452102699
 20
375.4134325513
 10
468.3627790731
 20
375.5733841131
 10
467.4051153793
 20
375.7773403174
 10
466.4781235034
 20
376.0240437063
 10
465.5875186587
 20
376.3119732715
 10
464.7387917202
 20
376.6393538313
 10
463.9371753717
 20
377.0041669759
 10
463.1876118446
 20
377.4041635109
  0
LWPOLYLINE
  5
A1
330
1F
100
AcDbEntity
  8
0
  6
Continuous
 62
     7
370
    25
100
AcDbPolyline
 90
       53
 70
   128
 43
0.0
 10
509.88
 20
350.0491837623
 10
509.8581383387
 20
349.3100871353
 10
509.7610267959
 20
348.3261142911
 10
509.5864373667
 20
347.3457127716
 10
509.3347319144
 20
346.3709146086
 10
509.006432137
 20
345.40374022
 10
508.6022184858
 20
344.4461942226
 10
508.1229287555
 20
343.5002612766
 10
507.5695563472
 20
342.5679019726
 10
506.9432482097
 20
341.6510487675
 10
506.2453024622
 20
340.7516019796
 10
505.4771657039
 20
339.8714258497
 10
504.6404300155
 20
339.0123446774
 10
503.7368296596
 20
338.1761390394
 10
502.7682374857
 20
337.3645420998
 10
501.7366610492
 20
336.579236017
 10
500.6442384498
 20
335.8218484578
 10
499.4932339
 20
335.0939492237
 10
498.2860330326
 20
334.3970469969
 10
497.0251379557
 20
333.7325862138
 10
495.7131620669
 20
333.1019440707
 10
494.3528246366
 20
332.5064276698
 10
492.9469451718
 20
331.9472713099
 10
491.4984375725
 20
331.4256339277
 10
490.0103040918
 20
330.9425966966
 10
488.4856291136
 20
330.4991607848
 10
486.9275727597
 20
330.0962452811
 10
485.3393643396
 20
329.7346852893
 10
483.724295658
 20
329.4152301978
 10
482.0857141913
 20
329.1385421259
 10
480.4270161499
 20
328.9051945521
 10
478.7516394386
 20
328.7156711247
 10
477.0630565316
 20
328.57036466
 10
475.3647672748
 20
328.4695763279
 10
473.660291632
 20
328.4135150275
 10
471.9531623893
 20
328.4022969545
 10
470.2469178327
 20
328.43594536
 10
468.5450944147
 20
328.5143905026
 10
466.8512194241
 20
328.6374697927
 10
465.1688036755
 20
328.8049281297
 10
463.5013342325
 20
329.0164184307
 10
461.8522671801
 20
329.2715023496
 10
460.2250204617
 20
329.5696511862
 10
458.6229667945
 20
329.9102469814
 10
457.0494266794
 20
330.2925837984
 10
455.5076615186
 20
330.7158691858
 10
454.0008668558
 20
331.17922582
 10
452.5321657531
 20
331.6816933236
 10
451.1046023177
 20
332.222230256
 10
449.721135393
 20
332.7997162718
 10
448.3846324252
 20
333.412954443
 10
447.0978635211
 20
334.06067374
 10
445.8634957055
 20
334.7415316656
  0
LWPOLYLINE
  5
A2
330
1F
100
AcDbEntity
  8
0
  6
Continuous
 62
     7
370
    25
100
AcDbPolyline
 90
       19
 70
   128
 43
0.0
 10
445.8634957055
 20
334.7415316656
 10
444.6840873943
 20
335.4541170377
 10
443.5620830914
 20
336.1969529144
 10
442.4998083219
 20
336.9684996548
 10
441.4994648126
 20
337.7671581106
 10
440.5631259281
 20
338.59127294
 10
439.6927323738
 20
339.4391360394
 10
438.8900881732
 20
340.3089900828
 10
438.1568569289
 20
341.1990321651
 10
437.4945583748
 20
342.107417538
 10
436.9045652257
 20
343.0322634342
 10
436.3881003325
 20
343.9716529693
 10
435.9462341476
 20
344.923639115
 10
435.579882506
 20
345.8862487347
 10
435.2898047276
 20
346.857486673
 10
435.0766020428
 20
347.8353398909
 10
434.9407163468
 20
348.8177816382
 10
434.8824292833
 20
349.8027756546
 10
434.88
 20
350.0491837623
  0
ARC
  5
A3
330
1F
100
AcDbEntity
  8
0
  6
Continuous
 62
     7
370
    25
100
AcDbCircle
 10
493.5932034356
 20
358.8117782736
 30
0.0
 40
9.115616941727735
100
AcDbArc
 50
74.7593646523
 51
105.2406353477
  0
ARC
  5
A4
330
1F
100
AcDbEntity
  8
0
  6
Continuous
 62
     7
370
    25
100
AcDbCircle
 10
477.9954118659
 20
376.9828048538
 30
0.0
 40
7.818216416240205
100
AcDbArc
 50
28.1347863417
 51
62.7729230305
  0
LWPOLYLINE
  5
A5
330
1F
100
AcDbEntity
  8
0
  6
Continuous
 62
     7
370
    25
100
AcDbPolyline
 90
       28
 70
   128
 43
0.0
 10
459.8701664225
 20
380.669464208
 10
460.0162652882
 20
380.9472044561
 10
460.3695660774
 20
381.5000519389
 10
460.7969151856
 20
382.035192958
 10
461.2956778634
 20
382.5493281912
 10
461.8627790731
 20
383.0392878237
 10
462.4947224472
 20
383.5020510915
 10
463.1876118446
 20
383.9347649051
 10
463.9371753717
 20
384.3347614401
 10
464.7387917202
 20
384.6995745847
 10
465.5875186587
 20
385.0269551445
 10
466.4781235034
 20
385.3148847097
 10
467.4051153793
 20
385.5615880986
 10
468.3627790731
 20
385.7655443029
 10
469.3452102699
 20
385.9254958647
 10
470.3463519545
 20
386.0404566294
 10
471.3600317555
 20
386.1097178258
 10
472.38
 20
386.1328524354
 10
473.3999682445
 20
386.1097178258
 10
474.4136480455
 20
386.0404566294
 10
475.4147897301
 20
385.9254958647
 10
476.3972209269
 20
385.7655443029
 10
477.3548846207
 20
385.5615880986
 10
478.2818764966
 20
385.3148847097
 10
479.1724813413
 20
385.0269551445
 10
480.0212082798
 20
384.6995745847
 10
480.8228246283
 20
384.3347614401
 10
481.5723881554
 20
383.9347649051
  0
ARC
  5
A6
330
1F
100
AcDbEntity
  8
0
  6
Continuous
 62
     7
370
    25
100
AcDbCircle
 10
451.1667965644
 20
383.3040216283
 30
0.0
 40
9.11561694172723
100
AcDbArc
 50
74.7593646523
 51
105.2406353477
  0
LWPOLYLINE
  5
A7
330
1F
100
AcDbEntity
  8
0
  6
HIDDEN
 62
     7
370
    18
100
AcDbPolyline
 90
       19
 70
   128
 43
0.0
 10
498.8965042945
 20
365.356835859
 10
500.0759126057
 20
364.6442504868
 10
501.1979169086
 20
363.9014146102
 10
502.2601916781
 20
363.1298678697
 10
503.2605351874
 20
362.331209414
 10
504.1968740719
 20
361.5070945845
 10
505.0672676262
 20
360.6592314852
 10
505.8699118268
 20
359.7893774417
 10
506.6031430711
 20
358.8993353595
 10
507.2654416252
 20
357.9909499866
 10
507.8554347743
 20
357.0661040904
 10
508.3718996675
 20
356.1267145553
 10
508.8137658524
 20
355.1747284096
 10
509.180117494
 20
354.2121187899
 10
509.4701952724
 20
353.2408808516
 10
509.6833979572
 20
352.2630276337
 10
509.8192836532
 20
351.2805858863
 10
509.8775707167
 20
350.29559187
 10
509.88
 20
350.0491837623
  0
LWPOLYLINE
  5
A8
330
1F
100
AcDbEntity
  8
0
  6
HIDDEN
 62
     7
370
    18
100
AcDbPolyline
 90
       27
 70
   128
 43
0.0
 10
489.7041161391
 20
362.5037865697
 10
490.2012496361
 20
362.2495364494
 10
490.7478454576
 20
362.0317328071
 10
491.3359330056
 20
361.8535517106
 10
491.9569366394
 20
361.7175914413
 10
492.6018007276
 20
361.6258346061
 10
493.2611216998
 20
361.5796192264
 10
493.9252851714
 20
361.5796192264
 10
494.5846061436
 20
361.6258346061
 10
495.2294702318
 20
361.7175914413
 10
495.8504738656
 20
361.8535517106
 10
496.4385614136
 20
362.0317328071
 10
496.9851572351
 20
362.2495364494
 10
497.4822907321
 20
362.5037865697
 10
497.9227125789
 20
362.7907756288
 10
498.3000004333
 20
363.10631868
 10
498.6086525886
 20
363.4458143951
 10
498.8441682014
 20
363.804312162
 10
499.0031129238
 20
364.1765842761
 10
499.0831689838
 20
364.5572021717
 10
499.0831689838
 20
364.9406155827
 10
499.0031129238
 20
365.3212334782
 10
498.8441682014
 20
365.6935055923
 10
498.6086525886
 20
366.0520033593
 10
498.3000004333
 20
366.3914990743
 10
497.9227125789
 20
366.7070421256
 10
497.4822907321
 20
366.9940311847
  0
LWPOLYLINE
  5
A9
330
1F
100
AcDbEntity
  8
0
  6
HIDDEN
 62
     7
370
    18
100
AcDbPolyline
 90
       53
 70
   128
 43
0.0
 10
434.88
 20
350.0491837623
 10
434.9018616613
 20
350.7882803893
 10
434.9989732041
 20
351.7722532334
 10
435.1735626333
 20
352.752654753
 10
435.4252680856
 20
353.727452916
 10
435.753567863
 20
354.6946273046
 10
436.1577815142
 20
355.652173302
 10
436.6370712445
 20
356.5981062479
 10
437.1904436528
 20
357.530465552
 10
437.8167517903
 20
358.4473187571
 10
438.5146975378
 20
359.346765545
 10
439.2828342961
 20
360.2269416748
 10
440.1195699845
 20
361.0860228472
 10
441.0231703404
 20
361.9222284851
 10
441.9917625143
 20
362.7338254248
 10
443.0233389508
 20
363.5191315076
 10
444.1157615502
 20
364.2765190667
 10
445.2667661
 20
365.0044183009
 10
446.4739669674
 20
365.7013205276
 10
447.7348620443
 20
366.3657813108
 10
449.0468379331
 20
366.9964234539
 10
450.4071753634
 20
367.5919398547
 10
451.8130548282
 20
368.1510962147
 10
453.2615624275
 20
368.6727335968
 10
454.7496959082
 20
369.155770828
 10
456.2743708864
 20
369.5992067398
 10
457.8324272403
 20
370.0021222435
 10
459.4206356604
 20
370.3636822353
 10
461.035704342
 20
370.6831373268
 10
462.6742858087
 20
370.9598253986
 10
464.3329838501
 20
371.1931729725
 10
466.0083605614
 20
371.3826963999
 10
467.6969434684
 20
371.5280028646
 10
469.3952327252
 20
371.6287911967
 10
471.099708368
 20
371.6848524971
 10
472.8068376107
 20
371.6960705701
 10
474.5130821673
 20
371.6624221646
 10
476.2149055853
 20
371.583977022
 10
477.9087805759
 20
371.4608977319
 10
479.5911963245
 20
371.2934393949
 10
481.2586657675
 20
371.0819490939
 10
482.9077328199
 20
370.8268651749
 10
484.5349795383
 20
370.5287163384
 10
486.1370332055
 20
370.1881205432
 10
487.7105733206
 20
369.8057837262
 10
489.2523384814
 20
369.3824983387
 10
490.7591331442
 20
368.9191417046
 10
492.2278342469
 20
368.416674201
 10
493.6553976823
 20
367.8761372686
 10
495.038864607
 20
367.2986512528
 10
496.3753675748
 20
366.6854130815
 10
497.6621364789
 20
366.0376937845
 10
498.8965042945
 20
365.356835859
  0
ARC
  5
AA
330
1F
100
AcDbEntity
  8
0
  6
HIDDEN
 62
     7
370
    18
100
AcDbCircle
 10
494.2786562291
 20
361.3141363404
 30
0.0
 40
6.521079624623122
100
AcDbArc
 50
60.5756715508
 51
74.7904850531
  0
LWPOLYLINE
  5
AB
330
1F
100
AcDbEntity
  8
0
  6
HIDDEN
 62
     7
370
    18
100
AcDbPolyline
 90
       17
 70
   128
 43
0.0
 10
491.1969491028
 20
367.6068017188
 10
490.7478454576
 20
367.4660849472
 10
490.2012496361
 20
367.248281305
 10
489.7041161391
 20
366.9940311847
 10
489.2636942922
 20
366.7070421256
 10
488.8864064379
 20
366.3914990743
 10
488.5777542826
 20
366.0520033593
 10
488.3422386698
 20
365.6935055923
 10
488.1832939474
 20
365.3212334782
 10
488.1032378874
 20
364.9406155827
 10
488.1032378874
 20
364.5572021717
 10
488.1832939474
 20
364.1765842761
 10
488.3422386698
 20
363.804312162
 10
488.5777542826
 20
363.4458143951
 10
488.8864064379
 20
363.10631868
 10
489.2636942922
 20
362.7907756288
 10
489.7041161391
 20
362.5037865697
  0
LWPOLYLINE
  5
AC
330
1F
100
AcDbEntity
  8
0
  6
HIDDEN
 62
     7
370
    18
100
AcDbPolyline
 90
       22
 70
   128
 43
0.0
 10
496.0680771697
 20
366.1776230729
 10
496.4092956648
 20
365.9487267143
 10
496.6876073129
 20
365.6930284079
 10
496.8967950917
 20
365.4162400313
 10
497.0321860919
 20
365.1245445794
 10
497.0907559024
 20
364.8244580467
 10
497.0711961702
 20
364.5226838703
 10
496.9739438276
 20
364.2259631868
 10
496.8011713311
 20
363.9409242459
 10
496.5567381329
 20
363.6739343464
 10
496.2461044666
 20
363.4309576017
 10
495.8762093751
 20
363.2174217106
 10
495.4553157034
 20
363.0380967121
 10
494.9928255207
 20
362.8969884303
 10
494.4990700935
 20
362.7972489911
 10
493.985079102
 20
362.7411064088
 10
493.4623342556
 20
362.7298148157
 10
492.9425128105
 20
362.7636264476
 10
492.4372267188
 20
362.8417860084
 10
491.9577632366
 20
362.9625475426
 10
491.5148327861
 20
363.1232134372
 10
491.1183297014
 20
363.3201946815
  0
LWPOLYLINE
  5
AD
330
1F
100
AcDbEntity
  8
0
  6
HIDDEN
 62
     7
370
    18
100
AcDbPolyline
 90
       22
 70
   128
 43
0.0
 10
491.1183297014
 20
363.3201946815
 10
490.7771112064
 20
363.5490910401
 10
490.4987995583
 20
363.8047893465
 10
490.2896117795
 20
364.0815777231
 10
490.1542207793
 20
364.373273175
 10
490.0956509688
 20
364.6733597077
 10
490.115210701
 20
364.975133884
 10
490.2124630436
 20
365.2718545675
 10
490.3852355401
 20
365.5568935085
 10
490.6296687383
 20
365.8238834079
 10
490.9403024046
 20
366.0668601527
 10
491.3101974961
 20
366.2803960438
 10
491.7310911678
 20
366.4597210423
 10
492.1935813505
 20
366.600829324
 10
492.6873367777
 20
366.7005687632
 10
493.2013277692
 20
366.7567113456
 10
493.7240726156
 20
366.7680029386
 10
494.2438940607
 20
366.7341913067
 10
494.7491801524
 20
366.656031746
 10
495.2286436346
 20
366.5352702117
 10
495.6715740851
 20
366.3746043172
 10
496.0680771697
 20
366.1776230729
  0
LWPOLYLINE
  5
AE
330
1F
100
AcDbEntity
  8
0
  6
HIDDEN
 62
     7
370
    18
100
AcDbPolyline
 90
       22
 70
   128
 43
0.0
 10
491.1183297014
 20
336.3743478893
 10
491.5148327861
 20
336.1773666449
 10
491.9577632366
 20
336.0167007504
 10
492.4372267188
 20
335.8959392161
 10
492.9425128105
 20
335.8177796554
 10
493.4623342556
 20
335.7839680235
 10
493.985079102
 20
335.7952596165
 10
494.4990700935
 20
335.8514021989
 10
494.9928255207
 20
335.9511416381
 10
495.4553157034
 20
336.0922499199
 10
495.8762093751
 20
336.2715749184
 10
496.2461044666
 20
336.4851108095
 10
496.5567381329
 20
336.7280875542
 10
496.8011713311
 20
336.9950774536
 10
496.9739438276
 20
337.2801163946
 10
497.0711961702
 20
337.5768370781
 10
497.0907559024
 20
337.8786112544
 10
497.0321860919
 20
338.1786977872
 10
496.8967950917
 20
338.470393239
 10
496.6876073129
 20
338.7471816157
 10
496.4092956648
 20
339.0028799221
 10
496.0680771697
 20
339.2317762806
  0
LWPOLYLINE
  5
AF
330
1F
100
AcDbEntity
  8
0
  6
HIDDEN
 62
     7
370
    18
100
AcDbPolyline
 90
       46
 70
   128
 43
0.0
 10
484.0472618896
 20
385.3634791008
 10
484.8327080737
 20
384.8772366396
 10
485.5574859158
 20
384.3605490722
 10
486.2180643711
 20
383.8159336485
 10
486.8112251678
 20
383.24604368
 10
487.3340784861
 20
382.6536556135
 10
487.7840770372
 20
382.041655504
 10
488.1590284734
 20
381.4130249545
 10
488.457106069
 20
380.7708265899
 10
488.6768576198
 20
380.1181891361
 10
488.8172125185
 20
379.4582921772
 10
488.8774869701
 20
378.7943506647
 10
488.8573873235
 20
378.129599255
 10
488.7570115021
 20
377.4672765502
 10
488.5768485269
 20
376.8106093199
 10
488.3177761338
 20
376.1627967808
 10
487.9810564974
 20
375.5269950105
 10
487.568330082
 20
374.9063015714
 10
487.0816076491
 20
374.3037404194
 10
486.5232604616
 20
373.7222471719
 10
485.8960087308
 20
373.1646548056
 10
485.202908364
 20
372.6336798544
 10
484.4473360767
 20
372.131909175
 10
483.632972941
 20
371.6617873436
 10
482.7637864523
 20
371.2256047465
 10
481.8440111998
 20
370.8254864216
 10
480.878128236
 20
370.463381705
 10
479.8708432457
 20
370.1410547346
 10
478.8270636201
 20
369.8600758549
 10
477.7518745485
 20
369.6218139668
 10
476.6505142442
 20
369.4274298583
 10
475.5283484237
 20
369.2778705492
 10
474.3908441662
 20
369.1738646775
 10
473.243543278
 20
369.1159189492
 10
472.0920352938
 20
369.1043156702
 10
470.9419302447
 20
369.1391113704
 10
469.7988313268
 20
369.2201365288
 10
468.6683076033
 20
369.3469963988
 10
467.5558668721
 20
369.519072932
 10
466.4669288325
 20
369.7355277887
 10
465.4067986813
 20
369.9953064227
 10
464.3806412659
 20
370.2971432186
 10
463.3934559223
 20
370.6395676578
 10
462.450052118
 20
371.0209114829
 10
461.5550260217
 20
371.4393168252
 10
460.7127381104
 20
371.8927452557
  0
LWPOLYLINE
  5
B0
330
1F
100
AcDbEntity
  8
0
  6
HIDDEN
 62
     7
370
    18
100
AcDbPolyline
 90
       46
 70
   128
 43
0.0
 10
484.0472618896
 20
356.7845506848
 10
484.8327080737
 20
356.2983082236
 10
485.5574859158
 20
355.7816206562
 10
486.2180643711
 20
355.2370052325
 10
486.8112251678
 20
354.667115264
 10
487.3340784861
 20
354.0747271975
 10
487.7840770372
 20
353.462727088
 10
488.1590284734
 20
352.8340965385
 10
488.457106069
 20
352.1918981739
 10
488.6768576198
 20
351.5392607201
 10
488.8172125185
 20
350.8793637612
 10
488.8774869701
 20
350.2154222487
 10
488.8573873235
 20
349.550670839
 10
488.7570115021
 20
348.8883481342
 10
488.5768485269
 20
348.2316809039
 10
488.3177761338
 20
347.5838683648
 10
487.9810564974
 20
346.9480665945
 10
487.568330082
 20
346.3273731554
 10
487.0816076491
 20
345.7248120034
 10
486.5232604616
 20
345.1433187559
 10
485.8960087308
 20
344.5857263896
 10
485.202908364
 20
344.0547514384
 10
484.4473360767
 20
343.552980759
 10
483.632972941
 20
343.0828589276
 10
482.7637864523
 20
342.6466763305
 10
481.8440111998
 20
342.2465580056
 10
480.878128236
 20
341.884453289
 10
479.8708432457
 20
341.5621263186
 10
478.8270636201
 20
341.2811474389
 10
477.7518745485
 20
341.0428855508
 10
476.6505142442
 20
340.8485014423
 10
475.5283484237
 20
340.6989421332
 10
474.3908441662
 20
340.5949362614
 10
473.243543278
 20
340.5369905332
 10
472.0920352938
 20
340.5253872542
 10
470.9419302447
 20
340.5601829544
 10
469.7988313268
 20
340.6412081128
 10
468.6683076033
 20
340.7680679828
 10
467.5558668721
 20
340.9401445159
 10
466.4669288325
 20
341.1565993727
 10
465.4067986813
 20
341.4163780067
 10
464.3806412659
 20
341.7182148026
 10
463.3934559223
 20
342.0606392418
 10
462.450052118
 20
342.4419830669
 10
461.5550260217
 20
342.8603884092
 10
460.7127381104
 20
343.3138168397
  0
LWPOLYLINE
  5
B1
330
1F
100
AcDbEntity
  8
0
  6
HIDDEN
 62
     7
370
    18
100
AcDbPolyline
 90
       22
 70
   128
 43
0.0
 10
496.0680771697
 20
339.2317762806
 10
495.6715740851
 20
339.428757525
 10
495.2286436346
 20
339.5894234195
 10
494.7491801524
 20
339.7101849537
 10
494.2438940607
 20
339.7883445145
 10
493.7240726156
 20
339.8221561464
 10
493.2013277692
 20
339.8108645534
 10
492.6873367777
 20
339.754721971
 10
492.1935813505
 20
339.6549825318
 10
491.7310911678
 20
339.51387425
 10
491.3101974961
 20
339.3345492515
 10
490.9403024046
 20
339.1210133604
 10
490.6296687383
 20
338.8780366157
 10
490.3852355401
 20
338.6110467162
 10
490.2124630436
 20
338.3260077753
 10
490.115210701
 20
338.0292870918
 10
490.0956509688
 20
337.7275129155
 10
490.1542207793
 20
337.4274263827
 10
490.2896117795
 20
337.1357309309
 10
490.4987995583
 20
336.8589425542
 10
490.7771112064
 20
336.6032442478
 10
491.1183297014
 20
336.3743478893
  0
LWPOLYLINE
  5
B2
330
1F
100
AcDbEntity
  8
0
  6
HIDDEN
 62
     7
370
    18
100
AcDbPolyline
 90
       35
 70
   128
 43
0.0
 10
484.8898335775
 20
380.669464208
 10
485.0208089652
 20
380.3800589983
 10
485.2199484277
 20
379.8021122057
 10
485.3399253385
 20
379.2169273125
 10
485.38
 20
378.6281121783
 10
485.3399253385
 20
378.039297044
 10
485.2199484277
 20
377.4541121509
 10
485.0208089652
 20
376.8761653583
 10
484.7437347118
 20
376.3090199005
 10
484.3904339226
 20
375.7561724177
 10
483.9630848144
 20
375.2210313985
 10
483.4643221366
 20
374.7068961654
 10
482.8972209269
 20
374.2169365329
 10
482.2652775528
 20
373.7541732651
 10
481.5723881554
 20
373.3214594514
 10
480.8228246283
 20
372.9214629165
 10
480.0212082798
 20
372.5566497719
 10
479.1724813413
 20
372.229269212
 10
478.2818764966
 20
371.9413396469
 10
477.3548846207
 20
371.6946362579
 10
476.3972209269
 20
371.4906800537
 10
475.4147897301
 20
371.3307284919
 10
474.4136480455
 20
371.2157677271
 10
473.3999682445
 20
371.1465065308
 10
472.38
 20
371.1233719212
 10
471.3600317555
 20
371.1465065308
 10
470.3463519545
 20
371.2157677271
 10
469.3452102699
 20
371.3307284919
 10
468.3627790731
 20
371.4906800537
 10
467.4051153793
 20
371.6946362579
 10
466.4781235034
 20
371.9413396469
 10
465.5875186587
 20
372.229269212
 10
464.7387917202
 20
372.5566497719
 10
463.9371753717
 20
372.9214629165
 10
463.1876118446
 20
373.3214594514
  0
LWPOLYLINE
  5
B3
330
1F
100
AcDbEntity
  8
0
  6
HIDDEN
 62
     7
370
    18
100
AcDbPolyline
 90
       15
 70
   128
 43
0.0
 10
463.1876118446
 20
373.3214594514
 10
462.4947224472
 20
373.7541732651
 10
461.8627790731
 20
374.2169365329
 10
461.2956778634
 20
374.7068961654
 10
460.7969151856
 20
375.2210313985
 10
460.3695660774
 20
375.7561724177
 10
460.0162652882
 20
376.3090199005
 10
459.7391910348
 20
376.8761653583
 10
459.5400515723
 20
377.4541121509
 10
459.4200746615
 20
378.039297044
 10
459.38
 20
378.6281121783
 10
459.4200746615
 20
379.2169273125
 10
459.5400515723
 20
379.8021122057
 10
459.7391910348
 20
380.3800589983
 10
459.8701664225
 20
380.669464208
  0
LWPOLYLINE
  5
B4
330
1F
100
AcDbEntity
  8
0
  6
HIDDEN
 62
     7
370
    18
100
AcDbPolyline
 90
       46
 70
   128
 43
0.0
 10
460.7127381104
 20
371.8927452557
 10
459.9272919263
 20
372.3789877169
 10
459.2025140842
 20
372.8956752844
 10
458.5419356289
 20
373.4402907081
 10
457.9487748322
 20
374.0101806765
 10
457.4259215139
 20
374.6025687431
 10
456.9759229628
 20
375.2145688526
 10
456.6009715266
 20
375.8431994021
 10
456.302893931
 20
376.4853977666
 10
456.0831423802
 20
377.1380352204
 10
455.9427874815
 20
377.7979321794
 10
455.8825130299
 20
378.4618736919
 10
455.9026126765
 20
379.1266251015
 10
456.0029884979
 20
379.7889478063
 10
456.1831514731
 20
380.4456150367
 10
456.4422238662
 20
381.0934275757
 10
456.7789435026
 20
381.729229346
 10
457.191669918
 20
382.3499227852
 10
457.6783923509
 20
382.9524839372
 10
458.2367395384
 20
383.5339771847
 10
458.8639912692
 20
384.091569551
 10
459.557091636
 20
384.6225445021
 10
460.3126639233
 20
385.1243151816
 10
461.127027059
 20
385.594437013
 10
461.9962135477
 20
386.03061961
 10
462.9159888002
 20
386.430737935
 10
463.881871764
 20
386.7928426516
 10
464.8891567543
 20
387.115169622
 10
465.9329363799
 20
387.3961485017
 10
467.0081254515
 20
387.6344103898
 10
468.1094857558
 20
387.8287944983
 10
469.2316515763
 20
387.9783538074
 10
470.3691558338
 20
388.0823596791
 10
471.516456722
 20
388.1403054074
 10
472.6679647062
 20
388.1519086864
 10
473.8180697553
 20
388.1171129862
 10
474.9611686732
 20
388.0360878278
 10
476.0916923967
 20
387.9092279578
 10
477.2041331279
 20
387.7371514246
 10
478.2930711675
 20
387.5206965679
 10
479.3532013187
 20
387.2609179339
 10
480.3793587341
 20
386.959081138
 10
481.3665440777
 20
386.6166566988
 10
482.309947882
 20
386.2353128736
 10
483.2049739783
 20
385.8169075314
 10
484.0472618896
 20
385.3634791008
  0
LWPOLYLINE
  5
B5
330
1F
100
AcDbEntity
  8
0
  6
HIDDEN
 62
     7
370
    18
100
AcDbPolyline
 90
       46
 70
   128
 43
0.0
 10
460.7127381104
 20
343.3138168397
 10
459.9272919263
 20
343.8000593009
 10
459.2025140842
 20
344.3167468684
 10
458.5419356289
 20
344.8613622921
 10
457.9487748322
 20
345.4312522605
 10
457.4259215139
 20
346.0236403271
 10
456.9759229628
 20
346.6356404366
 10
456.6009715266
 20
347.2642709861
 10
456.302893931
 20
347.9064693506
 10
456.0831423802
 20
348.5591068044
 10
455.9427874815
 20
349.2190037634
 10
455.8825130299
 20
349.8829452759
 10
455.9026126765
 20
350.5476966855
 10
456.0029884979
 20
351.2100193903
 10
456.1831514731
 20
351.8666866207
 10
456.4422238662
 20
352.5144991597
 10
456.7789435026
 20
353.15030093
 10
457.191669918
 20
353.7709943692
 10
457.6783923509
 20
354.3735555212
 10
458.2367395384
 20
354.9550487687
 10
458.8639912692
 20
355.512641135
 10
459.557091636
 20
356.0436160861
 10
460.3126639233
 20
356.5453867656
 10
461.127027059
 20
357.015508597
 10
461.9962135477
 20
357.451691194
 10
462.9159888002
 20
357.851809519
 10
463.881871764
 20
358.2139142356
 10
464.8891567543
 20
358.536241206
 10
465.9329363799
 20
358.8172200857
 10
467.0081254515
 20
359.0554819738
 10
468.1094857558
 20
359.2498660823
 10
469.2316515763
 20
359.3994253914
 10
470.3691558338
 20
359.5034312631
 10
471.516456722
 20
359.5613769914
 10
472.6679647062
 20
359.5729802704
 10
473.8180697553
 20
359.5381845702
 10
474.9611686732
 20
359.4571594118
 10
476.0916923967
 20
359.3302995418
 10
477.2041331279
 20
359.1582230086
 10
478.2930711675
 20
358.9417681519
 10
479.3532013187
 20
358.6819895179
 10
480.3793587341
 20
358.380152722
 10
481.3665440777
 20
358.0377282828
 10
482.309947882
 20
357.6563844576
 10
483.2049739783
 20
357.2379791154
 10
484.0472618896
 20
356.7845506848
  0
LWPOLYLINE
  5
B6
330
1F
100
AcDbEntity
  8
0
  6
HIDDEN
 62
     7
370
    18
100
AcDbPolyline
 90
       27
 70
   128
 43
0.0
 10
447.2777092679
 20
386.9960299243
 10
447.7748427649
 20
386.741779804
 10
448.3214385864
 20
386.5239761618
 10
448.9095261344
 20
386.3457950653
 10
449.5305297682
 20
386.209834796
 10
450.1753938564
 20
386.1180779608
 10
450.8347148286
 20
386.0718625811
 10
451.4988783002
 20
386.0718625811
 10
452.1581992724
 20
386.1180779608
 10
452.8030633606
 20
386.209834796
 10
453.4240669944
 20
386.3457950653
 10
454.0121545424
 20
386.5239761618
 10
454.5587503639
 20
386.741779804
 10
455.0558838609
 20
386.9960299243
 10
455.4963057078
 20
387.2830189835
 10
455.8735935621
 20
387.5985620347
 10
456.1822457174
 20
387.9380577498
 10
456.4177613302
 20
388.2965555167
 10
456.5767060526
 20
388.6688276308
 10
456.6567621126
 20
389.0494455264
 10
456.6567621126
 20
389.4328589374
 10
456.5767060526
 20
389.8134768329
 10
456.4177613302
 20
390.185748947
 10
456.1822457174
 20
390.5442467139
 10
455.8735935621
 20
390.883742429
 10
455.4963057078
 20
391.1992854802
 10
455.0558838609
 20
391.4862745394
  0
ARC
  5
B7
330
1F
100
AcDbEntity
  8
0
  6
HIDDEN
 62
     7
370
    18
100
AcDbCircle
 10
451.852249358
 20
385.8063796951
 30
0.0
 40
6.521079624620025
100
AcDbArc
 50
60.5756715508
 51
74.7904850531
  0
LWPOLYLINE
  5
B8
330
1F
100
AcDbEntity
  8
0
  6
HIDDEN
 62
     7
370
    18
100
AcDbPolyline
 90
       17
 70
   128
 43
0.0
 10
448.7705422316
 20
392.0990450735
 10
448.3214385864
 20
391.9583283019
 10
447.7748427649
 20
391.7405246597
 10
447.2777092679
 20
391.4862745394
 10
446.8372874211
 20
391.1992854802
 10
446.4599995667
 20
390.883742429
 10
446.1513474114
 20
390.5442467139
 10
445.9158317986
 20
390.185748947
 10
445.7568870762
 20
389.8134768329
 10
445.6768310162
 20
389.4328589374
 10
445.6768310162
 20
389.0494455264
 10
445.7568870762
 20
388.6688276308
 10
445.9158317986
 20
388.2965555167
 10
446.1513474114
 20
387.9380577498
 10
446.4599995667
 20
387.5985620347
 10
446.8372874211
 20
387.2830189835
 10
447.2777092679
 20
386.9960299243
  0
LWPOLYLINE
  5
B9
330
1F
100
AcDbEntity
  8
0
  6
HIDDEN
 62
     7
370
    18
100
AcDbPolyline
 90
       22
 70
   128
 43
0.0
 10
453.6416702986
 20
390.6698664275
 10
453.9828887936
 20
390.440970069
 10
454.2612004417
 20
390.1852717626
 10
454.4703882205
 20
389.9084833859
 10
454.6057792207
 20
389.6167879341
 10
454.6643490312
 20
389.3167014013
 10
454.644789299
 20
389.014927225
 10
454.5475369564
 20
388.7182065415
 10
454.3747644599
 20
388.4331676006
 10
454.1303312617
 20
388.1661777011
 10
453.8196975954
 20
387.9232009564
 10
453.4498025039
 20
387.7096650653
 10
453.0289088322
 20
387.5303400668
 10
452.5664186495
 20
387.389231785
 10
452.0726632223
 20
387.2894923458
 10
451.5586722308
 20
387.2333497634
 10
451.0359273844
 20
387.2220581704
 10
450.5161059393
 20
387.2558698023
 10
450.0108198476
 20
387.3340293631
 10
449.5313563654
 20
387.4547908973
 10
449.0884259149
 20
387.6154567918
 10
448.6919228303
 20
387.8124380362
  0
LWPOLYLINE
  5
BA
330
1F
100
AcDbEntity
  8
0
  6
HIDDEN
 62
     7
370
    18
100
AcDbPolyline
 90
       22
 70
   128
 43
0.0
 10
448.6919228303
 20
387.8124380362
 10
448.3507043352
 20
388.0413343947
 10
448.0723926871
 20
388.2970327011
 10
447.8632049083
 20
388.5738210778
 10
447.7278139081
 20
388.8655165296
 10
447.6692440976
 20
389.1656030624
 10
447.6888038298
 20
389.4673772387
 10
447.7860561724
 20
389.7640979222
 10
447.9588286689
 20
390.0491368632
 10
448.2032618671
 20
390.3161267626
 10
448.5138955334
 20
390.5591035073
 10
448.8837906249
 20
390.7726393984
 10
449.3046842966
 20
390.9519643969
 10
449.7671744793
 20
391.0930726787
 10
450.2609299065
 20
391.1928121179
 10
450.774920898
 20
391.2489547003
 10
451.2976657444
 20
391.2602462933
 10
451.8174871895
 20
391.2264346614
 10
452.3227732812
 20
391.1482751007
 10
452.8022367634
 20
391.0275135664
 10
453.2451672139
 20
390.8668476719
 10
453.6416702986
 20
390.6698664275
  0
LWPOLYLINE
  5
BB
330
1F
100
AcDbEntity
  8
0
  6
HIDDEN
 62
     7
370
    18
100
AcDbPolyline
 90
       22
 70
   128
 43
0.0
 10
448.6919228303
 20
360.8665912439
 10
449.0884259149
 20
360.6696099996
 10
449.5313563654
 20
360.5089441051
 10
450.0108198476
 20
360.3881825708
 10
450.5161059393
 20
360.3100230101
 10
451.0359273844
 20
360.2762113782
 10
451.5586722308
 20
360.2875029712
 10
452.0726632223
 20
360.3436455536
 10
452.5664186495
 20
360.4433849928
 10
453.0289088322
 20
360.5844932745
 10
453.4498025039
 20
360.763818273
 10
453.8196975954
 20
360.9773541641
 10
454.1303312617
 20
361.2203309089
 10
454.3747644599
 20
361.4873208083
 10
454.5475369564
 20
361.7723597493
 10
454.644789299
 20
362.0690804328
 10
454.6643490312
 20
362.3708546091
 10
454.6057792207
 20
362.6709411418
 10
454.4703882205
 20
362.9626365937
 10
454.2612004417
 20
363.2394249703
 10
453.9828887936
 20
363.4951232767
 10
453.6416702986
 20
363.7240196353
  0
LWPOLYLINE
  5
BC
330
1F
100
AcDbEntity
  8
0
  6
HIDDEN
 62
     7
370
    18
100
AcDbPolyline
 90
       22
 70
   128
 43
0.0
 10
453.6416702986
 20
363.7240196353
 10
453.2451672139
 20
363.9210008796
 10
452.8022367634
 20
364.0816667742
 10
452.3227732812
 20
364.2024283084
 10
451.8174871895
 20
364.2805878692
 10
451.2976657444
 20
364.3143995011
 10
450.774920898
 20
364.303107908
 10
450.2609299065
 20
364.2469653257
 10
449.7671744793
 20
364.1472258865
 10
449.3046842966
 20
364.0061176047
 10
448.8837906249
 20
363.8267926062
 10
448.5138955334
 20
363.6132567151
 10
448.2032618671
 20
363.3702799704
 10
447.9588286689
 20
363.1032900709
 10
447.7860561724
 20
362.81825113
 10
447.6888038298
 20
362.5215304465
 10
447.6692440976
 20
362.2197562701
 10
447.7278139081
 20
361.9196697374
 10
447.8632049083
 20
361.6279742855
 10
448.0723926871
 20
361.3511859089
 10
448.3507043352
 20
361.0954876025
 10
448.6919228303
 20
360.8665912439
  0
LINE
  5
BD
330
1F
100
AcDbEntity
  8
0
  6
HIDDEN
 62
     7
370
    18
100
AcDbLine
 10
499.0932034356
 20
364.7489088772
 30
0.0
 11
499.0932034356
 21
370.4646945604
 31
0.0
  0
LINE
  5
BE
330
1F
100
AcDbEntity
  8
0
  6
HIDDEN
 62
     7
370
    18
100
AcDbLine
 10
488.0932034356
 20
370.4646945604
 30
0.0
 11
488.0932034356
 21
364.7489088772
 31
0.0
  0
LINE
  5
BF
330
1F
100
AcDbEntity
  8
0
  6
HIDDEN
 62
     7
370
    18
100
AcDbLine
 10
497.0932034356
 20
337.8030620849
 30
0.0
 11
497.0932034356
 21
364.7489088772
 31
0.0
  0
LINE
  5
C0
330
1F
100
AcDbEntity
  8
0
  6
HIDDEN
 62
     7
370
    18
100
AcDbLine
 10
488.88
 20
350.0491837623
 30
0.0
 11
488.88
 21
378.6281121783
 31
0.0
  0
LINE
  5
C1
330
1F
100
AcDbEntity
  8
0
  6
HIDDEN
 62
     7
370
    18
100
AcDbLine
 10
490.0932034356
 20
364.7489088772
 30
0.0
 11
490.0932034356
 21
337.8030620849
 31
0.0
  0
LINE
  5
C2
330
1F
100
AcDbEntity
  8
0
  6
HIDDEN
 62
     7
370
    18
100
AcDbLine
 10
485.38
 20
378.6281121783
 30
0.0
 11
485.38
 21
382.7108162377
 31
0.0
  0
LINE
  5
C3
330
1F
100
AcDbEntity
  8
0
  6
HIDDEN
 62
     7
370
    18
100
AcDbLine
 10
459.38
 20
382.7108162377
 30
0.0
 11
459.38
 21
378.6281121783
 31
0.0
  0
LINE
  5
C4
330
1F
100
AcDbEntity
  8
0
  6
HIDDEN
 62
     7
370
    18
100
AcDbLine
 10
455.88
 20
378.6281121783
 30
0.0
 11
455.88
 21
350.0491837623
 31
0.0
  0
LINE
  5
C5
330
1F
100
AcDbEntity
  8
0
  6
HIDDEN
 62
     7
370
    18
100
AcDbLine
 10
456.6667965644
 20
389.2411522319
 30
0.0
 11
456.6667965644
 21
394.9569379151
 31
0.0
  0
LINE
  5
C6
330
1F
100
AcDbEntity
  8
0
  6
HIDDEN
 62
     7
370
    18
100
AcDbLine
 10
445.6667965644
 20
394.9569379151
 30
0.0
 11
445.6667965644
 21
389.2411522319
 31
0.0
  0
LINE
  5
C7
330
1F
100
AcDbEntity
  8
0
  6
HIDDEN
 62
     7
370
    18
100
AcDbLine
 10
454.6667965644
 20
362.2953054396
 30
0.0
 11
454.6667965644
 21
389.2411522319
 31
0.0
  0
LINE
  5
C8
330
1F
100
AcDbEntity
  8
0
  6
HIDDEN
 62
     7
370
    18
100
AcDbLine
 10
447.6667965644
 20
389.2411522319
 30
0.0
 11
447.6667965644
 21
362.2953054396
 31
0.0
  0
ENDSEC
  0
SECTION
  2
OBJECTS
  0
DICTIONARY
  5
C
330
0
100
AcDbDictionary
281
     1
  3
ACAD_GROUP
350
D
  3
ACAD_LAYOUT
350
1A
  3
ACAD_MLINESTYLE
350
17
  3
ACAD_PLOTSETTINGS
350
19
  3
ACAD_PLOTSTYLENAME
350
E
  3
ACAD_SCALELIST
350
47
  3
DWGPROPS
350
C9
  0
DICTIONARY
  5
D
102
{ACAD_REACTORS
330
C
102
}
330
C
100
AcDbDictionary
281
     1
  0
DICTIONARY
  5
1A
102
{ACAD_REACTORS
330
C
102
}
330
C
100
AcDbDictionary
281
     1
  3
Layout1
350
1E
  3
Layout2
350
26
  3
Model
350
22
  0
DICTIONARY
  5
17
102
{ACAD_REACTORS
330
C
102
}
330
C
100
AcDbDictionary
281
     1
  3
Standard
350
18
  0
DICTIONARY
  5
19
102
{ACAD_REACTORS
330
C
102
}
330
C
100
AcDbDictionary
281
     1
  0
ACDBDICTIONARYWDFLT
  5
E
102
{ACAD_REACTORS
330
C
102
}
330
C
100
AcDbDictionary
281
     1
  3
Normal
350
F
100
AcDbDictionaryWithDefault
340
F
  0
DICTIONARY
  5
47
102
{ACAD_REACTORS
330
C
102
}
330
C
100
AcDbDictionary
281
     1
  3
A0
350
48
  3
A1
350
49
  3
A2
350
4A
  3
A3
350
4B
  3
A4
350
4C
  3
A5
350
4D
  3
A6
350
4E
  3
A7
350
4F
  3
A8
350
50
  3
A9
350
51
  3
B0
350
52
  3
B1
350
53
  3
B2
350
54
  3
B3
350
55
  3
B4
350
56
  3
B5
350
57
  3
B6
350
58
  0
XRECORD
  5
C9
102
{ACAD_REACTORS
330
C
102
}
330
C
100
AcDbXrecord
280
     1
  1
DWGPROPS COOKIE
  2

  3

  4

  6

  7

  8
imaizumi
  9

300
=
301
=
302
=
303
=
304
=
305
=
306
=
307
=
308
=
309
=
 40
0.0
 41
2461263.067844769
 42
2461263.067845382
  1

 90
        0
  0
LAYOUT
  5
1E
102
{ACAD_REACTORS
330
1A
102
}
330
1A
100
AcDbPlotSettings
  1

  2
none_device
  4

  6

 40
0.0
 41
0.0
 42
0.0
 43
0.0
 44
0.0
 45
0.0
 46
0.0
 47
0.0
 48
0.0
 49
0.0
140
0.0
141
0.0
142
1.0
143
1.0
 70
   688
 72
     1
 73
     0
 74
     5
  7

 75
    16
147
1.0
148
0.0
149
0.0
100
AcDbLayout
  1
Layout1
 70
     1
 71
     1
 10
0.0
 20
0.0
 11
420.0
 21
297.0
 12
0.0
 22
0.0
 32
0.0
 14
1.0000000000E+20
 24
1.0000000000E+20
 34
1.0000000000E+20
 15
-1.0000000000E+20
 25
-1.0000000000E+20
 35
-1.0000000000E+20
146
0.0
 13
0.0
 23
0.0
 33
0.0
 16
1.0
 26
0.0
 36
0.0
 17
0.0
 27
1.0
 37
0.0
 76
     0
330
1B
  0
LAYOUT
  5
26
102
{ACAD_REACTORS
330
1A
102
}
330
1A
100
AcDbPlotSettings
  1

  2
none_device
  4

  6

 40
0.0
 41
0.0
 42
0.0
 43
0.0
 44
0.0
 45
0.0
 46
0.0
 47
0.0
 48
0.0
 49
0.0
140
0.0
141
0.0
142
1.0
143
1.0
 70
   688
 72
     1
 73
     0
 74
     5
  7

 75
    16
147
1.0
148
0.0
149
0.0
100
AcDbLayout
  1
Layout2
 70
     1
 71
     2
 10
0.0
 20
0.0
 11
0.0
 21
0.0
 12
0.0
 22
0.0
 32
0.0
 14
0.0
 24
0.0
 34
0.0
 15
0.0
 25
0.0
 35
0.0
146
0.0
 13
0.0
 23
0.0
 33
0.0
 16
1.0
 26
0.0
 36
0.0
 17
0.0
 27
1.0
 37
0.0
 76
     0
330
23
  0
LAYOUT
  5
22
102
{ACAD_REACTORS
330
1A
102
}
330
1A
100
AcDbPlotSettings
  1

  2
none_device
  4
Letter_(8.50_x_11.00_Inches)
  6

 40
6.35
 41
6.35
 42
6.35000508
 43
6.35000508
 44
215.9
 45
279.4
 46
0.0
 47
0.0
 48
0.0
 49
0.0
140
0.0
141
0.0
142
1.0
143
1.0
 70
  1712
 72
     1
 73
     0
 74
     0
  7

 75
     0
147
1.0
148
0.0
149
0.0
100
AcDbLayout
  1
Model
 70
     1
 71
     0
 10
0.0
 20
0.0
 11
841.0
 21
594.0
 12
0.0
 22
0.0
 32
0.0
 14
0.0
 24
0.0
 34
0.0
 15
841.0
 25
594.0
 35
0.0
146
0.0
 13
0.0
 23
0.0
 33
0.0
 16
1.0
 26
0.0
 36
0.0
 17
0.0
 27
1.0
 37
0.0
 76
     0
330
1F
331
29
  0
MLINESTYLE
  5
18
102
{ACAD_REACTORS
330
17
102
}
330
17
100
AcDbMlineStyle
  2
Standard
 70
     0
  3

 62
   256
 51
90.0
 52
90.0
 71
     2
 49
0.5
 62
   256
  6
BYLAYER
 49
-0.5
 62
   256
  6
BYLAYER
  0
ACDBPLACEHOLDER
  5
F
102
{ACAD_REACTORS
330
E
102
}
330
E
  0
SCALE
  5
48
102
{ACAD_REACTORS
330
47
102
}
330
47
100
AcDbScale
 70
     0
300
1:1
140
1.0
141
1.0
290
     1
  0
SCALE
  5
49
102
{ACAD_REACTORS
330
47
102
}
330
47
100
AcDbScale
 70
     0
300
1:2
140
1.0
141
2.0
290
     0
  0
SCALE
  5
4A
102
{ACAD_REACTORS
330
47
102
}
330
47
100
AcDbScale
 70
     0
300
1:4
140
1.0
141
4.0
290
     0
  0
SCALE
  5
4B
102
{ACAD_REACTORS
330
47
102
}
330
47
100
AcDbScale
 70
     0
300
1:5
140
1.0
141
5.0
290
     0
  0
SCALE
  5
4C
102
{ACAD_REACTORS
330
47
102
}
330
47
100
AcDbScale
 70
     0
300
1:8
140
1.0
141
8.0
290
     0
  0
SCALE
  5
4D
102
{ACAD_REACTORS
330
47
102
}
330
47
100
AcDbScale
 70
     0
300
1:10
140
1.0
141
10.0
290
     0
  0
SCALE
  5
4E
102
{ACAD_REACTORS
330
47
102
}
330
47
100
AcDbScale
 70
     0
300
1:16
140
1.0
141
16.0
290
     0
  0
SCALE
  5
4F
102
{ACAD_REACTORS
330
47
102
}
330
47
100
AcDbScale
 70
     0
300
1:20
140
1.0
141
20.0
290
     0
  0
SCALE
  5
50
102
{ACAD_REACTORS
330
47
102
}
330
47
100
AcDbScale
 70
     0
300
1:30
140
1.0
141
30.0
290
     0
  0
SCALE
  5
51
102
{ACAD_REACTORS
330
47
102
}
330
47
100
AcDbScale
 70
     0
300
1:40
140
1.0
141
40.0
290
     0
  0
SCALE
  5
52
102
{ACAD_REACTORS
330
47
102
}
330
47
100
AcDbScale
 70
     0
300
1:50
140
1.0
141
50.0
290
     0
  0
SCALE
  5
53
102
{ACAD_REACTORS
330
47
102
}
330
47
100
AcDbScale
 70
     0
300
1:100
140
1.0
141
100.0
290
     0
  0
SCALE
  5
54
102
{ACAD_REACTORS
330
47
102
}
330
47
100
AcDbScale
 70
     0
300
2:1
140
2.0
141
1.0
290
     0
  0
SCALE
  5
55
102
{ACAD_REACTORS
330
47
102
}
330
47
100
AcDbScale
 70
     0
300
4:1
140
4.0
141
1.0
290
     0
  0
SCALE
  5
56
102
{ACAD_REACTORS
330
47
102
}
330
47
100
AcDbScale
 70
     0
300
8:1
140
8.0
141
1.0
290
     0
  0
SCALE
  5
57
102
{ACAD_REACTORS
330
47
102
}
330
47
100
AcDbScale
 70
     0
300
10:1
140
10.0
141
1.0
290
     0
  0
SCALE
  5
58
102
{ACAD_REACTORS
330
47
102
}
330
47
100
AcDbScale
 70
     0
300
100:1
140
100.0
141
1.0
290
     0
  0
ENDSEC
  0
EOF
