  0
SECTION
  2
HEADER
  9
$ACADVER
  1
AC1015
  9
$ACADMAINTVER
 70
     6
  9
$DWGCODEPAGE
  3
DOS932
  9
$INSBASE
 10
0.0
 20
0.0
 30
0.0
  9
$EXTMIN
 10
0.0
 20
0.0
 30
0.0
  9
$EXTMAX
 10
841.0
 20
594.0
 30
0.0
  9
$LIMMIN
 10
0.0
 20
0.0
  9
$LIMMAX
 10
841.0
 20
594.0
  9
$ORTHOMODE
 70
     0
  9
$REGENMODE
 70
     1
  9
$FILLMODE
 70
     1
  9
$QTEXTMODE
 70
     0
  9
$MIRRTEXT
 70
     1
  9
$LTSCALE
 40
1.0
  9
$ATTMODE
 70
     1
  9
$TEXTSIZE
 40
3.5
  9
$TRACEWID
 40
1.0
  9
$TEXTSTYLE
  7
Standard
  9
$CLAYER
  8
0
  9
$CELTYPE
  6
ByLayer
  9
$CECOLOR
 62
   256
  9
$CELTSCALE
 40
1.0
  9
$DISPSILH
 70
     0
  9
$DIMSCALE
 40
1.0
  9
$DIMASZ
 40
3.302
  9
$DIMEXO
 40
1.0
  9
$DIMDLI
 40
3.75
  9
$DIMRND
 40
0.0
  9
$DIMDLE
 40
0.0
  9
$DIMEXE
 40
1.0
  9
$DIMTP
 40
0.0
  9
$DIMTM
 40
0.0
  9
$DIMTXT
 40
3.5
  9
$DIMCEN
 40
2.5
  9
$DIMTSZ
 40
0.0
  9
$DIMTOL
 70
     0
  9
$DIMLIM
 70
     0
  9
$DIMTIH
 70
     1
  9
$DIMTOH
 70
     1
  9
$DIMSE1
 70
     0
  9
$DIMSE2
 70
     0
  9
$DIMTAD
 70
     1
  9
$DIMZIN
 70
     1
  9
$DIMBLK
  1

  9
$DIMASO
 70
     1
  9
$DIMSHO
 70
     1
  9
$DIMPOST
  1

  9
$DIMAPOST
  1

  9
$DIMALT
 70
     0
  9
$DIMALTD
 70
     3
  9
$DIMALTF
 40
0.0393700787
  9
$DIMLFAC
 40
1.0
  9
$DIMTOFL
 70
     1
  9
$DIMTVP
 40
0.0
  9
$DIMTIX
 70
     0
  9
$DIMSOXD
 70
     0
  9
$DIMSAH
 70
     0
  9
$DIMBLK1
  1

  9
$DIMBLK2
  1

  9
$DIMSTYLE
  2
ISO-25
  9
$DIMCLRD
 70
     0
  9
$DIMCLRE
 70
     0
  9
$DIMCLRT
 70
     0
  9
$DIMTFAC
 40
1.0
  9
$DIMGAP
 40
1.524
  9
$DIMJUST
 70
     0
  9
$DIMSD1
 70
     0
  9
$DIMSD2
 70
     0
  9
$DIMTOLJ
 70
     0
  9
$DIMTZIN
 70
     1
  9
$DIMALTZ
 70
     0
  9
$DIMALTTZ
 70
     0
  9
$DIMUPT
 70
     0
  9
$DIMDEC
 70
     2
  9
$DIMTDEC
 70
     2
  9
$DIMALTU
 70
     2
  9
$DIMALTTD
 70
     3
  9
$DIMTXSTY
  7
Standard
  9
$DIMAUNIT
 70
     0
  9
$DIMADEC
 70
     2
  9
$DIMALTRND
 40
0.0
  9
$DIMAZIN
 70
     0
  9
$DIMDSEP
 70
    44
  9
$DIMATFIT
 70
     3
  9
$DIMFRAC
 70
     0
  9
$DIMLDRBLK
  1

  9
$DIMLUNIT
 70
     2
  9
$DIMLWD
 70
    -2
  9
$DIMLWE
 70
    -2
  9
$DIMTMOVE
 70
     0
  9
$LUNITS
 70
     2
  9
$LUPREC
 70
     2
  9
$SKETCHINC
 40
1.0
  9
$FILLETRAD
 40
0.0
  9
$AUNITS
 70
     0
  9
$AUPREC
 70
     2
  9
$MENU
  1
.
  9
$ELEVATION
 40
0.0
  9
$PELEVATION
 40
0.0
  9
$THICKNESS
 40
0.0
  9
$LIMCHECK
 70
     0
  9
$CHAMFERA
 40
0.0
  9
$CHAMFERB
 40
0.0
  9
$CHAMFERC
 40
0.0
  9
$CHAMFERD
 40
0.0
  9
$SKPOLY
 70
     0
  9
$TDCREATE
 40
2461263.441235278
  9
$TDUCREATE
 40
2461263.066235278
  9
$TDUPDATE
 40
2461263.441235787
  9
$TDUUPDATE
 40
2461263.066235787
  9
$TDINDWG
 40
0.0000000116
  9
$TDUSRTIMER
 40
0.0000000116
  9
$USRTIMER
 70
     1
  9
$ANGBASE
 50
0.0
  9
$ANGDIR
 70
     0
  9
$PDMODE
 70
     0
  9
$PDSIZE
 40
-1.0
  9
$PLINEWID
 40
0.0
  9
$SPLFRAME
 70
     0
  9
$SPLINETYPE
 70
     6
  9
$SPLINESEGS
 70
     8
  9
$HANDSEED
  5
155
  9
$SURFTAB1
 70
     6
  9
$SURFTAB2
 70
     6
  9
$SURFTYPE
 70
     6
  9
$SURFU
 70
     6
  9
$SURFV
 70
     6
  9
$UCSBASE
  2

  9
$UCSNAME
  2

  9
$UCSORG
 10
0.0
 20
0.0
 30
0.0
  9
$UCSXDIR
 10
1.0
 20
0.0
 30
0.0
  9
$UCSYDIR
 10
0.0
 20
1.0
 30
0.0
  9
$UCSORTHOREF
  2

  9
$UCSORTHOVIEW
 70
     0
  9
$UCSORGTOP
 10
0.0
 20
0.0
 30
0.0
  9
$UCSORGBOTTOM
 10
0.0
 20
0.0
 30
0.0
  9
$UCSORGLEFT
 10
0.0
 20
0.0
 30
0.0
  9
$UCSORGRIGHT
 10
0.0
 20
0.0
 30
0.0
  9
$UCSORGFRONT
 10
0.0
 20
0.0
 30
0.0
  9
$UCSORGBACK
 10
0.0
 20
0.0
 30
0.0
  9
$PUCSBASE
  2

  9
$PUCSNAME
  2

  9
$PUCSORG
 10
0.0
 20
0.0
 30
0.0
  9
$PUCSXDIR
 10
1.0
 20
0.0
 30
0.0
  9
$PUCSYDIR
 10
0.0
 20
1.0
 30
0.0
  9
$PUCSORTHOREF
  2

  9
$PUCSORTHOVIEW
 70
     0
  9
$PUCSORGTOP
 10
0.0
 20
0.0
 30
0.0
  9
$PUCSORGBOTTOM
 10
0.0
 20
0.0
 30
0.0
  9
$PUCSORGLEFT
 10
0.0
 20
0.0
 30
0.0
  9
$PUCSORGRIGHT
 10
0.0
 20
0.0
 30
0.0
  9
$PUCSORGFRONT
 10
0.0
 20
0.0
 30
0.0
  9
$PUCSORGBACK
 10
0.0
 20
0.0
 30
0.0
  9
$USERI1
 70
     0
  9
$USERI2
 70
     0
  9
$USERI3
 70
     0
  9
$USERI4
 70
     0
  9
$USERI5
 70
     0
  9
$USERR1
 40
0.0
  9
$USERR2
 40
0.0
  9
$USERR3
 40
0.0
  9
$USERR4
 40
0.0
  9
$USERR5
 40
0.0
  9
$WORLDVIEW
 70
     1
  9
$SHADEDGE
 70
     3
  9
$SHADEDIF
 70
    70
  9
$TILEMODE
 70
     1
  9
$MAXACTVP
 70
    64
  9
$PINSBASE
 10
0.0
 20
0.0
 30
0.0
  9
$PLIMCHECK
 70
     0
  9
$PEXTMIN
 10
1.0000000000E+20
 20
1.0000000000E+20
 30
1.0000000000E+20
  9
$PEXTMAX
 10
-1.0000000000E+20
 20
-1.0000000000E+20
 30
-1.0000000000E+20
  9
$PLIMMIN
 10
0.0
 20
0.0
  9
$PLIMMAX
 10
420.0
 20
297.0
  9
$UNITMODE
 70
     0
  9
$VISRETAIN
 70
     1
  9
$PLINEGEN
 70
     0
  9
$PSLTSCALE
 70
     1
  9
$TREEDEPTH
 70
  3020
  9
$CMLSTYLE
  2
Standard
  9
$CMLJUST
 70
     0
  9
$CMLSCALE
 40
20.0
  9
$PROXYGRAPHICS
 70
     1
  9
$MEASUREMENT
 70
     1
  9
$CELWEIGHT
370
    -1
  9
$ENDCAPS
280
     0
  9
$JOINSTYLE
280
     0
  9
$LWDISPLAY
290
     1
  9
$INSUNITS
 70
     4
  9
$HYPERLINKBASE
  1

  9
$STYLESHEET
  1

  9
$XEDIT
290
     1
  9
$CEPSNTYPE
380
     0
  9
$PSTYLEMODE
290
     1
  9
$FINGERPRINTGUID
  2
{478fb444-9a90-4b02-aeb9-4a8ee2e20d95}
  9
$VERSIONGUID
  2
{FAEB1C32-E019-11D5-929B-00C0DF256EC4}
  9
$EXTNAMES
290
     1
  9
$PSVPSCALE
 40
0.0
  9
$OLESTARTUP
290
     0
  0
ENDSEC
  0
SECTION
  2
CLASSES
  0
CLASS
  1
ACDBDICTIONARYWDFLT
  2
AcDbDictionaryWithDefault
  3
ObjectDBX Classes
 90
        0
280
     0
281
     0
  0
CLASS
  1
VISUALSTYLE
  2
AcDbVisualStyle
  3
ObjectDBX Classes
 90
     4095
280
     0
281
     0
  0
CLASS
  1
MATERIAL
  2
AcDbMaterial
  3
ObjectDBX Classes
 90
     1153
280
     0
281
     0
  0
CLASS
  1
SCALE
  2
AcDbScale
  3
ObjectDBX Classes
 90
     1153
280
     0
281
     0
  0
CLASS
  1
TABLESTYLE
  2
AcDbTableStyle
  3
ObjectDBX Classes
 90
     4095
280
     0
281
     0
  0
CLASS
  1
MLEADERSTYLE
  2
AcDbMLeaderStyle
  3
ACDB_MLEADERSTYLE_CLASS
 90
     4095
280
     0
281
     0
  0
CLASS
  1
SUN
  2
AcDbSun
  3
SCENEOE
 90
     1153
280
     0
281
     0
  0
CLASS
  1
ACDBPLACEHOLDER
  2
AcDbPlaceHolder
  3
ObjectDBX Classes
 90
        0
280
     0
281
     0
  0
CLASS
  1
LAYOUT
  2
AcDbLayout
  3
ObjectDBX Classes
 90
        0
280
     0
281
     0
  0
ENDSEC
  0
SECTION
  2
TABLES
  0
TABLE
  2
VPORT
  5
8
330
0
100
AcDbSymbolTable
 70
     1
  0
VPORT
  5
29
330
8
100
AcDbSymbolTableRecord
100
AcDbViewportTableRecord
  2
*Active
 70
     0
 10
0.0
 20
0.0
 11
1.0
 21
1.0
 12
420.5
 22
297.0
 13
0.0
 23
0.0
 14
10.0
 24
10.0
 15
10.0
 25
10.0
 16
0.0
 26
0.0
 36
1.0
 17
0.0
 27
0.0
 37
0.0
 40
594.0
 41
1.4158249158
 42
50.0
 43
0.0
 44
0.0
 50
0.0
 51
0.0
 71
     0
 72
  2000
 73
     1
 74
     3
 75
     0
 76
     0
 77
     0
 78
     0
281
     0
 65
     1
110
0.0
120
0.0
130
0.0
111
1.0
121
0.0
131
0.0
112
0.0
122
1.0
132
0.0
 79
     0
146
0.0
  0
ENDTAB
  0
TABLE
  2
LTYPE
  5
5
330
0
100
AcDbSymbolTable
 70
     6
  0
LTYPE
  5
14
330
5
100
AcDbSymbolTableRecord
100
AcDbLinetypeTableRecord
  2
ByBlock
 70
     0
  3

 72
    65
 73
     0
 40
0.0
  0
LTYPE
  5
15
330
5
100
AcDbSymbolTableRecord
100
AcDbLinetypeTableRecord
  2
ByLayer
 70
     0
  3

 72
    65
 73
     0
 40
0.0
  0
LTYPE
  5
16
330
5
100
AcDbSymbolTableRecord
100
AcDbLinetypeTableRecord
  2
Continuous
 70
     0
  3
Solid line
 72
    65
 73
     0
 40
0.0
  0
LTYPE
  5
5E
330
5
100
AcDbSymbolTableRecord
100
AcDbLinetypeTableRecord
  2
HIDDEN
 70
     0
  3
Hidden __ __ __ __ __ __ __ __ __ __ __ __ __ __
 72
    65
 73
     2
 40
1.905
 49
1.27
 74
     0
 49
-0.635
 74
     0
  0
LTYPE
  5
5F
330
5
100
AcDbSymbolTableRecord
100
AcDbLinetypeTableRecord
  2
PHANTOM
 70
     0
  3
Phantom ______  __  __  ______  __  __  ______
 72
    65
 73
     6
 40
12.7
 49
6.35
 74
     0
 49
-1.27
 74
     0
 49
1.27
 74
     0
 49
-1.27
 74
     0
 49
1.27
 74
     0
 49
-1.27
 74
     0
  0
LTYPE
  5
60
330
5
100
AcDbSymbolTableRecord
100
AcDbLinetypeTableRecord
  2
CENTER
 70
     0
  3
Center ____ _ ____ _ ____ _ ____ _ ____ _ ____
 72
    65
 73
     4
 40
10.16
 49
6.35
 74
     0
 49
-1.27
 74
     0
 49
1.27
 74
     0
 49
-1.27
 74
     0
  0
LTYPE
  5
61
330
5
100
AcDbSymbolTableRecord
100
AcDbLinetypeTableRecord
  2
CENTERX2
 70
     0
  3
Center (2x) ________  __  ________  __  _____
 72
    65
 73
     4
 40
20.32
 49
12.7
 74
     0
 49
-2.54
 74
     0
 49
2.54
 74
     0
 49
-2.54
 74
     0
  0
LTYPE
  5
62
330
5
100
AcDbSymbolTableRecord
100
AcDbLinetypeTableRecord
  2
DOT2
 70
     0
  3
Dot (.5x) ........................................
 72
    65
 73
     2
 40
0.635
 49
0.0
 74
     0
 49
-0.635
 74
     0
  0
ENDTAB
  0
TABLE
  2
LAYER
  5
2
330
0
100
AcDbSymbolTable
 70
     1
  0
LAYER
  5
10
330
2
100
AcDbSymbolTableRecord
100
AcDbLayerTableRecord
  2
0
 70
     0
 62
     7
  6
Continuous
370
    -3
390
F
  0
ENDTAB
  0
TABLE
  2
STYLE
  5
3
330
0
100
AcDbSymbolTable
 70
     1
  0
STYLE
  5
11
330
3
100
AcDbSymbolTableRecord
100
AcDbTextStyleTableRecord
  2
Standard
 70
     0
 40
0.0
 41
1.0
 50
0.0
 71
     0
 42
3.5
  3
txt
  4
bigfont
  0
ENDTAB
  0
TABLE
  2
VIEW
  5
6
330
0
100
AcDbSymbolTable
 70
     0
  0
ENDTAB
  0
TABLE
  2
UCS
  5
7
330
0
100
AcDbSymbolTable
 70
     0
  0
ENDTAB
  0
TABLE
  2
APPID
  5
9
330
0
100
AcDbSymbolTable
 70
     1
  0
APPID
  5
12
330
9
100
AcDbSymbolTableRecord
100
AcDbRegAppTableRecord
  2
ACAD
 70
     0
  0
ENDTAB
  0
TABLE
  2
DIMSTYLE
  5
A
330
0
100
AcDbSymbolTable
 70
     1
100
AcDbDimStyleTable
  0
DIMSTYLE
105
27
330
A
100
AcDbSymbolTableRecord
100
AcDbDimStyleTableRecord
  2
ISO-25
 70
     0
 41
2.5
 42
0.625
 43
3.75
 44
1.25
 73
     0
 74
     0
 77
     1
 78
     8
140
2.5
141
2.5
143
0.0393700787
147
0.625
171
     3
172
     1
178
     0
271
     2
272
     2
274
     3
278
    44
283
     0
284
     8
340
11
  0
ENDTAB
  0
TABLE
  2
BLOCK_RECORD
  5
1
330
0
100
AcDbSymbolTable
 70
     1
  0
BLOCK_RECORD
  5
1F
330
1
100
AcDbSymbolTableRecord
100
AcDbBlockTableRecord
  2
*Model_Space
340
22
  0
BLOCK_RECORD
  5
1B
330
1
100
AcDbSymbolTableRecord
100
AcDbBlockTableRecord
  2
*Paper_Space
340
1E
  0
BLOCK_RECORD
  5
23
330
1
100
AcDbSymbolTableRecord
100
AcDbBlockTableRecord
  2
*Paper_Space0
340
26
  0
ENDTAB
  0
ENDSEC
  0
SECTION
  2
BLOCKS
  0
BLOCK
  5
20
330
1F
100
AcDbEntity
  8
0
100
AcDbBlockBegin
  2
*Model_Space
 70
     0
 10
0.0
 20
0.0
 30
0.0
  3
*Model_Space
  1

  0
ENDBLK
  5
21
330
1F
100
AcDbEntity
  8
0
100
AcDbBlockEnd
  0
BLOCK
  5
1C
330
1B
100
AcDbEntity
 67
     1
  8
0
100
AcDbBlockBegin
  2
*Paper_Space
 70
     0
 10
0.0
 20
0.0
 30
0.0
  3
*Paper_Space
  1

  0
ENDBLK
  5
1D
330
1B
100
AcDbEntity
 67
     1
  8
0
100
AcDbBlockEnd
  0
BLOCK
  5
24
330
23
100
AcDbEntity
  8
0
100
AcDbBlockBegin
  2
*Paper_Space0
 70
     0
 10
0.0
 20
0.0
 30
0.0
  3
*Paper_Space0
  1

  0
ENDBLK
  5
25
330
23
100
AcDbEntity
  8
0
100
AcDbBlockEnd
  0
ENDSEC
  0
SECTION
  2
ENTITIES
  0
LINE
  5
63
330
1F
100
AcDbEntity
  8
0
  6
Continuous
 62
     7
370
    25
100
AcDbLine
 10
365.8382540695
 20
243.7807325921
 30
0.0
 11
365.8382540695
 21
133.7807325921
 31
0.0
  0
LINE
  5
64
330
1F
100
AcDbEntity
  8
0
  6
Continuous
 62
     7
370
    25
100
AcDbLine
 10
365.8382540695
 20
133.7807325921
 30
0.0
 11
280.8382540695
 21
133.7807325921
 31
0.0
  0
LINE
  5
65
330
1F
100
AcDbEntity
  8
0
  6
Continuous
 62
     7
370
    25
100
AcDbLine
 10
255.8382540695
 20
158.7807325921
 30
0.0
 11
280.8382540695
 21
133.7807325921
 31
0.0
  0
LINE
  5
66
330
1F
100
AcDbEntity
  8
0
  6
Continuous
 62
     7
370
    25
100
AcDbLine
 10
255.8382540695
 20
218.7807325921
 30
0.0
 11
255.8382540695
 21
158.7807325921
 31
0.0
  0
LINE
  5
67
330
1F
100
AcDbEntity
  8
0
  6
Continuous
 62
     7
370
    25
100
AcDbLine
 10
280.8382540695
 20
243.7807325921
 30
0.0
 11
255.8382540695
 21
218.7807325921
 31
0.0
  0
LINE
  5
68
330
1F
100
AcDbEntity
  8
0
  6
Continuous
 62
     7
370
    25
100
AcDbLine
 10
365.8382540695
 20
243.7807325921
 30
0.0
 11
280.8382540695
 21
243.7807325921
 31
0.0
  0
ARC
  5
69
330
1F
100
AcDbEntity
  8
0
  6
Continuous
 62
     7
370
    25
100
AcDbCircle
 10
265.8382540695
 20
188.7807325921
 30
0.0
 40
3.0
100
AcDbArc
 50
90.0
 51
270.0
  0
ARC
  5
6A
330
1F
100
AcDbEntity
  8
0
  6
Continuous
 62
     7
370
    25
100
AcDbCircle
 10
265.8382540695
 20
188.7807325921
 30
0.0
 40
3.0
100
AcDbArc
 50
270.0
 51
90.0
  0
ARC
  5
6B
330
1F
100
AcDbEntity
  8
0
  6
Continuous
 62
     7
370
    25
100
AcDbCircle
 10
310.8382540695
 20
233.7807325921
 30
0.0
 40
3.0
100
AcDbArc
 50
90.0
 51
270.0
  0
ARC
  5
6C
330
1F
100
AcDbEntity
  8
0
  6
Continuous
 62
     7
370
    25
100
AcDbCircle
 10
310.8382540695
 20
233.7807325921
 30
0.0
 40
3.0
100
AcDbArc
 50
270.0
 51
90.0
  0
ARC
  5
6D
330
1F
100
AcDbEntity
  8
0
  6
Continuous
 62
     7
370
    25
100
AcDbCircle
 10
355.8382540695
 20
188.7807325921
 30
0.0
 40
3.0
100
AcDbArc
 50
90.0
 51
270.0
  0
ARC
  5
6E
330
1F
100
AcDbEntity
  8
0
  6
Continuous
 62
     7
370
    25
100
AcDbCircle
 10
355.8382540695
 20
188.7807325921
 30
0.0
 40
3.0
100
AcDbArc
 50
270.0
 51
90.0
  0
ARC
  5
6F
330
1F
100
AcDbEntity
  8
0
  6
Continuous
 62
     7
370
    25
100
AcDbCircle
 10
310.8382540695
 20
143.7807325921
 30
0.0
 40
3.0
100
AcDbArc
 50
90.0
 51
270.0
  0
ARC
  5
70
330
1F
100
AcDbEntity
  8
0
  6
Continuous
 62
     7
370
    25
100
AcDbCircle
 10
310.8382540695
 20
143.7807325921
 30
0.0
 40
3.0
100
AcDbArc
 50
270.0
 51
90.0
  0
ARC
  5
71
330
1F
100
AcDbEntity
  8
0
  6
Continuous
 62
     7
370
    25
100
AcDbCircle
 10
310.8382540695
 20
188.7807325921
 30
0.0
 40
23.5
100
AcDbArc
 50
90.0
 51
270.0
  0
ARC
  5
72
330
1F
100
AcDbEntity
  8
0
  6
Continuous
 62
     7
370
    25
100
AcDbCircle
 10
310.8382540695
 20
188.7807325921
 30
0.0
 40
23.5
100
AcDbArc
 50
270.0
 51
90.0
  0
ARC
  5
73
330
1F
100
AcDbEntity
  8
0
  6
Continuous
 62
     7
370
    25
100
AcDbCircle
 10
310.8382540695
 20
188.7807325921
 30
0.0
 40
20.5
100
AcDbArc
 50
90.0
 51
270.0
  0
ARC
  5
74
330
1F
100
AcDbEntity
  8
0
  6
Continuous
 62
     7
370
    25
100
AcDbCircle
 10
310.8382540695
 20
188.7807325921
 30
0.0
 40
20.5
100
AcDbArc
 50
270.0
 51
90.0
  0
LINE
  5
75
330
1F
100
AcDbEntity
  8
0
  6
Continuous
 62
     7
370
    25
100
AcDbLine
 10
330.8382540695
 20
184.2807325921
 30
0.0
 11
290.8382540695
 21
184.2807325921
 31
0.0
  0
LINE
  5
76
330
1F
100
AcDbEntity
  8
0
  6
Continuous
 62
     7
370
    25
100
AcDbLine
 10
330.8382540695
 20
193.2807325921
 30
0.0
 11
290.8382540695
 21
193.2807325921
 31
0.0
  0
LINE
  5
77
330
1F
100
AcDbEntity
  8
0
  6
HIDDEN
 62
     7
370
    18
100
AcDbLine
 10
351.8382540695
 20
243.7807325921
 30
0.0
 11
351.8382540695
 21
133.7807325921
 31
0.0
  0
LINE
  5
78
330
1F
100
AcDbEntity
  8
0
  6
HIDDEN
 62
     7
370
    18
100
AcDbLine
 10
285.8382540695
 20
193.2807325921
 30
0.0
 11
285.8382540695
 21
184.2807325921
 31
0.0
  0
LINE
  5
79
330
1F
100
AcDbEntity
  8
0
  6
HIDDEN
 62
     7
370
    18
100
AcDbLine
 10
285.8382540695
 20
193.2807325921
 30
0.0
 11
255.8382540695
 21
193.2807325921
 31
0.0
  0
LINE
  5
7A
330
1F
100
AcDbEntity
  8
0
  6
HIDDEN
 62
     7
370
    18
100
AcDbLine
 10
285.8382540695
 20
184.2807325921
 30
0.0
 11
255.8382540695
 21
184.2807325921
 31
0.0
  0
LINE
  5
7B
330
1F
100
AcDbEntity
  8
0
  6
HIDDEN
 62
     7
370
    18
100
AcDbLine
 10
290.8382540695
 20
184.2807325921
 30
0.0
 11
285.8382540695
 21
184.2807325921
 31
0.0
  0
LINE
  5
7C
330
1F
100
AcDbEntity
  8
0
  6
HIDDEN
 62
     7
370
    18
100
AcDbLine
 10
290.8382540695
 20
193.2807325921
 30
0.0
 11
285.8382540695
 21
193.2807325921
 31
0.0
  0
LINE
  5
7D
330
1F
100
AcDbEntity
  8
0
  6
HIDDEN
 62
     7
370
    18
100
AcDbLine
 10
351.8382540695
 20
184.2807325921
 30
0.0
 11
330.8382540695
 21
184.2807325921
 31
0.0
  0
LINE
  5
7E
330
1F
100
AcDbEntity
  8
0
  6
HIDDEN
 62
     7
370
    18
100
AcDbLine
 10
351.8382540695
 20
193.2807325921
 30
0.0
 11
330.8382540695
 21
193.2807325921
 31
0.0
  0
LINE
  5
7F
330
1F
100
AcDbEntity
  8
0
  6
HIDDEN
 62
     7
370
    18
100
AcDbLine
 10
365.8382540695
 20
226.2807325921
 30
0.0
 11
351.8382540695
 21
226.2807325921
 31
0.0
  0
LINE
  5
80
330
1F
100
AcDbEntity
  8
0
  6
HIDDEN
 62
     7
370
    18
100
AcDbLine
 10
365.8382540695
 20
237.2807325921
 30
0.0
 11
351.8382540695
 21
237.2807325921
 31
0.0
  0
LINE
  5
81
330
1F
100
AcDbEntity
  8
0
  6
HIDDEN
 62
     7
370
    18
100
AcDbLine
 10
365.8382540695
 20
140.2807325921
 30
0.0
 11
351.8382540695
 21
140.2807325921
 31
0.0
  0
LINE
  5
82
330
1F
100
AcDbEntity
  8
0
  6
HIDDEN
 62
     7
370
    18
100
AcDbLine
 10
365.8382540695
 20
151.2807325921
 30
0.0
 11
351.8382540695
 21
151.2807325921
 31
0.0
  0
LINE
  5
83
330
1F
100
AcDbEntity
  8
0
  6
HIDDEN
 62
     7
370
    18
100
AcDbLine
 10
365.8382540695
 20
227.7807325921
 30
0.0
 11
351.8382540695
 21
227.7807325921
 31
0.0
  0
LINE
  5
84
330
1F
100
AcDbEntity
  8
0
  6
HIDDEN
 62
     7
370
    18
100
AcDbLine
 10
365.8382540695
 20
235.7807325921
 30
0.0
 11
351.8382540695
 21
235.7807325921
 31
0.0
  0
LINE
  5
85
330
1F
100
AcDbEntity
  8
0
  6
HIDDEN
 62
     7
370
    18
100
AcDbLine
 10
365.8382540695
 20
141.7807325921
 30
0.0
 11
351.8382540695
 21
141.7807325921
 31
0.0
  0
LINE
  5
86
330
1F
100
AcDbEntity
  8
0
  6
HIDDEN
 62
     7
370
    18
100
AcDbLine
 10
365.8382540695
 20
149.7807325921
 30
0.0
 11
351.8382540695
 21
149.7807325921
 31
0.0
  0
LINE
  5
87
330
1F
100
AcDbEntity
  8
0
  6
HIDDEN
 62
     7
370
    18
100
AcDbLine
 10
321.8382540695
 20
193.2807325921
 30
0.0
 11
321.8382540695
 21
184.2807325921
 31
0.0
  0
LINE
  5
88
330
1F
100
AcDbEntity
  8
0
  6
Continuous
 62
     7
370
    25
100
AcDbLine
 10
351.8382540695
 20
358.38
 30
0.0
 11
351.8382540695
 21
422.38
 31
0.0
  0
LINE
  5
89
330
1F
100
AcDbEntity
  8
0
  6
Continuous
 62
     7
370
    25
100
AcDbLine
 10
365.8382540695
 20
422.38
 30
0.0
 11
365.8382540695
 21
345.38
 31
0.0
  0
LINE
  5
8A
330
1F
100
AcDbEntity
  8
0
  6
Continuous
 62
     7
370
    25
100
AcDbLine
 10
280.8382540695
 20
358.38
 30
0.0
 11
280.8382540695
 21
345.38
 31
0.0
  0
LINE
  5
8B
330
1F
100
AcDbEntity
  8
0
  6
Continuous
 62
     7
370
    25
100
AcDbLine
 10
280.8382540695
 20
358.38
 30
0.0
 11
351.8382540695
 21
358.38
 31
0.0
  0
LINE
  5
8C
330
1F
100
AcDbEntity
  8
0
  6
Continuous
 62
     7
370
    25
100
AcDbLine
 10
351.8382540695
 20
422.38
 30
0.0
 11
365.8382540695
 21
422.38
 31
0.0
  0
LINE
  5
8D
330
1F
100
AcDbEntity
  8
0
  6
Continuous
 62
     7
370
    25
100
AcDbLine
 10
365.8382540695
 20
345.38
 30
0.0
 11
280.8382540695
 21
345.38
 31
0.0
  0
LINE
  5
8E
330
1F
100
AcDbEntity
  8
0
  6
Continuous
 62
     7
370
    25
100
AcDbLine
 10
255.8382540695
 20
345.38
 30
0.0
 11
255.8382540695
 21
358.38
 31
0.0
  0
LINE
  5
8F
330
1F
100
AcDbEntity
  8
0
  6
Continuous
 62
     7
370
    25
100
AcDbLine
 10
255.8382540695
 20
358.38
 30
0.0
 11
280.8382540695
 21
358.38
 31
0.0
  0
LINE
  5
90
330
1F
100
AcDbEntity
  8
0
  6
Continuous
 62
     7
370
    25
100
AcDbLine
 10
280.8382540695
 20
345.38
 30
0.0
 11
255.8382540695
 21
345.38
 31
0.0
  0
LINE
  5
91
330
1F
100
AcDbEntity
  8
0
  6
Continuous
 62
     7
370
    25
100
AcDbLine
 10
255.8382540695
 20
378.38
 30
0.0
 11
321.8382540695
 21
422.38
 31
0.0
  0
LINE
  5
92
330
1F
100
AcDbEntity
  8
0
  6
Continuous
 62
     7
370
    25
100
AcDbLine
 10
351.8382540695
 20
368.38
 30
0.0
 11
290.8382540695
 21
368.38
 31
0.0
  0
ARC
  5
93
330
1F
100
AcDbEntity
  8
0
  6
Continuous
 62
     7
370
    25
100
AcDbCircle
 10
290.8382540695
 20
363.38
 30
0.0
 40
5.0
100
AcDbArc
 50
90.0
 51
180.0
  0
LINE
  5
94
330
1F
100
AcDbEntity
  8
0
  6
Continuous
 62
     7
370
    25
100
AcDbLine
 10
285.8382540695
 20
363.38
 30
0.0
 11
285.8382540695
 21
358.38
 31
0.0
  0
LINE
  5
95
330
1F
100
AcDbEntity
  8
0
  6
Continuous
 62
     7
370
    25
100
AcDbLine
 10
255.8382540695
 20
358.38
 30
0.0
 11
255.8382540695
 21
378.38
 31
0.0
  0
LINE
  5
96
330
1F
100
AcDbEntity
  8
0
  6
Continuous
 62
     7
370
    25
100
AcDbLine
 10
321.8382540695
 20
422.38
 30
0.0
 11
351.8382540695
 21
422.38
 31
0.0
  0
LINE
  5
97
330
1F
100
AcDbEntity
  8
0
  6
HIDDEN
 62
     7
370
    18
100
AcDbLine
 10
313.8382540695
 20
357.38
 30
0.0
 11
310.8382540695
 21
357.38
 31
0.0
  0
LINE
  5
98
330
1F
100
AcDbEntity
  8
0
  6
HIDDEN
 62
     7
370
    18
100
AcDbLine
 10
310.8382540695
 20
357.38
 30
0.0
 11
307.8382540695
 21
357.38
 31
0.0
  0
LINE
  5
99
330
1F
100
AcDbEntity
  8
0
  6
HIDDEN
 62
     7
370
    18
100
AcDbLine
 10
334.3382540695
 20
354.38
 30
0.0
 11
310.8382540695
 21
354.38
 31
0.0
  0
LINE
  5
9A
330
1F
100
AcDbEntity
  8
0
  6
HIDDEN
 62
     7
370
    18
100
AcDbLine
 10
310.8382540695
 20
354.38
 30
0.0
 11
287.3382540695
 21
354.38
 31
0.0
  0
LINE
  5
9B
330
1F
100
AcDbEntity
  8
0
  6
HIDDEN
 62
     7
370
    18
100
AcDbLine
 10
358.8382540695
 20
357.38
 30
0.0
 11
355.8382540695
 21
357.38
 31
0.0
  0
LINE
  5
9C
330
1F
100
AcDbEntity
  8
0
  6
HIDDEN
 62
     7
370
    18
100
AcDbLine
 10
355.8382540695
 20
357.38
 30
0.0
 11
352.8382540695
 21
357.38
 31
0.0
  0
LINE
  5
9D
330
1F
100
AcDbEntity
  8
0
  6
HIDDEN
 62
     7
370
    18
100
AcDbLine
 10
268.8382540695
 20
357.38
 30
0.0
 11
265.8382540695
 21
357.38
 31
0.0
  0
LINE
  5
9E
330
1F
100
AcDbEntity
  8
0
  6
HIDDEN
 62
     7
370
    18
100
AcDbLine
 10
265.8382540695
 20
357.38
 30
0.0
 11
262.8382540695
 21
357.38
 31
0.0
  0
LINE
  5
9F
330
1F
100
AcDbEntity
  8
0
  6
HIDDEN
 62
     7
370
    18
100
AcDbLine
 10
351.8382540695
 20
404.88
 30
0.0
 11
365.8382540695
 21
404.88
 31
0.0
  0
LINE
  5
A0
330
1F
100
AcDbEntity
  8
0
  6
HIDDEN
 62
     7
370
    18
100
AcDbLine
 10
365.8382540695
 20
415.88
 30
0.0
 11
351.8382540695
 21
415.88
 31
0.0
  0
LINE
  5
A1
330
1F
100
AcDbEntity
  8
0
  6
HIDDEN
 62
     7
370
    18
100
AcDbLine
 10
351.8382540695
 20
370.88
 30
0.0
 11
365.8382540695
 21
370.88
 31
0.0
  0
LINE
  5
A2
330
1F
100
AcDbEntity
  8
0
  6
HIDDEN
 62
     7
370
    18
100
AcDbLine
 10
365.8382540695
 20
381.88
 30
0.0
 11
351.8382540695
 21
381.88
 31
0.0
  0
LINE
  5
A3
330
1F
100
AcDbEntity
  8
0
  6
HIDDEN
 62
     7
370
    18
100
AcDbLine
 10
313.8382540695
 20
345.38
 30
0.0
 11
313.8382540695
 21
357.38
 31
0.0
  0
LINE
  5
A4
330
1F
100
AcDbEntity
  8
0
  6
HIDDEN
 62
     7
370
    18
100
AcDbLine
 10
307.8382540695
 20
357.38
 30
0.0
 11
307.8382540695
 21
345.38
 31
0.0
  0
LINE
  5
A5
330
1F
100
AcDbEntity
  8
0
  6
HIDDEN
 62
     7
370
    18
100
AcDbLine
 10
365.8382540695
 20
397.38
 30
0.0
 11
351.8382540695
 21
397.38
 31
0.0
  0
LINE
  5
A6
330
1F
100
AcDbEntity
  8
0
  6
HIDDEN
 62
     7
370
    18
100
AcDbLine
 10
351.8382540695
 20
389.38
 30
0.0
 11
365.8382540695
 21
389.38
 31
0.0
  0
LINE
  5
A7
330
1F
100
AcDbEntity
  8
0
  6
HIDDEN
 62
     7
370
    18
100
AcDbLine
 10
334.3382540695
 20
345.38
 30
0.0
 11
334.3382540695
 21
354.38
 31
0.0
  0
LINE
  5
A8
330
1F
100
AcDbEntity
  8
0
  6
HIDDEN
 62
     7
370
    18
100
AcDbLine
 10
287.3382540695
 20
354.38
 30
0.0
 11
287.3382540695
 21
345.38
 31
0.0
  0
LINE
  5
A9
330
1F
100
AcDbEntity
  8
0
  6
HIDDEN
 62
     7
370
    18
100
AcDbLine
 10
331.3382540695
 20
354.38
 30
0.0
 11
331.3382540695
 21
358.38
 31
0.0
  0
LINE
  5
AA
330
1F
100
AcDbEntity
  8
0
  6
HIDDEN
 62
     7
370
    18
100
AcDbLine
 10
290.3382540695
 20
358.38
 30
0.0
 11
290.3382540695
 21
354.38
 31
0.0
  0
LINE
  5
AB
330
1F
100
AcDbEntity
  8
0
  6
HIDDEN
 62
     7
370
    18
100
AcDbLine
 10
358.8382540695
 20
345.38
 30
0.0
 11
358.8382540695
 21
357.38
 31
0.0
  0
LINE
  5
AC
330
1F
100
AcDbEntity
  8
0
  6
HIDDEN
 62
     7
370
    18
100
AcDbLine
 10
352.8382540695
 20
357.38
 30
0.0
 11
352.8382540695
 21
345.38
 31
0.0
  0
LINE
  5
AD
330
1F
100
AcDbEntity
  8
0
  6
HIDDEN
 62
     7
370
    18
100
AcDbLine
 10
268.8382540695
 20
345.38
 30
0.0
 11
268.8382540695
 21
357.38
 31
0.0
  0
LINE
  5
AE
330
1F
100
AcDbEntity
  8
0
  6
HIDDEN
 62
     7
370
    18
100
AcDbLine
 10
262.8382540695
 20
357.38
 30
0.0
 11
262.8382540695
 21
345.38
 31
0.0
  0
LINE
  5
AF
330
1F
100
AcDbEntity
  8
0
  6
Continuous
 62
     7
370
    25
100
AcDbLine
 10
545.88
 20
133.7807325921
 30
0.0
 11
468.88
 21
133.7807325921
 31
0.0
  0
ARC
  5
B0
330
1F
100
AcDbEntity
  8
0
  6
Continuous
 62
     7
370
    25
100
AcDbCircle
 10
516.88
 20
231.7807325921
 30
0.0
 40
4.0
100
AcDbArc
 50
270.0
 51
90.0
  0
ARC
  5
B1
330
1F
100
AcDbEntity
  8
0
  6
Continuous
 62
     7
370
    25
100
AcDbCircle
 10
516.88
 20
231.7807325921
 30
0.0
 40
4.0
100
AcDbArc
 50
90.0
 51
270.0
  0
ARC
  5
B2
330
1F
100
AcDbEntity
  8
0
  6
Continuous
 62
     7
370
    25
100
AcDbCircle
 10
499.88
 20
145.7807325921
 30
0.0
 40
5.5
100
AcDbArc
 50
270.0
 51
90.0
  0
ARC
  5
B3
330
1F
100
AcDbEntity
  8
0
  6
Continuous
 62
     7
370
    25
100
AcDbCircle
 10
499.88
 20
145.7807325921
 30
0.0
 40
5.5
100
AcDbArc
 50
90.0
 51
270.0
  0
ARC
  5
B4
330
1F
100
AcDbEntity
  8
0
  6
Continuous
 62
     7
370
    25
100
AcDbCircle
 10
499.88
 20
231.7807325921
 30
0.0
 40
5.5
100
AcDbArc
 50
270.0
 51
90.0
  0
ARC
  5
B5
330
1F
100
AcDbEntity
  8
0
  6
Continuous
 62
     7
370
    25
100
AcDbCircle
 10
499.88
 20
231.7807325921
 30
0.0
 40
5.5
100
AcDbArc
 50
90.0
 51
270.0
  0
ARC
  5
B6
330
1F
100
AcDbEntity
  8
0
  6
Continuous
 62
     7
370
    25
100
AcDbCircle
 10
533.88
 20
145.7807325921
 30
0.0
 40
5.5
100
AcDbArc
 50
270.0
 51
90.0
  0
ARC
  5
B7
330
1F
100
AcDbEntity
  8
0
  6
Continuous
 62
     7
370
    25
100
AcDbCircle
 10
533.88
 20
145.7807325921
 30
0.0
 40
5.5
100
AcDbArc
 50
90.0
 51
270.0
  0
ARC
  5
B8
330
1F
100
AcDbEntity
  8
0
  6
Continuous
 62
     7
370
    25
100
AcDbCircle
 10
516.88
 20
145.7807325921
 30
0.0
 40
4.0
100
AcDbArc
 50
270.0
 51
90.0
  0
ARC
  5
B9
330
1F
100
AcDbEntity
  8
0
  6
Continuous
 62
     7
370
    25
100
AcDbCircle
 10
516.88
 20
145.7807325921
 30
0.0
 40
4.0
100
AcDbArc
 50
90.0
 51
270.0
  0
ARC
  5
BA
330
1F
100
AcDbEntity
  8
0
  6
Continuous
 62
     7
370
    25
100
AcDbCircle
 10
533.88
 20
231.7807325921
 30
0.0
 40
5.5
100
AcDbArc
 50
270.0
 51
90.0
  0
ARC
  5
BB
330
1F
100
AcDbEntity
  8
0
  6
Continuous
 62
     7
370
    25
100
AcDbCircle
 10
533.88
 20
231.7807325921
 30
0.0
 40
5.5
100
AcDbArc
 50
90.0
 51
270.0
  0
LINE
  5
BC
330
1F
100
AcDbEntity
  8
0
  6
Continuous
 62
     7
370
    25
100
AcDbLine
 10
545.88
 20
243.7807325921
 30
0.0
 11
468.88
 21
243.7807325921
 31
0.0
  0
LINE
  5
BD
330
1F
100
AcDbEntity
  8
0
  6
Continuous
 62
     7
370
    25
100
AcDbLine
 10
545.88
 20
243.7807325921
 30
0.0
 11
545.88
 21
133.7807325921
 31
0.0
  0
LINE
  5
BE
330
1F
100
AcDbEntity
  8
0
  6
Continuous
 62
     7
370
    25
100
AcDbLine
 10
468.88
 20
243.7807325921
 30
0.0
 11
468.88
 21
133.7807325921
 31
0.0
  0
LINE
  5
BF
330
1F
100
AcDbEntity
  8
0
  6
HIDDEN
 62
     7
370
    18
100
AcDbLine
 10
480.88
 20
185.7807325921
 30
0.0
 11
468.88
 21
185.7807325921
 31
0.0
  0
LINE
  5
C0
330
1F
100
AcDbEntity
  8
0
  6
HIDDEN
 62
     7
370
    18
100
AcDbLine
 10
480.88
 20
191.7807325921
 30
0.0
 11
468.88
 21
191.7807325921
 31
0.0
  0
LINE
  5
C1
330
1F
100
AcDbEntity
  8
0
  6
HIDDEN
 62
     7
370
    18
100
AcDbLine
 10
480.88
 20
185.7807325921
 30
0.0
 11
480.88
 21
191.7807325921
 31
0.0
  0
LINE
  5
C2
330
1F
100
AcDbEntity
  8
0
  6
HIDDEN
 62
     7
370
    18
100
AcDbLine
 10
481.88
 20
243.7807325921
 30
0.0
 11
481.88
 21
133.7807325921
 31
0.0
  0
LINE
  5
C3
330
1F
100
AcDbEntity
  8
0
  6
HIDDEN
 62
     7
370
    18
100
AcDbLine
 10
491.88
 20
193.2807325921
 30
0.0
 11
491.88
 21
184.2807325921
 31
0.0
  0
LINE
  5
C4
330
1F
100
AcDbEntity
  8
0
  6
HIDDEN
 62
     7
370
    18
100
AcDbLine
 10
545.88
 20
193.2807325921
 30
0.0
 11
491.88
 21
193.2807325921
 31
0.0
  0
LINE
  5
C5
330
1F
100
AcDbEntity
  8
0
  6
HIDDEN
 62
     7
370
    18
100
AcDbLine
 10
545.88
 20
184.2807325921
 30
0.0
 11
491.88
 21
184.2807325921
 31
0.0
  0
LINE
  5
C6
330
1F
100
AcDbEntity
  8
0
  6
HIDDEN
 62
     7
370
    18
100
AcDbLine
 10
477.88
 20
165.2807325921
 30
0.0
 11
468.88
 21
165.2807325921
 31
0.0
  0
LINE
  5
C7
330
1F
100
AcDbEntity
  8
0
  6
HIDDEN
 62
     7
370
    18
100
AcDbLine
 10
477.88
 20
212.2807325921
 30
0.0
 11
468.88
 21
212.2807325921
 31
0.0
  0
LINE
  5
C8
330
1F
100
AcDbEntity
  8
0
  6
HIDDEN
 62
     7
370
    18
100
AcDbLine
 10
477.88
 20
165.2807325921
 30
0.0
 11
477.88
 21
212.2807325921
 31
0.0
  0
LINE
  5
C9
330
1F
100
AcDbEntity
  8
0
  6
HIDDEN
 62
     7
370
    18
100
AcDbLine
 10
481.88
 20
168.2807325921
 30
0.0
 11
477.88
 21
168.2807325921
 31
0.0
  0
LINE
  5
CA
330
1F
100
AcDbEntity
  8
0
  6
HIDDEN
 62
     7
370
    18
100
AcDbLine
 10
481.88
 20
209.2807325921
 30
0.0
 11
477.88
 21
209.2807325921
 31
0.0
  0
LINE
  5
CB
330
1F
100
AcDbEntity
  8
0
  6
HIDDEN
 62
     7
370
    18
100
AcDbLine
 10
480.88
 20
230.7807325921
 30
0.0
 11
468.88
 21
230.7807325921
 31
0.0
  0
LINE
  5
CC
330
1F
100
AcDbEntity
  8
0
  6
HIDDEN
 62
     7
370
    18
100
AcDbLine
 10
480.88
 20
230.7807325921
 30
0.0
 11
480.88
 21
236.7807325921
 31
0.0
  0
LINE
  5
CD
330
1F
100
AcDbEntity
  8
0
  6
HIDDEN
 62
     7
370
    18
100
AcDbLine
 10
480.88
 20
236.7807325921
 30
0.0
 11
468.88
 21
236.7807325921
 31
0.0
  0
LINE
  5
CE
330
1F
100
AcDbEntity
  8
0
  6
HIDDEN
 62
     7
370
    18
100
AcDbLine
 10
480.88
 20
140.7807325921
 30
0.0
 11
468.88
 21
140.7807325921
 31
0.0
  0
LINE
  5
CF
330
1F
100
AcDbEntity
  8
0
  6
HIDDEN
 62
     7
370
    18
100
AcDbLine
 10
480.88
 20
140.7807325921
 30
0.0
 11
480.88
 21
146.7807325921
 31
0.0
  0
LINE
  5
D0
330
1F
100
AcDbEntity
  8
0
  6
HIDDEN
 62
     7
370
    18
100
AcDbLine
 10
480.88
 20
146.7807325921
 30
0.0
 11
468.88
 21
146.7807325921
 31
0.0
  0
LINE
  5
D1
330
1F
100
AcDbEntity
  8
0
  6
HIDDEN
 62
     7
370
    18
100
AcDbLine
 10
491.88
 20
184.2807325921
 30
0.0
 11
486.88
 21
184.2807325921
 31
0.0
  0
LINE
  5
D2
330
1F
100
AcDbEntity
  8
0
  6
HIDDEN
 62
     7
370
    18
100
AcDbLine
 10
491.88
 20
193.2807325921
 30
0.0
 11
486.88
 21
193.2807325921
 31
0.0
  0
LINE
  5
D3
330
1F
100
AcDbEntity
  8
0
  6
HIDDEN
 62
     7
370
    18
100
AcDbLine
 10
486.88
 20
184.2807325921
 30
0.0
 11
481.88
 21
184.2807325921
 31
0.0
  0
LINE
  5
D4
330
1F
100
AcDbEntity
  8
0
  6
HIDDEN
 62
     7
370
    18
100
AcDbLine
 10
486.88
 20
193.2807325921
 30
0.0
 11
481.88
 21
193.2807325921
 31
0.0
  0
LINE
  5
D5
330
1F
100
AcDbEntity
  8
0
  6
HIDDEN
 62
     7
370
    18
100
AcDbLine
 10
481.88
 20
158.7807325921
 30
0.0
 11
468.88
 21
158.7807325921
 31
0.0
  0
LINE
  5
D6
330
1F
100
AcDbEntity
  8
0
  6
HIDDEN
 62
     7
370
    18
100
AcDbLine
 10
468.88
 20
218.7807325921
 30
0.0
 11
481.88
 21
218.7807325921
 31
0.0
  0
LINE
  5
D7
330
1F
100
AcDbEntity
  8
0
  6
HIDDEN
 62
     7
370
    18
100
AcDbLine
 10
501.88
 20
193.2807325921
 30
0.0
 11
501.88
 21
184.2807325921
 31
0.0
  0
LINE
  5
D8
330
1F
100
AcDbEntity
  8
0
  6
Continuous
 62
     7
370
    25
100
AcDbLine
 10
585.1617459305
 20
415.3168212576
 30
0.0
 11
507.38
 21
370.4143751074
 31
0.0
  0
LINE
  5
D9
330
1F
100
AcDbEntity
  8
0
  6
Continuous
 62
     7
370
    25
100
AcDbLine
 10
507.38
 20
370.4143751074
 30
0.0
 11
447.2759235991
 21
405.1117198598
 31
0.0
  0
LINE
  5
DA
330
1F
100
AcDbEntity
  8
0
  6
Continuous
 62
     7
370
    25
100
AcDbLine
 10
447.2759235991
 20
425.5219226554
 30
0.0
 11
447.2759235991
 21
405.1117198598
 31
0.0
  0
LINE
  5
DB
330
1F
100
AcDbEntity
  8
0
  6
Continuous
 62
     7
370
    25
100
AcDbLine
 10
489.7023304703
 20
450.0141660101
 30
0.0
 11
447.2759235991
 21
425.5219226554
 31
0.0
  0
LINE
  5
DC
330
1F
100
AcDbEntity
  8
0
  6
Continuous
 62
     7
370
    25
100
AcDbLine
 10
525.0576695297
 20
450.0141660101
 30
0.0
 11
489.7023304703
 21
450.0141660101
 31
0.0
  0
LINE
  5
DD
330
1F
100
AcDbEntity
  8
0
  6
Continuous
 62
     7
370
    25
100
AcDbLine
 10
585.1617459305
 20
415.3168212576
 30
0.0
 11
525.0576695297
 21
450.0141660101
 31
0.0
  0
LWPOLYLINE
  5
DE
330
1F
100
AcDbEntity
  8
0
  6
Continuous
 62
     7
370
    25
100
AcDbPolyline
 90
       16
 70
   128
 43
0.0
 10
477.6815151902
 20
434.9106159413
 10
477.1941119517
 20
435.1384664137
 10
476.6352986952
 20
435.302837299
 10
476.0294982417
 20
435.3965448008
 10
475.4031869779
 20
435.4154934516
 10
474.7837377113
 20
435.3588551045
 10
474.1982233474
 20
435.229105127
 10
473.6722336735
 20
435.0319142158
 10
473.2287569622
 20
434.7759005598
 10
472.887175274
 20
434.4722531843
 10
472.6624173677
 20
434.1342429368
 10
472.5643062423
 20
433.7766424869
 10
472.5971298248
 20
433.4150806904
 10
472.7594535671
 20
433.0653595326
 10
473.0441831428
 20
432.7427635063
 10
473.438874503
 20
432.4613916059
  0
LWPOLYLINE
  5
DF
330
1F
100
AcDbEntity
  8
0
  6
Continuous
 62
     7
370
    25
100
AcDbPolyline
 90
       16
 70
   128
 43
0.0
 10
473.438874503
 20
432.4613916059
 10
473.9262777416
 20
432.2335411335
 10
474.485090998
 20
432.0691702482
 10
475.0908914515
 20
431.9754627464
 10
475.7172027153
 20
431.9565140956
 10
476.3366519819
 20
432.0131524427
 10
476.9221663458
 20
432.1429024202
 10
477.4481560198
 20
432.3400933315
 10
477.891632731
 20
432.5961069875
 10
478.2332144192
 20
432.8997543629
 10
478.4579723255
 20
433.2377646104
 10
478.5560834509
 20
433.5953650603
 10
478.5232598684
 20
433.9569268569
 10
478.3609361261
 20
434.3066480146
 10
478.0762065504
 20
434.6292440409
 10
477.6815151902
 20
434.9106159413
  0
LWPOLYLINE
  5
E0
330
1F
100
AcDbEntity
  8
0
  6
Continuous
 62
     7
370
    25
100
AcDbPolyline
 90
       16
 70
   128
 43
0.0
 10
541.321125497
 20
434.9106159413
 10
540.8337222584
 20
435.1384664137
 10
540.274909002
 20
435.302837299
 10
539.6691085485
 20
435.3965448008
 10
539.0427972847
 20
435.4154934516
 10
538.4233480181
 20
435.3588551045
 10
537.8378336542
 20
435.229105127
 10
537.3118439802
 20
435.0319142158
 10
536.868367269
 20
434.7759005598
 10
536.5267855808
 20
434.4722531843
 10
536.3020276745
 20
434.1342429368
 10
536.2039165491
 20
433.7766424869
 10
536.2367401316
 20
433.4150806904
 10
536.3990638739
 20
433.0653595326
 10
536.6837934496
 20
432.7427635063
 10
537.0784848098
 20
432.4613916059
  0
LWPOLYLINE
  5
E1
330
1F
100
AcDbEntity
  8
0
  6
Continuous
 62
     7
370
    25
100
AcDbPolyline
 90
       16
 70
   128
 43
0.0
 10
537.0784848098
 20
432.4613916059
 10
537.5658880484
 20
432.2335411335
 10
538.1247013048
 20
432.0691702482
 10
538.7305017583
 20
431.9754627464
 10
539.3568130221
 20
431.9565140956
 10
539.9762622887
 20
432.0131524427
 10
540.5617766526
 20
432.1429024202
 10
541.0877663265
 20
432.3400933315
 10
541.5312430378
 20
432.5961069875
 10
541.872824726
 20
432.8997543629
 10
542.0975826323
 20
433.2377646104
 10
542.1956937577
 20
433.5953650603
 10
542.1628701752
 20
433.9569268569
 10
542.0005464329
 20
434.3066480146
 10
541.7158168572
 20
434.6292440409
 10
541.321125497
 20
434.9106159413
  0
LWPOLYLINE
  5
E2
330
1F
100
AcDbEntity
  8
0
  6
Continuous
 62
     7
370
    25
100
AcDbPolyline
 90
       16
 70
   128
 43
0.0
 10
541.321125497
 20
398.1722509093
 10
540.8337222584
 20
398.4001013817
 10
540.274909002
 20
398.564472267
 10
539.6691085485
 20
398.6581797688
 10
539.0427972847
 20
398.6771284196
 10
538.4233480181
 20
398.6204900725
 10
537.8378336542
 20
398.490740095
 10
537.3118439802
 20
398.2935491837
 10
536.868367269
 20
398.0375355277
 10
536.5267855808
 20
397.7338881523
 10
536.3020276745
 20
397.3958779048
 10
536.2039165491
 20
397.0382774549
 10
536.2367401316
 20
396.6767156583
 10
536.3990638739
 20
396.3269945006
 10
536.6837934496
 20
396.0043984743
 10
537.0784848098
 20
395.7230265739
  0
LWPOLYLINE
  5
E3
330
1F
100
AcDbEntity
  8
0
  6
Continuous
 62
     7
370
    25
100
AcDbPolyline
 90
       16
 70
   128
 43
0.0
 10
537.0784848098
 20
395.7230265739
 10
537.5658880483
 20
395.4951761015
 10
538.1247013048
 20
395.3308052162
 10
538.7305017583
 20
395.2370977144
 10
539.3568130221
 20
395.2181490636
 10
539.9762622887
 20
395.2747874107
 10
540.5617766526
 20
395.4045373882
 10
541.0877663265
 20
395.6017282995
 10
541.5312430378
 20
395.8577419554
 10
541.872824726
 20
396.1613893309
 10
542.0975826323
 20
396.4993995784
 10
542.1956937577
 20
396.8570000283
 10
542.1628701752
 20
397.2185618248
 10
542.0005464329
 20
397.5682829826
 10
541.7158168572
 20
397.8908790089
 10
541.321125497
 20
398.1722509093
  0
LWPOLYLINE
  5
E4
330
1F
100
AcDbEntity
  8
0
  6
Continuous
 62
     7
370
    25
100
AcDbPolyline
 90
       16
 70
   128
 43
0.0
 10
477.6815151902
 20
398.1722509093
 10
477.1941119517
 20
398.4001013817
 10
476.6352986952
 20
398.564472267
 10
476.0294982417
 20
398.6581797688
 10
475.4031869779
 20
398.6771284196
 10
474.7837377113
 20
398.6204900725
 10
474.1982233474
 20
398.490740095
 10
473.6722336735
 20
398.2935491837
 10
473.2287569622
 20
398.0375355277
 10
472.887175274
 20
397.7338881523
 10
472.6624173677
 20
397.3958779048
 10
472.5643062423
 20
397.0382774549
 10
472.5971298248
 20
396.6767156583
 10
472.7594535671
 20
396.3269945006
 10
473.0441831428
 20
396.0043984743
 10
473.438874503
 20
395.7230265739
  0
LWPOLYLINE
  5
E5
330
1F
100
AcDbEntity
  8
0
  6
Continuous
 62
     7
370
    25
100
AcDbPolyline
 90
       16
 70
   128
 43
0.0
 10
473.438874503
 20
395.7230265739
 10
473.9262777416
 20
395.4951761015
 10
474.485090998
 20
395.3308052162
 10
475.0908914515
 20
395.2370977144
 10
475.7172027153
 20
395.2181490636
 10
476.3366519819
 20
395.2747874107
 10
476.9221663458
 20
395.4045373882
 10
477.4481560198
 20
395.6017282995
 10
477.891632731
 20
395.8577419554
 10
478.2332144192
 20
396.1613893309
 10
478.4579723255
 20
396.4993995784
 10
478.5560834509
 20
396.8570000283
 10
478.5232598684
 20
397.2185618248
 10
478.3609361261
 20
397.5682829826
 10
478.0762065504
 20
397.8908790089
 10
477.6815151902
 20
398.1722509093
  0
LWPOLYLINE
  5
E6
330
1F
100
AcDbEntity
  8
0
  6
Continuous
 62
     7
370
    25
100
AcDbPolyline
 90
       45
 70
   128
 43
0.0
 10
523.9970093579
 20
424.9096165715
 10
522.7692272477
 20
425.5695174108
 10
521.463025163
 20
426.1771728606
 10
520.0850592102
 20
426.729486448
 10
518.6423511879
 20
427.2236437097
 10
517.1422528055
 20
427.6571265334
 10
515.5924082206
 20
428.0277259901
 10
514.0007150858
 20
428.3335535899
 10
512.3752843045
 20
428.5730509054
 10
510.7243986994
 20
428.7449975132
 10
509.0564708052
 20
428.8485172128
 10
507.38
 20
428.8830824916
 10
505.7035291948
 20
428.8485172128
 10
504.0356013006
 20
428.7449975132
 10
502.3847156955
 20
428.5730509054
 10
500.7592849142
 20
428.3335535899
 10
499.1675917794
 20
428.0277259901
 10
497.6177471945
 20
427.6571265334
 10
496.1176488121
 20
427.2236437097
 10
494.6749407898
 20
426.729486448
 10
493.296974837
 20
426.1771728606
 10
491.9907727523
 20
425.5695174108
 10
490.7629906421
 20
424.9096165715
 10
489.6198850027
 20
424.2008330462
 10
488.5672808383
 20
423.4467786332
 10
487.6105419785
 20
422.651295821
 10
486.7545437452
 20
421.8184382076
 10
486.0036481092
 20
420.9524498445
 10
485.3616814625
 20
420.05774361
 10
484.8319151201
 20
419.1388787218
 10
484.4170486497
 20
418.200537505
 10
484.1191961158
 20
417.2475015311
 10
483.9398753067
 20
416.2846272531
 10
483.88
 20
415.3168212576
 10
483.9398753067
 20
414.3490152621
 10
484.1191961158
 20
413.3861409841
 10
484.4170486497
 20
412.4331050102
 10
484.8319151201
 20
411.4947637934
 10
485.3616814625
 20
410.5758989052
 10
486.0036481092
 20
409.6811926707
 10
486.7545437452
 20
408.8152043076
 10
487.6105419785
 20
407.9823466942
 10
488.5672808383
 20
407.186863882
 10
489.6198850027
 20
406.432809469
 10
490.7629906421
 20
405.7240259437
  0
LWPOLYLINE
  5
E7
330
1F
100
AcDbEntity
  8
0
  6
Continuous
 62
     7
370
    25
100
AcDbPolyline
 90
       45
 70
   128
 43
0.0
 10
490.7629906421
 20
405.7240259437
 10
491.9907727523
 20
405.0641251044
 10
493.296974837
 20
404.4564696546
 10
494.6749407898
 20
403.9041560672
 10
496.1176488121
 20
403.4099988055
 10
497.6177471945
 20
402.9765159818
 10
499.1675917794
 20
402.6059165251
 10
500.7592849142
 20
402.3000889254
 10
502.3847156955
 20
402.0605916098
 10
504.0356013006
 20
401.888645002
 10
505.7035291948
 20
401.7851253024
 10
507.38
 20
401.7505600236
 10
509.0564708052
 20
401.7851253024
 10
510.7243986994
 20
401.888645002
 10
512.3752843045
 20
402.0605916098
 10
514.0007150858
 20
402.3000889254
 10
515.5924082206
 20
402.6059165251
 10
517.1422528055
 20
402.9765159818
 10
518.6423511879
 20
403.4099988055
 10
520.0850592102
 20
403.9041560672
 10
521.463025163
 20
404.4564696546
 10
522.7692272477
 20
405.0641251044
 10
523.9970093579
 20
405.7240259437
 10
525.1401149973
 20
406.432809469
 10
526.1927191617
 20
407.186863882
 10
527.1494580215
 20
407.9823466942
 10
528.0054562548
 20
408.8152043076
 10
528.7563518908
 20
409.6811926707
 10
529.3983185375
 20
410.5758989052
 10
529.9280848799
 20
411.4947637934
 10
530.3429513503
 20
412.4331050102
 10
530.6408038842
 20
413.3861409841
 10
530.8201246933
 20
414.3490152621
 10
530.88
 20
415.3168212576
 10
530.8201246933
 20
416.2846272531
 10
530.6408038842
 20
417.2475015311
 10
530.3429513503
 20
418.200537505
 10
529.9280848799
 20
419.1388787218
 10
529.3983185375
 20
420.05774361
 10
528.7563518908
 20
420.9524498445
 10
528.0054562548
 20
421.8184382076
 10
527.1494580215
 20
422.651295821
 10
526.1927191617
 20
423.4467786332
 10
525.1401149973
 20
424.2008330462
 10
523.9970093579
 20
424.9096165715
  0
LINE
  5
E8
330
1F
100
AcDbEntity
  8
0
  6
Continuous
 62
     7
370
    25
100
AcDbLine
 10
507.38
 20
307.5407325921
 30
0.0
 11
507.38
 21
370.4143751074
 31
0.0
  0
LINE
  5
E9
330
1F
100
AcDbEntity
  8
0
  6
Continuous
 62
     7
370
    25
100
AcDbLine
 10
497.4805050634
 20
313.2555893749
 30
0.0
 11
507.38
 21
307.5407325921
 31
0.0
  0
LINE
  5
EA
330
1F
100
AcDbEntity
  8
0
  6
Continuous
 62
     7
370
    25
100
AcDbLine
 10
497.4805050634
 20
365.5142013356
 30
0.0
 11
497.4805050634
 21
313.2555893749
 31
0.0
  0
LINE
  5
EB
330
1F
100
AcDbEntity
  8
0
  6
Continuous
 62
     7
370
    25
100
AcDbLine
 10
447.2759235991
 20
394.4966893053
 30
0.0
 11
497.4805050634
 21
365.5142013356
 31
0.0
  0
LINE
  5
EC
330
1F
100
AcDbEntity
  8
0
  6
Continuous
 62
     7
370
    25
100
AcDbLine
 10
447.2759235991
 20
405.1117198598
 30
0.0
 11
447.2759235991
 21
394.4966893053
 31
0.0
  0
LINE
  5
ED
330
1F
100
AcDbEntity
  8
0
  6
Continuous
 62
     7
370
    25
100
AcDbLine
 10
585.1617459305
 20
352.4431787424
 30
0.0
 11
585.1617459305
 21
415.3168212576
 31
0.0
  0
LINE
  5
EE
330
1F
100
AcDbEntity
  8
0
  6
Continuous
 62
     7
370
    25
100
AcDbLine
 10
585.1617459305
 20
352.4431787424
 30
0.0
 11
507.38
 21
307.5407325921
 31
0.0
  0
LWPOLYLINE
  5
EF
330
1F
100
AcDbEntity
  8
0
  6
Continuous
 62
     7
370
    25
100
AcDbPolyline
 90
       19
 70
   128
 43
0.0
 10
579.504891681
 20
372.8572298398
 10
579.4619215176
 20
372.2652603965
 10
579.3343166538
 20
371.6416653506
 10
579.1259542991
 20
371.0053923218
 10
578.843165438
 20
370.3757741442
 10
578.494542467
 20
369.7719414475
 10
578.0906781187
 20
369.2122413827
 10
577.6438436069
 20
368.713680153
 10
577.1676157722
 20
368.2914062891
 10
576.6764645563
 20
367.9582503686
 10
576.1853133404
 20
367.7243351657
 10
575.7090855057
 20
367.5967680753
 10
575.2622509939
 20
367.579425159
 10
574.8583866456
 20
367.6728333726
 10
574.5097636746
 20
367.8741545547
 10
574.2269748135
 20
368.177271663
 10
574.0186124587
 20
368.5729746376
 10
573.891007595
 20
369.049240244
 10
573.8480374315
 20
369.5915973925
  0
LWPOLYLINE
  5
F0
330
1F
100
AcDbEntity
  8
0
  6
Continuous
 62
     7
370
    25
100
AcDbPolyline
 90
       19
 70
   128
 43
0.0
 10
573.8480374315
 20
369.5915973925
 10
573.891007595
 20
370.1835668358
 10
574.0186124587
 20
370.8071618817
 10
574.2269748135
 20
371.4434349105
 10
574.5097636746
 20
372.0730530881
 10
574.8583866456
 20
372.6768857848
 10
575.2622509939
 20
373.2365858496
 10
575.7090855057
 20
373.7351470793
 10
576.1853133404
 20
374.1574209432
 10
576.6764645563
 20
374.4905768637
 10
577.1676157722
 20
374.7244920666
 10
577.6438436069
 20
374.852059157
 10
578.0906781187
 20
374.8694020733
 10
578.494542467
 20
374.7759938597
 10
578.843165438
 20
374.5746726776
 10
579.1259542991
 20
374.2715555693
 10
579.3343166538
 20
373.8758525947
 10
579.4619215176
 20
373.3995869883
 10
579.504891681
 20
372.8572298398
  0
LWPOLYLINE
  5
F1
330
1F
100
AcDbEntity
  8
0
  6
Continuous
 62
     7
370
    25
100
AcDbPolyline
 90
       22
 70
   128
 43
0.0
 10
519.7543686708
 20
352.2451809173
 10
519.7109307789
 20
351.5507597445
 10
519.5815874341
 20
350.8216984707
 10
519.369227953
 20
350.0742831202
 10
519.0785960953
 20
349.3252097168
 10
518.7161840967
 20
348.5912113225
 10
518.2900876422
 20
347.8886842485
 10
517.8098250225
 20
347.2333217888
 10
517.286124511
 20
346.6397636578
 10
516.7306847117
 20
346.1212689634
 10
516.1559132319
 20
345.6894200201
 10
515.5746495166
 20
345.3538636198
 10
514.9998780368
 20
345.1220955379
 10
514.4444382375
 20
344.9992930905
 10
513.920737726
 20
344.9881994813
 10
513.4404751063
 20
345.0890625232
 10
513.0143786518
 20
345.2996291025
 10
512.6519666531
 20
345.6151955097
 10
512.3613347955
 20
346.0287125128
 10
512.1489753144
 20
346.5309428253
 10
512.0196319696
 20
347.1106674519
 10
511.9761940777
 20
347.7549363023
  0
LWPOLYLINE
  5
F2
330
1F
100
AcDbEntity
  8
0
  6
Continuous
 62
     7
370
    25
100
AcDbPolyline
 90
       22
 70
   128
 43
0.0
 10
511.9761940777
 20
347.7549363023
 10
512.0196319696
 20
348.4493574752
 10
512.1489753144
 20
349.1784187489
 10
512.3613347955
 20
349.9258340994
 10
512.6519666531
 20
350.6749075029
 10
513.0143786518
 20
351.4089058972
 10
513.4404751063
 20
352.1114329712
 10
513.920737726
 20
352.7667954308
 10
514.4444382375
 20
353.3603535618
 10
514.9998780368
 20
353.8788482563
 10
515.5746495166
 20
354.3106971996
 10
516.1559132319
 20
354.6462535999
 10
516.7306847117
 20
354.8780216817
 10
517.286124511
 20
355.0008241291
 10
517.8098250225
 20
355.0119177383
 10
518.2900876422
 20
354.9110546965
 10
518.7161840967
 20
354.7004881172
 10
519.0785960953
 20
354.38492171
 10
519.369227953
 20
353.9714047068
 10
519.5815874341
 20
353.4691743944
 10
519.7109307789
 20
352.8894497678
 10
519.7543686708
 20
352.2451809173
  0
LWPOLYLINE
  5
F3
330
1F
100
AcDbEntity
  8
0
  6
Continuous
 62
     7
370
    25
100
AcDbPolyline
 90
       22
 70
   128
 43
0.0
 10
580.5655518528
 20
387.3507297257
 10
580.522113961
 20
386.6563085529
 10
580.3927706162
 20
385.9272472791
 10
580.180411135
 20
385.1798319286
 10
579.8897792774
 20
384.4307585252
 10
579.5273672787
 20
383.6967601308
 10
579.1012708242
 20
382.9942330569
 10
578.6210082045
 20
382.3388705972
 10
578.097307693
 20
381.7453124662
 10
577.5418678937
 20
381.2268177717
 10
576.9670964139
 20
380.7949688284
 10
576.3858326986
 20
380.4594124281
 10
575.8110612188
 20
380.2276443463
 10
575.2556214195
 20
380.1048418989
 10
574.731920908
 20
380.0937482897
 10
574.2516582884
 20
380.1946113316
 10
573.8255618339
 20
380.4051779108
 10
573.4631498352
 20
380.7207443181
 10
573.1725179776
 20
381.1342613212
 10
572.9601584964
 20
381.6364916337
 10
572.8308151516
 20
382.2162162602
 10
572.7873772598
 20
382.8604851107
  0
LWPOLYLINE
  5
F4
330
1F
100
AcDbEntity
  8
0
  6
Continuous
 62
     7
370
    25
100
AcDbPolyline
 90
       22
 70
   128
 43
0.0
 10
572.7873772598
 20
382.8604851107
 10
572.8308151516
 20
383.5549062836
 10
572.9601584964
 20
384.2839675573
 10
573.1725179776
 20
385.0313829078
 10
573.4631498352
 20
385.7804563113
 10
573.8255618339
 20
386.5144547056
 10
574.2516582884
 20
387.2169817795
 10
574.731920908
 20
387.8723442392
 10
575.2556214195
 20
388.4659023702
 10
575.8110612188
 20
388.9843970647
 10
576.3858326986
 20
389.416246008
 10
576.9670964139
 20
389.7518024083
 10
577.5418678937
 20
389.9835704901
 10
578.097307693
 20
390.1063729375
 10
578.6210082045
 20
390.1174665467
 10
579.1012708242
 20
390.0166035049
 10
579.5273672787
 20
389.8060369256
 10
579.8897792774
 20
389.4904705184
 10
580.180411135
 20
389.0769535152
 10
580.3927706162
 20
388.5747232027
 10
580.522113961
 20
387.9949985762
 10
580.5655518528
 20
387.3507297257
  0
LWPOLYLINE
  5
F5
330
1F
100
AcDbEntity
  8
0
  6
Continuous
 62
     7
370
    25
100
AcDbPolyline
 90
       22
 70
   128
 43
0.0
 10
519.7543686708
 20
324.4827933132
 10
519.7109307789
 20
323.7883721404
 10
519.5815874341
 20
323.0593108666
 10
519.369227953
 20
322.3118955161
 10
519.0785960953
 20
321.5628221127
 10
518.7161840967
 20
320.8288237184
 10
518.2900876422
 20
320.1262966444
 10
517.8098250225
 20
319.4709341847
 10
517.286124511
 20
318.8773760537
 10
516.7306847117
 20
318.3588813592
 10
516.1559132319
 20
317.927032416
 10
515.5746495166
 20
317.5914760156
 10
514.9998780368
 20
317.3597079338
 10
514.4444382375
 20
317.2369054864
 10
513.920737726
 20
317.2258118772
 10
513.4404751063
 20
317.3266749191
 10
513.0143786518
 20
317.5372414983
 10
512.6519666531
 20
317.8528079056
 10
512.3613347955
 20
318.2663249087
 10
512.1489753144
 20
318.7685552212
 10
512.0196319696
 20
319.3482798477
 10
511.9761940777
 20
319.9925486982
  0
LWPOLYLINE
  5
F6
330
1F
100
AcDbEntity
  8
0
  6
Continuous
 62
     7
370
    25
100
AcDbPolyline
 90
       22
 70
   128
 43
0.0
 10
511.9761940777
 20
319.9925486982
 10
512.0196319696
 20
320.6869698711
 10
512.1489753144
 20
321.4160311448
 10
512.3613347955
 20
322.1634464953
 10
512.6519666531
 20
322.9125198988
 10
513.0143786518
 20
323.6465182931
 10
513.4404751063
 20
324.349045367
 10
513.920737726
 20
325.0044078267
 10
514.4444382375
 20
325.5979659577
 10
514.9998780368
 20
326.1164606522
 10
515.5746495166
 20
326.5483095955
 10
516.1559132319
 20
326.8838659958
 10
516.7306847117
 20
327.1156340776
 10
517.286124511
 20
327.238436525
 10
517.8098250225
 20
327.2495301342
 10
518.2900876422
 20
327.1486670924
 10
518.7161840967
 20
326.9381005131
 10
519.0785960953
 20
326.6225341059
 10
519.369227953
 20
326.2090171027
 10
519.5815874341
 20
325.7067867903
 10
519.7109307789
 20
325.1270621637
 10
519.7543686708
 20
324.4827933132
  0
LWPOLYLINE
  5
F7
330
1F
100
AcDbEntity
  8
0
  6
Continuous
 62
     7
370
    25
100
AcDbPolyline
 90
       19
 70
   128
 43
0.0
 10
518.693708499
 20
337.7516810314
 10
518.6507383355
 20
337.1597115882
 10
518.5231334718
 20
336.5361165422
 10
518.314771117
 20
335.8998435134
 10
518.0319822559
 20
335.2702253358
 10
517.6833592849
 20
334.6663926391
 10
517.2794949366
 20
334.1066925743
 10
516.8326604248
 20
333.6081313446
 10
516.3564325901
 20
333.1858574807
 10
515.8652813742
 20
332.8527015602
 10
515.3741301584
 20
332.6187863573
 10
514.8979023236
 20
332.4912192669
 10
514.4510678119
 20
332.4738763507
 10
514.0472034636
 20
332.5672845642
 10
513.6985804926
 20
332.7686057463
 10
513.4157916315
 20
333.0717228546
 10
513.2074292767
 20
333.4674258293
 10
513.079824413
 20
333.9436914356
 10
513.0368542495
 20
334.4860485841
  0
LWPOLYLINE
  5
F8
330
1F
100
AcDbEntity
  8
0
  6
Continuous
 62
     7
370
    25
100
AcDbPolyline
 90
       19
 70
   128
 43
0.0
 10
513.0368542495
 20
334.4860485841
 10
513.079824413
 20
335.0780180274
 10
513.2074292767
 20
335.7016130734
 10
513.4157916315
 20
336.3378861022
 10
513.6985804926
 20
336.9675042797
 10
514.0472034636
 20
337.5713369764
 10
514.4510678119
 20
338.1310370412
 10
514.8979023236
 20
338.6295982709
 10
515.3741301584
 20
339.0518721349
 10
515.8652813742
 20
339.3850280553
 10
516.3564325901
 20
339.6189432583
 10
516.8326604248
 20
339.7465103486
 10
517.2794949366
 20
339.7638532649
 10
517.6833592849
 20
339.6704450513
 10
518.0319822559
 20
339.4691238693
 10
518.314771117
 20
339.1660067609
 10
518.5231334718
 20
338.7703037863
 10
518.6507383355
 20
338.29403818
 10
518.693708499
 20
337.7516810314
  0
LWPOLYLINE
  5
F9
330
1F
100
AcDbEntity
  8
0
  6
Continuous
 62
     7
370
    25
100
AcDbPolyline
 90
       22
 70
   128
 43
0.0
 10
580.5655518528
 20
359.5883421216
 10
580.522113961
 20
358.8939209487
 10
580.3927706162
 20
358.164859675
 10
580.180411135
 20
357.4174443245
 10
579.8897792774
 20
356.668370921
 10
579.5273672787
 20
355.9343725267
 10
579.1012708242
 20
355.2318454528
 10
578.6210082045
 20
354.5764829931
 10
578.097307693
 20
353.9829248621
 10
577.5418678937
 20
353.4644301676
 10
576.9670964139
 20
353.0325812243
 10
576.3858326986
 20
352.697024824
 10
575.8110612188
 20
352.4652567422
 10
575.2556214195
 20
352.3424542948
 10
574.731920908
 20
352.3313606856
 10
574.2516582884
 20
352.4322237274
 10
573.8255618339
 20
352.6427903067
 10
573.4631498352
 20
352.9583567139
 10
573.1725179776
 20
353.3718737171
 10
572.9601584964
 20
353.8741040296
 10
572.8308151516
 20
354.4538286561
 10
572.7873772598
 20
355.0980975066
  0
LWPOLYLINE
  5
FA
330
1F
100
AcDbEntity
  8
0
  6
Continuous
 62
     7
370
    25
100
AcDbPolyline
 90
       22
 70
   128
 43
0.0
 10
572.7873772598
 20
355.0980975066
 10
572.8308151516
 20
355.7925186794
 10
572.9601584964
 20
356.5215799532
 10
573.1725179776
 20
357.2689953037
 10
573.4631498352
 20
358.0180687071
 10
573.8255618339
 20
358.7520671015
 10
574.2516582884
 20
359.4545941754
 10
574.731920908
 20
360.1099566351
 10
575.2556214195
 20
360.7035147661
 10
575.8110612188
 20
361.2220094606
 10
576.3858326986
 20
361.6538584039
 10
576.9670964139
 20
361.9894148042
 10
577.5418678937
 20
362.221182886
 10
578.097307693
 20
362.3439853334
 10
578.6210082045
 20
362.3550789426
 10
579.1012708242
 20
362.2542159007
 10
579.5273672787
 20
362.0436493215
 10
579.8897792774
 20
361.7280829142
 10
580.180411135
 20
361.3145659111
 10
580.3927706162
 20
360.8123355986
 10
580.522113961
 20
360.2326109721
 10
580.5655518528
 20
359.5883421216
  0
ARC
  5
FB
330
1F
100
AcDbEntity
  8
0
  6
Continuous
 62
     7
370
    25
100
AcDbCircle
 10
517.3791459148
 20
404.8412442797
 30
0.0
 40
14.33812831615861
100
AcDbArc
 50
28.3163659412
 51
62.51237663
  0
LWPOLYLINE
  5
FC
330
1F
100
AcDbEntity
  8
0
  6
Continuous
 62
     7
370
    25
100
AcDbPolyline
 90
       31
 70
   128
 43
0.0
 10
523.9970093579
 20
417.5607492645
 10
522.7692272477
 20
418.2206501038
 10
521.463025163
 20
418.8283055536
 10
520.0850592102
 20
419.3806191411
 10
518.6423511879
 20
419.8747764027
 10
517.1422528055
 20
420.3082592264
 10
515.5924082206
 20
420.6788586831
 10
514.0007150858
 20
420.9846862829
 10
512.3752843045
 20
421.2241835984
 10
510.7243986994
 20
421.3961302062
 10
509.0564708052
 20
421.4996499058
 10
507.38
 20
421.5342151846
 10
505.7035291948
 20
421.4996499058
 10
504.0356013006
 20
421.3961302062
 10
502.3847156955
 20
421.2241835984
 10
500.7592849142
 20
420.9846862829
 10
499.1675917794
 20
420.6788586831
 10
497.6177471945
 20
420.3082592264
 10
496.1176488121
 20
419.8747764027
 10
494.6749407898
 20
419.3806191411
 10
493.296974837
 20
418.8283055536
 10
491.9907727523
 20
418.2206501038
 10
490.7629906421
 20
417.5607492645
 10
489.6198850027
 20
416.8519657392
 10
488.5672808383
 20
416.0979113262
 10
487.6105419785
 20
415.302428514
 10
486.7545437452
 20
414.4695709006
 10
486.0036481092
 20
413.6035825375
 10
485.3616814625
 20
412.708876303
 10
484.8319151201
 20
411.7900114149
 10
484.7583989717
 20
411.6423876041
  0
LWPOLYLINE
  5
FD
330
1F
100
AcDbEntity
  8
0
  6
Continuous
 62
     7
370
    25
100
AcDbPolyline
 90
       31
 70
   128
 43
0.0
 10
521.8756890143
 20
416.3361370968
 10
520.7235216174
 20
416.9521613512
 10
519.4930491298
 20
417.5154627041
 10
518.1914924533
 20
418.0227354792
 10
516.8264896402
 20
418.4710027983
 10
515.4060510696
 20
418.8576340503
 10
513.9385124399
 20
419.1803603294
 10
512.4324858513
 20
419.4372877495
 10
510.8968092667
 20
419.6269085583
 10
509.3404946469
 20
419.7481099854
 10
507.772675065
 20
419.8001807728
 10
506.2025511097
 20
419.7828153483
 10
504.6393368927
 20
419.6961156191
 10
503.0922059765
 20
419.5405903738
 10
501.5702375407
 20
419.3171522963
 10
500.0823631011
 20
419.0271126101
 10
498.6373140966
 20
418.6721733834
 10
497.2435706493
 20
418.2544175407
 10
495.9093118001
 20
417.7762966394
 10
494.6423675103
 20
417.2406164831
 10
493.4501727129
 20
416.650520656
 10
492.339723681
 20
416.0094720749
 10
491.317536971
 20
415.321232668
 10
490.389611181
 20
414.5898412976
 10
489.5613917485
 20
413.8195900592
 10
488.8377389946
 20
413.0149990933
 10
488.2228996012
 20
412.1807900597
 10
487.7204816904
 20
411.3218584285
 10
487.3334336503
 20
410.4432447523
 10
487.0640268328
 20
409.5501050855
 10
486.9140115515
 20
408.6493776819
  0
ARC
  5
FE
330
1F
100
AcDbEntity
  8
0
  6
Continuous
 62
     7
370
    25
100
AcDbCircle
 10
517.3702758975
 20
406.6748436711
 30
0.0
 40
10.66017532735419
100
AcDbArc
 50
10.6742672706
 51
64.9986457896
  0
ARC
  5
FF
330
1F
100
AcDbEntity
  8
0
  6
Continuous
 62
     7
370
    25
100
AcDbCircle
 10
515.8041382843
 20
401.6671801434
 30
0.0
 40
12.91849188431287
100
AcDbArc
 50
29.0356698243
 51
61.9664092166
  0
LINE
  5
100
330
1F
100
AcDbEntity
  8
0
  6
Continuous
 62
     7
370
    25
100
AcDbLine
 10
504.5394562055
 20
401.8500301156
 30
0.0
 11
496.4198448916
 21
406.5373819541
 31
0.0
  0
LWPOLYLINE
  5
101
330
1F
100
AcDbEntity
  8
0
  6
Continuous
 62
     7
370
    25
100
AcDbPolyline
 90
       29
 70
   128
 43
0.0
 10
521.8756890143
 20
413.0699738493
 10
520.7235216174
 20
413.6859981036
 10
519.4930491298
 20
414.2492994565
 10
518.1914924533
 20
414.7565722317
 10
516.8264896402
 20
415.2048395507
 10
515.4060510696
 20
415.5914708028
 10
513.9385124399
 20
415.9141970819
 10
512.4324858513
 20
416.171124502
 10
510.8968092667
 20
416.3607453107
 10
509.3404946469
 20
416.4819467379
 10
507.772675065
 20
416.5340175253
 10
506.2025511097
 20
416.5166521008
 10
504.6393368927
 20
416.4299523716
 10
503.0922059765
 20
416.2744271263
 10
501.5702375407
 20
416.0509890487
 10
500.0823631011
 20
415.7609493625
 10
498.6373140966
 20
415.4060101358
 10
497.2435706493
 20
414.9882542931
 10
495.9093118001
 20
414.5101333918
 10
494.6423675103
 20
413.9744532356
 10
493.4501727129
 20
413.3843574084
 10
492.339723681
 20
412.7433088274
 10
491.317536971
 20
412.0550694204
 10
490.389611181
 20
411.3236780501
 10
489.5613917485
 20
410.5534268117
 10
488.8377389946
 20
409.7488358458
 10
488.2228996012
 20
408.9146268121
 10
487.7204816904
 20
408.055695181
 10
487.6609953896
 20
407.9372221881
  0
ARC
  5
102
330
1F
100
AcDbEntity
  8
0
  6
Continuous
 62
     7
370
    25
100
AcDbCircle
 10
500.5056090819
 20
412.9787819147
 30
0.0
 40
7.627915997973721
100
AcDbArc
 50
182.3868561234
 51
237.6131440222
  0
LINE
  5
103
330
1F
100
AcDbEntity
  8
0
  6
Continuous
 62
     7
370
    25
100
AcDbLine
 10
492.8843109857
 20
412.661106293
 30
0.0
 11
492.8843109857
 21
413.0699738493
 31
0.0
  0
LINE
  5
104
330
1F
100
AcDbEntity
  8
0
  6
HIDDEN
 62
     7
370
    18
100
AcDbLine
 10
575.2622509939
 20
410.4166474858
 30
0.0
 11
497.4805050634
 21
365.5142013356
 31
0.0
  0
LWPOLYLINE
  5
105
330
1F
100
AcDbEntity
  8
0
  6
HIDDEN
 62
     7
370
    18
100
AcDbPolyline
 90
       22
 70
   128
 43
0.0
 10
502.0766991411
 20
353.4697930851
 10
502.1201370329
 20
354.1642142579
 10
502.2494803777
 20
354.8932755317
 10
502.4618398589
 20
355.6406908822
 10
502.7524717165
 20
356.3897642856
 10
503.1148837152
 20
357.12376268
 10
503.5409801697
 20
357.8262897539
 10
504.0212427894
 20
358.4816522136
 10
504.5449433009
 20
359.0752103446
 10
505.1003831002
 20
359.5937050391
 10
505.67515458
 20
360.0255539823
 10
506.2564182953
 20
360.3611103827
 10
506.8311897751
 20
360.5928784645
 10
507.3866295744
 20
360.7156809119
 10
507.9103300859
 20
360.7267745211
 10
508.3905927055
 20
360.6259114792
 10
508.8166891601
 20
360.4153449
 10
509.1791011587
 20
360.0997784927
 10
509.4697330164
 20
359.6862614896
 10
509.6820924975
 20
359.1840311771
 10
509.8114358423
 20
358.6043065506
 10
509.8548737342
 20
357.9600377001
  0
LWPOLYLINE
  5
106
330
1F
100
AcDbEntity
  8
0
  6
HIDDEN
 62
     7
370
    18
100
AcDbPolyline
 90
       22
 70
   128
 43
0.0
 10
509.8548737342
 20
357.9600377001
 10
509.8114358423
 20
357.2656165272
 10
509.6820924975
 20
356.5365552535
 10
509.4697330164
 20
355.789139903
 10
509.1791011587
 20
355.0400664995
 10
508.8166891601
 20
354.3060681052
 10
508.3905927055
 20
353.6035410313
 10
507.9103300859
 20
352.9481785716
 10
507.3866295744
 20
352.3546204406
 10
506.8311897751
 20
351.8361257461
 10
506.2564182953
 20
351.4042768028
 10
505.67515458
 20
351.0687204025
 10
505.1003831002
 20
350.8369523207
 10
504.5449433009
 20
350.7141498733
 10
504.0212427894
 20
350.7030562641
 10
503.5409801697
 20
350.8039193059
 10
503.1148837152
 20
351.0144858852
 10
502.7524717165
 20
351.3300522924
 10
502.4618398589
 20
351.7435692956
 10
502.2494803777
 20
352.2457996081
 10
502.1201370329
 20
352.8255242346
 10
502.0766991411
 20
353.4697930851
  0
LWPOLYLINE
  5
107
330
1F
100
AcDbEntity
  8
0
  6
HIDDEN
 62
     7
370
    18
100
AcDbPolyline
 90
       19
 70
   128
 43
0.0
 10
503.1373593129
 20
340.2009053669
 10
503.1803294763
 20
340.7928748101
 10
503.3079343401
 20
341.4164698561
 10
503.5162966948
 20
342.0527428849
 10
503.7990855559
 20
342.6823610625
 10
504.1477085269
 20
343.2861937592
 10
504.5515728753
 20
343.845893824
 10
504.998407387
 20
344.3444550537
 10
505.4746352218
 20
344.7667289176
 10
505.9657864376
 20
345.0998848381
 10
506.4569376535
 20
345.333800041
 10
506.9331654882
 20
345.4613671314
 10
507.38
 20
345.4787100476
 10
507.7838643483
 20
345.3853018341
 10
508.1324873193
 20
345.183980652
 10
508.4152761804
 20
344.8808635437
 10
508.6236385352
 20
344.485160569
 10
508.7512433989
 20
344.0088949627
 10
508.7942135624
 20
343.4665378142
  0
LWPOLYLINE
  5
108
330
1F
100
AcDbEntity
  8
0
  6
HIDDEN
 62
     7
370
    18
100
AcDbPolyline
 90
       19
 70
   128
 43
0.0
 10
508.7942135624
 20
343.4665378142
 10
508.7512433989
 20
342.8745683709
 10
508.6236385352
 20
342.2509733249
 10
508.4152761804
 20
341.6147002961
 10
508.1324873193
 20
340.9850821186
 10
507.7838643483
 20
340.3812494219
 10
507.38
 20
339.8215493571
 10
506.9331654882
 20
339.3229881274
 10
506.4569376535
 20
338.9007142634
 10
505.9657864376
 20
338.567558343
 10
505.4746352218
 20
338.33364314
 10
504.998407387
 20
338.2060760497
 10
504.5515728753
 20
338.1887331334
 10
504.1477085269
 20
338.282141347
 10
503.7990855559
 20
338.483462529
 10
503.5162966948
 20
338.7865796374
 10
503.3079343401
 20
339.182282612
 10
503.1803294763
 20
339.6585482183
 10
503.1373593129
 20
340.2009053669
  0
LWPOLYLINE
  5
109
330
1F
100
AcDbEntity
  8
0
  6
HIDDEN
 62
     7
370
    18
100
AcDbPolyline
 90
       16
 70
   128
 43
0.0
 10
537.0784848098
 20
385.9245368312
 10
537.5658880483
 20
385.6966863589
 10
538.1247013048
 20
385.5323154736
 10
538.7305017583
 20
385.4386079718
 10
539.3568130221
 20
385.4196593209
 10
539.9762622887
 20
385.4762976681
 10
540.5617766526
 20
385.6060476456
 10
541.0877663265
 20
385.8032385568
 10
541.5312430378
 20
386.0592522128
 10
541.872824726
 20
386.3628995883
 10
542.0975826323
 20
386.7009098358
 10
542.1956937577
 20
387.0585102856
 10
542.1628701752
 20
387.4200720822
 10
542.0005464329
 20
387.76979324
 10
541.7158168572
 20
388.0923892663
 10
541.321125497
 20
388.3737611667
  0
LWPOLYLINE
  5
10A
330
1F
100
AcDbEntity
  8
0
  6
HIDDEN
 62
     7
370
    18
100
AcDbPolyline
 90
       16
 70
   128
 43
0.0
 10
473.438874503
 20
385.9245368312
 10
473.9262777416
 20
385.6966863589
 10
474.485090998
 20
385.5323154736
 10
475.0908914515
 20
385.4386079718
 10
475.7172027153
 20
385.4196593209
 10
476.3366519819
 20
385.4762976681
 10
476.9221663458
 20
385.6060476456
 10
477.4481560198
 20
385.8032385568
 10
477.891632731
 20
386.0592522128
 10
478.2332144192
 20
386.3628995883
 10
478.4579723255
 20
386.7009098358
 10
478.5560834509
 20
387.0585102856
 10
478.5232598684
 20
387.4200720822
 10
478.3609361261
 20
387.76979324
 10
478.0762065504
 20
388.0923892663
 10
477.6815151902
 20
388.3737611667
  0
LWPOLYLINE
  5
10B
330
1F
100
AcDbEntity
  8
0
  6
HIDDEN
 62
     7
370
    18
100
AcDbPolyline
 90
       16
 70
   128
 43
0.0
 10
541.321125497
 20
388.3737611667
 10
540.8337222584
 20
388.601611639
 10
540.274909002
 20
388.7659825243
 10
539.6691085485
 20
388.8596900261
 10
539.0427972847
 20
388.878638677
 10
538.4233480181
 20
388.8220003299
 10
537.8378336542
 20
388.6922503524
 10
537.3118439802
 20
388.4950594411
 10
536.868367269
 20
388.2390457851
 10
536.5267855808
 20
387.9353984097
 10
536.3020276745
 20
387.5973881621
 10
536.2039165491
 20
387.2397877123
 10
536.2367401316
 20
386.8782259157
 10
536.3990638739
 20
386.5285047579
 10
536.6837934496
 20
386.2059087317
 10
537.0784848098
 20
385.9245368312
  0
LWPOLYLINE
  5
10C
330
1F
100
AcDbEntity
  8
0
  6
HIDDEN
 62
     7
370
    18
100
AcDbPolyline
 90
       16
 70
   128
 43
0.0
 10
477.6815151902
 20
388.3737611667
 10
477.1941119517
 20
388.601611639
 10
476.6352986952
 20
388.7659825243
 10
476.0294982417
 20
388.8596900261
 10
475.4031869779
 20
388.878638677
 10
474.7837377113
 20
388.8220003299
 10
474.1982233474
 20
388.6922503524
 10
473.6722336735
 20
388.4950594411
 10
473.2287569622
 20
388.2390457851
 10
472.887175274
 20
387.9353984097
 10
472.6624173677
 20
387.5973881621
 10
472.5643062423
 20
387.2397877123
 10
472.5971298248
 20
386.8782259157
 10
472.7594535671
 20
386.5285047579
 10
473.0441831428
 20
386.2059087317
 10
473.438874503
 20
385.9245368312
  0
LWPOLYLINE
  5
10D
330
1F
100
AcDbEntity
  8
0
  6
HIDDEN
 62
     7
370
    18
100
AcDbPolyline
 90
       38
 70
   128
 43
0.0
 10
490.7629906421
 20
398.3751586367
 10
491.9907727523
 20
397.7152577974
 10
493.296974837
 20
397.1076023477
 10
494.6749407898
 20
396.5552887602
 10
496.1176488121
 20
396.0611314986
 10
497.6177471945
 20
395.6276486748
 10
499.1675917794
 20
395.2570492181
 10
500.7592849142
 20
394.9512216184
 10
502.3847156955
 20
394.7117243029
 10
504.0356013006
 20
394.539777695
 10
505.7035291948
 20
394.4362579954
 10
507.38
 20
394.4016927166
 10
509.0564708052
 20
394.4362579954
 10
510.7243986994
 20
394.539777695
 10
512.3752843045
 20
394.7117243029
 10
514.0007150858
 20
394.9512216184
 10
515.5924082206
 20
395.2570492181
 10
517.1422528055
 20
395.6276486748
 10
518.6423511879
 20
396.0611314986
 10
520.0850592102
 20
396.5552887602
 10
521.463025163
 20
397.1076023477
 10
522.7692272477
 20
397.7152577974
 10
523.9970093579
 20
398.3751586367
 10
525.1401149973
 20
399.083942162
 10
526.1927191617
 20
399.837996575
 10
527.1494580215
 20
400.6334793873
 10
528.0054562548
 20
401.4663370007
 10
528.7563518908
 20
402.3323253637
 10
529.3983185375
 20
403.2270315983
 10
529.9280848799
 20
404.1458964864
 10
530.3429513503
 20
405.0842377033
 10
530.6408038842
 20
406.0372736771
 10
530.8201246933
 20
407.0001479551
 10
530.88
 20
407.9679539506
 10
530.8201246933
 20
408.9357599461
 10
530.6408038842
 20
409.8986342241
 10
530.3429513503
 20
410.851670198
 10
530.0016010283
 20
411.6423876041
  0
LWPOLYLINE
  5
10E
330
1F
100
AcDbEntity
  8
0
  6
HIDDEN
 62
     7
370
    18
100
AcDbPolyline
 90
       22
 70
   128
 43
0.0
 10
502.0766991411
 20
325.707405481
 10
502.1201370329
 20
326.4018266538
 10
502.2494803777
 20
327.1308879276
 10
502.4618398589
 20
327.8783032781
 10
502.7524717165
 20
328.6273766815
 10
503.1148837152
 20
329.3613750758
 10
503.5409801697
 20
330.0639021498
 10
504.0212427894
 20
330.7192646095
 10
504.5449433009
 20
331.3128227405
 10
505.1003831002
 20
331.8313174349
 10
505.67515458
 20
332.2631663782
 10
506.2564182953
 20
332.5987227785
 10
506.8311897751
 20
332.8304908604
 10
507.3866295744
 20
332.9532933078
 10
507.9103300859
 20
332.964386917
 10
508.3905927055
 20
332.8635238751
 10
508.8166891601
 20
332.6529572959
 10
509.1791011587
 20
332.3373908886
 10
509.4697330164
 20
331.9238738855
 10
509.6820924975
 20
331.421643573
 10
509.8114358423
 20
330.8419189464
 10
509.8548737342
 20
330.197650096
  0
LWPOLYLINE
  5
10F
330
1F
100
AcDbEntity
  8
0
  6
HIDDEN
 62
     7
370
    18
100
AcDbPolyline
 90
       22
 70
   128
 43
0.0
 10
509.8548737342
 20
330.197650096
 10
509.8114358423
 20
329.5032289231
 10
509.6820924975
 20
328.7741676494
 10
509.4697330164
 20
328.0267522989
 10
509.1791011587
 20
327.2776788954
 10
508.8166891601
 20
326.5436805011
 10
508.3905927055
 20
325.8411534271
 10
507.9103300859
 20
325.1857909675
 10
507.3866295744
 20
324.5922328365
 10
506.8311897751
 20
324.073738142
 10
506.2564182953
 20
323.6418891987
 10
505.67515458
 20
323.3063327984
 10
505.1003831002
 20
323.0745647166
 10
504.5449433009
 20
322.9517622692
 10
504.0212427894
 20
322.94066866
 10
503.5409801697
 20
323.0415317018
 10
503.1148837152
 20
323.2520982811
 10
502.7524717165
 20
323.5676646883
 10
502.4618398589
 20
323.9811816915
 10
502.2494803777
 20
324.4834120039
 10
502.1201370329
 20
325.0631366305
 10
502.0766991411
 20
325.707405481
  0
LWPOLYLINE
  5
110
330
1F
100
AcDbEntity
  8
0
  6
HIDDEN
 62
     7
370
    18
100
AcDbPolyline
 90
       16
 70
   128
 43
0.0
 10
484.7583989717
 20
411.6423876041
 10
484.4170486497
 20
410.851670198
 10
484.1191961158
 20
409.8986342241
 10
483.9398753067
 20
408.9357599461
 10
483.88
 20
407.9679539506
 10
483.9398753067
 20
407.0001479551
 10
484.1191961158
 20
406.0372736771
 10
484.4170486497
 20
405.0842377033
 10
484.8319151201
 20
404.1458964864
 10
485.3616814625
 20
403.2270315983
 10
486.0036481092
 20
402.3323253637
 10
486.7545437452
 20
401.4663370007
 10
487.6105419785
 20
400.6334793873
 10
488.5672808383
 20
399.837996575
 10
489.6198850027
 20
399.083942162
 10
490.7629906421
 20
398.3751586367
  0
LWPOLYLINE
  5
111
330
1F
100
AcDbEntity
  8
0
  6
HIDDEN
 62
     7
370
    18
100
AcDbPolyline
 90
       13
 70
   128
 43
0.0
 10
486.9140115515
 20
408.6493776819
 10
486.913842224
 20
408.6476807266
 10
486.8837611671
 20
407.7412674607
 10
486.9739601897
 20
406.8361844813
 10
487.183909968
 20
405.9377431752
 10
487.5123784332
 20
405.0512159532
 10
487.9574380017
 20
404.1818053095
 10
488.5164768872
 20
403.3346132916
 10
489.1862144269
 20
402.514611559
 10
489.9627203349
 20
401.726612208
 10
490.8414377656
 20
400.9752395321
 10
491.8172100558
 20
400.264902885
 10
492.8843109857
 20
399.5997708044
  0
LWPOLYLINE
  5
112
330
1F
100
AcDbEntity
  8
0
  6
HIDDEN
 62
     7
370
    18
100
AcDbPolyline
 90
       33
 70
   128
 43
0.0
 10
492.8843109857
 20
399.5997708044
 10
494.0364783826
 20
398.9837465501
 10
495.2669508702
 20
398.4204451972
 10
496.5685075467
 20
397.913172422
 10
497.9335103598
 20
397.464905103
 10
499.3539489305
 20
397.0782738509
 10
500.8214875602
 20
396.7555475718
 10
502.3275141487
 20
396.4986201517
 10
503.8631907333
 20
396.308999343
 10
505.4195053531
 20
396.1877979158
 10
506.987324935
 20
396.1357271285
 10
508.5574488903
 20
396.153092553
 10
510.1206631073
 20
396.2397922821
 10
511.6677940235
 20
396.3953175275
 10
513.1897624593
 20
396.618755605
 10
514.6776368989
 20
396.9087952912
 10
516.1226859034
 20
397.2637345179
 10
517.5164293507
 20
397.6814903606
 10
518.8506881999
 20
398.1596112619
 10
520.1176324897
 20
398.6952914182
 10
521.3098272871
 20
399.2853872453
 10
522.420276319
 20
399.9264358263
 10
523.442463029
 20
400.6146752333
 10
524.370388819
 20
401.3460666037
 10
525.1986082515
 20
402.1163178421
 10
525.9222610054
 20
402.920908808
 10
526.5371003988
 20
403.7551178416
 10
527.0395183096
 20
404.6140494727
 10
527.4265663497
 20
405.4926631489
 10
527.6959731672
 20
406.3858028158
 10
527.846157776
 20
407.2882271747
 10
527.8762388329
 20
408.1946404405
 10
527.8459884485
 20
408.6493776819
  0
LINE
  5
113
330
1F
100
AcDbEntity
  8
0
  6
HIDDEN
 62
     7
370
    18
100
AcDbLine
 10
575.2622509939
 20
358.1580355252
 30
0.0
 11
539.553358544
 21
337.5437307016
 31
0.0
  0
LINE
  5
114
330
1F
100
AcDbEntity
  8
0
  6
HIDDEN
 62
     7
370
    18
100
AcDbLine
 10
533.1893975133
 20
333.8698941984
 30
0.0
 11
497.4805050634
 21
313.2555893749
 31
0.0
  0
LINE
  5
115
330
1F
100
AcDbEntity
  8
0
  6
HIDDEN
 62
     7
370
    18
100
AcDbLine
 10
486.520349955
 20
408.9872697898
 30
0.0
 11
486.520349955
 21
413.0699738493
 31
0.0
  0
ARC
  5
116
330
1F
100
AcDbEntity
  8
0
  6
HIDDEN
 62
     7
370
    18
100
AcDbCircle
 10
494.1416480512
 20
409.3049454115
 30
0.0
 40
7.627915997974212
100
AcDbArc
 50
182.3868561234
 51
237.6131440222
  0
LINE
  5
117
330
1F
100
AcDbEntity
  8
0
  6
HIDDEN
 62
     7
370
    18
100
AcDbLine
 10
533.1893975133
 20
377.9630980403
 30
0.0
 11
490.0558838609
 21
402.8635454509
 31
0.0
  0
LINE
  5
118
330
1F
100
AcDbEntity
  8
0
  6
HIDDEN
 62
     7
370
    18
100
AcDbLine
 10
465.3071465194
 20
408.9852792889
 30
0.0
 11
511.9761940777
 21
346.1160158758
 31
0.0
  0
LINE
  5
119
330
1F
100
AcDbEntity
  8
0
  6
HIDDEN
 62
     7
370
    18
100
AcDbLine
 10
465.3071465194
 20
425.3160955266
 30
0.0
 11
465.3071465194
 21
408.9852792889
 31
0.0
  0
LINE
  5
11A
330
1F
100
AcDbEntity
  8
0
  6
HIDDEN
 62
     7
370
    18
100
AcDbLine
 10
511.9761940777
 20
346.1160158758
 30
0.0
 11
533.1893975133
 21
333.8698941984
 31
0.0
  0
LINE
  5
11B
330
1F
100
AcDbEntity
  8
0
  6
HIDDEN
 62
     7
370
    18
100
AcDbLine
 10
533.1893975133
 20
333.8698941984
 30
0.0
 11
533.1893975133
 21
377.9630980403
 31
0.0
  0
LINE
  5
11C
330
1F
100
AcDbEntity
  8
0
  6
HIDDEN
 62
     7
370
    18
100
AcDbLine
 10
486.520349955
 20
413.0699738493
 30
0.0
 11
465.3071465194
 21
425.3160955266
 31
0.0
  0
LWPOLYLINE
  5
11D
330
1F
100
AcDbEntity
  8
0
  6
HIDDEN
 62
     7
370
    18
100
AcDbPolyline
 90
       36
 70
   128
 43
0.0
 10
492.8843109857
 20
396.3336075569
 10
494.0364783826
 20
395.7175833025
 10
495.2669508702
 20
395.1542819496
 10
496.5685075467
 20
394.6470091745
 10
497.9335103598
 20
394.1987418554
 10
499.3539489305
 20
393.8121106034
 10
500.8214875602
 20
393.4893843243
 10
502.3275141487
 20
393.2324569042
 10
503.8631907333
 20
393.0428360954
 10
505.4195053531
 20
392.9216346683
 10
506.987324935
 20
392.8695638809
 10
508.5574488903
 20
392.8869293054
 10
510.1206631073
 20
392.9736290346
 10
511.6677940235
 20
393.1291542799
 10
513.1897624593
 20
393.3525923574
 10
514.6776368989
 20
393.6426320436
 10
516.1226859034
 20
393.9975712704
 10
517.5164293507
 20
394.4153271131
 10
518.8506881999
 20
394.8934480143
 10
520.1176324897
 20
395.4291281706
 10
521.3098272871
 20
396.0192239977
 10
522.420276319
 20
396.6602725788
 10
523.442463029
 20
397.3485119857
 10
524.370388819
 20
398.0799033561
 10
525.1986082515
 20
398.8501545945
 10
525.9222610054
 20
399.6547455604
 10
526.5371003988
 20
400.4889545941
 10
527.0395183096
 20
401.3478862252
 10
527.4265663497
 20
402.2264999014
 10
527.6959731672
 20
403.1196395683
 10
527.846157776
 20
404.0220639271
 10
527.8762388329
 20
404.928477193
 10
527.7860398103
 20
405.8335601724
 10
527.576090032
 20
406.7320014785
 10
527.2476215668
 20
407.6185287005
 10
527.0990046104
 20
407.9372221881
  0
LINE
  5
11E
330
1F
100
AcDbEntity
  8
0
  6
HIDDEN
 62
     7
370
    18
100
AcDbLine
 10
518.3401551084
 20
349.789852379
 30
0.0
 11
539.553358544
 21
337.5437307016
 31
0.0
  0
LINE
  5
11F
330
1F
100
AcDbEntity
  8
0
  6
HIDDEN
 62
     7
370
    18
100
AcDbLine
 10
539.553358544
 20
337.5437307016
 30
0.0
 11
539.553358544
 21
381.6369345435
 31
0.0
  0
LINE
  5
120
330
1F
100
AcDbEntity
  8
0
  6
HIDDEN
 62
     7
370
    18
100
AcDbLine
 10
492.8843109857
 20
416.7438103525
 30
0.0
 11
471.6711075501
 21
428.9899320298
 31
0.0
  0
LINE
  5
121
330
1F
100
AcDbEntity
  8
0
  6
HIDDEN
 62
     7
370
    18
100
AcDbLine
 10
539.553358544
 20
381.6369345435
 30
0.0
 11
504.5394562055
 21
401.8500301156
 31
0.0
  0
LINE
  5
122
330
1F
100
AcDbEntity
  8
0
  6
HIDDEN
 62
     7
370
    18
100
AcDbLine
 10
539.553358544
 20
381.6369345435
 30
0.0
 11
533.1893975133
 21
377.9630980403
 31
0.0
  0
LWPOLYLINE
  5
123
330
1F
100
AcDbEntity
  8
0
  6
HIDDEN
 62
     7
370
    18
100
AcDbPolyline
 90
       15
 70
   128
 43
0.0
 10
487.6609953896
 20
407.9372221881
 10
487.3334336503
 20
407.1770815048
 10
487.0640268328
 20
406.2839418379
 10
486.913842224
 20
405.3815174791
 10
486.8837611671
 20
404.4751042132
 10
486.9739601897
 20
403.5700212338
 10
487.183909968
 20
402.6715799277
 10
487.5123784332
 20
401.7850527057
 10
487.9574380017
 20
400.915642062
 10
488.5164768872
 20
400.0684500441
 10
489.1862144269
 20
399.2484483115
 10
489.9627203349
 20
398.4604489605
 10
490.8414377656
 20
397.7090762846
 10
491.8172100558
 20
396.9987396374
 10
492.8843109857
 20
396.3336075569
  0
LINE
  5
124
330
1F
100
AcDbEntity
  8
0
  6
HIDDEN
 62
     7
370
    18
100
AcDbLine
 10
575.2622509939
 20
358.1580355252
 30
0.0
 11
585.1617459305
 21
352.4431787424
 31
0.0
  0
LINE
  5
125
330
1F
100
AcDbEntity
  8
0
  6
HIDDEN
 62
     7
370
    18
100
AcDbLine
 10
575.2622509939
 20
410.4166474858
 30
0.0
 11
575.2622509939
 21
358.1580355252
 31
0.0
  0
LINE
  5
126
330
1F
100
AcDbEntity
  8
0
  6
HIDDEN
 62
     7
370
    18
100
AcDbLine
 10
525.0576695297
 20
439.3991354556
 30
0.0
 11
575.2622509939
 21
410.4166474858
 31
0.0
  0
LWPOLYLINE
  5
127
330
1F
100
AcDbEntity
  8
0
  6
HIDDEN
 62
     7
370
    18
100
AcDbPolyline
 90
       22
 70
   128
 43
0.0
 10
562.8878823231
 20
388.5753418935
 10
562.931320215
 20
389.2697630663
 10
563.0606635598
 20
389.9988243401
 10
563.2730230409
 20
390.7462396906
 10
563.5636548986
 20
391.495313094
 10
563.9260668972
 20
392.2293114883
 10
564.3521633517
 20
392.9318385623
 10
564.8324259714
 20
393.587201022
 10
565.3561264829
 20
394.180759153
 10
565.9115662822
 20
394.6992538474
 10
566.486337762
 20
395.1311027907
 10
567.0676014773
 20
395.466659191
 10
567.6423729571
 20
395.6984272729
 10
568.1978127564
 20
395.8212297203
 10
568.7215132679
 20
395.8323233295
 10
569.2017758876
 20
395.7314602876
 10
569.6278723421
 20
395.5208937083
 10
569.9902843408
 20
395.2053273011
 10
570.2809161984
 20
394.791810298
 10
570.4932756796
 20
394.2895799855
 10
570.6226190244
 20
393.7098553589
 10
570.6660569162
 20
393.0655865085
  0
LWPOLYLINE
  5
128
330
1F
100
AcDbEntity
  8
0
  6
HIDDEN
 62
     7
370
    18
100
AcDbPolyline
 90
       22
 70
   128
 43
0.0
 10
570.6660569162
 20
393.0655865085
 10
570.6226190244
 20
392.3711653356
 10
570.4932756796
 20
391.6421040619
 10
570.2809161984
 20
390.8946887114
 10
569.9902843408
 20
390.1456153079
 10
569.6278723421
 20
389.4116169136
 10
569.2017758876
 20
388.7090898396
 10
568.7215132679
 20
388.05372738
 10
568.1978127564
 20
387.460169249
 10
567.6423729571
 20
386.9416745545
 10
567.0676014773
 20
386.5098256112
 10
566.486337762
 20
386.1742692109
 10
565.9115662822
 20
385.9425011291
 10
565.3561264829
 20
385.8196986817
 10
564.8324259714
 20
385.8086050725
 10
564.3521633517
 20
385.9094681143
 10
563.9260668972
 20
386.1200346936
 10
563.5636548986
 20
386.4356011008
 10
563.2730230409
 20
386.8491181039
 10
563.0606635598
 20
387.3513484164
 10
562.931320215
 20
387.931073043
 10
562.8878823231
 20
388.5753418935
  0
LINE
  5
129
330
1F
100
AcDbEntity
  8
0
  6
HIDDEN
 62
     7
370
    18
100
AcDbLine
 10
471.6711075501
 20
412.6591157921
 30
0.0
 11
518.3401551084
 21
349.789852379
 31
0.0
  0
LINE
  5
12A
330
1F
100
AcDbEntity
  8
0
  6
HIDDEN
 62
     7
370
    18
100
AcDbLine
 10
518.3401551084
 20
349.789852379
 30
0.0
 11
511.9761940777
 21
346.1160158758
 31
0.0
  0
LINE
  5
12B
330
1F
100
AcDbEntity
  8
0
  6
HIDDEN
 62
     7
370
    18
100
AcDbLine
 10
471.6711075501
 20
412.6591157921
 30
0.0
 11
465.3071465194
 21
408.9852792889
 31
0.0
  0
LINE
  5
12C
330
1F
100
AcDbEntity
  8
0
  6
HIDDEN
 62
     7
370
    18
100
AcDbLine
 10
471.6711075501
 20
428.9899320298
 30
0.0
 11
471.6711075501
 21
412.6591157921
 31
0.0
  0
LINE
  5
12D
330
1F
100
AcDbEntity
  8
0
  6
HIDDEN
 62
     7
370
    18
100
AcDbLine
 10
465.3071465194
 20
425.3160955266
 30
0.0
 11
447.2759235991
 21
414.9068921009
 31
0.0
  0
LINE
  5
12E
330
1F
100
AcDbEntity
  8
0
  6
HIDDEN
 62
     7
370
    18
100
AcDbLine
 10
489.7023304703
 20
439.3991354556
 30
0.0
 11
471.6711075501
 21
428.9899320298
 31
0.0
  0
LWPOLYLINE
  5
12F
330
1F
100
AcDbEntity
  8
0
  6
HIDDEN
 62
     7
370
    18
100
AcDbPolyline
 90
       19
 70
   128
 43
0.0
 10
563.9485424949
 20
375.3064541753
 10
563.9915126584
 20
375.8984236185
 10
564.1191175221
 20
376.5220186645
 10
564.3274798769
 20
377.1582916933
 10
564.610268738
 20
377.7879098709
 10
564.958891709
 20
378.3917425676
 10
565.3627560573
 20
378.9514426324
 10
565.8095905691
 20
379.4500038621
 10
566.2858184038
 20
379.872277726
 10
566.7769696197
 20
380.2054336465
 10
567.2681208355
 20
380.4393488494
 10
567.7443486703
 20
380.5669159397
 10
568.191183182
 20
380.584258856
 10
568.5950475304
 20
380.4908506425
 10
568.9436705013
 20
380.2895294604
 10
569.2264593625
 20
379.9864123521
 10
569.4348217172
 20
379.5907093774
 10
569.562426581
 20
379.1144437711
 10
569.6053967444
 20
378.5720866226
  0
LWPOLYLINE
  5
130
330
1F
100
AcDbEntity
  8
0
  6
HIDDEN
 62
     7
370
    18
100
AcDbPolyline
 90
       19
 70
   128
 43
0.0
 10
569.6053967444
 20
378.5720866226
 10
569.562426581
 20
377.9801171793
 10
569.4348217172
 20
377.3565221333
 10
569.2264593625
 20
376.7202491045
 10
568.9436705013
 20
376.0906309269
 10
568.5950475304
 20
375.4867982303
 10
568.191183182
 20
374.9270981655
 10
567.7443486703
 20
374.4285369357
 10
567.2681208355
 20
374.0062630718
 10
566.7769696197
 20
373.6731071514
 10
566.2858184038
 20
373.4391919484
 10
565.8095905691
 20
373.3116248581
 10
565.3627560573
 20
373.2942819418
 10
564.958891709
 20
373.3876901554
 10
564.610268738
 20
373.5890113374
 10
564.3274798769
 20
373.8921284457
 10
564.1191175221
 20
374.2878314204
 10
563.9915126584
 20
374.7640970267
 10
563.9485424949
 20
375.3064541753
  0
LINE
  5
131
330
1F
100
AcDbEntity
  8
0
  6
HIDDEN
 62
     7
370
    18
100
AcDbLine
 10
492.8843109857
 20
413.0699738493
 30
0.0
 11
492.8843109857
 21
416.7438103525
 31
0.0
  0
LINE
  5
132
330
1F
100
AcDbEntity
  8
0
  6
HIDDEN
 62
     7
370
    18
100
AcDbLine
 10
492.8843109857
 20
416.7438103525
 30
0.0
 11
486.520349955
 21
413.0699738493
 31
0.0
  0
LWPOLYLINE
  5
133
330
1F
100
AcDbEntity
  8
0
  6
HIDDEN
 62
     7
370
    18
100
AcDbPolyline
 90
       16
 70
   128
 43
0.0
 10
537.0784848098
 20
422.6629018632
 10
537.5658880484
 20
422.4350513909
 10
538.1247013048
 20
422.2706805056
 10
538.7305017583
 20
422.1769730038
 10
539.3568130221
 20
422.158024353
 10
539.9762622887
 20
422.2146627001
 10
540.5617766526
 20
422.3444126776
 10
541.0877663265
 20
422.5416035888
 10
541.5312430378
 20
422.7976172448
 10
541.872824726
 20
423.1012646203
 10
542.0975826323
 20
423.4392748678
 10
542.1956937577
 20
423.7968753177
 10
542.1628701752
 20
424.1584371142
 10
542.0005464329
 20
424.508158272
 10
541.7158168572
 20
424.8307542983
 10
541.321125497
 20
425.1121261987
  0
LWPOLYLINE
  5
134
330
1F
100
AcDbEntity
  8
0
  6
HIDDEN
 62
     7
370
    18
100
AcDbPolyline
 90
       16
 70
   128
 43
0.0
 10
473.438874503
 20
422.6629018632
 10
473.9262777416
 20
422.4350513909
 10
474.485090998
 20
422.2706805056
 10
475.0908914515
 20
422.1769730038
 10
475.7172027153
 20
422.158024353
 10
476.3366519819
 20
422.2146627001
 10
476.9221663458
 20
422.3444126776
 10
477.4481560198
 20
422.5416035888
 10
477.891632731
 20
422.7976172448
 10
478.2332144192
 20
423.1012646203
 10
478.4579723255
 20
423.4392748678
 10
478.5560834509
 20
423.7968753177
 10
478.5232598684
 20
424.1584371142
 10
478.3609361261
 20
424.508158272
 10
478.0762065504
 20
424.8307542983
 10
477.6815151902
 20
425.1121261987
  0
LWPOLYLINE
  5
135
330
1F
100
AcDbEntity
  8
0
  6
HIDDEN
 62
     7
370
    18
100
AcDbPolyline
 90
       22
 70
   128
 43
0.0
 10
562.8878823231
 20
360.8129542893
 10
562.931320215
 20
361.5073754622
 10
563.0606635598
 20
362.2364367359
 10
563.2730230409
 20
362.9838520865
 10
563.5636548986
 20
363.7329254899
 10
563.9260668972
 20
364.4669238842
 10
564.3521633517
 20
365.1694509582
 10
564.8324259714
 20
365.8248134179
 10
565.3561264829
 20
366.4183715488
 10
565.9115662822
 20
366.9368662433
 10
566.486337762
 20
367.3687151866
 10
567.0676014773
 20
367.7042715869
 10
567.6423729571
 20
367.9360396688
 10
568.1978127564
 20
368.0588421162
 10
568.7215132679
 20
368.0699357254
 10
569.2017758876
 20
367.9690726835
 10
569.6278723421
 20
367.7585061042
 10
569.9902843408
 20
367.442939697
 10
570.2809161984
 20
367.0294226939
 10
570.4932756796
 20
366.5271923814
 10
570.6226190244
 20
365.9474677548
 10
570.6660569162
 20
365.3031989044
  0
LWPOLYLINE
  5
136
330
1F
100
AcDbEntity
  8
0
  6
HIDDEN
 62
     7
370
    18
100
AcDbPolyline
 90
       16
 70
   128
 43
0.0
 10
541.321125497
 20
425.1121261987
 10
540.8337222584
 20
425.3399766711
 10
540.274909002
 20
425.5043475564
 10
539.6691085485
 20
425.5980550582
 10
539.0427972847
 20
425.617003709
 10
538.4233480181
 20
425.5603653619
 10
537.8378336542
 20
425.4306153844
 10
537.3118439802
 20
425.2334244731
 10
536.868367269
 20
424.9774108171
 10
536.5267855808
 20
424.6737634417
 10
536.3020276745
 20
424.3357531942
 10
536.2039165491
 20
423.9781527443
 10
536.2367401316
 20
423.6165909477
 10
536.3990638739
 20
423.26686979
 10
536.6837934496
 20
422.9442737637
 10
537.0784848098
 20
422.6629018632
  0
LWPOLYLINE
  5
137
330
1F
100
AcDbEntity
  8
0
  6
HIDDEN
 62
     7
370
    18
100
AcDbPolyline
 90
       16
 70
   128
 43
0.0
 10
477.6815151902
 20
425.1121261987
 10
477.1941119517
 20
425.3399766711
 10
476.6352986952
 20
425.5043475564
 10
476.0294982417
 20
425.5980550582
 10
475.4031869779
 20
425.617003709
 10
474.7837377113
 20
425.5603653619
 10
474.1982233474
 20
425.4306153844
 10
473.6722336735
 20
425.2334244731
 10
473.2287569622
 20
424.9774108171
 10
472.887175274
 20
424.6737634417
 10
472.6624173677
 20
424.3357531942
 10
472.5643062423
 20
423.9781527443
 10
472.5971298248
 20
423.6165909477
 10
472.7594535671
 20
423.26686979
 10
473.0441831428
 20
422.9442737637
 10
473.438874503
 20
422.6629018632
  0
LWPOLYLINE
  5
138
330
1F
100
AcDbEntity
  8
0
  6
HIDDEN
 62
     7
370
    18
100
AcDbPolyline
 90
       22
 70
   128
 43
0.0
 10
570.6660569162
 20
365.3031989044
 10
570.6226190244
 20
364.6087777315
 10
570.4932756796
 20
363.8797164578
 10
570.2809161984
 20
363.1323011072
 10
569.9902843408
 20
362.3832277038
 10
569.6278723421
 20
361.6492293095
 10
569.2017758876
 20
360.9467022355
 10
568.7215132679
 20
360.2913397758
 10
568.1978127564
 20
359.6977816449
 10
567.6423729571
 20
359.1792869504
 10
567.0676014773
 20
358.7474380071
 10
566.486337762
 20
358.4118816068
 10
565.9115662822
 20
358.180113525
 10
565.3561264829
 20
358.0573110776
 10
564.8324259714
 20
358.0462174683
 10
564.3521633517
 20
358.1470805102
 10
563.9260668972
 20
358.3576470895
 10
563.5636548986
 20
358.6732134967
 10
563.2730230409
 20
359.0867304998
 10
563.0606635598
 20
359.5889608123
 10
562.931320215
 20
360.1686854389
 10
562.8878823231
 20
360.8129542893
  0
LINE
  5
139
330
1F
100
AcDbEntity
  8
0
  6
HIDDEN
 62
     7
370
    18
100
AcDbLine
 10
489.7023304703
 20
450.0141660101
 30
0.0
 11
489.7023304703
 21
439.3991354556
 31
0.0
  0
LINE
  5
13A
330
1F
100
AcDbEntity
  8
0
  6
HIDDEN
 62
     7
370
    18
100
AcDbLine
 10
525.0576695297
 20
439.3991354556
 30
0.0
 11
525.0576695297
 21
450.0141660101
 31
0.0
  0
LINE
  5
13B
330
1F
100
AcDbEntity
  8
0
  6
HIDDEN
 62
     7
370
    18
100
AcDbLine
 10
489.7023304703
 20
439.3991354556
 30
0.0
 11
525.0576695297
 21
439.3991354556
 31
0.0
  0
LINE
  5
13C
330
1F
100
AcDbEntity
  8
0
  6
HIDDEN
 62
     7
370
    18
100
AcDbLine
 10
518.615057889
 20
354.7633273529
 30
0.0
 11
508.7155629524
 21
360.4781841357
 31
0.0
  0
LINE
  5
13D
330
1F
100
AcDbEntity
  8
0
  6
HIDDEN
 62
     7
370
    18
100
AcDbLine
 10
503.2160099229
 20
350.9516466495
 30
0.0
 11
513.1155048595
 21
345.2367898667
 31
0.0
  0
LINE
  5
13E
330
1F
100
AcDbEntity
  8
0
  6
HIDDEN
 62
     7
370
    18
100
AcDbLine
 10
517.8651188395
 20
339.5830602573
 30
0.0
 11
507.9656239029
 21
345.2979170401
 31
0.0
  0
LINE
  5
13F
330
1F
100
AcDbEntity
  8
0
  6
HIDDEN
 62
     7
370
    18
100
AcDbLine
 10
503.9659489724
 20
338.369526141
 30
0.0
 11
513.865443909
 21
332.6546693583
 31
0.0
  0
LINE
  5
140
330
1F
100
AcDbEntity
  8
0
  6
HIDDEN
 62
     7
370
    18
100
AcDbLine
 10
542.1998051534
 20
387.149148999
 30
0.0
 11
542.1998051534
 21
396.9476387416
 31
0.0
  0
LINE
  5
141
330
1F
100
AcDbEntity
  8
0
  6
HIDDEN
 62
     7
370
    18
100
AcDbLine
 10
478.5601948466
 20
387.149148999
 30
0.0
 11
478.5601948466
 21
396.9476387416
 31
0.0
  0
LINE
  5
142
330
1F
100
AcDbEntity
  8
0
  6
HIDDEN
 62
     7
370
    18
100
AcDbLine
 10
536.1998051534
 20
396.9476387416
 30
0.0
 11
536.1998051534
 21
387.149148999
 31
0.0
  0
LINE
  5
143
330
1F
100
AcDbEntity
  8
0
  6
HIDDEN
 62
     7
370
    18
100
AcDbLine
 10
472.5601948466
 20
396.9476387416
 30
0.0
 11
472.5601948466
 21
387.149148999
 31
0.0
  0
LINE
  5
144
330
1F
100
AcDbEntity
  8
0
  6
HIDDEN
 62
     7
370
    18
100
AcDbLine
 10
530.88
 20
407.9679539506
 30
0.0
 11
530.88
 21
415.3168212576
 31
0.0
  0
LINE
  5
145
330
1F
100
AcDbEntity
  8
0
  6
HIDDEN
 62
     7
370
    18
100
AcDbLine
 10
518.615057889
 20
327.0009397488
 30
0.0
 11
508.7155629524
 21
332.7157965316
 31
0.0
  0
LINE
  5
146
330
1F
100
AcDbEntity
  8
0
  6
HIDDEN
 62
     7
370
    18
100
AcDbLine
 10
503.2160099229
 20
323.1892590454
 30
0.0
 11
513.1155048595
 21
317.4744022626
 31
0.0
  0
LINE
  5
147
330
1F
100
AcDbEntity
  8
0
  6
HIDDEN
 62
     7
370
    18
100
AcDbLine
 10
527.88
 20
404.7017907031
 30
0.0
 11
527.88
 21
407.9679539506
 31
0.0
  0
LINE
  5
148
330
1F
100
AcDbEntity
  8
0
  6
HIDDEN
 62
     7
370
    18
100
AcDbLine
 10
483.88
 20
415.3168212576
 30
0.0
 11
483.88
 21
407.9679539506
 31
0.0
  0
LINE
  5
149
330
1F
100
AcDbEntity
  8
0
  6
HIDDEN
 62
     7
370
    18
100
AcDbLine
 10
486.88
 20
407.9679539506
 30
0.0
 11
486.88
 21
404.7017907031
 31
0.0
  0
LINE
  5
14A
330
1F
100
AcDbEntity
  8
0
  6
HIDDEN
 62
     7
370
    18
100
AcDbLine
 10
579.426241071
 20
389.8688761613
 30
0.0
 11
569.5267461344
 21
395.5837329441
 31
0.0
  0
LINE
  5
14B
330
1F
100
AcDbEntity
  8
0
  6
HIDDEN
 62
     7
370
    18
100
AcDbLine
 10
564.0271931049
 20
386.0571954579
 30
0.0
 11
573.9266880415
 21
380.3423386751
 31
0.0
  0
LINE
  5
14C
330
1F
100
AcDbEntity
  8
0
  6
HIDDEN
 62
     7
370
    18
100
AcDbLine
 10
578.6763020216
 20
374.6886090657
 30
0.0
 11
568.7768070849
 21
380.4034658484
 31
0.0
  0
LINE
  5
14D
330
1F
100
AcDbEntity
  8
0
  6
HIDDEN
 62
     7
370
    18
100
AcDbLine
 10
564.7771321544
 20
373.4750749494
 30
0.0
 11
574.676627091
 21
367.7602181666
 31
0.0
  0
LINE
  5
14E
330
1F
100
AcDbEntity
  8
0
  6
HIDDEN
 62
     7
370
    18
100
AcDbLine
 10
542.1998051534
 20
423.887514031
 30
0.0
 11
542.1998051534
 21
433.6860037736
 31
0.0
  0
LINE
  5
14F
330
1F
100
AcDbEntity
  8
0
  6
HIDDEN
 62
     7
370
    18
100
AcDbLine
 10
478.5601948466
 20
423.887514031
 30
0.0
 11
478.5601948466
 21
433.6860037736
 31
0.0
  0
LINE
  5
150
330
1F
100
AcDbEntity
  8
0
  6
HIDDEN
 62
     7
370
    18
100
AcDbLine
 10
579.426241071
 20
362.1064885572
 30
0.0
 11
569.5267461344
 21
367.8213453399
 31
0.0
  0
LINE
  5
151
330
1F
100
AcDbEntity
  8
0
  6
HIDDEN
 62
     7
370
    18
100
AcDbLine
 10
536.1998051534
 20
433.6860037736
 30
0.0
 11
536.1998051534
 21
423.887514031
 31
0.0
  0
LINE
  5
152
330
1F
100
AcDbEntity
  8
0
  6
HIDDEN
 62
     7
370
    18
100
AcDbLine
 10
472.5601948466
 20
433.6860037736
 30
0.0
 11
472.5601948466
 21
423.887514031
 31
0.0
  0
LINE
  5
153
330
1F
100
AcDbEntity
  8
0
  6
HIDDEN
 62
     7
370
    18
100
AcDbLine
 10
564.0271931049
 20
358.2948078538
 30
0.0
 11
573.9266880415
 21
352.579951071
 31
0.0
  0
ENDSEC
  0
SECTION
  2
OBJECTS
  0
DICTIONARY
  5
C
330
0
100
AcDbDictionary
281
     1
  3
ACAD_GROUP
350
D
  3
ACAD_LAYOUT
350
1A
  3
ACAD_MLINESTYLE
350
17
  3
ACAD_PLOTSETTINGS
350
19
  3
ACAD_PLOTSTYLENAME
350
E
  3
ACAD_SCALELIST
350
47
  3
DWGPROPS
350
154
  0
DICTIONARY
  5
D
102
{ACAD_REACTORS
330
C
102
}
330
C
100
AcDbDictionary
281
     1
  0
DICTIONARY
  5
1A
102
{ACAD_REACTORS
330
C
102
}
330
C
100
AcDbDictionary
281
     1
  3
Layout1
350
1E
  3
Layout2
350
26
  3
Model
350
22
  0
DICTIONARY
  5
17
102
{ACAD_REACTORS
330
C
102
}
330
C
100
AcDbDictionary
281
     1
  3
Standard
350
18
  0
DICTIONARY
  5
19
102
{ACAD_REACTORS
330
C
102
}
330
C
100
AcDbDictionary
281
     1
  0
ACDBDICTIONARYWDFLT
  5
E
102
{ACAD_REACTORS
330
C
102
}
330
C
100
AcDbDictionary
281
     1
  3
Normal
350
F
100
AcDbDictionaryWithDefault
340
F
  0
DICTIONARY
  5
47
102
{ACAD_REACTORS
330
C
102
}
330
C
100
AcDbDictionary
281
     1
  3
A0
350
48
  3
A1
350
49
  3
A2
350
4A
  3
A3
350
4B
  3
A4
350
4C
  3
A5
350
4D
  3
A6
350
4E
  3
A7
350
4F
  3
A8
350
50
  3
A9
350
51
  3
B0
350
52
  3
B1
350
53
  3
B2
350
54
  3
B3
350
55
  3
B4
350
56
  3
B5
350
57
  3
B6
350
58
  0
XRECORD
  5
154
102
{ACAD_REACTORS
330
C
102
}
330
C
100
AcDbXrecord
280
     1
  1
DWGPROPS COOKIE
  2

  3

  4

  6

  7

  8
imaizumi
  9

300
=
301
=
302
=
303
=
304
=
305
=
306
=
307
=
308
=
309
=
 40
0.0
 41
2461263.066235278
 42
2461263.066235787
  1

 90
        0
  0
LAYOUT
  5
1E
102
{ACAD_REACTORS
330
1A
102
}
330
1A
100
AcDbPlotSettings
  1

  2
none_device
  4

  6

 40
0.0
 41
0.0
 42
0.0
 43
0.0
 44
0.0
 45
0.0
 46
0.0
 47
0.0
 48
0.0
 49
0.0
140
0.0
141
0.0
142
1.0
143
1.0
 70
   688
 72
     1
 73
     0
 74
     5
  7

 75
    16
147
1.0
148
0.0
149
0.0
100
AcDbLayout
  1
Layout1
 70
     1
 71
     1
 10
0.0
 20
0.0
 11
420.0
 21
297.0
 12
0.0
 22
0.0
 32
0.0
 14
1.0000000000E+20
 24
1.0000000000E+20
 34
1.0000000000E+20
 15
-1.0000000000E+20
 25
-1.0000000000E+20
 35
-1.0000000000E+20
146
0.0
 13
0.0
 23
0.0
 33
0.0
 16
1.0
 26
0.0
 36
0.0
 17
0.0
 27
1.0
 37
0.0
 76
     0
330
1B
  0
LAYOUT
  5
26
102
{ACAD_REACTORS
330
1A
102
}
330
1A
100
AcDbPlotSettings
  1

  2
none_device
  4

  6

 40
0.0
 41
0.0
 42
0.0
 43
0.0
 44
0.0
 45
0.0
 46
0.0
 47
0.0
 48
0.0
 49
0.0
140
0.0
141
0.0
142
1.0
143
1.0
 70
   688
 72
     1
 73
     0
 74
     5
  7

 75
    16
147
1.0
148
0.0
149
0.0
100
AcDbLayout
  1
Layout2
 70
     1
 71
     2
 10
0.0
 20
0.0
 11
0.0
 21
0.0
 12
0.0
 22
0.0
 32
0.0
 14
0.0
 24
0.0
 34
0.0
 15
0.0
 25
0.0
 35
0.0
146
0.0
 13
0.0
 23
0.0
 33
0.0
 16
1.0
 26
0.0
 36
0.0
 17
0.0
 27
1.0
 37
0.0
 76
     0
330
23
  0
LAYOUT
  5
22
102
{ACAD_REACTORS
330
1A
102
}
330
1A
100
AcDbPlotSettings
  1

  2
none_device
  4
Letter_(8.50_x_11.00_Inches)
  6

 40
6.35
 41
6.35
 42
6.35000508
 43
6.35000508
 44
215.9
 45
279.4
 46
0.0
 47
0.0
 48
0.0
 49
0.0
140
0.0
141
0.0
142
1.0
143
1.0
 70
  1712
 72
     1
 73
     0
 74
     0
  7

 75
     0
147
1.0
148
0.0
149
0.0
100
AcDbLayout
  1
Model
 70
     1
 71
     0
 10
0.0
 20
0.0
 11
841.0
 21
594.0
 12
0.0
 22
0.0
 32
0.0
 14
0.0
 24
0.0
 34
0.0
 15
841.0
 25
594.0
 35
0.0
146
0.0
 13
0.0
 23
0.0
 33
0.0
 16
1.0
 26
0.0
 36
0.0
 17
0.0
 27
1.0
 37
0.0
 76
     0
330
1F
331
29
  0
MLINESTYLE
  5
18
102
{ACAD_REACTORS
330
17
102
}
330
17
100
AcDbMlineStyle
  2
Standard
 70
     0
  3

 62
   256
 51
90.0
 52
90.0
 71
     2
 49
0.5
 62
   256
  6
BYLAYER
 49
-0.5
 62
   256
  6
BYLAYER
  0
ACDBPLACEHOLDER
  5
F
102
{ACAD_REACTORS
330
E
102
}
330
E
  0
SCALE
  5
48
102
{ACAD_REACTORS
330
47
102
}
330
47
100
AcDbScale
 70
     0
300
1:1
140
1.0
141
1.0
290
     1
  0
SCALE
  5
49
102
{ACAD_REACTORS
330
47
102
}
330
47
100
AcDbScale
 70
     0
300
1:2
140
1.0
141
2.0
290
     0
  0
SCALE
  5
4A
102
{ACAD_REACTORS
330
47
102
}
330
47
100
AcDbScale
 70
     0
300
1:4
140
1.0
141
4.0
290
     0
  0
SCALE
  5
4B
102
{ACAD_REACTORS
330
47
102
}
330
47
100
AcDbScale
 70
     0
300
1:5
140
1.0
141
5.0
290
     0
  0
SCALE
  5
4C
102
{ACAD_REACTORS
330
47
102
}
330
47
100
AcDbScale
 70
     0
300
1:8
140
1.0
141
8.0
290
     0
  0
SCALE
  5
4D
102
{ACAD_REACTORS
330
47
102
}
330
47
100
AcDbScale
 70
     0
300
1:10
140
1.0
141
10.0
290
     0
  0
SCALE
  5
4E
102
{ACAD_REACTORS
330
47
102
}
330
47
100
AcDbScale
 70
     0
300
1:16
140
1.0
141
16.0
290
     0
  0
SCALE
  5
4F
102
{ACAD_REACTORS
330
47
102
}
330
47
100
AcDbScale
 70
     0
300
1:20
140
1.0
141
20.0
290
     0
  0
SCALE
  5
50
102
{ACAD_REACTORS
330
47
102
}
330
47
100
AcDbScale
 70
     0
300
1:30
140
1.0
141
30.0
290
     0
  0
SCALE
  5
51
102
{ACAD_REACTORS
330
47
102
}
330
47
100
AcDbScale
 70
     0
300
1:40
140
1.0
141
40.0
290
     0
  0
SCALE
  5
52
102
{ACAD_REACTORS
330
47
102
}
330
47
100
AcDbScale
 70
     0
300
1:50
140
1.0
141
50.0
290
     0
  0
SCALE
  5
53
102
{ACAD_REACTORS
330
47
102
}
330
47
100
AcDbScale
 70
     0
300
1:100
140
1.0
141
100.0
290
     0
  0
SCALE
  5
54
102
{ACAD_REACTORS
330
47
102
}
330
47
100
AcDbScale
 70
     0
300
2:1
140
2.0
141
1.0
290
     0
  0
SCALE
  5
55
102
{ACAD_REACTORS
330
47
102
}
330
47
100
AcDbScale
 70
     0
300
4:1
140
4.0
141
1.0
290
     0
  0
SCALE
  5
56
102
{ACAD_REACTORS
330
47
102
}
330
47
100
AcDbScale
 70
     0
300
8:1
140
8.0
141
1.0
290
     0
  0
SCALE
  5
57
102
{ACAD_REACTORS
330
47
102
}
330
47
100
AcDbScale
 70
     0
300
10:1
140
10.0
141
1.0
290
     0
  0
SCALE
  5
58
102
{ACAD_REACTORS
330
47
102
}
330
47
100
AcDbScale
 70
     0
300
100:1
140
100.0
141
1.0
290
     0
  0
ENDSEC
  0
EOF
