  0
SECTION
  2
HEADER
  9
$ACADVER
  1
AC1015
  9
$ACADMAINTVER
 70
     6
  9
$DWGCODEPAGE
  3
DOS932
  9
$INSBASE
 10
0.0
 20
0.0
 30
0.0
  9
$EXTMIN
 10
0.0
 20
0.0
 30
0.0
  9
$EXTMAX
 10
841.0
 20
594.0
 30
0.0
  9
$LIMMIN
 10
0.0
 20
0.0
  9
$LIMMAX
 10
841.0
 20
594.0
  9
$ORTHOMODE
 70
     0
  9
$REGENMODE
 70
     1
  9
$FILLMODE
 70
     1
  9
$QTEXTMODE
 70
     0
  9
$MIRRTEXT
 70
     1
  9
$LTSCALE
 40
1.0
  9
$ATTMODE
 70
     1
  9
$TEXTSIZE
 40
3.5
  9
$TRACEWID
 40
1.0
  9
$TEXTSTYLE
  7
Standard
  9
$CLAYER
  8
0
  9
$CELTYPE
  6
ByLayer
  9
$CECOLOR
 62
   256
  9
$CELTSCALE
 40
1.0
  9
$DISPSILH
 70
     0
  9
$DIMSCALE
 40
1.0
  9
$DIMASZ
 40
3.302
  9
$DIMEXO
 40
1.0
  9
$DIMDLI
 40
3.75
  9
$DIMRND
 40
0.0
  9
$DIMDLE
 40
0.0
  9
$DIMEXE
 40
1.0
  9
$DIMTP
 40
0.0
  9
$DIMTM
 40
0.0
  9
$DIMTXT
 40
3.5
  9
$DIMCEN
 40
2.5
  9
$DIMTSZ
 40
0.0
  9
$DIMTOL
 70
     0
  9
$DIMLIM
 70
     0
  9
$DIMTIH
 70
     1
  9
$DIMTOH
 70
     1
  9
$DIMSE1
 70
     0
  9
$DIMSE2
 70
     0
  9
$DIMTAD
 70
     1
  9
$DIMZIN
 70
     1
  9
$DIMBLK
  1

  9
$DIMASO
 70
     1
  9
$DIMSHO
 70
     1
  9
$DIMPOST
  1

  9
$DIMAPOST
  1

  9
$DIMALT
 70
     0
  9
$DIMALTD
 70
     3
  9
$DIMALTF
 40
0.0393700787
  9
$DIMLFAC
 40
0.5
  9
$DIMTOFL
 70
     1
  9
$DIMTVP
 40
0.0
  9
$DIMTIX
 70
     0
  9
$DIMSOXD
 70
     0
  9
$DIMSAH
 70
     0
  9
$DIMBLK1
  1

  9
$DIMBLK2
  1

  9
$DIMSTYLE
  2
ISO-25
  9
$DIMCLRD
 70
     0
  9
$DIMCLRE
 70
     0
  9
$DIMCLRT
 70
     0
  9
$DIMTFAC
 40
1.0
  9
$DIMGAP
 40
1.524
  9
$DIMJUST
 70
     0
  9
$DIMSD1
 70
     0
  9
$DIMSD2
 70
     0
  9
$DIMTOLJ
 70
     0
  9
$DIMTZIN
 70
     1
  9
$DIMALTZ
 70
     0
  9
$DIMALTTZ
 70
     0
  9
$DIMUPT
 70
     0
  9
$DIMDEC
 70
     2
  9
$DIMTDEC
 70
     2
  9
$DIMALTU
 70
     2
  9
$DIMALTTD
 70
     3
  9
$DIMTXSTY
  7
Standard
  9
$DIMAUNIT
 70
     0
  9
$DIMADEC
 70
     2
  9
$DIMALTRND
 40
0.0
  9
$DIMAZIN
 70
     0
  9
$DIMDSEP
 70
    44
  9
$DIMATFIT
 70
     3
  9
$DIMFRAC
 70
     0
  9
$DIMLDRBLK
  1

  9
$DIMLUNIT
 70
     2
  9
$DIMLWD
 70
    -2
  9
$DIMLWE
 70
    -2
  9
$DIMTMOVE
 70
     0
  9
$LUNITS
 70
     2
  9
$LUPREC
 70
     2
  9
$SKETCHINC
 40
1.0
  9
$FILLETRAD
 40
0.0
  9
$AUNITS
 70
     0
  9
$AUPREC
 70
     2
  9
$MENU
  1
.
  9
$ELEVATION
 40
0.0
  9
$PELEVATION
 40
0.0
  9
$THICKNESS
 40
0.0
  9
$LIMCHECK
 70
     0
  9
$CHAMFERA
 40
0.0
  9
$CHAMFERB
 40
0.0
  9
$CHAMFERC
 40
0.0
  9
$CHAMFERD
 40
0.0
  9
$SKPOLY
 70
     0
  9
$TDCREATE
 40
2461263.426290405
  9
$TDUCREATE
 40
2461263.051290405
  9
$TDUPDATE
 40
2461263.426290741
  9
$TDUUPDATE
 40
2461263.051290741
  9
$TDINDWG
 40
0.0000000116
  9
$TDUSRTIMER
 40
0.0000000116
  9
$USRTIMER
 70
     1
  9
$ANGBASE
 50
0.0
  9
$ANGDIR
 70
     0
  9
$PDMODE
 70
     0
  9
$PDSIZE
 40
-1.0
  9
$PLINEWID
 40
0.0
  9
$SPLFRAME
 70
     0
  9
$SPLINETYPE
 70
     6
  9
$SPLINESEGS
 70
     8
  9
$HANDSEED
  5
A8
  9
$SURFTAB1
 70
     6
  9
$SURFTAB2
 70
     6
  9
$SURFTYPE
 70
     6
  9
$SURFU
 70
     6
  9
$SURFV
 70
     6
  9
$UCSBASE
  2

  9
$UCSNAME
  2

  9
$UCSORG
 10
0.0
 20
0.0
 30
0.0
  9
$UCSXDIR
 10
1.0
 20
0.0
 30
0.0
  9
$UCSYDIR
 10
0.0
 20
1.0
 30
0.0
  9
$UCSORTHOREF
  2

  9
$UCSORTHOVIEW
 70
     0
  9
$UCSORGTOP
 10
0.0
 20
0.0
 30
0.0
  9
$UCSORGBOTTOM
 10
0.0
 20
0.0
 30
0.0
  9
$UCSORGLEFT
 10
0.0
 20
0.0
 30
0.0
  9
$UCSORGRIGHT
 10
0.0
 20
0.0
 30
0.0
  9
$UCSORGFRONT
 10
0.0
 20
0.0
 30
0.0
  9
$UCSORGBACK
 10
0.0
 20
0.0
 30
0.0
  9
$PUCSBASE
  2

  9
$PUCSNAME
  2

  9
$PUCSORG
 10
0.0
 20
0.0
 30
0.0
  9
$PUCSXDIR
 10
1.0
 20
0.0
 30
0.0
  9
$PUCSYDIR
 10
0.0
 20
1.0
 30
0.0
  9
$PUCSORTHOREF
  2

  9
$PUCSORTHOVIEW
 70
     0
  9
$PUCSORGTOP
 10
0.0
 20
0.0
 30
0.0
  9
$PUCSORGBOTTOM
 10
0.0
 20
0.0
 30
0.0
  9
$PUCSORGLEFT
 10
0.0
 20
0.0
 30
0.0
  9
$PUCSORGRIGHT
 10
0.0
 20
0.0
 30
0.0
  9
$PUCSORGFRONT
 10
0.0
 20
0.0
 30
0.0
  9
$PUCSORGBACK
 10
0.0
 20
0.0
 30
0.0
  9
$USERI1
 70
     0
  9
$USERI2
 70
     0
  9
$USERI3
 70
     0
  9
$USERI4
 70
     0
  9
$USERI5
 70
     0
  9
$USERR1
 40
0.0
  9
$USERR2
 40
0.0
  9
$USERR3
 40
0.0
  9
$USERR4
 40
0.0
  9
$USERR5
 40
0.0
  9
$WORLDVIEW
 70
     1
  9
$SHADEDGE
 70
     3
  9
$SHADEDIF
 70
    70
  9
$TILEMODE
 70
     1
  9
$MAXACTVP
 70
    64
  9
$PINSBASE
 10
0.0
 20
0.0
 30
0.0
  9
$PLIMCHECK
 70
     0
  9
$PEXTMIN
 10
1.0000000000E+20
 20
1.0000000000E+20
 30
1.0000000000E+20
  9
$PEXTMAX
 10
-1.0000000000E+20
 20
-1.0000000000E+20
 30
-1.0000000000E+20
  9
$PLIMMIN
 10
0.0
 20
0.0
  9
$PLIMMAX
 10
420.0
 20
297.0
  9
$UNITMODE
 70
     0
  9
$VISRETAIN
 70
     1
  9
$PLINEGEN
 70
     0
  9
$PSLTSCALE
 70
     1
  9
$TREEDEPTH
 70
  3020
  9
$CMLSTYLE
  2
Standard
  9
$CMLJUST
 70
     0
  9
$CMLSCALE
 40
20.0
  9
$PROXYGRAPHICS
 70
     1
  9
$MEASUREMENT
 70
     1
  9
$CELWEIGHT
370
    -1
  9
$ENDCAPS
280
     0
  9
$JOINSTYLE
280
     0
  9
$LWDISPLAY
290
     1
  9
$INSUNITS
 70
     4
  9
$HYPERLINKBASE
  1

  9
$STYLESHEET
  1

  9
$XEDIT
290
     1
  9
$CEPSNTYPE
380
     0
  9
$PSTYLEMODE
290
     1
  9
$FINGERPRINTGUID
  2
{8e5e7500-2154-4374-a623-41a4addef204}
  9
$VERSIONGUID
  2
{FAEB1C32-E019-11D5-929B-00C0DF256EC4}
  9
$EXTNAMES
290
     1
  9
$PSVPSCALE
 40
0.0
  9
$OLESTARTUP
290
     0
  0
ENDSEC
  0
SECTION
  2
CLASSES
  0
CLASS
  1
ACDBDICTIONARYWDFLT
  2
AcDbDictionaryWithDefault
  3
ObjectDBX Classes
 90
        0
280
     0
281
     0
  0
CLASS
  1
VISUALSTYLE
  2
AcDbVisualStyle
  3
ObjectDBX Classes
 90
     4095
280
     0
281
     0
  0
CLASS
  1
MATERIAL
  2
AcDbMaterial
  3
ObjectDBX Classes
 90
     1153
280
     0
281
     0
  0
CLASS
  1
SCALE
  2
AcDbScale
  3
ObjectDBX Classes
 90
     1153
280
     0
281
     0
  0
CLASS
  1
TABLESTYLE
  2
AcDbTableStyle
  3
ObjectDBX Classes
 90
     4095
280
     0
281
     0
  0
CLASS
  1
MLEADERSTYLE
  2
AcDbMLeaderStyle
  3
ACDB_MLEADERSTYLE_CLASS
 90
     4095
280
     0
281
     0
  0
CLASS
  1
SUN
  2
AcDbSun
  3
SCENEOE
 90
     1153
280
     0
281
     0
  0
CLASS
  1
ACDBPLACEHOLDER
  2
AcDbPlaceHolder
  3
ObjectDBX Classes
 90
        0
280
     0
281
     0
  0
CLASS
  1
LAYOUT
  2
AcDbLayout
  3
ObjectDBX Classes
 90
        0
280
     0
281
     0
  0
ENDSEC
  0
SECTION
  2
TABLES
  0
TABLE
  2
VPORT
  5
8
330
0
100
AcDbSymbolTable
 70
     1
  0
VPORT
  5
29
330
8
100
AcDbSymbolTableRecord
100
AcDbViewportTableRecord
  2
*Active
 70
     0
 10
0.0
 20
0.0
 11
1.0
 21
1.0
 12
420.5
 22
297.0
 13
0.0
 23
0.0
 14
10.0
 24
10.0
 15
10.0
 25
10.0
 16
0.0
 26
0.0
 36
1.0
 17
0.0
 27
0.0
 37
0.0
 40
594.0
 41
1.4158249158
 42
50.0
 43
0.0
 44
0.0
 50
0.0
 51
0.0
 71
     0
 72
  2000
 73
     1
 74
     3
 75
     0
 76
     0
 77
     0
 78
     0
281
     0
 65
     1
110
0.0
120
0.0
130
0.0
111
1.0
121
0.0
131
0.0
112
0.0
122
1.0
132
0.0
 79
     0
146
0.0
  0
ENDTAB
  0
TABLE
  2
LTYPE
  5
5
330
0
100
AcDbSymbolTable
 70
     6
  0
LTYPE
  5
14
330
5
100
AcDbSymbolTableRecord
100
AcDbLinetypeTableRecord
  2
ByBlock
 70
     0
  3

 72
    65
 73
     0
 40
0.0
  0
LTYPE
  5
15
330
5
100
AcDbSymbolTableRecord
100
AcDbLinetypeTableRecord
  2
ByLayer
 70
     0
  3

 72
    65
 73
     0
 40
0.0
  0
LTYPE
  5
16
330
5
100
AcDbSymbolTableRecord
100
AcDbLinetypeTableRecord
  2
Continuous
 70
     0
  3
Solid line
 72
    65
 73
     0
 40
0.0
  0
LTYPE
  5
5E
330
5
100
AcDbSymbolTableRecord
100
AcDbLinetypeTableRecord
  2
HIDDEN
 70
     0
  3
Hidden __ __ __ __ __ __ __ __ __ __ __ __ __ __
 72
    65
 73
     2
 40
1.905
 49
1.27
 74
     0
 49
-0.635
 74
     0
  0
LTYPE
  5
5F
330
5
100
AcDbSymbolTableRecord
100
AcDbLinetypeTableRecord
  2
PHANTOM
 70
     0
  3
Phantom ______  __  __  ______  __  __  ______
 72
    65
 73
     6
 40
12.7
 49
6.35
 74
     0
 49
-1.27
 74
     0
 49
1.27
 74
     0
 49
-1.27
 74
     0
 49
1.27
 74
     0
 49
-1.27
 74
     0
  0
LTYPE
  5
60
330
5
100
AcDbSymbolTableRecord
100
AcDbLinetypeTableRecord
  2
CENTER
 70
     0
  3
Center ____ _ ____ _ ____ _ ____ _ ____ _ ____
 72
    65
 73
     4
 40
10.16
 49
6.35
 74
     0
 49
-1.27
 74
     0
 49
1.27
 74
     0
 49
-1.27
 74
     0
  0
LTYPE
  5
61
330
5
100
AcDbSymbolTableRecord
100
AcDbLinetypeTableRecord
  2
CENTERX2
 70
     0
  3
Center (2x) ________  __  ________  __  _____
 72
    65
 73
     4
 40
20.32
 49
12.7
 74
     0
 49
-2.54
 74
     0
 49
2.54
 74
     0
 49
-2.54
 74
     0
  0
LTYPE
  5
62
330
5
100
AcDbSymbolTableRecord
100
AcDbLinetypeTableRecord
  2
DOT2
 70
     0
  3
Dot (.5x) ........................................
 72
    65
 73
     2
 40
0.635
 49
0.0
 74
     0
 49
-0.635
 74
     0
  0
ENDTAB
  0
TABLE
  2
LAYER
  5
2
330
0
100
AcDbSymbolTable
 70
     1
  0
LAYER
  5
10
330
2
100
AcDbSymbolTableRecord
100
AcDbLayerTableRecord
  2
0
 70
     0
 62
     7
  6
Continuous
370
    -3
390
F
  0
ENDTAB
  0
TABLE
  2
STYLE
  5
3
330
0
100
AcDbSymbolTable
 70
     1
  0
STYLE
  5
11
330
3
100
AcDbSymbolTableRecord
100
AcDbTextStyleTableRecord
  2
Standard
 70
     0
 40
0.0
 41
1.0
 50
0.0
 71
     0
 42
3.5
  3
txt
  4
bigfont
  0
ENDTAB
  0
TABLE
  2
VIEW
  5
6
330
0
100
AcDbSymbolTable
 70
     0
  0
ENDTAB
  0
TABLE
  2
UCS
  5
7
330
0
100
AcDbSymbolTable
 70
     0
  0
ENDTAB
  0
TABLE
  2
APPID
  5
9
330
0
100
AcDbSymbolTable
 70
     1
  0
APPID
  5
12
330
9
100
AcDbSymbolTableRecord
100
AcDbRegAppTableRecord
  2
ACAD
 70
     0
  0
ENDTAB
  0
TABLE
  2
DIMSTYLE
  5
A
330
0
100
AcDbSymbolTable
 70
     1
100
AcDbDimStyleTable
  0
DIMSTYLE
105
27
330
A
100
AcDbSymbolTableRecord
100
AcDbDimStyleTableRecord
  2
ISO-25
 70
     0
 41
2.5
 42
0.625
 43
3.75
 44
1.25
 73
     0
 74
     0
 77
     1
 78
     8
140
2.5
141
2.5
143
0.0393700787
147
0.625
171
     3
172
     1
178
     0
271
     2
272
     2
274
     3
278
    44
283
     0
284
     8
340
11
  0
ENDTAB
  0
TABLE
  2
BLOCK_RECORD
  5
1
330
0
100
AcDbSymbolTable
 70
     1
  0
BLOCK_RECORD
  5
1F
330
1
100
AcDbSymbolTableRecord
100
AcDbBlockTableRecord
  2
*Model_Space
340
22
  0
BLOCK_RECORD
  5
1B
330
1
100
AcDbSymbolTableRecord
100
AcDbBlockTableRecord
  2
*Paper_Space
340
1E
  0
BLOCK_RECORD
  5
23
330
1
100
AcDbSymbolTableRecord
100
AcDbBlockTableRecord
  2
*Paper_Space0
340
26
  0
ENDTAB
  0
ENDSEC
  0
SECTION
  2
BLOCKS
  0
BLOCK
  5
20
330
1F
100
AcDbEntity
  8
0
100
AcDbBlockBegin
  2
*Model_Space
 70
     0
 10
0.0
 20
0.0
 30
0.0
  3
*Model_Space
  1

  0
ENDBLK
  5
21
330
1F
100
AcDbEntity
  8
0
100
AcDbBlockEnd
  0
BLOCK
  5
1C
330
1B
100
AcDbEntity
 67
     1
  8
0
100
AcDbBlockBegin
  2
*Paper_Space
 70
     0
 10
0.0
 20
0.0
 30
0.0
  3
*Paper_Space
  1

  0
ENDBLK
  5
1D
330
1B
100
AcDbEntity
 67
     1
  8
0
100
AcDbBlockEnd
  0
BLOCK
  5
24
330
23
100
AcDbEntity
  8
0
100
AcDbBlockBegin
  2
*Paper_Space0
 70
     0
 10
0.0
 20
0.0
 30
0.0
  3
*Paper_Space0
  1

  0
ENDBLK
  5
25
330
23
100
AcDbEntity
  8
0
100
AcDbBlockEnd
  0
ENDSEC
  0
SECTION
  2
ENTITIES
  0
ARC
  5
63
330
1F
100
AcDbEntity
  8
0
  6
Continuous
 62
     7
370
    25
100
AcDbCircle
 10
304.5471465194
 20
228.583746495
 30
0.0
 40
4.000000000000057
100
AcDbArc
 50
180.0
 51
0.0
  0
ARC
  5
64
330
1F
100
AcDbEntity
  8
0
  6
Continuous
 62
     7
370
    25
100
AcDbCircle
 10
361.5471465194
 20
228.583746495
 30
0.0
 40
5.0
100
AcDbArc
 50
180.0
 51
0.0
  0
ARC
  5
65
330
1F
100
AcDbEntity
  8
0
  6
Continuous
 62
     7
370
    25
100
AcDbCircle
 10
388.5471465194
 20
228.583746495
 30
0.0
 40
4.0
100
AcDbArc
 50
180.0
 51
0.0
  0
ARC
  5
66
330
1F
100
AcDbEntity
  8
0
  6
Continuous
 62
     7
370
    25
100
AcDbCircle
 10
331.5471465194
 20
228.583746495
 30
0.0
 40
5.0
100
AcDbArc
 50
180.0
 51
0.0
  0
LINE
  5
67
330
1F
100
AcDbEntity
  8
0
  6
Continuous
 62
     7
370
    25
100
AcDbLine
 10
398.5471465194
 20
213.583746495
 30
0.0
 11
398.5471465194
 21
243.583746495
 31
0.0
  0
LINE
  5
68
330
1F
100
AcDbEntity
  8
0
  6
Continuous
 62
     7
370
    25
100
AcDbLine
 10
398.5471465194
 20
243.583746495
 30
0.0
 11
294.5471465194
 21
243.583746495
 31
0.0
  0
LINE
  5
69
330
1F
100
AcDbEntity
  8
0
  6
Continuous
 62
     7
370
    25
100
AcDbLine
 10
294.5471465194
 20
243.583746495
 30
0.0
 11
294.5471465194
 21
213.583746495
 31
0.0
  0
LINE
  5
6A
330
1F
100
AcDbEntity
  8
0
  6
Continuous
 62
     7
370
    25
100
AcDbLine
 10
294.5471465194
 20
213.583746495
 30
0.0
 11
398.5471465194
 21
213.583746495
 31
0.0
  0
ARC
  5
6B
330
1F
100
AcDbEntity
  8
0
  6
Continuous
 62
     7
370
    25
100
AcDbCircle
 10
304.5471465194
 20
228.583746495
 30
0.0
 40
4.000000000000057
100
AcDbArc
 50
0.0
 51
180.0
  0
ARC
  5
6C
330
1F
100
AcDbEntity
  8
0
  6
Continuous
 62
     7
370
    25
100
AcDbCircle
 10
331.5471465194
 20
228.583746495
 30
0.0
 40
5.0
100
AcDbArc
 50
0.0
 51
180.0
  0
ARC
  5
6D
330
1F
100
AcDbEntity
  8
0
  6
Continuous
 62
     7
370
    25
100
AcDbCircle
 10
361.5471465194
 20
228.583746495
 30
0.0
 40
5.0
100
AcDbArc
 50
0.0
 51
180.0
  0
ARC
  5
6E
330
1F
100
AcDbEntity
  8
0
  6
Continuous
 62
     7
370
    25
100
AcDbCircle
 10
388.5471465194
 20
228.583746495
 30
0.0
 40
4.0
100
AcDbArc
 50
0.0
 51
180.0
  0
LINE
  5
6F
330
1F
100
AcDbEntity
  8
0
  6
Continuous
 62
     7
370
    25
100
AcDbLine
 10
398.5471465194
 20
336.38
 30
0.0
 11
294.5471465194
 21
336.38
 31
0.0
  0
LINE
  5
70
330
1F
100
AcDbEntity
  8
0
  6
Continuous
 62
     7
370
    25
100
AcDbLine
 10
294.5471465194
 20
336.38
 30
0.0
 11
294.5471465194
 21
351.38
 31
0.0
  0
LINE
  5
71
330
1F
100
AcDbEntity
  8
0
  6
Continuous
 62
     7
370
    25
100
AcDbLine
 10
398.5471465194
 20
351.38
 30
0.0
 11
294.5471465194
 21
351.38
 31
0.0
  0
LINE
  5
72
330
1F
100
AcDbEntity
  8
0
  6
Continuous
 62
     7
370
    25
100
AcDbLine
 10
398.5471465194
 20
336.38
 30
0.0
 11
398.5471465194
 21
351.38
 31
0.0
  0
LINE
  5
73
330
1F
100
AcDbEntity
  8
0
  6
HIDDEN
 62
     7
370
    18
100
AcDbLine
 10
326.5471465194
 20
336.38
 30
0.0
 11
326.5471465194
 21
351.38
 31
0.0
  0
LINE
  5
74
330
1F
100
AcDbEntity
  8
0
  6
HIDDEN
 62
     7
370
    18
100
AcDbLine
 10
336.5471465194
 20
336.38
 30
0.0
 11
336.5471465194
 21
351.38
 31
0.0
  0
LINE
  5
75
330
1F
100
AcDbEntity
  8
0
  6
HIDDEN
 62
     7
370
    18
100
AcDbLine
 10
356.5471465194
 20
336.38
 30
0.0
 11
356.5471465194
 21
351.38
 31
0.0
  0
LINE
  5
76
330
1F
100
AcDbEntity
  8
0
  6
HIDDEN
 62
     7
370
    18
100
AcDbLine
 10
366.5471465194
 20
336.38
 30
0.0
 11
366.5471465194
 21
351.38
 31
0.0
  0
LINE
  5
77
330
1F
100
AcDbEntity
  8
0
  6
HIDDEN
 62
     7
370
    18
100
AcDbLine
 10
384.5471465194
 20
336.38
 30
0.0
 11
384.5471465194
 21
351.38
 31
0.0
  0
LINE
  5
78
330
1F
100
AcDbEntity
  8
0
  6
HIDDEN
 62
     7
370
    18
100
AcDbLine
 10
392.5471465194
 20
336.38
 30
0.0
 11
392.5471465194
 21
351.38
 31
0.0
  0
LINE
  5
79
330
1F
100
AcDbEntity
  8
0
  6
HIDDEN
 62
     7
370
    18
100
AcDbLine
 10
300.5471465194
 20
336.38
 30
0.0
 11
300.5471465194
 21
351.38
 31
0.0
  0
LINE
  5
7A
330
1F
100
AcDbEntity
  8
0
  6
HIDDEN
 62
     7
370
    18
100
AcDbLine
 10
308.5471465194
 20
336.38
 30
0.0
 11
308.5471465194
 21
351.38
 31
0.0
  0
LINE
  5
7B
330
1F
100
AcDbEntity
  8
0
  6
Continuous
 62
     7
370
    25
100
AcDbLine
 10
496.88
 20
213.583746495
 30
0.0
 11
511.88
 21
213.583746495
 31
0.0
  0
LINE
  5
7C
330
1F
100
AcDbEntity
  8
0
  6
Continuous
 62
     7
370
    25
100
AcDbLine
 10
496.88
 20
213.583746495
 30
0.0
 11
496.88
 21
243.583746495
 31
0.0
  0
LINE
  5
7D
330
1F
100
AcDbEntity
  8
0
  6
Continuous
 62
     7
370
    25
100
AcDbLine
 10
496.88
 20
243.583746495
 30
0.0
 11
511.88
 21
243.583746495
 31
0.0
  0
LINE
  5
7E
330
1F
100
AcDbEntity
  8
0
  6
Continuous
 62
     7
370
    25
100
AcDbLine
 10
511.88
 20
213.583746495
 30
0.0
 11
511.88
 21
243.583746495
 31
0.0
  0
LINE
  5
7F
330
1F
100
AcDbEntity
  8
0
  6
HIDDEN
 62
     7
370
    18
100
AcDbLine
 10
511.88
 20
232.583746495
 30
0.0
 11
496.88
 21
232.583746495
 31
0.0
  0
LINE
  5
80
330
1F
100
AcDbEntity
  8
0
  6
HIDDEN
 62
     7
370
    18
100
AcDbLine
 10
496.88
 20
224.583746495
 30
0.0
 11
511.88
 21
224.583746495
 31
0.0
  0
LINE
  5
81
330
1F
100
AcDbEntity
  8
0
  6
HIDDEN
 62
     7
370
    18
100
AcDbLine
 10
496.88
 20
223.583746495
 30
0.0
 11
511.88
 21
223.583746495
 31
0.0
  0
LINE
  5
82
330
1F
100
AcDbEntity
  8
0
  6
HIDDEN
 62
     7
370
    18
100
AcDbLine
 10
511.88
 20
233.583746495
 30
0.0
 11
496.88
 21
233.583746495
 31
0.0
  0
LINE
  5
83
330
1F
100
AcDbEntity
  8
0
  6
Continuous
 62
     7
370
    25
100
AcDbLine
 10
535.8462517628
 20
307.343746495
 30
0.0
 11
546.4528534806
 21
313.4668073337
 31
0.0
  0
LINE
  5
84
330
1F
100
AcDbEntity
  8
0
  6
Continuous
 62
     7
370
    25
100
AcDbLine
 10
535.8462517628
 20
307.343746495
 30
0.0
 11
535.8462517628
 21
331.8399708516
 31
0.0
  0
LINE
  5
85
330
1F
100
AcDbEntity
  8
0
  6
Continuous
 62
     7
370
    25
100
AcDbLine
 10
535.8462517628
 20
331.8399708516
 30
0.0
 11
546.4528534806
 21
337.9630316902
 31
0.0
  0
LINE
  5
86
330
1F
100
AcDbEntity
  8
0
  6
Continuous
 62
     7
370
    25
100
AcDbLine
 10
546.4528534806
 20
313.4668073337
 30
0.0
 11
546.4528534806
 21
337.9630316902
 31
0.0
  0
LINE
  5
87
330
1F
100
AcDbEntity
  8
0
  6
Continuous
 62
     7
370
    25
100
AcDbLine
 10
462.3071465194
 20
349.7969683098
 30
0.0
 11
535.8462517628
 21
307.343746495
 31
0.0
  0
LINE
  5
88
330
1F
100
AcDbEntity
  8
0
  6
Continuous
 62
     7
370
    25
100
AcDbLine
 10
462.3071465194
 20
374.2931926663
 30
0.0
 11
462.3071465194
 21
349.7969683098
 31
0.0
  0
LINE
  5
89
330
1F
100
AcDbEntity
  8
0
  6
Continuous
 62
     7
370
    25
100
AcDbLine
 10
535.8462517628
 20
331.8399708516
 30
0.0
 11
462.3071465194
 21
374.2931926663
 31
0.0
  0
LWPOLYLINE
  5
8A
330
1F
100
AcDbEntity
  8
0
  6
Continuous
 62
     7
370
    25
100
AcDbPolyline
 90
       23
 70
   128
 43
0.0
 10
472.206641456
 20
356.3302237053
 10
472.1778521461
 20
356.8116669145
 10
472.0920702838
 20
357.3165487579
 10
471.9510421405
 20
357.8345912973
 10
471.7576386423
 20
358.3552486804
 10
471.5157969269
 20
358.8679218244
 10
471.2304401941
 20
359.3621741824
 10
470.9073774841
 20
359.8279442018
 10
470.5531854221
 20
360.2557501482
 10
470.175074337
 20
360.6368831261
 10
469.7807414801
 20
360.9635843672
 10
469.3782143313
 20
361.2292031765
 10
468.9756871824
 20
361.4283323208
 10
468.5813543256
 20
361.5569181052
 10
468.2032432405
 20
361.6123428937
 10
467.8490511784
 20
361.5934783976
 10
467.5259884684
 20
361.5007086437
 10
467.2406317356
 20
361.3359221564
 10
466.9987900202
 20
361.1024735136
 10
466.8053865221
 20
360.8051150564
 10
466.6643583787
 20
360.4499001455
 10
466.5785765164
 20
360.0440599321
 10
466.5497872065
 20
359.5958561526
  0
LWPOLYLINE
  5
8B
330
1F
100
AcDbEntity
  8
0
  6
Continuous
 62
     7
370
    25
100
AcDbPolyline
 90
       23
 70
   128
 43
0.0
 10
466.5497872065
 20
359.5958561526
 10
466.5785765164
 20
359.1144129434
 10
466.6643583787
 20
358.6095310999
 10
466.8053865221
 20
358.0914885606
 10
466.9987900202
 20
357.5708311775
 10
467.2406317356
 20
357.0581580335
 10
467.5259884684
 20
356.5639056755
 10
467.8490511784
 20
356.098135656
 10
468.2032432405
 20
355.6703297097
 10
468.5813543256
 20
355.2891967318
 10
468.9756871824
 20
354.9624954906
 10
469.3782143313
 20
354.6968766814
 10
469.7807414801
 20
354.497747537
 10
470.175074337
 20
354.3691617527
 10
470.5531854221
 20
354.3137369642
 10
470.9073774841
 20
354.3326014602
 10
471.2304401941
 20
354.4253712142
 10
471.5157969269
 20
354.5901577015
 10
471.7576386423
 20
354.8236063442
 10
471.9510421405
 20
355.1209648014
 10
472.0920702838
 20
355.4761797124
 10
472.1778521461
 20
355.8820199258
 10
472.206641456
 20
356.3302237053
  0
LWPOLYLINE
  5
8C
330
1F
100
AcDbEntity
  8
0
  6
Continuous
 62
     7
370
    25
100
AcDbPolyline
 90
       26
 70
   128
 43
0.0
 10
492.0056313292
 20
344.9005101398
 10
491.9777525884
 20
345.4283026958
 10
491.8945560302
 20
345.9799597569
 10
491.7573537141
 20
346.5467813618
 10
491.5683094026
 20
347.1198283952
 10
491.3304044374
 20
347.6900635629
 10
491.0473907219
 20
348.2484939159
 10
490.7237315515
 20
348.7863126737
 10
490.3645312247
 20
349.2950381134
 10
489.9754545451
 20
349.7666473308
 10
489.5626374844
 20
350.1937027669
 10
489.1325904144
 20
350.5694695023
 10
488.6920954341
 20
350.8880214712
 10
488.2480994125
 20
351.1443349186
 10
487.8076044322
 20
351.3343676285
 10
487.3775573622
 20
351.4551226714
 10
486.9647403015
 20
351.5046956682
 10
486.5756636219
 20
351.4823048232
 10
486.2164632951
 20
351.3883032532
 10
485.8928041247
 20
351.2241734193
 10
485.6097904092
 20
350.992503747
 10
485.371885444
 20
350.6969478053
 10
485.1828411325
 20
350.3421666881
 10
485.0456388164
 20
349.9337555055
 10
484.9624422582
 20
349.4781551458
 10
484.9345635174
 20
348.9825506989
  0
LWPOLYLINE
  5
8D
330
1F
100
AcDbEntity
  8
0
  6
Continuous
 62
     7
370
    25
100
AcDbPolyline
 90
       26
 70
   128
 43
0.0
 10
484.9345635174
 20
348.9825506989
 10
484.9624422582
 20
348.4547581429
 10
485.0456388164
 20
347.9031010818
 10
485.1828411325
 20
347.3362794769
 10
485.371885444
 20
346.7632324435
 10
485.6097904092
 20
346.1929972758
 10
485.8928041247
 20
345.6345669228
 10
486.2164632951
 20
345.096748165
 10
486.5756636219
 20
344.5880227253
 10
486.9647403015
 20
344.1164135079
 10
487.3775573622
 20
343.6893580718
 10
487.8076044322
 20
343.3135913363
 10
488.2480994125
 20
342.9950393675
 10
488.6920954341
 20
342.73872592
 10
489.1325904144
 20
342.5486932102
 10
489.5626374844
 20
342.4279381673
 10
489.9754545451
 20
342.3783651705
 10
490.3645312247
 20
342.4007560155
 10
490.7237315515
 20
342.4947575855
 10
491.0473907219
 20
342.6588874194
 10
491.3304044374
 20
342.8905570917
 10
491.5683094026
 20
343.1861130334
 10
491.7573537141
 20
343.5408941506
 10
491.8945560302
 20
343.9493053332
 10
491.9777525884
 20
344.4049056929
 10
492.0056313292
 20
344.9005101398
  0
LWPOLYLINE
  5
8E
330
1F
100
AcDbEntity
  8
0
  6
Continuous
 62
     7
370
    25
100
AcDbPolyline
 90
       26
 70
   128
 43
0.0
 10
513.2188347648
 20
332.6543884624
 10
513.190956024
 20
333.1821810184
 10
513.1077594658
 20
333.7338380796
 10
512.9705571497
 20
334.3006596845
 10
512.7815128382
 20
334.8737067178
 10
512.543607873
 20
335.4439418856
 10
512.2605941575
 20
336.0023722385
 10
511.9369349871
 20
336.5401909964
 10
511.5777346603
 20
337.048916436
 10
511.1886579807
 20
337.5205256535
 10
510.77584092
 20
337.9475810896
 10
510.34579385
 20
338.323347825
 10
509.9052988697
 20
338.6418997938
 10
509.4613028481
 20
338.8982132413
 10
509.0208078678
 20
339.0882459511
 10
508.5907607978
 20
339.2090009941
 10
508.1779437371
 20
339.2585739909
 10
507.7888670575
 20
339.2361831458
 10
507.4296667307
 20
339.1421815759
 10
507.1060075603
 20
338.978051742
 10
506.8229938448
 20
338.7463820696
 10
506.5850888796
 20
338.450826128
 10
506.3960445681
 20
338.0960450108
 10
506.258842252
 20
337.6876338282
 10
506.1756456938
 20
337.2320334685
 10
506.147766953
 20
336.7364290216
  0
LWPOLYLINE
  5
8F
330
1F
100
AcDbEntity
  8
0
  6
Continuous
 62
     7
370
    25
100
AcDbPolyline
 90
       26
 70
   128
 43
0.0
 10
506.147766953
 20
336.7364290216
 10
506.1756456938
 20
336.2086364656
 10
506.258842252
 20
335.6569794044
 10
506.3960445681
 20
335.0901577995
 10
506.5850888796
 20
334.5171107662
 10
506.8229938448
 20
333.9468755984
 10
507.1060075603
 20
333.3884452455
 10
507.4296667307
 20
332.8506264876
 10
507.7888670575
 20
332.3419010479
 10
508.1779437371
 20
331.8702918305
 10
508.5907607978
 20
331.4432363944
 10
509.0208078678
 20
331.067469659
 10
509.4613028481
 20
330.7489176901
 10
509.9052988697
 20
330.4926042427
 10
510.34579385
 20
330.3025715328
 10
510.77584092
 20
330.1818164899
 10
511.1886579807
 20
330.1322434931
 10
511.5777346603
 20
330.1546343382
 10
511.9369349871
 20
330.2486359081
 10
512.2605941575
 20
330.412765742
 10
512.543607873
 20
330.6444354144
 10
512.7815128382
 20
330.939991356
 10
512.9705571497
 20
331.2947724732
 10
513.1077594658
 20
331.7031836558
 10
513.190956024
 20
332.1587840155
 10
513.2188347648
 20
332.6543884624
  0
LWPOLYLINE
  5
90
330
1F
100
AcDbEntity
  8
0
  6
Continuous
 62
     7
370
    25
100
AcDbPolyline
 90
       23
 70
   128
 43
0.0
 10
531.6036110757
 20
322.0410830087
 10
531.5748217658
 20
322.5225262179
 10
531.4890399035
 20
323.0274080614
 10
531.3480117601
 20
323.5454506008
 10
531.154608262
 20
324.0661079839
 10
530.9127665466
 20
324.5787811278
 10
530.6274098138
 20
325.0730334859
 10
530.3043471038
 20
325.5388035053
 10
529.9501550417
 20
325.9666094516
 10
529.5720439566
 20
326.3477424295
 10
529.1777110998
 20
326.6744436707
 10
528.7751839509
 20
326.9400624799
 10
528.3726568021
 20
327.1391916243
 10
527.9783239452
 20
327.2677774086
 10
527.6002128601
 20
327.3232021972
 10
527.2460207981
 20
327.3043377011
 10
526.9229580881
 20
327.2115679471
 10
526.6376013553
 20
327.0467814599
 10
526.3957596399
 20
326.8133328171
 10
526.2023561417
 20
326.5159743599
 10
526.0613279984
 20
326.160759449
 10
525.9755461361
 20
325.7549192356
 10
525.9467568262
 20
325.306715456
  0
LWPOLYLINE
  5
91
330
1F
100
AcDbEntity
  8
0
  6
Continuous
 62
     7
370
    25
100
AcDbPolyline
 90
       23
 70
   128
 43
0.0
 10
525.9467568262
 20
325.306715456
 10
525.9755461361
 20
324.8252722469
 10
526.0613279984
 20
324.3203904034
 10
526.2023561417
 20
323.802347864
 10
526.3957596399
 20
323.2816904809
 10
526.6376013553
 20
322.7690173369
 10
526.9229580881
 20
322.2747649789
 10
527.2460207981
 20
321.8089949595
 10
527.6002128601
 20
321.3811890131
 10
527.9783239452
 20
321.0000560352
 10
528.3726568021
 20
320.6733547941
 10
528.7751839509
 20
320.4077359848
 10
529.1777110998
 20
320.2086068405
 10
529.5720439566
 20
320.0800210562
 10
529.9501550417
 20
320.0245962676
 10
530.3043471038
 20
320.0434607637
 10
530.6274098138
 20
320.1362305177
 10
530.9127665466
 20
320.3010170049
 10
531.154608262
 20
320.5344656477
 10
531.3480117601
 20
320.8318241049
 10
531.4890399035
 20
321.1870390158
 10
531.5748217658
 20
321.5928792292
 10
531.6036110757
 20
322.0410830087
  0
LINE
  5
92
330
1F
100
AcDbEntity
  8
0
  6
Continuous
 62
     7
370
    25
100
AcDbLine
 10
462.3071465194
 20
374.2931926663
 30
0.0
 11
472.9137482372
 21
380.416253505
 31
0.0
  0
LINE
  5
93
330
1F
100
AcDbEntity
  8
0
  6
Continuous
 62
     7
370
    25
100
AcDbLine
 10
546.4528534806
 20
337.9630316902
 30
0.0
 11
472.9137482372
 21
380.416253505
 31
0.0
  0
LWPOLYLINE
  5
94
330
1F
100
AcDbEntity
  8
0
  6
HIDDEN
 62
     7
370
    18
100
AcDbPolyline
 90
       23
 70
   128
 43
0.0
 10
542.2102127935
 20
328.1641438474
 10
542.1814234836
 20
328.6455870566
 10
542.0956416213
 20
329.1504689001
 10
541.9546134779
 20
329.6685114394
 10
541.7612099798
 20
330.1891688225
 10
541.5193682644
 20
330.7018419665
 10
541.2340115316
 20
331.1960943245
 10
540.9109488216
 20
331.661864344
 10
540.5567567595
 20
332.0896702903
 10
540.1786456744
 20
332.4708032682
 10
539.7843128176
 20
332.7975045094
 10
539.3817856687
 20
333.0631233186
 10
538.9792585199
 20
333.262252463
 10
538.584925663
 20
333.3908382473
 10
538.2068145779
 20
333.4462630358
 10
537.8526225159
 20
333.4273985398
 10
537.5295598059
 20
333.3346287858
 10
537.2442030731
 20
333.1698422985
 10
537.0023613577
 20
332.9363936558
 10
536.8089578595
 20
332.6390351986
 10
536.6679297162
 20
332.2838202876
 10
536.5821478539
 20
331.8779800742
 10
536.553358544
 20
331.4297762947
  0
LWPOLYLINE
  5
95
330
1F
100
AcDbEntity
  8
0
  6
HIDDEN
 62
     7
370
    18
100
AcDbPolyline
 90
       23
 70
   128
 43
0.0
 10
536.553358544
 20
331.4297762947
 10
536.5821478539
 20
330.9483330855
 10
536.6679297162
 20
330.4434512421
 10
536.8089578595
 20
329.9254087027
 10
537.0023613577
 20
329.4047513196
 10
537.2442030731
 20
328.8920781756
 10
537.5295598059
 20
328.3978258176
 10
537.8526225159
 20
327.9320557982
 10
538.2068145779
 20
327.5042498518
 10
538.584925663
 20
327.1231168739
 10
538.9792585199
 20
326.7964156328
 10
539.3817856687
 20
326.5307968235
 10
539.7843128176
 20
326.3316676792
 10
540.1786456744
 20
326.2030818948
 10
540.5567567595
 20
326.1476571063
 10
540.9109488216
 20
326.1665216024
 10
541.2340115316
 20
326.2592913563
 10
541.5193682644
 20
326.4240778436
 10
541.7612099798
 20
326.6575264864
 10
541.9546134779
 20
326.9548849436
 10
542.0956416213
 20
327.3100998545
 10
542.1814234836
 20
327.7159400679
 10
542.2102127935
 20
328.1641438474
  0
LINE
  5
96
330
1F
100
AcDbEntity
  8
0
  6
HIDDEN
 62
     7
370
    18
100
AcDbLine
 10
472.9137482372
 20
355.9200291484
 30
0.0
 11
546.4528534806
 21
313.4668073337
 31
0.0
  0
LWPOLYLINE
  5
97
330
1F
100
AcDbEntity
  8
0
  6
HIDDEN
 62
     7
370
    18
100
AcDbPolyline
 90
       26
 70
   128
 43
0.0
 10
523.8254364826
 20
338.7774493011
 10
523.7975577418
 20
339.3052418571
 10
523.7143611836
 20
339.8568989182
 10
523.5771588675
 20
340.4237205231
 10
523.388114556
 20
340.9967675565
 10
523.1502095908
 20
341.5670027242
 10
522.8671958753
 20
342.1254330772
 10
522.5435367049
 20
342.663251835
 10
522.1843363781
 20
343.1719772747
 10
521.7952596985
 20
343.6435864921
 10
521.3824426378
 20
344.0706419282
 10
520.9523955678
 20
344.4464086637
 10
520.5119005875
 20
344.7649606325
 10
520.0679045659
 20
345.02127408
 10
519.6274095856
 20
345.2113067898
 10
519.1973625156
 20
345.3320618327
 10
518.7845454549
 20
345.3816348295
 10
518.3954687753
 20
345.3592439845
 10
518.0362684485
 20
345.2652424145
 10
517.7126092781
 20
345.1011125806
 10
517.4295955626
 20
344.8694429083
 10
517.1916905974
 20
344.5738869666
 10
517.0026462859
 20
344.2191058494
 10
516.8654439698
 20
343.8106946668
 10
516.7822474116
 20
343.3550943071
 10
516.7543686708
 20
342.8594898602
  0
LWPOLYLINE
  5
98
330
1F
100
AcDbEntity
  8
0
  6
HIDDEN
 62
     7
370
    18
100
AcDbPolyline
 90
       26
 70
   128
 43
0.0
 10
516.7543686708
 20
342.8594898602
 10
516.7822474116
 20
342.3316973042
 10
516.8654439698
 20
341.7800402431
 10
517.0026462859
 20
341.2132186382
 10
517.1916905974
 20
340.6401716048
 10
517.4295955626
 20
340.0699364371
 10
517.7126092781
 20
339.5115060841
 10
518.0362684485
 20
338.9736873263
 10
518.3954687753
 20
338.4649618866
 10
518.7845454549
 20
337.9933526692
 10
519.1973625156
 20
337.5662972331
 10
519.6274095856
 20
337.1905304977
 10
520.0679045659
 20
336.8719785288
 10
520.5119005875
 20
336.6156650814
 10
520.9523955678
 20
336.4256323715
 10
521.3824426378
 20
336.3048773286
 10
521.7952596985
 20
336.2553043318
 10
522.1843363781
 20
336.2776951768
 10
522.5435367049
 20
336.3716967468
 10
522.8671958753
 20
336.5358265807
 10
523.1502095908
 20
336.767496253
 10
523.388114556
 20
337.0630521947
 10
523.5771588675
 20
337.4178333119
 10
523.7143611836
 20
337.8262444945
 10
523.7975577418
 20
338.2818448542
 10
523.8254364826
 20
338.7774493011
  0
LWPOLYLINE
  5
99
330
1F
100
AcDbEntity
  8
0
  6
HIDDEN
 62
     7
370
    18
100
AcDbPolyline
 90
       26
 70
   128
 43
0.0
 10
502.612233047
 20
351.0235709784
 10
502.5843543062
 20
351.5513635344
 10
502.501157748
 20
352.1030205956
 10
502.3639554319
 20
352.6698422005
 10
502.1749111204
 20
353.2428892338
 10
501.9370061552
 20
353.8131244016
 10
501.6539924397
 20
354.3715547545
 10
501.3303332693
 20
354.9093735124
 10
500.9711329425
 20
355.4180989521
 10
500.5820562629
 20
355.8897081695
 10
500.1692392022
 20
356.3167636056
 10
499.7391921322
 20
356.692530341
 10
499.2986971519
 20
357.0110823099
 10
498.8547011303
 20
357.2673957573
 10
498.41420615
 20
357.4574284672
 10
497.98415908
 20
357.5781835101
 10
497.5713420193
 20
357.6277565069
 10
497.1822653397
 20
357.6053656618
 10
496.8230650129
 20
357.5113640919
 10
496.4994058425
 20
357.347234258
 10
496.216392127
 20
357.1155645856
 10
495.9784871618
 20
356.820008644
 10
495.7894428503
 20
356.4652275268
 10
495.6522405342
 20
356.0568163442
 10
495.569043976
 20
355.6012159845
 10
495.5411652352
 20
355.1056115376
  0
LWPOLYLINE
  5
9A
330
1F
100
AcDbEntity
  8
0
  6
HIDDEN
 62
     7
370
    18
100
AcDbPolyline
 90
       26
 70
   128
 43
0.0
 10
495.5411652352
 20
355.1056115376
 10
495.569043976
 20
354.5778189816
 10
495.6522405342
 20
354.0261619204
 10
495.7894428503
 20
353.4593403155
 10
495.9784871618
 20
352.8862932822
 10
496.216392127
 20
352.3160581144
 10
496.4994058425
 20
351.7576277615
 10
496.8230650129
 20
351.2198090036
 10
497.1822653397
 20
350.711083564
 10
497.5713420193
 20
350.2394743465
 10
497.98415908
 20
349.8124189104
 10
498.41420615
 20
349.436652175
 10
498.8547011303
 20
349.1181002062
 10
499.2986971519
 20
348.8617867587
 10
499.7391921322
 20
348.6717540489
 10
500.1692392022
 20
348.5509990059
 10
500.5820562629
 20
348.5014260091
 10
500.9711329425
 20
348.5238168542
 10
501.3303332693
 20
348.6178184241
 10
501.6539924397
 20
348.781948258
 10
501.9370061552
 20
349.0136179304
 10
502.1749111204
 20
349.309173872
 10
502.3639554319
 20
349.6639549892
 10
502.501157748
 20
350.0723661718
 10
502.5843543062
 20
350.5279665315
 10
502.612233047
 20
351.0235709784
  0
LWPOLYLINE
  5
9B
330
1F
100
AcDbEntity
  8
0
  6
HIDDEN
 62
     7
370
    18
100
AcDbPolyline
 90
       23
 70
   128
 43
0.0
 10
482.8132431738
 20
362.453284544
 10
482.7844538639
 20
362.9347277531
 10
482.6986720016
 20
363.4396095966
 10
482.5576438583
 20
363.957652136
 10
482.3642403601
 20
364.4783095191
 10
482.1223986447
 20
364.9909826631
 10
481.8370419119
 20
365.4852350211
 10
481.5139792019
 20
365.9510050405
 10
481.1597871399
 20
366.3788109869
 10
480.7816760548
 20
366.7599439648
 10
480.3873431979
 20
367.0866452059
 10
479.9848160491
 20
367.3522640152
 10
479.5822889002
 20
367.5513931595
 10
479.1879560434
 20
367.6799789438
 10
478.8098449583
 20
367.7354037324
 10
478.4556528962
 20
367.7165392363
 10
478.1325901862
 20
367.6237694823
 10
477.8472334534
 20
367.4589829951
 10
477.605391738
 20
367.2255343523
 10
477.4119882399
 20
366.9281758951
 10
477.2709600965
 20
366.5729609842
 10
477.1851782342
 20
366.1671207708
 10
477.1563889243
 20
365.7189169913
  0
LINE
  5
9C
330
1F
100
AcDbEntity
  8
0
  6
HIDDEN
 62
     7
370
    18
100
AcDbLine
 10
462.3071465194
 20
349.7969683098
 30
0.0
 11
472.9137482372
 21
355.9200291484
 31
0.0
  0
LINE
  5
9D
330
1F
100
AcDbEntity
  8
0
  6
HIDDEN
 62
     7
370
    18
100
AcDbLine
 10
472.9137482372
 20
380.416253505
 30
0.0
 11
472.9137482372
 21
355.9200291484
 31
0.0
  0
LWPOLYLINE
  5
9E
330
1F
100
AcDbEntity
  8
0
  6
HIDDEN
 62
     7
370
    18
100
AcDbPolyline
 90
       23
 70
   128
 43
0.0
 10
477.1563889243
 20
365.7189169913
 10
477.1851782342
 20
365.2374737821
 10
477.2709600965
 20
364.7325919386
 10
477.4119882399
 20
364.2145493992
 10
477.605391738
 20
363.6938920161
 10
477.8472334534
 20
363.1812188722
 10
478.1325901862
 20
362.6869665141
 10
478.4556528962
 20
362.2211964947
 10
478.8098449583
 20
361.7933905484
 10
479.1879560434
 20
361.4122575705
 10
479.5822889002
 20
361.0855563293
 10
479.9848160491
 20
360.8199375201
 10
480.3873431979
 20
360.6208083757
 10
480.7816760548
 20
360.4922225914
 10
481.1597871399
 20
360.4367978028
 10
481.5139792019
 20
360.4556622989
 10
481.8370419119
 20
360.5484320529
 10
482.1223986447
 20
360.7132185401
 10
482.3642403601
 20
360.9466671829
 10
482.5576438583
 20
361.2440256401
 10
482.6986720016
 20
361.599240551
 10
482.7844538639
 20
362.0050807644
 10
482.8132431738
 20
362.453284544
  0
LINE
  5
9F
330
1F
100
AcDbEntity
  8
0
  6
HIDDEN
 62
     7
370
    18
100
AcDbLine
 10
537.3819482035
 20
333.2611555206
 30
0.0
 11
526.7753464857
 21
327.1380946819
 31
0.0
  0
LINE
  5
A0
330
1F
100
AcDbEntity
  8
0
  6
HIDDEN
 62
     7
370
    18
100
AcDbLine
 10
530.7750214162
 20
320.2097037829
 30
0.0
 11
541.381623134
 21
326.3327646215
 31
0.0
  0
LINE
  5
A1
330
1F
100
AcDbEntity
  8
0
  6
HIDDEN
 62
     7
370
    18
100
AcDbLine
 10
517.7901057451
 20
345.1487138926
 30
0.0
 11
507.1835040273
 21
339.0256530539
 31
0.0
  0
LINE
  5
A2
330
1F
100
AcDbEntity
  8
0
  6
HIDDEN
 62
     7
370
    18
100
AcDbLine
 10
512.1830976905
 20
330.3651644301
 30
0.0
 11
522.7896994083
 21
336.4882252688
 31
0.0
  0
LINE
  5
A3
330
1F
100
AcDbEntity
  8
0
  6
HIDDEN
 62
     7
370
    18
100
AcDbLine
 10
496.5769023095
 20
357.3948355699
 30
0.0
 11
485.9703005917
 21
351.2717747312
 31
0.0
  0
LINE
  5
A4
330
1F
100
AcDbEntity
  8
0
  6
HIDDEN
 62
     7
370
    18
100
AcDbLine
 10
490.9698942549
 20
342.6112861074
 30
0.0
 11
501.5764959727
 21
348.7343469461
 31
0.0
  0
LINE
  5
A5
330
1F
100
AcDbEntity
  8
0
  6
HIDDEN
 62
     7
370
    18
100
AcDbLine
 10
477.9849785838
 20
367.5502962171
 30
0.0
 11
467.378376866
 21
361.4272353785
 31
0.0
  0
LINE
  5
A6
330
1F
100
AcDbEntity
  8
0
  6
HIDDEN
 62
     7
370
    18
100
AcDbLine
 10
471.3780517965
 20
354.4988444794
 30
0.0
 11
481.9846535143
 21
360.6219053181
 31
0.0
  0
ENDSEC
  0
SECTION
  2
OBJECTS
  0
DICTIONARY
  5
C
330
0
100
AcDbDictionary
281
     1
  3
ACAD_GROUP
350
D
  3
ACAD_LAYOUT
350
1A
  3
ACAD_MLINESTYLE
350
17
  3
ACAD_PLOTSETTINGS
350
19
  3
ACAD_PLOTSTYLENAME
350
E
  3
ACAD_SCALELIST
350
47
  3
DWGPROPS
350
A7
  0
DICTIONARY
  5
D
102
{ACAD_REACTORS
330
C
102
}
330
C
100
AcDbDictionary
281
     1
  0
DICTIONARY
  5
1A
102
{ACAD_REACTORS
330
C
102
}
330
C
100
AcDbDictionary
281
     1
  3
Layout1
350
1E
  3
Layout2
350
26
  3
Model
350
22
  0
DICTIONARY
  5
17
102
{ACAD_REACTORS
330
C
102
}
330
C
100
AcDbDictionary
281
     1
  3
Standard
350
18
  0
DICTIONARY
  5
19
102
{ACAD_REACTORS
330
C
102
}
330
C
100
AcDbDictionary
281
     1
  0
ACDBDICTIONARYWDFLT
  5
E
102
{ACAD_REACTORS
330
C
102
}
330
C
100
AcDbDictionary
281
     1
  3
Normal
350
F
100
AcDbDictionaryWithDefault
340
F
  0
DICTIONARY
  5
47
102
{ACAD_REACTORS
330
C
102
}
330
C
100
AcDbDictionary
281
     1
  3
A0
350
48
  3
A1
350
49
  3
A2
350
4A
  3
A3
350
4B
  3
A4
350
4C
  3
A5
350
4D
  3
A6
350
4E
  3
A7
350
4F
  3
A8
350
50
  3
A9
350
51
  3
B0
350
52
  3
B1
350
53
  3
B2
350
54
  3
B3
350
55
  3
B4
350
56
  3
B5
350
57
  3
B6
350
58
  0
XRECORD
  5
A7
102
{ACAD_REACTORS
330
C
102
}
330
C
100
AcDbXrecord
280
     1
  1
DWGPROPS COOKIE
  2

  3

  4

  6

  7

  8
imaizumi
  9

300
=
301
=
302
=
303
=
304
=
305
=
306
=
307
=
308
=
309
=
 40
0.0
 41
2461263.051290405
 42
2461263.051290741
  1

 90
        0
  0
LAYOUT
  5
1E
102
{ACAD_REACTORS
330
1A
102
}
330
1A
100
AcDbPlotSettings
  1

  2
none_device
  4

  6

 40
0.0
 41
0.0
 42
0.0
 43
0.0
 44
0.0
 45
0.0
 46
0.0
 47
0.0
 48
0.0
 49
0.0
140
0.0
141
0.0
142
1.0
143
1.0
 70
   688
 72
     1
 73
     0
 74
     5
  7

 75
    16
147
1.0
148
0.0
149
0.0
100
AcDbLayout
  1
Layout1
 70
     1
 71
     1
 10
0.0
 20
0.0
 11
420.0
 21
297.0
 12
0.0
 22
0.0
 32
0.0
 14
1.0000000000E+20
 24
1.0000000000E+20
 34
1.0000000000E+20
 15
-1.0000000000E+20
 25
-1.0000000000E+20
 35
-1.0000000000E+20
146
0.0
 13
0.0
 23
0.0
 33
0.0
 16
1.0
 26
0.0
 36
0.0
 17
0.0
 27
1.0
 37
0.0
 76
     0
330
1B
  0
LAYOUT
  5
26
102
{ACAD_REACTORS
330
1A
102
}
330
1A
100
AcDbPlotSettings
  1

  2
none_device
  4

  6

 40
0.0
 41
0.0
 42
0.0
 43
0.0
 44
0.0
 45
0.0
 46
0.0
 47
0.0
 48
0.0
 49
0.0
140
0.0
141
0.0
142
1.0
143
1.0
 70
   688
 72
     1
 73
     0
 74
     5
  7

 75
    16
147
1.0
148
0.0
149
0.0
100
AcDbLayout
  1
Layout2
 70
     1
 71
     2
 10
0.0
 20
0.0
 11
0.0
 21
0.0
 12
0.0
 22
0.0
 32
0.0
 14
0.0
 24
0.0
 34
0.0
 15
0.0
 25
0.0
 35
0.0
146
0.0
 13
0.0
 23
0.0
 33
0.0
 16
1.0
 26
0.0
 36
0.0
 17
0.0
 27
1.0
 37
0.0
 76
     0
330
23
  0
LAYOUT
  5
22
102
{ACAD_REACTORS
330
1A
102
}
330
1A
100
AcDbPlotSettings
  1

  2
none_device
  4
Letter_(8.50_x_11.00_Inches)
  6

 40
6.35
 41
6.35
 42
6.35000508
 43
6.35000508
 44
215.9
 45
279.4
 46
0.0
 47
0.0
 48
0.0
 49
0.0
140
0.0
141
0.0
142
1.0
143
1.0
 70
  1712
 72
     1
 73
     0
 74
     0
  7

 75
     0
147
1.0
148
0.0
149
0.0
100
AcDbLayout
  1
Model
 70
     1
 71
     0
 10
0.0
 20
0.0
 11
841.0
 21
594.0
 12
0.0
 22
0.0
 32
0.0
 14
0.0
 24
0.0
 34
0.0
 15
841.0
 25
594.0
 35
0.0
146
0.0
 13
0.0
 23
0.0
 33
0.0
 16
1.0
 26
0.0
 36
0.0
 17
0.0
 27
1.0
 37
0.0
 76
     0
330
1F
331
29
  0
MLINESTYLE
  5
18
102
{ACAD_REACTORS
330
17
102
}
330
17
100
AcDbMlineStyle
  2
Standard
 70
     0
  3

 62
   256
 51
90.0
 52
90.0
 71
     2
 49
0.5
 62
   256
  6
BYLAYER
 49
-0.5
 62
   256
  6
BYLAYER
  0
ACDBPLACEHOLDER
  5
F
102
{ACAD_REACTORS
330
E
102
}
330
E
  0
SCALE
  5
48
102
{ACAD_REACTORS
330
47
102
}
330
47
100
AcDbScale
 70
     0
300
1:1
140
1.0
141
1.0
290
     1
  0
SCALE
  5
49
102
{ACAD_REACTORS
330
47
102
}
330
47
100
AcDbScale
 70
     0
300
1:2
140
1.0
141
2.0
290
     0
  0
SCALE
  5
4A
102
{ACAD_REACTORS
330
47
102
}
330
47
100
AcDbScale
 70
     0
300
1:4
140
1.0
141
4.0
290
     0
  0
SCALE
  5
4B
102
{ACAD_REACTORS
330
47
102
}
330
47
100
AcDbScale
 70
     0
300
1:5
140
1.0
141
5.0
290
     0
  0
SCALE
  5
4C
102
{ACAD_REACTORS
330
47
102
}
330
47
100
AcDbScale
 70
     0
300
1:8
140
1.0
141
8.0
290
     0
  0
SCALE
  5
4D
102
{ACAD_REACTORS
330
47
102
}
330
47
100
AcDbScale
 70
     0
300
1:10
140
1.0
141
10.0
290
     0
  0
SCALE
  5
4E
102
{ACAD_REACTORS
330
47
102
}
330
47
100
AcDbScale
 70
     0
300
1:16
140
1.0
141
16.0
290
     0
  0
SCALE
  5
4F
102
{ACAD_REACTORS
330
47
102
}
330
47
100
AcDbScale
 70
     0
300
1:20
140
1.0
141
20.0
290
     0
  0
SCALE
  5
50
102
{ACAD_REACTORS
330
47
102
}
330
47
100
AcDbScale
 70
     0
300
1:30
140
1.0
141
30.0
290
     0
  0
SCALE
  5
51
102
{ACAD_REACTORS
330
47
102
}
330
47
100
AcDbScale
 70
     0
300
1:40
140
1.0
141
40.0
290
     0
  0
SCALE
  5
52
102
{ACAD_REACTORS
330
47
102
}
330
47
100
AcDbScale
 70
     0
300
1:50
140
1.0
141
50.0
290
     0
  0
SCALE
  5
53
102
{ACAD_REACTORS
330
47
102
}
330
47
100
AcDbScale
 70
     0
300
1:100
140
1.0
141
100.0
290
     0
  0
SCALE
  5
54
102
{ACAD_REACTORS
330
47
102
}
330
47
100
AcDbScale
 70
     0
300
2:1
140
2.0
141
1.0
290
     0
  0
SCALE
  5
55
102
{ACAD_REACTORS
330
47
102
}
330
47
100
AcDbScale
 70
     0
300
4:1
140
4.0
141
1.0
290
     0
  0
SCALE
  5
56
102
{ACAD_REACTORS
330
47
102
}
330
47
100
AcDbScale
 70
     0
300
8:1
140
8.0
141
1.0
290
     0
  0
SCALE
  5
57
102
{ACAD_REACTORS
330
47
102
}
330
47
100
AcDbScale
 70
     0
300
10:1
140
10.0
141
1.0
290
     0
  0
SCALE
  5
58
102
{ACAD_REACTORS
330
47
102
}
330
47
100
AcDbScale
 70
     0
300
100:1
140
100.0
141
1.0
290
     0
  0
ENDSEC
  0
EOF
