  0
SECTION
  2
HEADER
  9
$ACADVER
  1
AC1015
  9
$ACADMAINTVER
 70
     6
  9
$DWGCODEPAGE
  3
DOS932
  9
$INSBASE
 10
0.0
 20
0.0
 30
0.0
  9
$EXTMIN
 10
0.0
 20
0.0
 30
0.0
  9
$EXTMAX
 10
841.0
 20
594.0
 30
0.0
  9
$LIMMIN
 10
0.0
 20
0.0
  9
$LIMMAX
 10
841.0
 20
594.0
  9
$ORTHOMODE
 70
     0
  9
$REGENMODE
 70
     1
  9
$FILLMODE
 70
     1
  9
$QTEXTMODE
 70
     0
  9
$MIRRTEXT
 70
     1
  9
$LTSCALE
 40
1.0
  9
$ATTMODE
 70
     1
  9
$TEXTSIZE
 40
3.5
  9
$TRACEWID
 40
1.0
  9
$TEXTSTYLE
  7
Standard
  9
$CLAYER
  8
0
  9
$CELTYPE
  6
ByLayer
  9
$CECOLOR
 62
   256
  9
$CELTSCALE
 40
1.0
  9
$DISPSILH
 70
     0
  9
$DIMSCALE
 40
1.0
  9
$DIMASZ
 40
3.302
  9
$DIMEXO
 40
1.0
  9
$DIMDLI
 40
3.75
  9
$DIMRND
 40
0.0
  9
$DIMDLE
 40
0.0
  9
$DIMEXE
 40
1.0
  9
$DIMTP
 40
0.0
  9
$DIMTM
 40
0.0
  9
$DIMTXT
 40
3.5
  9
$DIMCEN
 40
2.5
  9
$DIMTSZ
 40
0.0
  9
$DIMTOL
 70
     0
  9
$DIMLIM
 70
     0
  9
$DIMTIH
 70
     1
  9
$DIMTOH
 70
     1
  9
$DIMSE1
 70
     0
  9
$DIMSE2
 70
     0
  9
$DIMTAD
 70
     1
  9
$DIMZIN
 70
     1
  9
$DIMBLK
  1

  9
$DIMASO
 70
     1
  9
$DIMSHO
 70
     1
  9
$DIMPOST
  1

  9
$DIMAPOST
  1

  9
$DIMALT
 70
     0
  9
$DIMALTD
 70
     3
  9
$DIMALTF
 40
0.0393700787
  9
$DIMLFAC
 40
0.2
  9
$DIMTOFL
 70
     1
  9
$DIMTVP
 40
0.0
  9
$DIMTIX
 70
     0
  9
$DIMSOXD
 70
     0
  9
$DIMSAH
 70
     0
  9
$DIMBLK1
  1

  9
$DIMBLK2
  1

  9
$DIMSTYLE
  2
ISO-25
  9
$DIMCLRD
 70
     0
  9
$DIMCLRE
 70
     0
  9
$DIMCLRT
 70
     0
  9
$DIMTFAC
 40
1.0
  9
$DIMGAP
 40
1.524
  9
$DIMJUST
 70
     0
  9
$DIMSD1
 70
     0
  9
$DIMSD2
 70
     0
  9
$DIMTOLJ
 70
     0
  9
$DIMTZIN
 70
     1
  9
$DIMALTZ
 70
     0
  9
$DIMALTTZ
 70
     0
  9
$DIMUPT
 70
     0
  9
$DIMDEC
 70
     2
  9
$DIMTDEC
 70
     2
  9
$DIMALTU
 70
     2
  9
$DIMALTTD
 70
     3
  9
$DIMTXSTY
  7
Standard
  9
$DIMAUNIT
 70
     0
  9
$DIMADEC
 70
     2
  9
$DIMALTRND
 40
0.0
  9
$DIMAZIN
 70
     0
  9
$DIMDSEP
 70
    44
  9
$DIMATFIT
 70
     3
  9
$DIMFRAC
 70
     0
  9
$DIMLDRBLK
  1

  9
$DIMLUNIT
 70
     2
  9
$DIMLWD
 70
    -2
  9
$DIMLWE
 70
    -2
  9
$DIMTMOVE
 70
     0
  9
$LUNITS
 70
     2
  9
$LUPREC
 70
     2
  9
$SKETCHINC
 40
1.0
  9
$FILLETRAD
 40
0.0
  9
$AUNITS
 70
     0
  9
$AUPREC
 70
     2
  9
$MENU
  1
.
  9
$ELEVATION
 40
0.0
  9
$PELEVATION
 40
0.0
  9
$THICKNESS
 40
0.0
  9
$LIMCHECK
 70
     0
  9
$CHAMFERA
 40
0.0
  9
$CHAMFERB
 40
0.0
  9
$CHAMFERC
 40
0.0
  9
$CHAMFERD
 40
0.0
  9
$SKPOLY
 70
     0
  9
$TDCREATE
 40
2461263.426582234
  9
$TDUCREATE
 40
2461263.051582234
  9
$TDUPDATE
 40
2461263.426582651
  9
$TDUUPDATE
 40
2461263.051582651
  9
$TDINDWG
 40
0.0000000116
  9
$TDUSRTIMER
 40
0.0000000116
  9
$USRTIMER
 70
     1
  9
$ANGBASE
 50
0.0
  9
$ANGDIR
 70
     0
  9
$PDMODE
 70
     0
  9
$PDSIZE
 40
-1.0
  9
$PLINEWID
 40
0.0
  9
$SPLFRAME
 70
     0
  9
$SPLINETYPE
 70
     6
  9
$SPLINESEGS
 70
     8
  9
$HANDSEED
  5
B5
  9
$SURFTAB1
 70
     6
  9
$SURFTAB2
 70
     6
  9
$SURFTYPE
 70
     6
  9
$SURFU
 70
     6
  9
$SURFV
 70
     6
  9
$UCSBASE
  2

  9
$UCSNAME
  2

  9
$UCSORG
 10
0.0
 20
0.0
 30
0.0
  9
$UCSXDIR
 10
1.0
 20
0.0
 30
0.0
  9
$UCSYDIR
 10
0.0
 20
1.0
 30
0.0
  9
$UCSORTHOREF
  2

  9
$UCSORTHOVIEW
 70
     0
  9
$UCSORGTOP
 10
0.0
 20
0.0
 30
0.0
  9
$UCSORGBOTTOM
 10
0.0
 20
0.0
 30
0.0
  9
$UCSORGLEFT
 10
0.0
 20
0.0
 30
0.0
  9
$UCSORGRIGHT
 10
0.0
 20
0.0
 30
0.0
  9
$UCSORGFRONT
 10
0.0
 20
0.0
 30
0.0
  9
$UCSORGBACK
 10
0.0
 20
0.0
 30
0.0
  9
$PUCSBASE
  2

  9
$PUCSNAME
  2

  9
$PUCSORG
 10
0.0
 20
0.0
 30
0.0
  9
$PUCSXDIR
 10
1.0
 20
0.0
 30
0.0
  9
$PUCSYDIR
 10
0.0
 20
1.0
 30
0.0
  9
$PUCSORTHOREF
  2

  9
$PUCSORTHOVIEW
 70
     0
  9
$PUCSORGTOP
 10
0.0
 20
0.0
 30
0.0
  9
$PUCSORGBOTTOM
 10
0.0
 20
0.0
 30
0.0
  9
$PUCSORGLEFT
 10
0.0
 20
0.0
 30
0.0
  9
$PUCSORGRIGHT
 10
0.0
 20
0.0
 30
0.0
  9
$PUCSORGFRONT
 10
0.0
 20
0.0
 30
0.0
  9
$PUCSORGBACK
 10
0.0
 20
0.0
 30
0.0
  9
$USERI1
 70
     0
  9
$USERI2
 70
     0
  9
$USERI3
 70
     0
  9
$USERI4
 70
     0
  9
$USERI5
 70
     0
  9
$USERR1
 40
0.0
  9
$USERR2
 40
0.0
  9
$USERR3
 40
0.0
  9
$USERR4
 40
0.0
  9
$USERR5
 40
0.0
  9
$WORLDVIEW
 70
     1
  9
$SHADEDGE
 70
     3
  9
$SHADEDIF
 70
    70
  9
$TILEMODE
 70
     1
  9
$MAXACTVP
 70
    64
  9
$PINSBASE
 10
0.0
 20
0.0
 30
0.0
  9
$PLIMCHECK
 70
     0
  9
$PEXTMIN
 10
1.0000000000E+20
 20
1.0000000000E+20
 30
1.0000000000E+20
  9
$PEXTMAX
 10
-1.0000000000E+20
 20
-1.0000000000E+20
 30
-1.0000000000E+20
  9
$PLIMMIN
 10
0.0
 20
0.0
  9
$PLIMMAX
 10
420.0
 20
297.0
  9
$UNITMODE
 70
     0
  9
$VISRETAIN
 70
     1
  9
$PLINEGEN
 70
     0
  9
$PSLTSCALE
 70
     1
  9
$TREEDEPTH
 70
  3020
  9
$CMLSTYLE
  2
Standard
  9
$CMLJUST
 70
     0
  9
$CMLSCALE
 40
20.0
  9
$PROXYGRAPHICS
 70
     1
  9
$MEASUREMENT
 70
     1
  9
$CELWEIGHT
370
    -1
  9
$ENDCAPS
280
     0
  9
$JOINSTYLE
280
     0
  9
$LWDISPLAY
290
     1
  9
$INSUNITS
 70
     4
  9
$HYPERLINKBASE
  1

  9
$STYLESHEET
  1

  9
$XEDIT
290
     1
  9
$CEPSNTYPE
380
     0
  9
$PSTYLEMODE
290
     1
  9
$FINGERPRINTGUID
  2
{0df79c3e-5c48-4c56-9842-768277a11b0a}
  9
$VERSIONGUID
  2
{FAEB1C32-E019-11D5-929B-00C0DF256EC4}
  9
$EXTNAMES
290
     1
  9
$PSVPSCALE
 40
0.0
  9
$OLESTARTUP
290
     0
  0
ENDSEC
  0
SECTION
  2
CLASSES
  0
CLASS
  1
ACDBDICTIONARYWDFLT
  2
AcDbDictionaryWithDefault
  3
ObjectDBX Classes
 90
        0
280
     0
281
     0
  0
CLASS
  1
VISUALSTYLE
  2
AcDbVisualStyle
  3
ObjectDBX Classes
 90
     4095
280
     0
281
     0
  0
CLASS
  1
MATERIAL
  2
AcDbMaterial
  3
ObjectDBX Classes
 90
     1153
280
     0
281
     0
  0
CLASS
  1
SCALE
  2
AcDbScale
  3
ObjectDBX Classes
 90
     1153
280
     0
281
     0
  0
CLASS
  1
TABLESTYLE
  2
AcDbTableStyle
  3
ObjectDBX Classes
 90
     4095
280
     0
281
     0
  0
CLASS
  1
MLEADERSTYLE
  2
AcDbMLeaderStyle
  3
ACDB_MLEADERSTYLE_CLASS
 90
     4095
280
     0
281
     0
  0
CLASS
  1
SUN
  2
AcDbSun
  3
SCENEOE
 90
     1153
280
     0
281
     0
  0
CLASS
  1
ACDBPLACEHOLDER
  2
AcDbPlaceHolder
  3
ObjectDBX Classes
 90
        0
280
     0
281
     0
  0
CLASS
  1
LAYOUT
  2
AcDbLayout
  3
ObjectDBX Classes
 90
        0
280
     0
281
     0
  0
ENDSEC
  0
SECTION
  2
TABLES
  0
TABLE
  2
VPORT
  5
8
330
0
100
AcDbSymbolTable
 70
     1
  0
VPORT
  5
29
330
8
100
AcDbSymbolTableRecord
100
AcDbViewportTableRecord
  2
*Active
 70
     0
 10
0.0
 20
0.0
 11
1.0
 21
1.0
 12
420.5
 22
297.0
 13
0.0
 23
0.0
 14
10.0
 24
10.0
 15
10.0
 25
10.0
 16
0.0
 26
0.0
 36
1.0
 17
0.0
 27
0.0
 37
0.0
 40
594.0
 41
1.4158249158
 42
50.0
 43
0.0
 44
0.0
 50
0.0
 51
0.0
 71
     0
 72
  2000
 73
     1
 74
     3
 75
     0
 76
     0
 77
     0
 78
     0
281
     0
 65
     1
110
0.0
120
0.0
130
0.0
111
1.0
121
0.0
131
0.0
112
0.0
122
1.0
132
0.0
 79
     0
146
0.0
  0
ENDTAB
  0
TABLE
  2
LTYPE
  5
5
330
0
100
AcDbSymbolTable
 70
     6
  0
LTYPE
  5
14
330
5
100
AcDbSymbolTableRecord
100
AcDbLinetypeTableRecord
  2
ByBlock
 70
     0
  3

 72
    65
 73
     0
 40
0.0
  0
LTYPE
  5
15
330
5
100
AcDbSymbolTableRecord
100
AcDbLinetypeTableRecord
  2
ByLayer
 70
     0
  3

 72
    65
 73
     0
 40
0.0
  0
LTYPE
  5
16
330
5
100
AcDbSymbolTableRecord
100
AcDbLinetypeTableRecord
  2
Continuous
 70
     0
  3
Solid line
 72
    65
 73
     0
 40
0.0
  0
LTYPE
  5
5E
330
5
100
AcDbSymbolTableRecord
100
AcDbLinetypeTableRecord
  2
HIDDEN
 70
     0
  3
Hidden __ __ __ __ __ __ __ __ __ __ __ __ __ __
 72
    65
 73
     2
 40
1.905
 49
1.27
 74
     0
 49
-0.635
 74
     0
  0
LTYPE
  5
5F
330
5
100
AcDbSymbolTableRecord
100
AcDbLinetypeTableRecord
  2
PHANTOM
 70
     0
  3
Phantom ______  __  __  ______  __  __  ______
 72
    65
 73
     6
 40
12.7
 49
6.35
 74
     0
 49
-1.27
 74
     0
 49
1.27
 74
     0
 49
-1.27
 74
     0
 49
1.27
 74
     0
 49
-1.27
 74
     0
  0
LTYPE
  5
60
330
5
100
AcDbSymbolTableRecord
100
AcDbLinetypeTableRecord
  2
CENTER
 70
     0
  3
Center ____ _ ____ _ ____ _ ____ _ ____ _ ____
 72
    65
 73
     4
 40
10.16
 49
6.35
 74
     0
 49
-1.27
 74
     0
 49
1.27
 74
     0
 49
-1.27
 74
     0
  0
LTYPE
  5
61
330
5
100
AcDbSymbolTableRecord
100
AcDbLinetypeTableRecord
  2
CENTERX2
 70
     0
  3
Center (2x) ________  __  ________  __  _____
 72
    65
 73
     4
 40
20.32
 49
12.7
 74
     0
 49
-2.54
 74
     0
 49
2.54
 74
     0
 49
-2.54
 74
     0
  0
LTYPE
  5
62
330
5
100
AcDbSymbolTableRecord
100
AcDbLinetypeTableRecord
  2
DOT2
 70
     0
  3
Dot (.5x) ........................................
 72
    65
 73
     2
 40
0.635
 49
0.0
 74
     0
 49
-0.635
 74
     0
  0
ENDTAB
  0
TABLE
  2
LAYER
  5
2
330
0
100
AcDbSymbolTable
 70
     1
  0
LAYER
  5
10
330
2
100
AcDbSymbolTableRecord
100
AcDbLayerTableRecord
  2
0
 70
     0
 62
     7
  6
Continuous
370
    -3
390
F
  0
ENDTAB
  0
TABLE
  2
STYLE
  5
3
330
0
100
AcDbSymbolTable
 70
     1
  0
STYLE
  5
11
330
3
100
AcDbSymbolTableRecord
100
AcDbTextStyleTableRecord
  2
Standard
 70
     0
 40
0.0
 41
1.0
 50
0.0
 71
     0
 42
3.5
  3
txt
  4
bigfont
  0
ENDTAB
  0
TABLE
  2
VIEW
  5
6
330
0
100
AcDbSymbolTable
 70
     0
  0
ENDTAB
  0
TABLE
  2
UCS
  5
7
330
0
100
AcDbSymbolTable
 70
     0
  0
ENDTAB
  0
TABLE
  2
APPID
  5
9
330
0
100
AcDbSymbolTable
 70
     1
  0
APPID
  5
12
330
9
100
AcDbSymbolTableRecord
100
AcDbRegAppTableRecord
  2
ACAD
 70
     0
  0
ENDTAB
  0
TABLE
  2
DIMSTYLE
  5
A
330
0
100
AcDbSymbolTable
 70
     1
100
AcDbDimStyleTable
  0
DIMSTYLE
105
27
330
A
100
AcDbSymbolTableRecord
100
AcDbDimStyleTableRecord
  2
ISO-25
 70
     0
 41
2.5
 42
0.625
 43
3.75
 44
1.25
 73
     0
 74
     0
 77
     1
 78
     8
140
2.5
141
2.5
143
0.0393700787
147
0.625
171
     3
172
     1
178
     0
271
     2
272
     2
274
     3
278
    44
283
     0
284
     8
340
11
  0
ENDTAB
  0
TABLE
  2
BLOCK_RECORD
  5
1
330
0
100
AcDbSymbolTable
 70
     1
  0
BLOCK_RECORD
  5
1F
330
1
100
AcDbSymbolTableRecord
100
AcDbBlockTableRecord
  2
*Model_Space
340
22
  0
BLOCK_RECORD
  5
1B
330
1
100
AcDbSymbolTableRecord
100
AcDbBlockTableRecord
  2
*Paper_Space
340
1E
  0
BLOCK_RECORD
  5
23
330
1
100
AcDbSymbolTableRecord
100
AcDbBlockTableRecord
  2
*Paper_Space0
340
26
  0
ENDTAB
  0
ENDSEC
  0
SECTION
  2
BLOCKS
  0
BLOCK
  5
20
330
1F
100
AcDbEntity
  8
0
100
AcDbBlockBegin
  2
*Model_Space
 70
     0
 10
0.0
 20
0.0
 30
0.0
  3
*Model_Space
  1

  0
ENDBLK
  5
21
330
1F
100
AcDbEntity
  8
0
100
AcDbBlockEnd
  0
BLOCK
  5
1C
330
1B
100
AcDbEntity
 67
     1
  8
0
100
AcDbBlockBegin
  2
*Paper_Space
 70
     0
 10
0.0
 20
0.0
 30
0.0
  3
*Paper_Space
  1

  0
ENDBLK
  5
1D
330
1B
100
AcDbEntity
 67
     1
  8
0
100
AcDbBlockEnd
  0
BLOCK
  5
24
330
23
100
AcDbEntity
  8
0
100
AcDbBlockBegin
  2
*Paper_Space0
 70
     0
 10
0.0
 20
0.0
 30
0.0
  3
*Paper_Space0
  1

  0
ENDBLK
  5
25
330
23
100
AcDbEntity
  8
0
100
AcDbBlockEnd
  0
ENDSEC
  0
SECTION
  2
ENTITIES
  0
LINE
  5
63
330
1F
100
AcDbEntity
  8
0
  6
Continuous
 62
     7
370
    25
100
AcDbLine
 10
381.62
 20
261.5240594085
 30
0.0
 11
372.62
 21
261.5240594085
 31
0.0
  0
LINE
  5
64
330
1F
100
AcDbEntity
  8
0
  6
Continuous
 62
     7
370
    25
100
AcDbLine
 10
381.62
 20
261.5240594085
 30
0.0
 11
381.62
 21
229.5240594085
 31
0.0
  0
LINE
  5
65
330
1F
100
AcDbEntity
  8
0
  6
Continuous
 62
     7
370
    25
100
AcDbLine
 10
372.62
 20
261.5240594085
 30
0.0
 11
372.62
 21
229.5240594085
 31
0.0
  0
LINE
  5
66
330
1F
100
AcDbEntity
  8
0
  6
Continuous
 62
     7
370
    25
100
AcDbLine
 10
381.62
 20
229.5240594085
 30
0.0
 11
372.62
 21
229.5240594085
 31
0.0
  0
SPLINE
  5
67
330
1F
100
AcDbEntity
  8
0
  6
HIDDEN
 62
     7
370
    18
100
AcDbSpline
210
0.0
220
0.0
230
1.0
 70
     8
 71
     3
 72
    16
 73
    12
 74
     0
 42
0.00000001
 43
0.00000001
 40
0.0
 40
0.0
 40
0.0
 40
0.0
 40
0.0000935077131665
 40
0.1247301062480993
 40
0.2499924265549687
 40
0.3747724284071717
 40
0.4999758125382258
 40
0.6255207744297367
 40
0.7498619924810134
 40
0.875411683781847
 40
0.9999999999999999
 40
0.9999999999999999
 40
0.9999999999999999
 40
0.9999999999999999
 10
375.1200287820747
 20
251.5240498112672
 30
0.0
 10
375.1200191887285
 20
251.5240530101435
 30
0.0
 10
375.1072226069968
 20
251.5283199970538
 30
0.0
 10
375.1514798410458
 20
251.5132540144422
 30
0.0
 10
375.2604689563155
 20
251.4783084530479
 30
0.0
 10
375.4478320756412
 20
251.4213701376972
 30
0.0
 10
375.6973375693665
 20
251.3551725882669
 30
0.0
 10
375.9994873453553
 20
251.2875094889383
 30
0.0
 10
376.3468786232633
 20
251.2301486000323
 30
0.0
 10
376.7245353138999
 20
251.1888106193488
 30
0.0
 10
376.9885166313549
 20
251.1835392251139
 30
0.0
 10
377.12
 20
251.1809136579785
 30
0.0
  0
SPLINE
  5
68
330
1F
100
AcDbEntity
  8
0
  6
HIDDEN
 62
     7
370
    18
100
AcDbSpline
210
0.0
220
0.0
230
1.0
 70
     8
 71
     3
 72
    16
 73
    12
 74
     0
 42
0.00000001
 43
0.00000001
 40
0.0
 40
0.0
 40
0.0
 40
0.0
 40
0.124602902931405
 40
0.2501830058016553
 40
0.374584403070803
 40
0.5002221749094404
 40
0.625172451683505
 40
0.7499843099213219
 40
0.8751435479427898
 40
0.9997090108169223
 40
1.0
 40
1.0
 40
1.0
 40
1.0
 10
377.12
 20
251.1809136579785
 30
0.0
 10
377.2514924279888
 20
251.1835407372424
 30
0.0
 10
377.5155085150979
 20
251.1888154986745
 30
0.0
 10
377.8932772085798
 20
251.2301625090543
 30
0.0
 10
378.2407309110148
 20
251.2875688575456
 30
0.0
 10
378.5430275686219
 20
251.3551780944241
 30
0.0
 10
378.7913294257182
 20
251.421493631024
 30
0.0
 10
378.9796988330505
 20
251.4782569797328
 30
0.0
 10
379.0883766723227
 20
251.513238062423
 30
0.0
 10
379.1327401130984
 20
251.5283079046231
 30
0.0
 10
379.1199403181767
 20
251.5240395069326
 30
0.0
 10
379.1199104871043
 20
251.5240295590482
 30
0.0
  0
LINE
  5
69
330
1F
100
AcDbEntity
  8
0
  6
HIDDEN
 62
     7
370
    18
100
AcDbLine
 10
381.62
 20
251.5240594085
 30
0.0
 11
372.62
 21
251.5240594085
 31
0.0
  0
LINE
  5
6A
330
1F
100
AcDbEntity
  8
0
  6
HIDDEN
 62
     7
370
    18
100
AcDbLine
 10
381.62
 20
239.5240594085
 30
0.0
 11
372.62
 21
239.5240594085
 31
0.0
  0
LINE
  5
6B
330
1F
100
AcDbEntity
  8
0
  6
HIDDEN
 62
     7
370
    18
100
AcDbLine
 10
372.62
 20
239.5240594085
 30
0.0
 11
381.62
 21
239.5240594085
 31
0.0
  0
LINE
  5
6C
330
1F
100
AcDbEntity
  8
0
  6
HIDDEN
 62
     7
370
    18
100
AcDbLine
 10
375.1200287821
 20
251.5240594085
 30
0.0
 11
372.62
 21
251.5240594085
 31
0.0
  0
LINE
  5
6D
330
1F
100
AcDbEntity
  8
0
  6
HIDDEN
 62
     7
370
    18
100
AcDbLine
 10
381.62
 20
251.5240594085
 30
0.0
 11
379.1199104871
 21
251.5240594085
 31
0.0
  0
LINE
  5
6E
330
1F
100
AcDbEntity
  8
0
  6
HIDDEN
 62
     7
370
    18
100
AcDbLine
 10
375.12
 20
261.5240594085
 30
0.0
 11
375.12
 21
251.5240498922
 31
0.0
  0
LINE
  5
6F
330
1F
100
AcDbEntity
  8
0
  6
HIDDEN
 62
     7
370
    18
100
AcDbLine
 10
379.12
 20
251.5240298096
 30
0.0
 11
379.12
 21
261.5240594085
 31
0.0
  0
LINE
  5
70
330
1F
100
AcDbEntity
  8
0
  6
Continuous
 62
     7
370
    25
100
AcDbLine
 10
381.62
 20
333.3800125
 30
0.0
 11
372.62
 21
333.3800125
 31
0.0
  0
LINE
  5
71
330
1F
100
AcDbEntity
  8
0
  6
Continuous
 62
     7
370
    25
100
AcDbLine
 10
372.62
 20
356.3800125
 30
0.0
 11
372.62
 21
333.3800125
 31
0.0
  0
ARC
  5
72
330
1F
100
AcDbEntity
  8
0
  6
Continuous
 62
     7
370
    25
100
AcDbCircle
 10
377.12
 20
352.3800125
 30
0.0
 40
2.0
100
AcDbArc
 50
90.0
 51
270.0
  0
ARC
  5
73
330
1F
100
AcDbEntity
  8
0
  6
Continuous
 62
     7
370
    25
100
AcDbCircle
 10
377.12
 20
352.3800125
 30
0.0
 40
2.0
100
AcDbArc
 50
270.0
 51
90.0
  0
LINE
  5
74
330
1F
100
AcDbEntity
  8
0
  6
Continuous
 62
     7
370
    25
100
AcDbLine
 10
381.62
 20
356.3800125
 30
0.0
 11
372.62
 21
356.3800125
 31
0.0
  0
LINE
  5
75
330
1F
100
AcDbEntity
  8
0
  6
Continuous
 62
     7
370
    25
100
AcDbLine
 10
381.62
 20
356.3800125
 30
0.0
 11
381.62
 21
333.3800125
 31
0.0
  0
ARC
  5
76
330
1F
100
AcDbEntity
  8
0
  6
Continuous
 62
     7
370
    25
100
AcDbCircle
 10
377.12
 20
341.3800125
 30
0.0
 40
2.0
100
AcDbArc
 50
270.0
 51
90.0
  0
ARC
  5
77
330
1F
100
AcDbEntity
  8
0
  6
Continuous
 62
     7
370
    25
100
AcDbCircle
 10
377.12
 20
341.3800125
 30
0.0
 40
2.0
100
AcDbArc
 50
90.0
 51
270.0
  0
LINE
  5
78
330
1F
100
AcDbEntity
  8
0
  6
HIDDEN
 62
     7
370
    18
100
AcDbLine
 10
381.62
 20
335.3800125
 30
0.0
 11
372.62
 21
335.3800125
 31
0.0
  0
LINE
  5
79
330
1F
100
AcDbEntity
  8
0
  6
HIDDEN
 62
     7
370
    18
100
AcDbLine
 10
381.62
 20
347.3800125
 30
0.0
 11
372.62
 21
347.3800125
 31
0.0
  0
LINE
  5
7A
330
1F
100
AcDbEntity
  8
0
  6
HIDDEN
 62
     7
370
    18
100
AcDbLine
 10
381.62
 20
348.8800125
 30
0.0
 11
372.62
 21
348.8800125
 31
0.0
  0
LINE
  5
7B
330
1F
100
AcDbEntity
  8
0
  6
Continuous
 62
     7
370
    25
100
AcDbLine
 10
460.88
 20
239.5240594085
 30
0.0
 11
460.88
 21
251.5240594085
 31
0.0
  0
LINE
  5
7C
330
1F
100
AcDbEntity
  8
0
  6
Continuous
 62
     7
370
    25
100
AcDbLine
 10
445.38
 20
261.5240594085
 30
0.0
 11
445.38
 21
229.5240594085
 31
0.0
  0
ARC
  5
7D
330
1F
100
AcDbEntity
  8
0
  6
Continuous
 62
     7
370
    25
100
AcDbCircle
 10
453.38
 20
245.5240594085
 30
0.0
 40
6.0
100
AcDbArc
 50
0.0
 51
180.0
  0
ARC
  5
7E
330
1F
100
AcDbEntity
  8
0
  6
Continuous
 62
     7
370
    25
100
AcDbCircle
 10
453.38
 20
245.5240594085
 30
0.0
 40
6.0
100
AcDbArc
 50
180.0
 51
0.0
  0
LINE
  5
7F
330
1F
100
AcDbEntity
  8
0
  6
Continuous
 62
     7
370
    25
100
AcDbLine
 10
468.38
 20
239.5240594085
 30
0.0
 11
460.88
 21
239.5240594085
 31
0.0
  0
LINE
  5
80
330
1F
100
AcDbEntity
  8
0
  6
Continuous
 62
     7
370
    25
100
AcDbLine
 10
460.88
 20
251.5240594085
 30
0.0
 11
468.38
 21
251.5240594085
 31
0.0
  0
LINE
  5
81
330
1F
100
AcDbEntity
  8
0
  6
Continuous
 62
     7
370
    25
100
AcDbLine
 10
468.38
 20
229.5240594085
 30
0.0
 11
468.38
 21
239.5240594085
 31
0.0
  0
LINE
  5
82
330
1F
100
AcDbEntity
  8
0
  6
Continuous
 62
     7
370
    25
100
AcDbLine
 10
468.38
 20
261.5240594085
 30
0.0
 11
445.38
 21
261.5240594085
 31
0.0
  0
LINE
  5
83
330
1F
100
AcDbEntity
  8
0
  6
Continuous
 62
     7
370
    25
100
AcDbLine
 10
468.38
 20
251.5240594085
 30
0.0
 11
468.38
 21
261.5240594085
 31
0.0
  0
LINE
  5
84
330
1F
100
AcDbEntity
  8
0
  6
Continuous
 62
     7
370
    25
100
AcDbLine
 10
445.38
 20
229.5240594085
 30
0.0
 11
468.38
 21
229.5240594085
 31
0.0
  0
LINE
  5
85
330
1F
100
AcDbEntity
  8
0
  6
HIDDEN
 62
     7
370
    18
100
AcDbLine
 10
451.38
 20
251.180913658
 30
0.0
 11
451.38
 21
261.5240594085
 31
0.0
  0
LINE
  5
86
330
1F
100
AcDbEntity
  8
0
  6
HIDDEN
 62
     7
370
    18
100
AcDbLine
 10
455.38
 20
251.180913658
 30
0.0
 11
455.38
 21
261.5240594085
 31
0.0
  0
LINE
  5
87
330
1F
100
AcDbEntity
  8
0
  6
HIDDEN
 62
     7
370
    18
100
AcDbLine
 10
462.38
 20
251.5240594085
 30
0.0
 11
462.38
 21
261.5240594085
 31
0.0
  0
LINE
  5
88
330
1F
100
AcDbEntity
  8
0
  6
HIDDEN
 62
     7
370
    18
100
AcDbLine
 10
466.38
 20
251.5240594085
 30
0.0
 11
466.38
 21
261.5240594085
 31
0.0
  0
LINE
  5
89
330
1F
100
AcDbEntity
  8
0
  6
Continuous
 62
     7
370
    25
100
AcDbLine
 10
468.193708499
 20
352.6366755559
 30
0.0
 11
468.193708499
 21
360.8020836748
 31
0.0
  0
LINE
  5
8A
330
1F
100
AcDbEntity
  8
0
  6
Continuous
 62
     7
370
    25
100
AcDbLine
 10
462.8904076401
 20
349.5751451366
 30
0.0
 11
468.193708499
 21
352.6366755559
 31
0.0
  0
LINE
  5
8B
330
1F
100
AcDbEntity
  8
0
  6
Continuous
 62
     7
370
    25
100
AcDbLine
 10
462.8904076401
 20
339.776655394
 30
0.0
 11
462.8904076401
 21
349.5751451366
 31
0.0
  0
LINE
  5
8C
330
1F
100
AcDbEntity
  8
0
  6
Continuous
 62
     7
370
    25
100
AcDbLine
 10
468.193708499
 20
342.8381858133
 30
0.0
 11
462.8904076401
 21
339.776655394
 31
0.0
  0
LINE
  5
8D
330
1F
100
AcDbEntity
  8
0
  6
Continuous
 62
     7
370
    25
100
AcDbLine
 10
468.193708499
 20
334.6727776944
 30
0.0
 11
468.193708499
 21
342.8381858133
 31
0.0
  0
LINE
  5
8E
330
1F
100
AcDbEntity
  8
0
  6
Continuous
 62
     7
370
    25
100
AcDbLine
 10
451.9302525317
 20
325.2840844085
 30
0.0
 11
468.193708499
 21
334.6727776944
 31
0.0
  0
LINE
  5
8F
330
1F
100
AcDbEntity
  8
0
  6
Continuous
 62
     7
370
    25
100
AcDbLine
 10
451.9302525317
 20
351.4133903888
 30
0.0
 11
451.9302525317
 21
325.2840844085
 31
0.0
  0
LINE
  5
90
330
1F
100
AcDbEntity
  8
0
  6
Continuous
 62
     7
370
    25
100
AcDbLine
 10
468.193708499
 20
360.8020836748
 30
0.0
 11
451.9302525317
 21
351.4133903888
 31
0.0
  0
LWPOLYLINE
  5
91
330
1F
100
AcDbEntity
  8
0
  6
Continuous
 62
     7
370
    25
100
AcDbPolyline
 90
       47
 70
   128
 43
0.0
 10
461.8297474683
 20
344.0635941814
 10
461.8198568936
 20
344.3922207679
 10
461.790231284
 20
344.707895731
 10
461.7410087677
 20
345.0091472485
 10
461.6724188428
 20
345.2945707466
 10
461.5847813073
 20
345.5628354492
 10
461.4785047676
 20
345.8126905825
 10
461.3540847343
 20
346.0429712065
 10
461.2121013108
 20
346.2526036467
 10
461.0532164894
 20
346.4406104998
 10
460.8781710646
 20
346.606115191
 10
460.6877811788
 20
346.7483460612
 10
460.4829345177
 20
346.8666399643
 10
460.2645861709
 20
346.9604453596
 10
460.0337541793
 20
347.029324883
 10
459.791514788
 20
347.0729573864
 10
459.538997429
 20
347.0911394348
 10
459.2773794548
 20
347.0837862553
 10
459.0078806491
 20
347.0509321317
 10
458.7317575398
 20
346.992730245
 10
458.4502975402
 20
346.9094519595
 10
458.1648129469
 20
346.8014855568
 10
457.8766348207
 20
346.6693344262
 10
457.5871067812
 20
346.5136147173
 10
457.2975787417
 20
346.3350524672
 10
457.0094006155
 20
346.1344802155
 10
456.7239160222
 20
345.9128331227
 10
456.4424560226
 20
345.6711446099
 10
456.1663329133
 20
345.4105415405
 10
455.8968341076
 20
345.1322389662
 10
455.6352161334
 20
344.8375344622
 10
455.3826987744
 20
344.5278020769
 10
455.1404593831
 20
344.2044859256
 10
454.9096273914
 20
343.8690934575
 10
454.6912790446
 20
343.5231884271
 10
454.4864323835
 20
343.1683836033
 10
454.2960424978
 20
342.80633325
 10
454.1209970729
 20
342.4387254132
 10
453.9621122516
 20
342.0672740501
 10
453.8201288281
 20
341.6937110385
 10
453.6957087947
 20
341.3197781017
 10
453.5894322551
 20
340.9472186876
 10
453.5017947196
 20
340.5777698401
 10
453.4332047947
 20
340.2131541004
 10
453.3839822784
 20
339.8550714753
 10
453.3543566688
 20
339.5051915114
 10
453.3444660941
 20
339.1651455105
  0
LWPOLYLINE
  5
92
330
1F
100
AcDbEntity
  8
0
  6
Continuous
 62
     7
370
    25
100
AcDbPolyline
 90
       47
 70
   128
 43
0.0
 10
453.3444660941
 20
339.1651455105
 10
453.3543566688
 20
338.836518924
 10
453.3839822784
 20
338.5208439609
 10
453.4332047947
 20
338.2195924434
 10
453.5017947196
 20
337.9341689453
 10
453.5894322551
 20
337.6659042427
 10
453.6957087947
 20
337.4160491094
 10
453.8201288281
 20
337.1857684854
 10
453.9621122516
 20
336.9761360452
 10
454.1209970729
 20
336.7881291921
 10
454.2960424978
 20
336.6226245009
 10
454.4864323835
 20
336.4803936307
 10
454.6912790446
 20
336.3620997276
 10
454.9096273914
 20
336.2682943323
 10
455.1404593831
 20
336.1994148089
 10
455.3826987744
 20
336.1557823055
 10
455.6352161334
 20
336.1376002571
 10
455.8968341076
 20
336.1449534366
 10
456.1663329133
 20
336.1778075602
 10
456.4424560226
 20
336.2360094469
 10
456.7239160222
 20
336.3192877324
 10
457.0094006155
 20
336.4272541351
 10
457.2975787417
 20
336.5594052657
 10
457.5871067812
 20
336.7151249746
 10
457.8766348207
 20
336.8936872247
 10
458.1648129469
 20
337.0942594764
 10
458.4502975402
 20
337.3159065692
 10
458.7317575398
 20
337.557595082
 10
459.0078806491
 20
337.8181981514
 10
459.2773794548
 20
338.0965007257
 10
459.538997429
 20
338.3912052297
 10
459.791514788
 20
338.700937615
 10
460.0337541793
 20
339.0242537663
 10
460.2645861709
 20
339.3596462344
 10
460.4829345177
 20
339.7055512648
 10
460.6877811788
 20
340.0603560886
 10
460.8781710646
 20
340.4224064419
 10
461.0532164894
 20
340.7900142787
 10
461.2121013108
 20
341.1614656418
 10
461.3540847343
 20
341.5350286534
 10
461.4785047676
 20
341.9089615902
 10
461.5847813073
 20
342.2815210043
 10
461.6724188428
 20
342.6509698518
 10
461.7410087677
 20
343.0155855915
 10
461.790231284
 20
343.3736682166
 10
461.8198568936
 20
343.7235481805
 10
461.8297474683
 20
344.0635941814
  0
LINE
  5
93
330
1F
100
AcDbEntity
  8
0
  6
Continuous
 62
     7
370
    25
100
AcDbLine
 10
451.9302525317
 20
351.4133903888
 30
0.0
 11
445.566291501
 21
355.087226892
 31
0.0
  0
LINE
  5
94
330
1F
100
AcDbEntity
  8
0
  6
Continuous
 62
     7
370
    25
100
AcDbLine
 10
451.9302525317
 20
325.2840844085
 30
0.0
 11
445.566291501
 21
328.9579209117
 31
0.0
  0
LINE
  5
95
330
1F
100
AcDbEntity
  8
0
  6
Continuous
 62
     7
370
    25
100
AcDbLine
 10
445.566291501
 20
355.087226892
 30
0.0
 11
445.566291501
 21
328.9579209117
 31
0.0
  0
LINE
  5
96
330
1F
100
AcDbEntity
  8
0
  6
Continuous
 62
     7
370
    25
100
AcDbLine
 10
468.193708499
 20
360.8020836748
 30
0.0
 11
461.8297474683
 21
364.475920178
 31
0.0
  0
LINE
  5
97
330
1F
100
AcDbEntity
  8
0
  6
Continuous
 62
     7
370
    25
100
AcDbLine
 10
461.8297474683
 20
364.475920178
 30
0.0
 11
445.566291501
 21
355.087226892
 31
0.0
  0
LWPOLYLINE
  5
98
330
1F
100
AcDbEntity
  8
0
  6
Continuous
 62
     7
370
    25
100
AcDbPolyline
 90
       27
 70
   128
 43
0.0
 10
455.8193398282
 20
357.3323491995
 10
455.6385640111
 20
357.4248037887
 10
455.4398018942
 20
357.5040051132
 10
455.2259518768
 20
357.5687982392
 10
455.0001323736
 20
357.6182383371
 10
454.7656363415
 20
357.651604459
 10
454.5258832607
 20
357.6684100516
 10
454.284369271
 20
357.6684100516
 10
454.0446161902
 20
357.651604459
 10
453.8101201581
 20
357.6182383371
 10
453.5843006549
 20
357.5687982392
 10
453.3704506375
 20
357.5040051132
 10
453.1716885206
 20
357.4248037887
 10
452.9909127035
 20
357.3323491995
 10
452.8307593046
 20
357.2279895417
 10
452.6935637212
 20
357.113246614
 10
452.5813265739
 20
356.9897936267
 10
452.4956845328
 20
356.8594308023
 10
452.437886452
 20
356.7240591245
 10
452.4087751574
 20
356.585652617
 10
452.4087751574
 20
356.4462295584
 10
452.437886452
 20
356.307823051
 10
452.4956845328
 20
356.1724513731
 10
452.5813265739
 20
356.0420885488
 10
452.6935637212
 20
355.9186355615
 10
452.8307593046
 20
355.8038926338
 10
452.9909127035
 20
355.6995329759
  0
LWPOLYLINE
  5
99
330
1F
100
AcDbEntity
  8
0
  6
Continuous
 62
     7
370
    25
100
AcDbPolyline
 90
       27
 70
   128
 43
0.0
 10
452.9909127035
 20
355.6995329759
 10
453.1716885206
 20
355.6070783867
 10
453.3704506375
 20
355.5278770623
 10
453.5843006549
 20
355.4630839362
 10
453.8101201581
 20
355.4136438383
 10
454.0446161902
 20
355.3802777164
 10
454.284369271
 20
355.3634721238
 10
454.5258832607
 20
355.3634721238
 10
454.7656363415
 20
355.3802777164
 10
455.0001323736
 20
355.4136438383
 10
455.2259518768
 20
355.4630839362
 10
455.4398018942
 20
355.5278770623
 10
455.6385640111
 20
355.6070783867
 10
455.8193398282
 20
355.6995329759
 10
455.9794932271
 20
355.8038926338
 10
456.1166888105
 20
355.9186355615
 10
456.2289259578
 20
356.0420885488
 10
456.3145679989
 20
356.1724513731
 10
456.3723660797
 20
356.307823051
 10
456.4014773743
 20
356.4462295584
 10
456.4014773743
 20
356.585652617
 10
456.3723660797
 20
356.7240591245
 10
456.3145679989
 20
356.8594308023
 10
456.2289259578
 20
356.9897936267
 10
456.1166888105
 20
357.113246614
 10
455.9794932271
 20
357.2279895417
 10
455.8193398282
 20
357.3323491995
  0
LWPOLYLINE
  5
9A
330
1F
100
AcDbEntity
  8
0
  6
Continuous
 62
     7
370
    25
100
AcDbPolyline
 90
       27
 70
   128
 43
0.0
 10
463.5975144213
 20
361.8225938146
 10
463.4167386042
 20
361.9150484038
 10
463.2179764873
 20
361.9942497282
 10
463.0041264698
 20
362.0590428542
 10
462.7783069666
 20
362.1084829522
 10
462.5438109345
 20
362.141849074
 10
462.3040578537
 20
362.1586546667
 10
462.0625438641
 20
362.1586546667
 10
461.8227907833
 20
362.141849074
 10
461.5882947512
 20
362.1084829522
 10
461.362475248
 20
362.0590428542
 10
461.1486252305
 20
361.9942497282
 10
460.9498631136
 20
361.9150484038
 10
460.7690872965
 20
361.8225938146
 10
460.6089338977
 20
361.7182341567
 10
460.4717383143
 20
361.603491229
 10
460.3595011669
 20
361.4800382417
 10
460.2738591259
 20
361.3496754173
 10
460.216061045
 20
361.2143037395
 10
460.1869497505
 20
361.075897232
 10
460.1869497505
 20
360.9364741735
 10
460.216061045
 20
360.798067666
 10
460.2738591259
 20
360.6626959881
 10
460.3595011669
 20
360.5323331638
 10
460.4717383143
 20
360.4088801765
 10
460.6089338977
 20
360.2941372488
 10
460.7690872965
 20
360.1897775909
  0
LWPOLYLINE
  5
9B
330
1F
100
AcDbEntity
  8
0
  6
Continuous
 62
     7
370
    25
100
AcDbPolyline
 90
       27
 70
   128
 43
0.0
 10
460.7690872965
 20
360.1897775909
 10
460.9498631136
 20
360.0973230017
 10
461.1486252305
 20
360.0181216773
 10
461.362475248
 20
359.9533285513
 10
461.5882947512
 20
359.9038884533
 10
461.8227907833
 20
359.8705223315
 10
462.0625438641
 20
359.8537167388
 10
462.3040578537
 20
359.8537167388
 10
462.5438109345
 20
359.8705223315
 10
462.7783069666
 20
359.9038884533
 10
463.0041264698
 20
359.9533285513
 10
463.2179764873
 20
360.0181216773
 10
463.4167386042
 20
360.0973230017
 10
463.5975144213
 20
360.1897775909
 10
463.7576678201
 20
360.2941372488
 10
463.8948634035
 20
360.4088801765
 10
464.0071005509
 20
360.5323331638
 10
464.0927425919
 20
360.6626959881
 10
464.1505406728
 20
360.798067666
 10
464.1796519673
 20
360.9364741735
 10
464.1796519673
 20
361.075897232
 10
464.1505406728
 20
361.2143037395
 10
464.0927425919
 20
361.3496754173
 10
464.0071005509
 20
361.4800382417
 10
463.8948634035
 20
361.603491229
 10
463.7576678201
 20
361.7182341567
 10
463.5975144213
 20
361.8225938146
  0
LINE
  5
9C
330
1F
100
AcDbEntity
  8
0
  6
Continuous
 62
     7
370
    25
100
AcDbLine
 10
468.193708499
 20
342.8381858133
 30
0.0
 11
462.8904076401
 21
345.8997162326
 31
0.0
  0
SPLINE
  5
9D
330
1F
100
AcDbEntity
  8
0
  6
HIDDEN
 62
     7
370
    18
100
AcDbSpline
210
0.0
220
0.0
230
1.0
 70
     8
 71
     3
 72
    28
 73
    24
 74
     0
 42
0.00000001
 43
0.00000001
 40
0.0
 40
0.0
 40
0.0
 40
0.0
 40
0.020906657767665
 40
0.0416668002265441
 40
0.062380621846932
 40
0.0831489870756695
 40
0.1040719708935609
 40
0.1252474553540999
 40
0.1874271627714115
 40
0.2502248488503513
 40
0.3126789034034048
 40
0.375063772044773
 40
0.4376222719618684
 40
0.4998839844976042
 40
0.5622526482870721
 40
0.6249340779612873
 40
0.6874190668374908
 40
0.7501159772335589
 40
0.8128931563502638
 40
0.8750673233384197
 40
0.9170558872025044
 40
0.9584341456699499
 40
1.0
 40
1.0
 40
1.0
 40
1.0
 10
452.990912703474
 20
347.2539323473273
 30
0.0
 10
453.0226485349267
 20
347.2365199574749
 30
0.0
 10
453.0858977909224
 20
347.2018172050069
 30
0.0
 10
453.1877979252844
 20
347.1576387217966
 30
0.0
 10
453.2942320632861
 20
347.1195765341757
 30
0.0
 10
453.4057482515839
 20
347.0880954795102
 30
0.0
 10
453.522244152388
 20
347.0629669894064
 30
0.0
 10
453.7213555382661
 20
347.0320283626179
 30
0.0
 10
454.0149309443164
 20
347.0171927387599
 30
0.0
 10
454.4047653098572
 20
347.050715038446
 30
0.0
 10
454.795046472395
 20
347.1271613890249
 30
0.0
 10
455.1717870027683
 20
347.238311074263
 30
0.0
 10
455.5212831967696
 20
347.3758017311983
 30
0.0
 10
455.8278350248421
 20
347.5322263219724
 30
0.0
 10
456.080584763934
 20
347.6984746252152
 30
0.0
 10
456.2658325012301
 20
347.86999749483
 30
0.0
 10
456.3806297196637
 20
348.0418126314921
 30
0.0
 10
456.4175356737025
 20
348.213330188775
 30
0.0
 10
456.3801435947304
 20
348.3834471436225
 30
0.0
 10
456.2778960092399
 20
348.5349998402696
 30
0.0
 10
456.1431059334491
 20
348.6663374765624
 30
0.0
 10
455.9981331543909
 20
348.7784222096619
 30
0.0
 10
455.8790273979967
 20
348.850585379718
 30
0.0
 10
455.8193398282202
 20
348.8867485709727
 30
0.0
  0
SPLINE
  5
9E
330
1F
100
AcDbEntity
  8
0
  6
HIDDEN
 62
     7
370
    18
100
AcDbSpline
210
0.0
220
0.0
230
1.0
 70
     8
 71
     3
 72
    27
 73
    23
 74
     0
 42
0.00000001
 43
0.00000001
 40
0.0
 40
0.0
 40
0.0
 40
0.0
 40
0.0207086347320689
 40
0.0414969824921666
 40
0.0624656968633757
 40
0.0937945513192362
 40
0.1250505178457289
 40
0.1872713331607783
 40
0.2501114848368529
 40
0.3127320406713139
 40
0.3751561884212121
 40
0.4377586136922207
 40
0.5000644350319547
 40
0.5623650768886841
 40
0.624978490984656
 40
0.6873508141839069
 40
0.7499347685415273
 40
0.8126894633876607
 40
0.8748424568494556
 40
0.9169080382810311
 40
0.9583598322990043
 40
1.0
 40
1.0
 40
1.0
 40
1.0
 10
455.8193398282202
 20
348.8867485709727
 30
0.0
 10
455.7878816651169
 20
348.9044620723244
 30
0.0
 10
455.7248442480962
 20
348.9399572589929
 30
0.0
 10
455.6226154951208
 20
348.9917917432413
 30
0.0
 10
455.4975255758628
 20
349.0506288429501
 30
0.0
 10
455.3467430853934
 20
349.1147633989026
 30
0.0
 10
455.1100437479879
 20
349.2031240404855
 30
0.0
 10
454.7960553222423
 20
349.2976675907331
 30
0.0
 10
454.4057811302953
 20
349.374309408931
 30
0.0
 10
454.0147668349584
 20
349.4071854907812
 30
0.0
 10
453.6379110736731
 20
349.3868818180712
 30
0.0
 10
453.2881547606663
 20
349.3106295054332
 30
0.0
 10
452.9817317191178
 20
349.17559102263
 30
0.0
 10
452.7292643200046
 20
348.9878638235712
 30
0.0
 10
452.5443640128873
 20
348.7553785734783
 30
0.0
 10
452.4297496551686
 20
348.491968730313
 30
0.0
 10
452.3927429861577
 20
348.2122200257623
 30
0.0
 10
452.4298755724129
 20
347.9320461875337
 30
0.0
 10
452.5319168432342
 20
347.6963766893419
 30
0.0
 10
452.6666616642624
 20
347.5109216148201
 30
0.0
 10
452.8118141861449
 20
347.3681055036592
 30
0.0
 10
452.9311230379623
 20
347.2920475418543
 30
0.0
 10
452.990912703474
 20
347.2539323473273
 30
0.0
  0
LWPOLYLINE
  5
9F
330
1F
100
AcDbEntity
  8
0
  6
HIDDEN
 62
     7
370
    18
100
AcDbPolyline
 90
       47
 70
   128
 43
0.0
 10
455.4657864376
 20
347.7374306846
 10
455.4558958629
 20
348.0660572711
 10
455.4262702533
 20
348.3817322342
 10
455.377047737
 20
348.6829837517
 10
455.3084578121
 20
348.9684072498
 10
455.2208202766
 20
349.2366719524
 10
455.114543737
 20
349.4865270857
 10
454.9901237036
 20
349.7168077097
 10
454.8481402801
 20
349.9264401499
 10
454.6892554587
 20
350.114447003
 10
454.5142100339
 20
350.2799516942
 10
454.3238201482
 20
350.4221825644
 10
454.118973487
 20
350.5404764675
 10
453.9006251403
 20
350.6342818628
 10
453.6697931486
 20
350.7031613862
 10
453.4275537573
 20
350.7467938896
 10
453.1750363983
 20
350.764975938
 10
452.9134184241
 20
350.7576227585
 10
452.6439196184
 20
350.7247686349
 10
452.3677965091
 20
350.6665667482
 10
452.0863365095
 20
350.5832884627
 10
451.8008519162
 20
350.47532206
 10
451.51267379
 20
350.3431709294
 10
451.2231457505
 20
350.1874512205
 10
450.933617711
 20
350.0088889704
 10
450.6454395848
 20
349.8083167187
 10
450.3599549915
 20
349.5866696259
 10
450.0784949919
 20
349.3449811131
 10
449.8023718826
 20
349.0843780437
 10
449.5328730769
 20
348.8060754694
 10
449.2712551027
 20
348.5113709654
 10
449.0187377437
 20
348.2016385801
 10
448.7764983524
 20
347.8783224288
 10
448.5456663608
 20
347.5429299607
 10
448.327318014
 20
347.1970249303
 10
448.1224713529
 20
346.8422201065
 10
447.9320814671
 20
346.4801697532
 10
447.7570360423
 20
346.1125619164
 10
447.5981512209
 20
345.7411105533
 10
447.4561677974
 20
345.3675475417
 10
447.3317477641
 20
344.9936146049
 10
447.2254712244
 20
344.6210551908
 10
447.1378336889
 20
344.2516063433
 10
447.069243764
 20
343.8869906036
 10
447.0200212477
 20
343.5289079785
 10
446.9903956381
 20
343.1790280146
 10
446.9805050634
 20
342.8389820137
  0
LWPOLYLINE
  5
A0
330
1F
100
AcDbEntity
  8
0
  6
HIDDEN
 62
     7
370
    18
100
AcDbPolyline
 90
       47
 70
   128
 43
0.0
 10
446.9805050634
 20
342.8389820137
 10
446.9903956381
 20
342.5103554272
 10
447.0200212477
 20
342.1946804641
 10
447.069243764
 20
341.8934289466
 10
447.1378336889
 20
341.6080054485
 10
447.2254712244
 20
341.3397407459
 10
447.3317477641
 20
341.0898856126
 10
447.4561677974
 20
340.8596049886
 10
447.5981512209
 20
340.6499725484
 10
447.7570360423
 20
340.4619656953
 10
447.9320814671
 20
340.2964610041
 10
448.1224713529
 20
340.1542301339
 10
448.327318014
 20
340.0359362308
 10
448.5456663608
 20
339.9421308355
 10
448.7764983524
 20
339.8732513121
 10
449.0187377437
 20
339.8296188087
 10
449.2712551027
 20
339.8114367603
 10
449.5328730769
 20
339.8187899398
 10
449.8023718826
 20
339.8516440634
 10
450.0784949919
 20
339.9098459501
 10
450.3599549915
 20
339.9931242356
 10
450.6454395848
 20
340.1010906383
 10
450.933617711
 20
340.2332417689
 10
451.2231457505
 20
340.3889614778
 10
451.51267379
 20
340.5675237279
 10
451.8008519162
 20
340.7680959796
 10
452.0863365095
 20
340.9897430724
 10
452.3677965091
 20
341.2314315852
 10
452.6439196184
 20
341.4920346546
 10
452.9134184241
 20
341.7703372289
 10
453.1750363983
 20
342.0650417329
 10
453.4275537573
 20
342.3747741182
 10
453.6697931486
 20
342.6980902695
 10
453.9006251403
 20
343.0334827376
 10
454.118973487
 20
343.379387768
 10
454.3238201482
 20
343.7341925918
 10
454.5142100339
 20
344.0962429451
 10
454.6892554587
 20
344.4638507819
 10
454.8481402801
 20
344.835302145
 10
454.9901237036
 20
345.2088651566
 10
455.114543737
 20
345.5827980934
 10
455.2208202766
 20
345.9553575075
 10
455.3084578121
 20
346.324806355
 10
455.377047737
 20
346.6894220947
 10
455.4262702533
 20
347.0475047198
 10
455.4558958629
 20
347.3973846837
 10
455.4657864376
 20
347.7374306846
  0
LWPOLYLINE
  5
A1
330
1F
100
AcDbEntity
  8
0
  6
HIDDEN
 62
     7
370
    18
100
AcDbPolyline
 90
       27
 70
   128
 43
0.0
 10
463.5975144213
 20
353.6571856957
 10
463.7576678201
 20
353.5528260378
 10
463.8948634035
 20
353.4380831101
 10
464.0071005509
 20
353.3146301228
 10
464.0927425919
 20
353.1842672985
 10
464.1505406728
 20
353.0488956206
 10
464.1796519673
 20
352.9104891132
 10
464.1796519673
 20
352.7710660546
 10
464.1505406728
 20
352.6326595471
 10
464.0927425919
 20
352.4972878693
 10
464.0071005509
 20
352.3669250449
 10
463.8948634035
 20
352.2434720576
 10
463.7576678201
 20
352.1287291299
 10
463.5975144213
 20
352.0243694721
 10
463.4167386042
 20
351.9319148829
 10
463.2179764873
 20
351.8527135584
 10
463.0041264698
 20
351.7879204324
 10
462.7783069666
 20
351.7384803345
 10
462.5438109345
 20
351.7051142126
 10
462.3040578537
 20
351.68830862
 10
462.0625438641
 20
351.68830862
 10
461.8227907833
 20
351.7051142126
 10
461.5882947512
 20
351.7384803345
 10
461.362475248
 20
351.7879204324
 10
461.1486252305
 20
351.8527135584
 10
460.9498631136
 20
351.9319148829
 10
460.7690872965
 20
352.0243694721
  0
LWPOLYLINE
  5
A2
330
1F
100
AcDbEntity
  8
0
  6
HIDDEN
 62
     7
370
    18
100
AcDbPolyline
 90
       27
 70
   128
 43
0.0
 10
460.7690872965
 20
352.0243694721
 10
460.6089338977
 20
352.1287291299
 10
460.4717383143
 20
352.2434720576
 10
460.3595011669
 20
352.3669250449
 10
460.2738591259
 20
352.4972878693
 10
460.216061045
 20
352.6326595471
 10
460.1869497505
 20
352.7710660546
 10
460.1869497505
 20
352.9104891132
 10
460.216061045
 20
353.0488956206
 10
460.2738591259
 20
353.1842672985
 10
460.3595011669
 20
353.3146301228
 10
460.4717383143
 20
353.4380831101
 10
460.6089338977
 20
353.5528260378
 10
460.7690872965
 20
353.6571856957
 10
460.9498631136
 20
353.7496402849
 10
461.1486252305
 20
353.8288416094
 10
461.362475248
 20
353.8936347354
 10
461.5882947512
 20
353.9430748333
 10
461.8227907833
 20
353.9764409552
 10
462.0625438641
 20
353.9932465478
 10
462.3040578537
 20
353.9932465478
 10
462.5438109345
 20
353.9764409552
 10
462.7783069666
 20
353.9430748333
 10
463.0041264698
 20
353.8936347354
 10
463.2179764873
 20
353.8288416094
 10
463.4167386042
 20
353.7496402849
 10
463.5975144213
 20
353.6571856957
  0
LINE
  5
A3
330
1F
100
AcDbEntity
  8
0
  6
HIDDEN
 62
     7
370
    18
100
AcDbLine
 10
461.8297474683
 20
356.3105120591
 30
0.0
 11
461.8297474683
 21
364.475920178
 31
0.0
  0
LINE
  5
A4
330
1F
100
AcDbEntity
  8
0
  6
HIDDEN
 62
     7
370
    18
100
AcDbLine
 10
468.193708499
 20
352.6366755559
 30
0.0
 11
461.8297474683
 21
356.3105120591
 31
0.0
  0
LINE
  5
A5
330
1F
100
AcDbEntity
  8
0
  6
HIDDEN
 62
     7
370
    18
100
AcDbLine
 10
456.5264466094
 20
353.2489816398
 30
0.0
 11
461.8297474683
 21
356.3105120591
 31
0.0
  0
LINE
  5
A6
330
1F
100
AcDbEntity
  8
0
  6
HIDDEN
 62
     7
370
    18
100
AcDbLine
 10
462.8904076401
 20
349.5751451366
 30
0.0
 11
456.5264466094
 21
353.2489816398
 31
0.0
  0
LINE
  5
A7
330
1F
100
AcDbEntity
  8
0
  6
HIDDEN
 62
     7
370
    18
100
AcDbLine
 10
456.5264466094
 20
343.4504918972
 30
0.0
 11
456.5264466094
 21
353.2489816398
 31
0.0
  0
LINE
  5
A8
330
1F
100
AcDbEntity
  8
0
  6
HIDDEN
 62
     7
370
    18
100
AcDbLine
 10
445.566291501
 20
328.9579209117
 30
0.0
 11
461.8297474683
 21
338.3466141976
 31
0.0
  0
LINE
  5
A9
330
1F
100
AcDbEntity
  8
0
  6
HIDDEN
 62
     7
370
    18
100
AcDbLine
 10
462.8904076401
 20
345.8997162326
 30
0.0
 11
461.8297474683
 21
346.5120223165
 31
0.0
  0
LINE
  5
AA
330
1F
100
AcDbEntity
  8
0
  6
HIDDEN
 62
     7
370
    18
100
AcDbLine
 10
462.8904076401
 20
339.776655394
 30
0.0
 11
456.5264466094
 21
343.4504918972
 31
0.0
  0
LINE
  5
AB
330
1F
100
AcDbEntity
  8
0
  6
HIDDEN
 62
     7
370
    18
100
AcDbLine
 10
461.8297474683
 20
346.5120223165
 30
0.0
 11
456.5264466094
 21
343.4504918972
 31
0.0
  0
LINE
  5
AC
330
1F
100
AcDbEntity
  8
0
  6
HIDDEN
 62
     7
370
    18
100
AcDbLine
 10
468.193708499
 20
334.6727776944
 30
0.0
 11
461.8297474683
 21
338.3466141976
 31
0.0
  0
LINE
  5
AD
330
1F
100
AcDbEntity
  8
0
  6
HIDDEN
 62
     7
370
    18
100
AcDbLine
 10
461.8297474683
 20
338.3466141976
 30
0.0
 11
461.8297474683
 21
346.5120223165
 31
0.0
  0
LINE
  5
AE
330
1F
100
AcDbEntity
  8
0
  6
HIDDEN
 62
     7
370
    18
100
AcDbLine
 10
456.4051262658
 20
348.2124920293
 30
0.0
 11
456.4051262658
 21
356.5159410877
 31
0.0
  0
LINE
  5
AF
330
1F
100
AcDbEntity
  8
0
  6
HIDDEN
 62
     7
370
    18
100
AcDbLine
 10
452.4051262658
 20
356.5159410877
 30
0.0
 11
452.4051262658
 21
348.2124972928
 31
0.0
  0
LINE
  5
B0
330
1F
100
AcDbEntity
  8
0
  6
HIDDEN
 62
     7
370
    18
100
AcDbLine
 10
460.5868629791
 20
346.8106630202
 30
0.0
 11
454.2229019484
 21
350.4844995234
 31
0.0
  0
LINE
  5
B1
330
1F
100
AcDbEntity
  8
0
  6
HIDDEN
 62
     7
370
    18
100
AcDbLine
 10
448.2233895526
 20
340.0919131749
 30
0.0
 11
454.5873505833
 21
336.4180766717
 31
0.0
  0
LINE
  5
B2
330
1F
100
AcDbEntity
  8
0
  6
HIDDEN
 62
     7
370
    18
100
AcDbLine
 10
464.1833008589
 20
352.8407775839
 30
0.0
 11
464.1833008589
 21
361.0061857027
 31
0.0
  0
LINE
  5
B3
330
1F
100
AcDbEntity
  8
0
  6
HIDDEN
 62
     7
370
    18
100
AcDbLine
 10
460.1833008589
 20
361.0061857027
 30
0.0
 11
460.1833008589
 21
352.8407775839
 31
0.0
  0
ENDSEC
  0
SECTION
  2
OBJECTS
  0
DICTIONARY
  5
C
330
0
100
AcDbDictionary
281
     1
  3
ACAD_GROUP
350
D
  3
ACAD_LAYOUT
350
1A
  3
ACAD_MLINESTYLE
350
17
  3
ACAD_PLOTSETTINGS
350
19
  3
ACAD_PLOTSTYLENAME
350
E
  3
ACAD_SCALELIST
350
47
  3
DWGPROPS
350
B4
  0
DICTIONARY
  5
D
102
{ACAD_REACTORS
330
C
102
}
330
C
100
AcDbDictionary
281
     1
  0
DICTIONARY
  5
1A
102
{ACAD_REACTORS
330
C
102
}
330
C
100
AcDbDictionary
281
     1
  3
Layout1
350
1E
  3
Layout2
350
26
  3
Model
350
22
  0
DICTIONARY
  5
17
102
{ACAD_REACTORS
330
C
102
}
330
C
100
AcDbDictionary
281
     1
  3
Standard
350
18
  0
DICTIONARY
  5
19
102
{ACAD_REACTORS
330
C
102
}
330
C
100
AcDbDictionary
281
     1
  0
ACDBDICTIONARYWDFLT
  5
E
102
{ACAD_REACTORS
330
C
102
}
330
C
100
AcDbDictionary
281
     1
  3
Normal
350
F
100
AcDbDictionaryWithDefault
340
F
  0
DICTIONARY
  5
47
102
{ACAD_REACTORS
330
C
102
}
330
C
100
AcDbDictionary
281
     1
  3
A0
350
48
  3
A1
350
49
  3
A2
350
4A
  3
A3
350
4B
  3
A4
350
4C
  3
A5
350
4D
  3
A6
350
4E
  3
A7
350
4F
  3
A8
350
50
  3
A9
350
51
  3
B0
350
52
  3
B1
350
53
  3
B2
350
54
  3
B3
350
55
  3
B4
350
56
  3
B5
350
57
  3
B6
350
58
  0
XRECORD
  5
B4
102
{ACAD_REACTORS
330
C
102
}
330
C
100
AcDbXrecord
280
     1
  1
DWGPROPS COOKIE
  2

  3

  4

  6

  7

  8
imaizumi
  9

300
=
301
=
302
=
303
=
304
=
305
=
306
=
307
=
308
=
309
=
 40
0.0
 41
2461263.051582234
 42
2461263.051582651
  1

 90
        0
  0
LAYOUT
  5
1E
102
{ACAD_REACTORS
330
1A
102
}
330
1A
100
AcDbPlotSettings
  1

  2
none_device
  4

  6

 40
0.0
 41
0.0
 42
0.0
 43
0.0
 44
0.0
 45
0.0
 46
0.0
 47
0.0
 48
0.0
 49
0.0
140
0.0
141
0.0
142
1.0
143
1.0
 70
   688
 72
     1
 73
     0
 74
     5
  7

 75
    16
147
1.0
148
0.0
149
0.0
100
AcDbLayout
  1
Layout1
 70
     1
 71
     1
 10
0.0
 20
0.0
 11
420.0
 21
297.0
 12
0.0
 22
0.0
 32
0.0
 14
1.0000000000E+20
 24
1.0000000000E+20
 34
1.0000000000E+20
 15
-1.0000000000E+20
 25
-1.0000000000E+20
 35
-1.0000000000E+20
146
0.0
 13
0.0
 23
0.0
 33
0.0
 16
1.0
 26
0.0
 36
0.0
 17
0.0
 27
1.0
 37
0.0
 76
     0
330
1B
  0
LAYOUT
  5
26
102
{ACAD_REACTORS
330
1A
102
}
330
1A
100
AcDbPlotSettings
  1

  2
none_device
  4

  6

 40
0.0
 41
0.0
 42
0.0
 43
0.0
 44
0.0
 45
0.0
 46
0.0
 47
0.0
 48
0.0
 49
0.0
140
0.0
141
0.0
142
1.0
143
1.0
 70
   688
 72
     1
 73
     0
 74
     5
  7

 75
    16
147
1.0
148
0.0
149
0.0
100
AcDbLayout
  1
Layout2
 70
     1
 71
     2
 10
0.0
 20
0.0
 11
0.0
 21
0.0
 12
0.0
 22
0.0
 32
0.0
 14
0.0
 24
0.0
 34
0.0
 15
0.0
 25
0.0
 35
0.0
146
0.0
 13
0.0
 23
0.0
 33
0.0
 16
1.0
 26
0.0
 36
0.0
 17
0.0
 27
1.0
 37
0.0
 76
     0
330
23
  0
LAYOUT
  5
22
102
{ACAD_REACTORS
330
1A
102
}
330
1A
100
AcDbPlotSettings
  1

  2
none_device
  4
Letter_(8.50_x_11.00_Inches)
  6

 40
6.35
 41
6.35
 42
6.35000508
 43
6.35000508
 44
215.9
 45
279.4
 46
0.0
 47
0.0
 48
0.0
 49
0.0
140
0.0
141
0.0
142
1.0
143
1.0
 70
  1712
 72
     1
 73
     0
 74
     0
  7

 75
     0
147
1.0
148
0.0
149
0.0
100
AcDbLayout
  1
Model
 70
     1
 71
     0
 10
0.0
 20
0.0
 11
841.0
 21
594.0
 12
0.0
 22
0.0
 32
0.0
 14
0.0
 24
0.0
 34
0.0
 15
841.0
 25
594.0
 35
0.0
146
0.0
 13
0.0
 23
0.0
 33
0.0
 16
1.0
 26
0.0
 36
0.0
 17
0.0
 27
1.0
 37
0.0
 76
     0
330
1F
331
29
  0
MLINESTYLE
  5
18
102
{ACAD_REACTORS
330
17
102
}
330
17
100
AcDbMlineStyle
  2
Standard
 70
     0
  3

 62
   256
 51
90.0
 52
90.0
 71
     2
 49
0.5
 62
   256
  6
BYLAYER
 49
-0.5
 62
   256
  6
BYLAYER
  0
ACDBPLACEHOLDER
  5
F
102
{ACAD_REACTORS
330
E
102
}
330
E
  0
SCALE
  5
48
102
{ACAD_REACTORS
330
47
102
}
330
47
100
AcDbScale
 70
     0
300
1:1
140
1.0
141
1.0
290
     1
  0
SCALE
  5
49
102
{ACAD_REACTORS
330
47
102
}
330
47
100
AcDbScale
 70
     0
300
1:2
140
1.0
141
2.0
290
     0
  0
SCALE
  5
4A
102
{ACAD_REACTORS
330
47
102
}
330
47
100
AcDbScale
 70
     0
300
1:4
140
1.0
141
4.0
290
     0
  0
SCALE
  5
4B
102
{ACAD_REACTORS
330
47
102
}
330
47
100
AcDbScale
 70
     0
300
1:5
140
1.0
141
5.0
290
     0
  0
SCALE
  5
4C
102
{ACAD_REACTORS
330
47
102
}
330
47
100
AcDbScale
 70
     0
300
1:8
140
1.0
141
8.0
290
     0
  0
SCALE
  5
4D
102
{ACAD_REACTORS
330
47
102
}
330
47
100
AcDbScale
 70
     0
300
1:10
140
1.0
141
10.0
290
     0
  0
SCALE
  5
4E
102
{ACAD_REACTORS
330
47
102
}
330
47
100
AcDbScale
 70
     0
300
1:16
140
1.0
141
16.0
290
     0
  0
SCALE
  5
4F
102
{ACAD_REACTORS
330
47
102
}
330
47
100
AcDbScale
 70
     0
300
1:20
140
1.0
141
20.0
290
     0
  0
SCALE
  5
50
102
{ACAD_REACTORS
330
47
102
}
330
47
100
AcDbScale
 70
     0
300
1:30
140
1.0
141
30.0
290
     0
  0
SCALE
  5
51
102
{ACAD_REACTORS
330
47
102
}
330
47
100
AcDbScale
 70
     0
300
1:40
140
1.0
141
40.0
290
     0
  0
SCALE
  5
52
102
{ACAD_REACTORS
330
47
102
}
330
47
100
AcDbScale
 70
     0
300
1:50
140
1.0
141
50.0
290
     0
  0
SCALE
  5
53
102
{ACAD_REACTORS
330
47
102
}
330
47
100
AcDbScale
 70
     0
300
1:100
140
1.0
141
100.0
290
     0
  0
SCALE
  5
54
102
{ACAD_REACTORS
330
47
102
}
330
47
100
AcDbScale
 70
     0
300
2:1
140
2.0
141
1.0
290
     0
  0
SCALE
  5
55
102
{ACAD_REACTORS
330
47
102
}
330
47
100
AcDbScale
 70
     0
300
4:1
140
4.0
141
1.0
290
     0
  0
SCALE
  5
56
102
{ACAD_REACTORS
330
47
102
}
330
47
100
AcDbScale
 70
     0
300
8:1
140
8.0
141
1.0
290
     0
  0
SCALE
  5
57
102
{ACAD_REACTORS
330
47
102
}
330
47
100
AcDbScale
 70
     0
300
10:1
140
10.0
141
1.0
290
     0
  0
SCALE
  5
58
102
{ACAD_REACTORS
330
47
102
}
330
47
100
AcDbScale
 70
     0
300
100:1
140
100.0
141
1.0
290
     0
  0
ENDSEC
  0
EOF
