  0
SECTION
  2
HEADER
  9
$ACADVER
  1
AC1015
  9
$ACADMAINTVER
 70
     6
  9
$DWGCODEPAGE
  3
DOS932
  9
$INSBASE
 10
0.0
 20
0.0
 30
0.0
  9
$EXTMIN
 10
0.0
 20
0.0
 30
0.0
  9
$EXTMAX
 10
841.0
 20
594.0
 30
0.0
  9
$LIMMIN
 10
0.0
 20
0.0
  9
$LIMMAX
 10
841.0
 20
594.0
  9
$ORTHOMODE
 70
     0
  9
$REGENMODE
 70
     1
  9
$FILLMODE
 70
     1
  9
$QTEXTMODE
 70
     0
  9
$MIRRTEXT
 70
     1
  9
$LTSCALE
 40
1.0
  9
$ATTMODE
 70
     1
  9
$TEXTSIZE
 40
3.5
  9
$TRACEWID
 40
1.0
  9
$TEXTSTYLE
  7
Standard
  9
$CLAYER
  8
0
  9
$CELTYPE
  6
ByLayer
  9
$CECOLOR
 62
   256
  9
$CELTSCALE
 40
1.0
  9
$DISPSILH
 70
     0
  9
$DIMSCALE
 40
1.0
  9
$DIMASZ
 40
3.302
  9
$DIMEXO
 40
1.0
  9
$DIMDLI
 40
3.75
  9
$DIMRND
 40
0.0
  9
$DIMDLE
 40
0.0
  9
$DIMEXE
 40
1.0
  9
$DIMTP
 40
0.0
  9
$DIMTM
 40
0.0
  9
$DIMTXT
 40
3.5
  9
$DIMCEN
 40
2.5
  9
$DIMTSZ
 40
0.0
  9
$DIMTOL
 70
     0
  9
$DIMLIM
 70
     0
  9
$DIMTIH
 70
     1
  9
$DIMTOH
 70
     1
  9
$DIMSE1
 70
     0
  9
$DIMSE2
 70
     0
  9
$DIMTAD
 70
     1
  9
$DIMZIN
 70
     1
  9
$DIMBLK
  1

  9
$DIMASO
 70
     1
  9
$DIMSHO
 70
     1
  9
$DIMPOST
  1

  9
$DIMAPOST
  1

  9
$DIMALT
 70
     0
  9
$DIMALTD
 70
     3
  9
$DIMALTF
 40
0.0393700787
  9
$DIMLFAC
 40
0.5
  9
$DIMTOFL
 70
     1
  9
$DIMTVP
 40
0.0
  9
$DIMTIX
 70
     0
  9
$DIMSOXD
 70
     0
  9
$DIMSAH
 70
     0
  9
$DIMBLK1
  1

  9
$DIMBLK2
  1

  9
$DIMSTYLE
  2
ISO-25
  9
$DIMCLRD
 70
     0
  9
$DIMCLRE
 70
     0
  9
$DIMCLRT
 70
     0
  9
$DIMTFAC
 40
1.0
  9
$DIMGAP
 40
1.524
  9
$DIMJUST
 70
     0
  9
$DIMSD1
 70
     0
  9
$DIMSD2
 70
     0
  9
$DIMTOLJ
 70
     0
  9
$DIMTZIN
 70
     1
  9
$DIMALTZ
 70
     0
  9
$DIMALTTZ
 70
     0
  9
$DIMUPT
 70
     0
  9
$DIMDEC
 70
     2
  9
$DIMTDEC
 70
     2
  9
$DIMALTU
 70
     2
  9
$DIMALTTD
 70
     3
  9
$DIMTXSTY
  7
Standard
  9
$DIMAUNIT
 70
     0
  9
$DIMADEC
 70
     2
  9
$DIMALTRND
 40
0.0
  9
$DIMAZIN
 70
     0
  9
$DIMDSEP
 70
    44
  9
$DIMATFIT
 70
     3
  9
$DIMFRAC
 70
     0
  9
$DIMLDRBLK
  1

  9
$DIMLUNIT
 70
     2
  9
$DIMLWD
 70
    -2
  9
$DIMLWE
 70
    -2
  9
$DIMTMOVE
 70
     0
  9
$LUNITS
 70
     2
  9
$LUPREC
 70
     2
  9
$SKETCHINC
 40
1.0
  9
$FILLETRAD
 40
0.0
  9
$AUNITS
 70
     0
  9
$AUPREC
 70
     2
  9
$MENU
  1
.
  9
$ELEVATION
 40
0.0
  9
$PELEVATION
 40
0.0
  9
$THICKNESS
 40
0.0
  9
$LIMCHECK
 70
     0
  9
$CHAMFERA
 40
0.0
  9
$CHAMFERB
 40
0.0
  9
$CHAMFERC
 40
0.0
  9
$CHAMFERD
 40
0.0
  9
$SKPOLY
 70
     0
  9
$TDCREATE
 40
2461263.428378924
  9
$TDUCREATE
 40
2461263.053378924
  9
$TDUPDATE
 40
2461263.428379456
  9
$TDUUPDATE
 40
2461263.053379456
  9
$TDINDWG
 40
0.0000000116
  9
$TDUSRTIMER
 40
0.0000000116
  9
$USRTIMER
 70
     1
  9
$ANGBASE
 50
0.0
  9
$ANGDIR
 70
     0
  9
$PDMODE
 70
     0
  9
$PDSIZE
 40
-1.0
  9
$PLINEWID
 40
0.0
  9
$SPLFRAME
 70
     0
  9
$SPLINETYPE
 70
     6
  9
$SPLINESEGS
 70
     8
  9
$HANDSEED
  5
D6
  9
$SURFTAB1
 70
     6
  9
$SURFTAB2
 70
     6
  9
$SURFTYPE
 70
     6
  9
$SURFU
 70
     6
  9
$SURFV
 70
     6
  9
$UCSBASE
  2

  9
$UCSNAME
  2

  9
$UCSORG
 10
0.0
 20
0.0
 30
0.0
  9
$UCSXDIR
 10
1.0
 20
0.0
 30
0.0
  9
$UCSYDIR
 10
0.0
 20
1.0
 30
0.0
  9
$UCSORTHOREF
  2

  9
$UCSORTHOVIEW
 70
     0
  9
$UCSORGTOP
 10
0.0
 20
0.0
 30
0.0
  9
$UCSORGBOTTOM
 10
0.0
 20
0.0
 30
0.0
  9
$UCSORGLEFT
 10
0.0
 20
0.0
 30
0.0
  9
$UCSORGRIGHT
 10
0.0
 20
0.0
 30
0.0
  9
$UCSORGFRONT
 10
0.0
 20
0.0
 30
0.0
  9
$UCSORGBACK
 10
0.0
 20
0.0
 30
0.0
  9
$PUCSBASE
  2

  9
$PUCSNAME
  2

  9
$PUCSORG
 10
0.0
 20
0.0
 30
0.0
  9
$PUCSXDIR
 10
1.0
 20
0.0
 30
0.0
  9
$PUCSYDIR
 10
0.0
 20
1.0
 30
0.0
  9
$PUCSORTHOREF
  2

  9
$PUCSORTHOVIEW
 70
     0
  9
$PUCSORGTOP
 10
0.0
 20
0.0
 30
0.0
  9
$PUCSORGBOTTOM
 10
0.0
 20
0.0
 30
0.0
  9
$PUCSORGLEFT
 10
0.0
 20
0.0
 30
0.0
  9
$PUCSORGRIGHT
 10
0.0
 20
0.0
 30
0.0
  9
$PUCSORGFRONT
 10
0.0
 20
0.0
 30
0.0
  9
$PUCSORGBACK
 10
0.0
 20
0.0
 30
0.0
  9
$USERI1
 70
     0
  9
$USERI2
 70
     0
  9
$USERI3
 70
     0
  9
$USERI4
 70
     0
  9
$USERI5
 70
     0
  9
$USERR1
 40
0.0
  9
$USERR2
 40
0.0
  9
$USERR3
 40
0.0
  9
$USERR4
 40
0.0
  9
$USERR5
 40
0.0
  9
$WORLDVIEW
 70
     1
  9
$SHADEDGE
 70
     3
  9
$SHADEDIF
 70
    70
  9
$TILEMODE
 70
     1
  9
$MAXACTVP
 70
    64
  9
$PINSBASE
 10
0.0
 20
0.0
 30
0.0
  9
$PLIMCHECK
 70
     0
  9
$PEXTMIN
 10
1.0000000000E+20
 20
1.0000000000E+20
 30
1.0000000000E+20
  9
$PEXTMAX
 10
-1.0000000000E+20
 20
-1.0000000000E+20
 30
-1.0000000000E+20
  9
$PLIMMIN
 10
0.0
 20
0.0
  9
$PLIMMAX
 10
420.0
 20
297.0
  9
$UNITMODE
 70
     0
  9
$VISRETAIN
 70
     1
  9
$PLINEGEN
 70
     0
  9
$PSLTSCALE
 70
     1
  9
$TREEDEPTH
 70
  3020
  9
$CMLSTYLE
  2
Standard
  9
$CMLJUST
 70
     0
  9
$CMLSCALE
 40
20.0
  9
$PROXYGRAPHICS
 70
     1
  9
$MEASUREMENT
 70
     1
  9
$CELWEIGHT
370
    -1
  9
$ENDCAPS
280
     0
  9
$JOINSTYLE
280
     0
  9
$LWDISPLAY
290
     1
  9
$INSUNITS
 70
     4
  9
$HYPERLINKBASE
  1

  9
$STYLESHEET
  1

  9
$XEDIT
290
     1
  9
$CEPSNTYPE
380
     0
  9
$PSTYLEMODE
290
     1
  9
$FINGERPRINTGUID
  2
{4733dcad-1531-41df-bd9f-1722c409eb56}
  9
$VERSIONGUID
  2
{FAEB1C32-E019-11D5-929B-00C0DF256EC4}
  9
$EXTNAMES
290
     1
  9
$PSVPSCALE
 40
0.0
  9
$OLESTARTUP
290
     0
  0
ENDSEC
  0
SECTION
  2
CLASSES
  0
CLASS
  1
ACDBDICTIONARYWDFLT
  2
AcDbDictionaryWithDefault
  3
ObjectDBX Classes
 90
        0
280
     0
281
     0
  0
CLASS
  1
VISUALSTYLE
  2
AcDbVisualStyle
  3
ObjectDBX Classes
 90
     4095
280
     0
281
     0
  0
CLASS
  1
MATERIAL
  2
AcDbMaterial
  3
ObjectDBX Classes
 90
     1153
280
     0
281
     0
  0
CLASS
  1
SCALE
  2
AcDbScale
  3
ObjectDBX Classes
 90
     1153
280
     0
281
     0
  0
CLASS
  1
TABLESTYLE
  2
AcDbTableStyle
  3
ObjectDBX Classes
 90
     4095
280
     0
281
     0
  0
CLASS
  1
MLEADERSTYLE
  2
AcDbMLeaderStyle
  3
ACDB_MLEADERSTYLE_CLASS
 90
     4095
280
     0
281
     0
  0
CLASS
  1
SUN
  2
AcDbSun
  3
SCENEOE
 90
     1153
280
     0
281
     0
  0
CLASS
  1
ACDBPLACEHOLDER
  2
AcDbPlaceHolder
  3
ObjectDBX Classes
 90
        0
280
     0
281
     0
  0
CLASS
  1
LAYOUT
  2
AcDbLayout
  3
ObjectDBX Classes
 90
        0
280
     0
281
     0
  0
ENDSEC
  0
SECTION
  2
TABLES
  0
TABLE
  2
VPORT
  5
8
330
0
100
AcDbSymbolTable
 70
     1
  0
VPORT
  5
29
330
8
100
AcDbSymbolTableRecord
100
AcDbViewportTableRecord
  2
*Active
 70
     0
 10
0.0
 20
0.0
 11
1.0
 21
1.0
 12
420.5
 22
297.0
 13
0.0
 23
0.0
 14
10.0
 24
10.0
 15
10.0
 25
10.0
 16
0.0
 26
0.0
 36
1.0
 17
0.0
 27
0.0
 37
0.0
 40
594.0
 41
1.4158249158
 42
50.0
 43
0.0
 44
0.0
 50
0.0
 51
0.0
 71
     0
 72
  2000
 73
     1
 74
     3
 75
     0
 76
     0
 77
     0
 78
     0
281
     0
 65
     1
110
0.0
120
0.0
130
0.0
111
1.0
121
0.0
131
0.0
112
0.0
122
1.0
132
0.0
 79
     0
146
0.0
  0
ENDTAB
  0
TABLE
  2
LTYPE
  5
5
330
0
100
AcDbSymbolTable
 70
     6
  0
LTYPE
  5
14
330
5
100
AcDbSymbolTableRecord
100
AcDbLinetypeTableRecord
  2
ByBlock
 70
     0
  3

 72
    65
 73
     0
 40
0.0
  0
LTYPE
  5
15
330
5
100
AcDbSymbolTableRecord
100
AcDbLinetypeTableRecord
  2
ByLayer
 70
     0
  3

 72
    65
 73
     0
 40
0.0
  0
LTYPE
  5
16
330
5
100
AcDbSymbolTableRecord
100
AcDbLinetypeTableRecord
  2
Continuous
 70
     0
  3
Solid line
 72
    65
 73
     0
 40
0.0
  0
LTYPE
  5
5E
330
5
100
AcDbSymbolTableRecord
100
AcDbLinetypeTableRecord
  2
HIDDEN
 70
     0
  3
Hidden __ __ __ __ __ __ __ __ __ __ __ __ __ __
 72
    65
 73
     2
 40
1.905
 49
1.27
 74
     0
 49
-0.635
 74
     0
  0
LTYPE
  5
5F
330
5
100
AcDbSymbolTableRecord
100
AcDbLinetypeTableRecord
  2
PHANTOM
 70
     0
  3
Phantom ______  __  __  ______  __  __  ______
 72
    65
 73
     6
 40
12.7
 49
6.35
 74
     0
 49
-1.27
 74
     0
 49
1.27
 74
     0
 49
-1.27
 74
     0
 49
1.27
 74
     0
 49
-1.27
 74
     0
  0
LTYPE
  5
60
330
5
100
AcDbSymbolTableRecord
100
AcDbLinetypeTableRecord
  2
CENTER
 70
     0
  3
Center ____ _ ____ _ ____ _ ____ _ ____ _ ____
 72
    65
 73
     4
 40
10.16
 49
6.35
 74
     0
 49
-1.27
 74
     0
 49
1.27
 74
     0
 49
-1.27
 74
     0
  0
LTYPE
  5
61
330
5
100
AcDbSymbolTableRecord
100
AcDbLinetypeTableRecord
  2
CENTERX2
 70
     0
  3
Center (2x) ________  __  ________  __  _____
 72
    65
 73
     4
 40
20.32
 49
12.7
 74
     0
 49
-2.54
 74
     0
 49
2.54
 74
     0
 49
-2.54
 74
     0
  0
LTYPE
  5
62
330
5
100
AcDbSymbolTableRecord
100
AcDbLinetypeTableRecord
  2
DOT2
 70
     0
  3
Dot (.5x) ........................................
 72
    65
 73
     2
 40
0.635
 49
0.0
 74
     0
 49
-0.635
 74
     0
  0
ENDTAB
  0
TABLE
  2
LAYER
  5
2
330
0
100
AcDbSymbolTable
 70
     1
  0
LAYER
  5
10
330
2
100
AcDbSymbolTableRecord
100
AcDbLayerTableRecord
  2
0
 70
     0
 62
     7
  6
Continuous
370
    -3
390
F
  0
ENDTAB
  0
TABLE
  2
STYLE
  5
3
330
0
100
AcDbSymbolTable
 70
     1
  0
STYLE
  5
11
330
3
100
AcDbSymbolTableRecord
100
AcDbTextStyleTableRecord
  2
Standard
 70
     0
 40
0.0
 41
1.0
 50
0.0
 71
     0
 42
3.5
  3
txt
  4
bigfont
  0
ENDTAB
  0
TABLE
  2
VIEW
  5
6
330
0
100
AcDbSymbolTable
 70
     0
  0
ENDTAB
  0
TABLE
  2
UCS
  5
7
330
0
100
AcDbSymbolTable
 70
     0
  0
ENDTAB
  0
TABLE
  2
APPID
  5
9
330
0
100
AcDbSymbolTable
 70
     1
  0
APPID
  5
12
330
9
100
AcDbSymbolTableRecord
100
AcDbRegAppTableRecord
  2
ACAD
 70
     0
  0
ENDTAB
  0
TABLE
  2
DIMSTYLE
  5
A
330
0
100
AcDbSymbolTable
 70
     1
100
AcDbDimStyleTable
  0
DIMSTYLE
105
27
330
A
100
AcDbSymbolTableRecord
100
AcDbDimStyleTableRecord
  2
ISO-25
 70
     0
 41
2.5
 42
0.625
 43
3.75
 44
1.25
 73
     0
 74
     0
 77
     1
 78
     8
140
2.5
141
2.5
143
0.0393700787
147
0.625
171
     3
172
     1
178
     0
271
     2
272
     2
274
     3
278
    44
283
     0
284
     8
340
11
  0
ENDTAB
  0
TABLE
  2
BLOCK_RECORD
  5
1
330
0
100
AcDbSymbolTable
 70
     1
  0
BLOCK_RECORD
  5
1F
330
1
100
AcDbSymbolTableRecord
100
AcDbBlockTableRecord
  2
*Model_Space
340
22
  0
BLOCK_RECORD
  5
1B
330
1
100
AcDbSymbolTableRecord
100
AcDbBlockTableRecord
  2
*Paper_Space
340
1E
  0
BLOCK_RECORD
  5
23
330
1
100
AcDbSymbolTableRecord
100
AcDbBlockTableRecord
  2
*Paper_Space0
340
26
  0
ENDTAB
  0
ENDSEC
  0
SECTION
  2
BLOCKS
  0
BLOCK
  5
20
330
1F
100
AcDbEntity
  8
0
100
AcDbBlockBegin
  2
*Model_Space
 70
     0
 10
0.0
 20
0.0
 30
0.0
  3
*Model_Space
  1

  0
ENDBLK
  5
21
330
1F
100
AcDbEntity
  8
0
100
AcDbBlockEnd
  0
BLOCK
  5
1C
330
1B
100
AcDbEntity
 67
     1
  8
0
100
AcDbBlockBegin
  2
*Paper_Space
 70
     0
 10
0.0
 20
0.0
 30
0.0
  3
*Paper_Space
  1

  0
ENDBLK
  5
1D
330
1B
100
AcDbEntity
 67
     1
  8
0
100
AcDbBlockEnd
  0
BLOCK
  5
24
330
23
100
AcDbEntity
  8
0
100
AcDbBlockBegin
  2
*Paper_Space0
 70
     0
 10
0.0
 20
0.0
 30
0.0
  3
*Paper_Space0
  1

  0
ENDBLK
  5
25
330
23
100
AcDbEntity
  8
0
100
AcDbBlockEnd
  0
ENDSEC
  0
SECTION
  2
ENTITIES
  0
LINE
  5
63
330
1F
100
AcDbEntity
  8
0
  6
Continuous
 62
     7
370
    25
100
AcDbLine
 10
345.9411397655
 20
255.5985935322
 30
0.0
 11
345.9411397655
 21
208.5985935322
 31
0.0
  0
LINE
  5
64
330
1F
100
AcDbEntity
  8
0
  6
Continuous
 62
     7
370
    25
100
AcDbLine
 10
348.2411397655
 20
255.5985935322
 30
0.0
 11
348.2411397655
 21
208.5985935322
 31
0.0
  0
LINE
  5
65
330
1F
100
AcDbEntity
  8
0
  6
Continuous
 62
     7
370
    25
100
AcDbLine
 10
345.9411397655
 20
255.5985935322
 30
0.0
 11
348.2411397655
 21
255.5985935322
 31
0.0
  0
LINE
  5
66
330
1F
100
AcDbEntity
  8
0
  6
Continuous
 62
     7
370
    25
100
AcDbLine
 10
345.9411397655
 20
208.5985935322
 30
0.0
 11
348.2411397655
 21
208.5985935322
 31
0.0
  0
LINE
  5
67
330
1F
100
AcDbEntity
  8
0
  6
Continuous
 62
     7
370
    25
100
AcDbLine
 10
383.3757983058
 20
255.5985935322
 30
0.0
 11
383.3757983058
 21
208.5985935322
 31
0.0
  0
ARC
  5
68
330
1F
100
AcDbEntity
  8
0
  6
Continuous
 62
     7
370
    25
100
AcDbCircle
 10
373.9788720979
 20
224.0044570858
 30
0.0
 40
1.881741362881583
100
AcDbArc
 50
177.1325106507
 51
2.8674893493
  0
ARC
  5
69
330
1F
100
AcDbEntity
  8
0
  6
Continuous
 62
     7
370
    25
100
AcDbCircle
 10
373.9788720979
 20
224.1927299786
 30
0.0
 40
1.881741362881582
100
AcDbArc
 50
357.1325106507
 51
182.8674893493
  0
ARC
  5
6A
330
1F
100
AcDbEntity
  8
0
  6
Continuous
 62
     7
370
    25
100
AcDbCircle
 10
373.9788720979
 20
240.5044570858
 30
0.0
 40
1.881741362881583
100
AcDbArc
 50
177.1325106507
 51
2.8674893493
  0
ARC
  5
6B
330
1F
100
AcDbEntity
  8
0
  6
Continuous
 62
     7
370
    25
100
AcDbCircle
 10
373.9788720979
 20
240.6927299786
 30
0.0
 40
1.881741362881576
100
AcDbArc
 50
357.1325106507
 51
182.8674893493
  0
LINE
  5
6C
330
1F
100
AcDbEntity
  8
0
  6
Continuous
 62
     7
370
    25
100
AcDbLine
 10
348.2411397655
 20
255.5985935322
 30
0.0
 11
383.3757983058
 21
255.5985935322
 31
0.0
  0
LINE
  5
6D
330
1F
100
AcDbEntity
  8
0
  6
Continuous
 62
     7
370
    25
100
AcDbLine
 10
348.2411397655
 20
208.5985935322
 30
0.0
 11
383.3757983058
 21
208.5985935322
 31
0.0
  0
ARC
  5
6E
330
1F
100
AcDbEntity
  8
0
  6
Continuous
 62
     7
370
    25
100
AcDbCircle
 10
373.1026557363
 20
240.5522667146
 30
0.0
 40
1.969500201398782
100
AcDbArc
 50
284.1928056208
 51
1.3478424411
  0
ARC
  5
6F
330
1F
100
AcDbEntity
  8
0
  6
Continuous
 62
     7
370
    25
100
AcDbCircle
 10
373.097678043
 20
240.6411380098
 30
0.0
 40
1.974391397421374
100
AcDbArc
 50
358.7652865117
 51
75.6940654264
  0
ARC
  5
70
330
1F
100
AcDbEntity
  8
0
  6
Continuous
 62
     7
370
    25
100
AcDbCircle
 10
373.097678043
 20
224.1411380098
 30
0.0
 40
1.974391397421608
100
AcDbArc
 50
358.7652865117
 51
75.6940654264
  0
ARC
  5
71
330
1F
100
AcDbEntity
  8
0
  6
Continuous
 62
     7
370
    25
100
AcDbCircle
 10
373.1026557363
 20
224.0522667146
 30
0.0
 40
1.969500201398891
100
AcDbArc
 50
284.1928056208
 51
1.3478424411
  0
ARC
  5
72
330
1F
100
AcDbEntity
  8
0
  6
HIDDEN
 62
     7
370
    18
100
AcDbCircle
 10
373.2226063329
 20
240.5195111148
 30
0.0
 40
1.91140248591812
100
AcDbArc
 50
177.6287660453
 51
280.9459490267
  0
ARC
  5
73
330
1F
100
AcDbEntity
  8
0
  6
HIDDEN
 62
     7
370
    18
100
AcDbCircle
 10
373.2226063329
 20
240.6776759496
 30
0.0
 40
1.911402485918283
100
AcDbArc
 50
79.0540509733
 51
182.3712339547
  0
ARC
  5
74
330
1F
100
AcDbEntity
  8
0
  6
HIDDEN
 62
     7
370
    18
100
AcDbCircle
 10
373.2226063329
 20
224.1776759496
 30
0.0
 40
1.911402485918284
100
AcDbArc
 50
79.0540509733
 51
182.3712339547
  0
ARC
  5
75
330
1F
100
AcDbEntity
  8
0
  6
HIDDEN
 62
     7
370
    18
100
AcDbCircle
 10
373.2226063329
 20
224.0195111148
 30
0.0
 40
1.911402485918197
100
AcDbArc
 50
177.6287660453
 51
280.9459490267
  0
LINE
  5
76
330
1F
100
AcDbEntity
  8
0
  6
HIDDEN
 62
     7
370
    18
100
AcDbLine
 10
382.5891519762
 20
255.5985935322
 30
0.0
 11
382.5891519762
 21
208.5985935322
 31
0.0
  0
LINE
  5
77
330
1F
100
AcDbEntity
  8
0
  6
HIDDEN
 62
     7
370
    18
100
AcDbLine
 10
348.2411397655
 20
248.0985935322
 30
0.0
 11
345.9411397655
 21
248.0985935322
 31
0.0
  0
LINE
  5
78
330
1F
100
AcDbEntity
  8
0
  6
HIDDEN
 62
     7
370
    18
100
AcDbLine
 10
345.9411397655
 20
242.0985935322
 30
0.0
 11
348.2411397655
 21
242.0985935322
 31
0.0
  0
LINE
  5
79
330
1F
100
AcDbEntity
  8
0
  6
HIDDEN
 62
     7
370
    18
100
AcDbLine
 10
348.2411397655
 20
221.5985935322
 30
0.0
 11
345.9411397655
 21
221.5985935322
 31
0.0
  0
LINE
  5
7A
330
1F
100
AcDbEntity
  8
0
  6
HIDDEN
 62
     7
370
    18
100
AcDbLine
 10
345.9411397655
 20
215.5985935322
 30
0.0
 11
348.2411397655
 21
215.5985935322
 31
0.0
  0
LINE
  5
7B
330
1F
100
AcDbEntity
  8
0
  6
HIDDEN
 62
     7
370
    18
100
AcDbLine
 10
373.1922257683
 20
238.5985935322
 30
0.0
 11
373.9788720979
 21
238.5985935322
 31
0.0
  0
LINE
  5
7C
330
1F
100
AcDbEntity
  8
0
  6
HIDDEN
 62
     7
370
    18
100
AcDbLine
 10
373.9788720979
 20
242.5985935322
 30
0.0
 11
373.1922257683
 21
242.5985935322
 31
0.0
  0
LINE
  5
7D
330
1F
100
AcDbEntity
  8
0
  6
HIDDEN
 62
     7
370
    18
100
AcDbLine
 10
373.9788720979
 20
226.0985935322
 30
0.0
 11
373.1922257683
 21
226.0985935322
 31
0.0
  0
LINE
  5
7E
330
1F
100
AcDbEntity
  8
0
  6
HIDDEN
 62
     7
370
    18
100
AcDbLine
 10
373.1922257683
 20
222.0985935322
 30
0.0
 11
373.9788720979
 21
222.0985935322
 31
0.0
  0
LINE
  5
7F
330
1F
100
AcDbEntity
  8
0
  6
Continuous
 62
     7
370
    25
100
AcDbLine
 10
345.9411397655
 20
352.6001298673
 30
0.0
 11
345.9411397655
 21
337.2106072051
 31
0.0
  0
ARC
  5
80
330
1F
100
AcDbEntity
  8
0
  6
Continuous
 62
     7
370
    25
100
AcDbCircle
 10
348.2411397655
 20
352.6001298673
 30
0.0
 40
2.299999999999955
100
AcDbArc
 50
110.0
 51
180.0
  0
LINE
  5
81
330
1F
100
AcDbEntity
  8
0
  6
Continuous
 62
     7
370
    25
100
AcDbLine
 10
348.2411397655
 20
352.6001298673
 30
0.0
 11
383.3757983058
 21
365.388099767
 31
0.0
  0
LINE
  5
82
330
1F
100
AcDbEntity
  8
0
  6
Continuous
 62
     7
370
    25
100
AcDbLine
 10
348.2411397655
 20
337.2106072051
 30
0.0
 11
348.2411397655
 21
352.6001298673
 31
0.0
  0
LINE
  5
83
330
1F
100
AcDbEntity
  8
0
  6
Continuous
 62
     7
370
    25
100
AcDbLine
 10
345.9411397655
 20
337.2106072051
 30
0.0
 11
348.2411397655
 21
337.2106072051
 31
0.0
  0
LINE
  5
84
330
1F
100
AcDbEntity
  8
0
  6
Continuous
 62
     7
370
    25
100
AcDbLine
 10
383.3757983058
 20
365.388099767
 30
0.0
 11
382.5891519762
 21
367.5493927949
 31
0.0
  0
LINE
  5
85
330
1F
100
AcDbEntity
  8
0
  6
Continuous
 62
     7
370
    25
100
AcDbLine
 10
382.5891519762
 20
367.5493927949
 30
0.0
 11
347.4544934359
 21
354.7614228951
 31
0.0
  0
LINE
  5
86
330
1F
100
AcDbEntity
  8
0
  6
HIDDEN
 62
     7
370
    18
100
AcDbLine
 10
345.9411397655
 20
348.2106072051
 30
0.0
 11
348.2411397655
 21
348.2106072051
 31
0.0
  0
LINE
  5
87
330
1F
100
AcDbEntity
  8
0
  6
HIDDEN
 62
     7
370
    18
100
AcDbLine
 10
345.9411397655
 20
342.2106072051
 30
0.0
 11
348.2411397655
 21
342.2106072051
 31
0.0
  0
LINE
  5
88
330
1F
100
AcDbEntity
  8
0
  6
HIDDEN
 62
     7
370
    18
100
AcDbLine
 10
375.0716110099
 20
364.8132316482
 30
0.0
 11
375.8582573395
 21
362.6519386204
 31
0.0
  0
LINE
  5
89
330
1F
100
AcDbEntity
  8
0
  6
HIDDEN
 62
     7
370
    18
100
AcDbLine
 10
371.3128405267
 20
363.4451510749
 30
0.0
 11
372.0994868564
 21
361.2838580471
 31
0.0
  0
LINE
  5
8A
330
1F
100
AcDbEntity
  8
0
  6
Continuous
 62
     7
370
    25
100
AcDbLine
 10
484.1054290372
 20
255.5985935322
 30
0.0
 11
484.1054290372
 21
208.5985935322
 31
0.0
  0
LINE
  5
8B
330
1F
100
AcDbEntity
  8
0
  6
Continuous
 62
     7
370
    25
100
AcDbLine
 10
484.1054290372
 20
255.5985935322
 30
0.0
 11
486.266722065
 21
255.5985935322
 31
0.0
  0
LINE
  5
8C
330
1F
100
AcDbEntity
  8
0
  6
Continuous
 62
     7
370
    25
100
AcDbLine
 10
486.266722065
 20
255.5985935322
 30
0.0
 11
486.266722065
 21
208.5985935322
 31
0.0
  0
LINE
  5
8D
330
1F
100
AcDbEntity
  8
0
  6
Continuous
 62
     7
370
    25
100
AcDbLine
 10
484.1054290372
 20
208.5985935322
 30
0.0
 11
486.266722065
 21
208.5985935322
 31
0.0
  0
LINE
  5
8E
330
1F
100
AcDbEntity
  8
0
  6
Continuous
 62
     7
370
    25
100
AcDbLine
 10
471.3174591374
 20
255.5985935322
 30
0.0
 11
471.3174591374
 21
208.5985935322
 31
0.0
  0
LWPOLYLINE
  5
8F
330
1F
100
AcDbEntity
  8
0
  6
Continuous
 62
     7
370
    25
100
AcDbPolyline
 90
       21
 70
   128
 43
0.0
 10
480.0011873173
 20
224.0985935322
 10
480.0096089883
 20
223.7857246021
 10
480.0346666319
 20
223.4805595435
 10
480.0757432457
 20
223.1906125327
 10
480.1318273872
 20
222.9230230276
 10
480.2015380786
 20
222.6843799698
 10
480.2831588115
 20
222.4805595435
 10
480.3746798124
 20
222.3165804838
 10
480.4738475305
 20
222.1964804996
 10
480.5782201276
 20
222.123216851
 10
480.6852276039
 20
222.0985935322
 10
480.7922350802
 20
222.123216851
 10
480.8966076773
 20
222.1964804996
 10
480.9957753955
 20
222.3165804838
 10
481.0872963964
 20
222.4805595435
 10
481.1689171292
 20
222.6843799698
 10
481.2386278207
 20
222.9230230276
 10
481.2947119622
 20
223.1906125327
 10
481.335788576
 20
223.4805595435
 10
481.3608462196
 20
223.7857246021
 10
481.3692678906
 20
224.0985935322
  0
LWPOLYLINE
  5
90
330
1F
100
AcDbEntity
  8
0
  6
Continuous
 62
     7
370
    25
100
AcDbPolyline
 90
       21
 70
   128
 43
0.0
 10
481.3692678906
 20
224.0985935322
 10
481.3608462196
 20
224.4114624623
 10
481.335788576
 20
224.716627521
 10
481.2947119622
 20
225.0065745317
 10
481.2386278207
 20
225.2741640368
 10
481.1689171292
 20
225.5128070946
 10
481.0872963964
 20
225.716627521
 10
480.9957753955
 20
225.8806065806
 10
480.8966076773
 20
226.0007065648
 10
480.7922350802
 20
226.0739702134
 10
480.6852276039
 20
226.0985935322
 10
480.5782201276
 20
226.0739702134
 10
480.4738475305
 20
226.0007065648
 10
480.3746798124
 20
225.8806065806
 10
480.2831588115
 20
225.716627521
 10
480.2015380786
 20
225.5128070946
 10
480.1318273872
 20
225.2741640368
 10
480.0757432457
 20
225.0065745317
 10
480.0346666319
 20
224.716627521
 10
480.0096089883
 20
224.4114624623
 10
480.0011873173
 20
224.0985935322
  0
LWPOLYLINE
  5
91
330
1F
100
AcDbEntity
  8
0
  6
Continuous
 62
     7
370
    25
100
AcDbPolyline
 90
       21
 70
   128
 43
0.0
 10
480.0011873173
 20
240.5985935322
 10
480.0096089883
 20
240.2857246021
 10
480.0346666319
 20
239.9805595435
 10
480.0757432457
 20
239.6906125327
 10
480.1318273872
 20
239.4230230276
 10
480.2015380786
 20
239.1843799698
 10
480.2831588115
 20
238.9805595435
 10
480.3746798124
 20
238.8165804838
 10
480.4738475305
 20
238.6964804996
 10
480.5782201276
 20
238.623216851
 10
480.6852276039
 20
238.5985935322
 10
480.7922350802
 20
238.623216851
 10
480.8966076773
 20
238.6964804996
 10
480.9957753955
 20
238.8165804838
 10
481.0872963964
 20
238.9805595435
 10
481.1689171292
 20
239.1843799698
 10
481.2386278207
 20
239.4230230276
 10
481.2947119622
 20
239.6906125327
 10
481.335788576
 20
239.9805595435
 10
481.3608462196
 20
240.2857246021
 10
481.3692678906
 20
240.5985935322
  0
LWPOLYLINE
  5
92
330
1F
100
AcDbEntity
  8
0
  6
Continuous
 62
     7
370
    25
100
AcDbPolyline
 90
       21
 70
   128
 43
0.0
 10
481.3692678906
 20
240.5985935322
 10
481.3608462196
 20
240.9114624623
 10
481.335788576
 20
241.216627521
 10
481.2947119622
 20
241.5065745317
 10
481.2386278207
 20
241.7741640368
 10
481.1689171292
 20
242.0128070946
 10
481.0872963964
 20
242.216627521
 10
480.9957753955
 20
242.3806065806
 10
480.8966076773
 20
242.5007065648
 10
480.7922350802
 20
242.5739702134
 10
480.6852276039
 20
242.5985935322
 10
480.5782201276
 20
242.5739702134
 10
480.4738475305
 20
242.5007065648
 10
480.3746798124
 20
242.3806065806
 10
480.2831588115
 20
242.216627521
 10
480.2015380786
 20
242.0128070946
 10
480.1318273872
 20
241.7741640368
 10
480.0757432457
 20
241.5065745317
 10
480.0346666319
 20
241.216627521
 10
480.0096089883
 20
240.9114624623
 10
480.0011873173
 20
240.5985935322
  0
LINE
  5
93
330
1F
100
AcDbEntity
  8
0
  6
Continuous
 62
     7
370
    25
100
AcDbLine
 10
471.3174591374
 20
255.5985935322
 30
0.0
 11
484.1054290372
 21
255.5985935322
 31
0.0
  0
LINE
  5
94
330
1F
100
AcDbEntity
  8
0
  6
Continuous
 62
     7
370
    25
100
AcDbLine
 10
471.3174591374
 20
208.5985935322
 30
0.0
 11
484.1054290372
 21
208.5985935322
 31
0.0
  0
LINE
  5
95
330
1F
100
AcDbEntity
  8
0
  6
Continuous
 62
     7
370
    25
100
AcDbLine
 10
455.9279364753
 20
255.5985935322
 30
0.0
 11
455.9279364753
 21
208.5985935322
 31
0.0
  0
ARC
  5
96
330
1F
100
AcDbEntity
  8
0
  6
Continuous
 62
     7
370
    25
100
AcDbCircle
 10
463.9279364753
 20
218.5985935322
 30
0.0
 40
3.0
100
AcDbArc
 50
180.0
 51
0.0
  0
ARC
  5
97
330
1F
100
AcDbEntity
  8
0
  6
Continuous
 62
     7
370
    25
100
AcDbCircle
 10
463.9279364753
 20
218.5985935322
 30
0.0
 40
3.0
100
AcDbArc
 50
0.0
 51
180.0
  0
ARC
  5
98
330
1F
100
AcDbEntity
  8
0
  6
Continuous
 62
     7
370
    25
100
AcDbCircle
 10
463.9279364753
 20
245.0985935322
 30
0.0
 40
3.000000000000057
100
AcDbArc
 50
180.0
 51
0.0
  0
ARC
  5
99
330
1F
100
AcDbEntity
  8
0
  6
Continuous
 62
     7
370
    25
100
AcDbCircle
 10
463.9279364753
 20
245.0985935322
 30
0.0
 40
3.000000000000057
100
AcDbArc
 50
0.0
 51
180.0
  0
LINE
  5
9A
330
1F
100
AcDbEntity
  8
0
  6
Continuous
 62
     7
370
    25
100
AcDbLine
 10
455.9279364753
 20
255.5985935322
 30
0.0
 11
471.3174591374
 21
255.5985935322
 31
0.0
  0
LINE
  5
9B
330
1F
100
AcDbEntity
  8
0
  6
Continuous
 62
     7
370
    25
100
AcDbLine
 10
455.9279364753
 20
208.5985935322
 30
0.0
 11
471.3174591374
 21
208.5985935322
 31
0.0
  0
LWPOLYLINE
  5
9C
330
1F
100
AcDbEntity
  8
0
  6
HIDDEN
 62
     7
370
    18
100
AcDbPolyline
 90
       21
 70
   128
 43
0.0
 10
483.5305609184
 20
224.0985935322
 10
483.5221392474
 20
223.7857246021
 10
483.4970816038
 20
223.4805595435
 10
483.45600499
 20
223.1906125327
 10
483.3999208485
 20
222.9230230276
 10
483.330210157
 20
222.6843799698
 10
483.2485894242
 20
222.4805595435
 10
483.1570684233
 20
222.3165804838
 10
483.0579007052
 20
222.1964804996
 10
482.9535281081
 20
222.123216851
 10
482.8465206317
 20
222.0985935322
 10
482.7395131554
 20
222.123216851
 10
482.6351405583
 20
222.1964804996
 10
482.5359728402
 20
222.3165804838
 10
482.4444518393
 20
222.4805595435
 10
482.3628311064
 20
222.6843799698
 10
482.293120415
 20
222.9230230276
 10
482.2370362735
 20
223.1906125327
 10
482.1959596597
 20
223.4805595435
 10
482.1709020161
 20
223.7857246021
 10
482.1624803451
 20
224.0985935322
  0
LWPOLYLINE
  5
9D
330
1F
100
AcDbEntity
  8
0
  6
HIDDEN
 62
     7
370
    18
100
AcDbPolyline
 90
       21
 70
   128
 43
0.0
 10
482.1624803451
 20
224.0985935322
 10
482.1709020161
 20
224.4114624623
 10
482.1959596597
 20
224.716627521
 10
482.2370362735
 20
225.0065745317
 10
482.293120415
 20
225.2741640368
 10
482.3628311064
 20
225.5128070946
 10
482.4444518393
 20
225.716627521
 10
482.5359728402
 20
225.8806065806
 10
482.6351405583
 20
226.0007065648
 10
482.7395131554
 20
226.0739702134
 10
482.8465206317
 20
226.0985935322
 10
482.9535281081
 20
226.0739702134
 10
483.0579007052
 20
226.0007065648
 10
483.1570684233
 20
225.8806065806
 10
483.2485894242
 20
225.716627521
 10
483.330210157
 20
225.5128070946
 10
483.3999208485
 20
225.2741640368
 10
483.45600499
 20
225.0065745317
 10
483.4970816038
 20
224.716627521
 10
483.5221392474
 20
224.4114624623
 10
483.5305609184
 20
224.0985935322
  0
LWPOLYLINE
  5
9E
330
1F
100
AcDbEntity
  8
0
  6
HIDDEN
 62
     7
370
    18
100
AcDbPolyline
 90
       21
 70
   128
 43
0.0
 10
482.1624803451
 20
240.5985935322
 10
482.1709020161
 20
240.9114624623
 10
482.1959596597
 20
241.216627521
 10
482.2370362735
 20
241.5065745317
 10
482.293120415
 20
241.7741640368
 10
482.3628311064
 20
242.0128070946
 10
482.4444518393
 20
242.216627521
 10
482.5359728402
 20
242.3806065806
 10
482.6351405583
 20
242.5007065648
 10
482.7395131554
 20
242.5739702134
 10
482.8465206317
 20
242.5985935322
 10
482.9535281081
 20
242.5739702134
 10
483.0579007052
 20
242.5007065648
 10
483.1570684233
 20
242.3806065806
 10
483.2485894242
 20
242.216627521
 10
483.330210157
 20
242.0128070946
 10
483.3999208485
 20
241.7741640368
 10
483.45600499
 20
241.5065745317
 10
483.4970816038
 20
241.216627521
 10
483.5221392474
 20
240.9114624623
 10
483.5305609184
 20
240.5985935322
  0
LWPOLYLINE
  5
9F
330
1F
100
AcDbEntity
  8
0
  6
HIDDEN
 62
     7
370
    18
100
AcDbPolyline
 90
       21
 70
   128
 43
0.0
 10
483.5305609184
 20
240.5985935322
 10
483.5221392474
 20
240.2857246021
 10
483.4970816038
 20
239.9805595435
 10
483.45600499
 20
239.6906125327
 10
483.3999208485
 20
239.4230230276
 10
483.330210157
 20
239.1843799698
 10
483.2485894242
 20
238.9805595435
 10
483.1570684233
 20
238.8165804838
 10
483.0579007052
 20
238.6964804996
 10
482.9535281081
 20
238.623216851
 10
482.8465206317
 20
238.5985935322
 10
482.7395131554
 20
238.623216851
 10
482.6351405583
 20
238.6964804996
 10
482.5359728402
 20
238.8165804838
 10
482.4444518393
 20
238.9805595435
 10
482.3628311064
 20
239.1843799698
 10
482.293120415
 20
239.4230230276
 10
482.2370362735
 20
239.6906125327
 10
482.1959596597
 20
239.9805595435
 10
482.1709020161
 20
240.2857246021
 10
482.1624803451
 20
240.5985935322
  0
LINE
  5
A0
330
1F
100
AcDbEntity
  8
0
  6
HIDDEN
 62
     7
370
    18
100
AcDbLine
 10
480.6852276039
 20
222.0985935322
 30
0.0
 11
482.8465206317
 21
222.0985935322
 31
0.0
  0
LINE
  5
A1
330
1F
100
AcDbEntity
  8
0
  6
HIDDEN
 62
     7
370
    18
100
AcDbLine
 10
482.8465206317
 20
226.0985935322
 30
0.0
 11
480.6852276039
 21
226.0985935322
 31
0.0
  0
LINE
  5
A2
330
1F
100
AcDbEntity
  8
0
  6
HIDDEN
 62
     7
370
    18
100
AcDbLine
 10
482.8465206317
 20
242.5985935322
 30
0.0
 11
480.6852276039
 21
242.5985935322
 31
0.0
  0
LINE
  5
A3
330
1F
100
AcDbEntity
  8
0
  6
HIDDEN
 62
     7
370
    18
100
AcDbLine
 10
480.6852276039
 20
238.5985935322
 30
0.0
 11
482.8465206317
 21
238.5985935322
 31
0.0
  0
LINE
  5
A4
330
1F
100
AcDbEntity
  8
0
  6
Continuous
 62
     7
370
    25
100
AcDbLine
 10
458.0178341394
 20
379.2990567079
 30
0.0
 11
447.1357983058
 21
373.0169911386
 31
0.0
  0
ARC
  5
A5
330
1F
100
AcDbEntity
  8
0
  6
Continuous
 62
     7
370
    25
100
AcDbCircle
 10
459.6563686025
 20
376.0975172121
 30
0.0
 40
3.596477489117084
100
AcDbArc
 50
74.5212209702
 51
117.1031758168
  0
LINE
  5
A6
330
1F
100
AcDbEntity
  8
0
  6
Continuous
 62
     7
370
    25
100
AcDbLine
 10
494.5026172804
 20
370.4415392423
 30
0.0
 11
460.6162017381
 21
379.5635481816
 31
0.0
  0
LINE
  5
A7
330
1F
100
AcDbEntity
  8
0
  6
Continuous
 62
     7
370
    25
100
AcDbLine
 10
493.5305952784
 20
369.23817844
 30
0.0
 11
494.5026172804
 21
370.4415392423
 31
0.0
  0
LINE
  5
A8
330
1F
100
AcDbEntity
  8
0
  6
Continuous
 62
     7
370
    25
100
AcDbLine
 10
459.6441797361
 20
378.3601873793
 30
0.0
 11
493.5305952784
 21
369.23817844
 31
0.0
  0
LINE
  5
A9
330
1F
100
AcDbEntity
  8
0
  6
Continuous
 62
     7
370
    25
100
AcDbLine
 10
448.7621439025
 20
372.0781218101
 30
0.0
 11
459.6441797361
 21
378.3601873793
 31
0.0
  0
LINE
  5
AA
330
1F
100
AcDbEntity
  8
0
  6
Continuous
 62
     7
370
    25
100
AcDbLine
 10
447.1357983058
 20
373.0169911386
 30
0.0
 11
448.7621439025
 21
372.0781218101
 31
0.0
  0
LINE
  5
AB
330
1F
100
AcDbEntity
  8
0
  6
Continuous
 62
     7
370
    25
100
AcDbLine
 10
459.6441797361
 20
378.3601873793
 30
0.0
 11
459.6441797361
 21
339.9827692206
 31
0.0
  0
LINE
  5
AC
330
1F
100
AcDbEntity
  8
0
  6
Continuous
 62
     7
370
    25
100
AcDbLine
 10
493.5305952784
 20
369.23817844
 30
0.0
 11
493.5305952784
 21
330.8607602814
 31
0.0
  0
LINE
  5
AD
330
1F
100
AcDbEntity
  8
0
  6
Continuous
 62
     7
370
    25
100
AcDbLine
 10
459.6441797361
 20
339.9827692206
 30
0.0
 11
493.5305952784
 21
330.8607602814
 31
0.0
  0
LWPOLYLINE
  5
AE
330
1F
100
AcDbEntity
  8
0
  6
Continuous
 62
     7
370
    25
100
AcDbPolyline
 90
       21
 70
   128
 43
0.0
 10
482.654901834
 20
346.4448108185
 10
482.6772181395
 20
346.1833331599
 10
482.7436175548
 20
345.9162791321
 10
482.8524651057
 20
345.6502244916
 10
483.0010806043
 20
345.3917203867
 10
483.1858046439
 20
345.1471320464
 10
483.4020887055
 20
344.9224820472
 10
483.6446071577
 20
344.7233020179
 10
483.9073883914
 20
344.5544964316
 10
484.1839618604
 20
344.4202218423
 10
484.467517408
 20
344.3237845359
 10
484.7510729557
 20
344.267559119
 10
485.0276464247
 20
344.2529300479
 10
485.2904276583
 20
344.2802575389
 10
485.5329461106
 20
344.3488686985
 10
485.7492301721
 20
344.4570740922
 10
485.9339542117
 20
344.6022093441
 10
486.0825697104
 20
344.7807007427
 10
486.1914172613
 20
344.9881532374
 10
486.2578166765
 20
345.2194586591
 10
486.2801329821
 20
345.4689215009
  0
LWPOLYLINE
  5
AF
330
1F
100
AcDbEntity
  8
0
  6
Continuous
 62
     7
370
    25
100
AcDbPolyline
 90
       21
 70
   128
 43
0.0
 10
486.2801329821
 20
345.4689215009
 10
486.2578166765
 20
345.7303991595
 10
486.1914172613
 20
345.9974531873
 10
486.0825697104
 20
346.2635078277
 10
485.9339542117
 20
346.5220119326
 10
485.7492301721
 20
346.766600273
 10
485.5329461106
 20
346.9912502721
 10
485.2904276583
 20
347.1904303015
 10
485.0276464247
 20
347.3592358877
 10
484.7510729557
 20
347.493510477
 10
484.467517408
 20
347.5899477834
 10
484.1839618604
 20
347.6461732004
 10
483.9073883914
 20
347.6608022715
 10
483.6446071577
 20
347.6334747805
 10
483.4020887055
 20
347.5648636209
 10
483.1858046439
 20
347.4566582272
 10
483.0010806043
 20
347.3115229752
 10
482.8524651057
 20
347.1330315766
 10
482.7436175548
 20
346.925579082
 10
482.6772181395
 20
346.6942736602
 10
482.654901834
 20
346.4448108185
  0
LWPOLYLINE
  5
B0
330
1F
100
AcDbEntity
  8
0
  6
Continuous
 62
     7
370
    25
100
AcDbPolyline
 90
       21
 70
   128
 43
0.0
 10
482.654901834
 20
359.9177342146
 10
482.6772181395
 20
359.656256556
 10
482.7436175548
 20
359.3892025282
 10
482.8524651057
 20
359.1231478877
 10
483.0010806043
 20
358.8646437828
 10
483.1858046439
 20
358.6200554425
 10
483.4020887055
 20
358.3954054433
 10
483.6446071577
 20
358.196225414
 10
483.9073883914
 20
358.0274198277
 10
484.1839618604
 20
357.8931452384
 10
484.467517408
 20
357.796707932
 10
484.7510729557
 20
357.7404825151
 10
485.0276464247
 20
357.725853444
 10
485.2904276583
 20
357.753180935
 10
485.5329461106
 20
357.8217920946
 10
485.7492301721
 20
357.9299974883
 10
485.9339542117
 20
358.0751327403
 10
486.0825697104
 20
358.2536241389
 10
486.1914172613
 20
358.4610766335
 10
486.2578166765
 20
358.6923820552
 10
486.2801329821
 20
358.941844897
  0
LWPOLYLINE
  5
B1
330
1F
100
AcDbEntity
  8
0
  6
Continuous
 62
     7
370
    25
100
AcDbPolyline
 90
       21
 70
   128
 43
0.0
 10
486.2801329821
 20
358.941844897
 10
486.2578166765
 20
359.2033225556
 10
486.1914172613
 20
359.4703765834
 10
486.0825697104
 20
359.7364312238
 10
485.9339542117
 20
359.9949353287
 10
485.7492301721
 20
360.2395236691
 10
485.5329461106
 20
360.4641736682
 10
485.2904276583
 20
360.6633536976
 10
485.0276464247
 20
360.8321592838
 10
484.7510729557
 20
360.9664338732
 10
484.467517408
 20
361.0628711796
 10
484.1839618604
 20
361.1190965965
 10
483.9073883914
 20
361.1337256676
 10
483.6446071577
 20
361.1063981766
 10
483.4020887055
 20
361.037787017
 10
483.1858046439
 20
360.9295816233
 10
483.0010806043
 20
360.7844463713
 10
482.8524651057
 20
360.6059549727
 10
482.7436175548
 20
360.3985024781
 10
482.6772181395
 20
360.1671970563
 10
482.654901834
 20
359.9177342146
  0
LINE
  5
B2
330
1F
100
AcDbEntity
  8
0
  6
Continuous
 62
     7
370
    25
100
AcDbLine
 10
493.5305952784
 20
330.8607602814
 30
0.0
 11
494.5026172804
 21
332.0641210837
 31
0.0
  0
LINE
  5
B3
330
1F
100
AcDbEntity
  8
0
  6
Continuous
 62
     7
370
    25
100
AcDbLine
 10
494.5026172804
 20
370.4415392423
 30
0.0
 11
494.5026172804
 21
332.0641210837
 31
0.0
  0
LINE
  5
B4
330
1F
100
AcDbEntity
  8
0
  6
Continuous
 62
     7
370
    25
100
AcDbLine
 10
447.1357983058
 20
373.0169911386
 30
0.0
 11
447.1357983058
 21
334.63957298
 31
0.0
  0
LINE
  5
B5
330
1F
100
AcDbEntity
  8
0
  6
Continuous
 62
     7
370
    25
100
AcDbLine
 10
448.7621439025
 20
372.0781218101
 30
0.0
 11
448.7621439025
 21
333.7007036514
 31
0.0
  0
LINE
  5
B6
330
1F
100
AcDbEntity
  8
0
  6
Continuous
 62
     7
370
    25
100
AcDbLine
 10
447.1357983058
 20
334.63957298
 30
0.0
 11
448.7621439025
 21
333.7007036514
 31
0.0
  0
LINE
  5
B7
330
1F
100
AcDbEntity
  8
0
  6
Continuous
 62
     7
370
    25
100
AcDbLine
 10
448.7621439025
 20
333.7007036514
 30
0.0
 11
459.6441797361
 21
339.9827692206
 31
0.0
  0
LWPOLYLINE
  5
B8
330
1F
100
AcDbEntity
  8
0
  6
Continuous
 62
     7
370
    25
100
AcDbPolyline
 90
       26
 70
   128
 43
0.0
 10
452.2976778085
 20
343.9071320498
 10
452.314405053
 20
343.6097693817
 10
452.3643229879
 20
343.3364091659
 10
452.4466443775
 20
343.0913624563
 10
452.5600709645
 20
342.878493786
 10
452.7028139436
 20
342.701160221
 10
452.8726221729
 20
342.5621584176
 10
453.0668176751
 20
342.4636805172
 10
453.2823378712
 20
342.4072795753
 10
453.515783879
 20
342.3938450682
 10
453.7634741154
 20
342.4235888663
 10
454.0215023574
 20
342.4960418921
 10
454.2857993456
 20
342.610061518
 10
454.5521969585
 20
342.7638495865
 10
454.8164939467
 20
342.9549807678
 10
455.0745221887
 20
343.180440809
 10
455.3222124251
 20
343.4366740707
 10
455.5556584328
 20
343.7196396011
 10
455.771178629
 20
344.0248748649
 10
455.9653741312
 20
344.3475661197
 10
456.1351823605
 20
344.6826243314
 10
456.2779253396
 20
345.0247654321
 10
456.3913519265
 20
345.3685936521
 10
456.4736733162
 20
345.708686615
 10
456.5235912511
 20
346.0396808517
 10
456.5403184956
 20
346.3563563853
  0
LWPOLYLINE
  5
B9
330
1F
100
AcDbEntity
  8
0
  6
Continuous
 62
     7
370
    25
100
AcDbPolyline
 90
       26
 70
   128
 43
0.0
 10
456.5403184956
 20
346.3563563853
 10
456.5235912511
 20
346.6537190535
 10
456.4736733162
 20
346.9270792693
 10
456.3913519265
 20
347.1721259788
 10
456.2779253396
 20
347.3849946492
 10
456.1351823605
 20
347.5623282141
 10
455.9653741312
 20
347.7013300176
 10
455.771178629
 20
347.7998079179
 10
455.5556584328
 20
347.8562088599
 10
455.3222124251
 20
347.8696433669
 10
455.0745221887
 20
347.8398995688
 10
454.8164939467
 20
347.7674465431
 10
454.5521969585
 20
347.6534269171
 10
454.2857993456
 20
347.4996388487
 10
454.0215023574
 20
347.3085076674
 10
453.7634741154
 20
347.0830476261
 10
453.515783879
 20
346.8268143645
 10
453.2823378712
 20
346.543848834
 10
453.0668176751
 20
346.2386135702
 10
452.8726221729
 20
345.9159223155
 10
452.7028139436
 20
345.5808641037
 10
452.5600709645
 20
345.2387230031
 10
452.4466443775
 20
344.8948947831
 10
452.3643229879
 20
344.5548018201
 10
452.314405053
 20
344.2238075834
 10
452.2976778085
 20
343.9071320498
  0
LWPOLYLINE
  5
BA
330
1F
100
AcDbEntity
  8
0
  6
Continuous
 62
     7
370
    25
100
AcDbPolyline
 90
       26
 70
   128
 43
0.0
 10
452.2976778085
 20
365.5454635648
 10
452.314405053
 20
365.2481008967
 10
452.3643229879
 20
364.9747406808
 10
452.4466443775
 20
364.7296939713
 10
452.5600709645
 20
364.516825301
 10
452.7028139436
 20
364.339491736
 10
452.8726221729
 20
364.2004899326
 10
453.0668176751
 20
364.1020120322
 10
453.2823378712
 20
364.0456110903
 10
453.515783879
 20
364.0321765832
 10
453.7634741154
 20
364.0619203813
 10
454.0215023574
 20
364.134373407
 10
454.2857993456
 20
364.248393033
 10
454.5521969585
 20
364.4021811014
 10
454.8164939467
 20
364.5933122827
 10
455.0745221887
 20
364.818772324
 10
455.3222124251
 20
365.0750055857
 10
455.5556584328
 20
365.3579711161
 10
455.771178629
 20
365.6632063799
 10
455.9653741312
 20
365.9858976346
 10
456.1351823605
 20
366.3209558464
 10
456.2779253396
 20
366.6630969471
 10
456.3913519265
 20
367.0069251671
 10
456.4736733162
 20
367.34701813
 10
456.5235912511
 20
367.6780123667
 10
456.5403184956
 20
367.9946879003
  0
LWPOLYLINE
  5
BB
330
1F
100
AcDbEntity
  8
0
  6
Continuous
 62
     7
370
    25
100
AcDbPolyline
 90
       26
 70
   128
 43
0.0
 10
456.5403184956
 20
367.9946879003
 10
456.5235912511
 20
368.2920505684
 10
456.4736733162
 20
368.5654107842
 10
456.3913519265
 20
368.8104574938
 10
456.2779253396
 20
369.0233261641
 10
456.1351823605
 20
369.2006597291
 10
455.9653741312
 20
369.3396615325
 10
455.771178629
 20
369.4381394329
 10
455.5556584328
 20
369.4945403748
 10
455.3222124251
 20
369.5079748819
 10
455.0745221887
 20
369.4782310838
 10
454.8164939467
 20
369.405778058
 10
454.5521969585
 20
369.2917584321
 10
454.2857993456
 20
369.1379703637
 10
454.0215023574
 20
368.9468391823
 10
453.7634741154
 20
368.7213791411
 10
453.515783879
 20
368.4651458794
 10
453.2823378712
 20
368.182180349
 10
453.0668176751
 20
367.8769450852
 10
452.8726221729
 20
367.5542538305
 10
452.7028139436
 20
367.2191956187
 10
452.5600709645
 20
366.877054518
 10
452.4466443775
 20
366.533226298
 10
452.3643229879
 20
366.1931333351
 10
452.314405053
 20
365.8621390984
 10
452.2976778085
 20
365.5454635648
  0
ARC
  5
BC
330
1F
100
AcDbEntity
  8
0
  6
Continuous
 62
     7
370
    25
100
AcDbCircle
 10
485.9736559489
 20
361.2929754533
 30
0.0
 40
2.353018167020421
100
AcDbArc
 50
184.1890040314
 51
277.4812131406
  0
LWPOLYLINE
  5
BD
330
1F
100
AcDbEntity
  8
0
  6
Continuous
 62
     7
370
    25
100
AcDbPolyline
 90
        3
 70
   128
 43
0.0
 10
454.8662218073
 20
369.422817658
 10
454.8972456543
 20
369.230919897
 10
454.9139728989
 20
368.9335572289
  0
ARC
  5
BE
330
1F
100
AcDbEntity
  8
0
  6
Continuous
 62
     7
370
    25
100
AcDbCircle
 10
450.5723517713
 20
369.0202138419
 30
0.0
 40
4.342485853045753
100
AcDbArc
 50
294.0986685087
 51
358.8565563702
  0
ARC
  5
BF
330
1F
100
AcDbEntity
  8
0
  6
Continuous
 62
     7
370
    25
100
AcDbCircle
 10
485.9736559489
 20
347.8200520572
 30
0.0
 40
2.353018167033316
100
AcDbArc
 50
184.1890040316
 51
277.4812131383
  0
LWPOLYLINE
  5
C0
330
1F
100
AcDbEntity
  8
0
  6
Continuous
 62
     7
370
    25
100
AcDbPolyline
 90
        3
 70
   128
 43
0.0
 10
454.8662218073
 20
347.7844861431
 10
454.8972456543
 20
347.5925883821
 10
454.9139728989
 20
347.2952257139
  0
ARC
  5
C1
330
1F
100
AcDbEntity
  8
0
  6
Continuous
 62
     7
370
    25
100
AcDbCircle
 10
450.5723517713
 20
347.3818823269
 30
0.0
 40
4.342485853045581
100
AcDbArc
 50
294.0986685087
 51
358.8565563702
  0
LWPOLYLINE
  5
C2
330
1F
100
AcDbEntity
  8
0
  6
HIDDEN
 62
     7
370
    18
100
AcDbPolyline
 90
       21
 70
   128
 43
0.0
 10
483.626923836
 20
361.1210950169
 10
483.6492401415
 20
361.3705578586
 10
483.7156395568
 20
361.6018632804
 10
483.8244871077
 20
361.809315775
 10
483.9731026063
 20
361.9878071736
 10
484.1578266459
 20
362.1329424256
 10
484.3741107075
 20
362.2411478193
 10
484.6166291597
 20
362.3097589789
 10
484.8794103934
 20
362.3370864699
 10
485.1559838624
 20
362.3224573988
 10
485.43953941
 20
362.2662319819
 10
485.7230949577
 20
362.1697946755
 10
485.9996684267
 20
362.0355200861
 10
486.2624496603
 20
361.8667144999
 10
486.5049681126
 20
361.6675344705
 10
486.7212521741
 20
361.4428844714
 10
486.9059762137
 20
361.198296131
 10
487.0545917124
 20
360.9397920261
 10
487.1634392633
 20
360.6737373857
 10
487.2298386785
 20
360.4066833579
 10
487.2521549841
 20
360.1452056993
  0
ARC
  5
C3
330
1F
100
AcDbEntity
  8
0
  6
HIDDEN
 62
     7
370
    18
100
AcDbCircle
 10
486.0791990759
 20
360.1159928584
 30
0.0
 40
1.173319629395445
100
AcDbArc
 50
279.8551237332
 51
1.4266747268
  0
LINE
  5
C4
330
1F
100
AcDbEntity
  8
0
  6
HIDDEN
 62
     7
370
    18
100
AcDbLine
 10
458.0178341394
 20
340.9216385492
 30
0.0
 11
447.1357983058
 21
334.63957298
 31
0.0
  0
LINE
  5
C5
330
1F
100
AcDbEntity
  8
0
  6
HIDDEN
 62
     7
370
    18
100
AcDbLine
 10
494.5026172804
 20
332.0641210837
 30
0.0
 11
460.6162017381
 21
341.1861300229
 31
0.0
  0
LWPOLYLINE
  5
C6
330
1F
100
AcDbEntity
  8
0
  6
HIDDEN
 62
     7
370
    18
100
AcDbPolyline
 90
       25
 70
   128
 43
0.0
 10
450.6713322117
 20
366.4843328934
 10
450.6880594563
 20
366.801008427
 10
450.7379773912
 20
367.1320026637
 10
450.8202987808
 20
367.4720956266
 10
450.9337253677
 20
367.8159238466
 10
451.0764683468
 20
368.1580649473
 10
451.2462765761
 20
368.493123159
 10
451.4404720784
 20
368.8158144138
 10
451.6559922745
 20
369.1210496776
 10
451.8894382822
 20
369.404015208
 10
452.1371285186
 20
369.6602484697
 10
452.3951567607
 20
369.8857085109
 10
452.6594537488
 20
370.0768396922
 10
452.9258513618
 20
370.2306277607
 10
453.1901483499
 20
370.3446473866
 10
453.448176592
 20
370.4171004124
 10
453.6958668284
 20
370.4468442105
 10
453.9293128361
 20
370.4334097034
 10
454.1448330322
 20
370.3770087615
 10
454.3390285345
 20
370.2785308611
 10
454.5088367637
 20
370.1395290577
 10
454.6515797429
 20
369.9621954927
 10
454.7650063298
 20
369.7493268224
 10
454.8473277194
 20
369.5042801128
 10
454.8662218073
 20
369.422817658
  0
ARC
  5
C7
330
1F
100
AcDbEntity
  8
0
  6
HIDDEN
 62
     7
370
    18
100
AcDbCircle
 10
451.9257404517
 20
366.2595098467
 30
0.0
 40
1.274396105889746
100
AcDbArc
 50
169.8389662126
 51
289.2277132978
  0
ARC
  5
C8
330
1F
100
AcDbEntity
  8
0
  6
HIDDEN
 62
     7
370
    18
100
AcDbCircle
 10
459.6563686025
 20
337.7200990535
 30
0.0
 40
3.596477489117479
100
AcDbArc
 50
74.5212209702
 51
117.1031758168
  0
LWPOLYLINE
  5
C9
330
1F
100
AcDbEntity
  8
0
  6
HIDDEN
 62
     7
370
    18
100
AcDbPolyline
 90
       21
 70
   128
 43
0.0
 10
483.626923836
 20
347.6481716208
 10
483.6492401415
 20
347.8976344625
 10
483.7156395568
 20
348.1289398843
 10
483.8244871077
 20
348.3363923789
 10
483.9731026063
 20
348.5148837775
 10
484.1578266459
 20
348.6600190295
 10
484.3741107075
 20
348.7682244232
 10
484.6166291597
 20
348.8368355828
 10
484.8794103934
 20
348.8641630738
 10
485.1559838624
 20
348.8495340027
 10
485.43953941
 20
348.7933085857
 10
485.7230949577
 20
348.6968712793
 10
485.9996684267
 20
348.56259669
 10
486.2624496603
 20
348.3937911038
 10
486.5049681126
 20
348.1946110744
 10
486.7212521742
 20
347.9699610753
 10
486.9059762137
 20
347.7253727349
 10
487.0545917124
 20
347.46686863
 10
487.1634392633
 20
347.2008139896
 10
487.2298386785
 20
346.9337599618
 10
487.2521549841
 20
346.6722823032
  0
ARC
  5
CA
330
1F
100
AcDbEntity
  8
0
  6
HIDDEN
 62
     7
370
    18
100
AcDbCircle
 10
486.0791990759
 20
346.6430694623
 30
0.0
 40
1.173319629402183
100
AcDbArc
 50
279.8551237293
 51
1.4266747267
  0
LWPOLYLINE
  5
CB
330
1F
100
AcDbEntity
  8
0
  6
HIDDEN
 62
     7
370
    18
100
AcDbPolyline
 90
       25
 70
   128
 43
0.0
 10
450.6713322117
 20
344.8460013784
 10
450.6880594563
 20
345.162676912
 10
450.7379773912
 20
345.4936711487
 10
450.8202987808
 20
345.8337641116
 10
450.9337253677
 20
346.1775923317
 10
451.0764683468
 20
346.5197334323
 10
451.2462765761
 20
346.8547916441
 10
451.4404720784
 20
347.1774828988
 10
451.6559922745
 20
347.4827181626
 10
451.8894382822
 20
347.7656836931
 10
452.1371285186
 20
348.0219169547
 10
452.3951567607
 20
348.247376996
 10
452.6594537488
 20
348.4385081773
 10
452.9258513618
 20
348.5922962457
 10
453.1901483499
 20
348.7063158717
 10
453.448176592
 20
348.7787688974
 10
453.6958668284
 20
348.8085126955
 10
453.9293128361
 20
348.7950781885
 10
454.1448330322
 20
348.7386772465
 10
454.3390285345
 20
348.6401993462
 10
454.5088367637
 20
348.5011975427
 10
454.6515797429
 20
348.3238639778
 10
454.7650063298
 20
348.1109953074
 10
454.8473277194
 20
347.8659485979
 10
454.8662218073
 20
347.7844861431
  0
ARC
  5
CC
330
1F
100
AcDbEntity
  8
0
  6
HIDDEN
 62
     7
370
    18
100
AcDbCircle
 10
451.9257404517
 20
344.6211783318
 30
0.0
 40
1.274396105889772
100
AcDbArc
 50
169.8389662126
 51
289.2277132978
  0
LINE
  5
CD
330
1F
100
AcDbEntity
  8
0
  6
HIDDEN
 62
     7
370
    18
100
AcDbLine
 10
483.8837055484
 20
361.889884616
 30
0.0
 11
482.9116835464
 21
360.6865238137
 31
0.0
  0
LINE
  5
CE
330
1F
100
AcDbEntity
  8
0
  6
HIDDEN
 62
     7
370
    18
100
AcDbLine
 10
486.0233512696
 20
358.1730552978
 30
0.0
 11
486.9953732716
 21
359.3764161001
 31
0.0
  0
LINE
  5
CF
330
1F
100
AcDbEntity
  8
0
  6
HIDDEN
 62
     7
370
    18
100
AcDbLine
 10
455.918876251
 20
369.3682223197
 30
0.0
 11
454.2925306543
 21
370.3070916483
 31
0.0
  0
LINE
  5
D0
330
1F
100
AcDbEntity
  8
0
  6
HIDDEN
 62
     7
370
    18
100
AcDbLine
 10
451.2927744563
 20
365.110798474
 30
0.0
 11
452.9191200531
 21
364.1719291454
 31
0.0
  0
LINE
  5
D1
330
1F
100
AcDbEntity
  8
0
  6
HIDDEN
 62
     7
370
    18
100
AcDbLine
 10
483.8837055484
 20
348.4169612199
 30
0.0
 11
482.9116835464
 21
347.2136004176
 31
0.0
  0
LINE
  5
D2
330
1F
100
AcDbEntity
  8
0
  6
HIDDEN
 62
     7
370
    18
100
AcDbLine
 10
486.0233512696
 20
344.7001319017
 30
0.0
 11
486.9953732716
 21
345.903492704
 31
0.0
  0
LINE
  5
D3
330
1F
100
AcDbEntity
  8
0
  6
HIDDEN
 62
     7
370
    18
100
AcDbLine
 10
455.918876251
 20
347.7298908047
 30
0.0
 11
454.2925306543
 21
348.6687601333
 31
0.0
  0
LINE
  5
D4
330
1F
100
AcDbEntity
  8
0
  6
HIDDEN
 62
     7
370
    18
100
AcDbLine
 10
451.2927744563
 20
343.472466959
 30
0.0
 11
452.9191200531
 21
342.5335976304
 31
0.0
  0
ENDSEC
  0
SECTION
  2
OBJECTS
  0
DICTIONARY
  5
C
330
0
100
AcDbDictionary
281
     1
  3
ACAD_GROUP
350
D
  3
ACAD_LAYOUT
350
1A
  3
ACAD_MLINESTYLE
350
17
  3
ACAD_PLOTSETTINGS
350
19
  3
ACAD_PLOTSTYLENAME
350
E
  3
ACAD_SCALELIST
350
47
  3
DWGPROPS
350
D5
  0
DICTIONARY
  5
D
102
{ACAD_REACTORS
330
C
102
}
330
C
100
AcDbDictionary
281
     1
  0
DICTIONARY
  5
1A
102
{ACAD_REACTORS
330
C
102
}
330
C
100
AcDbDictionary
281
     1
  3
Layout1
350
1E
  3
Layout2
350
26
  3
Model
350
22
  0
DICTIONARY
  5
17
102
{ACAD_REACTORS
330
C
102
}
330
C
100
AcDbDictionary
281
     1
  3
Standard
350
18
  0
DICTIONARY
  5
19
102
{ACAD_REACTORS
330
C
102
}
330
C
100
AcDbDictionary
281
     1
  0
ACDBDICTIONARYWDFLT
  5
E
102
{ACAD_REACTORS
330
C
102
}
330
C
100
AcDbDictionary
281
     1
  3
Normal
350
F
100
AcDbDictionaryWithDefault
340
F
  0
DICTIONARY
  5
47
102
{ACAD_REACTORS
330
C
102
}
330
C
100
AcDbDictionary
281
     1
  3
A0
350
48
  3
A1
350
49
  3
A2
350
4A
  3
A3
350
4B
  3
A4
350
4C
  3
A5
350
4D
  3
A6
350
4E
  3
A7
350
4F
  3
A8
350
50
  3
A9
350
51
  3
B0
350
52
  3
B1
350
53
  3
B2
350
54
  3
B3
350
55
  3
B4
350
56
  3
B5
350
57
  3
B6
350
58
  0
XRECORD
  5
D5
102
{ACAD_REACTORS
330
C
102
}
330
C
100
AcDbXrecord
280
     1
  1
DWGPROPS COOKIE
  2

  3

  4

  6

  7

  8
imaizumi
  9

300
=
301
=
302
=
303
=
304
=
305
=
306
=
307
=
308
=
309
=
 40
0.0
 41
2461263.053378924
 42
2461263.053379456
  1

 90
        0
  0
LAYOUT
  5
1E
102
{ACAD_REACTORS
330
1A
102
}
330
1A
100
AcDbPlotSettings
  1

  2
none_device
  4

  6

 40
0.0
 41
0.0
 42
0.0
 43
0.0
 44
0.0
 45
0.0
 46
0.0
 47
0.0
 48
0.0
 49
0.0
140
0.0
141
0.0
142
1.0
143
1.0
 70
   688
 72
     1
 73
     0
 74
     5
  7

 75
    16
147
1.0
148
0.0
149
0.0
100
AcDbLayout
  1
Layout1
 70
     1
 71
     1
 10
0.0
 20
0.0
 11
420.0
 21
297.0
 12
0.0
 22
0.0
 32
0.0
 14
1.0000000000E+20
 24
1.0000000000E+20
 34
1.0000000000E+20
 15
-1.0000000000E+20
 25
-1.0000000000E+20
 35
-1.0000000000E+20
146
0.0
 13
0.0
 23
0.0
 33
0.0
 16
1.0
 26
0.0
 36
0.0
 17
0.0
 27
1.0
 37
0.0
 76
     0
330
1B
  0
LAYOUT
  5
26
102
{ACAD_REACTORS
330
1A
102
}
330
1A
100
AcDbPlotSettings
  1

  2
none_device
  4

  6

 40
0.0
 41
0.0
 42
0.0
 43
0.0
 44
0.0
 45
0.0
 46
0.0
 47
0.0
 48
0.0
 49
0.0
140
0.0
141
0.0
142
1.0
143
1.0
 70
   688
 72
     1
 73
     0
 74
     5
  7

 75
    16
147
1.0
148
0.0
149
0.0
100
AcDbLayout
  1
Layout2
 70
     1
 71
     2
 10
0.0
 20
0.0
 11
0.0
 21
0.0
 12
0.0
 22
0.0
 32
0.0
 14
0.0
 24
0.0
 34
0.0
 15
0.0
 25
0.0
 35
0.0
146
0.0
 13
0.0
 23
0.0
 33
0.0
 16
1.0
 26
0.0
 36
0.0
 17
0.0
 27
1.0
 37
0.0
 76
     0
330
23
  0
LAYOUT
  5
22
102
{ACAD_REACTORS
330
1A
102
}
330
1A
100
AcDbPlotSettings
  1

  2
none_device
  4
Letter_(8.50_x_11.00_Inches)
  6

 40
6.35
 41
6.35
 42
6.35000508
 43
6.35000508
 44
215.9
 45
279.4
 46
0.0
 47
0.0
 48
0.0
 49
0.0
140
0.0
141
0.0
142
1.0
143
1.0
 70
  1712
 72
     1
 73
     0
 74
     0
  7

 75
     0
147
1.0
148
0.0
149
0.0
100
AcDbLayout
  1
Model
 70
     1
 71
     0
 10
0.0
 20
0.0
 11
841.0
 21
594.0
 12
0.0
 22
0.0
 32
0.0
 14
0.0
 24
0.0
 34
0.0
 15
841.0
 25
594.0
 35
0.0
146
0.0
 13
0.0
 23
0.0
 33
0.0
 16
1.0
 26
0.0
 36
0.0
 17
0.0
 27
1.0
 37
0.0
 76
     0
330
1F
331
29
  0
MLINESTYLE
  5
18
102
{ACAD_REACTORS
330
17
102
}
330
17
100
AcDbMlineStyle
  2
Standard
 70
     0
  3

 62
   256
 51
90.0
 52
90.0
 71
     2
 49
0.5
 62
   256
  6
BYLAYER
 49
-0.5
 62
   256
  6
BYLAYER
  0
ACDBPLACEHOLDER
  5
F
102
{ACAD_REACTORS
330
E
102
}
330
E
  0
SCALE
  5
48
102
{ACAD_REACTORS
330
47
102
}
330
47
100
AcDbScale
 70
     0
300
1:1
140
1.0
141
1.0
290
     1
  0
SCALE
  5
49
102
{ACAD_REACTORS
330
47
102
}
330
47
100
AcDbScale
 70
     0
300
1:2
140
1.0
141
2.0
290
     0
  0
SCALE
  5
4A
102
{ACAD_REACTORS
330
47
102
}
330
47
100
AcDbScale
 70
     0
300
1:4
140
1.0
141
4.0
290
     0
  0
SCALE
  5
4B
102
{ACAD_REACTORS
330
47
102
}
330
47
100
AcDbScale
 70
     0
300
1:5
140
1.0
141
5.0
290
     0
  0
SCALE
  5
4C
102
{ACAD_REACTORS
330
47
102
}
330
47
100
AcDbScale
 70
     0
300
1:8
140
1.0
141
8.0
290
     0
  0
SCALE
  5
4D
102
{ACAD_REACTORS
330
47
102
}
330
47
100
AcDbScale
 70
     0
300
1:10
140
1.0
141
10.0
290
     0
  0
SCALE
  5
4E
102
{ACAD_REACTORS
330
47
102
}
330
47
100
AcDbScale
 70
     0
300
1:16
140
1.0
141
16.0
290
     0
  0
SCALE
  5
4F
102
{ACAD_REACTORS
330
47
102
}
330
47
100
AcDbScale
 70
     0
300
1:20
140
1.0
141
20.0
290
     0
  0
SCALE
  5
50
102
{ACAD_REACTORS
330
47
102
}
330
47
100
AcDbScale
 70
     0
300
1:30
140
1.0
141
30.0
290
     0
  0
SCALE
  5
51
102
{ACAD_REACTORS
330
47
102
}
330
47
100
AcDbScale
 70
     0
300
1:40
140
1.0
141
40.0
290
     0
  0
SCALE
  5
52
102
{ACAD_REACTORS
330
47
102
}
330
47
100
AcDbScale
 70
     0
300
1:50
140
1.0
141
50.0
290
     0
  0
SCALE
  5
53
102
{ACAD_REACTORS
330
47
102
}
330
47
100
AcDbScale
 70
     0
300
1:100
140
1.0
141
100.0
290
     0
  0
SCALE
  5
54
102
{ACAD_REACTORS
330
47
102
}
330
47
100
AcDbScale
 70
     0
300
2:1
140
2.0
141
1.0
290
     0
  0
SCALE
  5
55
102
{ACAD_REACTORS
330
47
102
}
330
47
100
AcDbScale
 70
     0
300
4:1
140
4.0
141
1.0
290
     0
  0
SCALE
  5
56
102
{ACAD_REACTORS
330
47
102
}
330
47
100
AcDbScale
 70
     0
300
8:1
140
8.0
141
1.0
290
     0
  0
SCALE
  5
57
102
{ACAD_REACTORS
330
47
102
}
330
47
100
AcDbScale
 70
     0
300
10:1
140
10.0
141
1.0
290
     0
  0
SCALE
  5
58
102
{ACAD_REACTORS
330
47
102
}
330
47
100
AcDbScale
 70
     0
300
100:1
140
100.0
141
1.0
290
     0
  0
ENDSEC
  0
EOF
