  0
SECTION
  2
HEADER
  9
$ACADVER
  1
AC1015
  9
$ACADMAINTVER
 70
     6
  9
$DWGCODEPAGE
  3
DOS932
  9
$INSBASE
 10
0.0
 20
0.0
 30
0.0
  9
$EXTMIN
 10
0.0
 20
0.0
 30
0.0
  9
$EXTMAX
 10
841.0
 20
594.0
 30
0.0
  9
$LIMMIN
 10
0.0
 20
0.0
  9
$LIMMAX
 10
841.0
 20
594.0
  9
$ORTHOMODE
 70
     0
  9
$REGENMODE
 70
     1
  9
$FILLMODE
 70
     1
  9
$QTEXTMODE
 70
     0
  9
$MIRRTEXT
 70
     1
  9
$LTSCALE
 40
1.0
  9
$ATTMODE
 70
     1
  9
$TEXTSIZE
 40
3.5
  9
$TRACEWID
 40
1.0
  9
$TEXTSTYLE
  7
Standard
  9
$CLAYER
  8
0
  9
$CELTYPE
  6
ByLayer
  9
$CECOLOR
 62
   256
  9
$CELTSCALE
 40
1.0
  9
$DISPSILH
 70
     0
  9
$DIMSCALE
 40
1.0
  9
$DIMASZ
 40
3.302
  9
$DIMEXO
 40
1.0
  9
$DIMDLI
 40
3.75
  9
$DIMRND
 40
0.0
  9
$DIMDLE
 40
0.0
  9
$DIMEXE
 40
1.0
  9
$DIMTP
 40
0.0
  9
$DIMTM
 40
0.0
  9
$DIMTXT
 40
3.5
  9
$DIMCEN
 40
2.5
  9
$DIMTSZ
 40
0.0
  9
$DIMTOL
 70
     0
  9
$DIMLIM
 70
     0
  9
$DIMTIH
 70
     1
  9
$DIMTOH
 70
     1
  9
$DIMSE1
 70
     0
  9
$DIMSE2
 70
     0
  9
$DIMTAD
 70
     1
  9
$DIMZIN
 70
     1
  9
$DIMBLK
  1

  9
$DIMASO
 70
     1
  9
$DIMSHO
 70
     1
  9
$DIMPOST
  1

  9
$DIMAPOST
  1

  9
$DIMALT
 70
     0
  9
$DIMALTD
 70
     3
  9
$DIMALTF
 40
0.0393700787
  9
$DIMLFAC
 40
0.2
  9
$DIMTOFL
 70
     1
  9
$DIMTVP
 40
0.0
  9
$DIMTIX
 70
     0
  9
$DIMSOXD
 70
     0
  9
$DIMSAH
 70
     0
  9
$DIMBLK1
  1

  9
$DIMBLK2
  1

  9
$DIMSTYLE
  2
ISO-25
  9
$DIMCLRD
 70
     0
  9
$DIMCLRE
 70
     0
  9
$DIMCLRT
 70
     0
  9
$DIMTFAC
 40
1.0
  9
$DIMGAP
 40
1.524
  9
$DIMJUST
 70
     0
  9
$DIMSD1
 70
     0
  9
$DIMSD2
 70
     0
  9
$DIMTOLJ
 70
     0
  9
$DIMTZIN
 70
     1
  9
$DIMALTZ
 70
     0
  9
$DIMALTTZ
 70
     0
  9
$DIMUPT
 70
     0
  9
$DIMDEC
 70
     2
  9
$DIMTDEC
 70
     2
  9
$DIMALTU
 70
     2
  9
$DIMALTTD
 70
     3
  9
$DIMTXSTY
  7
Standard
  9
$DIMAUNIT
 70
     0
  9
$DIMADEC
 70
     2
  9
$DIMALTRND
 40
0.0
  9
$DIMAZIN
 70
     0
  9
$DIMDSEP
 70
    44
  9
$DIMATFIT
 70
     3
  9
$DIMFRAC
 70
     0
  9
$DIMLDRBLK
  1

  9
$DIMLUNIT
 70
     2
  9
$DIMLWD
 70
    -2
  9
$DIMLWE
 70
    -2
  9
$DIMTMOVE
 70
     0
  9
$LUNITS
 70
     2
  9
$LUPREC
 70
     2
  9
$SKETCHINC
 40
1.0
  9
$FILLETRAD
 40
0.0
  9
$AUNITS
 70
     0
  9
$AUPREC
 70
     2
  9
$MENU
  1
.
  9
$ELEVATION
 40
0.0
  9
$PELEVATION
 40
0.0
  9
$THICKNESS
 40
0.0
  9
$LIMCHECK
 70
     0
  9
$CHAMFERA
 40
0.0
  9
$CHAMFERB
 40
0.0
  9
$CHAMFERC
 40
0.0
  9
$CHAMFERD
 40
0.0
  9
$SKPOLY
 70
     0
  9
$TDCREATE
 40
2461263.417637454
  9
$TDUCREATE
 40
2461263.042637454
  9
$TDUPDATE
 40
2461263.417637813
  9
$TDUUPDATE
 40
2461263.042637813
  9
$TDINDWG
 40
0.0000000116
  9
$TDUSRTIMER
 40
0.0000000116
  9
$USRTIMER
 70
     1
  9
$ANGBASE
 50
0.0
  9
$ANGDIR
 70
     0
  9
$PDMODE
 70
     0
  9
$PDSIZE
 40
-1.0
  9
$PLINEWID
 40
0.0
  9
$SPLFRAME
 70
     0
  9
$SPLINETYPE
 70
     6
  9
$SPLINESEGS
 70
     8
  9
$HANDSEED
  5
C0
  9
$SURFTAB1
 70
     6
  9
$SURFTAB2
 70
     6
  9
$SURFTYPE
 70
     6
  9
$SURFU
 70
     6
  9
$SURFV
 70
     6
  9
$UCSBASE
  2

  9
$UCSNAME
  2

  9
$UCSORG
 10
0.0
 20
0.0
 30
0.0
  9
$UCSXDIR
 10
1.0
 20
0.0
 30
0.0
  9
$UCSYDIR
 10
0.0
 20
1.0
 30
0.0
  9
$UCSORTHOREF
  2

  9
$UCSORTHOVIEW
 70
     0
  9
$UCSORGTOP
 10
0.0
 20
0.0
 30
0.0
  9
$UCSORGBOTTOM
 10
0.0
 20
0.0
 30
0.0
  9
$UCSORGLEFT
 10
0.0
 20
0.0
 30
0.0
  9
$UCSORGRIGHT
 10
0.0
 20
0.0
 30
0.0
  9
$UCSORGFRONT
 10
0.0
 20
0.0
 30
0.0
  9
$UCSORGBACK
 10
0.0
 20
0.0
 30
0.0
  9
$PUCSBASE
  2

  9
$PUCSNAME
  2

  9
$PUCSORG
 10
0.0
 20
0.0
 30
0.0
  9
$PUCSXDIR
 10
1.0
 20
0.0
 30
0.0
  9
$PUCSYDIR
 10
0.0
 20
1.0
 30
0.0
  9
$PUCSORTHOREF
  2

  9
$PUCSORTHOVIEW
 70
     0
  9
$PUCSORGTOP
 10
0.0
 20
0.0
 30
0.0
  9
$PUCSORGBOTTOM
 10
0.0
 20
0.0
 30
0.0
  9
$PUCSORGLEFT
 10
0.0
 20
0.0
 30
0.0
  9
$PUCSORGRIGHT
 10
0.0
 20
0.0
 30
0.0
  9
$PUCSORGFRONT
 10
0.0
 20
0.0
 30
0.0
  9
$PUCSORGBACK
 10
0.0
 20
0.0
 30
0.0
  9
$USERI1
 70
     0
  9
$USERI2
 70
     0
  9
$USERI3
 70
     0
  9
$USERI4
 70
     0
  9
$USERI5
 70
     0
  9
$USERR1
 40
0.0
  9
$USERR2
 40
0.0
  9
$USERR3
 40
0.0
  9
$USERR4
 40
0.0
  9
$USERR5
 40
0.0
  9
$WORLDVIEW
 70
     1
  9
$SHADEDGE
 70
     3
  9
$SHADEDIF
 70
    70
  9
$TILEMODE
 70
     1
  9
$MAXACTVP
 70
    64
  9
$PINSBASE
 10
0.0
 20
0.0
 30
0.0
  9
$PLIMCHECK
 70
     0
  9
$PEXTMIN
 10
1.0000000000E+20
 20
1.0000000000E+20
 30
1.0000000000E+20
  9
$PEXTMAX
 10
-1.0000000000E+20
 20
-1.0000000000E+20
 30
-1.0000000000E+20
  9
$PLIMMIN
 10
0.0
 20
0.0
  9
$PLIMMAX
 10
420.0
 20
297.0
  9
$UNITMODE
 70
     0
  9
$VISRETAIN
 70
     1
  9
$PLINEGEN
 70
     0
  9
$PSLTSCALE
 70
     1
  9
$TREEDEPTH
 70
  3020
  9
$CMLSTYLE
  2
Standard
  9
$CMLJUST
 70
     0
  9
$CMLSCALE
 40
20.0
  9
$PROXYGRAPHICS
 70
     1
  9
$MEASUREMENT
 70
     1
  9
$CELWEIGHT
370
    -1
  9
$ENDCAPS
280
     0
  9
$JOINSTYLE
280
     0
  9
$LWDISPLAY
290
     1
  9
$INSUNITS
 70
     4
  9
$HYPERLINKBASE
  1

  9
$STYLESHEET
  1

  9
$XEDIT
290
     1
  9
$CEPSNTYPE
380
     0
  9
$PSTYLEMODE
290
     1
  9
$FINGERPRINTGUID
  2
{c951c5b0-c624-463a-9b82-2f8917b86740}
  9
$VERSIONGUID
  2
{FAEB1C32-E019-11D5-929B-00C0DF256EC4}
  9
$EXTNAMES
290
     1
  9
$PSVPSCALE
 40
0.0
  9
$OLESTARTUP
290
     0
  0
ENDSEC
  0
SECTION
  2
CLASSES
  0
CLASS
  1
ACDBDICTIONARYWDFLT
  2
AcDbDictionaryWithDefault
  3
ObjectDBX Classes
 90
        0
280
     0
281
     0
  0
CLASS
  1
VISUALSTYLE
  2
AcDbVisualStyle
  3
ObjectDBX Classes
 90
     4095
280
     0
281
     0
  0
CLASS
  1
MATERIAL
  2
AcDbMaterial
  3
ObjectDBX Classes
 90
     1153
280
     0
281
     0
  0
CLASS
  1
SCALE
  2
AcDbScale
  3
ObjectDBX Classes
 90
     1153
280
     0
281
     0
  0
CLASS
  1
TABLESTYLE
  2
AcDbTableStyle
  3
ObjectDBX Classes
 90
     4095
280
     0
281
     0
  0
CLASS
  1
MLEADERSTYLE
  2
AcDbMLeaderStyle
  3
ACDB_MLEADERSTYLE_CLASS
 90
     4095
280
     0
281
     0
  0
CLASS
  1
SUN
  2
AcDbSun
  3
SCENEOE
 90
     1153
280
     0
281
     0
  0
CLASS
  1
ACDBPLACEHOLDER
  2
AcDbPlaceHolder
  3
ObjectDBX Classes
 90
        0
280
     0
281
     0
  0
CLASS
  1
LAYOUT
  2
AcDbLayout
  3
ObjectDBX Classes
 90
        0
280
     0
281
     0
  0
ENDSEC
  0
SECTION
  2
TABLES
  0
TABLE
  2
VPORT
  5
8
330
0
100
AcDbSymbolTable
 70
     1
  0
VPORT
  5
29
330
8
100
AcDbSymbolTableRecord
100
AcDbViewportTableRecord
  2
*Active
 70
     0
 10
0.0
 20
0.0
 11
1.0
 21
1.0
 12
420.5
 22
297.0
 13
0.0
 23
0.0
 14
10.0
 24
10.0
 15
10.0
 25
10.0
 16
0.0
 26
0.0
 36
1.0
 17
0.0
 27
0.0
 37
0.0
 40
594.0
 41
1.4158249158
 42
50.0
 43
0.0
 44
0.0
 50
0.0
 51
0.0
 71
     0
 72
  2000
 73
     1
 74
     3
 75
     0
 76
     0
 77
     0
 78
     0
281
     0
 65
     1
110
0.0
120
0.0
130
0.0
111
1.0
121
0.0
131
0.0
112
0.0
122
1.0
132
0.0
 79
     0
146
0.0
  0
ENDTAB
  0
TABLE
  2
LTYPE
  5
5
330
0
100
AcDbSymbolTable
 70
     6
  0
LTYPE
  5
14
330
5
100
AcDbSymbolTableRecord
100
AcDbLinetypeTableRecord
  2
ByBlock
 70
     0
  3

 72
    65
 73
     0
 40
0.0
  0
LTYPE
  5
15
330
5
100
AcDbSymbolTableRecord
100
AcDbLinetypeTableRecord
  2
ByLayer
 70
     0
  3

 72
    65
 73
     0
 40
0.0
  0
LTYPE
  5
16
330
5
100
AcDbSymbolTableRecord
100
AcDbLinetypeTableRecord
  2
Continuous
 70
     0
  3
Solid line
 72
    65
 73
     0
 40
0.0
  0
LTYPE
  5
5E
330
5
100
AcDbSymbolTableRecord
100
AcDbLinetypeTableRecord
  2
HIDDEN
 70
     0
  3
Hidden __ __ __ __ __ __ __ __ __ __ __ __ __ __
 72
    65
 73
     2
 40
1.905
 49
1.27
 74
     0
 49
-0.635
 74
     0
  0
LTYPE
  5
5F
330
5
100
AcDbSymbolTableRecord
100
AcDbLinetypeTableRecord
  2
PHANTOM
 70
     0
  3
Phantom ______  __  __  ______  __  __  ______
 72
    65
 73
     6
 40
12.7
 49
6.35
 74
     0
 49
-1.27
 74
     0
 49
1.27
 74
     0
 49
-1.27
 74
     0
 49
1.27
 74
     0
 49
-1.27
 74
     0
  0
LTYPE
  5
60
330
5
100
AcDbSymbolTableRecord
100
AcDbLinetypeTableRecord
  2
CENTER
 70
     0
  3
Center ____ _ ____ _ ____ _ ____ _ ____ _ ____
 72
    65
 73
     4
 40
10.16
 49
6.35
 74
     0
 49
-1.27
 74
     0
 49
1.27
 74
     0
 49
-1.27
 74
     0
  0
LTYPE
  5
61
330
5
100
AcDbSymbolTableRecord
100
AcDbLinetypeTableRecord
  2
CENTERX2
 70
     0
  3
Center (2x) ________  __  ________  __  _____
 72
    65
 73
     4
 40
20.32
 49
12.7
 74
     0
 49
-2.54
 74
     0
 49
2.54
 74
     0
 49
-2.54
 74
     0
  0
LTYPE
  5
62
330
5
100
AcDbSymbolTableRecord
100
AcDbLinetypeTableRecord
  2
DOT2
 70
     0
  3
Dot (.5x) ........................................
 72
    65
 73
     2
 40
0.635
 49
0.0
 74
     0
 49
-0.635
 74
     0
  0
ENDTAB
  0
TABLE
  2
LAYER
  5
2
330
0
100
AcDbSymbolTable
 70
     1
  0
LAYER
  5
10
330
2
100
AcDbSymbolTableRecord
100
AcDbLayerTableRecord
  2
0
 70
     0
 62
     7
  6
Continuous
370
    -3
390
F
  0
ENDTAB
  0
TABLE
  2
STYLE
  5
3
330
0
100
AcDbSymbolTable
 70
     1
  0
STYLE
  5
11
330
3
100
AcDbSymbolTableRecord
100
AcDbTextStyleTableRecord
  2
Standard
 70
     0
 40
0.0
 41
1.0
 50
0.0
 71
     0
 42
3.5
  3
txt
  4
bigfont
  0
ENDTAB
  0
TABLE
  2
VIEW
  5
6
330
0
100
AcDbSymbolTable
 70
     0
  0
ENDTAB
  0
TABLE
  2
UCS
  5
7
330
0
100
AcDbSymbolTable
 70
     0
  0
ENDTAB
  0
TABLE
  2
APPID
  5
9
330
0
100
AcDbSymbolTable
 70
     1
  0
APPID
  5
12
330
9
100
AcDbSymbolTableRecord
100
AcDbRegAppTableRecord
  2
ACAD
 70
     0
  0
ENDTAB
  0
TABLE
  2
DIMSTYLE
  5
A
330
0
100
AcDbSymbolTable
 70
     1
100
AcDbDimStyleTable
  0
DIMSTYLE
105
27
330
A
100
AcDbSymbolTableRecord
100
AcDbDimStyleTableRecord
  2
ISO-25
 70
     0
 41
2.5
 42
0.625
 43
3.75
 44
1.25
 73
     0
 74
     0
 77
     1
 78
     8
140
2.5
141
2.5
143
0.0393700787
147
0.625
171
     3
172
     1
178
     0
271
     2
272
     2
274
     3
278
    44
283
     0
284
     8
340
11
  0
ENDTAB
  0
TABLE
  2
BLOCK_RECORD
  5
1
330
0
100
AcDbSymbolTable
 70
     1
  0
BLOCK_RECORD
  5
1F
330
1
100
AcDbSymbolTableRecord
100
AcDbBlockTableRecord
  2
*Model_Space
340
22
  0
BLOCK_RECORD
  5
1B
330
1
100
AcDbSymbolTableRecord
100
AcDbBlockTableRecord
  2
*Paper_Space
340
1E
  0
BLOCK_RECORD
  5
23
330
1
100
AcDbSymbolTableRecord
100
AcDbBlockTableRecord
  2
*Paper_Space0
340
26
  0
ENDTAB
  0
ENDSEC
  0
SECTION
  2
BLOCKS
  0
BLOCK
  5
20
330
1F
100
AcDbEntity
  8
0
100
AcDbBlockBegin
  2
*Model_Space
 70
     0
 10
0.0
 20
0.0
 30
0.0
  3
*Model_Space
  1

  0
ENDBLK
  5
21
330
1F
100
AcDbEntity
  8
0
100
AcDbBlockEnd
  0
BLOCK
  5
1C
330
1B
100
AcDbEntity
 67
     1
  8
0
100
AcDbBlockBegin
  2
*Paper_Space
 70
     0
 10
0.0
 20
0.0
 30
0.0
  3
*Paper_Space
  1

  0
ENDBLK
  5
1D
330
1B
100
AcDbEntity
 67
     1
  8
0
100
AcDbBlockEnd
  0
BLOCK
  5
24
330
23
100
AcDbEntity
  8
0
100
AcDbBlockBegin
  2
*Paper_Space0
 70
     0
 10
0.0
 20
0.0
 30
0.0
  3
*Paper_Space0
  1

  0
ENDBLK
  5
25
330
23
100
AcDbEntity
  8
0
100
AcDbBlockEnd
  0
ENDSEC
  0
SECTION
  2
ENTITIES
  0
LINE
  5
63
330
1F
100
AcDbEntity
  8
0
  6
Continuous
 62
     7
370
    25
100
AcDbLine
 10
394.7958838609
 20
251.4302915509
 30
0.0
 11
347.7958838609
 21
251.4302915509
 31
0.0
  0
LINE
  5
64
330
1F
100
AcDbEntity
  8
0
  6
Continuous
 62
     7
370
    25
100
AcDbLine
 10
394.7958838609
 20
249.1302915509
 30
0.0
 11
347.7958838609
 21
249.1302915509
 31
0.0
  0
LINE
  5
65
330
1F
100
AcDbEntity
  8
0
  6
Continuous
 62
     7
370
    25
100
AcDbLine
 10
394.7958838609
 20
251.4302915509
 30
0.0
 11
394.7958838609
 21
249.1302915509
 31
0.0
  0
LINE
  5
66
330
1F
100
AcDbEntity
  8
0
  6
Continuous
 62
     7
370
    25
100
AcDbLine
 10
347.7958838609
 20
251.4302915509
 30
0.0
 11
347.7958838609
 21
249.1302915509
 31
0.0
  0
ARC
  5
67
330
1F
100
AcDbEntity
  8
0
  6
Continuous
 62
     7
370
    25
100
AcDbCircle
 10
363.2958838609
 20
229.4302915509
 30
0.0
 40
2.0
100
AcDbArc
 50
90.0
 51
270.0
  0
ARC
  5
68
330
1F
100
AcDbEntity
  8
0
  6
Continuous
 62
     7
370
    25
100
AcDbCircle
 10
379.7958838609
 20
229.4302915509
 30
0.0
 40
2.0
100
AcDbArc
 50
90.0
 51
270.0
  0
ARC
  5
69
330
1F
100
AcDbEntity
  8
0
  6
Continuous
 62
     7
370
    25
100
AcDbCircle
 10
379.7958838609
 20
229.4302915509
 30
0.0
 40
2.0
100
AcDbArc
 50
270.0
 51
90.0
  0
ARC
  5
6A
330
1F
100
AcDbEntity
  8
0
  6
Continuous
 62
     7
370
    25
100
AcDbCircle
 10
363.2958838609
 20
229.4302915509
 30
0.0
 40
2.0
100
AcDbArc
 50
270.0
 51
90.0
  0
LINE
  5
6B
330
1F
100
AcDbEntity
  8
0
  6
Continuous
 62
     7
370
    25
100
AcDbLine
 10
394.7958838609
 20
220.4302915509
 30
0.0
 11
347.7958838609
 21
220.4302915509
 31
0.0
  0
LINE
  5
6C
330
1F
100
AcDbEntity
  8
0
  6
Continuous
 62
     7
370
    25
100
AcDbLine
 10
394.7958838609
 20
249.1302915509
 30
0.0
 11
394.7958838609
 21
220.4302915509
 31
0.0
  0
LINE
  5
6D
330
1F
100
AcDbEntity
  8
0
  6
Continuous
 62
     7
370
    25
100
AcDbLine
 10
347.7958838609
 20
249.1302915509
 30
0.0
 11
347.7958838609
 21
220.4302915509
 31
0.0
  0
LINE
  5
6E
330
1F
100
AcDbEntity
  8
0
  6
HIDDEN
 62
     7
370
    18
100
AcDbLine
 10
387.2958838609
 20
249.1302915509
 30
0.0
 11
387.2958838609
 21
251.4302915509
 31
0.0
  0
LINE
  5
6F
330
1F
100
AcDbEntity
  8
0
  6
HIDDEN
 62
     7
370
    18
100
AcDbLine
 10
381.2958838609
 20
251.4302915509
 30
0.0
 11
381.2958838609
 21
249.1302915509
 31
0.0
  0
LINE
  5
70
330
1F
100
AcDbEntity
  8
0
  6
HIDDEN
 62
     7
370
    18
100
AcDbLine
 10
360.7958838609
 20
249.1302915509
 30
0.0
 11
360.7958838609
 21
251.4302915509
 31
0.0
  0
LINE
  5
71
330
1F
100
AcDbEntity
  8
0
  6
HIDDEN
 62
     7
370
    18
100
AcDbLine
 10
354.7958838609
 20
251.4302915509
 30
0.0
 11
354.7958838609
 21
249.1302915509
 31
0.0
  0
LINE
  5
72
330
1F
100
AcDbEntity
  8
0
  6
Continuous
 62
     7
370
    25
100
AcDbLine
 10
394.7958838609
 20
353.38
 30
0.0
 11
347.7958838609
 21
353.38
 31
0.0
  0
LINE
  5
73
330
1F
100
AcDbEntity
  8
0
  6
Continuous
 62
     7
370
    25
100
AcDbLine
 10
394.7958838609
 20
353.38
 30
0.0
 11
394.7958838609
 21
351.08
 31
0.0
  0
LINE
  5
74
330
1F
100
AcDbEntity
  8
0
  6
Continuous
 62
     7
370
    25
100
AcDbLine
 10
347.7958838609
 20
353.38
 30
0.0
 11
347.7958838609
 21
351.08
 31
0.0
  0
LINE
  5
75
330
1F
100
AcDbEntity
  8
0
  6
Continuous
 62
     7
370
    25
100
AcDbLine
 10
394.7958838609
 20
335.38
 30
0.0
 11
347.7958838609
 21
335.38
 31
0.0
  0
ARC
  5
76
330
1F
100
AcDbEntity
  8
0
  6
Continuous
 62
     7
370
    25
100
AcDbCircle
 10
357.7958838609
 20
343.38
 30
0.0
 40
3.0
100
AcDbArc
 50
270.0
 51
90.0
  0
ARC
  5
77
330
1F
100
AcDbEntity
  8
0
  6
Continuous
 62
     7
370
    25
100
AcDbCircle
 10
357.7958838609
 20
343.38
 30
0.0
 40
3.0
100
AcDbArc
 50
90.0
 51
270.0
  0
ARC
  5
78
330
1F
100
AcDbEntity
  8
0
  6
Continuous
 62
     7
370
    25
100
AcDbCircle
 10
384.2958838609
 20
343.38
 30
0.0
 40
3.000000000000114
100
AcDbArc
 50
270.0
 51
90.0
  0
ARC
  5
79
330
1F
100
AcDbEntity
  8
0
  6
Continuous
 62
     7
370
    25
100
AcDbCircle
 10
384.2958838609
 20
343.38
 30
0.0
 40
3.000000000000114
100
AcDbArc
 50
90.0
 51
270.0
  0
LINE
  5
7A
330
1F
100
AcDbEntity
  8
0
  6
Continuous
 62
     7
370
    25
100
AcDbLine
 10
394.7958838609
 20
351.08
 30
0.0
 11
394.7958838609
 21
335.38
 31
0.0
  0
LINE
  5
7B
330
1F
100
AcDbEntity
  8
0
  6
Continuous
 62
     7
370
    25
100
AcDbLine
 10
347.7958838609
 20
351.08
 30
0.0
 11
347.7958838609
 21
335.38
 31
0.0
  0
LINE
  5
7C
330
1F
100
AcDbEntity
  8
0
  6
HIDDEN
 62
     7
370
    18
100
AcDbLine
 10
394.7958838609
 20
351.08
 30
0.0
 11
347.7958838609
 21
351.08
 31
0.0
  0
LINE
  5
7D
330
1F
100
AcDbEntity
  8
0
  6
HIDDEN
 62
     7
370
    18
100
AcDbLine
 10
377.7958838609
 20
353.38
 30
0.0
 11
377.7958838609
 21
351.08
 31
0.0
  0
LINE
  5
7E
330
1F
100
AcDbEntity
  8
0
  6
HIDDEN
 62
     7
370
    18
100
AcDbLine
 10
381.7958838609
 20
351.08
 30
0.0
 11
381.7958838609
 21
353.38
 31
0.0
  0
LINE
  5
7F
330
1F
100
AcDbEntity
  8
0
  6
HIDDEN
 62
     7
370
    18
100
AcDbLine
 10
365.2958838609
 20
351.08
 30
0.0
 11
365.2958838609
 21
353.38
 31
0.0
  0
LINE
  5
80
330
1F
100
AcDbEntity
  8
0
  6
HIDDEN
 62
     7
370
    18
100
AcDbLine
 10
361.2958838609
 20
353.38
 30
0.0
 11
361.2958838609
 21
351.08
 31
0.0
  0
LINE
  5
81
330
1F
100
AcDbEntity
  8
0
  6
Continuous
 62
     7
370
    25
100
AcDbLine
 10
482.58
 20
251.4302915509
 30
0.0
 11
466.88
 21
251.4302915509
 31
0.0
  0
LINE
  5
82
330
1F
100
AcDbEntity
  8
0
  6
Continuous
 62
     7
370
    25
100
AcDbLine
 10
482.58
 20
249.1302915509
 30
0.0
 11
482.58
 21
220.4302915509
 31
0.0
  0
LINE
  5
83
330
1F
100
AcDbEntity
  8
0
  6
Continuous
 62
     7
370
    25
100
AcDbLine
 10
466.88
 20
249.1302915509
 30
0.0
 11
482.58
 21
249.1302915509
 31
0.0
  0
LINE
  5
84
330
1F
100
AcDbEntity
  8
0
  6
Continuous
 62
     7
370
    25
100
AcDbLine
 10
466.88
 20
251.4302915509
 30
0.0
 11
466.88
 21
249.1302915509
 31
0.0
  0
ARC
  5
85
330
1F
100
AcDbEntity
  8
0
  6
Continuous
 62
     7
370
    25
100
AcDbCircle
 10
482.58
 20
249.1302915509
 30
0.0
 40
2.300000000000011
100
AcDbArc
 50
0.0
 51
90.0
  0
LINE
  5
86
330
1F
100
AcDbEntity
  8
0
  6
Continuous
 62
     7
370
    25
100
AcDbLine
 10
482.58
 20
220.4302915509
 30
0.0
 11
484.88
 21
220.4302915509
 31
0.0
  0
LINE
  5
87
330
1F
100
AcDbEntity
  8
0
  6
Continuous
 62
     7
370
    25
100
AcDbLine
 10
484.88
 20
220.4302915509
 30
0.0
 11
484.88
 21
249.1302915509
 31
0.0
  0
LINE
  5
88
330
1F
100
AcDbEntity
  8
0
  6
HIDDEN
 62
     7
370
    18
100
AcDbLine
 10
477.88
 20
251.4302915509
 30
0.0
 11
477.88
 21
249.1302915509
 31
0.0
  0
LINE
  5
89
330
1F
100
AcDbEntity
  8
0
  6
HIDDEN
 62
     7
370
    18
100
AcDbLine
 10
471.88
 20
251.4302915509
 30
0.0
 11
471.88
 21
249.1302915509
 31
0.0
  0
LINE
  5
8A
330
1F
100
AcDbEntity
  8
0
  6
HIDDEN
 62
     7
370
    18
100
AcDbLine
 10
484.88
 20
227.4302915509
 30
0.0
 11
482.58
 21
227.4302915509
 31
0.0
  0
LINE
  5
8B
330
1F
100
AcDbEntity
  8
0
  6
HIDDEN
 62
     7
370
    18
100
AcDbLine
 10
484.88
 20
231.4302915509
 30
0.0
 11
482.58
 21
231.4302915509
 31
0.0
  0
LINE
  5
8C
330
1F
100
AcDbEntity
  8
0
  6
Continuous
 62
     7
370
    25
100
AcDbLine
 10
469.6574603256
 20
372.6308391205
 30
0.0
 11
458.5558838609
 21
366.2220354427
 31
0.0
  0
ARC
  5
8D
330
1F
100
AcDbEntity
  8
0
  6
Continuous
 62
     7
370
    25
100
AcDbCircle
 10
471.2838059223
 20
369.507799491
 30
0.0
 40
3.521132847211332
100
AcDbArc
 50
62.4914255688
 51
117.5085744312
  0
LINE
  5
8E
330
1F
100
AcDbEntity
  8
0
  6
Continuous
 62
     7
370
    25
100
AcDbLine
 10
493.2041161391
 20
360.9153827159
 30
0.0
 11
472.910151519
 21
372.6308391205
 31
0.0
  0
LINE
  5
8F
330
1F
100
AcDbEntity
  8
0
  6
Continuous
 62
     7
370
    25
100
AcDbLine
 10
491.5777705423
 20
359.9765133873
 30
0.0
 11
493.2041161391
 21
360.9153827159
 31
0.0
  0
LINE
  5
90
330
1F
100
AcDbEntity
  8
0
  6
Continuous
 62
     7
370
    25
100
AcDbLine
 10
471.2838059223
 20
371.691969792
 30
0.0
 11
491.5777705423
 21
359.9765133873
 31
0.0
  0
LINE
  5
91
330
1F
100
AcDbEntity
  8
0
  6
Continuous
 62
     7
370
    25
100
AcDbLine
 10
460.1822294577
 20
365.2831661141
 30
0.0
 11
471.2838059223
 21
371.691969792
 31
0.0
  0
LINE
  5
92
330
1F
100
AcDbEntity
  8
0
  6
Continuous
 62
     7
370
    25
100
AcDbLine
 10
458.5558838609
 20
366.2220354427
 30
0.0
 11
460.1822294577
 21
365.2831661141
 31
0.0
  0
LINE
  5
93
330
1F
100
AcDbEntity
  8
0
  6
Continuous
 62
     7
370
    25
100
AcDbLine
 10
471.2838059223
 20
371.691969792
 30
0.0
 11
471.2838059223
 21
333.3145516333
 31
0.0
  0
LINE
  5
94
330
1F
100
AcDbEntity
  8
0
  6
Continuous
 62
     7
370
    25
100
AcDbLine
 10
491.5777705423
 20
359.9765133873
 30
0.0
 11
491.5777705423
 21
321.5990952287
 31
0.0
  0
LINE
  5
95
330
1F
100
AcDbEntity
  8
0
  6
Continuous
 62
     7
370
    25
100
AcDbLine
 10
471.2838059223
 20
333.3145516333
 30
0.0
 11
491.5777705423
 21
321.5990952287
 31
0.0
  0
LWPOLYLINE
  5
96
330
1F
100
AcDbEntity
  8
0
  6
Continuous
 62
     7
370
    25
100
AcDbPolyline
 90
       23
 70
   128
 43
0.0
 10
483.7995959493
 20
338.7457224279
 10
483.8139906042
 20
338.5050008233
 10
483.8568815354
 20
338.2525599016
 10
483.9273956071
 20
337.9935386319
 10
484.0240973561
 20
337.7332099404
 10
484.1450182139
 20
337.4768733684
 10
484.2876965803
 20
337.2297471894
 10
484.4492279352
 20
336.9968621797
 10
484.6263239663
 20
336.7829592065
 10
484.8153795088
 20
336.5923927175
 10
485.0125459372
 20
336.4290420969
 10
485.2138095117
 20
336.2962326923
 10
485.4150730861
 20
336.1966681201
 10
485.6122395145
 20
336.132375228
 10
485.8012950571
 20
336.1046628337
 10
485.9783910881
 20
336.1140950817
 10
486.1399224431
 20
336.1604799587
 10
486.2826008095
 20
336.2428732024
 10
486.4035216672
 20
336.3595975237
 10
486.5002234163
 20
336.5082767523
 10
486.5707374879
 20
336.6858842078
 10
486.6136284191
 20
336.8888043145
 10
486.628023074
 20
337.1129062043
  0
LWPOLYLINE
  5
97
330
1F
100
AcDbEntity
  8
0
  6
Continuous
 62
     7
370
    25
100
AcDbPolyline
 90
       23
 70
   128
 43
0.0
 10
486.628023074
 20
337.1129062043
 10
486.6136284191
 20
337.3536278089
 10
486.5707374879
 20
337.6060687306
 10
486.5002234163
 20
337.8650900003
 10
486.4035216672
 20
338.1254186918
 10
486.2826008095
 20
338.3817552638
 10
486.1399224431
 20
338.6288814428
 10
485.9783910881
 20
338.8617664525
 10
485.8012950571
 20
339.0756694257
 10
485.6122395145
 20
339.2662359147
 10
485.4150730861
 20
339.4295865352
 10
485.2138095117
 20
339.5623959399
 10
485.0125459372
 20
339.661960512
 10
484.8153795088
 20
339.7262534042
 10
484.6263239663
 20
339.7539657985
 10
484.4492279352
 20
339.7445335504
 10
484.2876965803
 20
339.6981486735
 10
484.1450182139
 20
339.6157554298
 10
484.0240973561
 20
339.4990311084
 10
483.9273956071
 20
339.3503518798
 10
483.8568815354
 20
339.1727444244
 10
483.8139906042
 20
338.9698243177
 10
483.7995959493
 20
338.7457224279
  0
LWPOLYLINE
  5
98
330
1F
100
AcDbEntity
  8
0
  6
Continuous
 62
     7
370
    25
100
AcDbPolyline
 90
       23
 70
   128
 43
0.0
 10
483.7995959493
 20
352.218645824
 10
483.8139906042
 20
351.9779242194
 10
483.8568815354
 20
351.7254832977
 10
483.9273956071
 20
351.466462028
 10
484.0240973561
 20
351.2061333365
 10
484.1450182139
 20
350.9497967645
 10
484.2876965803
 20
350.7026705855
 10
484.4492279352
 20
350.4697855758
 10
484.6263239663
 20
350.2558826026
 10
484.8153795088
 20
350.0653161136
 10
485.0125459372
 20
349.9019654931
 10
485.2138095117
 20
349.7691560884
 10
485.4150730861
 20
349.6695915163
 10
485.6122395145
 20
349.6052986241
 10
485.8012950571
 20
349.5775862298
 10
485.9783910881
 20
349.5870184779
 10
486.1399224431
 20
349.6334033549
 10
486.2826008095
 20
349.7157965985
 10
486.4035216672
 20
349.8325209199
 10
486.5002234163
 20
349.9812001485
 10
486.5707374879
 20
350.1588076039
 10
486.6136284191
 20
350.3617277106
 10
486.628023074
 20
350.5858296004
  0
LWPOLYLINE
  5
99
330
1F
100
AcDbEntity
  8
0
  6
Continuous
 62
     7
370
    25
100
AcDbPolyline
 90
       23
 70
   128
 43
0.0
 10
486.628023074
 20
350.5858296004
 10
486.6136284191
 20
350.826551205
 10
486.5707374879
 20
351.0789921267
 10
486.5002234163
 20
351.3380133964
 10
486.4035216672
 20
351.598342088
 10
486.2826008095
 20
351.8546786599
 10
486.1399224431
 20
352.101804839
 10
485.9783910881
 20
352.3346898487
 10
485.8012950571
 20
352.5485928218
 10
485.6122395145
 20
352.7391593108
 10
485.4150730861
 20
352.9025099314
 10
485.2138095117
 20
353.035319336
 10
485.0125459372
 20
353.1348839082
 10
484.8153795088
 20
353.1991768003
 10
484.6263239663
 20
353.2268891946
 10
484.4492279352
 20
353.2174569466
 10
484.2876965803
 20
353.1710720696
 10
484.1450182139
 20
353.088678826
 10
484.0240973561
 20
352.9719545046
 10
483.9273956071
 20
352.823275276
 10
483.8568815354
 20
352.6456678205
 10
483.8139906042
 20
352.4427477138
 10
483.7995959493
 20
352.218645824
  0
LINE
  5
9A
330
1F
100
AcDbEntity
  8
0
  6
Continuous
 62
     7
370
    25
100
AcDbLine
 10
493.2041161391
 20
360.9153827159
 30
0.0
 11
493.2041161391
 21
322.5379645573
 31
0.0
  0
LINE
  5
9B
330
1F
100
AcDbEntity
  8
0
  6
Continuous
 62
     7
370
    25
100
AcDbLine
 10
491.5777705423
 20
321.5990952287
 30
0.0
 11
493.2041161391
 21
322.5379645573
 31
0.0
  0
LINE
  5
9C
330
1F
100
AcDbEntity
  8
0
  6
Continuous
 62
     7
370
    25
100
AcDbLine
 10
458.5558838609
 20
366.2220354427
 30
0.0
 11
458.5558838609
 21
327.8446172841
 31
0.0
  0
LINE
  5
9D
330
1F
100
AcDbEntity
  8
0
  6
Continuous
 62
     7
370
    25
100
AcDbLine
 10
460.1822294577
 20
365.2831661141
 30
0.0
 11
460.1822294577
 21
326.9057479555
 31
0.0
  0
LINE
  5
9E
330
1F
100
AcDbEntity
  8
0
  6
Continuous
 62
     7
370
    25
100
AcDbLine
 10
458.5558838609
 20
327.8446172841
 30
0.0
 11
460.1822294577
 21
326.9057479555
 31
0.0
  0
LINE
  5
9F
330
1F
100
AcDbEntity
  8
0
  6
Continuous
 62
     7
370
    25
100
AcDbLine
 10
460.1822294577
 20
326.9057479555
 30
0.0
 11
471.2838059223
 21
333.3145516333
 31
0.0
  0
LWPOLYLINE
  5
A0
330
1F
100
AcDbEntity
  8
0
  6
Continuous
 62
     7
370
    25
100
AcDbPolyline
 90
       28
 70
   128
 43
0.0
 10
463.7177633636
 20
337.1121763539
 10
463.7321069729
 20
336.8360729362
 10
463.774943828
 20
336.5802641224
 10
463.845694634
 20
336.3482092878
 10
463.9434026076
 20
336.1430465759
 10
464.066746416
 20
335.9675504605
 10
464.2140580459
 20
335.8240942255
 10
464.3833453601
 20
335.7146178704
 10
464.5723190382
 20
335.6406018751
 10
464.7784235354
 20
335.6030471788
 10
464.9988716418
 20
335.6024616446
 10
465.230682175
 20
335.6388531906
 10
465.4707202952
 20
335.7117296838
 10
465.7157398987
 20
335.8201055945
 10
465.9624275156
 20
335.9625153244
 10
466.2074471191
 20
336.1370330263
 10
466.4474852393
 20
336.3412986477
 10
466.6792957725
 20
336.5725498464
 10
466.8997438789
 20
336.8276593466
 10
467.1058483761
 20
337.10317723
 10
467.2948220542
 20
337.3953775899
 10
467.4641093684
 20
337.7003089177
 10
467.6114209983
 20
338.0138475402
 10
467.7347648067
 20
338.3317533856
 10
467.8324727803
 20
338.6497273225
 10
467.9032235863
 20
338.9634692989
 10
467.9460604414
 20
339.268736493
 10
467.9604040507
 20
339.5614006894
  0
LWPOLYLINE
  5
A1
330
1F
100
AcDbEntity
  8
0
  6
Continuous
 62
     7
370
    25
100
AcDbPolyline
 90
       28
 70
   128
 43
0.0
 10
467.9604040507
 20
339.5614006894
 10
467.9460604414
 20
339.8375041071
 10
467.9032235863
 20
340.0933129209
 10
467.8324727803
 20
340.3253677555
 10
467.7347648067
 20
340.5305304674
 10
467.6114209983
 20
340.7060265828
 10
467.4641093684
 20
340.8494828178
 10
467.2948220542
 20
340.9589591729
 10
467.1058483761
 20
341.0329751683
 10
466.8997438789
 20
341.0705298645
 10
466.6792957725
 20
341.0711153987
 10
466.4474852393
 20
341.0347238527
 10
466.2074471191
 20
340.9618473595
 10
465.9624275156
 20
340.8534714488
 10
465.7157398987
 20
340.7110617189
 10
465.4707202952
 20
340.536544017
 10
465.230682175
 20
340.3322783956
 10
464.9988716418
 20
340.101027197
 10
464.7784235354
 20
339.8459176968
 10
464.5723190382
 20
339.5703998133
 10
464.3833453601
 20
339.2781994534
 10
464.2140580459
 20
338.9732681256
 10
464.066746416
 20
338.6597295031
 10
463.9434026076
 20
338.3418236578
 10
463.845694634
 20
338.0238497209
 10
463.774943828
 20
337.7101077444
 10
463.7321069729
 20
337.4048405504
 10
463.7177633636
 20
337.1121763539
  0
LWPOLYLINE
  5
A2
330
1F
100
AcDbEntity
  8
0
  6
Continuous
 62
     7
370
    25
100
AcDbPolyline
 90
       28
 70
   128
 43
0.0
 10
463.7177633636
 20
358.7505078689
 10
463.7321069729
 20
358.4744044512
 10
463.774943828
 20
358.2185956374
 10
463.845694634
 20
357.9865408028
 10
463.9434026076
 20
357.7813780909
 10
464.066746416
 20
357.6058819755
 10
464.2140580459
 20
357.4624257405
 10
464.3833453601
 20
357.3529493854
 10
464.5723190382
 20
357.27893339
 10
464.7784235354
 20
357.2413786938
 10
464.9988716418
 20
357.2407931596
 10
465.230682175
 20
357.2771847056
 10
465.4707202952
 20
357.3500611988
 10
465.7157398987
 20
357.4584371095
 10
465.9624275156
 20
357.6008468394
 10
466.2074471191
 20
357.7753645413
 10
466.4474852393
 20
357.9796301627
 10
466.6792957725
 20
358.2108813613
 10
466.8997438789
 20
358.4659908615
 10
467.1058483761
 20
358.741508745
 10
467.2948220542
 20
359.0337091049
 10
467.4641093684
 20
359.3386404327
 10
467.6114209983
 20
359.6521790552
 10
467.7347648067
 20
359.9700849005
 10
467.8324727803
 20
360.2880588374
 10
467.9032235863
 20
360.6018008139
 10
467.9460604414
 20
360.9070680079
 10
467.9604040507
 20
361.1997322044
  0
LWPOLYLINE
  5
A3
330
1F
100
AcDbEntity
  8
0
  6
Continuous
 62
     7
370
    25
100
AcDbPolyline
 90
       28
 70
   128
 43
0.0
 10
467.9604040507
 20
361.1997322044
 10
467.9460604414
 20
361.475835622
 10
467.9032235863
 20
361.7316444359
 10
467.8324727803
 20
361.9636992705
 10
467.7347648067
 20
362.1688619824
 10
467.6114209983
 20
362.3443580978
 10
467.4641093684
 20
362.4878143328
 10
467.2948220542
 20
362.5972906879
 10
467.1058483761
 20
362.6713066832
 10
466.8997438789
 20
362.7088613795
 10
466.6792957725
 20
362.7094469137
 10
466.4474852393
 20
362.6730553676
 10
466.2074471191
 20
362.6001788745
 10
465.9624275156
 20
362.4918029638
 10
465.7157398987
 20
362.3493932339
 10
465.4707202952
 20
362.1748755319
 10
465.230682175
 20
361.9706099106
 10
464.9988716418
 20
361.7393587119
 10
464.7784235354
 20
361.4842492117
 10
464.5723190382
 20
361.2087313283
 10
464.3833453601
 20
360.9165309684
 10
464.2140580459
 20
360.6115996406
 10
464.066746416
 20
360.2980610181
 10
463.9434026076
 20
359.9801551727
 10
463.845694634
 20
359.6621812358
 10
463.774943828
 20
359.3484392594
 10
463.7321069729
 20
359.0431720653
 10
463.7177633636
 20
358.7505078689
  0
ARC
  5
A4
330
1F
100
AcDbEntity
  8
0
  6
Continuous
 62
     7
370
    25
100
AcDbCircle
 10
488.6102371124
 20
353.3629536311
 30
0.0
 40
3.20196111329038
100
AcDbArc
 50
188.6759346703
 51
231.318688797
  0
LWPOLYLINE
  5
A5
330
1F
100
AcDbEntity
  8
0
  6
Continuous
 62
     7
370
    25
100
AcDbPolyline
 90
        3
 70
   128
 43
0.0
 10
466.2863073624
 20
362.6278619621
 10
466.3197148447
 20
362.4147049506
 10
466.334058454
 20
362.138601533
  0
ARC
  5
A6
330
1F
100
AcDbEntity
  8
0
  6
Continuous
 62
     7
370
    25
100
AcDbCircle
 10
461.9483399947
 20
362.2544703185
 30
0.0
 40
4.38724879389904
100
AcDbArc
 50
294.4686025585
 51
358.4866223204
  0
ARC
  5
A7
330
1F
100
AcDbEntity
  8
0
  6
Continuous
 62
     7
370
    25
100
AcDbCircle
 10
488.6102371124
 20
339.890030235
 30
0.0
 40
3.201961113289963
100
AcDbArc
 50
188.6759346703
 51
231.318688797
  0
LWPOLYLINE
  5
A8
330
1F
100
AcDbEntity
  8
0
  6
Continuous
 62
     7
370
    25
100
AcDbPolyline
 90
        3
 70
   128
 43
0.0
 10
466.2863073624
 20
340.9895304472
 10
466.3197148447
 20
340.7763734357
 10
466.334058454
 20
340.500270018
  0
ARC
  5
A9
330
1F
100
AcDbEntity
  8
0
  6
Continuous
 62
     7
370
    25
100
AcDbCircle
 10
461.9483399947
 20
340.6161388036
 30
0.0
 40
4.387248793899262
100
AcDbArc
 50
294.4686025585
 51
358.4866223204
  0
LWPOLYLINE
  5
AA
330
1F
100
AcDbEntity
  8
0
  6
HIDDEN
 62
     7
370
    18
100
AcDbPolyline
 90
       23
 70
   128
 43
0.0
 10
485.425941546
 20
353.1575151526
 10
485.440336201
 20
353.3816170424
 10
485.4832271321
 20
353.5845371491
 10
485.5537412038
 20
353.7621446046
 10
485.6504429529
 20
353.9108238332
 10
485.7713638106
 20
354.0275481546
 10
485.914042177
 20
354.1099413982
 10
486.075573532
 20
354.1563262752
 10
486.252669563
 20
354.1657585232
 10
486.4417251055
 20
354.1380461289
 10
486.638891534
 20
354.0737532368
 10
486.8401551084
 20
353.9741886646
 10
487.0414186828
 20
353.84137926
 10
487.2385851112
 20
353.6780286394
 10
487.4276406538
 20
353.4874621504
 10
487.6047366848
 20
353.2735591773
 10
487.7662680398
 20
353.0406741676
 10
487.9089464062
 20
352.7935479885
 10
488.0298672639
 20
352.5372114166
 10
488.126569013
 20
352.276882725
 10
488.1970830847
 20
352.0178614553
 10
488.2399740158
 20
351.7654205336
 10
488.2543686708
 20
351.524698929
  0
LWPOLYLINE
  5
AB
330
1F
100
AcDbEntity
  8
0
  6
HIDDEN
 62
     7
370
    18
100
AcDbPolyline
 90
       14
 70
   128
 43
0.0
 10
488.2543686708
 20
351.524698929
 10
488.2399740158
 20
351.3005970392
 10
488.1970830847
 20
351.0976769325
 10
488.126569013
 20
350.9200694771
 10
488.0298672639
 20
350.7713902485
 10
487.9089464062
 20
350.6546659271
 10
487.7662680398
 20
350.5722726834
 10
487.6047366848
 20
350.5258878065
 10
487.4276406538
 20
350.5164555584
 10
487.2385851112
 20
350.5441679527
 10
487.0414186828
 20
350.6084608449
 10
486.8401551084
 20
350.708025417
 10
486.638891534
 20
350.8408348217
 10
486.6090496432
 20
350.8633929328
  0
LWPOLYLINE
  5
AC
330
1F
100
AcDbEntity
  8
0
  6
HIDDEN
 62
     7
370
    18
100
AcDbPolyline
 90
        3
 70
   128
 43
0.0
 10
485.4449149768
 20
352.8799518202
 10
485.440336201
 20
352.916793548
 10
485.425941546
 20
353.1575151526
  0
LWPOLYLINE
  5
AD
330
1F
100
AcDbEntity
  8
0
  6
HIDDEN
 62
     7
370
    18
100
AcDbPolyline
 90
       27
 70
   128
 43
0.0
 10
462.0914177669
 20
359.6893771975
 10
462.1057613761
 20
359.9820413939
 10
462.1485982313
 20
360.287308588
 10
462.2193490373
 20
360.6010505644
 10
462.3170570108
 20
360.9190245013
 10
462.4404008193
 20
361.2369303467
 10
462.5877124492
 20
361.5504689692
 10
462.7569997634
 20
361.855400297
 10
462.9459734415
 20
362.1476006569
 10
463.1520779386
 20
362.4231185403
 10
463.3725260451
 20
362.6782280405
 10
463.6043365783
 20
362.9094792392
 10
463.8443746985
 20
363.1137448605
 10
464.089394302
 20
363.2882625625
 10
464.3360819189
 20
363.4306722924
 10
464.5811015223
 20
363.5390482031
 10
464.8211396426
 20
363.6119246962
 10
465.0529501758
 20
363.6483162423
 10
465.2733982822
 20
363.6477307081
 10
465.4795027793
 20
363.6101760118
 10
465.6684764574
 20
363.5361600165
 10
465.8377637717
 20
363.4266836613
 10
465.9850754016
 20
363.2832274264
 10
466.10841921
 20
363.107731311
 10
466.2061271836
 20
362.9025685991
 10
466.2768779896
 20
362.6705137645
 10
466.2863073624
 20
362.6278619621
  0
LWPOLYLINE
  5
AE
330
1F
100
AcDbEntity
  8
0
  6
HIDDEN
 62
     7
370
    18
100
AcDbPolyline
 90
       13
 70
   128
 43
0.0
 10
463.7655144552
 20
358.2612474397
 10
463.6043365783
 20
358.2160540342
 10
463.3725260451
 20
358.1796624881
 10
463.1520779386
 20
358.1802480224
 10
462.9459734415
 20
358.2178027186
 10
462.7569997634
 20
358.291818714
 10
462.5877124492
 20
358.4012950691
 10
462.4404008193
 20
358.5447513041
 10
462.3170570108
 20
358.7202474195
 10
462.2193490373
 20
358.9254101313
 10
462.1485982313
 20
359.157464966
 10
462.1057613761
 20
359.4132737798
 10
462.0914177669
 20
359.6893771975
  0
ARC
  5
AF
330
1F
100
AcDbEntity
  8
0
  6
HIDDEN
 62
     7
370
    18
100
AcDbCircle
 10
471.2838059223
 20
331.1303813324
 30
0.0
 40
3.521132847210979
100
AcDbArc
 50
62.4914255688
 51
117.5085744312
  0
LINE
  5
B0
330
1F
100
AcDbEntity
  8
0
  6
HIDDEN
 62
     7
370
    18
100
AcDbLine
 10
469.6574603256
 20
334.2534209619
 30
0.0
 11
458.5558838609
 21
327.8446172841
 31
0.0
  0
LINE
  5
B1
330
1F
100
AcDbEntity
  8
0
  6
HIDDEN
 62
     7
370
    18
100
AcDbLine
 10
493.2041161391
 20
322.5379645573
 30
0.0
 11
472.910151519
 21
334.2534209619
 31
0.0
  0
LWPOLYLINE
  5
B2
330
1F
100
AcDbEntity
  8
0
  6
HIDDEN
 62
     7
370
    18
100
AcDbPolyline
 90
       23
 70
   128
 43
0.0
 10
485.425941546
 20
339.6845917565
 10
485.440336201
 20
339.9086936463
 10
485.4832271321
 20
340.111613753
 10
485.5537412038
 20
340.2892212084
 10
485.6504429529
 20
340.437900437
 10
485.7713638106
 20
340.5546247584
 10
485.914042177
 20
340.6370180021
 10
486.075573532
 20
340.683402879
 10
486.252669563
 20
340.6928351271
 10
486.4417251055
 20
340.6651227328
 10
486.638891534
 20
340.6008298406
 10
486.8401551084
 20
340.5012652685
 10
487.0414186828
 20
340.3684558638
 10
487.2385851112
 20
340.2051052433
 10
487.4276406538
 20
340.0145387543
 10
487.6047366848
 20
339.8006357811
 10
487.7662680398
 20
339.5677507714
 10
487.9089464062
 20
339.3206245924
 10
488.0298672639
 20
339.0642880204
 10
488.126569013
 20
338.8039593289
 10
488.1970830847
 20
338.5449380592
 10
488.2399740158
 20
338.2924971375
 10
488.2543686708
 20
338.0517755329
  0
LWPOLYLINE
  5
B3
330
1F
100
AcDbEntity
  8
0
  6
HIDDEN
 62
     7
370
    18
100
AcDbPolyline
 90
       14
 70
   128
 43
0.0
 10
488.2543686708
 20
338.0517755329
 10
488.2399740158
 20
337.8276736431
 10
488.1970830847
 20
337.6247535364
 10
488.126569013
 20
337.4471460809
 10
488.0298672639
 20
337.2984668523
 10
487.9089464062
 20
337.1817425309
 10
487.7662680398
 20
337.0993492873
 10
487.6047366848
 20
337.0529644103
 10
487.4276406538
 20
337.0435321623
 10
487.2385851112
 20
337.0712445566
 10
487.0414186828
 20
337.1355374487
 10
486.8401551084
 20
337.2351020209
 10
486.638891534
 20
337.3679114255
 10
486.6090496432
 20
337.3904695367
  0
LWPOLYLINE
  5
B4
330
1F
100
AcDbEntity
  8
0
  6
HIDDEN
 62
     7
370
    18
100
AcDbPolyline
 90
        3
 70
   128
 43
0.0
 10
485.4449149768
 20
339.4070284241
 10
485.440336201
 20
339.4438701519
 10
485.425941546
 20
339.6845917565
  0
LWPOLYLINE
  5
B5
330
1F
100
AcDbEntity
  8
0
  6
HIDDEN
 62
     7
370
    18
100
AcDbPolyline
 90
       27
 70
   128
 43
0.0
 10
462.0914177669
 20
338.0510456825
 10
462.1057613761
 20
338.343709879
 10
462.1485982313
 20
338.648977073
 10
462.2193490373
 20
338.9627190495
 10
462.3170570108
 20
339.2806929864
 10
462.4404008193
 20
339.5985988317
 10
462.5877124492
 20
339.9121374542
 10
462.7569997634
 20
340.217068782
 10
462.9459734415
 20
340.5092691419
 10
463.1520779386
 20
340.7847870253
 10
463.3725260451
 20
341.0398965256
 10
463.6043365783
 20
341.2711477242
 10
463.8443746985
 20
341.4754133456
 10
464.089394302
 20
341.6499310475
 10
464.3360819189
 20
341.7923407774
 10
464.5811015223
 20
341.9007166881
 10
464.8211396426
 20
341.9735931813
 10
465.0529501758
 20
342.0099847273
 10
465.2733982822
 20
342.0093991931
 10
465.4795027793
 20
341.9718444969
 10
465.6684764574
 20
341.8978285015
 10
465.8377637717
 20
341.7883521464
 10
465.9850754016
 20
341.6448959114
 10
466.10841921
 20
341.469399796
 10
466.2061271836
 20
341.2642370841
 10
466.2768779896
 20
341.0321822495
 10
466.2863073624
 20
340.9895304472
  0
LWPOLYLINE
  5
B6
330
1F
100
AcDbEntity
  8
0
  6
HIDDEN
 62
     7
370
    18
100
AcDbPolyline
 90
       13
 70
   128
 43
0.0
 10
463.7655144552
 20
336.6229159248
 10
463.6043365783
 20
336.5777225192
 10
463.3725260451
 20
336.5413309732
 10
463.1520779386
 20
336.5419165074
 10
462.9459734415
 20
336.5794712037
 10
462.7569997634
 20
336.653487199
 10
462.5877124492
 20
336.7629635541
 10
462.4404008193
 20
336.9064197891
 10
462.3170570108
 20
337.0819159045
 10
462.2193490373
 20
337.2870786164
 10
462.1485982313
 20
337.519133451
 10
462.1057613761
 20
337.7749422648
 10
462.0914177669
 20
338.0510456825
  0
LINE
  5
B7
330
1F
100
AcDbEntity
  8
0
  6
HIDDEN
 62
     7
370
    18
100
AcDbLine
 10
485.8402363758
 20
354.0732047656
 30
0.0
 11
484.213890779
 21
353.134335437
 31
0.0
  0
LINE
  5
B8
330
1F
100
AcDbEntity
  8
0
  6
HIDDEN
 62
     7
370
    18
100
AcDbLine
 10
486.2137282443
 20
349.6701399874
 30
0.0
 11
487.840073841
 21
350.609009316
 31
0.0
  0
LINE
  5
B9
330
1F
100
AcDbEntity
  8
0
  6
HIDDEN
 62
     7
370
    18
100
AcDbLine
 10
467.3389618061
 20
362.5732666238
 30
0.0
 11
465.7126162094
 21
363.5121359524
 31
0.0
  0
LINE
  5
BA
330
1F
100
AcDbEntity
  8
0
  6
HIDDEN
 62
     7
370
    18
100
AcDbLine
 10
462.7128600115
 20
358.3158427781
 30
0.0
 11
464.3392056082
 21
357.3769734495
 31
0.0
  0
LINE
  5
BB
330
1F
100
AcDbEntity
  8
0
  6
HIDDEN
 62
     7
370
    18
100
AcDbLine
 10
485.8402363758
 20
340.6002813695
 30
0.0
 11
484.213890779
 21
339.6614120409
 31
0.0
  0
LINE
  5
BC
330
1F
100
AcDbEntity
  8
0
  6
HIDDEN
 62
     7
370
    18
100
AcDbLine
 10
486.2137282443
 20
336.1972165913
 30
0.0
 11
487.840073841
 21
337.1360859199
 31
0.0
  0
LINE
  5
BD
330
1F
100
AcDbEntity
  8
0
  6
HIDDEN
 62
     7
370
    18
100
AcDbLine
 10
467.3389618061
 20
340.9349351088
 30
0.0
 11
465.7126162094
 21
341.8738044374
 31
0.0
  0
LINE
  5
BE
330
1F
100
AcDbEntity
  8
0
  6
HIDDEN
 62
     7
370
    18
100
AcDbLine
 10
462.7128600115
 20
336.6775112631
 30
0.0
 11
464.3392056082
 21
335.7386419345
 31
0.0
  0
ENDSEC
  0
SECTION
  2
OBJECTS
  0
DICTIONARY
  5
C
330
0
100
AcDbDictionary
281
     1
  3
ACAD_GROUP
350
D
  3
ACAD_LAYOUT
350
1A
  3
ACAD_MLINESTYLE
350
17
  3
ACAD_PLOTSETTINGS
350
19
  3
ACAD_PLOTSTYLENAME
350
E
  3
ACAD_SCALELIST
350
47
  3
DWGPROPS
350
BF
  0
DICTIONARY
  5
D
102
{ACAD_REACTORS
330
C
102
}
330
C
100
AcDbDictionary
281
     1
  0
DICTIONARY
  5
1A
102
{ACAD_REACTORS
330
C
102
}
330
C
100
AcDbDictionary
281
     1
  3
Layout1
350
1E
  3
Layout2
350
26
  3
Model
350
22
  0
DICTIONARY
  5
17
102
{ACAD_REACTORS
330
C
102
}
330
C
100
AcDbDictionary
281
     1
  3
Standard
350
18
  0
DICTIONARY
  5
19
102
{ACAD_REACTORS
330
C
102
}
330
C
100
AcDbDictionary
281
     1
  0
ACDBDICTIONARYWDFLT
  5
E
102
{ACAD_REACTORS
330
C
102
}
330
C
100
AcDbDictionary
281
     1
  3
Normal
350
F
100
AcDbDictionaryWithDefault
340
F
  0
DICTIONARY
  5
47
102
{ACAD_REACTORS
330
C
102
}
330
C
100
AcDbDictionary
281
     1
  3
A0
350
48
  3
A1
350
49
  3
A2
350
4A
  3
A3
350
4B
  3
A4
350
4C
  3
A5
350
4D
  3
A6
350
4E
  3
A7
350
4F
  3
A8
350
50
  3
A9
350
51
  3
B0
350
52
  3
B1
350
53
  3
B2
350
54
  3
B3
350
55
  3
B4
350
56
  3
B5
350
57
  3
B6
350
58
  0
XRECORD
  5
BF
102
{ACAD_REACTORS
330
C
102
}
330
C
100
AcDbXrecord
280
     1
  1
DWGPROPS COOKIE
  2

  3

  4

  6

  7

  8
imaizumi
  9

300
=
301
=
302
=
303
=
304
=
305
=
306
=
307
=
308
=
309
=
 40
0.0
 41
2461263.042637454
 42
2461263.042637813
  1

 90
        0
  0
LAYOUT
  5
1E
102
{ACAD_REACTORS
330
1A
102
}
330
1A
100
AcDbPlotSettings
  1

  2
none_device
  4

  6

 40
0.0
 41
0.0
 42
0.0
 43
0.0
 44
0.0
 45
0.0
 46
0.0
 47
0.0
 48
0.0
 49
0.0
140
0.0
141
0.0
142
1.0
143
1.0
 70
   688
 72
     1
 73
     0
 74
     5
  7

 75
    16
147
1.0
148
0.0
149
0.0
100
AcDbLayout
  1
Layout1
 70
     1
 71
     1
 10
0.0
 20
0.0
 11
420.0
 21
297.0
 12
0.0
 22
0.0
 32
0.0
 14
1.0000000000E+20
 24
1.0000000000E+20
 34
1.0000000000E+20
 15
-1.0000000000E+20
 25
-1.0000000000E+20
 35
-1.0000000000E+20
146
0.0
 13
0.0
 23
0.0
 33
0.0
 16
1.0
 26
0.0
 36
0.0
 17
0.0
 27
1.0
 37
0.0
 76
     0
330
1B
  0
LAYOUT
  5
26
102
{ACAD_REACTORS
330
1A
102
}
330
1A
100
AcDbPlotSettings
  1

  2
none_device
  4

  6

 40
0.0
 41
0.0
 42
0.0
 43
0.0
 44
0.0
 45
0.0
 46
0.0
 47
0.0
 48
0.0
 49
0.0
140
0.0
141
0.0
142
1.0
143
1.0
 70
   688
 72
     1
 73
     0
 74
     5
  7

 75
    16
147
1.0
148
0.0
149
0.0
100
AcDbLayout
  1
Layout2
 70
     1
 71
     2
 10
0.0
 20
0.0
 11
0.0
 21
0.0
 12
0.0
 22
0.0
 32
0.0
 14
0.0
 24
0.0
 34
0.0
 15
0.0
 25
0.0
 35
0.0
146
0.0
 13
0.0
 23
0.0
 33
0.0
 16
1.0
 26
0.0
 36
0.0
 17
0.0
 27
1.0
 37
0.0
 76
     0
330
23
  0
LAYOUT
  5
22
102
{ACAD_REACTORS
330
1A
102
}
330
1A
100
AcDbPlotSettings
  1

  2
none_device
  4
Letter_(8.50_x_11.00_Inches)
  6

 40
6.35
 41
6.35
 42
6.35000508
 43
6.35000508
 44
215.9
 45
279.4
 46
0.0
 47
0.0
 48
0.0
 49
0.0
140
0.0
141
0.0
142
1.0
143
1.0
 70
  1712
 72
     1
 73
     0
 74
     0
  7

 75
     0
147
1.0
148
0.0
149
0.0
100
AcDbLayout
  1
Model
 70
     1
 71
     0
 10
0.0
 20
0.0
 11
841.0
 21
594.0
 12
0.0
 22
0.0
 32
0.0
 14
0.0
 24
0.0
 34
0.0
 15
841.0
 25
594.0
 35
0.0
146
0.0
 13
0.0
 23
0.0
 33
0.0
 16
1.0
 26
0.0
 36
0.0
 17
0.0
 27
1.0
 37
0.0
 76
     0
330
1F
331
29
  0
MLINESTYLE
  5
18
102
{ACAD_REACTORS
330
17
102
}
330
17
100
AcDbMlineStyle
  2
Standard
 70
     0
  3

 62
   256
 51
90.0
 52
90.0
 71
     2
 49
0.5
 62
   256
  6
BYLAYER
 49
-0.5
 62
   256
  6
BYLAYER
  0
ACDBPLACEHOLDER
  5
F
102
{ACAD_REACTORS
330
E
102
}
330
E
  0
SCALE
  5
48
102
{ACAD_REACTORS
330
47
102
}
330
47
100
AcDbScale
 70
     0
300
1:1
140
1.0
141
1.0
290
     1
  0
SCALE
  5
49
102
{ACAD_REACTORS
330
47
102
}
330
47
100
AcDbScale
 70
     0
300
1:2
140
1.0
141
2.0
290
     0
  0
SCALE
  5
4A
102
{ACAD_REACTORS
330
47
102
}
330
47
100
AcDbScale
 70
     0
300
1:4
140
1.0
141
4.0
290
     0
  0
SCALE
  5
4B
102
{ACAD_REACTORS
330
47
102
}
330
47
100
AcDbScale
 70
     0
300
1:5
140
1.0
141
5.0
290
     0
  0
SCALE
  5
4C
102
{ACAD_REACTORS
330
47
102
}
330
47
100
AcDbScale
 70
     0
300
1:8
140
1.0
141
8.0
290
     0
  0
SCALE
  5
4D
102
{ACAD_REACTORS
330
47
102
}
330
47
100
AcDbScale
 70
     0
300
1:10
140
1.0
141
10.0
290
     0
  0
SCALE
  5
4E
102
{ACAD_REACTORS
330
47
102
}
330
47
100
AcDbScale
 70
     0
300
1:16
140
1.0
141
16.0
290
     0
  0
SCALE
  5
4F
102
{ACAD_REACTORS
330
47
102
}
330
47
100
AcDbScale
 70
     0
300
1:20
140
1.0
141
20.0
290
     0
  0
SCALE
  5
50
102
{ACAD_REACTORS
330
47
102
}
330
47
100
AcDbScale
 70
     0
300
1:30
140
1.0
141
30.0
290
     0
  0
SCALE
  5
51
102
{ACAD_REACTORS
330
47
102
}
330
47
100
AcDbScale
 70
     0
300
1:40
140
1.0
141
40.0
290
     0
  0
SCALE
  5
52
102
{ACAD_REACTORS
330
47
102
}
330
47
100
AcDbScale
 70
     0
300
1:50
140
1.0
141
50.0
290
     0
  0
SCALE
  5
53
102
{ACAD_REACTORS
330
47
102
}
330
47
100
AcDbScale
 70
     0
300
1:100
140
1.0
141
100.0
290
     0
  0
SCALE
  5
54
102
{ACAD_REACTORS
330
47
102
}
330
47
100
AcDbScale
 70
     0
300
2:1
140
2.0
141
1.0
290
     0
  0
SCALE
  5
55
102
{ACAD_REACTORS
330
47
102
}
330
47
100
AcDbScale
 70
     0
300
4:1
140
4.0
141
1.0
290
     0
  0
SCALE
  5
56
102
{ACAD_REACTORS
330
47
102
}
330
47
100
AcDbScale
 70
     0
300
8:1
140
8.0
141
1.0
290
     0
  0
SCALE
  5
57
102
{ACAD_REACTORS
330
47
102
}
330
47
100
AcDbScale
 70
     0
300
10:1
140
10.0
141
1.0
290
     0
  0
SCALE
  5
58
102
{ACAD_REACTORS
330
47
102
}
330
47
100
AcDbScale
 70
     0
300
100:1
140
100.0
141
1.0
290
     0
  0
ENDSEC
  0
EOF
