  0
SECTION
  2
HEADER
  9
$ACADVER
  1
AC1015
  9
$ACADMAINTVER
 70
6
  9
$DWGCODEPAGE
  3
ANSI_932
  9
$INSBASE
 10
0.0
 20
0.0
 30
0.0
  9
$EXTMIN
 10
1e+20
 20
1e+20
 30
1e+20
  9
$EXTMAX
 10
-1e+20
 20
-1e+20
 30
-1e+20
  9
$LIMMIN
 10
0.0
 20
0.0
  9
$LIMMAX
 10
420.0
 20
297.0
  9
$ORTHOMODE
 70
0
  9
$REGENMODE
 70
1
  9
$FILLMODE
 70
1
  9
$QTEXTMODE
 70
0
  9
$MIRRTEXT
 70
1
  9
$LTSCALE
 40
8.4
  9
$ATTMODE
 70
1
  9
$TEXTSIZE
 40
2.5
  9
$TRACEWID
 40
1.0
  9
$TEXTSTYLE
  7
Standard
  9
$CLAYER
  8
0
  9
$CELTYPE
  6
ByLayer
  9
$CECOLOR
 62
256
  9
$CELTSCALE
 40
1.0
  9
$DISPSILH
 70
0
  9
$DIMSCALE
 40
1.0
  9
$DIMASZ
 40
2.5
  9
$DIMEXO
 40
0.625
  9
$DIMDLI
 40
3.75
  9
$DIMRND
 40
0.0
  9
$DIMDLE
 40
0.0
  9
$DIMEXE
 40
1.25
  9
$DIMTP
 40
0.0
  9
$DIMTM
 40
0.0
  9
$DIMTXT
 40
2.5
  9
$DIMCEN
 40
2.5
  9
$DIMTSZ
 40
0.0
  9
$DIMTOL
 70
0
  9
$DIMLIM
 70
0
  9
$DIMTIH
 70
0
  9
$DIMTOH
 70
0
  9
$DIMSE1
 70
0
  9
$DIMSE2
 70
0
  9
$DIMTAD
 70
1
  9
$DIMZIN
 70
8
  9
$DIMBLK
  1

  9
$DIMASO
 70
1
  9
$DIMSHO
 70
1
  9
$DIMPOST
  1

  9
$DIMAPOST
  1

  9
$DIMALT
 70
0
  9
$DIMALTD
 70
3
  9
$DIMALTF
 40
0.03937007874
  9
$DIMLFAC
 40
1.0
  9
$DIMTOFL
 70
1
  9
$DIMTVP
 40
0.0
  9
$DIMTIX
 70
0
  9
$DIMSOXD
 70
0
  9
$DIMSAH
 70
0
  9
$DIMBLK1
  1

  9
$DIMBLK2
  1

  9
$DIMSTYLE
  2
ISO-25
  9
$DIMCLRD
 70
0
  9
$DIMCLRE
 70
0
  9
$DIMCLRT
 70
0
  9
$DIMTFAC
 40
1.0
  9
$DIMGAP
 40
0.625
  9
$DIMJUST
 70
0
  9
$DIMSD1
 70
0
  9
$DIMSD2
 70
0
  9
$DIMTOLJ
 70
0
  9
$DIMTZIN
 70
8
  9
$DIMALTZ
 70
0
  9
$DIMALTTZ
 70
0
  9
$DIMUPT
 70
0
  9
$DIMDEC
 70
2
  9
$DIMTDEC
 70
2
  9
$DIMALTU
 70
2
  9
$DIMALTTD
 70
3
  9
$DIMTXSTY
  7
Standard
  9
$DIMAUNIT
 70
0
  9
$DIMADEC
 70
0
  9
$DIMALTRND
 40
0.0
  9
$DIMAZIN
 70
0
  9
$DIMDSEP
 70
44
  9
$DIMATFIT
 70
3
  9
$DIMFRAC
 70
0
  9
$DIMLDRBLK
  1

  9
$DIMLUNIT
 70
2
  9
$DIMLWD
 70
-2
  9
$DIMLWE
 70
-2
  9
$DIMTMOVE
 70
0
  9
$LUNITS
 70
2
  9
$LUPREC
 70
4
  9
$SKETCHINC
 40
1.0
  9
$FILLETRAD
 40
10.0
  9
$AUNITS
 70
0
  9
$AUPREC
 70
2
  9
$MENU
  1
.
  9
$ELEVATION
 40
0.0
  9
$PELEVATION
 40
0.0
  9
$THICKNESS
 40
0.0
  9
$LIMCHECK
 70
0
  9
$CHAMFERA
 40
0.0
  9
$CHAMFERB
 40
0.0
  9
$CHAMFERC
 40
0.0
  9
$CHAMFERD
 40
0.0
  9
$SKPOLY
 70
0
  9
$TDCREATE
 40
2461263.5075347223
  9
$TDUCREATE
 40
2458532.153996898
  9
$TDUPDATE
 40
2461263.5075347223
  9
$TDUUPDATE
 40
2458532.1544311
  9
$TDINDWG
 40
0.0
  9
$TDUSRTIMER
 40
0.0
  9
$USRTIMER
 70
1
  9
$ANGBASE
 50
0.0
  9
$ANGDIR
 70
0
  9
$PDMODE
 70
0
  9
$PDSIZE
 40
0.0
  9
$PLINEWID
 40
0.0
  9
$SPLFRAME
 70
0
  9
$SPLINETYPE
 70
6
  9
$SPLINESEGS
 70
8
  9
$HANDSEED
  5
23F
  9
$SURFTAB1
 70
6
  9
$SURFTAB2
 70
6
  9
$SURFTYPE
 70
6
  9
$SURFU
 70
6
  9
$SURFV
 70
6
  9
$UCSBASE
  2

  9
$UCSNAME
  2

  9
$UCSORG
 10
0.0
 20
0.0
 30
0.0
  9
$UCSXDIR
 10
1.0
 20
0.0
 30
0.0
  9
$UCSYDIR
 10
0.0
 20
1.0
 30
0.0
  9
$UCSORTHOREF
  2

  9
$UCSORTHOVIEW
 70
0
  9
$UCSORGTOP
 10
0.0
 20
0.0
 30
0.0
  9
$UCSORGBOTTOM
 10
0.0
 20
0.0
 30
0.0
  9
$UCSORGLEFT
 10
0.0
 20
0.0
 30
0.0
  9
$UCSORGRIGHT
 10
0.0
 20
0.0
 30
0.0
  9
$UCSORGFRONT
 10
0.0
 20
0.0
 30
0.0
  9
$UCSORGBACK
 10
0.0
 20
0.0
 30
0.0
  9
$PUCSBASE
  2

  9
$PUCSNAME
  2

  9
$PUCSORG
 10
0.0
 20
0.0
 30
0.0
  9
$PUCSXDIR
 10
1.0
 20
0.0
 30
0.0
  9
$PUCSYDIR
 10
0.0
 20
1.0
 30
0.0
  9
$PUCSORTHOREF
  2

  9
$PUCSORTHOVIEW
 70
0
  9
$PUCSORGTOP
 10
0.0
 20
0.0
 30
0.0
  9
$PUCSORGBOTTOM
 10
0.0
 20
0.0
 30
0.0
  9
$PUCSORGLEFT
 10
0.0
 20
0.0
 30
0.0
  9
$PUCSORGRIGHT
 10
0.0
 20
0.0
 30
0.0
  9
$PUCSORGFRONT
 10
0.0
 20
0.0
 30
0.0
  9
$PUCSORGBACK
 10
0.0
 20
0.0
 30
0.0
  9
$USERI1
 70
0
  9
$USERI2
 70
0
  9
$USERI3
 70
0
  9
$USERI4
 70
0
  9
$USERI5
 70
0
  9
$USERR1
 40
0.0
  9
$USERR2
 40
0.0
  9
$USERR3
 40
0.0
  9
$USERR4
 40
0.0
  9
$USERR5
 40
0.0
  9
$WORLDVIEW
 70
1
  9
$SHADEDGE
 70
3
  9
$SHADEDIF
 70
70
  9
$TILEMODE
 70
1
  9
$MAXACTVP
 70
64
  9
$PINSBASE
 10
0.0
 20
0.0
 30
0.0
  9
$PLIMCHECK
 70
0
  9
$PEXTMIN
 10
1e+20
 20
1e+20
 30
1e+20
  9
$PEXTMAX
 10
-1e+20
 20
-1e+20
 30
-1e+20
  9
$PLIMMIN
 10
0.0
 20
0.0
  9
$PLIMMAX
 10
420.0
 20
297.0
  9
$UNITMODE
 70
0
  9
$VISRETAIN
 70
1
  9
$PLINEGEN
 70
0
  9
$PSLTSCALE
 70
1
  9
$TREEDEPTH
 70
3020
  9
$CMLSTYLE
  2
Standard
  9
$CMLJUST
 70
0
  9
$CMLSCALE
 40
20.0
  9
$PROXYGRAPHICS
 70
1
  9
$MEASUREMENT
 70
1
  9
$CELWEIGHT
370
-1
  9
$ENDCAPS
280
0
  9
$JOINSTYLE
280
0
  9
$LWDISPLAY
290
0
  9
$INSUNITS
 70
4
  9
$HYPERLINKBASE
  1

  9
$STYLESHEET
  1

  9
$XEDIT
290
1
  9
$CEPSNTYPE
380
0
  9
$PSTYLEMODE
290
1
  9
$FINGERPRINTGUID
  2
{CFE3CBFC-70A5-4945-8F60-F4F0D84321E6}
  9
$VERSIONGUID
  2
{5AF12EDE-5078-4FBD-AC25-17B0E378FE19}
  9
$EXTNAMES
290
1
  9
$PSVPSCALE
 40
0.0
  9
$OLESTARTUP
290
0
  0
ENDSEC
  0
SECTION
  2
CLASSES
  0
CLASS
  1
ACDBDICTIONARYWDFLT
  2
AcDbDictionaryWithDefault
  3
ObjectDBX Classes
 90
0
280
0
281
0
  0
CLASS
  1
SUN
  2
AcDbSun
  3
SCENEOE
 90
1153
280
0
281
0
  0
CLASS
  1
VISUALSTYLE
  2
AcDbVisualStyle
  3
ObjectDBX Classes
 90
4095
280
0
281
0
  0
CLASS
  1
MATERIAL
  2
AcDbMaterial
  3
ObjectDBX Classes
 90
1153
280
0
281
0
  0
CLASS
  1
SCALE
  2
AcDbScale
  3
ObjectDBX Classes
 90
1153
280
0
281
0
  0
CLASS
  1
TABLESTYLE
  2
AcDbTableStyle
  3
ObjectDBX Classes
 90
4095
280
0
281
0
  0
CLASS
  1
MLEADERSTYLE
  2
AcDbMLeaderStyle
  3
ACDB_MLEADERSTYLE_CLASS
 90
4095
280
0
281
0
  0
CLASS
  1
DICTIONARYVAR
  2
AcDbDictionaryVar
  3
ObjectDBX Classes
 90
0
280
0
281
0
  0
CLASS
  1
CELLSTYLEMAP
  2
AcDbCellStyleMap
  3
ObjectDBX Classes
 90
1152
280
0
281
0
  0
CLASS
  1
MENTALRAYRENDERSETTINGS
  2
AcDbMentalRayRenderSettings
  3
SCENEOE
 90
1024
280
0
281
0
  0
CLASS
  1
ACDBDETAILVIEWSTYLE
  2
AcDbDetailViewStyle
  3
ObjectDBX Classes
 90
1025
280
0
281
0
  0
CLASS
  1
ACDBSECTIONVIEWSTYLE
  2
AcDbSectionViewStyle
  3
ObjectDBX Classes
 90
1025
280
0
281
0
  0
CLASS
  1
RASTERVARIABLES
  2
AcDbRasterVariables
  3
ISM
 90
0
280
0
281
0
  0
CLASS
  1
ACDBPLACEHOLDER
  2
AcDbPlaceHolder
  3
ObjectDBX Classes
 90
0
280
0
281
0
  0
CLASS
  1
LAYOUT
  2
AcDbLayout
  3
ObjectDBX Classes
 90
0
280
0
281
0
  0
ENDSEC
  0
SECTION
  2
TABLES
  0
TABLE
  2
VPORT
  5
8
330
0
100
AcDbSymbolTable
 70
1
  0
VPORT
  5
23
330
8
100
AcDbSymbolTableRecord
100
AcDbViewportTableRecord
  2
*Active
 70
0
 10
0.0
 20
0.0
 11
1.0
 21
1.0
 12
0.0
 22
0.0
 13
0.0
 23
0.0
 14
0.5
 24
0.5
 15
0.5
 25
0.5
 16
0.0
 26
0.0
 36
1.0
 17
0.0
 27
0.0
 37
0.0
 40
1000.0
 41
1.34
 42
50.0
 43
0.0
 44
0.0
 50
0.0
 51
0.0
 71
0
 72
1000
 73
1
 74
3
 75
0
 76
0
 77
0
 78
0
281
0
 65
0
146
0.0
  0
ENDTAB
  0
TABLE
  2
LTYPE
  5
2
330
0
100
AcDbSymbolTable
 70
7
  0
LTYPE
  5
24
330
2
100
AcDbSymbolTableRecord
100
AcDbLinetypeTableRecord
  2
ByBlock
 70
0
  3

 72
65
 73
0
 40
0.0
  0
LTYPE
  5
25
330
2
100
AcDbSymbolTableRecord
100
AcDbLinetypeTableRecord
  2
ByLayer
 70
0
  3

 72
65
 73
0
 40
0.0
  0
LTYPE
  5
26
330
2
100
AcDbSymbolTableRecord
100
AcDbLinetypeTableRecord
  2
Continuous
 70
0
  3

 72
65
 73
0
 40
0.0
  0
LTYPE
  5
122
330
2
100
AcDbSymbolTableRecord
100
AcDbLinetypeTableRecord
  2
DASHDOT
 70
0
  3
__ . __ . __ . __ . __ . __ . __ . __ . __ . __
 72
65
 73
4
 40
1.0
 49
0.5
 74
0
 49
-0.25
 74
0
 49
0.0
 74
0
 49
-0.25
 74
0
  0
LTYPE
  5
13B
330
2
100
AcDbSymbolTableRecord
100
AcDbLinetypeTableRecord
  2
HIDDEN
 70
0
  3
Hidden __ __ __ __ __ __ __ __ __ __ __ __ __ __
 72
65
 73
2
 40
1.905
 49
1.27
 74
0
 49
-0.635
 74
0
  0
LTYPE
  5
13C
330
2
100
AcDbSymbolTableRecord
100
AcDbLinetypeTableRecord
  2
PHANTOM
 70
0
  3
Phantom ______  __  __  ______  __  __  ______
 72
65
 73
6
 40
12.7
 49
6.35
 74
0
 49
-1.27
 74
0
 49
1.27
 74
0
 49
-1.27
 74
0
 49
1.27
 74
0
 49
-1.27
 74
0
  0
LTYPE
  5
13D
330
2
100
AcDbSymbolTableRecord
100
AcDbLinetypeTableRecord
  2
CENTER
 70
0
  3
Center ____ _ ____ _ ____ _ ____ _ ____ _ ____
 72
65
 73
4
 40
10.16
 49
6.35
 74
0
 49
-1.27
 74
0
 49
1.27
 74
0
 49
-1.27
 74
0
  0
ENDTAB
  0
TABLE
  2
LAYER
  5
1
330
0
100
AcDbSymbolTable
 70
5
  0
LAYER
  5
27
330
1
100
AcDbSymbolTableRecord
100
AcDbLayerTableRecord
  2
0
 70
0
 62
7
  6
Continuous
370
-3
390
13
  0
LAYER
  5
28
330
1
100
AcDbSymbolTableRecord
100
AcDbLayerTableRecord
  2
Defpoints
 70
0
 62
7
  6
Continuous
290
0
370
-3
390
13
  0
LAYER
  5
11F
330
1
100
AcDbSymbolTableRecord
100
AcDbLayerTableRecord
  2
2
 70
0
 62
7
  6
CONTINUOUS
370
-3
390
30
  0
LAYER
  5
120
330
1
100
AcDbSymbolTableRecord
100
AcDbLayerTableRecord
  2
254
 70
0
 62
7
  6
CONTINUOUS
370
-3
390
30
  0
LAYER
  5
121
330
1
100
AcDbSymbolTableRecord
100
AcDbLayerTableRecord
  2
1
 70
0
 62
7
  6
CONTINUOUS
370
-3
390
30
  0
ENDTAB
  0
TABLE
  2
STYLE
  5
5
330
0
100
AcDbSymbolTable
 70
16
  0
STYLE
  5
29
330
5
100
AcDbSymbolTableRecord
100
AcDbTextStyleTableRecord
  2
Standard
 70
0
 40
0.0
 41
1.0
 50
0.0
 71
0
 42
2.5
  3
txt
  4

  0
STYLE
  5
123
330
5
100
AcDbSymbolTableRecord
100
AcDbTextStyleTableRecord
  2
GMM014
 70
0
 40
0.0
 41
0.82727272727273
 50
0.0
 71
0
 42
1.0
  3
txt.shx
  4
bigfont.shx
  0
STYLE
  5
124
330
5
100
AcDbSymbolTableRecord
100
AcDbTextStyleTableRecord
  2
GMM010
 70
0
 40
0.0
 41
0.7
 50
0.0
 71
0
 42
1.0
  3
txt.shx
  4
bigfont.shx
  0
STYLE
  5
125
330
5
100
AcDbSymbolTableRecord
100
AcDbTextStyleTableRecord
  2
GMM008
 70
0
 40
0.0
 41
0.8
 50
0.0
 71
0
 42
1.0
  3
txt.shx
  4
bigfont.shx
  0
STYLE
  5
126
330
5
100
AcDbSymbolTableRecord
100
AcDbTextStyleTableRecord
  2
GMM015
 70
0
 40
0.0
 41
0.41152263374486
 50
0.0
 71
0
 42
1.0
  3
txt.shx
  4
bigfont.shx
  0
STYLE
  5
127
330
5
100
AcDbSymbolTableRecord
100
AcDbTextStyleTableRecord
  2
GMM001
 70
0
 40
0.0
 41
1.0
 50
0.0
 71
0
 42
1.0
  3
txt.shx
  4
bigfont.shx
  0
STYLE
  5
128
330
5
100
AcDbSymbolTableRecord
100
AcDbTextStyleTableRecord
  2
GMM012
 70
0
 40
0.0
 41
1.0666666666667
 50
0.0
 71
0
 42
1.0
  3
txt.shx
  4
bigfont.shx
  0
STYLE
  5
129
330
5
100
AcDbSymbolTableRecord
100
AcDbTextStyleTableRecord
  2
GMM004
 70
0
 40
0.0
 41
0.66666666666667
 50
0.0
 71
0
 42
1.0
  3
txt.shx
  4
bigfont.shx
  0
STYLE
  5
12A
330
5
100
AcDbSymbolTableRecord
100
AcDbTextStyleTableRecord
  2
STANDARD1
 70
4
 40
0.0
 41
1.0
 50
0.0
 71
0
 42
0.2
  3
TXT
  4
BIGFONT
  0
STYLE
  5
12B
330
5
100
AcDbSymbolTableRecord
100
AcDbTextStyleTableRecord
  2
GMM007
 70
0
 40
0.0
 41
0.625
 50
0.0
 71
0
 42
1.0
  3
txt.shx
  4
bigfont.shx
  0
STYLE
  5
12C
330
5
100
AcDbSymbolTableRecord
100
AcDbTextStyleTableRecord
  2
GMM011
 70
0
 40
0.0
 41
0.95
 50
0.0
 71
0
 42
1.0
  3
txt.shx
  4
bigfont.shx
  0
STYLE
  5
12D
330
5
100
AcDbSymbolTableRecord
100
AcDbTextStyleTableRecord
  2
GMM003
 70
0
 40
0.0
 41
0.91125
 50
0.0
 71
0
 42
1.0
  3
txt.shx
  4
bigfont.shx
  0
STYLE
  5
12E
330
5
100
AcDbSymbolTableRecord
100
AcDbTextStyleTableRecord
  2
GMM009
 70
0
 40
0.0
 41
0.49382716049383
 50
0.0
 71
0
 42
1.0
  3
txt.shx
  4
bigfont.shx
  0
STYLE
  5
1BA
330
5
100
AcDbSymbolTableRecord
100
AcDbTextStyleTableRecord
  2
VF001
 70
0
 40
0.0
 41
0.548697
 50
0.0
 71
0
 42
2.5
  3
txt.shx
  4

  0
STYLE
  5
1BC
330
5
100
AcDbSymbolTableRecord
100
AcDbTextStyleTableRecord
  2
VF002
 70
0
 40
0.0
 41
0.428571
 50
0.0
 71
0
 42
2.5
  3
txt.shx
  4

  0
STYLE
  5
1C7
330
5
100
AcDbSymbolTableRecord
100
AcDbTextStyleTableRecord
  2
VF003
 70
0
 40
0.0
 41
0.75
 50
0.0
 71
0
 42
2.5
  3
txt.shx
  4

  0
ENDTAB
  0
TABLE
  2
VIEW
  5
7
330
0
100
AcDbSymbolTable
 70
0
  0
ENDTAB
  0
TABLE
  2
UCS
  5
6
330
0
100
AcDbSymbolTable
 70
0
  0
ENDTAB
  0
TABLE
  2
APPID
  5
3
330
0
100
AcDbSymbolTable
 70
3
  0
APPID
  5
2A
330
3
100
AcDbSymbolTableRecord
100
AcDbRegAppTableRecord
  2
ACAD
 70
0
  0
APPID
  5
12F
330
3
100
AcDbSymbolTableRecord
100
AcDbRegAppTableRecord
  2
HATCHBACKGROUNDCOLOR
 70
0
  0
APPID
  5
130
330
3
100
AcDbSymbolTableRecord
100
AcDbRegAppTableRecord
  2
EZDXF
 70
0
  0
ENDTAB
  0
TABLE
  2
DIMSTYLE
  5
4
330
0
100
AcDbSymbolTable
 70
9
100
AcDbDimStyleTable
  0
DIMSTYLE
105
2B
330
4
100
AcDbSymbolTableRecord
100
AcDbDimStyleTableRecord
  2
Standard
 70
0
  3

  4

 40
1.0
 41
2.5
 42
0.625
 43
3.75
 44
1.25
 45
0.0
 46
0.0
 47
0.0
 48
0.0
140
2.5
141
2.5
142
0.0
143
0.03937007874
144
1.0
145
0.0
146
1.0
147
0.625
148
0.0
 71
0
 72
0
 73
0
 74
0
 75
0
 76
0
 77
1
 78
8
 79
3
170
0
171
3
172
1
173
0
174
0
175
0
176
0
177
0
178
0
179
2
271
2
272
2
273
2
274
3
275
0
276
0
277
2
278
44
279
0
280
0
281
0
282
0
283
0
284
8
285
0
286
0
288
0
289
3
371
-2
372
-2
  0
DIMSTYLE
105
1CD
330
4
100
AcDbSymbolTableRecord
100
AcDbDimStyleTableRecord
  2
GEN001
 70
0
  3

  4

 40
1.0
 41
3.0
 42
1.0
 43
8.0
 44
2.0
 45
0.0
 46
0.0
 47
0.0
 48
0.0
140
4.0
141
1.0
142
0.0
143
0.03937007874
144
1.0
145
0.0
146
1.0
147
0.5
148
0.0
 71
0
 72
0
 73
0
 74
0
 75
0
 76
0
 77
3
 78
8
 79
3
170
0
171
3
172
1
173
1
174
0
175
0
176
3
177
3
178
7
179
2
271
2
272
2
273
2
274
3
275
0
276
0
277
2
278
46
279
0
280
0
281
0
282
0
283
0
284
8
285
0
286
0
288
0
289
3
340
1C7
343
1C8
344
1C8
371
-2
372
-2
  0
DIMSTYLE
105
1DD
330
4
100
AcDbSymbolTableRecord
100
AcDbDimStyleTableRecord
  2
GEN002
 70
0
  3

  4

 40
1.0
 41
3.0
 42
1.0
 43
8.0
 44
2.0
 45
0.0
 46
0.0
 47
0.0
 48
0.0
140
4.0
141
1.0
142
0.0
143
0.03937007874
144
1.0
145
0.0
146
1.0
147
0.5
148
0.0
 71
0
 72
0
 73
0
 74
0
 75
0
 76
0
 77
3
 78
8
 79
3
170
0
171
3
172
1
173
1
174
0
175
0
176
3
177
3
178
7
179
2
271
2
272
2
273
2
274
3
275
0
276
0
277
2
278
46
279
0
280
0
281
0
282
0
283
0
284
8
285
0
286
0
288
0
289
3
340
1C7
343
1C8
344
1C8
371
-2
372
-2
  0
DIMSTYLE
105
1ED
330
4
100
AcDbSymbolTableRecord
100
AcDbDimStyleTableRecord
  2
GEN003
 70
0
  3

  4

 40
1.0
 41
3.0
 42
1.0
 43
8.0
 44
2.0
 45
0.0
 46
0.0
 47
0.0
 48
0.0
140
4.0
141
1.0
142
0.0
143
0.03937007874
144
1.0
145
0.0
146
1.0
147
0.5
148
0.0
 71
0
 72
0
 73
0
 74
0
 75
0
 76
0
 77
3
 78
8
 79
3
170
0
171
3
172
1
173
1
174
0
175
0
176
3
177
3
178
7
179
2
271
2
272
2
273
2
274
3
275
0
276
0
277
2
278
46
279
0
280
0
281
0
282
0
283
0
284
8
285
0
286
0
288
0
289
3
340
1C7
343
1C8
344
1C8
371
-2
372
-2
  0
DIMSTYLE
105
1FD
330
4
100
AcDbSymbolTableRecord
100
AcDbDimStyleTableRecord
  2
GEN004
 70
0
  3
%%c<>
  4

 40
1.0
 41
3.0
 42
1.0
 43
8.0
 44
2.0
 45
0.0
 46
0.0
 47
0.0
 48
0.0
140
4.0
141
1.0
142
0.0
143
0.03937007874
144
1.0
145
0.0
146
1.0
147
0.5
148
0.0
 71
0
 72
0
 73
0
 74
0
 75
0
 76
0
 77
3
 78
8
 79
3
170
0
171
3
172
1
173
1
174
0
175
0
176
3
177
3
178
7
179
2
271
2
272
2
273
2
274
3
275
0
276
0
277
2
278
46
279
0
280
0
281
0
282
0
283
0
284
8
285
0
286
0
288
0
289
3
340
1C7
343
1C8
344
1C8
371
-2
372
-2
  0
DIMSTYLE
105
20D
330
4
100
AcDbSymbolTableRecord
100
AcDbDimStyleTableRecord
  2
GEN005
 70
0
  3
%%c<>
  4

 40
1.0
 41
3.0
 42
1.0
 43
8.0
 44
2.0
 45
0.0
 46
0.0
 47
0.0
 48
0.0
140
4.0
141
1.0
142
0.0
143
0.03937007874
144
1.0
145
0.0
146
1.0
147
0.5
148
0.0
 71
0
 72
0
 73
0
 74
0
 75
0
 76
0
 77
3
 78
8
 79
3
170
0
171
3
172
1
173
1
174
0
175
0
176
3
177
3
178
7
179
2
271
2
272
2
273
2
274
3
275
0
276
0
277
2
278
46
279
0
280
0
281
0
282
0
283
0
284
8
285
0
286
0
288
0
289
3
340
1C7
343
1C8
344
1C8
371
-2
372
-2
  0
DIMSTYLE
105
21D
330
4
100
AcDbSymbolTableRecord
100
AcDbDimStyleTableRecord
  2
GEN006
 70
0
  3
%%c<>
  4

 40
1.0
 41
3.0
 42
1.0
 43
8.0
 44
2.0
 45
0.0
 46
0.0
 47
0.0
 48
0.0
140
4.0
141
1.0
142
0.0
143
0.03937007874
144
1.0
145
0.0
146
1.0
147
0.5
148
0.0
 71
0
 72
0
 73
0
 74
0
 75
0
 76
0
 77
3
 78
8
 79
3
170
0
171
3
172
1
173
1
174
0
175
0
176
3
177
3
178
7
179
2
271
2
272
2
273
2
274
3
275
0
276
0
277
2
278
46
279
0
280
0
281
0
282
0
283
0
284
8
285
0
286
0
288
0
289
3
340
1C7
343
1C8
344
1C8
371
-2
372
-2
  0
DIMSTYLE
105
22B
330
4
100
AcDbSymbolTableRecord
100
AcDbDimStyleTableRecord
  2
GEN007
 70
0
  3

  4

 40
1.0
 41
3.0
 42
1.0
 43
8.0
 44
2.0
 45
0.0
 46
0.0
 47
0.0
 48
0.0
140
4.0
141
1.0
142
0.0
143
0.03937007874
144
1.0
145
0.0
146
1.0
147
0.5
148
0.0
 71
0
 72
0
 73
0
 74
0
 75
0
 76
0
 77
3
 78
8
 79
3
170
0
171
3
172
1
173
1
174
0
175
0
176
3
177
3
178
7
179
2
271
2
272
2
273
2
274
3
275
0
276
0
277
2
278
46
279
0
280
0
281
0
282
0
283
0
284
8
285
0
286
0
288
0
289
3
340
1C7
343
1C8
344
1C8
371
-2
372
-2
  0
DIMSTYLE
105
23B
330
4
100
AcDbSymbolTableRecord
100
AcDbDimStyleTableRecord
  2
GENLDR
 70
0
  3

  4

 40
1.0
 41
3.0
 42
1.0
 43
8.0
 44
2.0
 45
0.0
 46
0.0
 47
0.0
 48
0.0
140
4.0
141
1.0
142
0.0
143
0.03937007874
144
1.0
145
0.0
146
1.0
147
0.5
148
0.0
 71
0
 72
0
 73
0
 74
0
 75
0
 76
0
 77
3
 78
8
 79
3
170
0
171
3
172
1
173
1
174
0
175
0
176
3
177
3
178
7
179
2
271
2
272
2
273
2
274
3
275
0
276
0
277
2
278
46
279
0
280
0
281
0
282
0
283
0
284
8
285
0
286
0
288
0
289
3
340
1C7
343
1C8
344
1C8
371
-2
372
-2
  0
ENDTAB
  0
TABLE
  2
BLOCK_RECORD
  5
9
330
0
100
AcDbSymbolTable
 70
17
  0
BLOCK_RECORD
  5
17
330
9
100
AcDbSymbolTableRecord
100
AcDbBlockTableRecord
  2
*Model_Space
340
1A
  0
BLOCK_RECORD
  5
1B
330
9
100
AcDbSymbolTableRecord
100
AcDbBlockTableRecord
  2
*Paper_Space
340
1E
  0
BLOCK_RECORD
  5
C8
330
9
100
AcDbSymbolTableRecord
100
AcDbBlockTableRecord
  2
BLOCK004
340
0
  0
BLOCK_RECORD
  5
D6
330
9
100
AcDbSymbolTableRecord
100
AcDbBlockTableRecord
  2
BLOCK005
340
0
  0
BLOCK_RECORD
  5
111
330
9
100
AcDbSymbolTableRecord
100
AcDbBlockTableRecord
  2
BLOCK006
340
0
  0
BLOCK_RECORD
  5
118
330
9
100
AcDbSymbolTableRecord
100
AcDbBlockTableRecord
  2
BLOCK007
340
0
  0
BLOCK_RECORD
  5
193
330
9
100
AcDbSymbolTableRecord
100
AcDbBlockTableRecord
  2
SW_CENTERMARKSYMBOL_0
340
0
  0
BLOCK_RECORD
  5
19E
330
9
100
AcDbSymbolTableRecord
100
AcDbBlockTableRecord
  2
SW_CENTERMARKSYMBOL_1
340
0
  0
BLOCK_RECORD
  5
1A9
330
9
100
AcDbSymbolTableRecord
100
AcDbBlockTableRecord
  2
SW_CENTERMARKSYMBOL_2
340
0
  0
BLOCK_RECORD
  5
1C8
330
9
100
AcDbSymbolTableRecord
100
AcDbBlockTableRecord
  2
_OPEN30
340
0
  0
BLOCK_RECORD
  5
1CF
330
9
100
AcDbSymbolTableRecord
100
AcDbBlockTableRecord
  2
*D1
340
0
  0
BLOCK_RECORD
  5
1DF
330
9
100
AcDbSymbolTableRecord
100
AcDbBlockTableRecord
  2
*D2
340
0
  0
BLOCK_RECORD
  5
1EF
330
9
100
AcDbSymbolTableRecord
100
AcDbBlockTableRecord
  2
*D3
340
0
  0
BLOCK_RECORD
  5
1FF
330
9
100
AcDbSymbolTableRecord
100
AcDbBlockTableRecord
  2
*D4
340
0
  0
BLOCK_RECORD
  5
20F
330
9
100
AcDbSymbolTableRecord
100
AcDbBlockTableRecord
  2
*D5
340
0
  0
BLOCK_RECORD
  5
21F
330
9
100
AcDbSymbolTableRecord
100
AcDbBlockTableRecord
  2
*D6
340
0
  0
BLOCK_RECORD
  5
22D
330
9
100
AcDbSymbolTableRecord
100
AcDbBlockTableRecord
  2
*D7
340
0
  0
ENDTAB
  0
ENDSEC
  0
SECTION
  2
BLOCKS
  0
BLOCK
  5
18
330
17
100
AcDbEntity
  8
0
100
AcDbBlockBegin
  2
*Model_Space
 70
0
 10
0.0
 20
0.0
 30
0.0
  3
*Model_Space
  1

  0
ENDBLK
  5
19
330
17
100
AcDbEntity
  8
0
100
AcDbBlockEnd
  0
BLOCK
  5
1C
330
1B
100
AcDbEntity
  8
0
100
AcDbBlockBegin
  2
*Paper_Space
 70
0
 10
0.0
 20
0.0
 30
0.0
  3
*Paper_Space
  1

  0
ENDBLK
  5
1D
330
1B
100
AcDbEntity
  8
0
100
AcDbBlockEnd
  0
BLOCK
  5
C9
330
C8
100
AcDbEntity
  8
0
100
AcDbBlockBegin
  2
BLOCK004
 70
64
 10
0.0
 20
0.0
 30
0.0
  3
BLOCK004
  1

  0
CIRCLE
  5
CB
330
C8
100
AcDbEntity
  8
2
  6
CONTINUOUS
 62
7
370
20
100
AcDbCircle
 10
170.52102818258
 20
10.197623906063
 30
0.0
 40
2.1782975474943
  0
CIRCLE
  5
CC
330
C8
100
AcDbEntity
  8
2
  6
CONTINUOUS
 62
7
370
20
100
AcDbCircle
 10
170.52102818258
 20
10.197623906063
 30
0.0
 40
1.43691326178
  0
LWPOLYLINE
  5
CD
330
C8
100
AcDbEntity
  8
2
  6
CONTINUOUS
 62
7
370
20
100
AcDbPolyline
 90
4
 70
1
 10
175.06221618808
 20
11.634537167843
 10
180.26350009482
 20
12.375921453557
 10
180.26350009482
 20
8.0193263585682
 10
175.06221618808
 20
8.7607106442827
  0
LINE
  5
CE
330
C8
100
AcDbEntity
  8
2
  6
CONTINUOUS
 62
7
370
20
100
AcDbLine
 10
168.03987259152
 20
10.197623906063
 30
0.0
 11
170.80115164912
 21
10.197623906063
 31
0.0
  0
LINE
  5
CF
330
C8
100
AcDbEntity
  8
2
  6
CONTINUOUS
 62
7
370
20
100
AcDbLine
 10
171.25447468719
 20
10.197623906063
 30
0.0
 11
172.20027039241
 21
10.197623906063
 31
0.0
  0
LINE
  5
D0
330
C8
100
AcDbEntity
  8
2
  6
CONTINUOUS
 62
7
370
20
100
AcDbLine
 10
177.29615748089
 20
10.197623906063
 30
0.0
 11
178.2468966452
 21
10.197623906063
 31
0.0
  0
LINE
  5
D1
330
C8
100
AcDbEntity
  8
2
  6
CONTINUOUS
 62
7
370
20
100
AcDbLine
 10
172.99280424365
 20
10.197623906063
 30
0.0
 11
176.67551000266
 21
10.197623906063
 31
0.0
  0
LINE
  5
D2
330
C8
100
AcDbEntity
  8
2
  6
CONTINUOUS
 62
7
370
20
100
AcDbLine
 10
178.91739616362
 20
10.197623906063
 30
0.0
 11
181.17172699337
 21
10.197623906063
 31
0.0
  0
LINE
  5
D3
330
C8
100
AcDbEntity
  8
2
  6
CONTINUOUS
 62
7
370
20
100
AcDbLine
 10
170.52102818258
 20
10.450588115875
 30
0.0
 11
170.52102818258
 21
7.6687870559977
 31
0.0
  0
LINE
  5
D4
330
C8
100
AcDbEntity
  8
2
  6
CONTINUOUS
 62
7
370
20
100
AcDbLine
 10
170.52102818258
 20
11.879149095869
 30
0.0
 11
170.52102818258
 21
10.974485114891
 31
0.0
  0
LINE
  5
D5
330
C8
100
AcDbEntity
  8
2
  6
CONTINUOUS
 62
7
370
20
100
AcDbLine
 10
170.52102818258
 20
12.751764531148
 30
0.0
 11
170.52102818258
 21
12.118986673823
 31
0.0
  0
ENDBLK
  5
CA
330
C8
100
AcDbEntity
  8
0
100
AcDbBlockEnd
  0
BLOCK
  5
D7
330
D6
100
AcDbEntity
  8
0
100
AcDbBlockBegin
  2
BLOCK005
 70
64
 10
0.0
 20
0.0
 30
0.0
  3
BLOCK005
  1

  0
MTEXT
  5
D9
330
D6
100
AcDbEntity
  8
254
 62
7
370
20
100
AcDbMText
 10
149.40450574984
 20
18.703608255046
 30
0.0
 40
2.3113364687439
 41
0.0
 71
1
  1
{\T1.000000;ÇPÇOÇOÇOÅ`}\P{\T1.000000;ÇQÇOÇOÇO}
  7
GMM010
 44
0.79999984000003
  0
MTEXT
  5
DA
330
D6
100
AcDbEntity
  8
254
 62
7
370
20
100
AcDbMText
 10
140.98345281688
 20
18.703608255046
 30
0.0
 40
2.3113364687439
 41
0.0
 71
1
  1
{\T1.000000;ÇSÇOÇOÅ`}\P{\T1.000000;ÇPÇOÇOÇO}
  7
GMM010
 44
0.79999984000003
  0
MTEXT
  5
DB
330
D6
100
AcDbEntity
  8
254
 62
7
370
20
100
AcDbMText
 10
132.43154947819
 20
18.703608255046
 30
0.0
 40
2.3113364687439
 41
0.0
 71
1
  1
{\T1.000000;ÇPÇQÇOÅ`}\P{\T1.000000;ÇSÇOÇO}
  7
GMM010
 44
0.79999984000003
  0
MTEXT
  5
DC
330
D6
100
AcDbEntity
  8
254
 62
7
370
20
100
AcDbMText
 10
124.12265403585
 20
18.703608255046
 30
0.0
 40
2.3113364687439
 41
0.0
 71
1
  1
{\T1.000000;ÇRÇOÅ@Å`}\P{\T1.000000;ÇPÇQÇO}
  7
GMM010
 44
0.79999984000003
  0
MTEXT
  5
DD
330
D6
100
AcDbEntity
  8
254
 62
7
370
20
100
AcDbMText
 10
115.58944361226
 20
18.703608255046
 30
0.0
 40
2.3113364687439
 41
0.0
 71
1
  1
{\T1.000000;ÇUÅ@Å`}\P{\T1.000000;ÇRÇO}
  7
GMM010
 44
0.79999984000003
  0
MTEXT
  5
DE
330
D6
100
AcDbEntity
  8
254
 62
7
370
20
100
AcDbMText
 10
107.24316233971
 20
18.703608255046
 30
0.0
 40
2.3113364687439
 41
0.0
 71
1
  1
{\T1.000000;ÇRÅ@Å`}\P{\T1.000000;ÇU}
  7
GMM010
 44
0.79999984000003
  0
LINE
  5
DF
330
D6
100
AcDbEntity
  8
2
  6
CONTINUOUS
 62
3
370
9
100
AcDbLine
 10
96.972262552243
 20
20.550214344458
 30
0.0
 11
166.43737735483
 21
20.550214344458
 31
0.0
  0
LINE
  5
E0
330
D6
100
AcDbEntity
  8
2
  6
CONTINUOUS
 62
3
370
9
100
AcDbLine
 10
96.972262552243
 20
13.84845139869
 30
0.0
 11
106.70490438971
 21
13.84845139869
 31
0.0
  0
LINE
  5
E1
330
D6
100
AcDbEntity
  8
2
  6
CONTINUOUS
 62
3
370
9
100
AcDbLine
 10
106.70490438971
 20
13.84845139869
 30
0.0
 11
115.2381148133
 21
13.84845139869
 31
0.0
  0
LINE
  5
E2
330
D6
100
AcDbEntity
  8
2
  6
CONTINUOUS
 62
3
370
9
100
AcDbLine
 10
115.2381148133
 20
13.84845139869
 30
0.0
 11
123.77132523688
 21
13.84845139869
 31
0.0
  0
LINE
  5
E3
330
D6
100
AcDbEntity
  8
2
  6
CONTINUOUS
 62
3
370
9
100
AcDbLine
 10
123.77132523688
 20
13.84845139869
 30
0.0
 11
132.30453566047
 21
13.84845139869
 31
0.0
  0
LINE
  5
E4
330
D6
100
AcDbEntity
  8
2
  6
CONTINUOUS
 62
3
370
9
100
AcDbLine
 10
132.30453566047
 20
13.84845139869
 30
0.0
 11
140.83774608406
 21
13.84845139869
 31
0.0
  0
LINE
  5
E5
330
D6
100
AcDbEntity
  8
2
  6
CONTINUOUS
 62
3
370
9
100
AcDbLine
 10
140.83774608406
 20
13.84845139869
 30
0.0
 11
149.37095650765
 21
13.84845139869
 31
0.0
  0
LINE
  5
E6
330
D6
100
AcDbEntity
  8
2
  6
CONTINUOUS
 62
3
370
9
100
AcDbLine
 10
149.37095650765
 20
13.84845139869
 30
0.0
 11
157.90416693124
 21
13.84845139869
 31
0.0
  0
LINE
  5
E7
330
D6
100
AcDbEntity
  8
2
  6
CONTINUOUS
 62
3
370
9
100
AcDbLine
 10
157.90416693124
 20
13.84845139869
 30
0.0
 11
166.43737735483
 21
13.84845139869
 31
0.0
  0
MTEXT
  5
E8
330
D6
100
AcDbEntity
  8
254
 62
7
370
20
100
AcDbMText
 10
101.75381223092
 20
18.703608255046
 30
0.0
 40
2.3113364687439
 41
0.0
 71
2
  1
{\T1.000000;Å†Çí¥Ç¶}\P{\T1.000000;Å†à»â∫}
  7
GMM011
 44
0.79999984000003
  0
MTEXT
  5
E9
330
D6
100
AcDbEntity
  8
254
 62
7
370
20
100
AcDbMText
 10
157.87528390182
 20
18.703608255046
 30
0.0
 40
2.3113364687439
 41
0.0
 71
1
  1
{\T1.000000;ÇQÇOÇOÇOÅ`}\P{\T1.000000;ÇSÇOÇOÇO}
  7
GMM010
 44
0.79999984000003
  0
LINE
  5
EA
330
D6
100
AcDbEntity
  8
2
  6
CONTINUOUS
 62
3
370
9
100
AcDbLine
 10
157.90416693124
 20
9.424225699345
 30
0.0
 11
166.43737735483
 21
9.424225699345
 31
0.0
  0
LINE
  5
EB
330
D6
100
AcDbEntity
  8
2
  6
CONTINUOUS
 62
3
370
9
100
AcDbLine
 10
149.37095650765
 20
9.424225699345
 30
0.0
 11
157.90416693124
 21
9.424225699345
 31
0.0
  0
LINE
  5
EC
330
D6
100
AcDbEntity
  8
2
  6
CONTINUOUS
 62
3
370
9
100
AcDbLine
 10
140.83774608406
 20
9.424225699345
 30
0.0
 11
149.37095650765
 21
9.424225699345
 31
0.0
  0
LINE
  5
ED
330
D6
100
AcDbEntity
  8
2
  6
CONTINUOUS
 62
3
370
9
100
AcDbLine
 10
132.30453566047
 20
9.424225699345
 30
0.0
 11
140.83774608406
 21
9.424225699345
 31
0.0
  0
LINE
  5
EE
330
D6
100
AcDbEntity
  8
2
  6
CONTINUOUS
 62
3
370
9
100
AcDbLine
 10
123.77132523688
 20
9.424225699345
 30
0.0
 11
132.30453566047
 21
9.424225699345
 31
0.0
  0
LINE
  5
EF
330
D6
100
AcDbEntity
  8
2
  6
CONTINUOUS
 62
3
370
9
100
AcDbLine
 10
115.2381148133
 20
9.424225699345
 30
0.0
 11
123.77132523688
 21
9.424225699345
 31
0.0
  0
LINE
  5
F0
330
D6
100
AcDbEntity
  8
2
  6
CONTINUOUS
 62
3
370
9
100
AcDbLine
 10
106.70490438971
 20
9.424225699345
 30
0.0
 11
115.2381148133
 21
9.424225699345
 31
0.0
  0
LINE
  5
F1
330
D6
100
AcDbEntity
  8
2
  6
CONTINUOUS
 62
3
370
9
100
AcDbLine
 10
96.972262552243
 20
9.424225699345
 30
0.0
 11
106.70490438971
 21
9.424225699345
 31
0.0
  0
LINE
  5
F2
330
D6
100
AcDbEntity
  8
2
  6
CONTINUOUS
 62
3
370
9
100
AcDbLine
 10
106.70490438971
 20
20.550214344458
 30
0.0
 11
106.70490438971
 21
4.9999999999998
 31
0.0
  0
LINE
  5
F3
330
D6
100
AcDbEntity
  8
2
  6
CONTINUOUS
 62
3
370
9
100
AcDbLine
 10
115.2381148133
 20
20.550214344458
 30
0.0
 11
115.2381148133
 21
4.9999999999998
 31
0.0
  0
LINE
  5
F4
330
D6
100
AcDbEntity
  8
2
  6
CONTINUOUS
 62
3
370
9
100
AcDbLine
 10
123.77132523688
 20
20.550214344458
 30
0.0
 11
123.77132523688
 21
4.9999999999998
 31
0.0
  0
LINE
  5
F5
330
D6
100
AcDbEntity
  8
2
  6
CONTINUOUS
 62
3
370
9
100
AcDbLine
 10
132.30453566047
 20
20.550214344458
 30
0.0
 11
132.30453566047
 21
4.9999999999998
 31
0.0
  0
LINE
  5
F6
330
D6
100
AcDbEntity
  8
2
  6
CONTINUOUS
 62
3
370
9
100
AcDbLine
 10
140.83774608406
 20
20.550214344458
 30
0.0
 11
140.83774608406
 21
4.9999999999998
 31
0.0
  0
LINE
  5
F7
330
D6
100
AcDbEntity
  8
2
  6
CONTINUOUS
 62
3
370
9
100
AcDbLine
 10
149.37095650765
 20
20.550214344458
 30
0.0
 11
149.37095650765
 21
4.9999999999998
 31
0.0
  0
LINE
  5
F8
330
D6
100
AcDbEntity
  8
2
  6
CONTINUOUS
 62
3
370
9
100
AcDbLine
 10
157.90416693124
 20
20.550214344458
 30
0.0
 11
157.90416693124
 21
4.9999999999998
 31
0.0
  0
MTEXT
  5
F9
330
D6
100
AcDbEntity
  8
254
 62
7
370
20
100
AcDbMText
 10
110.66396580379
 20
7.3356081976647
 30
0.0
 40
2.3113364687439
 41
0.0
 71
5
  1
%%p\T1.000000;ÇP
  7
GMM010
 44
0.79999984000003
  0
MTEXT
  5
FA
330
D6
100
AcDbEntity
  8
254
 62
7
370
20
100
AcDbMText
 10
119.19717622738
 20
7.3356081976647
 30
0.0
 40
2.3113364687439
 41
0.0
 71
5
  1
%%p\T1.000000;ÇP
  7
GMM010
 44
0.79999984000003
  0
MTEXT
  5
FB
330
D6
100
AcDbEntity
  8
254
 62
7
370
20
100
AcDbMText
 10
127.73038665097
 20
7.3356081976647
 30
0.0
 40
2.3113364687439
 41
0.0
 71
5
  1
%%p\T1.000000;ÇPÅDÇT
  7
GMM010
 44
0.79999984000003
  0
MTEXT
  5
FC
330
D6
100
AcDbEntity
  8
254
 62
7
370
20
100
AcDbMText
 10
136.26359707456
 20
7.3356081976647
 30
0.0
 40
2.3113364687439
 41
0.0
 71
5
  1
%%p\T1.000000;ÇQ
  7
GMM010
 44
0.79999984000003
  0
MTEXT
  5
FD
330
D6
100
AcDbEntity
  8
254
 62
7
370
20
100
AcDbMText
 10
144.79680749815
 20
7.3356081976647
 30
0.0
 40
2.3113364687439
 41
0.0
 71
5
  1
%%p\T1.000000;ÇQÅDÇT
  7
GMM010
 44
0.79999984000003
  0
MTEXT
  5
FE
330
D6
100
AcDbEntity
  8
254
 62
7
370
20
100
AcDbMText
 10
153.33001792174
 20
7.3356081976647
 30
0.0
 40
2.3113364687439
 41
0.0
 71
5
  1
%%p\T1.000000;ÇR
  7
GMM010
 44
0.79999984000003
  0
MTEXT
  5
FF
330
D6
100
AcDbEntity
  8
254
 62
7
370
20
100
AcDbMText
 10
161.12785112996
 20
7.3356081976647
 30
0.0
 40
2.3113364687439
 41
0.0
 71
5
  1
%%p\T1.000000;ÇS
  7
GMM010
 44
0.79999984000003
  0
MTEXT
  5
100
330
D6
100
AcDbEntity
  8
254
 62
7
370
20
100
AcDbMText
 10
110.51442248296
 20
11.634920373638
 30
0.0
 40
2.3113364687439
 41
0.0
 71
5
  1
%%p\T1.000000;ÇOÅDÇP
  7
GMM010
 44
0.79999984000003
  0
MTEXT
  5
101
330
D6
100
AcDbEntity
  8
254
 62
7
370
20
100
AcDbMText
 10
119.04763290655
 20
11.634920373638
 30
0.0
 40
2.3113364687439
 41
0.0
 71
5
  1
%%p\T1.000000;ÇOÅDÇQ
  7
GMM010
 44
0.79999984000003
  0
MTEXT
  5
102
330
D6
100
AcDbEntity
  8
254
 62
7
370
20
100
AcDbMText
 10
127.58084333014
 20
11.634920373638
 30
0.0
 40
2.3113364687439
 41
0.0
 71
5
  1
%%p\T1.000000;ÇOÅDÇR
  7
GMM010
 44
0.79999984000003
  0
MTEXT
  5
103
330
D6
100
AcDbEntity
  8
254
 62
7
370
20
100
AcDbMText
 10
136.11405375372
 20
11.634920373638
 30
0.0
 40
2.3113364687439
 41
0.0
 71
5
  1
%%p\T1.000000;ÇOÅDÇT
  7
GMM010
 44
0.79999984000003
  0
MTEXT
  5
104
330
D6
100
AcDbEntity
  8
254
 62
7
370
20
100
AcDbMText
 10
144.64726417731
 20
11.634920373638
 30
0.0
 40
2.3113364687439
 41
0.0
 71
5
  1
%%p\T1.000000;ÇOÅDÇW
  7
GMM010
 44
0.79999984000003
  0
MTEXT
  5
105
330
D6
100
AcDbEntity
  8
254
 62
7
370
20
100
AcDbMText
 10
153.1804746009
 20
11.634920373638
 30
0.0
 40
2.3113364687439
 41
0.0
 71
5
  1
%%p\T1.000000;ÇPÅDÇQ
  7
GMM010
 44
0.79999984000003
  0
MTEXT
  5
106
330
D6
100
AcDbEntity
  8
254
 62
7
370
20
100
AcDbMText
 10
160.97830780913
 20
11.634920373638
 30
0.0
 40
2.3113364687439
 41
0.0
 71
5
  1
%%p\T1.000000;ÇQ
  7
GMM010
 44
0.79999984000003
  0
MTEXT
  5
107
330
D6
100
AcDbEntity
  8
254
 62
7
370
20
100
AcDbMText
 10
99.896982663893
 20
11.634920373638
 30
0.0
 40
2.5424701156183
 41
0.0
 71
5
  1
\T1.000000;ã@äB
  7
GMM001
 44
0.79999984000003
  0
MTEXT
  5
108
330
D6
100
AcDbEntity
  8
254
 62
7
370
20
100
AcDbMText
 10
99.896982663893
 20
7.3356081976647
 30
0.0
 40
2.5424701156183
 41
0.0
 71
5
  1
\T1.000000;êªä 
  7
GMM001
 44
0.79999984000003
  0
MTEXT
  5
109
330
D6
100
AcDbEntity
  8
254
 62
7
370
20
100
AcDbMText
 10
104.68236893058
 20
11.335833731969
 30
0.0
 40
1.7335023515579
 41
0.0
 71
5
  1
\T1.000000;â¡çH
  7
GMM012
 44
0.79999984000003
  0
MTEXT
  5
10A
330
D6
100
AcDbEntity
  8
254
 62
7
370
20
100
AcDbMText
 10
104.68236893058
 20
6.9116080326244
 30
0.0
 40
1.7335023515579
 41
0.0
 71
5
  1
\T1.000000;â¡çH
  7
GMM012
 44
0.79999984000003
  0
LINE
  5
10B
330
D6
100
AcDbEntity
  8
2
  6
CONTINUOUS
 62
3
370
9
100
AcDbLine
 10
92.759851837957
 20
24.469731335988
 30
0.0
 11
166.43737735483
 21
24.469731335988
 31
0.0
  0
TEXT
  5
10C
330
D6
100
AcDbEntity
  8
254
 62
3
370
9
100
AcDbText
 10
94.70298091284
 20
24.260906217143
 30
0.0
 40
2.3113364687439
  1
àÍî ê°ñ@åˆç∑
  7
STANDARD1
 41
1.0935
100
AcDbText
  0
LINE
  5
10D
330
D6
100
AcDbEntity
  8
254
  6
CONTINUOUS
 62
3
370
9
100
AcDbLine
 10
96.972262552243
 20
4.9999999999998
 30
0.0
 11
96.972262552243
 21
24.469731335988
 31
0.0
  0
MTEXT
  5
10E
330
D6
100
AcDbEntity
  8
254
 62
7
370
20
100
AcDbMText
 10
97.619100225429
 20
22.588396985111
 30
0.0
 40
2.3113364687439
 41
0.0
 71
4
  1
\W0.950000;\T1.000000;ÇiÇhÇr\W0.475000;\T1.000000; \W0.950000;\T1.000000;Ça\W0.475000;\T1.000000; \W0.950000;\T1.000000;ÇOÇSÇOÇTÅ|ÇçÅiíÜãâÅjíPà \W0.475000;\T1.000000;:\W0.950000;\T1.000000;ÇçÇç
  7
GMM011
 44
0.79999984000003
  0
MTEXT
  5
10F
330
D6
100
AcDbEntity
  8
254
 62
3
370
9
100
AcDbMText
 10
93.394501411866
 20
26.559319493178
 30
0.0
 40
2.5424701156183
 41
0.0
 71
4
  1
\T1.000000;ì¡ãLÇ»Ç´äpÇÕéÖñ éÊÇËÅAã˜ÇÕÇqÇOÅDÇTà»â∫ÅAçaâ¡çHÇÃíÍÇqÇÕÇqÇPÅDÇTà»â∫
  7
GMM014
 44
0.79999984000003
  0
LWPOLYLINE
  5
110
330
D6
100
AcDbEntity
  8
2
  6
CONTINUOUS
 62
1
370
15
100
AcDbPolyline
 90
4
 70
1
 10
92.759851837957
 20
4.9999999999998
 10
166.43737735483
 20
4.9999999999998
 10
166.43737735483
 20
28.5895
 10
92.759851837957
 20
28.5895
  0
ENDBLK
  5
D8
330
D6
100
AcDbEntity
  8
0
100
AcDbBlockEnd
  0
BLOCK
  5
112
330
111
100
AcDbEntity
  8
0
100
AcDbBlockBegin
  2
BLOCK006
 70
64
 10
0.0
 20
0.0
 30
0.0
  3
BLOCK006
  1

  0
LINE
  5
114
330
111
100
AcDbEntity
  8
254
  6
CONTINUOUS
 62
1
370
15
100
AcDbLine
 10
11.33285798981
 20
12.029538831528
 30
0.0
 11
6.7003419901737
 21
12.029538831528
 31
0.0
  0
LINE
  5
115
330
111
100
AcDbEntity
  8
254
  6
CONTINUOUS
 62
1
370
15
100
AcDbLine
 10
9.0165999899916
 20
15.967177431219
 30
0.0
 11
11.33285798981
 21
12.029538831528
 31
0.0
  0
LINE
  5
116
330
111
100
AcDbEntity
  8
254
  6
CONTINUOUS
 62
1
370
15
100
AcDbLine
 10
9.0165999899916
 20
15.967177431219
 30
0.0
 11
6.7003419901737
 21
12.029538831528
 31
0.0
  0
MTEXT
  5
117
330
111
100
AcDbEntity
  8
254
 62
7
370
20
100
AcDbMText
 10
9.0165999899916
 20
13.392043537304
 30
0.0
 40
2.8433772321429
 41
0.0
 71
5
  1
\T1.000000;ÇP
  7
GMM001
 44
0.79999984000003
  0
ENDBLK
  5
113
330
111
100
AcDbEntity
  8
0
100
AcDbBlockEnd
  0
BLOCK
  5
119
330
118
100
AcDbEntity
  8
0
100
AcDbBlockBegin
  2
BLOCK007
 70
64
 10
0.0
 20
0.0
 30
0.0
  3
BLOCK007
  1

  0
LINE
  5
11B
330
118
100
AcDbEntity
  8
254
  6
CONTINUOUS
 62
1
370
15
100
AcDbLine
 10
11.33285798981
 20
17.926913831528
 30
0.0
 11
6.7003419901737
 21
17.926913831528
 31
0.0
  0
LINE
  5
11C
330
118
100
AcDbEntity
  8
254
  6
CONTINUOUS
 62
1
370
15
100
AcDbLine
 10
9.0165999899916
 20
21.864552431219
 30
0.0
 11
11.33285798981
 21
17.926913831528
 31
0.0
  0
LINE
  5
11D
330
118
100
AcDbEntity
  8
254
  6
CONTINUOUS
 62
1
370
15
100
AcDbLine
 10
9.0165999899916
 20
21.864552431219
 30
0.0
 11
6.7003419901737
 21
17.926913831528
 31
0.0
  0
MTEXT
  5
11E
330
118
100
AcDbEntity
  8
254
 62
7
370
20
100
AcDbMText
 10
9.0165999899916
 20
19.289418537303
 30
0.0
 40
2.8433772321429
 41
0.0
 71
5
  1
\T1.000000;ÇQ
  7
GMM001
 44
0.79999984000003
  0
ENDBLK
  5
11A
330
118
100
AcDbEntity
  8
0
100
AcDbBlockEnd
  0
BLOCK
  5
194
330
193
100
AcDbEntity
  8
0
100
AcDbBlockBegin
  2
SW_CENTERMARKSYMBOL_0
 70
0
 10
0.0
 20
0.0
 30
0.0
  3
SW_CENTERMARKSYMBOL_0
  1

  0
LINE
  5
196
330
193
100
AcDbEntity
  8
0
  6
Continuous
 62
0
370
18
100
AcDbLine
 10
0.0
 20
0.0
 30
0.0
 11
0.0
 21
2.5
 31
0.0
  0
LINE
  5
197
330
193
100
AcDbEntity
  8
0
  6
Continuous
 62
0
370
18
100
AcDbLine
 10
0.0
 20
0.0
 30
0.0
 11
-2.5
 21
0.0
 31
0.0
  0
LINE
  5
198
330
193
100
AcDbEntity
  8
0
  6
Continuous
 62
0
370
18
100
AcDbLine
 10
0.0
 20
0.0
 30
0.0
 11
0.0
 21
-2.5
 31
0.0
  0
LINE
  5
199
330
193
100
AcDbEntity
  8
0
  6
Continuous
 62
0
370
18
100
AcDbLine
 10
0.0
 20
0.0
 30
0.0
 11
2.5
 21
0.0
 31
0.0
  0
LINE
  5
19A
330
193
100
AcDbEntity
  8
0
  6
Continuous
 62
0
370
18
100
AcDbLine
 10
0.0
 20
5.0
 30
0.0
 11
0.0
 21
6.5
 31
0.0
  0
LINE
  5
19B
330
193
100
AcDbEntity
  8
0
  6
Continuous
 62
0
370
18
100
AcDbLine
 10
-5.0
 20
0.0
 30
0.0
 11
-6.5
 21
0.0
 31
0.0
  0
LINE
  5
19C
330
193
100
AcDbEntity
  8
0
  6
Continuous
 62
0
370
18
100
AcDbLine
 10
0.0
 20
-5.0
 30
0.0
 11
0.0
 21
-6.5
 31
0.0
  0
LINE
  5
19D
330
193
100
AcDbEntity
  8
0
  6
Continuous
 62
0
370
18
100
AcDbLine
 10
5.0
 20
0.0
 30
0.0
 11
6.5
 21
0.0
 31
0.0
  0
ENDBLK
  5
195
330
193
100
AcDbEntity
  8
0
100
AcDbBlockEnd
  0
BLOCK
  5
19F
330
19E
100
AcDbEntity
  8
0
100
AcDbBlockBegin
  2
SW_CENTERMARKSYMBOL_1
 70
0
 10
0.0
 20
0.0
 30
0.0
  3
SW_CENTERMARKSYMBOL_1
  1

  0
LINE
  5
1A1
330
19E
100
AcDbEntity
  8
0
  6
Continuous
 62
0
370
18
100
AcDbLine
 10
0.0
 20
0.0
 30
0.0
 11
0.0
 21
2.5
 31
0.0
  0
LINE
  5
1A2
330
19E
100
AcDbEntity
  8
0
  6
Continuous
 62
0
370
18
100
AcDbLine
 10
0.0
 20
0.0
 30
0.0
 11
-2.5
 21
0.0
 31
0.0
  0
LINE
  5
1A3
330
19E
100
AcDbEntity
  8
0
  6
Continuous
 62
0
370
18
100
AcDbLine
 10
0.0
 20
0.0
 30
0.0
 11
0.0
 21
-2.5
 31
0.0
  0
LINE
  5
1A4
330
19E
100
AcDbEntity
  8
0
  6
Continuous
 62
0
370
18
100
AcDbLine
 10
0.0
 20
0.0
 30
0.0
 11
2.5
 21
0.0
 31
0.0
  0
LINE
  5
1A5
330
19E
100
AcDbEntity
  8
0
  6
Continuous
 62
0
370
18
100
AcDbLine
 10
0.0
 20
5.0
 30
0.0
 11
0.0
 21
6.5
 31
0.0
  0
LINE
  5
1A6
330
19E
100
AcDbEntity
  8
0
  6
Continuous
 62
0
370
18
100
AcDbLine
 10
-5.0
 20
0.0
 30
0.0
 11
-6.5
 21
0.0
 31
0.0
  0
LINE
  5
1A7
330
19E
100
AcDbEntity
  8
0
  6
Continuous
 62
0
370
18
100
AcDbLine
 10
0.0
 20
-5.0
 30
0.0
 11
0.0
 21
-6.5
 31
0.0
  0
LINE
  5
1A8
330
19E
100
AcDbEntity
  8
0
  6
Continuous
 62
0
370
18
100
AcDbLine
 10
5.0
 20
0.0
 30
0.0
 11
6.5
 21
0.0
 31
0.0
  0
ENDBLK
  5
1A0
330
19E
100
AcDbEntity
  8
0
100
AcDbBlockEnd
  0
BLOCK
  5
1AA
330
1A9
100
AcDbEntity
  8
0
100
AcDbBlockBegin
  2
SW_CENTERMARKSYMBOL_2
 70
0
 10
0.0
 20
0.0
 30
0.0
  3
SW_CENTERMARKSYMBOL_2
  1

  0
LINE
  5
1AC
330
1A9
100
AcDbEntity
  8
0
  6
Continuous
 62
0
370
18
100
AcDbLine
 10
0.0
 20
0.0
 30
0.0
 11
0.0
 21
2.5
 31
0.0
  0
LINE
  5
1AD
330
1A9
100
AcDbEntity
  8
0
  6
Continuous
 62
0
370
18
100
AcDbLine
 10
0.0
 20
0.0
 30
0.0
 11
-2.5
 21
0.0
 31
0.0
  0
LINE
  5
1AE
330
1A9
100
AcDbEntity
  8
0
  6
Continuous
 62
0
370
18
100
AcDbLine
 10
0.0
 20
0.0
 30
0.0
 11
0.0
 21
-2.5
 31
0.0
  0
LINE
  5
1AF
330
1A9
100
AcDbEntity
  8
0
  6
Continuous
 62
0
370
18
100
AcDbLine
 10
0.0
 20
0.0
 30
0.0
 11
2.5
 21
0.0
 31
0.0
  0
LINE
  5
1B0
330
1A9
100
AcDbEntity
  8
0
  6
Continuous
 62
0
370
18
100
AcDbLine
 10
0.0
 20
5.0
 30
0.0
 11
0.0
 21
40.0
 31
0.0
  0
LINE
  5
1B1
330
1A9
100
AcDbEntity
  8
0
  6
Continuous
 62
0
370
18
100
AcDbLine
 10
-5.0
 20
0.0
 30
0.0
 11
-40.0
 21
0.0
 31
0.0
  0
LINE
  5
1B2
330
1A9
100
AcDbEntity
  8
0
  6
Continuous
 62
0
370
18
100
AcDbLine
 10
0.0
 20
-5.0
 30
0.0
 11
0.0
 21
-40.0
 31
0.0
  0
LINE
  5
1B3
330
1A9
100
AcDbEntity
  8
0
  6
Continuous
 62
0
370
18
100
AcDbLine
 10
5.0
 20
0.0
 30
0.0
 11
40.0
 21
0.0
 31
0.0
  0
ENDBLK
  5
1AB
330
1A9
100
AcDbEntity
  8
0
100
AcDbBlockEnd
  0
BLOCK
  5
1C9
330
1C8
100
AcDbEntity
  8
0
100
AcDbBlockBegin
  2
_OPEN30
 70
0
 10
0.0
 20
0.0
 30
0.0
  3
_OPEN30
  1

  0
LWPOLYLINE
  5
1CB
330
1C8
100
AcDbEntity
  8
0
  6
BYBLOCK
 62
0
100
AcDbPolyline
 90
3
 70
0
 10
-1.0
 20
0.25881904510252074
 10
0.0
 20
0.0
 10
-1.0
 20
-0.25881904510252074
  0
LINE
  5
1CC
330
1C8
100
AcDbEntity
  8
0
  6
BYBLOCK
 62
0
100
AcDbLine
 10
0.0
 20
0.0
 30
0.0
 11
-1.0
 21
0.0
 31
0.0
  0
ENDBLK
  5
1CA
330
1C8
100
AcDbEntity
  8
0
100
AcDbBlockEnd
  0
BLOCK
  5
1D0
330
1CF
100
AcDbEntity
  8
0
100
AcDbBlockBegin
  2
*D1
 70
1
 10
0.0
 20
0.0
 30
0.0
  3
*D1
  1

  0
LINE
  5
1D2
330
1CF
100
AcDbEntity
  8
0
 62
3
100
AcDbLine
 10
141.8413600817735
 20
60.907986339381495
 30
0.0
 11
141.8413600817735
 21
35.9079863394
 31
0.0
  0
LINE
  5
1D3
330
1CF
100
AcDbEntity
  8
0
 62
3
100
AcDbLine
 10
181.8413600817735
 20
60.907986339381495
 30
0.0
 11
181.8413600817735
 21
35.9079863394
 31
0.0
  0
INSERT
  5
1D4
330
1CF
100
AcDbEntity
  8
1
 62
3
100
AcDbBlockReference
  2
_OPEN30
 10
141.8413600817735
 20
37.9079863394
 30
0.0
 41
3.0
 42
3.0
 50
180.0
  0
INSERT
  5
1D6
330
1CF
100
AcDbEntity
  8
1
 62
3
100
AcDbBlockReference
  2
_OPEN30
 10
181.8413600817735
 20
37.9079863394
 30
0.0
 41
3.0
 42
3.0
  0
LINE
  5
1D8
330
1CF
100
AcDbEntity
  8
0
 62
3
100
AcDbLine
 10
144.8413600817735
 20
37.9079863394
 30
0.0
 11
178.8413600817735
 21
37.9079863394
 31
0.0
  0
MTEXT
  5
1D9
330
1CF
100
AcDbEntity
  8
1
 62
7
100
AcDbMText
 10
161.8413600817735
 20
40.4079863394
 30
0.0
 40
4.0
 71
5
  1
40
  7
VF003
  0
POINT
  5
1DA
330
1CF
100
AcDbEntity
  8
Defpoints
100
AcDbPoint
 10
141.8413600817735
 20
37.9079863394
 30
0.0
  0
POINT
  5
1DB
330
1CF
100
AcDbEntity
  8
Defpoints
100
AcDbPoint
 10
141.8413600817735
 20
61.907986339381495
 30
0.0
  0
POINT
  5
1DC
330
1CF
100
AcDbEntity
  8
Defpoints
100
AcDbPoint
 10
181.8413600817735
 20
61.907986339381495
 30
0.0
  0
ENDBLK
  5
1D1
330
1CF
100
AcDbEntity
  8
0
100
AcDbBlockEnd
  0
BLOCK
  5
1E0
330
1DF
100
AcDbEntity
  8
0
100
AcDbBlockBegin
  2
*D2
 70
1
 10
0.0
 20
0.0
 30
0.0
  3
*D2
  1

  0
LINE
  5
1E2
330
1DF
100
AcDbEntity
  8
0
 62
3
100
AcDbLine
 10
141.8413600817735
 20
60.907986339381495
 30
0.0
 11
141.8413600817735
 21
43.9079863394
 31
0.0
  0
LINE
  5
1E3
330
1DF
100
AcDbEntity
  8
0
 62
3
100
AcDbLine
 10
176.8413600817735
 20
81.9079863393815
 30
0.0
 11
176.8413600817735
 21
43.9079863394
 31
0.0
  0
INSERT
  5
1E4
330
1DF
100
AcDbEntity
  8
1
 62
3
100
AcDbBlockReference
  2
_OPEN30
 10
141.8413600817735
 20
45.9079863394
 30
0.0
 41
3.0
 42
3.0
 50
180.0
  0
INSERT
  5
1E6
330
1DF
100
AcDbEntity
  8
1
 62
3
100
AcDbBlockReference
  2
_OPEN30
 10
176.8413600817735
 20
45.9079863394
 30
0.0
 41
3.0
 42
3.0
  0
LINE
  5
1E8
330
1DF
100
AcDbEntity
  8
0
 62
3
100
AcDbLine
 10
144.8413600817735
 20
45.9079863394
 30
0.0
 11
173.8413600817735
 21
45.9079863394
 31
0.0
  0
MTEXT
  5
1E9
330
1DF
100
AcDbEntity
  8
1
 62
7
100
AcDbMText
 10
159.3413600817735
 20
48.4079863394
 30
0.0
 40
4.0
 71
5
  1
35
  7
VF003
  0
POINT
  5
1EA
330
1DF
100
AcDbEntity
  8
Defpoints
100
AcDbPoint
 10
141.8413600817735
 20
45.9079863394
 30
0.0
  0
POINT
  5
1EB
330
1DF
100
AcDbEntity
  8
Defpoints
100
AcDbPoint
 10
141.8413600817735
 20
61.907986339381495
 30
0.0
  0
POINT
  5
1EC
330
1DF
100
AcDbEntity
  8
Defpoints
100
AcDbPoint
 10
176.8413600817735
 20
82.9079863393815
 30
0.0
  0
ENDBLK
  5
1E1
330
1DF
100
AcDbEntity
  8
0
100
AcDbBlockEnd
  0
BLOCK
  5
1F0
330
1EF
100
AcDbEntity
  8
0
100
AcDbBlockBegin
  2
*D3
 70
1
 10
0.0
 20
0.0
 30
0.0
  3
*D3
  1

  0
LINE
  5
1F2
330
1EF
100
AcDbEntity
  8
0
 62
3
100
AcDbLine
 10
176.8413600817735
 20
81.9079863393815
 30
0.0
 11
176.8413600817735
 21
43.9079863394
 31
0.0
  0
LINE
  5
1F3
330
1EF
100
AcDbEntity
  8
0
 62
3
100
AcDbLine
 10
181.8413600817735
 20
60.907986339381495
 30
0.0
 11
181.8413600817735
 21
43.9079863394
 31
0.0
  0
INSERT
  5
1F4
330
1EF
100
AcDbEntity
  8
1
 62
3
100
AcDbBlockReference
  2
_OPEN30
 10
176.8413600817735
 20
45.9079863394
 30
0.0
 41
3.0
 42
3.0
  0
INSERT
  5
1F6
330
1EF
100
AcDbEntity
  8
1
 62
3
100
AcDbBlockReference
  2
_OPEN30
 10
181.8413600817735
 20
45.9079863394
 30
0.0
 41
3.0
 42
3.0
 50
180.0
  0
LINE
  5
1F8
330
1EF
100
AcDbEntity
  8
0
 62
3
100
AcDbLine
 10
176.8413600817735
 20
45.9079863394
 30
0.0
 11
181.8413600817735
 21
45.9079863394
 31
0.0
  0
MTEXT
  5
1F9
330
1EF
100
AcDbEntity
  8
1
 62
7
100
AcDbMText
 10
179.3413600817735
 20
48.4079863394
 30
0.0
 40
4.0
 71
5
  1
5
  7
VF003
  0
POINT
  5
1FA
330
1EF
100
AcDbEntity
  8
Defpoints
100
AcDbPoint
 10
176.8413600817735
 20
45.9079863394
 30
0.0
  0
POINT
  5
1FB
330
1EF
100
AcDbEntity
  8
Defpoints
100
AcDbPoint
 10
176.8413600817735
 20
82.9079863393815
 30
0.0
  0
POINT
  5
1FC
330
1EF
100
AcDbEntity
  8
Defpoints
100
AcDbPoint
 10
181.8413600817735
 20
61.907986339381495
 30
0.0
  0
ENDBLK
  5
1F1
330
1EF
100
AcDbEntity
  8
0
100
AcDbBlockEnd
  0
BLOCK
  5
200
330
1FF
100
AcDbEntity
  8
0
100
AcDbBlockBegin
  2
*D4
 70
1
 10
0.0
 20
0.0
 30
0.0
  3
*D4
  1

  0
LINE
  5
202
330
1FF
100
AcDbEntity
  8
0
 62
3
100
AcDbLine
 10
140.8413600817735
 20
82.9079863393815
 30
0.0
 11
123.84136008180005
 21
82.9079863393815
 31
0.0
  0
LINE
  5
203
330
1FF
100
AcDbEntity
  8
0
 62
3
100
AcDbLine
 10
140.8413600817735
 20
115.9079863393815
 30
0.0
 11
123.84136008180005
 21
115.9079863393815
 31
0.0
  0
INSERT
  5
204
330
1FF
100
AcDbEntity
  8
1
 62
3
100
AcDbBlockReference
  2
_OPEN30
 10
125.84136008180005
 20
82.9079863393815
 30
0.0
 41
3.0
 42
3.0
 50
270.0
  0
INSERT
  5
206
330
1FF
100
AcDbEntity
  8
1
 62
3
100
AcDbBlockReference
  2
_OPEN30
 10
125.84136008180005
 20
115.9079863393815
 30
0.0
 41
3.0
 42
3.0
 50
90.0
  0
LINE
  5
208
330
1FF
100
AcDbEntity
  8
0
 62
3
100
AcDbLine
 10
125.84136008180005
 20
85.9079863393815
 30
0.0
 11
125.84136008180005
 21
112.9079863393815
 31
0.0
  0
MTEXT
  5
209
330
1FF
100
AcDbEntity
  8
1
 62
7
100
AcDbMText
 10
123.34136008180005
 20
99.4079863393815
 30
0.0
 40
4.0
 71
5
  1
%%c33
  7
VF003
 50
90.0
  0
POINT
  5
20A
330
1FF
100
AcDbEntity
  8
Defpoints
100
AcDbPoint
 10
125.84136008180005
 20
82.9079863393815
 30
0.0
  0
POINT
  5
20B
330
1FF
100
AcDbEntity
  8
Defpoints
100
AcDbPoint
 10
141.8413600817735
 20
82.9079863393815
 30
0.0
  0
POINT
  5
20C
330
1FF
100
AcDbEntity
  8
Defpoints
100
AcDbPoint
 10
141.8413600817735
 20
115.9079863393815
 30
0.0
  0
ENDBLK
  5
201
330
1FF
100
AcDbEntity
  8
0
100
AcDbBlockEnd
  0
BLOCK
  5
210
330
20F
100
AcDbEntity
  8
0
100
AcDbBlockBegin
  2
*D5
 70
1
 10
0.0
 20
0.0
 30
0.0
  3
*D5
  1

  0
LINE
  5
212
330
20F
100
AcDbEntity
  8
0
 62
3
100
AcDbLine
 10
182.8413600817735
 20
86.4079863393815
 30
0.0
 11
194.84136008180005
 21
86.4079863393815
 31
0.0
  0
LINE
  5
213
330
20F
100
AcDbEntity
  8
0
 62
3
100
AcDbLine
 10
182.8413600817735
 20
112.4079863393815
 30
0.0
 11
194.84136008180005
 21
112.4079863393815
 31
0.0
  0
INSERT
  5
214
330
20F
100
AcDbEntity
  8
1
 62
3
100
AcDbBlockReference
  2
_OPEN30
 10
192.84136008180005
 20
86.4079863393815
 30
0.0
 41
3.0
 42
3.0
 50
270.0
  0
INSERT
  5
216
330
20F
100
AcDbEntity
  8
1
 62
3
100
AcDbBlockReference
  2
_OPEN30
 10
192.84136008180005
 20
112.4079863393815
 30
0.0
 41
3.0
 42
3.0
 50
90.0
  0
LINE
  5
218
330
20F
100
AcDbEntity
  8
0
 62
3
100
AcDbLine
 10
192.84136008180005
 20
89.4079863393815
 30
0.0
 11
192.84136008180005
 21
109.4079863393815
 31
0.0
  0
MTEXT
  5
219
330
20F
100
AcDbEntity
  8
1
 62
7
100
AcDbMText
 10
190.34136008180005
 20
99.4079863393815
 30
0.0
 40
4.0
 71
5
  1
%%c26
  7
VF003
 50
90.0
  0
POINT
  5
21A
330
20F
100
AcDbEntity
  8
Defpoints
100
AcDbPoint
 10
192.84136008180005
 20
86.4079863393815
 30
0.0
  0
POINT
  5
21B
330
20F
100
AcDbEntity
  8
Defpoints
100
AcDbPoint
 10
181.8413600817735
 20
86.4079863393815
 30
0.0
  0
POINT
  5
21C
330
20F
100
AcDbEntity
  8
Defpoints
100
AcDbPoint
 10
181.8413600817735
 20
112.4079863393815
 30
0.0
  0
ENDBLK
  5
211
330
20F
100
AcDbEntity
  8
0
100
AcDbBlockEnd
  0
BLOCK
  5
220
330
21F
100
AcDbEntity
  8
0
100
AcDbBlockBegin
  2
*D6
 70
1
 10
0.0
 20
0.0
 30
0.0
  3
*D6
  1

  0
INSERT
  5
222
330
21F
100
AcDbEntity
  8
1
 62
3
100
AcDbBlockReference
  2
_OPEN30
 10
268.21820166083717
 20
77.89886997621727
 30
0.0
 41
3.0
 42
3.0
 50
145.00000000000003
  0
INSERT
  5
224
330
21F
100
AcDbEntity
  8
1
 62
3
100
AcDbBlockReference
  2
_OPEN30
 10
206.78179833916275
 20
120.91710270254572
 30
0.0
 41
3.0
 42
3.0
 50
145.00000000000003
  0
LINE
  5
226
330
21F
100
AcDbEntity
  8
0
 62
3
100
AcDbLine
 10
270.67565779370415
 20
76.17814066716413
 30
0.0
 11
209.23925447202973
 21
119.19637339349258
 31
0.0
  0
LINE
  5
227
330
21F
100
AcDbEntity
  8
0
 62
3
100
AcDbLine
 10
270.67565779370415
 20
76.17814066716413
 30
0.0
 11
285.8299706130505
 21
65.56697659466978
 31
0.0
  0
MTEXT
  5
228
330
21F
100
AcDbEntity
  8
1
 62
7
100
AcDbMText
 10
279.8915433053272
 20
72.77704463255168
 30
0.0
 40
4.0
 71
5
  1
%%c75
  7
VF003
 50
325.00000000000006
  0
POINT
  5
229
330
21F
100
AcDbEntity
  8
Defpoints
100
AcDbPoint
 10
237.49999999999994
 20
99.4079863393815
 30
0.0
  0
POINT
  5
22A
330
21F
100
AcDbEntity
  8
Defpoints
100
AcDbPoint
 10
268.21820166083717
 20
77.89886997621727
 30
0.0
  0
ENDBLK
  5
221
330
21F
100
AcDbEntity
  8
0
100
AcDbBlockEnd
  0
BLOCK
  5
22E
330
22D
100
AcDbEntity
  8
0
100
AcDbBlockBegin
  2
*D7
 70
1
 10
0.0
 20
0.0
 30
0.0
  3
*D7
  1

  0
LINE
  5
230
330
22D
100
AcDbEntity
  8
0
 62
3
100
AcDbLine
 10
207.49999999999994
 20
98.4079863393815
 30
0.0
 11
207.49999999999994
 21
43.9079863394
 31
0.0
  0
LINE
  5
231
330
22D
100
AcDbEntity
  8
0
 62
3
100
AcDbLine
 10
267.49999999999994
 20
98.4079863393815
 30
0.0
 11
267.49999999999994
 21
43.9079863394
 31
0.0
  0
INSERT
  5
232
330
22D
100
AcDbEntity
  8
1
 62
3
100
AcDbBlockReference
  2
_OPEN30
 10
207.49999999999994
 20
45.9079863394
 30
0.0
 41
3.0
 42
3.0
 50
180.0
  0
INSERT
  5
234
330
22D
100
AcDbEntity
  8
1
 62
3
100
AcDbBlockReference
  2
_OPEN30
 10
267.49999999999994
 20
45.9079863394
 30
0.0
 41
3.0
 42
3.0
  0
LINE
  5
236
330
22D
100
AcDbEntity
  8
0
 62
3
100
AcDbLine
 10
210.49999999999994
 20
45.9079863394
 30
0.0
 11
264.49999999999994
 21
45.9079863394
 31
0.0
  0
MTEXT
  5
237
330
22D
100
AcDbEntity
  8
1
 62
7
100
AcDbMText
 10
237.49999999999994
 20
48.4079863394
 30
0.0
 40
4.0
 71
5
  1
60
  7
VF003
  0
POINT
  5
238
330
22D
100
AcDbEntity
  8
Defpoints
100
AcDbPoint
 10
207.49999999999994
 20
45.9079863394
 30
0.0
  0
POINT
  5
239
330
22D
100
AcDbEntity
  8
Defpoints
100
AcDbPoint
 10
207.49999999999994
 20
99.4079863393815
 30
0.0
  0
POINT
  5
23A
330
22D
100
AcDbEntity
  8
Defpoints
100
AcDbPoint
 10
267.49999999999994
 20
99.4079863393815
 30
0.0
  0
ENDBLK
  5
22F
330
22D
100
AcDbEntity
  8
0
100
AcDbBlockEnd
  0
ENDSEC
  0
SECTION
  2
ENTITIES
  0
LWPOLYLINE
  5
31
330
17
100
AcDbEntity
  8
1
  6
CONTINUOUS
 62
7
370
20
100
AcDbPolyline
 90
4
 70
1
 10
5.0
 20
292.0
 10
5.0
 20
5.0
 10
415.0
 20
5.0
 10
415.0
 20
292.0
  0
LINE
  5
32
330
17
100
AcDbEntity
  8
254
  6
CONTINUOUS
 62
3
370
9
100
AcDbLine
 10
325.18000713133
 20
4.9999999999998
 30
0.0
 11
325.18000713133
 21
18.122
 31
0.0
  0
LINE
  5
33
330
17
100
AcDbEntity
  8
254
  6
CONTINUOUS
 62
3
370
9
100
AcDbLine
 10
325.18000713133
 20
18.122
 30
0.0
 11
415.0
 21
18.122
 31
0.0
  0
MTEXT
  5
34
330
17
100
AcDbEntity
  8
254
 62
3
370
9
100
AcDbMText
 10
354.47071050214
 20
20.913826357749
 30
0.0
 40
2.916
 41
0.0
 71
5
  1
\T1.500000;ïîïiñºÅiå^éÆÅj
  7
GMM001
 44
0.79999984000003
  0
MTEXT
  5
35
330
17
100
AcDbEntity
  8
254
 62
3
370
9
100
AcDbMText
 10
384.36838887415
 20
20.913826357749
 30
0.0
 40
2.916
 41
0.0
 71
5
  1
\T1.000000;ÉÅÅ[ÉJÅ[
  7
GMM001
 44
0.79999984000003
  0
MTEXT
  5
36
330
17
100
AcDbEntity
  8
254
 62
3
370
9
100
AcDbMText
 10
406.97447618747
 20
20.913826357749
 30
0.0
 40
2.916
 41
0.0
 71
5
  1
\T1.000000;îıçl
  7
GMM001
 44
0.79999984000003
  0
LINE
  5
37
330
17
100
AcDbEntity
  8
254
  6
CONTINUOUS
 62
3
370
9
100
AcDbLine
 10
325.18000713133
 20
23.5895
 30
0.0
 11
415.0
 21
23.5895
 31
0.0
  0
LINE
  5
38
330
17
100
AcDbEntity
  8
254
  6
CONTINUOUS
 62
3
370
9
100
AcDbLine
 10
398.08000713133
 20
18.122
 30
0.0
 11
398.08000713133
 21
23.5895
 31
0.0
  0
LINE
  5
39
330
17
100
AcDbEntity
  8
254
  6
CONTINUOUS
 62
3
370
9
100
AcDbLine
 10
391.51900713133
 20
18.122
 30
0.0
 11
391.51900713133
 21
23.5895
 31
0.0
  0
LINE
  5
3A
330
17
100
AcDbEntity
  8
254
  6
CONTINUOUS
 62
3
370
9
100
AcDbLine
 10
376.21000713133
 20
18.122
 30
0.0
 11
376.21000713133
 21
23.5895
 31
0.0
  0
LINE
  5
3B
330
17
100
AcDbEntity
  8
254
  6
CONTINUOUS
 62
3
370
9
100
AcDbLine
 10
332.47000713133
 20
18.122
 30
0.0
 11
332.47000713133
 21
23.5895
 31
0.0
  0
LINE
  5
3C
330
17
100
AcDbEntity
  8
254
  6
CONTINUOUS
 62
3
370
9
100
AcDbLine
 10
325.18000713133
 20
18.122
 30
0.0
 11
325.18000713133
 21
23.5895
 31
0.0
  0
MTEXT
  5
3D
330
17
100
AcDbEntity
  8
254
 62
3
370
9
100
AcDbMText
 10
325.91897077517
 20
19.561222878301
 30
0.0
 40
2.916
 41
0.0
 71
7
  1
\T1.000000;ïiî‘
  7
GMM001
 44
0.79999984000003
  0
MTEXT
  5
3E
330
17
100
AcDbEntity
  8
254
 62
7
370
20
100
AcDbMText
 10
360.49798976328
 20
11.631430728461
 30
0.0
 40
5.5662694627463
 41
0.0
 71
4
  1
\T1.000000;ÉâÉCÉìÉèÅ|ÉNÉX
  7
GMM001
 44
0.79999984000003
  0
MTEXT
  5
3F
330
17
100
AcDbEntity
  8
254
 62
7
370
20
100
AcDbMText
 10
352.94784324569
 20
12.052597702861
 30
0.0
 40
3.3397616776478
 41
0.0
 71
4
  1
{\T1.000000;äîéÆ}\P{\T1.000000;âÔé–}
  7
GMM001
 44
0.79999984000003
  0
LINE
  5
40
330
17
100
AcDbEntity
  8
254
  6
CONTINUOUS
 62
3
370
9
100
AcDbLine
 10
398.08000713133
 20
23.5895
 30
0.0
 11
398.08000713133
 21
28.5895
 31
0.0
  0
LINE
  5
41
330
17
100
AcDbEntity
  8
254
  6
CONTINUOUS
 62
3
370
9
100
AcDbLine
 10
391.51900713133
 20
23.5895
 30
0.0
 11
391.51900713133
 21
28.5895
 31
0.0
  0
LINE
  5
42
330
17
100
AcDbEntity
  8
254
  6
CONTINUOUS
 62
3
370
9
100
AcDbLine
 10
376.21000713133
 20
23.5895
 30
0.0
 11
376.21000713133
 21
28.5895
 31
0.0
  0
LINE
  5
43
330
17
100
AcDbEntity
  8
254
  6
CONTINUOUS
 62
3
370
9
100
AcDbLine
 10
332.47000713133
 20
23.5895
 30
0.0
 11
332.47000713133
 21
28.5895
 31
0.0
  0
LINE
  5
44
330
17
100
AcDbEntity
  8
254
  6
CONTINUOUS
 62
3
370
9
100
AcDbLine
 10
325.18000713133
 20
23.5895
 30
0.0
 11
325.18000713133
 21
28.5895
 31
0.0
  0
MTEXT
  5
45
330
17
100
AcDbEntity
  8
254
 62
3
370
9
100
AcDbMText
 10
391.83137173292
 20
19.561222878301
 30
0.0
 40
2.916
 41
0.0
 71
7
  1
\T1.000000;å¬êî
  7
GMM001
 44
0.79999984000003
  0
LINE
  5
46
330
17
100
AcDbEntity
  8
1
  6
CONTINUOUS
 62
3
370
9
100
AcDbLine
 10
325.18000713133
 20
25.412
 30
0.0
 11
325.18000713133
 21
4.9999999999998
 31
0.0
  0
MTEXT
  5
47
330
17
100
AcDbEntity
  8
254
 62
3
370
9
100
AcDbMText
 10
319.11745461417
 20
13.591878580434
 30
0.0
 40
2.5274464285714
 41
0.0
 71
7
  1
\T1.000000;REV
  7
GMM004
 44
0.79999984000003
  0
MTEXT
  5
48
330
17
100
AcDbEntity
  8
254
 62
3
370
9
100
AcDbMText
 10
319.11745461417
 20
25.457656387089
 30
0.0
 40
2.5274464285714
 41
0.0
 71
7
  1
\T1.000000;REV
  7
GMM004
 44
0.79999984000003
  0
LINE
  5
49
330
17
100
AcDbEntity
  8
254
  6
CONTINUOUS
 62
3
370
9
100
AcDbLine
 10
317.59766784561
 20
16.794734368391
 30
0.0
 11
317.59766784561
 21
4.9999999999998
 31
0.0
  0
LINE
  5
4A
330
17
100
AcDbEntity
  8
254
  6
CONTINUOUS
 62
3
370
9
100
AcDbLine
 10
317.59766784561
 20
28.589484368391
 30
0.0
 11
317.59766784561
 21
16.79475
 31
0.0
  0
LINE
  5
4B
330
17
100
AcDbEntity
  8
254
  6
CONTINUOUS
 62
3
370
9
100
AcDbLine
 10
317.59766784561
 20
25.472316071428
 30
0.0
 11
325.18000713133
 21
25.472316071428
 31
0.0
  0
LINE
  5
4C
330
17
100
AcDbEntity
  8
254
  6
CONTINUOUS
 62
3
370
9
100
AcDbLine
 10
317.59766784561
 20
13.677566071429
 30
0.0
 11
325.18000713133
 21
13.677566071429
 31
0.0
  0
LINE
  5
4D
330
17
100
AcDbEntity
  8
254
  6
CONTINUOUS
 62
3
370
9
100
AcDbLine
 10
267.71322795736
 20
16.79475
 30
0.0
 11
325.18000713133
 21
16.79475
 31
0.0
  0
TEXT
  5
4E
330
17
100
AcDbEntity
  8
254
 62
3
370
9
100
AcDbText
 10
270.14932182782
 20
14.45637354981
 30
0.0
 40
3.3699285714286
  1
ê}î‘
  7
STANDARD1
 41
0.75
100
AcDbText
  0
LINE
  5
4F
330
17
100
AcDbEntity
  8
254
  6
CONTINUOUS
 62
3
370
9
100
AcDbLine
 10
267.71322795736
 20
4.9999999999998
 30
0.0
 11
267.71322795736
 21
28.5895
 31
0.0
  0
LINE
  5
50
330
17
100
AcDbEntity
  8
1
  6
CONTINUOUS
 62
3
370
9
100
AcDbLine
 10
267.71322795736
 20
28.5895
 30
0.0
 11
267.71322795736
 21
4.9999999999998
 31
0.0
  0
LINE
  5
51
330
17
100
AcDbEntity
  8
254
  6
CONTINUOUS
 62
3
370
9
100
AcDbLine
 10
273.18936188593
 20
4.9999999999998
 30
0.0
 11
273.18936188593
 21
16.79475
 31
0.0
  0
LINE
  5
52
330
17
100
AcDbEntity
  8
254
  6
CONTINUOUS
 62
3
370
9
100
AcDbLine
 10
273.18936188593
 20
16.79475
 30
0.0
 11
273.18936188593
 21
28.5895
 31
0.0
  0
TEXT
  5
53
330
17
100
AcDbEntity
  8
254
 62
3
370
9
100
AcDbText
 10
270.14932182782
 20
27.712778419251
 30
0.0
 40
2.5274464285714
  1
êªçÏî‘çÜ
  7
STANDARD1
100
AcDbText
  0
MTEXT
  5
54
330
17
100
AcDbEntity
  8
254
 62
7
370
20
100
AcDbMText
 10
267.09039456035
 20
6.2412531331843
 30
0.0
 40
4.6226729374878
 41
0.0
 71
9
  1
\T1.000000;ÇãÇá
  7
GMM007
 44
0.79999984000003
  0
LINE
  5
55
330
17
100
AcDbEntity
  8
254
  6
CONTINUOUS
 62
3
370
9
100
AcDbLine
 10
217.16311492467
 20
28.5895
 30
0.0
 11
325.18000713133
 21
28.5895
 31
0.0
  0
LINE
  5
56
330
17
100
AcDbEntity
  8
254
  6
CONTINUOUS
 62
3
370
9
100
AcDbLine
 10
166.43737735483
 20
4.9999999999998
 30
0.0
 11
166.43737735483
 21
12.815804374491
 31
0.0
  0
LINE
  5
57
330
17
100
AcDbEntity
  8
254
  6
CONTINUOUS
 62
3
370
9
100
AcDbLine
 10
166.43737735483
 20
12.815804374491
 30
0.0
 11
166.43737735483
 21
20.631608748982
 31
0.0
  0
LINE
  5
58
330
17
100
AcDbEntity
  8
254
  6
CONTINUOUS
 62
3
370
9
100
AcDbLine
 10
223.30492199768
 20
4.9999999999998
 30
0.0
 11
223.30492199768
 21
28.5895
 31
0.0
  0
LINE
  5
59
330
17
100
AcDbEntity
  8
254
  6
CONTINUOUS
 62
7
370
20
100
AcDbLine
 10
217.82878806911
 20
4.9999999999998
 30
0.0
 11
217.82878806911
 21
28.5895
 31
0.0
  0
LINE
  5
5A
330
17
100
AcDbEntity
  8
254
  6
CONTINUOUS
 62
3
370
9
100
AcDbLine
 10
217.82878806911
 20
4.9999999999998
 30
0.0
 11
217.82878806911
 21
28.5895
 31
0.0
  0
TEXT
  5
5B
330
17
100
AcDbEntity
  8
254
 62
3
370
9
100
AcDbText
 10
220.2355970388
 20
27.408725253101
 30
0.0
 40
2.5274464285714
  1
ïiñº
  7
STANDARD1
100
AcDbText
  0
LINE
  5
5C
330
17
100
AcDbEntity
  8
1
  6
CONTINUOUS
 62
3
370
9
100
AcDbLine
 10
217.82878806911
 20
28.5895
 30
0.0
 11
202.24286842626
 21
28.5895
 31
0.0
  0
LINE
  5
5D
330
17
100
AcDbEntity
  8
254
  6
CONTINUOUS
 62
3
370
9
100
AcDbLine
 10
166.43737735483
 20
20.631608748982
 30
0.0
 11
166.43737735483
 21
28.5895
 31
0.0
  0
LINE
  5
5E
330
17
100
AcDbEntity
  8
1
  6
CONTINUOUS
 62
3
370
9
100
AcDbLine
 10
166.43737735483
 20
28.5895
 30
0.0
 11
202.24286842626
 21
28.5895
 31
0.0
  0
LINE
  5
5F
330
17
100
AcDbEntity
  8
254
  6
CONTINUOUS
 62
3
370
9
100
AcDbLine
 10
217.82878806911
 20
12.863166666667
 30
0.0
 11
267.71322795736
 21
12.863166666667
 31
0.0
  0
LINE
  5
60
330
17
100
AcDbEntity
  8
254
  6
CONTINUOUS
 62
3
370
9
100
AcDbLine
 10
217.82878806911
 20
20.726333333333
 30
0.0
 11
267.71322795736
 21
20.726333333333
 31
0.0
  0
TEXT
  5
61
330
17
100
AcDbEntity
  8
254
 62
3
370
9
100
AcDbText
 10
220.59281442956
 20
11.80382974045
 30
0.0
 40
2.5274464285714
  1
èdó 
  7
STANDARD1
100
AcDbText
  0
TEXT
  5
62
330
17
100
AcDbEntity
  8
254
 62
3
370
9
100
AcDbText
 10
220.63752676512
 20
20.213063918481
 30
0.0
 40
2.5274464285714
  1
ëïíuñº
  7
STANDARD1
100
AcDbText
  0
LINE
  5
63
330
17
100
AcDbEntity
  8
1
  6
CONTINUOUS
 62
3
370
9
100
AcDbLine
 10
92.759851837957
 20
28.5895
 30
0.0
 11
92.759851837957
 21
4.9999999999998
 31
0.0
  0
LINE
  5
64
330
17
100
AcDbEntity
  8
2
  6
CONTINUOUS
 62
3
370
9
100
AcDbLine
 10
166.43737735483
 20
20.726333333333
 30
0.0
 11
182.02329699768
 21
20.726333333333
 31
0.0
  0
TEXT
  5
65
330
17
100
AcDbEntity
  8
254
 62
3
370
9
100
AcDbText
 10
168.38089831337
 20
27.433909723082
 30
0.0
 40
2.5274464285714
  1
é⁄ìx
  7
STANDARD1
100
AcDbText
  0
LINE
  5
66
330
17
100
AcDbEntity
  8
2
  6
CONTINUOUS
 62
3
370
9
100
AcDbLine
 10
166.43737735483
 20
12.863166666667
 30
0.0
 11
182.02329699768
 21
12.863166666667
 31
0.0
  0
MTEXT
  5
67
330
17
100
AcDbEntity
  8
254
 62
7
370
20
100
AcDbMText
 10
176.4152706333
 20
14.58269282434
 30
0.0
 40
4.2124107142857
 41
0.0
 71
8
  1
\T1.000000;Ç`ÇR
  7
GMM008
 44
0.79999984000003
  0
TEXT
  5
68
330
17
100
AcDbEntity
  8
254
 62
3
370
9
100
AcDbText
 10
168.38089831337
 20
19.757672207458
 30
0.0
 40
2.5274464285714
  1
ê}òg
  7
STANDARD1
100
AcDbText
  0
LINE
  5
69
330
17
100
AcDbEntity
  8
254
  6
CONTINUOUS
 62
3
370
9
100
AcDbLine
 10
170.64978806911
 20
28.5895
 30
0.0
 11
170.64978806911
 21
12.863166666667
 31
0.0
  0
INSERT
  5
6A
330
17
100
AcDbEntity
  8
0
100
AcDbBlockReference
  2
BLOCK004
 10
0.0
 20
0.0
 30
0.0
  0
MTEXT
  5
6C
330
17
100
AcDbEntity
  8
254
 62
3
370
9
100
AcDbMText
 10
170.51077147172
 20
5.3410491057923
 30
0.0
 40
1.8490691749951
 41
0.0
 71
7
  1
\T1.000000;ëÊéOäpñ@
  7
GMM001
 44
0.79999984000003
  0
MTEXT
  5
6D
330
17
100
AcDbEntity
  8
254
 62
7
370
20
100
AcDbMText
 10
191.87839303901
 20
6.9539510936227
 30
0.0
 40
4.2124107142857
 41
0.0
 71
8
  1
\T1.000000;ÅñÅñ
  7
GMM008
 44
0.79999984000003
  0
TEXT
  5
6E
330
17
100
AcDbEntity
  8
254
 62
3
370
9
100
AcDbText
 10
184.02331530209
 20
11.916209053108
 30
0.0
 40
2.5274464285714
  1
êRç∏
  7
STANDARD1
100
AcDbText
  0
TEXT
  5
6F
330
17
100
AcDbEntity
  8
254
 62
3
370
9
100
AcDbText
 10
184.08020453162
 20
19.653144268485
 30
0.0
 40
2.5274464285714
  1
çXêV
  7
STANDARD1
100
AcDbText
  0
LINE
  5
70
330
17
100
AcDbEntity
  8
254
  6
CONTINUOUS
 62
3
370
9
100
AcDbLine
 10
197.60921664054
 20
4.9999999999998
 30
0.0
 11
197.60921664054
 21
12.815804374491
 31
0.0
  0
LINE
  5
71
330
17
100
AcDbEntity
  8
254
  6
CONTINUOUS
 62
3
370
9
100
AcDbLine
 10
197.60921664054
 20
12.815804374491
 30
0.0
 11
197.60921664054
 21
20.631608748982
 31
0.0
  0
LINE
  5
72
330
17
100
AcDbEntity
  8
254
  6
CONTINUOUS
 62
3
370
9
100
AcDbLine
 10
186.23570771197
 20
4.9999999999998
 30
0.0
 11
186.23570771197
 21
12.815804374491
 31
0.0
  0
LINE
  5
73
330
17
100
AcDbEntity
  8
254
  6
CONTINUOUS
 62
3
370
9
100
AcDbLine
 10
186.23570771197
 20
12.815804374491
 30
0.0
 11
186.23570771197
 21
20.631608748982
 31
0.0
  0
TEXT
  5
74
330
17
100
AcDbEntity
  8
254
 62
3
370
9
100
AcDbText
 10
183.96642607257
 20
27.532166360389
 30
0.0
 40
2.5274464285714
  1
êªê}
  7
STANDARD1
100
AcDbText
  0
LINE
  5
75
330
17
100
AcDbEntity
  8
254
  6
CONTINUOUS
 62
3
370
9
100
AcDbLine
 10
197.60921664054
 20
20.631608748982
 30
0.0
 11
197.60921664054
 21
28.5895
 31
0.0
  0
LINE
  5
76
330
17
100
AcDbEntity
  8
254
  6
CONTINUOUS
 62
3
370
9
100
AcDbLine
 10
186.23570771197
 20
20.631608748982
 30
0.0
 11
186.23570771197
 21
28.5895
 31
0.0
  0
LINE
  5
77
330
17
100
AcDbEntity
  8
1
  6
CONTINUOUS
 62
3
370
9
100
AcDbLine
 10
182.02329699768
 20
12.863166666667
 30
0.0
 11
217.82878806911
 21
12.863166666667
 31
0.0
  0
LINE
  5
78
330
17
100
AcDbEntity
  8
1
  6
CONTINUOUS
 62
3
370
9
100
AcDbLine
 10
182.02329699768
 20
20.726333333333
 30
0.0
 11
217.82878806911
 21
20.726333333333
 31
0.0
  0
MTEXT
  5
79
330
17
100
AcDbEntity
  8
254
 62
7
370
20
100
AcDbMText
 10
207.70539689736
 20
6.8592265092718
 30
0.0
 40
4.2124107142857
 41
0.0
 71
8
  1
\T1.000000;ÅñÅñÅDÅñÅñÅDÅñÅñ
  7
GMM009
 44
0.79999984000003
  0
LINE
  5
7A
330
17
100
AcDbEntity
  8
254
  6
CONTINUOUS
 62
3
370
9
100
AcDbLine
 10
181.96979638834
 20
12.815804374491
 30
0.0
 11
181.96979638834
 21
20.631608748982
 31
0.0
  0
LINE
  5
7B
330
17
100
AcDbEntity
  8
254
  6
CONTINUOUS
 62
3
370
9
100
AcDbLine
 10
181.96979638834
 20
20.631608748982
 30
0.0
 11
181.96979638834
 21
28.5895
 31
0.0
  0
LINE
  5
7C
330
17
100
AcDbEntity
  8
254
  6
CONTINUOUS
 62
3
370
9
100
AcDbLine
 10
181.96979638834
 20
4.9999999999998
 30
0.0
 11
181.96979638834
 21
12.815804374491
 31
0.0
  0
INSERT
  5
7D
330
17
100
AcDbEntity
  8
0
100
AcDbBlockReference
  2
BLOCK005
 10
0.0
 20
0.0
 30
0.0
  0
POINT
  5
7F
330
17
100
AcDbEntity
  8
1
 62
3
100
AcDbPoint
 10
415.0
 20
4.9999999999998
 30
0.0
  0
LINE
  5
80
330
17
100
AcDbEntity
  8
254
  6
CONTINUOUS
 62
3
370
9
100
AcDbLine
 10
5.0
 20
5.0
 30
0.0
 11
5.0
 21
11.763017397237
 31
0.0
  0
LINE
  5
81
330
17
100
AcDbEntity
  8
254
  6
CONTINUOUS
 62
3
370
9
100
AcDbLine
 10
5.0
 20
11.804
 30
0.0
 11
5.0
 21
18.567017397237
 31
0.0
  0
INSERT
  5
82
330
17
100
AcDbEntity
  8
0
100
AcDbBlockReference
  2
BLOCK006
 10
0.0
 20
0.0
 30
0.0
  0
LINE
  5
84
330
17
100
AcDbEntity
  8
254
  6
CONTINUOUS
 62
3
370
9
100
AcDbLine
 10
12.898270089286
 20
5.0
 30
0.0
 11
12.898270089286
 21
10.861853280869
 31
0.0
  0
LINE
  5
85
330
17
100
AcDbEntity
  8
254
  6
CONTINUOUS
 62
3
370
9
100
AcDbLine
 10
36.593080357143
 20
5.0
 30
0.0
 11
36.593080357143
 21
10.861853280869
 31
0.0
  0
MTEXT
  5
86
330
17
100
AcDbEntity
  8
254
 62
7
370
20
100
AcDbMText
 10
38.413381681514
 20
12.163600656498
 30
0.0
 40
3.1593080357143
 41
0.0
 71
7
  1
\T1.000000;Åñ
  7
GMM008
 44
0.79999984000003
  0
MTEXT
  5
87
330
17
100
AcDbEntity
  8
254
 62
3
370
9
100
AcDbMText
 10
8.9491350446428
 20
6.4071855891086
 30
0.0
 40
3.1593080357143
 41
0.0
 71
8
  1
\T1.000000;ÇqÇdÇu
  7
GMM008
 44
0.79999984000003
  0
MTEXT
  5
88
330
17
100
AcDbEntity
  8
254
 62
3
370
9
100
AcDbMText
 10
17.227619624579
 20
6.4071855891086
 30
0.0
 40
3.1593080357143
 41
0.0
 71
8
  1
\T1.000000;êªê}
  7
GMM008
 44
0.79999984000003
  0
MTEXT
  5
89
330
17
100
AcDbEntity
  8
254
 62
7
370
20
100
AcDbMText
 10
17.1633359375
 20
12.327316601086
 30
0.0
 40
3.1593080357143
 41
0.0
 71
8
  1
\T1.000000;ÅñÅñ
  7
GMM008
 44
0.79999984000003
  0
LINE
  5
8A
330
17
100
AcDbEntity
  8
254
  6
CONTINUOUS
 62
3
370
9
100
AcDbLine
 10
21.428401785714
 20
10.897375
 30
0.0
 11
21.428401785714
 21
16.759228280869
 31
0.0
  0
LINE
  5
8B
330
17
100
AcDbEntity
  8
254
  6
CONTINUOUS
 62
3
370
9
100
AcDbLine
 10
36.593080357143
 20
10.897375
 30
0.0
 11
36.593080357143
 21
16.759228280869
 31
0.0
  0
LINE
  5
8C
330
17
100
AcDbEntity
  8
254
  6
CONTINUOUS
 62
3
370
9
100
AcDbLine
 10
12.898270089286
 20
10.897375
 30
0.0
 11
12.898270089286
 21
16.759228280869
 31
0.0
  0
MTEXT
  5
8D
330
17
100
AcDbEntity
  8
254
 62
3
370
9
100
AcDbMText
 10
43.315724723913
 20
6.4646750653583
 30
0.0
 40
3.1593080357143
 41
0.0
 71
8
  1
\T1.000000;ïœçXì‡óe
  7
GMM008
 44
0.79999984000003
  0
MTEXT
  5
8E
330
17
100
AcDbEntity
  8
254
 62
7
370
20
100
AcDbMText
 10
29.018366611674
 20
12.327316601086
 30
0.0
 40
3.1593080357143
 41
0.0
 71
8
  1
\T1.000000;ÅñÅñÅDÅñÅñÅDÅñÅñ
  7
GMM015
 44
0.79999984000003
  0
MTEXT
  5
8F
330
17
100
AcDbEntity
  8
254
 62
7
370
20
100
AcDbMText
 10
38.413381681514
 20
18.060975656498
 30
0.0
 40
3.1593080357143
 41
0.0
 71
7
  1
\T1.000000;Åñ
  7
GMM008
 44
0.79999984000003
  0
MTEXT
  5
90
330
17
100
AcDbEntity
  8
254
 62
7
370
20
100
AcDbMText
 10
17.1633359375
 20
18.224691601086
 30
0.0
 40
3.1593080357143
 41
0.0
 71
8
  1
\T1.000000;ÅñÅñ
  7
GMM008
 44
0.79999984000003
  0
LINE
  5
91
330
17
100
AcDbEntity
  8
254
  6
CONTINUOUS
 62
3
370
9
100
AcDbLine
 10
21.428401785714
 20
16.79475
 30
0.0
 11
21.428401785714
 21
22.656603280869
 31
0.0
  0
LINE
  5
92
330
17
100
AcDbEntity
  8
254
  6
CONTINUOUS
 62
3
370
9
100
AcDbLine
 10
36.593080357143
 20
16.79475
 30
0.0
 11
36.593080357143
 21
22.656603280869
 31
0.0
  0
LINE
  5
93
330
17
100
AcDbEntity
  8
254
  6
CONTINUOUS
 62
3
370
9
100
AcDbLine
 10
12.898270089286
 20
16.79475
 30
0.0
 11
12.898270089286
 21
22.656603280869
 31
0.0
  0
MTEXT
  5
94
330
17
100
AcDbEntity
  8
254
 62
7
370
20
100
AcDbMText
 10
29.018366611674
 20
18.224691601086
 30
0.0
 40
3.1593080357143
 41
0.0
 71
8
  1
\T1.000000;ÅñÅñÅDÅñÅñÅDÅñÅñ
  7
GMM015
 44
0.79999984000003
  0
LINE
  5
95
330
17
100
AcDbEntity
  8
254
  6
CONTINUOUS
 62
3
370
9
100
AcDbLine
 10
5.0
 20
10.897375
 30
0.0
 11
92.759851837957
 21
10.897375
 31
0.0
  0
LINE
  5
96
330
17
100
AcDbEntity
  8
254
  6
CONTINUOUS
 62
3
370
9
100
AcDbLine
 10
5.0
 20
16.79475
 30
0.0
 11
92.759851837957
 21
16.79475
 31
0.0
  0
LINE
  5
97
330
17
100
AcDbEntity
  8
254
  6
CONTINUOUS
 62
3
370
9
100
AcDbLine
 10
5.0
 20
22.692125
 30
0.0
 11
92.759851837957
 21
22.692125
 31
0.0
  0
MTEXT
  5
98
330
17
100
AcDbEntity
  8
254
 62
7
370
20
100
AcDbMText
 10
38.413381681514
 20
23.958350656497
 30
0.0
 40
3.1593080357143
 41
0.0
 71
7
  1
\T1.000000;Åñ
  7
GMM008
 44
0.79999984000003
  0
MTEXT
  5
99
330
17
100
AcDbEntity
  8
254
 62
7
370
20
100
AcDbMText
 10
17.1633359375
 20
24.122066601086
 30
0.0
 40
3.1593080357143
 41
0.0
 71
8
  1
\T1.000000;ÅñÅñ
  7
GMM008
 44
0.79999984000003
  0
LINE
  5
9A
330
17
100
AcDbEntity
  8
254
  6
CONTINUOUS
 62
3
370
9
100
AcDbLine
 10
21.428401785714
 20
22.692125
 30
0.0
 11
21.428401785714
 21
28.553978280869
 31
0.0
  0
LINE
  5
9B
330
17
100
AcDbEntity
  8
254
  6
CONTINUOUS
 62
3
370
9
100
AcDbLine
 10
36.593080357143
 20
22.692125
 30
0.0
 11
36.593080357143
 21
28.553978280869
 31
0.0
  0
LINE
  5
9C
330
17
100
AcDbEntity
  8
254
  6
CONTINUOUS
 62
3
370
9
100
AcDbLine
 10
12.898270089286
 20
22.692125
 30
0.0
 11
12.898270089286
 21
28.553978280869
 31
0.0
  0
MTEXT
  5
9D
330
17
100
AcDbEntity
  8
254
 62
7
370
20
100
AcDbMText
 10
29.018366611674
 20
24.122066601086
 30
0.0
 40
3.1593080357143
 41
0.0
 71
8
  1
\T1.000000;ÅñÅñÅDÅñÅñÅDÅñÅñ
  7
GMM015
 44
0.79999984000003
  0
LINE
  5
9E
330
17
100
AcDbEntity
  8
254
  6
CONTINUOUS
 62
3
370
9
100
AcDbLine
 10
5.0
 20
28.5895
 30
0.0
 11
92.759851837957
 21
28.5895
 31
0.0
  0
INSERT
  5
9F
330
17
100
AcDbEntity
  8
0
100
AcDbBlockReference
  2
BLOCK007
 10
0.0
 20
0.0
 30
0.0
  0
LINE
  5
A1
330
17
100
AcDbEntity
  8
254
  6
CONTINUOUS
 62
3
370
9
100
AcDbLine
 10
5.0
 20
18.526034794474
 30
0.0
 11
5.0
 21
28.5895
 31
0.0
  0
LINE
  5
A2
330
17
100
AcDbEntity
  8
254
  6
CONTINUOUS
 62
3
370
9
100
AcDbLine
 10
325.18000713133
 20
28.5895
 30
0.0
 11
415.0
 21
28.5895
 31
0.0
  0
MTEXT
  5
A3
330
17
100
AcDbEntity
  8
254
 62
7
370
20
100
AcDbMText
 10
383.87898754983
 20
24.45606176625
 30
0.0
 40
3.2
 41
0.0
 71
8
  1
\T1.000000;Åñ
  7
GMM003
 44
0.79999984000003
  0
CIRCLE
  5
A4
330
17
100
AcDbEntity
  8
254
  6
CONTINUOUS
 62
3
370
9
100
AcDbCircle
 10
19.323632491628
 20
278.8442948685
 30
0.0
 40
10.0
  0
LINE
  5
13E
330
17
100
AcDbEntity
  8
0
  6
Continuous
 62
7
370
25
100
AcDbLine
 10
141.84136008180005
 20
61.9079863394
 30
0.0
 11
181.84136008180005
 21
61.9079863394
 31
0.0
  0
LINE
  5
13F
330
17
100
AcDbEntity
  8
0
  6
Continuous
 62
7
370
25
100
AcDbLine
 10
181.84136008180005
 20
136.9079863394
 30
0.0
 11
141.84136008180005
 21
136.9079863394
 31
0.0
  0
LINE
  5
140
330
17
100
AcDbEntity
  8
0
  6
Continuous
 62
7
370
25
100
AcDbLine
 10
141.84136008180005
 20
99.4079863394
 30
0.0
 11
141.84136008180005
 21
136.9079863394
 31
0.0
  0
LINE
  5
141
330
17
100
AcDbEntity
  8
0
  6
Continuous
 62
7
370
25
100
AcDbLine
 10
141.84136008180005
 20
61.9079863394
 30
0.0
 11
141.84136008180005
 21
99.4079863394
 31
0.0
  0
LINE
  5
142
330
17
100
AcDbEntity
  8
0
  6
Continuous
 62
7
370
25
100
AcDbLine
 10
181.84136008180005
 20
99.4079863394
 30
0.0
 11
181.84136008180005
 21
136.9079863394
 31
0.0
  0
LINE
  5
143
330
17
100
AcDbEntity
  8
0
  6
Continuous
 62
7
370
25
100
AcDbLine
 10
181.84136008180005
 20
61.9079863394
 30
0.0
 11
181.84136008180005
 21
99.4079863394
 31
0.0
  0
LINE
  5
144
330
17
100
AcDbEntity
  8
0
  6
HIDDEN
 62
7
370
18
100
AcDbLine
 10
174.84136008180005
 20
104.9079863394
 30
0.0
 11
174.84136008180005
 21
93.9079863394
 31
0.0
  0
LINE
  5
145
330
17
100
AcDbEntity
  8
0
  6
HIDDEN
 62
7
370
18
100
AcDbLine
 10
176.84136008180005
 20
99.4079863394
 30
0.0
 11
176.84136008180005
 21
115.9079863394
 31
0.0
  0
LINE
  5
146
330
17
100
AcDbEntity
  8
0
  6
HIDDEN
 62
7
370
18
100
AcDbLine
 10
176.84136008180005
 20
82.9079863394
 30
0.0
 11
176.84136008180005
 21
99.4079863394
 31
0.0
  0
LINE
  5
147
330
17
100
AcDbEntity
  8
0
  6
HIDDEN
 62
7
370
18
100
AcDbLine
 10
181.84136008180005
 20
104.9079863394
 30
0.0
 11
174.84136008180005
 21
104.9079863394
 31
0.0
  0
LINE
  5
148
330
17
100
AcDbEntity
  8
0
  6
HIDDEN
 62
7
370
18
100
AcDbLine
 10
174.84136008180005
 20
93.9079863394
 30
0.0
 11
181.84136008180005
 21
93.9079863394
 31
0.0
  0
LINE
  5
149
330
17
100
AcDbEntity
  8
0
  6
HIDDEN
 62
7
370
18
100
AcDbLine
 10
174.84136008180005
 20
103.4079863394
 30
0.0
 11
141.84136008180005
 21
103.4079863394
 31
0.0
  0
LINE
  5
14A
330
17
100
AcDbEntity
  8
0
  6
HIDDEN
 62
7
370
18
100
AcDbLine
 10
141.84136008180005
 20
95.4079863394
 30
0.0
 11
174.84136008180005
 21
95.4079863394
 31
0.0
  0
LINE
  5
14B
330
17
100
AcDbEntity
  8
0
  6
HIDDEN
 62
7
370
18
100
AcDbLine
 10
141.84136008180005
 20
82.9079863394
 30
0.0
 11
176.84136008180005
 21
82.9079863394
 31
0.0
  0
LINE
  5
14C
330
17
100
AcDbEntity
  8
0
  6
HIDDEN
 62
7
370
18
100
AcDbLine
 10
176.84136008180005
 20
115.9079863394
 30
0.0
 11
141.84136008180005
 21
115.9079863394
 31
0.0
  0
LINE
  5
14D
330
17
100
AcDbEntity
  8
0
  6
HIDDEN
 62
7
370
18
100
AcDbLine
 10
176.84136008180005
 20
86.4079863394
 30
0.0
 11
181.84136008180005
 21
86.4079863394
 31
0.0
  0
LINE
  5
14E
330
17
100
AcDbEntity
  8
0
  6
HIDDEN
 62
7
370
18
100
AcDbLine
 10
181.84136008180005
 20
112.4079863394
 30
0.0
 11
176.84136008180005
 21
112.4079863394
 31
0.0
  0
LINE
  5
14F
330
17
100
AcDbEntity
  8
0
  6
Continuous
 62
7
370
25
100
AcDbLine
 10
141.84136008180005
 20
168.50000000000014
 30
0.0
 11
181.84136008180005
 21
168.50000000000014
 31
0.0
  0
LINE
  5
150
330
17
100
AcDbEntity
  8
0
  6
Continuous
 62
7
370
25
100
AcDbLine
 10
181.84136008180005
 20
243.50000000000014
 30
0.0
 11
141.84136008180005
 21
243.50000000000014
 31
0.0
  0
LINE
  5
151
330
17
100
AcDbEntity
  8
0
  6
Continuous
 62
7
370
25
100
AcDbLine
 10
141.84136008180005
 20
168.50000000000014
 30
0.0
 11
141.84136008180005
 21
243.50000000000014
 31
0.0
  0
LINE
  5
152
330
17
100
AcDbEntity
  8
0
  6
Continuous
 62
7
370
25
100
AcDbLine
 10
181.84136008180005
 20
168.50000000000014
 30
0.0
 11
181.84136008180005
 21
243.50000000000014
 31
0.0
  0
LINE
  5
153
330
17
100
AcDbEntity
  8
0
  6
HIDDEN
 62
7
370
18
100
AcDbLine
 10
176.84136008180005
 20
189.50000000000014
 30
0.0
 11
176.84136008180005
 21
222.50000000000014
 31
0.0
  0
LINE
  5
154
330
17
100
AcDbEntity
  8
0
  6
HIDDEN
 62
7
370
18
100
AcDbLine
 10
174.84136008180005
 20
241.50000000000014
 30
0.0
 11
174.84136008180005
 21
230.50000000000014
 31
0.0
  0
LINE
  5
155
330
17
100
AcDbEntity
  8
0
  6
HIDDEN
 62
7
370
18
100
AcDbLine
 10
174.84136008180005
 20
181.50000000000014
 30
0.0
 11
174.84136008180005
 21
170.50000000000014
 31
0.0
  0
LINE
  5
156
330
17
100
AcDbEntity
  8
0
  6
HIDDEN
 62
7
370
18
100
AcDbLine
 10
141.84136008180005
 20
189.50000000000014
 30
0.0
 11
176.84136008180005
 21
189.50000000000014
 31
0.0
  0
LINE
  5
157
330
17
100
AcDbEntity
  8
0
  6
HIDDEN
 62
7
370
18
100
AcDbLine
 10
176.84136008180005
 20
222.50000000000014
 30
0.0
 11
141.84136008180005
 21
222.50000000000014
 31
0.0
  0
LINE
  5
158
330
17
100
AcDbEntity
  8
0
  6
HIDDEN
 62
7
370
18
100
AcDbLine
 10
176.84136008180005
 20
193.00000000000014
 30
0.0
 11
181.84136008180005
 21
193.00000000000014
 31
0.0
  0
LINE
  5
159
330
17
100
AcDbEntity
  8
0
  6
HIDDEN
 62
7
370
18
100
AcDbLine
 10
181.84136008180005
 20
219.00000000000014
 30
0.0
 11
176.84136008180005
 21
219.00000000000014
 31
0.0
  0
LINE
  5
15A
330
17
100
AcDbEntity
  8
0
  6
HIDDEN
 62
7
370
18
100
AcDbLine
 10
181.84136008180005
 20
241.50000000000014
 30
0.0
 11
174.84136008180005
 21
241.50000000000014
 31
0.0
  0
LINE
  5
15B
330
17
100
AcDbEntity
  8
0
  6
HIDDEN
 62
7
370
18
100
AcDbLine
 10
174.84136008180005
 20
230.50000000000014
 30
0.0
 11
181.84136008180005
 21
230.50000000000014
 31
0.0
  0
LINE
  5
15C
330
17
100
AcDbEntity
  8
0
  6
HIDDEN
 62
7
370
18
100
AcDbLine
 10
181.84136008180005
 20
181.50000000000014
 30
0.0
 11
174.84136008180005
 21
181.50000000000014
 31
0.0
  0
LINE
  5
15D
330
17
100
AcDbEntity
  8
0
  6
HIDDEN
 62
7
370
18
100
AcDbLine
 10
174.84136008180005
 20
170.50000000000014
 30
0.0
 11
181.84136008180005
 21
170.50000000000014
 31
0.0
  0
LINE
  5
15E
330
17
100
AcDbEntity
  8
0
  6
HIDDEN
 62
7
370
18
100
AcDbLine
 10
174.84136008180005
 20
240.00000000000014
 30
0.0
 11
141.84136008180005
 21
240.00000000000014
 31
0.0
  0
LINE
  5
15F
330
17
100
AcDbEntity
  8
0
  6
HIDDEN
 62
7
370
18
100
AcDbLine
 10
141.84136008180005
 20
232.00000000000014
 30
0.0
 11
174.84136008180005
 21
232.00000000000014
 31
0.0
  0
LINE
  5
160
330
17
100
AcDbEntity
  8
0
  6
HIDDEN
 62
7
370
18
100
AcDbLine
 10
174.84136008180005
 20
180.00000000000014
 30
0.0
 11
141.84136008180005
 21
180.00000000000014
 31
0.0
  0
LINE
  5
161
330
17
100
AcDbEntity
  8
0
  6
HIDDEN
 62
7
370
18
100
AcDbLine
 10
141.84136008180005
 20
172.00000000000014
 30
0.0
 11
174.84136008180005
 21
172.00000000000014
 31
0.0
  0
CIRCLE
  5
162
330
17
100
AcDbEntity
  8
0
  6
Continuous
 62
7
370
25
100
AcDbCircle
 10
237.5
 20
99.4079863394
 30
0.0
 40
13.0
  0
CIRCLE
  5
163
330
17
100
AcDbEntity
  8
0
  6
Continuous
 62
7
370
25
100
AcDbCircle
 10
237.5
 20
99.4079863394
 30
0.0
 40
37.5
  0
CIRCLE
  5
164
330
17
100
AcDbEntity
  8
0
  6
Continuous
 62
7
370
25
100
AcDbCircle
 10
207.5
 20
99.4079863394
 30
0.0
 40
5.5
  0
CIRCLE
  5
165
330
17
100
AcDbEntity
  8
0
  6
Continuous
 62
7
370
25
100
AcDbCircle
 10
267.5
 20
99.4079863394
 30
0.0
 40
5.500000000000057
  0
CIRCLE
  5
166
330
17
100
AcDbEntity
  8
0
  6
Continuous
 62
7
370
25
100
AcDbCircle
 10
267.5
 20
99.4079863394
 30
0.0
 40
4.0
  0
CIRCLE
  5
167
330
17
100
AcDbEntity
  8
0
  6
Continuous
 62
7
370
25
100
AcDbCircle
 10
207.5
 20
99.4079863394
 30
0.0
 40
4.0
  0
CIRCLE
  5
168
330
17
100
AcDbEntity
  8
0
  6
HIDDEN
 62
7
370
18
100
AcDbCircle
 10
237.5
 20
99.4079863394
 30
0.0
 40
16.5
  0
INSERT
  5
169
330
17
100
AcDbEntity
  8
0
  6
Continuous
 62
7
370
18
100
AcDbBlockReference
  2
SW_CENTERMARKSYMBOL_0
 10
207.5
 20
99.4079863394
 30
0.0
  0
INSERT
  5
16B
330
17
100
AcDbEntity
  8
0
  6
Continuous
 62
7
370
18
100
AcDbBlockReference
  2
SW_CENTERMARKSYMBOL_1
 10
267.5
 20
99.4079863394
 30
0.0
  0
INSERT
  5
16D
330
17
100
AcDbEntity
  8
0
  6
Continuous
 62
7
370
18
100
AcDbBlockReference
  2
SW_CENTERMARKSYMBOL_2
 10
237.5
 20
99.4079863394
 30
0.0
  0
LINE
  5
16F
330
17
100
AcDbEntity
  8
0
  6
Continuous
 62
7
370
25
100
AcDbLine
 10
204.6093881393
 20
181.68724877900016
 30
0.0
 11
232.89365938679998
 21
165.35908654250014
 31
0.0
  0
LINE
  5
170
330
17
100
AcDbEntity
  8
0
  6
Continuous
 62
7
370
25
100
AcDbLine
 10
270.3906118607
 20
230.31275122100013
 30
0.0
 11
242.10634061320002
 21
246.64091345750015
 31
0.0
  0
LWPOLYLINE
  5
171
330
17
100
AcDbEntity
  8
0
  6
Continuous
 62
7
370
25
100
AcDbPolyline
 90
82
 70
128
 10
242.44974746830002
 20
192.52926615490017
 10
242.4773895203
 20
193.36780798510014
 10
242.56014943370002
 20
194.23322155990016
 10
242.69752948069998
 20
195.12030218030017
 10
242.8887034415
 20
196.02371483900012
 10
243.13252157340003
 20
196.93802630610017
 10
243.42751752549998
 20
197.85773780490015
 10
243.77191715740003
 20
198.77731808200016
 10
244.1636492092
 20
199.69123667360017
 10
244.6003577583
 20
200.59399716570013
 10
245.07941638800003
 20
201.48017025050015
 10
245.5979439834
 20
202.34442637870015
 10
246.15282205850002
 20
203.18156781230013
 10
246.7407135112
 20
203.98655988430014
 10
247.3580826933
 20
204.75456127760017
 10
248.0012166738
 20
205.48095314150012
 10
248.66624756919998
 20
206.16136686970017
 10
249.3491758056
 20
206.79171037420016
 10
250.04589417210002
 20
207.36819269480017
 10
250.75221252260002
 20
207.88734679910013
 10
251.46388297520002
 20
208.34605043320013
 10
252.1766254603
 20
208.74154489950016
 10
252.88615346059999
 20
209.07145164780016
 10
253.58819979129999
 20
209.33378657990013
 10
254.27854226300002
 20
209.52697198280012
 10
254.9530290751
 20
209.64984601680013
 10
255.6076037843
 20
209.70166970290015
 10
256.2383297014
 20
209.68213136740016
 10
256.8414135666
 20
209.59134851610017
 10
257.4132283624
 20
209.42986712770013
 10
257.9503351274
 20
209.19865837050017
 10
258.4495036384
 20
208.89911276100017
 10
258.9077318372
 20
208.53303180170016
 10
259.3222638854
 20
208.10261714670017
 10
259.6906067385
 20
207.61045736020017
 10
260.0105451394
 20
207.05951234930015
 10
260.2801549408
 20
206.45309556190014
 10
260.4978146776
 20
205.79485406010016
 10
260.6622153186
 20
205.08874658560015
 10
260.772368139
 20
204.33901975190017
 10
260.8276106667
 20
203.55018250440017
 10
260.8276106667
 20
202.72697900310013
 10
260.772368139
 20
201.87436009070015
 10
260.6622153186
 20
200.99745351770017
 10
260.4978146776
 20
200.10153310340016
 10
260.2801549408
 20
199.19198701860014
 10
260.0105451394
 20
198.27428538050017
 10
259.6906067385
 20
197.35394735460014
 10
259.3222638854
 20
196.43650796230017
 10
258.9077318372
 20
195.52748479180016
 10
258.4495036384
 20
194.63234481560013
 10
257.9503351274
 20
193.75647151080014
 10
257.4132283624
 20
192.90513248250014
 10
256.8414135666
 20
192.08344778370017
 10
256.2383297014
 20
191.29635912300014
 10
255.6076037843
 20
190.54860014420015
 10
254.9530290751
 20
189.84466795770012
 10
254.27854226300002
 20
189.18879609460012
 10
253.58819979129999
 20
188.58492904530013
 10
252.88615346059999
 20
188.03669853750014
 10
252.1766254603
 20
187.54740169380014
 10
251.46388297520002
 20
187.11998120310014
 10
250.75221252260002
 20
186.75700762240015
 10
250.04589417210002
 20
186.46066391770015
 10
249.3491758056
 20
186.23273233480015
 10
248.66624756919998
 20
186.07458368100012
 10
248.0012166738
 20
185.98716908110012
 10
247.3580826933
 20
185.97101425660017
 10
246.7407135112
 20
186.02621636460017
 10
246.15282205850002
 20
186.15244341320013
 10
245.5979439834
 20
186.34893625790014
 10
245.07941638800003
 20
186.61451316780014
 10
244.6003577583
 20
186.94757693190016
 10
244.1636492092
 20
187.34612446570017
 10
243.77191715740003
 20
187.80775885750015
 10
243.42751752549998
 20
188.32970378350015
 10
243.13252157340003
 20
188.90882020570015
 10
242.8887034415
 20
189.54162524980015
 10
242.69752948069998
 20
190.22431315170016
 10
242.56014943370002
 20
190.95277814600016
 10
242.4773895203
 20
191.72263915870016
 10
242.44974746830002
 20
192.52926615490017
  0
LWPOLYLINE
  5
172
330
17
100
AcDbEntity
  8
0
  6
Continuous
 62
7
370
25
100
AcDbPolyline
 90
139
 70
128
 10
225.12563132920002
 20
182.52826678510016
 10
225.15311108140003
 20
183.93780029820013
 10
225.23549338200002
 20
185.37613978440012
 10
225.37260748120002
 20
186.84030406550013
 10
225.5641691889
 20
188.32725843730017
 10
225.8097814643
 20
189.83392096000014
 10
226.1089352385
 20
191.35716884540014
 10
226.4610104696
 20
192.89384492950015
 10
226.86527742790003
 20
194.44076421660017
 10
227.32089820840002
 20
195.99472048020013
 10
227.82692846740002
 20
197.55249290860016
 10
228.3823193801
 20
199.11085278060014
 10
228.98591981380002
 20
200.66657015750016
 10
229.63647871450002
 20
202.21642057730017
 10
230.3326476996
 20
203.75719173850015
 10
231.0729838525
 20
205.28569015740013
 10
231.85595271350002
 20
206.79874778770014
 10
232.67993145999998
 20
208.29322858640015
 10
233.54321227039998
 20
209.76603501390017
 10
234.4440058632
 20
211.21411445390012
 10
235.38044520620002
 20
212.63446554060013
 10
236.3505893858
 20
214.02414437950014
 10
237.3524276302
 20
215.38027064910014
 10
238.3838834765
 20
216.70003357040017
 10
239.442819075
 20
217.98069773340015
 10
240.52703961999998
 20
219.21960876600016
 10
241.63429789870003
 20
220.41419883590012
 10
242.7622989495
 20
221.56199197270016
 10
243.90870481770003
 20
222.66060919990016
 10
245.0711394022
 20
223.70777346560013
 10
246.2471933799
 20
224.70131436180017
 10
247.4344291992
 20
225.63917262330014
 10
248.6303861326
 20
226.51940439570015
 10
249.83258537670002
 20
227.34018526430017
 10
251.03853519
 20
228.09981403530017
 10
252.2457360574
 20
228.79671626210015
 10
253.45168587080002
 20
229.42944750830017
 10
254.6538851149
 20
229.99669634200015
 10
255.8498420483
 20
230.49728705320015
 10
257.03707786760003
 20
230.93018209130017
 10
258.2131318452
 20
231.29448421520013
 10
259.3755664298
 20
231.58943835310012
 10
260.521972298
 20
231.81443316750014
 10
261.64997334870003
 20
231.96900232230016
 10
262.7572316275
 20
232.05282544930017
 10
263.8414521725
 20
232.06572881230014
 10
264.900387771
 20
232.00768566710016
 10
265.9318436173
 20
231.87881631700017
 10
266.9336818616
 20
231.67938786340014
 10
267.9038260413
 20
231.40981365220014
 10
268.8402653843
 20
231.07065241710015
 10
269.7410589771
 20
230.66260712170012
 10
270.6043397874
 20
230.18652350200014
 10
271.428318534
 20
229.64338831400013
 10
272.211287395
 20
229.03432728850012
 10
272.9516235479
 20
228.36060279740016
 10
273.64779253300003
 20
227.62361123750017
 10
274.2983514337
 20
226.82488013640014
 10
274.9019518674
 20
225.96606498630015
 10
275.45734278
 20
225.04894581280016
 10
275.9633730391
 20
224.07542348530015
 10
276.4189938196
 20
223.04751577760013
 10
276.8232607778
 20
221.96735318540013
 10
277.1753360089
 20
220.83717451050015
 10
277.4744897831
 20
219.65932222100017
 10
277.7201020586
 20
218.43623759540017
 10
277.91166376629997
 20
217.17045566340013
 10
278.0487778654
 20
215.86459995150014
 10
278.131160166
 20
214.52137704500015
 10
278.15863991820004
 20
213.14357097840016
 10
278.131160166
 20
211.73403746530013
 10
278.0487778654
 20
210.29569797910014
 10
277.91166376629997
 20
208.83153369810017
 10
277.7201020586
 20
207.34457932620015
 10
277.4744897831
 20
205.83791680350012
 10
277.1753360089
 20
204.31466891820017
 10
276.8232607778
 20
202.77799283410016
 10
276.4189938196
 20
201.23107354700014
 10
275.9633730391
 20
199.67711728340012
 10
275.45734278
 20
198.11934485490016
 10
274.9019518674
 20
196.56098498290012
 10
274.2983514337
 20
195.00526760600016
 10
273.64779253300003
 20
193.45541718620015
 10
272.9516235479
 20
191.91464602510015
 10
272.211287395
 20
190.38614760620013
 10
271.428318534
 20
188.87308997580013
 10
270.6043397874
 20
187.37860917710017
 10
269.7410589771
 20
185.90580274960016
 10
268.8402653843
 20
184.45772330970013
 10
267.9038260413
 20
183.03737222300012
 10
266.9336818616
 20
181.64769338400012
 10
265.9318436173
 20
180.29156711450017
 10
264.900387771
 20
178.97180419310016
 10
263.8414521725
 20
177.69114003010017
 10
262.7572316275
 20
176.45222899750016
 10
261.64997334870003
 20
175.25763892770013
 10
260.521972298
 20
174.10984579080016
 10
259.3755664298
 20
173.01122856360016
 10
258.2131318452
 20
171.96406429800012
 10
257.03707786760003
 20
170.97052340180014
 10
255.8498420483
 20
170.03266514020012
 10
254.6538851149
 20
169.15243336780017
 10
253.45168587080002
 20
168.33165249930013
 10
252.2457360574
 20
167.57202372830014
 10
251.03853519
 20
166.87512150150016
 10
249.83258537670002
 20
166.24239025520015
 10
248.6303861326
 20
165.67514142150017
 10
247.4344291992
 20
165.17455071030017
 10
246.2471933799
 20
164.74165567220015
 10
245.0711394022
 20
164.37735354830014
 10
243.90870481770003
 20
164.08239941050013
 10
242.7622989495
 20
163.85740459610017
 10
241.63429789870003
 20
163.70283544130015
 10
240.52703961999998
 20
163.61901231430014
 10
239.442819075
 20
163.60610895130017
 10
238.3838834765
 20
163.66415209640016
 10
237.3524276302
 20
163.79302144650015
 10
236.3505893858
 20
163.99244990020017
 10
235.38044520620002
 20
164.26202411130012
 10
234.4440058632
 20
164.60118534640017
 10
233.54321227039998
 20
165.00923064190013
 10
232.67993145999998
 20
165.48531426160017
 10
231.85595271350002
 20
166.02844944950013
 10
231.0729838525
 20
166.63751047500014
 10
230.3326476996
 20
167.31123496620015
 10
229.63647871450002
 20
168.04822652610014
 10
228.98591981380002
 20
168.84695762710012
 10
228.3823193801
 20
169.70577277720017
 10
227.82692846740002
 20
170.62289195080015
 10
227.32089820840002
 20
171.59641427820017
 10
226.86527742790003
 20
172.62432198590014
 10
226.4610104696
 20
173.70448457810014
 10
226.1089352385
 20
174.83466325300017
 10
225.8097814643
 20
176.01251554260014
 10
225.5641691889
 20
177.23560016820014
 10
225.37260748120002
 20
178.50138210010013
 10
225.23549338200002
 20
179.80723781200012
 10
225.15311108140003
 20
181.15046071850017
 10
225.12563132920002
 20
182.52826678510016
  0
LWPOLYLINE
  5
173
330
17
100
AcDbEntity
  8
0
  6
Continuous
 62
7
370
25
100
AcDbPolyline
 90
53
 70
128
 10
234.31801948470002
 20
187.83491951190015
 10
234.28966365949998
 20
188.35987719570014
 10
234.20500967600003
 20
188.84444087550017
 10
234.06529197959998
 20
189.28154452180016
 10
233.87254796910003
 20
189.66481417910015
 10
233.62958828620003
 20
189.98866091270017
 10
233.33995583019998
 20
190.24836230810016
 10
233.0078740943
 20
190.44013133420017
 10
232.6381855783
 20
190.56117156660017
 10
232.23628117290002
 20
190.60971796620012
 10
231.80802154960003
 20
190.58506261730017
 10
231.359651698
 20
190.48756505030016
 10
230.8977098601
 20
190.31864699930017
 10
230.42893218810002
 20
190.08077166980016
 10
229.96015451620002
 20
189.77740781980017
 10
229.49821267829998
 20
189.41297917740016
 10
229.0498428267
 20
188.99279993280012
 10
228.62158320330002
 20
188.52299724550014
 10
228.21967879800002
 20
188.01042189660015
 10
227.84999028189998
 20
187.46254838890016
 10
227.5179085461
 20
186.88736595190014
 10
227.22827609
 20
186.29326204060013
 10
226.98531640710002
 20
185.68890002800012
 10
226.7925723967
 20
185.08309287310013
 10
226.6528547003
 20
184.48467460830014
 10
226.5682007167
 20
183.90237151950012
 10
226.5398448916
 20
183.34467489690016
 10
226.5682007167
 20
182.81971721320016
 10
226.6528547003
 20
182.33515353340013
 10
226.7925723967
 20
181.89804988710014
 10
226.98531640710002
 20
181.51478022980015
 10
227.22827609
 20
181.19093349610014
 10
227.5179085461
 20
180.93123210070016
 10
227.84999028189998
 20
180.73946307470013
 10
228.21967879800002
 20
180.61842284230013
 10
228.62158320330002
 20
180.56987644260013
 10
229.0498428267
 20
180.59453179160013
 10
229.49821267829998
 20
180.69202935860014
 10
229.96015451620002
 20
180.86094740960013
 10
230.42893218810002
 20
181.09882273910014
 10
230.8977098601
 20
181.40218658900014
 10
231.359651698
 20
181.76661523140015
 10
231.80802154960003
 20
182.18679447610012
 10
232.23628117290002
 20
182.65659716340016
 10
232.6381855783
 20
183.16917251230015
 10
233.0078740943
 20
183.71704602000014
 10
233.33995583019998
 20
184.29222845700016
 10
233.62958828620003
 20
184.88633236820013
 10
233.87254796910003
 20
185.49069438080014
 10
234.06529197959998
 20
186.09650153580017
 10
234.20500967600003
 20
186.69491980060016
 10
234.28966365949998
 20
187.27722288940012
 10
234.31801948470002
 20
187.83491951190015
  0
LWPOLYLINE
  5
174
330
17
100
AcDbEntity
  8
0
  6
Continuous
 62
7
370
25
100
AcDbPolyline
 90
53
 70
128
 10
276.74442635590003
 20
212.32716286660016
 10
276.7160705307
 20
212.85212055040014
 10
276.6314165471
 20
213.33668423020012
 10
276.4916988508
 20
213.77378787650017
 10
276.2989548403
 20
214.15705753370017
 10
276.0559951574
 20
214.48090426740012
 10
275.7663627014
 20
214.74060566280016
 10
275.4342809655
 20
214.93237468880014
 10
275.0645924494
 20
215.05341492130017
 10
274.6626880441
 20
215.10196132090013
 10
274.2344284208
 20
215.07730597200012
 10
273.7860585692
 20
214.97980840500017
 10
273.3241167313
 20
214.81089035400012
 10
272.8553390593
 20
214.57301502450017
 10
272.3865613874
 20
214.26965117450013
 10
271.9246195495
 20
213.90522253210017
 10
271.47624969780003
 20
213.48504328750013
 10
271.0479900745
 20
213.01524060020014
 10
270.6460856692
 20
212.50266525130016
 10
270.2763971531
 20
211.95479174360017
 10
269.9443154173
 20
211.37960930660014
 10
269.6546829612
 20
210.78550539530013
 10
269.41172327830003
 20
210.18114338270013
 10
269.2189792679
 20
209.57533622780014
 10
269.0792615715
 20
208.97691796300015
 10
268.9946075879
 20
208.39461487420013
 10
268.9662517628
 20
207.83691825160017
 10
268.9946075879
 20
207.31196056780013
 10
269.0792615715
 20
206.82739688800015
 10
269.2189792679
 20
206.39029324180015
 10
269.41172327830003
 20
206.00702358450016
 10
269.6546829612
 20
205.68317685080015
 10
269.9443154173
 20
205.42347545540017
 10
270.2763971531
 20
205.23170642940013
 10
270.6460856692
 20
205.11066619700014
 10
271.0479900745
 20
205.06211979730014
 10
271.47624969780003
 20
205.08677514630014
 10
271.9246195495
 20
205.18427271330015
 10
272.3865613874
 20
205.35319076430014
 10
272.8553390593
 20
205.59106609370016
 10
273.3241167313
 20
205.89442994370015
 10
273.7860585692
 20
206.25885858610016
 10
274.2344284208
 20
206.67903783080013
 10
274.6626880441
 20
207.14884051810017
 10
275.0645924494
 20
207.66141586700016
 10
275.4342809655
 20
208.20928937470015
 10
275.7663627014
 20
208.78447181170017
 10
276.0559951574
 20
209.37857572290014
 10
276.2989548403
 20
209.98293773550014
 10
276.4916988508
 20
210.58874489040014
 10
276.6314165471
 20
211.18716315520012
 10
276.7160705307
 20
211.76946624400014
 10
276.74442635590003
 20
212.32716286660016
  0
LWPOLYLINE
  5
175
330
17
100
AcDbEntity
  8
0
  6
Continuous
 62
7
370
25
100
AcDbPolyline
 90
53
 70
128
 10
196.84136008180002
 20
198.85642902160012
 10
196.86883983400003
 20
200.26596253470015
 10
196.95122213460002
 20
201.70430202080016
 10
197.08833623369998
 20
203.16846630190017
 10
197.2798979414
 20
204.65542067380014
 10
197.5255102169
 20
206.16208319650016
 10
197.8246639911
 20
207.68533108180017
 10
198.1767392222
 20
209.22200716590012
 10
198.58100618039998
 20
210.76892645300015
 10
199.03662696089998
 20
212.32288271660016
 10
199.54265722000002
 20
213.88065514510012
 10
200.0980481326
 20
215.43901501710016
 10
200.70164856629998
 20
216.99473239400012
 10
201.35220746700003
 20
218.54458281380013
 10
202.0483764521
 20
220.08535397490013
 10
202.788712605
 20
221.61385239380016
 10
203.57168146600003
 20
223.12691002420016
 10
204.39566021259998
 20
224.62139082290017
 10
205.2589410229
 20
226.09419725040013
 10
206.15973461570002
 20
227.54227669030016
 10
207.09617395869998
 20
228.96262777700016
 10
208.0663181384
 20
230.35230661600016
 10
209.0681563827
 20
231.70843288550017
 10
210.099612229
 20
233.02819580690013
 10
211.1585478275
 20
234.30885996990017
 10
212.2427683725
 20
235.54777100250013
 10
213.35002665130003
 20
236.74236107230016
 10
214.47802770200002
 20
237.89015420920012
 10
215.62443357019998
 20
238.98877143640013
 10
216.7868681548
 20
240.03593570200016
 10
217.96292213240002
 20
241.02947659820015
 10
219.1501579517
 20
241.96733485980016
 10
220.3461148851
 20
242.84756663220017
 10
221.54831412919998
 20
243.66834750070015
 10
222.7542639426
 20
244.42797627170015
 10
223.96146481
 20
245.12487849850012
 10
225.16741462330003
 20
245.75760974480013
 10
226.3696138674
 20
246.32485857850017
 10
227.5655708008
 20
246.82544928970017
 10
228.7528066201
 20
247.25834432780013
 10
229.9288605978
 20
247.62264645170015
 10
231.09129518230003
 20
247.91760058950015
 10
232.2377010505
 20
248.14259540390017
 10
233.36570210130003
 20
248.29716455870013
 10
234.47296038000002
 20
248.38098768570015
 10
235.557180925
 20
248.39389104870017
 10
236.6161165235
 20
248.33584790360013
 10
237.6475723698
 20
248.20697855350014
 10
238.6494106142
 20
248.00755009980017
 10
239.61955479379998
 20
247.73797588870016
 10
240.5559941368
 20
247.39881465360017
 10
241.45678772960002
 20
246.99076935810015
 10
242.10634061320002
 20
246.64091345750015
  0
LWPOLYLINE
  5
176
330
17
100
AcDbEntity
  8
0
  6
Continuous
 62
7
370
25
100
AcDbPolyline
 90
19
 70
128
 10
204.6093881393
 20
181.68724877900016
 10
204.39566021259998
 20
181.81347649800014
 10
203.57168146600003
 20
182.35661168600015
 10
202.788712605
 20
182.96567271150016
 10
202.0483764521
 20
183.63939720260012
 10
201.35220746700003
 20
184.37638876250017
 10
200.70164856629998
 20
185.17511986360014
 10
200.0980481326
 20
186.03393501370013
 10
199.54265722000002
 20
186.95105418720013
 10
199.03662696089998
 20
187.92457651470014
 10
198.58100618039998
 20
188.95248422240016
 10
198.1767392222
 20
190.03264681460016
 10
197.8246639911
 20
191.16282548950014
 10
197.5255102169
 20
192.34067777900017
 10
197.2798979414
 20
193.56376240460017
 10
197.08833623369998
 20
194.82954433660015
 10
196.95122213460002
 20
196.13540004850014
 10
196.86883983400003
 20
197.47862295500013
 10
196.84136008180002
 20
198.85642902160012
  0
ARC
  5
177
330
17
100
AcDbEntity
  8
0
  6
Continuous
 62
7
370
25
100
AcDbCircle
 10
220.3396093897
 20
191.41423927920013
 30
0.0
 40
9.113519596275609
100
AcDbArc
 50
-45.257774966700026
 51
-14.736848500599987
  0
LWPOLYLINE
  5
178
330
17
100
AcDbEntity
  8
0
  6
Continuous
 62
7
370
25
100
AcDbPolyline
 90
36
 70
128
 10
256.12889893470003
 20
209.69076713930016
 10
256.1550728326
 20
209.65147763980016
 10
256.4750112335
 20
209.10053262880015
 10
256.7446210349
 20
208.49411584150013
 10
256.9622807717
 20
207.83587433960017
 10
257.1266814127
 20
207.12976686520014
 10
257.236834233
 20
206.38004003150016
 10
257.2920767607
 20
205.59120278390017
 10
257.2920767607
 20
204.76799928260013
 10
257.236834233
 20
203.91538037020015
 10
257.1266814127
 20
203.03847379730016
 10
256.9622807717
 20
202.14255338300015
 10
256.7446210349
 20
201.23300729820014
 10
256.4750112335
 20
200.31530566000012
 10
256.1550728326
 20
199.39496763420013
 10
255.78672997939998
 20
198.47752824180017
 10
255.3721979312
 20
197.56850507140015
 10
254.9139697325
 20
196.67336509520013
 10
254.4148012215
 20
195.79749179040013
 10
253.87769445650002
 20
194.94615276200014
 10
253.3058796606
 20
194.12446806330016
 10
252.70279579549998
 20
193.33737940260013
 10
252.0720698784
 20
192.58962042380014
 10
251.4174951691
 20
191.88568823730017
 10
250.7430083571
 20
191.22981637410012
 10
250.05266588530003
 20
190.62594932490012
 10
249.35061955470002
 20
190.07771881700015
 10
248.64109155440002
 20
189.58842197330014
 10
247.9283490693
 20
189.16100148260014
 10
247.2166786166
 20
188.79802790200014
 10
246.5103602662
 20
188.50168419730014
 10
245.81364189970003
 20
188.27375261430015
 10
245.1307136633
 20
188.11560396060017
 10
244.46568276789998
 20
188.02818936060012
 10
243.82254878740002
 20
188.01203453620016
 10
243.6198384068
 20
188.02209090380015
  0
ARC
  5
179
330
17
100
AcDbEntity
  8
0
  6
Continuous
 62
7
370
25
100
AcDbCircle
 10
262.7660162609
 20
215.90648263390014
 30
0.0
 40
9.11351959627691
100
AcDbArc
 50
-45.257774966700026
 51
-14.736848500599987
  0
LWPOLYLINE
  5
17A
330
17
100
AcDbEntity
  8
0
  6
HIDDEN
 62
7
370
18
100
AcDbPolyline
 90
71
 70
128
 10
242.10634061320002
 20
246.64091345750015
 10
242.32006854000002
 20
246.51468573840017
 10
243.14404728649998
 20
245.97155055050015
 10
243.9270161475
 20
245.36248952500014
 10
244.6673523004
 20
244.68876503380014
 10
245.36352128549998
 20
243.95177347390015
 10
246.01408018619998
 20
243.15304237290016
 10
246.6176806199
 20
242.29422722280017
 10
247.17307153259998
 20
241.37710804920013
 10
247.67910179160003
 20
240.40358572180017
 10
248.13472257210003
 20
239.37567801410015
 10
248.5389895304
 20
238.29551542190015
 10
248.8910647615
 20
237.16533674700017
 10
249.1902185357
 20
235.98748445740014
 10
249.4358308111
 20
234.76439983180015
 10
249.62739251879998
 20
233.49861789990015
 10
249.76450661799998
 20
232.19276218800016
 10
249.84688891860003
 20
230.84953928150017
 10
249.87436867079998
 20
229.47173321490013
 10
249.84688891860003
 20
228.06219970180015
 10
249.76450661799998
 20
226.62386021560016
 10
249.62739251879998
 20
225.15969593450015
 10
249.4358308111
 20
223.67274156270017
 10
249.1902185357
 20
222.16607904000014
 10
248.8910647615
 20
220.64283115460015
 10
248.5389895304
 20
219.10615507050014
 10
248.13472257210003
 20
217.55923578340017
 10
247.67910179160003
 20
216.00527951980015
 10
247.17307153259998
 20
214.44750709140013
 10
246.6176806199
 20
212.88914721940014
 10
246.01408018619998
 20
211.33342984250012
 10
245.36352128549998
 20
209.78357942270017
 10
244.6673523004
 20
208.24280826150013
 10
243.9270161475
 20
206.71430984260016
 10
243.14404728649998
 20
205.20125221230015
 10
242.32006854000002
 20
203.70677141360014
 10
241.45678772960002
 20
202.23396498610012
 10
240.5559941368
 20
200.78588554610016
 10
239.61955479379998
 20
199.36553445940015
 10
238.6494106142
 20
197.97585562050014
 10
237.6475723698
 20
196.61972935090014
 10
236.6161165235
 20
195.29996642960012
 10
235.557180925
 20
194.01930226660014
 10
234.47296038000002
 20
192.78039123400012
 10
233.36570210130003
 20
191.58580116410016
 10
232.2377010505
 20
190.43800802730013
 10
231.09129518230003
 20
189.33939080010012
 10
229.9288605978
 20
188.29222653440016
 10
228.7528066201
 20
187.29868563820017
 10
227.5655708008
 20
186.36082737670014
 10
226.3696138674
 20
185.48059560430013
 10
225.16741462330003
 20
184.65981473570017
 10
223.96146481
 20
183.90018596470017
 10
222.7542639426
 20
183.20328373790014
 10
221.54831412919998
 20
182.57055249170017
 10
220.3461148851
 20
182.00330365800014
 10
219.1501579517
 20
181.50271294680013
 10
217.96292213240002
 20
181.06981790870017
 10
216.7868681548
 20
180.70551578480016
 10
215.62443357019998
 20
180.41056164690016
 10
214.47802770200002
 20
180.18556683250014
 10
213.35002665130003
 20
180.03099767770013
 10
212.2427683725
 20
179.94717455070017
 10
211.1585478275
 20
179.93427118770015
 10
210.099612229
 20
179.99231433290012
 10
209.0681563827
 20
180.12118368300017
 10
208.0663181384
 20
180.32061213660015
 10
207.09617395869998
 20
180.59018634780014
 10
206.15973461570002
 20
180.92934758290014
 10
205.2589410229
 20
181.33739287830016
 10
204.6093881393
 20
181.68724877900016
  0
LWPOLYLINE
  5
17B
330
17
100
AcDbEntity
  8
0
  6
HIDDEN
 62
7
370
18
100
AcDbPolyline
 90
43
 70
128
 10
229.3682720164
 20
190.69234790330015
 10
229.33991619120002
 20
191.21730558710013
 10
229.25526220760003
 20
191.70186926690016
 10
229.11554451130002
 20
192.13897291320015
 10
228.9228005008
 20
192.52224257040015
 10
228.67984081790001
 20
192.84608930410016
 10
228.39020836190002
 20
193.10579069950015
 10
228.058126626
 20
193.29755972550012
 10
227.6884381099
 20
193.41859995800016
 10
227.2865337046
 20
193.46714635760017
 10
226.8582740813
 20
193.44249100870016
 10
226.40990422970003
 20
193.34499344170015
 10
225.9479623918
 20
193.17607539060012
 10
225.4791847198
 20
192.93820006120015
 10
225.0104070479
 20
192.63483621120017
 10
224.54846521000002
 20
192.27040756880015
 10
224.1000953583
 20
191.85022832420017
 10
223.671835735
 20
191.38042563690013
 10
223.2699313297
 20
190.86785028800014
 10
222.90024281360002
 20
190.31997678030015
 10
222.56816107780003
 20
189.74479434320014
 10
222.2785286217
 20
189.15069043200012
 10
222.0355689388
 20
188.54632841940017
 10
221.84282492839998
 20
187.94052126450012
 10
221.70310723199998
 20
187.34210299970013
 10
221.6184532484
 20
186.75979991090017
 10
221.5900974233
 20
186.20210328830015
 10
221.6184532484
 20
185.67714560450017
 10
221.70310723199998
 20
185.19258192470014
 10
221.84282492839998
 20
184.75547827850014
 10
222.0355689388
 20
184.37220862120014
 10
222.2785286217
 20
184.04836188750014
 10
222.56816107780003
 20
183.78866049210015
 10
222.90024281360002
 20
183.59689146610017
 10
223.2699313297
 20
183.47585123370013
 10
223.671835735
 20
183.42730483400013
 10
224.1000953583
 20
183.45196018300012
 10
224.54846521000002
 20
183.54945775000013
 10
225.0104070479
 20
183.71837580100012
 10
225.4791847198
 20
183.95625113040015
 10
225.9479623918
 20
184.25961498040013
 10
226.40990422970003
 20
184.62404362280014
 10
226.7547830365
 20
184.94108035070016
  0
ARC
  5
17C
330
17
100
AcDbEntity
  8
0
  6
HIDDEN
 62
7
370
18
100
AcDbCircle
 10
222.84891577450003
 20
190.75743409210017
 30
0.0
 40
6.519681128684308
100
AcDbArc
 50
-14.76425096370005
 51
-0.5719951318999988
  0
LWPOLYLINE
  5
17D
330
17
100
AcDbEntity
  8
0
  6
HIDDEN
 62
7
370
18
100
AcDbPolyline
 90
46
 70
128
 10
228.3076118446
 20
190.08004181950017
 10
228.2800857862
 20
189.60958929680012
 10
228.1980433746
 20
189.11651268690017
 10
228.06308147189998
 20
188.61040916500016
 10
227.8778269581
 20
188.10112946060016
 10
227.64588560150003
 20
187.59858612380017
 10
227.37177187690003
 20
187.11256058900014
 10
227.06082109599998
 20
186.65251279040015
 10
226.71908556210002
 20
186.22739703510015
 10
226.3532167687
 20
185.84548771770014
 10
225.9703359357
 20
185.51421826870015
 10
225.57789540290003
 20
185.24003647110013
 10
225.18353357900003
 20
185.02827896160014
 10
224.79492626820002
 20
184.88306735940014
 10
224.41963726990002
 20
184.80722804310014
 10
224.0649711575
 20
184.80223713870012
 10
223.73783110340003
 20
184.86819178850013
 10
223.4445845166
 20
185.00380826030013
 10
223.1909391086
 20
185.20644693370016
 10
222.98183179850002
 20
185.47216367740012
 10
222.82133262230002
 20
185.79578661730014
 10
222.71256551390002
 20
186.17101680090016
 10
222.6576475014
 20
186.59055079960015
 10
222.6576475014
 20
187.04622286120016
 10
222.71256551390002
 20
187.52916384750014
 10
222.82133262230002
 20
188.02997386140012
 10
222.98183179850002
 20
188.53890520570016
 10
223.1909391086
 20
189.04605211070017
 10
223.4445845166
 20
189.54154353870015
 10
223.73783110340003
 20
190.01573531270017
 10
224.0649711575
 20
190.45939782930017
 10
224.41963726990002
 20
190.86389570210017
 10
224.79492626820002
 20
191.22135584020012
 10
225.18353357900003
 20
191.52482068870015
 10
225.57789540290003
 20
191.76838364940014
 10
225.9703359357
 20
191.94730404630016
 10
226.3532167687
 20
192.05809939750017
 10
226.71908556210002
 20
192.09861319740017
 10
227.06082109599998
 20
192.06805689110016
 10
227.37177187690003
 20
191.96702522220014
 10
227.64588560150003
 20
191.79748465730015
 10
227.8778269581
 20
191.56273511070017
 10
228.06308147189998
 20
191.26734571510016
 10
228.1980433746
 20
190.91706588930012
 10
228.2800857862
 20
190.51871343160016
 10
228.3076118446
 20
190.08004181950017
  0
LWPOLYLINE
  5
17E
330
17
100
AcDbEntity
  8
0
  6
HIDDEN
 62
7
370
18
100
AcDbPolyline
 90
46
 70
128
 10
204.97308806540002
 20
203.55077566450015
 10
204.94556200710002
 20
203.98944727670013
 10
204.86351959540002
 20
204.38779973440015
 10
204.7285576928
 20
204.73807956020013
 10
204.54330317890003
 20
205.03346895570016
 10
204.3113618224
 20
205.26821850240017
 10
204.0372480977
 20
205.43775906730016
 10
203.72629731680001
 20
205.53879073610014
 10
203.38456178299998
 20
205.56934704250014
 10
203.01869298960003
 20
205.52883324250016
 10
202.63581215649998
 20
205.41803789140013
 10
202.2433716238
 20
205.23911749440012
 10
201.8490097999
 20
204.99555453380017
 10
201.46040248909998
 20
204.69208968530015
 10
201.0851134907
 20
204.33462954720014
 10
200.73044737830003
 20
203.93013167430016
 10
200.4033073242
 20
203.48646915780014
 10
200.11006073750002
 20
203.01227738380013
 10
199.85641532940002
 20
202.51678595580015
 10
199.6473080193
 20
202.00963905080013
 10
199.4868088431
 20
201.50070770650015
 10
199.37804173479998
 20
200.99989769260017
 10
199.32312372220002
 20
200.51695670630014
 10
199.32312372220002
 20
200.06128464470012
 10
199.37804173479998
 20
199.64175064600013
 10
199.4868088431
 20
199.26652046240017
 10
199.6473080193
 20
198.94289752250015
 10
199.85641532940002
 20
198.67718077880014
 10
200.11006073750002
 20
198.47454210540016
 10
200.4033073242
 20
198.33892563360016
 10
200.73044737830003
 20
198.27297098380015
 10
201.0851134907
 20
198.27796188820017
 10
201.46040248909998
 20
198.35380120450017
 10
201.8490097999
 20
198.49901280670016
 10
202.2433716238
 20
198.71077031620015
 10
202.63581215649998
 20
198.98495211380012
 10
203.01869298960003
 20
199.31622156280017
 10
203.38456178299998
 20
199.69813088020013
 10
203.72629731680001
 20
200.12324663550012
 10
204.0372480977
 20
200.58329443410017
 10
204.3113618224
 20
201.06931996890015
 10
204.54330317890003
 20
201.57186330570013
 10
204.7285576928
 20
202.08114301010013
 10
204.86351959540002
 20
202.58724653200014
 10
204.94556200710002
 20
203.08032314190015
 10
204.97308806540002
 20
203.55077566450015
  0
LWPOLYLINE
  5
17F
330
17
100
AcDbEntity
  8
0
  6
HIDDEN
 62
7
370
18
100
AcDbPolyline
 90
92
 70
128
 10
236.4393398282
 20
193.14157223880014
 10
236.4671397363
 20
194.08713318770012
 10
236.5504069813
 20
195.06028519870014
 10
236.6887447569
 20
196.05639075940016
 10
236.8814938205
 20
197.07070297300012
 10
237.1277356352
 20
198.09838818010016
 10
237.4262967465
 20
199.13454899250016
 10
237.7757543748
 20
200.17424763210013
 10
238.1744431953
 20
201.21252946150017
 10
238.6204632743
 20
202.24444659490015
 10
239.11168912290003
 20
203.26508147720014
 10
239.6457798262
 20
204.26957031850017
 10
240.220190199
 20
205.25312627180014
 10
240.832182914
 20
206.21106224530016
 10
241.4788415474
 20
207.13881323780012
 10
242.15708447629999
 20
208.03195809320013
 10
242.8636795643
 20
208.88624056960012
 10
243.59525956390002
 20
209.69758962210014
 10
244.3483381633
 20
210.46213880270014
 10
245.1193266001
 20
211.17624468670013
 10
245.9045507632
 20
211.83650423410015
 10
246.70026870200002
 20
212.43977100760017
 10
247.50268845789998
 20
212.98317016620015
 10
248.3079861356
 20
213.46411216560014
 10
249.1123241248
 20
213.88030509800015
 10
249.91186938880003
 20
214.22976561470014
 10
250.70281173019998
 20
214.51082837700014
 10
251.48138194850003
 20
214.72215399300015
 10
252.24386980219998
 20
214.86273539990017
 10
252.98664168940002
 20
214.93190266320013
 10
253.70615796380002
 20
214.92932616940013
 10
254.3989898026
 20
214.85501819670017
 10
255.06183554670002
 20
214.70933285640015
 10
255.6915364341
 20
214.49296440560013
 10
256.2850916535
 20
214.20694393830016
 10
256.83967264390003
 20
213.85263447240013
 10
257.3526365743
 20
213.43172445390016
 10
257.8215389379
 20
212.94621971060016
 10
258.2441452016
 20
212.39843389380016
 10
258.618441454
 20
211.79097745240014
 10
258.9426440029
 20
211.12674519290013
 10
259.2152078757
 20
210.40890248440016
 10
259.4348341813
 20
209.64087017460017
 10
259.6004763003
 20
208.82630828690017
 10
259.7113448727
 20
207.96909857990013
 10
259.7669115591
 20
207.07332604810014
 10
259.7669115591
 20
206.14325945560014
 10
259.7113448727
 20
205.18333099320014
 10
259.6004763003
 20
204.19811515720014
 10
259.4348341813
 20
203.19230694970017
 10
259.2152078757
 20
202.17069950490017
 10
258.9426440029
 20
201.13816124750016
 10
258.618441454
 20
200.09961269250013
 10
258.2441452016
 20
199.06000299670015
 10
257.8215389379
 20
198.02428637380015
 10
257.3526365743
 20
196.99739848510015
 10
256.83967264390003
 20
195.98423291900016
 10
256.2850916535
 20
194.98961787090016
 10
255.6915364341
 20
194.01829313450017
 10
255.06183554670002
 20
193.07488751440016
 10
254.3989898026
 20
192.16389676800017
 10
253.70615796380002
 20
191.28966218110017
 10
252.98664168940002
 20
190.45634987970013
 10
252.24386980219998
 20
189.66793097630014
 10
251.48138194850003
 20
188.92816264600017
 10
250.70281173019998
 20
188.24057022190013
 10
249.91186938880003
 20
187.60843039500017
 10
249.1123241248
 20
187.03475559940014
 10
248.3079861356
 20
186.52227965670014
 10
247.50268845789998
 20
186.07344474830015
 10
246.70026870200002
 20
185.69038977680017
 10
245.9045507632
 20
185.37494017370014
 10
245.1193266001
 20
185.12859919990015
 10
244.3483381633
 20
184.95254078240012
 10
243.59525956390002
 20
184.84760391970016
 10
242.8636795643
 20
184.81428868370014
 10
242.15708447629999
 20
184.85275383680013
 10
241.4788415474
 20
184.96281607490013
 10
240.832182914
 20
185.14395090140013
 10
240.220190199
 20
185.39529512630017
 10
239.6457798262
 20
185.71565097990012
 10
239.11168912290003
 20
186.10349182070016
 10
238.6204632743
 20
186.55696941060015
 10
238.1744431953
 20
187.07392272210015
 10
237.7757543748
 20
187.65188823740013
 10
237.4262967465
 20
188.28811168770014
 10
237.1277356352
 20
188.97956117840013
 10
236.8814938205
 20
189.72294163780012
 10
236.6887447569
 20
190.51471051950014
 10
236.5504069813
 20
191.35109468420015
 10
236.4671397363
 20
192.22810838060016
 10
236.4393398282
 20
193.14157223880014
  0
LWPOLYLINE
  5
180
330
17
100
AcDbEntity
  8
0
  6
HIDDEN
 62
7
370
18
100
AcDbPolyline
 90
92
 70
128
 10
211.69060248670002
 20
207.42871419570017
 10
211.71840239480002
 20
208.37427514460015
 10
211.80166963980002
 20
209.34742715560017
 10
211.9400074153
 20
210.34353271630013
 10
212.13275647900002
 20
211.35784492990015
 10
212.37899829370002
 20
212.38553013700013
 10
212.677559405
 20
213.42169094940013
 10
213.0270170333
 20
214.46138958900016
 10
213.42570585380003
 20
215.49967141840014
 10
213.87172593270003
 20
216.53158855180013
 10
214.3629517813
 20
217.55222343410017
 10
214.89704248470002
 20
218.55671227540014
 10
215.47145285739998
 20
219.54026822870017
 10
216.0834455725
 20
220.49820420220013
 10
216.73010420589998
 20
221.42595519470015
 10
217.4083471348
 20
222.31910005010016
 10
218.11494222279998
 20
223.17338252650015
 10
218.84652222239998
 20
223.98473157900017
 10
219.59960082179998
 20
224.74928075960017
 10
220.37058925859998
 20
225.46338664360016
 10
221.15581342170003
 20
226.12364619100012
 10
221.9515313604
 20
226.72691296440016
 10
222.7539511164
 20
227.27031212310013
 10
223.55924879410003
 20
227.75125412250017
 10
224.36358678329998
 20
228.16744705490012
 10
225.1631320473
 20
228.51690757160017
 10
225.9540743887
 20
228.79797033390017
 10
226.732644607
 20
229.00929594990012
 10
227.4951324607
 20
229.14987735680015
 10
228.23790434789998
 20
229.21904462010016
 10
228.9574206222
 20
229.21646812630016
 10
229.65025246110002
 20
229.14216015360014
 10
230.3130982051
 20
228.99647481330013
 10
230.9427990926
 20
228.78010636250016
 10
231.53635431200001
 20
228.49408589520013
 10
232.0909353023
 20
228.13977642930016
 10
232.60389923270003
 20
227.71886641080013
 10
233.07280159639998
 20
227.23336166750013
 10
233.4954078601
 20
226.68557585070013
 10
233.86970411240003
 20
226.07811940930017
 10
234.19390666139998
 20
225.41388714970017
 10
234.46647053409998
 20
224.69604444130013
 10
234.68609683969999
 20
223.92801213150014
 10
234.8517389588
 20
223.11345024380014
 10
234.9626075311
 20
222.25624053680016
 10
235.0181742176
 20
221.36046800500017
 10
235.0181742176
 20
220.43040141250017
 10
234.9626075311
 20
219.47047295010017
 10
234.8517389588
 20
218.48525711410016
 10
234.68609683969999
 20
217.47944890660014
 10
234.46647053409998
 20
216.45784146180014
 10
234.19390666139998
 20
215.42530320440014
 10
233.86970411240003
 20
214.38675464940016
 10
233.4954078601
 20
213.34714495360012
 10
233.07280159639998
 20
212.31142833070012
 10
232.60389923270003
 20
211.28454044200012
 10
232.0909353023
 20
210.27137487590014
 10
231.53635431200001
 20
209.27675982780013
 10
230.9427990926
 20
208.30543509140014
 10
230.3130982051
 20
207.36202947130013
 10
229.65025246110002
 20
206.45103872490014
 10
228.9574206222
 20
205.57680413800014
 10
228.23790434789998
 20
204.74349183660016
 10
227.4951324607
 20
203.95507293320017
 10
226.732644607
 20
203.21530460290015
 10
225.9540743887
 20
202.52771217880016
 10
225.1631320473
 20
201.89557235190014
 10
224.36358678329998
 20
201.32189755630017
 10
223.55924879410003
 20
200.80942161360016
 10
222.7539511164
 20
200.36058670520012
 10
221.9515313604
 20
199.97753173370015
 10
221.15581342170003
 20
199.66208213060017
 10
220.37058925859998
 20
199.41574115680012
 10
219.59960082179998
 20
199.23968273930015
 10
218.84652222239998
 20
199.13474587660014
 10
218.11494222279998
 20
199.10143064060017
 10
217.4083471348
 20
199.13989579370016
 10
216.73010420589998
 20
199.24995803180016
 10
216.0834455725
 20
199.43109285830016
 10
215.47145285739998
 20
199.68243708320014
 10
214.89704248470002
 20
200.00279293680015
 10
214.3629517813
 20
200.39063377760013
 10
213.87172593270003
 20
200.84411136740013
 10
213.42570585380003
 20
201.36106467900012
 10
213.0270170333
 20
201.93903019430016
 10
212.677559405
 20
202.57525364460017
 10
212.37899829370002
 20
203.26670313530016
 10
212.13275647900002
 20
204.01008359470015
 10
211.9400074153
 20
204.80185247640017
 10
211.80166963980002
 20
205.63823664110012
 10
211.71840239480002
 20
206.51525033740015
 10
211.69060248670002
 20
207.42871419570017
  0
LWPOLYLINE
  5
181
330
17
100
AcDbEntity
  8
0
  6
HIDDEN
 62
7
370
18
100
AcDbPolyline
 90
35
 70
128
 10
238.9142135624
 20
194.57028643450016
 10
238.94185561440003
 20
195.40882826460015
 10
239.0246155278
 20
196.27424183940016
 10
239.16199557480002
 20
197.16132245980018
 10
239.3531695356
 20
198.06473511860017
 10
239.5969876675
 20
198.97904658570016
 10
239.8919836196
 20
199.89875808440016
 10
240.2363832515
 20
200.81833836160015
 10
240.62811530329998
 20
201.73225695320016
 10
241.06482385229998
 20
202.63501744530012
 10
241.54388248200001
 20
203.52119053000015
 10
242.0624100774
 20
204.38544665820015
 10
242.6172881525
 20
205.22258809190012
 10
243.20517960530003
 20
206.02758016390013
 10
243.82254878740002
 20
206.79558155720017
 10
244.46568276789998
 20
207.52197342100013
 10
245.1307136633
 20
208.20238714930016
 10
245.81364189970003
 20
208.83273065370017
 10
246.5103602662
 20
209.40921297430017
 10
247.2166786166
 20
209.92836707870012
 10
247.9283490693
 20
210.38707071280012
 10
248.64109155440002
 20
210.78256517910015
 10
249.35061955470002
 20
211.11247192730016
 10
250.05266588530003
 20
211.37480685950013
 10
250.7430083571
 20
211.56799226240017
 10
251.4174951691
 20
211.69086629640017
 10
252.0720698784
 20
211.74268998240015
 10
252.70279579549998
 20
211.72315164690016
 10
253.3058796606
 20
211.63236879560017
 10
253.87769445650002
 20
211.47088740730013
 10
254.4148012215
 20
211.23967865000017
 10
254.9139697325
 20
210.94013304050017
 10
255.3721979312
 20
210.57405208120016
 10
255.78672997939998
 20
210.14363742620017
 10
256.12889893470003
 20
209.69076713930016
  0
LWPOLYLINE
  5
182
330
17
100
AcDbEntity
  8
0
  6
HIDDEN
 62
7
370
18
100
AcDbPolyline
 90
15
 70
128
 10
243.6198384068
 20
188.02209090380015
 10
243.20517960530003
 20
188.06723664420016
 10
242.6172881525
 20
188.19346369270013
 10
242.0624100774
 20
188.38995653750013
 10
241.54388248200001
 20
188.65553344730014
 10
241.06482385229998
 20
188.98859721150015
 10
240.62811530329998
 20
189.38714474530016
 10
240.2363832515
 20
189.84877913700015
 10
239.8919836196
 20
190.37072406310014
 10
239.5969876675
 20
190.94984048530014
 10
239.3531695356
 20
191.58264552930015
 10
239.16199557480002
 20
192.26533343120016
 10
239.0246155278
 20
192.99379842560015
 10
238.94185561440003
 20
193.76365943830015
 10
238.9142135624
 20
194.57028643450016
  0
LWPOLYLINE
  5
183
330
17
100
AcDbEntity
  8
0
  6
HIDDEN
 62
7
370
18
100
AcDbPolyline
 90
43
 70
128
 10
271.7946788875
 20
215.18459125800015
 10
271.7663230624
 20
215.70954894180014
 10
271.6816690788
 20
216.19411262160017
 10
271.54195138250003
 20
216.63121626780017
 10
271.349207372
 20
217.01448592510016
 10
271.10624768910003
 20
217.33833265880017
 10
270.816615233
 20
217.59803405420016
 10
270.4845334972
 20
217.78980308020013
 10
270.1148449811
 20
217.91084331260012
 10
269.7129405758
 20
217.95938971230012
 10
269.2846809525
 20
217.93473436340017
 10
268.8363111009
 20
217.83723679630018
 10
268.374369263
 20
217.66831874530013
 10
267.905591591
 20
217.43044341590016
 10
267.4368139191
 20
217.12707956590017
 10
266.97487208120003
 20
216.76265092350016
 10
266.5265022295
 20
216.34247167880014
 10
266.0982426062
 20
215.87266899150015
 10
265.6963382009
 20
215.36009364260016
 10
265.32664968480003
 20
214.81222013500016
 10
264.994567949
 20
214.23703769790015
 10
264.7049354929
 20
213.64293378670013
 10
264.46197581
 20
213.03857177410012
 10
264.2692317995
 20
212.43276461920013
 10
264.1295141032
 20
211.83434635440014
 10
264.0448601196
 20
211.25204326560012
 10
264.0165042945
 20
210.69434664300016
 10
264.0448601196
 20
210.16938895920012
 10
264.1295141032
 20
209.68482527940014
 10
264.2692317995
 20
209.24772163310016
 10
264.46197581
 20
208.86445197590015
 10
264.7049354929
 20
208.54060524220014
 10
264.994567949
 20
208.28090384680016
 10
265.32664968480003
 20
208.08913482080013
 10
265.6963382009
 20
207.96809458840013
 10
266.0982426062
 20
207.91954818870013
 10
266.5265022295
 20
207.94420353760015
 10
266.97487208120003
 20
208.04170110460015
 10
267.4368139191
 20
208.21061915570013
 10
267.905591591
 20
208.44849448510016
 10
268.374369263
 20
208.75185833510014
 10
268.8363111009
 20
209.11628697750015
 10
269.1811899077
 20
209.43332370540017
  0
ARC
  5
184
330
17
100
AcDbEntity
  8
0
  6
HIDDEN
 62
7
370
18
100
AcDbCircle
 10
265.2753226457
 20
215.24967744680012
 30
0.0
 40
6.519681128687607
100
AcDbArc
 50
-14.76425096370005
 51
-0.5719951318999988
  0
LWPOLYLINE
  5
185
330
17
100
AcDbEntity
  8
0
  6
HIDDEN
 62
7
370
18
100
AcDbPolyline
 90
46
 70
128
 10
270.7340187158
 20
214.57228517410013
 10
270.7064926574
 20
214.10183265150013
 10
270.6244502458
 20
213.60875604160017
 10
270.4894883431
 20
213.10265251970017
 10
270.3042338293
 20
212.59337281530017
 10
270.0722924727
 20
212.09082947850013
 10
269.798178748
 20
211.60480394370015
 10
269.4872279672
 20
211.14475614510016
 10
269.1454924333
 20
210.71964038980016
 10
268.7796236399
 20
210.33773107240015
 10
268.3967428069
 20
210.00646162340016
 10
268.0043022741
 20
209.73227982580013
 10
267.6099404502
 20
209.52052231630014
 10
267.22133313940003
 20
209.37531071410015
 10
266.8460441411
 20
209.29947139780015
 10
266.4913780286
 20
209.29448049340013
 10
266.1642379745
 20
209.36043514320014
 10
265.8709913878
 20
209.49605161500014
 10
265.6173459798
 20
209.69869028840017
 10
265.4082386697
 20
209.96440703210013
 10
265.2477394935
 20
210.28802997200015
 10
265.13897238510003
 20
210.66326015560017
 10
265.0840543726
 20
211.08279415430016
 10
265.0840543726
 20
211.53846621590017
 10
265.13897238510003
 20
212.02140720220015
 10
265.2477394935
 20
212.52221721610013
 10
265.4082386697
 20
213.03114856040017
 10
265.6173459798
 20
213.53829546540013
 10
265.8709913878
 20
214.03378689340016
 10
266.1642379745
 20
214.50797866740012
 10
266.4913780286
 20
214.95164118390014
 10
266.8460441411
 20
215.35613905680017
 10
267.22133313940003
 20
215.71359919490013
 10
267.6099404502
 20
216.01706404340015
 10
268.0043022741
 20
216.26062700400016
 10
268.3967428069
 20
216.43954740100017
 10
268.7796236399
 20
216.55034275210014
 10
269.1454924333
 20
216.59085655210012
 10
269.4872279672
 20
216.56030024570012
 10
269.798178748
 20
216.45926857690014
 10
270.0722924727
 20
216.28972801200015
 10
270.3042338293
 20
216.05497846530014
 10
270.4894883431
 20
215.75958906980017
 10
270.6244502458
 20
215.40930924400013
 10
270.7064926574
 20
215.01095678630017
 10
270.7340187158
 20
214.57228517410013
  0
LWPOLYLINE
  5
186
330
17
100
AcDbEntity
  8
0
  6
HIDDEN
 62
7
370
18
100
AcDbPolyline
 90
46
 70
128
 10
247.39949493659998
 20
228.04301901920016
 10
247.37196887829998
 20
228.48169063140014
 10
247.28992646659998
 20
228.88004308910016
 10
247.154964564
 20
229.23032291490014
 10
246.9697100501
 20
229.52571231040017
 10
246.73776869350002
 20
229.76046185710013
 10
246.46365496890002
 20
229.93000242190013
 10
246.15270418800003
 20
230.03103409080015
 10
245.8109686541
 20
230.06159039720015
 10
245.44509986079998
 20
230.02107659720016
 10
245.0622190277
 20
229.91028124610014
 10
244.669778495
 20
229.73136084910013
 10
244.2754166711
 20
229.48779788840014
 10
243.8868093603
 20
229.18433304000015
 10
243.5115203619
 20
228.82687290190015
 10
243.1568542495
 20
228.42237502900016
 10
242.82971419540002
 20
227.97871251250015
 10
242.53646760869998
 20
227.50452073850013
 10
242.28282220059998
 20
227.00902931040017
 10
242.0737148905
 20
226.50188240550014
 10
241.9132157143
 20
225.99295106120016
 10
241.8044486059
 20
225.49214104730012
 10
241.74953059339998
 20
225.00920006100014
 10
241.74953059339998
 20
224.55352799940013
 10
241.8044486059
 20
224.13399400070014
 10
241.9132157143
 20
223.75876381710017
 10
242.0737148905
 20
223.43514087720015
 10
242.28282220059998
 20
223.16942413350014
 10
242.53646760869998
 20
222.96678546010017
 10
242.82971419540002
 20
222.83116898830016
 10
243.1568542495
 20
222.76521433850016
 10
243.5115203619
 20
222.77020524290012
 10
243.8868093603
 20
222.84604455920012
 10
244.2754166711
 20
222.99125616140017
 10
244.669778495
 20
223.20301367080017
 10
245.0622190277
 20
223.47719546850013
 10
245.44509986079998
 20
223.80846491750017
 10
245.8109686541
 20
224.19037423490013
 10
246.15270418800003
 20
224.61548999020013
 10
246.46365496890002
 20
225.07553778880012
 10
246.73776869350002
 20
225.56156332360015
 10
246.9697100501
 20
226.06410666040014
 10
247.154964564
 20
226.57338636480014
 10
247.28992646659998
 20
227.07948988660016
 10
247.37196887829998
 20
227.57256649660016
 10
247.39949493659998
 20
228.04301901920016
  0
LINE
  5
187
330
17
100
AcDbEntity
  8
0
  6
HIDDEN
 62
7
370
18
100
AcDbLine
 10
233.1787087029
 20
190.35306594750014
 30
0.0
 11
228.22896123459998
 21
193.21049433890013
 31
0.0
  0
LINE
  5
188
330
17
100
AcDbEntity
  8
0
  6
HIDDEN
 62
7
370
18
100
AcDbLine
 10
222.72940820510001
 20
183.68395685270016
 30
0.0
 11
227.67915567340003
 21
180.82652846130017
 31
0.0
  0
LINE
  5
189
330
17
100
AcDbEntity
  8
0
  6
HIDDEN
 62
7
370
18
100
AcDbLine
 10
227.4790221851
 20
191.91142104530016
 30
0.0
 11
204.14449840589998
 21
205.38215489040013
 31
0.0
  0
LINE
  5
18A
330
17
100
AcDbEntity
  8
0
  6
HIDDEN
 62
7
370
18
100
AcDbLine
 10
200.14482347540002
 20
198.45376399140017
 30
0.0
 11
223.4793472546
 21
184.98303014630014
 31
0.0
  0
LINE
  5
18B
330
17
100
AcDbEntity
  8
0
  6
HIDDEN
 62
7
370
18
100
AcDbLine
 10
215.10853483200003
 20
199.87427488890015
 30
0.0
 11
239.8572721736
 21
185.58713293200017
 31
0.0
  0
LINE
  5
18C
330
17
100
AcDbEntity
  8
0
  6
HIDDEN
 62
7
370
18
100
AcDbLine
 10
256.355931262
 20
214.16674539060014
 30
0.0
 11
231.60719392049998
 21
228.45388734750017
 31
0.0
  0
LINE
  5
18D
330
17
100
AcDbEntity
  8
0
  6
HIDDEN
 62
7
370
18
100
AcDbLine
 10
241.60712995570003
 20
188.61830395040013
 30
0.0
 11
245.1426638616
 21
186.57728367080014
 31
0.0
  0
LINE
  5
18E
330
17
100
AcDbEntity
  8
0
  6
HIDDEN
 62
7
370
18
100
AcDbLine
 10
258.1416073859
 20
209.09455409270012
 30
0.0
 11
254.60607347990003
 21
211.13557437230017
 31
0.0
  0
LINE
  5
18F
330
17
100
AcDbEntity
  8
0
  6
HIDDEN
 62
7
370
18
100
AcDbLine
 10
275.6051155741
 20
214.84530930220015
 30
0.0
 11
270.6553681058
 21
217.70273769360014
 31
0.0
  0
LINE
  5
190
330
17
100
AcDbEntity
  8
0
  6
HIDDEN
 62
7
370
18
100
AcDbLine
 10
265.15581507630003
 20
208.17620020740017
 30
0.0
 11
270.1055625446
 21
205.31877181600012
 31
0.0
  0
LINE
  5
191
330
17
100
AcDbEntity
  8
0
  6
HIDDEN
 62
7
370
18
100
AcDbLine
 10
269.9054290563
 20
216.40366440000017
 30
0.0
 11
246.5709052771
 21
229.87439824510014
 31
0.0
  0
LINE
  5
192
330
17
100
AcDbEntity
  8
0
  6
HIDDEN
 62
7
370
18
100
AcDbLine
 10
242.57123034660003
 20
222.94600734600013
 30
0.0
 11
265.9057541257
 21
209.47527350100015
 31
0.0
  0
MTEXT
  5
1B4
330
17
100
AcDbEntity
  8
0
100
AcDbMText
 10
224.477
 20
22.51
 30
0.0
 40
4.2124
 71
7
  1
\T1.000000;ÉzÉãÉ_Å[
  7
GMM008
  0
MTEXT
  5
1B5
330
17
100
AcDbEntity
  8
0
100
AcDbMText
 10
224.477
 20
14.877
 30
0.0
 40
4.2124
 71
7
  1
\T1.000000;ÉeÉXÉgëïíu
  7
GMM008
  0
MTEXT
  5
1B6
330
17
100
AcDbEntity
  8
0
100
AcDbMText
 10
273.605
 20
20.498
 30
0.0
 40
4.2124
 71
7
  1
\T1.000000;ÉeÉXÉgÅ|ÇOÇOÇQ
  7
GMM008
  0
MTEXT
  5
1B7
330
17
100
AcDbEntity
  8
0
100
AcDbMText
 10
191.878
 20
22.586
 30
0.0
 40
4.2124
 71
8
  1
\T1.000000;Ç`Çh
  7
GMM008
  0
MTEXT
  5
1B8
330
17
100
AcDbEntity
  8
0
100
AcDbMText
 10
207.705
 20
22.586
 30
0.0
 40
4.2124
 71
8
  1
\T1.000000;ÇQÇUÅDÇOÇWÅDÇPÇO
  7
GMM009
  0
MTEXT
  5
1B9
330
17
100
AcDbEntity
  8
0
100
AcDbMText
 10
207.705
 20
14.722
 30
0.0
 40
4.2124
 71
8
  1
\T1.000000;ÅñÅñÅDÅñÅñÅDÅñÅñ
  7
GMM009
  0
MTEXT
  5
1BB
330
17
100
AcDbEntity
  8
0
100
AcDbMText
 10
176.415
 20
22.446
 30
0.0
 40
4.2124
 71
8
  1
\T1.000000;ÇPÅFÇP
  7
VF001
  0
MTEXT
  5
1BD
330
17
100
AcDbEntity
  8
0
100
AcDbMText
 10
19.324
 20
275.03
 30
0.0
 40
7.0
 71
8
  1
\T1.000000;ÇOÇQ
  7
VF002
  0
MTEXT
  5
1BE
330
17
100
AcDbEntity
  8
0
100
AcDbMText
 10
33.595
 20
280.001
 30
0.0
 40
7.0
 71
4
  1
\T1.000000;çﬁéøÅ@ÇrÇSÇTÇbÅ@É}ÉãÇWÇO\P\T1.000000;å¬êîÅ@ÇP
  7
VF001
  0
MTEXT
  5
1BF
330
17
100
AcDbEntity
  8
0
100
AcDbMText
 10
224.593
 20
6.704
 30
0.0
 40
4.2124107142857
 71
7
  1
\T1.000000;ÇPÅDÇOÇX
  7
GMM008
  0
DIMENSION
  5
1CE
330
17
100
AcDbEntity
  8
1
100
AcDbDimension
  2
*D1
  3
GEN001
 10
141.8413600817735
 20
37.9079863394
 30
0.0
 11
161.8413600817735
 21
40.4079863394
 31
0.0
 70
32
 71
5
  1
<>
100
AcDbAlignedDimension
 13
141.8413600817735
 23
61.907986339381495
 33
0.0
 14
181.8413600817735
 24
61.907986339381495
 34
0.0
 50
0.0
100
AcDbRotatedDimension
  0
DIMENSION
  5
1DE
330
17
100
AcDbEntity
  8
1
100
AcDbDimension
  2
*D2
  3
GEN002
 10
141.8413600817735
 20
45.9079863394
 30
0.0
 11
159.3413600817735
 21
48.4079863394
 31
0.0
 70
32
 71
5
  1
<>
100
AcDbAlignedDimension
 13
141.8413600817735
 23
61.907986339381495
 33
0.0
 14
176.8413600817735
 24
82.9079863393815
 34
0.0
 50
0.0
100
AcDbRotatedDimension
  0
DIMENSION
  5
1EE
330
17
100
AcDbEntity
  8
1
100
AcDbDimension
  2
*D3
  3
GEN003
 10
176.8413600817735
 20
45.9079863394
 30
0.0
 11
179.3413600817735
 21
48.4079863394
 31
0.0
 70
32
 71
5
  1
<>
100
AcDbAlignedDimension
 13
176.8413600817735
 23
82.9079863393815
 33
0.0
 14
181.8413600817735
 24
61.907986339381495
 34
0.0
 50
0.0
100
AcDbRotatedDimension
  0
DIMENSION
  5
1FE
330
17
100
AcDbEntity
  8
1
100
AcDbDimension
  2
*D4
  3
GEN004
 10
125.84136008180005
 20
82.9079863393815
 30
0.0
 11
123.34136008180005
 21
99.4079863393815
 31
0.0
 70
32
 71
5
  1
<>
100
AcDbAlignedDimension
 13
141.8413600817735
 23
82.9079863393815
 33
0.0
 14
141.8413600817735
 24
115.9079863393815
 34
0.0
 50
90.0
100
AcDbRotatedDimension
  0
DIMENSION
  5
20E
330
17
100
AcDbEntity
  8
1
100
AcDbDimension
  2
*D5
  3
GEN005
 10
192.84136008180005
 20
86.4079863393815
 30
0.0
 11
190.34136008180005
 21
99.4079863393815
 31
0.0
 70
32
 71
5
  1
<>
100
AcDbAlignedDimension
 13
181.8413600817735
 23
86.4079863393815
 33
0.0
 14
181.8413600817735
 24
112.4079863393815
 34
0.0
 50
90.0
100
AcDbRotatedDimension
  0
DIMENSION
  5
21E
330
17
100
AcDbEntity
  8
1
100
AcDbDimension
  2
*D6
  3
GEN006
 10
206.78179833916275
 20
120.91710270254572
 30
0.0
 11
279.8915433053272
 21
72.77704463255168
 31
0.0
 70
35
 71
5
  1
<>
100
AcDbDiametricDimension
 15
268.21820166083717
 25
77.89886997621727
 35
0.0
  0
DIMENSION
  5
22C
330
17
100
AcDbEntity
  8
1
100
AcDbDimension
  2
*D7
  3
GEN007
 10
207.49999999999994
 20
45.9079863394
 30
0.0
 11
237.49999999999994
 21
48.4079863394
 31
0.0
 70
32
 71
5
  1
<>
100
AcDbAlignedDimension
 13
207.49999999999994
 23
99.4079863393815
 33
0.0
 14
267.49999999999994
 24
99.4079863393815
 34
0.0
 50
0.0
100
AcDbRotatedDimension
  0
LEADER
  5
23C
330
17
100
AcDbEntity
  8
1
100
AcDbLeader
  3
GENLDR
 73
3
 76
3
 10
271.3890873
 20
103.2970733
 30
0.0
 10
288.0
 20
120.0
 30
0.0
 10
298.0
 20
120.0
 30
0.0
  0
MTEXT
  5
23D
330
17
100
AcDbEntity
  8
1
100
AcDbMText
 10
299.0
 20
120.0
 30
0.0
 40
4.0
 71
7
  1
\A1;ÇQÅ|ÇWÉLÉäÅ@ÉUÉOÉä%%cÇPÇPê[Ç≥ÇV\PÇoÇbÇcÇUÇO
  7
VF003
  0
MTEXT
  5
23E
330
17
100
AcDbEntity
  8
0
100
AcDbMText
 10
292.0
 20
78.0
 30
0.0
 40
3.5
 71
1
  1
íçãLÅD\PÅ@ìhëïêFÇÕçHî‘éwíËêFÇ∆Ç∑ÇÈÅB\PÅ@éwé¶ñ≥Ç´äpïîÇÕÇbÇOÅDÇQÅAã˜ïîÇÕÇqÇQà»â∫Ç∆Ç∑ÇÈÅB
  7
VF003
  0
ENDSEC
  0
SECTION
  2
OBJECTS
  0
DICTIONARY
  5
A
330
0
100
AcDbDictionary
281
1
  3
ACAD_COLOR
350
B
  3
ACAD_GROUP
350
C
  3
ACAD_LAYOUT
350
D
  3
ACAD_MATERIAL
350
E
  3
ACAD_MLEADERSTYLE
350
F
  3
ACAD_MLINESTYLE
350
10
  3
ACAD_PLOTSETTINGS
350
11
  3
ACAD_PLOTSTYLENAME
350
12
  3
ACAD_SCALELIST
350
14
  3
ACAD_TABLESTYLE
350
15
  3
ACAD_VISUALSTYLE
350
16
  3
EZDXF_META
350
2D
  0
DICTIONARY
  5
B
330
A
100
AcDbDictionary
281
1
  0
DICTIONARY
  5
C
330
A
100
AcDbDictionary
281
1
  0
DICTIONARY
  5
D
330
A
100
AcDbDictionary
281
1
  3
Model
350
1A
  3
Layout1
350
1E
  0
DICTIONARY
  5
E
330
A
100
AcDbDictionary
281
1
  3
ByBlock
350
1F
  3
ByLayer
350
20
  3
Global
350
21
  0
DICTIONARY
  5
F
330
A
100
AcDbDictionary
281
1
  3
Standard
350
2C
  0
DICTIONARY
  5
10
330
A
100
AcDbDictionary
281
1
  3
Standard
350
22
  0
DICTIONARY
  5
11
330
A
100
AcDbDictionary
281
1
  0
ACDBDICTIONARYWDFLT
  5
12
330
A
100
AcDbDictionary
281
1
  3
Normal
350
13
100
AcDbDictionaryWithDefault
340
13
  0
ACDBPLACEHOLDER
  5
13
330
12
  0
DICTIONARY
  5
14
330
A
100
AcDbDictionary
281
1
  0
DICTIONARY
  5
15
330
A
100
AcDbDictionary
281
1
  0
DICTIONARY
  5
16
330
A
100
AcDbDictionary
281
1
  0
LAYOUT
  5
1A
330
D
100
AcDbPlotSettings
  1

  4
A3
  6

 40
7.5
 41
20.0
 42
7.5
 43
20.0
 44
420.0
 45
297.0
 46
0.0
 47
0.0
 48
0.0
 49
0.0
140
0.0
141
0.0
142
1.0
143
1.0
 70
1024
 72
1
 73
0
 74
5
  7

 75
16
 76
0
 77
2
 78
300
147
1.0
148
0.0
149
0.0
100
AcDbLayout
  1
Model
 70
1
 71
0
 10
0.0
 20
0.0
 11
420.0
 21
297.0
 12
0.0
 22
0.0
 32
0.0
 14
1e+20
 24
1e+20
 34
1e+20
 15
-1e+20
 25
-1e+20
 35
-1e+20
146
0.0
 13
0.0
 23
0.0
 33
0.0
 16
1.0
 26
0.0
 36
0.0
 17
0.0
 27
1.0
 37
0.0
 76
1
330
17
  0
LAYOUT
  5
1E
330
D
100
AcDbPlotSettings
  1

  4
A3
  6

 40
7.5
 41
20.0
 42
7.5
 43
20.0
 44
420.0
 45
297.0
 46
0.0
 47
0.0
 48
0.0
 49
0.0
140
0.0
141
0.0
142
1.0
143
1.0
 70
0
 72
1
 73
0
 74
5
  7

 75
16
 76
0
 77
2
 78
300
147
1.0
148
0.0
149
0.0
100
AcDbLayout
  1
Layout1
 70
1
 71
1
 10
0.0
 20
0.0
 11
420.0
 21
297.0
 12
0.0
 22
0.0
 32
0.0
 14
1e+20
 24
1e+20
 34
1e+20
 15
-1e+20
 25
-1e+20
 35
-1e+20
146
0.0
 13
0.0
 23
0.0
 33
0.0
 16
1.0
 26
0.0
 36
0.0
 17
0.0
 27
1.0
 37
0.0
 76
1
330
1B
  0
MATERIAL
  5
1F
102
{ACAD_REACTORS
330
E
102
}
330
E
100
AcDbMaterial
  1
ByBlock
  2

 70
0
 40
1.0
 71
1
 41
1.0
 91
-1023410177
 42
1.0
 72
1
  3

 73
1
 74
1
 75
1
 44
0.5
 73
0
 45
1.0
 46
1.0
 77
1
  4

 78
1
 79
1
170
1
 48
1.0
171
1
  6

172
1
173
1
174
1
140
1.0
141
1.0
175
1
  7

176
1
177
1
178
1
143
1.0
179
1
  8

270
1
271
1
272
1
145
1.0
146
1.0
273
1
  9

274
1
275
1
276
1
 42
1.0
 72
1
  3

 73
1
 74
1
 75
1
 94
63
  0
MATERIAL
  5
20
102
{ACAD_REACTORS
330
E
102
}
330
E
100
AcDbMaterial
  1
ByLayer
  2

 70
0
 40
1.0
 71
1
 41
1.0
 91
-1023410177
 42
1.0
 72
1
  3

 73
1
 74
1
 75
1
 44
0.5
 73
0
 45
1.0
 46
1.0
 77
1
  4

 78
1
 79
1
170
1
 48
1.0
171
1
  6

172
1
173
1
174
1
140
1.0
141
1.0
175
1
  7

176
1
177
1
178
1
143
1.0
179
1
  8

270
1
271
1
272
1
145
1.0
146
1.0
273
1
  9

274
1
275
1
276
1
 42
1.0
 72
1
  3

 73
1
 74
1
 75
1
 94
63
  0
MATERIAL
  5
21
102
{ACAD_REACTORS
330
E
102
}
330
E
100
AcDbMaterial
  1
Global
  2

 70
0
 40
1.0
 71
1
 41
1.0
 91
-1023410177
 42
1.0
 72
1
  3

 73
1
 74
1
 75
1
 44
0.5
 73
0
 45
1.0
 46
1.0
 77
1
  4

 78
1
 79
1
170
1
 48
1.0
171
1
  6

172
1
173
1
174
1
140
1.0
141
1.0
175
1
  7

176
1
177
1
178
1
143
1.0
179
1
  8

270
1
271
1
272
1
145
1.0
146
1.0
273
1
  9

274
1
275
1
276
1
 42
1.0
 72
1
  3

 73
1
 74
1
 75
1
 94
63
  0
MLINESTYLE
  5
22
102
{ACAD_REACTORS
330
10
102
}
330
10
100
AcDbMlineStyle
  2
Standard
 70
0
  3

 62
256
 51
90.0
 52
90.0
 71
2
 49
0.5
 62
256
  6
BYLAYER
 49
-0.5
 62
256
  6
BYLAYER
  0
MLEADERSTYLE
  5
2C
102
{ACAD_REACTORS
330
F
102
}
330
F
100
AcDbMLeaderStyle
179
2
170
2
171
1
172
0
 90
2
 40
0.0
 41
0.0
173
1
 91
-1056964608
 92
-2
290
1
 42
2.0
291
1
 43
8.0
  3
Standard
 44
4.0
300

342
29
174
1
175
1
176
0
178
1
 93
-1056964608
 45
4.0
292
0
297
0
 46
4.0
 94
-1056964608
 47
1.0
 49
1.0
140
1.0
294
1
141
0.0
177
0
142
1.0
295
0
296
0
143
3.75
271
0
272
9
273
9
  0
DICTIONARY
  5
2D
330
A
100
AcDbDictionary
280
1
281
1
  3
CREATED_BY_EZDXF
350
2E
  3
WRITTEN_BY_EZDXF
350
131
  0
DICTIONARYVAR
  5
2E
330
2D
100
DictionaryVariables
280
0
  1
1.4.4 @ 2026-08-09T08:45:52.074753+00:00
  0
DICTIONARYVAR
  5
131
330
2D
100
DictionaryVariables
280
0
  1
1.4.4 @ 2026-08-10T03:10:51.235305+00:00
  0
ENDSEC
  0
EOF
