  0
SECTION
  2
HEADER
  9
$ACADVER
  1
AC1015
  9
$ACADMAINTVER
 70
6
  9
$DWGCODEPAGE
  3
ANSI_932
  9
$INSBASE
 10
0.0
 20
0.0
 30
0.0
  9
$EXTMIN
 10
1e+20
 20
1e+20
 30
1e+20
  9
$EXTMAX
 10
-1e+20
 20
-1e+20
 30
-1e+20
  9
$LIMMIN
 10
0.0
 20
0.0
  9
$LIMMAX
 10
420.0
 20
297.0
  9
$ORTHOMODE
 70
0
  9
$REGENMODE
 70
1
  9
$FILLMODE
 70
1
  9
$QTEXTMODE
 70
0
  9
$MIRRTEXT
 70
1
  9
$LTSCALE
 40
8.4
  9
$ATTMODE
 70
1
  9
$TEXTSIZE
 40
2.5
  9
$TRACEWID
 40
1.0
  9
$TEXTSTYLE
  7
Standard
  9
$CLAYER
  8
0
  9
$CELTYPE
  6
ByLayer
  9
$CECOLOR
 62
256
  9
$CELTSCALE
 40
1.0
  9
$DISPSILH
 70
0
  9
$DIMSCALE
 40
1.0
  9
$DIMASZ
 40
2.5
  9
$DIMEXO
 40
0.625
  9
$DIMDLI
 40
3.75
  9
$DIMRND
 40
0.0
  9
$DIMDLE
 40
0.0
  9
$DIMEXE
 40
1.25
  9
$DIMTP
 40
0.0
  9
$DIMTM
 40
0.0
  9
$DIMTXT
 40
2.5
  9
$DIMCEN
 40
2.5
  9
$DIMTSZ
 40
0.0
  9
$DIMTOL
 70
0
  9
$DIMLIM
 70
0
  9
$DIMTIH
 70
0
  9
$DIMTOH
 70
0
  9
$DIMSE1
 70
0
  9
$DIMSE2
 70
0
  9
$DIMTAD
 70
1
  9
$DIMZIN
 70
8
  9
$DIMBLK
  1

  9
$DIMASO
 70
1
  9
$DIMSHO
 70
1
  9
$DIMPOST
  1

  9
$DIMAPOST
  1

  9
$DIMALT
 70
0
  9
$DIMALTD
 70
3
  9
$DIMALTF
 40
0.03937007874
  9
$DIMLFAC
 40
1.0
  9
$DIMTOFL
 70
1
  9
$DIMTVP
 40
0.0
  9
$DIMTIX
 70
0
  9
$DIMSOXD
 70
0
  9
$DIMSAH
 70
0
  9
$DIMBLK1
  1

  9
$DIMBLK2
  1

  9
$DIMSTYLE
  2
ISO-25
  9
$DIMCLRD
 70
0
  9
$DIMCLRE
 70
0
  9
$DIMCLRT
 70
0
  9
$DIMTFAC
 40
1.0
  9
$DIMGAP
 40
0.625
  9
$DIMJUST
 70
0
  9
$DIMSD1
 70
0
  9
$DIMSD2
 70
0
  9
$DIMTOLJ
 70
0
  9
$DIMTZIN
 70
8
  9
$DIMALTZ
 70
0
  9
$DIMALTTZ
 70
0
  9
$DIMUPT
 70
0
  9
$DIMDEC
 70
2
  9
$DIMTDEC
 70
2
  9
$DIMALTU
 70
2
  9
$DIMALTTD
 70
3
  9
$DIMTXSTY
  7
Standard
  9
$DIMAUNIT
 70
0
  9
$DIMADEC
 70
0
  9
$DIMALTRND
 40
0.0
  9
$DIMAZIN
 70
0
  9
$DIMDSEP
 70
44
  9
$DIMATFIT
 70
3
  9
$DIMFRAC
 70
0
  9
$DIMLDRBLK
  1

  9
$DIMLUNIT
 70
2
  9
$DIMLWD
 70
-2
  9
$DIMLWE
 70
-2
  9
$DIMTMOVE
 70
0
  9
$LUNITS
 70
2
  9
$LUPREC
 70
4
  9
$SKETCHINC
 40
1.0
  9
$FILLETRAD
 40
10.0
  9
$AUNITS
 70
0
  9
$AUPREC
 70
2
  9
$MENU
  1
.
  9
$ELEVATION
 40
0.0
  9
$PELEVATION
 40
0.0
  9
$THICKNESS
 40
0.0
  9
$LIMCHECK
 70
0
  9
$CHAMFERA
 40
0.0
  9
$CHAMFERB
 40
0.0
  9
$CHAMFERC
 40
0.0
  9
$CHAMFERD
 40
0.0
  9
$SKPOLY
 70
0
  9
$TDCREATE
 40
2461263.953923611
  9
$TDUCREATE
 40
2458532.153996898
  9
$TDUPDATE
 40
2461263.953923611
  9
$TDUUPDATE
 40
2458532.1544311
  9
$TDINDWG
 40
0.0
  9
$TDUSRTIMER
 40
0.0
  9
$USRTIMER
 70
1
  9
$ANGBASE
 50
0.0
  9
$ANGDIR
 70
0
  9
$PDMODE
 70
0
  9
$PDSIZE
 40
0.0
  9
$PLINEWID
 40
0.0
  9
$SPLFRAME
 70
0
  9
$SPLINETYPE
 70
6
  9
$SPLINESEGS
 70
8
  9
$HANDSEED
  5
25E
  9
$SURFTAB1
 70
6
  9
$SURFTAB2
 70
6
  9
$SURFTYPE
 70
6
  9
$SURFU
 70
6
  9
$SURFV
 70
6
  9
$UCSBASE
  2

  9
$UCSNAME
  2

  9
$UCSORG
 10
0.0
 20
0.0
 30
0.0
  9
$UCSXDIR
 10
1.0
 20
0.0
 30
0.0
  9
$UCSYDIR
 10
0.0
 20
1.0
 30
0.0
  9
$UCSORTHOREF
  2

  9
$UCSORTHOVIEW
 70
0
  9
$UCSORGTOP
 10
0.0
 20
0.0
 30
0.0
  9
$UCSORGBOTTOM
 10
0.0
 20
0.0
 30
0.0
  9
$UCSORGLEFT
 10
0.0
 20
0.0
 30
0.0
  9
$UCSORGRIGHT
 10
0.0
 20
0.0
 30
0.0
  9
$UCSORGFRONT
 10
0.0
 20
0.0
 30
0.0
  9
$UCSORGBACK
 10
0.0
 20
0.0
 30
0.0
  9
$PUCSBASE
  2

  9
$PUCSNAME
  2

  9
$PUCSORG
 10
0.0
 20
0.0
 30
0.0
  9
$PUCSXDIR
 10
1.0
 20
0.0
 30
0.0
  9
$PUCSYDIR
 10
0.0
 20
1.0
 30
0.0
  9
$PUCSORTHOREF
  2

  9
$PUCSORTHOVIEW
 70
0
  9
$PUCSORGTOP
 10
0.0
 20
0.0
 30
0.0
  9
$PUCSORGBOTTOM
 10
0.0
 20
0.0
 30
0.0
  9
$PUCSORGLEFT
 10
0.0
 20
0.0
 30
0.0
  9
$PUCSORGRIGHT
 10
0.0
 20
0.0
 30
0.0
  9
$PUCSORGFRONT
 10
0.0
 20
0.0
 30
0.0
  9
$PUCSORGBACK
 10
0.0
 20
0.0
 30
0.0
  9
$USERI1
 70
0
  9
$USERI2
 70
0
  9
$USERI3
 70
0
  9
$USERI4
 70
0
  9
$USERI5
 70
0
  9
$USERR1
 40
0.0
  9
$USERR2
 40
0.0
  9
$USERR3
 40
0.0
  9
$USERR4
 40
0.0
  9
$USERR5
 40
0.0
  9
$WORLDVIEW
 70
1
  9
$SHADEDGE
 70
3
  9
$SHADEDIF
 70
70
  9
$TILEMODE
 70
1
  9
$MAXACTVP
 70
64
  9
$PINSBASE
 10
0.0
 20
0.0
 30
0.0
  9
$PLIMCHECK
 70
0
  9
$PEXTMIN
 10
1e+20
 20
1e+20
 30
1e+20
  9
$PEXTMAX
 10
-1e+20
 20
-1e+20
 30
-1e+20
  9
$PLIMMIN
 10
0.0
 20
0.0
  9
$PLIMMAX
 10
420.0
 20
297.0
  9
$UNITMODE
 70
0
  9
$VISRETAIN
 70
1
  9
$PLINEGEN
 70
0
  9
$PSLTSCALE
 70
1
  9
$TREEDEPTH
 70
3020
  9
$CMLSTYLE
  2
Standard
  9
$CMLJUST
 70
0
  9
$CMLSCALE
 40
20.0
  9
$PROXYGRAPHICS
 70
1
  9
$MEASUREMENT
 70
1
  9
$CELWEIGHT
370
-1
  9
$ENDCAPS
280
0
  9
$JOINSTYLE
280
0
  9
$LWDISPLAY
290
0
  9
$INSUNITS
 70
4
  9
$HYPERLINKBASE
  1

  9
$STYLESHEET
  1

  9
$XEDIT
290
1
  9
$CEPSNTYPE
380
0
  9
$PSTYLEMODE
290
1
  9
$FINGERPRINTGUID
  2
{CFE3CBFC-70A5-4945-8F60-F4F0D84321E6}
  9
$VERSIONGUID
  2
{49735BCF-EE47-45CF-8807-FC5F5E7AA8C2}
  9
$EXTNAMES
290
1
  9
$PSVPSCALE
 40
0.0
  9
$OLESTARTUP
290
0
  0
ENDSEC
  0
SECTION
  2
CLASSES
  0
CLASS
  1
ACDBDICTIONARYWDFLT
  2
AcDbDictionaryWithDefault
  3
ObjectDBX Classes
 90
0
280
0
281
0
  0
CLASS
  1
SUN
  2
AcDbSun
  3
SCENEOE
 90
1153
280
0
281
0
  0
CLASS
  1
VISUALSTYLE
  2
AcDbVisualStyle
  3
ObjectDBX Classes
 90
4095
280
0
281
0
  0
CLASS
  1
MATERIAL
  2
AcDbMaterial
  3
ObjectDBX Classes
 90
1153
280
0
281
0
  0
CLASS
  1
SCALE
  2
AcDbScale
  3
ObjectDBX Classes
 90
1153
280
0
281
0
  0
CLASS
  1
TABLESTYLE
  2
AcDbTableStyle
  3
ObjectDBX Classes
 90
4095
280
0
281
0
  0
CLASS
  1
MLEADERSTYLE
  2
AcDbMLeaderStyle
  3
ACDB_MLEADERSTYLE_CLASS
 90
4095
280
0
281
0
  0
CLASS
  1
DICTIONARYVAR
  2
AcDbDictionaryVar
  3
ObjectDBX Classes
 90
0
280
0
281
0
  0
CLASS
  1
CELLSTYLEMAP
  2
AcDbCellStyleMap
  3
ObjectDBX Classes
 90
1152
280
0
281
0
  0
CLASS
  1
MENTALRAYRENDERSETTINGS
  2
AcDbMentalRayRenderSettings
  3
SCENEOE
 90
1024
280
0
281
0
  0
CLASS
  1
ACDBDETAILVIEWSTYLE
  2
AcDbDetailViewStyle
  3
ObjectDBX Classes
 90
1025
280
0
281
0
  0
CLASS
  1
ACDBSECTIONVIEWSTYLE
  2
AcDbSectionViewStyle
  3
ObjectDBX Classes
 90
1025
280
0
281
0
  0
CLASS
  1
RASTERVARIABLES
  2
AcDbRasterVariables
  3
ISM
 90
0
280
0
281
0
  0
CLASS
  1
ACDBPLACEHOLDER
  2
AcDbPlaceHolder
  3
ObjectDBX Classes
 90
0
280
0
281
0
  0
CLASS
  1
LAYOUT
  2
AcDbLayout
  3
ObjectDBX Classes
 90
0
280
0
281
0
  0
ENDSEC
  0
SECTION
  2
TABLES
  0
TABLE
  2
VPORT
  5
8
330
0
100
AcDbSymbolTable
 70
1
  0
VPORT
  5
23
330
8
100
AcDbSymbolTableRecord
100
AcDbViewportTableRecord
  2
*Active
 70
0
 10
0.0
 20
0.0
 11
1.0
 21
1.0
 12
0.0
 22
0.0
 13
0.0
 23
0.0
 14
0.5
 24
0.5
 15
0.5
 25
0.5
 16
0.0
 26
0.0
 36
1.0
 17
0.0
 27
0.0
 37
0.0
 40
1000.0
 41
1.34
 42
50.0
 43
0.0
 44
0.0
 50
0.0
 51
0.0
 71
0
 72
1000
 73
1
 74
3
 75
0
 76
0
 77
0
 78
0
281
0
 65
0
146
0.0
  0
ENDTAB
  0
TABLE
  2
LTYPE
  5
2
330
0
100
AcDbSymbolTable
 70
7
  0
LTYPE
  5
24
330
2
100
AcDbSymbolTableRecord
100
AcDbLinetypeTableRecord
  2
ByBlock
 70
0
  3

 72
65
 73
0
 40
0.0
  0
LTYPE
  5
25
330
2
100
AcDbSymbolTableRecord
100
AcDbLinetypeTableRecord
  2
ByLayer
 70
0
  3

 72
65
 73
0
 40
0.0
  0
LTYPE
  5
26
330
2
100
AcDbSymbolTableRecord
100
AcDbLinetypeTableRecord
  2
Continuous
 70
0
  3

 72
65
 73
0
 40
0.0
  0
LTYPE
  5
122
330
2
100
AcDbSymbolTableRecord
100
AcDbLinetypeTableRecord
  2
DASHDOT
 70
0
  3
__ . __ . __ . __ . __ . __ . __ . __ . __ . __
 72
65
 73
4
 40
1.0
 49
0.5
 74
0
 49
-0.25
 74
0
 49
0.0
 74
0
 49
-0.25
 74
0
  0
LTYPE
  5
13B
330
2
100
AcDbSymbolTableRecord
100
AcDbLinetypeTableRecord
  2
HIDDEN
 70
0
  3
Hidden __ __ __ __ __ __ __ __ __ __ __ __ __ __
 72
65
 73
2
 40
1.905
 49
1.27
 74
0
 49
-0.635
 74
0
  0
LTYPE
  5
13C
330
2
100
AcDbSymbolTableRecord
100
AcDbLinetypeTableRecord
  2
PHANTOM
 70
0
  3
Phantom ______  __  __  ______  __  __  ______
 72
65
 73
6
 40
12.7
 49
6.35
 74
0
 49
-1.27
 74
0
 49
1.27
 74
0
 49
-1.27
 74
0
 49
1.27
 74
0
 49
-1.27
 74
0
  0
LTYPE
  5
13D
330
2
100
AcDbSymbolTableRecord
100
AcDbLinetypeTableRecord
  2
CENTER
 70
0
  3
Center ____ _ ____ _ ____ _ ____ _ ____ _ ____
 72
65
 73
4
 40
10.16
 49
6.35
 74
0
 49
-1.27
 74
0
 49
1.27
 74
0
 49
-1.27
 74
0
  0
ENDTAB
  0
TABLE
  2
LAYER
  5
1
330
0
100
AcDbSymbolTable
 70
5
  0
LAYER
  5
27
330
1
100
AcDbSymbolTableRecord
100
AcDbLayerTableRecord
  2
0
 70
0
 62
7
  6
Continuous
370
-3
390
13
  0
LAYER
  5
28
330
1
100
AcDbSymbolTableRecord
100
AcDbLayerTableRecord
  2
Defpoints
 70
0
 62
7
  6
Continuous
290
0
370
-3
390
13
  0
LAYER
  5
11F
330
1
100
AcDbSymbolTableRecord
100
AcDbLayerTableRecord
  2
2
 70
0
 62
7
  6
CONTINUOUS
370
-3
390
30
  0
LAYER
  5
120
330
1
100
AcDbSymbolTableRecord
100
AcDbLayerTableRecord
  2
254
 70
0
 62
7
  6
CONTINUOUS
370
-3
390
30
  0
LAYER
  5
121
330
1
100
AcDbSymbolTableRecord
100
AcDbLayerTableRecord
  2
1
 70
0
 62
7
  6
CONTINUOUS
370
-3
390
30
  0
ENDTAB
  0
TABLE
  2
STYLE
  5
5
330
0
100
AcDbSymbolTable
 70
16
  0
STYLE
  5
29
330
5
100
AcDbSymbolTableRecord
100
AcDbTextStyleTableRecord
  2
Standard
 70
0
 40
0.0
 41
1.0
 50
0.0
 71
0
 42
2.5
  3
txt
  4

  0
STYLE
  5
123
330
5
100
AcDbSymbolTableRecord
100
AcDbTextStyleTableRecord
  2
GMM014
 70
0
 40
0.0
 41
0.82727272727273
 50
0.0
 71
0
 42
1.0
  3
txt.shx
  4
bigfont.shx
  0
STYLE
  5
124
330
5
100
AcDbSymbolTableRecord
100
AcDbTextStyleTableRecord
  2
GMM010
 70
0
 40
0.0
 41
0.7
 50
0.0
 71
0
 42
1.0
  3
txt.shx
  4
bigfont.shx
  0
STYLE
  5
125
330
5
100
AcDbSymbolTableRecord
100
AcDbTextStyleTableRecord
  2
GMM008
 70
0
 40
0.0
 41
0.8
 50
0.0
 71
0
 42
1.0
  3
txt.shx
  4
bigfont.shx
  0
STYLE
  5
126
330
5
100
AcDbSymbolTableRecord
100
AcDbTextStyleTableRecord
  2
GMM015
 70
0
 40
0.0
 41
0.41152263374486
 50
0.0
 71
0
 42
1.0
  3
txt.shx
  4
bigfont.shx
  0
STYLE
  5
127
330
5
100
AcDbSymbolTableRecord
100
AcDbTextStyleTableRecord
  2
GMM001
 70
0
 40
0.0
 41
1.0
 50
0.0
 71
0
 42
1.0
  3
txt.shx
  4
bigfont.shx
  0
STYLE
  5
128
330
5
100
AcDbSymbolTableRecord
100
AcDbTextStyleTableRecord
  2
GMM012
 70
0
 40
0.0
 41
1.0666666666667
 50
0.0
 71
0
 42
1.0
  3
txt.shx
  4
bigfont.shx
  0
STYLE
  5
129
330
5
100
AcDbSymbolTableRecord
100
AcDbTextStyleTableRecord
  2
GMM004
 70
0
 40
0.0
 41
0.66666666666667
 50
0.0
 71
0
 42
1.0
  3
txt.shx
  4
bigfont.shx
  0
STYLE
  5
12A
330
5
100
AcDbSymbolTableRecord
100
AcDbTextStyleTableRecord
  2
STANDARD1
 70
4
 40
0.0
 41
1.0
 50
0.0
 71
0
 42
0.2
  3
TXT
  4
BIGFONT
  0
STYLE
  5
12B
330
5
100
AcDbSymbolTableRecord
100
AcDbTextStyleTableRecord
  2
GMM007
 70
0
 40
0.0
 41
0.625
 50
0.0
 71
0
 42
1.0
  3
txt.shx
  4
bigfont.shx
  0
STYLE
  5
12C
330
5
100
AcDbSymbolTableRecord
100
AcDbTextStyleTableRecord
  2
GMM011
 70
0
 40
0.0
 41
0.95
 50
0.0
 71
0
 42
1.0
  3
txt.shx
  4
bigfont.shx
  0
STYLE
  5
12D
330
5
100
AcDbSymbolTableRecord
100
AcDbTextStyleTableRecord
  2
GMM003
 70
0
 40
0.0
 41
0.91125
 50
0.0
 71
0
 42
1.0
  3
txt.shx
  4
bigfont.shx
  0
STYLE
  5
12E
330
5
100
AcDbSymbolTableRecord
100
AcDbTextStyleTableRecord
  2
GMM009
 70
0
 40
0.0
 41
0.49382716049383
 50
0.0
 71
0
 42
1.0
  3
txt.shx
  4
bigfont.shx
  0
STYLE
  5
1B9
330
5
100
AcDbSymbolTableRecord
100
AcDbTextStyleTableRecord
  2
VF001
 70
0
 40
0.0
 41
0.548697
 50
0.0
 71
0
 42
2.5
  3
txt.shx
  4

  0
STYLE
  5
1BB
330
5
100
AcDbSymbolTableRecord
100
AcDbTextStyleTableRecord
  2
VF002
 70
0
 40
0.0
 41
0.428571
 50
0.0
 71
0
 42
2.5
  3
txt.shx
  4

  0
STYLE
  5
1C4
330
5
100
AcDbSymbolTableRecord
100
AcDbTextStyleTableRecord
  2
VF003
 70
0
 40
0.0
 41
0.75
 50
0.0
 71
0
 42
2.5
  3
txt.shx
  4

  0
ENDTAB
  0
TABLE
  2
VIEW
  5
7
330
0
100
AcDbSymbolTable
 70
0
  0
ENDTAB
  0
TABLE
  2
UCS
  5
6
330
0
100
AcDbSymbolTable
 70
0
  0
ENDTAB
  0
TABLE
  2
APPID
  5
3
330
0
100
AcDbSymbolTable
 70
3
  0
APPID
  5
2A
330
3
100
AcDbSymbolTableRecord
100
AcDbRegAppTableRecord
  2
ACAD
 70
0
  0
APPID
  5
12F
330
3
100
AcDbSymbolTableRecord
100
AcDbRegAppTableRecord
  2
HATCHBACKGROUNDCOLOR
 70
0
  0
APPID
  5
130
330
3
100
AcDbSymbolTableRecord
100
AcDbRegAppTableRecord
  2
EZDXF
 70
0
  0
ENDTAB
  0
TABLE
  2
DIMSTYLE
  5
4
330
0
100
AcDbSymbolTable
 70
11
100
AcDbDimStyleTable
  0
DIMSTYLE
105
2B
330
4
100
AcDbSymbolTableRecord
100
AcDbDimStyleTableRecord
  2
Standard
 70
0
  3

  4

 40
1.0
 41
2.5
 42
0.625
 43
3.75
 44
1.25
 45
0.0
 46
0.0
 47
0.0
 48
0.0
140
2.5
141
2.5
142
0.0
143
0.03937007874
144
1.0
145
0.0
146
1.0
147
0.625
148
0.0
 71
0
 72
0
 73
0
 74
0
 75
0
 76
0
 77
1
 78
8
 79
3
170
0
171
3
172
1
173
0
174
0
175
0
176
0
177
0
178
0
179
2
271
2
272
2
273
2
274
3
275
0
276
0
277
2
278
44
279
0
280
0
281
0
282
0
283
0
284
8
285
0
286
0
288
0
289
3
371
-2
372
-2
  0
DIMSTYLE
105
1CA
330
4
100
AcDbSymbolTableRecord
100
AcDbDimStyleTableRecord
  2
GEN001
 70
0
  3

  4

 40
1.0
 41
3.0
 42
1.0
 43
8.0
 44
2.0
 45
0.0
 46
0.0
 47
0.0
 48
0.0
140
4.0
141
1.0
142
0.0
143
0.03937007874
144
1.0
145
0.0
146
1.0
147
0.5
148
0.0
 71
0
 72
0
 73
0
 74
0
 75
0
 76
0
 77
3
 78
8
 79
3
170
0
171
3
172
1
173
1
174
0
175
0
176
3
177
3
178
7
179
2
271
2
272
2
273
2
274
3
275
0
276
0
277
2
278
46
279
0
280
0
281
0
282
0
283
0
284
8
285
0
286
0
288
0
289
3
340
1C4
343
1C5
344
1C5
371
-2
372
-2
  0
DIMSTYLE
105
1DA
330
4
100
AcDbSymbolTableRecord
100
AcDbDimStyleTableRecord
  2
GEN002
 70
0
  3

  4

 40
1.0
 41
3.0
 42
1.0
 43
8.0
 44
2.0
 45
0.0
 46
0.0
 47
0.0
 48
0.0
140
4.0
141
1.0
142
0.0
143
0.03937007874
144
1.0
145
0.0
146
1.0
147
0.5
148
0.0
 71
0
 72
0
 73
0
 74
0
 75
0
 76
0
 77
3
 78
8
 79
3
170
0
171
3
172
1
173
1
174
0
175
0
176
3
177
3
178
7
179
2
271
2
272
2
273
2
274
3
275
0
276
0
277
2
278
46
279
0
280
0
281
0
282
0
283
0
284
8
285
0
286
0
288
0
289
3
340
1C4
343
1C5
344
1C5
371
-2
372
-2
  0
DIMSTYLE
105
1EA
330
4
100
AcDbSymbolTableRecord
100
AcDbDimStyleTableRecord
  2
GEN003
 70
0
  3

  4

 40
1.0
 41
3.0
 42
1.0
 43
8.0
 44
2.0
 45
0.0
 46
0.0
 47
0.0
 48
0.0
140
4.0
141
1.0
142
0.0
143
0.03937007874
144
1.0
145
0.0
146
1.0
147
0.5
148
0.0
 71
0
 72
0
 73
0
 74
0
 75
0
 76
0
 77
3
 78
8
 79
3
170
0
171
3
172
1
173
1
174
0
175
0
176
3
177
3
178
7
179
2
271
2
272
2
273
2
274
3
275
0
276
0
277
2
278
46
279
0
280
0
281
0
282
0
283
0
284
8
285
0
286
0
288
0
289
3
340
1C4
343
1C5
344
1C5
371
-2
372
-2
  0
DIMSTYLE
105
1FA
330
4
100
AcDbSymbolTableRecord
100
AcDbDimStyleTableRecord
  2
GEN004
 70
0
  3

  4

 40
1.0
 41
3.0
 42
1.0
 43
8.0
 44
2.0
 45
0.0
 46
0.0
 47
0.0
 48
0.0
140
4.0
141
1.0
142
0.0
143
0.03937007874
144
1.0
145
0.0
146
1.0
147
0.5
148
0.0
 71
0
 72
0
 73
0
 74
0
 75
0
 76
0
 77
3
 78
8
 79
3
170
0
171
3
172
1
173
1
174
0
175
0
176
3
177
3
178
7
179
2
271
2
272
2
273
2
274
3
275
0
276
0
277
2
278
46
279
0
280
0
281
0
282
0
283
0
284
8
285
0
286
0
288
0
289
3
340
1C4
343
1C5
344
1C5
371
-2
372
-2
  0
DIMSTYLE
105
20A
330
4
100
AcDbSymbolTableRecord
100
AcDbDimStyleTableRecord
  2
GEN005
 70
0
  3

  4

 40
1.0
 41
3.0
 42
1.0
 43
8.0
 44
2.0
 45
0.0
 46
0.0
 47
0.0
 48
0.0
140
4.0
141
1.0
142
0.0
143
0.03937007874
144
1.0
145
0.0
146
1.0
147
0.5
148
0.0
 71
0
 72
0
 73
0
 74
0
 75
0
 76
0
 77
3
 78
8
 79
3
170
0
171
3
172
1
173
1
174
0
175
0
176
3
177
3
178
7
179
2
271
2
272
2
273
2
274
3
275
0
276
0
277
2
278
46
279
0
280
0
281
0
282
0
283
0
284
8
285
0
286
0
288
0
289
3
340
1C4
343
1C5
344
1C5
371
-2
372
-2
  0
DIMSTYLE
105
21A
330
4
100
AcDbSymbolTableRecord
100
AcDbDimStyleTableRecord
  2
GEN006
 70
0
  3
%%c<>
  4

 40
1.0
 41
3.0
 42
1.0
 43
8.0
 44
2.0
 45
0.0
 46
0.0
 47
0.0
 48
0.0
140
4.0
141
1.0
142
0.0
143
0.03937007874
144
1.0
145
0.0
146
1.0
147
0.5
148
0.0
 71
0
 72
0
 73
0
 74
0
 75
0
 76
0
 77
3
 78
8
 79
3
170
0
171
3
172
1
173
1
174
0
175
0
176
3
177
3
178
7
179
2
271
2
272
2
273
2
274
3
275
0
276
0
277
2
278
46
279
0
280
0
281
0
282
0
283
0
284
8
285
0
286
0
288
0
289
3
340
1C4
343
1C5
344
1C5
371
-2
372
-2
  0
DIMSTYLE
105
22A
330
4
100
AcDbSymbolTableRecord
100
AcDbDimStyleTableRecord
  2
GEN007
 70
0
  3
%%c<>
  4

 40
1.0
 41
3.0
 42
1.0
 43
8.0
 44
2.0
 45
0.0
 46
0.0
 47
0.0
 48
0.021
140
4.0
141
1.0
142
0.0
143
0.03937007874
144
1.0
145
0.0
146
0.625
147
0.5
148
0.0
 71
1
 72
0
 73
0
 74
0
 75
0
 76
0
 77
3
 78
8
 79
3
170
0
171
3
172
1
173
1
174
0
175
0
176
3
177
3
178
7
179
2
271
2
272
3
273
2
274
3
275
0
276
0
277
2
278
46
279
0
280
0
281
0
282
0
283
1
284
8
285
0
286
0
288
0
289
3
340
1C4
343
1C5
344
1C5
371
-2
372
-2
  0
DIMSTYLE
105
23A
330
4
100
AcDbSymbolTableRecord
100
AcDbDimStyleTableRecord
  2
GEN008
 70
0
  3
%%c<>
  4

 40
1.0
 41
3.0
 42
1.0
 43
8.0
 44
2.0
 45
0.0
 46
0.0
 47
0.0
 48
0.0
140
4.0
141
1.0
142
0.0
143
0.03937007874
144
1.0
145
0.0
146
1.0
147
0.5
148
0.0
 71
0
 72
0
 73
0
 74
0
 75
0
 76
0
 77
3
 78
8
 79
3
170
0
171
3
172
1
173
1
174
0
175
0
176
3
177
3
178
7
179
2
271
2
272
2
273
2
274
3
275
0
276
0
277
2
278
46
279
0
280
0
281
0
282
0
283
0
284
8
285
0
286
0
288
0
289
3
340
1C4
343
1C5
344
1C5
371
-2
372
-2
  0
DIMSTYLE
105
24A
330
4
100
AcDbSymbolTableRecord
100
AcDbDimStyleTableRecord
  2
GEN009
 70
0
  3

  4

 40
1.0
 41
3.0
 42
1.0
 43
8.0
 44
2.0
 45
0.0
 46
0.0
 47
0.0
 48
0.0
140
4.0
141
1.0
142
0.0
143
0.03937007874
144
1.0
145
0.0
146
1.0
147
0.5
148
0.0
 71
0
 72
0
 73
0
 74
0
 75
0
 76
0
 77
3
 78
8
 79
3
170
0
171
3
172
1
173
1
174
0
175
0
176
3
177
3
178
7
179
2
271
2
272
2
273
2
274
3
275
0
276
0
277
2
278
46
279
0
280
0
281
0
282
0
283
0
284
8
285
0
286
0
288
0
289
3
340
1C4
343
1C5
344
1C5
371
-2
372
-2
  0
DIMSTYLE
105
25A
330
4
100
AcDbSymbolTableRecord
100
AcDbDimStyleTableRecord
  2
GENLDR
 70
0
  3

  4

 40
1.0
 41
3.0
 42
1.0
 43
8.0
 44
2.0
 45
0.0
 46
0.0
 47
0.0
 48
0.0
140
4.0
141
1.0
142
0.0
143
0.03937007874
144
1.0
145
0.0
146
1.0
147
0.5
148
0.0
 71
0
 72
0
 73
0
 74
0
 75
0
 76
0
 77
3
 78
8
 79
3
170
0
171
3
172
1
173
1
174
0
175
0
176
3
177
3
178
7
179
2
271
2
272
2
273
2
274
3
275
0
276
0
277
2
278
46
279
0
280
0
281
0
282
0
283
0
284
8
285
0
286
0
288
0
289
3
340
1C4
343
1C5
344
1C5
371
-2
372
-2
  0
ENDTAB
  0
TABLE
  2
BLOCK_RECORD
  5
9
330
0
100
AcDbSymbolTable
 70
17
  0
BLOCK_RECORD
  5
17
330
9
100
AcDbSymbolTableRecord
100
AcDbBlockTableRecord
  2
*Model_Space
340
1A
  0
BLOCK_RECORD
  5
1B
330
9
100
AcDbSymbolTableRecord
100
AcDbBlockTableRecord
  2
*Paper_Space
340
1E
  0
BLOCK_RECORD
  5
C8
330
9
100
AcDbSymbolTableRecord
100
AcDbBlockTableRecord
  2
BLOCK004
340
0
  0
BLOCK_RECORD
  5
D6
330
9
100
AcDbSymbolTableRecord
100
AcDbBlockTableRecord
  2
BLOCK005
340
0
  0
BLOCK_RECORD
  5
111
330
9
100
AcDbSymbolTableRecord
100
AcDbBlockTableRecord
  2
BLOCK006
340
0
  0
BLOCK_RECORD
  5
118
330
9
100
AcDbSymbolTableRecord
100
AcDbBlockTableRecord
  2
BLOCK007
340
0
  0
BLOCK_RECORD
  5
1A8
330
9
100
AcDbSymbolTableRecord
100
AcDbBlockTableRecord
  2
SW_CENTERMARKSYMBOL_0
340
0
  0
BLOCK_RECORD
  5
1C5
330
9
100
AcDbSymbolTableRecord
100
AcDbBlockTableRecord
  2
_OPEN30
340
0
  0
BLOCK_RECORD
  5
1CC
330
9
100
AcDbSymbolTableRecord
100
AcDbBlockTableRecord
  2
*D1
340
0
  0
BLOCK_RECORD
  5
1DC
330
9
100
AcDbSymbolTableRecord
100
AcDbBlockTableRecord
  2
*D2
340
0
  0
BLOCK_RECORD
  5
1EC
330
9
100
AcDbSymbolTableRecord
100
AcDbBlockTableRecord
  2
*D3
340
0
  0
BLOCK_RECORD
  5
1FC
330
9
100
AcDbSymbolTableRecord
100
AcDbBlockTableRecord
  2
*D4
340
0
  0
BLOCK_RECORD
  5
20C
330
9
100
AcDbSymbolTableRecord
100
AcDbBlockTableRecord
  2
*D5
340
0
  0
BLOCK_RECORD
  5
21C
330
9
100
AcDbSymbolTableRecord
100
AcDbBlockTableRecord
  2
*D6
340
0
  0
BLOCK_RECORD
  5
22C
330
9
100
AcDbSymbolTableRecord
100
AcDbBlockTableRecord
  2
*D7
340
0
  0
BLOCK_RECORD
  5
23C
330
9
100
AcDbSymbolTableRecord
100
AcDbBlockTableRecord
  2
*D8
340
0
  0
BLOCK_RECORD
  5
24C
330
9
100
AcDbSymbolTableRecord
100
AcDbBlockTableRecord
  2
*D9
340
0
  0
ENDTAB
  0
ENDSEC
  0
SECTION
  2
BLOCKS
  0
BLOCK
  5
18
330
17
100
AcDbEntity
  8
0
100
AcDbBlockBegin
  2
*Model_Space
 70
0
 10
0.0
 20
0.0
 30
0.0
  3
*Model_Space
  1

  0
ENDBLK
  5
19
330
17
100
AcDbEntity
  8
0
100
AcDbBlockEnd
  0
BLOCK
  5
1C
330
1B
100
AcDbEntity
  8
0
100
AcDbBlockBegin
  2
*Paper_Space
 70
0
 10
0.0
 20
0.0
 30
0.0
  3
*Paper_Space
  1

  0
ENDBLK
  5
1D
330
1B
100
AcDbEntity
  8
0
100
AcDbBlockEnd
  0
BLOCK
  5
C9
330
C8
100
AcDbEntity
  8
0
100
AcDbBlockBegin
  2
BLOCK004
 70
64
 10
0.0
 20
0.0
 30
0.0
  3
BLOCK004
  1

  0
CIRCLE
  5
CB
330
C8
100
AcDbEntity
  8
2
  6
CONTINUOUS
 62
7
370
20
100
AcDbCircle
 10
170.52102818258
 20
10.197623906063
 30
0.0
 40
2.1782975474943
  0
CIRCLE
  5
CC
330
C8
100
AcDbEntity
  8
2
  6
CONTINUOUS
 62
7
370
20
100
AcDbCircle
 10
170.52102818258
 20
10.197623906063
 30
0.0
 40
1.43691326178
  0
LWPOLYLINE
  5
CD
330
C8
100
AcDbEntity
  8
2
  6
CONTINUOUS
 62
7
370
20
100
AcDbPolyline
 90
4
 70
1
 10
175.06221618808
 20
11.634537167843
 10
180.26350009482
 20
12.375921453557
 10
180.26350009482
 20
8.0193263585682
 10
175.06221618808
 20
8.7607106442827
  0
LINE
  5
CE
330
C8
100
AcDbEntity
  8
2
  6
CONTINUOUS
 62
7
370
20
100
AcDbLine
 10
168.03987259152
 20
10.197623906063
 30
0.0
 11
170.80115164912
 21
10.197623906063
 31
0.0
  0
LINE
  5
CF
330
C8
100
AcDbEntity
  8
2
  6
CONTINUOUS
 62
7
370
20
100
AcDbLine
 10
171.25447468719
 20
10.197623906063
 30
0.0
 11
172.20027039241
 21
10.197623906063
 31
0.0
  0
LINE
  5
D0
330
C8
100
AcDbEntity
  8
2
  6
CONTINUOUS
 62
7
370
20
100
AcDbLine
 10
177.29615748089
 20
10.197623906063
 30
0.0
 11
178.2468966452
 21
10.197623906063
 31
0.0
  0
LINE
  5
D1
330
C8
100
AcDbEntity
  8
2
  6
CONTINUOUS
 62
7
370
20
100
AcDbLine
 10
172.99280424365
 20
10.197623906063
 30
0.0
 11
176.67551000266
 21
10.197623906063
 31
0.0
  0
LINE
  5
D2
330
C8
100
AcDbEntity
  8
2
  6
CONTINUOUS
 62
7
370
20
100
AcDbLine
 10
178.91739616362
 20
10.197623906063
 30
0.0
 11
181.17172699337
 21
10.197623906063
 31
0.0
  0
LINE
  5
D3
330
C8
100
AcDbEntity
  8
2
  6
CONTINUOUS
 62
7
370
20
100
AcDbLine
 10
170.52102818258
 20
10.450588115875
 30
0.0
 11
170.52102818258
 21
7.6687870559977
 31
0.0
  0
LINE
  5
D4
330
C8
100
AcDbEntity
  8
2
  6
CONTINUOUS
 62
7
370
20
100
AcDbLine
 10
170.52102818258
 20
11.879149095869
 30
0.0
 11
170.52102818258
 21
10.974485114891
 31
0.0
  0
LINE
  5
D5
330
C8
100
AcDbEntity
  8
2
  6
CONTINUOUS
 62
7
370
20
100
AcDbLine
 10
170.52102818258
 20
12.751764531148
 30
0.0
 11
170.52102818258
 21
12.118986673823
 31
0.0
  0
ENDBLK
  5
CA
330
C8
100
AcDbEntity
  8
0
100
AcDbBlockEnd
  0
BLOCK
  5
D7
330
D6
100
AcDbEntity
  8
0
100
AcDbBlockBegin
  2
BLOCK005
 70
64
 10
0.0
 20
0.0
 30
0.0
  3
BLOCK005
  1

  0
MTEXT
  5
D9
330
D6
100
AcDbEntity
  8
254
 62
7
370
20
100
AcDbMText
 10
149.40450574984
 20
18.703608255046
 30
0.0
 40
2.3113364687439
 41
0.0
 71
1
  1
{\T1.000000;ÇPÇOÇOÇOÅ`}\P{\T1.000000;ÇQÇOÇOÇO}
  7
GMM010
 44
0.79999984000003
  0
MTEXT
  5
DA
330
D6
100
AcDbEntity
  8
254
 62
7
370
20
100
AcDbMText
 10
140.98345281688
 20
18.703608255046
 30
0.0
 40
2.3113364687439
 41
0.0
 71
1
  1
{\T1.000000;ÇSÇOÇOÅ`}\P{\T1.000000;ÇPÇOÇOÇO}
  7
GMM010
 44
0.79999984000003
  0
MTEXT
  5
DB
330
D6
100
AcDbEntity
  8
254
 62
7
370
20
100
AcDbMText
 10
132.43154947819
 20
18.703608255046
 30
0.0
 40
2.3113364687439
 41
0.0
 71
1
  1
{\T1.000000;ÇPÇQÇOÅ`}\P{\T1.000000;ÇSÇOÇO}
  7
GMM010
 44
0.79999984000003
  0
MTEXT
  5
DC
330
D6
100
AcDbEntity
  8
254
 62
7
370
20
100
AcDbMText
 10
124.12265403585
 20
18.703608255046
 30
0.0
 40
2.3113364687439
 41
0.0
 71
1
  1
{\T1.000000;ÇRÇOÅ@Å`}\P{\T1.000000;ÇPÇQÇO}
  7
GMM010
 44
0.79999984000003
  0
MTEXT
  5
DD
330
D6
100
AcDbEntity
  8
254
 62
7
370
20
100
AcDbMText
 10
115.58944361226
 20
18.703608255046
 30
0.0
 40
2.3113364687439
 41
0.0
 71
1
  1
{\T1.000000;ÇUÅ@Å`}\P{\T1.000000;ÇRÇO}
  7
GMM010
 44
0.79999984000003
  0
MTEXT
  5
DE
330
D6
100
AcDbEntity
  8
254
 62
7
370
20
100
AcDbMText
 10
107.24316233971
 20
18.703608255046
 30
0.0
 40
2.3113364687439
 41
0.0
 71
1
  1
{\T1.000000;ÇRÅ@Å`}\P{\T1.000000;ÇU}
  7
GMM010
 44
0.79999984000003
  0
LINE
  5
DF
330
D6
100
AcDbEntity
  8
2
  6
CONTINUOUS
 62
3
370
9
100
AcDbLine
 10
96.972262552243
 20
20.550214344458
 30
0.0
 11
166.43737735483
 21
20.550214344458
 31
0.0
  0
LINE
  5
E0
330
D6
100
AcDbEntity
  8
2
  6
CONTINUOUS
 62
3
370
9
100
AcDbLine
 10
96.972262552243
 20
13.84845139869
 30
0.0
 11
106.70490438971
 21
13.84845139869
 31
0.0
  0
LINE
  5
E1
330
D6
100
AcDbEntity
  8
2
  6
CONTINUOUS
 62
3
370
9
100
AcDbLine
 10
106.70490438971
 20
13.84845139869
 30
0.0
 11
115.2381148133
 21
13.84845139869
 31
0.0
  0
LINE
  5
E2
330
D6
100
AcDbEntity
  8
2
  6
CONTINUOUS
 62
3
370
9
100
AcDbLine
 10
115.2381148133
 20
13.84845139869
 30
0.0
 11
123.77132523688
 21
13.84845139869
 31
0.0
  0
LINE
  5
E3
330
D6
100
AcDbEntity
  8
2
  6
CONTINUOUS
 62
3
370
9
100
AcDbLine
 10
123.77132523688
 20
13.84845139869
 30
0.0
 11
132.30453566047
 21
13.84845139869
 31
0.0
  0
LINE
  5
E4
330
D6
100
AcDbEntity
  8
2
  6
CONTINUOUS
 62
3
370
9
100
AcDbLine
 10
132.30453566047
 20
13.84845139869
 30
0.0
 11
140.83774608406
 21
13.84845139869
 31
0.0
  0
LINE
  5
E5
330
D6
100
AcDbEntity
  8
2
  6
CONTINUOUS
 62
3
370
9
100
AcDbLine
 10
140.83774608406
 20
13.84845139869
 30
0.0
 11
149.37095650765
 21
13.84845139869
 31
0.0
  0
LINE
  5
E6
330
D6
100
AcDbEntity
  8
2
  6
CONTINUOUS
 62
3
370
9
100
AcDbLine
 10
149.37095650765
 20
13.84845139869
 30
0.0
 11
157.90416693124
 21
13.84845139869
 31
0.0
  0
LINE
  5
E7
330
D6
100
AcDbEntity
  8
2
  6
CONTINUOUS
 62
3
370
9
100
AcDbLine
 10
157.90416693124
 20
13.84845139869
 30
0.0
 11
166.43737735483
 21
13.84845139869
 31
0.0
  0
MTEXT
  5
E8
330
D6
100
AcDbEntity
  8
254
 62
7
370
20
100
AcDbMText
 10
101.75381223092
 20
18.703608255046
 30
0.0
 40
2.3113364687439
 41
0.0
 71
2
  1
{\T1.000000;Å†Çí¥Ç¶}\P{\T1.000000;Å†à»â∫}
  7
GMM011
 44
0.79999984000003
  0
MTEXT
  5
E9
330
D6
100
AcDbEntity
  8
254
 62
7
370
20
100
AcDbMText
 10
157.87528390182
 20
18.703608255046
 30
0.0
 40
2.3113364687439
 41
0.0
 71
1
  1
{\T1.000000;ÇQÇOÇOÇOÅ`}\P{\T1.000000;ÇSÇOÇOÇO}
  7
GMM010
 44
0.79999984000003
  0
LINE
  5
EA
330
D6
100
AcDbEntity
  8
2
  6
CONTINUOUS
 62
3
370
9
100
AcDbLine
 10
157.90416693124
 20
9.424225699345
 30
0.0
 11
166.43737735483
 21
9.424225699345
 31
0.0
  0
LINE
  5
EB
330
D6
100
AcDbEntity
  8
2
  6
CONTINUOUS
 62
3
370
9
100
AcDbLine
 10
149.37095650765
 20
9.424225699345
 30
0.0
 11
157.90416693124
 21
9.424225699345
 31
0.0
  0
LINE
  5
EC
330
D6
100
AcDbEntity
  8
2
  6
CONTINUOUS
 62
3
370
9
100
AcDbLine
 10
140.83774608406
 20
9.424225699345
 30
0.0
 11
149.37095650765
 21
9.424225699345
 31
0.0
  0
LINE
  5
ED
330
D6
100
AcDbEntity
  8
2
  6
CONTINUOUS
 62
3
370
9
100
AcDbLine
 10
132.30453566047
 20
9.424225699345
 30
0.0
 11
140.83774608406
 21
9.424225699345
 31
0.0
  0
LINE
  5
EE
330
D6
100
AcDbEntity
  8
2
  6
CONTINUOUS
 62
3
370
9
100
AcDbLine
 10
123.77132523688
 20
9.424225699345
 30
0.0
 11
132.30453566047
 21
9.424225699345
 31
0.0
  0
LINE
  5
EF
330
D6
100
AcDbEntity
  8
2
  6
CONTINUOUS
 62
3
370
9
100
AcDbLine
 10
115.2381148133
 20
9.424225699345
 30
0.0
 11
123.77132523688
 21
9.424225699345
 31
0.0
  0
LINE
  5
F0
330
D6
100
AcDbEntity
  8
2
  6
CONTINUOUS
 62
3
370
9
100
AcDbLine
 10
106.70490438971
 20
9.424225699345
 30
0.0
 11
115.2381148133
 21
9.424225699345
 31
0.0
  0
LINE
  5
F1
330
D6
100
AcDbEntity
  8
2
  6
CONTINUOUS
 62
3
370
9
100
AcDbLine
 10
96.972262552243
 20
9.424225699345
 30
0.0
 11
106.70490438971
 21
9.424225699345
 31
0.0
  0
LINE
  5
F2
330
D6
100
AcDbEntity
  8
2
  6
CONTINUOUS
 62
3
370
9
100
AcDbLine
 10
106.70490438971
 20
20.550214344458
 30
0.0
 11
106.70490438971
 21
4.9999999999998
 31
0.0
  0
LINE
  5
F3
330
D6
100
AcDbEntity
  8
2
  6
CONTINUOUS
 62
3
370
9
100
AcDbLine
 10
115.2381148133
 20
20.550214344458
 30
0.0
 11
115.2381148133
 21
4.9999999999998
 31
0.0
  0
LINE
  5
F4
330
D6
100
AcDbEntity
  8
2
  6
CONTINUOUS
 62
3
370
9
100
AcDbLine
 10
123.77132523688
 20
20.550214344458
 30
0.0
 11
123.77132523688
 21
4.9999999999998
 31
0.0
  0
LINE
  5
F5
330
D6
100
AcDbEntity
  8
2
  6
CONTINUOUS
 62
3
370
9
100
AcDbLine
 10
132.30453566047
 20
20.550214344458
 30
0.0
 11
132.30453566047
 21
4.9999999999998
 31
0.0
  0
LINE
  5
F6
330
D6
100
AcDbEntity
  8
2
  6
CONTINUOUS
 62
3
370
9
100
AcDbLine
 10
140.83774608406
 20
20.550214344458
 30
0.0
 11
140.83774608406
 21
4.9999999999998
 31
0.0
  0
LINE
  5
F7
330
D6
100
AcDbEntity
  8
2
  6
CONTINUOUS
 62
3
370
9
100
AcDbLine
 10
149.37095650765
 20
20.550214344458
 30
0.0
 11
149.37095650765
 21
4.9999999999998
 31
0.0
  0
LINE
  5
F8
330
D6
100
AcDbEntity
  8
2
  6
CONTINUOUS
 62
3
370
9
100
AcDbLine
 10
157.90416693124
 20
20.550214344458
 30
0.0
 11
157.90416693124
 21
4.9999999999998
 31
0.0
  0
MTEXT
  5
F9
330
D6
100
AcDbEntity
  8
254
 62
7
370
20
100
AcDbMText
 10
110.66396580379
 20
7.3356081976647
 30
0.0
 40
2.3113364687439
 41
0.0
 71
5
  1
%%p\T1.000000;ÇP
  7
GMM010
 44
0.79999984000003
  0
MTEXT
  5
FA
330
D6
100
AcDbEntity
  8
254
 62
7
370
20
100
AcDbMText
 10
119.19717622738
 20
7.3356081976647
 30
0.0
 40
2.3113364687439
 41
0.0
 71
5
  1
%%p\T1.000000;ÇP
  7
GMM010
 44
0.79999984000003
  0
MTEXT
  5
FB
330
D6
100
AcDbEntity
  8
254
 62
7
370
20
100
AcDbMText
 10
127.73038665097
 20
7.3356081976647
 30
0.0
 40
2.3113364687439
 41
0.0
 71
5
  1
%%p\T1.000000;ÇPÅDÇT
  7
GMM010
 44
0.79999984000003
  0
MTEXT
  5
FC
330
D6
100
AcDbEntity
  8
254
 62
7
370
20
100
AcDbMText
 10
136.26359707456
 20
7.3356081976647
 30
0.0
 40
2.3113364687439
 41
0.0
 71
5
  1
%%p\T1.000000;ÇQ
  7
GMM010
 44
0.79999984000003
  0
MTEXT
  5
FD
330
D6
100
AcDbEntity
  8
254
 62
7
370
20
100
AcDbMText
 10
144.79680749815
 20
7.3356081976647
 30
0.0
 40
2.3113364687439
 41
0.0
 71
5
  1
%%p\T1.000000;ÇQÅDÇT
  7
GMM010
 44
0.79999984000003
  0
MTEXT
  5
FE
330
D6
100
AcDbEntity
  8
254
 62
7
370
20
100
AcDbMText
 10
153.33001792174
 20
7.3356081976647
 30
0.0
 40
2.3113364687439
 41
0.0
 71
5
  1
%%p\T1.000000;ÇR
  7
GMM010
 44
0.79999984000003
  0
MTEXT
  5
FF
330
D6
100
AcDbEntity
  8
254
 62
7
370
20
100
AcDbMText
 10
161.12785112996
 20
7.3356081976647
 30
0.0
 40
2.3113364687439
 41
0.0
 71
5
  1
%%p\T1.000000;ÇS
  7
GMM010
 44
0.79999984000003
  0
MTEXT
  5
100
330
D6
100
AcDbEntity
  8
254
 62
7
370
20
100
AcDbMText
 10
110.51442248296
 20
11.634920373638
 30
0.0
 40
2.3113364687439
 41
0.0
 71
5
  1
%%p\T1.000000;ÇOÅDÇP
  7
GMM010
 44
0.79999984000003
  0
MTEXT
  5
101
330
D6
100
AcDbEntity
  8
254
 62
7
370
20
100
AcDbMText
 10
119.04763290655
 20
11.634920373638
 30
0.0
 40
2.3113364687439
 41
0.0
 71
5
  1
%%p\T1.000000;ÇOÅDÇQ
  7
GMM010
 44
0.79999984000003
  0
MTEXT
  5
102
330
D6
100
AcDbEntity
  8
254
 62
7
370
20
100
AcDbMText
 10
127.58084333014
 20
11.634920373638
 30
0.0
 40
2.3113364687439
 41
0.0
 71
5
  1
%%p\T1.000000;ÇOÅDÇR
  7
GMM010
 44
0.79999984000003
  0
MTEXT
  5
103
330
D6
100
AcDbEntity
  8
254
 62
7
370
20
100
AcDbMText
 10
136.11405375372
 20
11.634920373638
 30
0.0
 40
2.3113364687439
 41
0.0
 71
5
  1
%%p\T1.000000;ÇOÅDÇT
  7
GMM010
 44
0.79999984000003
  0
MTEXT
  5
104
330
D6
100
AcDbEntity
  8
254
 62
7
370
20
100
AcDbMText
 10
144.64726417731
 20
11.634920373638
 30
0.0
 40
2.3113364687439
 41
0.0
 71
5
  1
%%p\T1.000000;ÇOÅDÇW
  7
GMM010
 44
0.79999984000003
  0
MTEXT
  5
105
330
D6
100
AcDbEntity
  8
254
 62
7
370
20
100
AcDbMText
 10
153.1804746009
 20
11.634920373638
 30
0.0
 40
2.3113364687439
 41
0.0
 71
5
  1
%%p\T1.000000;ÇPÅDÇQ
  7
GMM010
 44
0.79999984000003
  0
MTEXT
  5
106
330
D6
100
AcDbEntity
  8
254
 62
7
370
20
100
AcDbMText
 10
160.97830780913
 20
11.634920373638
 30
0.0
 40
2.3113364687439
 41
0.0
 71
5
  1
%%p\T1.000000;ÇQ
  7
GMM010
 44
0.79999984000003
  0
MTEXT
  5
107
330
D6
100
AcDbEntity
  8
254
 62
7
370
20
100
AcDbMText
 10
99.896982663893
 20
11.634920373638
 30
0.0
 40
2.5424701156183
 41
0.0
 71
5
  1
\T1.000000;ã@äB
  7
GMM001
 44
0.79999984000003
  0
MTEXT
  5
108
330
D6
100
AcDbEntity
  8
254
 62
7
370
20
100
AcDbMText
 10
99.896982663893
 20
7.3356081976647
 30
0.0
 40
2.5424701156183
 41
0.0
 71
5
  1
\T1.000000;êªä 
  7
GMM001
 44
0.79999984000003
  0
MTEXT
  5
109
330
D6
100
AcDbEntity
  8
254
 62
7
370
20
100
AcDbMText
 10
104.68236893058
 20
11.335833731969
 30
0.0
 40
1.7335023515579
 41
0.0
 71
5
  1
\T1.000000;â¡çH
  7
GMM012
 44
0.79999984000003
  0
MTEXT
  5
10A
330
D6
100
AcDbEntity
  8
254
 62
7
370
20
100
AcDbMText
 10
104.68236893058
 20
6.9116080326244
 30
0.0
 40
1.7335023515579
 41
0.0
 71
5
  1
\T1.000000;â¡çH
  7
GMM012
 44
0.79999984000003
  0
LINE
  5
10B
330
D6
100
AcDbEntity
  8
2
  6
CONTINUOUS
 62
3
370
9
100
AcDbLine
 10
92.759851837957
 20
24.469731335988
 30
0.0
 11
166.43737735483
 21
24.469731335988
 31
0.0
  0
TEXT
  5
10C
330
D6
100
AcDbEntity
  8
254
 62
3
370
9
100
AcDbText
 10
94.70298091284
 20
24.260906217143
 30
0.0
 40
2.3113364687439
  1
àÍî ê°ñ@åˆç∑
  7
STANDARD1
 41
1.0935
100
AcDbText
  0
LINE
  5
10D
330
D6
100
AcDbEntity
  8
254
  6
CONTINUOUS
 62
3
370
9
100
AcDbLine
 10
96.972262552243
 20
4.9999999999998
 30
0.0
 11
96.972262552243
 21
24.469731335988
 31
0.0
  0
MTEXT
  5
10E
330
D6
100
AcDbEntity
  8
254
 62
7
370
20
100
AcDbMText
 10
97.619100225429
 20
22.588396985111
 30
0.0
 40
2.3113364687439
 41
0.0
 71
4
  1
\W0.950000;\T1.000000;ÇiÇhÇr\W0.475000;\T1.000000; \W0.950000;\T1.000000;Ça\W0.475000;\T1.000000; \W0.950000;\T1.000000;ÇOÇSÇOÇTÅ|ÇçÅiíÜãâÅjíPà \W0.475000;\T1.000000;:\W0.950000;\T1.000000;ÇçÇç
  7
GMM011
 44
0.79999984000003
  0
MTEXT
  5
10F
330
D6
100
AcDbEntity
  8
254
 62
3
370
9
100
AcDbMText
 10
93.394501411866
 20
26.559319493178
 30
0.0
 40
2.5424701156183
 41
0.0
 71
4
  1
\T1.000000;ì¡ãLÇ»Ç´äpÇÕéÖñ éÊÇËÅAã˜ÇÕÇqÇOÅDÇTà»â∫ÅAçaâ¡çHÇÃíÍÇqÇÕÇqÇPÅDÇTà»â∫
  7
GMM014
 44
0.79999984000003
  0
LWPOLYLINE
  5
110
330
D6
100
AcDbEntity
  8
2
  6
CONTINUOUS
 62
1
370
15
100
AcDbPolyline
 90
4
 70
1
 10
92.759851837957
 20
4.9999999999998
 10
166.43737735483
 20
4.9999999999998
 10
166.43737735483
 20
28.5895
 10
92.759851837957
 20
28.5895
  0
ENDBLK
  5
D8
330
D6
100
AcDbEntity
  8
0
100
AcDbBlockEnd
  0
BLOCK
  5
112
330
111
100
AcDbEntity
  8
0
100
AcDbBlockBegin
  2
BLOCK006
 70
64
 10
0.0
 20
0.0
 30
0.0
  3
BLOCK006
  1

  0
LINE
  5
114
330
111
100
AcDbEntity
  8
254
  6
CONTINUOUS
 62
1
370
15
100
AcDbLine
 10
11.33285798981
 20
12.029538831528
 30
0.0
 11
6.7003419901737
 21
12.029538831528
 31
0.0
  0
LINE
  5
115
330
111
100
AcDbEntity
  8
254
  6
CONTINUOUS
 62
1
370
15
100
AcDbLine
 10
9.0165999899916
 20
15.967177431219
 30
0.0
 11
11.33285798981
 21
12.029538831528
 31
0.0
  0
LINE
  5
116
330
111
100
AcDbEntity
  8
254
  6
CONTINUOUS
 62
1
370
15
100
AcDbLine
 10
9.0165999899916
 20
15.967177431219
 30
0.0
 11
6.7003419901737
 21
12.029538831528
 31
0.0
  0
MTEXT
  5
117
330
111
100
AcDbEntity
  8
254
 62
7
370
20
100
AcDbMText
 10
9.0165999899916
 20
13.392043537304
 30
0.0
 40
2.8433772321429
 41
0.0
 71
5
  1
\T1.000000;ÇP
  7
GMM001
 44
0.79999984000003
  0
ENDBLK
  5
113
330
111
100
AcDbEntity
  8
0
100
AcDbBlockEnd
  0
BLOCK
  5
119
330
118
100
AcDbEntity
  8
0
100
AcDbBlockBegin
  2
BLOCK007
 70
64
 10
0.0
 20
0.0
 30
0.0
  3
BLOCK007
  1

  0
LINE
  5
11B
330
118
100
AcDbEntity
  8
254
  6
CONTINUOUS
 62
1
370
15
100
AcDbLine
 10
11.33285798981
 20
17.926913831528
 30
0.0
 11
6.7003419901737
 21
17.926913831528
 31
0.0
  0
LINE
  5
11C
330
118
100
AcDbEntity
  8
254
  6
CONTINUOUS
 62
1
370
15
100
AcDbLine
 10
9.0165999899916
 20
21.864552431219
 30
0.0
 11
11.33285798981
 21
17.926913831528
 31
0.0
  0
LINE
  5
11D
330
118
100
AcDbEntity
  8
254
  6
CONTINUOUS
 62
1
370
15
100
AcDbLine
 10
9.0165999899916
 20
21.864552431219
 30
0.0
 11
6.7003419901737
 21
17.926913831528
 31
0.0
  0
MTEXT
  5
11E
330
118
100
AcDbEntity
  8
254
 62
7
370
20
100
AcDbMText
 10
9.0165999899916
 20
19.289418537303
 30
0.0
 40
2.8433772321429
 41
0.0
 71
5
  1
\T1.000000;ÇQ
  7
GMM001
 44
0.79999984000003
  0
ENDBLK
  5
11A
330
118
100
AcDbEntity
  8
0
100
AcDbBlockEnd
  0
BLOCK
  5
1A9
330
1A8
100
AcDbEntity
  8
0
100
AcDbBlockBegin
  2
SW_CENTERMARKSYMBOL_0
 70
0
 10
0.0
 20
0.0
 30
0.0
  3
SW_CENTERMARKSYMBOL_0
  1

  0
LINE
  5
1AB
330
1A8
100
AcDbEntity
  8
0
  6
Continuous
 62
0
370
18
100
AcDbLine
 10
0.0
 20
0.0
 30
0.0
 11
0.0
 21
2.5
 31
0.0
  0
LINE
  5
1AC
330
1A8
100
AcDbEntity
  8
0
  6
Continuous
 62
0
370
18
100
AcDbLine
 10
0.0
 20
0.0
 30
0.0
 11
-2.5
 21
0.0
 31
0.0
  0
LINE
  5
1AD
330
1A8
100
AcDbEntity
  8
0
  6
Continuous
 62
0
370
18
100
AcDbLine
 10
0.0
 20
0.0
 30
0.0
 11
0.0
 21
-2.5
 31
0.0
  0
LINE
  5
1AE
330
1A8
100
AcDbEntity
  8
0
  6
Continuous
 62
0
370
18
100
AcDbLine
 10
0.0
 20
0.0
 30
0.0
 11
2.5
 21
0.0
 31
0.0
  0
LINE
  5
1AF
330
1A8
100
AcDbEntity
  8
0
  6
Continuous
 62
0
370
18
100
AcDbLine
 10
0.0
 20
5.0
 30
0.0
 11
0.0
 21
17.5
 31
0.0
  0
LINE
  5
1B0
330
1A8
100
AcDbEntity
  8
0
  6
Continuous
 62
0
370
18
100
AcDbLine
 10
-5.0
 20
0.0
 30
0.0
 11
-17.5
 21
0.0
 31
0.0
  0
LINE
  5
1B1
330
1A8
100
AcDbEntity
  8
0
  6
Continuous
 62
0
370
18
100
AcDbLine
 10
0.0
 20
-5.0
 30
0.0
 11
0.0
 21
-17.5
 31
0.0
  0
LINE
  5
1B2
330
1A8
100
AcDbEntity
  8
0
  6
Continuous
 62
0
370
18
100
AcDbLine
 10
5.0
 20
0.0
 30
0.0
 11
17.5
 21
0.0
 31
0.0
  0
ENDBLK
  5
1AA
330
1A8
100
AcDbEntity
  8
0
100
AcDbBlockEnd
  0
BLOCK
  5
1C6
330
1C5
100
AcDbEntity
  8
0
100
AcDbBlockBegin
  2
_OPEN30
 70
0
 10
0.0
 20
0.0
 30
0.0
  3
_OPEN30
  1

  0
LWPOLYLINE
  5
1C8
330
1C5
100
AcDbEntity
  8
0
  6
BYBLOCK
 62
0
100
AcDbPolyline
 90
3
 70
0
 10
-1.0
 20
0.25881904510252074
 10
0.0
 20
0.0
 10
-1.0
 20
-0.25881904510252074
  0
LINE
  5
1C9
330
1C5
100
AcDbEntity
  8
0
  6
BYBLOCK
 62
0
100
AcDbLine
 10
0.0
 20
0.0
 30
0.0
 11
-1.0
 21
0.0
 31
0.0
  0
ENDBLK
  5
1C7
330
1C5
100
AcDbEntity
  8
0
100
AcDbBlockEnd
  0
BLOCK
  5
1CD
330
1CC
100
AcDbEntity
  8
0
100
AcDbBlockBegin
  2
*D1
 70
1
 10
0.0
 20
0.0
 30
0.0
  3
*D1
  1

  0
LINE
  5
1CF
330
1CC
100
AcDbEntity
  8
0
 62
3
100
AcDbLine
 10
125.31623381592647
 20
132.70886880250063
 30
0.0
 11
125.31623381592647
 21
152.20886880250004
 31
0.0
  0
LINE
  5
1D0
330
1CC
100
AcDbEntity
  8
0
 62
3
100
AcDbLine
 10
130.31623381592647
 20
135.20886880250063
 30
0.0
 11
130.31623381592647
 21
152.20886880250004
 31
0.0
  0
INSERT
  5
1D1
330
1CC
100
AcDbEntity
  8
1
 62
3
100
AcDbBlockReference
  2
_OPEN30
 10
125.31623381592647
 20
150.20886880250004
 30
0.0
 41
3.0
 42
3.0
  0
INSERT
  5
1D3
330
1CC
100
AcDbEntity
  8
1
 62
3
100
AcDbBlockReference
  2
_OPEN30
 10
130.31623381592647
 20
150.20886880250004
 30
0.0
 41
3.0
 42
3.0
 50
180.0
  0
LINE
  5
1D5
330
1CC
100
AcDbEntity
  8
0
 62
3
100
AcDbLine
 10
125.31623381592647
 20
150.20886880250004
 30
0.0
 11
130.31623381592647
 21
150.20886880250004
 31
0.0
  0
MTEXT
  5
1D6
330
1CC
100
AcDbEntity
  8
1
 62
7
100
AcDbMText
 10
127.81623381592647
 20
152.70886880250004
 30
0.0
 40
4.0
 71
5
  1
5
  7
VF003
  0
POINT
  5
1D7
330
1CC
100
AcDbEntity
  8
Defpoints
100
AcDbPoint
 10
125.31623381592647
 20
150.20886880250004
 30
0.0
  0
POINT
  5
1D8
330
1CC
100
AcDbEntity
  8
Defpoints
100
AcDbPoint
 10
125.31623381592647
 20
131.70886880250063
 30
0.0
  0
POINT
  5
1D9
330
1CC
100
AcDbEntity
  8
Defpoints
100
AcDbPoint
 10
130.31623381592647
 20
134.20886880250063
 30
0.0
  0
ENDBLK
  5
1CE
330
1CC
100
AcDbEntity
  8
0
100
AcDbBlockEnd
  0
BLOCK
  5
1DD
330
1DC
100
AcDbEntity
  8
0
100
AcDbBlockBegin
  2
*D2
 70
1
 10
0.0
 20
0.0
 30
0.0
  3
*D2
  1

  0
LINE
  5
1DF
330
1DC
100
AcDbEntity
  8
0
 62
3
100
AcDbLine
 10
193.31623381592647
 20
128.33290720710065
 30
0.0
 11
193.31623381592647
 21
152.20886880250004
 31
0.0
  0
LINE
  5
1E0
330
1DC
100
AcDbEntity
  8
0
 62
3
100
AcDbLine
 10
203.31623381592647
 20
131.70886880250063
 30
0.0
 11
203.31623381592647
 21
152.20886880250004
 31
0.0
  0
INSERT
  5
1E1
330
1DC
100
AcDbEntity
  8
1
 62
3
100
AcDbBlockReference
  2
_OPEN30
 10
193.31623381592647
 20
150.20886880250004
 30
0.0
 41
3.0
 42
3.0
 50
180.0
  0
INSERT
  5
1E3
330
1DC
100
AcDbEntity
  8
1
 62
3
100
AcDbBlockReference
  2
_OPEN30
 10
203.31623381592647
 20
150.20886880250004
 30
0.0
 41
3.0
 42
3.0
  0
LINE
  5
1E5
330
1DC
100
AcDbEntity
  8
0
 62
3
100
AcDbLine
 10
196.31623381592647
 20
150.20886880250004
 30
0.0
 11
200.31623381592647
 21
150.20886880250004
 31
0.0
  0
MTEXT
  5
1E6
330
1DC
100
AcDbEntity
  8
1
 62
7
100
AcDbMText
 10
198.31623381592647
 20
152.70886880250004
 30
0.0
 40
4.0
 71
5
  1
10
  7
VF003
  0
POINT
  5
1E7
330
1DC
100
AcDbEntity
  8
Defpoints
100
AcDbPoint
 10
193.31623381592647
 20
150.20886880250004
 30
0.0
  0
POINT
  5
1E8
330
1DC
100
AcDbEntity
  8
Defpoints
100
AcDbPoint
 10
193.31623381592647
 20
127.33290720710065
 30
0.0
  0
POINT
  5
1E9
330
1DC
100
AcDbEntity
  8
Defpoints
100
AcDbPoint
 10
203.31623381592647
 20
130.70886880250063
 30
0.0
  0
ENDBLK
  5
1DE
330
1DC
100
AcDbEntity
  8
0
100
AcDbBlockEnd
  0
BLOCK
  5
1ED
330
1EC
100
AcDbEntity
  8
0
100
AcDbBlockBegin
  2
*D3
 70
1
 10
0.0
 20
0.0
 30
0.0
  3
*D3
  1

  0
LINE
  5
1EF
330
1EC
100
AcDbEntity
  8
0
 62
3
100
AcDbLine
 10
125.31623381592647
 20
132.70886880250063
 30
0.0
 11
125.31623381592647
 21
160.20886880250004
 31
0.0
  0
LINE
  5
1F0
330
1EC
100
AcDbEntity
  8
0
 62
3
100
AcDbLine
 10
153.31623381592647
 20
135.20886880250063
 30
0.0
 11
153.31623381592647
 21
160.20886880250004
 31
0.0
  0
INSERT
  5
1F1
330
1EC
100
AcDbEntity
  8
1
 62
3
100
AcDbBlockReference
  2
_OPEN30
 10
125.31623381592647
 20
158.20886880250004
 30
0.0
 41
3.0
 42
3.0
 50
180.0
  0
INSERT
  5
1F3
330
1EC
100
AcDbEntity
  8
1
 62
3
100
AcDbBlockReference
  2
_OPEN30
 10
153.31623381592647
 20
158.20886880250004
 30
0.0
 41
3.0
 42
3.0
  0
LINE
  5
1F5
330
1EC
100
AcDbEntity
  8
0
 62
3
100
AcDbLine
 10
128.31623381592647
 20
158.20886880250004
 30
0.0
 11
150.31623381592647
 21
158.20886880250004
 31
0.0
  0
MTEXT
  5
1F6
330
1EC
100
AcDbEntity
  8
1
 62
7
100
AcDbMText
 10
139.31623381592647
 20
160.70886880250004
 30
0.0
 40
4.0
 71
5
  1
28
  7
VF003
  0
POINT
  5
1F7
330
1EC
100
AcDbEntity
  8
Defpoints
100
AcDbPoint
 10
125.31623381592647
 20
158.20886880250004
 30
0.0
  0
POINT
  5
1F8
330
1EC
100
AcDbEntity
  8
Defpoints
100
AcDbPoint
 10
125.31623381592647
 20
131.70886880250063
 30
0.0
  0
POINT
  5
1F9
330
1EC
100
AcDbEntity
  8
Defpoints
100
AcDbPoint
 10
153.31623381592647
 20
134.20886880250063
 30
0.0
  0
ENDBLK
  5
1EE
330
1EC
100
AcDbEntity
  8
0
100
AcDbBlockEnd
  0
BLOCK
  5
1FD
330
1FC
100
AcDbEntity
  8
0
100
AcDbBlockBegin
  2
*D4
 70
1
 10
0.0
 20
0.0
 30
0.0
  3
*D4
  1

  0
LINE
  5
1FF
330
1FC
100
AcDbEntity
  8
0
 62
3
100
AcDbLine
 10
153.31623381592647
 20
135.20886880250063
 30
0.0
 11
153.31623381592647
 21
160.20886880250004
 31
0.0
  0
LINE
  5
200
330
1FC
100
AcDbEntity
  8
0
 62
3
100
AcDbLine
 10
203.31623381592647
 20
131.70886880250063
 30
0.0
 11
203.31623381592647
 21
160.20886880250004
 31
0.0
  0
INSERT
  5
201
330
1FC
100
AcDbEntity
  8
1
 62
3
100
AcDbBlockReference
  2
_OPEN30
 10
153.31623381592647
 20
158.20886880250004
 30
0.0
 41
3.0
 42
3.0
 50
180.0
  0
INSERT
  5
203
330
1FC
100
AcDbEntity
  8
1
 62
3
100
AcDbBlockReference
  2
_OPEN30
 10
203.31623381592647
 20
158.20886880250004
 30
0.0
 41
3.0
 42
3.0
  0
LINE
  5
205
330
1FC
100
AcDbEntity
  8
0
 62
3
100
AcDbLine
 10
156.31623381592647
 20
158.20886880250004
 30
0.0
 11
200.31623381592647
 21
158.20886880250004
 31
0.0
  0
MTEXT
  5
206
330
1FC
100
AcDbEntity
  8
1
 62
7
100
AcDbMText
 10
178.31623381592647
 20
160.70886880250004
 30
0.0
 40
4.0
 71
5
  1
50
  7
VF003
  0
POINT
  5
207
330
1FC
100
AcDbEntity
  8
Defpoints
100
AcDbPoint
 10
153.31623381592647
 20
158.20886880250004
 30
0.0
  0
POINT
  5
208
330
1FC
100
AcDbEntity
  8
Defpoints
100
AcDbPoint
 10
153.31623381592647
 20
134.20886880250063
 30
0.0
  0
POINT
  5
209
330
1FC
100
AcDbEntity
  8
Defpoints
100
AcDbPoint
 10
203.31623381592647
 20
130.70886880250063
 30
0.0
  0
ENDBLK
  5
1FE
330
1FC
100
AcDbEntity
  8
0
100
AcDbBlockEnd
  0
BLOCK
  5
20D
330
20C
100
AcDbEntity
  8
0
100
AcDbBlockBegin
  2
*D5
 70
1
 10
0.0
 20
0.0
 30
0.0
  3
*D5
  1

  0
LINE
  5
20F
330
20C
100
AcDbEntity
  8
0
 62
3
100
AcDbLine
 10
125.31623381592647
 20
105.70886880250063
 30
0.0
 11
125.31623381592647
 21
86.20886880250004
 31
0.0
  0
LINE
  5
210
330
20C
100
AcDbEntity
  8
0
 62
3
100
AcDbLine
 10
203.31623381592647
 20
106.70886880250063
 30
0.0
 11
203.31623381592647
 21
86.20886880250004
 31
0.0
  0
INSERT
  5
211
330
20C
100
AcDbEntity
  8
1
 62
3
100
AcDbBlockReference
  2
_OPEN30
 10
125.31623381592647
 20
88.20886880250004
 30
0.0
 41
3.0
 42
3.0
 50
180.0
  0
INSERT
  5
213
330
20C
100
AcDbEntity
  8
1
 62
3
100
AcDbBlockReference
  2
_OPEN30
 10
203.31623381592647
 20
88.20886880250004
 30
0.0
 41
3.0
 42
3.0
  0
LINE
  5
215
330
20C
100
AcDbEntity
  8
0
 62
3
100
AcDbLine
 10
128.31623381592647
 20
88.20886880250004
 30
0.0
 11
200.31623381592647
 21
88.20886880250004
 31
0.0
  0
MTEXT
  5
216
330
20C
100
AcDbEntity
  8
1
 62
7
100
AcDbMText
 10
164.31623381592647
 20
90.70886880250004
 30
0.0
 40
4.0
 71
5
  1
78
  7
VF003
  0
POINT
  5
217
330
20C
100
AcDbEntity
  8
Defpoints
100
AcDbPoint
 10
125.31623381592647
 20
88.20886880250004
 30
0.0
  0
POINT
  5
218
330
20C
100
AcDbEntity
  8
Defpoints
100
AcDbPoint
 10
125.31623381592647
 20
106.70886880250063
 30
0.0
  0
POINT
  5
219
330
20C
100
AcDbEntity
  8
Defpoints
100
AcDbPoint
 10
203.31623381592647
 20
107.70886880250063
 30
0.0
  0
ENDBLK
  5
20E
330
20C
100
AcDbEntity
  8
0
100
AcDbBlockEnd
  0
BLOCK
  5
21D
330
21C
100
AcDbEntity
  8
0
100
AcDbBlockBegin
  2
*D6
 70
1
 10
0.0
 20
0.0
 30
0.0
  3
*D6
  1

  0
LINE
  5
21F
330
21C
100
AcDbEntity
  8
0
 62
3
100
AcDbLine
 10
124.31623381592647
 20
106.70886880250063
 30
0.0
 11
107.31623381589998
 21
106.70886880250063
 31
0.0
  0
LINE
  5
220
330
21C
100
AcDbEntity
  8
0
 62
3
100
AcDbLine
 10
124.31623381592647
 20
131.70886880250063
 30
0.0
 11
107.31623381589998
 21
131.70886880250063
 31
0.0
  0
INSERT
  5
221
330
21C
100
AcDbEntity
  8
1
 62
3
100
AcDbBlockReference
  2
_OPEN30
 10
109.31623381589998
 20
106.70886880250063
 30
0.0
 41
3.0
 42
3.0
 50
270.0
  0
INSERT
  5
223
330
21C
100
AcDbEntity
  8
1
 62
3
100
AcDbBlockReference
  2
_OPEN30
 10
109.31623381589998
 20
131.70886880250063
 30
0.0
 41
3.0
 42
3.0
 50
90.0
  0
LINE
  5
225
330
21C
100
AcDbEntity
  8
0
 62
3
100
AcDbLine
 10
109.31623381589998
 20
109.70886880250063
 30
0.0
 11
109.31623381589998
 21
128.70886880250063
 31
0.0
  0
MTEXT
  5
226
330
21C
100
AcDbEntity
  8
1
 62
7
100
AcDbMText
 10
106.81623381589998
 20
119.20886880250063
 30
0.0
 40
4.0
 71
5
  1
%%c25
  7
VF003
 50
90.0
  0
POINT
  5
227
330
21C
100
AcDbEntity
  8
Defpoints
100
AcDbPoint
 10
109.31623381589998
 20
106.70886880250063
 30
0.0
  0
POINT
  5
228
330
21C
100
AcDbEntity
  8
Defpoints
100
AcDbPoint
 10
125.31623381592647
 20
106.70886880250063
 30
0.0
  0
POINT
  5
229
330
21C
100
AcDbEntity
  8
Defpoints
100
AcDbPoint
 10
125.31623381592647
 20
131.70886880250063
 30
0.0
  0
ENDBLK
  5
21E
330
21C
100
AcDbEntity
  8
0
100
AcDbBlockEnd
  0
BLOCK
  5
22D
330
22C
100
AcDbEntity
  8
0
100
AcDbBlockBegin
  2
*D7
 70
1
 10
0.0
 20
0.0
 30
0.0
  3
*D7
  1

  0
LINE
  5
22F
330
22C
100
AcDbEntity
  8
0
 62
3
100
AcDbLine
 10
129.31623381592647
 20
104.20886880250063
 30
0.0
 11
99.31623381589998
 21
104.20886880250063
 31
0.0
  0
LINE
  5
230
330
22C
100
AcDbEntity
  8
0
 62
3
100
AcDbLine
 10
129.31623381592647
 20
134.20886880250063
 30
0.0
 11
99.31623381589998
 21
134.20886880250063
 31
0.0
  0
INSERT
  5
231
330
22C
100
AcDbEntity
  8
1
 62
3
100
AcDbBlockReference
  2
_OPEN30
 10
101.31623381589998
 20
104.20886880250063
 30
0.0
 41
3.0
 42
3.0
 50
270.0
  0
INSERT
  5
233
330
22C
100
AcDbEntity
  8
1
 62
3
100
AcDbBlockReference
  2
_OPEN30
 10
101.31623381589998
 20
134.20886880250063
 30
0.0
 41
3.0
 42
3.0
 50
90.0
  0
LINE
  5
235
330
22C
100
AcDbEntity
  8
0
 62
3
100
AcDbLine
 10
101.31623381589998
 20
107.20886880250063
 30
0.0
 11
101.31623381589998
 21
131.20886880250063
 31
0.0
  0
MTEXT
  5
236
330
22C
100
AcDbEntity
  8
1
 62
7
100
AcDbMText
 10
98.81623381589998
 20
119.20886880250063
 30
0.0
 40
4.0
 71
5
  1
\A1;%%c30{\H0.625x;\S 0^ -0.021;}
  7
VF003
 50
90.0
  0
POINT
  5
237
330
22C
100
AcDbEntity
  8
Defpoints
100
AcDbPoint
 10
101.31623381589998
 20
104.20886880250063
 30
0.0
  0
POINT
  5
238
330
22C
100
AcDbEntity
  8
Defpoints
100
AcDbPoint
 10
130.31623381592647
 20
104.20886880250063
 30
0.0
  0
POINT
  5
239
330
22C
100
AcDbEntity
  8
Defpoints
100
AcDbPoint
 10
130.31623381592647
 20
134.20886880250063
 30
0.0
  0
ENDBLK
  5
22E
330
22C
100
AcDbEntity
  8
0
100
AcDbBlockEnd
  0
BLOCK
  5
23D
330
23C
100
AcDbEntity
  8
0
100
AcDbBlockBegin
  2
*D8
 70
1
 10
0.0
 20
0.0
 30
0.0
  3
*D8
  1

  0
LINE
  5
23F
330
23C
100
AcDbEntity
  8
0
 62
3
100
AcDbLine
 10
203.31623381592647
 20
106.70886880250063
 30
0.0
 11
221.31623381592652
 21
106.70886880250063
 31
0.0
  0
LINE
  5
240
330
23C
100
AcDbEntity
  8
0
 62
3
100
AcDbLine
 10
203.31623381592647
 20
131.70886880250063
 30
0.0
 11
221.31623381592652
 21
131.70886880250063
 31
0.0
  0
INSERT
  5
241
330
23C
100
AcDbEntity
  8
1
 62
3
100
AcDbBlockReference
  2
_OPEN30
 10
219.31623381592652
 20
106.70886880250063
 30
0.0
 41
3.0
 42
3.0
 50
270.0
  0
INSERT
  5
243
330
23C
100
AcDbEntity
  8
1
 62
3
100
AcDbBlockReference
  2
_OPEN30
 10
219.31623381592652
 20
131.70886880250063
 30
0.0
 41
3.0
 42
3.0
 50
90.0
  0
LINE
  5
245
330
23C
100
AcDbEntity
  8
0
 62
3
100
AcDbLine
 10
219.31623381592652
 20
109.70886880250063
 30
0.0
 11
219.31623381592652
 21
128.70886880250063
 31
0.0
  0
MTEXT
  5
246
330
23C
100
AcDbEntity
  8
1
 62
7
100
AcDbMText
 10
216.81623381592652
 20
119.20886880250063
 30
0.0
 40
4.0
 71
5
  1
%%c25
  7
VF003
 50
90.0
  0
POINT
  5
247
330
23C
100
AcDbEntity
  8
Defpoints
100
AcDbPoint
 10
219.31623381592652
 20
106.70886880250063
 30
0.0
  0
POINT
  5
248
330
23C
100
AcDbEntity
  8
Defpoints
100
AcDbPoint
 10
202.31623381592647
 20
106.70886880250063
 30
0.0
  0
POINT
  5
249
330
23C
100
AcDbEntity
  8
Defpoints
100
AcDbPoint
 10
202.31623381592647
 20
131.70886880250063
 30
0.0
  0
ENDBLK
  5
23E
330
23C
100
AcDbEntity
  8
0
100
AcDbBlockEnd
  0
BLOCK
  5
24D
330
24C
100
AcDbEntity
  8
0
100
AcDbBlockBegin
  2
*D9
 70
1
 10
0.0
 20
0.0
 30
0.0
  3
*D9
  1

  0
LINE
  5
24F
330
24C
100
AcDbEntity
  8
0
 62
3
100
AcDbLine
 10
246.9999999999999
 20
124.68960950090064
 30
0.0
 11
246.9999999999999
 21
86.20886880250004
 31
0.0
  0
LINE
  5
250
330
24C
100
AcDbEntity
  8
0
 62
3
100
AcDbLine
 10
265.9999999999999
 20
124.68960950090064
 30
0.0
 11
265.9999999999999
 21
86.20886880250004
 31
0.0
  0
INSERT
  5
251
330
24C
100
AcDbEntity
  8
1
 62
3
100
AcDbBlockReference
  2
_OPEN30
 10
246.9999999999999
 20
88.20886880250004
 30
0.0
 41
3.0
 42
3.0
 50
180.0
  0
INSERT
  5
253
330
24C
100
AcDbEntity
  8
1
 62
3
100
AcDbBlockReference
  2
_OPEN30
 10
265.9999999999999
 20
88.20886880250004
 30
0.0
 41
3.0
 42
3.0
  0
LINE
  5
255
330
24C
100
AcDbEntity
  8
0
 62
3
100
AcDbLine
 10
249.9999999999999
 20
88.20886880250004
 30
0.0
 11
262.9999999999999
 21
88.20886880250004
 31
0.0
  0
MTEXT
  5
256
330
24C
100
AcDbEntity
  8
1
 62
7
100
AcDbMText
 10
256.4999999999999
 20
90.70886880250004
 30
0.0
 40
4.0
 71
5
  1
19
  7
VF003
  0
POINT
  5
257
330
24C
100
AcDbEntity
  8
Defpoints
100
AcDbPoint
 10
246.9999999999999
 20
88.20886880250004
 30
0.0
  0
POINT
  5
258
330
24C
100
AcDbEntity
  8
Defpoints
100
AcDbPoint
 10
246.9999999999999
 20
125.68960950090064
 30
0.0
  0
POINT
  5
259
330
24C
100
AcDbEntity
  8
Defpoints
100
AcDbPoint
 10
265.9999999999999
 20
125.68960950090064
 30
0.0
  0
ENDBLK
  5
24E
330
24C
100
AcDbEntity
  8
0
100
AcDbBlockEnd
  0
ENDSEC
  0
SECTION
  2
ENTITIES
  0
LWPOLYLINE
  5
31
330
17
100
AcDbEntity
  8
1
  6
CONTINUOUS
 62
7
370
20
100
AcDbPolyline
 90
4
 70
1
 10
5.0
 20
292.0
 10
5.0
 20
5.0
 10
415.0
 20
5.0
 10
415.0
 20
292.0
  0
LINE
  5
32
330
17
100
AcDbEntity
  8
254
  6
CONTINUOUS
 62
3
370
9
100
AcDbLine
 10
325.18000713133
 20
4.9999999999998
 30
0.0
 11
325.18000713133
 21
18.122
 31
0.0
  0
LINE
  5
33
330
17
100
AcDbEntity
  8
254
  6
CONTINUOUS
 62
3
370
9
100
AcDbLine
 10
325.18000713133
 20
18.122
 30
0.0
 11
415.0
 21
18.122
 31
0.0
  0
MTEXT
  5
34
330
17
100
AcDbEntity
  8
254
 62
3
370
9
100
AcDbMText
 10
354.47071050214
 20
20.913826357749
 30
0.0
 40
2.916
 41
0.0
 71
5
  1
\T1.500000;ïîïiñºÅiå^éÆÅj
  7
GMM001
 44
0.79999984000003
  0
MTEXT
  5
35
330
17
100
AcDbEntity
  8
254
 62
3
370
9
100
AcDbMText
 10
384.36838887415
 20
20.913826357749
 30
0.0
 40
2.916
 41
0.0
 71
5
  1
\T1.000000;ÉÅÅ[ÉJÅ[
  7
GMM001
 44
0.79999984000003
  0
MTEXT
  5
36
330
17
100
AcDbEntity
  8
254
 62
3
370
9
100
AcDbMText
 10
406.97447618747
 20
20.913826357749
 30
0.0
 40
2.916
 41
0.0
 71
5
  1
\T1.000000;îıçl
  7
GMM001
 44
0.79999984000003
  0
LINE
  5
37
330
17
100
AcDbEntity
  8
254
  6
CONTINUOUS
 62
3
370
9
100
AcDbLine
 10
325.18000713133
 20
23.5895
 30
0.0
 11
415.0
 21
23.5895
 31
0.0
  0
LINE
  5
38
330
17
100
AcDbEntity
  8
254
  6
CONTINUOUS
 62
3
370
9
100
AcDbLine
 10
398.08000713133
 20
18.122
 30
0.0
 11
398.08000713133
 21
23.5895
 31
0.0
  0
LINE
  5
39
330
17
100
AcDbEntity
  8
254
  6
CONTINUOUS
 62
3
370
9
100
AcDbLine
 10
391.51900713133
 20
18.122
 30
0.0
 11
391.51900713133
 21
23.5895
 31
0.0
  0
LINE
  5
3A
330
17
100
AcDbEntity
  8
254
  6
CONTINUOUS
 62
3
370
9
100
AcDbLine
 10
376.21000713133
 20
18.122
 30
0.0
 11
376.21000713133
 21
23.5895
 31
0.0
  0
LINE
  5
3B
330
17
100
AcDbEntity
  8
254
  6
CONTINUOUS
 62
3
370
9
100
AcDbLine
 10
332.47000713133
 20
18.122
 30
0.0
 11
332.47000713133
 21
23.5895
 31
0.0
  0
LINE
  5
3C
330
17
100
AcDbEntity
  8
254
  6
CONTINUOUS
 62
3
370
9
100
AcDbLine
 10
325.18000713133
 20
18.122
 30
0.0
 11
325.18000713133
 21
23.5895
 31
0.0
  0
MTEXT
  5
3D
330
17
100
AcDbEntity
  8
254
 62
3
370
9
100
AcDbMText
 10
325.91897077517
 20
19.561222878301
 30
0.0
 40
2.916
 41
0.0
 71
7
  1
\T1.000000;ïiî‘
  7
GMM001
 44
0.79999984000003
  0
MTEXT
  5
3E
330
17
100
AcDbEntity
  8
254
 62
7
370
20
100
AcDbMText
 10
360.49798976328
 20
11.631430728461
 30
0.0
 40
5.5662694627463
 41
0.0
 71
4
  1
\T1.000000;ÉâÉCÉìÉèÅ|ÉNÉX
  7
GMM001
 44
0.79999984000003
  0
MTEXT
  5
3F
330
17
100
AcDbEntity
  8
254
 62
7
370
20
100
AcDbMText
 10
352.94784324569
 20
12.052597702861
 30
0.0
 40
3.3397616776478
 41
0.0
 71
4
  1
{\T1.000000;äîéÆ}\P{\T1.000000;âÔé–}
  7
GMM001
 44
0.79999984000003
  0
LINE
  5
40
330
17
100
AcDbEntity
  8
254
  6
CONTINUOUS
 62
3
370
9
100
AcDbLine
 10
398.08000713133
 20
23.5895
 30
0.0
 11
398.08000713133
 21
28.5895
 31
0.0
  0
LINE
  5
41
330
17
100
AcDbEntity
  8
254
  6
CONTINUOUS
 62
3
370
9
100
AcDbLine
 10
391.51900713133
 20
23.5895
 30
0.0
 11
391.51900713133
 21
28.5895
 31
0.0
  0
LINE
  5
42
330
17
100
AcDbEntity
  8
254
  6
CONTINUOUS
 62
3
370
9
100
AcDbLine
 10
376.21000713133
 20
23.5895
 30
0.0
 11
376.21000713133
 21
28.5895
 31
0.0
  0
LINE
  5
43
330
17
100
AcDbEntity
  8
254
  6
CONTINUOUS
 62
3
370
9
100
AcDbLine
 10
332.47000713133
 20
23.5895
 30
0.0
 11
332.47000713133
 21
28.5895
 31
0.0
  0
LINE
  5
44
330
17
100
AcDbEntity
  8
254
  6
CONTINUOUS
 62
3
370
9
100
AcDbLine
 10
325.18000713133
 20
23.5895
 30
0.0
 11
325.18000713133
 21
28.5895
 31
0.0
  0
MTEXT
  5
45
330
17
100
AcDbEntity
  8
254
 62
3
370
9
100
AcDbMText
 10
391.83137173292
 20
19.561222878301
 30
0.0
 40
2.916
 41
0.0
 71
7
  1
\T1.000000;å¬êî
  7
GMM001
 44
0.79999984000003
  0
LINE
  5
46
330
17
100
AcDbEntity
  8
1
  6
CONTINUOUS
 62
3
370
9
100
AcDbLine
 10
325.18000713133
 20
25.412
 30
0.0
 11
325.18000713133
 21
4.9999999999998
 31
0.0
  0
MTEXT
  5
47
330
17
100
AcDbEntity
  8
254
 62
3
370
9
100
AcDbMText
 10
319.11745461417
 20
13.591878580434
 30
0.0
 40
2.5274464285714
 41
0.0
 71
7
  1
\T1.000000;REV
  7
GMM004
 44
0.79999984000003
  0
MTEXT
  5
48
330
17
100
AcDbEntity
  8
254
 62
3
370
9
100
AcDbMText
 10
319.11745461417
 20
25.457656387089
 30
0.0
 40
2.5274464285714
 41
0.0
 71
7
  1
\T1.000000;REV
  7
GMM004
 44
0.79999984000003
  0
LINE
  5
49
330
17
100
AcDbEntity
  8
254
  6
CONTINUOUS
 62
3
370
9
100
AcDbLine
 10
317.59766784561
 20
16.794734368391
 30
0.0
 11
317.59766784561
 21
4.9999999999998
 31
0.0
  0
LINE
  5
4A
330
17
100
AcDbEntity
  8
254
  6
CONTINUOUS
 62
3
370
9
100
AcDbLine
 10
317.59766784561
 20
28.589484368391
 30
0.0
 11
317.59766784561
 21
16.79475
 31
0.0
  0
LINE
  5
4B
330
17
100
AcDbEntity
  8
254
  6
CONTINUOUS
 62
3
370
9
100
AcDbLine
 10
317.59766784561
 20
25.472316071428
 30
0.0
 11
325.18000713133
 21
25.472316071428
 31
0.0
  0
LINE
  5
4C
330
17
100
AcDbEntity
  8
254
  6
CONTINUOUS
 62
3
370
9
100
AcDbLine
 10
317.59766784561
 20
13.677566071429
 30
0.0
 11
325.18000713133
 21
13.677566071429
 31
0.0
  0
LINE
  5
4D
330
17
100
AcDbEntity
  8
254
  6
CONTINUOUS
 62
3
370
9
100
AcDbLine
 10
267.71322795736
 20
16.79475
 30
0.0
 11
325.18000713133
 21
16.79475
 31
0.0
  0
TEXT
  5
4E
330
17
100
AcDbEntity
  8
254
 62
3
370
9
100
AcDbText
 10
270.14932182782
 20
14.45637354981
 30
0.0
 40
3.3699285714286
  1
ê}î‘
  7
STANDARD1
 41
0.75
100
AcDbText
  0
LINE
  5
4F
330
17
100
AcDbEntity
  8
254
  6
CONTINUOUS
 62
3
370
9
100
AcDbLine
 10
267.71322795736
 20
4.9999999999998
 30
0.0
 11
267.71322795736
 21
28.5895
 31
0.0
  0
LINE
  5
50
330
17
100
AcDbEntity
  8
1
  6
CONTINUOUS
 62
3
370
9
100
AcDbLine
 10
267.71322795736
 20
28.5895
 30
0.0
 11
267.71322795736
 21
4.9999999999998
 31
0.0
  0
LINE
  5
51
330
17
100
AcDbEntity
  8
254
  6
CONTINUOUS
 62
3
370
9
100
AcDbLine
 10
273.18936188593
 20
4.9999999999998
 30
0.0
 11
273.18936188593
 21
16.79475
 31
0.0
  0
LINE
  5
52
330
17
100
AcDbEntity
  8
254
  6
CONTINUOUS
 62
3
370
9
100
AcDbLine
 10
273.18936188593
 20
16.79475
 30
0.0
 11
273.18936188593
 21
28.5895
 31
0.0
  0
TEXT
  5
53
330
17
100
AcDbEntity
  8
254
 62
3
370
9
100
AcDbText
 10
270.14932182782
 20
27.712778419251
 30
0.0
 40
2.5274464285714
  1
êªçÏî‘çÜ
  7
STANDARD1
100
AcDbText
  0
MTEXT
  5
54
330
17
100
AcDbEntity
  8
254
 62
7
370
20
100
AcDbMText
 10
267.09039456035
 20
6.2412531331843
 30
0.0
 40
4.6226729374878
 41
0.0
 71
9
  1
\T1.000000;ÇãÇá
  7
GMM007
 44
0.79999984000003
  0
LINE
  5
55
330
17
100
AcDbEntity
  8
254
  6
CONTINUOUS
 62
3
370
9
100
AcDbLine
 10
217.16311492467
 20
28.5895
 30
0.0
 11
325.18000713133
 21
28.5895
 31
0.0
  0
LINE
  5
56
330
17
100
AcDbEntity
  8
254
  6
CONTINUOUS
 62
3
370
9
100
AcDbLine
 10
166.43737735483
 20
4.9999999999998
 30
0.0
 11
166.43737735483
 21
12.815804374491
 31
0.0
  0
LINE
  5
57
330
17
100
AcDbEntity
  8
254
  6
CONTINUOUS
 62
3
370
9
100
AcDbLine
 10
166.43737735483
 20
12.815804374491
 30
0.0
 11
166.43737735483
 21
20.631608748982
 31
0.0
  0
LINE
  5
58
330
17
100
AcDbEntity
  8
254
  6
CONTINUOUS
 62
3
370
9
100
AcDbLine
 10
223.30492199768
 20
4.9999999999998
 30
0.0
 11
223.30492199768
 21
28.5895
 31
0.0
  0
LINE
  5
59
330
17
100
AcDbEntity
  8
254
  6
CONTINUOUS
 62
7
370
20
100
AcDbLine
 10
217.82878806911
 20
4.9999999999998
 30
0.0
 11
217.82878806911
 21
28.5895
 31
0.0
  0
LINE
  5
5A
330
17
100
AcDbEntity
  8
254
  6
CONTINUOUS
 62
3
370
9
100
AcDbLine
 10
217.82878806911
 20
4.9999999999998
 30
0.0
 11
217.82878806911
 21
28.5895
 31
0.0
  0
TEXT
  5
5B
330
17
100
AcDbEntity
  8
254
 62
3
370
9
100
AcDbText
 10
220.2355970388
 20
27.408725253101
 30
0.0
 40
2.5274464285714
  1
ïiñº
  7
STANDARD1
100
AcDbText
  0
LINE
  5
5C
330
17
100
AcDbEntity
  8
1
  6
CONTINUOUS
 62
3
370
9
100
AcDbLine
 10
217.82878806911
 20
28.5895
 30
0.0
 11
202.24286842626
 21
28.5895
 31
0.0
  0
LINE
  5
5D
330
17
100
AcDbEntity
  8
254
  6
CONTINUOUS
 62
3
370
9
100
AcDbLine
 10
166.43737735483
 20
20.631608748982
 30
0.0
 11
166.43737735483
 21
28.5895
 31
0.0
  0
LINE
  5
5E
330
17
100
AcDbEntity
  8
1
  6
CONTINUOUS
 62
3
370
9
100
AcDbLine
 10
166.43737735483
 20
28.5895
 30
0.0
 11
202.24286842626
 21
28.5895
 31
0.0
  0
LINE
  5
5F
330
17
100
AcDbEntity
  8
254
  6
CONTINUOUS
 62
3
370
9
100
AcDbLine
 10
217.82878806911
 20
12.863166666667
 30
0.0
 11
267.71322795736
 21
12.863166666667
 31
0.0
  0
LINE
  5
60
330
17
100
AcDbEntity
  8
254
  6
CONTINUOUS
 62
3
370
9
100
AcDbLine
 10
217.82878806911
 20
20.726333333333
 30
0.0
 11
267.71322795736
 21
20.726333333333
 31
0.0
  0
TEXT
  5
61
330
17
100
AcDbEntity
  8
254
 62
3
370
9
100
AcDbText
 10
220.59281442956
 20
11.80382974045
 30
0.0
 40
2.5274464285714
  1
èdó 
  7
STANDARD1
100
AcDbText
  0
TEXT
  5
62
330
17
100
AcDbEntity
  8
254
 62
3
370
9
100
AcDbText
 10
220.63752676512
 20
20.213063918481
 30
0.0
 40
2.5274464285714
  1
ëïíuñº
  7
STANDARD1
100
AcDbText
  0
LINE
  5
63
330
17
100
AcDbEntity
  8
1
  6
CONTINUOUS
 62
3
370
9
100
AcDbLine
 10
92.759851837957
 20
28.5895
 30
0.0
 11
92.759851837957
 21
4.9999999999998
 31
0.0
  0
LINE
  5
64
330
17
100
AcDbEntity
  8
2
  6
CONTINUOUS
 62
3
370
9
100
AcDbLine
 10
166.43737735483
 20
20.726333333333
 30
0.0
 11
182.02329699768
 21
20.726333333333
 31
0.0
  0
TEXT
  5
65
330
17
100
AcDbEntity
  8
254
 62
3
370
9
100
AcDbText
 10
168.38089831337
 20
27.433909723082
 30
0.0
 40
2.5274464285714
  1
é⁄ìx
  7
STANDARD1
100
AcDbText
  0
LINE
  5
66
330
17
100
AcDbEntity
  8
2
  6
CONTINUOUS
 62
3
370
9
100
AcDbLine
 10
166.43737735483
 20
12.863166666667
 30
0.0
 11
182.02329699768
 21
12.863166666667
 31
0.0
  0
MTEXT
  5
67
330
17
100
AcDbEntity
  8
254
 62
7
370
20
100
AcDbMText
 10
176.4152706333
 20
14.58269282434
 30
0.0
 40
4.2124107142857
 41
0.0
 71
8
  1
\T1.000000;Ç`ÇR
  7
GMM008
 44
0.79999984000003
  0
TEXT
  5
68
330
17
100
AcDbEntity
  8
254
 62
3
370
9
100
AcDbText
 10
168.38089831337
 20
19.757672207458
 30
0.0
 40
2.5274464285714
  1
ê}òg
  7
STANDARD1
100
AcDbText
  0
LINE
  5
69
330
17
100
AcDbEntity
  8
254
  6
CONTINUOUS
 62
3
370
9
100
AcDbLine
 10
170.64978806911
 20
28.5895
 30
0.0
 11
170.64978806911
 21
12.863166666667
 31
0.0
  0
INSERT
  5
6A
330
17
100
AcDbEntity
  8
0
100
AcDbBlockReference
  2
BLOCK004
 10
0.0
 20
0.0
 30
0.0
  0
MTEXT
  5
6C
330
17
100
AcDbEntity
  8
254
 62
3
370
9
100
AcDbMText
 10
170.51077147172
 20
5.3410491057923
 30
0.0
 40
1.8490691749951
 41
0.0
 71
7
  1
\T1.000000;ëÊéOäpñ@
  7
GMM001
 44
0.79999984000003
  0
MTEXT
  5
6D
330
17
100
AcDbEntity
  8
254
 62
7
370
20
100
AcDbMText
 10
191.87839303901
 20
6.9539510936227
 30
0.0
 40
4.2124107142857
 41
0.0
 71
8
  1
\T1.000000;ÅñÅñ
  7
GMM008
 44
0.79999984000003
  0
TEXT
  5
6E
330
17
100
AcDbEntity
  8
254
 62
3
370
9
100
AcDbText
 10
184.02331530209
 20
11.916209053108
 30
0.0
 40
2.5274464285714
  1
êRç∏
  7
STANDARD1
100
AcDbText
  0
TEXT
  5
6F
330
17
100
AcDbEntity
  8
254
 62
3
370
9
100
AcDbText
 10
184.08020453162
 20
19.653144268485
 30
0.0
 40
2.5274464285714
  1
çXêV
  7
STANDARD1
100
AcDbText
  0
LINE
  5
70
330
17
100
AcDbEntity
  8
254
  6
CONTINUOUS
 62
3
370
9
100
AcDbLine
 10
197.60921664054
 20
4.9999999999998
 30
0.0
 11
197.60921664054
 21
12.815804374491
 31
0.0
  0
LINE
  5
71
330
17
100
AcDbEntity
  8
254
  6
CONTINUOUS
 62
3
370
9
100
AcDbLine
 10
197.60921664054
 20
12.815804374491
 30
0.0
 11
197.60921664054
 21
20.631608748982
 31
0.0
  0
LINE
  5
72
330
17
100
AcDbEntity
  8
254
  6
CONTINUOUS
 62
3
370
9
100
AcDbLine
 10
186.23570771197
 20
4.9999999999998
 30
0.0
 11
186.23570771197
 21
12.815804374491
 31
0.0
  0
LINE
  5
73
330
17
100
AcDbEntity
  8
254
  6
CONTINUOUS
 62
3
370
9
100
AcDbLine
 10
186.23570771197
 20
12.815804374491
 30
0.0
 11
186.23570771197
 21
20.631608748982
 31
0.0
  0
TEXT
  5
74
330
17
100
AcDbEntity
  8
254
 62
3
370
9
100
AcDbText
 10
183.96642607257
 20
27.532166360389
 30
0.0
 40
2.5274464285714
  1
êªê}
  7
STANDARD1
100
AcDbText
  0
LINE
  5
75
330
17
100
AcDbEntity
  8
254
  6
CONTINUOUS
 62
3
370
9
100
AcDbLine
 10
197.60921664054
 20
20.631608748982
 30
0.0
 11
197.60921664054
 21
28.5895
 31
0.0
  0
LINE
  5
76
330
17
100
AcDbEntity
  8
254
  6
CONTINUOUS
 62
3
370
9
100
AcDbLine
 10
186.23570771197
 20
20.631608748982
 30
0.0
 11
186.23570771197
 21
28.5895
 31
0.0
  0
LINE
  5
77
330
17
100
AcDbEntity
  8
1
  6
CONTINUOUS
 62
3
370
9
100
AcDbLine
 10
182.02329699768
 20
12.863166666667
 30
0.0
 11
217.82878806911
 21
12.863166666667
 31
0.0
  0
LINE
  5
78
330
17
100
AcDbEntity
  8
1
  6
CONTINUOUS
 62
3
370
9
100
AcDbLine
 10
182.02329699768
 20
20.726333333333
 30
0.0
 11
217.82878806911
 21
20.726333333333
 31
0.0
  0
MTEXT
  5
79
330
17
100
AcDbEntity
  8
254
 62
7
370
20
100
AcDbMText
 10
207.70539689736
 20
6.8592265092718
 30
0.0
 40
4.2124107142857
 41
0.0
 71
8
  1
\T1.000000;ÅñÅñÅDÅñÅñÅDÅñÅñ
  7
GMM009
 44
0.79999984000003
  0
LINE
  5
7A
330
17
100
AcDbEntity
  8
254
  6
CONTINUOUS
 62
3
370
9
100
AcDbLine
 10
181.96979638834
 20
12.815804374491
 30
0.0
 11
181.96979638834
 21
20.631608748982
 31
0.0
  0
LINE
  5
7B
330
17
100
AcDbEntity
  8
254
  6
CONTINUOUS
 62
3
370
9
100
AcDbLine
 10
181.96979638834
 20
20.631608748982
 30
0.0
 11
181.96979638834
 21
28.5895
 31
0.0
  0
LINE
  5
7C
330
17
100
AcDbEntity
  8
254
  6
CONTINUOUS
 62
3
370
9
100
AcDbLine
 10
181.96979638834
 20
4.9999999999998
 30
0.0
 11
181.96979638834
 21
12.815804374491
 31
0.0
  0
INSERT
  5
7D
330
17
100
AcDbEntity
  8
0
100
AcDbBlockReference
  2
BLOCK005
 10
0.0
 20
0.0
 30
0.0
  0
POINT
  5
7F
330
17
100
AcDbEntity
  8
1
 62
3
100
AcDbPoint
 10
415.0
 20
4.9999999999998
 30
0.0
  0
LINE
  5
80
330
17
100
AcDbEntity
  8
254
  6
CONTINUOUS
 62
3
370
9
100
AcDbLine
 10
5.0
 20
5.0
 30
0.0
 11
5.0
 21
11.763017397237
 31
0.0
  0
LINE
  5
81
330
17
100
AcDbEntity
  8
254
  6
CONTINUOUS
 62
3
370
9
100
AcDbLine
 10
5.0
 20
11.804
 30
0.0
 11
5.0
 21
18.567017397237
 31
0.0
  0
INSERT
  5
82
330
17
100
AcDbEntity
  8
0
100
AcDbBlockReference
  2
BLOCK006
 10
0.0
 20
0.0
 30
0.0
  0
LINE
  5
84
330
17
100
AcDbEntity
  8
254
  6
CONTINUOUS
 62
3
370
9
100
AcDbLine
 10
12.898270089286
 20
5.0
 30
0.0
 11
12.898270089286
 21
10.861853280869
 31
0.0
  0
LINE
  5
85
330
17
100
AcDbEntity
  8
254
  6
CONTINUOUS
 62
3
370
9
100
AcDbLine
 10
36.593080357143
 20
5.0
 30
0.0
 11
36.593080357143
 21
10.861853280869
 31
0.0
  0
MTEXT
  5
86
330
17
100
AcDbEntity
  8
254
 62
7
370
20
100
AcDbMText
 10
38.413381681514
 20
12.163600656498
 30
0.0
 40
3.1593080357143
 41
0.0
 71
7
  1
\T1.000000;Åñ
  7
GMM008
 44
0.79999984000003
  0
MTEXT
  5
87
330
17
100
AcDbEntity
  8
254
 62
3
370
9
100
AcDbMText
 10
8.9491350446428
 20
6.4071855891086
 30
0.0
 40
3.1593080357143
 41
0.0
 71
8
  1
\T1.000000;ÇqÇdÇu
  7
GMM008
 44
0.79999984000003
  0
MTEXT
  5
88
330
17
100
AcDbEntity
  8
254
 62
3
370
9
100
AcDbMText
 10
17.227619624579
 20
6.4071855891086
 30
0.0
 40
3.1593080357143
 41
0.0
 71
8
  1
\T1.000000;êªê}
  7
GMM008
 44
0.79999984000003
  0
MTEXT
  5
89
330
17
100
AcDbEntity
  8
254
 62
7
370
20
100
AcDbMText
 10
17.1633359375
 20
12.327316601086
 30
0.0
 40
3.1593080357143
 41
0.0
 71
8
  1
\T1.000000;ÅñÅñ
  7
GMM008
 44
0.79999984000003
  0
LINE
  5
8A
330
17
100
AcDbEntity
  8
254
  6
CONTINUOUS
 62
3
370
9
100
AcDbLine
 10
21.428401785714
 20
10.897375
 30
0.0
 11
21.428401785714
 21
16.759228280869
 31
0.0
  0
LINE
  5
8B
330
17
100
AcDbEntity
  8
254
  6
CONTINUOUS
 62
3
370
9
100
AcDbLine
 10
36.593080357143
 20
10.897375
 30
0.0
 11
36.593080357143
 21
16.759228280869
 31
0.0
  0
LINE
  5
8C
330
17
100
AcDbEntity
  8
254
  6
CONTINUOUS
 62
3
370
9
100
AcDbLine
 10
12.898270089286
 20
10.897375
 30
0.0
 11
12.898270089286
 21
16.759228280869
 31
0.0
  0
MTEXT
  5
8D
330
17
100
AcDbEntity
  8
254
 62
3
370
9
100
AcDbMText
 10
43.315724723913
 20
6.4646750653583
 30
0.0
 40
3.1593080357143
 41
0.0
 71
8
  1
\T1.000000;ïœçXì‡óe
  7
GMM008
 44
0.79999984000003
  0
MTEXT
  5
8E
330
17
100
AcDbEntity
  8
254
 62
7
370
20
100
AcDbMText
 10
29.018366611674
 20
12.327316601086
 30
0.0
 40
3.1593080357143
 41
0.0
 71
8
  1
\T1.000000;ÅñÅñÅDÅñÅñÅDÅñÅñ
  7
GMM015
 44
0.79999984000003
  0
MTEXT
  5
8F
330
17
100
AcDbEntity
  8
254
 62
7
370
20
100
AcDbMText
 10
38.413381681514
 20
18.060975656498
 30
0.0
 40
3.1593080357143
 41
0.0
 71
7
  1
\T1.000000;Åñ
  7
GMM008
 44
0.79999984000003
  0
MTEXT
  5
90
330
17
100
AcDbEntity
  8
254
 62
7
370
20
100
AcDbMText
 10
17.1633359375
 20
18.224691601086
 30
0.0
 40
3.1593080357143
 41
0.0
 71
8
  1
\T1.000000;ÅñÅñ
  7
GMM008
 44
0.79999984000003
  0
LINE
  5
91
330
17
100
AcDbEntity
  8
254
  6
CONTINUOUS
 62
3
370
9
100
AcDbLine
 10
21.428401785714
 20
16.79475
 30
0.0
 11
21.428401785714
 21
22.656603280869
 31
0.0
  0
LINE
  5
92
330
17
100
AcDbEntity
  8
254
  6
CONTINUOUS
 62
3
370
9
100
AcDbLine
 10
36.593080357143
 20
16.79475
 30
0.0
 11
36.593080357143
 21
22.656603280869
 31
0.0
  0
LINE
  5
93
330
17
100
AcDbEntity
  8
254
  6
CONTINUOUS
 62
3
370
9
100
AcDbLine
 10
12.898270089286
 20
16.79475
 30
0.0
 11
12.898270089286
 21
22.656603280869
 31
0.0
  0
MTEXT
  5
94
330
17
100
AcDbEntity
  8
254
 62
7
370
20
100
AcDbMText
 10
29.018366611674
 20
18.224691601086
 30
0.0
 40
3.1593080357143
 41
0.0
 71
8
  1
\T1.000000;ÅñÅñÅDÅñÅñÅDÅñÅñ
  7
GMM015
 44
0.79999984000003
  0
LINE
  5
95
330
17
100
AcDbEntity
  8
254
  6
CONTINUOUS
 62
3
370
9
100
AcDbLine
 10
5.0
 20
10.897375
 30
0.0
 11
92.759851837957
 21
10.897375
 31
0.0
  0
LINE
  5
96
330
17
100
AcDbEntity
  8
254
  6
CONTINUOUS
 62
3
370
9
100
AcDbLine
 10
5.0
 20
16.79475
 30
0.0
 11
92.759851837957
 21
16.79475
 31
0.0
  0
LINE
  5
97
330
17
100
AcDbEntity
  8
254
  6
CONTINUOUS
 62
3
370
9
100
AcDbLine
 10
5.0
 20
22.692125
 30
0.0
 11
92.759851837957
 21
22.692125
 31
0.0
  0
MTEXT
  5
98
330
17
100
AcDbEntity
  8
254
 62
7
370
20
100
AcDbMText
 10
38.413381681514
 20
23.958350656497
 30
0.0
 40
3.1593080357143
 41
0.0
 71
7
  1
\T1.000000;Åñ
  7
GMM008
 44
0.79999984000003
  0
MTEXT
  5
99
330
17
100
AcDbEntity
  8
254
 62
7
370
20
100
AcDbMText
 10
17.1633359375
 20
24.122066601086
 30
0.0
 40
3.1593080357143
 41
0.0
 71
8
  1
\T1.000000;ÅñÅñ
  7
GMM008
 44
0.79999984000003
  0
LINE
  5
9A
330
17
100
AcDbEntity
  8
254
  6
CONTINUOUS
 62
3
370
9
100
AcDbLine
 10
21.428401785714
 20
22.692125
 30
0.0
 11
21.428401785714
 21
28.553978280869
 31
0.0
  0
LINE
  5
9B
330
17
100
AcDbEntity
  8
254
  6
CONTINUOUS
 62
3
370
9
100
AcDbLine
 10
36.593080357143
 20
22.692125
 30
0.0
 11
36.593080357143
 21
28.553978280869
 31
0.0
  0
LINE
  5
9C
330
17
100
AcDbEntity
  8
254
  6
CONTINUOUS
 62
3
370
9
100
AcDbLine
 10
12.898270089286
 20
22.692125
 30
0.0
 11
12.898270089286
 21
28.553978280869
 31
0.0
  0
MTEXT
  5
9D
330
17
100
AcDbEntity
  8
254
 62
7
370
20
100
AcDbMText
 10
29.018366611674
 20
24.122066601086
 30
0.0
 40
3.1593080357143
 41
0.0
 71
8
  1
\T1.000000;ÅñÅñÅDÅñÅñÅDÅñÅñ
  7
GMM015
 44
0.79999984000003
  0
LINE
  5
9E
330
17
100
AcDbEntity
  8
254
  6
CONTINUOUS
 62
3
370
9
100
AcDbLine
 10
5.0
 20
28.5895
 30
0.0
 11
92.759851837957
 21
28.5895
 31
0.0
  0
INSERT
  5
9F
330
17
100
AcDbEntity
  8
0
100
AcDbBlockReference
  2
BLOCK007
 10
0.0
 20
0.0
 30
0.0
  0
LINE
  5
A1
330
17
100
AcDbEntity
  8
254
  6
CONTINUOUS
 62
3
370
9
100
AcDbLine
 10
5.0
 20
18.526034794474
 30
0.0
 11
5.0
 21
28.5895
 31
0.0
  0
LINE
  5
A2
330
17
100
AcDbEntity
  8
254
  6
CONTINUOUS
 62
3
370
9
100
AcDbLine
 10
325.18000713133
 20
28.5895
 30
0.0
 11
415.0
 21
28.5895
 31
0.0
  0
MTEXT
  5
A3
330
17
100
AcDbEntity
  8
254
 62
7
370
20
100
AcDbMText
 10
383.87898754983
 20
24.45606176625
 30
0.0
 40
3.2
 41
0.0
 71
8
  1
\T1.000000;Åñ
  7
GMM003
 44
0.79999984000003
  0
CIRCLE
  5
A4
330
17
100
AcDbEntity
  8
254
  6
CONTINUOUS
 62
3
370
9
100
AcDbCircle
 10
19.323632491628
 20
278.8442948685
 30
0.0
 40
10.0
  0
LINE
  5
13E
330
17
100
AcDbEntity
  8
0
  6
Continuous
 62
7
370
25
100
AcDbLine
 10
130.31623381589998
 20
104.20886880250004
 30
0.0
 11
153.31623381589998
 21
104.20886880250004
 31
0.0
  0
LINE
  5
13F
330
17
100
AcDbEntity
  8
0
  6
Continuous
 62
7
370
25
100
AcDbLine
 10
153.31623381589998
 20
134.20886880250004
 30
0.0
 11
130.31623381589998
 21
134.20886880250004
 31
0.0
  0
LINE
  5
140
330
17
100
AcDbEntity
  8
0
  6
Continuous
 62
7
370
25
100
AcDbLine
 10
153.31623381589998
 20
106.70886880250004
 30
0.0
 11
202.31623381589998
 21
106.70886880250004
 31
0.0
  0
LINE
  5
141
330
17
100
AcDbEntity
  8
0
  6
Continuous
 62
7
370
25
100
AcDbLine
 10
202.31623381589998
 20
131.70886880250004
 30
0.0
 11
153.31623381589998
 21
131.70886880250004
 31
0.0
  0
LINE
  5
142
330
17
100
AcDbEntity
  8
0
  6
Continuous
 62
7
370
25
100
AcDbLine
 10
125.31623381589998
 20
106.70886880250004
 30
0.0
 11
130.31623381589998
 21
106.70886880250004
 31
0.0
  0
LINE
  5
143
330
17
100
AcDbEntity
  8
0
  6
Continuous
 62
7
370
25
100
AcDbLine
 10
130.31623381589998
 20
131.70886880250004
 30
0.0
 11
125.31623381589998
 21
131.70886880250004
 31
0.0
  0
LINE
  5
144
330
17
100
AcDbEntity
  8
0
  6
Continuous
 62
7
370
25
100
AcDbLine
 10
203.31623381589998
 20
130.70886880250004
 30
0.0
 11
202.31623381589998
 21
131.70886880250004
 31
0.0
  0
LINE
  5
145
330
17
100
AcDbEntity
  8
0
  6
Continuous
 62
7
370
25
100
AcDbLine
 10
202.31623381589998
 20
106.70886880250004
 30
0.0
 11
203.31623381589998
 21
107.70886880250004
 31
0.0
  0
LINE
  5
146
330
17
100
AcDbEntity
  8
0
  6
Continuous
 62
7
370
25
100
AcDbLine
 10
153.31623381589998
 20
119.20886880250004
 30
0.0
 11
153.31623381589998
 21
134.20886880250004
 31
0.0
  0
LINE
  5
147
330
17
100
AcDbEntity
  8
0
  6
Continuous
 62
7
370
25
100
AcDbLine
 10
153.31623381589998
 20
104.20886880250004
 30
0.0
 11
153.31623381589998
 21
119.20886880250004
 31
0.0
  0
LINE
  5
148
330
17
100
AcDbEntity
  8
0
  6
Continuous
 62
7
370
25
100
AcDbLine
 10
130.31623381589998
 20
119.20886880250004
 30
0.0
 11
130.31623381589998
 21
134.20886880250004
 31
0.0
  0
LINE
  5
149
330
17
100
AcDbEntity
  8
0
  6
Continuous
 62
7
370
25
100
AcDbLine
 10
130.31623381589998
 20
104.20886880250004
 30
0.0
 11
130.31623381589998
 21
119.20886880250004
 31
0.0
  0
LINE
  5
14A
330
17
100
AcDbEntity
  8
0
  6
Continuous
 62
7
370
25
100
AcDbLine
 10
193.31623381589998
 20
127.33290720710002
 30
0.0
 11
202.31623381589998
 21
127.33290720710002
 31
0.0
  0
LINE
  5
14B
330
17
100
AcDbEntity
  8
0
  6
Continuous
 62
7
370
25
100
AcDbLine
 10
193.31623381589998
 20
127.33290720710002
 30
0.0
 11
193.31623381589998
 21
111.08483039790002
 31
0.0
  0
LINE
  5
14C
330
17
100
AcDbEntity
  8
0
  6
Continuous
 62
7
370
25
100
AcDbLine
 10
202.31623381589998
 20
111.08483039790002
 30
0.0
 11
193.31623381589998
 21
111.08483039790002
 31
0.0
  0
LINE
  5
14D
330
17
100
AcDbEntity
  8
0
  6
Continuous
 62
7
370
25
100
AcDbLine
 10
202.31623381589998
 20
106.70886880250004
 30
0.0
 11
202.31623381589998
 21
111.08483039790002
 31
0.0
  0
LINE
  5
14E
330
17
100
AcDbEntity
  8
0
  6
Continuous
 62
7
370
25
100
AcDbLine
 10
202.31623381589998
 20
127.33290720710002
 30
0.0
 11
202.31623381589998
 21
131.70886880250004
 31
0.0
  0
LINE
  5
14F
330
17
100
AcDbEntity
  8
0
  6
Continuous
 62
7
370
25
100
AcDbLine
 10
125.31623381589998
 20
119.20886880250004
 30
0.0
 11
125.31623381589998
 21
131.70886880250004
 31
0.0
  0
LINE
  5
150
330
17
100
AcDbEntity
  8
0
  6
Continuous
 62
7
370
25
100
AcDbLine
 10
125.31623381589998
 20
106.70886880250004
 30
0.0
 11
125.31623381589998
 21
119.20886880250004
 31
0.0
  0
SPLINE
  5
151
330
17
100
AcDbEntity
  8
0
  6
Continuous
 62
7
370
25
100
AcDbSpline
 70
8
 71
3
 72
8
 73
4
 74
0
 42
1e-08
 43
1e-08
 40
0.0
 40
0.0
 40
0.0
 40
0.0
 40
1.0
 40
1.0
 40
1.0
 40
1.0
 10
202.31623381592652
 20
127.33290720713663
 30
0.0
 10
202.66671033670877
 20
126.79364873843244
 30
0.0
 10
203.00215859183248
 20
126.24693238191321
 30
0.0
 10
203.31623381592652
 20
125.68960950090852
 30
0.0
  0
LINE
  5
152
330
17
100
AcDbEntity
  8
0
  6
Continuous
 62
7
370
25
100
AcDbLine
 10
203.31623381589998
 20
125.68960950090002
 30
0.0
 11
203.31623381589998
 21
130.70886880250004
 31
0.0
  0
SPLINE
  5
153
330
17
100
AcDbEntity
  8
0
  6
Continuous
 62
7
370
25
100
AcDbSpline
 70
8
 71
3
 72
8
 73
4
 74
0
 42
1e-08
 43
1e-08
 40
0.0
 40
0.0
 40
0.0
 40
0.0
 40
1.0
 40
1.0
 40
1.0
 40
1.0
 10
203.31623381592652
 20
112.72812810409283
 30
0.0
 10
203.00191233382532
 20
112.17036824108021
 30
0.0
 10
202.66646607782167
 20
111.62371303918653
 30
0.0
 10
202.31623381592652
 20
111.08483039786464
 30
0.0
  0
LINE
  5
154
330
17
100
AcDbEntity
  8
0
  6
Continuous
 62
7
370
25
100
AcDbLine
 10
203.31623381589998
 20
107.70886880250004
 30
0.0
 11
203.31623381589998
 21
112.72812810410002
 31
0.0
  0
LINE
  5
155
330
17
100
AcDbEntity
  8
0
  6
Continuous
 62
7
370
25
100
AcDbLine
 10
203.31623381589998
 20
125.68960950090002
 30
0.0
 11
203.31623381589998
 21
112.72812810410002
 31
0.0
  0
LINE
  5
156
330
17
100
AcDbEntity
  8
0
  6
HIDDEN
 62
7
370
18
100
AcDbLine
 10
183.31623381589998
 20
123.45886880250004
 30
0.0
 11
183.31623381589998
 21
114.95886880250004
 31
0.0
  0
LINE
  5
157
330
17
100
AcDbEntity
  8
0
  6
HIDDEN
 62
7
370
18
100
AcDbLine
 10
203.31623381589998
 20
123.45886880250004
 30
0.0
 11
183.31623381589998
 21
123.45886880250004
 31
0.0
  0
LINE
  5
158
330
17
100
AcDbEntity
  8
0
  6
HIDDEN
 62
7
370
18
100
AcDbLine
 10
183.31623381589998
 20
114.95886880250004
 30
0.0
 11
203.31623381589998
 21
114.95886880250004
 31
0.0
  0
LINE
  5
159
330
17
100
AcDbEntity
  8
0
  6
Continuous
 62
7
370
25
100
AcDbLine
 10
130.31623381589998
 20
168.4999999999999
 30
0.0
 11
153.31623381589998
 21
168.4999999999999
 31
0.0
  0
LINE
  5
15A
330
17
100
AcDbEntity
  8
0
  6
Continuous
 62
7
370
25
100
AcDbLine
 10
153.31623381589998
 20
198.4999999999999
 30
0.0
 11
130.31623381589998
 21
198.4999999999999
 31
0.0
  0
LINE
  5
15B
330
17
100
AcDbEntity
  8
0
  6
Continuous
 62
7
370
25
100
AcDbLine
 10
153.31623381589998
 20
170.9999999999999
 30
0.0
 11
193.31623381589998
 21
170.9999999999999
 31
0.0
  0
LINE
  5
15C
330
17
100
AcDbEntity
  8
0
  6
Continuous
 62
7
370
25
100
AcDbLine
 10
193.31623381589998
 20
195.9999999999999
 30
0.0
 11
153.31623381589998
 21
195.9999999999999
 31
0.0
  0
LINE
  5
15D
330
17
100
AcDbEntity
  8
0
  6
Continuous
 62
7
370
25
100
AcDbLine
 10
125.31623381589998
 20
170.9999999999999
 30
0.0
 11
130.31623381589998
 21
170.9999999999999
 31
0.0
  0
LINE
  5
15E
330
17
100
AcDbEntity
  8
0
  6
Continuous
 62
7
370
25
100
AcDbLine
 10
130.31623381589998
 20
195.9999999999999
 30
0.0
 11
125.31623381589998
 21
195.9999999999999
 31
0.0
  0
LINE
  5
15F
330
17
100
AcDbEntity
  8
0
  6
Continuous
 62
7
370
25
100
AcDbLine
 10
153.31623381589998
 20
168.4999999999999
 30
0.0
 11
153.31623381589998
 21
198.4999999999999
 31
0.0
  0
LINE
  5
160
330
17
100
AcDbEntity
  8
0
  6
Continuous
 62
7
370
25
100
AcDbLine
 10
130.31623381589998
 20
168.4999999999999
 30
0.0
 11
130.31623381589998
 21
198.4999999999999
 31
0.0
  0
LINE
  5
161
330
17
100
AcDbEntity
  8
0
  6
Continuous
 62
7
370
25
100
AcDbLine
 10
193.31623381589998
 20
173.9999999999999
 30
0.0
 11
202.31623381589998
 21
173.9999999999999
 31
0.0
  0
LINE
  5
162
330
17
100
AcDbEntity
  8
0
  6
Continuous
 62
7
370
25
100
AcDbLine
 10
193.31623381589998
 20
173.9999999999999
 30
0.0
 11
193.31623381589998
 21
170.9999999999999
 31
0.0
  0
LINE
  5
163
330
17
100
AcDbEntity
  8
0
  6
Continuous
 62
7
370
25
100
AcDbLine
 10
193.31623381589998
 20
195.9999999999999
 30
0.0
 11
193.31623381589998
 21
192.9999999999999
 31
0.0
  0
LINE
  5
164
330
17
100
AcDbEntity
  8
0
  6
Continuous
 62
7
370
25
100
AcDbLine
 10
202.31623381589998
 20
192.9999999999999
 30
0.0
 11
193.31623381589998
 21
192.9999999999999
 31
0.0
  0
LINE
  5
165
330
17
100
AcDbEntity
  8
0
  6
Continuous
 62
7
370
25
100
AcDbLine
 10
202.31623381589998
 20
173.9999999999999
 30
0.0
 11
202.31623381589998
 21
192.9999999999999
 31
0.0
  0
LINE
  5
166
330
17
100
AcDbEntity
  8
0
  6
Continuous
 62
7
370
25
100
AcDbLine
 10
125.31623381589998
 20
170.9999999999999
 30
0.0
 11
125.31623381589998
 21
195.9999999999999
 31
0.0
  0
SPLINE
  5
167
330
17
100
AcDbEntity
  8
0
  6
Continuous
 62
7
370
25
100
AcDbSpline
 70
24
 71
3
 72
8
 73
4
 74
0
 42
1e-08
 43
1e-08
 40
0.0
 40
0.0
 40
0.0
 40
0.0
 40
1.0
 40
1.0
 40
1.0
 40
1.0
 10
202.31623381592652
 20
174.0
 30
0.0
 10
202.66671033670877
 20
174.0
 30
0.0
 10
203.00215859183248
 20
174.0
 30
0.0
 10
203.31623381592652
 20
174.0
 30
0.0
  0
SPLINE
  5
168
330
17
100
AcDbEntity
  8
0
  6
Continuous
 62
7
370
25
100
AcDbSpline
 70
24
 71
3
 72
8
 73
4
 74
0
 42
1e-08
 43
1e-08
 40
0.0
 40
0.0
 40
0.0
 40
0.0
 40
1.0
 40
1.0
 40
1.0
 40
1.0
 10
203.31623381592652
 20
193.0
 30
0.0
 10
203.00191233382532
 20
193.0
 30
0.0
 10
202.66646607782167
 20
193.0
 30
0.0
 10
202.31623381592652
 20
193.0
 30
0.0
  0
LINE
  5
169
330
17
100
AcDbEntity
  8
0
  6
Continuous
 62
7
370
25
100
AcDbLine
 10
203.31623381589998
 20
173.9999999999999
 30
0.0
 11
203.31623381589998
 21
192.9999999999999
 31
0.0
  0
LINE
  5
16A
330
17
100
AcDbEntity
  8
0
  6
HIDDEN
 62
7
370
18
100
AcDbLine
 10
183.31623381589998
 20
187.7499999999999
 30
0.0
 11
183.31623381589998
 21
179.2499999999999
 31
0.0
  0
LINE
  5
16B
330
17
100
AcDbEntity
  8
0
  6
HIDDEN
 62
7
370
18
100
AcDbLine
 10
203.31623381589998
 20
187.7499999999999
 30
0.0
 11
183.31623381589998
 21
187.7499999999999
 31
0.0
  0
LINE
  5
16C
330
17
100
AcDbEntity
  8
0
  6
HIDDEN
 62
7
370
18
100
AcDbLine
 10
183.31623381589998
 20
179.2499999999999
 30
0.0
 11
203.31623381589998
 21
179.2499999999999
 31
0.0
  0
SPLINE
  5
16D
330
17
100
AcDbEntity
  8
0
  6
Continuous
 62
7
370
25
100
AcDbSpline
 70
24
 71
3
 72
8
 73
4
 74
0
 42
1e-08
 43
1e-08
 40
0.0
 40
0.0
 40
0.0
 40
0.0
 40
1.0
 40
1.0
 40
1.0
 40
1.0
 10
246.9999999999999
 20
112.72812810409283
 30
0.0
 10
246.9999999999999
 20
112.17036824108021
 30
0.0
 10
246.9999999999999
 20
111.62371303918653
 30
0.0
 10
246.9999999999999
 20
111.08483039786464
 30
0.0
  0
ARC
  5
16E
330
17
100
AcDbEntity
  8
0
  6
Continuous
 62
7
370
25
100
AcDbCircle
 10
256.5
 20
119.20886880250004
 30
0.0
 40
11.5
100
AcDbArc
 50
-145.69884724320002
 51
-34.3011527568
  0
SPLINE
  5
16F
330
17
100
AcDbEntity
  8
0
  6
Continuous
 62
7
370
25
100
AcDbSpline
 70
24
 71
3
 72
8
 73
4
 74
0
 42
1e-08
 43
1e-08
 40
0.0
 40
0.0
 40
0.0
 40
0.0
 40
1.0
 40
1.0
 40
1.0
 40
1.0
 10
265.9999999999999
 20
111.08483039786464
 30
0.0
 10
265.9999999999999
 20
111.62408886656891
 30
0.0
 10
265.9999999999999
 20
112.17080522308802
 30
0.0
 10
265.9999999999999
 20
112.72812810409283
 30
0.0
  0
ARC
  5
170
330
17
100
AcDbEntity
  8
0
  6
Continuous
 62
7
370
25
100
AcDbCircle
 10
256.5
 20
119.20886880250004
 30
0.0
 40
12.50000000000001
100
AcDbArc
 50
-139.4641978887
 51
-40.5358021113
  0
LINE
  5
171
330
17
100
AcDbEntity
  8
0
  6
Continuous
 62
7
370
25
100
AcDbLine
 10
247.0
 20
125.68960950090002
 30
0.0
 11
247.0
 21
112.72812810410002
 31
0.0
  0
ARC
  5
172
330
17
100
AcDbEntity
  8
0
  6
Continuous
 62
7
370
25
100
AcDbCircle
 10
256.5
 20
119.20886880250004
 30
0.0
 40
11.50000000000001
100
AcDbArc
 50
34.3011527568
 51
145.6988472432
  0
LINE
  5
173
330
17
100
AcDbEntity
  8
0
  6
Continuous
 62
7
370
25
100
AcDbLine
 10
266.0
 20
112.72812810410002
 30
0.0
 11
266.0
 21
125.68960950090002
 31
0.0
  0
CIRCLE
  5
174
330
17
100
AcDbEntity
  8
0
  6
Continuous
 62
7
370
25
100
AcDbCircle
 10
256.5
 20
119.20886880250004
 30
0.0
 40
4.249999999999943
  0
SPLINE
  5
175
330
17
100
AcDbEntity
  8
0
  6
Continuous
 62
7
370
25
100
AcDbSpline
 70
24
 71
3
 72
8
 73
4
 74
0
 42
1e-08
 43
1e-08
 40
0.0
 40
0.0
 40
0.0
 40
0.0
 40
1.0
 40
1.0
 40
1.0
 40
1.0
 10
246.9999999999999
 20
127.33290720713663
 30
0.0
 10
246.9999999999999
 20
126.79364873843244
 30
0.0
 10
246.9999999999999
 20
126.24693238191321
 30
0.0
 10
246.9999999999999
 20
125.68960950090852
 30
0.0
  0
ARC
  5
176
330
17
100
AcDbEntity
  8
0
  6
Continuous
 62
7
370
25
100
AcDbCircle
 10
256.5
 20
119.20886880250004
 30
0.0
 40
12.50000000000001
100
AcDbArc
 50
40.5358021113
 51
139.4641978887
  0
SPLINE
  5
177
330
17
100
AcDbEntity
  8
0
  6
Continuous
 62
7
370
25
100
AcDbSpline
 70
24
 71
3
 72
8
 73
4
 74
0
 42
1e-08
 43
1e-08
 40
0.0
 40
0.0
 40
0.0
 40
0.0
 40
1.0
 40
1.0
 40
1.0
 40
1.0
 10
265.9999999999999
 20
125.68960950090852
 30
0.0
 10
265.9999999999999
 20
126.24736936392102
 30
0.0
 10
265.9999999999999
 20
126.79402456581482
 30
0.0
 10
265.9999999999999
 20
127.33290720713663
 30
0.0
  0
ARC
  5
178
330
17
100
AcDbEntity
  8
0
  6
Continuous
 62
7
370
25
100
AcDbCircle
 10
256.5
 20
119.20886880250004
 30
0.0
 40
12.50000000000001
100
AcDbArc
 50
-40.5358021113
 51
40.5358021113
  0
ARC
  5
179
330
17
100
AcDbEntity
  8
0
  6
Continuous
 62
7
370
25
100
AcDbCircle
 10
256.5
 20
119.20886880250004
 30
0.0
 40
12.50000000000001
100
AcDbArc
 50
139.4641978887
 51
-139.4641978887
  0
CIRCLE
  5
17A
330
17
100
AcDbEntity
  8
0
  6
Continuous
 62
7
370
25
100
AcDbCircle
 10
256.5
 20
119.20886880250004
 30
0.0
 40
15.0
  0
INSERT
  5
17B
330
17
100
AcDbEntity
  8
0
  6
Continuous
 62
7
370
18
100
AcDbBlockReference
  2
SW_CENTERMARKSYMBOL_0
 10
256.5
 20
119.20886880250004
 30
0.0
  0
LINE
  5
17D
330
17
100
AcDbEntity
  8
0
  6
Continuous
 62
7
370
25
100
AcDbLine
 10
242.472333328
 20
177.16463383529987
 30
0.0
 11
277.12056560610006
 21
157.1626350955999
 31
0.0
  0
LINE
  5
17E
330
17
100
AcDbEntity
  8
0
  6
Continuous
 62
7
370
25
100
AcDbLine
 10
289.61954976410004
 20
178.81385665509987
 30
0.0
 11
254.9713174859
 21
198.81585539479988
 31
0.0
  0
LINE
  5
17F
330
17
100
AcDbEntity
  8
0
  6
Continuous
 62
7
370
25
100
AcDbLine
 10
283.37149424430004
 20
157.78231516959988
 30
0.0
 11
284.0784861008
 21
158.19058557009987
 31
0.0
  0
LINE
  5
180
330
17
100
AcDbEntity
  8
0
  6
Continuous
 62
7
370
25
100
AcDbLine
 10
224.95897894490002
 20
184.3882049652999
 30
0.0
 11
241.22243491220001
 21
174.99951167929987
 31
0.0
  0
LINE
  5
181
330
17
100
AcDbEntity
  8
0
  6
Continuous
 62
7
370
25
100
AcDbLine
 10
256.2212159017
 20
200.9809775506999
 30
0.0
 11
239.95775993440003
 21
210.36967083669987
 31
0.0
  0
LWPOLYLINE
  5
182
330
17
100
AcDbEntity
  8
0
  6
Continuous
 62
7
370
25
100
AcDbPolyline
 90
35
 70
128
 10
239.88299064210003
 20
182.88769391609986
 10
239.90452159940003
 20
183.61211106949992
 10
239.96900957449998
 20
184.3578580493999
 10
240.0761403884
 20
185.1213016514999
 10
240.2253921108
 20
185.89872245539988
 10
240.4160376021
 20
186.6863329449999
 10
240.64714805670002
 20
187.4802959611999
 10
240.91759752770002
 20
188.27674339589987
 10
241.22606841240002
 20
189.0717950373999
 10
241.57105787170002
 20
189.8615774739999
 10
241.9508851517
 20
190.64224296499987
 10
242.36369977200002
 20
191.4099881864999
 10
242.8074905413
 20
192.16107276119988
 10
243.2800953555
 20
192.8918374803999
 10
243.77921173150003
 20
193.5987221317999
 10
244.30240802449998
 20
194.27828284459991
 10
244.8471352748
 20
194.92720886709986
 10
245.41073962590002
 20
195.5423386971999
 10
245.99047525409998
 20
196.1206754839999
 10
246.58351774570002
 20
196.6594016287999
 10
247.1869778573
 20
197.1558925121999
 10
247.7979155919
 20
197.6077292802999
 10
248.4133545222
 20
198.01271062979987
 10
249.03029629169998
 20
198.36886353239987
 10
249.64573522199998
 20
198.6744528468999
 10
250.25667295660003
 20
198.9279897727999
 10
250.86013306810003
 20
199.1282391037999
 10
251.4531755598
 20
199.2742252451999
 10
252.032911188
 20
199.3652369672999
 10
252.59651553909998
 20
199.40083086999988
 10
253.1412427894
 20
199.38083354349988
 10
253.6644390824
 20
199.30534241269987
 10
254.16355545840003
 20
199.17472526279988
 10
254.63616027260002
 20
198.98961844749988
 10
254.9713174859
 20
198.81585539479988
  0
ARC
  5
183
330
17
100
AcDbEntity
  8
0
  6
Continuous
 62
7
370
25
100
AcDbCircle
 10
246.06865745890002
 20
182.23904704969988
 30
0.0
 40
6.219583324114786
100
AcDbArc
 50
174.0136776181
 51
-125.32585801150005
  0
LINE
  5
184
330
17
100
AcDbEntity
  8
0
  6
Continuous
 62
7
370
25
100
AcDbLine
 10
270.2885822331
 20
174.4177527620999
 30
0.0
 11
276.6525432638
 21
170.7439162588999
 31
0.0
  0
LWPOLYLINE
  5
185
330
17
100
AcDbEntity
  8
0
  6
Continuous
 62
7
370
25
100
AcDbPolyline
 90
21
 70
128
 10
270.2885822331
 20
174.4177527620999
 10
269.8993076878
 20
173.6280878290999
 10
269.5455900956
 20
172.82858650389988
 10
269.2291991898
 20
172.0232488814999
 10
268.9517179493
 20
171.2161042572999
 10
268.7145346785
 20
170.41119096749986
 10
268.5188360618
 20
169.6125361845999
 10
268.3656012257
 20
168.8241357680999
 10
268.2555968406
 20
168.0499342725999
 10
268.1893732845
 20
167.29380521199988
 10
268.1672618896
 20
166.5595316796999
 10
268.1893732845
 20
165.8507874204999
 10
268.2555968406
 20
165.1711184502999
 10
268.3656012257
 20
164.5239253143999
 10
268.5188360618
 20
163.9124460737999
 10
268.7145346785
 20
163.3397401042999
 10
268.9517179493
 20
162.8086727899999
 10
269.2291991898
 20
162.3219011867999
 10
269.5455900956
 20
161.88186072859992
 10
269.8993076878
 20
161.4907530422999
 10
270.2885822331
 20
161.15053493269988
  0
LINE
  5
186
330
17
100
AcDbEntity
  8
0
  6
Continuous
 62
7
370
25
100
AcDbLine
 10
276.6525432638
 20
157.4766984294999
 30
0.0
 11
270.2885822331
 21
161.15053493269988
 31
0.0
  0
ARC
  5
187
330
17
100
AcDbEntity
  8
0
  6
Continuous
 62
7
370
25
100
AcDbCircle
 10
279.7826632732
 20
162.6718622439999
 30
0.0
 40
6.065259955846861
100
AcDbArc
 50
-121.0692370805
 51
-53.72206644649996
  0
LWPOLYLINE
  5
188
330
17
100
AcDbEntity
  8
0
  6
Continuous
 62
7
370
25
100
AcDbPolyline
 90
25
 70
128
 10
276.6525432638
 20
170.7439162588999
 10
277.0828431661
 20
171.5327521340999
 10
277.54567015279997
 20
172.3032504045999
 10
278.0386297755
 20
173.0514248753999
 10
278.55917169329996
 20
173.7734048445999
 10
279.10460286759997
 20
174.46545512789987
 10
279.6721014948
 20
175.1239953835999
 10
280.2587316043
 20
175.74561863449986
 10
280.8614582484
 20
176.3271088951999
 10
281.4771632037
 20
176.86545780889992
 10
282.1026611029
 20
177.35788021219992
 10
282.73471591450004
 20
177.8018285436999
 10
283.37005768510005
 20
178.1950060238999
 10
284.0053994556
 20
178.53537853789987
 10
284.6374542673
 20
178.8211851587999
 10
285.2629521665
 20
179.0509472575999
 10
285.87865712170003
 20
179.22347615379988
 10
286.4813837659
 20
179.33787926399987
 10
287.06801387539997
 20
179.3935647205999
 10
287.6355125025
 20
179.3902444330999
 10
288.18094367690003
 20
179.3279355791999
 10
288.7014855947
 20
179.20696051559992
 10
289.1944452173
 20
179.02794511019988
 10
289.65727220409997
 20
178.7918155042999
 10
290.0875721064
 20
178.4997933211999
  0
SPLINE
  5
189
330
17
100
AcDbEntity
  8
0
  6
Continuous
 62
7
370
25
100
AcDbSpline
 70
8
 71
3
 72
8
 73
4
 74
0
 42
1e-08
 43
1e-08
 40
0.0
 40
0.0
 40
0.0
 40
0.0
 40
1.0
 40
1.0
 40
1.0
 40
1.0
 10
276.6525432638165
 20
170.7439162589231
 30
0.0
 10
276.9003675883084
 20
170.160523773786
 30
0.0
 10
277.1375653242435
 20
169.57717621787282
 30
0.0
 10
277.35965004500304
 20
168.9938925597982
 30
0.0
  0
SPLINE
  5
18A
330
17
100
AcDbEntity
  8
0
  6
Continuous
 62
7
370
25
100
AcDbSpline
 70
8
 71
3
 72
8
 73
4
 74
0
 42
1e-08
 43
1e-08
 40
0.0
 40
0.0
 40
0.0
 40
0.0
 40
1.0
 40
1.0
 40
1.0
 40
1.0
 10
290.79467888754755
 20
176.749769622114
 30
0.0
 10
290.5724200360812
 20
177.3335106173493
 30
0.0
 10
290.33522371373726
 20
177.9168074219661
 30
0.0
 10
290.0875721063609
 20
178.49979332123877
 30
0.0
  0
LWPOLYLINE
  5
18B
330
17
100
AcDbEntity
  8
0
  6
Continuous
 62
7
370
25
100
AcDbPolyline
 90
27
 70
128
 10
277.35965004499997
 20
168.99389255979992
 10
277.72078476679997
 20
169.76711377039987
 10
278.1174472537
 20
170.5281107617999
 10
278.5474204369
 20
171.2726300872999
 10
279.00830106370006
 20
171.9965103988999
 10
279.4975131302
 20
172.69570570659988
 10
280.0123222794
 20
173.3663079921999
 10
280.54985108439996
 20
174.00456905279987
 10
281.1070951309
 20
174.60692145079992
 10
281.68093981030006
 20
175.1699984528999
 10
282.2681777278
 20
175.69065284819987
 10
282.86552662969996
 20
176.1659745387999
 10
283.4696477489
 20
176.5933068053999
 10
284.0771644663
 20
176.97026115609987
 10
284.6846811836
 20
177.2947306769999
 10
285.28880230280004
 20
177.5649018078999
 10
285.8861512047
 20
177.77926447909988
 10
286.47338912220005
 20
177.93662055139987
 10
287.0472338016
 20
178.03609051349991
 10
287.60447784819996
 20
178.0771183968999
 10
288.1420066531
 20
178.0594748842999
 10
288.65681580240005
 20
177.98325859049987
 10
289.1460278689
 20
177.8488955120999
 10
289.6069084956
 20
177.65713664549992
 10
290.0368816788
 20
177.40905379039987
 10
290.4335441657
 20
177.1060335580999
 10
290.7946788875
 20
176.7497696220999
  0
LINE
  5
18C
330
17
100
AcDbEntity
  8
0
  6
Continuous
 62
7
370
25
100
AcDbLine
 10
277.35965004499997
 20
168.99389255979992
 30
0.0
 11
277.35965004499997
 21
158.41031401679987
 31
0.0
  0
LINE
  5
18D
330
17
100
AcDbEntity
  8
0
  6
Continuous
 62
7
370
25
100
AcDbLine
 10
290.7946788875
 20
166.16619107909992
 30
0.0
 11
290.7946788875
 21
176.7497696220999
 31
0.0
  0
LWPOLYLINE
  5
18E
330
17
100
AcDbEntity
  8
0
  6
Continuous
 62
7
370
25
100
AcDbPolyline
 90
27
 70
128
 10
290.7946788875
 20
166.16619107909992
 10
290.4335441657
 20
165.3929698684999
 10
290.0368816788
 20
164.63197287709988
 10
289.6069084956
 20
163.8874535515999
 10
289.1460278689
 20
163.1635732399999
 10
288.65681580240005
 20
162.4643779322999
 10
288.1420066531
 20
161.79377564669988
 10
287.60447784819996
 20
161.1555145860999
 10
287.0472338016
 20
160.55316218809992
 10
286.47338912220005
 20
159.99008518599987
 10
285.8861512047
 20
159.4694307906999
 10
285.28880230280004
 20
158.99410910009988
 10
284.6846811836
 20
158.5667768334999
 10
284.0771644663
 20
158.1898224827999
 10
283.4696477489
 20
157.86535296189987
 10
282.86552662969996
 20
157.59518183099988
 10
282.2681777278
 20
157.3808191598999
 10
281.68093981030006
 20
157.2234630874999
 10
281.1070951309
 20
157.12399312539986
 10
280.54985108439996
 20
157.0829652419999
 10
280.0123222794
 20
157.10060875469986
 10
279.4975131302
 20
157.1768250483999
 10
279.00830106370006
 20
157.31118812689988
 10
278.5474204369
 20
157.50294699339992
 10
278.1174472537
 20
157.7510298484999
 10
277.72078476679997
 20
158.05405008079987
 10
277.35965004499997
 20
158.41031401679987
  0
LWPOLYLINE
  5
18F
330
17
100
AcDbEntity
  8
0
  6
Continuous
 62
7
370
25
100
AcDbPolyline
 90
53
 70
128
 10
287.08236828630004
 20
169.3149090570999
 10
287.0604569669
 20
169.7205581762999
 10
286.99504252500003
 20
170.09499374709986
 10
286.8870788506
 20
170.43275565559986
 10
286.738140297
 20
170.72891857259987
 10
286.5503987239
 20
170.9791637758999
 10
286.326591826
 20
171.17984212689987
 10
286.069983212
 20
171.3280272832999
 10
285.7843148132
 20
171.42155837199988
 10
285.4737523182
 20
171.4590714989999
 10
285.1428244274
 20
171.4400196384999
 10
284.7963568148
 20
171.3646806093999
 10
284.4394017582
 20
171.2341530245999
 10
284.0771644663
 20
171.05034026999988
 10
283.7149271743
 20
170.81592274949992
 10
283.35797211780005
 20
170.53431879859988
 10
283.0115045051
 20
170.20963483679986
 10
282.6805766144
 20
169.84660548749991
 10
282.3700141194
 20
169.45052453609986
 10
282.0843457206
 20
169.0271677346999
 10
281.82773710649997
 20
168.5827085787999
 10
281.60393020870004
 20
168.12362828379992
 10
281.4161886355
 20
167.6566212740999
 10
281.26725008200003
 20
167.1884975633999
 10
281.15928640749996
 20
166.7260834496999
 10
281.0938719656
 20
166.27612197199988
 10
281.07196064619995
 20
165.84517458179988
 10
281.0938719656
 20
165.43952546259987
 10
281.15928640749996
 20
165.06508989179991
 10
281.26725008200003
 20
164.72732798329992
 10
281.4161886355
 20
164.4311650662999
 10
281.60393020870004
 20
164.18091986309992
 10
281.82773710649997
 20
163.9802415120999
 10
282.0843457206
 20
163.8320563555999
 10
282.3700141194
 20
163.7385252668999
 10
282.6805766144
 20
163.7010121398999
 10
283.0115045051
 20
163.72006400039987
 10
283.35797211780005
 20
163.79540302949988
 10
283.7149271743
 20
163.92593061439987
 10
284.0771644663
 20
164.1097433688999
 10
284.4394017582
 20
164.34416088939992
 10
284.7963568148
 20
164.6257648402999
 10
285.1428244274
 20
164.9504488020999
 10
285.4737523182
 20
165.31347815139986
 10
285.7843148132
 20
165.70955910279991
 10
286.069983212
 20
166.13291590419988
 10
286.326591826
 20
166.57737506009988
 10
286.5503987239
 20
167.03645535509992
 10
286.738140297
 20
167.50346236489992
 10
286.8870788506
 20
167.97158607549989
 10
286.99504252500003
 20
168.43400018919988
 10
287.0604569669
 20
168.8839616668999
 10
287.08236828630004
 20
169.3149090570999
  0
SPLINE
  5
190
330
17
100
AcDbEntity
  8
0
  6
Continuous
 62
7
370
25
100
AcDbSpline
 70
8
 71
3
 72
8
 73
4
 74
0
 42
1e-08
 43
1e-08
 40
0.0
 40
0.0
 40
0.0
 40
0.0
 40
1.0
 40
1.0
 40
1.0
 40
1.0
 10
277.35965004500304
 20
158.41031401680027
 30
0.0
 10
277.1373911935367
 20
158.08318762927252
 30
0.0
 10
276.900194871193
 20
157.77375186913758
 30
0.0
 10
276.6525432638165
 20
157.47669842949807
 30
0.0
  0
LINE
  5
191
330
17
100
AcDbEntity
  8
0
  6
Continuous
 62
7
370
25
100
AcDbLine
 10
270.2885822331
 20
161.15053493269988
 30
0.0
 11
270.2885822331
 21
174.4177527620999
 31
0.0
  0
LWPOLYLINE
  5
192
330
17
100
AcDbEntity
  8
0
  6
Continuous
 62
7
370
25
100
AcDbPolyline
 90
47
 70
128
 10
238.1152236891
 20
181.86718377639988
 10
238.1370160899
 20
182.6645035031999
 10
238.2023037426
 20
183.48370784259987
 10
238.3108183663
 20
184.3214305081999
 10
238.46211405100001
 20
185.17422911799991
 10
238.65556909039998
 20
186.03859933939987
 10
238.89038853620002
 20
186.91098928999992
 10
239.165607465
 20
187.7878141321999
 10
239.48009494299998
 20
188.66547080459986
 10
239.8325586739
 20
189.5403528277999
 10
240.2215503086
 20
190.4088651238999
 10
240.6454713969
 20
191.26743878949986
 10
241.10257995620003
 20
192.1125457611999
 10
241.59099762940002
 20
192.9407133133999
 10
242.1087174035
 20
193.74853832769992
 10
242.6536118569
 20
194.53270127809986
 10
243.2234419014
 20
195.28997987069988
 10
243.81586598310003
 20
196.01726228529986
 10
244.4284497044
 20
196.7115599624999
 10
245.0586758275
 20
197.3700198842999
 10
245.70395461779998
 20
197.98993629749987
 10
246.3616344866
 20
198.56876183269986
 10
247.02901288610002
 20
199.10411797149987
 10
247.7033474154
 20
199.5938048207999
 10
248.3818670892
 20
200.03581015229992
 10
249.06178372469998
 20
200.42831767109988
 10
249.74030339850003
 20
200.7697144798999
 10
250.41463792780002
 20
201.0585977057999
 10
251.08201632729998
 20
201.29378026569987
 10
251.7396961961
 20
201.4742957439999
 10
252.38497498639998
 20
201.59940236379987
 10
253.01520110939998
 20
201.66858603539987
 10
253.6277848308
 20
201.68156246799987
 10
254.22020891250003
 20
201.63827833879986
 10
254.79003895699998
 20
201.5389115115999
 10
255.33493341040003
 20
201.3838703058999
 10
255.8526531845
 20
201.17379181929988
 10
256.3410708577
 20
200.90953930939992
 10
256.79817941700003
 20
200.59219864639988
 10
257.2221005053
 20
200.2230738510999
 10
257.61109214
 20
199.8036817365999
 10
257.9635558709
 20
199.33574567499988
 10
258.2780433489
 20
198.8211885159999
 10
258.5532622777
 20
198.26212468519986
 10
258.7880817235
 20
197.66085149589986
 10
258.9815367629
 20
197.01983970859987
 10
259.1174353632
 20
196.42235249139986
  0
LWPOLYLINE
  5
193
330
17
100
AcDbEntity
  8
0
  6
Continuous
 62
7
370
25
100
AcDbPolyline
 90
23
 70
128
 10
246.61845120520002
 20
174.7711309318999
 10
246.3616344866
 20
174.68670896439988
 10
245.70395461779998
 20
174.5061934860999
 10
245.0586758275
 20
174.3810868661999
 10
244.4284497044
 20
174.31190319469988
 10
243.81586598310003
 20
174.2989267619999
 10
243.2234419014
 20
174.3422108911999
 10
242.6536118569
 20
174.4415777184999
 10
242.1087174035
 20
174.5966189241999
 10
241.59099762940002
 20
174.80669741079987
 10
241.10257995620003
 20
175.0709499206999
 10
240.6454713969
 20
175.38829058369987
 10
240.2215503086
 20
175.7574153788999
 10
239.8325586739
 20
176.1768074933999
 10
239.48009494299998
 20
176.64474355499988
 10
239.165607465
 20
177.1593007140999
 10
238.89038853620002
 20
177.7183645447999
 10
238.65556909039998
 20
178.3196377340999
 10
238.46211405100001
 20
178.9606495213999
 10
238.3108183663
 20
179.63876585179992
 10
238.2023037426
 20
180.3512001997999
 10
238.1370160899
 20
181.09502501989988
 10
238.1152236891
 20
181.86718377639988
  0
LWPOLYLINE
  5
194
330
17
100
AcDbEntity
  8
0
  6
Continuous
 62
7
370
25
100
AcDbPolyline
 90
38
 70
128
 10
221.8517677219
 20
191.25587706229987
 10
221.8735601226
 20
192.0531967890999
 10
221.93884777530002
 20
192.87240112849992
 10
222.047362399
 20
193.7101237941999
 10
222.19865808370002
 20
194.5629224038999
 10
222.3921131231
 20
195.4272926253999
 10
222.62693256890003
 20
196.2996825758999
 10
222.9021514977
 20
197.1765074180999
 10
223.21663897579998
 20
198.0541640905999
 10
223.5691027066
 20
198.92904611379987
 10
223.9580943413
 20
199.79755840979988
 10
224.38201542960002
 20
200.6561320753999
 10
224.83912398889998
 20
201.50123904719987
 10
225.32754166210003
 20
202.3294065992999
 10
225.84526143620002
 20
203.1372316136999
 10
226.3901558896
 20
203.9213945640999
 10
226.95998593410002
 20
204.67867315659987
 10
227.55241001579998
 20
205.4059555712999
 10
228.1649937372
 20
206.10025324849988
 10
228.7952198602
 20
206.75871317029987
 10
229.4404986505
 20
207.3786295834999
 10
230.0981785193
 20
207.9574551185999
 10
230.76555691880003
 20
208.4928112574999
 10
231.4398914481
 20
208.98249810679988
 10
232.1184111219
 20
209.4245034381999
 10
232.7983277574
 20
209.8170109570999
 10
233.47684743119999
 20
210.15840776589988
 10
234.15118196050003
 20
210.4472909916999
 10
234.81856036
 20
210.6824735515999
 10
235.4762402288
 20
210.8629890298999
 10
236.12151901919998
 20
210.9880956497999
 10
236.75174514219998
 20
211.05727932129992
 10
237.36432886350002
 20
211.0702557539999
 10
237.95675294519998
 20
211.0269716247999
 10
238.5265829897
 20
210.92760479759988
 10
239.07147744309998
 20
210.7725635917999
 10
239.58919721720002
 20
210.56248510519987
 10
239.95775993440003
 20
210.36967083669987
  0
ARC
  5
195
330
17
100
AcDbEntity
  8
0
  6
Continuous
 62
7
370
25
100
AcDbCircle
 10
229.32895739410003
 20
190.5021088175999
 30
0.0
 40
7.515086956371775
100
AcDbArc
 50
174.243515443
 51
-125.55569583640003
  0
LWPOLYLINE
  5
196
330
17
100
AcDbEntity
  8
0
  6
Continuous
 62
7
370
25
100
AcDbPolyline
 90
34
 70
128
 10
220.0840007689
 20
194.3174074816999
 10
220.10553172610003
 20
195.0418246349999
 10
220.17001970119998
 20
195.7875716148999
 10
220.2771505152
 20
196.55101521709992
 10
220.42640223760003
 20
197.32843602089991
 10
220.6170477289
 20
198.11604651049987
 10
220.8481581835
 20
198.91000952669987
 10
221.11860765440002
 20
199.7064569613999
 10
221.4270785392
 20
200.5015086028999
 10
221.7720679985
 20
201.29129103949987
 10
222.15189527849998
 20
202.0719565304999
 10
222.5647098988
 20
202.83970175209987
 10
223.008500668
 20
203.5907863266999
 10
223.4811054822
 20
204.32155104589987
 10
223.9802218583
 20
205.02843569729987
 10
224.50341815130002
 20
205.7079964100999
 10
225.04814540159998
 20
206.3569224326999
 10
225.6117497527
 20
206.9720522626999
 10
226.19148538090002
 20
207.55038904949987
 10
226.7845278725
 20
208.08911519439988
 10
227.3879879841
 20
208.58560607769988
 10
227.99892571869998
 20
209.0374428457999
 10
228.61436464899998
 20
209.4424241952999
 10
229.23130641850003
 20
209.7985770978999
 10
229.84674534880003
 20
210.10416641239988
 10
230.45768308330003
 20
210.35770333829987
 10
231.0611431949
 20
210.55795266929988
 10
231.6541856865
 20
210.70393881069987
 10
232.2339213147
 20
210.79495053279987
 10
232.79752566590003
 20
210.83054443549992
 10
233.3422529161
 20
210.8105471089999
 10
233.8654492092
 20
210.7350559781999
 10
234.3645655852
 20
210.60443882829986
 10
234.47373073260002
 20
210.56735897879992
  0
ARC
  5
197
330
17
100
AcDbEntity
  8
0
  6
Continuous
 62
7
370
25
100
AcDbCircle
 10
226.82788962630002
 20
193.8191277764999
 30
0.0
 40
6.76227177700914
100
AcDbArc
 50
175.7743162023
 51
-135.0109815632
  0
LWPOLYLINE
  5
198
330
17
100
AcDbEntity
  8
0
  6
HIDDEN
 62
7
370
18
100
AcDbPolyline
 90
47
 70
128
 10
254.9713174859
 20
198.81585539479988
 10
255.07995104190002
 20
198.7509237884999
 10
255.4927656622
 20
198.4598041821999
 10
255.87259294220001
 20
198.1176779340999
 10
256.2175824015
 20
197.72621184889988
 10
256.5260532862
 20
197.2873131099999
 10
256.7965027572
 20
196.8031199878999
 10
257.02761321180003
 20
196.2759914228999
 10
257.2182587031
 20
195.70849553229988
 10
257.36751042550003
 20
195.1033970989999
 10
257.4746412394
 20
194.4636441018999
 10
257.5391292145
 20
193.79235335319987
 10
257.5606601718
 20
193.0927953138999
 10
257.5391292145
 20
192.3683781605999
 10
257.4746412394
 20
191.6226311805999
 10
257.36751042550003
 20
190.85918757849987
 10
257.2182587031
 20
190.08176677459988
 10
257.02761321180003
 20
189.29415628509992
 10
256.7965027572
 20
188.50019326889986
 10
256.5260532862
 20
187.7037458340999
 10
256.2175824015
 20
186.9086941925999
 10
255.87259294220001
 20
186.11891175609986
 10
255.4927656622
 20
185.33824626509988
 10
255.07995104190002
 20
184.57050104349992
 10
254.63616027260002
 20
183.81941646889987
 10
254.16355545840003
 20
183.08865174969986
 10
253.6644390824
 20
182.38176709819987
 10
253.1412427894
 20
181.7022063854999
 10
252.59651553909998
 20
181.0532803628999
 10
252.032911188
 20
180.4381505328999
 10
251.4531755598
 20
179.85981374609992
 10
250.86013306810003
 20
179.3210876011999
 10
250.25667295660003
 20
178.8245967178999
 10
249.64573522199998
 20
178.3727599497999
 10
249.03029629169998
 20
177.9677786001999
 10
248.4133545222
 20
177.61162569769988
 10
247.7979155919
 20
177.3060363831999
 10
247.1869778573
 20
177.05249945729992
 10
246.58351774570002
 20
176.8522501262999
 10
245.99047525409998
 20
176.70626398479988
 10
245.41073962590002
 20
176.6152522627999
 10
244.8471352748
 20
176.57965836009987
 10
244.30240802449998
 20
176.59965568659987
 10
243.77921173150003
 20
176.67514681739988
 10
243.2800953555
 20
176.80576396729987
 10
242.8074905413
 20
176.99087078259987
 10
242.472333328
 20
177.16463383529987
  0
ARC
  5
199
330
17
100
AcDbEntity
  8
0
  6
HIDDEN
 62
7
370
18
100
AcDbCircle
 10
273.5432119017
 20
173.39432666869988
 30
0.0
 40
18.44803612461189
100
AcDbArc
 50
-57.80821543270003
 51
-26.258288579600016
  0
LINE
  5
19A
330
17
100
AcDbEntity
  8
0
  6
HIDDEN
 62
7
370
18
100
AcDbLine
 10
283.7236110757
 20
168.90641199499987
 30
0.0
 11
290.0875721064
 21
165.23257549179988
 31
0.0
  0
LWPOLYLINE
  5
19B
330
17
100
AcDbEntity
  8
0
  6
HIDDEN
 62
7
370
18
100
AcDbPolyline
 90
21
 70
128
 10
283.7236110757
 20
168.90641199499987
 10
284.11288562109996
 20
169.6960769279999
 10
284.46660321319996
 20
170.49557825319988
 10
284.782994119
 20
171.3009158756999
 10
285.06047535950006
 20
172.10806049989986
 10
285.2976586303
 20
172.9129737895999
 10
285.4933572471
 20
173.71162857259986
 10
285.6465920831
 20
174.50002898909992
 10
285.7565964683
 20
175.2742304845999
 10
285.8228200244
 20
176.03035954509988
 10
285.84493141919995
 20
176.76463307749987
 10
285.8228200244
 20
177.4733773366999
 10
285.7565964683
 20
178.1530463068999
 10
285.6465920831
 20
178.80023944279986
 10
285.4933572471
 20
179.4117186833999
 10
285.2976586303
 20
179.98442465279987
 10
285.06047535950006
 20
180.51549196709988
 10
284.782994119
 20
181.00226357039992
 10
284.46660321319996
 20
181.4423040285999
 10
284.11288562109996
 20
181.83341171479987
 10
283.7236110757
 20
182.17362982439988
  0
LINE
  5
19C
330
17
100
AcDbEntity
  8
0
  6
HIDDEN
 62
7
370
18
100
AcDbLine
 10
290.0875721064
 20
178.4997933211999
 30
0.0
 11
283.7236110757
 21
182.17362982439988
 31
0.0
  0
LWPOLYLINE
  5
19D
330
17
100
AcDbEntity
  8
0
  6
HIDDEN
 62
7
370
18
100
AcDbPolyline
 90
53
 70
128
 10
272.9402326626
 20
177.47899017529988
 10
272.9183213432
 20
177.88463929459988
 10
272.8529069013
 20
178.2590748652999
 10
272.7449432269
 20
178.5968367737999
 10
272.5960046733
 20
178.8929996907999
 10
272.40826310020003
 20
179.1432448940999
 10
272.1844562023
 20
179.34392324509992
 10
271.9278475882
 20
179.49210840159986
 10
271.6421791895
 20
179.58563949019987
 10
271.3316166944
 20
179.62315261729987
 10
271.00068880370003
 20
179.6041007566999
 10
270.6542211911
 20
179.52876172769987
 10
270.2972661345
 20
179.39823414279988
 10
269.9350288425
 20
179.21442138819987
 10
269.5727915506
 20
178.9800038677999
 10
269.21583649400003
 20
178.69839991679987
 10
268.8693688814
 20
178.3737159550999
 10
268.5384409907
 20
178.0106866057999
 10
268.2278784956
 20
177.6146056542999
 10
267.9422100968
 20
177.1912488528999
 10
267.6856014828
 20
176.74678969709987
 10
267.4617945849
 20
176.2877094019999
 10
267.2740530118
 20
175.8207023922999
 10
267.1251144582
 20
175.35257868169987
 10
267.0171507838
 20
174.89016456799988
 10
266.9517363419
 20
174.44020309019987
 10
266.9298250225
 20
174.0092557000999
 10
266.9517363419
 20
173.60360658079986
 10
267.0171507838
 20
173.2291710099999
 10
267.1251144582
 20
172.8914091015999
 10
267.2740530118
 20
172.5952461845999
 10
267.4617945849
 20
172.3450009812999
 10
267.6856014828
 20
172.14432263029988
 10
267.9422100968
 20
171.99613747379988
 10
268.2278784956
 20
171.9026063850999
 10
268.5384409907
 20
171.86509325809988
 10
268.8693688814
 20
171.8841451186999
 10
269.21583649400003
 20
171.95948414769987
 10
269.5727915506
 20
172.09001173259992
 10
269.9350288425
 20
172.27382448719987
 10
270.2972661345
 20
172.5082420075999
 10
270.6542211911
 20
172.78984595859987
 10
271.00068880370003
 20
173.1145299202999
 10
271.3316166944
 20
173.4775592695999
 10
271.6421791895
 20
173.8736402209999
 10
271.9278475882
 20
174.29699702239986
 10
272.1844562023
 20
174.74145617829987
 10
272.40826310020003
 20
175.2005364732999
 10
272.5960046733
 20
175.6675434830999
 10
272.7449432269
 20
176.13566719369987
 10
272.8529069013
 20
176.59808130739987
 10
272.9183213432
 20
177.04804278509988
 10
272.9402326626
 20
177.47899017529988
  0
SPLINE
  5
19E
330
17
100
AcDbEntity
  8
0
  6
HIDDEN
 62
7
370
18
100
AcDbSpline
 70
8
 71
3
 72
8
 73
4
 74
0
 42
1e-08
 43
1e-08
 40
0.0
 40
0.0
 40
0.0
 40
0.0
 40
1.0
 40
1.0
 40
1.0
 40
1.0
 10
290.0875721063609
 20
165.23257549181392
 30
0.0
 10
290.3353964308528
 20
165.5298361023809
 30
0.0
 10
290.5725941667879
 20
165.83932098171437
 30
0.0
 10
290.79467888754755
 20
166.166191079116
 30
0.0
  0
LINE
  5
19F
330
17
100
AcDbEntity
  8
0
  6
HIDDEN
 62
7
370
18
100
AcDbLine
 10
283.7236110757
 20
182.17362982439988
 30
0.0
 11
283.7236110757
 21
168.90641199499987
 31
0.0
  0
LWPOLYLINE
  5
1A0
330
17
100
AcDbEntity
  8
0
  6
HIDDEN
 62
7
370
18
100
AcDbPolyline
 90
33
 70
128
 10
259.1174353632
 20
196.42235249139986
 10
259.1328324476
 20
196.3417233781999
 10
259.2413470713
 20
195.6292890301999
 10
259.306634724
 20
194.88546421009988
 10
259.3284271247
 20
194.11330545369987
 10
259.306634724
 20
193.3159857268999
 10
259.2413470713
 20
192.49678138749988
 10
259.1328324476
 20
191.6590587218999
 10
258.9815367629
 20
190.8062601120999
 10
258.7880817235
 20
189.9418898905999
 10
258.5532622777
 20
189.0694999400999
 10
258.2780433489
 20
188.1926750978999
 10
257.9635558709
 20
187.3150184253999
 10
257.61109214
 20
186.44013640219987
 10
257.2221005053
 20
185.57162410619986
 10
256.79817941700003
 20
184.7130504405999
 10
256.3410708577
 20
183.86794346879987
 10
255.8526531845
 20
183.0397759166999
 10
255.33493341040003
 20
182.2319509022999
 10
254.79003895699998
 20
181.4477879518999
 10
254.22020891250003
 20
180.69050935939987
 10
253.6277848308
 20
179.9632269446999
 10
253.01520110939998
 20
179.2689292674999
 10
252.38497498639998
 20
178.6104693457999
 10
251.7396961961
 20
177.9905529324999
 10
251.08201632729998
 20
177.4117273973999
 10
250.41463792780002
 20
176.8763712584999
 10
249.74030339850003
 20
176.38668440919992
 10
249.06178372469998
 20
175.9446790777999
 10
248.3818670892
 20
175.5521715588999
 10
247.7033474154
 20
175.2107747501999
 10
247.02901288610002
 20
174.9218915242999
 10
246.61845120520002
 20
174.7711309318999
  0
LWPOLYLINE
  5
1A1
330
17
100
AcDbEntity
  8
0
  6
HIDDEN
 62
7
370
18
100
AcDbPolyline
 90
51
 70
128
 10
239.95775993440003
 20
210.36967083669987
 10
240.0776148904
 20
210.2982325952999
 10
240.53472344969998
 20
209.98089193229987
 10
240.958644538
 20
209.6117671370999
 10
241.3476361727
 20
209.1923750225999
 10
241.7000999036
 20
208.72443896099992
 10
242.0145873816
 20
208.20988180189988
 10
242.28980631040002
 20
207.6508179711999
 10
242.5246257562
 20
207.0495447818999
 10
242.71808079560003
 20
206.4085329945999
 10
242.8693764803
 20
205.73041666419988
 10
242.97789110399998
 20
205.0179823161999
 10
243.0431787567
 20
204.27415749609992
 10
243.0649711575
 20
203.5019987396999
 10
243.0431787567
 20
202.70467901289987
 10
242.97789110399998
 20
201.8854746734999
 10
242.8693764803
 20
201.0477520077999
 10
242.71808079560003
 20
200.19495339799988
 10
242.5246257562
 20
199.33058317659987
 10
242.28980631040002
 20
198.45819322599988
 10
242.0145873816
 20
197.58136838389987
 10
241.7000999036
 20
196.70371171139988
 10
241.3476361727
 20
195.8288296881999
 10
240.958644538
 20
194.9603173921999
 10
240.53472344969998
 20
194.10174372659986
 10
240.0776148904
 20
193.2566367547999
 10
239.58919721720002
 20
192.4284692026999
 10
239.07147744309998
 20
191.62064418829988
 10
238.5265829897
 20
190.83648123789987
 10
237.95675294519998
 20
190.07920264529992
 10
237.36432886350002
 20
189.35192023069987
 10
236.75174514219998
 20
188.6576225534999
 10
236.1215190191
 20
187.9991626316999
 10
235.4762402288
 20
187.37924621849987
 10
234.81856036
 20
186.80042068329988
 10
234.15118196050003
 20
186.26506454449986
 10
233.47684743119999
 20
185.7753776951999
 10
232.7983277574
 20
185.33337236379987
 10
232.1184111219
 20
184.94086484489986
 10
231.4398914481
 20
184.5994680360999
 10
230.76555691880003
 20
184.31058481019988
 10
230.0981785193
 20
184.07540225029987
 10
229.4404986505
 20
183.89488677209988
 10
228.7952198602
 20
183.76978015219987
 10
228.1649937372
 20
183.70059648059987
 10
227.55241001579998
 20
183.68762004799987
 10
226.95998593410002
 20
183.73090417719987
 10
226.3901558896
 20
183.8302710043999
 10
225.84526143620002
 20
183.9853122100999
 10
225.32754166210003
 20
184.19539069669992
 10
224.95897894490002
 20
184.3882049652999
  0
LWPOLYLINE
  5
1A2
330
17
100
AcDbEntity
  8
0
  6
HIDDEN
 62
7
370
18
100
AcDbPolyline
 90
50
 70
128
 10
234.47373073260002
 20
210.56735897879992
 10
234.8371703994
 20
210.41933201299992
 10
235.2809611687
 20
210.18063735399988
 10
235.69377578900003
 20
209.88951774769987
 10
236.0736030689
 20
209.54739149959988
 10
236.4185925283
 20
209.15592541439992
 10
236.727063413
 20
208.71702667549988
 10
236.997512884
 20
208.23283355339987
 10
237.22862333860002
 20
207.70570498839987
 10
237.41926882989998
 20
207.13820909779992
 10
237.56852055220003
 20
206.53311066449987
 10
237.6756513662
 20
205.89335766739987
 10
237.7401393413
 20
205.2220669186999
 10
237.7616702986
 20
204.52250887939988
 10
237.7401393413
 20
203.79809172609987
 10
237.6756513662
 20
203.05234474619988
 10
237.56852055220003
 20
202.2889011439999
 10
237.41926882989998
 20
201.5114803401999
 10
237.22862333860002
 20
200.7238698505999
 10
236.997512884
 20
199.9299068343999
 10
236.727063413
 20
199.13345939959987
 10
236.4185925283
 20
198.3384077580999
 10
236.0736030689
 20
197.5486253215999
 10
235.69377578900003
 20
196.76795983059986
 10
235.2809611687
 20
196.0002146089999
 10
234.8371703994
 20
195.2491300343999
 10
234.3645655852
 20
194.5183653151999
 10
233.8654492092
 20
193.8114806636999
 10
233.3422529161
 20
193.13191995099987
 10
232.79752566590003
 20
192.48299392839988
 10
232.2339213147
 20
191.86786409839988
 10
231.6541856865
 20
191.2895273115999
 10
231.0611431949
 20
190.7508011666999
 10
230.45768308330003
 20
190.2543102833999
 10
229.84674534880003
 20
189.80247351529988
 10
229.23130641850003
 20
189.39749216579992
 10
228.61436464899998
 20
189.04133926319992
 10
227.99892571869998
 20
188.7357499486999
 10
227.3879879841
 20
188.4822130227999
 10
226.7845278725
 20
188.2819636917999
 10
226.19148538090002
 20
188.1359775503999
 10
225.6117497527
 20
188.0449658282999
 10
225.04814540159998
 20
188.0093719255999
 10
224.50341815130002
 20
188.0293692520999
 10
223.9802218583
 20
188.10486038289991
 10
223.4811054822
 20
188.2354775327999
 10
223.008500668
 20
188.4205843480999
 10
222.5647098988
 20
188.65927900709988
 10
222.15189527849998
 20
188.9503986133999
 10
222.04532501250003
 20
189.03839610649987
  0
LWPOLYLINE
  5
1A3
330
17
100
AcDbEntity
  8
0
  6
HIDDEN
 62
7
370
18
100
AcDbPolyline
 90
91
 70
128
 10
223.61953467479998
 20
192.2763872020999
 10
223.64106563209998
 20
193.0008043554999
 10
223.7055536072
 20
193.7465513353999
 10
223.8126844212
 20
194.50999493749987
 10
223.9619361435
 20
195.2874157413999
 10
224.15258163480001
 20
196.07502623099987
 10
224.38369208940003
 20
196.86898924709988
 10
224.65414156039998
 20
197.6654366818999
 10
224.96261244509998
 20
198.4604883233999
 10
225.30760190440003
 20
199.25027075989988
 10
225.6874291844
 20
200.0309362508999
 10
226.10024380470003
 20
200.79868147249988
 10
226.54403457400002
 20
201.5497660471999
 10
227.01663938820002
 20
202.28053076629988
 10
227.51575576419998
 20
202.98741541779987
 10
228.0389520572
 20
203.6669761304999
 10
228.5836793075
 20
204.3159021530999
 10
229.14728365860003
 20
204.9310319830999
 10
229.72701928690003
 20
205.50936876989988
 10
230.32006177850002
 20
206.0480949147999
 10
230.92352189000002
 20
206.5445857980999
 10
231.5344596246
 20
206.9964225661999
 10
232.1498985549
 20
207.4014039157999
 10
232.7668403244
 20
207.75755681829992
 10
233.3822792547
 20
208.0631461327999
 10
233.99321698929998
 20
208.31668305879987
 10
234.59667710090002
 20
208.5169323896999
 10
235.1897195925
 20
208.66291853119986
 10
235.76945522070002
 20
208.75393025319988
 10
236.3330595718
 20
208.78952415589987
 10
236.8777868221
 20
208.76952682939987
 10
237.40098311510002
 20
208.69403569859992
 10
237.90009949109998
 20
208.56341854869987
 10
238.37270430540002
 20
208.37831173339987
 10
238.81649507460003
 20
208.1396170743999
 10
239.2293096949
 20
207.84849746809988
 10
239.60913697490003
 20
207.50637122009988
 10
239.95412643420002
 20
207.1149051348999
 10
240.26259731890002
 20
206.6760063958999
 10
240.53304678990003
 20
206.19181327389987
 10
240.76415724449998
 20
205.66468470879988
 10
240.9548027358
 20
205.09718881819987
 10
241.10405445819998
 20
204.49209038499987
 10
241.2111852722
 20
203.85233738789987
 10
241.27567324720002
 20
203.18104663909992
 10
241.29720420450002
 20
202.48148859989988
 10
241.27567324720002
 20
201.75707144649988
 10
241.2111852722
 20
201.0113244665999
 10
241.10405445819998
 20
200.2478808644999
 10
240.9548027358
 20
199.47046006059992
 10
240.76415724449998
 20
198.6828495709999
 10
240.53304678990003
 20
197.8888865547999
 10
240.26259731890002
 20
197.09243912009987
 10
239.95412643420002
 20
196.2973874785999
 10
239.60913697490003
 20
195.5076050419999
 10
239.2293096949
 20
194.72693955109992
 10
238.81649507460003
 20
193.9591943294999
 10
238.37270430540002
 20
193.20810975479986
 10
237.90009949109998
 20
192.4773450355999
 10
237.40098311510002
 20
191.7704603841999
 10
236.8777868221
 20
191.09089967139988
 10
236.3330595718
 20
190.44197364889988
 10
235.76945522070002
 20
189.8268438187999
 10
235.1897195925
 20
189.2485070319999
 10
234.59667710090002
 20
188.70978088719988
 10
233.99321698929998
 20
188.21329000389989
 10
233.3822792547
 20
187.76145323579988
 10
232.7668403244
 20
187.35647188619987
 10
232.1498985549
 20
187.00031898359987
 10
231.5344596246
 20
186.6947296691999
 10
230.92352189000002
 20
186.4411927431999
 10
230.32006177850002
 20
186.2409434121999
 10
229.72701928690003
 20
186.0949572707999
 10
229.14728365860003
 20
186.0039455487999
 10
228.5836793075
 20
185.96835164599992
 10
228.0389520572
 20
185.98834897249986
 10
227.51575576419998
 20
186.06384010329987
 10
227.01663938820002
 20
186.19445725319991
 10
226.54403457400002
 20
186.3795640685999
 10
226.10024380470003
 20
186.61825872759988
 10
225.6874291844
 20
186.9093783337999
 10
225.30760190440003
 20
187.2515045818999
 10
224.96261244509998
 20
187.64297066709992
 10
224.65414156039998
 20
188.0818694059999
 10
224.38369208940003
 20
188.5660625280999
 10
224.15258163480001
 20
189.0931910930999
 10
223.9619361435
 20
189.66068698369992
 10
223.8126844212
 20
190.2657854169999
 10
223.7055536072
 20
190.9055384140999
 10
223.64106563209998
 20
191.57682916279987
 10
223.61953467479998
 20
192.2763872020999
  0
LINE
  5
1A4
330
17
100
AcDbEntity
  8
0
  6
HIDDEN
 62
7
370
18
100
AcDbLine
 10
286.20199177309996
 20
171.2607494845999
 30
0.0
 11
272.0598561494
 21
179.4248306027999
 31
0.0
  0
LINE
  5
1A5
330
17
100
AcDbEntity
  8
0
  6
HIDDEN
 62
7
370
18
100
AcDbLine
 10
267.8102015357
 20
172.0634152725999
 30
0.0
 11
281.95233715940003
 21
163.89933415429988
 31
0.0
  0
LINE
  5
1A6
330
17
100
AcDbEntity
  8
0
  6
HIDDEN
 62
7
370
18
100
AcDbLine
 10
222.6733434547
 20
188.5943474007999
 30
0.0
 11
226.2088773607
 21
186.5533271211999
 31
0.0
  0
LINE
  5
1A7
330
17
100
AcDbEntity
  8
0
  6
HIDDEN
 62
7
370
18
100
AcDbLine
 10
238.7078615186
 20
208.20454868069987
 30
0.0
 11
235.17232761270003
 21
210.24556896029986
 31
0.0
  0
MTEXT
  5
1B3
330
17
100
AcDbEntity
  8
0
100
AcDbMText
 10
224.477
 20
22.51
 30
0.0
 40
4.2124
 71
7
  1
\T1.000000;í[éqñ_
  7
GMM008
  0
MTEXT
  5
1B4
330
17
100
AcDbEntity
  8
0
100
AcDbMText
 10
224.477
 20
14.877
 30
0.0
 40
4.2124
 71
7
  1
\T1.000000;ÉeÉXÉgëïíu
  7
GMM008
  0
MTEXT
  5
1B5
330
17
100
AcDbEntity
  8
0
100
AcDbMText
 10
273.605
 20
20.498
 30
0.0
 40
4.2124
 71
7
  1
\T1.000000;ÉeÉXÉgÅ|ÇOÇOÇR
  7
GMM008
  0
MTEXT
  5
1B6
330
17
100
AcDbEntity
  8
0
100
AcDbMText
 10
191.878
 20
22.586
 30
0.0
 40
4.2124
 71
8
  1
\T1.000000;Ç`Çh
  7
GMM008
  0
MTEXT
  5
1B7
330
17
100
AcDbEntity
  8
0
100
AcDbMText
 10
207.705
 20
22.586
 30
0.0
 40
4.2124
 71
8
  1
\T1.000000;ÇQÇUÅDÇOÇWÅDÇPÇO
  7
GMM009
  0
MTEXT
  5
1B8
330
17
100
AcDbEntity
  8
0
100
AcDbMText
 10
207.705
 20
14.722
 30
0.0
 40
4.2124
 71
8
  1
\T1.000000;ÅñÅñÅDÅñÅñÅDÅñÅñ
  7
GMM009
  0
MTEXT
  5
1BA
330
17
100
AcDbEntity
  8
0
100
AcDbMText
 10
176.415
 20
22.446
 30
0.0
 40
4.2124
 71
8
  1
\T1.000000;ÇPÅFÇP
  7
VF001
  0
MTEXT
  5
1BC
330
17
100
AcDbEntity
  8
0
100
AcDbMText
 10
19.324
 20
275.03
 30
0.0
 40
7.0
 71
8
  1
\T1.000000;ÇOÇR
  7
VF002
  0
MTEXT
  5
1BD
330
17
100
AcDbEntity
  8
0
100
AcDbMText
 10
33.595
 20
280.001
 30
0.0
 40
7.0
 71
4
  1
\T1.000000;çﬁéøÅ@ÇaÇbÇUÅ@É}ÉãÇRÇQ\P\T1.000000;å¬êîÅ@ÇP
  7
VF001
  0
MTEXT
  5
1BE
330
17
100
AcDbEntity
  8
0
100
AcDbMText
 10
224.593
 20
6.704
 30
0.0
 40
4.2124107142857
 71
7
  1
\T1.000000;ÇOÅDÇRÇU
  7
GMM008
  0
DIMENSION
  5
1CB
330
17
100
AcDbEntity
  8
1
100
AcDbDimension
  2
*D1
  3
GEN001
 10
125.31623381592647
 20
150.20886880250004
 30
0.0
 11
127.81623381592647
 21
152.70886880250004
 31
0.0
 70
32
 71
5
  1
<>
100
AcDbAlignedDimension
 13
125.31623381592647
 23
131.70886880250063
 33
0.0
 14
130.31623381592647
 24
134.20886880250063
 34
0.0
 50
0.0
100
AcDbRotatedDimension
  0
DIMENSION
  5
1DB
330
17
100
AcDbEntity
  8
1
100
AcDbDimension
  2
*D2
  3
GEN002
 10
193.31623381592647
 20
150.20886880250004
 30
0.0
 11
198.31623381592647
 21
152.70886880250004
 31
0.0
 70
32
 71
5
  1
<>
100
AcDbAlignedDimension
 13
193.31623381592647
 23
127.33290720710065
 33
0.0
 14
203.31623381592647
 24
130.70886880250063
 34
0.0
 50
0.0
100
AcDbRotatedDimension
  0
DIMENSION
  5
1EB
330
17
100
AcDbEntity
  8
1
100
AcDbDimension
  2
*D3
  3
GEN003
 10
125.31623381592647
 20
158.20886880250004
 30
0.0
 11
139.31623381592647
 21
160.70886880250004
 31
0.0
 70
32
 71
5
  1
<>
100
AcDbAlignedDimension
 13
125.31623381592647
 23
131.70886880250063
 33
0.0
 14
153.31623381592647
 24
134.20886880250063
 34
0.0
 50
0.0
100
AcDbRotatedDimension
  0
DIMENSION
  5
1FB
330
17
100
AcDbEntity
  8
1
100
AcDbDimension
  2
*D4
  3
GEN004
 10
153.31623381592647
 20
158.20886880250004
 30
0.0
 11
178.31623381592647
 21
160.70886880250004
 31
0.0
 70
32
 71
5
  1
<>
100
AcDbAlignedDimension
 13
153.31623381592647
 23
134.20886880250063
 33
0.0
 14
203.31623381592647
 24
130.70886880250063
 34
0.0
 50
0.0
100
AcDbRotatedDimension
  0
DIMENSION
  5
20B
330
17
100
AcDbEntity
  8
1
100
AcDbDimension
  2
*D5
  3
GEN005
 10
125.31623381592647
 20
88.20886880250004
 30
0.0
 11
164.31623381592647
 21
90.70886880250004
 31
0.0
 70
32
 71
5
  1
<>
100
AcDbAlignedDimension
 13
125.31623381592647
 23
106.70886880250063
 33
0.0
 14
203.31623381592647
 24
107.70886880250063
 34
0.0
 50
0.0
100
AcDbRotatedDimension
  0
DIMENSION
  5
21B
330
17
100
AcDbEntity
  8
1
100
AcDbDimension
  2
*D6
  3
GEN006
 10
109.31623381589998
 20
106.70886880250063
 30
0.0
 11
106.81623381589998
 21
119.20886880250063
 31
0.0
 70
32
 71
5
  1
<>
100
AcDbAlignedDimension
 13
125.31623381592647
 23
106.70886880250063
 33
0.0
 14
125.31623381592647
 24
131.70886880250063
 34
0.0
 50
90.0
100
AcDbRotatedDimension
  0
DIMENSION
  5
22B
330
17
100
AcDbEntity
  8
1
100
AcDbDimension
  2
*D7
  3
GEN007
 10
101.31623381589998
 20
104.20886880250063
 30
0.0
 11
98.81623381589998
 21
119.20886880250063
 31
0.0
 70
32
 71
5
  1
<>
100
AcDbAlignedDimension
 13
130.31623381592647
 23
104.20886880250063
 33
0.0
 14
130.31623381592647
 24
134.20886880250063
 34
0.0
 50
90.0
100
AcDbRotatedDimension
  0
DIMENSION
  5
23B
330
17
100
AcDbEntity
  8
1
100
AcDbDimension
  2
*D8
  3
GEN008
 10
219.31623381592652
 20
106.70886880250063
 30
0.0
 11
216.81623381592652
 21
119.20886880250063
 31
0.0
 70
32
 71
5
  1
<>
100
AcDbAlignedDimension
 13
202.31623381592647
 23
106.70886880250063
 33
0.0
 14
202.31623381592647
 24
131.70886880250063
 34
0.0
 50
90.0
100
AcDbRotatedDimension
  0
DIMENSION
  5
24B
330
17
100
AcDbEntity
  8
1
100
AcDbDimension
  2
*D9
  3
GEN009
 10
246.9999999999999
 20
88.20886880250004
 30
0.0
 11
256.4999999999999
 21
90.70886880250004
 31
0.0
 70
32
 71
5
  1
<>
100
AcDbAlignedDimension
 13
246.9999999999999
 23
125.68960950090064
 33
0.0
 14
265.9999999999999
 24
125.68960950090064
 34
0.0
 50
0.0
100
AcDbRotatedDimension
  0
LEADER
  5
25B
330
17
100
AcDbEntity
  8
1
100
AcDbLeader
  3
GENLDR
 73
3
 76
3
 10
259.5052038297999
 20
122.21407263230063
 30
0.0
 10
277.9999999999999
 20
132.20886880250063
 30
0.0
 10
289.9999999999999
 20
132.20886880250063
 30
0.0
  0
MTEXT
  5
25C
330
17
100
AcDbEntity
  8
1
100
AcDbMText
 10
290.9999999999999
 20
132.20886880250063
 30
0.0
 40
4.0
 71
7
  1
\A1;ÇlÇPÇOê[Ç≥ÇQÇO
  7
VF003
  0
MTEXT
  5
25D
330
17
100
AcDbEntity
  8
0
100
AcDbMText
 10
300.0
 20
75.0
 30
0.0
 40
3.5
 71
1
  1
íçãLÅD\PÅ@ìhëïïsóvÇ∆Ç∑ÇÈÅB\PÅ@éwé¶ñ≥Ç´äpïîÇÕÇbÇOÅDÇQÅAã˜ïîÇÕÇqÇQà»â∫Ç∆Ç∑ÇÈÅB
  7
VF003
  0
ENDSEC
  0
SECTION
  2
OBJECTS
  0
DICTIONARY
  5
A
330
0
100
AcDbDictionary
281
1
  3
ACAD_COLOR
350
B
  3
ACAD_GROUP
350
C
  3
ACAD_LAYOUT
350
D
  3
ACAD_MATERIAL
350
E
  3
ACAD_MLEADERSTYLE
350
F
  3
ACAD_MLINESTYLE
350
10
  3
ACAD_PLOTSETTINGS
350
11
  3
ACAD_PLOTSTYLENAME
350
12
  3
ACAD_SCALELIST
350
14
  3
ACAD_TABLESTYLE
350
15
  3
ACAD_VISUALSTYLE
350
16
  3
EZDXF_META
350
2D
  0
DICTIONARY
  5
B
330
A
100
AcDbDictionary
281
1
  0
DICTIONARY
  5
C
330
A
100
AcDbDictionary
281
1
  0
DICTIONARY
  5
D
330
A
100
AcDbDictionary
281
1
  3
Model
350
1A
  3
Layout1
350
1E
  0
DICTIONARY
  5
E
330
A
100
AcDbDictionary
281
1
  3
ByBlock
350
1F
  3
ByLayer
350
20
  3
Global
350
21
  0
DICTIONARY
  5
F
330
A
100
AcDbDictionary
281
1
  3
Standard
350
2C
  0
DICTIONARY
  5
10
330
A
100
AcDbDictionary
281
1
  3
Standard
350
22
  0
DICTIONARY
  5
11
330
A
100
AcDbDictionary
281
1
  0
ACDBDICTIONARYWDFLT
  5
12
330
A
100
AcDbDictionary
281
1
  3
Normal
350
13
100
AcDbDictionaryWithDefault
340
13
  0
ACDBPLACEHOLDER
  5
13
330
12
  0
DICTIONARY
  5
14
330
A
100
AcDbDictionary
281
1
  0
DICTIONARY
  5
15
330
A
100
AcDbDictionary
281
1
  0
DICTIONARY
  5
16
330
A
100
AcDbDictionary
281
1
  0
LAYOUT
  5
1A
330
D
100
AcDbPlotSettings
  1

  4
A3
  6

 40
7.5
 41
20.0
 42
7.5
 43
20.0
 44
420.0
 45
297.0
 46
0.0
 47
0.0
 48
0.0
 49
0.0
140
0.0
141
0.0
142
1.0
143
1.0
 70
1024
 72
1
 73
0
 74
5
  7

 75
16
 76
0
 77
2
 78
300
147
1.0
148
0.0
149
0.0
100
AcDbLayout
  1
Model
 70
1
 71
0
 10
0.0
 20
0.0
 11
420.0
 21
297.0
 12
0.0
 22
0.0
 32
0.0
 14
1e+20
 24
1e+20
 34
1e+20
 15
-1e+20
 25
-1e+20
 35
-1e+20
146
0.0
 13
0.0
 23
0.0
 33
0.0
 16
1.0
 26
0.0
 36
0.0
 17
0.0
 27
1.0
 37
0.0
 76
1
330
17
  0
LAYOUT
  5
1E
330
D
100
AcDbPlotSettings
  1

  4
A3
  6

 40
7.5
 41
20.0
 42
7.5
 43
20.0
 44
420.0
 45
297.0
 46
0.0
 47
0.0
 48
0.0
 49
0.0
140
0.0
141
0.0
142
1.0
143
1.0
 70
0
 72
1
 73
0
 74
5
  7

 75
16
 76
0
 77
2
 78
300
147
1.0
148
0.0
149
0.0
100
AcDbLayout
  1
Layout1
 70
1
 71
1
 10
0.0
 20
0.0
 11
420.0
 21
297.0
 12
0.0
 22
0.0
 32
0.0
 14
1e+20
 24
1e+20
 34
1e+20
 15
-1e+20
 25
-1e+20
 35
-1e+20
146
0.0
 13
0.0
 23
0.0
 33
0.0
 16
1.0
 26
0.0
 36
0.0
 17
0.0
 27
1.0
 37
0.0
 76
1
330
1B
  0
MATERIAL
  5
1F
102
{ACAD_REACTORS
330
E
102
}
330
E
100
AcDbMaterial
  1
ByBlock
  2

 70
0
 40
1.0
 71
1
 41
1.0
 91
-1023410177
 42
1.0
 72
1
  3

 73
1
 74
1
 75
1
 44
0.5
 73
0
 45
1.0
 46
1.0
 77
1
  4

 78
1
 79
1
170
1
 48
1.0
171
1
  6

172
1
173
1
174
1
140
1.0
141
1.0
175
1
  7

176
1
177
1
178
1
143
1.0
179
1
  8

270
1
271
1
272
1
145
1.0
146
1.0
273
1
  9

274
1
275
1
276
1
 42
1.0
 72
1
  3

 73
1
 74
1
 75
1
 94
63
  0
MATERIAL
  5
20
102
{ACAD_REACTORS
330
E
102
}
330
E
100
AcDbMaterial
  1
ByLayer
  2

 70
0
 40
1.0
 71
1
 41
1.0
 91
-1023410177
 42
1.0
 72
1
  3

 73
1
 74
1
 75
1
 44
0.5
 73
0
 45
1.0
 46
1.0
 77
1
  4

 78
1
 79
1
170
1
 48
1.0
171
1
  6

172
1
173
1
174
1
140
1.0
141
1.0
175
1
  7

176
1
177
1
178
1
143
1.0
179
1
  8

270
1
271
1
272
1
145
1.0
146
1.0
273
1
  9

274
1
275
1
276
1
 42
1.0
 72
1
  3

 73
1
 74
1
 75
1
 94
63
  0
MATERIAL
  5
21
102
{ACAD_REACTORS
330
E
102
}
330
E
100
AcDbMaterial
  1
Global
  2

 70
0
 40
1.0
 71
1
 41
1.0
 91
-1023410177
 42
1.0
 72
1
  3

 73
1
 74
1
 75
1
 44
0.5
 73
0
 45
1.0
 46
1.0
 77
1
  4

 78
1
 79
1
170
1
 48
1.0
171
1
  6

172
1
173
1
174
1
140
1.0
141
1.0
175
1
  7

176
1
177
1
178
1
143
1.0
179
1
  8

270
1
271
1
272
1
145
1.0
146
1.0
273
1
  9

274
1
275
1
276
1
 42
1.0
 72
1
  3

 73
1
 74
1
 75
1
 94
63
  0
MLINESTYLE
  5
22
102
{ACAD_REACTORS
330
10
102
}
330
10
100
AcDbMlineStyle
  2
Standard
 70
0
  3

 62
256
 51
90.0
 52
90.0
 71
2
 49
0.5
 62
256
  6
BYLAYER
 49
-0.5
 62
256
  6
BYLAYER
  0
MLEADERSTYLE
  5
2C
102
{ACAD_REACTORS
330
F
102
}
330
F
100
AcDbMLeaderStyle
179
2
170
2
171
1
172
0
 90
2
 40
0.0
 41
0.0
173
1
 91
-1056964608
 92
-2
290
1
 42
2.0
291
1
 43
8.0
  3
Standard
 44
4.0
300

342
29
174
1
175
1
176
0
178
1
 93
-1056964608
 45
4.0
292
0
297
0
 46
4.0
 94
-1056964608
 47
1.0
 49
1.0
140
1.0
294
1
141
0.0
177
0
142
1.0
295
0
296
0
143
3.75
271
0
272
9
273
9
  0
DICTIONARY
  5
2D
330
A
100
AcDbDictionary
280
1
281
1
  3
CREATED_BY_EZDXF
350
2E
  3
WRITTEN_BY_EZDXF
350
131
  0
DICTIONARYVAR
  5
2E
330
2D
100
DictionaryVariables
280
0
  1
1.4.4 @ 2026-08-09T08:45:52.074753+00:00
  0
DICTIONARYVAR
  5
131
330
2D
100
DictionaryVariables
280
0
  1
1.4.4 @ 2026-08-10T13:53:39.743444+00:00
  0
ENDSEC
  0
EOF
