  0
SECTION
  2
HEADER
  9
$ACADVER
  1
AC1015
  9
$ACADMAINTVER
 70
     6
  9
$DWGCODEPAGE
  3
DOS932
  9
$INSBASE
 10
0.0
 20
0.0
 30
0.0
  9
$EXTMIN
 10
0.0
 20
0.0
 30
0.0
  9
$EXTMAX
 10
841.0
 20
594.0
 30
0.0
  9
$LIMMIN
 10
0.0
 20
0.0
  9
$LIMMAX
 10
841.0
 20
594.0
  9
$ORTHOMODE
 70
     0
  9
$REGENMODE
 70
     1
  9
$FILLMODE
 70
     1
  9
$QTEXTMODE
 70
     0
  9
$MIRRTEXT
 70
     1
  9
$LTSCALE
 40
1.0
  9
$ATTMODE
 70
     1
  9
$TEXTSIZE
 40
3.5
  9
$TRACEWID
 40
1.0
  9
$TEXTSTYLE
  7
Standard
  9
$CLAYER
  8
0
  9
$CELTYPE
  6
ByLayer
  9
$CECOLOR
 62
   256
  9
$CELTSCALE
 40
1.0
  9
$DISPSILH
 70
     0
  9
$DIMSCALE
 40
1.0
  9
$DIMASZ
 40
3.302
  9
$DIMEXO
 40
1.0
  9
$DIMDLI
 40
3.75
  9
$DIMRND
 40
0.0
  9
$DIMDLE
 40
0.0
  9
$DIMEXE
 40
1.0
  9
$DIMTP
 40
0.0
  9
$DIMTM
 40
0.0
  9
$DIMTXT
 40
3.5
  9
$DIMCEN
 40
2.5
  9
$DIMTSZ
 40
0.0
  9
$DIMTOL
 70
     0
  9
$DIMLIM
 70
     0
  9
$DIMTIH
 70
     1
  9
$DIMTOH
 70
     1
  9
$DIMSE1
 70
     0
  9
$DIMSE2
 70
     0
  9
$DIMTAD
 70
     1
  9
$DIMZIN
 70
     1
  9
$DIMBLK
  1

  9
$DIMASO
 70
     1
  9
$DIMSHO
 70
     1
  9
$DIMPOST
  1

  9
$DIMAPOST
  1

  9
$DIMALT
 70
     0
  9
$DIMALTD
 70
     3
  9
$DIMALTF
 40
0.0393700787
  9
$DIMLFAC
 40
0.5
  9
$DIMTOFL
 70
     1
  9
$DIMTVP
 40
0.0
  9
$DIMTIX
 70
     0
  9
$DIMSOXD
 70
     0
  9
$DIMSAH
 70
     0
  9
$DIMBLK1
  1

  9
$DIMBLK2
  1

  9
$DIMSTYLE
  2
ISO-25
  9
$DIMCLRD
 70
     0
  9
$DIMCLRE
 70
     0
  9
$DIMCLRT
 70
     0
  9
$DIMTFAC
 40
1.0
  9
$DIMGAP
 40
1.524
  9
$DIMJUST
 70
     0
  9
$DIMSD1
 70
     0
  9
$DIMSD2
 70
     0
  9
$DIMTOLJ
 70
     0
  9
$DIMTZIN
 70
     1
  9
$DIMALTZ
 70
     0
  9
$DIMALTTZ
 70
     0
  9
$DIMUPT
 70
     0
  9
$DIMDEC
 70
     2
  9
$DIMTDEC
 70
     2
  9
$DIMALTU
 70
     2
  9
$DIMALTTD
 70
     3
  9
$DIMTXSTY
  7
Standard
  9
$DIMAUNIT
 70
     0
  9
$DIMADEC
 70
     2
  9
$DIMALTRND
 40
0.0
  9
$DIMAZIN
 70
     0
  9
$DIMDSEP
 70
    44
  9
$DIMATFIT
 70
     3
  9
$DIMFRAC
 70
     0
  9
$DIMLDRBLK
  1

  9
$DIMLUNIT
 70
     2
  9
$DIMLWD
 70
    -2
  9
$DIMLWE
 70
    -2
  9
$DIMTMOVE
 70
     0
  9
$LUNITS
 70
     2
  9
$LUPREC
 70
     2
  9
$SKETCHINC
 40
1.0
  9
$FILLETRAD
 40
0.0
  9
$AUNITS
 70
     0
  9
$AUPREC
 70
     2
  9
$MENU
  1
.
  9
$ELEVATION
 40
0.0
  9
$PELEVATION
 40
0.0
  9
$THICKNESS
 40
0.0
  9
$LIMCHECK
 70
     0
  9
$CHAMFERA
 40
0.0
  9
$CHAMFERB
 40
0.0
  9
$CHAMFERC
 40
0.0
  9
$CHAMFERD
 40
0.0
  9
$SKPOLY
 70
     0
  9
$TDCREATE
 40
2461263.416508253
  9
$TDUCREATE
 40
2461263.041508253
  9
$TDUPDATE
 40
2461263.416508646
  9
$TDUUPDATE
 40
2461263.041508646
  9
$TDINDWG
 40
0.0000000116
  9
$TDUSRTIMER
 40
0.0000000116
  9
$USRTIMER
 70
     1
  9
$ANGBASE
 50
0.0
  9
$ANGDIR
 70
     0
  9
$PDMODE
 70
     0
  9
$PDSIZE
 40
-1.0
  9
$PLINEWID
 40
0.0
  9
$SPLFRAME
 70
     0
  9
$SPLINETYPE
 70
     6
  9
$SPLINESEGS
 70
     8
  9
$HANDSEED
  5
118
  9
$SURFTAB1
 70
     6
  9
$SURFTAB2
 70
     6
  9
$SURFTYPE
 70
     6
  9
$SURFU
 70
     6
  9
$SURFV
 70
     6
  9
$UCSBASE
  2

  9
$UCSNAME
  2

  9
$UCSORG
 10
0.0
 20
0.0
 30
0.0
  9
$UCSXDIR
 10
1.0
 20
0.0
 30
0.0
  9
$UCSYDIR
 10
0.0
 20
1.0
 30
0.0
  9
$UCSORTHOREF
  2

  9
$UCSORTHOVIEW
 70
     0
  9
$UCSORGTOP
 10
0.0
 20
0.0
 30
0.0
  9
$UCSORGBOTTOM
 10
0.0
 20
0.0
 30
0.0
  9
$UCSORGLEFT
 10
0.0
 20
0.0
 30
0.0
  9
$UCSORGRIGHT
 10
0.0
 20
0.0
 30
0.0
  9
$UCSORGFRONT
 10
0.0
 20
0.0
 30
0.0
  9
$UCSORGBACK
 10
0.0
 20
0.0
 30
0.0
  9
$PUCSBASE
  2

  9
$PUCSNAME
  2

  9
$PUCSORG
 10
0.0
 20
0.0
 30
0.0
  9
$PUCSXDIR
 10
1.0
 20
0.0
 30
0.0
  9
$PUCSYDIR
 10
0.0
 20
1.0
 30
0.0
  9
$PUCSORTHOREF
  2

  9
$PUCSORTHOVIEW
 70
     0
  9
$PUCSORGTOP
 10
0.0
 20
0.0
 30
0.0
  9
$PUCSORGBOTTOM
 10
0.0
 20
0.0
 30
0.0
  9
$PUCSORGLEFT
 10
0.0
 20
0.0
 30
0.0
  9
$PUCSORGRIGHT
 10
0.0
 20
0.0
 30
0.0
  9
$PUCSORGFRONT
 10
0.0
 20
0.0
 30
0.0
  9
$PUCSORGBACK
 10
0.0
 20
0.0
 30
0.0
  9
$USERI1
 70
     0
  9
$USERI2
 70
     0
  9
$USERI3
 70
     0
  9
$USERI4
 70
     0
  9
$USERI5
 70
     0
  9
$USERR1
 40
0.0
  9
$USERR2
 40
0.0
  9
$USERR3
 40
0.0
  9
$USERR4
 40
0.0
  9
$USERR5
 40
0.0
  9
$WORLDVIEW
 70
     1
  9
$SHADEDGE
 70
     3
  9
$SHADEDIF
 70
    70
  9
$TILEMODE
 70
     1
  9
$MAXACTVP
 70
    64
  9
$PINSBASE
 10
0.0
 20
0.0
 30
0.0
  9
$PLIMCHECK
 70
     0
  9
$PEXTMIN
 10
1.0000000000E+20
 20
1.0000000000E+20
 30
1.0000000000E+20
  9
$PEXTMAX
 10
-1.0000000000E+20
 20
-1.0000000000E+20
 30
-1.0000000000E+20
  9
$PLIMMIN
 10
0.0
 20
0.0
  9
$PLIMMAX
 10
420.0
 20
297.0
  9
$UNITMODE
 70
     0
  9
$VISRETAIN
 70
     1
  9
$PLINEGEN
 70
     0
  9
$PSLTSCALE
 70
     1
  9
$TREEDEPTH
 70
  3020
  9
$CMLSTYLE
  2
Standard
  9
$CMLJUST
 70
     0
  9
$CMLSCALE
 40
20.0
  9
$PROXYGRAPHICS
 70
     1
  9
$MEASUREMENT
 70
     1
  9
$CELWEIGHT
370
    -1
  9
$ENDCAPS
280
     0
  9
$JOINSTYLE
280
     0
  9
$LWDISPLAY
290
     1
  9
$INSUNITS
 70
     4
  9
$HYPERLINKBASE
  1

  9
$STYLESHEET
  1

  9
$XEDIT
290
     1
  9
$CEPSNTYPE
380
     0
  9
$PSTYLEMODE
290
     1
  9
$FINGERPRINTGUID
  2
{460b0a6c-0b0c-493a-ac62-d9ce61fd5710}
  9
$VERSIONGUID
  2
{FAEB1C32-E019-11D5-929B-00C0DF256EC4}
  9
$EXTNAMES
290
     1
  9
$PSVPSCALE
 40
0.0
  9
$OLESTARTUP
290
     0
  0
ENDSEC
  0
SECTION
  2
CLASSES
  0
CLASS
  1
ACDBDICTIONARYWDFLT
  2
AcDbDictionaryWithDefault
  3
ObjectDBX Classes
 90
        0
280
     0
281
     0
  0
CLASS
  1
VISUALSTYLE
  2
AcDbVisualStyle
  3
ObjectDBX Classes
 90
     4095
280
     0
281
     0
  0
CLASS
  1
MATERIAL
  2
AcDbMaterial
  3
ObjectDBX Classes
 90
     1153
280
     0
281
     0
  0
CLASS
  1
SCALE
  2
AcDbScale
  3
ObjectDBX Classes
 90
     1153
280
     0
281
     0
  0
CLASS
  1
TABLESTYLE
  2
AcDbTableStyle
  3
ObjectDBX Classes
 90
     4095
280
     0
281
     0
  0
CLASS
  1
MLEADERSTYLE
  2
AcDbMLeaderStyle
  3
ACDB_MLEADERSTYLE_CLASS
 90
     4095
280
     0
281
     0
  0
CLASS
  1
SUN
  2
AcDbSun
  3
SCENEOE
 90
     1153
280
     0
281
     0
  0
CLASS
  1
ACDBPLACEHOLDER
  2
AcDbPlaceHolder
  3
ObjectDBX Classes
 90
        0
280
     0
281
     0
  0
CLASS
  1
LAYOUT
  2
AcDbLayout
  3
ObjectDBX Classes
 90
        0
280
     0
281
     0
  0
ENDSEC
  0
SECTION
  2
TABLES
  0
TABLE
  2
VPORT
  5
8
330
0
100
AcDbSymbolTable
 70
     1
  0
VPORT
  5
29
330
8
100
AcDbSymbolTableRecord
100
AcDbViewportTableRecord
  2
*Active
 70
     0
 10
0.0
 20
0.0
 11
1.0
 21
1.0
 12
420.5
 22
297.0
 13
0.0
 23
0.0
 14
10.0
 24
10.0
 15
10.0
 25
10.0
 16
0.0
 26
0.0
 36
1.0
 17
0.0
 27
0.0
 37
0.0
 40
594.0
 41
1.4158249158
 42
50.0
 43
0.0
 44
0.0
 50
0.0
 51
0.0
 71
     0
 72
  2000
 73
     1
 74
     3
 75
     0
 76
     0
 77
     0
 78
     0
281
     0
 65
     1
110
0.0
120
0.0
130
0.0
111
1.0
121
0.0
131
0.0
112
0.0
122
1.0
132
0.0
 79
     0
146
0.0
  0
ENDTAB
  0
TABLE
  2
LTYPE
  5
5
330
0
100
AcDbSymbolTable
 70
     6
  0
LTYPE
  5
14
330
5
100
AcDbSymbolTableRecord
100
AcDbLinetypeTableRecord
  2
ByBlock
 70
     0
  3

 72
    65
 73
     0
 40
0.0
  0
LTYPE
  5
15
330
5
100
AcDbSymbolTableRecord
100
AcDbLinetypeTableRecord
  2
ByLayer
 70
     0
  3

 72
    65
 73
     0
 40
0.0
  0
LTYPE
  5
16
330
5
100
AcDbSymbolTableRecord
100
AcDbLinetypeTableRecord
  2
Continuous
 70
     0
  3
Solid line
 72
    65
 73
     0
 40
0.0
  0
LTYPE
  5
5E
330
5
100
AcDbSymbolTableRecord
100
AcDbLinetypeTableRecord
  2
HIDDEN
 70
     0
  3
Hidden __ __ __ __ __ __ __ __ __ __ __ __ __ __
 72
    65
 73
     2
 40
1.905
 49
1.27
 74
     0
 49
-0.635
 74
     0
  0
LTYPE
  5
5F
330
5
100
AcDbSymbolTableRecord
100
AcDbLinetypeTableRecord
  2
PHANTOM
 70
     0
  3
Phantom ______  __  __  ______  __  __  ______
 72
    65
 73
     6
 40
12.7
 49
6.35
 74
     0
 49
-1.27
 74
     0
 49
1.27
 74
     0
 49
-1.27
 74
     0
 49
1.27
 74
     0
 49
-1.27
 74
     0
  0
LTYPE
  5
60
330
5
100
AcDbSymbolTableRecord
100
AcDbLinetypeTableRecord
  2
CENTER
 70
     0
  3
Center ____ _ ____ _ ____ _ ____ _ ____ _ ____
 72
    65
 73
     4
 40
10.16
 49
6.35
 74
     0
 49
-1.27
 74
     0
 49
1.27
 74
     0
 49
-1.27
 74
     0
  0
LTYPE
  5
61
330
5
100
AcDbSymbolTableRecord
100
AcDbLinetypeTableRecord
  2
CENTERX2
 70
     0
  3
Center (2x) ________  __  ________  __  _____
 72
    65
 73
     4
 40
20.32
 49
12.7
 74
     0
 49
-2.54
 74
     0
 49
2.54
 74
     0
 49
-2.54
 74
     0
  0
LTYPE
  5
62
330
5
100
AcDbSymbolTableRecord
100
AcDbLinetypeTableRecord
  2
DOT2
 70
     0
  3
Dot (.5x) ........................................
 72
    65
 73
     2
 40
0.635
 49
0.0
 74
     0
 49
-0.635
 74
     0
  0
ENDTAB
  0
TABLE
  2
LAYER
  5
2
330
0
100
AcDbSymbolTable
 70
     1
  0
LAYER
  5
10
330
2
100
AcDbSymbolTableRecord
100
AcDbLayerTableRecord
  2
0
 70
     0
 62
     7
  6
Continuous
370
    -3
390
F
  0
ENDTAB
  0
TABLE
  2
STYLE
  5
3
330
0
100
AcDbSymbolTable
 70
     1
  0
STYLE
  5
11
330
3
100
AcDbSymbolTableRecord
100
AcDbTextStyleTableRecord
  2
Standard
 70
     0
 40
0.0
 41
1.0
 50
0.0
 71
     0
 42
3.5
  3
txt
  4
bigfont
  0
ENDTAB
  0
TABLE
  2
VIEW
  5
6
330
0
100
AcDbSymbolTable
 70
     0
  0
ENDTAB
  0
TABLE
  2
UCS
  5
7
330
0
100
AcDbSymbolTable
 70
     0
  0
ENDTAB
  0
TABLE
  2
APPID
  5
9
330
0
100
AcDbSymbolTable
 70
     1
  0
APPID
  5
12
330
9
100
AcDbSymbolTableRecord
100
AcDbRegAppTableRecord
  2
ACAD
 70
     0
  0
ENDTAB
  0
TABLE
  2
DIMSTYLE
  5
A
330
0
100
AcDbSymbolTable
 70
     1
100
AcDbDimStyleTable
  0
DIMSTYLE
105
27
330
A
100
AcDbSymbolTableRecord
100
AcDbDimStyleTableRecord
  2
ISO-25
 70
     0
 41
2.5
 42
0.625
 43
3.75
 44
1.25
 73
     0
 74
     0
 77
     1
 78
     8
140
2.5
141
2.5
143
0.0393700787
147
0.625
171
     3
172
     1
178
     0
271
     2
272
     2
274
     3
278
    44
283
     0
284
     8
340
11
  0
ENDTAB
  0
TABLE
  2
BLOCK_RECORD
  5
1
330
0
100
AcDbSymbolTable
 70
     1
  0
BLOCK_RECORD
  5
1F
330
1
100
AcDbSymbolTableRecord
100
AcDbBlockTableRecord
  2
*Model_Space
340
22
  0
BLOCK_RECORD
  5
1B
330
1
100
AcDbSymbolTableRecord
100
AcDbBlockTableRecord
  2
*Paper_Space
340
1E
  0
BLOCK_RECORD
  5
23
330
1
100
AcDbSymbolTableRecord
100
AcDbBlockTableRecord
  2
*Paper_Space0
340
26
  0
ENDTAB
  0
ENDSEC
  0
SECTION
  2
BLOCKS
  0
BLOCK
  5
20
330
1F
100
AcDbEntity
  8
0
100
AcDbBlockBegin
  2
*Model_Space
 70
     0
 10
0.0
 20
0.0
 30
0.0
  3
*Model_Space
  1

  0
ENDBLK
  5
21
330
1F
100
AcDbEntity
  8
0
100
AcDbBlockEnd
  0
BLOCK
  5
1C
330
1B
100
AcDbEntity
 67
     1
  8
0
100
AcDbBlockBegin
  2
*Paper_Space
 70
     0
 10
0.0
 20
0.0
 30
0.0
  3
*Paper_Space
  1

  0
ENDBLK
  5
1D
330
1B
100
AcDbEntity
 67
     1
  8
0
100
AcDbBlockEnd
  0
BLOCK
  5
24
330
23
100
AcDbEntity
  8
0
100
AcDbBlockBegin
  2
*Paper_Space0
 70
     0
 10
0.0
 20
0.0
 30
0.0
  3
*Paper_Space0
  1

  0
ENDBLK
  5
25
330
23
100
AcDbEntity
  8
0
100
AcDbBlockEnd
  0
ENDSEC
  0
SECTION
  2
ENTITIES
  0
LINE
  5
63
330
1F
100
AcDbEntity
  8
0
  6
Continuous
 62
     7
370
    25
100
AcDbLine
 10
350.7230303803
 20
255.2752318479
 30
0.0
 11
320.7230303803
 21
255.2752318479
 31
0.0
  0
LINE
  5
64
330
1F
100
AcDbEntity
  8
0
  6
Continuous
 62
     7
370
    25
100
AcDbLine
 10
320.7230303803
 20
171.2752318479
 30
0.0
 11
350.7230303803
 21
171.2752318479
 31
0.0
  0
ARC
  5
65
330
1F
100
AcDbEntity
  8
0
  6
Continuous
 62
     7
370
    25
100
AcDbCircle
 10
319.2230303803
 20
176.7752318479
 30
0.0
 40
1.5
100
AcDbArc
 50
0.0
 51
90.0
  0
ARC
  5
66
330
1F
100
AcDbEntity
  8
0
  6
Continuous
 62
     7
370
    25
100
AcDbCircle
 10
319.2230303803
 20
249.7752318479
 30
0.0
 40
1.5
100
AcDbArc
 50
270.0
 51
0.0
  0
LINE
  5
67
330
1F
100
AcDbEntity
  8
0
  6
Continuous
 62
     7
370
    25
100
AcDbLine
 10
311.7230303803
 20
178.2752318479
 30
0.0
 11
319.2230303803
 21
178.2752318479
 31
0.0
  0
LINE
  5
68
330
1F
100
AcDbEntity
  8
0
  6
Continuous
 62
     7
370
    25
100
AcDbLine
 10
311.7230303803
 20
248.2752318479
 30
0.0
 11
310.7230303803
 21
247.2752318479
 31
0.0
  0
LINE
  5
69
330
1F
100
AcDbEntity
  8
0
  6
Continuous
 62
     7
370
    25
100
AcDbLine
 10
319.2230303803
 20
248.2752318479
 30
0.0
 11
311.7230303803
 21
248.2752318479
 31
0.0
  0
LINE
  5
6A
330
1F
100
AcDbEntity
  8
0
  6
Continuous
 62
     7
370
    25
100
AcDbLine
 10
310.7230303803
 20
179.2752318479
 30
0.0
 11
311.7230303803
 21
178.2752318479
 31
0.0
  0
LINE
  5
6B
330
1F
100
AcDbEntity
  8
0
  6
Continuous
 62
     7
370
    25
100
AcDbLine
 10
308.2230303803
 20
225.7752318479
 30
0.0
 11
307.7230303803
 21
225.2752318479
 31
0.0
  0
LINE
  5
6C
330
1F
100
AcDbEntity
  8
0
  6
Continuous
 62
     7
370
    25
100
AcDbLine
 10
307.7230303803
 20
201.2752318479
 30
0.0
 11
308.2230303803
 21
200.7752318479
 31
0.0
  0
LINE
  5
6D
330
1F
100
AcDbEntity
  8
0
  6
Continuous
 62
     7
370
    25
100
AcDbLine
 10
308.2230303803
 20
200.7752318479
 30
0.0
 11
310.7230303803
 21
200.7752318479
 31
0.0
  0
LINE
  5
6E
330
1F
100
AcDbEntity
  8
0
  6
Continuous
 62
     7
370
    25
100
AcDbLine
 10
310.7230303803
 20
225.7752318479
 30
0.0
 11
308.2230303803
 21
225.7752318479
 31
0.0
  0
LINE
  5
6F
330
1F
100
AcDbEntity
  8
0
  6
Continuous
 62
     7
370
    25
100
AcDbLine
 10
350.7230303803
 20
213.2752318479
 30
0.0
 11
350.7230303803
 21
255.2752318479
 31
0.0
  0
LINE
  5
70
330
1F
100
AcDbEntity
  8
0
  6
Continuous
 62
     7
370
    25
100
AcDbLine
 10
320.7230303803
 20
213.2752318479
 30
0.0
 11
320.7230303803
 21
255.2752318479
 31
0.0
  0
LINE
  5
71
330
1F
100
AcDbEntity
  8
0
  6
Continuous
 62
     7
370
    25
100
AcDbLine
 10
350.7230303803
 20
171.2752318479
 30
0.0
 11
350.7230303803
 21
213.2752318479
 31
0.0
  0
LINE
  5
72
330
1F
100
AcDbEntity
  8
0
  6
Continuous
 62
     7
370
    25
100
AcDbLine
 10
320.7230303803
 20
171.2752318479
 30
0.0
 11
320.7230303803
 21
213.2752318479
 31
0.0
  0
LINE
  5
73
330
1F
100
AcDbEntity
  8
0
  6
Continuous
 62
     7
370
    25
100
AcDbLine
 10
311.7230303803
 20
178.2752318479
 30
0.0
 11
311.7230303803
 21
213.2752318479
 31
0.0
  0
LINE
  5
74
330
1F
100
AcDbEntity
  8
0
  6
Continuous
 62
     7
370
    25
100
AcDbLine
 10
311.7230303803
 20
213.2752318479
 30
0.0
 11
311.7230303803
 21
248.2752318479
 31
0.0
  0
LINE
  5
75
330
1F
100
AcDbEntity
  8
0
  6
Continuous
 62
     7
370
    25
100
AcDbLine
 10
310.7230303803
 20
213.2752318479
 30
0.0
 11
310.7230303803
 21
247.2752318479
 31
0.0
  0
LINE
  5
76
330
1F
100
AcDbEntity
  8
0
  6
Continuous
 62
     7
370
    25
100
AcDbLine
 10
310.7230303803
 20
179.2752318479
 30
0.0
 11
310.7230303803
 21
213.2752318479
 31
0.0
  0
LINE
  5
77
330
1F
100
AcDbEntity
  8
0
  6
Continuous
 62
     7
370
    25
100
AcDbLine
 10
308.2230303803
 20
213.2752318479
 30
0.0
 11
308.2230303803
 21
225.7752318479
 31
0.0
  0
LINE
  5
78
330
1F
100
AcDbEntity
  8
0
  6
Continuous
 62
     7
370
    25
100
AcDbLine
 10
307.7230303803
 20
213.2752318479
 30
0.0
 11
307.7230303803
 21
225.2752318479
 31
0.0
  0
LINE
  5
79
330
1F
100
AcDbEntity
  8
0
  6
Continuous
 62
     7
370
    25
100
AcDbLine
 10
308.2230303803
 20
200.7752318479
 30
0.0
 11
308.2230303803
 21
213.2752318479
 31
0.0
  0
LINE
  5
7A
330
1F
100
AcDbEntity
  8
0
  6
Continuous
 62
     7
370
    25
100
AcDbLine
 10
307.7230303803
 20
201.2752318479
 30
0.0
 11
307.7230303803
 21
213.2752318479
 31
0.0
  0
LINE
  5
7B
330
1F
100
AcDbEntity
  8
0
  6
HIDDEN
 62
     7
370
    18
100
AcDbLine
 10
339.7230303803
 20
184.2752318479
 30
0.0
 11
339.7230303803
 21
213.2752318479
 31
0.0
  0
LINE
  5
7C
330
1F
100
AcDbEntity
  8
0
  6
HIDDEN
 62
     7
370
    18
100
AcDbLine
 10
339.7230303803
 20
213.2752318479
 30
0.0
 11
339.7230303803
 21
242.2752318479
 31
0.0
  0
LINE
  5
7D
330
1F
100
AcDbEntity
  8
0
  6
HIDDEN
 62
     7
370
    18
100
AcDbLine
 10
339.7230303803
 20
184.2752318479
 30
0.0
 11
350.7230303803
 21
184.2752318479
 31
0.0
  0
LINE
  5
7E
330
1F
100
AcDbEntity
  8
0
  6
HIDDEN
 62
     7
370
    18
100
AcDbLine
 10
350.7230303803
 20
242.2752318479
 30
0.0
 11
339.7230303803
 21
242.2752318479
 31
0.0
  0
LINE
  5
7F
330
1F
100
AcDbEntity
  8
0
  6
HIDDEN
 62
     7
370
    18
100
AcDbLine
 10
339.7230303803
 20
208.7752318479
 30
0.0
 11
310.7230303803
 21
208.7752318479
 31
0.0
  0
LINE
  5
80
330
1F
100
AcDbEntity
  8
0
  6
HIDDEN
 62
     7
370
    18
100
AcDbLine
 10
310.7230303803
 20
197.7752318479
 30
0.0
 11
339.7230303803
 21
197.7752318479
 31
0.0
  0
LINE
  5
81
330
1F
100
AcDbEntity
  8
0
  6
HIDDEN
 62
     7
370
    18
100
AcDbLine
 10
310.7230303803
 20
217.7752318479
 30
0.0
 11
339.7230303803
 21
217.7752318479
 31
0.0
  0
LINE
  5
82
330
1F
100
AcDbEntity
  8
0
  6
HIDDEN
 62
     7
370
    18
100
AcDbLine
 10
339.7230303803
 20
228.7752318479
 30
0.0
 11
310.7230303803
 21
228.7752318479
 31
0.0
  0
LINE
  5
83
330
1F
100
AcDbEntity
  8
0
  6
HIDDEN
 62
     7
370
    18
100
AcDbLine
 10
307.7230303803
 20
203.2752318479
 30
0.0
 11
339.7230303803
 21
203.2752318479
 31
0.0
  0
LINE
  5
84
330
1F
100
AcDbEntity
  8
0
  6
HIDDEN
 62
     7
370
    18
100
AcDbLine
 10
339.7230303803
 20
223.2752318479
 30
0.0
 11
307.7230303803
 21
223.2752318479
 31
0.0
  0
LINE
  5
85
330
1F
100
AcDbEntity
  8
0
  6
HIDDEN
 62
     7
370
    18
100
AcDbLine
 10
310.7230303803
 20
187.7752318479
 30
0.0
 11
339.7230303803
 21
187.7752318479
 31
0.0
  0
LINE
  5
86
330
1F
100
AcDbEntity
  8
0
  6
HIDDEN
 62
     7
370
    18
100
AcDbLine
 10
339.7230303803
 20
198.7752318479
 30
0.0
 11
310.7230303803
 21
198.7752318479
 31
0.0
  0
LINE
  5
87
330
1F
100
AcDbEntity
  8
0
  6
HIDDEN
 62
     7
370
    18
100
AcDbLine
 10
310.7230303803
 20
227.7752318479
 30
0.0
 11
339.7230303803
 21
227.7752318479
 31
0.0
  0
LINE
  5
88
330
1F
100
AcDbEntity
  8
0
  6
HIDDEN
 62
     7
370
    18
100
AcDbLine
 10
339.7230303803
 20
238.7752318479
 30
0.0
 11
310.7230303803
 21
238.7752318479
 31
0.0
  0
LINE
  5
89
330
1F
100
AcDbEntity
  8
0
  6
Continuous
 62
     7
370
    25
100
AcDbLine
 10
350.7230303803
 20
412.88
 30
0.0
 11
320.7230303803
 21
412.88
 31
0.0
  0
LINE
  5
8A
330
1F
100
AcDbEntity
  8
0
  6
Continuous
 62
     7
370
    25
100
AcDbLine
 10
350.7230303803
 20
328.88
 30
0.0
 11
350.7230303803
 21
412.88
 31
0.0
  0
LINE
  5
8B
330
1F
100
AcDbEntity
  8
0
  6
Continuous
 62
     7
370
    25
100
AcDbLine
 10
350.7230303803
 20
328.88
 30
0.0
 11
320.7230303803
 21
328.88
 31
0.0
  0
LINE
  5
8C
330
1F
100
AcDbEntity
  8
0
  6
Continuous
 62
     7
370
    25
100
AcDbLine
 10
320.7230303803
 20
328.88
 30
0.0
 11
320.7230303803
 21
412.88
 31
0.0
  0
ARC
  5
8D
330
1F
100
AcDbEntity
  8
0
  6
Continuous
 62
     7
370
    25
100
AcDbCircle
 10
319.2230303803
 20
407.38
 30
0.0
 40
1.5
100
AcDbArc
 50
270.0
 51
0.0
  0
ARC
  5
8E
330
1F
100
AcDbEntity
  8
0
  6
Continuous
 62
     7
370
    25
100
AcDbCircle
 10
319.2230303803
 20
334.38
 30
0.0
 40
1.5
100
AcDbArc
 50
0.0
 51
90.0
  0
LINE
  5
8F
330
1F
100
AcDbEntity
  8
0
  6
Continuous
 62
     7
370
    25
100
AcDbLine
 10
311.7230303803
 20
335.88
 30
0.0
 11
311.7230303803
 21
405.88
 31
0.0
  0
LINE
  5
90
330
1F
100
AcDbEntity
  8
0
  6
Continuous
 62
     7
370
    25
100
AcDbLine
 10
319.2230303803
 20
405.88
 30
0.0
 11
311.7230303803
 21
405.88
 31
0.0
  0
LINE
  5
91
330
1F
100
AcDbEntity
  8
0
  6
Continuous
 62
     7
370
    25
100
AcDbLine
 10
319.2230303803
 20
335.88
 30
0.0
 11
311.7230303803
 21
335.88
 31
0.0
  0
LINE
  5
92
330
1F
100
AcDbEntity
  8
0
  6
Continuous
 62
     7
370
    25
100
AcDbLine
 10
310.7230303803
 20
336.88
 30
0.0
 11
311.7230303803
 21
335.88
 31
0.0
  0
LINE
  5
93
330
1F
100
AcDbEntity
  8
0
  6
Continuous
 62
     7
370
    25
100
AcDbLine
 10
310.7230303803
 20
336.88
 30
0.0
 11
310.7230303803
 21
404.88
 31
0.0
  0
LINE
  5
94
330
1F
100
AcDbEntity
  8
0
  6
Continuous
 62
     7
370
    25
100
AcDbLine
 10
310.7230303803
 20
404.88
 30
0.0
 11
311.7230303803
 21
405.88
 31
0.0
  0
LINE
  5
95
330
1F
100
AcDbEntity
  8
0
  6
Continuous
 62
     7
370
    25
100
AcDbLine
 10
308.2230303803
 20
358.38
 30
0.0
 11
308.2230303803
 21
383.38
 31
0.0
  0
LINE
  5
96
330
1F
100
AcDbEntity
  8
0
  6
Continuous
 62
     7
370
    25
100
AcDbLine
 10
307.7230303803
 20
358.88
 30
0.0
 11
308.2230303803
 21
358.38
 31
0.0
  0
LINE
  5
97
330
1F
100
AcDbEntity
  8
0
  6
Continuous
 62
     7
370
    25
100
AcDbLine
 10
307.7230303803
 20
358.88
 30
0.0
 11
307.7230303803
 21
382.88
 31
0.0
  0
LINE
  5
98
330
1F
100
AcDbEntity
  8
0
  6
Continuous
 62
     7
370
    25
100
AcDbLine
 10
307.7230303803
 20
382.88
 30
0.0
 11
308.2230303803
 21
383.38
 31
0.0
  0
LINE
  5
99
330
1F
100
AcDbEntity
  8
0
  6
Continuous
 62
     7
370
    25
100
AcDbLine
 10
310.7230303803
 20
383.38
 30
0.0
 11
308.2230303803
 21
383.38
 31
0.0
  0
LINE
  5
9A
330
1F
100
AcDbEntity
  8
0
  6
Continuous
 62
     7
370
    25
100
AcDbLine
 10
310.7230303803
 20
358.38
 30
0.0
 11
308.2230303803
 21
358.38
 31
0.0
  0
LINE
  5
9B
330
1F
100
AcDbEntity
  8
0
  6
HIDDEN
 62
     7
370
    18
100
AcDbLine
 10
350.7230303803
 20
399.88
 30
0.0
 11
339.7230303803
 21
399.88
 31
0.0
  0
LINE
  5
9C
330
1F
100
AcDbEntity
  8
0
  6
HIDDEN
 62
     7
370
    18
100
AcDbLine
 10
350.7230303803
 20
341.88
 30
0.0
 11
339.7230303803
 21
341.88
 31
0.0
  0
LINE
  5
9D
330
1F
100
AcDbEntity
  8
0
  6
HIDDEN
 62
     7
370
    18
100
AcDbLine
 10
339.7230303803
 20
341.88
 30
0.0
 11
339.7230303803
 21
399.88
 31
0.0
  0
LINE
  5
9E
330
1F
100
AcDbEntity
  8
0
  6
HIDDEN
 62
     7
370
    18
100
AcDbLine
 10
310.7230303803
 20
365.38
 30
0.0
 11
339.7230303803
 21
365.38
 31
0.0
  0
LINE
  5
9F
330
1F
100
AcDbEntity
  8
0
  6
HIDDEN
 62
     7
370
    18
100
AcDbLine
 10
310.7230303803
 20
376.38
 30
0.0
 11
339.7230303803
 21
376.38
 31
0.0
  0
LINE
  5
A0
330
1F
100
AcDbEntity
  8
0
  6
HIDDEN
 62
     7
370
    18
100
AcDbLine
 10
310.7230303803
 20
348.0594919243
 30
0.0
 11
339.7230303803
 21
348.0594919243
 31
0.0
  0
LINE
  5
A1
330
1F
100
AcDbEntity
  8
0
  6
HIDDEN
 62
     7
370
    18
100
AcDbLine
 10
310.7230303803
 20
359.0594919243
 30
0.0
 11
339.7230303803
 21
359.0594919243
 31
0.0
  0
LINE
  5
A2
330
1F
100
AcDbEntity
  8
0
  6
HIDDEN
 62
     7
370
    18
100
AcDbLine
 10
310.7230303803
 20
382.7005080757
 30
0.0
 11
339.7230303803
 21
382.7005080757
 31
0.0
  0
LINE
  5
A3
330
1F
100
AcDbEntity
  8
0
  6
HIDDEN
 62
     7
370
    18
100
AcDbLine
 10
310.7230303803
 20
393.7005080757
 30
0.0
 11
339.7230303803
 21
393.7005080757
 31
0.0
  0
LINE
  5
A4
330
1F
100
AcDbEntity
  8
0
  6
HIDDEN
 62
     7
370
    18
100
AcDbLine
 10
339.7230303803
 20
380.88
 30
0.0
 11
307.7230303803
 21
380.88
 31
0.0
  0
LINE
  5
A5
330
1F
100
AcDbEntity
  8
0
  6
HIDDEN
 62
     7
370
    18
100
AcDbLine
 10
339.7230303803
 20
360.88
 30
0.0
 11
307.7230303803
 21
360.88
 31
0.0
  0
ARC
  5
A6
330
1F
100
AcDbEntity
  8
0
  6
Continuous
 62
     7
370
    25
100
AcDbCircle
 10
473.88
 20
213.2752318479
 30
0.0
 40
29.0
100
AcDbArc
 50
0.0
 51
180.0
  0
ARC
  5
A7
330
1F
100
AcDbEntity
  8
0
  6
Continuous
 62
     7
370
    25
100
AcDbCircle
 10
473.88
 20
213.2752318479
 30
0.0
 40
29.0
100
AcDbArc
 50
180.0
 51
0.0
  0
ARC
  5
A8
330
1F
100
AcDbEntity
  8
0
  6
Continuous
 62
     7
370
    25
100
AcDbCircle
 10
473.88
 20
213.2752318479
 30
0.0
 40
42.0
100
AcDbArc
 50
0.0
 51
180.0
  0
ARC
  5
A9
330
1F
100
AcDbEntity
  8
0
  6
Continuous
 62
     7
370
    25
100
AcDbCircle
 10
473.88
 20
213.2752318479
 30
0.0
 40
42.0
100
AcDbArc
 50
180.0
 51
0.0
  0
ARC
  5
AA
330
1F
100
AcDbEntity
  8
0
  6
Continuous
 62
     7
370
    25
100
AcDbCircle
 10
491.2005080757
 20
223.2752318479
 30
0.0
 40
5.500000000000057
100
AcDbArc
 50
0.0
 51
180.0
  0
ARC
  5
AB
330
1F
100
AcDbEntity
  8
0
  6
Continuous
 62
     7
370
    25
100
AcDbCircle
 10
491.2005080757
 20
223.2752318479
 30
0.0
 40
5.500000000000057
100
AcDbArc
 50
180.0
 51
0.0
  0
ARC
  5
AC
330
1F
100
AcDbEntity
  8
0
  6
Continuous
 62
     7
370
    25
100
AcDbCircle
 10
491.2005080757
 20
203.2752318479
 30
0.0
 40
5.5
100
AcDbArc
 50
0.0
 51
180.0
  0
ARC
  5
AD
330
1F
100
AcDbEntity
  8
0
  6
Continuous
 62
     7
370
    25
100
AcDbCircle
 10
491.2005080757
 20
203.2752318479
 30
0.0
 40
5.5
100
AcDbArc
 50
180.0
 51
0.0
  0
ARC
  5
AE
330
1F
100
AcDbEntity
  8
0
  6
Continuous
 62
     7
370
    25
100
AcDbCircle
 10
473.88
 20
193.2752318479
 30
0.0
 40
5.500000000000057
100
AcDbArc
 50
0.0
 51
180.0
  0
ARC
  5
AF
330
1F
100
AcDbEntity
  8
0
  6
Continuous
 62
     7
370
    25
100
AcDbCircle
 10
473.88
 20
193.2752318479
 30
0.0
 40
5.500000000000057
100
AcDbArc
 50
180.0
 51
0.0
  0
ARC
  5
B0
330
1F
100
AcDbEntity
  8
0
  6
Continuous
 62
     7
370
    25
100
AcDbCircle
 10
456.5594919243
 20
203.2752318479
 30
0.0
 40
5.5
100
AcDbArc
 50
0.0
 51
180.0
  0
ARC
  5
B1
330
1F
100
AcDbEntity
  8
0
  6
Continuous
 62
     7
370
    25
100
AcDbCircle
 10
456.5594919243
 20
203.2752318479
 30
0.0
 40
5.5
100
AcDbArc
 50
180.0
 51
0.0
  0
ARC
  5
B2
330
1F
100
AcDbEntity
  8
0
  6
Continuous
 62
     7
370
    25
100
AcDbCircle
 10
456.5594919243
 20
223.2752318479
 30
0.0
 40
5.500000000000057
100
AcDbArc
 50
0.0
 51
180.0
  0
ARC
  5
B3
330
1F
100
AcDbEntity
  8
0
  6
Continuous
 62
     7
370
    25
100
AcDbCircle
 10
456.5594919243
 20
223.2752318479
 30
0.0
 40
5.500000000000057
100
AcDbArc
 50
180.0
 51
0.0
  0
ARC
  5
B4
330
1F
100
AcDbEntity
  8
0
  6
Continuous
 62
     7
370
    25
100
AcDbCircle
 10
473.88
 20
233.2752318479
 30
0.0
 40
5.5
100
AcDbArc
 50
0.0
 51
180.0
  0
ARC
  5
B5
330
1F
100
AcDbEntity
  8
0
  6
Continuous
 62
     7
370
    25
100
AcDbCircle
 10
473.88
 20
233.2752318479
 30
0.0
 40
5.5
100
AcDbArc
 50
180.0
 51
0.0
  0
ARC
  5
B6
330
1F
100
AcDbEntity
  8
0
  6
Continuous
 62
     7
370
    25
100
AcDbCircle
 10
473.88
 20
213.2752318479
 30
0.0
 40
10.00000000000006
100
AcDbArc
 50
0.0
 51
180.0
  0
ARC
  5
B7
330
1F
100
AcDbEntity
  8
0
  6
Continuous
 62
     7
370
    25
100
AcDbCircle
 10
473.88
 20
213.2752318479
 30
0.0
 40
10.00000000000006
100
AcDbArc
 50
180.0
 51
0.0
  0
ARC
  5
B8
330
1F
100
AcDbEntity
  8
0
  6
HIDDEN
 62
     7
370
    18
100
AcDbCircle
 10
473.88
 20
213.2752318479
 30
0.0
 40
35.0
100
AcDbArc
 50
180.0
 51
0.0
  0
ARC
  5
B9
330
1F
100
AcDbEntity
  8
0
  6
HIDDEN
 62
     7
370
    18
100
AcDbCircle
 10
473.88
 20
213.2752318479
 30
0.0
 40
35.0
100
AcDbArc
 50
0.0
 51
180.0
  0
ARC
  5
BA
330
1F
100
AcDbEntity
  8
0
  6
HIDDEN
 62
     7
370
    18
100
AcDbCircle
 10
473.88
 20
213.2752318479
 30
0.0
 40
34.0
100
AcDbArc
 50
0.0
 51
180.0
  0
ARC
  5
BB
330
1F
100
AcDbEntity
  8
0
  6
HIDDEN
 62
     7
370
    18
100
AcDbCircle
 10
473.88
 20
213.2752318479
 30
0.0
 40
34.0
100
AcDbArc
 50
180.0
 51
0.0
  0
ARC
  5
BC
330
1F
100
AcDbEntity
  8
0
  6
HIDDEN
 62
     7
370
    18
100
AcDbCircle
 10
473.88
 20
213.2752318479
 30
0.0
 40
12.50000000000006
100
AcDbArc
 50
0.0
 51
180.0
  0
ARC
  5
BD
330
1F
100
AcDbEntity
  8
0
  6
HIDDEN
 62
     7
370
    18
100
AcDbCircle
 10
473.88
 20
213.2752318479
 30
0.0
 40
12.50000000000006
100
AcDbArc
 50
180.0
 51
0.0
  0
ARC
  5
BE
330
1F
100
AcDbEntity
  8
0
  6
HIDDEN
 62
     7
370
    18
100
AcDbCircle
 10
473.88
 20
213.2752318479
 30
0.0
 40
12.00000000000006
100
AcDbArc
 50
0.0
 51
180.0
  0
ARC
  5
BF
330
1F
100
AcDbEntity
  8
0
  6
HIDDEN
 62
     7
370
    18
100
AcDbCircle
 10
473.88
 20
213.2752318479
 30
0.0
 40
12.00000000000006
100
AcDbArc
 50
180.0
 51
0.0
  0
LINE
  5
C0
330
1F
100
AcDbEntity
  8
0
  6
Continuous
 62
     7
370
    25
100
AcDbLine
 10
515.88
 20
363.939403099
 30
0.0
 11
515.88
 21
388.4356274555
 31
0.0
  0
LINE
  5
C1
330
1F
100
AcDbEntity
  8
0
  6
Continuous
 62
     7
370
    25
100
AcDbLine
 10
431.88
 20
388.4356274555
 30
0.0
 11
431.88
 21
363.939403099
 31
0.0
  0
LINE
  5
C2
330
1F
100
AcDbEntity
  8
0
  6
Continuous
 62
     7
370
    25
100
AcDbLine
 10
497.9255370491
 20
341.8973126136
 30
0.0
 11
498.632758727
 21
342.3057157088
 31
0.0
  0
LWPOLYLINE
  5
C3
330
1F
100
AcDbEntity
  8
0
  6
Continuous
 62
     7
370
    25
100
AcDbPolyline
 90
       53
 70
   128
 43
0.0
 10
515.88
 20
363.939403099
 10
515.8555149394
 20
363.1116148767
 10
515.7467500114
 20
362.0095652913
 10
515.5512098507
 20
360.9115155894
 10
515.2692997441
 20
359.8197416468
 10
514.9016039934
 20
358.7365063316
 10
514.4488847041
 20
357.6640548145
 10
513.9120802062
 20
356.604609915
 10
513.2923031089
 20
355.5603674945
 10
512.5908379948
 20
354.5334919048
 10
511.8091387576
 20
353.5261115023
 10
510.9488255883
 20
352.5403142369
 10
510.0116816174
 20
351.5781433239
 10
508.9996492187
 20
350.6415930094
 10
507.914825984
 20
349.732604437
 10
506.7594603752
 20
348.8530616242
 10
505.5359470637
 20
348.004787558
 10
504.246821968
 20
347.1895404158
 10
502.8947569965
 20
346.4090099218
 10
501.4825545104
 20
345.6648138446
 10
500.0131415149
 20
344.9584946444
 10
498.489563593
 20
344.2915162754
 10
496.9149785925
 20
343.6652611523
 10
495.2926500812
 20
343.0810272843
 10
493.6259405828
 20
342.5400255854
 10
491.9183046073
 20
342.0433773642
 10
490.1732814908
 20
341.592112
 10
488.3944880604
 20
341.1871648092
 10
486.585611137
 20
340.8293751067
 10
484.7503998943
 20
340.5194844663
 10
482.8926580878
 20
340.2581351835
 10
481.0162361712
 20
340.0458689449
 10
479.1250233153
 20
339.8831257044
 10
477.2229393477
 20
339.7702427724
 10
475.3139266278
 20
339.707454116
 10
473.401941876
 20
339.6948898742
 10
471.4909479726
 20
339.7325760884
 10
469.5849057444
 20
339.8204346481
 10
467.687765755
 20
339.958283453
 10
465.8034601166
 20
340.1458367905
 10
463.9358943404
 20
340.3827059276
 10
462.0889392418
 20
340.6683999168
 10
460.2664229171
 20
341.0023266138
 10
458.4721228099
 20
341.3837939044
 10
456.7097578809
 20
341.8120111394
 10
454.9829809008
 20
342.2860907733
 10
453.2953708785
 20
342.8050502036
 10
451.6504256435
 20
343.3678138076
 10
450.0515545959
 20
343.9732151719
 10
448.5020716401
 20
344.6199995096
 10
447.0051883163
 20
345.3068262614
 10
445.5640071436
 20
346.0322718741
 10
444.1815151902
 20
346.7948327507
  0
LWPOLYLINE
  5
C4
330
1F
100
AcDbEntity
  8
0
  6
Continuous
 62
     7
370
    25
100
AcDbPolyline
 90
       70
 70
   128
 43
0.0
 10
503.5784848098
 20
405.5801978038
 10
504.8994221184
 20
404.782102187
 10
506.1560669377
 20
403.9501260052
 10
507.3458146795
 20
403.0859936559
 10
508.4661994099
 20
402.1914961855
 10
509.5148989605
 20
401.2684875765
 10
510.4897397414
 20
400.3188809052
 10
511.3887012461
 20
399.3446443765
 10
512.2099202396
 20
398.3477972444
 10
512.9516946202
 20
397.3304056267
 10
513.6124869472
 20
396.294578223
 10
514.1909276276
 20
395.2424619437
 10
514.6858177547
 20
394.1762374605
 10
515.0961315932
 20
393.0981146864
 10
515.4210187051
 20
392.0103281956
 10
515.659805712
 20
390.9151325915
 10
515.8119976916
 20
389.8147978345
 10
515.8772792027
 20
388.7116045362
 10
515.8555149394
 20
387.6078392333
 10
515.7467500114
 20
386.5057896479
 10
515.5512098507
 20
385.407739946
 10
515.2692997441
 20
384.3159660034
 10
514.9016039934
 20
383.2327306882
 10
514.4488847041
 20
382.1602791711
 10
513.9120802062
 20
381.1008342716
 10
513.2923031089
 20
380.0565918511
 10
512.5908379948
 20
379.0297162613
 10
511.8091387576
 20
378.0223358589
 10
510.9488255883
 20
377.0365385935
 10
510.0116816174
 20
376.0743676805
 10
508.9996492187
 20
375.137817366
 10
507.914825984
 20
374.2288287935
 10
506.7594603752
 20
373.3492859808
 10
505.5359470637
 20
372.5010119145
 10
504.246821968
 20
371.6857647723
 10
502.8947569965
 20
370.9052342783
 10
501.4825545104
 20
370.1610382012
 10
500.0131415149
 20
369.454719001
 10
498.489563593
 20
368.787740632
 10
496.9149785925
 20
368.1614855088
 10
495.2926500812
 20
367.5772516409
 10
493.6259405828
 20
367.036249942
 10
491.9183046073
 20
366.5396017208
 10
490.1732814908
 20
366.0883363566
 10
488.3944880604
 20
365.6833891658
 10
486.585611137
 20
365.3255994633
 10
484.7503998943
 20
365.0157088228
 10
482.8926580878
 20
364.7543595401
 10
481.0162361712
 20
364.5420933014
 10
479.1250233153
 20
364.379350061
 10
477.2229393477
 20
364.266467129
 10
475.3139266278
 20
364.2036784726
 10
473.401941876
 20
364.1911142308
 10
471.4909479726
 20
364.228800445
 10
469.5849057444
 20
364.3166590047
 10
467.687765755
 20
364.4545078096
 10
465.8034601166
 20
364.6420611471
 10
463.9358943404
 20
364.8789302841
 10
462.0889392418
 20
365.1646242734
 10
460.2664229171
 20
365.4985509703
 10
458.4721228099
 20
365.8800182609
 10
456.7097578809
 20
366.308235496
 10
454.9829809008
 20
366.7823151299
 10
453.2953708785
 20
367.3012745602
 10
451.6504256435
 20
367.8640381642
 10
450.0515545959
 20
368.4694395285
 10
448.5020716401
 20
369.1162238662
 10
447.0051883163
 20
369.803050618
 10
445.5640071436
 20
370.5284962306
 10
444.1815151902
 20
371.2910571073
  0
LWPOLYLINE
  5
C5
330
1F
100
AcDbEntity
  8
0
  6
Continuous
 62
     7
370
    25
100
AcDbPolyline
 90
       70
 70
   128
 43
0.0
 10
444.1815151902
 20
371.2910571073
 10
442.8605778816
 20
372.089152724
 10
441.6039330623
 20
372.9211289059
 10
440.4141853205
 20
373.7852612552
 10
439.2938005901
 20
374.6797587256
 10
438.2451010395
 20
375.6027673346
 10
437.2702602586
 20
376.5523740059
 10
436.3712987539
 20
377.5266105346
 10
435.5500797604
 20
378.5234576667
 10
434.8083053798
 20
379.5408492843
 10
434.1475130528
 20
380.5766766881
 10
433.5690723724
 20
381.6287929674
 10
433.0741822453
 20
382.6950174506
 10
432.6638684068
 20
383.7731402247
 10
432.3389812949
 20
384.8609267155
 10
432.100194288
 20
385.9561223196
 10
431.9480023084
 20
387.0564570766
 10
431.8827207973
 20
388.1596503749
 10
431.9044850606
 20
389.2634156778
 10
432.0132499886
 20
390.3654652632
 10
432.2087901493
 20
391.4635149651
 10
432.4907002559
 20
392.5552889077
 10
432.8583960066
 20
393.6385242229
 10
433.3111152959
 20
394.71097574
 10
433.8479197938
 20
395.7704206395
 10
434.4676968911
 20
396.81466306
 10
435.1691620052
 20
397.8415386497
 10
435.9508612424
 20
398.8489190522
 10
436.8111744117
 20
399.8347163176
 10
437.7483183826
 20
400.7968872306
 10
438.7603507813
 20
401.7334375451
 10
439.845174016
 20
402.6424261176
 10
441.0005396248
 20
403.5219689303
 10
442.2240529363
 20
404.3702429965
 10
443.513178032
 20
405.1854901388
 10
444.8652430035
 20
405.9660206328
 10
446.2774454896
 20
406.7102167099
 10
447.7468584851
 20
407.4165359101
 10
449.270436407
 20
408.0835142791
 10
450.8450214075
 20
408.7097694023
 10
452.4673499188
 20
409.2940032702
 10
454.1340594172
 20
409.8350049691
 10
455.8416953927
 20
410.3316531903
 10
457.5867185092
 20
410.7829185545
 10
459.3655119396
 20
411.1878657453
 10
461.174388863
 20
411.5456554478
 10
463.0096001057
 20
411.8555460883
 10
464.8673419122
 20
412.116895371
 10
466.7437638288
 20
412.3291616097
 10
468.6349766847
 20
412.4919048501
 10
470.5370606523
 20
412.6047877821
 10
472.4460733722
 20
412.6675764385
 10
474.358058124
 20
412.6801406803
 10
476.2690520274
 20
412.6424544661
 10
478.1750942556
 20
412.5545959064
 10
480.072234245
 20
412.4167471015
 10
481.9565398834
 20
412.229193764
 10
483.8241056596
 20
411.9923246269
 10
485.6710607582
 20
411.7066306377
 10
487.4935770829
 20
411.3727039408
 10
489.2878771901
 20
410.9912366501
 10
491.0502421191
 20
410.5630194151
 10
492.7770190992
 20
410.0889397812
 10
494.4646291215
 20
409.5699803509
 10
496.1095743565
 20
409.0072167469
 10
497.7084454041
 20
408.4018153826
 10
499.2579283599
 20
407.7550310449
 10
500.7548116837
 20
407.0682042931
 10
502.1959928564
 20
406.3427586805
 10
503.5784848098
 20
405.5801978038
  0
LWPOLYLINE
  5
C6
330
1F
100
AcDbEntity
  8
0
  6
Continuous
 62
     7
370
    25
100
AcDbPolyline
 90
       58
 70
   128
 43
0.0
 10
453.3739033456
 20
376.5977098341
 10
452.275406578
 20
377.2678098865
 10
451.2425222507
 20
377.9718262339
 10
450.2783871992
 20
378.7076208016
 10
449.38592947
 20
379.4729590058
 10
448.5678594281
 20
380.2655165395
 10
447.8266615251
 20
381.0828864315
 10
447.1645867548
 20
381.9225863564
 10
446.5836458165
 20
382.782066173
 10
446.0856030087
 20
383.6587156695
 10
445.6719708711
 20
384.54987249
 10
445.3440055908
 20
385.4528302206
 10
445.1027031876
 20
386.3648466084
 10
444.9487964891
 20
387.2831518896
 10
444.8827529047
 20
388.2049572012
 10
444.9047730068
 20
389.1274630508
 10
445.0147899209
 20
390.0478678184
 10
445.2124695293
 20
390.963376265
 10
445.4972114855
 20
391.8712080216
 10
445.8681510376
 20
392.7686060329
 10
446.3241616544
 20
393.6528449307
 10
446.8638584465
 20
394.5212393104
 10
447.4856023726
 20
395.371151887
 10
448.1875052168
 20
396.2000015039
 10
448.9674353233
 20
397.0052709719
 10
449.8230240698
 20
397.7845147142
 10
450.7516730616
 20
398.5353661932
 10
451.7505620222
 20
399.2555450976
 10
452.8166573586
 20
399.9428642677
 10
453.9467213743
 20
400.5952363379
 10
455.137322102
 20
401.2106800755
 10
456.3848437265
 20
401.7873263982
 10
457.6854975657
 20
402.32342405
 10
459.0353335764
 20
402.81734492
 10
460.4302523512
 20
403.2675889867
 10
461.8660175675
 20
403.6727888737
 10
463.3382688536
 20
404.0317140023
 10
464.8425350308
 20
404.3432743287
 10
466.374247692
 20
404.6065236543
 10
467.9287550763
 20
404.8206624997
 10
469.5013361959
 20
404.9850405321
 10
471.0872151735
 20
405.099158541
 10
472.6815757468
 20
405.1626699536
 10
474.2795758952
 20
405.1753818879
 10
475.8763625447
 20
405.1372557382
 10
477.4670863068
 20
405.0484072924
 10
479.0469162057
 20
404.9091063801
 10
480.6110543499
 20
404.7197760538
 10
482.1547505032
 20
404.4809913034
 10
483.6733165113
 20
404.1934773104
 10
485.1621405389
 20
403.8581072453
 10
486.6167010766
 20
403.4758996159
 10
488.0325806717
 20
403.0480151743
 10
489.4054793444
 20
402.5757533914
 10
490.7312276467
 20
402.0605485109
 10
492.0057993244
 20
401.5039651929
 10
493.2253235453
 20
400.9076937626
 10
494.3860966544
 20
400.273545077
  0
LWPOLYLINE
  5
C7
330
1F
100
AcDbEntity
  8
0
  6
Continuous
 62
     7
370
    25
100
AcDbPolyline
 90
       58
 70
   128
 43
0.0
 10
494.3860966544
 20
400.273545077
 10
495.484593422
 20
399.6034450246
 10
496.5174777493
 20
398.8994286772
 10
497.4816128008
 20
398.1636341095
 10
498.37407053
 20
397.3982959053
 10
499.1921405719
 20
396.6057383716
 10
499.9333384749
 20
395.7883684796
 10
500.5954132452
 20
394.9486685547
 10
501.1763541835
 20
394.0891887381
 10
501.6743969913
 20
393.2125392416
 10
502.0880291289
 20
392.3213824211
 10
502.4159944092
 20
391.4184246905
 10
502.6572968124
 20
390.5064083027
 10
502.8112035109
 20
389.5881030215
 10
502.8772470953
 20
388.6662977099
 10
502.8552269932
 20
387.7437918603
 10
502.7452100791
 20
386.8233870927
 10
502.5475304707
 20
385.9078786461
 10
502.2627885145
 20
385.0000468895
 10
501.8918489624
 20
384.1026488782
 10
501.4358383456
 20
383.2184099804
 10
500.8961415535
 20
382.3500156006
 10
500.2743976274
 20
381.5001030241
 10
499.5724947832
 20
380.6712534072
 10
498.7925646767
 20
379.8659839392
 10
497.9369759302
 20
379.0867401969
 10
497.0083269384
 20
378.3358887179
 10
496.0094379778
 20
377.6157098135
 10
494.9433426414
 20
376.9283906433
 10
493.8132786257
 20
376.2760185732
 10
492.622677898
 20
375.6605748356
 10
491.3751562735
 20
375.0839285129
 10
490.0745024343
 20
374.5478308611
 10
488.7246664236
 20
374.0539099911
 10
487.3297476488
 20
373.6036659244
 10
485.8939824325
 20
373.1984660374
 10
484.4217311464
 20
372.8395409088
 10
482.9174649692
 20
372.5279805824
 10
481.385752308
 20
372.2647312568
 10
479.8312449237
 20
372.0505924114
 10
478.2586638041
 20
371.886214379
 10
476.6727848265
 20
371.7720963701
 10
475.0784242532
 20
371.7085849575
 10
473.4804241048
 20
371.6958730231
 10
471.8836374553
 20
371.7339991728
 10
470.2929136932
 20
371.8228476187
 10
468.7130837943
 20
371.962148531
 10
467.1489456501
 20
372.1514788573
 10
465.6052494968
 20
372.3902636076
 10
464.0866834887
 20
372.6777776007
 10
462.5978594611
 20
373.0131476658
 10
461.1432989234
 20
373.3953552952
 10
459.7274193283
 20
373.8232397368
 10
458.3545206556
 20
374.2955015196
 10
457.0287723533
 20
374.8107064002
 10
455.7542006756
 20
375.3672897182
 10
454.5346764547
 20
375.9635611484
 10
453.3739033456
 20
376.5977098341
  0
ARC
  5
C8
330
1F
100
AcDbEntity
  8
0
  6
Continuous
 62
     7
370
    25
100
AcDbCircle
 10
486.1546602127
 20
375.5345420927
 30
0.0
 40
17.77755040321961
100
AcDbArc
 50
28.2340735453
 51
62.4175721535
  0
LWPOLYLINE
  5
C9
330
1F
100
AcDbEntity
  8
0
  6
Continuous
 62
     7
370
    25
100
AcDbPolyline
 90
       39
 70
   128
 43
0.0
 10
445.9429219334
 20
383.9446529902
 10
446.3241616544
 20
384.6708959999
 10
446.8638584465
 20
385.5392903797
 10
447.4856023726
 20
386.3892029563
 10
448.1875052168
 20
387.2180525731
 10
448.9674353233
 20
388.0233220412
 10
449.8230240698
 20
388.8025657835
 10
450.7516730616
 20
389.5534172625
 10
451.7505620222
 20
390.2735961669
 10
452.8166573586
 20
390.960915337
 10
453.9467213743
 20
391.6132874071
 10
455.137322102
 20
392.2287311447
 10
456.3848437265
 20
392.8053774674
 10
457.6854975657
 20
393.3414751192
 10
459.0353335764
 20
393.8353959892
 10
460.4302523512
 20
394.2856400559
 10
461.8660175675
 20
394.690839943
 10
463.3382688536
 20
395.0497650716
 10
464.8425350308
 20
395.3613253979
 10
466.374247692
 20
395.6245747236
 10
467.9287550763
 20
395.8387135689
 10
469.5013361959
 20
396.0030916014
 10
471.0872151735
 20
396.1172096103
 10
472.6815757468
 20
396.1807210229
 10
474.2795758952
 20
396.1934329572
 10
475.8763625447
 20
396.1553068075
 10
477.4670863068
 20
396.0664583616
 10
479.0469162057
 20
395.9271574494
 10
480.6110543499
 20
395.7378271231
 10
482.1547505032
 20
395.4990423727
 10
483.6733165113
 20
395.2115283797
 10
485.1621405389
 20
394.8761583145
 10
486.6167010766
 20
394.4939506851
 10
488.0325806717
 20
394.0660662435
 10
489.4054793444
 20
393.5938044607
 10
490.7312276467
 20
393.0785995801
 10
492.0057993244
 20
392.5220162621
 10
493.2253235453
 20
391.9257448319
 10
494.3860966544
 20
391.2915961462
  0
LWPOLYLINE
  5
CA
330
1F
100
AcDbEntity
  8
0
  6
Continuous
 62
     7
370
    25
100
AcDbPolyline
 90
       26
 70
   128
 43
0.0
 10
482.9454681986
 20
392.8511430384
 10
482.4273696971
 20
393.1148280169
 10
481.8561086887
 20
393.3389476059
 10
481.2406943005
 20
393.5199673055
 10
480.5908319853
 20
393.6550323269
 10
479.9167704598
 20
393.742012614
 10
479.229140077
 20
393.7795364358
 10
478.5387851788
 20
393.7670120192
 10
477.8565930744
 20
393.7046368816
 10
477.1933223407
 20
393.5933947164
 10
476.5594331535
 20
393.4350398788
 10
475.9649223239
 20
393.2320697192
 10
475.4191656428
 20
392.9876851984
 10
474.9307700191
 20
392.7057404062
 10
474.5074377435
 20
392.3906817805
 10
474.155845019
 20
392.0474779838
 10
473.8815366728
 20
391.6815415452
 10
473.6888387114
 20
391.2986435009
 10
473.5807900967
 20
390.9048223817
 10
473.55909482
 20
390.506288982
 10
473.6240950288
 20
390.1093284116
 10
473.7747656308
 20
389.7202009757
 10
474.0087304608
 20
389.3450434466
 10
474.3222997535
 20
388.9897722825
 10
474.710528334
 20
388.6599903219
 10
475.1672936055
 20
388.3608984233
  0
LWPOLYLINE
  5
CB
330
1F
100
AcDbEntity
  8
0
  6
Continuous
 62
     7
370
    25
100
AcDbPolyline
 90
       26
 70
   128
 43
0.0
 10
475.1672936055
 20
388.3608984233
 10
475.685392107
 20
388.0972134448
 10
476.2566531154
 20
387.8730938558
 10
476.8720675036
 20
387.6920741562
 10
477.5219298188
 20
387.5570091348
 10
478.1959913443
 20
387.4700288477
 10
478.8836217271
 20
387.4325050259
 10
479.5739766253
 20
387.4450294425
 10
480.2561687297
 20
387.5074045801
 10
480.9194394634
 20
387.6186467454
 10
481.5533286506
 20
387.7770015829
 10
482.1478394802
 20
387.9799717425
 10
482.6935961613
 20
388.2243562633
 10
483.181991785
 20
388.5063010555
 10
483.6053240606
 20
388.8213596812
 10
483.9569167851
 20
389.1645634779
 10
484.2312251313
 20
389.5304999165
 10
484.4239230927
 20
389.9133979608
 10
484.5319717074
 20
390.30721908
 10
484.5536669841
 20
390.7057524797
 10
484.4886667753
 20
391.1027130501
 10
484.3379961733
 20
391.491840486
 10
484.1040313433
 20
391.8669980151
 10
483.7904620506
 20
392.2222691793
 10
483.4022334701
 20
392.5520511398
 10
482.9454681986
 20
392.8511430384
  0
LWPOLYLINE
  5
CC
330
1F
100
AcDbEntity
  8
0
  6
Continuous
 62
     7
370
    25
100
AcDbPolyline
 90
       26
 70
   128
 43
0.0
 10
497.0876038223
 20
384.6870619201
 10
496.5695053209
 20
384.9507468987
 10
495.9982443124
 20
385.1748664877
 10
495.3828299243
 20
385.3558861873
 10
494.732967609
 20
385.4909512087
 10
494.0589060835
 20
385.5779314958
 10
493.3712757007
 20
385.6154553176
 10
492.6809208025
 20
385.6029309009
 10
491.9987286981
 20
385.5405557634
 10
491.3354579644
 20
385.4293135981
 10
490.7015687772
 20
385.2709587605
 10
490.1070579476
 20
385.067988601
 10
489.5613012665
 20
384.8236040802
 10
489.0729056428
 20
384.541659288
 10
488.6495733673
 20
384.2266006622
 10
488.2979806427
 20
383.8833968656
 10
488.0236722965
 20
383.517460427
 10
487.8309743351
 20
383.1345623827
 10
487.7229257205
 20
382.7407412635
 10
487.7012304438
 20
382.3422078638
 10
487.7662306525
 20
381.9452472933
 10
487.9169012546
 20
381.5561198575
 10
488.1508660845
 20
381.1809623283
 10
488.4644353773
 20
380.8256911642
 10
488.8526639577
 20
380.4959092036
 10
489.3094292293
 20
380.1968173051
  0
LWPOLYLINE
  5
CD
330
1F
100
AcDbEntity
  8
0
  6
Continuous
 62
     7
370
    25
100
AcDbPolyline
 90
       26
 70
   128
 43
0.0
 10
489.3094292293
 20
380.1968173051
 10
489.8275277307
 20
379.9331323265
 10
490.3987887392
 20
379.7090127376
 10
491.0142031273
 20
379.527993038
 10
491.6640654426
 20
379.3929280166
 10
492.3381269681
 20
379.3059477295
 10
493.0257573509
 20
379.2684239077
 10
493.716112249
 20
379.2809483243
 10
494.3983043535
 20
379.3433234619
 10
495.0615750871
 20
379.4545656271
 10
495.6954642743
 20
379.6129204647
 10
496.289975104
 20
379.8158906242
 10
496.8357317851
 20
380.060275145
 10
497.3241274087
 20
380.3422199372
 10
497.7474596843
 20
380.657278563
 10
498.0990524088
 20
381.0004823597
 10
498.373360755
 20
381.3664187983
 10
498.5660587164
 20
381.7493168426
 10
498.6741073311
 20
382.1431379618
 10
498.6958026078
 20
382.5416713615
 10
498.6308023991
 20
382.9386319319
 10
498.480131797
 20
383.3277593678
 10
498.246166967
 20
383.7029168969
 10
497.9325976743
 20
384.058188061
 10
497.5443690938
 20
384.3879700216
 10
497.0876038223
 20
384.6870619201
  0
ARC
  5
CE
330
1F
100
AcDbEntity
  8
0
  6
Continuous
 62
     7
370
    25
100
AcDbCircle
 10
487.8887248501
 20
367.4733735571
 30
0.0
 40
7.063226505699773
100
AcDbArc
 50
76.5368378954
 51
134.202401381
  0
ARC
  5
CF
330
1F
100
AcDbEntity
  8
0
  6
Continuous
 62
     7
370
    25
100
AcDbCircle
 10
454.5750137686
 20
371.3270514361
 30
0.0
 40
8.338815364093294
100
AcDbArc
 50
62.3052380448
 51
119.670414982
  0
LWPOLYLINE
  5
D0
330
1F
100
AcDbEntity
  8
0
  6
Continuous
 62
     7
370
    25
100
AcDbPolyline
 90
       14
 70
   128
 43
0.0
 10
458.4930911777
 20
374.2451129945
 10
458.6870943572
 20
374.3656977616
 10
459.1104266327
 20
374.6807563874
 10
459.4620193573
 20
375.023960184
 10
459.7363277035
 20
375.3898966226
 10
459.9290256649
 20
375.7727946669
 10
460.0370742795
 20
376.1666157861
 10
460.0587695562
 20
376.5651491858
 10
459.9937693475
 20
376.9621097563
 10
459.8430987454
 20
377.3512371921
 10
459.6091339155
 20
377.7263947213
 10
459.2955646227
 20
378.0816658854
 10
458.9073360423
 20
378.411447846
 10
458.4505707707
 20
378.7105397445
  0
LWPOLYLINE
  5
D1
330
1F
100
AcDbEntity
  8
0
  6
Continuous
 62
     7
370
    25
100
AcDbPolyline
 90
       26
 70
   128
 43
0.0
 10
463.6269516728
 20
389.8628819505
 10
463.1088531714
 20
390.1265669291
 10
462.5375921629
 20
390.3506865181
 10
461.9221777748
 20
390.5317062177
 10
461.2723154595
 20
390.6667712391
 10
460.598253934
 20
390.7537515262
 10
459.9106235512
 20
390.791275348
 10
459.220268653
 20
390.7787509313
 10
458.5380765486
 20
390.7163757938
 10
457.8748058149
 20
390.6051336285
 10
457.2409166277
 20
390.4467787909
 10
456.6464057981
 20
390.2438086314
 10
456.100649117
 20
389.9994241106
 10
455.6122534933
 20
389.7174793184
 10
455.1889212178
 20
389.4024206926
 10
454.8373284932
 20
389.059216896
 10
454.563020147
 20
388.6932804574
 10
454.3703221856
 20
388.3103824131
 10
454.262273571
 20
387.9165612939
 10
454.2405782943
 20
387.5180278942
 10
454.305578503
 20
387.1210673237
 10
454.456249105
 20
386.7319398879
 10
454.690213935
 20
386.3567823587
 10
455.0037832277
 20
386.0015111946
 10
455.3920118082
 20
385.671729234
 10
455.8487770797
 20
385.3726373355
  0
LWPOLYLINE
  5
D2
330
1F
100
AcDbEntity
  8
0
  6
Continuous
 62
     7
370
    25
100
AcDbPolyline
 90
       26
 70
   128
 43
0.0
 10
455.8487770797
 20
385.3726373355
 10
456.3668755812
 20
385.1089523569
 10
456.9381365896
 20
384.884832768
 10
457.5535509778
 20
384.7038130684
 10
458.2034132931
 20
384.568748047
 10
458.8774748185
 20
384.4817677599
 10
459.5651052013
 20
384.4442439381
 10
460.2554600995
 20
384.4567683547
 10
460.937652204
 20
384.5191434923
 10
461.6009229376
 20
384.6303856575
 10
462.2348121248
 20
384.7887404951
 10
462.8293229545
 20
384.9917106546
 10
463.3750796355
 20
385.2360951754
 10
463.8634752592
 20
385.5180399676
 10
464.2868075348
 20
385.8330985934
 10
464.6384002593
 20
386.1763023901
 10
464.9127086055
 20
386.5422388287
 10
465.1054065669
 20
386.925136873
 10
465.2134551816
 20
387.3189579922
 10
465.2351504583
 20
387.7174913919
 10
465.1701502495
 20
388.1144519623
 10
465.0194796475
 20
388.5035793982
 10
464.7855148175
 20
388.8787369273
 10
464.4719455248
 20
389.2340080914
 10
464.0837169443
 20
389.563790052
 10
463.6269516728
 20
389.8628819505
  0
LWPOLYLINE
  5
D3
330
1F
100
AcDbEntity
  8
0
  6
Continuous
 62
     7
370
    25
100
AcDbPolyline
 90
       34
 70
   128
 43
0.0
 10
466.8089321881
 20
375.3716379657
 10
466.1688028025
 20
375.7781443856
 10
465.5985072129
 20
376.2179370118
 10
465.1032101043
 20
376.6870330142
 10
464.6873969642
 20
377.1811841868
 10
464.3548334606
 20
377.69591542
 10
464.1085313403
 20
378.2265652281
 10
463.9507211533
 20
378.7683279642
 10
463.8828320531
 20
379.3162973411
 10
463.9054788539
 20
379.8655108633
 10
464.0184564628
 20
380.4109947681
 10
464.2207417371
 20
380.9478090687
 10
464.51050275
 20
381.4710922918
 10
464.8851153809
 20
381.9761055033
 10
465.3411870798
 20
382.4582752256
 10
465.8745875908
 20
382.9132348548
 10
466.4804863562
 20
383.3368642062
 10
467.153396263
 20
383.7253268268
 10
467.8872233349
 20
384.0751047388
 10
468.6753219203
 20
384.3830302994
 10
469.5105548763
 20
384.646314887
 10
470.385358204
 20
384.8625741556
 10
471.291809549
 20
385.0298496278
 10
472.2216999475
 20
385.146626431
 10
473.166608168
 20
385.2118470164
 10
474.1179769755
 20
385.2249207362
 10
475.0671906266
 20
385.1857291929
 10
476.0056528955
 20
385.0946273111
 10
476.9248649227
 20
384.9524401235
 10
477.8165021816
 20
384.7604552995
 10
478.6724898672
 20
384.5204114831
 10
479.4850760224
 20
384.2344825485
 10
480.2469017412
 20
383.9052579124
 10
480.9510678119
 20
383.5357190839
  0
LWPOLYLINE
  5
D4
330
1F
100
AcDbEntity
  8
0
  6
Continuous
 62
     7
370
    25
100
AcDbPolyline
 90
       34
 70
   128
 43
0.0
 10
480.9510678119
 20
383.5357190839
 10
481.5911971975
 20
383.129212664
 10
482.1614927871
 20
382.6894200378
 10
482.6567898957
 20
382.2203240354
 10
483.0726030358
 20
381.7261728628
 10
483.4051665394
 20
381.2114416296
 10
483.6514686597
 20
380.6807918215
 10
483.8092788467
 20
380.1390290854
 10
483.8771679469
 20
379.5910597085
 10
483.8545211461
 20
379.0418461863
 10
483.7415435372
 20
378.4963622815
 10
483.5392582629
 20
377.9595479809
 10
483.24949725
 20
377.4362647578
 10
482.8748846191
 20
376.9312515463
 10
482.4188129202
 20
376.449081824
 10
481.8854124092
 20
375.9941221948
 10
481.2795136438
 20
375.5704928434
 10
480.606603737
 20
375.1820302228
 10
479.8727766651
 20
374.8322523108
 10
479.0846780797
 20
374.5243267502
 10
478.2494451237
 20
374.2610421626
 10
477.374641796
 20
374.044782894
 10
476.468190451
 20
373.8775074218
 10
475.5383000525
 20
373.7607306186
 10
474.593391832
 20
373.6955100332
 10
473.6420230245
 20
373.6824363134
 10
472.6928093734
 20
373.7216278567
 10
471.7543471045
 20
373.8127297385
 10
470.8351350773
 20
373.9549169261
 10
469.9434978184
 20
374.1469017501
 10
469.0875101328
 20
374.3869455665
 10
468.2749239776
 20
374.6728745011
 10
467.5130982588
 20
375.0020991372
 10
466.8089321881
 20
375.3716379657
  0
LWPOLYLINE
  5
D5
330
1F
100
AcDbEntity
  8
0
  6
Continuous
 62
     7
370
    25
100
AcDbPolyline
 90
       19
 70
   128
 43
0.0
 10
444.1815151902
 20
346.7948327507
 10
442.8605778816
 20
347.5929283675
 10
441.6039330623
 20
348.4249045493
 10
440.4141853205
 20
349.2890368986
 10
439.2938005901
 20
350.1835343691
 10
438.2451010395
 20
351.1065429781
 10
437.2702602586
 20
352.0561496493
 10
436.3712987539
 20
353.030386178
 10
435.5500797604
 20
354.0272333101
 10
434.8083053798
 20
355.0446249278
 10
434.1475130528
 20
356.0804523315
 10
433.5690723724
 20
357.1325686108
 10
433.0741822453
 20
358.198793094
 10
432.6638684068
 20
359.2769158681
 10
432.3389812949
 20
360.364702359
 10
432.100194288
 20
361.459897963
 10
431.9480023084
 20
362.56023272
 10
431.8827207973
 20
363.6634260183
 10
431.88
 20
363.939403099
  0
LWPOLYLINE
  5
D6
330
1F
100
AcDbEntity
  8
0
  6
Continuous
 62
     7
370
    25
100
AcDbPolyline
 90
       40
 70
   128
 43
0.0
 10
505.5943132814
 20
348.0435122632
 10
505.222147363
 20
347.597627216
 10
504.4066942539
 20
346.7069227407
 10
503.515346973
 20
345.8407904847
 10
502.5503215501
 20
345.0013837893
 10
501.5140171905
 20
344.1907895518
 10
500.4090103101
 20
343.4110230372
 10
499.2380481301
 20
342.6640228679
 10
498.0040418469
 20
341.951646204
 10
496.7100593947
 20
341.2756641262
 10
495.3593178177
 20
340.6377572324
 10
493.9551752723
 20
340.0395114596
 10
492.501122678
 20
339.4824141411
 10
491.0007750388
 20
338.9678503086
 10
489.4578624553
 20
338.497099249
 10
487.8762208512
 20
338.0713313234
 10
486.2597824368
 20
337.691605058
 10
484.6125659327
 20
337.3588645122
 10
482.9386665786
 20
337.0739369314
 10
481.2422459521
 20
336.8375306904
 10
479.5275216221
 20
336.6502335325
 10
477.7987566636
 20
336.5125111078
 10
476.0602490586
 20
336.424705816
 10
474.3163210108
 20
336.3870359549
 10
472.5713082003
 20
336.3995951777
 10
470.8295490038
 20
336.4623522601
 10
469.0953737091
 20
336.5751511783
 10
467.3730937493
 20
336.7377114963
 10
465.6669909836
 20
336.9496290636
 10
463.9813070524
 20
337.2103770196
 10
462.3202328316
 20
337.519307104
 10
460.6878980133
 20
337.8756512677
 10
459.0883608391
 20
338.2785235832
 10
457.5255980104
 20
338.7269224462
 10
456.003494802
 20
339.2197330667
 10
454.5258354021
 20
339.7557302398
 10
453.0962935049
 20
340.3335813919
 10
451.7184231768
 20
340.9518498942
 10
450.3956500205
 20
341.6089986337
 10
449.1312626585
 20
342.3033938351
  0
LINE
  5
D7
330
1F
100
AcDbEntity
  8
0
  6
Continuous
 62
     7
370
    25
100
AcDbLine
 10
449.8383694397
 20
341.8950570791
 30
0.0
 11
449.1312626585
 21
342.3033938351
 31
0.0
  0
LWPOLYLINE
  5
D8
330
1F
100
AcDbEntity
  8
0
  6
Continuous
 62
     7
370
    25
100
AcDbPolyline
 90
       33
 70
   128
 43
0.0
 10
497.9255370491
 20
341.8973126136
 10
497.9216305603
 20
341.8950570791
 10
496.6730846945
 20
341.2099139273
 10
495.3660293072
 20
340.5621565628
 10
494.0038195908
 20
339.9534477692
 10
492.5899523181
 20
339.3853500934
 10
491.1280568661
 20
338.8593218341
 10
489.6218858996
 20
338.3767132981
 10
488.0753057377
 20
337.9387633346
 10
486.4922864296
 20
337.546596155
 10
484.8768915631
 20
337.2012184468
 10
483.2332678337
 20
336.9035167895
 10
481.5656343998
 20
336.6542553791
 10
479.8782720528
 20
336.4540740661
 10
478.1755122274
 20
336.3034867129
 10
476.4617258837
 20
336.2028798753
 10
474.7413122866
 20
336.1525118094
 10
473.0186877134
 20
336.1525118094
 10
471.2982741163
 20
336.2028798753
 10
469.5844877726
 20
336.3034867129
 10
467.8817279472
 20
336.4540740661
 10
466.1943656002
 20
336.6542553791
 10
464.5267321663
 20
336.9035167895
 10
462.8831084369
 20
337.2012184468
 10
461.2677135704
 20
337.546596155
 10
459.6846942623
 20
337.9387633346
 10
458.1381141004
 20
338.3767132981
 10
456.6319431339
 20
338.8593218341
 10
455.1700476819
 20
339.3853500934
 10
453.7561804092
 20
339.9534477692
 10
452.3939706928
 20
340.5621565628
 10
451.0869153055
 20
341.2099139273
 10
449.8383694397
 20
341.8950570791
  0
ARC
  5
D9
330
1F
100
AcDbEntity
  8
0
  6
Continuous
 62
     7
370
    25
100
AcDbCircle
 10
460.9906469978
 20
363.7910247319
 30
0.0
 40
24.54309023873288
100
AcDbArc
 50
219.9132575135
 51
241.1049565328
  0
LWPOLYLINE
  5
DA
330
1F
100
AcDbEntity
  8
0
  6
HIDDEN
 62
     7
370
    18
100
AcDbPolyline
 90
       19
 70
   128
 43
0.0
 10
503.5784848098
 20
381.0839734472
 10
504.8994221184
 20
380.2858778305
 10
506.1560669377
 20
379.4539016486
 10
507.3458146795
 20
378.5897692993
 10
508.4661994099
 20
377.6952718289
 10
509.5148989605
 20
376.7722632199
 10
510.4897397414
 20
375.8226565486
 10
511.3887012461
 20
374.84842002
 10
512.2099202396
 20
373.8515728878
 10
512.9516946202
 20
372.8341812702
 10
513.6124869472
 20
371.7983538664
 10
514.1909276276
 20
370.7462375872
 10
514.6858177547
 20
369.6800131039
 10
515.0961315932
 20
368.6018903298
 10
515.4210187051
 20
367.514103839
 10
515.659805712
 20
366.418908235
 10
515.8119976916
 20
365.3185734779
 10
515.8772792027
 20
364.2153801796
 10
515.88
 20
363.939403099
  0
LWPOLYLINE
  5
DB
330
1F
100
AcDbEntity
  8
0
  6
HIDDEN
 62
     7
370
    18
100
AcDbPolyline
 90
       49
 70
   128
 43
0.0
 10
501.8170780666
 20
383.9446529902
 10
502.0880291289
 20
383.3394334904
 10
502.4159944092
 20
382.4364757597
 10
502.6572968124
 20
381.5244593719
 10
502.8112035109
 20
380.6061540907
 10
502.8772470953
 20
379.6843487791
 10
502.8552269932
 20
378.7618429296
 10
502.7452100791
 20
377.8414381619
 10
502.5475304707
 20
376.9259297153
 10
502.2627885145
 20
376.0180979588
 10
501.8918489624
 20
375.1206999474
 10
501.4358383456
 20
374.2364610497
 10
500.8961415535
 20
373.3680666699
 10
500.2743976274
 20
372.5181540933
 10
499.5724947832
 20
371.6893044765
 10
498.7925646767
 20
370.8840350084
 10
497.9369759302
 20
370.1047912661
 10
497.0083269384
 20
369.3539397871
 10
496.0094379778
 20
368.6337608827
 10
494.9433426414
 20
367.9464417126
 10
493.8132786257
 20
367.2940696425
 10
492.622677898
 20
366.6786259049
 10
491.3751562735
 20
366.1019795822
 10
490.0745024343
 20
365.5658819304
 10
488.7246664236
 20
365.0719610604
 10
487.3297476488
 20
364.6217169937
 10
485.8939824325
 20
364.2165171066
 10
484.4217311464
 20
363.857591978
 10
482.9174649692
 20
363.5460316517
 10
481.385752308
 20
363.282782326
 10
479.8312449237
 20
363.0686434807
 10
478.2586638041
 20
362.9042654482
 10
476.6727848265
 20
362.7901474393
 10
475.0784242532
 20
362.7266360267
 10
473.4804241048
 20
362.7139240924
 10
471.8836374553
 20
362.7520502421
 10
470.2929136932
 20
362.840898688
 10
468.7130837943
 20
362.9801996002
 10
467.1489456501
 20
363.1695299265
 10
465.6052494968
 20
363.4083146769
 10
464.0866834887
 20
363.6958286699
 10
462.5978594611
 20
364.0311987351
 10
461.1432989234
 20
364.4134063645
 10
459.7274193283
 20
364.8412908061
 10
458.3545206556
 20
365.3135525889
 10
457.0287723533
 20
365.8287574695
 10
455.7542006756
 20
366.3853407875
 10
454.5346764547
 20
366.9816122177
 10
453.3739033456
 20
367.6157609034
  0
LWPOLYLINE
  5
DC
330
1F
100
AcDbEntity
  8
0
  6
HIDDEN
 62
     7
370
    18
100
AcDbPolyline
 90
       21
 70
   128
 43
0.0
 10
453.3739033456
 20
367.6157609034
 10
452.275406578
 20
368.2858609558
 10
451.2425222507
 20
368.9898773031
 10
450.2783871992
 20
369.7256718708
 10
449.38592947
 20
370.491010075
 10
448.5678594281
 20
371.2835676087
 10
447.8266615251
 20
372.1009375008
 10
447.1645867548
 20
372.9406374257
 10
446.5836458165
 20
373.8001172423
 10
446.0856030087
 20
374.6767667387
 10
445.6719708711
 20
375.5679235592
 10
445.3440055908
 20
376.4708812899
 10
445.1027031876
 20
377.3828976777
 10
444.9487964891
 20
378.3012029589
 10
444.8827529047
 20
379.2230082705
 10
444.9047730068
 20
380.14551412
 10
445.0147899209
 20
381.0659188877
 10
445.2124695293
 20
381.9814273343
 10
445.4972114855
 20
382.8892590908
 10
445.8681510376
 20
383.7866571022
 10
445.9429219334
 20
383.9446529902
  0
ARC
  5
DD
330
1F
100
AcDbEntity
  8
0
  6
HIDDEN
 62
     7
370
    18
100
AcDbCircle
 10
488.4121057673
 20
367.1378860567
 30
0.0
 40
7.291316869448508
100
AcDbArc
 50
61.3210018646
 51
81.1553705131
  0
LWPOLYLINE
  5
DE
330
1F
100
AcDbEntity
  8
0
  6
HIDDEN
 62
     7
370
    18
100
AcDbPolyline
 90
       11
 70
   128
 43
0.0
 10
482.9642775912
 20
372.5368691742
 10
482.8472913945
 20
372.3651182209
 10
482.6545934331
 20
371.9822201766
 10
482.5465448184
 20
371.5883990574
 10
482.5248495417
 20
371.1898656577
 10
482.5898497505
 20
370.7929050873
 10
482.7405203525
 20
370.4037776514
 10
482.9744851825
 20
370.0286201223
 10
483.2880544752
 20
369.6733489582
 10
483.6762830557
 20
369.3435669976
 10
484.1330483272
 20
369.0444750991
  0
LWPOLYLINE
  5
DF
330
1F
100
AcDbEntity
  8
0
  6
HIDDEN
 62
     7
370
    18
100
AcDbPolyline
 90
       26
 70
   128
 43
0.0
 10
484.1330483272
 20
369.0444750991
 10
484.6511468286
 20
368.7807901205
 10
485.2224078371
 20
368.5566705315
 10
485.8378222252
 20
368.3756508319
 10
486.4876845405
 20
368.2405858105
 10
487.161746066
 20
368.1536055234
 10
487.8493764488
 20
368.1160817016
 10
488.539731347
 20
368.1286061183
 10
489.2219234514
 20
368.1909812558
 10
489.8851941851
 20
368.3022234211
 10
490.5190833723
 20
368.4605782587
 10
491.1135942019
 20
368.6635484182
 10
491.659350883
 20
368.907932939
 10
492.1477465067
 20
369.1898777312
 10
492.5710787822
 20
369.504936357
 10
492.9226715068
 20
369.8481401536
 10
493.196979853
 20
370.2140765922
 10
493.3896778144
 20
370.5969746365
 10
493.497726429
 20
370.9907957557
 10
493.5194217057
 20
371.3893291554
 10
493.454421497
 20
371.7862897259
 10
493.303750895
 20
372.1754171617
 10
493.069786065
 20
372.5505746909
 10
492.7562167723
 20
372.905845855
 10
492.3679881918
 20
373.2356278156
 10
491.9112229203
 20
373.5347197141
  0
LWPOLYLINE
  5
E0
330
1F
100
AcDbEntity
  8
0
  6
HIDDEN
 62
     7
370
    18
100
AcDbPolyline
 90
       26
 70
   128
 43
0.0
 10
472.5927063945
 20
370.5464586263
 10
472.074607893
 20
370.8101436048
 10
471.5033468846
 20
371.0342631938
 10
470.8879324964
 20
371.2152828934
 10
470.2380701812
 20
371.3503479148
 10
469.5640086557
 20
371.4373282019
 10
468.8763782729
 20
371.4748520237
 10
468.1860233747
 20
371.4623276071
 10
467.5038312703
 20
371.3999524695
 10
466.8405605366
 20
371.2887103042
 10
466.2066713494
 20
371.1303554667
 10
465.6121605198
 20
370.9273853071
 10
465.0664038387
 20
370.6830007863
 10
464.578008215
 20
370.4010559941
 10
464.1546759394
 20
370.0859973684
 10
463.8030832149
 20
369.7427935717
 10
463.5287748687
 20
369.3768571331
 10
463.3360769073
 20
368.9939590888
 10
463.2280282926
 20
368.6001379696
 10
463.2063330159
 20
368.2016045699
 10
463.2713332247
 20
367.8046439995
 10
463.4220038267
 20
367.4155165636
 10
463.6559686567
 20
367.0403590345
 10
463.9695379494
 20
366.6850878703
 10
464.3577665299
 20
366.3553059098
 10
464.8145318014
 20
366.0562140112
  0
LWPOLYLINE
  5
E1
330
1F
100
AcDbEntity
  8
0
  6
HIDDEN
 62
     7
370
    18
100
AcDbPolyline
 90
       26
 70
   128
 43
0.0
 10
464.8145318014
 20
366.0562140112
 10
465.3326303029
 20
365.7925290327
 10
465.9038913113
 20
365.5684094437
 10
466.5193056995
 20
365.3873897441
 10
467.1691680147
 20
365.2523247227
 10
467.8432295402
 20
365.1653444356
 10
468.530859923
 20
365.1278206138
 10
469.2212148212
 20
365.1403450304
 10
469.9034069256
 20
365.202720168
 10
470.5666776593
 20
365.3139623332
 10
471.2005668465
 20
365.4723171708
 10
471.7950776761
 20
365.6752873304
 10
472.3408343572
 20
365.9196718512
 10
472.8292299809
 20
366.2016166434
 10
473.2525622565
 20
366.5166752691
 10
473.604154981
 20
366.8598790658
 10
473.8784633272
 20
367.2258155044
 10
474.0711612886
 20
367.6087135487
 10
474.1792099033
 20
368.0025346679
 10
474.20090518
 20
368.4010680676
 10
474.1359049712
 20
368.798028638
 10
473.9852343692
 20
369.1871560739
 10
473.7512695392
 20
369.562313603
 10
473.4377002465
 20
369.9175847671
 10
473.049471666
 20
370.2473667277
 10
472.5927063945
 20
370.5464586263
  0
ARC
  5
E2
330
1F
100
AcDbEntity
  8
0
  6
HIDDEN
 62
     7
370
    18
100
AcDbCircle
 10
451.512162935
 20
376.4456921903
 30
0.0
 40
2.378571059511968
100
AcDbArc
 50
116.5978451974
 51
249.3257041164
  0
ARC
  5
E3
330
1F
100
AcDbEntity
  8
0
  6
HIDDEN
 62
     7
370
    18
100
AcDbCircle
 10
454.5591525058
 20
381.6668391015
 30
0.0
 40
8.399874515846497
100
AcDbArc
 50
242.4374947029
 51
297.9261441172
  0
LINE
  5
E4
330
1F
100
AcDbEntity
  8
0
  6
HIDDEN
 62
     7
370
    18
100
AcDbLine
 10
508.88
 20
362.7145918811
 30
0.0
 11
508.879893415
 21
362.6647276671
 31
0.0
  0
LWPOLYLINE
  5
E5
330
1F
100
AcDbEntity
  8
0
  6
HIDDEN
 62
     7
370
    18
100
AcDbPolyline
 90
       53
 70
   128
 43
0.0
 10
431.88
 20
363.939403099
 10
431.9044850606
 20
364.7671913212
 10
432.0132499886
 20
365.8692409067
 10
432.2087901493
 20
366.9672906085
 10
432.4907002559
 20
368.0590645511
 10
432.8583960066
 20
369.1422998663
 10
433.3111152959
 20
370.2147513834
 10
433.8479197938
 20
371.2741962829
 10
434.4676968911
 20
372.3184387034
 10
435.1691620052
 20
373.3453142932
 10
435.9508612424
 20
374.3526946956
 10
436.8111744117
 20
375.338491961
 10
437.7483183826
 20
376.3006628741
 10
438.7603507813
 20
377.2372131886
 10
439.845174016
 20
378.146201761
 10
441.0005396248
 20
379.0257445737
 10
442.2240529363
 20
379.87401864
 10
443.513178032
 20
380.6892657822
 10
444.8652430035
 20
381.4697962762
 10
446.2774454896
 20
382.2139923533
 10
447.7468584851
 20
382.9203115536
 10
449.270436407
 20
383.5872899225
 10
450.8450214075
 20
384.2135450457
 10
452.4673499188
 20
384.7977789137
 10
454.1340594172
 20
385.3387806126
 10
455.8416953927
 20
385.8354288337
 10
457.5867185092
 20
386.2866941979
 10
459.3655119396
 20
386.6916413887
 10
461.174388863
 20
387.0494310912
 10
463.0096001057
 20
387.3593217317
 10
464.8673419122
 20
387.6206710144
 10
466.7437638288
 20
387.8329372531
 10
468.6349766847
 20
387.9956804935
 10
470.5370606523
 20
388.1085634255
 10
472.4460733722
 20
388.1713520819
 10
474.358058124
 20
388.1839163237
 10
476.2690520274
 20
388.1462301095
 10
478.1750942556
 20
388.0583715499
 10
480.072234245
 20
387.9205227449
 10
481.9565398834
 20
387.7329694074
 10
483.8241056596
 20
387.4961002704
 10
485.6710607582
 20
387.2104062811
 10
487.4935770829
 20
386.8764795842
 10
489.2878771901
 20
386.4950122936
 10
491.0502421191
 20
386.0667950585
 10
492.7770190992
 20
385.5927154246
 10
494.4646291215
 20
385.0737559943
 10
496.1095743565
 20
384.5109923903
 10
497.7084454041
 20
383.9055910261
 10
499.2579283599
 20
383.2588066884
 10
500.7548116837
 20
382.5719799365
 10
502.1959928564
 20
381.8465343239
 10
503.5784848098
 20
381.0839734472
  0
LWPOLYLINE
  5
E6
330
1F
100
AcDbEntity
  8
0
  6
HIDDEN
 62
     7
370
    18
100
AcDbPolyline
 90
       26
 70
   128
 43
0.0
 10
498.6287373415
 20
370.8776777489
 10
499.8315954431
 20
370.1477624615
 10
500.9699337893
 20
369.3841417725
 10
502.0409222918
 20
368.5887141632
 10
503.0418983044
 20
367.763457192
 10
503.970373243
 20
366.9104225778
 10
504.8240387727
 20
366.0317310991
 10
505.6007725463
 20
365.1295673212
 10
506.2986434814
 20
364.2061741655
 10
506.9159165608
 20
363.2638473329
 10
507.4510571464
 20
362.3049295963
 10
507.9027347945
 20
361.3318049764
 10
508.2698265632
 20
360.3468928142
 10
508.5514198045
 20
359.3526417566
 10
508.7468144332
 20
358.3515236684
 10
508.8555246676
 20
357.3460274869
 10
508.8772802368
 20
356.3386530339
 10
508.8120270532
 20
355.3319048012
 10
508.6599273463
 20
354.3282857234
 10
508.42135926
 20
353.3302909558
 10
508.0969159122
 20
352.3404016705
 10
507.6874039201
 20
351.3610788883
 10
507.1938413951
 20
350.3947573599
 10
506.6174554115
 20
349.4438395129
 10
505.9596789554
 20
348.510689479
 10
505.5943132814
 20
348.0435122632
  0
LWPOLYLINE
  5
E7
330
1F
100
AcDbEntity
  8
0
  6
HIDDEN
 62
     7
370
    18
100
AcDbPolyline
 90
       32
 70
   128
 43
0.0
 10
497.9216305603
 20
369.6529328811
 10
499.1084619053
 20
368.9321626948
 10
500.2305321504
 20
368.1776156807
 10
501.2849609574
 20
367.3912287501
 10
502.2690416227
 20
366.575020547
 10
503.1802480253
 20
365.7310862663
 10
504.0162411114
 20
364.861592275
 10
504.7748748988
 20
363.9687705518
 10
505.4542019855
 20
363.0549129572
 10
506.0524785484
 20
362.1223653506
 10
506.5681688204
 20
361.1735215683
 10
506.9999490318
 20
360.2108172787
 10
507.3467108091
 20
359.2367237299
 10
507.6075640197
 20
358.2537414061
 10
507.7818390572
 20
357.2643936087
 10
507.8690885601
 20
356.2712199795
 10
507.8690885601
 20
355.2767699808
 10
507.7818390572
 20
354.2835963515
 10
507.6075640197
 20
353.2942485541
 10
507.3467108091
 20
352.3112662303
 10
506.9999490318
 20
351.3371726815
 10
506.5681688204
 20
350.3744683919
 10
506.0524785484
 20
349.4256246096
 10
505.4542019855
 20
348.493077003
 10
504.7748748988
 20
347.5792194084
 10
504.0162411114
 20
346.6863976852
 10
503.1802480253
 20
345.8169036939
 10
502.2690416227
 20
344.9729694132
 10
501.2849609574
 20
344.1567612101
 10
500.2305321504
 20
343.3703742796
 10
499.1084619053
 20
342.6158272654
 10
497.9255370491
 20
341.8973126136
  0
LWPOLYLINE
  5
E8
330
1F
100
AcDbEntity
  8
0
  6
HIDDEN
 62
     7
370
    18
100
AcDbPolyline
 90
       26
 70
   128
 43
0.0
 10
464.8145318014
 20
342.3765304665
 10
465.3326303029
 20
342.112845488
 10
465.9038913113
 20
341.888725899
 10
466.5193056995
 20
341.7077061994
 10
467.1691680147
 20
341.572641178
 10
467.8432295402
 20
341.4856608909
 10
468.530859923
 20
341.4481370691
 10
469.2212148212
 20
341.4606614857
 10
469.9034069256
 20
341.5230366233
 10
470.5666776593
 20
341.6342787886
 10
471.2005668465
 20
341.7926336261
 10
471.7950776761
 20
341.9956037857
 10
472.3408343572
 20
342.2399883065
 10
472.8292299809
 20
342.5219330987
 10
473.2525622565
 20
342.8369917245
 10
473.604154981
 20
343.1801955211
 10
473.8784633272
 20
343.5461319597
 10
474.0711612886
 20
343.929030004
 10
474.1792099033
 20
344.3228511232
 10
474.20090518
 20
344.7213845229
 10
474.1359049712
 20
345.1183450933
 10
473.9852343692
 20
345.5074725292
 10
473.7512695392
 20
345.8826300584
 10
473.4377002465
 20
346.2379012225
 10
473.049471666
 20
346.567683183
 10
472.5927063945
 20
346.8667750816
  0
LWPOLYLINE
  5
E9
330
1F
100
AcDbEntity
  8
0
  6
HIDDEN
 62
     7
370
    18
100
AcDbPolyline
 90
       26
 70
   128
 43
0.0
 10
472.5927063945
 20
346.8667750816
 10
472.074607893
 20
347.1304600601
 10
471.5033468846
 20
347.3545796491
 10
470.8879324964
 20
347.5355993487
 10
470.2380701812
 20
347.6706643701
 10
469.5640086557
 20
347.7576446572
 10
468.8763782729
 20
347.795168479
 10
468.1860233747
 20
347.7826440624
 10
467.5038312703
 20
347.7202689248
 10
466.8405605366
 20
347.6090267596
 10
466.2066713494
 20
347.450671922
 10
465.6121605198
 20
347.2477017624
 10
465.0664038387
 20
347.0033172416
 10
464.578008215
 20
346.7213724495
 10
464.1546759394
 20
346.4063138237
 10
463.8030832149
 20
346.063110027
 10
463.5287748687
 20
345.6971735884
 10
463.3360769073
 20
345.3142755441
 10
463.2280282926
 20
344.9204544249
 10
463.2063330159
 20
344.5219210252
 10
463.2713332247
 20
344.1249604548
 10
463.4220038267
 20
343.7358330189
 10
463.6559686567
 20
343.3606754898
 10
463.9695379494
 20
343.0054043257
 10
464.3577665299
 20
342.6756223651
 10
464.8145318014
 20
342.3765304665
  0
LWPOLYLINE
  5
EA
330
1F
100
AcDbEntity
  8
0
  6
HIDDEN
 62
     7
370
    18
100
AcDbPolyline
 90
       26
 70
   128
 43
0.0
 10
484.1330483272
 20
345.3647915544
 10
484.6511468286
 20
345.1011065758
 10
485.2224078371
 20
344.8769869868
 10
485.8378222252
 20
344.6959672872
 10
486.4876845405
 20
344.5609022658
 10
487.161746066
 20
344.4739219787
 10
487.8493764488
 20
344.4363981569
 10
488.539731347
 20
344.4489225736
 10
489.2219234514
 20
344.5112977111
 10
489.8851941851
 20
344.6225398764
 10
490.5190833723
 20
344.780894714
 10
491.1135942019
 20
344.9838648735
 10
491.659350883
 20
345.2282493943
 10
492.1477465067
 20
345.5101941865
 10
492.5710787822
 20
345.8252528123
 10
492.9226715068
 20
346.1684566089
 10
493.196979853
 20
346.5343930475
 10
493.3896778144
 20
346.9172910919
 10
493.497726429
 20
347.311112211
 10
493.5194217057
 20
347.7096456107
 10
493.454421497
 20
348.1066061812
 10
493.303750895
 20
348.495733617
 10
493.069786065
 20
348.8708911462
 10
492.7562167723
 20
349.2261623103
 10
492.3679881918
 20
349.5559442709
 10
491.9112229203
 20
349.8550361694
  0
LWPOLYLINE
  5
EB
330
1F
100
AcDbEntity
  8
0
  6
HIDDEN
 62
     7
370
    18
100
AcDbPolyline
 90
       26
 70
   128
 43
0.0
 10
491.9112229203
 20
349.8550361694
 10
491.3931244188
 20
350.118721148
 10
490.8218634104
 20
350.3428407369
 10
490.2064490222
 20
350.5238604365
 10
489.5565867069
 20
350.6589254579
 10
488.8825251815
 20
350.7459057451
 10
488.1948947987
 20
350.7834295669
 10
487.5045399005
 20
350.7709051502
 10
486.822347796
 20
350.7085300127
 10
486.1590770624
 20
350.5972878474
 10
485.5251878752
 20
350.4389330098
 10
484.9306770455
 20
350.2359628503
 10
484.3849203645
 20
349.9915783295
 10
483.8965247408
 20
349.7096335373
 10
483.4731924652
 20
349.3945749115
 10
483.1215997407
 20
349.0513711149
 10
482.8472913945
 20
348.6854346762
 10
482.6545934331
 20
348.3025366319
 10
482.5465448184
 20
347.9087155127
 10
482.5248495417
 20
347.510182113
 10
482.5898497505
 20
347.1132215426
 10
482.7405203525
 20
346.7240941067
 10
482.9744851825
 20
346.3489365776
 10
483.2880544752
 20
345.9936654135
 10
483.6762830557
 20
345.6638834529
 10
484.1330483272
 20
345.3647915544
  0
LWPOLYLINE
  5
EC
330
1F
100
AcDbEntity
  8
0
  6
HIDDEN
 62
     7
370
    18
100
AcDbPolyline
 90
       34
 70
   128
 43
0.0
 10
480.9510678119
 20
357.4064131036
 10
481.5911971975
 20
356.9999066837
 10
482.1614927871
 20
356.5601140575
 10
482.6567898957
 20
356.0910180551
 10
483.0726030358
 20
355.5968668825
 10
483.4051665394
 20
355.0821356493
 10
483.6514686597
 20
354.5514858412
 10
483.8092788467
 20
354.0097231051
 10
483.8771679469
 20
353.4617537281
 10
483.8545211461
 20
352.9125402059
 10
483.7415435372
 20
352.3670563012
 10
483.5392582629
 20
351.8302420005
 10
483.24949725
 20
351.3069587775
 10
482.8748846191
 20
350.8019455659
 10
482.4188129202
 20
350.3197758437
 10
481.8854124092
 20
349.8648162144
 10
481.2795136438
 20
349.441186863
 10
480.606603737
 20
349.0527242425
 10
479.8727766651
 20
348.7029463304
 10
479.0846780797
 20
348.3950207698
 10
478.2494451237
 20
348.1317361822
 10
477.374641796
 20
347.9154769136
 10
476.468190451
 20
347.7482014414
 10
475.5383000525
 20
347.6314246382
 10
474.593391832
 20
347.5662040529
 10
473.6420230245
 20
347.553130333
 10
472.6928093734
 20
347.5923218764
 10
471.7543471045
 20
347.6834237582
 10
470.8351350773
 20
347.8256109457
 10
469.9434978184
 20
348.0175957698
 10
469.0875101328
 20
348.2576395861
 10
468.2749239776
 20
348.5435685207
 10
467.5130982588
 20
348.8727931569
 10
466.8089321881
 20
349.2423319853
  0
LWPOLYLINE
  5
ED
330
1F
100
AcDbEntity
  8
0
  6
HIDDEN
 62
     7
370
    18
100
AcDbPolyline
 90
       26
 70
   128
 43
0.0
 10
450.6723961777
 20
350.5406115848
 10
451.1904946791
 20
350.2769266062
 10
451.7617556876
 20
350.0528070172
 10
452.3771700757
 20
349.8717873176
 10
453.027032391
 20
349.7367222962
 10
453.7010939165
 20
349.6497420091
 10
454.3887242993
 20
349.6122181873
 10
455.0790791975
 20
349.624742604
 10
455.7612713019
 20
349.6871177415
 10
456.4245420356
 20
349.7983599068
 10
457.0584312228
 20
349.9567147444
 10
457.6529420524
 20
350.1596849039
 10
458.1986987335
 20
350.4040694247
 10
458.6870943572
 20
350.6860142169
 10
459.1104266327
 20
351.0010728427
 10
459.4620193573
 20
351.3442766393
 10
459.7363277035
 20
351.7102130779
 10
459.9290256649
 20
352.0931111223
 10
460.0370742795
 20
352.4869322414
 10
460.0587695562
 20
352.8854656411
 10
459.9937693475
 20
353.2824262116
 10
459.8430987454
 20
353.6715536474
 10
459.6091339155
 20
354.0467111766
 10
459.2955646227
 20
354.4019823407
 10
458.9073360423
 20
354.7317643013
 10
458.4505707707
 20
355.0308561998
  0
LINE
  5
EE
330
1F
100
AcDbEntity
  8
0
  6
HIDDEN
 62
     7
370
    18
100
AcDbLine
 10
438.88
 20
362.7145918811
 30
0.0
 11
438.880106585
 21
362.7644560952
 31
0.0
  0
LWPOLYLINE
  5
EF
330
1F
100
AcDbEntity
  8
0
  6
HIDDEN
 62
     7
370
    18
100
AcDbPolyline
 90
       58
 70
   128
 43
0.0
 10
442.1656867186
 20
348.0435122632
 10
442.1592274537
 20
348.0515042628
 10
441.4613565186
 20
348.9748974185
 10
440.8440834392
 20
349.9172242511
 10
440.3089428536
 20
350.8761419877
 10
439.8572652055
 20
351.8492666076
 10
439.4901734368
 20
352.8341787698
 10
439.2085801955
 20
353.8284298274
 10
439.0131855668
 20
354.8295479156
 10
438.9044753324
 20
355.8350440971
 10
438.8827197632
 20
356.8424185501
 10
438.9479729468
 20
357.8491667828
 10
439.1000726537
 20
358.8527858606
 10
439.33864074
 20
359.8507806282
 10
439.6630840878
 20
360.8406699135
 10
440.0725960799
 20
361.8199926957
 10
440.5661586049
 20
362.7863142241
 10
441.1425445885
 20
363.7372320711
 10
441.8003210446
 20
364.670382105
 10
442.537852637
 20
365.583444368
 10
443.3533057461
 20
366.4741488433
 10
444.244653027
 20
367.3402810993
 10
445.2096784499
 20
368.1796877947
 10
446.2459828095
 20
368.9902820322
 10
447.3509896899
 20
369.7700485468
 10
448.5219518699
 20
370.5170487161
 10
449.7559581531
 20
371.22942538
 10
451.0499406053
 20
371.9054074578
 10
452.4006821823
 20
372.5433143516
 10
453.8048247277
 20
373.1415601244
 10
455.258877322
 20
373.6986574429
 10
456.7592249612
 20
374.2132212754
 10
458.3021375447
 20
374.683972335
 10
459.8837791488
 20
375.1097402606
 10
461.5002175632
 20
375.489466526
 10
463.1474340673
 20
375.8222070718
 10
464.8213334214
 20
376.1071346526
 10
466.5177540479
 20
376.3435408936
 10
468.2324783779
 20
376.5308380515
 10
469.9612433364
 20
376.6685604762
 10
471.6997509414
 20
376.756365768
 10
473.4436789892
 20
376.7940356291
 10
475.1886917997
 20
376.7814764063
 10
476.9304509962
 20
376.7187193239
 10
478.6646262909
 20
376.6059204057
 10
480.3869062507
 20
376.4433600877
 10
482.0930090164
 20
376.2314425204
 10
483.7786929476
 20
375.9706945644
 10
485.4397671684
 20
375.66176448
 10
487.0721019867
 20
375.3054203163
 10
488.6716391609
 20
374.9025480008
 10
490.2344019896
 20
374.4541491378
 10
491.756505198
 20
373.9613385173
 10
493.2341645979
 20
373.4253413442
 10
494.6637064951
 20
372.8474901921
 10
496.0415768232
 20
372.2292216898
 10
497.3643499795
 20
371.5720729503
 10
498.6287373415
 20
370.8776777489
  0
LWPOLYLINE
  5
F0
330
1F
100
AcDbEntity
  8
0
  6
HIDDEN
 62
     7
370
    18
100
AcDbPolyline
 90
       26
 70
   128
 43
0.0
 10
458.4505707707
 20
355.0308561998
 10
457.9324722693
 20
355.2945411784
 10
457.3612112608
 20
355.5186607673
 10
456.7457968727
 20
355.6996804669
 10
456.0959345574
 20
355.8347454883
 10
455.4218730319
 20
355.9217257755
 10
454.7342426491
 20
355.9592495972
 10
454.043887751
 20
355.9467251806
 10
453.3616956465
 20
355.8843500431
 10
452.6984249129
 20
355.7731078778
 10
452.0645357257
 20
355.6147530402
 10
451.470024896
 20
355.4117828807
 10
450.9242682149
 20
355.1673983599
 10
450.4358725913
 20
354.8854535677
 10
450.0125403157
 20
354.5703949419
 10
449.6609475912
 20
354.2271911453
 10
449.386639245
 20
353.8612547066
 10
449.1939412836
 20
353.4783566623
 10
449.0858926689
 20
353.0845355431
 10
449.0641973922
 20
352.6860021434
 10
449.1291976009
 20
352.289041573
 10
449.279868203
 20
351.8999141371
 10
449.513833033
 20
351.524756608
 10
449.8274023257
 20
351.1694854439
 10
450.2156309062
 20
350.8397034833
 10
450.6723961777
 20
350.5406115848
  0
LWPOLYLINE
  5
F1
330
1F
100
AcDbEntity
  8
0
  6
HIDDEN
 62
     7
370
    18
100
AcDbPolyline
 90
       34
 70
   128
 43
0.0
 10
466.8089321881
 20
349.2423319853
 10
466.1688028025
 20
349.6488384052
 10
465.5985072129
 20
350.0886310314
 10
465.1032101043
 20
350.5577270338
 10
464.6873969642
 20
351.0518782064
 10
464.3548334606
 20
351.5666094396
 10
464.1085313403
 20
352.0972592477
 10
463.9507211533
 20
352.6390219838
 10
463.8828320531
 20
353.1869913608
 10
463.9054788539
 20
353.736204883
 10
464.0184564628
 20
354.2816887877
 10
464.2207417371
 20
354.8185030884
 10
464.51050275
 20
355.3417863114
 10
464.8851153809
 20
355.846799523
 10
465.3411870798
 20
356.3289692452
 10
465.8745875908
 20
356.7839288745
 10
466.4804863562
 20
357.2075582259
 10
467.153396263
 20
357.5960208464
 10
467.8872233349
 20
357.9457987585
 10
468.6753219203
 20
358.2537243191
 10
469.5105548763
 20
358.5170089067
 10
470.385358204
 20
358.7332681753
 10
471.291809549
 20
358.9005436475
 10
472.2216999475
 20
359.0173204507
 10
473.166608168
 20
359.082541036
 10
474.1179769755
 20
359.0956147559
 10
475.0671906266
 20
359.0564232125
 10
476.0056528955
 20
358.9653213307
 10
476.9248649227
 20
358.8231341432
 10
477.8165021816
 20
358.6311493191
 10
478.6724898672
 20
358.3911055028
 10
479.4850760224
 20
358.1051765682
 10
480.2469017412
 20
357.775951932
 10
480.9510678119
 20
357.4064131036
  0
LWPOLYLINE
  5
F2
330
1F
100
AcDbEntity
  8
0
  6
HIDDEN
 62
     7
370
    18
100
AcDbPolyline
 90
       63
 70
   128
 43
0.0
 10
449.8383694397
 20
341.8950570791
 10
448.6515380947
 20
342.6158272654
 10
447.5294678496
 20
343.3703742796
 10
446.4750390426
 20
344.1567612101
 10
445.4909583773
 20
344.9729694132
 10
444.5797519747
 20
345.8169036939
 10
443.7437588886
 20
346.6863976852
 10
442.9851251012
 20
347.5792194084
 10
442.3057980145
 20
348.493077003
 10
441.7075214516
 20
349.4256246096
 10
441.1918311796
 20
350.3744683919
 10
440.7600509682
 20
351.3371726815
 10
440.4132891909
 20
352.3112662303
 10
440.1524359803
 20
353.2942485541
 10
439.9781609428
 20
354.2835963515
 10
439.8909114399
 20
355.2767699808
 10
439.8909114399
 20
356.2712199795
 10
439.9781609428
 20
357.2643936087
 10
440.1524359803
 20
358.2537414061
 10
440.4132891909
 20
359.2367237299
 10
440.7600509682
 20
360.2108172787
 10
441.1918311796
 20
361.1735215683
 10
441.7075214516
 20
362.1223653506
 10
442.3057980145
 20
363.0549129572
 10
442.9851251012
 20
363.9687705518
 10
443.7437588886
 20
364.861592275
 10
444.5797519747
 20
365.7310862663
 10
445.4909583773
 20
366.575020547
 10
446.4750390426
 20
367.3912287501
 10
447.5294678496
 20
368.1776156807
 10
448.6515380947
 20
368.9321626948
 10
449.8383694397
 20
369.6529328811
 10
451.0869153055
 20
370.3380760329
 10
452.3939706928
 20
370.9858333975
 10
453.7561804092
 20
371.594542191
 10
455.1700476819
 20
372.1626398668
 10
456.6319431339
 20
372.6886681262
 10
458.1381141004
 20
373.1712766622
 10
459.6846942623
 20
373.6092266256
 10
461.2677135704
 20
374.0013938052
 10
462.8831084369
 20
374.3467715135
 10
464.5267321663
 20
374.6444731707
 10
466.1943656002
 20
374.8937345811
 10
467.8817279472
 20
375.0939158941
 10
469.5844877726
 20
375.2445032473
 10
471.2982741163
 20
375.3451100849
 10
473.0186877134
 20
375.3954781508
 10
474.7413122866
 20
375.3954781508
 10
476.4617258837
 20
375.3451100849
 10
478.1755122274
 20
375.2445032473
 10
479.8782720528
 20
375.0939158941
 10
481.5656343998
 20
374.8937345811
 10
483.2332678337
 20
374.6444731707
 10
484.8768915631
 20
374.3467715135
 10
486.4922864296
 20
374.0013938052
 10
488.0753057377
 20
373.6092266256
 10
489.6218858996
 20
373.1712766622
 10
491.1280568661
 20
372.6886681262
 10
492.5899523181
 20
372.1626398668
 10
494.0038195908
 20
371.594542191
 10
495.3660293072
 20
370.9858333975
 10
496.6730846945
 20
370.3380760329
 10
497.9216305603
 20
369.6529328811
  0
LWPOLYLINE
  5
F3
330
1F
100
AcDbEntity
  8
0
  6
HIDDEN
 62
     7
370
    18
100
AcDbPolyline
 90
       26
 70
   128
 43
0.0
 10
489.3094292293
 20
356.5171337604
 10
489.8275277307
 20
356.2534487819
 10
490.3987887392
 20
356.0293291929
 10
491.0142031273
 20
355.8483094933
 10
491.6640654426
 20
355.7132444719
 10
492.3381269681
 20
355.6262641848
 10
493.0257573509
 20
355.588740363
 10
493.716112249
 20
355.6012647796
 10
494.3983043535
 20
355.6636399172
 10
495.0615750871
 20
355.7748820824
 10
495.6954642743
 20
355.93323692
 10
496.289975104
 20
356.1362070796
 10
496.8357317851
 20
356.3805916004
 10
497.3241274087
 20
356.6625363925
 10
497.7474596843
 20
356.9775950183
 10
498.0990524088
 20
357.320798815
 10
498.373360755
 20
357.6867352536
 10
498.5660587164
 20
358.0696332979
 10
498.6741073311
 20
358.4634544171
 10
498.6958026078
 20
358.8619878168
 10
498.6308023991
 20
359.2589483872
 10
498.480131797
 20
359.6480758231
 10
498.246166967
 20
360.0232333522
 10
497.9325976743
 20
360.3785045163
 10
497.5443690938
 20
360.7082864769
 10
497.0876038223
 20
361.0073783755
  0
LWPOLYLINE
  5
F4
330
1F
100
AcDbEntity
  8
0
  6
HIDDEN
 62
     7
370
    18
100
AcDbPolyline
 90
       26
 70
   128
 43
0.0
 10
497.0876038223
 20
361.0073783755
 10
496.5695053209
 20
361.271063354
 10
495.9982443124
 20
361.495182943
 10
495.3828299243
 20
361.6762026426
 10
494.732967609
 20
361.811267664
 10
494.0589060835
 20
361.8982479511
 10
493.3712757007
 20
361.9357717729
 10
492.6809208025
 20
361.9232473563
 10
491.9987286981
 20
361.8608722187
 10
491.3354579644
 20
361.7496300534
 10
490.7015687772
 20
361.5912752159
 10
490.1070579476
 20
361.3883050563
 10
489.5613012665
 20
361.1439205355
 10
489.0729056428
 20
360.8619757433
 10
488.6495733673
 20
360.5469171176
 10
488.2979806427
 20
360.2037133209
 10
488.0236722965
 20
359.8377768823
 10
487.8309743351
 20
359.454878838
 10
487.7229257205
 20
359.0610577188
 10
487.7012304438
 20
358.6625243191
 10
487.7662306525
 20
358.2655637487
 10
487.9169012546
 20
357.8764363128
 10
488.1508660845
 20
357.5012787836
 10
488.4644353773
 20
357.1460076195
 10
488.8526639577
 20
356.816225659
 10
489.3094292293
 20
356.5171337604
  0
LWPOLYLINE
  5
F5
330
1F
100
AcDbEntity
  8
0
  6
HIDDEN
 62
     7
370
    18
100
AcDbPolyline
 90
       38
 70
   128
 43
0.0
 10
482.7188347648
 20
358.8351936493
 10
483.4365783148
 20
358.3840851227
 10
484.0854664991
 20
357.8994628487
 10
484.6608240634
 20
357.3848185419
 10
485.1585055432
 20
356.8438602262
 10
485.5749251322
 20
356.2804855188
 10
485.9070825176
 20
355.6987535473
 10
486.1525844979
 20
355.1028557038
 10
486.3096622256
 20
354.4970854461
 10
486.3771839522
 20
353.8858073627
 10
486.354663182
 20
353.2734257262
 10
486.2422621778
 20
352.6643527603
 10
486.0407907912
 20
352.0629768497
 10
485.7517006284
 20
351.4736309216
 10
485.3770745905
 20
350.900561227
 10
484.9196118667
 20
350.347896746
 10
484.3826084864
 20
349.8196194391
 10
483.7699335713
 20
349.3195355562
 10
483.0860014583
 20
348.8512482132
 10
482.3357398937
 20
348.4181314311
 10
481.5245545295
 20
348.0233058263
 10
480.6582899747
 20
347.6696161263
 10
479.7431876853
 20
347.3596106736
 10
478.7858409943
 20
347.0955230644
 10
477.7931476065
 20
346.8792560561
 10
476.7722599005
 20
346.7123678574
 10
475.7305333957
 20
346.5960609016
 10
474.6754737553
 20
346.531173183
 10
473.6146827083
 20
346.5181722191
 10
472.5558032785
 20
346.5571516822
 10
471.5064647164
 20
346.6478307242
 10
470.4742275304
 20
346.7895560007
 10
469.4665290131
 20
346.9813063778
 10
468.4906296554
 20
347.2217002896
 10
467.5535608345
 20
347.5090056925
 10
466.6620741528
 20
347.8411525444
 10
465.8225927922
 20
348.2157477197
 10
465.0411652352
 20
348.6300922515
  0
LWPOLYLINE
  5
F6
330
1F
100
AcDbEntity
  8
0
  6
HIDDEN
 62
     7
370
    18
100
AcDbPolyline
 90
       38
 70
   128
 43
0.0
 10
482.7188347648
 20
360.876545679
 10
483.4365783148
 20
360.4254371524
 10
484.0854664991
 20
359.9408148785
 10
484.6608240634
 20
359.4261705716
 10
485.1585055432
 20
358.8852122559
 10
485.5749251322
 20
358.3218375485
 10
485.9070825176
 20
357.740105577
 10
486.1525844979
 20
357.1442077335
 10
486.3096622256
 20
356.5384374758
 10
486.3771839522
 20
355.9271593924
 10
486.354663182
 20
355.3147777559
 10
486.2422621778
 20
354.70570479
 10
486.0407907912
 20
354.1043288794
 10
485.7517006284
 20
353.5149829513
 10
485.3770745905
 20
352.9419132567
 10
484.9196118667
 20
352.3892487757
 10
484.3826084864
 20
351.8609714688
 10
483.7699335713
 20
351.3608875859
 10
483.0860014583
 20
350.8926002429
 10
482.3357398937
 20
350.4594834608
 10
481.5245545295
 20
350.064657856
 10
480.6582899747
 20
349.7109681561
 10
479.7431876853
 20
349.4009627033
 10
478.7858409943
 20
349.1368750941
 10
477.7931476065
 20
348.9206080858
 10
476.7722599005
 20
348.7537198871
 10
475.7305333957
 20
348.6374129313
 10
474.6754737553
 20
348.5725252127
 10
473.6146827083
 20
348.5595242488
 10
472.5558032785
 20
348.5985037119
 10
471.5064647164
 20
348.689182754
 10
470.4742275304
 20
348.8309080305
 10
469.4665290131
 20
349.0226584075
 10
468.4906296554
 20
349.2630523193
 10
467.5535608345
 20
349.5503577222
 10
466.6620741528
 20
349.8825045741
 10
465.8225927922
 20
350.2570997494
 10
465.0411652352
 20
350.6714442812
  0
LINE
  5
F7
330
1F
100
AcDbEntity
  8
0
  6
HIDDEN
 62
     7
370
    18
100
AcDbLine
 10
465.3947186258
 20
348.4259238735
 30
0.0
 11
465.0411652352
 21
348.6300922515
 31
0.0
  0
LWPOLYLINE
  5
F8
330
1F
100
AcDbEntity
  8
0
  6
HIDDEN
 62
     7
370
    18
100
AcDbPolyline
 90
       38
 70
   128
 43
0.0
 10
482.3652813742
 20
358.2228212154
 10
483.0543151822
 20
357.7897570299
 10
483.6772478391
 20
357.3245196469
 10
484.2295911008
 20
356.8304611123
 10
484.7073653215
 20
356.3111411292
 10
485.1071281269
 20
355.7703014101
 10
485.4259992169
 20
355.2118387174
 10
485.661681118
 20
354.6397767877
 10
485.8124757366
 20
354.0582373403
 10
485.8772965941
 20
353.4714103803
 10
485.8556766547
 20
352.8835240092
 10
485.7477716906
 20
352.2988139619
 10
485.5543591596
 20
351.7214930878
 10
485.2768326032
 20
351.1557209968
 10
484.9171916069
 20
350.60557409
 10
484.478027392
 20
350.0750161883
 10
483.962504147
 20
349.5678699736
 10
483.3743362285
 20
349.087789446
 10
482.7177613999
 20
348.6382335967
 10
481.997510298
 20
348.2224414859
 10
481.2187723483
 20
347.8434089053
 10
480.3871583757
 20
347.5038667934
 10
479.5086601779
 20
347.2062615587
 10
478.5896073545
 20
346.9527374539
 10
477.6366217022
 20
346.7451211259
 10
476.6565695045
 20
346.5849084552
 10
475.6565120598
 20
346.4732537776
 10
474.6436548051
 20
346.4109615678
 10
473.6252954
 20
346.3984806424
 10
472.6087711474
 20
346.435900927
 10
471.6014061278
 20
346.5229528073
 10
470.6104584292
 20
346.6590090728
 10
469.6430678526
 20
346.8430894348
 10
468.7062044692
 20
347.0738675901
 10
467.8066184011
 20
347.3496807768
 10
466.9507911867
 20
347.6685417547
 10
466.1448890805
 20
348.0281531229
 10
465.3947186258
 20
348.4259238735
  0
LWPOLYLINE
  5
F9
330
1F
100
AcDbEntity
  8
0
  6
HIDDEN
 62
     7
370
    18
100
AcDbPolyline
 90
       26
 70
   128
 43
0.0
 10
455.8487770797
 20
361.6929537908
 10
456.3668755812
 20
361.4292688123
 10
456.9381365896
 20
361.2051492233
 10
457.5535509778
 20
361.0241295237
 10
458.2034132931
 20
360.8890645023
 10
458.8774748185
 20
360.8020842152
 10
459.5651052013
 20
360.7645603934
 10
460.2554600995
 20
360.77708481
 10
460.937652204
 20
360.8394599476
 10
461.6009229376
 20
360.9507021128
 10
462.2348121248
 20
361.1090569504
 10
462.8293229545
 20
361.31202711
 10
463.3750796355
 20
361.5564116308
 10
463.8634752592
 20
361.8383564229
 10
464.2868075348
 20
362.1534150487
 10
464.6384002593
 20
362.4966188454
 10
464.9127086055
 20
362.862555284
 10
465.1054065669
 20
363.2454533283
 10
465.2134551816
 20
363.6392744475
 10
465.2351504583
 20
364.0378078472
 10
465.1701502495
 20
364.4347684176
 10
465.0194796475
 20
364.8238958535
 10
464.7855148175
 20
365.1990533826
 10
464.4719455248
 20
365.5543245467
 10
464.0837169443
 20
365.8841065073
 10
463.6269516728
 20
366.1831984059
  0
LWPOLYLINE
  5
FA
330
1F
100
AcDbEntity
  8
0
  6
HIDDEN
 62
     7
370
    18
100
AcDbPolyline
 90
       26
 70
   128
 43
0.0
 10
463.6269516728
 20
366.1831984059
 10
463.1088531714
 20
366.4468833844
 10
462.5375921629
 20
366.6710029734
 10
461.9221777748
 20
366.852022673
 10
461.2723154595
 20
366.9870876944
 10
460.598253934
 20
367.0740679815
 10
459.9106235512
 20
367.1115918033
 10
459.220268653
 20
367.0990673867
 10
458.5380765486
 20
367.0366922491
 10
457.8748058149
 20
366.9254500838
 10
457.2409166277
 20
366.7670952463
 10
456.6464057981
 20
366.5641250867
 10
456.100649117
 20
366.3197405659
 10
455.6122534933
 20
366.0377957737
 10
455.1889212178
 20
365.7227371479
 10
454.8373284932
 20
365.3795333513
 10
454.563020147
 20
365.0135969127
 10
454.3703221856
 20
364.6306988684
 10
454.262273571
 20
364.2368777492
 10
454.2405782943
 20
363.8383443495
 10
454.305578503
 20
363.4413837791
 10
454.456249105
 20
363.0522563432
 10
454.690213935
 20
362.677098814
 10
455.0037832277
 20
362.3218276499
 10
455.3920118082
 20
361.9920456894
 10
455.8487770797
 20
361.6929537908
  0
LWPOLYLINE
  5
FB
330
1F
100
AcDbEntity
  8
0
  6
HIDDEN
 62
     7
370
    18
100
AcDbPolyline
 90
       26
 70
   128
 43
0.0
 10
475.1672936055
 20
364.6812148787
 10
475.685392107
 20
364.4175299001
 10
476.2566531154
 20
364.1934103111
 10
476.8720675036
 20
364.0123906115
 10
477.5219298188
 20
363.8773255901
 10
478.1959913443
 20
363.790345303
 10
478.8836217271
 20
363.7528214812
 10
479.5739766253
 20
363.7653458979
 10
480.2561687297
 20
363.8277210354
 10
480.9194394634
 20
363.9389632007
 10
481.5533286506
 20
364.0973180383
 10
482.1478394802
 20
364.3002881978
 10
482.6935961613
 20
364.5446727186
 10
483.181991785
 20
364.8266175108
 10
483.6053240606
 20
365.1416761366
 10
483.9569167851
 20
365.4848799332
 10
484.2312251313
 20
365.8508163718
 10
484.4239230927
 20
366.2337144161
 10
484.5319717074
 20
366.6275355353
 10
484.5536669841
 20
367.026068935
 10
484.4886667753
 20
367.4230295054
 10
484.3379961733
 20
367.8121569413
 10
484.1040313433
 20
368.1873144705
 10
483.7904620506
 20
368.5425856346
 10
483.4022334701
 20
368.8723675952
 10
482.9454681986
 20
369.1714594937
  0
LWPOLYLINE
  5
FC
330
1F
100
AcDbEntity
  8
0
  6
HIDDEN
 62
     7
370
    18
100
AcDbPolyline
 90
       38
 70
   128
 43
0.0
 10
465.0411652352
 20
348.6300922515
 10
464.3234216852
 20
349.0812007781
 10
463.6745335009
 20
349.5658230521
 10
463.0991759366
 20
350.0804673589
 10
462.6014944568
 20
350.6214256746
 10
462.1850748678
 20
351.184800382
 10
461.8529174824
 20
351.7665323535
 10
461.6074155021
 20
352.362430197
 10
461.4503377744
 20
352.9682004547
 10
461.3828160478
 20
353.5794785381
 10
461.405336818
 20
354.1918601746
 10
461.5177378222
 20
354.8009331405
 10
461.7192092088
 20
355.4023090511
 10
462.0082993716
 20
355.9916549792
 10
462.3829254095
 20
356.5647246738
 10
462.8403881333
 20
357.1173891548
 10
463.3773915136
 20
357.6456664617
 10
463.9900664287
 20
358.1457503446
 10
464.6739985417
 20
358.6140376876
 10
465.4242601063
 20
359.0471544697
 10
466.2354454705
 20
359.4419800745
 10
467.1017100253
 20
359.7956697745
 10
468.0168123147
 20
360.1056752272
 10
468.9741590057
 20
360.3697628364
 10
469.9668523935
 20
360.5860298447
 10
470.9877400995
 20
360.7529180434
 10
472.0294666043
 20
360.8692249992
 10
473.0845262447
 20
360.9341127178
 10
474.1453172917
 20
360.9471136817
 10
475.2041967215
 20
360.9081342186
 10
476.2535352836
 20
360.8174551766
 10
477.2857724696
 20
360.6757299001
 10
478.2934709869
 20
360.483979523
 10
479.2693703446
 20
360.2435856112
 10
480.2064391655
 20
359.9562802083
 10
481.0979258472
 20
359.6241333564
 10
481.9374072078
 20
359.2495381811
 10
482.7188347648
 20
358.8351936493
  0
LWPOLYLINE
  5
FD
330
1F
100
AcDbEntity
  8
0
  6
HIDDEN
 62
     7
370
    18
100
AcDbPolyline
 90
       38
 70
   128
 43
0.0
 10
465.0411652352
 20
350.6714442812
 10
464.3234216852
 20
351.1225528078
 10
463.6745335009
 20
351.6071750818
 10
463.0991759366
 20
352.1218193886
 10
462.6014944568
 20
352.6627777043
 10
462.1850748678
 20
353.2261524117
 10
461.8529174824
 20
353.8078843833
 10
461.6074155021
 20
354.4037822267
 10
461.4503377744
 20
355.0095524844
 10
461.3828160478
 20
355.6208305678
 10
461.405336818
 20
356.2332122043
 10
461.5177378222
 20
356.8422851702
 10
461.7192092088
 20
357.4436610808
 10
462.0082993716
 20
358.0330070089
 10
462.3829254095
 20
358.6060767036
 10
462.8403881333
 20
359.1587411845
 10
463.3773915136
 20
359.6870184915
 10
463.9900664287
 20
360.1871023744
 10
464.6739985417
 20
360.6553897174
 10
465.4242601063
 20
361.0885064994
 10
466.2354454705
 20
361.4833321042
 10
467.1017100253
 20
361.8370218042
 10
468.0168123147
 20
362.1470272569
 10
468.9741590057
 20
362.4111148661
 10
469.9668523935
 20
362.6273818744
 10
470.9877400995
 20
362.7942700731
 10
472.0294666043
 20
362.9105770289
 10
473.0845262447
 20
362.9754647475
 10
474.1453172917
 20
362.9884657114
 10
475.2041967215
 20
362.9494862483
 10
476.2535352836
 20
362.8588072063
 10
477.2857724696
 20
362.7170819298
 10
478.2934709869
 20
362.5253315527
 10
479.2693703446
 20
362.2849376409
 10
480.2064391655
 20
361.9976322381
 10
481.0979258472
 20
361.6654853861
 10
481.9374072078
 20
361.2908902109
 10
482.7188347648
 20
360.876545679
  0
LWPOLYLINE
  5
FE
330
1F
100
AcDbEntity
  8
0
  6
HIDDEN
 62
     7
370
    18
100
AcDbPolyline
 90
       38
 70
   128
 43
0.0
 10
465.3947186258
 20
348.4259238735
 10
464.7056848178
 20
348.858988059
 10
464.0827521609
 20
349.3242254421
 10
463.5304088992
 20
349.8182839766
 10
463.0526346785
 20
350.3376039597
 10
462.6528718731
 20
350.8784436788
 10
462.3340007831
 20
351.4369063715
 10
462.098318882
 20
352.0089683012
 10
461.9475242634
 20
352.5905077486
 10
461.8827034059
 20
353.1773347087
 10
461.9043233453
 20
353.7652210797
 10
462.0122283094
 20
354.349931127
 10
462.2056408404
 20
354.9272520011
 10
462.4831673968
 20
355.4930240921
 10
462.8428083931
 20
356.043170999
 10
463.281972608
 20
356.5737289007
 10
463.797495853
 20
357.0808751153
 10
464.3856637715
 20
357.5609556429
 10
465.0422386001
 20
358.0105114922
 10
465.762489702
 20
358.426303603
 10
466.5412276517
 20
358.8053361836
 10
467.3728416243
 20
359.1448782956
 10
468.2513398221
 20
359.4424835302
 10
469.1703926455
 20
359.696007635
 10
470.1233782978
 20
359.903623963
 10
471.1034304955
 20
360.0638366338
 10
472.1034879402
 20
360.1754913113
 10
473.1163451949
 20
360.2377835211
 10
474.1347046
 20
360.2502644465
 10
475.1512288526
 20
360.2128441619
 10
476.1585938722
 20
360.1257922816
 10
477.1495415708
 20
359.9897360161
 10
478.1169321474
 20
359.8056556541
 10
479.0537955308
 20
359.5748774988
 10
479.9533815989
 20
359.2990643121
 10
480.8092088133
 20
358.9802033342
 10
481.6151109195
 20
358.620591966
 10
482.3652813742
 20
358.2228212154
  0
LWPOLYLINE
  5
FF
330
1F
100
AcDbEntity
  8
0
  6
HIDDEN
 62
     7
370
    18
100
AcDbPolyline
 90
       26
 70
   128
 43
0.0
 10
482.9454681986
 20
369.1714594937
 10
482.4273696971
 20
369.4351444722
 10
481.8561086887
 20
369.6592640612
 10
481.2406943005
 20
369.8402837608
 10
480.5908319853
 20
369.9753487822
 10
479.9167704598
 20
370.0623290693
 10
479.229140077
 20
370.0998528911
 10
478.5387851788
 20
370.0873284745
 10
477.8565930744
 20
370.0249533369
 10
477.1933223407
 20
369.9137111717
 10
476.5594331535
 20
369.7553563341
 10
475.9649223239
 20
369.5523861746
 10
475.4191656428
 20
369.3080016538
 10
474.9307700191
 20
369.0260568616
 10
474.5074377435
 20
368.7109982358
 10
474.155845019
 20
368.3677944391
 10
473.8815366728
 20
368.0018580005
 10
473.6888387114
 20
367.6189599562
 10
473.5807900967
 20
367.225138837
 10
473.55909482
 20
366.8266054373
 10
473.6240950288
 20
366.4296448669
 10
473.7747656308
 20
366.040517431
 10
474.0087304608
 20
365.6653599019
 10
474.3222997535
 20
365.3100887378
 10
474.710528334
 20
364.9803067772
 10
475.1672936055
 20
364.6812148787
  0
LINE
  5
100
330
1F
100
AcDbEntity
  8
0
  6
HIDDEN
 62
     7
370
    18
100
AcDbLine
 10
502.88
 20
379.4536785248
 30
0.0
 11
502.88
 21
388.4356274555
 31
0.0
  0
SPLINE
  5
101
330
1F
100
AcDbEntity
  8
0
  6
HIDDEN
 62
     7
370
    18
100
AcDbSpline
210
0.0
220
0.0
230
1.0
 70
     8
 71
     3
 72
    58
 73
    54
 74
     0
 42
0.00000001
 43
0.00000001
 40
0.0
 40
0.0
 40
0.0
 40
0.0
 40
0.0175691501770593
 40
0.0382823334203726
 40
0.0589407494640538
 40
0.0795003074878547
 40
0.0999334681783793
 40
0.1202300771953164
 40
0.1403941583132336
 40
0.1604390775922777
 40
0.1803829701133129
 40
0.200245300839166
 40
0.2200446733942747
 40
0.2397976507191518
 40
0.2595182746784836
 40
0.2792180156830079
 40
0.2989059580355705
 40
0.3185890942101096
 40
0.3382717533310431
 40
0.3579574867276053
 40
0.3776492719395704
 40
0.3973490896041387
 40
0.4170581415754854
 40
0.4367770300010971
 40
0.4565059012899405
 40
0.4762445600189292
 40
0.4959925578061741
 40
0.5157492617590368
 40
0.535513906516077
 40
0.555285633277316
 40
0.5750635186270014
 40
0.5948465954305683
 40
0.6146338676440898
 40
0.6344243205105499
 40
0.6542169273268639
 40
0.6740106537409941
 40
0.6938044603720868
 40
0.7135969769684707
 40
0.7333871393318245
 40
0.7531739028275026
 40
0.7729562253133573
 40
0.7927330714067664
 40
0.8125034192265186
 40
0.8322662705718281
 40
0.8520206657310991
 40
0.8717657044054448
 40
0.8915005745975559
 40
0.9112245917599121
 40
0.9309372510161207
 40
0.9506382958508065
 40
0.9703278072697956
 40
0.9900063179865878
 40
1.0
 40
1.0
 40
1.0
 40
1.0
 10
508.874911784954
 20
362.6689511477433
 30
0.0
 10
508.8704373861853
 20
362.4114580566921
 30
0.0
 10
508.8606878864202
 20
361.8503929928886
 30
0.0
 10
508.7515442462781
 20
360.9869755923589
 30
0.0
 10
508.5669579070632
 20
360.0808380844418
 30
0.0
 10
508.3035196505279
 20
359.1807998605502
 30
0.0
 10
507.9650480603206
 20
358.2892745436761
 30
0.0
 10
507.5521549366661
 20
357.4082848962578
 30
0.0
 10
507.0663748781474
 20
356.5395201309937
 30
0.0
 10
506.5089549754856
 20
355.6844593363188
 30
0.0
 10
505.8811522029615
 20
354.8444955786893
 30
0.0
 10
505.1841905657887
 20
354.021028439498
 30
0.0
 10
504.419335098907
 20
353.21551641052
 30
0.0
 10
503.5879371579181
 20
352.4294955947815
 30
0.0
 10
502.6914767677256
 20
351.6645754898624
 30
0.0
 10
501.7315906321354
 20
350.9224217710121
 30
0.0
 10
500.7100890560229
 20
350.2047333240671
 30
0.0
 10
499.6289796768276
 20
349.513228655267
 30
0.0
 10
498.4904595519226
 20
348.8496133901491
 30
0.0
 10
497.2968989913029
 20
348.2155529804385
 30
0.0
 10
496.050812560911
 20
347.6126489442559
 30
0.0
 10
494.7548602824331
 20
347.0424351892206
 30
0.0
 10
493.4118500055062
 20
346.5063738638458
 30
0.0
 10
492.0247259410537
 20
346.0058459317564
 30
0.0
 10
490.596556992118
 20
345.542143754644
 30
0.0
 10
489.1305251884791
 20
345.1164653174831
 30
0.0
 10
487.6299143937805
 20
344.7299097655867
 30
0.0
 10
486.0980993662061
 20
344.3834739737893
 30
0.0
 10
484.5385351964339
 20
344.0780499189199
 30
0.0
 10
482.9547471115182
 20
343.8144226732909
 30
0.0
 10
481.3503206135262
 20
343.5932688770098
 30
0.0
 10
479.728891912104
 20
343.4151555800976
 30
0.0
 10
478.0941386068606
 20
343.2805393720542
 30
0.0
 10
476.4497705760955
 20
343.1897657374514
 30
0.0
 10
474.7995210302619
 20
343.1430685923527
 30
0.0
 10
473.1471376936225
 20
343.1405699686109
 30
0.0
 10
471.4963831763471
 20
343.1822795930413
 30
0.0
 10
469.8510176174792
 20
343.2680939116155
 30
0.0
 10
468.2147891735559
 20
343.397796088336
 30
0.0
 10
466.591416279668
 20
343.5710574684331
 30
0.0
 10
464.9845875051826
 20
343.7874376793267
 30
0.0
 10
463.3979532908132
 20
344.0463849415482
 30
0.0
 10
461.8351170631561
 20
344.3472365617232
 30
0.0
 10
460.2996259804583
 20
344.6892194847351
 30
0.0
 10
458.7949621778232
 20
345.0714514076602
 30
0.0
 10
457.3245310237176
 20
345.4929408030528
 30
0.0
 10
455.8916591230086
 20
345.95259233275
 30
0.0
 10
454.4995542836417
 20
346.4491939286454
 30
0.0
 10
453.1514053426727
 20
346.9814746192362
 30
0.0
 10
451.8499582440402
 20
347.547901763133
 30
0.0
 10
450.5990426750029
 20
348.1474542855105
 30
0.0
 10
449.5946794357553
 20
348.6736309684268
 30
0.0
 10
449.0155829427427
 20
349.0032129504741
 30
0.0
 10
448.8205415361682
 20
349.1142171339491
 30
0.0
  0
LINE
  5
102
330
1F
100
AcDbEntity
  8
0
  6
HIDDEN
 62
     7
370
    18
100
AcDbLine
 10
508.88
 20
356.590535792
 30
0.0
 11
508.88
 21
362.7145918811
 31
0.0
  0
LINE
  5
103
330
1F
100
AcDbEntity
  8
0
  6
HIDDEN
 62
     7
370
    18
100
AcDbLine
 10
444.88
 20
388.4356274555
 30
0.0
 11
444.88
 21
379.4536785248
 31
0.0
  0
LINE
  5
104
330
1F
100
AcDbEntity
  8
0
  6
HIDDEN
 62
     7
370
    18
100
AcDbLine
 10
474.2036190979
 20
344.6216527741
 30
0.0
 11
474.2036190979
 21
368.3013363187
 31
0.0
  0
LINE
  5
105
330
1F
100
AcDbEntity
  8
0
  6
HIDDEN
 62
     7
370
    18
100
AcDbLine
 10
463.2036190979
 20
368.3013363187
 30
0.0
 11
463.2036190979
 21
344.6216527741
 31
0.0
  0
LINE
  5
106
330
1F
100
AcDbEntity
  8
0
  6
HIDDEN
 62
     7
370
    18
100
AcDbLine
 10
493.5221356237
 20
347.6099138619
 30
0.0
 11
493.5221356237
 21
371.2895974066
 31
0.0
  0
LINE
  5
107
330
1F
100
AcDbEntity
  8
0
  6
HIDDEN
 62
     7
370
    18
100
AcDbLine
 10
482.5221356237
 20
371.2895974066
 30
0.0
 11
482.5221356237
 21
347.6099138619
 31
0.0
  0
LINE
  5
108
330
1F
100
AcDbEntity
  8
0
  6
HIDDEN
 62
     7
370
    18
100
AcDbLine
 10
483.88
 20
353.3243725445
 30
0.0
 11
483.88
 21
379.4536785248
 31
0.0
  0
LINE
  5
109
330
1F
100
AcDbEntity
  8
0
  6
HIDDEN
 62
     7
370
    18
100
AcDbLine
 10
460.0614834742
 20
352.7857338923
 30
0.0
 11
460.0614834742
 21
376.465417437
 31
0.0
  0
SPLINE
  5
10A
330
1F
100
AcDbEntity
  8
0
  6
HIDDEN
 62
     7
370
    18
100
AcDbSpline
210
0.0
220
0.0
230
1.0
 70
     8
 71
     3
 72
    25
 73
    21
 74
     0
 42
0.00000001
 43
0.00000001
 40
0.0
 40
0.0
 40
0.0
 40
0.0
 40
0.0310263190560941
 40
0.0901502142024458
 40
0.149256895021399
 40
0.2083596671608149
 40
0.2674711705165094
 40
0.3266123728180677
 40
0.3858105258302825
 40
0.4451000299374901
 40
0.5045229775184427
 40
0.564129026655894
 40
0.6239740876481048
 40
0.6841171251981096
 40
0.7446142731260156
 40
0.805509616867307
 40
0.8668227478561068
 40
0.9285348844522369
 40
0.990577907797198
 40
1.0
 40
1.0
 40
1.0
 40
1.0
 10
448.8205415361682
 20
349.1142171339491
 30
0.0
 10
448.6222234024227
 20
349.2303957915357
 30
0.0
 10
448.0459893282141
 20
349.5679650290677
 30
0.0
 10
447.135236667508
 20
350.148344409323
 30
0.0
 10
446.1099376960843
 20
350.8624725473821
 30
0.0
 10
445.1472655788607
 20
351.6010204485346
 30
0.0
 10
444.2481305787824
 20
352.3616021660997
 30
0.0
 10
443.414435718365
 20
353.1424654420918
 30
0.0
 10
442.6475377338573
 20
353.9417348513079
 30
0.0
 10
441.9486766057067
 20
354.7576525996896
 30
0.0
 10
441.3188835213526
 20
355.588558701844
 30
0.0
 10
440.7590478036274
 20
356.4329431574246
 30
0.0
 10
440.2699384093881
 20
357.2894689303969
 30
0.0
 10
439.8523441139336
 20
358.1569793208215
 30
0.0
 10
439.5068701685624
 20
359.0344690437167
 30
0.0
 10
439.2350474277729
 20
359.9210031987129
 30
0.0
 10
439.0354438440967
 20
360.815587916147
 30
0.0
 10
438.918424569635
 20
361.7169653270975
 30
0.0
 10
438.8696884431881
 20
362.3660400891515
 30
0.0
 10
438.8832943829386
 20
362.7143153623189
 30
0.0
 10
438.8850882150462
 20
362.7602326145417
 30
0.0
  0
LINE
  5
10B
330
1F
100
AcDbEntity
  8
0
  6
HIDDEN
 62
     7
370
    18
100
AcDbLine
 10
438.88
 20
362.7145918811
 30
0.0
 11
438.88
 21
356.590535792
 31
0.0
  0
LINE
  5
10C
330
1F
100
AcDbEntity
  8
0
  6
HIDDEN
 62
     7
370
    18
100
AcDbLine
 10
449.0614834742
 20
376.465417437
 30
0.0
 11
449.0614834742
 21
352.7857338923
 31
0.0
  0
LINE
  5
10D
330
1F
100
AcDbEntity
  8
0
  6
HIDDEN
 62
     7
370
    18
100
AcDbLine
 10
463.88
 20
379.4536785248
 30
0.0
 11
463.88
 21
353.3243725445
 31
0.0
  0
LINE
  5
10E
330
1F
100
AcDbEntity
  8
0
  6
HIDDEN
 62
     7
370
    18
100
AcDbLine
 10
498.6985165258
 20
358.7622560679
 30
0.0
 11
498.6985165258
 21
382.4419396126
 31
0.0
  0
LINE
  5
10F
330
1F
100
AcDbEntity
  8
0
  6
HIDDEN
 62
     7
370
    18
100
AcDbLine
 10
487.6985165258
 20
382.4419396126
 30
0.0
 11
487.6985165258
 21
358.7622560679
 31
0.0
  0
LINE
  5
110
330
1F
100
AcDbEntity
  8
0
  6
HIDDEN
 62
     7
370
    18
100
AcDbLine
 10
486.38
 20
353.7326429504
 30
0.0
 11
486.38
 21
355.7739949801
 31
0.0
  0
LINE
  5
111
330
1F
100
AcDbEntity
  8
0
  6
HIDDEN
 62
     7
370
    18
100
AcDbLine
 10
482.366660135
 20
348.4267199445
 30
0.0
 11
482.7202709739
 21
348.6309214921
 31
0.0
  0
LINE
  5
112
330
1F
100
AcDbEntity
  8
0
  6
HIDDEN
 62
     7
370
    18
100
AcDbLine
 10
465.2378643763
 20
363.9380760983
 30
0.0
 11
465.2378643763
 21
387.617759643
 31
0.0
  0
LINE
  5
113
330
1F
100
AcDbEntity
  8
0
  6
HIDDEN
 62
     7
370
    18
100
AcDbLine
 10
454.2378643763
 20
387.617759643
 30
0.0
 11
454.2378643763
 21
363.9380760983
 31
0.0
  0
LINE
  5
114
330
1F
100
AcDbEntity
  8
0
  6
HIDDEN
 62
     7
370
    18
100
AcDbLine
 10
484.5563809021
 20
366.9263371862
 30
0.0
 11
484.5563809021
 21
390.6060207309
 31
0.0
  0
LINE
  5
115
330
1F
100
AcDbEntity
  8
0
  6
HIDDEN
 62
     7
370
    18
100
AcDbLine
 10
461.38
 20
355.7739949801
 30
0.0
 11
461.38
 21
353.7326429504
 31
0.0
  0
LINE
  5
116
330
1F
100
AcDbEntity
  8
0
  6
HIDDEN
 62
     7
370
    18
100
AcDbLine
 10
473.5563809021
 20
390.6060207309
 30
0.0
 11
473.5563809021
 21
366.9263371862
 31
0.0
  0
ENDSEC
  0
SECTION
  2
OBJECTS
  0
DICTIONARY
  5
C
330
0
100
AcDbDictionary
281
     1
  3
ACAD_GROUP
350
D
  3
ACAD_LAYOUT
350
1A
  3
ACAD_MLINESTYLE
350
17
  3
ACAD_PLOTSETTINGS
350
19
  3
ACAD_PLOTSTYLENAME
350
E
  3
ACAD_SCALELIST
350
47
  3
DWGPROPS
350
117
  0
DICTIONARY
  5
D
102
{ACAD_REACTORS
330
C
102
}
330
C
100
AcDbDictionary
281
     1
  0
DICTIONARY
  5
1A
102
{ACAD_REACTORS
330
C
102
}
330
C
100
AcDbDictionary
281
     1
  3
Layout1
350
1E
  3
Layout2
350
26
  3
Model
350
22
  0
DICTIONARY
  5
17
102
{ACAD_REACTORS
330
C
102
}
330
C
100
AcDbDictionary
281
     1
  3
Standard
350
18
  0
DICTIONARY
  5
19
102
{ACAD_REACTORS
330
C
102
}
330
C
100
AcDbDictionary
281
     1
  0
ACDBDICTIONARYWDFLT
  5
E
102
{ACAD_REACTORS
330
C
102
}
330
C
100
AcDbDictionary
281
     1
  3
Normal
350
F
100
AcDbDictionaryWithDefault
340
F
  0
DICTIONARY
  5
47
102
{ACAD_REACTORS
330
C
102
}
330
C
100
AcDbDictionary
281
     1
  3
A0
350
48
  3
A1
350
49
  3
A2
350
4A
  3
A3
350
4B
  3
A4
350
4C
  3
A5
350
4D
  3
A6
350
4E
  3
A7
350
4F
  3
A8
350
50
  3
A9
350
51
  3
B0
350
52
  3
B1
350
53
  3
B2
350
54
  3
B3
350
55
  3
B4
350
56
  3
B5
350
57
  3
B6
350
58
  0
XRECORD
  5
117
102
{ACAD_REACTORS
330
C
102
}
330
C
100
AcDbXrecord
280
     1
  1
DWGPROPS COOKIE
  2

  3

  4

  6

  7

  8
imaizumi
  9

300
=
301
=
302
=
303
=
304
=
305
=
306
=
307
=
308
=
309
=
 40
0.0
 41
2461263.041508253
 42
2461263.041508646
  1

 90
        0
  0
LAYOUT
  5
1E
102
{ACAD_REACTORS
330
1A
102
}
330
1A
100
AcDbPlotSettings
  1

  2
none_device
  4

  6

 40
0.0
 41
0.0
 42
0.0
 43
0.0
 44
0.0
 45
0.0
 46
0.0
 47
0.0
 48
0.0
 49
0.0
140
0.0
141
0.0
142
1.0
143
1.0
 70
   688
 72
     1
 73
     0
 74
     5
  7

 75
    16
147
1.0
148
0.0
149
0.0
100
AcDbLayout
  1
Layout1
 70
     1
 71
     1
 10
0.0
 20
0.0
 11
420.0
 21
297.0
 12
0.0
 22
0.0
 32
0.0
 14
1.0000000000E+20
 24
1.0000000000E+20
 34
1.0000000000E+20
 15
-1.0000000000E+20
 25
-1.0000000000E+20
 35
-1.0000000000E+20
146
0.0
 13
0.0
 23
0.0
 33
0.0
 16
1.0
 26
0.0
 36
0.0
 17
0.0
 27
1.0
 37
0.0
 76
     0
330
1B
  0
LAYOUT
  5
26
102
{ACAD_REACTORS
330
1A
102
}
330
1A
100
AcDbPlotSettings
  1

  2
none_device
  4

  6

 40
0.0
 41
0.0
 42
0.0
 43
0.0
 44
0.0
 45
0.0
 46
0.0
 47
0.0
 48
0.0
 49
0.0
140
0.0
141
0.0
142
1.0
143
1.0
 70
   688
 72
     1
 73
     0
 74
     5
  7

 75
    16
147
1.0
148
0.0
149
0.0
100
AcDbLayout
  1
Layout2
 70
     1
 71
     2
 10
0.0
 20
0.0
 11
0.0
 21
0.0
 12
0.0
 22
0.0
 32
0.0
 14
0.0
 24
0.0
 34
0.0
 15
0.0
 25
0.0
 35
0.0
146
0.0
 13
0.0
 23
0.0
 33
0.0
 16
1.0
 26
0.0
 36
0.0
 17
0.0
 27
1.0
 37
0.0
 76
     0
330
23
  0
LAYOUT
  5
22
102
{ACAD_REACTORS
330
1A
102
}
330
1A
100
AcDbPlotSettings
  1

  2
none_device
  4
Letter_(8.50_x_11.00_Inches)
  6

 40
6.35
 41
6.35
 42
6.35000508
 43
6.35000508
 44
215.9
 45
279.4
 46
0.0
 47
0.0
 48
0.0
 49
0.0
140
0.0
141
0.0
142
1.0
143
1.0
 70
  1712
 72
     1
 73
     0
 74
     0
  7

 75
     0
147
1.0
148
0.0
149
0.0
100
AcDbLayout
  1
Model
 70
     1
 71
     0
 10
0.0
 20
0.0
 11
841.0
 21
594.0
 12
0.0
 22
0.0
 32
0.0
 14
0.0
 24
0.0
 34
0.0
 15
841.0
 25
594.0
 35
0.0
146
0.0
 13
0.0
 23
0.0
 33
0.0
 16
1.0
 26
0.0
 36
0.0
 17
0.0
 27
1.0
 37
0.0
 76
     0
330
1F
331
29
  0
MLINESTYLE
  5
18
102
{ACAD_REACTORS
330
17
102
}
330
17
100
AcDbMlineStyle
  2
Standard
 70
     0
  3

 62
   256
 51
90.0
 52
90.0
 71
     2
 49
0.5
 62
   256
  6
BYLAYER
 49
-0.5
 62
   256
  6
BYLAYER
  0
ACDBPLACEHOLDER
  5
F
102
{ACAD_REACTORS
330
E
102
}
330
E
  0
SCALE
  5
48
102
{ACAD_REACTORS
330
47
102
}
330
47
100
AcDbScale
 70
     0
300
1:1
140
1.0
141
1.0
290
     1
  0
SCALE
  5
49
102
{ACAD_REACTORS
330
47
102
}
330
47
100
AcDbScale
 70
     0
300
1:2
140
1.0
141
2.0
290
     0
  0
SCALE
  5
4A
102
{ACAD_REACTORS
330
47
102
}
330
47
100
AcDbScale
 70
     0
300
1:4
140
1.0
141
4.0
290
     0
  0
SCALE
  5
4B
102
{ACAD_REACTORS
330
47
102
}
330
47
100
AcDbScale
 70
     0
300
1:5
140
1.0
141
5.0
290
     0
  0
SCALE
  5
4C
102
{ACAD_REACTORS
330
47
102
}
330
47
100
AcDbScale
 70
     0
300
1:8
140
1.0
141
8.0
290
     0
  0
SCALE
  5
4D
102
{ACAD_REACTORS
330
47
102
}
330
47
100
AcDbScale
 70
     0
300
1:10
140
1.0
141
10.0
290
     0
  0
SCALE
  5
4E
102
{ACAD_REACTORS
330
47
102
}
330
47
100
AcDbScale
 70
     0
300
1:16
140
1.0
141
16.0
290
     0
  0
SCALE
  5
4F
102
{ACAD_REACTORS
330
47
102
}
330
47
100
AcDbScale
 70
     0
300
1:20
140
1.0
141
20.0
290
     0
  0
SCALE
  5
50
102
{ACAD_REACTORS
330
47
102
}
330
47
100
AcDbScale
 70
     0
300
1:30
140
1.0
141
30.0
290
     0
  0
SCALE
  5
51
102
{ACAD_REACTORS
330
47
102
}
330
47
100
AcDbScale
 70
     0
300
1:40
140
1.0
141
40.0
290
     0
  0
SCALE
  5
52
102
{ACAD_REACTORS
330
47
102
}
330
47
100
AcDbScale
 70
     0
300
1:50
140
1.0
141
50.0
290
     0
  0
SCALE
  5
53
102
{ACAD_REACTORS
330
47
102
}
330
47
100
AcDbScale
 70
     0
300
1:100
140
1.0
141
100.0
290
     0
  0
SCALE
  5
54
102
{ACAD_REACTORS
330
47
102
}
330
47
100
AcDbScale
 70
     0
300
2:1
140
2.0
141
1.0
290
     0
  0
SCALE
  5
55
102
{ACAD_REACTORS
330
47
102
}
330
47
100
AcDbScale
 70
     0
300
4:1
140
4.0
141
1.0
290
     0
  0
SCALE
  5
56
102
{ACAD_REACTORS
330
47
102
}
330
47
100
AcDbScale
 70
     0
300
8:1
140
8.0
141
1.0
290
     0
  0
SCALE
  5
57
102
{ACAD_REACTORS
330
47
102
}
330
47
100
AcDbScale
 70
     0
300
10:1
140
10.0
141
1.0
290
     0
  0
SCALE
  5
58
102
{ACAD_REACTORS
330
47
102
}
330
47
100
AcDbScale
 70
     0
300
100:1
140
100.0
141
1.0
290
     0
  0
ENDSEC
  0
EOF
