  0
SECTION
  2
HEADER
  9
$ACADVER
  1
AC1015
  9
$ACADMAINTVER
 70
     6
  9
$DWGCODEPAGE
  3
DOS932
  9
$INSBASE
 10
0.0
 20
0.0
 30
0.0
  9
$EXTMIN
 10
0.0
 20
0.0
 30
0.0
  9
$EXTMAX
 10
841.0
 20
594.0
 30
0.0
  9
$LIMMIN
 10
0.0
 20
0.0
  9
$LIMMAX
 10
841.0
 20
594.0
  9
$ORTHOMODE
 70
     0
  9
$REGENMODE
 70
     1
  9
$FILLMODE
 70
     1
  9
$QTEXTMODE
 70
     0
  9
$MIRRTEXT
 70
     1
  9
$LTSCALE
 40
1.0
  9
$ATTMODE
 70
     1
  9
$TEXTSIZE
 40
3.5
  9
$TRACEWID
 40
1.0
  9
$TEXTSTYLE
  7
Standard
  9
$CLAYER
  8
0
  9
$CELTYPE
  6
ByLayer
  9
$CECOLOR
 62
   256
  9
$CELTSCALE
 40
1.0
  9
$DISPSILH
 70
     0
  9
$DIMSCALE
 40
1.0
  9
$DIMASZ
 40
3.302
  9
$DIMEXO
 40
1.0
  9
$DIMDLI
 40
3.75
  9
$DIMRND
 40
0.0
  9
$DIMDLE
 40
0.0
  9
$DIMEXE
 40
1.0
  9
$DIMTP
 40
0.0
  9
$DIMTM
 40
0.0
  9
$DIMTXT
 40
3.5
  9
$DIMCEN
 40
2.5
  9
$DIMTSZ
 40
0.0
  9
$DIMTOL
 70
     0
  9
$DIMLIM
 70
     0
  9
$DIMTIH
 70
     1
  9
$DIMTOH
 70
     1
  9
$DIMSE1
 70
     0
  9
$DIMSE2
 70
     0
  9
$DIMTAD
 70
     1
  9
$DIMZIN
 70
     1
  9
$DIMBLK
  1

  9
$DIMASO
 70
     1
  9
$DIMSHO
 70
     1
  9
$DIMPOST
  1

  9
$DIMAPOST
  1

  9
$DIMALT
 70
     0
  9
$DIMALTD
 70
     3
  9
$DIMALTF
 40
0.0393700787
  9
$DIMLFAC
 40
0.5
  9
$DIMTOFL
 70
     1
  9
$DIMTVP
 40
0.0
  9
$DIMTIX
 70
     0
  9
$DIMSOXD
 70
     0
  9
$DIMSAH
 70
     0
  9
$DIMBLK1
  1

  9
$DIMBLK2
  1

  9
$DIMSTYLE
  2
ISO-25
  9
$DIMCLRD
 70
     0
  9
$DIMCLRE
 70
     0
  9
$DIMCLRT
 70
     0
  9
$DIMTFAC
 40
1.0
  9
$DIMGAP
 40
1.524
  9
$DIMJUST
 70
     0
  9
$DIMSD1
 70
     0
  9
$DIMSD2
 70
     0
  9
$DIMTOLJ
 70
     0
  9
$DIMTZIN
 70
     1
  9
$DIMALTZ
 70
     0
  9
$DIMALTTZ
 70
     0
  9
$DIMUPT
 70
     0
  9
$DIMDEC
 70
     2
  9
$DIMTDEC
 70
     2
  9
$DIMALTU
 70
     2
  9
$DIMALTTD
 70
     3
  9
$DIMTXSTY
  7
Standard
  9
$DIMAUNIT
 70
     0
  9
$DIMADEC
 70
     2
  9
$DIMALTRND
 40
0.0
  9
$DIMAZIN
 70
     0
  9
$DIMDSEP
 70
    44
  9
$DIMATFIT
 70
     3
  9
$DIMFRAC
 70
     0
  9
$DIMLDRBLK
  1

  9
$DIMLUNIT
 70
     2
  9
$DIMLWD
 70
    -2
  9
$DIMLWE
 70
    -2
  9
$DIMTMOVE
 70
     0
  9
$LUNITS
 70
     2
  9
$LUPREC
 70
     2
  9
$SKETCHINC
 40
1.0
  9
$FILLETRAD
 40
0.0
  9
$AUNITS
 70
     0
  9
$AUPREC
 70
     2
  9
$MENU
  1
.
  9
$ELEVATION
 40
0.0
  9
$PELEVATION
 40
0.0
  9
$THICKNESS
 40
0.0
  9
$LIMCHECK
 70
     0
  9
$CHAMFERA
 40
0.0
  9
$CHAMFERB
 40
0.0
  9
$CHAMFERC
 40
0.0
  9
$CHAMFERD
 40
0.0
  9
$SKPOLY
 70
     0
  9
$TDCREATE
 40
2461263.416177686
  9
$TDUCREATE
 40
2461263.041177686
  9
$TDUPDATE
 40
2461263.416178033
  9
$TDUUPDATE
 40
2461263.041178033
  9
$TDINDWG
 40
0.0000000116
  9
$TDUSRTIMER
 40
0.0000000116
  9
$USRTIMER
 70
     1
  9
$ANGBASE
 50
0.0
  9
$ANGDIR
 70
     0
  9
$PDMODE
 70
     0
  9
$PDSIZE
 40
-1.0
  9
$PLINEWID
 40
0.0
  9
$SPLFRAME
 70
     0
  9
$SPLINETYPE
 70
     6
  9
$SPLINESEGS
 70
     8
  9
$HANDSEED
  5
B0
  9
$SURFTAB1
 70
     6
  9
$SURFTAB2
 70
     6
  9
$SURFTYPE
 70
     6
  9
$SURFU
 70
     6
  9
$SURFV
 70
     6
  9
$UCSBASE
  2

  9
$UCSNAME
  2

  9
$UCSORG
 10
0.0
 20
0.0
 30
0.0
  9
$UCSXDIR
 10
1.0
 20
0.0
 30
0.0
  9
$UCSYDIR
 10
0.0
 20
1.0
 30
0.0
  9
$UCSORTHOREF
  2

  9
$UCSORTHOVIEW
 70
     0
  9
$UCSORGTOP
 10
0.0
 20
0.0
 30
0.0
  9
$UCSORGBOTTOM
 10
0.0
 20
0.0
 30
0.0
  9
$UCSORGLEFT
 10
0.0
 20
0.0
 30
0.0
  9
$UCSORGRIGHT
 10
0.0
 20
0.0
 30
0.0
  9
$UCSORGFRONT
 10
0.0
 20
0.0
 30
0.0
  9
$UCSORGBACK
 10
0.0
 20
0.0
 30
0.0
  9
$PUCSBASE
  2

  9
$PUCSNAME
  2

  9
$PUCSORG
 10
0.0
 20
0.0
 30
0.0
  9
$PUCSXDIR
 10
1.0
 20
0.0
 30
0.0
  9
$PUCSYDIR
 10
0.0
 20
1.0
 30
0.0
  9
$PUCSORTHOREF
  2

  9
$PUCSORTHOVIEW
 70
     0
  9
$PUCSORGTOP
 10
0.0
 20
0.0
 30
0.0
  9
$PUCSORGBOTTOM
 10
0.0
 20
0.0
 30
0.0
  9
$PUCSORGLEFT
 10
0.0
 20
0.0
 30
0.0
  9
$PUCSORGRIGHT
 10
0.0
 20
0.0
 30
0.0
  9
$PUCSORGFRONT
 10
0.0
 20
0.0
 30
0.0
  9
$PUCSORGBACK
 10
0.0
 20
0.0
 30
0.0
  9
$USERI1
 70
     0
  9
$USERI2
 70
     0
  9
$USERI3
 70
     0
  9
$USERI4
 70
     0
  9
$USERI5
 70
     0
  9
$USERR1
 40
0.0
  9
$USERR2
 40
0.0
  9
$USERR3
 40
0.0
  9
$USERR4
 40
0.0
  9
$USERR5
 40
0.0
  9
$WORLDVIEW
 70
     1
  9
$SHADEDGE
 70
     3
  9
$SHADEDIF
 70
    70
  9
$TILEMODE
 70
     1
  9
$MAXACTVP
 70
    64
  9
$PINSBASE
 10
0.0
 20
0.0
 30
0.0
  9
$PLIMCHECK
 70
     0
  9
$PEXTMIN
 10
1.0000000000E+20
 20
1.0000000000E+20
 30
1.0000000000E+20
  9
$PEXTMAX
 10
-1.0000000000E+20
 20
-1.0000000000E+20
 30
-1.0000000000E+20
  9
$PLIMMIN
 10
0.0
 20
0.0
  9
$PLIMMAX
 10
420.0
 20
297.0
  9
$UNITMODE
 70
     0
  9
$VISRETAIN
 70
     1
  9
$PLINEGEN
 70
     0
  9
$PSLTSCALE
 70
     1
  9
$TREEDEPTH
 70
  3020
  9
$CMLSTYLE
  2
Standard
  9
$CMLJUST
 70
     0
  9
$CMLSCALE
 40
20.0
  9
$PROXYGRAPHICS
 70
     1
  9
$MEASUREMENT
 70
     1
  9
$CELWEIGHT
370
    -1
  9
$ENDCAPS
280
     0
  9
$JOINSTYLE
280
     0
  9
$LWDISPLAY
290
     1
  9
$INSUNITS
 70
     4
  9
$HYPERLINKBASE
  1

  9
$STYLESHEET
  1

  9
$XEDIT
290
     1
  9
$CEPSNTYPE
380
     0
  9
$PSTYLEMODE
290
     1
  9
$FINGERPRINTGUID
  2
{c3819ce6-c12d-4d0f-b69d-b462546c6515}
  9
$VERSIONGUID
  2
{FAEB1C32-E019-11D5-929B-00C0DF256EC4}
  9
$EXTNAMES
290
     1
  9
$PSVPSCALE
 40
0.0
  9
$OLESTARTUP
290
     0
  0
ENDSEC
  0
SECTION
  2
CLASSES
  0
CLASS
  1
ACDBDICTIONARYWDFLT
  2
AcDbDictionaryWithDefault
  3
ObjectDBX Classes
 90
        0
280
     0
281
     0
  0
CLASS
  1
VISUALSTYLE
  2
AcDbVisualStyle
  3
ObjectDBX Classes
 90
     4095
280
     0
281
     0
  0
CLASS
  1
MATERIAL
  2
AcDbMaterial
  3
ObjectDBX Classes
 90
     1153
280
     0
281
     0
  0
CLASS
  1
SCALE
  2
AcDbScale
  3
ObjectDBX Classes
 90
     1153
280
     0
281
     0
  0
CLASS
  1
TABLESTYLE
  2
AcDbTableStyle
  3
ObjectDBX Classes
 90
     4095
280
     0
281
     0
  0
CLASS
  1
MLEADERSTYLE
  2
AcDbMLeaderStyle
  3
ACDB_MLEADERSTYLE_CLASS
 90
     4095
280
     0
281
     0
  0
CLASS
  1
SUN
  2
AcDbSun
  3
SCENEOE
 90
     1153
280
     0
281
     0
  0
CLASS
  1
ACDBPLACEHOLDER
  2
AcDbPlaceHolder
  3
ObjectDBX Classes
 90
        0
280
     0
281
     0
  0
CLASS
  1
LAYOUT
  2
AcDbLayout
  3
ObjectDBX Classes
 90
        0
280
     0
281
     0
  0
ENDSEC
  0
SECTION
  2
TABLES
  0
TABLE
  2
VPORT
  5
8
330
0
100
AcDbSymbolTable
 70
     1
  0
VPORT
  5
29
330
8
100
AcDbSymbolTableRecord
100
AcDbViewportTableRecord
  2
*Active
 70
     0
 10
0.0
 20
0.0
 11
1.0
 21
1.0
 12
420.5
 22
297.0
 13
0.0
 23
0.0
 14
10.0
 24
10.0
 15
10.0
 25
10.0
 16
0.0
 26
0.0
 36
1.0
 17
0.0
 27
0.0
 37
0.0
 40
594.0
 41
1.4158249158
 42
50.0
 43
0.0
 44
0.0
 50
0.0
 51
0.0
 71
     0
 72
  2000
 73
     1
 74
     3
 75
     0
 76
     0
 77
     0
 78
     0
281
     0
 65
     1
110
0.0
120
0.0
130
0.0
111
1.0
121
0.0
131
0.0
112
0.0
122
1.0
132
0.0
 79
     0
146
0.0
  0
ENDTAB
  0
TABLE
  2
LTYPE
  5
5
330
0
100
AcDbSymbolTable
 70
     6
  0
LTYPE
  5
14
330
5
100
AcDbSymbolTableRecord
100
AcDbLinetypeTableRecord
  2
ByBlock
 70
     0
  3

 72
    65
 73
     0
 40
0.0
  0
LTYPE
  5
15
330
5
100
AcDbSymbolTableRecord
100
AcDbLinetypeTableRecord
  2
ByLayer
 70
     0
  3

 72
    65
 73
     0
 40
0.0
  0
LTYPE
  5
16
330
5
100
AcDbSymbolTableRecord
100
AcDbLinetypeTableRecord
  2
Continuous
 70
     0
  3
Solid line
 72
    65
 73
     0
 40
0.0
  0
LTYPE
  5
5E
330
5
100
AcDbSymbolTableRecord
100
AcDbLinetypeTableRecord
  2
HIDDEN
 70
     0
  3
Hidden __ __ __ __ __ __ __ __ __ __ __ __ __ __
 72
    65
 73
     2
 40
1.905
 49
1.27
 74
     0
 49
-0.635
 74
     0
  0
LTYPE
  5
5F
330
5
100
AcDbSymbolTableRecord
100
AcDbLinetypeTableRecord
  2
PHANTOM
 70
     0
  3
Phantom ______  __  __  ______  __  __  ______
 72
    65
 73
     6
 40
12.7
 49
6.35
 74
     0
 49
-1.27
 74
     0
 49
1.27
 74
     0
 49
-1.27
 74
     0
 49
1.27
 74
     0
 49
-1.27
 74
     0
  0
LTYPE
  5
60
330
5
100
AcDbSymbolTableRecord
100
AcDbLinetypeTableRecord
  2
CENTER
 70
     0
  3
Center ____ _ ____ _ ____ _ ____ _ ____ _ ____
 72
    65
 73
     4
 40
10.16
 49
6.35
 74
     0
 49
-1.27
 74
     0
 49
1.27
 74
     0
 49
-1.27
 74
     0
  0
LTYPE
  5
61
330
5
100
AcDbSymbolTableRecord
100
AcDbLinetypeTableRecord
  2
CENTERX2
 70
     0
  3
Center (2x) ________  __  ________  __  _____
 72
    65
 73
     4
 40
20.32
 49
12.7
 74
     0
 49
-2.54
 74
     0
 49
2.54
 74
     0
 49
-2.54
 74
     0
  0
LTYPE
  5
62
330
5
100
AcDbSymbolTableRecord
100
AcDbLinetypeTableRecord
  2
DOT2
 70
     0
  3
Dot (.5x) ........................................
 72
    65
 73
     2
 40
0.635
 49
0.0
 74
     0
 49
-0.635
 74
     0
  0
ENDTAB
  0
TABLE
  2
LAYER
  5
2
330
0
100
AcDbSymbolTable
 70
     1
  0
LAYER
  5
10
330
2
100
AcDbSymbolTableRecord
100
AcDbLayerTableRecord
  2
0
 70
     0
 62
     7
  6
Continuous
370
    -3
390
F
  0
ENDTAB
  0
TABLE
  2
STYLE
  5
3
330
0
100
AcDbSymbolTable
 70
     1
  0
STYLE
  5
11
330
3
100
AcDbSymbolTableRecord
100
AcDbTextStyleTableRecord
  2
Standard
 70
     0
 40
0.0
 41
1.0
 50
0.0
 71
     0
 42
3.5
  3
txt
  4
bigfont
  0
ENDTAB
  0
TABLE
  2
VIEW
  5
6
330
0
100
AcDbSymbolTable
 70
     0
  0
ENDTAB
  0
TABLE
  2
UCS
  5
7
330
0
100
AcDbSymbolTable
 70
     0
  0
ENDTAB
  0
TABLE
  2
APPID
  5
9
330
0
100
AcDbSymbolTable
 70
     1
  0
APPID
  5
12
330
9
100
AcDbSymbolTableRecord
100
AcDbRegAppTableRecord
  2
ACAD
 70
     0
  0
ENDTAB
  0
TABLE
  2
DIMSTYLE
  5
A
330
0
100
AcDbSymbolTable
 70
     1
100
AcDbDimStyleTable
  0
DIMSTYLE
105
27
330
A
100
AcDbSymbolTableRecord
100
AcDbDimStyleTableRecord
  2
ISO-25
 70
     0
 41
2.5
 42
0.625
 43
3.75
 44
1.25
 73
     0
 74
     0
 77
     1
 78
     8
140
2.5
141
2.5
143
0.0393700787
147
0.625
171
     3
172
     1
178
     0
271
     2
272
     2
274
     3
278
    44
283
     0
284
     8
340
11
  0
ENDTAB
  0
TABLE
  2
BLOCK_RECORD
  5
1
330
0
100
AcDbSymbolTable
 70
     1
  0
BLOCK_RECORD
  5
1F
330
1
100
AcDbSymbolTableRecord
100
AcDbBlockTableRecord
  2
*Model_Space
340
22
  0
BLOCK_RECORD
  5
1B
330
1
100
AcDbSymbolTableRecord
100
AcDbBlockTableRecord
  2
*Paper_Space
340
1E
  0
BLOCK_RECORD
  5
23
330
1
100
AcDbSymbolTableRecord
100
AcDbBlockTableRecord
  2
*Paper_Space0
340
26
  0
ENDTAB
  0
ENDSEC
  0
SECTION
  2
BLOCKS
  0
BLOCK
  5
20
330
1F
100
AcDbEntity
  8
0
100
AcDbBlockBegin
  2
*Model_Space
 70
     0
 10
0.0
 20
0.0
 30
0.0
  3
*Model_Space
  1

  0
ENDBLK
  5
21
330
1F
100
AcDbEntity
  8
0
100
AcDbBlockEnd
  0
BLOCK
  5
1C
330
1B
100
AcDbEntity
 67
     1
  8
0
100
AcDbBlockBegin
  2
*Paper_Space
 70
     0
 10
0.0
 20
0.0
 30
0.0
  3
*Paper_Space
  1

  0
ENDBLK
  5
1D
330
1B
100
AcDbEntity
 67
     1
  8
0
100
AcDbBlockEnd
  0
BLOCK
  5
24
330
23
100
AcDbEntity
  8
0
100
AcDbBlockBegin
  2
*Paper_Space0
 70
     0
 10
0.0
 20
0.0
 30
0.0
  3
*Paper_Space0
  1

  0
ENDBLK
  5
25
330
23
100
AcDbEntity
  8
0
100
AcDbBlockEnd
  0
ENDSEC
  0
SECTION
  2
ENTITIES
  0
LINE
  5
63
330
1F
100
AcDbEntity
  8
0
  6
Continuous
 62
     7
370
    25
100
AcDbLine
 10
388.3608550184
 20
229.9496032707
 30
0.0
 11
388.3608550184
 21
251.9496032707
 31
0.0
  0
LINE
  5
64
330
1F
100
AcDbEntity
  8
0
  6
Continuous
 62
     7
370
    25
100
AcDbLine
 10
390.3608550184
 20
229.9496032707
 30
0.0
 11
388.3608550184
 21
229.9496032707
 31
0.0
  0
LINE
  5
65
330
1F
100
AcDbEntity
  8
0
  6
Continuous
 62
     7
370
    25
100
AcDbLine
 10
390.3608550184
 20
201.9496032707
 30
0.0
 11
390.3608550184
 21
229.9496032707
 31
0.0
  0
LINE
  5
66
330
1F
100
AcDbEntity
  8
0
  6
Continuous
 62
     7
370
    25
100
AcDbLine
 10
325.3608550184
 20
201.9496032707
 30
0.0
 11
390.3608550184
 21
201.9496032707
 31
0.0
  0
LINE
  5
67
330
1F
100
AcDbEntity
  8
0
  6
Continuous
 62
     7
370
    25
100
AcDbLine
 10
325.3608550184
 20
251.9496032707
 30
0.0
 11
325.3608550184
 21
201.9496032707
 31
0.0
  0
LINE
  5
68
330
1F
100
AcDbEntity
  8
0
  6
Continuous
 62
     7
370
    25
100
AcDbLine
 10
388.3608550184
 20
251.9496032707
 30
0.0
 11
325.3608550184
 21
251.9496032707
 31
0.0
  0
LINE
  5
69
330
1F
100
AcDbEntity
  8
0
  6
HIDDEN
 62
     7
370
    18
100
AcDbLine
 10
347.3608550184
 20
251.9496032707
 30
0.0
 11
347.3608550184
 21
201.9496032707
 31
0.0
  0
LINE
  5
6A
330
1F
100
AcDbEntity
  8
0
  6
HIDDEN
 62
     7
370
    18
100
AcDbLine
 10
333.3608550184
 20
251.9496032707
 30
0.0
 11
333.3608550184
 21
201.9496032707
 31
0.0
  0
LINE
  5
6B
330
1F
100
AcDbEntity
  8
0
  6
HIDDEN
 62
     7
370
    18
100
AcDbLine
 10
377.3608550184
 20
251.9496032707
 30
0.0
 11
377.3608550184
 21
201.9496032707
 31
0.0
  0
LINE
  5
6C
330
1F
100
AcDbEntity
  8
0
  6
HIDDEN
 62
     7
370
    18
100
AcDbLine
 10
363.3608550184
 20
251.9496032707
 30
0.0
 11
363.3608550184
 21
201.9496032707
 31
0.0
  0
LINE
  5
6D
330
1F
100
AcDbEntity
  8
0
  6
HIDDEN
 62
     7
370
    18
100
AcDbLine
 10
378.3608550184
 20
240.9496032707
 30
0.0
 11
378.3608550184
 21
238.4496032707
 31
0.0
  0
LINE
  5
6E
330
1F
100
AcDbEntity
  8
0
  6
HIDDEN
 62
     7
370
    18
100
AcDbLine
 10
378.3608550184
 20
243.4496032707
 30
0.0
 11
378.3608550184
 21
240.9496032707
 31
0.0
  0
LINE
  5
6F
330
1F
100
AcDbEntity
  8
0
  6
HIDDEN
 62
     7
370
    18
100
AcDbLine
 10
378.3608550184
 20
238.4496032707
 30
0.0
 11
388.3608550184
 21
238.4496032707
 31
0.0
  0
LINE
  5
70
330
1F
100
AcDbEntity
  8
0
  6
HIDDEN
 62
     7
370
    18
100
AcDbLine
 10
388.3608550184
 20
243.4496032707
 30
0.0
 11
378.3608550184
 21
243.4496032707
 31
0.0
  0
LINE
  5
71
330
1F
100
AcDbEntity
  8
0
  6
Continuous
 62
     7
370
    25
100
AcDbLine
 10
388.3608550184
 20
364.88
 30
0.0
 11
325.3608550184
 21
364.88
 31
0.0
  0
LINE
  5
72
330
1F
100
AcDbEntity
  8
0
  6
Continuous
 62
     7
370
    25
100
AcDbLine
 10
388.3608550184
 20
364.88
 30
0.0
 11
388.3608550184
 21
342.88
 31
0.0
  0
LINE
  5
73
330
1F
100
AcDbEntity
  8
0
  6
Continuous
 62
     7
370
    25
100
AcDbLine
 10
388.3608550184
 20
342.88
 30
0.0
 11
325.3608550184
 21
342.88
 31
0.0
  0
LINE
  5
74
330
1F
100
AcDbEntity
  8
0
  6
Continuous
 62
     7
370
    25
100
AcDbLine
 10
325.3608550184
 20
364.88
 30
0.0
 11
325.3608550184
 21
342.88
 31
0.0
  0
ARC
  5
75
330
1F
100
AcDbEntity
  8
0
  6
Continuous
 62
     7
370
    25
100
AcDbCircle
 10
370.3608550184
 20
353.88
 30
0.0
 40
7.0
100
AcDbArc
 50
0.0
 51
180.0
  0
ARC
  5
76
330
1F
100
AcDbEntity
  8
0
  6
Continuous
 62
     7
370
    25
100
AcDbCircle
 10
370.3608550184
 20
353.88
 30
0.0
 40
7.0
100
AcDbArc
 50
180.0
 51
0.0
  0
ARC
  5
77
330
1F
100
AcDbEntity
  8
0
  6
Continuous
 62
     7
370
    25
100
AcDbCircle
 10
340.3608550184
 20
353.88
 30
0.0
 40
7.000000000000057
100
AcDbArc
 50
0.0
 51
180.0
  0
ARC
  5
78
330
1F
100
AcDbEntity
  8
0
  6
Continuous
 62
     7
370
    25
100
AcDbCircle
 10
340.3608550184
 20
353.88
 30
0.0
 40
7.000000000000057
100
AcDbArc
 50
180.0
 51
0.0
  0
LINE
  5
79
330
1F
100
AcDbEntity
  8
0
  6
Continuous
 62
     7
370
    25
100
AcDbLine
 10
390.3608550184
 20
364.88
 30
0.0
 11
390.3608550184
 21
342.88
 31
0.0
  0
LINE
  5
7A
330
1F
100
AcDbEntity
  8
0
  6
Continuous
 62
     7
370
    25
100
AcDbLine
 10
390.3608550184
 20
364.88
 30
0.0
 11
388.3608550184
 21
364.88
 31
0.0
  0
LINE
  5
7B
330
1F
100
AcDbEntity
  8
0
  6
Continuous
 62
     7
370
    25
100
AcDbLine
 10
390.3608550184
 20
342.88
 30
0.0
 11
388.3608550184
 21
342.88
 31
0.0
  0
LINE
  5
7C
330
1F
100
AcDbEntity
  8
0
  6
HIDDEN
 62
     7
370
    18
100
AcDbLine
 10
378.3608550184
 20
351.38
 30
0.0
 11
388.3608550184
 21
351.38
 31
0.0
  0
LINE
  5
7D
330
1F
100
AcDbEntity
  8
0
  6
HIDDEN
 62
     7
370
    18
100
AcDbLine
 10
378.3608550184
 20
356.38
 30
0.0
 11
388.3608550184
 21
356.38
 31
0.0
  0
LINE
  5
7E
330
1F
100
AcDbEntity
  8
0
  6
HIDDEN
 62
     7
370
    18
100
AcDbLine
 10
378.3608550184
 20
356.38
 30
0.0
 11
378.3608550184
 21
351.38
 31
0.0
  0
LINE
  5
7F
330
1F
100
AcDbEntity
  8
0
  6
Continuous
 62
     7
370
    25
100
AcDbLine
 10
495.88
 20
201.9496032707
 30
0.0
 11
495.88
 21
229.9496032707
 31
0.0
  0
LINE
  5
80
330
1F
100
AcDbEntity
  8
0
  6
Continuous
 62
     7
370
    25
100
AcDbLine
 10
495.88
 20
201.9496032707
 30
0.0
 11
473.88
 21
201.9496032707
 31
0.0
  0
LINE
  5
81
330
1F
100
AcDbEntity
  8
0
  6
Continuous
 62
     7
370
    25
100
AcDbLine
 10
473.88
 20
201.9496032707
 30
0.0
 11
473.88
 21
229.9496032707
 31
0.0
  0
LINE
  5
82
330
1F
100
AcDbEntity
  8
0
  6
Continuous
 62
     7
370
    25
100
AcDbLine
 10
495.88
 20
229.9496032707
 30
0.0
 11
473.88
 21
229.9496032707
 31
0.0
  0
LINE
  5
83
330
1F
100
AcDbEntity
  8
0
  6
Continuous
 62
     7
370
    25
100
AcDbLine
 10
495.88
 20
251.9496032707
 30
0.0
 11
473.88
 21
251.9496032707
 31
0.0
  0
ARC
  5
84
330
1F
100
AcDbEntity
  8
0
  6
Continuous
 62
     7
370
    25
100
AcDbCircle
 10
484.88
 20
240.9496032707
 30
0.0
 40
2.5
100
AcDbArc
 50
0.0
 51
180.0
  0
ARC
  5
85
330
1F
100
AcDbEntity
  8
0
  6
Continuous
 62
     7
370
    25
100
AcDbCircle
 10
484.88
 20
240.9496032707
 30
0.0
 40
2.5
100
AcDbArc
 50
180.0
 51
0.0
  0
LINE
  5
86
330
1F
100
AcDbEntity
  8
0
  6
Continuous
 62
     7
370
    25
100
AcDbLine
 10
473.88
 20
229.9496032707
 30
0.0
 11
473.88
 21
251.9496032707
 31
0.0
  0
LINE
  5
87
330
1F
100
AcDbEntity
  8
0
  6
Continuous
 62
     7
370
    25
100
AcDbLine
 10
495.88
 20
229.9496032707
 30
0.0
 11
495.88
 21
251.9496032707
 31
0.0
  0
LINE
  5
88
330
1F
100
AcDbEntity
  8
0
  6
HIDDEN
 62
     7
370
    18
100
AcDbLine
 10
477.88
 20
251.9496032707
 30
0.0
 11
477.88
 21
201.9496032707
 31
0.0
  0
LINE
  5
89
330
1F
100
AcDbEntity
  8
0
  6
HIDDEN
 62
     7
370
    18
100
AcDbLine
 10
491.88
 20
201.9496032707
 30
0.0
 11
491.88
 21
251.9496032707
 31
0.0
  0
LINE
  5
8A
330
1F
100
AcDbEntity
  8
0
  6
Continuous
 62
     7
370
    25
100
AcDbLine
 10
454.1208550184
 20
365.517133095
 30
0.0
 11
454.1208550184
 21
342.6539903622
 31
0.0
  0
LINE
  5
8B
330
1F
100
AcDbEntity
  8
0
  6
Continuous
 62
     7
370
    25
100
AcDbLine
 10
454.1208550184
 20
365.517133095
 30
0.0
 11
469.6772042045
 21
356.536643865
 31
0.0
  0
LINE
  5
8C
330
1F
100
AcDbEntity
  8
0
  6
Continuous
 62
     7
370
    25
100
AcDbLine
 10
469.6772042045
 20
356.536643865
 30
0.0
 11
469.6772042045
 21
333.6735011322
 31
0.0
  0
LINE
  5
8D
330
1F
100
AcDbEntity
  8
0
  6
Continuous
 62
     7
370
    25
100
AcDbLine
 10
454.1208550184
 20
342.6539903622
 30
0.0
 11
469.6772042045
 21
333.6735011322
 31
0.0
  0
LINE
  5
8E
330
1F
100
AcDbEntity
  8
0
  6
Continuous
 62
     7
370
    25
100
AcDbLine
 10
471.0914177669
 20
316.5260113825
 30
0.0
 11
515.6391449816
 21
342.242866905
 31
0.0
  0
LINE
  5
8F
330
1F
100
AcDbEntity
  8
0
  6
Continuous
 62
     7
370
    25
100
AcDbLine
 10
471.0914177669
 20
334.489909244
 30
0.0
 11
471.0914177669
 21
316.5260113825
 31
0.0
  0
LINE
  5
90
330
1F
100
AcDbEntity
  8
0
  6
Continuous
 62
     7
370
    25
100
AcDbLine
 10
469.6772042045
 20
333.6735011322
 30
0.0
 11
471.0914177669
 21
334.489909244
 31
0.0
  0
LINE
  5
91
330
1F
100
AcDbEntity
  8
0
  6
Continuous
 62
     7
370
    25
100
AcDbLine
 10
515.6391449816
 20
383.0699074992
 30
0.0
 11
469.6772042045
 21
356.536643865
 31
0.0
  0
LINE
  5
92
330
1F
100
AcDbEntity
  8
0
  6
Continuous
 62
     7
370
    25
100
AcDbLine
 10
515.6391449816
 20
342.242866905
 30
0.0
 11
515.6391449816
 21
383.0699074992
 31
0.0
  0
LINE
  5
93
330
1F
100
AcDbEntity
  8
0
  6
Continuous
 62
     7
370
    25
100
AcDbLine
 10
500.0827957955
 20
392.0503967293
 30
0.0
 11
454.1208550184
 21
365.517133095
 31
0.0
  0
LINE
  5
94
330
1F
100
AcDbEntity
  8
0
  6
Continuous
 62
     7
370
    25
100
AcDbLine
 10
500.0827957955
 20
392.0503967293
 30
0.0
 11
515.6391449816
 21
383.0699074992
 31
0.0
  0
LWPOLYLINE
  5
95
330
1F
100
AcDbEntity
  8
0
  6
Continuous
 62
     7
370
    25
100
AcDbPolyline
 90
       35
 70
   128
 43
0.0
 10
480.9909127035
 20
372.0483979896
 10
480.5130928747
 20
372.2998589338
 10
479.9971201361
 20
372.5247959304
 10
479.4473965851
 20
372.7212898961
 10
478.8686122693
 20
372.8876644138
 10
478.2657051722
 20
373.0225000348
 10
477.6438190848
 20
373.1246463891
 10
477.0082597198
 20
373.1932319999
 10
476.3644494457
 20
373.2276717191
 10
475.7178810246
 20
373.2276717191
 10
475.0740707505
 20
373.1932319999
 10
474.4385113855
 20
373.1246463891
 10
473.8166252981
 20
373.0225000348
 10
473.2137182011
 20
372.8876644138
 10
472.6349338852
 20
372.7212898961
 10
472.0852103342
 20
372.5247959304
 10
471.5692375956
 20
372.2998589338
 10
471.0914177669
 20
372.0483979896
 10
470.6558274383
 20
371.7725584739
 10
470.266182913
 20
371.4746937521
 10
469.9258085006
 20
371.1573451011
 10
469.6376081558
 20
370.8232200276
 10
469.404040702
 20
370.475169169
 10
469.2270988546
 20
370.1161619724
 10
469.108292219
 20
369.7492613607
 10
469.0486344116
 20
369.3775976005
 10
469.0486344116
 20
369.004341596
 10
469.108292219
 20
368.6326778358
 10
469.2270988546
 20
368.2657772241
 10
469.404040702
 20
367.9067700275
 10
469.6376081558
 20
367.5587191689
 10
469.9258085006
 20
367.2245940954
 10
470.266182913
 20
366.9072454444
 10
470.6558274383
 20
366.6093807226
 10
471.0914177669
 20
366.3335412069
  0
LWPOLYLINE
  5
96
330
1F
100
AcDbEntity
  8
0
  6
Continuous
 62
     7
370
    25
100
AcDbPolyline
 90
       35
 70
   128
 43
0.0
 10
471.0914177669
 20
366.3335412069
 10
471.5692375956
 20
366.0820802627
 10
472.0852103342
 20
365.8571432661
 10
472.6349338852
 20
365.6606493004
 10
473.2137182011
 20
365.4942747827
 10
473.8166252981
 20
365.3594391617
 10
474.4385113855
 20
365.2572928074
 10
475.0740707505
 20
365.1887071966
 10
475.7178810246
 20
365.1542674774
 10
476.3644494457
 20
365.1542674774
 10
477.0082597198
 20
365.1887071966
 10
477.6438190848
 20
365.2572928074
 10
478.2657051722
 20
365.3594391617
 10
478.8686122693
 20
365.4942747827
 10
479.4473965851
 20
365.6606493004
 10
479.9971201361
 20
365.8571432661
 10
480.5130928747
 20
366.0820802627
 10
480.9909127035
 20
366.3335412069
 10
481.426503032
 20
366.6093807226
 10
481.8161475574
 20
366.9072454444
 10
482.1565219697
 20
367.2245940954
 10
482.4447223146
 20
367.5587191689
 10
482.6782897683
 20
367.9067700275
 10
482.8552316157
 20
368.2657772241
 10
482.9740382513
 20
368.6326778358
 10
483.0336960588
 20
369.004341596
 10
483.0336960588
 20
369.3775976005
 10
482.9740382513
 20
369.7492613607
 10
482.8552316157
 20
370.1161619724
 10
482.6782897683
 20
370.475169169
 10
482.4447223146
 20
370.8232200276
 10
482.1565219697
 20
371.1573451011
 10
481.8161475574
 20
371.4746937521
 10
481.426503032
 20
371.7725584739
 10
480.9909127035
 20
372.0483979896
  0
LWPOLYLINE
  5
97
330
1F
100
AcDbEntity
  8
0
  6
Continuous
 62
     7
370
    25
100
AcDbPolyline
 90
       35
 70
   128
 43
0.0
 10
502.2041161391
 20
384.294519667
 10
501.7262963103
 20
384.5459806112
 10
501.2103235717
 20
384.7709176077
 10
500.6606000207
 20
384.9674115735
 10
500.0818157049
 20
385.1337860912
 10
499.4789086078
 20
385.2686217122
 10
498.8570225204
 20
385.3707680664
 10
498.2214631554
 20
385.4393536773
 10
497.5776528813
 20
385.4737933964
 10
496.9310844602
 20
385.4737933964
 10
496.2872741861
 20
385.4393536773
 10
495.6517148211
 20
385.3707680664
 10
495.0298287337
 20
385.2686217122
 10
494.4269216367
 20
385.1337860912
 10
493.8481373208
 20
384.9674115735
 10
493.2984137698
 20
384.7709176077
 10
492.7824410312
 20
384.5459806112
 10
492.3046212025
 20
384.294519667
 10
491.8690308739
 20
384.0186801512
 10
491.4793863486
 20
383.7208154295
 10
491.1390119362
 20
383.4034667784
 10
490.8508115913
 20
383.069341705
 10
490.6172441376
 20
382.7212908463
 10
490.4403022902
 20
382.3622836497
 10
490.3214956546
 20
381.995383038
 10
490.2618378471
 20
381.6237192778
 10
490.2618378471
 20
381.2504632733
 10
490.3214956546
 20
380.8787995132
 10
490.4403022902
 20
380.5118989015
 10
490.6172441376
 20
380.1528917049
 10
490.8508115913
 20
379.8048408462
 10
491.1390119362
 20
379.4707157727
 10
491.4793863486
 20
379.1533671217
 10
491.8690308739
 20
378.8555023999
 10
492.3046212025
 20
378.5796628842
  0
LWPOLYLINE
  5
98
330
1F
100
AcDbEntity
  8
0
  6
Continuous
 62
     7
370
    25
100
AcDbPolyline
 90
       35
 70
   128
 43
0.0
 10
492.3046212025
 20
378.5796628842
 10
492.7824410312
 20
378.32820194
 10
493.2984137698
 20
378.1032649435
 10
493.8481373208
 20
377.9067709777
 10
494.4269216367
 20
377.74039646
 10
495.0298287337
 20
377.605560839
 10
495.6517148211
 20
377.5034144848
 10
496.2872741861
 20
377.4348288739
 10
496.9310844602
 20
377.4003891547
 10
497.5776528813
 20
377.4003891547
 10
498.2214631554
 20
377.4348288739
 10
498.8570225204
 20
377.5034144848
 10
499.4789086078
 20
377.605560839
 10
500.0818157049
 20
377.74039646
 10
500.6606000207
 20
377.9067709777
 10
501.2103235717
 20
378.1032649435
 10
501.7262963103
 20
378.32820194
 10
502.2041161391
 20
378.5796628842
 10
502.6397064676
 20
378.8555023999
 10
503.029350993
 20
379.1533671217
 10
503.3697254053
 20
379.4707157727
 10
503.6579257502
 20
379.8048408462
 10
503.8914932039
 20
380.1528917049
 10
504.0684350513
 20
380.5118989015
 10
504.1872416869
 20
380.8787995132
 10
504.2468994944
 20
381.2504632733
 10
504.2468994944
 20
381.6237192778
 10
504.1872416869
 20
381.995383038
 10
504.0684350513
 20
382.3622836497
 10
503.8914932039
 20
382.7212908463
 10
503.6579257502
 20
383.069341705
 10
503.3697254053
 20
383.4034667784
 10
503.029350993
 20
383.7208154295
 10
502.6397064676
 20
384.0186801512
 10
502.2041161391
 20
384.294519667
  0
LINE
  5
99
330
1F
100
AcDbEntity
  8
0
  6
Continuous
 62
     7
370
    25
100
AcDbLine
 10
455.5350685808
 20
325.5065006126
 30
0.0
 11
471.0914177669
 21
316.5260113825
 31
0.0
  0
LWPOLYLINE
  5
9A
330
1F
100
AcDbEntity
  8
0
  6
Continuous
 62
     7
370
    25
100
AcDbPolyline
 90
       21
 70
   128
 43
0.0
 10
461.5454762208
 20
331.0187150681
 10
461.5672403655
 20
330.6868130821
 10
461.6319968939
 20
330.337955278
 10
461.7381512855
 20
329.9807316927
 10
461.8830896668
 20
329.6239383565
 10
462.0632431738
 20
329.2763607054
 10
462.2741758294
 20
328.9465572547
 10
462.5106937714
 20
328.64264886
 10
462.7669731432
 20
328.3721187545
 10
463.0367034962
 20
328.1416282873
 10
463.3132431738
 20
327.9568528986
 10
463.5897828514
 20
327.8223423717
 10
463.8595132044
 20
327.7414088023
 10
464.1157925762
 20
327.7160450433
 10
464.3523105183
 20
327.7468756348
 10
464.5632431738
 20
327.8331414252
 10
464.7433966809
 20
327.9727182645
 10
464.8883350621
 20
328.1621693076
 10
464.9944894537
 20
328.3968296412
 10
465.0592459821
 20
328.6709211491
 10
465.0810101268
 20
328.9776947885
  0
LWPOLYLINE
  5
9B
330
1F
100
AcDbEntity
  8
0
  6
Continuous
 62
     7
370
    25
100
AcDbPolyline
 90
       21
 70
   128
 43
0.0
 10
465.0810101268
 20
328.9776947885
 10
465.0592459821
 20
329.3095967745
 10
464.9944894537
 20
329.6584545786
 10
464.8883350621
 20
330.0156781639
 10
464.7433966809
 20
330.3724715001
 10
464.5632431738
 20
330.7200491512
 10
464.3523105183
 20
331.0498526019
 10
464.1157925762
 20
331.3537609966
 10
463.8595132044
 20
331.6242911021
 10
463.5897828514
 20
331.8547815693
 10
463.3132431738
 20
332.039556958
 10
463.0367034962
 20
332.1740674849
 10
462.7669731432
 20
332.2550010543
 10
462.5106937714
 20
332.2803648133
 10
462.2741758294
 20
332.2495342218
 10
462.0632431738
 20
332.1632684314
 10
461.8830896668
 20
332.0236915921
 10
461.7381512855
 20
331.834240549
 10
461.6319968939
 20
331.5995802154
 10
461.5672403655
 20
331.3254887075
 10
461.5454762208
 20
331.0187150681
  0
LINE
  5
9C
330
1F
100
AcDbEntity
  8
0
  6
Continuous
 62
     7
370
    25
100
AcDbLine
 10
455.5350685808
 20
341.8375822504
 30
0.0
 11
455.5350685808
 21
325.5065006126
 31
0.0
  0
LWPOLYLINE
  5
9D
330
1F
100
AcDbEntity
  8
0
  6
HIDDEN
 62
     7
370
    18
100
AcDbPolyline
 90
       35
 70
   128
 43
0.0
 10
471.0914177669
 20
325.5065006126
 10
471.5692375956
 20
325.2550396684
 10
472.0852103342
 20
325.0301026719
 10
472.6349338852
 20
324.8336087061
 10
473.2137182011
 20
324.6672341884
 10
473.8166252981
 20
324.5323985674
 10
474.4385113855
 20
324.4302522132
 10
475.0740707505
 20
324.3616666023
 10
475.7178810246
 20
324.3272268831
 10
476.3644494457
 20
324.3272268831
 10
477.0082597198
 20
324.3616666023
 10
477.6438190848
 20
324.4302522132
 10
478.2657051722
 20
324.5323985674
 10
478.8686122693
 20
324.6672341884
 10
479.4473965851
 20
324.8336087061
 10
479.9971201361
 20
325.0301026719
 10
480.5130928747
 20
325.2550396684
 10
480.9909127035
 20
325.5065006126
 10
481.426503032
 20
325.7823401283
 10
481.8161475574
 20
326.0802048501
 10
482.1565219697
 20
326.3975535011
 10
482.4447223146
 20
326.7316785746
 10
482.6782897683
 20
327.0797294332
 10
482.8552316157
 20
327.4387366298
 10
482.9740382513
 20
327.8056372415
 10
483.0336960588
 20
328.1773010017
 10
483.0336960588
 20
328.5505570062
 10
482.9740382513
 20
328.9222207664
 10
482.8552316157
 20
329.2891213781
 10
482.6782897683
 20
329.6481285747
 10
482.4447223146
 20
329.9961794333
 10
482.1565219697
 20
330.3303045068
 10
481.8161475574
 20
330.6476531579
 10
481.426503032
 20
330.9455178796
 10
480.9909127035
 20
331.2213573953
  0
LWPOLYLINE
  5
9E
330
1F
100
AcDbEntity
  8
0
  6
HIDDEN
 62
     7
370
    18
100
AcDbPolyline
 90
       35
 70
   128
 43
0.0
 10
480.9909127035
 20
331.2213573953
 10
480.5130928747
 20
331.4728183395
 10
479.9971201361
 20
331.6977553361
 10
479.4473965851
 20
331.8942493018
 10
478.8686122693
 20
332.0606238195
 10
478.2657051722
 20
332.1954594405
 10
477.6438190848
 20
332.2976057948
 10
477.0082597198
 20
332.3661914056
 10
476.3644494457
 20
332.4006311248
 10
475.7178810246
 20
332.4006311248
 10
475.0740707505
 20
332.3661914056
 10
474.4385113855
 20
332.2976057948
 10
473.8166252981
 20
332.1954594405
 10
473.2137182011
 20
332.0606238195
 10
472.6349338852
 20
331.8942493018
 10
472.0852103342
 20
331.6977553361
 10
471.5692375956
 20
331.4728183395
 10
471.0914177669
 20
331.2213573953
 10
470.6558274383
 20
330.9455178796
 10
470.266182913
 20
330.6476531579
 10
469.9258085006
 20
330.3303045068
 10
469.6376081558
 20
329.9961794333
 10
469.404040702
 20
329.6481285747
 10
469.2270988546
 20
329.2891213781
 10
469.108292219
 20
328.9222207664
 10
469.0486344116
 20
328.5505570062
 10
469.0486344116
 20
328.1773010017
 10
469.108292219
 20
327.8056372415
 10
469.2270988546
 20
327.4387366298
 10
469.404040702
 20
327.0797294332
 10
469.6376081558
 20
326.7316785746
 10
469.9258085006
 20
326.3975535011
 10
470.266182913
 20
326.0802048501
 10
470.6558274383
 20
325.7823401283
 10
471.0914177669
 20
325.5065006126
  0
LINE
  5
9F
330
1F
100
AcDbEntity
  8
0
  6
HIDDEN
 62
     7
370
    18
100
AcDbLine
 10
454.1208550184
 20
342.6539903622
 30
0.0
 11
455.5350685808
 21
343.4703984741
 31
0.0
  0
LINE
  5
A0
330
1F
100
AcDbEntity
  8
0
  6
HIDDEN
 62
     7
370
    18
100
AcDbLine
 10
455.5350685808
 20
343.4703984741
 30
0.0
 11
471.0914177669
 21
334.489909244
 31
0.0
  0
LINE
  5
A1
330
1F
100
AcDbEntity
  8
0
  6
HIDDEN
 62
     7
370
    18
100
AcDbLine
 10
455.5350685808
 20
343.4703984741
 30
0.0
 11
455.5350685808
 21
341.8375822504
 31
0.0
  0
LWPOLYLINE
  5
A2
330
1F
100
AcDbEntity
  8
0
  6
HIDDEN
 62
     7
370
    18
100
AcDbPolyline
 90
       21
 70
   128
 43
0.0
 10
472.1520779386
 20
333.0597353476
 10
472.130313794
 20
333.3916373336
 10
472.0655572656
 20
333.7404951377
 10
471.959402874
 20
334.097718723
 10
471.8144644927
 20
334.4545120592
 10
471.6343109857
 20
334.8020897103
 10
471.4233783301
 20
335.131893161
 10
471.1868603881
 20
335.4358015557
 10
470.9305810162
 20
335.7063316612
 10
470.6608506633
 20
335.9368221284
 10
470.3843109857
 20
336.1215975171
 10
470.1077713081
 20
336.256108044
 10
469.8380409551
 20
336.3370416135
 10
469.5817615833
 20
336.3624053724
 10
469.3452436412
 20
336.3315747809
 10
469.1343109857
 20
336.2453089905
 10
468.9541574786
 20
336.1057321512
 10
468.8092190973
 20
335.9162811081
 10
468.7030647058
 20
335.6816207745
 10
468.6383081773
 20
335.4075292667
 10
468.6165440327
 20
335.1007556272
  0
LWPOLYLINE
  5
A3
330
1F
100
AcDbEntity
  8
0
  6
HIDDEN
 62
     7
370
    18
100
AcDbPolyline
 90
       35
 70
   128
 43
0.0
 10
492.3046212025
 20
337.7526222899
 10
492.7824410312
 20
337.5011613457
 10
493.2984137698
 20
337.2762243492
 10
493.8481373208
 20
337.0797303834
 10
494.4269216367
 20
336.9133558657
 10
495.0298287337
 20
336.7785202447
 10
495.6517148211
 20
336.6763738905
 10
496.2872741861
 20
336.6077882796
 10
496.9310844602
 20
336.5733485605
 10
497.5776528813
 20
336.5733485605
 10
498.2214631554
 20
336.6077882796
 10
498.8570225204
 20
336.6763738905
 10
499.4789086078
 20
336.7785202447
 10
500.0818157049
 20
336.9133558657
 10
500.6606000207
 20
337.0797303834
 10
501.2103235717
 20
337.2762243492
 10
501.7262963103
 20
337.5011613457
 10
502.2041161391
 20
337.7526222899
 10
502.6397064676
 20
338.0284618056
 10
503.029350993
 20
338.3263265274
 10
503.3697254053
 20
338.6436751784
 10
503.6579257502
 20
338.9778002519
 10
503.8914932039
 20
339.3258511106
 10
504.0684350513
 20
339.6848583072
 10
504.1872416869
 20
340.0517589189
 10
504.2468994944
 20
340.4234226791
 10
504.2468994944
 20
340.7966786835
 10
504.1872416869
 20
341.1683424437
 10
504.0684350513
 20
341.5352430554
 10
503.8914932039
 20
341.894250252
 10
503.6579257502
 20
342.2423011107
 10
503.3697254053
 20
342.5764261842
 10
503.029350993
 20
342.8937748352
 10
502.6397064676
 20
343.191639557
 10
502.2041161391
 20
343.4674790727
  0
LWPOLYLINE
  5
A4
330
1F
100
AcDbEntity
  8
0
  6
HIDDEN
 62
     7
370
    18
100
AcDbPolyline
 90
       21
 70
   128
 43
0.0
 10
468.6165440327
 20
335.1007556272
 10
468.6383081773
 20
334.7688536412
 10
468.7030647058
 20
334.4199958371
 10
468.8092190973
 20
334.0627722518
 10
468.9541574786
 20
333.7059789156
 10
469.1343109857
 20
333.3584012645
 10
469.3452436412
 20
333.0285978139
 10
469.5817615833
 20
332.7246894191
 10
469.8380409551
 20
332.4541593136
 10
470.1077713081
 20
332.2236688464
 10
470.3843109857
 20
332.0388934577
 10
470.6608506633
 20
331.9043829308
 10
470.9305810162
 20
331.8234493614
 10
471.1868603881
 20
331.7980856024
 10
471.4233783301
 20
331.8289161939
 10
471.6343109857
 20
331.9151819843
 10
471.8144644927
 20
332.0547588236
 10
471.959402874
 20
332.2442098668
 10
472.0655572656
 20
332.4788702004
 10
472.130313794
 20
332.7529617082
 10
472.1520779386
 20
333.0597353476
  0
LINE
  5
A5
330
1F
100
AcDbEntity
  8
0
  6
HIDDEN
 62
     7
370
    18
100
AcDbLine
 10
455.5350685808
 20
325.5065006126
 30
0.0
 11
500.0827957955
 21
351.223356135
 31
0.0
  0
LWPOLYLINE
  5
A6
330
1F
100
AcDbEntity
  8
0
  6
HIDDEN
 62
     7
370
    18
100
AcDbPolyline
 90
       35
 70
   128
 43
0.0
 10
502.2041161391
 20
343.4674790727
 10
501.7262963103
 20
343.7189400169
 10
501.2103235717
 20
343.9438770134
 10
500.6606000207
 20
344.1403709792
 10
500.0818157049
 20
344.3067454969
 10
499.4789086078
 20
344.4415811179
 10
498.8570225204
 20
344.5437274721
 10
498.2214631554
 20
344.612313083
 10
497.5776528813
 20
344.6467528022
 10
496.9310844602
 20
344.6467528022
 10
496.2872741861
 20
344.612313083
 10
495.6517148211
 20
344.5437274721
 10
495.0298287337
 20
344.4415811179
 10
494.4269216367
 20
344.3067454969
 10
493.8481373208
 20
344.1403709792
 10
493.2984137698
 20
343.9438770134
 10
492.7824410312
 20
343.7189400169
 10
492.3046212025
 20
343.4674790727
 10
491.8690308739
 20
343.191639557
 10
491.4793863486
 20
342.8937748352
 10
491.1390119362
 20
342.5764261842
 10
490.8508115913
 20
342.2423011107
 10
490.6172441376
 20
341.894250252
 10
490.4403022902
 20
341.5352430554
 10
490.3214956546
 20
341.1683424437
 10
490.2618378471
 20
340.7966786835
 10
490.2618378471
 20
340.4234226791
 10
490.3214956546
 20
340.0517589189
 10
490.4403022902
 20
339.6848583072
 10
490.6172441376
 20
339.3258511106
 10
490.8508115913
 20
338.9778002519
 10
491.1390119362
 20
338.6436751784
 10
491.4793863486
 20
338.3263265274
 10
491.8690308739
 20
338.0284618056
 10
492.3046212025
 20
337.7526222899
  0
LINE
  5
A7
330
1F
100
AcDbEntity
  8
0
  6
HIDDEN
 62
     7
370
    18
100
AcDbLine
 10
500.0827957955
 20
351.223356135
 30
0.0
 11
515.6391449816
 21
342.242866905
 31
0.0
  0
LINE
  5
A8
330
1F
100
AcDbEntity
  8
0
  6
HIDDEN
 62
     7
370
    18
100
AcDbLine
 10
500.0827957955
 20
351.223356135
 30
0.0
 11
500.0827957955
 21
392.0503967293
 31
0.0
  0
LINE
  5
A9
330
1F
100
AcDbEntity
  8
0
  6
HIDDEN
 62
     7
370
    18
100
AcDbLine
 10
483.0411652352
 20
328.363929004
 30
0.0
 11
483.0411652352
 21
369.1909695983
 31
0.0
  0
LINE
  5
AA
330
1F
100
AcDbEntity
  8
0
  6
HIDDEN
 62
     7
370
    18
100
AcDbLine
 10
469.0411652352
 20
369.1909695983
 30
0.0
 11
469.0411652352
 21
328.363929004
 31
0.0
  0
LINE
  5
AB
330
1F
100
AcDbEntity
  8
0
  6
HIDDEN
 62
     7
370
    18
100
AcDbLine
 10
469.1344125699
 20
336.2453676434
 30
0.0
 11
462.063344758
 21
332.1633270843
 31
0.0
  0
LINE
  5
AC
330
1F
100
AcDbEntity
  8
0
  6
HIDDEN
 62
     7
370
    18
100
AcDbLine
 10
504.2543686708
 20
340.6100506813
 30
0.0
 11
504.2543686708
 21
381.4370912756
 31
0.0
  0
LINE
  5
AD
330
1F
100
AcDbEntity
  8
0
  6
HIDDEN
 62
     7
370
    18
100
AcDbLine
 10
464.5631415896
 20
327.8330827724
 30
0.0
 11
471.6342094015
 21
331.9151233315
 31
0.0
  0
LINE
  5
AE
330
1F
100
AcDbEntity
  8
0
  6
HIDDEN
 62
     7
370
    18
100
AcDbLine
 10
490.2543686708
 20
381.4370912756
 30
0.0
 11
490.2543686708
 21
340.6100506813
 31
0.0
  0
ENDSEC
  0
SECTION
  2
OBJECTS
  0
DICTIONARY
  5
C
330
0
100
AcDbDictionary
281
     1
  3
ACAD_GROUP
350
D
  3
ACAD_LAYOUT
350
1A
  3
ACAD_MLINESTYLE
350
17
  3
ACAD_PLOTSETTINGS
350
19
  3
ACAD_PLOTSTYLENAME
350
E
  3
ACAD_SCALELIST
350
47
  3
DWGPROPS
350
AF
  0
DICTIONARY
  5
D
102
{ACAD_REACTORS
330
C
102
}
330
C
100
AcDbDictionary
281
     1
  0
DICTIONARY
  5
1A
102
{ACAD_REACTORS
330
C
102
}
330
C
100
AcDbDictionary
281
     1
  3
Layout1
350
1E
  3
Layout2
350
26
  3
Model
350
22
  0
DICTIONARY
  5
17
102
{ACAD_REACTORS
330
C
102
}
330
C
100
AcDbDictionary
281
     1
  3
Standard
350
18
  0
DICTIONARY
  5
19
102
{ACAD_REACTORS
330
C
102
}
330
C
100
AcDbDictionary
281
     1
  0
ACDBDICTIONARYWDFLT
  5
E
102
{ACAD_REACTORS
330
C
102
}
330
C
100
AcDbDictionary
281
     1
  3
Normal
350
F
100
AcDbDictionaryWithDefault
340
F
  0
DICTIONARY
  5
47
102
{ACAD_REACTORS
330
C
102
}
330
C
100
AcDbDictionary
281
     1
  3
A0
350
48
  3
A1
350
49
  3
A2
350
4A
  3
A3
350
4B
  3
A4
350
4C
  3
A5
350
4D
  3
A6
350
4E
  3
A7
350
4F
  3
A8
350
50
  3
A9
350
51
  3
B0
350
52
  3
B1
350
53
  3
B2
350
54
  3
B3
350
55
  3
B4
350
56
  3
B5
350
57
  3
B6
350
58
  0
XRECORD
  5
AF
102
{ACAD_REACTORS
330
C
102
}
330
C
100
AcDbXrecord
280
     1
  1
DWGPROPS COOKIE
  2

  3

  4

  6

  7

  8
imaizumi
  9

300
=
301
=
302
=
303
=
304
=
305
=
306
=
307
=
308
=
309
=
 40
0.0
 41
2461263.041177686
 42
2461263.041178033
  1

 90
        0
  0
LAYOUT
  5
1E
102
{ACAD_REACTORS
330
1A
102
}
330
1A
100
AcDbPlotSettings
  1

  2
none_device
  4

  6

 40
0.0
 41
0.0
 42
0.0
 43
0.0
 44
0.0
 45
0.0
 46
0.0
 47
0.0
 48
0.0
 49
0.0
140
0.0
141
0.0
142
1.0
143
1.0
 70
   688
 72
     1
 73
     0
 74
     5
  7

 75
    16
147
1.0
148
0.0
149
0.0
100
AcDbLayout
  1
Layout1
 70
     1
 71
     1
 10
0.0
 20
0.0
 11
420.0
 21
297.0
 12
0.0
 22
0.0
 32
0.0
 14
1.0000000000E+20
 24
1.0000000000E+20
 34
1.0000000000E+20
 15
-1.0000000000E+20
 25
-1.0000000000E+20
 35
-1.0000000000E+20
146
0.0
 13
0.0
 23
0.0
 33
0.0
 16
1.0
 26
0.0
 36
0.0
 17
0.0
 27
1.0
 37
0.0
 76
     0
330
1B
  0
LAYOUT
  5
26
102
{ACAD_REACTORS
330
1A
102
}
330
1A
100
AcDbPlotSettings
  1

  2
none_device
  4

  6

 40
0.0
 41
0.0
 42
0.0
 43
0.0
 44
0.0
 45
0.0
 46
0.0
 47
0.0
 48
0.0
 49
0.0
140
0.0
141
0.0
142
1.0
143
1.0
 70
   688
 72
     1
 73
     0
 74
     5
  7

 75
    16
147
1.0
148
0.0
149
0.0
100
AcDbLayout
  1
Layout2
 70
     1
 71
     2
 10
0.0
 20
0.0
 11
0.0
 21
0.0
 12
0.0
 22
0.0
 32
0.0
 14
0.0
 24
0.0
 34
0.0
 15
0.0
 25
0.0
 35
0.0
146
0.0
 13
0.0
 23
0.0
 33
0.0
 16
1.0
 26
0.0
 36
0.0
 17
0.0
 27
1.0
 37
0.0
 76
     0
330
23
  0
LAYOUT
  5
22
102
{ACAD_REACTORS
330
1A
102
}
330
1A
100
AcDbPlotSettings
  1

  2
none_device
  4
Letter_(8.50_x_11.00_Inches)
  6

 40
6.35
 41
6.35
 42
6.35000508
 43
6.35000508
 44
215.9
 45
279.4
 46
0.0
 47
0.0
 48
0.0
 49
0.0
140
0.0
141
0.0
142
1.0
143
1.0
 70
  1712
 72
     1
 73
     0
 74
     0
  7

 75
     0
147
1.0
148
0.0
149
0.0
100
AcDbLayout
  1
Model
 70
     1
 71
     0
 10
0.0
 20
0.0
 11
841.0
 21
594.0
 12
0.0
 22
0.0
 32
0.0
 14
0.0
 24
0.0
 34
0.0
 15
841.0
 25
594.0
 35
0.0
146
0.0
 13
0.0
 23
0.0
 33
0.0
 16
1.0
 26
0.0
 36
0.0
 17
0.0
 27
1.0
 37
0.0
 76
     0
330
1F
331
29
  0
MLINESTYLE
  5
18
102
{ACAD_REACTORS
330
17
102
}
330
17
100
AcDbMlineStyle
  2
Standard
 70
     0
  3

 62
   256
 51
90.0
 52
90.0
 71
     2
 49
0.5
 62
   256
  6
BYLAYER
 49
-0.5
 62
   256
  6
BYLAYER
  0
ACDBPLACEHOLDER
  5
F
102
{ACAD_REACTORS
330
E
102
}
330
E
  0
SCALE
  5
48
102
{ACAD_REACTORS
330
47
102
}
330
47
100
AcDbScale
 70
     0
300
1:1
140
1.0
141
1.0
290
     1
  0
SCALE
  5
49
102
{ACAD_REACTORS
330
47
102
}
330
47
100
AcDbScale
 70
     0
300
1:2
140
1.0
141
2.0
290
     0
  0
SCALE
  5
4A
102
{ACAD_REACTORS
330
47
102
}
330
47
100
AcDbScale
 70
     0
300
1:4
140
1.0
141
4.0
290
     0
  0
SCALE
  5
4B
102
{ACAD_REACTORS
330
47
102
}
330
47
100
AcDbScale
 70
     0
300
1:5
140
1.0
141
5.0
290
     0
  0
SCALE
  5
4C
102
{ACAD_REACTORS
330
47
102
}
330
47
100
AcDbScale
 70
     0
300
1:8
140
1.0
141
8.0
290
     0
  0
SCALE
  5
4D
102
{ACAD_REACTORS
330
47
102
}
330
47
100
AcDbScale
 70
     0
300
1:10
140
1.0
141
10.0
290
     0
  0
SCALE
  5
4E
102
{ACAD_REACTORS
330
47
102
}
330
47
100
AcDbScale
 70
     0
300
1:16
140
1.0
141
16.0
290
     0
  0
SCALE
  5
4F
102
{ACAD_REACTORS
330
47
102
}
330
47
100
AcDbScale
 70
     0
300
1:20
140
1.0
141
20.0
290
     0
  0
SCALE
  5
50
102
{ACAD_REACTORS
330
47
102
}
330
47
100
AcDbScale
 70
     0
300
1:30
140
1.0
141
30.0
290
     0
  0
SCALE
  5
51
102
{ACAD_REACTORS
330
47
102
}
330
47
100
AcDbScale
 70
     0
300
1:40
140
1.0
141
40.0
290
     0
  0
SCALE
  5
52
102
{ACAD_REACTORS
330
47
102
}
330
47
100
AcDbScale
 70
     0
300
1:50
140
1.0
141
50.0
290
     0
  0
SCALE
  5
53
102
{ACAD_REACTORS
330
47
102
}
330
47
100
AcDbScale
 70
     0
300
1:100
140
1.0
141
100.0
290
     0
  0
SCALE
  5
54
102
{ACAD_REACTORS
330
47
102
}
330
47
100
AcDbScale
 70
     0
300
2:1
140
2.0
141
1.0
290
     0
  0
SCALE
  5
55
102
{ACAD_REACTORS
330
47
102
}
330
47
100
AcDbScale
 70
     0
300
4:1
140
4.0
141
1.0
290
     0
  0
SCALE
  5
56
102
{ACAD_REACTORS
330
47
102
}
330
47
100
AcDbScale
 70
     0
300
8:1
140
8.0
141
1.0
290
     0
  0
SCALE
  5
57
102
{ACAD_REACTORS
330
47
102
}
330
47
100
AcDbScale
 70
     0
300
10:1
140
10.0
141
1.0
290
     0
  0
SCALE
  5
58
102
{ACAD_REACTORS
330
47
102
}
330
47
100
AcDbScale
 70
     0
300
100:1
140
100.0
141
1.0
290
     0
  0
ENDSEC
  0
EOF
