  0
SECTION
  2
HEADER
  9
$ACADVER
  1
AC1015
  9
$ACADMAINTVER
 70
     6
  9
$DWGCODEPAGE
  3
DOS932
  9
$INSBASE
 10
0.0
 20
0.0
 30
0.0
  9
$EXTMIN
 10
0.0
 20
0.0
 30
0.0
  9
$EXTMAX
 10
841.0
 20
594.0
 30
0.0
  9
$LIMMIN
 10
0.0
 20
0.0
  9
$LIMMAX
 10
841.0
 20
594.0
  9
$ORTHOMODE
 70
     0
  9
$REGENMODE
 70
     1
  9
$FILLMODE
 70
     1
  9
$QTEXTMODE
 70
     0
  9
$MIRRTEXT
 70
     1
  9
$LTSCALE
 40
1.0
  9
$ATTMODE
 70
     1
  9
$TEXTSIZE
 40
3.5
  9
$TRACEWID
 40
1.0
  9
$TEXTSTYLE
  7
Standard
  9
$CLAYER
  8
0
  9
$CELTYPE
  6
ByLayer
  9
$CECOLOR
 62
   256
  9
$CELTSCALE
 40
1.0
  9
$DISPSILH
 70
     0
  9
$DIMSCALE
 40
1.0
  9
$DIMASZ
 40
3.302
  9
$DIMEXO
 40
1.0
  9
$DIMDLI
 40
3.75
  9
$DIMRND
 40
0.0
  9
$DIMDLE
 40
0.0
  9
$DIMEXE
 40
1.0
  9
$DIMTP
 40
0.0
  9
$DIMTM
 40
0.0
  9
$DIMTXT
 40
3.5
  9
$DIMCEN
 40
2.5
  9
$DIMTSZ
 40
0.0
  9
$DIMTOL
 70
     0
  9
$DIMLIM
 70
     0
  9
$DIMTIH
 70
     1
  9
$DIMTOH
 70
     1
  9
$DIMSE1
 70
     0
  9
$DIMSE2
 70
     0
  9
$DIMTAD
 70
     1
  9
$DIMZIN
 70
     1
  9
$DIMBLK
  1

  9
$DIMASO
 70
     1
  9
$DIMSHO
 70
     1
  9
$DIMPOST
  1

  9
$DIMAPOST
  1

  9
$DIMALT
 70
     0
  9
$DIMALTD
 70
     3
  9
$DIMALTF
 40
0.0393700787
  9
$DIMLFAC
 40
0.5
  9
$DIMTOFL
 70
     1
  9
$DIMTVP
 40
0.0
  9
$DIMTIX
 70
     0
  9
$DIMSOXD
 70
     0
  9
$DIMSAH
 70
     0
  9
$DIMBLK1
  1

  9
$DIMBLK2
  1

  9
$DIMSTYLE
  2
ISO-25
  9
$DIMCLRD
 70
     0
  9
$DIMCLRE
 70
     0
  9
$DIMCLRT
 70
     0
  9
$DIMTFAC
 40
1.0
  9
$DIMGAP
 40
1.524
  9
$DIMJUST
 70
     0
  9
$DIMSD1
 70
     0
  9
$DIMSD2
 70
     0
  9
$DIMTOLJ
 70
     0
  9
$DIMTZIN
 70
     1
  9
$DIMALTZ
 70
     0
  9
$DIMALTTZ
 70
     0
  9
$DIMUPT
 70
     0
  9
$DIMDEC
 70
     2
  9
$DIMTDEC
 70
     2
  9
$DIMALTU
 70
     2
  9
$DIMALTTD
 70
     3
  9
$DIMTXSTY
  7
Standard
  9
$DIMAUNIT
 70
     0
  9
$DIMADEC
 70
     2
  9
$DIMALTRND
 40
0.0
  9
$DIMAZIN
 70
     0
  9
$DIMDSEP
 70
    44
  9
$DIMATFIT
 70
     3
  9
$DIMFRAC
 70
     0
  9
$DIMLDRBLK
  1

  9
$DIMLUNIT
 70
     2
  9
$DIMLWD
 70
    -2
  9
$DIMLWE
 70
    -2
  9
$DIMTMOVE
 70
     0
  9
$LUNITS
 70
     2
  9
$LUPREC
 70
     2
  9
$SKETCHINC
 40
1.0
  9
$FILLETRAD
 40
0.0
  9
$AUNITS
 70
     0
  9
$AUPREC
 70
     2
  9
$MENU
  1
.
  9
$ELEVATION
 40
0.0
  9
$PELEVATION
 40
0.0
  9
$THICKNESS
 40
0.0
  9
$LIMCHECK
 70
     0
  9
$CHAMFERA
 40
0.0
  9
$CHAMFERB
 40
0.0
  9
$CHAMFERC
 40
0.0
  9
$CHAMFERD
 40
0.0
  9
$SKPOLY
 70
     0
  9
$TDCREATE
 40
2461263.426092338
  9
$TDUCREATE
 40
2461263.051092338
  9
$TDUPDATE
 40
2461263.426092743
  9
$TDUUPDATE
 40
2461263.051092743
  9
$TDINDWG
 40
0.0000000116
  9
$TDUSRTIMER
 40
0.0000000116
  9
$USRTIMER
 70
     1
  9
$ANGBASE
 50
0.0
  9
$ANGDIR
 70
     0
  9
$PDMODE
 70
     0
  9
$PDSIZE
 40
-1.0
  9
$PLINEWID
 40
0.0
  9
$SPLFRAME
 70
     0
  9
$SPLINETYPE
 70
     6
  9
$SPLINESEGS
 70
     8
  9
$HANDSEED
  5
D4
  9
$SURFTAB1
 70
     6
  9
$SURFTAB2
 70
     6
  9
$SURFTYPE
 70
     6
  9
$SURFU
 70
     6
  9
$SURFV
 70
     6
  9
$UCSBASE
  2

  9
$UCSNAME
  2

  9
$UCSORG
 10
0.0
 20
0.0
 30
0.0
  9
$UCSXDIR
 10
1.0
 20
0.0
 30
0.0
  9
$UCSYDIR
 10
0.0
 20
1.0
 30
0.0
  9
$UCSORTHOREF
  2

  9
$UCSORTHOVIEW
 70
     0
  9
$UCSORGTOP
 10
0.0
 20
0.0
 30
0.0
  9
$UCSORGBOTTOM
 10
0.0
 20
0.0
 30
0.0
  9
$UCSORGLEFT
 10
0.0
 20
0.0
 30
0.0
  9
$UCSORGRIGHT
 10
0.0
 20
0.0
 30
0.0
  9
$UCSORGFRONT
 10
0.0
 20
0.0
 30
0.0
  9
$UCSORGBACK
 10
0.0
 20
0.0
 30
0.0
  9
$PUCSBASE
  2

  9
$PUCSNAME
  2

  9
$PUCSORG
 10
0.0
 20
0.0
 30
0.0
  9
$PUCSXDIR
 10
1.0
 20
0.0
 30
0.0
  9
$PUCSYDIR
 10
0.0
 20
1.0
 30
0.0
  9
$PUCSORTHOREF
  2

  9
$PUCSORTHOVIEW
 70
     0
  9
$PUCSORGTOP
 10
0.0
 20
0.0
 30
0.0
  9
$PUCSORGBOTTOM
 10
0.0
 20
0.0
 30
0.0
  9
$PUCSORGLEFT
 10
0.0
 20
0.0
 30
0.0
  9
$PUCSORGRIGHT
 10
0.0
 20
0.0
 30
0.0
  9
$PUCSORGFRONT
 10
0.0
 20
0.0
 30
0.0
  9
$PUCSORGBACK
 10
0.0
 20
0.0
 30
0.0
  9
$USERI1
 70
     0
  9
$USERI2
 70
     0
  9
$USERI3
 70
     0
  9
$USERI4
 70
     0
  9
$USERI5
 70
     0
  9
$USERR1
 40
0.0
  9
$USERR2
 40
0.0
  9
$USERR3
 40
0.0
  9
$USERR4
 40
0.0
  9
$USERR5
 40
0.0
  9
$WORLDVIEW
 70
     1
  9
$SHADEDGE
 70
     3
  9
$SHADEDIF
 70
    70
  9
$TILEMODE
 70
     1
  9
$MAXACTVP
 70
    64
  9
$PINSBASE
 10
0.0
 20
0.0
 30
0.0
  9
$PLIMCHECK
 70
     0
  9
$PEXTMIN
 10
1.0000000000E+20
 20
1.0000000000E+20
 30
1.0000000000E+20
  9
$PEXTMAX
 10
-1.0000000000E+20
 20
-1.0000000000E+20
 30
-1.0000000000E+20
  9
$PLIMMIN
 10
0.0
 20
0.0
  9
$PLIMMAX
 10
420.0
 20
297.0
  9
$UNITMODE
 70
     0
  9
$VISRETAIN
 70
     1
  9
$PLINEGEN
 70
     0
  9
$PSLTSCALE
 70
     1
  9
$TREEDEPTH
 70
  3020
  9
$CMLSTYLE
  2
Standard
  9
$CMLJUST
 70
     0
  9
$CMLSCALE
 40
20.0
  9
$PROXYGRAPHICS
 70
     1
  9
$MEASUREMENT
 70
     1
  9
$CELWEIGHT
370
    -1
  9
$ENDCAPS
280
     0
  9
$JOINSTYLE
280
     0
  9
$LWDISPLAY
290
     1
  9
$INSUNITS
 70
     4
  9
$HYPERLINKBASE
  1

  9
$STYLESHEET
  1

  9
$XEDIT
290
     1
  9
$CEPSNTYPE
380
     0
  9
$PSTYLEMODE
290
     1
  9
$FINGERPRINTGUID
  2
{f014dd10-cbbc-432e-b84d-18c4c536a7c7}
  9
$VERSIONGUID
  2
{FAEB1C32-E019-11D5-929B-00C0DF256EC4}
  9
$EXTNAMES
290
     1
  9
$PSVPSCALE
 40
0.0
  9
$OLESTARTUP
290
     0
  0
ENDSEC
  0
SECTION
  2
CLASSES
  0
CLASS
  1
ACDBDICTIONARYWDFLT
  2
AcDbDictionaryWithDefault
  3
ObjectDBX Classes
 90
        0
280
     0
281
     0
  0
CLASS
  1
VISUALSTYLE
  2
AcDbVisualStyle
  3
ObjectDBX Classes
 90
     4095
280
     0
281
     0
  0
CLASS
  1
MATERIAL
  2
AcDbMaterial
  3
ObjectDBX Classes
 90
     1153
280
     0
281
     0
  0
CLASS
  1
SCALE
  2
AcDbScale
  3
ObjectDBX Classes
 90
     1153
280
     0
281
     0
  0
CLASS
  1
TABLESTYLE
  2
AcDbTableStyle
  3
ObjectDBX Classes
 90
     4095
280
     0
281
     0
  0
CLASS
  1
MLEADERSTYLE
  2
AcDbMLeaderStyle
  3
ACDB_MLEADERSTYLE_CLASS
 90
     4095
280
     0
281
     0
  0
CLASS
  1
SUN
  2
AcDbSun
  3
SCENEOE
 90
     1153
280
     0
281
     0
  0
CLASS
  1
ACDBPLACEHOLDER
  2
AcDbPlaceHolder
  3
ObjectDBX Classes
 90
        0
280
     0
281
     0
  0
CLASS
  1
LAYOUT
  2
AcDbLayout
  3
ObjectDBX Classes
 90
        0
280
     0
281
     0
  0
ENDSEC
  0
SECTION
  2
TABLES
  0
TABLE
  2
VPORT
  5
8
330
0
100
AcDbSymbolTable
 70
     1
  0
VPORT
  5
29
330
8
100
AcDbSymbolTableRecord
100
AcDbViewportTableRecord
  2
*Active
 70
     0
 10
0.0
 20
0.0
 11
1.0
 21
1.0
 12
420.5
 22
297.0
 13
0.0
 23
0.0
 14
10.0
 24
10.0
 15
10.0
 25
10.0
 16
0.0
 26
0.0
 36
1.0
 17
0.0
 27
0.0
 37
0.0
 40
594.0
 41
1.4158249158
 42
50.0
 43
0.0
 44
0.0
 50
0.0
 51
0.0
 71
     0
 72
  2000
 73
     1
 74
     3
 75
     0
 76
     0
 77
     0
 78
     0
281
     0
 65
     1
110
0.0
120
0.0
130
0.0
111
1.0
121
0.0
131
0.0
112
0.0
122
1.0
132
0.0
 79
     0
146
0.0
  0
ENDTAB
  0
TABLE
  2
LTYPE
  5
5
330
0
100
AcDbSymbolTable
 70
     6
  0
LTYPE
  5
14
330
5
100
AcDbSymbolTableRecord
100
AcDbLinetypeTableRecord
  2
ByBlock
 70
     0
  3

 72
    65
 73
     0
 40
0.0
  0
LTYPE
  5
15
330
5
100
AcDbSymbolTableRecord
100
AcDbLinetypeTableRecord
  2
ByLayer
 70
     0
  3

 72
    65
 73
     0
 40
0.0
  0
LTYPE
  5
16
330
5
100
AcDbSymbolTableRecord
100
AcDbLinetypeTableRecord
  2
Continuous
 70
     0
  3
Solid line
 72
    65
 73
     0
 40
0.0
  0
LTYPE
  5
5E
330
5
100
AcDbSymbolTableRecord
100
AcDbLinetypeTableRecord
  2
HIDDEN
 70
     0
  3
Hidden __ __ __ __ __ __ __ __ __ __ __ __ __ __
 72
    65
 73
     2
 40
1.905
 49
1.27
 74
     0
 49
-0.635
 74
     0
  0
LTYPE
  5
5F
330
5
100
AcDbSymbolTableRecord
100
AcDbLinetypeTableRecord
  2
PHANTOM
 70
     0
  3
Phantom ______  __  __  ______  __  __  ______
 72
    65
 73
     6
 40
12.7
 49
6.35
 74
     0
 49
-1.27
 74
     0
 49
1.27
 74
     0
 49
-1.27
 74
     0
 49
1.27
 74
     0
 49
-1.27
 74
     0
  0
LTYPE
  5
60
330
5
100
AcDbSymbolTableRecord
100
AcDbLinetypeTableRecord
  2
CENTER
 70
     0
  3
Center ____ _ ____ _ ____ _ ____ _ ____ _ ____
 72
    65
 73
     4
 40
10.16
 49
6.35
 74
     0
 49
-1.27
 74
     0
 49
1.27
 74
     0
 49
-1.27
 74
     0
  0
LTYPE
  5
61
330
5
100
AcDbSymbolTableRecord
100
AcDbLinetypeTableRecord
  2
CENTERX2
 70
     0
  3
Center (2x) ________  __  ________  __  _____
 72
    65
 73
     4
 40
20.32
 49
12.7
 74
     0
 49
-2.54
 74
     0
 49
2.54
 74
     0
 49
-2.54
 74
     0
  0
LTYPE
  5
62
330
5
100
AcDbSymbolTableRecord
100
AcDbLinetypeTableRecord
  2
DOT2
 70
     0
  3
Dot (.5x) ........................................
 72
    65
 73
     2
 40
0.635
 49
0.0
 74
     0
 49
-0.635
 74
     0
  0
ENDTAB
  0
TABLE
  2
LAYER
  5
2
330
0
100
AcDbSymbolTable
 70
     1
  0
LAYER
  5
10
330
2
100
AcDbSymbolTableRecord
100
AcDbLayerTableRecord
  2
0
 70
     0
 62
     7
  6
Continuous
370
    -3
390
F
  0
ENDTAB
  0
TABLE
  2
STYLE
  5
3
330
0
100
AcDbSymbolTable
 70
     1
  0
STYLE
  5
11
330
3
100
AcDbSymbolTableRecord
100
AcDbTextStyleTableRecord
  2
Standard
 70
     0
 40
0.0
 41
1.0
 50
0.0
 71
     0
 42
3.5
  3
txt
  4
bigfont
  0
ENDTAB
  0
TABLE
  2
VIEW
  5
6
330
0
100
AcDbSymbolTable
 70
     0
  0
ENDTAB
  0
TABLE
  2
UCS
  5
7
330
0
100
AcDbSymbolTable
 70
     0
  0
ENDTAB
  0
TABLE
  2
APPID
  5
9
330
0
100
AcDbSymbolTable
 70
     1
  0
APPID
  5
12
330
9
100
AcDbSymbolTableRecord
100
AcDbRegAppTableRecord
  2
ACAD
 70
     0
  0
ENDTAB
  0
TABLE
  2
DIMSTYLE
  5
A
330
0
100
AcDbSymbolTable
 70
     1
100
AcDbDimStyleTable
  0
DIMSTYLE
105
27
330
A
100
AcDbSymbolTableRecord
100
AcDbDimStyleTableRecord
  2
ISO-25
 70
     0
 41
2.5
 42
0.625
 43
3.75
 44
1.25
 73
     0
 74
     0
 77
     1
 78
     8
140
2.5
141
2.5
143
0.0393700787
147
0.625
171
     3
172
     1
178
     0
271
     2
272
     2
274
     3
278
    44
283
     0
284
     8
340
11
  0
ENDTAB
  0
TABLE
  2
BLOCK_RECORD
  5
1
330
0
100
AcDbSymbolTable
 70
     1
  0
BLOCK_RECORD
  5
1F
330
1
100
AcDbSymbolTableRecord
100
AcDbBlockTableRecord
  2
*Model_Space
340
22
  0
BLOCK_RECORD
  5
1B
330
1
100
AcDbSymbolTableRecord
100
AcDbBlockTableRecord
  2
*Paper_Space
340
1E
  0
BLOCK_RECORD
  5
23
330
1
100
AcDbSymbolTableRecord
100
AcDbBlockTableRecord
  2
*Paper_Space0
340
26
  0
ENDTAB
  0
ENDSEC
  0
SECTION
  2
BLOCKS
  0
BLOCK
  5
20
330
1F
100
AcDbEntity
  8
0
100
AcDbBlockBegin
  2
*Model_Space
 70
     0
 10
0.0
 20
0.0
 30
0.0
  3
*Model_Space
  1

  0
ENDBLK
  5
21
330
1F
100
AcDbEntity
  8
0
100
AcDbBlockEnd
  0
BLOCK
  5
1C
330
1B
100
AcDbEntity
 67
     1
  8
0
100
AcDbBlockBegin
  2
*Paper_Space
 70
     0
 10
0.0
 20
0.0
 30
0.0
  3
*Paper_Space
  1

  0
ENDBLK
  5
1D
330
1B
100
AcDbEntity
 67
     1
  8
0
100
AcDbBlockEnd
  0
BLOCK
  5
24
330
23
100
AcDbEntity
  8
0
100
AcDbBlockBegin
  2
*Paper_Space0
 70
     0
 10
0.0
 20
0.0
 30
0.0
  3
*Paper_Space0
  1

  0
ENDBLK
  5
25
330
23
100
AcDbEntity
  8
0
100
AcDbBlockEnd
  0
ENDSEC
  0
SECTION
  2
ENTITIES
  0
ARC
  5
63
330
1F
100
AcDbEntity
  8
0
  6
Continuous
 62
     7
370
    25
100
AcDbCircle
 10
312.346253685
 20
229.4979920518
 30
0.0
 40
2.5
100
AcDbArc
 50
180.0
 51
0.0
  0
ARC
  5
64
330
1F
100
AcDbEntity
  8
0
  6
Continuous
 62
     7
370
    25
100
AcDbCircle
 10
257.046253685
 20
222.3979920518
 30
0.0
 40
3.500000000000028
100
AcDbArc
 50
90.0
 51
180.0
  0
ARC
  5
65
330
1F
100
AcDbEntity
  8
0
  6
Continuous
 62
     7
370
    25
100
AcDbCircle
 10
371.046253685
 20
199.2979920518
 30
0.0
 40
2.5
100
AcDbArc
 50
180.0
 51
0.0
  0
ARC
  5
66
330
1F
100
AcDbEntity
  8
0
  6
Continuous
 62
     7
370
    25
100
AcDbCircle
 10
391.046253685
 20
222.3979920518
 30
0.0
 40
3.5
100
AcDbArc
 50
90.0
 51
180.0
  0
ARC
  5
67
330
1F
100
AcDbEntity
  8
0
  6
Continuous
 62
     7
370
    25
100
AcDbCircle
 10
406.046253685
 20
199.3979920518
 30
0.0
 40
5.0
100
AcDbArc
 50
270.0
 51
0.0
  0
LINE
  5
68
330
1F
100
AcDbEntity
  8
0
  6
Continuous
 62
     7
370
    25
100
AcDbLine
 10
411.046253685
 20
199.3979920518
 30
0.0
 11
411.046253685
 21
229.3979920518
 31
0.0
  0
ARC
  5
69
330
1F
100
AcDbEntity
  8
0
  6
Continuous
 62
     7
370
    25
100
AcDbCircle
 10
406.046253685
 20
229.3979920518
 30
0.0
 40
5.000000000000028
100
AcDbArc
 50
0.0
 51
90.0
  0
LINE
  5
6A
330
1F
100
AcDbEntity
  8
0
  6
Continuous
 62
     7
370
    25
100
AcDbLine
 10
406.046253685
 20
234.3979920518
 30
0.0
 11
252.046253685
 21
234.3979920518
 31
0.0
  0
ARC
  5
6B
330
1F
100
AcDbEntity
  8
0
  6
Continuous
 62
     7
370
    25
100
AcDbCircle
 10
252.046253685
 20
229.3979920518
 30
0.0
 40
5.000000000000028
100
AcDbArc
 50
90.0
 51
180.0
  0
LINE
  5
6C
330
1F
100
AcDbEntity
  8
0
  6
Continuous
 62
     7
370
    25
100
AcDbLine
 10
247.046253685
 20
229.3979920518
 30
0.0
 11
247.046253685
 21
199.3979920518
 31
0.0
  0
ARC
  5
6D
330
1F
100
AcDbEntity
  8
0
  6
Continuous
 62
     7
370
    25
100
AcDbCircle
 10
252.046253685
 20
199.3979920518
 30
0.0
 40
5.0
100
AcDbArc
 50
180.0
 51
270.0
  0
LINE
  5
6E
330
1F
100
AcDbEntity
  8
0
  6
Continuous
 62
     7
370
    25
100
AcDbLine
 10
252.046253685
 20
194.3979920518
 30
0.0
 11
406.046253685
 21
194.3979920518
 31
0.0
  0
ARC
  5
6F
330
1F
100
AcDbEntity
  8
0
  6
Continuous
 62
     7
370
    25
100
AcDbCircle
 10
257.046253685
 20
222.3979920518
 30
0.0
 40
3.500000000000028
100
AcDbArc
 50
180.0
 51
270.0
  0
LINE
  5
70
330
1F
100
AcDbEntity
  8
0
  6
Continuous
 62
     7
370
    25
100
AcDbLine
 10
257.046253685
 20
218.8979920518
 30
0.0
 11
267.046253685
 21
218.8979920518
 31
0.0
  0
ARC
  5
71
330
1F
100
AcDbEntity
  8
0
  6
Continuous
 62
     7
370
    25
100
AcDbCircle
 10
267.046253685
 20
222.3979920518
 30
0.0
 40
3.5
100
AcDbArc
 50
270.0
 51
90.0
  0
LINE
  5
72
330
1F
100
AcDbEntity
  8
0
  6
Continuous
 62
     7
370
    25
100
AcDbLine
 10
267.046253685
 20
225.8979920518
 30
0.0
 11
257.046253685
 21
225.8979920518
 31
0.0
  0
ARC
  5
73
330
1F
100
AcDbEntity
  8
0
  6
Continuous
 62
     7
370
    25
100
AcDbCircle
 10
401.046253685
 20
222.3979920518
 30
0.0
 40
3.5
100
AcDbArc
 50
270.0
 51
90.0
  0
LINE
  5
74
330
1F
100
AcDbEntity
  8
0
  6
Continuous
 62
     7
370
    25
100
AcDbLine
 10
401.046253685
 20
225.8979920518
 30
0.0
 11
391.046253685
 21
225.8979920518
 31
0.0
  0
ARC
  5
75
330
1F
100
AcDbEntity
  8
0
  6
Continuous
 62
     7
370
    25
100
AcDbCircle
 10
391.046253685
 20
222.3979920518
 30
0.0
 40
3.5
100
AcDbArc
 50
180.0
 51
270.0
  0
LINE
  5
76
330
1F
100
AcDbEntity
  8
0
  6
Continuous
 62
     7
370
    25
100
AcDbLine
 10
391.046253685
 20
218.8979920518
 30
0.0
 11
401.046253685
 21
218.8979920518
 31
0.0
  0
ARC
  5
77
330
1F
100
AcDbEntity
  8
0
  6
Continuous
 62
     7
370
    25
100
AcDbCircle
 10
312.346253685
 20
229.4979920518
 30
0.0
 40
2.5
100
AcDbArc
 50
0.0
 51
180.0
  0
ARC
  5
78
330
1F
100
AcDbEntity
  8
0
  6
Continuous
 62
     7
370
    25
100
AcDbCircle
 10
371.046253685
 20
199.2979920518
 30
0.0
 40
2.5
100
AcDbArc
 50
0.0
 51
180.0
  0
LINE
  5
79
330
1F
100
AcDbEntity
  8
0
  6
Continuous
 62
     7
370
    25
100
AcDbLine
 10
252.046253685
 20
346.63
 30
0.0
 11
247.046253685
 21
346.63
 31
0.0
  0
LINE
  5
7A
330
1F
100
AcDbEntity
  8
0
  6
Continuous
 62
     7
370
    25
100
AcDbLine
 10
247.046253685
 20
346.63
 30
0.0
 11
247.046253685
 21
351.13
 31
0.0
  0
LINE
  5
7B
330
1F
100
AcDbEntity
  8
0
  6
Continuous
 62
     7
370
    25
100
AcDbLine
 10
252.046253685
 20
351.13
 30
0.0
 11
247.046253685
 21
351.13
 31
0.0
  0
LINE
  5
7C
330
1F
100
AcDbEntity
  8
0
  6
Continuous
 62
     7
370
    25
100
AcDbLine
 10
406.046253685
 20
346.63
 30
0.0
 11
252.046253685
 21
346.63
 31
0.0
  0
LINE
  5
7D
330
1F
100
AcDbEntity
  8
0
  6
Continuous
 62
     7
370
    25
100
AcDbLine
 10
406.046253685
 20
351.13
 30
0.0
 11
252.046253685
 21
351.13
 31
0.0
  0
LINE
  5
7E
330
1F
100
AcDbEntity
  8
0
  6
Continuous
 62
     7
370
    25
100
AcDbLine
 10
411.046253685
 20
346.63
 30
0.0
 11
411.046253685
 21
351.13
 31
0.0
  0
LINE
  5
7F
330
1F
100
AcDbEntity
  8
0
  6
Continuous
 62
     7
370
    25
100
AcDbLine
 10
411.046253685
 20
346.63
 30
0.0
 11
406.046253685
 21
346.63
 31
0.0
  0
LINE
  5
80
330
1F
100
AcDbEntity
  8
0
  6
Continuous
 62
     7
370
    25
100
AcDbLine
 10
411.046253685
 20
351.13
 30
0.0
 11
406.046253685
 21
351.13
 31
0.0
  0
LINE
  5
81
330
1F
100
AcDbEntity
  8
0
  6
HIDDEN
 62
     7
370
    18
100
AcDbLine
 10
309.846253685
 20
346.63
 30
0.0
 11
309.846253685
 21
351.13
 31
0.0
  0
LINE
  5
82
330
1F
100
AcDbEntity
  8
0
  6
HIDDEN
 62
     7
370
    18
100
AcDbLine
 10
314.846253685
 20
346.63
 30
0.0
 11
314.846253685
 21
351.13
 31
0.0
  0
LINE
  5
83
330
1F
100
AcDbEntity
  8
0
  6
HIDDEN
 62
     7
370
    18
100
AcDbLine
 10
253.546253685
 20
346.63
 30
0.0
 11
253.546253685
 21
351.13
 31
0.0
  0
LINE
  5
84
330
1F
100
AcDbEntity
  8
0
  6
HIDDEN
 62
     7
370
    18
100
AcDbLine
 10
387.546253685
 20
346.63
 30
0.0
 11
387.546253685
 21
351.13
 31
0.0
  0
LINE
  5
85
330
1F
100
AcDbEntity
  8
0
  6
HIDDEN
 62
     7
370
    18
100
AcDbLine
 10
368.546253685
 20
346.63
 30
0.0
 11
368.546253685
 21
351.13
 31
0.0
  0
LINE
  5
86
330
1F
100
AcDbEntity
  8
0
  6
HIDDEN
 62
     7
370
    18
100
AcDbLine
 10
373.546253685
 20
346.63
 30
0.0
 11
373.546253685
 21
351.13
 31
0.0
  0
LINE
  5
87
330
1F
100
AcDbEntity
  8
0
  6
HIDDEN
 62
     7
370
    18
100
AcDbLine
 10
404.546253685
 20
346.63
 30
0.0
 11
404.546253685
 21
351.13
 31
0.0
  0
LINE
  5
88
330
1F
100
AcDbEntity
  8
0
  6
HIDDEN
 62
     7
370
    18
100
AcDbLine
 10
270.546253685
 20
346.63
 30
0.0
 11
270.546253685
 21
351.13
 31
0.0
  0
LINE
  5
89
330
1F
100
AcDbEntity
  8
0
  6
Continuous
 62
     7
370
    25
100
AcDbLine
 10
532.13
 20
199.3979920518
 30
0.0
 11
532.13
 21
229.3979920518
 31
0.0
  0
LINE
  5
8A
330
1F
100
AcDbEntity
  8
0
  6
Continuous
 62
     7
370
    25
100
AcDbLine
 10
536.63
 20
199.3979920518
 30
0.0
 11
536.63
 21
229.3979920518
 31
0.0
  0
LINE
  5
8B
330
1F
100
AcDbEntity
  8
0
  6
Continuous
 62
     7
370
    25
100
AcDbLine
 10
532.13
 20
194.3979920518
 30
0.0
 11
536.63
 21
194.3979920518
 31
0.0
  0
LINE
  5
8C
330
1F
100
AcDbEntity
  8
0
  6
Continuous
 62
     7
370
    25
100
AcDbLine
 10
532.13
 20
194.3979920518
 30
0.0
 11
532.13
 21
199.3979920518
 31
0.0
  0
LINE
  5
8D
330
1F
100
AcDbEntity
  8
0
  6
Continuous
 62
     7
370
    25
100
AcDbLine
 10
536.63
 20
194.3979920518
 30
0.0
 11
536.63
 21
199.3979920518
 31
0.0
  0
LINE
  5
8E
330
1F
100
AcDbEntity
  8
0
  6
Continuous
 62
     7
370
    25
100
AcDbLine
 10
532.13
 20
229.3979920518
 30
0.0
 11
532.13
 21
234.3979920518
 31
0.0
  0
LINE
  5
8F
330
1F
100
AcDbEntity
  8
0
  6
Continuous
 62
     7
370
    25
100
AcDbLine
 10
532.13
 20
234.3979920518
 30
0.0
 11
536.63
 21
234.3979920518
 31
0.0
  0
LINE
  5
90
330
1F
100
AcDbEntity
  8
0
  6
Continuous
 62
     7
370
    25
100
AcDbLine
 10
536.63
 20
229.3979920518
 30
0.0
 11
536.63
 21
234.3979920518
 31
0.0
  0
LINE
  5
91
330
1F
100
AcDbEntity
  8
0
  6
HIDDEN
 62
     7
370
    18
100
AcDbLine
 10
532.13
 20
225.8979920518
 30
0.0
 11
536.63
 21
225.8979920518
 31
0.0
  0
LINE
  5
92
330
1F
100
AcDbEntity
  8
0
  6
HIDDEN
 62
     7
370
    18
100
AcDbLine
 10
532.13
 20
218.8979920518
 30
0.0
 11
536.63
 21
218.8979920518
 31
0.0
  0
LINE
  5
93
330
1F
100
AcDbEntity
  8
0
  6
HIDDEN
 62
     7
370
    18
100
AcDbLine
 10
536.63
 20
201.7979920518
 30
0.0
 11
532.13
 21
201.7979920518
 31
0.0
  0
LINE
  5
94
330
1F
100
AcDbEntity
  8
0
  6
HIDDEN
 62
     7
370
    18
100
AcDbLine
 10
532.13
 20
196.7979920518
 30
0.0
 11
536.63
 21
196.7979920518
 31
0.0
  0
LINE
  5
95
330
1F
100
AcDbEntity
  8
0
  6
HIDDEN
 62
     7
370
    18
100
AcDbLine
 10
536.63
 20
231.9979920518
 30
0.0
 11
532.13
 21
231.9979920518
 31
0.0
  0
LINE
  5
96
330
1F
100
AcDbEntity
  8
0
  6
HIDDEN
 62
     7
370
    18
100
AcDbLine
 10
532.13
 20
226.9979920518
 30
0.0
 11
536.63
 21
226.9979920518
 31
0.0
  0
LINE
  5
97
330
1F
100
AcDbEntity
  8
0
  6
Continuous
 62
     7
370
    25
100
AcDbLine
 10
589.7360287253
 20
299.9514720788
 30
0.0
 11
592.9180092406
 21
301.7883903304
 31
0.0
  0
LINE
  5
98
330
1F
100
AcDbEntity
  8
0
  6
Continuous
 62
     7
370
    25
100
AcDbLine
 10
479.0239712747
 20
397.8085279212
 30
0.0
 11
475.8419907594
 21
395.9716096696
 31
0.0
  0
ARC
  5
99
330
1F
100
AcDbEntity
  8
0
  6
Continuous
 62
     7
370
    25
100
AcDbCircle
 10
583.1504677034
 20
326.4192448461
 30
0.0
 40
7.627915997973344
100
AcDbArc
 50
2.3868561234
 51
57.6131440222
  0
ARC
  5
9A
330
1F
100
AcDbEntity
  8
0
  6
Continuous
 62
     7
370
    25
100
AcDbCircle
 10
586.3324482187
 20
328.2561630977
 30
0.0
 40
7.627915997973114
100
AcDbArc
 50
2.3868561234
 51
57.6131440222
  0
LINE
  5
9B
330
1F
100
AcDbEntity
  8
0
  6
Continuous
 62
     7
370
    25
100
AcDbLine
 10
478.341787591
 20
363.0624369417
 30
0.0
 11
587.2362318937
 21
300.1990123313
 31
0.0
  0
ARC
  5
9C
330
1F
100
AcDbEntity
  8
0
  6
Continuous
 62
     7
370
    25
100
AcDbCircle
 10
482.4275517813
 20
369.5038369023
 30
0.0
 40
7.627915997973769
100
AcDbArc
 50
182.3868561234
 51
237.6131440222
  0
LINE
  5
9D
330
1F
100
AcDbEntity
  8
0
  6
Continuous
 62
     7
370
    25
100
AcDbLine
 10
474.806253685
 20
393.6823856372
 30
0.0
 11
474.806253685
 21
369.1861612806
 31
0.0
  0
LWPOLYLINE
  5
9E
330
1F
100
AcDbEntity
  8
0
  6
Continuous
 62
     7
370
    25
100
AcDbPolyline
 90
       11
 70
   128
 43
0.0
 10
478.341787591
 20
395.7240694171
 10
477.7887082358
 20
395.9930904708
 10
477.2492475298
 20
396.1549576097
 10
476.7366887862
 20
396.2056851276
 10
476.2636529021
 20
396.1440239447
 10
475.841787591
 20
395.9714923639
 10
475.4814805769
 20
395.6923386853
 10
475.1916038143
 20
395.313436599
 10
474.9792950311
 20
394.8441159318
 10
474.8497819743
 20
394.2959329162
 10
474.806253685
 20
393.6823856372
  0
LINE
  5
9F
330
1F
100
AcDbEntity
  8
0
  6
Continuous
 62
     7
370
    25
100
AcDbLine
 10
587.2362318937
 20
332.8606448067
 30
0.0
 11
478.341787591
 21
395.7240694171
 31
0.0
  0
LINE
  5
A0
330
1F
100
AcDbEntity
  8
0
  6
Continuous
 62
     7
370
    25
100
AcDbLine
 10
590.7717657996
 20
302.2406961112
 30
0.0
 11
590.7717657996
 21
326.7369204678
 31
0.0
  0
LWPOLYLINE
  5
A1
330
1F
100
AcDbEntity
  8
0
  6
Continuous
 62
     7
370
    25
100
AcDbPolyline
 90
       11
 70
   128
 43
0.0
 10
587.2362318937
 20
300.1990123313
 10
587.7893112489
 20
299.9299912776
 10
588.3287719548
 20
299.7681241387
 10
588.8413306985
 20
299.7173966208
 10
589.3143665826
 20
299.7790578037
 10
589.7362318937
 20
299.9515893845
 10
590.0965389078
 20
300.2307430631
 10
590.3864156704
 20
300.6096451494
 10
590.5987244535
 20
301.0789658166
 10
590.7282375104
 20
301.6271488322
 10
590.7717657996
 20
302.2406961112
  0
LWPOLYLINE
  5
A2
330
1F
100
AcDbEntity
  8
0
  6
Continuous
 62
     7
370
    25
100
AcDbPolyline
 90
       15
 70
   128
 43
0.0
 10
522.7480934495
 20
366.0878047276
 10
522.7037718412
 20
366.5676346076
 10
522.5730294868
 20
367.0745764536
 10
522.362422354
 20
367.5832100845
 10
522.0825111638
 20
368.0680304862
 10
521.747331832
 20
368.5047267393
 10
521.3736916499
 20
368.8714010703
 10
520.9803264965
 20
369.1496668971
 10
520.5869613431
 20
369.3255708092
 10
520.2133211611
 20
369.3902922499
 10
519.8781418293
 20
369.3405858159
 10
519.598230639
 20
369.1789439954
 10
519.3876235062
 20
368.9134721842
 10
519.2568811518
 20
368.5574822475
 10
519.2125595435
 20
368.1288250072
  0
LWPOLYLINE
  5
A3
330
1F
100
AcDbEntity
  8
0
  6
Continuous
 62
     7
370
    25
100
AcDbPolyline
 90
       15
 70
   128
 43
0.0
 10
519.2125595435
 20
368.1288250072
 10
519.2568811518
 20
367.6489951271
 10
519.3876235062
 20
367.1420532812
 10
519.598230639
 20
366.6334196503
 10
519.8781418293
 20
366.1485992486
 10
520.2133211611
 20
365.7119029954
 10
520.5869613431
 20
365.3452286645
 10
520.9803264965
 20
365.0669628377
 10
521.3736916499
 20
364.8910589256
 10
521.747331832
 20
364.8263374849
 10
522.0825111638
 20
364.8760439189
 10
522.362422354
 20
365.0376857394
 10
522.5730294868
 20
365.3031575506
 10
522.7037718412
 20
365.6591474873
 10
522.7480934495
 20
366.0878047276
  0
LWPOLYLINE
  5
A4
330
1F
100
AcDbEntity
  8
0
  6
Continuous
 62
     7
370
    25
100
AcDbPolyline
 90
       18
 70
   128
 43
0.0
 10
488.9483893088
 20
376.9446259942
 10
489.4031461641
 20
376.7307615062
 10
489.8424168201
 20
376.6215020298
 10
490.2512424415
 20
376.6205682656
 10
490.615700962
 20
376.7279920117
 10
490.923381184
 20
376.9401150814
 10
491.1638054263
 20
377.2497138778
 10
491.3287863299
 20
377.6462453853
 10
491.4127056679
 20
378.116206199
 10
491.4127056679
 20
378.643592367
 10
491.3287863299
 20
379.2104443859
 10
491.1638054263
 20
379.7974587902
 10
490.923381184
 20
380.3846455082
 10
490.615700962
 20
380.9520086005
 10
490.2512424415
 20
381.4802271976
 10
489.8424168201
 20
381.9513134486
 10
489.4031461641
 20
382.3492250763
 10
488.9483893088
 20
382.6604116774
  0
LINE
  5
A5
330
1F
100
AcDbEntity
  8
0
  6
Continuous
 62
     7
370
    25
100
AcDbLine
 10
488.9483893088
 20
382.6604116774
 30
0.0
 11
481.8773214969
 21
386.7424522365
 31
0.0
  0
ARC
  5
A6
330
1F
100
AcDbEntity
  8
0
  6
Continuous
 62
     7
370
    25
100
AcDbCircle
 10
480.9112080487
 20
385.5580187797
 30
0.0
 40
1.528482190999739
100
AcDbArc
 50
50.7967147643
 51
189.2140369905
  0
ARC
  5
A7
330
1F
100
AcDbEntity
  8
0
  6
Continuous
 62
     7
370
    25
100
AcDbCircle
 10
484.7757041175
 20
385.5577865735
 30
0.0
 40
5.378816826502545
100
AcDbArc
 50
182.6054784857
 51
237.39452166
  0
LINE
  5
A8
330
1F
100
AcDbEntity
  8
0
  6
Continuous
 62
     7
370
    25
100
AcDbLine
 10
481.8773214969
 20
381.0266665533
 30
0.0
 11
488.9483893088
 21
376.9446259942
 31
0.0
  0
ARC
  5
A9
330
1F
100
AcDbEntity
  8
0
  6
Continuous
 62
     7
370
    25
100
AcDbCircle
 10
575.6635167277
 20
330.8586752876
 30
0.0
 40
1.528482190999833
100
AcDbArc
 50
50.7967147643
 51
189.2140369905
  0
ARC
  5
AA
330
1F
100
AcDbEntity
  8
0
  6
Continuous
 62
     7
370
    25
100
AcDbCircle
 10
579.5280127965
 20
330.8584430814
 30
0.0
 40
5.378816826502891
100
AcDbArc
 50
182.6054784857
 51
237.39452166
  0
LINE
  5
AB
330
1F
100
AcDbEntity
  8
0
  6
Continuous
 62
     7
370
    25
100
AcDbLine
 10
576.6296301759
 20
326.3273230612
 30
0.0
 11
583.7006979878
 21
322.2452825021
 31
0.0
  0
LWPOLYLINE
  5
AC
330
1F
100
AcDbEntity
  8
0
  6
Continuous
 62
     7
370
    25
100
AcDbPolyline
 90
       18
 70
   128
 43
0.0
 10
583.7006979878
 20
322.2452825021
 10
584.1554548431
 20
322.031418014
 10
584.5947254991
 20
321.9221585377
 10
585.0035511205
 20
321.9212247735
 10
585.368009641
 20
322.0286485196
 10
585.675689863
 20
322.2407715892
 10
585.9161141053
 20
322.5503703856
 10
586.0810950089
 20
322.9469018932
 10
586.1650143469
 20
323.4168627068
 10
586.1650143469
 20
323.9442488749
 10
586.0810950089
 20
324.5111008938
 10
585.9161141053
 20
325.098115298
 10
585.675689863
 20
325.6853020161
 10
585.368009641
 20
326.2526651084
 10
585.0035511205
 20
326.7808837055
 10
584.5947254991
 20
327.2519699565
 10
584.1554548431
 20
327.6498815842
 10
583.7006979878
 20
327.9610681853
  0
LINE
  5
AD
330
1F
100
AcDbEntity
  8
0
  6
Continuous
 62
     7
370
    25
100
AcDbLine
 10
583.7006979878
 20
327.9610681853
 30
0.0
 11
576.6296301759
 21
332.0431087444
 31
0.0
  0
LWPOLYLINE
  5
AE
330
1F
100
AcDbEntity
  8
0
  6
Continuous
 62
     7
370
    25
100
AcDbPolyline
 90
       15
 70
   128
 43
0.0
 10
564.2552615051
 20
317.4666941267
 10
564.2109398968
 20
317.9465240067
 10
564.0801975425
 20
318.4534658526
 10
563.8695904097
 20
318.9620994835
 10
563.5896792194
 20
319.4469198852
 10
563.2544998876
 20
319.8836161384
 10
562.8808597056
 20
320.2502904694
 10
562.4874945522
 20
320.5285562962
 10
562.0941293988
 20
320.7044602082
 10
561.7204892167
 20
320.7691816489
 10
561.3853098849
 20
320.7194752149
 10
561.1053986947
 20
320.5578333944
 10
560.8947915618
 20
320.2923615833
 10
560.7640492075
 20
319.9363716466
 10
560.7197275992
 20
319.5077144062
  0
LWPOLYLINE
  5
AF
330
1F
100
AcDbEntity
  8
0
  6
Continuous
 62
     7
370
    25
100
AcDbPolyline
 90
       15
 70
   128
 43
0.0
 10
560.7197275992
 20
319.5077144062
 10
560.7640492075
 20
319.0278845262
 10
560.8947915618
 20
318.5209426803
 10
561.1053986947
 20
318.0123090494
 10
561.3853098849
 20
317.5274886477
 10
561.7204892167
 20
317.0907923945
 10
562.0941293988
 20
316.7241180635
 10
562.4874945522
 20
316.4458522367
 10
562.8808597056
 20
316.2699483247
 10
563.2544998876
 20
316.205226884
 10
563.5896792194
 20
316.254933318
 10
563.8695904097
 20
316.4165751385
 10
564.0801975425
 20
316.6820469496
 10
564.2109398968
 20
317.0380368863
 10
564.2552615051
 20
317.4666941267
  0
LINE
  5
B0
330
1F
100
AcDbEntity
  8
0
  6
Continuous
 62
     7
370
    25
100
AcDbLine
 10
593.953746315
 20
304.0776143628
 30
0.0
 11
593.953746315
 21
328.5738387194
 31
0.0
  0
LINE
  5
B1
330
1F
100
AcDbEntity
  8
0
  6
Continuous
 62
     7
370
    25
100
AcDbLine
 10
590.418212409
 20
334.6975630583
 30
0.0
 11
481.5237681063
 21
397.5609876687
 31
0.0
  0
LINE
  5
B2
330
1F
100
AcDbEntity
  8
0
  6
Continuous
 62
     7
370
    25
100
AcDbLine
 10
579.8116106912
 20
328.1642413128
 30
0.0
 11
586.0725603467
 21
324.5498720107
 31
0.0
  0
ARC
  5
B3
330
1F
100
AcDbEntity
  8
0
  6
Continuous
 62
     7
370
    25
100
AcDbCircle
 10
582.7408698015
 20
332.7312007667
 30
0.0
 40
5.425649969292853
100
AcDbArc
 50
192.2992971464
 51
237.3237869352
  0
ARC
  5
B4
330
1F
100
AcDbEntity
  8
0
  6
Continuous
 62
     7
370
    25
100
AcDbCircle
 10
591.5153803461
 20
303.8019126686
 30
0.0
 40
2.453903018084691
100
AcDbArc
 50
304.8612461144
 51
6.450934279
  0
ARC
  5
B5
330
1F
100
AcDbEntity
  8
0
  6
Continuous
 62
     7
370
    25
100
AcDbCircle
 10
480.0617440402
 20
395.542596982
 30
0.0
 40
2.492271119693379
100
AcDbArc
 50
54.0822552047
 51
114.6072863662
  0
LINE
  5
B6
330
1F
100
AcDbEntity
  8
0
  6
Continuous
 62
     7
370
    25
100
AcDbLine
 10
485.0593020122
 20
382.8635848049
 30
0.0
 11
491.3202516677
 21
379.2492155028
 31
0.0
  0
ARC
  5
B7
330
1F
100
AcDbEntity
  8
0
  6
Continuous
 62
     7
370
    25
100
AcDbCircle
 10
487.9885611225
 20
387.4305442589
 30
0.0
 40
5.425649969292104
100
AcDbArc
 50
192.2992971464
 51
237.3237869352
  0
LWPOLYLINE
  5
B8
330
1F
100
AcDbEntity
  8
0
  6
HIDDEN
 62
     7
370
    18
100
AcDbPolyline
 90
       18
 70
   128
 43
0.0
 10
586.8826785031
 20
324.0822007537
 10
587.3374353584
 20
323.8683362656
 10
587.7767060144
 20
323.7590767893
 10
588.1855316358
 20
323.7581430251
 10
588.5499901564
 20
323.8655667712
 10
588.8576703783
 20
324.0776898408
 10
589.0980946207
 20
324.3872886372
 10
589.2630755242
 20
324.7838201448
 10
589.3469948622
 20
325.2537809584
 10
589.3469948622
 20
325.7811671265
 10
589.2630755242
 20
326.3480191454
 10
589.0980946207
 20
326.9350335497
 10
588.8576703783
 20
327.5222202677
 10
588.5499901564
 20
328.08958336
 10
588.1855316358
 20
328.6178019571
 10
587.7767060144
 20
329.0888882081
 10
587.3374353584
 20
329.4867998358
 10
586.8826785031
 20
329.7979864369
  0
LINE
  5
B9
330
1F
100
AcDbEntity
  8
0
  6
HIDDEN
 62
     7
370
    18
100
AcDbLine
 10
586.8826785031
 20
329.7979864369
 30
0.0
 11
579.8116106912
 21
333.880026996
 31
0.0
  0
LINE
  5
BA
330
1F
100
AcDbEntity
  8
0
  6
HIDDEN
 62
     7
370
    18
100
AcDbLine
 10
586.0725603467
 20
324.5498720107
 30
0.0
 11
586.8826785031
 21
324.0822007537
 31
0.0
  0
ARC
  5
BB
330
1F
100
AcDbEntity
  8
0
  6
HIDDEN
 62
     7
370
    18
100
AcDbCircle
 10
578.8454972431
 20
332.6955935392
 30
0.0
 40
1.528482190999739
100
AcDbArc
 50
50.7967147643
 51
189.2140369905
  0
LWPOLYLINE
  5
BC
330
1F
100
AcDbEntity
  8
0
  6
HIDDEN
 62
     7
370
    18
100
AcDbPolyline
 90
        3
 70
   128
 43
0.0
 10
577.3367369571
 20
332.4508483501
 10
577.3842909619
 20
331.8658487727
 10
577.4397483323
 20
331.5754374874
  0
ARC
  5
BD
330
1F
100
AcDbEntity
  8
0
  6
HIDDEN
 62
     7
370
    18
100
AcDbCircle
 10
591.8802364751
 20
304.0543212696
 30
0.0
 40
2.492271119692855
100
AcDbArc
 50
234.0822552047
 51
294.6072863662
  0
LINE
  5
BE
330
1F
100
AcDbEntity
  8
0
  6
HIDDEN
 62
     7
370
    18
100
AcDbLine
 10
481.5237681063
 20
364.8993551933
 30
0.0
 11
590.418212409
 21
302.0359305829
 31
0.0
  0
LWPOLYLINE
  5
BF
330
1F
100
AcDbEntity
  8
0
  6
HIDDEN
 62
     7
370
    18
100
AcDbPolyline
 90
       15
 70
   128
 43
0.0
 10
567.4372420205
 20
319.3036123783
 10
567.3929204122
 20
319.7834422583
 10
567.2621780578
 20
320.2903841042
 10
567.051570925
 20
320.7990177351
 10
566.7716597347
 20
321.2838381368
 10
566.4364804029
 20
321.72053439
 10
566.0628402209
 20
322.087208721
 10
565.6694750675
 20
322.3654745478
 10
565.2761099141
 20
322.5413784598
 10
564.9024697321
 20
322.6060999005
 10
564.5672904003
 20
322.5563934665
 10
564.28737921
 20
322.394751646
 10
564.0767720772
 20
322.1292798349
 10
563.9460297228
 20
321.7732898982
 10
563.9017081145
 20
321.3446326578
  0
LWPOLYLINE
  5
C0
330
1F
100
AcDbEntity
  8
0
  6
HIDDEN
 62
     7
370
    18
100
AcDbPolyline
 90
       15
 70
   128
 43
0.0
 10
563.9017081145
 20
321.3446326578
 10
563.9460297228
 20
320.8648027778
 10
564.0767720772
 20
320.3578609319
 10
564.28737921
 20
319.849227301
 10
564.5672904003
 20
319.3644068993
 10
564.9024697321
 20
318.9277106461
 10
565.2761099141
 20
318.5610363151
 10
565.6694750675
 20
318.2827704883
 10
566.0628402209
 20
318.1068665763
 10
566.4364804029
 20
318.0421451356
 10
566.7716597347
 20
318.0918515696
 10
567.051570925
 20
318.2534933901
 10
567.2621780578
 20
318.5189652012
 10
567.3929204122
 20
318.8749551379
 10
567.4372420205
 20
319.3036123783
  0
LWPOLYLINE
  5
C1
330
1F
100
AcDbEntity
  8
0
  6
HIDDEN
 62
     7
370
    18
100
AcDbPolyline
 90
       15
 70
   128
 43
0.0
 10
525.9300739648
 20
367.9247229792
 10
525.8857523565
 20
368.4045528592
 10
525.7550100022
 20
368.9114947052
 10
525.5444028694
 20
369.4201283361
 10
525.2644916791
 20
369.9049487378
 10
524.9293123473
 20
370.3416449909
 10
524.5556721652
 20
370.7083193219
 10
524.1623070119
 20
370.9865851487
 10
523.7689418585
 20
371.1624890608
 10
523.3953016764
 20
371.2272105015
 10
523.0601223446
 20
371.1775040675
 10
522.7802111544
 20
371.015862247
 10
522.5696040215
 20
370.7503904358
 10
522.4388616672
 20
370.3944004991
 10
522.3945400589
 20
369.9657432588
  0
LWPOLYLINE
  5
C2
330
1F
100
AcDbEntity
  8
0
  6
HIDDEN
 62
     7
370
    18
100
AcDbPolyline
 90
       15
 70
   128
 43
0.0
 10
522.3945400589
 20
369.9657432588
 10
522.4388616672
 20
369.4859133787
 10
522.5696040215
 20
368.9789715328
 10
522.7802111544
 20
368.4703379019
 10
523.0601223446
 20
367.9855175002
 10
523.3953016764
 20
367.548821247
 10
523.7689418585
 20
367.1821469161
 10
524.1623070119
 20
366.9038810893
 10
524.5556721652
 20
366.7279771772
 10
524.9293123473
 20
366.6632557365
 10
525.2644916791
 20
366.7129621705
 10
525.5444028694
 20
366.874603991
 10
525.7550100022
 20
367.1400758022
 10
525.8857523565
 20
367.4960657389
 10
525.9300739648
 20
367.9247229792
  0
LWPOLYLINE
  5
C3
330
1F
100
AcDbEntity
  8
0
  6
HIDDEN
 62
     7
370
    18
100
AcDbPolyline
 90
       18
 70
   128
 43
0.0
 10
492.1303698241
 20
378.7815442458
 10
492.5851266794
 20
378.5676797578
 10
493.0243973354
 20
378.4584202814
 10
493.4332229568
 20
378.4574865172
 10
493.7976814774
 20
378.5649102633
 10
494.1053616993
 20
378.777033333
 10
494.3457859417
 20
379.0866321294
 10
494.5107668452
 20
379.4831636369
 10
494.5946861832
 20
379.9531244506
 10
494.5946861832
 20
380.4805106186
 10
494.5107668452
 20
381.0473626375
 10
494.3457859417
 20
381.6343770418
 10
494.1053616993
 20
382.2215637598
 10
493.7976814774
 20
382.7889268521
 10
493.4332229568
 20
383.3171454492
 10
493.0243973354
 20
383.7882317002
 10
492.5851266794
 20
384.1861433279
 10
492.1303698241
 20
384.497329929
  0
LINE
  5
C4
330
1F
100
AcDbEntity
  8
0
  6
HIDDEN
 62
     7
370
    18
100
AcDbLine
 10
492.1303698241
 20
384.497329929
 30
0.0
 11
485.0593020122
 21
388.5793704881
 31
0.0
  0
ARC
  5
C5
330
1F
100
AcDbEntity
  8
0
  6
HIDDEN
 62
     7
370
    18
100
AcDbCircle
 10
480.4266001695
 20
395.7950055828
 30
0.0
 40
2.453903018341416
100
AcDbArc
 50
124.861246118
 51
186.4509342754
  0
LINE
  5
C6
330
1F
100
AcDbEntity
  8
0
  6
HIDDEN
 62
     7
370
    18
100
AcDbLine
 10
491.3202516677
 20
379.2492155028
 30
0.0
 11
492.1303698241
 21
378.7815442458
 31
0.0
  0
ARC
  5
C7
330
1F
100
AcDbEntity
  8
0
  6
HIDDEN
 62
     7
370
    18
100
AcDbCircle
 10
484.0931885641
 20
387.3949370313
 30
0.0
 40
1.528482190999673
100
AcDbArc
 50
50.7967147643
 51
189.2140369905
  0
LWPOLYLINE
  5
C8
330
1F
100
AcDbEntity
  8
0
  6
HIDDEN
 62
     7
370
    18
100
AcDbPolyline
 90
        3
 70
   128
 43
0.0
 10
482.5844282781
 20
387.1501918422
 10
482.6319822829
 20
386.5651922648
 10
482.6874396533
 20
386.2747809795
  0
LINE
  5
C9
330
1F
100
AcDbEntity
  8
0
  6
HIDDEN
 62
     7
370
    18
100
AcDbLine
 10
477.9882342004
 20
395.5193038888
 30
0.0
 11
477.9882342004
 21
371.0230795322
 31
0.0
  0
ARC
  5
CA
330
1F
100
AcDbEntity
  8
0
  6
HIDDEN
 62
     7
370
    18
100
AcDbCircle
 10
485.6095322966
 20
371.3407551539
 30
0.0
 40
7.62791599797313
100
AcDbArc
 50
182.3868561234
 51
237.6131440222
  0
LINE
  5
CB
330
1F
100
AcDbEntity
  8
0
  6
HIDDEN
 62
     7
370
    18
100
AcDbLine
 10
585.4505557699
 20
322.0720043253
 30
0.0
 11
588.6325362852
 21
323.9089225769
 31
0.0
  0
LINE
  5
CC
330
1F
100
AcDbEntity
  8
0
  6
HIDDEN
 62
     7
370
    18
100
AcDbLine
 10
578.0617529091
 20
334.0533051727
 30
0.0
 11
574.8797723938
 21
332.2163869211
 31
0.0
  0
LINE
  5
CD
330
1F
100
AcDbEntity
  8
0
  6
HIDDEN
 62
     7
370
    18
100
AcDbLine
 10
564.4195766517
 20
322.489244674
 30
0.0
 11
561.2375961364
 21
320.6523264224
 31
0.0
  0
LINE
  5
CE
330
1F
100
AcDbEntity
  8
0
  6
HIDDEN
 62
     7
370
    18
100
AcDbLine
 10
563.737392968
 20
316.3220821105
 30
0.0
 11
566.9193734833
 21
318.1590003621
 31
0.0
  0
LINE
  5
CF
330
1F
100
AcDbEntity
  8
0
  6
HIDDEN
 62
     7
370
    18
100
AcDbLine
 10
522.9124085961
 20
371.1103552749
 30
0.0
 11
519.7304280807
 21
369.2734370233
 31
0.0
  0
LINE
  5
D0
330
1F
100
AcDbEntity
  8
0
  6
HIDDEN
 62
     7
370
    18
100
AcDbLine
 10
522.2302249123
 20
364.9431927114
 30
0.0
 11
525.4122054276
 21
366.780110963
 31
0.0
  0
LINE
  5
D1
330
1F
100
AcDbEntity
  8
0
  6
HIDDEN
 62
     7
370
    18
100
AcDbLine
 10
490.6982470909
 20
376.7713478175
 30
0.0
 11
493.8802276062
 21
378.6082660691
 31
0.0
  0
LINE
  5
D2
330
1F
100
AcDbEntity
  8
0
  6
HIDDEN
 62
     7
370
    18
100
AcDbLine
 10
483.3094442301
 20
388.7526486648
 30
0.0
 11
480.1274637148
 21
386.9157304132
 31
0.0
  0
ENDSEC
  0
SECTION
  2
OBJECTS
  0
DICTIONARY
  5
C
330
0
100
AcDbDictionary
281
     1
  3
ACAD_GROUP
350
D
  3
ACAD_LAYOUT
350
1A
  3
ACAD_MLINESTYLE
350
17
  3
ACAD_PLOTSETTINGS
350
19
  3
ACAD_PLOTSTYLENAME
350
E
  3
ACAD_SCALELIST
350
47
  3
DWGPROPS
350
D3
  0
DICTIONARY
  5
D
102
{ACAD_REACTORS
330
C
102
}
330
C
100
AcDbDictionary
281
     1
  0
DICTIONARY
  5
1A
102
{ACAD_REACTORS
330
C
102
}
330
C
100
AcDbDictionary
281
     1
  3
Layout1
350
1E
  3
Layout2
350
26
  3
Model
350
22
  0
DICTIONARY
  5
17
102
{ACAD_REACTORS
330
C
102
}
330
C
100
AcDbDictionary
281
     1
  3
Standard
350
18
  0
DICTIONARY
  5
19
102
{ACAD_REACTORS
330
C
102
}
330
C
100
AcDbDictionary
281
     1
  0
ACDBDICTIONARYWDFLT
  5
E
102
{ACAD_REACTORS
330
C
102
}
330
C
100
AcDbDictionary
281
     1
  3
Normal
350
F
100
AcDbDictionaryWithDefault
340
F
  0
DICTIONARY
  5
47
102
{ACAD_REACTORS
330
C
102
}
330
C
100
AcDbDictionary
281
     1
  3
A0
350
48
  3
A1
350
49
  3
A2
350
4A
  3
A3
350
4B
  3
A4
350
4C
  3
A5
350
4D
  3
A6
350
4E
  3
A7
350
4F
  3
A8
350
50
  3
A9
350
51
  3
B0
350
52
  3
B1
350
53
  3
B2
350
54
  3
B3
350
55
  3
B4
350
56
  3
B5
350
57
  3
B6
350
58
  0
XRECORD
  5
D3
102
{ACAD_REACTORS
330
C
102
}
330
C
100
AcDbXrecord
280
     1
  1
DWGPROPS COOKIE
  2

  3

  4

  6

  7

  8
imaizumi
  9

300
=
301
=
302
=
303
=
304
=
305
=
306
=
307
=
308
=
309
=
 40
0.0
 41
2461263.051092338
 42
2461263.051092743
  1

 90
        0
  0
LAYOUT
  5
1E
102
{ACAD_REACTORS
330
1A
102
}
330
1A
100
AcDbPlotSettings
  1

  2
none_device
  4

  6

 40
0.0
 41
0.0
 42
0.0
 43
0.0
 44
0.0
 45
0.0
 46
0.0
 47
0.0
 48
0.0
 49
0.0
140
0.0
141
0.0
142
1.0
143
1.0
 70
   688
 72
     1
 73
     0
 74
     5
  7

 75
    16
147
1.0
148
0.0
149
0.0
100
AcDbLayout
  1
Layout1
 70
     1
 71
     1
 10
0.0
 20
0.0
 11
420.0
 21
297.0
 12
0.0
 22
0.0
 32
0.0
 14
1.0000000000E+20
 24
1.0000000000E+20
 34
1.0000000000E+20
 15
-1.0000000000E+20
 25
-1.0000000000E+20
 35
-1.0000000000E+20
146
0.0
 13
0.0
 23
0.0
 33
0.0
 16
1.0
 26
0.0
 36
0.0
 17
0.0
 27
1.0
 37
0.0
 76
     0
330
1B
  0
LAYOUT
  5
26
102
{ACAD_REACTORS
330
1A
102
}
330
1A
100
AcDbPlotSettings
  1

  2
none_device
  4

  6

 40
0.0
 41
0.0
 42
0.0
 43
0.0
 44
0.0
 45
0.0
 46
0.0
 47
0.0
 48
0.0
 49
0.0
140
0.0
141
0.0
142
1.0
143
1.0
 70
   688
 72
     1
 73
     0
 74
     5
  7

 75
    16
147
1.0
148
0.0
149
0.0
100
AcDbLayout
  1
Layout2
 70
     1
 71
     2
 10
0.0
 20
0.0
 11
0.0
 21
0.0
 12
0.0
 22
0.0
 32
0.0
 14
0.0
 24
0.0
 34
0.0
 15
0.0
 25
0.0
 35
0.0
146
0.0
 13
0.0
 23
0.0
 33
0.0
 16
1.0
 26
0.0
 36
0.0
 17
0.0
 27
1.0
 37
0.0
 76
     0
330
23
  0
LAYOUT
  5
22
102
{ACAD_REACTORS
330
1A
102
}
330
1A
100
AcDbPlotSettings
  1

  2
none_device
  4
Letter_(8.50_x_11.00_Inches)
  6

 40
6.35
 41
6.35
 42
6.35000508
 43
6.35000508
 44
215.9
 45
279.4
 46
0.0
 47
0.0
 48
0.0
 49
0.0
140
0.0
141
0.0
142
1.0
143
1.0
 70
  1712
 72
     1
 73
     0
 74
     0
  7

 75
     0
147
1.0
148
0.0
149
0.0
100
AcDbLayout
  1
Model
 70
     1
 71
     0
 10
0.0
 20
0.0
 11
841.0
 21
594.0
 12
0.0
 22
0.0
 32
0.0
 14
0.0
 24
0.0
 34
0.0
 15
841.0
 25
594.0
 35
0.0
146
0.0
 13
0.0
 23
0.0
 33
0.0
 16
1.0
 26
0.0
 36
0.0
 17
0.0
 27
1.0
 37
0.0
 76
     0
330
1F
331
29
  0
MLINESTYLE
  5
18
102
{ACAD_REACTORS
330
17
102
}
330
17
100
AcDbMlineStyle
  2
Standard
 70
     0
  3

 62
   256
 51
90.0
 52
90.0
 71
     2
 49
0.5
 62
   256
  6
BYLAYER
 49
-0.5
 62
   256
  6
BYLAYER
  0
ACDBPLACEHOLDER
  5
F
102
{ACAD_REACTORS
330
E
102
}
330
E
  0
SCALE
  5
48
102
{ACAD_REACTORS
330
47
102
}
330
47
100
AcDbScale
 70
     0
300
1:1
140
1.0
141
1.0
290
     1
  0
SCALE
  5
49
102
{ACAD_REACTORS
330
47
102
}
330
47
100
AcDbScale
 70
     0
300
1:2
140
1.0
141
2.0
290
     0
  0
SCALE
  5
4A
102
{ACAD_REACTORS
330
47
102
}
330
47
100
AcDbScale
 70
     0
300
1:4
140
1.0
141
4.0
290
     0
  0
SCALE
  5
4B
102
{ACAD_REACTORS
330
47
102
}
330
47
100
AcDbScale
 70
     0
300
1:5
140
1.0
141
5.0
290
     0
  0
SCALE
  5
4C
102
{ACAD_REACTORS
330
47
102
}
330
47
100
AcDbScale
 70
     0
300
1:8
140
1.0
141
8.0
290
     0
  0
SCALE
  5
4D
102
{ACAD_REACTORS
330
47
102
}
330
47
100
AcDbScale
 70
     0
300
1:10
140
1.0
141
10.0
290
     0
  0
SCALE
  5
4E
102
{ACAD_REACTORS
330
47
102
}
330
47
100
AcDbScale
 70
     0
300
1:16
140
1.0
141
16.0
290
     0
  0
SCALE
  5
4F
102
{ACAD_REACTORS
330
47
102
}
330
47
100
AcDbScale
 70
     0
300
1:20
140
1.0
141
20.0
290
     0
  0
SCALE
  5
50
102
{ACAD_REACTORS
330
47
102
}
330
47
100
AcDbScale
 70
     0
300
1:30
140
1.0
141
30.0
290
     0
  0
SCALE
  5
51
102
{ACAD_REACTORS
330
47
102
}
330
47
100
AcDbScale
 70
     0
300
1:40
140
1.0
141
40.0
290
     0
  0
SCALE
  5
52
102
{ACAD_REACTORS
330
47
102
}
330
47
100
AcDbScale
 70
     0
300
1:50
140
1.0
141
50.0
290
     0
  0
SCALE
  5
53
102
{ACAD_REACTORS
330
47
102
}
330
47
100
AcDbScale
 70
     0
300
1:100
140
1.0
141
100.0
290
     0
  0
SCALE
  5
54
102
{ACAD_REACTORS
330
47
102
}
330
47
100
AcDbScale
 70
     0
300
2:1
140
2.0
141
1.0
290
     0
  0
SCALE
  5
55
102
{ACAD_REACTORS
330
47
102
}
330
47
100
AcDbScale
 70
     0
300
4:1
140
4.0
141
1.0
290
     0
  0
SCALE
  5
56
102
{ACAD_REACTORS
330
47
102
}
330
47
100
AcDbScale
 70
     0
300
8:1
140
8.0
141
1.0
290
     0
  0
SCALE
  5
57
102
{ACAD_REACTORS
330
47
102
}
330
47
100
AcDbScale
 70
     0
300
10:1
140
10.0
141
1.0
290
     0
  0
SCALE
  5
58
102
{ACAD_REACTORS
330
47
102
}
330
47
100
AcDbScale
 70
     0
300
100:1
140
100.0
141
1.0
290
     0
  0
ENDSEC
  0
EOF
