  0
SECTION
  2
HEADER
  9
$ACADVER
  1
AC1015
  9
$ACADMAINTVER
 70
     6
  9
$DWGCODEPAGE
  3
DOS932
  9
$INSBASE
 10
0.0
 20
0.0
 30
0.0
  9
$EXTMIN
 10
0.0
 20
0.0
 30
0.0
  9
$EXTMAX
 10
841.0
 20
594.0
 30
0.0
  9
$LIMMIN
 10
0.0
 20
0.0
  9
$LIMMAX
 10
841.0
 20
594.0
  9
$ORTHOMODE
 70
     0
  9
$REGENMODE
 70
     1
  9
$FILLMODE
 70
     1
  9
$QTEXTMODE
 70
     0
  9
$MIRRTEXT
 70
     1
  9
$LTSCALE
 40
1.0
  9
$ATTMODE
 70
     1
  9
$TEXTSIZE
 40
3.5
  9
$TRACEWID
 40
1.0
  9
$TEXTSTYLE
  7
Standard
  9
$CLAYER
  8
0
  9
$CELTYPE
  6
ByLayer
  9
$CECOLOR
 62
   256
  9
$CELTSCALE
 40
1.0
  9
$DISPSILH
 70
     0
  9
$DIMSCALE
 40
1.0
  9
$DIMASZ
 40
3.302
  9
$DIMEXO
 40
1.0
  9
$DIMDLI
 40
3.75
  9
$DIMRND
 40
0.0
  9
$DIMDLE
 40
0.0
  9
$DIMEXE
 40
1.0
  9
$DIMTP
 40
0.0
  9
$DIMTM
 40
0.0
  9
$DIMTXT
 40
3.5
  9
$DIMCEN
 40
2.5
  9
$DIMTSZ
 40
0.0
  9
$DIMTOL
 70
     0
  9
$DIMLIM
 70
     0
  9
$DIMTIH
 70
     1
  9
$DIMTOH
 70
     1
  9
$DIMSE1
 70
     0
  9
$DIMSE2
 70
     0
  9
$DIMTAD
 70
     1
  9
$DIMZIN
 70
     1
  9
$DIMBLK
  1

  9
$DIMASO
 70
     1
  9
$DIMSHO
 70
     1
  9
$DIMPOST
  1

  9
$DIMAPOST
  1

  9
$DIMALT
 70
     0
  9
$DIMALTD
 70
     3
  9
$DIMALTF
 40
0.0393700787
  9
$DIMLFAC
 40
0.2
  9
$DIMTOFL
 70
     1
  9
$DIMTVP
 40
0.0
  9
$DIMTIX
 70
     0
  9
$DIMSOXD
 70
     0
  9
$DIMSAH
 70
     0
  9
$DIMBLK1
  1

  9
$DIMBLK2
  1

  9
$DIMSTYLE
  2
ISO-25
  9
$DIMCLRD
 70
     0
  9
$DIMCLRE
 70
     0
  9
$DIMCLRT
 70
     0
  9
$DIMTFAC
 40
1.0
  9
$DIMGAP
 40
1.524
  9
$DIMJUST
 70
     0
  9
$DIMSD1
 70
     0
  9
$DIMSD2
 70
     0
  9
$DIMTOLJ
 70
     0
  9
$DIMTZIN
 70
     1
  9
$DIMALTZ
 70
     0
  9
$DIMALTTZ
 70
     0
  9
$DIMUPT
 70
     0
  9
$DIMDEC
 70
     2
  9
$DIMTDEC
 70
     2
  9
$DIMALTU
 70
     2
  9
$DIMALTTD
 70
     3
  9
$DIMTXSTY
  7
Standard
  9
$DIMAUNIT
 70
     0
  9
$DIMADEC
 70
     2
  9
$DIMALTRND
 40
0.0
  9
$DIMAZIN
 70
     0
  9
$DIMDSEP
 70
    44
  9
$DIMATFIT
 70
     3
  9
$DIMFRAC
 70
     0
  9
$DIMLDRBLK
  1

  9
$DIMLUNIT
 70
     2
  9
$DIMLWD
 70
    -2
  9
$DIMLWE
 70
    -2
  9
$DIMTMOVE
 70
     0
  9
$LUNITS
 70
     2
  9
$LUPREC
 70
     2
  9
$SKETCHINC
 40
1.0
  9
$FILLETRAD
 40
0.0
  9
$AUNITS
 70
     0
  9
$AUPREC
 70
     2
  9
$MENU
  1
.
  9
$ELEVATION
 40
0.0
  9
$PELEVATION
 40
0.0
  9
$THICKNESS
 40
0.0
  9
$LIMCHECK
 70
     0
  9
$CHAMFERA
 40
0.0
  9
$CHAMFERB
 40
0.0
  9
$CHAMFERC
 40
0.0
  9
$CHAMFERD
 40
0.0
  9
$SKPOLY
 70
     0
  9
$TDCREATE
 40
2461263.428570776
  9
$TDUCREATE
 40
2461263.053570776
  9
$TDUPDATE
 40
2461263.428571065
  9
$TDUUPDATE
 40
2461263.053571065
  9
$TDINDWG
 40
0.0000000116
  9
$TDUSRTIMER
 40
0.0000000116
  9
$USRTIMER
 70
     1
  9
$ANGBASE
 50
0.0
  9
$ANGDIR
 70
     0
  9
$PDMODE
 70
     0
  9
$PDSIZE
 40
-1.0
  9
$PLINEWID
 40
0.0
  9
$SPLFRAME
 70
     0
  9
$SPLINETYPE
 70
     6
  9
$SPLINESEGS
 70
     8
  9
$HANDSEED
  5
9E
  9
$SURFTAB1
 70
     6
  9
$SURFTAB2
 70
     6
  9
$SURFTYPE
 70
     6
  9
$SURFU
 70
     6
  9
$SURFV
 70
     6
  9
$UCSBASE
  2

  9
$UCSNAME
  2

  9
$UCSORG
 10
0.0
 20
0.0
 30
0.0
  9
$UCSXDIR
 10
1.0
 20
0.0
 30
0.0
  9
$UCSYDIR
 10
0.0
 20
1.0
 30
0.0
  9
$UCSORTHOREF
  2

  9
$UCSORTHOVIEW
 70
     0
  9
$UCSORGTOP
 10
0.0
 20
0.0
 30
0.0
  9
$UCSORGBOTTOM
 10
0.0
 20
0.0
 30
0.0
  9
$UCSORGLEFT
 10
0.0
 20
0.0
 30
0.0
  9
$UCSORGRIGHT
 10
0.0
 20
0.0
 30
0.0
  9
$UCSORGFRONT
 10
0.0
 20
0.0
 30
0.0
  9
$UCSORGBACK
 10
0.0
 20
0.0
 30
0.0
  9
$PUCSBASE
  2

  9
$PUCSNAME
  2

  9
$PUCSORG
 10
0.0
 20
0.0
 30
0.0
  9
$PUCSXDIR
 10
1.0
 20
0.0
 30
0.0
  9
$PUCSYDIR
 10
0.0
 20
1.0
 30
0.0
  9
$PUCSORTHOREF
  2

  9
$PUCSORTHOVIEW
 70
     0
  9
$PUCSORGTOP
 10
0.0
 20
0.0
 30
0.0
  9
$PUCSORGBOTTOM
 10
0.0
 20
0.0
 30
0.0
  9
$PUCSORGLEFT
 10
0.0
 20
0.0
 30
0.0
  9
$PUCSORGRIGHT
 10
0.0
 20
0.0
 30
0.0
  9
$PUCSORGFRONT
 10
0.0
 20
0.0
 30
0.0
  9
$PUCSORGBACK
 10
0.0
 20
0.0
 30
0.0
  9
$USERI1
 70
     0
  9
$USERI2
 70
     0
  9
$USERI3
 70
     0
  9
$USERI4
 70
     0
  9
$USERI5
 70
     0
  9
$USERR1
 40
0.0
  9
$USERR2
 40
0.0
  9
$USERR3
 40
0.0
  9
$USERR4
 40
0.0
  9
$USERR5
 40
0.0
  9
$WORLDVIEW
 70
     1
  9
$SHADEDGE
 70
     3
  9
$SHADEDIF
 70
    70
  9
$TILEMODE
 70
     1
  9
$MAXACTVP
 70
    64
  9
$PINSBASE
 10
0.0
 20
0.0
 30
0.0
  9
$PLIMCHECK
 70
     0
  9
$PEXTMIN
 10
1.0000000000E+20
 20
1.0000000000E+20
 30
1.0000000000E+20
  9
$PEXTMAX
 10
-1.0000000000E+20
 20
-1.0000000000E+20
 30
-1.0000000000E+20
  9
$PLIMMIN
 10
0.0
 20
0.0
  9
$PLIMMAX
 10
420.0
 20
297.0
  9
$UNITMODE
 70
     0
  9
$VISRETAIN
 70
     1
  9
$PLINEGEN
 70
     0
  9
$PSLTSCALE
 70
     1
  9
$TREEDEPTH
 70
  3020
  9
$CMLSTYLE
  2
Standard
  9
$CMLJUST
 70
     0
  9
$CMLSCALE
 40
20.0
  9
$PROXYGRAPHICS
 70
     1
  9
$MEASUREMENT
 70
     1
  9
$CELWEIGHT
370
    -1
  9
$ENDCAPS
280
     0
  9
$JOINSTYLE
280
     0
  9
$LWDISPLAY
290
     1
  9
$INSUNITS
 70
     4
  9
$HYPERLINKBASE
  1

  9
$STYLESHEET
  1

  9
$XEDIT
290
     1
  9
$CEPSNTYPE
380
     0
  9
$PSTYLEMODE
290
     1
  9
$FINGERPRINTGUID
  2
{4c3e208e-5909-4ed3-9dc9-a429eef394b5}
  9
$VERSIONGUID
  2
{FAEB1C32-E019-11D5-929B-00C0DF256EC4}
  9
$EXTNAMES
290
     1
  9
$PSVPSCALE
 40
0.0
  9
$OLESTARTUP
290
     0
  0
ENDSEC
  0
SECTION
  2
CLASSES
  0
CLASS
  1
ACDBDICTIONARYWDFLT
  2
AcDbDictionaryWithDefault
  3
ObjectDBX Classes
 90
        0
280
     0
281
     0
  0
CLASS
  1
VISUALSTYLE
  2
AcDbVisualStyle
  3
ObjectDBX Classes
 90
     4095
280
     0
281
     0
  0
CLASS
  1
MATERIAL
  2
AcDbMaterial
  3
ObjectDBX Classes
 90
     1153
280
     0
281
     0
  0
CLASS
  1
SCALE
  2
AcDbScale
  3
ObjectDBX Classes
 90
     1153
280
     0
281
     0
  0
CLASS
  1
TABLESTYLE
  2
AcDbTableStyle
  3
ObjectDBX Classes
 90
     4095
280
     0
281
     0
  0
CLASS
  1
MLEADERSTYLE
  2
AcDbMLeaderStyle
  3
ACDB_MLEADERSTYLE_CLASS
 90
     4095
280
     0
281
     0
  0
CLASS
  1
SUN
  2
AcDbSun
  3
SCENEOE
 90
     1153
280
     0
281
     0
  0
CLASS
  1
ACDBPLACEHOLDER
  2
AcDbPlaceHolder
  3
ObjectDBX Classes
 90
        0
280
     0
281
     0
  0
CLASS
  1
LAYOUT
  2
AcDbLayout
  3
ObjectDBX Classes
 90
        0
280
     0
281
     0
  0
ENDSEC
  0
SECTION
  2
TABLES
  0
TABLE
  2
VPORT
  5
8
330
0
100
AcDbSymbolTable
 70
     1
  0
VPORT
  5
29
330
8
100
AcDbSymbolTableRecord
100
AcDbViewportTableRecord
  2
*Active
 70
     0
 10
0.0
 20
0.0
 11
1.0
 21
1.0
 12
420.5
 22
297.0
 13
0.0
 23
0.0
 14
10.0
 24
10.0
 15
10.0
 25
10.0
 16
0.0
 26
0.0
 36
1.0
 17
0.0
 27
0.0
 37
0.0
 40
594.0
 41
1.4158249158
 42
50.0
 43
0.0
 44
0.0
 50
0.0
 51
0.0
 71
     0
 72
  2000
 73
     1
 74
     3
 75
     0
 76
     0
 77
     0
 78
     0
281
     0
 65
     1
110
0.0
120
0.0
130
0.0
111
1.0
121
0.0
131
0.0
112
0.0
122
1.0
132
0.0
 79
     0
146
0.0
  0
ENDTAB
  0
TABLE
  2
LTYPE
  5
5
330
0
100
AcDbSymbolTable
 70
     6
  0
LTYPE
  5
14
330
5
100
AcDbSymbolTableRecord
100
AcDbLinetypeTableRecord
  2
ByBlock
 70
     0
  3

 72
    65
 73
     0
 40
0.0
  0
LTYPE
  5
15
330
5
100
AcDbSymbolTableRecord
100
AcDbLinetypeTableRecord
  2
ByLayer
 70
     0
  3

 72
    65
 73
     0
 40
0.0
  0
LTYPE
  5
16
330
5
100
AcDbSymbolTableRecord
100
AcDbLinetypeTableRecord
  2
Continuous
 70
     0
  3
Solid line
 72
    65
 73
     0
 40
0.0
  0
LTYPE
  5
5E
330
5
100
AcDbSymbolTableRecord
100
AcDbLinetypeTableRecord
  2
HIDDEN
 70
     0
  3
Hidden __ __ __ __ __ __ __ __ __ __ __ __ __ __
 72
    65
 73
     2
 40
1.905
 49
1.27
 74
     0
 49
-0.635
 74
     0
  0
LTYPE
  5
5F
330
5
100
AcDbSymbolTableRecord
100
AcDbLinetypeTableRecord
  2
PHANTOM
 70
     0
  3
Phantom ______  __  __  ______  __  __  ______
 72
    65
 73
     6
 40
12.7
 49
6.35
 74
     0
 49
-1.27
 74
     0
 49
1.27
 74
     0
 49
-1.27
 74
     0
 49
1.27
 74
     0
 49
-1.27
 74
     0
  0
LTYPE
  5
60
330
5
100
AcDbSymbolTableRecord
100
AcDbLinetypeTableRecord
  2
CENTER
 70
     0
  3
Center ____ _ ____ _ ____ _ ____ _ ____ _ ____
 72
    65
 73
     4
 40
10.16
 49
6.35
 74
     0
 49
-1.27
 74
     0
 49
1.27
 74
     0
 49
-1.27
 74
     0
  0
LTYPE
  5
61
330
5
100
AcDbSymbolTableRecord
100
AcDbLinetypeTableRecord
  2
CENTERX2
 70
     0
  3
Center (2x) ________  __  ________  __  _____
 72
    65
 73
     4
 40
20.32
 49
12.7
 74
     0
 49
-2.54
 74
     0
 49
2.54
 74
     0
 49
-2.54
 74
     0
  0
LTYPE
  5
62
330
5
100
AcDbSymbolTableRecord
100
AcDbLinetypeTableRecord
  2
DOT2
 70
     0
  3
Dot (.5x) ........................................
 72
    65
 73
     2
 40
0.635
 49
0.0
 74
     0
 49
-0.635
 74
     0
  0
ENDTAB
  0
TABLE
  2
LAYER
  5
2
330
0
100
AcDbSymbolTable
 70
     1
  0
LAYER
  5
10
330
2
100
AcDbSymbolTableRecord
100
AcDbLayerTableRecord
  2
0
 70
     0
 62
     7
  6
Continuous
370
    -3
390
F
  0
ENDTAB
  0
TABLE
  2
STYLE
  5
3
330
0
100
AcDbSymbolTable
 70
     1
  0
STYLE
  5
11
330
3
100
AcDbSymbolTableRecord
100
AcDbTextStyleTableRecord
  2
Standard
 70
     0
 40
0.0
 41
1.0
 50
0.0
 71
     0
 42
3.5
  3
txt
  4
bigfont
  0
ENDTAB
  0
TABLE
  2
VIEW
  5
6
330
0
100
AcDbSymbolTable
 70
     0
  0
ENDTAB
  0
TABLE
  2
UCS
  5
7
330
0
100
AcDbSymbolTable
 70
     0
  0
ENDTAB
  0
TABLE
  2
APPID
  5
9
330
0
100
AcDbSymbolTable
 70
     1
  0
APPID
  5
12
330
9
100
AcDbSymbolTableRecord
100
AcDbRegAppTableRecord
  2
ACAD
 70
     0
  0
ENDTAB
  0
TABLE
  2
DIMSTYLE
  5
A
330
0
100
AcDbSymbolTable
 70
     1
100
AcDbDimStyleTable
  0
DIMSTYLE
105
27
330
A
100
AcDbSymbolTableRecord
100
AcDbDimStyleTableRecord
  2
ISO-25
 70
     0
 41
2.5
 42
0.625
 43
3.75
 44
1.25
 73
     0
 74
     0
 77
     1
 78
     8
140
2.5
141
2.5
143
0.0393700787
147
0.625
171
     3
172
     1
178
     0
271
     2
272
     2
274
     3
278
    44
283
     0
284
     8
340
11
  0
ENDTAB
  0
TABLE
  2
BLOCK_RECORD
  5
1
330
0
100
AcDbSymbolTable
 70
     1
  0
BLOCK_RECORD
  5
1F
330
1
100
AcDbSymbolTableRecord
100
AcDbBlockTableRecord
  2
*Model_Space
340
22
  0
BLOCK_RECORD
  5
1B
330
1
100
AcDbSymbolTableRecord
100
AcDbBlockTableRecord
  2
*Paper_Space
340
1E
  0
BLOCK_RECORD
  5
23
330
1
100
AcDbSymbolTableRecord
100
AcDbBlockTableRecord
  2
*Paper_Space0
340
26
  0
ENDTAB
  0
ENDSEC
  0
SECTION
  2
BLOCKS
  0
BLOCK
  5
20
330
1F
100
AcDbEntity
  8
0
100
AcDbBlockBegin
  2
*Model_Space
 70
     0
 10
0.0
 20
0.0
 30
0.0
  3
*Model_Space
  1

  0
ENDBLK
  5
21
330
1F
100
AcDbEntity
  8
0
100
AcDbBlockEnd
  0
BLOCK
  5
1C
330
1B
100
AcDbEntity
 67
     1
  8
0
100
AcDbBlockBegin
  2
*Paper_Space
 70
     0
 10
0.0
 20
0.0
 30
0.0
  3
*Paper_Space
  1

  0
ENDBLK
  5
1D
330
1B
100
AcDbEntity
 67
     1
  8
0
100
AcDbBlockEnd
  0
BLOCK
  5
24
330
23
100
AcDbEntity
  8
0
100
AcDbBlockBegin
  2
*Paper_Space0
 70
     0
 10
0.0
 20
0.0
 30
0.0
  3
*Paper_Space0
  1

  0
ENDBLK
  5
25
330
23
100
AcDbEntity
  8
0
100
AcDbBlockEnd
  0
ENDSEC
  0
SECTION
  2
ENTITIES
  0
ARC
  5
63
330
1F
100
AcDbEntity
  8
0
  6
Continuous
 62
     7
370
    25
100
AcDbCircle
 10
372.3565440327
 20
251.0245465655
 30
0.0
 40
3.0
100
AcDbArc
 50
180.0
 51
0.0
  0
LINE
  5
64
330
1F
100
AcDbEntity
  8
0
  6
Continuous
 62
     7
370
    25
100
AcDbLine
 10
389.3565440327
 20
258.0245465655
 30
0.0
 11
355.3565440327
 21
258.0245465655
 31
0.0
  0
LINE
  5
65
330
1F
100
AcDbEntity
  8
0
  6
Continuous
 62
     7
370
    25
100
AcDbLine
 10
355.3565440327
 20
233.0245465655
 30
0.0
 11
389.3565440327
 21
233.0245465655
 31
0.0
  0
ARC
  5
66
330
1F
100
AcDbEntity
  8
0
  6
Continuous
 62
     7
370
    25
100
AcDbCircle
 10
372.3565440327
 20
251.0245465655
 30
0.0
 40
3.0
100
AcDbArc
 50
0.0
 51
180.0
  0
LINE
  5
67
330
1F
100
AcDbEntity
  8
0
  6
Continuous
 62
     7
370
    25
100
AcDbLine
 10
355.3565440327
 20
258.0245465655
 30
0.0
 11
355.3565440327
 21
233.0245465655
 31
0.0
  0
LINE
  5
68
330
1F
100
AcDbEntity
  8
0
  6
Continuous
 62
     7
370
    25
100
AcDbLine
 10
389.3565440327
 20
233.0245465655
 30
0.0
 11
389.3565440327
 21
258.0245465655
 31
0.0
  0
LINE
  5
69
330
1F
100
AcDbEntity
  8
0
  6
HIDDEN
 62
     7
370
    18
100
AcDbLine
 10
385.8565440327
 20
233.0245465655
 30
0.0
 11
385.8565440327
 21
258.0245465655
 31
0.0
  0
LINE
  5
6A
330
1F
100
AcDbEntity
  8
0
  6
HIDDEN
 62
     7
370
    18
100
AcDbLine
 10
378.8565440327
 20
258.0245465655
 30
0.0
 11
378.8565440327
 21
233.0245465655
 31
0.0
  0
LINE
  5
6B
330
1F
100
AcDbEntity
  8
0
  6
HIDDEN
 62
     7
370
    18
100
AcDbLine
 10
365.8565440327
 20
233.0245465655
 30
0.0
 11
365.8565440327
 21
258.0245465655
 31
0.0
  0
LINE
  5
6C
330
1F
100
AcDbEntity
  8
0
  6
HIDDEN
 62
     7
370
    18
100
AcDbLine
 10
358.8565440327
 20
258.0245465655
 30
0.0
 11
358.8565440327
 21
233.0245465655
 31
0.0
  0
LINE
  5
6D
330
1F
100
AcDbEntity
  8
0
  6
Continuous
 62
     7
370
    25
100
AcDbLine
 10
389.3565440327
 20
335.38
 30
0.0
 11
355.3565440327
 21
335.38
 31
0.0
  0
LINE
  5
6E
330
1F
100
AcDbEntity
  8
0
  6
Continuous
 62
     7
370
    25
100
AcDbLine
 10
355.3565440327
 20
335.38
 30
0.0
 11
355.3565440327
 21
347.38
 31
0.0
  0
ARC
  5
6F
330
1F
100
AcDbEntity
  8
0
  6
Continuous
 62
     7
370
    25
100
AcDbCircle
 10
362.3565440327
 20
341.38
 30
0.0
 40
3.5
100
AcDbArc
 50
90.0
 51
270.0
  0
ARC
  5
70
330
1F
100
AcDbEntity
  8
0
  6
Continuous
 62
     7
370
    25
100
AcDbCircle
 10
362.3565440327
 20
341.38
 30
0.0
 40
3.5
100
AcDbArc
 50
270.0
 51
90.0
  0
ARC
  5
71
330
1F
100
AcDbEntity
  8
0
  6
Continuous
 62
     7
370
    25
100
AcDbCircle
 10
382.3565440327
 20
341.38
 30
0.0
 40
3.5
100
AcDbArc
 50
90.0
 51
270.0
  0
ARC
  5
72
330
1F
100
AcDbEntity
  8
0
  6
Continuous
 62
     7
370
    25
100
AcDbCircle
 10
382.3565440327
 20
341.38
 30
0.0
 40
3.5
100
AcDbArc
 50
270.0
 51
90.0
  0
LINE
  5
73
330
1F
100
AcDbEntity
  8
0
  6
Continuous
 62
     7
370
    25
100
AcDbLine
 10
389.3565440327
 20
347.38
 30
0.0
 11
355.3565440327
 21
347.38
 31
0.0
  0
LINE
  5
74
330
1F
100
AcDbEntity
  8
0
  6
Continuous
 62
     7
370
    25
100
AcDbLine
 10
389.3565440327
 20
335.38
 30
0.0
 11
389.3565440327
 21
347.38
 31
0.0
  0
LINE
  5
75
330
1F
100
AcDbEntity
  8
0
  6
HIDDEN
 62
     7
370
    18
100
AcDbLine
 10
369.3565440327
 20
335.38
 30
0.0
 11
369.3565440327
 21
347.38
 31
0.0
  0
LINE
  5
76
330
1F
100
AcDbEntity
  8
0
  6
HIDDEN
 62
     7
370
    18
100
AcDbLine
 10
375.3565440327
 20
335.38
 30
0.0
 11
375.3565440327
 21
347.38
 31
0.0
  0
LINE
  5
77
330
1F
100
AcDbEntity
  8
0
  6
Continuous
 62
     7
370
    25
100
AcDbLine
 10
463.38
 20
233.0245465655
 30
0.0
 11
475.38
 21
233.0245465655
 31
0.0
  0
LINE
  5
78
330
1F
100
AcDbEntity
  8
0
  6
Continuous
 62
     7
370
    25
100
AcDbLine
 10
463.38
 20
233.0245465655
 30
0.0
 11
463.38
 21
258.0245465655
 31
0.0
  0
LINE
  5
79
330
1F
100
AcDbEntity
  8
0
  6
Continuous
 62
     7
370
    25
100
AcDbLine
 10
463.38
 20
258.0245465655
 30
0.0
 11
475.38
 21
258.0245465655
 31
0.0
  0
LINE
  5
7A
330
1F
100
AcDbEntity
  8
0
  6
Continuous
 62
     7
370
    25
100
AcDbLine
 10
475.38
 20
233.0245465655
 30
0.0
 11
475.38
 21
258.0245465655
 31
0.0
  0
LINE
  5
7B
330
1F
100
AcDbEntity
  8
0
  6
HIDDEN
 62
     7
370
    18
100
AcDbLine
 10
465.88
 20
233.0245465655
 30
0.0
 11
465.88
 21
258.0245465655
 31
0.0
  0
LINE
  5
7C
330
1F
100
AcDbEntity
  8
0
  6
HIDDEN
 62
     7
370
    18
100
AcDbLine
 10
472.88
 20
233.0245465655
 30
0.0
 11
472.88
 21
258.0245465655
 31
0.0
  0
LINE
  5
7D
330
1F
100
AcDbEntity
  8
0
  6
HIDDEN
 62
     7
370
    18
100
AcDbLine
 10
463.38
 20
248.0245465655
 30
0.0
 11
475.38
 21
248.0245465655
 31
0.0
  0
LINE
  5
7E
330
1F
100
AcDbEntity
  8
0
  6
HIDDEN
 62
     7
370
    18
100
AcDbLine
 10
475.38
 20
254.0245465655
 30
0.0
 11
463.38
 21
254.0245465655
 31
0.0
  0
LINE
  5
7F
330
1F
100
AcDbEntity
  8
0
  6
Continuous
 62
     7
370
    25
100
AcDbLine
 10
477.1581745931
 20
321.7845465655
 30
0.0
 11
485.6434559673
 21
326.6829952364
 31
0.0
  0
LINE
  5
80
330
1F
100
AcDbEntity
  8
0
  6
Continuous
 62
     7
370
    25
100
AcDbLine
 10
477.1581745931
 20
321.7845465655
 30
0.0
 11
477.1581745931
 21
342.1980668626
 31
0.0
  0
LINE
  5
81
330
1F
100
AcDbEntity
  8
0
  6
Continuous
 62
     7
370
    25
100
AcDbLine
 10
477.1581745931
 20
342.1980668626
 30
0.0
 11
485.6434559673
 21
347.0965155335
 31
0.0
  0
LINE
  5
82
330
1F
100
AcDbEntity
  8
0
  6
Continuous
 62
     7
370
    25
100
AcDbLine
 10
485.6434559673
 20
326.6829952364
 30
0.0
 11
485.6434559673
 21
347.0965155335
 31
0.0
  0
LINE
  5
83
330
1F
100
AcDbEntity
  8
0
  6
Continuous
 62
     7
370
    25
100
AcDbLine
 10
453.1165440327
 20
335.6634844665
 30
0.0
 11
477.1581745931
 21
321.7845465655
 31
0.0
  0
LINE
  5
84
330
1F
100
AcDbEntity
  8
0
  6
Continuous
 62
     7
370
    25
100
AcDbLine
 10
453.1165440327
 20
356.0770047636
 30
0.0
 11
453.1165440327
 21
335.6634844665
 31
0.0
  0
LINE
  5
85
330
1F
100
AcDbEntity
  8
0
  6
Continuous
 62
     7
370
    25
100
AcDbLine
 10
477.1581745931
 20
342.1980668626
 30
0.0
 11
453.1165440327
 21
356.0770047636
 31
0.0
  0
LWPOLYLINE
  5
86
330
1F
100
AcDbEntity
  8
0
  6
Continuous
 62
     7
370
    25
100
AcDbPolyline
 90
       32
 70
   128
 43
0.0
 10
467.2586796564
 20
342.1971379622
 10
467.2477958478
 20
342.4512452425
 10
467.2152561044
 20
342.7153112163
 10
467.1613943281
 20
342.9866262092
 10
467.0867632135
 20
343.2624061625
 10
466.992128577
 20
343.5398212004
 10
466.878461498
 20
343.8160246694
 10
466.7469283544
 20
344.0881823481
 10
466.5988788544
 20
344.3535015304
 10
466.4358321861
 20
344.6092596825
 10
466.259461429
 20
344.8528323796
 10
466.0715763858
 20
345.0817202363
 10
465.8741050112
 20
345.2935745533
 10
465.6690736287
 20
345.4862214188
 10
465.4585861379
 20
345.6576840152
 10
465.2448024251
 20
345.8062029043
 10
465.0299162006
 20
345.9302540812
 10
464.8161324879
 20
346.028564613
 10
464.605644997
 20
346.1001257006
 10
464.4006136146
 20
346.1442030304
 10
464.20314224
 20
346.1603443095
 10
464.0152571968
 20
346.1483839063
 10
463.8388864397
 20
346.1084445509
 10
463.6758397714
 20
346.040936075
 10
463.5277902714
 20
345.946551207
 10
463.3962571278
 20
345.8262584633
 10
463.2825900487
 20
345.6812922103
 10
463.1879554122
 20
345.513139998
 10
463.1133242977
 20
345.3235272954
 10
463.0594625214
 20
345.1143997857
 10
463.026922778
 20
344.8879034
 10
463.0160389693
 20
344.6463622976
  0
LWPOLYLINE
  5
87
330
1F
100
AcDbEntity
  8
0
  6
Continuous
 62
     7
370
    25
100
AcDbPolyline
 90
       32
 70
   128
 43
0.0
 10
463.0160389693
 20
344.6463622976
 10
463.026922778
 20
344.3922550173
 10
463.0594625214
 20
344.1281890435
 10
463.1133242977
 20
343.8568740506
 10
463.1879554122
 20
343.5810940973
 10
463.2825900487
 20
343.3036790594
 10
463.3962571278
 20
343.0274755904
 10
463.5277902714
 20
342.7553179117
 10
463.6758397714
 20
342.4899987294
 10
463.8388864397
 20
342.2342405773
 10
464.0152571968
 20
341.9906678802
 10
464.20314224
 20
341.7617800235
 10
464.4006136146
 20
341.5499257065
 10
464.605644997
 20
341.357278841
 10
464.8161324879
 20
341.1858162446
 10
465.0299162006
 20
341.0372973555
 10
465.2448024251
 20
340.9132461786
 10
465.4585861379
 20
340.8149356468
 10
465.6690736287
 20
340.7433745592
 10
465.8741050112
 20
340.6992972294
 10
466.0715763858
 20
340.6831559503
 10
466.259461429
 20
340.6951163535
 10
466.4358321861
 20
340.735055709
 10
466.5988788544
 20
340.8025641848
 10
466.7469283544
 20
340.8969490528
 10
466.878461498
 20
341.0172417965
 10
466.992128577
 20
341.1622080495
 10
467.0867632135
 20
341.3303602618
 10
467.1613943281
 20
341.5199729644
 10
467.2152561044
 20
341.7291004741
 10
467.2477958478
 20
341.9555968599
 10
467.2586796564
 20
342.1971379622
  0
LINE
  5
88
330
1F
100
AcDbEntity
  8
0
  6
Continuous
 62
     7
370
    25
100
AcDbLine
 10
453.1165440327
 20
356.0770047636
 30
0.0
 11
461.6018254069
 21
360.9754534345
 31
0.0
  0
LINE
  5
89
330
1F
100
AcDbEntity
  8
0
  6
Continuous
 62
     7
370
    25
100
AcDbLine
 10
485.6434559673
 20
347.0965155335
 30
0.0
 11
461.6018254069
 21
360.9754534345
 31
0.0
  0
LWPOLYLINE
  5
8A
330
1F
100
AcDbEntity
  8
0
  6
Continuous
 62
     7
370
    25
100
AcDbPolyline
 90
       34
 70
   128
 43
0.0
 10
464.7838059223
 20
357.0975149034
 10
464.5373477976
 20
357.2268534933
 10
464.270708796
 20
357.342082116
 10
463.9863036417
 20
357.4421572431
 10
463.6867079517
 20
357.5261725788
 10
463.3746349111
 20
357.5933672672
 10
463.0529107016
 20
357.6431327829
 10
462.7244489074
 20
357.6750184415
 10
462.3922241295
 20
357.6887354817
 10
462.0592450469
 20
357.6841596797
 10
461.7285271697
 20
357.6613324749
 10
461.4030655303
 20
357.6204605937
 10
461.0858075595
 20
357.5619141785
 10
460.7796263948
 20
357.4862234345
 10
460.4872948602
 20
357.3940738288
 10
460.2114603553
 20
357.2862998826
 10
459.9546208802
 20
357.1638776134
 10
459.7191024128
 20
357.0279156962
 10
459.5070378449
 20
356.8796454232
 10
459.3203476661
 20
356.720409553
 10
459.1607225714
 20
356.5516501502
 10
459.0296081506
 20
356.3748955261
 10
458.9281917961
 20
356.1917463981
 10
458.8573919501
 20
356.0038613928
 10
458.817849787
 20
355.8129420262
 10
458.8099234067
 20
355.6207172934
 10
458.8336845918
 20
355.4289280115
 10
458.8889181572
 20
355.2393110538
 10
458.9751238994
 20
355.053583621
 10
459.0915211256
 20
354.8734276894
 10
459.2370557246
 20
354.700474779
 10
459.4104097126
 20
354.5362911781
 10
459.610013169
 20
354.3823637589
 10
459.834058454
 20
354.240086512
  0
LWPOLYLINE
  5
8B
330
1F
100
AcDbEntity
  8
0
  6
Continuous
 62
     7
370
    25
100
AcDbPolyline
 90
       34
 70
   128
 43
0.0
 10
459.834058454
 20
354.240086512
 10
460.0805165787
 20
354.110747922
 10
460.3471555803
 20
353.9955192994
 10
460.6315607346
 20
353.8954441723
 10
460.9311564246
 20
353.8114288366
 10
461.2432294652
 20
353.7442341481
 10
461.5649536747
 20
353.6944686325
 10
461.8934154688
 20
353.6625829739
 10
462.2256402467
 20
353.6488659337
 10
462.5586193293
 20
353.6534417356
 10
462.8893372065
 20
353.6762689405
 10
463.214798846
 20
353.7171408216
 10
463.5320568167
 20
353.7756872369
 10
463.8382379814
 20
353.8513779809
 10
464.130569516
 20
353.9435275866
 10
464.4064040209
 20
354.0513015328
 10
464.6632434961
 20
354.173723802
 10
464.8987619635
 20
354.3096857192
 10
465.1108265314
 20
354.4579559922
 10
465.2975167102
 20
354.6171918624
 10
465.4571418048
 20
354.7859512652
 10
465.5882562256
 20
354.9627058892
 10
465.6896725801
 20
355.1458550173
 10
465.7604724261
 20
355.3337400225
 10
465.8000145893
 20
355.5246593892
 10
465.8079409696
 20
355.716884122
 10
465.7841797845
 20
355.9086734039
 10
465.728946219
 20
356.0982903615
 10
465.6427404769
 20
356.2840177944
 10
465.5263432507
 20
356.464173726
 10
465.3808086516
 20
356.6371266364
 10
465.2074546636
 20
356.8013102373
 10
465.0078512072
 20
356.9552376564
 10
464.7838059223
 20
357.0975149034
  0
LWPOLYLINE
  5
8C
330
1F
100
AcDbEntity
  8
0
  6
Continuous
 62
     7
370
    25
100
AcDbPolyline
 90
       34
 70
   128
 43
0.0
 10
478.925941546
 20
348.9334337851
 10
478.6794834213
 20
349.0627723751
 10
478.4128444197
 20
349.1780009978
 10
478.1284392654
 20
349.2780761249
 10
477.8288435754
 20
349.3620914606
 10
477.5167705348
 20
349.429286149
 10
477.1950463253
 20
349.4790516647
 10
476.8665845312
 20
349.5109373233
 10
476.5343597533
 20
349.5246543635
 10
476.2013806707
 20
349.5200785615
 10
475.8706627935
 20
349.4972513566
 10
475.545201154
 20
349.4563794755
 10
475.2279431833
 20
349.3978330603
 10
474.9217620186
 20
349.3221423162
 10
474.629430484
 20
349.2299927106
 10
474.3535959791
 20
349.1222187644
 10
474.0967565039
 20
348.9997964952
 10
473.8612380365
 20
348.863834578
 10
473.6491734686
 20
348.715564305
 10
473.4624832898
 20
348.5563284347
 10
473.3028581952
 20
348.3875690319
 10
473.1717437744
 20
348.2108144079
 10
473.0703274199
 20
348.0276652798
 10
472.9995275739
 20
347.8397802746
 10
472.9599854107
 20
347.6488609079
 10
472.9520590304
 20
347.4566361752
 10
472.9758202155
 20
347.2648468932
 10
473.031053781
 20
347.0752299356
 10
473.1172595231
 20
346.8895025028
 10
473.2336567493
 20
346.7093465711
 10
473.3791913484
 20
346.5363936607
 10
473.5525453364
 20
346.3722100599
 10
473.7521487928
 20
346.2182826407
 10
473.9761940777
 20
346.0760053938
  0
LWPOLYLINE
  5
8D
330
1F
100
AcDbEntity
  8
0
  6
Continuous
 62
     7
370
    25
100
AcDbPolyline
 90
       34
 70
   128
 43
0.0
 10
473.9761940777
 20
346.0760053938
 10
474.2226522024
 20
345.9466668038
 10
474.489291204
 20
345.8314381812
 10
474.7736963583
 20
345.731363054
 10
475.0732920483
 20
345.6473477183
 10
475.3853650889
 20
345.5801530299
 10
475.7070892984
 20
345.5303875143
 10
476.0355510926
 20
345.4985018556
 10
476.3677758705
 20
345.4847848155
 10
476.7007549531
 20
345.4893606174
 10
477.0314728303
 20
345.5121878223
 10
477.3569344697
 20
345.5530597034
 10
477.6741924405
 20
345.6116061187
 10
477.9803736052
 20
345.6872968627
 10
478.2727051398
 20
345.7794464683
 10
478.5485396447
 20
345.8872204145
 10
478.8053791198
 20
346.0096426838
 10
479.0408975872
 20
346.145604601
 10
479.2529621551
 20
346.2938748739
 10
479.4396523339
 20
346.4531107442
 10
479.5992774286
 20
346.621870147
 10
479.7303918494
 20
346.798624771
 10
479.8318082039
 20
346.9817738991
 10
479.9026080499
 20
347.1696589043
 10
479.942150213
 20
347.360578271
 10
479.9500765933
 20
347.5528030038
 10
479.9263154082
 20
347.7445922857
 10
479.8710818428
 20
347.9342092433
 10
479.7848761006
 20
348.1199366762
 10
479.6684788744
 20
348.3000926078
 10
479.5229442754
 20
348.4730455182
 10
479.3495902874
 20
348.637229119
 10
479.149986831
 20
348.7911565382
 10
478.925941546
 20
348.9334337851
  0
LWPOLYLINE
  5
8E
330
1F
100
AcDbEntity
  8
0
  6
HIDDEN
 62
     7
370
    18
100
AcDbPolyline
 90
       34
 70
   128
 43
0.0
 10
473.9761940777
 20
325.6624850966
 10
474.2226522024
 20
325.5331465067
 10
474.489291204
 20
325.417917884
 10
474.7736963583
 20
325.3178427569
 10
475.0732920483
 20
325.2338274212
 10
475.3853650889
 20
325.1666327328
 10
475.7070892984
 20
325.1168672171
 10
476.0355510926
 20
325.0849815585
 10
476.3677758705
 20
325.0712645183
 10
476.7007549531
 20
325.0758403203
 10
477.0314728303
 20
325.0986675251
 10
477.3569344697
 20
325.1395394063
 10
477.6741924405
 20
325.1980858215
 10
477.9803736052
 20
325.2737765655
 10
478.2727051398
 20
325.3659261712
 10
478.5485396447
 20
325.4737001174
 10
478.8053791198
 20
325.5961223866
 10
479.0408975872
 20
325.7320843038
 10
479.2529621551
 20
325.8803545768
 10
479.4396523339
 20
326.039590447
 10
479.5992774286
 20
326.2083498498
 10
479.7303918494
 20
326.3851044739
 10
479.8318082039
 20
326.5682536019
 10
479.9026080499
 20
326.7561386072
 10
479.942150213
 20
326.9470579738
 10
479.9500765933
 20
327.1392827066
 10
479.9263154082
 20
327.3310719885
 10
479.8710818428
 20
327.5206889462
 10
479.7848761006
 20
327.706416379
 10
479.6684788744
 20
327.8865723106
 10
479.5229442754
 20
328.059525221
 10
479.3495902874
 20
328.2237088219
 10
479.149986831
 20
328.3776362411
 10
478.925941546
 20
328.519913488
  0
LWPOLYLINE
  5
8F
330
1F
100
AcDbEntity
  8
0
  6
HIDDEN
 62
     7
370
    18
100
AcDbPolyline
 90
       34
 70
   128
 43
0.0
 10
478.925941546
 20
328.519913488
 10
478.6794834213
 20
328.649252078
 10
478.4128444197
 20
328.7644807006
 10
478.1284392654
 20
328.8645558277
 10
477.8288435754
 20
328.9485711634
 10
477.5167705348
 20
329.0157658519
 10
477.1950463253
 20
329.0655313675
 10
476.8665845312
 20
329.0974170261
 10
476.5343597533
 20
329.1111340663
 10
476.2013806707
 20
329.1065582644
 10
475.8706627935
 20
329.0837310595
 10
475.545201154
 20
329.0428591784
 10
475.2279431833
 20
328.9843127631
 10
474.9217620186
 20
328.9086220191
 10
474.629430484
 20
328.8164724134
 10
474.3535959791
 20
328.7086984672
 10
474.0967565039
 20
328.586276198
 10
473.8612380365
 20
328.4503142808
 10
473.6491734686
 20
328.3020440078
 10
473.4624832898
 20
328.1428081376
 10
473.3028581952
 20
327.9740487348
 10
473.1717437744
 20
327.7972941108
 10
473.0703274199
 20
327.6141449827
 10
472.9995275739
 20
327.4262599775
 10
472.9599854107
 20
327.2353406108
 10
472.9520590304
 20
327.043115878
 10
472.9758202155
 20
326.8513265961
 10
473.031053781
 20
326.6617096385
 10
473.1172595231
 20
326.4759822056
 10
473.2336567493
 20
326.295826274
 10
473.3791913484
 20
326.1228733636
 10
473.5525453364
 20
325.9586897627
 10
473.7521487928
 20
325.8047623436
 10
473.9761940777
 20
325.6624850966
  0
LWPOLYLINE
  5
90
330
1F
100
AcDbEntity
  8
0
  6
HIDDEN
 62
     7
370
    18
100
AcDbPolyline
 90
       32
 70
   128
 43
0.0
 10
475.7439610307
 20
347.0955866331
 10
475.733077222
 20
347.3496939134
 10
475.7005374786
 20
347.6137598872
 10
475.6466757023
 20
347.8850748802
 10
475.5720445878
 20
348.1608548334
 10
475.4774099513
 20
348.4382698714
 10
475.3637428722
 20
348.7144733404
 10
475.2322097286
 20
348.9866310191
 10
475.0841602286
 20
349.2519502014
 10
474.9211135603
 20
349.5077083534
 10
474.7447428032
 20
349.7512810506
 10
474.55685776
 20
349.9801689072
 10
474.3593863854
 20
350.1920232243
 10
474.154355003
 20
350.3846700898
 10
473.9438675121
 20
350.5561326862
 10
473.7300837994
 20
350.7046515752
 10
473.5151975749
 20
350.8287027521
 10
473.3014138621
 20
350.9270132839
 10
473.0909263713
 20
350.9985743715
 10
472.8858949888
 20
351.0426517014
 10
472.6884236142
 20
351.0587929804
 10
472.500538571
 20
351.0468325772
 10
472.3241678139
 20
351.0068932218
 10
472.1611211456
 20
350.9393847459
 10
472.0130716456
 20
350.8449998779
 10
471.881538502
 20
350.7247071342
 10
471.767871423
 20
350.5797408813
 10
471.6732367865
 20
350.4115886689
 10
471.5986056719
 20
350.2219759664
 10
471.5447438956
 20
350.0128484566
 10
471.5122041522
 20
349.7863520709
 10
471.5013203436
 20
349.5448109686
  0
LWPOLYLINE
  5
91
330
1F
100
AcDbEntity
  8
0
  6
HIDDEN
 62
     7
370
    18
100
AcDbPolyline
 90
       32
 70
   128
 43
0.0
 10
471.5013203436
 20
349.5448109686
 10
471.5122041522
 20
349.2907036883
 10
471.5447438956
 20
349.0266377145
 10
471.5986056719
 20
348.7553227215
 10
471.6732367865
 20
348.4795427683
 10
471.767871423
 20
348.2021277303
 10
471.881538502
 20
347.9259242613
 10
472.0130716456
 20
347.6537665826
 10
472.1611211456
 20
347.3884474003
 10
472.3241678139
 20
347.1326892482
 10
472.500538571
 20
346.8891165511
 10
472.6884236142
 20
346.6602286945
 10
472.8858949888
 20
346.4483743774
 10
473.0909263713
 20
346.2557275119
 10
473.3014138621
 20
346.0842649155
 10
473.5151975749
 20
345.9357460265
 10
473.7300837994
 20
345.8116948496
 10
473.9438675121
 20
345.7133843178
 10
474.154355003
 20
345.6418232301
 10
474.3593863854
 20
345.5977459003
 10
474.55685776
 20
345.5816046213
 10
474.7447428032
 20
345.5935650244
 10
474.9211135603
 20
345.6335043799
 10
475.0841602286
 20
345.7010128558
 10
475.2322097286
 20
345.7953977238
 10
475.3637428722
 20
345.9156904674
 10
475.4774099513
 20
346.0606567204
 10
475.5720445878
 20
346.2288089328
 10
475.6466757023
 20
346.4184216353
 10
475.7005374786
 20
346.627549145
 10
475.733077222
 20
346.8540455308
 10
475.7439610307
 20
347.0955866331
  0
LINE
  5
92
330
1F
100
AcDbEntity
  8
0
  6
HIDDEN
 62
     7
370
    18
100
AcDbLine
 10
461.6018254069
 20
340.5619331374
 30
0.0
 11
485.6434559673
 21
326.6829952364
 31
0.0
  0
LWPOLYLINE
  5
93
330
1F
100
AcDbEntity
  8
0
  6
HIDDEN
 62
     7
370
    18
100
AcDbPolyline
 90
       34
 70
   128
 43
0.0
 10
459.834058454
 20
333.8265662149
 10
460.0805165787
 20
333.6972276249
 10
460.3471555803
 20
333.5819990022
 10
460.6315607346
 20
333.4819238751
 10
460.9311564246
 20
333.3979085394
 10
461.2432294652
 20
333.330713851
 10
461.5649536747
 20
333.2809483353
 10
461.8934154688
 20
333.2490626767
 10
462.2256402467
 20
333.2353456365
 10
462.5586193293
 20
333.2399214385
 10
462.8893372065
 20
333.2627486434
 10
463.214798846
 20
333.3036205245
 10
463.5320568167
 20
333.3621669397
 10
463.8382379814
 20
333.4378576838
 10
464.130569516
 20
333.5300072894
 10
464.4064040209
 20
333.6377812356
 10
464.6632434961
 20
333.7602035048
 10
464.8987619635
 20
333.896165422
 10
465.1108265314
 20
334.044435695
 10
465.2975167102
 20
334.2036715653
 10
465.4571418048
 20
334.3724309681
 10
465.5882562256
 20
334.5491855921
 10
465.6896725801
 20
334.7323347202
 10
465.7604724261
 20
334.9202197254
 10
465.8000145893
 20
335.1111390921
 10
465.8079409696
 20
335.3033638248
 10
465.7841797845
 20
335.4951531068
 10
465.728946219
 20
335.6847700644
 10
465.6427404769
 20
335.8704974972
 10
465.5263432507
 20
336.0506534289
 10
465.3808086516
 20
336.2236063393
 10
465.2074546636
 20
336.3877899401
 10
465.0078512072
 20
336.5417173593
 10
464.7838059223
 20
336.6839946062
  0
LWPOLYLINE
  5
94
330
1F
100
AcDbEntity
  8
0
  6
HIDDEN
 62
     7
370
    18
100
AcDbPolyline
 90
       34
 70
   128
 43
0.0
 10
464.7838059223
 20
336.6839946062
 10
464.5373477976
 20
336.8133331962
 10
464.270708796
 20
336.9285618188
 10
463.9863036417
 20
337.028636946
 10
463.6867079517
 20
337.1126522817
 10
463.3746349111
 20
337.1798469701
 10
463.0529107016
 20
337.2296124857
 10
462.7244489074
 20
337.2614981444
 10
462.3922241295
 20
337.2752151845
 10
462.0592450469
 20
337.2706393826
 10
461.7285271697
 20
337.2478121777
 10
461.4030655303
 20
337.2069402966
 10
461.0858075595
 20
337.1483938813
 10
460.7796263948
 20
337.0727031373
 10
460.4872948602
 20
336.9805535317
 10
460.2114603553
 20
336.8727795855
 10
459.9546208802
 20
336.7503573162
 10
459.7191024128
 20
336.614395399
 10
459.5070378449
 20
336.4661251261
 10
459.3203476661
 20
336.3068892558
 10
459.1607225714
 20
336.138129853
 10
459.0296081506
 20
335.961375229
 10
458.9281917961
 20
335.7782261009
 10
458.8573919501
 20
335.5903410957
 10
458.817849787
 20
335.399421729
 10
458.8099234067
 20
335.2071969962
 10
458.8336845918
 20
335.0154077143
 10
458.8889181572
 20
334.8257907567
 10
458.9751238994
 20
334.6400633238
 10
459.0915211256
 20
334.4599073922
 10
459.2370557246
 20
334.2869544818
 10
459.4104097126
 20
334.122770881
 10
459.610013169
 20
333.9688434618
 10
459.834058454
 20
333.8265662149
  0
LINE
  5
95
330
1F
100
AcDbEntity
  8
0
  6
HIDDEN
 62
     7
370
    18
100
AcDbLine
 10
453.1165440327
 20
335.6634844665
 30
0.0
 11
461.6018254069
 21
340.5619331374
 31
0.0
  0
LINE
  5
96
330
1F
100
AcDbEntity
  8
0
  6
HIDDEN
 62
     7
370
    18
100
AcDbLine
 10
461.6018254069
 20
360.9754534345
 30
0.0
 11
461.6018254069
 21
340.5619331374
 31
0.0
  0
LINE
  5
97
330
1F
100
AcDbEntity
  8
0
  6
HIDDEN
 62
     7
370
    18
100
AcDbLine
 10
479.9510678119
 20
327.0911992923
 30
0.0
 11
479.9510678119
 21
347.5047195895
 31
0.0
  0
LINE
  5
98
330
1F
100
AcDbEntity
  8
0
  6
HIDDEN
 62
     7
370
    18
100
AcDbLine
 10
472.9510678119
 20
347.5047195895
 30
0.0
 11
472.9510678119
 21
327.0911992923
 31
0.0
  0
LINE
  5
99
330
1F
100
AcDbEntity
  8
0
  6
HIDDEN
 62
     7
370
    18
100
AcDbLine
 10
472.1227625882
 20
350.918345388
 30
0.0
 11
463.6374812139
 21
346.019896717
 31
0.0
  0
LINE
  5
9A
330
1F
100
AcDbEntity
  8
0
  6
HIDDEN
 62
     7
370
    18
100
AcDbLine
 10
466.6372374118
 20
340.8236035428
 30
0.0
 11
475.1225187861
 21
345.7220522137
 31
0.0
  0
LINE
  5
9B
330
1F
100
AcDbEntity
  8
0
  6
HIDDEN
 62
     7
370
    18
100
AcDbLine
 10
465.8089321881
 20
335.2552804105
 30
0.0
 11
465.8089321881
 21
355.6688007077
 31
0.0
  0
LINE
  5
9C
330
1F
100
AcDbEntity
  8
0
  6
HIDDEN
 62
     7
370
    18
100
AcDbLine
 10
458.8089321881
 20
355.6688007077
 30
0.0
 11
458.8089321881
 21
335.2552804105
 31
0.0
  0
ENDSEC
  0
SECTION
  2
OBJECTS
  0
DICTIONARY
  5
C
330
0
100
AcDbDictionary
281
     1
  3
ACAD_GROUP
350
D
  3
ACAD_LAYOUT
350
1A
  3
ACAD_MLINESTYLE
350
17
  3
ACAD_PLOTSETTINGS
350
19
  3
ACAD_PLOTSTYLENAME
350
E
  3
ACAD_SCALELIST
350
47
  3
DWGPROPS
350
9D
  0
DICTIONARY
  5
D
102
{ACAD_REACTORS
330
C
102
}
330
C
100
AcDbDictionary
281
     1
  0
DICTIONARY
  5
1A
102
{ACAD_REACTORS
330
C
102
}
330
C
100
AcDbDictionary
281
     1
  3
Layout1
350
1E
  3
Layout2
350
26
  3
Model
350
22
  0
DICTIONARY
  5
17
102
{ACAD_REACTORS
330
C
102
}
330
C
100
AcDbDictionary
281
     1
  3
Standard
350
18
  0
DICTIONARY
  5
19
102
{ACAD_REACTORS
330
C
102
}
330
C
100
AcDbDictionary
281
     1
  0
ACDBDICTIONARYWDFLT
  5
E
102
{ACAD_REACTORS
330
C
102
}
330
C
100
AcDbDictionary
281
     1
  3
Normal
350
F
100
AcDbDictionaryWithDefault
340
F
  0
DICTIONARY
  5
47
102
{ACAD_REACTORS
330
C
102
}
330
C
100
AcDbDictionary
281
     1
  3
A0
350
48
  3
A1
350
49
  3
A2
350
4A
  3
A3
350
4B
  3
A4
350
4C
  3
A5
350
4D
  3
A6
350
4E
  3
A7
350
4F
  3
A8
350
50
  3
A9
350
51
  3
B0
350
52
  3
B1
350
53
  3
B2
350
54
  3
B3
350
55
  3
B4
350
56
  3
B5
350
57
  3
B6
350
58
  0
XRECORD
  5
9D
102
{ACAD_REACTORS
330
C
102
}
330
C
100
AcDbXrecord
280
     1
  1
DWGPROPS COOKIE
  2

  3

  4

  6

  7

  8
imaizumi
  9

300
=
301
=
302
=
303
=
304
=
305
=
306
=
307
=
308
=
309
=
 40
0.0
 41
2461263.053570776
 42
2461263.053571065
  1

 90
        0
  0
LAYOUT
  5
1E
102
{ACAD_REACTORS
330
1A
102
}
330
1A
100
AcDbPlotSettings
  1

  2
none_device
  4

  6

 40
0.0
 41
0.0
 42
0.0
 43
0.0
 44
0.0
 45
0.0
 46
0.0
 47
0.0
 48
0.0
 49
0.0
140
0.0
141
0.0
142
1.0
143
1.0
 70
   688
 72
     1
 73
     0
 74
     5
  7

 75
    16
147
1.0
148
0.0
149
0.0
100
AcDbLayout
  1
Layout1
 70
     1
 71
     1
 10
0.0
 20
0.0
 11
420.0
 21
297.0
 12
0.0
 22
0.0
 32
0.0
 14
1.0000000000E+20
 24
1.0000000000E+20
 34
1.0000000000E+20
 15
-1.0000000000E+20
 25
-1.0000000000E+20
 35
-1.0000000000E+20
146
0.0
 13
0.0
 23
0.0
 33
0.0
 16
1.0
 26
0.0
 36
0.0
 17
0.0
 27
1.0
 37
0.0
 76
     0
330
1B
  0
LAYOUT
  5
26
102
{ACAD_REACTORS
330
1A
102
}
330
1A
100
AcDbPlotSettings
  1

  2
none_device
  4

  6

 40
0.0
 41
0.0
 42
0.0
 43
0.0
 44
0.0
 45
0.0
 46
0.0
 47
0.0
 48
0.0
 49
0.0
140
0.0
141
0.0
142
1.0
143
1.0
 70
   688
 72
     1
 73
     0
 74
     5
  7

 75
    16
147
1.0
148
0.0
149
0.0
100
AcDbLayout
  1
Layout2
 70
     1
 71
     2
 10
0.0
 20
0.0
 11
0.0
 21
0.0
 12
0.0
 22
0.0
 32
0.0
 14
0.0
 24
0.0
 34
0.0
 15
0.0
 25
0.0
 35
0.0
146
0.0
 13
0.0
 23
0.0
 33
0.0
 16
1.0
 26
0.0
 36
0.0
 17
0.0
 27
1.0
 37
0.0
 76
     0
330
23
  0
LAYOUT
  5
22
102
{ACAD_REACTORS
330
1A
102
}
330
1A
100
AcDbPlotSettings
  1

  2
none_device
  4
Letter_(8.50_x_11.00_Inches)
  6

 40
6.35
 41
6.35
 42
6.35000508
 43
6.35000508
 44
215.9
 45
279.4
 46
0.0
 47
0.0
 48
0.0
 49
0.0
140
0.0
141
0.0
142
1.0
143
1.0
 70
  1712
 72
     1
 73
     0
 74
     0
  7

 75
     0
147
1.0
148
0.0
149
0.0
100
AcDbLayout
  1
Model
 70
     1
 71
     0
 10
0.0
 20
0.0
 11
841.0
 21
594.0
 12
0.0
 22
0.0
 32
0.0
 14
0.0
 24
0.0
 34
0.0
 15
841.0
 25
594.0
 35
0.0
146
0.0
 13
0.0
 23
0.0
 33
0.0
 16
1.0
 26
0.0
 36
0.0
 17
0.0
 27
1.0
 37
0.0
 76
     0
330
1F
331
29
  0
MLINESTYLE
  5
18
102
{ACAD_REACTORS
330
17
102
}
330
17
100
AcDbMlineStyle
  2
Standard
 70
     0
  3

 62
   256
 51
90.0
 52
90.0
 71
     2
 49
0.5
 62
   256
  6
BYLAYER
 49
-0.5
 62
   256
  6
BYLAYER
  0
ACDBPLACEHOLDER
  5
F
102
{ACAD_REACTORS
330
E
102
}
330
E
  0
SCALE
  5
48
102
{ACAD_REACTORS
330
47
102
}
330
47
100
AcDbScale
 70
     0
300
1:1
140
1.0
141
1.0
290
     1
  0
SCALE
  5
49
102
{ACAD_REACTORS
330
47
102
}
330
47
100
AcDbScale
 70
     0
300
1:2
140
1.0
141
2.0
290
     0
  0
SCALE
  5
4A
102
{ACAD_REACTORS
330
47
102
}
330
47
100
AcDbScale
 70
     0
300
1:4
140
1.0
141
4.0
290
     0
  0
SCALE
  5
4B
102
{ACAD_REACTORS
330
47
102
}
330
47
100
AcDbScale
 70
     0
300
1:5
140
1.0
141
5.0
290
     0
  0
SCALE
  5
4C
102
{ACAD_REACTORS
330
47
102
}
330
47
100
AcDbScale
 70
     0
300
1:8
140
1.0
141
8.0
290
     0
  0
SCALE
  5
4D
102
{ACAD_REACTORS
330
47
102
}
330
47
100
AcDbScale
 70
     0
300
1:10
140
1.0
141
10.0
290
     0
  0
SCALE
  5
4E
102
{ACAD_REACTORS
330
47
102
}
330
47
100
AcDbScale
 70
     0
300
1:16
140
1.0
141
16.0
290
     0
  0
SCALE
  5
4F
102
{ACAD_REACTORS
330
47
102
}
330
47
100
AcDbScale
 70
     0
300
1:20
140
1.0
141
20.0
290
     0
  0
SCALE
  5
50
102
{ACAD_REACTORS
330
47
102
}
330
47
100
AcDbScale
 70
     0
300
1:30
140
1.0
141
30.0
290
     0
  0
SCALE
  5
51
102
{ACAD_REACTORS
330
47
102
}
330
47
100
AcDbScale
 70
     0
300
1:40
140
1.0
141
40.0
290
     0
  0
SCALE
  5
52
102
{ACAD_REACTORS
330
47
102
}
330
47
100
AcDbScale
 70
     0
300
1:50
140
1.0
141
50.0
290
     0
  0
SCALE
  5
53
102
{ACAD_REACTORS
330
47
102
}
330
47
100
AcDbScale
 70
     0
300
1:100
140
1.0
141
100.0
290
     0
  0
SCALE
  5
54
102
{ACAD_REACTORS
330
47
102
}
330
47
100
AcDbScale
 70
     0
300
2:1
140
2.0
141
1.0
290
     0
  0
SCALE
  5
55
102
{ACAD_REACTORS
330
47
102
}
330
47
100
AcDbScale
 70
     0
300
4:1
140
4.0
141
1.0
290
     0
  0
SCALE
  5
56
102
{ACAD_REACTORS
330
47
102
}
330
47
100
AcDbScale
 70
     0
300
8:1
140
8.0
141
1.0
290
     0
  0
SCALE
  5
57
102
{ACAD_REACTORS
330
47
102
}
330
47
100
AcDbScale
 70
     0
300
10:1
140
10.0
141
1.0
290
     0
  0
SCALE
  5
58
102
{ACAD_REACTORS
330
47
102
}
330
47
100
AcDbScale
 70
     0
300
100:1
140
100.0
141
1.0
290
     0
  0
ENDSEC
  0
EOF
