  0
SECTION
  2
HEADER
  9
$ACADVER
  1
AC1015
  9
$ACADMAINTVER
 70
     6
  9
$DWGCODEPAGE
  3
DOS932
  9
$INSBASE
 10
0.0
 20
0.0
 30
0.0
  9
$EXTMIN
 10
0.0
 20
0.0
 30
0.0
  9
$EXTMAX
 10
841.0
 20
594.0
 30
0.0
  9
$LIMMIN
 10
0.0
 20
0.0
  9
$LIMMAX
 10
841.0
 20
594.0
  9
$ORTHOMODE
 70
     0
  9
$REGENMODE
 70
     1
  9
$FILLMODE
 70
     1
  9
$QTEXTMODE
 70
     0
  9
$MIRRTEXT
 70
     1
  9
$LTSCALE
 40
1.0
  9
$ATTMODE
 70
     1
  9
$TEXTSIZE
 40
3.5
  9
$TRACEWID
 40
1.0
  9
$TEXTSTYLE
  7
Standard
  9
$CLAYER
  8
0
  9
$CELTYPE
  6
ByLayer
  9
$CECOLOR
 62
   256
  9
$CELTSCALE
 40
1.0
  9
$DISPSILH
 70
     0
  9
$DIMSCALE
 40
1.0
  9
$DIMASZ
 40
3.302
  9
$DIMEXO
 40
1.0
  9
$DIMDLI
 40
3.75
  9
$DIMRND
 40
0.0
  9
$DIMDLE
 40
0.0
  9
$DIMEXE
 40
1.0
  9
$DIMTP
 40
0.0
  9
$DIMTM
 40
0.0
  9
$DIMTXT
 40
3.5
  9
$DIMCEN
 40
2.5
  9
$DIMTSZ
 40
0.0
  9
$DIMTOL
 70
     0
  9
$DIMLIM
 70
     0
  9
$DIMTIH
 70
     1
  9
$DIMTOH
 70
     1
  9
$DIMSE1
 70
     0
  9
$DIMSE2
 70
     0
  9
$DIMTAD
 70
     1
  9
$DIMZIN
 70
     1
  9
$DIMBLK
  1

  9
$DIMASO
 70
     1
  9
$DIMSHO
 70
     1
  9
$DIMPOST
  1

  9
$DIMAPOST
  1

  9
$DIMALT
 70
     0
  9
$DIMALTD
 70
     3
  9
$DIMALTF
 40
0.0393700787
  9
$DIMLFAC
 40
1.0
  9
$DIMTOFL
 70
     1
  9
$DIMTVP
 40
0.0
  9
$DIMTIX
 70
     0
  9
$DIMSOXD
 70
     0
  9
$DIMSAH
 70
     0
  9
$DIMBLK1
  1

  9
$DIMBLK2
  1

  9
$DIMSTYLE
  2
ISO-25
  9
$DIMCLRD
 70
     0
  9
$DIMCLRE
 70
     0
  9
$DIMCLRT
 70
     0
  9
$DIMTFAC
 40
1.0
  9
$DIMGAP
 40
1.524
  9
$DIMJUST
 70
     0
  9
$DIMSD1
 70
     0
  9
$DIMSD2
 70
     0
  9
$DIMTOLJ
 70
     0
  9
$DIMTZIN
 70
     1
  9
$DIMALTZ
 70
     0
  9
$DIMALTTZ
 70
     0
  9
$DIMUPT
 70
     0
  9
$DIMDEC
 70
     2
  9
$DIMTDEC
 70
     2
  9
$DIMALTU
 70
     2
  9
$DIMALTTD
 70
     3
  9
$DIMTXSTY
  7
Standard
  9
$DIMAUNIT
 70
     0
  9
$DIMADEC
 70
     2
  9
$DIMALTRND
 40
0.0
  9
$DIMAZIN
 70
     0
  9
$DIMDSEP
 70
    44
  9
$DIMATFIT
 70
     3
  9
$DIMFRAC
 70
     0
  9
$DIMLDRBLK
  1

  9
$DIMLUNIT
 70
     2
  9
$DIMLWD
 70
    -2
  9
$DIMLWE
 70
    -2
  9
$DIMTMOVE
 70
     0
  9
$LUNITS
 70
     2
  9
$LUPREC
 70
     2
  9
$SKETCHINC
 40
1.0
  9
$FILLETRAD
 40
0.0
  9
$AUNITS
 70
     0
  9
$AUPREC
 70
     2
  9
$MENU
  1
.
  9
$ELEVATION
 40
0.0
  9
$PELEVATION
 40
0.0
  9
$THICKNESS
 40
0.0
  9
$LIMCHECK
 70
     0
  9
$CHAMFERA
 40
0.0
  9
$CHAMFERB
 40
0.0
  9
$CHAMFERC
 40
0.0
  9
$CHAMFERD
 40
0.0
  9
$SKPOLY
 70
     0
  9
$TDCREATE
 40
2461263.417309861
  9
$TDUCREATE
 40
2461263.042309861
  9
$TDUPDATE
 40
2461263.417310243
  9
$TDUUPDATE
 40
2461263.042310243
  9
$TDINDWG
 40
0.0000000116
  9
$TDUSRTIMER
 40
0.0000000116
  9
$USRTIMER
 70
     1
  9
$ANGBASE
 50
0.0
  9
$ANGDIR
 70
     0
  9
$PDMODE
 70
     0
  9
$PDSIZE
 40
-1.0
  9
$PLINEWID
 40
0.0
  9
$SPLFRAME
 70
     0
  9
$SPLINETYPE
 70
     6
  9
$SPLINESEGS
 70
     8
  9
$HANDSEED
  5
D4
  9
$SURFTAB1
 70
     6
  9
$SURFTAB2
 70
     6
  9
$SURFTYPE
 70
     6
  9
$SURFU
 70
     6
  9
$SURFV
 70
     6
  9
$UCSBASE
  2

  9
$UCSNAME
  2

  9
$UCSORG
 10
0.0
 20
0.0
 30
0.0
  9
$UCSXDIR
 10
1.0
 20
0.0
 30
0.0
  9
$UCSYDIR
 10
0.0
 20
1.0
 30
0.0
  9
$UCSORTHOREF
  2

  9
$UCSORTHOVIEW
 70
     0
  9
$UCSORGTOP
 10
0.0
 20
0.0
 30
0.0
  9
$UCSORGBOTTOM
 10
0.0
 20
0.0
 30
0.0
  9
$UCSORGLEFT
 10
0.0
 20
0.0
 30
0.0
  9
$UCSORGRIGHT
 10
0.0
 20
0.0
 30
0.0
  9
$UCSORGFRONT
 10
0.0
 20
0.0
 30
0.0
  9
$UCSORGBACK
 10
0.0
 20
0.0
 30
0.0
  9
$PUCSBASE
  2

  9
$PUCSNAME
  2

  9
$PUCSORG
 10
0.0
 20
0.0
 30
0.0
  9
$PUCSXDIR
 10
1.0
 20
0.0
 30
0.0
  9
$PUCSYDIR
 10
0.0
 20
1.0
 30
0.0
  9
$PUCSORTHOREF
  2

  9
$PUCSORTHOVIEW
 70
     0
  9
$PUCSORGTOP
 10
0.0
 20
0.0
 30
0.0
  9
$PUCSORGBOTTOM
 10
0.0
 20
0.0
 30
0.0
  9
$PUCSORGLEFT
 10
0.0
 20
0.0
 30
0.0
  9
$PUCSORGRIGHT
 10
0.0
 20
0.0
 30
0.0
  9
$PUCSORGFRONT
 10
0.0
 20
0.0
 30
0.0
  9
$PUCSORGBACK
 10
0.0
 20
0.0
 30
0.0
  9
$USERI1
 70
     0
  9
$USERI2
 70
     0
  9
$USERI3
 70
     0
  9
$USERI4
 70
     0
  9
$USERI5
 70
     0
  9
$USERR1
 40
0.0
  9
$USERR2
 40
0.0
  9
$USERR3
 40
0.0
  9
$USERR4
 40
0.0
  9
$USERR5
 40
0.0
  9
$WORLDVIEW
 70
     1
  9
$SHADEDGE
 70
     3
  9
$SHADEDIF
 70
    70
  9
$TILEMODE
 70
     1
  9
$MAXACTVP
 70
    64
  9
$PINSBASE
 10
0.0
 20
0.0
 30
0.0
  9
$PLIMCHECK
 70
     0
  9
$PEXTMIN
 10
1.0000000000E+20
 20
1.0000000000E+20
 30
1.0000000000E+20
  9
$PEXTMAX
 10
-1.0000000000E+20
 20
-1.0000000000E+20
 30
-1.0000000000E+20
  9
$PLIMMIN
 10
0.0
 20
0.0
  9
$PLIMMAX
 10
420.0
 20
297.0
  9
$UNITMODE
 70
     0
  9
$VISRETAIN
 70
     1
  9
$PLINEGEN
 70
     0
  9
$PSLTSCALE
 70
     1
  9
$TREEDEPTH
 70
  3020
  9
$CMLSTYLE
  2
Standard
  9
$CMLJUST
 70
     0
  9
$CMLSCALE
 40
20.0
  9
$PROXYGRAPHICS
 70
     1
  9
$MEASUREMENT
 70
     1
  9
$CELWEIGHT
370
    -1
  9
$ENDCAPS
280
     0
  9
$JOINSTYLE
280
     0
  9
$LWDISPLAY
290
     1
  9
$INSUNITS
 70
     4
  9
$HYPERLINKBASE
  1

  9
$STYLESHEET
  1

  9
$XEDIT
290
     1
  9
$CEPSNTYPE
380
     0
  9
$PSTYLEMODE
290
     1
  9
$FINGERPRINTGUID
  2
{338e78fb-7776-4ae6-b179-2db19dffe95b}
  9
$VERSIONGUID
  2
{FAEB1C32-E019-11D5-929B-00C0DF256EC4}
  9
$EXTNAMES
290
     1
  9
$PSVPSCALE
 40
0.0
  9
$OLESTARTUP
290
     0
  0
ENDSEC
  0
SECTION
  2
CLASSES
  0
CLASS
  1
ACDBDICTIONARYWDFLT
  2
AcDbDictionaryWithDefault
  3
ObjectDBX Classes
 90
        0
280
     0
281
     0
  0
CLASS
  1
VISUALSTYLE
  2
AcDbVisualStyle
  3
ObjectDBX Classes
 90
     4095
280
     0
281
     0
  0
CLASS
  1
MATERIAL
  2
AcDbMaterial
  3
ObjectDBX Classes
 90
     1153
280
     0
281
     0
  0
CLASS
  1
SCALE
  2
AcDbScale
  3
ObjectDBX Classes
 90
     1153
280
     0
281
     0
  0
CLASS
  1
TABLESTYLE
  2
AcDbTableStyle
  3
ObjectDBX Classes
 90
     4095
280
     0
281
     0
  0
CLASS
  1
MLEADERSTYLE
  2
AcDbMLeaderStyle
  3
ACDB_MLEADERSTYLE_CLASS
 90
     4095
280
     0
281
     0
  0
CLASS
  1
SUN
  2
AcDbSun
  3
SCENEOE
 90
     1153
280
     0
281
     0
  0
CLASS
  1
ACDBPLACEHOLDER
  2
AcDbPlaceHolder
  3
ObjectDBX Classes
 90
        0
280
     0
281
     0
  0
CLASS
  1
LAYOUT
  2
AcDbLayout
  3
ObjectDBX Classes
 90
        0
280
     0
281
     0
  0
ENDSEC
  0
SECTION
  2
TABLES
  0
TABLE
  2
VPORT
  5
8
330
0
100
AcDbSymbolTable
 70
     1
  0
VPORT
  5
29
330
8
100
AcDbSymbolTableRecord
100
AcDbViewportTableRecord
  2
*Active
 70
     0
 10
0.0
 20
0.0
 11
1.0
 21
1.0
 12
420.5
 22
297.0
 13
0.0
 23
0.0
 14
10.0
 24
10.0
 15
10.0
 25
10.0
 16
0.0
 26
0.0
 36
1.0
 17
0.0
 27
0.0
 37
0.0
 40
594.0
 41
1.4158249158
 42
50.0
 43
0.0
 44
0.0
 50
0.0
 51
0.0
 71
     0
 72
  2000
 73
     1
 74
     3
 75
     0
 76
     0
 77
     0
 78
     0
281
     0
 65
     1
110
0.0
120
0.0
130
0.0
111
1.0
121
0.0
131
0.0
112
0.0
122
1.0
132
0.0
 79
     0
146
0.0
  0
ENDTAB
  0
TABLE
  2
LTYPE
  5
5
330
0
100
AcDbSymbolTable
 70
     6
  0
LTYPE
  5
14
330
5
100
AcDbSymbolTableRecord
100
AcDbLinetypeTableRecord
  2
ByBlock
 70
     0
  3

 72
    65
 73
     0
 40
0.0
  0
LTYPE
  5
15
330
5
100
AcDbSymbolTableRecord
100
AcDbLinetypeTableRecord
  2
ByLayer
 70
     0
  3

 72
    65
 73
     0
 40
0.0
  0
LTYPE
  5
16
330
5
100
AcDbSymbolTableRecord
100
AcDbLinetypeTableRecord
  2
Continuous
 70
     0
  3
Solid line
 72
    65
 73
     0
 40
0.0
  0
LTYPE
  5
5E
330
5
100
AcDbSymbolTableRecord
100
AcDbLinetypeTableRecord
  2
HIDDEN
 70
     0
  3
Hidden __ __ __ __ __ __ __ __ __ __ __ __ __ __
 72
    65
 73
     2
 40
1.905
 49
1.27
 74
     0
 49
-0.635
 74
     0
  0
LTYPE
  5
5F
330
5
100
AcDbSymbolTableRecord
100
AcDbLinetypeTableRecord
  2
PHANTOM
 70
     0
  3
Phantom ______  __  __  ______  __  __  ______
 72
    65
 73
     6
 40
12.7
 49
6.35
 74
     0
 49
-1.27
 74
     0
 49
1.27
 74
     0
 49
-1.27
 74
     0
 49
1.27
 74
     0
 49
-1.27
 74
     0
  0
LTYPE
  5
60
330
5
100
AcDbSymbolTableRecord
100
AcDbLinetypeTableRecord
  2
CENTER
 70
     0
  3
Center ____ _ ____ _ ____ _ ____ _ ____ _ ____
 72
    65
 73
     4
 40
10.16
 49
6.35
 74
     0
 49
-1.27
 74
     0
 49
1.27
 74
     0
 49
-1.27
 74
     0
  0
LTYPE
  5
61
330
5
100
AcDbSymbolTableRecord
100
AcDbLinetypeTableRecord
  2
CENTERX2
 70
     0
  3
Center (2x) ________  __  ________  __  _____
 72
    65
 73
     4
 40
20.32
 49
12.7
 74
     0
 49
-2.54
 74
     0
 49
2.54
 74
     0
 49
-2.54
 74
     0
  0
LTYPE
  5
62
330
5
100
AcDbSymbolTableRecord
100
AcDbLinetypeTableRecord
  2
DOT2
 70
     0
  3
Dot (.5x) ........................................
 72
    65
 73
     2
 40
0.635
 49
0.0
 74
     0
 49
-0.635
 74
     0
  0
ENDTAB
  0
TABLE
  2
LAYER
  5
2
330
0
100
AcDbSymbolTable
 70
     1
  0
LAYER
  5
10
330
2
100
AcDbSymbolTableRecord
100
AcDbLayerTableRecord
  2
0
 70
     0
 62
     7
  6
Continuous
370
    -3
390
F
  0
ENDTAB
  0
TABLE
  2
STYLE
  5
3
330
0
100
AcDbSymbolTable
 70
     1
  0
STYLE
  5
11
330
3
100
AcDbSymbolTableRecord
100
AcDbTextStyleTableRecord
  2
Standard
 70
     0
 40
0.0
 41
1.0
 50
0.0
 71
     0
 42
3.5
  3
txt
  4
bigfont
  0
ENDTAB
  0
TABLE
  2
VIEW
  5
6
330
0
100
AcDbSymbolTable
 70
     0
  0
ENDTAB
  0
TABLE
  2
UCS
  5
7
330
0
100
AcDbSymbolTable
 70
     0
  0
ENDTAB
  0
TABLE
  2
APPID
  5
9
330
0
100
AcDbSymbolTable
 70
     1
  0
APPID
  5
12
330
9
100
AcDbSymbolTableRecord
100
AcDbRegAppTableRecord
  2
ACAD
 70
     0
  0
ENDTAB
  0
TABLE
  2
DIMSTYLE
  5
A
330
0
100
AcDbSymbolTable
 70
     1
100
AcDbDimStyleTable
  0
DIMSTYLE
105
27
330
A
100
AcDbSymbolTableRecord
100
AcDbDimStyleTableRecord
  2
ISO-25
 70
     0
 41
2.5
 42
0.625
 43
3.75
 44
1.25
 73
     0
 74
     0
 77
     1
 78
     8
140
2.5
141
2.5
143
0.0393700787
147
0.625
171
     3
172
     1
178
     0
271
     2
272
     2
274
     3
278
    44
283
     0
284
     8
340
11
  0
ENDTAB
  0
TABLE
  2
BLOCK_RECORD
  5
1
330
0
100
AcDbSymbolTable
 70
     1
  0
BLOCK_RECORD
  5
1F
330
1
100
AcDbSymbolTableRecord
100
AcDbBlockTableRecord
  2
*Model_Space
340
22
  0
BLOCK_RECORD
  5
1B
330
1
100
AcDbSymbolTableRecord
100
AcDbBlockTableRecord
  2
*Paper_Space
340
1E
  0
BLOCK_RECORD
  5
23
330
1
100
AcDbSymbolTableRecord
100
AcDbBlockTableRecord
  2
*Paper_Space0
340
26
  0
ENDTAB
  0
ENDSEC
  0
SECTION
  2
BLOCKS
  0
BLOCK
  5
20
330
1F
100
AcDbEntity
  8
0
100
AcDbBlockBegin
  2
*Model_Space
 70
     0
 10
0.0
 20
0.0
 30
0.0
  3
*Model_Space
  1

  0
ENDBLK
  5
21
330
1F
100
AcDbEntity
  8
0
100
AcDbBlockEnd
  0
BLOCK
  5
1C
330
1B
100
AcDbEntity
 67
     1
  8
0
100
AcDbBlockBegin
  2
*Paper_Space
 70
     0
 10
0.0
 20
0.0
 30
0.0
  3
*Paper_Space
  1

  0
ENDBLK
  5
1D
330
1B
100
AcDbEntity
 67
     1
  8
0
100
AcDbBlockEnd
  0
BLOCK
  5
24
330
23
100
AcDbEntity
  8
0
100
AcDbBlockBegin
  2
*Paper_Space0
 70
     0
 10
0.0
 20
0.0
 30
0.0
  3
*Paper_Space0
  1

  0
ENDBLK
  5
25
330
23
100
AcDbEntity
  8
0
100
AcDbBlockEnd
  0
ENDSEC
  0
SECTION
  2
ENTITIES
  0
LINE
  5
63
330
1F
100
AcDbEntity
  8
0
  6
Continuous
 62
     7
370
    25
100
AcDbLine
 10
330.2316523517
 20
252.0982686545
 30
0.0
 11
280.2316523517
 21
252.0982686545
 31
0.0
  0
LINE
  5
64
330
1F
100
AcDbEntity
  8
0
  6
Continuous
 62
     7
370
    25
100
AcDbLine
 10
280.2316523517
 20
127.0982686545
 30
0.0
 11
330.2316523517
 21
127.0982686545
 31
0.0
  0
ARC
  5
65
330
1F
100
AcDbEntity
  8
0
  6
Continuous
 62
     7
370
    25
100
AcDbCircle
 10
278.7316523517
 20
143.0982686545
 30
0.0
 40
1.5
100
AcDbArc
 50
0.0
 51
90.0
  0
ARC
  5
66
330
1F
100
AcDbEntity
  8
0
  6
Continuous
 62
     7
370
    25
100
AcDbCircle
 10
278.7316523517
 20
236.0982686545
 30
0.0
 40
1.5
100
AcDbArc
 50
270.0
 51
0.0
  0
LINE
  5
67
330
1F
100
AcDbEntity
  8
0
  6
Continuous
 62
     7
370
    25
100
AcDbLine
 10
278.7316523517
 20
234.5982686545
 30
0.0
 11
271.2316523517
 21
234.5982686545
 31
0.0
  0
LINE
  5
68
330
1F
100
AcDbEntity
  8
0
  6
Continuous
 62
     7
370
    25
100
AcDbLine
 10
271.2316523517
 20
144.5982686545
 30
0.0
 11
278.7316523517
 21
144.5982686545
 31
0.0
  0
LINE
  5
69
330
1F
100
AcDbEntity
  8
0
  6
Continuous
 62
     7
370
    25
100
AcDbLine
 10
270.2316523517
 20
145.5982686545
 30
0.0
 11
271.2316523517
 21
144.5982686545
 31
0.0
  0
LINE
  5
6A
330
1F
100
AcDbEntity
  8
0
  6
Continuous
 62
     7
370
    25
100
AcDbLine
 10
271.2316523517
 20
234.5982686545
 30
0.0
 11
270.2316523517
 21
233.5982686545
 31
0.0
  0
LINE
  5
6B
330
1F
100
AcDbEntity
  8
0
  6
Continuous
 62
     7
370
    25
100
AcDbLine
 10
280.2316523517
 20
189.5982686545
 30
0.0
 11
280.2316523517
 21
252.0982686545
 31
0.0
  0
LINE
  5
6C
330
1F
100
AcDbEntity
  8
0
  6
Continuous
 62
     7
370
    25
100
AcDbLine
 10
330.2316523517
 20
189.5982686545
 30
0.0
 11
330.2316523517
 21
252.0982686545
 31
0.0
  0
LINE
  5
6D
330
1F
100
AcDbEntity
  8
0
  6
Continuous
 62
     7
370
    25
100
AcDbLine
 10
280.2316523517
 20
127.0982686545
 30
0.0
 11
280.2316523517
 21
189.5982686545
 31
0.0
  0
LINE
  5
6E
330
1F
100
AcDbEntity
  8
0
  6
Continuous
 62
     7
370
    25
100
AcDbLine
 10
330.2316523517
 20
127.0982686545
 30
0.0
 11
330.2316523517
 21
189.5982686545
 31
0.0
  0
LINE
  5
6F
330
1F
100
AcDbEntity
  8
0
  6
Continuous
 62
     7
370
    25
100
AcDbLine
 10
271.2316523517
 20
189.5982686545
 30
0.0
 11
271.2316523517
 21
234.5982686545
 31
0.0
  0
LINE
  5
70
330
1F
100
AcDbEntity
  8
0
  6
Continuous
 62
     7
370
    25
100
AcDbLine
 10
271.2316523517
 20
144.5982686545
 30
0.0
 11
271.2316523517
 21
189.5982686545
 31
0.0
  0
LINE
  5
71
330
1F
100
AcDbEntity
  8
0
  6
Continuous
 62
     7
370
    25
100
AcDbLine
 10
270.2316523517
 20
145.5982686545
 30
0.0
 11
270.2316523517
 21
189.5982686545
 31
0.0
  0
LINE
  5
72
330
1F
100
AcDbEntity
  8
0
  6
Continuous
 62
     7
370
    25
100
AcDbLine
 10
270.2316523517
 20
189.5982686545
 30
0.0
 11
270.2316523517
 21
233.5982686545
 31
0.0
  0
LINE
  5
73
330
1F
100
AcDbEntity
  8
0
  6
HIDDEN
 62
     7
370
    18
100
AcDbLine
 10
318.2316523517
 20
149.0982686545
 30
0.0
 11
318.2316523517
 21
189.5982686545
 31
0.0
  0
LINE
  5
74
330
1F
100
AcDbEntity
  8
0
  6
HIDDEN
 62
     7
370
    18
100
AcDbLine
 10
318.2316523517
 20
189.5982686545
 30
0.0
 11
318.2316523517
 21
230.0982686545
 31
0.0
  0
SPLINE
  5
75
330
1F
100
AcDbEntity
  8
0
  6
HIDDEN
 62
     7
370
    18
100
AcDbSpline
210
0.0
220
0.0
230
1.0
 70
    24
 71
     3
 72
     8
 73
     4
 74
     0
 42
0.00000001
 43
0.00000001
 40
0.0
 40
0.0
 40
0.0
 40
0.0
 40
1.0
 40
1.0
 40
1.0
 40
1.0
 10
270.2316523516816
 20
198.5982686545082
 30
0.0
 10
270.5652536800847
 20
198.5982686545082
 30
0.0
 10
270.8985963603647
 20
198.5982686545082
 30
0.0
 10
271.2316523516816
 20
198.5982686545082
 30
0.0
  0
SPLINE
  5
76
330
1F
100
AcDbEntity
  8
0
  6
HIDDEN
 62
     7
370
    18
100
AcDbSpline
210
0.0
220
0.0
230
1.0
 70
    24
 71
     3
 72
     8
 73
     4
 74
     0
 42
0.00000001
 43
0.00000001
 40
0.0
 40
0.0
 40
0.0
 40
0.0
 40
1.0
 40
1.0
 40
1.0
 40
1.0
 10
270.2316523516815
 20
180.5982686545082
 30
0.0
 10
270.5652536800847
 20
180.5982686545082
 30
0.0
 10
270.8985963603647
 20
180.5982686545082
 30
0.0
 10
271.2316523516816
 20
180.5982686545082
 30
0.0
  0
LINE
  5
77
330
1F
100
AcDbEntity
  8
0
  6
HIDDEN
 62
     7
370
    18
100
AcDbLine
 10
318.2316523517
 20
180.5982686545
 30
0.0
 11
271.2316523517
 21
180.5982686545
 31
0.0
  0
LINE
  5
78
330
1F
100
AcDbEntity
  8
0
  6
HIDDEN
 62
     7
370
    18
100
AcDbLine
 10
318.2316523517
 20
198.5982686545
 30
0.0
 11
271.2316523517
 21
198.5982686545
 31
0.0
  0
LINE
  5
79
330
1F
100
AcDbEntity
  8
0
  6
HIDDEN
 62
     7
370
    18
100
AcDbLine
 10
318.2316523517
 20
149.0982686545
 30
0.0
 11
330.2316523517
 21
149.0982686545
 31
0.0
  0
LINE
  5
7A
330
1F
100
AcDbEntity
  8
0
  6
HIDDEN
 62
     7
370
    18
100
AcDbLine
 10
330.2316523517
 20
230.0982686545
 30
0.0
 11
318.2316523517
 21
230.0982686545
 31
0.0
  0
LINE
  5
7B
330
1F
100
AcDbEntity
  8
0
  6
HIDDEN
 62
     7
370
    18
100
AcDbLine
 10
270.2316523517
 20
158.5982686545
 30
0.0
 11
271.2316523517
 21
159.5982686545
 31
0.0
  0
LINE
  5
7C
330
1F
100
AcDbEntity
  8
0
  6
HIDDEN
 62
     7
370
    18
100
AcDbLine
 10
271.2316523517
 20
219.5982686545
 30
0.0
 11
270.2316523517
 21
220.5982686545
 31
0.0
  0
LINE
  5
7D
330
1F
100
AcDbEntity
  8
0
  6
HIDDEN
 62
     7
370
    18
100
AcDbLine
 10
271.2316523517
 20
159.5982686545
 30
0.0
 11
318.2316523517
 21
159.5982686545
 31
0.0
  0
LINE
  5
7E
330
1F
100
AcDbEntity
  8
0
  6
HIDDEN
 62
     7
370
    18
100
AcDbLine
 10
318.2316523517
 20
219.5982686545
 30
0.0
 11
271.2316523517
 21
219.5982686545
 31
0.0
  0
LINE
  5
7F
330
1F
100
AcDbEntity
  8
0
  6
Continuous
 62
     7
370
    25
100
AcDbLine
 10
280.2316523517
 20
328.88
 30
0.0
 11
280.2316523517
 21
453.88
 31
0.0
  0
LINE
  5
80
330
1F
100
AcDbEntity
  8
0
  6
Continuous
 62
     7
370
    25
100
AcDbLine
 10
330.2316523517
 20
453.88
 30
0.0
 11
280.2316523517
 21
453.88
 31
0.0
  0
LINE
  5
81
330
1F
100
AcDbEntity
  8
0
  6
Continuous
 62
     7
370
    25
100
AcDbLine
 10
330.2316523517
 20
328.88
 30
0.0
 11
280.2316523517
 21
328.88
 31
0.0
  0
LINE
  5
82
330
1F
100
AcDbEntity
  8
0
  6
Continuous
 62
     7
370
    25
100
AcDbLine
 10
330.2316523517
 20
328.88
 30
0.0
 11
330.2316523517
 21
453.88
 31
0.0
  0
ARC
  5
83
330
1F
100
AcDbEntity
  8
0
  6
Continuous
 62
     7
370
    25
100
AcDbCircle
 10
278.7316523517
 20
437.88
 30
0.0
 40
1.5
100
AcDbArc
 50
270.0
 51
0.0
  0
ARC
  5
84
330
1F
100
AcDbEntity
  8
0
  6
Continuous
 62
     7
370
    25
100
AcDbCircle
 10
278.7316523517
 20
344.88
 30
0.0
 40
1.5
100
AcDbArc
 50
0.0
 51
90.0
  0
LINE
  5
85
330
1F
100
AcDbEntity
  8
0
  6
Continuous
 62
     7
370
    25
100
AcDbLine
 10
271.2316523517
 20
346.38
 30
0.0
 11
271.2316523517
 21
436.38
 31
0.0
  0
LINE
  5
86
330
1F
100
AcDbEntity
  8
0
  6
Continuous
 62
     7
370
    25
100
AcDbLine
 10
270.2316523517
 20
347.38
 30
0.0
 11
271.2316523517
 21
346.38
 31
0.0
  0
LINE
  5
87
330
1F
100
AcDbEntity
  8
0
  6
Continuous
 62
     7
370
    25
100
AcDbLine
 10
270.2316523517
 20
347.38
 30
0.0
 11
270.2316523517
 21
435.38
 31
0.0
  0
LINE
  5
88
330
1F
100
AcDbEntity
  8
0
  6
Continuous
 62
     7
370
    25
100
AcDbLine
 10
270.2316523517
 20
435.38
 30
0.0
 11
271.2316523517
 21
436.38
 31
0.0
  0
LINE
  5
89
330
1F
100
AcDbEntity
  8
0
  6
Continuous
 62
     7
370
    25
100
AcDbLine
 10
278.7316523517
 20
436.38
 30
0.0
 11
271.2316523517
 21
436.38
 31
0.0
  0
LINE
  5
8A
330
1F
100
AcDbEntity
  8
0
  6
Continuous
 62
     7
370
    25
100
AcDbLine
 10
278.7316523517
 20
346.38
 30
0.0
 11
271.2316523517
 21
346.38
 31
0.0
  0
LINE
  5
8B
330
1F
100
AcDbEntity
  8
0
  6
HIDDEN
 62
     7
370
    18
100
AcDbLine
 10
330.2316523517
 20
431.88
 30
0.0
 11
318.2316523517
 21
431.88
 31
0.0
  0
LINE
  5
8C
330
1F
100
AcDbEntity
  8
0
  6
HIDDEN
 62
     7
370
    18
100
AcDbLine
 10
318.2316523517
 20
350.88
 30
0.0
 11
318.2316523517
 21
431.88
 31
0.0
  0
LINE
  5
8D
330
1F
100
AcDbEntity
  8
0
  6
HIDDEN
 62
     7
370
    18
100
AcDbLine
 10
330.2316523517
 20
350.88
 30
0.0
 11
318.2316523517
 21
350.88
 31
0.0
  0
SPLINE
  5
8E
330
1F
100
AcDbEntity
  8
0
  6
HIDDEN
 62
     7
370
    18
100
AcDbSpline
210
0.0
220
0.0
230
1.0
 70
     8
 71
     3
 72
     8
 73
     4
 74
     0
 42
0.00000001
 43
0.00000001
 40
0.0
 40
0.0
 40
0.0
 40
0.0
 40
1.0
 40
1.0
 40
1.0
 40
1.0
 10
270.2316523516816
 20
421.0447939483827
 30
0.0
 10
270.5652536800847
 20
420.6961772953059
 30
0.0
 10
270.8985963603647
 20
420.3473135879852
 30
0.0
 10
271.2316523516816
 20
419.9981760425084
 30
0.0
  0
LINE
  5
8F
330
1F
100
AcDbEntity
  8
0
  6
HIDDEN
 62
     7
370
    18
100
AcDbLine
 10
318.2316523517
 20
419.9981760425
 30
0.0
 11
271.2316523517
 21
419.9981760425
 31
0.0
  0
LINE
  5
90
330
1F
100
AcDbEntity
  8
0
  6
HIDDEN
 62
     7
370
    18
100
AcDbLine
 10
318.2316523517
 20
425.78
 30
0.0
 11
270.2316523517
 21
425.78
 31
0.0
  0
LINE
  5
91
330
1F
100
AcDbEntity
  8
0
  6
HIDDEN
 62
     7
370
    18
100
AcDbLine
 10
270.2316523517
 20
360.38
 30
0.0
 11
271.2316523517
 21
361.38
 31
0.0
  0
LINE
  5
92
330
1F
100
AcDbEntity
  8
0
  6
HIDDEN
 62
     7
370
    18
100
AcDbLine
 10
271.2316523517
 20
361.38
 30
0.0
 11
318.2316523517
 21
361.38
 31
0.0
  0
ARC
  5
93
330
1F
100
AcDbEntity
  8
0
  6
Continuous
 62
     7
370
    25
100
AcDbCircle
 10
482.38
 20
189.5982686545
 30
0.0
 40
62.5
100
AcDbArc
 50
0.0
 51
180.0
  0
ARC
  5
94
330
1F
100
AcDbEntity
  8
0
  6
Continuous
 62
     7
370
    25
100
AcDbCircle
 10
482.38
 20
189.5982686545
 30
0.0
 40
62.5
100
AcDbArc
 50
180.0
 51
0.0
  0
ARC
  5
95
330
1F
100
AcDbEntity
  8
0
  6
Continuous
 62
     7
370
    25
100
AcDbCircle
 10
482.38
 20
189.5982686545
 30
0.0
 40
40.5
100
AcDbArc
 50
0.0
 51
180.0
  0
ARC
  5
96
330
1F
100
AcDbEntity
  8
0
  6
Continuous
 62
     7
370
    25
100
AcDbCircle
 10
482.38
 20
189.5982686545
 30
0.0
 40
40.5
100
AcDbArc
 50
180.0
 51
0.0
  0
LINE
  5
97
330
1F
100
AcDbEntity
  8
0
  6
Continuous
 62
     7
370
    25
100
AcDbLine
 10
516.78
 20
198.5982686545
 30
0.0
 11
516.78
 21
180.5982686545
 31
0.0
  0
LINE
  5
98
330
1F
100
AcDbEntity
  8
0
  6
Continuous
 62
     7
370
    25
100
AcDbLine
 10
510.9981760425
 20
198.5982686545
 30
0.0
 11
516.78
 21
198.5982686545
 31
0.0
  0
ARC
  5
99
330
1F
100
AcDbEntity
  8
0
  6
Continuous
 62
     7
370
    25
100
AcDbCircle
 10
482.38
 20
189.5982686545
 30
0.0
 40
30.0
100
AcDbArc
 50
17.4576031237
 51
342.5423968763
  0
LINE
  5
9A
330
1F
100
AcDbEntity
  8
0
  6
Continuous
 62
     7
370
    25
100
AcDbLine
 10
510.9981760425
 20
180.5982686545
 30
0.0
 11
516.78
 21
180.5982686545
 31
0.0
  0
ARC
  5
9B
330
1F
100
AcDbEntity
  8
0
  6
HIDDEN
 62
     7
370
    18
100
AcDbCircle
 10
482.38
 20
189.5982686545
 30
0.0
 40
45.00000000000006
100
AcDbArc
 50
180.0
 51
0.0
  0
ARC
  5
9C
330
1F
100
AcDbEntity
  8
0
  6
HIDDEN
 62
     7
370
    18
100
AcDbCircle
 10
482.38
 20
189.5982686545
 30
0.0
 40
45.00000000000006
100
AcDbArc
 50
0.0
 51
180.0
  0
ARC
  5
9D
330
1F
100
AcDbEntity
  8
0
  6
HIDDEN
 62
     7
370
    18
100
AcDbCircle
 10
482.38
 20
189.5982686545
 30
0.0
 40
30.99999999999997
100
AcDbArc
 50
16.8772694386
 51
343.1227305614
  0
ARC
  5
9E
330
1F
100
AcDbEntity
  8
0
  6
HIDDEN
 62
     7
370
    18
100
AcDbCircle
 10
482.38
 20
189.5982686545
 30
0.0
 40
44.00000000000006
100
AcDbArc
 50
0.0
 51
180.0
  0
ARC
  5
9F
330
1F
100
AcDbEntity
  8
0
  6
HIDDEN
 62
     7
370
    18
100
AcDbCircle
 10
482.38
 20
189.5982686545
 30
0.0
 40
44.00000000000006
100
AcDbArc
 50
180.0
 51
0.0
  0
LINE
  5
A0
330
1F
100
AcDbEntity
  8
0
  6
Continuous
 62
     7
370
    25
100
AcDbLine
 10
544.88
 20
375.0491837623
 30
0.0
 11
544.88
 21
415.8762243566
 31
0.0
  0
LINE
  5
A1
330
1F
100
AcDbEntity
  8
0
  6
Continuous
 62
     7
370
    25
100
AcDbLine
 10
419.88
 20
415.8762243566
 30
0.0
 11
419.88
 21
375.0491837623
 31
0.0
  0
LWPOLYLINE
  5
A2
330
1F
100
AcDbEntity
  8
0
  6
Continuous
 62
     7
370
    25
100
AcDbPolyline
 90
       70
 70
   128
 43
0.0
 10
438.1858261758
 20
390.3634708621
 10
436.2201456572
 20
391.551113149
 10
434.3501384856
 20
392.7891729434
 10
432.5796805365
 20
394.0750841775
 10
430.9124413543
 20
395.4061816037
 10
429.3518765468
 20
396.7797063195
 10
427.901220623
 20
398.192811485
 10
426.5634802886
 20
399.6425682242
 10
425.3414282149
 20
401.1259716946
 10
424.2375972914
 20
402.6399473161
 10
423.2542753762
 20
404.1813571431
 10
422.3935005542
 20
405.7470063682
 10
421.6570569126
 20
407.3336499444
 10
421.0464708434
 20
408.9379993106
 10
420.5630078794
 20
410.5567292077
 10
420.2076700714
 20
412.1864845709
 10
419.9811939113
 20
413.8238874832
 10
419.8840488055
 20
415.465544177
 10
419.9164361021
 20
417.1080520683
 10
420.0782886735
 20
418.7480068085
 10
420.3692710555
 20
420.382009341
 10
420.7887801427
 20
422.0066729461
 10
421.3359464384
 20
423.6186302604
 10
422.0096358569
 20
425.214540256
 10
422.8084520741
 20
426.791095166
 10
423.7307394213
 20
428.3450273394
 10
424.7745863172
 20
429.8731160146
 10
425.9378292297
 20
431.3721939944
 10
427.2180571602
 20
432.8391542108
 10
428.6126166408
 20
434.2709561647
 10
430.1186172341
 20
435.664632228
 10
431.7329375238
 20
437.0172937941
 10
433.4522315846
 20
438.3261372654
 10
435.272935917
 20
439.588449864
 10
437.1912768334
 20
440.8016152542
 10
439.203278279
 20
441.9631189655
 10
441.3047700739
 20
443.0705536041
 10
443.4913965552
 20
444.1216238426
 10
445.7586256057
 20
445.1141511773
 10
448.1017580469
 20
446.0460784439
 10
450.5159373791
 20
446.9154740808
 10
452.996159847
 20
447.7205361328
 10
455.5372848106
 20
448.4595959857
 10
458.1340454006
 20
449.1311218252
 10
460.7810594339
 20
449.7337218115
 10
463.4728405699
 20
450.2661469641
 10
466.2038096811
 20
450.7272937505
 10
468.9683064169
 20
451.1162063736
 10
471.7606009357
 20
451.4320787526
 10
474.5749057807
 20
451.6742561937
 10
477.4053878754
 20
451.8422367473
 10
480.2461806134
 20
451.9356722479
 10
483.0913960179
 20
451.9543690363
 10
485.9351369455
 20
451.8982883604
 10
488.7715093089
 20
451.7675464561
 10
491.5946342932
 20
451.5624143059
 10
494.3986605408
 20
451.2833170775
 10
497.1777762792
 20
450.9308332426
 10
499.9262213664
 20
450.5056933777
 10
502.6382992305
 20
450.00877865
 10
505.3083886758
 20
449.4411189914
 10
507.9309555343
 20
448.803890963
 10
510.5005641356
 20
448.0984153173
 10
513.0118885736
 20
447.3261542604
 10
515.4597237448
 20
446.488708421
 10
517.8389961371
 20
445.5878135338
 10
520.1447743451
 20
444.6253368408
 10
522.3722792913
 20
443.603273222
 10
524.5168941315
 20
442.5237410603
 10
526.5741738242
 20
441.388977851
  0
LWPOLYLINE
  5
A3
330
1F
100
AcDbEntity
  8
0
  6
Continuous
 62
     7
370
    25
100
AcDbPolyline
 90
       70
 70
   128
 43
0.0
 10
526.5741738242
 20
441.388977851
 10
528.5398543428
 20
440.2013355642
 10
530.4098615144
 20
438.9632757697
 10
532.1803194635
 20
437.6773645357
 10
533.8475586457
 20
436.3462671094
 10
535.4081234532
 20
434.9727423937
 10
536.858779377
 20
433.5596372281
 10
538.1965197114
 20
432.109880489
 10
539.4185717851
 20
430.6264770186
 10
540.5224027086
 20
429.112501397
 10
541.5057246238
 20
427.5710915701
 10
542.3664994458
 20
426.0054423449
 10
543.1029430874
 20
424.4187987687
 10
543.7135291566
 20
422.8144494025
 10
544.1969921206
 20
421.1957195054
 10
544.5523299286
 20
419.5659641423
 10
544.7788060887
 20
417.92856123
 10
544.8759511945
 20
416.2869045361
 10
544.8435638979
 20
414.6443966449
 10
544.6817113265
 20
413.0044419047
 10
544.3907289445
 20
411.3704393721
 10
543.9712198573
 20
409.745775767
 10
543.4240535616
 20
408.1338184528
 10
542.7503641431
 20
406.5379084571
 10
541.9515479259
 20
404.9613535472
 10
541.0292605787
 20
403.4074213737
 10
539.9854136828
 20
401.8793326985
 10
538.8221707703
 20
400.3802547187
 10
537.5419428398
 20
398.9132945023
 10
536.1473833592
 20
397.4814925484
 10
534.6413827659
 20
396.0878164852
 10
533.0270624762
 20
394.735154919
 10
531.3077684154
 20
393.4263114477
 10
529.487064083
 20
392.1639988491
 10
527.5687231666
 20
390.9508334589
 10
525.556721721
 20
389.7893297476
 10
523.4552299261
 20
388.6818951091
 10
521.2686034448
 20
387.6308248706
 10
519.0013743943
 20
386.6382975358
 10
516.6582419531
 20
385.7063702692
 10
514.2440626209
 20
384.8369746323
 10
511.763840153
 20
384.0319125804
 10
509.2227151894
 20
383.2928527275
 10
506.6259545994
 20
382.6213268879
 10
503.9789405661
 20
382.0187269016
 10
501.2871594301
 20
381.486301749
 10
498.5561903189
 20
381.0251549627
 10
495.7916935831
 20
380.6362423396
 10
492.9993990643
 20
380.3203699606
 10
490.1850942193
 20
380.0781925194
 10
487.3546121246
 20
379.9102119659
 10
484.5138193866
 20
379.8167764653
 10
481.6686039821
 20
379.7980796769
 10
478.8248630545
 20
379.8541603527
 10
475.9884906911
 20
379.984902257
 10
473.1653657068
 20
380.1900344072
 10
470.3613394592
 20
380.4691316356
 10
467.5822237208
 20
380.8216154706
 10
464.8337786336
 20
381.2467553355
 10
462.1217007695
 20
381.7436700631
 10
459.4516113242
 20
382.3113297218
 10
456.8290444657
 20
382.9485577501
 10
454.2594358644
 20
383.6540333958
 10
451.7481114264
 20
384.4262944528
 10
449.3002762552
 20
385.2637402921
 10
446.9210038629
 20
386.1646351794
 10
444.6152256549
 20
387.1271118724
 10
442.3877207087
 20
388.1491754912
 10
440.2431058685
 20
389.2287076528
 10
438.1858261758
 20
390.3634708621
  0
LWPOLYLINE
  5
A4
330
1F
100
AcDbEntity
  8
0
  6
Continuous
 62
     7
370
    25
100
AcDbPolyline
 90
       57
 70
   128
 43
0.0
 10
453.7421753619
 20
399.3439600922
 10
452.1814923222
 20
400.2969398532
 10
450.71582496
 20
401.298937807
 10
449.3497848071
 20
402.3468012974
 10
448.0876699313
 20
403.4372333582
 10
446.9334514127
 20
404.5668030866
 10
445.89076085
 20
405.7319564384
 10
444.9628789333
 20
406.9290274101
 10
444.1527251225
 20
408.1542495735
 10
443.4628484612
 20
409.4037679265
 10
442.8954195566
 20
410.673651022
 10
442.45222375
 20
411.9599033379
 10
442.1346554993
 20
413.2584778487
 10
441.9437139918
 20
414.5652887584
 10
441.88
 20
415.8762243566
 10
441.9437139918
 20
417.1871599547
 10
442.1346554993
 20
418.4939708645
 10
442.45222375
 20
419.7925453752
 10
442.8954195566
 20
421.0787976912
 10
443.4628484612
 20
422.3486807867
 10
444.1527251225
 20
423.5981991396
 10
444.9628789333
 20
424.8234213031
 10
445.89076085
 20
426.0204922748
 10
446.9334514127
 20
427.1856456266
 10
448.0876699313
 20
428.315215355
 10
449.3497848072
 20
429.4056474157
 10
450.71582496
 20
430.4535109061
 10
452.1814923222
 20
431.45550886
 10
453.7421753619
 20
432.408488621
 10
455.3929635929
 20
433.3094517623
 10
457.1286630247
 20
434.1555635205
 10
458.9438125047
 20
434.9441617149
 10
460.8327009011
 20
435.672765124
 10
462.7893850722
 20
436.3390812919
 10
464.8077085657
 20
436.9410137412
 10
466.8813209892
 20
437.47666857
 10
469.0036979908
 20
437.9443604099
 10
471.1681617873
 20
438.3426177293
 10
473.3679021748
 20
438.6701874634
 10
475.5959979562
 20
438.9260389566
 10
477.8454387178
 20
439.1093672055
 10
480.1091468869
 20
439.2195953915
 10
482.38
 20
439.256376696
 10
484.6508531131
 20
439.2195953915
 10
486.9145612822
 20
439.1093672055
 10
489.1640020438
 20
438.9260389566
 10
491.3920978252
 20
438.6701874634
 10
493.5918382127
 20
438.3426177293
 10
495.7563020092
 20
437.9443604099
 10
497.8786790108
 20
437.47666857
 10
499.9522914343
 20
436.9410137412
 10
501.9706149278
 20
436.3390812919
 10
503.9272990989
 20
435.672765124
 10
505.8161874953
 20
434.9441617149
 10
507.6313369753
 20
434.1555635205
 10
509.3670364071
 20
433.3094517623
 10
511.0178246381
 20
432.408488621
  0
LWPOLYLINE
  5
A5
330
1F
100
AcDbEntity
  8
0
  6
Continuous
 62
     7
370
    25
100
AcDbPolyline
 90
       57
 70
   128
 43
0.0
 10
511.0178246381
 20
432.408488621
 10
512.5785076778
 20
431.45550886
 10
514.04417504
 20
430.4535109061
 10
515.4102151929
 20
429.4056474157
 10
516.6723300687
 20
428.315215355
 10
517.8265485873
 20
427.1856456266
 10
518.86923915
 20
426.0204922748
 10
519.7971210667
 20
424.8234213031
 10
520.6072748775
 20
423.5981991396
 10
521.2971515388
 20
422.3486807867
 10
521.8645804434
 20
421.0787976912
 10
522.30777625
 20
419.7925453752
 10
522.6253445007
 20
418.4939708645
 10
522.8162860082
 20
417.1871599547
 10
522.88
 20
415.8762243566
 10
522.8162860082
 20
414.5652887584
 10
522.6253445007
 20
413.2584778487
 10
522.30777625
 20
411.9599033379
 10
521.8645804434
 20
410.673651022
 10
521.2971515388
 20
409.4037679265
 10
520.6072748775
 20
408.1542495735
 10
519.7971210667
 20
406.9290274101
 10
518.86923915
 20
405.7319564384
 10
517.8265485873
 20
404.5668030866
 10
516.6723300687
 20
403.4372333582
 10
515.4102151929
 20
402.3468012974
 10
514.04417504
 20
401.298937807
 10
512.5785076778
 20
400.2969398532
 10
511.0178246381
 20
399.3439600922
 10
509.3670364071
 20
398.4429969509
 10
507.6313369753
 20
397.5968851927
 10
505.8161874953
 20
396.8082869982
 10
503.9272990989
 20
396.0796835891
 10
501.9706149278
 20
395.4133674213
 10
499.9522914343
 20
394.8114349719
 10
497.8786790108
 20
394.2757801431
 10
495.7563020092
 20
393.8080883033
 10
493.5918382127
 20
393.4098309839
 10
491.3920978252
 20
393.0822612498
 10
489.1640020438
 20
392.8264097566
 10
486.9145612822
 20
392.6430815077
 10
484.6508531131
 20
392.5328533216
 10
482.38
 20
392.4960720171
 10
480.1091468869
 20
392.5328533216
 10
477.8454387178
 20
392.6430815077
 10
475.5959979562
 20
392.8264097566
 10
473.3679021748
 20
393.0822612498
 10
471.1681617873
 20
393.4098309839
 10
469.0036979908
 20
393.8080883033
 10
466.8813209892
 20
394.2757801431
 10
464.8077085657
 20
394.8114349719
 10
462.7893850722
 20
395.4133674213
 10
460.8327009011
 20
396.0796835891
 10
458.9438125047
 20
396.8082869982
 10
457.1286630247
 20
397.5968851927
 10
455.3929635929
 20
398.4429969509
 10
453.7421753619
 20
399.3439600922
  0
LWPOLYLINE
  5
A6
330
1F
100
AcDbEntity
  8
0
  6
Continuous
 62
     7
370
    25
100
AcDbPolyline
 90
       53
 70
   128
 43
0.0
 10
544.88
 20
375.0491837623
 10
544.8435638979
 20
373.8173560506
 10
544.6817113265
 20
372.1774013104
 10
544.3907289445
 20
370.5433987778
 10
543.9712198573
 20
368.9187351727
 10
543.4240535616
 20
367.3067778585
 10
542.7503641431
 20
365.7108678628
 10
541.9515479259
 20
364.1343129529
 10
541.0292605787
 20
362.5803807794
 10
539.9854136828
 20
361.0522921042
 10
538.8221707703
 20
359.5532141244
 10
537.5419428398
 20
358.086253908
 10
536.1473833592
 20
356.6544519541
 10
534.6413827659
 20
355.2607758909
 10
533.0270624762
 20
353.9081143248
 10
531.3077684154
 20
352.5992708534
 10
529.487064083
 20
351.3369582548
 10
527.5687231666
 20
350.1237928646
 10
525.556721721
 20
348.9622891533
 10
523.4552299261
 20
347.8548545148
 10
521.2686034448
 20
346.8037842763
 10
519.0013743943
 20
345.8112569415
 10
516.6582419531
 20
344.8793296749
 10
514.2440626209
 20
344.009934038
 10
511.763840153
 20
343.2048719861
 10
509.2227151894
 20
342.4658121332
 10
506.6259545994
 20
341.7942862936
 10
503.9789405661
 20
341.1916863073
 10
501.2871594301
 20
340.6592611548
 10
498.5561903189
 20
340.1981143684
 10
495.7916935831
 20
339.8092017453
 10
492.9993990643
 20
339.4933293663
 10
490.1850942193
 20
339.2511519252
 10
487.3546121246
 20
339.0831713716
 10
484.5138193866
 20
338.989735871
 10
481.6686039821
 20
338.9710390826
 10
478.8248630545
 20
339.0271197585
 10
475.9884906911
 20
339.1578616628
 10
473.1653657068
 20
339.362993813
 10
470.3613394592
 20
339.6420910413
 10
467.5822237208
 20
339.9945748763
 10
464.8337786336
 20
340.4197147412
 10
462.1217007695
 20
340.9166294688
 10
459.4516113242
 20
341.4842891275
 10
456.8290444657
 20
342.1215171558
 10
454.2594358644
 20
342.8269928015
 10
451.7481114264
 20
343.5992538585
 10
449.3002762552
 20
344.4366996978
 10
446.9210038629
 20
345.3375945851
 10
444.6152256549
 20
346.3000712781
 10
442.3877207087
 20
347.3221348969
 10
440.2431058685
 20
348.4016670585
 10
438.1858261758
 20
349.5364302678
  0
LWPOLYLINE
  5
A7
330
1F
100
AcDbEntity
  8
0
  6
Continuous
 62
     7
370
    25
100
AcDbPolyline
 90
       12
 70
   128
 43
0.0
 10
511.0178246381
 20
422.6099988784
 10
512.5785076778
 20
421.6570191173
 10
514.04417504
 20
420.6550211635
 10
515.4102151929
 20
419.6071576731
 10
516.6723300687
 20
418.5167256124
 10
517.8265485873
 20
417.3871558839
 10
518.86923915
 20
416.2220025321
 10
519.7971210667
 20
415.0249315604
 10
520.6072748775
 20
413.799709397
 10
521.2971515388
 20
412.550191044
 10
521.8645804434
 20
411.2803079486
 10
521.980840801
 20
410.9769794853
  0
LWPOLYLINE
  5
A8
330
1F
100
AcDbEntity
  8
0
  6
Continuous
 62
     7
370
    25
100
AcDbPolyline
 90
       40
 70
   128
 43
0.0
 10
442.779159199
 20
410.9769794853
 10
442.8954195566
 20
411.2803079486
 10
443.4628484612
 20
412.550191044
 10
444.1527251225
 20
413.799709397
 10
444.9628789333
 20
415.0249315604
 10
445.89076085
 20
416.2220025321
 10
446.9334514127
 20
417.3871558839
 10
448.0876699313
 20
418.5167256124
 10
449.3497848072
 20
419.6071576731
 10
450.71582496
 20
420.6550211635
 10
452.1814923222
 20
421.6570191173
 10
453.7421753619
 20
422.6099988784
 10
455.3929635929
 20
423.5109620196
 10
457.1286630247
 20
424.3570737778
 10
458.9438125047
 20
425.1456719723
 10
460.8327009011
 20
425.8742753814
 10
462.7893850722
 20
426.5405915492
 10
464.8077085657
 20
427.1425239986
 10
466.8813209892
 20
427.6781788274
 10
469.0036979908
 20
428.1458706672
 10
471.1681617873
 20
428.5441279867
 10
473.3679021748
 20
428.8716977208
 10
475.5959979562
 20
429.127549214
 10
477.8454387178
 20
429.3108774628
 10
480.1091468869
 20
429.4211056489
 10
482.38
 20
429.4578869534
 10
484.6508531131
 20
429.4211056489
 10
486.9145612822
 20
429.3108774628
 10
489.1640020438
 20
429.127549214
 10
491.3920978252
 20
428.8716977208
 10
493.5918382127
 20
428.5441279867
 10
495.7563020092
 20
428.1458706672
 10
497.8786790108
 20
427.6781788274
 10
499.9522914343
 20
427.1425239986
 10
501.9706149278
 20
426.5405915492
 10
503.9272990989
 20
425.8742753814
 10
505.8161874953
 20
425.1456719723
 10
507.6313369753
 20
424.3570737778
 10
509.3670364071
 20
423.5109620196
 10
511.0178246381
 20
422.6099988784
  0
LINE
  5
A9
330
1F
100
AcDbEntity
  8
0
  6
Continuous
 62
     7
370
    25
100
AcDbLine
 10
500.3405122421
 20
423.7937906405
 30
0.0
 11
513.0684343035
 21
416.4461176341
 31
0.0
  0
LINE
  5
AA
330
1F
100
AcDbEntity
  8
0
  6
Continuous
 62
     7
370
    25
100
AcDbLine
 10
496.2521453142
 20
421.4336266505
 30
0.0
 11
500.3405122421
 21
423.7937906405
 31
0.0
  0
ARC
  5
AB
330
1F
100
AcDbEntity
  8
0
  6
Continuous
 62
     7
370
    25
100
AcDbCircle
 10
501.0648586176
 20
406.0930520754
 30
0.0
 40
11.24886683930047
100
AcDbArc
 50
316.7707091487
 51
45.2798217182
  0
LWPOLYLINE
  5
AC
330
1F
100
AcDbEntity
  8
0
  6
Continuous
 62
     7
370
    25
100
AcDbPolyline
 90
       40
 70
   128
 43
0.0
 10
455.4990080356
 20
398.3884817869
 10
455.0700257666
 20
398.9099385575
 10
454.3189109419
 20
399.952625454
 10
453.6871015254
 20
401.0213540571
 10
453.1772837378
 20
402.1115805267
 10
452.7916251365
 20
403.2186696217
 10
452.5317653998
 20
404.3379144073
 10
452.3988093554
 20
405.4645562671
 10
452.3933222834
 20
406.5938051352
 10
452.5153275129
 20
407.7208598618
 10
452.7643063226
 20
408.8409286253
 10
453.1392001463
 20
409.9492493064
 10
453.6384150738
 20
411.0411097339
 10
454.259828627
 20
412.1118677197
 10
455.0007987847
 20
413.1569707956
 10
455.8581752148
 20
414.1719755685
 10
456.8283126687
 20
415.1525666121
 10
457.9070864795
 20
416.0945748147
 10
459.0899100987
 20
416.9939951047
 10
460.3717545961
 20
417.8470034786
 10
461.7471700414
 20
418.649973259
 10
463.210308675
 20
419.3994905144
 10
464.7549497707
 20
420.0923685738
 10
466.3745260839
 20
420.7256615749
 10
468.0621517731
 20
421.2966769894
 10
469.8106516759
 20
421.8029870702
 10
471.612591815
 20
422.2424391734
 10
473.4603110051
 20
422.6131649106
 10
475.3459534254
 20
422.9135880927
 10
477.2615020191
 20
423.1424314309
 10
479.1988125797
 20
423.2987219679
 10
481.1496483768
 20
423.3817952137
 10
483.1057151755
 20
423.3912979717
 10
485.0586965007
 20
423.3271898395
 10
487.0002889957
 20
423.1897433813
 10
488.9222377248
 20
422.9795429688
 10
490.8163712703
 20
422.6974822967
 10
492.6746364746
 20
422.344760583
 10
494.4891326789
 20
421.9228774704
 10
496.2521453142
 20
421.4336266505
  0
LINE
  5
AD
330
1F
100
AcDbEntity
  8
0
  6
Continuous
 62
     7
370
    25
100
AcDbLine
 10
508.9800673755
 20
414.0859536441
 30
0.0
 11
513.0684343035
 21
416.4461176341
 31
0.0
  0
LWPOLYLINE
  5
AE
330
1F
100
AcDbEntity
  8
0
  6
Continuous
 62
     7
370
    25
100
AcDbPolyline
 90
       19
 70
   128
 43
0.0
 10
438.1858261758
 20
349.5364302678
 10
436.2201456572
 20
350.7240725547
 10
434.3501384856
 20
351.9621323491
 10
432.5796805365
 20
353.2480435832
 10
430.9124413543
 20
354.5791410094
 10
429.3518765468
 20
355.9526657252
 10
427.901220623
 20
357.3657708908
 10
426.5634802886
 20
358.8155276299
 10
425.3414282149
 20
360.2989311003
 10
424.2375972914
 20
361.8129067218
 10
423.2542753762
 20
363.3543165488
 10
422.3935005542
 20
364.9199657739
 10
421.6570569126
 20
366.5066093501
 10
421.0464708434
 20
368.1109587163
 10
420.5630078794
 20
369.7296886135
 10
420.2076700714
 20
371.3594439766
 10
419.9811939113
 20
372.9968468889
 10
419.8840488055
 20
374.6385035827
 10
419.88
 20
375.0491837623
  0
LINE
  5
AF
330
1F
100
AcDbEntity
  8
0
  6
Continuous
 62
     7
370
    25
100
AcDbLine
 10
508.9800673755
 20
414.0859536441
 30
0.0
 11
508.9800673755
 21
398.2459066289
 31
0.0
  0
LINE
  5
B0
330
1F
100
AcDbEntity
  8
0
  6
Continuous
 62
     7
370
    25
100
AcDbLine
 10
496.2521453142
 20
421.4336266505
 30
0.0
 11
496.2521453142
 21
393.9103428268
 31
0.0
  0
LINE
  5
B1
330
1F
100
AcDbEntity
  8
0
  6
Continuous
 62
     7
370
    25
100
AcDbLine
 10
500.3405122421
 20
423.7937906405
 30
0.0
 11
500.3405122421
 21
394.9208394409
 31
0.0
  0
LWPOLYLINE
  5
B2
330
1F
100
AcDbEntity
  8
0
  6
HIDDEN
 62
     7
370
    18
100
AcDbPolyline
 90
       19
 70
   128
 43
0.0
 10
526.5741738242
 20
400.5619372567
 10
528.5398543428
 20
399.3742949699
 10
530.4098615144
 20
398.1362351754
 10
532.1803194635
 20
396.8503239414
 10
533.8475586457
 20
395.5192265151
 10
535.4081234532
 20
394.1457017994
 10
536.858779377
 20
392.7325966338
 10
538.1965197114
 20
391.2828398947
 10
539.4185717851
 20
389.7994364243
 10
540.5224027086
 20
388.2854608028
 10
541.5057246238
 20
386.7440509758
 10
542.3664994458
 20
385.1784017507
 10
543.1029430874
 20
383.5917581744
 10
543.7135291566
 20
381.9874088082
 10
544.1969921206
 20
380.3686789111
 10
544.5523299286
 20
378.738923548
 10
544.7788060887
 20
377.1015206357
 10
544.8759511945
 20
375.4598639418
 10
544.88
 20
375.0491837623
  0
LWPOLYLINE
  5
B3
330
1F
100
AcDbEntity
  8
0
  6
HIDDEN
 62
     7
370
    18
100
AcDbPolyline
 90
       47
 70
   128
 43
0.0
 10
521.980840801
 20
410.9769794853
 10
522.30777625
 20
409.9940556326
 10
522.6253445007
 20
408.6954811218
 10
522.8162860082
 20
407.3886702121
 10
522.88
 20
406.0777346139
 10
522.8162860082
 20
404.7667990158
 10
522.6253445007
 20
403.459988106
 10
522.30777625
 20
402.1614135953
 10
521.8645804434
 20
400.8751612793
 10
521.2971515388
 20
399.6052781839
 10
520.6072748775
 20
398.3557598309
 10
519.7971210667
 20
397.1305376675
 10
518.86923915
 20
395.9334666958
 10
517.8265485873
 20
394.7683133439
 10
516.6723300687
 20
393.6387436155
 10
515.4102151929
 20
392.5483115548
 10
514.04417504
 20
391.5004480644
 10
512.5785076778
 20
390.4984501105
 10
511.0178246381
 20
389.5454703495
 10
509.3670364071
 20
388.6445072082
 10
507.6313369753
 20
387.7983954501
 10
505.8161874953
 20
387.0097972556
 10
503.9272990989
 20
386.2811938465
 10
501.9706149278
 20
385.6148776786
 10
499.9522914343
 20
385.0129452293
 10
497.8786790108
 20
384.4772904005
 10
495.7563020092
 20
384.0095985607
 10
493.5918382127
 20
383.6113412412
 10
491.3920978252
 20
383.2837715071
 10
489.1640020438
 20
383.0279200139
 10
486.9145612822
 20
382.8445917651
 10
484.6508531131
 20
382.734363579
 10
482.38
 20
382.6975822745
 10
480.1091468869
 20
382.734363579
 10
477.8454387178
 20
382.8445917651
 10
475.5959979562
 20
383.0279200139
 10
473.3679021748
 20
383.2837715071
 10
471.1681617873
 20
383.6113412412
 10
469.0036979908
 20
384.0095985607
 10
466.8813209892
 20
384.4772904005
 10
464.8077085657
 20
385.0129452293
 10
462.7893850722
 20
385.6148776786
 10
460.8327009011
 20
386.2811938465
 10
458.9438125047
 20
387.0097972556
 10
457.1286630247
 20
387.7983954501
 10
455.3929635929
 20
388.6445072082
 10
453.7421753619
 20
389.5454703495
  0
LWPOLYLINE
  5
B4
330
1F
100
AcDbEntity
  8
0
  6
HIDDEN
 62
     7
370
    18
100
AcDbPolyline
 90
       19
 70
   128
 43
0.0
 10
453.7421753619
 20
389.5454703495
 10
452.1814923222
 20
390.4984501105
 10
450.71582496
 20
391.5004480644
 10
449.3497848071
 20
392.5483115548
 10
448.0876699313
 20
393.6387436155
 10
446.9334514127
 20
394.7683133439
 10
445.89076085
 20
395.9334666958
 10
444.9628789333
 20
397.1305376675
 10
444.1527251225
 20
398.3557598309
 10
443.4628484612
 20
399.6052781839
 10
442.8954195566
 20
400.8751612793
 10
442.45222375
 20
402.1614135953
 10
442.1346554993
 20
403.459988106
 10
441.9437139918
 20
404.7667990158
 10
441.88
 20
406.0777346139
 10
441.9437139918
 20
407.3886702121
 10
442.1346554993
 20
408.6954811218
 10
442.45222375
 20
409.9940556326
 10
442.779159199
 20
410.9769794853
  0
LWPOLYLINE
  5
B5
330
1F
100
AcDbEntity
  8
0
  6
HIDDEN
 62
     7
370
    18
100
AcDbPolyline
 90
       36
 70
   128
 43
0.0
 10
509.2609919644
 20
398.3884817869
 10
508.7428379002
 20
397.8122167691
 10
507.7537030156
 20
396.8379711961
 10
506.6566884977
 20
395.9030096917
 10
505.456458448
 20
395.0113073675
 10
504.1581158023
 20
394.1666554133
 10
502.7671806349
 20
393.3726449777
 10
501.2895666896
 20
392.6326519006
 10
499.7315562363
 20
391.9498223597
 10
498.0997733611
 20
391.3270594945
 10
496.4011558034
 20
390.7670110633
 10
494.642925459
 20
390.2720581856
 10
492.8325576753
 20
389.8443052186
 10
490.9777494688
 20
389.4855708102
 10
489.0863868005
 20
389.1973801669
 10
487.1665110473
 20
388.9809585691
 10
485.2262848133
 20
388.8372261617
 10
483.2739572253
 20
388.7667940419
 10
481.3178288607
 20
388.7699616611
 10
479.3662164563
 20
388.8467155518
 10
477.4274175487
 20
388.9967293847
 10
475.5096751963
 20
389.2193653562
 10
473.6211429328
 20
389.5136769004
 10
471.7698501013
 20
389.878412713
 10
469.9636677166
 20
390.3120220716
 10
468.2102750004
 20
390.8126614293
 10
466.5171267324
 20
391.3782022519
 10
464.891421555
 20
392.0062400682
 10
463.3400713673
 20
392.6941046931
 10
461.8696719387
 20
393.4388715795
 10
460.4864748654
 20
394.2373742533
 10
459.1963609918
 20
395.0862177753
 10
458.0048154064
 20
395.9817931758
 10
456.9169041219
 20
396.9202927982
 10
455.9372525362
 20
397.8977264881
 10
455.4990080356
 20
398.3884817869
  0
LWPOLYLINE
  5
B6
330
1F
100
AcDbEntity
  8
0
  6
HIDDEN
 62
     7
370
    18
100
AcDbPolyline
 90
       53
 70
   128
 43
0.0
 10
419.88
 20
375.0491837623
 10
419.9164361021
 20
376.281011474
 10
420.0782886735
 20
377.9209662142
 10
420.3692710555
 20
379.5549687467
 10
420.7887801427
 20
381.1796323518
 10
421.3359464384
 20
382.7915896661
 10
422.0096358569
 20
384.3874996617
 10
422.8084520741
 20
385.9640545717
 10
423.7307394213
 20
387.5179867451
 10
424.7745863172
 20
389.0460754203
 10
425.9378292297
 20
390.5451534001
 10
427.2180571602
 20
392.0121136165
 10
428.6126166408
 20
393.4439155704
 10
430.1186172341
 20
394.8375916337
 10
431.7329375238
 20
396.1902531998
 10
433.4522315846
 20
397.4990966711
 10
435.272935917
 20
398.7614092697
 10
437.1912768334
 20
399.9745746599
 10
439.203278279
 20
401.1360783712
 10
441.3047700739
 20
402.2435130098
 10
443.4913965552
 20
403.2945832483
 10
445.7586256057
 20
404.287110583
 10
448.1017580469
 20
405.2190378496
 10
450.5159373791
 20
406.0884334865
 10
452.996159847
 20
406.8934955385
 10
455.5372848106
 20
407.6325553914
 10
458.1340454006
 20
408.3040812309
 10
460.7810594339
 20
408.9066812172
 10
463.4728405699
 20
409.4391063698
 10
466.2038096811
 20
409.9002531562
 10
468.9683064169
 20
410.2891657793
 10
471.7606009357
 20
410.6050381583
 10
474.5749057807
 20
410.8472155994
 10
477.4053878754
 20
411.015196153
 10
480.2461806134
 20
411.1086316536
 10
483.0913960179
 20
411.127328442
 10
485.9351369455
 20
411.0712477661
 10
488.7715093089
 20
410.9405058618
 10
491.5946342932
 20
410.7353737116
 10
494.3986605408
 20
410.4562764832
 10
497.1777762792
 20
410.1037926483
 10
499.9262213664
 20
409.6786527834
 10
502.6382992305
 20
409.1817380558
 10
505.3083886758
 20
408.6140783971
 10
507.9309555343
 20
407.9768503687
 10
510.5005641356
 20
407.2713747231
 10
513.0118885736
 20
406.4991136661
 10
515.4597237448
 20
405.6616678268
 10
517.8389961371
 20
404.7607729395
 10
520.1447743451
 20
403.7982962465
 10
522.3722792913
 20
402.7762326277
 10
524.5168941315
 20
401.696700466
 10
526.5741738242
 20
400.5619372567
  0
LWPOLYLINE
  5
B7
330
1F
100
AcDbEntity
  8
0
  6
HIDDEN
 62
     7
370
    18
100
AcDbPolyline
 90
       88
 70
   128
 43
0.0
 10
508.9800673755
 20
375.7085354854
 10
509.8275664816
 20
374.6907699549
 10
510.5583686514
 20
373.6432835925
 10
511.1693667834
 20
372.5705299243
 10
511.6579631387
 20
371.4770699034
 10
512.0220803858
 20
370.3675525188
 10
512.2601704322
 20
369.2466950296
 10
512.3712210069
 20
368.1192629086
 10
512.3547599637
 20
366.9900495817
 10
512.210857289
 20
365.8638560478
 10
511.9401248039
 20
364.7454704666
 10
511.543713563
 20
363.6396478015
 10
511.023308961
 20
362.5510896029
 10
510.3811235663
 20
361.4844240191
 10
509.6198877146
 20
360.4441861189
 10
508.7428379002
 20
359.4347986104
 10
507.7537030156
 20
358.4605530375
 10
506.6566884977
 20
357.525591533
 10
505.456458448
 20
356.6338892089
 10
504.1581158023
 20
355.7892372546
 10
502.7671806349
 20
354.9952268191
 10
501.2895666896
 20
354.2552337419
 10
499.7315562363
 20
353.572404201
 10
498.0997733611
 20
352.9496413359
 10
496.4011558034
 20
352.3895929047
 10
494.642925459
 20
351.894640027
 10
492.8325576753
 20
351.46688706
 10
490.9777494688
 20
351.1081526515
 10
489.0863868005
 20
350.8199620082
 10
487.1665110473
 20
350.6035404105
 10
485.2262848133
 20
350.4598080031
 10
483.2739572253
 20
350.3893758832
 10
481.3178288607
 20
350.3925435025
 10
479.3662164563
 20
350.4692973931
 10
477.4274175487
 20
350.619311226
 10
475.5096751963
 20
350.8419471976
 10
473.6211429328
 20
351.1362587418
 10
471.7698501013
 20
351.5009945543
 10
469.9636677166
 20
351.934603913
 10
468.2102750004
 20
352.4352432707
 10
466.5171267324
 20
353.0007840932
 10
464.891421555
 20
353.6288219096
 10
463.3400713673
 20
354.3166865344
 10
461.8696719387
 20
355.0614534209
 10
460.4864748654
 20
355.8599560947
 10
459.1963609918
 20
356.7087996167
 10
458.0048154064
 20
357.6043750172
 10
456.9169041219
 20
358.5428746396
 10
455.9372525362
 20
359.5203083294
 10
455.0700257666
 20
360.5325203989
 10
454.3189109419
 20
361.5752072954
 10
453.6871015254
 20
362.6439358985
 10
453.1772837378
 20
363.7341623681
 10
452.7916251365
 20
364.8412514631
 10
452.5317653998
 20
365.9604962486
 10
452.3988093554
 20
367.0871381085
 10
452.3933222834
 20
368.2163869766
 10
452.5153275129
 20
369.3434417031
 10
452.7643063226
 20
370.4635104667
 10
453.1392001463
 20
371.5718311477
 10
453.6384150738
 20
372.6636915752
 10
454.259828627
 20
373.7344495611
 10
455.0007987847
 20
374.779552637
 10
455.8581752148
 20
375.7945574098
 10
456.8283126687
 20
376.7751484534
 10
457.9070864795
 20
377.7171566561
 10
459.0899100987
 20
378.6165769461
 10
460.3717545961
 20
379.4695853199
 10
461.7471700414
 20
380.2725551003
 10
463.210308675
 20
381.0220723558
 10
464.7549497707
 20
381.7149504152
 10
466.3745260839
 20
382.3482434163
 10
468.0621517731
 20
382.9192588308
 10
469.8106516759
 20
383.4255689116
 10
471.612591815
 20
383.8650210147
 10
473.4603110051
 20
384.235746752
 10
475.3459534254
 20
384.536169934
 10
477.2615020191
 20
384.7650132723
 10
479.1988125797
 20
384.9213038092
 10
481.1496483768
 20
385.0043770551
 10
483.1057151755
 20
385.013879813
 10
485.0586965007
 20
384.9497716808
 10
487.0002889957
 20
384.8123252227
 10
488.9222377248
 20
384.6021248102
 10
490.8163712703
 20
384.3200641381
 10
492.6746364746
 20
383.9673424244
 10
494.4891326789
 20
383.5454593118
 10
496.2521453142
 20
383.0562084919
  0
LINE
  5
B8
330
1F
100
AcDbEntity
  8
0
  6
HIDDEN
 62
     7
370
    18
100
AcDbLine
 10
508.9800673755
 20
398.2459066289
 30
0.0
 11
508.9800673755
 21
375.7085354854
 31
0.0
  0
LINE
  5
B9
330
1F
100
AcDbEntity
  8
0
  6
HIDDEN
 62
     7
370
    18
100
AcDbLine
 10
496.2521453142
 20
393.9103428268
 30
0.0
 11
496.2521453142
 21
383.0562084919
 31
0.0
  0
ARC
  5
BA
330
1F
100
AcDbEntity
  8
0
  6
HIDDEN
 62
     7
370
    18
100
AcDbCircle
 10
512.3505618929
 20
373.8243383507
 30
0.0
 40
15.02940438464127
100
AcDbArc
 50
354.0378959686
 51
5.7638797014
  0
LWPOLYLINE
  5
BB
330
1F
100
AcDbEntity
  8
0
  6
HIDDEN
 62
     7
370
    18
100
AcDbPolyline
 90
       60
 70
   128
 43
0.0
 10
514.1998051534
 20
386.0694989713
 10
515.8482260393
 20
385.065816406
 10
517.4017776023
 20
384.0129094443
 10
518.8560561317
 20
382.9137626655
 10
520.206939317
 20
381.7714917205
 10
521.450597933
 20
380.5893345004
 10
522.5835066943
 20
379.3706419584
 10
523.6024542479
 20
378.1188686107
 10
524.5045522763
 20
376.8375627451
 10
525.2872436846
 20
375.5303563621
 10
525.9483098489
 20
374.2009548803
 10
526.4858769054
 20
372.8531266326
 10
526.8984210619
 20
371.4906921846
 10
527.1847729171
 20
370.1175135048
 10
527.3441207756
 20
368.7374830174
 10
527.3760129485
 20
367.3545125686
 10
527.2803590341
 20
365.9725223385
 10
527.0574301738
 20
364.5954297286
 10
526.7078582835
 20
363.2271382574
 10
526.2326342629
 20
361.8715264959
 10
525.6331051861
 20
360.5324370727
 10
524.9109704833
 20
359.2136657824
 10
524.0682771238
 20
357.9189508255
 10
523.1074138136
 20
356.6519622122
 10
522.0311042239
 20
355.4162913594
 10
520.8423992715
 20
354.2154409103
 10
519.5446684694
 20
353.052814806
 10
518.1415903768
 20
351.9317086365
 10
516.6371421709
 20
350.8553002992
 10
515.0355883736
 20
349.8266409902
 10
513.3414687632
 20
348.8486465563
 10
511.5595855056
 20
347.9240892289
 10
509.6949895427
 20
347.0555897661
 10
507.7529662743
 20
346.2456100242
 10
505.7390205763
 20
345.4964459786
 10
503.6588611965
 20
344.8102212162
 10
501.5183845729
 20
344.1888809157
 10
499.3236581188
 20
343.6341863337
 10
497.080903025
 20
343.1477098122
 10
494.7964766243
 20
342.7308303218
 10
492.4768543716
 20
342.3847295527
 10
490.1286114882
 20
342.1103885652
 10
487.7584043237
 20
341.9085850084
 10
485.3729514878
 20
341.7798909167
 10
482.9790148057
 20
341.7246710873
 10
480.5833801511
 20
341.7430820469
 10
478.1928382107
 20
341.8350716075
 10
475.8141652352
 20
342.0003790148
 10
473.4541038318
 20
342.2385356871
 10
471.1193438508
 20
342.5488665432
 10
468.816503423
 20
342.9304919168
 10
466.5521102
 20
343.3823300491
 10
464.3325828503
 20
343.903100156
 10
462.1642128652
 20
344.4913260579
 10
460.0531467251
 20
345.1453403648
 10
458.0053684764
 20
345.8632892018
 10
456.026682769
 20
346.6431374651
 10
454.1226984024
 20
347.4826745901
 10
452.2988124273
 20
348.3795208175
 10
450.5601948466
 20
349.3311339393
  0
LINE
  5
BC
330
1F
100
AcDbEntity
  8
0
  6
HIDDEN
 62
     7
370
    18
100
AcDbLine
 10
451.2673016278
 20
348.9227971833
 30
0.0
 11
450.5601948466
 21
349.3311339393
 31
0.0
  0
LWPOLYLINE
  5
BD
330
1F
100
AcDbEntity
  8
0
  6
HIDDEN
 62
     7
370
    18
100
AcDbPolyline
 90
       59
 70
   128
 43
0.0
 10
513.4926983722
 20
384.8447541035
 10
515.1314764527
 20
383.8460250103
 10
516.6741888098
 20
382.7975427172
 10
518.1163104023
 20
381.7023826033
 10
519.4536112391
 20
380.563756962
 10
520.6821687865
 20
379.3850055785
 10
521.7983794734
 20
378.1695859336
 10
522.7989692616
 20
376.9210630627
 10
523.6810032489
 20
375.6430990983
 10
524.4418942776
 20
374.339442529
 10
525.0794105231
 20
373.0139172042
 10
525.5916820407
 20
371.6704111179
 10
525.9772062495
 20
370.3128650051
 10
526.2348523406
 20
368.9452607823
 10
526.3638645938
 20
367.5716098685
 10
526.3638645938
 20
366.1959414184
 10
526.2348523406
 20
364.8222905045
 10
525.9772062495
 20
363.4546862818
 10
525.5916820407
 20
362.0971401689
 10
525.0794105231
 20
360.7536340827
 10
524.4418942776
 20
359.4281087578
 10
523.6810032489
 20
358.1244521886
 10
522.7989692616
 20
356.8464882242
 10
521.7983794734
 20
355.5979653532
 10
520.6821687865
 20
354.3825457084
 10
519.4536112391
 20
353.2037943248
 10
518.1163104023
 20
352.0651686835
 10
516.6741888098
 20
350.9700085697
 10
515.1314764527
 20
349.9215262765
 10
513.4926983722
 20
348.9227971833
 10
511.7626613867
 20
347.9767507346
 10
509.9464399928
 20
347.0861618476
 10
508.0493614807
 20
346.2536427729
 10
506.0769903087
 20
345.4816354324
 10
504.0351117811
 20
344.7724042568
 10
501.9297150796
 20
344.1280295431
 10
499.7669756953
 20
343.5504013535
 10
497.5532373156
 20
343.041213971
 10
495.2949932166
 20
342.60196093
 10
492.9988672172
 20
342.2339306351
 10
490.6715942506
 20
341.9382025828
 10
488.3200006095
 20
341.7156441944
 10
485.9509839232
 20
341.5669082718
 10
483.5714929257
 20
341.4924310834
 10
481.1885070742
 20
341.4924310834
 10
478.8090160768
 20
341.5669082718
 10
476.4399993905
 20
341.7156441944
 10
474.0884057494
 20
341.9382025828
 10
471.7611327828
 20
342.2339306351
 10
469.4650067834
 20
342.60196093
 10
467.2067626844
 20
343.041213971
 10
464.9930243047
 20
343.5504013535
 10
462.8302849204
 20
344.1280295431
 10
460.7248882189
 20
344.7724042568
 10
458.6830096913
 20
345.4816354324
 10
456.7106385193
 20
346.2536427729
 10
454.8135600072
 20
347.0861618476
 10
452.9973386133
 20
347.9767507346
 10
451.2673016278
 20
348.9227971833
  0
SPLINE
  5
BE
330
1F
100
AcDbEntity
  8
0
  6
HIDDEN
 62
     7
370
    18
100
AcDbSpline
210
0.0
220
0.0
230
1.0
 70
     8
 71
     3
 72
     8
 73
     4
 74
     0
 42
0.00000001
 43
0.00000001
 40
0.0
 40
0.0
 40
0.0
 40
0.0
 40
1.0
 40
1.0
 40
1.0
 40
1.0
 10
496.9922159327242
 20
382.666901354134
 30
0.0
 10
496.745706733299
 20
382.7969937219304
 30
0.0
 10
496.4990228401427
 20
382.9267740444338
 30
0.0
 10
496.2521453141692
 20
383.0562084918525
 30
0.0
  0
SPLINE
  5
BF
330
1F
100
AcDbEntity
  8
0
  6
HIDDEN
 62
     7
370
    18
100
AcDbSpline
210
0.0
220
0.0
230
1.0
 70
     8
 71
     3
 72
     8
 73
     4
 74
     0
 42
0.00000001
 43
0.00000001
 40
0.0
 40
0.0
 40
0.0
 40
0.0
 40
1.0
 40
1.0
 40
1.0
 40
1.0
 10
509.720137994082
 20
375.3192283477297
 30
0.0
 10
509.4736287946569
 20
375.449320715526
 30
0.0
 10
509.2269449015005
 20
375.5791010380294
 30
0.0
 10
508.980067375527
 20
375.7085354854481
 30
0.0
  0
LWPOLYLINE
  5
C0
330
1F
100
AcDbEntity
  8
0
  6
HIDDEN
 62
     7
370
    18
100
AcDbPolyline
 90
       89
 70
   128
 43
0.0
 10
509.7201379941
 20
375.3192283477
 10
510.6077513405
 20
374.2810380797
 10
511.3772230181
 20
373.2118880331
 10
512.0253325553
 20
372.1162529241
 10
512.5493674181
 20
370.9987183166
 10
512.947134362
 20
369.8639614305
 10
513.2169686123
 20
368.7167315665
 10
513.3577408311
 20
367.5618302281
 10
513.3688618441
 20
366.4040910263
 10
513.2502851065
 20
365.2483594496
 10
513.0025068977
 20
364.0994725838
 10
512.6265642446
 20
362.9622388677
 10
512.1240305806
 20
361.8414179679
 10
511.497009161
 20
360.7417008587
 10
510.7481242599
 20
359.6676901883
 10
509.8805101869
 20
358.623881016
 10
508.897798169
 20
357.6146419986
 10
507.8041011531
 20
356.6441971063
 10
506.6039965915
 20
355.7166079442
 10
505.3025072845
 20
354.8357567533
 10
503.9050803582
 20
354.005330162
 10
502.4175644664
 20
353.2288037564
 10
500.8461853126
 20
352.5094275342
 10
499.1975195935
 20
351.8502123023
 10
497.4784674732
 20
351.2539170756
 10
495.6962237042
 20
350.7230375298
 10
493.8582475154
 20
350.2597955562
 10
491.9722313924
 20
349.8661299625
 10
490.0460688825
 20
349.5436883582
 10
488.087821558
 20
349.2938202587
 10
486.1056852755
 20
349.1175714375
 10
484.1079558744
 20
349.0156795493
 10
482.1029944558
 20
348.9885710424
 10
480.0991923892
 20
349.0363593741
 10
478.1049361915
 20
349.1588445357
 10
476.1285724277
 20
349.3555138899
 10
474.1783727772
 20
349.6255443159
 10
472.2624994149
 20
349.9678056549
 10
470.3889708497
 20
350.3808654398
 10
468.5656283648
 20
350.8629948904
 10
466.8001031994
 20
351.4121761495
 10
465.0997846099
 20
352.0261107274
 10
463.4717889432
 20
352.7022291224
 10
461.9229298532
 20
353.4377015748
 10
460.4596897832
 20
354.2294499102
 10
459.088192835
 20
355.0741604224
 10
457.8141791378
 20
355.9682977428
 10
456.6429808239
 20
356.9081196365
 10
455.5794997121
 20
357.8896926649
 10
454.6281867921
 20
358.9089086483
 10
453.7930235961
 20
359.9615018597
 10
453.0775055343
 20
361.0430668786
 10
452.4846272661
 20
362.1490770286
 10
452.0168701661
 20
363.2749033229
 10
451.6761919392
 20
364.4158338384
 10
451.4640184267
 20
365.5670934361
 10
451.3812376388
 20
366.7238637466
 10
451.4281960381
 20
367.8813033368
 10
451.6046970896
 20
369.0345679721
 10
451.910002083
 20
370.1788308916
 10
452.3428332247
 20
371.3093030093
 10
452.9013789855
 20
372.4212529577
 10
453.5833016827
 20
373.5100268903
 10
454.3857472638
 20
374.5710679593
 10
455.3053572515
 20
375.599935387
 10
456.3382828
 20
376.5923230525
 10
457.480200804
 20
377.5440775135
 10
458.7263319915
 20
378.45121539
 10
460.0714609269
 20
379.3099400359
 10
461.5099578393
 20
380.116657429
 10
463.0358021842
 20
380.8679912133
 10
464.6426078422
 20
381.5607968299
 10
466.323649846
 20
382.192174678
 10
468.0718925269
 20
382.7594822504
 10
469.880018961
 20
383.2603451936
 10
471.7404615928
 20
383.6926672448
 10
473.6454339077
 20
384.0546390055
 10
475.586963021
 20
384.3447455146
 10
477.5569230467
 20
384.5617725888
 10
479.5470691068
 20
384.704811904
 10
481.5490718387
 20
384.7732647975
 10
483.5545522561
 20
384.7668447734
 10
485.5551168173
 20
384.6855787013
 10
487.5423925553
 20
384.5298067043
 10
489.5080621205
 20
384.3001807353
 10
491.4438985918
 20
383.9976618483
 10
493.3417999088
 20
383.6235161764
 10
495.1938227809
 20
383.1793096321
 10
496.9922159327
 20
382.6669013541
  0
ARC
  5
C1
330
1F
100
AcDbEntity
  8
0
  6
HIDDEN
 62
     7
370
    18
100
AcDbCircle
 10
452.4094381071
 20
373.8244067382
 30
0.0
 40
15.02940438464043
100
AcDbArc
 50
174.0378959686
 51
185.7638797014
  0
LWPOLYLINE
  5
C2
330
1F
100
AcDbEntity
  8
0
  6
HIDDEN
 62
     7
370
    18
100
AcDbPolyline
 90
       60
 70
   128
 43
0.0
 10
450.5601948466
 20
349.3311339393
 10
448.9117739607
 20
350.3348165047
 10
447.3582223977
 20
351.3877234664
 10
445.9039438683
 20
352.4868702452
 10
444.553060683
 20
353.6291411901
 10
443.309402067
 20
354.8112984102
 10
442.1764933057
 20
356.0299909523
 10
441.1575457521
 20
357.2817642999
 10
440.2554477237
 20
358.5630701655
 10
439.4727563154
 20
359.8702765485
 10
438.8116901511
 20
361.1996780303
 10
438.2741230946
 20
362.547506278
 10
437.8615789381
 20
363.909940726
 10
437.5752270829
 20
365.2831194058
 10
437.4158792244
 20
366.6631498933
 10
437.3839870515
 20
368.046120342
 10
437.4796409659
 20
369.4281105721
 10
437.7025698262
 20
370.805203182
 10
438.0521417165
 20
372.1734946532
 10
438.5273657371
 20
373.5291064148
 10
439.1268948139
 20
374.8681958379
 10
439.8490295167
 20
376.1869671282
 10
440.6917228762
 20
377.4816820851
 10
441.6525861864
 20
378.7486706984
 10
442.7288957761
 20
379.9843415513
 10
443.9176007285
 20
381.1851920003
 10
445.2153315306
 20
382.3478181046
 10
446.6184096232
 20
383.4689242741
 10
448.1228578291
 20
384.5453326115
 10
449.7244116264
 20
385.5739919204
 10
451.4185312368
 20
386.5519863543
 10
453.2004144944
 20
387.4765436818
 10
455.0650104573
 20
388.3450431445
 10
457.0070337257
 20
389.1550228865
 10
459.0209794237
 20
389.9041869321
 10
461.1011388035
 20
390.5904116944
 10
463.2416154271
 20
391.2117519949
 10
465.4363418812
 20
391.7664465769
 10
467.679096975
 20
392.2529230984
 10
469.9635233757
 20
392.6698025888
 10
472.2831456284
 20
393.0159033579
 10
474.6313885118
 20
393.2902443455
 10
477.0015956763
 20
393.4920479022
 10
479.3870485122
 20
393.6207419939
 10
481.7809851943
 20
393.6759618233
 10
484.1766198489
 20
393.6575508638
 10
486.5671617893
 20
393.5655613031
 10
488.9458347648
 20
393.4002538958
 10
491.3058961682
 20
393.1620972236
 10
493.6406561492
 20
392.8517663674
 10
495.943496577
 20
392.4701409939
 10
498.2078898
 20
392.0183028615
 10
500.4274171497
 20
391.4975327547
 10
502.5957871348
 20
390.9093068527
 10
504.7068532749
 20
390.2552925459
 10
506.7546315236
 20
389.5373437088
 10
508.733317231
 20
388.7574954455
 10
510.6373015976
 20
387.9179583205
 10
512.4611875727
 20
387.0211120931
 10
514.1998051534
 20
386.0694989713
  0
LWPOLYLINE
  5
C3
330
1F
100
AcDbEntity
  8
0
  6
HIDDEN
 62
     7
370
    18
100
AcDbPolyline
 90
       59
 70
   128
 43
0.0
 10
451.2673016278
 20
348.9227971833
 10
449.6285235473
 20
349.9215262765
 10
448.0858111902
 20
350.9700085697
 10
446.6436895977
 20
352.0651686835
 10
445.3063887609
 20
353.2037943248
 10
444.0778312135
 20
354.3825457084
 10
442.9616205266
 20
355.5979653532
 10
441.9610307384
 20
356.8464882242
 10
441.0789967511
 20
358.1244521886
 10
440.3181057224
 20
359.4281087578
 10
439.6805894769
 20
360.7536340827
 10
439.1683179593
 20
362.0971401689
 10
438.7827937505
 20
363.4546862818
 10
438.5251476594
 20
364.8222905045
 10
438.3961354062
 20
366.1959414184
 10
438.3961354062
 20
367.5716098685
 10
438.5251476594
 20
368.9452607824
 10
438.7827937505
 20
370.3128650051
 10
439.1683179593
 20
371.6704111179
 10
439.6805894769
 20
373.0139172042
 10
440.3181057224
 20
374.339442529
 10
441.0789967511
 20
375.6430990983
 10
441.9610307384
 20
376.9210630627
 10
442.9616205266
 20
378.1695859336
 10
444.0778312135
 20
379.3850055785
 10
445.3063887609
 20
380.563756962
 10
446.6436895977
 20
381.7023826033
 10
448.0858111902
 20
382.7975427172
 10
449.6285235473
 20
383.8460250103
 10
451.2673016278
 20
384.8447541035
 10
452.9973386133
 20
385.7908005523
 10
454.8135600072
 20
386.6813894393
 10
456.7106385193
 20
387.513908514
 10
458.6830096913
 20
388.2859158544
 10
460.7248882189
 20
388.9951470301
 10
462.8302849204
 20
389.6395217437
 10
464.9930243047
 20
390.2171499333
 10
467.2067626844
 20
390.7263373158
 10
469.4650067834
 20
391.1655903569
 10
471.7611327828
 20
391.5336206517
 10
474.0884057494
 20
391.829348704
 10
476.4399993905
 20
392.0519070925
 10
478.8090160768
 20
392.200643015
 10
481.1885070743
 20
392.2751202035
 10
483.5714929258
 20
392.2751202035
 10
485.9509839232
 20
392.200643015
 10
488.3200006095
 20
392.0519070925
 10
490.6715942506
 20
391.829348704
 10
492.9988672172
 20
391.5336206517
 10
495.2949932166
 20
391.1655903569
 10
497.5532373156
 20
390.7263373158
 10
499.7669756953
 20
390.2171499333
 10
501.9297150796
 20
389.6395217437
 10
504.0351117811
 20
388.9951470301
 10
506.0769903087
 20
388.2859158544
 10
508.0493614807
 20
387.513908514
 10
509.9464399928
 20
386.6813894393
 10
511.7626613867
 20
385.7908005523
 10
513.4926983722
 20
384.8447541035
  0
LINE
  5
C4
330
1F
100
AcDbEntity
  8
0
  6
HIDDEN
 62
     7
370
    18
100
AcDbLine
 10
509.7201379941
 20
375.3192283477
 30
0.0
 11
513.0684343035
 21
377.2521586636
 31
0.0
  0
LINE
  5
C5
330
1F
100
AcDbEntity
  8
0
  6
HIDDEN
 62
     7
370
    18
100
AcDbLine
 10
500.3405122421
 20
394.9208394409
 30
0.0
 11
500.3405122421
 21
384.59983167
 31
0.0
  0
LINE
  5
C6
330
1F
100
AcDbEntity
  8
0
  6
HIDDEN
 62
     7
370
    18
100
AcDbLine
 10
513.0684343035
 20
416.4461176341
 30
0.0
 11
513.0684343035
 21
377.2521586636
 31
0.0
  0
LINE
  5
C7
330
1F
100
AcDbEntity
  8
0
  6
HIDDEN
 62
     7
370
    18
100
AcDbLine
 10
500.3405122421
 20
384.59983167
 30
0.0
 11
513.0684343035
 21
377.2521586636
 31
0.0
  0
LINE
  5
C8
330
1F
100
AcDbEntity
  8
0
  6
HIDDEN
 62
     7
370
    18
100
AcDbLine
 10
496.9922159327
 20
382.6669013541
 30
0.0
 11
500.3405122421
 21
384.59983167
 31
0.0
  0
LINE
  5
C9
330
1F
100
AcDbEntity
  8
0
  6
HIDDEN
 62
     7
370
    18
100
AcDbLine
 10
522.88
 20
406.0777346139
 30
0.0
 11
522.88
 21
415.8762243566
 31
0.0
  0
LINE
  5
CA
330
1F
100
AcDbEntity
  8
0
  6
HIDDEN
 62
     7
370
    18
100
AcDbLine
 10
512.38
 20
367.7003164553
 30
0.0
 11
512.38
 21
406.0777346139
 31
0.0
  0
LINE
  5
CB
330
1F
100
AcDbEntity
  8
0
  6
HIDDEN
 62
     7
370
    18
100
AcDbLine
 10
452.38
 20
406.0777346139
 30
0.0
 11
452.38
 21
367.7003164553
 31
0.0
  0
SPLINE
  5
CC
330
1F
100
AcDbEntity
  8
0
  6
HIDDEN
 62
     7
370
    18
100
AcDbSpline
210
0.0
220
0.0
230
1.0
 70
     8
 71
     3
 72
    53
 73
    49
 74
     0
 42
0.00000001
 43
0.00000001
 40
0.0
 40
0.0
 40
0.0
 40
0.0
 40
0.0194145798506035
 40
0.0419337434895985
 40
0.0643608305476526
 40
0.086673782213138
 40
0.1088664902019812
 40
0.1309453250166658
 40
0.1529244194512571
 40
0.1748214159925933
 40
0.1966543996165673
 40
0.2184400467719527
 40
0.2401927219349935
 40
0.2619242034356917
 40
0.283643776213284
 40
0.3053585080623017
 40
0.3270727167684309
 40
0.3487898685822868
 40
0.3705127985624484
 40
0.3922433167208558
 40
0.4139824476337323
 40
0.435730624321728
 40
0.4574878412703094
 40
0.4792537729152616
 40
0.5010278638756287
 40
0.5228093966081837
 40
0.544597541336432
 40
0.5663913922634913
 40
0.5881899933063147
 40
0.609992355927393
 40
0.6317974710986365
 40
0.6536043170048453
 40
0.6754118637696497
 40
0.6972189594182968
 40
0.7190243370552166
 40
0.7408269568410671
 40
0.762625780121796
 40
0.7844197735602587
 40
0.8062079160437758
 40
0.8279892095518777
 40
0.8497626955250487
 40
0.8715274786832587
 40
0.8932827607632547
 40
0.9150278872826809
 40
0.9367624111906362
 40
0.9584861780946458
 40
0.9801994385793248
 40
1.0
 40
1.0
 40
1.0
 40
1.0
 10
527.2971273512612
 20
372.3669490275984
 30
0.0
 10
527.2538490370073
 20
372.0037080586411
 30
0.0
 10
527.1603717770022
 20
371.2191402887292
 30
0.0
 10
526.8774106495779
 20
370.0183294076037
 30
0.0
 10
526.4787088705241
 20
368.7683756277146
 30
0.0
 10
525.9654398324255
 20
367.532046365879
 30
0.0
 10
525.3433885793053
 20
366.3124192870235
 30
0.0
 10
524.6135681489861
 20
365.112269424994
 30
0.0
 10
523.7782913308579
 20
363.9341214427778
 30
0.0
 10
522.8395447747473
 20
362.7804186416566
 30
0.0
 10
521.7994787160933
 20
361.6536153026553
 30
0.0
 10
520.660359754622
 20
360.5562277705167
 30
0.0
 10
519.4246628367177
 20
359.4908433610669
 30
0.0
 10
518.0951080444418
 20
358.460104387669
 30
0.0
 10
516.6746901940451
 20
357.4666789297369
 30
0.0
 10
515.166710598769
 20
356.5132400461957
 30
0.0
 10
513.574767206821
 20
355.6024203481384
 30
0.0
 10
511.9027320895162
 20
354.7367735745192
 30
0.0
 10
510.1547117971062
 20
353.9187417242651
 30
0.0
 10
508.3350450691572
 20
353.1506474840052
 30
0.0
 10
506.4483014412468
 20
352.4346862462415
 30
0.0
 10
504.499262146907
 20
351.7729122043181
 30
0.0
 10
502.4929007268426
 20
351.1672274530198
 30
0.0
 10
500.4343638090158
 20
350.6193735221535
 30
0.0
 10
498.3289522979941
 20
350.1309248337815
 30
0.0
 10
496.1821030727154
 20
349.703283660326
 30
0.0
 10
493.9993712064448
 20
349.3376762461154
 30
0.0
 10
491.7864126747107
 20
349.0351498310553
 30
0.0
 10
489.5489674932992
 20
348.7965703786566
 30
0.0
 10
487.292843219777
 20
348.6226208615717
 30
0.0
 10
485.0238987517823
 20
348.5137999973053
 30
0.0
 10
482.7480283600633
 20
348.4704213568142
 30
0.0
 10
480.4711499638985
 20
348.4926127514694
 30
0.0
 10
478.1991932925696
 20
348.5803151470518
 30
0.0
 10
475.9380760392044
 20
348.7332819126132
 30
0.0
 10
473.6936839171406
 20
348.9510796308153
 30
0.0
 10
471.4718512474533
 20
349.2330898634835
 30
0.0
 10
469.2783532796877
 20
349.5785096227349
 30
0.0
 10
467.1188900452465
 20
349.98635221776
 30
0.0
 10
464.9990714508438
 20
350.4554491922953
 30
0.0
 10
462.9243966266625
 20
350.984449769157
 30
0.0
 10
460.9002532144047
 20
351.5718315167126
 30
0.0
 10
458.9318403620279
 20
352.2158716008092
 30
0.0
 10
457.0243738813081
 20
352.9147682283206
 30
0.0
 10
455.1822362499157
 20
353.6662062039328
 30
0.0
 10
453.4120584455603
 20
354.4690012950614
 30
0.0
 10
451.7608253850444
 20
355.2922265605799
 30
0.0
 10
450.737542098531
 20
355.8675494473578
 30
0.0
 10
450.2494737243026
 20
356.1419572381495
 30
0.0
  0
LINE
  5
CD
330
1F
100
AcDbEntity
  8
0
  6
HIDDEN
 62
     7
370
    18
100
AcDbLine
 10
441.88
 20
415.8762243566
 30
0.0
 11
441.88
 21
406.0777346139
 31
0.0
  0
LINE
  5
CE
330
1F
100
AcDbEntity
  8
0
  6
HIDDEN
 62
     7
370
    18
100
AcDbLine
 10
527.38
 20
367.7003164553
 30
0.0
 11
527.38
 21
373.8243725445
 31
0.0
  0
LINE
  5
CF
330
1F
100
AcDbEntity
  8
0
  6
HIDDEN
 62
     7
370
    18
100
AcDbLine
 10
513.4977538282
 20
348.9257161103
 30
0.0
 11
514.2049755062
 21
349.3341192055
 31
0.0
  0
LINE
  5
D0
330
1F
100
AcDbEntity
  8
0
  6
HIDDEN
 62
     7
370
    18
100
AcDbLine
 10
461.1633496626
 20
379.9444479552
 30
0.0
 11
460.4561279846
 21
379.53604486
 31
0.0
  0
SPLINE
  5
D1
330
1F
100
AcDbEntity
  8
0
  6
HIDDEN
 62
     7
370
    18
100
AcDbSpline
210
0.0
220
0.0
230
1.0
 70
     8
 71
     3
 72
    22
 73
    18
 74
     0
 42
0.00000001
 43
0.00000001
 40
0.0
 40
0.0
 40
0.0
 40
0.0
 40
0.03614284476235
 40
0.1049838162488771
 40
0.1738103735917196
 40
0.2426347124383173
 40
0.3114720077664457
 40
0.3803459340384289
 40
0.4492874414787569
 40
0.5183355655686008
 40
0.5875375923246093
 40
0.6569480038133124
 40
0.726625418965099
 40
0.7966266284221493
 40
0.8669970245212619
 40
0.9377576134529417
 40
1.0
 40
1.0
 40
1.0
 40
1.0
 10
450.2494737243026
 20
356.1419572381495
 30
0.0
 10
449.9748514342416
 20
356.3030178330189
 30
0.0
 10
449.1771583852528
 20
356.7708491840898
 30
0.0
 10
447.920384986668
 20
357.5778310622096
 30
0.0
 10
446.51136892071
 20
358.5735950013251
 30
0.0
 10
445.195201418286
 20
359.6061882773921
 30
0.0
 10
443.9734896204216
 20
360.6719217010766
 30
0.0
 10
442.8492612518327
 20
361.7680691651148
 30
0.0
 10
441.8247291386431
 20
362.8917026274976
 30
0.0
 10
440.9019106599139
 20
364.0400631338219
 30
0.0
 10
440.0825316957922
 20
365.2105272999287
 30
0.0
 10
439.3680176711452
 20
366.400673776683
 30
0.0
 10
438.7599771985193
 20
367.6083026914983
 30
0.0
 10
438.2587511329075
 20
368.8313876873545
 30
0.0
 10
437.8693369491589
 20
370.0680726993249
 30
0.0
 10
437.5916442161896
 20
371.2638923977794
 30
0.0
 10
437.5000713014535
 20
372.0480713931735
 30
0.0
 10
437.4572172469804
 20
372.4150494399256
 30
0.0
  0
LINE
  5
D2
330
1F
100
AcDbEntity
  8
0
  6
HIDDEN
 62
     7
370
    18
100
AcDbLine
 10
437.38
 20
373.8243725445
 30
0.0
 11
437.38
 21
367.7003164553
 31
0.0
  0
ENDSEC
  0
SECTION
  2
OBJECTS
  0
DICTIONARY
  5
C
330
0
100
AcDbDictionary
281
     1
  3
ACAD_GROUP
350
D
  3
ACAD_LAYOUT
350
1A
  3
ACAD_MLINESTYLE
350
17
  3
ACAD_PLOTSETTINGS
350
19
  3
ACAD_PLOTSTYLENAME
350
E
  3
ACAD_SCALELIST
350
47
  3
DWGPROPS
350
D3
  0
DICTIONARY
  5
D
102
{ACAD_REACTORS
330
C
102
}
330
C
100
AcDbDictionary
281
     1
  0
DICTIONARY
  5
1A
102
{ACAD_REACTORS
330
C
102
}
330
C
100
AcDbDictionary
281
     1
  3
Layout1
350
1E
  3
Layout2
350
26
  3
Model
350
22
  0
DICTIONARY
  5
17
102
{ACAD_REACTORS
330
C
102
}
330
C
100
AcDbDictionary
281
     1
  3
Standard
350
18
  0
DICTIONARY
  5
19
102
{ACAD_REACTORS
330
C
102
}
330
C
100
AcDbDictionary
281
     1
  0
ACDBDICTIONARYWDFLT
  5
E
102
{ACAD_REACTORS
330
C
102
}
330
C
100
AcDbDictionary
281
     1
  3
Normal
350
F
100
AcDbDictionaryWithDefault
340
F
  0
DICTIONARY
  5
47
102
{ACAD_REACTORS
330
C
102
}
330
C
100
AcDbDictionary
281
     1
  3
A0
350
48
  3
A1
350
49
  3
A2
350
4A
  3
A3
350
4B
  3
A4
350
4C
  3
A5
350
4D
  3
A6
350
4E
  3
A7
350
4F
  3
A8
350
50
  3
A9
350
51
  3
B0
350
52
  3
B1
350
53
  3
B2
350
54
  3
B3
350
55
  3
B4
350
56
  3
B5
350
57
  3
B6
350
58
  0
XRECORD
  5
D3
102
{ACAD_REACTORS
330
C
102
}
330
C
100
AcDbXrecord
280
     1
  1
DWGPROPS COOKIE
  2

  3

  4

  6

  7

  8
imaizumi
  9

300
=
301
=
302
=
303
=
304
=
305
=
306
=
307
=
308
=
309
=
 40
0.0
 41
2461263.042309861
 42
2461263.042310243
  1

 90
        0
  0
LAYOUT
  5
1E
102
{ACAD_REACTORS
330
1A
102
}
330
1A
100
AcDbPlotSettings
  1

  2
none_device
  4

  6

 40
0.0
 41
0.0
 42
0.0
 43
0.0
 44
0.0
 45
0.0
 46
0.0
 47
0.0
 48
0.0
 49
0.0
140
0.0
141
0.0
142
1.0
143
1.0
 70
   688
 72
     1
 73
     0
 74
     5
  7

 75
    16
147
1.0
148
0.0
149
0.0
100
AcDbLayout
  1
Layout1
 70
     1
 71
     1
 10
0.0
 20
0.0
 11
420.0
 21
297.0
 12
0.0
 22
0.0
 32
0.0
 14
1.0000000000E+20
 24
1.0000000000E+20
 34
1.0000000000E+20
 15
-1.0000000000E+20
 25
-1.0000000000E+20
 35
-1.0000000000E+20
146
0.0
 13
0.0
 23
0.0
 33
0.0
 16
1.0
 26
0.0
 36
0.0
 17
0.0
 27
1.0
 37
0.0
 76
     0
330
1B
  0
LAYOUT
  5
26
102
{ACAD_REACTORS
330
1A
102
}
330
1A
100
AcDbPlotSettings
  1

  2
none_device
  4

  6

 40
0.0
 41
0.0
 42
0.0
 43
0.0
 44
0.0
 45
0.0
 46
0.0
 47
0.0
 48
0.0
 49
0.0
140
0.0
141
0.0
142
1.0
143
1.0
 70
   688
 72
     1
 73
     0
 74
     5
  7

 75
    16
147
1.0
148
0.0
149
0.0
100
AcDbLayout
  1
Layout2
 70
     1
 71
     2
 10
0.0
 20
0.0
 11
0.0
 21
0.0
 12
0.0
 22
0.0
 32
0.0
 14
0.0
 24
0.0
 34
0.0
 15
0.0
 25
0.0
 35
0.0
146
0.0
 13
0.0
 23
0.0
 33
0.0
 16
1.0
 26
0.0
 36
0.0
 17
0.0
 27
1.0
 37
0.0
 76
     0
330
23
  0
LAYOUT
  5
22
102
{ACAD_REACTORS
330
1A
102
}
330
1A
100
AcDbPlotSettings
  1

  2
none_device
  4
Letter_(8.50_x_11.00_Inches)
  6

 40
6.35
 41
6.35
 42
6.35000508
 43
6.35000508
 44
215.9
 45
279.4
 46
0.0
 47
0.0
 48
0.0
 49
0.0
140
0.0
141
0.0
142
1.0
143
1.0
 70
  1712
 72
     1
 73
     0
 74
     0
  7

 75
     0
147
1.0
148
0.0
149
0.0
100
AcDbLayout
  1
Model
 70
     1
 71
     0
 10
0.0
 20
0.0
 11
841.0
 21
594.0
 12
0.0
 22
0.0
 32
0.0
 14
0.0
 24
0.0
 34
0.0
 15
841.0
 25
594.0
 35
0.0
146
0.0
 13
0.0
 23
0.0
 33
0.0
 16
1.0
 26
0.0
 36
0.0
 17
0.0
 27
1.0
 37
0.0
 76
     0
330
1F
331
29
  0
MLINESTYLE
  5
18
102
{ACAD_REACTORS
330
17
102
}
330
17
100
AcDbMlineStyle
  2
Standard
 70
     0
  3

 62
   256
 51
90.0
 52
90.0
 71
     2
 49
0.5
 62
   256
  6
BYLAYER
 49
-0.5
 62
   256
  6
BYLAYER
  0
ACDBPLACEHOLDER
  5
F
102
{ACAD_REACTORS
330
E
102
}
330
E
  0
SCALE
  5
48
102
{ACAD_REACTORS
330
47
102
}
330
47
100
AcDbScale
 70
     0
300
1:1
140
1.0
141
1.0
290
     1
  0
SCALE
  5
49
102
{ACAD_REACTORS
330
47
102
}
330
47
100
AcDbScale
 70
     0
300
1:2
140
1.0
141
2.0
290
     0
  0
SCALE
  5
4A
102
{ACAD_REACTORS
330
47
102
}
330
47
100
AcDbScale
 70
     0
300
1:4
140
1.0
141
4.0
290
     0
  0
SCALE
  5
4B
102
{ACAD_REACTORS
330
47
102
}
330
47
100
AcDbScale
 70
     0
300
1:5
140
1.0
141
5.0
290
     0
  0
SCALE
  5
4C
102
{ACAD_REACTORS
330
47
102
}
330
47
100
AcDbScale
 70
     0
300
1:8
140
1.0
141
8.0
290
     0
  0
SCALE
  5
4D
102
{ACAD_REACTORS
330
47
102
}
330
47
100
AcDbScale
 70
     0
300
1:10
140
1.0
141
10.0
290
     0
  0
SCALE
  5
4E
102
{ACAD_REACTORS
330
47
102
}
330
47
100
AcDbScale
 70
     0
300
1:16
140
1.0
141
16.0
290
     0
  0
SCALE
  5
4F
102
{ACAD_REACTORS
330
47
102
}
330
47
100
AcDbScale
 70
     0
300
1:20
140
1.0
141
20.0
290
     0
  0
SCALE
  5
50
102
{ACAD_REACTORS
330
47
102
}
330
47
100
AcDbScale
 70
     0
300
1:30
140
1.0
141
30.0
290
     0
  0
SCALE
  5
51
102
{ACAD_REACTORS
330
47
102
}
330
47
100
AcDbScale
 70
     0
300
1:40
140
1.0
141
40.0
290
     0
  0
SCALE
  5
52
102
{ACAD_REACTORS
330
47
102
}
330
47
100
AcDbScale
 70
     0
300
1:50
140
1.0
141
50.0
290
     0
  0
SCALE
  5
53
102
{ACAD_REACTORS
330
47
102
}
330
47
100
AcDbScale
 70
     0
300
1:100
140
1.0
141
100.0
290
     0
  0
SCALE
  5
54
102
{ACAD_REACTORS
330
47
102
}
330
47
100
AcDbScale
 70
     0
300
2:1
140
2.0
141
1.0
290
     0
  0
SCALE
  5
55
102
{ACAD_REACTORS
330
47
102
}
330
47
100
AcDbScale
 70
     0
300
4:1
140
4.0
141
1.0
290
     0
  0
SCALE
  5
56
102
{ACAD_REACTORS
330
47
102
}
330
47
100
AcDbScale
 70
     0
300
8:1
140
8.0
141
1.0
290
     0
  0
SCALE
  5
57
102
{ACAD_REACTORS
330
47
102
}
330
47
100
AcDbScale
 70
     0
300
10:1
140
10.0
141
1.0
290
     0
  0
SCALE
  5
58
102
{ACAD_REACTORS
330
47
102
}
330
47
100
AcDbScale
 70
     0
300
100:1
140
100.0
141
1.0
290
     0
  0
ENDSEC
  0
EOF
