  0
SECTION
  2
HEADER
  9
$ACADVER
  1
AC1015
  9
$ACADMAINTVER
 70
6
  9
$DWGCODEPAGE
  3
ANSI_932
  9
$INSBASE
 10
0.0
 20
0.0
 30
0.0
  9
$EXTMIN
 10
1e+20
 20
1e+20
 30
1e+20
  9
$EXTMAX
 10
-1e+20
 20
-1e+20
 30
-1e+20
  9
$LIMMIN
 10
0.0
 20
0.0
  9
$LIMMAX
 10
420.0
 20
297.0
  9
$ORTHOMODE
 70
0
  9
$REGENMODE
 70
1
  9
$FILLMODE
 70
1
  9
$QTEXTMODE
 70
0
  9
$MIRRTEXT
 70
1
  9
$LTSCALE
 40
8.4
  9
$ATTMODE
 70
1
  9
$TEXTSIZE
 40
2.5
  9
$TRACEWID
 40
1.0
  9
$TEXTSTYLE
  7
Standard
  9
$CLAYER
  8
0
  9
$CELTYPE
  6
ByLayer
  9
$CECOLOR
 62
256
  9
$CELTSCALE
 40
1.0
  9
$DISPSILH
 70
0
  9
$DIMSCALE
 40
1.0
  9
$DIMASZ
 40
2.5
  9
$DIMEXO
 40
0.625
  9
$DIMDLI
 40
3.75
  9
$DIMRND
 40
0.0
  9
$DIMDLE
 40
0.0
  9
$DIMEXE
 40
1.25
  9
$DIMTP
 40
0.0
  9
$DIMTM
 40
0.0
  9
$DIMTXT
 40
2.5
  9
$DIMCEN
 40
2.5
  9
$DIMTSZ
 40
0.0
  9
$DIMTOL
 70
0
  9
$DIMLIM
 70
0
  9
$DIMTIH
 70
0
  9
$DIMTOH
 70
0
  9
$DIMSE1
 70
0
  9
$DIMSE2
 70
0
  9
$DIMTAD
 70
1
  9
$DIMZIN
 70
8
  9
$DIMBLK
  1

  9
$DIMASO
 70
1
  9
$DIMSHO
 70
1
  9
$DIMPOST
  1

  9
$DIMAPOST
  1

  9
$DIMALT
 70
0
  9
$DIMALTD
 70
3
  9
$DIMALTF
 40
0.03937007874
  9
$DIMLFAC
 40
1.0
  9
$DIMTOFL
 70
1
  9
$DIMTVP
 40
0.0
  9
$DIMTIX
 70
0
  9
$DIMSOXD
 70
0
  9
$DIMSAH
 70
0
  9
$DIMBLK1
  1

  9
$DIMBLK2
  1

  9
$DIMSTYLE
  2
ISO-25
  9
$DIMCLRD
 70
0
  9
$DIMCLRE
 70
0
  9
$DIMCLRT
 70
0
  9
$DIMTFAC
 40
1.0
  9
$DIMGAP
 40
0.625
  9
$DIMJUST
 70
0
  9
$DIMSD1
 70
0
  9
$DIMSD2
 70
0
  9
$DIMTOLJ
 70
0
  9
$DIMTZIN
 70
8
  9
$DIMALTZ
 70
0
  9
$DIMALTTZ
 70
0
  9
$DIMUPT
 70
0
  9
$DIMDEC
 70
2
  9
$DIMTDEC
 70
2
  9
$DIMALTU
 70
2
  9
$DIMALTTD
 70
3
  9
$DIMTXSTY
  7
Standard
  9
$DIMAUNIT
 70
0
  9
$DIMADEC
 70
0
  9
$DIMALTRND
 40
0.0
  9
$DIMAZIN
 70
0
  9
$DIMDSEP
 70
44
  9
$DIMATFIT
 70
3
  9
$DIMFRAC
 70
0
  9
$DIMLDRBLK
  1

  9
$DIMLUNIT
 70
2
  9
$DIMLWD
 70
-2
  9
$DIMLWE
 70
-2
  9
$DIMTMOVE
 70
0
  9
$LUNITS
 70
2
  9
$LUPREC
 70
4
  9
$SKETCHINC
 40
1.0
  9
$FILLETRAD
 40
10.0
  9
$AUNITS
 70
0
  9
$AUPREC
 70
2
  9
$MENU
  1
.
  9
$ELEVATION
 40
0.0
  9
$PELEVATION
 40
0.0
  9
$THICKNESS
 40
0.0
  9
$LIMCHECK
 70
0
  9
$CHAMFERA
 40
0.0
  9
$CHAMFERB
 40
0.0
  9
$CHAMFERC
 40
0.0
  9
$CHAMFERD
 40
0.0
  9
$SKPOLY
 70
0
  9
$TDCREATE
 40
2461263.664050926
  9
$TDUCREATE
 40
2458532.153996898
  9
$TDUPDATE
 40
2461263.664050926
  9
$TDUUPDATE
 40
2458532.1544311
  9
$TDINDWG
 40
0.0
  9
$TDUSRTIMER
 40
0.0
  9
$USRTIMER
 70
1
  9
$ANGBASE
 50
0.0
  9
$ANGDIR
 70
0
  9
$PDMODE
 70
0
  9
$PDSIZE
 40
0.0
  9
$PLINEWID
 40
0.0
  9
$SPLFRAME
 70
0
  9
$SPLINETYPE
 70
6
  9
$SPLINESEGS
 70
8
  9
$HANDSEED
  5
1DA
  9
$SURFTAB1
 70
6
  9
$SURFTAB2
 70
6
  9
$SURFTYPE
 70
6
  9
$SURFU
 70
6
  9
$SURFV
 70
6
  9
$UCSBASE
  2

  9
$UCSNAME
  2

  9
$UCSORG
 10
0.0
 20
0.0
 30
0.0
  9
$UCSXDIR
 10
1.0
 20
0.0
 30
0.0
  9
$UCSYDIR
 10
0.0
 20
1.0
 30
0.0
  9
$UCSORTHOREF
  2

  9
$UCSORTHOVIEW
 70
0
  9
$UCSORGTOP
 10
0.0
 20
0.0
 30
0.0
  9
$UCSORGBOTTOM
 10
0.0
 20
0.0
 30
0.0
  9
$UCSORGLEFT
 10
0.0
 20
0.0
 30
0.0
  9
$UCSORGRIGHT
 10
0.0
 20
0.0
 30
0.0
  9
$UCSORGFRONT
 10
0.0
 20
0.0
 30
0.0
  9
$UCSORGBACK
 10
0.0
 20
0.0
 30
0.0
  9
$PUCSBASE
  2

  9
$PUCSNAME
  2

  9
$PUCSORG
 10
0.0
 20
0.0
 30
0.0
  9
$PUCSXDIR
 10
1.0
 20
0.0
 30
0.0
  9
$PUCSYDIR
 10
0.0
 20
1.0
 30
0.0
  9
$PUCSORTHOREF
  2

  9
$PUCSORTHOVIEW
 70
0
  9
$PUCSORGTOP
 10
0.0
 20
0.0
 30
0.0
  9
$PUCSORGBOTTOM
 10
0.0
 20
0.0
 30
0.0
  9
$PUCSORGLEFT
 10
0.0
 20
0.0
 30
0.0
  9
$PUCSORGRIGHT
 10
0.0
 20
0.0
 30
0.0
  9
$PUCSORGFRONT
 10
0.0
 20
0.0
 30
0.0
  9
$PUCSORGBACK
 10
0.0
 20
0.0
 30
0.0
  9
$USERI1
 70
0
  9
$USERI2
 70
0
  9
$USERI3
 70
0
  9
$USERI4
 70
0
  9
$USERI5
 70
0
  9
$USERR1
 40
0.0
  9
$USERR2
 40
0.0
  9
$USERR3
 40
0.0
  9
$USERR4
 40
0.0
  9
$USERR5
 40
0.0
  9
$WORLDVIEW
 70
1
  9
$SHADEDGE
 70
3
  9
$SHADEDIF
 70
70
  9
$TILEMODE
 70
1
  9
$MAXACTVP
 70
64
  9
$PINSBASE
 10
0.0
 20
0.0
 30
0.0
  9
$PLIMCHECK
 70
0
  9
$PEXTMIN
 10
1e+20
 20
1e+20
 30
1e+20
  9
$PEXTMAX
 10
-1e+20
 20
-1e+20
 30
-1e+20
  9
$PLIMMIN
 10
0.0
 20
0.0
  9
$PLIMMAX
 10
420.0
 20
297.0
  9
$UNITMODE
 70
0
  9
$VISRETAIN
 70
1
  9
$PLINEGEN
 70
0
  9
$PSLTSCALE
 70
1
  9
$TREEDEPTH
 70
3020
  9
$CMLSTYLE
  2
Standard
  9
$CMLJUST
 70
0
  9
$CMLSCALE
 40
20.0
  9
$PROXYGRAPHICS
 70
1
  9
$MEASUREMENT
 70
1
  9
$CELWEIGHT
370
-1
  9
$ENDCAPS
280
0
  9
$JOINSTYLE
280
0
  9
$LWDISPLAY
290
0
  9
$INSUNITS
 70
4
  9
$HYPERLINKBASE
  1

  9
$STYLESHEET
  1

  9
$XEDIT
290
1
  9
$CEPSNTYPE
380
0
  9
$PSTYLEMODE
290
1
  9
$FINGERPRINTGUID
  2
{CFE3CBFC-70A5-4945-8F60-F4F0D84321E6}
  9
$VERSIONGUID
  2
{FFAB0687-93F9-4135-93ED-AD7ED8FBAECF}
  9
$EXTNAMES
290
1
  9
$PSVPSCALE
 40
0.0
  9
$OLESTARTUP
290
0
  0
ENDSEC
  0
SECTION
  2
CLASSES
  0
CLASS
  1
ACDBDICTIONARYWDFLT
  2
AcDbDictionaryWithDefault
  3
ObjectDBX Classes
 90
0
280
0
281
0
  0
CLASS
  1
SUN
  2
AcDbSun
  3
SCENEOE
 90
1153
280
0
281
0
  0
CLASS
  1
VISUALSTYLE
  2
AcDbVisualStyle
  3
ObjectDBX Classes
 90
4095
280
0
281
0
  0
CLASS
  1
MATERIAL
  2
AcDbMaterial
  3
ObjectDBX Classes
 90
1153
280
0
281
0
  0
CLASS
  1
SCALE
  2
AcDbScale
  3
ObjectDBX Classes
 90
1153
280
0
281
0
  0
CLASS
  1
TABLESTYLE
  2
AcDbTableStyle
  3
ObjectDBX Classes
 90
4095
280
0
281
0
  0
CLASS
  1
MLEADERSTYLE
  2
AcDbMLeaderStyle
  3
ACDB_MLEADERSTYLE_CLASS
 90
4095
280
0
281
0
  0
CLASS
  1
DICTIONARYVAR
  2
AcDbDictionaryVar
  3
ObjectDBX Classes
 90
0
280
0
281
0
  0
CLASS
  1
CELLSTYLEMAP
  2
AcDbCellStyleMap
  3
ObjectDBX Classes
 90
1152
280
0
281
0
  0
CLASS
  1
MENTALRAYRENDERSETTINGS
  2
AcDbMentalRayRenderSettings
  3
SCENEOE
 90
1024
280
0
281
0
  0
CLASS
  1
ACDBDETAILVIEWSTYLE
  2
AcDbDetailViewStyle
  3
ObjectDBX Classes
 90
1025
280
0
281
0
  0
CLASS
  1
ACDBSECTIONVIEWSTYLE
  2
AcDbSectionViewStyle
  3
ObjectDBX Classes
 90
1025
280
0
281
0
  0
CLASS
  1
RASTERVARIABLES
  2
AcDbRasterVariables
  3
ISM
 90
0
280
0
281
0
  0
CLASS
  1
ACDBPLACEHOLDER
  2
AcDbPlaceHolder
  3
ObjectDBX Classes
 90
0
280
0
281
0
  0
CLASS
  1
LAYOUT
  2
AcDbLayout
  3
ObjectDBX Classes
 90
0
280
0
281
0
  0
ENDSEC
  0
SECTION
  2
TABLES
  0
TABLE
  2
VPORT
  5
8
330
0
100
AcDbSymbolTable
 70
1
  0
VPORT
  5
23
330
8
100
AcDbSymbolTableRecord
100
AcDbViewportTableRecord
  2
*Active
 70
0
 10
0.0
 20
0.0
 11
1.0
 21
1.0
 12
0.0
 22
0.0
 13
0.0
 23
0.0
 14
0.5
 24
0.5
 15
0.5
 25
0.5
 16
0.0
 26
0.0
 36
1.0
 17
0.0
 27
0.0
 37
0.0
 40
1000.0
 41
1.34
 42
50.0
 43
0.0
 44
0.0
 50
0.0
 51
0.0
 71
0
 72
1000
 73
1
 74
3
 75
0
 76
0
 77
0
 78
0
281
0
 65
0
146
0.0
  0
ENDTAB
  0
TABLE
  2
LTYPE
  5
2
330
0
100
AcDbSymbolTable
 70
7
  0
LTYPE
  5
24
330
2
100
AcDbSymbolTableRecord
100
AcDbLinetypeTableRecord
  2
ByBlock
 70
0
  3

 72
65
 73
0
 40
0.0
  0
LTYPE
  5
25
330
2
100
AcDbSymbolTableRecord
100
AcDbLinetypeTableRecord
  2
ByLayer
 70
0
  3

 72
65
 73
0
 40
0.0
  0
LTYPE
  5
26
330
2
100
AcDbSymbolTableRecord
100
AcDbLinetypeTableRecord
  2
Continuous
 70
0
  3

 72
65
 73
0
 40
0.0
  0
LTYPE
  5
122
330
2
100
AcDbSymbolTableRecord
100
AcDbLinetypeTableRecord
  2
DASHDOT
 70
0
  3
__ . __ . __ . __ . __ . __ . __ . __ . __ . __
 72
65
 73
4
 40
1.0
 49
0.5
 74
0
 49
-0.25
 74
0
 49
0.0
 74
0
 49
-0.25
 74
0
  0
LTYPE
  5
13B
330
2
100
AcDbSymbolTableRecord
100
AcDbLinetypeTableRecord
  2
HIDDEN
 70
0
  3
Hidden __ __ __ __ __ __ __ __ __ __ __ __ __ __
 72
65
 73
2
 40
1.905
 49
1.27
 74
0
 49
-0.635
 74
0
  0
LTYPE
  5
13C
330
2
100
AcDbSymbolTableRecord
100
AcDbLinetypeTableRecord
  2
PHANTOM
 70
0
  3
Phantom ______  __  __  ______  __  __  ______
 72
65
 73
6
 40
12.7
 49
6.35
 74
0
 49
-1.27
 74
0
 49
1.27
 74
0
 49
-1.27
 74
0
 49
1.27
 74
0
 49
-1.27
 74
0
  0
LTYPE
  5
13D
330
2
100
AcDbSymbolTableRecord
100
AcDbLinetypeTableRecord
  2
CENTER
 70
0
  3
Center ____ _ ____ _ ____ _ ____ _ ____ _ ____
 72
65
 73
4
 40
10.16
 49
6.35
 74
0
 49
-1.27
 74
0
 49
1.27
 74
0
 49
-1.27
 74
0
  0
ENDTAB
  0
TABLE
  2
LAYER
  5
1
330
0
100
AcDbSymbolTable
 70
5
  0
LAYER
  5
27
330
1
100
AcDbSymbolTableRecord
100
AcDbLayerTableRecord
  2
0
 70
0
 62
7
  6
Continuous
370
-3
390
13
  0
LAYER
  5
28
330
1
100
AcDbSymbolTableRecord
100
AcDbLayerTableRecord
  2
Defpoints
 70
0
 62
7
  6
Continuous
290
0
370
-3
390
13
  0
LAYER
  5
11F
330
1
100
AcDbSymbolTableRecord
100
AcDbLayerTableRecord
  2
2
 70
0
 62
7
  6
CONTINUOUS
370
-3
390
30
  0
LAYER
  5
120
330
1
100
AcDbSymbolTableRecord
100
AcDbLayerTableRecord
  2
254
 70
0
 62
7
  6
CONTINUOUS
370
-3
390
30
  0
LAYER
  5
121
330
1
100
AcDbSymbolTableRecord
100
AcDbLayerTableRecord
  2
1
 70
0
 62
7
  6
CONTINUOUS
370
-3
390
30
  0
ENDTAB
  0
TABLE
  2
STYLE
  5
5
330
0
100
AcDbSymbolTable
 70
16
  0
STYLE
  5
29
330
5
100
AcDbSymbolTableRecord
100
AcDbTextStyleTableRecord
  2
Standard
 70
0
 40
0.0
 41
1.0
 50
0.0
 71
0
 42
2.5
  3
txt
  4

  0
STYLE
  5
123
330
5
100
AcDbSymbolTableRecord
100
AcDbTextStyleTableRecord
  2
GMM014
 70
0
 40
0.0
 41
0.82727272727273
 50
0.0
 71
0
 42
1.0
  3
txt.shx
  4
bigfont.shx
  0
STYLE
  5
124
330
5
100
AcDbSymbolTableRecord
100
AcDbTextStyleTableRecord
  2
GMM010
 70
0
 40
0.0
 41
0.7
 50
0.0
 71
0
 42
1.0
  3
txt.shx
  4
bigfont.shx
  0
STYLE
  5
125
330
5
100
AcDbSymbolTableRecord
100
AcDbTextStyleTableRecord
  2
GMM008
 70
0
 40
0.0
 41
0.8
 50
0.0
 71
0
 42
1.0
  3
txt.shx
  4
bigfont.shx
  0
STYLE
  5
126
330
5
100
AcDbSymbolTableRecord
100
AcDbTextStyleTableRecord
  2
GMM015
 70
0
 40
0.0
 41
0.41152263374486
 50
0.0
 71
0
 42
1.0
  3
txt.shx
  4
bigfont.shx
  0
STYLE
  5
127
330
5
100
AcDbSymbolTableRecord
100
AcDbTextStyleTableRecord
  2
GMM001
 70
0
 40
0.0
 41
1.0
 50
0.0
 71
0
 42
1.0
  3
txt.shx
  4
bigfont.shx
  0
STYLE
  5
128
330
5
100
AcDbSymbolTableRecord
100
AcDbTextStyleTableRecord
  2
GMM012
 70
0
 40
0.0
 41
1.0666666666667
 50
0.0
 71
0
 42
1.0
  3
txt.shx
  4
bigfont.shx
  0
STYLE
  5
129
330
5
100
AcDbSymbolTableRecord
100
AcDbTextStyleTableRecord
  2
GMM004
 70
0
 40
0.0
 41
0.66666666666667
 50
0.0
 71
0
 42
1.0
  3
txt.shx
  4
bigfont.shx
  0
STYLE
  5
12A
330
5
100
AcDbSymbolTableRecord
100
AcDbTextStyleTableRecord
  2
STANDARD1
 70
4
 40
0.0
 41
1.0
 50
0.0
 71
0
 42
0.2
  3
TXT
  4
BIGFONT
  0
STYLE
  5
12B
330
5
100
AcDbSymbolTableRecord
100
AcDbTextStyleTableRecord
  2
GMM007
 70
0
 40
0.0
 41
0.625
 50
0.0
 71
0
 42
1.0
  3
txt.shx
  4
bigfont.shx
  0
STYLE
  5
12C
330
5
100
AcDbSymbolTableRecord
100
AcDbTextStyleTableRecord
  2
GMM011
 70
0
 40
0.0
 41
0.95
 50
0.0
 71
0
 42
1.0
  3
txt.shx
  4
bigfont.shx
  0
STYLE
  5
12D
330
5
100
AcDbSymbolTableRecord
100
AcDbTextStyleTableRecord
  2
GMM003
 70
0
 40
0.0
 41
0.91125
 50
0.0
 71
0
 42
1.0
  3
txt.shx
  4
bigfont.shx
  0
STYLE
  5
12E
330
5
100
AcDbSymbolTableRecord
100
AcDbTextStyleTableRecord
  2
GMM009
 70
0
 40
0.0
 41
0.49382716049383
 50
0.0
 71
0
 42
1.0
  3
txt.shx
  4
bigfont.shx
  0
STYLE
  5
179
330
5
100
AcDbSymbolTableRecord
100
AcDbTextStyleTableRecord
  2
VF001
 70
0
 40
0.0
 41
0.548697
 50
0.0
 71
0
 42
2.5
  3
txt.shx
  4

  0
STYLE
  5
17B
330
5
100
AcDbSymbolTableRecord
100
AcDbTextStyleTableRecord
  2
VF002
 70
0
 40
0.0
 41
0.428571
 50
0.0
 71
0
 42
2.5
  3
txt.shx
  4

  0
STYLE
  5
183
330
5
100
AcDbSymbolTableRecord
100
AcDbTextStyleTableRecord
  2
VF003
 70
0
 40
0.0
 41
0.75
 50
0.0
 71
0
 42
2.5
  3
txt.shx
  4

  0
ENDTAB
  0
TABLE
  2
VIEW
  5
7
330
0
100
AcDbSymbolTable
 70
0
  0
ENDTAB
  0
TABLE
  2
UCS
  5
6
330
0
100
AcDbSymbolTable
 70
0
  0
ENDTAB
  0
TABLE
  2
APPID
  5
3
330
0
100
AcDbSymbolTable
 70
3
  0
APPID
  5
2A
330
3
100
AcDbSymbolTableRecord
100
AcDbRegAppTableRecord
  2
ACAD
 70
0
  0
APPID
  5
12F
330
3
100
AcDbSymbolTableRecord
100
AcDbRegAppTableRecord
  2
HATCHBACKGROUNDCOLOR
 70
0
  0
APPID
  5
130
330
3
100
AcDbSymbolTableRecord
100
AcDbRegAppTableRecord
  2
EZDXF
 70
0
  0
ENDTAB
  0
TABLE
  2
DIMSTYLE
  5
4
330
0
100
AcDbSymbolTable
 70
6
100
AcDbDimStyleTable
  0
DIMSTYLE
105
2B
330
4
100
AcDbSymbolTableRecord
100
AcDbDimStyleTableRecord
  2
Standard
 70
0
  3

  4

 40
1.0
 41
2.5
 42
0.625
 43
3.75
 44
1.25
 45
0.0
 46
0.0
 47
0.0
 48
0.0
140
2.5
141
2.5
142
0.0
143
0.03937007874
144
1.0
145
0.0
146
1.0
147
0.625
148
0.0
 71
0
 72
0
 73
0
 74
0
 75
0
 76
0
 77
1
 78
8
 79
3
170
0
171
3
172
1
173
0
174
0
175
0
176
0
177
0
178
0
179
2
271
2
272
2
273
2
274
3
275
0
276
0
277
2
278
44
279
0
280
0
281
0
282
0
283
0
284
8
285
0
286
0
288
0
289
3
371
-2
372
-2
  0
DIMSTYLE
105
189
330
4
100
AcDbSymbolTableRecord
100
AcDbDimStyleTableRecord
  2
GEN001
 70
0
  3

  4

 40
1.0
 41
3.0
 42
1.0
 43
8.0
 44
2.0
 45
0.0
 46
0.0
 47
0.0
 48
0.0
140
4.0
141
1.0
142
0.0
143
0.03937007874
144
1.0
145
0.0
146
1.0
147
0.5
148
0.0
 71
0
 72
0
 73
0
 74
0
 75
0
 76
0
 77
3
 78
8
 79
3
170
0
171
3
172
1
173
1
174
0
175
0
176
3
177
3
178
7
179
2
271
2
272
2
273
2
274
3
275
0
276
0
277
2
278
46
279
0
280
0
281
0
282
0
283
0
284
8
285
0
286
0
288
0
289
3
340
183
343
184
344
184
371
-2
372
-2
  0
DIMSTYLE
105
199
330
4
100
AcDbSymbolTableRecord
100
AcDbDimStyleTableRecord
  2
GEN002
 70
0
  3

  4

 40
1.0
 41
3.0
 42
1.0
 43
8.0
 44
2.0
 45
0.0
 46
0.0
 47
0.0
 48
0.0
140
4.0
141
1.0
142
0.0
143
0.03937007874
144
1.0
145
0.0
146
1.0
147
0.5
148
0.0
 71
0
 72
0
 73
0
 74
0
 75
0
 76
0
 77
3
 78
8
 79
3
170
0
171
3
172
1
173
1
174
0
175
0
176
3
177
3
178
7
179
2
271
2
272
2
273
2
274
3
275
0
276
0
277
2
278
46
279
0
280
0
281
0
282
0
283
0
284
8
285
0
286
0
288
0
289
3
340
183
343
184
344
184
371
-2
372
-2
  0
DIMSTYLE
105
1A9
330
4
100
AcDbSymbolTableRecord
100
AcDbDimStyleTableRecord
  2
GEN003
 70
0
  3
%%c<>
  4

 40
1.0
 41
3.0
 42
1.0
 43
8.0
 44
2.0
 45
0.0
 46
0.0
 47
0.0
 48
0.0
140
4.0
141
1.0
142
0.0
143
0.03937007874
144
1.0
145
0.0
146
1.0
147
0.5
148
0.0
 71
0
 72
0
 73
0
 74
0
 75
0
 76
0
 77
3
 78
8
 79
3
170
0
171
3
172
1
173
1
174
0
175
0
176
3
177
3
178
7
179
2
271
2
272
2
273
2
274
3
275
0
276
0
277
2
278
46
279
0
280
0
281
0
282
0
283
0
284
8
285
0
286
0
288
0
289
3
340
183
343
184
344
184
371
-2
372
-2
  0
DIMSTYLE
105
1B9
330
4
100
AcDbSymbolTableRecord
100
AcDbDimStyleTableRecord
  2
GEN004
 70
0
  3
%%c<>
  4

 40
1.0
 41
3.0
 42
1.0
 43
8.0
 44
2.0
 45
0.0
 46
0.0
 47
0.0
 48
0.0
140
4.0
141
1.0
142
0.0
143
0.03937007874
144
1.0
145
0.0
146
1.0
147
0.5
148
0.0
 71
0
 72
0
 73
0
 74
0
 75
0
 76
0
 77
3
 78
8
 79
3
170
0
171
3
172
1
173
1
174
0
175
0
176
3
177
3
178
7
179
2
271
2
272
2
273
2
274
3
275
0
276
0
277
2
278
46
279
0
280
0
281
0
282
0
283
0
284
8
285
0
286
0
288
0
289
3
340
183
343
184
344
184
371
-2
372
-2
  0
DIMSTYLE
105
1C9
330
4
100
AcDbSymbolTableRecord
100
AcDbDimStyleTableRecord
  2
GEN005
 70
0
  3
%%c<>
  4

 40
1.0
 41
3.0
 42
1.0
 43
8.0
 44
2.0
 45
0.0
 46
0.0
 47
0.0
 48
0.0
140
4.0
141
1.0
142
0.0
143
0.03937007874
144
1.0
145
0.0
146
1.0
147
0.5
148
0.0
 71
0
 72
0
 73
0
 74
0
 75
0
 76
0
 77
3
 78
8
 79
3
170
0
171
3
172
1
173
1
174
0
175
0
176
3
177
3
178
7
179
2
271
2
272
2
273
2
274
3
275
0
276
0
277
2
278
46
279
0
280
0
281
0
282
0
283
0
284
8
285
0
286
0
288
0
289
3
340
183
343
184
344
184
371
-2
372
-2
  0
ENDTAB
  0
TABLE
  2
BLOCK_RECORD
  5
9
330
0
100
AcDbSymbolTable
 70
12
  0
BLOCK_RECORD
  5
17
330
9
100
AcDbSymbolTableRecord
100
AcDbBlockTableRecord
  2
*Model_Space
340
1A
  0
BLOCK_RECORD
  5
1B
330
9
100
AcDbSymbolTableRecord
100
AcDbBlockTableRecord
  2
*Paper_Space
340
1E
  0
BLOCK_RECORD
  5
C8
330
9
100
AcDbSymbolTableRecord
100
AcDbBlockTableRecord
  2
BLOCK004
340
0
  0
BLOCK_RECORD
  5
D6
330
9
100
AcDbSymbolTableRecord
100
AcDbBlockTableRecord
  2
BLOCK005
340
0
  0
BLOCK_RECORD
  5
111
330
9
100
AcDbSymbolTableRecord
100
AcDbBlockTableRecord
  2
BLOCK006
340
0
  0
BLOCK_RECORD
  5
118
330
9
100
AcDbSymbolTableRecord
100
AcDbBlockTableRecord
  2
BLOCK007
340
0
  0
BLOCK_RECORD
  5
184
330
9
100
AcDbSymbolTableRecord
100
AcDbBlockTableRecord
  2
_OPEN30
340
0
  0
BLOCK_RECORD
  5
18B
330
9
100
AcDbSymbolTableRecord
100
AcDbBlockTableRecord
  2
*D1
340
0
  0
BLOCK_RECORD
  5
19B
330
9
100
AcDbSymbolTableRecord
100
AcDbBlockTableRecord
  2
*D2
340
0
  0
BLOCK_RECORD
  5
1AB
330
9
100
AcDbSymbolTableRecord
100
AcDbBlockTableRecord
  2
*D3
340
0
  0
BLOCK_RECORD
  5
1BB
330
9
100
AcDbSymbolTableRecord
100
AcDbBlockTableRecord
  2
*D4
340
0
  0
BLOCK_RECORD
  5
1CB
330
9
100
AcDbSymbolTableRecord
100
AcDbBlockTableRecord
  2
*D5
340
0
  0
ENDTAB
  0
ENDSEC
  0
SECTION
  2
BLOCKS
  0
BLOCK
  5
18
330
17
100
AcDbEntity
  8
0
100
AcDbBlockBegin
  2
*Model_Space
 70
0
 10
0.0
 20
0.0
 30
0.0
  3
*Model_Space
  1

  0
ENDBLK
  5
19
330
17
100
AcDbEntity
  8
0
100
AcDbBlockEnd
  0
BLOCK
  5
1C
330
1B
100
AcDbEntity
  8
0
100
AcDbBlockBegin
  2
*Paper_Space
 70
0
 10
0.0
 20
0.0
 30
0.0
  3
*Paper_Space
  1

  0
ENDBLK
  5
1D
330
1B
100
AcDbEntity
  8
0
100
AcDbBlockEnd
  0
BLOCK
  5
C9
330
C8
100
AcDbEntity
  8
0
100
AcDbBlockBegin
  2
BLOCK004
 70
64
 10
0.0
 20
0.0
 30
0.0
  3
BLOCK004
  1

  0
CIRCLE
  5
CB
330
C8
100
AcDbEntity
  8
2
  6
CONTINUOUS
 62
7
370
20
100
AcDbCircle
 10
170.52102818258
 20
10.197623906063
 30
0.0
 40
2.1782975474943
  0
CIRCLE
  5
CC
330
C8
100
AcDbEntity
  8
2
  6
CONTINUOUS
 62
7
370
20
100
AcDbCircle
 10
170.52102818258
 20
10.197623906063
 30
0.0
 40
1.43691326178
  0
LWPOLYLINE
  5
CD
330
C8
100
AcDbEntity
  8
2
  6
CONTINUOUS
 62
7
370
20
100
AcDbPolyline
 90
4
 70
1
 10
175.06221618808
 20
11.634537167843
 10
180.26350009482
 20
12.375921453557
 10
180.26350009482
 20
8.0193263585682
 10
175.06221618808
 20
8.7607106442827
  0
LINE
  5
CE
330
C8
100
AcDbEntity
  8
2
  6
CONTINUOUS
 62
7
370
20
100
AcDbLine
 10
168.03987259152
 20
10.197623906063
 30
0.0
 11
170.80115164912
 21
10.197623906063
 31
0.0
  0
LINE
  5
CF
330
C8
100
AcDbEntity
  8
2
  6
CONTINUOUS
 62
7
370
20
100
AcDbLine
 10
171.25447468719
 20
10.197623906063
 30
0.0
 11
172.20027039241
 21
10.197623906063
 31
0.0
  0
LINE
  5
D0
330
C8
100
AcDbEntity
  8
2
  6
CONTINUOUS
 62
7
370
20
100
AcDbLine
 10
177.29615748089
 20
10.197623906063
 30
0.0
 11
178.2468966452
 21
10.197623906063
 31
0.0
  0
LINE
  5
D1
330
C8
100
AcDbEntity
  8
2
  6
CONTINUOUS
 62
7
370
20
100
AcDbLine
 10
172.99280424365
 20
10.197623906063
 30
0.0
 11
176.67551000266
 21
10.197623906063
 31
0.0
  0
LINE
  5
D2
330
C8
100
AcDbEntity
  8
2
  6
CONTINUOUS
 62
7
370
20
100
AcDbLine
 10
178.91739616362
 20
10.197623906063
 30
0.0
 11
181.17172699337
 21
10.197623906063
 31
0.0
  0
LINE
  5
D3
330
C8
100
AcDbEntity
  8
2
  6
CONTINUOUS
 62
7
370
20
100
AcDbLine
 10
170.52102818258
 20
10.450588115875
 30
0.0
 11
170.52102818258
 21
7.6687870559977
 31
0.0
  0
LINE
  5
D4
330
C8
100
AcDbEntity
  8
2
  6
CONTINUOUS
 62
7
370
20
100
AcDbLine
 10
170.52102818258
 20
11.879149095869
 30
0.0
 11
170.52102818258
 21
10.974485114891
 31
0.0
  0
LINE
  5
D5
330
C8
100
AcDbEntity
  8
2
  6
CONTINUOUS
 62
7
370
20
100
AcDbLine
 10
170.52102818258
 20
12.751764531148
 30
0.0
 11
170.52102818258
 21
12.118986673823
 31
0.0
  0
ENDBLK
  5
CA
330
C8
100
AcDbEntity
  8
0
100
AcDbBlockEnd
  0
BLOCK
  5
D7
330
D6
100
AcDbEntity
  8
0
100
AcDbBlockBegin
  2
BLOCK005
 70
64
 10
0.0
 20
0.0
 30
0.0
  3
BLOCK005
  1

  0
MTEXT
  5
D9
330
D6
100
AcDbEntity
  8
254
 62
7
370
20
100
AcDbMText
 10
149.40450574984
 20
18.703608255046
 30
0.0
 40
2.3113364687439
 41
0.0
 71
1
  1
{\T1.000000;ÇPÇOÇOÇOÅ`}\P{\T1.000000;ÇQÇOÇOÇO}
  7
GMM010
 44
0.79999984000003
  0
MTEXT
  5
DA
330
D6
100
AcDbEntity
  8
254
 62
7
370
20
100
AcDbMText
 10
140.98345281688
 20
18.703608255046
 30
0.0
 40
2.3113364687439
 41
0.0
 71
1
  1
{\T1.000000;ÇSÇOÇOÅ`}\P{\T1.000000;ÇPÇOÇOÇO}
  7
GMM010
 44
0.79999984000003
  0
MTEXT
  5
DB
330
D6
100
AcDbEntity
  8
254
 62
7
370
20
100
AcDbMText
 10
132.43154947819
 20
18.703608255046
 30
0.0
 40
2.3113364687439
 41
0.0
 71
1
  1
{\T1.000000;ÇPÇQÇOÅ`}\P{\T1.000000;ÇSÇOÇO}
  7
GMM010
 44
0.79999984000003
  0
MTEXT
  5
DC
330
D6
100
AcDbEntity
  8
254
 62
7
370
20
100
AcDbMText
 10
124.12265403585
 20
18.703608255046
 30
0.0
 40
2.3113364687439
 41
0.0
 71
1
  1
{\T1.000000;ÇRÇOÅ@Å`}\P{\T1.000000;ÇPÇQÇO}
  7
GMM010
 44
0.79999984000003
  0
MTEXT
  5
DD
330
D6
100
AcDbEntity
  8
254
 62
7
370
20
100
AcDbMText
 10
115.58944361226
 20
18.703608255046
 30
0.0
 40
2.3113364687439
 41
0.0
 71
1
  1
{\T1.000000;ÇUÅ@Å`}\P{\T1.000000;ÇRÇO}
  7
GMM010
 44
0.79999984000003
  0
MTEXT
  5
DE
330
D6
100
AcDbEntity
  8
254
 62
7
370
20
100
AcDbMText
 10
107.24316233971
 20
18.703608255046
 30
0.0
 40
2.3113364687439
 41
0.0
 71
1
  1
{\T1.000000;ÇRÅ@Å`}\P{\T1.000000;ÇU}
  7
GMM010
 44
0.79999984000003
  0
LINE
  5
DF
330
D6
100
AcDbEntity
  8
2
  6
CONTINUOUS
 62
3
370
9
100
AcDbLine
 10
96.972262552243
 20
20.550214344458
 30
0.0
 11
166.43737735483
 21
20.550214344458
 31
0.0
  0
LINE
  5
E0
330
D6
100
AcDbEntity
  8
2
  6
CONTINUOUS
 62
3
370
9
100
AcDbLine
 10
96.972262552243
 20
13.84845139869
 30
0.0
 11
106.70490438971
 21
13.84845139869
 31
0.0
  0
LINE
  5
E1
330
D6
100
AcDbEntity
  8
2
  6
CONTINUOUS
 62
3
370
9
100
AcDbLine
 10
106.70490438971
 20
13.84845139869
 30
0.0
 11
115.2381148133
 21
13.84845139869
 31
0.0
  0
LINE
  5
E2
330
D6
100
AcDbEntity
  8
2
  6
CONTINUOUS
 62
3
370
9
100
AcDbLine
 10
115.2381148133
 20
13.84845139869
 30
0.0
 11
123.77132523688
 21
13.84845139869
 31
0.0
  0
LINE
  5
E3
330
D6
100
AcDbEntity
  8
2
  6
CONTINUOUS
 62
3
370
9
100
AcDbLine
 10
123.77132523688
 20
13.84845139869
 30
0.0
 11
132.30453566047
 21
13.84845139869
 31
0.0
  0
LINE
  5
E4
330
D6
100
AcDbEntity
  8
2
  6
CONTINUOUS
 62
3
370
9
100
AcDbLine
 10
132.30453566047
 20
13.84845139869
 30
0.0
 11
140.83774608406
 21
13.84845139869
 31
0.0
  0
LINE
  5
E5
330
D6
100
AcDbEntity
  8
2
  6
CONTINUOUS
 62
3
370
9
100
AcDbLine
 10
140.83774608406
 20
13.84845139869
 30
0.0
 11
149.37095650765
 21
13.84845139869
 31
0.0
  0
LINE
  5
E6
330
D6
100
AcDbEntity
  8
2
  6
CONTINUOUS
 62
3
370
9
100
AcDbLine
 10
149.37095650765
 20
13.84845139869
 30
0.0
 11
157.90416693124
 21
13.84845139869
 31
0.0
  0
LINE
  5
E7
330
D6
100
AcDbEntity
  8
2
  6
CONTINUOUS
 62
3
370
9
100
AcDbLine
 10
157.90416693124
 20
13.84845139869
 30
0.0
 11
166.43737735483
 21
13.84845139869
 31
0.0
  0
MTEXT
  5
E8
330
D6
100
AcDbEntity
  8
254
 62
7
370
20
100
AcDbMText
 10
101.75381223092
 20
18.703608255046
 30
0.0
 40
2.3113364687439
 41
0.0
 71
2
  1
{\T1.000000;Å†Çí¥Ç¶}\P{\T1.000000;Å†à»â∫}
  7
GMM011
 44
0.79999984000003
  0
MTEXT
  5
E9
330
D6
100
AcDbEntity
  8
254
 62
7
370
20
100
AcDbMText
 10
157.87528390182
 20
18.703608255046
 30
0.0
 40
2.3113364687439
 41
0.0
 71
1
  1
{\T1.000000;ÇQÇOÇOÇOÅ`}\P{\T1.000000;ÇSÇOÇOÇO}
  7
GMM010
 44
0.79999984000003
  0
LINE
  5
EA
330
D6
100
AcDbEntity
  8
2
  6
CONTINUOUS
 62
3
370
9
100
AcDbLine
 10
157.90416693124
 20
9.424225699345
 30
0.0
 11
166.43737735483
 21
9.424225699345
 31
0.0
  0
LINE
  5
EB
330
D6
100
AcDbEntity
  8
2
  6
CONTINUOUS
 62
3
370
9
100
AcDbLine
 10
149.37095650765
 20
9.424225699345
 30
0.0
 11
157.90416693124
 21
9.424225699345
 31
0.0
  0
LINE
  5
EC
330
D6
100
AcDbEntity
  8
2
  6
CONTINUOUS
 62
3
370
9
100
AcDbLine
 10
140.83774608406
 20
9.424225699345
 30
0.0
 11
149.37095650765
 21
9.424225699345
 31
0.0
  0
LINE
  5
ED
330
D6
100
AcDbEntity
  8
2
  6
CONTINUOUS
 62
3
370
9
100
AcDbLine
 10
132.30453566047
 20
9.424225699345
 30
0.0
 11
140.83774608406
 21
9.424225699345
 31
0.0
  0
LINE
  5
EE
330
D6
100
AcDbEntity
  8
2
  6
CONTINUOUS
 62
3
370
9
100
AcDbLine
 10
123.77132523688
 20
9.424225699345
 30
0.0
 11
132.30453566047
 21
9.424225699345
 31
0.0
  0
LINE
  5
EF
330
D6
100
AcDbEntity
  8
2
  6
CONTINUOUS
 62
3
370
9
100
AcDbLine
 10
115.2381148133
 20
9.424225699345
 30
0.0
 11
123.77132523688
 21
9.424225699345
 31
0.0
  0
LINE
  5
F0
330
D6
100
AcDbEntity
  8
2
  6
CONTINUOUS
 62
3
370
9
100
AcDbLine
 10
106.70490438971
 20
9.424225699345
 30
0.0
 11
115.2381148133
 21
9.424225699345
 31
0.0
  0
LINE
  5
F1
330
D6
100
AcDbEntity
  8
2
  6
CONTINUOUS
 62
3
370
9
100
AcDbLine
 10
96.972262552243
 20
9.424225699345
 30
0.0
 11
106.70490438971
 21
9.424225699345
 31
0.0
  0
LINE
  5
F2
330
D6
100
AcDbEntity
  8
2
  6
CONTINUOUS
 62
3
370
9
100
AcDbLine
 10
106.70490438971
 20
20.550214344458
 30
0.0
 11
106.70490438971
 21
4.9999999999998
 31
0.0
  0
LINE
  5
F3
330
D6
100
AcDbEntity
  8
2
  6
CONTINUOUS
 62
3
370
9
100
AcDbLine
 10
115.2381148133
 20
20.550214344458
 30
0.0
 11
115.2381148133
 21
4.9999999999998
 31
0.0
  0
LINE
  5
F4
330
D6
100
AcDbEntity
  8
2
  6
CONTINUOUS
 62
3
370
9
100
AcDbLine
 10
123.77132523688
 20
20.550214344458
 30
0.0
 11
123.77132523688
 21
4.9999999999998
 31
0.0
  0
LINE
  5
F5
330
D6
100
AcDbEntity
  8
2
  6
CONTINUOUS
 62
3
370
9
100
AcDbLine
 10
132.30453566047
 20
20.550214344458
 30
0.0
 11
132.30453566047
 21
4.9999999999998
 31
0.0
  0
LINE
  5
F6
330
D6
100
AcDbEntity
  8
2
  6
CONTINUOUS
 62
3
370
9
100
AcDbLine
 10
140.83774608406
 20
20.550214344458
 30
0.0
 11
140.83774608406
 21
4.9999999999998
 31
0.0
  0
LINE
  5
F7
330
D6
100
AcDbEntity
  8
2
  6
CONTINUOUS
 62
3
370
9
100
AcDbLine
 10
149.37095650765
 20
20.550214344458
 30
0.0
 11
149.37095650765
 21
4.9999999999998
 31
0.0
  0
LINE
  5
F8
330
D6
100
AcDbEntity
  8
2
  6
CONTINUOUS
 62
3
370
9
100
AcDbLine
 10
157.90416693124
 20
20.550214344458
 30
0.0
 11
157.90416693124
 21
4.9999999999998
 31
0.0
  0
MTEXT
  5
F9
330
D6
100
AcDbEntity
  8
254
 62
7
370
20
100
AcDbMText
 10
110.66396580379
 20
7.3356081976647
 30
0.0
 40
2.3113364687439
 41
0.0
 71
5
  1
%%p\T1.000000;ÇP
  7
GMM010
 44
0.79999984000003
  0
MTEXT
  5
FA
330
D6
100
AcDbEntity
  8
254
 62
7
370
20
100
AcDbMText
 10
119.19717622738
 20
7.3356081976647
 30
0.0
 40
2.3113364687439
 41
0.0
 71
5
  1
%%p\T1.000000;ÇP
  7
GMM010
 44
0.79999984000003
  0
MTEXT
  5
FB
330
D6
100
AcDbEntity
  8
254
 62
7
370
20
100
AcDbMText
 10
127.73038665097
 20
7.3356081976647
 30
0.0
 40
2.3113364687439
 41
0.0
 71
5
  1
%%p\T1.000000;ÇPÅDÇT
  7
GMM010
 44
0.79999984000003
  0
MTEXT
  5
FC
330
D6
100
AcDbEntity
  8
254
 62
7
370
20
100
AcDbMText
 10
136.26359707456
 20
7.3356081976647
 30
0.0
 40
2.3113364687439
 41
0.0
 71
5
  1
%%p\T1.000000;ÇQ
  7
GMM010
 44
0.79999984000003
  0
MTEXT
  5
FD
330
D6
100
AcDbEntity
  8
254
 62
7
370
20
100
AcDbMText
 10
144.79680749815
 20
7.3356081976647
 30
0.0
 40
2.3113364687439
 41
0.0
 71
5
  1
%%p\T1.000000;ÇQÅDÇT
  7
GMM010
 44
0.79999984000003
  0
MTEXT
  5
FE
330
D6
100
AcDbEntity
  8
254
 62
7
370
20
100
AcDbMText
 10
153.33001792174
 20
7.3356081976647
 30
0.0
 40
2.3113364687439
 41
0.0
 71
5
  1
%%p\T1.000000;ÇR
  7
GMM010
 44
0.79999984000003
  0
MTEXT
  5
FF
330
D6
100
AcDbEntity
  8
254
 62
7
370
20
100
AcDbMText
 10
161.12785112996
 20
7.3356081976647
 30
0.0
 40
2.3113364687439
 41
0.0
 71
5
  1
%%p\T1.000000;ÇS
  7
GMM010
 44
0.79999984000003
  0
MTEXT
  5
100
330
D6
100
AcDbEntity
  8
254
 62
7
370
20
100
AcDbMText
 10
110.51442248296
 20
11.634920373638
 30
0.0
 40
2.3113364687439
 41
0.0
 71
5
  1
%%p\T1.000000;ÇOÅDÇP
  7
GMM010
 44
0.79999984000003
  0
MTEXT
  5
101
330
D6
100
AcDbEntity
  8
254
 62
7
370
20
100
AcDbMText
 10
119.04763290655
 20
11.634920373638
 30
0.0
 40
2.3113364687439
 41
0.0
 71
5
  1
%%p\T1.000000;ÇOÅDÇQ
  7
GMM010
 44
0.79999984000003
  0
MTEXT
  5
102
330
D6
100
AcDbEntity
  8
254
 62
7
370
20
100
AcDbMText
 10
127.58084333014
 20
11.634920373638
 30
0.0
 40
2.3113364687439
 41
0.0
 71
5
  1
%%p\T1.000000;ÇOÅDÇR
  7
GMM010
 44
0.79999984000003
  0
MTEXT
  5
103
330
D6
100
AcDbEntity
  8
254
 62
7
370
20
100
AcDbMText
 10
136.11405375372
 20
11.634920373638
 30
0.0
 40
2.3113364687439
 41
0.0
 71
5
  1
%%p\T1.000000;ÇOÅDÇT
  7
GMM010
 44
0.79999984000003
  0
MTEXT
  5
104
330
D6
100
AcDbEntity
  8
254
 62
7
370
20
100
AcDbMText
 10
144.64726417731
 20
11.634920373638
 30
0.0
 40
2.3113364687439
 41
0.0
 71
5
  1
%%p\T1.000000;ÇOÅDÇW
  7
GMM010
 44
0.79999984000003
  0
MTEXT
  5
105
330
D6
100
AcDbEntity
  8
254
 62
7
370
20
100
AcDbMText
 10
153.1804746009
 20
11.634920373638
 30
0.0
 40
2.3113364687439
 41
0.0
 71
5
  1
%%p\T1.000000;ÇPÅDÇQ
  7
GMM010
 44
0.79999984000003
  0
MTEXT
  5
106
330
D6
100
AcDbEntity
  8
254
 62
7
370
20
100
AcDbMText
 10
160.97830780913
 20
11.634920373638
 30
0.0
 40
2.3113364687439
 41
0.0
 71
5
  1
%%p\T1.000000;ÇQ
  7
GMM010
 44
0.79999984000003
  0
MTEXT
  5
107
330
D6
100
AcDbEntity
  8
254
 62
7
370
20
100
AcDbMText
 10
99.896982663893
 20
11.634920373638
 30
0.0
 40
2.5424701156183
 41
0.0
 71
5
  1
\T1.000000;ã@äB
  7
GMM001
 44
0.79999984000003
  0
MTEXT
  5
108
330
D6
100
AcDbEntity
  8
254
 62
7
370
20
100
AcDbMText
 10
99.896982663893
 20
7.3356081976647
 30
0.0
 40
2.5424701156183
 41
0.0
 71
5
  1
\T1.000000;êªä 
  7
GMM001
 44
0.79999984000003
  0
MTEXT
  5
109
330
D6
100
AcDbEntity
  8
254
 62
7
370
20
100
AcDbMText
 10
104.68236893058
 20
11.335833731969
 30
0.0
 40
1.7335023515579
 41
0.0
 71
5
  1
\T1.000000;â¡çH
  7
GMM012
 44
0.79999984000003
  0
MTEXT
  5
10A
330
D6
100
AcDbEntity
  8
254
 62
7
370
20
100
AcDbMText
 10
104.68236893058
 20
6.9116080326244
 30
0.0
 40
1.7335023515579
 41
0.0
 71
5
  1
\T1.000000;â¡çH
  7
GMM012
 44
0.79999984000003
  0
LINE
  5
10B
330
D6
100
AcDbEntity
  8
2
  6
CONTINUOUS
 62
3
370
9
100
AcDbLine
 10
92.759851837957
 20
24.469731335988
 30
0.0
 11
166.43737735483
 21
24.469731335988
 31
0.0
  0
TEXT
  5
10C
330
D6
100
AcDbEntity
  8
254
 62
3
370
9
100
AcDbText
 10
94.70298091284
 20
24.260906217143
 30
0.0
 40
2.3113364687439
  1
àÍî ê°ñ@åˆç∑
  7
STANDARD1
 41
1.0935
100
AcDbText
  0
LINE
  5
10D
330
D6
100
AcDbEntity
  8
254
  6
CONTINUOUS
 62
3
370
9
100
AcDbLine
 10
96.972262552243
 20
4.9999999999998
 30
0.0
 11
96.972262552243
 21
24.469731335988
 31
0.0
  0
MTEXT
  5
10E
330
D6
100
AcDbEntity
  8
254
 62
7
370
20
100
AcDbMText
 10
97.619100225429
 20
22.588396985111
 30
0.0
 40
2.3113364687439
 41
0.0
 71
4
  1
\W0.950000;\T1.000000;ÇiÇhÇr\W0.475000;\T1.000000; \W0.950000;\T1.000000;Ça\W0.475000;\T1.000000; \W0.950000;\T1.000000;ÇOÇSÇOÇTÅ|ÇçÅiíÜãâÅjíPà \W0.475000;\T1.000000;:\W0.950000;\T1.000000;ÇçÇç
  7
GMM011
 44
0.79999984000003
  0
MTEXT
  5
10F
330
D6
100
AcDbEntity
  8
254
 62
3
370
9
100
AcDbMText
 10
93.394501411866
 20
26.559319493178
 30
0.0
 40
2.5424701156183
 41
0.0
 71
4
  1
\T1.000000;ì¡ãLÇ»Ç´äpÇÕéÖñ éÊÇËÅAã˜ÇÕÇqÇOÅDÇTà»â∫ÅAçaâ¡çHÇÃíÍÇqÇÕÇqÇPÅDÇTà»â∫
  7
GMM014
 44
0.79999984000003
  0
LWPOLYLINE
  5
110
330
D6
100
AcDbEntity
  8
2
  6
CONTINUOUS
 62
1
370
15
100
AcDbPolyline
 90
4
 70
1
 10
92.759851837957
 20
4.9999999999998
 10
166.43737735483
 20
4.9999999999998
 10
166.43737735483
 20
28.5895
 10
92.759851837957
 20
28.5895
  0
ENDBLK
  5
D8
330
D6
100
AcDbEntity
  8
0
100
AcDbBlockEnd
  0
BLOCK
  5
112
330
111
100
AcDbEntity
  8
0
100
AcDbBlockBegin
  2
BLOCK006
 70
64
 10
0.0
 20
0.0
 30
0.0
  3
BLOCK006
  1

  0
LINE
  5
114
330
111
100
AcDbEntity
  8
254
  6
CONTINUOUS
 62
1
370
15
100
AcDbLine
 10
11.33285798981
 20
12.029538831528
 30
0.0
 11
6.7003419901737
 21
12.029538831528
 31
0.0
  0
LINE
  5
115
330
111
100
AcDbEntity
  8
254
  6
CONTINUOUS
 62
1
370
15
100
AcDbLine
 10
9.0165999899916
 20
15.967177431219
 30
0.0
 11
11.33285798981
 21
12.029538831528
 31
0.0
  0
LINE
  5
116
330
111
100
AcDbEntity
  8
254
  6
CONTINUOUS
 62
1
370
15
100
AcDbLine
 10
9.0165999899916
 20
15.967177431219
 30
0.0
 11
6.7003419901737
 21
12.029538831528
 31
0.0
  0
MTEXT
  5
117
330
111
100
AcDbEntity
  8
254
 62
7
370
20
100
AcDbMText
 10
9.0165999899916
 20
13.392043537304
 30
0.0
 40
2.8433772321429
 41
0.0
 71
5
  1
\T1.000000;ÇP
  7
GMM001
 44
0.79999984000003
  0
ENDBLK
  5
113
330
111
100
AcDbEntity
  8
0
100
AcDbBlockEnd
  0
BLOCK
  5
119
330
118
100
AcDbEntity
  8
0
100
AcDbBlockBegin
  2
BLOCK007
 70
64
 10
0.0
 20
0.0
 30
0.0
  3
BLOCK007
  1

  0
LINE
  5
11B
330
118
100
AcDbEntity
  8
254
  6
CONTINUOUS
 62
1
370
15
100
AcDbLine
 10
11.33285798981
 20
17.926913831528
 30
0.0
 11
6.7003419901737
 21
17.926913831528
 31
0.0
  0
LINE
  5
11C
330
118
100
AcDbEntity
  8
254
  6
CONTINUOUS
 62
1
370
15
100
AcDbLine
 10
9.0165999899916
 20
21.864552431219
 30
0.0
 11
11.33285798981
 21
17.926913831528
 31
0.0
  0
LINE
  5
11D
330
118
100
AcDbEntity
  8
254
  6
CONTINUOUS
 62
1
370
15
100
AcDbLine
 10
9.0165999899916
 20
21.864552431219
 30
0.0
 11
6.7003419901737
 21
17.926913831528
 31
0.0
  0
MTEXT
  5
11E
330
118
100
AcDbEntity
  8
254
 62
7
370
20
100
AcDbMText
 10
9.0165999899916
 20
19.289418537303
 30
0.0
 40
2.8433772321429
 41
0.0
 71
5
  1
\T1.000000;ÇQ
  7
GMM001
 44
0.79999984000003
  0
ENDBLK
  5
11A
330
118
100
AcDbEntity
  8
0
100
AcDbBlockEnd
  0
BLOCK
  5
185
330
184
100
AcDbEntity
  8
0
100
AcDbBlockBegin
  2
_OPEN30
 70
0
 10
0.0
 20
0.0
 30
0.0
  3
_OPEN30
  1

  0
LWPOLYLINE
  5
187
330
184
100
AcDbEntity
  8
0
  6
BYBLOCK
 62
0
100
AcDbPolyline
 90
3
 70
0
 10
-1.0
 20
0.25881904510252074
 10
0.0
 20
0.0
 10
-1.0
 20
-0.25881904510252074
  0
LINE
  5
188
330
184
100
AcDbEntity
  8
0
  6
BYBLOCK
 62
0
100
AcDbLine
 10
0.0
 20
0.0
 30
0.0
 11
-1.0
 21
0.0
 31
0.0
  0
ENDBLK
  5
186
330
184
100
AcDbEntity
  8
0
100
AcDbBlockEnd
  0
BLOCK
  5
18C
330
18B
100
AcDbEntity
  8
0
100
AcDbBlockBegin
  2
*D1
 70
1
 10
0.0
 20
0.0
 30
0.0
  3
*D1
  1

  0
LINE
  5
18E
330
18B
100
AcDbEntity
  8
0
 62
3
100
AcDbLine
 10
171.84072875253807
 20
112.49999999999994
 30
0.0
 11
171.84072875253807
 21
95.50000000000003
 31
0.0
  0
LINE
  5
18F
330
18B
100
AcDbEntity
  8
0
 62
3
100
AcDbLine
 10
173.84072875253807
 20
112.49999999999994
 30
0.0
 11
173.84072875253807
 21
95.50000000000003
 31
0.0
  0
INSERT
  5
190
330
18B
100
AcDbEntity
  8
1
 62
3
100
AcDbBlockReference
  2
_OPEN30
 10
171.84072875253807
 20
97.50000000000003
 30
0.0
 41
3.0
 42
3.0
  0
INSERT
  5
192
330
18B
100
AcDbEntity
  8
1
 62
3
100
AcDbBlockReference
  2
_OPEN30
 10
173.84072875253807
 20
97.50000000000003
 30
0.0
 41
3.0
 42
3.0
 50
180.0
  0
LINE
  5
194
330
18B
100
AcDbEntity
  8
0
 62
3
100
AcDbLine
 10
171.84072875253807
 20
97.50000000000003
 30
0.0
 11
173.84072875253807
 21
97.50000000000003
 31
0.0
  0
MTEXT
  5
195
330
18B
100
AcDbEntity
  8
1
 62
7
100
AcDbMText
 10
172.84072875253807
 20
102.00000000000003
 30
0.0
 40
4.0
 71
5
  1
2
  7
VF003
  0
POINT
  5
196
330
18B
100
AcDbEntity
  8
Defpoints
100
AcDbPoint
 10
171.84072875253807
 20
97.50000000000003
 30
0.0
  0
POINT
  5
197
330
18B
100
AcDbEntity
  8
Defpoints
100
AcDbPoint
 10
171.84072875253807
 20
113.49999999999994
 30
0.0
  0
POINT
  5
198
330
18B
100
AcDbEntity
  8
Defpoints
100
AcDbPoint
 10
173.84072875253807
 20
113.49999999999994
 30
0.0
  0
ENDBLK
  5
18D
330
18B
100
AcDbEntity
  8
0
100
AcDbBlockEnd
  0
BLOCK
  5
19C
330
19B
100
AcDbEntity
  8
0
100
AcDbBlockBegin
  2
*D2
 70
1
 10
0.0
 20
0.0
 30
0.0
  3
*D2
  1

  0
LINE
  5
19E
330
19B
100
AcDbEntity
  8
0
 62
3
100
AcDbLine
 10
171.84072875253807
 20
112.49999999999994
 30
0.0
 11
171.84072875253807
 21
87.50000000000003
 31
0.0
  0
LINE
  5
19F
330
19B
100
AcDbEntity
  8
0
 62
3
100
AcDbLine
 10
176.59072875253807
 20
113.49999999999994
 30
0.0
 11
176.59072875253807
 21
87.50000000000003
 31
0.0
  0
INSERT
  5
1A0
330
19B
100
AcDbEntity
  8
1
 62
3
100
AcDbBlockReference
  2
_OPEN30
 10
171.84072875253807
 20
89.50000000000003
 30
0.0
 41
3.0
 42
3.0
  0
INSERT
  5
1A2
330
19B
100
AcDbEntity
  8
1
 62
3
100
AcDbBlockReference
  2
_OPEN30
 10
176.59072875253807
 20
89.50000000000003
 30
0.0
 41
3.0
 42
3.0
 50
180.0
  0
LINE
  5
1A4
330
19B
100
AcDbEntity
  8
0
 62
3
100
AcDbLine
 10
171.84072875253807
 20
89.50000000000003
 30
0.0
 11
176.59072875253807
 21
89.50000000000003
 31
0.0
  0
MTEXT
  5
1A5
330
19B
100
AcDbEntity
  8
1
 62
7
100
AcDbMText
 10
174.21572875253807
 20
94.00000000000003
 30
0.0
 40
4.0
 71
5
  1
4.75
  7
VF003
  0
POINT
  5
1A6
330
19B
100
AcDbEntity
  8
Defpoints
100
AcDbPoint
 10
171.84072875253807
 20
89.50000000000003
 30
0.0
  0
POINT
  5
1A7
330
19B
100
AcDbEntity
  8
Defpoints
100
AcDbPoint
 10
171.84072875253807
 20
113.49999999999994
 30
0.0
  0
POINT
  5
1A8
330
19B
100
AcDbEntity
  8
Defpoints
100
AcDbPoint
 10
176.59072875253807
 20
114.49999999999994
 30
0.0
  0
ENDBLK
  5
19D
330
19B
100
AcDbEntity
  8
0
100
AcDbBlockEnd
  0
BLOCK
  5
1AC
330
1AB
100
AcDbEntity
  8
0
100
AcDbBlockBegin
  2
*D3
 70
1
 10
0.0
 20
0.0
 30
0.0
  3
*D3
  1

  0
LINE
  5
1AE
330
1AB
100
AcDbEntity
  8
0
 62
3
100
AcDbLine
 10
170.84072875253807
 20
148.49999999999991
 30
0.0
 11
153.84072875249998
 21
148.49999999999991
 31
0.0
  0
LINE
  5
1AF
330
1AB
100
AcDbEntity
  8
0
 62
3
100
AcDbLine
 10
170.84072875253807
 20
118.49999999999994
 30
0.0
 11
153.84072875249998
 21
118.49999999999994
 31
0.0
  0
INSERT
  5
1B0
330
1AB
100
AcDbEntity
  8
1
 62
3
100
AcDbBlockReference
  2
_OPEN30
 10
155.84072875249998
 20
148.49999999999991
 30
0.0
 41
3.0
 42
3.0
 50
270.0
  0
INSERT
  5
1B2
330
1AB
100
AcDbEntity
  8
1
 62
3
100
AcDbBlockReference
  2
_OPEN30
 10
155.84072875249998
 20
118.49999999999994
 30
0.0
 41
3.0
 42
3.0
 50
90.0
  0
LINE
  5
1B4
330
1AB
100
AcDbEntity
  8
0
 62
3
100
AcDbLine
 10
155.84072875249998
 20
151.49999999999991
 30
0.0
 11
155.84072875249998
 21
115.49999999999994
 31
0.0
  0
MTEXT
  5
1B5
330
1AB
100
AcDbEntity
  8
1
 62
7
100
AcDbMText
 10
158.34072875249998
 20
133.49999999999994
 30
0.0
 40
4.0
 71
5
  1
%%c30
  7
VF003
 50
90.0
  0
POINT
  5
1B6
330
1AB
100
AcDbEntity
  8
Defpoints
100
AcDbPoint
 10
155.84072875249998
 20
148.49999999999991
 30
0.0
  0
POINT
  5
1B7
330
1AB
100
AcDbEntity
  8
Defpoints
100
AcDbPoint
 10
171.84072875253807
 20
148.49999999999991
 30
0.0
  0
POINT
  5
1B8
330
1AB
100
AcDbEntity
  8
Defpoints
100
AcDbPoint
 10
171.84072875253807
 20
118.49999999999994
 30
0.0
  0
ENDBLK
  5
1AD
330
1AB
100
AcDbEntity
  8
0
100
AcDbBlockEnd
  0
BLOCK
  5
1BC
330
1BB
100
AcDbEntity
  8
0
100
AcDbBlockBegin
  2
*D4
 70
1
 10
0.0
 20
0.0
 30
0.0
  3
*D4
  1

  0
LINE
  5
1BE
330
1BB
100
AcDbEntity
  8
0
 62
3
100
AcDbLine
 10
175.59072875253807
 20
152.49999999999991
 30
0.0
 11
145.84072875249998
 21
152.49999999999991
 31
0.0
  0
LINE
  5
1BF
330
1BB
100
AcDbEntity
  8
0
 62
3
100
AcDbLine
 10
175.59072875253807
 20
114.49999999999994
 30
0.0
 11
145.84072875249998
 21
114.49999999999994
 31
0.0
  0
INSERT
  5
1C0
330
1BB
100
AcDbEntity
  8
1
 62
3
100
AcDbBlockReference
  2
_OPEN30
 10
147.84072875249998
 20
152.49999999999991
 30
0.0
 41
3.0
 42
3.0
 50
270.0
  0
INSERT
  5
1C2
330
1BB
100
AcDbEntity
  8
1
 62
3
100
AcDbBlockReference
  2
_OPEN30
 10
147.84072875249998
 20
114.49999999999994
 30
0.0
 41
3.0
 42
3.0
 50
90.0
  0
LINE
  5
1C4
330
1BB
100
AcDbEntity
  8
0
 62
3
100
AcDbLine
 10
147.84072875249998
 20
155.49999999999991
 30
0.0
 11
147.84072875249998
 21
111.49999999999994
 31
0.0
  0
MTEXT
  5
1C5
330
1BB
100
AcDbEntity
  8
1
 62
7
100
AcDbMText
 10
150.34072875249998
 20
133.49999999999994
 30
0.0
 40
4.0
 71
5
  1
%%c38
  7
VF003
 50
90.0
  0
POINT
  5
1C6
330
1BB
100
AcDbEntity
  8
Defpoints
100
AcDbPoint
 10
147.84072875249998
 20
152.49999999999991
 30
0.0
  0
POINT
  5
1C7
330
1BB
100
AcDbEntity
  8
Defpoints
100
AcDbPoint
 10
176.59072875253807
 20
152.49999999999991
 30
0.0
  0
POINT
  5
1C8
330
1BB
100
AcDbEntity
  8
Defpoints
100
AcDbPoint
 10
176.59072875253807
 20
114.49999999999994
 30
0.0
  0
ENDBLK
  5
1BD
330
1BB
100
AcDbEntity
  8
0
100
AcDbBlockEnd
  0
BLOCK
  5
1CC
330
1CB
100
AcDbEntity
  8
0
100
AcDbBlockBegin
  2
*D5
 70
1
 10
0.0
 20
0.0
 30
0.0
  3
*D5
  1

  0
LINE
  5
1CE
330
1CB
100
AcDbEntity
  8
0
 62
3
100
AcDbLine
 10
170.84072875253807
 20
153.49999999999991
 30
0.0
 11
137.84072875249998
 21
153.49999999999991
 31
0.0
  0
LINE
  5
1CF
330
1CB
100
AcDbEntity
  8
0
 62
3
100
AcDbLine
 10
170.84072875253807
 20
113.49999999999994
 30
0.0
 11
137.84072875249998
 21
113.49999999999994
 31
0.0
  0
INSERT
  5
1D0
330
1CB
100
AcDbEntity
  8
1
 62
3
100
AcDbBlockReference
  2
_OPEN30
 10
139.84072875249998
 20
153.49999999999991
 30
0.0
 41
3.0
 42
3.0
 50
270.0
  0
INSERT
  5
1D2
330
1CB
100
AcDbEntity
  8
1
 62
3
100
AcDbBlockReference
  2
_OPEN30
 10
139.84072875249998
 20
113.49999999999994
 30
0.0
 41
3.0
 42
3.0
 50
90.0
  0
LINE
  5
1D4
330
1CB
100
AcDbEntity
  8
0
 62
3
100
AcDbLine
 10
139.84072875249998
 20
156.49999999999991
 30
0.0
 11
139.84072875249998
 21
110.49999999999994
 31
0.0
  0
MTEXT
  5
1D5
330
1CB
100
AcDbEntity
  8
1
 62
7
100
AcDbMText
 10
142.34072875249998
 20
133.49999999999994
 30
0.0
 40
4.0
 71
5
  1
%%c40
  7
VF003
 50
90.0
  0
POINT
  5
1D6
330
1CB
100
AcDbEntity
  8
Defpoints
100
AcDbPoint
 10
139.84072875249998
 20
153.49999999999991
 30
0.0
  0
POINT
  5
1D7
330
1CB
100
AcDbEntity
  8
Defpoints
100
AcDbPoint
 10
171.84072875253807
 20
153.49999999999991
 30
0.0
  0
POINT
  5
1D8
330
1CB
100
AcDbEntity
  8
Defpoints
100
AcDbPoint
 10
171.84072875253807
 20
113.49999999999994
 30
0.0
  0
ENDBLK
  5
1CD
330
1CB
100
AcDbEntity
  8
0
100
AcDbBlockEnd
  0
ENDSEC
  0
SECTION
  2
ENTITIES
  0
LWPOLYLINE
  5
31
330
17
100
AcDbEntity
  8
1
  6
CONTINUOUS
 62
7
370
20
100
AcDbPolyline
 90
4
 70
1
 10
5.0
 20
292.0
 10
5.0
 20
5.0
 10
415.0
 20
5.0
 10
415.0
 20
292.0
  0
LINE
  5
32
330
17
100
AcDbEntity
  8
254
  6
CONTINUOUS
 62
3
370
9
100
AcDbLine
 10
325.18000713133
 20
4.9999999999998
 30
0.0
 11
325.18000713133
 21
18.122
 31
0.0
  0
LINE
  5
33
330
17
100
AcDbEntity
  8
254
  6
CONTINUOUS
 62
3
370
9
100
AcDbLine
 10
325.18000713133
 20
18.122
 30
0.0
 11
415.0
 21
18.122
 31
0.0
  0
MTEXT
  5
34
330
17
100
AcDbEntity
  8
254
 62
3
370
9
100
AcDbMText
 10
354.47071050214
 20
20.913826357749
 30
0.0
 40
2.916
 41
0.0
 71
5
  1
\T1.500000;ïîïiñºÅiå^éÆÅj
  7
GMM001
 44
0.79999984000003
  0
MTEXT
  5
35
330
17
100
AcDbEntity
  8
254
 62
3
370
9
100
AcDbMText
 10
384.36838887415
 20
20.913826357749
 30
0.0
 40
2.916
 41
0.0
 71
5
  1
\T1.000000;ÉÅÅ[ÉJÅ[
  7
GMM001
 44
0.79999984000003
  0
MTEXT
  5
36
330
17
100
AcDbEntity
  8
254
 62
3
370
9
100
AcDbMText
 10
406.97447618747
 20
20.913826357749
 30
0.0
 40
2.916
 41
0.0
 71
5
  1
\T1.000000;îıçl
  7
GMM001
 44
0.79999984000003
  0
LINE
  5
37
330
17
100
AcDbEntity
  8
254
  6
CONTINUOUS
 62
3
370
9
100
AcDbLine
 10
325.18000713133
 20
23.5895
 30
0.0
 11
415.0
 21
23.5895
 31
0.0
  0
LINE
  5
38
330
17
100
AcDbEntity
  8
254
  6
CONTINUOUS
 62
3
370
9
100
AcDbLine
 10
398.08000713133
 20
18.122
 30
0.0
 11
398.08000713133
 21
23.5895
 31
0.0
  0
LINE
  5
39
330
17
100
AcDbEntity
  8
254
  6
CONTINUOUS
 62
3
370
9
100
AcDbLine
 10
391.51900713133
 20
18.122
 30
0.0
 11
391.51900713133
 21
23.5895
 31
0.0
  0
LINE
  5
3A
330
17
100
AcDbEntity
  8
254
  6
CONTINUOUS
 62
3
370
9
100
AcDbLine
 10
376.21000713133
 20
18.122
 30
0.0
 11
376.21000713133
 21
23.5895
 31
0.0
  0
LINE
  5
3B
330
17
100
AcDbEntity
  8
254
  6
CONTINUOUS
 62
3
370
9
100
AcDbLine
 10
332.47000713133
 20
18.122
 30
0.0
 11
332.47000713133
 21
23.5895
 31
0.0
  0
LINE
  5
3C
330
17
100
AcDbEntity
  8
254
  6
CONTINUOUS
 62
3
370
9
100
AcDbLine
 10
325.18000713133
 20
18.122
 30
0.0
 11
325.18000713133
 21
23.5895
 31
0.0
  0
MTEXT
  5
3D
330
17
100
AcDbEntity
  8
254
 62
3
370
9
100
AcDbMText
 10
325.91897077517
 20
19.561222878301
 30
0.0
 40
2.916
 41
0.0
 71
7
  1
\T1.000000;ïiî‘
  7
GMM001
 44
0.79999984000003
  0
MTEXT
  5
3E
330
17
100
AcDbEntity
  8
254
 62
7
370
20
100
AcDbMText
 10
360.49798976328
 20
11.631430728461
 30
0.0
 40
5.5662694627463
 41
0.0
 71
4
  1
\T1.000000;ÉâÉCÉìÉèÅ|ÉNÉX
  7
GMM001
 44
0.79999984000003
  0
MTEXT
  5
3F
330
17
100
AcDbEntity
  8
254
 62
7
370
20
100
AcDbMText
 10
352.94784324569
 20
12.052597702861
 30
0.0
 40
3.3397616776478
 41
0.0
 71
4
  1
{\T1.000000;äîéÆ}\P{\T1.000000;âÔé–}
  7
GMM001
 44
0.79999984000003
  0
LINE
  5
40
330
17
100
AcDbEntity
  8
254
  6
CONTINUOUS
 62
3
370
9
100
AcDbLine
 10
398.08000713133
 20
23.5895
 30
0.0
 11
398.08000713133
 21
28.5895
 31
0.0
  0
LINE
  5
41
330
17
100
AcDbEntity
  8
254
  6
CONTINUOUS
 62
3
370
9
100
AcDbLine
 10
391.51900713133
 20
23.5895
 30
0.0
 11
391.51900713133
 21
28.5895
 31
0.0
  0
LINE
  5
42
330
17
100
AcDbEntity
  8
254
  6
CONTINUOUS
 62
3
370
9
100
AcDbLine
 10
376.21000713133
 20
23.5895
 30
0.0
 11
376.21000713133
 21
28.5895
 31
0.0
  0
LINE
  5
43
330
17
100
AcDbEntity
  8
254
  6
CONTINUOUS
 62
3
370
9
100
AcDbLine
 10
332.47000713133
 20
23.5895
 30
0.0
 11
332.47000713133
 21
28.5895
 31
0.0
  0
LINE
  5
44
330
17
100
AcDbEntity
  8
254
  6
CONTINUOUS
 62
3
370
9
100
AcDbLine
 10
325.18000713133
 20
23.5895
 30
0.0
 11
325.18000713133
 21
28.5895
 31
0.0
  0
MTEXT
  5
45
330
17
100
AcDbEntity
  8
254
 62
3
370
9
100
AcDbMText
 10
391.83137173292
 20
19.561222878301
 30
0.0
 40
2.916
 41
0.0
 71
7
  1
\T1.000000;å¬êî
  7
GMM001
 44
0.79999984000003
  0
LINE
  5
46
330
17
100
AcDbEntity
  8
1
  6
CONTINUOUS
 62
3
370
9
100
AcDbLine
 10
325.18000713133
 20
25.412
 30
0.0
 11
325.18000713133
 21
4.9999999999998
 31
0.0
  0
MTEXT
  5
47
330
17
100
AcDbEntity
  8
254
 62
3
370
9
100
AcDbMText
 10
319.11745461417
 20
13.591878580434
 30
0.0
 40
2.5274464285714
 41
0.0
 71
7
  1
\T1.000000;REV
  7
GMM004
 44
0.79999984000003
  0
MTEXT
  5
48
330
17
100
AcDbEntity
  8
254
 62
3
370
9
100
AcDbMText
 10
319.11745461417
 20
25.457656387089
 30
0.0
 40
2.5274464285714
 41
0.0
 71
7
  1
\T1.000000;REV
  7
GMM004
 44
0.79999984000003
  0
LINE
  5
49
330
17
100
AcDbEntity
  8
254
  6
CONTINUOUS
 62
3
370
9
100
AcDbLine
 10
317.59766784561
 20
16.794734368391
 30
0.0
 11
317.59766784561
 21
4.9999999999998
 31
0.0
  0
LINE
  5
4A
330
17
100
AcDbEntity
  8
254
  6
CONTINUOUS
 62
3
370
9
100
AcDbLine
 10
317.59766784561
 20
28.589484368391
 30
0.0
 11
317.59766784561
 21
16.79475
 31
0.0
  0
LINE
  5
4B
330
17
100
AcDbEntity
  8
254
  6
CONTINUOUS
 62
3
370
9
100
AcDbLine
 10
317.59766784561
 20
25.472316071428
 30
0.0
 11
325.18000713133
 21
25.472316071428
 31
0.0
  0
LINE
  5
4C
330
17
100
AcDbEntity
  8
254
  6
CONTINUOUS
 62
3
370
9
100
AcDbLine
 10
317.59766784561
 20
13.677566071429
 30
0.0
 11
325.18000713133
 21
13.677566071429
 31
0.0
  0
LINE
  5
4D
330
17
100
AcDbEntity
  8
254
  6
CONTINUOUS
 62
3
370
9
100
AcDbLine
 10
267.71322795736
 20
16.79475
 30
0.0
 11
325.18000713133
 21
16.79475
 31
0.0
  0
TEXT
  5
4E
330
17
100
AcDbEntity
  8
254
 62
3
370
9
100
AcDbText
 10
270.14932182782
 20
14.45637354981
 30
0.0
 40
3.3699285714286
  1
ê}î‘
  7
STANDARD1
 41
0.75
100
AcDbText
  0
LINE
  5
4F
330
17
100
AcDbEntity
  8
254
  6
CONTINUOUS
 62
3
370
9
100
AcDbLine
 10
267.71322795736
 20
4.9999999999998
 30
0.0
 11
267.71322795736
 21
28.5895
 31
0.0
  0
LINE
  5
50
330
17
100
AcDbEntity
  8
1
  6
CONTINUOUS
 62
3
370
9
100
AcDbLine
 10
267.71322795736
 20
28.5895
 30
0.0
 11
267.71322795736
 21
4.9999999999998
 31
0.0
  0
LINE
  5
51
330
17
100
AcDbEntity
  8
254
  6
CONTINUOUS
 62
3
370
9
100
AcDbLine
 10
273.18936188593
 20
4.9999999999998
 30
0.0
 11
273.18936188593
 21
16.79475
 31
0.0
  0
LINE
  5
52
330
17
100
AcDbEntity
  8
254
  6
CONTINUOUS
 62
3
370
9
100
AcDbLine
 10
273.18936188593
 20
16.79475
 30
0.0
 11
273.18936188593
 21
28.5895
 31
0.0
  0
TEXT
  5
53
330
17
100
AcDbEntity
  8
254
 62
3
370
9
100
AcDbText
 10
270.14932182782
 20
27.712778419251
 30
0.0
 40
2.5274464285714
  1
êªçÏî‘çÜ
  7
STANDARD1
100
AcDbText
  0
MTEXT
  5
54
330
17
100
AcDbEntity
  8
254
 62
7
370
20
100
AcDbMText
 10
267.09039456035
 20
6.2412531331843
 30
0.0
 40
4.6226729374878
 41
0.0
 71
9
  1
\T1.000000;ÇãÇá
  7
GMM007
 44
0.79999984000003
  0
LINE
  5
55
330
17
100
AcDbEntity
  8
254
  6
CONTINUOUS
 62
3
370
9
100
AcDbLine
 10
217.16311492467
 20
28.5895
 30
0.0
 11
325.18000713133
 21
28.5895
 31
0.0
  0
LINE
  5
56
330
17
100
AcDbEntity
  8
254
  6
CONTINUOUS
 62
3
370
9
100
AcDbLine
 10
166.43737735483
 20
4.9999999999998
 30
0.0
 11
166.43737735483
 21
12.815804374491
 31
0.0
  0
LINE
  5
57
330
17
100
AcDbEntity
  8
254
  6
CONTINUOUS
 62
3
370
9
100
AcDbLine
 10
166.43737735483
 20
12.815804374491
 30
0.0
 11
166.43737735483
 21
20.631608748982
 31
0.0
  0
LINE
  5
58
330
17
100
AcDbEntity
  8
254
  6
CONTINUOUS
 62
3
370
9
100
AcDbLine
 10
223.30492199768
 20
4.9999999999998
 30
0.0
 11
223.30492199768
 21
28.5895
 31
0.0
  0
LINE
  5
59
330
17
100
AcDbEntity
  8
254
  6
CONTINUOUS
 62
7
370
20
100
AcDbLine
 10
217.82878806911
 20
4.9999999999998
 30
0.0
 11
217.82878806911
 21
28.5895
 31
0.0
  0
LINE
  5
5A
330
17
100
AcDbEntity
  8
254
  6
CONTINUOUS
 62
3
370
9
100
AcDbLine
 10
217.82878806911
 20
4.9999999999998
 30
0.0
 11
217.82878806911
 21
28.5895
 31
0.0
  0
TEXT
  5
5B
330
17
100
AcDbEntity
  8
254
 62
3
370
9
100
AcDbText
 10
220.2355970388
 20
27.408725253101
 30
0.0
 40
2.5274464285714
  1
ïiñº
  7
STANDARD1
100
AcDbText
  0
LINE
  5
5C
330
17
100
AcDbEntity
  8
1
  6
CONTINUOUS
 62
3
370
9
100
AcDbLine
 10
217.82878806911
 20
28.5895
 30
0.0
 11
202.24286842626
 21
28.5895
 31
0.0
  0
LINE
  5
5D
330
17
100
AcDbEntity
  8
254
  6
CONTINUOUS
 62
3
370
9
100
AcDbLine
 10
166.43737735483
 20
20.631608748982
 30
0.0
 11
166.43737735483
 21
28.5895
 31
0.0
  0
LINE
  5
5E
330
17
100
AcDbEntity
  8
1
  6
CONTINUOUS
 62
3
370
9
100
AcDbLine
 10
166.43737735483
 20
28.5895
 30
0.0
 11
202.24286842626
 21
28.5895
 31
0.0
  0
LINE
  5
5F
330
17
100
AcDbEntity
  8
254
  6
CONTINUOUS
 62
3
370
9
100
AcDbLine
 10
217.82878806911
 20
12.863166666667
 30
0.0
 11
267.71322795736
 21
12.863166666667
 31
0.0
  0
LINE
  5
60
330
17
100
AcDbEntity
  8
254
  6
CONTINUOUS
 62
3
370
9
100
AcDbLine
 10
217.82878806911
 20
20.726333333333
 30
0.0
 11
267.71322795736
 21
20.726333333333
 31
0.0
  0
TEXT
  5
61
330
17
100
AcDbEntity
  8
254
 62
3
370
9
100
AcDbText
 10
220.59281442956
 20
11.80382974045
 30
0.0
 40
2.5274464285714
  1
èdó 
  7
STANDARD1
100
AcDbText
  0
TEXT
  5
62
330
17
100
AcDbEntity
  8
254
 62
3
370
9
100
AcDbText
 10
220.63752676512
 20
20.213063918481
 30
0.0
 40
2.5274464285714
  1
ëïíuñº
  7
STANDARD1
100
AcDbText
  0
LINE
  5
63
330
17
100
AcDbEntity
  8
1
  6
CONTINUOUS
 62
3
370
9
100
AcDbLine
 10
92.759851837957
 20
28.5895
 30
0.0
 11
92.759851837957
 21
4.9999999999998
 31
0.0
  0
LINE
  5
64
330
17
100
AcDbEntity
  8
2
  6
CONTINUOUS
 62
3
370
9
100
AcDbLine
 10
166.43737735483
 20
20.726333333333
 30
0.0
 11
182.02329699768
 21
20.726333333333
 31
0.0
  0
TEXT
  5
65
330
17
100
AcDbEntity
  8
254
 62
3
370
9
100
AcDbText
 10
168.38089831337
 20
27.433909723082
 30
0.0
 40
2.5274464285714
  1
é⁄ìx
  7
STANDARD1
100
AcDbText
  0
LINE
  5
66
330
17
100
AcDbEntity
  8
2
  6
CONTINUOUS
 62
3
370
9
100
AcDbLine
 10
166.43737735483
 20
12.863166666667
 30
0.0
 11
182.02329699768
 21
12.863166666667
 31
0.0
  0
MTEXT
  5
67
330
17
100
AcDbEntity
  8
254
 62
7
370
20
100
AcDbMText
 10
176.4152706333
 20
14.58269282434
 30
0.0
 40
4.2124107142857
 41
0.0
 71
8
  1
\T1.000000;Ç`ÇR
  7
GMM008
 44
0.79999984000003
  0
TEXT
  5
68
330
17
100
AcDbEntity
  8
254
 62
3
370
9
100
AcDbText
 10
168.38089831337
 20
19.757672207458
 30
0.0
 40
2.5274464285714
  1
ê}òg
  7
STANDARD1
100
AcDbText
  0
LINE
  5
69
330
17
100
AcDbEntity
  8
254
  6
CONTINUOUS
 62
3
370
9
100
AcDbLine
 10
170.64978806911
 20
28.5895
 30
0.0
 11
170.64978806911
 21
12.863166666667
 31
0.0
  0
INSERT
  5
6A
330
17
100
AcDbEntity
  8
0
100
AcDbBlockReference
  2
BLOCK004
 10
0.0
 20
0.0
 30
0.0
  0
MTEXT
  5
6C
330
17
100
AcDbEntity
  8
254
 62
3
370
9
100
AcDbMText
 10
170.51077147172
 20
5.3410491057923
 30
0.0
 40
1.8490691749951
 41
0.0
 71
7
  1
\T1.000000;ëÊéOäpñ@
  7
GMM001
 44
0.79999984000003
  0
MTEXT
  5
6D
330
17
100
AcDbEntity
  8
254
 62
7
370
20
100
AcDbMText
 10
191.87839303901
 20
6.9539510936227
 30
0.0
 40
4.2124107142857
 41
0.0
 71
8
  1
\T1.000000;ÅñÅñ
  7
GMM008
 44
0.79999984000003
  0
TEXT
  5
6E
330
17
100
AcDbEntity
  8
254
 62
3
370
9
100
AcDbText
 10
184.02331530209
 20
11.916209053108
 30
0.0
 40
2.5274464285714
  1
êRç∏
  7
STANDARD1
100
AcDbText
  0
TEXT
  5
6F
330
17
100
AcDbEntity
  8
254
 62
3
370
9
100
AcDbText
 10
184.08020453162
 20
19.653144268485
 30
0.0
 40
2.5274464285714
  1
çXêV
  7
STANDARD1
100
AcDbText
  0
LINE
  5
70
330
17
100
AcDbEntity
  8
254
  6
CONTINUOUS
 62
3
370
9
100
AcDbLine
 10
197.60921664054
 20
4.9999999999998
 30
0.0
 11
197.60921664054
 21
12.815804374491
 31
0.0
  0
LINE
  5
71
330
17
100
AcDbEntity
  8
254
  6
CONTINUOUS
 62
3
370
9
100
AcDbLine
 10
197.60921664054
 20
12.815804374491
 30
0.0
 11
197.60921664054
 21
20.631608748982
 31
0.0
  0
LINE
  5
72
330
17
100
AcDbEntity
  8
254
  6
CONTINUOUS
 62
3
370
9
100
AcDbLine
 10
186.23570771197
 20
4.9999999999998
 30
0.0
 11
186.23570771197
 21
12.815804374491
 31
0.0
  0
LINE
  5
73
330
17
100
AcDbEntity
  8
254
  6
CONTINUOUS
 62
3
370
9
100
AcDbLine
 10
186.23570771197
 20
12.815804374491
 30
0.0
 11
186.23570771197
 21
20.631608748982
 31
0.0
  0
TEXT
  5
74
330
17
100
AcDbEntity
  8
254
 62
3
370
9
100
AcDbText
 10
183.96642607257
 20
27.532166360389
 30
0.0
 40
2.5274464285714
  1
êªê}
  7
STANDARD1
100
AcDbText
  0
LINE
  5
75
330
17
100
AcDbEntity
  8
254
  6
CONTINUOUS
 62
3
370
9
100
AcDbLine
 10
197.60921664054
 20
20.631608748982
 30
0.0
 11
197.60921664054
 21
28.5895
 31
0.0
  0
LINE
  5
76
330
17
100
AcDbEntity
  8
254
  6
CONTINUOUS
 62
3
370
9
100
AcDbLine
 10
186.23570771197
 20
20.631608748982
 30
0.0
 11
186.23570771197
 21
28.5895
 31
0.0
  0
LINE
  5
77
330
17
100
AcDbEntity
  8
1
  6
CONTINUOUS
 62
3
370
9
100
AcDbLine
 10
182.02329699768
 20
12.863166666667
 30
0.0
 11
217.82878806911
 21
12.863166666667
 31
0.0
  0
LINE
  5
78
330
17
100
AcDbEntity
  8
1
  6
CONTINUOUS
 62
3
370
9
100
AcDbLine
 10
182.02329699768
 20
20.726333333333
 30
0.0
 11
217.82878806911
 21
20.726333333333
 31
0.0
  0
MTEXT
  5
79
330
17
100
AcDbEntity
  8
254
 62
7
370
20
100
AcDbMText
 10
207.70539689736
 20
6.8592265092718
 30
0.0
 40
4.2124107142857
 41
0.0
 71
8
  1
\T1.000000;ÅñÅñÅDÅñÅñÅDÅñÅñ
  7
GMM009
 44
0.79999984000003
  0
LINE
  5
7A
330
17
100
AcDbEntity
  8
254
  6
CONTINUOUS
 62
3
370
9
100
AcDbLine
 10
181.96979638834
 20
12.815804374491
 30
0.0
 11
181.96979638834
 21
20.631608748982
 31
0.0
  0
LINE
  5
7B
330
17
100
AcDbEntity
  8
254
  6
CONTINUOUS
 62
3
370
9
100
AcDbLine
 10
181.96979638834
 20
20.631608748982
 30
0.0
 11
181.96979638834
 21
28.5895
 31
0.0
  0
LINE
  5
7C
330
17
100
AcDbEntity
  8
254
  6
CONTINUOUS
 62
3
370
9
100
AcDbLine
 10
181.96979638834
 20
4.9999999999998
 30
0.0
 11
181.96979638834
 21
12.815804374491
 31
0.0
  0
INSERT
  5
7D
330
17
100
AcDbEntity
  8
0
100
AcDbBlockReference
  2
BLOCK005
 10
0.0
 20
0.0
 30
0.0
  0
POINT
  5
7F
330
17
100
AcDbEntity
  8
1
 62
3
100
AcDbPoint
 10
415.0
 20
4.9999999999998
 30
0.0
  0
LINE
  5
80
330
17
100
AcDbEntity
  8
254
  6
CONTINUOUS
 62
3
370
9
100
AcDbLine
 10
5.0
 20
5.0
 30
0.0
 11
5.0
 21
11.763017397237
 31
0.0
  0
LINE
  5
81
330
17
100
AcDbEntity
  8
254
  6
CONTINUOUS
 62
3
370
9
100
AcDbLine
 10
5.0
 20
11.804
 30
0.0
 11
5.0
 21
18.567017397237
 31
0.0
  0
INSERT
  5
82
330
17
100
AcDbEntity
  8
0
100
AcDbBlockReference
  2
BLOCK006
 10
0.0
 20
0.0
 30
0.0
  0
LINE
  5
84
330
17
100
AcDbEntity
  8
254
  6
CONTINUOUS
 62
3
370
9
100
AcDbLine
 10
12.898270089286
 20
5.0
 30
0.0
 11
12.898270089286
 21
10.861853280869
 31
0.0
  0
LINE
  5
85
330
17
100
AcDbEntity
  8
254
  6
CONTINUOUS
 62
3
370
9
100
AcDbLine
 10
36.593080357143
 20
5.0
 30
0.0
 11
36.593080357143
 21
10.861853280869
 31
0.0
  0
MTEXT
  5
86
330
17
100
AcDbEntity
  8
254
 62
7
370
20
100
AcDbMText
 10
38.413381681514
 20
12.163600656498
 30
0.0
 40
3.1593080357143
 41
0.0
 71
7
  1
\T1.000000;Åñ
  7
GMM008
 44
0.79999984000003
  0
MTEXT
  5
87
330
17
100
AcDbEntity
  8
254
 62
3
370
9
100
AcDbMText
 10
8.9491350446428
 20
6.4071855891086
 30
0.0
 40
3.1593080357143
 41
0.0
 71
8
  1
\T1.000000;ÇqÇdÇu
  7
GMM008
 44
0.79999984000003
  0
MTEXT
  5
88
330
17
100
AcDbEntity
  8
254
 62
3
370
9
100
AcDbMText
 10
17.227619624579
 20
6.4071855891086
 30
0.0
 40
3.1593080357143
 41
0.0
 71
8
  1
\T1.000000;êªê}
  7
GMM008
 44
0.79999984000003
  0
MTEXT
  5
89
330
17
100
AcDbEntity
  8
254
 62
7
370
20
100
AcDbMText
 10
17.1633359375
 20
12.327316601086
 30
0.0
 40
3.1593080357143
 41
0.0
 71
8
  1
\T1.000000;ÅñÅñ
  7
GMM008
 44
0.79999984000003
  0
LINE
  5
8A
330
17
100
AcDbEntity
  8
254
  6
CONTINUOUS
 62
3
370
9
100
AcDbLine
 10
21.428401785714
 20
10.897375
 30
0.0
 11
21.428401785714
 21
16.759228280869
 31
0.0
  0
LINE
  5
8B
330
17
100
AcDbEntity
  8
254
  6
CONTINUOUS
 62
3
370
9
100
AcDbLine
 10
36.593080357143
 20
10.897375
 30
0.0
 11
36.593080357143
 21
16.759228280869
 31
0.0
  0
LINE
  5
8C
330
17
100
AcDbEntity
  8
254
  6
CONTINUOUS
 62
3
370
9
100
AcDbLine
 10
12.898270089286
 20
10.897375
 30
0.0
 11
12.898270089286
 21
16.759228280869
 31
0.0
  0
MTEXT
  5
8D
330
17
100
AcDbEntity
  8
254
 62
3
370
9
100
AcDbMText
 10
43.315724723913
 20
6.4646750653583
 30
0.0
 40
3.1593080357143
 41
0.0
 71
8
  1
\T1.000000;ïœçXì‡óe
  7
GMM008
 44
0.79999984000003
  0
MTEXT
  5
8E
330
17
100
AcDbEntity
  8
254
 62
7
370
20
100
AcDbMText
 10
29.018366611674
 20
12.327316601086
 30
0.0
 40
3.1593080357143
 41
0.0
 71
8
  1
\T1.000000;ÅñÅñÅDÅñÅñÅDÅñÅñ
  7
GMM015
 44
0.79999984000003
  0
MTEXT
  5
8F
330
17
100
AcDbEntity
  8
254
 62
7
370
20
100
AcDbMText
 10
38.413381681514
 20
18.060975656498
 30
0.0
 40
3.1593080357143
 41
0.0
 71
7
  1
\T1.000000;Åñ
  7
GMM008
 44
0.79999984000003
  0
MTEXT
  5
90
330
17
100
AcDbEntity
  8
254
 62
7
370
20
100
AcDbMText
 10
17.1633359375
 20
18.224691601086
 30
0.0
 40
3.1593080357143
 41
0.0
 71
8
  1
\T1.000000;ÅñÅñ
  7
GMM008
 44
0.79999984000003
  0
LINE
  5
91
330
17
100
AcDbEntity
  8
254
  6
CONTINUOUS
 62
3
370
9
100
AcDbLine
 10
21.428401785714
 20
16.79475
 30
0.0
 11
21.428401785714
 21
22.656603280869
 31
0.0
  0
LINE
  5
92
330
17
100
AcDbEntity
  8
254
  6
CONTINUOUS
 62
3
370
9
100
AcDbLine
 10
36.593080357143
 20
16.79475
 30
0.0
 11
36.593080357143
 21
22.656603280869
 31
0.0
  0
LINE
  5
93
330
17
100
AcDbEntity
  8
254
  6
CONTINUOUS
 62
3
370
9
100
AcDbLine
 10
12.898270089286
 20
16.79475
 30
0.0
 11
12.898270089286
 21
22.656603280869
 31
0.0
  0
MTEXT
  5
94
330
17
100
AcDbEntity
  8
254
 62
7
370
20
100
AcDbMText
 10
29.018366611674
 20
18.224691601086
 30
0.0
 40
3.1593080357143
 41
0.0
 71
8
  1
\T1.000000;ÅñÅñÅDÅñÅñÅDÅñÅñ
  7
GMM015
 44
0.79999984000003
  0
LINE
  5
95
330
17
100
AcDbEntity
  8
254
  6
CONTINUOUS
 62
3
370
9
100
AcDbLine
 10
5.0
 20
10.897375
 30
0.0
 11
92.759851837957
 21
10.897375
 31
0.0
  0
LINE
  5
96
330
17
100
AcDbEntity
  8
254
  6
CONTINUOUS
 62
3
370
9
100
AcDbLine
 10
5.0
 20
16.79475
 30
0.0
 11
92.759851837957
 21
16.79475
 31
0.0
  0
LINE
  5
97
330
17
100
AcDbEntity
  8
254
  6
CONTINUOUS
 62
3
370
9
100
AcDbLine
 10
5.0
 20
22.692125
 30
0.0
 11
92.759851837957
 21
22.692125
 31
0.0
  0
MTEXT
  5
98
330
17
100
AcDbEntity
  8
254
 62
7
370
20
100
AcDbMText
 10
38.413381681514
 20
23.958350656497
 30
0.0
 40
3.1593080357143
 41
0.0
 71
7
  1
\T1.000000;Åñ
  7
GMM008
 44
0.79999984000003
  0
MTEXT
  5
99
330
17
100
AcDbEntity
  8
254
 62
7
370
20
100
AcDbMText
 10
17.1633359375
 20
24.122066601086
 30
0.0
 40
3.1593080357143
 41
0.0
 71
8
  1
\T1.000000;ÅñÅñ
  7
GMM008
 44
0.79999984000003
  0
LINE
  5
9A
330
17
100
AcDbEntity
  8
254
  6
CONTINUOUS
 62
3
370
9
100
AcDbLine
 10
21.428401785714
 20
22.692125
 30
0.0
 11
21.428401785714
 21
28.553978280869
 31
0.0
  0
LINE
  5
9B
330
17
100
AcDbEntity
  8
254
  6
CONTINUOUS
 62
3
370
9
100
AcDbLine
 10
36.593080357143
 20
22.692125
 30
0.0
 11
36.593080357143
 21
28.553978280869
 31
0.0
  0
LINE
  5
9C
330
17
100
AcDbEntity
  8
254
  6
CONTINUOUS
 62
3
370
9
100
AcDbLine
 10
12.898270089286
 20
22.692125
 30
0.0
 11
12.898270089286
 21
28.553978280869
 31
0.0
  0
MTEXT
  5
9D
330
17
100
AcDbEntity
  8
254
 62
7
370
20
100
AcDbMText
 10
29.018366611674
 20
24.122066601086
 30
0.0
 40
3.1593080357143
 41
0.0
 71
8
  1
\T1.000000;ÅñÅñÅDÅñÅñÅDÅñÅñ
  7
GMM015
 44
0.79999984000003
  0
LINE
  5
9E
330
17
100
AcDbEntity
  8
254
  6
CONTINUOUS
 62
3
370
9
100
AcDbLine
 10
5.0
 20
28.5895
 30
0.0
 11
92.759851837957
 21
28.5895
 31
0.0
  0
INSERT
  5
9F
330
17
100
AcDbEntity
  8
0
100
AcDbBlockReference
  2
BLOCK007
 10
0.0
 20
0.0
 30
0.0
  0
LINE
  5
A1
330
17
100
AcDbEntity
  8
254
  6
CONTINUOUS
 62
3
370
9
100
AcDbLine
 10
5.0
 20
18.526034794474
 30
0.0
 11
5.0
 21
28.5895
 31
0.0
  0
LINE
  5
A2
330
17
100
AcDbEntity
  8
254
  6
CONTINUOUS
 62
3
370
9
100
AcDbLine
 10
325.18000713133
 20
28.5895
 30
0.0
 11
415.0
 21
28.5895
 31
0.0
  0
MTEXT
  5
A3
330
17
100
AcDbEntity
  8
254
 62
7
370
20
100
AcDbMText
 10
383.87898754983
 20
24.45606176625
 30
0.0
 40
3.2
 41
0.0
 71
8
  1
\T1.000000;Åñ
  7
GMM003
 44
0.79999984000003
  0
CIRCLE
  5
A4
330
17
100
AcDbEntity
  8
254
  6
CONTINUOUS
 62
3
370
9
100
AcDbCircle
 10
19.323632491628
 20
278.8442948685
 30
0.0
 40
10.0
  0
LINE
  5
13E
330
17
100
AcDbEntity
  8
0
  6
Continuous
 62
7
370
25
100
AcDbLine
 10
173.84072875249998
 20
153.50000000000003
 30
0.0
 11
171.84072875249998
 21
153.50000000000003
 31
0.0
  0
LINE
  5
13F
330
17
100
AcDbEntity
  8
0
  6
Continuous
 62
7
370
25
100
AcDbLine
 10
171.84072875249998
 20
113.50000000000003
 30
0.0
 11
173.84072875249998
 21
113.50000000000003
 31
0.0
  0
LINE
  5
140
330
17
100
AcDbEntity
  8
0
  6
Continuous
 62
7
370
25
100
AcDbLine
 10
176.59072875249998
 20
152.50000000000003
 30
0.0
 11
173.84072875249998
 21
152.50000000000003
 31
0.0
  0
LINE
  5
141
330
17
100
AcDbEntity
  8
0
  6
Continuous
 62
7
370
25
100
AcDbLine
 10
173.84072875249998
 20
114.50000000000003
 30
0.0
 11
176.59072875249998
 21
114.50000000000003
 31
0.0
  0
LINE
  5
142
330
17
100
AcDbEntity
  8
0
  6
Continuous
 62
7
370
25
100
AcDbLine
 10
173.84072875249998
 20
133.50000000000003
 30
0.0
 11
173.84072875249998
 21
153.50000000000003
 31
0.0
  0
LINE
  5
143
330
17
100
AcDbEntity
  8
0
  6
Continuous
 62
7
370
25
100
AcDbLine
 10
171.84072875249998
 20
133.50000000000003
 30
0.0
 11
171.84072875249998
 21
153.50000000000003
 31
0.0
  0
LINE
  5
144
330
17
100
AcDbEntity
  8
0
  6
Continuous
 62
7
370
25
100
AcDbLine
 10
173.84072875249998
 20
113.50000000000003
 30
0.0
 11
173.84072875249998
 21
133.50000000000003
 31
0.0
  0
LINE
  5
145
330
17
100
AcDbEntity
  8
0
  6
Continuous
 62
7
370
25
100
AcDbLine
 10
171.84072875249998
 20
113.50000000000003
 30
0.0
 11
171.84072875249998
 21
133.50000000000003
 31
0.0
  0
LINE
  5
146
330
17
100
AcDbEntity
  8
0
  6
Continuous
 62
7
370
25
100
AcDbLine
 10
176.59072875249998
 20
133.50000000000003
 30
0.0
 11
176.59072875249998
 21
152.50000000000003
 31
0.0
  0
LINE
  5
147
330
17
100
AcDbEntity
  8
0
  6
Continuous
 62
7
370
25
100
AcDbLine
 10
176.59072875249998
 20
114.50000000000003
 30
0.0
 11
176.59072875249998
 21
133.50000000000003
 31
0.0
  0
LINE
  5
148
330
17
100
AcDbEntity
  8
0
  6
HIDDEN
 62
7
370
18
100
AcDbLine
 10
171.84072875249998
 20
118.50000000000003
 30
0.0
 11
176.59072875249998
 21
118.50000000000003
 31
0.0
  0
LINE
  5
149
330
17
100
AcDbEntity
  8
0
  6
HIDDEN
 62
7
370
18
100
AcDbLine
 10
176.59072875249998
 20
148.50000000000003
 30
0.0
 11
171.84072875249998
 21
148.50000000000003
 31
0.0
  0
LINE
  5
14A
330
17
100
AcDbEntity
  8
0
  6
Continuous
 62
7
370
25
100
AcDbLine
 10
173.84072875249998
 20
208.49999999999997
 30
0.0
 11
171.84072875249998
 21
208.49999999999997
 31
0.0
  0
LINE
  5
14B
330
17
100
AcDbEntity
  8
0
  6
Continuous
 62
7
370
25
100
AcDbLine
 10
173.84072875249998
 20
168.49999999999997
 30
0.0
 11
173.84072875249998
 21
208.49999999999997
 31
0.0
  0
LINE
  5
14C
330
17
100
AcDbEntity
  8
0
  6
Continuous
 62
7
370
25
100
AcDbLine
 10
173.84072875249998
 20
168.49999999999997
 30
0.0
 11
171.84072875249998
 21
168.49999999999997
 31
0.0
  0
LINE
  5
14D
330
17
100
AcDbEntity
  8
0
  6
Continuous
 62
7
370
25
100
AcDbLine
 10
171.84072875249998
 20
168.49999999999997
 30
0.0
 11
171.84072875249998
 21
208.49999999999997
 31
0.0
  0
LINE
  5
14E
330
17
100
AcDbEntity
  8
0
  6
Continuous
 62
7
370
25
100
AcDbLine
 10
176.59072875249998
 20
207.49999999999997
 30
0.0
 11
173.84072875249998
 21
207.49999999999997
 31
0.0
  0
LINE
  5
14F
330
17
100
AcDbEntity
  8
0
  6
Continuous
 62
7
370
25
100
AcDbLine
 10
176.59072875249998
 20
169.49999999999997
 30
0.0
 11
176.59072875249998
 21
207.49999999999997
 31
0.0
  0
LINE
  5
150
330
17
100
AcDbEntity
  8
0
  6
Continuous
 62
7
370
25
100
AcDbLine
 10
176.59072875249998
 20
169.49999999999997
 30
0.0
 11
173.84072875249998
 21
169.49999999999997
 31
0.0
  0
LINE
  5
151
330
17
100
AcDbEntity
  8
0
  6
HIDDEN
 62
7
370
18
100
AcDbLine
 10
176.59072875249998
 20
203.49999999999997
 30
0.0
 11
171.84072875249998
 21
203.49999999999997
 31
0.0
  0
LINE
  5
152
330
17
100
AcDbEntity
  8
0
  6
HIDDEN
 62
7
370
18
100
AcDbLine
 10
176.59072875249998
 20
173.49999999999997
 30
0.0
 11
171.84072875249998
 21
173.49999999999997
 31
0.0
  0
ARC
  5
153
330
17
100
AcDbEntity
  8
0
  6
Continuous
 62
7
370
25
100
AcDbCircle
 10
219.87500000000003
 20
133.50000000000003
 30
0.0
 40
19.00000000000006
100
AcDbArc
 50
0.0
 51
180.0
  0
ARC
  5
154
330
17
100
AcDbEntity
  8
0
  6
Continuous
 62
7
370
25
100
AcDbCircle
 10
219.87500000000003
 20
133.50000000000003
 30
0.0
 40
19.00000000000006
100
AcDbArc
 50
180.0
 51
0.0
  0
ARC
  5
155
330
17
100
AcDbEntity
  8
0
  6
Continuous
 62
7
370
25
100
AcDbCircle
 10
219.87500000000003
 20
133.50000000000003
 30
0.0
 40
15.00000000000006
100
AcDbArc
 50
0.0
 51
180.0
  0
ARC
  5
156
330
17
100
AcDbEntity
  8
0
  6
Continuous
 62
7
370
25
100
AcDbCircle
 10
219.87500000000003
 20
133.50000000000003
 30
0.0
 40
15.00000000000006
100
AcDbArc
 50
180.0
 51
0.0
  0
ARC
  5
157
330
17
100
AcDbEntity
  8
0
  6
Continuous
 62
7
370
25
100
AcDbCircle
 10
219.87500000000003
 20
133.50000000000003
 30
0.0
 40
20.00000000000006
100
AcDbArc
 50
0.0
 51
180.0
  0
ARC
  5
158
330
17
100
AcDbEntity
  8
0
  6
Continuous
 62
7
370
25
100
AcDbCircle
 10
219.87500000000003
 20
133.50000000000003
 30
0.0
 40
20.00000000000006
100
AcDbArc
 50
180.0
 51
0.0
  0
LINE
  5
159
330
17
100
AcDbEntity
  8
0
  6
Continuous
 62
7
370
25
100
AcDbLine
 10
238.87500000000003
 20
188.19379719549997
 30
0.0
 11
238.87500000000003
 21
190.43928442819995
 31
0.0
  0
LINE
  5
15A
330
17
100
AcDbEntity
  8
0
  6
Continuous
 62
7
370
25
100
AcDbLine
 10
239.87500000000003
 20
186.5607155718
 30
0.0
 11
239.87500000000003
 21
188.19379719549997
 31
0.0
  0
LINE
  5
15B
330
17
100
AcDbEntity
  8
0
  6
Continuous
 62
7
370
25
100
AcDbLine
 10
200.87500000000003
 20
190.43928442819995
 30
0.0
 11
200.87500000000003
 21
188.19379719549997
 31
0.0
  0
LINE
  5
15C
330
17
100
AcDbEntity
  8
0
  6
Continuous
 62
7
370
25
100
AcDbLine
 10
199.87500000000003
 20
188.19379719549997
 30
0.0
 11
199.87500000000003
 21
186.5607155718
 31
0.0
  0
LWPOLYLINE
  5
15D
330
17
100
AcDbEntity
  8
0
  6
Continuous
 62
7
370
25
100
AcDbPolyline
 90
70
 70
128
 10
206.43997115750003
 20
182.68340736589997
 10
205.84240427980004
 20
183.04445062109997
 10
205.27392209960001
 20
183.42082079859998
 10
204.73570288310006
 20
183.81173781379997
 10
204.22886217170006
 20
184.21639143139996
 10
203.75445047020006
 20
184.63394294499997
 10
203.31345106940003
 20
185.0635269153
 10
202.9067780077
 20
185.50425296399996
 10
202.5352741773
 20
185.955207619
 10
202.19970957660004
 20
186.41545620789995
 10
201.90077971440004
 20
186.88404479529996
 10
201.63910416850004
 20
187.36000215979996
 10
201.41522530140006
 20
187.84234180689995
 10
201.2296071364
 20
188.33006401429995
 10
201.0826343953
 20
188.82215790299998
 10
200.9746117017
 20
189.3176035334
 10
200.90576294900004
 20
189.8153740187
 10
200.87623083690002
 20
190.31443765359998
 10
200.88607657500003
 20
190.81376005259997
 10
200.93527975670006
 20
191.31230629359996
 10
201.02373840090004
 20
191.80904306349996
 10
201.15126916340003
 20
192.30294079949996
 10
201.31760771730004
 20
192.79297582299998
 10
201.52240930050002
 20
193.27813246169998
 10
201.7652494305
 20
193.75740515429996
 10
202.04562478410006
 20
194.22980053499995
 10
202.36295424040006
 20
194.69433949229997
 10
202.71658008580002
 20
195.15005919809997
 10
203.1057693767
 20
195.5960151039
 10
203.52971545880004
 20
196.03128289789996
 10
203.98753963920004
 20
196.45496042109997
 10
204.47829300720005
 20
196.86616953719997
 10
205.00095840170005
 20
197.2640579525
 10
205.55445251880005
 20
197.6478009825
 10
206.13762815730004
 20
198.01660326109996
 10
206.74927659680006
 20
198.3697003893
 10
207.3881301025
 20
198.70636051949995
 10
208.05286455280006
 20
199.02588587199998
 10
208.74210218410005
 20
199.3276141817
 10
209.45441444630004
 20
199.61092007079995
 10
210.1883249633
 20
199.8752163444
 10
210.94231259350002
 20
200.11995520819997
 10
211.7148145824
 20
200.34462940349997
 10
212.50422980180005
 20
200.54877325869998
 10
213.30892206790006
 20
200.7319636545
 10
214.12722353330005
 20
200.89382090089995
 10
214.9574381431
 20
201.03400952399997
 10
215.79784515070006
 20
201.1522389614
 10
216.6467026845
 20
201.2482641646
 10
217.50225135730003
 20
201.32188610669996
 10
218.36271791410005
 20
201.37295219499995
 10
219.22631890650004
 20
201.40135658719996
 10
220.09126438940004
 20
201.40704041089995
 10
220.9557616314
 20
201.38999188539995
 10
221.8180188299
 20
201.35024634649997
 10
222.67624882510003
 20
201.2878861728
 10
223.52867280440003
 20
201.2030406154
 10
224.37352398890002
 20
201.0958855296
 10
225.20905129540003
 20
200.9666430106
 10
226.03352296610004
 20
200.81558093339996
 10
226.84523015740004
 20
200.64301239719995
 10
227.6424904824
 20
200.44929507659995
 10
228.42365149720004
 20
200.23483048029996
 10
229.1870941264
 20
200.00006311899998
 10
229.93123601840003
 20
199.74547958379995
 10
230.65453482570004
 20
199.47160753809996
 10
231.35549140090004
 20
199.17901462339998
 10
232.03265290450005
 20
198.86830728329997
 10
232.68461581600005
 20
198.54012950619997
 10
233.31002884250003
 20
198.1951614905
  0
LWPOLYLINE
  5
15E
330
17
100
AcDbEntity
  8
0
  6
Continuous
 62
7
370
25
100
AcDbPolyline
 90
70
 70
128
 10
233.31002884250003
 20
198.1951614905
 10
233.90759572020002
 20
197.8341182353
 10
234.47607790040004
 20
197.4577480578
 10
235.01429711690005
 20
197.0668310427
 10
235.52113782830006
 20
196.6621774251
 10
235.99554952980006
 20
196.24462591149998
 10
236.43654893060003
 20
195.81504194119995
 10
236.84322199230004
 20
195.3743158925
 10
237.21472582270005
 20
194.92336123749996
 10
237.5502904234
 20
194.46311264849996
 10
237.8492202856
 20
193.99452406109995
 10
238.11089583150002
 20
193.5185666967
 10
238.33477469860006
 20
193.03622704949996
 10
238.52039286360005
 20
192.5485048422
 10
238.66736560470005
 20
192.05641095349998
 10
238.77538829830004
 20
191.56096532309996
 10
238.84423705100002
 20
191.06319483769997
 10
238.87376916310004
 20
190.56413120279998
 10
238.86392342500002
 20
190.06480880389998
 10
238.81472024330006
 20
189.56626256279995
 10
238.7262615991
 20
189.069525793
 10
238.59873083660003
 20
188.575628057
 10
238.43239228270002
 20
188.08559303349998
 10
238.22759069950004
 20
187.60043639479997
 10
237.98475056950005
 20
187.1211637022
 10
237.70437521590006
 20
186.64876832139996
 10
237.38704575960006
 20
186.18422936419998
 10
237.03341991420004
 20
185.7285096583
 10
236.64423062330005
 20
185.28255375249998
 10
236.22028454120002
 20
184.84728595849995
 10
235.76246036080002
 20
184.4236084353
 10
235.2717069928
 20
184.0123993192
 10
234.7490415983
 20
183.61451090389997
 10
234.1955474812
 20
183.23076787399995
 10
233.61237184270001
 20
182.86196559529995
 10
233.00072340320006
 20
182.50886846709997
 10
232.36186989750004
 20
182.172208337
 10
231.69713544720005
 20
181.85268298449998
 10
231.0078978159
 20
181.55095467469997
 10
230.29558555370002
 20
181.2676487857
 10
229.56167503670005
 20
181.00335251209995
 10
228.80768740650004
 20
180.75861364829998
 10
228.03518541760005
 20
180.533939453
 10
227.2457701982
 20
180.32979559779997
 10
226.44107793210006
 20
180.14660520189997
 10
225.62277646670006
 20
179.98474795549996
 10
224.79256185690005
 20
179.84455933249998
 10
223.95215484930006
 20
179.72632989509995
 10
223.10329731550004
 20
179.63030469179998
 10
222.24774864270003
 20
179.5566827497
 10
221.3872820859
 20
179.5056166615
 10
220.52368109350002
 20
179.4772122693
 10
219.65873561060002
 20
179.4715284456
 10
218.79423836860005
 20
179.4885769711
 10
217.93198117010004
 20
179.52832250999998
 10
217.07375117490002
 20
179.59068268359997
 10
216.22132719560003
 20
179.67552824109995
 10
215.37647601110004
 20
179.78268332689996
 10
214.54094870460003
 20
179.91192584579997
 10
213.71647703390002
 20
180.06298792299995
 10
212.90476984260002
 20
180.23555645919996
 10
212.10750951760005
 20
180.4292737799
 10
211.32634850280002
 20
180.6437383762
 10
210.56290587360004
 20
180.87850573749998
 10
209.81876398160003
 20
181.13308927259996
 10
209.09546517430002
 20
181.4069613184
 10
208.39450859910002
 20
181.699554233
 10
207.71734709550006
 20
182.0102615731
 10
207.065384184
 20
182.33843935029998
 10
206.43997115750003
 20
182.68340736589997
  0
LWPOLYLINE
  5
15F
330
17
100
AcDbEntity
  8
0
  6
Continuous
 62
7
370
25
100
AcDbPolyline
 90
62
 70
128
 10
209.26839828220002
 20
184.31622358959996
 10
208.73644703390002
 20
184.63954976519997
 10
208.23403322570002
 20
184.97825579459996
 10
207.76248916880004
 20
185.33144349019997
 10
207.32306531300006
 20
185.69817626169996
 10
206.91692693160005
 20
186.07748159969995
 10
206.5451510306
 20
186.46835365479998
 10
206.20872349260006
 20
186.86975590439997
 10
205.90853646320002
 20
187.2806239019
 10
205.6453859844
 20
187.6998680994
 10
205.41996988390005
 20
188.12637673649996
 10
205.23288592460003
 20
188.55901878889998
 10
205.08463021970002
 20
188.99664696789998
 10
204.97559591660004
 20
189.43810076199995
 10
204.90607215460003
 20
189.8822095153
 10
204.8762432983
 20
190.32779553109995
 10
204.8861884485
 20
190.7736771953
 10
204.93588123240002
 20
191.21867211009996
 10
205.02518987370004
 20
191.66160022889997
 10
205.15387754180003
 20
192.10128698589997
 10
205.3216029803
 20
192.53656641089995
 10
205.52792141150005
 20
192.96628422109998
 10
205.77228571590004
 20
193.3893008821
 10
206.05404788330006
 20
193.80449462979996
 10
206.37246073120005
 20
194.21076444499997
 10
206.72667988590004
 20
194.60703297319995
 10
207.11576602180006
 20
194.9922493815
 10
207.53868735250003
 20
195.36539214529998
 10
207.99432236670006
 20
195.72547175689996
 10
208.48146280210003
 20
196.07153334999995
 10
208.99881685000005
 20
196.4026592315
 10
209.54501258040003
 20
196.71797131509996
 10
210.11860158050004
 20
197.01663344969998
 10
210.71806279520004
 20
197.29785363719995
 10
211.34180656120006
 20
197.56088613209997
 10
211.98817882230006
 20
197.80503341949995
 10
212.65546551530005
 20
198.02964806469996
 10
213.34189711590003
 20
198.2341344301
 10
214.04565333090002
 20
198.41795025449997
 10
214.76486792530002
 20
198.58060809149995
 10
215.4976336713
 20
198.72167660169995
 10
216.24200740600006
 20
198.84078169679995
 10
216.99601518380004
 20
198.93760753139995
 10
217.75765751190002
 20
199.01189734099998
 10
218.52491465160003
 20
199.06345412209996
 10
219.2957519749
 20
199.09214115569998
 10
220.06812535990005
 20
199.0978823687
 10
220.83998661110004
 20
199.0806625365
 10
221.60928889140004
 20
199.04052732299996
 10
222.3739921492
 20
198.97758315959996
 10
223.13206852910005
 20
198.89199696289998
 10
223.88150774880003
 20
198.78399569209998
 10
224.62032243020005
 20
198.6538657472
 10
225.34655336960006
 20
198.50195220929996
 10
226.05827473310003
 20
198.3286579259
 10
226.7535991635
 20
198.13444244219997
 10
227.4306827855
 20
197.91982078289996
 10
228.08773009510006
 20
197.68536208589998
 10
228.7229987208
 20
197.4316880936
 10
229.33480404450003
 20
197.15947150379995
 10
229.92152366850004
 20
196.86943418599995
 10
230.48160171780003
 20
196.5623452669
  0
LWPOLYLINE
  5
160
330
17
100
AcDbEntity
  8
0
  6
Continuous
 62
7
370
25
100
AcDbPolyline
 90
62
 70
128
 10
230.48160171780003
 20
196.5623452669
 10
231.01355296610004
 20
196.2390190912
 10
231.51596677430004
 20
195.9003130619
 10
231.9875108312
 20
195.54712536629998
 10
232.42693468700006
 20
195.1803925948
 10
232.8330730684
 20
194.80108725669996
 10
233.20484896940005
 20
194.41021520169997
 10
233.54127650740006
 20
194.0088129521
 10
233.84146353680003
 20
193.59794495449998
 10
234.10461401560005
 20
193.17870075709996
 10
234.3300301161
 20
192.75219212
 10
234.51711407540003
 20
192.3195500675
 10
234.66536978030004
 20
191.88192188859998
 10
234.77440408340001
 20
191.44046809439996
 10
234.84392784540003
 20
190.99635934119996
 10
234.87375670170005
 20
190.5507733254
 10
234.86381155150005
 20
190.10489166109997
 10
234.81411876760004
 20
189.65989674629995
 10
234.7248101263
 20
189.21696862759998
 10
234.59612245820003
 20
188.77728187059998
 10
234.42839701970004
 20
188.3420024456
 10
234.2220785885
 20
187.91228463539997
 10
233.97771428410002
 20
187.48926797439995
 10
233.69595211670006
 20
187.0740742267
 10
233.3775392688
 20
186.6678044114
 10
233.02332011410002
 20
186.27153588319996
 10
232.63423397820006
 20
185.88631947489998
 10
232.21131264750002
 20
185.51317671119997
 10
231.75567763330005
 20
185.1530970996
 10
231.26853719790003
 20
184.80703550639996
 10
230.75118315000006
 20
184.47590962489997
 10
230.20498741960003
 20
184.1605975414
 10
229.63139841950002
 20
183.86193540669998
 10
229.03193720480002
 20
183.5807152193
 10
228.40819343880005
 20
183.3176827244
 10
227.76182117770006
 20
183.073535437
 10
227.0945344847
 20
182.8489207918
 10
226.40810288410003
 20
182.64443442639995
 10
225.70434666910003
 20
182.46061860199998
 10
224.98513207470003
 20
182.297960765
 10
224.25236632870005
 20
182.1568922548
 10
223.50799259400006
 20
182.0377871597
 10
222.75398481620002
 20
181.94096132499996
 10
221.99234248810004
 20
181.86667151549997
 10
221.22508534840003
 20
181.81511473429995
 10
220.45424802510004
 20
181.78642770079998
 10
219.6818746401
 20
181.78068648779995
 10
218.9100133889
 20
181.79790631999995
 10
218.14071110860002
 20
181.8380415335
 10
217.37600785080005
 20
181.9009856969
 10
216.61793147090006
 20
181.98657189359997
 10
215.86849225120002
 20
182.09457316439997
 10
215.1296775698
 20
182.22470310929995
 10
214.40344663040005
 20
182.3766166472
 10
213.69172526690002
 20
182.54991093059996
 10
212.99640083650004
 20
182.7441264142
 10
212.31931721450005
 20
182.9587480736
 10
211.66226990490006
 20
183.19320677049998
 10
211.02700127920005
 20
183.44688076289995
 10
210.41519595550002
 20
183.7190973527
 10
209.8284763315
 20
184.0091346705
 10
209.26839828220002
 20
184.31622358959996
  0
LWPOLYLINE
  5
161
330
17
100
AcDbEntity
  8
0
  6
Continuous
 62
7
370
25
100
AcDbPolyline
 90
53
 70
128
 10
238.87500000000003
 20
188.19379719549997
 10
238.86392342500002
 20
187.8193215712
 10
238.81472024330006
 20
187.32077533019995
 10
238.7262615991
 20
186.82403856029995
 10
238.59873083660003
 20
186.3301408243
 10
238.43239228270002
 20
185.8401058008
 10
238.22759069950004
 20
185.35494916209998
 10
237.98475056950005
 20
184.87567646949995
 10
237.70437521590006
 20
184.40328108879996
 10
237.38704575960006
 20
183.9387421315
 10
237.03341991420004
 20
183.48302242559996
 10
236.64423062330005
 20
183.03706651989998
 10
236.22028454120002
 20
182.60179872589995
 10
235.76246036080002
 20
182.17812120259995
 10
235.2717069928
 20
181.76691208649996
 10
234.7490415983
 20
181.36902367119998
 10
234.1955474812
 20
180.98528064129997
 10
233.61237184270001
 20
180.61647836269995
 10
233.00072340320006
 20
180.2633812344
 10
232.36186989750004
 20
179.92672110429996
 10
231.69713544720005
 20
179.6071957518
 10
231.0078978159
 20
179.30546744199998
 10
230.29558555370002
 20
179.02216155299996
 10
229.56167503670005
 20
178.75786527939997
 10
228.80768740650004
 20
178.5131264156
 10
228.03518541760005
 20
178.2884522203
 10
227.2457701982
 20
178.0843083651
 10
226.44107793210006
 20
177.9011179692
 10
225.62277646670006
 20
177.73926072289996
 10
224.79256185690005
 20
177.5990720998
 10
223.95215484930006
 20
177.48084266239997
 10
223.10329731550004
 20
177.38481745919998
 10
222.24774864270003
 20
177.3111955171
 10
221.3872820859
 20
177.26012942879996
 10
220.52368109350002
 20
177.23172503659995
 10
219.65873561060002
 20
177.22604121289996
 10
218.79423836860005
 20
177.24308973839996
 10
217.93198117010004
 20
177.2828352773
 10
217.07375117490002
 20
177.34519545089998
 10
216.22132719560003
 20
177.43004100839997
 10
215.37647601110004
 20
177.53719609419997
 10
214.54094870460003
 20
177.66643861309998
 10
213.71647703390002
 20
177.81750069029997
 10
212.90476984260002
 20
177.99006922659996
 10
212.10750951760005
 20
178.18378654719996
 10
211.32634850280002
 20
178.39825114349995
 10
210.56290587360004
 20
178.6330185048
 10
209.81876398160003
 20
178.88760203989997
 10
209.09546517430002
 20
179.16147408569995
 10
208.39450859910002
 20
179.4540670003
 10
207.71734709550006
 20
179.7647743405
 10
207.065384184
 20
180.0929521176
 10
206.43997115750003
 20
180.43792013319998
  0
LWPOLYLINE
  5
162
330
17
100
AcDbEntity
  8
0
  6
Continuous
 62
7
370
25
100
AcDbPolyline
 90
27
 70
128
 10
205.73286437630006
 20
180.02971607729998
 10
205.12115233510005
 20
180.39883149419998
 10
204.53832164350004
 20
180.7832059225
 10
203.98551322010005
 20
181.18208693119996
 10
203.46380921320005
 20
181.594693692
 10
202.97423088290006
 20
182.02021850789995
 10
202.51773660190005
 20
182.45782839389997
 10
202.095219979
 20
182.9066667082
 10
201.70750811050002
 20
183.36585482869995
 10
201.3553599605
 20
183.8344938732
 10
201.03946487550004
 20
184.3116664586
 10
200.76044123510005
 20
184.7964384972
 10
200.51883524110005
 20
185.28786102499996
 10
200.3151198486
 20
185.78497205929997
 10
200.14969384000003
 20
186.28679848199997
 10
200.02288104450005
 20
186.79235794419995
 10
199.93492970410003
 20
187.30066078949997
 10
199.88601198770002
 20
187.8107119913
 10
199.87622365400003
 20
188.3215131003
 10
199.90558386420005
 20
188.83206419949997
 10
199.97403514420003
 20
189.3413658611
 10
200.08144349750003
 20
189.84842110309998
 10
200.2275986671
 20
190.3522373411
 10
200.41221454750004
 20
190.8518283311
 10
200.63492974430002
 20
191.34621610039997
 10
200.89530828230002
 20
191.8344328616
 10
201.12439479480005
 20
192.21060825729998
  0
LWPOLYLINE
  5
163
330
17
100
AcDbEntity
  8
0
  6
Continuous
 62
7
370
25
100
AcDbPolyline
 90
63
 70
128
 10
238.62560520520006
 20
192.21060825729998
 10
238.7105351245
 20
192.07592793249998
 10
238.9895587649
 20
191.59115589389998
 10
239.2311647589
 20
191.09973336609997
 10
239.43488015140005
 20
190.60262233179995
 10
239.60030616000003
 20
190.10079590909996
 10
239.72711895550006
 20
189.59523644689997
 10
239.81507029590003
 20
189.08693360159995
 10
239.86398801230004
 20
188.57688239979998
 10
239.87377634600003
 20
188.0660812907
 10
239.84441613580006
 20
187.55553019159996
 10
239.77596485580003
 20
187.04622852999998
 10
239.66855650250002
 20
186.539173288
 10
239.52240133290005
 20
186.03535705
 10
239.33778545250001
 20
185.53576606
 10
239.11507025570003
 20
185.04137829069995
 10
238.85469171770004
 20
184.5531615294
 10
238.55715954200005
 20
184.07207148349997
 10
238.22305616160006
 20
183.59904990919998
 10
237.8530355997
 20
183.13502276839998
 10
237.44782218880002
 20
182.6808984162
 10
237.00820915330004
 20
182.23756582219997
 10
236.53505705630002
 20
181.8058928308
 10
236.02929211530002
 20
181.38672446219996
 10
235.4919043888
 20
180.98088125819996
 10
234.92394583860002
 20
180.58915767579995
 10
234.32652827020004
 20
180.21232053229997
 10
233.70082115660003
 20
179.85110750429996
 10
233.04804934880005
 20
179.50622568309998
 10
232.3694906784
 20
179.17835019109995
 10
231.66647345560003
 20
178.86812286
 10
230.94037386990001
 20
178.57615097429996
 10
230.1926132952
 20
178.30300608269997
 10
229.42465550790004
 20
178.0492228793
 10
228.6380038215
 20
177.81529815639996
 10
227.83419814360005
 20
177.60168983279996
 10
227.01481196160003
 20
177.40881605669998
 10
226.18144926240004
 20
177.2370543877
 10
225.33574139270004
 20
177.08674105729997
 10
224.47934386520004
 20
176.9581703108
 10
223.61393311830003
 20
176.85159383159996
 10
222.74120323430006
 20
176.76722024819995
 10
221.86286262290005
 20
176.70521472559997
 10
220.98063067710004
 20
176.66569864279998
 10
220.09623440730005
 20
176.64874935429995
 10
219.21140506070006
 20
176.65440003899997
 10
218.32787473240003
 20
176.6826396356
 10
217.44737297440005
 20
176.73341286369995
 10
216.5716234104
 20
176.80662033219997
 10
215.70234036110006
 20
176.9021187343
 10
214.84122548910003
 20
177.01972112709998
 10
213.98996446700002
 20
177.1591972986
 10
213.1502236784
 20
177.32027421759997
 10
212.32364695520002
 20
177.50263656849998
 10
211.51185236020004
 20
177.7059273683
 10
210.7164290194
 20
177.92974866589995
 10
209.93893401150004
 20
178.17366232039998
 10
209.1808893193
 20
178.43719085949996
 10
208.44377885090003
 20
178.7198184136
 10
207.7290455348
 20
179.02099172619998
 10
207.03808849490005
 20
179.34012123619996
 10
206.37226031210005
 20
179.6765822326
 10
205.73286437630006
 20
180.02971607729998
  0
LWPOLYLINE
  5
164
330
17
100
AcDbEntity
  8
0
  6
Continuous
 62
7
370
25
100
AcDbPolyline
 90
19
 70
128
 10
206.43997115750003
 20
180.43792013319998
 10
205.84240427980004
 20
180.79896338839998
 10
205.27392209960001
 20
181.1753335659
 10
204.73570288310006
 20
181.56625058109998
 10
204.22886217170006
 20
181.97090419869997
 10
203.75445047020006
 20
182.3884557123
 10
203.31345106940003
 20
182.81803968259996
 10
202.9067780077
 20
183.25876573129997
 10
202.5352741773
 20
183.70972038629995
 10
202.19970957660004
 20
184.16996897519996
 10
201.90077971440004
 20
184.63855756259997
 10
201.63910416850004
 20
185.11451492709998
 10
201.41522530140006
 20
185.59685457429995
 10
201.2296071364
 20
186.08457678159996
 10
201.0826343953
 20
186.5766706703
 10
200.9746117017
 20
187.0721163007
 10
200.90576294900004
 20
187.56988678599996
 10
200.87623083690002
 20
188.06895042099998
 10
200.87500000000003
 20
188.19379719549997
  0
LWPOLYLINE
  5
165
330
17
100
AcDbEntity
  8
0
  6
Continuous
 62
7
370
25
100
AcDbPolyline
 90
55
 70
128
 10
239.87500000000003
 20
186.5607155718
 10
239.87377634600003
 20
186.43299966699996
 10
239.84441613580006
 20
185.9224485678
 10
239.77596485580003
 20
185.41314690619996
 10
239.66855650250002
 20
184.90609166419998
 10
239.52240133290005
 20
184.40227542619996
 10
239.33778545250001
 20
183.90268443619996
 10
239.11507025570003
 20
183.4082966669
 10
238.85469171770004
 20
182.92007990569996
 10
238.55715954200005
 20
182.4389898597
 10
238.22305616160006
 20
181.96596828539995
 10
237.8530355997
 20
181.5019411447
 10
237.44782218880002
 20
181.04781679239997
 10
237.00820915330004
 20
180.6044841984
 10
236.53505705630002
 20
180.17281120709995
 10
236.02929211530002
 20
179.75364283849999
 10
235.4919043888
 20
179.3477996344
 10
234.92394583860002
 20
178.956076052
 10
234.32652827020004
 20
178.5792389086
 10
233.70082115660003
 20
178.2180258805
 10
233.04804934880005
 20
177.87314405929996
 10
232.3694906784
 20
177.54526856729998
 10
231.66647345560003
 20
177.23504123619998
 10
230.94037386990001
 20
176.9430693505
 10
230.1926132952
 20
176.669924459
 10
229.42465550790004
 20
176.41614125549998
 10
228.6380038215
 20
176.1822165326
 10
227.83419814360005
 20
175.968608209
 10
227.01481196160003
 20
175.775734433
 10
226.18144926240004
 20
175.60397276399996
 10
225.33574139270004
 20
175.45365943349995
 10
224.47934386520004
 20
175.32508868709996
 10
223.61393311830003
 20
175.21851220789998
 10
222.74120323430006
 20
175.13413862439998
 10
221.86286262290005
 20
175.0721331019
 10
220.98063067710004
 20
175.03261701899996
 10
220.09623440730005
 20
175.01566773049998
 10
219.21140506070006
 20
175.0213184152
 10
218.32787473240003
 20
175.04955801179997
 10
217.44737297440005
 20
175.1003312399
 10
216.5716234104
 20
175.1735387085
 10
215.70234036110006
 20
175.26903711049997
 10
214.84122548910003
 20
175.38663950339995
 10
213.98996446700002
 20
175.52611567489996
 10
213.1502236784
 20
175.6871925939
 10
212.32364695520002
 20
175.86955494469996
 10
211.51185236020004
 20
176.07284574459996
 10
210.7164290194
 20
176.29666704209998
 10
209.93893401150004
 20
176.54058069659996
 10
209.1808893193
 20
176.8041092357
 10
208.44377885090003
 20
177.08673678989996
 10
207.7290455348
 20
177.38791010239996
 10
207.03808849490005
 20
177.7070396124
 10
206.37226031210005
 20
178.04350060879997
 10
205.73286437630006
 20
178.39663445349996
  0
ARC
  5
166
330
17
100
AcDbEntity
  8
0
  6
Continuous
 62
7
370
25
100
AcDbCircle
 10
226.48994343850003
 20
184.839723433
 30
0.0
 40
8.801278482813919
100
AcDbArc
 50
24.5747527449
 51
63.029502794500004
  0
LWPOLYLINE
  5
167
330
17
100
AcDbEntity
  8
0
  6
Continuous
 62
7
370
25
100
AcDbPolyline
 90
19
 70
128
 10
205.73286437630006
 20
178.39663445349996
 10
205.12115233510005
 20
178.76574987039996
 10
204.53832164350004
 20
179.15012429869998
 10
203.98551322010005
 20
179.5490053074
 10
203.46380921320005
 20
179.96161206829996
 10
202.97423088290006
 20
180.3871368841
 10
202.51773660190005
 20
180.82474677009995
 10
202.095219979
 20
181.27358508439997
 10
201.70750811050002
 20
181.73277320499997
 10
201.3553599605
 20
182.20141224939997
 10
201.03946487550004
 20
182.67858483479998
 10
200.76044123510005
 20
183.16335687339998
 10
200.51883524110005
 20
183.6547794012
 10
200.3151198486
 20
184.15189043549995
 10
200.14969384000003
 20
184.6537168582
 10
200.02288104450005
 20
185.15927632039998
 10
199.93492970410003
 20
185.66757916569995
 10
199.88601198770002
 20
186.17763036749997
 10
199.87500000000003
 20
186.5607155718
  0
LWPOLYLINE
  5
168
330
17
100
AcDbEntity
  8
0
  6
Continuous
 62
7
370
25
100
AcDbPolyline
 90
43
 70
128
 10
205.25600268950004
 20
188.49999999999997
 10
205.3216029803
 20
188.6579975544
 10
205.52792141150005
 20
189.08771536459997
 10
205.77228571590004
 20
189.5107320256
 10
206.05404788330006
 20
189.92592577329995
 10
206.37246073120005
 20
190.3321955886
 10
206.72667988590004
 20
190.72846411679998
 10
207.11576602180006
 20
191.11368052509997
 10
207.53868735250003
 20
191.48682328879997
 10
207.99432236670006
 20
191.84690290039995
 10
208.48146280210003
 20
192.1929644936
 10
208.99881685000005
 20
192.52409037509997
 10
209.54501258040003
 20
192.83940245859995
 10
210.11860158050004
 20
193.13806459329996
 10
210.71806279520004
 20
193.4192847807
 10
211.34180656120006
 20
193.68231727559996
 10
211.98817882230006
 20
193.926464563
 10
212.65546551530005
 20
194.1510792082
 10
213.34189711590003
 20
194.3555655736
 10
214.04565333090002
 20
194.53938139799996
 10
214.76486792530002
 20
194.702039235
 10
215.4976336713
 20
194.8431077452
 10
216.24200740600006
 20
194.9622128403
 10
216.99601518380004
 20
195.05903867499998
 10
217.75765751190002
 20
195.13332848449997
 10
218.52491465160003
 20
195.1848852657
 10
219.2957519749
 20
195.21357229919997
 10
220.06812535990005
 20
195.2193135122
 10
220.83998661110004
 20
195.20209368
 10
221.60928889140004
 20
195.16195846649995
 10
222.3739921492
 20
195.09901430309995
 10
223.13206852910005
 20
195.01342810639997
 10
223.88150774880003
 20
194.90542683559997
 10
224.62032243020005
 20
194.7752968907
 10
225.34655336960006
 20
194.62338335279995
 10
226.05827473310003
 20
194.45008906939998
 10
226.7535991635
 20
194.2558735858
 10
227.4306827855
 20
194.04125192639995
 10
228.08773009510006
 20
193.80679322949996
 10
228.7229987208
 20
193.5531192371
 10
229.33480404450003
 20
193.2809026473
 10
229.92152366850004
 20
192.9908653295
 10
230.48160171780003
 20
192.6837764104
  0
LWPOLYLINE
  5
169
330
17
100
AcDbEntity
  8
0
  6
HIDDEN
 62
7
370
18
100
AcDbPolyline
 90
19
 70
128
 10
233.31002884250003
 20
195.9496742579
 10
233.90759572020002
 20
195.5886310027
 10
234.47607790040004
 20
195.2122608251
 10
235.01429711690005
 20
194.82134381
 10
235.52113782830006
 20
194.41669019239995
 10
235.99554952980006
 20
193.9991386788
 10
236.43654893060003
 20
193.56955470849996
 10
236.84322199230004
 20
193.12882865979995
 10
237.21472582270005
 20
192.67787400479997
 10
237.5502904234
 20
192.21762541579997
 10
237.8492202856
 20
191.74903682839997
 10
238.11089583150002
 20
191.27307946399995
 10
238.33477469860006
 20
190.79073981679997
 10
238.52039286360005
 20
190.30301760949996
 10
238.66736560470005
 20
189.8109237208
 10
238.77538829830004
 20
189.31547809039998
 10
238.84423705100002
 20
188.81770760509997
 10
238.87376916310004
 20
188.3186439701
 10
238.87500000000003
 20
188.19379719549997
  0
LWPOLYLINE
  5
16A
330
17
100
AcDbEntity
  8
0
  6
HIDDEN
 62
7
370
18
100
AcDbPolyline
 90
47
 70
128
 10
201.12439479480005
 20
192.21060825729998
 10
201.192840458
 20
192.31552290759996
 10
201.52694383840006
 20
192.7885444819
 10
201.89696440030005
 20
193.2525716227
 10
202.30217781120004
 20
193.7066959749
 10
202.7417908467
 20
194.15002856889996
 10
203.21494294370004
 20
194.5817015603
 10
203.72070788470003
 20
195.00086992889996
 10
204.25809561120005
 20
195.40671313289997
 10
204.82605416140004
 20
195.79843671529997
 10
205.4234717298
 20
196.17527385879995
 10
206.04917884340003
 20
196.53648688679996
 10
206.7019506512
 20
196.881368708
 10
207.38050932160004
 20
197.20924419999997
 10
208.08352654440003
 20
197.51947153109998
 10
208.80962613010004
 20
197.81144341679996
 10
209.55738670480005
 20
198.08458830829997
 10
210.32534449210002
 20
198.33837151179998
 10
211.11199617850005
 20
198.57229623469996
 10
211.9158018564
 20
198.78590455829996
 10
212.73518803840003
 20
198.97877833439995
 10
213.56855073760002
 20
199.15054000339998
 10
214.4142586073
 20
199.30085333379995
 10
215.27065613480002
 20
199.4294240802
 10
216.13606688170003
 20
199.53600055939998
 10
217.00879676570005
 20
199.62037414289998
 10
217.88713737710006
 20
199.68237966549995
 10
218.76936932290002
 20
199.7218957483
 10
219.6537655927
 20
199.73884503679997
 10
220.53859493930005
 20
199.73319435209996
 10
221.42212526760002
 20
199.70495475549998
 10
222.30262702560006
 20
199.65418152739997
 10
223.17837658960005
 20
199.58097405889995
 10
224.04765963890006
 20
199.4854756568
 10
224.90877451090003
 20
199.367873264
 10
225.76003553300004
 20
199.2283970924
 10
226.59977632160005
 20
199.06732017339996
 10
227.42635304480004
 20
198.8849578226
 10
228.23814763980002
 20
198.68166702279999
 10
229.03357098060005
 20
198.45784572519997
 10
229.81106598850002
 20
198.2139320707
 10
230.56911068070005
 20
197.95040353159996
 10
231.30622114910003
 20
197.6677759774
 10
232.02095446520005
 20
197.3666026649
 10
232.7119115051
 20
197.04747315489996
 10
233.37773968790006
 20
196.71101215849998
 10
234.01713562370006
 20
196.3578783138
  0
ARC
  5
16B
330
17
100
AcDbEntity
  8
0
  6
HIDDEN
 62
7
370
18
100
AcDbCircle
 10
227.71521494650003
 20
184.72103540479995
 30
0.0
 40
13.23368116247719
100
AcDbArc
 50
34.4681347398
 51
61.5622839473
  0
LWPOLYLINE
  5
16C
330
17
100
AcDbEntity
  8
0
  6
HIDDEN
 62
7
370
18
100
AcDbPolyline
 90
53
 70
128
 10
200.87500000000003
 20
188.19379719549997
 10
200.88607657500003
 20
188.5682728199
 10
200.93527975670006
 20
189.06681906089997
 10
201.02373840090004
 20
189.56355583079997
 10
201.15126916340003
 20
190.05745356679998
 10
201.31760771730004
 20
190.5474885903
 10
201.52240930050002
 20
191.032645229
 10
201.7652494305
 20
191.51191792159997
 10
202.04562478410006
 20
191.98431330229997
 10
202.36295424040006
 20
192.4488522596
 10
202.71658008580002
 20
192.90457196539998
 10
203.1057693767
 20
193.3505278712
 10
203.52971545880004
 20
193.78579566519997
 10
203.98753963920004
 20
194.20947318849997
 10
204.47829300720005
 20
194.62068230459997
 10
205.00095840170005
 20
195.01857071979995
 10
205.55445251880005
 20
195.40231374979996
 10
206.13762815730004
 20
195.77111602839997
 10
206.74927659680006
 20
196.1242131567
 10
207.3881301025
 20
196.46087328679997
 10
208.05286455280006
 20
196.7803986393
 10
208.74210218410005
 20
197.0821269491
 10
209.45441444630004
 20
197.36543283809996
 10
210.1883249633
 20
197.62972911169996
 10
210.94231259350002
 20
197.87446797549998
 10
211.7148145824
 20
198.09914217079998
 10
212.50422980180005
 20
198.303286026
 10
213.30892206790006
 20
198.4864764219
 10
214.12722353330005
 20
198.64833366819997
 10
214.9574381431
 20
198.78852229129998
 10
215.79784515070006
 20
198.90675172869996
 10
216.6467026845
 20
199.0027769319
 10
217.50225135730003
 20
199.07639887399998
 10
218.36271791410005
 20
199.12746496229997
 10
219.22631890650004
 20
199.15586935449997
 10
220.09126438940004
 20
199.16155317819997
 10
220.9557616314
 20
199.14450465269996
 10
221.8180188299
 20
199.1047591138
 10
222.67624882510003
 20
199.04239894009996
 10
223.52867280440003
 20
198.95755338269996
 10
224.37352398890002
 20
198.85039829689995
 10
225.20905129540003
 20
198.721155778
 10
226.03352296610004
 20
198.57009370079996
 10
226.84523015740004
 20
198.39752516449997
 10
227.6424904824
 20
198.20380784389997
 10
228.42365149720004
 20
197.98934324759998
 10
229.1870941264
 20
197.7545758863
 10
229.93123601840003
 20
197.49999235109996
 10
230.65453482570004
 20
197.22612030539997
 10
231.35549140090004
 20
196.9335273907
 10
232.03265290450005
 20
196.62282005059998
 10
232.68461581600005
 20
196.2946422735
 10
233.31002884250003
 20
195.9496742579
  0
LWPOLYLINE
  5
16D
330
17
100
AcDbEntity
  8
0
  6
HIDDEN
 62
7
370
18
100
AcDbPolyline
 90
19
 70
128
 10
234.01713562370006
 20
194.72479668999998
 10
234.6288476649
 20
194.35568127309998
 10
235.21167835650002
 20
193.97130684479995
 10
235.7644867799
 20
193.5724258361
 10
236.2861907868
 20
193.15981907529996
 10
236.77576911710005
 20
192.7342942594
 10
237.23226339810006
 20
192.29668437339998
 10
237.65478002100005
 20
191.84784605909996
 10
238.04249188950004
 20
191.38865793859995
 10
238.39464003950005
 20
190.92001889419996
 10
238.7105351245
 20
190.4428463088
 10
238.9895587649
 20
189.95807427009996
 10
239.2311647589
 20
189.4666517423
 10
239.43488015140005
 20
188.96954070799998
 10
239.60030616000003
 20
188.4677142853
 10
239.72711895550006
 20
187.9621548232
 10
239.81507029590003
 20
187.45385197779999
 10
239.86398801230004
 20
186.94380077599996
 10
239.87500000000003
 20
186.5607155718
  0
LWPOLYLINE
  5
16E
330
17
100
AcDbEntity
  8
0
  6
HIDDEN
 62
7
370
18
100
AcDbPolyline
 90
52
 70
128
 10
234.49399731050002
 20
188.49999999999997
 10
234.51711407540003
 20
188.44098121109997
 10
234.66536978030004
 20
188.00335303209997
 10
234.77440408340001
 20
187.561899238
 10
234.84392784540003
 20
187.11779048469995
 10
234.87375670170005
 20
186.6722044689
 10
234.86381155150005
 20
186.2263228047
 10
234.81411876760004
 20
185.78132788989998
 10
234.7248101263
 20
185.33839977109997
 10
234.59612245820003
 20
184.89871301409997
 10
234.42839701970004
 20
184.4634335891
 10
234.2220785885
 20
184.03371577889996
 10
233.97771428410002
 20
183.6106991179
 10
233.69595211670006
 20
183.19550537019998
 10
233.3775392688
 20
182.78923555499998
 10
233.02332011410002
 20
182.3929670268
 10
232.63423397820006
 20
182.00775061849995
 10
232.21131264750002
 20
181.63460785469996
 10
231.75567763330005
 20
181.27452824309998
 10
231.26853719790003
 20
180.92846665
 10
230.75118315000006
 20
180.5973407685
 10
230.20498741960003
 20
180.28202868489998
 10
229.63139841950002
 20
179.98336655029996
 10
229.03193720480002
 20
179.7021463628
 10
228.40819343880005
 20
179.43911386789998
 10
227.76182117770006
 20
179.1949665805
 10
227.0945344847
 20
178.9703519353
 10
226.40810288410003
 20
178.7658655699
 10
225.70434666910003
 20
178.58204974549997
 10
224.98513207470003
 20
178.4193919085
 10
224.25236632870005
 20
178.2783233983
 10
223.50799259400006
 20
178.1592183032
 10
222.75398481620002
 20
178.0623924686
 10
221.99234248810004
 20
177.98810265899996
 10
221.22508534840003
 20
177.9365458779
 10
220.45424802510004
 20
177.90785884429997
 10
219.6818746401
 20
177.9021176313
 10
218.9100133889
 20
177.9193374635
 10
218.14071110860002
 20
177.95947267699998
 10
217.37600785080005
 20
178.02241684039998
 10
216.61793147090006
 20
178.10800303709996
 10
215.86849225120002
 20
178.21600430789996
 10
215.1296775698
 20
178.3461342528
 10
214.40344663040005
 20
178.49804779069999
 10
213.69172526690002
 20
178.67134207409995
 10
212.99640083650004
 20
178.86555755779997
 10
212.31931721450005
 20
179.08017921709998
 10
211.66226990490006
 20
179.31463791409996
 10
211.02700127920005
 20
179.5683119064
 10
210.41519595550002
 20
179.8405284962
 10
209.8284763315
 20
180.130565814
 10
209.26839828220002
 20
180.4376547331
  0
LWPOLYLINE
  5
16F
330
17
100
AcDbEntity
  8
0
  6
HIDDEN
 62
7
370
18
100
AcDbPolyline
 90
55
 70
128
 10
199.87500000000003
 20
186.5607155718
 10
199.87622365400003
 20
186.68843147659996
 10
199.90558386420005
 20
187.1989825758
 10
199.97403514420003
 20
187.70828423729998
 10
200.08144349750003
 20
188.21533947929996
 10
200.2275986671
 20
188.71915571729997
 10
200.41221454750004
 20
189.21874670739996
 10
200.63492974430002
 20
189.7131344766
 10
200.89530828230002
 20
190.20135123789996
 10
201.192840458
 20
190.6824412838
 10
201.52694383840006
 20
191.15546285819997
 10
201.89696440030005
 20
191.61948999889998
 10
202.30217781120004
 20
192.07361435109996
 10
202.7417908467
 20
192.5169469451
 10
203.21494294370004
 20
192.94861993649997
 10
203.72070788470003
 20
193.3677883051
 10
204.25809561120005
 20
193.7736315092
 10
204.82605416140004
 20
194.1653550916
 10
205.4234717298
 20
194.542192235
 10
206.04917884340003
 20
194.903405263
 10
206.7019506512
 20
195.24828708419997
 10
207.38050932160004
 20
195.57616257619995
 10
208.08352654440003
 20
195.88638990729996
 10
208.80962613010004
 20
196.178361793
 10
209.55738670480005
 20
196.4515066846
 10
210.32534449210002
 20
196.7052898881
 10
211.11199617850005
 20
196.9392146109
 10
211.9158018564
 20
197.1528229345
 10
212.73518803840003
 20
197.34569671059998
 10
213.56855073760002
 20
197.51745837959996
 10
214.4142586073
 20
197.66777170999998
 10
215.27065613480002
 20
197.79634245649996
 10
216.13606688170003
 20
197.9029189357
 10
217.00879676570005
 20
197.9872925192
 10
217.88713737710006
 20
198.04929804169998
 10
218.76936932290002
 20
198.08881412449998
 10
219.6537655927
 20
198.1057634131
 10
220.53859493930005
 20
198.1001127283
 10
221.42212526760002
 20
198.07187313169996
 10
222.30262702560006
 20
198.0210999037
 10
223.17837658960005
 20
197.9478924351
 10
224.04765963890006
 20
197.85239403309996
 10
224.90877451090003
 20
197.73479164019997
 10
225.76003553300004
 20
197.59531546869997
 10
226.59977632160005
 20
197.43423854969998
 10
227.42635304480004
 20
197.25187619879998
 10
228.23814763980002
 20
197.04858539899996
 10
229.03357098060005
 20
196.8247641015
 10
229.81106598850002
 20
196.58085044689997
 10
230.56911068070005
 20
196.3173219078
 10
231.30622114910003
 20
196.03469435369996
 10
232.02095446520005
 20
195.73352104109998
 10
232.7119115051
 20
195.41439153119998
 10
233.37773968790006
 20
195.07793053469996
 10
234.01713562370006
 20
194.72479668999998
  0
LWPOLYLINE
  5
170
330
17
100
AcDbEntity
  8
0
  6
HIDDEN
 62
7
370
18
100
AcDbPolyline
 90
21
 70
128
 10
209.26839828220002
 20
180.4376547331
 10
208.73644703390002
 20
180.76098090879995
 10
208.23403322570002
 20
181.09968693809995
 10
207.76248916880004
 20
181.45287463369996
 10
207.32306531300006
 20
181.8196074052
 10
206.91692693160005
 20
182.19891274329999
 10
206.5451510306
 20
182.58978479829997
 10
206.20872349260006
 20
182.99118704789996
 10
205.90853646320002
 20
183.40205504549996
 10
205.6453859844
 20
183.82129924289998
 10
205.41996988390005
 20
184.24780787999995
 10
205.23288592460003
 20
184.68044993249995
 10
205.08463021970002
 20
185.11807811139997
 10
204.97559591660004
 20
185.55953190559998
 10
204.90607215460003
 20
186.00364065879998
 10
204.8762432983
 20
186.4492266746
 10
204.8861884485
 20
186.89510833889997
 10
204.93588123240002
 20
187.3401032537
 10
205.02518987370004
 20
187.78303137239996
 10
205.15387754180003
 20
188.22271812939996
 10
205.25600268950004
 20
188.49999999999997
  0
LINE
  5
171
330
17
100
AcDbEntity
  8
0
  6
HIDDEN
 62
7
370
18
100
AcDbLine
 10
234.87500000000003
 20
186.5607155718
 30
0.0
 11
234.87500000000003
 21
190.43928442819995
 31
0.0
  0
LINE
  5
172
330
17
100
AcDbEntity
  8
0
  6
HIDDEN
 62
7
370
18
100
AcDbLine
 10
204.87500000000003
 20
190.43928442819995
 30
0.0
 11
204.87500000000003
 21
186.5607155718
 31
0.0
  0
MTEXT
  5
173
330
17
100
AcDbEntity
  8
0
100
AcDbMText
 10
224.477
 20
22.51
 30
0.0
 40
4.2124
 71
7
  1
\T1.000000;ÉxÉAÉäÉìÉOÉJÉâÅ[
  7
GMM008
  0
MTEXT
  5
174
330
17
100
AcDbEntity
  8
0
100
AcDbMText
 10
224.477
 20
14.877
 30
0.0
 40
4.2124
 71
7
  1
\T1.000000;è∏ç~é≤
  7
GMM008
  0
MTEXT
  5
175
330
17
100
AcDbEntity
  8
0
100
AcDbMText
 10
273.605
 20
20.498
 30
0.0
 40
4.2124
 71
7
  1
\T1.000000;Ç`ÇtÇsÇnÅ|ÇOÇOÇQ
  7
GMM008
  0
MTEXT
  5
176
330
17
100
AcDbEntity
  8
0
100
AcDbMText
 10
191.878
 20
22.586
 30
0.0
 40
4.2124
 71
8
  1
\T1.000000;Ç`Çh
  7
GMM008
  0
MTEXT
  5
177
330
17
100
AcDbEntity
  8
0
100
AcDbMText
 10
207.705
 20
22.586
 30
0.0
 40
4.2124
 71
8
  1
\T1.000000;ÇQÇUÅDÇOÇWÅDÇPÇO
  7
GMM009
  0
MTEXT
  5
178
330
17
100
AcDbEntity
  8
0
100
AcDbMText
 10
207.705
 20
14.722
 30
0.0
 40
4.2124
 71
8
  1
\T1.000000;ÅñÅñÅDÅñÅñÅDÅñÅñ
  7
GMM009
  0
MTEXT
  5
17A
330
17
100
AcDbEntity
  8
0
100
AcDbMText
 10
176.415
 20
22.446
 30
0.0
 40
4.2124
 71
8
  1
\T1.000000;ÇPÅFÇP
  7
VF001
  0
MTEXT
  5
17C
330
17
100
AcDbEntity
  8
0
100
AcDbMText
 10
19.324
 20
275.03
 30
0.0
 40
7.0
 71
8
  1
\T1.000000;ÇOÇQ
  7
VF002
  0
MTEXT
  5
17D
330
17
100
AcDbEntity
  8
0
100
AcDbMText
 10
33.595
 20
280.001
 30
0.0
 40
7.0
 71
4
  1
\T1.000000;çﬁéøÅ@ÇrÇSÇTÇbÅ@É}ÉãÇSÇO\P\T1.000000;å¬êîÅ@ÇP
  7
VF001
  0
MTEXT
  5
17E
330
17
100
AcDbEntity
  8
0
100
AcDbMText
 10
224.593
 20
6.704
 30
0.0
 40
4.2124107142857
 71
7
  1
\T1.000000;ÇOÅDÇOÇQ
  7
GMM008
  0
DIMENSION
  5
18A
330
17
100
AcDbEntity
  8
1
100
AcDbDimension
  2
*D1
  3
GEN001
 10
171.84072875253807
 20
97.50000000000003
 30
0.0
 11
172.84072875253807
 21
102.00000000000003
 31
0.0
 70
32
 71
5
  1
<>
100
AcDbAlignedDimension
 13
171.84072875253807
 23
113.49999999999994
 33
0.0
 14
173.84072875253807
 24
113.49999999999994
 34
0.0
 50
0.0
100
AcDbRotatedDimension
  0
DIMENSION
  5
19A
330
17
100
AcDbEntity
  8
1
100
AcDbDimension
  2
*D2
  3
GEN002
 10
171.84072875253807
 20
89.50000000000003
 30
0.0
 11
174.21572875253807
 21
94.00000000000003
 31
0.0
 70
32
 71
5
  1
<>
100
AcDbAlignedDimension
 13
171.84072875253807
 23
113.49999999999994
 33
0.0
 14
176.59072875253807
 24
114.49999999999994
 34
0.0
 50
0.0
100
AcDbRotatedDimension
  0
DIMENSION
  5
1AA
330
17
100
AcDbEntity
  8
1
100
AcDbDimension
  2
*D3
  3
GEN003
 10
155.84072875249998
 20
148.49999999999991
 30
0.0
 11
158.34072875249998
 21
133.49999999999994
 31
0.0
 70
32
 71
5
  1
<>
100
AcDbAlignedDimension
 13
171.84072875253807
 23
148.49999999999991
 33
0.0
 14
171.84072875253807
 24
118.49999999999994
 34
0.0
 50
90.0
100
AcDbRotatedDimension
  0
DIMENSION
  5
1BA
330
17
100
AcDbEntity
  8
1
100
AcDbDimension
  2
*D4
  3
GEN004
 10
147.84072875249998
 20
152.49999999999991
 30
0.0
 11
150.34072875249998
 21
133.49999999999994
 31
0.0
 70
32
 71
5
  1
<>
100
AcDbAlignedDimension
 13
176.59072875253807
 23
152.49999999999991
 33
0.0
 14
176.59072875253807
 24
114.49999999999994
 34
0.0
 50
90.0
100
AcDbRotatedDimension
  0
DIMENSION
  5
1CA
330
17
100
AcDbEntity
  8
1
100
AcDbDimension
  2
*D5
  3
GEN005
 10
139.84072875249998
 20
153.49999999999991
 30
0.0
 11
142.34072875249998
 21
133.49999999999994
 31
0.0
 70
32
 71
5
  1
<>
100
AcDbAlignedDimension
 13
171.84072875253807
 23
153.49999999999991
 33
0.0
 14
171.84072875253807
 24
113.49999999999994
 34
0.0
 50
90.0
100
AcDbRotatedDimension
  0
MTEXT
  5
1D9
330
17
100
AcDbEntity
  8
0
100
AcDbMText
 10
295.0
 20
75.0
 30
0.0
 40
3.5
 71
1
  1
íçãLÅD\PÅ@éwé¶ñ≥Ç´äpïîÇÕÇbÇOÅDÇQÅAã˜ïîÇÕÇqÇQà»â∫Ç∆Ç∑ÇÈÅB
  7
VF003
  0
ENDSEC
  0
SECTION
  2
OBJECTS
  0
DICTIONARY
  5
A
330
0
100
AcDbDictionary
281
1
  3
ACAD_COLOR
350
B
  3
ACAD_GROUP
350
C
  3
ACAD_LAYOUT
350
D
  3
ACAD_MATERIAL
350
E
  3
ACAD_MLEADERSTYLE
350
F
  3
ACAD_MLINESTYLE
350
10
  3
ACAD_PLOTSETTINGS
350
11
  3
ACAD_PLOTSTYLENAME
350
12
  3
ACAD_SCALELIST
350
14
  3
ACAD_TABLESTYLE
350
15
  3
ACAD_VISUALSTYLE
350
16
  3
EZDXF_META
350
2D
  0
DICTIONARY
  5
B
330
A
100
AcDbDictionary
281
1
  0
DICTIONARY
  5
C
330
A
100
AcDbDictionary
281
1
  0
DICTIONARY
  5
D
330
A
100
AcDbDictionary
281
1
  3
Model
350
1A
  3
Layout1
350
1E
  0
DICTIONARY
  5
E
330
A
100
AcDbDictionary
281
1
  3
ByBlock
350
1F
  3
ByLayer
350
20
  3
Global
350
21
  0
DICTIONARY
  5
F
330
A
100
AcDbDictionary
281
1
  3
Standard
350
2C
  0
DICTIONARY
  5
10
330
A
100
AcDbDictionary
281
1
  3
Standard
350
22
  0
DICTIONARY
  5
11
330
A
100
AcDbDictionary
281
1
  0
ACDBDICTIONARYWDFLT
  5
12
330
A
100
AcDbDictionary
281
1
  3
Normal
350
13
100
AcDbDictionaryWithDefault
340
13
  0
ACDBPLACEHOLDER
  5
13
330
12
  0
DICTIONARY
  5
14
330
A
100
AcDbDictionary
281
1
  0
DICTIONARY
  5
15
330
A
100
AcDbDictionary
281
1
  0
DICTIONARY
  5
16
330
A
100
AcDbDictionary
281
1
  0
LAYOUT
  5
1A
330
D
100
AcDbPlotSettings
  1

  4
A3
  6

 40
7.5
 41
20.0
 42
7.5
 43
20.0
 44
420.0
 45
297.0
 46
0.0
 47
0.0
 48
0.0
 49
0.0
140
0.0
141
0.0
142
1.0
143
1.0
 70
1024
 72
1
 73
0
 74
5
  7

 75
16
 76
0
 77
2
 78
300
147
1.0
148
0.0
149
0.0
100
AcDbLayout
  1
Model
 70
1
 71
0
 10
0.0
 20
0.0
 11
420.0
 21
297.0
 12
0.0
 22
0.0
 32
0.0
 14
1e+20
 24
1e+20
 34
1e+20
 15
-1e+20
 25
-1e+20
 35
-1e+20
146
0.0
 13
0.0
 23
0.0
 33
0.0
 16
1.0
 26
0.0
 36
0.0
 17
0.0
 27
1.0
 37
0.0
 76
1
330
17
  0
LAYOUT
  5
1E
330
D
100
AcDbPlotSettings
  1

  4
A3
  6

 40
7.5
 41
20.0
 42
7.5
 43
20.0
 44
420.0
 45
297.0
 46
0.0
 47
0.0
 48
0.0
 49
0.0
140
0.0
141
0.0
142
1.0
143
1.0
 70
0
 72
1
 73
0
 74
5
  7

 75
16
 76
0
 77
2
 78
300
147
1.0
148
0.0
149
0.0
100
AcDbLayout
  1
Layout1
 70
1
 71
1
 10
0.0
 20
0.0
 11
420.0
 21
297.0
 12
0.0
 22
0.0
 32
0.0
 14
1e+20
 24
1e+20
 34
1e+20
 15
-1e+20
 25
-1e+20
 35
-1e+20
146
0.0
 13
0.0
 23
0.0
 33
0.0
 16
1.0
 26
0.0
 36
0.0
 17
0.0
 27
1.0
 37
0.0
 76
1
330
1B
  0
MATERIAL
  5
1F
102
{ACAD_REACTORS
330
E
102
}
330
E
100
AcDbMaterial
  1
ByBlock
  2

 70
0
 40
1.0
 71
1
 41
1.0
 91
-1023410177
 42
1.0
 72
1
  3

 73
1
 74
1
 75
1
 44
0.5
 73
0
 45
1.0
 46
1.0
 77
1
  4

 78
1
 79
1
170
1
 48
1.0
171
1
  6

172
1
173
1
174
1
140
1.0
141
1.0
175
1
  7

176
1
177
1
178
1
143
1.0
179
1
  8

270
1
271
1
272
1
145
1.0
146
1.0
273
1
  9

274
1
275
1
276
1
 42
1.0
 72
1
  3

 73
1
 74
1
 75
1
 94
63
  0
MATERIAL
  5
20
102
{ACAD_REACTORS
330
E
102
}
330
E
100
AcDbMaterial
  1
ByLayer
  2

 70
0
 40
1.0
 71
1
 41
1.0
 91
-1023410177
 42
1.0
 72
1
  3

 73
1
 74
1
 75
1
 44
0.5
 73
0
 45
1.0
 46
1.0
 77
1
  4

 78
1
 79
1
170
1
 48
1.0
171
1
  6

172
1
173
1
174
1
140
1.0
141
1.0
175
1
  7

176
1
177
1
178
1
143
1.0
179
1
  8

270
1
271
1
272
1
145
1.0
146
1.0
273
1
  9

274
1
275
1
276
1
 42
1.0
 72
1
  3

 73
1
 74
1
 75
1
 94
63
  0
MATERIAL
  5
21
102
{ACAD_REACTORS
330
E
102
}
330
E
100
AcDbMaterial
  1
Global
  2

 70
0
 40
1.0
 71
1
 41
1.0
 91
-1023410177
 42
1.0
 72
1
  3

 73
1
 74
1
 75
1
 44
0.5
 73
0
 45
1.0
 46
1.0
 77
1
  4

 78
1
 79
1
170
1
 48
1.0
171
1
  6

172
1
173
1
174
1
140
1.0
141
1.0
175
1
  7

176
1
177
1
178
1
143
1.0
179
1
  8

270
1
271
1
272
1
145
1.0
146
1.0
273
1
  9

274
1
275
1
276
1
 42
1.0
 72
1
  3

 73
1
 74
1
 75
1
 94
63
  0
MLINESTYLE
  5
22
102
{ACAD_REACTORS
330
10
102
}
330
10
100
AcDbMlineStyle
  2
Standard
 70
0
  3

 62
256
 51
90.0
 52
90.0
 71
2
 49
0.5
 62
256
  6
BYLAYER
 49
-0.5
 62
256
  6
BYLAYER
  0
MLEADERSTYLE
  5
2C
102
{ACAD_REACTORS
330
F
102
}
330
F
100
AcDbMLeaderStyle
179
2
170
2
171
1
172
0
 90
2
 40
0.0
 41
0.0
173
1
 91
-1056964608
 92
-2
290
1
 42
2.0
291
1
 43
8.0
  3
Standard
 44
4.0
300

342
29
174
1
175
1
176
0
178
1
 93
-1056964608
 45
4.0
292
0
297
0
 46
4.0
 94
-1056964608
 47
1.0
 49
1.0
140
1.0
294
1
141
0.0
177
0
142
1.0
295
0
296
0
143
3.75
271
0
272
9
273
9
  0
DICTIONARY
  5
2D
330
A
100
AcDbDictionary
280
1
281
1
  3
CREATED_BY_EZDXF
350
2E
  3
WRITTEN_BY_EZDXF
350
131
  0
DICTIONARYVAR
  5
2E
330
2D
100
DictionaryVariables
280
0
  1
1.4.4 @ 2026-08-09T08:45:52.074753+00:00
  0
DICTIONARYVAR
  5
131
330
2D
100
DictionaryVariables
280
0
  1
1.4.4 @ 2026-08-10T06:56:14.136952+00:00
  0
ENDSEC
  0
EOF
