  0
SECTION
  2
HEADER
  9
$ACADVER
  1
AC1015
  9
$ACADMAINTVER
 70
6
  9
$DWGCODEPAGE
  3
ANSI_932
  9
$INSBASE
 10
0.0
 20
0.0
 30
0.0
  9
$EXTMIN
 10
1e+20
 20
1e+20
 30
1e+20
  9
$EXTMAX
 10
-1e+20
 20
-1e+20
 30
-1e+20
  9
$LIMMIN
 10
0.0
 20
0.0
  9
$LIMMAX
 10
420.0
 20
297.0
  9
$ORTHOMODE
 70
0
  9
$REGENMODE
 70
1
  9
$FILLMODE
 70
1
  9
$QTEXTMODE
 70
0
  9
$MIRRTEXT
 70
1
  9
$LTSCALE
 40
8.4
  9
$ATTMODE
 70
1
  9
$TEXTSIZE
 40
2.5
  9
$TRACEWID
 40
1.0
  9
$TEXTSTYLE
  7
Standard
  9
$CLAYER
  8
0
  9
$CELTYPE
  6
ByLayer
  9
$CECOLOR
 62
256
  9
$CELTSCALE
 40
1.0
  9
$DISPSILH
 70
0
  9
$DIMSCALE
 40
1.0
  9
$DIMASZ
 40
2.5
  9
$DIMEXO
 40
0.625
  9
$DIMDLI
 40
3.75
  9
$DIMRND
 40
0.0
  9
$DIMDLE
 40
0.0
  9
$DIMEXE
 40
1.25
  9
$DIMTP
 40
0.0
  9
$DIMTM
 40
0.0
  9
$DIMTXT
 40
2.5
  9
$DIMCEN
 40
2.5
  9
$DIMTSZ
 40
0.0
  9
$DIMTOL
 70
0
  9
$DIMLIM
 70
0
  9
$DIMTIH
 70
0
  9
$DIMTOH
 70
0
  9
$DIMSE1
 70
0
  9
$DIMSE2
 70
0
  9
$DIMTAD
 70
1
  9
$DIMZIN
 70
8
  9
$DIMBLK
  1

  9
$DIMASO
 70
1
  9
$DIMSHO
 70
1
  9
$DIMPOST
  1

  9
$DIMAPOST
  1

  9
$DIMALT
 70
0
  9
$DIMALTD
 70
3
  9
$DIMALTF
 40
0.03937007874
  9
$DIMLFAC
 40
1.0
  9
$DIMTOFL
 70
1
  9
$DIMTVP
 40
0.0
  9
$DIMTIX
 70
0
  9
$DIMSOXD
 70
0
  9
$DIMSAH
 70
0
  9
$DIMBLK1
  1

  9
$DIMBLK2
  1

  9
$DIMSTYLE
  2
ISO-25
  9
$DIMCLRD
 70
0
  9
$DIMCLRE
 70
0
  9
$DIMCLRT
 70
0
  9
$DIMTFAC
 40
1.0
  9
$DIMGAP
 40
0.625
  9
$DIMJUST
 70
0
  9
$DIMSD1
 70
0
  9
$DIMSD2
 70
0
  9
$DIMTOLJ
 70
0
  9
$DIMTZIN
 70
8
  9
$DIMALTZ
 70
0
  9
$DIMALTTZ
 70
0
  9
$DIMUPT
 70
0
  9
$DIMDEC
 70
2
  9
$DIMTDEC
 70
2
  9
$DIMALTU
 70
2
  9
$DIMALTTD
 70
3
  9
$DIMTXSTY
  7
Standard
  9
$DIMAUNIT
 70
0
  9
$DIMADEC
 70
0
  9
$DIMALTRND
 40
0.0
  9
$DIMAZIN
 70
0
  9
$DIMDSEP
 70
44
  9
$DIMATFIT
 70
3
  9
$DIMFRAC
 70
0
  9
$DIMLDRBLK
  1

  9
$DIMLUNIT
 70
2
  9
$DIMLWD
 70
-2
  9
$DIMLWE
 70
-2
  9
$DIMTMOVE
 70
0
  9
$LUNITS
 70
2
  9
$LUPREC
 70
4
  9
$SKETCHINC
 40
1.0
  9
$FILLETRAD
 40
10.0
  9
$AUNITS
 70
0
  9
$AUPREC
 70
2
  9
$MENU
  1
.
  9
$ELEVATION
 40
0.0
  9
$PELEVATION
 40
0.0
  9
$THICKNESS
 40
0.0
  9
$LIMCHECK
 70
0
  9
$CHAMFERA
 40
0.0
  9
$CHAMFERB
 40
0.0
  9
$CHAMFERC
 40
0.0
  9
$CHAMFERD
 40
0.0
  9
$SKPOLY
 70
0
  9
$TDCREATE
 40
2461263.664027778
  9
$TDUCREATE
 40
2458532.153996898
  9
$TDUPDATE
 40
2461263.664027778
  9
$TDUUPDATE
 40
2458532.1544311
  9
$TDINDWG
 40
0.0
  9
$TDUSRTIMER
 40
0.0
  9
$USRTIMER
 70
1
  9
$ANGBASE
 50
0.0
  9
$ANGDIR
 70
0
  9
$PDMODE
 70
0
  9
$PDSIZE
 40
0.0
  9
$PLINEWID
 40
0.0
  9
$SPLFRAME
 70
0
  9
$SPLINETYPE
 70
6
  9
$SPLINESEGS
 70
8
  9
$HANDSEED
  5
1BB
  9
$SURFTAB1
 70
6
  9
$SURFTAB2
 70
6
  9
$SURFTYPE
 70
6
  9
$SURFU
 70
6
  9
$SURFV
 70
6
  9
$UCSBASE
  2

  9
$UCSNAME
  2

  9
$UCSORG
 10
0.0
 20
0.0
 30
0.0
  9
$UCSXDIR
 10
1.0
 20
0.0
 30
0.0
  9
$UCSYDIR
 10
0.0
 20
1.0
 30
0.0
  9
$UCSORTHOREF
  2

  9
$UCSORTHOVIEW
 70
0
  9
$UCSORGTOP
 10
0.0
 20
0.0
 30
0.0
  9
$UCSORGBOTTOM
 10
0.0
 20
0.0
 30
0.0
  9
$UCSORGLEFT
 10
0.0
 20
0.0
 30
0.0
  9
$UCSORGRIGHT
 10
0.0
 20
0.0
 30
0.0
  9
$UCSORGFRONT
 10
0.0
 20
0.0
 30
0.0
  9
$UCSORGBACK
 10
0.0
 20
0.0
 30
0.0
  9
$PUCSBASE
  2

  9
$PUCSNAME
  2

  9
$PUCSORG
 10
0.0
 20
0.0
 30
0.0
  9
$PUCSXDIR
 10
1.0
 20
0.0
 30
0.0
  9
$PUCSYDIR
 10
0.0
 20
1.0
 30
0.0
  9
$PUCSORTHOREF
  2

  9
$PUCSORTHOVIEW
 70
0
  9
$PUCSORGTOP
 10
0.0
 20
0.0
 30
0.0
  9
$PUCSORGBOTTOM
 10
0.0
 20
0.0
 30
0.0
  9
$PUCSORGLEFT
 10
0.0
 20
0.0
 30
0.0
  9
$PUCSORGRIGHT
 10
0.0
 20
0.0
 30
0.0
  9
$PUCSORGFRONT
 10
0.0
 20
0.0
 30
0.0
  9
$PUCSORGBACK
 10
0.0
 20
0.0
 30
0.0
  9
$USERI1
 70
0
  9
$USERI2
 70
0
  9
$USERI3
 70
0
  9
$USERI4
 70
0
  9
$USERI5
 70
0
  9
$USERR1
 40
0.0
  9
$USERR2
 40
0.0
  9
$USERR3
 40
0.0
  9
$USERR4
 40
0.0
  9
$USERR5
 40
0.0
  9
$WORLDVIEW
 70
1
  9
$SHADEDGE
 70
3
  9
$SHADEDIF
 70
70
  9
$TILEMODE
 70
1
  9
$MAXACTVP
 70
64
  9
$PINSBASE
 10
0.0
 20
0.0
 30
0.0
  9
$PLIMCHECK
 70
0
  9
$PEXTMIN
 10
1e+20
 20
1e+20
 30
1e+20
  9
$PEXTMAX
 10
-1e+20
 20
-1e+20
 30
-1e+20
  9
$PLIMMIN
 10
0.0
 20
0.0
  9
$PLIMMAX
 10
420.0
 20
297.0
  9
$UNITMODE
 70
0
  9
$VISRETAIN
 70
1
  9
$PLINEGEN
 70
0
  9
$PSLTSCALE
 70
1
  9
$TREEDEPTH
 70
3020
  9
$CMLSTYLE
  2
Standard
  9
$CMLJUST
 70
0
  9
$CMLSCALE
 40
20.0
  9
$PROXYGRAPHICS
 70
1
  9
$MEASUREMENT
 70
1
  9
$CELWEIGHT
370
-1
  9
$ENDCAPS
280
0
  9
$JOINSTYLE
280
0
  9
$LWDISPLAY
290
0
  9
$INSUNITS
 70
4
  9
$HYPERLINKBASE
  1

  9
$STYLESHEET
  1

  9
$XEDIT
290
1
  9
$CEPSNTYPE
380
0
  9
$PSTYLEMODE
290
1
  9
$FINGERPRINTGUID
  2
{CFE3CBFC-70A5-4945-8F60-F4F0D84321E6}
  9
$VERSIONGUID
  2
{82A5A604-B935-4898-91BF-6C2A818BCA7A}
  9
$EXTNAMES
290
1
  9
$PSVPSCALE
 40
0.0
  9
$OLESTARTUP
290
0
  0
ENDSEC
  0
SECTION
  2
CLASSES
  0
CLASS
  1
ACDBDICTIONARYWDFLT
  2
AcDbDictionaryWithDefault
  3
ObjectDBX Classes
 90
0
280
0
281
0
  0
CLASS
  1
SUN
  2
AcDbSun
  3
SCENEOE
 90
1153
280
0
281
0
  0
CLASS
  1
VISUALSTYLE
  2
AcDbVisualStyle
  3
ObjectDBX Classes
 90
4095
280
0
281
0
  0
CLASS
  1
MATERIAL
  2
AcDbMaterial
  3
ObjectDBX Classes
 90
1153
280
0
281
0
  0
CLASS
  1
SCALE
  2
AcDbScale
  3
ObjectDBX Classes
 90
1153
280
0
281
0
  0
CLASS
  1
TABLESTYLE
  2
AcDbTableStyle
  3
ObjectDBX Classes
 90
4095
280
0
281
0
  0
CLASS
  1
MLEADERSTYLE
  2
AcDbMLeaderStyle
  3
ACDB_MLEADERSTYLE_CLASS
 90
4095
280
0
281
0
  0
CLASS
  1
DICTIONARYVAR
  2
AcDbDictionaryVar
  3
ObjectDBX Classes
 90
0
280
0
281
0
  0
CLASS
  1
CELLSTYLEMAP
  2
AcDbCellStyleMap
  3
ObjectDBX Classes
 90
1152
280
0
281
0
  0
CLASS
  1
MENTALRAYRENDERSETTINGS
  2
AcDbMentalRayRenderSettings
  3
SCENEOE
 90
1024
280
0
281
0
  0
CLASS
  1
ACDBDETAILVIEWSTYLE
  2
AcDbDetailViewStyle
  3
ObjectDBX Classes
 90
1025
280
0
281
0
  0
CLASS
  1
ACDBSECTIONVIEWSTYLE
  2
AcDbSectionViewStyle
  3
ObjectDBX Classes
 90
1025
280
0
281
0
  0
CLASS
  1
RASTERVARIABLES
  2
AcDbRasterVariables
  3
ISM
 90
0
280
0
281
0
  0
CLASS
  1
ACDBPLACEHOLDER
  2
AcDbPlaceHolder
  3
ObjectDBX Classes
 90
0
280
0
281
0
  0
CLASS
  1
LAYOUT
  2
AcDbLayout
  3
ObjectDBX Classes
 90
0
280
0
281
0
  0
ENDSEC
  0
SECTION
  2
TABLES
  0
TABLE
  2
VPORT
  5
8
330
0
100
AcDbSymbolTable
 70
1
  0
VPORT
  5
23
330
8
100
AcDbSymbolTableRecord
100
AcDbViewportTableRecord
  2
*Active
 70
0
 10
0.0
 20
0.0
 11
1.0
 21
1.0
 12
0.0
 22
0.0
 13
0.0
 23
0.0
 14
0.5
 24
0.5
 15
0.5
 25
0.5
 16
0.0
 26
0.0
 36
1.0
 17
0.0
 27
0.0
 37
0.0
 40
1000.0
 41
1.34
 42
50.0
 43
0.0
 44
0.0
 50
0.0
 51
0.0
 71
0
 72
1000
 73
1
 74
3
 75
0
 76
0
 77
0
 78
0
281
0
 65
0
146
0.0
  0
ENDTAB
  0
TABLE
  2
LTYPE
  5
2
330
0
100
AcDbSymbolTable
 70
7
  0
LTYPE
  5
24
330
2
100
AcDbSymbolTableRecord
100
AcDbLinetypeTableRecord
  2
ByBlock
 70
0
  3

 72
65
 73
0
 40
0.0
  0
LTYPE
  5
25
330
2
100
AcDbSymbolTableRecord
100
AcDbLinetypeTableRecord
  2
ByLayer
 70
0
  3

 72
65
 73
0
 40
0.0
  0
LTYPE
  5
26
330
2
100
AcDbSymbolTableRecord
100
AcDbLinetypeTableRecord
  2
Continuous
 70
0
  3

 72
65
 73
0
 40
0.0
  0
LTYPE
  5
122
330
2
100
AcDbSymbolTableRecord
100
AcDbLinetypeTableRecord
  2
DASHDOT
 70
0
  3
__ . __ . __ . __ . __ . __ . __ . __ . __ . __
 72
65
 73
4
 40
1.0
 49
0.5
 74
0
 49
-0.25
 74
0
 49
0.0
 74
0
 49
-0.25
 74
0
  0
LTYPE
  5
13B
330
2
100
AcDbSymbolTableRecord
100
AcDbLinetypeTableRecord
  2
HIDDEN
 70
0
  3
Hidden __ __ __ __ __ __ __ __ __ __ __ __ __ __
 72
65
 73
2
 40
1.905
 49
1.27
 74
0
 49
-0.635
 74
0
  0
LTYPE
  5
13C
330
2
100
AcDbSymbolTableRecord
100
AcDbLinetypeTableRecord
  2
PHANTOM
 70
0
  3
Phantom ______  __  __  ______  __  __  ______
 72
65
 73
6
 40
12.7
 49
6.35
 74
0
 49
-1.27
 74
0
 49
1.27
 74
0
 49
-1.27
 74
0
 49
1.27
 74
0
 49
-1.27
 74
0
  0
LTYPE
  5
13D
330
2
100
AcDbSymbolTableRecord
100
AcDbLinetypeTableRecord
  2
CENTER
 70
0
  3
Center ____ _ ____ _ ____ _ ____ _ ____ _ ____
 72
65
 73
4
 40
10.16
 49
6.35
 74
0
 49
-1.27
 74
0
 49
1.27
 74
0
 49
-1.27
 74
0
  0
ENDTAB
  0
TABLE
  2
LAYER
  5
1
330
0
100
AcDbSymbolTable
 70
5
  0
LAYER
  5
27
330
1
100
AcDbSymbolTableRecord
100
AcDbLayerTableRecord
  2
0
 70
0
 62
7
  6
Continuous
370
-3
390
13
  0
LAYER
  5
28
330
1
100
AcDbSymbolTableRecord
100
AcDbLayerTableRecord
  2
Defpoints
 70
0
 62
7
  6
Continuous
290
0
370
-3
390
13
  0
LAYER
  5
11F
330
1
100
AcDbSymbolTableRecord
100
AcDbLayerTableRecord
  2
2
 70
0
 62
7
  6
CONTINUOUS
370
-3
390
30
  0
LAYER
  5
120
330
1
100
AcDbSymbolTableRecord
100
AcDbLayerTableRecord
  2
254
 70
0
 62
7
  6
CONTINUOUS
370
-3
390
30
  0
LAYER
  5
121
330
1
100
AcDbSymbolTableRecord
100
AcDbLayerTableRecord
  2
1
 70
0
 62
7
  6
CONTINUOUS
370
-3
390
30
  0
ENDTAB
  0
TABLE
  2
STYLE
  5
5
330
0
100
AcDbSymbolTable
 70
16
  0
STYLE
  5
29
330
5
100
AcDbSymbolTableRecord
100
AcDbTextStyleTableRecord
  2
Standard
 70
0
 40
0.0
 41
1.0
 50
0.0
 71
0
 42
2.5
  3
txt
  4

  0
STYLE
  5
123
330
5
100
AcDbSymbolTableRecord
100
AcDbTextStyleTableRecord
  2
GMM014
 70
0
 40
0.0
 41
0.82727272727273
 50
0.0
 71
0
 42
1.0
  3
txt.shx
  4
bigfont.shx
  0
STYLE
  5
124
330
5
100
AcDbSymbolTableRecord
100
AcDbTextStyleTableRecord
  2
GMM010
 70
0
 40
0.0
 41
0.7
 50
0.0
 71
0
 42
1.0
  3
txt.shx
  4
bigfont.shx
  0
STYLE
  5
125
330
5
100
AcDbSymbolTableRecord
100
AcDbTextStyleTableRecord
  2
GMM008
 70
0
 40
0.0
 41
0.8
 50
0.0
 71
0
 42
1.0
  3
txt.shx
  4
bigfont.shx
  0
STYLE
  5
126
330
5
100
AcDbSymbolTableRecord
100
AcDbTextStyleTableRecord
  2
GMM015
 70
0
 40
0.0
 41
0.41152263374486
 50
0.0
 71
0
 42
1.0
  3
txt.shx
  4
bigfont.shx
  0
STYLE
  5
127
330
5
100
AcDbSymbolTableRecord
100
AcDbTextStyleTableRecord
  2
GMM001
 70
0
 40
0.0
 41
1.0
 50
0.0
 71
0
 42
1.0
  3
txt.shx
  4
bigfont.shx
  0
STYLE
  5
128
330
5
100
AcDbSymbolTableRecord
100
AcDbTextStyleTableRecord
  2
GMM012
 70
0
 40
0.0
 41
1.0666666666667
 50
0.0
 71
0
 42
1.0
  3
txt.shx
  4
bigfont.shx
  0
STYLE
  5
129
330
5
100
AcDbSymbolTableRecord
100
AcDbTextStyleTableRecord
  2
GMM004
 70
0
 40
0.0
 41
0.66666666666667
 50
0.0
 71
0
 42
1.0
  3
txt.shx
  4
bigfont.shx
  0
STYLE
  5
12A
330
5
100
AcDbSymbolTableRecord
100
AcDbTextStyleTableRecord
  2
STANDARD1
 70
4
 40
0.0
 41
1.0
 50
0.0
 71
0
 42
0.2
  3
TXT
  4
BIGFONT
  0
STYLE
  5
12B
330
5
100
AcDbSymbolTableRecord
100
AcDbTextStyleTableRecord
  2
GMM007
 70
0
 40
0.0
 41
0.625
 50
0.0
 71
0
 42
1.0
  3
txt.shx
  4
bigfont.shx
  0
STYLE
  5
12C
330
5
100
AcDbSymbolTableRecord
100
AcDbTextStyleTableRecord
  2
GMM011
 70
0
 40
0.0
 41
0.95
 50
0.0
 71
0
 42
1.0
  3
txt.shx
  4
bigfont.shx
  0
STYLE
  5
12D
330
5
100
AcDbSymbolTableRecord
100
AcDbTextStyleTableRecord
  2
GMM003
 70
0
 40
0.0
 41
0.91125
 50
0.0
 71
0
 42
1.0
  3
txt.shx
  4
bigfont.shx
  0
STYLE
  5
12E
330
5
100
AcDbSymbolTableRecord
100
AcDbTextStyleTableRecord
  2
GMM009
 70
0
 40
0.0
 41
0.49382716049383
 50
0.0
 71
0
 42
1.0
  3
txt.shx
  4
bigfont.shx
  0
STYLE
  5
177
330
5
100
AcDbSymbolTableRecord
100
AcDbTextStyleTableRecord
  2
VF001
 70
0
 40
0.0
 41
0.548697
 50
0.0
 71
0
 42
2.5
  3
txt.shx
  4

  0
STYLE
  5
179
330
5
100
AcDbSymbolTableRecord
100
AcDbTextStyleTableRecord
  2
VF002
 70
0
 40
0.0
 41
0.428571
 50
0.0
 71
0
 42
2.5
  3
txt.shx
  4

  0
STYLE
  5
181
330
5
100
AcDbSymbolTableRecord
100
AcDbTextStyleTableRecord
  2
VF003
 70
0
 40
0.0
 41
0.75
 50
0.0
 71
0
 42
2.5
  3
txt.shx
  4

  0
ENDTAB
  0
TABLE
  2
VIEW
  5
7
330
0
100
AcDbSymbolTable
 70
0
  0
ENDTAB
  0
TABLE
  2
UCS
  5
6
330
0
100
AcDbSymbolTable
 70
0
  0
ENDTAB
  0
TABLE
  2
APPID
  5
3
330
0
100
AcDbSymbolTable
 70
3
  0
APPID
  5
2A
330
3
100
AcDbSymbolTableRecord
100
AcDbRegAppTableRecord
  2
ACAD
 70
0
  0
APPID
  5
12F
330
3
100
AcDbSymbolTableRecord
100
AcDbRegAppTableRecord
  2
HATCHBACKGROUNDCOLOR
 70
0
  0
APPID
  5
130
330
3
100
AcDbSymbolTableRecord
100
AcDbRegAppTableRecord
  2
EZDXF
 70
0
  0
ENDTAB
  0
TABLE
  2
DIMSTYLE
  5
4
330
0
100
AcDbSymbolTable
 70
5
100
AcDbDimStyleTable
  0
DIMSTYLE
105
2B
330
4
100
AcDbSymbolTableRecord
100
AcDbDimStyleTableRecord
  2
Standard
 70
0
  3

  4

 40
1.0
 41
2.5
 42
0.625
 43
3.75
 44
1.25
 45
0.0
 46
0.0
 47
0.0
 48
0.0
140
2.5
141
2.5
142
0.0
143
0.03937007874
144
1.0
145
0.0
146
1.0
147
0.625
148
0.0
 71
0
 72
0
 73
0
 74
0
 75
0
 76
0
 77
1
 78
8
 79
3
170
0
171
3
172
1
173
0
174
0
175
0
176
0
177
0
178
0
179
2
271
2
272
2
273
2
274
3
275
0
276
0
277
2
278
44
279
0
280
0
281
0
282
0
283
0
284
8
285
0
286
0
288
0
289
3
371
-2
372
-2
  0
DIMSTYLE
105
187
330
4
100
AcDbSymbolTableRecord
100
AcDbDimStyleTableRecord
  2
GEN001
 70
0
  3

  4

 40
1.0
 41
3.0
 42
1.0
 43
8.0
 44
2.0
 45
0.0
 46
0.0
 47
0.0
 48
0.0
140
4.0
141
1.0
142
0.0
143
0.03937007874
144
1.0
145
0.0
146
1.0
147
0.5
148
0.0
 71
0
 72
0
 73
0
 74
0
 75
0
 76
0
 77
3
 78
8
 79
3
170
0
171
3
172
1
173
1
174
0
175
0
176
3
177
3
178
7
179
2
271
2
272
2
273
2
274
3
275
0
276
0
277
2
278
46
279
0
280
0
281
0
282
0
283
0
284
8
285
0
286
0
288
0
289
3
340
181
343
182
344
182
371
-2
372
-2
  0
DIMSTYLE
105
197
330
4
100
AcDbSymbolTableRecord
100
AcDbDimStyleTableRecord
  2
GEN002
 70
0
  3

  4

 40
1.0
 41
3.0
 42
1.0
 43
8.0
 44
2.0
 45
0.0
 46
0.0
 47
0.0
 48
0.0
140
4.0
141
1.0
142
0.0
143
0.03937007874
144
1.0
145
0.0
146
1.0
147
0.5
148
0.0
 71
0
 72
0
 73
0
 74
0
 75
0
 76
0
 77
3
 78
8
 79
3
170
0
171
3
172
1
173
1
174
0
175
0
176
3
177
3
178
7
179
2
271
2
272
2
273
2
274
3
275
0
276
0
277
2
278
46
279
0
280
0
281
0
282
0
283
0
284
8
285
0
286
0
288
0
289
3
340
181
343
182
344
182
371
-2
372
-2
  0
DIMSTYLE
105
1A7
330
4
100
AcDbSymbolTableRecord
100
AcDbDimStyleTableRecord
  2
GEN003
 70
0
  3

  4

 40
1.0
 41
3.0
 42
1.0
 43
8.0
 44
2.0
 45
0.0
 46
0.0
 47
0.0
 48
0.0
140
4.0
141
1.0
142
0.0
143
0.03937007874
144
1.0
145
0.0
146
1.0
147
0.5
148
0.0
 71
0
 72
0
 73
0
 74
0
 75
0
 76
0
 77
3
 78
8
 79
3
170
0
171
3
172
1
173
1
174
0
175
0
176
3
177
3
178
7
179
2
271
2
272
2
273
2
274
3
275
0
276
0
277
2
278
46
279
0
280
0
281
0
282
0
283
0
284
8
285
0
286
0
288
0
289
3
340
181
343
182
344
182
371
-2
372
-2
  0
DIMSTYLE
105
1B7
330
4
100
AcDbSymbolTableRecord
100
AcDbDimStyleTableRecord
  2
GENLDR
 70
0
  3

  4

 40
1.0
 41
3.0
 42
1.0
 43
8.0
 44
2.0
 45
0.0
 46
0.0
 47
0.0
 48
0.0
140
4.0
141
1.0
142
0.0
143
0.03937007874
144
1.0
145
0.0
146
1.0
147
0.5
148
0.0
 71
0
 72
0
 73
0
 74
0
 75
0
 76
0
 77
3
 78
8
 79
3
170
0
171
3
172
1
173
1
174
0
175
0
176
3
177
3
178
7
179
2
271
2
272
2
273
2
274
3
275
0
276
0
277
2
278
46
279
0
280
0
281
0
282
0
283
0
284
8
285
0
286
0
288
0
289
3
340
181
343
182
344
182
371
-2
372
-2
  0
ENDTAB
  0
TABLE
  2
BLOCK_RECORD
  5
9
330
0
100
AcDbSymbolTable
 70
10
  0
BLOCK_RECORD
  5
17
330
9
100
AcDbSymbolTableRecord
100
AcDbBlockTableRecord
  2
*Model_Space
340
1A
  0
BLOCK_RECORD
  5
1B
330
9
100
AcDbSymbolTableRecord
100
AcDbBlockTableRecord
  2
*Paper_Space
340
1E
  0
BLOCK_RECORD
  5
C8
330
9
100
AcDbSymbolTableRecord
100
AcDbBlockTableRecord
  2
BLOCK004
340
0
  0
BLOCK_RECORD
  5
D6
330
9
100
AcDbSymbolTableRecord
100
AcDbBlockTableRecord
  2
BLOCK005
340
0
  0
BLOCK_RECORD
  5
111
330
9
100
AcDbSymbolTableRecord
100
AcDbBlockTableRecord
  2
BLOCK006
340
0
  0
BLOCK_RECORD
  5
118
330
9
100
AcDbSymbolTableRecord
100
AcDbBlockTableRecord
  2
BLOCK007
340
0
  0
BLOCK_RECORD
  5
182
330
9
100
AcDbSymbolTableRecord
100
AcDbBlockTableRecord
  2
_OPEN30
340
0
  0
BLOCK_RECORD
  5
189
330
9
100
AcDbSymbolTableRecord
100
AcDbBlockTableRecord
  2
*D1
340
0
  0
BLOCK_RECORD
  5
199
330
9
100
AcDbSymbolTableRecord
100
AcDbBlockTableRecord
  2
*D2
340
0
  0
BLOCK_RECORD
  5
1A9
330
9
100
AcDbSymbolTableRecord
100
AcDbBlockTableRecord
  2
*D3
340
0
  0
ENDTAB
  0
ENDSEC
  0
SECTION
  2
BLOCKS
  0
BLOCK
  5
18
330
17
100
AcDbEntity
  8
0
100
AcDbBlockBegin
  2
*Model_Space
 70
0
 10
0.0
 20
0.0
 30
0.0
  3
*Model_Space
  1

  0
ENDBLK
  5
19
330
17
100
AcDbEntity
  8
0
100
AcDbBlockEnd
  0
BLOCK
  5
1C
330
1B
100
AcDbEntity
  8
0
100
AcDbBlockBegin
  2
*Paper_Space
 70
0
 10
0.0
 20
0.0
 30
0.0
  3
*Paper_Space
  1

  0
ENDBLK
  5
1D
330
1B
100
AcDbEntity
  8
0
100
AcDbBlockEnd
  0
BLOCK
  5
C9
330
C8
100
AcDbEntity
  8
0
100
AcDbBlockBegin
  2
BLOCK004
 70
64
 10
0.0
 20
0.0
 30
0.0
  3
BLOCK004
  1

  0
CIRCLE
  5
CB
330
C8
100
AcDbEntity
  8
2
  6
CONTINUOUS
 62
7
370
20
100
AcDbCircle
 10
170.52102818258
 20
10.197623906063
 30
0.0
 40
2.1782975474943
  0
CIRCLE
  5
CC
330
C8
100
AcDbEntity
  8
2
  6
CONTINUOUS
 62
7
370
20
100
AcDbCircle
 10
170.52102818258
 20
10.197623906063
 30
0.0
 40
1.43691326178
  0
LWPOLYLINE
  5
CD
330
C8
100
AcDbEntity
  8
2
  6
CONTINUOUS
 62
7
370
20
100
AcDbPolyline
 90
4
 70
1
 10
175.06221618808
 20
11.634537167843
 10
180.26350009482
 20
12.375921453557
 10
180.26350009482
 20
8.0193263585682
 10
175.06221618808
 20
8.7607106442827
  0
LINE
  5
CE
330
C8
100
AcDbEntity
  8
2
  6
CONTINUOUS
 62
7
370
20
100
AcDbLine
 10
168.03987259152
 20
10.197623906063
 30
0.0
 11
170.80115164912
 21
10.197623906063
 31
0.0
  0
LINE
  5
CF
330
C8
100
AcDbEntity
  8
2
  6
CONTINUOUS
 62
7
370
20
100
AcDbLine
 10
171.25447468719
 20
10.197623906063
 30
0.0
 11
172.20027039241
 21
10.197623906063
 31
0.0
  0
LINE
  5
D0
330
C8
100
AcDbEntity
  8
2
  6
CONTINUOUS
 62
7
370
20
100
AcDbLine
 10
177.29615748089
 20
10.197623906063
 30
0.0
 11
178.2468966452
 21
10.197623906063
 31
0.0
  0
LINE
  5
D1
330
C8
100
AcDbEntity
  8
2
  6
CONTINUOUS
 62
7
370
20
100
AcDbLine
 10
172.99280424365
 20
10.197623906063
 30
0.0
 11
176.67551000266
 21
10.197623906063
 31
0.0
  0
LINE
  5
D2
330
C8
100
AcDbEntity
  8
2
  6
CONTINUOUS
 62
7
370
20
100
AcDbLine
 10
178.91739616362
 20
10.197623906063
 30
0.0
 11
181.17172699337
 21
10.197623906063
 31
0.0
  0
LINE
  5
D3
330
C8
100
AcDbEntity
  8
2
  6
CONTINUOUS
 62
7
370
20
100
AcDbLine
 10
170.52102818258
 20
10.450588115875
 30
0.0
 11
170.52102818258
 21
7.6687870559977
 31
0.0
  0
LINE
  5
D4
330
C8
100
AcDbEntity
  8
2
  6
CONTINUOUS
 62
7
370
20
100
AcDbLine
 10
170.52102818258
 20
11.879149095869
 30
0.0
 11
170.52102818258
 21
10.974485114891
 31
0.0
  0
LINE
  5
D5
330
C8
100
AcDbEntity
  8
2
  6
CONTINUOUS
 62
7
370
20
100
AcDbLine
 10
170.52102818258
 20
12.751764531148
 30
0.0
 11
170.52102818258
 21
12.118986673823
 31
0.0
  0
ENDBLK
  5
CA
330
C8
100
AcDbEntity
  8
0
100
AcDbBlockEnd
  0
BLOCK
  5
D7
330
D6
100
AcDbEntity
  8
0
100
AcDbBlockBegin
  2
BLOCK005
 70
64
 10
0.0
 20
0.0
 30
0.0
  3
BLOCK005
  1

  0
MTEXT
  5
D9
330
D6
100
AcDbEntity
  8
254
 62
7
370
20
100
AcDbMText
 10
149.40450574984
 20
18.703608255046
 30
0.0
 40
2.3113364687439
 41
0.0
 71
1
  1
{\T1.000000;ÇPÇOÇOÇOÅ`}\P{\T1.000000;ÇQÇOÇOÇO}
  7
GMM010
 44
0.79999984000003
  0
MTEXT
  5
DA
330
D6
100
AcDbEntity
  8
254
 62
7
370
20
100
AcDbMText
 10
140.98345281688
 20
18.703608255046
 30
0.0
 40
2.3113364687439
 41
0.0
 71
1
  1
{\T1.000000;ÇSÇOÇOÅ`}\P{\T1.000000;ÇPÇOÇOÇO}
  7
GMM010
 44
0.79999984000003
  0
MTEXT
  5
DB
330
D6
100
AcDbEntity
  8
254
 62
7
370
20
100
AcDbMText
 10
132.43154947819
 20
18.703608255046
 30
0.0
 40
2.3113364687439
 41
0.0
 71
1
  1
{\T1.000000;ÇPÇQÇOÅ`}\P{\T1.000000;ÇSÇOÇO}
  7
GMM010
 44
0.79999984000003
  0
MTEXT
  5
DC
330
D6
100
AcDbEntity
  8
254
 62
7
370
20
100
AcDbMText
 10
124.12265403585
 20
18.703608255046
 30
0.0
 40
2.3113364687439
 41
0.0
 71
1
  1
{\T1.000000;ÇRÇOÅ@Å`}\P{\T1.000000;ÇPÇQÇO}
  7
GMM010
 44
0.79999984000003
  0
MTEXT
  5
DD
330
D6
100
AcDbEntity
  8
254
 62
7
370
20
100
AcDbMText
 10
115.58944361226
 20
18.703608255046
 30
0.0
 40
2.3113364687439
 41
0.0
 71
1
  1
{\T1.000000;ÇUÅ@Å`}\P{\T1.000000;ÇRÇO}
  7
GMM010
 44
0.79999984000003
  0
MTEXT
  5
DE
330
D6
100
AcDbEntity
  8
254
 62
7
370
20
100
AcDbMText
 10
107.24316233971
 20
18.703608255046
 30
0.0
 40
2.3113364687439
 41
0.0
 71
1
  1
{\T1.000000;ÇRÅ@Å`}\P{\T1.000000;ÇU}
  7
GMM010
 44
0.79999984000003
  0
LINE
  5
DF
330
D6
100
AcDbEntity
  8
2
  6
CONTINUOUS
 62
3
370
9
100
AcDbLine
 10
96.972262552243
 20
20.550214344458
 30
0.0
 11
166.43737735483
 21
20.550214344458
 31
0.0
  0
LINE
  5
E0
330
D6
100
AcDbEntity
  8
2
  6
CONTINUOUS
 62
3
370
9
100
AcDbLine
 10
96.972262552243
 20
13.84845139869
 30
0.0
 11
106.70490438971
 21
13.84845139869
 31
0.0
  0
LINE
  5
E1
330
D6
100
AcDbEntity
  8
2
  6
CONTINUOUS
 62
3
370
9
100
AcDbLine
 10
106.70490438971
 20
13.84845139869
 30
0.0
 11
115.2381148133
 21
13.84845139869
 31
0.0
  0
LINE
  5
E2
330
D6
100
AcDbEntity
  8
2
  6
CONTINUOUS
 62
3
370
9
100
AcDbLine
 10
115.2381148133
 20
13.84845139869
 30
0.0
 11
123.77132523688
 21
13.84845139869
 31
0.0
  0
LINE
  5
E3
330
D6
100
AcDbEntity
  8
2
  6
CONTINUOUS
 62
3
370
9
100
AcDbLine
 10
123.77132523688
 20
13.84845139869
 30
0.0
 11
132.30453566047
 21
13.84845139869
 31
0.0
  0
LINE
  5
E4
330
D6
100
AcDbEntity
  8
2
  6
CONTINUOUS
 62
3
370
9
100
AcDbLine
 10
132.30453566047
 20
13.84845139869
 30
0.0
 11
140.83774608406
 21
13.84845139869
 31
0.0
  0
LINE
  5
E5
330
D6
100
AcDbEntity
  8
2
  6
CONTINUOUS
 62
3
370
9
100
AcDbLine
 10
140.83774608406
 20
13.84845139869
 30
0.0
 11
149.37095650765
 21
13.84845139869
 31
0.0
  0
LINE
  5
E6
330
D6
100
AcDbEntity
  8
2
  6
CONTINUOUS
 62
3
370
9
100
AcDbLine
 10
149.37095650765
 20
13.84845139869
 30
0.0
 11
157.90416693124
 21
13.84845139869
 31
0.0
  0
LINE
  5
E7
330
D6
100
AcDbEntity
  8
2
  6
CONTINUOUS
 62
3
370
9
100
AcDbLine
 10
157.90416693124
 20
13.84845139869
 30
0.0
 11
166.43737735483
 21
13.84845139869
 31
0.0
  0
MTEXT
  5
E8
330
D6
100
AcDbEntity
  8
254
 62
7
370
20
100
AcDbMText
 10
101.75381223092
 20
18.703608255046
 30
0.0
 40
2.3113364687439
 41
0.0
 71
2
  1
{\T1.000000;Å†Çí¥Ç¶}\P{\T1.000000;Å†à»â∫}
  7
GMM011
 44
0.79999984000003
  0
MTEXT
  5
E9
330
D6
100
AcDbEntity
  8
254
 62
7
370
20
100
AcDbMText
 10
157.87528390182
 20
18.703608255046
 30
0.0
 40
2.3113364687439
 41
0.0
 71
1
  1
{\T1.000000;ÇQÇOÇOÇOÅ`}\P{\T1.000000;ÇSÇOÇOÇO}
  7
GMM010
 44
0.79999984000003
  0
LINE
  5
EA
330
D6
100
AcDbEntity
  8
2
  6
CONTINUOUS
 62
3
370
9
100
AcDbLine
 10
157.90416693124
 20
9.424225699345
 30
0.0
 11
166.43737735483
 21
9.424225699345
 31
0.0
  0
LINE
  5
EB
330
D6
100
AcDbEntity
  8
2
  6
CONTINUOUS
 62
3
370
9
100
AcDbLine
 10
149.37095650765
 20
9.424225699345
 30
0.0
 11
157.90416693124
 21
9.424225699345
 31
0.0
  0
LINE
  5
EC
330
D6
100
AcDbEntity
  8
2
  6
CONTINUOUS
 62
3
370
9
100
AcDbLine
 10
140.83774608406
 20
9.424225699345
 30
0.0
 11
149.37095650765
 21
9.424225699345
 31
0.0
  0
LINE
  5
ED
330
D6
100
AcDbEntity
  8
2
  6
CONTINUOUS
 62
3
370
9
100
AcDbLine
 10
132.30453566047
 20
9.424225699345
 30
0.0
 11
140.83774608406
 21
9.424225699345
 31
0.0
  0
LINE
  5
EE
330
D6
100
AcDbEntity
  8
2
  6
CONTINUOUS
 62
3
370
9
100
AcDbLine
 10
123.77132523688
 20
9.424225699345
 30
0.0
 11
132.30453566047
 21
9.424225699345
 31
0.0
  0
LINE
  5
EF
330
D6
100
AcDbEntity
  8
2
  6
CONTINUOUS
 62
3
370
9
100
AcDbLine
 10
115.2381148133
 20
9.424225699345
 30
0.0
 11
123.77132523688
 21
9.424225699345
 31
0.0
  0
LINE
  5
F0
330
D6
100
AcDbEntity
  8
2
  6
CONTINUOUS
 62
3
370
9
100
AcDbLine
 10
106.70490438971
 20
9.424225699345
 30
0.0
 11
115.2381148133
 21
9.424225699345
 31
0.0
  0
LINE
  5
F1
330
D6
100
AcDbEntity
  8
2
  6
CONTINUOUS
 62
3
370
9
100
AcDbLine
 10
96.972262552243
 20
9.424225699345
 30
0.0
 11
106.70490438971
 21
9.424225699345
 31
0.0
  0
LINE
  5
F2
330
D6
100
AcDbEntity
  8
2
  6
CONTINUOUS
 62
3
370
9
100
AcDbLine
 10
106.70490438971
 20
20.550214344458
 30
0.0
 11
106.70490438971
 21
4.9999999999998
 31
0.0
  0
LINE
  5
F3
330
D6
100
AcDbEntity
  8
2
  6
CONTINUOUS
 62
3
370
9
100
AcDbLine
 10
115.2381148133
 20
20.550214344458
 30
0.0
 11
115.2381148133
 21
4.9999999999998
 31
0.0
  0
LINE
  5
F4
330
D6
100
AcDbEntity
  8
2
  6
CONTINUOUS
 62
3
370
9
100
AcDbLine
 10
123.77132523688
 20
20.550214344458
 30
0.0
 11
123.77132523688
 21
4.9999999999998
 31
0.0
  0
LINE
  5
F5
330
D6
100
AcDbEntity
  8
2
  6
CONTINUOUS
 62
3
370
9
100
AcDbLine
 10
132.30453566047
 20
20.550214344458
 30
0.0
 11
132.30453566047
 21
4.9999999999998
 31
0.0
  0
LINE
  5
F6
330
D6
100
AcDbEntity
  8
2
  6
CONTINUOUS
 62
3
370
9
100
AcDbLine
 10
140.83774608406
 20
20.550214344458
 30
0.0
 11
140.83774608406
 21
4.9999999999998
 31
0.0
  0
LINE
  5
F7
330
D6
100
AcDbEntity
  8
2
  6
CONTINUOUS
 62
3
370
9
100
AcDbLine
 10
149.37095650765
 20
20.550214344458
 30
0.0
 11
149.37095650765
 21
4.9999999999998
 31
0.0
  0
LINE
  5
F8
330
D6
100
AcDbEntity
  8
2
  6
CONTINUOUS
 62
3
370
9
100
AcDbLine
 10
157.90416693124
 20
20.550214344458
 30
0.0
 11
157.90416693124
 21
4.9999999999998
 31
0.0
  0
MTEXT
  5
F9
330
D6
100
AcDbEntity
  8
254
 62
7
370
20
100
AcDbMText
 10
110.66396580379
 20
7.3356081976647
 30
0.0
 40
2.3113364687439
 41
0.0
 71
5
  1
%%p\T1.000000;ÇP
  7
GMM010
 44
0.79999984000003
  0
MTEXT
  5
FA
330
D6
100
AcDbEntity
  8
254
 62
7
370
20
100
AcDbMText
 10
119.19717622738
 20
7.3356081976647
 30
0.0
 40
2.3113364687439
 41
0.0
 71
5
  1
%%p\T1.000000;ÇP
  7
GMM010
 44
0.79999984000003
  0
MTEXT
  5
FB
330
D6
100
AcDbEntity
  8
254
 62
7
370
20
100
AcDbMText
 10
127.73038665097
 20
7.3356081976647
 30
0.0
 40
2.3113364687439
 41
0.0
 71
5
  1
%%p\T1.000000;ÇPÅDÇT
  7
GMM010
 44
0.79999984000003
  0
MTEXT
  5
FC
330
D6
100
AcDbEntity
  8
254
 62
7
370
20
100
AcDbMText
 10
136.26359707456
 20
7.3356081976647
 30
0.0
 40
2.3113364687439
 41
0.0
 71
5
  1
%%p\T1.000000;ÇQ
  7
GMM010
 44
0.79999984000003
  0
MTEXT
  5
FD
330
D6
100
AcDbEntity
  8
254
 62
7
370
20
100
AcDbMText
 10
144.79680749815
 20
7.3356081976647
 30
0.0
 40
2.3113364687439
 41
0.0
 71
5
  1
%%p\T1.000000;ÇQÅDÇT
  7
GMM010
 44
0.79999984000003
  0
MTEXT
  5
FE
330
D6
100
AcDbEntity
  8
254
 62
7
370
20
100
AcDbMText
 10
153.33001792174
 20
7.3356081976647
 30
0.0
 40
2.3113364687439
 41
0.0
 71
5
  1
%%p\T1.000000;ÇR
  7
GMM010
 44
0.79999984000003
  0
MTEXT
  5
FF
330
D6
100
AcDbEntity
  8
254
 62
7
370
20
100
AcDbMText
 10
161.12785112996
 20
7.3356081976647
 30
0.0
 40
2.3113364687439
 41
0.0
 71
5
  1
%%p\T1.000000;ÇS
  7
GMM010
 44
0.79999984000003
  0
MTEXT
  5
100
330
D6
100
AcDbEntity
  8
254
 62
7
370
20
100
AcDbMText
 10
110.51442248296
 20
11.634920373638
 30
0.0
 40
2.3113364687439
 41
0.0
 71
5
  1
%%p\T1.000000;ÇOÅDÇP
  7
GMM010
 44
0.79999984000003
  0
MTEXT
  5
101
330
D6
100
AcDbEntity
  8
254
 62
7
370
20
100
AcDbMText
 10
119.04763290655
 20
11.634920373638
 30
0.0
 40
2.3113364687439
 41
0.0
 71
5
  1
%%p\T1.000000;ÇOÅDÇQ
  7
GMM010
 44
0.79999984000003
  0
MTEXT
  5
102
330
D6
100
AcDbEntity
  8
254
 62
7
370
20
100
AcDbMText
 10
127.58084333014
 20
11.634920373638
 30
0.0
 40
2.3113364687439
 41
0.0
 71
5
  1
%%p\T1.000000;ÇOÅDÇR
  7
GMM010
 44
0.79999984000003
  0
MTEXT
  5
103
330
D6
100
AcDbEntity
  8
254
 62
7
370
20
100
AcDbMText
 10
136.11405375372
 20
11.634920373638
 30
0.0
 40
2.3113364687439
 41
0.0
 71
5
  1
%%p\T1.000000;ÇOÅDÇT
  7
GMM010
 44
0.79999984000003
  0
MTEXT
  5
104
330
D6
100
AcDbEntity
  8
254
 62
7
370
20
100
AcDbMText
 10
144.64726417731
 20
11.634920373638
 30
0.0
 40
2.3113364687439
 41
0.0
 71
5
  1
%%p\T1.000000;ÇOÅDÇW
  7
GMM010
 44
0.79999984000003
  0
MTEXT
  5
105
330
D6
100
AcDbEntity
  8
254
 62
7
370
20
100
AcDbMText
 10
153.1804746009
 20
11.634920373638
 30
0.0
 40
2.3113364687439
 41
0.0
 71
5
  1
%%p\T1.000000;ÇPÅDÇQ
  7
GMM010
 44
0.79999984000003
  0
MTEXT
  5
106
330
D6
100
AcDbEntity
  8
254
 62
7
370
20
100
AcDbMText
 10
160.97830780913
 20
11.634920373638
 30
0.0
 40
2.3113364687439
 41
0.0
 71
5
  1
%%p\T1.000000;ÇQ
  7
GMM010
 44
0.79999984000003
  0
MTEXT
  5
107
330
D6
100
AcDbEntity
  8
254
 62
7
370
20
100
AcDbMText
 10
99.896982663893
 20
11.634920373638
 30
0.0
 40
2.5424701156183
 41
0.0
 71
5
  1
\T1.000000;ã@äB
  7
GMM001
 44
0.79999984000003
  0
MTEXT
  5
108
330
D6
100
AcDbEntity
  8
254
 62
7
370
20
100
AcDbMText
 10
99.896982663893
 20
7.3356081976647
 30
0.0
 40
2.5424701156183
 41
0.0
 71
5
  1
\T1.000000;êªä 
  7
GMM001
 44
0.79999984000003
  0
MTEXT
  5
109
330
D6
100
AcDbEntity
  8
254
 62
7
370
20
100
AcDbMText
 10
104.68236893058
 20
11.335833731969
 30
0.0
 40
1.7335023515579
 41
0.0
 71
5
  1
\T1.000000;â¡çH
  7
GMM012
 44
0.79999984000003
  0
MTEXT
  5
10A
330
D6
100
AcDbEntity
  8
254
 62
7
370
20
100
AcDbMText
 10
104.68236893058
 20
6.9116080326244
 30
0.0
 40
1.7335023515579
 41
0.0
 71
5
  1
\T1.000000;â¡çH
  7
GMM012
 44
0.79999984000003
  0
LINE
  5
10B
330
D6
100
AcDbEntity
  8
2
  6
CONTINUOUS
 62
3
370
9
100
AcDbLine
 10
92.759851837957
 20
24.469731335988
 30
0.0
 11
166.43737735483
 21
24.469731335988
 31
0.0
  0
TEXT
  5
10C
330
D6
100
AcDbEntity
  8
254
 62
3
370
9
100
AcDbText
 10
94.70298091284
 20
24.260906217143
 30
0.0
 40
2.3113364687439
  1
àÍî ê°ñ@åˆç∑
  7
STANDARD1
 41
1.0935
100
AcDbText
  0
LINE
  5
10D
330
D6
100
AcDbEntity
  8
254
  6
CONTINUOUS
 62
3
370
9
100
AcDbLine
 10
96.972262552243
 20
4.9999999999998
 30
0.0
 11
96.972262552243
 21
24.469731335988
 31
0.0
  0
MTEXT
  5
10E
330
D6
100
AcDbEntity
  8
254
 62
7
370
20
100
AcDbMText
 10
97.619100225429
 20
22.588396985111
 30
0.0
 40
2.3113364687439
 41
0.0
 71
4
  1
\W0.950000;\T1.000000;ÇiÇhÇr\W0.475000;\T1.000000; \W0.950000;\T1.000000;Ça\W0.475000;\T1.000000; \W0.950000;\T1.000000;ÇOÇSÇOÇTÅ|ÇçÅiíÜãâÅjíPà \W0.475000;\T1.000000;:\W0.950000;\T1.000000;ÇçÇç
  7
GMM011
 44
0.79999984000003
  0
MTEXT
  5
10F
330
D6
100
AcDbEntity
  8
254
 62
3
370
9
100
AcDbMText
 10
93.394501411866
 20
26.559319493178
 30
0.0
 40
2.5424701156183
 41
0.0
 71
4
  1
\T1.000000;ì¡ãLÇ»Ç´äpÇÕéÖñ éÊÇËÅAã˜ÇÕÇqÇOÅDÇTà»â∫ÅAçaâ¡çHÇÃíÍÇqÇÕÇqÇPÅDÇTà»â∫
  7
GMM014
 44
0.79999984000003
  0
LWPOLYLINE
  5
110
330
D6
100
AcDbEntity
  8
2
  6
CONTINUOUS
 62
1
370
15
100
AcDbPolyline
 90
4
 70
1
 10
92.759851837957
 20
4.9999999999998
 10
166.43737735483
 20
4.9999999999998
 10
166.43737735483
 20
28.5895
 10
92.759851837957
 20
28.5895
  0
ENDBLK
  5
D8
330
D6
100
AcDbEntity
  8
0
100
AcDbBlockEnd
  0
BLOCK
  5
112
330
111
100
AcDbEntity
  8
0
100
AcDbBlockBegin
  2
BLOCK006
 70
64
 10
0.0
 20
0.0
 30
0.0
  3
BLOCK006
  1

  0
LINE
  5
114
330
111
100
AcDbEntity
  8
254
  6
CONTINUOUS
 62
1
370
15
100
AcDbLine
 10
11.33285798981
 20
12.029538831528
 30
0.0
 11
6.7003419901737
 21
12.029538831528
 31
0.0
  0
LINE
  5
115
330
111
100
AcDbEntity
  8
254
  6
CONTINUOUS
 62
1
370
15
100
AcDbLine
 10
9.0165999899916
 20
15.967177431219
 30
0.0
 11
11.33285798981
 21
12.029538831528
 31
0.0
  0
LINE
  5
116
330
111
100
AcDbEntity
  8
254
  6
CONTINUOUS
 62
1
370
15
100
AcDbLine
 10
9.0165999899916
 20
15.967177431219
 30
0.0
 11
6.7003419901737
 21
12.029538831528
 31
0.0
  0
MTEXT
  5
117
330
111
100
AcDbEntity
  8
254
 62
7
370
20
100
AcDbMText
 10
9.0165999899916
 20
13.392043537304
 30
0.0
 40
2.8433772321429
 41
0.0
 71
5
  1
\T1.000000;ÇP
  7
GMM001
 44
0.79999984000003
  0
ENDBLK
  5
113
330
111
100
AcDbEntity
  8
0
100
AcDbBlockEnd
  0
BLOCK
  5
119
330
118
100
AcDbEntity
  8
0
100
AcDbBlockBegin
  2
BLOCK007
 70
64
 10
0.0
 20
0.0
 30
0.0
  3
BLOCK007
  1

  0
LINE
  5
11B
330
118
100
AcDbEntity
  8
254
  6
CONTINUOUS
 62
1
370
15
100
AcDbLine
 10
11.33285798981
 20
17.926913831528
 30
0.0
 11
6.7003419901737
 21
17.926913831528
 31
0.0
  0
LINE
  5
11C
330
118
100
AcDbEntity
  8
254
  6
CONTINUOUS
 62
1
370
15
100
AcDbLine
 10
9.0165999899916
 20
21.864552431219
 30
0.0
 11
11.33285798981
 21
17.926913831528
 31
0.0
  0
LINE
  5
11D
330
118
100
AcDbEntity
  8
254
  6
CONTINUOUS
 62
1
370
15
100
AcDbLine
 10
9.0165999899916
 20
21.864552431219
 30
0.0
 11
6.7003419901737
 21
17.926913831528
 31
0.0
  0
MTEXT
  5
11E
330
118
100
AcDbEntity
  8
254
 62
7
370
20
100
AcDbMText
 10
9.0165999899916
 20
19.289418537303
 30
0.0
 40
2.8433772321429
 41
0.0
 71
5
  1
\T1.000000;ÇQ
  7
GMM001
 44
0.79999984000003
  0
ENDBLK
  5
11A
330
118
100
AcDbEntity
  8
0
100
AcDbBlockEnd
  0
BLOCK
  5
183
330
182
100
AcDbEntity
  8
0
100
AcDbBlockBegin
  2
_OPEN30
 70
0
 10
0.0
 20
0.0
 30
0.0
  3
_OPEN30
  1

  0
LWPOLYLINE
  5
185
330
182
100
AcDbEntity
  8
0
  6
BYBLOCK
 62
0
100
AcDbPolyline
 90
3
 70
0
 10
-1.0
 20
0.25881904510252074
 10
0.0
 20
0.0
 10
-1.0
 20
-0.25881904510252074
  0
LINE
  5
186
330
182
100
AcDbEntity
  8
0
  6
BYBLOCK
 62
0
100
AcDbLine
 10
0.0
 20
0.0
 30
0.0
 11
-1.0
 21
0.0
 31
0.0
  0
ENDBLK
  5
184
330
182
100
AcDbEntity
  8
0
100
AcDbBlockEnd
  0
BLOCK
  5
18A
330
189
100
AcDbEntity
  8
0
100
AcDbBlockBegin
  2
*D1
 70
1
 10
0.0
 20
0.0
 30
0.0
  3
*D1
  1

  0
LINE
  5
18C
330
189
100
AcDbEntity
  8
0
 62
3
100
AcDbLine
 10
171.61522368914976
 20
119.17993439773295
 30
0.0
 11
171.61522368914976
 21
102.17993439770004
 31
0.0
  0
LINE
  5
18D
330
189
100
AcDbEntity
  8
0
 62
3
100
AcDbLine
 10
196.61522368914976
 20
119.17993439773295
 30
0.0
 11
196.61522368914976
 21
102.17993439770004
 31
0.0
  0
INSERT
  5
18E
330
189
100
AcDbEntity
  8
1
 62
3
100
AcDbBlockReference
  2
_OPEN30
 10
171.61522368914976
 20
104.17993439770004
 30
0.0
 41
3.0
 42
3.0
 50
180.0
  0
INSERT
  5
190
330
189
100
AcDbEntity
  8
1
 62
3
100
AcDbBlockReference
  2
_OPEN30
 10
196.61522368914976
 20
104.17993439770004
 30
0.0
 41
3.0
 42
3.0
  0
LINE
  5
192
330
189
100
AcDbEntity
  8
0
 62
3
100
AcDbLine
 10
174.61522368914976
 20
104.17993439770004
 30
0.0
 11
193.61522368914976
 21
104.17993439770004
 31
0.0
  0
MTEXT
  5
193
330
189
100
AcDbEntity
  8
1
 62
7
100
AcDbMText
 10
184.11522368914976
 20
106.67993439770004
 30
0.0
 40
4.0
 71
5
  1
25
  7
VF003
  0
POINT
  5
194
330
189
100
AcDbEntity
  8
Defpoints
100
AcDbPoint
 10
171.61522368914976
 20
104.17993439770004
 30
0.0
  0
POINT
  5
195
330
189
100
AcDbEntity
  8
Defpoints
100
AcDbPoint
 10
171.61522368914976
 20
120.17993439773295
 30
0.0
  0
POINT
  5
196
330
189
100
AcDbEntity
  8
Defpoints
100
AcDbPoint
 10
196.61522368914976
 20
120.17993439773295
 30
0.0
  0
ENDBLK
  5
18B
330
189
100
AcDbEntity
  8
0
100
AcDbBlockEnd
  0
BLOCK
  5
19A
330
199
100
AcDbEntity
  8
0
100
AcDbBlockBegin
  2
*D2
 70
1
 10
0.0
 20
0.0
 30
0.0
  3
*D2
  1

  0
LINE
  5
19C
330
199
100
AcDbEntity
  8
0
 62
3
100
AcDbLine
 10
170.61522368914976
 20
120.17993439773295
 30
0.0
 11
153.61522368910002
 21
120.17993439773295
 31
0.0
  0
LINE
  5
19D
330
199
100
AcDbEntity
  8
0
 62
3
100
AcDbLine
 10
170.61522368914976
 20
145.17993439773298
 30
0.0
 11
153.61522368910002
 21
145.17993439773298
 31
0.0
  0
INSERT
  5
19E
330
199
100
AcDbEntity
  8
1
 62
3
100
AcDbBlockReference
  2
_OPEN30
 10
155.61522368910002
 20
120.17993439773295
 30
0.0
 41
3.0
 42
3.0
 50
270.0
  0
INSERT
  5
1A0
330
199
100
AcDbEntity
  8
1
 62
3
100
AcDbBlockReference
  2
_OPEN30
 10
155.61522368910002
 20
145.17993439773298
 30
0.0
 41
3.0
 42
3.0
 50
90.0
  0
LINE
  5
1A2
330
199
100
AcDbEntity
  8
0
 62
3
100
AcDbLine
 10
155.61522368910002
 20
123.17993439773295
 30
0.0
 11
155.61522368910002
 21
142.17993439773298
 31
0.0
  0
MTEXT
  5
1A3
330
199
100
AcDbEntity
  8
1
 62
7
100
AcDbMText
 10
153.11522368910002
 20
132.67993439773295
 30
0.0
 40
4.0
 71
5
  1
25
  7
VF003
 50
90.0
  0
POINT
  5
1A4
330
199
100
AcDbEntity
  8
Defpoints
100
AcDbPoint
 10
155.61522368910002
 20
120.17993439773295
 30
0.0
  0
POINT
  5
1A5
330
199
100
AcDbEntity
  8
Defpoints
100
AcDbPoint
 10
171.61522368914976
 20
120.17993439773295
 30
0.0
  0
POINT
  5
1A6
330
199
100
AcDbEntity
  8
Defpoints
100
AcDbPoint
 10
171.61522368914976
 20
145.17993439773298
 30
0.0
  0
ENDBLK
  5
19B
330
199
100
AcDbEntity
  8
0
100
AcDbBlockEnd
  0
BLOCK
  5
1AA
330
1A9
100
AcDbEntity
  8
0
100
AcDbBlockBegin
  2
*D3
 70
1
 10
0.0
 20
0.0
 30
0.0
  3
*D3
  1

  0
LINE
  5
1AC
330
1A9
100
AcDbEntity
  8
0
 62
3
100
AcDbLine
 10
243.5
 20
119.17993439773295
 30
0.0
 11
243.5
 21
102.17993439770004
 31
0.0
  0
LINE
  5
1AD
330
1A9
100
AcDbEntity
  8
0
 62
3
100
AcDbLine
 10
216.5
 20
119.17993439773295
 30
0.0
 11
216.5
 21
102.17993439770004
 31
0.0
  0
INSERT
  5
1AE
330
1A9
100
AcDbEntity
  8
1
 62
3
100
AcDbBlockReference
  2
_OPEN30
 10
243.5
 20
104.17993439770004
 30
0.0
 41
3.0
 42
3.0
 50
180.0
  0
INSERT
  5
1B0
330
1A9
100
AcDbEntity
  8
1
 62
3
100
AcDbBlockReference
  2
_OPEN30
 10
216.5
 20
104.17993439770004
 30
0.0
 41
3.0
 42
3.0
  0
LINE
  5
1B2
330
1A9
100
AcDbEntity
  8
0
 62
3
100
AcDbLine
 10
246.5
 20
104.17993439770004
 30
0.0
 11
213.5
 21
104.17993439770004
 31
0.0
  0
MTEXT
  5
1B3
330
1A9
100
AcDbEntity
  8
1
 62
7
100
AcDbMText
 10
230.0
 20
101.67993439770004
 30
0.0
 40
4.0
 71
5
  1
27
  7
VF003
  0
POINT
  5
1B4
330
1A9
100
AcDbEntity
  8
Defpoints
100
AcDbPoint
 10
243.5
 20
104.17993439770004
 30
0.0
  0
POINT
  5
1B5
330
1A9
100
AcDbEntity
  8
Defpoints
100
AcDbPoint
 10
243.5
 20
120.17993439773295
 30
0.0
  0
POINT
  5
1B6
330
1A9
100
AcDbEntity
  8
Defpoints
100
AcDbPoint
 10
216.5
 20
120.17993439773295
 30
0.0
  0
ENDBLK
  5
1AB
330
1A9
100
AcDbEntity
  8
0
100
AcDbBlockEnd
  0
ENDSEC
  0
SECTION
  2
ENTITIES
  0
LWPOLYLINE
  5
31
330
17
100
AcDbEntity
  8
1
  6
CONTINUOUS
 62
7
370
20
100
AcDbPolyline
 90
4
 70
1
 10
5.0
 20
292.0
 10
5.0
 20
5.0
 10
415.0
 20
5.0
 10
415.0
 20
292.0
  0
LINE
  5
32
330
17
100
AcDbEntity
  8
254
  6
CONTINUOUS
 62
3
370
9
100
AcDbLine
 10
325.18000713133
 20
4.9999999999998
 30
0.0
 11
325.18000713133
 21
18.122
 31
0.0
  0
LINE
  5
33
330
17
100
AcDbEntity
  8
254
  6
CONTINUOUS
 62
3
370
9
100
AcDbLine
 10
325.18000713133
 20
18.122
 30
0.0
 11
415.0
 21
18.122
 31
0.0
  0
MTEXT
  5
34
330
17
100
AcDbEntity
  8
254
 62
3
370
9
100
AcDbMText
 10
354.47071050214
 20
20.913826357749
 30
0.0
 40
2.916
 41
0.0
 71
5
  1
\T1.500000;ïîïiñºÅiå^éÆÅj
  7
GMM001
 44
0.79999984000003
  0
MTEXT
  5
35
330
17
100
AcDbEntity
  8
254
 62
3
370
9
100
AcDbMText
 10
384.36838887415
 20
20.913826357749
 30
0.0
 40
2.916
 41
0.0
 71
5
  1
\T1.000000;ÉÅÅ[ÉJÅ[
  7
GMM001
 44
0.79999984000003
  0
MTEXT
  5
36
330
17
100
AcDbEntity
  8
254
 62
3
370
9
100
AcDbMText
 10
406.97447618747
 20
20.913826357749
 30
0.0
 40
2.916
 41
0.0
 71
5
  1
\T1.000000;îıçl
  7
GMM001
 44
0.79999984000003
  0
LINE
  5
37
330
17
100
AcDbEntity
  8
254
  6
CONTINUOUS
 62
3
370
9
100
AcDbLine
 10
325.18000713133
 20
23.5895
 30
0.0
 11
415.0
 21
23.5895
 31
0.0
  0
LINE
  5
38
330
17
100
AcDbEntity
  8
254
  6
CONTINUOUS
 62
3
370
9
100
AcDbLine
 10
398.08000713133
 20
18.122
 30
0.0
 11
398.08000713133
 21
23.5895
 31
0.0
  0
LINE
  5
39
330
17
100
AcDbEntity
  8
254
  6
CONTINUOUS
 62
3
370
9
100
AcDbLine
 10
391.51900713133
 20
18.122
 30
0.0
 11
391.51900713133
 21
23.5895
 31
0.0
  0
LINE
  5
3A
330
17
100
AcDbEntity
  8
254
  6
CONTINUOUS
 62
3
370
9
100
AcDbLine
 10
376.21000713133
 20
18.122
 30
0.0
 11
376.21000713133
 21
23.5895
 31
0.0
  0
LINE
  5
3B
330
17
100
AcDbEntity
  8
254
  6
CONTINUOUS
 62
3
370
9
100
AcDbLine
 10
332.47000713133
 20
18.122
 30
0.0
 11
332.47000713133
 21
23.5895
 31
0.0
  0
LINE
  5
3C
330
17
100
AcDbEntity
  8
254
  6
CONTINUOUS
 62
3
370
9
100
AcDbLine
 10
325.18000713133
 20
18.122
 30
0.0
 11
325.18000713133
 21
23.5895
 31
0.0
  0
MTEXT
  5
3D
330
17
100
AcDbEntity
  8
254
 62
3
370
9
100
AcDbMText
 10
325.91897077517
 20
19.561222878301
 30
0.0
 40
2.916
 41
0.0
 71
7
  1
\T1.000000;ïiî‘
  7
GMM001
 44
0.79999984000003
  0
MTEXT
  5
3E
330
17
100
AcDbEntity
  8
254
 62
7
370
20
100
AcDbMText
 10
360.49798976328
 20
11.631430728461
 30
0.0
 40
5.5662694627463
 41
0.0
 71
4
  1
\T1.000000;ÉâÉCÉìÉèÅ|ÉNÉX
  7
GMM001
 44
0.79999984000003
  0
MTEXT
  5
3F
330
17
100
AcDbEntity
  8
254
 62
7
370
20
100
AcDbMText
 10
352.94784324569
 20
12.052597702861
 30
0.0
 40
3.3397616776478
 41
0.0
 71
4
  1
{\T1.000000;äîéÆ}\P{\T1.000000;âÔé–}
  7
GMM001
 44
0.79999984000003
  0
LINE
  5
40
330
17
100
AcDbEntity
  8
254
  6
CONTINUOUS
 62
3
370
9
100
AcDbLine
 10
398.08000713133
 20
23.5895
 30
0.0
 11
398.08000713133
 21
28.5895
 31
0.0
  0
LINE
  5
41
330
17
100
AcDbEntity
  8
254
  6
CONTINUOUS
 62
3
370
9
100
AcDbLine
 10
391.51900713133
 20
23.5895
 30
0.0
 11
391.51900713133
 21
28.5895
 31
0.0
  0
LINE
  5
42
330
17
100
AcDbEntity
  8
254
  6
CONTINUOUS
 62
3
370
9
100
AcDbLine
 10
376.21000713133
 20
23.5895
 30
0.0
 11
376.21000713133
 21
28.5895
 31
0.0
  0
LINE
  5
43
330
17
100
AcDbEntity
  8
254
  6
CONTINUOUS
 62
3
370
9
100
AcDbLine
 10
332.47000713133
 20
23.5895
 30
0.0
 11
332.47000713133
 21
28.5895
 31
0.0
  0
LINE
  5
44
330
17
100
AcDbEntity
  8
254
  6
CONTINUOUS
 62
3
370
9
100
AcDbLine
 10
325.18000713133
 20
23.5895
 30
0.0
 11
325.18000713133
 21
28.5895
 31
0.0
  0
MTEXT
  5
45
330
17
100
AcDbEntity
  8
254
 62
3
370
9
100
AcDbMText
 10
391.83137173292
 20
19.561222878301
 30
0.0
 40
2.916
 41
0.0
 71
7
  1
\T1.000000;å¬êî
  7
GMM001
 44
0.79999984000003
  0
LINE
  5
46
330
17
100
AcDbEntity
  8
1
  6
CONTINUOUS
 62
3
370
9
100
AcDbLine
 10
325.18000713133
 20
25.412
 30
0.0
 11
325.18000713133
 21
4.9999999999998
 31
0.0
  0
MTEXT
  5
47
330
17
100
AcDbEntity
  8
254
 62
3
370
9
100
AcDbMText
 10
319.11745461417
 20
13.591878580434
 30
0.0
 40
2.5274464285714
 41
0.0
 71
7
  1
\T1.000000;REV
  7
GMM004
 44
0.79999984000003
  0
MTEXT
  5
48
330
17
100
AcDbEntity
  8
254
 62
3
370
9
100
AcDbMText
 10
319.11745461417
 20
25.457656387089
 30
0.0
 40
2.5274464285714
 41
0.0
 71
7
  1
\T1.000000;REV
  7
GMM004
 44
0.79999984000003
  0
LINE
  5
49
330
17
100
AcDbEntity
  8
254
  6
CONTINUOUS
 62
3
370
9
100
AcDbLine
 10
317.59766784561
 20
16.794734368391
 30
0.0
 11
317.59766784561
 21
4.9999999999998
 31
0.0
  0
LINE
  5
4A
330
17
100
AcDbEntity
  8
254
  6
CONTINUOUS
 62
3
370
9
100
AcDbLine
 10
317.59766784561
 20
28.589484368391
 30
0.0
 11
317.59766784561
 21
16.79475
 31
0.0
  0
LINE
  5
4B
330
17
100
AcDbEntity
  8
254
  6
CONTINUOUS
 62
3
370
9
100
AcDbLine
 10
317.59766784561
 20
25.472316071428
 30
0.0
 11
325.18000713133
 21
25.472316071428
 31
0.0
  0
LINE
  5
4C
330
17
100
AcDbEntity
  8
254
  6
CONTINUOUS
 62
3
370
9
100
AcDbLine
 10
317.59766784561
 20
13.677566071429
 30
0.0
 11
325.18000713133
 21
13.677566071429
 31
0.0
  0
LINE
  5
4D
330
17
100
AcDbEntity
  8
254
  6
CONTINUOUS
 62
3
370
9
100
AcDbLine
 10
267.71322795736
 20
16.79475
 30
0.0
 11
325.18000713133
 21
16.79475
 31
0.0
  0
TEXT
  5
4E
330
17
100
AcDbEntity
  8
254
 62
3
370
9
100
AcDbText
 10
270.14932182782
 20
14.45637354981
 30
0.0
 40
3.3699285714286
  1
ê}î‘
  7
STANDARD1
 41
0.75
100
AcDbText
  0
LINE
  5
4F
330
17
100
AcDbEntity
  8
254
  6
CONTINUOUS
 62
3
370
9
100
AcDbLine
 10
267.71322795736
 20
4.9999999999998
 30
0.0
 11
267.71322795736
 21
28.5895
 31
0.0
  0
LINE
  5
50
330
17
100
AcDbEntity
  8
1
  6
CONTINUOUS
 62
3
370
9
100
AcDbLine
 10
267.71322795736
 20
28.5895
 30
0.0
 11
267.71322795736
 21
4.9999999999998
 31
0.0
  0
LINE
  5
51
330
17
100
AcDbEntity
  8
254
  6
CONTINUOUS
 62
3
370
9
100
AcDbLine
 10
273.18936188593
 20
4.9999999999998
 30
0.0
 11
273.18936188593
 21
16.79475
 31
0.0
  0
LINE
  5
52
330
17
100
AcDbEntity
  8
254
  6
CONTINUOUS
 62
3
370
9
100
AcDbLine
 10
273.18936188593
 20
16.79475
 30
0.0
 11
273.18936188593
 21
28.5895
 31
0.0
  0
TEXT
  5
53
330
17
100
AcDbEntity
  8
254
 62
3
370
9
100
AcDbText
 10
270.14932182782
 20
27.712778419251
 30
0.0
 40
2.5274464285714
  1
êªçÏî‘çÜ
  7
STANDARD1
100
AcDbText
  0
MTEXT
  5
54
330
17
100
AcDbEntity
  8
254
 62
7
370
20
100
AcDbMText
 10
267.09039456035
 20
6.2412531331843
 30
0.0
 40
4.6226729374878
 41
0.0
 71
9
  1
\T1.000000;ÇãÇá
  7
GMM007
 44
0.79999984000003
  0
LINE
  5
55
330
17
100
AcDbEntity
  8
254
  6
CONTINUOUS
 62
3
370
9
100
AcDbLine
 10
217.16311492467
 20
28.5895
 30
0.0
 11
325.18000713133
 21
28.5895
 31
0.0
  0
LINE
  5
56
330
17
100
AcDbEntity
  8
254
  6
CONTINUOUS
 62
3
370
9
100
AcDbLine
 10
166.43737735483
 20
4.9999999999998
 30
0.0
 11
166.43737735483
 21
12.815804374491
 31
0.0
  0
LINE
  5
57
330
17
100
AcDbEntity
  8
254
  6
CONTINUOUS
 62
3
370
9
100
AcDbLine
 10
166.43737735483
 20
12.815804374491
 30
0.0
 11
166.43737735483
 21
20.631608748982
 31
0.0
  0
LINE
  5
58
330
17
100
AcDbEntity
  8
254
  6
CONTINUOUS
 62
3
370
9
100
AcDbLine
 10
223.30492199768
 20
4.9999999999998
 30
0.0
 11
223.30492199768
 21
28.5895
 31
0.0
  0
LINE
  5
59
330
17
100
AcDbEntity
  8
254
  6
CONTINUOUS
 62
7
370
20
100
AcDbLine
 10
217.82878806911
 20
4.9999999999998
 30
0.0
 11
217.82878806911
 21
28.5895
 31
0.0
  0
LINE
  5
5A
330
17
100
AcDbEntity
  8
254
  6
CONTINUOUS
 62
3
370
9
100
AcDbLine
 10
217.82878806911
 20
4.9999999999998
 30
0.0
 11
217.82878806911
 21
28.5895
 31
0.0
  0
TEXT
  5
5B
330
17
100
AcDbEntity
  8
254
 62
3
370
9
100
AcDbText
 10
220.2355970388
 20
27.408725253101
 30
0.0
 40
2.5274464285714
  1
ïiñº
  7
STANDARD1
100
AcDbText
  0
LINE
  5
5C
330
17
100
AcDbEntity
  8
1
  6
CONTINUOUS
 62
3
370
9
100
AcDbLine
 10
217.82878806911
 20
28.5895
 30
0.0
 11
202.24286842626
 21
28.5895
 31
0.0
  0
LINE
  5
5D
330
17
100
AcDbEntity
  8
254
  6
CONTINUOUS
 62
3
370
9
100
AcDbLine
 10
166.43737735483
 20
20.631608748982
 30
0.0
 11
166.43737735483
 21
28.5895
 31
0.0
  0
LINE
  5
5E
330
17
100
AcDbEntity
  8
1
  6
CONTINUOUS
 62
3
370
9
100
AcDbLine
 10
166.43737735483
 20
28.5895
 30
0.0
 11
202.24286842626
 21
28.5895
 31
0.0
  0
LINE
  5
5F
330
17
100
AcDbEntity
  8
254
  6
CONTINUOUS
 62
3
370
9
100
AcDbLine
 10
217.82878806911
 20
12.863166666667
 30
0.0
 11
267.71322795736
 21
12.863166666667
 31
0.0
  0
LINE
  5
60
330
17
100
AcDbEntity
  8
254
  6
CONTINUOUS
 62
3
370
9
100
AcDbLine
 10
217.82878806911
 20
20.726333333333
 30
0.0
 11
267.71322795736
 21
20.726333333333
 31
0.0
  0
TEXT
  5
61
330
17
100
AcDbEntity
  8
254
 62
3
370
9
100
AcDbText
 10
220.59281442956
 20
11.80382974045
 30
0.0
 40
2.5274464285714
  1
èdó 
  7
STANDARD1
100
AcDbText
  0
TEXT
  5
62
330
17
100
AcDbEntity
  8
254
 62
3
370
9
100
AcDbText
 10
220.63752676512
 20
20.213063918481
 30
0.0
 40
2.5274464285714
  1
ëïíuñº
  7
STANDARD1
100
AcDbText
  0
LINE
  5
63
330
17
100
AcDbEntity
  8
1
  6
CONTINUOUS
 62
3
370
9
100
AcDbLine
 10
92.759851837957
 20
28.5895
 30
0.0
 11
92.759851837957
 21
4.9999999999998
 31
0.0
  0
LINE
  5
64
330
17
100
AcDbEntity
  8
2
  6
CONTINUOUS
 62
3
370
9
100
AcDbLine
 10
166.43737735483
 20
20.726333333333
 30
0.0
 11
182.02329699768
 21
20.726333333333
 31
0.0
  0
TEXT
  5
65
330
17
100
AcDbEntity
  8
254
 62
3
370
9
100
AcDbText
 10
168.38089831337
 20
27.433909723082
 30
0.0
 40
2.5274464285714
  1
é⁄ìx
  7
STANDARD1
100
AcDbText
  0
LINE
  5
66
330
17
100
AcDbEntity
  8
2
  6
CONTINUOUS
 62
3
370
9
100
AcDbLine
 10
166.43737735483
 20
12.863166666667
 30
0.0
 11
182.02329699768
 21
12.863166666667
 31
0.0
  0
MTEXT
  5
67
330
17
100
AcDbEntity
  8
254
 62
7
370
20
100
AcDbMText
 10
176.4152706333
 20
14.58269282434
 30
0.0
 40
4.2124107142857
 41
0.0
 71
8
  1
\T1.000000;Ç`ÇR
  7
GMM008
 44
0.79999984000003
  0
TEXT
  5
68
330
17
100
AcDbEntity
  8
254
 62
3
370
9
100
AcDbText
 10
168.38089831337
 20
19.757672207458
 30
0.0
 40
2.5274464285714
  1
ê}òg
  7
STANDARD1
100
AcDbText
  0
LINE
  5
69
330
17
100
AcDbEntity
  8
254
  6
CONTINUOUS
 62
3
370
9
100
AcDbLine
 10
170.64978806911
 20
28.5895
 30
0.0
 11
170.64978806911
 21
12.863166666667
 31
0.0
  0
INSERT
  5
6A
330
17
100
AcDbEntity
  8
0
100
AcDbBlockReference
  2
BLOCK004
 10
0.0
 20
0.0
 30
0.0
  0
MTEXT
  5
6C
330
17
100
AcDbEntity
  8
254
 62
3
370
9
100
AcDbMText
 10
170.51077147172
 20
5.3410491057923
 30
0.0
 40
1.8490691749951
 41
0.0
 71
7
  1
\T1.000000;ëÊéOäpñ@
  7
GMM001
 44
0.79999984000003
  0
MTEXT
  5
6D
330
17
100
AcDbEntity
  8
254
 62
7
370
20
100
AcDbMText
 10
191.87839303901
 20
6.9539510936227
 30
0.0
 40
4.2124107142857
 41
0.0
 71
8
  1
\T1.000000;ÅñÅñ
  7
GMM008
 44
0.79999984000003
  0
TEXT
  5
6E
330
17
100
AcDbEntity
  8
254
 62
3
370
9
100
AcDbText
 10
184.02331530209
 20
11.916209053108
 30
0.0
 40
2.5274464285714
  1
êRç∏
  7
STANDARD1
100
AcDbText
  0
TEXT
  5
6F
330
17
100
AcDbEntity
  8
254
 62
3
370
9
100
AcDbText
 10
184.08020453162
 20
19.653144268485
 30
0.0
 40
2.5274464285714
  1
çXêV
  7
STANDARD1
100
AcDbText
  0
LINE
  5
70
330
17
100
AcDbEntity
  8
254
  6
CONTINUOUS
 62
3
370
9
100
AcDbLine
 10
197.60921664054
 20
4.9999999999998
 30
0.0
 11
197.60921664054
 21
12.815804374491
 31
0.0
  0
LINE
  5
71
330
17
100
AcDbEntity
  8
254
  6
CONTINUOUS
 62
3
370
9
100
AcDbLine
 10
197.60921664054
 20
12.815804374491
 30
0.0
 11
197.60921664054
 21
20.631608748982
 31
0.0
  0
LINE
  5
72
330
17
100
AcDbEntity
  8
254
  6
CONTINUOUS
 62
3
370
9
100
AcDbLine
 10
186.23570771197
 20
4.9999999999998
 30
0.0
 11
186.23570771197
 21
12.815804374491
 31
0.0
  0
LINE
  5
73
330
17
100
AcDbEntity
  8
254
  6
CONTINUOUS
 62
3
370
9
100
AcDbLine
 10
186.23570771197
 20
12.815804374491
 30
0.0
 11
186.23570771197
 21
20.631608748982
 31
0.0
  0
TEXT
  5
74
330
17
100
AcDbEntity
  8
254
 62
3
370
9
100
AcDbText
 10
183.96642607257
 20
27.532166360389
 30
0.0
 40
2.5274464285714
  1
êªê}
  7
STANDARD1
100
AcDbText
  0
LINE
  5
75
330
17
100
AcDbEntity
  8
254
  6
CONTINUOUS
 62
3
370
9
100
AcDbLine
 10
197.60921664054
 20
20.631608748982
 30
0.0
 11
197.60921664054
 21
28.5895
 31
0.0
  0
LINE
  5
76
330
17
100
AcDbEntity
  8
254
  6
CONTINUOUS
 62
3
370
9
100
AcDbLine
 10
186.23570771197
 20
20.631608748982
 30
0.0
 11
186.23570771197
 21
28.5895
 31
0.0
  0
LINE
  5
77
330
17
100
AcDbEntity
  8
1
  6
CONTINUOUS
 62
3
370
9
100
AcDbLine
 10
182.02329699768
 20
12.863166666667
 30
0.0
 11
217.82878806911
 21
12.863166666667
 31
0.0
  0
LINE
  5
78
330
17
100
AcDbEntity
  8
1
  6
CONTINUOUS
 62
3
370
9
100
AcDbLine
 10
182.02329699768
 20
20.726333333333
 30
0.0
 11
217.82878806911
 21
20.726333333333
 31
0.0
  0
MTEXT
  5
79
330
17
100
AcDbEntity
  8
254
 62
7
370
20
100
AcDbMText
 10
207.70539689736
 20
6.8592265092718
 30
0.0
 40
4.2124107142857
 41
0.0
 71
8
  1
\T1.000000;ÅñÅñÅDÅñÅñÅDÅñÅñ
  7
GMM009
 44
0.79999984000003
  0
LINE
  5
7A
330
17
100
AcDbEntity
  8
254
  6
CONTINUOUS
 62
3
370
9
100
AcDbLine
 10
181.96979638834
 20
12.815804374491
 30
0.0
 11
181.96979638834
 21
20.631608748982
 31
0.0
  0
LINE
  5
7B
330
17
100
AcDbEntity
  8
254
  6
CONTINUOUS
 62
3
370
9
100
AcDbLine
 10
181.96979638834
 20
20.631608748982
 30
0.0
 11
181.96979638834
 21
28.5895
 31
0.0
  0
LINE
  5
7C
330
17
100
AcDbEntity
  8
254
  6
CONTINUOUS
 62
3
370
9
100
AcDbLine
 10
181.96979638834
 20
4.9999999999998
 30
0.0
 11
181.96979638834
 21
12.815804374491
 31
0.0
  0
INSERT
  5
7D
330
17
100
AcDbEntity
  8
0
100
AcDbBlockReference
  2
BLOCK005
 10
0.0
 20
0.0
 30
0.0
  0
POINT
  5
7F
330
17
100
AcDbEntity
  8
1
 62
3
100
AcDbPoint
 10
415.0
 20
4.9999999999998
 30
0.0
  0
LINE
  5
80
330
17
100
AcDbEntity
  8
254
  6
CONTINUOUS
 62
3
370
9
100
AcDbLine
 10
5.0
 20
5.0
 30
0.0
 11
5.0
 21
11.763017397237
 31
0.0
  0
LINE
  5
81
330
17
100
AcDbEntity
  8
254
  6
CONTINUOUS
 62
3
370
9
100
AcDbLine
 10
5.0
 20
11.804
 30
0.0
 11
5.0
 21
18.567017397237
 31
0.0
  0
INSERT
  5
82
330
17
100
AcDbEntity
  8
0
100
AcDbBlockReference
  2
BLOCK006
 10
0.0
 20
0.0
 30
0.0
  0
LINE
  5
84
330
17
100
AcDbEntity
  8
254
  6
CONTINUOUS
 62
3
370
9
100
AcDbLine
 10
12.898270089286
 20
5.0
 30
0.0
 11
12.898270089286
 21
10.861853280869
 31
0.0
  0
LINE
  5
85
330
17
100
AcDbEntity
  8
254
  6
CONTINUOUS
 62
3
370
9
100
AcDbLine
 10
36.593080357143
 20
5.0
 30
0.0
 11
36.593080357143
 21
10.861853280869
 31
0.0
  0
MTEXT
  5
86
330
17
100
AcDbEntity
  8
254
 62
7
370
20
100
AcDbMText
 10
38.413381681514
 20
12.163600656498
 30
0.0
 40
3.1593080357143
 41
0.0
 71
7
  1
\T1.000000;Åñ
  7
GMM008
 44
0.79999984000003
  0
MTEXT
  5
87
330
17
100
AcDbEntity
  8
254
 62
3
370
9
100
AcDbMText
 10
8.9491350446428
 20
6.4071855891086
 30
0.0
 40
3.1593080357143
 41
0.0
 71
8
  1
\T1.000000;ÇqÇdÇu
  7
GMM008
 44
0.79999984000003
  0
MTEXT
  5
88
330
17
100
AcDbEntity
  8
254
 62
3
370
9
100
AcDbMText
 10
17.227619624579
 20
6.4071855891086
 30
0.0
 40
3.1593080357143
 41
0.0
 71
8
  1
\T1.000000;êªê}
  7
GMM008
 44
0.79999984000003
  0
MTEXT
  5
89
330
17
100
AcDbEntity
  8
254
 62
7
370
20
100
AcDbMText
 10
17.1633359375
 20
12.327316601086
 30
0.0
 40
3.1593080357143
 41
0.0
 71
8
  1
\T1.000000;ÅñÅñ
  7
GMM008
 44
0.79999984000003
  0
LINE
  5
8A
330
17
100
AcDbEntity
  8
254
  6
CONTINUOUS
 62
3
370
9
100
AcDbLine
 10
21.428401785714
 20
10.897375
 30
0.0
 11
21.428401785714
 21
16.759228280869
 31
0.0
  0
LINE
  5
8B
330
17
100
AcDbEntity
  8
254
  6
CONTINUOUS
 62
3
370
9
100
AcDbLine
 10
36.593080357143
 20
10.897375
 30
0.0
 11
36.593080357143
 21
16.759228280869
 31
0.0
  0
LINE
  5
8C
330
17
100
AcDbEntity
  8
254
  6
CONTINUOUS
 62
3
370
9
100
AcDbLine
 10
12.898270089286
 20
10.897375
 30
0.0
 11
12.898270089286
 21
16.759228280869
 31
0.0
  0
MTEXT
  5
8D
330
17
100
AcDbEntity
  8
254
 62
3
370
9
100
AcDbMText
 10
43.315724723913
 20
6.4646750653583
 30
0.0
 40
3.1593080357143
 41
0.0
 71
8
  1
\T1.000000;ïœçXì‡óe
  7
GMM008
 44
0.79999984000003
  0
MTEXT
  5
8E
330
17
100
AcDbEntity
  8
254
 62
7
370
20
100
AcDbMText
 10
29.018366611674
 20
12.327316601086
 30
0.0
 40
3.1593080357143
 41
0.0
 71
8
  1
\T1.000000;ÅñÅñÅDÅñÅñÅDÅñÅñ
  7
GMM015
 44
0.79999984000003
  0
MTEXT
  5
8F
330
17
100
AcDbEntity
  8
254
 62
7
370
20
100
AcDbMText
 10
38.413381681514
 20
18.060975656498
 30
0.0
 40
3.1593080357143
 41
0.0
 71
7
  1
\T1.000000;Åñ
  7
GMM008
 44
0.79999984000003
  0
MTEXT
  5
90
330
17
100
AcDbEntity
  8
254
 62
7
370
20
100
AcDbMText
 10
17.1633359375
 20
18.224691601086
 30
0.0
 40
3.1593080357143
 41
0.0
 71
8
  1
\T1.000000;ÅñÅñ
  7
GMM008
 44
0.79999984000003
  0
LINE
  5
91
330
17
100
AcDbEntity
  8
254
  6
CONTINUOUS
 62
3
370
9
100
AcDbLine
 10
21.428401785714
 20
16.79475
 30
0.0
 11
21.428401785714
 21
22.656603280869
 31
0.0
  0
LINE
  5
92
330
17
100
AcDbEntity
  8
254
  6
CONTINUOUS
 62
3
370
9
100
AcDbLine
 10
36.593080357143
 20
16.79475
 30
0.0
 11
36.593080357143
 21
22.656603280869
 31
0.0
  0
LINE
  5
93
330
17
100
AcDbEntity
  8
254
  6
CONTINUOUS
 62
3
370
9
100
AcDbLine
 10
12.898270089286
 20
16.79475
 30
0.0
 11
12.898270089286
 21
22.656603280869
 31
0.0
  0
MTEXT
  5
94
330
17
100
AcDbEntity
  8
254
 62
7
370
20
100
AcDbMText
 10
29.018366611674
 20
18.224691601086
 30
0.0
 40
3.1593080357143
 41
0.0
 71
8
  1
\T1.000000;ÅñÅñÅDÅñÅñÅDÅñÅñ
  7
GMM015
 44
0.79999984000003
  0
LINE
  5
95
330
17
100
AcDbEntity
  8
254
  6
CONTINUOUS
 62
3
370
9
100
AcDbLine
 10
5.0
 20
10.897375
 30
0.0
 11
92.759851837957
 21
10.897375
 31
0.0
  0
LINE
  5
96
330
17
100
AcDbEntity
  8
254
  6
CONTINUOUS
 62
3
370
9
100
AcDbLine
 10
5.0
 20
16.79475
 30
0.0
 11
92.759851837957
 21
16.79475
 31
0.0
  0
LINE
  5
97
330
17
100
AcDbEntity
  8
254
  6
CONTINUOUS
 62
3
370
9
100
AcDbLine
 10
5.0
 20
22.692125
 30
0.0
 11
92.759851837957
 21
22.692125
 31
0.0
  0
MTEXT
  5
98
330
17
100
AcDbEntity
  8
254
 62
7
370
20
100
AcDbMText
 10
38.413381681514
 20
23.958350656497
 30
0.0
 40
3.1593080357143
 41
0.0
 71
7
  1
\T1.000000;Åñ
  7
GMM008
 44
0.79999984000003
  0
MTEXT
  5
99
330
17
100
AcDbEntity
  8
254
 62
7
370
20
100
AcDbMText
 10
17.1633359375
 20
24.122066601086
 30
0.0
 40
3.1593080357143
 41
0.0
 71
8
  1
\T1.000000;ÅñÅñ
  7
GMM008
 44
0.79999984000003
  0
LINE
  5
9A
330
17
100
AcDbEntity
  8
254
  6
CONTINUOUS
 62
3
370
9
100
AcDbLine
 10
21.428401785714
 20
22.692125
 30
0.0
 11
21.428401785714
 21
28.553978280869
 31
0.0
  0
LINE
  5
9B
330
17
100
AcDbEntity
  8
254
  6
CONTINUOUS
 62
3
370
9
100
AcDbLine
 10
36.593080357143
 20
22.692125
 30
0.0
 11
36.593080357143
 21
28.553978280869
 31
0.0
  0
LINE
  5
9C
330
17
100
AcDbEntity
  8
254
  6
CONTINUOUS
 62
3
370
9
100
AcDbLine
 10
12.898270089286
 20
22.692125
 30
0.0
 11
12.898270089286
 21
28.553978280869
 31
0.0
  0
MTEXT
  5
9D
330
17
100
AcDbEntity
  8
254
 62
7
370
20
100
AcDbMText
 10
29.018366611674
 20
24.122066601086
 30
0.0
 40
3.1593080357143
 41
0.0
 71
8
  1
\T1.000000;ÅñÅñÅDÅñÅñÅDÅñÅñ
  7
GMM015
 44
0.79999984000003
  0
LINE
  5
9E
330
17
100
AcDbEntity
  8
254
  6
CONTINUOUS
 62
3
370
9
100
AcDbLine
 10
5.0
 20
28.5895
 30
0.0
 11
92.759851837957
 21
28.5895
 31
0.0
  0
INSERT
  5
9F
330
17
100
AcDbEntity
  8
0
100
AcDbBlockReference
  2
BLOCK007
 10
0.0
 20
0.0
 30
0.0
  0
LINE
  5
A1
330
17
100
AcDbEntity
  8
254
  6
CONTINUOUS
 62
3
370
9
100
AcDbLine
 10
5.0
 20
18.526034794474
 30
0.0
 11
5.0
 21
28.5895
 31
0.0
  0
LINE
  5
A2
330
17
100
AcDbEntity
  8
254
  6
CONTINUOUS
 62
3
370
9
100
AcDbLine
 10
325.18000713133
 20
28.5895
 30
0.0
 11
415.0
 21
28.5895
 31
0.0
  0
MTEXT
  5
A3
330
17
100
AcDbEntity
  8
254
 62
7
370
20
100
AcDbMText
 10
383.87898754983
 20
24.45606176625
 30
0.0
 40
3.2
 41
0.0
 71
8
  1
\T1.000000;Åñ
  7
GMM003
 44
0.79999984000003
  0
CIRCLE
  5
A4
330
17
100
AcDbEntity
  8
254
  6
CONTINUOUS
 62
3
370
9
100
AcDbCircle
 10
19.323632491628
 20
278.8442948685
 30
0.0
 40
10.0
  0
ARC
  5
13E
330
17
100
AcDbEntity
  8
0
  6
Continuous
 62
7
370
25
100
AcDbCircle
 10
184.11522368910002
 20
132.67993439770004
 30
0.0
 40
4.75
100
AcDbArc
 50
180.0
 51
0.0
  0
LINE
  5
13F
330
17
100
AcDbEntity
  8
0
  6
Continuous
 62
7
370
25
100
AcDbLine
 10
196.61522368910002
 20
145.1799343977
 30
0.0
 11
171.61522368910002
 21
145.1799343977
 31
0.0
  0
LINE
  5
140
330
17
100
AcDbEntity
  8
0
  6
Continuous
 62
7
370
25
100
AcDbLine
 10
171.61522368910002
 20
145.1799343977
 30
0.0
 11
171.61522368910002
 21
120.17993439770004
 31
0.0
  0
LINE
  5
141
330
17
100
AcDbEntity
  8
0
  6
Continuous
 62
7
370
25
100
AcDbLine
 10
171.61522368910002
 20
120.17993439770004
 30
0.0
 11
196.61522368910002
 21
120.17993439770004
 31
0.0
  0
ARC
  5
142
330
17
100
AcDbEntity
  8
0
  6
Continuous
 62
7
370
25
100
AcDbCircle
 10
184.11522368910002
 20
132.67993439770004
 30
0.0
 40
4.75
100
AcDbArc
 50
0.0
 51
180.0
  0
LINE
  5
143
330
17
100
AcDbEntity
  8
0
  6
Continuous
 62
7
370
25
100
AcDbLine
 10
196.61522368910002
 20
120.17993439770004
 30
0.0
 11
196.61522368910002
 21
145.1799343977
 31
0.0
  0
ARC
  5
144
330
17
100
AcDbEntity
  8
0
  6
Continuous
 62
7
370
25
100
AcDbCircle
 10
184.11522368910002
 20
132.67993439770004
 30
0.0
 40
2.75
100
AcDbArc
 50
180.0
 51
0.0
  0
ARC
  5
145
330
17
100
AcDbEntity
  8
0
  6
Continuous
 62
7
370
25
100
AcDbCircle
 10
184.11522368910002
 20
132.67993439770004
 30
0.0
 40
2.75
100
AcDbArc
 50
0.0
 51
180.0
  0
LINE
  5
146
330
17
100
AcDbEntity
  8
0
  6
Continuous
 62
7
370
25
100
AcDbLine
 10
196.61522368910002
 20
167.5
 30
0.0
 11
171.61522368910002
 21
167.5
 31
0.0
  0
LINE
  5
147
330
17
100
AcDbEntity
  8
0
  6
Continuous
 62
7
370
25
100
AcDbLine
 10
171.61522368910002
 20
167.5
 30
0.0
 11
171.61522368910002
 21
194.5
 31
0.0
  0
LINE
  5
148
330
17
100
AcDbEntity
  8
0
  6
Continuous
 62
7
370
25
100
AcDbLine
 10
196.61522368910002
 20
194.5
 30
0.0
 11
171.61522368910002
 21
194.5
 31
0.0
  0
LINE
  5
149
330
17
100
AcDbEntity
  8
0
  6
Continuous
 62
7
370
25
100
AcDbLine
 10
196.61522368910002
 20
167.5
 30
0.0
 11
196.61522368910002
 21
194.5
 31
0.0
  0
LINE
  5
14A
330
17
100
AcDbEntity
  8
0
  6
HIDDEN
 62
7
370
18
100
AcDbLine
 10
188.86522368910002
 20
179.5
 30
0.0
 11
188.86522368910002
 21
167.5
 31
0.0
  0
LINE
  5
14B
330
17
100
AcDbEntity
  8
0
  6
HIDDEN
 62
7
370
18
100
AcDbLine
 10
179.36522368910002
 20
179.5
 30
0.0
 11
179.36522368910002
 21
167.5
 31
0.0
  0
LINE
  5
14C
330
17
100
AcDbEntity
  8
0
  6
HIDDEN
 62
7
370
18
100
AcDbLine
 10
188.86522368910002
 20
179.5
 30
0.0
 11
179.36522368910002
 21
179.5
 31
0.0
  0
LINE
  5
14D
330
17
100
AcDbEntity
  8
0
  6
HIDDEN
 62
7
370
18
100
AcDbLine
 10
181.36522368910002
 20
179.5
 30
0.0
 11
181.36522368910002
 21
194.5
 31
0.0
  0
LINE
  5
14E
330
17
100
AcDbEntity
  8
0
  6
HIDDEN
 62
7
370
18
100
AcDbLine
 10
186.86522368910002
 20
179.5
 30
0.0
 11
186.86522368910002
 21
194.5
 31
0.0
  0
LINE
  5
14F
330
17
100
AcDbEntity
  8
0
  6
Continuous
 62
7
370
25
100
AcDbLine
 10
216.5
 20
120.17993439770004
 30
0.0
 11
243.5
 21
120.17993439770004
 31
0.0
  0
LINE
  5
150
330
17
100
AcDbEntity
  8
0
  6
Continuous
 62
7
370
25
100
AcDbLine
 10
216.5
 20
120.17993439770004
 30
0.0
 11
216.5
 21
145.1799343977
 31
0.0
  0
LINE
  5
151
330
17
100
AcDbEntity
  8
0
  6
Continuous
 62
7
370
25
100
AcDbLine
 10
216.5
 20
145.1799343977
 30
0.0
 11
243.5
 21
145.1799343977
 31
0.0
  0
LINE
  5
152
330
17
100
AcDbEntity
  8
0
  6
Continuous
 62
7
370
25
100
AcDbLine
 10
243.5
 20
120.17993439770004
 30
0.0
 11
243.5
 21
145.1799343977
 31
0.0
  0
LINE
  5
153
330
17
100
AcDbEntity
  8
0
  6
HIDDEN
 62
7
370
18
100
AcDbLine
 10
228.5
 20
132.67993439770004
 30
0.0
 11
228.5
 21
137.42993439770004
 31
0.0
  0
LINE
  5
154
330
17
100
AcDbEntity
  8
0
  6
HIDDEN
 62
7
370
18
100
AcDbLine
 10
228.5
 20
127.92993439770004
 30
0.0
 11
228.5
 21
132.67993439770004
 31
0.0
  0
LINE
  5
155
330
17
100
AcDbEntity
  8
0
  6
HIDDEN
 62
7
370
18
100
AcDbLine
 10
228.5
 20
137.42993439770004
 30
0.0
 11
216.5
 21
137.42993439770004
 31
0.0
  0
LINE
  5
156
330
17
100
AcDbEntity
  8
0
  6
HIDDEN
 62
7
370
18
100
AcDbLine
 10
216.5
 20
127.92993439770004
 30
0.0
 11
228.5
 21
127.92993439770004
 31
0.0
  0
LINE
  5
157
330
17
100
AcDbEntity
  8
0
  6
HIDDEN
 62
7
370
18
100
AcDbLine
 10
243.5
 20
135.42993439770004
 30
0.0
 11
228.5
 21
135.42993439770004
 31
0.0
  0
LINE
  5
158
330
17
100
AcDbEntity
  8
0
  6
HIDDEN
 62
7
370
18
100
AcDbLine
 10
228.5
 20
129.92993439770004
 30
0.0
 11
243.5
 21
129.92993439770004
 31
0.0
  0
LINE
  5
159
330
17
100
AcDbEntity
  8
0
  6
Continuous
 62
7
370
25
100
AcDbLine
 10
229.29289321880003
 20
160.17993439769998
 30
0.0
 11
248.3847763109
 21
171.20144390730002
 31
0.0
  0
LINE
  5
15A
330
17
100
AcDbEntity
  8
0
  6
Continuous
 62
7
370
25
100
AcDbLine
 10
229.29289321880003
 20
160.17993439769998
 30
0.0
 11
229.29289321880003
 21
180.5934546949
 31
0.0
  0
LINE
  5
15B
330
17
100
AcDbEntity
  8
0
  6
Continuous
 62
7
370
25
100
AcDbLine
 10
229.29289321880003
 20
180.5934546949
 30
0.0
 11
248.3847763109
 21
191.61496420449998
 31
0.0
  0
LINE
  5
15C
330
17
100
AcDbEntity
  8
0
  6
Continuous
 62
7
370
25
100
AcDbLine
 10
248.3847763109
 20
171.20144390730002
 30
0.0
 11
248.3847763109
 21
191.61496420449998
 31
0.0
  0
LINE
  5
15D
330
17
100
AcDbEntity
  8
0
  6
Continuous
 62
7
370
25
100
AcDbLine
 10
211.6152236891
 20
170.38503579550002
 30
0.0
 11
229.29289321880003
 21
160.17993439769998
 31
0.0
  0
LINE
  5
15E
330
17
100
AcDbEntity
  8
0
  6
Continuous
 62
7
370
25
100
AcDbLine
 10
211.6152236891
 20
190.79855609269998
 30
0.0
 11
211.6152236891
 21
170.38503579550002
 31
0.0
  0
LINE
  5
15F
330
17
100
AcDbEntity
  8
0
  6
Continuous
 62
7
370
25
100
AcDbLine
 10
229.29289321880003
 20
180.5934546949
 30
0.0
 11
211.6152236891
 21
190.79855609269998
 31
0.0
  0
LWPOLYLINE
  5
160
330
17
100
AcDbEntity
  8
0
  6
Continuous
 62
7
370
25
100
AcDbPolyline
 90
40
 70
128
 10
217.0953012433
 20
177.4282145108
 10
217.106192658
 20
177.10983190349998
 10
217.13879626710002
 20
176.78093916990002
 10
217.1929006236
 20
176.4436693055
 10
217.26815484000002
 20
176.10020963480002
 10
217.36407086399998
 20
175.75278762559998
 10
217.48002664310002
 20
175.403656443
 10
217.6152701598
 20
175.05508033659999
 10
217.76892430790002
 20
174.70931995619998
 10
217.93999258130003
 20
174.3686176906
 10
218.1273655366
 20
174.03518312469998
 10
218.32982798839998
 20
173.7111787096
 10
218.5460668898
 20
173.3987057383
 10
218.77467984870003
 20
173.099790718
 10
219.01418422220002
 20
172.81637222710003
 10
219.26302673269998
 20
172.55028834339998
 10
219.51959354090002
 20
172.30326472299998
 10
219.7822207127
 20
172.07690340890002
 10
220.04920500999998
 20
171.87267244100002
 10
220.31881493730003
 20
171.69189633550002
 10
220.58930197069998
 20
171.53574749490002
 10
220.8589118979
 20
171.4052386042
 10
221.12589619530002
 20
171.30121606379998
 10
221.388523367
 20
171.22435449969998
 10
221.64509017530003
 20
171.1751523886
 10
221.8939326857
 20
171.1539288252
 10
222.13343705929998
 20
171.1608214524
 10
222.36205001820002
 20
171.19578556879998
 10
222.57828891960003
 20
171.2585944188
 10
222.78075137130003
 20
171.3488406628
 10
222.9681243266
 20
171.46593901929998
 10
223.1391926001
 20
171.60913006049998
 10
223.29284674820002
 20
171.7774851377
 10
223.4280902648
 20
171.96991240350002
 10
223.54404604400003
 20
172.1851638932
 10
223.6399620679
 20
172.42184361840003
 10
223.71521628440001
 20
172.67841662019998
 10
223.7693206409
 20
172.95321892420003
 10
223.80192424990003
 20
173.24446833209998
 10
223.8128156646
 20
173.55027597960003
  0
LWPOLYLINE
  5
161
330
17
100
AcDbEntity
  8
0
  6
Continuous
 62
7
370
25
100
AcDbPolyline
 90
40
 70
128
 10
223.8128156646
 20
173.55027597960003
 10
223.80192424990003
 20
173.86865858689998
 10
223.7693206409
 20
174.1975513205
 10
223.71521628440001
 20
174.5348211849
 10
223.6399620679
 20
174.8782808556
 10
223.54404604400003
 20
175.22570286479998
 10
223.4280902648
 20
175.57483404740003
 10
223.29284674820002
 20
175.92341015379998
 10
223.1391926001
 20
176.2691705342
 10
222.9681243266
 20
176.60987279980003
 10
222.78075137130003
 20
176.94330736569998
 10
222.57828891960003
 20
177.26731178080001
 10
222.36205001820002
 20
177.57978475200002
 10
222.13343705929998
 20
177.8786997724
 10
221.8939326857
 20
178.1621182633
 10
221.64509017530003
 20
178.42820214699998
 10
221.388523367
 20
178.67522576739998
 10
221.12589619530002
 20
178.9015870815
 10
220.8589118979
 20
179.1058180494
 10
220.58930197069998
 20
179.2865941549
 10
220.31881493730003
 20
179.4427429955
 10
220.04920500999998
 20
179.5732518862
 10
219.7822207127
 20
179.67727442659998
 10
219.51959354090002
 20
179.75413599069998
 10
219.26302673269998
 20
179.80333810180002
 10
219.01418422220002
 20
179.8245616652
 10
218.77467984870003
 20
179.81766903800002
 10
218.5460668898
 20
179.7827049216
 10
218.32982798839998
 20
179.71989607160003
 10
218.1273655366
 20
179.62964982760002
 10
217.93999258130003
 20
179.51255147109998
 10
217.76892430790002
 20
179.36936042989998
 10
217.6152701598
 20
179.2010053527
 10
217.48002664310002
 20
179.0085780869
 10
217.36407086399998
 20
178.7933265972
 10
217.26815484000002
 20
178.556646872
 10
217.1929006236
 20
178.30007387019998
 10
217.13879626710002
 20
178.0252715662
 10
217.106192658
 20
177.73402215829998
 10
217.0953012433
 20
177.4282145108
  0
LINE
  5
162
330
17
100
AcDbEntity
  8
0
  6
Continuous
 62
7
370
25
100
AcDbLine
 10
211.6152236891
 20
190.79855609269998
 30
0.0
 11
230.70710678120003
 21
201.82006560230002
 31
0.0
  0
LINE
  5
163
330
17
100
AcDbEntity
  8
0
  6
Continuous
 62
7
370
25
100
AcDbLine
 10
248.3847763109
 20
191.61496420449998
 30
0.0
 11
230.70710678120003
 21
201.82006560230002
 31
0.0
  0
LWPOLYLINE
  5
164
330
17
100
AcDbEntity
  8
0
  6
HIDDEN
 62
7
370
18
100
AcDbPolyline
 90
40
 70
128
 10
232.29809703889998
 20
178.4487246506
 10
232.2872056242
 20
178.76710725779998
 10
232.25460201509998
 20
179.09599999149998
 10
232.2004976586
 20
179.4332698558
 10
232.12524344220003
 20
179.7767295265
 10
232.0293274182
 20
180.12415153569998
 10
231.91337163909998
 20
180.47328271830003
 10
231.7781281224
 20
180.82185882480002
 10
231.62447397430003
 20
181.16761920509998
 10
231.45340570090002
 20
181.50832147070003
 10
231.2660327456
 20
181.84175603660003
 10
231.0635702938
 20
182.1657604517
 10
230.8473313924
 20
182.478233423
 10
230.61871843350002
 20
182.7771484434
 10
230.37921405999998
 20
183.06056693419998
 10
230.1303715495
 20
183.32665081790003
 10
229.87380474129998
 20
183.57367443830003
 10
229.6111775695
 20
183.8000357524
 10
229.34419327220002
 20
184.0042667203
 10
229.07458334490002
 20
184.1850428258
 10
228.80409631150002
 20
184.34119166649998
 10
228.5344863843
 20
184.4717005571
 10
228.26750208689998
 20
184.57572309750003
 10
228.0048749152
 20
184.65258466170002
 10
227.74830810690003
 20
184.70178677270002
 10
227.4994655965
 20
184.7230103361
 10
227.25996122290002
 20
184.71611770890001
 10
227.03134826400003
 20
184.68115359249998
 10
226.81510936260003
 20
184.61834474260002
 10
226.61264691090003
 20
184.5280984986
 10
226.4252739556
 20
184.41100014210002
 10
226.2542056821
 20
184.26780910079998
 10
226.10055153400003
 20
184.0994540236
 10
225.9653080174
 20
183.90702675789998
 10
225.84935223820003
 20
183.6917752681
 10
225.7534362143
 20
183.45509554289998
 10
225.67818199779998
 20
183.19852254120002
 10
225.6240776413
 20
182.92372023709999
 10
225.59147403230003
 20
182.63247082930002
 10
225.5805826176
 20
182.32666318169998
  0
LWPOLYLINE
  5
165
330
17
100
AcDbEntity
  8
0
  6
HIDDEN
 62
7
370
18
100
AcDbPolyline
 90
40
 70
128
 10
225.5805826176
 20
182.32666318169998
 10
225.59147403230003
 20
182.00828057440003
 10
225.6240776413
 20
181.67938784080002
 10
225.67818199779998
 20
181.3421179764
 10
225.7534362143
 20
180.9986583058
 10
225.84935223820003
 20
180.65123629660002
 10
225.9653080174
 20
180.30210511389998
 10
226.10055153400003
 20
179.95352900749998
 10
226.2542056821
 20
179.60776862710003
 10
226.4252739556
 20
179.26706636149999
 10
226.61264691090003
 20
178.93363179559998
 10
226.81510936260003
 20
178.6096273806
 10
227.03134826400003
 20
178.2971544093
 10
227.25996122290002
 20
177.9982393889
 10
227.4994655965
 20
177.71482089800003
 10
227.74830810690003
 20
177.44873701440002
 10
228.0048749152
 20
177.20171339400002
 10
228.26750208689998
 20
176.97535207980002
 10
228.5344863843
 20
176.77112111190002
 10
228.80409631150002
 20
176.5903450064
 10
229.07458334490002
 20
176.43419616580002
 10
229.34419327220002
 20
176.3036872751
 10
229.6111775695
 20
176.19966473469998
 10
229.87380474129998
 20
176.12280317059998
 10
230.1303715495
 20
176.07360105959998
 10
230.37921405999998
 20
176.0523774962
 10
230.61871843350002
 20
176.0592701233
 10
230.8473313924
 20
176.09423423970003
 10
231.0635702938
 20
176.15704308969998
 10
231.2660327456
 20
176.2472893337
 10
231.45340570090002
 20
176.36438769020003
 10
231.62447397430003
 20
176.50757873150002
 10
231.7781281224
 20
176.6759338086
 10
231.91337163909998
 20
176.8683610744
 10
232.0293274182
 20
177.0836125641
 10
232.12524344220003
 20
177.32029228930003
 10
232.2004976586
 20
177.57686529109998
 10
232.25460201509998
 20
177.85166759510003
 10
232.2872056242
 20
178.14291700299998
 10
232.29809703889998
 20
178.4487246506
  0
LINE
  5
166
330
17
100
AcDbEntity
  8
0
  6
HIDDEN
 62
7
370
18
100
AcDbLine
 10
211.6152236891
 20
170.38503579550002
 30
0.0
 11
230.70710678120003
 21
181.4065453051
 31
0.0
  0
LINE
  5
167
330
17
100
AcDbEntity
  8
0
  6
HIDDEN
 62
7
370
18
100
AcDbLine
 10
230.70710678120003
 20
201.82006560230002
 30
0.0
 11
230.70710678120003
 21
181.4065453051
 31
0.0
  0
LINE
  5
168
330
17
100
AcDbEntity
  8
0
  6
HIDDEN
 62
7
370
18
100
AcDbLine
 10
230.70710678120003
 20
181.4065453051
 30
0.0
 11
248.3847763109
 21
171.20144390730002
 31
0.0
  0
LWPOLYLINE
  5
169
330
17
100
AcDbEntity
  8
0
  6
HIDDEN
 62
7
370
18
100
AcDbPolyline
 90
30
 70
128
 10
230.8838834765
 20
179.26513276240001
 10
230.8724844783
 20
179.51449313940003
 10
230.8384211266
 20
179.7740909972
 10
230.782092783
 20
180.0408827882
 10
230.7041598459
 20
180.31174062259998
 10
230.6055360076
 20
180.5834889399
 10
230.48737754260003
 20
180.8529417396
 10
230.3510697507
 20
181.11693993390003
 10
230.19821071630003
 20
181.37238838540003
 10
230.03059257170003
 20
181.61629219460002
 10
229.8501804864
 20
181.8457918122
 10
229.6590896272
 20
182.05819656519998
 10
229.4595603596
 20
182.25101620200002
 10
229.25393198199998
 20
182.4219900887
 10
229.044615299
 20
182.56911371270002
 10
228.8340643574
 20
182.69066218400002
 10
228.6247476744
 20
182.78521045809998
 10
228.41911929679998
 20
182.85165004280003
 10
228.21959002929998
 20
182.8892019947
 10
228.02849917010002
 20
182.89742605150002
 10
227.8480870848
 20
182.87622579370003
 10
227.6804689402
 20
182.8258497749
 10
227.5276099057
 20
182.74688860790002
 10
227.3913021139
 20
182.6402680402
 10
227.2731436488
 20
182.5072381005
 10
227.17451981060003
 20
182.34935844310002
 10
227.09658687339999
 20
182.1684800626
 10
227.04025852990003
 20
181.9667235928
 10
227.00619517810003
 20
181.74645444380002
 10
226.99479617999998
 20
181.51025506989998
  0
LWPOLYLINE
  5
16A
330
17
100
AcDbEntity
  8
0
  6
HIDDEN
 62
7
370
18
100
AcDbPolyline
 90
30
 70
128
 10
226.99479617999998
 20
181.51025506989998
 10
227.00619517810003
 20
181.26089469279998
 10
227.04025852990003
 20
181.001296835
 10
227.09658687339999
 20
180.734505044
 10
227.17451981060003
 20
180.4636472097
 10
227.2731436488
 20
180.1918988924
 10
227.3913021139
 20
179.9224460927
 10
227.5276099057
 20
179.65844789840003
 10
227.6804689402
 20
179.40299944690003
 10
227.8480870848
 20
179.15909563769998
 10
228.02849917010002
 20
178.92959602000002
 10
228.21959002929998
 20
178.71719126700003
 10
228.41911929679998
 20
178.5243716302
 10
228.6247476744
 20
178.3533977436
 10
228.8340643574
 20
178.20627411959998
 10
229.044615299
 20
178.0847256482
 10
229.25393198199998
 20
177.99017737420002
 10
229.4595603596
 20
177.92373778950002
 10
229.6590896272
 20
177.8861858376
 10
229.8501804864
 20
177.87796178079998
 10
230.03059257170003
 20
177.89916203860002
 10
230.19821071630003
 20
177.9495380573
 10
230.3510697507
 20
178.0284992243
 10
230.48737754260003
 20
178.135119792
 10
230.6055360076
 20
178.2681497318
 10
230.7041598459
 20
178.42602938919998
 10
230.782092783
 20
178.6069077696
 10
230.8384211266
 20
178.8086642394
 10
230.8724844783
 20
179.02893338849998
 10
230.8838834765
 20
179.26513276240001
  0
LWPOLYLINE
  5
16B
330
17
100
AcDbEntity
  8
0
  6
HIDDEN
 62
7
370
18
100
AcDbPolyline
 90
30
 70
128
 10
241.4904851943
 20
185.388193601
 10
241.4790861961
 20
185.63755397810002
 10
241.4450228444
 20
185.8971518359
 10
241.3886945008
 20
186.1639436269
 10
241.3107615637
 20
186.43480146130003
 10
241.2121377254
 20
186.7065497786
 10
241.09397926039998
 20
186.9760025782
 10
240.9576714685
 20
187.24000077250003
 10
240.80481243410003
 20
187.4954492241
 10
240.63719428950003
 20
187.73935303320002
 10
240.4567822042
 20
187.96885265090003
 10
240.265691345
 20
188.18125740390002
 10
240.0661620774
 20
188.3740770407
 10
239.8605336998
 20
188.5450509273
 10
239.6512170168
 20
188.6921745513
 10
239.4406660752
 20
188.8137230227
 10
239.2313493922
 20
188.90827129680002
 10
239.02572101459998
 20
188.97471088140003
 10
238.82619174709998
 20
189.01226283329999
 10
238.63510088790002
 20
189.0204868902
 10
238.4546888026
 20
188.99928663240001
 10
238.287070658
 20
188.9489106136
 10
238.1342116235
 20
188.8699494466
 10
237.9979038317
 20
188.76332887889998
 10
237.8797453666
 20
188.6302989391
 10
237.78112152839998
 20
188.4724192817
 10
237.7031885912
 20
188.29154090129998
 10
237.6468602476
 20
188.0897844315
 10
237.61279689590003
 20
187.8695152825
 10
237.60139789779998
 20
187.63331590860003
  0
LWPOLYLINE
  5
16C
330
17
100
AcDbEntity
  8
0
  6
HIDDEN
 62
7
370
18
100
AcDbPolyline
 90
30
 70
128
 10
237.60139789779998
 20
187.63331590860003
 10
237.61279689590003
 20
187.38395553150002
 10
237.6468602476
 20
187.1243576737
 10
237.7031885912
 20
186.8575658827
 10
237.78112152839998
 20
186.5867080483
 10
237.8797453666
 20
186.314959731
 10
237.9979038317
 20
186.04550693139998
 10
238.1342116235
 20
185.7815087371
 10
238.287070658
 20
185.52606028550002
 10
238.4546888026
 20
185.28215647640002
 10
238.63510088790002
 20
185.0526568587
 10
238.82619174709998
 20
184.84025210570002
 10
239.02572101459998
 20
184.64743246889998
 10
239.2313493922
 20
184.47645858229998
 10
239.4406660752
 20
184.32933495830002
 10
239.6512170168
 20
184.20778648689998
 10
239.8605336998
 20
184.1132382129
 10
240.0661620774
 20
184.0467986282
 10
240.265691345
 20
184.0092466763
 10
240.4567822042
 20
184.00102261950002
 10
240.63719428950003
 20
184.02222287720002
 10
240.80481243410003
 20
184.072598896
 10
240.9576714685
 20
184.15156006299998
 10
241.09397926039998
 20
184.2581806307
 10
241.2121377254
 20
184.3912105705
 10
241.3107615637
 20
184.54909022790002
 10
241.3886945008
 20
184.7299686083
 10
241.4450228444
 20
184.9317250781
 10
241.4790861961
 20
185.15199422709998
 10
241.4904851943
 20
185.388193601
  0
LINE
  5
16D
330
17
100
AcDbEntity
  8
0
  6
HIDDEN
 62
7
370
18
100
AcDbLine
 10
226.56453283820002
 20
184.50142601240003
 30
0.0
 11
218.07925146399998
 21
179.60297734149998
 31
0.0
  0
LINE
  5
16E
330
17
100
AcDbEntity
  8
0
  6
HIDDEN
 62
7
370
18
100
AcDbLine
 10
222.82886544400003
 20
171.37551314889998
 30
0.0
 11
231.31414681820002
 21
176.27396181979998
 31
0.0
  0
LINE
  5
16F
330
17
100
AcDbEntity
  8
0
  6
HIDDEN
 62
7
370
18
100
AcDbLine
 10
238.17105328859998
 20
188.89238912640002
 30
0.0
 11
227.56445157080003
 21
182.76932828769998
 31
0.0
  0
LINE
  5
170
330
17
100
AcDbEntity
  8
0
  6
HIDDEN
 62
7
370
18
100
AcDbLine
 10
230.3142280856
 20
178.00605954460002
 30
0.0
 11
240.9208298034
 21
184.1291203833
 31
0.0
  0
MTEXT
  5
171
330
17
100
AcDbEntity
  8
0
100
AcDbMText
 10
224.477
 20
22.51
 30
0.0
 40
4.2124
 71
7
  1
\T1.000000;ÉNÉbÉVÉáÉì
  7
GMM008
  0
MTEXT
  5
172
330
17
100
AcDbEntity
  8
0
100
AcDbMText
 10
224.477
 20
14.877
 30
0.0
 40
4.2124
 71
7
  1
\T1.000000;ëñçsé≤
  7
GMM008
  0
MTEXT
  5
173
330
17
100
AcDbEntity
  8
0
100
AcDbMText
 10
273.605
 20
20.498
 30
0.0
 40
4.2124
 71
7
  1
\T1.000000;Ç`ÇtÇsÇnÅ|ÇOÇOÇP
  7
GMM008
  0
MTEXT
  5
174
330
17
100
AcDbEntity
  8
0
100
AcDbMText
 10
191.878
 20
22.586
 30
0.0
 40
4.2124
 71
8
  1
\T1.000000;Ç`Çh
  7
GMM008
  0
MTEXT
  5
175
330
17
100
AcDbEntity
  8
0
100
AcDbMText
 10
207.705
 20
22.586
 30
0.0
 40
4.2124
 71
8
  1
\T1.000000;ÇQÇUÅDÇOÇWÅDÇPÇO
  7
GMM009
  0
MTEXT
  5
176
330
17
100
AcDbEntity
  8
0
100
AcDbMText
 10
207.705
 20
14.722
 30
0.0
 40
4.2124
 71
8
  1
\T1.000000;ÅñÅñÅDÅñÅñÅDÅñÅñ
  7
GMM009
  0
MTEXT
  5
178
330
17
100
AcDbEntity
  8
0
100
AcDbMText
 10
176.415
 20
22.446
 30
0.0
 40
4.2124
 71
8
  1
\T1.000000;ÇPÅFÇP
  7
VF001
  0
MTEXT
  5
17A
330
17
100
AcDbEntity
  8
0
100
AcDbMText
 10
19.324
 20
275.03
 30
0.0
 40
7.0
 71
8
  1
\T1.000000;ÇOÇP
  7
VF002
  0
MTEXT
  5
17B
330
17
100
AcDbEntity
  8
0
100
AcDbMText
 10
33.595
 20
280.001
 30
0.0
 40
7.0
 71
4
  1
\T1.000000;çﬁéøÅ@ÇlÇbÉiÉCÉçÉìÅ@äpÇQÇT\P\T1.000000;å¬êîÅ@ÇP
  7
VF001
  0
MTEXT
  5
17C
330
17
100
AcDbEntity
  8
0
100
AcDbMText
 10
224.593
 20
6.704
 30
0.0
 40
4.2124107142857
 71
7
  1
\T1.000000;ÇOÅDÇOÇQ
  7
GMM008
  0
DIMENSION
  5
188
330
17
100
AcDbEntity
  8
1
100
AcDbDimension
  2
*D1
  3
GEN001
 10
171.61522368914976
 20
104.17993439770004
 30
0.0
 11
184.11522368914976
 21
106.67993439770004
 31
0.0
 70
32
 71
5
  1
<>
100
AcDbAlignedDimension
 13
171.61522368914976
 23
120.17993439773295
 33
0.0
 14
196.61522368914976
 24
120.17993439773295
 34
0.0
 50
0.0
100
AcDbRotatedDimension
  0
DIMENSION
  5
198
330
17
100
AcDbEntity
  8
1
100
AcDbDimension
  2
*D2
  3
GEN002
 10
155.61522368910002
 20
120.17993439773295
 30
0.0
 11
153.11522368910002
 21
132.67993439773295
 31
0.0
 70
32
 71
5
  1
<>
100
AcDbAlignedDimension
 13
171.61522368914976
 23
120.17993439773295
 33
0.0
 14
171.61522368914976
 24
145.17993439773298
 34
0.0
 50
90.0
100
AcDbRotatedDimension
  0
DIMENSION
  5
1A8
330
17
100
AcDbEntity
  8
1
100
AcDbDimension
  2
*D3
  3
GEN003
 10
243.5
 20
104.17993439770004
 30
0.0
 11
230.0
 21
101.67993439770004
 31
0.0
 70
32
 71
5
  1
<>
100
AcDbAlignedDimension
 13
243.5
 23
120.17993439773295
 33
0.0
 14
216.5
 24
120.17993439773295
 34
0.0
 50
0.0
100
AcDbRotatedDimension
  0
LEADER
  5
1B8
330
17
100
AcDbEntity
  8
1
100
AcDbLeader
  3
GENLDR
 73
3
 76
3
 10
187.47412258914974
 20
136.03883329773296
 30
0.0
 10
200.00022368914975
 20
151.99993439773297
 30
0.0
 10
210.00022368914975
 20
151.99993439773297
 30
0.0
  0
MTEXT
  5
1B9
330
17
100
AcDbEntity
  8
1
100
AcDbMText
 10
211.00022368914975
 20
151.99993439773297
 30
0.0
 40
4.0
 71
7
  1
\A1;ÇTÅDÇTÉLÉäÅ@ÉUÉOÉä%%cÇXÅDÇTê[Ç≥ÇPÇQ
  7
VF003
  0
MTEXT
  5
1BA
330
17
100
AcDbEntity
  8
0
100
AcDbMText
 10
295.0
 20
75.0
 30
0.0
 40
3.5
 71
1
  1
íçãLÅD\PÅ@éwé¶ñ≥Ç´äpïîÇÕÇbÇOÅDÇQÅAã˜ïîÇÕÇqÇQà»â∫Ç∆Ç∑ÇÈÅB
  7
VF003
  0
ENDSEC
  0
SECTION
  2
OBJECTS
  0
DICTIONARY
  5
A
330
0
100
AcDbDictionary
281
1
  3
ACAD_COLOR
350
B
  3
ACAD_GROUP
350
C
  3
ACAD_LAYOUT
350
D
  3
ACAD_MATERIAL
350
E
  3
ACAD_MLEADERSTYLE
350
F
  3
ACAD_MLINESTYLE
350
10
  3
ACAD_PLOTSETTINGS
350
11
  3
ACAD_PLOTSTYLENAME
350
12
  3
ACAD_SCALELIST
350
14
  3
ACAD_TABLESTYLE
350
15
  3
ACAD_VISUALSTYLE
350
16
  3
EZDXF_META
350
2D
  0
DICTIONARY
  5
B
330
A
100
AcDbDictionary
281
1
  0
DICTIONARY
  5
C
330
A
100
AcDbDictionary
281
1
  0
DICTIONARY
  5
D
330
A
100
AcDbDictionary
281
1
  3
Model
350
1A
  3
Layout1
350
1E
  0
DICTIONARY
  5
E
330
A
100
AcDbDictionary
281
1
  3
ByBlock
350
1F
  3
ByLayer
350
20
  3
Global
350
21
  0
DICTIONARY
  5
F
330
A
100
AcDbDictionary
281
1
  3
Standard
350
2C
  0
DICTIONARY
  5
10
330
A
100
AcDbDictionary
281
1
  3
Standard
350
22
  0
DICTIONARY
  5
11
330
A
100
AcDbDictionary
281
1
  0
ACDBDICTIONARYWDFLT
  5
12
330
A
100
AcDbDictionary
281
1
  3
Normal
350
13
100
AcDbDictionaryWithDefault
340
13
  0
ACDBPLACEHOLDER
  5
13
330
12
  0
DICTIONARY
  5
14
330
A
100
AcDbDictionary
281
1
  0
DICTIONARY
  5
15
330
A
100
AcDbDictionary
281
1
  0
DICTIONARY
  5
16
330
A
100
AcDbDictionary
281
1
  0
LAYOUT
  5
1A
330
D
100
AcDbPlotSettings
  1

  4
A3
  6

 40
7.5
 41
20.0
 42
7.5
 43
20.0
 44
420.0
 45
297.0
 46
0.0
 47
0.0
 48
0.0
 49
0.0
140
0.0
141
0.0
142
1.0
143
1.0
 70
1024
 72
1
 73
0
 74
5
  7

 75
16
 76
0
 77
2
 78
300
147
1.0
148
0.0
149
0.0
100
AcDbLayout
  1
Model
 70
1
 71
0
 10
0.0
 20
0.0
 11
420.0
 21
297.0
 12
0.0
 22
0.0
 32
0.0
 14
1e+20
 24
1e+20
 34
1e+20
 15
-1e+20
 25
-1e+20
 35
-1e+20
146
0.0
 13
0.0
 23
0.0
 33
0.0
 16
1.0
 26
0.0
 36
0.0
 17
0.0
 27
1.0
 37
0.0
 76
1
330
17
  0
LAYOUT
  5
1E
330
D
100
AcDbPlotSettings
  1

  4
A3
  6

 40
7.5
 41
20.0
 42
7.5
 43
20.0
 44
420.0
 45
297.0
 46
0.0
 47
0.0
 48
0.0
 49
0.0
140
0.0
141
0.0
142
1.0
143
1.0
 70
0
 72
1
 73
0
 74
5
  7

 75
16
 76
0
 77
2
 78
300
147
1.0
148
0.0
149
0.0
100
AcDbLayout
  1
Layout1
 70
1
 71
1
 10
0.0
 20
0.0
 11
420.0
 21
297.0
 12
0.0
 22
0.0
 32
0.0
 14
1e+20
 24
1e+20
 34
1e+20
 15
-1e+20
 25
-1e+20
 35
-1e+20
146
0.0
 13
0.0
 23
0.0
 33
0.0
 16
1.0
 26
0.0
 36
0.0
 17
0.0
 27
1.0
 37
0.0
 76
1
330
1B
  0
MATERIAL
  5
1F
102
{ACAD_REACTORS
330
E
102
}
330
E
100
AcDbMaterial
  1
ByBlock
  2

 70
0
 40
1.0
 71
1
 41
1.0
 91
-1023410177
 42
1.0
 72
1
  3

 73
1
 74
1
 75
1
 44
0.5
 73
0
 45
1.0
 46
1.0
 77
1
  4

 78
1
 79
1
170
1
 48
1.0
171
1
  6

172
1
173
1
174
1
140
1.0
141
1.0
175
1
  7

176
1
177
1
178
1
143
1.0
179
1
  8

270
1
271
1
272
1
145
1.0
146
1.0
273
1
  9

274
1
275
1
276
1
 42
1.0
 72
1
  3

 73
1
 74
1
 75
1
 94
63
  0
MATERIAL
  5
20
102
{ACAD_REACTORS
330
E
102
}
330
E
100
AcDbMaterial
  1
ByLayer
  2

 70
0
 40
1.0
 71
1
 41
1.0
 91
-1023410177
 42
1.0
 72
1
  3

 73
1
 74
1
 75
1
 44
0.5
 73
0
 45
1.0
 46
1.0
 77
1
  4

 78
1
 79
1
170
1
 48
1.0
171
1
  6

172
1
173
1
174
1
140
1.0
141
1.0
175
1
  7

176
1
177
1
178
1
143
1.0
179
1
  8

270
1
271
1
272
1
145
1.0
146
1.0
273
1
  9

274
1
275
1
276
1
 42
1.0
 72
1
  3

 73
1
 74
1
 75
1
 94
63
  0
MATERIAL
  5
21
102
{ACAD_REACTORS
330
E
102
}
330
E
100
AcDbMaterial
  1
Global
  2

 70
0
 40
1.0
 71
1
 41
1.0
 91
-1023410177
 42
1.0
 72
1
  3

 73
1
 74
1
 75
1
 44
0.5
 73
0
 45
1.0
 46
1.0
 77
1
  4

 78
1
 79
1
170
1
 48
1.0
171
1
  6

172
1
173
1
174
1
140
1.0
141
1.0
175
1
  7

176
1
177
1
178
1
143
1.0
179
1
  8

270
1
271
1
272
1
145
1.0
146
1.0
273
1
  9

274
1
275
1
276
1
 42
1.0
 72
1
  3

 73
1
 74
1
 75
1
 94
63
  0
MLINESTYLE
  5
22
102
{ACAD_REACTORS
330
10
102
}
330
10
100
AcDbMlineStyle
  2
Standard
 70
0
  3

 62
256
 51
90.0
 52
90.0
 71
2
 49
0.5
 62
256
  6
BYLAYER
 49
-0.5
 62
256
  6
BYLAYER
  0
MLEADERSTYLE
  5
2C
102
{ACAD_REACTORS
330
F
102
}
330
F
100
AcDbMLeaderStyle
179
2
170
2
171
1
172
0
 90
2
 40
0.0
 41
0.0
173
1
 91
-1056964608
 92
-2
290
1
 42
2.0
291
1
 43
8.0
  3
Standard
 44
4.0
300

342
29
174
1
175
1
176
0
178
1
 93
-1056964608
 45
4.0
292
0
297
0
 46
4.0
 94
-1056964608
 47
1.0
 49
1.0
140
1.0
294
1
141
0.0
177
0
142
1.0
295
0
296
0
143
3.75
271
0
272
9
273
9
  0
DICTIONARY
  5
2D
330
A
100
AcDbDictionary
280
1
281
1
  3
CREATED_BY_EZDXF
350
2E
  3
WRITTEN_BY_EZDXF
350
131
  0
DICTIONARYVAR
  5
2E
330
2D
100
DictionaryVariables
280
0
  1
1.4.4 @ 2026-08-09T08:45:52.074753+00:00
  0
DICTIONARYVAR
  5
131
330
2D
100
DictionaryVariables
280
0
  1
1.4.4 @ 2026-08-10T06:56:12.511257+00:00
  0
ENDSEC
  0
EOF
