  0
SECTION
  2
HEADER
  9
$ACADVER
  1
AC1015
  9
$ACADMAINTVER
 70
     6
  9
$DWGCODEPAGE
  3
DOS932
  9
$INSBASE
 10
0.0
 20
0.0
 30
0.0
  9
$EXTMIN
 10
0.0
 20
0.0
 30
0.0
  9
$EXTMAX
 10
841.0
 20
594.0
 30
0.0
  9
$LIMMIN
 10
0.0
 20
0.0
  9
$LIMMAX
 10
841.0
 20
594.0
  9
$ORTHOMODE
 70
     0
  9
$REGENMODE
 70
     1
  9
$FILLMODE
 70
     1
  9
$QTEXTMODE
 70
     0
  9
$MIRRTEXT
 70
     1
  9
$LTSCALE
 40
1.0
  9
$ATTMODE
 70
     1
  9
$TEXTSIZE
 40
3.5
  9
$TRACEWID
 40
1.0
  9
$TEXTSTYLE
  7
Standard
  9
$CLAYER
  8
0
  9
$CELTYPE
  6
ByLayer
  9
$CECOLOR
 62
   256
  9
$CELTSCALE
 40
1.0
  9
$DISPSILH
 70
     0
  9
$DIMSCALE
 40
1.0
  9
$DIMASZ
 40
3.302
  9
$DIMEXO
 40
1.0
  9
$DIMDLI
 40
3.75
  9
$DIMRND
 40
0.0
  9
$DIMDLE
 40
0.0
  9
$DIMEXE
 40
1.0
  9
$DIMTP
 40
0.0
  9
$DIMTM
 40
0.0
  9
$DIMTXT
 40
3.5
  9
$DIMCEN
 40
2.5
  9
$DIMTSZ
 40
0.0
  9
$DIMTOL
 70
     0
  9
$DIMLIM
 70
     0
  9
$DIMTIH
 70
     1
  9
$DIMTOH
 70
     1
  9
$DIMSE1
 70
     0
  9
$DIMSE2
 70
     0
  9
$DIMTAD
 70
     1
  9
$DIMZIN
 70
     1
  9
$DIMBLK
  1

  9
$DIMASO
 70
     1
  9
$DIMSHO
 70
     1
  9
$DIMPOST
  1

  9
$DIMAPOST
  1

  9
$DIMALT
 70
     0
  9
$DIMALTD
 70
     3
  9
$DIMALTF
 40
0.0393700787
  9
$DIMLFAC
 40
1.0
  9
$DIMTOFL
 70
     1
  9
$DIMTVP
 40
0.0
  9
$DIMTIX
 70
     0
  9
$DIMSOXD
 70
     0
  9
$DIMSAH
 70
     0
  9
$DIMBLK1
  1

  9
$DIMBLK2
  1

  9
$DIMSTYLE
  2
ISO-25
  9
$DIMCLRD
 70
     0
  9
$DIMCLRE
 70
     0
  9
$DIMCLRT
 70
     0
  9
$DIMTFAC
 40
1.0
  9
$DIMGAP
 40
1.524
  9
$DIMJUST
 70
     0
  9
$DIMSD1
 70
     0
  9
$DIMSD2
 70
     0
  9
$DIMTOLJ
 70
     0
  9
$DIMTZIN
 70
     1
  9
$DIMALTZ
 70
     0
  9
$DIMALTTZ
 70
     0
  9
$DIMUPT
 70
     0
  9
$DIMDEC
 70
     2
  9
$DIMTDEC
 70
     2
  9
$DIMALTU
 70
     2
  9
$DIMALTTD
 70
     3
  9
$DIMTXSTY
  7
Standard
  9
$DIMAUNIT
 70
     0
  9
$DIMADEC
 70
     2
  9
$DIMALTRND
 40
0.0
  9
$DIMAZIN
 70
     0
  9
$DIMDSEP
 70
    44
  9
$DIMATFIT
 70
     3
  9
$DIMFRAC
 70
     0
  9
$DIMLDRBLK
  1

  9
$DIMLUNIT
 70
     2
  9
$DIMLWD
 70
    -2
  9
$DIMLWE
 70
    -2
  9
$DIMTMOVE
 70
     0
  9
$LUNITS
 70
     2
  9
$LUPREC
 70
     2
  9
$SKETCHINC
 40
1.0
  9
$FILLETRAD
 40
0.0
  9
$AUNITS
 70
     0
  9
$AUPREC
 70
     2
  9
$MENU
  1
.
  9
$ELEVATION
 40
0.0
  9
$PELEVATION
 40
0.0
  9
$THICKNESS
 40
0.0
  9
$LIMCHECK
 70
     0
  9
$CHAMFERA
 40
0.0
  9
$CHAMFERB
 40
0.0
  9
$CHAMFERC
 40
0.0
  9
$CHAMFERD
 40
0.0
  9
$SKPOLY
 70
     0
  9
$TDCREATE
 40
2461263.417917616
  9
$TDUCREATE
 40
2461263.042917616
  9
$TDUPDATE
 40
2461263.417918009
  9
$TDUUPDATE
 40
2461263.042918009
  9
$TDINDWG
 40
0.0000000116
  9
$TDUSRTIMER
 40
0.0000000116
  9
$USRTIMER
 70
     1
  9
$ANGBASE
 50
0.0
  9
$ANGDIR
 70
     0
  9
$PDMODE
 70
     0
  9
$PDSIZE
 40
-1.0
  9
$PLINEWID
 40
0.0
  9
$SPLFRAME
 70
     0
  9
$SPLINETYPE
 70
     6
  9
$SPLINESEGS
 70
     8
  9
$HANDSEED
  5
D7
  9
$SURFTAB1
 70
     6
  9
$SURFTAB2
 70
     6
  9
$SURFTYPE
 70
     6
  9
$SURFU
 70
     6
  9
$SURFV
 70
     6
  9
$UCSBASE
  2

  9
$UCSNAME
  2

  9
$UCSORG
 10
0.0
 20
0.0
 30
0.0
  9
$UCSXDIR
 10
1.0
 20
0.0
 30
0.0
  9
$UCSYDIR
 10
0.0
 20
1.0
 30
0.0
  9
$UCSORTHOREF
  2

  9
$UCSORTHOVIEW
 70
     0
  9
$UCSORGTOP
 10
0.0
 20
0.0
 30
0.0
  9
$UCSORGBOTTOM
 10
0.0
 20
0.0
 30
0.0
  9
$UCSORGLEFT
 10
0.0
 20
0.0
 30
0.0
  9
$UCSORGRIGHT
 10
0.0
 20
0.0
 30
0.0
  9
$UCSORGFRONT
 10
0.0
 20
0.0
 30
0.0
  9
$UCSORGBACK
 10
0.0
 20
0.0
 30
0.0
  9
$PUCSBASE
  2

  9
$PUCSNAME
  2

  9
$PUCSORG
 10
0.0
 20
0.0
 30
0.0
  9
$PUCSXDIR
 10
1.0
 20
0.0
 30
0.0
  9
$PUCSYDIR
 10
0.0
 20
1.0
 30
0.0
  9
$PUCSORTHOREF
  2

  9
$PUCSORTHOVIEW
 70
     0
  9
$PUCSORGTOP
 10
0.0
 20
0.0
 30
0.0
  9
$PUCSORGBOTTOM
 10
0.0
 20
0.0
 30
0.0
  9
$PUCSORGLEFT
 10
0.0
 20
0.0
 30
0.0
  9
$PUCSORGRIGHT
 10
0.0
 20
0.0
 30
0.0
  9
$PUCSORGFRONT
 10
0.0
 20
0.0
 30
0.0
  9
$PUCSORGBACK
 10
0.0
 20
0.0
 30
0.0
  9
$USERI1
 70
     0
  9
$USERI2
 70
     0
  9
$USERI3
 70
     0
  9
$USERI4
 70
     0
  9
$USERI5
 70
     0
  9
$USERR1
 40
0.0
  9
$USERR2
 40
0.0
  9
$USERR3
 40
0.0
  9
$USERR4
 40
0.0
  9
$USERR5
 40
0.0
  9
$WORLDVIEW
 70
     1
  9
$SHADEDGE
 70
     3
  9
$SHADEDIF
 70
    70
  9
$TILEMODE
 70
     1
  9
$MAXACTVP
 70
    64
  9
$PINSBASE
 10
0.0
 20
0.0
 30
0.0
  9
$PLIMCHECK
 70
     0
  9
$PEXTMIN
 10
1.0000000000E+20
 20
1.0000000000E+20
 30
1.0000000000E+20
  9
$PEXTMAX
 10
-1.0000000000E+20
 20
-1.0000000000E+20
 30
-1.0000000000E+20
  9
$PLIMMIN
 10
0.0
 20
0.0
  9
$PLIMMAX
 10
420.0
 20
297.0
  9
$UNITMODE
 70
     0
  9
$VISRETAIN
 70
     1
  9
$PLINEGEN
 70
     0
  9
$PSLTSCALE
 70
     1
  9
$TREEDEPTH
 70
  3020
  9
$CMLSTYLE
  2
Standard
  9
$CMLJUST
 70
     0
  9
$CMLSCALE
 40
20.0
  9
$PROXYGRAPHICS
 70
     1
  9
$MEASUREMENT
 70
     1
  9
$CELWEIGHT
370
    -1
  9
$ENDCAPS
280
     0
  9
$JOINSTYLE
280
     0
  9
$LWDISPLAY
290
     1
  9
$INSUNITS
 70
     4
  9
$HYPERLINKBASE
  1

  9
$STYLESHEET
  1

  9
$XEDIT
290
     1
  9
$CEPSNTYPE
380
     0
  9
$PSTYLEMODE
290
     1
  9
$FINGERPRINTGUID
  2
{62d79ab6-8d1f-45e0-bd3e-217d87697b28}
  9
$VERSIONGUID
  2
{FAEB1C32-E019-11D5-929B-00C0DF256EC4}
  9
$EXTNAMES
290
     1
  9
$PSVPSCALE
 40
0.0
  9
$OLESTARTUP
290
     0
  0
ENDSEC
  0
SECTION
  2
CLASSES
  0
CLASS
  1
ACDBDICTIONARYWDFLT
  2
AcDbDictionaryWithDefault
  3
ObjectDBX Classes
 90
        0
280
     0
281
     0
  0
CLASS
  1
VISUALSTYLE
  2
AcDbVisualStyle
  3
ObjectDBX Classes
 90
     4095
280
     0
281
     0
  0
CLASS
  1
MATERIAL
  2
AcDbMaterial
  3
ObjectDBX Classes
 90
     1153
280
     0
281
     0
  0
CLASS
  1
SCALE
  2
AcDbScale
  3
ObjectDBX Classes
 90
     1153
280
     0
281
     0
  0
CLASS
  1
TABLESTYLE
  2
AcDbTableStyle
  3
ObjectDBX Classes
 90
     4095
280
     0
281
     0
  0
CLASS
  1
MLEADERSTYLE
  2
AcDbMLeaderStyle
  3
ACDB_MLEADERSTYLE_CLASS
 90
     4095
280
     0
281
     0
  0
CLASS
  1
SUN
  2
AcDbSun
  3
SCENEOE
 90
     1153
280
     0
281
     0
  0
CLASS
  1
ACDBPLACEHOLDER
  2
AcDbPlaceHolder
  3
ObjectDBX Classes
 90
        0
280
     0
281
     0
  0
CLASS
  1
LAYOUT
  2
AcDbLayout
  3
ObjectDBX Classes
 90
        0
280
     0
281
     0
  0
ENDSEC
  0
SECTION
  2
TABLES
  0
TABLE
  2
VPORT
  5
8
330
0
100
AcDbSymbolTable
 70
     1
  0
VPORT
  5
29
330
8
100
AcDbSymbolTableRecord
100
AcDbViewportTableRecord
  2
*Active
 70
     0
 10
0.0
 20
0.0
 11
1.0
 21
1.0
 12
420.5
 22
297.0
 13
0.0
 23
0.0
 14
10.0
 24
10.0
 15
10.0
 25
10.0
 16
0.0
 26
0.0
 36
1.0
 17
0.0
 27
0.0
 37
0.0
 40
594.0
 41
1.4158249158
 42
50.0
 43
0.0
 44
0.0
 50
0.0
 51
0.0
 71
     0
 72
  2000
 73
     1
 74
     3
 75
     0
 76
     0
 77
     0
 78
     0
281
     0
 65
     1
110
0.0
120
0.0
130
0.0
111
1.0
121
0.0
131
0.0
112
0.0
122
1.0
132
0.0
 79
     0
146
0.0
  0
ENDTAB
  0
TABLE
  2
LTYPE
  5
5
330
0
100
AcDbSymbolTable
 70
     6
  0
LTYPE
  5
14
330
5
100
AcDbSymbolTableRecord
100
AcDbLinetypeTableRecord
  2
ByBlock
 70
     0
  3

 72
    65
 73
     0
 40
0.0
  0
LTYPE
  5
15
330
5
100
AcDbSymbolTableRecord
100
AcDbLinetypeTableRecord
  2
ByLayer
 70
     0
  3

 72
    65
 73
     0
 40
0.0
  0
LTYPE
  5
16
330
5
100
AcDbSymbolTableRecord
100
AcDbLinetypeTableRecord
  2
Continuous
 70
     0
  3
Solid line
 72
    65
 73
     0
 40
0.0
  0
LTYPE
  5
5E
330
5
100
AcDbSymbolTableRecord
100
AcDbLinetypeTableRecord
  2
HIDDEN
 70
     0
  3
Hidden __ __ __ __ __ __ __ __ __ __ __ __ __ __
 72
    65
 73
     2
 40
1.905
 49
1.27
 74
     0
 49
-0.635
 74
     0
  0
LTYPE
  5
5F
330
5
100
AcDbSymbolTableRecord
100
AcDbLinetypeTableRecord
  2
PHANTOM
 70
     0
  3
Phantom ______  __  __  ______  __  __  ______
 72
    65
 73
     6
 40
12.7
 49
6.35
 74
     0
 49
-1.27
 74
     0
 49
1.27
 74
     0
 49
-1.27
 74
     0
 49
1.27
 74
     0
 49
-1.27
 74
     0
  0
LTYPE
  5
60
330
5
100
AcDbSymbolTableRecord
100
AcDbLinetypeTableRecord
  2
CENTER
 70
     0
  3
Center ____ _ ____ _ ____ _ ____ _ ____ _ ____
 72
    65
 73
     4
 40
10.16
 49
6.35
 74
     0
 49
-1.27
 74
     0
 49
1.27
 74
     0
 49
-1.27
 74
     0
  0
LTYPE
  5
61
330
5
100
AcDbSymbolTableRecord
100
AcDbLinetypeTableRecord
  2
CENTERX2
 70
     0
  3
Center (2x) ________  __  ________  __  _____
 72
    65
 73
     4
 40
20.32
 49
12.7
 74
     0
 49
-2.54
 74
     0
 49
2.54
 74
     0
 49
-2.54
 74
     0
  0
LTYPE
  5
62
330
5
100
AcDbSymbolTableRecord
100
AcDbLinetypeTableRecord
  2
DOT2
 70
     0
  3
Dot (.5x) ........................................
 72
    65
 73
     2
 40
0.635
 49
0.0
 74
     0
 49
-0.635
 74
     0
  0
ENDTAB
  0
TABLE
  2
LAYER
  5
2
330
0
100
AcDbSymbolTable
 70
     1
  0
LAYER
  5
10
330
2
100
AcDbSymbolTableRecord
100
AcDbLayerTableRecord
  2
0
 70
     0
 62
     7
  6
Continuous
370
    -3
390
F
  0
ENDTAB
  0
TABLE
  2
STYLE
  5
3
330
0
100
AcDbSymbolTable
 70
     1
  0
STYLE
  5
11
330
3
100
AcDbSymbolTableRecord
100
AcDbTextStyleTableRecord
  2
Standard
 70
     0
 40
0.0
 41
1.0
 50
0.0
 71
     0
 42
3.5
  3
txt
  4
bigfont
  0
ENDTAB
  0
TABLE
  2
VIEW
  5
6
330
0
100
AcDbSymbolTable
 70
     0
  0
ENDTAB
  0
TABLE
  2
UCS
  5
7
330
0
100
AcDbSymbolTable
 70
     0
  0
ENDTAB
  0
TABLE
  2
APPID
  5
9
330
0
100
AcDbSymbolTable
 70
     1
  0
APPID
  5
12
330
9
100
AcDbSymbolTableRecord
100
AcDbRegAppTableRecord
  2
ACAD
 70
     0
  0
ENDTAB
  0
TABLE
  2
DIMSTYLE
  5
A
330
0
100
AcDbSymbolTable
 70
     1
100
AcDbDimStyleTable
  0
DIMSTYLE
105
27
330
A
100
AcDbSymbolTableRecord
100
AcDbDimStyleTableRecord
  2
ISO-25
 70
     0
 41
2.5
 42
0.625
 43
3.75
 44
1.25
 73
     0
 74
     0
 77
     1
 78
     8
140
2.5
141
2.5
143
0.0393700787
147
0.625
171
     3
172
     1
178
     0
271
     2
272
     2
274
     3
278
    44
283
     0
284
     8
340
11
  0
ENDTAB
  0
TABLE
  2
BLOCK_RECORD
  5
1
330
0
100
AcDbSymbolTable
 70
     1
  0
BLOCK_RECORD
  5
1F
330
1
100
AcDbSymbolTableRecord
100
AcDbBlockTableRecord
  2
*Model_Space
340
22
  0
BLOCK_RECORD
  5
1B
330
1
100
AcDbSymbolTableRecord
100
AcDbBlockTableRecord
  2
*Paper_Space
340
1E
  0
BLOCK_RECORD
  5
23
330
1
100
AcDbSymbolTableRecord
100
AcDbBlockTableRecord
  2
*Paper_Space0
340
26
  0
ENDTAB
  0
ENDSEC
  0
SECTION
  2
BLOCKS
  0
BLOCK
  5
20
330
1F
100
AcDbEntity
  8
0
100
AcDbBlockBegin
  2
*Model_Space
 70
     0
 10
0.0
 20
0.0
 30
0.0
  3
*Model_Space
  1

  0
ENDBLK
  5
21
330
1F
100
AcDbEntity
  8
0
100
AcDbBlockEnd
  0
BLOCK
  5
1C
330
1B
100
AcDbEntity
 67
     1
  8
0
100
AcDbBlockBegin
  2
*Paper_Space
 70
     0
 10
0.0
 20
0.0
 30
0.0
  3
*Paper_Space
  1

  0
ENDBLK
  5
1D
330
1B
100
AcDbEntity
 67
     1
  8
0
100
AcDbBlockEnd
  0
BLOCK
  5
24
330
23
100
AcDbEntity
  8
0
100
AcDbBlockBegin
  2
*Paper_Space0
 70
     0
 10
0.0
 20
0.0
 30
0.0
  3
*Paper_Space0
  1

  0
ENDBLK
  5
25
330
23
100
AcDbEntity
  8
0
100
AcDbBlockEnd
  0
ENDSEC
  0
SECTION
  2
ENTITIES
  0
LINE
  5
63
330
1F
100
AcDbEntity
  8
0
  6
Continuous
 62
     7
370
    25
100
AcDbLine
 10
350.4093218813
 20
247.7620180226
 30
0.0
 11
300.4093218813
 21
247.7620180226
 31
0.0
  0
LINE
  5
64
330
1F
100
AcDbEntity
  8
0
  6
Continuous
 62
     7
370
    25
100
AcDbLine
 10
300.4093218813
 20
147.7620180226
 30
0.0
 11
350.4093218813
 21
147.7620180226
 31
0.0
  0
ARC
  5
65
330
1F
100
AcDbEntity
  8
0
  6
Continuous
 62
     7
370
    25
100
AcDbCircle
 10
298.9093218813
 20
155.2620180226
 30
0.0
 40
1.500000000000028
100
AcDbArc
 50
0.0
 51
90.0
  0
ARC
  5
66
330
1F
100
AcDbEntity
  8
0
  6
Continuous
 62
     7
370
    25
100
AcDbCircle
 10
298.9093218813
 20
240.2620180226
 30
0.0
 40
1.5
100
AcDbArc
 50
270.0
 51
0.0
  0
LINE
  5
67
330
1F
100
AcDbEntity
  8
0
  6
Continuous
 62
     7
370
    25
100
AcDbLine
 10
298.9093218813
 20
238.7620180226
 30
0.0
 11
286.4093218813
 21
238.7620180226
 31
0.0
  0
LINE
  5
68
330
1F
100
AcDbEntity
  8
0
  6
Continuous
 62
     7
370
    25
100
AcDbLine
 10
286.4093218813
 20
156.7620180226
 30
0.0
 11
298.9093218813
 21
156.7620180226
 31
0.0
  0
LINE
  5
69
330
1F
100
AcDbEntity
  8
0
  6
Continuous
 62
     7
370
    25
100
AcDbLine
 10
285.4093218813
 20
157.7620180226
 30
0.0
 11
286.4093218813
 21
156.7620180226
 31
0.0
  0
LINE
  5
6A
330
1F
100
AcDbEntity
  8
0
  6
Continuous
 62
     7
370
    25
100
AcDbLine
 10
286.4093218813
 20
238.7620180226
 30
0.0
 11
285.4093218813
 21
237.7620180226
 31
0.0
  0
LINE
  5
6B
330
1F
100
AcDbEntity
  8
0
  6
Continuous
 62
     7
370
    25
100
AcDbLine
 10
300.4093218813
 20
197.7620180226
 30
0.0
 11
300.4093218813
 21
247.7620180226
 31
0.0
  0
LINE
  5
6C
330
1F
100
AcDbEntity
  8
0
  6
Continuous
 62
     7
370
    25
100
AcDbLine
 10
350.4093218813
 20
197.7620180226
 30
0.0
 11
350.4093218813
 21
247.7620180226
 31
0.0
  0
LINE
  5
6D
330
1F
100
AcDbEntity
  8
0
  6
Continuous
 62
     7
370
    25
100
AcDbLine
 10
300.4093218813
 20
147.7620180226
 30
0.0
 11
300.4093218813
 21
197.7620180226
 31
0.0
  0
LINE
  5
6E
330
1F
100
AcDbEntity
  8
0
  6
Continuous
 62
     7
370
    25
100
AcDbLine
 10
350.4093218813
 20
147.7620180226
 30
0.0
 11
350.4093218813
 21
197.7620180226
 31
0.0
  0
LINE
  5
6F
330
1F
100
AcDbEntity
  8
0
  6
Continuous
 62
     7
370
    25
100
AcDbLine
 10
286.4093218813
 20
197.7620180226
 30
0.0
 11
286.4093218813
 21
238.7620180226
 31
0.0
  0
LINE
  5
70
330
1F
100
AcDbEntity
  8
0
  6
Continuous
 62
     7
370
    25
100
AcDbLine
 10
286.4093218813
 20
156.7620180226
 30
0.0
 11
286.4093218813
 21
197.7620180226
 31
0.0
  0
LINE
  5
71
330
1F
100
AcDbEntity
  8
0
  6
Continuous
 62
     7
370
    25
100
AcDbLine
 10
285.4093218813
 20
157.7620180226
 30
0.0
 11
285.4093218813
 21
197.7620180226
 31
0.0
  0
LINE
  5
72
330
1F
100
AcDbEntity
  8
0
  6
Continuous
 62
     7
370
    25
100
AcDbLine
 10
285.4093218813
 20
197.7620180226
 30
0.0
 11
285.4093218813
 21
237.7620180226
 31
0.0
  0
LINE
  5
73
330
1F
100
AcDbEntity
  8
0
  6
HIDDEN
 62
     7
370
    18
100
AcDbLine
 10
338.4093218813
 20
162.2620180226
 30
0.0
 11
338.4093218813
 21
197.7620180226
 31
0.0
  0
LINE
  5
74
330
1F
100
AcDbEntity
  8
0
  6
HIDDEN
 62
     7
370
    18
100
AcDbLine
 10
338.4093218813
 20
197.7620180226
 30
0.0
 11
338.4093218813
 21
233.2620180226
 31
0.0
  0
SPLINE
  5
75
330
1F
100
AcDbEntity
  8
0
  6
HIDDEN
 62
     7
370
    18
100
AcDbSpline
210
0.0
220
0.0
230
1.0
 70
    24
 71
     3
 72
     8
 73
     4
 74
     0
 42
0.00000001
 43
0.00000001
 40
0.0
 40
0.0
 40
0.0
 40
0.0
 40
1.0
 40
1.0
 40
1.0
 40
1.0
 10
285.4093218813452
 20
204.7620180225776
 30
0.0
 10
285.7429266134494
 20
204.7620180225776
 30
0.0
 10
286.0762712367331
 20
204.7620180225776
 30
0.0
 10
286.4093218813452
 20
204.7620180225776
 30
0.0
  0
SPLINE
  5
76
330
1F
100
AcDbEntity
  8
0
  6
HIDDEN
 62
     7
370
    18
100
AcDbSpline
210
0.0
220
0.0
230
1.0
 70
    24
 71
     3
 72
     8
 73
     4
 74
     0
 42
0.00000001
 43
0.00000001
 40
0.0
 40
0.0
 40
0.0
 40
0.0
 40
1.0
 40
1.0
 40
1.0
 40
1.0
 10
285.4093218813452
 20
190.7620180225776
 30
0.0
 10
285.7429266134494
 20
190.7620180225776
 30
0.0
 10
286.0762712367331
 20
190.7620180225776
 30
0.0
 10
286.4093218813452
 20
190.7620180225776
 30
0.0
  0
LINE
  5
77
330
1F
100
AcDbEntity
  8
0
  6
HIDDEN
 62
     7
370
    18
100
AcDbLine
 10
338.4093218813
 20
190.7620180226
 30
0.0
 11
286.4093218813
 21
190.7620180226
 31
0.0
  0
LINE
  5
78
330
1F
100
AcDbEntity
  8
0
  6
HIDDEN
 62
     7
370
    18
100
AcDbLine
 10
338.4093218813
 20
204.7620180226
 30
0.0
 11
286.4093218813
 21
204.7620180226
 31
0.0
  0
LINE
  5
79
330
1F
100
AcDbEntity
  8
0
  6
HIDDEN
 62
     7
370
    18
100
AcDbLine
 10
338.4093218813
 20
162.2620180226
 30
0.0
 11
350.4093218813
 21
162.2620180226
 31
0.0
  0
LINE
  5
7A
330
1F
100
AcDbEntity
  8
0
  6
HIDDEN
 62
     7
370
    18
100
AcDbLine
 10
350.4093218813
 20
233.2620180226
 30
0.0
 11
338.4093218813
 21
233.2620180226
 31
0.0
  0
LINE
  5
7B
330
1F
100
AcDbEntity
  8
0
  6
HIDDEN
 62
     7
370
    18
100
AcDbLine
 10
285.4093218813
 20
171.7620180226
 30
0.0
 11
286.4093218813
 21
172.7620180226
 31
0.0
  0
LINE
  5
7C
330
1F
100
AcDbEntity
  8
0
  6
HIDDEN
 62
     7
370
    18
100
AcDbLine
 10
286.4093218813
 20
222.7620180226
 30
0.0
 11
285.4093218813
 21
223.7620180226
 31
0.0
  0
LINE
  5
7D
330
1F
100
AcDbEntity
  8
0
  6
HIDDEN
 62
     7
370
    18
100
AcDbLine
 10
286.4093218813
 20
172.7620180226
 30
0.0
 11
338.4093218813
 21
172.7620180226
 31
0.0
  0
LINE
  5
7E
330
1F
100
AcDbEntity
  8
0
  6
HIDDEN
 62
     7
370
    18
100
AcDbLine
 10
338.4093218813
 20
222.7620180226
 30
0.0
 11
286.4093218813
 21
222.7620180226
 31
0.0
  0
LINE
  5
7F
330
1F
100
AcDbEntity
  8
0
  6
Continuous
 62
     7
370
    25
100
AcDbLine
 10
300.4093218813
 20
328.88
 30
0.0
 11
300.4093218813
 21
428.88
 31
0.0
  0
LINE
  5
80
330
1F
100
AcDbEntity
  8
0
  6
Continuous
 62
     7
370
    25
100
AcDbLine
 10
350.4093218813
 20
428.88
 30
0.0
 11
300.4093218813
 21
428.88
 31
0.0
  0
LINE
  5
81
330
1F
100
AcDbEntity
  8
0
  6
Continuous
 62
     7
370
    25
100
AcDbLine
 10
350.4093218813
 20
328.88
 30
0.0
 11
300.4093218813
 21
328.88
 31
0.0
  0
LINE
  5
82
330
1F
100
AcDbEntity
  8
0
  6
Continuous
 62
     7
370
    25
100
AcDbLine
 10
350.4093218813
 20
328.88
 30
0.0
 11
350.4093218813
 21
428.88
 31
0.0
  0
ARC
  5
83
330
1F
100
AcDbEntity
  8
0
  6
Continuous
 62
     7
370
    25
100
AcDbCircle
 10
298.9093218813
 20
421.38
 30
0.0
 40
1.5
100
AcDbArc
 50
270.0
 51
0.0
  0
ARC
  5
84
330
1F
100
AcDbEntity
  8
0
  6
Continuous
 62
     7
370
    25
100
AcDbCircle
 10
298.9093218813
 20
336.38
 30
0.0
 40
1.5
100
AcDbArc
 50
0.0
 51
90.0
  0
LINE
  5
85
330
1F
100
AcDbEntity
  8
0
  6
Continuous
 62
     7
370
    25
100
AcDbLine
 10
286.4093218813
 20
337.88
 30
0.0
 11
286.4093218813
 21
419.88
 31
0.0
  0
LINE
  5
86
330
1F
100
AcDbEntity
  8
0
  6
Continuous
 62
     7
370
    25
100
AcDbLine
 10
285.4093218813
 20
338.88
 30
0.0
 11
286.4093218813
 21
337.88
 31
0.0
  0
LINE
  5
87
330
1F
100
AcDbEntity
  8
0
  6
Continuous
 62
     7
370
    25
100
AcDbLine
 10
285.4093218813
 20
338.88
 30
0.0
 11
285.4093218813
 21
418.88
 31
0.0
  0
LINE
  5
88
330
1F
100
AcDbEntity
  8
0
  6
Continuous
 62
     7
370
    25
100
AcDbLine
 10
285.4093218813
 20
418.88
 30
0.0
 11
286.4093218813
 21
419.88
 31
0.0
  0
LINE
  5
89
330
1F
100
AcDbEntity
  8
0
  6
Continuous
 62
     7
370
    25
100
AcDbLine
 10
298.9093218813
 20
419.88
 30
0.0
 11
286.4093218813
 21
419.88
 31
0.0
  0
LINE
  5
8A
330
1F
100
AcDbEntity
  8
0
  6
Continuous
 62
     7
370
    25
100
AcDbLine
 10
298.9093218813
 20
337.88
 30
0.0
 11
286.4093218813
 21
337.88
 31
0.0
  0
LINE
  5
8B
330
1F
100
AcDbEntity
  8
0
  6
HIDDEN
 62
     7
370
    18
100
AcDbLine
 10
350.4093218813
 20
414.38
 30
0.0
 11
338.4093218813
 21
414.38
 31
0.0
  0
LINE
  5
8C
330
1F
100
AcDbEntity
  8
0
  6
HIDDEN
 62
     7
370
    18
100
AcDbLine
 10
338.4093218813
 20
343.38
 30
0.0
 11
338.4093218813
 21
414.38
 31
0.0
  0
LINE
  5
8D
330
1F
100
AcDbEntity
  8
0
  6
HIDDEN
 62
     7
370
    18
100
AcDbLine
 10
350.4093218813
 20
343.38
 30
0.0
 11
338.4093218813
 21
343.38
 31
0.0
  0
SPLINE
  5
8E
330
1F
100
AcDbEntity
  8
0
  6
HIDDEN
 62
     7
370
    18
100
AcDbSpline
210
0.0
220
0.0
230
1.0
 70
     8
 71
     3
 72
     8
 73
     4
 74
     0
 42
0.00000001
 43
0.00000001
 40
0.0
 40
0.0
 40
0.0
 40
0.0
 40
1.0
 40
1.0
 40
1.0
 40
1.0
 10
285.4093218813452
 20
403.9199680510978
 30
0.0
 10
285.7429266134494
 20
403.5735729192427
 30
0.0
 10
286.0762712367331
 20
403.2269277548043
 30
0.0
 10
286.4093218813452
 20
402.88
 30
0.0
  0
LINE
  5
8F
330
1F
100
AcDbEntity
  8
0
  6
HIDDEN
 62
     7
370
    18
100
AcDbLine
 10
338.4093218813
 20
402.88
 30
0.0
 11
286.4093218813
 21
402.88
 31
0.0
  0
LINE
  5
90
330
1F
100
AcDbEntity
  8
0
  6
HIDDEN
 62
     7
370
    18
100
AcDbLine
 10
338.4093218813
 20
407.68
 30
0.0
 11
285.4093218813
 21
407.68
 31
0.0
  0
LINE
  5
91
330
1F
100
AcDbEntity
  8
0
  6
HIDDEN
 62
     7
370
    18
100
AcDbLine
 10
285.4093218813
 20
352.88
 30
0.0
 11
286.4093218813
 21
353.88
 31
0.0
  0
LINE
  5
92
330
1F
100
AcDbEntity
  8
0
  6
HIDDEN
 62
     7
370
    18
100
AcDbLine
 10
286.4093218813
 20
353.88
 30
0.0
 11
338.4093218813
 21
353.88
 31
0.0
  0
ARC
  5
93
330
1F
100
AcDbEntity
  8
0
  6
Continuous
 62
     7
370
    25
100
AcDbCircle
 10
484.88
 20
197.7620180226
 30
0.0
 40
50.0
100
AcDbArc
 50
0.0
 51
180.0
  0
ARC
  5
94
330
1F
100
AcDbEntity
  8
0
  6
Continuous
 62
     7
370
    25
100
AcDbCircle
 10
484.88
 20
197.7620180226
 30
0.0
 40
50.0
100
AcDbArc
 50
180.0
 51
0.0
  0
ARC
  5
95
330
1F
100
AcDbEntity
  8
0
  6
Continuous
 62
     7
370
    25
100
AcDbCircle
 10
484.88
 20
197.7620180226
 30
0.0
 40
35.5
100
AcDbArc
 50
0.0
 51
180.0
  0
ARC
  5
96
330
1F
100
AcDbEntity
  8
0
  6
Continuous
 62
     7
370
    25
100
AcDbCircle
 10
484.88
 20
197.7620180226
 30
0.0
 40
35.5
100
AcDbArc
 50
180.0
 51
0.0
  0
LINE
  5
97
330
1F
100
AcDbEntity
  8
0
  6
Continuous
 62
     7
370
    25
100
AcDbLine
 10
513.68
 20
204.7620180226
 30
0.0
 11
513.68
 21
190.7620180226
 31
0.0
  0
LINE
  5
98
330
1F
100
AcDbEntity
  8
0
  6
Continuous
 62
     7
370
    25
100
AcDbLine
 10
508.88
 20
204.7620180226
 30
0.0
 11
513.68
 21
204.7620180226
 31
0.0
  0
ARC
  5
99
330
1F
100
AcDbEntity
  8
0
  6
Continuous
 62
     7
370
    25
100
AcDbCircle
 10
484.88
 20
197.7620180226
 30
0.0
 40
25.0
100
AcDbArc
 50
16.2602047083
 51
343.7397952917
  0
LINE
  5
9A
330
1F
100
AcDbEntity
  8
0
  6
Continuous
 62
     7
370
    25
100
AcDbLine
 10
508.88
 20
190.7620180226
 30
0.0
 11
513.68
 21
190.7620180226
 31
0.0
  0
ARC
  5
9B
330
1F
100
AcDbEntity
  8
0
  6
HIDDEN
 62
     7
370
    18
100
AcDbCircle
 10
484.88
 20
197.7620180226
 30
0.0
 40
41.0
100
AcDbArc
 50
180.0
 51
0.0
  0
ARC
  5
9C
330
1F
100
AcDbEntity
  8
0
  6
HIDDEN
 62
     7
370
    18
100
AcDbCircle
 10
484.88
 20
197.7620180226
 30
0.0
 40
41.0
100
AcDbArc
 50
0.0
 51
180.0
  0
ARC
  5
9D
330
1F
100
AcDbEntity
  8
0
  6
HIDDEN
 62
     7
370
    18
100
AcDbCircle
 10
484.88
 20
197.7620180226
 30
0.0
 40
26.00000000000001
100
AcDbArc
 50
15.6184982756
 51
344.3815017244
  0
ARC
  5
9E
330
1F
100
AcDbEntity
  8
0
  6
HIDDEN
 62
     7
370
    18
100
AcDbCircle
 10
484.88
 20
197.7620180226
 30
0.0
 40
40.0
100
AcDbArc
 50
0.0
 51
180.0
  0
ARC
  5
9F
330
1F
100
AcDbEntity
  8
0
  6
HIDDEN
 62
     7
370
    18
100
AcDbCircle
 10
484.88
 20
197.7620180226
 30
0.0
 40
40.0
100
AcDbArc
 50
180.0
 51
0.0
  0
LINE
  5
A0
330
1F
100
AcDbEntity
  8
0
  6
Continuous
 62
     7
370
    25
100
AcDbLine
 10
534.88
 20
364.590535792
 30
0.0
 11
534.88
 21
405.4175763863
 31
0.0
  0
LINE
  5
A1
330
1F
100
AcDbEntity
  8
0
  6
Continuous
 62
     7
370
    25
100
AcDbLine
 10
434.88
 20
405.4175763863
 30
0.0
 11
434.88
 21
364.590535792
 31
0.0
  0
LINE
  5
A2
330
1F
100
AcDbEntity
  8
0
  6
Continuous
 62
     7
370
    25
100
AcDbLine
 10
513.1688671166
 20
336.0169149472
 30
0.0
 11
513.8760887945
 21
336.4253180424
 31
0.0
  0
LWPOLYLINE
  5
A3
330
1F
100
AcDbEntity
  8
0
  6
Continuous
 62
     7
370
    25
100
AcDbPolyline
 90
       69
 70
   128
 43
0.0
 10
449.5246609407
 20
385.0073735907
 10
447.929554139
 20
385.9717655482
 10
446.4133014509
 20
386.9776558459
 10
444.979138636
 20
388.0228978633
 10
443.6301262701
 20
389.1052610014
 10
442.3691432135
 20
390.2224354425
 10
441.1988804677
 20
391.3720370802
 10
440.1218354322
 20
392.5516126065
 10
439.1403065756
 20
393.758644748
 10
438.2563885298
 20
394.9905576371
 10
437.4719676205
 20
396.2447223097
 10
436.7887178414
 20
397.5184623152
 10
436.208097282
 20
398.8090594282
 10
435.7313450158
 20
400.1137594494
 10
435.3594784562
 20
401.4297780833
 10
435.0932911852
 20
402.7543068797
 10
434.9333512599
 20
404.0845192274
 10
434.88
 20
405.4175763863
 10
434.9333512599
 20
406.7506335452
 10
435.0932911852
 20
408.0808458929
 10
435.3594784562
 20
409.4053746893
 10
435.7313450158
 20
410.7213933231
 10
436.208097282
 20
412.0260933444
 10
436.7887178414
 20
413.3166904573
 10
437.4719676205
 20
414.5904304628
 10
438.2563885298
 20
415.8445951354
 10
439.1403065756
 20
417.0765080246
 10
440.1218354322
 20
418.283540166
 10
441.1988804677
 20
419.4631156924
 10
442.3691432135
 20
420.6127173301
 10
443.6301262701
 20
421.7298917712
 10
444.979138636
 20
422.8122549092
 10
446.4133014509
 20
423.8574969267
 10
447.929554139
 20
424.8633872244
 10
449.5246609407
 20
425.8277791819
 10
451.1952178177
 20
426.7486147379
 10
452.9376597174
 20
427.6239287832
 10
454.748268181
 20
428.4518533534
 10
456.6231792789
 20
429.2306216156
 10
458.5583918561
 20
429.9585716394
 10
460.5497760717
 20
430.6341499424
 10
462.5930822112
 20
431.2559148068
 10
464.6839497564
 20
431.8225393548
 10
466.8179166906
 20
432.3328143811
 10
468.9904290209
 20
432.7856509332
 10
471.1968504964
 20
433.1800826349
 10
473.4324725025
 20
433.5152677492
 10
475.6925241092
 20
433.7904909742
 10
477.9721822524
 20
434.0051649696
 10
480.2665820268
 20
434.1588316102
 10
482.5708270677
 20
434.2511629638
 10
484.88
 20
434.2819619906
 10
487.1891729323
 20
434.2511629638
 10
489.4934179732
 20
434.1588316102
 10
491.7878177476
 20
434.0051649696
 10
494.0674758908
 20
433.7904909742
 10
496.3275274975
 20
433.5152677492
 10
498.5631495036
 20
433.1800826349
 10
500.7695709791
 20
432.7856509332
 10
502.9420833094
 20
432.3328143811
 10
505.0760502436
 20
431.8225393548
 10
507.1669177888
 20
431.2559148068
 10
509.2102239283
 20
430.6341499424
 10
511.2016081439
 20
429.9585716394
 10
513.1368207211
 20
429.2306216156
 10
515.011731819
 20
428.4518533534
 10
516.8223402826
 20
427.6239287832
 10
518.5647821823
 20
426.7486147379
 10
520.2353390593
 20
425.8277791819
  0
LWPOLYLINE
  5
A4
330
1F
100
AcDbEntity
  8
0
  6
Continuous
 62
     7
370
    25
100
AcDbPolyline
 90
       69
 70
   128
 43
0.0
 10
520.2353390593
 20
425.8277791819
 10
521.830445861
 20
424.8633872244
 10
523.3466985491
 20
423.8574969267
 10
524.780861364
 20
422.8122549092
 10
526.1298737299
 20
421.7298917712
 10
527.3908567865
 20
420.6127173301
 10
528.5611195323
 20
419.4631156924
 10
529.6381645678
 20
418.283540166
 10
530.6196934244
 20
417.0765080246
 10
531.5036114702
 20
415.8445951354
 10
532.2880323795
 20
414.5904304628
 10
532.9712821586
 20
413.3166904573
 10
533.551902718
 20
412.0260933444
 10
534.0286549842
 20
410.7213933231
 10
534.4005215438
 20
409.4053746893
 10
534.6667088148
 20
408.0808458929
 10
534.8266487401
 20
406.7506335452
 10
534.88
 20
405.4175763863
 10
534.8266487401
 20
404.0845192274
 10
534.6667088148
 20
402.7543068797
 10
534.4005215438
 20
401.4297780833
 10
534.0286549842
 20
400.1137594494
 10
533.551902718
 20
398.8090594282
 10
532.9712821586
 20
397.5184623152
 10
532.2880323795
 20
396.2447223097
 10
531.5036114702
 20
394.9905576371
 10
530.6196934244
 20
393.758644748
 10
529.6381645678
 20
392.5516126065
 10
528.5611195323
 20
391.3720370802
 10
527.3908567865
 20
390.2224354425
 10
526.1298737299
 20
389.1052610014
 10
524.780861364
 20
388.0228978633
 10
523.3466985491
 20
386.9776558459
 10
521.830445861
 20
385.9717655482
 10
520.2353390593
 20
385.0073735907
 10
518.5647821823
 20
384.0865380346
 10
516.8223402826
 20
383.2112239894
 10
515.011731819
 20
382.3832994192
 10
513.1368207211
 20
381.6045311569
 10
511.2016081439
 20
380.8765811332
 10
509.2102239283
 20
380.2010028301
 10
507.1669177888
 20
379.5792379658
 10
505.0760502436
 20
379.0126134178
 10
502.9420833094
 20
378.5023383915
 10
500.7695709791
 20
378.0495018394
 10
498.5631495036
 20
377.6550701377
 10
496.3275274975
 20
377.3198850233
 10
494.0674758908
 20
377.0446617984
 10
491.7878177476
 20
376.829987803
 10
489.4934179732
 20
376.6763211623
 10
487.1891729323
 20
376.5839898088
 10
484.88
 20
376.553190782
 10
482.5708270677
 20
376.5839898088
 10
480.2665820268
 20
376.6763211623
 10
477.9721822524
 20
376.829987803
 10
475.6925241092
 20
377.0446617984
 10
473.4324725025
 20
377.3198850233
 10
471.1968504964
 20
377.6550701377
 10
468.9904290209
 20
378.0495018394
 10
466.8179166906
 20
378.5023383915
 10
464.6839497564
 20
379.0126134178
 10
462.5930822112
 20
379.5792379658
 10
460.5497760717
 20
380.2010028301
 10
458.5583918561
 20
380.8765811332
 10
456.6231792789
 20
381.6045311569
 10
454.748268181
 20
382.3832994192
 10
452.9376597174
 20
383.2112239894
 10
451.1952178177
 20
384.0865380346
 10
449.5246609407
 20
385.0073735907
  0
LWPOLYLINE
  5
A5
330
1F
100
AcDbEntity
  8
0
  6
Continuous
 62
     7
370
    25
100
AcDbPolyline
 90
       58
 70
   128
 43
0.0
 10
459.7777092679
 20
390.9263324014
 10
458.4329977076
 20
391.7466272932
 10
457.1686048241
 20
392.608440408
 10
455.9883705369
 20
393.5091544478
 10
454.8958791789
 20
394.4460339736
 10
453.8944486103
 20
395.4162337132
 10
452.9871201428
 20
396.4168072017
 10
452.1766493033
 20
397.4447157304
 10
451.465497465
 20
398.4968375749
 10
450.8558243727
 20
399.5699774757
 10
450.3494815835
 20
400.6608763422
 10
449.9480068439
 20
401.7662211504
 10
449.6526194193
 20
402.8826550045
 10
449.4642163918
 20
404.0067873314
 10
449.3833699351
 20
405.1352041784
 10
449.4103255773
 20
406.2644785805
 10
449.5450014549
 20
407.3911809684
 10
449.7869885617
 20
408.5118895841
 10
450.1355519909
 20
409.6232008723
 10
450.5896331667
 20
410.7217398172
 10
451.1478530597
 20
411.804170192
 10
451.8085163742
 20
412.8672046914
 10
452.5696166975
 20
413.9076149145
 10
453.428842593
 20
414.9222411696
 10
454.3835846199
 20
415.9080020701
 10
455.4309432579
 20
416.8619038926
 10
456.5677377134
 20
417.7810496686
 10
457.7905155789
 20
418.6626479826
 10
459.0955633183
 20
419.5040214495
 10
460.4789175444
 20
420.3026148457
 10
461.9363770559
 20
421.0560028693
 10
463.4635155963
 20
421.7618975057
 10
465.0556952959
 20
422.418154976
 10
466.7080807573
 20
423.0227822479
 10
468.4156537402
 20
423.5739430882
 10
470.1732284016
 20
424.0699636396
 10
471.975467045
 20
424.5093375039
 10
473.8168963308
 20
424.8907303172
 10
475.6919238989
 20
425.212983802
 10
477.5948553521
 20
425.4751192851
 10
479.5199115501
 20
425.6763406697
 10
481.4612461606
 20
425.816036853
 10
483.4129634142
 20
425.8937835822
 10
485.3691360096
 20
425.9093447432
 10
487.3238231151
 20
425.8626730772
 10
489.2710884101
 20
425.7539103245
 10
491.2050181139
 20
425.583386794
 10
493.1197389455
 20
425.3516203601
 10
495.0094359608
 20
425.0593148897
 10
496.8683702121
 20
424.7073581052
 10
498.690896177
 20
424.2968188875
 10
500.4714789041
 20
423.8289440308
 10
502.2047108222
 20
423.3051544558
 10
503.885328163
 20
422.727040894
 10
505.5082269468
 20
422.0963590575
 10
507.0684784833
 20
421.4150243061
 10
508.5613443399
 20
420.6851058312
 10
509.9822907321
 20
419.9088203711
  0
LWPOLYLINE
  5
A6
330
1F
100
AcDbEntity
  8
0
  6
Continuous
 62
     7
370
    25
100
AcDbPolyline
 90
       58
 70
   128
 43
0.0
 10
509.9822907321
 20
419.9088203711
 10
511.3270022924
 20
419.0885254794
 10
512.5913951759
 20
418.2267123646
 10
513.7716294631
 20
417.3259983248
 10
514.8641208211
 20
416.3891187989
 10
515.8655513897
 20
415.4189190594
 10
516.7728798572
 20
414.4183455709
 10
517.5833506967
 20
413.3904370421
 10
518.294502535
 20
412.3383151976
 10
518.9041756273
 20
411.2651752968
 10
519.4105184165
 20
410.1742764303
 10
519.8119931561
 20
409.0689316221
 10
520.1073805807
 20
407.9524977681
 10
520.2957836082
 20
406.8283654411
 10
520.3766300649
 20
405.6999485942
 10
520.3496744227
 20
404.5706741921
 10
520.2149985451
 20
403.4439718042
 10
519.9730114383
 20
402.3232631885
 10
519.6244480091
 20
401.2119519003
 10
519.1703668333
 20
400.1134129554
 10
518.6121469403
 20
399.0309825805
 10
517.9514836258
 20
397.9679480812
 10
517.1903833025
 20
396.9275378581
 10
516.331157407
 20
395.912911603
 10
515.3764153801
 20
394.9271507025
 10
514.3290567421
 20
393.97324888
 10
513.1922622866
 20
393.054103104
 10
511.9694844211
 20
392.17250479
 10
510.6644366817
 20
391.3311313231
 10
509.2810824556
 20
390.5325379269
 10
507.8236229441
 20
389.7791499033
 10
506.2964844037
 20
389.0732552669
 10
504.7043047041
 20
388.4169977966
 10
503.0519192427
 20
387.8123705247
 10
501.3443462598
 20
387.2612096844
 10
499.5867715984
 20
386.765189133
 10
497.784532955
 20
386.3258152687
 10
495.9431036692
 20
385.9444224554
 10
494.0680761011
 20
385.6221689705
 10
492.1651446479
 20
385.3600334874
 10
490.2400884499
 20
385.1588121029
 10
488.2987538394
 20
385.0191159196
 10
486.3470365858
 20
384.9413691904
 10
484.3908639904
 20
384.9258080294
 10
482.4361768849
 20
384.9724796954
 10
480.4889115899
 20
385.0812424481
 10
478.5549818861
 20
385.2517659786
 10
476.6402610545
 20
385.4835324125
 10
474.7505640392
 20
385.7758378828
 10
472.8916297879
 20
386.1277946674
 10
471.069103823
 20
386.5383338851
 10
469.2885210959
 20
387.0062087417
 10
467.5552891778
 20
387.5299983168
 10
465.874671837
 20
388.1081118786
 10
464.2517730532
 20
388.7387937151
 10
462.6915215167
 20
389.4201284665
 10
461.1986556601
 20
390.1500469414
 10
459.7777092679
 20
390.9263324014
  0
LWPOLYLINE
  5
A7
330
1F
100
AcDbEntity
  8
0
  6
Continuous
 62
     7
370
    25
100
AcDbPolyline
 90
       52
 70
   128
 43
0.0
 10
534.88
 20
364.590535792
 10
534.8266487401
 20
363.2574786331
 10
534.6667088148
 20
361.9272662854
 10
534.4005215438
 20
360.602737489
 10
534.0286549842
 20
359.2867188551
 10
533.551902718
 20
357.9820188339
 10
532.9712821586
 20
356.6914217209
 10
532.2880323795
 20
355.4176817155
 10
531.5036114702
 20
354.1635170428
 10
530.6196934244
 20
352.9316041537
 10
529.6381645678
 20
351.7245720122
 10
528.5611195323
 20
350.5449964859
 10
527.3908567865
 20
349.3953948482
 10
526.1298737299
 20
348.2782204071
 10
524.780861364
 20
347.1958572691
 10
523.3466985491
 20
346.1506152516
 10
521.830445861
 20
345.1447249539
 10
520.2353390593
 20
344.1803329964
 10
518.5647821823
 20
343.2594974403
 10
516.8223402826
 20
342.3841833951
 10
515.011731819
 20
341.5562588249
 10
513.1368207211
 20
340.7774905626
 10
511.2016081439
 20
340.0495405389
 10
509.2102239283
 20
339.3739622359
 10
507.1669177888
 20
338.7521973715
 10
505.0760502436
 20
338.1855728235
 10
502.9420833094
 20
337.6752977972
 10
500.7695709791
 20
337.2224612451
 10
498.5631495036
 20
336.8280295434
 10
496.3275274975
 20
336.4928444291
 10
494.0674758908
 20
336.2176212041
 10
491.7878177476
 20
336.0029472087
 10
489.4934179732
 20
335.8492805681
 10
487.1891729323
 20
335.7569492145
 10
484.88
 20
335.7261501877
 10
482.5708270677
 20
335.7569492145
 10
480.2665820268
 20
335.8492805681
 10
477.9721822524
 20
336.0029472087
 10
475.6925241092
 20
336.2176212041
 10
473.4324725025
 20
336.4928444291
 10
471.1968504964
 20
336.8280295434
 10
468.9904290209
 20
337.2224612451
 10
466.8179166906
 20
337.6752977972
 10
464.6839497564
 20
338.1855728235
 10
462.5930822112
 20
338.7521973715
 10
460.5497760717
 20
339.3739622359
 10
458.5583918561
 20
340.0495405389
 10
456.6231792789
 20
340.7774905626
 10
454.748268181
 20
341.5562588249
 10
452.9376597174
 20
342.3841833951
 10
451.1952178177
 20
343.2594974403
 10
449.5246609407
 20
344.1803329964
  0
ARC
  5
A8
330
1F
100
AcDbEntity
  8
0
  6
Continuous
 62
     7
370
    25
100
AcDbCircle
 10
500.1281326093
 20
391.1149326755
 30
0.0
 40
21.39928914015516
100
AcDbArc
 50
26.067247947
 51
62.5812707818
  0
LWPOLYLINE
  5
A9
330
1F
100
AcDbEntity
  8
0
  6
Continuous
 62
     7
370
    25
100
AcDbPolyline
 90
       40
 70
   128
 43
0.0
 10
450.409337225
 20
400.518331515
 10
450.5896331667
 20
400.9232500746
 10
451.1478530597
 20
402.0056804494
 10
451.8085163742
 20
403.0687149488
 10
452.5696166975
 20
404.1091251719
 10
453.428842593
 20
405.1237514269
 10
454.3835846199
 20
406.1095123275
 10
455.4309432579
 20
407.06341415
 10
456.5677377134
 20
407.982559926
 10
457.7905155789
 20
408.86415824
 10
459.0955633183
 20
409.7055317069
 10
460.4789175444
 20
410.5041251031
 10
461.9363770559
 20
411.2575131267
 10
463.4635155963
 20
411.9634077631
 10
465.0556952959
 20
412.6196652334
 10
466.7080807573
 20
413.2242925053
 10
468.4156537402
 20
413.7754533456
 10
470.1732284016
 20
414.271473897
 10
471.975467045
 20
414.7108477613
 10
473.8168963308
 20
415.0922405746
 10
475.6919238989
 20
415.4144940594
 10
477.5948553521
 20
415.6766295425
 10
479.5199115501
 20
415.8778509271
 10
481.4612461606
 20
416.0175471103
 10
483.4129634142
 20
416.0952938396
 10
485.3691360096
 20
416.1108550006
 10
487.3238231151
 20
416.0641833345
 10
489.2710884101
 20
415.9554205818
 10
491.2050181139
 20
415.7848970513
 10
493.1197389455
 20
415.5531306174
 10
495.0094359608
 20
415.2608251471
 10
496.8683702121
 20
414.9088683625
 10
498.690896177
 20
414.4983291449
 10
500.4714789041
 20
414.0304542882
 10
502.2047108222
 20
413.5066647132
 10
503.885328163
 20
412.9285511514
 10
505.5082269468
 20
412.2978693148
 10
507.0684784833
 20
411.6165345635
 10
508.5613443399
 20
410.8866160886
 10
509.9822907321
 20
410.1103306285
  0
LINE
  5
AA
330
1F
100
AcDbEntity
  8
0
  6
Continuous
 62
     7
370
    25
100
AcDbLine
 10
500.2949278299
 20
410.2327918453
 30
0.0
 11
510.1944227665
 21
404.5179350625
 31
0.0
  0
LINE
  5
AB
330
1F
100
AcDbEntity
  8
0
  6
Continuous
 62
     7
370
    25
100
AcDbLine
 10
496.9008152802
 20
408.2734123769
 30
0.0
 11
500.2949278299
 21
410.2327918453
 31
0.0
  0
ARC
  5
AC
330
1F
100
AcDbEntity
  8
0
  6
Continuous
 62
     7
370
    25
100
AcDbCircle
 10
500.4721978325
 20
395.6663056366
 30
0.0
 40
9.356715012492995
100
AcDbArc
 50
320.5058192959
 51
47.4434356568
  0
LWPOLYLINE
  5
AD
330
1F
100
AcDbEntity
  8
0
  6
Continuous
 62
     7
370
    25
100
AcDbPolyline
 90
       39
 70
   128
 43
0.0
 10
462.0673264016
 20
389.7154363271
 10
461.4682622902
 20
390.5570094742
 10
460.9431066358
 20
391.4551997328
 10
460.5212262385
 20
392.3713549998
 10
460.2044412929
 20
393.3015225413
 10
459.9941185615
 20
394.2416891677
 10
459.8911654776
 20
395.1877985485
 10
459.8960262301
 20
396.1357687133
 10
460.0086798476
 20
397.0815096635
 10
460.2286402881
 20
398.0209410182
 10
460.5549585367
 20
398.9500096193
 10
460.9862266997
 20
399.8647070185
 10
461.5205840791
 20
400.7610867719
 10
462.1557252004
 20
401.6352814666
 10
462.8889097596
 20
402.4835194067
 10
463.7169744465
 20
403.3021408863
 10
464.6363465922
 20
404.087613979
 10
465.6430595834
 20
404.8365497765
 10
466.7327699769
 20
405.5457170101
 10
467.9007762385
 20
406.2120559917
 10
469.142039028
 20
406.8326918147
 10
470.4512029415
 20
407.4049467582
 10
471.822619617
 20
407.9263518392
 10
473.2503721041
 20
408.394657466
 10
474.7283003927
 20
408.8078431429
 10
476.2500279902
 20
409.1641261886
 10
477.8089894327
 20
409.4619694267
 10
479.3984586116
 20
409.7000878186
 10
481.0115777933
 20
409.877454007
 10
482.6413872068
 20
409.993302749
 10
484.2808550713
 20
410.0471342175
 10
485.9229079349
 20
410.0387161576
 10
487.5604611926
 20
409.968084889
 10
489.186449653
 20
409.8355451489
 10
490.7938580209
 20
409.6416687773
 10
492.3757511643
 20
409.38729225
 10
493.9253040363
 20
409.0735130697
 10
495.4358311214
 20
408.7016850304
 10
496.9008152802
 20
408.2734123769
  0
LINE
  5
AE
330
1F
100
AcDbEntity
  8
0
  6
Continuous
 62
     7
370
    25
100
AcDbLine
 10
506.8003102168
 20
402.5585555942
 30
0.0
 11
510.1944227665
 21
404.5179350625
 31
0.0
  0
LWPOLYLINE
  5
AF
330
1F
100
AcDbEntity
  8
0
  6
Continuous
 62
     7
370
    25
100
AcDbPolyline
 90
       18
 70
   128
 43
0.0
 10
449.5246609407
 20
344.1803329964
 10
447.929554139
 20
345.1447249539
 10
446.4133014509
 20
346.1506152516
 10
444.979138636
 20
347.1958572691
 10
443.6301262701
 20
348.2782204071
 10
442.3691432135
 20
349.3953948482
 10
441.1988804677
 20
350.5449964859
 10
440.1218354322
 20
351.7245720122
 10
439.1403065756
 20
352.9316041537
 10
438.2563885298
 20
354.1635170428
 10
437.4719676205
 20
355.4176817155
 10
436.7887178414
 20
356.6914217209
 10
436.208097282
 20
357.9820188339
 10
435.7313450158
 20
359.2867188551
 10
435.3594784562
 20
360.602737489
 10
435.0932911852
 20
361.9272662854
 10
434.9333512599
 20
363.2574786331
 10
434.88
 20
364.590535792
  0
LINE
  5
B0
330
1F
100
AcDbEntity
  8
0
  6
Continuous
 62
     7
370
    25
100
AcDbLine
 10
506.8003102168
 20
402.5585555942
 30
0.0
 11
506.8003102168
 21
389.2973919986
 31
0.0
  0
LINE
  5
B1
330
1F
100
AcDbEntity
  8
0
  6
Continuous
 62
     7
370
    25
100
AcDbLine
 10
496.9008152802
 20
408.2734123769
 30
0.0
 11
496.9008152802
 21
386.1345248865
 31
0.0
  0
LWPOLYLINE
  5
B2
330
1F
100
AcDbEntity
  8
0
  6
Continuous
 62
     7
370
    25
100
AcDbPolyline
 90
       42
 70
   128
 43
0.0
 10
524.4378806268
 20
346.9367218964
 10
524.0953481419
 20
346.2518316585
 10
523.4274190432
 20
345.0955861184
 10
522.6572691189
 20
343.960723208
 10
521.7869406681
 20
342.8502523797
 10
520.8187416453
 20
341.7671184026
 10
519.7552395405
 20
340.7141935532
 10
518.5992545698
 20
339.694269999
 10
517.3538521978
 20
338.7100523939
 10
516.0223350075
 20
337.764150706
 10
514.6082339432
 20
336.8590732965
 10
513.1152989468
 20
335.9972202682
 10
511.5474890134
 20
335.1808771001
 10
509.9089616932
 20
334.4122085877
 10
508.2040620659
 20
333.6932531018
 10
506.4373112191
 20
333.0259171829
 10
504.6133942582
 20
332.4119704859
 10
502.7371478832
 20
331.8530410873
 10
500.8135475623
 20
331.3506111671
 10
498.8476943375
 20
330.9060130793
 10
496.8448012984
 20
330.5204258181
 10
494.8101797571
 20
330.1948718916
 10
492.7492251642
 20
329.9302146102
 10
490.6674028008
 20
329.7271557975
 10
488.5702332856
 20
329.5862339289
 10
486.4632779352
 20
329.507822704
 10
484.3521240162
 20
329.4921300551
 10
482.2423699295
 20
329.5391975964
 10
480.1396103636
 20
329.6489005133
 10
478.0494214588
 20
329.8209478932
 10
475.9773460204
 20
330.0548834975
 10
473.9288788199
 20
330.350086971
 10
471.9094520241
 20
330.7057754872
 10
469.9244207898
 20
331.121005824
 10
467.979049063
 20
331.5946768653
 10
466.0784956198
 20
332.1255325206
 10
464.2278003863
 20
332.7121650562
 10
462.4318710735
 20
333.3530188279
 10
460.6954701632
 20
334.0463944069
 10
459.0232022783
 20
334.7904530857
 10
457.4195019727
 20
335.5832217545
 10
455.8886219714
 20
336.4225981332
  0
LINE
  5
B3
330
1F
100
AcDbEntity
  8
0
  6
Continuous
 62
     7
370
    25
100
AcDbLine
 10
456.5957287525
 20
336.0142613773
 30
0.0
 11
455.8886219714
 21
336.4225981332
 31
0.0
  0
LWPOLYLINE
  5
B4
330
1F
100
AcDbEntity
  8
0
  6
Continuous
 62
     7
370
    25
100
AcDbPolyline
 90
       32
 70
   128
 43
0.0
 10
513.1688671166
 20
336.0169149472
 10
513.1642712475
 20
336.0142613773
 10
511.6452242544
 20
335.1820885718
 10
510.052815642
 20
334.3969510519
 10
508.3914100917
 20
333.6610008249
 10
506.6655614006
 20
332.9762550792
 10
504.88
 20
332.3445906554
 10
503.0396199896
 20
331.7677389016
 10
501.149465723
 20
331.2472809286
 10
499.2147179818
 20
330.7846432753
 10
497.240679775
 20
330.3810939995
 10
495.2327618041
 20
330.0377392016
 10
493.1964676327
 20
329.7555199933
 10
491.1373786016
 20
329.5352099179
 10
489.0611385307
 20
329.3774128299
 10
486.9734382497
 20
329.2825612401
 10
484.88
 20
329.2509151303
 10
482.7865617503
 20
329.2825612401
 10
480.6988614693
 20
329.3774128299
 10
478.6226213984
 20
329.5352099179
 10
476.5635323673
 20
329.7555199933
 10
474.5272381959
 20
330.0377392016
 10
472.519320225
 20
330.3810939995
 10
470.5452820182
 20
330.7846432753
 10
468.610534277
 20
331.2472809286
 10
466.7203800104
 20
331.7677389016
 10
464.88
 20
332.3445906554
 10
463.0944385994
 20
332.9762550792
 10
461.3685899083
 20
333.6610008249
 10
459.707184358
 20
334.3969510519
 10
458.1147757456
 20
335.1820885718
 10
456.5957287525
 20
336.0142613773
  0
ARC
  5
B5
330
1F
100
AcDbEntity
  8
0
  6
Continuous
 62
     7
370
    25
100
AcDbCircle
 10
467.1375636381
 20
358.2942123884
 30
0.0
 40
24.59484089704229
100
AcDbArc
 50
207.5022503042
 51
242.7824736836
  0
LINE
  5
B6
330
1F
100
AcDbEntity
  8
0
  6
Continuous
 62
     7
370
    25
100
AcDbLine
 10
500.2949278299
 20
410.2327918453
 30
0.0
 11
500.2949278299
 21
386.9567313007
 31
0.0
  0
LWPOLYLINE
  5
B7
330
1F
100
AcDbEntity
  8
0
  6
HIDDEN
 62
     7
370
    18
100
AcDbPolyline
 90
       18
 70
   128
 43
0.0
 10
520.2353390593
 20
385.0007385876
 10
521.830445861
 20
384.0363466301
 10
523.3466985491
 20
383.0304563324
 10
524.780861364
 20
381.9852143149
 10
526.1298737299
 20
380.9028511769
 10
527.3908567865
 20
379.7856767358
 10
528.5611195323
 20
378.6360750981
 10
529.6381645678
 20
377.4564995717
 10
530.6196934244
 20
376.2494674303
 10
531.5036114702
 20
375.0175545412
 10
532.2880323795
 20
373.7633898685
 10
532.9712821586
 20
372.4896498631
 10
533.551902718
 20
371.1990527501
 10
534.0286549842
 20
369.8943527289
 10
534.4005215438
 20
368.578334095
 10
534.6667088148
 20
367.2538052986
 10
534.8266487401
 20
365.9235929509
 10
534.88
 20
364.590535792
  0
LWPOLYLINE
  5
B8
330
1F
100
AcDbEntity
  8
0
  6
HIDDEN
 62
     7
370
    18
100
AcDbPolyline
 90
       49
 70
   128
 43
0.0
 10
519.350662775
 20
400.518331515
 10
519.4105184165
 20
400.3757866877
 10
519.8119931561
 20
399.2704418795
 10
520.1073805807
 20
398.1540080255
 10
520.2957836082
 20
397.0298756985
 10
520.3766300649
 20
395.9014588515
 10
520.3496744227
 20
394.7721844495
 10
520.2149985451
 20
393.6454820615
 10
519.9730114383
 20
392.5247734458
 10
519.6244480091
 20
391.4134621576
 10
519.1703668333
 20
390.3149232128
 10
518.6121469403
 20
389.2324928379
 10
517.9514836258
 20
388.1694583385
 10
517.1903833025
 20
387.1290481155
 10
516.331157407
 20
386.1144218604
 10
515.3764153801
 20
385.1286609598
 10
514.3290567421
 20
384.1747591373
 10
513.1922622866
 20
383.2556133613
 10
511.9694844211
 20
382.3740150473
 10
510.6644366817
 20
381.5326415804
 10
509.2810824556
 20
380.7340481842
 10
507.8236229441
 20
379.9806601606
 10
506.2964844037
 20
379.2747655243
 10
504.7043047041
 20
378.6185080539
 10
503.0519192427
 20
378.0138807821
 10
501.3443462598
 20
377.4627199417
 10
499.5867715984
 20
376.9666993904
 10
497.784532955
 20
376.527325526
 10
495.9431036692
 20
376.1459327127
 10
494.0680761011
 20
375.8236792279
 10
492.1651446479
 20
375.5615437448
 10
490.2400884499
 20
375.3603223602
 10
488.2987538394
 20
375.220626177
 10
486.3470365858
 20
375.1428794477
 10
484.3908639904
 20
375.1273182867
 10
482.4361768849
 20
375.1739899528
 10
480.4889115899
 20
375.2827527055
 10
478.5549818861
 20
375.453276236
 10
476.6402610545
 20
375.6850426699
 10
474.7505640392
 20
375.9773481402
 10
472.8916297879
 20
376.3293049248
 10
471.069103823
 20
376.7398441424
 10
469.2885210959
 20
377.2077189991
 10
467.5552891778
 20
377.7315085742
 10
465.874671837
 20
378.3096221359
 10
464.2517730532
 20
378.9403039725
 10
462.6915215167
 20
379.6216387238
 10
461.1986556601
 20
380.3515571988
 10
459.7777092679
 20
381.1278426588
  0
LWPOLYLINE
  5
B9
330
1F
100
AcDbEntity
  8
0
  6
HIDDEN
 62
     7
370
    18
100
AcDbPolyline
 90
       20
 70
   128
 43
0.0
 10
459.7777092679
 20
381.1278426588
 10
458.4329977076
 20
381.9481375506
 10
457.1686048241
 20
382.8099506654
 10
455.9883705369
 20
383.7106647052
 10
454.8958791789
 20
384.647544231
 10
453.8944486103
 20
385.6177439706
 10
452.9871201428
 20
386.6183174591
 10
452.1766493033
 20
387.6462259878
 10
451.465497465
 20
388.6983478323
 10
450.8558243727
 20
389.7714877331
 10
450.3494815835
 20
390.8623865996
 10
449.9480068439
 20
391.9677314078
 10
449.6526194193
 20
393.0841652618
 10
449.4642163918
 20
394.2082975888
 10
449.3833699351
 20
395.3367144358
 10
449.4103255773
 20
396.4659888378
 10
449.5450014549
 20
397.5926912258
 10
449.7869885617
 20
398.7133998415
 10
450.1355519909
 20
399.8247111297
 10
450.409337225
 20
400.518331515
  0
LWPOLYLINE
  5
BA
330
1F
100
AcDbEntity
  8
0
  6
HIDDEN
 62
     7
370
    18
100
AcDbPolyline
 90
       37
 70
   128
 43
0.0
 10
507.6926735984
 20
389.7154363271
 10
507.0103356279
 20
388.9054453632
 10
506.1991185919
 20
388.0812213965
 10
505.2959206367
 20
387.2895194016
 10
504.3046385924
 20
386.5337551612
 10
503.2295493257
 20
385.8171894054
 10
502.0752912883
 20
385.142913743
 10
500.8468445038
 20
384.5138373231
 10
499.5495090819
 20
383.9326742836
 10
498.1888823506
 20
383.4019320411
 10
496.7708347075
 20
382.9239004725
 10
495.3014842911
 20
382.5006420358
 10
493.7871705852
 20
382.133982871
 10
492.2344270664
 20
381.8255049221
 10
490.6499530163
 20
381.5765391109
 10
489.040584617
 20
381.3881595958
 10
487.413265457
 20
381.2611791363
 10
485.7750165729
 20
381.1961455872
 10
484.1329061573
 20
381.1933395345
 10
482.4940190634
 20
381.2527730848
 10
480.8654262375
 20
381.3741898132
 10
479.2541542114
 20
381.5570658697
 10
477.6671547866
 20
381.800612239
 10
476.111275041
 20
382.1037781452
 10
474.5932277873
 20
382.4652555849
 10
473.1195626107
 20
382.8834849707
 10
471.6966376105
 20
383.3566618602
 10
470.3305919688
 20
383.882744741
 10
469.0273194627
 20
384.4594638387
 10
467.792443036
 20
385.0843309102
 10
466.6312905387
 20
385.7546499788
 10
465.5488717405
 20
386.4675289659
 10
464.5498567162
 20
387.2198921691
 10
463.6385556963
 20
388.0084935322
 10
462.8189004714
 20
388.82993065
 10
462.0944274278
 20
389.6806594483
 10
462.0673264016
 20
389.7154363271
  0
LWPOLYLINE
  5
BB
330
1F
100
AcDbEntity
  8
0
  6
HIDDEN
 62
     7
370
    18
100
AcDbPolyline
 90
       52
 70
   128
 43
0.0
 10
434.88
 20
364.590535792
 10
434.9333512599
 20
365.9235929509
 10
435.0932911852
 20
367.2538052986
 10
435.3594784562
 20
368.578334095
 10
435.7313450158
 20
369.8943527289
 10
436.208097282
 20
371.1990527501
 10
436.7887178414
 20
372.4896498631
 10
437.4719676205
 20
373.7633898685
 10
438.2563885298
 20
375.0175545412
 10
439.1403065756
 20
376.2494674303
 10
440.1218354322
 20
377.4564995717
 10
441.1988804677
 20
378.6360750981
 10
442.3691432135
 20
379.7856767358
 10
443.6301262701
 20
380.9028511769
 10
444.979138636
 20
381.9852143149
 10
446.4133014509
 20
383.0304563324
 10
447.929554139
 20
384.0363466301
 10
449.5246609407
 20
385.0007385876
 10
451.1952178177
 20
385.9215741437
 10
452.9376597174
 20
386.7968881889
 10
454.748268181
 20
387.6248127591
 10
456.6231792789
 20
388.4035810214
 10
458.5583918561
 20
389.1315310451
 10
460.5497760717
 20
389.8071093481
 10
462.5930822112
 20
390.4288742125
 10
464.6839497564
 20
390.9954987605
 10
466.8179166906
 20
391.5057737868
 10
468.9904290209
 20
391.9586103389
 10
471.1968504964
 20
392.3530420406
 10
473.4324725025
 20
392.6882271549
 10
475.6925241092
 20
392.9634503799
 10
477.9721822524
 20
393.1781243753
 10
480.2665820268
 20
393.3317910159
 10
482.5708270677
 20
393.4241223695
 10
484.88
 20
393.4549213963
 10
487.1891729323
 20
393.4241223695
 10
489.4934179732
 20
393.3317910159
 10
491.7878177476
 20
393.1781243753
 10
494.0674758908
 20
392.9634503799
 10
496.3275274975
 20
392.6882271549
 10
498.5631495036
 20
392.3530420406
 10
500.7695709791
 20
391.9586103389
 10
502.9420833094
 20
391.5057737868
 10
505.0760502436
 20
390.9954987605
 10
507.1669177888
 20
390.4288742125
 10
509.2102239283
 20
389.8071093481
 10
511.2016081439
 20
389.1315310451
 10
513.1368207211
 20
388.4035810214
 10
515.011731819
 20
387.6248127591
 10
516.8223402826
 20
386.7968881889
 10
518.5647821823
 20
385.9215741437
 10
520.2353390593
 20
385.0007385876
  0
LWPOLYLINE
  5
BC
330
1F
100
AcDbEntity
  8
0
  6
HIDDEN
 62
     7
370
    18
100
AcDbPolyline
 90
       88
 70
   128
 43
0.0
 10
506.8003102168
 20
360.0984333761
 10
507.5421805953
 20
359.2527160229
 10
508.1862754401
 20
358.3807072978
 10
508.7298158165
 20
357.4861694656
 10
509.1704566303
 20
356.5729619921
 10
509.5062967453
 20
355.645024893
 10
509.7358871858
 20
354.7063617348
 10
509.8582373886
 20
353.7610223612
 10
509.8728194759
 20
352.8130854205
 10
509.7795705337
 20
351.866640768
 10
509.5788928827
 20
350.9257718205
 10
509.2716523427
 20
349.9945379388
 10
508.859174497
 20
349.076956913
 10
508.3432389731
 20
348.1769876287
 10
507.7260717648
 20
347.2985129855
 10
507.0103356279
 20
346.4453231452
 10
506.1991185919
 20
345.6210991785
 10
505.2959206367
 20
344.8293971836
 10
504.3046385924
 20
344.0736329432
 10
503.2295493257
 20
343.3570671873
 10
502.0752912883
 20
342.6827915249
 10
500.8468445038
 20
342.053715105
 10
499.5495090819
 20
341.4725520655
 10
498.1888823506
 20
340.941809823
 10
496.7708347075
 20
340.4637782545
 10
495.3014842911
 20
340.0405198177
 10
493.7871705852
 20
339.673860653
 10
492.2344270664
 20
339.365382704
 10
490.6499530163
 20
339.1164168929
 10
489.040584617
 20
338.9280373777
 10
487.413265457
 20
338.8010569183
 10
485.7750165729
 20
338.7360233692
 10
484.1329061573
 20
338.7332173165
 10
482.4940190634
 20
338.7926508667
 10
480.8654262375
 20
338.9140675952
 10
479.2541542114
 20
339.0969436516
 10
477.6671547866
 20
339.340490021
 10
476.111275041
 20
339.6436559271
 10
474.5932277873
 20
340.0051333668
 10
473.1195626107
 20
340.4233627526
 10
471.6966376105
 20
340.8965396421
 10
470.3305919688
 20
341.4226225229
 10
469.0273194627
 20
341.9993416207
 10
467.792443036
 20
342.6242086922
 10
466.6312905387
 20
343.2945277607
 10
465.5488717405
 20
344.0074067478
 10
464.5498567162
 20
344.7597699511
 10
463.6385556963
 20
345.5483713142
 10
462.8189004714
 20
346.369808432
 10
462.0944274278
 20
347.2205372302
 10
461.4682622902
 20
348.0968872561
 10
460.9431066358
 20
348.9950775147
 10
460.5212262385
 20
349.9112327817
 10
460.2044412929
 20
350.8414003233
 10
459.9941185615
 20
351.7815669496
 10
459.8911654776
 20
352.7276763304
 10
459.8960262301
 20
353.6756464952
 10
460.0086798476
 20
354.6213874454
 10
460.2286402881
 20
355.5608188001
 10
460.5549585367
 20
356.4898874012
 10
460.9862266997
 20
357.4045848005
 10
461.5205840791
 20
358.3009645539
 10
462.1557252004
 20
359.1751592486
 10
462.8889097596
 20
360.0233971887
 10
463.7169744465
 20
360.8420186682
 10
464.6363465922
 20
361.6274917609
 10
465.6430595834
 20
362.3764275584
 10
466.7327699769
 20
363.0855947921
 10
467.9007762385
 20
363.7519337736
 10
469.142039028
 20
364.3725695967
 10
470.4512029415
 20
364.9448245401
 10
471.822619617
 20
365.4662296212
 10
473.2503721041
 20
365.9345352479
 10
474.7283003927
 20
366.3477209249
 10
476.2500279902
 20
366.7040039705
 10
477.8089894327
 20
367.0018472087
 10
479.3984586116
 20
367.2399656005
 10
481.0115777933
 20
367.4173317889
 10
482.6413872068
 20
367.5331805309
 10
484.2808550713
 20
367.5870119994
 10
485.9229079349
 20
367.5785939396
 10
487.5604611926
 20
367.507962671
 10
489.186449653
 20
367.3754229308
 10
490.7938580209
 20
367.1815465592
 10
492.3757511643
 20
366.927170032
 10
493.9253040363
 20
366.6133908517
 10
495.4358311214
 20
366.2415628124
 10
496.9008152802
 20
365.8132901589
  0
LINE
  5
BD
330
1F
100
AcDbEntity
  8
0
  6
HIDDEN
 62
     7
370
    18
100
AcDbLine
 10
506.8003102168
 20
389.2973919986
 30
0.0
 11
506.8003102168
 21
360.0984333761
 31
0.0
  0
LINE
  5
BE
330
1F
100
AcDbEntity
  8
0
  6
HIDDEN
 62
     7
370
    18
100
AcDbLine
 10
496.9008152802
 20
386.1345248865
 30
0.0
 11
496.9008152802
 21
365.8132901589
 31
0.0
  0
LINE
  5
BF
330
1F
100
AcDbEntity
  8
0
  6
HIDDEN
 62
     7
370
    18
100
AcDbLine
 10
525.88
 20
363.3657245742
 30
0.0
 11
525.8797219512
 21
363.2785561855
 31
0.0
  0
LWPOLYLINE
  5
C0
330
1F
100
AcDbEntity
  8
0
  6
HIDDEN
 62
     7
370
    18
100
AcDbPolyline
 90
       22
 70
   128
 43
0.0
 10
513.8713780286
 20
369.895330718
 10
515.3253781073
 20
369.0115725045
 10
516.6986425163
 20
368.0857760242
 10
517.9875296054
 20
367.120396323
 10
519.1886214777
 20
366.1179934142
 10
520.2987330535
 20
365.0812254901
 10
521.3149205165
 20
364.012841873
 10
522.2344891201
 20
362.9156757241
 10
523.0550003338
 20
361.7926365308
 10
523.7742783093
 20
360.6467023911
 10
524.3904156508
 20
359.4809121164
 10
524.9017784727
 20
358.298357173
 10
525.3070107328
 20
357.1021734839
 10
525.605037828
 20
355.8955331132
 10
525.795069444
 20
354.6816358543
 10
525.8766016512
 20
353.4637007445
 10
525.8494182407
 20
352.2449575288
 10
525.7135912981
 20
351.0286380951
 10
525.469481012
 20
349.8179679038
 10
525.117734719
 20
348.6161574347
 10
524.659285187
 20
347.4263936731
 10
524.4378806268
 20
346.9367218964
  0
LWPOLYLINE
  5
C1
330
1F
100
AcDbEntity
  8
0
  6
HIDDEN
 62
     7
370
    18
100
AcDbPolyline
 90
       31
 70
   128
 43
0.0
 10
513.1642712475
 20
368.6705858502
 10
514.6057930191
 20
367.793658687
 10
515.9658384583
 20
366.8743807624
 10
517.240679775
 20
365.9152717535
 10
518.4268227178
 20
364.9189605112
 10
519.5210161514
 20
363.8881778554
 10
520.5202609675
 20
362.8257490898
 10
521.4218183057
 20
361.7345862578
 10
522.2232170599
 20
360.6176801608
 10
522.9222606518
 20
359.4780921608
 10
523.5170330516
 20
358.3189457894
 10
524.0059040294
 20
357.143418186
 10
524.3875336238
 20
355.9547313903
 10
524.6608758147
 20
354.75614351
 10
524.8251813902
 20
353.5509397913
 10
524.88
 20
352.3424236137
 10
524.8251813902
 20
351.1339074361
 10
524.6608758147
 20
349.9287037174
 10
524.3875336238
 20
348.7301158371
 10
524.0059040294
 20
347.5414290414
 10
523.5170330516
 20
346.3659014381
 10
522.9222606518
 20
345.2067550666
 10
522.2232170599
 20
344.0671670666
 10
521.4218183057
 20
342.9502609696
 10
520.5202609675
 20
341.8590981376
 10
519.5210161514
 20
340.796669372
 10
518.4268227178
 20
339.7658867163
 10
517.240679775
 20
338.769575474
 10
515.9658384583
 20
337.810466465
 10
514.6057930191
 20
336.8911885405
 10
513.1688671166
 20
336.0169149472
  0
LINE
  5
C2
330
1F
100
AcDbEntity
  8
0
  6
HIDDEN
 62
     7
370
    18
100
AcDbLine
 10
443.88
 20
363.3657245742
 30
0.0
 11
443.8802780488
 21
363.4528929629
 31
0.0
  0
LWPOLYLINE
  5
C3
330
1F
100
AcDbEntity
  8
0
  6
HIDDEN
 62
     7
370
    18
100
AcDbPolyline
 90
       52
 70
   128
 43
0.0
 10
445.3221193732
 20
346.9367218964
 10
444.8582215273
 20
348.0195716782
 10
444.4529892672
 20
349.2157553673
 10
444.154962172
 20
350.422395738
 10
443.964930556
 20
351.6362929969
 10
443.8833983488
 20
352.8542281067
 10
443.9105817593
 20
354.0729713224
 10
444.0464087019
 20
355.2892907561
 10
444.290518988
 20
356.4999609474
 10
444.642265281
 20
357.7017714165
 10
445.100714813
 20
358.8915351781
 10
445.6646518581
 20
360.0660971927
 10
446.3325809568
 20
361.2223427328
 10
447.1027308811
 20
362.3572056432
 10
447.9730593319
 20
363.4676764715
 10
448.9412583547
 20
364.5508104486
 10
450.0047604595
 20
365.603735298
 10
451.1607454302
 20
366.6236588522
 10
452.4061478022
 20
367.6078764573
 10
453.7376649925
 20
368.5537781452
 10
455.1517660568
 20
369.4588555547
 10
456.6447010532
 20
370.320708583
 10
458.2125109866
 20
371.1370517511
 10
459.8510383068
 20
371.9057202635
 10
461.5559379341
 20
372.6246757494
 10
463.3226887809
 20
373.2920116683
 10
465.1466057418
 20
373.9059583653
 10
467.0228521168
 20
374.4648877639
 10
468.9464524377
 20
374.9673176841
 10
470.9123056625
 20
375.4119157719
 10
472.9151987016
 20
375.7975030331
 10
474.9498202429
 20
376.1230569596
 10
477.0107748358
 20
376.387714241
 10
479.0925971992
 20
376.5907730537
 10
481.1897667144
 20
376.7316949223
 10
483.2967220648
 20
376.8101061472
 10
485.4078759838
 20
376.8257987961
 10
487.5176300705
 20
376.7787312548
 10
489.6203896364
 20
376.6690283379
 10
491.7105785412
 20
376.496980958
 10
493.7826539796
 20
376.2630453537
 10
495.8311211801
 20
375.9678418802
 10
497.8505479759
 20
375.612153364
 10
499.8355792102
 20
375.1969230272
 10
501.780950937
 20
374.7232519859
 10
503.6815043802
 20
374.1923963306
 10
505.5321996137
 20
373.605763795
 10
507.3281289265
 20
372.9649100233
 10
509.0645298368
 20
372.2715344443
 10
510.7367977217
 20
371.5274757655
 10
512.3404980273
 20
370.7347070967
 10
513.8713780286
 20
369.895330718
  0
SPLINE
  5
C4
330
1F
100
AcDbEntity
  8
0
  6
HIDDEN
 62
     7
370
    18
100
AcDbSpline
210
0.0
220
0.0
230
1.0
 70
     8
 71
     3
 72
     8
 73
     4
 74
     0
 42
0.00000001
 43
0.00000001
 40
0.0
 40
0.0
 40
0.0
 40
0.0
 40
1.0
 40
1.0
 40
1.0
 40
1.0
 10
497.6361837413199
 20
365.4212685234415
 30
0.0
 10
497.3912453946152
 20
365.5522705044715
 30
0.0
 10
497.1461302481753
 20
365.6829580317195
 30
0.0
 10
496.9008152801713
 20
365.8132901588509
 30
0.0
  0
SPLINE
  5
C5
330
1F
100
AcDbEntity
  8
0
  6
HIDDEN
 62
     7
370
    18
100
AcDbSpline
210
0.0
220
0.0
230
1.0
 70
     8
 71
     3
 72
     8
 73
     4
 74
     0
 42
0.00000001
 43
0.00000001
 40
0.0
 40
0.0
 40
0.0
 40
0.0
 40
1.0
 40
1.0
 40
1.0
 40
1.0
 10
507.5356786779316
 20
359.7064117406825
 30
0.0
 10
507.2907403312268
 20
359.8374137217125
 30
0.0
 10
507.0456251847869
 20
359.9681012489606
 30
0.0
 10
506.800310216783
 20
360.0984333760919
 30
0.0
  0
LWPOLYLINE
  5
C6
330
1F
100
AcDbEntity
  8
0
  6
HIDDEN
 62
     7
370
    18
100
AcDbPolyline
 90
       90
 70
   128
 43
0.0
 10
507.5356786779
 20
359.7064117407
 10
508.3104548881
 20
358.8484787629
 10
508.9878732689
 20
357.963511935
 10
509.565119023
 20
357.055188456
 10
510.0397935886
 20
356.1272825764
 10
510.4099246059
 20
355.183649915
 10
510.673974113
 20
354.2282114381
 10
510.8308449356
 20
353.2649371676
 10
510.8798852469
 20
352.2978296844
 10
510.8208912753
 20
351.3309074972
 10
510.6541081516
 20
350.3681883446
 10
510.3802288903
 20
349.4136725009
 10
510.0003915097
 20
348.4713261543
 10
509.5161743038
 20
347.5450649262
 10
508.9295892836
 20
346.6387376018
 10
508.2430738174
 20
345.7561101368
 10
507.4594805025
 20
344.9008500101
 10
506.5820653126
 20
344.076510984
 10
505.6144740685
 20
343.286518338
 10
504.5607272889
 20
342.5341546363
 10
503.4252034846
 20
341.8225460877
 10
502.2126209648
 20
341.1546495561
 10
500.928018232
 20
340.5332402737
 10
499.5767330456
 20
339.96090031
 10
498.1643802429
 20
339.4400078422
 10
496.6968284084
 20
338.9727272738
 10
495.1801754887
 20
338.5610002413
 10
493.6207234542
 20
338.2065375458
 10
492.0249521136
 20
337.9108120447
 10
490.3994921891
 20
337.6750525316
 10
488.751097764
 20
337.5002386303
 10
487.0866182191
 20
337.3870967248
 10
485.4129697716
 20
337.3360969402
 10
483.737106737
 20
337.3474511901
 10
482.0659926332
 20
337.4211122955
 10
480.4065712452
 20
337.5567741809
 10
478.7657377726
 20
337.7538731464
 10
477.1503101788
 20
338.0115902098
 10
475.5670008612
 20
338.3288545095
 10
474.02238876
 20
338.7043477541
 10
472.5228920211
 20
339.1365097006
 10
471.0747413279
 20
339.6235446369
 10
469.6839540119
 20
340.1634288437
 10
468.3563090487
 20
340.7539190034
 10
467.0973230463
 20
341.3925615211
 10
465.9122273221
 20
342.0767027204
 10
464.8059461656
 20
342.8034998692
 10
463.7830763777
 20
343.5699329925
 10
462.8478681695
 20
344.3728174202
 10
462.0042075023
 20
345.2088170206
 10
461.2555999407
 20
346.0744580622
 10
460.6051560862
 20
346.9661436482
 10
460.0555786519
 20
347.8801686617
 10
459.6091512328
 20
348.8127351613
 10
459.2677288165
 20
349.7599681627
 10
459.0327300757
 20
350.7179317392
 10
458.9051314731
 20
351.6826453768
 10
458.8854632043
 20
352.6501005138
 10
458.9738069946
 20
353.6162771969
 10
459.1697957592
 20
354.5771607852
 10
459.4726151292
 20
355.5287586314
 10
459.8810068344
 20
356.4671166724
 10
460.3932739326
 20
357.3883358586
 10
461.0072878604
 20
358.2885883556
 10
461.7204972772
 20
359.1641334497
 10
462.5299386676
 20
360.0113330906
 10
463.4322486543
 20
360.8266670087
 10
464.4236779741
 20
361.6067473424
 10
465.5001070568
 20
362.3483327149
 10
466.6570631424
 20
363.0483417035
 10
467.8897388666
 20
363.7038656425
 10
469.1930122362
 20
364.31218071
 10
470.5614679116
 20
364.8707592456
 10
471.9894197091
 20
365.3772802531
 10
473.4709342274
 20
365.829639045
 10
474.9998555027
 20
366.2259559879
 10
476.569830587
 20
366.5645843121
 10
478.1743359465
 20
366.8441169551
 10
479.8067045678
 20
367.0633924074
 10
481.4601536603
 20
367.2214995396
 10
483.1278128404
 20
367.3177813875
 10
484.8027526789
 20
367.3518378824
 10
486.4780134941
 20
367.3235275133
 10
488.1466342708
 20
367.232967915
 10
489.801681584
 20
367.0805353792
 10
491.4362784093
 20
366.866863291
 10
493.0436326976
 20
366.592839497
 10
494.6170655976
 20
366.2596026164
 10
496.1500392075
 20
365.8685373092
 10
497.6361837413
 20
365.4212685234
  0
LWPOLYLINE
  5
C7
330
1F
100
AcDbEntity
  8
0
  6
HIDDEN
 62
     7
370
    18
100
AcDbPolyline
 90
       61
 70
   128
 43
0.0
 10
456.5957287525
 20
336.0142613773
 10
455.1542069809
 20
336.8911885405
 10
453.7941615417
 20
337.810466465
 10
452.519320225
 20
338.769575474
 10
451.3331772822
 20
339.7658867163
 10
450.2389838486
 20
340.796669372
 10
449.2397390325
 20
341.8590981376
 10
448.3381816943
 20
342.9502609696
 10
447.5367829401
 20
344.0671670666
 10
446.8377393482
 20
345.2067550666
 10
446.2429669484
 20
346.3659014381
 10
445.7540959706
 20
347.5414290414
 10
445.3724663762
 20
348.7301158371
 10
445.0991241853
 20
349.9287037174
 10
444.9348186098
 20
351.1339074361
 10
444.88
 20
352.3424236137
 10
444.9348186098
 20
353.5509397913
 10
445.0991241853
 20
354.75614351
 10
445.3724663762
 20
355.9547313903
 10
445.7540959706
 20
357.143418186
 10
446.2429669484
 20
358.3189457894
 10
446.8377393482
 20
359.4780921608
 10
447.5367829401
 20
360.6176801608
 10
448.3381816943
 20
361.7345862578
 10
449.2397390325
 20
362.8257490898
 10
450.2389838486
 20
363.8881778554
 10
451.3331772822
 20
364.9189605112
 10
452.519320225
 20
365.9152717535
 10
453.7941615417
 20
366.8743807624
 10
455.1542069809
 20
367.793658687
 10
456.5957287525
 20
368.6705858502
 10
458.1147757456
 20
369.5027586556
 10
459.707184358
 20
370.2878961756
 10
461.3685899083
 20
371.0238464026
 10
463.0944385994
 20
371.7085921482
 10
464.88
 20
372.3402565721
 10
466.7203800104
 20
372.9171083258
 10
468.610534277
 20
373.4375662989
 10
470.5452820182
 20
373.9002039521
 10
472.519320225
 20
374.303753228
 10
474.5272381959
 20
374.6471080258
 10
476.5635323673
 20
374.9293272341
 10
478.6226213984
 20
375.1496373095
 10
480.6988614693
 20
375.3074343976
 10
482.7865617503
 20
375.4022859873
 10
484.88
 20
375.4339320971
 10
486.9734382497
 20
375.4022859873
 10
489.0611385307
 20
375.3074343976
 10
491.1373786016
 20
375.1496373095
 10
493.1964676327
 20
374.9293272341
 10
495.2327618041
 20
374.6471080258
 10
497.240679775
 20
374.303753228
 10
499.2147179818
 20
373.9002039521
 10
501.149465723
 20
373.4375662989
 10
503.0396199896
 20
372.9171083258
 10
504.88
 20
372.3402565721
 10
506.6655614006
 20
371.7085921482
 10
508.3914100917
 20
371.0238464026
 10
510.052815642
 20
370.2878961756
 10
511.6452242544
 20
369.5027586556
 10
513.1642712475
 20
368.6705858502
  0
LINE
  5
C8
330
1F
100
AcDbEntity
  8
0
  6
HIDDEN
 62
     7
370
    18
100
AcDbLine
 10
507.5356786779
 20
359.7064117407
 30
0.0
 11
510.1944227665
 21
361.2412720326
 31
0.0
  0
LINE
  5
C9
330
1F
100
AcDbEntity
  8
0
  6
HIDDEN
 62
     7
370
    18
100
AcDbLine
 10
500.2949278299
 20
386.9567313007
 30
0.0
 11
500.2949278299
 21
366.9561288153
 31
0.0
  0
LINE
  5
CA
330
1F
100
AcDbEntity
  8
0
  6
HIDDEN
 62
     7
370
    18
100
AcDbLine
 10
510.1944227665
 20
404.5179350625
 30
0.0
 11
510.1944227665
 21
361.2412720326
 31
0.0
  0
LINE
  5
CB
330
1F
100
AcDbEntity
  8
0
  6
HIDDEN
 62
     7
370
    18
100
AcDbLine
 10
500.2949278299
 20
366.9561288153
 30
0.0
 11
510.1944227665
 21
361.2412720326
 31
0.0
  0
LINE
  5
CC
330
1F
100
AcDbEntity
  8
0
  6
HIDDEN
 62
     7
370
    18
100
AcDbLine
 10
497.6361837413
 20
365.4212685234
 30
0.0
 11
500.2949278299
 21
366.9561288153
 31
0.0
  0
LINE
  5
CD
330
1F
100
AcDbEntity
  8
0
  6
HIDDEN
 62
     7
370
    18
100
AcDbLine
 10
520.38
 20
395.6190866437
 30
0.0
 11
520.38
 21
405.4175763863
 31
0.0
  0
LINE
  5
CE
330
1F
100
AcDbEntity
  8
0
  6
HIDDEN
 62
     7
370
    18
100
AcDbLine
 10
509.88
 20
353.1589644256
 30
0.0
 11
509.88
 21
395.6190866437
 31
0.0
  0
LINE
  5
CF
330
1F
100
AcDbEntity
  8
0
  6
HIDDEN
 62
     7
370
    18
100
AcDbLine
 10
459.88
 20
395.6190866437
 30
0.0
 11
459.88
 21
353.1589644256
 31
0.0
  0
LINE
  5
D0
330
1F
100
AcDbEntity
  8
0
  6
HIDDEN
 62
     7
370
    18
100
AcDbLine
 10
449.38
 20
405.4175763863
 30
0.0
 11
449.38
 21
395.6190866437
 31
0.0
  0
SPLINE
  5
D1
330
1F
100
AcDbEntity
  8
0
  6
HIDDEN
 62
     7
370
    18
100
AcDbSpline
210
0.0
220
0.0
230
1.0
 70
     8
 71
     3
 72
    57
 73
    53
 74
     0
 42
0.00000001
 43
0.00000001
 40
0.0
 40
0.0
 40
0.0
 40
0.0
 40
0.004982514012848
 40
0.02612542601115
 40
0.0472512946124419
 40
0.0683121799450473
 40
0.0892749851019644
 40
0.1101218869971036
 40
0.1308495027986097
 40
0.1514653312589395
 40
0.1719834617354058
 40
0.1924208660771984
 40
0.2127947680756678
 40
0.2331210593684029
 40
0.253413518283417
 40
0.2736835628683922
 40
0.2939403198607085
 40
0.3141908565014436
 40
0.3344400319815938
 40
0.3546909927541003
 40
0.3749467788482406
 40
0.3952094246255622
 40
0.415480179891573
 40
0.4357596923344587
 40
0.4560481542172281
 40
0.4763454181628291
 40
0.4966510871158323
 40
0.5169645832464176
 40
0.5372851999935787
 40
0.5576121408016704
 40
0.5779445474826177
 40
0.5982815205807178
 40
0.6186221336452146
 40
0.6389654429298551
 40
0.6593104937326394
 40
0.679656324355049
 40
0.7000019007058002
 40
0.7203459988313731
 40
0.7406876480276535
 40
0.7610258781690632
 40
0.781359722753771
 40
0.8016882239764678
 40
0.8220104406754679
 40
0.8423254602568322
 40
0.8626324159717219
 40
0.8829305112732053
 40
0.9032190534121061
 40
0.923497498949331
 40
0.9437655144541995
 40
0.9640230562912221
 40
0.984270473999127
 40
0.9999999999999999
 40
0.9999999999999999
 40
0.9999999999999999
 40
0.9999999999999999
 10
525.8711330322759
 20
363.2850296029285
 30
0.0
 10
525.8731986602938
 20
363.1984870577652
 30
0.0
 10
525.8840296206898
 20
362.7447079304719
 30
0.0
 10
525.8089906731573
 20
361.9240786362901
 30
0.0
 10
525.6419522946171
 20
360.8255505237379
 30
0.0
 10
525.3718495448084
 20
359.7326840657167
 30
0.0
 10
525.0097620411717
 20
358.6487351557502
 30
0.0
 10
524.5544944965053
 20
357.5765074356503
 30
0.0
 10
524.0083651760982
 20
356.5184103116493
 30
0.0
 10
523.3728231777012
 20
355.4765485026842
 30
0.0
 10
522.6495323202439
 20
354.4528549106864
 30
0.0
 10
521.8400861001971
 20
353.4492081372088
 30
0.0
 10
520.9461364470916
 20
352.4675117618257
 30
0.0
 10
519.9694296419311
 20
351.5097329979123
 30
0.0
 10
518.9118625888503
 20
350.5779098947829
 30
0.0
 10
517.7755190342232
 20
349.6741384651099
 30
0.0
 10
516.5626938700207
 20
348.8005493632175
 30
0.0
 10
515.2759142358516
 20
347.959286991724
 30
0.0
 10
513.9179504148868
 20
347.1524847993969
 30
0.0
 10
512.4917901643051
 20
346.382224992644
 30
0.0
 10
511.0006167684715
 20
345.6505145333376
 30
0.0
 10
509.4477872907606
 20
344.9592685816623
 30
0.0
 10
507.8368453674872
 20
344.3103110741927
 30
0.0
 10
506.1715070192777
 20
343.7053628231863
 30
0.0
 10
504.4556460545293
 20
343.1460320960438
 30
0.0
 10
502.6932794976474
 20
342.6338072405549
 30
0.0
 10
500.8885532784997
 20
342.1700509506339
 30
0.0
 10
499.045728300236
 20
341.7559958267589
 30
0.0
 10
497.1691669245689
 20
341.3927409474976
 30
0.0
 10
495.2633198665034
 20
341.0812492267528
 30
0.0
 10
493.3327134641943
 20
340.822345381812
 30
0.0
 10
491.3819372770399
 20
340.6167143790458
 30
0.0
 10
489.4156319610564
 20
340.4649002575131
 30
0.0
 10
487.4384773713843
 20
340.3673052567992
 30
0.0
 10
485.4551808449508
 20
340.3241891953959
 30
0.0
 10
483.4704678243825
 20
340.3356690482923
 30
0.0
 10
481.489076418059
 20
340.4017181868722
 30
0.0
 10
479.515737487412
 20
340.5221655782925
 30
0.0
 10
477.5551607362722
 20
340.6966961962574
 30
0.0
 10
475.6120172900799
 20
340.92485259236
 30
0.0
 10
473.6909364485391
 20
341.2060350550258
 30
0.0
 10
471.7964941512813
 20
341.5395022626815
 30
0.0
 10
469.9332009801768
 20
341.9243719832389
 30
0.0
 10
468.1054910762691
 20
342.3596226049289
 30
0.0
 10
466.3177065704119
 20
342.8440927868738
 30
0.0
 10
464.5740973651151
 20
343.3764896641136
 30
0.0
 10
462.8787619469273
 20
343.9553671494087
 30
0.0
 10
461.2358060611562
 20
344.5792184041216
 30
0.0
 10
459.6486865305718
 20
345.2461460727461
 30
0.0
 10
458.1225912204469
 20
345.9551118551416
 30
0.0
 10
456.7643887452738
 20
346.6459168662244
 30
0.0
 10
455.938840056815
 20
347.1122426107667
 30
0.0
 10
455.5779008490487
 20
347.3161254915092
 30
0.0
  0
LINE
  5
D2
330
1F
100
AcDbEntity
  8
0
  6
HIDDEN
 62
     7
370
    18
100
AcDbLine
 10
525.88
 20
353.1589644256
 30
0.0
 11
525.88
 21
363.3657245742
 31
0.0
  0
SPLINE
  5
D3
330
1F
100
AcDbEntity
  8
0
  6
HIDDEN
 62
     7
370
    18
100
AcDbSpline
210
0.0
220
0.0
230
1.0
 70
     8
 71
     3
 72
    24
 73
    20
 74
     0
 42
0.00000001
 43
0.00000001
 40
0.0
 40
0.0
 40
0.0
 40
0.0
 40
0.031839788145087
 40
0.0924947708121862
 40
0.1531354080358436
 40
0.2137732259197545
 40
0.2744207177056122
 40
0.3350979123982362
 40
0.3958308666804925
 40
0.4566524147930011
 40
0.5176025154520801
 40
0.5787278081529544
 40
0.6400798284014658
 40
0.7017111921393252
 40
0.7636690616528837
 40
0.82598557206028
 40
0.8886659327106458
 40
0.951676784011079
 40
1.0
 40
1.0
 40
1.0
 40
1.0
 10
455.5779008490487
 20
347.3161254915092
 30
0.0
 10
455.3388846544053
 20
347.4562045193169
 30
0.0
 10
454.644541210812
 20
347.8631349145075
 30
0.0
 10
453.5482425117123
 20
348.5637184681501
 30
0.0
 10
452.3157210872936
 20
349.426804416322
 30
0.0
 10
451.1603817588685
 20
350.3205101432264
 30
0.0
 10
450.0834521311209
 20
351.2418603120504
 30
0.0
 10
449.0873709953747
 20
352.1886720750305
 30
0.0
 10
448.1739094524824
 20
353.1585961343076
 30
0.0
 10
447.3446941367625
 20
354.1494187115767
 30
0.0
 10
446.6010991393093
 20
355.1590323361414
 30
0.0
 10
445.9443144842434
 20
356.1854945472822
 30
0.0
 10
445.3754270856447
 20
357.2270473141415
 30
0.0
 10
444.8953826229993
 20
358.2821144162327
 30
0.0
 10
444.505502146751
 20
359.3492518307042
 30
0.0
 10
444.2059030184258
 20
360.4270397127209
 30
0.0
 10
444.0016975647144
 20
361.5139177458796
 30
0.0
 10
443.8893079166031
 20
362.5214852033414
 30
0.0
 10
443.8890004290199
 20
363.1664711392411
 30
0.0
 10
443.888866967724
 20
363.4464195454131
 30
0.0
  0
LINE
  5
D4
330
1F
100
AcDbEntity
  8
0
  6
HIDDEN
 62
     7
370
    18
100
AcDbLine
 10
443.88
 20
363.3657245742
 30
0.0
 11
443.88
 21
353.1589644256
 31
0.0
  0
LINE
  5
D5
330
1F
100
AcDbEntity
  8
0
  6
HIDDEN
 62
     7
370
    18
100
AcDbLine
 10
467.1994580521
 20
363.3624073422
 30
0.0
 11
466.4922363742
 21
362.9540042469
 31
0.0
  0
ENDSEC
  0
SECTION
  2
OBJECTS
  0
DICTIONARY
  5
C
330
0
100
AcDbDictionary
281
     1
  3
ACAD_GROUP
350
D
  3
ACAD_LAYOUT
350
1A
  3
ACAD_MLINESTYLE
350
17
  3
ACAD_PLOTSETTINGS
350
19
  3
ACAD_PLOTSTYLENAME
350
E
  3
ACAD_SCALELIST
350
47
  3
DWGPROPS
350
D6
  0
DICTIONARY
  5
D
102
{ACAD_REACTORS
330
C
102
}
330
C
100
AcDbDictionary
281
     1
  0
DICTIONARY
  5
1A
102
{ACAD_REACTORS
330
C
102
}
330
C
100
AcDbDictionary
281
     1
  3
Layout1
350
1E
  3
Layout2
350
26
  3
Model
350
22
  0
DICTIONARY
  5
17
102
{ACAD_REACTORS
330
C
102
}
330
C
100
AcDbDictionary
281
     1
  3
Standard
350
18
  0
DICTIONARY
  5
19
102
{ACAD_REACTORS
330
C
102
}
330
C
100
AcDbDictionary
281
     1
  0
ACDBDICTIONARYWDFLT
  5
E
102
{ACAD_REACTORS
330
C
102
}
330
C
100
AcDbDictionary
281
     1
  3
Normal
350
F
100
AcDbDictionaryWithDefault
340
F
  0
DICTIONARY
  5
47
102
{ACAD_REACTORS
330
C
102
}
330
C
100
AcDbDictionary
281
     1
  3
A0
350
48
  3
A1
350
49
  3
A2
350
4A
  3
A3
350
4B
  3
A4
350
4C
  3
A5
350
4D
  3
A6
350
4E
  3
A7
350
4F
  3
A8
350
50
  3
A9
350
51
  3
B0
350
52
  3
B1
350
53
  3
B2
350
54
  3
B3
350
55
  3
B4
350
56
  3
B5
350
57
  3
B6
350
58
  0
XRECORD
  5
D6
102
{ACAD_REACTORS
330
C
102
}
330
C
100
AcDbXrecord
280
     1
  1
DWGPROPS COOKIE
  2

  3

  4

  6

  7

  8
imaizumi
  9

300
=
301
=
302
=
303
=
304
=
305
=
306
=
307
=
308
=
309
=
 40
0.0
 41
2461263.042917616
 42
2461263.042918009
  1

 90
        0
  0
LAYOUT
  5
1E
102
{ACAD_REACTORS
330
1A
102
}
330
1A
100
AcDbPlotSettings
  1

  2
none_device
  4

  6

 40
0.0
 41
0.0
 42
0.0
 43
0.0
 44
0.0
 45
0.0
 46
0.0
 47
0.0
 48
0.0
 49
0.0
140
0.0
141
0.0
142
1.0
143
1.0
 70
   688
 72
     1
 73
     0
 74
     5
  7

 75
    16
147
1.0
148
0.0
149
0.0
100
AcDbLayout
  1
Layout1
 70
     1
 71
     1
 10
0.0
 20
0.0
 11
420.0
 21
297.0
 12
0.0
 22
0.0
 32
0.0
 14
1.0000000000E+20
 24
1.0000000000E+20
 34
1.0000000000E+20
 15
-1.0000000000E+20
 25
-1.0000000000E+20
 35
-1.0000000000E+20
146
0.0
 13
0.0
 23
0.0
 33
0.0
 16
1.0
 26
0.0
 36
0.0
 17
0.0
 27
1.0
 37
0.0
 76
     0
330
1B
  0
LAYOUT
  5
26
102
{ACAD_REACTORS
330
1A
102
}
330
1A
100
AcDbPlotSettings
  1

  2
none_device
  4

  6

 40
0.0
 41
0.0
 42
0.0
 43
0.0
 44
0.0
 45
0.0
 46
0.0
 47
0.0
 48
0.0
 49
0.0
140
0.0
141
0.0
142
1.0
143
1.0
 70
   688
 72
     1
 73
     0
 74
     5
  7

 75
    16
147
1.0
148
0.0
149
0.0
100
AcDbLayout
  1
Layout2
 70
     1
 71
     2
 10
0.0
 20
0.0
 11
0.0
 21
0.0
 12
0.0
 22
0.0
 32
0.0
 14
0.0
 24
0.0
 34
0.0
 15
0.0
 25
0.0
 35
0.0
146
0.0
 13
0.0
 23
0.0
 33
0.0
 16
1.0
 26
0.0
 36
0.0
 17
0.0
 27
1.0
 37
0.0
 76
     0
330
23
  0
LAYOUT
  5
22
102
{ACAD_REACTORS
330
1A
102
}
330
1A
100
AcDbPlotSettings
  1

  2
none_device
  4
Letter_(8.50_x_11.00_Inches)
  6

 40
6.35
 41
6.35
 42
6.35000508
 43
6.35000508
 44
215.9
 45
279.4
 46
0.0
 47
0.0
 48
0.0
 49
0.0
140
0.0
141
0.0
142
1.0
143
1.0
 70
  1712
 72
     1
 73
     0
 74
     0
  7

 75
     0
147
1.0
148
0.0
149
0.0
100
AcDbLayout
  1
Model
 70
     1
 71
     0
 10
0.0
 20
0.0
 11
841.0
 21
594.0
 12
0.0
 22
0.0
 32
0.0
 14
0.0
 24
0.0
 34
0.0
 15
841.0
 25
594.0
 35
0.0
146
0.0
 13
0.0
 23
0.0
 33
0.0
 16
1.0
 26
0.0
 36
0.0
 17
0.0
 27
1.0
 37
0.0
 76
     0
330
1F
331
29
  0
MLINESTYLE
  5
18
102
{ACAD_REACTORS
330
17
102
}
330
17
100
AcDbMlineStyle
  2
Standard
 70
     0
  3

 62
   256
 51
90.0
 52
90.0
 71
     2
 49
0.5
 62
   256
  6
BYLAYER
 49
-0.5
 62
   256
  6
BYLAYER
  0
ACDBPLACEHOLDER
  5
F
102
{ACAD_REACTORS
330
E
102
}
330
E
  0
SCALE
  5
48
102
{ACAD_REACTORS
330
47
102
}
330
47
100
AcDbScale
 70
     0
300
1:1
140
1.0
141
1.0
290
     1
  0
SCALE
  5
49
102
{ACAD_REACTORS
330
47
102
}
330
47
100
AcDbScale
 70
     0
300
1:2
140
1.0
141
2.0
290
     0
  0
SCALE
  5
4A
102
{ACAD_REACTORS
330
47
102
}
330
47
100
AcDbScale
 70
     0
300
1:4
140
1.0
141
4.0
290
     0
  0
SCALE
  5
4B
102
{ACAD_REACTORS
330
47
102
}
330
47
100
AcDbScale
 70
     0
300
1:5
140
1.0
141
5.0
290
     0
  0
SCALE
  5
4C
102
{ACAD_REACTORS
330
47
102
}
330
47
100
AcDbScale
 70
     0
300
1:8
140
1.0
141
8.0
290
     0
  0
SCALE
  5
4D
102
{ACAD_REACTORS
330
47
102
}
330
47
100
AcDbScale
 70
     0
300
1:10
140
1.0
141
10.0
290
     0
  0
SCALE
  5
4E
102
{ACAD_REACTORS
330
47
102
}
330
47
100
AcDbScale
 70
     0
300
1:16
140
1.0
141
16.0
290
     0
  0
SCALE
  5
4F
102
{ACAD_REACTORS
330
47
102
}
330
47
100
AcDbScale
 70
     0
300
1:20
140
1.0
141
20.0
290
     0
  0
SCALE
  5
50
102
{ACAD_REACTORS
330
47
102
}
330
47
100
AcDbScale
 70
     0
300
1:30
140
1.0
141
30.0
290
     0
  0
SCALE
  5
51
102
{ACAD_REACTORS
330
47
102
}
330
47
100
AcDbScale
 70
     0
300
1:40
140
1.0
141
40.0
290
     0
  0
SCALE
  5
52
102
{ACAD_REACTORS
330
47
102
}
330
47
100
AcDbScale
 70
     0
300
1:50
140
1.0
141
50.0
290
     0
  0
SCALE
  5
53
102
{ACAD_REACTORS
330
47
102
}
330
47
100
AcDbScale
 70
     0
300
1:100
140
1.0
141
100.0
290
     0
  0
SCALE
  5
54
102
{ACAD_REACTORS
330
47
102
}
330
47
100
AcDbScale
 70
     0
300
2:1
140
2.0
141
1.0
290
     0
  0
SCALE
  5
55
102
{ACAD_REACTORS
330
47
102
}
330
47
100
AcDbScale
 70
     0
300
4:1
140
4.0
141
1.0
290
     0
  0
SCALE
  5
56
102
{ACAD_REACTORS
330
47
102
}
330
47
100
AcDbScale
 70
     0
300
8:1
140
8.0
141
1.0
290
     0
  0
SCALE
  5
57
102
{ACAD_REACTORS
330
47
102
}
330
47
100
AcDbScale
 70
     0
300
10:1
140
10.0
141
1.0
290
     0
  0
SCALE
  5
58
102
{ACAD_REACTORS
330
47
102
}
330
47
100
AcDbScale
 70
     0
300
100:1
140
100.0
141
1.0
290
     0
  0
ENDSEC
  0
EOF
