  0
SECTION
  2
HEADER
  9
$ACADVER
  1
AC1015
  9
$ACADMAINTVER
 70
     6
  9
$DWGCODEPAGE
  3
DOS932
  9
$INSBASE
 10
0.0
 20
0.0
 30
0.0
  9
$EXTMIN
 10
0.0
 20
0.0
 30
0.0
  9
$EXTMAX
 10
841.0
 20
594.0
 30
0.0
  9
$LIMMIN
 10
0.0
 20
0.0
  9
$LIMMAX
 10
841.0
 20
594.0
  9
$ORTHOMODE
 70
     0
  9
$REGENMODE
 70
     1
  9
$FILLMODE
 70
     1
  9
$QTEXTMODE
 70
     0
  9
$MIRRTEXT
 70
     1
  9
$LTSCALE
 40
1.0
  9
$ATTMODE
 70
     1
  9
$TEXTSIZE
 40
3.5
  9
$TRACEWID
 40
1.0
  9
$TEXTSTYLE
  7
Standard
  9
$CLAYER
  8
0
  9
$CELTYPE
  6
ByLayer
  9
$CECOLOR
 62
   256
  9
$CELTSCALE
 40
1.0
  9
$DISPSILH
 70
     0
  9
$DIMSCALE
 40
1.0
  9
$DIMASZ
 40
3.302
  9
$DIMEXO
 40
1.0
  9
$DIMDLI
 40
3.75
  9
$DIMRND
 40
0.0
  9
$DIMDLE
 40
0.0
  9
$DIMEXE
 40
1.0
  9
$DIMTP
 40
0.0
  9
$DIMTM
 40
0.0
  9
$DIMTXT
 40
3.5
  9
$DIMCEN
 40
2.5
  9
$DIMTSZ
 40
0.0
  9
$DIMTOL
 70
     0
  9
$DIMLIM
 70
     0
  9
$DIMTIH
 70
     1
  9
$DIMTOH
 70
     1
  9
$DIMSE1
 70
     0
  9
$DIMSE2
 70
     0
  9
$DIMTAD
 70
     1
  9
$DIMZIN
 70
     1
  9
$DIMBLK
  1

  9
$DIMASO
 70
     1
  9
$DIMSHO
 70
     1
  9
$DIMPOST
  1

  9
$DIMAPOST
  1

  9
$DIMALT
 70
     0
  9
$DIMALTD
 70
     3
  9
$DIMALTF
 40
0.0393700787
  9
$DIMLFAC
 40
1.0
  9
$DIMTOFL
 70
     1
  9
$DIMTVP
 40
0.0
  9
$DIMTIX
 70
     0
  9
$DIMSOXD
 70
     0
  9
$DIMSAH
 70
     0
  9
$DIMBLK1
  1

  9
$DIMBLK2
  1

  9
$DIMSTYLE
  2
ISO-25
  9
$DIMCLRD
 70
     0
  9
$DIMCLRE
 70
     0
  9
$DIMCLRT
 70
     0
  9
$DIMTFAC
 40
1.0
  9
$DIMGAP
 40
1.524
  9
$DIMJUST
 70
     0
  9
$DIMSD1
 70
     0
  9
$DIMSD2
 70
     0
  9
$DIMTOLJ
 70
     0
  9
$DIMTZIN
 70
     1
  9
$DIMALTZ
 70
     0
  9
$DIMALTTZ
 70
     0
  9
$DIMUPT
 70
     0
  9
$DIMDEC
 70
     2
  9
$DIMTDEC
 70
     2
  9
$DIMALTU
 70
     2
  9
$DIMALTTD
 70
     3
  9
$DIMTXSTY
  7
Standard
  9
$DIMAUNIT
 70
     0
  9
$DIMADEC
 70
     2
  9
$DIMALTRND
 40
0.0
  9
$DIMAZIN
 70
     0
  9
$DIMDSEP
 70
    44
  9
$DIMATFIT
 70
     3
  9
$DIMFRAC
 70
     0
  9
$DIMLDRBLK
  1

  9
$DIMLUNIT
 70
     2
  9
$DIMLWD
 70
    -2
  9
$DIMLWE
 70
    -2
  9
$DIMTMOVE
 70
     0
  9
$LUNITS
 70
     2
  9
$LUPREC
 70
     2
  9
$SKETCHINC
 40
1.0
  9
$FILLETRAD
 40
0.0
  9
$AUNITS
 70
     0
  9
$AUPREC
 70
     2
  9
$MENU
  1
.
  9
$ELEVATION
 40
0.0
  9
$PELEVATION
 40
0.0
  9
$THICKNESS
 40
0.0
  9
$LIMCHECK
 70
     0
  9
$CHAMFERA
 40
0.0
  9
$CHAMFERB
 40
0.0
  9
$CHAMFERC
 40
0.0
  9
$CHAMFERD
 40
0.0
  9
$SKPOLY
 70
     0
  9
$TDCREATE
 40
2461263.441562396
  9
$TDUCREATE
 40
2461263.066562396
  9
$TDUPDATE
 40
2461263.441562882
  9
$TDUUPDATE
 40
2461263.066562882
  9
$TDINDWG
 40
0.0000000116
  9
$TDUSRTIMER
 40
0.0000000116
  9
$USRTIMER
 70
     1
  9
$ANGBASE
 50
0.0
  9
$ANGDIR
 70
     0
  9
$PDMODE
 70
     0
  9
$PDSIZE
 40
-1.0
  9
$PLINEWID
 40
0.0
  9
$SPLFRAME
 70
     0
  9
$SPLINETYPE
 70
     6
  9
$SPLINESEGS
 70
     8
  9
$HANDSEED
  5
111
  9
$SURFTAB1
 70
     6
  9
$SURFTAB2
 70
     6
  9
$SURFTYPE
 70
     6
  9
$SURFU
 70
     6
  9
$SURFV
 70
     6
  9
$UCSBASE
  2

  9
$UCSNAME
  2

  9
$UCSORG
 10
0.0
 20
0.0
 30
0.0
  9
$UCSXDIR
 10
1.0
 20
0.0
 30
0.0
  9
$UCSYDIR
 10
0.0
 20
1.0
 30
0.0
  9
$UCSORTHOREF
  2

  9
$UCSORTHOVIEW
 70
     0
  9
$UCSORGTOP
 10
0.0
 20
0.0
 30
0.0
  9
$UCSORGBOTTOM
 10
0.0
 20
0.0
 30
0.0
  9
$UCSORGLEFT
 10
0.0
 20
0.0
 30
0.0
  9
$UCSORGRIGHT
 10
0.0
 20
0.0
 30
0.0
  9
$UCSORGFRONT
 10
0.0
 20
0.0
 30
0.0
  9
$UCSORGBACK
 10
0.0
 20
0.0
 30
0.0
  9
$PUCSBASE
  2

  9
$PUCSNAME
  2

  9
$PUCSORG
 10
0.0
 20
0.0
 30
0.0
  9
$PUCSXDIR
 10
1.0
 20
0.0
 30
0.0
  9
$PUCSYDIR
 10
0.0
 20
1.0
 30
0.0
  9
$PUCSORTHOREF
  2

  9
$PUCSORTHOVIEW
 70
     0
  9
$PUCSORGTOP
 10
0.0
 20
0.0
 30
0.0
  9
$PUCSORGBOTTOM
 10
0.0
 20
0.0
 30
0.0
  9
$PUCSORGLEFT
 10
0.0
 20
0.0
 30
0.0
  9
$PUCSORGRIGHT
 10
0.0
 20
0.0
 30
0.0
  9
$PUCSORGFRONT
 10
0.0
 20
0.0
 30
0.0
  9
$PUCSORGBACK
 10
0.0
 20
0.0
 30
0.0
  9
$USERI1
 70
     0
  9
$USERI2
 70
     0
  9
$USERI3
 70
     0
  9
$USERI4
 70
     0
  9
$USERI5
 70
     0
  9
$USERR1
 40
0.0
  9
$USERR2
 40
0.0
  9
$USERR3
 40
0.0
  9
$USERR4
 40
0.0
  9
$USERR5
 40
0.0
  9
$WORLDVIEW
 70
     1
  9
$SHADEDGE
 70
     3
  9
$SHADEDIF
 70
    70
  9
$TILEMODE
 70
     1
  9
$MAXACTVP
 70
    64
  9
$PINSBASE
 10
0.0
 20
0.0
 30
0.0
  9
$PLIMCHECK
 70
     0
  9
$PEXTMIN
 10
1.0000000000E+20
 20
1.0000000000E+20
 30
1.0000000000E+20
  9
$PEXTMAX
 10
-1.0000000000E+20
 20
-1.0000000000E+20
 30
-1.0000000000E+20
  9
$PLIMMIN
 10
0.0
 20
0.0
  9
$PLIMMAX
 10
420.0
 20
297.0
  9
$UNITMODE
 70
     0
  9
$VISRETAIN
 70
     1
  9
$PLINEGEN
 70
     0
  9
$PSLTSCALE
 70
     1
  9
$TREEDEPTH
 70
  3020
  9
$CMLSTYLE
  2
Standard
  9
$CMLJUST
 70
     0
  9
$CMLSCALE
 40
20.0
  9
$PROXYGRAPHICS
 70
     1
  9
$MEASUREMENT
 70
     1
  9
$CELWEIGHT
370
    -1
  9
$ENDCAPS
280
     0
  9
$JOINSTYLE
280
     0
  9
$LWDISPLAY
290
     1
  9
$INSUNITS
 70
     4
  9
$HYPERLINKBASE
  1

  9
$STYLESHEET
  1

  9
$XEDIT
290
     1
  9
$CEPSNTYPE
380
     0
  9
$PSTYLEMODE
290
     1
  9
$FINGERPRINTGUID
  2
{1aa7fa46-1cb9-48e9-b3eb-88abbfdd43d9}
  9
$VERSIONGUID
  2
{FAEB1C32-E019-11D5-929B-00C0DF256EC4}
  9
$EXTNAMES
290
     1
  9
$PSVPSCALE
 40
0.0
  9
$OLESTARTUP
290
     0
  0
ENDSEC
  0
SECTION
  2
CLASSES
  0
CLASS
  1
ACDBDICTIONARYWDFLT
  2
AcDbDictionaryWithDefault
  3
ObjectDBX Classes
 90
        0
280
     0
281
     0
  0
CLASS
  1
VISUALSTYLE
  2
AcDbVisualStyle
  3
ObjectDBX Classes
 90
     4095
280
     0
281
     0
  0
CLASS
  1
MATERIAL
  2
AcDbMaterial
  3
ObjectDBX Classes
 90
     1153
280
     0
281
     0
  0
CLASS
  1
SCALE
  2
AcDbScale
  3
ObjectDBX Classes
 90
     1153
280
     0
281
     0
  0
CLASS
  1
TABLESTYLE
  2
AcDbTableStyle
  3
ObjectDBX Classes
 90
     4095
280
     0
281
     0
  0
CLASS
  1
MLEADERSTYLE
  2
AcDbMLeaderStyle
  3
ACDB_MLEADERSTYLE_CLASS
 90
     4095
280
     0
281
     0
  0
CLASS
  1
SUN
  2
AcDbSun
  3
SCENEOE
 90
     1153
280
     0
281
     0
  0
CLASS
  1
ACDBPLACEHOLDER
  2
AcDbPlaceHolder
  3
ObjectDBX Classes
 90
        0
280
     0
281
     0
  0
CLASS
  1
LAYOUT
  2
AcDbLayout
  3
ObjectDBX Classes
 90
        0
280
     0
281
     0
  0
ENDSEC
  0
SECTION
  2
TABLES
  0
TABLE
  2
VPORT
  5
8
330
0
100
AcDbSymbolTable
 70
     1
  0
VPORT
  5
29
330
8
100
AcDbSymbolTableRecord
100
AcDbViewportTableRecord
  2
*Active
 70
     0
 10
0.0
 20
0.0
 11
1.0
 21
1.0
 12
420.5
 22
297.0
 13
0.0
 23
0.0
 14
10.0
 24
10.0
 15
10.0
 25
10.0
 16
0.0
 26
0.0
 36
1.0
 17
0.0
 27
0.0
 37
0.0
 40
594.0
 41
1.4158249158
 42
50.0
 43
0.0
 44
0.0
 50
0.0
 51
0.0
 71
     0
 72
  2000
 73
     1
 74
     3
 75
     0
 76
     0
 77
     0
 78
     0
281
     0
 65
     1
110
0.0
120
0.0
130
0.0
111
1.0
121
0.0
131
0.0
112
0.0
122
1.0
132
0.0
 79
     0
146
0.0
  0
ENDTAB
  0
TABLE
  2
LTYPE
  5
5
330
0
100
AcDbSymbolTable
 70
     6
  0
LTYPE
  5
14
330
5
100
AcDbSymbolTableRecord
100
AcDbLinetypeTableRecord
  2
ByBlock
 70
     0
  3

 72
    65
 73
     0
 40
0.0
  0
LTYPE
  5
15
330
5
100
AcDbSymbolTableRecord
100
AcDbLinetypeTableRecord
  2
ByLayer
 70
     0
  3

 72
    65
 73
     0
 40
0.0
  0
LTYPE
  5
16
330
5
100
AcDbSymbolTableRecord
100
AcDbLinetypeTableRecord
  2
Continuous
 70
     0
  3
Solid line
 72
    65
 73
     0
 40
0.0
  0
LTYPE
  5
5E
330
5
100
AcDbSymbolTableRecord
100
AcDbLinetypeTableRecord
  2
HIDDEN
 70
     0
  3
Hidden __ __ __ __ __ __ __ __ __ __ __ __ __ __
 72
    65
 73
     2
 40
1.905
 49
1.27
 74
     0
 49
-0.635
 74
     0
  0
LTYPE
  5
5F
330
5
100
AcDbSymbolTableRecord
100
AcDbLinetypeTableRecord
  2
PHANTOM
 70
     0
  3
Phantom ______  __  __  ______  __  __  ______
 72
    65
 73
     6
 40
12.7
 49
6.35
 74
     0
 49
-1.27
 74
     0
 49
1.27
 74
     0
 49
-1.27
 74
     0
 49
1.27
 74
     0
 49
-1.27
 74
     0
  0
LTYPE
  5
60
330
5
100
AcDbSymbolTableRecord
100
AcDbLinetypeTableRecord
  2
CENTER
 70
     0
  3
Center ____ _ ____ _ ____ _ ____ _ ____ _ ____
 72
    65
 73
     4
 40
10.16
 49
6.35
 74
     0
 49
-1.27
 74
     0
 49
1.27
 74
     0
 49
-1.27
 74
     0
  0
LTYPE
  5
61
330
5
100
AcDbSymbolTableRecord
100
AcDbLinetypeTableRecord
  2
CENTERX2
 70
     0
  3
Center (2x) ________  __  ________  __  _____
 72
    65
 73
     4
 40
20.32
 49
12.7
 74
     0
 49
-2.54
 74
     0
 49
2.54
 74
     0
 49
-2.54
 74
     0
  0
LTYPE
  5
62
330
5
100
AcDbSymbolTableRecord
100
AcDbLinetypeTableRecord
  2
DOT2
 70
     0
  3
Dot (.5x) ........................................
 72
    65
 73
     2
 40
0.635
 49
0.0
 74
     0
 49
-0.635
 74
     0
  0
ENDTAB
  0
TABLE
  2
LAYER
  5
2
330
0
100
AcDbSymbolTable
 70
     1
  0
LAYER
  5
10
330
2
100
AcDbSymbolTableRecord
100
AcDbLayerTableRecord
  2
0
 70
     0
 62
     7
  6
Continuous
370
    -3
390
F
  0
ENDTAB
  0
TABLE
  2
STYLE
  5
3
330
0
100
AcDbSymbolTable
 70
     1
  0
STYLE
  5
11
330
3
100
AcDbSymbolTableRecord
100
AcDbTextStyleTableRecord
  2
Standard
 70
     0
 40
0.0
 41
1.0
 50
0.0
 71
     0
 42
3.5
  3
txt
  4
bigfont
  0
ENDTAB
  0
TABLE
  2
VIEW
  5
6
330
0
100
AcDbSymbolTable
 70
     0
  0
ENDTAB
  0
TABLE
  2
UCS
  5
7
330
0
100
AcDbSymbolTable
 70
     0
  0
ENDTAB
  0
TABLE
  2
APPID
  5
9
330
0
100
AcDbSymbolTable
 70
     1
  0
APPID
  5
12
330
9
100
AcDbSymbolTableRecord
100
AcDbRegAppTableRecord
  2
ACAD
 70
     0
  0
ENDTAB
  0
TABLE
  2
DIMSTYLE
  5
A
330
0
100
AcDbSymbolTable
 70
     1
100
AcDbDimStyleTable
  0
DIMSTYLE
105
27
330
A
100
AcDbSymbolTableRecord
100
AcDbDimStyleTableRecord
  2
ISO-25
 70
     0
 41
2.5
 42
0.625
 43
3.75
 44
1.25
 73
     0
 74
     0
 77
     1
 78
     8
140
2.5
141
2.5
143
0.0393700787
147
0.625
171
     3
172
     1
178
     0
271
     2
272
     2
274
     3
278
    44
283
     0
284
     8
340
11
  0
ENDTAB
  0
TABLE
  2
BLOCK_RECORD
  5
1
330
0
100
AcDbSymbolTable
 70
     1
  0
BLOCK_RECORD
  5
1F
330
1
100
AcDbSymbolTableRecord
100
AcDbBlockTableRecord
  2
*Model_Space
340
22
  0
BLOCK_RECORD
  5
1B
330
1
100
AcDbSymbolTableRecord
100
AcDbBlockTableRecord
  2
*Paper_Space
340
1E
  0
BLOCK_RECORD
  5
23
330
1
100
AcDbSymbolTableRecord
100
AcDbBlockTableRecord
  2
*Paper_Space0
340
26
  0
ENDTAB
  0
ENDSEC
  0
SECTION
  2
BLOCKS
  0
BLOCK
  5
20
330
1F
100
AcDbEntity
  8
0
100
AcDbBlockBegin
  2
*Model_Space
 70
     0
 10
0.0
 20
0.0
 30
0.0
  3
*Model_Space
  1

  0
ENDBLK
  5
21
330
1F
100
AcDbEntity
  8
0
100
AcDbBlockEnd
  0
BLOCK
  5
1C
330
1B
100
AcDbEntity
 67
     1
  8
0
100
AcDbBlockBegin
  2
*Paper_Space
 70
     0
 10
0.0
 20
0.0
 30
0.0
  3
*Paper_Space
  1

  0
ENDBLK
  5
1D
330
1B
100
AcDbEntity
 67
     1
  8
0
100
AcDbBlockEnd
  0
BLOCK
  5
24
330
23
100
AcDbEntity
  8
0
100
AcDbBlockBegin
  2
*Paper_Space0
 70
     0
 10
0.0
 20
0.0
 30
0.0
  3
*Paper_Space0
  1

  0
ENDBLK
  5
25
330
23
100
AcDbEntity
  8
0
100
AcDbBlockEnd
  0
ENDSEC
  0
SECTION
  2
ENTITIES
  0
LINE
  5
63
330
1F
100
AcDbEntity
  8
0
  6
Continuous
 62
     7
370
    25
100
AcDbLine
 10
217.1207396482
 20
220.8343654274
 30
0.0
 11
209.1207396482
 21
220.8343654274
 31
0.0
  0
LINE
  5
64
330
1F
100
AcDbEntity
  8
0
  6
Continuous
 62
     7
370
    25
100
AcDbLine
 10
209.1207396482
 20
171.8343654274
 30
0.0
 11
217.1207396482
 21
171.8343654274
 31
0.0
  0
LINE
  5
65
330
1F
100
AcDbEntity
  8
0
  6
Continuous
 62
     7
370
    25
100
AcDbLine
 10
366.1207396482
 20
213.8343654274
 30
0.0
 11
217.1207396482
 21
213.8343654274
 31
0.0
  0
LINE
  5
66
330
1F
100
AcDbEntity
  8
0
  6
Continuous
 62
     7
370
    25
100
AcDbLine
 10
217.1207396482
 20
178.8343654274
 30
0.0
 11
366.1207396482
 21
178.8343654274
 31
0.0
  0
LINE
  5
67
330
1F
100
AcDbEntity
  8
0
  6
Continuous
 62
     7
370
    25
100
AcDbLine
 10
366.1207396482
 20
183.8343654274
 30
0.0
 11
398.1207396482
 21
183.8343654274
 31
0.0
  0
LINE
  5
68
330
1F
100
AcDbEntity
  8
0
  6
Continuous
 62
     7
370
    25
100
AcDbLine
 10
398.1207396482
 20
208.8343654274
 30
0.0
 11
366.1207396482
 21
208.8343654274
 31
0.0
  0
LINE
  5
69
330
1F
100
AcDbEntity
  8
0
  6
Continuous
 62
     7
370
    25
100
AcDbLine
 10
398.1207396482
 20
183.8343654274
 30
0.0
 11
399.1207396482
 21
184.8343654274
 31
0.0
  0
LINE
  5
6A
330
1F
100
AcDbEntity
  8
0
  6
Continuous
 62
     7
370
    25
100
AcDbLine
 10
399.1207396482
 20
207.8343654274
 30
0.0
 11
398.1207396482
 21
208.8343654274
 31
0.0
  0
LINE
  5
6B
330
1F
100
AcDbEntity
  8
0
  6
Continuous
 62
     7
370
    25
100
AcDbLine
 10
209.1207396482
 20
196.3343654274
 30
0.0
 11
209.1207396482
 21
220.8343654274
 31
0.0
  0
LINE
  5
6C
330
1F
100
AcDbEntity
  8
0
  6
Continuous
 62
     7
370
    25
100
AcDbLine
 10
217.1207396482
 20
196.3343654274
 30
0.0
 11
217.1207396482
 21
220.8343654274
 31
0.0
  0
LINE
  5
6D
330
1F
100
AcDbEntity
  8
0
  6
Continuous
 62
     7
370
    25
100
AcDbLine
 10
209.1207396482
 20
171.8343654274
 30
0.0
 11
209.1207396482
 21
196.3343654274
 31
0.0
  0
LINE
  5
6E
330
1F
100
AcDbEntity
  8
0
  6
Continuous
 62
     7
370
    25
100
AcDbLine
 10
217.1207396482
 20
171.8343654274
 30
0.0
 11
217.1207396482
 21
196.3343654274
 31
0.0
  0
SPLINE
  5
6F
330
1F
100
AcDbEntity
  8
0
  6
Continuous
 62
     7
370
    25
100
AcDbSpline
210
0.0
220
0.0
230
1.0
 70
     8
 71
     3
 72
    25
 73
    21
 74
     0
 42
0.00000001
 43
0.00000001
 40
0.0
 40
0.0
 40
0.0
 40
0.0
 40
0.0250093465407949
 40
0.0499724453293512
 40
0.0749315816929781
 40
0.0999290610494256
 40
0.1250069947413876
 40
0.1875511718810282
 40
0.2503582161427795
 40
0.3125949391361284
 40
0.3751075771400499
 40
0.5003266042741281
 40
0.6250994951776093
 40
0.6876564931523447
 40
0.7500920242990715
 40
0.81277380606269
 40
0.875314107062555
 40
0.9169324167308494
 40
0.9584347581514122
 40
1.0
 40
1.0
 40
1.0
 40
1.0
 10
359.1207396482077
 20
201.3343654273922
 30
0.0
 10
359.1865243415517
 20
201.333622173277
 30
0.0
 10
359.3179720779522
 20
201.3321370394858
 30
0.0
 10
359.514741167911
 20
201.3200770108279
 30
0.0
 10
359.7108109763466
 20
201.3008073710789
 30
0.0
 10
359.9061860851235
 20
201.2736160706347
 30
0.0
 10
360.1974101585889
 20
201.2213646626107
 30
0.0
 10
360.5809296275357
 20
201.124999773797
 30
0.0
 10
361.0438479122121
 20
200.9583844146788
 30
0.0
 10
361.4873770891764
 20
200.7479541848706
 30
0.0
 10
362.0468805405014
 20
200.4116225181776
 30
0.0
 10
362.6795929562594
 20
199.8918804515625
 30
0.0
 10
363.1991746203743
 20
199.2587393670119
 30
0.0
 10
363.5352195437603
 20
198.6994109336322
 30
0.0
 10
363.745667360677
 20
198.2553503309434
 30
0.0
 10
363.9120983182217
 20
197.7920169074436
 30
0.0
 10
364.0189210730159
 20
197.3665685442951
 30
0.0
 10
364.0811525930386
 20
196.9887395436213
 30
0.0
 10
364.1145756933114
 20
196.6622402458715
 30
0.0
 10
364.1186839596219
 20
196.4437121914833
 30
0.0
 10
364.1207396482077
 20
196.3343654273922
 30
0.0
  0
LINE
  5
70
330
1F
100
AcDbEntity
  8
0
  6
Continuous
 62
     7
370
    25
100
AcDbLine
 10
304.1207396482
 20
201.3343654274
 30
0.0
 11
359.1207396482
 21
201.3343654274
 31
0.0
  0
LINE
  5
71
330
1F
100
AcDbEntity
  8
0
  6
Continuous
 62
     7
370
    25
100
AcDbLine
 10
366.1207396482
 20
196.3343654274
 30
0.0
 11
366.1207396482
 21
213.8343654274
 31
0.0
  0
SPLINE
  5
72
330
1F
100
AcDbEntity
  8
0
  6
Continuous
 62
     7
370
    25
100
AcDbSpline
210
0.0
220
0.0
230
1.0
 70
     8
 71
     3
 72
    25
 73
    21
 74
     0
 42
0.00000001
 43
0.00000001
 40
0.0
 40
0.0
 40
0.0
 40
0.0
 40
0.0250777998374817
 40
0.0501075422829404
 40
0.0751283998168908
 40
0.1001795865999587
 40
0.1253001747580909
 40
0.1875621690365629
 40
0.249977059510687
 40
0.3124496651968005
 40
0.3750563147472242
 40
0.5000410356447148
 40
0.6244789074744205
 40
0.6872303345490319
 40
0.749716409239207
 40
0.8120556406573695
 40
0.8741480025280605
 40
0.916177855672933
 40
0.9580619158949427
 40
1.0
 40
1.0
 40
1.0
 40
1.0
 10
299.1207396482076
 20
196.3343654273922
 30
0.0
 10
299.1214870895
 20
196.400330374683
 30
0.0
 10
299.122980539739
 20
196.5321338585207
 30
0.0
 10
299.1351059354022
 20
196.7294205450791
 30
0.0
 10
299.154474460417
 20
196.9259685509641
 30
0.0
 10
299.1817940864364
 20
197.1217584895432
 30
0.0
 10
299.2340901136454
 20
197.4125094329498
 30
0.0
 10
299.3301656866085
 20
197.7944506894157
 30
0.0
 10
299.4963141674669
 20
198.2564619162687
 30
0.0
 10
299.7066017003395
 20
198.7000772941383
 30
0.0
 10
300.0431525661904
 20
199.26001184791
 30
0.0
 10
300.5621336682287
 20
199.8919204788786
 30
0.0
 10
301.1940869554606
 20
200.4111012655804
 30
0.0
 10
301.7527763619206
 20
200.7473134441263
 30
0.0
 10
302.1963364504694
 20
200.9578244396937
 30
0.0
 10
302.657553806457
 20
201.1239261918154
 30
0.0
 10
303.0817844018588
 20
201.231106051355
 30
0.0
 10
303.4603786737633
 20
201.294052263789
 30
0.0
 10
303.7898961661558
 20
201.3280916761068
 30
0.0
 10
304.0104111131145
 20
201.3322732786076
 30
0.0
 10
304.1207396482076
 20
201.3343654273922
 30
0.0
  0
LINE
  5
73
330
1F
100
AcDbEntity
  8
0
  6
Continuous
 62
     7
370
    25
100
AcDbLine
 10
359.1207396482
 20
191.3343654274
 30
0.0
 11
304.1207396482
 21
191.3343654274
 31
0.0
  0
SPLINE
  5
74
330
1F
100
AcDbEntity
  8
0
  6
Continuous
 62
     7
370
    25
100
AcDbSpline
210
0.0
220
0.0
230
1.0
 70
     8
 71
     3
 72
    25
 73
    21
 74
     0
 42
0.00000001
 43
0.00000001
 40
0.0
 40
0.0
 40
0.0
 40
0.0
 40
0.0250777997938283
 40
0.0501075422175026
 40
0.0751283997514676
 40
0.1001795865561769
 40
0.1253001747573083
 40
0.1875621689954302
 40
0.2499770595108453
 40
0.3124496652105749
 40
0.375056314747062
 40
0.5000410356445871
 40
0.6244789074743454
 40
0.687230334561886
 40
0.7497164092391423
 40
0.8120556406618102
 40
0.8741480025279931
 40
0.9161778556728641
 40
0.9580619158948962
 40
1.0
 40
1.0
 40
1.0
 40
1.0
 10
364.1207396482076
 20
196.3343654273923
 30
0.0
 10
364.1199922069146
 20
196.2684004802164
 30
0.0
 10
364.1184987566734
 20
196.1365969965509
 30
0.0
 10
364.1063733610058
 20
195.9393103101652
 30
0.0
 10
364.0870048359892
 20
195.7427623042808
 30
0.0
 10
364.0596852099618
 20
195.5469723655316
 30
0.0
 10
364.0073891828529
 20
195.2562214220428
 30
0.0
 10
363.9113136099432
 20
194.8742801654391
 30
0.0
 10
363.7451651289668
 20
194.4122689385837
 30
0.0
 10
363.5348775960185
 20
193.9686535606365
 30
0.0
 10
363.1983267302243
 20
193.4087190068326
 30
0.0
 10
362.6793456281784
 20
192.7768103759112
 30
0.0
 10
362.0473923409314
 20
192.2576295891793
 30
0.0
 10
361.4887029344619
 20
191.9214174106469
 30
0.0
 10
361.0451428459047
 20
191.7109064150715
 30
0.0
 10
360.5839254899449
 20
191.5448046629717
 30
0.0
 10
360.1596948945452
 20
191.4376248034266
 30
0.0
 10
359.7811006226522
 20
191.3746785909957
 30
0.0
 10
359.4515831302596
 20
191.3406391786776
 30
0.0
 10
359.2310681833009
 20
191.3364575761768
 30
0.0
 10
359.1207396482076
 20
191.3343654273922
 30
0.0
  0
LINE
  5
75
330
1F
100
AcDbEntity
  8
0
  6
Continuous
 62
     7
370
    25
100
AcDbLine
 10
366.1207396482
 20
178.8343654274
 30
0.0
 11
366.1207396482
 21
196.3343654274
 31
0.0
  0
SPLINE
  5
76
330
1F
100
AcDbEntity
  8
0
  6
Continuous
 62
     7
370
    25
100
AcDbSpline
210
0.0
220
0.0
230
1.0
 70
     8
 71
     3
 72
    25
 73
    21
 74
     0
 42
0.00000001
 43
0.00000001
 40
0.0
 40
0.0
 40
0.0
 40
0.0
 40
0.0250093465303485
 40
0.0499724453137071
 40
0.0749315816773566
 40
0.0999290610389977
 40
0.1250069947412631
 40
0.1875511718473026
 40
0.2503582161427164
 40
0.3125949390850466
 40
0.3751075771398789
 40
0.5003266042740232
 40
0.6250994951775617
 40
0.6876564931108283
 40
0.7500920242987206
 40
0.8127738061287949
 40
0.8753141070636972
 40
0.9169324168257548
 40
0.958434758246344
 40
1.0
 40
1.0
 40
1.0
 40
1.0
 10
304.1207396482076
 20
191.3343654273922
 30
0.0
 10
304.0549549548911
 20
191.3351086815076
 30
0.0
 10
303.9235072185317
 20
191.3365938152992
 30
0.0
 10
303.7267381286144
 20
191.3486538439583
 30
0.0
 10
303.5306683201788
 20
191.3679234837075
 30
0.0
 10
303.3352932113615
 20
191.3951147841543
 30
0.0
 10
303.044069137937
 20
191.4473661921394
 30
0.0
 10
302.6605496689666
 20
191.5437310809682
 30
0.0
 10
302.1976313844053
 20
191.7103464400162
 30
0.0
 10
301.7541022073676
 20
191.9207766698688
 30
0.0
 10
301.1945987560094
 20
192.2571083365115
 30
0.0
 10
300.5618863401654
 20
192.7768504032299
 30
0.0
 10
300.0423046760894
 20
193.4099914876754
 30
0.0
 10
299.7062597527425
 20
193.9693199210773
 30
0.0
 10
299.4958119357325
 20
194.413380523906
 30
0.0
 10
299.3293809779727
 20
194.8767139474541
 30
0.0
 10
299.2225582232836
 20
195.3021623108957
 30
0.0
 10
299.1603267034409
 20
195.6799913116727
 30
0.0
 10
299.1269036031205
 20
196.0064906094124
 30
0.0
 10
299.1227953367974
 20
196.225018663551
 30
0.0
 10
299.1207396482076
 20
196.3343654273923
 30
0.0
  0
SPLINE
  5
77
330
1F
100
AcDbEntity
  8
0
  6
Continuous
 62
     7
370
    25
100
AcDbSpline
210
0.0
220
0.0
230
1.0
 70
     8
 71
     3
 72
    23
 73
    19
 74
     0
 42
0.00000001
 43
0.00000001
 40
0.0
 40
0.0
 40
0.0
 40
0.0
 40
0.0312580377356419
 40
0.0624552957253462
 40
0.0936762718863885
 40
0.1250052721127249
 40
0.1875190309480371
 40
0.2503688330778034
 40
0.3125831342157131
 40
0.3751471375685434
 40
0.5003609638447034
 40
0.6251898969758559
 40
0.6877351457520515
 40
0.7501260595643381
 40
0.8128360606231607
 40
0.8753675446179529
 40
0.9377213860100416
 40
0.9999999999999999
 40
0.9999999999999999
 40
0.9999999999999999
 40
0.9999999999999999
 10
374.1207396482076
 20
192.3343654273923
 30
0.0
 10
374.0548695611037
 20
192.3353038348752
 30
0.0
 10
373.9232574681015
 20
192.3371788251531
 30
0.0
 10
373.7263876482124
 20
192.3523034306133
 30
0.0
 10
373.5304332907564
 20
192.3764692206416
 30
0.0
 10
373.2711741180817
 20
192.4217888579087
 30
0.0
 10
372.9513940079069
 20
192.5022091411455
 30
0.0
 10
372.5810699459138
 20
192.6356441624307
 30
0.0
 10
372.2263239490229
 20
192.8040929867219
 30
0.0
 10
371.7791750979551
 20
193.0730626274419
 30
0.0
 10
371.2736593439773
 20
193.4884481188307
 30
0.0
 10
370.8584481484081
 20
193.9942717373583
 30
0.0
 10
370.5896867262304
 20
194.4413447145316
 30
0.0
 10
370.4213272040241
 20
194.7963995703741
 30
0.0
 10
370.2878433488523
 20
195.1671010782731
 30
0.0
 10
370.1922890635806
 20
195.5500384257113
 30
0.0
 10
370.1318798587794
 20
195.9403511575837
 30
0.0
 10
370.1244515571721
 20
196.2030801980135
 30
0.0
 10
370.1207396482076
 20
196.3343654273923
 30
0.0
  0
LINE
  5
78
330
1F
100
AcDbEntity
  8
0
  6
Continuous
 62
     7
370
    25
100
AcDbLine
 10
398.1207396482
 20
192.3343654274
 30
0.0
 11
374.1207396482
 21
192.3343654274
 31
0.0
  0
LINE
  5
79
330
1F
100
AcDbEntity
  8
0
  6
Continuous
 62
     7
370
    25
100
AcDbLine
 10
398.1207396482
 20
183.8343654274
 30
0.0
 11
398.1207396482
 21
192.3343654274
 31
0.0
  0
LINE
  5
7A
330
1F
100
AcDbEntity
  8
0
  6
Continuous
 62
     7
370
    25
100
AcDbLine
 10
374.1207396482
 20
200.3343654274
 30
0.0
 11
398.1207396482
 21
200.3343654274
 31
0.0
  0
LINE
  5
7B
330
1F
100
AcDbEntity
  8
0
  6
Continuous
 62
     7
370
    25
100
AcDbLine
 10
398.1207396482
 20
200.3343654274
 30
0.0
 11
398.1207396482
 21
208.8343654274
 31
0.0
  0
SPLINE
  5
7C
330
1F
100
AcDbEntity
  8
0
  6
Continuous
 62
     7
370
    25
100
AcDbSpline
210
0.0
220
0.0
230
1.0
 70
     8
 71
     3
 72
    23
 73
    19
 74
     0
 42
0.00000001
 43
0.00000001
 40
0.0
 40
0.0
 40
0.0
 40
0.0
 40
0.0313298644007853
 40
0.0626041054234382
 40
0.093899426517174
 40
0.125292376615233
 40
0.1875592781390827
 40
0.2500190183592355
 40
0.3124536130409328
 40
0.3750582180093184
 40
0.500096208224885
 40
0.6245040145324245
 40
0.6872855927299258
 40
0.7497308278728232
 40
0.8121063445122514
 40
0.8741659371773182
 40
0.9371275380394374
 40
1.0
 40
1.0
 40
1.0
 40
1.0
 10
370.1207396482076
 20
196.3343654273922
 30
0.0
 10
370.121676152066
 20
196.4003871163334
 30
0.0
 10
370.1235474971039
 20
196.5323132785992
 30
0.0
 10
370.138749593463
 20
196.7296551717382
 30
0.0
 10
370.1630403716604
 20
196.9260670506747
 30
0.0
 10
370.2084394015077
 20
197.1851219481063
 30
0.0
 10
370.2886756270461
 20
197.5037917687754
 30
0.0
 10
370.4218011276564
 20
197.8734891980974
 30
0.0
 10
370.5901390485024
 20
198.2282375200905
 30
0.0
 10
370.8593456452184
 20
198.6757906845617
 30
0.0
 10
371.2741098700758
 20
199.1805598784711
 30
0.0
 10
371.7789696806081
 20
199.5953837192941
 30
0.0
 10
372.2253638648554
 20
199.8641837839969
 30
0.0
 10
372.5800458811175
 20
200.0326031503373
 30
0.0
 10
372.9489624532522
 20
200.1657902648428
 30
0.0
 10
373.3312177321394
 20
200.2617911321629
 30
0.0
 10
373.7229356420071
 20
200.3229918855182
 30
0.0
 10
373.9882009494195
 20
200.3305760375995
 30
0.0
 10
374.1207396482076
 20
200.3343654273922
 30
0.0
  0
ARC
  5
7D
330
1F
100
AcDbEntity
  8
0
  6
Continuous
 62
     7
370
    25
100
AcDbCircle
 10
331.6207396482
 20
196.3343654274
 30
0.0
 40
2.0
100
AcDbArc
 50
180.0
 51
0.0
  0
ARC
  5
7E
330
1F
100
AcDbEntity
  8
0
  6
Continuous
 62
     7
370
    25
100
AcDbCircle
 10
331.6207396482
 20
196.3343654274
 30
0.0
 40
2.0
100
AcDbArc
 50
0.0
 51
180.0
  0
LINE
  5
7F
330
1F
100
AcDbEntity
  8
0
  6
Continuous
 62
     7
370
    25
100
AcDbLine
 10
399.1207396482
 20
200.3343654274
 30
0.0
 11
399.1207396482
 21
207.8343654274
 31
0.0
  0
LINE
  5
80
330
1F
100
AcDbEntity
  8
0
  6
Continuous
 62
     7
370
    25
100
AcDbLine
 10
399.1207396482
 20
184.8343654274
 30
0.0
 11
399.1207396482
 21
192.3343654274
 31
0.0
  0
SPLINE
  5
81
330
1F
100
AcDbEntity
  8
0
  6
Continuous
 62
     7
370
    25
100
AcDbSpline
210
0.0
220
0.0
230
1.0
 70
    24
 71
     3
 72
     8
 73
     4
 74
     0
 42
0.00000001
 43
0.00000001
 40
0.0
 40
0.0
 40
0.0
 40
0.0
 40
1.0
 40
1.0
 40
1.0
 40
1.0
 10
399.1207396482076
 20
192.3343654273922
 30
0.0
 10
398.7883847393281
 20
192.3343654273922
 30
0.0
 10
398.4549687887616
 20
192.3343654273922
 30
0.0
 10
398.1207396482076
 20
192.3343654273922
 30
0.0
  0
SPLINE
  5
82
330
1F
100
AcDbEntity
  8
0
  6
Continuous
 62
     7
370
    25
100
AcDbSpline
210
0.0
220
0.0
230
1.0
 70
    24
 71
     3
 72
     8
 73
     4
 74
     0
 42
0.00000001
 43
0.00000001
 40
0.0
 40
0.0
 40
0.0
 40
0.0
 40
1.0
 40
1.0
 40
1.0
 40
1.0
 10
398.1207396482076
 20
200.3343654273922
 30
0.0
 10
398.4549606997756
 20
200.3343654273922
 30
0.0
 10
398.7883759534211
 20
200.3343654273922
 30
0.0
 10
399.1207396482076
 20
200.3343654273922
 30
0.0
  0
ARC
  5
83
330
1F
100
AcDbEntity
  8
0
  6
Continuous
 62
     7
370
    25
100
AcDbCircle
 10
386.6207396482
 20
196.3343654274
 30
0.0
 40
1.500000000000057
100
AcDbArc
 50
180.0
 51
0.0
  0
ARC
  5
84
330
1F
100
AcDbEntity
  8
0
  6
Continuous
 62
     7
370
    25
100
AcDbCircle
 10
386.6207396482
 20
196.3343654274
 30
0.0
 40
1.500000000000057
100
AcDbArc
 50
0.0
 51
180.0
  0
LINE
  5
85
330
1F
100
AcDbEntity
  8
0
  6
Continuous
 62
     7
370
    25
100
AcDbLine
 10
399.1207396482
 20
200.3343654274
 30
0.0
 11
399.1207396482
 21
192.3343654274
 31
0.0
  0
LINE
  5
86
330
1F
100
AcDbEntity
  8
0
  6
HIDDEN
 62
     7
370
    18
100
AcDbLine
 10
398.1207396482
 20
196.3343654274
 30
0.0
 11
398.1207396482
 21
192.3343654274
 31
0.0
  0
LINE
  5
87
330
1F
100
AcDbEntity
  8
0
  6
HIDDEN
 62
     7
370
    18
100
AcDbLine
 10
398.1207396482
 20
200.3343654274
 30
0.0
 11
398.1207396482
 21
196.3343654274
 31
0.0
  0
LINE
  5
88
330
1F
100
AcDbEntity
  8
0
  6
Continuous
 62
     7
370
    25
100
AcDbLine
 10
399.1207396482
 20
364.88
 30
0.0
 11
398.1207396482
 21
365.88
 31
0.0
  0
LINE
  5
89
330
1F
100
AcDbEntity
  8
0
  6
Continuous
 62
     7
370
    25
100
AcDbLine
 10
217.1207396482
 20
328.88
 30
0.0
 11
209.1207396482
 21
328.88
 31
0.0
  0
LINE
  5
8A
330
1F
100
AcDbEntity
  8
0
  6
Continuous
 62
     7
370
    25
100
AcDbLine
 10
217.1207396482
 20
377.88
 30
0.0
 11
209.1207396482
 21
377.88
 31
0.0
  0
LINE
  5
8B
330
1F
100
AcDbEntity
  8
0
  6
Continuous
 62
     7
370
    25
100
AcDbLine
 10
209.1207396482
 20
328.88
 30
0.0
 11
209.1207396482
 21
377.88
 31
0.0
  0
LINE
  5
8C
330
1F
100
AcDbEntity
  8
0
  6
Continuous
 62
     7
370
    25
100
AcDbLine
 10
217.1207396482
 20
328.88
 30
0.0
 11
217.1207396482
 21
377.88
 31
0.0
  0
LINE
  5
8D
330
1F
100
AcDbEntity
  8
0
  6
Continuous
 62
     7
370
    25
100
AcDbLine
 10
366.1207396482
 20
335.88
 30
0.0
 11
364.1207396482
 21
335.88
 31
0.0
  0
SPLINE
  5
8E
330
1F
100
AcDbEntity
  8
0
  6
Continuous
 62
     7
370
    25
100
AcDbSpline
210
0.0
220
0.0
230
1.0
 70
     8
 71
     3
 72
    25
 73
    21
 74
     0
 42
0.00000001
 43
0.00000001
 40
0.0
 40
0.0
 40
0.0
 40
0.0
 40
0.0250093465407949
 40
0.0499724453293512
 40
0.0749315816929781
 40
0.0999290610494256
 40
0.1250069947413876
 40
0.1875511718810282
 40
0.2503582161427795
 40
0.3125949391361284
 40
0.3751075771400499
 40
0.5003266042741281
 40
0.6250994951776093
 40
0.6876564931523447
 40
0.7500920242990715
 40
0.81277380606269
 40
0.875314107062555
 40
0.9169324167308494
 40
0.9584347581514122
 40
1.0
 40
1.0
 40
1.0
 40
1.0
 10
359.1207396482077
 20
336.6094901687515
 30
0.0
 10
359.1865243415517
 20
336.6092684799636
 30
0.0
 10
359.3179720779522
 20
336.6088255123389
 30
0.0
 10
359.514741167911
 20
336.6052342155364
 30
0.0
 10
359.7108109763466
 20
336.5995159837424
 30
0.0
 10
359.9061860851235
 20
336.5914874327403
 30
0.0
 10
360.1974101585889
 20
336.5761662368716
 30
0.0
 10
360.5809296275357
 20
336.5482693406076
 30
0.0
 10
361.0438479122121
 20
336.5015774316629
 30
0.0
 10
361.4873770891764
 20
336.4451493194913
 30
0.0
 10
362.0468805405014
 20
336.3598733239044
 30
0.0
 10
362.6795929562594
 20
336.2405175194813
 30
0.0
 10
363.1991746203743
 20
336.1221736952738
 30
0.0
 10
363.5352195437603
 20
336.0387220232079
 30
0.0
 10
363.745667360677
 20
335.9837484022484
 30
0.0
 10
363.9120983182217
 20
335.9386770953705
 30
0.0
 10
364.0189210730159
 20
335.9088589330966
 30
0.0
 10
364.0811525930386
 20
335.8913026446438
 30
0.0
 10
364.1145756933114
 20
335.8817767393846
 30
0.0
 10
364.1186839596219
 20
335.8805925453599
 30
0.0
 10
364.1207396482077
 20
335.8799999999999
 30
0.0
  0
LINE
  5
8F
330
1F
100
AcDbEntity
  8
0
  6
Continuous
 62
     7
370
    25
100
AcDbLine
 10
304.1207396482
 20
336.6094901688
 30
0.0
 11
359.1207396482
 21
336.6094901688
 31
0.0
  0
SPLINE
  5
90
330
1F
100
AcDbEntity
  8
0
  6
Continuous
 62
     7
370
    25
100
AcDbSpline
210
0.0
220
0.0
230
1.0
 70
     8
 71
     3
 72
    25
 73
    21
 74
     0
 42
0.00000001
 43
0.00000001
 40
0.0
 40
0.0
 40
0.0
 40
0.0
 40
0.0250777998374817
 40
0.0501075422829404
 40
0.0751283998168908
 40
0.1001795865999587
 40
0.1253001747580909
 40
0.1875621690365629
 40
0.249977059510687
 40
0.3124496651968005
 40
0.3750563147472242
 40
0.5000410356447148
 40
0.6244789074744205
 40
0.6872303345490319
 40
0.749716409239207
 40
0.8120556406573695
 40
0.8741480025280605
 40
0.916177855672933
 40
0.9580619158949427
 40
1.0
 40
1.0
 40
1.0
 40
1.0
 10
299.1207396482076
 20
335.8799999999999
 30
0.0
 10
299.1214870895
 20
335.8802154187605
 30
0.0
 10
299.122980539739
 20
335.8806458434677
 30
0.0
 10
299.1351059354022
 20
335.8841169978165
 30
0.0
 10
299.154474460417
 20
335.8896285296323
 30
0.0
 10
299.1817940864364
 20
335.8973605365284
 30
0.0
 10
299.2340901136454
 20
335.9120798726042
 30
0.0
 10
299.3301656866085
 20
335.9388906783017
 30
0.0
 10
299.4963141674669
 20
335.9838811062732
 30
0.0
 10
299.7066017003395
 20
336.0388099489911
 30
0.0
 10
300.0431525661904
 20
336.12237938755
 30
0.0
 10
300.5621336682287
 20
336.2405555669692
 30
0.0
 10
301.1940869554606
 20
336.3597559111167
 30
0.0
 10
301.7527763619206
 20
336.4449772356449
 30
0.0
 10
302.1963364504694
 20
336.5014260475277
 30
0.0
 10
302.657553806457
 20
336.5479655913657
 30
0.0
 10
303.0817844018588
 20
336.5789843817597
 30
0.0
 10
303.4603786737633
 20
336.5975030128847
 30
0.0
 10
303.7898961661558
 20
336.6076175082614
 30
0.0
 10
304.0104111131145
 20
336.6088656804366
 30
0.0
 10
304.1207396482076
 20
336.6094901687515
 30
0.0
  0
LINE
  5
91
330
1F
100
AcDbEntity
  8
0
  6
Continuous
 62
     7
370
    25
100
AcDbLine
 10
299.1207396482
 20
335.88
 30
0.0
 11
217.1207396482
 21
335.88
 31
0.0
  0
LINE
  5
92
330
1F
100
AcDbEntity
  8
0
  6
Continuous
 62
     7
370
    25
100
AcDbLine
 10
366.1207396482
 20
370.88
 30
0.0
 11
217.1207396482
 21
370.88
 31
0.0
  0
LINE
  5
93
330
1F
100
AcDbEntity
  8
0
  6
Continuous
 62
     7
370
    25
100
AcDbLine
 10
366.1207396482
 20
335.88
 30
0.0
 11
366.1207396482
 21
370.88
 31
0.0
  0
LINE
  5
94
330
1F
100
AcDbEntity
  8
0
  6
Continuous
 62
     7
370
    25
100
AcDbLine
 10
399.1207396482
 20
342.5980706736
 30
0.0
 11
399.1207396482
 21
364.88
 31
0.0
  0
SPLINE
  5
95
330
1F
100
AcDbEntity
  8
0
  6
Continuous
 62
     7
370
    25
100
AcDbSpline
210
0.0
220
0.0
230
1.0
 70
     8
 71
     3
 72
     8
 73
     4
 74
     0
 42
0.00000001
 43
0.00000001
 40
0.0
 40
0.0
 40
0.0
 40
0.0
 40
1.0
 40
1.0
 40
1.0
 40
1.0
 10
398.1207396482076
 20
341.537280717673
 30
0.0
 10
398.4549606997756
 20
341.8900513141046
 30
0.0
 10
398.7883759534211
 20
342.2435717361104
 30
0.0
 10
399.1207396482076
 20
342.598070673576
 30
0.0
  0
LINE
  5
96
330
1F
100
AcDbEntity
  8
0
  6
Continuous
 62
     7
370
    25
100
AcDbLine
 10
398.1207396482
 20
341.5372807177
 30
0.0
 11
398.1207396482
 21
365.88
 31
0.0
  0
LINE
  5
97
330
1F
100
AcDbEntity
  8
0
  6
Continuous
 62
     7
370
    25
100
AcDbLine
 10
374.1207396482
 20
341.5372807177
 30
0.0
 11
398.1207396482
 21
341.5372807177
 31
0.0
  0
SPLINE
  5
98
330
1F
100
AcDbEntity
  8
0
  6
Continuous
 62
     7
370
    25
100
AcDbSpline
210
0.0
220
0.0
230
1.0
 70
     8
 71
     3
 72
    23
 73
    19
 74
     0
 42
0.00000001
 43
0.00000001
 40
0.0
 40
0.0
 40
0.0
 40
0.0
 40
0.0313298644007853
 40
0.0626041054234382
 40
0.093899426517174
 40
0.125292376615233
 40
0.1875592781390827
 40
0.2500190183592355
 40
0.3124536130409328
 40
0.3750582180093184
 40
0.500096208224885
 40
0.6245040145324245
 40
0.6872855927299258
 40
0.7497308278728232
 40
0.8121063445122514
 40
0.8741659371773182
 40
0.9371275380394374
 40
1.0
 40
1.0
 40
1.0
 40
1.0
 10
370.1207396482076
 20
340.8799999999999
 30
0.0
 10
370.121676152066
 20
340.8803022205217
 30
0.0
 10
370.1235474971039
 20
340.8809061249996
 30
0.0
 10
370.138749593463
 20
340.8857718961509
 30
0.0
 10
370.1630403716604
 20
340.8934896892578
 30
0.0
 10
370.2084394015077
 20
340.90781822683
 30
0.0
 10
370.2886756270461
 20
340.9329072155147
 30
0.0
 10
370.4218011276564
 20
340.9733230006607
 30
0.0
 10
370.5901390485024
 20
341.0226547134292
 30
0.0
 10
370.8593456452184
 20
341.0977176121167
 30
0.0
 10
371.2741098700758
 20
341.2039265018331
 30
0.0
 10
371.7789696806081
 20
341.3112906594679
 30
0.0
 10
372.2253638648554
 20
341.3882191855818
 30
0.0
 10
372.5800458811175
 20
341.4392579917175
 30
0.0
 10
372.9489624532522
 20
341.4814748782961
 30
0.0
 10
373.3312177321394
 20
341.5129202257424
 30
0.0
 10
373.7229356420071
 20
341.5334283850492
 30
0.0
 10
373.9882009494195
 20
341.5359972133712
 30
0.0
 10
374.1207396482076
 20
341.537280717673
 30
0.0
  0
LINE
  5
99
330
1F
100
AcDbEntity
  8
0
  6
Continuous
 62
     7
370
    25
100
AcDbLine
 10
370.1207396482
 20
340.88
 30
0.0
 11
366.1207396482
 21
340.88
 31
0.0
  0
LINE
  5
9A
330
1F
100
AcDbEntity
  8
0
  6
Continuous
 62
     7
370
    25
100
AcDbLine
 10
398.1207396482
 20
365.88
 30
0.0
 11
366.1207396482
 21
365.88
 31
0.0
  0
LINE
  5
9B
330
1F
100
AcDbEntity
  8
0
  6
Continuous
 62
     7
370
    25
100
AcDbLine
 10
364.1207396482
 20
335.88
 30
0.0
 11
364.0240844587
 21
335.9073684895
 31
0.0
  0
LINE
  5
9C
330
1F
100
AcDbEntity
  8
0
  6
HIDDEN
 62
     7
370
    18
100
AcDbLine
 10
364.1207396482
 20
340.88
 30
0.0
 11
359.1207396482
 21
340.88
 31
0.0
  0
LINE
  5
9D
330
1F
100
AcDbEntity
  8
0
  6
HIDDEN
 62
     7
370
    18
100
AcDbLine
 10
304.1207396482
 20
340.88
 30
0.0
 11
299.1207396482
 21
340.88
 31
0.0
  0
LINE
  5
9E
330
1F
100
AcDbEntity
  8
0
  6
HIDDEN
 62
     7
370
    18
100
AcDbLine
 10
299.1207396482
 20
335.88
 30
0.0
 11
299.1207396482
 21
340.88
 31
0.0
  0
LINE
  5
9F
330
1F
100
AcDbEntity
  8
0
  6
HIDDEN
 62
     7
370
    18
100
AcDbLine
 10
359.1207396482
 20
340.88
 30
0.0
 11
304.1207396482
 21
340.88
 31
0.0
  0
LINE
  5
A0
330
1F
100
AcDbEntity
  8
0
  6
HIDDEN
 62
     7
370
    18
100
AcDbLine
 10
374.1207396482
 20
344.88
 30
0.0
 11
370.1207396482
 21
344.88
 31
0.0
  0
LINE
  5
A1
330
1F
100
AcDbEntity
  8
0
  6
HIDDEN
 62
     7
370
    18
100
AcDbLine
 10
370.1207396482
 20
340.88
 30
0.0
 11
370.1207396482
 21
344.88
 31
0.0
  0
LINE
  5
A2
330
1F
100
AcDbEntity
  8
0
  6
HIDDEN
 62
     7
370
    18
100
AcDbLine
 10
399.1207396482
 20
344.88
 30
0.0
 11
374.1207396482
 21
344.88
 31
0.0
  0
LINE
  5
A3
330
1F
100
AcDbEntity
  8
0
  6
HIDDEN
 62
     7
370
    18
100
AcDbLine
 10
333.6207396482
 20
348.88
 30
0.0
 11
333.6207396482
 21
340.88
 31
0.0
  0
LINE
  5
A4
330
1F
100
AcDbEntity
  8
0
  6
HIDDEN
 62
     7
370
    18
100
AcDbLine
 10
333.6207396482
 20
348.88
 30
0.0
 11
329.6207396482
 21
348.88
 31
0.0
  0
LINE
  5
A5
330
1F
100
AcDbEntity
  8
0
  6
HIDDEN
 62
     7
370
    18
100
AcDbLine
 10
329.6207396482
 20
348.88
 30
0.0
 11
329.6207396482
 21
340.88
 31
0.0
  0
LINE
  5
A6
330
1F
100
AcDbEntity
  8
0
  6
HIDDEN
 62
     7
370
    18
100
AcDbLine
 10
388.1207396482
 20
352.88
 30
0.0
 11
388.1207396482
 21
344.88
 31
0.0
  0
LINE
  5
A7
330
1F
100
AcDbEntity
  8
0
  6
HIDDEN
 62
     7
370
    18
100
AcDbLine
 10
385.1207396482
 20
352.88
 30
0.0
 11
385.1207396482
 21
344.88
 31
0.0
  0
LINE
  5
A8
330
1F
100
AcDbEntity
  8
0
  6
HIDDEN
 62
     7
370
    18
100
AcDbLine
 10
388.1207396482
 20
352.88
 30
0.0
 11
385.1207396482
 21
352.88
 31
0.0
  0
LINE
  5
A9
330
1F
100
AcDbEntity
  8
0
  6
HIDDEN
 62
     7
370
    18
100
AcDbLine
 10
364.1207396482
 20
335.8775
 30
0.0
 11
364.1207396482
 21
340.88
 31
0.0
  0
ARC
  5
AA
330
1F
100
AcDbEntity
  8
0
  6
Continuous
 62
     7
370
    25
100
AcDbCircle
 10
547.38
 20
196.3343654274
 30
0.0
 40
12.49999999999992
100
AcDbArc
 50
198.6629248849
 51
0.0
  0
SPLINE
  5
AB
330
1F
100
AcDbEntity
  8
0
  6
Continuous
 62
     7
370
    25
100
AcDbSpline
210
0.0
220
0.0
230
1.0
 70
    24
 71
     3
 72
     8
 73
     4
 74
     0
 42
0.00000001
 43
0.00000001
 40
0.0
 40
0.0
 40
0.0
 40
0.0
 40
1.0
 40
1.0
 40
1.0
 40
1.0
 10
536.5980706735764
 20
192.3343654273922
 30
0.0
 10
536.2435811071545
 20
192.3343654273922
 30
0.0
 10
535.8900598520365
 20
192.3343654273922
 30
0.0
 10
535.5372807176734
 20
192.3343654273922
 30
0.0
  0
ARC
  5
AC
330
1F
100
AcDbEntity
  8
0
  6
Continuous
 62
     7
370
    25
100
AcDbCircle
 10
547.38
 20
196.3343654274
 30
0.0
 40
11.50000000000009
100
AcDbArc
 50
200.3544063982
 51
159.6455936018
  0
SPLINE
  5
AD
330
1F
100
AcDbEntity
  8
0
  6
Continuous
 62
     7
370
    25
100
AcDbSpline
210
0.0
220
0.0
230
1.0
 70
    24
 71
     3
 72
     8
 73
     4
 74
     0
 42
0.00000001
 43
0.00000001
 40
0.0
 40
0.0
 40
0.0
 40
0.0
 40
1.0
 40
1.0
 40
1.0
 40
1.0
 10
535.5372807176734
 20
200.3343654273922
 30
0.0
 10
535.890051314105
 20
200.3343654273922
 30
0.0
 10
536.2435717361107
 20
200.3343654273922
 30
0.0
 10
536.5980706735763
 20
200.3343654273922
 30
0.0
  0
ARC
  5
AE
330
1F
100
AcDbEntity
  8
0
  6
Continuous
 62
     7
370
    25
100
AcDbCircle
 10
547.38
 20
196.3343654274
 30
0.0
 40
12.49999999999992
100
AcDbArc
 50
0.0
 51
161.3370751151
  0
LINE
  5
AF
330
1F
100
AcDbEntity
  8
0
  6
Continuous
 62
     7
370
    25
100
AcDbLine
 10
538.88
 20
192.3343654274
 30
0.0
 11
536.5980706736
 21
192.3343654274
 31
0.0
  0
LINE
  5
B0
330
1F
100
AcDbEntity
  8
0
  6
Continuous
 62
     7
370
    25
100
AcDbLine
 10
538.88
 20
200.3343654274
 30
0.0
 11
538.88
 21
192.3343654274
 31
0.0
  0
LINE
  5
B1
330
1F
100
AcDbEntity
  8
0
  6
Continuous
 62
     7
370
    25
100
AcDbLine
 10
536.5980706736
 20
200.3343654274
 30
0.0
 11
538.88
 21
200.3343654274
 31
0.0
  0
SPLINE
  5
B2
330
1F
100
AcDbEntity
  8
0
  6
Continuous
 62
     7
370
    25
100
AcDbSpline
210
0.0
220
0.0
230
1.0
 70
     8
 71
     3
 72
    23
 73
    19
 74
     0
 42
0.00000001
 43
0.00000001
 40
0.0
 40
0.0
 40
0.0
 40
0.0
 40
0.0312580377356419
 40
0.0624552957253462
 40
0.0936762718863885
 40
0.1250052721127249
 40
0.1875190309480371
 40
0.2503688330778034
 40
0.3125831342157131
 40
0.3751471375685434
 40
0.5003609638447034
 40
0.6251898969758559
 40
0.6877351457520515
 40
0.7501260595643381
 40
0.8128360606231607
 40
0.8753675446179529
 40
0.9377213860100416
 40
0.9999999999999999
 40
0.9999999999999999
 40
0.9999999999999999
 40
0.9999999999999999
 10
535.5372807176733
 20
192.3343654273923
 30
0.0
 10
535.5369635433802
 20
192.3353038348752
 30
0.0
 10
535.5363298115241
 20
192.3371788251531
 30
0.0
 10
535.5312312594202
 20
192.3523034306133
 30
0.0
 10
535.5231299144743
 20
192.3764692206416
 30
0.0
 10
535.508061467061
 20
192.4217888579087
 30
0.0
 10
535.4817067265465
 20
192.5022091411455
 30
0.0
 10
535.4394067956048
 20
192.6356441624307
 30
0.0
 10
535.3883567351693
 20
192.8040929867219
 30
0.0
 10
535.311360097237
 20
193.0730626274419
 30
0.0
 10
535.2038320734025
 20
193.4884481188307
 30
0.0
 10
535.0974744615677
 20
193.9942717373583
 30
0.0
 10
535.0225240362014
 20
194.4413447145316
 30
0.0
 10
534.9731831775722
 20
194.7963995703741
 30
0.0
 10
534.9326503280039
 20
195.1671010782731
 30
0.0
 10
534.9027703097275
 20
195.5500384257113
 30
0.0
 10
534.8835963654344
 20
195.9403511575837
 30
0.0
 10
534.8811983059936
 20
196.2030801980135
 30
0.0
 10
534.8800000000003
 20
196.3343654273923
 30
0.0
  0
SPLINE
  5
B3
330
1F
100
AcDbEntity
  8
0
  6
Continuous
 62
     7
370
    25
100
AcDbSpline
210
0.0
220
0.0
230
1.0
 70
     8
 71
     3
 72
    23
 73
    19
 74
     0
 42
0.00000001
 43
0.00000001
 40
0.0
 40
0.0
 40
0.0
 40
0.0
 40
0.0313298644007853
 40
0.0626041054234382
 40
0.093899426517174
 40
0.125292376615233
 40
0.1875592781390827
 40
0.2500190183592355
 40
0.3124536130409328
 40
0.3750582180093184
 40
0.500096208224885
 40
0.6245040145324245
 40
0.6872855927299258
 40
0.7497308278728232
 40
0.8121063445122514
 40
0.8741659371773182
 40
0.9371275380394374
 40
1.0
 40
1.0
 40
1.0
 40
1.0
 10
534.8800000000003
 20
196.3343654273922
 30
0.0
 10
534.880302220522
 20
196.4003871163334
 30
0.0
 10
534.8809061249999
 20
196.5323132785992
 30
0.0
 10
534.8857718961513
 20
196.7296551717382
 30
0.0
 10
534.8934896892581
 20
196.9260670506747
 30
0.0
 10
534.9078182268303
 20
197.1851219481063
 30
0.0
 10
534.9329072155151
 20
197.5037917687754
 30
0.0
 10
534.973323000661
 20
197.8734891980974
 30
0.0
 10
535.0226547134296
 20
198.2282375200905
 30
0.0
 10
535.0977176121171
 20
198.6757906845617
 30
0.0
 10
535.2039265018335
 20
199.1805598784711
 30
0.0
 10
535.3112906594681
 20
199.5953837192941
 30
0.0
 10
535.3882191855821
 20
199.8641837839969
 30
0.0
 10
535.4392579917179
 20
200.0326031503373
 30
0.0
 10
535.4814748782965
 20
200.1657902648428
 30
0.0
 10
535.5129202257428
 20
200.2617911321629
 30
0.0
 10
535.5334283850495
 20
200.3229918855182
 30
0.0
 10
535.5359972133714
 20
200.3305760375995
 30
0.0
 10
535.5372807176733
 20
200.3343654273922
 30
0.0
  0
ARC
  5
B4
330
1F
100
AcDbEntity
  8
0
  6
Continuous
 62
     7
370
    25
100
AcDbCircle
 10
547.38
 20
196.3343654274
 30
0.0
 40
17.5
100
AcDbArc
 50
180.0
 51
0.0
  0
ARC
  5
B5
330
1F
100
AcDbEntity
  8
0
  6
Continuous
 62
     7
370
    25
100
AcDbCircle
 10
547.38
 20
196.3343654274
 30
0.0
 40
17.5
100
AcDbArc
 50
0.0
 51
180.0
  0
ARC
  5
B6
330
1F
100
AcDbEntity
  8
0
  6
Continuous
 62
     7
370
    25
100
AcDbCircle
 10
547.38
 20
196.3343654274
 30
0.0
 40
24.5
100
AcDbArc
 50
180.0
 51
0.0
  0
ARC
  5
B7
330
1F
100
AcDbEntity
  8
0
  6
Continuous
 62
     7
370
    25
100
AcDbCircle
 10
547.38
 20
196.3343654274
 30
0.0
 40
24.5
100
AcDbArc
 50
0.0
 51
180.0
  0
LINE
  5
B8
330
1F
100
AcDbEntity
  8
0
  6
HIDDEN
 62
     7
370
    18
100
AcDbLine
 10
546.88
 20
196.3343654274
 30
0.0
 11
546.88
 21
197.8343654274
 31
0.0
  0
LINE
  5
B9
330
1F
100
AcDbEntity
  8
0
  6
HIDDEN
 62
     7
370
    18
100
AcDbLine
 10
546.88
 20
194.8343654274
 30
0.0
 11
546.88
 21
196.3343654274
 31
0.0
  0
LINE
  5
BA
330
1F
100
AcDbEntity
  8
0
  6
HIDDEN
 62
     7
370
    18
100
AcDbLine
 10
530.6094901688
 20
191.3343654274
 30
0.0
 11
534.88
 21
191.3343654274
 31
0.0
  0
LINE
  5
BB
330
1F
100
AcDbEntity
  8
0
  6
HIDDEN
 62
     7
370
    18
100
AcDbLine
 10
534.88
 20
191.3343654274
 30
0.0
 11
534.88
 21
201.3343654274
 31
0.0
  0
LINE
  5
BC
330
1F
100
AcDbEntity
  8
0
  6
HIDDEN
 62
     7
370
    18
100
AcDbLine
 10
530.6094901688
 20
201.3343654274
 30
0.0
 11
534.88
 21
201.3343654274
 31
0.0
  0
LINE
  5
BD
330
1F
100
AcDbEntity
  8
0
  6
HIDDEN
 62
     7
370
    18
100
AcDbLine
 10
542.88
 20
196.3343654274
 30
0.0
 11
542.88
 21
198.3343654274
 31
0.0
  0
LINE
  5
BE
330
1F
100
AcDbEntity
  8
0
  6
HIDDEN
 62
     7
370
    18
100
AcDbLine
 10
542.88
 20
194.3343654274
 30
0.0
 11
542.88
 21
196.3343654274
 31
0.0
  0
LINE
  5
BF
330
1F
100
AcDbEntity
  8
0
  6
HIDDEN
 62
     7
370
    18
100
AcDbLine
 10
546.88
 20
197.8343654274
 30
0.0
 11
538.88
 21
197.8343654274
 31
0.0
  0
LINE
  5
C0
330
1F
100
AcDbEntity
  8
0
  6
HIDDEN
 62
     7
370
    18
100
AcDbLine
 10
538.88
 20
194.8343654274
 30
0.0
 11
546.88
 21
194.8343654274
 31
0.0
  0
LINE
  5
C1
330
1F
100
AcDbEntity
  8
0
  6
HIDDEN
 62
     7
370
    18
100
AcDbLine
 10
542.88
 20
198.3343654274
 30
0.0
 11
534.88
 21
198.3343654274
 31
0.0
  0
LINE
  5
C2
330
1F
100
AcDbEntity
  8
0
  6
HIDDEN
 62
     7
370
    18
100
AcDbLine
 10
534.88
 20
194.3343654274
 30
0.0
 11
542.88
 21
194.3343654274
 31
0.0
  0
LINE
  5
C3
330
1F
100
AcDbEntity
  8
0
  6
Continuous
 62
     7
370
    25
100
AcDbLine
 10
613.8494739908
 20
304.8028880386
 30
0.0
 11
614.5564658472
 21
305.2111584391
 31
0.0
  0
LINE
  5
C4
330
1F
100
AcDbEntity
  8
0
  6
Continuous
 62
     7
370
    25
100
AcDbLine
 10
622.6868721964
 20
319.2949613314
 30
0.0
 11
622.6868721964
 21
320.1113694432
 31
0.0
  0
LINE
  5
C5
330
1F
100
AcDbEntity
  8
0
  6
Continuous
 62
     7
370
    25
100
AcDbLine
 10
620.0975295105
 20
325.8344295241
 30
0.0
 11
597.4701125125
 21
338.8969593133
 31
0.0
  0
LINE
  5
C6
330
1F
100
AcDbEntity
  8
0
  6
Continuous
 62
     7
370
    25
100
AcDbLine
 10
584.9711283546
 20
317.2457377537
 30
0.0
 11
607.5985453526
 21
304.1832079646
 31
0.0
  0
LINE
  5
C7
330
1F
100
AcDbEntity
  8
0
  6
Continuous
 62
     7
370
    25
100
AcDbLine
 10
599.9699093441
 20
343.2272036252
 30
0.0
 11
494.6109989473
 21
404.0496079559
 31
0.0
  0
LINE
  5
C8
330
1F
100
AcDbEntity
  8
0
  6
Continuous
 62
     7
370
    25
100
AcDbLine
 10
477.1124211262
 20
373.7378977726
 30
0.0
 11
582.471331523
 21
312.9154934418
 31
0.0
  0
LINE
  5
C9
330
1F
100
AcDbEntity
  8
0
  6
Continuous
 62
     7
370
    25
100
AcDbLine
 10
498.1107145116
 20
410.1119499926
 30
0.0
 11
492.4538602621
 21
413.3775824399
 31
0.0
  0
LINE
  5
CA
330
1F
100
AcDbEntity
  8
0
  6
Continuous
 62
     7
370
    25
100
AcDbLine
 10
467.9558513125
 20
370.9411881833
 30
0.0
 11
473.612705562
 21
367.675555736
 31
0.0
  0
LWPOLYLINE
  5
CB
330
1F
100
AcDbEntity
  8
0
  6
Continuous
 62
     7
370
    25
100
AcDbPolyline
 90
       13
 70
   128
 43
0.0
 10
613.8494739908
 20
304.8028880386
 10
613.3732660325
 20
304.5427139159
 10
612.4220299574
 20
304.1125525041
 10
611.4875037748
 20
303.8100730581
 10
610.5806382212
 20
303.6388200189
 10
609.712059907
 20
303.600800122
 10
608.8919467946
 20
303.6964588828
 10
608.1299089331
 20
303.9246753762
 10
607.4348758485
 20
304.2827753714
 10
606.8149919077
 20
304.7665626685
 10
606.2775208833
 20
305.3703682693
 10
605.8287608371
 20
306.0871168067
 10
605.4739703193
 20
306.9084094527
  0
SPLINE
  5
CC
330
1F
100
AcDbEntity
  8
0
  6
Continuous
 62
     7
370
    25
100
AcDbSpline
210
0.0
220
0.0
230
1.0
 70
     8
 71
     3
 72
     8
 73
     4
 74
     0
 42
0.00000001
 43
0.00000001
 40
0.0
 40
0.0
 40
0.0
 40
0.0
 40
1.0
 40
1.0
 40
1.0
 40
1.0
 10
606.9311688717333
 20
306.9332241592824
 30
0.0
 10
606.4454964856272
 20
306.9241887022974
 30
0.0
 10
605.9597585292385
 20
306.9159816354342
 30
0.0
 10
605.4739703193133
 20
306.9084094527241
 30
0.0
  0
LWPOLYLINE
  5
CD
330
1F
100
AcDbEntity
  8
0
  6
Continuous
 62
     7
370
    25
100
AcDbPolyline
 90
       51
 70
   128
 43
0.0
 10
606.9311688717
 20
313.4655506544
 10
607.2930583528
 20
314.6333949565
 10
607.7450635127
 20
315.8008324861
 10
608.281575391
 20
316.9533764379
 10
608.8959363783
 20
318.0767248216
 10
609.5805228304
 20
319.1569379367
 10
610.3268396712
 20
320.1806113508
 10
611.1256258082
 20
321.1350422365
 10
611.9669690542
 20
322.008387001
 10
612.840429128
 20
322.7898082543
 10
613.7351672088
 20
323.4696092912
 10
614.6400804356
 20
324.0393544178
 10
615.5439396836
 20
324.4919736313
 10
616.4355289065
 20
324.8218503514
 10
617.3037843179
 20
325.0248911172
 10
618.1379316818
 20
325.0985763832
 10
618.9276200114
 20
325.0419917842
 10
619.6630500146
 20
324.855839482
 10
620.3350956944
 20
324.5424294523
 10
620.9354175938
 20
324.1056508198
 10
621.4565662807
 20
323.5509235979
 10
621.8920747885
 20
322.8851314314
 10
622.2365388646
 20
322.1165361772
 10
622.4856840328
 20
321.254675382
 10
622.6364186351
 20
320.3102439303
 10
622.6868721964
 20
319.2949613314
 10
622.6364186351
 20
318.2214262906
 10
622.4856840328
 20
317.1029603716
 10
622.2365388646
 20
315.953442688
 10
621.8920747885
 20
314.787137677
 10
621.4565662807
 20
313.6185180906
 10
620.9354175938
 20
312.4620854024
 10
620.3350956944
 20
311.3321898582
 10
619.6630500146
 20
310.2428524026
 10
618.9276200114
 20
309.2075906926
 10
618.1379316818
 20
308.2392513555
 10
617.3037843179
 20
307.3498505749
 10
616.4355289065
 20
306.5504249808
 10
615.5439396836
 20
305.8508946957
 10
614.6400804356
 20
305.2599402346
 10
613.7351672088
 20
304.7848947885
 10
612.840429128
 20
304.4316532262
 10
611.9669690542
 20
304.2045989443
 10
611.1256258082
 20
304.1065494738
 10
610.3268396712
 20
304.1387215165
 10
609.5805228304
 20
304.3007158476
 10
608.8959363783
 20
304.5905222693
 10
608.281575391
 20
305.0045445556
 10
607.7450635127
 20
305.5376450778
 10
607.2930583528
 20
306.1832085583
 10
606.9311688717
 20
306.9332241593
  0
SPLINE
  5
CE
330
1F
100
AcDbEntity
  8
0
  6
Continuous
 62
     7
370
    25
100
AcDbSpline
210
0.0
220
0.0
230
1.0
 70
     8
 71
     3
 72
     8
 73
     4
 74
     0
 42
0.00000001
 43
0.00000001
 40
0.0
 40
0.0
 40
0.0
 40
0.0
 40
1.0
 40
1.0
 40
1.0
 40
1.0
 10
605.4739703193133
 20
313.4407359478101
 30
0.0
 10
605.9597467722323
 20
313.4483079472587
 30
0.0
 10
606.4454836467243
 20
313.4565149585282
 30
0.0
 10
606.9311688717333
 20
313.4655506543684
 30
0.0
  0
LWPOLYLINE
  5
CF
330
1F
100
AcDbEntity
  8
0
  6
Continuous
 62
     7
370
    25
100
AcDbPolyline
 90
       27
 70
   128
 43
0.0
 10
605.4739703193
 20
313.4407359478
 10
605.8287608371
 20
314.6716610064
 10
606.2775208833
 20
315.9065368644
 10
606.8149919077
 20
317.1308933013
 10
607.4348758485
 20
318.3303833623
 10
608.1299089331
 20
319.490951476
 10
608.8919467946
 20
320.5989981565
 10
609.712059907
 20
321.6415393619
 10
610.5806382212
 20
322.6063586405
 10
611.4875037748
 20
323.4821502825
 10
612.4220299574
 20
324.2586518002
 10
613.3732660325
 20
324.9267641833
 10
614.3300654579
 20
325.4786585203
 10
615.2812165002
 20
325.9078677378
 10
616.2155736135
 20
326.2093623812
 10
617.1221880425
 20
326.3796095496
 10
617.9904361195
 20
326.4166142941
 10
618.8101437519
 20
326.3199429949
 10
619.5717056418
 20
326.0907284419
 10
620.2661978407
 20
325.7316565612
 10
620.8854823198
 20
325.2469349411
 10
621.422302331
 20
324.6422435281
 10
621.8703674409
 20
323.9246680696
 10
622.2244272426
 20
323.1026170829
 10
622.4803328789
 20
322.1857233253
 10
622.6350856589
 20
321.1847309171
 10
622.6868721964
 20
320.1113694432
  0
LINE
  5
D0
330
1F
100
AcDbEntity
  8
0
  6
Continuous
 62
     7
370
    25
100
AcDbLine
 10
588.5034075708
 20
323.2376332897
 30
0.0
 11
605.4739703193
 21
313.4407359478
 31
0.0
  0
SPLINE
  5
D1
330
1F
100
AcDbEntity
  8
0
  6
Continuous
 62
     7
370
    25
100
AcDbSpline
210
0.0
220
0.0
230
1.0
 70
     8
 71
     3
 72
    23
 73
    19
 74
     0
 42
0.00000001
 43
0.00000001
 40
0.0
 40
0.0
 40
0.0
 40
0.0
 40
0.0313298644007853
 40
0.0626041054234382
 40
0.093899426517174
 40
0.125292376615233
 40
0.1875592781390827
 40
0.2500190183592355
 40
0.3124536130409328
 40
0.3750582180093184
 40
0.500096208224885
 40
0.6245040145324245
 40
0.6872855927299258
 40
0.7497308278728232
 40
0.8121063445122514
 40
0.8741659371773182
 40
0.9371275380394374
 40
1.0
 40
1.0
 40
1.0
 40
1.0
 10
585.2102127934802
 20
321.3359816109586
 30
0.0
 10
585.2110887038893
 20
321.389632097418
 30
0.0
 10
585.2128389696072
 20
321.4968378186864
 30
0.0
 10
585.2270290948077
 20
321.6537561984562
 30
0.0
 10
585.249662572633
 20
321.8073693538144
 30
0.0
 10
585.2918963405792
 20
322.0062151491203
 30
0.0
 10
585.3663725137864
 20
322.243910737457
 30
0.0
 10
585.4890847337604
 20
322.5079392946727
 30
0.0
 10
585.6430004077475
 20
322.7490269607123
 30
0.0
 10
585.886435702503
 20
323.0352221400268
 30
0.0
 10
586.2548193246341
 20
323.3214332481588
 30
0.0
 10
586.6877270441298
 20
323.497894506214
 30
0.0
 10
587.0577720813752
 20
323.5665633491114
 30
0.0
 10
587.3446600261614
 20
323.5801362453168
 30
0.0
 10
587.6353752827903
 20
323.5555288232188
 30
0.0
 10
587.9279058010518
 20
323.490715412494
 30
0.0
 10
588.2193936499469
 20
323.3891589995539
 30
0.0
 10
588.4087809835579
 20
323.2881180010135
 30
0.0
 10
588.5034075708361
 20
323.2376332896827
 30
0.0
  0
LWPOLYLINE
  5
D2
330
1F
100
AcDbEntity
  8
0
  6
Continuous
 62
     7
370
    25
100
AcDbPolyline
 90
       23
 70
   128
 43
0.0
 10
582.3817856687
 20
322.9687978346
 10
582.4335992968
 20
324.102254094
 10
582.5884327137
 20
325.2822443567
 10
582.8444706391
 20
326.4949343157
 10
583.1987112625
 20
327.7261062902
 10
583.6470014364
 20
328.9613259143
 10
584.1840853684
 20
330.1861113673
 10
584.8036662404
 20
331.3861031596
 10
585.4984800334
 20
332.5472324847
 10
586.2603806907
 20
333.6558861627
 10
587.0804356238
 20
334.6990662431
 10
587.9490304384
 20
335.6645423931
 10
588.8559816544
 20
336.5409952876
 10
589.7906560981
 20
337.3181493177
 10
590.7420955662
 20
337.9868930632
 10
591.6991453009
 20
338.5393861148
 10
592.650584769
 20
338.9691509969
 10
593.5852592127
 20
339.271149109
 10
594.4922104288
 20
339.4418397995
 10
595.3608052434
 20
339.479221876
 10
596.1808601765
 20
339.3828570679
 10
596.9427608338
 20
339.1538751644
 10
597.4701125125
 20
338.8969593133
  0
LINE
  5
D3
330
1F
100
AcDbEntity
  8
0
  6
Continuous
 62
     7
370
    25
100
AcDbLine
 10
608.5447365726
 20
307.8647169656
 30
0.0
 11
606.9311688717
 21
306.9332241593
 31
0.0
  0
LINE
  5
D4
330
1F
100
AcDbEntity
  8
0
  6
Continuous
 62
     7
370
    25
100
AcDbLine
 10
608.5447365726
 20
314.3970434607
 30
0.0
 11
608.5447365726
 21
307.8647169656
 31
0.0
  0
LINE
  5
D5
330
1F
100
AcDbEntity
  8
0
  6
Continuous
 62
     7
370
    25
100
AcDbLine
 10
606.9311688717
 20
313.4655506544
 30
0.0
 11
608.5447365726
 21
314.3970434607
 31
0.0
  0
LINE
  5
D6
330
1F
100
AcDbEntity
  8
0
  6
Continuous
 62
     7
370
    25
100
AcDbLine
 10
590.867067043
 20
318.0698183634
 30
0.0
 11
608.5447365726
 21
307.8647169656
 31
0.0
  0
ARC
  5
D7
330
1F
100
AcDbEntity
  8
0
  6
Continuous
 62
     7
370
    25
100
AcDbCircle
 10
594.1795043237
 20
323.2482412436
 30
0.0
 40
6.147219230288202
100
AcDbArc
 50
182.6054784857
 51
237.39452166
  0
LINE
  5
D8
330
1F
100
AcDbEntity
  8
0
  6
Continuous
 62
     7
370
    25
100
AcDbLine
 10
588.0699063188
 20
323.4350496029
 30
0.0
 11
588.0386399182
 21
322.9687978346
 31
0.0
  0
LWPOLYLINE
  5
D9
330
1F
100
AcDbEntity
  8
0
  6
Continuous
 62
     7
370
    25
100
AcDbPolyline
 90
       11
 70
   128
 43
0.0
 10
598.645241636
 20
316.8457369959
 10
598.6971540399
 20
316.4372811219
 10
598.8478097036
 20
316.008870969
 10
599.0824614011
 20
315.6024423079
 10
599.3781397895
 20
315.2577792078
 10
599.7059018078
 20
315.0086196942
 10
600.0336638261
 20
314.8793532364
 10
600.3293422145
 20
314.882633336
 10
600.563993912
 20
315.0181389138
 10
600.7146495758
 20
315.2726057398
 10
600.7665619796
 20
315.6211248282
  0
LWPOLYLINE
  5
DA
330
1F
100
AcDbEntity
  8
0
  6
Continuous
 62
     7
370
    25
100
AcDbPolyline
 90
        3
 70
   128
 43
0.0
 10
600.7665619796
 20
315.6211248282
 10
600.7146495758
 20
316.0295807022
 10
600.659124667
 20
316.2202871785
  0
LWPOLYLINE
  5
DB
330
1F
100
AcDbEntity
  8
0
  6
Continuous
 62
     7
370
    25
100
AcDbPolyline
 90
        3
 70
   128
 43
0.0
 10
598.7526789487
 20
317.3208548654
 10
598.6971540399
 20
317.1942560843
 10
598.645241636
 20
316.8457369959
  0
ARC
  5
DC
330
1F
100
AcDbEntity
  8
0
  6
Continuous
 62
     7
370
    25
100
AcDbCircle
 10
588.5287106757
 20
322.3026226144
 30
0.0
 40
6.182918118929432
100
AcDbArc
 50
173.814689737
 51
234.8731298696
  0
SPLINE
  5
DD
330
1F
100
AcDbEntity
  8
0
  6
Continuous
 62
     7
370
    25
100
AcDbSpline
210
0.0
220
0.0
230
1.0
 70
     8
 71
     3
 72
    23
 73
    19
 74
     0
 42
0.00000001
 43
0.00000001
 40
0.0
 40
0.0
 40
0.0
 40
0.0
 40
0.0312580377356419
 40
0.0624552957253462
 40
0.0936762718863885
 40
0.1250052721127249
 40
0.1875190309480371
 40
0.2503688330778034
 40
0.3125831342157131
 40
0.3751471375685434
 40
0.5003609638447034
 40
0.6251898969758559
 40
0.6877351457520515
 40
0.7501260595643381
 40
0.8128360606231607
 40
0.8753675446179529
 40
0.9377213860100416
 40
0.9999999999999999
 40
0.9999999999999999
 40
0.9999999999999999
 40
0.9999999999999999
 10
588.5034075708361
 20
316.7053067945967
 30
0.0
 10
588.456606109474
 20
316.7328320074909
 30
0.0
 10
588.3630941899331
 20
316.7878289118311
 30
0.0
 10
588.2202809845118
 20
316.8784605787703
 30
0.0
 10
588.0759918136037
 20
316.9748752942015
 30
0.0
 10
587.8820128931725
 20
317.1115602720777
 30
0.0
 10
587.6372585930452
 20
317.2970041414465
 30
0.0
 10
587.3454893695607
 20
317.5398600627927
 30
0.0
 10
587.0585482256464
 20
317.8013753155655
 30
0.0
 10
586.6879213960462
 20
318.1720976390782
 30
0.0
 10
586.2544339835908
 20
318.6737370511098
 30
0.0
 10
585.88562914302
 20
319.2128379648163
 30
0.0
 10
585.6425881648476
 20
319.6570057315483
 30
0.0
 10
585.4886507492918
 20
319.9955064130032
 30
0.0
 10
585.3656023573304
 20
320.3361423007187
 30
0.0
 10
585.2769069106982
 20
320.6756347754538
 30
0.0
 10
585.2206331263053
 20
321.0111734510122
 30
0.0
 10
585.2136848397739
 20
321.2277558002453
 30
0.0
 10
585.2102127934802
 20
321.3359816109586
 30
0.0
  0
LINE
  5
DE
330
1F
100
AcDbEntity
  8
0
  6
Continuous
 62
     7
370
    25
100
AcDbLine
 10
605.4739703193
 20
306.9084094527
 30
0.0
 11
588.5034075708
 21
316.7053067946
 31
0.0
  0
SPLINE
  5
DF
330
1F
100
AcDbEntity
  8
0
  6
Continuous
 62
     7
370
    25
100
AcDbSpline
210
0.0
220
0.0
230
1.0
 70
     8
 71
     3
 72
    25
 73
    21
 74
     0
 42
0.00000001
 43
0.00000001
 40
0.0
 40
0.0
 40
0.0
 40
0.0
 40
0.0250093465407949
 40
0.0499724453293512
 40
0.0749315816929781
 40
0.0999290610494256
 40
0.1250069947413876
 40
0.1875511718810282
 40
0.2503582161427795
 40
0.3125949391361284
 40
0.3751075771400499
 40
0.5003266042741281
 40
0.6250994951776093
 40
0.6876564931523447
 40
0.7500920242990715
 40
0.81277380606269
 40
0.875314107062555
 40
0.9169324167308494
 40
0.9584347581514122
 40
1.0
 40
1.0
 40
1.0
 40
1.0
 10
574.4123317396286
 20
328.1656908514873
 30
0.0
 10
574.4586917847452
 20
328.1381398812663
 30
0.0
 10
574.5513261451144
 20
328.0830888885947
 30
0.0
 10
574.6879234726299
 20
327.991453460483
 30
0.0
 10
574.8225223632827
 20
327.8933483167415
 30
0.0
 10
574.9549963847171
 20
327.7881153112916
 30
0.0
 10
575.1500891804146
 20
327.6203168818989
 30
0.0
 10
575.4015523131017
 20
327.3736891884022
 30
0.0
 10
575.6958688058902
 20
327.0296159998254
 30
0.0
 10
575.9695905938097
 20
326.6537065359248
 30
0.0
 10
576.3049200435869
 20
326.1158764183427
 30
0.0
 10
576.6679179846288
 20
325.3844885114976
 30
0.0
 10
576.9516359820959
 20
324.607099204578
 30
0.0
 10
577.1302463829863
 20
323.9791444997709
 30
0.0
 10
577.2401832412472
 20
323.508204787258
 30
0.0
 10
577.3259974731961
 20
323.0435380552879
 30
0.0
 10
577.3804479427498
 20
322.6403647268765
 30
0.0
 10
577.4120381019438
 20
322.2992822208805
 30
0.0
 10
577.4289359705894
 20
322.0151502609602
 30
0.0
 10
577.4310036019314
 20
321.8345527822356
 30
0.0
 10
577.4320382004282
 20
321.74418566687
 30
0.0
  0
LINE
  5
E0
330
1F
100
AcDbEntity
  8
0
  6
Continuous
 62
     7
370
    25
100
AcDbLine
 10
535.5214587744
 20
350.6169139266
 30
0.0
 11
574.4123317396
 21
328.1656908515
 31
0.0
  0
SPLINE
  5
E1
330
1F
100
AcDbEntity
  8
0
  6
Continuous
 62
     7
370
    25
100
AcDbSpline
210
0.0
220
0.0
230
1.0
 70
     8
 71
     3
 72
    25
 73
    21
 74
     0
 42
0.00000001
 43
0.00000001
 40
0.0
 40
0.0
 40
0.0
 40
0.0
 40
0.0250777998374817
 40
0.0501075422829404
 40
0.0751283998168908
 40
0.1001795865999587
 40
0.1253001747580909
 40
0.1875621690365629
 40
0.249977059510687
 40
0.3124496651968005
 40
0.3750563147472242
 40
0.5000410356447148
 40
0.6244789074744205
 40
0.6872303345490319
 40
0.749716409239207
 40
0.8120556406573695
 40
0.8741480025280605
 40
0.916177855672933
 40
0.9580619158949427
 40
1.0
 40
1.0
 40
1.0
 40
1.0
 10
531.4700974233026
 20
348.277449301108
 30
0.0
 10
531.4707782681753
 20
348.3310951989695
 30
0.0
 10
531.472138653196
 20
348.438284191338
 30
0.0
 10
531.4831670794727
 20
348.5958441261494
 30
0.0
 10
531.5007599363739
 20
348.7506771136227
 30
0.0
 10
531.5255451837
 20
348.9025518434574
 30
0.0
 10
531.5729322015225
 20
349.1246228971149
 30
0.0
 10
531.6598259931887
 20
349.4082193618326
 30
0.0
 10
531.8091237473948
 20
349.7360131755127
 30
0.0
 10
531.9966600450564
 20
350.0348251888811
 30
0.0
 10
532.2937299612188
 20
350.3887665593299
 30
0.0
 10
532.7442681956198
 20
350.7411355508563
 30
0.0
 10
533.275414022081
 20
350.9557600208977
 30
0.0
 10
533.7307276664416
 20
351.0370193947443
 30
0.0
 10
534.0842873505904
 20
351.0508898207517
 30
0.0
 10
534.4433256976513
 20
351.0172455154689
 30
0.0
 10
534.7652356254786
 20
350.9442515913588
 30
0.0
 10
535.0460368521074
 20
350.8486654057637
 30
0.0
 10
535.2861929337669
 20
350.7460783762817
 30
0.0
 10
535.4430031391236
 20
350.6599872385896
 30
0.0
 10
535.5214587743685
 20
350.6169139266119
 30
0.0
  0
LWPOLYLINE
  5
E2
330
1F
100
AcDbEntity
  8
0
  6
Continuous
 62
     7
370
    25
100
AcDbPolyline
 90
       28
 70
   128
 43
0.0
 10
473.487341366
 20
381.7501818858
 10
473.5371569363
 20
383.0598374986
 10
473.6862025614
 20
384.4164643677
 10
473.9332782136
 20
385.8091397311
 10
474.276394585
 20
387.2266505857
 10
474.7127891045
 20
388.6575839676
 10
475.2389481798
 20
390.0904188426
 10
475.8506354875
 20
391.5136188668
 10
476.542926081
 20
392.9157252704
 10
477.3102460436
 20
394.2854491171
 10
478.1464173661
 20
395.6117621958
 10
479.0447076887
 20
396.8839858135
 10
479.9978845058
 20
398.0918767736
 10
480.9982733982
 20
399.2257098485
 10
482.0378198228
 20
400.2763560808
 10
483.108153963
 20
401.2353562849
 10
484.2006581177
 20
402.094989155
 10
485.3065360857
 20
402.8483334326
 10
486.4168839879
 20
403.4893236327
 10
487.5227619559
 20
404.012798879
 10
488.6152661105
 20
404.4145444567
 10
489.6856002507
 20
404.6913257465
 10
490.7251466753
 20
404.8409142684
 10
491.7255355677
 20
404.8621056233
 10
492.6787123849
 20
404.7547291911
 10
493.5770027074
 20
404.5196495036
 10
494.4131740299
 20
404.1587592843
 10
494.6109989473
 20
404.0496079559
  0
LWPOLYLINE
  5
E3
330
1F
100
AcDbEntity
  8
0
  6
Continuous
 62
     7
370
    25
100
AcDbPolyline
 90
       36
 70
   128
 43
0.0
 10
578.8462517628
 20
320.927777555
 10
578.8960673331
 20
322.2374331678
 10
579.0451129582
 20
323.5940600369
 10
579.2921886104
 20
324.9867354003
 10
579.6353049818
 20
326.4042462549
 10
580.0716995013
 20
327.8351796368
 10
580.5978585766
 20
329.2680145118
 10
581.2095458843
 20
330.691214536
 10
581.9018364778
 20
332.0933209396
 10
582.6691564404
 20
333.4630447863
 10
583.5053277629
 20
334.789357865
 10
584.4036180855
 20
336.0615814827
 10
585.3567949026
 20
337.2694724428
 10
586.357183795
 20
338.4033055177
 10
587.3967302196
 20
339.45395175
 10
588.4670643598
 20
340.4129519541
 10
589.5595685145
 20
341.2725848242
 10
590.6654464825
 20
342.0259291018
 10
591.7757943847
 20
342.6669193019
 10
592.8816723527
 20
343.1903945482
 10
593.9741765073
 20
343.5921401259
 10
595.0445106475
 20
343.8689214157
 10
596.0840570721
 20
344.0185099376
 10
597.0844459645
 20
344.0397012925
 10
598.0376227817
 20
343.9323248603
 10
598.9359131042
 20
343.6972451728
 10
599.7720844267
 20
343.3363549535
 10
600.5394043893
 20
342.8525598781
 10
601.2316949829
 20
342.2497551802
 10
601.8433822906
 20
341.5327942888
 10
602.3695413659
 20
340.7074497513
 10
602.8059358853
 20
339.7803667567
 10
603.1490522567
 20
338.7590096322
 10
603.396127909
 20
337.6516017448
 10
603.5451735341
 20
336.4670592916
 10
603.594334488
 20
335.3615212207
  0
LWPOLYLINE
  5
E4
330
1F
100
AcDbEntity
  8
0
  6
Continuous
 62
     7
370
    25
100
AcDbPolyline
 90
       19
 70
   128
 43
0.0
 10
591.09535033
 20
313.7102996612
 10
590.6654464825
 20
313.4757777651
 10
589.5595685145
 20
312.9523025187
 10
588.4670643598
 20
312.5505569411
 10
587.3967302196
 20
312.2737756512
 10
586.357183795
 20
312.1241871294
 10
585.3567949026
 20
312.1029957745
 10
584.4036180855
 20
312.2103722067
 10
583.5053277629
 20
312.4454518942
 10
582.6691564404
 20
312.8063421135
 10
581.9018364778
 20
313.2901371889
 10
581.2095458843
 20
313.8929418868
 10
580.5978585766
 20
314.6099027782
 10
580.0716995013
 20
315.4352473157
 10
579.6353049818
 20
316.3623303103
 10
579.2921886104
 20
317.3836874348
 10
579.0451129582
 20
318.4910953222
 10
578.8960673331
 20
319.6756377754
 10
578.8462517628
 20
320.927777555
  0
SPLINE
  5
E5
330
1F
100
AcDbEntity
  8
0
  6
Continuous
 62
     7
370
    25
100
AcDbSpline
210
0.0
220
0.0
230
1.0
 70
     8
 71
     3
 72
    25
 73
    21
 74
     0
 42
0.00000001
 43
0.00000001
 40
0.0
 40
0.0
 40
0.0
 40
0.0
 40
0.0250777997938283
 40
0.0501075422175026
 40
0.0751283997514676
 40
0.1001795865561769
 40
0.1253001747573083
 40
0.1875621689954302
 40
0.2499770595108453
 40
0.3124496652105749
 40
0.375056314747062
 40
0.5000410356445871
 40
0.6244789074743454
 40
0.687230334561886
 40
0.7497164092391423
 40
0.8120556406618102
 40
0.8741480025279931
 40
0.9161778556728641
 40
0.9580619158948962
 40
1.0
 40
1.0
 40
1.0
 40
1.0
 10
577.4320382004281
 20
321.74418566687
 30
0.0
 10
577.4316620036872
 20
321.6907156387259
 30
0.0
 10
577.4309103311226
 20
321.5838780487207
 30
0.0
 10
577.4247908583944
 20
321.4291519926168
 30
0.0
 10
577.4149924845311
 20
321.2788186644253
 30
0.0
 10
577.4011419462174
 20
321.1332564076064
 30
0.0
 10
577.3745712131742
 20
320.9232023392144
 30
0.0
 10
577.3255936265859
 20
320.661494433621
 30
0.0
 10
577.2399219457087
 20
320.3704311703362
 30
0.0
 10
577.1300667623378
 20
320.1164635097074
 30
0.0
 10
576.9511818796296
 20
319.8307489067516
 30
0.0
 10
576.6677700009017
 20
319.5748599067656
 30
0.0
 10
576.3051989177673
 20
319.4575515646025
 30
0.0
 10
575.9704064263492
 20
319.4458675714149
 30
0.0
 10
575.6966774175407
 20
319.4780824133292
 30
0.0
 10
575.4034559245774
 20
319.5497219797259
 30
0.0
 10
575.1254131908164
 20
319.6480398959278
 30
0.0
 10
574.8708012634887
 20
319.7587448421907
 30
0.0
 10
574.6449492383675
 20
319.8695894277452
 30
0.0
 10
574.4899042150291
 20
319.9566995833262
 30
0.0
 10
574.4123317396286
 20
320.0002827326299
 30
0.0
  0
ARC
  5
E6
330
1F
100
AcDbEntity
  8
0
  6
Continuous
 62
     7
370
    25
100
AcDbCircle
 10
482.2829947657
 20
380.9034813974
 30
0.0
 40
8.836312604549674
100
AcDbArc
 50
174.5014496671
 51
234.1863699395
  0
SPLINE
  5
E7
330
1F
100
AcDbEntity
  8
0
  6
Continuous
 62
     7
370
    25
100
AcDbSpline
210
0.0
220
0.0
230
1.0
 70
     8
 71
     3
 72
    25
 73
    21
 74
     0
 42
0.00000001
 43
0.00000001
 40
0.0
 40
0.0
 40
0.0
 40
0.0
 40
0.0250093465303485
 40
0.0499724453137071
 40
0.0749315816773566
 40
0.0999290610389977
 40
0.1250069947412631
 40
0.1875511718473026
 40
0.2503582161427164
 40
0.3125949390850466
 40
0.3751075771398789
 40
0.5003266042740232
 40
0.6250994951775617
 40
0.6876564931108283
 40
0.7500920242987206
 40
0.8127738061287949
 40
0.8753141070636972
 40
0.9169324168257548
 40
0.958434758246344
 40
1.0
 40
1.0
 40
1.0
 40
1.0
 10
535.5214587743685
 20
342.4515058077544
 30
0.0
 10
535.4747852139808
 20
342.4788757894395
 30
0.0
 10
535.3815244028182
 20
342.5335651397326
 30
0.0
 10
535.2398482146872
 20
342.6222686039867
 30
0.0
 10
535.0971625230785
 20
342.7157053369063
 30
0.0
 10
534.9533344159014
 20
342.8143837682103
 30
0.0
 10
534.7365741772517
 20
342.9696738489692
 30
0.0
 10
534.4456588755
 20
343.1935262900813
 30
0.0
 10
534.0853100519236
 20
343.4994798253427
 30
0.0
 10
533.7317868624111
 20
343.8293209207927
 30
0.0
 10
533.2758589431138
 20
344.2975310238104
 30
0.0
 10
532.7440664046312
 20
344.9314758838412
 30
0.0
 10
532.2929849659879
 20
345.6122483325998
 30
0.0
 10
531.9963560786814
 20
346.1720724153863
 30
0.0
 10
531.8086747800068
 20
346.5981312179556
 30
0.0
 10
531.6591200944454
 20
347.0260013695075
 30
0.0
 10
531.5625003754625
 20
347.404830908549
 30
0.0
 10
531.5060818751633
 20
347.7315803182511
 30
0.0
 10
531.4757123420832
 20
348.0079352518625
 30
0.0
 10
531.4719700074849
 20
348.1875659447822
 30
0.0
 10
531.4700974233026
 20
348.2774493011081
 30
0.0
  0
LINE
  5
E8
330
1F
100
AcDbEntity
  8
0
  6
Continuous
 62
     7
370
    25
100
AcDbLine
 10
574.4123317396
 20
320.0002827326
 30
0.0
 11
535.5214587744
 21
342.4515058078
 31
0.0
  0
LINE
  5
E9
330
1F
100
AcDbEntity
  8
0
  6
Continuous
 62
     7
370
    25
100
AcDbLine
 10
538.5411652352
 20
344.1947452417
 30
0.0
 11
577.4320382004
 21
321.7435221666
 31
0.0
  0
ARC
  5
EA
330
1F
100
AcDbEntity
  8
0
  6
Continuous
 62
     7
370
    25
100
AcDbCircle
 10
542.6492462225
 20
350.6490298112
 30
0.0
 40
7.650759354636834
100
AcDbArc
 50
182.476303705
 51
237.5236964406
  0
LINE
  5
EB
330
1F
100
AcDbEntity
  8
0
  6
Continuous
 62
     7
370
    25
100
AcDbLine
 10
535.0359117128
 20
350.8341817893
 30
0.0
 11
535.0056313292
 21
350.3184695807
 31
0.0
  0
LWPOLYLINE
  5
EC
330
1F
100
AcDbEntity
  8
0
  6
Continuous
 62
     7
370
    25
100
AcDbPolyline
 90
       12
 70
   128
 43
0.0
 10
556.5723881554
 20
337.8682458754
 10
556.6296737415
 20
337.375083349
 10
556.7968895623
 20
336.8557333878
 10
557.0604887864
 20
336.3522706368
 10
557.3991161724
 20
335.9054826539
 10
557.7853381434
 20
335.5515655444
 10
558.1878652922
 20
335.3191915676
 10
558.5740872632
 20
335.2271862812
 10
558.9127146492
 20
335.2830034062
 10
559.1763138733
 20
335.4821209712
 10
559.3435296941
 20
335.8084076553
 10
559.4008152802
 20
336.2354296517
  0
LWPOLYLINE
  5
ED
330
1F
100
AcDbEntity
  8
0
  6
Continuous
 62
     7
370
    25
100
AcDbPolyline
 90
        3
 70
   128
 43
0.0
 10
559.4008152802
 20
336.2354296517
 10
559.3435296941
 20
336.728592178
 10
559.3031941088
 20
336.888010346
  0
LWPOLYLINE
  5
EE
330
1F
100
AcDbEntity
  8
0
  6
Continuous
 62
     7
370
    25
100
AcDbPolyline
 90
        3
 70
   128
 43
0.0
 10
556.6700093268
 20
338.4081155643
 10
556.6296737415
 20
338.2952678718
 10
556.5723881554
 20
337.8682458754
  0
LWPOLYLINE
  5
EF
330
1F
100
AcDbEntity
  8
0
  6
Continuous
 62
     7
370
    25
100
AcDbPolyline
 90
       22
 70
   128
 43
0.0
 10
485.6863318918
 20
368.7882844431
 10
485.1981490299
 20
368.520117589
 10
483.8749210559
 20
367.8735469511
 10
482.5633523498
 20
367.3503312397
 10
481.271139718
 20
366.9535408928
 10
480.0058663783
 20
366.6855044339
 10
478.7749574576
 20
366.5477948075
 10
477.5856364189
 20
366.5412201484
 10
476.4448826711
 20
366.6658190395
 10
475.3593906107
 20
366.9208602847
 10
474.3355303368
 20
367.3048472008
 10
473.3793102685
 20
367.8155263997
 10
472.4963418855
 20
368.4499010129
 10
471.6918067973
 20
369.204248278
 10
470.9704263357
 20
370.0741413851
 10
470.3364338481
 20
371.0544754556
 10
469.7935498546
 20
372.1394974995
 10
469.3449602142
 20
373.3228401759
 10
468.9932974294
 20
374.5975591595
 10
468.7406251972
 20
375.9561738923
 10
468.5884262988
 20
377.390711483
 10
468.5375938977
 20
378.8927534945
  0
LWPOLYLINE
  5
F0
330
1F
100
AcDbEntity
  8
0
  6
Continuous
 62
     7
370
    25
100
AcDbPolyline
 90
       42
 70
   128
 43
0.0
 10
468.5375938977
 20
378.8927534945
 10
468.5884262988
 20
380.453485347
 10
468.7406251972
 20
382.0637480454
 10
468.9932974294
 20
383.7140919279
 10
469.3449602142
 20
385.3948321204
 10
469.7935498546
 20
387.0961053711
 10
470.3364338481
 20
388.8079279321
 10
470.9704263357
 20
390.5202541479
 10
471.6918067973
 20
392.2230354074
 10
472.4963418855
 20
393.9062791132
 10
473.3793102685
 20
395.5601073218
 10
474.3355303368
 20
397.1748147116
 10
475.3593906107
 20
398.7409255378
 10
476.4448826711
 20
400.2492492391
 10
477.5856364189
 20
401.6909343723
 10
478.7749574576
 20
403.057520556
 10
480.0058663783
 20
404.3409881188
 10
481.271139718
 20
405.5338051628
 10
482.5633523498
 20
406.6289717633
 10
483.8749210559
 20
407.6200610472
 10
485.1981490299
 20
408.5012569085
 10
486.5252710437
 20
409.2673881395
 10
487.8484990176
 20
409.9139587775
 10
489.1600677238
 20
410.4371744889
 10
490.4522803555
 20
410.8339648358
 10
491.7175536953
 20
411.1020012947
 10
492.948462616
 20
411.2397109211
 10
494.1377836546
 20
411.2462855801
 10
495.2785374024
 20
411.1216866891
 10
496.3640294628
 20
410.8666454439
 10
497.3878897367
 20
410.4826585278
 10
498.344109805
 20
409.9719793289
 10
499.227078188
 20
409.3376047156
 10
500.0316132762
 20
408.5832574506
 10
500.7529937378
 20
407.7133643435
 10
501.3869862254
 20
406.7330302729
 10
501.9298702189
 20
405.648008229
 10
502.3784598593
 20
404.4646655526
 10
502.7301226441
 20
403.1899465691
 10
502.9827948763
 20
401.8313318362
 10
503.1349937748
 20
400.3967942456
 10
503.184909713
 20
399.0999946264
  0
LWPOLYLINE
  5
F1
330
1F
100
AcDbEntity
  8
0
  6
Continuous
 62
     7
370
    25
100
AcDbPolyline
 90
       32
 70
   128
 43
0.0
 10
462.8807396482
 20
382.1583859418
 10
462.9315720493
 20
383.7191177942
 10
463.0837709477
 20
385.3293804926
 10
463.3364431799
 20
386.9797243752
 10
463.6881059647
 20
388.6604645677
 10
464.1366956051
 20
390.3617378184
 10
464.6795795987
 20
392.0735603794
 10
465.3135720862
 20
393.7858865952
 10
466.0349525478
 20
395.4886678547
 10
466.839487636
 20
397.1719115605
 10
467.722456019
 20
398.8257397691
 10
468.6786760873
 20
400.4404471589
 10
469.7025363612
 20
402.006557985
 10
470.7880284216
 20
403.5148816864
 10
471.9287821694
 20
404.9565668196
 10
473.1181032081
 20
406.3231530032
 10
474.3490121288
 20
407.6066205661
 10
475.6142854685
 20
408.7994376101
 10
476.9064981003
 20
409.8946042106
 10
478.2180668064
 20
410.8856934945
 10
479.5412947804
 20
411.7668893558
 10
480.8684167942
 20
412.5330205868
 10
482.1916447681
 20
413.1795912248
 10
483.5032134743
 20
413.7028069362
 10
484.795426106
 20
414.0995972831
 10
486.0606994458
 20
414.367633742
 10
487.2916083665
 20
414.5053433684
 10
488.4809294051
 20
414.5119180274
 10
489.6216831529
 20
414.3873191364
 10
490.7071752133
 20
414.1322778911
 10
491.7310354873
 20
413.7482909751
 10
492.4538602621
 20
413.3775824399
  0
LWPOLYLINE
  5
F2
330
1F
100
AcDbEntity
  8
0
  6
Continuous
 62
     7
370
    25
100
AcDbPolyline
 90
       12
 70
   128
 43
0.0
 10
467.9558513125
 20
370.9411881833
 10
467.722456019
 20
371.081158847
 10
466.839487636
 20
371.7155334602
 10
466.0349525478
 20
372.4698807252
 10
465.3135720862
 20
373.3397738324
 10
464.6795795987
 20
374.3201079029
 10
464.1366956051
 20
375.4051299468
 10
463.6881059647
 20
376.5884726232
 10
463.3364431799
 20
377.8631916068
 10
463.0837709477
 20
379.2218063396
 10
462.9315720493
 20
380.6563439303
 10
462.8807396482
 20
382.1583859418
  0
ARC
  5
F3
330
1F
100
AcDbEntity
  8
0
  6
HIDDEN
 62
     7
370
    18
100
AcDbCircle
 10
603.5832776987
 20
320.9345384056
 30
0.0
 40
19.12132134220224
100
AcDbArc
 50
302.4727106032
 51
357.5326659295
  0
ARC
  5
F4
330
1F
100
AcDbEntity
  8
0
  6
HIDDEN
 62
     7
370
    18
100
AcDbCircle
 10
593.9125301914
 20
333.8400744526
 30
0.0
 40
6.182918118930293
100
AcDbArc
 50
353.814689737
 51
54.8731298696
  0
LWPOLYLINE
  5
F5
330
1F
100
AcDbEntity
  8
0
  6
HIDDEN
 62
     7
370
    18
100
AcDbPolyline
 90
        9
 70
   128
 43
0.0
 10
590.867067043
 20
324.6021448585
 10
590.3152682844
 20
324.8579330904
 10
589.7846748427
 20
324.9783747021
 10
589.2956771262
 20
324.95884119
 10
588.867067043
 20
324.8000832159
 10
588.5153158381
 20
324.5082017599
 10
588.2539411132
 20
324.0944136626
 10
588.0929873523
 20
323.5746205684
 10
588.0699063188
 20
323.4350496029
  0
LWPOLYLINE
  5
F6
330
1F
100
AcDbEntity
  8
0
  6
HIDDEN
 62
     7
370
    18
100
AcDbPolyline
 90
        9
 70
   128
 43
0.0
 10
600.659124667
 20
316.2202871785
 10
600.563993912
 20
316.4579908551
 10
600.3293422145
 20
316.8644195162
 10
600.0336638261
 20
317.2090826163
 10
599.7059018078
 20
317.4582421299
 10
599.3781397895
 20
317.5875085877
 10
599.0824614011
 20
317.5842284882
 10
598.8478097036
 20
317.4487229104
 10
598.7526789487
 20
317.3208548654
  0
LINE
  5
F7
330
1F
100
AcDbEntity
  8
0
  6
HIDDEN
 62
     7
370
    18
100
AcDbLine
 10
608.5447365726
 20
314.3970434607
 30
0.0
 11
590.867067043
 21
324.6021448585
 31
0.0
  0
LWPOLYLINE
  5
F8
330
1F
100
AcDbEntity
  8
0
  6
HIDDEN
 62
     7
370
    18
100
AcDbPolyline
 90
       23
 70
   128
 43
0.0
 10
600.0594551984
 20
333.1738992324
 10
600.0076415703
 20
332.040442973
 10
599.8528081534
 20
330.8604527103
 10
599.596770228
 20
329.6477627513
 10
599.2425296047
 20
328.4165907768
 10
598.7942394308
 20
327.1813711527
 10
598.2571554988
 20
325.9565856997
 10
597.6375746267
 20
324.7565939074
 10
596.9427608338
 20
323.5954645823
 10
596.1808601765
 20
322.4868109043
 10
595.3608052434
 20
321.4436308239
 10
594.4922104288
 20
320.4781546739
 10
593.5852592127
 20
319.6017017794
 10
592.650584769
 20
318.8245477492
 10
591.6991453009
 20
318.1558040038
 10
590.7420955662
 20
317.6033109521
 10
589.7906560981
 20
317.1735460701
 10
588.8559816544
 20
316.871547958
 10
587.9490304384
 20
316.7008572675
 10
587.0804356238
 20
316.663475191
 10
586.2603806907
 20
316.7598399991
 10
585.4984800334
 20
316.9888219026
 10
584.9711283546
 20
317.2457377537
  0
ARC
  5
F9
330
1F
100
AcDbEntity
  8
0
  6
HIDDEN
 62
     7
370
    18
100
AcDbCircle
 10
489.4404253078
 20
396.8840243312
 30
0.0
 40
8.836312604549658
100
AcDbArc
 50
354.5014496671
 51
54.1863699395
  0
LINE
  5
FA
330
1F
100
AcDbEntity
  8
0
  6
HIDDEN
 62
     7
370
    18
100
AcDbLine
 10
603.594334488
 20
335.3615212207
 30
0.0
 11
603.5949891043
 21
335.2149195119
 31
0.0
  0
ARC
  5
FB
330
1F
100
AcDbEntity
  8
0
  6
HIDDEN
 62
     7
370
    18
100
AcDbCircle
 10
576.9004464536
 20
336.3461796013
 30
0.0
 40
26.71850214216289
100
AcDbArc
 50
302.0917220956
 51
357.5733740722
  0
LWPOLYLINE
  5
FC
330
1F
100
AcDbEntity
  8
0
  6
HIDDEN
 62
     7
370
    18
100
AcDbPolyline
 90
       11
 70
   128
 43
0.0
 10
606.4234162291
 20
318.8867572755
 10
606.3715038252
 20
319.2952131495
 10
606.2208481615
 20
319.7236233024
 10
605.986196464
 20
320.1300519635
 10
605.6905180756
 20
320.4747150636
 10
605.3627560573
 20
320.7238745772
 10
605.034994039
 20
320.853141035
 10
604.7393156506
 20
320.8498609355
 10
604.5046639531
 20
320.7143553576
 10
604.3540082894
 20
320.4598885316
 10
604.3020958855
 20
320.1113694432
  0
LWPOLYLINE
  5
FD
330
1F
100
AcDbEntity
  8
0
  6
HIDDEN
 62
     7
370
    18
100
AcDbPolyline
 90
       11
 70
   128
 43
0.0
 10
604.3020958855
 20
320.1113694432
 10
604.3540082894
 20
319.7029135692
 10
604.5046639531
 20
319.2745034163
 10
604.7393156506
 20
318.8680747552
 10
605.034994039
 20
318.5234116551
 10
605.3627560573
 20
318.2742521415
 10
605.6905180756
 20
318.1449856837
 10
605.986196464
 20
318.1482657832
 10
606.2208481615
 20
318.2837713611
 10
606.3715038252
 20
318.5382381871
 10
606.4234162291
 20
318.8867572755
  0
LWPOLYLINE
  5
FE
330
1F
100
AcDbEntity
  8
0
  6
HIDDEN
 62
     7
370
    18
100
AcDbPolyline
 90
       19
 70
   128
 43
0.0
 10
577.4320382004
 20
321.7435221666
 10
578.0459772203
 20
321.4511281629
 10
578.6412620137
 20
321.2916692999
 10
579.1998051534
 20
321.2699906546
 10
579.7046355888
 20
321.3867509215
 10
580.1404143025
 20
321.6384023991
 10
580.4939003789
 20
322.0172987845
 10
580.7543533224
 20
322.5119275028
 10
580.913859402
 20
323.1072595107
 10
580.9675721064
 20
323.7852059464
 10
580.913859402
 20
324.5251677505
 10
580.7543533224
 20
325.304661558
 10
580.4939003789
 20
326.100002844
 10
580.1404143025
 20
326.887025566
 10
579.7046355888
 20
327.6418164368
 10
579.1998051534
 20
328.3414415178
 10
578.6412620137
 20
328.9646430549
 10
578.0459772203
 20
329.4924853848
 10
577.4320382004
 20
329.9089302854
  0
LWPOLYLINE
  5
FF
330
1F
100
AcDbEntity
  8
0
  6
HIDDEN
 62
     7
370
    18
100
AcDbPolyline
 90
       28
 70
   128
 43
0.0
 10
498.2360787075
 20
396.0373238427
 10
498.1862631373
 20
394.7276682299
 10
498.0372175122
 20
393.3710413609
 10
497.7901418599
 20
391.9783659975
 10
497.4470254885
 20
390.5608551429
 10
497.0106309691
 20
389.129921761
 10
496.4844718938
 20
387.6970868859
 10
495.8727845861
 20
386.2738868618
 10
495.1804939925
 20
384.8717804582
 10
494.4131740299
 20
383.5020566115
 10
493.5770027074
 20
382.1757435328
 10
492.6787123849
 20
380.9035199151
 10
491.7255355677
 20
379.6956289549
 10
490.7251466753
 20
378.5617958801
 10
489.6856002507
 20
377.5111496478
 10
488.6152661105
 20
376.5521494437
 10
487.5227619559
 20
375.6925165736
 10
486.4168839879
 20
374.9391722959
 10
485.3065360857
 20
374.2981820959
 10
484.2006581177
 20
373.7747068495
 10
483.108153963
 20
373.3729612719
 10
482.0378198228
 20
373.096179982
 10
480.9982733982
 20
372.9465914602
 10
479.9978845058
 20
372.9254001053
 10
479.0447076887
 20
373.0327765375
 10
478.1464173661
 20
373.267856225
 10
477.3102460436
 20
373.6287464443
 10
477.1124211262
 20
373.7378977726
  0
LINE
  5
100
330
1F
100
AcDbEntity
  8
0
  6
HIDDEN
 62
     7
370
    18
100
AcDbLine
 10
577.4320382004
 20
329.9089302854
 30
0.0
 11
538.5411652352
 21
352.3601533605
 31
0.0
  0
ARC
  5
101
330
1F
100
AcDbEntity
  8
0
  6
HIDDEN
 62
     7
370
    18
100
AcDbCircle
 10
537.1677809297
 20
350.7260235912
 30
0.0
 40
2.134611101249191
100
AcDbArc
 50
49.9550395183
 51
177.0956475579
  0
LWPOLYLINE
  5
102
330
1F
100
AcDbEntity
  8
0
  6
HIDDEN
 62
     7
370
    18
100
AcDbPolyline
 90
       10
 70
   128
 43
0.0
 10
559.3031941088
 20
336.888010346
 10
559.1763138733
 20
337.2479421393
 10
558.9127146492
 20
337.7514048903
 10
558.5740872632
 20
338.1981928732
 10
558.1878652922
 20
338.5521099827
 10
557.7853381434
 20
338.7844839595
 10
557.3991161724
 20
338.8764892459
 10
557.0604887864
 20
338.8206721209
 10
556.7968895623
 20
338.6215545559
 10
556.6700093268
 20
338.4081155643
  0
LWPOLYLINE
  5
103
330
1F
100
AcDbEntity
  8
0
  6
HIDDEN
 62
     7
370
    18
100
AcDbPolyline
 90
       12
 70
   128
 43
0.0
 10
565.0576695297
 20
339.501062099
 10
565.0003839436
 20
339.9942246253
 10
564.8331681228
 20
340.5135745866
 10
564.5695688987
 20
341.0170373376
 10
564.2309415127
 20
341.4638253205
 10
563.8447195417
 20
341.81774243
 10
563.4421923929
 20
342.0501164068
 10
563.0559704219
 20
342.1421216932
 10
562.7173430359
 20
342.0863045682
 10
562.4537438118
 20
341.8871870032
 10
562.286527991
 20
341.5609003191
 10
562.2292424049
 20
341.1338783227
  0
LWPOLYLINE
  5
104
330
1F
100
AcDbEntity
  8
0
  6
HIDDEN
 62
     7
370
    18
100
AcDbPolyline
 90
       12
 70
   128
 43
0.0
 10
562.2292424049
 20
341.1338783227
 10
562.286527991
 20
340.6407157963
 10
562.4537438118
 20
340.1213658351
 10
562.7173430359
 20
339.6179030841
 10
563.0559704219
 20
339.1711151012
 10
563.4421923929
 20
338.8171979917
 10
563.8447195417
 20
338.5848240149
 10
564.2309415127
 20
338.4928187284
 10
564.5695688987
 20
338.5486358535
 10
564.8331681228
 20
338.7477534185
 10
565.0003839436
 20
339.0740401025
 10
565.0576695297
 20
339.501062099
  0
ARC
  5
105
330
1F
100
AcDbEntity
  8
0
  6
HIDDEN
 62
     7
370
    18
100
AcDbCircle
 10
465.7252845055
 20
400.5297724449
 30
0.0
 40
37.49620611908616
100
AcDbArc
 50
302.1642682071
 51
357.5008279608
  0
LINE
  5
106
330
1F
100
AcDbEntity
  8
0
  6
HIDDEN
 62
     7
370
    18
100
AcDbLine
 10
503.184909713
 20
399.0999946264
 30
0.0
 11
503.1858261758
 21
398.8947522341
 31
0.0
  0
LWPOLYLINE
  5
107
330
1F
100
AcDbEntity
  8
0
  6
HIDDEN
 62
     7
370
    18
100
AcDbPolyline
 90
       12
 70
   128
 43
0.0
 10
492.4538602621
 20
413.3775824399
 10
492.6872555555
 20
413.2376117762
 10
493.5702239385
 20
412.6032371629
 10
494.3747590268
 20
411.8488898979
 10
495.0961394883
 20
410.9789967908
 10
495.7301319759
 20
409.9986627202
 10
496.2730159694
 20
408.9136406763
 10
496.7216056098
 20
407.7302979999
 10
497.0732683946
 20
406.4555790164
 10
497.3259406268
 20
405.0969642835
 10
497.4781395253
 20
403.6624266929
 10
497.5289719263
 20
402.1603846814
  0
LWPOLYLINE
  5
108
330
1F
100
AcDbEntity
  8
0
  6
HIDDEN
 62
     7
370
    18
100
AcDbPolyline
 90
       32
 70
   128
 43
0.0
 10
497.5289719263
 20
402.1603846814
 10
497.4781395253
 20
400.5996528289
 10
497.3259406268
 20
398.9893901305
 10
497.0732683946
 20
397.339046248
 10
496.7216056098
 20
395.6583060555
 10
496.2730159694
 20
393.9570328048
 10
495.7301319759
 20
392.2452102438
 10
495.0961394883
 20
390.532884028
 10
494.3747590268
 20
388.8301027684
 10
493.5702239385
 20
387.1468590627
 10
492.6872555555
 20
385.4930308541
 10
491.7310354873
 20
383.8783234642
 10
490.7071752133
 20
382.3122126381
 10
489.6216831529
 20
380.8038889368
 10
488.4809294051
 20
379.3622038035
 10
487.2916083665
 20
377.9956176199
 10
486.0606994458
 20
376.7121500571
 10
484.795426106
 20
375.5193330131
 10
483.5032134743
 20
374.4241664125
 10
482.1916447681
 20
373.4330771286
 10
480.8684167942
 20
372.5518812673
 10
479.5412947804
 20
371.7857500363
 10
478.2180668064
 20
371.1391793984
 10
476.9064981003
 20
370.615963687
 10
475.6142854685
 20
370.2191733401
 10
474.3490121288
 20
369.9511368812
 10
473.1181032081
 20
369.8134272548
 10
471.9287821694
 20
369.8068525957
 10
470.7880284216
 20
369.9314514868
 10
469.7025363612
 20
370.186492732
 10
468.6786760873
 20
370.5704796481
 10
467.9558513125
 20
370.9411881833
  0
LINE
  5
109
330
1F
100
AcDbEntity
  8
0
  6
HIDDEN
 62
     7
370
    18
100
AcDbLine
 10
604.6128170078
 20
320.7981366529
 30
0.0
 11
598.9559627583
 21
317.5325042056
 31
0.0
  0
LINE
  5
10A
330
1F
100
AcDbEntity
  8
0
  6
HIDDEN
 62
     7
370
    18
100
AcDbLine
 10
600.4558408573
 20
314.9343576185
 30
0.0
 11
606.1126951068
 21
318.1999900658
 31
0.0
  0
LINE
  5
10B
330
1F
100
AcDbEntity
  8
0
  6
HIDDEN
 62
     7
370
    18
100
AcDbLine
 10
588.8672295777
 20
324.8001770605
 30
0.0
 11
586.2680897152
 21
323.2997255559
 31
0.0
  0
LINE
  5
10C
330
1F
100
AcDbEntity
  8
0
  6
HIDDEN
 62
     7
370
    18
100
AcDbLine
 10
576.6515128468
 20
319.6022922249
 30
0.0
 11
579.931835032
 21
321.4959819141
 31
0.0
  0
LINE
  5
10D
330
1F
100
AcDbEntity
  8
0
  6
HIDDEN
 62
     7
370
    18
100
AcDbLine
 10
562.6435372347
 20
342.0495679356
 30
0.0
 11
556.9866829852
 21
338.7839354883
 31
0.0
  0
LINE
  5
10E
330
1F
100
AcDbEntity
  8
0
  6
HIDDEN
 62
     7
370
    18
100
AcDbLine
 10
558.9865204504
 20
335.3197400388
 30
0.0
 11
564.6433746999
 21
338.5853724861
 31
0.0
  0
LINE
  5
10F
330
1F
100
AcDbEntity
  8
0
  6
HIDDEN
 62
     7
370
    18
100
AcDbLine
 10
536.0413684036
 20
352.607693613
 30
0.0
 11
532.7610462184
 21
350.7140039238
 31
0.0
  0
ENDSEC
  0
SECTION
  2
OBJECTS
  0
DICTIONARY
  5
C
330
0
100
AcDbDictionary
281
     1
  3
ACAD_GROUP
350
D
  3
ACAD_LAYOUT
350
1A
  3
ACAD_MLINESTYLE
350
17
  3
ACAD_PLOTSETTINGS
350
19
  3
ACAD_PLOTSTYLENAME
350
E
  3
ACAD_SCALELIST
350
47
  3
DWGPROPS
350
110
  0
DICTIONARY
  5
D
102
{ACAD_REACTORS
330
C
102
}
330
C
100
AcDbDictionary
281
     1
  0
DICTIONARY
  5
1A
102
{ACAD_REACTORS
330
C
102
}
330
C
100
AcDbDictionary
281
     1
  3
Layout1
350
1E
  3
Layout2
350
26
  3
Model
350
22
  0
DICTIONARY
  5
17
102
{ACAD_REACTORS
330
C
102
}
330
C
100
AcDbDictionary
281
     1
  3
Standard
350
18
  0
DICTIONARY
  5
19
102
{ACAD_REACTORS
330
C
102
}
330
C
100
AcDbDictionary
281
     1
  0
ACDBDICTIONARYWDFLT
  5
E
102
{ACAD_REACTORS
330
C
102
}
330
C
100
AcDbDictionary
281
     1
  3
Normal
350
F
100
AcDbDictionaryWithDefault
340
F
  0
DICTIONARY
  5
47
102
{ACAD_REACTORS
330
C
102
}
330
C
100
AcDbDictionary
281
     1
  3
A0
350
48
  3
A1
350
49
  3
A2
350
4A
  3
A3
350
4B
  3
A4
350
4C
  3
A5
350
4D
  3
A6
350
4E
  3
A7
350
4F
  3
A8
350
50
  3
A9
350
51
  3
B0
350
52
  3
B1
350
53
  3
B2
350
54
  3
B3
350
55
  3
B4
350
56
  3
B5
350
57
  3
B6
350
58
  0
XRECORD
  5
110
102
{ACAD_REACTORS
330
C
102
}
330
C
100
AcDbXrecord
280
     1
  1
DWGPROPS COOKIE
  2

  3

  4

  6

  7

  8
imaizumi
  9

300
=
301
=
302
=
303
=
304
=
305
=
306
=
307
=
308
=
309
=
 40
0.0
 41
2461263.066562396
 42
2461263.066562882
  1

 90
        0
  0
LAYOUT
  5
1E
102
{ACAD_REACTORS
330
1A
102
}
330
1A
100
AcDbPlotSettings
  1

  2
none_device
  4

  6

 40
0.0
 41
0.0
 42
0.0
 43
0.0
 44
0.0
 45
0.0
 46
0.0
 47
0.0
 48
0.0
 49
0.0
140
0.0
141
0.0
142
1.0
143
1.0
 70
   688
 72
     1
 73
     0
 74
     5
  7

 75
    16
147
1.0
148
0.0
149
0.0
100
AcDbLayout
  1
Layout1
 70
     1
 71
     1
 10
0.0
 20
0.0
 11
420.0
 21
297.0
 12
0.0
 22
0.0
 32
0.0
 14
1.0000000000E+20
 24
1.0000000000E+20
 34
1.0000000000E+20
 15
-1.0000000000E+20
 25
-1.0000000000E+20
 35
-1.0000000000E+20
146
0.0
 13
0.0
 23
0.0
 33
0.0
 16
1.0
 26
0.0
 36
0.0
 17
0.0
 27
1.0
 37
0.0
 76
     0
330
1B
  0
LAYOUT
  5
26
102
{ACAD_REACTORS
330
1A
102
}
330
1A
100
AcDbPlotSettings
  1

  2
none_device
  4

  6

 40
0.0
 41
0.0
 42
0.0
 43
0.0
 44
0.0
 45
0.0
 46
0.0
 47
0.0
 48
0.0
 49
0.0
140
0.0
141
0.0
142
1.0
143
1.0
 70
   688
 72
     1
 73
     0
 74
     5
  7

 75
    16
147
1.0
148
0.0
149
0.0
100
AcDbLayout
  1
Layout2
 70
     1
 71
     2
 10
0.0
 20
0.0
 11
0.0
 21
0.0
 12
0.0
 22
0.0
 32
0.0
 14
0.0
 24
0.0
 34
0.0
 15
0.0
 25
0.0
 35
0.0
146
0.0
 13
0.0
 23
0.0
 33
0.0
 16
1.0
 26
0.0
 36
0.0
 17
0.0
 27
1.0
 37
0.0
 76
     0
330
23
  0
LAYOUT
  5
22
102
{ACAD_REACTORS
330
1A
102
}
330
1A
100
AcDbPlotSettings
  1

  2
none_device
  4
Letter_(8.50_x_11.00_Inches)
  6

 40
6.35
 41
6.35
 42
6.35000508
 43
6.35000508
 44
215.9
 45
279.4
 46
0.0
 47
0.0
 48
0.0
 49
0.0
140
0.0
141
0.0
142
1.0
143
1.0
 70
  1712
 72
     1
 73
     0
 74
     0
  7

 75
     0
147
1.0
148
0.0
149
0.0
100
AcDbLayout
  1
Model
 70
     1
 71
     0
 10
0.0
 20
0.0
 11
841.0
 21
594.0
 12
0.0
 22
0.0
 32
0.0
 14
0.0
 24
0.0
 34
0.0
 15
841.0
 25
594.0
 35
0.0
146
0.0
 13
0.0
 23
0.0
 33
0.0
 16
1.0
 26
0.0
 36
0.0
 17
0.0
 27
1.0
 37
0.0
 76
     0
330
1F
331
29
  0
MLINESTYLE
  5
18
102
{ACAD_REACTORS
330
17
102
}
330
17
100
AcDbMlineStyle
  2
Standard
 70
     0
  3

 62
   256
 51
90.0
 52
90.0
 71
     2
 49
0.5
 62
   256
  6
BYLAYER
 49
-0.5
 62
   256
  6
BYLAYER
  0
ACDBPLACEHOLDER
  5
F
102
{ACAD_REACTORS
330
E
102
}
330
E
  0
SCALE
  5
48
102
{ACAD_REACTORS
330
47
102
}
330
47
100
AcDbScale
 70
     0
300
1:1
140
1.0
141
1.0
290
     1
  0
SCALE
  5
49
102
{ACAD_REACTORS
330
47
102
}
330
47
100
AcDbScale
 70
     0
300
1:2
140
1.0
141
2.0
290
     0
  0
SCALE
  5
4A
102
{ACAD_REACTORS
330
47
102
}
330
47
100
AcDbScale
 70
     0
300
1:4
140
1.0
141
4.0
290
     0
  0
SCALE
  5
4B
102
{ACAD_REACTORS
330
47
102
}
330
47
100
AcDbScale
 70
     0
300
1:5
140
1.0
141
5.0
290
     0
  0
SCALE
  5
4C
102
{ACAD_REACTORS
330
47
102
}
330
47
100
AcDbScale
 70
     0
300
1:8
140
1.0
141
8.0
290
     0
  0
SCALE
  5
4D
102
{ACAD_REACTORS
330
47
102
}
330
47
100
AcDbScale
 70
     0
300
1:10
140
1.0
141
10.0
290
     0
  0
SCALE
  5
4E
102
{ACAD_REACTORS
330
47
102
}
330
47
100
AcDbScale
 70
     0
300
1:16
140
1.0
141
16.0
290
     0
  0
SCALE
  5
4F
102
{ACAD_REACTORS
330
47
102
}
330
47
100
AcDbScale
 70
     0
300
1:20
140
1.0
141
20.0
290
     0
  0
SCALE
  5
50
102
{ACAD_REACTORS
330
47
102
}
330
47
100
AcDbScale
 70
     0
300
1:30
140
1.0
141
30.0
290
     0
  0
SCALE
  5
51
102
{ACAD_REACTORS
330
47
102
}
330
47
100
AcDbScale
 70
     0
300
1:40
140
1.0
141
40.0
290
     0
  0
SCALE
  5
52
102
{ACAD_REACTORS
330
47
102
}
330
47
100
AcDbScale
 70
     0
300
1:50
140
1.0
141
50.0
290
     0
  0
SCALE
  5
53
102
{ACAD_REACTORS
330
47
102
}
330
47
100
AcDbScale
 70
     0
300
1:100
140
1.0
141
100.0
290
     0
  0
SCALE
  5
54
102
{ACAD_REACTORS
330
47
102
}
330
47
100
AcDbScale
 70
     0
300
2:1
140
2.0
141
1.0
290
     0
  0
SCALE
  5
55
102
{ACAD_REACTORS
330
47
102
}
330
47
100
AcDbScale
 70
     0
300
4:1
140
4.0
141
1.0
290
     0
  0
SCALE
  5
56
102
{ACAD_REACTORS
330
47
102
}
330
47
100
AcDbScale
 70
     0
300
8:1
140
8.0
141
1.0
290
     0
  0
SCALE
  5
57
102
{ACAD_REACTORS
330
47
102
}
330
47
100
AcDbScale
 70
     0
300
10:1
140
10.0
141
1.0
290
     0
  0
SCALE
  5
58
102
{ACAD_REACTORS
330
47
102
}
330
47
100
AcDbScale
 70
     0
300
100:1
140
100.0
141
1.0
290
     0
  0
ENDSEC
  0
EOF
