  0
SECTION
  2
HEADER
  9
$ACADVER
  1
AC1015
  9
$ACADMAINTVER
 70
     6
  9
$DWGCODEPAGE
  3
DOS932
  9
$INSBASE
 10
0.0
 20
0.0
 30
0.0
  9
$EXTMIN
 10
0.0
 20
0.0
 30
0.0
  9
$EXTMAX
 10
841.0
 20
594.0
 30
0.0
  9
$LIMMIN
 10
0.0
 20
0.0
  9
$LIMMAX
 10
841.0
 20
594.0
  9
$ORTHOMODE
 70
     0
  9
$REGENMODE
 70
     1
  9
$FILLMODE
 70
     1
  9
$QTEXTMODE
 70
     0
  9
$MIRRTEXT
 70
     1
  9
$LTSCALE
 40
1.0
  9
$ATTMODE
 70
     1
  9
$TEXTSIZE
 40
3.5
  9
$TRACEWID
 40
1.0
  9
$TEXTSTYLE
  7
Standard
  9
$CLAYER
  8
0
  9
$CELTYPE
  6
ByLayer
  9
$CECOLOR
 62
   256
  9
$CELTSCALE
 40
1.0
  9
$DISPSILH
 70
     0
  9
$DIMSCALE
 40
1.0
  9
$DIMASZ
 40
3.302
  9
$DIMEXO
 40
1.0
  9
$DIMDLI
 40
3.75
  9
$DIMRND
 40
0.0
  9
$DIMDLE
 40
0.0
  9
$DIMEXE
 40
1.0
  9
$DIMTP
 40
0.0
  9
$DIMTM
 40
0.0
  9
$DIMTXT
 40
3.5
  9
$DIMCEN
 40
2.5
  9
$DIMTSZ
 40
0.0
  9
$DIMTOL
 70
     0
  9
$DIMLIM
 70
     0
  9
$DIMTIH
 70
     1
  9
$DIMTOH
 70
     1
  9
$DIMSE1
 70
     0
  9
$DIMSE2
 70
     0
  9
$DIMTAD
 70
     1
  9
$DIMZIN
 70
     1
  9
$DIMBLK
  1

  9
$DIMASO
 70
     1
  9
$DIMSHO
 70
     1
  9
$DIMPOST
  1

  9
$DIMAPOST
  1

  9
$DIMALT
 70
     0
  9
$DIMALTD
 70
     3
  9
$DIMALTF
 40
0.0393700787
  9
$DIMLFAC
 40
0.5
  9
$DIMTOFL
 70
     1
  9
$DIMTVP
 40
0.0
  9
$DIMTIX
 70
     0
  9
$DIMSOXD
 70
     0
  9
$DIMSAH
 70
     0
  9
$DIMBLK1
  1

  9
$DIMBLK2
  1

  9
$DIMSTYLE
  2
ISO-25
  9
$DIMCLRD
 70
     0
  9
$DIMCLRE
 70
     0
  9
$DIMCLRT
 70
     0
  9
$DIMTFAC
 40
1.0
  9
$DIMGAP
 40
1.524
  9
$DIMJUST
 70
     0
  9
$DIMSD1
 70
     0
  9
$DIMSD2
 70
     0
  9
$DIMTOLJ
 70
     0
  9
$DIMTZIN
 70
     1
  9
$DIMALTZ
 70
     0
  9
$DIMALTTZ
 70
     0
  9
$DIMUPT
 70
     0
  9
$DIMDEC
 70
     2
  9
$DIMTDEC
 70
     2
  9
$DIMALTU
 70
     2
  9
$DIMALTTD
 70
     3
  9
$DIMTXSTY
  7
Standard
  9
$DIMAUNIT
 70
     0
  9
$DIMADEC
 70
     2
  9
$DIMALTRND
 40
0.0
  9
$DIMAZIN
 70
     0
  9
$DIMDSEP
 70
    44
  9
$DIMATFIT
 70
     3
  9
$DIMFRAC
 70
     0
  9
$DIMLDRBLK
  1

  9
$DIMLUNIT
 70
     2
  9
$DIMLWD
 70
    -2
  9
$DIMLWE
 70
    -2
  9
$DIMTMOVE
 70
     0
  9
$LUNITS
 70
     2
  9
$LUPREC
 70
     2
  9
$SKETCHINC
 40
1.0
  9
$FILLETRAD
 40
0.0
  9
$AUNITS
 70
     0
  9
$AUPREC
 70
     2
  9
$MENU
  1
.
  9
$ELEVATION
 40
0.0
  9
$PELEVATION
 40
0.0
  9
$THICKNESS
 40
0.0
  9
$LIMCHECK
 70
     0
  9
$CHAMFERA
 40
0.0
  9
$CHAMFERB
 40
0.0
  9
$CHAMFERC
 40
0.0
  9
$CHAMFERD
 40
0.0
  9
$SKPOLY
 70
     0
  9
$TDCREATE
 40
2461263.442348889
  9
$TDUCREATE
 40
2461263.067348889
  9
$TDUPDATE
 40
2461263.44234926
  9
$TDUUPDATE
 40
2461263.06734926
  9
$TDINDWG
 40
0.0000000116
  9
$TDUSRTIMER
 40
0.0000000116
  9
$USRTIMER
 70
     1
  9
$ANGBASE
 50
0.0
  9
$ANGDIR
 70
     0
  9
$PDMODE
 70
     0
  9
$PDSIZE
 40
-1.0
  9
$PLINEWID
 40
0.0
  9
$SPLFRAME
 70
     0
  9
$SPLINETYPE
 70
     6
  9
$SPLINESEGS
 70
     8
  9
$HANDSEED
  5
BC
  9
$SURFTAB1
 70
     6
  9
$SURFTAB2
 70
     6
  9
$SURFTYPE
 70
     6
  9
$SURFU
 70
     6
  9
$SURFV
 70
     6
  9
$UCSBASE
  2

  9
$UCSNAME
  2

  9
$UCSORG
 10
0.0
 20
0.0
 30
0.0
  9
$UCSXDIR
 10
1.0
 20
0.0
 30
0.0
  9
$UCSYDIR
 10
0.0
 20
1.0
 30
0.0
  9
$UCSORTHOREF
  2

  9
$UCSORTHOVIEW
 70
     0
  9
$UCSORGTOP
 10
0.0
 20
0.0
 30
0.0
  9
$UCSORGBOTTOM
 10
0.0
 20
0.0
 30
0.0
  9
$UCSORGLEFT
 10
0.0
 20
0.0
 30
0.0
  9
$UCSORGRIGHT
 10
0.0
 20
0.0
 30
0.0
  9
$UCSORGFRONT
 10
0.0
 20
0.0
 30
0.0
  9
$UCSORGBACK
 10
0.0
 20
0.0
 30
0.0
  9
$PUCSBASE
  2

  9
$PUCSNAME
  2

  9
$PUCSORG
 10
0.0
 20
0.0
 30
0.0
  9
$PUCSXDIR
 10
1.0
 20
0.0
 30
0.0
  9
$PUCSYDIR
 10
0.0
 20
1.0
 30
0.0
  9
$PUCSORTHOREF
  2

  9
$PUCSORTHOVIEW
 70
     0
  9
$PUCSORGTOP
 10
0.0
 20
0.0
 30
0.0
  9
$PUCSORGBOTTOM
 10
0.0
 20
0.0
 30
0.0
  9
$PUCSORGLEFT
 10
0.0
 20
0.0
 30
0.0
  9
$PUCSORGRIGHT
 10
0.0
 20
0.0
 30
0.0
  9
$PUCSORGFRONT
 10
0.0
 20
0.0
 30
0.0
  9
$PUCSORGBACK
 10
0.0
 20
0.0
 30
0.0
  9
$USERI1
 70
     0
  9
$USERI2
 70
     0
  9
$USERI3
 70
     0
  9
$USERI4
 70
     0
  9
$USERI5
 70
     0
  9
$USERR1
 40
0.0
  9
$USERR2
 40
0.0
  9
$USERR3
 40
0.0
  9
$USERR4
 40
0.0
  9
$USERR5
 40
0.0
  9
$WORLDVIEW
 70
     1
  9
$SHADEDGE
 70
     3
  9
$SHADEDIF
 70
    70
  9
$TILEMODE
 70
     1
  9
$MAXACTVP
 70
    64
  9
$PINSBASE
 10
0.0
 20
0.0
 30
0.0
  9
$PLIMCHECK
 70
     0
  9
$PEXTMIN
 10
1.0000000000E+20
 20
1.0000000000E+20
 30
1.0000000000E+20
  9
$PEXTMAX
 10
-1.0000000000E+20
 20
-1.0000000000E+20
 30
-1.0000000000E+20
  9
$PLIMMIN
 10
0.0
 20
0.0
  9
$PLIMMAX
 10
420.0
 20
297.0
  9
$UNITMODE
 70
     0
  9
$VISRETAIN
 70
     1
  9
$PLINEGEN
 70
     0
  9
$PSLTSCALE
 70
     1
  9
$TREEDEPTH
 70
  3020
  9
$CMLSTYLE
  2
Standard
  9
$CMLJUST
 70
     0
  9
$CMLSCALE
 40
20.0
  9
$PROXYGRAPHICS
 70
     1
  9
$MEASUREMENT
 70
     1
  9
$CELWEIGHT
370
    -1
  9
$ENDCAPS
280
     0
  9
$JOINSTYLE
280
     0
  9
$LWDISPLAY
290
     1
  9
$INSUNITS
 70
     4
  9
$HYPERLINKBASE
  1

  9
$STYLESHEET
  1

  9
$XEDIT
290
     1
  9
$CEPSNTYPE
380
     0
  9
$PSTYLEMODE
290
     1
  9
$FINGERPRINTGUID
  2
{411574e7-9edd-4f33-a7ee-d543d1e9c193}
  9
$VERSIONGUID
  2
{FAEB1C32-E019-11D5-929B-00C0DF256EC4}
  9
$EXTNAMES
290
     1
  9
$PSVPSCALE
 40
0.0
  9
$OLESTARTUP
290
     0
  0
ENDSEC
  0
SECTION
  2
CLASSES
  0
CLASS
  1
ACDBDICTIONARYWDFLT
  2
AcDbDictionaryWithDefault
  3
ObjectDBX Classes
 90
        0
280
     0
281
     0
  0
CLASS
  1
VISUALSTYLE
  2
AcDbVisualStyle
  3
ObjectDBX Classes
 90
     4095
280
     0
281
     0
  0
CLASS
  1
MATERIAL
  2
AcDbMaterial
  3
ObjectDBX Classes
 90
     1153
280
     0
281
     0
  0
CLASS
  1
SCALE
  2
AcDbScale
  3
ObjectDBX Classes
 90
     1153
280
     0
281
     0
  0
CLASS
  1
TABLESTYLE
  2
AcDbTableStyle
  3
ObjectDBX Classes
 90
     4095
280
     0
281
     0
  0
CLASS
  1
MLEADERSTYLE
  2
AcDbMLeaderStyle
  3
ACDB_MLEADERSTYLE_CLASS
 90
     4095
280
     0
281
     0
  0
CLASS
  1
SUN
  2
AcDbSun
  3
SCENEOE
 90
     1153
280
     0
281
     0
  0
CLASS
  1
ACDBPLACEHOLDER
  2
AcDbPlaceHolder
  3
ObjectDBX Classes
 90
        0
280
     0
281
     0
  0
CLASS
  1
LAYOUT
  2
AcDbLayout
  3
ObjectDBX Classes
 90
        0
280
     0
281
     0
  0
ENDSEC
  0
SECTION
  2
TABLES
  0
TABLE
  2
VPORT
  5
8
330
0
100
AcDbSymbolTable
 70
     1
  0
VPORT
  5
29
330
8
100
AcDbSymbolTableRecord
100
AcDbViewportTableRecord
  2
*Active
 70
     0
 10
0.0
 20
0.0
 11
1.0
 21
1.0
 12
420.5
 22
297.0
 13
0.0
 23
0.0
 14
10.0
 24
10.0
 15
10.0
 25
10.0
 16
0.0
 26
0.0
 36
1.0
 17
0.0
 27
0.0
 37
0.0
 40
594.0
 41
1.4158249158
 42
50.0
 43
0.0
 44
0.0
 50
0.0
 51
0.0
 71
     0
 72
  2000
 73
     1
 74
     3
 75
     0
 76
     0
 77
     0
 78
     0
281
     0
 65
     1
110
0.0
120
0.0
130
0.0
111
1.0
121
0.0
131
0.0
112
0.0
122
1.0
132
0.0
 79
     0
146
0.0
  0
ENDTAB
  0
TABLE
  2
LTYPE
  5
5
330
0
100
AcDbSymbolTable
 70
     6
  0
LTYPE
  5
14
330
5
100
AcDbSymbolTableRecord
100
AcDbLinetypeTableRecord
  2
ByBlock
 70
     0
  3

 72
    65
 73
     0
 40
0.0
  0
LTYPE
  5
15
330
5
100
AcDbSymbolTableRecord
100
AcDbLinetypeTableRecord
  2
ByLayer
 70
     0
  3

 72
    65
 73
     0
 40
0.0
  0
LTYPE
  5
16
330
5
100
AcDbSymbolTableRecord
100
AcDbLinetypeTableRecord
  2
Continuous
 70
     0
  3
Solid line
 72
    65
 73
     0
 40
0.0
  0
LTYPE
  5
5E
330
5
100
AcDbSymbolTableRecord
100
AcDbLinetypeTableRecord
  2
HIDDEN
 70
     0
  3
Hidden __ __ __ __ __ __ __ __ __ __ __ __ __ __
 72
    65
 73
     2
 40
1.905
 49
1.27
 74
     0
 49
-0.635
 74
     0
  0
LTYPE
  5
5F
330
5
100
AcDbSymbolTableRecord
100
AcDbLinetypeTableRecord
  2
PHANTOM
 70
     0
  3
Phantom ______  __  __  ______  __  __  ______
 72
    65
 73
     6
 40
12.7
 49
6.35
 74
     0
 49
-1.27
 74
     0
 49
1.27
 74
     0
 49
-1.27
 74
     0
 49
1.27
 74
     0
 49
-1.27
 74
     0
  0
LTYPE
  5
60
330
5
100
AcDbSymbolTableRecord
100
AcDbLinetypeTableRecord
  2
CENTER
 70
     0
  3
Center ____ _ ____ _ ____ _ ____ _ ____ _ ____
 72
    65
 73
     4
 40
10.16
 49
6.35
 74
     0
 49
-1.27
 74
     0
 49
1.27
 74
     0
 49
-1.27
 74
     0
  0
LTYPE
  5
61
330
5
100
AcDbSymbolTableRecord
100
AcDbLinetypeTableRecord
  2
CENTERX2
 70
     0
  3
Center (2x) ________  __  ________  __  _____
 72
    65
 73
     4
 40
20.32
 49
12.7
 74
     0
 49
-2.54
 74
     0
 49
2.54
 74
     0
 49
-2.54
 74
     0
  0
LTYPE
  5
62
330
5
100
AcDbSymbolTableRecord
100
AcDbLinetypeTableRecord
  2
DOT2
 70
     0
  3
Dot (.5x) ........................................
 72
    65
 73
     2
 40
0.635
 49
0.0
 74
     0
 49
-0.635
 74
     0
  0
ENDTAB
  0
TABLE
  2
LAYER
  5
2
330
0
100
AcDbSymbolTable
 70
     1
  0
LAYER
  5
10
330
2
100
AcDbSymbolTableRecord
100
AcDbLayerTableRecord
  2
0
 70
     0
 62
     7
  6
Continuous
370
    -3
390
F
  0
ENDTAB
  0
TABLE
  2
STYLE
  5
3
330
0
100
AcDbSymbolTable
 70
     1
  0
STYLE
  5
11
330
3
100
AcDbSymbolTableRecord
100
AcDbTextStyleTableRecord
  2
Standard
 70
     0
 40
0.0
 41
1.0
 50
0.0
 71
     0
 42
3.5
  3
txt
  4
bigfont
  0
ENDTAB
  0
TABLE
  2
VIEW
  5
6
330
0
100
AcDbSymbolTable
 70
     0
  0
ENDTAB
  0
TABLE
  2
UCS
  5
7
330
0
100
AcDbSymbolTable
 70
     0
  0
ENDTAB
  0
TABLE
  2
APPID
  5
9
330
0
100
AcDbSymbolTable
 70
     1
  0
APPID
  5
12
330
9
100
AcDbSymbolTableRecord
100
AcDbRegAppTableRecord
  2
ACAD
 70
     0
  0
ENDTAB
  0
TABLE
  2
DIMSTYLE
  5
A
330
0
100
AcDbSymbolTable
 70
     1
100
AcDbDimStyleTable
  0
DIMSTYLE
105
27
330
A
100
AcDbSymbolTableRecord
100
AcDbDimStyleTableRecord
  2
ISO-25
 70
     0
 41
2.5
 42
0.625
 43
3.75
 44
1.25
 73
     0
 74
     0
 77
     1
 78
     8
140
2.5
141
2.5
143
0.0393700787
147
0.625
171
     3
172
     1
178
     0
271
     2
272
     2
274
     3
278
    44
283
     0
284
     8
340
11
  0
ENDTAB
  0
TABLE
  2
BLOCK_RECORD
  5
1
330
0
100
AcDbSymbolTable
 70
     1
  0
BLOCK_RECORD
  5
1F
330
1
100
AcDbSymbolTableRecord
100
AcDbBlockTableRecord
  2
*Model_Space
340
22
  0
BLOCK_RECORD
  5
1B
330
1
100
AcDbSymbolTableRecord
100
AcDbBlockTableRecord
  2
*Paper_Space
340
1E
  0
BLOCK_RECORD
  5
23
330
1
100
AcDbSymbolTableRecord
100
AcDbBlockTableRecord
  2
*Paper_Space0
340
26
  0
ENDTAB
  0
ENDSEC
  0
SECTION
  2
BLOCKS
  0
BLOCK
  5
20
330
1F
100
AcDbEntity
  8
0
100
AcDbBlockBegin
  2
*Model_Space
 70
     0
 10
0.0
 20
0.0
 30
0.0
  3
*Model_Space
  1

  0
ENDBLK
  5
21
330
1F
100
AcDbEntity
  8
0
100
AcDbBlockEnd
  0
BLOCK
  5
1C
330
1B
100
AcDbEntity
 67
     1
  8
0
100
AcDbBlockBegin
  2
*Paper_Space
 70
     0
 10
0.0
 20
0.0
 30
0.0
  3
*Paper_Space
  1

  0
ENDBLK
  5
1D
330
1B
100
AcDbEntity
 67
     1
  8
0
100
AcDbBlockEnd
  0
BLOCK
  5
24
330
23
100
AcDbEntity
  8
0
100
AcDbBlockBegin
  2
*Paper_Space0
 70
     0
 10
0.0
 20
0.0
 30
0.0
  3
*Paper_Space0
  1

  0
ENDBLK
  5
25
330
23
100
AcDbEntity
  8
0
100
AcDbBlockEnd
  0
ENDSEC
  0
SECTION
  2
ENTITIES
  0
LINE
  5
63
330
1F
100
AcDbEntity
  8
0
  6
Continuous
 62
     7
370
    25
100
AcDbLine
 10
381.8045058323
 20
204.6254966249
 30
0.0
 11
381.8045058323
 21
236.6254966249
 31
0.0
  0
LINE
  5
64
330
1F
100
AcDbEntity
  8
0
  6
Continuous
 62
     7
370
    25
100
AcDbLine
 10
366.8045058323
 20
204.6254966249
 30
0.0
 11
381.8045058323
 21
204.6254966249
 31
0.0
  0
LINE
  5
65
330
1F
100
AcDbEntity
  8
0
  6
Continuous
 62
     7
370
    25
100
AcDbLine
 10
366.8045058323
 20
223.6254966249
 30
0.0
 11
366.8045058323
 21
204.6254966249
 31
0.0
  0
LINE
  5
66
330
1F
100
AcDbEntity
  8
0
  6
Continuous
 62
     7
370
    25
100
AcDbLine
 10
363.8045058323
 20
223.6254966249
 30
0.0
 11
366.8045058323
 21
223.6254966249
 31
0.0
  0
ARC
  5
67
330
1F
100
AcDbEntity
  8
0
  6
Continuous
 62
     7
370
    25
100
AcDbCircle
 10
360.8045058323
 20
223.6254966249
 30
0.0
 40
3.0
100
AcDbArc
 50
0.0
 51
90.0
  0
LINE
  5
68
330
1F
100
AcDbEntity
  8
0
  6
Continuous
 62
     7
370
    25
100
AcDbLine
 10
302.8045058323
 20
226.6254966249
 30
0.0
 11
360.8045058323
 21
226.6254966249
 31
0.0
  0
ARC
  5
69
330
1F
100
AcDbEntity
  8
0
  6
Continuous
 62
     7
370
    25
100
AcDbCircle
 10
314.8045058323
 20
241.6254966249
 30
0.0
 40
5.5
100
AcDbArc
 50
270.0
 51
90.0
  0
ARC
  5
6A
330
1F
100
AcDbEntity
  8
0
  6
Continuous
 62
     7
370
    25
100
AcDbCircle
 10
314.8045058323
 20
241.6254966249
 30
0.0
 40
5.5
100
AcDbArc
 50
90.0
 51
270.0
  0
ARC
  5
6B
330
1F
100
AcDbEntity
  8
0
  6
Continuous
 62
     7
370
    25
100
AcDbCircle
 10
346.8045058323
 20
241.6254966249
 30
0.0
 40
5.5
100
AcDbArc
 50
270.0
 51
90.0
  0
ARC
  5
6C
330
1F
100
AcDbEntity
  8
0
  6
Continuous
 62
     7
370
    25
100
AcDbCircle
 10
346.8045058323
 20
241.6254966249
 30
0.0
 40
5.5
100
AcDbArc
 50
90.0
 51
270.0
  0
LINE
  5
6D
330
1F
100
AcDbEntity
  8
0
  6
Continuous
 62
     7
370
    25
100
AcDbLine
 10
302.8045058323
 20
256.6254966249
 30
0.0
 11
302.8045058323
 21
226.6254966249
 31
0.0
  0
LINE
  5
6E
330
1F
100
AcDbEntity
  8
0
  6
Continuous
 62
     7
370
    25
100
AcDbLine
 10
381.8045058323
 20
236.6254966249
 30
0.0
 11
361.8045058323
 21
256.6254966249
 31
0.0
  0
LINE
  5
6F
330
1F
100
AcDbEntity
  8
0
  6
Continuous
 62
     7
370
    25
100
AcDbLine
 10
361.8045058323
 20
256.6254966249
 30
0.0
 11
302.8045058323
 21
256.6254966249
 31
0.0
  0
LINE
  5
70
330
1F
100
AcDbEntity
  8
0
  6
HIDDEN
 62
     7
370
    18
100
AcDbLine
 10
381.8045058323
 20
211.6254966249
 30
0.0
 11
366.8045058323
 21
211.6254966249
 31
0.0
  0
LINE
  5
71
330
1F
100
AcDbEntity
  8
0
  6
HIDDEN
 62
     7
370
    18
100
AcDbLine
 10
381.8045058323
 20
216.6254966249
 30
0.0
 11
366.8045058323
 21
216.6254966249
 31
0.0
  0
LINE
  5
72
330
1F
100
AcDbEntity
  8
0
  6
Continuous
 62
     7
370
    25
100
AcDbLine
 10
381.8045058323
 20
345.38
 30
0.0
 11
381.8045058323
 21
364.38
 31
0.0
  0
LINE
  5
73
330
1F
100
AcDbEntity
  8
0
  6
Continuous
 62
     7
370
    25
100
AcDbLine
 10
381.8045058323
 20
345.38
 30
0.0
 11
361.8045058323
 21
345.38
 31
0.0
  0
LINE
  5
74
330
1F
100
AcDbEntity
  8
0
  6
Continuous
 62
     7
370
    25
100
AcDbLine
 10
361.8045058323
 20
345.38
 30
0.0
 11
361.8045058323
 21
364.38
 31
0.0
  0
LINE
  5
75
330
1F
100
AcDbEntity
  8
0
  6
Continuous
 62
     7
370
    25
100
AcDbLine
 10
381.8045058323
 20
364.38
 30
0.0
 11
361.8045058323
 21
364.38
 31
0.0
  0
LINE
  5
76
330
1F
100
AcDbEntity
  8
0
  6
Continuous
 62
     7
370
    25
100
AcDbLine
 10
302.8045058323
 20
345.38
 30
0.0
 11
302.8045058323
 21
364.38
 31
0.0
  0
LINE
  5
77
330
1F
100
AcDbEntity
  8
0
  6
Continuous
 62
     7
370
    25
100
AcDbLine
 10
361.8045058323
 20
345.38
 30
0.0
 11
302.8045058323
 21
345.38
 31
0.0
  0
LINE
  5
78
330
1F
100
AcDbEntity
  8
0
  6
Continuous
 62
     7
370
    25
100
AcDbLine
 10
361.8045058323
 20
364.38
 30
0.0
 11
302.8045058323
 21
364.38
 31
0.0
  0
LINE
  5
79
330
1F
100
AcDbEntity
  8
0
  6
HIDDEN
 62
     7
370
    18
100
AcDbLine
 10
363.8045058323
 20
345.38
 30
0.0
 11
363.8045058323
 21
364.38
 31
0.0
  0
LINE
  5
7A
330
1F
100
AcDbEntity
  8
0
  6
HIDDEN
 62
     7
370
    18
100
AcDbLine
 10
366.8045058323
 20
345.38
 30
0.0
 11
366.8045058323
 21
364.38
 31
0.0
  0
LINE
  5
7B
330
1F
100
AcDbEntity
  8
0
  6
HIDDEN
 62
     7
370
    18
100
AcDbLine
 10
352.3045058323
 20
345.38
 30
0.0
 11
352.3045058323
 21
364.38
 31
0.0
  0
LINE
  5
7C
330
1F
100
AcDbEntity
  8
0
  6
HIDDEN
 62
     7
370
    18
100
AcDbLine
 10
341.3045058323
 20
364.38
 30
0.0
 11
341.3045058323
 21
345.38
 31
0.0
  0
LINE
  5
7D
330
1F
100
AcDbEntity
  8
0
  6
HIDDEN
 62
     7
370
    18
100
AcDbLine
 10
320.3045058323
 20
345.38
 30
0.0
 11
320.3045058323
 21
364.38
 31
0.0
  0
LINE
  5
7E
330
1F
100
AcDbEntity
  8
0
  6
HIDDEN
 62
     7
370
    18
100
AcDbLine
 10
309.3045058323
 20
364.38
 30
0.0
 11
309.3045058323
 21
345.38
 31
0.0
  0
LINE
  5
7F
330
1F
100
AcDbEntity
  8
0
  6
HIDDEN
 62
     7
370
    18
100
AcDbLine
 10
366.8045058323
 20
352.38
 30
0.0
 11
381.8045058323
 21
352.38
 31
0.0
  0
LINE
  5
80
330
1F
100
AcDbEntity
  8
0
  6
HIDDEN
 62
     7
370
    18
100
AcDbLine
 10
381.8045058323
 20
357.38
 30
0.0
 11
366.8045058323
 21
357.38
 31
0.0
  0
LINE
  5
81
330
1F
100
AcDbEntity
  8
0
  6
Continuous
 62
     7
370
    25
100
AcDbLine
 10
482.38
 20
236.6254966249
 30
0.0
 11
501.38
 21
236.6254966249
 31
0.0
  0
LINE
  5
82
330
1F
100
AcDbEntity
  8
0
  6
Continuous
 62
     7
370
    25
100
AcDbLine
 10
482.38
 20
236.6254966249
 30
0.0
 11
482.38
 21
256.6254966249
 31
0.0
  0
LINE
  5
83
330
1F
100
AcDbEntity
  8
0
  6
Continuous
 62
     7
370
    25
100
AcDbLine
 10
482.38
 20
256.6254966249
 30
0.0
 11
501.38
 21
256.6254966249
 31
0.0
  0
LINE
  5
84
330
1F
100
AcDbEntity
  8
0
  6
Continuous
 62
     7
370
    25
100
AcDbLine
 10
501.38
 20
236.6254966249
 30
0.0
 11
501.38
 21
256.6254966249
 31
0.0
  0
LINE
  5
85
330
1F
100
AcDbEntity
  8
0
  6
Continuous
 62
     7
370
    25
100
AcDbLine
 10
482.38
 20
204.6254966249
 30
0.0
 11
501.38
 21
204.6254966249
 31
0.0
  0
ARC
  5
86
330
1F
100
AcDbEntity
  8
0
  6
Continuous
 62
     7
370
    25
100
AcDbCircle
 10
491.88
 20
214.1254966249
 30
0.0
 40
2.5
100
AcDbArc
 50
90.0
 51
270.0
  0
ARC
  5
87
330
1F
100
AcDbEntity
  8
0
  6
Continuous
 62
     7
370
    25
100
AcDbCircle
 10
491.88
 20
214.1254966249
 30
0.0
 40
2.5
100
AcDbArc
 50
270.0
 51
90.0
  0
LINE
  5
88
330
1F
100
AcDbEntity
  8
0
  6
Continuous
 62
     7
370
    25
100
AcDbLine
 10
482.38
 20
204.6254966249
 30
0.0
 11
482.38
 21
236.6254966249
 31
0.0
  0
LINE
  5
89
330
1F
100
AcDbEntity
  8
0
  6
Continuous
 62
     7
370
    25
100
AcDbLine
 10
501.38
 20
204.6254966249
 30
0.0
 11
501.38
 21
236.6254966249
 31
0.0
  0
LINE
  5
8A
330
1F
100
AcDbEntity
  8
0
  6
HIDDEN
 62
     7
370
    18
100
AcDbLine
 10
482.38
 20
223.6254966249
 30
0.0
 11
501.38
 21
223.6254966249
 31
0.0
  0
LINE
  5
8B
330
1F
100
AcDbEntity
  8
0
  6
HIDDEN
 62
     7
370
    18
100
AcDbLine
 10
501.38
 20
226.6254966249
 30
0.0
 11
482.38
 21
226.6254966249
 31
0.0
  0
LINE
  5
8C
330
1F
100
AcDbEntity
  8
0
  6
HIDDEN
 62
     7
370
    18
100
AcDbLine
 10
482.38
 20
247.1254966249
 30
0.0
 11
501.38
 21
247.1254966249
 31
0.0
  0
LINE
  5
8D
330
1F
100
AcDbEntity
  8
0
  6
HIDDEN
 62
     7
370
    18
100
AcDbLine
 10
482.38
 20
236.1254966249
 30
0.0
 11
501.38
 21
236.1254966249
 31
0.0
  0
LINE
  5
8E
330
1F
100
AcDbEntity
  8
0
  6
Continuous
 62
     7
370
    25
100
AcDbLine
 10
501.425941546
 20
335.8997720507
 30
0.0
 11
501.425941546
 21
320.3854966249
 31
0.0
  0
LINE
  5
8F
330
1F
100
AcDbEntity
  8
0
  6
Continuous
 62
     7
370
    25
100
AcDbLine
 10
501.425941546
 20
335.8997720507
 30
0.0
 11
524.053358544
 21
348.9623018399
 31
0.0
  0
LINE
  5
90
330
1F
100
AcDbEntity
  8
0
  6
Continuous
 62
     7
370
    25
100
AcDbLine
 10
524.053358544
 20
348.9623018399
 30
0.0
 11
524.053358544
 21
333.4480264141
 31
0.0
  0
LINE
  5
91
330
1F
100
AcDbEntity
  8
0
  6
Continuous
 62
     7
370
    25
100
AcDbLine
 10
501.425941546
 20
320.3854966249
 30
0.0
 11
524.053358544
 21
333.4480264141
 31
0.0
  0
LWPOLYLINE
  5
92
330
1F
100
AcDbEntity
  8
0
  6
Continuous
 62
     7
370
    25
100
AcDbPolyline
 90
       20
 70
   128
 43
0.0
 10
509.9112229203
 20
333.0410830087
 10
509.8871128831
 20
333.3631600815
 10
509.8154404307
 20
333.648614875
 10
509.6981606007
 20
333.8896609266
 10
509.538472481
 20
334.0797231282
 10
509.3407319475
 20
334.2136170787
 10
509.1103328462
 20
334.2876904999
 10
508.8535598642
 20
334.2999228621
 10
508.5774170989
 20
334.2499804982
 10
508.2894370052
 20
334.1392257059
 10
507.9974749294
 20
333.9706795872
 10
507.7094948357
 20
333.7489396406
 10
507.4333520704
 20
333.4800543541
 10
507.1765790884
 20
333.1713582173
 10
506.9461799871
 20
332.831271656
 10
506.7484394535
 20
332.4690713451
 10
506.5887513339
 20
332.094637165
 10
506.4714715039
 20
331.7181827039
 10
506.3997990515
 20
331.3499766583
 10
506.3756890143
 20
331.0000627292
  0
LWPOLYLINE
  5
93
330
1F
100
AcDbEntity
  8
0
  6
Continuous
 62
     7
370
    25
100
AcDbPolyline
 90
       20
 70
   128
 43
0.0
 10
506.3756890143
 20
331.0000627292
 10
506.3997990515
 20
330.6779856564
 10
506.4714715039
 20
330.3925308629
 10
506.5887513339
 20
330.1514848114
 10
506.7484394535
 20
329.9614226097
 10
506.9461799871
 20
329.8275286593
 10
507.1765790884
 20
329.7534552381
 10
507.4333520704
 20
329.7412228759
 10
507.7094948357
 20
329.7911652397
 10
507.9974749294
 20
329.901920032
 10
508.2894370052
 20
330.0704661508
 10
508.5774170989
 20
330.2922060973
 10
508.8535598642
 20
330.5610913838
 10
509.1103328462
 20
330.8697875207
 10
509.3407319475
 20
331.2098740819
 10
509.538472481
 20
331.5720743928
 10
509.6981606007
 20
331.9465085729
 10
509.8154404307
 20
332.322963034
 10
509.8871128831
 20
332.6911690796
 10
509.9112229203
 20
333.0410830087
  0
LINE
  5
94
330
1F
100
AcDbEntity
  8
0
  6
Continuous
 62
     7
370
    25
100
AcDbLine
 10
524.053358544
 20
365.2904640763
 30
0.0
 11
482.334058454
 21
389.3745033751
 31
0.0
  0
LINE
  5
95
330
1F
100
AcDbEntity
  8
0
  6
Continuous
 62
     7
370
    25
100
AcDbLine
 10
524.053358544
 20
348.9623018399
 30
0.0
 11
524.053358544
 21
365.2904640763
 31
0.0
  0
LINE
  5
96
330
1F
100
AcDbEntity
  8
0
  6
Continuous
 62
     7
370
    25
100
AcDbLine
 10
490.8193398282
 20
342.0228328894
 30
0.0
 11
501.425941546
 21
335.8997720507
 31
0.0
  0
LINE
  5
97
330
1F
100
AcDbEntity
  8
0
  6
Continuous
 62
     7
370
    25
100
AcDbLine
 10
504.2543686708
 20
349.7787099517
 30
0.0
 11
490.8193398282
 21
342.0228328894
 31
0.0
  0
LINE
  5
98
330
1F
100
AcDbEntity
  8
0
  6
Continuous
 62
     7
370
    25
100
AcDbLine
 10
502.1330483272
 20
351.0033221194
 30
0.0
 11
504.2543686708
 21
349.7787099517
 31
0.0
  0
LWPOLYLINE
  5
99
330
1F
100
AcDbEntity
  8
0
  6
Continuous
 62
     7
370
    25
100
AcDbPolyline
 90
       11
 70
   128
 43
0.0
 10
502.1330483272
 20
353.4525464549
 10
502.4387789668
 20
353.2458978977
 10
502.6847475562
 20
353.0141836979
 10
502.8648975325
 20
352.7631094282
 10
502.9747930054
 20
352.4988573704
 10
503.0117279836
 20
352.2279342872
 10
502.9747930054
 20
351.9570112039
 10
502.8648975325
 20
351.6927591461
 10
502.6847475562
 20
351.4416848765
 10
502.4387789668
 20
351.2099706767
 10
502.1330483272
 20
351.0033221194
  0
LINE
  5
9A
330
1F
100
AcDbEntity
  8
0
  6
Continuous
 62
     7
370
    25
100
AcDbLine
 10
461.1208550184
 20
377.1283816978
 30
0.0
 11
502.1330483272
 21
353.4525464549
 31
0.0
  0
LINE
  5
9B
330
1F
100
AcDbEntity
  8
0
  6
Continuous
 62
     7
370
    25
100
AcDbLine
 10
482.334058454
 20
389.3745033751
 30
0.0
 11
461.1208550184
 21
377.1283816978
 31
0.0
  0
LWPOLYLINE
  5
9C
330
1F
100
AcDbEntity
  8
0
  6
Continuous
 62
     7
370
    25
100
AcDbPolyline
 90
       29
 70
   128
 43
0.0
 10
476.3236508139
 20
376.107871558
 10
476.7835442002
 20
375.8706144729
 10
477.2865616896
 20
375.6645747489
 10
477.8263775453
 20
375.4923434552
 10
478.3962032697
 20
375.3560865002
 10
478.9888729737
 20
375.2575173942
 10
479.5969334919
 20
375.1978757008
 10
480.2127381104
 20
375.177911449
 10
480.828542729
 20
375.1978757008
 10
481.4366032472
 20
375.2575173942
 10
482.0292729512
 20
375.3560865002
 10
482.5990986756
 20
375.4923434552
 10
483.1389145313
 20
375.6645747489
 10
483.6419320206
 20
375.8706144729
 10
484.1018254069
 20
376.107871558
 10
484.512811264
 20
376.3733623588
 10
484.8697212062
 20
376.6637481744
 10
485.1680668839
 20
376.9753772346
 10
485.4040964271
 20
377.3043306234
 10
485.5748416274
 20
377.6464715608
 10
485.6781552648
 20
377.9974974262
 10
485.7127381104
 20
378.3529938655
 10
485.6781552648
 20
378.7084903048
 10
485.5748416274
 20
379.0595161702
 10
485.4040964271
 20
379.4016571076
 10
485.1680668839
 20
379.7306104964
 10
484.8697212062
 20
380.0422395566
 10
484.512811264
 20
380.3326253722
 10
484.1018254069
 20
380.598116173
  0
LWPOLYLINE
  5
9D
330
1F
100
AcDbEntity
  8
0
  6
Continuous
 62
     7
370
    25
100
AcDbPolyline
 90
       29
 70
   128
 43
0.0
 10
484.1018254069
 20
380.598116173
 10
483.6419320206
 20
380.8353732581
 10
483.1389145313
 20
381.0414129821
 10
482.5990986756
 20
381.2136442758
 10
482.0292729512
 20
381.3499012308
 10
481.4366032472
 20
381.4484703368
 10
480.828542729
 20
381.5081120302
 10
480.2127381104
 20
381.528076282
 10
479.5969334919
 20
381.5081120302
 10
478.9888729737
 20
381.4484703368
 10
478.3962032697
 20
381.3499012308
 10
477.8263775453
 20
381.2136442758
 10
477.2865616896
 20
381.0414129821
 10
476.7835442002
 20
380.8353732581
 10
476.3236508139
 20
380.598116173
 10
475.9126649568
 20
380.3326253722
 10
475.5557550147
 20
380.0422395566
 10
475.257409337
 20
379.7306104964
 10
475.0213797937
 20
379.4016571076
 10
474.8506345934
 20
379.0595161702
 10
474.747320956
 20
378.7084903048
 10
474.7127381104
 20
378.3529938655
 10
474.747320956
 20
377.9974974262
 10
474.8506345934
 20
377.6464715608
 10
475.0213797937
 20
377.3043306234
 10
475.257409337
 20
376.9753772346
 10
475.5557550147
 20
376.6637481744
 10
475.9126649568
 20
376.3733623588
 10
476.3236508139
 20
376.107871558
  0
LWPOLYLINE
  5
9E
330
1F
100
AcDbEntity
  8
0
  6
Continuous
 62
     7
370
    25
100
AcDbPolyline
 90
       29
 70
   128
 43
0.0
 10
498.9510678119
 20
363.0453417688
 10
499.4109611982
 20
362.8080846837
 10
499.9139786876
 20
362.6020449598
 10
500.4537945432
 20
362.4298136661
 10
501.0236202676
 20
362.2935567111
 10
501.6162899716
 20
362.194987605
 10
502.2243504898
 20
362.1353459117
 10
502.8401551084
 20
362.1153816599
 10
503.455959727
 20
362.1353459117
 10
504.0640202452
 20
362.194987605
 10
504.6566899491
 20
362.2935567111
 10
505.2265156735
 20
362.4298136661
 10
505.7663315292
 20
362.6020449598
 10
506.2693490186
 20
362.8080846837
 10
506.7292424049
 20
363.0453417688
 10
507.140228262
 20
363.3108325696
 10
507.4971382041
 20
363.6012183852
 10
507.7954838819
 20
363.9128474455
 10
508.0315134251
 20
364.2418008342
 10
508.2022586254
 20
364.5839417716
 10
508.3055722628
 20
364.934967637
 10
508.3401551084
 20
365.2904640763
 10
508.3055722628
 20
365.6459605157
 10
508.2022586254
 20
365.996986381
 10
508.0315134251
 20
366.3391273185
 10
507.7954838819
 20
366.6680807072
 10
507.4971382041
 20
366.9797097675
 10
507.140228262
 20
367.2700955831
 10
506.7292424049
 20
367.5355863839
  0
LWPOLYLINE
  5
9F
330
1F
100
AcDbEntity
  8
0
  6
Continuous
 62
     7
370
    25
100
AcDbPolyline
 90
       29
 70
   128
 43
0.0
 10
506.7292424049
 20
367.5355863839
 10
506.2693490186
 20
367.772843469
 10
505.7663315292
 20
367.9788831929
 10
505.2265156735
 20
368.1511144866
 10
504.6566899491
 20
368.2873714416
 10
504.0640202452
 20
368.3859405476
 10
503.455959727
 20
368.445582241
 10
502.8401551084
 20
368.4655464928
 10
502.2243504898
 20
368.445582241
 10
501.6162899716
 20
368.3859405476
 10
501.0236202676
 20
368.2873714416
 10
500.4537945432
 20
368.1511144866
 10
499.9139786876
 20
367.9788831929
 10
499.4109611982
 20
367.772843469
 10
498.9510678119
 20
367.5355863839
 10
498.5400819548
 20
367.2700955831
 10
498.1831720126
 20
366.9797097675
 10
497.8848263349
 20
366.6680807072
 10
497.6487967917
 20
366.3391273185
 10
497.4780515914
 20
365.996986381
 10
497.374737954
 20
365.6459605157
 10
497.3401551084
 20
365.2904640763
 10
497.374737954
 20
364.934967637
 10
497.4780515914
 20
364.5839417716
 10
497.6487967917
 20
364.2418008342
 10
497.8848263349
 20
363.9128474455
 10
498.1831720126
 20
363.6012183852
 10
498.5400819548
 20
363.3108325696
 10
498.9510678119
 20
363.0453417688
  0
LINE
  5
A0
330
1F
100
AcDbEntity
  8
0
  6
Continuous
 62
     7
370
    25
100
AcDbLine
 10
490.8193398282
 20
342.0228328894
 30
0.0
 11
490.8193398282
 21
326.5085574636
 31
0.0
  0
LINE
  5
A1
330
1F
100
AcDbEntity
  8
0
  6
Continuous
 62
     7
370
    25
100
AcDbLine
 10
490.8193398282
 20
326.5085574636
 30
0.0
 11
501.425941546
 21
320.3854966249
 31
0.0
  0
LINE
  5
A2
330
1F
100
AcDbEntity
  8
0
  6
Continuous
 62
     7
370
    25
100
AcDbLine
 10
502.1330483272
 20
351.0033221194
 30
0.0
 11
502.1330483272
 21
348.554097784
 31
0.0
  0
LINE
  5
A3
330
1F
100
AcDbEntity
  8
0
  6
Continuous
 62
     7
370
    25
100
AcDbLine
 10
461.1208550184
 20
377.1283816978
 30
0.0
 11
461.1208550184
 21
361.6141062719
 31
0.0
  0
LINE
  5
A4
330
1F
100
AcDbEntity
  8
0
  6
Continuous
 62
     7
370
    25
100
AcDbLine
 10
461.1208550184
 20
361.6141062719
 30
0.0
 11
492.9384764243
 21
343.2461844065
 31
0.0
  0
LWPOLYLINE
  5
A5
330
1F
100
AcDbEntity
  8
0
  6
HIDDEN
 62
     7
370
    18
100
AcDbPolyline
 90
       20
 70
   128
 43
0.0
 10
495.7690872965
 20
337.1231235679
 10
495.7931973337
 20
337.473037497
 10
495.8648697861
 20
337.8412435426
 10
495.9821496161
 20
338.2176980037
 10
496.1418377357
 20
338.5921321838
 10
496.3395782693
 20
338.9543324947
 10
496.5699773706
 20
339.2944190559
 10
496.8267503526
 20
339.6031151928
 10
497.1028931179
 20
339.8720004793
 10
497.3908732116
 20
340.0937404258
 10
497.6828352874
 20
340.2622865446
 10
497.9708153811
 20
340.3730413369
 10
498.2469581464
 20
340.4229837007
 10
498.5037311284
 20
340.4107513385
 10
498.7341302297
 20
340.3366779173
 10
498.9318707633
 20
340.2027839669
 10
499.0915588829
 20
340.0127217652
 10
499.2088387129
 20
339.7716757137
 10
499.2805111653
 20
339.4862209202
 10
499.3046212025
 20
339.1641438474
  0
LWPOLYLINE
  5
A6
330
1F
100
AcDbEntity
  8
0
  6
HIDDEN
 62
     7
370
    18
100
AcDbPolyline
 90
       20
 70
   128
 43
0.0
 10
499.3046212025
 20
339.1641438474
 10
499.2805111653
 20
338.8142299183
 10
499.2088387129
 20
338.4460238727
 10
499.0915588829
 20
338.0695694116
 10
498.9318707633
 20
337.6951352315
 10
498.7341302297
 20
337.3329349206
 10
498.5037311284
 20
336.9928483593
 10
498.2469581464
 20
336.6841522225
 10
497.9708153811
 20
336.4152669359
 10
497.6828352874
 20
336.1935269894
 10
497.3908732116
 20
336.0249808707
 10
497.1028931179
 20
335.9142260784
 10
496.8267503526
 20
335.8642837145
 10
496.5699773706
 20
335.8765160767
 10
496.3395782693
 20
335.9505894979
 10
496.1418377357
 20
336.0844834484
 10
495.9821496161
 20
336.27454565
 10
495.8648697861
 20
336.5155917016
 10
495.7931973337
 20
336.8010464951
 10
495.7690872965
 20
337.1231235679
  0
LINE
  5
A7
330
1F
100
AcDbEntity
  8
0
  6
HIDDEN
 62
     7
370
    18
100
AcDbLine
 10
504.2543686708
 20
334.2644345259
 30
0.0
 11
490.8193398282
 21
326.5085574636
 31
0.0
  0
LINE
  5
A8
330
1F
100
AcDbEntity
  8
0
  6
HIDDEN
 62
     7
370
    18
100
AcDbLine
 10
502.1330483272
 20
348.554097784
 30
0.0
 11
502.1330483272
 21
335.4890466936
 31
0.0
  0
LINE
  5
A9
330
1F
100
AcDbEntity
  8
0
  6
HIDDEN
 62
     7
370
    18
100
AcDbLine
 10
502.1330483272
 20
335.4890466936
 30
0.0
 11
504.2543686708
 21
334.2644345259
 31
0.0
  0
LINE
  5
AA
330
1F
100
AcDbEntity
  8
0
  6
HIDDEN
 62
     7
370
    18
100
AcDbLine
 10
504.2543686708
 20
349.7787099517
 30
0.0
 11
504.2543686708
 21
334.2644345259
 31
0.0
  0
LWPOLYLINE
  5
AB
330
1F
100
AcDbEntity
  8
0
  6
HIDDEN
 62
     7
370
    18
100
AcDbPolyline
 90
       11
 70
   128
 43
0.0
 10
502.1330483272
 20
335.4890466936
 10
502.4387789668
 20
335.6956952509
 10
502.6847475562
 20
335.9274094506
 10
502.8648975325
 20
336.1784837203
 10
502.9747930054
 20
336.4427357781
 10
503.0117279836
 20
336.7136588613
 10
502.9747930054
 20
336.9845819446
 10
502.8648975325
 20
337.2488340024
 10
502.6847475562
 20
337.4999082721
 10
502.4387789668
 20
337.7316224718
 10
502.1330483272
 20
337.9382710291
  0
LINE
  5
AC
330
1F
100
AcDbEntity
  8
0
  6
HIDDEN
 62
     7
370
    18
100
AcDbLine
 10
492.9384764243
 20
343.2461844065
 30
0.0
 11
502.1330483272
 21
337.9382710291
 31
0.0
  0
LWPOLYLINE
  5
AD
330
1F
100
AcDbEntity
  8
0
  6
HIDDEN
 62
     7
370
    18
100
AcDbPolyline
 90
       29
 70
   128
 43
0.0
 10
498.9510678119
 20
347.531066343
 10
499.4109611982
 20
347.2938092579
 10
499.9139786876
 20
347.0877695339
 10
500.4537945432
 20
346.9155382402
 10
501.0236202676
 20
346.7792812852
 10
501.6162899716
 20
346.6807121792
 10
502.2243504898
 20
346.6210704858
 10
502.8401551084
 20
346.601106234
 10
503.455959727
 20
346.6210704858
 10
504.0640202452
 20
346.6807121792
 10
504.6566899491
 20
346.7792812852
 10
505.2265156735
 20
346.9155382402
 10
505.7663315292
 20
347.0877695339
 10
506.2693490186
 20
347.2938092579
 10
506.7292424049
 20
347.531066343
 10
507.140228262
 20
347.7965571438
 10
507.4971382041
 20
348.0869429594
 10
507.7954838819
 20
348.3985720196
 10
508.0315134251
 20
348.7275254084
 10
508.2022586254
 20
349.0696663458
 10
508.3055722628
 20
349.4206922112
 10
508.3401551084
 20
349.7761886505
 10
508.3055722628
 20
350.1316850899
 10
508.2022586254
 20
350.4827109552
 10
508.0315134251
 20
350.8248518927
 10
507.7954838819
 20
351.1538052814
 10
507.4971382041
 20
351.4654343417
 10
507.140228262
 20
351.7558201572
 10
506.7292424049
 20
352.021310958
  0
LWPOLYLINE
  5
AE
330
1F
100
AcDbEntity
  8
0
  6
HIDDEN
 62
     7
370
    18
100
AcDbPolyline
 90
       29
 70
   128
 43
0.0
 10
506.7292424049
 20
352.021310958
 10
506.2693490186
 20
352.2585680431
 10
505.7663315292
 20
352.4646077671
 10
505.2265156735
 20
352.6368390608
 10
504.6566899491
 20
352.7730960158
 10
504.0640202452
 20
352.8716651218
 10
503.455959727
 20
352.9313068152
 10
502.8401551084
 20
352.951271067
 10
502.2243504898
 20
352.9313068152
 10
501.6162899716
 20
352.8716651218
 10
501.0236202676
 20
352.7730960158
 10
500.4537945432
 20
352.6368390608
 10
499.9139786876
 20
352.4646077671
 10
499.4109611982
 20
352.2585680431
 10
498.9510678119
 20
352.021310958
 10
498.5400819548
 20
351.7558201572
 10
498.1831720126
 20
351.4654343417
 10
497.8848263349
 20
351.1538052814
 10
497.6487967917
 20
350.8248518927
 10
497.4780515914
 20
350.4827109552
 10
497.374737954
 20
350.1316850899
 10
497.3401551084
 20
349.7761886505
 10
497.374737954
 20
349.4206922112
 10
497.4780515914
 20
349.0696663458
 10
497.6487967917
 20
348.7275254084
 10
497.8848263349
 20
348.3985720196
 10
498.1831720126
 20
348.0869429594
 10
498.5400819548
 20
347.7965571438
 10
498.9510678119
 20
347.531066343
  0
LINE
  5
AF
330
1F
100
AcDbEntity
  8
0
  6
HIDDEN
 62
     7
370
    18
100
AcDbLine
 10
524.053358544
 20
349.7761886505
 30
0.0
 11
482.334058454
 21
373.8602279493
 31
0.0
  0
LWPOLYLINE
  5
B0
330
1F
100
AcDbEntity
  8
0
  6
HIDDEN
 62
     7
370
    18
100
AcDbPolyline
 90
       29
 70
   128
 43
0.0
 10
476.3236508139
 20
360.5935961322
 10
476.7835442002
 20
360.356339047
 10
477.2865616896
 20
360.1502993231
 10
477.8263775453
 20
359.9780680294
 10
478.3962032697
 20
359.8418110744
 10
478.9888729737
 20
359.7432419684
 10
479.5969334919
 20
359.683600275
 10
480.2127381104
 20
359.6636360232
 10
480.828542729
 20
359.683600275
 10
481.4366032472
 20
359.7432419684
 10
482.0292729512
 20
359.8418110744
 10
482.5990986756
 20
359.9780680294
 10
483.1389145313
 20
360.1502993231
 10
483.6419320206
 20
360.356339047
 10
484.1018254069
 20
360.5935961322
 10
484.512811264
 20
360.8590869329
 10
484.8697212062
 20
361.1494727485
 10
485.1680668839
 20
361.4611018088
 10
485.4040964271
 20
361.7900551975
 10
485.5748416274
 20
362.132196135
 10
485.6781552648
 20
362.4832220003
 10
485.7127381104
 20
362.8387184397
 10
485.6781552648
 20
363.194214879
 10
485.5748416274
 20
363.5452407444
 10
485.4040964271
 20
363.8873816818
 10
485.1680668839
 20
364.2163350705
 10
484.8697212062
 20
364.5279641308
 10
484.512811264
 20
364.8183499464
 10
484.1018254069
 20
365.0838407472
  0
LWPOLYLINE
  5
B1
330
1F
100
AcDbEntity
  8
0
  6
HIDDEN
 62
     7
370
    18
100
AcDbPolyline
 90
       29
 70
   128
 43
0.0
 10
484.1018254069
 20
365.0838407472
 10
483.6419320206
 20
365.3210978323
 10
483.1389145313
 20
365.5271375562
 10
482.5990986756
 20
365.6993688499
 10
482.0292729512
 20
365.8356258049
 10
481.4366032472
 20
365.934194911
 10
480.828542729
 20
365.9938366043
 10
480.2127381104
 20
366.0138008561
 10
479.5969334919
 20
365.9938366043
 10
478.9888729737
 20
365.934194911
 10
478.3962032697
 20
365.8356258049
 10
477.8263775453
 20
365.6993688499
 10
477.2865616896
 20
365.5271375562
 10
476.7835442002
 20
365.3210978323
 10
476.3236508139
 20
365.0838407472
 10
475.9126649568
 20
364.8183499464
 10
475.5557550147
 20
364.5279641308
 10
475.257409337
 20
364.2163350705
 10
475.0213797937
 20
363.8873816818
 10
474.8506345934
 20
363.5452407444
 10
474.747320956
 20
363.194214879
 10
474.7127381104
 20
362.8387184397
 10
474.747320956
 20
362.4832220003
 10
474.8506345934
 20
362.132196135
 10
475.0213797937
 20
361.7900551975
 10
475.257409337
 20
361.4611018088
 10
475.5557550147
 20
361.1494727485
 10
475.9126649568
 20
360.8590869329
 10
476.3236508139
 20
360.5935961322
  0
LINE
  5
B2
330
1F
100
AcDbEntity
  8
0
  6
HIDDEN
 62
     7
370
    18
100
AcDbLine
 10
482.334058454
 20
389.3745033751
 30
0.0
 11
482.334058454
 21
373.8602279493
 31
0.0
  0
LINE
  5
B3
330
1F
100
AcDbEntity
  8
0
  6
HIDDEN
 62
     7
370
    18
100
AcDbLine
 10
482.334058454
 20
373.8602279493
 30
0.0
 11
461.1208550184
 21
361.6141062719
 31
0.0
  0
LINE
  5
B4
330
1F
100
AcDbEntity
  8
0
  6
HIDDEN
 62
     7
370
    18
100
AcDbLine
 10
509.3933543831
 20
334.1856950249
 30
0.0
 11
498.7867526653
 21
340.3087558636
 31
0.0
  0
LINE
  5
B5
330
1F
100
AcDbEntity
  8
0
  6
HIDDEN
 62
     7
370
    18
100
AcDbLine
 10
496.2869558337
 20
335.9785115517
 30
0.0
 11
506.8935575515
 21
329.855450713
 31
0.0
  0
LINE
  5
B6
330
1F
100
AcDbEntity
  8
0
  6
HIDDEN
 62
     7
370
    18
100
AcDbLine
 10
503.0117279836
 20
336.7136588613
 30
0.0
 11
503.0117279836
 21
352.2279342872
 31
0.0
  0
LINE
  5
B7
330
1F
100
AcDbEntity
  8
0
  6
HIDDEN
 62
     7
370
    18
100
AcDbLine
 10
508.3401551084
 20
349.7761886505
 30
0.0
 11
508.3401551084
 21
365.2904640763
 31
0.0
  0
LINE
  5
B8
330
1F
100
AcDbEntity
  8
0
  6
HIDDEN
 62
     7
370
    18
100
AcDbLine
 10
497.3401551084
 20
365.2904640763
 30
0.0
 11
497.3401551084
 21
349.7761886505
 31
0.0
  0
LINE
  5
B9
330
1F
100
AcDbEntity
  8
0
  6
HIDDEN
 62
     7
370
    18
100
AcDbLine
 10
485.7127381104
 20
362.8387184397
 30
0.0
 11
485.7127381104
 21
378.3529938655
 31
0.0
  0
LINE
  5
BA
330
1F
100
AcDbEntity
  8
0
  6
HIDDEN
 62
     7
370
    18
100
AcDbLine
 10
474.7127381104
 20
378.3529938655
 30
0.0
 11
474.7127381104
 21
362.8387184397
 31
0.0
  0
ENDSEC
  0
SECTION
  2
OBJECTS
  0
DICTIONARY
  5
C
330
0
100
AcDbDictionary
281
     1
  3
ACAD_GROUP
350
D
  3
ACAD_LAYOUT
350
1A
  3
ACAD_MLINESTYLE
350
17
  3
ACAD_PLOTSETTINGS
350
19
  3
ACAD_PLOTSTYLENAME
350
E
  3
ACAD_SCALELIST
350
47
  3
DWGPROPS
350
BB
  0
DICTIONARY
  5
D
102
{ACAD_REACTORS
330
C
102
}
330
C
100
AcDbDictionary
281
     1
  0
DICTIONARY
  5
1A
102
{ACAD_REACTORS
330
C
102
}
330
C
100
AcDbDictionary
281
     1
  3
Layout1
350
1E
  3
Layout2
350
26
  3
Model
350
22
  0
DICTIONARY
  5
17
102
{ACAD_REACTORS
330
C
102
}
330
C
100
AcDbDictionary
281
     1
  3
Standard
350
18
  0
DICTIONARY
  5
19
102
{ACAD_REACTORS
330
C
102
}
330
C
100
AcDbDictionary
281
     1
  0
ACDBDICTIONARYWDFLT
  5
E
102
{ACAD_REACTORS
330
C
102
}
330
C
100
AcDbDictionary
281
     1
  3
Normal
350
F
100
AcDbDictionaryWithDefault
340
F
  0
DICTIONARY
  5
47
102
{ACAD_REACTORS
330
C
102
}
330
C
100
AcDbDictionary
281
     1
  3
A0
350
48
  3
A1
350
49
  3
A2
350
4A
  3
A3
350
4B
  3
A4
350
4C
  3
A5
350
4D
  3
A6
350
4E
  3
A7
350
4F
  3
A8
350
50
  3
A9
350
51
  3
B0
350
52
  3
B1
350
53
  3
B2
350
54
  3
B3
350
55
  3
B4
350
56
  3
B5
350
57
  3
B6
350
58
  0
XRECORD
  5
BB
102
{ACAD_REACTORS
330
C
102
}
330
C
100
AcDbXrecord
280
     1
  1
DWGPROPS COOKIE
  2

  3

  4

  6

  7

  8
imaizumi
  9

300
=
301
=
302
=
303
=
304
=
305
=
306
=
307
=
308
=
309
=
 40
0.0
 41
2461263.067348889
 42
2461263.06734926
  1

 90
        0
  0
LAYOUT
  5
1E
102
{ACAD_REACTORS
330
1A
102
}
330
1A
100
AcDbPlotSettings
  1

  2
none_device
  4

  6

 40
0.0
 41
0.0
 42
0.0
 43
0.0
 44
0.0
 45
0.0
 46
0.0
 47
0.0
 48
0.0
 49
0.0
140
0.0
141
0.0
142
1.0
143
1.0
 70
   688
 72
     1
 73
     0
 74
     5
  7

 75
    16
147
1.0
148
0.0
149
0.0
100
AcDbLayout
  1
Layout1
 70
     1
 71
     1
 10
0.0
 20
0.0
 11
420.0
 21
297.0
 12
0.0
 22
0.0
 32
0.0
 14
1.0000000000E+20
 24
1.0000000000E+20
 34
1.0000000000E+20
 15
-1.0000000000E+20
 25
-1.0000000000E+20
 35
-1.0000000000E+20
146
0.0
 13
0.0
 23
0.0
 33
0.0
 16
1.0
 26
0.0
 36
0.0
 17
0.0
 27
1.0
 37
0.0
 76
     0
330
1B
  0
LAYOUT
  5
26
102
{ACAD_REACTORS
330
1A
102
}
330
1A
100
AcDbPlotSettings
  1

  2
none_device
  4

  6

 40
0.0
 41
0.0
 42
0.0
 43
0.0
 44
0.0
 45
0.0
 46
0.0
 47
0.0
 48
0.0
 49
0.0
140
0.0
141
0.0
142
1.0
143
1.0
 70
   688
 72
     1
 73
     0
 74
     5
  7

 75
    16
147
1.0
148
0.0
149
0.0
100
AcDbLayout
  1
Layout2
 70
     1
 71
     2
 10
0.0
 20
0.0
 11
0.0
 21
0.0
 12
0.0
 22
0.0
 32
0.0
 14
0.0
 24
0.0
 34
0.0
 15
0.0
 25
0.0
 35
0.0
146
0.0
 13
0.0
 23
0.0
 33
0.0
 16
1.0
 26
0.0
 36
0.0
 17
0.0
 27
1.0
 37
0.0
 76
     0
330
23
  0
LAYOUT
  5
22
102
{ACAD_REACTORS
330
1A
102
}
330
1A
100
AcDbPlotSettings
  1

  2
none_device
  4
Letter_(8.50_x_11.00_Inches)
  6

 40
6.35
 41
6.35
 42
6.35000508
 43
6.35000508
 44
215.9
 45
279.4
 46
0.0
 47
0.0
 48
0.0
 49
0.0
140
0.0
141
0.0
142
1.0
143
1.0
 70
  1712
 72
     1
 73
     0
 74
     0
  7

 75
     0
147
1.0
148
0.0
149
0.0
100
AcDbLayout
  1
Model
 70
     1
 71
     0
 10
0.0
 20
0.0
 11
841.0
 21
594.0
 12
0.0
 22
0.0
 32
0.0
 14
0.0
 24
0.0
 34
0.0
 15
841.0
 25
594.0
 35
0.0
146
0.0
 13
0.0
 23
0.0
 33
0.0
 16
1.0
 26
0.0
 36
0.0
 17
0.0
 27
1.0
 37
0.0
 76
     0
330
1F
331
29
  0
MLINESTYLE
  5
18
102
{ACAD_REACTORS
330
17
102
}
330
17
100
AcDbMlineStyle
  2
Standard
 70
     0
  3

 62
   256
 51
90.0
 52
90.0
 71
     2
 49
0.5
 62
   256
  6
BYLAYER
 49
-0.5
 62
   256
  6
BYLAYER
  0
ACDBPLACEHOLDER
  5
F
102
{ACAD_REACTORS
330
E
102
}
330
E
  0
SCALE
  5
48
102
{ACAD_REACTORS
330
47
102
}
330
47
100
AcDbScale
 70
     0
300
1:1
140
1.0
141
1.0
290
     1
  0
SCALE
  5
49
102
{ACAD_REACTORS
330
47
102
}
330
47
100
AcDbScale
 70
     0
300
1:2
140
1.0
141
2.0
290
     0
  0
SCALE
  5
4A
102
{ACAD_REACTORS
330
47
102
}
330
47
100
AcDbScale
 70
     0
300
1:4
140
1.0
141
4.0
290
     0
  0
SCALE
  5
4B
102
{ACAD_REACTORS
330
47
102
}
330
47
100
AcDbScale
 70
     0
300
1:5
140
1.0
141
5.0
290
     0
  0
SCALE
  5
4C
102
{ACAD_REACTORS
330
47
102
}
330
47
100
AcDbScale
 70
     0
300
1:8
140
1.0
141
8.0
290
     0
  0
SCALE
  5
4D
102
{ACAD_REACTORS
330
47
102
}
330
47
100
AcDbScale
 70
     0
300
1:10
140
1.0
141
10.0
290
     0
  0
SCALE
  5
4E
102
{ACAD_REACTORS
330
47
102
}
330
47
100
AcDbScale
 70
     0
300
1:16
140
1.0
141
16.0
290
     0
  0
SCALE
  5
4F
102
{ACAD_REACTORS
330
47
102
}
330
47
100
AcDbScale
 70
     0
300
1:20
140
1.0
141
20.0
290
     0
  0
SCALE
  5
50
102
{ACAD_REACTORS
330
47
102
}
330
47
100
AcDbScale
 70
     0
300
1:30
140
1.0
141
30.0
290
     0
  0
SCALE
  5
51
102
{ACAD_REACTORS
330
47
102
}
330
47
100
AcDbScale
 70
     0
300
1:40
140
1.0
141
40.0
290
     0
  0
SCALE
  5
52
102
{ACAD_REACTORS
330
47
102
}
330
47
100
AcDbScale
 70
     0
300
1:50
140
1.0
141
50.0
290
     0
  0
SCALE
  5
53
102
{ACAD_REACTORS
330
47
102
}
330
47
100
AcDbScale
 70
     0
300
1:100
140
1.0
141
100.0
290
     0
  0
SCALE
  5
54
102
{ACAD_REACTORS
330
47
102
}
330
47
100
AcDbScale
 70
     0
300
2:1
140
2.0
141
1.0
290
     0
  0
SCALE
  5
55
102
{ACAD_REACTORS
330
47
102
}
330
47
100
AcDbScale
 70
     0
300
4:1
140
4.0
141
1.0
290
     0
  0
SCALE
  5
56
102
{ACAD_REACTORS
330
47
102
}
330
47
100
AcDbScale
 70
     0
300
8:1
140
8.0
141
1.0
290
     0
  0
SCALE
  5
57
102
{ACAD_REACTORS
330
47
102
}
330
47
100
AcDbScale
 70
     0
300
10:1
140
10.0
141
1.0
290
     0
  0
SCALE
  5
58
102
{ACAD_REACTORS
330
47
102
}
330
47
100
AcDbScale
 70
     0
300
100:1
140
100.0
141
1.0
290
     0
  0
ENDSEC
  0
EOF
