  0
SECTION
  2
HEADER
  9
$ACADVER
  1
AC1015
  9
$ACADMAINTVER
 70
     6
  9
$DWGCODEPAGE
  3
DOS932
  9
$INSBASE
 10
0.0
 20
0.0
 30
0.0
  9
$EXTMIN
 10
0.0
 20
0.0
 30
0.0
  9
$EXTMAX
 10
841.0
 20
594.0
 30
0.0
  9
$LIMMIN
 10
0.0
 20
0.0
  9
$LIMMAX
 10
841.0
 20
594.0
  9
$ORTHOMODE
 70
     0
  9
$REGENMODE
 70
     1
  9
$FILLMODE
 70
     1
  9
$QTEXTMODE
 70
     0
  9
$MIRRTEXT
 70
     1
  9
$LTSCALE
 40
1.0
  9
$ATTMODE
 70
     1
  9
$TEXTSIZE
 40
3.5
  9
$TRACEWID
 40
1.0
  9
$TEXTSTYLE
  7
Standard
  9
$CLAYER
  8
0
  9
$CELTYPE
  6
ByLayer
  9
$CECOLOR
 62
   256
  9
$CELTSCALE
 40
1.0
  9
$DISPSILH
 70
     0
  9
$DIMSCALE
 40
1.0
  9
$DIMASZ
 40
3.302
  9
$DIMEXO
 40
1.0
  9
$DIMDLI
 40
3.75
  9
$DIMRND
 40
0.0
  9
$DIMDLE
 40
0.0
  9
$DIMEXE
 40
1.0
  9
$DIMTP
 40
0.0
  9
$DIMTM
 40
0.0
  9
$DIMTXT
 40
3.5
  9
$DIMCEN
 40
2.5
  9
$DIMTSZ
 40
0.0
  9
$DIMTOL
 70
     0
  9
$DIMLIM
 70
     0
  9
$DIMTIH
 70
     1
  9
$DIMTOH
 70
     1
  9
$DIMSE1
 70
     0
  9
$DIMSE2
 70
     0
  9
$DIMTAD
 70
     1
  9
$DIMZIN
 70
     1
  9
$DIMBLK
  1

  9
$DIMASO
 70
     1
  9
$DIMSHO
 70
     1
  9
$DIMPOST
  1

  9
$DIMAPOST
  1

  9
$DIMALT
 70
     0
  9
$DIMALTD
 70
     3
  9
$DIMALTF
 40
0.0393700787
  9
$DIMLFAC
 40
0.5
  9
$DIMTOFL
 70
     1
  9
$DIMTVP
 40
0.0
  9
$DIMTIX
 70
     0
  9
$DIMSOXD
 70
     0
  9
$DIMSAH
 70
     0
  9
$DIMBLK1
  1

  9
$DIMBLK2
  1

  9
$DIMSTYLE
  2
ISO-25
  9
$DIMCLRD
 70
     0
  9
$DIMCLRE
 70
     0
  9
$DIMCLRT
 70
     0
  9
$DIMTFAC
 40
1.0
  9
$DIMGAP
 40
1.524
  9
$DIMJUST
 70
     0
  9
$DIMSD1
 70
     0
  9
$DIMSD2
 70
     0
  9
$DIMTOLJ
 70
     0
  9
$DIMTZIN
 70
     1
  9
$DIMALTZ
 70
     0
  9
$DIMALTTZ
 70
     0
  9
$DIMUPT
 70
     0
  9
$DIMDEC
 70
     2
  9
$DIMTDEC
 70
     2
  9
$DIMALTU
 70
     2
  9
$DIMALTTD
 70
     3
  9
$DIMTXSTY
  7
Standard
  9
$DIMAUNIT
 70
     0
  9
$DIMADEC
 70
     2
  9
$DIMALTRND
 40
0.0
  9
$DIMAZIN
 70
     0
  9
$DIMDSEP
 70
    44
  9
$DIMATFIT
 70
     3
  9
$DIMFRAC
 70
     0
  9
$DIMLDRBLK
  1

  9
$DIMLUNIT
 70
     2
  9
$DIMLWD
 70
    -2
  9
$DIMLWE
 70
    -2
  9
$DIMTMOVE
 70
     0
  9
$LUNITS
 70
     2
  9
$LUPREC
 70
     2
  9
$SKETCHINC
 40
1.0
  9
$FILLETRAD
 40
0.0
  9
$AUNITS
 70
     0
  9
$AUPREC
 70
     2
  9
$MENU
  1
.
  9
$ELEVATION
 40
0.0
  9
$PELEVATION
 40
0.0
  9
$THICKNESS
 40
0.0
  9
$LIMCHECK
 70
     0
  9
$CHAMFERA
 40
0.0
  9
$CHAMFERB
 40
0.0
  9
$CHAMFERC
 40
0.0
  9
$CHAMFERD
 40
0.0
  9
$SKPOLY
 70
     0
  9
$TDCREATE
 40
2461263.439891181
  9
$TDUCREATE
 40
2461263.064891181
  9
$TDUPDATE
 40
2461263.439891563
  9
$TDUUPDATE
 40
2461263.064891563
  9
$TDINDWG
 40
0.0000000116
  9
$TDUSRTIMER
 40
0.0000000116
  9
$USRTIMER
 70
     1
  9
$ANGBASE
 50
0.0
  9
$ANGDIR
 70
     0
  9
$PDMODE
 70
     0
  9
$PDSIZE
 40
-1.0
  9
$PLINEWID
 40
0.0
  9
$SPLFRAME
 70
     0
  9
$SPLINETYPE
 70
     6
  9
$SPLINESEGS
 70
     8
  9
$HANDSEED
  5
AF
  9
$SURFTAB1
 70
     6
  9
$SURFTAB2
 70
     6
  9
$SURFTYPE
 70
     6
  9
$SURFU
 70
     6
  9
$SURFV
 70
     6
  9
$UCSBASE
  2

  9
$UCSNAME
  2

  9
$UCSORG
 10
0.0
 20
0.0
 30
0.0
  9
$UCSXDIR
 10
1.0
 20
0.0
 30
0.0
  9
$UCSYDIR
 10
0.0
 20
1.0
 30
0.0
  9
$UCSORTHOREF
  2

  9
$UCSORTHOVIEW
 70
     0
  9
$UCSORGTOP
 10
0.0
 20
0.0
 30
0.0
  9
$UCSORGBOTTOM
 10
0.0
 20
0.0
 30
0.0
  9
$UCSORGLEFT
 10
0.0
 20
0.0
 30
0.0
  9
$UCSORGRIGHT
 10
0.0
 20
0.0
 30
0.0
  9
$UCSORGFRONT
 10
0.0
 20
0.0
 30
0.0
  9
$UCSORGBACK
 10
0.0
 20
0.0
 30
0.0
  9
$PUCSBASE
  2

  9
$PUCSNAME
  2

  9
$PUCSORG
 10
0.0
 20
0.0
 30
0.0
  9
$PUCSXDIR
 10
1.0
 20
0.0
 30
0.0
  9
$PUCSYDIR
 10
0.0
 20
1.0
 30
0.0
  9
$PUCSORTHOREF
  2

  9
$PUCSORTHOVIEW
 70
     0
  9
$PUCSORGTOP
 10
0.0
 20
0.0
 30
0.0
  9
$PUCSORGBOTTOM
 10
0.0
 20
0.0
 30
0.0
  9
$PUCSORGLEFT
 10
0.0
 20
0.0
 30
0.0
  9
$PUCSORGRIGHT
 10
0.0
 20
0.0
 30
0.0
  9
$PUCSORGFRONT
 10
0.0
 20
0.0
 30
0.0
  9
$PUCSORGBACK
 10
0.0
 20
0.0
 30
0.0
  9
$USERI1
 70
     0
  9
$USERI2
 70
     0
  9
$USERI3
 70
     0
  9
$USERI4
 70
     0
  9
$USERI5
 70
     0
  9
$USERR1
 40
0.0
  9
$USERR2
 40
0.0
  9
$USERR3
 40
0.0
  9
$USERR4
 40
0.0
  9
$USERR5
 40
0.0
  9
$WORLDVIEW
 70
     1
  9
$SHADEDGE
 70
     3
  9
$SHADEDIF
 70
    70
  9
$TILEMODE
 70
     1
  9
$MAXACTVP
 70
    64
  9
$PINSBASE
 10
0.0
 20
0.0
 30
0.0
  9
$PLIMCHECK
 70
     0
  9
$PEXTMIN
 10
1.0000000000E+20
 20
1.0000000000E+20
 30
1.0000000000E+20
  9
$PEXTMAX
 10
-1.0000000000E+20
 20
-1.0000000000E+20
 30
-1.0000000000E+20
  9
$PLIMMIN
 10
0.0
 20
0.0
  9
$PLIMMAX
 10
420.0
 20
297.0
  9
$UNITMODE
 70
     0
  9
$VISRETAIN
 70
     1
  9
$PLINEGEN
 70
     0
  9
$PSLTSCALE
 70
     1
  9
$TREEDEPTH
 70
  3020
  9
$CMLSTYLE
  2
Standard
  9
$CMLJUST
 70
     0
  9
$CMLSCALE
 40
20.0
  9
$PROXYGRAPHICS
 70
     1
  9
$MEASUREMENT
 70
     1
  9
$CELWEIGHT
370
    -1
  9
$ENDCAPS
280
     0
  9
$JOINSTYLE
280
     0
  9
$LWDISPLAY
290
     1
  9
$INSUNITS
 70
     4
  9
$HYPERLINKBASE
  1

  9
$STYLESHEET
  1

  9
$XEDIT
290
     1
  9
$CEPSNTYPE
380
     0
  9
$PSTYLEMODE
290
     1
  9
$FINGERPRINTGUID
  2
{cd972e97-9f6b-4f90-9ea4-6696b748f020}
  9
$VERSIONGUID
  2
{FAEB1C32-E019-11D5-929B-00C0DF256EC4}
  9
$EXTNAMES
290
     1
  9
$PSVPSCALE
 40
0.0
  9
$OLESTARTUP
290
     0
  0
ENDSEC
  0
SECTION
  2
CLASSES
  0
CLASS
  1
ACDBDICTIONARYWDFLT
  2
AcDbDictionaryWithDefault
  3
ObjectDBX Classes
 90
        0
280
     0
281
     0
  0
CLASS
  1
VISUALSTYLE
  2
AcDbVisualStyle
  3
ObjectDBX Classes
 90
     4095
280
     0
281
     0
  0
CLASS
  1
MATERIAL
  2
AcDbMaterial
  3
ObjectDBX Classes
 90
     1153
280
     0
281
     0
  0
CLASS
  1
SCALE
  2
AcDbScale
  3
ObjectDBX Classes
 90
     1153
280
     0
281
     0
  0
CLASS
  1
TABLESTYLE
  2
AcDbTableStyle
  3
ObjectDBX Classes
 90
     4095
280
     0
281
     0
  0
CLASS
  1
MLEADERSTYLE
  2
AcDbMLeaderStyle
  3
ACDB_MLEADERSTYLE_CLASS
 90
     4095
280
     0
281
     0
  0
CLASS
  1
SUN
  2
AcDbSun
  3
SCENEOE
 90
     1153
280
     0
281
     0
  0
CLASS
  1
ACDBPLACEHOLDER
  2
AcDbPlaceHolder
  3
ObjectDBX Classes
 90
        0
280
     0
281
     0
  0
CLASS
  1
LAYOUT
  2
AcDbLayout
  3
ObjectDBX Classes
 90
        0
280
     0
281
     0
  0
ENDSEC
  0
SECTION
  2
TABLES
  0
TABLE
  2
VPORT
  5
8
330
0
100
AcDbSymbolTable
 70
     1
  0
VPORT
  5
29
330
8
100
AcDbSymbolTableRecord
100
AcDbViewportTableRecord
  2
*Active
 70
     0
 10
0.0
 20
0.0
 11
1.0
 21
1.0
 12
420.5
 22
297.0
 13
0.0
 23
0.0
 14
10.0
 24
10.0
 15
10.0
 25
10.0
 16
0.0
 26
0.0
 36
1.0
 17
0.0
 27
0.0
 37
0.0
 40
594.0
 41
1.4158249158
 42
50.0
 43
0.0
 44
0.0
 50
0.0
 51
0.0
 71
     0
 72
  2000
 73
     1
 74
     3
 75
     0
 76
     0
 77
     0
 78
     0
281
     0
 65
     1
110
0.0
120
0.0
130
0.0
111
1.0
121
0.0
131
0.0
112
0.0
122
1.0
132
0.0
 79
     0
146
0.0
  0
ENDTAB
  0
TABLE
  2
LTYPE
  5
5
330
0
100
AcDbSymbolTable
 70
     6
  0
LTYPE
  5
14
330
5
100
AcDbSymbolTableRecord
100
AcDbLinetypeTableRecord
  2
ByBlock
 70
     0
  3

 72
    65
 73
     0
 40
0.0
  0
LTYPE
  5
15
330
5
100
AcDbSymbolTableRecord
100
AcDbLinetypeTableRecord
  2
ByLayer
 70
     0
  3

 72
    65
 73
     0
 40
0.0
  0
LTYPE
  5
16
330
5
100
AcDbSymbolTableRecord
100
AcDbLinetypeTableRecord
  2
Continuous
 70
     0
  3
Solid line
 72
    65
 73
     0
 40
0.0
  0
LTYPE
  5
5E
330
5
100
AcDbSymbolTableRecord
100
AcDbLinetypeTableRecord
  2
HIDDEN
 70
     0
  3
Hidden __ __ __ __ __ __ __ __ __ __ __ __ __ __
 72
    65
 73
     2
 40
1.905
 49
1.27
 74
     0
 49
-0.635
 74
     0
  0
LTYPE
  5
5F
330
5
100
AcDbSymbolTableRecord
100
AcDbLinetypeTableRecord
  2
PHANTOM
 70
     0
  3
Phantom ______  __  __  ______  __  __  ______
 72
    65
 73
     6
 40
12.7
 49
6.35
 74
     0
 49
-1.27
 74
     0
 49
1.27
 74
     0
 49
-1.27
 74
     0
 49
1.27
 74
     0
 49
-1.27
 74
     0
  0
LTYPE
  5
60
330
5
100
AcDbSymbolTableRecord
100
AcDbLinetypeTableRecord
  2
CENTER
 70
     0
  3
Center ____ _ ____ _ ____ _ ____ _ ____ _ ____
 72
    65
 73
     4
 40
10.16
 49
6.35
 74
     0
 49
-1.27
 74
     0
 49
1.27
 74
     0
 49
-1.27
 74
     0
  0
LTYPE
  5
61
330
5
100
AcDbSymbolTableRecord
100
AcDbLinetypeTableRecord
  2
CENTERX2
 70
     0
  3
Center (2x) ________  __  ________  __  _____
 72
    65
 73
     4
 40
20.32
 49
12.7
 74
     0
 49
-2.54
 74
     0
 49
2.54
 74
     0
 49
-2.54
 74
     0
  0
LTYPE
  5
62
330
5
100
AcDbSymbolTableRecord
100
AcDbLinetypeTableRecord
  2
DOT2
 70
     0
  3
Dot (.5x) ........................................
 72
    65
 73
     2
 40
0.635
 49
0.0
 74
     0
 49
-0.635
 74
     0
  0
ENDTAB
  0
TABLE
  2
LAYER
  5
2
330
0
100
AcDbSymbolTable
 70
     1
  0
LAYER
  5
10
330
2
100
AcDbSymbolTableRecord
100
AcDbLayerTableRecord
  2
0
 70
     0
 62
     7
  6
Continuous
370
    -3
390
F
  0
ENDTAB
  0
TABLE
  2
STYLE
  5
3
330
0
100
AcDbSymbolTable
 70
     1
  0
STYLE
  5
11
330
3
100
AcDbSymbolTableRecord
100
AcDbTextStyleTableRecord
  2
Standard
 70
     0
 40
0.0
 41
1.0
 50
0.0
 71
     0
 42
3.5
  3
txt
  4
bigfont
  0
ENDTAB
  0
TABLE
  2
VIEW
  5
6
330
0
100
AcDbSymbolTable
 70
     0
  0
ENDTAB
  0
TABLE
  2
UCS
  5
7
330
0
100
AcDbSymbolTable
 70
     0
  0
ENDTAB
  0
TABLE
  2
APPID
  5
9
330
0
100
AcDbSymbolTable
 70
     1
  0
APPID
  5
12
330
9
100
AcDbSymbolTableRecord
100
AcDbRegAppTableRecord
  2
ACAD
 70
     0
  0
ENDTAB
  0
TABLE
  2
DIMSTYLE
  5
A
330
0
100
AcDbSymbolTable
 70
     1
100
AcDbDimStyleTable
  0
DIMSTYLE
105
27
330
A
100
AcDbSymbolTableRecord
100
AcDbDimStyleTableRecord
  2
ISO-25
 70
     0
 41
2.5
 42
0.625
 43
3.75
 44
1.25
 73
     0
 74
     0
 77
     1
 78
     8
140
2.5
141
2.5
143
0.0393700787
147
0.625
171
     3
172
     1
178
     0
271
     2
272
     2
274
     3
278
    44
283
     0
284
     8
340
11
  0
ENDTAB
  0
TABLE
  2
BLOCK_RECORD
  5
1
330
0
100
AcDbSymbolTable
 70
     1
  0
BLOCK_RECORD
  5
1F
330
1
100
AcDbSymbolTableRecord
100
AcDbBlockTableRecord
  2
*Model_Space
340
22
  0
BLOCK_RECORD
  5
1B
330
1
100
AcDbSymbolTableRecord
100
AcDbBlockTableRecord
  2
*Paper_Space
340
1E
  0
BLOCK_RECORD
  5
23
330
1
100
AcDbSymbolTableRecord
100
AcDbBlockTableRecord
  2
*Paper_Space0
340
26
  0
ENDTAB
  0
ENDSEC
  0
SECTION
  2
BLOCKS
  0
BLOCK
  5
20
330
1F
100
AcDbEntity
  8
0
100
AcDbBlockBegin
  2
*Model_Space
 70
     0
 10
0.0
 20
0.0
 30
0.0
  3
*Model_Space
  1

  0
ENDBLK
  5
21
330
1F
100
AcDbEntity
  8
0
100
AcDbBlockEnd
  0
BLOCK
  5
1C
330
1B
100
AcDbEntity
 67
     1
  8
0
100
AcDbBlockBegin
  2
*Paper_Space
 70
     0
 10
0.0
 20
0.0
 30
0.0
  3
*Paper_Space
  1

  0
ENDBLK
  5
1D
330
1B
100
AcDbEntity
 67
     1
  8
0
100
AcDbBlockEnd
  0
BLOCK
  5
24
330
23
100
AcDbEntity
  8
0
100
AcDbBlockBegin
  2
*Paper_Space0
 70
     0
 10
0.0
 20
0.0
 30
0.0
  3
*Paper_Space0
  1

  0
ENDBLK
  5
25
330
23
100
AcDbEntity
  8
0
100
AcDbBlockEnd
  0
ENDSEC
  0
SECTION
  2
ENTITIES
  0
LINE
  5
63
330
1F
100
AcDbEntity
  8
0
  6
Continuous
 62
     7
370
    25
100
AcDbLine
 10
322.2395346748
 20
188.2843942019
 30
0.0
 11
347.2395346748
 21
188.2843942019
 31
0.0
  0
LINE
  5
64
330
1F
100
AcDbEntity
  8
0
  6
Continuous
 62
     7
370
    25
100
AcDbLine
 10
322.2395346748
 20
251.2843942019
 30
0.0
 11
322.2395346748
 21
188.2843942019
 31
0.0
  0
LINE
  5
65
330
1F
100
AcDbEntity
  8
0
  6
Continuous
 62
     7
370
    25
100
AcDbLine
 10
389.2395346748
 20
251.2843942019
 30
0.0
 11
322.2395346748
 21
251.2843942019
 31
0.0
  0
LINE
  5
66
330
1F
100
AcDbEntity
  8
0
  6
Continuous
 62
     7
370
    25
100
AcDbLine
 10
347.2395346748
 20
188.2843942019
 30
0.0
 11
347.2395346748
 21
186.2843942019
 31
0.0
  0
LINE
  5
67
330
1F
100
AcDbEntity
  8
0
  6
Continuous
 62
     7
370
    25
100
AcDbLine
 10
347.2395346748
 20
186.2843942019
 30
0.0
 11
389.2395346748
 21
186.2843942019
 31
0.0
  0
LINE
  5
68
330
1F
100
AcDbEntity
  8
0
  6
Continuous
 62
     7
370
    25
100
AcDbLine
 10
389.2395346748
 20
186.2843942019
 30
0.0
 11
389.2395346748
 21
251.2843942019
 31
0.0
  0
LINE
  5
69
330
1F
100
AcDbEntity
  8
0
  6
HIDDEN
 62
     7
370
    18
100
AcDbLine
 10
364.2395346748
 20
209.2843942019
 30
0.0
 11
389.2395346748
 21
209.2843942019
 31
0.0
  0
LINE
  5
6A
330
1F
100
AcDbEntity
  8
0
  6
HIDDEN
 62
     7
370
    18
100
AcDbLine
 10
364.2395346748
 20
209.2843942019
 30
0.0
 11
364.2395346748
 21
193.2843942019
 31
0.0
  0
LINE
  5
6B
330
1F
100
AcDbEntity
  8
0
  6
HIDDEN
 62
     7
370
    18
100
AcDbLine
 10
364.2395346748
 20
193.2843942019
 30
0.0
 11
389.2395346748
 21
193.2843942019
 31
0.0
  0
LINE
  5
6C
330
1F
100
AcDbEntity
  8
0
  6
HIDDEN
 62
     7
370
    18
100
AcDbLine
 10
364.2395346748
 20
244.2843942019
 30
0.0
 11
389.2395346748
 21
244.2843942019
 31
0.0
  0
LINE
  5
6D
330
1F
100
AcDbEntity
  8
0
  6
HIDDEN
 62
     7
370
    18
100
AcDbLine
 10
364.2395346748
 20
244.2843942019
 30
0.0
 11
364.2395346748
 21
228.2843942019
 31
0.0
  0
LINE
  5
6E
330
1F
100
AcDbEntity
  8
0
  6
HIDDEN
 62
     7
370
    18
100
AcDbLine
 10
364.2395346748
 20
228.2843942019
 30
0.0
 11
389.2395346748
 21
228.2843942019
 31
0.0
  0
LINE
  5
6F
330
1F
100
AcDbEntity
  8
0
  6
HIDDEN
 62
     7
370
    18
100
AcDbLine
 10
337.2395346748
 20
198.2843942019
 30
0.0
 11
334.7395346748
 21
198.2843942019
 31
0.0
  0
LINE
  5
70
330
1F
100
AcDbEntity
  8
0
  6
HIDDEN
 62
     7
370
    18
100
AcDbLine
 10
334.7395346748
 20
198.2843942019
 30
0.0
 11
332.2395346748
 21
198.2843942019
 31
0.0
  0
LINE
  5
71
330
1F
100
AcDbEntity
  8
0
  6
HIDDEN
 62
     7
370
    18
100
AcDbLine
 10
337.2395346748
 20
188.2843942019
 30
0.0
 11
337.2395346748
 21
198.2843942019
 31
0.0
  0
LINE
  5
72
330
1F
100
AcDbEntity
  8
0
  6
HIDDEN
 62
     7
370
    18
100
AcDbLine
 10
332.2395346748
 20
198.2843942019
 30
0.0
 11
332.2395346748
 21
188.2843942019
 31
0.0
  0
LINE
  5
73
330
1F
100
AcDbEntity
  8
0
  6
Continuous
 62
     7
370
    25
100
AcDbLine
 10
389.2395346748
 20
375.38
 30
0.0
 11
322.2395346748
 21
375.38
 31
0.0
  0
LINE
  5
74
330
1F
100
AcDbEntity
  8
0
  6
Continuous
 62
     7
370
    25
100
AcDbLine
 10
389.2395346748
 20
375.38
 30
0.0
 11
389.2395346748
 21
347.38
 31
0.0
  0
LINE
  5
75
330
1F
100
AcDbEntity
  8
0
  6
Continuous
 62
     7
370
    25
100
AcDbLine
 10
389.2395346748
 20
347.38
 30
0.0
 11
322.2395346748
 21
347.38
 31
0.0
  0
LINE
  5
76
330
1F
100
AcDbEntity
  8
0
  6
Continuous
 62
     7
370
    25
100
AcDbLine
 10
322.2395346748
 20
375.38
 30
0.0
 11
322.2395346748
 21
347.38
 31
0.0
  0
LINE
  5
77
330
1F
100
AcDbEntity
  8
0
  6
HIDDEN
 62
     7
370
    18
100
AcDbLine
 10
364.2395346748
 20
361.38
 30
0.0
 11
364.2395346748
 21
353.38
 31
0.0
  0
LINE
  5
78
330
1F
100
AcDbEntity
  8
0
  6
HIDDEN
 62
     7
370
    18
100
AcDbLine
 10
364.2395346748
 20
369.38
 30
0.0
 11
364.2395346748
 21
361.38
 31
0.0
  0
ARC
  5
79
330
1F
100
AcDbEntity
  8
0
  6
HIDDEN
 62
     7
370
    18
100
AcDbCircle
 10
334.7395346748
 20
361.38
 30
0.0
 40
2.5
100
AcDbArc
 50
90.0
 51
270.0
  0
ARC
  5
7A
330
1F
100
AcDbEntity
  8
0
  6
HIDDEN
 62
     7
370
    18
100
AcDbCircle
 10
334.7395346748
 20
361.38
 30
0.0
 40
2.5
100
AcDbArc
 50
270.0
 51
90.0
  0
LINE
  5
7B
330
1F
100
AcDbEntity
  8
0
  6
HIDDEN
 62
     7
370
    18
100
AcDbLine
 10
347.2395346748
 20
375.38
 30
0.0
 11
347.2395346748
 21
347.38
 31
0.0
  0
LINE
  5
7C
330
1F
100
AcDbEntity
  8
0
  6
HIDDEN
 62
     7
370
    18
100
AcDbLine
 10
364.2395346748
 20
353.38
 30
0.0
 11
389.2395346748
 21
353.38
 31
0.0
  0
LINE
  5
7D
330
1F
100
AcDbEntity
  8
0
  6
HIDDEN
 62
     7
370
    18
100
AcDbLine
 10
389.2395346748
 20
369.38
 30
0.0
 11
364.2395346748
 21
369.38
 31
0.0
  0
LINE
  5
7E
330
1F
100
AcDbEntity
  8
0
  6
Continuous
 62
     7
370
    25
100
AcDbLine
 10
499.88
 20
186.2843942019
 30
0.0
 11
499.88
 21
251.2843942019
 31
0.0
  0
LINE
  5
7F
330
1F
100
AcDbEntity
  8
0
  6
Continuous
 62
     7
370
    25
100
AcDbLine
 10
499.88
 20
186.2843942019
 30
0.0
 11
471.88
 21
186.2843942019
 31
0.0
  0
LINE
  5
80
330
1F
100
AcDbEntity
  8
0
  6
Continuous
 62
     7
370
    25
100
AcDbLine
 10
471.88
 20
186.2843942019
 30
0.0
 11
471.88
 21
251.2843942019
 31
0.0
  0
LINE
  5
81
330
1F
100
AcDbEntity
  8
0
  6
Continuous
 62
     7
370
    25
100
AcDbLine
 10
499.88
 20
251.2843942019
 30
0.0
 11
471.88
 21
251.2843942019
 31
0.0
  0
ARC
  5
82
330
1F
100
AcDbEntity
  8
0
  6
Continuous
 62
     7
370
    25
100
AcDbCircle
 10
485.88
 20
236.2843942019
 30
0.0
 40
8.000000000000028
100
AcDbArc
 50
270.0
 51
90.0
  0
ARC
  5
83
330
1F
100
AcDbEntity
  8
0
  6
Continuous
 62
     7
370
    25
100
AcDbCircle
 10
485.88
 20
236.2843942019
 30
0.0
 40
8.000000000000028
100
AcDbArc
 50
90.0
 51
270.0
  0
ARC
  5
84
330
1F
100
AcDbEntity
  8
0
  6
Continuous
 62
     7
370
    25
100
AcDbCircle
 10
485.88
 20
201.2843942019
 30
0.0
 40
8.000000000000028
100
AcDbArc
 50
270.0
 51
90.0
  0
ARC
  5
85
330
1F
100
AcDbEntity
  8
0
  6
Continuous
 62
     7
370
    25
100
AcDbCircle
 10
485.88
 20
201.2843942019
 30
0.0
 40
8.000000000000028
100
AcDbArc
 50
90.0
 51
270.0
  0
LINE
  5
86
330
1F
100
AcDbEntity
  8
0
  6
HIDDEN
 62
     7
370
    18
100
AcDbLine
 10
499.88
 20
188.2843942019
 30
0.0
 11
471.88
 21
188.2843942019
 31
0.0
  0
LINE
  5
87
330
1F
100
AcDbEntity
  8
0
  6
HIDDEN
 62
     7
370
    18
100
AcDbLine
 10
488.38
 20
198.2843942019
 30
0.0
 11
488.38
 21
188.2843942019
 31
0.0
  0
LINE
  5
88
330
1F
100
AcDbEntity
  8
0
  6
HIDDEN
 62
     7
370
    18
100
AcDbLine
 10
488.38
 20
198.2843942019
 30
0.0
 11
483.38
 21
198.2843942019
 31
0.0
  0
LINE
  5
89
330
1F
100
AcDbEntity
  8
0
  6
HIDDEN
 62
     7
370
    18
100
AcDbLine
 10
483.38
 20
198.2843942019
 30
0.0
 11
483.38
 21
188.2843942019
 31
0.0
  0
LINE
  5
8A
330
1F
100
AcDbEntity
  8
0
  6
Continuous
 62
     7
370
    25
100
AcDbLine
 10
498.961475452
 20
407.7156057981
 30
0.0
 11
452.9995346748
 21
381.1823421638
 31
0.0
  0
LINE
  5
8B
330
1F
100
AcDbEntity
  8
0
  6
Continuous
 62
     7
370
    25
100
AcDbLine
 10
498.961475452
 20
407.7156057981
 30
0.0
 11
518.7604653252
 21
396.2858922325
 31
0.0
  0
LINE
  5
8C
330
1F
100
AcDbEntity
  8
0
  6
Continuous
 62
     7
370
    25
100
AcDbLine
 10
518.7604653252
 20
396.2858922325
 30
0.0
 11
472.798524548
 21
369.7526285983
 31
0.0
  0
LINE
  5
8D
330
1F
100
AcDbEntity
  8
0
  6
Continuous
 62
     7
370
    25
100
AcDbLine
 10
452.9995346748
 20
381.1823421638
 30
0.0
 11
472.798524548
 21
369.7526285983
 31
0.0
  0
LWPOLYLINE
  5
8E
330
1F
100
AcDbEntity
  8
0
  6
Continuous
 62
     7
370
    25
100
AcDbPolyline
 90
       35
 70
   128
 43
0.0
 10
479.1624855787
 20
384.856178667
 10
478.6164057745
 20
385.1435626032
 10
478.0267226446
 20
385.4006334564
 10
477.3984671578
 20
385.6251979887
 10
476.7369993682
 20
385.8153402947
 10
476.0479626859
 20
385.9694381472
 10
475.3372357288
 20
386.0861768378
 10
474.6108821689
 20
386.164560393
 10
473.8750989984
 20
386.2039200721
 10
473.1361636601
 20
386.2039200721
 10
472.4003804896
 20
386.164560393
 10
471.6740269296
 20
386.0861768378
 10
470.9632999726
 20
385.9694381472
 10
470.2742632903
 20
385.8153402947
 10
469.6127955007
 20
385.6251979887
 10
468.9845400139
 20
385.4006334564
 10
468.394856884
 20
385.1435626032
 10
467.8487770797
 20
384.856178667
 10
467.3509595614
 20
384.5409335062
 10
466.9056515324
 20
384.2005166813
 10
466.5166522041
 20
383.8378325087
 10
466.1872803813
 20
383.4559752819
 10
465.9203461485
 20
383.058202872
 10
465.7181268943
 20
382.647908933
 10
465.5823478822
 20
382.2285939482
 10
465.5141675308
 20
381.8038353651
 10
465.5141675308
 20
381.3772570743
 10
465.5823478822
 20
380.9524984912
 10
465.7181268943
 20
380.5331835064
 10
465.9203461485
 20
380.1228895675
 10
466.1872803813
 20
379.7251171576
 10
466.5166522041
 20
379.3432599307
 10
466.9056515324
 20
378.9805757581
 10
467.3509595614
 20
378.6401589333
 10
467.8487770797
 20
378.3249137724
  0
LWPOLYLINE
  5
8F
330
1F
100
AcDbEntity
  8
0
  6
Continuous
 62
     7
370
    25
100
AcDbPolyline
 90
       35
 70
   128
 43
0.0
 10
467.8487770797
 20
378.3249137724
 10
468.394856884
 20
378.0375298362
 10
468.9845400139
 20
377.780458983
 10
469.6127955007
 20
377.5558944507
 10
470.2742632903
 20
377.3657521448
 10
470.9632999726
 20
377.2116542922
 10
471.6740269296
 20
377.0949156017
 10
472.4003804896
 20
377.0165320464
 10
473.1361636601
 20
376.9771723673
 10
473.8750989984
 20
376.9771723673
 10
474.6108821689
 20
377.0165320464
 10
475.3372357288
 20
377.0949156017
 10
476.0479626859
 20
377.2116542922
 10
476.7369993682
 20
377.3657521448
 10
477.3984671578
 20
377.5558944507
 10
478.0267226446
 20
377.780458983
 10
478.6164057745
 20
378.0375298362
 10
479.1624855787
 20
378.3249137724
 10
479.6603030971
 20
378.6401589333
 10
480.105611126
 20
378.9805757581
 10
480.4946104544
 20
379.3432599307
 10
480.8239822771
 20
379.7251171576
 10
481.09091651
 20
380.1228895675
 10
481.2931357641
 20
380.5331835064
 10
481.4289147762
 20
380.9524984912
 10
481.4970951277
 20
381.3772570743
 10
481.4970951277
 20
381.8038353651
 10
481.4289147762
 20
382.2285939482
 10
481.2931357641
 20
382.647908933
 10
481.09091651
 20
383.058202872
 10
480.8239822771
 20
383.4559752819
 10
480.4946104544
 20
383.8378325087
 10
480.105611126
 20
384.2005166813
 10
479.6603030971
 20
384.5409335062
 10
479.1624855787
 20
384.856178667
  0
LWPOLYLINE
  5
90
330
1F
100
AcDbEntity
  8
0
  6
Continuous
 62
     7
370
    25
100
AcDbPolyline
 90
       35
 70
   128
 43
0.0
 10
503.9112229203
 20
399.1433206239
 10
503.365143116
 20
399.4307045601
 10
502.7754599861
 20
399.6877754133
 10
502.1472044993
 20
399.9123399456
 10
501.4857367097
 20
400.1024822516
 10
500.7967000274
 20
400.2565801041
 10
500.0859730704
 20
400.3733187947
 10
499.3596195104
 20
400.4517023499
 10
498.6238363399
 20
400.491062029
 10
497.8849010016
 20
400.491062029
 10
497.1491178311
 20
400.4517023499
 10
496.4227642712
 20
400.3733187947
 10
495.7120373141
 20
400.2565801041
 10
495.0230006318
 20
400.1024822516
 10
494.3615328422
 20
399.9123399456
 10
493.7332773554
 20
399.6877754133
 10
493.1435942255
 20
399.4307045601
 10
492.5975144213
 20
399.1433206239
 10
492.0996969029
 20
398.8280754631
 10
491.654388874
 20
398.4876586382
 10
491.2653895456
 20
398.1249744656
 10
490.9360177229
 20
397.7431172387
 10
490.66908349
 20
397.3453448289
 10
490.4668642359
 20
396.9350508899
 10
490.3310852238
 20
396.5157359051
 10
490.2629048723
 20
396.090977322
 10
490.2629048723
 20
395.6643990312
 10
490.3310852238
 20
395.2396404481
 10
490.4668642359
 20
394.8203254633
 10
490.66908349
 20
394.4100315244
 10
490.9360177229
 20
394.0122591145
 10
491.2653895456
 20
393.6304018876
 10
491.654388874
 20
393.267717715
 10
492.0996969029
 20
392.9273008902
 10
492.5975144213
 20
392.6120557293
  0
LWPOLYLINE
  5
91
330
1F
100
AcDbEntity
  8
0
  6
Continuous
 62
     7
370
    25
100
AcDbPolyline
 90
       35
 70
   128
 43
0.0
 10
492.5975144213
 20
392.6120557293
 10
493.1435942255
 20
392.3246717931
 10
493.7332773554
 20
392.0676009399
 10
494.3615328422
 20
391.8430364076
 10
495.0230006318
 20
391.6528941017
 10
495.7120373141
 20
391.4987962491
 10
496.4227642712
 20
391.3820575586
 10
497.1491178311
 20
391.3036740033
 10
497.8849010016
 20
391.2643143242
 10
498.6238363399
 20
391.2643143242
 10
499.3596195104
 20
391.3036740033
 10
500.0859730704
 20
391.3820575586
 10
500.7967000274
 20
391.4987962491
 10
501.4857367097
 20
391.6528941017
 10
502.1472044993
 20
391.8430364076
 10
502.7754599861
 20
392.0676009399
 10
503.365143116
 20
392.3246717931
 10
503.9112229203
 20
392.6120557293
 10
504.4090404386
 20
392.9273008902
 10
504.8543484676
 20
393.267717715
 10
505.2433477959
 20
393.6304018876
 10
505.5727196187
 20
394.0122591145
 10
505.8396538515
 20
394.4100315244
 10
506.0418731057
 20
394.8203254633
 10
506.1776521178
 20
395.2396404481
 10
506.2458324692
 20
395.6643990312
 10
506.2458324692
 20
396.090977322
 10
506.1776521178
 20
396.5157359051
 10
506.0418731057
 20
396.9350508899
 10
505.8396538515
 20
397.3453448289
 10
505.5727196187
 20
397.7431172387
 10
505.2433477959
 20
398.1249744656
 10
504.8543484676
 20
398.4876586382
 10
504.4090404386
 20
398.8280754631
 10
503.9112229203
 20
399.1433206239
  0
LINE
  5
92
330
1F
100
AcDbEntity
  8
0
  6
Continuous
 62
     7
370
    25
100
AcDbLine
 10
452.9995346748
 20
381.1823421638
 30
0.0
 11
452.9995346748
 21
326.4741077675
 31
0.0
  0
LINE
  5
93
330
1F
100
AcDbEntity
  8
0
  6
Continuous
 62
     7
370
    25
100
AcDbLine
 10
472.798524548
 20
369.7526285983
 30
0.0
 11
472.798524548
 21
315.0443942019
 31
0.0
  0
LINE
  5
94
330
1F
100
AcDbEntity
  8
0
  6
Continuous
 62
     7
370
    25
100
AcDbLine
 10
452.9995346748
 20
326.4741077675
 30
0.0
 11
472.798524548
 21
315.0443942019
 31
0.0
  0
LINE
  5
95
330
1F
100
AcDbEntity
  8
0
  6
Continuous
 62
     7
370
    25
100
AcDbLine
 10
518.7604653252
 20
361.9911781333
 30
0.0
 11
518.7604653252
 21
396.2858922325
 31
0.0
  0
LINE
  5
96
330
1F
100
AcDbEntity
  8
0
  6
Continuous
 62
     7
370
    25
100
AcDbLine
 10
517.3462517628
 20
361.1747700215
 30
0.0
 11
518.7604653252
 21
361.9911781333
 31
0.0
  0
LINE
  5
97
330
1F
100
AcDbEntity
  8
0
  6
Continuous
 62
     7
370
    25
100
AcDbLine
 10
517.3462517628
 20
340.7612497244
 30
0.0
 11
517.3462517628
 21
361.1747700215
 31
0.0
  0
LINE
  5
98
330
1F
100
AcDbEntity
  8
0
  6
Continuous
 62
     7
370
    25
100
AcDbLine
 10
472.798524548
 20
315.0443942019
 30
0.0
 11
517.3462517628
 21
340.7612497244
 31
0.0
  0
LWPOLYLINE
  5
99
330
1F
100
AcDbEntity
  8
0
  6
HIDDEN
 62
     7
370
    18
100
AcDbPolyline
 90
       35
 70
   128
 43
0.0
 10
467.8487770797
 20
357.9113934753
 10
468.394856884
 20
357.6240095391
 10
468.9845400139
 20
357.3669386859
 10
469.6127955007
 20
357.1423741536
 10
470.2742632903
 20
356.9522318476
 10
470.9632999726
 20
356.7981339951
 10
471.6740269296
 20
356.6813953045
 10
472.4003804896
 20
356.6030117493
 10
473.1361636601
 20
356.5636520702
 10
473.8750989984
 20
356.5636520702
 10
474.6108821689
 20
356.6030117493
 10
475.3372357288
 20
356.6813953045
 10
476.0479626859
 20
356.7981339951
 10
476.7369993682
 20
356.9522318476
 10
477.3984671578
 20
357.1423741536
 10
478.0267226446
 20
357.3669386859
 10
478.6164057745
 20
357.6240095391
 10
479.1624855787
 20
357.9113934753
 10
479.6603030971
 20
358.2266386361
 10
480.105611126
 20
358.567055461
 10
480.4946104544
 20
358.9297396336
 10
480.8239822771
 20
359.3115968605
 10
481.09091651
 20
359.7093692703
 10
481.2931357641
 20
360.1196632093
 10
481.4289147762
 20
360.5389781941
 10
481.4970951277
 20
360.9637367772
 10
481.4970951277
 20
361.390315068
 10
481.4289147762
 20
361.8150736511
 10
481.2931357641
 20
362.2343886359
 10
481.09091651
 20
362.6446825748
 10
480.8239822771
 20
363.0424549847
 10
480.4946104544
 20
363.4243122116
 10
480.105611126
 20
363.7869963842
 10
479.6603030971
 20
364.127413209
 10
479.1624855787
 20
364.4426583699
  0
LWPOLYLINE
  5
9A
330
1F
100
AcDbEntity
  8
0
  6
HIDDEN
 62
     7
370
    18
100
AcDbPolyline
 90
       35
 70
   128
 43
0.0
 10
479.1624855787
 20
364.4426583699
 10
478.6164057745
 20
364.7300423061
 10
478.0267226446
 20
364.9871131593
 10
477.3984671578
 20
365.2116776916
 10
476.7369993682
 20
365.4018199975
 10
476.0479626859
 20
365.5559178501
 10
475.3372357288
 20
365.6726565407
 10
474.6108821689
 20
365.7510400959
 10
473.8750989984
 20
365.790399775
 10
473.1361636601
 20
365.790399775
 10
472.4003804896
 20
365.7510400959
 10
471.6740269296
 20
365.6726565407
 10
470.9632999726
 20
365.5559178501
 10
470.2742632903
 20
365.4018199975
 10
469.6127955007
 20
365.2116776916
 10
468.9845400139
 20
364.9871131593
 10
468.394856884
 20
364.7300423061
 10
467.8487770797
 20
364.4426583699
 10
467.3509595614
 20
364.127413209
 10
466.9056515324
 20
363.7869963842
 10
466.5166522041
 20
363.4243122116
 10
466.1872803813
 20
363.0424549847
 10
465.9203461485
 20
362.6446825748
 10
465.7181268943
 20
362.2343886359
 10
465.5823478822
 20
361.8150736511
 10
465.5141675308
 20
361.390315068
 10
465.5141675308
 20
360.9637367772
 10
465.5823478822
 20
360.5389781941
 10
465.7181268943
 20
360.1196632093
 10
465.9203461485
 20
359.7093692703
 10
466.1872803813
 20
359.3115968605
 10
466.5166522041
 20
358.9297396336
 10
466.9056515324
 20
358.567055461
 10
467.3509595614
 20
358.2266386361
 10
467.8487770797
 20
357.9113934753
  0
LWPOLYLINE
  5
9B
330
1F
100
AcDbEntity
  8
0
  6
HIDDEN
 62
     7
370
    18
100
AcDbPolyline
 90
       35
 70
   128
 43
0.0
 10
492.5975144213
 20
372.1985354322
 10
493.1435942255
 20
371.911151496
 10
493.7332773554
 20
371.6540806428
 10
494.3615328422
 20
371.4295161105
 10
495.0230006318
 20
371.2393738045
 10
495.7120373141
 20
371.085275952
 10
496.4227642712
 20
370.9685372614
 10
497.1491178311
 20
370.8901537062
 10
497.8849010016
 20
370.8507940271
 10
498.6238363399
 20
370.8507940271
 10
499.3596195104
 20
370.8901537062
 10
500.0859730704
 20
370.9685372614
 10
500.7967000274
 20
371.085275952
 10
501.4857367097
 20
371.2393738045
 10
502.1472044993
 20
371.4295161105
 10
502.7754599861
 20
371.6540806428
 10
503.365143116
 20
371.911151496
 10
503.9112229203
 20
372.1985354322
 10
504.4090404386
 20
372.513780593
 10
504.8543484676
 20
372.8541974179
 10
505.2433477959
 20
373.2168815905
 10
505.5727196187
 20
373.5987388174
 10
505.8396538515
 20
373.9965112272
 10
506.0418731057
 20
374.4068051662
 10
506.1776521178
 20
374.826120151
 10
506.2458324692
 20
375.2508787341
 10
506.2458324692
 20
375.6774570249
 10
506.1776521178
 20
376.102215608
 10
506.0418731057
 20
376.5215305928
 10
505.8396538515
 20
376.9318245317
 10
505.5727196187
 20
377.3295969416
 10
505.2433477959
 20
377.7114541685
 10
504.8543484676
 20
378.0741383411
 10
504.4090404386
 20
378.4145551659
 10
503.9112229203
 20
378.7298003268
  0
LWPOLYLINE
  5
9C
330
1F
100
AcDbEntity
  8
0
  6
HIDDEN
 62
     7
370
    18
100
AcDbPolyline
 90
       35
 70
   128
 43
0.0
 10
503.9112229203
 20
378.7298003268
 10
503.365143116
 20
379.017184263
 10
502.7754599861
 20
379.2742551162
 10
502.1472044993
 20
379.4988196485
 10
501.4857367097
 20
379.6889619544
 10
500.7967000274
 20
379.843059807
 10
500.0859730704
 20
379.9597984975
 10
499.3596195104
 20
380.0381820528
 10
498.6238363399
 20
380.0775417319
 10
497.8849010016
 20
380.0775417319
 10
497.1491178311
 20
380.0381820528
 10
496.4227642712
 20
379.9597984975
 10
495.7120373141
 20
379.843059807
 10
495.0230006318
 20
379.6889619544
 10
494.3615328422
 20
379.4988196485
 10
493.7332773554
 20
379.2742551162
 10
493.1435942255
 20
379.017184263
 10
492.5975144213
 20
378.7298003268
 10
492.0996969029
 20
378.4145551659
 10
491.654388874
 20
378.0741383411
 10
491.2653895456
 20
377.7114541685
 10
490.9360177229
 20
377.3295969416
 10
490.66908349
 20
376.9318245317
 10
490.4668642359
 20
376.5215305928
 10
490.3310852238
 20
376.102215608
 10
490.2629048723
 20
375.6774570249
 10
490.2629048723
 20
375.2508787341
 10
490.3310852238
 20
374.826120151
 10
490.4668642359
 20
374.4068051662
 10
490.66908349
 20
373.9965112272
 10
490.9360177229
 20
373.5987388174
 10
491.2653895456
 20
373.2168815905
 10
491.654388874
 20
372.8541974179
 10
492.0996969029
 20
372.513780593
 10
492.5975144213
 20
372.1985354322
  0
LINE
  5
9D
330
1F
100
AcDbEntity
  8
0
  6
HIDDEN
 62
     7
370
    18
100
AcDbLine
 10
498.961475452
 20
373.4208916988
 30
0.0
 11
498.961475452
 21
407.7156057981
 31
0.0
  0
LINE
  5
9E
330
1F
100
AcDbEntity
  8
0
  6
HIDDEN
 62
     7
370
    18
100
AcDbLine
 10
452.9995346748
 20
326.4741077675
 30
0.0
 11
497.5472618896
 21
352.1909632899
 31
0.0
  0
LINE
  5
9F
330
1F
100
AcDbEntity
  8
0
  6
HIDDEN
 62
     7
370
    18
100
AcDbLine
 10
498.961475452
 20
373.4208916988
 30
0.0
 11
518.7604653252
 21
361.9911781333
 31
0.0
  0
LINE
  5
A0
330
1F
100
AcDbEntity
  8
0
  6
HIDDEN
 62
     7
370
    18
100
AcDbLine
 10
497.5472618896
 20
372.604483587
 30
0.0
 11
498.961475452
 21
373.4208916988
 31
0.0
  0
LINE
  5
A1
330
1F
100
AcDbEntity
  8
0
  6
HIDDEN
 62
     7
370
    18
100
AcDbLine
 10
497.5472618896
 20
372.604483587
 30
0.0
 11
517.3462517628
 21
361.1747700215
 31
0.0
  0
LINE
  5
A2
330
1F
100
AcDbEntity
  8
0
  6
HIDDEN
 62
     7
370
    18
100
AcDbLine
 10
497.5472618896
 20
352.1909632899
 30
0.0
 11
517.3462517628
 21
340.7612497244
 31
0.0
  0
LINE
  5
A3
330
1F
100
AcDbEntity
  8
0
  6
HIDDEN
 62
     7
370
    18
100
AcDbLine
 10
497.5472618896
 20
352.1909632899
 30
0.0
 11
497.5472618896
 21
372.604483587
 31
0.0
  0
LWPOLYLINE
  5
A4
330
1F
100
AcDbEntity
  8
0
  6
HIDDEN
 62
     7
370
    18
100
AcDbPolyline
 90
       20
 70
   128
 43
0.0
 10
498.6079220614
 20
353.6213362364
 10
498.6320320985
 20
353.9434133091
 10
498.7037045509
 20
354.2288681026
 10
498.8209843809
 20
354.4699141542
 10
498.9806725006
 20
354.6599763559
 10
499.1784130342
 20
354.7938703063
 10
499.4088121354
 20
354.8679437275
 10
499.6655851175
 20
354.8801760897
 10
499.9417278827
 20
354.8302337259
 10
500.2297079764
 20
354.7194789336
 10
500.5216700522
 20
354.5509328148
 10
500.8096501459
 20
354.3291928683
 10
501.0857929112
 20
354.0603075817
 10
501.3425658932
 20
353.7516114449
 10
501.5729649945
 20
353.4115248836
 10
501.7707055281
 20
353.0493245728
 10
501.9303936477
 20
352.6748903926
 10
502.0476734777
 20
352.2984359316
 10
502.1193459302
 20
351.9302298859
 10
502.1434559673
 20
351.5803159568
  0
LWPOLYLINE
  5
A5
330
1F
100
AcDbEntity
  8
0
  6
HIDDEN
 62
     7
370
    18
100
AcDbPolyline
 90
       20
 70
   128
 43
0.0
 10
505.6789898732
 20
357.7033767955
 10
505.7030999103
 20
358.0254538683
 10
505.7747723628
 20
358.3109086617
 10
505.8920521928
 20
358.5519547133
 10
506.0517403124
 20
358.742016915
 10
506.249480846
 20
358.8759108654
 10
506.4798799473
 20
358.9499842866
 10
506.7366529293
 20
358.9622166488
 10
507.0127956946
 20
358.912274285
 10
507.3007757883
 20
358.8015194927
 10
507.5927378641
 20
358.6329733739
 10
507.8807179578
 20
358.4112334274
 10
508.156860723
 20
358.1423481409
 10
508.4136337051
 20
357.833652004
 10
508.6440328064
 20
357.4935654427
 10
508.8417733399
 20
357.1313651319
 10
509.0014614596
 20
356.7569309517
 10
509.1187412896
 20
356.3804764907
 10
509.190413742
 20
356.012270445
 10
509.2145237792
 20
355.6623565159
  0
LWPOLYLINE
  5
A6
330
1F
100
AcDbEntity
  8
0
  6
HIDDEN
 62
     7
370
    18
100
AcDbPolyline
 90
       20
 70
   128
 43
0.0
 10
502.1434559673
 20
351.5803159568
 10
502.1193459302
 20
351.258238884
 10
502.0476734777
 20
350.9727840905
 10
501.9303936477
 20
350.731738039
 10
501.7707055281
 20
350.5416758373
 10
501.5729649945
 20
350.4077818869
 10
501.3425658932
 20
350.3337084657
 10
501.0857929112
 20
350.3214761035
 10
500.8096501459
 20
350.3714184673
 10
500.5216700522
 20
350.4821732596
 10
500.2297079764
 20
350.6507193784
 10
499.9417278827
 20
350.8724593249
 10
499.6655851175
 20
351.1413446114
 10
499.4088121354
 20
351.4500407483
 10
499.1784130342
 20
351.7901273095
 10
498.9806725006
 20
352.1523276204
 10
498.8209843809
 20
352.5267618005
 10
498.7037045509
 20
352.9032162616
 10
498.6320320985
 20
353.2714223072
 10
498.6079220614
 20
353.6213362364
  0
LWPOLYLINE
  5
A7
330
1F
100
AcDbEntity
  8
0
  6
HIDDEN
 62
     7
370
    18
100
AcDbPolyline
 90
       20
 70
   128
 43
0.0
 10
509.2145237792
 20
355.6623565159
 10
509.190413742
 20
355.3402794431
 10
509.1187412896
 20
355.0548246497
 10
509.0014614596
 20
354.8137785981
 10
508.8417733399
 20
354.6237163964
 10
508.6440328064
 20
354.489822446
 10
508.4136337051
 20
354.4157490248
 10
508.156860723
 20
354.4035166626
 10
507.8807179578
 20
354.4534590264
 10
507.5927378641
 20
354.5642138187
 10
507.3007757883
 20
354.7327599375
 10
507.0127956946
 20
354.954499884
 10
506.7366529293
 20
355.2233851705
 10
506.4798799473
 20
355.5320813074
 10
506.249480846
 20
355.8721678687
 10
506.0517403124
 20
356.2343681795
 10
505.8920521928
 20
356.6088023597
 10
505.7747723628
 20
356.9852568207
 10
505.7030999103
 20
357.3534628664
 10
505.6789898732
 20
357.7033767955
  0
LINE
  5
A8
330
1F
100
AcDbEntity
  8
0
  6
HIDDEN
 62
     7
370
    18
100
AcDbLine
 10
481.5056313292
 20
361.1770259226
 30
0.0
 11
481.5056313292
 21
381.5905462197
 31
0.0
  0
LINE
  5
A9
330
1F
100
AcDbEntity
  8
0
  6
HIDDEN
 62
     7
370
    18
100
AcDbLine
 10
465.5056313292
 20
381.5905462197
 30
0.0
 11
465.5056313292
 21
361.1770259226
 31
0.0
  0
LINE
  5
AA
330
1F
100
AcDbEntity
  8
0
  6
HIDDEN
 62
     7
370
    18
100
AcDbLine
 10
506.2543686708
 20
375.4641678795
 30
0.0
 11
506.2543686708
 21
395.8776881766
 31
0.0
  0
LINE
  5
AB
330
1F
100
AcDbEntity
  8
0
  6
HIDDEN
 62
     7
370
    18
100
AcDbLine
 10
490.2543686708
 20
395.8776881766
 30
0.0
 11
490.2543686708
 21
375.4641678795
 31
0.0
  0
LINE
  5
AC
330
1F
100
AcDbEntity
  8
0
  6
HIDDEN
 62
     7
370
    18
100
AcDbLine
 10
506.1968584104
 20
358.8479888116
 30
0.0
 11
499.1257905985
 21
354.7659482525
 31
0.0
  0
LINE
  5
AD
330
1F
100
AcDbEntity
  8
0
  6
HIDDEN
 62
     7
370
    18
100
AcDbLine
 10
501.6255874301
 20
350.4357039406
 30
0.0
 11
508.696655242
 21
354.5177444997
 31
0.0
  0
ENDSEC
  0
SECTION
  2
OBJECTS
  0
DICTIONARY
  5
C
330
0
100
AcDbDictionary
281
     1
  3
ACAD_GROUP
350
D
  3
ACAD_LAYOUT
350
1A
  3
ACAD_MLINESTYLE
350
17
  3
ACAD_PLOTSETTINGS
350
19
  3
ACAD_PLOTSTYLENAME
350
E
  3
ACAD_SCALELIST
350
47
  3
DWGPROPS
350
AE
  0
DICTIONARY
  5
D
102
{ACAD_REACTORS
330
C
102
}
330
C
100
AcDbDictionary
281
     1
  0
DICTIONARY
  5
1A
102
{ACAD_REACTORS
330
C
102
}
330
C
100
AcDbDictionary
281
     1
  3
Layout1
350
1E
  3
Layout2
350
26
  3
Model
350
22
  0
DICTIONARY
  5
17
102
{ACAD_REACTORS
330
C
102
}
330
C
100
AcDbDictionary
281
     1
  3
Standard
350
18
  0
DICTIONARY
  5
19
102
{ACAD_REACTORS
330
C
102
}
330
C
100
AcDbDictionary
281
     1
  0
ACDBDICTIONARYWDFLT
  5
E
102
{ACAD_REACTORS
330
C
102
}
330
C
100
AcDbDictionary
281
     1
  3
Normal
350
F
100
AcDbDictionaryWithDefault
340
F
  0
DICTIONARY
  5
47
102
{ACAD_REACTORS
330
C
102
}
330
C
100
AcDbDictionary
281
     1
  3
A0
350
48
  3
A1
350
49
  3
A2
350
4A
  3
A3
350
4B
  3
A4
350
4C
  3
A5
350
4D
  3
A6
350
4E
  3
A7
350
4F
  3
A8
350
50
  3
A9
350
51
  3
B0
350
52
  3
B1
350
53
  3
B2
350
54
  3
B3
350
55
  3
B4
350
56
  3
B5
350
57
  3
B6
350
58
  0
XRECORD
  5
AE
102
{ACAD_REACTORS
330
C
102
}
330
C
100
AcDbXrecord
280
     1
  1
DWGPROPS COOKIE
  2

  3

  4

  6

  7

  8
imaizumi
  9

300
=
301
=
302
=
303
=
304
=
305
=
306
=
307
=
308
=
309
=
 40
0.0
 41
2461263.064891181
 42
2461263.064891563
  1

 90
        0
  0
LAYOUT
  5
1E
102
{ACAD_REACTORS
330
1A
102
}
330
1A
100
AcDbPlotSettings
  1

  2
none_device
  4

  6

 40
0.0
 41
0.0
 42
0.0
 43
0.0
 44
0.0
 45
0.0
 46
0.0
 47
0.0
 48
0.0
 49
0.0
140
0.0
141
0.0
142
1.0
143
1.0
 70
   688
 72
     1
 73
     0
 74
     5
  7

 75
    16
147
1.0
148
0.0
149
0.0
100
AcDbLayout
  1
Layout1
 70
     1
 71
     1
 10
0.0
 20
0.0
 11
420.0
 21
297.0
 12
0.0
 22
0.0
 32
0.0
 14
1.0000000000E+20
 24
1.0000000000E+20
 34
1.0000000000E+20
 15
-1.0000000000E+20
 25
-1.0000000000E+20
 35
-1.0000000000E+20
146
0.0
 13
0.0
 23
0.0
 33
0.0
 16
1.0
 26
0.0
 36
0.0
 17
0.0
 27
1.0
 37
0.0
 76
     0
330
1B
  0
LAYOUT
  5
26
102
{ACAD_REACTORS
330
1A
102
}
330
1A
100
AcDbPlotSettings
  1

  2
none_device
  4

  6

 40
0.0
 41
0.0
 42
0.0
 43
0.0
 44
0.0
 45
0.0
 46
0.0
 47
0.0
 48
0.0
 49
0.0
140
0.0
141
0.0
142
1.0
143
1.0
 70
   688
 72
     1
 73
     0
 74
     5
  7

 75
    16
147
1.0
148
0.0
149
0.0
100
AcDbLayout
  1
Layout2
 70
     1
 71
     2
 10
0.0
 20
0.0
 11
0.0
 21
0.0
 12
0.0
 22
0.0
 32
0.0
 14
0.0
 24
0.0
 34
0.0
 15
0.0
 25
0.0
 35
0.0
146
0.0
 13
0.0
 23
0.0
 33
0.0
 16
1.0
 26
0.0
 36
0.0
 17
0.0
 27
1.0
 37
0.0
 76
     0
330
23
  0
LAYOUT
  5
22
102
{ACAD_REACTORS
330
1A
102
}
330
1A
100
AcDbPlotSettings
  1

  2
none_device
  4
Letter_(8.50_x_11.00_Inches)
  6

 40
6.35
 41
6.35
 42
6.35000508
 43
6.35000508
 44
215.9
 45
279.4
 46
0.0
 47
0.0
 48
0.0
 49
0.0
140
0.0
141
0.0
142
1.0
143
1.0
 70
  1712
 72
     1
 73
     0
 74
     0
  7

 75
     0
147
1.0
148
0.0
149
0.0
100
AcDbLayout
  1
Model
 70
     1
 71
     0
 10
0.0
 20
0.0
 11
841.0
 21
594.0
 12
0.0
 22
0.0
 32
0.0
 14
0.0
 24
0.0
 34
0.0
 15
841.0
 25
594.0
 35
0.0
146
0.0
 13
0.0
 23
0.0
 33
0.0
 16
1.0
 26
0.0
 36
0.0
 17
0.0
 27
1.0
 37
0.0
 76
     0
330
1F
331
29
  0
MLINESTYLE
  5
18
102
{ACAD_REACTORS
330
17
102
}
330
17
100
AcDbMlineStyle
  2
Standard
 70
     0
  3

 62
   256
 51
90.0
 52
90.0
 71
     2
 49
0.5
 62
   256
  6
BYLAYER
 49
-0.5
 62
   256
  6
BYLAYER
  0
ACDBPLACEHOLDER
  5
F
102
{ACAD_REACTORS
330
E
102
}
330
E
  0
SCALE
  5
48
102
{ACAD_REACTORS
330
47
102
}
330
47
100
AcDbScale
 70
     0
300
1:1
140
1.0
141
1.0
290
     1
  0
SCALE
  5
49
102
{ACAD_REACTORS
330
47
102
}
330
47
100
AcDbScale
 70
     0
300
1:2
140
1.0
141
2.0
290
     0
  0
SCALE
  5
4A
102
{ACAD_REACTORS
330
47
102
}
330
47
100
AcDbScale
 70
     0
300
1:4
140
1.0
141
4.0
290
     0
  0
SCALE
  5
4B
102
{ACAD_REACTORS
330
47
102
}
330
47
100
AcDbScale
 70
     0
300
1:5
140
1.0
141
5.0
290
     0
  0
SCALE
  5
4C
102
{ACAD_REACTORS
330
47
102
}
330
47
100
AcDbScale
 70
     0
300
1:8
140
1.0
141
8.0
290
     0
  0
SCALE
  5
4D
102
{ACAD_REACTORS
330
47
102
}
330
47
100
AcDbScale
 70
     0
300
1:10
140
1.0
141
10.0
290
     0
  0
SCALE
  5
4E
102
{ACAD_REACTORS
330
47
102
}
330
47
100
AcDbScale
 70
     0
300
1:16
140
1.0
141
16.0
290
     0
  0
SCALE
  5
4F
102
{ACAD_REACTORS
330
47
102
}
330
47
100
AcDbScale
 70
     0
300
1:20
140
1.0
141
20.0
290
     0
  0
SCALE
  5
50
102
{ACAD_REACTORS
330
47
102
}
330
47
100
AcDbScale
 70
     0
300
1:30
140
1.0
141
30.0
290
     0
  0
SCALE
  5
51
102
{ACAD_REACTORS
330
47
102
}
330
47
100
AcDbScale
 70
     0
300
1:40
140
1.0
141
40.0
290
     0
  0
SCALE
  5
52
102
{ACAD_REACTORS
330
47
102
}
330
47
100
AcDbScale
 70
     0
300
1:50
140
1.0
141
50.0
290
     0
  0
SCALE
  5
53
102
{ACAD_REACTORS
330
47
102
}
330
47
100
AcDbScale
 70
     0
300
1:100
140
1.0
141
100.0
290
     0
  0
SCALE
  5
54
102
{ACAD_REACTORS
330
47
102
}
330
47
100
AcDbScale
 70
     0
300
2:1
140
2.0
141
1.0
290
     0
  0
SCALE
  5
55
102
{ACAD_REACTORS
330
47
102
}
330
47
100
AcDbScale
 70
     0
300
4:1
140
4.0
141
1.0
290
     0
  0
SCALE
  5
56
102
{ACAD_REACTORS
330
47
102
}
330
47
100
AcDbScale
 70
     0
300
8:1
140
8.0
141
1.0
290
     0
  0
SCALE
  5
57
102
{ACAD_REACTORS
330
47
102
}
330
47
100
AcDbScale
 70
     0
300
10:1
140
10.0
141
1.0
290
     0
  0
SCALE
  5
58
102
{ACAD_REACTORS
330
47
102
}
330
47
100
AcDbScale
 70
     0
300
100:1
140
100.0
141
1.0
290
     0
  0
ENDSEC
  0
EOF
