  0
SECTION
  2
HEADER
  9
$ACADVER
  1
AC1015
  9
$ACADMAINTVER
 70
     6
  9
$DWGCODEPAGE
  3
DOS932
  9
$INSBASE
 10
0.0
 20
0.0
 30
0.0
  9
$EXTMIN
 10
0.0
 20
0.0
 30
0.0
  9
$EXTMAX
 10
841.0
 20
594.0
 30
0.0
  9
$LIMMIN
 10
0.0
 20
0.0
  9
$LIMMAX
 10
841.0
 20
594.0
  9
$ORTHOMODE
 70
     0
  9
$REGENMODE
 70
     1
  9
$FILLMODE
 70
     1
  9
$QTEXTMODE
 70
     0
  9
$MIRRTEXT
 70
     1
  9
$LTSCALE
 40
1.0
  9
$ATTMODE
 70
     1
  9
$TEXTSIZE
 40
3.5
  9
$TRACEWID
 40
1.0
  9
$TEXTSTYLE
  7
Standard
  9
$CLAYER
  8
0
  9
$CELTYPE
  6
ByLayer
  9
$CECOLOR
 62
   256
  9
$CELTSCALE
 40
1.0
  9
$DISPSILH
 70
     0
  9
$DIMSCALE
 40
1.0
  9
$DIMASZ
 40
3.302
  9
$DIMEXO
 40
1.0
  9
$DIMDLI
 40
3.75
  9
$DIMRND
 40
0.0
  9
$DIMDLE
 40
0.0
  9
$DIMEXE
 40
1.0
  9
$DIMTP
 40
0.0
  9
$DIMTM
 40
0.0
  9
$DIMTXT
 40
3.5
  9
$DIMCEN
 40
2.5
  9
$DIMTSZ
 40
0.0
  9
$DIMTOL
 70
     0
  9
$DIMLIM
 70
     0
  9
$DIMTIH
 70
     1
  9
$DIMTOH
 70
     1
  9
$DIMSE1
 70
     0
  9
$DIMSE2
 70
     0
  9
$DIMTAD
 70
     1
  9
$DIMZIN
 70
     1
  9
$DIMBLK
  1

  9
$DIMASO
 70
     1
  9
$DIMSHO
 70
     1
  9
$DIMPOST
  1

  9
$DIMAPOST
  1

  9
$DIMALT
 70
     0
  9
$DIMALTD
 70
     3
  9
$DIMALTF
 40
0.0393700787
  9
$DIMLFAC
 40
1.0
  9
$DIMTOFL
 70
     1
  9
$DIMTVP
 40
0.0
  9
$DIMTIX
 70
     0
  9
$DIMSOXD
 70
     0
  9
$DIMSAH
 70
     0
  9
$DIMBLK1
  1

  9
$DIMBLK2
  1

  9
$DIMSTYLE
  2
ISO-25
  9
$DIMCLRD
 70
     0
  9
$DIMCLRE
 70
     0
  9
$DIMCLRT
 70
     0
  9
$DIMTFAC
 40
1.0
  9
$DIMGAP
 40
1.524
  9
$DIMJUST
 70
     0
  9
$DIMSD1
 70
     0
  9
$DIMSD2
 70
     0
  9
$DIMTOLJ
 70
     0
  9
$DIMTZIN
 70
     1
  9
$DIMALTZ
 70
     0
  9
$DIMALTTZ
 70
     0
  9
$DIMUPT
 70
     0
  9
$DIMDEC
 70
     2
  9
$DIMTDEC
 70
     2
  9
$DIMALTU
 70
     2
  9
$DIMALTTD
 70
     3
  9
$DIMTXSTY
  7
Standard
  9
$DIMAUNIT
 70
     0
  9
$DIMADEC
 70
     2
  9
$DIMALTRND
 40
0.0
  9
$DIMAZIN
 70
     0
  9
$DIMDSEP
 70
    44
  9
$DIMATFIT
 70
     3
  9
$DIMFRAC
 70
     0
  9
$DIMLDRBLK
  1

  9
$DIMLUNIT
 70
     2
  9
$DIMLWD
 70
    -2
  9
$DIMLWE
 70
    -2
  9
$DIMTMOVE
 70
     0
  9
$LUNITS
 70
     2
  9
$LUPREC
 70
     2
  9
$SKETCHINC
 40
1.0
  9
$FILLETRAD
 40
0.0
  9
$AUNITS
 70
     0
  9
$AUPREC
 70
     2
  9
$MENU
  1
.
  9
$ELEVATION
 40
0.0
  9
$PELEVATION
 40
0.0
  9
$THICKNESS
 40
0.0
  9
$LIMCHECK
 70
     0
  9
$CHAMFERA
 40
0.0
  9
$CHAMFERB
 40
0.0
  9
$CHAMFERC
 40
0.0
  9
$CHAMFERD
 40
0.0
  9
$SKPOLY
 70
     0
  9
$TDCREATE
 40
2461263.441424734
  9
$TDUCREATE
 40
2461263.066424734
  9
$TDUPDATE
 40
2461263.441425567
  9
$TDUUPDATE
 40
2461263.066425567
  9
$TDINDWG
 40
0.0000000116
  9
$TDUSRTIMER
 40
0.0000000116
  9
$USRTIMER
 70
     1
  9
$ANGBASE
 50
0.0
  9
$ANGDIR
 70
     0
  9
$PDMODE
 70
     0
  9
$PDSIZE
 40
-1.0
  9
$PLINEWID
 40
0.0
  9
$SPLFRAME
 70
     0
  9
$SPLINETYPE
 70
     6
  9
$SPLINESEGS
 70
     8
  9
$HANDSEED
  5
F7
  9
$SURFTAB1
 70
     6
  9
$SURFTAB2
 70
     6
  9
$SURFTYPE
 70
     6
  9
$SURFU
 70
     6
  9
$SURFV
 70
     6
  9
$UCSBASE
  2

  9
$UCSNAME
  2

  9
$UCSORG
 10
0.0
 20
0.0
 30
0.0
  9
$UCSXDIR
 10
1.0
 20
0.0
 30
0.0
  9
$UCSYDIR
 10
0.0
 20
1.0
 30
0.0
  9
$UCSORTHOREF
  2

  9
$UCSORTHOVIEW
 70
     0
  9
$UCSORGTOP
 10
0.0
 20
0.0
 30
0.0
  9
$UCSORGBOTTOM
 10
0.0
 20
0.0
 30
0.0
  9
$UCSORGLEFT
 10
0.0
 20
0.0
 30
0.0
  9
$UCSORGRIGHT
 10
0.0
 20
0.0
 30
0.0
  9
$UCSORGFRONT
 10
0.0
 20
0.0
 30
0.0
  9
$UCSORGBACK
 10
0.0
 20
0.0
 30
0.0
  9
$PUCSBASE
  2

  9
$PUCSNAME
  2

  9
$PUCSORG
 10
0.0
 20
0.0
 30
0.0
  9
$PUCSXDIR
 10
1.0
 20
0.0
 30
0.0
  9
$PUCSYDIR
 10
0.0
 20
1.0
 30
0.0
  9
$PUCSORTHOREF
  2

  9
$PUCSORTHOVIEW
 70
     0
  9
$PUCSORGTOP
 10
0.0
 20
0.0
 30
0.0
  9
$PUCSORGBOTTOM
 10
0.0
 20
0.0
 30
0.0
  9
$PUCSORGLEFT
 10
0.0
 20
0.0
 30
0.0
  9
$PUCSORGRIGHT
 10
0.0
 20
0.0
 30
0.0
  9
$PUCSORGFRONT
 10
0.0
 20
0.0
 30
0.0
  9
$PUCSORGBACK
 10
0.0
 20
0.0
 30
0.0
  9
$USERI1
 70
     0
  9
$USERI2
 70
     0
  9
$USERI3
 70
     0
  9
$USERI4
 70
     0
  9
$USERI5
 70
     0
  9
$USERR1
 40
0.0
  9
$USERR2
 40
0.0
  9
$USERR3
 40
0.0
  9
$USERR4
 40
0.0
  9
$USERR5
 40
0.0
  9
$WORLDVIEW
 70
     1
  9
$SHADEDGE
 70
     3
  9
$SHADEDIF
 70
    70
  9
$TILEMODE
 70
     1
  9
$MAXACTVP
 70
    64
  9
$PINSBASE
 10
0.0
 20
0.0
 30
0.0
  9
$PLIMCHECK
 70
     0
  9
$PEXTMIN
 10
1.0000000000E+20
 20
1.0000000000E+20
 30
1.0000000000E+20
  9
$PEXTMAX
 10
-1.0000000000E+20
 20
-1.0000000000E+20
 30
-1.0000000000E+20
  9
$PLIMMIN
 10
0.0
 20
0.0
  9
$PLIMMAX
 10
420.0
 20
297.0
  9
$UNITMODE
 70
     0
  9
$VISRETAIN
 70
     1
  9
$PLINEGEN
 70
     0
  9
$PSLTSCALE
 70
     1
  9
$TREEDEPTH
 70
  3020
  9
$CMLSTYLE
  2
Standard
  9
$CMLJUST
 70
     0
  9
$CMLSCALE
 40
20.0
  9
$PROXYGRAPHICS
 70
     1
  9
$MEASUREMENT
 70
     1
  9
$CELWEIGHT
370
    -1
  9
$ENDCAPS
280
     0
  9
$JOINSTYLE
280
     0
  9
$LWDISPLAY
290
     1
  9
$INSUNITS
 70
     4
  9
$HYPERLINKBASE
  1

  9
$STYLESHEET
  1

  9
$XEDIT
290
     1
  9
$CEPSNTYPE
380
     0
  9
$PSTYLEMODE
290
     1
  9
$FINGERPRINTGUID
  2
{e977022b-d501-47b7-96ec-bf4b974b5581}
  9
$VERSIONGUID
  2
{FAEB1C32-E019-11D5-929B-00C0DF256EC4}
  9
$EXTNAMES
290
     1
  9
$PSVPSCALE
 40
0.0
  9
$OLESTARTUP
290
     0
  0
ENDSEC
  0
SECTION
  2
CLASSES
  0
CLASS
  1
ACDBDICTIONARYWDFLT
  2
AcDbDictionaryWithDefault
  3
ObjectDBX Classes
 90
        0
280
     0
281
     0
  0
CLASS
  1
VISUALSTYLE
  2
AcDbVisualStyle
  3
ObjectDBX Classes
 90
     4095
280
     0
281
     0
  0
CLASS
  1
MATERIAL
  2
AcDbMaterial
  3
ObjectDBX Classes
 90
     1153
280
     0
281
     0
  0
CLASS
  1
SCALE
  2
AcDbScale
  3
ObjectDBX Classes
 90
     1153
280
     0
281
     0
  0
CLASS
  1
TABLESTYLE
  2
AcDbTableStyle
  3
ObjectDBX Classes
 90
     4095
280
     0
281
     0
  0
CLASS
  1
MLEADERSTYLE
  2
AcDbMLeaderStyle
  3
ACDB_MLEADERSTYLE_CLASS
 90
     4095
280
     0
281
     0
  0
CLASS
  1
SUN
  2
AcDbSun
  3
SCENEOE
 90
     1153
280
     0
281
     0
  0
CLASS
  1
ACDBPLACEHOLDER
  2
AcDbPlaceHolder
  3
ObjectDBX Classes
 90
        0
280
     0
281
     0
  0
CLASS
  1
LAYOUT
  2
AcDbLayout
  3
ObjectDBX Classes
 90
        0
280
     0
281
     0
  0
ENDSEC
  0
SECTION
  2
TABLES
  0
TABLE
  2
VPORT
  5
8
330
0
100
AcDbSymbolTable
 70
     1
  0
VPORT
  5
29
330
8
100
AcDbSymbolTableRecord
100
AcDbViewportTableRecord
  2
*Active
 70
     0
 10
0.0
 20
0.0
 11
1.0
 21
1.0
 12
420.5
 22
297.0
 13
0.0
 23
0.0
 14
10.0
 24
10.0
 15
10.0
 25
10.0
 16
0.0
 26
0.0
 36
1.0
 17
0.0
 27
0.0
 37
0.0
 40
594.0
 41
1.4158249158
 42
50.0
 43
0.0
 44
0.0
 50
0.0
 51
0.0
 71
     0
 72
  2000
 73
     1
 74
     3
 75
     0
 76
     0
 77
     0
 78
     0
281
     0
 65
     1
110
0.0
120
0.0
130
0.0
111
1.0
121
0.0
131
0.0
112
0.0
122
1.0
132
0.0
 79
     0
146
0.0
  0
ENDTAB
  0
TABLE
  2
LTYPE
  5
5
330
0
100
AcDbSymbolTable
 70
     6
  0
LTYPE
  5
14
330
5
100
AcDbSymbolTableRecord
100
AcDbLinetypeTableRecord
  2
ByBlock
 70
     0
  3

 72
    65
 73
     0
 40
0.0
  0
LTYPE
  5
15
330
5
100
AcDbSymbolTableRecord
100
AcDbLinetypeTableRecord
  2
ByLayer
 70
     0
  3

 72
    65
 73
     0
 40
0.0
  0
LTYPE
  5
16
330
5
100
AcDbSymbolTableRecord
100
AcDbLinetypeTableRecord
  2
Continuous
 70
     0
  3
Solid line
 72
    65
 73
     0
 40
0.0
  0
LTYPE
  5
5E
330
5
100
AcDbSymbolTableRecord
100
AcDbLinetypeTableRecord
  2
HIDDEN
 70
     0
  3
Hidden __ __ __ __ __ __ __ __ __ __ __ __ __ __
 72
    65
 73
     2
 40
1.905
 49
1.27
 74
     0
 49
-0.635
 74
     0
  0
LTYPE
  5
5F
330
5
100
AcDbSymbolTableRecord
100
AcDbLinetypeTableRecord
  2
PHANTOM
 70
     0
  3
Phantom ______  __  __  ______  __  __  ______
 72
    65
 73
     6
 40
12.7
 49
6.35
 74
     0
 49
-1.27
 74
     0
 49
1.27
 74
     0
 49
-1.27
 74
     0
 49
1.27
 74
     0
 49
-1.27
 74
     0
  0
LTYPE
  5
60
330
5
100
AcDbSymbolTableRecord
100
AcDbLinetypeTableRecord
  2
CENTER
 70
     0
  3
Center ____ _ ____ _ ____ _ ____ _ ____ _ ____
 72
    65
 73
     4
 40
10.16
 49
6.35
 74
     0
 49
-1.27
 74
     0
 49
1.27
 74
     0
 49
-1.27
 74
     0
  0
LTYPE
  5
61
330
5
100
AcDbSymbolTableRecord
100
AcDbLinetypeTableRecord
  2
CENTERX2
 70
     0
  3
Center (2x) ________  __  ________  __  _____
 72
    65
 73
     4
 40
20.32
 49
12.7
 74
     0
 49
-2.54
 74
     0
 49
2.54
 74
     0
 49
-2.54
 74
     0
  0
LTYPE
  5
62
330
5
100
AcDbSymbolTableRecord
100
AcDbLinetypeTableRecord
  2
DOT2
 70
     0
  3
Dot (.5x) ........................................
 72
    65
 73
     2
 40
0.635
 49
0.0
 74
     0
 49
-0.635
 74
     0
  0
ENDTAB
  0
TABLE
  2
LAYER
  5
2
330
0
100
AcDbSymbolTable
 70
     1
  0
LAYER
  5
10
330
2
100
AcDbSymbolTableRecord
100
AcDbLayerTableRecord
  2
0
 70
     0
 62
     7
  6
Continuous
370
    -3
390
F
  0
ENDTAB
  0
TABLE
  2
STYLE
  5
3
330
0
100
AcDbSymbolTable
 70
     1
  0
STYLE
  5
11
330
3
100
AcDbSymbolTableRecord
100
AcDbTextStyleTableRecord
  2
Standard
 70
     0
 40
0.0
 41
1.0
 50
0.0
 71
     0
 42
3.5
  3
txt
  4
bigfont
  0
ENDTAB
  0
TABLE
  2
VIEW
  5
6
330
0
100
AcDbSymbolTable
 70
     0
  0
ENDTAB
  0
TABLE
  2
UCS
  5
7
330
0
100
AcDbSymbolTable
 70
     0
  0
ENDTAB
  0
TABLE
  2
APPID
  5
9
330
0
100
AcDbSymbolTable
 70
     1
  0
APPID
  5
12
330
9
100
AcDbSymbolTableRecord
100
AcDbRegAppTableRecord
  2
ACAD
 70
     0
  0
ENDTAB
  0
TABLE
  2
DIMSTYLE
  5
A
330
0
100
AcDbSymbolTable
 70
     1
100
AcDbDimStyleTable
  0
DIMSTYLE
105
27
330
A
100
AcDbSymbolTableRecord
100
AcDbDimStyleTableRecord
  2
ISO-25
 70
     0
 41
2.5
 42
0.625
 43
3.75
 44
1.25
 73
     0
 74
     0
 77
     1
 78
     8
140
2.5
141
2.5
143
0.0393700787
147
0.625
171
     3
172
     1
178
     0
271
     2
272
     2
274
     3
278
    44
283
     0
284
     8
340
11
  0
ENDTAB
  0
TABLE
  2
BLOCK_RECORD
  5
1
330
0
100
AcDbSymbolTable
 70
     1
  0
BLOCK_RECORD
  5
1F
330
1
100
AcDbSymbolTableRecord
100
AcDbBlockTableRecord
  2
*Model_Space
340
22
  0
BLOCK_RECORD
  5
1B
330
1
100
AcDbSymbolTableRecord
100
AcDbBlockTableRecord
  2
*Paper_Space
340
1E
  0
BLOCK_RECORD
  5
23
330
1
100
AcDbSymbolTableRecord
100
AcDbBlockTableRecord
  2
*Paper_Space0
340
26
  0
ENDTAB
  0
ENDSEC
  0
SECTION
  2
BLOCKS
  0
BLOCK
  5
20
330
1F
100
AcDbEntity
  8
0
100
AcDbBlockBegin
  2
*Model_Space
 70
     0
 10
0.0
 20
0.0
 30
0.0
  3
*Model_Space
  1

  0
ENDBLK
  5
21
330
1F
100
AcDbEntity
  8
0
100
AcDbBlockEnd
  0
BLOCK
  5
1C
330
1B
100
AcDbEntity
 67
     1
  8
0
100
AcDbBlockBegin
  2
*Paper_Space
 70
     0
 10
0.0
 20
0.0
 30
0.0
  3
*Paper_Space
  1

  0
ENDBLK
  5
1D
330
1B
100
AcDbEntity
 67
     1
  8
0
100
AcDbBlockEnd
  0
BLOCK
  5
24
330
23
100
AcDbEntity
  8
0
100
AcDbBlockBegin
  2
*Paper_Space0
 70
     0
 10
0.0
 20
0.0
 30
0.0
  3
*Paper_Space0
  1

  0
ENDBLK
  5
25
330
23
100
AcDbEntity
  8
0
100
AcDbBlockEnd
  0
ENDSEC
  0
SECTION
  2
ENTITIES
  0
LINE
  5
63
330
1F
100
AcDbEntity
  8
0
  6
Continuous
 62
     7
370
    25
100
AcDbLine
 10
411.589516728
 20
74.2763307043
 30
0.0
 11
416.089516728
 21
74.2763307043
 31
0.0
  0
LINE
  5
64
330
1F
100
AcDbEntity
  8
0
  6
Continuous
 62
     7
370
    25
100
AcDbLine
 10
416.089516728
 20
74.2763307043
 30
0.0
 11
416.089516728
 21
69.2763307043
 31
0.0
  0
LINE
  5
65
330
1F
100
AcDbEntity
  8
0
  6
Continuous
 62
     7
370
    25
100
AcDbLine
 10
411.589516728
 20
69.2763307043
 30
0.0
 11
411.589516728
 21
74.2763307043
 31
0.0
  0
LINE
  5
66
330
1F
100
AcDbEntity
  8
0
  6
Continuous
 62
     7
370
    25
100
AcDbLine
 10
416.089516728
 20
29.2763307043
 30
0.0
 11
416.089516728
 21
24.2763307043
 31
0.0
  0
LINE
  5
67
330
1F
100
AcDbEntity
  8
0
  6
Continuous
 62
     7
370
    25
100
AcDbLine
 10
416.089516728
 20
24.2763307043
 30
0.0
 11
411.589516728
 21
24.2763307043
 31
0.0
  0
LINE
  5
68
330
1F
100
AcDbEntity
  8
0
  6
Continuous
 62
     7
370
    25
100
AcDbLine
 10
411.589516728
 20
24.2763307043
 30
0.0
 11
411.589516728
 21
29.2763307043
 31
0.0
  0
LINE
  5
69
330
1F
100
AcDbEntity
  8
0
  6
Continuous
 62
     7
370
    25
100
AcDbLine
 10
416.089516728
 20
69.2763307043
 30
0.0
 11
416.089516728
 21
29.2763307043
 31
0.0
  0
LINE
  5
6A
330
1F
100
AcDbEntity
  8
0
  6
Continuous
 62
     7
370
    25
100
AcDbLine
 10
411.589516728
 20
69.2763307043
 30
0.0
 11
411.589516728
 21
29.2763307043
 31
0.0
  0
LINE
  5
6B
330
1F
100
AcDbEntity
  8
0
  6
Continuous
 62
     7
370
    25
100
AcDbLine
 10
156.089516728
 20
224.2763307043
 30
0.0
 11
206.089516728
 21
224.2763307043
 31
0.0
  0
ARC
  5
6C
330
1F
100
AcDbEntity
  8
0
  6
Continuous
 62
     7
370
    25
100
AcDbCircle
 10
166.089516728
 20
34.2763307043
 30
0.0
 40
10.0
100
AcDbArc
 50
180.0
 51
270.0
  0
ARC
  5
6D
330
1F
100
AcDbEntity
  8
0
  6
Continuous
 62
     7
370
    25
100
AcDbCircle
 10
196.289516728
 20
31.2763307043
 30
0.0
 40
2.5
100
AcDbArc
 50
180.0
 51
0.0
  0
ARC
  5
6E
330
1F
100
AcDbEntity
  8
0
  6
Continuous
 62
     7
370
    25
100
AcDbCircle
 10
166.089516728
 20
89.9763307043
 30
0.0
 40
2.5
100
AcDbArc
 50
180.0
 51
0.0
  0
ARC
  5
6F
330
1F
100
AcDbEntity
  8
0
  6
Continuous
 62
     7
370
    25
100
AcDbCircle
 10
196.289516728
 20
160.4763307043
 30
0.0
 40
2.5
100
AcDbArc
 50
180.0
 51
0.0
  0
ARC
  5
70
330
1F
100
AcDbEntity
  8
0
  6
Continuous
 62
     7
370
    25
100
AcDbCircle
 10
166.089516728
 20
219.1763307043
 30
0.0
 40
2.5
100
AcDbArc
 50
180.0
 51
0.0
  0
ARC
  5
71
330
1F
100
AcDbEntity
  8
0
  6
Continuous
 62
     7
370
    25
100
AcDbCircle
 10
166.089516728
 20
219.1763307043
 30
0.0
 40
2.5
100
AcDbArc
 50
0.0
 51
180.0
  0
ARC
  5
72
330
1F
100
AcDbEntity
  8
0
  6
Continuous
 62
     7
370
    25
100
AcDbCircle
 10
166.089516728
 20
89.9763307043
 30
0.0
 40
2.5
100
AcDbArc
 50
0.0
 51
180.0
  0
LINE
  5
73
330
1F
100
AcDbEntity
  8
0
  6
Continuous
 62
     7
370
    25
100
AcDbLine
 10
156.089516728
 20
224.2763307043
 30
0.0
 11
156.089516728
 21
34.2763307043
 31
0.0
  0
ARC
  5
74
330
1F
100
AcDbEntity
  8
0
  6
Continuous
 62
     7
370
    25
100
AcDbCircle
 10
196.289516728
 20
31.2763307043
 30
0.0
 40
2.5
100
AcDbArc
 50
0.0
 51
180.0
  0
ARC
  5
75
330
1F
100
AcDbEntity
  8
0
  6
Continuous
 62
     7
370
    25
100
AcDbCircle
 10
216.089516728
 20
84.2763307043
 30
0.0
 40
10.00000000000003
100
AcDbArc
 50
180.0
 51
270.0
  0
LINE
  5
76
330
1F
100
AcDbEntity
  8
0
  6
Continuous
 62
     7
370
    25
100
AcDbLine
 10
206.089516728
 20
224.2763307043
 30
0.0
 11
206.089516728
 21
84.2763307043
 31
0.0
  0
ARC
  5
77
330
1F
100
AcDbEntity
  8
0
  6
Continuous
 62
     7
370
    25
100
AcDbCircle
 10
196.289516728
 20
160.4763307043
 30
0.0
 40
2.5
100
AcDbArc
 50
0.0
 51
180.0
  0
LINE
  5
78
330
1F
100
AcDbEntity
  8
0
  6
Continuous
 62
     7
370
    25
100
AcDbLine
 10
166.089516728
 20
24.2763307043
 30
0.0
 11
411.589516728
 21
24.2763307043
 31
0.0
  0
LINE
  5
79
330
1F
100
AcDbEntity
  8
0
  6
Continuous
 62
     7
370
    25
100
AcDbLine
 10
216.089516728
 20
74.2763307043
 30
0.0
 11
411.589516728
 21
74.2763307043
 31
0.0
  0
LINE
  5
7A
330
1F
100
AcDbEntity
  8
0
  6
HIDDEN
 62
     7
370
    18
100
AcDbLine
 10
411.589516728
 20
29.2763307043
 30
0.0
 11
416.089516728
 21
29.2763307043
 31
0.0
  0
LINE
  5
7B
330
1F
100
AcDbEntity
  8
0
  6
HIDDEN
 62
     7
370
    18
100
AcDbLine
 10
416.089516728
 20
39.2763307043
 30
0.0
 11
411.589516728
 21
39.2763307043
 31
0.0
  0
LINE
  5
7C
330
1F
100
AcDbEntity
  8
0
  6
HIDDEN
 62
     7
370
    18
100
AcDbLine
 10
416.089516728
 20
69.2763307043
 30
0.0
 11
411.589516728
 21
69.2763307043
 31
0.0
  0
LINE
  5
7D
330
1F
100
AcDbEntity
  8
0
  6
HIDDEN
 62
     7
370
    18
100
AcDbLine
 10
411.589516728
 20
59.2763307043
 30
0.0
 11
416.089516728
 21
59.2763307043
 31
0.0
  0
LINE
  5
7E
330
1F
100
AcDbEntity
  8
0
  6
Continuous
 62
     7
370
    25
100
AcDbLine
 10
156.089516728
 20
439.38
 30
0.0
 11
206.089516728
 21
439.38
 31
0.0
  0
LINE
  5
7F
330
1F
100
AcDbEntity
  8
0
  6
Continuous
 62
     7
370
    25
100
AcDbLine
 10
156.089516728
 20
443.88
 30
0.0
 11
156.089516728
 21
439.38
 31
0.0
  0
LINE
  5
80
330
1F
100
AcDbEntity
  8
0
  6
Continuous
 62
     7
370
    25
100
AcDbLine
 10
206.089516728
 20
443.88
 30
0.0
 11
156.089516728
 21
443.88
 31
0.0
  0
LINE
  5
81
330
1F
100
AcDbEntity
  8
0
  6
Continuous
 62
     7
370
    25
100
AcDbLine
 10
206.089516728
 20
443.88
 30
0.0
 11
206.089516728
 21
439.38
 31
0.0
  0
LINE
  5
82
330
1F
100
AcDbEntity
  8
0
  6
Continuous
 62
     7
370
    25
100
AcDbLine
 10
206.089516728
 20
439.38
 30
0.0
 11
216.089516728
 21
439.38
 31
0.0
  0
LINE
  5
83
330
1F
100
AcDbEntity
  8
0
  6
Continuous
 62
     7
370
    25
100
AcDbLine
 10
216.089516728
 20
443.88
 30
0.0
 11
206.089516728
 21
443.88
 31
0.0
  0
ARC
  5
84
330
1F
100
AcDbEntity
  8
0
  6
Continuous
 62
     7
370
    25
100
AcDbCircle
 10
411.589516728
 20
439.38
 30
0.0
 40
4.5
100
AcDbArc
 50
0.0
 51
90.0
  0
LINE
  5
85
330
1F
100
AcDbEntity
  8
0
  6
Continuous
 62
     7
370
    25
100
AcDbLine
 10
416.089516728
 20
439.38
 30
0.0
 11
416.089516728
 21
418.88
 31
0.0
  0
LINE
  5
86
330
1F
100
AcDbEntity
  8
0
  6
Continuous
 62
     7
370
    25
100
AcDbLine
 10
411.589516728
 20
439.38
 30
0.0
 11
411.589516728
 21
418.88
 31
0.0
  0
LINE
  5
87
330
1F
100
AcDbEntity
  8
0
  6
Continuous
 62
     7
370
    25
100
AcDbLine
 10
216.089516728
 20
439.38
 30
0.0
 11
411.589516728
 21
439.38
 31
0.0
  0
LINE
  5
88
330
1F
100
AcDbEntity
  8
0
  6
Continuous
 62
     7
370
    25
100
AcDbLine
 10
411.589516728
 20
443.88
 30
0.0
 11
216.089516728
 21
443.88
 31
0.0
  0
LINE
  5
89
330
1F
100
AcDbEntity
  8
0
  6
Continuous
 62
     7
370
    25
100
AcDbLine
 10
416.089516728
 20
413.88
 30
0.0
 11
411.589516728
 21
413.88
 31
0.0
  0
LINE
  5
8A
330
1F
100
AcDbEntity
  8
0
  6
Continuous
 62
     7
370
    25
100
AcDbLine
 10
411.589516728
 20
413.88
 30
0.0
 11
411.589516728
 21
418.88
 31
0.0
  0
LINE
  5
8B
330
1F
100
AcDbEntity
  8
0
  6
Continuous
 62
     7
370
    25
100
AcDbLine
 10
416.089516728
 20
418.88
 30
0.0
 11
416.089516728
 21
413.88
 31
0.0
  0
LINE
  5
8C
330
1F
100
AcDbEntity
  8
0
  6
HIDDEN
 62
     7
370
    18
100
AcDbLine
 10
168.589516728
 20
443.88
 30
0.0
 11
168.589516728
 21
439.38
 31
0.0
  0
LINE
  5
8D
330
1F
100
AcDbEntity
  8
0
  6
HIDDEN
 62
     7
370
    18
100
AcDbLine
 10
163.589516728
 20
443.88
 30
0.0
 11
163.589516728
 21
439.38
 31
0.0
  0
LINE
  5
8E
330
1F
100
AcDbEntity
  8
0
  6
HIDDEN
 62
     7
370
    18
100
AcDbLine
 10
198.789516728
 20
443.88
 30
0.0
 11
198.789516728
 21
439.38
 31
0.0
  0
LINE
  5
8F
330
1F
100
AcDbEntity
  8
0
  6
HIDDEN
 62
     7
370
    18
100
AcDbLine
 10
193.789516728
 20
443.88
 30
0.0
 11
193.789516728
 21
439.38
 31
0.0
  0
LINE
  5
90
330
1F
100
AcDbEntity
  8
0
  6
HIDDEN
 62
     7
370
    18
100
AcDbLine
 10
416.089516728
 20
418.88
 30
0.0
 11
411.589516728
 21
418.88
 31
0.0
  0
LINE
  5
91
330
1F
100
AcDbEntity
  8
0
  6
HIDDEN
 62
     7
370
    18
100
AcDbLine
 10
416.089516728
 20
428.88
 30
0.0
 11
411.589516728
 21
428.88
 31
0.0
  0
ARC
  5
92
330
1F
100
AcDbEntity
  8
0
  6
Continuous
 62
     7
370
    25
100
AcDbCircle
 10
572.38
 20
69.2763307043
 30
0.0
 40
5.0
100
AcDbArc
 50
90.0
 51
180.0
  0
LINE
  5
93
330
1F
100
AcDbEntity
  8
0
  6
Continuous
 62
     7
370
    25
100
AcDbLine
 10
592.88
 20
74.2763307043
 30
0.0
 11
572.38
 21
74.2763307043
 31
0.0
  0
LINE
  5
94
330
1F
100
AcDbEntity
  8
0
  6
Continuous
 62
     7
370
    25
100
AcDbLine
 10
572.38
 20
24.2763307043
 30
0.0
 11
592.88
 21
24.2763307043
 31
0.0
  0
ARC
  5
95
330
1F
100
AcDbEntity
  8
0
  6
Continuous
 62
     7
370
    25
100
AcDbCircle
 10
572.38
 20
29.2763307043
 30
0.0
 40
5.000000000000004
100
AcDbArc
 50
180.0
 51
270.0
  0
LINE
  5
96
330
1F
100
AcDbEntity
  8
0
  6
Continuous
 62
     7
370
    25
100
AcDbLine
 10
567.38
 20
69.2763307043
 30
0.0
 11
567.38
 21
29.2763307043
 31
0.0
  0
ARC
  5
97
330
1F
100
AcDbEntity
  8
0
  6
Continuous
 62
     7
370
    25
100
AcDbCircle
 10
577.38
 20
64.2763307043
 30
0.0
 40
5.0
100
AcDbArc
 50
0.0
 51
180.0
  0
ARC
  5
98
330
1F
100
AcDbEntity
  8
0
  6
Continuous
 62
     7
370
    25
100
AcDbCircle
 10
577.38
 20
64.2763307043
 30
0.0
 40
5.0
100
AcDbArc
 50
180.0
 51
0.0
  0
ARC
  5
99
330
1F
100
AcDbEntity
  8
0
  6
Continuous
 62
     7
370
    25
100
AcDbCircle
 10
577.38
 20
34.2763307043
 30
0.0
 40
4.999999999999886
100
AcDbArc
 50
0.0
 51
180.0
  0
ARC
  5
9A
330
1F
100
AcDbEntity
  8
0
  6
Continuous
 62
     7
370
    25
100
AcDbCircle
 10
577.38
 20
34.2763307043
 30
0.0
 40
4.999999999999886
100
AcDbArc
 50
180.0
 51
0.0
  0
LINE
  5
9B
330
1F
100
AcDbEntity
  8
0
  6
Continuous
 62
     7
370
    25
100
AcDbLine
 10
597.38
 20
74.2763307043
 30
0.0
 11
597.38
 21
24.2763307043
 31
0.0
  0
LINE
  5
9C
330
1F
100
AcDbEntity
  8
0
  6
Continuous
 62
     7
370
    25
100
AcDbLine
 10
592.88
 20
24.2763307043
 30
0.0
 11
597.38
 21
24.2763307043
 31
0.0
  0
LINE
  5
9D
330
1F
100
AcDbEntity
  8
0
  6
Continuous
 62
     7
370
    25
100
AcDbLine
 10
592.88
 20
74.2763307043
 30
0.0
 11
597.38
 21
74.2763307043
 31
0.0
  0
LINE
  5
9E
330
1F
100
AcDbEntity
  8
0
  6
Continuous
 62
     7
370
    25
100
AcDbLine
 10
597.38
 20
74.2763307043
 30
0.0
 11
597.38
 21
84.2763307043
 31
0.0
  0
LINE
  5
9F
330
1F
100
AcDbEntity
  8
0
  6
Continuous
 62
     7
370
    25
100
AcDbLine
 10
592.88
 20
84.2763307043
 30
0.0
 11
592.88
 21
74.2763307043
 31
0.0
  0
LINE
  5
A0
330
1F
100
AcDbEntity
  8
0
  6
Continuous
 62
     7
370
    25
100
AcDbLine
 10
597.38
 20
224.2763307043
 30
0.0
 11
592.88
 21
224.2763307043
 31
0.0
  0
LINE
  5
A1
330
1F
100
AcDbEntity
  8
0
  6
Continuous
 62
     7
370
    25
100
AcDbLine
 10
597.38
 20
84.2763307043
 30
0.0
 11
597.38
 21
224.2763307043
 31
0.0
  0
LINE
  5
A2
330
1F
100
AcDbEntity
  8
0
  6
Continuous
 62
     7
370
    25
100
AcDbLine
 10
592.88
 20
224.2763307043
 30
0.0
 11
592.88
 21
84.2763307043
 31
0.0
  0
LINE
  5
A3
330
1F
100
AcDbEntity
  8
0
  6
HIDDEN
 62
     7
370
    18
100
AcDbLine
 10
592.88
 20
74.2763307043
 30
0.0
 11
592.88
 21
24.2763307043
 31
0.0
  0
LINE
  5
A4
330
1F
100
AcDbEntity
  8
0
  6
HIDDEN
 62
     7
370
    18
100
AcDbLine
 10
597.38
 20
33.7763307043
 30
0.0
 11
592.88
 21
33.7763307043
 31
0.0
  0
LINE
  5
A5
330
1F
100
AcDbEntity
  8
0
  6
HIDDEN
 62
     7
370
    18
100
AcDbLine
 10
592.88
 20
28.7763307043
 30
0.0
 11
597.38
 21
28.7763307043
 31
0.0
  0
LINE
  5
A6
330
1F
100
AcDbEntity
  8
0
  6
HIDDEN
 62
     7
370
    18
100
AcDbLine
 10
597.38
 20
162.9763307043
 30
0.0
 11
592.88
 21
162.9763307043
 31
0.0
  0
LINE
  5
A7
330
1F
100
AcDbEntity
  8
0
  6
HIDDEN
 62
     7
370
    18
100
AcDbLine
 10
592.88
 20
157.9763307043
 30
0.0
 11
597.38
 21
157.9763307043
 31
0.0
  0
LINE
  5
A8
330
1F
100
AcDbEntity
  8
0
  6
HIDDEN
 62
     7
370
    18
100
AcDbLine
 10
597.38
 20
92.4763307043
 30
0.0
 11
592.88
 21
92.4763307043
 31
0.0
  0
LINE
  5
A9
330
1F
100
AcDbEntity
  8
0
  6
HIDDEN
 62
     7
370
    18
100
AcDbLine
 10
592.88
 20
87.4763307043
 30
0.0
 11
597.38
 21
87.4763307043
 31
0.0
  0
LINE
  5
AA
330
1F
100
AcDbEntity
  8
0
  6
HIDDEN
 62
     7
370
    18
100
AcDbLine
 10
597.38
 20
221.6763307043
 30
0.0
 11
592.88
 21
221.6763307043
 31
0.0
  0
LINE
  5
AB
330
1F
100
AcDbEntity
  8
0
  6
HIDDEN
 62
     7
370
    18
100
AcDbLine
 10
592.88
 20
216.6763307043
 30
0.0
 11
597.38
 21
216.6763307043
 31
0.0
  0
LINE
  5
AC
330
1F
100
AcDbEntity
  8
0
  6
Continuous
 62
     7
370
    25
100
AcDbLine
 10
683.0465222414
 20
300.2824523816
 30
0.0
 11
683.0465222414
 21
341.1094929759
 31
0.0
  0
LINE
  5
AD
330
1F
100
AcDbEntity
  8
0
  6
Continuous
 62
     7
370
    25
100
AcDbLine
 10
661.5510363955
 20
291.666728983
 30
0.0
 11
664.7330169108
 21
289.8298107314
 31
0.0
  0
LINE
  5
AE
330
1F
100
AcDbEntity
  8
0
  6
Continuous
 62
     7
370
    25
100
AcDbLine
 10
497.8807396482
 20
567.8867510441
 30
0.0
 11
533.2360787075
 21
547.4765482486
 31
0.0
  0
LINE
  5
AF
330
1F
100
AcDbEntity
  8
0
  6
Continuous
 62
     7
370
    25
100
AcDbLine
 10
533.2360787075
 20
547.4765482486
 30
0.0
 11
533.2360787075
 21
433.1608345845
 31
0.0
  0
ARC
  5
B0
330
1F
100
AcDbEntity
  8
0
  6
Continuous
 62
     7
370
    25
100
AcDbCircle
 10
548.4786749
 20
433.7961858279
 30
0.0
 40
15.25583199594836
100
AcDbArc
 50
182.3868561234
 51
237.6131440222
  0
LINE
  5
B1
330
1F
100
AcDbEntity
  8
0
  6
Continuous
 62
     7
370
    25
100
AcDbLine
 10
540.3071465194
 20
420.9133859066
 30
0.0
 11
678.5465222414
 21
341.1094929759
 31
0.0
  0
LINE
  5
B2
330
1F
100
AcDbEntity
  8
0
  6
Continuous
 62
     7
370
    25
100
AcDbLine
 10
504.9518074601
 20
400.4965481079
 30
0.0
 11
660.5152993211
 21
310.6916558074
 31
0.0
  0
ARC
  5
B3
330
1F
100
AcDbEntity
  8
0
  6
Continuous
 62
     7
370
    25
100
AcDbCircle
 10
513.1233358407
 20
413.3793480292
 30
0.0
 40
15.25583199594762
100
AcDbArc
 50
182.3868561234
 51
237.6131440222
  0
LINE
  5
B4
330
1F
100
AcDbEntity
  8
0
  6
Continuous
 62
     7
370
    25
100
AcDbLine
 10
497.8807396482
 20
567.8867510441
 30
0.0
 11
497.8807396482
 21
412.7439967858
 31
0.0
  0
LWPOLYLINE
  5
B5
330
1F
100
AcDbEntity
  8
0
  6
Continuous
 62
     7
370
    25
100
AcDbPolyline
 90
       11
 70
   128
 43
0.0
 10
524.5386652989
 20
394.9050814423
 10
524.625185972
 20
394.2243216522
 10
524.8762787449
 20
393.5103047307
 10
525.2673649075
 20
392.832923629
 10
525.7601622213
 20
392.2584851287
 10
526.3064322519
 20
391.8432192728
 10
526.8527022825
 20
391.6277751765
 10
527.3454995964
 20
391.633242009
 10
527.736585759
 20
391.8590846387
 10
527.9876785318
 20
392.2831960155
 10
528.0741992049
 20
392.8640611628
  0
LWPOLYLINE
  5
B6
330
1F
100
AcDbEntity
  8
0
  6
Continuous
 62
     7
370
    25
100
AcDbPolyline
 90
       11
 70
   128
 43
0.0
 10
528.0741992049
 20
392.8640611628
 10
527.9876785318
 20
393.5448209528
 10
527.736585759
 20
394.2588378743
 10
527.3454995964
 20
394.9362189761
 10
526.8527022825
 20
395.5106574763
 10
526.3064322519
 20
395.9259233322
 10
525.7601622213
 20
396.1413674286
 10
525.2673649075
 20
396.1359005961
 10
524.8762787449
 20
395.9100579663
 10
524.625185972
 20
395.4859465896
 10
524.5386652989
 20
394.9050814423
  0
LWPOLYLINE
  5
B7
330
1F
100
AcDbEntity
  8
0
  6
Continuous
 62
     7
370
    25
100
AcDbPolyline
 90
       11
 70
   128
 43
0.0
 10
503.1840405071
 20
455.1637895885
 10
503.2705611802
 20
454.4830297984
 10
503.521653953
 20
453.769012877
 10
503.9127401156
 20
453.0916317752
 10
504.4055374295
 20
452.517193275
 10
504.9518074601
 20
452.101927419
 10
505.4980774906
 20
451.8864833227
 10
505.9908748045
 20
451.8919501552
 10
506.3819609671
 20
452.1177927849
 10
506.63305374
 20
452.5419041617
 10
506.719574413
 20
453.122769309
  0
LWPOLYLINE
  5
B8
330
1F
100
AcDbEntity
  8
0
  6
Continuous
 62
     7
370
    25
100
AcDbPolyline
 90
       11
 70
   128
 43
0.0
 10
506.719574413
 20
453.122769309
 10
506.63305374
 20
453.8035290991
 10
506.3819609671
 20
454.5175460205
 10
505.9908748045
 20
455.1949271223
 10
505.4980774906
 20
455.7693656225
 10
504.9518074601
 20
456.1846314785
 10
504.4055374295
 20
456.4000755748
 10
503.9127401156
 20
456.3946087423
 10
503.521653953
 20
456.1687661126
 10
503.2705611802
 20
455.7446547358
 10
503.1840405071
 20
455.1637895885
  0
LWPOLYLINE
  5
B9
330
1F
100
AcDbEntity
  8
0
  6
Continuous
 62
     7
370
    25
100
AcDbPolyline
 90
       11
 70
   128
 43
0.0
 10
524.5386652989
 20
500.402154338
 10
524.625185972
 20
499.7213945479
 10
524.8762787449
 20
499.0073776264
 10
525.2673649075
 20
498.3299965246
 10
525.7601622213
 20
497.7555580244
 10
526.3064322519
 20
497.3402921685
 10
526.8527022825
 20
497.1248480721
 10
527.3454995964
 20
497.1303149047
 10
527.736585759
 20
497.3561575344
 10
527.9876785318
 20
497.7802689111
 10
528.0741992049
 20
498.3611340584
  0
LWPOLYLINE
  5
BA
330
1F
100
AcDbEntity
  8
0
  6
Continuous
 62
     7
370
    25
100
AcDbPolyline
 90
       11
 70
   128
 43
0.0
 10
528.0741992049
 20
498.3611340584
 10
527.9876785318
 20
499.0418938485
 10
527.736585759
 20
499.75591077
 10
527.3454995964
 20
500.4332918717
 10
526.8527022825
 20
501.007730372
 10
526.3064322519
 20
501.4229962279
 10
525.7601622213
 20
501.6384403242
 10
525.2673649075
 20
501.6329734917
 10
524.8762787449
 20
501.407130862
 10
524.625185972
 20
500.9830194852
 10
524.5386652989
 20
500.402154338
  0
LWPOLYLINE
  5
BB
330
1F
100
AcDbEntity
  8
0
  6
Continuous
 62
     7
370
    25
100
AcDbPolyline
 90
       11
 70
   128
 43
0.0
 10
503.1840405071
 20
560.6608624842
 10
503.2705611802
 20
559.9801026941
 10
503.521653953
 20
559.2660857726
 10
503.9127401156
 20
558.5887046708
 10
504.4055374295
 20
558.0142661706
 10
504.9518074601
 20
557.5990003147
 10
505.4980774906
 20
557.3835562184
 10
505.9908748045
 20
557.3890230509
 10
506.3819609671
 20
557.6148656806
 10
506.63305374
 20
558.0389770573
 10
506.719574413
 20
558.6198422046
  0
LWPOLYLINE
  5
BC
330
1F
100
AcDbEntity
  8
0
  6
Continuous
 62
     7
370
    25
100
AcDbPolyline
 90
       11
 70
   128
 43
0.0
 10
506.719574413
 20
558.6198422046
 10
506.63305374
 20
559.3006019947
 10
506.3819609671
 20
560.0146189162
 10
505.9908748045
 20
560.692000018
 10
505.4980774906
 20
561.2664385182
 10
504.9518074601
 20
561.6817043741
 10
504.4055374295
 20
561.8971484704
 10
503.9127401156
 20
561.8916816379
 10
503.521653953
 20
561.6658390082
 10
503.2705611802
 20
561.2417276315
 10
503.1840405071
 20
560.6608624842
  0
ARC
  5
BD
330
1F
100
AcDbEntity
  8
0
  6
Continuous
 62
     7
370
    25
100
AcDbCircle
 10
671.3733603433
 20
324.4313629778
 30
0.0
 40
7.684024037860757
100
AcDbArc
 50
122.60547834
 51
177.3945215143
  0
LINE
  5
BE
330
1F
100
AcDbEntity
  8
0
  6
Continuous
 62
     7
370
    25
100
AcDbLine
 10
681.7285027567
 20
339.2725747243
 30
0.0
 11
667.2328137424
 21
330.9043915781
 31
0.0
  0
LINE
  5
BF
330
1F
100
AcDbEntity
  8
0
  6
Continuous
 62
     7
370
    25
100
AcDbLine
 10
667.2328137424
 20
290.0773509838
 30
0.0
 11
681.7285027567
 21
298.44553413
 31
0.0
  0
ARC
  5
C0
330
1F
100
AcDbEntity
  8
0
  6
Continuous
 62
     7
370
    25
100
AcDbCircle
 10
665.8526516736
 20
291.7693987792
 30
0.0
 40
2.183545987142351
100
AcDbArc
 50
170.7859630095
 51
309.2032852357
  0
LINE
  5
C1
330
1F
100
AcDbEntity
  8
0
  6
Continuous
 62
     7
370
    25
100
AcDbLine
 10
663.6972798365
 20
324.7806672391
 30
0.0
 11
663.6972798365
 21
292.1190347637
 31
0.0
  0
LWPOLYLINE
  5
C2
330
1F
100
AcDbEntity
  8
0
  6
Continuous
 62
     7
370
    25
100
AcDbPolyline
 90
       15
 70
   128
 43
0.0
 10
674.3038815543
 20
326.8210240184
 10
674.2152383377
 20
327.6783384991
 10
673.953753629
 20
328.3903183725
 10
673.5325393633
 20
328.9212619948
 10
672.9727169828
 20
329.2445456358
 10
672.3023583192
 20
329.3439585037
 10
671.5550779551
 20
329.2145156224
 10
670.7683476483
 20
328.8627077983
 10
669.9816173415
 20
328.3061761447
 10
669.2343369774
 20
327.5728274827
 10
668.5639783138
 20
326.6994349764
 10
668.0041559333
 20
325.729794173
 10
667.5829416677
 20
324.7125269112
 10
667.321456959
 20
323.6986432193
 10
667.2328137424
 20
322.7389834593
  0
LWPOLYLINE
  5
C3
330
1F
100
AcDbEntity
  8
0
  6
Continuous
 62
     7
370
    25
100
AcDbPolyline
 90
       15
 70
   128
 43
0.0
 10
667.2328137424
 20
322.7389834593
 10
667.321456959
 20
321.8816689786
 10
667.5829416677
 20
321.1696891052
 10
668.0041559333
 20
320.6387454828
 10
668.5639783138
 20
320.3154618419
 10
669.2343369774
 20
320.2160489739
 10
669.9816173415
 20
320.3454918553
 10
670.7683476483
 20
320.6972996794
 10
671.5550779551
 20
321.2538313329
 10
672.3023583192
 20
321.9871799949
 10
672.9727169828
 20
322.8605725013
 10
673.5325393633
 20
323.8302133047
 10
673.953753629
 20
324.8474805664
 10
674.2152383377
 20
325.8613642583
 10
674.3038815543
 20
326.8210240184
  0
LWPOLYLINE
  5
C4
330
1F
100
AcDbEntity
  8
0
  6
Continuous
 62
     7
370
    25
100
AcDbPolyline
 90
       15
 70
   128
 43
0.0
 10
674.3038815543
 20
302.3247996618
 10
674.2152383377
 20
303.1821141425
 10
673.953753629
 20
303.8940940159
 10
673.5325393633
 20
304.4250376382
 10
672.9727169828
 20
304.7483212792
 10
672.3023583192
 20
304.8477341472
 10
671.5550779551
 20
304.7182912658
 10
670.7683476483
 20
304.3664834417
 10
669.9816173415
 20
303.8099517881
 10
669.2343369774
 20
303.0766031261
 10
668.5639783138
 20
302.2032106198
 10
668.0041559333
 20
301.2335698164
 10
667.5829416677
 20
300.2163025546
 10
667.321456959
 20
299.2024188628
 10
667.2328137424
 20
298.2427591027
  0
LWPOLYLINE
  5
C5
330
1F
100
AcDbEntity
  8
0
  6
Continuous
 62
     7
370
    25
100
AcDbPolyline
 90
       15
 70
   128
 43
0.0
 10
667.2328137424
 20
298.2427591027
 10
667.321456959
 20
297.385444622
 10
667.5829416677
 20
296.6734647486
 10
668.0041559333
 20
296.1425211263
 10
668.5639783138
 20
295.8192374853
 10
669.2343369774
 20
295.7198246173
 10
669.9816173415
 20
295.8492674987
 10
670.7683476483
 20
296.2010753228
 10
671.5550779551
 20
296.7576069764
 10
672.3023583192
 20
297.4909556384
 10
672.9727169828
 20
298.3643481447
 10
673.5325393633
 20
299.3339889481
 10
673.953753629
 20
300.3512562099
 10
674.2152383377
 20
301.3651399017
 10
674.3038815543
 20
302.3247996618
  0
ARC
  5
C6
330
1F
100
AcDbEntity
  8
0
  6
Continuous
 62
     7
370
    25
100
AcDbCircle
 10
668.191379828
 20
326.2682812294
 30
0.0
 40
7.684024037861228
100
AcDbArc
 50
122.60547834
 51
177.3945215143
  0
LINE
  5
C7
330
1F
100
AcDbEntity
  8
0
  6
Continuous
 62
     7
370
    25
100
AcDbLine
 10
660.5152993211
 20
326.6175854907
 30
0.0
 11
660.5152993211
 21
293.9559530153
 31
0.0
  0
ARC
  5
C8
330
1F
100
AcDbEntity
  8
0
  6
Continuous
 62
     7
370
    25
100
AcDbCircle
 10
681.0313311361
 20
341.1094929759
 30
0.0
 40
1.964768925754312
100
AcDbArc
 50
290.7834207995
 51
69.2165792005
  0
LINE
  5
C9
330
1F
100
AcDbEntity
  8
0
  6
Continuous
 62
     7
370
    25
100
AcDbLine
 10
678.5465222414
 20
341.1094929759
 30
0.0
 11
664.050833227
 21
332.7413098297
 31
0.0
  0
LINE
  5
CA
330
1F
100
AcDbEntity
  8
0
  6
Continuous
 62
     7
370
    25
100
AcDbLine
 10
681.7285027567
 20
342.9464112275
 30
0.0
 11
543.4891270347
 21
422.7503041582
 31
0.0
  0
LINE
  5
CB
330
1F
100
AcDbEntity
  8
0
  6
Continuous
 62
     7
370
    25
100
AcDbLine
 10
671.105713391
 20
329.0388353687
 30
0.0
 11
671.1219010389
 21
328.65794227
 31
0.0
  0
ARC
  5
CC
330
1F
100
AcDbEntity
  8
0
  6
Continuous
 62
     7
370
    25
100
AcDbCircle
 10
663.6148214637
 20
328.9326190385
 30
0.0
 40
7.512102972880447
100
AcDbArc
 50
298.9323521646
 51
357.9045377094
  0
ARC
  5
CD
330
1F
100
AcDbEntity
  8
0
  6
Continuous
 62
     7
370
    25
100
AcDbCircle
 10
680.7944654602
 20
300.5070310777
 30
0.0
 40
2.263226753222483
100
AcDbArc
 50
294.3746582936
 51
354.3052007488
  0
LINE
  5
CE
330
1F
100
AcDbEntity
  8
0
  6
Continuous
 62
     7
370
    25
100
AcDbLine
 10
671.105713391
 20
304.5426110121
 30
0.0
 11
671.1219010389
 21
304.1617179134
 31
0.0
  0
ARC
  5
CF
330
1F
100
AcDbEntity
  8
0
  6
Continuous
 62
     7
370
    25
100
AcDbCircle
 10
662.965308833
 20
293.6855193286
 30
0.0
 40
2.464889650117887
100
AcDbArc
 50
173.7011524831
 51
234.9866671236
  0
ARC
  5
D0
330
1F
100
AcDbEntity
  8
0
  6
Continuous
 62
     7
370
    25
100
AcDbCircle
 10
663.6148214637
 20
304.4363946819
 30
0.0
 40
7.512102972880347
100
AcDbArc
 50
298.9323521646
 51
357.9045377094
  0
LINE
  5
D1
330
1F
100
AcDbEntity
  8
0
  6
Continuous
 62
     7
370
    25
100
AcDbLine
 10
501.0627201635
 20
569.7236692957
 30
0.0
 11
497.8807396482
 21
567.8867510441
 31
0.0
  0
LINE
  5
D2
330
1F
100
AcDbEntity
  8
0
  6
Continuous
 62
     7
370
    25
100
AcDbLine
 10
536.4180592229
 20
549.3134665002
 30
0.0
 11
533.2360787075
 21
547.4765482486
 31
0.0
  0
LINE
  5
D3
330
1F
100
AcDbEntity
  8
0
  6
Continuous
 62
     7
370
    25
100
AcDbLine
 10
536.4180592229
 20
549.3134665002
 30
0.0
 11
501.0627201635
 21
569.7236692957
 31
0.0
  0
LINE
  5
D4
330
1F
100
AcDbEntity
  8
0
  6
Continuous
 62
     7
370
    25
100
AcDbLine
 10
536.4180592229
 20
434.9977528361
 30
0.0
 11
536.4180592229
 21
549.3134665002
 31
0.0
  0
ARC
  5
D5
330
1F
100
AcDbEntity
  8
0
  6
Continuous
 62
     7
370
    25
100
AcDbCircle
 10
551.6606554153
 20
435.6331040795
 30
0.0
 40
15.25583199594746
100
AcDbArc
 50
182.3868561234
 51
237.6131440222
  0
LINE
  5
D6
330
1F
100
AcDbEntity
  8
0
  6
HIDDEN
 62
     7
370
    18
100
AcDbLine
 10
678.5465222414
 20
341.1094929759
 30
0.0
 11
678.5465222414
 21
300.2824523816
 31
0.0
  0
LINE
  5
D7
330
1F
100
AcDbEntity
  8
0
  6
HIDDEN
 62
     7
370
    18
100
AcDbLine
 10
660.5152993211
 20
310.6916558074
 30
0.0
 11
678.5465222414
 21
300.2824523816
 31
0.0
  0
LWPOLYLINE
  5
D8
330
1F
100
AcDbEntity
  8
0
  6
HIDDEN
 62
     7
370
    18
100
AcDbPolyline
 90
       15
 70
   128
 43
0.0
 10
664.050833227
 20
324.5759017109
 10
664.1394764436
 20
325.5355614709
 10
664.4009611523
 20
326.5494451628
 10
664.822175418
 20
327.5667124246
 10
665.3819977985
 20
328.536353228
 10
666.0523564621
 20
329.4097457343
 10
666.7996368262
 20
330.1430943963
 10
667.586367133
 20
330.6996260499
 10
668.3730974398
 20
331.051433874
 10
669.1203778039
 20
331.1808767553
 10
669.7907364675
 20
331.0814638874
 10
670.350558848
 20
330.7581802464
 10
670.7717731136
 20
330.2272366241
 10
671.0332578223
 20
329.5152567507
 10
671.105713391
 20
329.0388353687
  0
LWPOLYLINE
  5
D9
330
1F
100
AcDbEntity
  8
0
  6
HIDDEN
 62
     7
370
    18
100
AcDbPolyline
 90
        8
 70
   128
 43
0.0
 10
667.2490013903
 20
322.3580903606
 10
666.7996368262
 20
322.1824101069
 10
666.0523564621
 20
322.0529672255
 10
665.3819977985
 20
322.1523800935
 10
664.822175418
 20
322.4756637344
 10
664.4009611523
 20
323.0066073568
 10
664.1394764436
 20
323.7185872302
 10
664.050833227
 20
324.5759017109
  0
ARC
  5
DA
330
1F
100
AcDbEntity
  8
0
  6
HIDDEN
 62
     7
370
    18
100
AcDbCircle
 10
680.7944654602
 20
300.0578736856
 30
0.0
 40
2.263226753222234
100
AcDbArc
 50
5.6947992512
 51
65.6253417064
  0
LWPOLYLINE
  5
DB
330
1F
100
AcDbEntity
  8
0
  6
HIDDEN
 62
     7
370
    18
100
AcDbPolyline
 90
       15
 70
   128
 43
0.0
 10
664.050833227
 20
300.0796773543
 10
664.1394764436
 20
301.0393371144
 10
664.4009611523
 20
302.0532208062
 10
664.822175418
 20
303.070488068
 10
665.3819977985
 20
304.0401288714
 10
666.0523564621
 20
304.9135213777
 10
666.7996368262
 20
305.6468700397
 10
667.586367133
 20
306.2034016933
 10
668.3730974398
 20
306.5552095174
 10
669.1203778039
 20
306.6846523988
 10
669.7907364675
 20
306.5852395308
 10
670.350558848
 20
306.2619558898
 10
670.7717731136
 20
305.7310122675
 10
671.0332578223
 20
305.0190323941
 10
671.105713391
 20
304.5426110121
  0
ARC
  5
DC
330
1F
100
AcDbEntity
  8
0
  6
HIDDEN
 62
     7
370
    18
100
AcDbCircle
 10
662.5862329528
 20
293.958675881
 30
0.0
 40
2.514886179508918
100
AcDbArc
 50
245.6928809539
 51
305.6175774752
  0
LWPOLYLINE
  5
DD
330
1F
100
AcDbEntity
  8
0
  6
HIDDEN
 62
     7
370
    18
100
AcDbPolyline
 90
        8
 70
   128
 43
0.0
 10
667.2490013903
 20
297.861866004
 10
666.7996368262
 20
297.6861857503
 10
666.0523564621
 20
297.5567428689
 10
665.3819977985
 20
297.6561557369
 10
664.822175418
 20
297.9794393779
 10
664.4009611523
 20
298.5103830002
 10
664.1394764436
 20
299.2223628736
 10
664.050833227
 20
300.0796773543
  0
LINE
  5
DE
330
1F
100
AcDbEntity
  8
0
  6
HIDDEN
 62
     7
370
    18
100
AcDbLine
 10
678.5465222414
 20
300.2824523816
 30
0.0
 11
664.050833227
 21
291.9142692354
 31
0.0
  0
LINE
  5
DF
330
1F
100
AcDbEntity
  8
0
  6
HIDDEN
 62
     7
370
    18
100
AcDbLine
 10
681.7285027567
 20
302.1193706332
 30
0.0
 11
508.1337879754
 21
402.3334663595
 31
0.0
  0
LWPOLYLINE
  5
E0
330
1F
100
AcDbEntity
  8
0
  6
HIDDEN
 62
     7
370
    18
100
AcDbPolyline
 90
       11
 70
   128
 43
0.0
 10
506.3660210224
 20
562.4977807358
 10
506.4525416955
 20
563.0786458831
 10
506.7036344684
 20
563.5027572598
 10
507.094720631
 20
563.7285998895
 10
507.5875179449
 20
563.734066722
 10
508.1337879754
 20
563.5186226257
 10
508.680058006
 20
563.1033567698
 10
509.1728553199
 20
562.5289182696
 10
509.5639414825
 20
561.8515371678
 10
509.8150342553
 20
561.1375202463
 10
509.9015549284
 20
560.4567604562
  0
LWPOLYLINE
  5
E1
330
1F
100
AcDbEntity
  8
0
  6
HIDDEN
 62
     7
370
    18
100
AcDbPolyline
 90
       11
 70
   128
 43
0.0
 10
509.9015549284
 20
560.4567604562
 10
509.8150342553
 20
559.8758953089
 10
509.5639414825
 20
559.4517839322
 10
509.1728553199
 20
559.2259413025
 10
508.680058006
 20
559.22047447
 10
508.1337879754
 20
559.4359185663
 10
507.5875179449
 20
559.8511844222
 10
507.094720631
 20
560.4256229224
 10
506.7036344684
 20
561.1030040242
 10
506.4525416955
 20
561.8170209457
 10
506.3660210224
 20
562.4977807358
  0
LINE
  5
E2
330
1F
100
AcDbEntity
  8
0
  6
HIDDEN
 62
     7
370
    18
100
AcDbLine
 10
501.0627201635
 20
569.7236692957
 30
0.0
 11
501.0627201635
 21
414.5809150374
 31
0.0
  0
LWPOLYLINE
  5
E3
330
1F
100
AcDbEntity
  8
0
  6
HIDDEN
 62
     7
370
    18
100
AcDbPolyline
 90
       11
 70
   128
 43
0.0
 10
527.7206458143
 20
502.2390725896
 10
527.8071664873
 20
502.8199377368
 10
528.0582592602
 20
503.2440491136
 10
528.4493454228
 20
503.4698917433
 10
528.9421427367
 20
503.4753585758
 10
529.4884127672
 20
503.2599144795
 10
530.0346827978
 20
502.8446486236
 10
530.5274801117
 20
502.2702101233
 10
530.9185662743
 20
501.5928290216
 10
531.1696590472
 20
500.8788121001
 10
531.2561797202
 20
500.19805231
  0
LWPOLYLINE
  5
E4
330
1F
100
AcDbEntity
  8
0
  6
HIDDEN
 62
     7
370
    18
100
AcDbPolyline
 90
       11
 70
   128
 43
0.0
 10
531.2561797202
 20
500.19805231
 10
531.1696590472
 20
499.6171871627
 10
530.9185662743
 20
499.193075786
 10
530.5274801117
 20
498.9672331563
 10
530.0346827978
 20
498.9617663237
 10
529.4884127672
 20
499.1772104201
 10
528.9421427367
 20
499.592476276
 10
528.4493454228
 20
500.1669147762
 10
528.0582592602
 20
500.844295878
 10
527.8071664873
 20
501.5583127995
 10
527.7206458143
 20
502.2390725896
  0
LWPOLYLINE
  5
E5
330
1F
100
AcDbEntity
  8
0
  6
HIDDEN
 62
     7
370
    18
100
AcDbPolyline
 90
       11
 70
   128
 43
0.0
 10
506.3660210224
 20
457.0007078401
 10
506.4525416955
 20
457.5815729874
 10
506.7036344684
 20
458.0056843642
 10
507.094720631
 20
458.2315269939
 10
507.5875179449
 20
458.2369938264
 10
508.1337879754
 20
458.0215497301
 10
508.680058006
 20
457.6062838741
 10
509.1728553199
 20
457.0318453739
 10
509.5639414825
 20
456.3544642721
 10
509.8150342553
 20
455.6404473507
 10
509.9015549284
 20
454.9596875606
  0
LWPOLYLINE
  5
E6
330
1F
100
AcDbEntity
  8
0
  6
HIDDEN
 62
     7
370
    18
100
AcDbPolyline
 90
       11
 70
   128
 43
0.0
 10
509.9015549284
 20
454.9596875606
 10
509.8150342553
 20
454.3788224133
 10
509.5639414825
 20
453.9547110365
 10
509.1728553199
 20
453.7288684068
 10
508.680058006
 20
453.7234015743
 10
508.1337879754
 20
453.9388456706
 10
507.5875179449
 20
454.3541115266
 10
507.094720631
 20
454.9285500268
 10
506.7036344684
 20
455.6059311286
 10
506.4525416955
 20
456.31994805
 10
506.3660210224
 20
457.0007078401
  0
LWPOLYLINE
  5
E7
330
1F
100
AcDbEntity
  8
0
  6
HIDDEN
 62
     7
370
    18
100
AcDbPolyline
 90
       11
 70
   128
 43
0.0
 10
527.7206458143
 20
396.7419996939
 10
527.8071664873
 20
397.3228648412
 10
528.0582592602
 20
397.746976218
 10
528.4493454228
 20
397.9728188477
 10
528.9421427367
 20
397.9782856802
 10
529.4884127672
 20
397.7628415838
 10
530.0346827978
 20
397.3475757279
 10
530.5274801117
 20
396.7731372277
 10
530.9185662743
 20
396.0957561259
 10
531.1696590472
 20
395.3817392044
 10
531.2561797202
 20
394.7009794144
  0
LWPOLYLINE
  5
E8
330
1F
100
AcDbEntity
  8
0
  6
HIDDEN
 62
     7
370
    18
100
AcDbPolyline
 90
       11
 70
   128
 43
0.0
 10
531.2561797202
 20
394.7009794144
 10
531.1696590472
 20
394.1201142671
 10
530.9185662743
 20
393.6960028903
 10
530.5274801117
 20
393.4701602606
 10
530.0346827978
 20
393.4646934281
 10
529.4884127672
 20
393.6801375244
 10
528.9421427367
 20
394.0954033803
 10
528.4493454228
 20
394.6698418806
 10
528.0582592602
 20
395.3472229823
 10
527.8071664873
 20
396.0612399038
 10
527.7206458143
 20
396.7419996939
  0
ARC
  5
E9
330
1F
100
AcDbEntity
  8
0
  6
HIDDEN
 62
     7
370
    18
100
AcDbCircle
 10
516.305316356
 20
415.2162662808
 30
0.0
 40
15.25583199594687
100
AcDbArc
 50
182.3868561234
 51
237.6131440222
  0
LINE
  5
EA
330
1F
100
AcDbEntity
  8
0
  6
HIDDEN
 62
     7
370
    18
100
AcDbLine
 10
673.2681444799
 20
329.1102480507
 30
0.0
 11
670.0861639646
 21
330.9471663023
 31
0.0
  0
LINE
  5
EB
330
1F
100
AcDbEntity
  8
0
  6
HIDDEN
 62
     7
370
    18
100
AcDbLine
 10
665.0865703014
 20
322.2866776785
 30
0.0
 11
668.2685508167
 21
320.4497594269
 31
0.0
  0
LINE
  5
EC
330
1F
100
AcDbEntity
  8
0
  6
HIDDEN
 62
     7
370
    18
100
AcDbLine
 10
673.2681444799
 20
304.6140236942
 30
0.0
 11
670.0861639646
 21
306.4509419458
 31
0.0
  0
LINE
  5
ED
330
1F
100
AcDbEntity
  8
0
  6
HIDDEN
 62
     7
370
    18
100
AcDbLine
 10
665.0865703014
 20
297.7904533219
 30
0.0
 11
668.2685508167
 21
295.9535350703
 31
0.0
  0
LINE
  5
EE
330
1F
100
AcDbEntity
  8
0
  6
HIDDEN
 62
     7
370
    18
100
AcDbLine
 10
506.8838895596
 20
563.6423927519
 30
0.0
 11
503.7019090443
 21
561.8054745003
 31
0.0
  0
LINE
  5
EF
330
1F
100
AcDbEntity
  8
0
  6
HIDDEN
 62
     7
370
    18
100
AcDbLine
 10
506.2017058759
 20
557.4752301884
 30
0.0
 11
509.3836863912
 21
559.31214844
 31
0.0
  0
LINE
  5
F0
330
1F
100
AcDbEntity
  8
0
  6
HIDDEN
 62
     7
370
    18
100
AcDbLine
 10
528.2385143515
 20
503.3836846057
 30
0.0
 11
525.0565338361
 21
501.5467663541
 31
0.0
  0
LINE
  5
F1
330
1F
100
AcDbEntity
  8
0
  6
HIDDEN
 62
     7
370
    18
100
AcDbLine
 10
527.5563306677
 20
497.2165220422
 30
0.0
 11
530.738311183
 21
499.0534402938
 31
0.0
  0
LINE
  5
F2
330
1F
100
AcDbEntity
  8
0
  6
HIDDEN
 62
     7
370
    18
100
AcDbLine
 10
506.8838895596
 20
458.1453198563
 30
0.0
 11
503.7019090443
 21
456.3084016047
 31
0.0
  0
LINE
  5
F3
330
1F
100
AcDbEntity
  8
0
  6
HIDDEN
 62
     7
370
    18
100
AcDbLine
 10
506.2017058759
 20
451.9781572928
 30
0.0
 11
509.3836863912
 21
453.8150755444
 31
0.0
  0
LINE
  5
F4
330
1F
100
AcDbEntity
  8
0
  6
HIDDEN
 62
     7
370
    18
100
AcDbLine
 10
528.2385143515
 20
397.8866117101
 30
0.0
 11
525.0565338361
 21
396.0496934585
 31
0.0
  0
LINE
  5
F5
330
1F
100
AcDbEntity
  8
0
  6
HIDDEN
 62
     7
370
    18
100
AcDbLine
 10
527.5563306677
 20
391.7194491466
 30
0.0
 11
530.738311183
 21
393.5563673982
 31
0.0
  0
ENDSEC
  0
SECTION
  2
OBJECTS
  0
DICTIONARY
  5
C
330
0
100
AcDbDictionary
281
     1
  3
ACAD_GROUP
350
D
  3
ACAD_LAYOUT
350
1A
  3
ACAD_MLINESTYLE
350
17
  3
ACAD_PLOTSETTINGS
350
19
  3
ACAD_PLOTSTYLENAME
350
E
  3
ACAD_SCALELIST
350
47
  3
DWGPROPS
350
F6
  0
DICTIONARY
  5
D
102
{ACAD_REACTORS
330
C
102
}
330
C
100
AcDbDictionary
281
     1
  0
DICTIONARY
  5
1A
102
{ACAD_REACTORS
330
C
102
}
330
C
100
AcDbDictionary
281
     1
  3
Layout1
350
1E
  3
Layout2
350
26
  3
Model
350
22
  0
DICTIONARY
  5
17
102
{ACAD_REACTORS
330
C
102
}
330
C
100
AcDbDictionary
281
     1
  3
Standard
350
18
  0
DICTIONARY
  5
19
102
{ACAD_REACTORS
330
C
102
}
330
C
100
AcDbDictionary
281
     1
  0
ACDBDICTIONARYWDFLT
  5
E
102
{ACAD_REACTORS
330
C
102
}
330
C
100
AcDbDictionary
281
     1
  3
Normal
350
F
100
AcDbDictionaryWithDefault
340
F
  0
DICTIONARY
  5
47
102
{ACAD_REACTORS
330
C
102
}
330
C
100
AcDbDictionary
281
     1
  3
A0
350
48
  3
A1
350
49
  3
A2
350
4A
  3
A3
350
4B
  3
A4
350
4C
  3
A5
350
4D
  3
A6
350
4E
  3
A7
350
4F
  3
A8
350
50
  3
A9
350
51
  3
B0
350
52
  3
B1
350
53
  3
B2
350
54
  3
B3
350
55
  3
B4
350
56
  3
B5
350
57
  3
B6
350
58
  0
XRECORD
  5
F6
102
{ACAD_REACTORS
330
C
102
}
330
C
100
AcDbXrecord
280
     1
  1
DWGPROPS COOKIE
  2

  3

  4

  6

  7

  8
imaizumi
  9

300
=
301
=
302
=
303
=
304
=
305
=
306
=
307
=
308
=
309
=
 40
0.0
 41
2461263.066424734
 42
2461263.066425567
  1

 90
        0
  0
LAYOUT
  5
1E
102
{ACAD_REACTORS
330
1A
102
}
330
1A
100
AcDbPlotSettings
  1

  2
none_device
  4

  6

 40
0.0
 41
0.0
 42
0.0
 43
0.0
 44
0.0
 45
0.0
 46
0.0
 47
0.0
 48
0.0
 49
0.0
140
0.0
141
0.0
142
1.0
143
1.0
 70
   688
 72
     1
 73
     0
 74
     5
  7

 75
    16
147
1.0
148
0.0
149
0.0
100
AcDbLayout
  1
Layout1
 70
     1
 71
     1
 10
0.0
 20
0.0
 11
420.0
 21
297.0
 12
0.0
 22
0.0
 32
0.0
 14
1.0000000000E+20
 24
1.0000000000E+20
 34
1.0000000000E+20
 15
-1.0000000000E+20
 25
-1.0000000000E+20
 35
-1.0000000000E+20
146
0.0
 13
0.0
 23
0.0
 33
0.0
 16
1.0
 26
0.0
 36
0.0
 17
0.0
 27
1.0
 37
0.0
 76
     0
330
1B
  0
LAYOUT
  5
26
102
{ACAD_REACTORS
330
1A
102
}
330
1A
100
AcDbPlotSettings
  1

  2
none_device
  4

  6

 40
0.0
 41
0.0
 42
0.0
 43
0.0
 44
0.0
 45
0.0
 46
0.0
 47
0.0
 48
0.0
 49
0.0
140
0.0
141
0.0
142
1.0
143
1.0
 70
   688
 72
     1
 73
     0
 74
     5
  7

 75
    16
147
1.0
148
0.0
149
0.0
100
AcDbLayout
  1
Layout2
 70
     1
 71
     2
 10
0.0
 20
0.0
 11
0.0
 21
0.0
 12
0.0
 22
0.0
 32
0.0
 14
0.0
 24
0.0
 34
0.0
 15
0.0
 25
0.0
 35
0.0
146
0.0
 13
0.0
 23
0.0
 33
0.0
 16
1.0
 26
0.0
 36
0.0
 17
0.0
 27
1.0
 37
0.0
 76
     0
330
23
  0
LAYOUT
  5
22
102
{ACAD_REACTORS
330
1A
102
}
330
1A
100
AcDbPlotSettings
  1

  2
none_device
  4
Letter_(8.50_x_11.00_Inches)
  6

 40
6.35
 41
6.35
 42
6.35000508
 43
6.35000508
 44
215.9
 45
279.4
 46
0.0
 47
0.0
 48
0.0
 49
0.0
140
0.0
141
0.0
142
1.0
143
1.0
 70
  1712
 72
     1
 73
     0
 74
     0
  7

 75
     0
147
1.0
148
0.0
149
0.0
100
AcDbLayout
  1
Model
 70
     1
 71
     0
 10
0.0
 20
0.0
 11
841.0
 21
594.0
 12
0.0
 22
0.0
 32
0.0
 14
0.0
 24
0.0
 34
0.0
 15
841.0
 25
594.0
 35
0.0
146
0.0
 13
0.0
 23
0.0
 33
0.0
 16
1.0
 26
0.0
 36
0.0
 17
0.0
 27
1.0
 37
0.0
 76
     0
330
1F
331
29
  0
MLINESTYLE
  5
18
102
{ACAD_REACTORS
330
17
102
}
330
17
100
AcDbMlineStyle
  2
Standard
 70
     0
  3

 62
   256
 51
90.0
 52
90.0
 71
     2
 49
0.5
 62
   256
  6
BYLAYER
 49
-0.5
 62
   256
  6
BYLAYER
  0
ACDBPLACEHOLDER
  5
F
102
{ACAD_REACTORS
330
E
102
}
330
E
  0
SCALE
  5
48
102
{ACAD_REACTORS
330
47
102
}
330
47
100
AcDbScale
 70
     0
300
1:1
140
1.0
141
1.0
290
     1
  0
SCALE
  5
49
102
{ACAD_REACTORS
330
47
102
}
330
47
100
AcDbScale
 70
     0
300
1:2
140
1.0
141
2.0
290
     0
  0
SCALE
  5
4A
102
{ACAD_REACTORS
330
47
102
}
330
47
100
AcDbScale
 70
     0
300
1:4
140
1.0
141
4.0
290
     0
  0
SCALE
  5
4B
102
{ACAD_REACTORS
330
47
102
}
330
47
100
AcDbScale
 70
     0
300
1:5
140
1.0
141
5.0
290
     0
  0
SCALE
  5
4C
102
{ACAD_REACTORS
330
47
102
}
330
47
100
AcDbScale
 70
     0
300
1:8
140
1.0
141
8.0
290
     0
  0
SCALE
  5
4D
102
{ACAD_REACTORS
330
47
102
}
330
47
100
AcDbScale
 70
     0
300
1:10
140
1.0
141
10.0
290
     0
  0
SCALE
  5
4E
102
{ACAD_REACTORS
330
47
102
}
330
47
100
AcDbScale
 70
     0
300
1:16
140
1.0
141
16.0
290
     0
  0
SCALE
  5
4F
102
{ACAD_REACTORS
330
47
102
}
330
47
100
AcDbScale
 70
     0
300
1:20
140
1.0
141
20.0
290
     0
  0
SCALE
  5
50
102
{ACAD_REACTORS
330
47
102
}
330
47
100
AcDbScale
 70
     0
300
1:30
140
1.0
141
30.0
290
     0
  0
SCALE
  5
51
102
{ACAD_REACTORS
330
47
102
}
330
47
100
AcDbScale
 70
     0
300
1:40
140
1.0
141
40.0
290
     0
  0
SCALE
  5
52
102
{ACAD_REACTORS
330
47
102
}
330
47
100
AcDbScale
 70
     0
300
1:50
140
1.0
141
50.0
290
     0
  0
SCALE
  5
53
102
{ACAD_REACTORS
330
47
102
}
330
47
100
AcDbScale
 70
     0
300
1:100
140
1.0
141
100.0
290
     0
  0
SCALE
  5
54
102
{ACAD_REACTORS
330
47
102
}
330
47
100
AcDbScale
 70
     0
300
2:1
140
2.0
141
1.0
290
     0
  0
SCALE
  5
55
102
{ACAD_REACTORS
330
47
102
}
330
47
100
AcDbScale
 70
     0
300
4:1
140
4.0
141
1.0
290
     0
  0
SCALE
  5
56
102
{ACAD_REACTORS
330
47
102
}
330
47
100
AcDbScale
 70
     0
300
8:1
140
8.0
141
1.0
290
     0
  0
SCALE
  5
57
102
{ACAD_REACTORS
330
47
102
}
330
47
100
AcDbScale
 70
     0
300
10:1
140
10.0
141
1.0
290
     0
  0
SCALE
  5
58
102
{ACAD_REACTORS
330
47
102
}
330
47
100
AcDbScale
 70
     0
300
100:1
140
100.0
141
1.0
290
     0
  0
ENDSEC
  0
EOF
