  0
SECTION
  2
HEADER
  9
$ACADVER
  1
AC1015
  9
$ACADMAINTVER
 70
     6
  9
$DWGCODEPAGE
  3
DOS932
  9
$INSBASE
 10
0.0
 20
0.0
 30
0.0
  9
$EXTMIN
 10
0.0
 20
0.0
 30
0.0
  9
$EXTMAX
 10
841.0
 20
594.0
 30
0.0
  9
$LIMMIN
 10
0.0
 20
0.0
  9
$LIMMAX
 10
841.0
 20
594.0
  9
$ORTHOMODE
 70
     0
  9
$REGENMODE
 70
     1
  9
$FILLMODE
 70
     1
  9
$QTEXTMODE
 70
     0
  9
$MIRRTEXT
 70
     1
  9
$LTSCALE
 40
1.0
  9
$ATTMODE
 70
     1
  9
$TEXTSIZE
 40
3.5
  9
$TRACEWID
 40
1.0
  9
$TEXTSTYLE
  7
Standard
  9
$CLAYER
  8
0
  9
$CELTYPE
  6
ByLayer
  9
$CECOLOR
 62
   256
  9
$CELTSCALE
 40
1.0
  9
$DISPSILH
 70
     0
  9
$DIMSCALE
 40
1.0
  9
$DIMASZ
 40
3.302
  9
$DIMEXO
 40
1.0
  9
$DIMDLI
 40
3.75
  9
$DIMRND
 40
0.0
  9
$DIMDLE
 40
0.0
  9
$DIMEXE
 40
1.0
  9
$DIMTP
 40
0.0
  9
$DIMTM
 40
0.0
  9
$DIMTXT
 40
3.5
  9
$DIMCEN
 40
2.5
  9
$DIMTSZ
 40
0.0
  9
$DIMTOL
 70
     0
  9
$DIMLIM
 70
     0
  9
$DIMTIH
 70
     1
  9
$DIMTOH
 70
     1
  9
$DIMSE1
 70
     0
  9
$DIMSE2
 70
     0
  9
$DIMTAD
 70
     1
  9
$DIMZIN
 70
     1
  9
$DIMBLK
  1

  9
$DIMASO
 70
     1
  9
$DIMSHO
 70
     1
  9
$DIMPOST
  1

  9
$DIMAPOST
  1

  9
$DIMALT
 70
     0
  9
$DIMALTD
 70
     3
  9
$DIMALTF
 40
0.0393700787
  9
$DIMLFAC
 40
10.0
  9
$DIMTOFL
 70
     1
  9
$DIMTVP
 40
0.0
  9
$DIMTIX
 70
     0
  9
$DIMSOXD
 70
     0
  9
$DIMSAH
 70
     0
  9
$DIMBLK1
  1

  9
$DIMBLK2
  1

  9
$DIMSTYLE
  2
ISO-25
  9
$DIMCLRD
 70
     0
  9
$DIMCLRE
 70
     0
  9
$DIMCLRT
 70
     0
  9
$DIMTFAC
 40
1.0
  9
$DIMGAP
 40
1.524
  9
$DIMJUST
 70
     0
  9
$DIMSD1
 70
     0
  9
$DIMSD2
 70
     0
  9
$DIMTOLJ
 70
     0
  9
$DIMTZIN
 70
     1
  9
$DIMALTZ
 70
     0
  9
$DIMALTTZ
 70
     0
  9
$DIMUPT
 70
     0
  9
$DIMDEC
 70
     2
  9
$DIMTDEC
 70
     2
  9
$DIMALTU
 70
     2
  9
$DIMALTTD
 70
     3
  9
$DIMTXSTY
  7
Standard
  9
$DIMAUNIT
 70
     0
  9
$DIMADEC
 70
     2
  9
$DIMALTRND
 40
0.0
  9
$DIMAZIN
 70
     0
  9
$DIMDSEP
 70
    44
  9
$DIMATFIT
 70
     3
  9
$DIMFRAC
 70
     0
  9
$DIMLDRBLK
  1

  9
$DIMLUNIT
 70
     2
  9
$DIMLWD
 70
    -2
  9
$DIMLWE
 70
    -2
  9
$DIMTMOVE
 70
     0
  9
$LUNITS
 70
     2
  9
$LUPREC
 70
     2
  9
$SKETCHINC
 40
1.0
  9
$FILLETRAD
 40
0.0
  9
$AUNITS
 70
     0
  9
$AUPREC
 70
     2
  9
$MENU
  1
.
  9
$ELEVATION
 40
0.0
  9
$PELEVATION
 40
0.0
  9
$THICKNESS
 40
0.0
  9
$LIMCHECK
 70
     0
  9
$CHAMFERA
 40
0.0
  9
$CHAMFERB
 40
0.0
  9
$CHAMFERC
 40
0.0
  9
$CHAMFERD
 40
0.0
  9
$SKPOLY
 70
     0
  9
$TDCREATE
 40
2461263.415982581
  9
$TDUCREATE
 40
2461263.040982581
  9
$TDUPDATE
 40
2461263.415983125
  9
$TDUUPDATE
 40
2461263.040983125
  9
$TDINDWG
 40
0.0000000116
  9
$TDUSRTIMER
 40
0.0000000116
  9
$USRTIMER
 70
     1
  9
$ANGBASE
 50
0.0
  9
$ANGDIR
 70
     0
  9
$PDMODE
 70
     0
  9
$PDSIZE
 40
-1.0
  9
$PLINEWID
 40
0.0
  9
$SPLFRAME
 70
     0
  9
$SPLINETYPE
 70
     6
  9
$SPLINESEGS
 70
     8
  9
$HANDSEED
  5
10D
  9
$SURFTAB1
 70
     6
  9
$SURFTAB2
 70
     6
  9
$SURFTYPE
 70
     6
  9
$SURFU
 70
     6
  9
$SURFV
 70
     6
  9
$UCSBASE
  2

  9
$UCSNAME
  2

  9
$UCSORG
 10
0.0
 20
0.0
 30
0.0
  9
$UCSXDIR
 10
1.0
 20
0.0
 30
0.0
  9
$UCSYDIR
 10
0.0
 20
1.0
 30
0.0
  9
$UCSORTHOREF
  2

  9
$UCSORTHOVIEW
 70
     0
  9
$UCSORGTOP
 10
0.0
 20
0.0
 30
0.0
  9
$UCSORGBOTTOM
 10
0.0
 20
0.0
 30
0.0
  9
$UCSORGLEFT
 10
0.0
 20
0.0
 30
0.0
  9
$UCSORGRIGHT
 10
0.0
 20
0.0
 30
0.0
  9
$UCSORGFRONT
 10
0.0
 20
0.0
 30
0.0
  9
$UCSORGBACK
 10
0.0
 20
0.0
 30
0.0
  9
$PUCSBASE
  2

  9
$PUCSNAME
  2

  9
$PUCSORG
 10
0.0
 20
0.0
 30
0.0
  9
$PUCSXDIR
 10
1.0
 20
0.0
 30
0.0
  9
$PUCSYDIR
 10
0.0
 20
1.0
 30
0.0
  9
$PUCSORTHOREF
  2

  9
$PUCSORTHOVIEW
 70
     0
  9
$PUCSORGTOP
 10
0.0
 20
0.0
 30
0.0
  9
$PUCSORGBOTTOM
 10
0.0
 20
0.0
 30
0.0
  9
$PUCSORGLEFT
 10
0.0
 20
0.0
 30
0.0
  9
$PUCSORGRIGHT
 10
0.0
 20
0.0
 30
0.0
  9
$PUCSORGFRONT
 10
0.0
 20
0.0
 30
0.0
  9
$PUCSORGBACK
 10
0.0
 20
0.0
 30
0.0
  9
$USERI1
 70
     0
  9
$USERI2
 70
     0
  9
$USERI3
 70
     0
  9
$USERI4
 70
     0
  9
$USERI5
 70
     0
  9
$USERR1
 40
0.0
  9
$USERR2
 40
0.0
  9
$USERR3
 40
0.0
  9
$USERR4
 40
0.0
  9
$USERR5
 40
0.0
  9
$WORLDVIEW
 70
     1
  9
$SHADEDGE
 70
     3
  9
$SHADEDIF
 70
    70
  9
$TILEMODE
 70
     1
  9
$MAXACTVP
 70
    64
  9
$PINSBASE
 10
0.0
 20
0.0
 30
0.0
  9
$PLIMCHECK
 70
     0
  9
$PEXTMIN
 10
1.0000000000E+20
 20
1.0000000000E+20
 30
1.0000000000E+20
  9
$PEXTMAX
 10
-1.0000000000E+20
 20
-1.0000000000E+20
 30
-1.0000000000E+20
  9
$PLIMMIN
 10
0.0
 20
0.0
  9
$PLIMMAX
 10
420.0
 20
297.0
  9
$UNITMODE
 70
     0
  9
$VISRETAIN
 70
     1
  9
$PLINEGEN
 70
     0
  9
$PSLTSCALE
 70
     1
  9
$TREEDEPTH
 70
  3020
  9
$CMLSTYLE
  2
Standard
  9
$CMLJUST
 70
     0
  9
$CMLSCALE
 40
20.0
  9
$PROXYGRAPHICS
 70
     1
  9
$MEASUREMENT
 70
     1
  9
$CELWEIGHT
370
    -1
  9
$ENDCAPS
280
     0
  9
$JOINSTYLE
280
     0
  9
$LWDISPLAY
290
     1
  9
$INSUNITS
 70
     4
  9
$HYPERLINKBASE
  1

  9
$STYLESHEET
  1

  9
$XEDIT
290
     1
  9
$CEPSNTYPE
380
     0
  9
$PSTYLEMODE
290
     1
  9
$FINGERPRINTGUID
  2
{4c2c6b2f-7b7d-4bc1-b02a-0be856f6464f}
  9
$VERSIONGUID
  2
{FAEB1C32-E019-11D5-929B-00C0DF256EC4}
  9
$EXTNAMES
290
     1
  9
$PSVPSCALE
 40
0.0
  9
$OLESTARTUP
290
     0
  0
ENDSEC
  0
SECTION
  2
CLASSES
  0
CLASS
  1
ACDBDICTIONARYWDFLT
  2
AcDbDictionaryWithDefault
  3
ObjectDBX Classes
 90
        0
280
     0
281
     0
  0
CLASS
  1
VISUALSTYLE
  2
AcDbVisualStyle
  3
ObjectDBX Classes
 90
     4095
280
     0
281
     0
  0
CLASS
  1
MATERIAL
  2
AcDbMaterial
  3
ObjectDBX Classes
 90
     1153
280
     0
281
     0
  0
CLASS
  1
SCALE
  2
AcDbScale
  3
ObjectDBX Classes
 90
     1153
280
     0
281
     0
  0
CLASS
  1
TABLESTYLE
  2
AcDbTableStyle
  3
ObjectDBX Classes
 90
     4095
280
     0
281
     0
  0
CLASS
  1
MLEADERSTYLE
  2
AcDbMLeaderStyle
  3
ACDB_MLEADERSTYLE_CLASS
 90
     4095
280
     0
281
     0
  0
CLASS
  1
SUN
  2
AcDbSun
  3
SCENEOE
 90
     1153
280
     0
281
     0
  0
CLASS
  1
ACDBPLACEHOLDER
  2
AcDbPlaceHolder
  3
ObjectDBX Classes
 90
        0
280
     0
281
     0
  0
CLASS
  1
LAYOUT
  2
AcDbLayout
  3
ObjectDBX Classes
 90
        0
280
     0
281
     0
  0
ENDSEC
  0
SECTION
  2
TABLES
  0
TABLE
  2
VPORT
  5
8
330
0
100
AcDbSymbolTable
 70
     1
  0
VPORT
  5
29
330
8
100
AcDbSymbolTableRecord
100
AcDbViewportTableRecord
  2
*Active
 70
     0
 10
0.0
 20
0.0
 11
1.0
 21
1.0
 12
420.5
 22
297.0
 13
0.0
 23
0.0
 14
10.0
 24
10.0
 15
10.0
 25
10.0
 16
0.0
 26
0.0
 36
1.0
 17
0.0
 27
0.0
 37
0.0
 40
594.0
 41
1.4158249158
 42
50.0
 43
0.0
 44
0.0
 50
0.0
 51
0.0
 71
     0
 72
  2000
 73
     1
 74
     3
 75
     0
 76
     0
 77
     0
 78
     0
281
     0
 65
     1
110
0.0
120
0.0
130
0.0
111
1.0
121
0.0
131
0.0
112
0.0
122
1.0
132
0.0
 79
     0
146
0.0
  0
ENDTAB
  0
TABLE
  2
LTYPE
  5
5
330
0
100
AcDbSymbolTable
 70
     6
  0
LTYPE
  5
14
330
5
100
AcDbSymbolTableRecord
100
AcDbLinetypeTableRecord
  2
ByBlock
 70
     0
  3

 72
    65
 73
     0
 40
0.0
  0
LTYPE
  5
15
330
5
100
AcDbSymbolTableRecord
100
AcDbLinetypeTableRecord
  2
ByLayer
 70
     0
  3

 72
    65
 73
     0
 40
0.0
  0
LTYPE
  5
16
330
5
100
AcDbSymbolTableRecord
100
AcDbLinetypeTableRecord
  2
Continuous
 70
     0
  3
Solid line
 72
    65
 73
     0
 40
0.0
  0
LTYPE
  5
5E
330
5
100
AcDbSymbolTableRecord
100
AcDbLinetypeTableRecord
  2
HIDDEN
 70
     0
  3
Hidden __ __ __ __ __ __ __ __ __ __ __ __ __ __
 72
    65
 73
     2
 40
1.905
 49
1.27
 74
     0
 49
-0.635
 74
     0
  0
LTYPE
  5
5F
330
5
100
AcDbSymbolTableRecord
100
AcDbLinetypeTableRecord
  2
PHANTOM
 70
     0
  3
Phantom ______  __  __  ______  __  __  ______
 72
    65
 73
     6
 40
12.7
 49
6.35
 74
     0
 49
-1.27
 74
     0
 49
1.27
 74
     0
 49
-1.27
 74
     0
 49
1.27
 74
     0
 49
-1.27
 74
     0
  0
LTYPE
  5
60
330
5
100
AcDbSymbolTableRecord
100
AcDbLinetypeTableRecord
  2
CENTER
 70
     0
  3
Center ____ _ ____ _ ____ _ ____ _ ____ _ ____
 72
    65
 73
     4
 40
10.16
 49
6.35
 74
     0
 49
-1.27
 74
     0
 49
1.27
 74
     0
 49
-1.27
 74
     0
  0
LTYPE
  5
61
330
5
100
AcDbSymbolTableRecord
100
AcDbLinetypeTableRecord
  2
CENTERX2
 70
     0
  3
Center (2x) ________  __  ________  __  _____
 72
    65
 73
     4
 40
20.32
 49
12.7
 74
     0
 49
-2.54
 74
     0
 49
2.54
 74
     0
 49
-2.54
 74
     0
  0
LTYPE
  5
62
330
5
100
AcDbSymbolTableRecord
100
AcDbLinetypeTableRecord
  2
DOT2
 70
     0
  3
Dot (.5x) ........................................
 72
    65
 73
     2
 40
0.635
 49
0.0
 74
     0
 49
-0.635
 74
     0
  0
ENDTAB
  0
TABLE
  2
LAYER
  5
2
330
0
100
AcDbSymbolTable
 70
     1
  0
LAYER
  5
10
330
2
100
AcDbSymbolTableRecord
100
AcDbLayerTableRecord
  2
0
 70
     0
 62
     7
  6
Continuous
370
    -3
390
F
  0
ENDTAB
  0
TABLE
  2
STYLE
  5
3
330
0
100
AcDbSymbolTable
 70
     1
  0
STYLE
  5
11
330
3
100
AcDbSymbolTableRecord
100
AcDbTextStyleTableRecord
  2
Standard
 70
     0
 40
0.0
 41
1.0
 50
0.0
 71
     0
 42
3.5
  3
txt
  4
bigfont
  0
ENDTAB
  0
TABLE
  2
VIEW
  5
6
330
0
100
AcDbSymbolTable
 70
     0
  0
ENDTAB
  0
TABLE
  2
UCS
  5
7
330
0
100
AcDbSymbolTable
 70
     0
  0
ENDTAB
  0
TABLE
  2
APPID
  5
9
330
0
100
AcDbSymbolTable
 70
     1
  0
APPID
  5
12
330
9
100
AcDbSymbolTableRecord
100
AcDbRegAppTableRecord
  2
ACAD
 70
     0
  0
ENDTAB
  0
TABLE
  2
DIMSTYLE
  5
A
330
0
100
AcDbSymbolTable
 70
     1
100
AcDbDimStyleTable
  0
DIMSTYLE
105
27
330
A
100
AcDbSymbolTableRecord
100
AcDbDimStyleTableRecord
  2
ISO-25
 70
     0
 41
2.5
 42
0.625
 43
3.75
 44
1.25
 73
     0
 74
     0
 77
     1
 78
     8
140
2.5
141
2.5
143
0.0393700787
147
0.625
171
     3
172
     1
178
     0
271
     2
272
     2
274
     3
278
    44
283
     0
284
     8
340
11
  0
ENDTAB
  0
TABLE
  2
BLOCK_RECORD
  5
1
330
0
100
AcDbSymbolTable
 70
     1
  0
BLOCK_RECORD
  5
1F
330
1
100
AcDbSymbolTableRecord
100
AcDbBlockTableRecord
  2
*Model_Space
340
22
  0
BLOCK_RECORD
  5
1B
330
1
100
AcDbSymbolTableRecord
100
AcDbBlockTableRecord
  2
*Paper_Space
340
1E
  0
BLOCK_RECORD
  5
23
330
1
100
AcDbSymbolTableRecord
100
AcDbBlockTableRecord
  2
*Paper_Space0
340
26
  0
ENDTAB
  0
ENDSEC
  0
SECTION
  2
BLOCKS
  0
BLOCK
  5
20
330
1F
100
AcDbEntity
  8
0
100
AcDbBlockBegin
  2
*Model_Space
 70
     0
 10
0.0
 20
0.0
 30
0.0
  3
*Model_Space
  1

  0
ENDBLK
  5
21
330
1F
100
AcDbEntity
  8
0
100
AcDbBlockEnd
  0
BLOCK
  5
1C
330
1B
100
AcDbEntity
 67
     1
  8
0
100
AcDbBlockBegin
  2
*Paper_Space
 70
     0
 10
0.0
 20
0.0
 30
0.0
  3
*Paper_Space
  1

  0
ENDBLK
  5
1D
330
1B
100
AcDbEntity
 67
     1
  8
0
100
AcDbBlockEnd
  0
BLOCK
  5
24
330
23
100
AcDbEntity
  8
0
100
AcDbBlockBegin
  2
*Paper_Space0
 70
     0
 10
0.0
 20
0.0
 30
0.0
  3
*Paper_Space0
  1

  0
ENDBLK
  5
25
330
23
100
AcDbEntity
  8
0
100
AcDbBlockEnd
  0
ENDSEC
  0
SECTION
  2
ENTITIES
  0
LINE
  5
63
330
1F
100
AcDbEntity
  8
0
  6
Continuous
 62
     7
370
    25
100
AcDbLine
 10
1232.3357287525
 20
-559.1805454886
 30
0.0
 11
-622.6642712475
 21
-559.1805454886
 31
0.0
  0
LINE
  5
64
330
1F
100
AcDbEntity
  8
0
  6
Continuous
 62
     7
370
    25
100
AcDbLine
 10
-622.6642712475
 20
-599.1805454886
 30
0.0
 11
1232.3357287525
 21
-599.1805454886
 31
0.0
  0
ARC
  5
65
330
1F
100
AcDbEntity
  8
0
  6
Continuous
 62
     7
370
    25
100
AcDbCircle
 10
1232.8357287525
 20
-563.6805454886
 30
0.0
 40
0.5
100
AcDbArc
 50
180.0
 51
270.0
  0
ARC
  5
66
330
1F
100
AcDbEntity
  8
0
  6
Continuous
 62
     7
370
    25
100
AcDbCircle
 10
1232.8357287525
 20
-594.6805454886
 30
0.0
 40
0.5
100
AcDbArc
 50
90.0
 51
180.0
  0
ARC
  5
67
330
1F
100
AcDbEntity
  8
0
  6
Continuous
 62
     7
370
    25
100
AcDbCircle
 10
-623.1642712475
 20
-563.6805454886
 30
0.0
 40
0.5
100
AcDbArc
 50
270.0
 51
0.0
  0
ARC
  5
68
330
1F
100
AcDbEntity
  8
0
  6
Continuous
 62
     7
370
    25
100
AcDbCircle
 10
-623.1642712475
 20
-594.6805454886
 30
0.0
 40
0.5
100
AcDbArc
 50
0.0
 51
90.0
  0
LINE
  5
69
330
1F
100
AcDbEntity
  8
0
  6
Continuous
 62
     7
370
    25
100
AcDbLine
 10
-652.6642712475
 20
-564.1805454886
 30
0.0
 11
-653.6642712475
 21
-565.1805454886
 31
0.0
  0
LINE
  5
6A
330
1F
100
AcDbEntity
  8
0
  6
Continuous
 62
     7
370
    25
100
AcDbLine
 10
-652.6642712475
 20
-594.1805454886
 30
0.0
 11
-623.1642712475
 21
-594.1805454886
 31
0.0
  0
LINE
  5
6B
330
1F
100
AcDbEntity
  8
0
  6
Continuous
 62
     7
370
    25
100
AcDbLine
 10
1342.3357287525
 20
-594.1805454886
 30
0.0
 11
1343.3357287525
 21
-593.1805454886
 31
0.0
  0
LINE
  5
6C
330
1F
100
AcDbEntity
  8
0
  6
Continuous
 62
     7
370
    25
100
AcDbLine
 10
-653.6642712475
 20
-593.1805454886
 30
0.0
 11
-652.6642712475
 21
-594.1805454886
 31
0.0
  0
LINE
  5
6D
330
1F
100
AcDbEntity
  8
0
  6
Continuous
 62
     7
370
    25
100
AcDbLine
 10
1342.3357287525
 20
-564.1805454886
 30
0.0
 11
1232.8357287525
 21
-564.1805454886
 31
0.0
  0
LINE
  5
6E
330
1F
100
AcDbEntity
  8
0
  6
Continuous
 62
     7
370
    25
100
AcDbLine
 10
1232.8357287525
 20
-594.1805454886
 30
0.0
 11
1342.3357287525
 21
-594.1805454886
 31
0.0
  0
LINE
  5
6F
330
1F
100
AcDbEntity
  8
0
  6
Continuous
 62
     7
370
    25
100
AcDbLine
 10
1343.3357287525
 20
-565.1805454886
 30
0.0
 11
1342.3357287525
 21
-564.1805454886
 31
0.0
  0
LINE
  5
70
330
1F
100
AcDbEntity
  8
0
  6
Continuous
 62
     7
370
    25
100
AcDbLine
 10
-623.1642712475
 20
-564.1805454886
 30
0.0
 11
-652.6642712475
 21
-564.1805454886
 31
0.0
  0
LINE
  5
71
330
1F
100
AcDbEntity
  8
0
  6
Continuous
 62
     7
370
    25
100
AcDbLine
 10
1373.3357287525
 20
-566.6805454886
 30
0.0
 11
1343.3357287525
 21
-566.6805454886
 31
0.0
  0
LINE
  5
72
330
1F
100
AcDbEntity
  8
0
  6
Continuous
 62
     7
370
    25
100
AcDbLine
 10
1343.3357287525
 20
-591.6805454886
 30
0.0
 11
1373.3357287525
 21
-591.6805454886
 31
0.0
  0
LINE
  5
73
330
1F
100
AcDbEntity
  8
0
  6
Continuous
 62
     7
370
    25
100
AcDbLine
 10
1373.3357287525
 20
-591.6805454886
 30
0.0
 11
1374.3357287525
 21
-590.6805454886
 31
0.0
  0
LINE
  5
74
330
1F
100
AcDbEntity
  8
0
  6
Continuous
 62
     7
370
    25
100
AcDbLine
 10
1374.3357287525
 20
-567.6805454886
 30
0.0
 11
1373.3357287525
 21
-566.6805454886
 31
0.0
  0
LINE
  5
75
330
1F
100
AcDbEntity
  8
0
  6
Continuous
 62
     7
370
    25
100
AcDbLine
 10
-622.6642712475
 20
-579.1805454886
 30
0.0
 11
-622.6642712475
 21
-559.1805454886
 31
0.0
  0
LINE
  5
76
330
1F
100
AcDbEntity
  8
0
  6
Continuous
 62
     7
370
    25
100
AcDbLine
 10
1232.3357287525
 20
-579.1805454886
 30
0.0
 11
1232.3357287525
 21
-559.1805454886
 31
0.0
  0
LINE
  5
77
330
1F
100
AcDbEntity
  8
0
  6
Continuous
 62
     7
370
    25
100
AcDbLine
 10
1232.3357287525
 20
-599.1805454886
 30
0.0
 11
1232.3357287525
 21
-579.1805454886
 31
0.0
  0
LINE
  5
78
330
1F
100
AcDbEntity
  8
0
  6
Continuous
 62
     7
370
    25
100
AcDbLine
 10
-622.6642712475
 20
-599.1805454886
 30
0.0
 11
-622.6642712475
 21
-579.1805454886
 31
0.0
  0
LINE
  5
79
330
1F
100
AcDbEntity
  8
0
  6
Continuous
 62
     7
370
    25
100
AcDbLine
 10
-652.6642712475
 20
-579.1805454886
 30
0.0
 11
-652.6642712475
 21
-564.1805454886
 31
0.0
  0
LINE
  5
7A
330
1F
100
AcDbEntity
  8
0
  6
Continuous
 62
     7
370
    25
100
AcDbLine
 10
-653.6642712475
 20
-579.1805454886
 30
0.0
 11
-653.6642712475
 21
-565.1805454886
 31
0.0
  0
LINE
  5
7B
330
1F
100
AcDbEntity
  8
0
  6
Continuous
 62
     7
370
    25
100
AcDbLine
 10
-652.6642712475
 20
-594.1805454886
 30
0.0
 11
-652.6642712475
 21
-579.1805454886
 31
0.0
  0
LINE
  5
7C
330
1F
100
AcDbEntity
  8
0
  6
Continuous
 62
     7
370
    25
100
AcDbLine
 10
1342.3357287525
 20
-594.1805454886
 30
0.0
 11
1342.3357287525
 21
-579.1805454886
 31
0.0
  0
LINE
  5
7D
330
1F
100
AcDbEntity
  8
0
  6
Continuous
 62
     7
370
    25
100
AcDbLine
 10
1343.3357287525
 20
-593.1805454886
 30
0.0
 11
1343.3357287525
 21
-579.1805454886
 31
0.0
  0
LINE
  5
7E
330
1F
100
AcDbEntity
  8
0
  6
Continuous
 62
     7
370
    25
100
AcDbLine
 10
-653.6642712475
 20
-593.1805454886
 30
0.0
 11
-653.6642712475
 21
-579.1805454886
 31
0.0
  0
LINE
  5
7F
330
1F
100
AcDbEntity
  8
0
  6
Continuous
 62
     7
370
    25
100
AcDbLine
 10
1342.3357287525
 20
-579.1805454886
 30
0.0
 11
1342.3357287525
 21
-564.1805454886
 31
0.0
  0
LINE
  5
80
330
1F
100
AcDbEntity
  8
0
  6
Continuous
 62
     7
370
    25
100
AcDbLine
 10
1343.3357287525
 20
-579.1805454886
 30
0.0
 11
1343.3357287525
 21
-565.1805454886
 31
0.0
  0
LINE
  5
81
330
1F
100
AcDbEntity
  8
0
  6
Continuous
 62
     7
370
    25
100
AcDbLine
 10
1373.3357287525
 20
-575.1805454886
 30
0.0
 11
1373.3357287525
 21
-566.6805454886
 31
0.0
  0
LINE
  5
82
330
1F
100
AcDbEntity
  8
0
  6
Continuous
 62
     7
370
    25
100
AcDbLine
 10
1373.3357287525
 20
-575.1805454886
 30
0.0
 11
1349.3357287525
 21
-575.1805454886
 31
0.0
  0
SPLINE
  5
83
330
1F
100
AcDbEntity
  8
0
  6
Continuous
 62
     7
370
    25
100
AcDbSpline
210
0.0
220
0.0
230
1.0
 70
     8
 71
     3
 72
    24
 73
    20
 74
     0
 42
0.00000001
 43
0.00000001
 40
0.0
 40
0.0
 40
0.0
 40
0.0
 40
0.0308896850159201
 40
0.062012084573593
 40
0.0933754763753188
 40
0.1249879487852018
 40
0.1860788899812757
 40
0.2503337682660594
 40
0.309322707773557
 40
0.3750940947955532
 40
0.5002911726990329
 40
0.571716749588471
 40
0.6252460236521666
 40
0.690616405910435
 40
0.7501643673641103
 40
0.8151999384886103
 40
0.878484835028171
 40
0.9400673739132793
 40
1.0
 40
1.0
 40
1.0
 40
1.0
 10
1349.335728752538
 20
-575.1805454886047
 30
0.0
 10
1349.270626319552
 20
-575.1814639466295
 30
0.0
 10
1349.139930989436
 20
-575.1833077820937
 30
0.0
 10
1348.943660323663
 20
-575.19829010303
 30
0.0
 10
1348.746928737602
 20
-575.2224219278864
 30
0.0
 10
1348.489674657236
 20
-575.2672901381425
 30
0.0
 10
1348.169285535838
 20
-575.3475961044301
 30
0.0
 10
1347.80505659926
 20
-575.4782389237129
 30
0.0
 10
1347.447331963942
 20
-575.6471430093459
 30
0.0
 10
1346.999342505856
 20
-575.9148980419114
 30
0.0
 10
1346.574818239642
 20
-576.2639351211518
 30
0.0
 10
1346.227564625328
 20
-576.6526185647864
 30
0.0
 10
1345.993289646114
 20
-576.9727448358275
 30
0.0
 10
1345.801903522594
 20
-577.2928594869852
 30
0.0
 10
1345.632188589985
 20
-577.6525626237631
 30
0.0
 10
1345.49927119128
 20
-578.0241833004407
 30
0.0
 10
1345.404050413237
 20
-578.4123256468826
 30
0.0
 10
1345.346225962225
 20
-578.7980182369647
 30
0.0
 10
1345.339196005236
 20
-579.0541958504704
 30
0.0
 10
1345.335728752538
 20
-579.1805454886047
 30
0.0
  0
LINE
  5
84
330
1F
100
AcDbEntity
  8
0
  6
Continuous
 62
     7
370
    25
100
AcDbLine
 10
1349.3357287525
 20
-583.1805454886
 30
0.0
 11
1373.3357287525
 21
-583.1805454886
 31
0.0
  0
LINE
  5
85
330
1F
100
AcDbEntity
  8
0
  6
Continuous
 62
     7
370
    25
100
AcDbLine
 10
1373.3357287525
 20
-591.6805454886
 30
0.0
 11
1373.3357287525
 21
-583.1805454886
 31
0.0
  0
SPLINE
  5
86
330
1F
100
AcDbEntity
  8
0
  6
Continuous
 62
     7
370
    25
100
AcDbSpline
210
0.0
220
0.0
230
1.0
 70
     8
 71
     3
 72
    27
 73
    23
 74
     0
 42
0.00000001
 43
0.00000001
 40
0.0
 40
0.0
 40
0.0
 40
0.0
 40
0.0297800940116126
 40
0.059966969437498
 40
0.0905676077314472
 40
0.1215887108342164
 40
0.1530367117136394
 40
0.1849177847642119
 40
0.217237856024604
 40
0.2500026131789069
 40
0.309582513479943
 40
0.3750149117530516
 40
0.4285682793481765
 40
0.5001703893020976
 40
0.6245525389766493
 40
0.6905640140735151
 40
0.7497522179507556
 40
0.8135114651681836
 40
0.8741607268873864
 40
0.916544423379387
 40
0.9584842504707195
 40
1.0
 40
1.0
 40
1.0
 40
1.0
 10
1345.335728752538
 20
-579.1805454886047
 30
0.0
 10
1345.336582870351
 20
-579.2433134428237
 30
0.0
 10
1345.338302772805
 20
-579.3697067305962
 30
0.0
 10
1345.35234459692
 20
-579.5601255624363
 30
0.0
 10
1345.375160891309
 20
-579.7521851079125
 30
0.0
 10
1345.407891494174
 20
-579.9453930481369
 30
0.0
 10
1345.450597113749
 20
-580.1392245113063
 30
0.0
 10
1345.503601146815
 20
-580.3331204830321
 30
0.0
 10
1345.567122488141
 20
-580.5264961925039
 30
0.0
 10
1345.661269286288
 20
-580.7702671244135
 30
0.0
 10
1345.802351773572
 20
-581.0690810974455
 30
0.0
 10
1345.993949561601
 20
-581.3893630831693
 30
0.0
 10
1346.228677743369
 20
-581.7098753792981
 30
0.0
 10
1346.575306111992
 20
-582.097460247794
 30
0.0
 10
1346.99918134431
 20
-582.445950459089
 30
0.0
 10
1347.446422082517
 20
-582.7135113476631
 30
0.0
 10
1347.804056759899
 20
-582.8824146426083
 30
0.0
 10
1348.166808100244
 20
-583.0126052979305
 30
0.0
 10
1348.507172566822
 20
-583.0984277555054
 30
0.0
 10
1348.808314466033
 20
-583.1483963618538
 30
0.0
 10
1349.07230002188
 20
-583.1755473717369
 30
0.0
 10
1349.248217148575
 20
-583.1788851031836
 30
0.0
 10
1349.335728752538
 20
-583.1805454886047
 30
0.0
  0
LINE
  5
87
330
1F
100
AcDbEntity
  8
0
  6
Continuous
 62
     7
370
    25
100
AcDbLine
 10
1374.3357287525
 20
-590.6805454886
 30
0.0
 11
1374.3357287525
 21
-583.1805454886
 31
0.0
  0
SPLINE
  5
88
330
1F
100
AcDbEntity
  8
0
  6
Continuous
 62
     7
370
    25
100
AcDbSpline
210
0.0
220
0.0
230
1.0
 70
    24
 71
     3
 72
     8
 73
     4
 74
     0
 42
0.00000001
 43
0.00000001
 40
0.0
 40
0.0
 40
0.0
 40
0.0
 40
1.0
 40
1.0
 40
1.0
 40
1.0
 10
1373.335728752538
 20
-583.1805454886047
 30
0.0
 10
1373.669949804106
 20
-583.1805454886047
 30
0.0
 10
1374.003365057751
 20
-583.1805454886047
 30
0.0
 10
1374.335728752538
 20
-583.1805454886047
 30
0.0
  0
LINE
  5
89
330
1F
100
AcDbEntity
  8
0
  6
Continuous
 62
     7
370
    25
100
AcDbLine
 10
1374.3357287525
 20
-575.1805454886
 30
0.0
 11
1374.3357287525
 21
-567.6805454886
 31
0.0
  0
SPLINE
  5
8A
330
1F
100
AcDbEntity
  8
0
  6
Continuous
 62
     7
370
    25
100
AcDbSpline
210
0.0
220
0.0
230
1.0
 70
    24
 71
     3
 72
     8
 73
     4
 74
     0
 42
0.00000001
 43
0.00000001
 40
0.0
 40
0.0
 40
0.0
 40
0.0
 40
1.0
 40
1.0
 40
1.0
 40
1.0
 10
1374.335728752538
 20
-575.1805454886047
 30
0.0
 10
1374.003373843659
 20
-575.1805454886047
 30
0.0
 10
1373.669957893092
 20
-575.1805454886047
 30
0.0
 10
1373.335728752538
 20
-575.1805454886047
 30
0.0
  0
LINE
  5
8B
330
1F
100
AcDbEntity
  8
0
  6
Continuous
 62
     7
370
    25
100
AcDbLine
 10
1374.3357287525
 20
-583.1805454886
 30
0.0
 11
1374.3357287525
 21
-575.1805454886
 31
0.0
  0
LINE
  5
8C
330
1F
100
AcDbEntity
  8
0
  6
HIDDEN
 62
     7
370
    18
100
AcDbLine
 10
1373.3357287525
 20
-575.1805454886
 30
0.0
 11
1373.3357287525
 21
-579.1805454886
 31
0.0
  0
LINE
  5
8D
330
1F
100
AcDbEntity
  8
0
  6
HIDDEN
 62
     7
370
    18
100
AcDbLine
 10
1373.3357287525
 20
-579.1805454886
 30
0.0
 11
1373.3357287525
 21
-583.1805454886
 31
0.0
  0
LINE
  5
8E
330
1F
100
AcDbEntity
  8
0
  6
Continuous
 62
     7
370
    25
100
AcDbLine
 10
-622.6642712475
 20
328.88
 30
0.0
 11
-622.6642712475
 21
368.88
 31
0.0
  0
LINE
  5
8F
330
1F
100
AcDbEntity
  8
0
  6
Continuous
 62
     7
370
    25
100
AcDbLine
 10
1232.3357287525
 20
368.88
 30
0.0
 11
-622.6642712475
 21
368.88
 31
0.0
  0
LINE
  5
90
330
1F
100
AcDbEntity
  8
0
  6
Continuous
 62
     7
370
    25
100
AcDbLine
 10
1232.3357287525
 20
328.88
 30
0.0
 11
1232.3357287525
 21
368.88
 31
0.0
  0
LINE
  5
91
330
1F
100
AcDbEntity
  8
0
  6
Continuous
 62
     7
370
    25
100
AcDbLine
 10
1232.3357287525
 20
328.88
 30
0.0
 11
-622.6642712475
 21
328.88
 31
0.0
  0
ARC
  5
92
330
1F
100
AcDbEntity
  8
0
  6
Continuous
 62
     7
370
    25
100
AcDbCircle
 10
-623.1642712475
 20
364.38
 30
0.0
 40
0.5
100
AcDbArc
 50
270.0
 51
0.0
  0
ARC
  5
93
330
1F
100
AcDbEntity
  8
0
  6
Continuous
 62
     7
370
    25
100
AcDbCircle
 10
-623.1642712475
 20
333.38
 30
0.0
 40
0.5
100
AcDbArc
 50
0.0
 51
90.0
  0
ARC
  5
94
330
1F
100
AcDbEntity
  8
0
  6
Continuous
 62
     7
370
    25
100
AcDbCircle
 10
1232.8357287525
 20
364.38
 30
0.0
 40
0.5
100
AcDbArc
 50
180.0
 51
270.0
  0
ARC
  5
95
330
1F
100
AcDbEntity
  8
0
  6
Continuous
 62
     7
370
    25
100
AcDbCircle
 10
1232.8357287525
 20
333.38
 30
0.0
 40
0.5
100
AcDbArc
 50
90.0
 51
180.0
  0
LINE
  5
96
330
1F
100
AcDbEntity
  8
0
  6
Continuous
 62
     7
370
    25
100
AcDbLine
 10
-652.6642712475
 20
333.88
 30
0.0
 11
-652.6642712475
 21
363.88
 31
0.0
  0
LINE
  5
97
330
1F
100
AcDbEntity
  8
0
  6
Continuous
 62
     7
370
    25
100
AcDbLine
 10
-653.6642712475
 20
334.88
 30
0.0
 11
-652.6642712475
 21
333.88
 31
0.0
  0
LINE
  5
98
330
1F
100
AcDbEntity
  8
0
  6
Continuous
 62
     7
370
    25
100
AcDbLine
 10
-653.6642712475
 20
334.88
 30
0.0
 11
-653.6642712475
 21
362.88
 31
0.0
  0
LINE
  5
99
330
1F
100
AcDbEntity
  8
0
  6
Continuous
 62
     7
370
    25
100
AcDbLine
 10
-653.6642712475
 20
362.88
 30
0.0
 11
-652.6642712475
 21
363.88
 31
0.0
  0
LINE
  5
9A
330
1F
100
AcDbEntity
  8
0
  6
Continuous
 62
     7
370
    25
100
AcDbLine
 10
1342.3357287525
 20
363.88
 30
0.0
 11
1232.8357287525
 21
363.88
 31
0.0
  0
LINE
  5
9B
330
1F
100
AcDbEntity
  8
0
  6
Continuous
 62
     7
370
    25
100
AcDbLine
 10
1342.3357287525
 20
333.88
 30
0.0
 11
1342.3357287525
 21
363.88
 31
0.0
  0
LINE
  5
9C
330
1F
100
AcDbEntity
  8
0
  6
Continuous
 62
     7
370
    25
100
AcDbLine
 10
1342.3357287525
 20
333.88
 30
0.0
 11
1232.8357287525
 21
333.88
 31
0.0
  0
LINE
  5
9D
330
1F
100
AcDbEntity
  8
0
  6
Continuous
 62
     7
370
    25
100
AcDbLine
 10
1343.3357287525
 20
362.88
 30
0.0
 11
1342.3357287525
 21
363.88
 31
0.0
  0
LINE
  5
9E
330
1F
100
AcDbEntity
  8
0
  6
Continuous
 62
     7
370
    25
100
AcDbLine
 10
1343.3357287525
 20
334.88
 30
0.0
 11
1343.3357287525
 21
362.88
 31
0.0
  0
LINE
  5
9F
330
1F
100
AcDbEntity
  8
0
  6
Continuous
 62
     7
370
    25
100
AcDbLine
 10
1343.3357287525
 20
334.88
 30
0.0
 11
1342.3357287525
 21
333.88
 31
0.0
  0
LINE
  5
A0
330
1F
100
AcDbEntity
  8
0
  6
Continuous
 62
     7
370
    25
100
AcDbLine
 10
-623.1642712475
 20
363.88
 30
0.0
 11
-652.6642712475
 21
363.88
 31
0.0
  0
LINE
  5
A1
330
1F
100
AcDbEntity
  8
0
  6
Continuous
 62
     7
370
    25
100
AcDbLine
 10
-623.1642712475
 20
333.88
 30
0.0
 11
-652.6642712475
 21
333.88
 31
0.0
  0
LINE
  5
A2
330
1F
100
AcDbEntity
  8
0
  6
Continuous
 62
     7
370
    25
100
AcDbLine
 10
1373.3357287525
 20
361.38
 30
0.0
 11
1343.3357287525
 21
361.38
 31
0.0
  0
LINE
  5
A3
330
1F
100
AcDbEntity
  8
0
  6
Continuous
 62
     7
370
    25
100
AcDbLine
 10
1373.3357287525
 20
337.0372807177
 30
0.0
 11
1373.3357287525
 21
361.38
 31
0.0
  0
LINE
  5
A4
330
1F
100
AcDbEntity
  8
0
  6
Continuous
 62
     7
370
    25
100
AcDbLine
 10
1373.3357287525
 20
337.0372807177
 30
0.0
 11
1349.3357287525
 21
337.0372807177
 31
0.0
  0
SPLINE
  5
A5
330
1F
100
AcDbEntity
  8
0
  6
Continuous
 62
     7
370
    25
100
AcDbSpline
210
0.0
220
0.0
230
1.0
 70
     8
 71
     3
 72
    24
 73
    20
 74
     0
 42
0.00000001
 43
0.00000001
 40
0.0
 40
0.0
 40
0.0
 40
0.0
 40
0.0308896850159201
 40
0.062012084573593
 40
0.0933754763753188
 40
0.1249879487852018
 40
0.1860788899812757
 40
0.2503337682660594
 40
0.309322707773557
 40
0.3750940947955532
 40
0.5002911726990329
 40
0.571716749588471
 40
0.6252460236521666
 40
0.690616405910435
 40
0.7501643673641103
 40
0.8151999384886103
 40
0.878484835028171
 40
0.9400673739132793
 40
1.0
 40
1.0
 40
1.0
 40
1.0
 10
1349.335728752538
 20
337.037280717673
 30
0.0
 10
1349.270626319552
 20
337.0369659355553
 30
0.0
 10
1349.139930989436
 20
337.0363339998364
 30
0.0
 10
1348.943660323663
 20
337.0312667308157
 30
0.0
 10
1348.746928737602
 20
337.0231899001159
 30
0.0
 10
1348.489674657236
 20
337.0083026358671
 30
0.0
 10
1348.169285535838
 20
336.9818965873808
 30
0.0
 10
1347.80505659926
 20
336.9405696501676
 30
0.0
 10
1347.447331963942
 20
336.8891848954721
 30
0.0
 10
1346.999342505856
 20
336.8125647667006
 30
0.0
 10
1346.574818239642
 20
336.7220014061259
 30
0.0
 10
1346.227564625328
 20
336.6372027895508
 30
0.0
 10
1345.993289646114
 20
336.5750879706154
 30
0.0
 10
1345.801903522594
 20
336.5218124595929
 30
0.0
 10
1345.632188589985
 20
336.4718848981097
 30
0.0
 10
1345.49927119128
 20
336.4317455193313
 30
0.0
 10
1345.404050413237
 20
336.4021903283123
 30
0.0
 10
1345.346225962225
 20
336.383549200145
 30
0.0
 10
1345.339196005236
 20
336.381172309037
 30
0.0
 10
1345.335728752538
 20
336.3800000000001
 30
0.0
  0
LINE
  5
A6
330
1F
100
AcDbEntity
  8
0
  6
Continuous
 62
     7
370
    25
100
AcDbLine
 10
1345.3357287525
 20
336.38
 30
0.0
 11
1343.3357287525
 21
336.38
 31
0.0
  0
SPLINE
  5
A7
330
1F
100
AcDbEntity
  8
0
  6
Continuous
 62
     7
370
    25
100
AcDbSpline
210
0.0
220
0.0
230
1.0
 70
     8
 71
     3
 72
     8
 73
     4
 74
     0
 42
0.00000001
 43
0.00000001
 40
0.0
 40
0.0
 40
0.0
 40
0.0
 40
1.0
 40
1.0
 40
1.0
 40
1.0
 10
1374.335728752538
 20
338.0980706735761
 30
0.0
 10
1374.003373843659
 20
337.7435811071542
 30
0.0
 10
1373.669957893092
 20
337.3900598520362
 30
0.0
 10
1373.335728752538
 20
337.037280717673
 30
0.0
  0
LINE
  5
A8
330
1F
100
AcDbEntity
  8
0
  6
Continuous
 62
     7
370
    25
100
AcDbLine
 10
1374.3357287525
 20
360.38
 30
0.0
 11
1373.3357287525
 21
361.38
 31
0.0
  0
LINE
  5
A9
330
1F
100
AcDbEntity
  8
0
  6
Continuous
 62
     7
370
    25
100
AcDbLine
 10
1374.3357287525
 20
338.0980706736
 30
0.0
 11
1374.3357287525
 21
360.38
 31
0.0
  0
LINE
  5
AA
330
1F
100
AcDbEntity
  8
0
  6
HIDDEN
 62
     7
370
    18
100
AcDbLine
 10
1349.3357287525
 20
340.38
 30
0.0
 11
1345.3357287525
 21
340.38
 31
0.0
  0
LINE
  5
AB
330
1F
100
AcDbEntity
  8
0
  6
HIDDEN
 62
     7
370
    18
100
AcDbLine
 10
1374.3357287525
 20
340.38
 30
0.0
 11
1349.3357287525
 21
340.38
 31
0.0
  0
LINE
  5
AC
330
1F
100
AcDbEntity
  8
0
  6
HIDDEN
 62
     7
370
    18
100
AcDbLine
 10
1345.3357287525
 20
340.38
 30
0.0
 11
1345.3357287525
 21
336.3775
 31
0.0
  0
ARC
  5
AD
330
1F
100
AcDbEntity
  8
0
  6
Continuous
 62
     7
370
    25
100
AcDbCircle
 10
1466.38
 20
-579.1805454886
 30
0.0
 40
12.50000000000014
100
AcDbArc
 50
198.6629248849
 51
0.0
  0
SPLINE
  5
AE
330
1F
100
AcDbEntity
  8
0
  6
Continuous
 62
     7
370
    25
100
AcDbSpline
210
0.0
220
0.0
230
1.0
 70
    24
 71
     3
 72
     8
 73
     4
 74
     0
 42
0.00000001
 43
0.00000001
 40
0.0
 40
0.0
 40
0.0
 40
0.0
 40
1.0
 40
1.0
 40
1.0
 40
1.0
 10
1454.537280717669
 20
-583.1805454886046
 30
0.0
 10
1454.890051314101
 20
-583.1805454886046
 30
0.0
 10
1455.243571736107
 20
-583.1805454886046
 30
0.0
 10
1455.598070673573
 20
-583.1805454886046
 30
0.0
  0
ARC
  5
AF
330
1F
100
AcDbEntity
  8
0
  6
Continuous
 62
     7
370
    25
100
AcDbCircle
 10
1466.38
 20
-579.1805454886
 30
0.0
 40
11.50000000000009
100
AcDbArc
 50
200.3544063982
 51
0.0
  0
SPLINE
  5
B0
330
1F
100
AcDbEntity
  8
0
  6
Continuous
 62
     7
370
    25
100
AcDbSpline
210
0.0
220
0.0
230
1.0
 70
    24
 71
     3
 72
     8
 73
     4
 74
     0
 42
0.00000001
 43
0.00000001
 40
0.0
 40
0.0
 40
0.0
 40
0.0
 40
1.0
 40
1.0
 40
1.0
 40
1.0
 10
1455.598070673573
 20
-575.1805454886045
 30
0.0
 10
1455.243581107151
 20
-575.1805454886045
 30
0.0
 10
1454.890059852033
 20
-575.1805454886045
 30
0.0
 10
1454.537280717669
 20
-575.1805454886045
 30
0.0
  0
ARC
  5
B1
330
1F
100
AcDbEntity
  8
0
  6
Continuous
 62
     7
370
    25
100
AcDbCircle
 10
1466.38
 20
-579.1805454886
 30
0.0
 40
12.50000000000017
100
AcDbArc
 50
0.0
 51
161.3370751151
  0
ARC
  5
B2
330
1F
100
AcDbEntity
  8
0
  6
Continuous
 62
     7
370
    25
100
AcDbCircle
 10
1466.38
 20
-579.1805454886
 30
0.0
 40
11.50000000000013
100
AcDbArc
 50
0.0
 51
159.6455936018
  0
LINE
  5
B3
330
1F
100
AcDbEntity
  8
0
  6
Continuous
 62
     7
370
    25
100
AcDbLine
 10
1455.5980706736
 20
-583.1805454886
 30
0.0
 11
1457.88
 21
-583.1805454886
 31
0.0
  0
LINE
  5
B4
330
1F
100
AcDbEntity
  8
0
  6
Continuous
 62
     7
370
    25
100
AcDbLine
 10
1457.88
 20
-583.1805454886
 30
0.0
 11
1457.88
 21
-575.1805454886
 31
0.0
  0
LINE
  5
B5
330
1F
100
AcDbEntity
  8
0
  6
Continuous
 62
     7
370
    25
100
AcDbLine
 10
1457.88
 20
-575.1805454886
 30
0.0
 11
1455.5980706736
 21
-575.1805454886
 31
0.0
  0
SPLINE
  5
B6
330
1F
100
AcDbEntity
  8
0
  6
Continuous
 62
     7
370
    25
100
AcDbSpline
210
0.0
220
0.0
230
1.0
 70
     8
 71
     3
 72
    27
 73
    23
 74
     0
 42
0.00000001
 43
0.00000001
 40
0.0
 40
0.0
 40
0.0
 40
0.0
 40
0.0297800940116126
 40
0.059966969437498
 40
0.0905676077314472
 40
0.1215887108342164
 40
0.1530367117136394
 40
0.1849177847642119
 40
0.217237856024604
 40
0.2500026131789069
 40
0.309582513479943
 40
0.3750149117530516
 40
0.4285682793481765
 40
0.5001703893020976
 40
0.6245525389766493
 40
0.6905640140735151
 40
0.7497522179507556
 40
0.8135114651681836
 40
0.8741607268873864
 40
0.916544423379387
 40
0.9584842504707195
 40
1.0
 40
1.0
 40
1.0
 40
1.0
 10
1453.879999999997
 20
-579.1805454886046
 30
0.0
 10
1453.880289220053
 20
-579.2433134428236
 30
0.0
 10
1453.880871610768
 20
-579.369706730596
 30
0.0
 10
1453.885508949682
 20
-579.560125562436
 30
0.0
 10
1453.892888249175
 20
-579.7521851079123
 30
0.0
 10
1453.903290522757
 20
-579.9453930481367
 30
0.0
 10
1453.916638603158
 20
-580.1392245113062
 30
0.0
 10
1453.93295450936
 20
-580.333120483032
 30
0.0
 10
1453.952228470249
 20
-580.5264961925037
 30
0.0
 10
1453.980444544762
 20
-580.7702671244134
 30
0.0
 10
1454.021940815784
 20
-581.0690810974453
 30
0.0
 10
1454.07526804946
 20
-581.3893630831692
 30
0.0
 10
1454.137491299234
 20
-581.7098753792978
 30
0.0
 10
1454.222098828628
 20
-582.0974602477937
 30
0.0
 10
1454.312507101667
 20
-582.4459504590887
 30
0.0
 10
1454.389050317999
 20
-582.7135113476629
 30
0.0
 10
1454.440436192058
 20
-582.8824146426081
 30
0.0
 10
1454.481613320674
 20
-583.0126052979302
 30
0.0
 10
1454.509822395993
 20
-583.0984277555052
 30
0.0
 10
1454.526424292175
 20
-583.1483963618537
 30
0.0
 10
1454.535568307508
 20
-583.1755473717368
 30
0.0
 10
1454.536711851246
 20
-583.1788851031833
 30
0.0
 10
1454.537280717669
 20
-583.1805454886046
 30
0.0
  0
SPLINE
  5
B7
330
1F
100
AcDbEntity
  8
0
  6
Continuous
 62
     7
370
    25
100
AcDbSpline
210
0.0
220
0.0
230
1.0
 70
     8
 71
     3
 72
    24
 73
    20
 74
     0
 42
0.00000001
 43
0.00000001
 40
0.0
 40
0.0
 40
0.0
 40
0.0
 40
0.0308896850159201
 40
0.062012084573593
 40
0.0933754763753188
 40
0.1249879487852018
 40
0.1860788899812757
 40
0.2503337682660594
 40
0.309322707773557
 40
0.3750940947955532
 40
0.5002911726990329
 40
0.571716749588471
 40
0.6252460236521666
 40
0.690616405910435
 40
0.7501643673641103
 40
0.8151999384886103
 40
0.878484835028171
 40
0.9400673739132793
 40
1.0
 40
1.0
 40
1.0
 40
1.0
 10
1454.537280717669
 20
-575.1805454886045
 30
0.0
 10
1454.536965935552
 20
-575.1814639466293
 30
0.0
 10
1454.536333999833
 20
-575.1833077820935
 30
0.0
 10
1454.531266730812
 20
-575.1982901030298
 30
0.0
 10
1454.523189900112
 20
-575.2224219278863
 30
0.0
 10
1454.508302635864
 20
-575.2672901381422
 30
0.0
 10
1454.481896587377
 20
-575.34759610443
 30
0.0
 10
1454.440569650164
 20
-575.4782389237126
 30
0.0
 10
1454.389184895468
 20
-575.6471430093457
 30
0.0
 10
1454.312564766697
 20
-575.9148980419112
 30
0.0
 10
1454.222001406122
 20
-576.2639351211516
 30
0.0
 10
1454.137202789547
 20
-576.6526185647863
 30
0.0
 10
1454.075087970612
 20
-576.9727448358273
 30
0.0
 10
1454.021812459589
 20
-577.292859486985
 30
0.0
 10
1453.971884898106
 20
-577.652562623763
 30
0.0
 10
1453.931745519328
 20
-578.0241833004404
 30
0.0
 10
1453.902190328309
 20
-578.4123256468824
 30
0.0
 10
1453.883549200142
 20
-578.7980182369645
 30
0.0
 10
1453.881172309034
 20
-579.0541958504703
 30
0.0
 10
1453.879999999997
 20
-579.1805454886046
 30
0.0
  0
ARC
  5
B8
330
1F
100
AcDbEntity
  8
0
  6
Continuous
 62
     7
370
    25
100
AcDbCircle
 10
1466.38
 20
-579.1805454886
 30
0.0
 40
15.00000000000023
100
AcDbArc
 50
180.0
 51
0.0
  0
ARC
  5
B9
330
1F
100
AcDbEntity
  8
0
  6
Continuous
 62
     7
370
    25
100
AcDbCircle
 10
1466.38
 20
-579.1805454886
 30
0.0
 40
14.0
100
AcDbArc
 50
180.0
 51
0.0
  0
ARC
  5
BA
330
1F
100
AcDbEntity
  8
0
  6
Continuous
 62
     7
370
    25
100
AcDbCircle
 10
1466.38
 20
-579.1805454886
 30
0.0
 40
15.00000000000023
100
AcDbArc
 50
0.0
 51
180.0
  0
ARC
  5
BB
330
1F
100
AcDbEntity
  8
0
  6
Continuous
 62
     7
370
    25
100
AcDbCircle
 10
1466.38
 20
-579.1805454886
 30
0.0
 40
14.0
100
AcDbArc
 50
0.0
 51
180.0
  0
ARC
  5
BC
330
1F
100
AcDbEntity
  8
0
  6
Continuous
 62
     7
370
    25
100
AcDbCircle
 10
1466.38
 20
-579.1805454886
 30
0.0
 40
20.0
100
AcDbArc
 50
0.0
 51
180.0
  0
ARC
  5
BD
330
1F
100
AcDbEntity
  8
0
  6
Continuous
 62
     7
370
    25
100
AcDbCircle
 10
1466.38
 20
-579.1805454886
 30
0.0
 40
20.0
100
AcDbArc
 50
180.0
 51
0.0
  0
LINE
  5
BE
330
1F
100
AcDbEntity
  8
0
  6
Continuous
 62
     7
370
    25
100
AcDbLine
 10
1478.88
 20
1151.5396180837
 30
0.0
 11
1478.88
 21
1176.0358424403
 31
0.0
  0
LINE
  5
BF
330
1F
100
AcDbEntity
  8
0
  6
Continuous
 62
     7
370
    25
100
AcDbLine
 10
1458.246950704
 20
1181.5459669938
 30
0.0
 11
1457.5397290261
 21
1181.1375638985
 31
0.0
  0
LINE
  5
C0
330
1F
100
AcDbEntity
  8
0
  6
Continuous
 62
     7
370
    25
100
AcDbLine
 10
1453.88
 20
1176.0358424403
 30
0.0
 11
1453.88
 21
1151.5396180837
 31
0.0
  0
LINE
  5
C1
330
1F
100
AcDbEntity
  8
0
  6
Continuous
 62
     7
370
    25
100
AcDbLine
 10
1481.38
 20
1061.3118583703
 30
0.0
 11
1481.38
 21
1150.7230772718
 31
0.0
  0
LINE
  5
C2
330
1F
100
AcDbEntity
  8
0
  6
Continuous
 62
     7
370
    25
100
AcDbLine
 10
1451.38
 20
1150.7230772718
 30
0.0
 11
1451.38
 21
1061.3118583703
 31
0.0
  0
LINE
  5
C3
330
1F
100
AcDbEntity
  8
0
  6
Continuous
 62
     7
370
    25
100
AcDbLine
 10
1486.38
 20
-453.7796180837
 30
0.0
 11
1486.38
 21
1060.9035879644
 31
0.0
  0
LINE
  5
C4
330
1F
100
AcDbEntity
  8
0
  6
Continuous
 62
     7
370
    25
100
AcDbLine
 10
1446.38
 20
1060.9035879644
 30
0.0
 11
1446.38
 21
-453.7796180837
 31
0.0
  0
LINE
  5
C5
330
1F
100
AcDbEntity
  8
0
  6
Continuous
 62
     7
370
    25
100
AcDbLine
 10
1481.38
 20
-478.2758424403
 30
0.0
 11
1481.38
 21
-461.4164166893
 31
0.0
  0
LINE
  5
C6
330
1F
100
AcDbEntity
  8
0
  6
Continuous
 62
     7
370
    25
100
AcDbLine
 10
1451.38
 20
-461.4164166893
 30
0.0
 11
1451.38
 21
-478.2758424403
 31
0.0
  0
LINE
  5
C7
330
1F
100
AcDbEntity
  8
0
  6
Continuous
 62
     7
370
    25
100
AcDbLine
 10
1476.2811034908
 20
-484.8063112854
 30
0.0
 11
1476.9883251687
 21
-484.3979081902
 31
0.0
  0
LWPOLYLINE
  5
C8
330
1F
100
AcDbEntity
  8
0
  6
Continuous
 62
     7
370
    25
100
AcDbPolyline
 90
       17
 70
   128
 43
0.0
 10
1475.2188347648
 20
1181.1383931392
 10
1476.6298468369
 20
1180.1661994545
 10
1477.7242090748
 20
1179.0664061204
 10
1478.4681132054
 20
1177.8729891934
 10
1478.8385777028
 20
1176.6228170559
 10
1478.8241577598
 20
1175.3545114362
 10
1478.4252988535
 20
1174.1072542628
 10
1477.6543229833
 20
1172.9195772115
 10
1476.5350480058
 20
1171.8281713419
 10
1475.1020518265
 20
1170.8667535959
 10
1473.3996041804
 20
1170.065025175
 10
1471.4802990012
 20
1169.4477539786
 10
1469.4034296301
 20
1169.0340094447
 10
1467.2331570594
 20
1168.8365734365
 10
1465.036527798
 20
1168.8615453699
 10
1462.8814025959
 20
1169.1081537837
 10
1460.8343600125
 20
1169.5687801726
  0
SPLINE
  5
C9
330
1F
100
AcDbEntity
  8
0
  6
Continuous
 62
     7
370
    25
100
AcDbSpline
210
0.0
220
0.0
230
1.0
 70
     8
 71
     3
 72
     8
 73
     4
 74
     0
 42
0.00000001
 43
0.00000001
 40
0.0
 40
0.0
 40
0.0
 40
0.0
 40
1.0
 40
1.0
 40
1.0
 40
1.0
 10
1460.834360012524
 20
1169.568780172554
 30
0.0
 10
1461.083806493464
 20
1169.98568768962
 30
0.0
 10
1461.333783181152
 20
1170.402243321637
 30
0.0
 10
1461.584451783758
 20
1170.81833974691
 30
0.0
  0
LWPOLYLINE
  5
CA
330
1F
100
AcDbEntity
  8
0
  6
Continuous
 62
     7
370
    25
100
AcDbPolyline
 90
       16
 70
   128
 43
0.0
 10
1474.5117279836
 20
1181.5467298951
 10
1475.8736830743
 20
1180.5989752415
 10
1476.9089964326
 20
1179.5223145259
 10
1477.5820468411
 20
1178.3537915721
 10
1477.8696771806
 20
1177.1336108359
 10
1477.7619911787
 20
1175.903754122
 10
1477.2626939035
 20
1174.7065361491
 10
1476.3889642862
 20
1173.5831486601
 10
1475.1708640586
 20
1172.5722431701
 10
1473.6503034431
 20
1171.7086011141
 10
1471.8795991803
 20
1171.0219371493
 10
1469.9196745074
 20
1170.535876786
 10
1467.8379630207
 20
1170.267143523
 10
1465.7060885401
 20
1170.2249834558
 10
1463.5974008042
 20
1170.4108471527
 10
1461.5844517838
 20
1170.8183397469
  0
LINE
  5
CB
330
1F
100
AcDbEntity
  8
0
  6
Continuous
 62
     7
370
    25
100
AcDbLine
 10
1474.5117279836
 20
1181.5467298951
 30
0.0
 11
1475.2188347648
 21
1181.1383931392
 31
0.0
  0
LINE
  5
CC
330
1F
100
AcDbEntity
  8
0
  6
Continuous
 62
     7
370
    25
100
AcDbLine
 10
1460.8343600125
 20
1149.9718006873
 30
0.0
 11
1460.8343600125
 21
1169.5687801726
 31
0.0
  0
LWPOLYLINE
  5
CD
330
1F
100
AcDbEntity
  8
0
  6
Continuous
 62
     7
370
    25
100
AcDbPolyline
 90
       15
 70
   128
 43
0.0
 10
1478.88
 20
1151.5396180837
 10
1478.8324337261
 20
1150.9106938421
 10
1478.4540728286
 20
1149.6719549038
 10
1477.708847338
 20
1148.4899639661
 10
1476.6194005536
 20
1147.4006352256
 10
1475.2188347648
 20
1146.4370673848
 10
1473.5497054544
 20
1145.628537965
 10
1471.6627282718
 20
1144.9996137234
 10
1469.6152380638
 20
1144.5694042049
 10
1467.4694467843
 20
1144.350981108
 10
1465.2905532157
 20
1144.350981108
 10
1463.1447619362
 20
1144.5694042049
 10
1461.0972717282
 20
1144.9996137234
 10
1459.2102945456
 20
1145.628537965
 10
1457.5411652352
 20
1146.4370673848
  0
SPLINE
  5
CE
330
1F
100
AcDbEntity
  8
0
  6
Continuous
 62
     7
370
    25
100
AcDbSpline
210
0.0
220
0.0
230
1.0
 70
     8
 71
     3
 72
    27
 73
    23
 74
     0
 42
0.00000001
 43
0.00000001
 40
0.0
 40
0.0
 40
0.0
 40
0.0
 40
0.0297800940116126
 40
0.059966969437498
 40
0.0905676077314472
 40
0.1215887108342164
 40
0.1530367117136394
 40
0.1849177847642119
 40
0.217237856024604
 40
0.2500026131789069
 40
0.309582513479943
 40
0.3750149117530516
 40
0.4285682793481765
 40
0.5001703893020976
 40
0.6245525389766493
 40
0.6905640140735151
 40
0.7497522179507556
 40
0.8135114651681836
 40
0.8741607268873864
 40
0.916544423379387
 40
0.9584842504707195
 40
1.0
 40
1.0
 40
1.0
 40
1.0
 10
1457.541165235168
 20
1148.070149008572
 30
0.0
 10
1457.585753390701
 20
1148.045342357931
 30
0.0
 10
1457.675538754006
 20
1147.995390210021
 30
0.0
 10
1457.813464295058
 20
1147.931019173559
 30
0.0
 10
1457.954488854768
 20
1147.874262383646
 30
0.0
 10
1458.098463017669
 20
1147.826366242115
 30
0.0
 10
1458.244961077851
 20
1147.787563074525
 30
0.0
 10
1458.39360332222
 20
1147.758354127722
 30
0.0
 10
1458.543969346149
 20
1147.739152855428
 30
0.0
 10
1458.736293202784
 20
1147.728037191362
 30
0.0
 10
1458.976928884063
 20
1147.738198670454
 30
0.0
 10
1459.241110496613
 20
1147.785674071315
 30
0.0
 10
1459.511745396523
 20
1147.87190457511
 30
0.0
 10
1459.845635843095
 20
1148.031264205977
 30
0.0
 10
1460.155983937621
 20
1148.272025538359
 30
0.0
 10
1460.399302283633
 20
1148.559241665282
 30
0.0
 10
1460.555070248858
 20
1148.803293887265
 30
0.0
 10
1460.676245570958
 20
1149.06315947859
 30
0.0
 10
1460.756878041136
 20
1149.317562940155
 30
0.0
 10
1460.803950494903
 20
1149.549837164607
 30
0.0
 10
1460.829614953356
 20
1149.758041616494
 30
0.0
 10
1460.832783693428
 20
1149.900789453628
 30
0.0
 10
1460.834360012524
 20
1149.971800687296
 30
0.0
  0
LWPOLYLINE
  5
CF
330
1F
100
AcDbEntity
  8
0
  6
Continuous
 62
     7
370
    25
100
AcDbPolyline
 90
       16
 70
   128
 43
0.0
 10
1455.9275975343
 20
1174.0839721942
 10
1455.2217231744
 20
1175.2460229288
 10
1454.899762923
 20
1176.4633424473
 10
1454.9727942146
 20
1177.6940473887
 10
1455.4383043187
 20
1178.8957938501
 10
1456.2802767931
 20
1180.0272342803
 10
1457.4697425489
 20
1181.049440093
 10
1458.9657765678
 20
1181.9272410518
 10
1460.7169059766
 20
1182.6304353453
 10
1462.6628810347
 20
1183.134828717
 10
1464.7367480993
 20
1183.4230668987
 10
1466.8671532476
 20
1183.4852327043
 10
1468.9807972949
 20
1183.3191872437
 10
1471.0049577427
 20
1182.9306435133
 10
1472.8699908848
 20
1182.3329698334
 10
1474.5117279836
 20
1181.5467298951
  0
LINE
  5
D0
330
1F
100
AcDbEntity
  8
0
  6
Continuous
 62
     7
370
    25
100
AcDbLine
 10
1461.5844517838
 20
1170.8183397469
 30
0.0
 11
1463.1980194847
 21
1171.7498325533
 31
0.0
  0
LINE
  5
D1
330
1F
100
AcDbEntity
  8
0
  6
Continuous
 62
     7
370
    25
100
AcDbLine
 10
1463.1980194847
 20
1171.7498325533
 30
0.0
 11
1457.5411652352
 21
1175.0154650005
 31
0.0
  0
LINE
  5
D2
330
1F
100
AcDbEntity
  8
0
  6
Continuous
 62
     7
370
    25
100
AcDbLine
 10
1457.5411652352
 20
1175.0154650005
 30
0.0
 11
1455.9275975343
 21
1174.0839721942
 31
0.0
  0
ARC
  5
D3
330
1F
100
AcDbEntity
  8
0
  6
Continuous
 62
     7
370
    25
100
AcDbCircle
 10
1463.3530300018
 20
1154.7143160341
 30
0.0
 40
5.812951004582522
100
AcDbArc
 50
181.107665289
 51
243.8831401164
  0
LINE
  5
D4
330
1F
100
AcDbEntity
  8
0
  6
Continuous
 62
     7
370
    25
100
AcDbLine
 10
1457.5411652352
 20
1175.0154650005
 30
0.0
 11
1457.5411652352
 21
1154.6019447034
 31
0.0
  0
SPLINE
  5
D5
330
1F
100
AcDbEntity
  8
0
  6
Continuous
 62
     7
370
    25
100
AcDbSpline
210
0.0
220
0.0
230
1.0
 70
     8
 71
     3
 72
     8
 73
     4
 74
     0
 42
0.00000001
 43
0.00000001
 40
0.0
 40
0.0
 40
0.0
 40
0.0
 40
1.0
 40
1.0
 40
1.0
 40
1.0
 10
1455.927597534265
 20
1174.0839721942
 30
0.0
 10
1455.676935557989
 20
1173.667886768278
 30
0.0
 10
1455.426958281201
 20
1173.251330227117
 30
0.0
 10
1455.177505763032
 20
1172.834412619845
 30
0.0
  0
LWPOLYLINE
  5
D6
330
1F
100
AcDbEntity
  8
0
  6
Continuous
 62
     7
370
    25
100
AcDbPolyline
 90
        9
 70
   128
 43
0.0
 10
1455.177505763
 20
1172.8344126198
 10
1454.3795909985
 20
1174.0161451493
 10
1453.9524064098
 20
1175.2602724465
 10
1453.9091490654
 20
1176.5283595271
 10
1454.25115532
 20
1177.7812312141
 10
1454.9678595304
 20
1178.9801823816
 10
1456.0371204614
 20
1180.0881736773
 10
1457.4259052978
 20
1181.0709757839
 10
1457.5397290261
 20
1181.1375638985
  0
ARC
  5
D7
330
1F
100
AcDbEntity
  8
0
  6
Continuous
 62
     7
370
    25
100
AcDbCircle
 10
1459.9772030928
 20
1152.0497140909
 30
0.0
 40
6.118503370179138
100
AcDbArc
 50
184.7822660226
 51
246.537874935
  0
LINE
  5
D8
330
1F
100
AcDbEntity
  8
0
  6
Continuous
 62
     7
370
    25
100
AcDbLine
 10
1455.177505763
 20
1172.8344126198
 30
0.0
 11
1455.177505763
 21
1153.2374331346
 31
0.0
  0
SPLINE
  5
D9
330
1F
100
AcDbEntity
  8
0
  6
Continuous
 62
     7
370
    25
100
AcDbSpline
210
0.0
220
0.0
230
1.0
 70
     8
 71
     3
 72
    24
 73
    20
 74
     0
 42
0.00000001
 43
0.00000001
 40
0.0
 40
0.0
 40
0.0
 40
0.0
 40
0.0308896850159201
 40
0.062012084573593
 40
0.0933754763753188
 40
0.1249879487852018
 40
0.1860788899812757
 40
0.2503337682660594
 40
0.309322707773557
 40
0.3750940947955532
 40
0.5002911726990329
 40
0.571716749588471
 40
0.6252460236521666
 40
0.690616405910435
 40
0.7501643673641103
 40
0.8151999384886103
 40
0.878484835028171
 40
0.9400673739132793
 40
1.0
 40
1.0
 40
1.0
 40
1.0
 10
1455.177505763032
 20
1153.237433134587
 30
0.0
 10
1455.177932626359
 20
1153.183770927472
 30
0.0
 10
1455.178789568887
 20
1153.076042236672
 30
0.0
 10
1455.185800569333
 20
1152.907594903952
 30
0.0
 10
1455.197153164573
 20
1152.733807831112
 30
0.0
 10
1455.218352894801
 20
1152.499356948414
 30
0.0
 10
1455.256465892184
 20
1152.194185877864
 30
0.0
 10
1455.319621758063
 20
1151.826579334181
 30
0.0
 10
1455.402720473889
 20
1151.444559771933
 30
0.0
 10
1455.537873260483
 20
1150.938182758499
 30
0.0
 10
1455.72064177971
 20
1150.412094686987
 30
0.0
 10
1455.935520801624
 20
1149.935270641445
 30
0.0
 10
1456.117962449031
 20
1149.587943196449
 30
0.0
 10
1456.306646214507
 20
1149.279249237126
 30
0.0
 10
1456.525690624444
 20
1148.973457155809
 30
0.0
 10
1456.760083298025
 20
1148.696842550458
 30
0.0
 10
1457.013642707271
 20
1148.44858507011
 30
0.0
 10
1457.273187285035
 20
1148.236318382203
 30
0.0
 10
1457.452651496913
 20
1148.125035137958
 30
0.0
 10
1457.541165235168
 20
1148.070149008572
 30
0.0
  0
LWPOLYLINE
  5
DA
330
1F
100
AcDbEntity
  8
0
  6
Continuous
 62
     7
370
    25
100
AcDbPolyline
 90
       20
 70
   128
 43
0.0
 10
1478.88
 20
1155.5096941145
 10
1479.7450978628
 20
1154.6543243254
 10
1480.6458477444
 20
1153.398952977
 10
1481.1953251089
 20
1152.077692688
 10
1481.38
 20
1150.7230772718
 10
1481.1953251089
 20
1149.3684618556
 10
1480.6458477444
 20
1148.0472015666
 10
1479.7450978628
 20
1146.7918302183
 10
1478.5152549156
 20
1145.6332592194
 10
1476.9866017178
 20
1144.6000164331
 10
1475.1967787844
 20
1143.717543726
 10
1473.1898574961
 20
1143.0075705048
 10
1471.0152549156
 20
1142.4875786665
 10
1468.7265169756
 20
1142.1703721359
 10
1466.38
 20
1142.0637615905
 10
1464.0334830244
 20
1142.1703721359
 10
1461.7447450844
 20
1142.4875786665
 10
1459.5701425039
 20
1143.0075705048
 10
1457.5632212156
 20
1143.717543726
 10
1455.7733982822
 20
1144.6000164331
  0
LWPOLYLINE
  5
DB
330
1F
100
AcDbEntity
  8
0
  6
Continuous
 62
     7
370
    25
100
AcDbPolyline
 90
       19
 70
   128
 43
0.0
 10
1478.88
 20
1155.1792786208
 10
1478.9574737465
 20
1155.0892171987
 10
1479.7979847544
 20
1153.8457134287
 10
1480.2724881163
 20
1152.5393053892
 10
1480.3680406174
 20
1151.205628486
 10
1480.0820358346
 20
1149.8810619484
 10
1479.4222752327
 20
1148.6017364986
 10
1478.4067553612
 20
1147.4025487999
 10
1477.0631769548
 20
1146.3162095668
 10
1475.4281893301
 20
1145.3723513017
 10
1473.5463906873
 20
1144.5967199974
 10
1471.4691115879
 20
1144.0104728542
 10
1469.2530147907
 20
1143.6296011658
 10
1466.9585496395
 20
1143.4644941191
 10
1464.6483031622
 20
1143.5196554038
 10
1462.3852928605
 20
1143.793580364
 10
1460.2312477561
 20
1144.2787970408
 10
1458.2449245844
 20
1144.962069988
 10
1456.4805050634
 20
1145.8247613009
  0
ARC
  5
DC
330
1F
100
AcDbEntity
  8
0
  6
Continuous
 62
     7
370
    25
100
AcDbCircle
 10
1473.933217921
 20
1062.0736951661
 30
0.0
 40
7.485650181229502
100
AcDbArc
 50
297.7650203102
 51
354.1587252942
  0
LWPOLYLINE
  5
DD
330
1F
100
AcDbEntity
  8
0
  6
Continuous
 62
     7
370
    25
100
AcDbPolyline
 90
        9
 70
   128
 43
0.0
 10
1456.4805050634
 20
1145.8247613009
 10
1454.9861179582
 20
1146.8433390094
 10
1453.8025262535
 20
1147.9900189687
 10
1452.9620152456
 20
1149.2335227387
 10
1452.4875118837
 20
1150.5399307782
 10
1452.3919593826
 20
1151.8736076814
 10
1452.6779641654
 20
1153.198174219
 10
1453.3377247673
 20
1154.4774996688
 10
1453.88
 20
1155.1792786208
  0
LWPOLYLINE
  5
DE
330
1F
100
AcDbEntity
  8
0
  6
Continuous
 62
     7
370
    25
100
AcDbPolyline
 90
       10
 70
   128
 43
0.0
 10
1455.7733982822
 20
1144.6000164331
 10
1454.2447450844
 20
1145.6332592194
 10
1453.0149021372
 20
1146.7918302183
 10
1452.1141522556
 20
1148.0472015666
 10
1451.5646748911
 20
1149.3684618556
 10
1451.38
 20
1150.7230772718
 10
1451.5646748911
 20
1152.077692688
 10
1452.1141522556
 20
1153.398952977
 10
1453.0149021372
 20
1154.6543243254
 10
1453.88
 20
1155.5096941145
  0
ARC
  5
DF
330
1F
100
AcDbEntity
  8
0
  6
Continuous
 62
     7
370
    25
100
AcDbCircle
 10
1457.756698036
 20
1061.6295599483
 30
0.0
 40
6.384607437816799
100
AcDbArc
 50
182.8522474122
 51
228.6135009475
  0
LWPOLYLINE
  5
E0
330
1F
100
AcDbEntity
  8
0
  6
Continuous
 62
     7
370
    25
100
AcDbPolyline
 90
       13
 70
   128
 43
0.0
 10
1452.2378643763
 20
1052.7395068461
 10
1450.4438977717
 20
1053.9272231071
 10
1448.9467905993
 20
1055.2448958455
 10
1447.7744311332
 20
1056.6679793114
 10
1446.948658212
 20
1058.1699641525
 10
1446.4848544228
 20
1059.722871233
 10
1446.3916595527
 20
1061.2977728321
 10
1446.6708096457
 20
1062.865331513
 10
1447.3171046637
 20
1064.3963466234
 10
1448.3185053535
 20
1065.8622982485
 10
1449.6563575149
 20
1067.2358784832
 10
1451.3057394935
 20
1068.4915001268
 10
1451.38
 20
1068.5403865699
  0
LWPOLYLINE
  5
E1
330
1F
100
AcDbEntity
  8
0
  6
Continuous
 62
     7
370
    25
100
AcDbPolyline
 90
       24
 70
   128
 43
0.0
 10
1481.38
 20
1068.5403865699
 10
1482.3161022283
 20
1067.8799528217
 10
1483.8132094007
 20
1066.5622800833
 10
1484.9855688668
 20
1065.1391966173
 10
1485.811341788
 20
1063.6372117763
 10
1486.2751455772
 20
1062.0843046958
 10
1486.3683404473
 20
1060.5094030966
 10
1486.0891903543
 20
1058.9418444157
 10
1485.4428953363
 20
1057.4108293054
 10
1484.4414946465
 20
1055.9448776803
 10
1483.1036424851
 20
1054.5712974455
 10
1481.4542605065
 20
1053.315675802
 10
1479.5240735764
 20
1052.2014026052
 10
1477.349037425
 20
1051.2492346564
 10
1474.9696688606
 20
1050.4769090431
 10
1472.4302910176
 20
1049.89881273
 10
1469.7782077006
 20
1049.5257145577
 10
1467.0628222037
 20
1049.3645646392
 10
1464.3347170212
 20
1049.4183648925
 10
1461.6447115907
 20
1049.6861131209
 10
1459.0429156237
 20
1050.1628216812
 10
1456.5777956564
 20
1050.8396103952
 10
1454.2952722096
 20
1051.7038719694
 10
1452.2378643763
 20
1052.7395068461
  0
ARC
  5
E2
330
1F
100
AcDbEntity
  8
0
  6
Continuous
 62
     7
370
    25
100
AcDbCircle
 10
1466.4156372579
 20
1076.5593612201
 30
0.0
 40
24.64077638035548
100
AcDbArc
 50
246.8003028795
 51
289.3872422828
  0
LWPOLYLINE
  5
E3
330
1F
100
AcDbEntity
  8
0
  6
Continuous
 62
     7
370
    25
100
AcDbPolyline
 90
       19
 70
   128
 43
0.0
 10
1486.38
 20
-453.7796180837
 10
1486.3683404473
 20
-454.1738029514
 10
1486.0891903543
 20
-455.7413616323
 10
1485.4428953363
 20
-457.2723767427
 10
1484.4414946465
 20
-458.7383283678
 10
1483.1036424851
 20
-460.1119086025
 10
1481.4542605065
 20
-461.3675302461
 10
1479.5240735764
 20
-462.4818034429
 10
1477.349037425
 20
-463.4339713916
 10
1474.9696688606
 20
-464.206297005
 10
1472.4302910176
 20
-464.7843933181
 10
1469.7782077006
 20
-465.1574914904
 10
1467.0628222037
 20
-465.3186414089
 10
1464.3347170212
 20
-465.2648411555
 10
1461.6447115907
 20
-464.9970929272
 10
1459.0429156237
 20
-464.5203843668
 10
1456.5777956564
 20
-463.8435956529
 10
1454.2952722096
 20
-462.9793340786
 10
1452.2378643763
 20
-461.9436992019
  0
LWPOLYLINE
  5
E4
330
1F
100
AcDbEntity
  8
0
  6
Continuous
 62
     7
370
    25
100
AcDbPolyline
 90
        7
 70
   128
 43
0.0
 10
1452.2378643763
 20
-461.9436992019
 10
1450.4438977717
 20
-460.755982941
 10
1448.9467905993
 20
-459.4383102026
 10
1447.7744311332
 20
-458.0152267366
 10
1446.948658212
 20
-456.5132418956
 10
1446.4848544228
 20
-454.9603348151
 10
1446.38
 20
-453.7796180837
  0
LWPOLYLINE
  5
E5
330
1F
100
AcDbEntity
  8
0
  6
Continuous
 62
     7
370
    25
100
AcDbPolyline
 90
       16
 70
   128
 43
0.0
 10
1481.38
 20
-478.2758424403
 10
1481.1953251089
 20
-479.6304578565
 10
1480.6458477444
 20
-480.9517181454
 10
1479.7450978628
 20
-482.2070894938
 10
1478.5152549156
 20
-483.3656604927
 10
1476.9866017178
 20
-484.3989032789
 10
1475.1967787844
 20
-485.2813759861
 10
1473.1898574961
 20
-485.9913492073
 10
1471.0152549156
 20
-486.5113410456
 10
1468.7265169756
 20
-486.8285475762
 10
1466.38
 20
-486.9351581215
 10
1464.0334830244
 20
-486.8285475762
 10
1461.7447450844
 20
-486.5113410456
 10
1459.5701425039
 20
-485.9913492073
 10
1457.5632212156
 20
-485.2813759861
 10
1455.7733982822
 20
-484.3989032789
  0
ARC
  5
E6
330
1F
100
AcDbEntity
  8
0
  6
Continuous
 62
     7
370
    25
100
AcDbCircle
 10
1458.8231043178
 20
-477.5729896372
 30
0.0
 40
7.476215884244354
100
AcDbArc
 50
185.3944478058
 51
245.9256931518
  0
LINE
  5
E7
330
1F
100
AcDbEntity
  8
0
  6
Continuous
 62
     7
370
    25
100
AcDbLine
 10
1456.4805050634
 20
-484.8072400349
 30
0.0
 11
1455.7733982822
 21
-484.3989032789
 31
0.0
  0
ARC
  5
E8
330
1F
100
AcDbEntity
  8
0
  6
Continuous
 62
     7
370
    25
100
AcDbCircle
 10
1466.3799196787
 20
-465.9474626742
 30
0.0
 40
21.29999088787439
100
AcDbArc
 50
242.3052155084
 51
297.7001594227
  0
ARC
  5
E9
330
1F
100
AcDbEntity
  8
0
  6
HIDDEN
 62
     7
370
    18
100
AcDbCircle
 10
1472.7827969072
 20
1151.0295220765
 30
0.0
 40
6.118503370178364
100
AcDbArc
 50
4.7822660226
 51
66.537874935
  0
LWPOLYLINE
  5
EA
330
1F
100
AcDbEntity
  8
0
  6
HIDDEN
 62
     7
370
    18
100
AcDbPolyline
 90
        6
 70
   128
 43
0.0
 10
1460.7941491775
 20
1149.494878487
 10
1461.2436244088
 20
1149.3582546781
 10
1462.032100111
 20
1149.3670016101
 10
1462.6578379712
 20
1149.7283498177
 10
1463.0595864078
 20
1150.4069280205
 10
1463.1980194847
 20
1151.3363122561
  0
LINE
  5
EB
330
1F
100
AcDbEntity
  8
0
  6
HIDDEN
 62
     7
370
    18
100
AcDbLine
 10
1463.1980194847
 20
1151.3363122561
 30
0.0
 11
1463.1980194847
 21
1171.7498325533
 31
0.0
  0
ARC
  5
EC
330
1F
100
AcDbEntity
  8
0
  6
HIDDEN
 62
     7
370
    18
100
AcDbCircle
 10
1466.3800773125
 20
1164.1799781533
 30
0.0
 40
19.12358418637035
100
AcDbArc
 50
62.4713904063
 51
117.5339845248
  0
LWPOLYLINE
  5
ED
330
1F
100
AcDbEntity
  8
0
  6
HIDDEN
 62
     7
370
    18
100
AcDbPolyline
 90
       15
 70
   128
 43
0.0
 10
1453.88
 20
1151.5396180837
 10
1453.9275662739
 20
1152.1685423253
 10
1454.3059271714
 20
1153.4072812636
 10
1455.051152662
 20
1154.5892722013
 10
1456.1405994464
 20
1155.6786009418
 10
1457.5411652352
 20
1156.6421687826
 10
1459.2102945456
 20
1157.4506982024
 10
1461.0972717282
 20
1158.079622444
 10
1463.1447619362
 20
1158.5098319625
 10
1465.2905532157
 20
1158.7282550594
 10
1467.4694467843
 20
1158.7282550594
 10
1469.6152380638
 20
1158.5098319625
 10
1471.6627282718
 20
1158.079622444
 10
1473.5497054544
 20
1157.4506982024
 10
1475.2188347648
 20
1156.6421687826
  0
LINE
  5
EE
330
1F
100
AcDbEntity
  8
0
  6
HIDDEN
 62
     7
370
    18
100
AcDbLine
 10
1476.2794949366
 20
1157.2544748665
 30
0.0
 11
1476.9866017178
 21
1156.8461381105
 31
0.0
  0
LWPOLYLINE
  5
EF
330
1F
100
AcDbEntity
  8
0
  6
HIDDEN
 62
     7
370
    18
100
AcDbPolyline
 90
        3
 70
   128
 43
0.0
 10
1476.9866017178
 20
1156.8461381105
 10
1478.5152549156
 20
1155.8128953242
 10
1478.88
 20
1155.5096941145
  0
LWPOLYLINE
  5
F0
330
1F
100
AcDbEntity
  8
0
  6
HIDDEN
 62
     7
370
    18
100
AcDbPolyline
 90
        3
 70
   128
 43
0.0
 10
1476.2794949366
 20
1157.2544748665
 10
1477.7738820418
 20
1156.235897158
 10
1478.88
 20
1155.1792786208
  0
ARC
  5
F1
330
1F
100
AcDbEntity
  8
0
  6
HIDDEN
 62
     7
370
    18
100
AcDbCircle
 10
1475.003301964
 20
1060.9941567923
 30
0.0
 40
6.384607437818233
100
AcDbArc
 50
2.8522474122
 51
48.6135009475
  0
LWPOLYLINE
  5
F2
330
1F
100
AcDbEntity
  8
0
  6
HIDDEN
 62
     7
370
    18
100
AcDbPolyline
 90
       13
 70
   128
 43
0.0
 10
1453.88
 20
1155.1792786208
 10
1454.3532446388
 20
1155.6766873674
 10
1455.6968230452
 20
1156.7630266006
 10
1457.3318106699
 20
1157.7068848657
 10
1459.2136093127
 20
1158.48251617
 10
1461.2908884121
 20
1159.0687633132
 10
1463.5069852093
 20
1159.4496350016
 10
1465.8014503605
 20
1159.6147420483
 10
1468.1116968378
 20
1159.5595807635
 10
1470.3747071395
 20
1159.2856558034
 10
1472.5287522439
 20
1158.8004391266
 10
1474.5150754156
 20
1158.1171661794
 10
1476.2794949366
 20
1157.2544748665
  0
LWPOLYLINE
  5
F3
330
1F
100
AcDbEntity
  8
0
  6
HIDDEN
 62
     7
370
    18
100
AcDbPolyline
 90
       13
 70
   128
 43
0.0
 10
1453.88
 20
1155.5096941145
 10
1454.2447450844
 20
1155.8128953242
 10
1455.7733982822
 20
1156.8461381105
 10
1457.5632212156
 20
1157.7286108176
 10
1459.5701425039
 20
1158.4385840388
 10
1461.7447450844
 20
1158.9585758771
 10
1464.0334830244
 20
1159.2757824077
 10
1466.38
 20
1159.3823929531
 10
1468.7265169756
 20
1159.2757824077
 10
1471.0152549156
 20
1158.9585758771
 10
1473.1898574961
 20
1158.4385840388
 10
1475.1967787844
 20
1157.7286108176
 10
1476.9866017178
 20
1156.8461381105
  0
ARC
  5
F4
330
1F
100
AcDbEntity
  8
0
  6
HIDDEN
 62
     7
370
    18
100
AcDbCircle
 10
1458.826782079
 20
1060.5500215745
 30
0.0
 40
7.48565018122804
100
AcDbArc
 50
117.7650203101
 51
174.1587252942
  0
ARC
  5
F5
330
1F
100
AcDbEntity
  8
0
  6
HIDDEN
 62
     7
370
    18
100
AcDbCircle
 10
1466.4339244295
 20
1042.1172466429
 30
0.0
 40
30.41057323251362
100
AcDbArc
 50
62.4018853475
 51
119.6712479913
  0
LINE
  5
F6
330
1F
100
AcDbEntity
  8
0
  6
HIDDEN
 62
     7
370
    18
100
AcDbLine
 10
1480.5221356237
 20
1069.0676690826
 30
0.0
 11
1481.38
 21
1068.5403865699
 31
0.0
  0
LWPOLYLINE
  5
F7
330
1F
100
AcDbEntity
  8
0
  6
HIDDEN
 62
     7
370
    18
100
AcDbPolyline
 90
       13
 70
   128
 43
0.0
 10
1453.0418226588
 20
1065.4617131621
 10
1453.8402365872
 20
1066.1630666185
 10
1455.4198448916
 20
1067.230750831
 10
1457.2693285895
 20
1068.1426392951
 10
1459.343147254
 20
1068.8762782903
 10
1461.5902365872
 20
1069.4136031899
 10
1463.9552657919
 20
1069.7413832715
 10
1466.38
 20
1069.8515475017
 10
1468.8047342081
 20
1069.7413832715
 10
1471.1697634128
 20
1069.4136031899
 10
1473.416852746
 20
1068.8762782903
 10
1475.4906714105
 20
1068.1426392951
 10
1476.9288545975
 20
1067.4595958832
  0
LWPOLYLINE
  5
F8
330
1F
100
AcDbEntity
  8
0
  6
HIDDEN
 62
     7
370
    18
100
AcDbPolyline
 90
        7
 70
   128
 43
0.0
 10
1480.5221356237
 20
-445.6155369655
 10
1482.3161022283
 20
-446.8032532264
 10
1483.8132094007
 20
-448.1209259648
 10
1484.9855688668
 20
-449.5440094307
 10
1485.811341788
 20
-451.0459942718
 10
1486.2751455772
 20
-452.5989013523
 10
1486.38
 20
-453.7796180837
  0
LWPOLYLINE
  5
F9
330
1F
100
AcDbEntity
  8
0
  6
HIDDEN
 62
     7
370
    18
100
AcDbPolyline
 90
       19
 70
   128
 43
0.0
 10
1446.38
 20
-453.7796180837
 10
1446.3916595527
 20
-453.3854332159
 10
1446.6708096457
 20
-451.817874535
 10
1447.3171046637
 20
-450.2868594247
 10
1448.3185053535
 20
-448.8209077996
 10
1449.6563575149
 20
-447.4473275648
 10
1451.3057394935
 20
-446.1917059213
 10
1453.2359264236
 20
-445.0774327245
 10
1455.410962575
 20
-444.1252647757
 10
1457.7903311394
 20
-443.3529391624
 10
1460.3297089824
 20
-442.7748428493
 10
1462.9817922994
 20
-442.401744677
 10
1465.6971777963
 20
-442.2405947585
 10
1468.4252829788
 20
-442.2943950118
 10
1471.1152884093
 20
-442.5621432402
 10
1473.7170843763
 20
-443.0388518006
 10
1476.1822043436
 20
-443.7156405145
 10
1478.4647277904
 20
-444.5799020887
 10
1480.5221356237
 20
-445.6155369655
  0
LWPOLYLINE
  5
FA
330
1F
100
AcDbEntity
  8
0
  6
HIDDEN
 62
     7
370
    18
100
AcDbPolyline
 90
       10
 70
   128
 43
0.0
 10
1479.2243900013
 20
-449.7154305801
 10
1479.7450978628
 20
-450.2566414361
 10
1480.6458477444
 20
-451.5120127845
 10
1481.1953251089
 20
-452.8332730734
 10
1481.38
 20
-454.1878884896
 10
1481.1953251089
 20
-455.5425039059
 10
1480.6458477444
 20
-456.8637641948
 10
1479.7450978628
 20
-458.1191355432
 10
1478.5152549156
 20
-459.277706542
 10
1477.4203819124
 20
-460.0498456167
  0
LWPOLYLINE
  5
FB
330
1F
100
AcDbEntity
  8
0
  6
HIDDEN
 62
     7
370
    18
100
AcDbPolyline
 90
       13
 70
   128
 43
0.0
 10
1479.7181773412
 20
-458.3377432814
 10
1478.9197634128
 20
-459.0390967378
 10
1477.3401551084
 20
-460.1067809503
 10
1475.4906714105
 20
-461.0186694144
 10
1473.416852746
 20
-461.7523084096
 10
1471.1697634128
 20
-462.2896333092
 10
1468.8047342081
 20
-462.6174133908
 10
1466.38
 20
-462.727577621
 10
1463.9552657919
 20
-462.6174133908
 10
1461.5902365872
 20
-462.2896333092
 10
1459.343147254
 20
-461.7523084096
 10
1457.2693285895
 20
-461.0186694144
 10
1455.8311454025
 20
-460.3356260026
  0
ARC
  5
FC
330
1F
100
AcDbEntity
  8
0
  6
HIDDEN
 62
     7
370
    18
100
AcDbCircle
 10
1473.9368956822
 20
-478.9786952433
 30
0.0
 40
7.4762158842457
100
AcDbArc
 50
5.3944478058
 51
65.9256931518
  0
LWPOLYLINE
  5
FD
330
1F
100
AcDbEntity
  8
0
  6
HIDDEN
 62
     7
370
    18
100
AcDbPolyline
 90
       10
 70
   128
 43
0.0
 10
1453.5356099987
 20
-458.6603463992
 10
1453.0149021372
 20
-458.1191355432
 10
1452.1141522556
 20
-456.8637641948
 10
1451.5646748911
 20
-455.5425039059
 10
1451.38
 20
-454.1878884896
 10
1451.5646748911
 20
-452.8332730734
 10
1452.1141522556
 20
-451.5120127845
 10
1453.0149021372
 20
-450.2566414361
 10
1454.2447450844
 20
-449.0980704372
 10
1455.3396180876
 20
-448.3259313626
  0
ARC
  5
FE
330
1F
100
AcDbEntity
  8
0
  6
HIDDEN
 62
     7
370
    18
100
AcDbCircle
 10
1466.3443627421
 20
-469.4353913394
 30
0.0
 40
24.64077638035718
100
AcDbArc
 50
66.8003028795
 51
109.3872422828
  0
LWPOLYLINE
  5
FF
330
1F
100
AcDbEntity
  8
0
  6
HIDDEN
 62
     7
370
    18
100
AcDbPolyline
 90
       16
 70
   128
 43
0.0
 10
1451.38
 20
-478.2758424403
 10
1451.5646748911
 20
-476.921227024
 10
1452.1141522556
 20
-475.5999667351
 10
1453.0149021372
 20
-474.3445953867
 10
1454.2447450844
 20
-473.1860243879
 10
1455.7733982822
 20
-472.1527816016
 10
1457.5632212156
 20
-471.2703088944
 10
1459.5701425039
 20
-470.5603356732
 10
1461.7447450844
 20
-470.0403438349
 10
1464.0334830244
 20
-469.7231373043
 10
1466.38
 20
-469.616526759
 10
1468.7265169756
 20
-469.7231373043
 10
1471.0152549156
 20
-470.0403438349
 10
1473.1898574961
 20
-470.5603356732
 10
1475.1967787844
 20
-471.2703088944
 10
1476.9866017178
 20
-472.1527816016
  0
LWPOLYLINE
  5
100
330
1F
100
AcDbEntity
  8
0
  6
HIDDEN
 62
     7
370
    18
100
AcDbPolyline
 90
       11
 70
   128
 43
0.0
 10
1476.2794949366
 20
-473.3775264694
 10
1477.7738820418
 20
-474.3961041778
 10
1478.9574737465
 20
-475.5427841371
 10
1479.7979847544
 20
-476.7862879071
 10
1480.2724881163
 20
-478.0926959466
 10
1480.3680406174
 20
-479.4263728499
 10
1480.0820358346
 20
-480.7509393875
 10
1479.4222752327
 20
-482.0302648373
 10
1478.4067553612
 20
-483.2294525359
 10
1477.0631769548
 20
-484.315791769
 10
1476.2811034908
 20
-484.8063112854
  0
LWPOLYLINE
  5
101
330
1F
100
AcDbEntity
  8
0
  6
HIDDEN
 62
     7
370
    18
100
AcDbPolyline
 90
       20
 70
   128
 43
0.0
 10
1456.4805050634
 20
-484.8072400349
 10
1454.9861179582
 20
-483.7886623265
 10
1453.8025262535
 20
-482.6419823672
 10
1452.9620152456
 20
-481.3984785972
 10
1452.4875118837
 20
-480.0920705577
 10
1452.3919593826
 20
-478.7583936544
 10
1452.6779641654
 20
-477.4338271168
 10
1453.3377247673
 20
-476.154501667
 10
1454.3532446388
 20
-474.9553139684
 10
1455.6968230452
 20
-473.8689747353
 10
1457.3318106699
 20
-472.9251164701
 10
1459.2136093127
 20
-472.1494851659
 10
1461.2908884121
 20
-471.5632380227
 10
1463.5069852093
 20
-471.1823663343
 10
1465.8014503605
 20
-471.0172592876
 10
1468.1116968378
 20
-471.0724205723
 10
1470.3747071395
 20
-471.3463455325
 10
1472.5287522439
 20
-471.8315622092
 10
1474.5150754156
 20
-472.5148351565
 10
1476.2794949366
 20
-473.3775264694
  0
LINE
  5
102
330
1F
100
AcDbEntity
  8
0
  6
HIDDEN
 62
     7
370
    18
100
AcDbLine
 10
1459.7702296388
 20
1148.0044467014
 30
0.0
 11
1462.3694298252
 21
1149.5049330302
 31
0.0
  0
LINE
  5
103
330
1F
100
AcDbEntity
  8
0
  6
HIDDEN
 62
     7
370
    18
100
AcDbLine
 10
1456.4788965092
 20
1157.253546117
 30
0.0
 11
1455.7716748313
 21
1156.8451430217
 31
0.0
  0
SPLINE
  5
104
330
1F
100
AcDbEntity
  8
0
  6
HIDDEN
 62
     7
370
    18
100
AcDbSpline
210
0.0
220
0.0
230
1.0
 70
     8
 71
     3
 72
     9
 73
     5
 74
     0
 42
0.00000001
 43
0.00000001
 40
0.0
 40
0.0
 40
0.0
 40
0.0
 40
0.8291019732316588
 40
1.0
 40
1.0
 40
1.0
 40
1.0
 10
1478.09161749552
 20
1066.545685356093
 30
0.0
 10
1478.463084495941
 20
1066.28954253792
 30
0.0
 10
1478.911119855177
 20
1065.98060247211
 30
0.0
 10
1479.228786159765
 20
1065.631237060625
 30
0.0
 10
1479.28307470439
 20
1065.571531201182
 30
0.0
  0
SPLINE
  5
105
330
1F
100
AcDbEntity
  8
0
  6
HIDDEN
 62
     7
370
    18
100
AcDbSpline
210
0.0
220
0.0
230
1.0
 70
     8
 71
     3
 72
     9
 73
     5
 74
     0
 42
0.00000001
 43
0.00000001
 40
0.0
 40
0.0
 40
0.0
 40
0.0
 40
0.7339794622826157
 40
1.0
 40
1.0
 40
1.0
 40
1.0
 10
1477.090175425233
 20
1067.205996805753
 30
0.0
 10
1477.355804679398
 20
1067.053276695383
 30
0.0
 10
1477.717707522481
 20
1066.845205327969
 30
0.0
 10
1478.013050261323
 20
1066.608621510446
 30
0.0
 10
1478.09161749552
 20
1066.545685356093
 30
0.0
  0
LINE
  5
106
330
1F
100
AcDbEntity
  8
0
  6
HIDDEN
 62
     7
370
    18
100
AcDbLine
 10
1476.6993902285
 20
1067.4229868294
 30
0.0
 11
1477.0901754252
 21
1067.2059968058
 31
0.0
  0
LINE
  5
107
330
1F
100
AcDbEntity
  8
0
  6
HIDDEN
 62
     7
370
    18
100
AcDbLine
 10
1456.0606097715
 20
-460.2990169487
 30
0.0
 11
1455.6698245748
 21
-460.0820269251
 31
0.0
  0
LINE
  5
108
330
1F
100
AcDbEntity
  8
0
  6
HIDDEN
 62
     7
370
    18
100
AcDbLine
 10
1481.38
 20
-461.4164166893
 30
0.0
 11
1481.38
 21
-454.1878884896
 31
0.0
  0
SPLINE
  5
109
330
1F
100
AcDbEntity
  8
0
  6
HIDDEN
 62
     7
370
    18
100
AcDbSpline
210
0.0
220
0.0
230
1.0
 70
     8
 71
     3
 72
     9
 73
     5
 74
     0
 42
0.00000001
 43
0.00000001
 40
0.0
 40
0.0
 40
0.0
 40
0.0
 40
0.8291019732315129
 40
1.0
 40
1.0
 40
1.0
 40
1.0
 10
1454.66838250448
 20
-459.4217154754111
 30
0.0
 10
1454.29691550406
 20
-459.1655726572375
 30
0.0
 10
1453.848880144823
 20
-458.8566325914275
 30
0.0
 10
1453.531213840235
 20
-458.5072671799433
 30
0.0
 10
1453.47692529561
 20
-458.4475613204993
 30
0.0
  0
SPLINE
  5
10A
330
1F
100
AcDbEntity
  8
0
  6
HIDDEN
 62
     7
370
    18
100
AcDbSpline
210
0.0
220
0.0
230
1.0
 70
     8
 71
     3
 72
     9
 73
     5
 74
     0
 42
0.00000001
 43
0.00000001
 40
0.0
 40
0.0
 40
0.0
 40
0.0
 40
0.7339794622825094
 40
1.0
 40
1.0
 40
1.0
 40
1.0
 10
1455.669824574768
 20
-460.0820269250706
 30
0.0
 10
1455.404195320603
 20
-459.9293068147006
 30
0.0
 10
1455.042292477519
 20
-459.7212354472869
 30
0.0
 10
1454.746949738677
 20
-459.4846516297638
 30
0.0
 10
1454.66838250448
 20
-459.4217154754108
 30
0.0
  0
LINE
  5
10B
330
1F
100
AcDbEntity
  8
0
  6
HIDDEN
 62
     7
370
    18
100
AcDbLine
 10
1451.38
 20
-454.1878884896
 30
0.0
 11
1451.38
 21
-461.4164166893
 31
0.0
  0
ENDSEC
  0
SECTION
  2
OBJECTS
  0
DICTIONARY
  5
C
330
0
100
AcDbDictionary
281
     1
  3
ACAD_GROUP
350
D
  3
ACAD_LAYOUT
350
1A
  3
ACAD_MLINESTYLE
350
17
  3
ACAD_PLOTSETTINGS
350
19
  3
ACAD_PLOTSTYLENAME
350
E
  3
ACAD_SCALELIST
350
47
  3
DWGPROPS
350
10C
  0
DICTIONARY
  5
D
102
{ACAD_REACTORS
330
C
102
}
330
C
100
AcDbDictionary
281
     1
  0
DICTIONARY
  5
1A
102
{ACAD_REACTORS
330
C
102
}
330
C
100
AcDbDictionary
281
     1
  3
Layout1
350
1E
  3
Layout2
350
26
  3
Model
350
22
  0
DICTIONARY
  5
17
102
{ACAD_REACTORS
330
C
102
}
330
C
100
AcDbDictionary
281
     1
  3
Standard
350
18
  0
DICTIONARY
  5
19
102
{ACAD_REACTORS
330
C
102
}
330
C
100
AcDbDictionary
281
     1
  0
ACDBDICTIONARYWDFLT
  5
E
102
{ACAD_REACTORS
330
C
102
}
330
C
100
AcDbDictionary
281
     1
  3
Normal
350
F
100
AcDbDictionaryWithDefault
340
F
  0
DICTIONARY
  5
47
102
{ACAD_REACTORS
330
C
102
}
330
C
100
AcDbDictionary
281
     1
  3
A0
350
48
  3
A1
350
49
  3
A2
350
4A
  3
A3
350
4B
  3
A4
350
4C
  3
A5
350
4D
  3
A6
350
4E
  3
A7
350
4F
  3
A8
350
50
  3
A9
350
51
  3
B0
350
52
  3
B1
350
53
  3
B2
350
54
  3
B3
350
55
  3
B4
350
56
  3
B5
350
57
  3
B6
350
58
  0
XRECORD
  5
10C
102
{ACAD_REACTORS
330
C
102
}
330
C
100
AcDbXrecord
280
     1
  1
DWGPROPS COOKIE
  2

  3

  4

  6

  7

  8
imaizumi
  9

300
=
301
=
302
=
303
=
304
=
305
=
306
=
307
=
308
=
309
=
 40
0.0
 41
2461263.040982581
 42
2461263.040983125
  1

 90
        0
  0
LAYOUT
  5
1E
102
{ACAD_REACTORS
330
1A
102
}
330
1A
100
AcDbPlotSettings
  1

  2
none_device
  4

  6

 40
0.0
 41
0.0
 42
0.0
 43
0.0
 44
0.0
 45
0.0
 46
0.0
 47
0.0
 48
0.0
 49
0.0
140
0.0
141
0.0
142
1.0
143
1.0
 70
   688
 72
     1
 73
     0
 74
     5
  7

 75
    16
147
1.0
148
0.0
149
0.0
100
AcDbLayout
  1
Layout1
 70
     1
 71
     1
 10
0.0
 20
0.0
 11
420.0
 21
297.0
 12
0.0
 22
0.0
 32
0.0
 14
1.0000000000E+20
 24
1.0000000000E+20
 34
1.0000000000E+20
 15
-1.0000000000E+20
 25
-1.0000000000E+20
 35
-1.0000000000E+20
146
0.0
 13
0.0
 23
0.0
 33
0.0
 16
1.0
 26
0.0
 36
0.0
 17
0.0
 27
1.0
 37
0.0
 76
     0
330
1B
  0
LAYOUT
  5
26
102
{ACAD_REACTORS
330
1A
102
}
330
1A
100
AcDbPlotSettings
  1

  2
none_device
  4

  6

 40
0.0
 41
0.0
 42
0.0
 43
0.0
 44
0.0
 45
0.0
 46
0.0
 47
0.0
 48
0.0
 49
0.0
140
0.0
141
0.0
142
1.0
143
1.0
 70
   688
 72
     1
 73
     0
 74
     5
  7

 75
    16
147
1.0
148
0.0
149
0.0
100
AcDbLayout
  1
Layout2
 70
     1
 71
     2
 10
0.0
 20
0.0
 11
0.0
 21
0.0
 12
0.0
 22
0.0
 32
0.0
 14
0.0
 24
0.0
 34
0.0
 15
0.0
 25
0.0
 35
0.0
146
0.0
 13
0.0
 23
0.0
 33
0.0
 16
1.0
 26
0.0
 36
0.0
 17
0.0
 27
1.0
 37
0.0
 76
     0
330
23
  0
LAYOUT
  5
22
102
{ACAD_REACTORS
330
1A
102
}
330
1A
100
AcDbPlotSettings
  1

  2
none_device
  4
Letter_(8.50_x_11.00_Inches)
  6

 40
6.35
 41
6.35
 42
6.35000508
 43
6.35000508
 44
215.9
 45
279.4
 46
0.0
 47
0.0
 48
0.0
 49
0.0
140
0.0
141
0.0
142
1.0
143
1.0
 70
  1712
 72
     1
 73
     0
 74
     0
  7

 75
     0
147
1.0
148
0.0
149
0.0
100
AcDbLayout
  1
Model
 70
     1
 71
     0
 10
0.0
 20
0.0
 11
841.0
 21
594.0
 12
0.0
 22
0.0
 32
0.0
 14
0.0
 24
0.0
 34
0.0
 15
841.0
 25
594.0
 35
0.0
146
0.0
 13
0.0
 23
0.0
 33
0.0
 16
1.0
 26
0.0
 36
0.0
 17
0.0
 27
1.0
 37
0.0
 76
     0
330
1F
331
29
  0
MLINESTYLE
  5
18
102
{ACAD_REACTORS
330
17
102
}
330
17
100
AcDbMlineStyle
  2
Standard
 70
     0
  3

 62
   256
 51
90.0
 52
90.0
 71
     2
 49
0.5
 62
   256
  6
BYLAYER
 49
-0.5
 62
   256
  6
BYLAYER
  0
ACDBPLACEHOLDER
  5
F
102
{ACAD_REACTORS
330
E
102
}
330
E
  0
SCALE
  5
48
102
{ACAD_REACTORS
330
47
102
}
330
47
100
AcDbScale
 70
     0
300
1:1
140
1.0
141
1.0
290
     1
  0
SCALE
  5
49
102
{ACAD_REACTORS
330
47
102
}
330
47
100
AcDbScale
 70
     0
300
1:2
140
1.0
141
2.0
290
     0
  0
SCALE
  5
4A
102
{ACAD_REACTORS
330
47
102
}
330
47
100
AcDbScale
 70
     0
300
1:4
140
1.0
141
4.0
290
     0
  0
SCALE
  5
4B
102
{ACAD_REACTORS
330
47
102
}
330
47
100
AcDbScale
 70
     0
300
1:5
140
1.0
141
5.0
290
     0
  0
SCALE
  5
4C
102
{ACAD_REACTORS
330
47
102
}
330
47
100
AcDbScale
 70
     0
300
1:8
140
1.0
141
8.0
290
     0
  0
SCALE
  5
4D
102
{ACAD_REACTORS
330
47
102
}
330
47
100
AcDbScale
 70
     0
300
1:10
140
1.0
141
10.0
290
     0
  0
SCALE
  5
4E
102
{ACAD_REACTORS
330
47
102
}
330
47
100
AcDbScale
 70
     0
300
1:16
140
1.0
141
16.0
290
     0
  0
SCALE
  5
4F
102
{ACAD_REACTORS
330
47
102
}
330
47
100
AcDbScale
 70
     0
300
1:20
140
1.0
141
20.0
290
     0
  0
SCALE
  5
50
102
{ACAD_REACTORS
330
47
102
}
330
47
100
AcDbScale
 70
     0
300
1:30
140
1.0
141
30.0
290
     0
  0
SCALE
  5
51
102
{ACAD_REACTORS
330
47
102
}
330
47
100
AcDbScale
 70
     0
300
1:40
140
1.0
141
40.0
290
     0
  0
SCALE
  5
52
102
{ACAD_REACTORS
330
47
102
}
330
47
100
AcDbScale
 70
     0
300
1:50
140
1.0
141
50.0
290
     0
  0
SCALE
  5
53
102
{ACAD_REACTORS
330
47
102
}
330
47
100
AcDbScale
 70
     0
300
1:100
140
1.0
141
100.0
290
     0
  0
SCALE
  5
54
102
{ACAD_REACTORS
330
47
102
}
330
47
100
AcDbScale
 70
     0
300
2:1
140
2.0
141
1.0
290
     0
  0
SCALE
  5
55
102
{ACAD_REACTORS
330
47
102
}
330
47
100
AcDbScale
 70
     0
300
4:1
140
4.0
141
1.0
290
     0
  0
SCALE
  5
56
102
{ACAD_REACTORS
330
47
102
}
330
47
100
AcDbScale
 70
     0
300
8:1
140
8.0
141
1.0
290
     0
  0
SCALE
  5
57
102
{ACAD_REACTORS
330
47
102
}
330
47
100
AcDbScale
 70
     0
300
10:1
140
10.0
141
1.0
290
     0
  0
SCALE
  5
58
102
{ACAD_REACTORS
330
47
102
}
330
47
100
AcDbScale
 70
     0
300
100:1
140
100.0
141
1.0
290
     0
  0
ENDSEC
  0
EOF
