  0
SECTION
  2
HEADER
  9
$ACADVER
  1
AC1015
  9
$ACADMAINTVER
 70
6
  9
$DWGCODEPAGE
  3
ANSI_932
  9
$INSBASE
 10
0.0
 20
0.0
 30
0.0
  9
$EXTMIN
 10
1e+20
 20
1e+20
 30
1e+20
  9
$EXTMAX
 10
-1e+20
 20
-1e+20
 30
-1e+20
  9
$LIMMIN
 10
0.0
 20
0.0
  9
$LIMMAX
 10
420.0
 20
297.0
  9
$ORTHOMODE
 70
0
  9
$REGENMODE
 70
1
  9
$FILLMODE
 70
1
  9
$QTEXTMODE
 70
0
  9
$MIRRTEXT
 70
1
  9
$LTSCALE
 40
8.4
  9
$ATTMODE
 70
1
  9
$TEXTSIZE
 40
2.5
  9
$TRACEWID
 40
1.0
  9
$TEXTSTYLE
  7
Standard
  9
$CLAYER
  8
0
  9
$CELTYPE
  6
ByLayer
  9
$CECOLOR
 62
256
  9
$CELTSCALE
 40
1.0
  9
$DISPSILH
 70
0
  9
$DIMSCALE
 40
1.0
  9
$DIMASZ
 40
2.5
  9
$DIMEXO
 40
0.625
  9
$DIMDLI
 40
3.75
  9
$DIMRND
 40
0.0
  9
$DIMDLE
 40
0.0
  9
$DIMEXE
 40
1.25
  9
$DIMTP
 40
0.0
  9
$DIMTM
 40
0.0
  9
$DIMTXT
 40
2.5
  9
$DIMCEN
 40
2.5
  9
$DIMTSZ
 40
0.0
  9
$DIMTOL
 70
0
  9
$DIMLIM
 70
0
  9
$DIMTIH
 70
0
  9
$DIMTOH
 70
0
  9
$DIMSE1
 70
0
  9
$DIMSE2
 70
0
  9
$DIMTAD
 70
1
  9
$DIMZIN
 70
8
  9
$DIMBLK
  1

  9
$DIMASO
 70
1
  9
$DIMSHO
 70
1
  9
$DIMPOST
  1

  9
$DIMAPOST
  1

  9
$DIMALT
 70
0
  9
$DIMALTD
 70
3
  9
$DIMALTF
 40
0.03937007874
  9
$DIMLFAC
 40
1.0
  9
$DIMTOFL
 70
1
  9
$DIMTVP
 40
0.0
  9
$DIMTIX
 70
0
  9
$DIMSOXD
 70
0
  9
$DIMSAH
 70
0
  9
$DIMBLK1
  1

  9
$DIMBLK2
  1

  9
$DIMSTYLE
  2
ISO-25
  9
$DIMCLRD
 70
0
  9
$DIMCLRE
 70
0
  9
$DIMCLRT
 70
0
  9
$DIMTFAC
 40
1.0
  9
$DIMGAP
 40
0.625
  9
$DIMJUST
 70
0
  9
$DIMSD1
 70
0
  9
$DIMSD2
 70
0
  9
$DIMTOLJ
 70
0
  9
$DIMTZIN
 70
8
  9
$DIMALTZ
 70
0
  9
$DIMALTTZ
 70
0
  9
$DIMUPT
 70
0
  9
$DIMDEC
 70
2
  9
$DIMTDEC
 70
2
  9
$DIMALTU
 70
2
  9
$DIMALTTD
 70
3
  9
$DIMTXSTY
  7
Standard
  9
$DIMAUNIT
 70
0
  9
$DIMADEC
 70
0
  9
$DIMALTRND
 40
0.0
  9
$DIMAZIN
 70
0
  9
$DIMDSEP
 70
44
  9
$DIMATFIT
 70
3
  9
$DIMFRAC
 70
0
  9
$DIMLDRBLK
  1

  9
$DIMLUNIT
 70
2
  9
$DIMLWD
 70
-2
  9
$DIMLWE
 70
-2
  9
$DIMTMOVE
 70
0
  9
$LUNITS
 70
2
  9
$LUPREC
 70
4
  9
$SKETCHINC
 40
1.0
  9
$FILLETRAD
 40
10.0
  9
$AUNITS
 70
0
  9
$AUPREC
 70
2
  9
$MENU
  1
.
  9
$ELEVATION
 40
0.0
  9
$PELEVATION
 40
0.0
  9
$THICKNESS
 40
0.0
  9
$LIMCHECK
 70
0
  9
$CHAMFERA
 40
0.0
  9
$CHAMFERB
 40
0.0
  9
$CHAMFERC
 40
0.0
  9
$CHAMFERD
 40
0.0
  9
$SKPOLY
 70
0
  9
$TDCREATE
 40
2461264.254247685
  9
$TDUCREATE
 40
2458532.153996898
  9
$TDUPDATE
 40
2461264.254247685
  9
$TDUUPDATE
 40
2458532.1544311
  9
$TDINDWG
 40
0.0
  9
$TDUSRTIMER
 40
0.0
  9
$USRTIMER
 70
1
  9
$ANGBASE
 50
0.0
  9
$ANGDIR
 70
0
  9
$PDMODE
 70
0
  9
$PDSIZE
 40
0.0
  9
$PLINEWID
 40
0.0
  9
$SPLFRAME
 70
0
  9
$SPLINETYPE
 70
6
  9
$SPLINESEGS
 70
8
  9
$HANDSEED
  5
389
  9
$SURFTAB1
 70
6
  9
$SURFTAB2
 70
6
  9
$SURFTYPE
 70
6
  9
$SURFU
 70
6
  9
$SURFV
 70
6
  9
$UCSBASE
  2

  9
$UCSNAME
  2

  9
$UCSORG
 10
0.0
 20
0.0
 30
0.0
  9
$UCSXDIR
 10
1.0
 20
0.0
 30
0.0
  9
$UCSYDIR
 10
0.0
 20
1.0
 30
0.0
  9
$UCSORTHOREF
  2

  9
$UCSORTHOVIEW
 70
0
  9
$UCSORGTOP
 10
0.0
 20
0.0
 30
0.0
  9
$UCSORGBOTTOM
 10
0.0
 20
0.0
 30
0.0
  9
$UCSORGLEFT
 10
0.0
 20
0.0
 30
0.0
  9
$UCSORGRIGHT
 10
0.0
 20
0.0
 30
0.0
  9
$UCSORGFRONT
 10
0.0
 20
0.0
 30
0.0
  9
$UCSORGBACK
 10
0.0
 20
0.0
 30
0.0
  9
$PUCSBASE
  2

  9
$PUCSNAME
  2

  9
$PUCSORG
 10
0.0
 20
0.0
 30
0.0
  9
$PUCSXDIR
 10
1.0
 20
0.0
 30
0.0
  9
$PUCSYDIR
 10
0.0
 20
1.0
 30
0.0
  9
$PUCSORTHOREF
  2

  9
$PUCSORTHOVIEW
 70
0
  9
$PUCSORGTOP
 10
0.0
 20
0.0
 30
0.0
  9
$PUCSORGBOTTOM
 10
0.0
 20
0.0
 30
0.0
  9
$PUCSORGLEFT
 10
0.0
 20
0.0
 30
0.0
  9
$PUCSORGRIGHT
 10
0.0
 20
0.0
 30
0.0
  9
$PUCSORGFRONT
 10
0.0
 20
0.0
 30
0.0
  9
$PUCSORGBACK
 10
0.0
 20
0.0
 30
0.0
  9
$USERI1
 70
0
  9
$USERI2
 70
0
  9
$USERI3
 70
0
  9
$USERI4
 70
0
  9
$USERI5
 70
0
  9
$USERR1
 40
0.0
  9
$USERR2
 40
0.0
  9
$USERR3
 40
0.0
  9
$USERR4
 40
0.0
  9
$USERR5
 40
0.0
  9
$WORLDVIEW
 70
1
  9
$SHADEDGE
 70
3
  9
$SHADEDIF
 70
70
  9
$TILEMODE
 70
1
  9
$MAXACTVP
 70
64
  9
$PINSBASE
 10
0.0
 20
0.0
 30
0.0
  9
$PLIMCHECK
 70
0
  9
$PEXTMIN
 10
1e+20
 20
1e+20
 30
1e+20
  9
$PEXTMAX
 10
-1e+20
 20
-1e+20
 30
-1e+20
  9
$PLIMMIN
 10
0.0
 20
0.0
  9
$PLIMMAX
 10
420.0
 20
297.0
  9
$UNITMODE
 70
0
  9
$VISRETAIN
 70
1
  9
$PLINEGEN
 70
0
  9
$PSLTSCALE
 70
1
  9
$TREEDEPTH
 70
3020
  9
$CMLSTYLE
  2
Standard
  9
$CMLJUST
 70
0
  9
$CMLSCALE
 40
20.0
  9
$PROXYGRAPHICS
 70
1
  9
$MEASUREMENT
 70
1
  9
$CELWEIGHT
370
-1
  9
$ENDCAPS
280
0
  9
$JOINSTYLE
280
0
  9
$LWDISPLAY
290
0
  9
$INSUNITS
 70
4
  9
$HYPERLINKBASE
  1

  9
$STYLESHEET
  1

  9
$XEDIT
290
1
  9
$CEPSNTYPE
380
0
  9
$PSTYLEMODE
290
1
  9
$FINGERPRINTGUID
  2
{CFE3CBFC-70A5-4945-8F60-F4F0D84321E6}
  9
$VERSIONGUID
  2
{F6BEEDD9-CFAC-41EE-9DC9-E96D1FEA224E}
  9
$EXTNAMES
290
1
  9
$PSVPSCALE
 40
0.0
  9
$OLESTARTUP
290
0
  0
ENDSEC
  0
SECTION
  2
CLASSES
  0
CLASS
  1
ACDBDICTIONARYWDFLT
  2
AcDbDictionaryWithDefault
  3
ObjectDBX Classes
 90
0
280
0
281
0
  0
CLASS
  1
SUN
  2
AcDbSun
  3
SCENEOE
 90
1153
280
0
281
0
  0
CLASS
  1
VISUALSTYLE
  2
AcDbVisualStyle
  3
ObjectDBX Classes
 90
4095
280
0
281
0
  0
CLASS
  1
MATERIAL
  2
AcDbMaterial
  3
ObjectDBX Classes
 90
1153
280
0
281
0
  0
CLASS
  1
SCALE
  2
AcDbScale
  3
ObjectDBX Classes
 90
1153
280
0
281
0
  0
CLASS
  1
TABLESTYLE
  2
AcDbTableStyle
  3
ObjectDBX Classes
 90
4095
280
0
281
0
  0
CLASS
  1
MLEADERSTYLE
  2
AcDbMLeaderStyle
  3
ACDB_MLEADERSTYLE_CLASS
 90
4095
280
0
281
0
  0
CLASS
  1
DICTIONARYVAR
  2
AcDbDictionaryVar
  3
ObjectDBX Classes
 90
0
280
0
281
0
  0
CLASS
  1
CELLSTYLEMAP
  2
AcDbCellStyleMap
  3
ObjectDBX Classes
 90
1152
280
0
281
0
  0
CLASS
  1
MENTALRAYRENDERSETTINGS
  2
AcDbMentalRayRenderSettings
  3
SCENEOE
 90
1024
280
0
281
0
  0
CLASS
  1
ACDBDETAILVIEWSTYLE
  2
AcDbDetailViewStyle
  3
ObjectDBX Classes
 90
1025
280
0
281
0
  0
CLASS
  1
ACDBSECTIONVIEWSTYLE
  2
AcDbSectionViewStyle
  3
ObjectDBX Classes
 90
1025
280
0
281
0
  0
CLASS
  1
RASTERVARIABLES
  2
AcDbRasterVariables
  3
ISM
 90
0
280
0
281
0
  0
CLASS
  1
ACDBPLACEHOLDER
  2
AcDbPlaceHolder
  3
ObjectDBX Classes
 90
0
280
0
281
0
  0
CLASS
  1
LAYOUT
  2
AcDbLayout
  3
ObjectDBX Classes
 90
0
280
0
281
0
  0
ENDSEC
  0
SECTION
  2
TABLES
  0
TABLE
  2
VPORT
  5
8
330
0
100
AcDbSymbolTable
 70
1
  0
VPORT
  5
23
330
8
100
AcDbSymbolTableRecord
100
AcDbViewportTableRecord
  2
*Active
 70
0
 10
0.0
 20
0.0
 11
1.0
 21
1.0
 12
0.0
 22
0.0
 13
0.0
 23
0.0
 14
0.5
 24
0.5
 15
0.5
 25
0.5
 16
0.0
 26
0.0
 36
1.0
 17
0.0
 27
0.0
 37
0.0
 40
1000.0
 41
1.34
 42
50.0
 43
0.0
 44
0.0
 50
0.0
 51
0.0
 71
0
 72
1000
 73
1
 74
3
 75
0
 76
0
 77
0
 78
0
281
0
 65
0
146
0.0
  0
ENDTAB
  0
TABLE
  2
LTYPE
  5
2
330
0
100
AcDbSymbolTable
 70
7
  0
LTYPE
  5
24
330
2
100
AcDbSymbolTableRecord
100
AcDbLinetypeTableRecord
  2
ByBlock
 70
0
  3

 72
65
 73
0
 40
0.0
  0
LTYPE
  5
25
330
2
100
AcDbSymbolTableRecord
100
AcDbLinetypeTableRecord
  2
ByLayer
 70
0
  3

 72
65
 73
0
 40
0.0
  0
LTYPE
  5
26
330
2
100
AcDbSymbolTableRecord
100
AcDbLinetypeTableRecord
  2
Continuous
 70
0
  3

 72
65
 73
0
 40
0.0
  0
LTYPE
  5
122
330
2
100
AcDbSymbolTableRecord
100
AcDbLinetypeTableRecord
  2
DASHDOT
 70
0
  3
__ . __ . __ . __ . __ . __ . __ . __ . __ . __
 72
65
 73
4
 40
1.0
 49
0.5
 74
0
 49
-0.25
 74
0
 49
0.0
 74
0
 49
-0.25
 74
0
  0
LTYPE
  5
13B
330
2
100
AcDbSymbolTableRecord
100
AcDbLinetypeTableRecord
  2
HIDDEN
 70
0
  3
Hidden __ __ __ __ __ __ __ __ __ __ __ __ __ __
 72
65
 73
2
 40
1.905
 49
1.27
 74
0
 49
-0.635
 74
0
  0
LTYPE
  5
13C
330
2
100
AcDbSymbolTableRecord
100
AcDbLinetypeTableRecord
  2
PHANTOM
 70
0
  3
Phantom ______  __  __  ______  __  __  ______
 72
65
 73
6
 40
12.7
 49
6.35
 74
0
 49
-1.27
 74
0
 49
1.27
 74
0
 49
-1.27
 74
0
 49
1.27
 74
0
 49
-1.27
 74
0
  0
LTYPE
  5
13D
330
2
100
AcDbSymbolTableRecord
100
AcDbLinetypeTableRecord
  2
CENTER
 70
0
  3
Center ____ _ ____ _ ____ _ ____ _ ____ _ ____
 72
65
 73
4
 40
10.16
 49
6.35
 74
0
 49
-1.27
 74
0
 49
1.27
 74
0
 49
-1.27
 74
0
  0
ENDTAB
  0
TABLE
  2
LAYER
  5
1
330
0
100
AcDbSymbolTable
 70
5
  0
LAYER
  5
27
330
1
100
AcDbSymbolTableRecord
100
AcDbLayerTableRecord
  2
0
 70
0
 62
7
  6
Continuous
370
-3
390
13
  0
LAYER
  5
28
330
1
100
AcDbSymbolTableRecord
100
AcDbLayerTableRecord
  2
Defpoints
 70
0
 62
7
  6
Continuous
290
0
370
-3
390
13
  0
LAYER
  5
11F
330
1
100
AcDbSymbolTableRecord
100
AcDbLayerTableRecord
  2
2
 70
0
 62
7
  6
CONTINUOUS
370
-3
390
30
  0
LAYER
  5
120
330
1
100
AcDbSymbolTableRecord
100
AcDbLayerTableRecord
  2
254
 70
0
 62
7
  6
CONTINUOUS
370
-3
390
30
  0
LAYER
  5
121
330
1
100
AcDbSymbolTableRecord
100
AcDbLayerTableRecord
  2
1
 70
0
 62
7
  6
CONTINUOUS
370
-3
390
30
  0
ENDTAB
  0
TABLE
  2
STYLE
  5
5
330
0
100
AcDbSymbolTable
 70
16
  0
STYLE
  5
29
330
5
100
AcDbSymbolTableRecord
100
AcDbTextStyleTableRecord
  2
Standard
 70
0
 40
0.0
 41
1.0
 50
0.0
 71
0
 42
2.5
  3
txt
  4

  0
STYLE
  5
123
330
5
100
AcDbSymbolTableRecord
100
AcDbTextStyleTableRecord
  2
GMM014
 70
0
 40
0.0
 41
0.82727272727273
 50
0.0
 71
0
 42
1.0
  3
txt.shx
  4
bigfont.shx
  0
STYLE
  5
124
330
5
100
AcDbSymbolTableRecord
100
AcDbTextStyleTableRecord
  2
GMM010
 70
0
 40
0.0
 41
0.7
 50
0.0
 71
0
 42
1.0
  3
txt.shx
  4
bigfont.shx
  0
STYLE
  5
125
330
5
100
AcDbSymbolTableRecord
100
AcDbTextStyleTableRecord
  2
GMM008
 70
0
 40
0.0
 41
0.8
 50
0.0
 71
0
 42
1.0
  3
txt.shx
  4
bigfont.shx
  0
STYLE
  5
126
330
5
100
AcDbSymbolTableRecord
100
AcDbTextStyleTableRecord
  2
GMM015
 70
0
 40
0.0
 41
0.41152263374486
 50
0.0
 71
0
 42
1.0
  3
txt.shx
  4
bigfont.shx
  0
STYLE
  5
127
330
5
100
AcDbSymbolTableRecord
100
AcDbTextStyleTableRecord
  2
GMM001
 70
0
 40
0.0
 41
1.0
 50
0.0
 71
0
 42
1.0
  3
txt.shx
  4
bigfont.shx
  0
STYLE
  5
128
330
5
100
AcDbSymbolTableRecord
100
AcDbTextStyleTableRecord
  2
GMM012
 70
0
 40
0.0
 41
1.0666666666667
 50
0.0
 71
0
 42
1.0
  3
txt.shx
  4
bigfont.shx
  0
STYLE
  5
129
330
5
100
AcDbSymbolTableRecord
100
AcDbTextStyleTableRecord
  2
GMM004
 70
0
 40
0.0
 41
0.66666666666667
 50
0.0
 71
0
 42
1.0
  3
txt.shx
  4
bigfont.shx
  0
STYLE
  5
12A
330
5
100
AcDbSymbolTableRecord
100
AcDbTextStyleTableRecord
  2
STANDARD1
 70
4
 40
0.0
 41
1.0
 50
0.0
 71
0
 42
0.2
  3
TXT
  4
BIGFONT
  0
STYLE
  5
12B
330
5
100
AcDbSymbolTableRecord
100
AcDbTextStyleTableRecord
  2
GMM007
 70
0
 40
0.0
 41
0.625
 50
0.0
 71
0
 42
1.0
  3
txt.shx
  4
bigfont.shx
  0
STYLE
  5
12C
330
5
100
AcDbSymbolTableRecord
100
AcDbTextStyleTableRecord
  2
GMM011
 70
0
 40
0.0
 41
0.95
 50
0.0
 71
0
 42
1.0
  3
txt.shx
  4
bigfont.shx
  0
STYLE
  5
12D
330
5
100
AcDbSymbolTableRecord
100
AcDbTextStyleTableRecord
  2
GMM003
 70
0
 40
0.0
 41
0.91125
 50
0.0
 71
0
 42
1.0
  3
txt.shx
  4
bigfont.shx
  0
STYLE
  5
12E
330
5
100
AcDbSymbolTableRecord
100
AcDbTextStyleTableRecord
  2
GMM009
 70
0
 40
0.0
 41
0.49382716049383
 50
0.0
 71
0
 42
1.0
  3
txt.shx
  4
bigfont.shx
  0
STYLE
  5
1E4
330
5
100
AcDbSymbolTableRecord
100
AcDbTextStyleTableRecord
  2
VF001
 70
0
 40
0.0
 41
0.548697
 50
0.0
 71
0
 42
2.5
  3
txt.shx
  4

  0
STYLE
  5
1E6
330
5
100
AcDbSymbolTableRecord
100
AcDbTextStyleTableRecord
  2
VF002
 70
0
 40
0.0
 41
0.428571
 50
0.0
 71
0
 42
2.5
  3
txt.shx
  4

  0
STYLE
  5
1EE
330
5
100
AcDbSymbolTableRecord
100
AcDbTextStyleTableRecord
  2
VF003
 70
0
 40
0.0
 41
0.75
 50
0.0
 71
0
 42
2.5
  3
txt.shx
  4

  0
ENDTAB
  0
TABLE
  2
VIEW
  5
7
330
0
100
AcDbSymbolTable
 70
0
  0
ENDTAB
  0
TABLE
  2
UCS
  5
6
330
0
100
AcDbSymbolTable
 70
0
  0
ENDTAB
  0
TABLE
  2
APPID
  5
3
330
0
100
AcDbSymbolTable
 70
3
  0
APPID
  5
2A
330
3
100
AcDbSymbolTableRecord
100
AcDbRegAppTableRecord
  2
ACAD
 70
0
  0
APPID
  5
12F
330
3
100
AcDbSymbolTableRecord
100
AcDbRegAppTableRecord
  2
HATCHBACKGROUNDCOLOR
 70
0
  0
APPID
  5
130
330
3
100
AcDbSymbolTableRecord
100
AcDbRegAppTableRecord
  2
EZDXF
 70
0
  0
ENDTAB
  0
TABLE
  2
DIMSTYLE
  5
4
330
0
100
AcDbSymbolTable
 70
27
100
AcDbDimStyleTable
  0
DIMSTYLE
105
2B
330
4
100
AcDbSymbolTableRecord
100
AcDbDimStyleTableRecord
  2
Standard
 70
0
  3

  4

 40
1.0
 41
2.5
 42
0.625
 43
3.75
 44
1.25
 45
0.0
 46
0.0
 47
0.0
 48
0.0
140
2.5
141
2.5
142
0.0
143
0.03937007874
144
1.0
145
0.0
146
1.0
147
0.625
148
0.0
 71
0
 72
0
 73
0
 74
0
 75
0
 76
0
 77
1
 78
8
 79
3
170
0
171
3
172
1
173
0
174
0
175
0
176
0
177
0
178
0
179
2
271
2
272
2
273
2
274
3
275
0
276
0
277
2
278
44
279
0
280
0
281
0
282
0
283
0
284
8
285
0
286
0
288
0
289
3
371
-2
372
-2
  0
DIMSTYLE
105
1F4
330
4
100
AcDbSymbolTableRecord
100
AcDbDimStyleTableRecord
  2
GEN001
 70
0
  3

  4

 40
1.0
 41
3.0
 42
1.0
 43
8.0
 44
2.0
 45
0.0
 46
0.0
 47
0.0
 48
0.0
140
4.0
141
1.0
142
0.0
143
0.03937007874
144
4.0
145
0.0
146
1.0
147
0.5
148
0.0
 71
0
 72
0
 73
0
 74
0
 75
0
 76
0
 77
3
 78
8
 79
3
170
0
171
3
172
1
173
1
174
0
175
0
176
3
177
3
178
7
179
2
271
2
272
2
273
2
274
3
275
0
276
0
277
2
278
46
279
0
280
0
281
0
282
0
283
0
284
8
285
0
286
0
288
0
289
3
340
1EE
343
1EF
344
1EF
371
-2
372
-2
  0
DIMSTYLE
105
204
330
4
100
AcDbSymbolTableRecord
100
AcDbDimStyleTableRecord
  2
GEN002
 70
0
  3

  4

 40
1.0
 41
3.0
 42
1.0
 43
8.0
 44
2.0
 45
0.0
 46
0.0
 47
0.0
 48
0.0
140
4.0
141
1.0
142
0.0
143
0.03937007874
144
4.0
145
0.0
146
1.0
147
0.5
148
0.0
 71
0
 72
0
 73
0
 74
0
 75
0
 76
0
 77
3
 78
8
 79
3
170
0
171
3
172
1
173
1
174
0
175
0
176
3
177
3
178
7
179
2
271
2
272
2
273
2
274
3
275
0
276
0
277
2
278
46
279
0
280
0
281
0
282
0
283
0
284
8
285
0
286
0
288
0
289
3
340
1EE
343
1EF
344
1EF
371
-2
372
-2
  0
DIMSTYLE
105
214
330
4
100
AcDbSymbolTableRecord
100
AcDbDimStyleTableRecord
  2
GEN003
 70
0
  3

  4

 40
1.0
 41
3.0
 42
1.0
 43
8.0
 44
2.0
 45
0.0
 46
0.0
 47
0.0
 48
0.0
140
4.0
141
1.0
142
0.0
143
0.03937007874
144
4.0
145
0.0
146
1.0
147
0.5
148
0.0
 71
0
 72
0
 73
0
 74
0
 75
0
 76
0
 77
3
 78
8
 79
3
170
0
171
3
172
1
173
1
174
0
175
0
176
3
177
3
178
7
179
2
271
2
272
2
273
2
274
3
275
0
276
0
277
2
278
46
279
0
280
0
281
0
282
0
283
0
284
8
285
0
286
0
288
0
289
3
340
1EE
343
1EF
344
1EF
371
-2
372
-2
  0
DIMSTYLE
105
224
330
4
100
AcDbSymbolTableRecord
100
AcDbDimStyleTableRecord
  2
GEN004
 70
0
  3

  4

 40
1.0
 41
3.0
 42
1.0
 43
8.0
 44
2.0
 45
0.0
 46
0.0
 47
0.0
 48
0.0
140
4.0
141
1.0
142
0.0
143
0.03937007874
144
4.0
145
0.0
146
1.0
147
0.5
148
0.0
 71
0
 72
0
 73
0
 74
0
 75
0
 76
0
 77
3
 78
8
 79
3
170
0
171
3
172
1
173
1
174
0
175
0
176
3
177
3
178
7
179
2
271
2
272
2
273
2
274
3
275
0
276
0
277
2
278
46
279
0
280
0
281
0
282
0
283
0
284
8
285
0
286
0
288
0
289
3
340
1EE
343
1EF
344
1EF
371
-2
372
-2
  0
DIMSTYLE
105
234
330
4
100
AcDbSymbolTableRecord
100
AcDbDimStyleTableRecord
  2
GEN005
 70
0
  3

  4

 40
1.0
 41
3.0
 42
1.0
 43
8.0
 44
2.0
 45
0.0
 46
0.0
 47
0.0
 48
0.0
140
4.0
141
1.0
142
0.0
143
0.03937007874
144
4.0
145
0.0
146
1.0
147
0.5
148
0.0
 71
0
 72
0
 73
0
 74
0
 75
0
 76
0
 77
3
 78
8
 79
3
170
0
171
3
172
1
173
1
174
0
175
0
176
3
177
3
178
7
179
2
271
2
272
2
273
2
274
3
275
0
276
0
277
2
278
46
279
0
280
0
281
0
282
0
283
0
284
8
285
0
286
0
288
0
289
3
340
1EE
343
1EF
344
1EF
371
-2
372
-2
  0
DIMSTYLE
105
244
330
4
100
AcDbSymbolTableRecord
100
AcDbDimStyleTableRecord
  2
GEN006
 70
0
  3

  4

 40
1.0
 41
3.0
 42
1.0
 43
8.0
 44
2.0
 45
0.0
 46
0.0
 47
0.0
 48
0.0
140
4.0
141
1.0
142
0.0
143
0.03937007874
144
4.0
145
0.0
146
1.0
147
0.5
148
0.0
 71
0
 72
0
 73
0
 74
0
 75
0
 76
0
 77
3
 78
8
 79
3
170
0
171
3
172
1
173
1
174
0
175
0
176
3
177
3
178
7
179
2
271
2
272
2
273
2
274
3
275
0
276
0
277
2
278
46
279
0
280
0
281
0
282
0
283
0
284
8
285
0
286
0
288
0
289
3
340
1EE
343
1EF
344
1EF
371
-2
372
-2
  0
DIMSTYLE
105
254
330
4
100
AcDbSymbolTableRecord
100
AcDbDimStyleTableRecord
  2
GEN007
 70
0
  3

  4

 40
1.0
 41
3.0
 42
1.0
 43
8.0
 44
2.0
 45
0.0
 46
0.0
 47
0.0
 48
0.0
140
4.0
141
1.0
142
0.0
143
0.03937007874
144
4.0
145
0.0
146
1.0
147
0.5
148
0.0
 71
0
 72
0
 73
0
 74
0
 75
0
 76
0
 77
3
 78
8
 79
3
170
0
171
3
172
1
173
1
174
0
175
0
176
3
177
3
178
7
179
2
271
2
272
2
273
2
274
3
275
0
276
0
277
2
278
46
279
0
280
0
281
0
282
0
283
0
284
8
285
0
286
0
288
0
289
3
340
1EE
343
1EF
344
1EF
371
-2
372
-2
  0
DIMSTYLE
105
264
330
4
100
AcDbSymbolTableRecord
100
AcDbDimStyleTableRecord
  2
GEN008
 70
0
  3

  4

 40
1.0
 41
3.0
 42
1.0
 43
8.0
 44
2.0
 45
0.0
 46
0.0
 47
0.0
 48
0.0
140
4.0
141
1.0
142
0.0
143
0.03937007874
144
4.0
145
0.0
146
1.0
147
0.5
148
0.0
 71
0
 72
0
 73
0
 74
0
 75
0
 76
0
 77
3
 78
8
 79
3
170
0
171
3
172
1
173
1
174
0
175
0
176
3
177
3
178
7
179
2
271
2
272
2
273
2
274
3
275
0
276
0
277
2
278
46
279
0
280
0
281
0
282
0
283
0
284
8
285
0
286
0
288
0
289
3
340
1EE
343
1EF
344
1EF
371
-2
372
-2
  0
DIMSTYLE
105
274
330
4
100
AcDbSymbolTableRecord
100
AcDbDimStyleTableRecord
  2
GEN009
 70
0
  3

  4

 40
1.0
 41
3.0
 42
1.0
 43
8.0
 44
2.0
 45
0.0
 46
0.0
 47
0.0
 48
0.0
140
4.0
141
1.0
142
0.0
143
0.03937007874
144
4.0
145
0.0
146
1.0
147
0.5
148
0.0
 71
0
 72
0
 73
0
 74
0
 75
0
 76
0
 77
3
 78
8
 79
3
170
0
171
3
172
1
173
1
174
0
175
0
176
3
177
3
178
7
179
2
271
2
272
2
273
2
274
3
275
0
276
0
277
2
278
46
279
0
280
0
281
0
282
0
283
0
284
8
285
0
286
0
288
0
289
3
340
1EE
343
1EF
344
1EF
371
-2
372
-2
  0
DIMSTYLE
105
284
330
4
100
AcDbSymbolTableRecord
100
AcDbDimStyleTableRecord
  2
GEN010
 70
0
  3

  4

 40
1.0
 41
3.0
 42
1.0
 43
8.0
 44
2.0
 45
0.0
 46
0.0
 47
0.0
 48
0.0
140
4.0
141
1.0
142
0.0
143
0.03937007874
144
4.0
145
0.0
146
1.0
147
0.5
148
0.0
 71
0
 72
0
 73
0
 74
0
 75
0
 76
0
 77
3
 78
8
 79
3
170
0
171
3
172
1
173
1
174
0
175
0
176
3
177
3
178
7
179
2
271
2
272
2
273
2
274
3
275
0
276
0
277
2
278
46
279
0
280
0
281
0
282
0
283
0
284
8
285
0
286
0
288
0
289
3
340
1EE
343
1EF
344
1EF
371
-2
372
-2
  0
DIMSTYLE
105
294
330
4
100
AcDbSymbolTableRecord
100
AcDbDimStyleTableRecord
  2
GEN011
 70
0
  3

  4

 40
1.0
 41
3.0
 42
1.0
 43
8.0
 44
2.0
 45
0.0
 46
0.0
 47
0.0
 48
0.0
140
4.0
141
1.0
142
0.0
143
0.03937007874
144
4.0
145
0.0
146
1.0
147
0.5
148
0.0
 71
0
 72
0
 73
0
 74
0
 75
0
 76
0
 77
3
 78
8
 79
3
170
0
171
3
172
1
173
1
174
0
175
0
176
3
177
3
178
7
179
2
271
2
272
2
273
2
274
3
275
0
276
0
277
2
278
46
279
0
280
0
281
0
282
0
283
0
284
8
285
0
286
0
288
0
289
3
340
1EE
343
1EF
344
1EF
371
-2
372
-2
  0
DIMSTYLE
105
2A4
330
4
100
AcDbSymbolTableRecord
100
AcDbDimStyleTableRecord
  2
GEN012
 70
0
  3

  4

 40
1.0
 41
3.0
 42
1.0
 43
8.0
 44
2.0
 45
0.0
 46
0.0
 47
0.0
 48
0.0
140
4.0
141
1.0
142
0.0
143
0.03937007874
144
4.0
145
0.0
146
1.0
147
0.5
148
0.0
 71
0
 72
0
 73
0
 74
0
 75
0
 76
0
 77
3
 78
8
 79
3
170
0
171
3
172
1
173
1
174
0
175
0
176
3
177
3
178
7
179
2
271
2
272
2
273
2
274
3
275
0
276
0
277
2
278
46
279
0
280
0
281
0
282
0
283
0
284
8
285
0
286
0
288
0
289
3
340
1EE
343
1EF
344
1EF
371
-2
372
-2
  0
DIMSTYLE
105
2B4
330
4
100
AcDbSymbolTableRecord
100
AcDbDimStyleTableRecord
  2
GEN013
 70
0
  3

  4

 40
1.0
 41
3.0
 42
1.0
 43
8.0
 44
2.0
 45
0.0
 46
0.0
 47
0.0
 48
0.0
140
4.0
141
1.0
142
0.0
143
0.03937007874
144
4.0
145
0.0
146
1.0
147
0.5
148
0.0
 71
0
 72
0
 73
0
 74
0
 75
0
 76
0
 77
3
 78
8
 79
3
170
0
171
3
172
1
173
1
174
0
175
0
176
3
177
3
178
7
179
2
271
2
272
2
273
2
274
3
275
0
276
0
277
2
278
46
279
0
280
0
281
0
282
0
283
0
284
8
285
0
286
0
288
0
289
3
340
1EE
343
1EF
344
1EF
371
-2
372
-2
  0
DIMSTYLE
105
2C4
330
4
100
AcDbSymbolTableRecord
100
AcDbDimStyleTableRecord
  2
GEN014
 70
0
  3

  4

 40
1.0
 41
3.0
 42
1.0
 43
8.0
 44
2.0
 45
0.0
 46
0.0
 47
0.0
 48
0.0
140
4.0
141
1.0
142
0.0
143
0.03937007874
144
4.0
145
0.0
146
1.0
147
0.5
148
0.0
 71
0
 72
0
 73
0
 74
0
 75
0
 76
0
 77
3
 78
8
 79
3
170
0
171
3
172
1
173
1
174
0
175
0
176
3
177
3
178
7
179
2
271
2
272
2
273
2
274
3
275
0
276
0
277
2
278
46
279
0
280
0
281
0
282
0
283
0
284
8
285
0
286
0
288
0
289
3
340
1EE
343
1EF
344
1EF
371
-2
372
-2
  0
DIMSTYLE
105
2D4
330
4
100
AcDbSymbolTableRecord
100
AcDbDimStyleTableRecord
  2
GEN015
 70
0
  3

  4

 40
1.0
 41
3.0
 42
1.0
 43
8.0
 44
2.0
 45
0.0
 46
0.0
 47
0.0
 48
0.0
140
4.0
141
1.0
142
0.0
143
0.03937007874
144
4.0
145
0.0
146
1.0
147
0.5
148
0.0
 71
0
 72
0
 73
0
 74
0
 75
0
 76
0
 77
3
 78
8
 79
3
170
0
171
3
172
1
173
1
174
0
175
0
176
3
177
3
178
7
179
2
271
2
272
2
273
2
274
3
275
0
276
0
277
2
278
46
279
0
280
0
281
0
282
0
283
0
284
8
285
0
286
0
288
0
289
3
340
1EE
343
1EF
344
1EF
371
-2
372
-2
  0
DIMSTYLE
105
2E4
330
4
100
AcDbSymbolTableRecord
100
AcDbDimStyleTableRecord
  2
GEN016
 70
0
  3

  4

 40
1.0
 41
3.0
 42
1.0
 43
8.0
 44
2.0
 45
0.0
 46
0.0
 47
0.0
 48
0.0
140
4.0
141
1.0
142
0.0
143
0.03937007874
144
4.0
145
0.0
146
1.0
147
0.5
148
0.0
 71
0
 72
0
 73
0
 74
0
 75
0
 76
0
 77
3
 78
8
 79
3
170
0
171
3
172
1
173
1
174
0
175
0
176
3
177
3
178
7
179
2
271
2
272
2
273
2
274
3
275
0
276
0
277
2
278
46
279
0
280
0
281
0
282
0
283
0
284
8
285
0
286
0
288
0
289
3
340
1EE
343
1EF
344
1EF
371
-2
372
-2
  0
DIMSTYLE
105
2F4
330
4
100
AcDbSymbolTableRecord
100
AcDbDimStyleTableRecord
  2
GEN017
 70
0
  3

  4

 40
1.0
 41
3.0
 42
1.0
 43
8.0
 44
2.0
 45
0.0
 46
0.0
 47
0.0
 48
0.0
140
4.0
141
1.0
142
0.0
143
0.03937007874
144
4.0
145
0.0
146
1.0
147
0.5
148
0.0
 71
0
 72
0
 73
0
 74
0
 75
0
 76
0
 77
3
 78
8
 79
3
170
0
171
3
172
1
173
1
174
0
175
0
176
3
177
3
178
7
179
2
271
2
272
2
273
2
274
3
275
0
276
0
277
2
278
46
279
0
280
0
281
0
282
0
283
0
284
8
285
0
286
0
288
0
289
3
340
1EE
343
1EF
344
1EF
371
-2
372
-2
  0
DIMSTYLE
105
304
330
4
100
AcDbSymbolTableRecord
100
AcDbDimStyleTableRecord
  2
GEN018
 70
0
  3

  4

 40
1.0
 41
3.0
 42
1.0
 43
8.0
 44
2.0
 45
0.0
 46
0.0
 47
0.0
 48
0.0
140
4.0
141
1.0
142
0.0
143
0.03937007874
144
4.0
145
0.0
146
1.0
147
0.5
148
0.0
 71
0
 72
0
 73
0
 74
0
 75
0
 76
0
 77
3
 78
8
 79
3
170
0
171
3
172
1
173
1
174
0
175
0
176
3
177
3
178
7
179
2
271
2
272
2
273
2
274
3
275
0
276
0
277
2
278
46
279
0
280
0
281
0
282
0
283
0
284
8
285
0
286
0
288
0
289
3
340
1EE
343
1EF
344
1EF
371
-2
372
-2
  0
DIMSTYLE
105
314
330
4
100
AcDbSymbolTableRecord
100
AcDbDimStyleTableRecord
  2
GEN019
 70
0
  3

  4

 40
1.0
 41
3.0
 42
1.0
 43
8.0
 44
2.0
 45
0.0
 46
0.0
 47
0.0
 48
0.0
140
4.0
141
1.0
142
0.0
143
0.03937007874
144
4.0
145
0.0
146
1.0
147
0.5
148
0.0
 71
0
 72
0
 73
0
 74
0
 75
0
 76
0
 77
3
 78
8
 79
3
170
0
171
3
172
1
173
1
174
0
175
0
176
3
177
3
178
7
179
2
271
2
272
2
273
2
274
3
275
0
276
0
277
2
278
46
279
0
280
0
281
0
282
0
283
0
284
8
285
0
286
0
288
0
289
3
340
1EE
343
1EF
344
1EF
371
-2
372
-2
  0
DIMSTYLE
105
324
330
4
100
AcDbSymbolTableRecord
100
AcDbDimStyleTableRecord
  2
GEN020
 70
0
  3

  4

 40
1.0
 41
3.0
 42
1.0
 43
8.0
 44
2.0
 45
0.0
 46
0.0
 47
0.0
 48
0.0
140
4.0
141
1.0
142
0.0
143
0.03937007874
144
4.0
145
0.0
146
1.0
147
0.5
148
0.0
 71
0
 72
0
 73
0
 74
0
 75
0
 76
0
 77
3
 78
8
 79
3
170
0
171
3
172
1
173
1
174
0
175
0
176
3
177
3
178
7
179
2
271
2
272
2
273
2
274
3
275
0
276
0
277
2
278
46
279
0
280
0
281
0
282
0
283
0
284
8
285
0
286
0
288
0
289
3
340
1EE
343
1EF
344
1EF
371
-2
372
-2
  0
DIMSTYLE
105
334
330
4
100
AcDbSymbolTableRecord
100
AcDbDimStyleTableRecord
  2
GEN021
 70
0
  3

  4

 40
1.0
 41
3.0
 42
1.0
 43
8.0
 44
2.0
 45
0.0
 46
0.0
 47
0.0
 48
0.0
140
4.0
141
1.0
142
0.0
143
0.03937007874
144
4.0
145
0.0
146
1.0
147
0.5
148
0.0
 71
0
 72
0
 73
0
 74
0
 75
0
 76
0
 77
3
 78
8
 79
3
170
0
171
3
172
1
173
1
174
0
175
0
176
3
177
3
178
7
179
2
271
2
272
2
273
2
274
3
275
0
276
0
277
2
278
46
279
0
280
0
281
0
282
0
283
0
284
8
285
0
286
0
288
0
289
3
340
1EE
343
1EF
344
1EF
371
-2
372
-2
  0
DIMSTYLE
105
344
330
4
100
AcDbSymbolTableRecord
100
AcDbDimStyleTableRecord
  2
GEN022
 70
0
  3

  4

 40
1.0
 41
3.0
 42
1.0
 43
8.0
 44
2.0
 45
0.0
 46
0.0
 47
0.0
 48
0.0
140
4.0
141
1.0
142
0.0
143
0.03937007874
144
4.0
145
0.0
146
1.0
147
0.5
148
0.0
 71
0
 72
0
 73
0
 74
0
 75
0
 76
0
 77
3
 78
8
 79
3
170
0
171
3
172
1
173
1
174
0
175
0
176
3
177
3
178
7
179
2
271
2
272
2
273
2
274
3
275
0
276
0
277
2
278
46
279
0
280
0
281
0
282
0
283
0
284
8
285
0
286
0
288
0
289
3
340
1EE
343
1EF
344
1EF
371
-2
372
-2
  0
DIMSTYLE
105
354
330
4
100
AcDbSymbolTableRecord
100
AcDbDimStyleTableRecord
  2
GEN023
 70
0
  3

  4

 40
1.0
 41
3.0
 42
1.0
 43
8.0
 44
2.0
 45
0.0
 46
0.0
 47
0.0
 48
0.0
140
4.0
141
1.0
142
0.0
143
0.03937007874
144
4.0
145
0.0
146
1.0
147
0.5
148
0.0
 71
0
 72
0
 73
0
 74
0
 75
0
 76
0
 77
3
 78
8
 79
3
170
0
171
3
172
1
173
1
174
0
175
0
176
3
177
3
178
7
179
2
271
2
272
2
273
2
274
3
275
0
276
0
277
2
278
46
279
0
280
0
281
0
282
0
283
0
284
8
285
0
286
0
288
0
289
3
340
1EE
343
1EF
344
1EF
371
-2
372
-2
  0
DIMSTYLE
105
364
330
4
100
AcDbSymbolTableRecord
100
AcDbDimStyleTableRecord
  2
GEN024
 70
0
  3
%%c<>
  4

 40
1.0
 41
3.0
 42
1.0
 43
8.0
 44
2.0
 45
0.0
 46
0.0
 47
0.0
 48
0.0
140
4.0
141
1.0
142
0.0
143
0.03937007874
144
4.0
145
0.0
146
1.0
147
0.5
148
0.0
 71
0
 72
0
 73
0
 74
0
 75
0
 76
0
 77
3
 78
8
 79
3
170
0
171
3
172
1
173
1
174
0
175
0
176
3
177
3
178
7
179
2
271
2
272
2
273
2
274
3
275
0
276
0
277
2
278
46
279
0
280
0
281
0
282
0
283
0
284
8
285
0
286
0
288
0
289
3
340
1EE
343
1EF
344
1EF
371
-2
372
-2
  0
DIMSTYLE
105
372
330
4
100
AcDbSymbolTableRecord
100
AcDbDimStyleTableRecord
  2
GEN025
 70
0
  3
R<>
  4

 40
1.0
 41
3.0
 42
1.0
 43
8.0
 44
2.0
 45
0.0
 46
0.0
 47
0.0
 48
0.0
140
4.0
141
1.0
142
0.0
143
0.03937007874
144
4.0
145
0.0
146
1.0
147
0.5
148
0.0
 71
0
 72
0
 73
0
 74
0
 75
0
 76
0
 77
3
 78
8
 79
3
170
0
171
3
172
1
173
1
174
0
175
0
176
3
177
3
178
7
179
2
271
2
272
2
273
2
274
3
275
0
276
0
277
2
278
46
279
0
280
0
281
0
282
0
283
0
284
8
285
0
286
0
288
0
289
3
340
1EE
343
1EF
344
1EF
371
-2
372
-2
  0
DIMSTYLE
105
37E
330
4
100
AcDbSymbolTableRecord
100
AcDbDimStyleTableRecord
  2
GENLDR
 70
0
  3

  4

 40
1.0
 41
3.0
 42
1.0
 43
8.0
 44
2.0
 45
0.0
 46
0.0
 47
0.0
 48
0.0
140
4.0
141
1.0
142
0.0
143
0.03937007874
144
4.0
145
0.0
146
1.0
147
0.5
148
0.0
 71
0
 72
0
 73
0
 74
0
 75
0
 76
0
 77
3
 78
8
 79
3
170
0
171
3
172
1
173
1
174
0
175
0
176
3
177
3
178
7
179
2
271
2
272
2
273
2
274
3
275
0
276
0
277
2
278
46
279
0
280
0
281
0
282
0
283
0
284
8
285
0
286
0
288
0
289
3
340
1EE
343
1EF
344
1EF
371
-2
372
-2
  0
ENDTAB
  0
TABLE
  2
BLOCK_RECORD
  5
9
330
0
100
AcDbSymbolTable
 70
32
  0
BLOCK_RECORD
  5
17
330
9
100
AcDbSymbolTableRecord
100
AcDbBlockTableRecord
  2
*Model_Space
340
1A
  0
BLOCK_RECORD
  5
1B
330
9
100
AcDbSymbolTableRecord
100
AcDbBlockTableRecord
  2
*Paper_Space
340
1E
  0
BLOCK_RECORD
  5
C8
330
9
100
AcDbSymbolTableRecord
100
AcDbBlockTableRecord
  2
BLOCK004
340
0
  0
BLOCK_RECORD
  5
D6
330
9
100
AcDbSymbolTableRecord
100
AcDbBlockTableRecord
  2
BLOCK005
340
0
  0
BLOCK_RECORD
  5
111
330
9
100
AcDbSymbolTableRecord
100
AcDbBlockTableRecord
  2
BLOCK006
340
0
  0
BLOCK_RECORD
  5
118
330
9
100
AcDbSymbolTableRecord
100
AcDbBlockTableRecord
  2
BLOCK007
340
0
  0
BLOCK_RECORD
  5
1EF
330
9
100
AcDbSymbolTableRecord
100
AcDbBlockTableRecord
  2
_OPEN30
340
0
  0
BLOCK_RECORD
  5
1F6
330
9
100
AcDbSymbolTableRecord
100
AcDbBlockTableRecord
  2
*D1
340
0
  0
BLOCK_RECORD
  5
206
330
9
100
AcDbSymbolTableRecord
100
AcDbBlockTableRecord
  2
*D2
340
0
  0
BLOCK_RECORD
  5
216
330
9
100
AcDbSymbolTableRecord
100
AcDbBlockTableRecord
  2
*D3
340
0
  0
BLOCK_RECORD
  5
226
330
9
100
AcDbSymbolTableRecord
100
AcDbBlockTableRecord
  2
*D4
340
0
  0
BLOCK_RECORD
  5
236
330
9
100
AcDbSymbolTableRecord
100
AcDbBlockTableRecord
  2
*D5
340
0
  0
BLOCK_RECORD
  5
246
330
9
100
AcDbSymbolTableRecord
100
AcDbBlockTableRecord
  2
*D6
340
0
  0
BLOCK_RECORD
  5
256
330
9
100
AcDbSymbolTableRecord
100
AcDbBlockTableRecord
  2
*D7
340
0
  0
BLOCK_RECORD
  5
266
330
9
100
AcDbSymbolTableRecord
100
AcDbBlockTableRecord
  2
*D8
340
0
  0
BLOCK_RECORD
  5
276
330
9
100
AcDbSymbolTableRecord
100
AcDbBlockTableRecord
  2
*D9
340
0
  0
BLOCK_RECORD
  5
286
330
9
100
AcDbSymbolTableRecord
100
AcDbBlockTableRecord
  2
*D10
340
0
  0
BLOCK_RECORD
  5
296
330
9
100
AcDbSymbolTableRecord
100
AcDbBlockTableRecord
  2
*D11
340
0
  0
BLOCK_RECORD
  5
2A6
330
9
100
AcDbSymbolTableRecord
100
AcDbBlockTableRecord
  2
*D12
340
0
  0
BLOCK_RECORD
  5
2B6
330
9
100
AcDbSymbolTableRecord
100
AcDbBlockTableRecord
  2
*D13
340
0
  0
BLOCK_RECORD
  5
2C6
330
9
100
AcDbSymbolTableRecord
100
AcDbBlockTableRecord
  2
*D14
340
0
  0
BLOCK_RECORD
  5
2D6
330
9
100
AcDbSymbolTableRecord
100
AcDbBlockTableRecord
  2
*D15
340
0
  0
BLOCK_RECORD
  5
2E6
330
9
100
AcDbSymbolTableRecord
100
AcDbBlockTableRecord
  2
*D16
340
0
  0
BLOCK_RECORD
  5
2F6
330
9
100
AcDbSymbolTableRecord
100
AcDbBlockTableRecord
  2
*D17
340
0
  0
BLOCK_RECORD
  5
306
330
9
100
AcDbSymbolTableRecord
100
AcDbBlockTableRecord
  2
*D18
340
0
  0
BLOCK_RECORD
  5
316
330
9
100
AcDbSymbolTableRecord
100
AcDbBlockTableRecord
  2
*D19
340
0
  0
BLOCK_RECORD
  5
326
330
9
100
AcDbSymbolTableRecord
100
AcDbBlockTableRecord
  2
*D20
340
0
  0
BLOCK_RECORD
  5
336
330
9
100
AcDbSymbolTableRecord
100
AcDbBlockTableRecord
  2
*D21
340
0
  0
BLOCK_RECORD
  5
346
330
9
100
AcDbSymbolTableRecord
100
AcDbBlockTableRecord
  2
*D22
340
0
  0
BLOCK_RECORD
  5
356
330
9
100
AcDbSymbolTableRecord
100
AcDbBlockTableRecord
  2
*D23
340
0
  0
BLOCK_RECORD
  5
366
330
9
100
AcDbSymbolTableRecord
100
AcDbBlockTableRecord
  2
*D24
340
0
  0
BLOCK_RECORD
  5
374
330
9
100
AcDbSymbolTableRecord
100
AcDbBlockTableRecord
  2
*D25
340
0
  0
ENDTAB
  0
ENDSEC
  0
SECTION
  2
BLOCKS
  0
BLOCK
  5
18
330
17
100
AcDbEntity
  8
0
100
AcDbBlockBegin
  2
*Model_Space
 70
0
 10
0.0
 20
0.0
 30
0.0
  3
*Model_Space
  1

  0
ENDBLK
  5
19
330
17
100
AcDbEntity
  8
0
100
AcDbBlockEnd
  0
BLOCK
  5
1C
330
1B
100
AcDbEntity
  8
0
100
AcDbBlockBegin
  2
*Paper_Space
 70
0
 10
0.0
 20
0.0
 30
0.0
  3
*Paper_Space
  1

  0
ENDBLK
  5
1D
330
1B
100
AcDbEntity
  8
0
100
AcDbBlockEnd
  0
BLOCK
  5
C9
330
C8
100
AcDbEntity
  8
0
100
AcDbBlockBegin
  2
BLOCK004
 70
64
 10
0.0
 20
0.0
 30
0.0
  3
BLOCK004
  1

  0
CIRCLE
  5
CB
330
C8
100
AcDbEntity
  8
2
  6
CONTINUOUS
 62
7
370
20
100
AcDbCircle
 10
170.52102818258
 20
10.197623906063
 30
0.0
 40
2.1782975474943
  0
CIRCLE
  5
CC
330
C8
100
AcDbEntity
  8
2
  6
CONTINUOUS
 62
7
370
20
100
AcDbCircle
 10
170.52102818258
 20
10.197623906063
 30
0.0
 40
1.43691326178
  0
LWPOLYLINE
  5
CD
330
C8
100
AcDbEntity
  8
2
  6
CONTINUOUS
 62
7
370
20
100
AcDbPolyline
 90
4
 70
1
 10
175.06221618808
 20
11.634537167843
 10
180.26350009482
 20
12.375921453557
 10
180.26350009482
 20
8.0193263585682
 10
175.06221618808
 20
8.7607106442827
  0
LINE
  5
CE
330
C8
100
AcDbEntity
  8
2
  6
CONTINUOUS
 62
7
370
20
100
AcDbLine
 10
168.03987259152
 20
10.197623906063
 30
0.0
 11
170.80115164912
 21
10.197623906063
 31
0.0
  0
LINE
  5
CF
330
C8
100
AcDbEntity
  8
2
  6
CONTINUOUS
 62
7
370
20
100
AcDbLine
 10
171.25447468719
 20
10.197623906063
 30
0.0
 11
172.20027039241
 21
10.197623906063
 31
0.0
  0
LINE
  5
D0
330
C8
100
AcDbEntity
  8
2
  6
CONTINUOUS
 62
7
370
20
100
AcDbLine
 10
177.29615748089
 20
10.197623906063
 30
0.0
 11
178.2468966452
 21
10.197623906063
 31
0.0
  0
LINE
  5
D1
330
C8
100
AcDbEntity
  8
2
  6
CONTINUOUS
 62
7
370
20
100
AcDbLine
 10
172.99280424365
 20
10.197623906063
 30
0.0
 11
176.67551000266
 21
10.197623906063
 31
0.0
  0
LINE
  5
D2
330
C8
100
AcDbEntity
  8
2
  6
CONTINUOUS
 62
7
370
20
100
AcDbLine
 10
178.91739616362
 20
10.197623906063
 30
0.0
 11
181.17172699337
 21
10.197623906063
 31
0.0
  0
LINE
  5
D3
330
C8
100
AcDbEntity
  8
2
  6
CONTINUOUS
 62
7
370
20
100
AcDbLine
 10
170.52102818258
 20
10.450588115875
 30
0.0
 11
170.52102818258
 21
7.6687870559977
 31
0.0
  0
LINE
  5
D4
330
C8
100
AcDbEntity
  8
2
  6
CONTINUOUS
 62
7
370
20
100
AcDbLine
 10
170.52102818258
 20
11.879149095869
 30
0.0
 11
170.52102818258
 21
10.974485114891
 31
0.0
  0
LINE
  5
D5
330
C8
100
AcDbEntity
  8
2
  6
CONTINUOUS
 62
7
370
20
100
AcDbLine
 10
170.52102818258
 20
12.751764531148
 30
0.0
 11
170.52102818258
 21
12.118986673823
 31
0.0
  0
ENDBLK
  5
CA
330
C8
100
AcDbEntity
  8
0
100
AcDbBlockEnd
  0
BLOCK
  5
D7
330
D6
100
AcDbEntity
  8
0
100
AcDbBlockBegin
  2
BLOCK005
 70
64
 10
0.0
 20
0.0
 30
0.0
  3
BLOCK005
  1

  0
MTEXT
  5
D9
330
D6
100
AcDbEntity
  8
254
 62
7
370
20
100
AcDbMText
 10
149.40450574984
 20
18.703608255046
 30
0.0
 40
2.3113364687439
 41
0.0
 71
1
  1
{\T1.000000;ÇPÇOÇOÇOÅ`}\P{\T1.000000;ÇQÇOÇOÇO}
  7
GMM010
 44
0.79999984000003
  0
MTEXT
  5
DA
330
D6
100
AcDbEntity
  8
254
 62
7
370
20
100
AcDbMText
 10
140.98345281688
 20
18.703608255046
 30
0.0
 40
2.3113364687439
 41
0.0
 71
1
  1
{\T1.000000;ÇSÇOÇOÅ`}\P{\T1.000000;ÇPÇOÇOÇO}
  7
GMM010
 44
0.79999984000003
  0
MTEXT
  5
DB
330
D6
100
AcDbEntity
  8
254
 62
7
370
20
100
AcDbMText
 10
132.43154947819
 20
18.703608255046
 30
0.0
 40
2.3113364687439
 41
0.0
 71
1
  1
{\T1.000000;ÇPÇQÇOÅ`}\P{\T1.000000;ÇSÇOÇO}
  7
GMM010
 44
0.79999984000003
  0
MTEXT
  5
DC
330
D6
100
AcDbEntity
  8
254
 62
7
370
20
100
AcDbMText
 10
124.12265403585
 20
18.703608255046
 30
0.0
 40
2.3113364687439
 41
0.0
 71
1
  1
{\T1.000000;ÇRÇOÅ@Å`}\P{\T1.000000;ÇPÇQÇO}
  7
GMM010
 44
0.79999984000003
  0
MTEXT
  5
DD
330
D6
100
AcDbEntity
  8
254
 62
7
370
20
100
AcDbMText
 10
115.58944361226
 20
18.703608255046
 30
0.0
 40
2.3113364687439
 41
0.0
 71
1
  1
{\T1.000000;ÇUÅ@Å`}\P{\T1.000000;ÇRÇO}
  7
GMM010
 44
0.79999984000003
  0
MTEXT
  5
DE
330
D6
100
AcDbEntity
  8
254
 62
7
370
20
100
AcDbMText
 10
107.24316233971
 20
18.703608255046
 30
0.0
 40
2.3113364687439
 41
0.0
 71
1
  1
{\T1.000000;ÇRÅ@Å`}\P{\T1.000000;ÇU}
  7
GMM010
 44
0.79999984000003
  0
LINE
  5
DF
330
D6
100
AcDbEntity
  8
2
  6
CONTINUOUS
 62
3
370
9
100
AcDbLine
 10
96.972262552243
 20
20.550214344458
 30
0.0
 11
166.43737735483
 21
20.550214344458
 31
0.0
  0
LINE
  5
E0
330
D6
100
AcDbEntity
  8
2
  6
CONTINUOUS
 62
3
370
9
100
AcDbLine
 10
96.972262552243
 20
13.84845139869
 30
0.0
 11
106.70490438971
 21
13.84845139869
 31
0.0
  0
LINE
  5
E1
330
D6
100
AcDbEntity
  8
2
  6
CONTINUOUS
 62
3
370
9
100
AcDbLine
 10
106.70490438971
 20
13.84845139869
 30
0.0
 11
115.2381148133
 21
13.84845139869
 31
0.0
  0
LINE
  5
E2
330
D6
100
AcDbEntity
  8
2
  6
CONTINUOUS
 62
3
370
9
100
AcDbLine
 10
115.2381148133
 20
13.84845139869
 30
0.0
 11
123.77132523688
 21
13.84845139869
 31
0.0
  0
LINE
  5
E3
330
D6
100
AcDbEntity
  8
2
  6
CONTINUOUS
 62
3
370
9
100
AcDbLine
 10
123.77132523688
 20
13.84845139869
 30
0.0
 11
132.30453566047
 21
13.84845139869
 31
0.0
  0
LINE
  5
E4
330
D6
100
AcDbEntity
  8
2
  6
CONTINUOUS
 62
3
370
9
100
AcDbLine
 10
132.30453566047
 20
13.84845139869
 30
0.0
 11
140.83774608406
 21
13.84845139869
 31
0.0
  0
LINE
  5
E5
330
D6
100
AcDbEntity
  8
2
  6
CONTINUOUS
 62
3
370
9
100
AcDbLine
 10
140.83774608406
 20
13.84845139869
 30
0.0
 11
149.37095650765
 21
13.84845139869
 31
0.0
  0
LINE
  5
E6
330
D6
100
AcDbEntity
  8
2
  6
CONTINUOUS
 62
3
370
9
100
AcDbLine
 10
149.37095650765
 20
13.84845139869
 30
0.0
 11
157.90416693124
 21
13.84845139869
 31
0.0
  0
LINE
  5
E7
330
D6
100
AcDbEntity
  8
2
  6
CONTINUOUS
 62
3
370
9
100
AcDbLine
 10
157.90416693124
 20
13.84845139869
 30
0.0
 11
166.43737735483
 21
13.84845139869
 31
0.0
  0
MTEXT
  5
E8
330
D6
100
AcDbEntity
  8
254
 62
7
370
20
100
AcDbMText
 10
101.75381223092
 20
18.703608255046
 30
0.0
 40
2.3113364687439
 41
0.0
 71
2
  1
{\T1.000000;Å†Çí¥Ç¶}\P{\T1.000000;Å†à»â∫}
  7
GMM011
 44
0.79999984000003
  0
MTEXT
  5
E9
330
D6
100
AcDbEntity
  8
254
 62
7
370
20
100
AcDbMText
 10
157.87528390182
 20
18.703608255046
 30
0.0
 40
2.3113364687439
 41
0.0
 71
1
  1
{\T1.000000;ÇQÇOÇOÇOÅ`}\P{\T1.000000;ÇSÇOÇOÇO}
  7
GMM010
 44
0.79999984000003
  0
LINE
  5
EA
330
D6
100
AcDbEntity
  8
2
  6
CONTINUOUS
 62
3
370
9
100
AcDbLine
 10
157.90416693124
 20
9.424225699345
 30
0.0
 11
166.43737735483
 21
9.424225699345
 31
0.0
  0
LINE
  5
EB
330
D6
100
AcDbEntity
  8
2
  6
CONTINUOUS
 62
3
370
9
100
AcDbLine
 10
149.37095650765
 20
9.424225699345
 30
0.0
 11
157.90416693124
 21
9.424225699345
 31
0.0
  0
LINE
  5
EC
330
D6
100
AcDbEntity
  8
2
  6
CONTINUOUS
 62
3
370
9
100
AcDbLine
 10
140.83774608406
 20
9.424225699345
 30
0.0
 11
149.37095650765
 21
9.424225699345
 31
0.0
  0
LINE
  5
ED
330
D6
100
AcDbEntity
  8
2
  6
CONTINUOUS
 62
3
370
9
100
AcDbLine
 10
132.30453566047
 20
9.424225699345
 30
0.0
 11
140.83774608406
 21
9.424225699345
 31
0.0
  0
LINE
  5
EE
330
D6
100
AcDbEntity
  8
2
  6
CONTINUOUS
 62
3
370
9
100
AcDbLine
 10
123.77132523688
 20
9.424225699345
 30
0.0
 11
132.30453566047
 21
9.424225699345
 31
0.0
  0
LINE
  5
EF
330
D6
100
AcDbEntity
  8
2
  6
CONTINUOUS
 62
3
370
9
100
AcDbLine
 10
115.2381148133
 20
9.424225699345
 30
0.0
 11
123.77132523688
 21
9.424225699345
 31
0.0
  0
LINE
  5
F0
330
D6
100
AcDbEntity
  8
2
  6
CONTINUOUS
 62
3
370
9
100
AcDbLine
 10
106.70490438971
 20
9.424225699345
 30
0.0
 11
115.2381148133
 21
9.424225699345
 31
0.0
  0
LINE
  5
F1
330
D6
100
AcDbEntity
  8
2
  6
CONTINUOUS
 62
3
370
9
100
AcDbLine
 10
96.972262552243
 20
9.424225699345
 30
0.0
 11
106.70490438971
 21
9.424225699345
 31
0.0
  0
LINE
  5
F2
330
D6
100
AcDbEntity
  8
2
  6
CONTINUOUS
 62
3
370
9
100
AcDbLine
 10
106.70490438971
 20
20.550214344458
 30
0.0
 11
106.70490438971
 21
4.9999999999998
 31
0.0
  0
LINE
  5
F3
330
D6
100
AcDbEntity
  8
2
  6
CONTINUOUS
 62
3
370
9
100
AcDbLine
 10
115.2381148133
 20
20.550214344458
 30
0.0
 11
115.2381148133
 21
4.9999999999998
 31
0.0
  0
LINE
  5
F4
330
D6
100
AcDbEntity
  8
2
  6
CONTINUOUS
 62
3
370
9
100
AcDbLine
 10
123.77132523688
 20
20.550214344458
 30
0.0
 11
123.77132523688
 21
4.9999999999998
 31
0.0
  0
LINE
  5
F5
330
D6
100
AcDbEntity
  8
2
  6
CONTINUOUS
 62
3
370
9
100
AcDbLine
 10
132.30453566047
 20
20.550214344458
 30
0.0
 11
132.30453566047
 21
4.9999999999998
 31
0.0
  0
LINE
  5
F6
330
D6
100
AcDbEntity
  8
2
  6
CONTINUOUS
 62
3
370
9
100
AcDbLine
 10
140.83774608406
 20
20.550214344458
 30
0.0
 11
140.83774608406
 21
4.9999999999998
 31
0.0
  0
LINE
  5
F7
330
D6
100
AcDbEntity
  8
2
  6
CONTINUOUS
 62
3
370
9
100
AcDbLine
 10
149.37095650765
 20
20.550214344458
 30
0.0
 11
149.37095650765
 21
4.9999999999998
 31
0.0
  0
LINE
  5
F8
330
D6
100
AcDbEntity
  8
2
  6
CONTINUOUS
 62
3
370
9
100
AcDbLine
 10
157.90416693124
 20
20.550214344458
 30
0.0
 11
157.90416693124
 21
4.9999999999998
 31
0.0
  0
MTEXT
  5
F9
330
D6
100
AcDbEntity
  8
254
 62
7
370
20
100
AcDbMText
 10
110.66396580379
 20
7.3356081976647
 30
0.0
 40
2.3113364687439
 41
0.0
 71
5
  1
%%p\T1.000000;ÇP
  7
GMM010
 44
0.79999984000003
  0
MTEXT
  5
FA
330
D6
100
AcDbEntity
  8
254
 62
7
370
20
100
AcDbMText
 10
119.19717622738
 20
7.3356081976647
 30
0.0
 40
2.3113364687439
 41
0.0
 71
5
  1
%%p\T1.000000;ÇP
  7
GMM010
 44
0.79999984000003
  0
MTEXT
  5
FB
330
D6
100
AcDbEntity
  8
254
 62
7
370
20
100
AcDbMText
 10
127.73038665097
 20
7.3356081976647
 30
0.0
 40
2.3113364687439
 41
0.0
 71
5
  1
%%p\T1.000000;ÇPÅDÇT
  7
GMM010
 44
0.79999984000003
  0
MTEXT
  5
FC
330
D6
100
AcDbEntity
  8
254
 62
7
370
20
100
AcDbMText
 10
136.26359707456
 20
7.3356081976647
 30
0.0
 40
2.3113364687439
 41
0.0
 71
5
  1
%%p\T1.000000;ÇQ
  7
GMM010
 44
0.79999984000003
  0
MTEXT
  5
FD
330
D6
100
AcDbEntity
  8
254
 62
7
370
20
100
AcDbMText
 10
144.79680749815
 20
7.3356081976647
 30
0.0
 40
2.3113364687439
 41
0.0
 71
5
  1
%%p\T1.000000;ÇQÅDÇT
  7
GMM010
 44
0.79999984000003
  0
MTEXT
  5
FE
330
D6
100
AcDbEntity
  8
254
 62
7
370
20
100
AcDbMText
 10
153.33001792174
 20
7.3356081976647
 30
0.0
 40
2.3113364687439
 41
0.0
 71
5
  1
%%p\T1.000000;ÇR
  7
GMM010
 44
0.79999984000003
  0
MTEXT
  5
FF
330
D6
100
AcDbEntity
  8
254
 62
7
370
20
100
AcDbMText
 10
161.12785112996
 20
7.3356081976647
 30
0.0
 40
2.3113364687439
 41
0.0
 71
5
  1
%%p\T1.000000;ÇS
  7
GMM010
 44
0.79999984000003
  0
MTEXT
  5
100
330
D6
100
AcDbEntity
  8
254
 62
7
370
20
100
AcDbMText
 10
110.51442248296
 20
11.634920373638
 30
0.0
 40
2.3113364687439
 41
0.0
 71
5
  1
%%p\T1.000000;ÇOÅDÇP
  7
GMM010
 44
0.79999984000003
  0
MTEXT
  5
101
330
D6
100
AcDbEntity
  8
254
 62
7
370
20
100
AcDbMText
 10
119.04763290655
 20
11.634920373638
 30
0.0
 40
2.3113364687439
 41
0.0
 71
5
  1
%%p\T1.000000;ÇOÅDÇQ
  7
GMM010
 44
0.79999984000003
  0
MTEXT
  5
102
330
D6
100
AcDbEntity
  8
254
 62
7
370
20
100
AcDbMText
 10
127.58084333014
 20
11.634920373638
 30
0.0
 40
2.3113364687439
 41
0.0
 71
5
  1
%%p\T1.000000;ÇOÅDÇR
  7
GMM010
 44
0.79999984000003
  0
MTEXT
  5
103
330
D6
100
AcDbEntity
  8
254
 62
7
370
20
100
AcDbMText
 10
136.11405375372
 20
11.634920373638
 30
0.0
 40
2.3113364687439
 41
0.0
 71
5
  1
%%p\T1.000000;ÇOÅDÇT
  7
GMM010
 44
0.79999984000003
  0
MTEXT
  5
104
330
D6
100
AcDbEntity
  8
254
 62
7
370
20
100
AcDbMText
 10
144.64726417731
 20
11.634920373638
 30
0.0
 40
2.3113364687439
 41
0.0
 71
5
  1
%%p\T1.000000;ÇOÅDÇW
  7
GMM010
 44
0.79999984000003
  0
MTEXT
  5
105
330
D6
100
AcDbEntity
  8
254
 62
7
370
20
100
AcDbMText
 10
153.1804746009
 20
11.634920373638
 30
0.0
 40
2.3113364687439
 41
0.0
 71
5
  1
%%p\T1.000000;ÇPÅDÇQ
  7
GMM010
 44
0.79999984000003
  0
MTEXT
  5
106
330
D6
100
AcDbEntity
  8
254
 62
7
370
20
100
AcDbMText
 10
160.97830780913
 20
11.634920373638
 30
0.0
 40
2.3113364687439
 41
0.0
 71
5
  1
%%p\T1.000000;ÇQ
  7
GMM010
 44
0.79999984000003
  0
MTEXT
  5
107
330
D6
100
AcDbEntity
  8
254
 62
7
370
20
100
AcDbMText
 10
99.896982663893
 20
11.634920373638
 30
0.0
 40
2.5424701156183
 41
0.0
 71
5
  1
\T1.000000;ã@äB
  7
GMM001
 44
0.79999984000003
  0
MTEXT
  5
108
330
D6
100
AcDbEntity
  8
254
 62
7
370
20
100
AcDbMText
 10
99.896982663893
 20
7.3356081976647
 30
0.0
 40
2.5424701156183
 41
0.0
 71
5
  1
\T1.000000;êªä 
  7
GMM001
 44
0.79999984000003
  0
MTEXT
  5
109
330
D6
100
AcDbEntity
  8
254
 62
7
370
20
100
AcDbMText
 10
104.68236893058
 20
11.335833731969
 30
0.0
 40
1.7335023515579
 41
0.0
 71
5
  1
\T1.000000;â¡çH
  7
GMM012
 44
0.79999984000003
  0
MTEXT
  5
10A
330
D6
100
AcDbEntity
  8
254
 62
7
370
20
100
AcDbMText
 10
104.68236893058
 20
6.9116080326244
 30
0.0
 40
1.7335023515579
 41
0.0
 71
5
  1
\T1.000000;â¡çH
  7
GMM012
 44
0.79999984000003
  0
LINE
  5
10B
330
D6
100
AcDbEntity
  8
2
  6
CONTINUOUS
 62
3
370
9
100
AcDbLine
 10
92.759851837957
 20
24.469731335988
 30
0.0
 11
166.43737735483
 21
24.469731335988
 31
0.0
  0
TEXT
  5
10C
330
D6
100
AcDbEntity
  8
254
 62
3
370
9
100
AcDbText
 10
94.70298091284
 20
24.260906217143
 30
0.0
 40
2.3113364687439
  1
àÍî ê°ñ@åˆç∑
  7
STANDARD1
 41
1.0935
100
AcDbText
  0
LINE
  5
10D
330
D6
100
AcDbEntity
  8
254
  6
CONTINUOUS
 62
3
370
9
100
AcDbLine
 10
96.972262552243
 20
4.9999999999998
 30
0.0
 11
96.972262552243
 21
24.469731335988
 31
0.0
  0
MTEXT
  5
10E
330
D6
100
AcDbEntity
  8
254
 62
7
370
20
100
AcDbMText
 10
97.619100225429
 20
22.588396985111
 30
0.0
 40
2.3113364687439
 41
0.0
 71
4
  1
\W0.950000;\T1.000000;ÇiÇhÇr\W0.475000;\T1.000000; \W0.950000;\T1.000000;Ça\W0.475000;\T1.000000; \W0.950000;\T1.000000;ÇOÇSÇOÇTÅ|ÇçÅiíÜãâÅjíPà \W0.475000;\T1.000000;:\W0.950000;\T1.000000;ÇçÇç
  7
GMM011
 44
0.79999984000003
  0
MTEXT
  5
10F
330
D6
100
AcDbEntity
  8
254
 62
3
370
9
100
AcDbMText
 10
93.394501411866
 20
26.559319493178
 30
0.0
 40
2.5424701156183
 41
0.0
 71
4
  1
\T1.000000;ì¡ãLÇ»Ç´äpÇÕéÖñ éÊÇËÅAã˜ÇÕÇqÇOÅDÇTà»â∫ÅAçaâ¡çHÇÃíÍÇqÇÕÇqÇPÅDÇTà»â∫
  7
GMM014
 44
0.79999984000003
  0
LWPOLYLINE
  5
110
330
D6
100
AcDbEntity
  8
2
  6
CONTINUOUS
 62
1
370
15
100
AcDbPolyline
 90
4
 70
1
 10
92.759851837957
 20
4.9999999999998
 10
166.43737735483
 20
4.9999999999998
 10
166.43737735483
 20
28.5895
 10
92.759851837957
 20
28.5895
  0
ENDBLK
  5
D8
330
D6
100
AcDbEntity
  8
0
100
AcDbBlockEnd
  0
BLOCK
  5
112
330
111
100
AcDbEntity
  8
0
100
AcDbBlockBegin
  2
BLOCK006
 70
64
 10
0.0
 20
0.0
 30
0.0
  3
BLOCK006
  1

  0
LINE
  5
114
330
111
100
AcDbEntity
  8
254
  6
CONTINUOUS
 62
1
370
15
100
AcDbLine
 10
11.33285798981
 20
12.029538831528
 30
0.0
 11
6.7003419901737
 21
12.029538831528
 31
0.0
  0
LINE
  5
115
330
111
100
AcDbEntity
  8
254
  6
CONTINUOUS
 62
1
370
15
100
AcDbLine
 10
9.0165999899916
 20
15.967177431219
 30
0.0
 11
11.33285798981
 21
12.029538831528
 31
0.0
  0
LINE
  5
116
330
111
100
AcDbEntity
  8
254
  6
CONTINUOUS
 62
1
370
15
100
AcDbLine
 10
9.0165999899916
 20
15.967177431219
 30
0.0
 11
6.7003419901737
 21
12.029538831528
 31
0.0
  0
MTEXT
  5
117
330
111
100
AcDbEntity
  8
254
 62
7
370
20
100
AcDbMText
 10
9.0165999899916
 20
13.392043537304
 30
0.0
 40
2.8433772321429
 41
0.0
 71
5
  1
\T1.000000;ÇP
  7
GMM001
 44
0.79999984000003
  0
ENDBLK
  5
113
330
111
100
AcDbEntity
  8
0
100
AcDbBlockEnd
  0
BLOCK
  5
119
330
118
100
AcDbEntity
  8
0
100
AcDbBlockBegin
  2
BLOCK007
 70
64
 10
0.0
 20
0.0
 30
0.0
  3
BLOCK007
  1

  0
LINE
  5
11B
330
118
100
AcDbEntity
  8
254
  6
CONTINUOUS
 62
1
370
15
100
AcDbLine
 10
11.33285798981
 20
17.926913831528
 30
0.0
 11
6.7003419901737
 21
17.926913831528
 31
0.0
  0
LINE
  5
11C
330
118
100
AcDbEntity
  8
254
  6
CONTINUOUS
 62
1
370
15
100
AcDbLine
 10
9.0165999899916
 20
21.864552431219
 30
0.0
 11
11.33285798981
 21
17.926913831528
 31
0.0
  0
LINE
  5
11D
330
118
100
AcDbEntity
  8
254
  6
CONTINUOUS
 62
1
370
15
100
AcDbLine
 10
9.0165999899916
 20
21.864552431219
 30
0.0
 11
6.7003419901737
 21
17.926913831528
 31
0.0
  0
MTEXT
  5
11E
330
118
100
AcDbEntity
  8
254
 62
7
370
20
100
AcDbMText
 10
9.0165999899916
 20
19.289418537303
 30
0.0
 40
2.8433772321429
 41
0.0
 71
5
  1
\T1.000000;ÇQ
  7
GMM001
 44
0.79999984000003
  0
ENDBLK
  5
11A
330
118
100
AcDbEntity
  8
0
100
AcDbBlockEnd
  0
BLOCK
  5
1F0
330
1EF
100
AcDbEntity
  8
0
100
AcDbBlockBegin
  2
_OPEN30
 70
0
 10
0.0
 20
0.0
 30
0.0
  3
_OPEN30
  1

  0
LWPOLYLINE
  5
1F2
330
1EF
100
AcDbEntity
  8
0
  6
BYBLOCK
 62
0
100
AcDbPolyline
 90
3
 70
0
 10
-1.0
 20
0.25881904510252074
 10
0.0
 20
0.0
 10
-1.0
 20
-0.25881904510252074
  0
LINE
  5
1F3
330
1EF
100
AcDbEntity
  8
0
  6
BYBLOCK
 62
0
100
AcDbLine
 10
0.0
 20
0.0
 30
0.0
 11
-1.0
 21
0.0
 31
0.0
  0
ENDBLK
  5
1F1
330
1EF
100
AcDbEntity
  8
0
100
AcDbBlockEnd
  0
BLOCK
  5
1F7
330
1F6
100
AcDbEntity
  8
0
100
AcDbBlockBegin
  2
*D1
 70
1
 10
0.0
 20
0.0
 30
0.0
  3
*D1
  1

  0
LINE
  5
1F9
330
1F6
100
AcDbEntity
  8
0
 62
3
100
AcDbLine
 10
167.99999999999994
 20
101.49999999999986
 30
0.0
 11
167.99999999999994
 21
75.75000000001015
 31
0.0
  0
LINE
  5
1FA
330
1F6
100
AcDbEntity
  8
0
 62
3
100
AcDbLine
 10
193.74999999999994
 20
101.49999999999986
 30
0.0
 11
193.74999999999994
 21
75.75000000001015
 31
0.0
  0
INSERT
  5
1FB
330
1F6
100
AcDbEntity
  8
1
 62
3
100
AcDbBlockReference
  2
_OPEN30
 10
167.99999999999994
 20
77.75000000001015
 30
0.0
 41
3.0
 42
3.0
 50
180.0
  0
INSERT
  5
1FD
330
1F6
100
AcDbEntity
  8
1
 62
3
100
AcDbBlockReference
  2
_OPEN30
 10
193.74999999999994
 20
77.75000000001015
 30
0.0
 41
3.0
 42
3.0
  0
LINE
  5
1FF
330
1F6
100
AcDbEntity
  8
0
 62
3
100
AcDbLine
 10
170.99999999999994
 20
77.75000000001015
 30
0.0
 11
190.74999999999994
 21
77.75000000001015
 31
0.0
  0
MTEXT
  5
200
330
1F6
100
AcDbEntity
  8
1
 62
7
100
AcDbMText
 10
180.87499999999994
 20
80.25000000001015
 30
0.0
 40
4.0
 71
5
  1
103
  7
VF003
  0
POINT
  5
201
330
1F6
100
AcDbEntity
  8
Defpoints
100
AcDbPoint
 10
167.99999999999994
 20
77.75000000001015
 30
0.0
  0
POINT
  5
202
330
1F6
100
AcDbEntity
  8
Defpoints
100
AcDbPoint
 10
167.99999999999994
 20
102.49999999999986
 30
0.0
  0
POINT
  5
203
330
1F6
100
AcDbEntity
  8
Defpoints
100
AcDbPoint
 10
193.74999999999994
 20
102.49999999999986
 30
0.0
  0
ENDBLK
  5
1F8
330
1F6
100
AcDbEntity
  8
0
100
AcDbBlockEnd
  0
BLOCK
  5
207
330
206
100
AcDbEntity
  8
0
100
AcDbBlockBegin
  2
*D2
 70
1
 10
0.0
 20
0.0
 30
0.0
  3
*D2
  1

  0
LINE
  5
209
330
206
100
AcDbEntity
  8
0
 62
3
100
AcDbLine
 10
162.99999999999994
 20
96.49999999999986
 30
0.0
 11
162.99999999999994
 21
67.75000000001015
 31
0.0
  0
LINE
  5
20A
330
206
100
AcDbEntity
  8
0
 62
3
100
AcDbLine
 10
198.74999999999994
 20
96.49999999999986
 30
0.0
 11
198.74999999999994
 21
67.75000000001015
 31
0.0
  0
INSERT
  5
20B
330
206
100
AcDbEntity
  8
1
 62
3
100
AcDbBlockReference
  2
_OPEN30
 10
162.99999999999994
 20
69.75000000001015
 30
0.0
 41
3.0
 42
3.0
 50
180.0
  0
INSERT
  5
20D
330
206
100
AcDbEntity
  8
1
 62
3
100
AcDbBlockReference
  2
_OPEN30
 10
198.74999999999994
 20
69.75000000001015
 30
0.0
 41
3.0
 42
3.0
  0
LINE
  5
20F
330
206
100
AcDbEntity
  8
0
 62
3
100
AcDbLine
 10
165.99999999999994
 20
69.75000000001015
 30
0.0
 11
195.74999999999994
 21
69.75000000001015
 31
0.0
  0
MTEXT
  5
210
330
206
100
AcDbEntity
  8
1
 62
7
100
AcDbMText
 10
180.87499999999994
 20
72.25000000001015
 30
0.0
 40
4.0
 71
5
  1
143
  7
VF003
  0
POINT
  5
211
330
206
100
AcDbEntity
  8
Defpoints
100
AcDbPoint
 10
162.99999999999994
 20
69.75000000001015
 30
0.0
  0
POINT
  5
212
330
206
100
AcDbEntity
  8
Defpoints
100
AcDbPoint
 10
162.99999999999994
 20
97.49999999999986
 30
0.0
  0
POINT
  5
213
330
206
100
AcDbEntity
  8
Defpoints
100
AcDbPoint
 10
198.74999999999994
 20
97.49999999999986
 30
0.0
  0
ENDBLK
  5
208
330
206
100
AcDbEntity
  8
0
100
AcDbBlockEnd
  0
BLOCK
  5
217
330
216
100
AcDbEntity
  8
0
100
AcDbBlockBegin
  2
*D3
 70
1
 10
0.0
 20
0.0
 30
0.0
  3
*D3
  1

  0
LINE
  5
219
330
216
100
AcDbEntity
  8
0
 62
3
100
AcDbLine
 10
159.24999999999994
 20
92.74999999999986
 30
0.0
 11
159.24999999999994
 21
59.75000000001015
 31
0.0
  0
LINE
  5
21A
330
216
100
AcDbEntity
  8
0
 62
3
100
AcDbLine
 10
202.49999999999994
 20
92.74999999999986
 30
0.0
 11
202.49999999999994
 21
59.75000000001015
 31
0.0
  0
INSERT
  5
21B
330
216
100
AcDbEntity
  8
1
 62
3
100
AcDbBlockReference
  2
_OPEN30
 10
159.24999999999994
 20
61.75000000001015
 30
0.0
 41
3.0
 42
3.0
 50
180.0
  0
INSERT
  5
21D
330
216
100
AcDbEntity
  8
1
 62
3
100
AcDbBlockReference
  2
_OPEN30
 10
202.49999999999994
 20
61.75000000001015
 30
0.0
 41
3.0
 42
3.0
  0
LINE
  5
21F
330
216
100
AcDbEntity
  8
0
 62
3
100
AcDbLine
 10
162.24999999999994
 20
61.75000000001015
 30
0.0
 11
199.49999999999994
 21
61.75000000001015
 31
0.0
  0
MTEXT
  5
220
330
216
100
AcDbEntity
  8
1
 62
7
100
AcDbMText
 10
180.87499999999994
 20
64.25000000001015
 30
0.0
 40
4.0
 71
5
  1
173
  7
VF003
  0
POINT
  5
221
330
216
100
AcDbEntity
  8
Defpoints
100
AcDbPoint
 10
159.24999999999994
 20
61.75000000001015
 30
0.0
  0
POINT
  5
222
330
216
100
AcDbEntity
  8
Defpoints
100
AcDbPoint
 10
159.24999999999994
 20
93.74999999999986
 30
0.0
  0
POINT
  5
223
330
216
100
AcDbEntity
  8
Defpoints
100
AcDbPoint
 10
202.49999999999994
 20
93.74999999999986
 30
0.0
  0
ENDBLK
  5
218
330
216
100
AcDbEntity
  8
0
100
AcDbBlockEnd
  0
BLOCK
  5
227
330
226
100
AcDbEntity
  8
0
100
AcDbBlockBegin
  2
*D4
 70
1
 10
0.0
 20
0.0
 30
0.0
  3
*D4
  1

  0
LINE
  5
229
330
226
100
AcDbEntity
  8
0
 62
3
100
AcDbLine
 10
178.37499999999994
 20
226.49999999999986
 30
0.0
 11
178.37499999999994
 21
246.25000000000003
 31
0.0
  0
LINE
  5
22A
330
226
100
AcDbEntity
  8
0
 62
3
100
AcDbLine
 10
183.37499999999994
 20
226.49999999999986
 30
0.0
 11
183.37499999999994
 21
246.25000000000003
 31
0.0
  0
INSERT
  5
22B
330
226
100
AcDbEntity
  8
1
 62
3
100
AcDbBlockReference
  2
_OPEN30
 10
178.37499999999994
 20
244.25000000000003
 30
0.0
 41
3.0
 42
3.0
  0
INSERT
  5
22D
330
226
100
AcDbEntity
  8
1
 62
3
100
AcDbBlockReference
  2
_OPEN30
 10
183.37499999999994
 20
244.25000000000003
 30
0.0
 41
3.0
 42
3.0
 50
180.0
  0
LINE
  5
22F
330
226
100
AcDbEntity
  8
0
 62
3
100
AcDbLine
 10
178.37499999999994
 20
244.25000000000003
 30
0.0
 11
183.37499999999994
 21
244.25000000000003
 31
0.0
  0
MTEXT
  5
230
330
226
100
AcDbEntity
  8
1
 62
7
100
AcDbMText
 10
180.87499999999994
 20
248.75000000000003
 30
0.0
 40
4.0
 71
5
  1
20
  7
VF003
  0
POINT
  5
231
330
226
100
AcDbEntity
  8
Defpoints
100
AcDbPoint
 10
178.37499999999994
 20
244.25000000000003
 30
0.0
  0
POINT
  5
232
330
226
100
AcDbEntity
  8
Defpoints
100
AcDbPoint
 10
178.37499999999994
 20
225.49999999999986
 30
0.0
  0
POINT
  5
233
330
226
100
AcDbEntity
  8
Defpoints
100
AcDbPoint
 10
183.37499999999994
 20
225.49999999999986
 30
0.0
  0
ENDBLK
  5
228
330
226
100
AcDbEntity
  8
0
100
AcDbBlockEnd
  0
BLOCK
  5
237
330
236
100
AcDbEntity
  8
0
100
AcDbBlockBegin
  2
*D5
 70
1
 10
0.0
 20
0.0
 30
0.0
  3
*D5
  1

  0
LINE
  5
239
330
236
100
AcDbEntity
  8
0
 62
3
100
AcDbLine
 10
162.24999999999994
 20
219.62499999999986
 30
0.0
 11
162.24999999999994
 21
254.25000000000003
 31
0.0
  0
LINE
  5
23A
330
236
100
AcDbEntity
  8
0
 62
3
100
AcDbLine
 10
199.49999999999994
 20
219.62499999999986
 30
0.0
 11
199.49999999999994
 21
254.25000000000003
 31
0.0
  0
INSERT
  5
23B
330
236
100
AcDbEntity
  8
1
 62
3
100
AcDbBlockReference
  2
_OPEN30
 10
162.24999999999994
 20
252.25000000000003
 30
0.0
 41
3.0
 42
3.0
 50
180.0
  0
INSERT
  5
23D
330
236
100
AcDbEntity
  8
1
 62
3
100
AcDbBlockReference
  2
_OPEN30
 10
199.49999999999994
 20
252.25000000000003
 30
0.0
 41
3.0
 42
3.0
  0
LINE
  5
23F
330
236
100
AcDbEntity
  8
0
 62
3
100
AcDbLine
 10
165.24999999999994
 20
252.25000000000003
 30
0.0
 11
196.49999999999994
 21
252.25000000000003
 31
0.0
  0
MTEXT
  5
240
330
236
100
AcDbEntity
  8
1
 62
7
100
AcDbMText
 10
180.87499999999994
 20
254.75000000000003
 30
0.0
 40
4.0
 71
5
  1
149
  7
VF003
  0
POINT
  5
241
330
236
100
AcDbEntity
  8
Defpoints
100
AcDbPoint
 10
162.24999999999994
 20
252.25000000000003
 30
0.0
  0
POINT
  5
242
330
236
100
AcDbEntity
  8
Defpoints
100
AcDbPoint
 10
162.24999999999994
 20
218.62499999999986
 30
0.0
  0
POINT
  5
243
330
236
100
AcDbEntity
  8
Defpoints
100
AcDbPoint
 10
199.49999999999994
 20
218.62499999999986
 30
0.0
  0
ENDBLK
  5
238
330
236
100
AcDbEntity
  8
0
100
AcDbBlockEnd
  0
BLOCK
  5
247
330
246
100
AcDbEntity
  8
0
100
AcDbBlockBegin
  2
*D6
 70
1
 10
0.0
 20
0.0
 30
0.0
  3
*D6
  1

  0
LINE
  5
249
330
246
100
AcDbEntity
  8
0
 62
3
100
AcDbLine
 10
161.62499999999994
 20
224.49999999999986
 30
0.0
 11
161.62499999999994
 21
262.25
 31
0.0
  0
LINE
  5
24A
330
246
100
AcDbEntity
  8
0
 62
3
100
AcDbLine
 10
200.12499999999994
 20
224.49999999999986
 30
0.0
 11
200.12499999999994
 21
262.25
 31
0.0
  0
INSERT
  5
24B
330
246
100
AcDbEntity
  8
1
 62
3
100
AcDbBlockReference
  2
_OPEN30
 10
161.62499999999994
 20
260.25
 30
0.0
 41
3.0
 42
3.0
 50
180.0
  0
INSERT
  5
24D
330
246
100
AcDbEntity
  8
1
 62
3
100
AcDbBlockReference
  2
_OPEN30
 10
200.12499999999994
 20
260.25
 30
0.0
 41
3.0
 42
3.0
  0
LINE
  5
24F
330
246
100
AcDbEntity
  8
0
 62
3
100
AcDbLine
 10
164.62499999999994
 20
260.25
 30
0.0
 11
197.12499999999994
 21
260.25
 31
0.0
  0
MTEXT
  5
250
330
246
100
AcDbEntity
  8
1
 62
7
100
AcDbMText
 10
180.87499999999994
 20
262.75
 30
0.0
 40
4.0
 71
5
  1
154
  7
VF003
  0
POINT
  5
251
330
246
100
AcDbEntity
  8
Defpoints
100
AcDbPoint
 10
161.62499999999994
 20
260.25
 30
0.0
  0
POINT
  5
252
330
246
100
AcDbEntity
  8
Defpoints
100
AcDbPoint
 10
161.62499999999994
 20
223.49999999999986
 30
0.0
  0
POINT
  5
253
330
246
100
AcDbEntity
  8
Defpoints
100
AcDbPoint
 10
200.12499999999994
 20
223.49999999999986
 30
0.0
  0
ENDBLK
  5
248
330
246
100
AcDbEntity
  8
0
100
AcDbBlockEnd
  0
BLOCK
  5
257
330
256
100
AcDbEntity
  8
0
100
AcDbBlockBegin
  2
*D7
 70
1
 10
0.0
 20
0.0
 30
0.0
  3
*D7
  1

  0
LINE
  5
259
330
256
100
AcDbEntity
  8
0
 62
3
100
AcDbLine
 10
160.49999999999994
 20
224.49999999999986
 30
0.0
 11
160.49999999999994
 21
270.25
 31
0.0
  0
LINE
  5
25A
330
256
100
AcDbEntity
  8
0
 62
3
100
AcDbLine
 10
201.24999999999994
 20
224.49999999999986
 30
0.0
 11
201.24999999999994
 21
270.25
 31
0.0
  0
INSERT
  5
25B
330
256
100
AcDbEntity
  8
1
 62
3
100
AcDbBlockReference
  2
_OPEN30
 10
160.49999999999994
 20
268.25
 30
0.0
 41
3.0
 42
3.0
 50
180.0
  0
INSERT
  5
25D
330
256
100
AcDbEntity
  8
1
 62
3
100
AcDbBlockReference
  2
_OPEN30
 10
201.24999999999994
 20
268.25
 30
0.0
 41
3.0
 42
3.0
  0
LINE
  5
25F
330
256
100
AcDbEntity
  8
0
 62
3
100
AcDbLine
 10
163.49999999999994
 20
268.25
 30
0.0
 11
198.24999999999994
 21
268.25
 31
0.0
  0
MTEXT
  5
260
330
256
100
AcDbEntity
  8
1
 62
7
100
AcDbMText
 10
180.87499999999994
 20
270.75
 30
0.0
 40
4.0
 71
5
  1
163
  7
VF003
  0
POINT
  5
261
330
256
100
AcDbEntity
  8
Defpoints
100
AcDbPoint
 10
160.49999999999994
 20
268.25
 30
0.0
  0
POINT
  5
262
330
256
100
AcDbEntity
  8
Defpoints
100
AcDbPoint
 10
160.49999999999994
 20
223.49999999999986
 30
0.0
  0
POINT
  5
263
330
256
100
AcDbEntity
  8
Defpoints
100
AcDbPoint
 10
201.24999999999994
 20
223.49999999999986
 30
0.0
  0
ENDBLK
  5
258
330
256
100
AcDbEntity
  8
0
100
AcDbBlockEnd
  0
BLOCK
  5
267
330
266
100
AcDbEntity
  8
0
100
AcDbBlockBegin
  2
*D8
 70
1
 10
0.0
 20
0.0
 30
0.0
  3
*D8
  1

  0
LINE
  5
269
330
266
100
AcDbEntity
  8
0
 62
3
100
AcDbLine
 10
158.24999999999994
 20
93.74999999999986
 30
0.0
 11
141.24999999999315
 21
93.74999999999986
 31
0.0
  0
LINE
  5
26A
330
266
100
AcDbEntity
  8
0
 62
3
100
AcDbLine
 10
161.99999999999994
 20
97.49999999999986
 30
0.0
 11
141.24999999999315
 21
97.49999999999986
 31
0.0
  0
INSERT
  5
26B
330
266
100
AcDbEntity
  8
1
 62
3
100
AcDbBlockReference
  2
_OPEN30
 10
143.24999999999315
 20
93.74999999999986
 30
0.0
 41
3.0
 42
3.0
 50
90.0
  0
INSERT
  5
26D
330
266
100
AcDbEntity
  8
1
 62
3
100
AcDbBlockReference
  2
_OPEN30
 10
143.24999999999315
 20
97.49999999999986
 30
0.0
 41
3.0
 42
3.0
 50
270.0
  0
LINE
  5
26F
330
266
100
AcDbEntity
  8
0
 62
3
100
AcDbLine
 10
143.24999999999315
 20
93.74999999999986
 30
0.0
 11
143.24999999999315
 21
97.49999999999986
 31
0.0
  0
MTEXT
  5
270
330
266
100
AcDbEntity
  8
1
 62
7
100
AcDbMText
 10
138.74999999999315
 20
95.62499999999986
 30
0.0
 40
4.0
 71
5
  1
15
  7
VF003
 50
90.0
  0
POINT
  5
271
330
266
100
AcDbEntity
  8
Defpoints
100
AcDbPoint
 10
143.24999999999315
 20
93.74999999999986
 30
0.0
  0
POINT
  5
272
330
266
100
AcDbEntity
  8
Defpoints
100
AcDbPoint
 10
159.24999999999994
 20
93.74999999999986
 30
0.0
  0
POINT
  5
273
330
266
100
AcDbEntity
  8
Defpoints
100
AcDbPoint
 10
162.99999999999994
 20
97.49999999999986
 30
0.0
  0
ENDBLK
  5
268
330
266
100
AcDbEntity
  8
0
100
AcDbBlockEnd
  0
BLOCK
  5
277
330
276
100
AcDbEntity
  8
0
100
AcDbBlockBegin
  2
*D9
 70
1
 10
0.0
 20
0.0
 30
0.0
  3
*D9
  1

  0
LINE
  5
279
330
276
100
AcDbEntity
  8
0
 62
3
100
AcDbLine
 10
161.99999999999994
 20
97.49999999999986
 30
0.0
 11
141.24999999999315
 21
97.49999999999986
 31
0.0
  0
LINE
  5
27A
330
276
100
AcDbEntity
  8
0
 62
3
100
AcDbLine
 10
170.74999999999994
 20
106.24999999999986
 30
0.0
 11
141.24999999999315
 21
106.24999999999986
 31
0.0
  0
INSERT
  5
27B
330
276
100
AcDbEntity
  8
1
 62
3
100
AcDbBlockReference
  2
_OPEN30
 10
143.24999999999315
 20
97.49999999999986
 30
0.0
 41
3.0
 42
3.0
 50
270.0
  0
INSERT
  5
27D
330
276
100
AcDbEntity
  8
1
 62
3
100
AcDbBlockReference
  2
_OPEN30
 10
143.24999999999315
 20
106.24999999999986
 30
0.0
 41
3.0
 42
3.0
 50
90.0
  0
LINE
  5
27F
330
276
100
AcDbEntity
  8
0
 62
3
100
AcDbLine
 10
143.24999999999315
 20
100.49999999999986
 30
0.0
 11
143.24999999999315
 21
103.24999999999986
 31
0.0
  0
MTEXT
  5
280
330
276
100
AcDbEntity
  8
1
 62
7
100
AcDbMText
 10
140.74999999999315
 20
101.87499999999986
 30
0.0
 40
4.0
 71
5
  1
35
  7
VF003
 50
90.0
  0
POINT
  5
281
330
276
100
AcDbEntity
  8
Defpoints
100
AcDbPoint
 10
143.24999999999315
 20
97.49999999999986
 30
0.0
  0
POINT
  5
282
330
276
100
AcDbEntity
  8
Defpoints
100
AcDbPoint
 10
162.99999999999994
 20
97.49999999999986
 30
0.0
  0
POINT
  5
283
330
276
100
AcDbEntity
  8
Defpoints
100
AcDbPoint
 10
171.74999999999994
 20
106.24999999999986
 30
0.0
  0
ENDBLK
  5
278
330
276
100
AcDbEntity
  8
0
100
AcDbBlockEnd
  0
BLOCK
  5
287
330
286
100
AcDbEntity
  8
0
100
AcDbBlockBegin
  2
*D10
 70
1
 10
0.0
 20
0.0
 30
0.0
  3
*D10
  1

  0
LINE
  5
289
330
286
100
AcDbEntity
  8
0
 62
3
100
AcDbLine
 10
170.74999999999994
 20
106.24999999999986
 30
0.0
 11
141.24999999999315
 21
106.24999999999986
 31
0.0
  0
LINE
  5
28A
330
286
100
AcDbEntity
  8
0
 62
3
100
AcDbLine
 10
161.99999999999994
 20
117.49999999999986
 30
0.0
 11
141.24999999999315
 21
117.49999999999986
 31
0.0
  0
INSERT
  5
28B
330
286
100
AcDbEntity
  8
1
 62
3
100
AcDbBlockReference
  2
_OPEN30
 10
143.24999999999315
 20
106.24999999999986
 30
0.0
 41
3.0
 42
3.0
 50
270.0
  0
INSERT
  5
28D
330
286
100
AcDbEntity
  8
1
 62
3
100
AcDbBlockReference
  2
_OPEN30
 10
143.24999999999315
 20
117.49999999999986
 30
0.0
 41
3.0
 42
3.0
 50
90.0
  0
LINE
  5
28F
330
286
100
AcDbEntity
  8
0
 62
3
100
AcDbLine
 10
143.24999999999315
 20
109.24999999999986
 30
0.0
 11
143.24999999999315
 21
114.49999999999986
 31
0.0
  0
MTEXT
  5
290
330
286
100
AcDbEntity
  8
1
 62
7
100
AcDbMText
 10
140.74999999999315
 20
111.87499999999986
 30
0.0
 40
4.0
 71
5
  1
45
  7
VF003
 50
90.0
  0
POINT
  5
291
330
286
100
AcDbEntity
  8
Defpoints
100
AcDbPoint
 10
143.24999999999315
 20
106.24999999999986
 30
0.0
  0
POINT
  5
292
330
286
100
AcDbEntity
  8
Defpoints
100
AcDbPoint
 10
171.74999999999994
 20
106.24999999999986
 30
0.0
  0
POINT
  5
293
330
286
100
AcDbEntity
  8
Defpoints
100
AcDbPoint
 10
162.99999999999994
 20
117.49999999999986
 30
0.0
  0
ENDBLK
  5
288
330
286
100
AcDbEntity
  8
0
100
AcDbBlockEnd
  0
BLOCK
  5
297
330
296
100
AcDbEntity
  8
0
100
AcDbBlockBegin
  2
*D11
 70
1
 10
0.0
 20
0.0
 30
0.0
  3
*D11
  1

  0
LINE
  5
299
330
296
100
AcDbEntity
  8
0
 62
3
100
AcDbLine
 10
161.99999999999994
 20
117.49999999999986
 30
0.0
 11
141.24999999999315
 21
117.49999999999986
 31
0.0
  0
LINE
  5
29A
330
296
100
AcDbEntity
  8
0
 62
3
100
AcDbLine
 10
161.99999999999994
 20
137.49999999999986
 30
0.0
 11
141.24999999999315
 21
137.49999999999986
 31
0.0
  0
INSERT
  5
29B
330
296
100
AcDbEntity
  8
1
 62
3
100
AcDbBlockReference
  2
_OPEN30
 10
143.24999999999315
 20
117.49999999999986
 30
0.0
 41
3.0
 42
3.0
 50
270.0
  0
INSERT
  5
29D
330
296
100
AcDbEntity
  8
1
 62
3
100
AcDbBlockReference
  2
_OPEN30
 10
143.24999999999315
 20
137.49999999999986
 30
0.0
 41
3.0
 42
3.0
 50
90.0
  0
LINE
  5
29F
330
296
100
AcDbEntity
  8
0
 62
3
100
AcDbLine
 10
143.24999999999315
 20
120.49999999999986
 30
0.0
 11
143.24999999999315
 21
134.49999999999986
 31
0.0
  0
MTEXT
  5
2A0
330
296
100
AcDbEntity
  8
1
 62
7
100
AcDbMText
 10
140.74999999999315
 20
127.49999999999986
 30
0.0
 40
4.0
 71
5
  1
80
  7
VF003
 50
90.0
  0
POINT
  5
2A1
330
296
100
AcDbEntity
  8
Defpoints
100
AcDbPoint
 10
143.24999999999315
 20
117.49999999999986
 30
0.0
  0
POINT
  5
2A2
330
296
100
AcDbEntity
  8
Defpoints
100
AcDbPoint
 10
162.99999999999994
 20
117.49999999999986
 30
0.0
  0
POINT
  5
2A3
330
296
100
AcDbEntity
  8
Defpoints
100
AcDbPoint
 10
162.99999999999994
 20
137.49999999999986
 30
0.0
  0
ENDBLK
  5
298
330
296
100
AcDbEntity
  8
0
100
AcDbBlockEnd
  0
BLOCK
  5
2A7
330
2A6
100
AcDbEntity
  8
0
100
AcDbBlockBegin
  2
*D12
 70
1
 10
0.0
 20
0.0
 30
0.0
  3
*D12
  1

  0
LINE
  5
2A9
330
2A6
100
AcDbEntity
  8
0
 62
3
100
AcDbLine
 10
161.99999999999994
 20
137.49999999999986
 30
0.0
 11
141.24999999999315
 21
137.49999999999986
 31
0.0
  0
LINE
  5
2AA
330
2A6
100
AcDbEntity
  8
0
 62
3
100
AcDbLine
 10
170.74999999999994
 20
148.74999999999986
 30
0.0
 11
141.24999999999315
 21
148.74999999999986
 31
0.0
  0
INSERT
  5
2AB
330
2A6
100
AcDbEntity
  8
1
 62
3
100
AcDbBlockReference
  2
_OPEN30
 10
143.24999999999315
 20
137.49999999999986
 30
0.0
 41
3.0
 42
3.0
 50
270.0
  0
INSERT
  5
2AD
330
2A6
100
AcDbEntity
  8
1
 62
3
100
AcDbBlockReference
  2
_OPEN30
 10
143.24999999999315
 20
148.74999999999986
 30
0.0
 41
3.0
 42
3.0
 50
90.0
  0
LINE
  5
2AF
330
2A6
100
AcDbEntity
  8
0
 62
3
100
AcDbLine
 10
143.24999999999315
 20
140.49999999999986
 30
0.0
 11
143.24999999999315
 21
145.74999999999986
 31
0.0
  0
MTEXT
  5
2B0
330
2A6
100
AcDbEntity
  8
1
 62
7
100
AcDbMText
 10
140.74999999999315
 20
143.12499999999986
 30
0.0
 40
4.0
 71
5
  1
45
  7
VF003
 50
90.0
  0
POINT
  5
2B1
330
2A6
100
AcDbEntity
  8
Defpoints
100
AcDbPoint
 10
143.24999999999315
 20
137.49999999999986
 30
0.0
  0
POINT
  5
2B2
330
2A6
100
AcDbEntity
  8
Defpoints
100
AcDbPoint
 10
162.99999999999994
 20
137.49999999999986
 30
0.0
  0
POINT
  5
2B3
330
2A6
100
AcDbEntity
  8
Defpoints
100
AcDbPoint
 10
171.74999999999994
 20
148.74999999999986
 30
0.0
  0
ENDBLK
  5
2A8
330
2A6
100
AcDbEntity
  8
0
100
AcDbBlockEnd
  0
BLOCK
  5
2B7
330
2B6
100
AcDbEntity
  8
0
100
AcDbBlockBegin
  2
*D13
 70
1
 10
0.0
 20
0.0
 30
0.0
  3
*D13
  1

  0
LINE
  5
2B9
330
2B6
100
AcDbEntity
  8
0
 62
3
100
AcDbLine
 10
261.75
 20
93.74999999999986
 30
0.0
 11
278.75
 21
93.74999999999986
 31
0.0
  0
LINE
  5
2BA
330
2B6
100
AcDbEntity
  8
0
 62
3
100
AcDbLine
 10
229.25
 20
155.99999999999986
 30
0.0
 11
278.75
 21
155.99999999999986
 31
0.0
  0
INSERT
  5
2BB
330
2B6
100
AcDbEntity
  8
1
 62
3
100
AcDbBlockReference
  2
_OPEN30
 10
276.75
 20
93.74999999999986
 30
0.0
 41
3.0
 42
3.0
 50
270.0
  0
INSERT
  5
2BD
330
2B6
100
AcDbEntity
  8
1
 62
3
100
AcDbBlockReference
  2
_OPEN30
 10
276.75
 20
155.99999999999986
 30
0.0
 41
3.0
 42
3.0
 50
90.0
  0
LINE
  5
2BF
330
2B6
100
AcDbEntity
  8
0
 62
3
100
AcDbLine
 10
276.75
 20
96.74999999999986
 30
0.0
 11
276.75
 21
152.99999999999986
 31
0.0
  0
MTEXT
  5
2C0
330
2B6
100
AcDbEntity
  8
1
 62
7
100
AcDbMText
 10
274.25
 20
124.87499999999986
 30
0.0
 40
4.0
 71
5
  1
249
  7
VF003
 50
90.0
  0
POINT
  5
2C1
330
2B6
100
AcDbEntity
  8
Defpoints
100
AcDbPoint
 10
276.75
 20
93.74999999999986
 30
0.0
  0
POINT
  5
2C2
330
2B6
100
AcDbEntity
  8
Defpoints
100
AcDbPoint
 10
260.75
 20
93.74999999999986
 30
0.0
  0
POINT
  5
2C3
330
2B6
100
AcDbEntity
  8
Defpoints
100
AcDbPoint
 10
228.25
 20
155.99999999999986
 30
0.0
  0
ENDBLK
  5
2B8
330
2B6
100
AcDbEntity
  8
0
100
AcDbBlockEnd
  0
BLOCK
  5
2C7
330
2C6
100
AcDbEntity
  8
0
100
AcDbBlockBegin
  2
*D14
 70
1
 10
0.0
 20
0.0
 30
0.0
  3
*D14
  1

  0
LINE
  5
2C9
330
2C6
100
AcDbEntity
  8
0
 62
3
100
AcDbLine
 10
218.5
 20
166.74999999999986
 30
0.0
 11
286.75
 21
166.74999999999986
 31
0.0
  0
LINE
  5
2CA
330
2C6
100
AcDbEntity
  8
0
 62
3
100
AcDbLine
 10
218.5
 20
169.99999999999986
 30
0.0
 11
286.75
 21
169.99999999999986
 31
0.0
  0
INSERT
  5
2CB
330
2C6
100
AcDbEntity
  8
1
 62
3
100
AcDbBlockReference
  2
_OPEN30
 10
284.75
 20
166.74999999999986
 30
0.0
 41
3.0
 42
3.0
 50
90.0
  0
INSERT
  5
2CD
330
2C6
100
AcDbEntity
  8
1
 62
3
100
AcDbBlockReference
  2
_OPEN30
 10
284.75
 20
169.99999999999986
 30
0.0
 41
3.0
 42
3.0
 50
270.0
  0
LINE
  5
2CF
330
2C6
100
AcDbEntity
  8
0
 62
3
100
AcDbLine
 10
284.75
 20
166.74999999999986
 30
0.0
 11
284.75
 21
169.99999999999986
 31
0.0
  0
MTEXT
  5
2D0
330
2C6
100
AcDbEntity
  8
1
 62
7
100
AcDbMText
 10
280.25
 20
168.37499999999986
 30
0.0
 40
4.0
 71
5
  1
13
  7
VF003
 50
90.0
  0
POINT
  5
2D1
330
2C6
100
AcDbEntity
  8
Defpoints
100
AcDbPoint
 10
284.75
 20
166.74999999999986
 30
0.0
  0
POINT
  5
2D2
330
2C6
100
AcDbEntity
  8
Defpoints
100
AcDbPoint
 10
217.5
 20
166.74999999999986
 30
0.0
  0
POINT
  5
2D3
330
2C6
100
AcDbEntity
  8
Defpoints
100
AcDbPoint
 10
217.5
 20
169.99999999999986
 30
0.0
  0
ENDBLK
  5
2C8
330
2C6
100
AcDbEntity
  8
0
100
AcDbBlockEnd
  0
BLOCK
  5
2D7
330
2D6
100
AcDbEntity
  8
0
100
AcDbBlockBegin
  2
*D15
 70
1
 10
0.0
 20
0.0
 30
0.0
  3
*D15
  1

  0
LINE
  5
2D9
330
2D6
100
AcDbEntity
  8
0
 62
3
100
AcDbLine
 10
261.75
 20
93.74999999999986
 30
0.0
 11
294.75
 21
93.74999999999986
 31
0.0
  0
LINE
  5
2DA
330
2D6
100
AcDbEntity
  8
0
 62
3
100
AcDbLine
 10
261.75
 20
169.99999999999986
 30
0.0
 11
294.75
 21
169.99999999999986
 31
0.0
  0
INSERT
  5
2DB
330
2D6
100
AcDbEntity
  8
1
 62
3
100
AcDbBlockReference
  2
_OPEN30
 10
292.75
 20
93.74999999999986
 30
0.0
 41
3.0
 42
3.0
 50
270.0
  0
INSERT
  5
2DD
330
2D6
100
AcDbEntity
  8
1
 62
3
100
AcDbBlockReference
  2
_OPEN30
 10
292.75
 20
169.99999999999986
 30
0.0
 41
3.0
 42
3.0
 50
90.0
  0
LINE
  5
2DF
330
2D6
100
AcDbEntity
  8
0
 62
3
100
AcDbLine
 10
292.75
 20
96.74999999999986
 30
0.0
 11
292.75
 21
166.99999999999986
 31
0.0
  0
MTEXT
  5
2E0
330
2D6
100
AcDbEntity
  8
1
 62
7
100
AcDbMText
 10
290.25
 20
131.87499999999986
 30
0.0
 40
4.0
 71
5
  1
305
  7
VF003
 50
90.0
  0
POINT
  5
2E1
330
2D6
100
AcDbEntity
  8
Defpoints
100
AcDbPoint
 10
292.75
 20
93.74999999999986
 30
0.0
  0
POINT
  5
2E2
330
2D6
100
AcDbEntity
  8
Defpoints
100
AcDbPoint
 10
260.75
 20
93.74999999999986
 30
0.0
  0
POINT
  5
2E3
330
2D6
100
AcDbEntity
  8
Defpoints
100
AcDbPoint
 10
260.75
 20
169.99999999999986
 30
0.0
  0
ENDBLK
  5
2D8
330
2D6
100
AcDbEntity
  8
0
100
AcDbBlockEnd
  0
BLOCK
  5
2E7
330
2E6
100
AcDbEntity
  8
0
100
AcDbBlockBegin
  2
*D16
 70
1
 10
0.0
 20
0.0
 30
0.0
  3
*D16
  1

  0
LINE
  5
2E9
330
2E6
100
AcDbEntity
  8
0
 62
3
100
AcDbLine
 10
260.75
 20
92.74999999999986
 30
0.0
 11
260.75
 21
75.75000000001015
 31
0.0
  0
LINE
  5
2EA
330
2E6
100
AcDbEntity
  8
0
 62
3
100
AcDbLine
 10
256.75
 20
92.74999999999986
 30
0.0
 11
256.75
 21
75.75000000001015
 31
0.0
  0
INSERT
  5
2EB
330
2E6
100
AcDbEntity
  8
1
 62
3
100
AcDbBlockReference
  2
_OPEN30
 10
260.75
 20
77.75000000001015
 30
0.0
 41
3.0
 42
3.0
  0
INSERT
  5
2ED
330
2E6
100
AcDbEntity
  8
1
 62
3
100
AcDbBlockReference
  2
_OPEN30
 10
256.75
 20
77.75000000001015
 30
0.0
 41
3.0
 42
3.0
 50
180.0
  0
LINE
  5
2EF
330
2E6
100
AcDbEntity
  8
0
 62
3
100
AcDbLine
 10
260.75
 20
77.75000000001015
 30
0.0
 11
256.75
 21
77.75000000001015
 31
0.0
  0
MTEXT
  5
2F0
330
2E6
100
AcDbEntity
  8
1
 62
7
100
AcDbMText
 10
258.75
 20
73.25000000001015
 30
0.0
 40
4.0
 71
5
  1
16
  7
VF003
  0
POINT
  5
2F1
330
2E6
100
AcDbEntity
  8
Defpoints
100
AcDbPoint
 10
260.75
 20
77.75000000001015
 30
0.0
  0
POINT
  5
2F2
330
2E6
100
AcDbEntity
  8
Defpoints
100
AcDbPoint
 10
260.75
 20
93.74999999999986
 30
0.0
  0
POINT
  5
2F3
330
2E6
100
AcDbEntity
  8
Defpoints
100
AcDbPoint
 10
256.75
 20
93.74999999999986
 30
0.0
  0
ENDBLK
  5
2E8
330
2E6
100
AcDbEntity
  8
0
100
AcDbBlockEnd
  0
BLOCK
  5
2F7
330
2F6
100
AcDbEntity
  8
0
100
AcDbBlockBegin
  2
*D17
 70
1
 10
0.0
 20
0.0
 30
0.0
  3
*D17
  1

  0
LINE
  5
2F9
330
2F6
100
AcDbEntity
  8
0
 62
3
100
AcDbLine
 10
260.75
 20
168.99999999999986
 30
0.0
 11
260.75
 21
67.75000000001015
 31
0.0
  0
LINE
  5
2FA
330
2F6
100
AcDbEntity
  8
0
 62
3
100
AcDbLine
 10
217.5
 20
168.99999999999986
 30
0.0
 11
217.5
 21
67.75000000001015
 31
0.0
  0
INSERT
  5
2FB
330
2F6
100
AcDbEntity
  8
1
 62
3
100
AcDbBlockReference
  2
_OPEN30
 10
260.75
 20
69.75000000001015
 30
0.0
 41
3.0
 42
3.0
 50
180.0
  0
INSERT
  5
2FD
330
2F6
100
AcDbEntity
  8
1
 62
3
100
AcDbBlockReference
  2
_OPEN30
 10
217.5
 20
69.75000000001015
 30
0.0
 41
3.0
 42
3.0
  0
LINE
  5
2FF
330
2F6
100
AcDbEntity
  8
0
 62
3
100
AcDbLine
 10
263.75
 20
69.75000000001015
 30
0.0
 11
214.5
 21
69.75000000001015
 31
0.0
  0
MTEXT
  5
300
330
2F6
100
AcDbEntity
  8
1
 62
7
100
AcDbMText
 10
239.125
 20
67.25000000001015
 30
0.0
 40
4.0
 71
5
  1
173
  7
VF003
  0
POINT
  5
301
330
2F6
100
AcDbEntity
  8
Defpoints
100
AcDbPoint
 10
260.75
 20
69.75000000001015
 30
0.0
  0
POINT
  5
302
330
2F6
100
AcDbEntity
  8
Defpoints
100
AcDbPoint
 10
260.75
 20
169.99999999999986
 30
0.0
  0
POINT
  5
303
330
2F6
100
AcDbEntity
  8
Defpoints
100
AcDbPoint
 10
217.5
 20
169.99999999999986
 30
0.0
  0
ENDBLK
  5
2F8
330
2F6
100
AcDbEntity
  8
0
100
AcDbBlockEnd
  0
BLOCK
  5
307
330
306
100
AcDbEntity
  8
0
100
AcDbBlockBegin
  2
*D18
 70
1
 10
0.0
 20
0.0
 30
0.0
  3
*D18
  1

  0
LINE
  5
309
330
306
100
AcDbEntity
  8
0
 62
3
100
AcDbLine
 10
256.75
 20
143.99999999999986
 30
0.0
 11
256.75
 21
75.75000000001015
 31
0.0
  0
LINE
  5
30A
330
306
100
AcDbEntity
  8
0
 62
3
100
AcDbLine
 10
228.25
 20
143.99999999999986
 30
0.0
 11
228.25
 21
75.75000000001015
 31
0.0
  0
INSERT
  5
30B
330
306
100
AcDbEntity
  8
1
 62
3
100
AcDbBlockReference
  2
_OPEN30
 10
256.75
 20
77.75000000001015
 30
0.0
 41
3.0
 42
3.0
 50
180.0
  0
INSERT
  5
30D
330
306
100
AcDbEntity
  8
1
 62
3
100
AcDbBlockReference
  2
_OPEN30
 10
228.25
 20
77.75000000001015
 30
0.0
 41
3.0
 42
3.0
  0
LINE
  5
30F
330
306
100
AcDbEntity
  8
0
 62
3
100
AcDbLine
 10
259.75
 20
77.75000000001015
 30
0.0
 11
225.25
 21
77.75000000001015
 31
0.0
  0
MTEXT
  5
310
330
306
100
AcDbEntity
  8
1
 62
7
100
AcDbMText
 10
242.5
 20
75.25000000001015
 30
0.0
 40
4.0
 71
5
  1
114
  7
VF003
  0
POINT
  5
311
330
306
100
AcDbEntity
  8
Defpoints
100
AcDbPoint
 10
256.75
 20
77.75000000001015
 30
0.0
  0
POINT
  5
312
330
306
100
AcDbEntity
  8
Defpoints
100
AcDbPoint
 10
256.75
 20
144.99999999999986
 30
0.0
  0
POINT
  5
313
330
306
100
AcDbEntity
  8
Defpoints
100
AcDbPoint
 10
228.25
 20
144.99999999999986
 30
0.0
  0
ENDBLK
  5
308
330
306
100
AcDbEntity
  8
0
100
AcDbBlockEnd
  0
BLOCK
  5
317
330
316
100
AcDbEntity
  8
0
100
AcDbBlockBegin
  2
*D19
 70
1
 10
0.0
 20
0.0
 30
0.0
  3
*D19
  1

  0
LINE
  5
319
330
316
100
AcDbEntity
  8
0
 62
3
100
AcDbLine
 10
256.75
 20
145.99999999999986
 30
0.0
 11
256.75
 21
188.00000000001015
 31
0.0
  0
LINE
  5
31A
330
316
100
AcDbEntity
  8
0
 62
3
100
AcDbLine
 10
256.0
 20
145.99999999999986
 30
0.0
 11
256.0
 21
188.00000000001015
 31
0.0
  0
INSERT
  5
31B
330
316
100
AcDbEntity
  8
1
 62
3
100
AcDbBlockReference
  2
_OPEN30
 10
256.75
 20
186.00000000001015
 30
0.0
 41
3.0
 42
3.0
  0
INSERT
  5
31D
330
316
100
AcDbEntity
  8
1
 62
3
100
AcDbBlockReference
  2
_OPEN30
 10
256.0
 20
186.00000000001015
 30
0.0
 41
3.0
 42
3.0
 50
180.0
  0
LINE
  5
31F
330
316
100
AcDbEntity
  8
0
 62
3
100
AcDbLine
 10
256.75
 20
186.00000000001015
 30
0.0
 11
256.0
 21
186.00000000001015
 31
0.0
  0
MTEXT
  5
320
330
316
100
AcDbEntity
  8
1
 62
7
100
AcDbMText
 10
256.375
 20
181.50000000001015
 30
0.0
 40
4.0
 71
5
  1
3
  7
VF003
  0
POINT
  5
321
330
316
100
AcDbEntity
  8
Defpoints
100
AcDbPoint
 10
256.75
 20
186.00000000001015
 30
0.0
  0
POINT
  5
322
330
316
100
AcDbEntity
  8
Defpoints
100
AcDbPoint
 10
256.75
 20
144.99999999999986
 30
0.0
  0
POINT
  5
323
330
316
100
AcDbEntity
  8
Defpoints
100
AcDbPoint
 10
256.0
 20
144.99999999999986
 30
0.0
  0
ENDBLK
  5
318
330
316
100
AcDbEntity
  8
0
100
AcDbBlockEnd
  0
BLOCK
  5
327
330
326
100
AcDbEntity
  8
0
100
AcDbBlockBegin
  2
*D20
 70
1
 10
0.0
 20
0.0
 30
0.0
  3
*D20
  1

  0
LINE
  5
329
330
326
100
AcDbEntity
  8
0
 62
3
100
AcDbLine
 10
177.37499999999994
 20
225.49999999999986
 30
0.0
 11
141.24999999999315
 21
225.49999999999986
 31
0.0
  0
LINE
  5
32A
330
326
100
AcDbEntity
  8
0
 62
3
100
AcDbLine
 10
158.24999999999994
 20
224.24999999999986
 30
0.0
 11
141.24999999999315
 21
224.24999999999986
 31
0.0
  0
INSERT
  5
32B
330
326
100
AcDbEntity
  8
1
 62
3
100
AcDbBlockReference
  2
_OPEN30
 10
143.24999999999315
 20
225.49999999999986
 30
0.0
 41
3.0
 42
3.0
 50
90.0
  0
INSERT
  5
32D
330
326
100
AcDbEntity
  8
1
 62
3
100
AcDbBlockReference
  2
_OPEN30
 10
143.24999999999315
 20
224.24999999999986
 30
0.0
 41
3.0
 42
3.0
 50
270.0
  0
LINE
  5
32F
330
326
100
AcDbEntity
  8
0
 62
3
100
AcDbLine
 10
143.24999999999315
 20
225.49999999999986
 30
0.0
 11
143.24999999999315
 21
224.24999999999986
 31
0.0
  0
MTEXT
  5
330
330
326
100
AcDbEntity
  8
1
 62
7
100
AcDbMText
 10
147.74999999999315
 20
224.87499999999986
 30
0.0
 40
4.0
 71
5
  1
5
  7
VF003
 50
90.0
  0
POINT
  5
331
330
326
100
AcDbEntity
  8
Defpoints
100
AcDbPoint
 10
143.24999999999315
 20
225.49999999999986
 30
0.0
  0
POINT
  5
332
330
326
100
AcDbEntity
  8
Defpoints
100
AcDbPoint
 10
178.37499999999994
 20
225.49999999999986
 30
0.0
  0
POINT
  5
333
330
326
100
AcDbEntity
  8
Defpoints
100
AcDbPoint
 10
159.24999999999994
 20
224.24999999999986
 30
0.0
  0
ENDBLK
  5
328
330
326
100
AcDbEntity
  8
0
100
AcDbBlockEnd
  0
BLOCK
  5
337
330
336
100
AcDbEntity
  8
0
100
AcDbBlockBegin
  2
*D21
 70
1
 10
0.0
 20
0.0
 30
0.0
  3
*D21
  1

  0
LINE
  5
339
330
336
100
AcDbEntity
  8
0
 62
3
100
AcDbLine
 10
161.24999999999994
 20
218.62499999999986
 30
0.0
 11
141.24999999999315
 21
218.62499999999986
 31
0.0
  0
LINE
  5
33A
330
336
100
AcDbEntity
  8
0
 62
3
100
AcDbLine
 10
158.24999999999994
 20
224.24999999999986
 30
0.0
 11
141.24999999999315
 21
224.24999999999986
 31
0.0
  0
INSERT
  5
33B
330
336
100
AcDbEntity
  8
1
 62
3
100
AcDbBlockReference
  2
_OPEN30
 10
143.24999999999315
 20
218.62499999999986
 30
0.0
 41
3.0
 42
3.0
 50
90.0
  0
INSERT
  5
33D
330
336
100
AcDbEntity
  8
1
 62
3
100
AcDbBlockReference
  2
_OPEN30
 10
143.24999999999315
 20
224.24999999999986
 30
0.0
 41
3.0
 42
3.0
 50
270.0
  0
LINE
  5
33F
330
336
100
AcDbEntity
  8
0
 62
3
100
AcDbLine
 10
143.24999999999315
 20
218.62499999999986
 30
0.0
 11
143.24999999999315
 21
224.24999999999986
 31
0.0
  0
MTEXT
  5
340
330
336
100
AcDbEntity
  8
1
 62
7
100
AcDbMText
 10
138.74999999999315
 20
221.43749999999986
 30
0.0
 40
4.0
 71
5
  1
22.5
  7
VF003
 50
90.0
  0
POINT
  5
341
330
336
100
AcDbEntity
  8
Defpoints
100
AcDbPoint
 10
143.24999999999315
 20
218.62499999999986
 30
0.0
  0
POINT
  5
342
330
336
100
AcDbEntity
  8
Defpoints
100
AcDbPoint
 10
162.24999999999994
 20
218.62499999999986
 30
0.0
  0
POINT
  5
343
330
336
100
AcDbEntity
  8
Defpoints
100
AcDbPoint
 10
159.24999999999994
 20
224.24999999999986
 30
0.0
  0
ENDBLK
  5
338
330
336
100
AcDbEntity
  8
0
100
AcDbBlockEnd
  0
BLOCK
  5
347
330
346
100
AcDbEntity
  8
0
100
AcDbBlockBegin
  2
*D22
 70
1
 10
0.0
 20
0.0
 30
0.0
  3
*D22
  1

  0
LINE
  5
349
330
346
100
AcDbEntity
  8
0
 62
3
100
AcDbLine
 10
179.87499999999994
 20
204.2499999999999
 30
0.0
 11
133.24999999999315
 21
204.2499999999999
 31
0.0
  0
LINE
  5
34A
330
346
100
AcDbEntity
  8
0
 62
3
100
AcDbLine
 10
158.24999999999994
 20
224.24999999999986
 30
0.0
 11
133.24999999999315
 21
224.24999999999986
 31
0.0
  0
INSERT
  5
34B
330
346
100
AcDbEntity
  8
1
 62
3
100
AcDbBlockReference
  2
_OPEN30
 10
135.24999999999315
 20
204.2499999999999
 30
0.0
 41
3.0
 42
3.0
 50
270.0
  0
INSERT
  5
34D
330
346
100
AcDbEntity
  8
1
 62
3
100
AcDbBlockReference
  2
_OPEN30
 10
135.24999999999315
 20
224.24999999999986
 30
0.0
 41
3.0
 42
3.0
 50
90.0
  0
LINE
  5
34F
330
346
100
AcDbEntity
  8
0
 62
3
100
AcDbLine
 10
135.24999999999315
 20
207.2499999999999
 30
0.0
 11
135.24999999999315
 21
221.24999999999986
 31
0.0
  0
MTEXT
  5
350
330
346
100
AcDbEntity
  8
1
 62
7
100
AcDbMText
 10
132.74999999999315
 20
214.2499999999999
 30
0.0
 40
4.0
 71
5
  1
80
  7
VF003
 50
90.0
  0
POINT
  5
351
330
346
100
AcDbEntity
  8
Defpoints
100
AcDbPoint
 10
135.24999999999315
 20
204.2499999999999
 30
0.0
  0
POINT
  5
352
330
346
100
AcDbEntity
  8
Defpoints
100
AcDbPoint
 10
180.87499999999994
 20
204.2499999999999
 30
0.0
  0
POINT
  5
353
330
346
100
AcDbEntity
  8
Defpoints
100
AcDbPoint
 10
159.24999999999994
 20
224.24999999999986
 30
0.0
  0
ENDBLK
  5
348
330
346
100
AcDbEntity
  8
0
100
AcDbBlockEnd
  0
BLOCK
  5
357
330
356
100
AcDbEntity
  8
0
100
AcDbBlockBegin
  2
*D23
 70
1
 10
0.0
 20
0.0
 30
0.0
  3
*D23
  1

  0
LINE
  5
359
330
356
100
AcDbEntity
  8
0
 62
3
100
AcDbLine
 10
161.24999999999994
 20
218.62499999999986
 30
0.0
 11
141.24999999999315
 21
218.62499999999986
 31
0.0
  0
LINE
  5
35A
330
356
100
AcDbEntity
  8
0
 62
3
100
AcDbLine
 10
161.24999999999994
 20
189.8749999999999
 30
0.0
 11
141.24999999999315
 21
189.8749999999999
 31
0.0
  0
INSERT
  5
35B
330
356
100
AcDbEntity
  8
1
 62
3
100
AcDbBlockReference
  2
_OPEN30
 10
143.24999999999315
 20
218.62499999999986
 30
0.0
 41
3.0
 42
3.0
 50
270.0
  0
INSERT
  5
35D
330
356
100
AcDbEntity
  8
1
 62
3
100
AcDbBlockReference
  2
_OPEN30
 10
143.24999999999315
 20
189.8749999999999
 30
0.0
 41
3.0
 42
3.0
 50
90.0
  0
LINE
  5
35F
330
356
100
AcDbEntity
  8
0
 62
3
100
AcDbLine
 10
143.24999999999315
 20
221.62499999999986
 30
0.0
 11
143.24999999999315
 21
186.8749999999999
 31
0.0
  0
MTEXT
  5
360
330
356
100
AcDbEntity
  8
1
 62
7
100
AcDbMText
 10
145.74999999999315
 20
204.2499999999999
 30
0.0
 40
4.0
 71
5
  1
115
  7
VF003
 50
90.0
  0
POINT
  5
361
330
356
100
AcDbEntity
  8
Defpoints
100
AcDbPoint
 10
143.24999999999315
 20
218.62499999999986
 30
0.0
  0
POINT
  5
362
330
356
100
AcDbEntity
  8
Defpoints
100
AcDbPoint
 10
162.24999999999994
 20
218.62499999999986
 30
0.0
  0
POINT
  5
363
330
356
100
AcDbEntity
  8
Defpoints
100
AcDbPoint
 10
162.24999999999994
 20
189.8749999999999
 30
0.0
  0
ENDBLK
  5
358
330
356
100
AcDbEntity
  8
0
100
AcDbBlockEnd
  0
BLOCK
  5
367
330
366
100
AcDbEntity
  8
0
100
AcDbBlockBegin
  2
*D24
 70
1
 10
0.0
 20
0.0
 30
0.0
  3
*D24
  1

  0
INSERT
  5
369
330
366
100
AcDbEntity
  8
1
 62
3
100
AcDbBlockReference
  2
_OPEN30
 10
169.6496798486635
 20
193.02467984866345
 30
0.0
 41
3.0
 42
3.0
 50
45.0
  0
INSERT
  5
36B
330
366
100
AcDbEntity
  8
1
 62
3
100
AcDbBlockReference
  2
_OPEN30
 10
192.10032015133638
 20
215.47532015133632
 30
0.0
 41
3.0
 42
3.0
 50
45.0
  0
LINE
  5
36D
330
366
100
AcDbEntity
  8
0
 62
3
100
AcDbLine
 10
167.52835950510388
 20
190.90335950510382
 30
0.0
 11
189.97899980777675
 21
213.3539998077767
 31
0.0
  0
LINE
  5
36E
330
366
100
AcDbEntity
  8
0
 62
3
100
AcDbLine
 10
167.52835950510388
 20
190.90335950510382
 30
0.0
 11
152.3255637095931
 21
175.70056370959304
 31
0.0
  0
MTEXT
  5
36F
330
366
100
AcDbEntity
  8
1
 62
7
100
AcDbMText
 10
157.98241795908547
 20
184.89295186501818
 30
0.0
 40
4.0
 71
5
  1
%%c127
  7
VF003
 50
45.0
  0
POINT
  5
370
330
366
100
AcDbEntity
  8
Defpoints
100
AcDbPoint
 10
180.87499999999994
 20
204.2499999999999
 30
0.0
  0
POINT
  5
371
330
366
100
AcDbEntity
  8
Defpoints
100
AcDbPoint
 10
169.6496798486635
 20
193.02467984866345
 30
0.0
  0
ENDBLK
  5
368
330
366
100
AcDbEntity
  8
0
100
AcDbBlockEnd
  0
BLOCK
  5
375
330
374
100
AcDbEntity
  8
0
100
AcDbBlockBegin
  2
*D25
 70
1
 10
0.0
 20
0.0
 30
0.0
  3
*D25
  1

  0
INSERT
  5
377
330
374
100
AcDbEntity
  8
1
 62
3
100
AcDbBlockReference
  2
_OPEN30
 10
169.0983495705504
 20
103.59834957055031
 30
0.0
 41
3.0
 42
3.0
 50
45.0
  0
LINE
  5
379
330
374
100
AcDbEntity
  8
0
 62
3
100
AcDbLine
 10
171.74999999999994
 20
106.24999999999986
 30
0.0
 11
169.0983495705504
 21
103.59834957055031
 31
0.0
  0
LINE
  5
37A
330
374
100
AcDbEntity
  8
0
 62
3
100
AcDbLine
 10
166.97702922699077
 20
101.47702922699067
 30
0.0
 11
160.25951480571857
 21
94.75951480571847
 31
0.0
  0
MTEXT
  5
37B
330
374
100
AcDbEntity
  8
1
 62
7
100
AcDbMText
 10
161.67372836809164
 20
99.7092622740243
 30
0.0
 40
4.0
 71
5
  1
R15
  7
VF003
 50
45.0
  0
POINT
  5
37C
330
374
100
AcDbEntity
  8
Defpoints
100
AcDbPoint
 10
171.74999999999994
 20
106.24999999999986
 30
0.0
  0
POINT
  5
37D
330
374
100
AcDbEntity
  8
Defpoints
100
AcDbPoint
 10
169.0983495705504
 20
103.59834957055031
 30
0.0
  0
ENDBLK
  5
376
330
374
100
AcDbEntity
  8
0
100
AcDbBlockEnd
  0
ENDSEC
  0
SECTION
  2
ENTITIES
  0
LWPOLYLINE
  5
31
330
17
100
AcDbEntity
  8
1
  6
CONTINUOUS
 62
7
370
20
100
AcDbPolyline
 90
4
 70
1
 10
5.0
 20
292.0
 10
5.0
 20
5.0
 10
415.0
 20
5.0
 10
415.0
 20
292.0
  0
LINE
  5
32
330
17
100
AcDbEntity
  8
254
  6
CONTINUOUS
 62
3
370
9
100
AcDbLine
 10
325.18000713133
 20
4.9999999999998
 30
0.0
 11
325.18000713133
 21
18.122
 31
0.0
  0
LINE
  5
33
330
17
100
AcDbEntity
  8
254
  6
CONTINUOUS
 62
3
370
9
100
AcDbLine
 10
325.18000713133
 20
18.122
 30
0.0
 11
415.0
 21
18.122
 31
0.0
  0
MTEXT
  5
34
330
17
100
AcDbEntity
  8
254
 62
3
370
9
100
AcDbMText
 10
354.47071050214
 20
20.913826357749
 30
0.0
 40
2.916
 41
0.0
 71
5
  1
\T1.500000;ïîïiñºÅiå^éÆÅj
  7
GMM001
 44
0.79999984000003
  0
MTEXT
  5
35
330
17
100
AcDbEntity
  8
254
 62
3
370
9
100
AcDbMText
 10
384.36838887415
 20
20.913826357749
 30
0.0
 40
2.916
 41
0.0
 71
5
  1
\T1.000000;ÉÅÅ[ÉJÅ[
  7
GMM001
 44
0.79999984000003
  0
MTEXT
  5
36
330
17
100
AcDbEntity
  8
254
 62
3
370
9
100
AcDbMText
 10
406.97447618747
 20
20.913826357749
 30
0.0
 40
2.916
 41
0.0
 71
5
  1
\T1.000000;îıçl
  7
GMM001
 44
0.79999984000003
  0
LINE
  5
37
330
17
100
AcDbEntity
  8
254
  6
CONTINUOUS
 62
3
370
9
100
AcDbLine
 10
325.18000713133
 20
23.5895
 30
0.0
 11
415.0
 21
23.5895
 31
0.0
  0
LINE
  5
38
330
17
100
AcDbEntity
  8
254
  6
CONTINUOUS
 62
3
370
9
100
AcDbLine
 10
398.08000713133
 20
18.122
 30
0.0
 11
398.08000713133
 21
23.5895
 31
0.0
  0
LINE
  5
39
330
17
100
AcDbEntity
  8
254
  6
CONTINUOUS
 62
3
370
9
100
AcDbLine
 10
391.51900713133
 20
18.122
 30
0.0
 11
391.51900713133
 21
23.5895
 31
0.0
  0
LINE
  5
3A
330
17
100
AcDbEntity
  8
254
  6
CONTINUOUS
 62
3
370
9
100
AcDbLine
 10
376.21000713133
 20
18.122
 30
0.0
 11
376.21000713133
 21
23.5895
 31
0.0
  0
LINE
  5
3B
330
17
100
AcDbEntity
  8
254
  6
CONTINUOUS
 62
3
370
9
100
AcDbLine
 10
332.47000713133
 20
18.122
 30
0.0
 11
332.47000713133
 21
23.5895
 31
0.0
  0
LINE
  5
3C
330
17
100
AcDbEntity
  8
254
  6
CONTINUOUS
 62
3
370
9
100
AcDbLine
 10
325.18000713133
 20
18.122
 30
0.0
 11
325.18000713133
 21
23.5895
 31
0.0
  0
MTEXT
  5
3D
330
17
100
AcDbEntity
  8
254
 62
3
370
9
100
AcDbMText
 10
325.91897077517
 20
19.561222878301
 30
0.0
 40
2.916
 41
0.0
 71
7
  1
\T1.000000;ïiî‘
  7
GMM001
 44
0.79999984000003
  0
MTEXT
  5
3E
330
17
100
AcDbEntity
  8
254
 62
7
370
20
100
AcDbMText
 10
360.49798976328
 20
11.631430728461
 30
0.0
 40
5.5662694627463
 41
0.0
 71
4
  1
\T1.000000;ÉâÉCÉìÉèÅ|ÉNÉX
  7
GMM001
 44
0.79999984000003
  0
MTEXT
  5
3F
330
17
100
AcDbEntity
  8
254
 62
7
370
20
100
AcDbMText
 10
352.94784324569
 20
12.052597702861
 30
0.0
 40
3.3397616776478
 41
0.0
 71
4
  1
{\T1.000000;äîéÆ}\P{\T1.000000;âÔé–}
  7
GMM001
 44
0.79999984000003
  0
LINE
  5
40
330
17
100
AcDbEntity
  8
254
  6
CONTINUOUS
 62
3
370
9
100
AcDbLine
 10
398.08000713133
 20
23.5895
 30
0.0
 11
398.08000713133
 21
28.5895
 31
0.0
  0
LINE
  5
41
330
17
100
AcDbEntity
  8
254
  6
CONTINUOUS
 62
3
370
9
100
AcDbLine
 10
391.51900713133
 20
23.5895
 30
0.0
 11
391.51900713133
 21
28.5895
 31
0.0
  0
LINE
  5
42
330
17
100
AcDbEntity
  8
254
  6
CONTINUOUS
 62
3
370
9
100
AcDbLine
 10
376.21000713133
 20
23.5895
 30
0.0
 11
376.21000713133
 21
28.5895
 31
0.0
  0
LINE
  5
43
330
17
100
AcDbEntity
  8
254
  6
CONTINUOUS
 62
3
370
9
100
AcDbLine
 10
332.47000713133
 20
23.5895
 30
0.0
 11
332.47000713133
 21
28.5895
 31
0.0
  0
LINE
  5
44
330
17
100
AcDbEntity
  8
254
  6
CONTINUOUS
 62
3
370
9
100
AcDbLine
 10
325.18000713133
 20
23.5895
 30
0.0
 11
325.18000713133
 21
28.5895
 31
0.0
  0
MTEXT
  5
45
330
17
100
AcDbEntity
  8
254
 62
3
370
9
100
AcDbMText
 10
391.83137173292
 20
19.561222878301
 30
0.0
 40
2.916
 41
0.0
 71
7
  1
\T1.000000;å¬êî
  7
GMM001
 44
0.79999984000003
  0
LINE
  5
46
330
17
100
AcDbEntity
  8
1
  6
CONTINUOUS
 62
3
370
9
100
AcDbLine
 10
325.18000713133
 20
25.412
 30
0.0
 11
325.18000713133
 21
4.9999999999998
 31
0.0
  0
MTEXT
  5
47
330
17
100
AcDbEntity
  8
254
 62
3
370
9
100
AcDbMText
 10
319.11745461417
 20
13.591878580434
 30
0.0
 40
2.5274464285714
 41
0.0
 71
7
  1
\T1.000000;REV
  7
GMM004
 44
0.79999984000003
  0
MTEXT
  5
48
330
17
100
AcDbEntity
  8
254
 62
3
370
9
100
AcDbMText
 10
319.11745461417
 20
25.457656387089
 30
0.0
 40
2.5274464285714
 41
0.0
 71
7
  1
\T1.000000;REV
  7
GMM004
 44
0.79999984000003
  0
LINE
  5
49
330
17
100
AcDbEntity
  8
254
  6
CONTINUOUS
 62
3
370
9
100
AcDbLine
 10
317.59766784561
 20
16.794734368391
 30
0.0
 11
317.59766784561
 21
4.9999999999998
 31
0.0
  0
LINE
  5
4A
330
17
100
AcDbEntity
  8
254
  6
CONTINUOUS
 62
3
370
9
100
AcDbLine
 10
317.59766784561
 20
28.589484368391
 30
0.0
 11
317.59766784561
 21
16.79475
 31
0.0
  0
LINE
  5
4B
330
17
100
AcDbEntity
  8
254
  6
CONTINUOUS
 62
3
370
9
100
AcDbLine
 10
317.59766784561
 20
25.472316071428
 30
0.0
 11
325.18000713133
 21
25.472316071428
 31
0.0
  0
LINE
  5
4C
330
17
100
AcDbEntity
  8
254
  6
CONTINUOUS
 62
3
370
9
100
AcDbLine
 10
317.59766784561
 20
13.677566071429
 30
0.0
 11
325.18000713133
 21
13.677566071429
 31
0.0
  0
LINE
  5
4D
330
17
100
AcDbEntity
  8
254
  6
CONTINUOUS
 62
3
370
9
100
AcDbLine
 10
267.71322795736
 20
16.79475
 30
0.0
 11
325.18000713133
 21
16.79475
 31
0.0
  0
TEXT
  5
4E
330
17
100
AcDbEntity
  8
254
 62
3
370
9
100
AcDbText
 10
270.14932182782
 20
14.45637354981
 30
0.0
 40
3.3699285714286
  1
ê}î‘
  7
STANDARD1
 41
0.75
100
AcDbText
  0
LINE
  5
4F
330
17
100
AcDbEntity
  8
254
  6
CONTINUOUS
 62
3
370
9
100
AcDbLine
 10
267.71322795736
 20
4.9999999999998
 30
0.0
 11
267.71322795736
 21
28.5895
 31
0.0
  0
LINE
  5
50
330
17
100
AcDbEntity
  8
1
  6
CONTINUOUS
 62
3
370
9
100
AcDbLine
 10
267.71322795736
 20
28.5895
 30
0.0
 11
267.71322795736
 21
4.9999999999998
 31
0.0
  0
LINE
  5
51
330
17
100
AcDbEntity
  8
254
  6
CONTINUOUS
 62
3
370
9
100
AcDbLine
 10
273.18936188593
 20
4.9999999999998
 30
0.0
 11
273.18936188593
 21
16.79475
 31
0.0
  0
LINE
  5
52
330
17
100
AcDbEntity
  8
254
  6
CONTINUOUS
 62
3
370
9
100
AcDbLine
 10
273.18936188593
 20
16.79475
 30
0.0
 11
273.18936188593
 21
28.5895
 31
0.0
  0
TEXT
  5
53
330
17
100
AcDbEntity
  8
254
 62
3
370
9
100
AcDbText
 10
270.14932182782
 20
27.712778419251
 30
0.0
 40
2.5274464285714
  1
êªçÏî‘çÜ
  7
STANDARD1
100
AcDbText
  0
MTEXT
  5
54
330
17
100
AcDbEntity
  8
254
 62
7
370
20
100
AcDbMText
 10
267.09039456035
 20
6.2412531331843
 30
0.0
 40
4.6226729374878
 41
0.0
 71
9
  1
\T1.000000;ÇãÇá
  7
GMM007
 44
0.79999984000003
  0
LINE
  5
55
330
17
100
AcDbEntity
  8
254
  6
CONTINUOUS
 62
3
370
9
100
AcDbLine
 10
217.16311492467
 20
28.5895
 30
0.0
 11
325.18000713133
 21
28.5895
 31
0.0
  0
LINE
  5
56
330
17
100
AcDbEntity
  8
254
  6
CONTINUOUS
 62
3
370
9
100
AcDbLine
 10
166.43737735483
 20
4.9999999999998
 30
0.0
 11
166.43737735483
 21
12.815804374491
 31
0.0
  0
LINE
  5
57
330
17
100
AcDbEntity
  8
254
  6
CONTINUOUS
 62
3
370
9
100
AcDbLine
 10
166.43737735483
 20
12.815804374491
 30
0.0
 11
166.43737735483
 21
20.631608748982
 31
0.0
  0
LINE
  5
58
330
17
100
AcDbEntity
  8
254
  6
CONTINUOUS
 62
3
370
9
100
AcDbLine
 10
223.30492199768
 20
4.9999999999998
 30
0.0
 11
223.30492199768
 21
28.5895
 31
0.0
  0
LINE
  5
59
330
17
100
AcDbEntity
  8
254
  6
CONTINUOUS
 62
7
370
20
100
AcDbLine
 10
217.82878806911
 20
4.9999999999998
 30
0.0
 11
217.82878806911
 21
28.5895
 31
0.0
  0
LINE
  5
5A
330
17
100
AcDbEntity
  8
254
  6
CONTINUOUS
 62
3
370
9
100
AcDbLine
 10
217.82878806911
 20
4.9999999999998
 30
0.0
 11
217.82878806911
 21
28.5895
 31
0.0
  0
TEXT
  5
5B
330
17
100
AcDbEntity
  8
254
 62
3
370
9
100
AcDbText
 10
220.2355970388
 20
27.408725253101
 30
0.0
 40
2.5274464285714
  1
ïiñº
  7
STANDARD1
100
AcDbText
  0
LINE
  5
5C
330
17
100
AcDbEntity
  8
1
  6
CONTINUOUS
 62
3
370
9
100
AcDbLine
 10
217.82878806911
 20
28.5895
 30
0.0
 11
202.24286842626
 21
28.5895
 31
0.0
  0
LINE
  5
5D
330
17
100
AcDbEntity
  8
254
  6
CONTINUOUS
 62
3
370
9
100
AcDbLine
 10
166.43737735483
 20
20.631608748982
 30
0.0
 11
166.43737735483
 21
28.5895
 31
0.0
  0
LINE
  5
5E
330
17
100
AcDbEntity
  8
1
  6
CONTINUOUS
 62
3
370
9
100
AcDbLine
 10
166.43737735483
 20
28.5895
 30
0.0
 11
202.24286842626
 21
28.5895
 31
0.0
  0
LINE
  5
5F
330
17
100
AcDbEntity
  8
254
  6
CONTINUOUS
 62
3
370
9
100
AcDbLine
 10
217.82878806911
 20
12.863166666667
 30
0.0
 11
267.71322795736
 21
12.863166666667
 31
0.0
  0
LINE
  5
60
330
17
100
AcDbEntity
  8
254
  6
CONTINUOUS
 62
3
370
9
100
AcDbLine
 10
217.82878806911
 20
20.726333333333
 30
0.0
 11
267.71322795736
 21
20.726333333333
 31
0.0
  0
TEXT
  5
61
330
17
100
AcDbEntity
  8
254
 62
3
370
9
100
AcDbText
 10
220.59281442956
 20
11.80382974045
 30
0.0
 40
2.5274464285714
  1
èdó 
  7
STANDARD1
100
AcDbText
  0
TEXT
  5
62
330
17
100
AcDbEntity
  8
254
 62
3
370
9
100
AcDbText
 10
220.63752676512
 20
20.213063918481
 30
0.0
 40
2.5274464285714
  1
ëïíuñº
  7
STANDARD1
100
AcDbText
  0
LINE
  5
63
330
17
100
AcDbEntity
  8
1
  6
CONTINUOUS
 62
3
370
9
100
AcDbLine
 10
92.759851837957
 20
28.5895
 30
0.0
 11
92.759851837957
 21
4.9999999999998
 31
0.0
  0
LINE
  5
64
330
17
100
AcDbEntity
  8
2
  6
CONTINUOUS
 62
3
370
9
100
AcDbLine
 10
166.43737735483
 20
20.726333333333
 30
0.0
 11
182.02329699768
 21
20.726333333333
 31
0.0
  0
TEXT
  5
65
330
17
100
AcDbEntity
  8
254
 62
3
370
9
100
AcDbText
 10
168.38089831337
 20
27.433909723082
 30
0.0
 40
2.5274464285714
  1
é⁄ìx
  7
STANDARD1
100
AcDbText
  0
LINE
  5
66
330
17
100
AcDbEntity
  8
2
  6
CONTINUOUS
 62
3
370
9
100
AcDbLine
 10
166.43737735483
 20
12.863166666667
 30
0.0
 11
182.02329699768
 21
12.863166666667
 31
0.0
  0
MTEXT
  5
67
330
17
100
AcDbEntity
  8
254
 62
7
370
20
100
AcDbMText
 10
176.4152706333
 20
14.58269282434
 30
0.0
 40
4.2124107142857
 41
0.0
 71
8
  1
\T1.000000;Ç`ÇR
  7
GMM008
 44
0.79999984000003
  0
TEXT
  5
68
330
17
100
AcDbEntity
  8
254
 62
3
370
9
100
AcDbText
 10
168.38089831337
 20
19.757672207458
 30
0.0
 40
2.5274464285714
  1
ê}òg
  7
STANDARD1
100
AcDbText
  0
LINE
  5
69
330
17
100
AcDbEntity
  8
254
  6
CONTINUOUS
 62
3
370
9
100
AcDbLine
 10
170.64978806911
 20
28.5895
 30
0.0
 11
170.64978806911
 21
12.863166666667
 31
0.0
  0
INSERT
  5
6A
330
17
100
AcDbEntity
  8
0
100
AcDbBlockReference
  2
BLOCK004
 10
0.0
 20
0.0
 30
0.0
  0
MTEXT
  5
6C
330
17
100
AcDbEntity
  8
254
 62
3
370
9
100
AcDbMText
 10
170.51077147172
 20
5.3410491057923
 30
0.0
 40
1.8490691749951
 41
0.0
 71
7
  1
\T1.000000;ëÊéOäpñ@
  7
GMM001
 44
0.79999984000003
  0
MTEXT
  5
6D
330
17
100
AcDbEntity
  8
254
 62
7
370
20
100
AcDbMText
 10
191.87839303901
 20
6.9539510936227
 30
0.0
 40
4.2124107142857
 41
0.0
 71
8
  1
\T1.000000;ÅñÅñ
  7
GMM008
 44
0.79999984000003
  0
TEXT
  5
6E
330
17
100
AcDbEntity
  8
254
 62
3
370
9
100
AcDbText
 10
184.02331530209
 20
11.916209053108
 30
0.0
 40
2.5274464285714
  1
êRç∏
  7
STANDARD1
100
AcDbText
  0
TEXT
  5
6F
330
17
100
AcDbEntity
  8
254
 62
3
370
9
100
AcDbText
 10
184.08020453162
 20
19.653144268485
 30
0.0
 40
2.5274464285714
  1
çXêV
  7
STANDARD1
100
AcDbText
  0
LINE
  5
70
330
17
100
AcDbEntity
  8
254
  6
CONTINUOUS
 62
3
370
9
100
AcDbLine
 10
197.60921664054
 20
4.9999999999998
 30
0.0
 11
197.60921664054
 21
12.815804374491
 31
0.0
  0
LINE
  5
71
330
17
100
AcDbEntity
  8
254
  6
CONTINUOUS
 62
3
370
9
100
AcDbLine
 10
197.60921664054
 20
12.815804374491
 30
0.0
 11
197.60921664054
 21
20.631608748982
 31
0.0
  0
LINE
  5
72
330
17
100
AcDbEntity
  8
254
  6
CONTINUOUS
 62
3
370
9
100
AcDbLine
 10
186.23570771197
 20
4.9999999999998
 30
0.0
 11
186.23570771197
 21
12.815804374491
 31
0.0
  0
LINE
  5
73
330
17
100
AcDbEntity
  8
254
  6
CONTINUOUS
 62
3
370
9
100
AcDbLine
 10
186.23570771197
 20
12.815804374491
 30
0.0
 11
186.23570771197
 21
20.631608748982
 31
0.0
  0
TEXT
  5
74
330
17
100
AcDbEntity
  8
254
 62
3
370
9
100
AcDbText
 10
183.96642607257
 20
27.532166360389
 30
0.0
 40
2.5274464285714
  1
êªê}
  7
STANDARD1
100
AcDbText
  0
LINE
  5
75
330
17
100
AcDbEntity
  8
254
  6
CONTINUOUS
 62
3
370
9
100
AcDbLine
 10
197.60921664054
 20
20.631608748982
 30
0.0
 11
197.60921664054
 21
28.5895
 31
0.0
  0
LINE
  5
76
330
17
100
AcDbEntity
  8
254
  6
CONTINUOUS
 62
3
370
9
100
AcDbLine
 10
186.23570771197
 20
20.631608748982
 30
0.0
 11
186.23570771197
 21
28.5895
 31
0.0
  0
LINE
  5
77
330
17
100
AcDbEntity
  8
1
  6
CONTINUOUS
 62
3
370
9
100
AcDbLine
 10
182.02329699768
 20
12.863166666667
 30
0.0
 11
217.82878806911
 21
12.863166666667
 31
0.0
  0
LINE
  5
78
330
17
100
AcDbEntity
  8
1
  6
CONTINUOUS
 62
3
370
9
100
AcDbLine
 10
182.02329699768
 20
20.726333333333
 30
0.0
 11
217.82878806911
 21
20.726333333333
 31
0.0
  0
MTEXT
  5
79
330
17
100
AcDbEntity
  8
254
 62
7
370
20
100
AcDbMText
 10
207.70539689736
 20
6.8592265092718
 30
0.0
 40
4.2124107142857
 41
0.0
 71
8
  1
\T1.000000;ÅñÅñÅDÅñÅñÅDÅñÅñ
  7
GMM009
 44
0.79999984000003
  0
LINE
  5
7A
330
17
100
AcDbEntity
  8
254
  6
CONTINUOUS
 62
3
370
9
100
AcDbLine
 10
181.96979638834
 20
12.815804374491
 30
0.0
 11
181.96979638834
 21
20.631608748982
 31
0.0
  0
LINE
  5
7B
330
17
100
AcDbEntity
  8
254
  6
CONTINUOUS
 62
3
370
9
100
AcDbLine
 10
181.96979638834
 20
20.631608748982
 30
0.0
 11
181.96979638834
 21
28.5895
 31
0.0
  0
LINE
  5
7C
330
17
100
AcDbEntity
  8
254
  6
CONTINUOUS
 62
3
370
9
100
AcDbLine
 10
181.96979638834
 20
4.9999999999998
 30
0.0
 11
181.96979638834
 21
12.815804374491
 31
0.0
  0
INSERT
  5
7D
330
17
100
AcDbEntity
  8
0
100
AcDbBlockReference
  2
BLOCK005
 10
0.0
 20
0.0
 30
0.0
  0
POINT
  5
7F
330
17
100
AcDbEntity
  8
1
 62
3
100
AcDbPoint
 10
415.0
 20
4.9999999999998
 30
0.0
  0
LINE
  5
80
330
17
100
AcDbEntity
  8
254
  6
CONTINUOUS
 62
3
370
9
100
AcDbLine
 10
5.0
 20
5.0
 30
0.0
 11
5.0
 21
11.763017397237
 31
0.0
  0
LINE
  5
81
330
17
100
AcDbEntity
  8
254
  6
CONTINUOUS
 62
3
370
9
100
AcDbLine
 10
5.0
 20
11.804
 30
0.0
 11
5.0
 21
18.567017397237
 31
0.0
  0
INSERT
  5
82
330
17
100
AcDbEntity
  8
0
100
AcDbBlockReference
  2
BLOCK006
 10
0.0
 20
0.0
 30
0.0
  0
LINE
  5
84
330
17
100
AcDbEntity
  8
254
  6
CONTINUOUS
 62
3
370
9
100
AcDbLine
 10
12.898270089286
 20
5.0
 30
0.0
 11
12.898270089286
 21
10.861853280869
 31
0.0
  0
LINE
  5
85
330
17
100
AcDbEntity
  8
254
  6
CONTINUOUS
 62
3
370
9
100
AcDbLine
 10
36.593080357143
 20
5.0
 30
0.0
 11
36.593080357143
 21
10.861853280869
 31
0.0
  0
MTEXT
  5
86
330
17
100
AcDbEntity
  8
254
 62
7
370
20
100
AcDbMText
 10
38.413381681514
 20
12.163600656498
 30
0.0
 40
3.1593080357143
 41
0.0
 71
7
  1
\T1.000000;Åñ
  7
GMM008
 44
0.79999984000003
  0
MTEXT
  5
87
330
17
100
AcDbEntity
  8
254
 62
3
370
9
100
AcDbMText
 10
8.9491350446428
 20
6.4071855891086
 30
0.0
 40
3.1593080357143
 41
0.0
 71
8
  1
\T1.000000;ÇqÇdÇu
  7
GMM008
 44
0.79999984000003
  0
MTEXT
  5
88
330
17
100
AcDbEntity
  8
254
 62
3
370
9
100
AcDbMText
 10
17.227619624579
 20
6.4071855891086
 30
0.0
 40
3.1593080357143
 41
0.0
 71
8
  1
\T1.000000;êªê}
  7
GMM008
 44
0.79999984000003
  0
MTEXT
  5
89
330
17
100
AcDbEntity
  8
254
 62
7
370
20
100
AcDbMText
 10
17.1633359375
 20
12.327316601086
 30
0.0
 40
3.1593080357143
 41
0.0
 71
8
  1
\T1.000000;ÅñÅñ
  7
GMM008
 44
0.79999984000003
  0
LINE
  5
8A
330
17
100
AcDbEntity
  8
254
  6
CONTINUOUS
 62
3
370
9
100
AcDbLine
 10
21.428401785714
 20
10.897375
 30
0.0
 11
21.428401785714
 21
16.759228280869
 31
0.0
  0
LINE
  5
8B
330
17
100
AcDbEntity
  8
254
  6
CONTINUOUS
 62
3
370
9
100
AcDbLine
 10
36.593080357143
 20
10.897375
 30
0.0
 11
36.593080357143
 21
16.759228280869
 31
0.0
  0
LINE
  5
8C
330
17
100
AcDbEntity
  8
254
  6
CONTINUOUS
 62
3
370
9
100
AcDbLine
 10
12.898270089286
 20
10.897375
 30
0.0
 11
12.898270089286
 21
16.759228280869
 31
0.0
  0
MTEXT
  5
8D
330
17
100
AcDbEntity
  8
254
 62
3
370
9
100
AcDbMText
 10
43.315724723913
 20
6.4646750653583
 30
0.0
 40
3.1593080357143
 41
0.0
 71
8
  1
\T1.000000;ïœçXì‡óe
  7
GMM008
 44
0.79999984000003
  0
MTEXT
  5
8E
330
17
100
AcDbEntity
  8
254
 62
7
370
20
100
AcDbMText
 10
29.018366611674
 20
12.327316601086
 30
0.0
 40
3.1593080357143
 41
0.0
 71
8
  1
\T1.000000;ÅñÅñÅDÅñÅñÅDÅñÅñ
  7
GMM015
 44
0.79999984000003
  0
MTEXT
  5
8F
330
17
100
AcDbEntity
  8
254
 62
7
370
20
100
AcDbMText
 10
38.413381681514
 20
18.060975656498
 30
0.0
 40
3.1593080357143
 41
0.0
 71
7
  1
\T1.000000;Åñ
  7
GMM008
 44
0.79999984000003
  0
MTEXT
  5
90
330
17
100
AcDbEntity
  8
254
 62
7
370
20
100
AcDbMText
 10
17.1633359375
 20
18.224691601086
 30
0.0
 40
3.1593080357143
 41
0.0
 71
8
  1
\T1.000000;ÅñÅñ
  7
GMM008
 44
0.79999984000003
  0
LINE
  5
91
330
17
100
AcDbEntity
  8
254
  6
CONTINUOUS
 62
3
370
9
100
AcDbLine
 10
21.428401785714
 20
16.79475
 30
0.0
 11
21.428401785714
 21
22.656603280869
 31
0.0
  0
LINE
  5
92
330
17
100
AcDbEntity
  8
254
  6
CONTINUOUS
 62
3
370
9
100
AcDbLine
 10
36.593080357143
 20
16.79475
 30
0.0
 11
36.593080357143
 21
22.656603280869
 31
0.0
  0
LINE
  5
93
330
17
100
AcDbEntity
  8
254
  6
CONTINUOUS
 62
3
370
9
100
AcDbLine
 10
12.898270089286
 20
16.79475
 30
0.0
 11
12.898270089286
 21
22.656603280869
 31
0.0
  0
MTEXT
  5
94
330
17
100
AcDbEntity
  8
254
 62
7
370
20
100
AcDbMText
 10
29.018366611674
 20
18.224691601086
 30
0.0
 40
3.1593080357143
 41
0.0
 71
8
  1
\T1.000000;ÅñÅñÅDÅñÅñÅDÅñÅñ
  7
GMM015
 44
0.79999984000003
  0
LINE
  5
95
330
17
100
AcDbEntity
  8
254
  6
CONTINUOUS
 62
3
370
9
100
AcDbLine
 10
5.0
 20
10.897375
 30
0.0
 11
92.759851837957
 21
10.897375
 31
0.0
  0
LINE
  5
96
330
17
100
AcDbEntity
  8
254
  6
CONTINUOUS
 62
3
370
9
100
AcDbLine
 10
5.0
 20
16.79475
 30
0.0
 11
92.759851837957
 21
16.79475
 31
0.0
  0
LINE
  5
97
330
17
100
AcDbEntity
  8
254
  6
CONTINUOUS
 62
3
370
9
100
AcDbLine
 10
5.0
 20
22.692125
 30
0.0
 11
92.759851837957
 21
22.692125
 31
0.0
  0
MTEXT
  5
98
330
17
100
AcDbEntity
  8
254
 62
7
370
20
100
AcDbMText
 10
38.413381681514
 20
23.958350656497
 30
0.0
 40
3.1593080357143
 41
0.0
 71
7
  1
\T1.000000;Åñ
  7
GMM008
 44
0.79999984000003
  0
MTEXT
  5
99
330
17
100
AcDbEntity
  8
254
 62
7
370
20
100
AcDbMText
 10
17.1633359375
 20
24.122066601086
 30
0.0
 40
3.1593080357143
 41
0.0
 71
8
  1
\T1.000000;ÅñÅñ
  7
GMM008
 44
0.79999984000003
  0
LINE
  5
9A
330
17
100
AcDbEntity
  8
254
  6
CONTINUOUS
 62
3
370
9
100
AcDbLine
 10
21.428401785714
 20
22.692125
 30
0.0
 11
21.428401785714
 21
28.553978280869
 31
0.0
  0
LINE
  5
9B
330
17
100
AcDbEntity
  8
254
  6
CONTINUOUS
 62
3
370
9
100
AcDbLine
 10
36.593080357143
 20
22.692125
 30
0.0
 11
36.593080357143
 21
28.553978280869
 31
0.0
  0
LINE
  5
9C
330
17
100
AcDbEntity
  8
254
  6
CONTINUOUS
 62
3
370
9
100
AcDbLine
 10
12.898270089286
 20
22.692125
 30
0.0
 11
12.898270089286
 21
28.553978280869
 31
0.0
  0
MTEXT
  5
9D
330
17
100
AcDbEntity
  8
254
 62
7
370
20
100
AcDbMText
 10
29.018366611674
 20
24.122066601086
 30
0.0
 40
3.1593080357143
 41
0.0
 71
8
  1
\T1.000000;ÅñÅñÅDÅñÅñÅDÅñÅñ
  7
GMM015
 44
0.79999984000003
  0
LINE
  5
9E
330
17
100
AcDbEntity
  8
254
  6
CONTINUOUS
 62
3
370
9
100
AcDbLine
 10
5.0
 20
28.5895
 30
0.0
 11
92.759851837957
 21
28.5895
 31
0.0
  0
INSERT
  5
9F
330
17
100
AcDbEntity
  8
0
100
AcDbBlockReference
  2
BLOCK007
 10
0.0
 20
0.0
 30
0.0
  0
LINE
  5
A1
330
17
100
AcDbEntity
  8
254
  6
CONTINUOUS
 62
3
370
9
100
AcDbLine
 10
5.0
 20
18.526034794474
 30
0.0
 11
5.0
 21
28.5895
 31
0.0
  0
LINE
  5
A2
330
17
100
AcDbEntity
  8
254
  6
CONTINUOUS
 62
3
370
9
100
AcDbLine
 10
325.18000713133
 20
28.5895
 30
0.0
 11
415.0
 21
28.5895
 31
0.0
  0
MTEXT
  5
A3
330
17
100
AcDbEntity
  8
254
 62
7
370
20
100
AcDbMText
 10
383.87898754983
 20
24.45606176625
 30
0.0
 40
3.2
 41
0.0
 71
8
  1
\T1.000000;Åñ
  7
GMM003
 44
0.79999984000003
  0
CIRCLE
  5
A4
330
17
100
AcDbEntity
  8
254
  6
CONTINUOUS
 62
3
370
9
100
AcDbCircle
 10
19.323632491628
 20
278.8442948685
 30
0.0
 40
10.0
  0
LINE
  5
13E
330
17
100
AcDbEntity
  8
0
  6
Continuous
 62
7
370
25
100
AcDbLine
 10
159.24999999999315
 20
170.00000000001015
 30
0.0
 11
202.49999999999312
 21
170.00000000001015
 31
0.0
  0
LINE
  5
13F
330
17
100
AcDbEntity
  8
0
  6
Continuous
 62
7
370
25
100
AcDbLine
 10
201.24999999999312
 20
166.75000000001015
 30
0.0
 11
202.49999999999312
 21
166.75000000001015
 31
0.0
  0
LINE
  5
140
330
17
100
AcDbEntity
  8
0
  6
Continuous
 62
7
370
25
100
AcDbLine
 10
161.62499999999315
 20
166.75000000001015
 30
0.0
 11
200.12499999999312
 21
166.75000000001015
 31
0.0
  0
LINE
  5
141
330
17
100
AcDbEntity
  8
0
  6
Continuous
 62
7
370
25
100
AcDbLine
 10
160.49999999999315
 20
156.00000000001015
 30
0.0
 11
161.62499999999315
 21
156.00000000001015
 31
0.0
  0
LINE
  5
142
330
17
100
AcDbEntity
  8
0
  6
Continuous
 62
7
370
25
100
AcDbLine
 10
160.49999999999315
 20
166.75000000001015
 30
0.0
 11
160.49999999999315
 21
156.00000000001015
 31
0.0
  0
LINE
  5
143
330
17
100
AcDbEntity
  8
0
  6
Continuous
 62
7
370
25
100
AcDbLine
 10
159.24999999999315
 20
166.75000000001015
 30
0.0
 11
160.49999999999315
 21
166.75000000001015
 31
0.0
  0
LINE
  5
144
330
17
100
AcDbEntity
  8
0
  6
Continuous
 62
7
370
25
100
AcDbLine
 10
159.24999999999315
 20
170.00000000001015
 30
0.0
 11
159.24999999999315
 21
166.75000000001015
 31
0.0
  0
LINE
  5
145
330
17
100
AcDbEntity
  8
0
  6
Continuous
 62
7
370
25
100
AcDbLine
 10
202.49999999999312
 20
170.00000000001015
 30
0.0
 11
202.49999999999312
 21
166.75000000001015
 31
0.0
  0
LINE
  5
146
330
17
100
AcDbEntity
  8
0
  6
Continuous
 62
7
370
25
100
AcDbLine
 10
201.24999999999312
 20
156.00000000001015
 30
0.0
 11
200.12499999999312
 21
156.00000000001015
 31
0.0
  0
LINE
  5
147
330
17
100
AcDbEntity
  8
0
  6
Continuous
 62
7
370
25
100
AcDbLine
 10
161.62499999999315
 20
166.75000000001015
 30
0.0
 11
161.62499999999315
 21
156.00000000001015
 31
0.0
  0
LINE
  5
148
330
17
100
AcDbEntity
  8
0
  6
Continuous
 62
7
370
25
100
AcDbLine
 10
201.24999999999312
 20
166.75000000001015
 30
0.0
 11
201.24999999999312
 21
156.00000000001015
 31
0.0
  0
LINE
  5
149
330
17
100
AcDbEntity
  8
0
  6
Continuous
 62
7
370
25
100
AcDbLine
 10
200.12499999999312
 20
166.75000000001015
 30
0.0
 11
200.12499999999312
 21
156.00000000001015
 31
0.0
  0
LINE
  5
14A
330
17
100
AcDbEntity
  8
0
  6
Continuous
 62
7
370
25
100
AcDbLine
 10
201.24999999999312
 20
145.00000000001015
 30
0.0
 11
200.12499999999312
 21
145.00000000001015
 31
0.0
  0
LINE
  5
14B
330
17
100
AcDbEntity
  8
0
  6
Continuous
 62
7
370
25
100
AcDbLine
 10
201.24999999999312
 20
156.00000000001015
 30
0.0
 11
201.24999999999312
 21
145.00000000001015
 31
0.0
  0
LINE
  5
14C
330
17
100
AcDbEntity
  8
0
  6
Continuous
 62
7
370
25
100
AcDbLine
 10
200.12499999999312
 20
156.00000000001015
 30
0.0
 11
200.12499999999312
 21
145.00000000001015
 31
0.0
  0
LINE
  5
14D
330
17
100
AcDbEntity
  8
0
  6
Continuous
 62
7
370
25
100
AcDbLine
 10
160.49999999999315
 20
145.00000000001015
 30
0.0
 11
161.62499999999315
 21
145.00000000001015
 31
0.0
  0
LINE
  5
14E
330
17
100
AcDbEntity
  8
0
  6
Continuous
 62
7
370
25
100
AcDbLine
 10
160.49999999999315
 20
156.00000000001015
 30
0.0
 11
160.49999999999315
 21
145.00000000001015
 31
0.0
  0
LINE
  5
14F
330
17
100
AcDbEntity
  8
0
  6
Continuous
 62
7
370
25
100
AcDbLine
 10
161.62499999999315
 20
156.00000000001015
 30
0.0
 11
161.62499999999315
 21
145.00000000001015
 31
0.0
  0
LINE
  5
150
330
17
100
AcDbEntity
  8
0
  6
Continuous
 62
7
370
25
100
AcDbLine
 10
171.74999999999315
 20
152.50000000001015
 30
0.0
 11
189.99999999999312
 21
152.50000000001015
 31
0.0
  0
ARC
  5
151
330
17
100
AcDbEntity
  8
0
  6
Continuous
 62
7
370
25
100
AcDbCircle
 10
171.74999999999315
 20
148.75000000001015
 30
0.0
 40
3.75
100
AcDbArc
 50
90.0
 51
180.0
  0
LINE
  5
152
330
17
100
AcDbEntity
  8
0
  6
Continuous
 62
7
370
25
100
AcDbLine
 10
193.74999999999312
 20
148.75000000001015
 30
0.0
 11
193.74999999999312
 21
145.00000000001015
 31
0.0
  0
ARC
  5
153
330
17
100
AcDbEntity
  8
0
  6
Continuous
 62
7
370
25
100
AcDbCircle
 10
189.99999999999312
 20
148.75000000001015
 30
0.0
 40
3.75
100
AcDbArc
 50
0.0
 51
90.0
  0
ARC
  5
154
330
17
100
AcDbEntity
  8
0
  6
Continuous
 62
7
370
25
100
AcDbCircle
 10
193.74999999999312
 20
152.50000000001015
 30
0.0
 40
0.75
100
AcDbArc
 50
90.0
 51
-90.00000000000001
  0
ARC
  5
155
330
17
100
AcDbEntity
  8
0
  6
Continuous
 62
7
370
25
100
AcDbCircle
 10
193.74999999999312
 20
152.50000000001015
 30
0.0
 40
0.75
100
AcDbArc
 50
-90.00000000000001
 51
90.0
  0
ARC
  5
156
330
17
100
AcDbEntity
  8
0
  6
Continuous
 62
7
370
25
100
AcDbCircle
 10
167.99999999999315
 20
152.50000000001015
 30
0.0
 40
0.75
100
AcDbArc
 50
90.0
 51
-90.00000000000001
  0
ARC
  5
157
330
17
100
AcDbEntity
  8
0
  6
Continuous
 62
7
370
25
100
AcDbCircle
 10
167.99999999999315
 20
152.50000000001015
 30
0.0
 40
0.75
100
AcDbArc
 50
-90.00000000000001
 51
90.0
  0
LINE
  5
158
330
17
100
AcDbEntity
  8
0
  6
Continuous
 62
7
370
25
100
AcDbLine
 10
167.99999999999315
 20
145.00000000001015
 30
0.0
 11
167.99999999999315
 21
148.75000000001015
 31
0.0
  0
LINE
  5
159
330
17
100
AcDbEntity
  8
0
  6
Continuous
 62
7
370
25
100
AcDbLine
 10
161.62499999999315
 20
145.00000000001015
 30
0.0
 11
167.99999999999315
 21
145.00000000001015
 31
0.0
  0
LINE
  5
15A
330
17
100
AcDbEntity
  8
0
  6
Continuous
 62
7
370
25
100
AcDbLine
 10
193.74999999999312
 20
145.00000000001015
 30
0.0
 11
200.12499999999312
 21
145.00000000001015
 31
0.0
  0
LINE
  5
15B
330
17
100
AcDbEntity
  8
0
  6
Continuous
 62
7
370
25
100
AcDbLine
 10
201.24999999999312
 20
145.00000000001015
 30
0.0
 11
202.49999999999312
 21
145.00000000001015
 31
0.0
  0
LINE
  5
15C
330
17
100
AcDbEntity
  8
0
  6
Continuous
 62
7
370
25
100
AcDbLine
 10
202.49999999999312
 20
166.75000000001015
 30
0.0
 11
202.49999999999312
 21
145.00000000001015
 31
0.0
  0
LINE
  5
15D
330
17
100
AcDbEntity
  8
0
  6
Continuous
 62
7
370
25
100
AcDbLine
 10
159.24999999999315
 20
145.00000000001015
 30
0.0
 11
160.49999999999315
 21
145.00000000001015
 31
0.0
  0
LINE
  5
15E
330
17
100
AcDbEntity
  8
0
  6
Continuous
 62
7
370
25
100
AcDbLine
 10
159.24999999999315
 20
166.75000000001015
 30
0.0
 11
159.24999999999315
 21
145.00000000001015
 31
0.0
  0
LINE
  5
15F
330
17
100
AcDbEntity
  8
0
  6
Continuous
 62
7
370
25
100
AcDbLine
 10
159.24999999999315
 20
93.75000000001015
 30
0.0
 11
202.49999999999312
 21
93.75000000001015
 31
0.0
  0
ARC
  5
160
330
17
100
AcDbEntity
  8
0
  6
Continuous
 62
7
370
25
100
AcDbCircle
 10
171.74999999999315
 20
106.25000000001015
 30
0.0
 40
3.75
100
AcDbArc
 50
180.0
 51
-90.00000000000001
  0
ARC
  5
161
330
17
100
AcDbEntity
  8
0
  6
Continuous
 62
7
370
25
100
AcDbCircle
 10
162.99999999999315
 20
117.50000000001015
 30
0.0
 40
1.250000000000001
100
AcDbArc
 50
90.0
 51
-90.00000000000001
  0
ARC
  5
162
330
17
100
AcDbEntity
  8
0
  6
Continuous
 62
7
370
25
100
AcDbCircle
 10
162.99999999999315
 20
117.50000000001015
 30
0.0
 40
1.250000000000001
100
AcDbArc
 50
-90.00000000000001
 51
90.0
  0
ARC
  5
163
330
17
100
AcDbEntity
  8
0
  6
Continuous
 62
7
370
25
100
AcDbCircle
 10
162.99999999999315
 20
97.50000000001015
 30
0.0
 40
1.3750000000000036
100
AcDbArc
 50
90.0
 51
-90.00000000000001
  0
ARC
  5
164
330
17
100
AcDbEntity
  8
0
  6
Continuous
 62
7
370
25
100
AcDbCircle
 10
162.99999999999315
 20
137.50000000001015
 30
0.0
 40
1.375
100
AcDbArc
 50
90.0
 51
-90.00000000000001
  0
ARC
  5
165
330
17
100
AcDbEntity
  8
0
  6
Continuous
 62
7
370
25
100
AcDbCircle
 10
167.99999999999315
 20
102.50000000001015
 30
0.0
 40
0.7500000000000018
100
AcDbArc
 50
90.0
 51
-90.00000000000001
  0
ARC
  5
166
330
17
100
AcDbEntity
  8
0
  6
Continuous
 62
7
370
25
100
AcDbCircle
 10
167.99999999999315
 20
102.50000000001015
 30
0.0
 40
0.7500000000000018
100
AcDbArc
 50
-90.00000000000001
 51
90.0
  0
ARC
  5
167
330
17
100
AcDbEntity
  8
0
  6
Continuous
 62
7
370
25
100
AcDbCircle
 10
198.74999999999312
 20
97.50000000001015
 30
0.0
 40
1.3750000000000036
100
AcDbArc
 50
90.0
 51
-90.00000000000001
  0
ARC
  5
168
330
17
100
AcDbEntity
  8
0
  6
Continuous
 62
7
370
25
100
AcDbCircle
 10
193.74999999999312
 20
102.50000000001015
 30
0.0
 40
0.7500000000000018
100
AcDbArc
 50
90.0
 51
-90.00000000000001
  0
ARC
  5
169
330
17
100
AcDbEntity
  8
0
  6
Continuous
 62
7
370
25
100
AcDbCircle
 10
198.74999999999312
 20
137.50000000001015
 30
0.0
 40
1.375
100
AcDbArc
 50
90.0
 51
-90.00000000000001
  0
ARC
  5
16A
330
17
100
AcDbEntity
  8
0
  6
Continuous
 62
7
370
25
100
AcDbCircle
 10
198.74999999999312
 20
117.50000000001015
 30
0.0
 40
1.250000000000001
100
AcDbArc
 50
90.0
 51
-90.00000000000001
  0
ARC
  5
16B
330
17
100
AcDbEntity
  8
0
  6
Continuous
 62
7
370
25
100
AcDbCircle
 10
162.99999999999315
 20
137.50000000001015
 30
0.0
 40
1.375
100
AcDbArc
 50
-90.00000000000001
 51
90.0
  0
ARC
  5
16C
330
17
100
AcDbEntity
  8
0
  6
Continuous
 62
7
370
25
100
AcDbCircle
 10
198.74999999999312
 20
97.50000000001015
 30
0.0
 40
1.3750000000000036
100
AcDbArc
 50
-90.00000000000001
 51
90.0
  0
ARC
  5
16D
330
17
100
AcDbEntity
  8
0
  6
Continuous
 62
7
370
25
100
AcDbCircle
 10
198.74999999999312
 20
117.50000000001015
 30
0.0
 40
1.250000000000001
100
AcDbArc
 50
-90.00000000000001
 51
90.0
  0
ARC
  5
16E
330
17
100
AcDbEntity
  8
0
  6
Continuous
 62
7
370
25
100
AcDbCircle
 10
189.99999999999312
 20
106.25000000001015
 30
0.0
 40
3.75
100
AcDbArc
 50
-90.00000000000001
 51
0.0
  0
ARC
  5
16F
330
17
100
AcDbEntity
  8
0
  6
Continuous
 62
7
370
25
100
AcDbCircle
 10
193.74999999999312
 20
102.50000000001015
 30
0.0
 40
0.7500000000000018
100
AcDbArc
 50
-90.00000000000001
 51
90.0
  0
ARC
  5
170
330
17
100
AcDbEntity
  8
0
  6
Continuous
 62
7
370
25
100
AcDbCircle
 10
198.74999999999312
 20
137.50000000001015
 30
0.0
 40
1.375
100
AcDbArc
 50
-90.00000000000001
 51
90.0
  0
ARC
  5
171
330
17
100
AcDbEntity
  8
0
  6
Continuous
 62
7
370
25
100
AcDbCircle
 10
162.99999999999315
 20
97.50000000001015
 30
0.0
 40
1.3750000000000036
100
AcDbArc
 50
-90.00000000000001
 51
90.0
  0
LINE
  5
172
330
17
100
AcDbEntity
  8
0
  6
Continuous
 62
7
370
25
100
AcDbLine
 10
189.99999999999312
 20
102.50000000001015
 30
0.0
 11
171.74999999999315
 21
102.50000000001015
 31
0.0
  0
LINE
  5
173
330
17
100
AcDbEntity
  8
0
  6
Continuous
 62
7
370
25
100
AcDbLine
 10
193.74999999999312
 20
145.00000000001015
 30
0.0
 11
193.74999999999312
 21
106.25000000001015
 31
0.0
  0
LINE
  5
174
330
17
100
AcDbEntity
  8
0
  6
Continuous
 62
7
370
25
100
AcDbLine
 10
167.99999999999315
 20
106.25000000001015
 30
0.0
 11
167.99999999999315
 21
145.00000000001015
 31
0.0
  0
LINE
  5
175
330
17
100
AcDbEntity
  8
0
  6
Continuous
 62
7
370
25
100
AcDbLine
 10
159.24999999999315
 20
145.00000000001015
 30
0.0
 11
159.24999999999315
 21
93.75000000001015
 31
0.0
  0
LINE
  5
176
330
17
100
AcDbEntity
  8
0
  6
Continuous
 62
7
370
25
100
AcDbLine
 10
202.49999999999312
 20
145.00000000001015
 30
0.0
 11
202.49999999999312
 21
93.75000000001015
 31
0.0
  0
LINE
  5
177
330
17
100
AcDbEntity
  8
0
  6
HIDDEN
 62
7
370
18
100
AcDbLine
 10
200.12499999999312
 20
166.75000000001015
 30
0.0
 11
200.74999999999312
 21
166.75000000001015
 31
0.0
  0
LINE
  5
178
330
17
100
AcDbEntity
  8
0
  6
HIDDEN
 62
7
370
18
100
AcDbLine
 10
160.99999999999315
 20
166.75000000001015
 30
0.0
 11
161.62499999999315
 21
166.75000000001015
 31
0.0
  0
LINE
  5
179
330
17
100
AcDbEntity
  8
0
  6
HIDDEN
 62
7
370
18
100
AcDbLine
 10
183.37499999999312
 20
167.00000000001015
 30
0.0
 11
184.12499999999312
 21
167.00000000001015
 31
0.0
  0
LINE
  5
17A
330
17
100
AcDbEntity
  8
0
  6
HIDDEN
 62
7
370
18
100
AcDbLine
 10
182.62499999999312
 20
167.00000000001015
 30
0.0
 11
183.37499999999312
 21
167.00000000001015
 31
0.0
  0
LINE
  5
17B
330
17
100
AcDbEntity
  8
0
  6
HIDDEN
 62
7
370
18
100
AcDbLine
 10
178.37499999999312
 20
167.00000000001015
 30
0.0
 11
179.12499999999312
 21
167.00000000001015
 31
0.0
  0
LINE
  5
17C
330
17
100
AcDbEntity
  8
0
  6
HIDDEN
 62
7
370
18
100
AcDbLine
 10
177.62499999999315
 20
167.00000000001015
 30
0.0
 11
178.37499999999312
 21
167.00000000001015
 31
0.0
  0
LINE
  5
17D
330
17
100
AcDbEntity
  8
0
  6
HIDDEN
 62
7
370
18
100
AcDbLine
 10
164.99999999999315
 20
170.00000000001015
 30
0.0
 11
164.99999999999315
 21
166.75000000001015
 31
0.0
  0
LINE
  5
17E
330
17
100
AcDbEntity
  8
0
  6
HIDDEN
 62
7
370
18
100
AcDbLine
 10
196.74999999999312
 20
166.75000000001015
 30
0.0
 11
196.74999999999312
 21
170.00000000001015
 31
0.0
  0
LINE
  5
17F
330
17
100
AcDbEntity
  8
0
  6
HIDDEN
 62
7
370
18
100
AcDbLine
 10
198.24999999999312
 20
170.00000000001015
 30
0.0
 11
198.24999999999312
 21
166.75000000001015
 31
0.0
  0
LINE
  5
180
330
17
100
AcDbEntity
  8
0
  6
HIDDEN
 62
7
370
18
100
AcDbLine
 10
200.74999999999312
 20
166.75000000001015
 30
0.0
 11
200.74999999999312
 21
170.00000000001015
 31
0.0
  0
LINE
  5
181
330
17
100
AcDbEntity
  8
0
  6
HIDDEN
 62
7
370
18
100
AcDbLine
 10
163.49999999999315
 20
166.75000000001015
 30
0.0
 11
163.49999999999315
 21
170.00000000001015
 31
0.0
  0
LINE
  5
182
330
17
100
AcDbEntity
  8
0
  6
HIDDEN
 62
7
370
18
100
AcDbLine
 10
160.99999999999315
 20
170.00000000001015
 30
0.0
 11
160.99999999999315
 21
166.75000000001015
 31
0.0
  0
LINE
  5
183
330
17
100
AcDbEntity
  8
0
  6
HIDDEN
 62
7
370
18
100
AcDbLine
 10
184.12499999999312
 20
167.00000000001015
 30
0.0
 11
184.12499999999312
 21
170.00000000001015
 31
0.0
  0
LINE
  5
184
330
17
100
AcDbEntity
  8
0
  6
HIDDEN
 62
7
370
18
100
AcDbLine
 10
182.62499999999312
 20
170.00000000001015
 30
0.0
 11
182.62499999999312
 21
167.00000000001015
 31
0.0
  0
LINE
  5
185
330
17
100
AcDbEntity
  8
0
  6
HIDDEN
 62
7
370
18
100
AcDbLine
 10
179.12499999999312
 20
167.00000000001015
 30
0.0
 11
179.12499999999312
 21
170.00000000001015
 31
0.0
  0
LINE
  5
186
330
17
100
AcDbEntity
  8
0
  6
HIDDEN
 62
7
370
18
100
AcDbLine
 10
177.62499999999315
 20
170.00000000001015
 30
0.0
 11
177.62499999999315
 21
167.00000000001015
 31
0.0
  0
LINE
  5
187
330
17
100
AcDbEntity
  8
0
  6
Continuous
 62
7
370
25
100
AcDbLine
 10
159.24999999999315
 20
185.00000000000003
 30
0.0
 11
202.49999999999312
 21
185.00000000000003
 31
0.0
  0
ARC
  5
188
330
17
100
AcDbEntity
  8
0
  6
Continuous
 62
7
370
25
100
AcDbCircle
 10
178.37499999999312
 20
225.50000000000003
 30
0.0
 40
0.75
100
AcDbArc
 50
90.0
 51
-90.00000000000001
  0
ARC
  5
189
330
17
100
AcDbEntity
  8
0
  6
Continuous
 62
7
370
25
100
AcDbCircle
 10
162.24999999999315
 20
218.62500000000003
 30
0.0
 40
1.25
100
AcDbArc
 50
90.0
 51
-90.00000000000001
  0
ARC
  5
18A
330
17
100
AcDbEntity
  8
0
  6
Continuous
 62
7
370
25
100
AcDbCircle
 10
162.24999999999315
 20
218.62500000000003
 30
0.0
 40
1.25
100
AcDbArc
 50
-90.00000000000001
 51
90.0
  0
ARC
  5
18B
330
17
100
AcDbEntity
  8
0
  6
Continuous
 62
7
370
25
100
AcDbCircle
 10
199.49999999999312
 20
218.62500000000003
 30
0.0
 40
1.25
100
AcDbArc
 50
90.0
 51
-90.00000000000001
  0
ARC
  5
18C
330
17
100
AcDbEntity
  8
0
  6
Continuous
 62
7
370
25
100
AcDbCircle
 10
199.49999999999312
 20
218.62500000000003
 30
0.0
 40
1.25
100
AcDbArc
 50
-90.00000000000001
 51
90.0
  0
ARC
  5
18D
330
17
100
AcDbEntity
  8
0
  6
Continuous
 62
7
370
25
100
AcDbCircle
 10
199.49999999999312
 20
189.87500000000003
 30
0.0
 40
1.25
100
AcDbArc
 50
90.0
 51
-90.00000000000001
  0
ARC
  5
18E
330
17
100
AcDbEntity
  8
0
  6
Continuous
 62
7
370
25
100
AcDbCircle
 10
199.49999999999312
 20
189.87500000000003
 30
0.0
 40
1.25
100
AcDbArc
 50
-90.00000000000001
 51
90.0
  0
ARC
  5
18F
330
17
100
AcDbEntity
  8
0
  6
Continuous
 62
7
370
25
100
AcDbCircle
 10
162.24999999999315
 20
189.87500000000003
 30
0.0
 40
1.25
100
AcDbArc
 50
90.0
 51
-90.00000000000001
  0
ARC
  5
190
330
17
100
AcDbEntity
  8
0
  6
Continuous
 62
7
370
25
100
AcDbCircle
 10
162.24999999999315
 20
189.87500000000003
 30
0.0
 40
1.25
100
AcDbArc
 50
-90.00000000000001
 51
90.0
  0
ARC
  5
191
330
17
100
AcDbEntity
  8
0
  6
Continuous
 62
7
370
25
100
AcDbCircle
 10
180.87499999999312
 20
204.25000000000003
 30
0.0
 40
15.875000000000014
100
AcDbArc
 50
90.0
 51
-90.00000000000001
  0
ARC
  5
192
330
17
100
AcDbEntity
  8
0
  6
Continuous
 62
7
370
25
100
AcDbCircle
 10
180.87499999999312
 20
204.25000000000003
 30
0.0
 40
15.875000000000014
100
AcDbArc
 50
-90.00000000000001
 51
90.0
  0
LINE
  5
193
330
17
100
AcDbEntity
  8
0
  6
Continuous
 62
7
370
25
100
AcDbLine
 10
159.24999999999315
 20
228.25000000000003
 30
0.0
 11
159.24999999999315
 21
185.00000000000003
 31
0.0
  0
LINE
  5
194
330
17
100
AcDbEntity
  8
0
  6
Continuous
 62
7
370
25
100
AcDbLine
 10
202.49999999999312
 20
228.25000000000003
 30
0.0
 11
202.49999999999312
 21
185.00000000000003
 31
0.0
  0
ARC
  5
195
330
17
100
AcDbEntity
  8
0
  6
Continuous
 62
7
370
25
100
AcDbCircle
 10
178.37499999999312
 20
225.50000000000003
 30
0.0
 40
0.75
100
AcDbArc
 50
-90.00000000000001
 51
90.0
  0
LINE
  5
196
330
17
100
AcDbEntity
  8
0
  6
Continuous
 62
7
370
25
100
AcDbLine
 10
159.24999999999315
 20
228.25000000000003
 30
0.0
 11
202.49999999999312
 21
228.25000000000003
 31
0.0
  0
ARC
  5
197
330
17
100
AcDbEntity
  8
0
  6
Continuous
 62
7
370
25
100
AcDbCircle
 10
183.37499999999312
 20
225.50000000000003
 30
0.0
 40
0.75
100
AcDbArc
 50
-90.00000000000001
 51
90.0
  0
ARC
  5
198
330
17
100
AcDbEntity
  8
0
  6
Continuous
 62
7
370
25
100
AcDbCircle
 10
183.37499999999312
 20
225.50000000000003
 30
0.0
 40
0.75
100
AcDbArc
 50
90.0
 51
-90.00000000000001
  0
LINE
  5
199
330
17
100
AcDbEntity
  8
0
  6
Continuous
 62
7
370
25
100
AcDbLine
 10
200.12499999999312
 20
219.70753175472504
 30
0.0
 11
200.12499999999312
 21
217.54246824527502
 31
0.0
  0
LINE
  5
19A
330
17
100
AcDbEntity
  8
0
  6
Continuous
 62
7
370
25
100
AcDbLine
 10
161.62499999999315
 20
219.70753175472504
 30
0.0
 11
161.62499999999315
 21
217.54246824527502
 31
0.0
  0
LINE
  5
19B
330
17
100
AcDbEntity
  8
0
  6
Continuous
 62
7
370
25
100
AcDbLine
 10
161.62499999999315
 20
190.95753175472504
 30
0.0
 11
161.62499999999315
 21
188.79246824527502
 31
0.0
  0
LINE
  5
19C
330
17
100
AcDbEntity
  8
0
  6
Continuous
 62
7
370
25
100
AcDbLine
 10
200.12499999999312
 20
190.95753175472504
 30
0.0
 11
200.12499999999312
 21
188.79246824527502
 31
0.0
  0
LINE
  5
19D
330
17
100
AcDbEntity
  8
0
  6
HIDDEN
 62
7
370
18
100
AcDbLine
 10
161.62499999999315
 20
223.50000000000003
 30
0.0
 11
200.12499999999312
 21
223.50000000000003
 31
0.0
  0
LINE
  5
19E
330
17
100
AcDbEntity
  8
0
  6
HIDDEN
 62
7
370
18
100
AcDbLine
 10
201.24999999999312
 20
223.50000000000003
 30
0.0
 11
202.49999999999312
 21
223.50000000000003
 31
0.0
  0
LINE
  5
19F
330
17
100
AcDbEntity
  8
0
  6
HIDDEN
 62
7
370
18
100
AcDbLine
 10
161.62499999999315
 20
188.79246824527502
 30
0.0
 11
161.62499999999315
 21
185.00000000000003
 31
0.0
  0
LINE
  5
1A0
330
17
100
AcDbEntity
  8
0
  6
HIDDEN
 62
7
370
18
100
AcDbLine
 10
161.62499999999315
 20
223.50000000000003
 30
0.0
 11
161.62499999999315
 21
219.70753175472504
 31
0.0
  0
LINE
  5
1A1
330
17
100
AcDbEntity
  8
0
  6
HIDDEN
 62
7
370
18
100
AcDbLine
 10
161.62499999999315
 20
217.54246824527502
 30
0.0
 11
161.62499999999315
 21
190.95753175472504
 31
0.0
  0
LINE
  5
1A2
330
17
100
AcDbEntity
  8
0
  6
HIDDEN
 62
7
370
18
100
AcDbLine
 10
201.24999999999312
 20
223.50000000000003
 30
0.0
 11
201.24999999999312
 21
185.00000000000003
 31
0.0
  0
LINE
  5
1A3
330
17
100
AcDbEntity
  8
0
  6
HIDDEN
 62
7
370
18
100
AcDbLine
 10
200.12499999999312
 20
188.79246824527502
 30
0.0
 11
200.12499999999312
 21
185.00000000000003
 31
0.0
  0
LINE
  5
1A4
330
17
100
AcDbEntity
  8
0
  6
HIDDEN
 62
7
370
18
100
AcDbLine
 10
200.12499999999312
 20
217.54246824527502
 30
0.0
 11
200.12499999999312
 21
190.95753175472504
 31
0.0
  0
LINE
  5
1A5
330
17
100
AcDbEntity
  8
0
  6
HIDDEN
 62
7
370
18
100
AcDbLine
 10
200.12499999999312
 20
223.50000000000003
 30
0.0
 11
200.12499999999312
 21
219.70753175472504
 31
0.0
  0
LINE
  5
1A6
330
17
100
AcDbEntity
  8
0
  6
HIDDEN
 62
7
370
18
100
AcDbLine
 10
160.49999999999315
 20
223.50000000000003
 30
0.0
 11
160.49999999999315
 21
185.00000000000003
 31
0.0
  0
LINE
  5
1A7
330
17
100
AcDbEntity
  8
0
  6
HIDDEN
 62
7
370
18
100
AcDbLine
 10
159.24999999999315
 20
223.50000000000003
 30
0.0
 11
160.49999999999315
 21
223.50000000000003
 31
0.0
  0
LINE
  5
1A8
330
17
100
AcDbEntity
  8
0
  6
HIDDEN
 62
7
370
18
100
AcDbLine
 10
201.24999999999312
 20
195.75000000000003
 30
0.0
 11
200.12499999999312
 21
195.75000000000003
 31
0.0
  0
LINE
  5
1A9
330
17
100
AcDbEntity
  8
0
  6
HIDDEN
 62
7
370
18
100
AcDbLine
 10
160.49999999999315
 20
195.75000000000003
 30
0.0
 11
161.62499999999315
 21
195.75000000000003
 31
0.0
  0
LINE
  5
1AA
330
17
100
AcDbEntity
  8
0
  6
HIDDEN
 62
7
370
18
100
AcDbLine
 10
167.99999999999315
 20
223.50000000000003
 30
0.0
 11
167.99999999999315
 21
228.25000000000003
 31
0.0
  0
LINE
  5
1AB
330
17
100
AcDbEntity
  8
0
  6
HIDDEN
 62
7
370
18
100
AcDbLine
 10
193.74999999999312
 20
223.50000000000003
 30
0.0
 11
193.74999999999312
 21
228.25000000000003
 31
0.0
  0
LINE
  5
1AC
330
17
100
AcDbEntity
  8
0
  6
HIDDEN
 62
7
370
18
100
AcDbLine
 10
193.74999999999312
 20
224.25000000000003
 30
0.0
 11
202.49999999999312
 21
224.25000000000003
 31
0.0
  0
LINE
  5
1AD
330
17
100
AcDbEntity
  8
0
  6
HIDDEN
 62
7
370
18
100
AcDbLine
 10
159.24999999999315
 20
224.25000000000003
 30
0.0
 11
167.99999999999315
 21
224.25000000000003
 31
0.0
  0
LINE
  5
1AE
330
17
100
AcDbEntity
  8
0
  6
HIDDEN
 62
7
370
18
100
AcDbLine
 10
193.74999999999312
 20
224.25000000000003
 30
0.0
 11
189.99999999999312
 21
224.25000000000003
 31
0.0
  0
LINE
  5
1AF
330
17
100
AcDbEntity
  8
0
  6
HIDDEN
 62
7
370
18
100
AcDbLine
 10
171.74999999999315
 20
224.25000000000003
 30
0.0
 11
167.99999999999315
 21
224.25000000000003
 31
0.0
  0
LINE
  5
1B0
330
17
100
AcDbEntity
  8
0
  6
HIDDEN
 62
7
370
18
100
AcDbLine
 10
189.99999999999312
 20
224.25000000000003
 30
0.0
 11
171.74999999999315
 21
224.25000000000003
 31
0.0
  0
LINE
  5
1B1
330
17
100
AcDbEntity
  8
0
  6
HIDDEN
 62
7
370
18
100
AcDbLine
 10
194.49999999999312
 20
223.50000000000003
 30
0.0
 11
194.49999999999312
 21
228.25000000000003
 31
0.0
  0
LINE
  5
1B2
330
17
100
AcDbEntity
  8
0
  6
HIDDEN
 62
7
370
18
100
AcDbLine
 10
192.99999999999312
 20
228.25000000000003
 30
0.0
 11
192.99999999999312
 21
223.50000000000003
 31
0.0
  0
LINE
  5
1B3
330
17
100
AcDbEntity
  8
0
  6
HIDDEN
 62
7
370
18
100
AcDbLine
 10
168.74999999999315
 20
223.50000000000003
 30
0.0
 11
168.74999999999315
 21
228.25000000000003
 31
0.0
  0
LINE
  5
1B4
330
17
100
AcDbEntity
  8
0
  6
HIDDEN
 62
7
370
18
100
AcDbLine
 10
167.24999999999315
 20
228.25000000000003
 30
0.0
 11
167.24999999999315
 21
223.50000000000003
 31
0.0
  0
LINE
  5
1B5
330
17
100
AcDbEntity
  8
0
  6
HIDDEN
 62
7
370
18
100
AcDbLine
 10
164.37499999999315
 20
224.25000000000003
 30
0.0
 11
164.37499999999315
 21
228.25000000000003
 31
0.0
  0
LINE
  5
1B6
330
17
100
AcDbEntity
  8
0
  6
HIDDEN
 62
7
370
18
100
AcDbLine
 10
161.62499999999315
 20
228.25000000000003
 30
0.0
 11
161.62499999999315
 21
224.25000000000003
 31
0.0
  0
LINE
  5
1B7
330
17
100
AcDbEntity
  8
0
  6
HIDDEN
 62
7
370
18
100
AcDbLine
 10
200.12499999999312
 20
224.25000000000003
 30
0.0
 11
200.12499999999312
 21
228.25000000000003
 31
0.0
  0
LINE
  5
1B8
330
17
100
AcDbEntity
  8
0
  6
HIDDEN
 62
7
370
18
100
AcDbLine
 10
197.37499999999312
 20
228.25000000000003
 30
0.0
 11
197.37499999999312
 21
224.25000000000003
 31
0.0
  0
LINE
  5
1B9
330
17
100
AcDbEntity
  8
0
  6
HIDDEN
 62
7
370
18
100
AcDbLine
 10
197.49999999999312
 20
228.25000000000003
 30
0.0
 11
197.49999999999312
 21
224.25000000000003
 31
0.0
  0
LINE
  5
1BA
330
17
100
AcDbEntity
  8
0
  6
HIDDEN
 62
7
370
18
100
AcDbLine
 10
164.24999999999315
 20
224.25000000000003
 30
0.0
 11
164.24999999999315
 21
228.25000000000003
 31
0.0
  0
LINE
  5
1BB
330
17
100
AcDbEntity
  8
0
  6
HIDDEN
 62
7
370
18
100
AcDbLine
 10
161.74999999999315
 20
228.25000000000003
 30
0.0
 11
161.74999999999315
 21
224.25000000000003
 31
0.0
  0
LINE
  5
1BC
330
17
100
AcDbEntity
  8
0
  6
HIDDEN
 62
7
370
18
100
AcDbLine
 10
199.99999999999312
 20
224.25000000000003
 30
0.0
 11
199.99999999999312
 21
228.25000000000003
 31
0.0
  0
LINE
  5
1BD
330
17
100
AcDbEntity
  8
0
  6
Continuous
 62
7
370
25
100
AcDbLine
 10
256.75
 20
145.00000000001015
 30
0.0
 11
256.75
 21
93.75000000001015
 31
0.0
  0
LINE
  5
1BE
330
17
100
AcDbEntity
  8
0
  6
Continuous
 62
7
370
25
100
AcDbLine
 10
256.0
 20
145.00000000001015
 30
0.0
 11
256.75
 21
145.00000000001015
 31
0.0
  0
LINE
  5
1BF
330
17
100
AcDbEntity
  8
0
  6
Continuous
 62
7
370
25
100
AcDbLine
 10
256.0
 20
166.75000000001015
 30
0.0
 11
256.0
 21
145.00000000001015
 31
0.0
  0
LINE
  5
1C0
330
17
100
AcDbEntity
  8
0
  6
Continuous
 62
7
370
25
100
AcDbLine
 10
217.5
 20
166.75000000001015
 30
0.0
 11
256.0
 21
166.75000000001015
 31
0.0
  0
LINE
  5
1C1
330
17
100
AcDbEntity
  8
0
  6
Continuous
 62
7
370
25
100
AcDbLine
 10
217.5
 20
170.00000000001015
 30
0.0
 11
217.5
 21
166.75000000001015
 31
0.0
  0
LINE
  5
1C2
330
17
100
AcDbEntity
  8
0
  6
Continuous
 62
7
370
25
100
AcDbLine
 10
260.75
 20
170.00000000001015
 30
0.0
 11
217.5
 21
170.00000000001015
 31
0.0
  0
LINE
  5
1C3
330
17
100
AcDbEntity
  8
0
  6
Continuous
 62
7
370
25
100
AcDbLine
 10
260.75
 20
93.75000000001015
 30
0.0
 11
260.75
 21
170.00000000001015
 31
0.0
  0
LINE
  5
1C4
330
17
100
AcDbEntity
  8
0
  6
Continuous
 62
7
370
25
100
AcDbLine
 10
256.75
 20
93.75000000001015
 30
0.0
 11
260.75
 21
93.75000000001015
 31
0.0
  0
LINE
  5
1C5
330
17
100
AcDbEntity
  8
0
  6
Continuous
 62
7
370
25
100
AcDbLine
 10
228.25
 20
156.00000000001015
 30
0.0
 11
228.25
 21
145.00000000001015
 31
0.0
  0
LINE
  5
1C6
330
17
100
AcDbEntity
  8
0
  6
Continuous
 62
7
370
25
100
AcDbLine
 10
217.5
 20
156.00000000001015
 30
0.0
 11
228.25
 21
156.00000000001015
 31
0.0
  0
LINE
  5
1C7
330
17
100
AcDbEntity
  8
0
  6
Continuous
 62
7
370
25
100
AcDbLine
 10
217.5
 20
166.75000000001015
 30
0.0
 11
217.5
 21
156.00000000001015
 31
0.0
  0
LINE
  5
1C8
330
17
100
AcDbEntity
  8
0
  6
Continuous
 62
7
370
25
100
AcDbLine
 10
228.25
 20
145.00000000001015
 30
0.0
 11
256.0
 21
145.00000000001015
 31
0.0
  0
LINE
  5
1C9
330
17
100
AcDbEntity
  8
0
  6
HIDDEN
 62
7
370
18
100
AcDbLine
 10
249.875
 20
166.75000000001015
 30
0.0
 11
249.875
 21
170.00000000001015
 31
0.0
  0
LINE
  5
1CA
330
17
100
AcDbEntity
  8
0
  6
HIDDEN
 62
7
370
18
100
AcDbLine
 10
252.375
 20
166.75000000001015
 30
0.0
 11
252.375
 21
170.00000000001015
 31
0.0
  0
LINE
  5
1CB
330
17
100
AcDbEntity
  8
0
  6
HIDDEN
 62
7
370
18
100
AcDbLine
 10
221.125
 20
166.75000000001015
 30
0.0
 11
221.125
 21
170.00000000001015
 31
0.0
  0
LINE
  5
1CC
330
17
100
AcDbEntity
  8
0
  6
HIDDEN
 62
7
370
18
100
AcDbLine
 10
223.625
 20
166.75000000001015
 30
0.0
 11
223.625
 21
170.00000000001015
 31
0.0
  0
LINE
  5
1CD
330
17
100
AcDbEntity
  8
0
  6
HIDDEN
 62
7
370
18
100
AcDbLine
 10
256.75
 20
138.87500000001015
 30
0.0
 11
260.75
 21
138.87500000001015
 31
0.0
  0
LINE
  5
1CE
330
17
100
AcDbEntity
  8
0
  6
HIDDEN
 62
7
370
18
100
AcDbLine
 10
256.75
 20
136.12500000001015
 30
0.0
 11
260.75
 21
136.12500000001015
 31
0.0
  0
LINE
  5
1CF
330
17
100
AcDbEntity
  8
0
  6
HIDDEN
 62
7
370
18
100
AcDbLine
 10
256.75
 20
98.87500000001015
 30
0.0
 11
260.75
 21
98.87500000001015
 31
0.0
  0
LINE
  5
1D0
330
17
100
AcDbEntity
  8
0
  6
HIDDEN
 62
7
370
18
100
AcDbLine
 10
256.75
 20
96.12500000001015
 30
0.0
 11
260.75
 21
96.12500000001015
 31
0.0
  0
LINE
  5
1D1
330
17
100
AcDbEntity
  8
0
  6
HIDDEN
 62
7
370
18
100
AcDbLine
 10
256.75
 20
118.75000000001015
 30
0.0
 11
260.75
 21
118.75000000001015
 31
0.0
  0
LINE
  5
1D2
330
17
100
AcDbEntity
  8
0
  6
HIDDEN
 62
7
370
18
100
AcDbLine
 10
256.75
 20
116.25000000001015
 30
0.0
 11
260.75
 21
116.25000000001015
 31
0.0
  0
LINE
  5
1D3
330
17
100
AcDbEntity
  8
0
  6
HIDDEN
 62
7
370
18
100
AcDbLine
 10
220.875
 20
166.75000000001015
 30
0.0
 11
220.875
 21
170.00000000001015
 31
0.0
  0
LINE
  5
1D4
330
17
100
AcDbEntity
  8
0
  6
HIDDEN
 62
7
370
18
100
AcDbLine
 10
252.625
 20
166.75000000001015
 30
0.0
 11
252.625
 21
170.00000000001015
 31
0.0
  0
LINE
  5
1D5
330
17
100
AcDbEntity
  8
0
  6
HIDDEN
 62
7
370
18
100
AcDbLine
 10
256.0
 20
153.25000000001015
 30
0.0
 11
260.75
 21
153.25000000001015
 31
0.0
  0
LINE
  5
1D6
330
17
100
AcDbEntity
  8
0
  6
HIDDEN
 62
7
370
18
100
AcDbLine
 10
256.0
 20
151.75000000001015
 30
0.0
 11
260.75
 21
151.75000000001015
 31
0.0
  0
LINE
  5
1D7
330
17
100
AcDbEntity
  8
0
  6
HIDDEN
 62
7
370
18
100
AcDbLine
 10
256.75
 20
103.25000000001015
 30
0.0
 11
260.75
 21
103.25000000001015
 31
0.0
  0
LINE
  5
1D8
330
17
100
AcDbEntity
  8
0
  6
HIDDEN
 62
7
370
18
100
AcDbLine
 10
256.75
 20
101.75000000001015
 30
0.0
 11
260.75
 21
101.75000000001015
 31
0.0
  0
LINE
  5
1D9
330
17
100
AcDbEntity
  8
0
  6
HIDDEN
 62
7
370
18
100
AcDbLine
 10
256.75
 20
102.50000000001015
 30
0.0
 11
260.75
 21
102.50000000001015
 31
0.0
  0
LINE
  5
1DA
330
17
100
AcDbEntity
  8
0
  6
HIDDEN
 62
7
370
18
100
AcDbLine
 10
256.0
 20
152.50000000001015
 30
0.0
 11
260.75
 21
152.50000000001015
 31
0.0
  0
LINE
  5
1DB
330
17
100
AcDbEntity
  8
0
  6
HIDDEN
 62
7
370
18
100
AcDbLine
 10
257.25
 20
167.00000000001015
 30
0.0
 11
257.25
 21
170.00000000001015
 31
0.0
  0
LINE
  5
1DC
330
17
100
AcDbEntity
  8
0
  6
HIDDEN
 62
7
370
18
100
AcDbLine
 10
257.25
 20
167.00000000001015
 30
0.0
 11
258.75
 21
167.00000000001015
 31
0.0
  0
LINE
  5
1DD
330
17
100
AcDbEntity
  8
0
  6
HIDDEN
 62
7
370
18
100
AcDbLine
 10
258.75
 20
167.00000000001015
 30
0.0
 11
258.75
 21
170.00000000001015
 31
0.0
  0
MTEXT
  5
1DE
330
17
100
AcDbEntity
  8
0
100
AcDbMText
 10
224.477
 20
22.51
 30
0.0
 40
4.2124
 71
7
  1
\T1.000000;ãÏìÆÉÜÉjÉbÉgÉuÉâÉPÉbÉg
  7
GMM008
  0
MTEXT
  5
1DF
330
17
100
AcDbEntity
  8
0
100
AcDbMText
 10
224.477
 20
14.877
 30
0.0
 40
4.2124
 71
7
  1
\T1.000000;ëOå„é≤
  7
GMM008
  0
MTEXT
  5
1E0
330
17
100
AcDbEntity
  8
0
100
AcDbMText
 10
273.605
 20
20.498
 30
0.0
 40
4.2124
 71
7
  1
\T1.000000;ÇQÇTÇPÇTÇSÅ|ÇSÅ|ÇOÇT
  7
GMM008
  0
MTEXT
  5
1E1
330
17
100
AcDbEntity
  8
0
100
AcDbMText
 10
191.878
 20
22.586
 30
0.0
 40
4.2124
 71
8
  1
\T1.000000;Ç`Çh
  7
GMM008
  0
MTEXT
  5
1E2
330
17
100
AcDbEntity
  8
0
100
AcDbMText
 10
207.705
 20
22.586
 30
0.0
 40
4.2124
 71
8
  1
\T1.000000;ÇQÇUÅDÇOÇWÅDÇPÇP
  7
GMM009
  0
MTEXT
  5
1E3
330
17
100
AcDbEntity
  8
0
100
AcDbMText
 10
207.705
 20
14.722
 30
0.0
 40
4.2124
 71
8
  1
\T1.000000;ÅñÅñÅDÅñÅñÅDÅñÅñ
  7
GMM009
  0
MTEXT
  5
1E5
330
17
100
AcDbEntity
  8
0
100
AcDbMText
 10
176.415
 20
22.446
 30
0.0
 40
4.2124
 71
8
  1
\T1.000000;ÇPÅFÇS
  7
VF001
  0
MTEXT
  5
1E7
330
17
100
AcDbEntity
  8
0
100
AcDbMText
 10
19.324
 20
275.03
 30
0.0
 40
7.0
 71
8
  1
\T1.000000;ÇOÇT
  7
VF002
  0
MTEXT
  5
1E8
330
17
100
AcDbEntity
  8
0
100
AcDbMText
 10
33.595
 20
280.001
 30
0.0
 40
7.0
 71
4
  1
\T1.000000;çﬁéøÅ@ÇrÇrÇSÇOÇOÅ@\P\T1.000000;å¬êîÅ@ÇP
  7
VF001
  0
MTEXT
  5
1E9
330
17
100
AcDbEntity
  8
0
100
AcDbMText
 10
224.593
 20
6.704
 30
0.0
 40
4.2124107142857
 71
7
  1
\T1.000000;ÇUÅDÇTÇQ
  7
GMM008
  0
DIMENSION
  5
1F5
330
17
100
AcDbEntity
  8
1
100
AcDbDimension
  2
*D1
  3
GEN001
 10
167.99999999999994
 20
77.75000000001015
 30
0.0
 11
180.87499999999994
 21
80.25000000001015
 31
0.0
 70
32
 71
5
  1
<>
100
AcDbAlignedDimension
 13
167.99999999999994
 23
102.49999999999986
 33
0.0
 14
193.74999999999994
 24
102.49999999999986
 34
0.0
 50
0.0
100
AcDbRotatedDimension
  0
DIMENSION
  5
205
330
17
100
AcDbEntity
  8
1
100
AcDbDimension
  2
*D2
  3
GEN002
 10
162.99999999999994
 20
69.75000000001015
 30
0.0
 11
180.87499999999994
 21
72.25000000001015
 31
0.0
 70
32
 71
5
  1
<>
100
AcDbAlignedDimension
 13
162.99999999999994
 23
97.49999999999986
 33
0.0
 14
198.74999999999994
 24
97.49999999999986
 34
0.0
 50
0.0
100
AcDbRotatedDimension
  0
DIMENSION
  5
215
330
17
100
AcDbEntity
  8
1
100
AcDbDimension
  2
*D3
  3
GEN003
 10
159.24999999999994
 20
61.75000000001015
 30
0.0
 11
180.87499999999994
 21
64.25000000001015
 31
0.0
 70
32
 71
5
  1
<>
100
AcDbAlignedDimension
 13
159.24999999999994
 23
93.74999999999986
 33
0.0
 14
202.49999999999994
 24
93.74999999999986
 34
0.0
 50
0.0
100
AcDbRotatedDimension
  0
DIMENSION
  5
225
330
17
100
AcDbEntity
  8
1
100
AcDbDimension
  2
*D4
  3
GEN004
 10
178.37499999999994
 20
244.25000000000003
 30
0.0
 11
180.87499999999994
 21
248.75000000000003
 31
0.0
 70
32
 71
5
  1
<>
100
AcDbAlignedDimension
 13
178.37499999999994
 23
225.49999999999986
 33
0.0
 14
183.37499999999994
 24
225.49999999999986
 34
0.0
 50
0.0
100
AcDbRotatedDimension
  0
DIMENSION
  5
235
330
17
100
AcDbEntity
  8
1
100
AcDbDimension
  2
*D5
  3
GEN005
 10
162.24999999999994
 20
252.25000000000003
 30
0.0
 11
180.87499999999994
 21
254.75000000000003
 31
0.0
 70
32
 71
5
  1
<>
100
AcDbAlignedDimension
 13
162.24999999999994
 23
218.62499999999986
 33
0.0
 14
199.49999999999994
 24
218.62499999999986
 34
0.0
 50
0.0
100
AcDbRotatedDimension
  0
DIMENSION
  5
245
330
17
100
AcDbEntity
  8
1
100
AcDbDimension
  2
*D6
  3
GEN006
 10
161.62499999999994
 20
260.25
 30
0.0
 11
180.87499999999994
 21
262.75
 31
0.0
 70
32
 71
5
  1
<>
100
AcDbAlignedDimension
 13
161.62499999999994
 23
223.49999999999986
 33
0.0
 14
200.12499999999994
 24
223.49999999999986
 34
0.0
 50
0.0
100
AcDbRotatedDimension
  0
DIMENSION
  5
255
330
17
100
AcDbEntity
  8
1
100
AcDbDimension
  2
*D7
  3
GEN007
 10
160.49999999999994
 20
268.25
 30
0.0
 11
180.87499999999994
 21
270.75
 31
0.0
 70
32
 71
5
  1
<>
100
AcDbAlignedDimension
 13
160.49999999999994
 23
223.49999999999986
 33
0.0
 14
201.24999999999994
 24
223.49999999999986
 34
0.0
 50
0.0
100
AcDbRotatedDimension
  0
DIMENSION
  5
265
330
17
100
AcDbEntity
  8
1
100
AcDbDimension
  2
*D8
  3
GEN008
 10
143.24999999999315
 20
93.74999999999986
 30
0.0
 11
138.74999999999315
 21
95.62499999999986
 31
0.0
 70
32
 71
5
  1
<>
100
AcDbAlignedDimension
 13
159.24999999999994
 23
93.74999999999986
 33
0.0
 14
162.99999999999994
 24
97.49999999999986
 34
0.0
 50
90.0
100
AcDbRotatedDimension
  0
DIMENSION
  5
275
330
17
100
AcDbEntity
  8
1
100
AcDbDimension
  2
*D9
  3
GEN009
 10
143.24999999999315
 20
97.49999999999986
 30
0.0
 11
140.74999999999315
 21
101.87499999999986
 31
0.0
 70
32
 71
5
  1
<>
100
AcDbAlignedDimension
 13
162.99999999999994
 23
97.49999999999986
 33
0.0
 14
171.74999999999994
 24
106.24999999999986
 34
0.0
 50
90.0
100
AcDbRotatedDimension
  0
DIMENSION
  5
285
330
17
100
AcDbEntity
  8
1
100
AcDbDimension
  2
*D10
  3
GEN010
 10
143.24999999999315
 20
106.24999999999986
 30
0.0
 11
140.74999999999315
 21
111.87499999999986
 31
0.0
 70
32
 71
5
  1
<>
100
AcDbAlignedDimension
 13
171.74999999999994
 23
106.24999999999986
 33
0.0
 14
162.99999999999994
 24
117.49999999999986
 34
0.0
 50
90.0
100
AcDbRotatedDimension
  0
DIMENSION
  5
295
330
17
100
AcDbEntity
  8
1
100
AcDbDimension
  2
*D11
  3
GEN011
 10
143.24999999999315
 20
117.49999999999986
 30
0.0
 11
140.74999999999315
 21
127.49999999999986
 31
0.0
 70
32
 71
5
  1
<>
100
AcDbAlignedDimension
 13
162.99999999999994
 23
117.49999999999986
 33
0.0
 14
162.99999999999994
 24
137.49999999999986
 34
0.0
 50
90.0
100
AcDbRotatedDimension
  0
DIMENSION
  5
2A5
330
17
100
AcDbEntity
  8
1
100
AcDbDimension
  2
*D12
  3
GEN012
 10
143.24999999999315
 20
137.49999999999986
 30
0.0
 11
140.74999999999315
 21
143.12499999999986
 31
0.0
 70
32
 71
5
  1
<>
100
AcDbAlignedDimension
 13
162.99999999999994
 23
137.49999999999986
 33
0.0
 14
171.74999999999994
 24
148.74999999999986
 34
0.0
 50
90.0
100
AcDbRotatedDimension
  0
DIMENSION
  5
2B5
330
17
100
AcDbEntity
  8
1
100
AcDbDimension
  2
*D13
  3
GEN013
 10
276.75
 20
93.74999999999986
 30
0.0
 11
274.25
 21
124.87499999999986
 31
0.0
 70
32
 71
5
  1
<>
100
AcDbAlignedDimension
 13
260.75
 23
93.74999999999986
 33
0.0
 14
228.25
 24
155.99999999999986
 34
0.0
 50
90.0
100
AcDbRotatedDimension
  0
DIMENSION
  5
2C5
330
17
100
AcDbEntity
  8
1
100
AcDbDimension
  2
*D14
  3
GEN014
 10
284.75
 20
166.74999999999986
 30
0.0
 11
280.25
 21
168.37499999999986
 31
0.0
 70
32
 71
5
  1
<>
100
AcDbAlignedDimension
 13
217.5
 23
166.74999999999986
 33
0.0
 14
217.5
 24
169.99999999999986
 34
0.0
 50
90.0
100
AcDbRotatedDimension
  0
DIMENSION
  5
2D5
330
17
100
AcDbEntity
  8
1
100
AcDbDimension
  2
*D15
  3
GEN015
 10
292.75
 20
93.74999999999986
 30
0.0
 11
290.25
 21
131.87499999999986
 31
0.0
 70
32
 71
5
  1
<>
100
AcDbAlignedDimension
 13
260.75
 23
93.74999999999986
 33
0.0
 14
260.75
 24
169.99999999999986
 34
0.0
 50
90.0
100
AcDbRotatedDimension
  0
DIMENSION
  5
2E5
330
17
100
AcDbEntity
  8
1
100
AcDbDimension
  2
*D16
  3
GEN016
 10
260.75
 20
77.75000000001015
 30
0.0
 11
258.75
 21
73.25000000001015
 31
0.0
 70
32
 71
5
  1
<>
100
AcDbAlignedDimension
 13
260.75
 23
93.74999999999986
 33
0.0
 14
256.75
 24
93.74999999999986
 34
0.0
 50
0.0
100
AcDbRotatedDimension
  0
DIMENSION
  5
2F5
330
17
100
AcDbEntity
  8
1
100
AcDbDimension
  2
*D17
  3
GEN017
 10
260.75
 20
69.75000000001015
 30
0.0
 11
239.125
 21
67.25000000001015
 31
0.0
 70
32
 71
5
  1
<>
100
AcDbAlignedDimension
 13
260.75
 23
169.99999999999986
 33
0.0
 14
217.5
 24
169.99999999999986
 34
0.0
 50
0.0
100
AcDbRotatedDimension
  0
DIMENSION
  5
305
330
17
100
AcDbEntity
  8
1
100
AcDbDimension
  2
*D18
  3
GEN018
 10
256.75
 20
77.75000000001015
 30
0.0
 11
242.5
 21
75.25000000001015
 31
0.0
 70
32
 71
5
  1
<>
100
AcDbAlignedDimension
 13
256.75
 23
144.99999999999986
 33
0.0
 14
228.25
 24
144.99999999999986
 34
0.0
 50
0.0
100
AcDbRotatedDimension
  0
DIMENSION
  5
315
330
17
100
AcDbEntity
  8
1
100
AcDbDimension
  2
*D19
  3
GEN019
 10
256.75
 20
186.00000000001015
 30
0.0
 11
256.375
 21
181.50000000001015
 31
0.0
 70
32
 71
5
  1
<>
100
AcDbAlignedDimension
 13
256.75
 23
144.99999999999986
 33
0.0
 14
256.0
 24
144.99999999999986
 34
0.0
 50
0.0
100
AcDbRotatedDimension
  0
DIMENSION
  5
325
330
17
100
AcDbEntity
  8
1
100
AcDbDimension
  2
*D20
  3
GEN020
 10
143.24999999999315
 20
225.49999999999986
 30
0.0
 11
147.74999999999315
 21
224.87499999999986
 31
0.0
 70
32
 71
5
  1
<>
100
AcDbAlignedDimension
 13
178.37499999999994
 23
225.49999999999986
 33
0.0
 14
159.24999999999994
 24
224.24999999999986
 34
0.0
 50
90.0
100
AcDbRotatedDimension
  0
DIMENSION
  5
335
330
17
100
AcDbEntity
  8
1
100
AcDbDimension
  2
*D21
  3
GEN021
 10
143.24999999999315
 20
218.62499999999986
 30
0.0
 11
138.74999999999315
 21
221.43749999999986
 31
0.0
 70
32
 71
5
  1
<>
100
AcDbAlignedDimension
 13
162.24999999999994
 23
218.62499999999986
 33
0.0
 14
159.24999999999994
 24
224.24999999999986
 34
0.0
 50
90.0
100
AcDbRotatedDimension
  0
DIMENSION
  5
345
330
17
100
AcDbEntity
  8
1
100
AcDbDimension
  2
*D22
  3
GEN022
 10
135.24999999999315
 20
204.2499999999999
 30
0.0
 11
132.74999999999315
 21
214.2499999999999
 31
0.0
 70
32
 71
5
  1
<>
100
AcDbAlignedDimension
 13
180.87499999999994
 23
204.2499999999999
 33
0.0
 14
159.24999999999994
 24
224.24999999999986
 34
0.0
 50
90.0
100
AcDbRotatedDimension
  0
DIMENSION
  5
355
330
17
100
AcDbEntity
  8
1
100
AcDbDimension
  2
*D23
  3
GEN023
 10
143.24999999999315
 20
218.62499999999986
 30
0.0
 11
145.74999999999315
 21
204.2499999999999
 31
0.0
 70
32
 71
5
  1
<>
100
AcDbAlignedDimension
 13
162.24999999999994
 23
218.62499999999986
 33
0.0
 14
162.24999999999994
 24
189.8749999999999
 34
0.0
 50
90.0
100
AcDbRotatedDimension
  0
DIMENSION
  5
365
330
17
100
AcDbEntity
  8
1
100
AcDbDimension
  2
*D24
  3
GEN024
 10
192.10032015133638
 20
215.47532015133632
 30
0.0
 11
157.98241795908547
 21
184.89295186501818
 31
0.0
 70
35
 71
5
  1
<>
100
AcDbDiametricDimension
 15
169.6496798486635
 25
193.02467984866345
 35
0.0
  0
DIMENSION
  5
373
330
17
100
AcDbEntity
  8
1
100
AcDbDimension
  2
*D25
  3
GEN025
 10
171.74999999999994
 20
106.24999999999986
 30
0.0
 11
161.67372836809164
 21
99.7092622740243
 31
0.0
 70
36
 71
5
  1
<>
100
AcDbRadialDimension
 15
169.0983495705504
 25
103.59834957055031
 35
0.0
  0
LEADER
  5
37F
330
17
100
AcDbEntity
  8
1
100
AcDbLeader
  3
GENLDR
 73
3
 76
3
 10
200.12499999999994
 20
137.49999999999986
 30
0.0
 10
279.99999999999994
 20
59.99999999999986
 30
0.0
 10
299.99999999999994
 20
59.99999999999986
 30
0.0
  0
MTEXT
  5
380
330
17
100
AcDbEntity
  8
1
100
AcDbMText
 10
301.99999999999994
 20
59.99999999999986
 30
0.0
 40
4.0
 71
7
  1
\A1;ÇSÅ|%%cÇPÇP
  7
VF003
  0
LEADER
  5
381
330
17
100
AcDbEntity
  8
1
100
AcDbLeader
  3
GENLDR
 73
3
 76
3
 10
200.12499999999994
 20
117.49999999999986
 30
0.0
 10
279.99999999999994
 20
44.99999999999986
 30
0.0
 10
299.99999999999994
 20
44.99999999999986
 30
0.0
  0
MTEXT
  5
382
330
17
100
AcDbEntity
  8
1
100
AcDbMText
 10
301.99999999999994
 20
44.99999999999986
 30
0.0
 40
4.0
 71
7
  1
\A1;ÇQÅ|%%cÇPÇO
  7
VF003
  0
LEADER
  5
383
330
17
100
AcDbEntity
  8
1
100
AcDbLeader
  3
GENLDR
 73
3
 76
3
 10
194.49999999999994
 20
152.49999999999986
 30
0.0
 10
279.99999999999994
 20
174.99999999999986
 30
0.0
 10
299.99999999999994
 20
174.99999999999986
 30
0.0
  0
MTEXT
  5
384
330
17
100
AcDbEntity
  8
1
100
AcDbMText
 10
301.99999999999994
 20
174.99999999999986
 30
0.0
 40
4.0
 71
7
  1
\A1;ÇSÅ|%%cÇU
  7
VF003
  0
LEADER
  5
385
330
17
100
AcDbEntity
  8
1
100
AcDbLeader
  3
GENLDR
 73
3
 76
3
 10
200.74999999999994
 20
218.62499999999986
 30
0.0
 10
279.99999999999994
 20
199.9999999999999
 30
0.0
 10
299.99999999999994
 20
199.9999999999999
 30
0.0
  0
MTEXT
  5
386
330
17
100
AcDbEntity
  8
1
100
AcDbMText
 10
301.99999999999994
 20
199.9999999999999
 30
0.0
 40
4.0
 71
7
  1
\A1;ÇSÅ|%%cÇPÇO
  7
VF003
  0
LEADER
  5
387
330
17
100
AcDbEntity
  8
1
100
AcDbLeader
  3
GENLDR
 73
3
 76
3
 10
184.12499999999994
 20
225.49999999999986
 30
0.0
 10
279.99999999999994
 20
249.9999999999999
 30
0.0
 10
299.99999999999994
 20
249.9999999999999
 30
0.0
  0
MTEXT
  5
388
330
17
100
AcDbEntity
  8
1
100
AcDbMText
 10
301.99999999999994
 20
249.9999999999999
 30
0.0
 40
4.0
 71
7
  1
\A1;ÇQÅ|%%cÇUê[Ç≥ÇPÇQ
  7
VF003
  0
ENDSEC
  0
SECTION
  2
OBJECTS
  0
DICTIONARY
  5
A
330
0
100
AcDbDictionary
281
1
  3
ACAD_COLOR
350
B
  3
ACAD_GROUP
350
C
  3
ACAD_LAYOUT
350
D
  3
ACAD_MATERIAL
350
E
  3
ACAD_MLEADERSTYLE
350
F
  3
ACAD_MLINESTYLE
350
10
  3
ACAD_PLOTSETTINGS
350
11
  3
ACAD_PLOTSTYLENAME
350
12
  3
ACAD_SCALELIST
350
14
  3
ACAD_TABLESTYLE
350
15
  3
ACAD_VISUALSTYLE
350
16
  3
EZDXF_META
350
2D
  0
DICTIONARY
  5
B
330
A
100
AcDbDictionary
281
1
  0
DICTIONARY
  5
C
330
A
100
AcDbDictionary
281
1
  0
DICTIONARY
  5
D
330
A
100
AcDbDictionary
281
1
  3
Model
350
1A
  3
Layout1
350
1E
  0
DICTIONARY
  5
E
330
A
100
AcDbDictionary
281
1
  3
ByBlock
350
1F
  3
ByLayer
350
20
  3
Global
350
21
  0
DICTIONARY
  5
F
330
A
100
AcDbDictionary
281
1
  3
Standard
350
2C
  0
DICTIONARY
  5
10
330
A
100
AcDbDictionary
281
1
  3
Standard
350
22
  0
DICTIONARY
  5
11
330
A
100
AcDbDictionary
281
1
  0
ACDBDICTIONARYWDFLT
  5
12
330
A
100
AcDbDictionary
281
1
  3
Normal
350
13
100
AcDbDictionaryWithDefault
340
13
  0
ACDBPLACEHOLDER
  5
13
330
12
  0
DICTIONARY
  5
14
330
A
100
AcDbDictionary
281
1
  0
DICTIONARY
  5
15
330
A
100
AcDbDictionary
281
1
  0
DICTIONARY
  5
16
330
A
100
AcDbDictionary
281
1
  0
LAYOUT
  5
1A
330
D
100
AcDbPlotSettings
  1

  4
A3
  6

 40
7.5
 41
20.0
 42
7.5
 43
20.0
 44
420.0
 45
297.0
 46
0.0
 47
0.0
 48
0.0
 49
0.0
140
0.0
141
0.0
142
1.0
143
1.0
 70
1024
 72
1
 73
0
 74
5
  7

 75
16
 76
0
 77
2
 78
300
147
1.0
148
0.0
149
0.0
100
AcDbLayout
  1
Model
 70
1
 71
0
 10
0.0
 20
0.0
 11
420.0
 21
297.0
 12
0.0
 22
0.0
 32
0.0
 14
1e+20
 24
1e+20
 34
1e+20
 15
-1e+20
 25
-1e+20
 35
-1e+20
146
0.0
 13
0.0
 23
0.0
 33
0.0
 16
1.0
 26
0.0
 36
0.0
 17
0.0
 27
1.0
 37
0.0
 76
1
330
17
  0
LAYOUT
  5
1E
330
D
100
AcDbPlotSettings
  1

  4
A3
  6

 40
7.5
 41
20.0
 42
7.5
 43
20.0
 44
420.0
 45
297.0
 46
0.0
 47
0.0
 48
0.0
 49
0.0
140
0.0
141
0.0
142
1.0
143
1.0
 70
0
 72
1
 73
0
 74
5
  7

 75
16
 76
0
 77
2
 78
300
147
1.0
148
0.0
149
0.0
100
AcDbLayout
  1
Layout1
 70
1
 71
1
 10
0.0
 20
0.0
 11
420.0
 21
297.0
 12
0.0
 22
0.0
 32
0.0
 14
1e+20
 24
1e+20
 34
1e+20
 15
-1e+20
 25
-1e+20
 35
-1e+20
146
0.0
 13
0.0
 23
0.0
 33
0.0
 16
1.0
 26
0.0
 36
0.0
 17
0.0
 27
1.0
 37
0.0
 76
1
330
1B
  0
MATERIAL
  5
1F
102
{ACAD_REACTORS
330
E
102
}
330
E
100
AcDbMaterial
  1
ByBlock
  2

 70
0
 40
1.0
 71
1
 41
1.0
 91
-1023410177
 42
1.0
 72
1
  3

 73
1
 74
1
 75
1
 44
0.5
 73
0
 45
1.0
 46
1.0
 77
1
  4

 78
1
 79
1
170
1
 48
1.0
171
1
  6

172
1
173
1
174
1
140
1.0
141
1.0
175
1
  7

176
1
177
1
178
1
143
1.0
179
1
  8

270
1
271
1
272
1
145
1.0
146
1.0
273
1
  9

274
1
275
1
276
1
 42
1.0
 72
1
  3

 73
1
 74
1
 75
1
 94
63
  0
MATERIAL
  5
20
102
{ACAD_REACTORS
330
E
102
}
330
E
100
AcDbMaterial
  1
ByLayer
  2

 70
0
 40
1.0
 71
1
 41
1.0
 91
-1023410177
 42
1.0
 72
1
  3

 73
1
 74
1
 75
1
 44
0.5
 73
0
 45
1.0
 46
1.0
 77
1
  4

 78
1
 79
1
170
1
 48
1.0
171
1
  6

172
1
173
1
174
1
140
1.0
141
1.0
175
1
  7

176
1
177
1
178
1
143
1.0
179
1
  8

270
1
271
1
272
1
145
1.0
146
1.0
273
1
  9

274
1
275
1
276
1
 42
1.0
 72
1
  3

 73
1
 74
1
 75
1
 94
63
  0
MATERIAL
  5
21
102
{ACAD_REACTORS
330
E
102
}
330
E
100
AcDbMaterial
  1
Global
  2

 70
0
 40
1.0
 71
1
 41
1.0
 91
-1023410177
 42
1.0
 72
1
  3

 73
1
 74
1
 75
1
 44
0.5
 73
0
 45
1.0
 46
1.0
 77
1
  4

 78
1
 79
1
170
1
 48
1.0
171
1
  6

172
1
173
1
174
1
140
1.0
141
1.0
175
1
  7

176
1
177
1
178
1
143
1.0
179
1
  8

270
1
271
1
272
1
145
1.0
146
1.0
273
1
  9

274
1
275
1
276
1
 42
1.0
 72
1
  3

 73
1
 74
1
 75
1
 94
63
  0
MLINESTYLE
  5
22
102
{ACAD_REACTORS
330
10
102
}
330
10
100
AcDbMlineStyle
  2
Standard
 70
0
  3

 62
256
 51
90.0
 52
90.0
 71
2
 49
0.5
 62
256
  6
BYLAYER
 49
-0.5
 62
256
  6
BYLAYER
  0
MLEADERSTYLE
  5
2C
102
{ACAD_REACTORS
330
F
102
}
330
F
100
AcDbMLeaderStyle
179
2
170
2
171
1
172
0
 90
2
 40
0.0
 41
0.0
173
1
 91
-1056964608
 92
-2
290
1
 42
2.0
291
1
 43
8.0
  3
Standard
 44
4.0
300

342
29
174
1
175
1
176
0
178
1
 93
-1056964608
 45
4.0
292
0
297
0
 46
4.0
 94
-1056964608
 47
1.0
 49
1.0
140
1.0
294
1
141
0.0
177
0
142
1.0
295
0
296
0
143
3.75
271
0
272
9
273
9
  0
DICTIONARY
  5
2D
330
A
100
AcDbDictionary
280
1
281
1
  3
CREATED_BY_EZDXF
350
2E
  3
WRITTEN_BY_EZDXF
350
131
  0
DICTIONARYVAR
  5
2E
330
2D
100
DictionaryVariables
280
0
  1
1.4.4 @ 2026-08-09T08:45:52.074753+00:00
  0
DICTIONARYVAR
  5
131
330
2D
100
DictionaryVariables
280
0
  1
1.4.4 @ 2026-08-10T21:06:07.174062+00:00
  0
ENDSEC
  0
EOF
