  0
SECTION
  2
HEADER
  9
$ACADVER
  1
AC1015
  9
$ACADMAINTVER
 70
     6
  9
$DWGCODEPAGE
  3
DOS932
  9
$INSBASE
 10
0.0
 20
0.0
 30
0.0
  9
$EXTMIN
 10
0.0
 20
0.0
 30
0.0
  9
$EXTMAX
 10
841.0
 20
594.0
 30
0.0
  9
$LIMMIN
 10
0.0
 20
0.0
  9
$LIMMAX
 10
841.0
 20
594.0
  9
$ORTHOMODE
 70
     0
  9
$REGENMODE
 70
     1
  9
$FILLMODE
 70
     1
  9
$QTEXTMODE
 70
     0
  9
$MIRRTEXT
 70
     1
  9
$LTSCALE
 40
1.0
  9
$ATTMODE
 70
     1
  9
$TEXTSIZE
 40
3.5
  9
$TRACEWID
 40
1.0
  9
$TEXTSTYLE
  7
Standard
  9
$CLAYER
  8
0
  9
$CELTYPE
  6
ByLayer
  9
$CECOLOR
 62
   256
  9
$CELTSCALE
 40
1.0
  9
$DISPSILH
 70
     0
  9
$DIMSCALE
 40
1.0
  9
$DIMASZ
 40
3.302
  9
$DIMEXO
 40
1.0
  9
$DIMDLI
 40
3.75
  9
$DIMRND
 40
0.0
  9
$DIMDLE
 40
0.0
  9
$DIMEXE
 40
1.0
  9
$DIMTP
 40
0.0
  9
$DIMTM
 40
0.0
  9
$DIMTXT
 40
3.5
  9
$DIMCEN
 40
2.5
  9
$DIMTSZ
 40
0.0
  9
$DIMTOL
 70
     0
  9
$DIMLIM
 70
     0
  9
$DIMTIH
 70
     1
  9
$DIMTOH
 70
     1
  9
$DIMSE1
 70
     0
  9
$DIMSE2
 70
     0
  9
$DIMTAD
 70
     1
  9
$DIMZIN
 70
     1
  9
$DIMBLK
  1

  9
$DIMASO
 70
     1
  9
$DIMSHO
 70
     1
  9
$DIMPOST
  1

  9
$DIMAPOST
  1

  9
$DIMALT
 70
     0
  9
$DIMALTD
 70
     3
  9
$DIMALTF
 40
0.0393700787
  9
$DIMLFAC
 40
0.5
  9
$DIMTOFL
 70
     1
  9
$DIMTVP
 40
0.0
  9
$DIMTIX
 70
     0
  9
$DIMSOXD
 70
     0
  9
$DIMSAH
 70
     0
  9
$DIMBLK1
  1

  9
$DIMBLK2
  1

  9
$DIMSTYLE
  2
ISO-25
  9
$DIMCLRD
 70
     0
  9
$DIMCLRE
 70
     0
  9
$DIMCLRT
 70
     0
  9
$DIMTFAC
 40
1.0
  9
$DIMGAP
 40
1.524
  9
$DIMJUST
 70
     0
  9
$DIMSD1
 70
     0
  9
$DIMSD2
 70
     0
  9
$DIMTOLJ
 70
     0
  9
$DIMTZIN
 70
     1
  9
$DIMALTZ
 70
     0
  9
$DIMALTTZ
 70
     0
  9
$DIMUPT
 70
     0
  9
$DIMDEC
 70
     2
  9
$DIMTDEC
 70
     2
  9
$DIMALTU
 70
     2
  9
$DIMALTTD
 70
     3
  9
$DIMTXSTY
  7
Standard
  9
$DIMAUNIT
 70
     0
  9
$DIMADEC
 70
     2
  9
$DIMALTRND
 40
0.0
  9
$DIMAZIN
 70
     0
  9
$DIMDSEP
 70
    44
  9
$DIMATFIT
 70
     3
  9
$DIMFRAC
 70
     0
  9
$DIMLDRBLK
  1

  9
$DIMLUNIT
 70
     2
  9
$DIMLWD
 70
    -2
  9
$DIMLWE
 70
    -2
  9
$DIMTMOVE
 70
     0
  9
$LUNITS
 70
     2
  9
$LUPREC
 70
     2
  9
$SKETCHINC
 40
1.0
  9
$FILLETRAD
 40
0.0
  9
$AUNITS
 70
     0
  9
$AUPREC
 70
     2
  9
$MENU
  1
.
  9
$ELEVATION
 40
0.0
  9
$PELEVATION
 40
0.0
  9
$THICKNESS
 40
0.0
  9
$LIMCHECK
 70
     0
  9
$CHAMFERA
 40
0.0
  9
$CHAMFERB
 40
0.0
  9
$CHAMFERC
 40
0.0
  9
$CHAMFERD
 40
0.0
  9
$SKPOLY
 70
     0
  9
$TDCREATE
 40
2461263.417790556
  9
$TDUCREATE
 40
2461263.042790556
  9
$TDUPDATE
 40
2461263.417791111
  9
$TDUUPDATE
 40
2461263.042791111
  9
$TDINDWG
 40
0.0000000116
  9
$TDUSRTIMER
 40
0.0000000116
  9
$USRTIMER
 70
     1
  9
$ANGBASE
 50
0.0
  9
$ANGDIR
 70
     0
  9
$PDMODE
 70
     0
  9
$PDSIZE
 40
-1.0
  9
$PLINEWID
 40
0.0
  9
$SPLFRAME
 70
     0
  9
$SPLINETYPE
 70
     6
  9
$SPLINESEGS
 70
     8
  9
$HANDSEED
  5
D6
  9
$SURFTAB1
 70
     6
  9
$SURFTAB2
 70
     6
  9
$SURFTYPE
 70
     6
  9
$SURFU
 70
     6
  9
$SURFV
 70
     6
  9
$UCSBASE
  2

  9
$UCSNAME
  2

  9
$UCSORG
 10
0.0
 20
0.0
 30
0.0
  9
$UCSXDIR
 10
1.0
 20
0.0
 30
0.0
  9
$UCSYDIR
 10
0.0
 20
1.0
 30
0.0
  9
$UCSORTHOREF
  2

  9
$UCSORTHOVIEW
 70
     0
  9
$UCSORGTOP
 10
0.0
 20
0.0
 30
0.0
  9
$UCSORGBOTTOM
 10
0.0
 20
0.0
 30
0.0
  9
$UCSORGLEFT
 10
0.0
 20
0.0
 30
0.0
  9
$UCSORGRIGHT
 10
0.0
 20
0.0
 30
0.0
  9
$UCSORGFRONT
 10
0.0
 20
0.0
 30
0.0
  9
$UCSORGBACK
 10
0.0
 20
0.0
 30
0.0
  9
$PUCSBASE
  2

  9
$PUCSNAME
  2

  9
$PUCSORG
 10
0.0
 20
0.0
 30
0.0
  9
$PUCSXDIR
 10
1.0
 20
0.0
 30
0.0
  9
$PUCSYDIR
 10
0.0
 20
1.0
 30
0.0
  9
$PUCSORTHOREF
  2

  9
$PUCSORTHOVIEW
 70
     0
  9
$PUCSORGTOP
 10
0.0
 20
0.0
 30
0.0
  9
$PUCSORGBOTTOM
 10
0.0
 20
0.0
 30
0.0
  9
$PUCSORGLEFT
 10
0.0
 20
0.0
 30
0.0
  9
$PUCSORGRIGHT
 10
0.0
 20
0.0
 30
0.0
  9
$PUCSORGFRONT
 10
0.0
 20
0.0
 30
0.0
  9
$PUCSORGBACK
 10
0.0
 20
0.0
 30
0.0
  9
$USERI1
 70
     0
  9
$USERI2
 70
     0
  9
$USERI3
 70
     0
  9
$USERI4
 70
     0
  9
$USERI5
 70
     0
  9
$USERR1
 40
0.0
  9
$USERR2
 40
0.0
  9
$USERR3
 40
0.0
  9
$USERR4
 40
0.0
  9
$USERR5
 40
0.0
  9
$WORLDVIEW
 70
     1
  9
$SHADEDGE
 70
     3
  9
$SHADEDIF
 70
    70
  9
$TILEMODE
 70
     1
  9
$MAXACTVP
 70
    64
  9
$PINSBASE
 10
0.0
 20
0.0
 30
0.0
  9
$PLIMCHECK
 70
     0
  9
$PEXTMIN
 10
1.0000000000E+20
 20
1.0000000000E+20
 30
1.0000000000E+20
  9
$PEXTMAX
 10
-1.0000000000E+20
 20
-1.0000000000E+20
 30
-1.0000000000E+20
  9
$PLIMMIN
 10
0.0
 20
0.0
  9
$PLIMMAX
 10
420.0
 20
297.0
  9
$UNITMODE
 70
     0
  9
$VISRETAIN
 70
     1
  9
$PLINEGEN
 70
     0
  9
$PSLTSCALE
 70
     1
  9
$TREEDEPTH
 70
  3020
  9
$CMLSTYLE
  2
Standard
  9
$CMLJUST
 70
     0
  9
$CMLSCALE
 40
20.0
  9
$PROXYGRAPHICS
 70
     1
  9
$MEASUREMENT
 70
     1
  9
$CELWEIGHT
370
    -1
  9
$ENDCAPS
280
     0
  9
$JOINSTYLE
280
     0
  9
$LWDISPLAY
290
     1
  9
$INSUNITS
 70
     4
  9
$HYPERLINKBASE
  1

  9
$STYLESHEET
  1

  9
$XEDIT
290
     1
  9
$CEPSNTYPE
380
     0
  9
$PSTYLEMODE
290
     1
  9
$FINGERPRINTGUID
  2
{acde9396-ff94-423f-ac7b-e7de3716a5a6}
  9
$VERSIONGUID
  2
{FAEB1C32-E019-11D5-929B-00C0DF256EC4}
  9
$EXTNAMES
290
     1
  9
$PSVPSCALE
 40
0.0
  9
$OLESTARTUP
290
     0
  0
ENDSEC
  0
SECTION
  2
CLASSES
  0
CLASS
  1
ACDBDICTIONARYWDFLT
  2
AcDbDictionaryWithDefault
  3
ObjectDBX Classes
 90
        0
280
     0
281
     0
  0
CLASS
  1
VISUALSTYLE
  2
AcDbVisualStyle
  3
ObjectDBX Classes
 90
     4095
280
     0
281
     0
  0
CLASS
  1
MATERIAL
  2
AcDbMaterial
  3
ObjectDBX Classes
 90
     1153
280
     0
281
     0
  0
CLASS
  1
SCALE
  2
AcDbScale
  3
ObjectDBX Classes
 90
     1153
280
     0
281
     0
  0
CLASS
  1
TABLESTYLE
  2
AcDbTableStyle
  3
ObjectDBX Classes
 90
     4095
280
     0
281
     0
  0
CLASS
  1
MLEADERSTYLE
  2
AcDbMLeaderStyle
  3
ACDB_MLEADERSTYLE_CLASS
 90
     4095
280
     0
281
     0
  0
CLASS
  1
SUN
  2
AcDbSun
  3
SCENEOE
 90
     1153
280
     0
281
     0
  0
CLASS
  1
ACDBPLACEHOLDER
  2
AcDbPlaceHolder
  3
ObjectDBX Classes
 90
        0
280
     0
281
     0
  0
CLASS
  1
LAYOUT
  2
AcDbLayout
  3
ObjectDBX Classes
 90
        0
280
     0
281
     0
  0
ENDSEC
  0
SECTION
  2
TABLES
  0
TABLE
  2
VPORT
  5
8
330
0
100
AcDbSymbolTable
 70
     1
  0
VPORT
  5
29
330
8
100
AcDbSymbolTableRecord
100
AcDbViewportTableRecord
  2
*Active
 70
     0
 10
0.0
 20
0.0
 11
1.0
 21
1.0
 12
420.5
 22
297.0
 13
0.0
 23
0.0
 14
10.0
 24
10.0
 15
10.0
 25
10.0
 16
0.0
 26
0.0
 36
1.0
 17
0.0
 27
0.0
 37
0.0
 40
594.0
 41
1.4158249158
 42
50.0
 43
0.0
 44
0.0
 50
0.0
 51
0.0
 71
     0
 72
  2000
 73
     1
 74
     3
 75
     0
 76
     0
 77
     0
 78
     0
281
     0
 65
     1
110
0.0
120
0.0
130
0.0
111
1.0
121
0.0
131
0.0
112
0.0
122
1.0
132
0.0
 79
     0
146
0.0
  0
ENDTAB
  0
TABLE
  2
LTYPE
  5
5
330
0
100
AcDbSymbolTable
 70
     6
  0
LTYPE
  5
14
330
5
100
AcDbSymbolTableRecord
100
AcDbLinetypeTableRecord
  2
ByBlock
 70
     0
  3

 72
    65
 73
     0
 40
0.0
  0
LTYPE
  5
15
330
5
100
AcDbSymbolTableRecord
100
AcDbLinetypeTableRecord
  2
ByLayer
 70
     0
  3

 72
    65
 73
     0
 40
0.0
  0
LTYPE
  5
16
330
5
100
AcDbSymbolTableRecord
100
AcDbLinetypeTableRecord
  2
Continuous
 70
     0
  3
Solid line
 72
    65
 73
     0
 40
0.0
  0
LTYPE
  5
5E
330
5
100
AcDbSymbolTableRecord
100
AcDbLinetypeTableRecord
  2
HIDDEN
 70
     0
  3
Hidden __ __ __ __ __ __ __ __ __ __ __ __ __ __
 72
    65
 73
     2
 40
1.905
 49
1.27
 74
     0
 49
-0.635
 74
     0
  0
LTYPE
  5
5F
330
5
100
AcDbSymbolTableRecord
100
AcDbLinetypeTableRecord
  2
PHANTOM
 70
     0
  3
Phantom ______  __  __  ______  __  __  ______
 72
    65
 73
     6
 40
12.7
 49
6.35
 74
     0
 49
-1.27
 74
     0
 49
1.27
 74
     0
 49
-1.27
 74
     0
 49
1.27
 74
     0
 49
-1.27
 74
     0
  0
LTYPE
  5
60
330
5
100
AcDbSymbolTableRecord
100
AcDbLinetypeTableRecord
  2
CENTER
 70
     0
  3
Center ____ _ ____ _ ____ _ ____ _ ____ _ ____
 72
    65
 73
     4
 40
10.16
 49
6.35
 74
     0
 49
-1.27
 74
     0
 49
1.27
 74
     0
 49
-1.27
 74
     0
  0
LTYPE
  5
61
330
5
100
AcDbSymbolTableRecord
100
AcDbLinetypeTableRecord
  2
CENTERX2
 70
     0
  3
Center (2x) ________  __  ________  __  _____
 72
    65
 73
     4
 40
20.32
 49
12.7
 74
     0
 49
-2.54
 74
     0
 49
2.54
 74
     0
 49
-2.54
 74
     0
  0
LTYPE
  5
62
330
5
100
AcDbSymbolTableRecord
100
AcDbLinetypeTableRecord
  2
DOT2
 70
     0
  3
Dot (.5x) ........................................
 72
    65
 73
     2
 40
0.635
 49
0.0
 74
     0
 49
-0.635
 74
     0
  0
ENDTAB
  0
TABLE
  2
LAYER
  5
2
330
0
100
AcDbSymbolTable
 70
     1
  0
LAYER
  5
10
330
2
100
AcDbSymbolTableRecord
100
AcDbLayerTableRecord
  2
0
 70
     0
 62
     7
  6
Continuous
370
    -3
390
F
  0
ENDTAB
  0
TABLE
  2
STYLE
  5
3
330
0
100
AcDbSymbolTable
 70
     1
  0
STYLE
  5
11
330
3
100
AcDbSymbolTableRecord
100
AcDbTextStyleTableRecord
  2
Standard
 70
     0
 40
0.0
 41
1.0
 50
0.0
 71
     0
 42
3.5
  3
txt
  4
bigfont
  0
ENDTAB
  0
TABLE
  2
VIEW
  5
6
330
0
100
AcDbSymbolTable
 70
     0
  0
ENDTAB
  0
TABLE
  2
UCS
  5
7
330
0
100
AcDbSymbolTable
 70
     0
  0
ENDTAB
  0
TABLE
  2
APPID
  5
9
330
0
100
AcDbSymbolTable
 70
     1
  0
APPID
  5
12
330
9
100
AcDbSymbolTableRecord
100
AcDbRegAppTableRecord
  2
ACAD
 70
     0
  0
ENDTAB
  0
TABLE
  2
DIMSTYLE
  5
A
330
0
100
AcDbSymbolTable
 70
     1
100
AcDbDimStyleTable
  0
DIMSTYLE
105
27
330
A
100
AcDbSymbolTableRecord
100
AcDbDimStyleTableRecord
  2
ISO-25
 70
     0
 41
2.5
 42
0.625
 43
3.75
 44
1.25
 73
     0
 74
     0
 77
     1
 78
     8
140
2.5
141
2.5
143
0.0393700787
147
0.625
171
     3
172
     1
178
     0
271
     2
272
     2
274
     3
278
    44
283
     0
284
     8
340
11
  0
ENDTAB
  0
TABLE
  2
BLOCK_RECORD
  5
1
330
0
100
AcDbSymbolTable
 70
     1
  0
BLOCK_RECORD
  5
1F
330
1
100
AcDbSymbolTableRecord
100
AcDbBlockTableRecord
  2
*Model_Space
340
22
  0
BLOCK_RECORD
  5
1B
330
1
100
AcDbSymbolTableRecord
100
AcDbBlockTableRecord
  2
*Paper_Space
340
1E
  0
BLOCK_RECORD
  5
23
330
1
100
AcDbSymbolTableRecord
100
AcDbBlockTableRecord
  2
*Paper_Space0
340
26
  0
ENDTAB
  0
ENDSEC
  0
SECTION
  2
BLOCKS
  0
BLOCK
  5
20
330
1F
100
AcDbEntity
  8
0
100
AcDbBlockBegin
  2
*Model_Space
 70
     0
 10
0.0
 20
0.0
 30
0.0
  3
*Model_Space
  1

  0
ENDBLK
  5
21
330
1F
100
AcDbEntity
  8
0
100
AcDbBlockEnd
  0
BLOCK
  5
1C
330
1B
100
AcDbEntity
 67
     1
  8
0
100
AcDbBlockBegin
  2
*Paper_Space
 70
     0
 10
0.0
 20
0.0
 30
0.0
  3
*Paper_Space
  1

  0
ENDBLK
  5
1D
330
1B
100
AcDbEntity
 67
     1
  8
0
100
AcDbBlockEnd
  0
BLOCK
  5
24
330
23
100
AcDbEntity
  8
0
100
AcDbBlockBegin
  2
*Paper_Space0
 70
     0
 10
0.0
 20
0.0
 30
0.0
  3
*Paper_Space0
  1

  0
ENDBLK
  5
25
330
23
100
AcDbEntity
  8
0
100
AcDbBlockEnd
  0
ENDSEC
  0
SECTION
  2
ENTITIES
  0
LINE
  5
63
330
1F
100
AcDbEntity
  8
0
  6
Continuous
 62
     7
370
    25
100
AcDbLine
 10
388.1584690357
 20
250.8159228024
 30
0.0
 11
341.1584690357
 21
250.8159228024
 31
0.0
  0
LINE
  5
64
330
1F
100
AcDbEntity
  8
0
  6
Continuous
 62
     7
370
    25
100
AcDbLine
 10
388.1584690357
 20
248.5159228024
 30
0.0
 11
341.1584690357
 21
248.5159228024
 31
0.0
  0
LINE
  5
65
330
1F
100
AcDbEntity
  8
0
  6
Continuous
 62
     7
370
    25
100
AcDbLine
 10
388.1584690357
 20
250.8159228024
 30
0.0
 11
388.1584690357
 21
248.5159228024
 31
0.0
  0
LINE
  5
66
330
1F
100
AcDbEntity
  8
0
  6
Continuous
 62
     7
370
    25
100
AcDbLine
 10
341.1584690357
 20
250.8159228024
 30
0.0
 11
341.1584690357
 21
248.5159228024
 31
0.0
  0
LINE
  5
67
330
1F
100
AcDbEntity
  8
0
  6
Continuous
 62
     7
370
    25
100
AcDbLine
 10
388.1584690357
 20
213.3812642621
 30
0.0
 11
341.1584690357
 21
213.3812642621
 31
0.0
  0
ARC
  5
68
330
1F
100
AcDbEntity
  8
0
  6
Continuous
 62
     7
370
    25
100
AcDbCircle
 10
356.5643325893
 20
222.7781904699
 30
0.0
 40
1.881741362881549
100
AcDbArc
 50
87.1325106507
 51
272.8674893493
  0
ARC
  5
69
330
1F
100
AcDbEntity
  8
0
  6
Continuous
 62
     7
370
    25
100
AcDbCircle
 10
356.7526054821
 20
222.7781904699
 30
0.0
 40
1.881741362881552
100
AcDbArc
 50
267.1325106507
 51
92.8674893493
  0
ARC
  5
6A
330
1F
100
AcDbEntity
  8
0
  6
Continuous
 62
     7
370
    25
100
AcDbCircle
 10
373.0643325893
 20
222.7781904699
 30
0.0
 40
1.88174136288158
100
AcDbArc
 50
87.1325106507
 51
272.8674893493
  0
ARC
  5
6B
330
1F
100
AcDbEntity
  8
0
  6
Continuous
 62
     7
370
    25
100
AcDbCircle
 10
373.2526054821
 20
222.7781904699
 30
0.0
 40
1.881741362881583
100
AcDbArc
 50
267.1325106507
 51
92.8674893493
  0
LINE
  5
6C
330
1F
100
AcDbEntity
  8
0
  6
Continuous
 62
     7
370
    25
100
AcDbLine
 10
388.1584690357
 20
248.5159228024
 30
0.0
 11
388.1584690357
 21
213.3812642621
 31
0.0
  0
LINE
  5
6D
330
1F
100
AcDbEntity
  8
0
  6
Continuous
 62
     7
370
    25
100
AcDbLine
 10
341.1584690357
 20
248.5159228024
 30
0.0
 11
341.1584690357
 21
213.3812642621
 31
0.0
  0
ARC
  5
6E
330
1F
100
AcDbEntity
  8
0
  6
Continuous
 62
     7
370
    25
100
AcDbCircle
 10
373.112142218
 20
223.6544068316
 30
0.0
 40
1.969500201399093
100
AcDbArc
 50
194.1928056208
 51
271.3478424411
  0
ARC
  5
6F
330
1F
100
AcDbEntity
  8
0
  6
Continuous
 62
     7
370
    25
100
AcDbCircle
 10
373.2010135133
 20
223.6593845249
 30
0.0
 40
1.974391397421356
100
AcDbArc
 50
268.7652865117
 51
345.6940654264
  0
ARC
  5
70
330
1F
100
AcDbEntity
  8
0
  6
Continuous
 62
     7
370
    25
100
AcDbCircle
 10
356.7010135133
 20
223.6593845249
 30
0.0
 40
1.974391397421525
100
AcDbArc
 50
268.7652865117
 51
345.6940654264
  0
ARC
  5
71
330
1F
100
AcDbEntity
  8
0
  6
Continuous
 62
     7
370
    25
100
AcDbCircle
 10
356.612142218
 20
223.6544068316
 30
0.0
 40
1.969500201398981
100
AcDbArc
 50
194.1928056208
 51
271.3478424411
  0
ARC
  5
72
330
1F
100
AcDbEntity
  8
0
  6
HIDDEN
 62
     7
370
    18
100
AcDbCircle
 10
373.0793866182
 20
223.534456235
 30
0.0
 40
1.911402485918122
100
AcDbArc
 50
87.6287660453
 51
190.9459490267
  0
ARC
  5
73
330
1F
100
AcDbEntity
  8
0
  6
HIDDEN
 62
     7
370
    18
100
AcDbCircle
 10
373.2375514531
 20
223.534456235
 30
0.0
 40
1.9114024859182
100
AcDbArc
 50
349.0540509733
 51
92.3712339547
  0
ARC
  5
74
330
1F
100
AcDbEntity
  8
0
  6
HIDDEN
 62
     7
370
    18
100
AcDbCircle
 10
356.7375514531
 20
223.534456235
 30
0.0
 40
1.911402485918231
100
AcDbArc
 50
349.0540509733
 51
92.3712339547
  0
ARC
  5
75
330
1F
100
AcDbEntity
  8
0
  6
HIDDEN
 62
     7
370
    18
100
AcDbCircle
 10
356.5793866182
 20
223.534456235
 30
0.0
 40
1.911402485918068
100
AcDbArc
 50
87.6287660453
 51
190.9459490267
  0
LINE
  5
76
330
1F
100
AcDbEntity
  8
0
  6
HIDDEN
 62
     7
370
    18
100
AcDbLine
 10
388.1584690357
 20
214.1679105917
 30
0.0
 11
341.1584690357
 21
214.1679105917
 31
0.0
  0
LINE
  5
77
330
1F
100
AcDbEntity
  8
0
  6
HIDDEN
 62
     7
370
    18
100
AcDbLine
 10
380.6584690357
 20
248.5159228024
 30
0.0
 11
380.6584690357
 21
250.8159228024
 31
0.0
  0
LINE
  5
78
330
1F
100
AcDbEntity
  8
0
  6
HIDDEN
 62
     7
370
    18
100
AcDbLine
 10
374.6584690357
 20
250.8159228024
 30
0.0
 11
374.6584690357
 21
248.5159228024
 31
0.0
  0
LINE
  5
79
330
1F
100
AcDbEntity
  8
0
  6
HIDDEN
 62
     7
370
    18
100
AcDbLine
 10
354.1584690357
 20
248.5159228024
 30
0.0
 11
354.1584690357
 21
250.8159228024
 31
0.0
  0
LINE
  5
7A
330
1F
100
AcDbEntity
  8
0
  6
HIDDEN
 62
     7
370
    18
100
AcDbLine
 10
348.1584690357
 20
250.8159228024
 30
0.0
 11
348.1584690357
 21
248.5159228024
 31
0.0
  0
LINE
  5
7B
330
1F
100
AcDbEntity
  8
0
  6
HIDDEN
 62
     7
370
    18
100
AcDbLine
 10
371.1584690357
 20
223.5648367996
 30
0.0
 11
371.1584690357
 21
222.7781904699
 31
0.0
  0
LINE
  5
7C
330
1F
100
AcDbEntity
  8
0
  6
HIDDEN
 62
     7
370
    18
100
AcDbLine
 10
375.1584690357
 20
222.7781904699
 30
0.0
 11
375.1584690357
 21
223.5648367996
 31
0.0
  0
LINE
  5
7D
330
1F
100
AcDbEntity
  8
0
  6
HIDDEN
 62
     7
370
    18
100
AcDbLine
 10
358.6584690357
 20
222.7781904699
 30
0.0
 11
358.6584690357
 21
223.5648367996
 31
0.0
  0
LINE
  5
7E
330
1F
100
AcDbEntity
  8
0
  6
HIDDEN
 62
     7
370
    18
100
AcDbLine
 10
354.6584690357
 20
223.5648367996
 30
0.0
 11
354.6584690357
 21
222.7781904699
 31
0.0
  0
LINE
  5
7F
330
1F
100
AcDbEntity
  8
0
  6
Continuous
 62
     7
370
    25
100
AcDbLine
 10
388.1584690357
 20
349.9787521652
 30
0.0
 11
388.1584690357
 21
347.8174591374
 31
0.0
  0
LINE
  5
80
330
1F
100
AcDbEntity
  8
0
  6
Continuous
 62
     7
370
    25
100
AcDbLine
 10
341.1584690357
 20
349.9787521652
 30
0.0
 11
341.1584690357
 21
347.8174591374
 31
0.0
  0
LINE
  5
81
330
1F
100
AcDbEntity
  8
0
  6
Continuous
 62
     7
370
    25
100
AcDbLine
 10
388.1584690357
 20
332.4279364753
 30
0.0
 11
341.1584690357
 21
332.4279364753
 31
0.0
  0
ARC
  5
82
330
1F
100
AcDbEntity
  8
0
  6
Continuous
 62
     7
370
    25
100
AcDbCircle
 10
351.1584690357
 20
340.4279364753
 30
0.0
 40
3.0
100
AcDbArc
 50
270.0
 51
90.0
  0
ARC
  5
83
330
1F
100
AcDbEntity
  8
0
  6
Continuous
 62
     7
370
    25
100
AcDbCircle
 10
351.1584690357
 20
340.4279364753
 30
0.0
 40
3.0
100
AcDbArc
 50
90.0
 51
270.0
  0
ARC
  5
84
330
1F
100
AcDbEntity
  8
0
  6
Continuous
 62
     7
370
    25
100
AcDbCircle
 10
377.6584690357
 20
340.4279364753
 30
0.0
 40
3.000000000000057
100
AcDbArc
 50
270.0
 51
90.0
  0
ARC
  5
85
330
1F
100
AcDbEntity
  8
0
  6
Continuous
 62
     7
370
    25
100
AcDbCircle
 10
377.6584690357
 20
340.4279364753
 30
0.0
 40
3.000000000000057
100
AcDbArc
 50
90.0
 51
270.0
  0
LINE
  5
86
330
1F
100
AcDbEntity
  8
0
  6
Continuous
 62
     7
370
    25
100
AcDbLine
 10
388.1584690357
 20
347.8174591374
 30
0.0
 11
388.1584690357
 21
332.4279364753
 31
0.0
  0
LINE
  5
87
330
1F
100
AcDbEntity
  8
0
  6
Continuous
 62
     7
370
    25
100
AcDbLine
 10
341.1584690357
 20
347.8174591374
 30
0.0
 11
341.1584690357
 21
332.4279364753
 31
0.0
  0
LINE
  5
88
330
1F
100
AcDbEntity
  8
0
  6
Continuous
 62
     7
370
    25
100
AcDbLine
 10
388.1584690357
 20
362.766722065
 30
0.0
 11
341.1584690357
 21
362.766722065
 31
0.0
  0
LWPOLYLINE
  5
89
330
1F
100
AcDbEntity
  8
0
  6
Continuous
 62
     7
370
    25
100
AcDbPolyline
 90
       21
 70
   128
 43
0.0
 10
356.6584690357
 20
358.6624803451
 10
356.9713379657
 20
358.6709020161
 10
357.2765030244
 20
358.6959596597
 10
357.5664500351
 20
358.7370362735
 10
357.8340395402
 20
358.793120415
 10
358.072682598
 20
358.8628311064
 10
358.2765030244
 20
358.9444518393
 10
358.440482084
 20
359.0359728402
 10
358.5605820682
 20
359.1351405583
 10
358.6338457168
 20
359.2395131554
 10
358.6584690357
 20
359.3465206317
 10
358.6338457168
 20
359.4535281081
 10
358.5605820682
 20
359.5579007052
 10
358.440482084
 20
359.6570684233
 10
358.2765030244
 20
359.7485894242
 10
358.072682598
 20
359.830210157
 10
357.8340395402
 20
359.8999208485
 10
357.5664500351
 20
359.95600499
 10
357.2765030244
 20
359.9970816038
 10
356.9713379657
 20
360.0221392474
 10
356.6584690357
 20
360.0305609184
  0
LWPOLYLINE
  5
8A
330
1F
100
AcDbEntity
  8
0
  6
Continuous
 62
     7
370
    25
100
AcDbPolyline
 90
       21
 70
   128
 43
0.0
 10
356.6584690357
 20
360.0305609184
 10
356.3456001056
 20
360.0221392474
 10
356.0404350469
 20
359.9970816038
 10
355.7504880362
 20
359.95600499
 10
355.4828985311
 20
359.8999208485
 10
355.2442554733
 20
359.830210157
 10
355.0404350469
 20
359.7485894242
 10
354.8764559873
 20
359.6570684233
 10
354.7563560031
 20
359.5579007052
 10
354.6830923545
 20
359.4535281081
 10
354.6584690357
 20
359.3465206317
 10
354.6830923545
 20
359.2395131554
 10
354.7563560031
 20
359.1351405583
 10
354.8764559873
 20
359.0359728402
 10
355.0404350469
 20
358.9444518393
 10
355.2442554733
 20
358.8628311064
 10
355.4828985311
 20
358.793120415
 10
355.7504880362
 20
358.7370362735
 10
356.0404350469
 20
358.6959596597
 10
356.3456001056
 20
358.6709020161
 10
356.6584690357
 20
358.6624803451
  0
LWPOLYLINE
  5
8B
330
1F
100
AcDbEntity
  8
0
  6
Continuous
 62
     7
370
    25
100
AcDbPolyline
 90
       21
 70
   128
 43
0.0
 10
373.1584690357
 20
358.6624803451
 10
373.4713379657
 20
358.6709020161
 10
373.7765030244
 20
358.6959596597
 10
374.0664500351
 20
358.7370362735
 10
374.3340395402
 20
358.793120415
 10
374.572682598
 20
358.8628311064
 10
374.7765030244
 20
358.9444518393
 10
374.940482084
 20
359.0359728402
 10
375.0605820682
 20
359.1351405583
 10
375.1338457168
 20
359.2395131554
 10
375.1584690357
 20
359.3465206317
 10
375.1338457168
 20
359.4535281081
 10
375.0605820682
 20
359.5579007052
 10
374.940482084
 20
359.6570684233
 10
374.7765030244
 20
359.7485894242
 10
374.572682598
 20
359.830210157
 10
374.3340395402
 20
359.8999208485
 10
374.0664500351
 20
359.95600499
 10
373.7765030244
 20
359.9970816038
 10
373.4713379657
 20
360.0221392474
 10
373.1584690357
 20
360.0305609184
  0
LWPOLYLINE
  5
8C
330
1F
100
AcDbEntity
  8
0
  6
Continuous
 62
     7
370
    25
100
AcDbPolyline
 90
       21
 70
   128
 43
0.0
 10
373.1584690357
 20
360.0305609184
 10
372.8456001056
 20
360.0221392474
 10
372.5404350469
 20
359.9970816038
 10
372.2504880362
 20
359.95600499
 10
371.9828985311
 20
359.8999208485
 10
371.7442554733
 20
359.830210157
 10
371.5404350469
 20
359.7485894242
 10
371.3764559873
 20
359.6570684233
 10
371.2563560031
 20
359.5579007052
 10
371.1830923545
 20
359.4535281081
 10
371.1584690357
 20
359.3465206317
 10
371.1830923545
 20
359.2395131554
 10
371.2563560031
 20
359.1351405583
 10
371.3764559873
 20
359.0359728402
 10
371.5404350469
 20
358.9444518393
 10
371.7442554733
 20
358.8628311064
 10
371.9828985311
 20
358.793120415
 10
372.2504880362
 20
358.7370362735
 10
372.5404350469
 20
358.6959596597
 10
372.8456001056
 20
358.6709020161
 10
373.1584690357
 20
358.6624803451
  0
LINE
  5
8D
330
1F
100
AcDbEntity
  8
0
  6
Continuous
 62
     7
370
    25
100
AcDbLine
 10
388.1584690357
 20
362.766722065
 30
0.0
 11
388.1584690357
 21
349.9787521652
 31
0.0
  0
LINE
  5
8E
330
1F
100
AcDbEntity
  8
0
  6
Continuous
 62
     7
370
    25
100
AcDbLine
 10
341.1584690357
 20
362.766722065
 30
0.0
 11
341.1584690357
 21
349.9787521652
 31
0.0
  0
LINE
  5
8F
330
1F
100
AcDbEntity
  8
0
  6
HIDDEN
 62
     7
370
    18
100
AcDbLine
 10
388.1584690357
 20
347.8174591374
 30
0.0
 11
341.1584690357
 21
347.8174591374
 31
0.0
  0
LWPOLYLINE
  5
90
330
1F
100
AcDbEntity
  8
0
  6
HIDDEN
 62
     7
370
    18
100
AcDbPolyline
 90
       21
 70
   128
 43
0.0
 10
373.1584690357
 20
356.5011873173
 10
372.8456001056
 20
356.5096089883
 10
372.5404350469
 20
356.5346666319
 10
372.2504880362
 20
356.5757432457
 10
371.9828985311
 20
356.6318273872
 10
371.7442554733
 20
356.7015380786
 10
371.5404350469
 20
356.7831588115
 10
371.3764559873
 20
356.8746798124
 10
371.2563560031
 20
356.9738475305
 10
371.1830923545
 20
357.0782201276
 10
371.1584690357
 20
357.1852276039
 10
371.1830923545
 20
357.2922350802
 10
371.2563560031
 20
357.3966076773
 10
371.3764559873
 20
357.4957753955
 10
371.5404350469
 20
357.5872963964
 10
371.7442554733
 20
357.6689171292
 10
371.9828985311
 20
357.7386278207
 10
372.2504880362
 20
357.7947119621
 10
372.5404350469
 20
357.835788576
 10
372.8456001056
 20
357.8608462196
 10
373.1584690357
 20
357.8692678906
  0
LWPOLYLINE
  5
91
330
1F
100
AcDbEntity
  8
0
  6
HIDDEN
 62
     7
370
    18
100
AcDbPolyline
 90
       21
 70
   128
 43
0.0
 10
373.1584690357
 20
357.8692678906
 10
373.4713379657
 20
357.8608462196
 10
373.7765030244
 20
357.835788576
 10
374.0664500351
 20
357.7947119621
 10
374.3340395402
 20
357.7386278207
 10
374.572682598
 20
357.6689171292
 10
374.7765030244
 20
357.5872963964
 10
374.940482084
 20
357.4957753955
 10
375.0605820682
 20
357.3966076773
 10
375.1338457168
 20
357.2922350802
 10
375.1584690357
 20
357.1852276039
 10
375.1338457168
 20
357.0782201276
 10
375.0605820682
 20
356.9738475305
 10
374.940482084
 20
356.8746798124
 10
374.7765030244
 20
356.7831588115
 10
374.572682598
 20
356.7015380786
 10
374.3340395402
 20
356.6318273872
 10
374.0664500351
 20
356.5757432457
 10
373.7765030244
 20
356.5346666319
 10
373.4713379657
 20
356.5096089883
 10
373.1584690357
 20
356.5011873173
  0
LWPOLYLINE
  5
92
330
1F
100
AcDbEntity
  8
0
  6
HIDDEN
 62
     7
370
    18
100
AcDbPolyline
 90
       21
 70
   128
 43
0.0
 10
356.6584690357
 20
357.8692678906
 10
356.9713379657
 20
357.8608462196
 10
357.2765030244
 20
357.835788576
 10
357.5664500351
 20
357.7947119621
 10
357.8340395402
 20
357.7386278207
 10
358.072682598
 20
357.6689171292
 10
358.2765030244
 20
357.5872963964
 10
358.440482084
 20
357.4957753955
 10
358.5605820682
 20
357.3966076773
 10
358.6338457168
 20
357.2922350802
 10
358.6584690357
 20
357.1852276039
 10
358.6338457168
 20
357.0782201276
 10
358.5605820682
 20
356.9738475305
 10
358.440482084
 20
356.8746798124
 10
358.2765030244
 20
356.7831588115
 10
358.072682598
 20
356.7015380786
 10
357.8340395402
 20
356.6318273872
 10
357.5664500351
 20
356.5757432457
 10
357.2765030244
 20
356.5346666319
 10
356.9713379657
 20
356.5096089883
 10
356.6584690357
 20
356.5011873173
  0
LWPOLYLINE
  5
93
330
1F
100
AcDbEntity
  8
0
  6
HIDDEN
 62
     7
370
    18
100
AcDbPolyline
 90
       21
 70
   128
 43
0.0
 10
356.6584690357
 20
356.5011873173
 10
356.3456001056
 20
356.5096089883
 10
356.0404350469
 20
356.5346666319
 10
355.7504880362
 20
356.5757432457
 10
355.4828985311
 20
356.6318273872
 10
355.2442554733
 20
356.7015380786
 10
355.0404350469
 20
356.7831588115
 10
354.8764559873
 20
356.8746798124
 10
354.7563560031
 20
356.9738475305
 10
354.6830923545
 20
357.0782201276
 10
354.6584690357
 20
357.1852276039
 10
354.6830923545
 20
357.2922350802
 10
354.7563560031
 20
357.3966076773
 10
354.8764559873
 20
357.4957753955
 10
355.0404350469
 20
357.5872963964
 10
355.2442554733
 20
357.6689171292
 10
355.4828985311
 20
357.7386278207
 10
355.7504880362
 20
357.7947119621
 10
356.0404350469
 20
357.835788576
 10
356.3456001056
 20
357.8608462196
 10
356.6584690357
 20
357.8692678906
  0
LINE
  5
94
330
1F
100
AcDbEntity
  8
0
  6
HIDDEN
 62
     7
370
    18
100
AcDbLine
 10
388.1584690357
 20
360.6054290372
 30
0.0
 11
341.1584690357
 21
360.6054290372
 31
0.0
  0
LINE
  5
95
330
1F
100
AcDbEntity
  8
0
  6
HIDDEN
 62
     7
370
    18
100
AcDbLine
 10
371.1584690357
 20
359.3465206317
 30
0.0
 11
371.1584690357
 21
357.1852276039
 31
0.0
  0
LINE
  5
96
330
1F
100
AcDbEntity
  8
0
  6
HIDDEN
 62
     7
370
    18
100
AcDbLine
 10
375.1584690357
 20
357.1852276039
 30
0.0
 11
375.1584690357
 21
359.3465206317
 31
0.0
  0
LINE
  5
97
330
1F
100
AcDbEntity
  8
0
  6
HIDDEN
 62
     7
370
    18
100
AcDbLine
 10
358.6584690357
 20
357.1852276039
 30
0.0
 11
358.6584690357
 21
359.3465206317
 31
0.0
  0
LINE
  5
98
330
1F
100
AcDbEntity
  8
0
  6
HIDDEN
 62
     7
370
    18
100
AcDbLine
 10
354.6584690357
 20
359.3465206317
 30
0.0
 11
354.6584690357
 21
357.1852276039
 31
0.0
  0
LINE
  5
99
330
1F
100
AcDbEntity
  8
0
  6
Continuous
 62
     7
370
    25
100
AcDbLine
 10
476.1001298673
 20
250.8159228024
 30
0.0
 11
460.7106072051
 21
250.8159228024
 31
0.0
  0
ARC
  5
9A
330
1F
100
AcDbEntity
  8
0
  6
Continuous
 62
     7
370
    25
100
AcDbCircle
 10
476.1001298673
 20
248.5159228024
 30
0.0
 40
2.299999999999988
100
AcDbArc
 50
20.0
 51
90.0
  0
LINE
  5
9B
330
1F
100
AcDbEntity
  8
0
  6
Continuous
 62
     7
370
    25
100
AcDbLine
 10
476.1001298673
 20
248.5159228024
 30
0.0
 11
488.888099767
 21
213.3812642621
 31
0.0
  0
LINE
  5
9C
330
1F
100
AcDbEntity
  8
0
  6
Continuous
 62
     7
370
    25
100
AcDbLine
 10
460.7106072051
 20
248.5159228024
 30
0.0
 11
476.1001298673
 21
248.5159228024
 31
0.0
  0
LINE
  5
9D
330
1F
100
AcDbEntity
  8
0
  6
Continuous
 62
     7
370
    25
100
AcDbLine
 10
460.7106072051
 20
250.8159228024
 30
0.0
 11
460.7106072051
 21
248.5159228024
 31
0.0
  0
LINE
  5
9E
330
1F
100
AcDbEntity
  8
0
  6
Continuous
 62
     7
370
    25
100
AcDbLine
 10
488.888099767
 20
213.3812642621
 30
0.0
 11
491.0493927949
 21
214.1679105917
 31
0.0
  0
LINE
  5
9F
330
1F
100
AcDbEntity
  8
0
  6
Continuous
 62
     7
370
    25
100
AcDbLine
 10
491.0493927949
 20
214.1679105917
 30
0.0
 11
478.2614228951
 21
249.302569132
 31
0.0
  0
LINE
  5
A0
330
1F
100
AcDbEntity
  8
0
  6
HIDDEN
 62
     7
370
    18
100
AcDbLine
 10
471.7106072051
 20
250.8159228024
 30
0.0
 11
471.7106072051
 21
248.5159228024
 31
0.0
  0
LINE
  5
A1
330
1F
100
AcDbEntity
  8
0
  6
HIDDEN
 62
     7
370
    18
100
AcDbLine
 10
465.7106072051
 20
250.8159228024
 30
0.0
 11
465.7106072051
 21
248.5159228024
 31
0.0
  0
LINE
  5
A2
330
1F
100
AcDbEntity
  8
0
  6
HIDDEN
 62
     7
370
    18
100
AcDbLine
 10
488.3132316482
 20
221.685451558
 30
0.0
 11
486.1519386204
 21
220.8988052283
 31
0.0
  0
LINE
  5
A3
330
1F
100
AcDbEntity
  8
0
  6
HIDDEN
 62
     7
370
    18
100
AcDbLine
 10
486.9451510749
 20
225.4442220411
 30
0.0
 11
484.7838580471
 21
224.6575757115
 31
0.0
  0
LINE
  5
A4
330
1F
100
AcDbEntity
  8
0
  6
Continuous
 62
     7
370
    25
100
AcDbLine
 10
462.8005048693
 20
374.516385978
 30
0.0
 11
451.9184690357
 21
368.2343204088
 31
0.0
  0
ARC
  5
A5
330
1F
100
AcDbEntity
  8
0
  6
Continuous
 62
     7
370
    25
100
AcDbCircle
 10
464.4390393323
 20
371.3148464822
 30
0.0
 40
3.596477489117029
100
AcDbArc
 50
74.5212209702
 51
117.1031758168
  0
LINE
  5
A6
330
1F
100
AcDbEntity
  8
0
  6
Continuous
 62
     7
370
    25
100
AcDbLine
 10
499.2852880103
 20
365.6588685125
 30
0.0
 11
465.398872468
 21
374.7808774517
 31
0.0
  0
LINE
  5
A7
330
1F
100
AcDbEntity
  8
0
  6
Continuous
 62
     7
370
    25
100
AcDbLine
 10
498.3132660083
 20
364.4555077102
 30
0.0
 11
499.2852880103
 21
365.6588685125
 31
0.0
  0
LINE
  5
A8
330
1F
100
AcDbEntity
  8
0
  6
Continuous
 62
     7
370
    25
100
AcDbLine
 10
464.426850466
 20
373.5775166494
 30
0.0
 11
498.3132660083
 21
364.4555077102
 31
0.0
  0
LINE
  5
A9
330
1F
100
AcDbEntity
  8
0
  6
Continuous
 62
     7
370
    25
100
AcDbLine
 10
453.5448146324
 20
367.2954510802
 30
0.0
 11
464.426850466
 21
373.5775166494
 31
0.0
  0
LINE
  5
AA
330
1F
100
AcDbEntity
  8
0
  6
Continuous
 62
     7
370
    25
100
AcDbLine
 10
451.9184690357
 20
368.2343204088
 30
0.0
 11
453.5448146324
 21
367.2954510802
 31
0.0
  0
LINE
  5
AB
330
1F
100
AcDbEntity
  8
0
  6
Continuous
 62
     7
370
    25
100
AcDbLine
 10
464.426850466
 20
373.5775166494
 30
0.0
 11
464.426850466
 21
335.2000984908
 31
0.0
  0
LINE
  5
AC
330
1F
100
AcDbEntity
  8
0
  6
Continuous
 62
     7
370
    25
100
AcDbLine
 10
498.3132660083
 20
364.4555077102
 30
0.0
 11
498.3132660083
 21
326.0780895515
 31
0.0
  0
LINE
  5
AD
330
1F
100
AcDbEntity
  8
0
  6
Continuous
 62
     7
370
    25
100
AcDbLine
 10
464.426850466
 20
335.2000984908
 30
0.0
 11
498.3132660083
 21
326.0780895515
 31
0.0
  0
LWPOLYLINE
  5
AE
330
1F
100
AcDbEntity
  8
0
  6
Continuous
 62
     7
370
    25
100
AcDbPolyline
 90
       21
 70
   128
 43
0.0
 10
487.4375725638
 20
341.6621400886
 10
487.4598888694
 20
341.40066243
 10
487.5262882846
 20
341.1336084022
 10
487.6351358355
 20
340.8675537618
 10
487.7837513342
 20
340.6090496569
 10
487.9684753738
 20
340.3644613165
 10
488.1847594354
 20
340.1398113174
 10
488.4272778876
 20
339.940631288
 10
488.6900591212
 20
339.7718257018
 10
488.9666325902
 20
339.6375511125
 10
489.2501881379
 20
339.5411138061
 10
489.5337436855
 20
339.4848883891
 10
489.8103171545
 20
339.470259318
 10
490.0730983882
 20
339.497586809
 10
490.3156168404
 20
339.5661979686
 10
490.531900902
 20
339.6744033623
 10
490.7166249416
 20
339.8195386143
 10
490.8652404402
 20
339.9980300129
 10
490.9740879911
 20
340.2054825075
 10
491.0404874064
 20
340.4367879293
 10
491.062803712
 20
340.686250771
  0
LWPOLYLINE
  5
AF
330
1F
100
AcDbEntity
  8
0
  6
Continuous
 62
     7
370
    25
100
AcDbPolyline
 90
       21
 70
   128
 43
0.0
 10
491.062803712
 20
340.686250771
 10
491.0404874064
 20
340.9477284296
 10
490.9740879911
 20
341.2147824574
 10
490.8652404402
 20
341.4808370979
 10
490.7166249416
 20
341.7393412028
 10
490.531900902
 20
341.9839295431
 10
490.3156168404
 20
342.2085795423
 10
490.0730983882
 20
342.4077595716
 10
489.8103171545
 20
342.5765651579
 10
489.5337436855
 20
342.7108397472
 10
489.2501881379
 20
342.8072770536
 10
488.9666325902
 20
342.8635024705
 10
488.6900591212
 20
342.8781315416
 10
488.4272778876
 20
342.8508040506
 10
488.1847594354
 20
342.782192891
 10
487.9684753738
 20
342.6739874973
 10
487.7837513342
 20
342.5288522454
 10
487.6351358355
 20
342.3503608468
 10
487.5262882846
 20
342.1429083521
 10
487.4598888694
 20
341.9116029304
 10
487.4375725638
 20
341.6621400886
  0
LWPOLYLINE
  5
B0
330
1F
100
AcDbEntity
  8
0
  6
Continuous
 62
     7
370
    25
100
AcDbPolyline
 90
       21
 70
   128
 43
0.0
 10
487.4375725638
 20
355.1350634848
 10
487.4598888694
 20
354.8735858261
 10
487.5262882846
 20
354.6065317983
 10
487.6351358355
 20
354.3404771579
 10
487.7837513342
 20
354.081973053
 10
487.9684753738
 20
353.8373847126
 10
488.1847594354
 20
353.6127347135
 10
488.4272778876
 20
353.4135546841
 10
488.6900591212
 20
353.2447490979
 10
488.9666325902
 20
353.1104745086
 10
489.2501881379
 20
353.0140372022
 10
489.5337436855
 20
352.9578117852
 10
489.8103171545
 20
352.9431827141
 10
490.0730983882
 20
352.9705102051
 10
490.3156168404
 20
353.0391213647
 10
490.531900902
 20
353.1473267585
 10
490.7166249416
 20
353.2924620104
 10
490.8652404402
 20
353.470953409
 10
490.9740879911
 20
353.6784059036
 10
491.0404874064
 20
353.9097113254
 10
491.062803712
 20
354.1591741671
  0
LWPOLYLINE
  5
B1
330
1F
100
AcDbEntity
  8
0
  6
Continuous
 62
     7
370
    25
100
AcDbPolyline
 90
       21
 70
   128
 43
0.0
 10
491.062803712
 20
354.1591741671
 10
491.0404874064
 20
354.4206518258
 10
490.9740879911
 20
354.6877058535
 10
490.8652404402
 20
354.953760494
 10
490.7166249416
 20
355.2122645989
 10
490.531900902
 20
355.4568529393
 10
490.3156168404
 20
355.6815029384
 10
490.0730983882
 20
355.8806829678
 10
489.8103171545
 20
356.049488554
 10
489.5337436855
 20
356.1837631433
 10
489.2501881379
 20
356.2802004497
 10
488.9666325902
 20
356.3364258666
 10
488.6900591212
 20
356.3510549378
 10
488.4272778876
 20
356.3237274468
 10
488.1847594354
 20
356.2551162872
 10
487.9684753738
 20
356.1469108934
 10
487.7837513342
 20
356.0017756415
 10
487.6351358355
 20
355.8232842429
 10
487.5262882846
 20
355.6158317482
 10
487.4598888694
 20
355.3845263265
 10
487.4375725638
 20
355.1350634848
  0
LINE
  5
B2
330
1F
100
AcDbEntity
  8
0
  6
Continuous
 62
     7
370
    25
100
AcDbLine
 10
498.3132660083
 20
326.0780895515
 30
0.0
 11
499.2852880103
 21
327.2814503538
 31
0.0
  0
LINE
  5
B3
330
1F
100
AcDbEntity
  8
0
  6
Continuous
 62
     7
370
    25
100
AcDbLine
 10
499.2852880103
 20
365.6588685125
 30
0.0
 11
499.2852880103
 21
327.2814503538
 31
0.0
  0
LINE
  5
B4
330
1F
100
AcDbEntity
  8
0
  6
Continuous
 62
     7
370
    25
100
AcDbLine
 10
451.9184690357
 20
368.2343204088
 30
0.0
 11
451.9184690357
 21
329.8569022502
 31
0.0
  0
LINE
  5
B5
330
1F
100
AcDbEntity
  8
0
  6
Continuous
 62
     7
370
    25
100
AcDbLine
 10
453.5448146324
 20
367.2954510802
 30
0.0
 11
453.5448146324
 21
328.9180329216
 31
0.0
  0
LINE
  5
B6
330
1F
100
AcDbEntity
  8
0
  6
Continuous
 62
     7
370
    25
100
AcDbLine
 10
451.9184690357
 20
329.8569022502
 30
0.0
 11
453.5448146324
 21
328.9180329216
 31
0.0
  0
LINE
  5
B7
330
1F
100
AcDbEntity
  8
0
  6
Continuous
 62
     7
370
    25
100
AcDbLine
 10
453.5448146324
 20
328.9180329216
 30
0.0
 11
464.426850466
 21
335.2000984908
 31
0.0
  0
LWPOLYLINE
  5
B8
330
1F
100
AcDbEntity
  8
0
  6
Continuous
 62
     7
370
    25
100
AcDbPolyline
 90
       26
 70
   128
 43
0.0
 10
457.0803485383
 20
339.12446132
 10
457.0970757828
 20
338.8270986518
 10
457.1469937177
 20
338.553738436
 10
457.2293151074
 20
338.3086917265
 10
457.3427416943
 20
338.0958230561
 10
457.4854846734
 20
337.9184894911
 10
457.6552929027
 20
337.7794876877
 10
457.8494884049
 20
337.6810097874
 10
458.0650086011
 20
337.6246088454
 10
458.2984546088
 20
337.6111743384
 10
458.5461448452
 20
337.6409181365
 10
458.8041730872
 20
337.7133711622
 10
459.0684700754
 20
337.8273907881
 10
459.3348676883
 20
337.9811788566
 10
459.5991646765
 20
338.1723100379
 10
459.8571929185
 20
338.3977700792
 10
460.1048831549
 20
338.6540033408
 10
460.3383291627
 20
338.9369688713
 10
460.5538493588
 20
339.2422041351
 10
460.748044861
 20
339.5648953898
 10
460.9178530903
 20
339.8999536016
 10
461.0605960695
 20
340.2420947022
 10
461.1740226564
 20
340.5859229222
 10
461.256344046
 20
340.9260158852
 10
461.3062619809
 20
341.2570101219
 10
461.3229892254
 20
341.5736856555
  0
LWPOLYLINE
  5
B9
330
1F
100
AcDbEntity
  8
0
  6
Continuous
 62
     7
370
    25
100
AcDbPolyline
 90
       26
 70
   128
 43
0.0
 10
461.3229892254
 20
341.5736856555
 10
461.3062619809
 20
341.8710483236
 10
461.256344046
 20
342.1444085394
 10
461.1740226564
 20
342.389455249
 10
461.0605960695
 20
342.6023239193
 10
460.9178530903
 20
342.7796574843
 10
460.748044861
 20
342.9186592877
 10
460.5538493588
 20
343.017137188
 10
460.3383291627
 20
343.07353813
 10
460.1048831549
 20
343.086972637
 10
459.8571929185
 20
343.057228839
 10
459.5991646765
 20
342.9847758132
 10
459.3348676883
 20
342.8707561873
 10
459.0684700754
 20
342.7169681188
 10
458.8041730872
 20
342.5258369375
 10
458.5461448452
 20
342.3003768963
 10
458.2984546088
 20
342.0441436346
 10
458.0650086011
 20
341.7611781042
 10
457.8494884049
 20
341.4559428403
 10
457.6552929027
 20
341.1332515856
 10
457.4854846734
 20
340.7981933739
 10
457.3427416943
 20
340.4560522732
 10
457.2293151074
 20
340.1122240532
 10
457.1469937177
 20
339.7721310903
 10
457.0970757828
 20
339.4411368536
 10
457.0803485383
 20
339.12446132
  0
LWPOLYLINE
  5
BA
330
1F
100
AcDbEntity
  8
0
  6
Continuous
 62
     7
370
    25
100
AcDbPolyline
 90
       26
 70
   128
 43
0.0
 10
457.0803485383
 20
360.762792835
 10
457.0970757828
 20
360.4654301668
 10
457.1469937177
 20
360.192069951
 10
457.2293151074
 20
359.9470232414
 10
457.3427416943
 20
359.7341545711
 10
457.4854846734
 20
359.5568210061
 10
457.6552929027
 20
359.4178192027
 10
457.8494884049
 20
359.3193413024
 10
458.0650086011
 20
359.2629403604
 10
458.2984546088
 20
359.2495058534
 10
458.5461448452
 20
359.2792496514
 10
458.8041730872
 20
359.3517026772
 10
459.0684700754
 20
359.4657223031
 10
459.3348676883
 20
359.6195103716
 10
459.5991646765
 20
359.8106415529
 10
459.8571929185
 20
360.0361015941
 10
460.1048831549
 20
360.2923348558
 10
460.3383291627
 20
360.5753003863
 10
460.5538493588
 20
360.8805356501
 10
460.748044861
 20
361.2032269048
 10
460.9178530903
 20
361.5382851165
 10
461.0605960695
 20
361.8804262172
 10
461.1740226564
 20
362.2242544372
 10
461.256344046
 20
362.5643474002
 10
461.3062619809
 20
362.8953416368
 10
461.3229892254
 20
363.2120171704
  0
LWPOLYLINE
  5
BB
330
1F
100
AcDbEntity
  8
0
  6
Continuous
 62
     7
370
    25
100
AcDbPolyline
 90
       26
 70
   128
 43
0.0
 10
461.3229892254
 20
363.2120171704
 10
461.3062619809
 20
363.5093798386
 10
461.256344046
 20
363.7827400544
 10
461.1740226564
 20
364.027786764
 10
461.0605960695
 20
364.2406554343
 10
460.9178530903
 20
364.4179889993
 10
460.748044861
 20
364.5569908027
 10
460.5538493588
 20
364.655468703
 10
460.3383291627
 20
364.711869645
 10
460.1048831549
 20
364.725304152
 10
459.8571929185
 20
364.6955603539
 10
459.5991646765
 20
364.6231073282
 10
459.3348676883
 20
364.5090877023
 10
459.0684700754
 20
364.3552996338
 10
458.8041730872
 20
364.1641684525
 10
458.5461448452
 20
363.9387084112
 10
458.2984546088
 20
363.6824751496
 10
458.0650086011
 20
363.3995096191
 10
457.8494884049
 20
363.0942743553
 10
457.6552929027
 20
362.7715831006
 10
457.4854846734
 20
362.4365248888
 10
457.3427416943
 20
362.0943837882
 10
457.2293151074
 20
361.7505555682
 10
457.1469937177
 20
361.4104626052
 10
457.0970757828
 20
361.0794683685
 10
457.0803485383
 20
360.762792835
  0
ARC
  5
BC
330
1F
100
AcDbEntity
  8
0
  6
Continuous
 62
     7
370
    25
100
AcDbCircle
 10
490.7563266788
 20
356.5103047235
 30
0.0
 40
2.353018167020542
100
AcDbArc
 50
184.1890040314
 51
277.4812131406
  0
LWPOLYLINE
  5
BD
330
1F
100
AcDbEntity
  8
0
  6
Continuous
 62
     7
370
    25
100
AcDbPolyline
 90
        3
 70
   128
 43
0.0
 10
459.6488925371
 20
364.6401469282
 10
459.6799163842
 20
364.4482491672
 10
459.6966436287
 20
364.150886499
  0
ARC
  5
BE
330
1F
100
AcDbEntity
  8
0
  6
Continuous
 62
     7
370
    25
100
AcDbCircle
 10
455.3550225011
 20
364.2375431121
 30
0.0
 40
4.34248585304581
100
AcDbArc
 50
294.0986685087
 51
358.8565563702
  0
ARC
  5
BF
330
1F
100
AcDbEntity
  8
0
  6
Continuous
 62
     7
370
    25
100
AcDbCircle
 10
490.7563266788
 20
343.0373813274
 30
0.0
 40
2.353018167033316
100
AcDbArc
 50
184.1890040316
 51
277.4812131383
  0
LWPOLYLINE
  5
C0
330
1F
100
AcDbEntity
  8
0
  6
Continuous
 62
     7
370
    25
100
AcDbPolyline
 90
        3
 70
   128
 43
0.0
 10
459.6488925371
 20
343.0018154132
 10
459.6799163842
 20
342.8099176522
 10
459.6966436287
 20
342.5125549841
  0
ARC
  5
C1
330
1F
100
AcDbEntity
  8
0
  6
Continuous
 62
     7
370
    25
100
AcDbCircle
 10
455.3550225011
 20
342.5992115971
 30
0.0
 40
4.342485853045524
100
AcDbArc
 50
294.0986685087
 51
358.8565563702
  0
LWPOLYLINE
  5
C2
330
1F
100
AcDbEntity
  8
0
  6
HIDDEN
 62
     7
370
    18
100
AcDbPolyline
 90
       21
 70
   128
 43
0.0
 10
488.4095945658
 20
356.338424287
 10
488.4319108714
 20
356.5878871288
 10
488.4983102866
 20
356.8191925505
 10
488.6071578375
 20
357.0266450452
 10
488.7557733362
 20
357.2051364438
 10
488.9404973758
 20
357.3502716957
 10
489.1567814374
 20
357.4584770895
 10
489.3992998896
 20
357.527088249
 10
489.6620811232
 20
357.5544157401
 10
489.9386545922
 20
357.5397866689
 10
490.2222101399
 20
357.483561252
 10
490.5057656875
 20
357.3871239456
 10
490.7823391565
 20
357.2528493563
 10
491.0451203902
 20
357.08404377
 10
491.2876388424
 20
356.8848637407
 10
491.503922904
 20
356.6602137415
 10
491.6886469436
 20
356.4156254012
 10
491.8372624422
 20
356.1571212963
 10
491.9461099931
 20
355.8910666558
 10
492.0125094084
 20
355.6240126281
 10
492.034825714
 20
355.3625349694
  0
ARC
  5
C3
330
1F
100
AcDbEntity
  8
0
  6
HIDDEN
 62
     7
370
    18
100
AcDbCircle
 10
490.8618698057
 20
355.3333221286
 30
0.0
 40
1.173319629395496
100
AcDbArc
 50
279.8551237332
 51
1.4266747268
  0
LINE
  5
C4
330
1F
100
AcDbEntity
  8
0
  6
HIDDEN
 62
     7
370
    18
100
AcDbLine
 10
462.8005048693
 20
336.1389678194
 30
0.0
 11
451.9184690357
 21
329.8569022502
 31
0.0
  0
LINE
  5
C5
330
1F
100
AcDbEntity
  8
0
  6
HIDDEN
 62
     7
370
    18
100
AcDbLine
 10
499.2852880103
 20
327.2814503538
 30
0.0
 11
465.398872468
 21
336.4034592931
 31
0.0
  0
LWPOLYLINE
  5
C6
330
1F
100
AcDbEntity
  8
0
  6
HIDDEN
 62
     7
370
    18
100
AcDbPolyline
 90
       25
 70
   128
 43
0.0
 10
455.4540029416
 20
361.7016621636
 10
455.4707301861
 20
362.0183376971
 10
455.520648121
 20
362.3493319338
 10
455.6029695107
 20
362.6894248968
 10
455.7163960976
 20
363.0332531168
 10
455.8591390767
 20
363.3753942174
 10
456.028947306
 20
363.7104524292
 10
456.2231428082
 20
364.0331436839
 10
456.4386630043
 20
364.3383789477
 10
456.6721090121
 20
364.6213444782
 10
456.9197992485
 20
364.8775777398
 10
457.1778274905
 20
365.1030377811
 10
457.4421244787
 20
365.2941689624
 10
457.7085220916
 20
365.4479570309
 10
457.9728190798
 20
365.5619766568
 10
458.2308473218
 20
365.6344296825
 10
458.4785375582
 20
365.6641734806
 10
458.711983566
 20
365.6507389736
 10
458.9275037621
 20
365.5943380316
 10
459.1216992643
 20
365.4958601313
 10
459.2915074936
 20
365.3568583279
 10
459.4342504727
 20
365.1795247629
 10
459.5476770596
 20
364.9666560926
 10
459.6299984493
 20
364.721609383
 10
459.6488925371
 20
364.6401469282
  0
ARC
  5
C7
330
1F
100
AcDbEntity
  8
0
  6
HIDDEN
 62
     7
370
    18
100
AcDbCircle
 10
456.7084111815
 20
361.4768391169
 30
0.0
 40
1.274396105889736
100
AcDbArc
 50
169.8389662126
 51
289.2277132978
  0
ARC
  5
C8
330
1F
100
AcDbEntity
  8
0
  6
HIDDEN
 62
     7
370
    18
100
AcDbCircle
 10
464.4390393323
 20
332.9374283236
 30
0.0
 40
3.596477489117428
100
AcDbArc
 50
74.5212209702
 51
117.1031758168
  0
LWPOLYLINE
  5
C9
330
1F
100
AcDbEntity
  8
0
  6
HIDDEN
 62
     7
370
    18
100
AcDbPolyline
 90
       21
 70
   128
 43
0.0
 10
488.4095945658
 20
342.8655008909
 10
488.4319108714
 20
343.1149637327
 10
488.4983102866
 20
343.3462691544
 10
488.6071578375
 20
343.5537216491
 10
488.7557733362
 20
343.7322130477
 10
488.9404973758
 20
343.8773482996
 10
489.1567814374
 20
343.9855536933
 10
489.3992998896
 20
344.0541648529
 10
489.6620811232
 20
344.0814923439
 10
489.9386545922
 20
344.0668632728
 10
490.2222101399
 20
344.0106378559
 10
490.5057656875
 20
343.9142005495
 10
490.7823391565
 20
343.7799259602
 10
491.0451203902
 20
343.6111203739
 10
491.2876388424
 20
343.4119403446
 10
491.503922904
 20
343.1872903454
 10
491.6886469436
 20
342.9427020051
 10
491.8372624422
 20
342.6841979002
 10
491.9461099931
 20
342.4181432597
 10
492.0125094084
 20
342.1510892319
 10
492.034825714
 20
341.8896115733
  0
ARC
  5
CA
330
1F
100
AcDbEntity
  8
0
  6
HIDDEN
 62
     7
370
    18
100
AcDbCircle
 10
490.8618698057
 20
341.8603987325
 30
0.0
 40
1.173319629402129
100
AcDbArc
 50
279.8551237293
 51
1.4266747267
  0
LWPOLYLINE
  5
CB
330
1F
100
AcDbEntity
  8
0
  6
HIDDEN
 62
     7
370
    18
100
AcDbPolyline
 90
       25
 70
   128
 43
0.0
 10
455.4540029416
 20
340.0633306486
 10
455.4707301861
 20
340.3800061822
 10
455.520648121
 20
340.7110004189
 10
455.6029695107
 20
341.0510933818
 10
455.7163960976
 20
341.3949216018
 10
455.8591390767
 20
341.7370627025
 10
456.028947306
 20
342.0721209142
 10
456.2231428082
 20
342.3948121689
 10
456.4386630043
 20
342.7000474327
 10
456.6721090121
 20
342.9830129632
 10
456.9197992485
 20
343.2392462249
 10
457.1778274905
 20
343.4647062661
 10
457.4421244787
 20
343.6558374474
 10
457.7085220916
 20
343.8096255159
 10
457.9728190798
 20
343.9236451418
 10
458.2308473218
 20
343.9960981676
 10
458.4785375582
 20
344.0258419656
 10
458.711983566
 20
344.0124074586
 10
458.9275037621
 20
343.9560065166
 10
459.1216992643
 20
343.8575286163
 10
459.2915074936
 20
343.7185268129
 10
459.4342504727
 20
343.5411932479
 10
459.5476770596
 20
343.3283245776
 10
459.6299984493
 20
343.083277868
 10
459.6488925371
 20
343.0018154132
  0
ARC
  5
CC
330
1F
100
AcDbEntity
  8
0
  6
HIDDEN
 62
     7
370
    18
100
AcDbCircle
 10
456.7084111815
 20
339.8385076019
 30
0.0
 40
1.274396105889762
100
AcDbArc
 50
169.8389662126
 51
289.2277132978
  0
LINE
  5
CD
330
1F
100
AcDbEntity
  8
0
  6
HIDDEN
 62
     7
370
    18
100
AcDbLine
 10
488.6663762783
 20
357.1072138862
 30
0.0
 11
487.6943542763
 21
355.9038530839
 31
0.0
  0
LINE
  5
CE
330
1F
100
AcDbEntity
  8
0
  6
HIDDEN
 62
     7
370
    18
100
AcDbLine
 10
490.8060219995
 20
353.390384568
 30
0.0
 11
491.7780440015
 21
354.5937453703
 31
0.0
  0
LINE
  5
CF
330
1F
100
AcDbEntity
  8
0
  6
HIDDEN
 62
     7
370
    18
100
AcDbLine
 10
460.7015469808
 20
364.5855515898
 30
0.0
 11
459.0752013841
 21
365.5244209184
 31
0.0
  0
LINE
  5
D0
330
1F
100
AcDbEntity
  8
0
  6
HIDDEN
 62
     7
370
    18
100
AcDbLine
 10
456.0754451862
 20
360.3281277441
 30
0.0
 11
457.7017907829
 21
359.3892584156
 31
0.0
  0
LINE
  5
D1
330
1F
100
AcDbEntity
  8
0
  6
HIDDEN
 62
     7
370
    18
100
AcDbLine
 10
488.6663762783
 20
343.6342904901
 30
0.0
 11
487.6943542763
 21
342.4309296878
 31
0.0
  0
LINE
  5
D2
330
1F
100
AcDbEntity
  8
0
  6
HIDDEN
 62
     7
370
    18
100
AcDbLine
 10
490.8060219995
 20
339.9174611719
 30
0.0
 11
491.7780440015
 21
341.1208219742
 31
0.0
  0
LINE
  5
D3
330
1F
100
AcDbEntity
  8
0
  6
HIDDEN
 62
     7
370
    18
100
AcDbLine
 10
460.7015469808
 20
342.9472200749
 30
0.0
 11
459.0752013841
 21
343.8860894035
 31
0.0
  0
LINE
  5
D4
330
1F
100
AcDbEntity
  8
0
  6
HIDDEN
 62
     7
370
    18
100
AcDbLine
 10
456.0754451862
 20
338.6897962292
 30
0.0
 11
457.7017907829
 21
337.7509269006
 31
0.0
  0
ENDSEC
  0
SECTION
  2
OBJECTS
  0
DICTIONARY
  5
C
330
0
100
AcDbDictionary
281
     1
  3
ACAD_GROUP
350
D
  3
ACAD_LAYOUT
350
1A
  3
ACAD_MLINESTYLE
350
17
  3
ACAD_PLOTSETTINGS
350
19
  3
ACAD_PLOTSTYLENAME
350
E
  3
ACAD_SCALELIST
350
47
  3
DWGPROPS
350
D5
  0
DICTIONARY
  5
D
102
{ACAD_REACTORS
330
C
102
}
330
C
100
AcDbDictionary
281
     1
  0
DICTIONARY
  5
1A
102
{ACAD_REACTORS
330
C
102
}
330
C
100
AcDbDictionary
281
     1
  3
Layout1
350
1E
  3
Layout2
350
26
  3
Model
350
22
  0
DICTIONARY
  5
17
102
{ACAD_REACTORS
330
C
102
}
330
C
100
AcDbDictionary
281
     1
  3
Standard
350
18
  0
DICTIONARY
  5
19
102
{ACAD_REACTORS
330
C
102
}
330
C
100
AcDbDictionary
281
     1
  0
ACDBDICTIONARYWDFLT
  5
E
102
{ACAD_REACTORS
330
C
102
}
330
C
100
AcDbDictionary
281
     1
  3
Normal
350
F
100
AcDbDictionaryWithDefault
340
F
  0
DICTIONARY
  5
47
102
{ACAD_REACTORS
330
C
102
}
330
C
100
AcDbDictionary
281
     1
  3
A0
350
48
  3
A1
350
49
  3
A2
350
4A
  3
A3
350
4B
  3
A4
350
4C
  3
A5
350
4D
  3
A6
350
4E
  3
A7
350
4F
  3
A8
350
50
  3
A9
350
51
  3
B0
350
52
  3
B1
350
53
  3
B2
350
54
  3
B3
350
55
  3
B4
350
56
  3
B5
350
57
  3
B6
350
58
  0
XRECORD
  5
D5
102
{ACAD_REACTORS
330
C
102
}
330
C
100
AcDbXrecord
280
     1
  1
DWGPROPS COOKIE
  2

  3

  4

  6

  7

  8
imaizumi
  9

300
=
301
=
302
=
303
=
304
=
305
=
306
=
307
=
308
=
309
=
 40
0.0
 41
2461263.042790556
 42
2461263.042791111
  1

 90
        0
  0
LAYOUT
  5
1E
102
{ACAD_REACTORS
330
1A
102
}
330
1A
100
AcDbPlotSettings
  1

  2
none_device
  4

  6

 40
0.0
 41
0.0
 42
0.0
 43
0.0
 44
0.0
 45
0.0
 46
0.0
 47
0.0
 48
0.0
 49
0.0
140
0.0
141
0.0
142
1.0
143
1.0
 70
   688
 72
     1
 73
     0
 74
     5
  7

 75
    16
147
1.0
148
0.0
149
0.0
100
AcDbLayout
  1
Layout1
 70
     1
 71
     1
 10
0.0
 20
0.0
 11
420.0
 21
297.0
 12
0.0
 22
0.0
 32
0.0
 14
1.0000000000E+20
 24
1.0000000000E+20
 34
1.0000000000E+20
 15
-1.0000000000E+20
 25
-1.0000000000E+20
 35
-1.0000000000E+20
146
0.0
 13
0.0
 23
0.0
 33
0.0
 16
1.0
 26
0.0
 36
0.0
 17
0.0
 27
1.0
 37
0.0
 76
     0
330
1B
  0
LAYOUT
  5
26
102
{ACAD_REACTORS
330
1A
102
}
330
1A
100
AcDbPlotSettings
  1

  2
none_device
  4

  6

 40
0.0
 41
0.0
 42
0.0
 43
0.0
 44
0.0
 45
0.0
 46
0.0
 47
0.0
 48
0.0
 49
0.0
140
0.0
141
0.0
142
1.0
143
1.0
 70
   688
 72
     1
 73
     0
 74
     5
  7

 75
    16
147
1.0
148
0.0
149
0.0
100
AcDbLayout
  1
Layout2
 70
     1
 71
     2
 10
0.0
 20
0.0
 11
0.0
 21
0.0
 12
0.0
 22
0.0
 32
0.0
 14
0.0
 24
0.0
 34
0.0
 15
0.0
 25
0.0
 35
0.0
146
0.0
 13
0.0
 23
0.0
 33
0.0
 16
1.0
 26
0.0
 36
0.0
 17
0.0
 27
1.0
 37
0.0
 76
     0
330
23
  0
LAYOUT
  5
22
102
{ACAD_REACTORS
330
1A
102
}
330
1A
100
AcDbPlotSettings
  1

  2
none_device
  4
Letter_(8.50_x_11.00_Inches)
  6

 40
6.35
 41
6.35
 42
6.35000508
 43
6.35000508
 44
215.9
 45
279.4
 46
0.0
 47
0.0
 48
0.0
 49
0.0
140
0.0
141
0.0
142
1.0
143
1.0
 70
  1712
 72
     1
 73
     0
 74
     0
  7

 75
     0
147
1.0
148
0.0
149
0.0
100
AcDbLayout
  1
Model
 70
     1
 71
     0
 10
0.0
 20
0.0
 11
841.0
 21
594.0
 12
0.0
 22
0.0
 32
0.0
 14
0.0
 24
0.0
 34
0.0
 15
841.0
 25
594.0
 35
0.0
146
0.0
 13
0.0
 23
0.0
 33
0.0
 16
1.0
 26
0.0
 36
0.0
 17
0.0
 27
1.0
 37
0.0
 76
     0
330
1F
331
29
  0
MLINESTYLE
  5
18
102
{ACAD_REACTORS
330
17
102
}
330
17
100
AcDbMlineStyle
  2
Standard
 70
     0
  3

 62
   256
 51
90.0
 52
90.0
 71
     2
 49
0.5
 62
   256
  6
BYLAYER
 49
-0.5
 62
   256
  6
BYLAYER
  0
ACDBPLACEHOLDER
  5
F
102
{ACAD_REACTORS
330
E
102
}
330
E
  0
SCALE
  5
48
102
{ACAD_REACTORS
330
47
102
}
330
47
100
AcDbScale
 70
     0
300
1:1
140
1.0
141
1.0
290
     1
  0
SCALE
  5
49
102
{ACAD_REACTORS
330
47
102
}
330
47
100
AcDbScale
 70
     0
300
1:2
140
1.0
141
2.0
290
     0
  0
SCALE
  5
4A
102
{ACAD_REACTORS
330
47
102
}
330
47
100
AcDbScale
 70
     0
300
1:4
140
1.0
141
4.0
290
     0
  0
SCALE
  5
4B
102
{ACAD_REACTORS
330
47
102
}
330
47
100
AcDbScale
 70
     0
300
1:5
140
1.0
141
5.0
290
     0
  0
SCALE
  5
4C
102
{ACAD_REACTORS
330
47
102
}
330
47
100
AcDbScale
 70
     0
300
1:8
140
1.0
141
8.0
290
     0
  0
SCALE
  5
4D
102
{ACAD_REACTORS
330
47
102
}
330
47
100
AcDbScale
 70
     0
300
1:10
140
1.0
141
10.0
290
     0
  0
SCALE
  5
4E
102
{ACAD_REACTORS
330
47
102
}
330
47
100
AcDbScale
 70
     0
300
1:16
140
1.0
141
16.0
290
     0
  0
SCALE
  5
4F
102
{ACAD_REACTORS
330
47
102
}
330
47
100
AcDbScale
 70
     0
300
1:20
140
1.0
141
20.0
290
     0
  0
SCALE
  5
50
102
{ACAD_REACTORS
330
47
102
}
330
47
100
AcDbScale
 70
     0
300
1:30
140
1.0
141
30.0
290
     0
  0
SCALE
  5
51
102
{ACAD_REACTORS
330
47
102
}
330
47
100
AcDbScale
 70
     0
300
1:40
140
1.0
141
40.0
290
     0
  0
SCALE
  5
52
102
{ACAD_REACTORS
330
47
102
}
330
47
100
AcDbScale
 70
     0
300
1:50
140
1.0
141
50.0
290
     0
  0
SCALE
  5
53
102
{ACAD_REACTORS
330
47
102
}
330
47
100
AcDbScale
 70
     0
300
1:100
140
1.0
141
100.0
290
     0
  0
SCALE
  5
54
102
{ACAD_REACTORS
330
47
102
}
330
47
100
AcDbScale
 70
     0
300
2:1
140
2.0
141
1.0
290
     0
  0
SCALE
  5
55
102
{ACAD_REACTORS
330
47
102
}
330
47
100
AcDbScale
 70
     0
300
4:1
140
4.0
141
1.0
290
     0
  0
SCALE
  5
56
102
{ACAD_REACTORS
330
47
102
}
330
47
100
AcDbScale
 70
     0
300
8:1
140
8.0
141
1.0
290
     0
  0
SCALE
  5
57
102
{ACAD_REACTORS
330
47
102
}
330
47
100
AcDbScale
 70
     0
300
10:1
140
10.0
141
1.0
290
     0
  0
SCALE
  5
58
102
{ACAD_REACTORS
330
47
102
}
330
47
100
AcDbScale
 70
     0
300
100:1
140
100.0
141
1.0
290
     0
  0
ENDSEC
  0
EOF
