  0
SECTION
  2
HEADER
  9
$ACADVER
  1
AC1015
  9
$ACADMAINTVER
 70
     6
  9
$DWGCODEPAGE
  3
DOS932
  9
$INSBASE
 10
0.0
 20
0.0
 30
0.0
  9
$EXTMIN
 10
0.0
 20
0.0
 30
0.0
  9
$EXTMAX
 10
841.0
 20
594.0
 30
0.0
  9
$LIMMIN
 10
0.0
 20
0.0
  9
$LIMMAX
 10
841.0
 20
594.0
  9
$ORTHOMODE
 70
     0
  9
$REGENMODE
 70
     1
  9
$FILLMODE
 70
     1
  9
$QTEXTMODE
 70
     0
  9
$MIRRTEXT
 70
     1
  9
$LTSCALE
 40
1.0
  9
$ATTMODE
 70
     1
  9
$TEXTSIZE
 40
3.5
  9
$TRACEWID
 40
1.0
  9
$TEXTSTYLE
  7
Standard
  9
$CLAYER
  8
0
  9
$CELTYPE
  6
ByLayer
  9
$CECOLOR
 62
   256
  9
$CELTSCALE
 40
1.0
  9
$DISPSILH
 70
     0
  9
$DIMSCALE
 40
1.0
  9
$DIMASZ
 40
3.302
  9
$DIMEXO
 40
1.0
  9
$DIMDLI
 40
3.75
  9
$DIMRND
 40
0.0
  9
$DIMDLE
 40
0.0
  9
$DIMEXE
 40
1.0
  9
$DIMTP
 40
0.0
  9
$DIMTM
 40
0.0
  9
$DIMTXT
 40
3.5
  9
$DIMCEN
 40
2.5
  9
$DIMTSZ
 40
0.0
  9
$DIMTOL
 70
     0
  9
$DIMLIM
 70
     0
  9
$DIMTIH
 70
     1
  9
$DIMTOH
 70
     1
  9
$DIMSE1
 70
     0
  9
$DIMSE2
 70
     0
  9
$DIMTAD
 70
     1
  9
$DIMZIN
 70
     1
  9
$DIMBLK
  1

  9
$DIMASO
 70
     1
  9
$DIMSHO
 70
     1
  9
$DIMPOST
  1

  9
$DIMAPOST
  1

  9
$DIMALT
 70
     0
  9
$DIMALTD
 70
     3
  9
$DIMALTF
 40
0.0393700787
  9
$DIMLFAC
 40
2.0
  9
$DIMTOFL
 70
     1
  9
$DIMTVP
 40
0.0
  9
$DIMTIX
 70
     0
  9
$DIMSOXD
 70
     0
  9
$DIMSAH
 70
     0
  9
$DIMBLK1
  1

  9
$DIMBLK2
  1

  9
$DIMSTYLE
  2
ISO-25
  9
$DIMCLRD
 70
     0
  9
$DIMCLRE
 70
     0
  9
$DIMCLRT
 70
     0
  9
$DIMTFAC
 40
1.0
  9
$DIMGAP
 40
1.524
  9
$DIMJUST
 70
     0
  9
$DIMSD1
 70
     0
  9
$DIMSD2
 70
     0
  9
$DIMTOLJ
 70
     0
  9
$DIMTZIN
 70
     1
  9
$DIMALTZ
 70
     0
  9
$DIMALTTZ
 70
     0
  9
$DIMUPT
 70
     0
  9
$DIMDEC
 70
     2
  9
$DIMTDEC
 70
     2
  9
$DIMALTU
 70
     2
  9
$DIMALTTD
 70
     3
  9
$DIMTXSTY
  7
Standard
  9
$DIMAUNIT
 70
     0
  9
$DIMADEC
 70
     2
  9
$DIMALTRND
 40
0.0
  9
$DIMAZIN
 70
     0
  9
$DIMDSEP
 70
    44
  9
$DIMATFIT
 70
     3
  9
$DIMFRAC
 70
     0
  9
$DIMLDRBLK
  1

  9
$DIMLUNIT
 70
     2
  9
$DIMLWD
 70
    -2
  9
$DIMLWE
 70
    -2
  9
$DIMTMOVE
 70
     0
  9
$LUNITS
 70
     2
  9
$LUPREC
 70
     2
  9
$SKETCHINC
 40
1.0
  9
$FILLETRAD
 40
0.0
  9
$AUNITS
 70
     0
  9
$AUPREC
 70
     2
  9
$MENU
  1
.
  9
$ELEVATION
 40
0.0
  9
$PELEVATION
 40
0.0
  9
$THICKNESS
 40
0.0
  9
$LIMCHECK
 70
     0
  9
$CHAMFERA
 40
0.0
  9
$CHAMFERB
 40
0.0
  9
$CHAMFERC
 40
0.0
  9
$CHAMFERD
 40
0.0
  9
$SKPOLY
 70
     0
  9
$TDCREATE
 40
2461263.44440382
  9
$TDUCREATE
 40
2461263.06940382
  9
$TDUPDATE
 40
2461263.444404584
  9
$TDUUPDATE
 40
2461263.069404584
  9
$TDINDWG
 40
0.0000000116
  9
$TDUSRTIMER
 40
0.0000000116
  9
$USRTIMER
 70
     1
  9
$ANGBASE
 50
0.0
  9
$ANGDIR
 70
     0
  9
$PDMODE
 70
     0
  9
$PDSIZE
 40
-1.0
  9
$PLINEWID
 40
0.0
  9
$SPLFRAME
 70
     0
  9
$SPLINETYPE
 70
     6
  9
$SPLINESEGS
 70
     8
  9
$HANDSEED
  5
125
  9
$SURFTAB1
 70
     6
  9
$SURFTAB2
 70
     6
  9
$SURFTYPE
 70
     6
  9
$SURFU
 70
     6
  9
$SURFV
 70
     6
  9
$UCSBASE
  2

  9
$UCSNAME
  2

  9
$UCSORG
 10
0.0
 20
0.0
 30
0.0
  9
$UCSXDIR
 10
1.0
 20
0.0
 30
0.0
  9
$UCSYDIR
 10
0.0
 20
1.0
 30
0.0
  9
$UCSORTHOREF
  2

  9
$UCSORTHOVIEW
 70
     0
  9
$UCSORGTOP
 10
0.0
 20
0.0
 30
0.0
  9
$UCSORGBOTTOM
 10
0.0
 20
0.0
 30
0.0
  9
$UCSORGLEFT
 10
0.0
 20
0.0
 30
0.0
  9
$UCSORGRIGHT
 10
0.0
 20
0.0
 30
0.0
  9
$UCSORGFRONT
 10
0.0
 20
0.0
 30
0.0
  9
$UCSORGBACK
 10
0.0
 20
0.0
 30
0.0
  9
$PUCSBASE
  2

  9
$PUCSNAME
  2

  9
$PUCSORG
 10
0.0
 20
0.0
 30
0.0
  9
$PUCSXDIR
 10
1.0
 20
0.0
 30
0.0
  9
$PUCSYDIR
 10
0.0
 20
1.0
 30
0.0
  9
$PUCSORTHOREF
  2

  9
$PUCSORTHOVIEW
 70
     0
  9
$PUCSORGTOP
 10
0.0
 20
0.0
 30
0.0
  9
$PUCSORGBOTTOM
 10
0.0
 20
0.0
 30
0.0
  9
$PUCSORGLEFT
 10
0.0
 20
0.0
 30
0.0
  9
$PUCSORGRIGHT
 10
0.0
 20
0.0
 30
0.0
  9
$PUCSORGFRONT
 10
0.0
 20
0.0
 30
0.0
  9
$PUCSORGBACK
 10
0.0
 20
0.0
 30
0.0
  9
$USERI1
 70
     0
  9
$USERI2
 70
     0
  9
$USERI3
 70
     0
  9
$USERI4
 70
     0
  9
$USERI5
 70
     0
  9
$USERR1
 40
0.0
  9
$USERR2
 40
0.0
  9
$USERR3
 40
0.0
  9
$USERR4
 40
0.0
  9
$USERR5
 40
0.0
  9
$WORLDVIEW
 70
     1
  9
$SHADEDGE
 70
     3
  9
$SHADEDIF
 70
    70
  9
$TILEMODE
 70
     1
  9
$MAXACTVP
 70
    64
  9
$PINSBASE
 10
0.0
 20
0.0
 30
0.0
  9
$PLIMCHECK
 70
     0
  9
$PEXTMIN
 10
1.0000000000E+20
 20
1.0000000000E+20
 30
1.0000000000E+20
  9
$PEXTMAX
 10
-1.0000000000E+20
 20
-1.0000000000E+20
 30
-1.0000000000E+20
  9
$PLIMMIN
 10
0.0
 20
0.0
  9
$PLIMMAX
 10
420.0
 20
297.0
  9
$UNITMODE
 70
     0
  9
$VISRETAIN
 70
     1
  9
$PLINEGEN
 70
     0
  9
$PSLTSCALE
 70
     1
  9
$TREEDEPTH
 70
  3020
  9
$CMLSTYLE
  2
Standard
  9
$CMLJUST
 70
     0
  9
$CMLSCALE
 40
20.0
  9
$PROXYGRAPHICS
 70
     1
  9
$MEASUREMENT
 70
     1
  9
$CELWEIGHT
370
    -1
  9
$ENDCAPS
280
     0
  9
$JOINSTYLE
280
     0
  9
$LWDISPLAY
290
     1
  9
$INSUNITS
 70
     4
  9
$HYPERLINKBASE
  1

  9
$STYLESHEET
  1

  9
$XEDIT
290
     1
  9
$CEPSNTYPE
380
     0
  9
$PSTYLEMODE
290
     1
  9
$FINGERPRINTGUID
  2
{bad48da0-e482-4d07-986c-f94a620a3666}
  9
$VERSIONGUID
  2
{FAEB1C32-E019-11D5-929B-00C0DF256EC4}
  9
$EXTNAMES
290
     1
  9
$PSVPSCALE
 40
0.0
  9
$OLESTARTUP
290
     0
  0
ENDSEC
  0
SECTION
  2
CLASSES
  0
CLASS
  1
ACDBDICTIONARYWDFLT
  2
AcDbDictionaryWithDefault
  3
ObjectDBX Classes
 90
        0
280
     0
281
     0
  0
CLASS
  1
VISUALSTYLE
  2
AcDbVisualStyle
  3
ObjectDBX Classes
 90
     4095
280
     0
281
     0
  0
CLASS
  1
MATERIAL
  2
AcDbMaterial
  3
ObjectDBX Classes
 90
     1153
280
     0
281
     0
  0
CLASS
  1
SCALE
  2
AcDbScale
  3
ObjectDBX Classes
 90
     1153
280
     0
281
     0
  0
CLASS
  1
TABLESTYLE
  2
AcDbTableStyle
  3
ObjectDBX Classes
 90
     4095
280
     0
281
     0
  0
CLASS
  1
MLEADERSTYLE
  2
AcDbMLeaderStyle
  3
ACDB_MLEADERSTYLE_CLASS
 90
     4095
280
     0
281
     0
  0
CLASS
  1
SUN
  2
AcDbSun
  3
SCENEOE
 90
     1153
280
     0
281
     0
  0
CLASS
  1
ACDBPLACEHOLDER
  2
AcDbPlaceHolder
  3
ObjectDBX Classes
 90
        0
280
     0
281
     0
  0
CLASS
  1
LAYOUT
  2
AcDbLayout
  3
ObjectDBX Classes
 90
        0
280
     0
281
     0
  0
ENDSEC
  0
SECTION
  2
TABLES
  0
TABLE
  2
VPORT
  5
8
330
0
100
AcDbSymbolTable
 70
     1
  0
VPORT
  5
29
330
8
100
AcDbSymbolTableRecord
100
AcDbViewportTableRecord
  2
*Active
 70
     0
 10
0.0
 20
0.0
 11
1.0
 21
1.0
 12
420.5
 22
297.0
 13
0.0
 23
0.0
 14
10.0
 24
10.0
 15
10.0
 25
10.0
 16
0.0
 26
0.0
 36
1.0
 17
0.0
 27
0.0
 37
0.0
 40
594.0
 41
1.4158249158
 42
50.0
 43
0.0
 44
0.0
 50
0.0
 51
0.0
 71
     0
 72
  2000
 73
     1
 74
     3
 75
     0
 76
     0
 77
     0
 78
     0
281
     0
 65
     1
110
0.0
120
0.0
130
0.0
111
1.0
121
0.0
131
0.0
112
0.0
122
1.0
132
0.0
 79
     0
146
0.0
  0
ENDTAB
  0
TABLE
  2
LTYPE
  5
5
330
0
100
AcDbSymbolTable
 70
     6
  0
LTYPE
  5
14
330
5
100
AcDbSymbolTableRecord
100
AcDbLinetypeTableRecord
  2
ByBlock
 70
     0
  3

 72
    65
 73
     0
 40
0.0
  0
LTYPE
  5
15
330
5
100
AcDbSymbolTableRecord
100
AcDbLinetypeTableRecord
  2
ByLayer
 70
     0
  3

 72
    65
 73
     0
 40
0.0
  0
LTYPE
  5
16
330
5
100
AcDbSymbolTableRecord
100
AcDbLinetypeTableRecord
  2
Continuous
 70
     0
  3
Solid line
 72
    65
 73
     0
 40
0.0
  0
LTYPE
  5
5E
330
5
100
AcDbSymbolTableRecord
100
AcDbLinetypeTableRecord
  2
HIDDEN
 70
     0
  3
Hidden __ __ __ __ __ __ __ __ __ __ __ __ __ __
 72
    65
 73
     2
 40
1.905
 49
1.27
 74
     0
 49
-0.635
 74
     0
  0
LTYPE
  5
5F
330
5
100
AcDbSymbolTableRecord
100
AcDbLinetypeTableRecord
  2
PHANTOM
 70
     0
  3
Phantom ______  __  __  ______  __  __  ______
 72
    65
 73
     6
 40
12.7
 49
6.35
 74
     0
 49
-1.27
 74
     0
 49
1.27
 74
     0
 49
-1.27
 74
     0
 49
1.27
 74
     0
 49
-1.27
 74
     0
  0
LTYPE
  5
60
330
5
100
AcDbSymbolTableRecord
100
AcDbLinetypeTableRecord
  2
CENTER
 70
     0
  3
Center ____ _ ____ _ ____ _ ____ _ ____ _ ____
 72
    65
 73
     4
 40
10.16
 49
6.35
 74
     0
 49
-1.27
 74
     0
 49
1.27
 74
     0
 49
-1.27
 74
     0
  0
LTYPE
  5
61
330
5
100
AcDbSymbolTableRecord
100
AcDbLinetypeTableRecord
  2
CENTERX2
 70
     0
  3
Center (2x) ________  __  ________  __  _____
 72
    65
 73
     4
 40
20.32
 49
12.7
 74
     0
 49
-2.54
 74
     0
 49
2.54
 74
     0
 49
-2.54
 74
     0
  0
LTYPE
  5
62
330
5
100
AcDbSymbolTableRecord
100
AcDbLinetypeTableRecord
  2
DOT2
 70
     0
  3
Dot (.5x) ........................................
 72
    65
 73
     2
 40
0.635
 49
0.0
 74
     0
 49
-0.635
 74
     0
  0
ENDTAB
  0
TABLE
  2
LAYER
  5
2
330
0
100
AcDbSymbolTable
 70
     1
  0
LAYER
  5
10
330
2
100
AcDbSymbolTableRecord
100
AcDbLayerTableRecord
  2
0
 70
     0
 62
     7
  6
Continuous
370
    -3
390
F
  0
ENDTAB
  0
TABLE
  2
STYLE
  5
3
330
0
100
AcDbSymbolTable
 70
     1
  0
STYLE
  5
11
330
3
100
AcDbSymbolTableRecord
100
AcDbTextStyleTableRecord
  2
Standard
 70
     0
 40
0.0
 41
1.0
 50
0.0
 71
     0
 42
3.5
  3
txt
  4
bigfont
  0
ENDTAB
  0
TABLE
  2
VIEW
  5
6
330
0
100
AcDbSymbolTable
 70
     0
  0
ENDTAB
  0
TABLE
  2
UCS
  5
7
330
0
100
AcDbSymbolTable
 70
     0
  0
ENDTAB
  0
TABLE
  2
APPID
  5
9
330
0
100
AcDbSymbolTable
 70
     1
  0
APPID
  5
12
330
9
100
AcDbSymbolTableRecord
100
AcDbRegAppTableRecord
  2
ACAD
 70
     0
  0
ENDTAB
  0
TABLE
  2
DIMSTYLE
  5
A
330
0
100
AcDbSymbolTable
 70
     1
100
AcDbDimStyleTable
  0
DIMSTYLE
105
27
330
A
100
AcDbSymbolTableRecord
100
AcDbDimStyleTableRecord
  2
ISO-25
 70
     0
 41
2.5
 42
0.625
 43
3.75
 44
1.25
 73
     0
 74
     0
 77
     1
 78
     8
140
2.5
141
2.5
143
0.0393700787
147
0.625
171
     3
172
     1
178
     0
271
     2
272
     2
274
     3
278
    44
283
     0
284
     8
340
11
  0
ENDTAB
  0
TABLE
  2
BLOCK_RECORD
  5
1
330
0
100
AcDbSymbolTable
 70
     1
  0
BLOCK_RECORD
  5
1F
330
1
100
AcDbSymbolTableRecord
100
AcDbBlockTableRecord
  2
*Model_Space
340
22
  0
BLOCK_RECORD
  5
1B
330
1
100
AcDbSymbolTableRecord
100
AcDbBlockTableRecord
  2
*Paper_Space
340
1E
  0
BLOCK_RECORD
  5
23
330
1
100
AcDbSymbolTableRecord
100
AcDbBlockTableRecord
  2
*Paper_Space0
340
26
  0
ENDTAB
  0
ENDSEC
  0
SECTION
  2
BLOCKS
  0
BLOCK
  5
20
330
1F
100
AcDbEntity
  8
0
100
AcDbBlockBegin
  2
*Model_Space
 70
     0
 10
0.0
 20
0.0
 30
0.0
  3
*Model_Space
  1

  0
ENDBLK
  5
21
330
1F
100
AcDbEntity
  8
0
100
AcDbBlockEnd
  0
BLOCK
  5
1C
330
1B
100
AcDbEntity
 67
     1
  8
0
100
AcDbBlockBegin
  2
*Paper_Space
 70
     0
 10
0.0
 20
0.0
 30
0.0
  3
*Paper_Space
  1

  0
ENDBLK
  5
1D
330
1B
100
AcDbEntity
 67
     1
  8
0
100
AcDbBlockEnd
  0
BLOCK
  5
24
330
23
100
AcDbEntity
  8
0
100
AcDbBlockBegin
  2
*Paper_Space0
 70
     0
 10
0.0
 20
0.0
 30
0.0
  3
*Paper_Space0
  1

  0
ENDBLK
  5
25
330
23
100
AcDbEntity
  8
0
100
AcDbBlockEnd
  0
ENDSEC
  0
SECTION
  2
ENTITIES
  0
LINE
  5
63
330
1F
100
AcDbEntity
  8
0
  6
Continuous
 62
     7
370
    25
100
AcDbLine
 10
11.9656477513
 20
83.2507991232
 30
0.0
 11
11.9656477513
 21
67.2507991232
 31
0.0
  0
LINE
  5
64
330
1F
100
AcDbEntity
  8
0
  6
Continuous
 62
     7
370
    25
100
AcDbLine
 10
193.215847113
 20
83.2507991232
 30
0.0
 11
193.215847113
 21
67.2507991232
 31
0.0
  0
LINE
  5
65
330
1F
100
AcDbEntity
  8
0
  6
Continuous
 62
     7
370
    25
100
AcDbLine
 10
193.215847113
 20
83.2507991232
 30
0.0
 11
285.9508740319
 21
83.2507991232
 31
0.0
  0
LINE
  5
66
330
1F
100
AcDbEntity
  8
0
  6
Continuous
 62
     7
370
    25
100
AcDbLine
 10
193.215847113
 20
67.2507991232
 30
0.0
 11
285.9508740319
 21
67.2507991232
 31
0.0
  0
LINE
  5
67
330
1F
100
AcDbEntity
  8
0
  6
Continuous
 62
     7
370
    25
100
AcDbLine
 10
12.3675715399
 20
83.2507991232
 30
0.0
 11
193.215847113
 21
83.2507991232
 31
0.0
  0
LINE
  5
68
330
1F
100
AcDbEntity
  8
0
  6
Continuous
 62
     7
370
    25
100
AcDbLine
 10
12.3675715399
 20
67.2507991232
 30
0.0
 11
193.215847113
 21
67.2507991232
 31
0.0
  0
LINE
  5
69
330
1F
100
AcDbEntity
  8
0
  6
Continuous
 62
     7
370
    25
100
AcDbLine
 10
295.9508740319
 20
83.2507991232
 30
0.0
 11
295.9508740319
 21
67.2507991232
 31
0.0
  0
LINE
  5
6A
330
1F
100
AcDbEntity
  8
0
  6
Continuous
 62
     7
370
    25
100
AcDbLine
 10
285.9508740319
 20
83.2507991232
 30
0.0
 11
295.9508740319
 21
83.2507991232
 31
0.0
  0
LINE
  5
6B
330
1F
100
AcDbEntity
  8
0
  6
Continuous
 62
     7
370
    25
100
AcDbLine
 10
285.9508740319
 20
67.2507991232
 30
0.0
 11
295.9508740319
 21
67.2507991232
 31
0.0
  0
LINE
  5
6C
330
1F
100
AcDbEntity
  8
0
  6
Continuous
 62
     7
370
    25
100
AcDbLine
 10
11.9656477513
 20
83.2507991232
 30
0.0
 11
12.3675715399
 21
83.2507991232
 31
0.0
  0
LINE
  5
6D
330
1F
100
AcDbEntity
  8
0
  6
Continuous
 62
     7
370
    25
100
AcDbLine
 10
11.9656477513
 20
67.2507991232
 30
0.0
 11
12.3675715399
 21
67.2507991232
 31
0.0
  0
LINE
  5
6E
330
1F
100
AcDbEntity
  8
0
  6
HIDDEN
 62
     7
370
    18
100
AcDbLine
 10
250.9508740319
 20
83.2507991232
 30
0.0
 11
250.9508740319
 21
67.2507991232
 31
0.0
  0
LINE
  5
6F
330
1F
100
AcDbEntity
  8
0
  6
HIDDEN
 62
     7
370
    18
100
AcDbLine
 10
277.9508740319
 20
67.2507991232
 30
0.0
 11
277.9508740319
 21
83.2507991232
 31
0.0
  0
LINE
  5
70
330
1F
100
AcDbEntity
  8
0
  6
HIDDEN
 62
     7
370
    18
100
AcDbLine
 10
263.9508740319
 20
83.2507991232
 30
0.0
 11
263.9508740319
 21
67.2507991232
 31
0.0
  0
LINE
  5
71
330
1F
100
AcDbEntity
  8
0
  6
HIDDEN
 62
     7
370
    18
100
AcDbLine
 10
209.1880796156
 20
67.2507991232
 30
0.0
 11
209.1880796156
 21
83.2507991232
 31
0.0
  0
LINE
  5
72
330
1F
100
AcDbEntity
  8
0
  6
HIDDEN
 62
     7
370
    18
100
AcDbLine
 10
204.1880796156
 20
83.2507991232
 30
0.0
 11
204.1880796156
 21
67.2507991232
 31
0.0
  0
LINE
  5
73
330
1F
100
AcDbEntity
  8
0
  6
HIDDEN
 62
     7
370
    18
100
AcDbLine
 10
275.9508740319
 20
67.2507991232
 30
0.0
 11
275.9508740319
 21
83.2507991232
 31
0.0
  0
LINE
  5
74
330
1F
100
AcDbEntity
  8
0
  6
HIDDEN
 62
     7
370
    18
100
AcDbLine
 10
265.9508740319
 20
83.2507991232
 30
0.0
 11
265.9508740319
 21
67.2507991232
 31
0.0
  0
LINE
  5
75
330
1F
100
AcDbEntity
  8
0
  6
HIDDEN
 62
     7
370
    18
100
AcDbLine
 10
274.1399848995
 20
67.2507991232
 30
0.0
 11
274.1399848995
 21
83.2507991232
 31
0.0
  0
LINE
  5
76
330
1F
100
AcDbEntity
  8
0
  6
HIDDEN
 62
     7
370
    18
100
AcDbLine
 10
269.1399848995
 20
83.2507991232
 30
0.0
 11
269.1399848995
 21
67.2507991232
 31
0.0
  0
LINE
  5
77
330
1F
100
AcDbEntity
  8
0
  6
HIDDEN
 62
     7
370
    18
100
AcDbLine
 10
191.1066639027
 20
83.2507991232
 30
0.0
 11
191.1066639027
 21
67.2507991232
 31
0.0
  0
LINE
  5
78
330
1F
100
AcDbEntity
  8
0
  6
HIDDEN
 62
     7
370
    18
100
AcDbLine
 10
197.1066639027
 20
67.2507991232
 30
0.0
 11
197.1066639027
 21
83.2507991232
 31
0.0
  0
LINE
  5
79
330
1F
100
AcDbEntity
  8
0
  6
HIDDEN
 62
     7
370
    18
100
AcDbLine
 10
136.1066639027
 20
83.2507991232
 30
0.0
 11
136.1066639027
 21
67.2507991232
 31
0.0
  0
LINE
  5
7A
330
1F
100
AcDbEntity
  8
0
  6
HIDDEN
 62
     7
370
    18
100
AcDbLine
 10
142.1066639027
 20
67.2507991232
 30
0.0
 11
142.1066639027
 21
83.2507991232
 31
0.0
  0
LINE
  5
7B
330
1F
100
AcDbEntity
  8
0
  6
HIDDEN
 62
     7
370
    18
100
AcDbLine
 10
87.1066639027
 20
67.2507991232
 30
0.0
 11
87.1066639027
 21
83.2507991232
 31
0.0
  0
LINE
  5
7C
330
1F
100
AcDbEntity
  8
0
  6
HIDDEN
 62
     7
370
    18
100
AcDbLine
 10
81.1066639027
 20
83.2507991232
 30
0.0
 11
81.1066639027
 21
67.2507991232
 31
0.0
  0
LINE
  5
7D
330
1F
100
AcDbEntity
  8
0
  6
HIDDEN
 62
     7
370
    18
100
AcDbLine
 10
34.1880796156
 20
67.2507991232
 30
0.0
 11
34.1880796156
 21
83.2507991232
 31
0.0
  0
LINE
  5
7E
330
1F
100
AcDbEntity
  8
0
  6
HIDDEN
 62
     7
370
    18
100
AcDbLine
 10
29.1880796156
 20
83.2507991232
 30
0.0
 11
29.1880796156
 21
67.2507991232
 31
0.0
  0
LINE
  5
7F
330
1F
100
AcDbEntity
  8
0
  6
HIDDEN
 62
     7
370
    18
100
AcDbLine
 10
94.1399848995
 20
83.2507991232
 30
0.0
 11
94.1399848995
 21
67.2507991232
 31
0.0
  0
LINE
  5
80
330
1F
100
AcDbEntity
  8
0
  6
HIDDEN
 62
     7
370
    18
100
AcDbLine
 10
99.1399848995
 20
67.2507991232
 30
0.0
 11
99.1399848995
 21
83.2507991232
 31
0.0
  0
ARC
  5
81
330
1F
100
AcDbEntity
  8
0
  6
Continuous
 62
     7
370
    25
100
AcDbCircle
 10
14.9656477513
 20
461.7492008768
 30
0.0
 40
3.000000000000183
100
AcDbArc
 50
120.0
 51
210.0
  0
LINE
  5
82
330
1F
100
AcDbEntity
  8
0
  6
Continuous
 62
     7
370
    25
100
AcDbLine
 10
120.8527978206
 20
526.3472770882
 30
0.0
 11
13.4656477513
 21
464.3472770882
 31
0.0
  0
ARC
  5
83
330
1F
100
AcDbEntity
  8
0
  6
Continuous
 62
     7
370
    25
100
AcDbCircle
 10
122.3527978206
 20
523.7492008768
 30
0.0
 40
3.00000000000016
100
AcDbArc
 50
30.0
 51
90.0
  0
LINE
  5
84
330
1F
100
AcDbEntity
  8
0
  6
Continuous
 62
     7
370
    25
100
AcDbLine
 10
250.9508740319
 20
307.0107991232
 30
0.0
 11
124.9508740319
 21
525.2492008768
 31
0.0
  0
LINE
  5
85
330
1F
100
AcDbEntity
  8
0
  6
Continuous
 62
     7
370
    25
100
AcDbLine
 10
285.9508740319
 20
307.0107991232
 30
0.0
 11
250.9508740319
 21
307.0107991232
 31
0.0
  0
ARC
  5
86
330
1F
100
AcDbEntity
  8
0
  6
Continuous
 62
     7
370
    25
100
AcDbCircle
 10
285.9508740319
 20
297.0107991232
 30
0.0
 40
10.00000000000006
100
AcDbArc
 50
0.0
 51
90.0
  0
LINE
  5
87
330
1F
100
AcDbEntity
  8
0
  6
Continuous
 62
     7
370
    25
100
AcDbLine
 10
295.9508740319
 20
157.0107991232
 30
0.0
 11
295.9508740319
 21
297.0107991232
 31
0.0
  0
ARC
  5
88
330
1F
100
AcDbEntity
  8
0
  6
Continuous
 62
     7
370
    25
100
AcDbCircle
 10
285.9508740319
 20
157.0107991232
 30
0.0
 40
10.00000000000003
100
AcDbArc
 50
270.0
 51
0.0
  0
LINE
  5
89
330
1F
100
AcDbEntity
  8
0
  6
Continuous
 62
     7
370
    25
100
AcDbLine
 10
193.215847113
 20
147.0107991232
 30
0.0
 11
285.9508740319
 21
147.0107991232
 31
0.0
  0
LINE
  5
8A
330
1F
100
AcDbEntity
  8
0
  6
Continuous
 62
     7
370
    25
100
AcDbLine
 10
12.3675715399
 20
460.2492008768
 30
0.0
 11
193.215847113
 21
147.0107991232
 31
0.0
  0
ARC
  5
8B
330
1F
100
AcDbEntity
  8
0
  6
Continuous
 62
     7
370
    25
100
AcDbCircle
 10
270.9508740319
 20
162.0107991232
 30
0.0
 40
7.0
100
AcDbArc
 50
270.0
 51
90.0
  0
ARC
  5
8C
330
1F
100
AcDbEntity
  8
0
  6
Continuous
 62
     7
370
    25
100
AcDbCircle
 10
270.9508740319
 20
162.0107991232
 30
0.0
 40
7.0
100
AcDbArc
 50
90.0
 51
270.0
  0
ARC
  5
8D
330
1F
100
AcDbEntity
  8
0
  6
Continuous
 62
     7
370
    25
100
AcDbCircle
 10
270.9508740319
 20
187.0107991232
 30
0.0
 40
5.000000000000028
100
AcDbArc
 50
270.0
 51
90.0
  0
ARC
  5
8E
330
1F
100
AcDbEntity
  8
0
  6
Continuous
 62
     7
370
    25
100
AcDbCircle
 10
270.9508740319
 20
187.0107991232
 30
0.0
 40
5.000000000000028
100
AcDbArc
 50
90.0
 51
270.0
  0
ARC
  5
8F
330
1F
100
AcDbEntity
  8
0
  6
Continuous
 62
     7
370
    25
100
AcDbCircle
 10
270.9508740319
 20
267.0107991232
 30
0.0
 40
5.0
100
AcDbArc
 50
270.0
 51
90.0
  0
ARC
  5
90
330
1F
100
AcDbEntity
  8
0
  6
Continuous
 62
     7
370
    25
100
AcDbCircle
 10
270.9508740319
 20
267.0107991232
 30
0.0
 40
5.0
100
AcDbArc
 50
90.0
 51
270.0
  0
ARC
  5
91
330
1F
100
AcDbEntity
  8
0
  6
Continuous
 62
     7
370
    25
100
AcDbCircle
 10
270.9508740319
 20
292.0107991232
 30
0.0
 40
7.000000000000057
100
AcDbArc
 50
270.0
 51
90.0
  0
ARC
  5
92
330
1F
100
AcDbEntity
  8
0
  6
Continuous
 62
     7
370
    25
100
AcDbCircle
 10
270.9508740319
 20
292.0107991232
 30
0.0
 40
7.000000000000057
100
AcDbArc
 50
90.0
 51
270.0
  0
ARC
  5
93
330
1F
100
AcDbEntity
  8
0
  6
Continuous
 62
     7
370
    25
100
AcDbCircle
 10
84.1066639027
 20
421.9934480157
 30
0.0
 40
3.0
100
AcDbArc
 50
270.0
 51
90.0
  0
ARC
  5
94
330
1F
100
AcDbEntity
  8
0
  6
Continuous
 62
     7
370
    25
100
AcDbCircle
 10
84.1066639027
 20
421.9934480157
 30
0.0
 40
3.0
100
AcDbArc
 50
90.0
 51
270.0
  0
ARC
  5
95
330
1F
100
AcDbEntity
  8
0
  6
Continuous
 62
     7
370
    25
100
AcDbCircle
 10
31.6880796156
 20
466.7850992617
 30
0.0
 40
2.500000000000057
100
AcDbArc
 50
270.0
 51
90.0
  0
ARC
  5
96
330
1F
100
AcDbEntity
  8
0
  6
Continuous
 62
     7
370
    25
100
AcDbCircle
 10
31.6880796156
 20
466.7850992617
 30
0.0
 40
2.500000000000057
100
AcDbArc
 50
90.0
 51
270.0
  0
ARC
  5
97
330
1F
100
AcDbEntity
  8
0
  6
Continuous
 62
     7
370
    25
100
AcDbCircle
 10
139.1066639027
 20
326.7306535994
 30
0.0
 40
3.0
100
AcDbArc
 50
270.0
 51
90.0
  0
ARC
  5
98
330
1F
100
AcDbEntity
  8
0
  6
Continuous
 62
     7
370
    25
100
AcDbCircle
 10
139.1066639027
 20
326.7306535994
 30
0.0
 40
3.0
100
AcDbArc
 50
90.0
 51
270.0
  0
ARC
  5
99
330
1F
100
AcDbEntity
  8
0
  6
Continuous
 62
     7
370
    25
100
AcDbCircle
 10
206.6880796156
 20
163.6762079371
 30
0.0
 40
2.500000000000028
100
AcDbArc
 50
270.0
 51
90.0
  0
ARC
  5
9A
330
1F
100
AcDbEntity
  8
0
  6
Continuous
 62
     7
370
    25
100
AcDbCircle
 10
206.6880796156
 20
163.6762079371
 30
0.0
 40
2.500000000000028
100
AcDbArc
 50
90.0
 51
270.0
  0
ARC
  5
9B
330
1F
100
AcDbEntity
  8
0
  6
Continuous
 62
     7
370
    25
100
AcDbCircle
 10
271.6399848995
 20
201.1762079371
 30
0.0
 40
2.5
100
AcDbArc
 50
270.0
 51
90.0
  0
ARC
  5
9C
330
1F
100
AcDbEntity
  8
0
  6
Continuous
 62
     7
370
    25
100
AcDbCircle
 10
271.6399848995
 20
201.1762079371
 30
0.0
 40
2.5
100
AcDbArc
 50
90.0
 51
270.0
  0
ARC
  5
9D
330
1F
100
AcDbEntity
  8
0
  6
Continuous
 62
     7
370
    25
100
AcDbCircle
 10
96.6399848995
 20
504.2850992617
 30
0.0
 40
2.500000000000057
100
AcDbArc
 50
270.0
 51
90.0
  0
ARC
  5
9E
330
1F
100
AcDbEntity
  8
0
  6
Continuous
 62
     7
370
    25
100
AcDbCircle
 10
96.6399848995
 20
504.2850992617
 30
0.0
 40
2.500000000000057
100
AcDbArc
 50
90.0
 51
270.0
  0
ARC
  5
9F
330
1F
100
AcDbEntity
  8
0
  6
Continuous
 62
     7
370
    25
100
AcDbCircle
 10
194.1066639027
 20
231.4678591831
 30
0.0
 40
3.0
100
AcDbArc
 50
270.0
 51
90.0
  0
ARC
  5
A0
330
1F
100
AcDbEntity
  8
0
  6
Continuous
 62
     7
370
    25
100
AcDbCircle
 10
194.1066639027
 20
231.4678591831
 30
0.0
 40
3.0
100
AcDbArc
 50
90.0
 51
270.0
  0
ARC
  5
A1
330
1F
100
AcDbEntity
  8
0
  6
Continuous
 62
     7
370
    25
100
AcDbCircle
 10
122.3527978206
 20
523.7492008768
 30
0.0
 40
3.0
100
AcDbArc
 50
90.0
 51
120.0
  0
LINE
  5
A2
330
1F
100
AcDbEntity
  8
0
  6
Continuous
 62
     7
370
    25
100
AcDbLine
 10
564.5034122635
 20
83.2507991232
 30
0.0
 11
564.5034122635
 21
67.2507991232
 31
0.0
  0
LINE
  5
A3
330
1F
100
AcDbEntity
  8
0
  6
Continuous
 62
     7
370
    25
100
AcDbLine
 10
554.5034122635
 20
83.2507991232
 30
0.0
 11
564.5034122635
 21
83.2507991232
 31
0.0
  0
LINE
  5
A4
330
1F
100
AcDbEntity
  8
0
  6
Continuous
 62
     7
370
    25
100
AcDbLine
 10
554.5034122635
 20
67.2507991232
 30
0.0
 11
564.5034122635
 21
67.2507991232
 31
0.0
  0
LINE
  5
A5
330
1F
100
AcDbEntity
  8
0
  6
Continuous
 62
     7
370
    25
100
AcDbLine
 10
414.5034122635
 20
83.2507991232
 30
0.0
 11
554.5034122635
 21
83.2507991232
 31
0.0
  0
LINE
  5
A6
330
1F
100
AcDbEntity
  8
0
  6
Continuous
 62
     7
370
    25
100
AcDbLine
 10
414.5034122635
 20
67.2507991232
 30
0.0
 11
554.5034122635
 21
67.2507991232
 31
0.0
  0
LINE
  5
A7
330
1F
100
AcDbEntity
  8
0
  6
Continuous
 62
     7
370
    25
100
AcDbLine
 10
404.5034122635
 20
83.2507991232
 30
0.0
 11
404.5034122635
 21
67.2507991232
 31
0.0
  0
LINE
  5
A8
330
1F
100
AcDbEntity
  8
0
  6
Continuous
 62
     7
370
    25
100
AcDbLine
 10
404.5034122635
 20
83.2507991232
 30
0.0
 11
414.5034122635
 21
83.2507991232
 31
0.0
  0
LINE
  5
A9
330
1F
100
AcDbEntity
  8
0
  6
Continuous
 62
     7
370
    25
100
AcDbLine
 10
404.5034122635
 20
67.2507991232
 30
0.0
 11
414.5034122635
 21
67.2507991232
 31
0.0
  0
LINE
  5
AA
330
1F
100
AcDbEntity
  8
0
  6
Continuous
 62
     7
370
    25
100
AcDbLine
 10
564.5034122635
 20
83.2507991232
 30
0.0
 11
782.7418140172
 21
83.2507991232
 31
0.0
  0
LINE
  5
AB
330
1F
100
AcDbEntity
  8
0
  6
Continuous
 62
     7
370
    25
100
AcDbLine
 10
564.5034122635
 20
67.2507991232
 30
0.0
 11
782.7418140172
 21
67.2507991232
 31
0.0
  0
LINE
  5
AC
330
1F
100
AcDbEntity
  8
0
  6
Continuous
 62
     7
370
    25
100
AcDbLine
 10
784.2418140172
 20
83.2507991232
 30
0.0
 11
784.2418140172
 21
67.2507991232
 31
0.0
  0
LINE
  5
AD
330
1F
100
AcDbEntity
  8
0
  6
Continuous
 62
     7
370
    25
100
AcDbLine
 10
782.7418140172
 20
83.2507991232
 30
0.0
 11
784.2418140172
 21
83.2507991232
 31
0.0
  0
LINE
  5
AE
330
1F
100
AcDbEntity
  8
0
  6
Continuous
 62
     7
370
    25
100
AcDbLine
 10
782.7418140172
 20
67.2507991232
 30
0.0
 11
784.2418140172
 21
67.2507991232
 31
0.0
  0
LINE
  5
AF
330
1F
100
AcDbEntity
  8
0
  6
HIDDEN
 62
     7
370
    18
100
AcDbLine
 10
556.5034122635
 20
83.2507991232
 30
0.0
 11
556.5034122635
 21
67.2507991232
 31
0.0
  0
LINE
  5
B0
330
1F
100
AcDbEntity
  8
0
  6
HIDDEN
 62
     7
370
    18
100
AcDbLine
 10
542.5034122635
 20
83.2507991232
 30
0.0
 11
542.5034122635
 21
67.2507991232
 31
0.0
  0
LINE
  5
B1
330
1F
100
AcDbEntity
  8
0
  6
HIDDEN
 62
     7
370
    18
100
AcDbLine
 10
426.5034122635
 20
83.2507991232
 30
0.0
 11
426.5034122635
 21
67.2507991232
 31
0.0
  0
LINE
  5
B2
330
1F
100
AcDbEntity
  8
0
  6
HIDDEN
 62
     7
370
    18
100
AcDbLine
 10
412.5034122635
 20
83.2507991232
 30
0.0
 11
412.5034122635
 21
67.2507991232
 31
0.0
  0
LINE
  5
B3
330
1F
100
AcDbEntity
  8
0
  6
HIDDEN
 62
     7
370
    18
100
AcDbLine
 10
529.5034122635
 20
83.2507991232
 30
0.0
 11
529.5034122635
 21
67.2507991232
 31
0.0
  0
LINE
  5
B4
330
1F
100
AcDbEntity
  8
0
  6
HIDDEN
 62
     7
370
    18
100
AcDbLine
 10
519.5034122635
 20
83.2507991232
 30
0.0
 11
519.5034122635
 21
67.2507991232
 31
0.0
  0
LINE
  5
B5
330
1F
100
AcDbEntity
  8
0
  6
HIDDEN
 62
     7
370
    18
100
AcDbLine
 10
449.5034122635
 20
83.2507991232
 30
0.0
 11
449.5034122635
 21
67.2507991232
 31
0.0
  0
LINE
  5
B6
330
1F
100
AcDbEntity
  8
0
  6
HIDDEN
 62
     7
370
    18
100
AcDbLine
 10
439.5034122635
 20
83.2507991232
 30
0.0
 11
439.5034122635
 21
67.2507991232
 31
0.0
  0
LINE
  5
B7
330
1F
100
AcDbEntity
  8
0
  6
HIDDEN
 62
     7
370
    18
100
AcDbLine
 10
461.1688210775
 20
83.2507991232
 30
0.0
 11
461.1688210775
 21
67.2507991232
 31
0.0
  0
LINE
  5
B8
330
1F
100
AcDbEntity
  8
0
  6
HIDDEN
 62
     7
370
    18
100
AcDbLine
 10
456.1688210775
 20
83.2507991232
 30
0.0
 11
456.1688210775
 21
67.2507991232
 31
0.0
  0
LINE
  5
B9
330
1F
100
AcDbEntity
  8
0
  6
HIDDEN
 62
     7
370
    18
100
AcDbLine
 10
423.6688210775
 20
83.2507991232
 30
0.0
 11
423.6688210775
 21
67.2507991232
 31
0.0
  0
LINE
  5
BA
330
1F
100
AcDbEntity
  8
0
  6
HIDDEN
 62
     7
370
    18
100
AcDbLine
 10
418.6688210775
 20
83.2507991232
 30
0.0
 11
418.6688210775
 21
67.2507991232
 31
0.0
  0
LINE
  5
BB
330
1F
100
AcDbEntity
  8
0
  6
HIDDEN
 62
     7
370
    18
100
AcDbLine
 10
491.9604723234
 20
83.2507991232
 30
0.0
 11
491.9604723234
 21
67.2507991232
 31
0.0
  0
LINE
  5
BC
330
1F
100
AcDbEntity
  8
0
  6
HIDDEN
 62
     7
370
    18
100
AcDbLine
 10
485.9604723234
 20
83.2507991232
 30
0.0
 11
485.9604723234
 21
67.2507991232
 31
0.0
  0
LINE
  5
BD
330
1F
100
AcDbEntity
  8
0
  6
HIDDEN
 62
     7
370
    18
100
AcDbLine
 10
587.2232667397
 20
83.2507991232
 30
0.0
 11
587.2232667397
 21
67.2507991232
 31
0.0
  0
LINE
  5
BE
330
1F
100
AcDbEntity
  8
0
  6
HIDDEN
 62
     7
370
    18
100
AcDbLine
 10
581.2232667397
 20
83.2507991232
 30
0.0
 11
581.2232667397
 21
67.2507991232
 31
0.0
  0
LINE
  5
BF
330
1F
100
AcDbEntity
  8
0
  6
HIDDEN
 62
     7
370
    18
100
AcDbLine
 10
764.277712402
 20
83.2507991232
 30
0.0
 11
764.277712402
 21
67.2507991232
 31
0.0
  0
LINE
  5
C0
330
1F
100
AcDbEntity
  8
0
  6
HIDDEN
 62
     7
370
    18
100
AcDbLine
 10
759.277712402
 20
83.2507991232
 30
0.0
 11
759.277712402
 21
67.2507991232
 31
0.0
  0
LINE
  5
C1
330
1F
100
AcDbEntity
  8
0
  6
HIDDEN
 62
     7
370
    18
100
AcDbLine
 10
682.486061156
 20
83.2507991232
 30
0.0
 11
682.486061156
 21
67.2507991232
 31
0.0
  0
LINE
  5
C2
330
1F
100
AcDbEntity
  8
0
  6
HIDDEN
 62
     7
370
    18
100
AcDbLine
 10
676.486061156
 20
83.2507991232
 30
0.0
 11
676.486061156
 21
67.2507991232
 31
0.0
  0
LINE
  5
C3
330
1F
100
AcDbEntity
  8
0
  6
HIDDEN
 62
     7
370
    18
100
AcDbLine
 10
726.777712402
 20
83.2507991232
 30
0.0
 11
726.777712402
 21
67.2507991232
 31
0.0
  0
LINE
  5
C4
330
1F
100
AcDbEntity
  8
0
  6
HIDDEN
 62
     7
370
    18
100
AcDbLine
 10
721.777712402
 20
83.2507991232
 30
0.0
 11
721.777712402
 21
67.2507991232
 31
0.0
  0
LINE
  5
C5
330
1F
100
AcDbEntity
  8
0
  6
Continuous
 62
     7
370
    25
100
AcDbLine
 10
669.5137026579
 20
260.1929839668
 30
0.0
 11
669.5137026579
 21
273.257636957
 31
0.0
  0
LINE
  5
C6
330
1F
100
AcDbEntity
  8
0
  6
Continuous
 62
     7
370
    25
100
AcDbLine
 10
707.1606550152
 20
419.5299174423
 30
0.0
 11
707.1606550152
 21
432.5945704325
 31
0.0
  0
ARC
  5
C7
330
1F
100
AcDbEntity
  8
0
  6
Continuous
 62
     7
370
    25
100
AcDbCircle
 10
584.269599826
 20
449.348805078
 30
0.0
 40
3.559594459033764
100
AcDbArc
 50
75.4757485669
 51
141.3904241684
  0
LINE
  5
C8
330
1F
100
AcDbEntity
  8
0
  6
Continuous
 62
     7
370
    25
100
AcDbLine
 10
704.9371121505
 20
434.2674217634
 30
0.0
 11
585.1623096906
 21
452.7946405079
 31
0.0
  0
ARC
  5
C9
330
1F
100
AcDbEntity
  8
0
  6
Continuous
 62
     7
370
    25
100
AcDbCircle
 10
704.3950691799
 20
430.3994836423
 30
0.0
 40
3.905733719837399
100
AcDbArc
 50
61.1111612194
 51
82.0226660454
  0
ARC
  5
CA
330
1F
100
AcDbEntity
  8
0
  6
Continuous
 62
     7
370
    25
100
AcDbCircle
 10
705.8148644293
 20
432.5857494761
 30
0.0
 40
1.318919971809187
100
AcDbArc
 50
340.5389980879
 51
69.2579248011
  0
LINE
  5
CB
330
1F
100
AcDbEntity
  8
0
  6
Continuous
 62
     7
370
    25
100
AcDbLine
 10
641.8360331282
 20
291.626819473
 30
0.0
 11
707.058432494
 21
432.1463312693
 31
0.0
  0
LINE
  5
CC
330
1F
100
AcDbEntity
  8
0
  6
Continuous
 62
     7
370
    25
100
AcDbLine
 10
666.5847704697
 20
277.3396775161
 30
0.0
 11
641.8360331282
 21
291.626819473
 31
0.0
  0
LWPOLYLINE
  5
CD
330
1F
100
AcDbEntity
  8
0
  6
Continuous
 62
     7
370
    25
100
AcDbPolyline
 90
        9
 70
   128
 43
0.0
 10
666.5847704697
 20
269.1755963979
 10
667.8283987809
 20
270.0503982698
 10
668.752497983
 20
271.0484525258
 10
669.3215554619
 20
272.1314045005
 10
669.5137026579
 20
273.257636957
 10
669.3215554619
 20
274.3838694135
 10
668.752497983
 20
275.4668213882
 10
667.8283987809
 20
276.4648756442
 10
666.5847704697
 20
277.3396775161
  0
LINE
  5
CE
330
1F
100
AcDbEntity
  8
0
  6
Continuous
 62
     7
370
    25
100
AcDbLine
 10
567.5898211036
 20
212.0270285703
 30
0.0
 11
666.5847704697
 21
269.1755963979
 31
0.0
  0
ARC
  5
CF
330
1F
100
AcDbEntity
  8
0
  6
Continuous
 62
     7
370
    25
100
AcDbCircle
 10
560.5187532917
 20
225.6741394199
 30
0.0
 40
15.37021907911713
100
AcDbArc
 50
242.6096722366
 51
297.3903277634
  0
LINE
  5
D0
330
1F
100
AcDbEntity
  8
0
  6
Continuous
 62
     7
370
    25
100
AcDbLine
 10
487.874119092
 20
249.8818426837
 30
0.0
 11
553.4476854799
 21
212.0270285703
 31
0.0
  0
LINE
  5
D1
330
1F
100
AcDbEntity
  8
0
  6
Continuous
 62
     7
370
    25
100
AcDbLine
 10
581.4880750764
 20
451.5700283402
 30
0.0
 11
487.874119092
 21
249.8818426837
 31
0.0
  0
LWPOLYLINE
  5
D2
330
1F
100
AcDbEntity
  8
0
  6
Continuous
 62
     7
370
    25
100
AcDbPolyline
 90
       15
 70
   128
 43
0.0
 10
548.4979380116
 20
221.4157218563
 10
549.7234609443
 20
220.8515259175
 10
551.1357320462
 20
220.45890451
 10
552.6639341472
 20
220.2575453108
 10
554.2314368126
 20
220.2575453108
 10
555.7596389136
 20
220.45890451
 10
557.1719100155
 20
220.8515259175
 10
558.3974329482
 20
221.4157218563
 10
559.3747548745
 20
222.1232011862
 10
560.054868792
 20
222.9384879395
 10
560.4036709491
 20
223.8207002339
 10
560.4036709491
 20
224.7256002614
 10
560.054868792
 20
225.6078125558
 10
559.3747548745
 20
226.4230993091
 10
558.3974329482
 20
227.130578639
  0
LWPOLYLINE
  5
D3
330
1F
100
AcDbEntity
  8
0
  6
Continuous
 62
     7
370
    25
100
AcDbPolyline
 90
       15
 70
   128
 43
0.0
 10
558.3974329482
 20
227.130578639
 10
557.1719100155
 20
227.6947745778
 10
555.7596389136
 20
228.0873959852
 10
554.2314368126
 20
228.2887551845
 10
552.6639341472
 20
228.2887551845
 10
551.1357320462
 20
228.0873959852
 10
549.7234609443
 20
227.6947745778
 10
548.4979380116
 20
227.130578639
 10
547.5206160853
 20
226.4230993091
 10
546.8405021677
 20
225.6078125558
 10
546.4917000106
 20
224.7256002614
 10
546.4917000106
 20
223.8207002339
 10
546.8405021677
 20
222.9384879395
 10
547.5206160853
 20
222.1232011862
 10
548.4979380116
 20
221.4157218563
  0
LWPOLYLINE
  5
D4
330
1F
100
AcDbEntity
  8
0
  6
Continuous
 62
     7
370
    25
100
AcDbPolyline
 90
       13
 70
   128
 43
0.0
 10
567.5898211036
 20
232.4372313659
 10
568.6253550095
 20
231.9785225256
 10
569.831259784
 20
231.6901660939
 10
571.1253550095
 20
231.591813085
 10
572.4194502351
 20
231.6901660939
 10
573.6253550095
 20
231.9785225256
 10
574.6608889155
 20
232.4372313659
 10
575.4554820285
 20
233.0350323652
 10
575.954984141
 20
233.7311863735
 10
576.1253550095
 20
234.4782516454
 10
575.954984141
 20
235.2253169174
 10
575.4554820285
 20
235.9214709256
 10
574.6608889155
 20
236.519271925
  0
LWPOLYLINE
  5
D5
330
1F
100
AcDbEntity
  8
0
  6
Continuous
 62
     7
370
    25
100
AcDbPolyline
 90
       13
 70
   128
 43
0.0
 10
574.6608889155
 20
236.519271925
 10
573.6253550095
 20
236.9779807652
 10
572.4194502351
 20
237.2663371969
 10
571.1253550095
 20
237.3646902059
 10
569.831259784
 20
237.2663371969
 10
568.6253550095
 20
236.9779807652
 10
567.5898211036
 20
236.519271925
 10
566.7952279906
 20
235.9214709256
 10
566.2957258781
 20
235.2253169174
 10
566.1253550095
 20
234.4782516454
 10
566.2957258781
 20
233.7311863735
 10
566.7952279906
 20
233.0350323652
 10
567.5898211036
 20
232.4372313659
  0
LWPOLYLINE
  5
D6
330
1F
100
AcDbEntity
  8
0
  6
Continuous
 62
     7
370
    25
100
AcDbPolyline
 90
       13
 70
   128
 43
0.0
 10
624.1583635985
 20
265.0935558388
 10
625.1938975045
 20
264.6348469985
 10
626.399802279
 20
264.3464905668
 10
627.6938975045
 20
264.2481375579
 10
628.98799273
 20
264.3464905668
 10
630.1938975045
 20
264.6348469985
 10
631.2294314104
 20
265.0935558388
 10
632.0240245234
 20
265.6913568381
 10
632.5235266359
 20
266.3875108464
 10
632.6938975045
 20
267.1345761183
 10
632.5235266359
 20
267.8816413903
 10
632.0240245234
 20
268.5777953985
 10
631.2294314104
 20
269.1755963979
  0
LWPOLYLINE
  5
D7
330
1F
100
AcDbEntity
  8
0
  6
Continuous
 62
     7
370
    25
100
AcDbPolyline
 90
       13
 70
   128
 43
0.0
 10
631.2294314104
 20
269.1755963979
 10
630.1938975045
 20
269.6343052381
 10
628.98799273
 20
269.9226616698
 10
627.6938975045
 20
270.0210146788
 10
626.399802279
 20
269.9226616698
 10
625.1938975045
 20
269.6343052381
 10
624.1583635985
 20
269.1755963979
 10
623.3637704855
 20
268.5777953985
 10
622.864268373
 20
267.8816413903
 10
622.6938975045
 20
267.1345761183
 10
622.864268373
 20
266.3875108464
 10
623.3637704855
 20
265.6913568381
 10
624.1583635985
 20
265.0935558388
  0
LWPOLYLINE
  5
D8
330
1F
100
AcDbEntity
  8
0
  6
Continuous
 62
     7
370
    25
100
AcDbPolyline
 90
       15
 70
   128
 43
0.0
 10
640.4218195658
 20
274.4822491247
 10
641.6473424985
 20
273.9180531859
 10
643.0596136004
 20
273.5254317785
 10
644.5878157014
 20
273.3240725793
 10
646.1553183668
 20
273.3240725793
 10
647.6835204678
 20
273.5254317785
 10
649.0957915697
 20
273.9180531859
 10
650.3213145024
 20
274.4822491247
 10
651.2986364287
 20
275.1897284547
 10
651.9787503463
 20
276.0050152079
 10
652.3275525034
 20
276.8872275024
 10
652.3275525034
 20
277.7921275298
 10
651.9787503463
 20
278.6743398243
 10
651.2986364287
 20
279.4896265776
 10
650.3213145024
 20
280.1971059075
  0
LWPOLYLINE
  5
D9
330
1F
100
AcDbEntity
  8
0
  6
Continuous
 62
     7
370
    25
100
AcDbPolyline
 90
       15
 70
   128
 43
0.0
 10
650.3213145024
 20
280.1971059075
 10
649.0957915697
 20
280.7613018463
 10
647.6835204678
 20
281.1539232537
 10
646.1553183668
 20
281.355282453
 10
644.5878157014
 20
281.355282453
 10
643.0596136004
 20
281.1539232537
 10
641.6473424985
 20
280.7613018463
 10
640.4218195658
 20
280.1971059075
 10
639.4444976395
 20
279.4896265776
 10
638.764383722
 20
278.6743398243
 10
638.4155815649
 20
277.7921275298
 10
638.4155815649
 20
276.8872275024
 10
638.764383722
 20
276.0050152079
 10
639.4444976395
 20
275.1897284547
 10
640.4218195658
 20
274.4822491247
  0
LWPOLYLINE
  5
DA
330
1F
100
AcDbEntity
  8
0
  6
Continuous
 62
     7
370
    25
100
AcDbPolyline
 90
       10
 70
   128
 43
0.0
 10
603.0430511512
 20
405.4450742227
 10
603.8965167096
 20
405.100085344
 10
604.9029042666
 20
404.9444135163
 10
605.9408286301
 20
404.9968350596
 10
606.8851008039
 20
405.251027162
 10
607.6218276277
 20
405.6763305045
 10
608.0621489737
 20
406.2214472273
 10
608.1529555891
 20
406.8206282084
 10
607.8832948559
 20
407.4016033787
 10
607.2856918384
 20
407.8942985582
  0
LWPOLYLINE
  5
DB
330
1F
100
AcDbEntity
  8
0
  6
Continuous
 62
     7
370
    25
100
AcDbPolyline
 90
       10
 70
   128
 43
0.0
 10
607.2856918384
 20
407.8942985582
 10
606.43222628
 20
408.2392874369
 10
605.425838723
 20
408.3949592646
 10
604.3879143595
 20
408.3425377214
 10
603.4436421858
 20
408.088345619
 10
602.7069153619
 20
407.6630422764
 10
602.2665940159
 20
407.1179255536
 10
602.1757874005
 20
406.5187445725
 10
602.4454481337
 20
405.9377694023
 10
603.0430511512
 20
405.4450742227
  0
LWPOLYLINE
  5
DC
330
1F
100
AcDbEntity
  8
0
  6
Continuous
 62
     7
370
    25
100
AcDbPolyline
 90
        9
 70
   128
 43
0.0
 10
598.0035484689
 20
445.3307886714
 10
598.8146068409
 20
445.0179380572
 10
599.7713154218
 20
444.9080795309
 10
600.7280240027
 20
445.0179380572
 10
601.5390823748
 20
445.3307886714
 10
602.0810142531
 20
445.7990027033
 10
602.2713154218
 20
446.3512988111
 10
602.0810142531
 20
446.903594919
 10
601.5390823748
 20
447.3718089509
  0
LWPOLYLINE
  5
DD
330
1F
100
AcDbEntity
  8
0
  6
Continuous
 62
     7
370
    25
100
AcDbPolyline
 90
        9
 70
   128
 43
0.0
 10
601.5390823748
 20
447.3718089509
 10
600.7280240027
 20
447.6846595651
 10
599.7713154218
 20
447.7945180914
 10
598.8146068409
 20
447.6846595651
 10
598.0035484689
 20
447.3718089509
 10
597.4616165905
 20
446.903594919
 10
597.2713154218
 20
446.3512988111
 10
597.4616165905
 20
445.7990027033
 10
598.0035484689
 20
445.3307886714
  0
LWPOLYLINE
  5
DE
330
1F
100
AcDbEntity
  8
0
  6
Continuous
 62
     7
370
    25
100
AcDbPolyline
 90
       10
 70
   128
 43
0.0
 10
574.57295619
 20
344.1071920894
 10
575.4264217483
 20
343.7622032107
 10
576.4328093053
 20
343.606531383
 10
577.4707336688
 20
343.6589529263
 10
578.4150058426
 20
343.9131450287
 10
579.1517326664
 20
344.3384483712
 10
579.5920540124
 20
344.883565094
 10
579.6828606278
 20
345.4827460751
 10
579.4131998946
 20
346.0637212454
 10
578.8155968771
 20
346.5564164249
  0
LWPOLYLINE
  5
DF
330
1F
100
AcDbEntity
  8
0
  6
Continuous
 62
     7
370
    25
100
AcDbPolyline
 90
       10
 70
   128
 43
0.0
 10
578.8155968771
 20
346.5564164249
 10
577.9621313188
 20
346.9014053036
 10
576.9557437618
 20
347.0570771313
 10
575.9178193982
 20
347.0046555881
 10
574.9735472245
 20
346.7504634857
 10
574.2368204007
 20
346.3251601431
 10
573.7964990547
 20
345.7800434203
 10
573.7056924393
 20
345.1808624392
 10
573.9753531724
 20
344.5998872689
 10
574.57295619
 20
344.1071920894
  0
LWPOLYLINE
  5
E0
330
1F
100
AcDbEntity
  8
0
  6
Continuous
 62
     7
370
    25
100
AcDbPolyline
 90
        9
 70
   128
 43
0.0
 10
507.416882683
 20
250.1648000654
 10
508.227941055
 20
249.8519494513
 10
509.1846496359
 20
249.742090925
 10
510.1413582169
 20
249.8519494513
 10
510.9524165889
 20
250.1648000654
 10
511.4943484672
 20
250.6330140974
 10
511.6846496359
 20
251.1853102052
 10
511.4943484672
 20
251.737606313
 10
510.9524165889
 20
252.205820345
  0
LWPOLYLINE
  5
E1
330
1F
100
AcDbEntity
  8
0
  6
Continuous
 62
     7
370
    25
100
AcDbPolyline
 90
        9
 70
   128
 43
0.0
 10
510.9524165889
 20
252.205820345
 10
510.1413582169
 20
252.5186709591
 10
509.1846496359
 20
252.6285294854
 10
508.227941055
 20
252.5186709591
 10
507.416882683
 20
252.205820345
 10
506.8749508047
 20
251.737606313
 10
506.6846496359
 20
251.1853102052
 10
506.8749508047
 20
250.6330140974
 10
507.416882683
 20
250.1648000654
  0
LWPOLYLINE
  5
E2
330
1F
100
AcDbEntity
  8
0
  6
Continuous
 62
     7
370
    25
100
AcDbPolyline
 90
        9
 70
   128
 43
0.0
 10
579.8613196547
 20
238.9588209861
 10
580.6723780267
 20
238.6459703719
 10
581.6290866076
 20
238.5361118456
 10
582.5857951885
 20
238.6459703719
 10
583.3968535606
 20
238.9588209861
 10
583.9387854389
 20
239.427035018
 10
584.1290866076
 20
239.9793311258
 10
583.9387854389
 20
240.5316272336
 10
583.3968535606
 20
240.9998412656
  0
LWPOLYLINE
  5
E3
330
1F
100
AcDbEntity
  8
0
  6
Continuous
 62
     7
370
    25
100
AcDbPolyline
 90
        9
 70
   128
 43
0.0
 10
583.3968535606
 20
240.9998412656
 10
582.5857951885
 20
241.3126918797
 10
581.6290866076
 20
241.422550406
 10
580.6723780267
 20
241.3126918797
 10
579.8613196547
 20
240.9998412656
 10
579.3193877763
 20
240.5316272336
 10
579.1290866076
 20
239.9793311258
 10
579.3193877763
 20
239.427035018
 10
579.8613196547
 20
238.9588209861
  0
LWPOLYLINE
  5
E4
330
1F
100
AcDbEntity
  8
0
  6
Continuous
 62
     7
370
    25
100
AcDbPolyline
 90
        9
 70
   128
 43
0.0
 10
670.4479854405
 20
434.124809592
 10
671.2590438126
 20
433.8119589779
 10
672.2157523935
 20
433.7021004516
 10
673.1724609744
 20
433.8119589779
 10
673.9835193465
 20
434.124809592
 10
674.5254512248
 20
434.593023624
 10
674.7157523935
 20
435.1453197318
 10
674.5254512248
 20
435.6976158396
 10
673.9835193465
 20
436.1658298716
  0
LWPOLYLINE
  5
E5
330
1F
100
AcDbEntity
  8
0
  6
Continuous
 62
     7
370
    25
100
AcDbPolyline
 90
        9
 70
   128
 43
0.0
 10
673.9835193465
 20
436.1658298716
 10
673.1724609744
 20
436.4786804857
 10
672.2157523935
 20
436.588539012
 10
671.2590438126
 20
436.4786804857
 10
670.4479854405
 20
436.1658298716
 10
669.9060535622
 20
435.6976158396
 10
669.7157523935
 20
435.1453197318
 10
669.9060535622
 20
434.593023624
 10
670.4479854405
 20
434.124809592
  0
LWPOLYLINE
  5
E6
330
1F
100
AcDbEntity
  8
0
  6
Continuous
 62
     7
370
    25
100
AcDbPolyline
 90
       10
 70
   128
 43
0.0
 10
546.1028612287
 20
282.7693099561
 10
546.956326787
 20
282.4243210774
 10
547.962714344
 20
282.2686492497
 10
549.0006387076
 20
282.321070793
 10
549.9449108813
 20
282.5752628954
 10
550.6816377051
 20
283.0005662379
 10
551.1219590511
 20
283.5456829607
 10
551.2127656665
 20
284.1448639418
 10
550.9431049334
 20
284.7258391121
 10
550.3455019158
 20
285.2185342916
  0
LWPOLYLINE
  5
E7
330
1F
100
AcDbEntity
  8
0
  6
Continuous
 62
     7
370
    25
100
AcDbPolyline
 90
       10
 70
   128
 43
0.0
 10
550.3455019158
 20
285.2185342916
 10
549.4920363575
 20
285.5635231703
 10
548.4856488005
 20
285.719194998
 10
547.4477244369
 20
285.6667734548
 10
546.5034522632
 20
285.4125813524
 10
545.7667254394
 20
284.9872780098
 10
545.3264040934
 20
284.442161287
 10
545.235597478
 20
283.8429803059
 10
545.5052582111
 20
283.2620051356
 10
546.1028612287
 20
282.7693099561
  0
ARC
  5
E8
330
1F
100
AcDbEntity
  8
0
  6
Continuous
 62
     7
370
    25
100
AcDbCircle
 10
560.5187532917
 20
212.6094864297
 30
0.0
 40
15.37021907911731
100
AcDbArc
 50
242.6096722366
 51
297.3903277634
  0
LINE
  5
E9
330
1F
100
AcDbEntity
  8
0
  6
Continuous
 62
     7
370
    25
100
AcDbLine
 10
567.5898211036
 20
198.9623755801
 30
0.0
 11
666.5847704697
 21
256.1109434077
 31
0.0
  0
LINE
  5
EA
330
1F
100
AcDbEntity
  8
0
  6
Continuous
 62
     7
370
    25
100
AcDbLine
 10
487.874119092
 20
249.8818426837
 30
0.0
 11
487.874119092
 21
236.8171896935
 31
0.0
  0
LINE
  5
EB
330
1F
100
AcDbEntity
  8
0
  6
Continuous
 62
     7
370
    25
100
AcDbLine
 10
487.874119092
 20
236.8171896935
 30
0.0
 11
553.4476854799
 21
198.9623755801
 31
0.0
  0
ARC
  5
EC
330
1F
100
AcDbEntity
  8
0
  6
Continuous
 62
     7
370
    25
100
AcDbCircle
 10
664.509132033
 20
260.6920477358
 30
0.0
 40
5.029392784938443
100
AcDbArc
 50
294.3746582936
 51
354.3052007488
  0
LINE
  5
ED
330
1F
100
AcDbEntity
  8
0
  6
Continuous
 62
     7
370
    25
100
AcDbLine
 10
646.6185462095
 20
288.8659334383
 30
0.0
 11
707.058432494
 21
419.0816782791
 31
0.0
  0
LWPOLYLINE
  5
EE
330
1F
100
AcDbEntity
  8
0
  6
Continuous
 62
     7
370
    25
100
AcDbPolyline
 90
        3
 70
   128
 43
0.0
 10
707.058432494
 20
419.0816782791
 10
707.1349895993
 20
419.3038639417
 10
707.1606550152
 20
419.5299174423
  0
LWPOLYLINE
  5
EF
330
1F
100
AcDbEntity
  8
0
  6
HIDDEN
 62
     7
370
    18
100
AcDbPolyline
 90
       15
 70
   128
 43
0.0
 10
548.4979380116
 20
208.3510688661
 10
549.7234609443
 20
207.7868729273
 10
551.1357320462
 20
207.3942515199
 10
552.6639341472
 20
207.1928923206
 10
554.2314368126
 20
207.1928923206
 10
555.7596389136
 20
207.3942515199
 10
557.1719100155
 20
207.7868729273
 10
558.3974329482
 20
208.3510688661
 10
559.3747548745
 20
209.058548196
 10
560.054868792
 20
209.8738349493
 10
560.4036709491
 20
210.7560472438
 10
560.4036709491
 20
211.6609472712
 10
560.054868792
 20
212.5431595656
 10
559.3747548745
 20
213.3584463189
 10
558.3974329482
 20
214.0659256488
  0
LWPOLYLINE
  5
F0
330
1F
100
AcDbEntity
  8
0
  6
HIDDEN
 62
     7
370
    18
100
AcDbPolyline
 90
       15
 70
   128
 43
0.0
 10
558.3974329482
 20
214.0659256488
 10
557.1719100155
 20
214.6301215876
 10
555.7596389136
 20
215.0227429951
 10
554.2314368126
 20
215.2241021943
 10
552.6639341472
 20
215.2241021943
 10
551.1357320462
 20
215.0227429951
 10
549.7234609443
 20
214.6301215876
 10
548.4979380116
 20
214.0659256488
 10
547.5206160853
 20
213.3584463189
 10
546.8405021677
 20
212.5431595656
 10
546.4917000106
 20
211.6609472712
 10
546.4917000106
 20
210.7560472438
 10
546.8405021677
 20
209.8738349493
 10
547.5206160853
 20
209.058548196
 10
548.4979380116
 20
208.3510688661
  0
LWPOLYLINE
  5
F1
330
1F
100
AcDbEntity
  8
0
  6
HIDDEN
 62
     7
370
    18
100
AcDbPolyline
 90
       13
 70
   128
 43
0.0
 10
567.5898211036
 20
219.3725783757
 10
568.6253550095
 20
218.9138695355
 10
569.831259784
 20
218.6255131037
 10
571.1253550095
 20
218.5271600948
 10
572.4194502351
 20
218.6255131037
 10
573.6253550095
 20
218.9138695355
 10
574.6608889155
 20
219.3725783757
 10
575.4554820285
 20
219.970379375
 10
575.954984141
 20
220.6665333833
 10
576.1253550095
 20
221.4135986553
 10
575.954984141
 20
222.1606639272
 10
575.4554820285
 20
222.8568179355
 10
574.6608889155
 20
223.4546189348
  0
LWPOLYLINE
  5
F2
330
1F
100
AcDbEntity
  8
0
  6
HIDDEN
 62
     7
370
    18
100
AcDbPolyline
 90
       13
 70
   128
 43
0.0
 10
574.6608889155
 20
223.4546189348
 10
573.6253550095
 20
223.913327775
 10
572.4194502351
 20
224.2016842068
 10
571.1253550095
 20
224.3000372157
 10
569.831259784
 20
224.2016842068
 10
568.6253550095
 20
223.913327775
 10
567.5898211036
 20
223.4546189348
 10
566.7952279906
 20
222.8568179355
 10
566.2957258781
 20
222.1606639272
 10
566.1253550095
 20
221.4135986553
 10
566.2957258781
 20
220.6665333833
 10
566.7952279906
 20
219.970379375
 10
567.5898211036
 20
219.3725783757
  0
LWPOLYLINE
  5
F3
330
1F
100
AcDbEntity
  8
0
  6
HIDDEN
 62
     7
370
    18
100
AcDbPolyline
 90
        9
 70
   128
 43
0.0
 10
579.8613196547
 20
225.8941679959
 10
580.6723780267
 20
225.5813173817
 10
581.6290866076
 20
225.4714588554
 10
582.5857951885
 20
225.5813173817
 10
583.3968535606
 20
225.8941679959
 10
583.9387854389
 20
226.3623820279
 10
584.1290866076
 20
226.9146781357
 10
583.9387854389
 20
227.4669742435
 10
583.3968535606
 20
227.9351882754
  0
LWPOLYLINE
  5
F4
330
1F
100
AcDbEntity
  8
0
  6
HIDDEN
 62
     7
370
    18
100
AcDbPolyline
 90
        9
 70
   128
 43
0.0
 10
583.3968535606
 20
227.9351882754
 10
582.5857951885
 20
228.2480388896
 10
581.6290866076
 20
228.3578974159
 10
580.6723780267
 20
228.2480388896
 10
579.8613196547
 20
227.9351882754
 10
579.3193877763
 20
227.4669742435
 10
579.1290866076
 20
226.9146781357
 10
579.3193877763
 20
226.3623820279
 10
579.8613196547
 20
225.8941679959
  0
LWPOLYLINE
  5
F5
330
1F
100
AcDbEntity
  8
0
  6
HIDDEN
 62
     7
370
    18
100
AcDbPolyline
 90
        9
 70
   128
 43
0.0
 10
507.416882683
 20
237.1001470752
 10
508.227941055
 20
236.7872964611
 10
509.1846496359
 20
236.6774379348
 10
510.1413582169
 20
236.7872964611
 10
510.9524165889
 20
237.1001470752
 10
511.4943484672
 20
237.5683611072
 10
511.6846496359
 20
238.120657215
 10
511.4943484672
 20
238.6729533228
 10
510.9524165889
 20
239.1411673548
  0
LINE
  5
F6
330
1F
100
AcDbEntity
  8
0
  6
HIDDEN
 62
     7
370
    18
100
AcDbLine
 10
581.4880750764
 20
438.50537535
 30
0.0
 11
487.874119092
 21
236.8171896935
 31
0.0
  0
LWPOLYLINE
  5
F7
330
1F
100
AcDbEntity
  8
0
  6
HIDDEN
 62
     7
370
    18
100
AcDbPolyline
 90
        9
 70
   128
 43
0.0
 10
510.9524165889
 20
239.1411673548
 10
510.1413582169
 20
239.4540179689
 10
509.1846496359
 20
239.5638764952
 10
508.227941055
 20
239.4540179689
 10
507.416882683
 20
239.1411673548
 10
506.8749508047
 20
238.6729533228
 10
506.6846496359
 20
238.120657215
 10
506.8749508047
 20
237.5683611072
 10
507.416882683
 20
237.1001470752
  0
LWPOLYLINE
  5
F8
330
1F
100
AcDbEntity
  8
0
  6
HIDDEN
 62
     7
370
    18
100
AcDbPolyline
 90
       13
 70
   128
 43
0.0
 10
624.1583635985
 20
252.0289028486
 10
625.1938975045
 20
251.5701940084
 10
626.399802279
 20
251.2818375766
 10
627.6938975045
 20
251.1834845677
 10
628.98799273
 20
251.2818375766
 10
630.1938975045
 20
251.5701940084
 10
631.2294314104
 20
252.0289028486
 10
632.0240245234
 20
252.6267038479
 10
632.5235266359
 20
253.3228578562
 10
632.6938975045
 20
254.0699231282
 10
632.5235266359
 20
254.8169884001
 10
632.0240245234
 20
255.5131424084
 10
631.2294314104
 20
256.1109434077
  0
LWPOLYLINE
  5
F9
330
1F
100
AcDbEntity
  8
0
  6
HIDDEN
 62
     7
370
    18
100
AcDbPolyline
 90
       13
 70
   128
 43
0.0
 10
631.2294314104
 20
256.1109434077
 10
630.1938975045
 20
256.569652248
 10
628.98799273
 20
256.8580086797
 10
627.6938975045
 20
256.9563616886
 10
626.399802279
 20
256.8580086797
 10
625.1938975045
 20
256.569652248
 10
624.1583635985
 20
256.1109434077
 10
623.3637704855
 20
255.5131424084
 10
622.864268373
 20
254.8169884001
 10
622.6938975045
 20
254.0699231282
 10
622.864268373
 20
253.3228578562
 10
623.3637704855
 20
252.6267038479
 10
624.1583635985
 20
252.0289028486
  0
ARC
  5
FA
330
1F
100
AcDbEntity
  8
0
  6
HIDDEN
 62
     7
370
    18
100
AcDbCircle
 10
664.509132033
 20
259.6939201978
 30
0.0
 40
5.029392784938537
100
AcDbArc
 50
5.6947992512
 51
65.6253417064
  0
LWPOLYLINE
  5
FB
330
1F
100
AcDbEntity
  8
0
  6
HIDDEN
 62
     7
370
    18
100
AcDbPolyline
 90
       15
 70
   128
 43
0.0
 10
640.4218195658
 20
261.4175961346
 10
641.6473424985
 20
260.8534001958
 10
643.0596136004
 20
260.4607787883
 10
644.5878157014
 20
260.2594195891
 10
646.1553183668
 20
260.2594195891
 10
647.6835204678
 20
260.4607787883
 10
649.0957915697
 20
260.8534001958
 10
650.3213145024
 20
261.4175961346
 10
651.2986364287
 20
262.1250754645
 10
651.9787503463
 20
262.9403622178
 10
652.3275525034
 20
263.8225745122
 10
652.3275525034
 20
264.7274745397
 10
651.9787503463
 20
265.6096868341
 10
651.2986364287
 20
266.4249735874
 10
650.3213145024
 20
267.1324529173
  0
LWPOLYLINE
  5
FC
330
1F
100
AcDbEntity
  8
0
  6
HIDDEN
 62
     7
370
    18
100
AcDbPolyline
 90
       15
 70
   128
 43
0.0
 10
650.3213145024
 20
267.1324529173
 10
649.0957915697
 20
267.6966488561
 10
647.6835204678
 20
268.0892702635
 10
646.1553183668
 20
268.2906294628
 10
644.5878157014
 20
268.2906294628
 10
643.0596136004
 20
268.0892702635
 10
641.6473424985
 20
267.6966488561
 10
640.4218195658
 20
267.1324529173
 10
639.4444976395
 20
266.4249735874
 10
638.764383722
 20
265.6096868341
 10
638.4155815649
 20
264.7274745397
 10
638.4155815649
 20
263.8225745122
 10
638.764383722
 20
262.9403622178
 10
639.4444976395
 20
262.1250754645
 10
640.4218195658
 20
261.4175961346
  0
LINE
  5
FD
330
1F
100
AcDbEntity
  8
0
  6
HIDDEN
 62
     7
370
    18
100
AcDbLine
 10
666.5847704697
 20
264.2750245259
 30
0.0
 11
641.8360331282
 21
278.5621664828
 31
0.0
  0
LWPOLYLINE
  5
FE
330
1F
100
AcDbEntity
  8
0
  6
HIDDEN
 62
     7
370
    18
100
AcDbPolyline
 90
       10
 70
   128
 43
0.0
 10
546.1028612287
 20
269.704656966
 10
546.956326787
 20
269.3596680872
 10
547.962714344
 20
269.2039962595
 10
549.0006387076
 20
269.2564178028
 10
549.9449108813
 20
269.5106099052
 10
550.6816377051
 20
269.9359132477
 10
551.1219590511
 20
270.4810299705
 10
551.2127656665
 20
271.0802109517
 10
550.9431049334
 20
271.6611861219
 10
550.3455019158
 20
272.1538813014
  0
LWPOLYLINE
  5
FF
330
1F
100
AcDbEntity
  8
0
  6
HIDDEN
 62
     7
370
    18
100
AcDbPolyline
 90
       10
 70
   128
 43
0.0
 10
550.3455019158
 20
272.1538813014
 10
549.4920363575
 20
272.4988701802
 10
548.4856488005
 20
272.6545420079
 10
547.4477244369
 20
272.6021204646
 10
546.5034522632
 20
272.3479283622
 10
545.7667254394
 20
271.9226250196
 10
545.3264040934
 20
271.3775082969
 10
545.235597478
 20
270.7783273157
 10
545.5052582111
 20
270.1973521455
 10
546.1028612287
 20
269.704656966
  0
LINE
  5
100
330
1F
100
AcDbEntity
  8
0
  6
HIDDEN
 62
     7
370
    18
100
AcDbLine
 10
641.8360331282
 20
291.626819473
 30
0.0
 11
641.8360331282
 21
278.5621664828
 31
0.0
  0
LINE
  5
101
330
1F
100
AcDbEntity
  8
0
  6
HIDDEN
 62
     7
370
    18
100
AcDbLine
 10
641.8360331282
 20
278.5621664828
 30
0.0
 11
646.6185462095
 21
288.8659334383
 31
0.0
  0
LWPOLYLINE
  5
102
330
1F
100
AcDbEntity
  8
0
  6
HIDDEN
 62
     7
370
    18
100
AcDbPolyline
 90
       10
 70
   128
 43
0.0
 10
574.57295619
 20
331.0425390993
 10
575.4264217483
 20
330.6975502205
 10
576.4328093053
 20
330.5418783928
 10
577.4707336688
 20
330.5942999361
 10
578.4150058426
 20
330.8484920385
 10
579.1517326664
 20
331.2737953811
 10
579.5920540124
 20
331.8189121038
 10
579.6828606278
 20
332.418093085
 10
579.4131998946
 20
332.9990682552
 10
578.8155968771
 20
333.4917634347
  0
LWPOLYLINE
  5
103
330
1F
100
AcDbEntity
  8
0
  6
HIDDEN
 62
     7
370
    18
100
AcDbPolyline
 90
       10
 70
   128
 43
0.0
 10
578.8155968771
 20
333.4917634347
 10
577.9621313188
 20
333.8367523135
 10
576.9557437618
 20
333.9924241412
 10
575.9178193982
 20
333.9400025979
 10
574.9735472245
 20
333.6858104955
 10
574.2368204007
 20
333.2605071529
 10
573.7964990547
 20
332.7153904302
 10
573.7056924393
 20
332.116209449
 10
573.9753531724
 20
331.5352342788
 10
574.57295619
 20
331.0425390993
  0
LWPOLYLINE
  5
104
330
1F
100
AcDbEntity
  8
0
  6
HIDDEN
 62
     7
370
    18
100
AcDbPolyline
 90
       10
 70
   128
 43
0.0
 10
603.0430511512
 20
392.3804212326
 10
603.8965167096
 20
392.0354323538
 10
604.9029042666
 20
391.8797605261
 10
605.9408286301
 20
391.9321820694
 10
606.8851008039
 20
392.1863741718
 10
607.6218276277
 20
392.6116775144
 10
608.0621489737
 20
393.1567942371
 10
608.1529555891
 20
393.7559752183
 10
607.8832948559
 20
394.3369503885
 10
607.2856918384
 20
394.829645568
  0
LWPOLYLINE
  5
105
330
1F
100
AcDbEntity
  8
0
  6
HIDDEN
 62
     7
370
    18
100
AcDbPolyline
 90
       10
 70
   128
 43
0.0
 10
607.2856918384
 20
394.829645568
 10
606.43222628
 20
395.1746344468
 10
605.425838723
 20
395.3303062745
 10
604.3879143595
 20
395.2778847312
 10
603.4436421858
 20
395.0236926288
 10
602.7069153619
 20
394.5983892862
 10
602.2665940159
 20
394.0532725635
 10
602.1757874005
 20
393.4540915823
 10
602.4454481337
 20
392.8731164121
 10
603.0430511512
 20
392.3804212326
  0
LINE
  5
106
330
1F
100
AcDbEntity
  8
0
  6
HIDDEN
 62
     7
370
    18
100
AcDbLine
 10
704.9371121505
 20
421.2027687732
 30
0.0
 11
585.1623096906
 21
439.7299875178
 31
0.0
  0
ARC
  5
107
330
1F
100
AcDbEntity
  8
0
  6
HIDDEN
 62
     7
370
    18
100
AcDbCircle
 10
705.6528115224
 20
419.3755543246
 30
0.0
 40
1.515724239710953
100
AcDbArc
 50
5.8452026488
 51
65.4749383088
  0
LWPOLYLINE
  5
108
330
1F
100
AcDbEntity
  8
0
  6
HIDDEN
 62
     7
370
    18
100
AcDbPolyline
 90
        9
 70
   128
 43
0.0
 10
670.4479854405
 20
421.0601566018
 10
671.2590438126
 20
420.7473059877
 10
672.2157523935
 20
420.6374474614
 10
673.1724609744
 20
420.7473059877
 10
673.9835193465
 20
421.0601566018
 10
674.5254512248
 20
421.5283706338
 10
674.7157523935
 20
422.0806667416
 10
674.5254512248
 20
422.6329628494
 10
673.9835193465
 20
423.1011768814
  0
ARC
  5
109
330
1F
100
AcDbEntity
  8
0
  6
HIDDEN
 62
     7
370
    18
100
AcDbCircle
 10
704.3950691799
 20
417.3348306522
 30
0.0
 40
3.905733719837897
100
AcDbArc
 50
61.1111612194
 51
82.0226660454
  0
LWPOLYLINE
  5
10A
330
1F
100
AcDbEntity
  8
0
  6
HIDDEN
 62
     7
370
    18
100
AcDbPolyline
 90
        9
 70
   128
 43
0.0
 10
673.9835193465
 20
423.1011768814
 10
673.1724609744
 20
423.4140274955
 10
672.2157523935
 20
423.5238860218
 10
671.2590438126
 20
423.4140274955
 10
670.4479854405
 20
423.1011768814
 10
669.9060535622
 20
422.6329628494
 10
669.7157523935
 20
422.0806667416
 10
669.9060535622
 20
421.5283706338
 10
670.4479854405
 20
421.0601566018
  0
LWPOLYLINE
  5
10B
330
1F
100
AcDbEntity
  8
0
  6
HIDDEN
 62
     7
370
    18
100
AcDbPolyline
 90
        9
 70
   128
 43
0.0
 10
598.0035484689
 20
432.2661356812
 10
598.8146068409
 20
431.9532850671
 10
599.7713154218
 20
431.8434265408
 10
600.7280240027
 20
431.9532850671
 10
601.5390823748
 20
432.2661356812
 10
602.0810142531
 20
432.7343497132
 10
602.2713154218
 20
433.286645821
 10
602.0810142531
 20
433.8389419288
 10
601.5390823748
 20
434.3071559608
  0
LWPOLYLINE
  5
10C
330
1F
100
AcDbEntity
  8
0
  6
HIDDEN
 62
     7
370
    18
100
AcDbPolyline
 90
        9
 70
   128
 43
0.0
 10
601.5390823748
 20
434.3071559608
 10
600.7280240027
 20
434.6200065749
 10
599.7713154218
 20
434.7298651012
 10
598.8146068409
 20
434.6200065749
 10
598.0035484689
 20
434.3071559608
 10
597.4616165905
 20
433.8389419288
 10
597.2713154218
 20
433.286645821
 10
597.4616165905
 20
432.7343497132
 10
598.0035484689
 20
432.2661356812
  0
ARC
  5
10D
330
1F
100
AcDbEntity
  8
0
  6
HIDDEN
 62
     7
370
    18
100
AcDbCircle
 10
584.269599826
 20
436.2841520878
 30
0.0
 40
3.559594459033653
100
AcDbArc
 50
75.4757485669
 51
141.3904241684
  0
LINE
  5
10E
330
1F
100
AcDbEntity
  8
0
  6
HIDDEN
 62
     7
370
    18
100
AcDbLine
 10
560.4476854799
 20
211.2084972575
 30
0.0
 11
560.4476854799
 21
224.2731502476
 31
0.0
  0
LINE
  5
10F
330
1F
100
AcDbEntity
  8
0
  6
HIDDEN
 62
     7
370
    18
100
AcDbLine
 10
546.4476854799
 20
224.2731502476
 30
0.0
 11
546.4476854799
 21
211.2084972575
 31
0.0
  0
LINE
  5
110
330
1F
100
AcDbEntity
  8
0
  6
HIDDEN
 62
     7
370
    18
100
AcDbLine
 10
576.1253550095
 20
221.4135986553
 30
0.0
 11
576.1253550095
 21
234.4782516454
 31
0.0
  0
LINE
  5
111
330
1F
100
AcDbEntity
  8
0
  6
HIDDEN
 62
     7
370
    18
100
AcDbLine
 10
566.1253550095
 20
234.4782516454
 30
0.0
 11
566.1253550095
 21
221.4135986553
 31
0.0
  0
LINE
  5
112
330
1F
100
AcDbEntity
  8
0
  6
HIDDEN
 62
     7
370
    18
100
AcDbLine
 10
584.1290866076
 20
226.9146781357
 30
0.0
 11
584.1290866076
 21
239.9793311258
 31
0.0
  0
LINE
  5
113
330
1F
100
AcDbEntity
  8
0
  6
HIDDEN
 62
     7
370
    18
100
AcDbLine
 10
579.1290866076
 20
239.9793311258
 30
0.0
 11
579.1290866076
 21
226.9146781357
 31
0.0
  0
LINE
  5
114
330
1F
100
AcDbEntity
  8
0
  6
HIDDEN
 62
     7
370
    18
100
AcDbLine
 10
511.6846496359
 20
238.120657215
 30
0.0
 11
511.6846496359
 21
251.1853102052
 31
0.0
  0
LINE
  5
115
330
1F
100
AcDbEntity
  8
0
  6
HIDDEN
 62
     7
370
    18
100
AcDbLine
 10
506.6846496359
 20
251.1853102052
 30
0.0
 11
506.6846496359
 21
238.120657215
 31
0.0
  0
LINE
  5
116
330
1F
100
AcDbEntity
  8
0
  6
HIDDEN
 62
     7
370
    18
100
AcDbLine
 10
632.6938975045
 20
254.0699231282
 30
0.0
 11
632.6938975045
 21
267.1345761183
 31
0.0
  0
LINE
  5
117
330
1F
100
AcDbEntity
  8
0
  6
HIDDEN
 62
     7
370
    18
100
AcDbLine
 10
622.6938975045
 20
267.1345761183
 30
0.0
 11
622.6938975045
 21
254.0699231282
 31
0.0
  0
LINE
  5
118
330
1F
100
AcDbEntity
  8
0
  6
HIDDEN
 62
     7
370
    18
100
AcDbLine
 10
652.3715670341
 20
264.2750245259
 30
0.0
 11
652.3715670341
 21
277.3396775161
 31
0.0
  0
LINE
  5
119
330
1F
100
AcDbEntity
  8
0
  6
HIDDEN
 62
     7
370
    18
100
AcDbLine
 10
638.3715670341
 20
277.3396775161
 30
0.0
 11
638.3715670341
 21
264.2750245259
 31
0.0
  0
LINE
  5
11A
330
1F
100
AcDbEntity
  8
0
  6
HIDDEN
 62
     7
370
    18
100
AcDbLine
 10
551.2241815723
 20
270.9292691337
 30
0.0
 11
551.2241815723
 21
283.9939221239
 31
0.0
  0
LINE
  5
11B
330
1F
100
AcDbEntity
  8
0
  6
HIDDEN
 62
     7
370
    18
100
AcDbLine
 10
545.2241815723
 20
283.9939221239
 30
0.0
 11
545.2241815723
 21
270.9292691337
 31
0.0
  0
LINE
  5
11C
330
1F
100
AcDbEntity
  8
0
  6
HIDDEN
 62
     7
370
    18
100
AcDbLine
 10
579.6942765335
 20
332.267151267
 30
0.0
 11
579.6942765335
 21
345.3318042572
 31
0.0
  0
LINE
  5
11D
330
1F
100
AcDbEntity
  8
0
  6
HIDDEN
 62
     7
370
    18
100
AcDbLine
 10
573.6942765335
 20
345.3318042572
 30
0.0
 11
573.6942765335
 21
332.267151267
 31
0.0
  0
LINE
  5
11E
330
1F
100
AcDbEntity
  8
0
  6
HIDDEN
 62
     7
370
    18
100
AcDbLine
 10
608.1643714948
 20
393.6050334003
 30
0.0
 11
608.1643714948
 21
406.6696863905
 31
0.0
  0
LINE
  5
11F
330
1F
100
AcDbEntity
  8
0
  6
HIDDEN
 62
     7
370
    18
100
AcDbLine
 10
602.1643714948
 20
406.6696863905
 30
0.0
 11
602.1643714948
 21
393.6050334003
 31
0.0
  0
LINE
  5
120
330
1F
100
AcDbEntity
  8
0
  6
HIDDEN
 62
     7
370
    18
100
AcDbLine
 10
674.7157523935
 20
422.0806667416
 30
0.0
 11
674.7157523935
 21
435.1453197318
 31
0.0
  0
LINE
  5
121
330
1F
100
AcDbEntity
  8
0
  6
HIDDEN
 62
     7
370
    18
100
AcDbLine
 10
669.7157523935
 20
435.1453197318
 30
0.0
 11
669.7157523935
 21
422.0806667416
 31
0.0
  0
LINE
  5
122
330
1F
100
AcDbEntity
  8
0
  6
HIDDEN
 62
     7
370
    18
100
AcDbLine
 10
602.2713154218
 20
433.286645821
 30
0.0
 11
602.2713154218
 21
446.3512988111
 31
0.0
  0
LINE
  5
123
330
1F
100
AcDbEntity
  8
0
  6
HIDDEN
 62
     7
370
    18
100
AcDbLine
 10
597.2713154218
 20
446.3512988111
 30
0.0
 11
597.2713154218
 21
433.286645821
 31
0.0
  0
ENDSEC
  0
SECTION
  2
OBJECTS
  0
DICTIONARY
  5
C
330
0
100
AcDbDictionary
281
     1
  3
ACAD_GROUP
350
D
  3
ACAD_LAYOUT
350
1A
  3
ACAD_MLINESTYLE
350
17
  3
ACAD_PLOTSETTINGS
350
19
  3
ACAD_PLOTSTYLENAME
350
E
  3
ACAD_SCALELIST
350
47
  3
DWGPROPS
350
124
  0
DICTIONARY
  5
D
102
{ACAD_REACTORS
330
C
102
}
330
C
100
AcDbDictionary
281
     1
  0
DICTIONARY
  5
1A
102
{ACAD_REACTORS
330
C
102
}
330
C
100
AcDbDictionary
281
     1
  3
Layout1
350
1E
  3
Layout2
350
26
  3
Model
350
22
  0
DICTIONARY
  5
17
102
{ACAD_REACTORS
330
C
102
}
330
C
100
AcDbDictionary
281
     1
  3
Standard
350
18
  0
DICTIONARY
  5
19
102
{ACAD_REACTORS
330
C
102
}
330
C
100
AcDbDictionary
281
     1
  0
ACDBDICTIONARYWDFLT
  5
E
102
{ACAD_REACTORS
330
C
102
}
330
C
100
AcDbDictionary
281
     1
  3
Normal
350
F
100
AcDbDictionaryWithDefault
340
F
  0
DICTIONARY
  5
47
102
{ACAD_REACTORS
330
C
102
}
330
C
100
AcDbDictionary
281
     1
  3
A0
350
48
  3
A1
350
49
  3
A2
350
4A
  3
A3
350
4B
  3
A4
350
4C
  3
A5
350
4D
  3
A6
350
4E
  3
A7
350
4F
  3
A8
350
50
  3
A9
350
51
  3
B0
350
52
  3
B1
350
53
  3
B2
350
54
  3
B3
350
55
  3
B4
350
56
  3
B5
350
57
  3
B6
350
58
  0
XRECORD
  5
124
102
{ACAD_REACTORS
330
C
102
}
330
C
100
AcDbXrecord
280
     1
  1
DWGPROPS COOKIE
  2

  3

  4

  6

  7

  8
imaizumi
  9

300
=
301
=
302
=
303
=
304
=
305
=
306
=
307
=
308
=
309
=
 40
0.0
 41
2461263.06940382
 42
2461263.069404584
  1

 90
        0
  0
LAYOUT
  5
1E
102
{ACAD_REACTORS
330
1A
102
}
330
1A
100
AcDbPlotSettings
  1

  2
none_device
  4

  6

 40
0.0
 41
0.0
 42
0.0
 43
0.0
 44
0.0
 45
0.0
 46
0.0
 47
0.0
 48
0.0
 49
0.0
140
0.0
141
0.0
142
1.0
143
1.0
 70
   688
 72
     1
 73
     0
 74
     5
  7

 75
    16
147
1.0
148
0.0
149
0.0
100
AcDbLayout
  1
Layout1
 70
     1
 71
     1
 10
0.0
 20
0.0
 11
420.0
 21
297.0
 12
0.0
 22
0.0
 32
0.0
 14
1.0000000000E+20
 24
1.0000000000E+20
 34
1.0000000000E+20
 15
-1.0000000000E+20
 25
-1.0000000000E+20
 35
-1.0000000000E+20
146
0.0
 13
0.0
 23
0.0
 33
0.0
 16
1.0
 26
0.0
 36
0.0
 17
0.0
 27
1.0
 37
0.0
 76
     0
330
1B
  0
LAYOUT
  5
26
102
{ACAD_REACTORS
330
1A
102
}
330
1A
100
AcDbPlotSettings
  1

  2
none_device
  4

  6

 40
0.0
 41
0.0
 42
0.0
 43
0.0
 44
0.0
 45
0.0
 46
0.0
 47
0.0
 48
0.0
 49
0.0
140
0.0
141
0.0
142
1.0
143
1.0
 70
   688
 72
     1
 73
     0
 74
     5
  7

 75
    16
147
1.0
148
0.0
149
0.0
100
AcDbLayout
  1
Layout2
 70
     1
 71
     2
 10
0.0
 20
0.0
 11
0.0
 21
0.0
 12
0.0
 22
0.0
 32
0.0
 14
0.0
 24
0.0
 34
0.0
 15
0.0
 25
0.0
 35
0.0
146
0.0
 13
0.0
 23
0.0
 33
0.0
 16
1.0
 26
0.0
 36
0.0
 17
0.0
 27
1.0
 37
0.0
 76
     0
330
23
  0
LAYOUT
  5
22
102
{ACAD_REACTORS
330
1A
102
}
330
1A
100
AcDbPlotSettings
  1

  2
none_device
  4
Letter_(8.50_x_11.00_Inches)
  6

 40
6.35
 41
6.35
 42
6.35000508
 43
6.35000508
 44
215.9
 45
279.4
 46
0.0
 47
0.0
 48
0.0
 49
0.0
140
0.0
141
0.0
142
1.0
143
1.0
 70
  1712
 72
     1
 73
     0
 74
     0
  7

 75
     0
147
1.0
148
0.0
149
0.0
100
AcDbLayout
  1
Model
 70
     1
 71
     0
 10
0.0
 20
0.0
 11
841.0
 21
594.0
 12
0.0
 22
0.0
 32
0.0
 14
0.0
 24
0.0
 34
0.0
 15
841.0
 25
594.0
 35
0.0
146
0.0
 13
0.0
 23
0.0
 33
0.0
 16
1.0
 26
0.0
 36
0.0
 17
0.0
 27
1.0
 37
0.0
 76
     0
330
1F
331
29
  0
MLINESTYLE
  5
18
102
{ACAD_REACTORS
330
17
102
}
330
17
100
AcDbMlineStyle
  2
Standard
 70
     0
  3

 62
   256
 51
90.0
 52
90.0
 71
     2
 49
0.5
 62
   256
  6
BYLAYER
 49
-0.5
 62
   256
  6
BYLAYER
  0
ACDBPLACEHOLDER
  5
F
102
{ACAD_REACTORS
330
E
102
}
330
E
  0
SCALE
  5
48
102
{ACAD_REACTORS
330
47
102
}
330
47
100
AcDbScale
 70
     0
300
1:1
140
1.0
141
1.0
290
     1
  0
SCALE
  5
49
102
{ACAD_REACTORS
330
47
102
}
330
47
100
AcDbScale
 70
     0
300
1:2
140
1.0
141
2.0
290
     0
  0
SCALE
  5
4A
102
{ACAD_REACTORS
330
47
102
}
330
47
100
AcDbScale
 70
     0
300
1:4
140
1.0
141
4.0
290
     0
  0
SCALE
  5
4B
102
{ACAD_REACTORS
330
47
102
}
330
47
100
AcDbScale
 70
     0
300
1:5
140
1.0
141
5.0
290
     0
  0
SCALE
  5
4C
102
{ACAD_REACTORS
330
47
102
}
330
47
100
AcDbScale
 70
     0
300
1:8
140
1.0
141
8.0
290
     0
  0
SCALE
  5
4D
102
{ACAD_REACTORS
330
47
102
}
330
47
100
AcDbScale
 70
     0
300
1:10
140
1.0
141
10.0
290
     0
  0
SCALE
  5
4E
102
{ACAD_REACTORS
330
47
102
}
330
47
100
AcDbScale
 70
     0
300
1:16
140
1.0
141
16.0
290
     0
  0
SCALE
  5
4F
102
{ACAD_REACTORS
330
47
102
}
330
47
100
AcDbScale
 70
     0
300
1:20
140
1.0
141
20.0
290
     0
  0
SCALE
  5
50
102
{ACAD_REACTORS
330
47
102
}
330
47
100
AcDbScale
 70
     0
300
1:30
140
1.0
141
30.0
290
     0
  0
SCALE
  5
51
102
{ACAD_REACTORS
330
47
102
}
330
47
100
AcDbScale
 70
     0
300
1:40
140
1.0
141
40.0
290
     0
  0
SCALE
  5
52
102
{ACAD_REACTORS
330
47
102
}
330
47
100
AcDbScale
 70
     0
300
1:50
140
1.0
141
50.0
290
     0
  0
SCALE
  5
53
102
{ACAD_REACTORS
330
47
102
}
330
47
100
AcDbScale
 70
     0
300
1:100
140
1.0
141
100.0
290
     0
  0
SCALE
  5
54
102
{ACAD_REACTORS
330
47
102
}
330
47
100
AcDbScale
 70
     0
300
2:1
140
2.0
141
1.0
290
     0
  0
SCALE
  5
55
102
{ACAD_REACTORS
330
47
102
}
330
47
100
AcDbScale
 70
     0
300
4:1
140
4.0
141
1.0
290
     0
  0
SCALE
  5
56
102
{ACAD_REACTORS
330
47
102
}
330
47
100
AcDbScale
 70
     0
300
8:1
140
8.0
141
1.0
290
     0
  0
SCALE
  5
57
102
{ACAD_REACTORS
330
47
102
}
330
47
100
AcDbScale
 70
     0
300
10:1
140
10.0
141
1.0
290
     0
  0
SCALE
  5
58
102
{ACAD_REACTORS
330
47
102
}
330
47
100
AcDbScale
 70
     0
300
100:1
140
100.0
141
1.0
290
     0
  0
ENDSEC
  0
EOF
