  0
SECTION
  2
HEADER
  9
$ACADVER
  1
AC1015
  9
$ACADMAINTVER
 70
     6
  9
$DWGCODEPAGE
  3
DOS932
  9
$INSBASE
 10
0.0
 20
0.0
 30
0.0
  9
$EXTMIN
 10
0.0
 20
0.0
 30
0.0
  9
$EXTMAX
 10
841.0
 20
594.0
 30
0.0
  9
$LIMMIN
 10
0.0
 20
0.0
  9
$LIMMAX
 10
841.0
 20
594.0
  9
$ORTHOMODE
 70
     0
  9
$REGENMODE
 70
     1
  9
$FILLMODE
 70
     1
  9
$QTEXTMODE
 70
     0
  9
$MIRRTEXT
 70
     1
  9
$LTSCALE
 40
1.0
  9
$ATTMODE
 70
     1
  9
$TEXTSIZE
 40
3.5
  9
$TRACEWID
 40
1.0
  9
$TEXTSTYLE
  7
Standard
  9
$CLAYER
  8
0
  9
$CELTYPE
  6
ByLayer
  9
$CECOLOR
 62
   256
  9
$CELTSCALE
 40
1.0
  9
$DISPSILH
 70
     0
  9
$DIMSCALE
 40
1.0
  9
$DIMASZ
 40
3.302
  9
$DIMEXO
 40
1.0
  9
$DIMDLI
 40
3.75
  9
$DIMRND
 40
0.0
  9
$DIMDLE
 40
0.0
  9
$DIMEXE
 40
1.0
  9
$DIMTP
 40
0.0
  9
$DIMTM
 40
0.0
  9
$DIMTXT
 40
3.5
  9
$DIMCEN
 40
2.5
  9
$DIMTSZ
 40
0.0
  9
$DIMTOL
 70
     0
  9
$DIMLIM
 70
     0
  9
$DIMTIH
 70
     1
  9
$DIMTOH
 70
     1
  9
$DIMSE1
 70
     0
  9
$DIMSE2
 70
     0
  9
$DIMTAD
 70
     1
  9
$DIMZIN
 70
     1
  9
$DIMBLK
  1

  9
$DIMASO
 70
     1
  9
$DIMSHO
 70
     1
  9
$DIMPOST
  1

  9
$DIMAPOST
  1

  9
$DIMALT
 70
     0
  9
$DIMALTD
 70
     3
  9
$DIMALTF
 40
0.0393700787
  9
$DIMLFAC
 40
1.0
  9
$DIMTOFL
 70
     1
  9
$DIMTVP
 40
0.0
  9
$DIMTIX
 70
     0
  9
$DIMSOXD
 70
     0
  9
$DIMSAH
 70
     0
  9
$DIMBLK1
  1

  9
$DIMBLK2
  1

  9
$DIMSTYLE
  2
ISO-25
  9
$DIMCLRD
 70
     0
  9
$DIMCLRE
 70
     0
  9
$DIMCLRT
 70
     0
  9
$DIMTFAC
 40
1.0
  9
$DIMGAP
 40
1.524
  9
$DIMJUST
 70
     0
  9
$DIMSD1
 70
     0
  9
$DIMSD2
 70
     0
  9
$DIMTOLJ
 70
     0
  9
$DIMTZIN
 70
     1
  9
$DIMALTZ
 70
     0
  9
$DIMALTTZ
 70
     0
  9
$DIMUPT
 70
     0
  9
$DIMDEC
 70
     2
  9
$DIMTDEC
 70
     2
  9
$DIMALTU
 70
     2
  9
$DIMALTTD
 70
     3
  9
$DIMTXSTY
  7
Standard
  9
$DIMAUNIT
 70
     0
  9
$DIMADEC
 70
     2
  9
$DIMALTRND
 40
0.0
  9
$DIMAZIN
 70
     0
  9
$DIMDSEP
 70
    44
  9
$DIMATFIT
 70
     3
  9
$DIMFRAC
 70
     0
  9
$DIMLDRBLK
  1

  9
$DIMLUNIT
 70
     2
  9
$DIMLWD
 70
    -2
  9
$DIMLWE
 70
    -2
  9
$DIMTMOVE
 70
     0
  9
$LUNITS
 70
     2
  9
$LUPREC
 70
     2
  9
$SKETCHINC
 40
1.0
  9
$FILLETRAD
 40
0.0
  9
$AUNITS
 70
     0
  9
$AUPREC
 70
     2
  9
$MENU
  1
.
  9
$ELEVATION
 40
0.0
  9
$PELEVATION
 40
0.0
  9
$THICKNESS
 40
0.0
  9
$LIMCHECK
 70
     0
  9
$CHAMFERA
 40
0.0
  9
$CHAMFERB
 40
0.0
  9
$CHAMFERC
 40
0.0
  9
$CHAMFERD
 40
0.0
  9
$SKPOLY
 70
     0
  9
$TDCREATE
 40
2461263.426761366
  9
$TDUCREATE
 40
2461263.051761366
  9
$TDUPDATE
 40
2461263.426761806
  9
$TDUUPDATE
 40
2461263.051761806
  9
$TDINDWG
 40
0.0000000116
  9
$TDUSRTIMER
 40
0.0000000116
  9
$USRTIMER
 70
     1
  9
$ANGBASE
 50
0.0
  9
$ANGDIR
 70
     0
  9
$PDMODE
 70
     0
  9
$PDSIZE
 40
-1.0
  9
$PLINEWID
 40
0.0
  9
$SPLFRAME
 70
     0
  9
$SPLINETYPE
 70
     6
  9
$SPLINESEGS
 70
     8
  9
$HANDSEED
  5
108
  9
$SURFTAB1
 70
     6
  9
$SURFTAB2
 70
     6
  9
$SURFTYPE
 70
     6
  9
$SURFU
 70
     6
  9
$SURFV
 70
     6
  9
$UCSBASE
  2

  9
$UCSNAME
  2

  9
$UCSORG
 10
0.0
 20
0.0
 30
0.0
  9
$UCSXDIR
 10
1.0
 20
0.0
 30
0.0
  9
$UCSYDIR
 10
0.0
 20
1.0
 30
0.0
  9
$UCSORTHOREF
  2

  9
$UCSORTHOVIEW
 70
     0
  9
$UCSORGTOP
 10
0.0
 20
0.0
 30
0.0
  9
$UCSORGBOTTOM
 10
0.0
 20
0.0
 30
0.0
  9
$UCSORGLEFT
 10
0.0
 20
0.0
 30
0.0
  9
$UCSORGRIGHT
 10
0.0
 20
0.0
 30
0.0
  9
$UCSORGFRONT
 10
0.0
 20
0.0
 30
0.0
  9
$UCSORGBACK
 10
0.0
 20
0.0
 30
0.0
  9
$PUCSBASE
  2

  9
$PUCSNAME
  2

  9
$PUCSORG
 10
0.0
 20
0.0
 30
0.0
  9
$PUCSXDIR
 10
1.0
 20
0.0
 30
0.0
  9
$PUCSYDIR
 10
0.0
 20
1.0
 30
0.0
  9
$PUCSORTHOREF
  2

  9
$PUCSORTHOVIEW
 70
     0
  9
$PUCSORGTOP
 10
0.0
 20
0.0
 30
0.0
  9
$PUCSORGBOTTOM
 10
0.0
 20
0.0
 30
0.0
  9
$PUCSORGLEFT
 10
0.0
 20
0.0
 30
0.0
  9
$PUCSORGRIGHT
 10
0.0
 20
0.0
 30
0.0
  9
$PUCSORGFRONT
 10
0.0
 20
0.0
 30
0.0
  9
$PUCSORGBACK
 10
0.0
 20
0.0
 30
0.0
  9
$USERI1
 70
     0
  9
$USERI2
 70
     0
  9
$USERI3
 70
     0
  9
$USERI4
 70
     0
  9
$USERI5
 70
     0
  9
$USERR1
 40
0.0
  9
$USERR2
 40
0.0
  9
$USERR3
 40
0.0
  9
$USERR4
 40
0.0
  9
$USERR5
 40
0.0
  9
$WORLDVIEW
 70
     1
  9
$SHADEDGE
 70
     3
  9
$SHADEDIF
 70
    70
  9
$TILEMODE
 70
     1
  9
$MAXACTVP
 70
    64
  9
$PINSBASE
 10
0.0
 20
0.0
 30
0.0
  9
$PLIMCHECK
 70
     0
  9
$PEXTMIN
 10
1.0000000000E+20
 20
1.0000000000E+20
 30
1.0000000000E+20
  9
$PEXTMAX
 10
-1.0000000000E+20
 20
-1.0000000000E+20
 30
-1.0000000000E+20
  9
$PLIMMIN
 10
0.0
 20
0.0
  9
$PLIMMAX
 10
420.0
 20
297.0
  9
$UNITMODE
 70
     0
  9
$VISRETAIN
 70
     1
  9
$PLINEGEN
 70
     0
  9
$PSLTSCALE
 70
     1
  9
$TREEDEPTH
 70
  3020
  9
$CMLSTYLE
  2
Standard
  9
$CMLJUST
 70
     0
  9
$CMLSCALE
 40
20.0
  9
$PROXYGRAPHICS
 70
     1
  9
$MEASUREMENT
 70
     1
  9
$CELWEIGHT
370
    -1
  9
$ENDCAPS
280
     0
  9
$JOINSTYLE
280
     0
  9
$LWDISPLAY
290
     1
  9
$INSUNITS
 70
     4
  9
$HYPERLINKBASE
  1

  9
$STYLESHEET
  1

  9
$XEDIT
290
     1
  9
$CEPSNTYPE
380
     0
  9
$PSTYLEMODE
290
     1
  9
$FINGERPRINTGUID
  2
{b9ce296b-89be-4897-a6a0-7f4a2b29e043}
  9
$VERSIONGUID
  2
{FAEB1C32-E019-11D5-929B-00C0DF256EC4}
  9
$EXTNAMES
290
     1
  9
$PSVPSCALE
 40
0.0
  9
$OLESTARTUP
290
     0
  0
ENDSEC
  0
SECTION
  2
CLASSES
  0
CLASS
  1
ACDBDICTIONARYWDFLT
  2
AcDbDictionaryWithDefault
  3
ObjectDBX Classes
 90
        0
280
     0
281
     0
  0
CLASS
  1
VISUALSTYLE
  2
AcDbVisualStyle
  3
ObjectDBX Classes
 90
     4095
280
     0
281
     0
  0
CLASS
  1
MATERIAL
  2
AcDbMaterial
  3
ObjectDBX Classes
 90
     1153
280
     0
281
     0
  0
CLASS
  1
SCALE
  2
AcDbScale
  3
ObjectDBX Classes
 90
     1153
280
     0
281
     0
  0
CLASS
  1
TABLESTYLE
  2
AcDbTableStyle
  3
ObjectDBX Classes
 90
     4095
280
     0
281
     0
  0
CLASS
  1
MLEADERSTYLE
  2
AcDbMLeaderStyle
  3
ACDB_MLEADERSTYLE_CLASS
 90
     4095
280
     0
281
     0
  0
CLASS
  1
SUN
  2
AcDbSun
  3
SCENEOE
 90
     1153
280
     0
281
     0
  0
CLASS
  1
ACDBPLACEHOLDER
  2
AcDbPlaceHolder
  3
ObjectDBX Classes
 90
        0
280
     0
281
     0
  0
CLASS
  1
LAYOUT
  2
AcDbLayout
  3
ObjectDBX Classes
 90
        0
280
     0
281
     0
  0
ENDSEC
  0
SECTION
  2
TABLES
  0
TABLE
  2
VPORT
  5
8
330
0
100
AcDbSymbolTable
 70
     1
  0
VPORT
  5
29
330
8
100
AcDbSymbolTableRecord
100
AcDbViewportTableRecord
  2
*Active
 70
     0
 10
0.0
 20
0.0
 11
1.0
 21
1.0
 12
420.5
 22
297.0
 13
0.0
 23
0.0
 14
10.0
 24
10.0
 15
10.0
 25
10.0
 16
0.0
 26
0.0
 36
1.0
 17
0.0
 27
0.0
 37
0.0
 40
594.0
 41
1.4158249158
 42
50.0
 43
0.0
 44
0.0
 50
0.0
 51
0.0
 71
     0
 72
  2000
 73
     1
 74
     3
 75
     0
 76
     0
 77
     0
 78
     0
281
     0
 65
     1
110
0.0
120
0.0
130
0.0
111
1.0
121
0.0
131
0.0
112
0.0
122
1.0
132
0.0
 79
     0
146
0.0
  0
ENDTAB
  0
TABLE
  2
LTYPE
  5
5
330
0
100
AcDbSymbolTable
 70
     6
  0
LTYPE
  5
14
330
5
100
AcDbSymbolTableRecord
100
AcDbLinetypeTableRecord
  2
ByBlock
 70
     0
  3

 72
    65
 73
     0
 40
0.0
  0
LTYPE
  5
15
330
5
100
AcDbSymbolTableRecord
100
AcDbLinetypeTableRecord
  2
ByLayer
 70
     0
  3

 72
    65
 73
     0
 40
0.0
  0
LTYPE
  5
16
330
5
100
AcDbSymbolTableRecord
100
AcDbLinetypeTableRecord
  2
Continuous
 70
     0
  3
Solid line
 72
    65
 73
     0
 40
0.0
  0
LTYPE
  5
5E
330
5
100
AcDbSymbolTableRecord
100
AcDbLinetypeTableRecord
  2
HIDDEN
 70
     0
  3
Hidden __ __ __ __ __ __ __ __ __ __ __ __ __ __
 72
    65
 73
     2
 40
1.905
 49
1.27
 74
     0
 49
-0.635
 74
     0
  0
LTYPE
  5
5F
330
5
100
AcDbSymbolTableRecord
100
AcDbLinetypeTableRecord
  2
PHANTOM
 70
     0
  3
Phantom ______  __  __  ______  __  __  ______
 72
    65
 73
     6
 40
12.7
 49
6.35
 74
     0
 49
-1.27
 74
     0
 49
1.27
 74
     0
 49
-1.27
 74
     0
 49
1.27
 74
     0
 49
-1.27
 74
     0
  0
LTYPE
  5
60
330
5
100
AcDbSymbolTableRecord
100
AcDbLinetypeTableRecord
  2
CENTER
 70
     0
  3
Center ____ _ ____ _ ____ _ ____ _ ____ _ ____
 72
    65
 73
     4
 40
10.16
 49
6.35
 74
     0
 49
-1.27
 74
     0
 49
1.27
 74
     0
 49
-1.27
 74
     0
  0
LTYPE
  5
61
330
5
100
AcDbSymbolTableRecord
100
AcDbLinetypeTableRecord
  2
CENTERX2
 70
     0
  3
Center (2x) ________  __  ________  __  _____
 72
    65
 73
     4
 40
20.32
 49
12.7
 74
     0
 49
-2.54
 74
     0
 49
2.54
 74
     0
 49
-2.54
 74
     0
  0
LTYPE
  5
62
330
5
100
AcDbSymbolTableRecord
100
AcDbLinetypeTableRecord
  2
DOT2
 70
     0
  3
Dot (.5x) ........................................
 72
    65
 73
     2
 40
0.635
 49
0.0
 74
     0
 49
-0.635
 74
     0
  0
ENDTAB
  0
TABLE
  2
LAYER
  5
2
330
0
100
AcDbSymbolTable
 70
     1
  0
LAYER
  5
10
330
2
100
AcDbSymbolTableRecord
100
AcDbLayerTableRecord
  2
0
 70
     0
 62
     7
  6
Continuous
370
    -3
390
F
  0
ENDTAB
  0
TABLE
  2
STYLE
  5
3
330
0
100
AcDbSymbolTable
 70
     1
  0
STYLE
  5
11
330
3
100
AcDbSymbolTableRecord
100
AcDbTextStyleTableRecord
  2
Standard
 70
     0
 40
0.0
 41
1.0
 50
0.0
 71
     0
 42
3.5
  3
txt
  4
bigfont
  0
ENDTAB
  0
TABLE
  2
VIEW
  5
6
330
0
100
AcDbSymbolTable
 70
     0
  0
ENDTAB
  0
TABLE
  2
UCS
  5
7
330
0
100
AcDbSymbolTable
 70
     0
  0
ENDTAB
  0
TABLE
  2
APPID
  5
9
330
0
100
AcDbSymbolTable
 70
     1
  0
APPID
  5
12
330
9
100
AcDbSymbolTableRecord
100
AcDbRegAppTableRecord
  2
ACAD
 70
     0
  0
ENDTAB
  0
TABLE
  2
DIMSTYLE
  5
A
330
0
100
AcDbSymbolTable
 70
     1
100
AcDbDimStyleTable
  0
DIMSTYLE
105
27
330
A
100
AcDbSymbolTableRecord
100
AcDbDimStyleTableRecord
  2
ISO-25
 70
     0
 41
2.5
 42
0.625
 43
3.75
 44
1.25
 73
     0
 74
     0
 77
     1
 78
     8
140
2.5
141
2.5
143
0.0393700787
147
0.625
171
     3
172
     1
178
     0
271
     2
272
     2
274
     3
278
    44
283
     0
284
     8
340
11
  0
ENDTAB
  0
TABLE
  2
BLOCK_RECORD
  5
1
330
0
100
AcDbSymbolTable
 70
     1
  0
BLOCK_RECORD
  5
1F
330
1
100
AcDbSymbolTableRecord
100
AcDbBlockTableRecord
  2
*Model_Space
340
22
  0
BLOCK_RECORD
  5
1B
330
1
100
AcDbSymbolTableRecord
100
AcDbBlockTableRecord
  2
*Paper_Space
340
1E
  0
BLOCK_RECORD
  5
23
330
1
100
AcDbSymbolTableRecord
100
AcDbBlockTableRecord
  2
*Paper_Space0
340
26
  0
ENDTAB
  0
ENDSEC
  0
SECTION
  2
BLOCKS
  0
BLOCK
  5
20
330
1F
100
AcDbEntity
  8
0
100
AcDbBlockBegin
  2
*Model_Space
 70
     0
 10
0.0
 20
0.0
 30
0.0
  3
*Model_Space
  1

  0
ENDBLK
  5
21
330
1F
100
AcDbEntity
  8
0
100
AcDbBlockEnd
  0
BLOCK
  5
1C
330
1B
100
AcDbEntity
 67
     1
  8
0
100
AcDbBlockBegin
  2
*Paper_Space
 70
     0
 10
0.0
 20
0.0
 30
0.0
  3
*Paper_Space
  1

  0
ENDBLK
  5
1D
330
1B
100
AcDbEntity
 67
     1
  8
0
100
AcDbBlockEnd
  0
BLOCK
  5
24
330
23
100
AcDbEntity
  8
0
100
AcDbBlockBegin
  2
*Paper_Space0
 70
     0
 10
0.0
 20
0.0
 30
0.0
  3
*Paper_Space0
  1

  0
ENDBLK
  5
25
330
23
100
AcDbEntity
  8
0
100
AcDbBlockEnd
  0
ENDSEC
  0
SECTION
  2
ENTITIES
  0
ARC
  5
63
330
1F
100
AcDbEntity
  8
0
  6
Continuous
 62
     7
370
    25
100
AcDbCircle
 10
318.62
 20
195.12
 30
0.0
 40
7.074999999999989
100
AcDbArc
 50
0.0
 51
180.0
  0
ARC
  5
64
330
1F
100
AcDbEntity
  8
0
  6
Continuous
 62
     7
370
    25
100
AcDbCircle
 10
318.62
 20
195.12
 30
0.0
 40
7.074999999999989
100
AcDbArc
 50
180.0
 51
0.0
  0
ARC
  5
65
330
1F
100
AcDbEntity
  8
0
  6
Continuous
 62
     7
370
    25
100
AcDbCircle
 10
318.62
 20
195.12
 30
0.0
 40
3.688675134594803
100
AcDbArc
 50
180.0
 51
0.0
  0
ARC
  5
66
330
1F
100
AcDbEntity
  8
0
  6
Continuous
 62
     7
370
    25
100
AcDbCircle
 10
318.62
 20
195.12
 30
0.0
 40
3.688675134594803
100
AcDbArc
 50
0.0
 51
180.0
  0
ARC
  5
67
330
1F
100
AcDbEntity
  8
0
  6
Continuous
 62
     7
370
    25
100
AcDbCircle
 10
318.62
 20
195.12
 30
0.0
 40
7.375000000000057
100
AcDbArc
 50
0.0
 51
180.0
  0
ARC
  5
68
330
1F
100
AcDbEntity
  8
0
  6
Continuous
 62
     7
370
    25
100
AcDbCircle
 10
318.62
 20
195.12
 30
0.0
 40
3.400000000000034
100
AcDbArc
 50
180.0
 51
0.0
  0
ARC
  5
69
330
1F
100
AcDbEntity
  8
0
  6
Continuous
 62
     7
370
    25
100
AcDbCircle
 10
318.62
 20
195.12
 30
0.0
 40
3.400000000000034
100
AcDbArc
 50
0.0
 51
180.0
  0
ARC
  5
6A
330
1F
100
AcDbEntity
  8
0
  6
Continuous
 62
     7
370
    25
100
AcDbCircle
 10
318.62
 20
195.12
 30
0.0
 40
7.375000000000057
100
AcDbArc
 50
180.0
 51
0.0
  0
ARC
  5
6B
330
1F
100
AcDbEntity
  8
0
  6
Continuous
 62
     7
370
    25
100
AcDbCircle
 10
318.62
 20
195.12
 30
0.0
 40
18.0
100
AcDbArc
 50
0.0
 51
180.0
  0
ARC
  5
6C
330
1F
100
AcDbEntity
  8
0
  6
Continuous
 62
     7
370
    25
100
AcDbCircle
 10
318.62
 20
195.12
 30
0.0
 40
18.0
100
AcDbArc
 50
180.0
 51
0.0
  0
ARC
  5
6D
330
1F
100
AcDbEntity
  8
0
  6
Continuous
 62
     7
370
    25
100
AcDbCircle
 10
318.62
 20
195.12
 30
0.0
 40
21.00000000000006
100
AcDbArc
 50
0.0
 51
180.0
  0
ARC
  5
6E
330
1F
100
AcDbEntity
  8
0
  6
Continuous
 62
     7
370
    25
100
AcDbCircle
 10
318.62
 20
195.12
 30
0.0
 40
21.00000000000006
100
AcDbArc
 50
180.0
 51
0.0
  0
ARC
  5
6F
330
1F
100
AcDbEntity
  8
0
  6
HIDDEN
 62
     7
370
    18
100
AcDbCircle
 10
318.62
 20
195.12
 30
0.0
 40
1.0
100
AcDbArc
 50
0.0
 51
180.0
  0
ARC
  5
70
330
1F
100
AcDbEntity
  8
0
  6
HIDDEN
 62
     7
370
    18
100
AcDbCircle
 10
318.62
 20
195.12
 30
0.0
 40
1.0
100
AcDbArc
 50
180.0
 51
0.0
  0
ARC
  5
71
330
1F
100
AcDbEntity
  8
0
  6
HIDDEN
 62
     7
370
    18
100
AcDbCircle
 10
318.62
 20
195.12
 30
0.0
 40
2.125
100
AcDbArc
 50
180.0
 51
0.0
  0
ARC
  5
72
330
1F
100
AcDbEntity
  8
0
  6
HIDDEN
 62
     7
370
    18
100
AcDbCircle
 10
318.62
 20
195.12
 30
0.0
 40
2.125
100
AcDbArc
 50
0.0
 51
180.0
  0
ARC
  5
73
330
1F
100
AcDbEntity
  8
0
  6
HIDDEN
 62
     7
370
    18
100
AcDbCircle
 10
318.62
 20
195.12
 30
0.0
 40
20.50000000000006
100
AcDbArc
 50
180.0
 51
0.0
  0
ARC
  5
74
330
1F
100
AcDbEntity
  8
0
  6
HIDDEN
 62
     7
370
    18
100
AcDbCircle
 10
318.62
 20
195.12
 30
0.0
 40
20.50000000000006
100
AcDbArc
 50
0.0
 51
180.0
  0
LINE
  5
75
330
1F
100
AcDbEntity
  8
0
  6
Continuous
 62
     7
370
    25
100
AcDbLine
 10
339.12
 20
419.88
 30
0.0
 11
339.62
 21
419.38
 31
0.0
  0
LINE
  5
76
330
1F
100
AcDbEntity
  8
0
  6
Continuous
 62
     7
370
    25
100
AcDbLine
 10
339.62
 20
419.38
 30
0.0
 11
297.62
 21
419.38
 31
0.0
  0
LINE
  5
77
330
1F
100
AcDbEntity
  8
0
  6
Continuous
 62
     7
370
    25
100
AcDbLine
 10
298.12
 20
419.88
 30
0.0
 11
297.62
 21
419.38
 31
0.0
  0
LINE
  5
78
330
1F
100
AcDbEntity
  8
0
  6
Continuous
 62
     7
370
    25
100
AcDbLine
 10
298.12
 20
419.88
 30
0.0
 11
339.12
 21
419.88
 31
0.0
  0
LINE
  5
79
330
1F
100
AcDbEntity
  8
0
  6
Continuous
 62
     7
370
    25
100
AcDbLine
 10
339.62
 20
419.38
 30
0.0
 11
339.62
 21
367.88
 31
0.0
  0
LINE
  5
7A
330
1F
100
AcDbEntity
  8
0
  6
Continuous
 62
     7
370
    25
100
AcDbLine
 10
339.62
 20
367.88
 30
0.0
 11
297.62
 21
367.88
 31
0.0
  0
LINE
  5
7B
330
1F
100
AcDbEntity
  8
0
  6
Continuous
 62
     7
370
    25
100
AcDbLine
 10
297.62
 20
419.38
 30
0.0
 11
297.62
 21
367.88
 31
0.0
  0
LINE
  5
7C
330
1F
100
AcDbEntity
  8
0
  6
Continuous
 62
     7
370
    25
100
AcDbLine
 10
336.62
 20
367.88
 30
0.0
 11
336.62
 21
333.2830398304
 31
0.0
  0
LINE
  5
7D
330
1F
100
AcDbEntity
  8
0
  6
Continuous
 62
     7
370
    25
100
AcDbLine
 10
336.62
 20
333.2830398304
 30
0.0
 11
300.62
 21
333.2830398304
 31
0.0
  0
LINE
  5
7E
330
1F
100
AcDbEntity
  8
0
  6
Continuous
 62
     7
370
    25
100
AcDbLine
 10
300.62
 20
367.88
 30
0.0
 11
300.62
 21
333.2830398304
 31
0.0
  0
LINE
  5
7F
330
1F
100
AcDbEntity
  8
0
  6
Continuous
 62
     7
370
    25
100
AcDbLine
 10
311.245
 20
314.88
 30
0.0
 11
300.62
 21
333.2830398304
 31
0.0
  0
LINE
  5
80
330
1F
100
AcDbEntity
  8
0
  6
Continuous
 62
     7
370
    25
100
AcDbLine
 10
325.995
 20
314.88
 30
0.0
 11
336.62
 21
333.2830398304
 31
0.0
  0
LINE
  5
81
330
1F
100
AcDbEntity
  8
0
  6
Continuous
 62
     7
370
    25
100
AcDbLine
 10
325.995
 20
314.88
 30
0.0
 11
311.245
 21
314.88
 31
0.0
  0
LINE
  5
82
330
1F
100
AcDbEntity
  8
0
  6
Continuous
 62
     7
370
    25
100
AcDbLine
 10
325.995
 20
314.88
 30
0.0
 11
325.995
 21
280.18
 31
0.0
  0
LINE
  5
83
330
1F
100
AcDbEntity
  8
0
  6
Continuous
 62
     7
370
    25
100
AcDbLine
 10
311.245
 20
280.18
 30
0.0
 11
325.995
 21
280.18
 31
0.0
  0
LINE
  5
84
330
1F
100
AcDbEntity
  8
0
  6
Continuous
 62
     7
370
    25
100
AcDbLine
 10
311.245
 20
314.88
 30
0.0
 11
311.245
 21
280.18
 31
0.0
  0
LINE
  5
85
330
1F
100
AcDbEntity
  8
0
  6
Continuous
 62
     7
370
    25
100
AcDbLine
 10
311.545
 20
279.88
 30
0.0
 11
311.245
 21
280.18
 31
0.0
  0
LINE
  5
86
330
1F
100
AcDbEntity
  8
0
  6
Continuous
 62
     7
370
    25
100
AcDbLine
 10
325.695
 20
279.88
 30
0.0
 11
325.995
 21
280.18
 31
0.0
  0
LINE
  5
87
330
1F
100
AcDbEntity
  8
0
  6
Continuous
 62
     7
370
    25
100
AcDbLine
 10
325.695
 20
279.88
 30
0.0
 11
311.545
 21
279.88
 31
0.0
  0
LINE
  5
88
330
1F
100
AcDbEntity
  8
0
  6
HIDDEN
 62
     7
370
    18
100
AcDbLine
 10
322.02
 20
280.38
 30
0.0
 11
322.3086751346
 21
279.88
 31
0.0
  0
LINE
  5
89
330
1F
100
AcDbEntity
  8
0
  6
HIDDEN
 62
     7
370
    18
100
AcDbLine
 10
322.02
 20
280.38
 30
0.0
 11
315.22
 21
280.38
 31
0.0
  0
LINE
  5
8A
330
1F
100
AcDbEntity
  8
0
  6
HIDDEN
 62
     7
370
    18
100
AcDbLine
 10
315.22
 20
280.38
 30
0.0
 11
314.9313248654
 21
279.88
 31
0.0
  0
LINE
  5
8B
330
1F
100
AcDbEntity
  8
0
  6
HIDDEN
 62
     7
370
    18
100
AcDbLine
 10
322.02
 20
286.88
 30
0.0
 11
315.22
 21
286.88
 31
0.0
  0
LINE
  5
8C
330
1F
100
AcDbEntity
  8
0
  6
HIDDEN
 62
     7
370
    18
100
AcDbLine
 10
318.62
 20
288.8429909152
 30
0.0
 11
322.02
 21
286.88
 31
0.0
  0
LINE
  5
8D
330
1F
100
AcDbEntity
  8
0
  6
HIDDEN
 62
     7
370
    18
100
AcDbLine
 10
318.62
 20
288.8429909152
 30
0.0
 11
315.22
 21
286.88
 31
0.0
  0
LINE
  5
8E
330
1F
100
AcDbEntity
  8
0
  6
HIDDEN
 62
     7
370
    18
100
AcDbLine
 10
322.02
 20
286.88
 30
0.0
 11
322.02
 21
280.38
 31
0.0
  0
LINE
  5
8F
330
1F
100
AcDbEntity
  8
0
  6
HIDDEN
 62
     7
370
    18
100
AcDbLine
 10
315.22
 20
286.88
 30
0.0
 11
315.22
 21
280.38
 31
0.0
  0
LINE
  5
90
330
1F
100
AcDbEntity
  8
0
  6
HIDDEN
 62
     7
370
    18
100
AcDbLine
 10
316.7759600438
 20
419.3933629292
 30
0.0
 11
316.495
 21
419.88
 31
0.0
  0
LINE
  5
91
330
1F
100
AcDbEntity
  8
0
  6
HIDDEN
 62
     7
370
    18
100
AcDbLine
 10
320.4640399562
 20
419.3933629292
 30
0.0
 11
320.745
 21
419.88
 31
0.0
  0
ARC
  5
92
330
1F
100
AcDbEntity
  8
0
  6
HIDDEN
 62
     7
370
    18
100
AcDbCircle
 10
325.92
 20
416.2433629292
 30
0.0
 40
6.300000000000011
100
AcDbArc
 50
150.0
 51
180.0
  0
ARC
  5
93
330
1F
100
AcDbEntity
  8
0
  6
HIDDEN
 62
     7
370
    18
100
AcDbCircle
 10
311.32
 20
416.2433629292
 30
0.0
 40
6.299999999999994
100
AcDbArc
 50
0.0
 51
30.0
  0
LINE
  5
94
330
1F
100
AcDbEntity
  8
0
  6
HIDDEN
 62
     7
370
    18
100
AcDbLine
 10
319.62
 20
415.64
 30
0.0
 11
317.62
 21
415.64
 31
0.0
  0
LINE
  5
95
330
1F
100
AcDbEntity
  8
0
  6
HIDDEN
 62
     7
370
    18
100
AcDbLine
 10
319.62
 20
416.2433629292
 30
0.0
 11
319.62
 21
415.64
 31
0.0
  0
LINE
  5
96
330
1F
100
AcDbEntity
  8
0
  6
HIDDEN
 62
     7
370
    18
100
AcDbLine
 10
317.62
 20
416.2433629292
 30
0.0
 11
317.62
 21
415.64
 31
0.0
  0
LINE
  5
97
330
1F
100
AcDbEntity
  8
0
  6
HIDDEN
 62
     7
370
    18
100
AcDbLine
 10
318.62
 20
415.0626497308
 30
0.0
 11
317.62
 21
415.64
 31
0.0
  0
LINE
  5
98
330
1F
100
AcDbEntity
  8
0
  6
HIDDEN
 62
     7
370
    18
100
AcDbLine
 10
318.62
 20
415.0626497308
 30
0.0
 11
319.62
 21
415.64
 31
0.0
  0
LINE
  5
99
330
1F
100
AcDbEntity
  8
0
  6
Continuous
 62
     7
370
    25
100
AcDbLine
 10
543.38
 20
215.62
 30
0.0
 11
542.88
 21
216.12
 31
0.0
  0
LINE
  5
9A
330
1F
100
AcDbEntity
  8
0
  6
Continuous
 62
     7
370
    25
100
AcDbLine
 10
542.88
 20
216.12
 30
0.0
 11
491.38
 21
216.12
 31
0.0
  0
LINE
  5
9B
330
1F
100
AcDbEntity
  8
0
  6
Continuous
 62
     7
370
    25
100
AcDbLine
 10
491.38
 20
174.12
 30
0.0
 11
542.88
 21
174.12
 31
0.0
  0
LINE
  5
9C
330
1F
100
AcDbEntity
  8
0
  6
Continuous
 62
     7
370
    25
100
AcDbLine
 10
542.88
 20
174.12
 30
0.0
 11
543.38
 21
174.62
 31
0.0
  0
LINE
  5
9D
330
1F
100
AcDbEntity
  8
0
  6
Continuous
 62
     7
370
    25
100
AcDbLine
 10
491.38
 20
213.12
 30
0.0
 11
456.7830398304
 21
213.12
 31
0.0
  0
LINE
  5
9E
330
1F
100
AcDbEntity
  8
0
  6
Continuous
 62
     7
370
    25
100
AcDbLine
 10
456.7830398304
 20
177.12
 30
0.0
 11
491.38
 21
177.12
 31
0.0
  0
LINE
  5
9F
330
1F
100
AcDbEntity
  8
0
  6
Continuous
 62
     7
370
    25
100
AcDbLine
 10
438.38
 20
187.745
 30
0.0
 11
456.7830398304
 21
177.12
 31
0.0
  0
LINE
  5
A0
330
1F
100
AcDbEntity
  8
0
  6
Continuous
 62
     7
370
    25
100
AcDbLine
 10
456.7830398304
 20
213.12
 30
0.0
 11
438.38
 21
202.495
 31
0.0
  0
LINE
  5
A1
330
1F
100
AcDbEntity
  8
0
  6
Continuous
 62
     7
370
    25
100
AcDbLine
 10
403.68
 20
187.745
 30
0.0
 11
438.38
 21
187.745
 31
0.0
  0
LINE
  5
A2
330
1F
100
AcDbEntity
  8
0
  6
Continuous
 62
     7
370
    25
100
AcDbLine
 10
438.38
 20
202.495
 30
0.0
 11
403.68
 21
202.495
 31
0.0
  0
LINE
  5
A3
330
1F
100
AcDbEntity
  8
0
  6
Continuous
 62
     7
370
    25
100
AcDbLine
 10
403.68
 20
202.495
 30
0.0
 11
403.38
 21
202.195
 31
0.0
  0
LINE
  5
A4
330
1F
100
AcDbEntity
  8
0
  6
Continuous
 62
     7
370
    25
100
AcDbLine
 10
403.38
 20
188.045
 30
0.0
 11
403.68
 21
187.745
 31
0.0
  0
LINE
  5
A5
330
1F
100
AcDbEntity
  8
0
  6
Continuous
 62
     7
370
    25
100
AcDbLine
 10
542.88
 20
195.12
 30
0.0
 11
542.88
 21
216.12
 31
0.0
  0
LINE
  5
A6
330
1F
100
AcDbEntity
  8
0
  6
Continuous
 62
     7
370
    25
100
AcDbLine
 10
543.38
 20
215.62
 30
0.0
 11
543.38
 21
195.12
 31
0.0
  0
LINE
  5
A7
330
1F
100
AcDbEntity
  8
0
  6
Continuous
 62
     7
370
    25
100
AcDbLine
 10
491.38
 20
195.12
 30
0.0
 11
491.38
 21
216.12
 31
0.0
  0
LINE
  5
A8
330
1F
100
AcDbEntity
  8
0
  6
Continuous
 62
     7
370
    25
100
AcDbLine
 10
491.38
 20
174.12
 30
0.0
 11
491.38
 21
195.12
 31
0.0
  0
LINE
  5
A9
330
1F
100
AcDbEntity
  8
0
  6
Continuous
 62
     7
370
    25
100
AcDbLine
 10
542.88
 20
174.12
 30
0.0
 11
542.88
 21
195.12
 31
0.0
  0
LINE
  5
AA
330
1F
100
AcDbEntity
  8
0
  6
Continuous
 62
     7
370
    25
100
AcDbLine
 10
543.38
 20
195.12
 30
0.0
 11
543.38
 21
174.62
 31
0.0
  0
LINE
  5
AB
330
1F
100
AcDbEntity
  8
0
  6
Continuous
 62
     7
370
    25
100
AcDbLine
 10
456.7830398304
 20
195.12
 30
0.0
 11
456.7830398304
 21
213.12
 31
0.0
  0
LINE
  5
AC
330
1F
100
AcDbEntity
  8
0
  6
Continuous
 62
     7
370
    25
100
AcDbLine
 10
456.7830398304
 20
177.12
 30
0.0
 11
456.7830398304
 21
195.12
 31
0.0
  0
LINE
  5
AD
330
1F
100
AcDbEntity
  8
0
  6
Continuous
 62
     7
370
    25
100
AcDbLine
 10
438.38
 20
187.745
 30
0.0
 11
438.38
 21
195.12
 31
0.0
  0
LINE
  5
AE
330
1F
100
AcDbEntity
  8
0
  6
Continuous
 62
     7
370
    25
100
AcDbLine
 10
438.38
 20
195.12
 30
0.0
 11
438.38
 21
202.495
 31
0.0
  0
LINE
  5
AF
330
1F
100
AcDbEntity
  8
0
  6
Continuous
 62
     7
370
    25
100
AcDbLine
 10
403.68
 20
195.12
 30
0.0
 11
403.68
 21
187.745
 31
0.0
  0
LINE
  5
B0
330
1F
100
AcDbEntity
  8
0
  6
Continuous
 62
     7
370
    25
100
AcDbLine
 10
403.68
 20
202.495
 30
0.0
 11
403.68
 21
195.12
 31
0.0
  0
LINE
  5
B1
330
1F
100
AcDbEntity
  8
0
  6
Continuous
 62
     7
370
    25
100
AcDbLine
 10
403.38
 20
195.12
 30
0.0
 11
403.38
 21
202.195
 31
0.0
  0
LINE
  5
B2
330
1F
100
AcDbEntity
  8
0
  6
Continuous
 62
     7
370
    25
100
AcDbLine
 10
403.38
 20
188.045
 30
0.0
 11
403.38
 21
195.12
 31
0.0
  0
LINE
  5
B3
330
1F
100
AcDbEntity
  8
0
  6
HIDDEN
 62
     7
370
    18
100
AcDbLine
 10
403.88
 20
191.72
 30
0.0
 11
403.88
 21
195.12
 31
0.0
  0
LINE
  5
B4
330
1F
100
AcDbEntity
  8
0
  6
HIDDEN
 62
     7
370
    18
100
AcDbLine
 10
403.88
 20
195.12
 30
0.0
 11
403.88
 21
198.52
 31
0.0
  0
LINE
  5
B5
330
1F
100
AcDbEntity
  8
0
  6
HIDDEN
 62
     7
370
    18
100
AcDbLine
 10
410.38
 20
195.12
 30
0.0
 11
410.38
 21
198.52
 31
0.0
  0
LINE
  5
B6
330
1F
100
AcDbEntity
  8
0
  6
HIDDEN
 62
     7
370
    18
100
AcDbLine
 10
410.38
 20
191.72
 30
0.0
 11
410.38
 21
195.12
 31
0.0
  0
LINE
  5
B7
330
1F
100
AcDbEntity
  8
0
  6
HIDDEN
 62
     7
370
    18
100
AcDbLine
 10
539.14
 20
194.12
 30
0.0
 11
539.14
 21
195.12
 31
0.0
  0
LINE
  5
B8
330
1F
100
AcDbEntity
  8
0
  6
HIDDEN
 62
     7
370
    18
100
AcDbLine
 10
539.14
 20
195.12
 30
0.0
 11
539.14
 21
196.12
 31
0.0
  0
LINE
  5
B9
330
1F
100
AcDbEntity
  8
0
  6
HIDDEN
 62
     7
370
    18
100
AcDbLine
 10
403.38
 20
191.4313248654
 30
0.0
 11
403.88
 21
191.72
 31
0.0
  0
LINE
  5
BA
330
1F
100
AcDbEntity
  8
0
  6
HIDDEN
 62
     7
370
    18
100
AcDbLine
 10
403.88
 20
198.52
 30
0.0
 11
403.38
 21
198.8086751346
 31
0.0
  0
LINE
  5
BB
330
1F
100
AcDbEntity
  8
0
  6
HIDDEN
 62
     7
370
    18
100
AcDbLine
 10
412.3429909152
 20
195.12
 30
0.0
 11
410.38
 21
198.52
 31
0.0
  0
LINE
  5
BC
330
1F
100
AcDbEntity
  8
0
  6
HIDDEN
 62
     7
370
    18
100
AcDbLine
 10
410.38
 20
191.72
 30
0.0
 11
412.3429909152
 21
195.12
 31
0.0
  0
LINE
  5
BD
330
1F
100
AcDbEntity
  8
0
  6
HIDDEN
 62
     7
370
    18
100
AcDbLine
 10
410.38
 20
198.52
 30
0.0
 11
403.88
 21
198.52
 31
0.0
  0
LINE
  5
BE
330
1F
100
AcDbEntity
  8
0
  6
HIDDEN
 62
     7
370
    18
100
AcDbLine
 10
403.88
 20
191.72
 30
0.0
 11
410.38
 21
191.72
 31
0.0
  0
LINE
  5
BF
330
1F
100
AcDbEntity
  8
0
  6
HIDDEN
 62
     7
370
    18
100
AcDbLine
 10
543.38
 20
197.245
 30
0.0
 11
542.8933629292
 21
196.9640399562
 31
0.0
  0
LINE
  5
C0
330
1F
100
AcDbEntity
  8
0
  6
HIDDEN
 62
     7
370
    18
100
AcDbLine
 10
542.8933629292
 20
193.2759600438
 30
0.0
 11
543.38
 21
192.995
 31
0.0
  0
ARC
  5
C1
330
1F
100
AcDbEntity
  8
0
  6
HIDDEN
 62
     7
370
    18
100
AcDbCircle
 10
539.7433629292
 20
187.82
 30
0.0
 40
6.299999999999994
100
AcDbArc
 50
60.0
 51
90.0
  0
ARC
  5
C2
330
1F
100
AcDbEntity
  8
0
  6
HIDDEN
 62
     7
370
    18
100
AcDbCircle
 10
539.7433629292
 20
202.42
 30
0.0
 40
6.300000000000011
100
AcDbArc
 50
270.0
 51
300.0
  0
LINE
  5
C3
330
1F
100
AcDbEntity
  8
0
  6
HIDDEN
 62
     7
370
    18
100
AcDbLine
 10
539.14
 20
194.12
 30
0.0
 11
539.7433629292
 21
194.12
 31
0.0
  0
LINE
  5
C4
330
1F
100
AcDbEntity
  8
0
  6
HIDDEN
 62
     7
370
    18
100
AcDbLine
 10
539.7433629292
 20
196.12
 30
0.0
 11
539.14
 21
196.12
 31
0.0
  0
LINE
  5
C5
330
1F
100
AcDbEntity
  8
0
  6
HIDDEN
 62
     7
370
    18
100
AcDbLine
 10
538.5626497308
 20
195.12
 30
0.0
 11
539.14
 21
194.12
 31
0.0
  0
LINE
  5
C6
330
1F
100
AcDbEntity
  8
0
  6
HIDDEN
 62
     7
370
    18
100
AcDbLine
 10
539.14
 20
196.12
 30
0.0
 11
538.5626497308
 21
195.12
 31
0.0
  0
LINE
  5
C7
330
1F
100
AcDbEntity
  8
0
  6
Continuous
 62
     7
370
    25
100
AcDbLine
 10
444.9440623319
 20
341.9799684032
 30
0.0
 11
420.4074570247
 21
327.815287663
 31
0.0
  0
LINE
  5
C8
330
1F
100
AcDbEntity
  8
0
  6
Continuous
 62
     7
370
    25
100
AcDbLine
 10
423.8817122244
 20
315.5291593067
 30
0.0
 11
424.0938097814
 21
315.4066781866
 31
0.0
  0
LINE
  5
C9
330
1F
100
AcDbEntity
  8
0
  6
Continuous
 62
     7
370
    25
100
AcDbLine
 10
427.7818576779
 20
315.0410669429
 30
0.0
 11
452.3184629851
 21
329.205747683
 31
0.0
  0
LINE
  5
CA
330
1F
100
AcDbEntity
  8
0
  6
Continuous
 62
     7
370
    25
100
AcDbLine
 10
449.754307974
 20
355.2140219571
 30
0.0
 11
444.1569355587
 21
341.5255697892
 31
0.0
  0
LINE
  5
CB
330
1F
100
AcDbEntity
  8
0
  6
Continuous
 62
     7
370
    25
100
AcDbLine
 10
451.5313362119
 20
328.7513490691
 30
0.0
 11
466.1843822987
 21
326.7532146669
 31
0.0
  0
LINE
  5
CC
330
1F
100
AcDbEntity
  8
0
  6
Continuous
 62
     7
370
    25
100
AcDbLine
 10
477.1086534676
 20
372.8165525293
 30
0.0
 11
452.6449083233
 21
358.6939330658
 31
0.0
  0
LINE
  5
CD
330
1F
100
AcDbEntity
  8
0
  6
Continuous
 62
     7
370
    25
100
AcDbLine
 10
470.6434455107
 20
327.5161740201
 30
0.0
 11
495.1071906551
 21
341.6387934836
 31
0.0
  0
LINE
  5
CE
330
1F
100
AcDbEntity
  8
0
  6
Continuous
 62
     7
370
    25
100
AcDbLine
 10
512.0247745998
 20
396.4372079958
 30
0.0
 11
475.6087753687
 21
375.4146991164
 31
0.0
  0
LINE
  5
CF
330
1F
100
AcDbEntity
  8
0
  6
Continuous
 62
     7
370
    25
100
AcDbLine
 10
496.607068754
 20
339.0406468964
 30
0.0
 11
533.0230679851
 21
360.0631557758
 31
0.0
  0
LINE
  5
D0
330
1F
100
AcDbEntity
  8
0
  6
Continuous
 62
     7
370
    25
100
AcDbLine
 10
522.8798306402
 20
395.1920102713
 30
0.0
 11
522.526334712
 21
395.3961454715
 31
0.0
  0
LINE
  5
D1
330
1F
100
AcDbEntity
  8
0
  6
Continuous
 62
     7
370
    25
100
AcDbLine
 10
418.87974484
 20
324.1937597818
 30
0.0
 11
418.87974484
 21
324.4386822153
 31
0.0
  0
LWPOLYLINE
  5
D2
330
1F
100
AcDbEntity
  8
0
  6
Continuous
 62
     7
370
    25
100
AcDbPolyline
 90
       27
 70
   128
 43
0.0
 10
418.87974484
 20
324.4386822153
 10
418.9177674237
 20
325.1426027458
 10
419.0312807199
 20
325.7923585892
 10
419.2186294491
 20
326.3784748421
 10
419.477081645
 20
326.8924046099
 10
419.8028684925
 20
327.3266536391
 10
420.1912392859
 20
327.6748896011
 10
420.6365307043
 20
327.9320344315
 10
421.1322493964
 20
328.0943383795
 10
421.6711666671
 20
328.1594346881
 10
422.2454238893
 20
328.1263741066
 10
422.8466470995
 20
327.9956387326
 10
423.4660691094
 20
327.7691349824
 10
424.0946573513
 20
327.4501657906
 10
424.7232455932
 20
327.0433824464
 10
425.3426676031
 20
326.5547167668
 10
425.9438908133
 20
325.9912945978
 10
426.5181480355
 20
325.3613319035
 10
427.0570653062
 20
324.6740149584
 10
427.5527839983
 20
323.9393663912
 10
427.9980754167
 20
323.1680990325
 10
428.3864462101
 20
322.371459697
 10
428.7122330576
 20
321.5610651801
 10
428.9706852535
 20
320.7487328587
 10
429.1580339827
 20
319.9463083673
 10
429.2715472789
 20
319.1654928618
 10
429.3095698625
 20
318.4176723906
  0
LWPOLYLINE
  5
D3
330
1F
100
AcDbEntity
  8
0
  6
Continuous
 62
     7
370
    25
100
AcDbPolyline
 90
       26
 70
   128
 43
0.0
 10
428.8853057938
 20
318.4176723906
 10
428.8458573755
 20
319.1644988573
 10
428.7281342457
 20
319.9450935989
 10
428.5339929684
 20
320.7471461698
 10
428.2664952676
 20
321.558007722
 10
427.9298597419
 20
322.3648904844
 10
427.5293953345
 20
323.1550694338
 10
427.0714176084
 20
323.9160829761
 10
426.5631491459
 20
324.6359294733
 10
426.0126056442
 20
325.303256516
 10
425.4284695034
 20
325.907539958
 10
424.8199528993
 20
326.4392498886
 10
424.1966525022
 20
326.8900009246
 10
423.5683981317
 20
327.2526844527
 10
422.9450977346
 20
327.5215807372
 10
422.3365811305
 20
327.6924491229
 10
421.7524449896
 20
327.7625949134
 10
421.201901488
 20
327.7309118676
 10
420.6936330255
 20
327.5978996461
 10
420.2356552994
 20
327.3656559312
 10
419.835190892
 20
327.0378433448
 10
419.4985553662
 20
326.6196316874
 10
419.2310576655
 20
326.1176164065
 10
419.0369163882
 20
325.5397145831
 10
418.9191932584
 20
324.8950400742
 10
418.87974484
 20
324.1937597818
  0
LWPOLYLINE
  5
D4
330
1F
100
AcDbEntity
  8
0
  6
Continuous
 62
     7
370
    25
100
AcDbPolyline
 90
       21
 70
   128
 43
0.0
 10
453.8461751697
 20
332.5823531308
 10
453.808152586
 20
333.3301736019
 10
453.6946392899
 20
334.1109891074
 10
453.5072905607
 20
334.9134135988
 10
453.2488383648
 20
335.7257459202
 10
452.9230515173
 20
336.5361404371
 10
452.5346807239
 20
337.3327797726
 10
452.0893893054
 20
338.1040471314
 10
451.5936706134
 20
338.8386956985
 10
451.0547533426
 20
339.5260126436
 10
450.4804961205
 20
340.1559753379
 10
449.8792729103
 20
340.7193975069
 10
449.2598509004
 20
341.2080631865
 10
448.6312626585
 20
341.6148465308
 10
448.0026744165
 20
341.9338157225
 10
447.3832524066
 20
342.1603194728
 10
446.7820291965
 20
342.2910548467
 10
446.2077719743
 20
342.3241154282
 10
445.6688547035
 20
342.2590191196
 10
445.1731360115
 20
342.0967151716
 10
444.9440623319
 20
341.9799684032
  0
LWPOLYLINE
  5
D5
330
1F
100
AcDbEntity
  8
0
  6
Continuous
 62
     7
370
    25
100
AcDbPolyline
 90
       26
 70
   128
 43
0.0
 10
418.87974484
 20
324.1937597818
 10
418.9191932584
 20
323.4469333151
 10
419.0369163882
 20
322.6663385735
 10
419.2310576655
 20
321.8642860026
 10
419.4985553662
 20
321.0534244504
 10
419.835190892
 20
320.246541688
 10
420.2356552994
 20
319.4563627386
 10
420.6936330255
 20
318.6953491963
 10
421.201901488
 20
317.9755026991
 10
421.7524449896
 20
317.3081756565
 10
422.3365811305
 20
316.7038922144
 10
422.9450977346
 20
316.1721822838
 10
423.5683981317
 20
315.7214312478
 10
424.1966525022
 20
315.3587477197
 10
424.8199528993
 20
315.0898514353
 10
425.4284695034
 20
314.9189830495
 10
426.0126056442
 20
314.848837259
 10
426.5631491459
 20
314.8805203048
 10
427.0714176084
 20
315.0135325263
 10
427.5293953345
 20
315.2457762412
 10
427.9298597419
 20
315.5735888276
 10
428.2664952676
 20
315.991800485
 10
428.5339929684
 20
316.4938157659
 10
428.7281342457
 20
317.0717175893
 10
428.8458573755
 20
317.7163920982
 10
428.8853057938
 20
318.4176723906
  0
LWPOLYLINE
  5
D6
330
1F
100
AcDbEntity
  8
0
  6
Continuous
 62
     7
370
    25
100
AcDbPolyline
 90
       19
 70
   128
 43
0.0
 10
421.2742381157
 20
322.8114482371
 10
421.3138638591
 20
322.2655524956
 10
421.431537081
 20
321.6904926106
 10
421.6236823403
 20
321.1037414856
 10
421.8844614004
 20
320.5231272566
 10
422.2059506215
 20
319.9662915932
 10
422.5783817163
 20
319.4501536652
 10
422.9904385545
 20
318.9903960624
 10
423.4296009976
 20
318.600988287
 10
423.8825253169
 20
318.293762297
 10
424.3354496363
 20
318.0780529988
 10
424.7746120794
 20
317.9604146103
 10
425.1866689176
 20
317.9444215143
 10
425.5591000124
 20
318.030559653
 10
425.8805892335
 20
318.2162117626
 10
426.1413682936
 20
318.4957368977
 10
426.3335135529
 20
318.8606418285
 10
426.4511867748
 20
319.2998391033
 10
426.4908125182
 20
319.7999839353
  0
LWPOLYLINE
  5
D7
330
1F
100
AcDbEntity
  8
0
  6
Continuous
 62
     7
370
    25
100
AcDbPolyline
 90
       19
 70
   128
 43
0.0
 10
426.4908125182
 20
319.7999839353
 10
426.4511867748
 20
320.3458796768
 10
426.3335135529
 20
320.9209395618
 10
426.1413682936
 20
321.5076906868
 10
425.8805892335
 20
322.0883049158
 10
425.5591000124
 20
322.6451405792
 10
425.1866689176
 20
323.1612785072
 10
424.7746120794
 20
323.62103611
 10
424.3354496363
 20
324.0104438855
 10
423.8825253169
 20
324.3176698754
 10
423.4296009976
 20
324.5333791736
 10
422.9904385545
 20
324.6510175621
 10
422.5783817163
 20
324.6670106581
 10
422.2059506215
 20
324.5808725194
 10
421.8844614004
 20
324.3952204098
 10
421.6236823403
 20
324.1156952748
 10
421.431537081
 20
323.7507903439
 10
421.3138638591
 20
323.3115930691
 10
421.2742381157
 20
322.8114482371
  0
ARC
  5
D8
330
1F
100
AcDbEntity
  8
0
  6
Continuous
 62
     7
370
    25
100
AcDbCircle
 10
423.2928478501
 20
323.1378825592
 30
0.0
 40
1.480542073830509
100
AcDbArc
 50
94.6288237179
 51
189.3356635538
  0
LWPOLYLINE
  5
D9
330
1F
100
AcDbEntity
  8
0
  6
Continuous
 62
     7
370
    25
100
AcDbPolyline
 90
       15
 70
   128
 43
0.0
 10
429.3095698625
 20
318.4176723906
 10
429.2715472789
 20
317.7137518601
 10
429.1580339827
 20
317.0639960168
 10
428.9706852535
 20
316.4778797638
 10
428.7122330576
 20
315.9639499961
 10
428.3864462101
 20
315.5297009669
 10
427.9980754167
 20
315.1814650048
 10
427.5527839983
 20
314.9243201745
 10
427.0570653062
 20
314.7620162265
 10
426.5181480355
 20
314.6969199178
 10
425.9438908133
 20
314.7299804994
 10
425.3426676031
 20
314.8607158733
 10
424.7232455932
 20
315.0872196235
 10
424.0946573513
 20
315.4061888153
 10
424.0938097814
 20
315.4066781866
  0
ARC
  5
DA
330
1F
100
AcDbEntity
  8
0
  6
Continuous
 62
     7
370
    25
100
AcDbCircle
 10
450.0879886914
 20
332.2488059703
 30
0.0
 40
3.772958960072239
100
AcDbArc
 50
306.2403453107
 51
5.0718350827
  0
LWPOLYLINE
  5
DB
330
1F
100
AcDbEntity
  8
0
  6
Continuous
 62
     7
370
    25
100
AcDbPolyline
 90
       16
 70
   128
 43
0.0
 10
421.8319156515
 20
322.8977119043
 10
421.8728510962
 20
322.3639478415
 10
421.9942634228
 20
321.8010974152
 10
422.1920180802
 20
321.2283278218
 10
422.4593807707
 20
320.6651440426
 10
422.7872467785
 20
320.1307246258
 10
423.1644510199
 20
319.6432685838
 10
423.578148257
 20
319.2193756473
 10
424.0142505265
 20
318.873480982
 10
424.4579068886
 20
318.6173636157
 10
424.8940091581
 20
318.4597453183
 10
425.3077063952
 20
318.4059935918
 10
425.6849106366
 20
318.4579388868
 10
426.0127766444
 20
318.6138122685
 10
426.2801393349
 20
318.8683056559
 10
426.3924413824
 20
319.037392114
  0
LWPOLYLINE
  5
DC
330
1F
100
AcDbEntity
  8
0
  6
Continuous
 62
     7
370
    25
100
AcDbPolyline
 90
       38
 70
   128
 43
0.0
 10
474.3720989784
 20
335.7573805366
 10
474.3347527245
 20
336.9040406731
 10
474.2229331256
 20
338.0870908189
 10
474.0372963836
 20
339.2995883652
 10
473.7789318887
 20
340.5344178944
 10
473.4493558264
 20
341.7843329357
 10
473.0505022801
 20
343.0419984907
 10
472.5847118811
 20
344.3000340779
 10
472.0547180725
 20
345.5510570441
 10
471.463631069
 20
346.7877258891
 10
470.8149196039
 20
348.0027833485
 10
470.1123905741
 20
349.1890989818
 10
469.3601666994
 20
350.3397110174
 10
468.5626623285
 20
351.4478672061
 10
467.7245575342
 20
352.5070644469
 10
466.8507706487
 20
353.5110869491
 10
465.9464294008
 20
354.4540427095
 10
465.0168408247
 20
355.3303980888
 10
464.0674601156
 20
356.1350102851
 10
463.1038586172
 20
356.8631575141
 10
462.1316911262
 20
357.5105667183
 10
461.1566627079
 20
358.0734386432
 10
460.1844952168
 20
358.5484701323
 10
459.2208937184
 20
358.9328735121
 10
458.2715130093
 20
359.2243929506
 10
457.3419244332
 20
359.4213176959
 10
456.4375831853
 20
359.5224921153
 10
455.5637962998
 20
359.5273224771
 10
454.7256915055
 20
359.4357804347
 10
453.9281871346
 20
359.2484031933
 10
453.1759632599
 20
358.966290357
 10
452.4734342301
 20
358.5910974761
 10
451.8247227651
 20
358.1250263317
 10
451.2336357615
 20
357.5708120146
 10
450.703641953
 20
356.9317068746
 10
450.2378515539
 20
356.211461435
 10
449.8389980077
 20
355.4143023824
 10
449.754307974
 20
355.2140219571
  0
LWPOLYLINE
  5
DD
330
1F
100
AcDbEntity
  8
0
  6
Continuous
 62
     7
370
    25
100
AcDbPolyline
 90
       17
 70
   128
 43
0.0
 10
466.1843822987
 20
326.7532146669
 10
466.8507706487
 20
326.6876149706
 10
467.7245575342
 20
326.6827846089
 10
468.5626623285
 20
326.7743266513
 10
469.3601666994
 20
326.9617038927
 10
470.1123905741
 20
327.243816729
 10
470.8149196039
 20
327.6190096098
 10
471.463631069
 20
328.0850807542
 10
472.0547180725
 20
328.6392950714
 10
472.5847118811
 20
329.2784002113
 10
473.0505022801
 20
329.9986456509
 10
473.4493558264
 20
330.7958047036
 10
473.7789318887
 20
331.665199323
 10
474.0372963836
 20
332.6017275558
 10
474.2229331256
 20
333.599893482
 10
474.3347527245
 20
334.6538394669
 10
474.3720989784
 20
335.7573805366
  0
LWPOLYLINE
  5
DE
330
1F
100
AcDbEntity
  8
0
  6
Continuous
 62
     7
370
    25
100
AcDbPolyline
 90
       32
 70
   128
 43
0.0
 10
498.8358441227
 20
349.88
 10
498.7984978689
 20
351.0266601365
 10
498.68667827
 20
352.2097102823
 10
498.501041528
 20
353.4222078286
 10
498.242677033
 20
354.6570373578
 10
497.9131009707
 20
355.9069523991
 10
497.5142474244
 20
357.1646179542
 10
497.0484570254
 20
358.4226535413
 10
496.5184632169
 20
359.6736765075
 10
495.9273762133
 20
360.9103453525
 10
495.2786647482
 20
362.1254028119
 10
494.5761357185
 20
363.3117184453
 10
493.8239118438
 20
364.4623304808
 10
493.0264074729
 20
365.5704866695
 10
492.1883026785
 20
366.6296839103
 10
491.314515793
 20
367.6337064125
 10
490.4101745452
 20
368.576662173
 10
489.480585969
 20
369.4530175523
 10
488.53120526
 20
370.2576297485
 10
487.5676037616
 20
370.9857769775
 10
486.5954362705
 20
371.6331861818
 10
485.6204078522
 20
372.1960581066
 10
484.6482403612
 20
372.6710895957
 10
483.6846388627
 20
373.0554929755
 10
482.7352581537
 20
373.347012414
 10
481.8056695776
 20
373.5439371594
 10
480.9013283297
 20
373.6451115788
 10
480.0275414442
 20
373.6499419405
 10
479.1894366499
 20
373.5583998981
 10
478.391932279
 20
373.3710226567
 10
477.6397084042
 20
373.0889098204
 10
477.1086534676
 20
372.8165525293
  0
ARC
  5
DF
330
1F
100
AcDbEntity
  8
0
  6
Continuous
 62
     7
370
    25
100
AcDbCircle
 10
489.7619805815
 20
349.021281317
 30
0.0
 40
9.114406033402112
100
AcDbArc
 50
305.9060093586
 51
5.4061710348
  0
LWPOLYLINE
  5
E0
330
1F
100
AcDbEntity
  8
0
  6
Continuous
 62
     7
370
    25
100
AcDbPolyline
 90
       42
 70
   128
 43
0.0
 10
500.9571644663
 20
348.6553878323
 10
500.9193302985
 20
349.9005074784
 10
500.8060205894
 20
351.1829646805
 10
500.6178127394
 20
352.4962243306
 10
500.3556658124
 20
353.8335943587
 10
500.0209156491
 20
355.1882598335
 10
499.6152680596
 20
356.5533176904
 10
499.1407901311
 20
357.9218119074
 10
498.5998996944
 20
359.2867689517
 10
497.995353003
 20
360.6412333151
 10
497.3302306884
 20
361.9783029575
 10
496.6079220614
 20
363.2911644787
 10
495.8321078412
 20
364.5731278372
 10
495.0067413992
 20
365.8176604416
 10
494.1360286137
 20
367.0184204391
 10
493.2244064375
 20
368.1692890319
 10
492.2765202881
 20
369.2644016574
 10
491.2972003761
 20
370.2981778728
 10
490.2914370913
 20
371.2653497915
 10
489.2643555728
 20
372.1609889269
 10
488.2211895927
 20
372.9805313075
 10
487.1672548857
 20
373.719800733
 10
486.1079220614
 20
374.375030056
 10
485.0485892371
 20
374.942880378
 10
483.99465453
 20
375.4204580639
 10
482.9514885499
 20
375.8053294873
 10
481.9244070315
 20
376.0955334316
 10
480.9186437467
 20
376.2895910842
 10
479.9393238347
 20
376.3865135716
 10
478.9914376852
 20
376.385806999
 10
478.079815509
 20
376.2874749671
 10
477.2091027235
 20
376.0920185533
 10
476.3837362815
 20
375.8004337587
 10
475.6079220614
 20
375.4142064325
 10
474.8856134344
 20
374.9353047007
 10
474.2204911197
 20
374.3661689368
 10
473.6159444284
 20
373.7096993261
 10
473.0750539916
 20
372.9692410873
 10
472.6005760631
 20
372.1485674258
 10
472.1949284736
 20
371.2518603066
 10
471.8601783103
 20
370.2836891435
 10
471.6998870697
 20
369.6941381502
  0
LWPOLYLINE
  5
E1
330
1F
100
AcDbEntity
  8
0
  6
Continuous
 62
     7
370
    25
100
AcDbPolyline
 90
       34
 70
   128
 43
0.0
 10
537.3731636974
 20
369.6778967117
 10
537.3353295296
 20
370.9230163578
 10
537.2220198205
 20
372.2054735599
 10
537.0338119705
 20
373.51873321
 10
536.7716650435
 20
374.8561032381
 10
536.4369148802
 20
376.2107687129
 10
536.0312672908
 20
377.5758265698
 10
535.5567893623
 20
378.9443207869
 10
535.0158989255
 20
380.3092778312
 10
534.4113522341
 20
381.6637421945
 10
533.7462299195
 20
383.000811837
 10
533.0239212925
 20
384.3136733581
 10
532.2481070723
 20
385.5956367167
 10
531.4227406303
 20
386.8401693211
 10
530.5520278449
 20
388.0409293185
 10
529.6404056686
 20
389.1917979113
 10
528.6925195192
 20
390.2869105369
 10
527.7131996072
 20
391.3206867523
 10
526.7074363224
 20
392.2878586709
 10
525.6803548039
 20
393.1834978064
 10
524.6371888238
 20
394.0030401869
 10
523.5832541168
 20
394.7423096125
 10
522.5239212925
 20
395.3975389354
 10
521.4645884682
 20
395.9653892574
 10
520.4106537611
 20
396.4429669433
 10
519.367487781
 20
396.8278383667
 10
518.3404062626
 20
397.1180423111
 10
517.3346429778
 20
397.3120999636
 10
516.3553230658
 20
397.409022451
 10
515.4074369163
 20
397.4083158785
 10
514.4958147401
 20
397.3099838465
 10
513.6251019546
 20
397.1145274327
 10
512.7997355126
 20
396.8229426381
 10
512.0247745998
 20
396.4372079958
  0
LWPOLYLINE
  5
E2
330
1F
100
AcDbEntity
  8
0
  6
Continuous
 62
     7
370
    25
100
AcDbPolyline
 90
       20
 70
   128
 43
0.0
 10
489.6984242571
 20
338.5163791045
 10
490.2914370913
 20
338.3598125812
 10
491.2972003761
 20
338.1657549286
 10
492.2765202881
 20
338.0688324412
 10
493.2244064375
 20
338.0695390138
 10
494.1360286137
 20
338.1678710457
 10
495.0067413992
 20
338.3633274595
 10
495.8321078412
 20
338.6549122541
 10
496.6079220614
 20
339.0411395803
 10
497.3302306884
 20
339.5200413121
 10
497.995353003
 20
340.089177076
 10
498.5998996944
 20
340.7456466867
 10
499.1407901311
 20
341.4861049255
 10
499.6152680596
 20
342.306778587
 10
500.0209156491
 20
343.2034857062
 10
500.3556658124
 20
344.1716568693
 10
500.6178127394
 20
345.206358498
 10
500.8060205894
 20
346.3023179898
 10
500.9193302985
 20
347.4539505865
 10
500.9571644663
 20
348.6553878323
  0
LWPOLYLINE
  5
E3
330
1F
100
AcDbEntity
  8
0
  6
Continuous
 62
     7
370
    25
100
AcDbPolyline
 90
       13
 70
   128
 43
0.0
 10
533.0230679851
 20
360.0631557758
 10
533.0239212925
 20
360.0636484597
 10
533.7462299195
 20
360.5425501915
 10
534.4113522341
 20
361.1116859555
 10
535.0158989255
 20
361.7681555662
 10
535.5567893623
 20
362.508613805
 10
536.0312672908
 20
363.3292874664
 10
536.4369148802
 20
364.2259945857
 10
536.7716650435
 20
365.1941657488
 10
537.0338119705
 20
366.2288673774
 10
537.2220198205
 20
367.3248268692
 10
537.3353295296
 20
368.4764594659
 10
537.3731636974
 20
369.6778967117
  0
LINE
  5
E4
330
1F
100
AcDbEntity
  8
0
  6
Continuous
 62
     7
370
    25
100
AcDbLine
 10
537.3731636974
 20
370.0861007676
 30
0.0
 11
537.3731636974
 21
369.6778967117
 31
0.0
  0
ARC
  5
E5
330
1F
100
AcDbEntity
  8
0
  6
Continuous
 62
     7
370
    25
100
AcDbCircle
 10
505.9979275856
 20
368.7099287889
 30
0.0
 40
31.40540224843698
100
AcDbArc
 50
2.5114819789
 51
57.4831414884
  0
ARC
  5
E6
330
1F
100
AcDbEntity
  8
0
  6
HIDDEN
 62
     7
370
    18
100
AcDbCircle
 10
447.1745366256
 20
338.9369101159
 30
0.0
 40
3.772958960072541
100
AcDbArc
 50
126.2403453107
 51
185.0718350827
  0
ARC
  5
E7
330
1F
100
AcDbEntity
  8
0
  6
HIDDEN
 62
     7
370
    18
100
AcDbCircle
 10
422.1238222995
 20
320.219728931
 30
0.0
 40
4.517478335998659
100
AcDbArc
 50
358.7594342132
 51
76.565718672
  0
ARC
  5
E8
330
1F
100
AcDbEntity
  8
0
  6
HIDDEN
 62
     7
370
    18
100
AcDbCircle
 10
430.1705156883
 20
324.9356956613
 30
0.0
 40
11.30170468174834
100
AcDbArc
 50
182.5205011507
 51
237.4741223166
  0
LWPOLYLINE
  5
E9
330
1F
100
AcDbEntity
  8
0
  6
HIDDEN
 62
     7
370
    18
100
AcDbPolyline
 90
       21
 70
   128
 43
0.0
 10
443.4163501472
 20
338.6033629554
 10
443.4543727309
 20
337.8555424843
 10
443.5678860271
 20
337.0747269788
 10
443.7552347563
 20
336.2723024874
 10
444.0136869521
 20
335.459970166
 10
444.3394737997
 20
334.6495756491
 10
444.727844593
 20
333.8529363136
 10
445.1731360115
 20
333.0816689549
 10
445.6688547035
 20
332.3470203877
 10
446.2077719743
 20
331.6597034426
 10
446.7820291965
 20
331.0297407483
 10
447.3832524066
 20
330.4663185793
 10
448.0026744165
 20
329.9776528997
 10
448.6312626585
 20
329.5708695554
 10
449.2598509004
 20
329.2519003637
 10
449.8792729103
 20
329.0253966134
 10
450.4804961205
 20
328.8946612395
 10
451.0547533426
 20
328.861600658
 10
451.5936706134
 20
328.9266969666
 10
452.0893893054
 20
329.0890009146
 10
452.3184629851
 20
329.205747683
  0
LWPOLYLINE
  5
EA
330
1F
100
AcDbEntity
  8
0
  6
HIDDEN
 62
     7
370
    18
100
AcDbPolyline
 90
       18
 70
   128
 43
0.0
 10
431.2364358413
 20
322.7752506875
 10
431.1955003966
 20
323.3090147503
 10
431.07408807
 20
323.8718651765
 10
430.8763334126
 20
324.44463477
 10
430.6089707221
 20
325.0078185492
 10
430.2811047143
 20
325.5422379659
 10
429.9039004729
 20
326.029694008
 10
429.4902032358
 20
326.4535869444
 10
429.0541009663
 20
326.7994816098
 10
428.6104446042
 20
327.055598976
 10
428.1743423347
 20
327.2132172734
 10
427.7606450976
 20
327.2669689999
 10
427.3834408562
 20
327.215023705
 10
427.0555748484
 20
327.0591503232
 10
426.7882121579
 20
326.8046569358
 10
426.5904575005
 20
326.4602100098
 10
426.4690451739
 20
326.037539272
 10
426.4281097292
 20
325.5510382677
  0
ARC
  5
EB
330
1F
100
AcDbEntity
  8
0
  6
HIDDEN
 62
     7
370
    18
100
AcDbCircle
 10
424.4957774862
 20
320.0413287404
 30
0.0
 40
2.14597825823361
100
AcDbArc
 50
332.1069657903
 51
2.1523391597
  0
LWPOLYLINE
  5
EC
330
1F
100
AcDbEntity
  8
0
  6
HIDDEN
 62
     7
370
    18
100
AcDbPolyline
 90
       18
 70
   128
 43
0.0
 10
426.4281097292
 20
325.5510382677
 10
426.4690451739
 20
325.0172742049
 10
426.5904575005
 20
324.4544237787
 10
426.7882121579
 20
323.8816541852
 10
427.0555748484
 20
323.318470406
 10
427.3834408562
 20
322.7840509893
 10
427.7606450976
 20
322.2965949472
 10
428.1743423347
 20
321.8727020108
 10
428.6104446042
 20
321.5268073454
 10
429.0541009663
 20
321.2706899792
 10
429.4902032358
 20
321.1130716817
 10
429.9039004729
 20
321.0593199552
 10
430.2811047143
 20
321.1112652502
 10
430.6089707221
 20
321.2671386319
 10
430.8763334126
 20
321.5216320194
 10
431.07408807
 20
321.8660789454
 10
431.1955003966
 20
322.2887496831
 10
431.2364358413
 20
322.7752506875
  0
ARC
  5
ED
330
1F
100
AcDbEntity
  8
0
  6
HIDDEN
 62
     7
370
    18
100
AcDbCircle
 10
461.5704296427
 20
350.6798208086
 30
0.0
 40
12.65621236162975
100
AcDbArc
 50
159.0066903648
 51
181.0281307346
  0
LWPOLYLINE
  5
EE
330
1F
100
AcDbEntity
  8
0
  6
HIDDEN
 62
     7
370
    18
100
AcDbPolyline
 90
       27
 70
   128
 43
0.0
 10
448.9162548556
 20
350.4527265494
 10
448.9536011095
 20
349.3060664129
 10
449.0654207084
 20
348.1230162671
 10
449.2510574504
 20
346.9105187208
 10
449.5094219454
 20
345.6756891916
 10
449.8389980077
 20
344.4257741502
 10
450.2378515539
 20
343.1681085952
 10
450.703641953
 20
341.9100730081
 10
451.2336357615
 20
340.6590500419
 10
451.8247227651
 20
339.4223811968
 10
452.4734342301
 20
338.2073237375
 10
453.1759632599
 20
337.0210081041
 10
453.9281871346
 20
335.8703960686
 10
454.7256915055
 20
334.7622398799
 10
455.5637962998
 20
333.7030426391
 10
456.4375831853
 20
332.6990201369
 10
457.3419244332
 20
331.7560643764
 10
458.2715130093
 20
330.8797089971
 10
459.2208937184
 20
330.0750968008
 10
460.1844952168
 20
329.3469495718
 10
461.1566627079
 20
328.6995403676
 10
462.1316911262
 20
328.1366684428
 10
463.1038586172
 20
327.6616369537
 10
464.0674601156
 20
327.2772335739
 10
465.0168408247
 20
326.9857141354
 10
465.9464294008
 20
326.78878939
 10
466.1843822987
 20
326.7532146669
  0
ARC
  5
EF
330
1F
100
AcDbEntity
  8
0
  6
HIDDEN
 62
     7
370
    18
100
AcDbCircle
 10
482.4538635412
 20
365.4340646958
 30
0.0
 40
9.114406033402197
100
AcDbArc
 50
125.9060093586
 51
185.4061710348
  0
LWPOLYLINE
  5
F0
330
1F
100
AcDbEntity
  8
0
  6
HIDDEN
 62
     7
370
    18
100
AcDbPolyline
 90
       32
 70
   128
 43
0.0
 10
473.38
 20
364.5753460128
 10
473.4173462538
 20
363.4286858763
 10
473.5291658527
 20
362.2456357305
 10
473.7148025947
 20
361.0331381842
 10
473.9731670897
 20
359.798308655
 10
474.302743152
 20
358.5483936137
 10
474.7015966983
 20
357.2907280586
 10
475.1673870973
 20
356.0326924715
 10
475.6973809058
 20
354.7816695053
 10
476.2884679094
 20
353.5450006603
 10
476.9371793745
 20
352.3299432009
 10
477.6397084042
 20
351.1436275675
 10
478.391932279
 20
349.993015532
 10
479.1894366499
 20
348.8848593433
 10
480.0275414442
 20
347.8256621025
 10
480.9013283297
 20
346.8216396003
 10
481.8056695776
 20
345.8786838398
 10
482.7352581537
 20
345.0023284606
 10
483.6846388627
 20
344.1977162643
 10
484.6482403612
 20
343.4695690353
 10
485.6204078522
 20
342.822159831
 10
486.5954362705
 20
342.2592879062
 10
487.5676037616
 20
341.7842564171
 10
488.53120526
 20
341.3998530373
 10
489.480585969
 20
341.1083335988
 10
490.4101745452
 20
340.9114088535
 10
491.314515793
 20
340.8102344341
 10
492.1883026785
 20
340.8054040723
 10
493.0264074729
 20
340.8969461147
 10
493.8239118438
 20
341.0843233561
 10
494.5761357185
 20
341.3664361924
 10
495.1071906551
 20
341.6387934836
  0
ARC
  5
F1
330
1F
100
AcDbEntity
  8
0
  6
HIDDEN
 62
     7
370
    18
100
AcDbCircle
 10
487.3775282675
 20
365.9457899893
 30
0.0
 40
16.11950828847938
100
AcDbArc
 50
166.5536423332
 51
180.5183570736
  0
LWPOLYLINE
  5
F2
330
1F
100
AcDbEntity
  8
0
  6
HIDDEN
 62
     7
370
    18
100
AcDbPolyline
 90
       13
 70
   128
 43
0.0
 10
512.0247745998
 20
396.4372079958
 10
512.0239212925
 20
396.4367153119
 10
511.3016126655
 20
395.9578135802
 10
510.6364903508
 20
395.3886778162
 10
510.0319436595
 20
394.7322082055
 10
509.4910532227
 20
393.9917499667
 10
509.0165752942
 20
393.1710763052
 10
508.6109277047
 20
392.274369186
 10
508.2761775414
 20
391.3061980229
 10
508.0140306145
 20
390.2714963943
 10
507.8258227644
 20
389.1755369024
 10
507.7125130553
 20
388.0239043058
 10
507.6746788875
 20
386.82246706
  0
LWPOLYLINE
  5
F3
330
1F
100
AcDbEntity
  8
0
  6
HIDDEN
 62
     7
370
    18
100
AcDbPolyline
 90
       27
 70
   128
 43
0.0
 10
471.2586796564
 20
365.7999581805
 10
471.2965138242
 20
364.5548385344
 10
471.4098235333
 20
363.2723813324
 10
471.5980313833
 20
361.9591216822
 10
471.8601783103
 20
360.6217516542
 10
472.1949284736
 20
359.2670861793
 10
472.6005760631
 20
357.9020283224
 10
473.0750539916
 20
356.5335341054
 10
473.6159444284
 20
355.1685770611
 10
474.2204911197
 20
353.8141126977
 10
474.8856134344
 20
352.4770430553
 10
475.6079220614
 20
351.1641815341
 10
476.3837362815
 20
349.8822181756
 10
477.2091027235
 20
348.6376855712
 10
478.079815509
 20
347.4369255737
 10
478.9914376852
 20
346.2860569809
 10
479.9393238347
 20
345.1909443554
 10
480.9186437467
 20
344.15716814
 10
481.9244070315
 20
343.1899962213
 10
482.9514885499
 20
342.2943570859
 10
483.99465453
 20
341.4748147053
 10
485.0485892371
 20
340.7355452798
 10
486.1079220614
 20
340.0803159568
 10
487.1672548857
 20
339.5124656348
 10
488.2211895927
 20
339.0348879489
 10
489.2643555728
 20
338.6500165255
 10
489.6984242571
 20
338.5163791045
  0
LWPOLYLINE
  5
F4
330
1F
100
AcDbEntity
  8
0
  6
HIDDEN
 62
     7
370
    18
100
AcDbPolyline
 90
       34
 70
   128
 43
0.0
 10
507.6746788875
 20
386.82246706
 10
507.7125130553
 20
385.5773474139
 10
507.8258227644
 20
384.2948902118
 10
508.0140306145
 20
382.9816305616
 10
508.2761775414
 20
381.6442605336
 10
508.6109277047
 20
380.2895950587
 10
509.0165752942
 20
378.9245372018
 10
509.4910532227
 20
377.5560429848
 10
510.0319436595
 20
376.1910859405
 10
510.6364903508
 20
374.8366215772
 10
511.3016126655
 20
373.4995519347
 10
512.0239212925
 20
372.1866904135
 10
512.7997355126
 20
370.904727055
 10
513.6251019546
 20
369.6601944506
 10
514.4958147401
 20
368.4594344532
 10
515.4074369163
 20
367.3085658604
 10
516.3553230658
 20
366.2134532348
 10
517.3346429778
 20
365.1796770194
 10
518.3404062626
 20
364.2125051008
 10
519.367487781
 20
363.3168659653
 10
520.4106537611
 20
362.4973235847
 10
521.4645884682
 20
361.7580541592
 10
522.5239212925
 20
361.1028248362
 10
523.5832541168
 20
360.5349745143
 10
524.6371888238
 20
360.0573968284
 10
525.6803548039
 20
359.672525405
 10
526.7074363224
 20
359.3823214606
 10
527.7131996072
 20
359.1882638081
 10
528.6925195192
 20
359.0913413207
 10
529.6404056686
 20
359.0920478932
 10
530.5520278449
 20
359.1903799251
 10
531.4227406303
 20
359.385836339
 10
532.2481070723
 20
359.6774211336
 10
533.0230679851
 20
360.0631557758
  0
LWPOLYLINE
  5
F5
330
1F
100
AcDbEntity
  8
0
  6
HIDDEN
 62
     7
370
    18
100
AcDbPolyline
 90
       24
 70
   128
 43
0.0
 10
508.3817856687
 20
386.82246706
 10
508.418719023
 20
387.9952986571
 10
508.5293308818
 20
389.11951143
 10
508.7130575926
 20
390.1893766482
 10
508.9689629261
 20
391.1994425238
 10
509.2957428474
 20
392.1445619925
 10
509.6917321609
 20
393.0199189423
 10
510.1549129959
 20
393.8210527546
 10
510.6829250889
 20
394.5438810354
 10
511.2730778115
 20
395.1847204173
 10
511.9223638805
 20
395.7403053297
 10
512.6274746831
 20
396.2078046393
 10
513.3848171361
 20
396.5848360767
 10
514.1905319961
 20
396.8694783762
 10
515.0405135248
 20
397.0602810659
 10
515.9304304111
 20
397.156271859
 10
516.8557478427
 20
397.1569616084
 10
517.8117506139
 20
397.0623467992
 10
518.7935671539
 20
396.872909567
 10
519.7961943505
 20
396.5896152404
 10
520.8145230453
 20
396.2139074223
 10
521.8433640689
 20
395.7477006337
 10
522.8774746831
 20
395.1933705575
 10
522.8798306402
 20
395.1920102713
  0
LWPOLYLINE
  5
F6
330
1F
100
AcDbEntity
  8
0
  6
HIDDEN
 62
     7
370
    18
100
AcDbPolyline
 90
       45
 70
   128
 43
0.0
 10
537.3731636974
 20
370.0861007676
 10
537.3362303431
 20
368.9132691705
 10
537.2256184843
 20
367.7890563976
 10
537.0418917735
 20
366.7191911794
 10
536.78598644
 20
365.7091253038
 10
536.4592065187
 20
364.7640058351
 10
536.0632172052
 20
363.8886488853
 10
535.6000363702
 20
363.0875150729
 10
535.0720242772
 20
362.3646867922
 10
534.4818715546
 20
361.7238474103
 10
533.8325854856
 20
361.1682624979
 10
533.1274746831
 20
360.7007631883
 10
532.37013223
 20
360.3237317509
 10
531.56441737
 20
360.0390894514
 10
530.7144358413
 20
359.8482867617
 10
529.824518955
 20
359.7522959686
 10
528.8992015234
 20
359.7516062192
 10
527.9431987522
 20
359.8462210284
 10
526.9613822122
 20
360.0356582606
 10
525.9587550157
 20
360.3189525872
 10
524.9404263208
 20
360.6946604053
 10
523.9115852973
 20
361.1608671939
 10
522.8774746831
 20
361.7151972701
 10
521.8433640689
 20
362.3548258949
 10
520.8145230453
 20
363.0764936675
 10
519.7961943505
 20
363.8765231342
 10
518.7935671539
 20
364.7508375284
 10
517.8117506139
 20
365.6949815442
 10
516.8557478427
 20
366.7041440402
 10
515.9304304111
 20
367.7731825556
 10
515.0405135248
 20
368.8966495152
 10
514.1905319961
 20
370.0688199889
 10
513.3848171361
 20
371.2837208647
 10
512.6274746831
 20
372.5351612861
 10
511.9223638805
 20
373.8167641996
 10
511.2730778115
 20
375.1219988506
 10
510.6829250889
 20
376.4442140624
 10
510.1549129959
 20
377.7766721295
 10
509.6917321609
 20
379.1125831508
 10
509.2957428474
 20
380.4451396302
 10
508.9689629261
 20
381.7675511652
 10
508.7130575926
 20
383.0730790497
 10
508.5293308818
 20
384.3550706129
 10
508.418719023
 20
385.6069931197
 10
508.3817856687
 20
386.82246706
  0
LWPOLYLINE
  5
F7
330
1F
100
AcDbEntity
  8
0
  6
HIDDEN
 62
     7
370
    18
100
AcDbPolyline
 90
       10
 70
   128
 43
0.0
 10
520.586448712
 20
376.3152946608
 10
520.5438049552
 20
376.6191857831
 10
520.4210171512
 20
376.9356585847
 10
520.2328953214
 20
377.2265417751
 10
520.0021297348
 20
377.4567505485
 10
519.7565541269
 20
377.5985183294
 10
519.5257885402
 20
377.634745831
 10
519.3376667104
 20
377.5610634821
 10
519.2148789064
 20
377.3863584614
 10
519.1722351496
 20
377.1317027726
  0
LWPOLYLINE
  5
F8
330
1F
100
AcDbEntity
  8
0
  6
HIDDEN
 62
     7
370
    18
100
AcDbPolyline
 90
       10
 70
   128
 43
0.0
 10
519.1722351496
 20
377.1317027726
 10
519.2148789064
 20
376.8278116503
 10
519.3376667104
 20
376.5113388487
 10
519.5257885402
 20
376.2204556584
 10
519.7565541269
 20
375.990246885
 10
520.0021297348
 20
375.8484791041
 10
520.2328953214
 20
375.8122516025
 10
520.4210171512
 20
375.8859339514
 10
520.5438049552
 20
376.0606389721
 10
520.586448712
 20
376.3152946608
  0
LWPOLYLINE
  5
F9
330
1F
100
AcDbEntity
  8
0
  6
HIDDEN
 62
     7
370
    18
100
AcDbPolyline
 90
       15
 70
   128
 43
0.0
 10
524.3800765931
 20
377.586850295
 10
524.342403226
 20
377.994705693
 10
524.2312722248
 20
378.4256062621
 10
524.0522561619
 20
378.8579448483
 10
523.8143316502
 20
379.2700421898
 10
523.5294292182
 20
379.641234005
 10
523.2118350634
 20
379.9529071863
 10
522.8774746831
 20
380.1894331391
 10
522.5431143027
 20
380.3389514643
 10
522.2255201479
 20
380.3939646889
 10
521.9406177159
 20
380.35171422
 10
521.7026932042
 20
380.2143186726
 10
521.5236771413
 20
379.9886676331
 10
521.4125461401
 20
379.6860761869
 10
521.374872773
 20
379.3217175326
  0
LWPOLYLINE
  5
FA
330
1F
100
AcDbEntity
  8
0
  6
HIDDEN
 62
     7
370
    18
100
AcDbPolyline
 90
       15
 70
   128
 43
0.0
 10
521.374872773
 20
379.3217175326
 10
521.4125461401
 20
378.9138621346
 10
521.5236771413
 20
378.4829615655
 10
521.7026932042
 20
378.0506229793
 10
521.9406177159
 20
377.6385256378
 10
522.2255201479
 20
377.2673338226
 10
522.5431143027
 20
376.9556606413
 10
522.8774746831
 20
376.7191346885
 10
523.2118350634
 20
376.5696163633
 10
523.5294292182
 20
376.5146031387
 10
523.8143316502
 20
376.5568536076
 10
524.0522561619
 20
376.694249155
 10
524.2312722248
 20
376.9199001945
 10
524.342403226
 20
377.2224916407
 10
524.3800765931
 20
377.586850295
  0
LINE
  5
FB
330
1F
100
AcDbEntity
  8
0
  6
HIDDEN
 62
     7
370
    18
100
AcDbLine
 10
423.3784843577
 20
324.5984987907
 30
0.0
 11
422.9521173893
 21
324.656639501
 31
0.0
  0
LINE
  5
FC
330
1F
100
AcDbEntity
  8
0
  6
HIDDEN
 62
     7
370
    18
100
AcDbLine
 10
427.1324109398
 20
327.1077106097
 30
0.0
 11
422.5362168621
 21
324.4543842463
 31
0.0
  0
LINE
  5
FD
330
1F
100
AcDbEntity
  8
0
  6
HIDDEN
 62
     7
370
    18
100
AcDbLine
 10
426.3190733127
 20
318.8242688254
 30
0.0
 11
426.4819428412
 21
319.2225685248
 31
0.0
  0
LINE
  5
FE
330
1F
100
AcDbEntity
  8
0
  6
HIDDEN
 62
     7
370
    18
100
AcDbLine
 10
425.935940553
 20
318.5652519821
 30
0.0
 11
430.5321346307
 21
321.2185783455
 31
0.0
  0
LINE
  5
FF
330
1F
100
AcDbEntity
  8
0
  6
HIDDEN
 62
     7
370
    18
100
AcDbLine
 10
444.1569355587
 20
341.5255697892
 30
0.0
 11
443.7597191332
 21
340.5541714906
 31
0.0
  0
LINE
  5
100
330
1F
100
AcDbEntity
  8
0
  6
HIDDEN
 62
     7
370
    18
100
AcDbLine
 10
450.4914856968
 20
328.8931462814
 30
0.0
 11
451.5313362119
 21
328.7513490691
 31
0.0
  0
SPLINE
  5
101
330
1F
100
AcDbEntity
  8
0
  6
HIDDEN
 62
     7
370
    18
100
AcDbSpline
210
0.0
220
0.0
230
1.0
 70
     8
 71
     3
 72
    12
 73
     8
 74
     0
 42
0.00000001
 43
0.00000001
 40
0.0
 40
0.0
 40
0.0
 40
0.0
 40
0.1768200598418607
 40
0.3915643908835577
 40
0.624411407154199
 40
0.8668768379463769
 40
1.0
 40
1.0
 40
1.0
 40
1.0
 10
521.3119704841939
 20
379.4929468108884
 30
0.0
 10
521.2682851922089
 20
379.3941306408716
 30
0.0
 10
521.1715450103428
 20
379.1753042619149
 30
0.0
 10
520.917028366087
 20
378.787186219071
 30
0.0
 10
520.5537621622329
 20
378.3820032307045
 30
0.0
 10
520.1707562186926
 20
378.0519985898698
 30
0.0
 10
519.8971865679678
 20
377.8999757294104
 30
0.0
 10
519.8002228751398
 20
377.8460929324504
 30
0.0
  0
LINE
  5
102
330
1F
100
AcDbEntity
  8
0
  6
HIDDEN
 62
     7
370
    18
100
AcDbLine
 10
519.8060245832
 20
377.835842774
 30
0.0
 11
519.3793825645
 21
377.5895475791
 31
0.0
  0
SPLINE
  5
103
330
1F
100
AcDbEntity
  8
0
  6
HIDDEN
 62
     7
370
    18
100
AcDbSpline
210
0.0
220
0.0
230
1.0
 70
     8
 71
     3
 72
    13
 73
     9
 74
     0
 42
0.00000001
 43
0.00000001
 40
0.0
 40
0.0
 40
0.0
 40
0.0
 40
0.1100030632384191
 40
0.3474768285311389
 40
0.5738347730359769
 40
0.7856893967764855
 40
0.9795726797915871
 40
1.0
 40
1.0
 40
1.0
 40
1.0
 10
520.8117450239793
 20
376.0934948907574
 30
0.0
 10
520.8895883537817
 20
376.1414828173443
 30
0.0
 10
521.1354792641417
 20
376.2930667100767
 30
0.0
 10
521.5829295693328
 20
376.4560256245502
 30
0.0
 10
522.1084520691066
 20
376.5795038566986
 30
0.0
 10
522.5698932717067
 20
376.6132895775066
 30
0.0
 10
522.8681409468027
 20
376.6023612705376
 30
0.0
 10
522.978644100384
 20
376.581986492301
 30
0.0
 10
522.9891768657644
 20
376.5800444413107
 30
0.0
  0
LINE
  5
104
330
1F
100
AcDbEntity
  8
0
  6
HIDDEN
 62
     7
370
    18
100
AcDbLine
 10
520.3793012971
 20
375.8574498543
 30
0.0
 11
520.8059433159
 21
376.1037450492
 31
0.0
  0
LINE
  5
105
330
1F
100
AcDbEntity
  8
0
  6
HIDDEN
 62
     7
370
    18
100
AcDbLine
 10
521.4738095995
 20
379.8838149071
 30
0.0
 11
521.3152928989
 21
379.496160109
 31
0.0
  0
LINE
  5
106
330
1F
100
AcDbEntity
  8
0
  6
HIDDEN
 62
     7
370
    18
100
AcDbLine
 10
522.9984992066
 20
376.5804453408
 30
0.0
 11
523.4134711517
 21
376.5238584909
 31
0.0
  0
ENDSEC
  0
SECTION
  2
OBJECTS
  0
DICTIONARY
  5
C
330
0
100
AcDbDictionary
281
     1
  3
ACAD_GROUP
350
D
  3
ACAD_LAYOUT
350
1A
  3
ACAD_MLINESTYLE
350
17
  3
ACAD_PLOTSETTINGS
350
19
  3
ACAD_PLOTSTYLENAME
350
E
  3
ACAD_SCALELIST
350
47
  3
DWGPROPS
350
107
  0
DICTIONARY
  5
D
102
{ACAD_REACTORS
330
C
102
}
330
C
100
AcDbDictionary
281
     1
  0
DICTIONARY
  5
1A
102
{ACAD_REACTORS
330
C
102
}
330
C
100
AcDbDictionary
281
     1
  3
Layout1
350
1E
  3
Layout2
350
26
  3
Model
350
22
  0
DICTIONARY
  5
17
102
{ACAD_REACTORS
330
C
102
}
330
C
100
AcDbDictionary
281
     1
  3
Standard
350
18
  0
DICTIONARY
  5
19
102
{ACAD_REACTORS
330
C
102
}
330
C
100
AcDbDictionary
281
     1
  0
ACDBDICTIONARYWDFLT
  5
E
102
{ACAD_REACTORS
330
C
102
}
330
C
100
AcDbDictionary
281
     1
  3
Normal
350
F
100
AcDbDictionaryWithDefault
340
F
  0
DICTIONARY
  5
47
102
{ACAD_REACTORS
330
C
102
}
330
C
100
AcDbDictionary
281
     1
  3
A0
350
48
  3
A1
350
49
  3
A2
350
4A
  3
A3
350
4B
  3
A4
350
4C
  3
A5
350
4D
  3
A6
350
4E
  3
A7
350
4F
  3
A8
350
50
  3
A9
350
51
  3
B0
350
52
  3
B1
350
53
  3
B2
350
54
  3
B3
350
55
  3
B4
350
56
  3
B5
350
57
  3
B6
350
58
  0
XRECORD
  5
107
102
{ACAD_REACTORS
330
C
102
}
330
C
100
AcDbXrecord
280
     1
  1
DWGPROPS COOKIE
  2

  3

  4

  6

  7

  8
imaizumi
  9

300
=
301
=
302
=
303
=
304
=
305
=
306
=
307
=
308
=
309
=
 40
0.0
 41
2461263.051761366
 42
2461263.051761806
  1

 90
        0
  0
LAYOUT
  5
1E
102
{ACAD_REACTORS
330
1A
102
}
330
1A
100
AcDbPlotSettings
  1

  2
none_device
  4

  6

 40
0.0
 41
0.0
 42
0.0
 43
0.0
 44
0.0
 45
0.0
 46
0.0
 47
0.0
 48
0.0
 49
0.0
140
0.0
141
0.0
142
1.0
143
1.0
 70
   688
 72
     1
 73
     0
 74
     5
  7

 75
    16
147
1.0
148
0.0
149
0.0
100
AcDbLayout
  1
Layout1
 70
     1
 71
     1
 10
0.0
 20
0.0
 11
420.0
 21
297.0
 12
0.0
 22
0.0
 32
0.0
 14
1.0000000000E+20
 24
1.0000000000E+20
 34
1.0000000000E+20
 15
-1.0000000000E+20
 25
-1.0000000000E+20
 35
-1.0000000000E+20
146
0.0
 13
0.0
 23
0.0
 33
0.0
 16
1.0
 26
0.0
 36
0.0
 17
0.0
 27
1.0
 37
0.0
 76
     0
330
1B
  0
LAYOUT
  5
26
102
{ACAD_REACTORS
330
1A
102
}
330
1A
100
AcDbPlotSettings
  1

  2
none_device
  4

  6

 40
0.0
 41
0.0
 42
0.0
 43
0.0
 44
0.0
 45
0.0
 46
0.0
 47
0.0
 48
0.0
 49
0.0
140
0.0
141
0.0
142
1.0
143
1.0
 70
   688
 72
     1
 73
     0
 74
     5
  7

 75
    16
147
1.0
148
0.0
149
0.0
100
AcDbLayout
  1
Layout2
 70
     1
 71
     2
 10
0.0
 20
0.0
 11
0.0
 21
0.0
 12
0.0
 22
0.0
 32
0.0
 14
0.0
 24
0.0
 34
0.0
 15
0.0
 25
0.0
 35
0.0
146
0.0
 13
0.0
 23
0.0
 33
0.0
 16
1.0
 26
0.0
 36
0.0
 17
0.0
 27
1.0
 37
0.0
 76
     0
330
23
  0
LAYOUT
  5
22
102
{ACAD_REACTORS
330
1A
102
}
330
1A
100
AcDbPlotSettings
  1

  2
none_device
  4
Letter_(8.50_x_11.00_Inches)
  6

 40
6.35
 41
6.35
 42
6.35000508
 43
6.35000508
 44
215.9
 45
279.4
 46
0.0
 47
0.0
 48
0.0
 49
0.0
140
0.0
141
0.0
142
1.0
143
1.0
 70
  1712
 72
     1
 73
     0
 74
     0
  7

 75
     0
147
1.0
148
0.0
149
0.0
100
AcDbLayout
  1
Model
 70
     1
 71
     0
 10
0.0
 20
0.0
 11
841.0
 21
594.0
 12
0.0
 22
0.0
 32
0.0
 14
0.0
 24
0.0
 34
0.0
 15
841.0
 25
594.0
 35
0.0
146
0.0
 13
0.0
 23
0.0
 33
0.0
 16
1.0
 26
0.0
 36
0.0
 17
0.0
 27
1.0
 37
0.0
 76
     0
330
1F
331
29
  0
MLINESTYLE
  5
18
102
{ACAD_REACTORS
330
17
102
}
330
17
100
AcDbMlineStyle
  2
Standard
 70
     0
  3

 62
   256
 51
90.0
 52
90.0
 71
     2
 49
0.5
 62
   256
  6
BYLAYER
 49
-0.5
 62
   256
  6
BYLAYER
  0
ACDBPLACEHOLDER
  5
F
102
{ACAD_REACTORS
330
E
102
}
330
E
  0
SCALE
  5
48
102
{ACAD_REACTORS
330
47
102
}
330
47
100
AcDbScale
 70
     0
300
1:1
140
1.0
141
1.0
290
     1
  0
SCALE
  5
49
102
{ACAD_REACTORS
330
47
102
}
330
47
100
AcDbScale
 70
     0
300
1:2
140
1.0
141
2.0
290
     0
  0
SCALE
  5
4A
102
{ACAD_REACTORS
330
47
102
}
330
47
100
AcDbScale
 70
     0
300
1:4
140
1.0
141
4.0
290
     0
  0
SCALE
  5
4B
102
{ACAD_REACTORS
330
47
102
}
330
47
100
AcDbScale
 70
     0
300
1:5
140
1.0
141
5.0
290
     0
  0
SCALE
  5
4C
102
{ACAD_REACTORS
330
47
102
}
330
47
100
AcDbScale
 70
     0
300
1:8
140
1.0
141
8.0
290
     0
  0
SCALE
  5
4D
102
{ACAD_REACTORS
330
47
102
}
330
47
100
AcDbScale
 70
     0
300
1:10
140
1.0
141
10.0
290
     0
  0
SCALE
  5
4E
102
{ACAD_REACTORS
330
47
102
}
330
47
100
AcDbScale
 70
     0
300
1:16
140
1.0
141
16.0
290
     0
  0
SCALE
  5
4F
102
{ACAD_REACTORS
330
47
102
}
330
47
100
AcDbScale
 70
     0
300
1:20
140
1.0
141
20.0
290
     0
  0
SCALE
  5
50
102
{ACAD_REACTORS
330
47
102
}
330
47
100
AcDbScale
 70
     0
300
1:30
140
1.0
141
30.0
290
     0
  0
SCALE
  5
51
102
{ACAD_REACTORS
330
47
102
}
330
47
100
AcDbScale
 70
     0
300
1:40
140
1.0
141
40.0
290
     0
  0
SCALE
  5
52
102
{ACAD_REACTORS
330
47
102
}
330
47
100
AcDbScale
 70
     0
300
1:50
140
1.0
141
50.0
290
     0
  0
SCALE
  5
53
102
{ACAD_REACTORS
330
47
102
}
330
47
100
AcDbScale
 70
     0
300
1:100
140
1.0
141
100.0
290
     0
  0
SCALE
  5
54
102
{ACAD_REACTORS
330
47
102
}
330
47
100
AcDbScale
 70
     0
300
2:1
140
2.0
141
1.0
290
     0
  0
SCALE
  5
55
102
{ACAD_REACTORS
330
47
102
}
330
47
100
AcDbScale
 70
     0
300
4:1
140
4.0
141
1.0
290
     0
  0
SCALE
  5
56
102
{ACAD_REACTORS
330
47
102
}
330
47
100
AcDbScale
 70
     0
300
8:1
140
8.0
141
1.0
290
     0
  0
SCALE
  5
57
102
{ACAD_REACTORS
330
47
102
}
330
47
100
AcDbScale
 70
     0
300
10:1
140
10.0
141
1.0
290
     0
  0
SCALE
  5
58
102
{ACAD_REACTORS
330
47
102
}
330
47
100
AcDbScale
 70
     0
300
100:1
140
100.0
141
1.0
290
     0
  0
ENDSEC
  0
EOF
