  0
SECTION
  2
HEADER
  9
$ACADVER
  1
AC1015
  9
$ACADMAINTVER
 70
     6
  9
$DWGCODEPAGE
  3
DOS932
  9
$INSBASE
 10
0.0
 20
0.0
 30
0.0
  9
$EXTMIN
 10
0.0
 20
0.0
 30
0.0
  9
$EXTMAX
 10
841.0
 20
594.0
 30
0.0
  9
$LIMMIN
 10
0.0
 20
0.0
  9
$LIMMAX
 10
841.0
 20
594.0
  9
$ORTHOMODE
 70
     0
  9
$REGENMODE
 70
     1
  9
$FILLMODE
 70
     1
  9
$QTEXTMODE
 70
     0
  9
$MIRRTEXT
 70
     1
  9
$LTSCALE
 40
1.0
  9
$ATTMODE
 70
     1
  9
$TEXTSIZE
 40
3.5
  9
$TRACEWID
 40
1.0
  9
$TEXTSTYLE
  7
Standard
  9
$CLAYER
  8
0
  9
$CELTYPE
  6
ByLayer
  9
$CECOLOR
 62
   256
  9
$CELTSCALE
 40
1.0
  9
$DISPSILH
 70
     0
  9
$DIMSCALE
 40
1.0
  9
$DIMASZ
 40
3.302
  9
$DIMEXO
 40
1.0
  9
$DIMDLI
 40
3.75
  9
$DIMRND
 40
0.0
  9
$DIMDLE
 40
0.0
  9
$DIMEXE
 40
1.0
  9
$DIMTP
 40
0.0
  9
$DIMTM
 40
0.0
  9
$DIMTXT
 40
3.5
  9
$DIMCEN
 40
2.5
  9
$DIMTSZ
 40
0.0
  9
$DIMTOL
 70
     0
  9
$DIMLIM
 70
     0
  9
$DIMTIH
 70
     1
  9
$DIMTOH
 70
     1
  9
$DIMSE1
 70
     0
  9
$DIMSE2
 70
     0
  9
$DIMTAD
 70
     1
  9
$DIMZIN
 70
     1
  9
$DIMBLK
  1

  9
$DIMASO
 70
     1
  9
$DIMSHO
 70
     1
  9
$DIMPOST
  1

  9
$DIMAPOST
  1

  9
$DIMALT
 70
     0
  9
$DIMALTD
 70
     3
  9
$DIMALTF
 40
0.0393700787
  9
$DIMLFAC
 40
1.0
  9
$DIMTOFL
 70
     1
  9
$DIMTVP
 40
0.0
  9
$DIMTIX
 70
     0
  9
$DIMSOXD
 70
     0
  9
$DIMSAH
 70
     0
  9
$DIMBLK1
  1

  9
$DIMBLK2
  1

  9
$DIMSTYLE
  2
ISO-25
  9
$DIMCLRD
 70
     0
  9
$DIMCLRE
 70
     0
  9
$DIMCLRT
 70
     0
  9
$DIMTFAC
 40
1.0
  9
$DIMGAP
 40
1.524
  9
$DIMJUST
 70
     0
  9
$DIMSD1
 70
     0
  9
$DIMSD2
 70
     0
  9
$DIMTOLJ
 70
     0
  9
$DIMTZIN
 70
     1
  9
$DIMALTZ
 70
     0
  9
$DIMALTTZ
 70
     0
  9
$DIMUPT
 70
     0
  9
$DIMDEC
 70
     2
  9
$DIMTDEC
 70
     2
  9
$DIMALTU
 70
     2
  9
$DIMALTTD
 70
     3
  9
$DIMTXSTY
  7
Standard
  9
$DIMAUNIT
 70
     0
  9
$DIMADEC
 70
     2
  9
$DIMALTRND
 40
0.0
  9
$DIMAZIN
 70
     0
  9
$DIMDSEP
 70
    44
  9
$DIMATFIT
 70
     3
  9
$DIMFRAC
 70
     0
  9
$DIMLDRBLK
  1

  9
$DIMLUNIT
 70
     2
  9
$DIMLWD
 70
    -2
  9
$DIMLWE
 70
    -2
  9
$DIMTMOVE
 70
     0
  9
$LUNITS
 70
     2
  9
$LUPREC
 70
     2
  9
$SKETCHINC
 40
1.0
  9
$FILLETRAD
 40
0.0
  9
$AUNITS
 70
     0
  9
$AUPREC
 70
     2
  9
$MENU
  1
.
  9
$ELEVATION
 40
0.0
  9
$PELEVATION
 40
0.0
  9
$THICKNESS
 40
0.0
  9
$LIMCHECK
 70
     0
  9
$CHAMFERA
 40
0.0
  9
$CHAMFERB
 40
0.0
  9
$CHAMFERC
 40
0.0
  9
$CHAMFERD
 40
0.0
  9
$SKPOLY
 70
     0
  9
$TDCREATE
 40
2461263.443315683
  9
$TDUCREATE
 40
2461263.068315683
  9
$TDUPDATE
 40
2461263.443315984
  9
$TDUUPDATE
 40
2461263.068315984
  9
$TDINDWG
 40
0.0000000116
  9
$TDUSRTIMER
 40
0.0000000116
  9
$USRTIMER
 70
     1
  9
$ANGBASE
 50
0.0
  9
$ANGDIR
 70
     0
  9
$PDMODE
 70
     0
  9
$PDSIZE
 40
-1.0
  9
$PLINEWID
 40
0.0
  9
$SPLFRAME
 70
     0
  9
$SPLINETYPE
 70
     6
  9
$SPLINESEGS
 70
     8
  9
$HANDSEED
  5
152
  9
$SURFTAB1
 70
     6
  9
$SURFTAB2
 70
     6
  9
$SURFTYPE
 70
     6
  9
$SURFU
 70
     6
  9
$SURFV
 70
     6
  9
$UCSBASE
  2

  9
$UCSNAME
  2

  9
$UCSORG
 10
0.0
 20
0.0
 30
0.0
  9
$UCSXDIR
 10
1.0
 20
0.0
 30
0.0
  9
$UCSYDIR
 10
0.0
 20
1.0
 30
0.0
  9
$UCSORTHOREF
  2

  9
$UCSORTHOVIEW
 70
     0
  9
$UCSORGTOP
 10
0.0
 20
0.0
 30
0.0
  9
$UCSORGBOTTOM
 10
0.0
 20
0.0
 30
0.0
  9
$UCSORGLEFT
 10
0.0
 20
0.0
 30
0.0
  9
$UCSORGRIGHT
 10
0.0
 20
0.0
 30
0.0
  9
$UCSORGFRONT
 10
0.0
 20
0.0
 30
0.0
  9
$UCSORGBACK
 10
0.0
 20
0.0
 30
0.0
  9
$PUCSBASE
  2

  9
$PUCSNAME
  2

  9
$PUCSORG
 10
0.0
 20
0.0
 30
0.0
  9
$PUCSXDIR
 10
1.0
 20
0.0
 30
0.0
  9
$PUCSYDIR
 10
0.0
 20
1.0
 30
0.0
  9
$PUCSORTHOREF
  2

  9
$PUCSORTHOVIEW
 70
     0
  9
$PUCSORGTOP
 10
0.0
 20
0.0
 30
0.0
  9
$PUCSORGBOTTOM
 10
0.0
 20
0.0
 30
0.0
  9
$PUCSORGLEFT
 10
0.0
 20
0.0
 30
0.0
  9
$PUCSORGRIGHT
 10
0.0
 20
0.0
 30
0.0
  9
$PUCSORGFRONT
 10
0.0
 20
0.0
 30
0.0
  9
$PUCSORGBACK
 10
0.0
 20
0.0
 30
0.0
  9
$USERI1
 70
     0
  9
$USERI2
 70
     0
  9
$USERI3
 70
     0
  9
$USERI4
 70
     0
  9
$USERI5
 70
     0
  9
$USERR1
 40
0.0
  9
$USERR2
 40
0.0
  9
$USERR3
 40
0.0
  9
$USERR4
 40
0.0
  9
$USERR5
 40
0.0
  9
$WORLDVIEW
 70
     1
  9
$SHADEDGE
 70
     3
  9
$SHADEDIF
 70
    70
  9
$TILEMODE
 70
     1
  9
$MAXACTVP
 70
    64
  9
$PINSBASE
 10
0.0
 20
0.0
 30
0.0
  9
$PLIMCHECK
 70
     0
  9
$PEXTMIN
 10
1.0000000000E+20
 20
1.0000000000E+20
 30
1.0000000000E+20
  9
$PEXTMAX
 10
-1.0000000000E+20
 20
-1.0000000000E+20
 30
-1.0000000000E+20
  9
$PLIMMIN
 10
0.0
 20
0.0
  9
$PLIMMAX
 10
420.0
 20
297.0
  9
$UNITMODE
 70
     0
  9
$VISRETAIN
 70
     1
  9
$PLINEGEN
 70
     0
  9
$PSLTSCALE
 70
     1
  9
$TREEDEPTH
 70
  3020
  9
$CMLSTYLE
  2
Standard
  9
$CMLJUST
 70
     0
  9
$CMLSCALE
 40
20.0
  9
$PROXYGRAPHICS
 70
     1
  9
$MEASUREMENT
 70
     1
  9
$CELWEIGHT
370
    -1
  9
$ENDCAPS
280
     0
  9
$JOINSTYLE
280
     0
  9
$LWDISPLAY
290
     1
  9
$INSUNITS
 70
     4
  9
$HYPERLINKBASE
  1

  9
$STYLESHEET
  1

  9
$XEDIT
290
     1
  9
$CEPSNTYPE
380
     0
  9
$PSTYLEMODE
290
     1
  9
$FINGERPRINTGUID
  2
{447763ea-4dc8-4c5d-8f61-3a08c7cc1439}
  9
$VERSIONGUID
  2
{FAEB1C32-E019-11D5-929B-00C0DF256EC4}
  9
$EXTNAMES
290
     1
  9
$PSVPSCALE
 40
0.0
  9
$OLESTARTUP
290
     0
  0
ENDSEC
  0
SECTION
  2
CLASSES
  0
CLASS
  1
ACDBDICTIONARYWDFLT
  2
AcDbDictionaryWithDefault
  3
ObjectDBX Classes
 90
        0
280
     0
281
     0
  0
CLASS
  1
VISUALSTYLE
  2
AcDbVisualStyle
  3
ObjectDBX Classes
 90
     4095
280
     0
281
     0
  0
CLASS
  1
MATERIAL
  2
AcDbMaterial
  3
ObjectDBX Classes
 90
     1153
280
     0
281
     0
  0
CLASS
  1
SCALE
  2
AcDbScale
  3
ObjectDBX Classes
 90
     1153
280
     0
281
     0
  0
CLASS
  1
TABLESTYLE
  2
AcDbTableStyle
  3
ObjectDBX Classes
 90
     4095
280
     0
281
     0
  0
CLASS
  1
MLEADERSTYLE
  2
AcDbMLeaderStyle
  3
ACDB_MLEADERSTYLE_CLASS
 90
     4095
280
     0
281
     0
  0
CLASS
  1
SUN
  2
AcDbSun
  3
SCENEOE
 90
     1153
280
     0
281
     0
  0
CLASS
  1
ACDBPLACEHOLDER
  2
AcDbPlaceHolder
  3
ObjectDBX Classes
 90
        0
280
     0
281
     0
  0
CLASS
  1
LAYOUT
  2
AcDbLayout
  3
ObjectDBX Classes
 90
        0
280
     0
281
     0
  0
ENDSEC
  0
SECTION
  2
TABLES
  0
TABLE
  2
VPORT
  5
8
330
0
100
AcDbSymbolTable
 70
     1
  0
VPORT
  5
29
330
8
100
AcDbSymbolTableRecord
100
AcDbViewportTableRecord
  2
*Active
 70
     0
 10
0.0
 20
0.0
 11
1.0
 21
1.0
 12
420.5
 22
297.0
 13
0.0
 23
0.0
 14
10.0
 24
10.0
 15
10.0
 25
10.0
 16
0.0
 26
0.0
 36
1.0
 17
0.0
 27
0.0
 37
0.0
 40
594.0
 41
1.4158249158
 42
50.0
 43
0.0
 44
0.0
 50
0.0
 51
0.0
 71
     0
 72
  2000
 73
     1
 74
     3
 75
     0
 76
     0
 77
     0
 78
     0
281
     0
 65
     1
110
0.0
120
0.0
130
0.0
111
1.0
121
0.0
131
0.0
112
0.0
122
1.0
132
0.0
 79
     0
146
0.0
  0
ENDTAB
  0
TABLE
  2
LTYPE
  5
5
330
0
100
AcDbSymbolTable
 70
     6
  0
LTYPE
  5
14
330
5
100
AcDbSymbolTableRecord
100
AcDbLinetypeTableRecord
  2
ByBlock
 70
     0
  3

 72
    65
 73
     0
 40
0.0
  0
LTYPE
  5
15
330
5
100
AcDbSymbolTableRecord
100
AcDbLinetypeTableRecord
  2
ByLayer
 70
     0
  3

 72
    65
 73
     0
 40
0.0
  0
LTYPE
  5
16
330
5
100
AcDbSymbolTableRecord
100
AcDbLinetypeTableRecord
  2
Continuous
 70
     0
  3
Solid line
 72
    65
 73
     0
 40
0.0
  0
LTYPE
  5
5E
330
5
100
AcDbSymbolTableRecord
100
AcDbLinetypeTableRecord
  2
HIDDEN
 70
     0
  3
Hidden __ __ __ __ __ __ __ __ __ __ __ __ __ __
 72
    65
 73
     2
 40
1.905
 49
1.27
 74
     0
 49
-0.635
 74
     0
  0
LTYPE
  5
5F
330
5
100
AcDbSymbolTableRecord
100
AcDbLinetypeTableRecord
  2
PHANTOM
 70
     0
  3
Phantom ______  __  __  ______  __  __  ______
 72
    65
 73
     6
 40
12.7
 49
6.35
 74
     0
 49
-1.27
 74
     0
 49
1.27
 74
     0
 49
-1.27
 74
     0
 49
1.27
 74
     0
 49
-1.27
 74
     0
  0
LTYPE
  5
60
330
5
100
AcDbSymbolTableRecord
100
AcDbLinetypeTableRecord
  2
CENTER
 70
     0
  3
Center ____ _ ____ _ ____ _ ____ _ ____ _ ____
 72
    65
 73
     4
 40
10.16
 49
6.35
 74
     0
 49
-1.27
 74
     0
 49
1.27
 74
     0
 49
-1.27
 74
     0
  0
LTYPE
  5
61
330
5
100
AcDbSymbolTableRecord
100
AcDbLinetypeTableRecord
  2
CENTERX2
 70
     0
  3
Center (2x) ________  __  ________  __  _____
 72
    65
 73
     4
 40
20.32
 49
12.7
 74
     0
 49
-2.54
 74
     0
 49
2.54
 74
     0
 49
-2.54
 74
     0
  0
LTYPE
  5
62
330
5
100
AcDbSymbolTableRecord
100
AcDbLinetypeTableRecord
  2
DOT2
 70
     0
  3
Dot (.5x) ........................................
 72
    65
 73
     2
 40
0.635
 49
0.0
 74
     0
 49
-0.635
 74
     0
  0
ENDTAB
  0
TABLE
  2
LAYER
  5
2
330
0
100
AcDbSymbolTable
 70
     1
  0
LAYER
  5
10
330
2
100
AcDbSymbolTableRecord
100
AcDbLayerTableRecord
  2
0
 70
     0
 62
     7
  6
Continuous
370
    -3
390
F
  0
ENDTAB
  0
TABLE
  2
STYLE
  5
3
330
0
100
AcDbSymbolTable
 70
     1
  0
STYLE
  5
11
330
3
100
AcDbSymbolTableRecord
100
AcDbTextStyleTableRecord
  2
Standard
 70
     0
 40
0.0
 41
1.0
 50
0.0
 71
     0
 42
3.5
  3
txt
  4
bigfont
  0
ENDTAB
  0
TABLE
  2
VIEW
  5
6
330
0
100
AcDbSymbolTable
 70
     0
  0
ENDTAB
  0
TABLE
  2
UCS
  5
7
330
0
100
AcDbSymbolTable
 70
     0
  0
ENDTAB
  0
TABLE
  2
APPID
  5
9
330
0
100
AcDbSymbolTable
 70
     1
  0
APPID
  5
12
330
9
100
AcDbSymbolTableRecord
100
AcDbRegAppTableRecord
  2
ACAD
 70
     0
  0
ENDTAB
  0
TABLE
  2
DIMSTYLE
  5
A
330
0
100
AcDbSymbolTable
 70
     1
100
AcDbDimStyleTable
  0
DIMSTYLE
105
27
330
A
100
AcDbSymbolTableRecord
100
AcDbDimStyleTableRecord
  2
ISO-25
 70
     0
 41
2.5
 42
0.625
 43
3.75
 44
1.25
 73
     0
 74
     0
 77
     1
 78
     8
140
2.5
141
2.5
143
0.0393700787
147
0.625
171
     3
172
     1
178
     0
271
     2
272
     2
274
     3
278
    44
283
     0
284
     8
340
11
  0
ENDTAB
  0
TABLE
  2
BLOCK_RECORD
  5
1
330
0
100
AcDbSymbolTable
 70
     1
  0
BLOCK_RECORD
  5
1F
330
1
100
AcDbSymbolTableRecord
100
AcDbBlockTableRecord
  2
*Model_Space
340
22
  0
BLOCK_RECORD
  5
1B
330
1
100
AcDbSymbolTableRecord
100
AcDbBlockTableRecord
  2
*Paper_Space
340
1E
  0
BLOCK_RECORD
  5
23
330
1
100
AcDbSymbolTableRecord
100
AcDbBlockTableRecord
  2
*Paper_Space0
340
26
  0
ENDTAB
  0
ENDSEC
  0
SECTION
  2
BLOCKS
  0
BLOCK
  5
20
330
1F
100
AcDbEntity
  8
0
100
AcDbBlockBegin
  2
*Model_Space
 70
     0
 10
0.0
 20
0.0
 30
0.0
  3
*Model_Space
  1

  0
ENDBLK
  5
21
330
1F
100
AcDbEntity
  8
0
100
AcDbBlockEnd
  0
BLOCK
  5
1C
330
1B
100
AcDbEntity
 67
     1
  8
0
100
AcDbBlockBegin
  2
*Paper_Space
 70
     0
 10
0.0
 20
0.0
 30
0.0
  3
*Paper_Space
  1

  0
ENDBLK
  5
1D
330
1B
100
AcDbEntity
 67
     1
  8
0
100
AcDbBlockEnd
  0
BLOCK
  5
24
330
23
100
AcDbEntity
  8
0
100
AcDbBlockBegin
  2
*Paper_Space0
 70
     0
 10
0.0
 20
0.0
 30
0.0
  3
*Paper_Space0
  1

  0
ENDBLK
  5
25
330
23
100
AcDbEntity
  8
0
100
AcDbBlockEnd
  0
ENDSEC
  0
SECTION
  2
ENTITIES
  0
ARC
  5
63
330
1F
100
AcDbEntity
  8
0
  6
Continuous
 62
     7
370
    25
100
AcDbCircle
 10
294.5747981022
 20
130.807860999
 30
0.0
 40
98.0
100
AcDbArc
 50
180.0
 51
0.0
  0
ARC
  5
64
330
1F
100
AcDbEntity
  8
0
  6
Continuous
 62
     7
370
    25
100
AcDbCircle
 10
294.5747981022
 20
130.807860999
 30
0.0
 40
98.0
100
AcDbArc
 50
0.0
 51
180.0
  0
ARC
  5
65
330
1F
100
AcDbEntity
  8
0
  6
Continuous
 62
     7
370
    25
100
AcDbCircle
 10
269.7783377111
 20
198.935576006
 30
0.0
 40
4.0
100
AcDbArc
 50
180.0
 51
0.0
  0
ARC
  5
66
330
1F
100
AcDbEntity
  8
0
  6
Continuous
 62
     7
370
    25
100
AcDbCircle
 10
269.7783377111
 20
198.935576006
 30
0.0
 40
4.0
100
AcDbArc
 50
0.0
 51
180.0
  0
ARC
  5
67
330
1F
100
AcDbEntity
  8
0
  6
Continuous
 62
     7
370
    25
100
AcDbCircle
 10
362.7025131092
 20
155.6043213901
 30
0.0
 40
4.0
100
AcDbArc
 50
180.0
 51
0.0
  0
ARC
  5
68
330
1F
100
AcDbEntity
  8
0
  6
Continuous
 62
     7
370
    25
100
AcDbCircle
 10
362.7025131092
 20
155.6043213901
 30
0.0
 40
4.0
100
AcDbArc
 50
0.0
 51
180.0
  0
ARC
  5
69
330
1F
100
AcDbEntity
  8
0
  6
Continuous
 62
     7
370
    25
100
AcDbCircle
 10
319.3712584933
 20
62.680145992
 30
0.0
 40
4.000000000000057
100
AcDbArc
 50
180.0
 51
0.0
  0
ARC
  5
6A
330
1F
100
AcDbEntity
  8
0
  6
Continuous
 62
     7
370
    25
100
AcDbCircle
 10
319.3712584933
 20
62.680145992
 30
0.0
 40
4.000000000000057
100
AcDbArc
 50
0.0
 51
180.0
  0
ARC
  5
6B
330
1F
100
AcDbEntity
  8
0
  6
Continuous
 62
     7
370
    25
100
AcDbCircle
 10
226.4470830952
 20
106.0114006079
 30
0.0
 40
4.0
100
AcDbArc
 50
180.0
 51
0.0
  0
ARC
  5
6C
330
1F
100
AcDbEntity
  8
0
  6
Continuous
 62
     7
370
    25
100
AcDbCircle
 10
226.4470830952
 20
106.0114006079
 30
0.0
 40
4.0
100
AcDbArc
 50
0.0
 51
180.0
  0
ARC
  5
6D
330
1F
100
AcDbEntity
  8
0
  6
Continuous
 62
     7
370
    25
100
AcDbCircle
 10
294.5747981022
 20
130.807860999
 30
0.0
 40
55.0
100
AcDbArc
 50
180.0
 51
0.0
  0
ARC
  5
6E
330
1F
100
AcDbEntity
  8
0
  6
Continuous
 62
     7
370
    25
100
AcDbCircle
 10
294.5747981022
 20
130.807860999
 30
0.0
 40
55.0
100
AcDbArc
 50
0.0
 51
180.0
  0
ARC
  5
6F
330
1F
100
AcDbEntity
  8
0
  6
Continuous
 62
     7
370
    25
100
AcDbCircle
 10
212.0747981022
 20
130.807860999
 30
0.0
 40
9.000000000000028
100
AcDbArc
 50
180.0
 51
0.0
  0
ARC
  5
70
330
1F
100
AcDbEntity
  8
0
  6
Continuous
 62
     7
370
    25
100
AcDbCircle
 10
212.0747981022
 20
130.807860999
 30
0.0
 40
9.000000000000028
100
AcDbArc
 50
0.0
 51
180.0
  0
ARC
  5
71
330
1F
100
AcDbEntity
  8
0
  6
Continuous
 62
     7
370
    25
100
AcDbCircle
 10
294.5747981022
 20
48.307860999
 30
0.0
 40
9.0
100
AcDbArc
 50
180.0
 51
0.0
  0
ARC
  5
72
330
1F
100
AcDbEntity
  8
0
  6
Continuous
 62
     7
370
    25
100
AcDbCircle
 10
294.5747981022
 20
48.307860999
 30
0.0
 40
9.0
100
AcDbArc
 50
0.0
 51
180.0
  0
ARC
  5
73
330
1F
100
AcDbEntity
  8
0
  6
Continuous
 62
     7
370
    25
100
AcDbCircle
 10
377.0747981022
 20
130.807860999
 30
0.0
 40
9.000000000000057
100
AcDbArc
 50
180.0
 51
0.0
  0
ARC
  5
74
330
1F
100
AcDbEntity
  8
0
  6
Continuous
 62
     7
370
    25
100
AcDbCircle
 10
377.0747981022
 20
130.807860999
 30
0.0
 40
9.000000000000057
100
AcDbArc
 50
0.0
 51
180.0
  0
ARC
  5
75
330
1F
100
AcDbEntity
  8
0
  6
Continuous
 62
     7
370
    25
100
AcDbCircle
 10
294.5747981022
 20
213.307860999
 30
0.0
 40
9.0
100
AcDbArc
 50
180.0
 51
0.0
  0
ARC
  5
76
330
1F
100
AcDbEntity
  8
0
  6
Continuous
 62
     7
370
    25
100
AcDbCircle
 10
294.5747981022
 20
213.307860999
 30
0.0
 40
9.0
100
AcDbArc
 50
0.0
 51
180.0
  0
ARC
  5
77
330
1F
100
AcDbEntity
  8
0
  6
Continuous
 62
     7
370
    25
100
AcDbCircle
 10
294.5747981022
 20
213.307860999
 30
0.0
 40
6.0
100
AcDbArc
 50
180.0
 51
0.0
  0
ARC
  5
78
330
1F
100
AcDbEntity
  8
0
  6
Continuous
 62
     7
370
    25
100
AcDbCircle
 10
294.5747981022
 20
213.307860999
 30
0.0
 40
6.0
100
AcDbArc
 50
0.0
 51
180.0
  0
ARC
  5
79
330
1F
100
AcDbEntity
  8
0
  6
Continuous
 62
     7
370
    25
100
AcDbCircle
 10
294.5747981022
 20
48.307860999
 30
0.0
 40
6.0
100
AcDbArc
 50
180.0
 51
0.0
  0
ARC
  5
7A
330
1F
100
AcDbEntity
  8
0
  6
Continuous
 62
     7
370
    25
100
AcDbCircle
 10
294.5747981022
 20
48.307860999
 30
0.0
 40
6.0
100
AcDbArc
 50
0.0
 51
180.0
  0
ARC
  5
7B
330
1F
100
AcDbEntity
  8
0
  6
Continuous
 62
     7
370
    25
100
AcDbCircle
 10
212.0747981022
 20
130.807860999
 30
0.0
 40
6.0
100
AcDbArc
 50
0.0
 51
180.0
  0
ARC
  5
7C
330
1F
100
AcDbEntity
  8
0
  6
Continuous
 62
     7
370
    25
100
AcDbCircle
 10
212.0747981022
 20
130.807860999
 30
0.0
 40
6.0
100
AcDbArc
 50
180.0
 51
0.0
  0
ARC
  5
7D
330
1F
100
AcDbEntity
  8
0
  6
Continuous
 62
     7
370
    25
100
AcDbCircle
 10
294.5747981022
 20
130.807860999
 30
0.0
 40
26.50000000000006
100
AcDbArc
 50
180.0
 51
0.0
  0
ARC
  5
7E
330
1F
100
AcDbEntity
  8
0
  6
Continuous
 62
     7
370
    25
100
AcDbCircle
 10
294.5747981022
 20
130.807860999
 30
0.0
 40
26.50000000000006
100
AcDbArc
 50
0.0
 51
180.0
  0
ARC
  5
7F
330
1F
100
AcDbEntity
  8
0
  6
Continuous
 62
     7
370
    25
100
AcDbCircle
 10
377.0747981022
 20
130.807860999
 30
0.0
 40
6.000000000000057
100
AcDbArc
 50
0.0
 51
180.0
  0
ARC
  5
80
330
1F
100
AcDbEntity
  8
0
  6
Continuous
 62
     7
370
    25
100
AcDbCircle
 10
377.0747981022
 20
130.807860999
 30
0.0
 40
6.000000000000057
100
AcDbArc
 50
180.0
 51
0.0
  0
ARC
  5
81
330
1F
100
AcDbEntity
  8
0
  6
HIDDEN
 62
     7
370
    18
100
AcDbCircle
 10
294.5747981022
 20
130.807860999
 30
0.0
 40
65.0
100
AcDbArc
 50
180.0
 51
0.0
  0
ARC
  5
82
330
1F
100
AcDbEntity
  8
0
  6
HIDDEN
 62
     7
370
    18
100
AcDbCircle
 10
294.5747981022
 20
130.807860999
 30
0.0
 40
65.0
100
AcDbArc
 50
0.0
 51
180.0
  0
LINE
  5
83
330
1F
100
AcDbEntity
  8
0
  6
Continuous
 62
     7
370
    25
100
AcDbLine
 10
392.5747981022
 20
458.88
 30
0.0
 11
392.5747981022
 21
391.88
 31
0.0
  0
LINE
  5
84
330
1F
100
AcDbEntity
  8
0
  6
Continuous
 62
     7
370
    25
100
AcDbLine
 10
392.5747981022
 20
391.88
 30
0.0
 11
196.5747981022
 21
391.88
 31
0.0
  0
LINE
  5
85
330
1F
100
AcDbEntity
  8
0
  6
Continuous
 62
     7
370
    25
100
AcDbLine
 10
196.5747981022
 20
458.88
 30
0.0
 11
196.5747981022
 21
391.88
 31
0.0
  0
LINE
  5
86
330
1F
100
AcDbEntity
  8
0
  6
Continuous
 62
     7
370
    25
100
AcDbLine
 10
392.5747981022
 20
458.88
 30
0.0
 11
196.5747981022
 21
458.88
 31
0.0
  0
LINE
  5
87
330
1F
100
AcDbEntity
  8
0
  6
Continuous
 62
     7
370
    25
100
AcDbLine
 10
359.5747981022
 20
461.88
 30
0.0
 11
359.5747981022
 21
458.88
 31
0.0
  0
LINE
  5
88
330
1F
100
AcDbEntity
  8
0
  6
Continuous
 62
     7
370
    25
100
AcDbLine
 10
229.5747981022
 20
461.88
 30
0.0
 11
229.5747981022
 21
458.88
 31
0.0
  0
LINE
  5
89
330
1F
100
AcDbEntity
  8
0
  6
Continuous
 62
     7
370
    25
100
AcDbLine
 10
359.5747981022
 20
461.88
 30
0.0
 11
229.5747981022
 21
461.88
 31
0.0
  0
LINE
  5
8A
330
1F
100
AcDbEntity
  8
0
  6
HIDDEN
 62
     7
370
    18
100
AcDbLine
 10
303.5747981022
 20
401.88
 30
0.0
 11
303.5747981022
 21
391.88
 31
0.0
  0
LINE
  5
8B
330
1F
100
AcDbEntity
  8
0
  6
HIDDEN
 62
     7
370
    18
100
AcDbLine
 10
285.5747981022
 20
401.88
 30
0.0
 11
285.5747981022
 21
391.88
 31
0.0
  0
LINE
  5
8C
330
1F
100
AcDbEntity
  8
0
  6
HIDDEN
 62
     7
370
    18
100
AcDbLine
 10
303.5747981022
 20
401.88
 30
0.0
 11
285.5747981022
 21
401.88
 31
0.0
  0
LINE
  5
8D
330
1F
100
AcDbEntity
  8
0
  6
HIDDEN
 62
     7
370
    18
100
AcDbLine
 10
300.5747981022
 20
458.88
 30
0.0
 11
300.5747981022
 21
401.88
 31
0.0
  0
LINE
  5
8E
330
1F
100
AcDbEntity
  8
0
  6
HIDDEN
 62
     7
370
    18
100
AcDbLine
 10
288.5747981022
 20
458.88
 30
0.0
 11
288.5747981022
 21
401.88
 31
0.0
  0
LINE
  5
8F
330
1F
100
AcDbEntity
  8
0
  6
HIDDEN
 62
     7
370
    18
100
AcDbLine
 10
273.7783377111
 20
406.88
 30
0.0
 11
273.7783377111
 21
391.88
 31
0.0
  0
LINE
  5
90
330
1F
100
AcDbEntity
  8
0
  6
HIDDEN
 62
     7
370
    18
100
AcDbLine
 10
265.7783377111
 20
406.88
 30
0.0
 11
265.7783377111
 21
391.88
 31
0.0
  0
LINE
  5
91
330
1F
100
AcDbEntity
  8
0
  6
HIDDEN
 62
     7
370
    18
100
AcDbLine
 10
273.7783377111
 20
406.88
 30
0.0
 11
265.7783377111
 21
406.88
 31
0.0
  0
LINE
  5
92
330
1F
100
AcDbEntity
  8
0
  6
HIDDEN
 62
     7
370
    18
100
AcDbLine
 10
349.5747981022
 20
401.88
 30
0.0
 11
349.5747981022
 21
391.88
 31
0.0
  0
LINE
  5
93
330
1F
100
AcDbEntity
  8
0
  6
HIDDEN
 62
     7
370
    18
100
AcDbLine
 10
239.5747981022
 20
401.88
 30
0.0
 11
239.5747981022
 21
391.88
 31
0.0
  0
LINE
  5
94
330
1F
100
AcDbEntity
  8
0
  6
HIDDEN
 62
     7
370
    18
100
AcDbLine
 10
349.5747981022
 20
401.88
 30
0.0
 11
303.5747981022
 21
401.88
 31
0.0
  0
LINE
  5
95
330
1F
100
AcDbEntity
  8
0
  6
HIDDEN
 62
     7
370
    18
100
AcDbLine
 10
285.5747981022
 20
401.88
 30
0.0
 11
239.5747981022
 21
401.88
 31
0.0
  0
LINE
  5
96
330
1F
100
AcDbEntity
  8
0
  6
HIDDEN
 62
     7
370
    18
100
AcDbLine
 10
366.7025131092
 20
406.88
 30
0.0
 11
366.7025131092
 21
391.88
 31
0.0
  0
LINE
  5
97
330
1F
100
AcDbEntity
  8
0
  6
HIDDEN
 62
     7
370
    18
100
AcDbLine
 10
366.7025131092
 20
406.88
 30
0.0
 11
358.7025131092
 21
406.88
 31
0.0
  0
LINE
  5
98
330
1F
100
AcDbEntity
  8
0
  6
HIDDEN
 62
     7
370
    18
100
AcDbLine
 10
358.7025131092
 20
406.88
 30
0.0
 11
358.7025131092
 21
391.88
 31
0.0
  0
LINE
  5
99
330
1F
100
AcDbEntity
  8
0
  6
HIDDEN
 62
     7
370
    18
100
AcDbLine
 10
321.0747981022
 20
461.88
 30
0.0
 11
321.0747981022
 21
401.88
 31
0.0
  0
LINE
  5
9A
330
1F
100
AcDbEntity
  8
0
  6
HIDDEN
 62
     7
370
    18
100
AcDbLine
 10
268.0747981022
 20
461.88
 30
0.0
 11
268.0747981022
 21
401.88
 31
0.0
  0
LINE
  5
9B
330
1F
100
AcDbEntity
  8
0
  6
HIDDEN
 62
     7
370
    18
100
AcDbLine
 10
386.0747981022
 20
401.88
 30
0.0
 11
386.0747981022
 21
391.88
 31
0.0
  0
LINE
  5
9C
330
1F
100
AcDbEntity
  8
0
  6
HIDDEN
 62
     7
370
    18
100
AcDbLine
 10
386.0747981022
 20
401.88
 30
0.0
 11
368.0747981022
 21
401.88
 31
0.0
  0
LINE
  5
9D
330
1F
100
AcDbEntity
  8
0
  6
HIDDEN
 62
     7
370
    18
100
AcDbLine
 10
368.0747981022
 20
401.88
 30
0.0
 11
368.0747981022
 21
391.88
 31
0.0
  0
LINE
  5
9E
330
1F
100
AcDbEntity
  8
0
  6
HIDDEN
 62
     7
370
    18
100
AcDbLine
 10
221.0747981022
 20
401.88
 30
0.0
 11
221.0747981022
 21
391.88
 31
0.0
  0
LINE
  5
9F
330
1F
100
AcDbEntity
  8
0
  6
HIDDEN
 62
     7
370
    18
100
AcDbLine
 10
203.0747981022
 20
401.88
 30
0.0
 11
203.0747981022
 21
391.88
 31
0.0
  0
LINE
  5
A0
330
1F
100
AcDbEntity
  8
0
  6
HIDDEN
 62
     7
370
    18
100
AcDbLine
 10
221.0747981022
 20
401.88
 30
0.0
 11
203.0747981022
 21
401.88
 31
0.0
  0
LINE
  5
A1
330
1F
100
AcDbEntity
  8
0
  6
HIDDEN
 62
     7
370
    18
100
AcDbLine
 10
383.0747981022
 20
458.88
 30
0.0
 11
383.0747981022
 21
401.88
 31
0.0
  0
LINE
  5
A2
330
1F
100
AcDbEntity
  8
0
  6
HIDDEN
 62
     7
370
    18
100
AcDbLine
 10
371.0747981022
 20
458.88
 30
0.0
 11
371.0747981022
 21
401.88
 31
0.0
  0
LINE
  5
A3
330
1F
100
AcDbEntity
  8
0
  6
HIDDEN
 62
     7
370
    18
100
AcDbLine
 10
218.0747981022
 20
458.88
 30
0.0
 11
218.0747981022
 21
401.88
 31
0.0
  0
LINE
  5
A4
330
1F
100
AcDbEntity
  8
0
  6
HIDDEN
 62
     7
370
    18
100
AcDbLine
 10
206.0747981022
 20
458.88
 30
0.0
 11
206.0747981022
 21
401.88
 31
0.0
  0
LINE
  5
A5
330
1F
100
AcDbEntity
  8
0
  6
HIDDEN
 62
     7
370
    18
100
AcDbLine
 10
230.4470830952
 20
406.88
 30
0.0
 11
230.4470830952
 21
391.88
 31
0.0
  0
LINE
  5
A6
330
1F
100
AcDbEntity
  8
0
  6
HIDDEN
 62
     7
370
    18
100
AcDbLine
 10
230.4470830952
 20
406.88
 30
0.0
 11
222.4470830952
 21
406.88
 31
0.0
  0
LINE
  5
A7
330
1F
100
AcDbEntity
  8
0
  6
HIDDEN
 62
     7
370
    18
100
AcDbLine
 10
222.4470830952
 20
406.88
 30
0.0
 11
222.4470830952
 21
391.88
 31
0.0
  0
LINE
  5
A8
330
1F
100
AcDbEntity
  8
0
  6
HIDDEN
 62
     7
370
    18
100
AcDbLine
 10
323.3712584933
 20
406.88
 30
0.0
 11
323.3712584933
 21
391.88
 31
0.0
  0
LINE
  5
A9
330
1F
100
AcDbEntity
  8
0
  6
HIDDEN
 62
     7
370
    18
100
AcDbLine
 10
323.3712584933
 20
406.88
 30
0.0
 11
315.3712584933
 21
406.88
 31
0.0
  0
LINE
  5
AA
330
1F
100
AcDbEntity
  8
0
  6
HIDDEN
 62
     7
370
    18
100
AcDbLine
 10
315.3712584933
 20
406.88
 30
0.0
 11
315.3712584933
 21
391.88
 31
0.0
  0
LINE
  5
AB
330
1F
100
AcDbEntity
  8
0
  6
Continuous
 62
     7
370
    25
100
AcDbLine
 10
515.38
 20
32.807860999
 30
0.0
 11
582.38
 21
32.807860999
 31
0.0
  0
LINE
  5
AC
330
1F
100
AcDbEntity
  8
0
  6
Continuous
 62
     7
370
    25
100
AcDbLine
 10
582.38
 20
228.807860999
 30
0.0
 11
515.38
 21
228.807860999
 31
0.0
  0
LINE
  5
AD
330
1F
100
AcDbEntity
  8
0
  6
Continuous
 62
     7
370
    25
100
AcDbLine
 10
582.38
 20
65.807860999
 30
0.0
 11
585.38
 21
65.807860999
 31
0.0
  0
LINE
  5
AE
330
1F
100
AcDbEntity
  8
0
  6
Continuous
 62
     7
370
    25
100
AcDbLine
 10
585.38
 20
195.807860999
 30
0.0
 11
582.38
 21
195.807860999
 31
0.0
  0
LINE
  5
AF
330
1F
100
AcDbEntity
  8
0
  6
Continuous
 62
     7
370
    25
100
AcDbLine
 10
515.38
 20
32.807860999
 30
0.0
 11
515.38
 21
130.807860999
 31
0.0
  0
LINE
  5
B0
330
1F
100
AcDbEntity
  8
0
  6
Continuous
 62
     7
370
    25
100
AcDbLine
 10
582.38
 20
32.807860999
 30
0.0
 11
582.38
 21
130.807860999
 31
0.0
  0
LINE
  5
B1
330
1F
100
AcDbEntity
  8
0
  6
Continuous
 62
     7
370
    25
100
AcDbLine
 10
515.38
 20
130.807860999
 30
0.0
 11
515.38
 21
228.807860999
 31
0.0
  0
LINE
  5
B2
330
1F
100
AcDbEntity
  8
0
  6
Continuous
 62
     7
370
    25
100
AcDbLine
 10
582.38
 20
130.807860999
 30
0.0
 11
582.38
 21
228.807860999
 31
0.0
  0
LINE
  5
B3
330
1F
100
AcDbEntity
  8
0
  6
Continuous
 62
     7
370
    25
100
AcDbLine
 10
585.38
 20
65.807860999
 30
0.0
 11
585.38
 21
130.807860999
 31
0.0
  0
LINE
  5
B4
330
1F
100
AcDbEntity
  8
0
  6
Continuous
 62
     7
370
    25
100
AcDbLine
 10
585.38
 20
130.807860999
 30
0.0
 11
585.38
 21
195.807860999
 31
0.0
  0
LINE
  5
B5
330
1F
100
AcDbEntity
  8
0
  6
HIDDEN
 62
     7
370
    18
100
AcDbLine
 10
525.38
 20
121.807860999
 30
0.0
 11
525.38
 21
130.807860999
 31
0.0
  0
LINE
  5
B6
330
1F
100
AcDbEntity
  8
0
  6
HIDDEN
 62
     7
370
    18
100
AcDbLine
 10
525.38
 20
130.807860999
 30
0.0
 11
525.38
 21
139.807860999
 31
0.0
  0
LINE
  5
B7
330
1F
100
AcDbEntity
  8
0
  6
HIDDEN
 62
     7
370
    18
100
AcDbLine
 10
530.38
 20
151.6043213901
 30
0.0
 11
530.38
 21
155.6043213901
 31
0.0
  0
LINE
  5
B8
330
1F
100
AcDbEntity
  8
0
  6
HIDDEN
 62
     7
370
    18
100
AcDbLine
 10
530.38
 20
155.6043213901
 30
0.0
 11
530.38
 21
159.6043213901
 31
0.0
  0
LINE
  5
B9
330
1F
100
AcDbEntity
  8
0
  6
HIDDEN
 62
     7
370
    18
100
AcDbLine
 10
525.38
 20
75.807860999
 30
0.0
 11
525.38
 21
121.807860999
 31
0.0
  0
LINE
  5
BA
330
1F
100
AcDbEntity
  8
0
  6
HIDDEN
 62
     7
370
    18
100
AcDbLine
 10
525.38
 20
139.807860999
 30
0.0
 11
525.38
 21
185.807860999
 31
0.0
  0
LINE
  5
BB
330
1F
100
AcDbEntity
  8
0
  6
HIDDEN
 62
     7
370
    18
100
AcDbLine
 10
530.38
 20
62.680145992
 30
0.0
 11
530.38
 21
66.680145992
 31
0.0
  0
LINE
  5
BC
330
1F
100
AcDbEntity
  8
0
  6
HIDDEN
 62
     7
370
    18
100
AcDbLine
 10
530.38
 20
58.680145992
 30
0.0
 11
530.38
 21
62.680145992
 31
0.0
  0
LINE
  5
BD
330
1F
100
AcDbEntity
  8
0
  6
HIDDEN
 62
     7
370
    18
100
AcDbLine
 10
525.38
 20
48.307860999
 30
0.0
 11
525.38
 21
57.307860999
 31
0.0
  0
LINE
  5
BE
330
1F
100
AcDbEntity
  8
0
  6
HIDDEN
 62
     7
370
    18
100
AcDbLine
 10
525.38
 20
39.307860999
 30
0.0
 11
525.38
 21
48.307860999
 31
0.0
  0
LINE
  5
BF
330
1F
100
AcDbEntity
  8
0
  6
HIDDEN
 62
     7
370
    18
100
AcDbLine
 10
525.38
 20
204.307860999
 30
0.0
 11
525.38
 21
213.307860999
 31
0.0
  0
LINE
  5
C0
330
1F
100
AcDbEntity
  8
0
  6
HIDDEN
 62
     7
370
    18
100
AcDbLine
 10
525.38
 20
213.307860999
 30
0.0
 11
525.38
 21
222.307860999
 31
0.0
  0
LINE
  5
C1
330
1F
100
AcDbEntity
  8
0
  6
HIDDEN
 62
     7
370
    18
100
AcDbLine
 10
530.38
 20
198.935576006
 30
0.0
 11
530.38
 21
202.935576006
 31
0.0
  0
LINE
  5
C2
330
1F
100
AcDbEntity
  8
0
  6
HIDDEN
 62
     7
370
    18
100
AcDbLine
 10
530.38
 20
194.935576006
 30
0.0
 11
530.38
 21
198.935576006
 31
0.0
  0
LINE
  5
C3
330
1F
100
AcDbEntity
  8
0
  6
HIDDEN
 62
     7
370
    18
100
AcDbLine
 10
530.38
 20
102.0114006079
 30
0.0
 11
530.38
 21
106.0114006079
 31
0.0
  0
LINE
  5
C4
330
1F
100
AcDbEntity
  8
0
  6
HIDDEN
 62
     7
370
    18
100
AcDbLine
 10
530.38
 20
106.0114006079
 30
0.0
 11
530.38
 21
110.0114006079
 31
0.0
  0
LINE
  5
C5
330
1F
100
AcDbEntity
  8
0
  6
HIDDEN
 62
     7
370
    18
100
AcDbLine
 10
515.38
 20
121.807860999
 30
0.0
 11
525.38
 21
121.807860999
 31
0.0
  0
LINE
  5
C6
330
1F
100
AcDbEntity
  8
0
  6
HIDDEN
 62
     7
370
    18
100
AcDbLine
 10
525.38
 20
139.807860999
 30
0.0
 11
515.38
 21
139.807860999
 31
0.0
  0
LINE
  5
C7
330
1F
100
AcDbEntity
  8
0
  6
HIDDEN
 62
     7
370
    18
100
AcDbLine
 10
525.38
 20
124.807860999
 30
0.0
 11
582.38
 21
124.807860999
 31
0.0
  0
LINE
  5
C8
330
1F
100
AcDbEntity
  8
0
  6
HIDDEN
 62
     7
370
    18
100
AcDbLine
 10
582.38
 20
136.807860999
 30
0.0
 11
525.38
 21
136.807860999
 31
0.0
  0
LINE
  5
C9
330
1F
100
AcDbEntity
  8
0
  6
HIDDEN
 62
     7
370
    18
100
AcDbLine
 10
515.38
 20
151.6043213901
 30
0.0
 11
530.38
 21
151.6043213901
 31
0.0
  0
LINE
  5
CA
330
1F
100
AcDbEntity
  8
0
  6
HIDDEN
 62
     7
370
    18
100
AcDbLine
 10
530.38
 20
159.6043213901
 30
0.0
 11
515.38
 21
159.6043213901
 31
0.0
  0
LINE
  5
CB
330
1F
100
AcDbEntity
  8
0
  6
HIDDEN
 62
     7
370
    18
100
AcDbLine
 10
515.38
 20
75.807860999
 30
0.0
 11
525.38
 21
75.807860999
 31
0.0
  0
LINE
  5
CC
330
1F
100
AcDbEntity
  8
0
  6
HIDDEN
 62
     7
370
    18
100
AcDbLine
 10
525.38
 20
185.807860999
 30
0.0
 11
515.38
 21
185.807860999
 31
0.0
  0
LINE
  5
CD
330
1F
100
AcDbEntity
  8
0
  6
HIDDEN
 62
     7
370
    18
100
AcDbLine
 10
530.38
 20
66.680145992
 30
0.0
 11
515.38
 21
66.680145992
 31
0.0
  0
LINE
  5
CE
330
1F
100
AcDbEntity
  8
0
  6
HIDDEN
 62
     7
370
    18
100
AcDbLine
 10
515.38
 20
58.680145992
 30
0.0
 11
530.38
 21
58.680145992
 31
0.0
  0
LINE
  5
CF
330
1F
100
AcDbEntity
  8
0
  6
HIDDEN
 62
     7
370
    18
100
AcDbLine
 10
525.38
 20
104.307860999
 30
0.0
 11
585.38
 21
104.307860999
 31
0.0
  0
LINE
  5
D0
330
1F
100
AcDbEntity
  8
0
  6
HIDDEN
 62
     7
370
    18
100
AcDbLine
 10
585.38
 20
157.307860999
 30
0.0
 11
525.38
 21
157.307860999
 31
0.0
  0
LINE
  5
D1
330
1F
100
AcDbEntity
  8
0
  6
HIDDEN
 62
     7
370
    18
100
AcDbLine
 10
525.38
 20
57.307860999
 30
0.0
 11
515.38
 21
57.307860999
 31
0.0
  0
LINE
  5
D2
330
1F
100
AcDbEntity
  8
0
  6
HIDDEN
 62
     7
370
    18
100
AcDbLine
 10
515.38
 20
39.307860999
 30
0.0
 11
525.38
 21
39.307860999
 31
0.0
  0
LINE
  5
D3
330
1F
100
AcDbEntity
  8
0
  6
HIDDEN
 62
     7
370
    18
100
AcDbLine
 10
515.38
 20
204.307860999
 30
0.0
 11
525.38
 21
204.307860999
 31
0.0
  0
LINE
  5
D4
330
1F
100
AcDbEntity
  8
0
  6
HIDDEN
 62
     7
370
    18
100
AcDbLine
 10
525.38
 20
222.307860999
 30
0.0
 11
515.38
 21
222.307860999
 31
0.0
  0
LINE
  5
D5
330
1F
100
AcDbEntity
  8
0
  6
HIDDEN
 62
     7
370
    18
100
AcDbLine
 10
525.38
 20
42.307860999
 30
0.0
 11
582.38
 21
42.307860999
 31
0.0
  0
LINE
  5
D6
330
1F
100
AcDbEntity
  8
0
  6
HIDDEN
 62
     7
370
    18
100
AcDbLine
 10
582.38
 20
54.307860999
 30
0.0
 11
525.38
 21
54.307860999
 31
0.0
  0
LINE
  5
D7
330
1F
100
AcDbEntity
  8
0
  6
HIDDEN
 62
     7
370
    18
100
AcDbLine
 10
525.38
 20
207.307860999
 30
0.0
 11
582.38
 21
207.307860999
 31
0.0
  0
LINE
  5
D8
330
1F
100
AcDbEntity
  8
0
  6
HIDDEN
 62
     7
370
    18
100
AcDbLine
 10
582.38
 20
219.307860999
 30
0.0
 11
525.38
 21
219.307860999
 31
0.0
  0
LINE
  5
D9
330
1F
100
AcDbEntity
  8
0
  6
HIDDEN
 62
     7
370
    18
100
AcDbLine
 10
530.38
 20
202.935576006
 30
0.0
 11
515.38
 21
202.935576006
 31
0.0
  0
LINE
  5
DA
330
1F
100
AcDbEntity
  8
0
  6
HIDDEN
 62
     7
370
    18
100
AcDbLine
 10
515.38
 20
194.935576006
 30
0.0
 11
530.38
 21
194.935576006
 31
0.0
  0
LINE
  5
DB
330
1F
100
AcDbEntity
  8
0
  6
HIDDEN
 62
     7
370
    18
100
AcDbLine
 10
515.38
 20
102.0114006079
 30
0.0
 11
530.38
 21
102.0114006079
 31
0.0
  0
LINE
  5
DC
330
1F
100
AcDbEntity
  8
0
  6
HIDDEN
 62
     7
370
    18
100
AcDbLine
 10
530.38
 20
110.0114006079
 30
0.0
 11
515.38
 21
110.0114006079
 31
0.0
  0
LINE
  5
DD
330
1F
100
AcDbEntity
  8
0
  6
Continuous
 62
     7
370
    25
100
AcDbLine
 10
524.0113990988
 20
524.8153183025
 30
0.0
 11
476.6352447593
 21
497.4656465564
 31
0.0
  0
LINE
  5
DE
330
1F
100
AcDbEntity
  8
0
  6
Continuous
 62
     7
370
    25
100
AcDbLine
 10
574.6272805576
 20
327.7200695298
 30
0.0
 11
622.0034348971
 21
355.0697412759
 31
0.0
  0
LWPOLYLINE
  5
DF
330
1F
100
AcDbEntity
  8
0
  6
Continuous
 62
     7
370
    25
100
AcDbPolyline
 90
       71
 70
   128
 43
0.0
 10
456.3347981022
 20
452.5968555224
 10
456.4045750309
 20
448.9664455889
 10
456.6137652957
 20
445.2627840908
 10
456.9619476151
 20
441.4933297094
 10
457.4484207963
 20
437.6656736242
 10
458.072205147
 20
433.7875242253
 10
458.8320444487
 20
429.8666915892
 10
459.726408486
 20
425.9110717513
 10
460.7534961288
 20
421.9286308033
 10
461.9112389593
 20
417.9273888515
 10
463.1973054376
 20
413.9154038645
 10
464.6091055967
 20
409.9007554463
 10
466.1437962593
 20
405.8915285644
 10
467.7982867624
 20
401.8957972682
 10
469.5692451823
 20
397.9216084289
 10
471.4531050446
 20
393.9769655338
 10
473.4460725062
 20
390.0698125688
 10
475.5441339958
 20
386.2080180199
 10
477.7430642968
 20
382.3993590274
 10
480.0384350562
 20
378.6515057238
 10
482.4256237028
 20
374.9720057867
 10
484.8998227563
 20
371.3682692394
 10
487.4560495091
 20
367.8475535276
 10
490.0891560608
 20
364.4169489044
 10
492.7938396851
 20
361.0833641507
 10
495.5646535092
 20
357.8535126628
 10
498.3960174827
 20
354.7338989315
 10
501.2822296155
 20
351.7308054439
 10
504.2174774605
 20
348.8502800306
 10
507.195849819
 20
346.0981236863
 10
510.2113486455
 20
343.4798788878
 10
513.2579011268
 20
341.0008184315
 10
516.3293719115
 20
338.6659348153
 10
519.4195754662
 20
336.4799301842
 10
522.5222885323
 20
334.4472068604
 10
525.6312626585
 20
332.5718584783
 10
528.7402367847
 20
330.8576617399
 10
531.8429498507
 20
329.3080688093
 10
534.9331534055
 20
327.9262003605
 10
538.0046241902
 20
326.7148392926
 10
541.0511766714
 20
325.6764251256
 10
544.0666754979
 20
324.8130490874
 10
547.0450478565
 20
324.1264499025
 10
549.9802957014
 20
323.6180102902
 10
552.8665078342
 20
323.2887541803
 10
555.6978718078
 20
323.1393446508
 10
558.4686856319
 20
323.1700825925
 10
561.1733692562
 20
323.3809061034
 10
563.8064758078
 20
323.7713906129
 10
566.3627025607
 20
324.3407497372
 10
568.8369016142
 20
325.0878368628
 10
571.2240902608
 20
326.0111474557
 10
573.5194610202
 20
327.1088220912
 10
575.7183913211
 20
328.3786501987
 10
577.8164528107
 20
329.8180745133
 10
579.8094202723
 20
331.424196226
 10
581.6932801346
 20
333.1937808215
 10
583.4642385546
 20
335.1232645919
 10
585.1187290577
 20
337.2087618136
 10
586.6534197202
 20
339.4460725729
 10
588.0652198794
 20
341.8306912235
 10
589.3512863576
 20
344.3578154609
 10
590.5090291881
 20
347.0223559931
 10
591.5361168309
 20
349.8189467902
 10
592.4304808683
 20
352.7419558904
 10
593.1903201699
 20
355.7854967424
 10
593.8141045207
 20
358.94344006
 10
594.3005777019
 20
362.2094261656
 10
594.6487600213
 20
365.5768777979
 10
594.857950286
 20
369.0390133574
 10
594.9277272148
 20
372.5888605638
  0
LWPOLYLINE
  5
E0
330
1F
100
AcDbEntity
  8
0
  6
Continuous
 62
     7
370
    25
100
AcDbPolyline
 90
       71
 70
   128
 43
0.0
 10
594.9277272148
 20
372.5888605638
 10
594.857950286
 20
376.2192704973
 10
594.6487600213
 20
379.9229319954
 10
594.3005777019
 20
383.6923863768
 10
593.8141045207
 20
387.520042462
 10
593.1903201699
 20
391.3981918609
 10
592.4304808683
 20
395.319024497
 10
591.5361168309
 20
399.2746443349
 10
590.5090291881
 20
403.2570852829
 10
589.3512863576
 20
407.2583272347
 10
588.0652198794
 20
411.2703122217
 10
586.6534197202
 20
415.2849606399
 10
585.1187290577
 20
419.2941875218
 10
583.4642385546
 20
423.289918818
 10
581.6932801346
 20
427.2641076573
 10
579.8094202723
 20
431.2087505524
 10
577.8164528107
 20
435.1159035174
 10
575.7183913211
 20
438.9776980663
 10
573.5194610202
 20
442.7863570588
 10
571.2240902608
 20
446.5342103624
 10
568.8369016142
 20
450.2137102995
 10
566.3627025607
 20
453.8174468468
 10
563.8064758078
 20
457.3381625586
 10
561.1733692562
 20
460.7687671818
 10
558.4686856319
 20
464.1023519355
 10
555.6978718078
 20
467.3322034235
 10
552.8665078342
 20
470.4518171547
 10
549.9802957014
 20
473.4549106423
 10
547.0450478565
 20
476.3354360556
 10
544.0666754979
 20
479.0875923999
 10
541.0511766714
 20
481.7058371984
 10
538.0046241902
 20
484.1848976547
 10
534.9331534055
 20
486.5197812709
 10
531.8429498507
 20
488.705785902
 10
528.7402367847
 20
490.7385092258
 10
525.6312626585
 20
492.6138576079
 10
522.5222885323
 20
494.3280543463
 10
519.4195754662
 20
495.8776472769
 10
516.3293719115
 20
497.2595157257
 10
513.2579011268
 20
498.4708767936
 10
510.2113486455
 20
499.5092909606
 10
507.195849819
 20
500.3726669988
 10
504.2174774605
 20
501.0592661837
 10
501.2822296155
 20
501.567705796
 10
498.3960174827
 20
501.8969619059
 10
495.5646535092
 20
502.0463714354
 10
492.7938396851
 20
502.0156334937
 10
490.0891560608
 20
501.8048099828
 10
487.4560495091
 20
501.4143254733
 10
484.8998227563
 20
500.844966349
 10
482.4256237028
 20
500.0978792234
 10
480.0384350562
 20
499.1745686305
 10
477.7430642968
 20
498.076893995
 10
475.5441339958
 20
496.8070658875
 10
473.4460725062
 20
495.3676415729
 10
471.4531050446
 20
493.7615198602
 10
469.5692451823
 20
491.9919352647
 10
467.7982867624
 20
490.0624514943
 10
466.1437962593
 20
487.9769542726
 10
464.6091055967
 20
485.7396435133
 10
463.1973054376
 20
483.3550248627
 10
461.9112389593
 20
480.8279006253
 10
460.7534961288
 20
478.1633600931
 10
459.726408486
 20
475.3667692961
 10
458.8320444487
 20
472.4437601958
 10
458.072205147
 20
469.4002193438
 10
457.4484207963
 20
466.2422760262
 10
456.9619476151
 20
462.9762899206
 10
456.6137652957
 20
459.6088382883
 10
456.4045750309
 20
456.1467027288
 10
456.3347981022
 20
452.5968555224
  0
LWPOLYLINE
  5
E1
330
1F
100
AcDbEntity
  8
0
  6
Continuous
 62
     7
370
    25
100
AcDbPolyline
 90
       15
 70
   128
 43
0.0
 10
505.2690902417
 20
479.9767496944
 10
505.340004815
 20
479.2090218863
 10
505.549192582
 20
478.3979149328
 10
505.8861639945
 20
477.5841011234
 10
506.3340218989
 20
476.8083884807
 10
506.8703088298
 20
476.1096744756
 10
507.4681331211
 20
475.522995546
 10
508.0975173665
 20
475.0777702232
 10
508.7269016119
 20
474.7963239639
 10
509.3247259032
 20
474.6927696588
 10
509.8610128341
 20
474.7722999532
 10
510.3088707385
 20
475.0309268659
 10
510.645842151
 20
475.4556817638
 10
510.855029918
 20
476.0252656625
 10
510.9259444912
 20
476.7111172471
  0
LWPOLYLINE
  5
E2
330
1F
100
AcDbEntity
  8
0
  6
Continuous
 62
     7
370
    25
100
AcDbPolyline
 90
       15
 70
   128
 43
0.0
 10
510.9259444912
 20
476.7111172471
 10
510.855029918
 20
477.4788450551
 10
510.645842151
 20
478.2899520086
 10
510.3088707385
 20
479.103765818
 10
509.8610128341
 20
479.8794784608
 10
509.3247259032
 20
480.5781924658
 10
508.7269016119
 20
481.1648713954
 10
508.0975173665
 20
481.6100967183
 10
507.4681331211
 20
481.8915429776
 10
506.8703088298
 20
481.9950972826
 10
506.3340218989
 20
481.9155669883
 10
505.8861639945
 20
481.6569400755
 10
505.549192582
 20
481.2321851776
 10
505.340004815
 20
480.6626012789
 10
505.2690902417
 20
479.9767496944
  0
LWPOLYLINE
  5
E3
330
1F
100
AcDbEntity
  8
0
  6
Continuous
 62
     7
370
    25
100
AcDbPolyline
 90
       15
 70
   128
 43
0.0
 10
570.9764048019
 20
406.6629865806
 10
571.0473193752
 20
405.8952587725
 10
571.2565071421
 20
405.084151819
 10
571.5934785547
 20
404.2703380096
 10
572.0413364591
 20
403.4946253669
 10
572.5776233899
 20
402.7959113618
 10
573.1754476812
 20
402.2092324322
 10
573.8048319266
 20
401.7640071094
 10
574.4342161721
 20
401.4825608501
 10
575.0320404634
 20
401.379006545
 10
575.5683273942
 20
401.4585368394
 10
576.0161852986
 20
401.7171637522
 10
576.3531567112
 20
402.14191865
 10
576.5623444781
 20
402.7115025487
 10
576.6332590514
 20
403.3973541333
  0
LWPOLYLINE
  5
E4
330
1F
100
AcDbEntity
  8
0
  6
Continuous
 62
     7
370
    25
100
AcDbPolyline
 90
       15
 70
   128
 43
0.0
 10
576.6332590514
 20
403.3973541333
 10
576.5623444781
 20
404.1650819413
 10
576.3531567112
 20
404.9761888948
 10
576.0161852986
 20
405.7900027042
 10
575.5683273942
 20
406.565715347
 10
575.0320404634
 20
407.264429352
 10
574.4342161721
 20
407.8511082816
 10
573.8048319266
 20
408.2963336045
 10
573.1754476812
 20
408.5777798638
 10
572.5776233899
 20
408.6813341689
 10
572.0413364591
 20
408.6018038745
 10
571.5934785547
 20
408.3431769617
 10
571.2565071421
 20
407.9184220639
 10
571.0473193752
 20
407.3488381651
 10
570.9764048019
 20
406.6629865806
  0
LWPOLYLINE
  5
E5
330
1F
100
AcDbEntity
  8
0
  6
Continuous
 62
     7
370
    25
100
AcDbPolyline
 90
       15
 70
   128
 43
0.0
 10
540.3365808257
 20
348.4745988391
 10
540.407495399
 20
347.7068710311
 10
540.6166831659
 20
346.8957640776
 10
540.9536545785
 20
346.0819502682
 10
541.4015124829
 20
345.3062376254
 10
541.9377994137
 20
344.6075236204
 10
542.535623705
 20
344.0208446908
 10
543.1650079504
 20
343.5756193679
 10
543.7943921959
 20
343.2941731087
 10
544.3922164872
 20
343.1906188036
 10
544.928503418
 20
343.2701490979
 10
545.3763613224
 20
343.5287760107
 10
545.713332735
 20
343.9535309086
 10
545.9225205019
 20
344.5231148073
 10
545.9934350752
 20
345.2089663918
  0
LWPOLYLINE
  5
E6
330
1F
100
AcDbEntity
  8
0
  6
Continuous
 62
     7
370
    25
100
AcDbPolyline
 90
       15
 70
   128
 43
0.0
 10
545.9934350752
 20
345.2089663918
 10
545.9225205019
 20
345.9766941999
 10
545.713332735
 20
346.7878011534
 10
545.3763613224
 20
347.6016149628
 10
544.928503418
 20
348.3773276055
 10
544.3922164872
 20
349.0760416106
 10
543.7943921959
 20
349.6627205402
 10
543.1650079504
 20
350.107945863
 10
542.535623705
 20
350.3893921223
 10
541.9377994137
 20
350.4929464274
 10
541.4015124829
 20
350.413416133
 10
540.9536545785
 20
350.1547892203
 10
540.6166831659
 20
349.7300343224
 10
540.407495399
 20
349.1604504237
 10
540.3365808257
 20
348.4745988391
  0
LWPOLYLINE
  5
E7
330
1F
100
AcDbEntity
  8
0
  6
Continuous
 62
     7
370
    25
100
AcDbPolyline
 90
       15
 70
   128
 43
0.0
 10
474.6292662655
 20
421.7883619529
 10
474.7001808388
 20
421.0206341449
 10
474.9093686058
 20
420.2095271914
 10
475.2463400183
 20
419.395713382
 10
475.6941979227
 20
418.6200007392
 10
476.2304848536
 20
417.9212867342
 10
476.8283091449
 20
417.3346078046
 10
477.4576933903
 20
416.8893824817
 10
478.0870776357
 20
416.6079362224
 10
478.684901927
 20
416.5043819173
 10
479.2211888579
 20
416.5839122117
 10
479.6690467623
 20
416.8425391245
 10
480.0060181748
 20
417.2672940224
 10
480.2152059418
 20
417.8368779211
 10
480.286120515
 20
418.5227295056
  0
LWPOLYLINE
  5
E8
330
1F
100
AcDbEntity
  8
0
  6
Continuous
 62
     7
370
    25
100
AcDbPolyline
 90
       15
 70
   128
 43
0.0
 10
480.286120515
 20
418.5227295056
 10
480.2152059418
 20
419.2904573137
 10
480.0060181748
 20
420.1015642672
 10
479.6690467623
 20
420.9153780766
 10
479.2211888579
 20
421.6910907193
 10
478.684901927
 20
422.3898047244
 10
478.0870776357
 20
422.976483654
 10
477.4576933903
 20
423.4217089768
 10
476.8283091449
 20
423.7031552361
 10
476.2304848536
 20
423.8067095412
 10
475.6941979227
 20
423.7271792468
 10
475.2463400183
 20
423.4685523341
 10
474.9093686058
 20
423.0437974362
 10
474.7001808388
 20
422.4742135375
 10
474.6292662655
 20
421.7883619529
  0
LWPOLYLINE
  5
E9
330
1F
100
AcDbEntity
  8
0
  6
Continuous
 62
     7
370
    25
100
AcDbPolyline
 90
       53
 70
   128
 43
0.0
 10
486.7403896932
 20
435.0440811182
 10
486.8113439821
 20
432.2915371773
 10
487.0239479444
 20
429.4671148925
 10
487.3774258113
 20
426.5811202743
 10
487.8704877803
 20
423.6440840043
 10
488.5013347218
 20
420.6667230092
 10
489.2676647437
 20
417.6599013565
 10
490.166681591
 20
414.6345906121
 10
491.1951048485
 20
411.6018298071
 10
492.3491819113
 20
408.5726851566
 10
493.6247016775
 20
405.558209681
 10
495.0170099138
 20
402.5694028744
 10
496.5210262382
 20
399.6171705687
 10
498.1312626585
 20
396.7122851395
 10
499.8418435964
 20
393.8653461985
 10
501.6465273278
 20
391.0867419173
 10
503.5387287573
 20
388.3866111217
 10
505.5115434472
 20
385.7748062959
 10
507.5577728105
 20
383.2608576327
 10
509.6699503783
 20
380.8539382579
 10
511.8403690436
 20
378.5628307595
 10
514.0611091842
 20
376.3958951403
 10
516.3240675601
 20
374.3610383132
 10
518.6209868815
 20
372.4656852502
 10
520.943485939
 20
370.716751889
 10
523.2830901854
 20
369.1206198979
 10
525.6312626585
 20
367.6831133894
 10
527.9794351316
 20
366.4094776688
 10
530.3190393779
 20
365.3043600947
 10
532.6415384354
 20
364.3717931214
 10
534.9384577569
 20
363.6151795846
 10
537.2014161327
 20
363.037280285
 10
539.4221562733
 20
362.6402039145
 10
541.5925749387
 20
362.4253993617
 10
543.7047525064
 20
362.3936504252
 10
545.7509818698
 20
362.5450729533
 10
547.7237965596
 20
362.8791144217
 10
549.6159979891
 20
363.3945559493
 10
551.4206817205
 20
364.0895167458
 10
553.1312626585
 20
364.9614609748
 10
554.7414990787
 20
366.0072070061
 10
556.2455154032
 20
367.222939026
 10
557.6378236394
 20
368.6042209602
 10
558.9133434056
 20
370.1460126607
 10
560.0674204685
 20
371.8426882968
 10
561.095843726
 20
373.6880568831
 10
561.9948605732
 20
375.6753848697
 10
562.7611905951
 20
377.7974207123
 10
563.3920375366
 20
380.0464213323
 10
563.8850995057
 20
382.4141803703
 10
564.2385773725
 20
384.8920581304
 10
564.4511813348
 20
387.4710131053
 10
564.5221356237
 20
390.141634968
  0
LWPOLYLINE
  5
EA
330
1F
100
AcDbEntity
  8
0
  6
Continuous
 62
     7
370
    25
100
AcDbPolyline
 90
       53
 70
   128
 43
0.0
 10
564.5221356237
 20
390.141634968
 10
564.4511813348
 20
392.8941789089
 10
564.2385773725
 20
395.7186011937
 10
563.8850995057
 20
398.6045958119
 10
563.3920375366
 20
401.5416320819
 10
562.7611905951
 20
404.518993077
 10
561.9948605732
 20
407.5258147297
 10
561.095843726
 20
410.5511254741
 10
560.0674204685
 20
413.5838862791
 10
558.9133434056
 20
416.6130309296
 10
557.6378236394
 20
419.6275064052
 10
556.2455154032
 20
422.6163132118
 10
554.7414990787
 20
425.5685455175
 10
553.1312626585
 20
428.4734309467
 10
551.4206817205
 20
431.3203698877
 10
549.6159979891
 20
434.0989741689
 10
547.7237965596
 20
436.7991049645
 10
545.7509818698
 20
439.4109097903
 10
543.7047525064
 20
441.9248584535
 10
541.5925749386
 20
444.3317778283
 10
539.4221562733
 20
446.6228853267
 10
537.2014161327
 20
448.7898209459
 10
534.9384577569
 20
450.824677773
 10
532.6415384354
 20
452.720030836
 10
530.3190393779
 20
454.4689641972
 10
527.9794351316
 20
456.0650961883
 10
525.6312626585
 20
457.5026026968
 10
523.2830901854
 20
458.7762384174
 10
520.943485939
 20
459.8813559915
 10
518.6209868815
 20
460.8139229648
 10
516.3240675601
 20
461.5705365016
 10
514.0611091842
 20
462.1484358012
 10
511.8403690436
 20
462.5455121717
 10
509.6699503783
 20
462.7603167245
 10
507.5577728105
 20
462.792065661
 10
505.5115434472
 20
462.6406431329
 10
503.5387287573
 20
462.3066016645
 10
501.6465273278
 20
461.7911601369
 10
499.8418435964
 20
461.0961993404
 10
498.1312626585
 20
460.2242551115
 10
496.5210262382
 20
459.1785090801
 10
495.0170099138
 20
457.9627770602
 10
493.6247016775
 20
456.581495126
 10
492.3491819113
 20
455.0397034255
 10
491.1951048485
 20
453.3430277894
 10
490.166681591
 20
451.4976592031
 10
489.2676647437
 20
449.5103312165
 10
488.5013347218
 20
447.3882953739
 10
487.8704877803
 20
445.1392947539
 10
487.3774258113
 20
442.7715357159
 10
487.0239479444
 20
440.2936579558
 10
486.8113439821
 20
437.7147029809
 10
486.7403896932
 20
435.0440811182
  0
LWPOLYLINE
  5
EB
330
1F
100
AcDbEntity
  8
0
  6
Continuous
 62
     7
370
    25
100
AcDbPolyline
 90
       22
 70
   128
 43
0.0
 10
460.9309921799
 20
449.943529159
 10
461.0020723666
 20
448.8072036034
 10
461.2137251126
 20
447.6141942464
 10
461.5612224454
 20
446.3911509455
 10
462.0368018488
 20
445.1653944672
 10
462.6298396648
 20
443.9643061856
 10
463.3270884085
 20
442.8147164282
 10
464.1129726952
 20
441.7423051305
 10
464.9699371686
 20
440.7710281889
 10
465.8788386584
 20
439.9225823252
 10
466.8193738072
 20
439.215920418
 10
467.770532614
 20
438.6668281266
 10
468.7110677628
 20
438.2875712654
 10
469.6199692526
 20
438.086621806
 10
470.4769337259
 20
438.0684686273
 10
471.2628180126
 20
438.2335172413
 10
471.9600667564
 20
438.5780807346
 10
472.5531045724
 20
439.0944621283
 10
473.0286839758
 20
439.7711263152
 10
473.3761813086
 20
440.5929577356
 10
473.5878340546
 20
441.5415980337
 10
473.6589142413
 20
442.5958561526
  0
LWPOLYLINE
  5
EC
330
1F
100
AcDbEntity
  8
0
  6
Continuous
 62
     7
370
    25
100
AcDbPolyline
 90
       22
 70
   128
 43
0.0
 10
473.6589142413
 20
442.5958561526
 10
473.5878340546
 20
443.7321817082
 10
473.3761813086
 20
444.9251910652
 10
473.0286839758
 20
446.1482343661
 10
472.5531045724
 20
447.3739908444
 10
471.9600667564
 20
448.575079126
 10
471.2628180126
 20
449.7246688834
 10
470.4769337259
 20
450.7970801811
 10
469.6199692526
 20
451.7683571227
 10
468.7110677628
 20
452.6168029864
 10
467.770532614
 20
453.3234648936
 10
466.8193738072
 20
453.872557185
 10
465.8788386584
 20
454.2518140462
 10
464.9699371686
 20
454.4527635056
 10
464.1129726952
 20
454.4709166843
 10
463.3270884085
 20
454.3058680703
 10
462.6298396648
 20
453.961304577
 10
462.0368018488
 20
453.4449231833
 10
461.5612224454
 20
452.7682589964
 10
461.2137251126
 20
451.9464275759
 10
461.0020723666
 20
450.9977872779
 10
460.9309921799
 20
449.943529159
  0
LWPOLYLINE
  5
ED
330
1F
100
AcDbEntity
  8
0
  6
Continuous
 62
     7
370
    25
100
AcDbPolyline
 90
       22
 70
   128
 43
0.0
 10
519.2673016278
 20
348.9020775657
 10
519.3383818144
 20
347.7657520101
 10
519.5500345605
 20
346.5727426531
 10
519.8975318933
 20
345.3496993522
 10
520.3731112967
 20
344.1239428739
 10
520.9661491127
 20
342.9228545923
 10
521.6633978564
 20
341.7732648349
 10
522.4492821431
 20
340.7008535372
 10
523.3062466165
 20
339.7295765956
 10
524.2151481063
 20
338.8811307319
 10
525.1556832551
 20
338.1744688247
 10
526.1068420619
 20
337.6253765333
 10
527.0473772107
 20
337.2461196721
 10
527.9562787005
 20
337.0451702128
 10
528.8132431738
 20
337.027017034
 10
529.5991274605
 20
337.192065648
 10
530.2963762043
 20
337.5366291414
 10
530.8894140203
 20
338.053010535
 10
531.3649934237
 20
338.729674722
 10
531.7124907565
 20
339.5515061424
 10
531.9241435025
 20
340.5001464404
 10
531.9952236892
 20
341.5544045593
  0
LWPOLYLINE
  5
EE
330
1F
100
AcDbEntity
  8
0
  6
Continuous
 62
     7
370
    25
100
AcDbPolyline
 90
       22
 70
   128
 43
0.0
 10
531.9952236892
 20
341.5544045593
 10
531.9241435025
 20
342.6907301149
 10
531.7124907565
 20
343.883739472
 10
531.3649934237
 20
345.1067827728
 10
530.8894140203
 20
346.3325392511
 10
530.2963762043
 20
347.5336275328
 10
529.5991274605
 20
348.6832172902
 10
528.8132431738
 20
349.7556285878
 10
527.9562787005
 20
350.7269055294
 10
527.0473772107
 20
351.5753513931
 10
526.1068420619
 20
352.2820133003
 10
525.1556832551
 20
352.8311055917
 10
524.2151481063
 20
353.2103624529
 10
523.3062466165
 20
353.4113119123
 10
522.4492821431
 20
353.429465091
 10
521.6633978564
 20
353.264416477
 10
520.9661491127
 20
352.9198529837
 10
520.3731112967
 20
352.40347159
 10
519.8975318933
 20
351.7268074031
 10
519.5500345605
 20
350.9049759827
 10
519.3383818144
 20
349.9563356847
 10
519.2673016278
 20
348.9020775657
  0
LWPOLYLINE
  5
EF
330
1F
100
AcDbEntity
  8
0
  6
Continuous
 62
     7
370
    25
100
AcDbPolyline
 90
       22
 70
   128
 43
0.0
 10
577.6036110757
 20
382.5898599336
 10
577.6746912623
 20
381.453534378
 10
577.8863440084
 20
380.260525021
 10
578.2338413412
 20
379.0374817201
 10
578.7094207446
 20
377.8117252418
 10
579.3024585606
 20
376.6106369602
 10
579.9997073043
 20
375.4610472028
 10
580.785591591
 20
374.3886359051
 10
581.6425560644
 20
373.4173589635
 10
582.5514575542
 20
372.5689130998
 10
583.491992703
 20
371.8622511926
 10
584.4431515098
 20
371.3131589012
 10
585.3836866586
 20
370.93390204
 10
586.2925881483
 20
370.7329525807
 10
587.1495526217
 20
370.7147994019
 10
587.9354369084
 20
370.8798480159
 10
588.6326856522
 20
371.2244115092
 10
589.2257234681
 20
371.7407929029
 10
589.7013028715
 20
372.4174570898
 10
590.0488002044
 20
373.2392885103
 10
590.2604529504
 20
374.1879288083
 10
590.331533137
 20
375.2421869272
  0
LWPOLYLINE
  5
F0
330
1F
100
AcDbEntity
  8
0
  6
Continuous
 62
     7
370
    25
100
AcDbPolyline
 90
       22
 70
   128
 43
0.0
 10
590.331533137
 20
375.2421869272
 10
590.2604529504
 20
376.3785124828
 10
590.0488002044
 20
377.5715218398
 10
589.7013028715
 20
378.7945651407
 10
589.2257234681
 20
380.020321619
 10
588.6326856522
 20
381.2214099006
 10
587.9354369084
 20
382.370999658
 10
587.1495526217
 20
383.4434109557
 10
586.2925881483
 20
384.4146878973
 10
585.3836866586
 20
385.263133761
 10
584.4431515098
 20
385.9697956682
 10
583.491992703
 20
386.5188879596
 10
582.5514575542
 20
386.8981448208
 10
581.6425560644
 20
387.0990942802
 10
580.785591591
 20
387.1172474589
 10
579.9997073043
 20
386.9521988449
 10
579.3024585606
 20
386.6076353516
 10
578.7094207446
 20
386.0912539579
 10
578.2338413412
 20
385.414589771
 10
577.8863440084
 20
384.5927583506
 10
577.6746912623
 20
383.6441180526
 10
577.6036110757
 20
382.5898599336
  0
LWPOLYLINE
  5
F1
330
1F
100
AcDbEntity
  8
0
  6
Continuous
 62
     7
370
    25
100
AcDbPolyline
 90
       22
 70
   128
 43
0.0
 10
519.2673016278
 20
483.6313115269
 10
519.3383818144
 20
482.4949859713
 10
519.5500345605
 20
481.3019766143
 10
519.8975318933
 20
480.0789333134
 10
520.3731112967
 20
478.8531768351
 10
520.9661491127
 20
477.6520885534
 10
521.6633978564
 20
476.502498796
 10
522.4492821431
 20
475.4300874984
 10
523.3062466165
 20
474.4588105568
 10
524.2151481063
 20
473.6103646931
 10
525.1556832551
 20
472.9037027859
 10
526.1068420619
 20
472.3546104945
 10
527.0473772107
 20
471.9753536333
 10
527.9562787004
 20
471.7744041739
 10
528.8132431738
 20
471.7562509952
 10
529.5991274605
 20
471.9212996092
 10
530.2963762043
 20
472.2658631025
 10
530.8894140203
 20
472.7822444962
 10
531.3649934237
 20
473.4589086831
 10
531.7124907565
 20
474.2807401035
 10
531.9241435025
 20
475.2293804015
 10
531.9952236891
 20
476.2836385205
  0
LWPOLYLINE
  5
F2
330
1F
100
AcDbEntity
  8
0
  6
Continuous
 62
     7
370
    25
100
AcDbPolyline
 90
       22
 70
   128
 43
0.0
 10
531.9952236891
 20
476.2836385205
 10
531.9241435025
 20
477.4199640761
 10
531.7124907565
 20
478.6129734331
 10
531.3649934237
 20
479.836016734
 10
530.8894140203
 20
481.0617732123
 10
530.2963762043
 20
482.2628614939
 10
529.5991274605
 20
483.4124512513
 10
528.8132431738
 20
484.484862549
 10
527.9562787004
 20
485.4561394906
 10
527.0473772107
 20
486.3045853543
 10
526.1068420619
 20
487.0112472615
 10
525.1556832551
 20
487.5603395529
 10
524.2151481063
 20
487.9395964141
 10
523.3062466165
 20
488.1405458734
 10
522.4492821431
 20
488.1586990522
 10
521.6633978564
 20
487.9936504382
 10
520.9661491127
 20
487.6490869448
 10
520.3731112967
 20
487.1327055512
 10
519.8975318933
 20
486.4560413643
 10
519.5500345605
 20
485.6342099438
 10
519.3383818144
 20
484.6855696458
 10
519.2673016278
 20
483.6313115269
  0
LWPOLYLINE
  5
F3
330
1F
100
AcDbEntity
  8
0
  6
Continuous
 62
     7
370
    25
100
AcDbPolyline
 90
       54
 70
   128
 43
0.0
 10
642.3038815543
 20
399.9385323099
 10
642.2341046255
 20
403.5689422433
 10
642.0249143608
 20
407.2726037415
 10
641.6767320414
 20
411.0420581229
 10
641.1902588602
 20
414.869714208
 10
640.5664745094
 20
418.747863607
 10
639.8066352078
 20
422.668696243
 10
638.9122711704
 20
426.624316081
 10
637.8851835276
 20
430.6067570289
 10
636.7274406971
 20
434.6079989808
 10
635.4413742189
 20
438.6199839678
 10
634.0295740597
 20
442.634632386
 10
632.4948833972
 20
446.6438592679
 10
630.8403928941
 20
450.639590564
 10
629.0694344741
 20
454.6137794034
 10
627.1855746118
 20
458.5584222985
 10
625.1926071502
 20
462.4655752635
 10
623.0945456606
 20
466.3273698124
 10
620.8956153597
 20
470.1360288048
 10
618.6002446003
 20
473.8838821085
 10
616.2130559537
 20
477.5633820456
 10
613.7388569002
 20
481.1671185929
 10
611.1826301473
 20
484.6878343046
 10
608.5495235957
 20
488.1184389279
 10
605.8448399714
 20
491.4520236815
 10
603.0740261473
 20
494.6818751695
 10
600.2426621737
 20
497.8014889007
 10
597.3564500409
 20
500.8045823883
 10
594.421202196
 20
503.6851078017
 10
591.4428298374
 20
506.4372641459
 10
588.4273310109
 20
509.0555089445
 10
585.3807785297
 20
511.5345694008
 10
582.309307745
 20
513.8694530169
 10
579.2191041902
 20
516.0554576481
 10
576.1163911242
 20
518.0881809719
 10
573.007416998
 20
519.963529354
 10
569.8984428718
 20
521.6777260924
 10
566.7957298057
 20
523.2273190229
 10
563.705526251
 20
524.6091874717
 10
560.6340554663
 20
525.8205485397
 10
557.587502985
 20
526.8589627067
 10
554.5720041585
 20
527.7223387448
 10
551.5936318
 20
528.4089379298
 10
548.658383955
 20
528.917377542
 10
545.7721718222
 20
529.2466336519
 10
542.9408078487
 20
529.3960431815
 10
540.1699940246
 20
529.3653052397
 10
537.4653104003
 20
529.1544817289
 10
534.8322038486
 20
528.7639972194
 10
532.2759770958
 20
528.194638095
 10
529.8017780423
 20
527.4475509694
 10
527.4145893957
 20
526.5242403765
 10
525.1192186363
 20
525.4265657411
 10
524.0113990988
 20
524.8153183025
  0
LWPOLYLINE
  5
F4
330
1F
100
AcDbEntity
  8
0
  6
Continuous
 62
     7
370
    25
100
AcDbPolyline
 90
       12
 70
   128
 43
0.0
 10
501.8971953453
 20
461.8713314127
 10
500.6957694894
 20
460.6635356851
 10
499.4202497232
 20
459.1217439846
 10
498.2661726603
 20
457.4250683485
 10
497.2377494028
 20
455.5796997623
 10
496.3387325556
 20
453.5923717757
 10
495.5724025337
 20
451.470335933
 10
494.9415555922
 20
449.221335313
 10
494.4484936232
 20
446.853576275
 10
494.0950157563
 20
444.3756985149
 10
493.882411794
 20
441.79674354
 10
493.8114575051
 20
439.1261216773
  0
LWPOLYLINE
  5
F5
330
1F
100
AcDbEntity
  8
0
  6
Continuous
 62
     7
370
    25
100
AcDbPolyline
 90
       38
 70
   128
 43
0.0
 10
493.8114575051
 20
439.1261216773
 10
493.882411794
 20
436.3735777364
 10
494.0950157563
 20
433.5491554516
 10
494.4484936232
 20
430.6631608335
 10
494.9415555922
 20
427.7261245634
 10
495.5724025337
 20
424.7487635683
 10
496.3387325556
 20
421.7419419156
 10
497.2377494028
 20
418.7166311713
 10
498.2661726603
 20
415.6838703662
 10
499.4202497232
 20
412.6547257157
 10
500.6957694894
 20
409.6402502401
 10
502.0880777256
 20
406.6514434335
 10
503.5920940501
 20
403.6992111278
 10
505.2023304703
 20
400.7943256986
 10
506.9129114083
 20
397.9473867576
 10
508.7175951397
 20
395.1687824765
 10
510.6097965692
 20
392.4686516808
 10
512.582611259
 20
389.856846855
 10
514.6288406224
 20
387.3428981918
 10
516.7410181902
 20
384.9359788171
 10
518.9114368555
 20
382.6448713187
 10
521.1321769961
 20
380.4779356994
 10
523.3951353719
 20
378.4430788723
 10
525.6920546934
 20
376.5477258093
 10
528.0145537509
 20
374.7987924481
 10
530.3541579973
 20
373.202660457
 10
532.7023304703
 20
371.7651539485
 10
535.0505029434
 20
370.4915182279
 10
537.3901071898
 20
369.3864006538
 10
539.7126062473
 20
368.4538336805
 10
542.0095255687
 20
367.6972201437
 10
544.2724839446
 20
367.1193208441
 10
546.4932240852
 20
366.7222444736
 10
548.6636427505
 20
366.5074399208
 10
550.7758203183
 20
366.4756909843
 10
552.8220496816
 20
366.6271135124
 10
554.7948643715
 20
366.9611549808
 10
556.4363977835
 20
367.3964252326
  0
LWPOLYLINE
  5
F6
330
1F
100
AcDbEntity
  8
0
  6
Continuous
 62
     7
370
    25
100
AcDbPolyline
 90
       37
 70
   128
 43
0.0
 10
513.9640007689
 20
427.4923060839
 10
514.0353057707
 20
425.5652377275
 10
514.2486781019
 20
423.5705085223
 10
514.6024938702
 20
421.5232995619
 10
515.094060324
 20
419.4391913427
 10
515.7196363459
 20
417.3340451866
 10
516.4744609244
 20
415.2238825269
 10
517.3527893888
 20
413.1247629758
 10
518.3479371292
 20
411.0526621004
 10
519.4523304703
 20
409.0233498396
 10
520.657564312
 20
407.0522704849
 10
521.954466097
 20
405.1544251406
 10
523.3331656196
 20
403.3442575556
 10
524.783170144
 20
401.6355441982
 10
526.2934442602
 20
400.0412894088
 10
527.8524938702
 20
398.573626429
 10
529.4484536652
 20
397.2437250603
 10
531.0691774274
 20
396.0617066551
 10
532.7023304703
 20
395.0365670872
 10
534.3354835133
 20
394.1761082878
 10
535.9562072755
 20
393.4868788678
 10
537.5521670705
 20
392.9741242792
 10
539.1112166805
 20
392.6417468942
 10
540.6214907967
 20
392.4922763053
 10
542.0714953211
 20
392.5268500739
 10
543.4501948437
 20
392.7452050728
 10
544.7470966286
 20
393.1456794887
 10
545.9523304703
 20
393.7252254693
 10
547.0567238115
 20
394.4794323198
 10
548.0518715518
 20
395.4025600708
 10
548.9302000163
 20
396.4875831625
 10
549.6850245948
 20
397.7262439142
 10
550.3106006166
 20
399.1091153696
 10
550.8021670705
 20
400.6256730419
 10
551.1559828388
 20
402.2643750115
 10
551.36935517
 20
404.0127497669
 10
551.4406601718
 20
405.8574911206
  0
LWPOLYLINE
  5
F7
330
1F
100
AcDbEntity
  8
0
  6
Continuous
 62
     7
370
    25
100
AcDbPolyline
 90
       37
 70
   128
 43
0.0
 10
551.4406601718
 20
405.8574911206
 10
551.36935517
 20
407.7845594769
 10
551.1559828388
 20
409.7792886821
 10
550.8021670705
 20
411.8264976425
 10
550.3106006166
 20
413.9106058618
 10
549.6850245948
 20
416.0157520179
 10
548.9302000163
 20
418.1259146775
 10
548.0518715518
 20
420.2250342287
 10
547.0567238115
 20
422.2971351041
 10
545.9523304703
 20
424.3264473649
 10
544.7470966286
 20
426.2975267195
 10
543.4501948437
 20
428.1953720638
 10
542.0714953211
 20
430.0055396489
 10
540.6214907967
 20
431.7142530063
 10
539.1112166805
 20
433.3085077957
 10
537.5521670705
 20
434.7761707754
 10
535.9562072755
 20
436.1060721441
 10
534.3354835133
 20
437.2880905493
 10
532.7023304703
 20
438.3132301172
 10
531.0691774274
 20
439.1736889167
 10
529.4484536652
 20
439.8629183367
 10
527.8524938702
 20
440.3756729252
 10
526.2934442602
 20
440.7080503102
 10
524.783170144
 20
440.8575208992
 10
523.3331656196
 20
440.8229471305
 10
521.954466097
 20
440.6045921316
 10
520.657564312
 20
440.2041177158
 10
519.4523304703
 20
439.6245717351
 10
518.3479371292
 20
438.8703648846
 10
517.3527893888
 20
437.9472371337
 10
516.4744609244
 20
436.8622140419
 10
515.7196363459
 20
435.6235532902
 10
515.094060324
 20
434.2406818348
 10
514.6024938702
 20
432.7241241626
 10
514.2486781019
 20
431.085422193
 10
514.0353057707
 20
429.3370474375
 10
513.9640007689
 20
427.4923060839
  0
LWPOLYLINE
  5
F8
330
1F
100
AcDbEntity
  8
0
  6
Continuous
 62
     7
370
    25
100
AcDbPolyline
 90
       19
 70
   128
 43
0.0
 10
622.0034348971
 20
355.0697412759
 10
623.0945456606
 20
355.7283219447
 10
625.1926071502
 20
357.1677462593
 10
627.1855746118
 20
358.7738679721
 10
629.0694344741
 20
360.5434525676
 10
630.8403928941
 20
362.472936338
 10
632.4948833972
 20
364.5584335597
 10
634.0295740597
 20
366.7957443189
 10
635.4413742189
 20
369.1803629696
 10
636.7274406971
 20
371.7074872069
 10
637.8851835276
 20
374.3720277392
 10
638.9122711704
 20
377.1686185362
 10
639.8066352078
 20
380.0916276364
 10
640.5664745094
 20
383.1351684885
 10
641.1902588602
 20
386.2931118061
 10
641.6767320414
 20
389.5590979117
 10
642.0249143608
 20
392.926549544
 10
642.2341046255
 20
396.3886851034
 10
642.3038815543
 20
399.9385323099
  0
ARC
  5
F9
330
1F
100
AcDbEntity
  8
0
  6
Continuous
 62
     7
370
    25
100
AcDbCircle
 10
598.7732383161
 20
387.4631526026
 30
0.0
 40
14.15462681084445
100
AcDbArc
 50
186.8308074513
 51
233.163816016
  0
ARC
  5
FA
330
1F
100
AcDbEntity
  8
0
  6
Continuous
 62
     7
370
    25
100
AcDbCircle
 10
540.4369288683
 20
488.5046041958
 30
0.0
 40
14.1546268108446
100
AcDbArc
 50
186.8308074513
 51
233.163816016
  0
ARC
  5
FB
330
1F
100
AcDbEntity
  8
0
  6
Continuous
 62
     7
370
    25
100
AcDbCircle
 10
596.6397698576
 20
386.2315274773
 30
0.0
 40
9.936566643226799
100
AcDbArc
 50
195.7546761867
 51
224.2399472806
  0
ARC
  5
FC
330
1F
100
AcDbEntity
  8
0
  6
Continuous
 62
     7
370
    25
100
AcDbCircle
 10
538.3034604097
 20
487.2729790706
 30
0.0
 40
9.936566643200443
100
AcDbArc
 50
195.7546761867
 51
224.2399472806
  0
ARC
  5
FD
330
1F
100
AcDbEntity
  8
0
  6
Continuous
 62
     7
370
    25
100
AcDbCircle
 10
540.4369288683
 20
353.7753702347
 30
0.0
 40
14.15462681084499
100
AcDbArc
 50
186.8308074513
 51
233.163816016
  0
ARC
  5
FE
330
1F
100
AcDbEntity
  8
0
  6
Continuous
 62
     7
370
    25
100
AcDbCircle
 10
482.1006194204
 20
454.8168218279
 30
0.0
 40
14.15462681084438
100
AcDbArc
 50
186.8308074513
 51
233.163816016
  0
ARC
  5
FF
330
1F
100
AcDbEntity
  8
0
  6
Continuous
 62
     7
370
    25
100
AcDbCircle
 10
538.3034604097
 20
352.5437451094
 30
0.0
 40
9.936566643154062
100
AcDbArc
 50
195.7546761866
 51
224.2399472807
  0
ARC
  5
100
330
1F
100
AcDbEntity
  8
0
  6
Continuous
 62
     7
370
    25
100
AcDbCircle
 10
479.9671509618
 20
453.5851967027
 30
0.0
 40
9.93656664320471
100
AcDbArc
 50
195.7546761867
 51
224.2399472806
  0
LWPOLYLINE
  5
101
330
1F
100
AcDbEntity
  8
0
  6
HIDDEN
 62
     7
370
    18
100
AcDbPolyline
 90
       19
 70
   128
 43
0.0
 10
524.0113990988
 20
524.8153183025
 10
522.9202883353
 20
524.1567376336
 10
520.8222268457
 20
522.717313319
 10
518.8292593841
 20
521.1111916063
 10
516.9453995218
 20
519.3416070108
 10
515.1744411019
 20
517.4121232404
 10
513.5199505988
 20
515.3266260186
 10
511.9852599362
 20
513.0893152594
 10
510.5734597771
 20
510.7046966088
 10
509.2873932988
 20
508.1775723714
 10
508.1296504683
 20
505.5130318392
 10
507.1025628255
 20
502.7164410421
 10
506.2081987882
 20
499.7934319419
 10
505.4483594865
 20
496.7498910899
 10
504.8245751358
 20
493.5919477723
 10
504.3381019546
 20
490.3259616666
 10
503.9899196352
 20
486.9585100344
 10
503.7807293704
 20
483.4963744749
 10
503.7109524417
 20
479.9465272685
  0
LWPOLYLINE
  5
102
330
1F
100
AcDbEntity
  8
0
  6
HIDDEN
 62
     7
370
    18
100
AcDbPolyline
 90
       43
 70
   128
 43
0.0
 10
571.5932034356
 20
394.2236755271
 10
571.5222491467
 20
396.976219468
 10
571.3096451844
 20
399.8006417529
 10
570.9561673175
 20
402.686636371
 10
570.4631053485
 20
405.623672641
 10
569.832258407
 20
408.6010336361
 10
569.0659283851
 20
411.6078552889
 10
568.1669115379
 20
414.6331660332
 10
567.1384882803
 20
417.6659268382
 10
565.9844112175
 20
420.6950714887
 10
564.7088914513
 20
423.7095469643
 10
563.3165832151
 20
426.6983537709
 10
561.8125668906
 20
429.6505860766
 10
560.2023304703
 20
432.5554715059
 10
558.4917495324
 20
435.4024104468
 10
556.687065801
 20
438.181014728
 10
554.7948643715
 20
440.8811455237
 10
552.8220496816
 20
443.4929503494
 10
550.7758203183
 20
446.0068990127
 10
548.6636427505
 20
448.4138183874
 10
546.4932240852
 20
450.7049258858
 10
544.2724839446
 20
452.8718615051
 10
542.0095255687
 20
454.9067183321
 10
539.7126062473
 20
456.8020713951
 10
537.3901071898
 20
458.5510047563
 10
535.0505029434
 20
460.1471367474
 10
532.7023304703
 20
461.5846432559
 10
530.3541579973
 20
462.8582789765
 10
528.0145537509
 20
463.9633965506
 10
525.6920546934
 20
464.8959635239
 10
523.3951353719
 20
465.6525770607
 10
521.1321769961
 20
466.2304763603
 10
518.9114368555
 20
466.6275527308
 10
516.7410181902
 20
466.8423572836
 10
514.6288406224
 20
466.8741062201
 10
512.582611259
 20
466.722683692
 10
510.6097965692
 20
466.3886422236
 10
508.7175951397
 20
465.873200696
 10
506.9129114083
 20
465.1782398995
 10
505.2023304703
 20
464.3062956706
 10
503.5920940501
 20
463.2605496392
 10
502.0880777256
 20
462.0448176193
 10
501.8971953453
 20
461.8713314127
  0
LWPOLYLINE
  5
103
330
1F
100
AcDbEntity
  8
0
  6
HIDDEN
 62
     7
370
    18
100
AcDbPolyline
 90
       15
 70
   128
 43
0.0
 10
587.2398607692
 20
409.520414972
 10
587.1689461959
 20
410.28814278
 10
586.959758429
 20
411.0992497335
 10
586.6227870164
 20
411.9130635429
 10
586.174929112
 20
412.6887761857
 10
585.6386421812
 20
413.3874901907
 10
585.0408178899
 20
413.9741691203
 10
584.4114336444
 20
414.4193944431
 10
583.782049399
 20
414.7008407024
 10
583.1842251077
 20
414.8043950075
 10
582.6479381769
 20
414.7248647132
 10
582.2000802725
 20
414.4662378004
 10
581.8631088599
 20
414.0414829025
 10
581.653921093
 20
413.4718990038
 10
581.5830065197
 20
412.7860474192
  0
LWPOLYLINE
  5
104
330
1F
100
AcDbEntity
  8
0
  6
HIDDEN
 62
     7
370
    18
100
AcDbPolyline
 90
       22
 70
   128
 43
0.0
 10
597.4026009489
 20
379.3242274863
 10
597.3315207623
 20
380.4605530419
 10
597.1198680162
 20
381.653562399
 10
596.7723706834
 20
382.8766056998
 10
596.29679128
 20
384.1023621782
 10
595.703753464
 20
385.3034504598
 10
595.0065047203
 20
386.4530402172
 10
594.2206204336
 20
387.5254515148
 10
593.3636559602
 20
388.4967284564
 10
592.4547544704
 20
389.3451743201
 10
591.5142193216
 20
390.0518362273
 10
590.5630605148
 20
390.6009285187
 10
589.622525366
 20
390.9801853799
 10
588.7136238763
 20
391.1811348393
 10
587.8566594029
 20
391.199288018
 10
587.0707751162
 20
391.034239404
 10
586.3735263724
 20
390.6896759107
 10
585.7804885564
 20
390.173294517
 10
585.304909153
 20
389.4966303301
 10
584.9574118202
 20
388.6747989097
 10
584.7457590742
 20
387.7261586117
 10
584.6746788875
 20
386.6719004927
  0
LWPOLYLINE
  5
105
330
1F
100
AcDbEntity
  8
0
  6
HIDDEN
 62
     7
370
    18
100
AcDbPolyline
 90
       22
 70
   128
 43
0.0
 10
539.066291501
 20
480.3656790796
 10
538.9952113144
 20
481.5020046352
 10
538.7835585683
 20
482.6950139922
 10
538.4360612355
 20
483.9180572931
 10
537.9604818321
 20
485.1438137714
 10
537.3674440161
 20
486.344902053
 10
536.6701952724
 20
487.4944918104
 10
535.8843109857
 20
488.5669031081
 10
535.0273465123
 20
489.5381800497
 10
534.1184450225
 20
490.3866259134
 10
533.1779098737
 20
491.0932878206
 10
532.2267510669
 20
491.642380112
 10
531.2862159181
 20
492.0216369732
 10
530.3773144284
 20
492.2225864326
 10
529.520349955
 20
492.2407396113
 10
528.7344656683
 20
492.0756909973
 10
528.0372169245
 20
491.731127504
 10
527.4441791086
 20
491.2147461103
 10
526.9685997052
 20
490.5380819234
 10
526.6211023723
 20
489.7162505029
 10
526.4094496263
 20
488.7676102049
 10
526.3383694397
 20
487.713352086
  0
LWPOLYLINE
  5
106
330
1F
100
AcDbEntity
  8
0
  6
HIDDEN
 62
     7
370
    18
100
AcDbPolyline
 90
       17
 70
   128
 43
0.0
 10
556.4363977835
 20
367.3964252326
 10
556.687065801
 20
367.4765965084
 10
558.4917495324
 20
368.171557305
 10
560.2023304703
 20
369.0435015339
 10
561.8125668906
 20
370.0892475652
 10
563.3165832151
 20
371.3049795851
 10
564.7088914513
 20
372.6862615193
 10
565.9844112175
 20
374.2280532198
 10
567.1384882803
 20
375.9247288559
 10
568.1669115379
 20
377.7700974422
 10
569.0659283851
 20
379.7574254288
 10
569.832258407
 20
381.8794612714
 10
570.4631053485
 20
384.1284618914
 10
570.9561673175
 20
386.4962209294
 10
571.3096451844
 20
388.9740986895
 10
571.5222491467
 20
391.5530536644
 10
571.5932034356
 20
394.2236755271
  0
LWPOLYLINE
  5
107
330
1F
100
AcDbEntity
  8
0
  6
HIDDEN
 62
     7
370
    18
100
AcDbPolyline
 90
       54
 70
   128
 43
0.0
 10
503.7109524417
 20
479.9465272685
 10
503.7807293704
 20
476.316117335
 10
503.9899196352
 20
472.6124558369
 10
504.3381019546
 20
468.8430014555
 10
504.8245751358
 20
465.0153453703
 10
505.4483594865
 20
461.1371959713
 10
506.2081987882
 20
457.2163633353
 10
507.1025628255
 20
453.2607434973
 10
508.1296504683
 20
449.2783025494
 10
509.2873932988
 20
445.2770605975
 10
510.5734597771
 20
441.2650756106
 10
511.9852599362
 20
437.2504271923
 10
513.5199505988
 20
433.2412003104
 10
515.1744411019
 20
429.2454690143
 10
516.9453995218
 20
425.271280175
 10
518.8292593841
 20
421.3266372799
 10
520.8222268457
 20
417.4194843148
 10
522.9202883353
 20
413.5576897659
 10
525.1192186363
 20
409.7490307735
 10
527.4145893957
 20
406.0011774699
 10
529.8017780423
 20
402.3216775328
 10
532.2759770958
 20
398.7179409855
 10
534.8322038486
 20
395.1972252737
 10
537.4653104003
 20
391.7666206504
 10
540.1699940246
 20
388.4330358968
 10
542.9408078487
 20
385.2031844088
 10
545.7721718222
 20
382.0835706776
 10
548.658383955
 20
379.08047719
 10
551.5936318
 20
376.1999517766
 10
554.5720041585
 20
373.4477954324
 10
557.587502985
 20
370.8295506338
 10
560.6340554663
 20
368.3504901776
 10
563.705526251
 20
366.0156065614
 10
566.7957298057
 20
363.8296019302
 10
569.8984428718
 20
361.7968786065
 10
573.007416998
 20
359.9215302244
 10
576.1163911242
 20
358.207333486
 10
579.2191041902
 20
356.6577405554
 10
582.309307745
 20
355.2758721066
 10
585.3807785297
 20
354.0645110387
 10
588.4273310109
 20
353.0260968717
 10
591.4428298374
 20
352.1627208335
 10
594.421202196
 20
351.4761216486
 10
597.3564500409
 20
350.9676820363
 10
600.2426621737
 20
350.6384259264
 10
603.0740261473
 20
350.4890163969
 10
605.8448399714
 20
350.5197543386
 10
608.5495235957
 20
350.7305778495
 10
611.1826301473
 20
351.121062359
 10
613.7388569002
 20
351.6904214833
 10
616.2130559537
 20
352.4375086089
 10
618.6002446003
 20
353.3608192018
 10
620.8956153597
 20
354.4584938373
 10
622.0034348971
 20
355.0697412759
  0
LWPOLYLINE
  5
108
330
1F
100
AcDbEntity
  8
0
  6
HIDDEN
 62
     7
370
    18
100
AcDbPolyline
 90
       15
 70
   128
 43
0.0
 10
581.5830065197
 20
412.7860474192
 10
581.653921093
 20
412.0183196112
 10
581.8631088599
 20
411.2072126577
 10
582.2000802725
 20
410.3933988483
 10
582.6479381769
 20
409.6176862055
 10
583.1842251077
 20
408.9189722005
 10
583.782049399
 20
408.3322932709
 10
584.4114336444
 20
407.8870679481
 10
585.0408178899
 20
407.6056216888
 10
585.6386421812
 20
407.5020673837
 10
586.174929112
 20
407.581597678
 10
586.6227870164
 20
407.8402245908
 10
586.959758429
 20
408.2649794887
 10
587.1689461959
 20
408.8345633874
 10
587.2398607692
 20
409.520414972
  0
LINE
  5
109
330
1F
100
AcDbEntity
  8
0
  6
HIDDEN
 62
     7
370
    18
100
AcDbLine
 10
584.6746788875
 20
386.6719004927
 30
0.0
 11
584.7190852961
 21
385.7796315772
 31
0.0
  0
LWPOLYLINE
  5
10A
330
1F
100
AcDbEntity
  8
0
  6
HIDDEN
 62
     7
370
    18
100
AcDbPolyline
 90
       13
 70
   128
 43
0.0
 10
590.2871267285
 20
376.1344558427
 10
590.5630605148
 20
375.9442917517
 10
591.5142193216
 20
375.3951994603
 10
592.4547544704
 20
375.0159425991
 10
593.3636559602
 20
374.8149931398
 10
594.2206204336
 20
374.7968399611
 10
595.0065047203
 20
374.961888575
 10
595.703753464
 20
375.3064520684
 10
596.29679128
 20
375.822833462
 10
596.7723706834
 20
376.499497649
 10
597.1198680162
 20
377.3213290694
 10
597.3315207623
 20
378.2699693674
 10
597.4026009489
 20
379.3242274863
  0
LINE
  5
10B
330
1F
100
AcDbEntity
  8
0
  6
HIDDEN
 62
     7
370
    18
100
AcDbLine
 10
526.3383694397
 20
487.713352086
 30
0.0
 11
526.3827758482
 21
486.8210831705
 31
0.0
  0
LWPOLYLINE
  5
10C
330
1F
100
AcDbEntity
  8
0
  6
HIDDEN
 62
     7
370
    18
100
AcDbPolyline
 90
       13
 70
   128
 43
0.0
 10
531.9508172806
 20
477.175907436
 10
532.2267510669
 20
476.985743345
 10
533.1779098737
 20
476.4366510536
 10
534.1184450225
 20
476.0573941924
 10
535.0273465123
 20
475.856444733
 10
535.8843109857
 20
475.8382915543
 10
536.6701952724
 20
476.0033401683
 10
537.3674440161
 20
476.3479036616
 10
537.9604818321
 20
476.8642850553
 10
538.4360612355
 20
477.5409492422
 10
538.7835585683
 20
478.3627806626
 10
538.9952113144
 20
479.3114209607
 10
539.066291501
 20
480.3656790796
  0
LWPOLYLINE
  5
10D
330
1F
100
AcDbEntity
  8
0
  6
HIDDEN
 62
     7
370
    18
100
AcDbPolyline
 90
        3
 70
   128
 43
0.0
 10
586.7959992311
 20
385.447288325
 10
586.8682382512
 20
384.5053517436
 10
587.0764894218
 20
383.5335608429
  0
LWPOLYLINE
  5
10E
330
1F
100
AcDbEntity
  8
0
  6
HIDDEN
 62
     7
370
    18
100
AcDbPolyline
 90
       12
 70
   128
 43
0.0
 10
589.5209714411
 20
379.2991349783
 10
589.877586182
 20
378.9561066951
 10
590.6471784222
 20
378.3457043445
 10
591.4301014142
 20
377.8937325217
 10
592.1996936545
 20
377.6155825851
 10
592.9297476023
 20
377.5207265972
 10
593.595402146
 20
377.6123947647
 10
594.1739892186
 20
377.8874654384
 10
594.6458057312
 20
378.3365714162
 10
594.9947845383
 20
378.9444189328
 10
595.2090415853
 20
379.6903084699
 10
595.2812806053
 20
380.5488396541
  0
LWPOLYLINE
  5
10F
330
1F
100
AcDbEntity
  8
0
  6
HIDDEN
 62
     7
370
    18
100
AcDbPolyline
 90
       18
 70
   128
 43
0.0
 10
595.2812806053
 20
380.5488396541
 10
595.2090415853
 20
381.4907762354
 10
594.9947845383
 20
382.4840416935
 10
594.6458057312
 20
383.4948115643
 10
594.1739892186
 20
384.4886652923
 10
593.595402146
 20
385.4317583807
 10
592.9297476023
 20
386.2919749255
 10
592.1996936545
 20
387.0400212839
 10
591.4301014142
 20
387.6504236345
 10
590.6471784222
 20
388.1023954573
 10
589.877586182
 20
388.3805453939
 10
589.1475322342
 20
388.4754013819
 10
588.4818776905
 20
388.3837332143
 10
587.9032906179
 20
388.1086625407
 10
587.4314741053
 20
387.6595565629
 10
587.0824952981
 20
387.0517090463
 10
586.8682382512
 20
386.3058195092
 10
586.7959992311
 20
385.447288325
  0
LWPOLYLINE
  5
110
330
1F
100
AcDbEntity
  8
0
  6
HIDDEN
 62
     7
370
    18
100
AcDbPolyline
 90
        3
 70
   128
 43
0.0
 10
528.4596897832
 20
486.4887399183
 10
528.5319288033
 20
485.5468033369
 10
528.7401799739
 20
484.5750124361
  0
LWPOLYLINE
  5
111
330
1F
100
AcDbEntity
  8
0
  6
HIDDEN
 62
     7
370
    18
100
AcDbPolyline
 90
       12
 70
   128
 43
0.0
 10
531.1846619932
 20
480.3405865716
 10
531.5412767341
 20
479.9975582884
 10
532.3108689743
 20
479.3871559378
 10
533.0937919663
 20
478.935184115
 10
533.8633842066
 20
478.6570341784
 10
534.5934381544
 20
478.5621781904
 10
535.2590926981
 20
478.653846358
 10
535.8376797707
 20
478.9289170316
 10
536.3094962833
 20
479.3780230095
 10
536.6584750904
 20
479.985870526
 10
536.8727321374
 20
480.7317600632
 10
536.9449711575
 20
481.5902912473
  0
LWPOLYLINE
  5
112
330
1F
100
AcDbEntity
  8
0
  6
HIDDEN
 62
     7
370
    18
100
AcDbPolyline
 90
       18
 70
   128
 43
0.0
 10
536.9449711575
 20
481.5902912473
 10
536.8727321374
 20
482.5322278287
 10
536.6584750904
 20
483.5254932868
 10
536.3094962833
 20
484.5362631576
 10
535.8376797707
 20
485.5301168856
 10
535.2590926981
 20
486.4732099739
 10
534.5934381544
 20
487.3334265187
 10
533.8633842066
 20
488.0814728772
 10
533.0937919663
 20
488.6918752278
 10
532.3108689743
 20
489.1438470506
 10
531.5412767341
 20
489.4219969872
 10
530.8112227863
 20
489.5168529752
 10
530.1455682426
 20
489.4251848076
 10
529.56698117
 20
489.1501141339
 10
529.0951646574
 20
488.7010081561
 10
528.7461858503
 20
488.0931606396
 10
528.5319288033
 20
487.3472711024
 10
528.4596897832
 20
486.4887399183
  0
LWPOLYLINE
  5
113
330
1F
100
AcDbEntity
  8
0
  6
HIDDEN
 62
     7
370
    18
100
AcDbPolyline
 90
       18
 70
   128
 43
0.0
 10
635.586367133
 20
403.816470841
 10
635.5141281129
 20
404.7584074224
 10
635.2998710659
 20
405.7516728804
 10
634.9508922588
 20
406.7624427513
 10
634.4790757462
 20
407.7562964793
 10
633.9004886736
 20
408.6993895676
 10
633.2348341299
 20
409.5596061124
 10
632.5047801821
 20
410.3076524709
 10
631.7351879419
 20
410.9180548215
 10
630.9522649499
 20
411.3700266443
 10
630.1826727096
 20
411.6481765809
 10
629.4526187618
 20
411.7430325689
 10
628.7869642181
 20
411.6513644013
 10
628.2083771455
 20
411.3762937276
 10
627.7365606329
 20
410.9271877498
 10
627.3875818258
 20
410.3193402333
 10
627.1733247788
 20
409.5734506961
 10
627.1010857587
 20
408.7149195119
  0
LWPOLYLINE
  5
114
330
1F
100
AcDbEntity
  8
0
  6
HIDDEN
 62
     7
370
    18
100
AcDbPolyline
 90
       18
 70
   128
 43
0.0
 10
577.2500576851
 20
504.8579224343
 10
577.177818665
 20
505.7998590157
 10
576.963561618
 20
506.7931244737
 10
576.6145828109
 20
507.8038943445
 10
576.1427662983
 20
508.7977480725
 10
575.5641792257
 20
509.7408411609
 10
574.898524682
 20
510.6010577057
 10
574.1684707342
 20
511.3491040641
 10
573.398878494
 20
511.9595064148
 10
572.615955502
 20
512.4114782375
 10
571.8463632617
 20
512.6896281742
 10
571.1163093139
 20
512.7844841621
 10
570.4506547702
 20
512.6928159945
 10
569.8720676976
 20
512.4177453209
 10
569.400251185
 20
511.9686393431
 10
569.0512723779
 20
511.3607918265
 10
568.8370153309
 20
510.6149022894
 10
568.7647763109
 20
509.7563711052
  0
LWPOLYLINE
  5
115
330
1F
100
AcDbEntity
  8
0
  6
HIDDEN
 62
     7
370
    18
100
AcDbPolyline
 90
       18
 70
   128
 43
0.0
 10
627.1010857587
 20
408.7149195119
 10
627.1733247788
 20
407.7729829306
 10
627.3875818258
 20
406.7797174725
 10
627.7365606329
 20
405.7689476017
 10
628.2083771455
 20
404.7750938737
 10
628.7869642181
 20
403.8320007853
 10
629.4526187618
 20
402.9717842405
 10
630.1826727096
 20
402.2237378821
 10
630.9522649499
 20
401.6133355315
 10
631.7351879419
 20
401.1613637087
 10
632.5047801821
 20
400.8832137721
 10
633.2348341299
 20
400.7883577841
 10
633.9004886736
 20
400.8800259517
 10
634.4790757462
 20
401.1550966253
 10
634.9508922588
 20
401.6042026031
 10
635.2998710659
 20
402.2120501197
 10
635.5141281129
 20
402.9579396569
 10
635.586367133
 20
403.816470841
  0
LWPOLYLINE
  5
116
330
1F
100
AcDbEntity
  8
0
  6
HIDDEN
 62
     7
370
    18
100
AcDbPolyline
 90
       18
 70
   128
 43
0.0
 10
568.7647763109
 20
509.7563711052
 10
568.8370153309
 20
508.8144345238
 10
569.0512723779
 20
507.8211690658
 10
569.400251185
 20
506.8103991949
 10
569.8720676976
 20
505.816545467
 10
570.4506547702
 20
504.8734523786
 10
571.1163093139
 20
504.0132358338
 10
571.8463632617
 20
503.2651894753
 10
572.615955502
 20
502.6547871247
 10
573.398878494
 20
502.2028153019
 10
574.1684707342
 20
501.9246653653
 10
574.898524682
 20
501.8298093774
 10
575.5641792257
 20
501.9214775449
 10
576.1427662983
 20
502.1965482186
 10
576.6145828109
 20
502.6456541964
 10
576.963561618
 20
503.253501713
 10
577.177818665
 20
503.9993912501
 10
577.2500576851
 20
504.8579224343
  0
LWPOLYLINE
  5
117
330
1F
100
AcDbEntity
  8
0
  6
HIDDEN
 62
     7
370
    18
100
AcDbPolyline
 90
       58
 70
   128
 43
0.0
 10
621.0906781187
 20
414.6338783227
 10
621.0208856669
 20
417.5979599442
 10
620.811720269
 20
420.633620397
 10
620.4638171534
 20
423.7316404798
 10
619.9782328904
 20
426.8826116076
 10
619.3564421835
 20
430.0769643845
 10
618.6003333906
 20
433.3049976663
 10
617.7122027892
 20
436.5569080218
 10
616.6947476029
 20
439.8228195063
 10
615.5510578095
 20
443.0928136539
 10
614.2846067574
 20
446.3569595998
 10
612.8992406169
 20
449.6053442402
 10
611.3991666992
 20
452.8281023375
 10
609.7889406797
 20
456.0154464814
 10
608.0734527619
 20
459.1576968125
 10
606.257912826
 20
462.2453104198
 10
604.3478346074
 20
465.2689103222
 10
602.3490189506
 20
468.2193139462
 10
600.2675361933
 20
471.087561013
 10
598.1097077301
 20
473.8649407506
 10
595.8820868151
 20
476.5430183478
 10
593.5914386599
 20
479.1136605712
 10
591.2447198875
 20
481.5690604647
 10
588.8490574059
 20
483.9017610595
 10
586.4117267631
 20
486.1046780207
 10
583.9401300524
 20
488.1711211618
 10
581.4417734315
 20
490.0948147629
 10
578.9242443275
 20
491.8699166298
 10
576.3951883936
 20
493.4910358365
 10
573.8622862895
 20
494.9532490971
 10
571.3332303555
 20
496.2521157182
 10
568.8157012516
 20
497.3836910843
 10
566.3173446307
 20
498.3445386385
 10
563.8457479199
 20
499.1317403181
 10
561.4084172772
 20
499.7429054176
 10
559.0127547955
 20
500.1761778487
 10
556.6660360232
 20
500.4302417771
 10
554.3753878679
 20
500.5043256193
 10
552.147766953
 20
500.3982043848
 10
549.9899384897
 20
500.1122003605
 10
547.9084557324
 20
499.6471821311
 10
545.9096400757
 20
499.0045619418
 10
543.999561857
 20
498.1862914089
 10
542.1840219212
 20
497.1948555931
 10
540.4685340033
 20
496.0332654525
 10
538.8583079838
 20
494.705048698
 10
537.3582340662
 20
493.2142390804
 10
535.9728679256
 20
491.5653641395
 10
534.7064168735
 20
489.7634314542
 10
533.5627270802
 20
487.8139134349
 10
532.5452718938
 20
485.7227307037
 10
531.6571412925
 20
483.496234114
 10
530.9010324996
 20
481.1411854625
 10
530.2792417927
 20
478.6647369547
 10
529.7936575297
 20
476.0744094834
 10
529.4457544141
 20
473.3780697878
 10
529.2365890162
 20
470.5839065631
 10
529.1667965644
 20
467.7004055911
  0
LWPOLYLINE
  5
118
330
1F
100
AcDbEntity
  8
0
  6
HIDDEN
 62
     7
370
    18
100
AcDbPolyline
 90
       58
 70
   128
 43
0.0
 10
618.9693577751
 20
413.4092661549
 10
618.8995653233
 20
416.3733477765
 10
618.6903999254
 20
419.4090082292
 10
618.3424968098
 20
422.5070283121
 10
617.8569125468
 20
425.6579994398
 10
617.2351218399
 20
428.8523522168
 10
616.479013047
 20
432.0803854985
 10
615.5908824457
 20
435.3322958541
 10
614.5734272593
 20
438.5982073386
 10
613.429737466
 20
441.8682014862
 10
612.1632864139
 20
445.1323474321
 10
610.7779202733
 20
448.3807320724
 10
609.2778463557
 20
451.6034901698
 10
607.6676203362
 20
454.7908343137
 10
605.9521324183
 20
457.9330846447
 10
604.1365924825
 20
461.020698252
 10
602.2265142638
 20
464.0442981544
 10
600.2276986071
 20
466.9947017785
 10
598.1462158498
 20
469.8629488453
 10
595.9883873865
 20
472.6403285828
 10
593.7607664716
 20
475.3184061801
 10
591.4701183163
 20
477.8890484034
 10
589.123399544
 20
480.3444482969
 10
586.7277370623
 20
482.6771488918
 10
584.2904064196
 20
484.880065853
 10
581.8188097088
 20
486.9465089941
 10
579.3204530879
 20
488.8702025952
 10
576.802923984
 20
490.6453044621
 10
574.27386805
 20
492.2664236688
 10
571.7409659459
 20
493.7286369294
 10
569.211910012
 20
495.0275035504
 10
566.694380908
 20
496.1590789166
 10
564.1960242871
 20
497.1199264707
 10
561.7244275764
 20
497.9071281504
 10
559.2870969336
 20
498.5182932499
 10
556.891434452
 20
498.9515656809
 10
554.5447156796
 20
499.2056296094
 10
552.2540675244
 20
499.2797134515
 10
550.0264466094
 20
499.1735922171
 10
547.8686181462
 20
498.8875881927
 10
545.7871353889
 20
498.4225699634
 10
543.7883197321
 20
497.779949774
 10
541.8782415135
 20
496.9616792411
 10
540.0627015776
 20
495.9702434254
 10
538.3472136598
 20
494.8086532847
 10
536.7369876403
 20
493.4804365303
 10
535.2369137226
 20
491.9896269127
 10
533.8515475821
 20
490.3407519718
 10
532.58509653
 20
488.5388192865
 10
531.4414067366
 20
486.5893012672
 10
530.4239515503
 20
484.498118536
 10
529.5358209489
 20
482.2716219462
 10
528.779712156
 20
479.9165732948
 10
528.1579214491
 20
477.440124787
 10
527.6723371861
 20
474.8497973156
 10
527.3244340705
 20
472.1534576201
 10
527.1152686726
 20
469.3592943954
 10
527.0454762208
 20
466.4757934234
  0
LWPOLYLINE
  5
119
330
1F
100
AcDbEntity
  8
0
  6
HIDDEN
 62
     7
370
    18
100
AcDbPolyline
 90
       15
 70
   128
 43
0.0
 10
521.532546209
 20
482.8341780857
 10
521.4616316358
 20
483.6019058938
 10
521.2524438688
 20
484.4130128473
 10
520.9154724563
 20
485.2268266567
 10
520.4676145519
 20
486.0025392994
 10
519.931327621
 20
486.7012533045
 10
519.3335033297
 20
487.2879322341
 10
518.7041190843
 20
487.7331575569
 10
518.0747348389
 20
488.0146038162
 10
517.4769105476
 20
488.1181581213
 10
516.9406236167
 20
488.038627827
 10
516.4927657123
 20
487.7800009142
 10
516.1557942998
 20
487.3552460163
 10
515.9466065328
 20
486.7856621176
 10
515.8756919595
 20
486.099810533
  0
LWPOLYLINE
  5
11A
330
1F
100
AcDbEntity
  8
0
  6
HIDDEN
 62
     7
370
    18
100
AcDbPolyline
 90
       15
 70
   128
 43
0.0
 10
515.8756919595
 20
486.099810533
 10
515.9466065328
 20
485.332082725
 10
516.1557942998
 20
484.5209757715
 10
516.4927657123
 20
483.7071619621
 10
516.9406236167
 20
482.9314493193
 10
517.4769105476
 20
482.2327353143
 10
518.0747348389
 20
481.6460563847
 10
518.7041190843
 20
481.2008310618
 10
519.3335033297
 20
480.9193848026
 10
519.931327621
 20
480.8158304975
 10
520.4676145519
 20
480.8953607918
 10
520.9154724563
 20
481.1539877046
 10
521.2524438688
 20
481.5787426025
 10
521.4616316358
 20
482.1483265012
 10
521.532546209
 20
482.8341780857
  0
LWPOLYLINE
  5
11B
330
1F
100
AcDbEntity
  8
0
  6
HIDDEN
 62
     7
370
    18
100
AcDbPolyline
 90
       37
 70
   128
 43
0.0
 10
593.867067043
 20
430.3497344752
 10
593.7957620412
 20
432.2768028316
 10
593.58238971
 20
434.2715320368
 10
593.2285739417
 20
436.3187409972
 10
592.7370074878
 20
438.4028492164
 10
592.111431466
 20
440.5079953726
 10
591.3566068875
 20
442.6181580322
 10
590.478278423
 20
444.7172775833
 10
589.4831306827
 20
446.7893784587
 10
588.3787373415
 20
448.8186907196
 10
587.1735034998
 20
450.7897700742
 10
585.8766017149
 20
452.6876154185
 10
584.4979021923
 20
454.4977830035
 10
583.0478976679
 20
456.206496361
 10
581.5376235517
 20
457.8007511503
 10
579.9785739417
 20
459.2684141301
 10
578.3826141467
 20
460.5983154988
 10
576.7618903845
 20
461.780333904
 10
575.1287373415
 20
462.8054734719
 10
573.4955842985
 20
463.6659322713
 10
571.8748605364
 20
464.3551616914
 10
570.2789007414
 20
464.8679162799
 10
568.7198511314
 20
465.2002936649
 10
567.2095770152
 20
465.3497642538
 10
565.7595724908
 20
465.3151904852
 10
564.3808729682
 20
465.0968354863
 10
563.0839711832
 20
464.6963610704
 10
561.8787373415
 20
464.1168150898
 10
560.7743440004
 20
463.3626082393
 10
559.77919626
 20
462.4394804883
 10
558.9008677956
 20
461.3544573966
 10
558.1460432171
 20
460.1157966449
 10
557.5204671952
 20
458.7329251895
 10
557.0289007414
 20
457.2163675172
 10
556.675084973
 20
455.5776655476
 10
556.4617126419
 20
453.8292907922
 10
556.3904076401
 20
451.9845494385
  0
LWPOLYLINE
  5
11C
330
1F
100
AcDbEntity
  8
0
  6
HIDDEN
 62
     7
370
    18
100
AcDbPolyline
 90
       37
 70
   128
 43
0.0
 10
556.3904076401
 20
451.9845494385
 10
556.4617126419
 20
450.0574810822
 10
556.675084973
 20
448.062751877
 10
557.0289007414
 20
446.0155429166
 10
557.5204671952
 20
443.9314346974
 10
558.1460432171
 20
441.8262885412
 10
558.9008677956
 20
439.7161258816
 10
559.77919626
 20
437.6170063305
 10
560.7743440004
 20
435.5449054551
 10
561.8787373415
 20
433.5155931942
 10
563.0839711832
 20
431.5445138396
 10
564.3808729682
 20
429.6466684953
 10
565.7595724908
 20
427.8365009102
 10
567.2095770152
 20
426.1277875528
 10
568.7198511314
 20
424.5335327634
 10
570.2789007414
 20
423.0658697837
 10
571.8748605364
 20
421.735968415
 10
573.4955842985
 20
420.5539500098
 10
575.1287373415
 20
419.5288104419
 10
576.7618903845
 20
418.6683516425
 10
578.3826141467
 20
417.9791222224
 10
579.9785739417
 20
417.4663676339
 10
581.5376235517
 20
417.1339902489
 10
583.0478976679
 20
416.98451966
 10
584.4979021923
 20
417.0190934286
 10
585.8766017149
 20
417.2374484275
 10
587.1735034998
 20
417.6379228434
 10
588.3787373415
 20
418.217468824
 10
589.4831306827
 20
418.9716756745
 10
590.478278423
 20
419.8948034255
 10
591.3566068875
 20
420.9798265172
 10
592.111431466
 20
422.2184872689
 10
592.7370074878
 20
423.6013587243
 10
593.2285739417
 20
425.1179163966
 10
593.58238971
 20
426.7566183661
 10
593.7957620412
 20
428.5049931216
 10
593.867067043
 20
430.3497344752
  0
LWPOLYLINE
  5
11D
330
1F
100
AcDbEntity
  8
0
  6
HIDDEN
 62
     7
370
    18
100
AcDbPolyline
 90
       58
 70
   128
 43
0.0
 10
529.1667965644
 20
467.7004055911
 10
529.2365890162
 20
464.7363239696
 10
529.4457544141
 20
461.7006635168
 10
529.7936575297
 20
458.602643434
 10
530.2792417927
 20
455.4516723062
 10
530.9010324996
 20
452.2573195293
 10
531.6571412925
 20
449.0292862475
 10
532.5452718938
 20
445.777375892
 10
533.5627270802
 20
442.5114644075
 10
534.7064168735
 20
439.2414702599
 10
535.9728679256
 20
435.977324314
 10
537.3582340662
 20
432.7289396736
 10
538.8583079838
 20
429.5061815763
 10
540.4685340033
 20
426.3188374324
 10
542.1840219212
 20
423.1765871013
 10
543.999561857
 20
420.088973494
 10
545.9096400757
 20
417.0653735916
 10
547.9084557324
 20
414.1149699676
 10
549.9899384897
 20
411.2467229008
 10
552.147766953
 20
408.4693431632
 10
554.3753878679
 20
405.791265566
 10
556.6660360232
 20
403.2206233426
 10
559.0127547955
 20
400.7652234491
 10
561.4084172772
 20
398.4325228543
 10
563.8457479199
 20
396.2296058931
 10
566.3173446307
 20
394.163162752
 10
568.8157012516
 20
392.2394691509
 10
571.3332303555
 20
390.464367284
 10
573.8622862895
 20
388.8432480773
 10
576.3951883936
 20
387.3810348167
 10
578.9242443275
 20
386.0821681956
 10
581.4417734315
 20
384.9505928295
 10
583.9401300524
 20
383.9897452753
 10
586.4117267631
 20
383.2025435957
 10
588.8490574059
 20
382.5913784962
 10
591.2447198875
 20
382.1581060651
 10
593.5914386599
 20
381.9040421366
 10
595.8820868151
 20
381.8299582945
 10
598.1097077301
 20
381.936079529
 10
600.2675361933
 20
382.2220835533
 10
602.3490189506
 20
382.6871017827
 10
604.3478346074
 20
383.329721972
 10
606.257912826
 20
384.1479925049
 10
608.0734527619
 20
385.1394283207
 10
609.7889406797
 20
386.3010184613
 10
611.3991666992
 20
387.6292352158
 10
612.8992406169
 20
389.1200448334
 10
614.2846067574
 20
390.7689197743
 10
615.5510578095
 20
392.5708524596
 10
616.6947476029
 20
394.5203704789
 10
617.7122027892
 20
396.61155321
 10
618.6003333906
 20
398.8380497998
 10
619.3564421835
 20
401.1930984513
 10
619.9782328904
 20
403.6695469591
 10
620.4638171534
 20
406.2598744304
 10
620.811720269
 20
408.956214126
 10
621.0208856669
 20
411.7503773507
 10
621.0906781187
 20
414.6338783227
  0
LWPOLYLINE
  5
11E
330
1F
100
AcDbEntity
  8
0
  6
HIDDEN
 62
     7
370
    18
100
AcDbPolyline
 90
       58
 70
   128
 43
0.0
 10
527.0454762208
 20
466.4757934234
 10
527.1152686726
 20
463.5117118018
 10
527.3244340705
 20
460.4760513491
 10
527.6723371861
 20
457.3780312663
 10
528.1579214491
 20
454.2270601385
 10
528.779712156
 20
451.0327073615
 10
529.5358209489
 20
447.8046740798
 10
530.4239515503
 20
444.5527637242
 10
531.4414067366
 20
441.2868522398
 10
532.58509653
 20
438.0168580922
 10
533.8515475821
 20
434.7527121462
 10
535.2369137226
 20
431.5043275059
 10
536.7369876403
 20
428.2815694086
 10
538.3472136598
 20
425.0942252647
 10
540.0627015776
 20
421.9519749336
 10
541.8782415135
 20
418.8643613263
 10
543.7883197321
 20
415.8407614239
 10
545.7871353889
 20
412.8903577998
 10
547.8686181462
 20
410.022110733
 10
550.0264466094
 20
407.2447309955
 10
552.2540675244
 20
404.5666533982
 10
554.5447156796
 20
401.9960111749
 10
556.891434452
 20
399.5406112814
 10
559.2870969336
 20
397.2079106865
 10
561.7244275764
 20
395.0049937253
 10
564.1960242871
 20
392.9385505842
 10
566.694380908
 20
391.0148569831
 10
569.211910012
 20
389.2397551162
 10
571.7409659459
 20
387.6186359096
 10
574.27386805
 20
386.1564226489
 10
576.802923984
 20
384.8575560279
 10
579.3204530879
 20
383.7259806617
 10
581.8188097088
 20
382.7651331076
 10
584.2904064196
 20
381.977931428
 10
586.7277370623
 20
381.3667663285
 10
589.123399544
 20
380.9334938974
 10
591.4701183163
 20
380.6794299689
 10
593.7607664716
 20
380.6053461268
 10
595.9883873865
 20
380.7114673613
 10
598.1462158498
 20
380.9974713856
 10
600.2276986071
 20
381.4624896149
 10
602.2265142638
 20
382.1051098043
 10
604.1365924825
 20
382.9233803372
 10
605.9521324183
 20
383.914816153
 10
607.6676203362
 20
385.0764062936
 10
609.2778463557
 20
386.404623048
 10
610.7779202733
 20
387.8954326656
 10
612.1632864139
 20
389.5443076066
 10
613.429737466
 20
391.3462402919
 10
614.5734272593
 20
393.2957583112
 10
615.5908824457
 20
395.3869410423
 10
616.479013047
 20
397.6134376321
 10
617.2351218399
 20
399.9684862836
 10
617.8569125468
 20
402.4449347913
 10
618.3424968098
 20
405.0352622627
 10
618.6903999254
 20
407.7316019582
 10
618.8995653233
 20
410.5257651829
 10
618.9693577751
 20
413.4092661549
  0
LWPOLYLINE
  5
11F
330
1F
100
AcDbEntity
  8
0
  6
HIDDEN
 62
     7
370
    18
100
AcDbPolyline
 90
       15
 70
   128
 43
0.0
 10
556.600036793
 20
351.3320272305
 10
556.5291222197
 20
352.0997550386
 10
556.3199344528
 20
352.9108619921
 10
555.9829630402
 20
353.7246758015
 10
555.5351051358
 20
354.5003884442
 10
554.998818205
 20
355.1991024493
 10
554.4009939137
 20
355.7857813789
 10
553.7716096682
 20
356.2310067017
 10
553.1422254228
 20
356.512452961
 10
552.5444011315
 20
356.6160072661
 10
552.0081142007
 20
356.5364769717
 10
551.5602562963
 20
356.2778500589
 10
551.2232848837
 20
355.8530951611
 10
551.0140971168
 20
355.2835112623
 10
550.9431825435
 20
354.5976596778
  0
LWPOLYLINE
  5
120
330
1F
100
AcDbEntity
  8
0
  6
HIDDEN
 62
     7
370
    18
100
AcDbPolyline
 90
       15
 70
   128
 43
0.0
 10
550.9431825435
 20
354.5976596778
 10
551.0140971168
 20
353.8299318698
 10
551.2232848837
 20
353.0188249163
 10
551.5602562963
 20
352.2050111068
 10
552.0081142007
 20
351.4292984641
 10
552.5444011315
 20
350.730584459
 10
553.1422254228
 20
350.1439055294
 10
553.7716096682
 20
349.6986802066
 10
554.4009939137
 20
349.4172339473
 10
554.998818205
 20
349.3136796422
 10
555.5351051358
 20
349.3932099366
 10
555.9829630402
 20
349.6518368494
 10
556.3199344528
 20
350.0765917472
 10
556.5291222197
 20
350.646175646
 10
556.600036793
 20
351.3320272305
  0
LWPOLYLINE
  5
121
330
1F
100
AcDbEntity
  8
0
  6
HIDDEN
 62
     7
370
    18
100
AcDbPolyline
 90
       22
 70
   128
 43
0.0
 10
539.066291501
 20
345.6364451184
 10
538.9952113144
 20
346.772770674
 10
538.7835585683
 20
347.9657800311
 10
538.4360612355
 20
349.1888233319
 10
537.9604818321
 20
350.4145798103
 10
537.3674440161
 20
351.6156680919
 10
536.6701952724
 20
352.7652578493
 10
535.8843109857
 20
353.8376691469
 10
535.0273465123
 20
354.8089460885
 10
534.1184450225
 20
355.6573919522
 10
533.1779098737
 20
356.3640538594
 10
532.2267510669
 20
356.9131461508
 10
531.2862159181
 20
357.292403012
 10
530.3773144284
 20
357.4933524714
 10
529.520349955
 20
357.5115056501
 10
528.7344656683
 20
357.3464570362
 10
528.0372169245
 20
357.0018935428
 10
527.4441791086
 20
356.4855121491
 10
526.9685997052
 20
355.8088479622
 10
526.6211023723
 20
354.9870165418
 10
526.4094496263
 20
354.0383762438
 10
526.3383694397
 20
352.9841181248
  0
LWPOLYLINE
  5
122
330
1F
100
AcDbEntity
  8
0
  6
HIDDEN
 62
     7
370
    18
100
AcDbPolyline
 90
       22
 70
   128
 43
0.0
 10
480.7299820531
 20
446.6778967117
 10
480.6589018665
 20
447.8142222673
 10
480.4472491204
 20
449.0072316243
 10
480.0997517876
 20
450.2302749252
 10
479.6241723842
 20
451.4560314035
 10
479.0311345682
 20
452.6571196851
 10
478.3338858245
 20
453.8067094425
 10
477.5480015378
 20
454.8791207402
 10
476.6910370644
 20
455.8503976818
 10
475.7821355747
 20
456.6988435455
 10
474.8416004259
 20
457.4055054527
 10
473.890441619
 20
457.9545977441
 10
472.9499064702
 20
458.3338546053
 10
472.0410049805
 20
458.5348040647
 10
471.1840405071
 20
458.5529572434
 10
470.3981562204
 20
458.3879086294
 10
469.7009074767
 20
458.0433451361
 10
469.1078696607
 20
457.5269637424
 10
468.6322902573
 20
456.8502995555
 10
468.2847929244
 20
456.0284681351
 10
468.0731401784
 20
455.079827837
 10
468.0020599918
 20
454.0255697181
  0
LINE
  5
123
330
1F
100
AcDbEntity
  8
0
  6
HIDDEN
 62
     7
370
    18
100
AcDbLine
 10
526.3383694397
 20
352.9841181248
 30
0.0
 11
526.3827758482
 21
352.0918492093
 31
0.0
  0
LWPOLYLINE
  5
124
330
1F
100
AcDbEntity
  8
0
  6
HIDDEN
 62
     7
370
    18
100
AcDbPolyline
 90
       13
 70
   128
 43
0.0
 10
531.9508172806
 20
342.4466734748
 10
532.2267510669
 20
342.2565093839
 10
533.1779098737
 20
341.7074170924
 10
534.1184450225
 20
341.3281602313
 10
535.0273465123
 20
341.1272107719
 10
535.8843109857
 20
341.1090575932
 10
536.6701952724
 20
341.2741062071
 10
537.3674440161
 20
341.6186697005
 10
537.9604818321
 20
342.1350510941
 10
538.4360612355
 20
342.8117152811
 10
538.7835585683
 20
343.6335467015
 10
538.9952113144
 20
344.5821869995
 10
539.066291501
 20
345.6364451184
  0
LINE
  5
125
330
1F
100
AcDbEntity
  8
0
  6
HIDDEN
 62
     7
370
    18
100
AcDbLine
 10
468.0020599918
 20
454.0255697181
 30
0.0
 11
468.0464664003
 21
453.1333008026
 31
0.0
  0
LWPOLYLINE
  5
126
330
1F
100
AcDbEntity
  8
0
  6
HIDDEN
 62
     7
370
    18
100
AcDbPolyline
 90
       13
 70
   128
 43
0.0
 10
473.6145078327
 20
443.4881250681
 10
473.890441619
 20
443.2979609771
 10
474.8416004259
 20
442.7488686857
 10
475.7821355747
 20
442.3696118245
 10
476.6910370644
 20
442.1686623651
 10
477.5480015378
 20
442.1505091864
 10
478.3338858245
 20
442.3155578004
 10
479.0311345682
 20
442.6601212937
 10
479.6241723842
 20
443.1765026874
 10
480.0997517876
 20
443.8531668743
 10
480.4472491204
 20
444.6749982947
 10
480.6589018665
 20
445.6236385928
 10
480.7299820531
 20
446.6778967117
  0
LWPOLYLINE
  5
127
330
1F
100
AcDbEntity
  8
0
  6
HIDDEN
 62
     7
370
    18
100
AcDbPolyline
 90
        3
 70
   128
 43
0.0
 10
528.4596897832
 20
351.7595059571
 10
528.5319288033
 20
350.8175693757
 10
528.7401799739
 20
349.845778475
  0
LWPOLYLINE
  5
128
330
1F
100
AcDbEntity
  8
0
  6
HIDDEN
 62
     7
370
    18
100
AcDbPolyline
 90
       12
 70
   128
 43
0.0
 10
531.1846619932
 20
345.6113526104
 10
531.5412767341
 20
345.2683243272
 10
532.3108689743
 20
344.6579219766
 10
533.0937919663
 20
344.2059501538
 10
533.8633842066
 20
343.9278002172
 10
534.5934381544
 20
343.8329442293
 10
535.2590926981
 20
343.9246123969
 10
535.8376797707
 20
344.1996830705
 10
536.3094962833
 20
344.6487890483
 10
536.6584750904
 20
345.2566365649
 10
536.8727321374
 20
346.002526102
 10
536.9449711575
 20
346.8610572862
  0
LWPOLYLINE
  5
129
330
1F
100
AcDbEntity
  8
0
  6
HIDDEN
 62
     7
370
    18
100
AcDbPolyline
 90
       18
 70
   128
 43
0.0
 10
536.9449711575
 20
346.8610572862
 10
536.8727321374
 20
347.8029938676
 10
536.6584750904
 20
348.7962593256
 10
536.3094962833
 20
349.8070291965
 10
535.8376797707
 20
350.8008829244
 10
535.2590926981
 20
351.7439760128
 10
534.5934381544
 20
352.6041925576
 10
533.8633842066
 20
353.3522389161
 10
533.0937919663
 20
353.9626412667
 10
532.3108689743
 20
354.4146130894
 10
531.5412767341
 20
354.6927630261
 10
530.8112227863
 20
354.787619014
 10
530.1455682426
 20
354.6959508464
 10
529.56698117
 20
354.4208801728
 10
529.0951646574
 20
353.971774195
 10
528.7461858503
 20
353.3639266784
 10
528.5319288033
 20
352.6180371413
 10
528.4596897832
 20
351.7595059571
  0
LWPOLYLINE
  5
12A
330
1F
100
AcDbEntity
  8
0
  6
HIDDEN
 62
     7
370
    18
100
AcDbPolyline
 90
        3
 70
   128
 43
0.0
 10
470.1233803353
 20
452.8009575504
 10
470.1956193554
 20
451.859020969
 10
470.403870526
 20
450.8872300682
  0
LWPOLYLINE
  5
12B
330
1F
100
AcDbEntity
  8
0
  6
HIDDEN
 62
     7
370
    18
100
AcDbPolyline
 90
       12
 70
   128
 43
0.0
 10
472.8483525454
 20
446.6528042037
 10
473.2049672862
 20
446.3097759205
 10
473.9745595265
 20
445.6993735699
 10
474.7574825184
 20
445.2474017471
 10
475.5270747587
 20
444.9692518105
 10
476.2571287065
 20
444.8743958225
 10
476.9227832502
 20
444.9660639901
 10
477.5013703228
 20
445.2411346638
 10
477.9731868354
 20
445.6902406416
 10
478.3221656425
 20
446.2980881581
 10
478.5364226895
 20
447.0439776953
 10
478.6086617096
 20
447.9025088794
  0
LWPOLYLINE
  5
12C
330
1F
100
AcDbEntity
  8
0
  6
HIDDEN
 62
     7
370
    18
100
AcDbPolyline
 90
       18
 70
   128
 43
0.0
 10
478.6086617096
 20
447.9025088794
 10
478.5364226895
 20
448.8444454608
 10
478.3221656425
 20
449.8377109189
 10
477.9731868354
 20
450.8484807897
 10
477.5013703228
 20
451.8423345177
 10
476.9227832502
 20
452.7854276061
 10
476.2571287065
 20
453.6456441508
 10
475.5270747587
 20
454.3936905093
 10
474.7574825184
 20
455.0040928599
 10
473.9745595265
 20
455.4560646827
 10
473.2049672862
 20
455.7342146193
 10
472.4749133384
 20
455.8290706073
 10
471.8092587947
 20
455.7374024397
 10
471.2306717221
 20
455.462331766
 10
470.7588552095
 20
455.0132257882
 10
470.4098764024
 20
454.4053782717
 10
470.1956193554
 20
453.6594887345
 10
470.1233803353
 20
452.8009575504
  0
LWPOLYLINE
  5
12D
330
1F
100
AcDbEntity
  8
0
  6
HIDDEN
 62
     7
370
    18
100
AcDbPolyline
 90
       18
 70
   128
 43
0.0
 10
577.2500576851
 20
370.1286884731
 10
577.177818665
 20
371.0706250545
 10
576.9635616181
 20
372.0638905126
 10
576.6145828109
 20
373.0746603834
 10
576.1427662983
 20
374.0685141114
 10
575.5641792257
 20
375.0116071997
 10
574.898524682
 20
375.8718237445
 10
574.1684707342
 20
376.619870103
 10
573.398878494
 20
377.2302724536
 10
572.615955502
 20
377.6822442764
 10
571.8463632617
 20
377.960394213
 10
571.1163093139
 20
378.055250201
 10
570.4506547702
 20
377.9635820334
 10
569.8720676976
 20
377.6885113597
 10
569.400251185
 20
377.2394053819
 10
569.0512723779
 20
376.6315578654
 10
568.8370153309
 20
375.8856683282
 10
568.7647763109
 20
375.0271371441
  0
LWPOLYLINE
  5
12E
330
1F
100
AcDbEntity
  8
0
  6
HIDDEN
 62
     7
370
    18
100
AcDbPolyline
 90
       18
 70
   128
 43
0.0
 10
518.9137482372
 20
471.1701400664
 10
518.8415092171
 20
472.1120766478
 10
518.6272521702
 20
473.1053421058
 10
518.278273363
 20
474.1161119767
 10
517.8064568504
 20
475.1099657046
 10
517.2278697779
 20
476.053058793
 10
516.5622152341
 20
476.9132753378
 10
515.8321612863
 20
477.6613216963
 10
515.0625690461
 20
478.2717240469
 10
514.2796460541
 20
478.7236958696
 10
513.5100538138
 20
479.0018458063
 10
512.7799998661
 20
479.0967017942
 10
512.1143453223
 20
479.0050336266
 10
511.5357582497
 20
478.729962953
 10
511.0639417371
 20
478.2808569752
 10
510.71496293
 20
477.6730094586
 10
510.500705883
 20
476.9271199215
 10
510.428466863
 20
476.0685887373
  0
LWPOLYLINE
  5
12F
330
1F
100
AcDbEntity
  8
0
  6
HIDDEN
 62
     7
370
    18
100
AcDbPolyline
 90
       15
 70
   128
 43
0.0
 10
490.8927222328
 20
424.6457903443
 10
490.8218076596
 20
425.4135181523
 10
490.6126198926
 20
426.2246251058
 10
490.2756484801
 20
427.0384389153
 10
489.8277905757
 20
427.814151558
 10
489.2915036448
 20
428.5128655631
 10
488.6936793535
 20
429.0995444927
 10
488.0642951081
 20
429.5447698155
 10
487.4349108627
 20
429.8262160748
 10
486.8370865714
 20
429.9297703799
 10
486.3007996405
 20
429.8502400855
 10
485.8529417361
 20
429.5916131727
 10
485.5159703236
 20
429.1668582749
 10
485.3067825566
 20
428.5972743761
 10
485.2358679833
 20
427.9114227916
  0
LWPOLYLINE
  5
130
330
1F
100
AcDbEntity
  8
0
  6
HIDDEN
 62
     7
370
    18
100
AcDbPolyline
 90
       18
 70
   128
 43
0.0
 10
568.7647763109
 20
375.0271371441
 10
568.8370153309
 20
374.0852005627
 10
569.0512723779
 20
373.0919351046
 10
569.400251185
 20
372.0811652338
 10
569.8720676976
 20
371.0873115058
 10
570.4506547702
 20
370.1442184174
 10
571.1163093139
 20
369.2840018726
 10
571.8463632617
 20
368.5359555142
 10
572.615955502
 20
367.9255531636
 10
573.398878494
 20
367.4735813408
 10
574.1684707342
 20
367.1954314042
 10
574.898524682
 20
367.1005754162
 10
575.5641792257
 20
367.1922435838
 10
576.1427662983
 20
367.4673142574
 10
576.6145828109
 20
367.9164202353
 10
576.9635616181
 20
368.5242677518
 10
577.177818665
 20
369.270157289
 10
577.2500576851
 20
370.1286884731
  0
LWPOLYLINE
  5
131
330
1F
100
AcDbEntity
  8
0
  6
HIDDEN
 62
     7
370
    18
100
AcDbPolyline
 90
       18
 70
   128
 43
0.0
 10
510.428466863
 20
476.0685887373
 10
510.500705883
 20
475.1266521559
 10
510.71496293
 20
474.1333866979
 10
511.0639417371
 20
473.122616827
 10
511.5357582497
 20
472.1287630991
 10
512.1143453223
 20
471.1856700107
 10
512.7799998661
 20
470.3254534659
 10
513.5100538138
 20
469.5774071074
 10
514.2796460541
 20
468.9670047568
 10
515.0625690461
 20
468.5150329341
 10
515.8321612863
 20
468.2368829974
 10
516.5622152341
 20
468.1420270095
 10
517.2278697779
 20
468.2336951771
 10
517.8064568504
 20
468.5087658507
 10
518.278273363
 20
468.9578718285
 10
518.6272521702
 20
469.5657193451
 10
518.8415092171
 20
470.3116088822
 10
518.9137482372
 20
471.1701400664
  0
LWPOLYLINE
  5
132
330
1F
100
AcDbEntity
  8
0
  6
HIDDEN
 62
     7
370
    18
100
AcDbPolyline
 90
       15
 70
   128
 43
0.0
 10
485.2358679833
 20
427.9114227916
 10
485.3067825566
 20
427.1436949835
 10
485.5159703236
 20
426.33258803
 10
485.8529417361
 20
425.5187742206
 10
486.3007996405
 20
424.7430615779
 10
486.8370865714
 20
424.0443475728
 10
487.4349108627
 20
423.4576686432
 10
488.0642951081
 20
423.0124433204
 10
488.6936793535
 20
422.7309970611
 10
489.2915036448
 20
422.627442756
 10
489.8277905757
 20
422.7069730504
 10
490.2756484801
 20
422.9655999632
 10
490.6126198926
 20
423.390354861
 10
490.8218076596
 20
423.9599387598
 10
490.8927222328
 20
424.6457903443
  0
LINE
  5
133
330
1F
100
AcDbEntity
  8
0
  6
HIDDEN
 62
     7
370
    18
100
AcDbLine
 10
505.2045653228
 20
464.3075860332
 30
0.0
 11
498.133497511
 21
460.225545474
 31
0.0
  0
LINE
  5
134
330
1F
100
AcDbEntity
  8
0
  6
HIDDEN
 62
     7
370
    18
100
AcDbLine
 10
582.4115961792
 20
414.6174266451
 30
0.0
 11
571.8049944614
 21
408.4943658065
 31
0.0
  0
LINE
  5
135
330
1F
100
AcDbEntity
  8
0
  6
HIDDEN
 62
     7
370
    18
100
AcDbLine
 10
586.5390056214
 20
390.792503751
 30
0.0
 11
579.4679378095
 21
386.7104631918
 31
0.0
  0
LINE
  5
136
330
1F
100
AcDbEntity
  8
0
  6
HIDDEN
 62
     7
370
    18
100
AcDbLine
 10
528.2026961735
 20
491.8339553442
 30
0.0
 11
521.1316283616
 21
487.7519147851
 31
0.0
  0
LINE
  5
137
330
1F
100
AcDbEntity
  8
0
  6
HIDDEN
 62
     7
370
    18
100
AcDbLine
 10
575.8046693919
 20
401.5659749074
 30
0.0
 11
586.4112711097
 21
407.6890357461
 31
0.0
  0
LINE
  5
138
330
1F
100
AcDbEntity
  8
0
  6
HIDDEN
 62
     7
370
    18
100
AcDbLine
 10
588.4672064032
 20
371.121583669
 30
0.0
 11
595.5382742151
 21
375.2036242281
 31
0.0
  0
LINE
  5
139
330
1F
100
AcDbEntity
  8
0
  6
HIDDEN
 62
     7
370
    18
100
AcDbLine
 10
530.1308969553
 20
472.1630352623
 30
0.0
 11
537.2019647672
 21
476.2450758214
 31
0.0
  0
LINE
  5
13A
330
1F
100
AcDbEntity
  8
0
  6
HIDDEN
 62
     7
370
    18
100
AcDbLine
 10
628.343970248
 20
411.4619883508
 30
0.0
 11
588.0388837203
 21
388.1943571638
 31
0.0
  0
LINE
  5
13B
330
1F
100
AcDbEntity
  8
0
  6
HIDDEN
 62
     7
370
    18
100
AcDbLine
 10
570.0076608001
 20
512.503439944
 30
0.0
 11
529.7025742724
 21
489.2358087571
 31
0.0
  0
LINE
  5
13C
330
1F
100
AcDbEntity
  8
0
  6
HIDDEN
 62
     7
370
    18
100
AcDbLine
 10
594.0383961161
 20
377.8017708152
 30
0.0
 11
634.3434826438
 21
401.0694020022
 31
0.0
  0
LINE
  5
13D
330
1F
100
AcDbEntity
  8
0
  6
HIDDEN
 62
     7
370
    18
100
AcDbLine
 10
535.7020866682
 20
478.8432224085
 30
0.0
 11
576.0071731959
 21
502.1108535955
 31
0.0
  0
LINE
  5
13E
330
1F
100
AcDbEntity
  8
0
  6
HIDDEN
 62
     7
370
    18
100
AcDbLine
 10
542.6313785309
 20
497.4603180116
 30
0.0
 11
540.5100581873
 21
496.2357058439
 31
0.0
  0
LINE
  5
13F
330
1F
100
AcDbEntity
  8
0
  6
HIDDEN
 62
     7
370
    18
100
AcDbLine
 10
553.129027806
 20
364.9601706122
 30
0.0
 11
560.2000956178
 21
369.0422111713
 31
0.0
  0
LINE
  5
140
330
1F
100
AcDbEntity
  8
0
  6
HIDDEN
 62
     7
370
    18
100
AcDbLine
 10
516.704281619
 20
487.9311897589
 30
0.0
 11
506.0976799012
 21
481.8081289202
 31
0.0
  0
LINE
  5
141
330
1F
100
AcDbEntity
  8
0
  6
HIDDEN
 62
     7
370
    18
100
AcDbLine
 10
510.0973548318
 20
474.8797380212
 30
0.0
 11
520.7039565496
 21
481.0027988599
 31
0.0
  0
LINE
  5
142
330
1F
100
AcDbEntity
  8
0
  6
HIDDEN
 62
     7
370
    18
100
AcDbLine
 10
561.8798141341
 20
464.11743681
 30
0.0
 11
519.4534072629
 21
439.6251934553
 31
0.0
  0
LINE
  5
143
330
1F
100
AcDbEntity
  8
0
  6
HIDDEN
 62
     7
370
    18
100
AcDbLine
 10
545.9512536778
 20
393.7246037491
 30
0.0
 11
588.377660549
 21
418.2168471038
 31
0.0
  0
LINE
  5
144
330
1F
100
AcDbEntity
  8
0
  6
HIDDEN
 62
     7
370
    18
100
AcDbLine
 10
605.5047758086
 20
383.6493537344
 30
0.0
 11
607.6260961522
 21
384.8739659022
 31
0.0
  0
LINE
  5
145
330
1F
100
AcDbEntity
  8
0
  6
HIDDEN
 62
     7
370
    18
100
AcDbLine
 10
551.771772203
 20
356.4290389037
 30
0.0
 11
541.1651704852
 21
350.305978065
 31
0.0
  0
LINE
  5
146
330
1F
100
AcDbEntity
  8
0
  6
HIDDEN
 62
     7
370
    18
100
AcDbLine
 10
545.1648454157
 20
343.377587166
 30
0.0
 11
555.7714471335
 21
349.5006480046
 31
0.0
  0
LINE
  5
147
330
1F
100
AcDbEntity
  8
0
  6
HIDDEN
 62
     7
370
    18
100
AcDbLine
 10
528.2026961735
 20
357.1047213831
 30
0.0
 11
521.1316283616
 21
353.022680824
 31
0.0
  0
LINE
  5
148
330
1F
100
AcDbEntity
  8
0
  6
HIDDEN
 62
     7
370
    18
100
AcDbLine
 10
469.8663867256
 20
458.1461729763
 30
0.0
 11
462.7953189137
 21
454.0641324172
 31
0.0
  0
LINE
  5
149
330
1F
100
AcDbEntity
  8
0
  6
HIDDEN
 62
     7
370
    18
100
AcDbLine
 10
530.1308969553
 20
337.4338013011
 30
0.0
 11
537.2019647672
 21
341.5158418602
 31
0.0
  0
LINE
  5
14A
330
1F
100
AcDbEntity
  8
0
  6
HIDDEN
 62
     7
370
    18
100
AcDbLine
 10
471.7945875074
 20
438.4752528944
 30
0.0
 11
478.8656553193
 21
442.5572934535
 31
0.0
  0
LINE
  5
14B
330
1F
100
AcDbEntity
  8
0
  6
HIDDEN
 62
     7
370
    18
100
AcDbLine
 10
570.0076608001
 20
377.7742059829
 30
0.0
 11
529.7025742724
 21
354.5065747959
 31
0.0
  0
LINE
  5
14C
330
1F
100
AcDbEntity
  8
0
  6
HIDDEN
 62
     7
370
    18
100
AcDbLine
 10
511.6713513522
 20
478.8156575761
 30
0.0
 11
471.3662648245
 21
455.5480263892
 31
0.0
  0
LINE
  5
14D
330
1F
100
AcDbEntity
  8
0
  6
HIDDEN
 62
     7
370
    18
100
AcDbLine
 10
486.0644576428
 20
429.7428020175
 30
0.0
 11
475.457855925
 21
423.6197411788
 31
0.0
  0
LINE
  5
14E
330
1F
100
AcDbEntity
  8
0
  6
HIDDEN
 62
     7
370
    18
100
AcDbLine
 10
535.7020866682
 20
344.1139884474
 30
0.0
 11
576.0071731959
 21
367.3816196343
 31
0.0
  0
LINE
  5
14F
330
1F
100
AcDbEntity
  8
0
  6
HIDDEN
 62
     7
370
    18
100
AcDbLine
 10
477.3657772204
 20
445.1554400406
 30
0.0
 11
517.670863748
 21
468.4230712276
 31
0.0
  0
LINE
  5
150
330
1F
100
AcDbEntity
  8
0
  6
HIDDEN
 62
     7
370
    18
100
AcDbLine
 10
479.4575308556
 20
416.6913502798
 30
0.0
 11
490.0641325734
 21
422.8144111184
 31
0.0
  0
ENDSEC
  0
SECTION
  2
OBJECTS
  0
DICTIONARY
  5
C
330
0
100
AcDbDictionary
281
     1
  3
ACAD_GROUP
350
D
  3
ACAD_LAYOUT
350
1A
  3
ACAD_MLINESTYLE
350
17
  3
ACAD_PLOTSETTINGS
350
19
  3
ACAD_PLOTSTYLENAME
350
E
  3
ACAD_SCALELIST
350
47
  3
DWGPROPS
350
151
  0
DICTIONARY
  5
D
102
{ACAD_REACTORS
330
C
102
}
330
C
100
AcDbDictionary
281
     1
  0
DICTIONARY
  5
1A
102
{ACAD_REACTORS
330
C
102
}
330
C
100
AcDbDictionary
281
     1
  3
Layout1
350
1E
  3
Layout2
350
26
  3
Model
350
22
  0
DICTIONARY
  5
17
102
{ACAD_REACTORS
330
C
102
}
330
C
100
AcDbDictionary
281
     1
  3
Standard
350
18
  0
DICTIONARY
  5
19
102
{ACAD_REACTORS
330
C
102
}
330
C
100
AcDbDictionary
281
     1
  0
ACDBDICTIONARYWDFLT
  5
E
102
{ACAD_REACTORS
330
C
102
}
330
C
100
AcDbDictionary
281
     1
  3
Normal
350
F
100
AcDbDictionaryWithDefault
340
F
  0
DICTIONARY
  5
47
102
{ACAD_REACTORS
330
C
102
}
330
C
100
AcDbDictionary
281
     1
  3
A0
350
48
  3
A1
350
49
  3
A2
350
4A
  3
A3
350
4B
  3
A4
350
4C
  3
A5
350
4D
  3
A6
350
4E
  3
A7
350
4F
  3
A8
350
50
  3
A9
350
51
  3
B0
350
52
  3
B1
350
53
  3
B2
350
54
  3
B3
350
55
  3
B4
350
56
  3
B5
350
57
  3
B6
350
58
  0
XRECORD
  5
151
102
{ACAD_REACTORS
330
C
102
}
330
C
100
AcDbXrecord
280
     1
  1
DWGPROPS COOKIE
  2

  3

  4

  6

  7

  8
imaizumi
  9

300
=
301
=
302
=
303
=
304
=
305
=
306
=
307
=
308
=
309
=
 40
0.0
 41
2461263.068315683
 42
2461263.068315984
  1

 90
        0
  0
LAYOUT
  5
1E
102
{ACAD_REACTORS
330
1A
102
}
330
1A
100
AcDbPlotSettings
  1

  2
none_device
  4

  6

 40
0.0
 41
0.0
 42
0.0
 43
0.0
 44
0.0
 45
0.0
 46
0.0
 47
0.0
 48
0.0
 49
0.0
140
0.0
141
0.0
142
1.0
143
1.0
 70
   688
 72
     1
 73
     0
 74
     5
  7

 75
    16
147
1.0
148
0.0
149
0.0
100
AcDbLayout
  1
Layout1
 70
     1
 71
     1
 10
0.0
 20
0.0
 11
420.0
 21
297.0
 12
0.0
 22
0.0
 32
0.0
 14
1.0000000000E+20
 24
1.0000000000E+20
 34
1.0000000000E+20
 15
-1.0000000000E+20
 25
-1.0000000000E+20
 35
-1.0000000000E+20
146
0.0
 13
0.0
 23
0.0
 33
0.0
 16
1.0
 26
0.0
 36
0.0
 17
0.0
 27
1.0
 37
0.0
 76
     0
330
1B
  0
LAYOUT
  5
26
102
{ACAD_REACTORS
330
1A
102
}
330
1A
100
AcDbPlotSettings
  1

  2
none_device
  4

  6

 40
0.0
 41
0.0
 42
0.0
 43
0.0
 44
0.0
 45
0.0
 46
0.0
 47
0.0
 48
0.0
 49
0.0
140
0.0
141
0.0
142
1.0
143
1.0
 70
   688
 72
     1
 73
     0
 74
     5
  7

 75
    16
147
1.0
148
0.0
149
0.0
100
AcDbLayout
  1
Layout2
 70
     1
 71
     2
 10
0.0
 20
0.0
 11
0.0
 21
0.0
 12
0.0
 22
0.0
 32
0.0
 14
0.0
 24
0.0
 34
0.0
 15
0.0
 25
0.0
 35
0.0
146
0.0
 13
0.0
 23
0.0
 33
0.0
 16
1.0
 26
0.0
 36
0.0
 17
0.0
 27
1.0
 37
0.0
 76
     0
330
23
  0
LAYOUT
  5
22
102
{ACAD_REACTORS
330
1A
102
}
330
1A
100
AcDbPlotSettings
  1

  2
none_device
  4
Letter_(8.50_x_11.00_Inches)
  6

 40
6.35
 41
6.35
 42
6.35000508
 43
6.35000508
 44
215.9
 45
279.4
 46
0.0
 47
0.0
 48
0.0
 49
0.0
140
0.0
141
0.0
142
1.0
143
1.0
 70
  1712
 72
     1
 73
     0
 74
     0
  7

 75
     0
147
1.0
148
0.0
149
0.0
100
AcDbLayout
  1
Model
 70
     1
 71
     0
 10
0.0
 20
0.0
 11
841.0
 21
594.0
 12
0.0
 22
0.0
 32
0.0
 14
0.0
 24
0.0
 34
0.0
 15
841.0
 25
594.0
 35
0.0
146
0.0
 13
0.0
 23
0.0
 33
0.0
 16
1.0
 26
0.0
 36
0.0
 17
0.0
 27
1.0
 37
0.0
 76
     0
330
1F
331
29
  0
MLINESTYLE
  5
18
102
{ACAD_REACTORS
330
17
102
}
330
17
100
AcDbMlineStyle
  2
Standard
 70
     0
  3

 62
   256
 51
90.0
 52
90.0
 71
     2
 49
0.5
 62
   256
  6
BYLAYER
 49
-0.5
 62
   256
  6
BYLAYER
  0
ACDBPLACEHOLDER
  5
F
102
{ACAD_REACTORS
330
E
102
}
330
E
  0
SCALE
  5
48
102
{ACAD_REACTORS
330
47
102
}
330
47
100
AcDbScale
 70
     0
300
1:1
140
1.0
141
1.0
290
     1
  0
SCALE
  5
49
102
{ACAD_REACTORS
330
47
102
}
330
47
100
AcDbScale
 70
     0
300
1:2
140
1.0
141
2.0
290
     0
  0
SCALE
  5
4A
102
{ACAD_REACTORS
330
47
102
}
330
47
100
AcDbScale
 70
     0
300
1:4
140
1.0
141
4.0
290
     0
  0
SCALE
  5
4B
102
{ACAD_REACTORS
330
47
102
}
330
47
100
AcDbScale
 70
     0
300
1:5
140
1.0
141
5.0
290
     0
  0
SCALE
  5
4C
102
{ACAD_REACTORS
330
47
102
}
330
47
100
AcDbScale
 70
     0
300
1:8
140
1.0
141
8.0
290
     0
  0
SCALE
  5
4D
102
{ACAD_REACTORS
330
47
102
}
330
47
100
AcDbScale
 70
     0
300
1:10
140
1.0
141
10.0
290
     0
  0
SCALE
  5
4E
102
{ACAD_REACTORS
330
47
102
}
330
47
100
AcDbScale
 70
     0
300
1:16
140
1.0
141
16.0
290
     0
  0
SCALE
  5
4F
102
{ACAD_REACTORS
330
47
102
}
330
47
100
AcDbScale
 70
     0
300
1:20
140
1.0
141
20.0
290
     0
  0
SCALE
  5
50
102
{ACAD_REACTORS
330
47
102
}
330
47
100
AcDbScale
 70
     0
300
1:30
140
1.0
141
30.0
290
     0
  0
SCALE
  5
51
102
{ACAD_REACTORS
330
47
102
}
330
47
100
AcDbScale
 70
     0
300
1:40
140
1.0
141
40.0
290
     0
  0
SCALE
  5
52
102
{ACAD_REACTORS
330
47
102
}
330
47
100
AcDbScale
 70
     0
300
1:50
140
1.0
141
50.0
290
     0
  0
SCALE
  5
53
102
{ACAD_REACTORS
330
47
102
}
330
47
100
AcDbScale
 70
     0
300
1:100
140
1.0
141
100.0
290
     0
  0
SCALE
  5
54
102
{ACAD_REACTORS
330
47
102
}
330
47
100
AcDbScale
 70
     0
300
2:1
140
2.0
141
1.0
290
     0
  0
SCALE
  5
55
102
{ACAD_REACTORS
330
47
102
}
330
47
100
AcDbScale
 70
     0
300
4:1
140
4.0
141
1.0
290
     0
  0
SCALE
  5
56
102
{ACAD_REACTORS
330
47
102
}
330
47
100
AcDbScale
 70
     0
300
8:1
140
8.0
141
1.0
290
     0
  0
SCALE
  5
57
102
{ACAD_REACTORS
330
47
102
}
330
47
100
AcDbScale
 70
     0
300
10:1
140
10.0
141
1.0
290
     0
  0
SCALE
  5
58
102
{ACAD_REACTORS
330
47
102
}
330
47
100
AcDbScale
 70
     0
300
100:1
140
100.0
141
1.0
290
     0
  0
ENDSEC
  0
EOF
