  0
SECTION
  2
HEADER
  9
$ACADVER
  1
AC1015
  9
$ACADMAINTVER
 70
6
  9
$DWGCODEPAGE
  3
ANSI_932
  9
$INSBASE
 10
0.0
 20
0.0
 30
0.0
  9
$EXTMIN
 10
1e+20
 20
1e+20
 30
1e+20
  9
$EXTMAX
 10
-1e+20
 20
-1e+20
 30
-1e+20
  9
$LIMMIN
 10
0.0
 20
0.0
  9
$LIMMAX
 10
420.0
 20
297.0
  9
$ORTHOMODE
 70
0
  9
$REGENMODE
 70
1
  9
$FILLMODE
 70
1
  9
$QTEXTMODE
 70
0
  9
$MIRRTEXT
 70
1
  9
$LTSCALE
 40
8.4
  9
$ATTMODE
 70
1
  9
$TEXTSIZE
 40
2.5
  9
$TRACEWID
 40
1.0
  9
$TEXTSTYLE
  7
Standard
  9
$CLAYER
  8
0
  9
$CELTYPE
  6
ByLayer
  9
$CECOLOR
 62
256
  9
$CELTSCALE
 40
1.0
  9
$DISPSILH
 70
0
  9
$DIMSCALE
 40
1.0
  9
$DIMASZ
 40
2.5
  9
$DIMEXO
 40
0.625
  9
$DIMDLI
 40
3.75
  9
$DIMRND
 40
0.0
  9
$DIMDLE
 40
0.0
  9
$DIMEXE
 40
1.25
  9
$DIMTP
 40
0.0
  9
$DIMTM
 40
0.0
  9
$DIMTXT
 40
2.5
  9
$DIMCEN
 40
2.5
  9
$DIMTSZ
 40
0.0
  9
$DIMTOL
 70
0
  9
$DIMLIM
 70
0
  9
$DIMTIH
 70
0
  9
$DIMTOH
 70
0
  9
$DIMSE1
 70
0
  9
$DIMSE2
 70
0
  9
$DIMTAD
 70
1
  9
$DIMZIN
 70
8
  9
$DIMBLK
  1

  9
$DIMASO
 70
1
  9
$DIMSHO
 70
1
  9
$DIMPOST
  1

  9
$DIMAPOST
  1

  9
$DIMALT
 70
0
  9
$DIMALTD
 70
3
  9
$DIMALTF
 40
0.03937007874
  9
$DIMLFAC
 40
1.0
  9
$DIMTOFL
 70
1
  9
$DIMTVP
 40
0.0
  9
$DIMTIX
 70
0
  9
$DIMSOXD
 70
0
  9
$DIMSAH
 70
0
  9
$DIMBLK1
  1

  9
$DIMBLK2
  1

  9
$DIMSTYLE
  2
ISO-25
  9
$DIMCLRD
 70
0
  9
$DIMCLRE
 70
0
  9
$DIMCLRT
 70
0
  9
$DIMTFAC
 40
1.0
  9
$DIMGAP
 40
0.625
  9
$DIMJUST
 70
0
  9
$DIMSD1
 70
0
  9
$DIMSD2
 70
0
  9
$DIMTOLJ
 70
0
  9
$DIMTZIN
 70
8
  9
$DIMALTZ
 70
0
  9
$DIMALTTZ
 70
0
  9
$DIMUPT
 70
0
  9
$DIMDEC
 70
2
  9
$DIMTDEC
 70
2
  9
$DIMALTU
 70
2
  9
$DIMALTTD
 70
3
  9
$DIMTXSTY
  7
Standard
  9
$DIMAUNIT
 70
0
  9
$DIMADEC
 70
0
  9
$DIMALTRND
 40
0.0
  9
$DIMAZIN
 70
0
  9
$DIMDSEP
 70
44
  9
$DIMATFIT
 70
3
  9
$DIMFRAC
 70
0
  9
$DIMLDRBLK
  1

  9
$DIMLUNIT
 70
2
  9
$DIMLWD
 70
-2
  9
$DIMLWE
 70
-2
  9
$DIMTMOVE
 70
0
  9
$LUNITS
 70
2
  9
$LUPREC
 70
4
  9
$SKETCHINC
 40
1.0
  9
$FILLETRAD
 40
10.0
  9
$AUNITS
 70
0
  9
$AUPREC
 70
2
  9
$MENU
  1
.
  9
$ELEVATION
 40
0.0
  9
$PELEVATION
 40
0.0
  9
$THICKNESS
 40
0.0
  9
$LIMCHECK
 70
0
  9
$CHAMFERA
 40
0.0
  9
$CHAMFERB
 40
0.0
  9
$CHAMFERC
 40
0.0
  9
$CHAMFERD
 40
0.0
  9
$SKPOLY
 70
0
  9
$TDCREATE
 40
2461263.5324652777
  9
$TDUCREATE
 40
2458532.153996898
  9
$TDUPDATE
 40
2461263.5324652777
  9
$TDUUPDATE
 40
2458532.1544311
  9
$TDINDWG
 40
0.0
  9
$TDUSRTIMER
 40
0.0
  9
$USRTIMER
 70
1
  9
$ANGBASE
 50
0.0
  9
$ANGDIR
 70
0
  9
$PDMODE
 70
0
  9
$PDSIZE
 40
0.0
  9
$PLINEWID
 40
0.0
  9
$SPLFRAME
 70
0
  9
$SPLINETYPE
 70
6
  9
$SPLINESEGS
 70
8
  9
$HANDSEED
  5
23F
  9
$SURFTAB1
 70
6
  9
$SURFTAB2
 70
6
  9
$SURFTYPE
 70
6
  9
$SURFU
 70
6
  9
$SURFV
 70
6
  9
$UCSBASE
  2

  9
$UCSNAME
  2

  9
$UCSORG
 10
0.0
 20
0.0
 30
0.0
  9
$UCSXDIR
 10
1.0
 20
0.0
 30
0.0
  9
$UCSYDIR
 10
0.0
 20
1.0
 30
0.0
  9
$UCSORTHOREF
  2

  9
$UCSORTHOVIEW
 70
0
  9
$UCSORGTOP
 10
0.0
 20
0.0
 30
0.0
  9
$UCSORGBOTTOM
 10
0.0
 20
0.0
 30
0.0
  9
$UCSORGLEFT
 10
0.0
 20
0.0
 30
0.0
  9
$UCSORGRIGHT
 10
0.0
 20
0.0
 30
0.0
  9
$UCSORGFRONT
 10
0.0
 20
0.0
 30
0.0
  9
$UCSORGBACK
 10
0.0
 20
0.0
 30
0.0
  9
$PUCSBASE
  2

  9
$PUCSNAME
  2

  9
$PUCSORG
 10
0.0
 20
0.0
 30
0.0
  9
$PUCSXDIR
 10
1.0
 20
0.0
 30
0.0
  9
$PUCSYDIR
 10
0.0
 20
1.0
 30
0.0
  9
$PUCSORTHOREF
  2

  9
$PUCSORTHOVIEW
 70
0
  9
$PUCSORGTOP
 10
0.0
 20
0.0
 30
0.0
  9
$PUCSORGBOTTOM
 10
0.0
 20
0.0
 30
0.0
  9
$PUCSORGLEFT
 10
0.0
 20
0.0
 30
0.0
  9
$PUCSORGRIGHT
 10
0.0
 20
0.0
 30
0.0
  9
$PUCSORGFRONT
 10
0.0
 20
0.0
 30
0.0
  9
$PUCSORGBACK
 10
0.0
 20
0.0
 30
0.0
  9
$USERI1
 70
0
  9
$USERI2
 70
0
  9
$USERI3
 70
0
  9
$USERI4
 70
0
  9
$USERI5
 70
0
  9
$USERR1
 40
0.0
  9
$USERR2
 40
0.0
  9
$USERR3
 40
0.0
  9
$USERR4
 40
0.0
  9
$USERR5
 40
0.0
  9
$WORLDVIEW
 70
1
  9
$SHADEDGE
 70
3
  9
$SHADEDIF
 70
70
  9
$TILEMODE
 70
1
  9
$MAXACTVP
 70
64
  9
$PINSBASE
 10
0.0
 20
0.0
 30
0.0
  9
$PLIMCHECK
 70
0
  9
$PEXTMIN
 10
1e+20
 20
1e+20
 30
1e+20
  9
$PEXTMAX
 10
-1e+20
 20
-1e+20
 30
-1e+20
  9
$PLIMMIN
 10
0.0
 20
0.0
  9
$PLIMMAX
 10
420.0
 20
297.0
  9
$UNITMODE
 70
0
  9
$VISRETAIN
 70
1
  9
$PLINEGEN
 70
0
  9
$PSLTSCALE
 70
1
  9
$TREEDEPTH
 70
3020
  9
$CMLSTYLE
  2
Standard
  9
$CMLJUST
 70
0
  9
$CMLSCALE
 40
20.0
  9
$PROXYGRAPHICS
 70
1
  9
$MEASUREMENT
 70
1
  9
$CELWEIGHT
370
-1
  9
$ENDCAPS
280
0
  9
$JOINSTYLE
280
0
  9
$LWDISPLAY
290
0
  9
$INSUNITS
 70
4
  9
$HYPERLINKBASE
  1

  9
$STYLESHEET
  1

  9
$XEDIT
290
1
  9
$CEPSNTYPE
380
0
  9
$PSTYLEMODE
290
1
  9
$FINGERPRINTGUID
  2
{CFE3CBFC-70A5-4945-8F60-F4F0D84321E6}
  9
$VERSIONGUID
  2
{19A7C697-B8CB-4546-99C8-064FCDD86F3B}
  9
$EXTNAMES
290
1
  9
$PSVPSCALE
 40
0.0
  9
$OLESTARTUP
290
0
  0
ENDSEC
  0
SECTION
  2
CLASSES
  0
CLASS
  1
ACDBDICTIONARYWDFLT
  2
AcDbDictionaryWithDefault
  3
ObjectDBX Classes
 90
0
280
0
281
0
  0
CLASS
  1
SUN
  2
AcDbSun
  3
SCENEOE
 90
1153
280
0
281
0
  0
CLASS
  1
VISUALSTYLE
  2
AcDbVisualStyle
  3
ObjectDBX Classes
 90
4095
280
0
281
0
  0
CLASS
  1
MATERIAL
  2
AcDbMaterial
  3
ObjectDBX Classes
 90
1153
280
0
281
0
  0
CLASS
  1
SCALE
  2
AcDbScale
  3
ObjectDBX Classes
 90
1153
280
0
281
0
  0
CLASS
  1
TABLESTYLE
  2
AcDbTableStyle
  3
ObjectDBX Classes
 90
4095
280
0
281
0
  0
CLASS
  1
MLEADERSTYLE
  2
AcDbMLeaderStyle
  3
ACDB_MLEADERSTYLE_CLASS
 90
4095
280
0
281
0
  0
CLASS
  1
DICTIONARYVAR
  2
AcDbDictionaryVar
  3
ObjectDBX Classes
 90
0
280
0
281
0
  0
CLASS
  1
CELLSTYLEMAP
  2
AcDbCellStyleMap
  3
ObjectDBX Classes
 90
1152
280
0
281
0
  0
CLASS
  1
MENTALRAYRENDERSETTINGS
  2
AcDbMentalRayRenderSettings
  3
SCENEOE
 90
1024
280
0
281
0
  0
CLASS
  1
ACDBDETAILVIEWSTYLE
  2
AcDbDetailViewStyle
  3
ObjectDBX Classes
 90
1025
280
0
281
0
  0
CLASS
  1
ACDBSECTIONVIEWSTYLE
  2
AcDbSectionViewStyle
  3
ObjectDBX Classes
 90
1025
280
0
281
0
  0
CLASS
  1
RASTERVARIABLES
  2
AcDbRasterVariables
  3
ISM
 90
0
280
0
281
0
  0
CLASS
  1
ACDBPLACEHOLDER
  2
AcDbPlaceHolder
  3
ObjectDBX Classes
 90
0
280
0
281
0
  0
CLASS
  1
LAYOUT
  2
AcDbLayout
  3
ObjectDBX Classes
 90
0
280
0
281
0
  0
ENDSEC
  0
SECTION
  2
TABLES
  0
TABLE
  2
VPORT
  5
8
330
0
100
AcDbSymbolTable
 70
1
  0
VPORT
  5
23
330
8
100
AcDbSymbolTableRecord
100
AcDbViewportTableRecord
  2
*Active
 70
0
 10
0.0
 20
0.0
 11
1.0
 21
1.0
 12
0.0
 22
0.0
 13
0.0
 23
0.0
 14
0.5
 24
0.5
 15
0.5
 25
0.5
 16
0.0
 26
0.0
 36
1.0
 17
0.0
 27
0.0
 37
0.0
 40
1000.0
 41
1.34
 42
50.0
 43
0.0
 44
0.0
 50
0.0
 51
0.0
 71
0
 72
1000
 73
1
 74
3
 75
0
 76
0
 77
0
 78
0
281
0
 65
0
146
0.0
  0
ENDTAB
  0
TABLE
  2
LTYPE
  5
2
330
0
100
AcDbSymbolTable
 70
7
  0
LTYPE
  5
24
330
2
100
AcDbSymbolTableRecord
100
AcDbLinetypeTableRecord
  2
ByBlock
 70
0
  3

 72
65
 73
0
 40
0.0
  0
LTYPE
  5
25
330
2
100
AcDbSymbolTableRecord
100
AcDbLinetypeTableRecord
  2
ByLayer
 70
0
  3

 72
65
 73
0
 40
0.0
  0
LTYPE
  5
26
330
2
100
AcDbSymbolTableRecord
100
AcDbLinetypeTableRecord
  2
Continuous
 70
0
  3

 72
65
 73
0
 40
0.0
  0
LTYPE
  5
122
330
2
100
AcDbSymbolTableRecord
100
AcDbLinetypeTableRecord
  2
DASHDOT
 70
0
  3
__ . __ . __ . __ . __ . __ . __ . __ . __ . __
 72
65
 73
4
 40
1.0
 49
0.5
 74
0
 49
-0.25
 74
0
 49
0.0
 74
0
 49
-0.25
 74
0
  0
LTYPE
  5
13B
330
2
100
AcDbSymbolTableRecord
100
AcDbLinetypeTableRecord
  2
HIDDEN
 70
0
  3
Hidden __ __ __ __ __ __ __ __ __ __ __ __ __ __
 72
65
 73
2
 40
1.905
 49
1.27
 74
0
 49
-0.635
 74
0
  0
LTYPE
  5
13C
330
2
100
AcDbSymbolTableRecord
100
AcDbLinetypeTableRecord
  2
PHANTOM
 70
0
  3
Phantom ______  __  __  ______  __  __  ______
 72
65
 73
6
 40
12.7
 49
6.35
 74
0
 49
-1.27
 74
0
 49
1.27
 74
0
 49
-1.27
 74
0
 49
1.27
 74
0
 49
-1.27
 74
0
  0
LTYPE
  5
13D
330
2
100
AcDbSymbolTableRecord
100
AcDbLinetypeTableRecord
  2
CENTER
 70
0
  3
Center ____ _ ____ _ ____ _ ____ _ ____ _ ____
 72
65
 73
4
 40
10.16
 49
6.35
 74
0
 49
-1.27
 74
0
 49
1.27
 74
0
 49
-1.27
 74
0
  0
ENDTAB
  0
TABLE
  2
LAYER
  5
1
330
0
100
AcDbSymbolTable
 70
5
  0
LAYER
  5
27
330
1
100
AcDbSymbolTableRecord
100
AcDbLayerTableRecord
  2
0
 70
0
 62
7
  6
Continuous
370
-3
390
13
  0
LAYER
  5
28
330
1
100
AcDbSymbolTableRecord
100
AcDbLayerTableRecord
  2
Defpoints
 70
0
 62
7
  6
Continuous
290
0
370
-3
390
13
  0
LAYER
  5
11F
330
1
100
AcDbSymbolTableRecord
100
AcDbLayerTableRecord
  2
2
 70
0
 62
7
  6
CONTINUOUS
370
-3
390
30
  0
LAYER
  5
120
330
1
100
AcDbSymbolTableRecord
100
AcDbLayerTableRecord
  2
254
 70
0
 62
7
  6
CONTINUOUS
370
-3
390
30
  0
LAYER
  5
121
330
1
100
AcDbSymbolTableRecord
100
AcDbLayerTableRecord
  2
1
 70
0
 62
7
  6
CONTINUOUS
370
-3
390
30
  0
ENDTAB
  0
TABLE
  2
STYLE
  5
5
330
0
100
AcDbSymbolTable
 70
16
  0
STYLE
  5
29
330
5
100
AcDbSymbolTableRecord
100
AcDbTextStyleTableRecord
  2
Standard
 70
0
 40
0.0
 41
1.0
 50
0.0
 71
0
 42
2.5
  3
txt
  4

  0
STYLE
  5
123
330
5
100
AcDbSymbolTableRecord
100
AcDbTextStyleTableRecord
  2
GMM014
 70
0
 40
0.0
 41
0.82727272727273
 50
0.0
 71
0
 42
1.0
  3
txt.shx
  4
bigfont.shx
  0
STYLE
  5
124
330
5
100
AcDbSymbolTableRecord
100
AcDbTextStyleTableRecord
  2
GMM010
 70
0
 40
0.0
 41
0.7
 50
0.0
 71
0
 42
1.0
  3
txt.shx
  4
bigfont.shx
  0
STYLE
  5
125
330
5
100
AcDbSymbolTableRecord
100
AcDbTextStyleTableRecord
  2
GMM008
 70
0
 40
0.0
 41
0.8
 50
0.0
 71
0
 42
1.0
  3
txt.shx
  4
bigfont.shx
  0
STYLE
  5
126
330
5
100
AcDbSymbolTableRecord
100
AcDbTextStyleTableRecord
  2
GMM015
 70
0
 40
0.0
 41
0.41152263374486
 50
0.0
 71
0
 42
1.0
  3
txt.shx
  4
bigfont.shx
  0
STYLE
  5
127
330
5
100
AcDbSymbolTableRecord
100
AcDbTextStyleTableRecord
  2
GMM001
 70
0
 40
0.0
 41
1.0
 50
0.0
 71
0
 42
1.0
  3
txt.shx
  4
bigfont.shx
  0
STYLE
  5
128
330
5
100
AcDbSymbolTableRecord
100
AcDbTextStyleTableRecord
  2
GMM012
 70
0
 40
0.0
 41
1.0666666666667
 50
0.0
 71
0
 42
1.0
  3
txt.shx
  4
bigfont.shx
  0
STYLE
  5
129
330
5
100
AcDbSymbolTableRecord
100
AcDbTextStyleTableRecord
  2
GMM004
 70
0
 40
0.0
 41
0.66666666666667
 50
0.0
 71
0
 42
1.0
  3
txt.shx
  4
bigfont.shx
  0
STYLE
  5
12A
330
5
100
AcDbSymbolTableRecord
100
AcDbTextStyleTableRecord
  2
STANDARD1
 70
4
 40
0.0
 41
1.0
 50
0.0
 71
0
 42
0.2
  3
TXT
  4
BIGFONT
  0
STYLE
  5
12B
330
5
100
AcDbSymbolTableRecord
100
AcDbTextStyleTableRecord
  2
GMM007
 70
0
 40
0.0
 41
0.625
 50
0.0
 71
0
 42
1.0
  3
txt.shx
  4
bigfont.shx
  0
STYLE
  5
12C
330
5
100
AcDbSymbolTableRecord
100
AcDbTextStyleTableRecord
  2
GMM011
 70
0
 40
0.0
 41
0.95
 50
0.0
 71
0
 42
1.0
  3
txt.shx
  4
bigfont.shx
  0
STYLE
  5
12D
330
5
100
AcDbSymbolTableRecord
100
AcDbTextStyleTableRecord
  2
GMM003
 70
0
 40
0.0
 41
0.91125
 50
0.0
 71
0
 42
1.0
  3
txt.shx
  4
bigfont.shx
  0
STYLE
  5
12E
330
5
100
AcDbSymbolTableRecord
100
AcDbTextStyleTableRecord
  2
GMM009
 70
0
 40
0.0
 41
0.49382716049383
 50
0.0
 71
0
 42
1.0
  3
txt.shx
  4
bigfont.shx
  0
STYLE
  5
1BA
330
5
100
AcDbSymbolTableRecord
100
AcDbTextStyleTableRecord
  2
VF001
 70
0
 40
0.0
 41
0.548697
 50
0.0
 71
0
 42
2.5
  3
txt.shx
  4

  0
STYLE
  5
1BC
330
5
100
AcDbSymbolTableRecord
100
AcDbTextStyleTableRecord
  2
VF002
 70
0
 40
0.0
 41
0.428571
 50
0.0
 71
0
 42
2.5
  3
txt.shx
  4

  0
STYLE
  5
1C7
330
5
100
AcDbSymbolTableRecord
100
AcDbTextStyleTableRecord
  2
VF003
 70
0
 40
0.0
 41
0.75
 50
0.0
 71
0
 42
2.5
  3
txt.shx
  4

  0
ENDTAB
  0
TABLE
  2
VIEW
  5
7
330
0
100
AcDbSymbolTable
 70
0
  0
ENDTAB
  0
TABLE
  2
UCS
  5
6
330
0
100
AcDbSymbolTable
 70
0
  0
ENDTAB
  0
TABLE
  2
APPID
  5
3
330
0
100
AcDbSymbolTable
 70
3
  0
APPID
  5
2A
330
3
100
AcDbSymbolTableRecord
100
AcDbRegAppTableRecord
  2
ACAD
 70
0
  0
APPID
  5
12F
330
3
100
AcDbSymbolTableRecord
100
AcDbRegAppTableRecord
  2
HATCHBACKGROUNDCOLOR
 70
0
  0
APPID
  5
130
330
3
100
AcDbSymbolTableRecord
100
AcDbRegAppTableRecord
  2
EZDXF
 70
0
  0
ENDTAB
  0
TABLE
  2
DIMSTYLE
  5
4
330
0
100
AcDbSymbolTable
 70
9
100
AcDbDimStyleTable
  0
DIMSTYLE
105
2B
330
4
100
AcDbSymbolTableRecord
100
AcDbDimStyleTableRecord
  2
Standard
 70
0
  3

  4

 40
1.0
 41
2.5
 42
0.625
 43
3.75
 44
1.25
 45
0.0
 46
0.0
 47
0.0
 48
0.0
140
2.5
141
2.5
142
0.0
143
0.03937007874
144
1.0
145
0.0
146
1.0
147
0.625
148
0.0
 71
0
 72
0
 73
0
 74
0
 75
0
 76
0
 77
1
 78
8
 79
3
170
0
171
3
172
1
173
0
174
0
175
0
176
0
177
0
178
0
179
2
271
2
272
2
273
2
274
3
275
0
276
0
277
2
278
44
279
0
280
0
281
0
282
0
283
0
284
8
285
0
286
0
288
0
289
3
371
-2
372
-2
  0
DIMSTYLE
105
1CD
330
4
100
AcDbSymbolTableRecord
100
AcDbDimStyleTableRecord
  2
GEN001
 70
0
  3

  4

 40
1.0
 41
3.0
 42
1.0
 43
8.0
 44
2.0
 45
0.0
 46
0.0
 47
0.0
 48
0.0
140
4.0
141
1.0
142
0.0
143
0.03937007874
144
2.0
145
0.0
146
1.0
147
0.5
148
0.0
 71
0
 72
0
 73
0
 74
0
 75
0
 76
0
 77
3
 78
8
 79
3
170
0
171
3
172
1
173
1
174
0
175
0
176
3
177
3
178
7
179
2
271
2
272
2
273
2
274
3
275
0
276
0
277
2
278
46
279
0
280
0
281
0
282
0
283
0
284
8
285
0
286
0
288
0
289
3
340
1C7
343
1C8
344
1C8
371
-2
372
-2
  0
DIMSTYLE
105
1DD
330
4
100
AcDbSymbolTableRecord
100
AcDbDimStyleTableRecord
  2
GEN002
 70
0
  3

  4

 40
1.0
 41
3.0
 42
1.0
 43
8.0
 44
2.0
 45
0.0
 46
0.0
 47
0.0
 48
0.0
140
4.0
141
1.0
142
0.0
143
0.03937007874
144
2.0
145
0.0
146
1.0
147
0.5
148
0.0
 71
0
 72
0
 73
0
 74
0
 75
0
 76
0
 77
3
 78
8
 79
3
170
0
171
3
172
1
173
1
174
0
175
0
176
3
177
3
178
7
179
2
271
2
272
2
273
2
274
3
275
0
276
0
277
2
278
46
279
0
280
0
281
0
282
0
283
0
284
8
285
0
286
0
288
0
289
3
340
1C7
343
1C8
344
1C8
371
-2
372
-2
  0
DIMSTYLE
105
1ED
330
4
100
AcDbSymbolTableRecord
100
AcDbDimStyleTableRecord
  2
GEN003
 70
0
  3

  4

 40
1.0
 41
3.0
 42
1.0
 43
8.0
 44
2.0
 45
0.0
 46
0.0
 47
0.0
 48
0.0
140
4.0
141
1.0
142
0.0
143
0.03937007874
144
2.0
145
0.0
146
1.0
147
0.5
148
0.0
 71
0
 72
0
 73
0
 74
0
 75
0
 76
0
 77
3
 78
8
 79
3
170
0
171
3
172
1
173
1
174
0
175
0
176
3
177
3
178
7
179
2
271
2
272
2
273
2
274
3
275
0
276
0
277
2
278
46
279
0
280
0
281
0
282
0
283
0
284
8
285
0
286
0
288
0
289
3
340
1C7
343
1C8
344
1C8
371
-2
372
-2
  0
DIMSTYLE
105
1FD
330
4
100
AcDbSymbolTableRecord
100
AcDbDimStyleTableRecord
  2
GEN004
 70
0
  3
%%c<>
  4

 40
1.0
 41
3.0
 42
1.0
 43
8.0
 44
2.0
 45
0.0
 46
0.0
 47
0.0
 48
0.0
140
4.0
141
1.0
142
0.0
143
0.03937007874
144
2.0
145
0.0
146
1.0
147
0.5
148
0.0
 71
0
 72
0
 73
0
 74
0
 75
0
 76
0
 77
3
 78
8
 79
3
170
0
171
3
172
1
173
1
174
0
175
0
176
3
177
3
178
7
179
2
271
2
272
2
273
2
274
3
275
0
276
0
277
2
278
46
279
0
280
0
281
0
282
0
283
0
284
8
285
0
286
0
288
0
289
3
340
1C7
343
1C8
344
1C8
371
-2
372
-2
  0
DIMSTYLE
105
20D
330
4
100
AcDbSymbolTableRecord
100
AcDbDimStyleTableRecord
  2
GEN005
 70
0
  3
%%c<>
  4

 40
1.0
 41
3.0
 42
1.0
 43
8.0
 44
2.0
 45
0.0
 46
0.0
 47
0.0
 48
0.0
140
4.0
141
1.0
142
0.0
143
0.03937007874
144
2.0
145
0.0
146
1.0
147
0.5
148
0.0
 71
0
 72
0
 73
0
 74
0
 75
0
 76
0
 77
3
 78
8
 79
3
170
0
171
3
172
1
173
1
174
0
175
0
176
3
177
3
178
7
179
2
271
2
272
2
273
2
274
3
275
0
276
0
277
2
278
46
279
0
280
0
281
0
282
0
283
0
284
8
285
0
286
0
288
0
289
3
340
1C7
343
1C8
344
1C8
371
-2
372
-2
  0
DIMSTYLE
105
21D
330
4
100
AcDbSymbolTableRecord
100
AcDbDimStyleTableRecord
  2
GEN006
 70
0
  3
%%c<>
  4

 40
1.0
 41
3.0
 42
1.0
 43
8.0
 44
2.0
 45
0.0
 46
0.0
 47
0.0
 48
0.0
140
4.0
141
1.0
142
0.0
143
0.03937007874
144
2.0
145
0.0
146
1.0
147
0.5
148
0.0
 71
0
 72
0
 73
0
 74
0
 75
0
 76
0
 77
3
 78
8
 79
3
170
0
171
3
172
1
173
1
174
0
175
0
176
3
177
3
178
7
179
2
271
2
272
2
273
2
274
3
275
0
276
0
277
2
278
46
279
0
280
0
281
0
282
0
283
0
284
8
285
0
286
0
288
0
289
3
340
1C7
343
1C8
344
1C8
371
-2
372
-2
  0
DIMSTYLE
105
22B
330
4
100
AcDbSymbolTableRecord
100
AcDbDimStyleTableRecord
  2
GEN007
 70
0
  3

  4

 40
1.0
 41
3.0
 42
1.0
 43
8.0
 44
2.0
 45
0.0
 46
0.0
 47
0.0
 48
0.0
140
4.0
141
1.0
142
0.0
143
0.03937007874
144
2.0
145
0.0
146
1.0
147
0.5
148
0.0
 71
0
 72
0
 73
0
 74
0
 75
0
 76
0
 77
3
 78
8
 79
3
170
0
171
3
172
1
173
1
174
0
175
0
176
3
177
3
178
7
179
2
271
2
272
2
273
2
274
3
275
0
276
0
277
2
278
46
279
0
280
0
281
0
282
0
283
0
284
8
285
0
286
0
288
0
289
3
340
1C7
343
1C8
344
1C8
371
-2
372
-2
  0
DIMSTYLE
105
23B
330
4
100
AcDbSymbolTableRecord
100
AcDbDimStyleTableRecord
  2
GENLDR
 70
0
  3

  4

 40
1.0
 41
3.0
 42
1.0
 43
8.0
 44
2.0
 45
0.0
 46
0.0
 47
0.0
 48
0.0
140
4.0
141
1.0
142
0.0
143
0.03937007874
144
2.0
145
0.0
146
1.0
147
0.5
148
0.0
 71
0
 72
0
 73
0
 74
0
 75
0
 76
0
 77
3
 78
8
 79
3
170
0
171
3
172
1
173
1
174
0
175
0
176
3
177
3
178
7
179
2
271
2
272
2
273
2
274
3
275
0
276
0
277
2
278
46
279
0
280
0
281
0
282
0
283
0
284
8
285
0
286
0
288
0
289
3
340
1C7
343
1C8
344
1C8
371
-2
372
-2
  0
ENDTAB
  0
TABLE
  2
BLOCK_RECORD
  5
9
330
0
100
AcDbSymbolTable
 70
17
  0
BLOCK_RECORD
  5
17
330
9
100
AcDbSymbolTableRecord
100
AcDbBlockTableRecord
  2
*Model_Space
340
1A
  0
BLOCK_RECORD
  5
1B
330
9
100
AcDbSymbolTableRecord
100
AcDbBlockTableRecord
  2
*Paper_Space
340
1E
  0
BLOCK_RECORD
  5
C8
330
9
100
AcDbSymbolTableRecord
100
AcDbBlockTableRecord
  2
BLOCK004
340
0
  0
BLOCK_RECORD
  5
D6
330
9
100
AcDbSymbolTableRecord
100
AcDbBlockTableRecord
  2
BLOCK005
340
0
  0
BLOCK_RECORD
  5
111
330
9
100
AcDbSymbolTableRecord
100
AcDbBlockTableRecord
  2
BLOCK006
340
0
  0
BLOCK_RECORD
  5
118
330
9
100
AcDbSymbolTableRecord
100
AcDbBlockTableRecord
  2
BLOCK007
340
0
  0
BLOCK_RECORD
  5
193
330
9
100
AcDbSymbolTableRecord
100
AcDbBlockTableRecord
  2
SW_CENTERMARKSYMBOL_0
340
0
  0
BLOCK_RECORD
  5
19E
330
9
100
AcDbSymbolTableRecord
100
AcDbBlockTableRecord
  2
SW_CENTERMARKSYMBOL_1
340
0
  0
BLOCK_RECORD
  5
1A9
330
9
100
AcDbSymbolTableRecord
100
AcDbBlockTableRecord
  2
SW_CENTERMARKSYMBOL_2
340
0
  0
BLOCK_RECORD
  5
1C8
330
9
100
AcDbSymbolTableRecord
100
AcDbBlockTableRecord
  2
_OPEN30
340
0
  0
BLOCK_RECORD
  5
1CF
330
9
100
AcDbSymbolTableRecord
100
AcDbBlockTableRecord
  2
*D1
340
0
  0
BLOCK_RECORD
  5
1DF
330
9
100
AcDbSymbolTableRecord
100
AcDbBlockTableRecord
  2
*D2
340
0
  0
BLOCK_RECORD
  5
1EF
330
9
100
AcDbSymbolTableRecord
100
AcDbBlockTableRecord
  2
*D3
340
0
  0
BLOCK_RECORD
  5
1FF
330
9
100
AcDbSymbolTableRecord
100
AcDbBlockTableRecord
  2
*D4
340
0
  0
BLOCK_RECORD
  5
20F
330
9
100
AcDbSymbolTableRecord
100
AcDbBlockTableRecord
  2
*D5
340
0
  0
BLOCK_RECORD
  5
21F
330
9
100
AcDbSymbolTableRecord
100
AcDbBlockTableRecord
  2
*D6
340
0
  0
BLOCK_RECORD
  5
22D
330
9
100
AcDbSymbolTableRecord
100
AcDbBlockTableRecord
  2
*D7
340
0
  0
ENDTAB
  0
ENDSEC
  0
SECTION
  2
BLOCKS
  0
BLOCK
  5
18
330
17
100
AcDbEntity
  8
0
100
AcDbBlockBegin
  2
*Model_Space
 70
0
 10
0.0
 20
0.0
 30
0.0
  3
*Model_Space
  1

  0
ENDBLK
  5
19
330
17
100
AcDbEntity
  8
0
100
AcDbBlockEnd
  0
BLOCK
  5
1C
330
1B
100
AcDbEntity
  8
0
100
AcDbBlockBegin
  2
*Paper_Space
 70
0
 10
0.0
 20
0.0
 30
0.0
  3
*Paper_Space
  1

  0
ENDBLK
  5
1D
330
1B
100
AcDbEntity
  8
0
100
AcDbBlockEnd
  0
BLOCK
  5
C9
330
C8
100
AcDbEntity
  8
0
100
AcDbBlockBegin
  2
BLOCK004
 70
64
 10
0.0
 20
0.0
 30
0.0
  3
BLOCK004
  1

  0
CIRCLE
  5
CB
330
C8
100
AcDbEntity
  8
2
  6
CONTINUOUS
 62
7
370
20
100
AcDbCircle
 10
170.52102818258
 20
10.197623906063
 30
0.0
 40
2.1782975474943
  0
CIRCLE
  5
CC
330
C8
100
AcDbEntity
  8
2
  6
CONTINUOUS
 62
7
370
20
100
AcDbCircle
 10
170.52102818258
 20
10.197623906063
 30
0.0
 40
1.43691326178
  0
LWPOLYLINE
  5
CD
330
C8
100
AcDbEntity
  8
2
  6
CONTINUOUS
 62
7
370
20
100
AcDbPolyline
 90
4
 70
1
 10
175.06221618808
 20
11.634537167843
 10
180.26350009482
 20
12.375921453557
 10
180.26350009482
 20
8.0193263585682
 10
175.06221618808
 20
8.7607106442827
  0
LINE
  5
CE
330
C8
100
AcDbEntity
  8
2
  6
CONTINUOUS
 62
7
370
20
100
AcDbLine
 10
168.03987259152
 20
10.197623906063
 30
0.0
 11
170.80115164912
 21
10.197623906063
 31
0.0
  0
LINE
  5
CF
330
C8
100
AcDbEntity
  8
2
  6
CONTINUOUS
 62
7
370
20
100
AcDbLine
 10
171.25447468719
 20
10.197623906063
 30
0.0
 11
172.20027039241
 21
10.197623906063
 31
0.0
  0
LINE
  5
D0
330
C8
100
AcDbEntity
  8
2
  6
CONTINUOUS
 62
7
370
20
100
AcDbLine
 10
177.29615748089
 20
10.197623906063
 30
0.0
 11
178.2468966452
 21
10.197623906063
 31
0.0
  0
LINE
  5
D1
330
C8
100
AcDbEntity
  8
2
  6
CONTINUOUS
 62
7
370
20
100
AcDbLine
 10
172.99280424365
 20
10.197623906063
 30
0.0
 11
176.67551000266
 21
10.197623906063
 31
0.0
  0
LINE
  5
D2
330
C8
100
AcDbEntity
  8
2
  6
CONTINUOUS
 62
7
370
20
100
AcDbLine
 10
178.91739616362
 20
10.197623906063
 30
0.0
 11
181.17172699337
 21
10.197623906063
 31
0.0
  0
LINE
  5
D3
330
C8
100
AcDbEntity
  8
2
  6
CONTINUOUS
 62
7
370
20
100
AcDbLine
 10
170.52102818258
 20
10.450588115875
 30
0.0
 11
170.52102818258
 21
7.6687870559977
 31
0.0
  0
LINE
  5
D4
330
C8
100
AcDbEntity
  8
2
  6
CONTINUOUS
 62
7
370
20
100
AcDbLine
 10
170.52102818258
 20
11.879149095869
 30
0.0
 11
170.52102818258
 21
10.974485114891
 31
0.0
  0
LINE
  5
D5
330
C8
100
AcDbEntity
  8
2
  6
CONTINUOUS
 62
7
370
20
100
AcDbLine
 10
170.52102818258
 20
12.751764531148
 30
0.0
 11
170.52102818258
 21
12.118986673823
 31
0.0
  0
ENDBLK
  5
CA
330
C8
100
AcDbEntity
  8
0
100
AcDbBlockEnd
  0
BLOCK
  5
D7
330
D6
100
AcDbEntity
  8
0
100
AcDbBlockBegin
  2
BLOCK005
 70
64
 10
0.0
 20
0.0
 30
0.0
  3
BLOCK005
  1

  0
MTEXT
  5
D9
330
D6
100
AcDbEntity
  8
254
 62
7
370
20
100
AcDbMText
 10
149.40450574984
 20
18.703608255046
 30
0.0
 40
2.3113364687439
 41
0.0
 71
1
  1
{\T1.000000;ÇPÇOÇOÇOÅ`}\P{\T1.000000;ÇQÇOÇOÇO}
  7
GMM010
 44
0.79999984000003
  0
MTEXT
  5
DA
330
D6
100
AcDbEntity
  8
254
 62
7
370
20
100
AcDbMText
 10
140.98345281688
 20
18.703608255046
 30
0.0
 40
2.3113364687439
 41
0.0
 71
1
  1
{\T1.000000;ÇSÇOÇOÅ`}\P{\T1.000000;ÇPÇOÇOÇO}
  7
GMM010
 44
0.79999984000003
  0
MTEXT
  5
DB
330
D6
100
AcDbEntity
  8
254
 62
7
370
20
100
AcDbMText
 10
132.43154947819
 20
18.703608255046
 30
0.0
 40
2.3113364687439
 41
0.0
 71
1
  1
{\T1.000000;ÇPÇQÇOÅ`}\P{\T1.000000;ÇSÇOÇO}
  7
GMM010
 44
0.79999984000003
  0
MTEXT
  5
DC
330
D6
100
AcDbEntity
  8
254
 62
7
370
20
100
AcDbMText
 10
124.12265403585
 20
18.703608255046
 30
0.0
 40
2.3113364687439
 41
0.0
 71
1
  1
{\T1.000000;ÇRÇOÅ@Å`}\P{\T1.000000;ÇPÇQÇO}
  7
GMM010
 44
0.79999984000003
  0
MTEXT
  5
DD
330
D6
100
AcDbEntity
  8
254
 62
7
370
20
100
AcDbMText
 10
115.58944361226
 20
18.703608255046
 30
0.0
 40
2.3113364687439
 41
0.0
 71
1
  1
{\T1.000000;ÇUÅ@Å`}\P{\T1.000000;ÇRÇO}
  7
GMM010
 44
0.79999984000003
  0
MTEXT
  5
DE
330
D6
100
AcDbEntity
  8
254
 62
7
370
20
100
AcDbMText
 10
107.24316233971
 20
18.703608255046
 30
0.0
 40
2.3113364687439
 41
0.0
 71
1
  1
{\T1.000000;ÇRÅ@Å`}\P{\T1.000000;ÇU}
  7
GMM010
 44
0.79999984000003
  0
LINE
  5
DF
330
D6
100
AcDbEntity
  8
2
  6
CONTINUOUS
 62
3
370
9
100
AcDbLine
 10
96.972262552243
 20
20.550214344458
 30
0.0
 11
166.43737735483
 21
20.550214344458
 31
0.0
  0
LINE
  5
E0
330
D6
100
AcDbEntity
  8
2
  6
CONTINUOUS
 62
3
370
9
100
AcDbLine
 10
96.972262552243
 20
13.84845139869
 30
0.0
 11
106.70490438971
 21
13.84845139869
 31
0.0
  0
LINE
  5
E1
330
D6
100
AcDbEntity
  8
2
  6
CONTINUOUS
 62
3
370
9
100
AcDbLine
 10
106.70490438971
 20
13.84845139869
 30
0.0
 11
115.2381148133
 21
13.84845139869
 31
0.0
  0
LINE
  5
E2
330
D6
100
AcDbEntity
  8
2
  6
CONTINUOUS
 62
3
370
9
100
AcDbLine
 10
115.2381148133
 20
13.84845139869
 30
0.0
 11
123.77132523688
 21
13.84845139869
 31
0.0
  0
LINE
  5
E3
330
D6
100
AcDbEntity
  8
2
  6
CONTINUOUS
 62
3
370
9
100
AcDbLine
 10
123.77132523688
 20
13.84845139869
 30
0.0
 11
132.30453566047
 21
13.84845139869
 31
0.0
  0
LINE
  5
E4
330
D6
100
AcDbEntity
  8
2
  6
CONTINUOUS
 62
3
370
9
100
AcDbLine
 10
132.30453566047
 20
13.84845139869
 30
0.0
 11
140.83774608406
 21
13.84845139869
 31
0.0
  0
LINE
  5
E5
330
D6
100
AcDbEntity
  8
2
  6
CONTINUOUS
 62
3
370
9
100
AcDbLine
 10
140.83774608406
 20
13.84845139869
 30
0.0
 11
149.37095650765
 21
13.84845139869
 31
0.0
  0
LINE
  5
E6
330
D6
100
AcDbEntity
  8
2
  6
CONTINUOUS
 62
3
370
9
100
AcDbLine
 10
149.37095650765
 20
13.84845139869
 30
0.0
 11
157.90416693124
 21
13.84845139869
 31
0.0
  0
LINE
  5
E7
330
D6
100
AcDbEntity
  8
2
  6
CONTINUOUS
 62
3
370
9
100
AcDbLine
 10
157.90416693124
 20
13.84845139869
 30
0.0
 11
166.43737735483
 21
13.84845139869
 31
0.0
  0
MTEXT
  5
E8
330
D6
100
AcDbEntity
  8
254
 62
7
370
20
100
AcDbMText
 10
101.75381223092
 20
18.703608255046
 30
0.0
 40
2.3113364687439
 41
0.0
 71
2
  1
{\T1.000000;Å†Çí¥Ç¶}\P{\T1.000000;Å†à»â∫}
  7
GMM011
 44
0.79999984000003
  0
MTEXT
  5
E9
330
D6
100
AcDbEntity
  8
254
 62
7
370
20
100
AcDbMText
 10
157.87528390182
 20
18.703608255046
 30
0.0
 40
2.3113364687439
 41
0.0
 71
1
  1
{\T1.000000;ÇQÇOÇOÇOÅ`}\P{\T1.000000;ÇSÇOÇOÇO}
  7
GMM010
 44
0.79999984000003
  0
LINE
  5
EA
330
D6
100
AcDbEntity
  8
2
  6
CONTINUOUS
 62
3
370
9
100
AcDbLine
 10
157.90416693124
 20
9.424225699345
 30
0.0
 11
166.43737735483
 21
9.424225699345
 31
0.0
  0
LINE
  5
EB
330
D6
100
AcDbEntity
  8
2
  6
CONTINUOUS
 62
3
370
9
100
AcDbLine
 10
149.37095650765
 20
9.424225699345
 30
0.0
 11
157.90416693124
 21
9.424225699345
 31
0.0
  0
LINE
  5
EC
330
D6
100
AcDbEntity
  8
2
  6
CONTINUOUS
 62
3
370
9
100
AcDbLine
 10
140.83774608406
 20
9.424225699345
 30
0.0
 11
149.37095650765
 21
9.424225699345
 31
0.0
  0
LINE
  5
ED
330
D6
100
AcDbEntity
  8
2
  6
CONTINUOUS
 62
3
370
9
100
AcDbLine
 10
132.30453566047
 20
9.424225699345
 30
0.0
 11
140.83774608406
 21
9.424225699345
 31
0.0
  0
LINE
  5
EE
330
D6
100
AcDbEntity
  8
2
  6
CONTINUOUS
 62
3
370
9
100
AcDbLine
 10
123.77132523688
 20
9.424225699345
 30
0.0
 11
132.30453566047
 21
9.424225699345
 31
0.0
  0
LINE
  5
EF
330
D6
100
AcDbEntity
  8
2
  6
CONTINUOUS
 62
3
370
9
100
AcDbLine
 10
115.2381148133
 20
9.424225699345
 30
0.0
 11
123.77132523688
 21
9.424225699345
 31
0.0
  0
LINE
  5
F0
330
D6
100
AcDbEntity
  8
2
  6
CONTINUOUS
 62
3
370
9
100
AcDbLine
 10
106.70490438971
 20
9.424225699345
 30
0.0
 11
115.2381148133
 21
9.424225699345
 31
0.0
  0
LINE
  5
F1
330
D6
100
AcDbEntity
  8
2
  6
CONTINUOUS
 62
3
370
9
100
AcDbLine
 10
96.972262552243
 20
9.424225699345
 30
0.0
 11
106.70490438971
 21
9.424225699345
 31
0.0
  0
LINE
  5
F2
330
D6
100
AcDbEntity
  8
2
  6
CONTINUOUS
 62
3
370
9
100
AcDbLine
 10
106.70490438971
 20
20.550214344458
 30
0.0
 11
106.70490438971
 21
4.9999999999998
 31
0.0
  0
LINE
  5
F3
330
D6
100
AcDbEntity
  8
2
  6
CONTINUOUS
 62
3
370
9
100
AcDbLine
 10
115.2381148133
 20
20.550214344458
 30
0.0
 11
115.2381148133
 21
4.9999999999998
 31
0.0
  0
LINE
  5
F4
330
D6
100
AcDbEntity
  8
2
  6
CONTINUOUS
 62
3
370
9
100
AcDbLine
 10
123.77132523688
 20
20.550214344458
 30
0.0
 11
123.77132523688
 21
4.9999999999998
 31
0.0
  0
LINE
  5
F5
330
D6
100
AcDbEntity
  8
2
  6
CONTINUOUS
 62
3
370
9
100
AcDbLine
 10
132.30453566047
 20
20.550214344458
 30
0.0
 11
132.30453566047
 21
4.9999999999998
 31
0.0
  0
LINE
  5
F6
330
D6
100
AcDbEntity
  8
2
  6
CONTINUOUS
 62
3
370
9
100
AcDbLine
 10
140.83774608406
 20
20.550214344458
 30
0.0
 11
140.83774608406
 21
4.9999999999998
 31
0.0
  0
LINE
  5
F7
330
D6
100
AcDbEntity
  8
2
  6
CONTINUOUS
 62
3
370
9
100
AcDbLine
 10
149.37095650765
 20
20.550214344458
 30
0.0
 11
149.37095650765
 21
4.9999999999998
 31
0.0
  0
LINE
  5
F8
330
D6
100
AcDbEntity
  8
2
  6
CONTINUOUS
 62
3
370
9
100
AcDbLine
 10
157.90416693124
 20
20.550214344458
 30
0.0
 11
157.90416693124
 21
4.9999999999998
 31
0.0
  0
MTEXT
  5
F9
330
D6
100
AcDbEntity
  8
254
 62
7
370
20
100
AcDbMText
 10
110.66396580379
 20
7.3356081976647
 30
0.0
 40
2.3113364687439
 41
0.0
 71
5
  1
%%p\T1.000000;ÇP
  7
GMM010
 44
0.79999984000003
  0
MTEXT
  5
FA
330
D6
100
AcDbEntity
  8
254
 62
7
370
20
100
AcDbMText
 10
119.19717622738
 20
7.3356081976647
 30
0.0
 40
2.3113364687439
 41
0.0
 71
5
  1
%%p\T1.000000;ÇP
  7
GMM010
 44
0.79999984000003
  0
MTEXT
  5
FB
330
D6
100
AcDbEntity
  8
254
 62
7
370
20
100
AcDbMText
 10
127.73038665097
 20
7.3356081976647
 30
0.0
 40
2.3113364687439
 41
0.0
 71
5
  1
%%p\T1.000000;ÇPÅDÇT
  7
GMM010
 44
0.79999984000003
  0
MTEXT
  5
FC
330
D6
100
AcDbEntity
  8
254
 62
7
370
20
100
AcDbMText
 10
136.26359707456
 20
7.3356081976647
 30
0.0
 40
2.3113364687439
 41
0.0
 71
5
  1
%%p\T1.000000;ÇQ
  7
GMM010
 44
0.79999984000003
  0
MTEXT
  5
FD
330
D6
100
AcDbEntity
  8
254
 62
7
370
20
100
AcDbMText
 10
144.79680749815
 20
7.3356081976647
 30
0.0
 40
2.3113364687439
 41
0.0
 71
5
  1
%%p\T1.000000;ÇQÅDÇT
  7
GMM010
 44
0.79999984000003
  0
MTEXT
  5
FE
330
D6
100
AcDbEntity
  8
254
 62
7
370
20
100
AcDbMText
 10
153.33001792174
 20
7.3356081976647
 30
0.0
 40
2.3113364687439
 41
0.0
 71
5
  1
%%p\T1.000000;ÇR
  7
GMM010
 44
0.79999984000003
  0
MTEXT
  5
FF
330
D6
100
AcDbEntity
  8
254
 62
7
370
20
100
AcDbMText
 10
161.12785112996
 20
7.3356081976647
 30
0.0
 40
2.3113364687439
 41
0.0
 71
5
  1
%%p\T1.000000;ÇS
  7
GMM010
 44
0.79999984000003
  0
MTEXT
  5
100
330
D6
100
AcDbEntity
  8
254
 62
7
370
20
100
AcDbMText
 10
110.51442248296
 20
11.634920373638
 30
0.0
 40
2.3113364687439
 41
0.0
 71
5
  1
%%p\T1.000000;ÇOÅDÇP
  7
GMM010
 44
0.79999984000003
  0
MTEXT
  5
101
330
D6
100
AcDbEntity
  8
254
 62
7
370
20
100
AcDbMText
 10
119.04763290655
 20
11.634920373638
 30
0.0
 40
2.3113364687439
 41
0.0
 71
5
  1
%%p\T1.000000;ÇOÅDÇQ
  7
GMM010
 44
0.79999984000003
  0
MTEXT
  5
102
330
D6
100
AcDbEntity
  8
254
 62
7
370
20
100
AcDbMText
 10
127.58084333014
 20
11.634920373638
 30
0.0
 40
2.3113364687439
 41
0.0
 71
5
  1
%%p\T1.000000;ÇOÅDÇR
  7
GMM010
 44
0.79999984000003
  0
MTEXT
  5
103
330
D6
100
AcDbEntity
  8
254
 62
7
370
20
100
AcDbMText
 10
136.11405375372
 20
11.634920373638
 30
0.0
 40
2.3113364687439
 41
0.0
 71
5
  1
%%p\T1.000000;ÇOÅDÇT
  7
GMM010
 44
0.79999984000003
  0
MTEXT
  5
104
330
D6
100
AcDbEntity
  8
254
 62
7
370
20
100
AcDbMText
 10
144.64726417731
 20
11.634920373638
 30
0.0
 40
2.3113364687439
 41
0.0
 71
5
  1
%%p\T1.000000;ÇOÅDÇW
  7
GMM010
 44
0.79999984000003
  0
MTEXT
  5
105
330
D6
100
AcDbEntity
  8
254
 62
7
370
20
100
AcDbMText
 10
153.1804746009
 20
11.634920373638
 30
0.0
 40
2.3113364687439
 41
0.0
 71
5
  1
%%p\T1.000000;ÇPÅDÇQ
  7
GMM010
 44
0.79999984000003
  0
MTEXT
  5
106
330
D6
100
AcDbEntity
  8
254
 62
7
370
20
100
AcDbMText
 10
160.97830780913
 20
11.634920373638
 30
0.0
 40
2.3113364687439
 41
0.0
 71
5
  1
%%p\T1.000000;ÇQ
  7
GMM010
 44
0.79999984000003
  0
MTEXT
  5
107
330
D6
100
AcDbEntity
  8
254
 62
7
370
20
100
AcDbMText
 10
99.896982663893
 20
11.634920373638
 30
0.0
 40
2.5424701156183
 41
0.0
 71
5
  1
\T1.000000;ã@äB
  7
GMM001
 44
0.79999984000003
  0
MTEXT
  5
108
330
D6
100
AcDbEntity
  8
254
 62
7
370
20
100
AcDbMText
 10
99.896982663893
 20
7.3356081976647
 30
0.0
 40
2.5424701156183
 41
0.0
 71
5
  1
\T1.000000;êªä 
  7
GMM001
 44
0.79999984000003
  0
MTEXT
  5
109
330
D6
100
AcDbEntity
  8
254
 62
7
370
20
100
AcDbMText
 10
104.68236893058
 20
11.335833731969
 30
0.0
 40
1.7335023515579
 41
0.0
 71
5
  1
\T1.000000;â¡çH
  7
GMM012
 44
0.79999984000003
  0
MTEXT
  5
10A
330
D6
100
AcDbEntity
  8
254
 62
7
370
20
100
AcDbMText
 10
104.68236893058
 20
6.9116080326244
 30
0.0
 40
1.7335023515579
 41
0.0
 71
5
  1
\T1.000000;â¡çH
  7
GMM012
 44
0.79999984000003
  0
LINE
  5
10B
330
D6
100
AcDbEntity
  8
2
  6
CONTINUOUS
 62
3
370
9
100
AcDbLine
 10
92.759851837957
 20
24.469731335988
 30
0.0
 11
166.43737735483
 21
24.469731335988
 31
0.0
  0
TEXT
  5
10C
330
D6
100
AcDbEntity
  8
254
 62
3
370
9
100
AcDbText
 10
94.70298091284
 20
24.260906217143
 30
0.0
 40
2.3113364687439
  1
àÍî ê°ñ@åˆç∑
  7
STANDARD1
 41
1.0935
100
AcDbText
  0
LINE
  5
10D
330
D6
100
AcDbEntity
  8
254
  6
CONTINUOUS
 62
3
370
9
100
AcDbLine
 10
96.972262552243
 20
4.9999999999998
 30
0.0
 11
96.972262552243
 21
24.469731335988
 31
0.0
  0
MTEXT
  5
10E
330
D6
100
AcDbEntity
  8
254
 62
7
370
20
100
AcDbMText
 10
97.619100225429
 20
22.588396985111
 30
0.0
 40
2.3113364687439
 41
0.0
 71
4
  1
\W0.950000;\T1.000000;ÇiÇhÇr\W0.475000;\T1.000000; \W0.950000;\T1.000000;Ça\W0.475000;\T1.000000; \W0.950000;\T1.000000;ÇOÇSÇOÇTÅ|ÇçÅiíÜãâÅjíPà \W0.475000;\T1.000000;:\W0.950000;\T1.000000;ÇçÇç
  7
GMM011
 44
0.79999984000003
  0
MTEXT
  5
10F
330
D6
100
AcDbEntity
  8
254
 62
3
370
9
100
AcDbMText
 10
93.394501411866
 20
26.559319493178
 30
0.0
 40
2.5424701156183
 41
0.0
 71
4
  1
\T1.000000;ì¡ãLÇ»Ç´äpÇÕéÖñ éÊÇËÅAã˜ÇÕÇqÇOÅDÇTà»â∫ÅAçaâ¡çHÇÃíÍÇqÇÕÇqÇPÅDÇTà»â∫
  7
GMM014
 44
0.79999984000003
  0
LWPOLYLINE
  5
110
330
D6
100
AcDbEntity
  8
2
  6
CONTINUOUS
 62
1
370
15
100
AcDbPolyline
 90
4
 70
1
 10
92.759851837957
 20
4.9999999999998
 10
166.43737735483
 20
4.9999999999998
 10
166.43737735483
 20
28.5895
 10
92.759851837957
 20
28.5895
  0
ENDBLK
  5
D8
330
D6
100
AcDbEntity
  8
0
100
AcDbBlockEnd
  0
BLOCK
  5
112
330
111
100
AcDbEntity
  8
0
100
AcDbBlockBegin
  2
BLOCK006
 70
64
 10
0.0
 20
0.0
 30
0.0
  3
BLOCK006
  1

  0
LINE
  5
114
330
111
100
AcDbEntity
  8
254
  6
CONTINUOUS
 62
1
370
15
100
AcDbLine
 10
11.33285798981
 20
12.029538831528
 30
0.0
 11
6.7003419901737
 21
12.029538831528
 31
0.0
  0
LINE
  5
115
330
111
100
AcDbEntity
  8
254
  6
CONTINUOUS
 62
1
370
15
100
AcDbLine
 10
9.0165999899916
 20
15.967177431219
 30
0.0
 11
11.33285798981
 21
12.029538831528
 31
0.0
  0
LINE
  5
116
330
111
100
AcDbEntity
  8
254
  6
CONTINUOUS
 62
1
370
15
100
AcDbLine
 10
9.0165999899916
 20
15.967177431219
 30
0.0
 11
6.7003419901737
 21
12.029538831528
 31
0.0
  0
MTEXT
  5
117
330
111
100
AcDbEntity
  8
254
 62
7
370
20
100
AcDbMText
 10
9.0165999899916
 20
13.392043537304
 30
0.0
 40
2.8433772321429
 41
0.0
 71
5
  1
\T1.000000;ÇP
  7
GMM001
 44
0.79999984000003
  0
ENDBLK
  5
113
330
111
100
AcDbEntity
  8
0
100
AcDbBlockEnd
  0
BLOCK
  5
119
330
118
100
AcDbEntity
  8
0
100
AcDbBlockBegin
  2
BLOCK007
 70
64
 10
0.0
 20
0.0
 30
0.0
  3
BLOCK007
  1

  0
LINE
  5
11B
330
118
100
AcDbEntity
  8
254
  6
CONTINUOUS
 62
1
370
15
100
AcDbLine
 10
11.33285798981
 20
17.926913831528
 30
0.0
 11
6.7003419901737
 21
17.926913831528
 31
0.0
  0
LINE
  5
11C
330
118
100
AcDbEntity
  8
254
  6
CONTINUOUS
 62
1
370
15
100
AcDbLine
 10
9.0165999899916
 20
21.864552431219
 30
0.0
 11
11.33285798981
 21
17.926913831528
 31
0.0
  0
LINE
  5
11D
330
118
100
AcDbEntity
  8
254
  6
CONTINUOUS
 62
1
370
15
100
AcDbLine
 10
9.0165999899916
 20
21.864552431219
 30
0.0
 11
6.7003419901737
 21
17.926913831528
 31
0.0
  0
MTEXT
  5
11E
330
118
100
AcDbEntity
  8
254
 62
7
370
20
100
AcDbMText
 10
9.0165999899916
 20
19.289418537303
 30
0.0
 40
2.8433772321429
 41
0.0
 71
5
  1
\T1.000000;ÇQ
  7
GMM001
 44
0.79999984000003
  0
ENDBLK
  5
11A
330
118
100
AcDbEntity
  8
0
100
AcDbBlockEnd
  0
BLOCK
  5
194
330
193
100
AcDbEntity
  8
0
100
AcDbBlockBegin
  2
SW_CENTERMARKSYMBOL_0
 70
0
 10
0.0
 20
0.0
 30
0.0
  3
SW_CENTERMARKSYMBOL_0
  1

  0
LINE
  5
196
330
193
100
AcDbEntity
  8
0
  6
Continuous
 62
0
370
18
100
AcDbLine
 10
0.0
 20
0.0
 30
0.0
 11
0.0
 21
2.5
 31
0.0
  0
LINE
  5
197
330
193
100
AcDbEntity
  8
0
  6
Continuous
 62
0
370
18
100
AcDbLine
 10
0.0
 20
0.0
 30
0.0
 11
-2.5
 21
0.0
 31
0.0
  0
LINE
  5
198
330
193
100
AcDbEntity
  8
0
  6
Continuous
 62
0
370
18
100
AcDbLine
 10
0.0
 20
0.0
 30
0.0
 11
0.0
 21
-2.5
 31
0.0
  0
LINE
  5
199
330
193
100
AcDbEntity
  8
0
  6
Continuous
 62
0
370
18
100
AcDbLine
 10
0.0
 20
0.0
 30
0.0
 11
2.5
 21
0.0
 31
0.0
  0
LINE
  5
19A
330
193
100
AcDbEntity
  8
0
  6
Continuous
 62
0
370
18
100
AcDbLine
 10
0.0
 20
5.0
 30
0.0
 11
0.0
 21
6.5
 31
0.0
  0
LINE
  5
19B
330
193
100
AcDbEntity
  8
0
  6
Continuous
 62
0
370
18
100
AcDbLine
 10
-5.0
 20
0.0
 30
0.0
 11
-6.5
 21
0.0
 31
0.0
  0
LINE
  5
19C
330
193
100
AcDbEntity
  8
0
  6
Continuous
 62
0
370
18
100
AcDbLine
 10
0.0
 20
-5.0
 30
0.0
 11
0.0
 21
-6.5
 31
0.0
  0
LINE
  5
19D
330
193
100
AcDbEntity
  8
0
  6
Continuous
 62
0
370
18
100
AcDbLine
 10
5.0
 20
0.0
 30
0.0
 11
6.5
 21
0.0
 31
0.0
  0
ENDBLK
  5
195
330
193
100
AcDbEntity
  8
0
100
AcDbBlockEnd
  0
BLOCK
  5
19F
330
19E
100
AcDbEntity
  8
0
100
AcDbBlockBegin
  2
SW_CENTERMARKSYMBOL_1
 70
0
 10
0.0
 20
0.0
 30
0.0
  3
SW_CENTERMARKSYMBOL_1
  1

  0
LINE
  5
1A1
330
19E
100
AcDbEntity
  8
0
  6
Continuous
 62
0
370
18
100
AcDbLine
 10
0.0
 20
0.0
 30
0.0
 11
0.0
 21
2.5
 31
0.0
  0
LINE
  5
1A2
330
19E
100
AcDbEntity
  8
0
  6
Continuous
 62
0
370
18
100
AcDbLine
 10
0.0
 20
0.0
 30
0.0
 11
-2.5
 21
0.0
 31
0.0
  0
LINE
  5
1A3
330
19E
100
AcDbEntity
  8
0
  6
Continuous
 62
0
370
18
100
AcDbLine
 10
0.0
 20
0.0
 30
0.0
 11
0.0
 21
-2.5
 31
0.0
  0
LINE
  5
1A4
330
19E
100
AcDbEntity
  8
0
  6
Continuous
 62
0
370
18
100
AcDbLine
 10
0.0
 20
0.0
 30
0.0
 11
2.5
 21
0.0
 31
0.0
  0
LINE
  5
1A5
330
19E
100
AcDbEntity
  8
0
  6
Continuous
 62
0
370
18
100
AcDbLine
 10
0.0
 20
5.0
 30
0.0
 11
0.0
 21
6.5
 31
0.0
  0
LINE
  5
1A6
330
19E
100
AcDbEntity
  8
0
  6
Continuous
 62
0
370
18
100
AcDbLine
 10
-5.0
 20
0.0
 30
0.0
 11
-6.5
 21
0.0
 31
0.0
  0
LINE
  5
1A7
330
19E
100
AcDbEntity
  8
0
  6
Continuous
 62
0
370
18
100
AcDbLine
 10
0.0
 20
-5.0
 30
0.0
 11
0.0
 21
-6.5
 31
0.0
  0
LINE
  5
1A8
330
19E
100
AcDbEntity
  8
0
  6
Continuous
 62
0
370
18
100
AcDbLine
 10
5.0
 20
0.0
 30
0.0
 11
6.5
 21
0.0
 31
0.0
  0
ENDBLK
  5
1A0
330
19E
100
AcDbEntity
  8
0
100
AcDbBlockEnd
  0
BLOCK
  5
1AA
330
1A9
100
AcDbEntity
  8
0
100
AcDbBlockBegin
  2
SW_CENTERMARKSYMBOL_2
 70
0
 10
0.0
 20
0.0
 30
0.0
  3
SW_CENTERMARKSYMBOL_2
  1

  0
LINE
  5
1AC
330
1A9
100
AcDbEntity
  8
0
  6
Continuous
 62
0
370
18
100
AcDbLine
 10
0.0
 20
0.0
 30
0.0
 11
0.0
 21
2.5
 31
0.0
  0
LINE
  5
1AD
330
1A9
100
AcDbEntity
  8
0
  6
Continuous
 62
0
370
18
100
AcDbLine
 10
0.0
 20
0.0
 30
0.0
 11
-2.5
 21
0.0
 31
0.0
  0
LINE
  5
1AE
330
1A9
100
AcDbEntity
  8
0
  6
Continuous
 62
0
370
18
100
AcDbLine
 10
0.0
 20
0.0
 30
0.0
 11
0.0
 21
-2.5
 31
0.0
  0
LINE
  5
1AF
330
1A9
100
AcDbEntity
  8
0
  6
Continuous
 62
0
370
18
100
AcDbLine
 10
0.0
 20
0.0
 30
0.0
 11
2.5
 21
0.0
 31
0.0
  0
LINE
  5
1B0
330
1A9
100
AcDbEntity
  8
0
  6
Continuous
 62
0
370
18
100
AcDbLine
 10
0.0
 20
5.0
 30
0.0
 11
0.0
 21
40.0
 31
0.0
  0
LINE
  5
1B1
330
1A9
100
AcDbEntity
  8
0
  6
Continuous
 62
0
370
18
100
AcDbLine
 10
-5.0
 20
0.0
 30
0.0
 11
-40.0
 21
0.0
 31
0.0
  0
LINE
  5
1B2
330
1A9
100
AcDbEntity
  8
0
  6
Continuous
 62
0
370
18
100
AcDbLine
 10
0.0
 20
-5.0
 30
0.0
 11
0.0
 21
-40.0
 31
0.0
  0
LINE
  5
1B3
330
1A9
100
AcDbEntity
  8
0
  6
Continuous
 62
0
370
18
100
AcDbLine
 10
5.0
 20
0.0
 30
0.0
 11
40.0
 21
0.0
 31
0.0
  0
ENDBLK
  5
1AB
330
1A9
100
AcDbEntity
  8
0
100
AcDbBlockEnd
  0
BLOCK
  5
1C9
330
1C8
100
AcDbEntity
  8
0
100
AcDbBlockBegin
  2
_OPEN30
 70
0
 10
0.0
 20
0.0
 30
0.0
  3
_OPEN30
  1

  0
LWPOLYLINE
  5
1CB
330
1C8
100
AcDbEntity
  8
0
  6
BYBLOCK
 62
0
100
AcDbPolyline
 90
3
 70
0
 10
-1.0
 20
0.25881904510252074
 10
0.0
 20
0.0
 10
-1.0
 20
-0.25881904510252074
  0
LINE
  5
1CC
330
1C8
100
AcDbEntity
  8
0
  6
BYBLOCK
 62
0
100
AcDbLine
 10
0.0
 20
0.0
 30
0.0
 11
-1.0
 21
0.0
 31
0.0
  0
ENDBLK
  5
1CA
330
1C8
100
AcDbEntity
  8
0
100
AcDbBlockEnd
  0
BLOCK
  5
1D0
330
1CF
100
AcDbEntity
  8
0
100
AcDbBlockBegin
  2
*D1
 70
1
 10
0.0
 20
0.0
 30
0.0
  3
*D1
  1

  0
LINE
  5
1D2
330
1CF
100
AcDbEntity
  8
0
 62
3
100
AcDbLine
 10
172.17068004088674
 20
106.70399316969075
 30
0.0
 11
172.17068004088674
 21
81.7039931697
 31
0.0
  0
LINE
  5
1D3
330
1CF
100
AcDbEntity
  8
0
 62
3
100
AcDbLine
 10
192.17068004088674
 20
106.70399316969075
 30
0.0
 11
192.17068004088674
 21
81.7039931697
 31
0.0
  0
INSERT
  5
1D4
330
1CF
100
AcDbEntity
  8
1
 62
3
100
AcDbBlockReference
  2
_OPEN30
 10
172.17068004088674
 20
83.7039931697
 30
0.0
 41
3.0
 42
3.0
 50
180.0
  0
INSERT
  5
1D6
330
1CF
100
AcDbEntity
  8
1
 62
3
100
AcDbBlockReference
  2
_OPEN30
 10
192.17068004088674
 20
83.7039931697
 30
0.0
 41
3.0
 42
3.0
  0
LINE
  5
1D8
330
1CF
100
AcDbEntity
  8
0
 62
3
100
AcDbLine
 10
175.17068004088674
 20
83.7039931697
 30
0.0
 11
189.17068004088674
 21
83.7039931697
 31
0.0
  0
MTEXT
  5
1D9
330
1CF
100
AcDbEntity
  8
1
 62
7
100
AcDbMText
 10
182.17068004088674
 20
86.2039931697
 30
0.0
 40
4.0
 71
5
  1
40
  7
VF003
  0
POINT
  5
1DA
330
1CF
100
AcDbEntity
  8
Defpoints
100
AcDbPoint
 10
172.17068004088674
 20
83.7039931697
 30
0.0
  0
POINT
  5
1DB
330
1CF
100
AcDbEntity
  8
Defpoints
100
AcDbPoint
 10
172.17068004088674
 20
107.70399316969075
 30
0.0
  0
POINT
  5
1DC
330
1CF
100
AcDbEntity
  8
Defpoints
100
AcDbPoint
 10
192.17068004088674
 20
107.70399316969075
 30
0.0
  0
ENDBLK
  5
1D1
330
1CF
100
AcDbEntity
  8
0
100
AcDbBlockEnd
  0
BLOCK
  5
1E0
330
1DF
100
AcDbEntity
  8
0
100
AcDbBlockBegin
  2
*D2
 70
1
 10
0.0
 20
0.0
 30
0.0
  3
*D2
  1

  0
LINE
  5
1E2
330
1DF
100
AcDbEntity
  8
0
 62
3
100
AcDbLine
 10
172.17068004088674
 20
106.70399316969075
 30
0.0
 11
172.17068004088674
 21
89.7039931697
 31
0.0
  0
LINE
  5
1E3
330
1DF
100
AcDbEntity
  8
0
 62
3
100
AcDbLine
 10
189.67068004088674
 20
117.20399316969075
 30
0.0
 11
189.67068004088674
 21
89.7039931697
 31
0.0
  0
INSERT
  5
1E4
330
1DF
100
AcDbEntity
  8
1
 62
3
100
AcDbBlockReference
  2
_OPEN30
 10
172.17068004088674
 20
91.7039931697
 30
0.0
 41
3.0
 42
3.0
 50
180.0
  0
INSERT
  5
1E6
330
1DF
100
AcDbEntity
  8
1
 62
3
100
AcDbBlockReference
  2
_OPEN30
 10
189.67068004088674
 20
91.7039931697
 30
0.0
 41
3.0
 42
3.0
  0
LINE
  5
1E8
330
1DF
100
AcDbEntity
  8
0
 62
3
100
AcDbLine
 10
175.17068004088674
 20
91.7039931697
 30
0.0
 11
186.67068004088674
 21
91.7039931697
 31
0.0
  0
MTEXT
  5
1E9
330
1DF
100
AcDbEntity
  8
1
 62
7
100
AcDbMText
 10
180.92068004088674
 20
94.2039931697
 30
0.0
 40
4.0
 71
5
  1
35
  7
VF003
  0
POINT
  5
1EA
330
1DF
100
AcDbEntity
  8
Defpoints
100
AcDbPoint
 10
172.17068004088674
 20
91.7039931697
 30
0.0
  0
POINT
  5
1EB
330
1DF
100
AcDbEntity
  8
Defpoints
100
AcDbPoint
 10
172.17068004088674
 20
107.70399316969075
 30
0.0
  0
POINT
  5
1EC
330
1DF
100
AcDbEntity
  8
Defpoints
100
AcDbPoint
 10
189.67068004088674
 20
118.20399316969075
 30
0.0
  0
ENDBLK
  5
1E1
330
1DF
100
AcDbEntity
  8
0
100
AcDbBlockEnd
  0
BLOCK
  5
1F0
330
1EF
100
AcDbEntity
  8
0
100
AcDbBlockBegin
  2
*D3
 70
1
 10
0.0
 20
0.0
 30
0.0
  3
*D3
  1

  0
LINE
  5
1F2
330
1EF
100
AcDbEntity
  8
0
 62
3
100
AcDbLine
 10
189.67068004088674
 20
117.20399316969075
 30
0.0
 11
189.67068004088674
 21
89.7039931697
 31
0.0
  0
LINE
  5
1F3
330
1EF
100
AcDbEntity
  8
0
 62
3
100
AcDbLine
 10
192.17068004088674
 20
106.70399316969075
 30
0.0
 11
192.17068004088674
 21
89.7039931697
 31
0.0
  0
INSERT
  5
1F4
330
1EF
100
AcDbEntity
  8
1
 62
3
100
AcDbBlockReference
  2
_OPEN30
 10
189.67068004088674
 20
91.7039931697
 30
0.0
 41
3.0
 42
3.0
  0
INSERT
  5
1F6
330
1EF
100
AcDbEntity
  8
1
 62
3
100
AcDbBlockReference
  2
_OPEN30
 10
192.17068004088674
 20
91.7039931697
 30
0.0
 41
3.0
 42
3.0
 50
180.0
  0
LINE
  5
1F8
330
1EF
100
AcDbEntity
  8
0
 62
3
100
AcDbLine
 10
189.67068004088674
 20
91.7039931697
 30
0.0
 11
192.17068004088674
 21
91.7039931697
 31
0.0
  0
MTEXT
  5
1F9
330
1EF
100
AcDbEntity
  8
1
 62
7
100
AcDbMText
 10
190.92068004088674
 20
96.2039931697
 30
0.0
 40
4.0
 71
5
  1
5
  7
VF003
  0
POINT
  5
1FA
330
1EF
100
AcDbEntity
  8
Defpoints
100
AcDbPoint
 10
189.67068004088674
 20
91.7039931697
 30
0.0
  0
POINT
  5
1FB
330
1EF
100
AcDbEntity
  8
Defpoints
100
AcDbPoint
 10
189.67068004088674
 20
118.20399316969075
 30
0.0
  0
POINT
  5
1FC
330
1EF
100
AcDbEntity
  8
Defpoints
100
AcDbPoint
 10
192.17068004088674
 20
107.70399316969075
 30
0.0
  0
ENDBLK
  5
1F1
330
1EF
100
AcDbEntity
  8
0
100
AcDbBlockEnd
  0
BLOCK
  5
200
330
1FF
100
AcDbEntity
  8
0
100
AcDbBlockBegin
  2
*D4
 70
1
 10
0.0
 20
0.0
 30
0.0
  3
*D4
  1

  0
LINE
  5
202
330
1FF
100
AcDbEntity
  8
0
 62
3
100
AcDbLine
 10
171.17068004088674
 20
118.20399316969075
 30
0.0
 11
154.1706800409
 21
118.20399316969075
 31
0.0
  0
LINE
  5
203
330
1FF
100
AcDbEntity
  8
0
 62
3
100
AcDbLine
 10
171.17068004088674
 20
134.70399316969076
 30
0.0
 11
154.1706800409
 21
134.70399316969076
 31
0.0
  0
INSERT
  5
204
330
1FF
100
AcDbEntity
  8
1
 62
3
100
AcDbBlockReference
  2
_OPEN30
 10
156.1706800409
 20
118.20399316969075
 30
0.0
 41
3.0
 42
3.0
 50
270.0
  0
INSERT
  5
206
330
1FF
100
AcDbEntity
  8
1
 62
3
100
AcDbBlockReference
  2
_OPEN30
 10
156.1706800409
 20
134.70399316969076
 30
0.0
 41
3.0
 42
3.0
 50
90.0
  0
LINE
  5
208
330
1FF
100
AcDbEntity
  8
0
 62
3
100
AcDbLine
 10
156.1706800409
 20
121.20399316969075
 30
0.0
 11
156.1706800409
 21
131.70399316969076
 31
0.0
  0
MTEXT
  5
209
330
1FF
100
AcDbEntity
  8
1
 62
7
100
AcDbMText
 10
153.6706800409
 20
126.45399316969076
 30
0.0
 40
4.0
 71
5
  1
%%c33
  7
VF003
 50
90.0
  0
POINT
  5
20A
330
1FF
100
AcDbEntity
  8
Defpoints
100
AcDbPoint
 10
156.1706800409
 20
118.20399316969075
 30
0.0
  0
POINT
  5
20B
330
1FF
100
AcDbEntity
  8
Defpoints
100
AcDbPoint
 10
172.17068004088674
 20
118.20399316969075
 30
0.0
  0
POINT
  5
20C
330
1FF
100
AcDbEntity
  8
Defpoints
100
AcDbPoint
 10
172.17068004088674
 20
134.70399316969076
 30
0.0
  0
ENDBLK
  5
201
330
1FF
100
AcDbEntity
  8
0
100
AcDbBlockEnd
  0
BLOCK
  5
210
330
20F
100
AcDbEntity
  8
0
100
AcDbBlockBegin
  2
*D5
 70
1
 10
0.0
 20
0.0
 30
0.0
  3
*D5
  1

  0
LINE
  5
212
330
20F
100
AcDbEntity
  8
0
 62
3
100
AcDbLine
 10
193.17068004088674
 20
119.95399316969075
 30
0.0
 11
205.1706800409
 21
119.95399316969075
 31
0.0
  0
LINE
  5
213
330
20F
100
AcDbEntity
  8
0
 62
3
100
AcDbLine
 10
193.17068004088674
 20
132.95399316969076
 30
0.0
 11
205.1706800409
 21
132.95399316969076
 31
0.0
  0
INSERT
  5
214
330
20F
100
AcDbEntity
  8
1
 62
3
100
AcDbBlockReference
  2
_OPEN30
 10
203.1706800409
 20
119.95399316969075
 30
0.0
 41
3.0
 42
3.0
 50
270.0
  0
INSERT
  5
216
330
20F
100
AcDbEntity
  8
1
 62
3
100
AcDbBlockReference
  2
_OPEN30
 10
203.1706800409
 20
132.95399316969076
 30
0.0
 41
3.0
 42
3.0
 50
90.0
  0
LINE
  5
218
330
20F
100
AcDbEntity
  8
0
 62
3
100
AcDbLine
 10
203.1706800409
 20
122.95399316969075
 30
0.0
 11
203.1706800409
 21
129.95399316969076
 31
0.0
  0
MTEXT
  5
219
330
20F
100
AcDbEntity
  8
1
 62
7
100
AcDbMText
 10
198.6706800409
 20
126.45399316969076
 30
0.0
 40
4.0
 71
5
  1
%%c26
  7
VF003
 50
90.0
  0
POINT
  5
21A
330
20F
100
AcDbEntity
  8
Defpoints
100
AcDbPoint
 10
203.1706800409
 20
119.95399316969075
 30
0.0
  0
POINT
  5
21B
330
20F
100
AcDbEntity
  8
Defpoints
100
AcDbPoint
 10
192.17068004088674
 20
119.95399316969075
 30
0.0
  0
POINT
  5
21C
330
20F
100
AcDbEntity
  8
Defpoints
100
AcDbPoint
 10
192.17068004088674
 20
132.95399316969076
 30
0.0
  0
ENDBLK
  5
211
330
20F
100
AcDbEntity
  8
0
100
AcDbBlockEnd
  0
BLOCK
  5
220
330
21F
100
AcDbEntity
  8
0
100
AcDbBlockBegin
  2
*D6
 70
1
 10
0.0
 20
0.0
 30
0.0
  3
*D6
  1

  0
INSERT
  5
222
330
21F
100
AcDbEntity
  8
1
 62
3
100
AcDbBlockReference
  2
_OPEN30
 10
242.85910083041858
 20
115.69943498810864
 30
0.0
 41
3.0
 42
3.0
 50
145.00000000000003
  0
INSERT
  5
224
330
21F
100
AcDbEntity
  8
1
 62
3
100
AcDbBlockReference
  2
_OPEN30
 10
212.14089916958136
 20
137.20855135127286
 30
0.0
 41
3.0
 42
3.0
 50
145.00000000000003
  0
LINE
  5
226
330
21F
100
AcDbEntity
  8
0
 62
3
100
AcDbLine
 10
245.31655696328556
 20
113.9787056790555
 30
0.0
 11
214.59835530244834
 21
135.48782204221973
 31
0.0
  0
LINE
  5
227
330
21F
100
AcDbEntity
  8
0
 62
3
100
AcDbLine
 10
245.31655696328556
 20
113.9787056790555
 30
0.0
 11
260.4708697826319
 21
103.36754160656115
 31
0.0
  0
MTEXT
  5
228
330
21F
100
AcDbEntity
  8
1
 62
7
100
AcDbMText
 10
254.5324424749086
 20
110.57760964444304
 30
0.0
 40
4.0
 71
5
  1
%%c75
  7
VF003
 50
325.00000000000006
  0
POINT
  5
229
330
21F
100
AcDbEntity
  8
Defpoints
100
AcDbPoint
 10
227.49999999999997
 20
126.45399316969075
 30
0.0
  0
POINT
  5
22A
330
21F
100
AcDbEntity
  8
Defpoints
100
AcDbPoint
 10
242.85910083041858
 20
115.69943498810864
 30
0.0
  0
ENDBLK
  5
221
330
21F
100
AcDbEntity
  8
0
100
AcDbBlockEnd
  0
BLOCK
  5
22E
330
22D
100
AcDbEntity
  8
0
100
AcDbBlockBegin
  2
*D7
 70
1
 10
0.0
 20
0.0
 30
0.0
  3
*D7
  1

  0
LINE
  5
230
330
22D
100
AcDbEntity
  8
0
 62
3
100
AcDbLine
 10
212.49999999999997
 20
125.45399316969075
 30
0.0
 11
212.49999999999997
 21
89.7039931697
 31
0.0
  0
LINE
  5
231
330
22D
100
AcDbEntity
  8
0
 62
3
100
AcDbLine
 10
242.49999999999997
 20
125.45399316969075
 30
0.0
 11
242.49999999999997
 21
89.7039931697
 31
0.0
  0
INSERT
  5
232
330
22D
100
AcDbEntity
  8
1
 62
3
100
AcDbBlockReference
  2
_OPEN30
 10
212.49999999999997
 20
91.7039931697
 30
0.0
 41
3.0
 42
3.0
 50
180.0
  0
INSERT
  5
234
330
22D
100
AcDbEntity
  8
1
 62
3
100
AcDbBlockReference
  2
_OPEN30
 10
242.49999999999997
 20
91.7039931697
 30
0.0
 41
3.0
 42
3.0
  0
LINE
  5
236
330
22D
100
AcDbEntity
  8
0
 62
3
100
AcDbLine
 10
215.49999999999997
 20
91.7039931697
 30
0.0
 11
239.49999999999997
 21
91.7039931697
 31
0.0
  0
MTEXT
  5
237
330
22D
100
AcDbEntity
  8
1
 62
7
100
AcDbMText
 10
227.49999999999997
 20
94.2039931697
 30
0.0
 40
4.0
 71
5
  1
60
  7
VF003
  0
POINT
  5
238
330
22D
100
AcDbEntity
  8
Defpoints
100
AcDbPoint
 10
212.49999999999997
 20
91.7039931697
 30
0.0
  0
POINT
  5
239
330
22D
100
AcDbEntity
  8
Defpoints
100
AcDbPoint
 10
212.49999999999997
 20
126.45399316969075
 30
0.0
  0
POINT
  5
23A
330
22D
100
AcDbEntity
  8
Defpoints
100
AcDbPoint
 10
242.49999999999997
 20
126.45399316969075
 30
0.0
  0
ENDBLK
  5
22F
330
22D
100
AcDbEntity
  8
0
100
AcDbBlockEnd
  0
ENDSEC
  0
SECTION
  2
ENTITIES
  0
LWPOLYLINE
  5
31
330
17
100
AcDbEntity
  8
1
  6
CONTINUOUS
 62
7
370
20
100
AcDbPolyline
 90
4
 70
1
 10
5.0
 20
292.0
 10
5.0
 20
5.0
 10
415.0
 20
5.0
 10
415.0
 20
292.0
  0
LINE
  5
32
330
17
100
AcDbEntity
  8
254
  6
CONTINUOUS
 62
3
370
9
100
AcDbLine
 10
325.18000713133
 20
4.9999999999998
 30
0.0
 11
325.18000713133
 21
18.122
 31
0.0
  0
LINE
  5
33
330
17
100
AcDbEntity
  8
254
  6
CONTINUOUS
 62
3
370
9
100
AcDbLine
 10
325.18000713133
 20
18.122
 30
0.0
 11
415.0
 21
18.122
 31
0.0
  0
MTEXT
  5
34
330
17
100
AcDbEntity
  8
254
 62
3
370
9
100
AcDbMText
 10
354.47071050214
 20
20.913826357749
 30
0.0
 40
2.916
 41
0.0
 71
5
  1
\T1.500000;ïîïiñºÅiå^éÆÅj
  7
GMM001
 44
0.79999984000003
  0
MTEXT
  5
35
330
17
100
AcDbEntity
  8
254
 62
3
370
9
100
AcDbMText
 10
384.36838887415
 20
20.913826357749
 30
0.0
 40
2.916
 41
0.0
 71
5
  1
\T1.000000;ÉÅÅ[ÉJÅ[
  7
GMM001
 44
0.79999984000003
  0
MTEXT
  5
36
330
17
100
AcDbEntity
  8
254
 62
3
370
9
100
AcDbMText
 10
406.97447618747
 20
20.913826357749
 30
0.0
 40
2.916
 41
0.0
 71
5
  1
\T1.000000;îıçl
  7
GMM001
 44
0.79999984000003
  0
LINE
  5
37
330
17
100
AcDbEntity
  8
254
  6
CONTINUOUS
 62
3
370
9
100
AcDbLine
 10
325.18000713133
 20
23.5895
 30
0.0
 11
415.0
 21
23.5895
 31
0.0
  0
LINE
  5
38
330
17
100
AcDbEntity
  8
254
  6
CONTINUOUS
 62
3
370
9
100
AcDbLine
 10
398.08000713133
 20
18.122
 30
0.0
 11
398.08000713133
 21
23.5895
 31
0.0
  0
LINE
  5
39
330
17
100
AcDbEntity
  8
254
  6
CONTINUOUS
 62
3
370
9
100
AcDbLine
 10
391.51900713133
 20
18.122
 30
0.0
 11
391.51900713133
 21
23.5895
 31
0.0
  0
LINE
  5
3A
330
17
100
AcDbEntity
  8
254
  6
CONTINUOUS
 62
3
370
9
100
AcDbLine
 10
376.21000713133
 20
18.122
 30
0.0
 11
376.21000713133
 21
23.5895
 31
0.0
  0
LINE
  5
3B
330
17
100
AcDbEntity
  8
254
  6
CONTINUOUS
 62
3
370
9
100
AcDbLine
 10
332.47000713133
 20
18.122
 30
0.0
 11
332.47000713133
 21
23.5895
 31
0.0
  0
LINE
  5
3C
330
17
100
AcDbEntity
  8
254
  6
CONTINUOUS
 62
3
370
9
100
AcDbLine
 10
325.18000713133
 20
18.122
 30
0.0
 11
325.18000713133
 21
23.5895
 31
0.0
  0
MTEXT
  5
3D
330
17
100
AcDbEntity
  8
254
 62
3
370
9
100
AcDbMText
 10
325.91897077517
 20
19.561222878301
 30
0.0
 40
2.916
 41
0.0
 71
7
  1
\T1.000000;ïiî‘
  7
GMM001
 44
0.79999984000003
  0
MTEXT
  5
3E
330
17
100
AcDbEntity
  8
254
 62
7
370
20
100
AcDbMText
 10
360.49798976328
 20
11.631430728461
 30
0.0
 40
5.5662694627463
 41
0.0
 71
4
  1
\T1.000000;ÉâÉCÉìÉèÅ|ÉNÉX
  7
GMM001
 44
0.79999984000003
  0
MTEXT
  5
3F
330
17
100
AcDbEntity
  8
254
 62
7
370
20
100
AcDbMText
 10
352.94784324569
 20
12.052597702861
 30
0.0
 40
3.3397616776478
 41
0.0
 71
4
  1
{\T1.000000;äîéÆ}\P{\T1.000000;âÔé–}
  7
GMM001
 44
0.79999984000003
  0
LINE
  5
40
330
17
100
AcDbEntity
  8
254
  6
CONTINUOUS
 62
3
370
9
100
AcDbLine
 10
398.08000713133
 20
23.5895
 30
0.0
 11
398.08000713133
 21
28.5895
 31
0.0
  0
LINE
  5
41
330
17
100
AcDbEntity
  8
254
  6
CONTINUOUS
 62
3
370
9
100
AcDbLine
 10
391.51900713133
 20
23.5895
 30
0.0
 11
391.51900713133
 21
28.5895
 31
0.0
  0
LINE
  5
42
330
17
100
AcDbEntity
  8
254
  6
CONTINUOUS
 62
3
370
9
100
AcDbLine
 10
376.21000713133
 20
23.5895
 30
0.0
 11
376.21000713133
 21
28.5895
 31
0.0
  0
LINE
  5
43
330
17
100
AcDbEntity
  8
254
  6
CONTINUOUS
 62
3
370
9
100
AcDbLine
 10
332.47000713133
 20
23.5895
 30
0.0
 11
332.47000713133
 21
28.5895
 31
0.0
  0
LINE
  5
44
330
17
100
AcDbEntity
  8
254
  6
CONTINUOUS
 62
3
370
9
100
AcDbLine
 10
325.18000713133
 20
23.5895
 30
0.0
 11
325.18000713133
 21
28.5895
 31
0.0
  0
MTEXT
  5
45
330
17
100
AcDbEntity
  8
254
 62
3
370
9
100
AcDbMText
 10
391.83137173292
 20
19.561222878301
 30
0.0
 40
2.916
 41
0.0
 71
7
  1
\T1.000000;å¬êî
  7
GMM001
 44
0.79999984000003
  0
LINE
  5
46
330
17
100
AcDbEntity
  8
1
  6
CONTINUOUS
 62
3
370
9
100
AcDbLine
 10
325.18000713133
 20
25.412
 30
0.0
 11
325.18000713133
 21
4.9999999999998
 31
0.0
  0
MTEXT
  5
47
330
17
100
AcDbEntity
  8
254
 62
3
370
9
100
AcDbMText
 10
319.11745461417
 20
13.591878580434
 30
0.0
 40
2.5274464285714
 41
0.0
 71
7
  1
\T1.000000;REV
  7
GMM004
 44
0.79999984000003
  0
MTEXT
  5
48
330
17
100
AcDbEntity
  8
254
 62
3
370
9
100
AcDbMText
 10
319.11745461417
 20
25.457656387089
 30
0.0
 40
2.5274464285714
 41
0.0
 71
7
  1
\T1.000000;REV
  7
GMM004
 44
0.79999984000003
  0
LINE
  5
49
330
17
100
AcDbEntity
  8
254
  6
CONTINUOUS
 62
3
370
9
100
AcDbLine
 10
317.59766784561
 20
16.794734368391
 30
0.0
 11
317.59766784561
 21
4.9999999999998
 31
0.0
  0
LINE
  5
4A
330
17
100
AcDbEntity
  8
254
  6
CONTINUOUS
 62
3
370
9
100
AcDbLine
 10
317.59766784561
 20
28.589484368391
 30
0.0
 11
317.59766784561
 21
16.79475
 31
0.0
  0
LINE
  5
4B
330
17
100
AcDbEntity
  8
254
  6
CONTINUOUS
 62
3
370
9
100
AcDbLine
 10
317.59766784561
 20
25.472316071428
 30
0.0
 11
325.18000713133
 21
25.472316071428
 31
0.0
  0
LINE
  5
4C
330
17
100
AcDbEntity
  8
254
  6
CONTINUOUS
 62
3
370
9
100
AcDbLine
 10
317.59766784561
 20
13.677566071429
 30
0.0
 11
325.18000713133
 21
13.677566071429
 31
0.0
  0
LINE
  5
4D
330
17
100
AcDbEntity
  8
254
  6
CONTINUOUS
 62
3
370
9
100
AcDbLine
 10
267.71322795736
 20
16.79475
 30
0.0
 11
325.18000713133
 21
16.79475
 31
0.0
  0
TEXT
  5
4E
330
17
100
AcDbEntity
  8
254
 62
3
370
9
100
AcDbText
 10
270.14932182782
 20
14.45637354981
 30
0.0
 40
3.3699285714286
  1
ê}î‘
  7
STANDARD1
 41
0.75
100
AcDbText
  0
LINE
  5
4F
330
17
100
AcDbEntity
  8
254
  6
CONTINUOUS
 62
3
370
9
100
AcDbLine
 10
267.71322795736
 20
4.9999999999998
 30
0.0
 11
267.71322795736
 21
28.5895
 31
0.0
  0
LINE
  5
50
330
17
100
AcDbEntity
  8
1
  6
CONTINUOUS
 62
3
370
9
100
AcDbLine
 10
267.71322795736
 20
28.5895
 30
0.0
 11
267.71322795736
 21
4.9999999999998
 31
0.0
  0
LINE
  5
51
330
17
100
AcDbEntity
  8
254
  6
CONTINUOUS
 62
3
370
9
100
AcDbLine
 10
273.18936188593
 20
4.9999999999998
 30
0.0
 11
273.18936188593
 21
16.79475
 31
0.0
  0
LINE
  5
52
330
17
100
AcDbEntity
  8
254
  6
CONTINUOUS
 62
3
370
9
100
AcDbLine
 10
273.18936188593
 20
16.79475
 30
0.0
 11
273.18936188593
 21
28.5895
 31
0.0
  0
TEXT
  5
53
330
17
100
AcDbEntity
  8
254
 62
3
370
9
100
AcDbText
 10
270.14932182782
 20
27.712778419251
 30
0.0
 40
2.5274464285714
  1
êªçÏî‘çÜ
  7
STANDARD1
100
AcDbText
  0
MTEXT
  5
54
330
17
100
AcDbEntity
  8
254
 62
7
370
20
100
AcDbMText
 10
267.09039456035
 20
6.2412531331843
 30
0.0
 40
4.6226729374878
 41
0.0
 71
9
  1
\T1.000000;ÇãÇá
  7
GMM007
 44
0.79999984000003
  0
LINE
  5
55
330
17
100
AcDbEntity
  8
254
  6
CONTINUOUS
 62
3
370
9
100
AcDbLine
 10
217.16311492467
 20
28.5895
 30
0.0
 11
325.18000713133
 21
28.5895
 31
0.0
  0
LINE
  5
56
330
17
100
AcDbEntity
  8
254
  6
CONTINUOUS
 62
3
370
9
100
AcDbLine
 10
166.43737735483
 20
4.9999999999998
 30
0.0
 11
166.43737735483
 21
12.815804374491
 31
0.0
  0
LINE
  5
57
330
17
100
AcDbEntity
  8
254
  6
CONTINUOUS
 62
3
370
9
100
AcDbLine
 10
166.43737735483
 20
12.815804374491
 30
0.0
 11
166.43737735483
 21
20.631608748982
 31
0.0
  0
LINE
  5
58
330
17
100
AcDbEntity
  8
254
  6
CONTINUOUS
 62
3
370
9
100
AcDbLine
 10
223.30492199768
 20
4.9999999999998
 30
0.0
 11
223.30492199768
 21
28.5895
 31
0.0
  0
LINE
  5
59
330
17
100
AcDbEntity
  8
254
  6
CONTINUOUS
 62
7
370
20
100
AcDbLine
 10
217.82878806911
 20
4.9999999999998
 30
0.0
 11
217.82878806911
 21
28.5895
 31
0.0
  0
LINE
  5
5A
330
17
100
AcDbEntity
  8
254
  6
CONTINUOUS
 62
3
370
9
100
AcDbLine
 10
217.82878806911
 20
4.9999999999998
 30
0.0
 11
217.82878806911
 21
28.5895
 31
0.0
  0
TEXT
  5
5B
330
17
100
AcDbEntity
  8
254
 62
3
370
9
100
AcDbText
 10
220.2355970388
 20
27.408725253101
 30
0.0
 40
2.5274464285714
  1
ïiñº
  7
STANDARD1
100
AcDbText
  0
LINE
  5
5C
330
17
100
AcDbEntity
  8
1
  6
CONTINUOUS
 62
3
370
9
100
AcDbLine
 10
217.82878806911
 20
28.5895
 30
0.0
 11
202.24286842626
 21
28.5895
 31
0.0
  0
LINE
  5
5D
330
17
100
AcDbEntity
  8
254
  6
CONTINUOUS
 62
3
370
9
100
AcDbLine
 10
166.43737735483
 20
20.631608748982
 30
0.0
 11
166.43737735483
 21
28.5895
 31
0.0
  0
LINE
  5
5E
330
17
100
AcDbEntity
  8
1
  6
CONTINUOUS
 62
3
370
9
100
AcDbLine
 10
166.43737735483
 20
28.5895
 30
0.0
 11
202.24286842626
 21
28.5895
 31
0.0
  0
LINE
  5
5F
330
17
100
AcDbEntity
  8
254
  6
CONTINUOUS
 62
3
370
9
100
AcDbLine
 10
217.82878806911
 20
12.863166666667
 30
0.0
 11
267.71322795736
 21
12.863166666667
 31
0.0
  0
LINE
  5
60
330
17
100
AcDbEntity
  8
254
  6
CONTINUOUS
 62
3
370
9
100
AcDbLine
 10
217.82878806911
 20
20.726333333333
 30
0.0
 11
267.71322795736
 21
20.726333333333
 31
0.0
  0
TEXT
  5
61
330
17
100
AcDbEntity
  8
254
 62
3
370
9
100
AcDbText
 10
220.59281442956
 20
11.80382974045
 30
0.0
 40
2.5274464285714
  1
èdó 
  7
STANDARD1
100
AcDbText
  0
TEXT
  5
62
330
17
100
AcDbEntity
  8
254
 62
3
370
9
100
AcDbText
 10
220.63752676512
 20
20.213063918481
 30
0.0
 40
2.5274464285714
  1
ëïíuñº
  7
STANDARD1
100
AcDbText
  0
LINE
  5
63
330
17
100
AcDbEntity
  8
1
  6
CONTINUOUS
 62
3
370
9
100
AcDbLine
 10
92.759851837957
 20
28.5895
 30
0.0
 11
92.759851837957
 21
4.9999999999998
 31
0.0
  0
LINE
  5
64
330
17
100
AcDbEntity
  8
2
  6
CONTINUOUS
 62
3
370
9
100
AcDbLine
 10
166.43737735483
 20
20.726333333333
 30
0.0
 11
182.02329699768
 21
20.726333333333
 31
0.0
  0
TEXT
  5
65
330
17
100
AcDbEntity
  8
254
 62
3
370
9
100
AcDbText
 10
168.38089831337
 20
27.433909723082
 30
0.0
 40
2.5274464285714
  1
é⁄ìx
  7
STANDARD1
100
AcDbText
  0
LINE
  5
66
330
17
100
AcDbEntity
  8
2
  6
CONTINUOUS
 62
3
370
9
100
AcDbLine
 10
166.43737735483
 20
12.863166666667
 30
0.0
 11
182.02329699768
 21
12.863166666667
 31
0.0
  0
MTEXT
  5
67
330
17
100
AcDbEntity
  8
254
 62
7
370
20
100
AcDbMText
 10
176.4152706333
 20
14.58269282434
 30
0.0
 40
4.2124107142857
 41
0.0
 71
8
  1
\T1.000000;Ç`ÇR
  7
GMM008
 44
0.79999984000003
  0
TEXT
  5
68
330
17
100
AcDbEntity
  8
254
 62
3
370
9
100
AcDbText
 10
168.38089831337
 20
19.757672207458
 30
0.0
 40
2.5274464285714
  1
ê}òg
  7
STANDARD1
100
AcDbText
  0
LINE
  5
69
330
17
100
AcDbEntity
  8
254
  6
CONTINUOUS
 62
3
370
9
100
AcDbLine
 10
170.64978806911
 20
28.5895
 30
0.0
 11
170.64978806911
 21
12.863166666667
 31
0.0
  0
INSERT
  5
6A
330
17
100
AcDbEntity
  8
0
100
AcDbBlockReference
  2
BLOCK004
 10
0.0
 20
0.0
 30
0.0
  0
MTEXT
  5
6C
330
17
100
AcDbEntity
  8
254
 62
3
370
9
100
AcDbMText
 10
170.51077147172
 20
5.3410491057923
 30
0.0
 40
1.8490691749951
 41
0.0
 71
7
  1
\T1.000000;ëÊéOäpñ@
  7
GMM001
 44
0.79999984000003
  0
MTEXT
  5
6D
330
17
100
AcDbEntity
  8
254
 62
7
370
20
100
AcDbMText
 10
191.87839303901
 20
6.9539510936227
 30
0.0
 40
4.2124107142857
 41
0.0
 71
8
  1
\T1.000000;ÅñÅñ
  7
GMM008
 44
0.79999984000003
  0
TEXT
  5
6E
330
17
100
AcDbEntity
  8
254
 62
3
370
9
100
AcDbText
 10
184.02331530209
 20
11.916209053108
 30
0.0
 40
2.5274464285714
  1
êRç∏
  7
STANDARD1
100
AcDbText
  0
TEXT
  5
6F
330
17
100
AcDbEntity
  8
254
 62
3
370
9
100
AcDbText
 10
184.08020453162
 20
19.653144268485
 30
0.0
 40
2.5274464285714
  1
çXêV
  7
STANDARD1
100
AcDbText
  0
LINE
  5
70
330
17
100
AcDbEntity
  8
254
  6
CONTINUOUS
 62
3
370
9
100
AcDbLine
 10
197.60921664054
 20
4.9999999999998
 30
0.0
 11
197.60921664054
 21
12.815804374491
 31
0.0
  0
LINE
  5
71
330
17
100
AcDbEntity
  8
254
  6
CONTINUOUS
 62
3
370
9
100
AcDbLine
 10
197.60921664054
 20
12.815804374491
 30
0.0
 11
197.60921664054
 21
20.631608748982
 31
0.0
  0
LINE
  5
72
330
17
100
AcDbEntity
  8
254
  6
CONTINUOUS
 62
3
370
9
100
AcDbLine
 10
186.23570771197
 20
4.9999999999998
 30
0.0
 11
186.23570771197
 21
12.815804374491
 31
0.0
  0
LINE
  5
73
330
17
100
AcDbEntity
  8
254
  6
CONTINUOUS
 62
3
370
9
100
AcDbLine
 10
186.23570771197
 20
12.815804374491
 30
0.0
 11
186.23570771197
 21
20.631608748982
 31
0.0
  0
TEXT
  5
74
330
17
100
AcDbEntity
  8
254
 62
3
370
9
100
AcDbText
 10
183.96642607257
 20
27.532166360389
 30
0.0
 40
2.5274464285714
  1
êªê}
  7
STANDARD1
100
AcDbText
  0
LINE
  5
75
330
17
100
AcDbEntity
  8
254
  6
CONTINUOUS
 62
3
370
9
100
AcDbLine
 10
197.60921664054
 20
20.631608748982
 30
0.0
 11
197.60921664054
 21
28.5895
 31
0.0
  0
LINE
  5
76
330
17
100
AcDbEntity
  8
254
  6
CONTINUOUS
 62
3
370
9
100
AcDbLine
 10
186.23570771197
 20
20.631608748982
 30
0.0
 11
186.23570771197
 21
28.5895
 31
0.0
  0
LINE
  5
77
330
17
100
AcDbEntity
  8
1
  6
CONTINUOUS
 62
3
370
9
100
AcDbLine
 10
182.02329699768
 20
12.863166666667
 30
0.0
 11
217.82878806911
 21
12.863166666667
 31
0.0
  0
LINE
  5
78
330
17
100
AcDbEntity
  8
1
  6
CONTINUOUS
 62
3
370
9
100
AcDbLine
 10
182.02329699768
 20
20.726333333333
 30
0.0
 11
217.82878806911
 21
20.726333333333
 31
0.0
  0
MTEXT
  5
79
330
17
100
AcDbEntity
  8
254
 62
7
370
20
100
AcDbMText
 10
207.70539689736
 20
6.8592265092718
 30
0.0
 40
4.2124107142857
 41
0.0
 71
8
  1
\T1.000000;ÅñÅñÅDÅñÅñÅDÅñÅñ
  7
GMM009
 44
0.79999984000003
  0
LINE
  5
7A
330
17
100
AcDbEntity
  8
254
  6
CONTINUOUS
 62
3
370
9
100
AcDbLine
 10
181.96979638834
 20
12.815804374491
 30
0.0
 11
181.96979638834
 21
20.631608748982
 31
0.0
  0
LINE
  5
7B
330
17
100
AcDbEntity
  8
254
  6
CONTINUOUS
 62
3
370
9
100
AcDbLine
 10
181.96979638834
 20
20.631608748982
 30
0.0
 11
181.96979638834
 21
28.5895
 31
0.0
  0
LINE
  5
7C
330
17
100
AcDbEntity
  8
254
  6
CONTINUOUS
 62
3
370
9
100
AcDbLine
 10
181.96979638834
 20
4.9999999999998
 30
0.0
 11
181.96979638834
 21
12.815804374491
 31
0.0
  0
INSERT
  5
7D
330
17
100
AcDbEntity
  8
0
100
AcDbBlockReference
  2
BLOCK005
 10
0.0
 20
0.0
 30
0.0
  0
POINT
  5
7F
330
17
100
AcDbEntity
  8
1
 62
3
100
AcDbPoint
 10
415.0
 20
4.9999999999998
 30
0.0
  0
LINE
  5
80
330
17
100
AcDbEntity
  8
254
  6
CONTINUOUS
 62
3
370
9
100
AcDbLine
 10
5.0
 20
5.0
 30
0.0
 11
5.0
 21
11.763017397237
 31
0.0
  0
LINE
  5
81
330
17
100
AcDbEntity
  8
254
  6
CONTINUOUS
 62
3
370
9
100
AcDbLine
 10
5.0
 20
11.804
 30
0.0
 11
5.0
 21
18.567017397237
 31
0.0
  0
INSERT
  5
82
330
17
100
AcDbEntity
  8
0
100
AcDbBlockReference
  2
BLOCK006
 10
0.0
 20
0.0
 30
0.0
  0
LINE
  5
84
330
17
100
AcDbEntity
  8
254
  6
CONTINUOUS
 62
3
370
9
100
AcDbLine
 10
12.898270089286
 20
5.0
 30
0.0
 11
12.898270089286
 21
10.861853280869
 31
0.0
  0
LINE
  5
85
330
17
100
AcDbEntity
  8
254
  6
CONTINUOUS
 62
3
370
9
100
AcDbLine
 10
36.593080357143
 20
5.0
 30
0.0
 11
36.593080357143
 21
10.861853280869
 31
0.0
  0
MTEXT
  5
86
330
17
100
AcDbEntity
  8
254
 62
7
370
20
100
AcDbMText
 10
38.413381681514
 20
12.163600656498
 30
0.0
 40
3.1593080357143
 41
0.0
 71
7
  1
\T1.000000;Åñ
  7
GMM008
 44
0.79999984000003
  0
MTEXT
  5
87
330
17
100
AcDbEntity
  8
254
 62
3
370
9
100
AcDbMText
 10
8.9491350446428
 20
6.4071855891086
 30
0.0
 40
3.1593080357143
 41
0.0
 71
8
  1
\T1.000000;ÇqÇdÇu
  7
GMM008
 44
0.79999984000003
  0
MTEXT
  5
88
330
17
100
AcDbEntity
  8
254
 62
3
370
9
100
AcDbMText
 10
17.227619624579
 20
6.4071855891086
 30
0.0
 40
3.1593080357143
 41
0.0
 71
8
  1
\T1.000000;êªê}
  7
GMM008
 44
0.79999984000003
  0
MTEXT
  5
89
330
17
100
AcDbEntity
  8
254
 62
7
370
20
100
AcDbMText
 10
17.1633359375
 20
12.327316601086
 30
0.0
 40
3.1593080357143
 41
0.0
 71
8
  1
\T1.000000;ÅñÅñ
  7
GMM008
 44
0.79999984000003
  0
LINE
  5
8A
330
17
100
AcDbEntity
  8
254
  6
CONTINUOUS
 62
3
370
9
100
AcDbLine
 10
21.428401785714
 20
10.897375
 30
0.0
 11
21.428401785714
 21
16.759228280869
 31
0.0
  0
LINE
  5
8B
330
17
100
AcDbEntity
  8
254
  6
CONTINUOUS
 62
3
370
9
100
AcDbLine
 10
36.593080357143
 20
10.897375
 30
0.0
 11
36.593080357143
 21
16.759228280869
 31
0.0
  0
LINE
  5
8C
330
17
100
AcDbEntity
  8
254
  6
CONTINUOUS
 62
3
370
9
100
AcDbLine
 10
12.898270089286
 20
10.897375
 30
0.0
 11
12.898270089286
 21
16.759228280869
 31
0.0
  0
MTEXT
  5
8D
330
17
100
AcDbEntity
  8
254
 62
3
370
9
100
AcDbMText
 10
43.315724723913
 20
6.4646750653583
 30
0.0
 40
3.1593080357143
 41
0.0
 71
8
  1
\T1.000000;ïœçXì‡óe
  7
GMM008
 44
0.79999984000003
  0
MTEXT
  5
8E
330
17
100
AcDbEntity
  8
254
 62
7
370
20
100
AcDbMText
 10
29.018366611674
 20
12.327316601086
 30
0.0
 40
3.1593080357143
 41
0.0
 71
8
  1
\T1.000000;ÅñÅñÅDÅñÅñÅDÅñÅñ
  7
GMM015
 44
0.79999984000003
  0
MTEXT
  5
8F
330
17
100
AcDbEntity
  8
254
 62
7
370
20
100
AcDbMText
 10
38.413381681514
 20
18.060975656498
 30
0.0
 40
3.1593080357143
 41
0.0
 71
7
  1
\T1.000000;Åñ
  7
GMM008
 44
0.79999984000003
  0
MTEXT
  5
90
330
17
100
AcDbEntity
  8
254
 62
7
370
20
100
AcDbMText
 10
17.1633359375
 20
18.224691601086
 30
0.0
 40
3.1593080357143
 41
0.0
 71
8
  1
\T1.000000;ÅñÅñ
  7
GMM008
 44
0.79999984000003
  0
LINE
  5
91
330
17
100
AcDbEntity
  8
254
  6
CONTINUOUS
 62
3
370
9
100
AcDbLine
 10
21.428401785714
 20
16.79475
 30
0.0
 11
21.428401785714
 21
22.656603280869
 31
0.0
  0
LINE
  5
92
330
17
100
AcDbEntity
  8
254
  6
CONTINUOUS
 62
3
370
9
100
AcDbLine
 10
36.593080357143
 20
16.79475
 30
0.0
 11
36.593080357143
 21
22.656603280869
 31
0.0
  0
LINE
  5
93
330
17
100
AcDbEntity
  8
254
  6
CONTINUOUS
 62
3
370
9
100
AcDbLine
 10
12.898270089286
 20
16.79475
 30
0.0
 11
12.898270089286
 21
22.656603280869
 31
0.0
  0
MTEXT
  5
94
330
17
100
AcDbEntity
  8
254
 62
7
370
20
100
AcDbMText
 10
29.018366611674
 20
18.224691601086
 30
0.0
 40
3.1593080357143
 41
0.0
 71
8
  1
\T1.000000;ÅñÅñÅDÅñÅñÅDÅñÅñ
  7
GMM015
 44
0.79999984000003
  0
LINE
  5
95
330
17
100
AcDbEntity
  8
254
  6
CONTINUOUS
 62
3
370
9
100
AcDbLine
 10
5.0
 20
10.897375
 30
0.0
 11
92.759851837957
 21
10.897375
 31
0.0
  0
LINE
  5
96
330
17
100
AcDbEntity
  8
254
  6
CONTINUOUS
 62
3
370
9
100
AcDbLine
 10
5.0
 20
16.79475
 30
0.0
 11
92.759851837957
 21
16.79475
 31
0.0
  0
LINE
  5
97
330
17
100
AcDbEntity
  8
254
  6
CONTINUOUS
 62
3
370
9
100
AcDbLine
 10
5.0
 20
22.692125
 30
0.0
 11
92.759851837957
 21
22.692125
 31
0.0
  0
MTEXT
  5
98
330
17
100
AcDbEntity
  8
254
 62
7
370
20
100
AcDbMText
 10
38.413381681514
 20
23.958350656497
 30
0.0
 40
3.1593080357143
 41
0.0
 71
7
  1
\T1.000000;Åñ
  7
GMM008
 44
0.79999984000003
  0
MTEXT
  5
99
330
17
100
AcDbEntity
  8
254
 62
7
370
20
100
AcDbMText
 10
17.1633359375
 20
24.122066601086
 30
0.0
 40
3.1593080357143
 41
0.0
 71
8
  1
\T1.000000;ÅñÅñ
  7
GMM008
 44
0.79999984000003
  0
LINE
  5
9A
330
17
100
AcDbEntity
  8
254
  6
CONTINUOUS
 62
3
370
9
100
AcDbLine
 10
21.428401785714
 20
22.692125
 30
0.0
 11
21.428401785714
 21
28.553978280869
 31
0.0
  0
LINE
  5
9B
330
17
100
AcDbEntity
  8
254
  6
CONTINUOUS
 62
3
370
9
100
AcDbLine
 10
36.593080357143
 20
22.692125
 30
0.0
 11
36.593080357143
 21
28.553978280869
 31
0.0
  0
LINE
  5
9C
330
17
100
AcDbEntity
  8
254
  6
CONTINUOUS
 62
3
370
9
100
AcDbLine
 10
12.898270089286
 20
22.692125
 30
0.0
 11
12.898270089286
 21
28.553978280869
 31
0.0
  0
MTEXT
  5
9D
330
17
100
AcDbEntity
  8
254
 62
7
370
20
100
AcDbMText
 10
29.018366611674
 20
24.122066601086
 30
0.0
 40
3.1593080357143
 41
0.0
 71
8
  1
\T1.000000;ÅñÅñÅDÅñÅñÅDÅñÅñ
  7
GMM015
 44
0.79999984000003
  0
LINE
  5
9E
330
17
100
AcDbEntity
  8
254
  6
CONTINUOUS
 62
3
370
9
100
AcDbLine
 10
5.0
 20
28.5895
 30
0.0
 11
92.759851837957
 21
28.5895
 31
0.0
  0
INSERT
  5
9F
330
17
100
AcDbEntity
  8
0
100
AcDbBlockReference
  2
BLOCK007
 10
0.0
 20
0.0
 30
0.0
  0
LINE
  5
A1
330
17
100
AcDbEntity
  8
254
  6
CONTINUOUS
 62
3
370
9
100
AcDbLine
 10
5.0
 20
18.526034794474
 30
0.0
 11
5.0
 21
28.5895
 31
0.0
  0
LINE
  5
A2
330
17
100
AcDbEntity
  8
254
  6
CONTINUOUS
 62
3
370
9
100
AcDbLine
 10
325.18000713133
 20
28.5895
 30
0.0
 11
415.0
 21
28.5895
 31
0.0
  0
MTEXT
  5
A3
330
17
100
AcDbEntity
  8
254
 62
7
370
20
100
AcDbMText
 10
383.87898754983
 20
24.45606176625
 30
0.0
 40
3.2
 41
0.0
 71
8
  1
\T1.000000;Åñ
  7
GMM003
 44
0.79999984000003
  0
CIRCLE
  5
A4
330
17
100
AcDbEntity
  8
254
  6
CONTINUOUS
 62
3
370
9
100
AcDbCircle
 10
19.323632491628
 20
278.8442948685
 30
0.0
 40
10.0
  0
LINE
  5
13E
330
17
100
AcDbEntity
  8
0
  6
Continuous
 62
7
370
25
100
AcDbLine
 10
172.1706800409
 20
107.7039931697
 30
0.0
 11
192.1706800409
 21
107.7039931697
 31
0.0
  0
LINE
  5
13F
330
17
100
AcDbEntity
  8
0
  6
Continuous
 62
7
370
25
100
AcDbLine
 10
192.1706800409
 20
145.2039931697
 30
0.0
 11
172.1706800409
 21
145.2039931697
 31
0.0
  0
LINE
  5
140
330
17
100
AcDbEntity
  8
0
  6
Continuous
 62
7
370
25
100
AcDbLine
 10
172.1706800409
 20
126.4539931697
 30
0.0
 11
172.1706800409
 21
145.2039931697
 31
0.0
  0
LINE
  5
141
330
17
100
AcDbEntity
  8
0
  6
Continuous
 62
7
370
25
100
AcDbLine
 10
172.1706800409
 20
107.7039931697
 30
0.0
 11
172.1706800409
 21
126.4539931697
 31
0.0
  0
LINE
  5
142
330
17
100
AcDbEntity
  8
0
  6
Continuous
 62
7
370
25
100
AcDbLine
 10
192.1706800409
 20
126.4539931697
 30
0.0
 11
192.1706800409
 21
145.2039931697
 31
0.0
  0
LINE
  5
143
330
17
100
AcDbEntity
  8
0
  6
Continuous
 62
7
370
25
100
AcDbLine
 10
192.1706800409
 20
107.7039931697
 30
0.0
 11
192.1706800409
 21
126.4539931697
 31
0.0
  0
LINE
  5
144
330
17
100
AcDbEntity
  8
0
  6
HIDDEN
 62
7
370
18
100
AcDbLine
 10
188.6706800409
 20
129.2039931697
 30
0.0
 11
188.6706800409
 21
123.7039931697
 31
0.0
  0
LINE
  5
145
330
17
100
AcDbEntity
  8
0
  6
HIDDEN
 62
7
370
18
100
AcDbLine
 10
189.6706800409
 20
126.4539931697
 30
0.0
 11
189.6706800409
 21
134.7039931697
 31
0.0
  0
LINE
  5
146
330
17
100
AcDbEntity
  8
0
  6
HIDDEN
 62
7
370
18
100
AcDbLine
 10
189.6706800409
 20
118.2039931697
 30
0.0
 11
189.6706800409
 21
126.4539931697
 31
0.0
  0
LINE
  5
147
330
17
100
AcDbEntity
  8
0
  6
HIDDEN
 62
7
370
18
100
AcDbLine
 10
192.1706800409
 20
129.2039931697
 30
0.0
 11
188.6706800409
 21
129.2039931697
 31
0.0
  0
LINE
  5
148
330
17
100
AcDbEntity
  8
0
  6
HIDDEN
 62
7
370
18
100
AcDbLine
 10
188.6706800409
 20
123.7039931697
 30
0.0
 11
192.1706800409
 21
123.7039931697
 31
0.0
  0
LINE
  5
149
330
17
100
AcDbEntity
  8
0
  6
HIDDEN
 62
7
370
18
100
AcDbLine
 10
188.6706800409
 20
128.4539931697
 30
0.0
 11
172.1706800409
 21
128.4539931697
 31
0.0
  0
LINE
  5
14A
330
17
100
AcDbEntity
  8
0
  6
HIDDEN
 62
7
370
18
100
AcDbLine
 10
172.1706800409
 20
124.4539931697
 30
0.0
 11
188.6706800409
 21
124.4539931697
 31
0.0
  0
LINE
  5
14B
330
17
100
AcDbEntity
  8
0
  6
HIDDEN
 62
7
370
18
100
AcDbLine
 10
172.1706800409
 20
118.2039931697
 30
0.0
 11
189.6706800409
 21
118.2039931697
 31
0.0
  0
LINE
  5
14C
330
17
100
AcDbEntity
  8
0
  6
HIDDEN
 62
7
370
18
100
AcDbLine
 10
189.6706800409
 20
134.7039931697
 30
0.0
 11
172.1706800409
 21
134.7039931697
 31
0.0
  0
LINE
  5
14D
330
17
100
AcDbEntity
  8
0
  6
HIDDEN
 62
7
370
18
100
AcDbLine
 10
189.6706800409
 20
119.9539931697
 30
0.0
 11
192.1706800409
 21
119.9539931697
 31
0.0
  0
LINE
  5
14E
330
17
100
AcDbEntity
  8
0
  6
HIDDEN
 62
7
370
18
100
AcDbLine
 10
192.1706800409
 20
132.9539931697
 30
0.0
 11
189.6706800409
 21
132.9539931697
 31
0.0
  0
LINE
  5
14F
330
17
100
AcDbEntity
  8
0
  6
Continuous
 62
7
370
25
100
AcDbLine
 10
172.1706800409
 20
168.50000000000006
 30
0.0
 11
192.1706800409
 21
168.50000000000006
 31
0.0
  0
LINE
  5
150
330
17
100
AcDbEntity
  8
0
  6
Continuous
 62
7
370
25
100
AcDbLine
 10
192.1706800409
 20
206.00000000000006
 30
0.0
 11
172.1706800409
 21
206.00000000000006
 31
0.0
  0
LINE
  5
151
330
17
100
AcDbEntity
  8
0
  6
Continuous
 62
7
370
25
100
AcDbLine
 10
172.1706800409
 20
168.50000000000006
 30
0.0
 11
172.1706800409
 21
206.00000000000006
 31
0.0
  0
LINE
  5
152
330
17
100
AcDbEntity
  8
0
  6
Continuous
 62
7
370
25
100
AcDbLine
 10
192.1706800409
 20
168.50000000000006
 30
0.0
 11
192.1706800409
 21
206.00000000000006
 31
0.0
  0
LINE
  5
153
330
17
100
AcDbEntity
  8
0
  6
HIDDEN
 62
7
370
18
100
AcDbLine
 10
189.6706800409
 20
179.00000000000006
 30
0.0
 11
189.6706800409
 21
195.50000000000006
 31
0.0
  0
LINE
  5
154
330
17
100
AcDbEntity
  8
0
  6
HIDDEN
 62
7
370
18
100
AcDbLine
 10
188.6706800409
 20
205.00000000000006
 30
0.0
 11
188.6706800409
 21
199.50000000000006
 31
0.0
  0
LINE
  5
155
330
17
100
AcDbEntity
  8
0
  6
HIDDEN
 62
7
370
18
100
AcDbLine
 10
188.6706800409
 20
175.00000000000006
 30
0.0
 11
188.6706800409
 21
169.50000000000006
 31
0.0
  0
LINE
  5
156
330
17
100
AcDbEntity
  8
0
  6
HIDDEN
 62
7
370
18
100
AcDbLine
 10
172.1706800409
 20
179.00000000000006
 30
0.0
 11
189.6706800409
 21
179.00000000000006
 31
0.0
  0
LINE
  5
157
330
17
100
AcDbEntity
  8
0
  6
HIDDEN
 62
7
370
18
100
AcDbLine
 10
189.6706800409
 20
195.50000000000006
 30
0.0
 11
172.1706800409
 21
195.50000000000006
 31
0.0
  0
LINE
  5
158
330
17
100
AcDbEntity
  8
0
  6
HIDDEN
 62
7
370
18
100
AcDbLine
 10
189.6706800409
 20
180.75000000000006
 30
0.0
 11
192.1706800409
 21
180.75000000000006
 31
0.0
  0
LINE
  5
159
330
17
100
AcDbEntity
  8
0
  6
HIDDEN
 62
7
370
18
100
AcDbLine
 10
192.1706800409
 20
193.75000000000006
 30
0.0
 11
189.6706800409
 21
193.75000000000006
 31
0.0
  0
LINE
  5
15A
330
17
100
AcDbEntity
  8
0
  6
HIDDEN
 62
7
370
18
100
AcDbLine
 10
192.1706800409
 20
205.00000000000006
 30
0.0
 11
188.6706800409
 21
205.00000000000006
 31
0.0
  0
LINE
  5
15B
330
17
100
AcDbEntity
  8
0
  6
HIDDEN
 62
7
370
18
100
AcDbLine
 10
188.6706800409
 20
199.50000000000006
 30
0.0
 11
192.1706800409
 21
199.50000000000006
 31
0.0
  0
LINE
  5
15C
330
17
100
AcDbEntity
  8
0
  6
HIDDEN
 62
7
370
18
100
AcDbLine
 10
192.1706800409
 20
175.00000000000006
 30
0.0
 11
188.6706800409
 21
175.00000000000006
 31
0.0
  0
LINE
  5
15D
330
17
100
AcDbEntity
  8
0
  6
HIDDEN
 62
7
370
18
100
AcDbLine
 10
188.6706800409
 20
169.50000000000006
 30
0.0
 11
192.1706800409
 21
169.50000000000006
 31
0.0
  0
LINE
  5
15E
330
17
100
AcDbEntity
  8
0
  6
HIDDEN
 62
7
370
18
100
AcDbLine
 10
188.6706800409
 20
204.25000000000006
 30
0.0
 11
172.1706800409
 21
204.25000000000006
 31
0.0
  0
LINE
  5
15F
330
17
100
AcDbEntity
  8
0
  6
HIDDEN
 62
7
370
18
100
AcDbLine
 10
172.1706800409
 20
200.25000000000006
 30
0.0
 11
188.6706800409
 21
200.25000000000006
 31
0.0
  0
LINE
  5
160
330
17
100
AcDbEntity
  8
0
  6
HIDDEN
 62
7
370
18
100
AcDbLine
 10
188.6706800409
 20
174.25000000000006
 30
0.0
 11
172.1706800409
 21
174.25000000000006
 31
0.0
  0
LINE
  5
161
330
17
100
AcDbEntity
  8
0
  6
HIDDEN
 62
7
370
18
100
AcDbLine
 10
172.1706800409
 20
170.25000000000006
 30
0.0
 11
188.6706800409
 21
170.25000000000006
 31
0.0
  0
CIRCLE
  5
162
330
17
100
AcDbEntity
  8
0
  6
Continuous
 62
7
370
25
100
AcDbCircle
 10
227.5
 20
126.4539931697
 30
0.0
 40
6.5
  0
CIRCLE
  5
163
330
17
100
AcDbEntity
  8
0
  6
Continuous
 62
7
370
25
100
AcDbCircle
 10
227.5
 20
126.4539931697
 30
0.0
 40
18.75
  0
CIRCLE
  5
164
330
17
100
AcDbEntity
  8
0
  6
Continuous
 62
7
370
25
100
AcDbCircle
 10
212.5
 20
126.4539931697
 30
0.0
 40
2.75
  0
CIRCLE
  5
165
330
17
100
AcDbEntity
  8
0
  6
Continuous
 62
7
370
25
100
AcDbCircle
 10
242.5
 20
126.4539931697
 30
0.0
 40
2.7500000000000284
  0
CIRCLE
  5
166
330
17
100
AcDbEntity
  8
0
  6
Continuous
 62
7
370
25
100
AcDbCircle
 10
242.5
 20
126.4539931697
 30
0.0
 40
2.0
  0
CIRCLE
  5
167
330
17
100
AcDbEntity
  8
0
  6
Continuous
 62
7
370
25
100
AcDbCircle
 10
212.5
 20
126.4539931697
 30
0.0
 40
2.0
  0
CIRCLE
  5
168
330
17
100
AcDbEntity
  8
0
  6
HIDDEN
 62
7
370
18
100
AcDbCircle
 10
227.5
 20
126.4539931697
 30
0.0
 40
8.25
  0
INSERT
  5
169
330
17
100
AcDbEntity
  8
0
  6
Continuous
 62
7
370
18
100
AcDbBlockReference
  2
SW_CENTERMARKSYMBOL_0
 10
212.5
 20
126.4539931697
 30
0.0
 41
0.5
 42
0.5
  0
INSERT
  5
16B
330
17
100
AcDbEntity
  8
0
  6
Continuous
 62
7
370
18
100
AcDbBlockReference
  2
SW_CENTERMARKSYMBOL_1
 10
242.5
 20
126.4539931697
 30
0.0
 41
0.5
 42
0.5
  0
INSERT
  5
16D
330
17
100
AcDbEntity
  8
0
  6
Continuous
 62
7
370
18
100
AcDbBlockReference
  2
SW_CENTERMARKSYMBOL_2
 10
227.5
 20
126.4539931697
 30
0.0
 41
0.5
 42
0.5
  0
LINE
  5
16F
330
17
100
AcDbEntity
  8
0
  6
Continuous
 62
7
370
25
100
AcDbLine
 10
211.05469406965
 20
175.09362438950006
 30
0.0
 11
225.1968296934
 21
166.92954327125005
 31
0.0
  0
LINE
  5
170
330
17
100
AcDbEntity
  8
0
  6
Continuous
 62
7
370
25
100
AcDbLine
 10
243.94530593035
 20
199.40637561050005
 30
0.0
 11
229.8031703066
 21
207.57045672875006
 31
0.0
  0
LWPOLYLINE
  5
171
330
17
100
AcDbEntity
  8
0
  6
Continuous
 62
7
370
25
100
AcDbPolyline
 90
82
 70
128
 10
229.97487373415
 20
180.51463307745007
 10
229.98869476015
 20
180.93390399255006
 10
230.03007471685
 20
181.36661077995007
 10
230.09876474035
 20
181.81015109015007
 10
230.19435172075
 20
182.26185741950005
 10
230.3162607867
 20
182.71901315305007
 10
230.46375876275
 20
183.17886890245006
 10
230.6359585787
 20
183.63865904100007
 10
230.8318246046
 20
184.09561833680007
 10
231.05017887915
 20
184.54699858285005
 10
231.289708194
 20
184.99008512525006
 10
231.5489719917
 20
185.42221318935006
 10
231.82641102925
 20
185.84078390615005
 10
232.1203567556
 20
186.24327994215005
 10
232.42904134665
 20
186.62728063880007
 10
232.7506083369
 20
186.99047657075005
 10
233.0831237846
 20
187.33068343485007
 10
233.4245879028
 20
187.64585518710007
 10
233.77294708605
 20
187.93409634740007
 10
234.1261062613
 20
188.19367339955005
 10
234.4819414876
 20
188.42302521660005
 10
234.83831273015
 20
188.62077244975006
 10
235.1930767303
 20
188.78572582390007
 10
235.54409989565
 20
188.91689328995005
 10
235.8892711315
 20
189.01348599140005
 10
236.22651453755
 20
189.07492300840005
 10
236.55380189215
 20
189.10083485145006
 10
236.8691648507
 20
189.09106568370007
 10
237.1707067833
 20
189.04567425805007
 10
237.4566141812
 20
188.96493356385005
 10
237.7251675637
 20
188.84932918525007
 10
237.9747518192
 20
188.69955638050007
 10
238.2038659186
 20
188.51651590085007
 10
238.4111319427
 20
188.30130857335007
 10
238.59530336925
 20
188.05522868010007
 10
238.7552725697
 20
187.77975617465006
 10
238.8900774704
 20
187.47654778095006
 10
238.9989073388
 20
187.14742703005007
 10
239.0811076593
 20
186.79437329280006
 10
239.1361840695
 20
186.41950987595007
 10
239.16380533335
 20
186.02509125220007
 10
239.16380533335
 20
185.61348950155005
 10
239.1361840695
 20
185.18718004535006
 10
239.0811076593
 20
184.74872675885007
 10
238.9989073388
 20
184.30076655170006
 10
238.8900774704
 20
183.84599350930006
 10
238.7552725697
 20
183.38714269025007
 10
238.59530336925
 20
182.92697367730005
 10
238.4111319427
 20
182.46825398115007
 10
238.2038659186
 20
182.01374239590007
 10
237.9747518192
 20
181.56617240780005
 10
237.7251675637
 20
181.12823575540006
 10
237.4566141812
 20
180.70256624125005
 10
237.1707067833
 20
180.29172389185007
 10
236.8691648507
 20
179.89817956150006
 10
236.55380189215
 20
179.52430007210006
 10
236.22651453755
 20
179.17233397885005
 10
235.8892711315
 20
178.84439804730005
 10
235.54409989565
 20
178.54246452265005
 10
235.1930767303
 20
178.26834926875006
 10
234.83831273015
 20
178.02370084690006
 10
234.4819414876
 20
177.80999060155006
 10
234.1261062613
 20
177.62850381120006
 10
233.77294708605
 20
177.48033195885006
 10
233.4245879028
 20
177.36636616740006
 10
233.0831237846
 20
177.28729184050005
 10
232.7506083369
 20
177.24358454055005
 10
232.42904134665
 20
177.23550712830007
 10
232.1203567556
 20
177.26310818230007
 10
231.82641102925
 20
177.32622170660005
 10
231.5489719917
 20
177.42446812895005
 10
231.289708194
 20
177.55725658390006
 10
231.05017887915
 20
177.72378846595007
 10
230.8318246046
 20
177.92306223285007
 10
230.6359585787
 20
178.15387942875006
 10
230.46375876275
 20
178.41485189175006
 10
230.3162607867
 20
178.70441010285006
 10
230.19435172075
 20
179.02081262490006
 10
230.09876474035
 20
179.36215657585007
 10
230.03007471685
 20
179.72638907300006
 10
229.98869476015
 20
180.11131957935007
 10
229.97487373415
 20
180.51463307745007
  0
LWPOLYLINE
  5
172
330
17
100
AcDbEntity
  8
0
  6
Continuous
 62
7
370
25
100
AcDbPolyline
 90
139
 70
128
 10
221.3128156646
 20
175.51413339255006
 10
221.3265555407
 20
176.21890014910005
 10
221.367746691
 20
176.93806989220005
 10
221.4363037406
 20
177.67015203275005
 10
221.53208459445
 20
178.41362921865007
 10
221.65489073215
 20
179.16696048000006
 10
221.80446761925
 20
179.92858442270006
 10
221.9805052348
 20
180.69692246475006
 10
222.18263871395
 20
181.47038210830007
 10
222.4104491042
 20
182.24736024010005
 10
222.6634642337
 20
183.02624645430006
 10
222.94115969005
 20
183.80542639030006
 10
223.2429599069
 20
184.58328507875007
 10
223.56823935725
 20
185.35821028865007
 10
223.9163238498
 20
186.12859586925006
 10
224.28649192625
 20
186.89284507870005
 10
224.67797635675
 20
187.64937389385005
 10
225.08996573
 20
188.39661429320006
 10
225.5216061352
 20
189.13301750695007
 10
225.9720029316
 20
189.85705722695005
 10
226.4402226031
 20
190.56723277030005
 10
226.9252946929
 20
191.26207218975006
 10
227.4262138151
 20
191.94013532455006
 10
227.94194173825
 20
192.60001678520007
 10
228.4714095375
 20
193.24034886670006
 10
229.01351981
 20
193.85980438300007
 10
229.56714894935
 20
194.45709941795005
 10
230.13114947475
 20
195.03099598635006
 10
230.70435240885
 20
195.58030459995007
 10
231.2855697011
 20
196.10388673280005
 10
231.87359668995
 20
196.60065718090007
 10
232.4672145996
 20
197.06958631165006
 10
233.0651930663
 20
197.50970219785006
 10
233.66629268835
 20
197.92009263215007
 10
234.269267595
 20
198.29990701765007
 10
234.8728680287
 20
198.64835813105006
 10
235.4758429354
 20
198.96472375415007
 10
236.07694255745
 20
199.24834817100006
 10
236.67492102415
 20
199.49864352660006
 10
237.26853893380002
 20
199.71509104565007
 10
237.8565659226
 20
199.89724210760005
 10
238.4377832149
 20
200.04471917655005
 10
239.010986149
 20
200.15721658375006
 10
239.57498667435001
 20
200.23450116115006
 10
240.12861581375
 20
200.27641272465007
 10
240.67072608625
 20
200.28286440615005
 10
241.2001938855
 20
200.25384283355007
 10
241.71592180865
 20
200.18940815850007
 10
242.2168409308
 20
200.08969393170005
 10
242.70191302065
 20
199.95490682610006
 10
243.17013269215
 20
199.78532620855006
 10
243.62052948855
 20
199.58130356085005
 10
244.0521698937
 20
199.34326175100006
 10
244.464159267
 20
199.07169415700005
 10
244.8556436975
 20
198.76716364425005
 10
245.22581177395
 20
198.43030139870007
 10
245.57389626650001
 20
198.06180561875007
 10
245.89917571685
 20
197.66244006820006
 10
246.2009759337
 20
197.23303249315006
 10
246.47867139
 20
196.77447290640006
 10
246.73168651955
 20
196.28771174265006
 10
246.9594969098
 20
195.77375788880005
 10
247.1616303889
 20
195.23367659270005
 10
247.33766800445
 20
194.66858725525006
 10
247.48724489155
 20
194.07966111050007
 10
247.6100510293
 20
193.46811879770007
 10
247.70583188314998
 20
192.83522783170005
 10
247.7743889327
 20
192.18229997575006
 10
247.815580083
 20
191.51068852250006
 10
247.82931995910002
 20
190.82178548920007
 10
247.815580083
 20
190.11701873265005
 10
247.7743889327
 20
189.39784898955006
 10
247.70583188314998
 20
188.66576684905007
 10
247.6100510293
 20
187.92228966310006
 10
247.48724489155
 20
187.16895840175005
 10
247.33766800445
 20
186.40733445910007
 10
247.1616303889
 20
185.63899641705007
 10
246.9594969098
 20
184.86553677350005
 10
246.73168651955
 20
184.08855864170005
 10
246.47867139
 20
183.30967242745007
 10
246.2009759337
 20
182.53049249145005
 10
245.89917571685
 20
181.75263380300007
 10
245.57389626650001
 20
180.97770859310006
 10
245.22581177395
 20
180.20732301255006
 10
244.8556436975
 20
179.44307380310005
 10
244.464159267
 20
178.68654498790005
 10
244.0521698937
 20
177.93930458855007
 10
243.62052948855
 20
177.20290137480006
 10
243.17013269215
 20
176.47886165485005
 10
242.70191302065
 20
175.76868611150005
 10
242.2168409308
 20
175.07384669200005
 10
241.71592180865
 20
174.39578355725007
 10
241.2001938855
 20
173.73590209655006
 10
240.67072608625
 20
173.09557001505007
 10
240.12861581375
 20
172.47611449875006
 10
239.57498667435001
 20
171.87881946385005
 10
239.010986149
 20
171.30492289540007
 10
238.4377832149
 20
170.75561428180006
 10
237.8565659226
 20
170.23203214900005
 10
237.26853893380002
 20
169.73526170090005
 10
236.67492102415
 20
169.26633257010005
 10
236.07694255745
 20
168.82621668390007
 10
235.4758429354
 20
168.41582624965005
 10
234.8728680287
 20
168.03601186415005
 10
234.269267595
 20
167.68756075075007
 10
233.66629268835
 20
167.37119512760006
 10
233.0651930663
 20
167.08757071075007
 10
232.4672145996
 20
166.83727535515007
 10
231.87359668995
 20
166.62082783610006
 10
231.2855697011
 20
166.43867677415005
 10
230.70435240885
 20
166.29119970525005
 10
230.13114947475
 20
166.17870229805007
 10
229.56714894935
 20
166.10141772065006
 10
229.01351981
 20
166.05950615715005
 10
228.4714095375
 20
166.05305447565007
 10
227.94194173825
 20
166.08207604820007
 10
227.4262138151
 20
166.14651072325006
 10
226.9252946929
 20
166.24622495010007
 10
226.4402226031
 20
166.38101205565005
 10
225.9720029316
 20
166.55059267320007
 10
225.5216061352
 20
166.75461532095005
 10
225.08996573
 20
166.99265713080007
 10
224.67797635675
 20
167.26422472475005
 10
224.28649192625
 20
167.56875523750006
 10
223.9163238498
 20
167.90561748310006
 10
223.56823935725
 20
168.27411326305005
 10
223.2429599069
 20
168.67347881355005
 10
222.94115969005
 20
169.10288638860007
 10
222.6634642337
 20
169.56144597540006
 10
222.4104491042
 20
170.04820713910007
 10
222.18263871395
 20
170.56216099295006
 10
221.9805052348
 20
171.10224228905005
 10
221.80446761925
 20
171.66733162650007
 10
221.65489073215
 20
172.25625777130006
 10
221.53208459445
 20
172.86780008410005
 10
221.4363037406
 20
173.50069105005005
 10
221.367746691
 20
174.15361890600005
 10
221.3265555407
 20
174.82523035925007
 10
221.3128156646
 20
175.51413339255006
  0
LWPOLYLINE
  5
173
330
17
100
AcDbEntity
  8
0
  6
Continuous
 62
7
370
25
100
AcDbPolyline
 90
53
 70
128
 10
225.90900974235
 20
178.16745975595006
 10
225.89483182975
 20
178.42993859785005
 10
225.85250483800002
 20
178.67222043775007
 10
225.7826459898
 20
178.89077226090006
 10
225.68627398455
 20
179.08240708955006
 10
225.56479414310002
 20
179.24433045635007
 10
225.4199779151
 20
179.37418115405006
 10
225.25393704715
 20
179.47006566710007
 10
225.06909278915
 20
179.53058578330007
 10
224.86814058645
 20
179.55485898310005
 10
224.6540107748
 20
179.54253130865007
 10
224.429825849
 20
179.49378252515007
 10
224.19885493005
 20
179.40932349965007
 10
223.96446609405
 20
179.29038583490006
 10
223.7300772581
 20
179.13870390990007
 10
223.49910633915
 20
178.95648958870007
 10
223.27492141335
 20
178.74639996640005
 10
223.06079160165
 20
178.51149862275005
 10
222.859839399
 20
178.25521094830006
 10
222.67499514095
 20
177.98127419445007
 10
222.50895427305
 20
177.69368297595005
 10
222.364138045
 20
177.39663102030005
 10
222.24265820355
 20
177.09445001400005
 10
222.14628619835
 20
176.79154643655005
 10
222.07642735015
 20
176.49233730415006
 10
222.03410035835
 20
176.20118575975005
 10
222.0199224458
 20
175.92233744845007
 10
222.03410035835
 20
175.65985860660007
 10
222.07642735015
 20
175.41757676670005
 10
222.14628619835
 20
175.19902494355006
 10
222.24265820355
 20
175.00739011490006
 10
222.364138045
 20
174.84546674805006
 10
222.50895427305
 20
174.71561605035006
 10
222.67499514095
 20
174.61973153735005
 10
222.859839399
 20
174.55921142115005
 10
223.06079160165
 20
174.53493822130005
 10
223.27492141335
 20
174.54726589580005
 10
223.49910633915
 20
174.59601467930005
 10
223.7300772581
 20
174.68047370480005
 10
223.96446609405
 20
174.79941136955006
 10
224.19885493005
 20
174.95109329450005
 10
224.429825849
 20
175.13330761570006
 10
224.6540107748
 20
175.34339723805004
 10
224.86814058645
 20
175.57829858170007
 10
225.06909278915
 20
175.83458625615006
 10
225.25393704715
 20
176.10852301000006
 10
225.4199779151
 20
176.39611422850007
 10
225.56479414310002
 20
176.69316618410005
 10
225.68627398455
 20
176.99534719040005
 10
225.7826459898
 20
177.29825076790007
 10
225.85250483800002
 20
177.59745990030007
 10
225.89483182975
 20
177.88861144470005
 10
225.90900974235
 20
178.16745975595006
  0
LWPOLYLINE
  5
174
330
17
100
AcDbEntity
  8
0
  6
Continuous
 62
7
370
25
100
AcDbPolyline
 90
53
 70
128
 10
247.12221317795002
 20
190.41358143330007
 10
247.10803526535
 20
190.67606027520006
 10
247.06570827355
 20
190.91834211510005
 10
246.9958494254
 20
191.13689393825007
 10
246.89947742015
 20
191.32852876685007
 10
246.7779975787
 20
191.49045213370005
 10
246.6331813507
 20
191.62030283140007
 10
246.46714048275
 20
191.71618734440005
 10
246.2822962247
 20
191.77670746065007
 10
246.08134402205
 20
191.80098066045005
 10
245.8672142104
 20
191.78865298600005
 10
245.6430292846
 20
191.73990420250007
 10
245.41205836565
 20
191.65544517700005
 10
245.17766952965
 20
191.53650751225007
 10
244.9432806937
 20
191.38482558725005
 10
244.71230977475
 20
191.20261126605007
 10
244.48812484890001
 20
190.99252164375005
 10
244.27399503725
 20
190.75762030010006
 10
244.0730428346
 20
190.50133262565006
 10
243.88819857655
 20
190.22739587180007
 10
243.72215770865
 20
189.93980465330006
 10
243.5773414806
 20
189.64275269765005
 10
243.45586163915002
 20
189.34057169135005
 10
243.35948963395
 20
189.03766811390005
 10
243.28963078575
 20
188.73845898150006
 10
243.24730379395
 20
188.44730743710005
 10
243.2331258814
 20
188.16845912580007
 10
243.24730379395
 20
187.90598028390005
 10
243.28963078575
 20
187.66369844400006
 10
243.35948963395
 20
187.44514662090006
 10
243.45586163915002
 20
187.25351179225007
 10
243.5773414806
 20
187.09158842540006
 10
243.72215770865
 20
186.96173772770007
 10
243.88819857655
 20
186.86585321470005
 10
244.0730428346
 20
186.80533309850006
 10
244.27399503725
 20
186.78105989865006
 10
244.48812484890001
 20
186.79338757315006
 10
244.71230977475
 20
186.84213635665006
 10
244.9432806937
 20
186.92659538215005
 10
245.17766952965
 20
187.04553304685007
 10
245.41205836565
 20
187.19721497185006
 10
245.6430292846
 20
187.37942929305007
 10
245.8672142104
 20
187.58951891540005
 10
246.08134402205
 20
187.82442025905007
 10
246.2822962247
 20
188.08070793350007
 10
246.46714048275
 20
188.35464468735006
 10
246.6331813507
 20
188.64223590585007
 10
246.7779975787
 20
188.93928786145005
 10
246.89947742015
 20
189.24146886775006
 10
246.9958494254
 20
189.54437244520005
 10
247.06570827355
 20
189.84358157760005
 10
247.10803526535
 20
190.13473312200006
 10
247.12221317795002
 20
190.41358143330007
  0
LWPOLYLINE
  5
175
330
17
100
AcDbEntity
  8
0
  6
Continuous
 62
7
370
25
100
AcDbPolyline
 90
53
 70
128
 10
207.1706800409
 20
183.67821451080005
 10
207.184419917
 20
184.38298126735006
 10
207.2256110673
 20
185.10215101040006
 10
207.29416811685
 20
185.83423315095007
 10
207.3899489707
 20
186.57771033690005
 10
207.51275510845
 20
187.33104159825007
 10
207.66233199555
 20
188.09266554090007
 10
207.8383696111
 20
188.86100358295005
 10
208.0405030902
 20
189.63446322650006
 10
208.26831348045
 20
190.41144135830007
 10
208.52132861
 20
191.19032757255005
 10
208.7990240663
 20
191.96950750855007
 10
209.10082428315
 20
192.74736619700005
 10
209.4261037335
 20
193.52229140690005
 10
209.77418822605
 20
194.29267698745005
 10
210.1443563025
 20
195.05692619690006
 10
210.53584073300001
 20
195.81345501210006
 10
210.9478301063
 20
196.56069541145007
 10
211.37947051145
 20
197.29709862520005
 10
211.82986730785
 20
198.02113834515006
 10
212.29808697935
 20
198.73131388850007
 10
212.7831590692
 20
199.42615330800007
 10
213.28407819135
 20
200.10421644275007
 10
213.7998061145
 20
200.76409790345005
 10
214.32927391375
 20
201.40442998495007
 10
214.87138418625
 20
202.02388550125005
 10
215.42501332565
 20
202.62118053615006
 10
215.989013851
 20
203.19507710460005
 10
216.5622167851
 20
203.74438571820005
 10
217.1434340774
 20
204.26796785100007
 10
217.7314610662
 20
204.76473829910006
 10
218.32507897585
 20
205.23366742990007
 10
218.92305744255
 20
205.67378331610007
 10
219.5241570646
 20
206.08417375035006
 10
220.1271319713
 20
206.46398813585006
 10
220.730732405
 20
206.81243924925005
 10
221.33370731165002
 20
207.12880487240005
 10
221.9348069337
 20
207.41242928925007
 10
222.5327854004
 20
207.66272464485007
 10
223.12640331005
 20
207.87917216390005
 10
223.7144302989
 20
208.06132322585006
 10
224.29564759115001
 20
208.20880029475006
 10
224.86885052525
 20
208.32129770195007
 10
225.43285105065002
 20
208.39858227935005
 10
225.98648019
 20
208.44049384285006
 10
226.5285904625
 20
208.44694552435007
 10
227.05805826175
 20
208.41792395180005
 10
227.5737861849
 20
208.35348927675005
 10
228.0747053071
 20
208.25377504990007
 10
228.5597773969
 20
208.11898794435007
 10
229.0279970684
 20
207.94940732680007
 10
229.4783938648
 20
207.74538467905006
 10
229.8031703066
 20
207.57045672875006
  0
LWPOLYLINE
  5
176
330
17
100
AcDbEntity
  8
0
  6
Continuous
 62
7
370
25
100
AcDbPolyline
 90
19
 70
128
 10
211.05469406965
 20
175.09362438950006
 10
210.9478301063
 20
175.15673824900006
 10
210.53584073300001
 20
175.42830584300006
 10
210.1443563025
 20
175.73283635575007
 10
209.77418822605
 20
176.06969860130005
 10
209.4261037335
 20
176.43819438125007
 10
209.10082428315
 20
176.83755993180006
 10
208.7990240663
 20
177.26696750685005
 10
208.52132861
 20
177.72552709360005
 10
208.26831348045
 20
178.21228825735005
 10
208.0405030902
 20
178.72624211120007
 10
207.8383696111
 20
179.26632340730006
 10
207.66233199555
 20
179.83141274475005
 10
207.51275510845
 20
180.42033888950007
 10
207.3899489707
 20
181.03188120230007
 10
207.29416811685
 20
181.66477216830006
 10
207.2256110673
 20
182.31770002425006
 10
207.184419917
 20
182.98931147750005
 10
207.1706800409
 20
183.67821451080005
  0
ARC
  5
177
330
17
100
AcDbEntity
  8
0
  6
Continuous
 62
7
370
25
100
AcDbCircle
 10
218.91980469485
 20
179.95711963960005
 30
0.0
 40
4.556759798137804
100
AcDbArc
 50
-45.257774966700026
 51
-14.736848500599987
  0
LWPOLYLINE
  5
178
330
17
100
AcDbEntity
  8
0
  6
Continuous
 62
7
370
25
100
AcDbPolyline
 90
36
 70
128
 10
236.81444946735002
 20
189.09538356965007
 10
236.8275364163
 20
189.07573881990007
 10
236.98750561675
 20
188.80026631440006
 10
237.12231051745
 20
188.49705792075005
 10
237.23114038585
 20
188.16793716980007
 10
237.31334070635
 20
187.81488343260006
 10
237.3684171165
 20
187.44002001575006
 10
237.39603838035
 20
187.04560139195007
 10
237.39603838035
 20
186.63399964130005
 10
237.3684171165
 20
186.20769018510006
 10
237.31334070635
 20
185.76923689865006
 10
237.23114038585
 20
185.32127669150006
 10
237.12231051745
 20
184.86650364910005
 10
236.98750561675
 20
184.40765283000005
 10
236.8275364163
 20
183.94748381710005
 10
236.6433649897
 20
183.48876412090007
 10
236.4360989656
 20
183.03425253570006
 10
236.20698486625
 20
182.58668254760005
 10
235.95740061075
 20
182.14874589520005
 10
235.68884722825
 20
181.72307638100006
 10
235.4029398303
 20
181.31223403165006
 10
235.10139789775
 20
180.91868970130005
 10
234.7860349392
 20
180.54481021190006
 10
234.45874758455
 20
180.19284411865007
 10
234.12150417855
 20
179.86490818705005
 10
233.77633294265001
 20
179.56297466245005
 10
233.42530977735
 20
179.28885940850006
 10
233.0705457772
 20
179.04421098665006
 10
232.71417453465
 20
178.83050074130006
 10
232.3583393083
 20
178.64901395100006
 10
232.0051801331
 20
178.50084209865005
 10
231.65682094985002
 20
178.38687630715006
 10
231.31535683165
 20
178.30780198030007
 10
230.98284138395
 20
178.26409468030005
 10
230.6612743937
 20
178.25601726810007
 10
230.5599192034
 20
178.26104545190006
  0
ARC
  5
179
330
17
100
AcDbEntity
  8
0
  6
Continuous
 62
7
370
25
100
AcDbCircle
 10
240.13300813045
 20
192.20324131695006
 30
0.0
 40
4.556759798138455
100
AcDbArc
 50
-45.257774966700026
 51
-14.736848500599987
  0
LWPOLYLINE
  5
17A
330
17
100
AcDbEntity
  8
0
  6
HIDDEN
 62
7
370
18
100
AcDbPolyline
 90
71
 70
128
 10
229.8031703066
 20
207.57045672875006
 10
229.91003427
 20
207.50734286920007
 10
230.32202364325
 20
207.23577527525006
 10
230.71350807375
 20
206.93124476250006
 10
231.0836761502
 20
206.59438251690005
 10
231.43176064275
 20
206.22588673695006
 10
231.7570400931
 20
205.82652118645007
 10
232.05884030995
 20
205.39711361140007
 10
232.3365357663
 20
204.93855402460005
 10
232.58955089580002
 20
204.45179286090007
 10
232.81736128605002
 20
203.93783900705006
 10
233.0194947652
 20
203.39775771095006
 10
233.19553238075
 20
202.83266837350007
 10
233.34510926785
 20
202.24374222870006
 10
233.46791540555
 20
201.63219991590006
 10
233.5636962594
 20
200.99930894995006
 10
233.632253309
 20
200.34638109400007
 10
233.67344445930001
 20
199.67476964075007
 10
233.6871843354
 20
198.98586660745005
 10
233.67344445930001
 20
198.28109985090006
 10
233.632253309
 20
197.56193010780007
 10
233.5636962594
 20
196.82984796725006
 10
233.46791540555
 20
196.08637078135007
 10
233.34510926785
 20
195.33303952000006
 10
233.19553238075
 20
194.57141557730006
 10
233.0194947652
 20
193.80307753525005
 10
232.81736128605002
 20
193.02961789170007
 10
232.58955089580002
 20
192.25263975990006
 10
232.3365357663
 20
191.47375354570005
 10
232.05884030995
 20
190.69457360970006
 10
231.7570400931
 20
189.91671492125005
 10
231.43176064275
 20
189.14178971135007
 10
231.0836761502
 20
188.37140413075005
 10
230.71350807375
 20
187.60715492130007
 10
230.32202364325
 20
186.85062610615006
 10
229.91003427
 20
186.10338570680005
 10
229.4783938648
 20
185.36698249305005
 10
229.0279970684
 20
184.64294277305007
 10
228.5597773969
 20
183.93276722970006
 10
228.0747053071
 20
183.23792781025006
 10
227.5737861849
 20
182.55986467545006
 10
227.05805826175
 20
181.89998321480005
 10
226.5285904625
 20
181.25965113330005
 10
225.98648019
 20
180.64019561700005
 10
225.43285105065002
 20
180.04290058205007
 10
224.86885052525
 20
179.46900401365005
 10
224.29564759115001
 20
178.91969540005005
 10
223.7144302989
 20
178.39611326720006
 10
223.12640331005
 20
177.89934281910007
 10
222.5327854004
 20
177.43041368835006
 10
221.9348069337
 20
176.99029780215005
 10
221.33370731165002
 20
176.57990736785007
 10
220.730732405
 20
176.20009298235007
 10
220.1271319713
 20
175.85164186895005
 10
219.5241570646
 20
175.53527624585007
 10
218.92305744255
 20
175.25165182900005
 10
218.32507897585
 20
175.00135647340005
 10
217.7314610662
 20
174.78490895435007
 10
217.1434340774
 20
174.60275789240006
 10
216.5622167851
 20
174.45528082345007
 10
215.989013851
 20
174.34278341625006
 10
215.42501332565
 20
174.26549883885005
 10
214.87138418625
 20
174.22358727535007
 10
214.32927391375
 20
174.21713559385006
 10
213.7998061145
 20
174.24615716645005
 10
213.28407819135
 20
174.31059184150007
 10
212.7831590692
 20
174.41030606830006
 10
212.29808697935
 20
174.54509317390006
 10
211.82986730785
 20
174.71467379145005
 10
211.37947051145
 20
174.91869643915007
 10
211.05469406965
 20
175.09362438950006
  0
LWPOLYLINE
  5
17B
330
17
100
AcDbEntity
  8
0
  6
HIDDEN
 62
7
370
18
100
AcDbPolyline
 90
43
 70
128
 10
223.4341360082
 20
179.59617395165006
 10
223.4199580956
 20
179.85865279355005
 10
223.3776311038
 20
180.10093463345007
 10
223.30777225565
 20
180.31948645660006
 10
223.2114002504
 20
180.51112128520006
 10
223.08992040895
 20
180.67304465205007
 10
222.94510418095
 20
180.80289534975006
 10
222.779063313
 20
180.89877986275005
 10
222.59421905495
 20
180.95929997900006
 10
222.3932668523
 20
180.98357317880007
 10
222.17913704065
 20
180.97124550435007
 10
221.95495211485002
 20
180.92249672085006
 10
221.7239811959
 20
180.83803769530005
 10
221.4895923599
 20
180.71910003060006
 10
221.25520352395
 20
180.56741810560007
 10
221.024232605
 20
180.38520378440006
 10
220.80004767915
 20
180.17511416210007
 10
220.5859178675
 20
179.94021281845005
 10
220.38496566485
 20
179.68392514400006
 10
220.2001214068
 20
179.40998839015006
 10
220.0340805389
 20
179.12239717160006
 10
219.88926431085
 20
178.82534521600004
 10
219.7677844694
 20
178.52316420970007
 10
219.6714124642
 20
178.22026063225005
 10
219.601553616
 20
177.92105149985005
 10
219.5592266242
 20
177.62989995545007
 10
219.54504871165
 20
177.35105164415006
 10
219.5592266242
 20
177.08857280225007
 10
219.601553616
 20
176.84629096235005
 10
219.6714124642
 20
176.62773913925005
 10
219.7677844694
 20
176.43610431060006
 10
219.88926431085
 20
176.27418094375005
 10
220.0340805389
 20
176.14433024605006
 10
220.2001214068
 20
176.04844573305007
 10
220.38496566485
 20
175.98792561685005
 10
220.5859178675
 20
175.96365241700005
 10
220.80004767915
 20
175.97598009150005
 10
221.024232605
 20
176.02472887500005
 10
221.25520352395
 20
176.10918790050005
 10
221.4895923599
 20
176.22812556520006
 10
221.7239811959
 20
176.37980749020005
 10
221.95495211485002
 20
176.56202181140006
 10
222.12739151825
 20
176.72054017535007
  0
ARC
  5
17C
330
17
100
AcDbEntity
  8
0
  6
HIDDEN
 62
7
370
18
100
AcDbCircle
 10
220.17445788725
 20
179.62871704605007
 30
0.0
 40
3.259840564342154
100
AcDbArc
 50
-14.76425096370005
 51
-0.5719951318999988
  0
LWPOLYLINE
  5
17D
330
17
100
AcDbEntity
  8
0
  6
HIDDEN
 62
7
370
18
100
AcDbPolyline
 90
46
 70
128
 10
222.9038059223
 20
179.29002090975007
 10
222.8900428931
 20
179.05479464840005
 10
222.8490216873
 20
178.80825634345007
 10
222.78154073595
 20
178.55520458250007
 10
222.68891347905
 20
178.30056473030007
 10
222.57294280075
 20
178.04929306190007
 10
222.43588593845
 20
177.80628029450006
 10
222.280410548
 20
177.57625639520006
 10
222.10954278105
 20
177.36369851755006
 10
221.92660838435
 20
177.17274385885005
 10
221.73516796785
 20
177.00710913435006
 10
221.53894770145
 20
176.87001823555005
 10
221.3417667895
 20
176.76413948080005
 10
221.1474631341
 20
176.69153367970006
 10
220.95981863495
 20
176.65361402155006
 10
220.78248557875
 20
176.65111856935005
 10
220.6189155517
 20
176.68409589425005
 10
220.4722922583
 20
176.75190413015005
 10
220.3454695543
 20
176.85322346685007
 10
220.24091589925
 20
176.98608183870004
 10
220.16066631115
 20
177.14789330865005
 10
220.10628275695
 20
177.33550840045007
 10
220.0788237507
 20
177.54527539980006
 10
220.0788237507
 20
177.77311143060007
 10
220.10628275695
 20
178.01458192375006
 10
220.16066631115
 20
178.26498693070005
 10
220.24091589925
 20
178.51945260285007
 10
220.3454695543
 20
178.77302605535007
 10
220.4722922583
 20
179.02077176935006
 10
220.6189155517
 20
179.25786765635007
 10
220.78248557875
 20
179.47969891465007
 10
220.95981863495
 20
179.68194785105007
 10
221.1474631341
 20
179.86067792010004
 10
221.3417667895
 20
180.01241034435006
 10
221.53894770145
 20
180.13419182470005
 10
221.73516796785
 20
180.22365202315007
 10
221.92660838435
 20
180.27904969875007
 10
222.10954278105
 20
180.29930659870007
 10
222.280410548
 20
180.28402844555006
 10
222.43588593845
 20
180.23351261110005
 10
222.57294280075
 20
180.14874232865006
 10
222.68891347905
 20
180.03136755535007
 10
222.78154073595
 20
179.88367285755007
 10
222.8490216873
 20
179.70853294465005
 10
222.8900428931
 20
179.50935671580007
 10
222.9038059223
 20
179.29002090975007
  0
LWPOLYLINE
  5
17E
330
17
100
AcDbEntity
  8
0
  6
HIDDEN
 62
7
370
18
100
AcDbPolyline
 90
46
 70
128
 10
211.2365440327
 20
186.02538783225006
 10
211.22278100355
 20
186.24472363835005
 10
211.1817597977
 20
186.44389986720006
 10
211.1142788464
 20
186.61903978010005
 10
211.02165158945002
 20
186.76673447785006
 10
210.9056809112
 20
186.88410925120007
 10
210.76862404885
 20
186.96887953365007
 10
210.6131486584
 20
187.01939536805006
 10
210.4422808915
 20
187.03467352125006
 10
210.2593464948
 20
187.01441662125006
 10
210.06790607825
 20
186.95901894570005
 10
209.8716858119
 20
186.86955874720005
 10
209.67450489995
 20
186.74777726690007
 10
209.48020124455
 20
186.59604484265006
 10
209.29255674535
 20
186.41731477360005
 10
209.11522368915
 20
186.21506583715006
 10
208.9516536621
 20
185.99323457890006
 10
208.80503036875
 20
185.75613869190005
 10
208.6782076647
 20
185.50839297790006
 10
208.57365400965
 20
185.25481952540005
 10
208.49340442155
 20
185.00035385325006
 10
208.4390208674
 20
184.74994884630007
 10
208.4115618611
 20
184.50847835315005
 10
208.4115618611
 20
184.28064232235005
 10
208.4390208674
 20
184.07087532300005
 10
208.49340442155
 20
183.88326023120007
 10
208.57365400965
 20
183.72144876125006
 10
208.6782076647
 20
183.58859038940005
 10
208.80503036875
 20
183.48727105270007
 10
208.9516536621
 20
183.41946281680006
 10
209.11522368915
 20
183.38648549190006
 10
209.29255674535
 20
183.38898094410007
 10
209.48020124455
 20
183.42690060225007
 10
209.67450489995
 20
183.49950640335007
 10
209.8716858119
 20
183.60538515810006
 10
210.06790607825
 20
183.74247605690005
 10
210.2593464948
 20
183.90811078140007
 10
210.4422808915
 20
184.09906544010005
 10
210.6131486584
 20
184.31162331775005
 10
210.76862404885
 20
184.54164721705007
 10
210.9056809112
 20
184.78465998445006
 10
211.02165158945002
 20
185.03593165285005
 10
211.1142788464
 20
185.29057150505005
 10
211.1817597977
 20
185.54362326600005
 10
211.22278100355
 20
185.79016157095006
 10
211.2365440327
 20
186.02538783225006
  0
LWPOLYLINE
  5
17F
330
17
100
AcDbEntity
  8
0
  6
HIDDEN
 62
7
370
18
100
AcDbPolyline
 90
92
 70
128
 10
226.9696699141
 20
180.82078611940005
 10
226.98356986815
 20
181.29356659385004
 10
227.02520349065
 20
181.78014259935006
 10
227.09437237845
 20
182.27819537970007
 10
227.19074691025
 20
182.78535148650005
 10
227.3138678176
 20
183.29919409005007
 10
227.46314837325
 20
183.81727449625006
 10
227.6378771874
 20
184.33712381605005
 10
227.83722159765
 20
184.85626473075007
 10
228.06023163715
 20
185.37222329745006
 10
228.30584456145002
 20
185.88254073860006
 10
228.5728899131
 20
186.38478515925007
 10
228.8600950995
 20
186.87656313590006
 10
229.166091457
 20
187.35553112265006
 10
229.4894207737
 20
187.81940661890005
 10
229.82854223815
 20
188.26597904660005
 10
230.18183978215
 20
188.69312028480005
 10
230.54762978195
 20
189.09879481105006
 10
230.92416908165
 20
189.48106940135006
 10
231.30966330005
 20
189.83812234335005
 10
231.7022753816
 20
190.16825211705006
 10
232.100134351
 20
190.46988550380007
 10
232.50134422895
 20
190.74158508310006
 10
232.9039930678
 20
190.98205608280006
 10
233.3061620624
 20
191.19015254900006
 10
233.7059346944
 20
191.36488280735006
 10
234.1014058651
 20
191.50541418850005
 10
234.49069097425001
 20
191.61107699650006
 10
234.8719349011
 20
191.68136769995007
 10
235.2433208447
 20
191.71595133160005
 10
235.6030789819
 20
191.71466308470005
 10
235.9494949013
 20
191.67750909835007
 10
236.28091777335
 20
191.60466642820006
 10
236.59576821705
 20
191.49648220280005
 10
236.89254582675
 20
191.35347196915006
 10
237.16983632195002
 20
191.17631723620005
 10
237.42631828715
 20
190.96586222695007
 10
237.66076946895
 20
190.72310985530007
 10
237.8720726008
 20
190.44921694690007
 10
238.059220727
 20
190.14548872620006
 10
238.22132200145
 20
189.81337259645005
 10
238.35760393785
 20
189.45445124220007
 10
238.46741709065
 20
189.07043508730007
 10
238.55023815015
 20
188.66315414345007
 10
238.60567243635
 20
188.23454928995005
 10
238.63345577955
 20
187.78666302405006
 10
238.63345577955
 20
187.32162972780006
 10
238.60567243635
 20
186.84166549660006
 10
238.55023815015
 20
186.34905757860005
 10
238.46741709065
 20
185.84615347485007
 10
238.35760393785
 20
185.33534975245007
 10
238.22132200145
 20
184.81908062375007
 10
238.059220727
 20
184.29980634625005
 10
237.8720726008
 20
183.78000149835006
 10
237.66076946895
 20
183.26214318690006
 10
237.42631828715
 20
182.74869924255006
 10
237.16983632195002
 20
182.24211645950007
 10
236.89254582675
 20
181.74480893545007
 10
236.59576821705
 20
181.25914656725007
 10
236.28091777335
 20
180.78744375720007
 10
235.9494949013
 20
180.33194838400007
 10
235.6030789819
 20
179.89483109055007
 10
235.2433208447
 20
179.47817493985005
 10
234.8719349011
 20
179.08396548815006
 10
234.49069097425001
 20
178.71408132300007
 10
234.1014058651
 20
178.37028511095005
 10
233.7059346944
 20
178.05421519750007
 10
233.3061620624
 20
177.76737779970006
 10
232.9039930678
 20
177.51113982835005
 10
232.50134422895
 20
177.28672237415006
 10
232.100134351
 20
177.09519488840007
 10
231.7022753816
 20
176.93747008685006
 10
231.30966330005
 20
176.81429959995006
 10
230.92416908165
 20
176.72627039120005
 10
230.54762978195
 20
176.67380195985007
 10
230.18183978215
 20
176.65714434185006
 10
229.82854223815
 20
176.67637691840005
 10
229.4894207737
 20
176.73140803745005
 10
229.166091457
 20
176.82197545070005
 10
228.8600950995
 20
176.94764756315007
 10
228.5728899131
 20
177.10782548995005
 10
228.30584456145002
 20
177.30174591035006
 10
228.06023163715
 20
177.52848470530006
 10
227.83722159765
 20
177.78696136105006
 10
227.6378771874
 20
178.07594411870005
 10
227.46314837325
 20
178.39405584385005
 10
227.3138678176
 20
178.73978058920005
 10
227.19074691025
 20
179.11147081890005
 10
227.09437237845
 20
179.50735525975006
 10
227.02520349065
 20
179.92554734210006
 10
226.98356986815
 20
180.36405419030007
 10
226.9696699141
 20
180.82078611940005
  0
LWPOLYLINE
  5
180
330
17
100
AcDbEntity
  8
0
  6
HIDDEN
 62
7
370
18
100
AcDbPolyline
 90
92
 70
128
 10
214.59530124335
 20
187.96435709785007
 10
214.6092011974
 20
188.43713757230006
 10
214.6508348199
 20
188.92371357780007
 10
214.72000370765
 20
189.42176635815005
 10
214.8163782395
 20
189.92892246495006
 10
214.93949914685
 20
190.44276506850005
 10
215.0887797025
 20
190.96084547470005
 10
215.26350851665
 20
191.48069479450007
 10
215.4628529269
 20
191.99983570920006
 10
215.68586296635002
 20
192.51579427590005
 10
215.93147589065
 20
193.02611171705007
 10
216.19852124235
 20
193.52835613770006
 10
216.4857264287
 20
194.02013411435007
 10
216.79172278625
 20
194.49910210110005
 10
217.11505210295
 20
194.96297759735006
 10
217.4541735674
 20
195.40955002505007
 10
217.8074711114
 20
195.83669126325006
 10
218.1732611112
 20
196.24236578950007
 10
218.5498004109
 20
196.62464037980007
 10
218.9352946293
 20
196.98169332180007
 10
219.32790671085002
 20
197.31182309550005
 10
219.7257656802
 20
197.61345648220006
 10
220.1269755582
 20
197.88515606155005
 10
220.52962439705001
 20
198.12562706125007
 10
220.93179339165
 20
198.33372352745005
 10
221.33156602365
 20
198.50845378580007
 10
221.72703719435
 20
198.64898516695007
 10
222.1163223035
 20
198.75464797495005
 10
222.49756623035
 20
198.82493867840006
 10
222.86895217395
 20
198.85952231005007
 10
223.2287103111
 20
198.85823406315006
 10
223.57512623055
 20
198.82108007680006
 10
223.90654910255
 20
198.74823740665005
 10
224.2213995463
 20
198.64005318125007
 10
224.518177156
 20
198.49704294760005
 10
224.79546765115
 20
198.31988821465006
 10
225.05194961635002
 20
198.10943320540005
 10
225.2864007982
 20
197.86668083375005
 10
225.49770393005
 20
197.59278792535005
 10
225.68485205620001
 20
197.28905970465007
 10
225.8469533307
 20
196.95694357485007
 10
225.98323526705
 20
196.59802222065005
 10
226.09304841985
 20
196.21400606575006
 10
226.1758694794
 20
195.80672512190006
 10
226.23130376555
 20
195.37812026840007
 10
226.2590871088
 20
194.93023400250007
 10
226.2590871088
 20
194.46520070625007
 10
226.23130376555
 20
193.98523647505007
 10
226.1758694794
 20
193.49262855705007
 10
226.09304841985
 20
192.98972445330006
 10
225.98323526705
 20
192.47892073090006
 10
225.8469533307
 20
191.96265160220005
 10
225.68485205620001
 20
191.44337732470007
 10
225.49770393005
 20
190.92357247680005
 10
225.2864007982
 20
190.40571416535005
 10
225.05194961635002
 20
189.89227022100005
 10
224.79546765115
 20
189.38568743795005
 10
224.518177156
 20
188.88837991390005
 10
224.2213995463
 20
188.40271754570006
 10
223.90654910255
 20
187.93101473565005
 10
223.57512623055
 20
187.47551936245006
 10
223.2287103111
 20
187.03840206900006
 10
222.86895217395
 20
186.62174591830006
 10
222.49756623035
 20
186.22753646660007
 10
222.1163223035
 20
185.85765230145006
 10
221.72703719435
 20
185.51385608940006
 10
221.33156602365
 20
185.19778617595006
 10
220.93179339165
 20
184.91094877815007
 10
220.52962439705001
 20
184.65471080680007
 10
220.1269755582
 20
184.43029335260005
 10
219.7257656802
 20
184.23876586685006
 10
219.32790671085002
 20
184.08104106530007
 10
218.9352946293
 20
183.95787057840005
 10
218.5498004109
 20
183.86984136965006
 10
218.1732611112
 20
183.81737293830005
 10
217.8074711114
 20
183.80071532030007
 10
217.4541735674
 20
183.81994789685007
 10
217.11505210295
 20
183.87497901590007
 10
216.79172278625
 20
183.96554642915007
 10
216.4857264287
 20
184.09121854160006
 10
216.19852124235
 20
184.25139646840006
 10
215.93147589065
 20
184.44531688880005
 10
215.68586296635002
 20
184.67205568370005
 10
215.4628529269
 20
184.93053233950005
 10
215.26350851665
 20
185.21951509715007
 10
215.0887797025
 20
185.53762682230007
 10
214.93949914685
 20
185.88335156765007
 10
214.8163782395
 20
186.25504179735006
 10
214.72000370765
 20
186.65092623820007
 10
214.6508348199
 20
187.06911832055005
 10
214.6092011974
 20
187.50762516870006
 10
214.59530124335
 20
187.96435709785007
  0
LWPOLYLINE
  5
181
330
17
100
AcDbEntity
  8
0
  6
HIDDEN
 62
7
370
18
100
AcDbPolyline
 90
35
 70
128
 10
228.2071067812
 20
181.53514321725007
 10
228.2209278072
 20
181.95441413230006
 10
228.2623077639
 20
182.38712091970007
 10
228.3309977874
 20
182.83066122990007
 10
228.4265847678
 20
183.28236755930007
 10
228.54849383375
 20
183.73952329285007
 10
228.6959918098
 20
184.19937904220006
 10
228.86819162575
 20
184.65916918080006
 10
229.06405765165
 20
185.11612847660007
 10
229.28241192615
 20
185.56750872265005
 10
229.521941241
 20
186.01059526500006
 10
229.7812050387
 20
186.44272332910006
 10
230.05864407625
 20
186.86129404595005
 10
230.35258980265002
 20
187.26379008195005
 10
230.6612743937
 20
187.64779077860007
 10
230.98284138395
 20
188.01098671050005
 10
231.31535683165
 20
188.35119357465007
 10
231.65682094985002
 20
188.66636532685007
 10
232.0051801331
 20
188.95460648715007
 10
232.3583393083
 20
189.21418353935005
 10
232.71417453465
 20
189.44353535640005
 10
233.0705457772
 20
189.64128258955006
 10
233.42530977735
 20
189.80623596365007
 10
233.77633294265001
 20
189.93740342975005
 10
234.12150417855
 20
190.03399613120007
 10
234.45874758455
 20
190.09543314820007
 10
234.7860349392
 20
190.12134499120006
 10
235.10139789775
 20
190.11157582345007
 10
235.4029398303
 20
190.06618439780007
 10
235.68884722825
 20
189.98544370365005
 10
235.95740061075
 20
189.86983932500007
 10
236.20698486625
 20
189.72006652025007
 10
236.4360989656
 20
189.53702604060007
 10
236.6433649897
 20
189.32181871310007
 10
236.81444946735002
 20
189.09538356965007
  0
LWPOLYLINE
  5
182
330
17
100
AcDbEntity
  8
0
  6
HIDDEN
 62
7
370
18
100
AcDbPolyline
 90
15
 70
128
 10
230.5599192034
 20
178.26104545190006
 10
230.35258980265002
 20
178.28361832210007
 10
230.05864407625
 20
178.34673184635005
 10
229.7812050387
 20
178.44497826875005
 10
229.521941241
 20
178.57776672365006
 10
229.28241192615
 20
178.74429860575006
 10
229.06405765165
 20
178.94357237265007
 10
228.86819162575
 20
179.17438956850006
 10
228.6959918098
 20
179.43536203155006
 10
228.54849383375
 20
179.72492024265006
 10
228.4265847678
 20
180.04132276465006
 10
228.3309977874
 20
180.38266671560007
 10
228.2623077639
 20
180.74689921280006
 10
228.2209278072
 20
181.13182971915006
 10
228.2071067812
 20
181.53514321725007
  0
LWPOLYLINE
  5
183
330
17
100
AcDbEntity
  8
0
  6
HIDDEN
 62
7
370
18
100
AcDbPolyline
 90
43
 70
128
 10
244.64733944375
 20
191.84229562900006
 10
244.6331615312
 20
192.10477447090005
 10
244.5908345394
 20
192.34705631080007
 10
244.52097569125002
 20
192.56560813390007
 10
244.424603686
 20
192.75724296255007
 10
244.30312384455002
 20
192.91916632940007
 10
244.1583076165
 20
193.04901702710006
 10
243.9922667486
 20
193.14490154010005
 10
243.80742249055
 20
193.20542165630005
 10
243.6064702879
 20
193.22969485615005
 10
243.39234047625
 20
193.21736718170007
 10
243.16815555045
 20
193.16861839815007
 10
242.9371846315
 20
193.08415937265005
 10
242.7027957955
 20
192.96522170795006
 10
242.46840695955
 20
192.81353978295007
 10
242.23743604060002
 20
192.63132546175007
 10
242.01325111475
 20
192.42123583940005
 10
241.7991213031
 20
192.18633449575006
 10
241.59816910045
 20
191.93004682130007
 10
241.41332484240002
 20
191.65611006750007
 10
241.2472839745
 20
191.36851884895006
 10
241.10246774645
 20
191.07146689335005
 10
240.980987905
 20
190.76928588705005
 10
240.88461589975
 20
190.46638230960005
 10
240.8147570516
 20
190.16717317720006
 10
240.7724300598
 20
189.87602163280005
 10
240.75825214725
 20
189.59717332150007
 10
240.7724300598
 20
189.33469447960005
 10
240.8147570516
 20
189.09241263970006
 10
240.88461589975
 20
188.87386081655006
 10
240.980987905
 20
188.68222598795006
 10
241.10246774645
 20
188.52030262110006
 10
241.2472839745
 20
188.39045192340006
 10
241.41332484240002
 20
188.29456741040005
 10
241.59816910045
 20
188.23404729420005
 10
241.7991213031
 20
188.20977409435005
 10
242.01325111475
 20
188.22210176880006
 10
242.23743604060002
 20
188.27085055230006
 10
242.46840695955
 20
188.35530957785005
 10
242.7027957955
 20
188.47424724255006
 10
242.9371846315
 20
188.62592916755005
 10
243.16815555045
 20
188.80814348875006
 10
243.34059495385
 20
188.96666185270007
  0
ARC
  5
184
330
17
100
AcDbEntity
  8
0
  6
HIDDEN
 62
7
370
18
100
AcDbCircle
 10
241.38766132285
 20
191.87483872340005
 30
0.0
 40
3.2598405643438033
100
AcDbArc
 50
-14.76425096370005
 51
-0.5719951318999988
  0
LWPOLYLINE
  5
185
330
17
100
AcDbEntity
  8
0
  6
HIDDEN
 62
7
370
18
100
AcDbPolyline
 90
46
 70
128
 10
244.1170093579
 20
191.53614258705005
 10
244.1032463287
 20
191.30091632575005
 10
244.0622251229
 20
191.05437802080007
 10
243.99474417155
 20
190.80132625985007
 10
243.90211691465
 20
190.54668640765007
 10
243.78614623635
 20
190.29541473925005
 10
243.649089374
 20
190.05240197185006
 10
243.4936139836
 20
189.82237807255007
 10
243.32274621665
 20
189.60982019490007
 10
243.13981181995
 20
189.41886553620006
 10
242.94837140345
 20
189.25323081170006
 10
242.75215113705
 20
189.11613991290005
 10
242.5549702251
 20
189.01026115815006
 10
242.36066656970002
 20
188.93765535705006
 10
242.17302207055
 20
188.89973569890006
 10
241.9956890143
 20
188.89724024670005
 10
241.83211898725
 20
188.93021757160005
 10
241.6854956939
 20
188.99802580750006
 10
241.5586729899
 20
189.09934514420007
 10
241.45411933485
 20
189.23220351605005
 10
241.37386974675
 20
189.39401498600006
 10
241.31948619255002
 20
189.58163007780007
 10
241.2920271863
 20
189.79139707715007
 10
241.2920271863
 20
190.01923310795007
 10
241.31948619255002
 20
190.26070360110006
 10
241.37386974675
 20
190.51110860805005
 10
241.45411933485
 20
190.76557428020007
 10
241.5586729899
 20
191.01914773270005
 10
241.6854956939
 20
191.26689344670007
 10
241.83211898725
 20
191.50398933370005
 10
241.9956890143
 20
191.72582059195005
 10
242.17302207055
 20
191.92806952840007
 10
242.36066656970002
 20
192.10679959745005
 10
242.5549702251
 20
192.25853202170006
 10
242.75215113705
 20
192.38031350200006
 10
242.94837140345
 20
192.46977370050007
 10
243.13981181995
 20
192.52517137605005
 10
243.32274621665
 20
192.54542827605005
 10
243.4936139836
 20
192.53015012285005
 10
243.649089374
 20
192.47963428845006
 10
243.78614623635
 20
192.39486400600006
 10
243.90211691465
 20
192.27748923265005
 10
243.99474417155
 20
192.12979453490007
 10
244.0622251229
 20
191.95465462200005
 10
244.1032463287
 20
191.75547839315007
 10
244.1170093579
 20
191.53614258705005
  0
LWPOLYLINE
  5
186
330
17
100
AcDbEntity
  8
0
  6
HIDDEN
 62
7
370
18
100
AcDbPolyline
 90
46
 70
128
 10
232.4497474683
 20
198.27150950960007
 10
232.43598443915
 20
198.49084531570006
 10
232.3949632333
 20
198.69002154455006
 10
232.327482282
 20
198.86516145745006
 10
232.23485502505
 20
199.01285615520007
 10
232.11888434675
 20
199.13023092855005
 10
231.98182748445
 20
199.21500121095005
 10
231.82635209400001
 20
199.26551704540006
 10
231.65548432705
 20
199.28079519860006
 10
231.4725499304
 20
199.26053829860007
 10
231.28110951385
 20
199.20514062305006
 10
231.0848892475
 20
199.11568042455005
 10
230.88770833555
 20
198.99389894420005
 10
230.69340468015
 20
198.84216652000006
 10
230.50576018095
 20
198.66343645095006
 10
230.32842712475
 20
198.46118751450007
 10
230.1648570977
 20
198.23935625625006
 10
230.01823380435
 20
198.00226036925005
 10
229.8914111003
 20
197.75451465520007
 10
229.78685744525
 20
197.50094120275006
 10
229.70660785715
 20
197.24647553060007
 10
229.65222430295
 20
196.99607052365005
 10
229.6247652967
 20
196.75460003050006
 10
229.6247652967
 20
196.52676399970005
 10
229.65222430295
 20
196.31699700035006
 10
229.70660785715
 20
196.12938190855007
 10
229.78685744525
 20
195.96757043860006
 10
229.8914111003
 20
195.83471206675006
 10
230.01823380435
 20
195.73339273005007
 10
230.1648570977
 20
195.66558449415007
 10
230.32842712475
 20
195.63260716925006
 10
230.50576018095
 20
195.63510262145005
 10
230.69340468015
 20
195.67302227960005
 10
230.88770833555
 20
195.74562808070007
 10
231.0848892475
 20
195.85150683540007
 10
231.28110951385
 20
195.98859773425005
 10
231.4725499304
 20
196.15423245875007
 10
231.65548432705
 20
196.34518711745005
 10
231.82635209400001
 20
196.55774499510005
 10
231.98182748445
 20
196.78776889440005
 10
232.11888434675
 20
197.03078166180006
 10
232.23485502505
 20
197.28205333020006
 10
232.327482282
 20
197.53669318240006
 10
232.3949632333
 20
197.78974494330006
 10
232.43598443915
 20
198.03628324830007
 10
232.4497474683
 20
198.27150950960007
  0
LINE
  5
187
330
17
100
AcDbEntity
  8
0
  6
HIDDEN
 62
7
370
18
100
AcDbLine
 10
225.33935435145
 20
179.42653297375006
 30
0.0
 11
222.8644806173
 21
180.85524716945005
 31
0.0
  0
LINE
  5
188
330
17
100
AcDbEntity
  8
0
  6
HIDDEN
 62
7
370
18
100
AcDbLine
 10
220.11470410255
 20
176.09197842635007
 30
0.0
 11
222.58957783670002
 21
174.66326423065007
 31
0.0
  0
LINE
  5
189
330
17
100
AcDbEntity
  8
0
  6
HIDDEN
 62
7
370
18
100
AcDbLine
 10
222.48951109255
 20
180.20571052265007
 30
0.0
 11
210.82224920295
 21
186.94107744520005
 31
0.0
  0
LINE
  5
18A
330
17
100
AcDbEntity
  8
0
  6
HIDDEN
 62
7
370
18
100
AcDbLine
 10
208.8224117377
 20
183.47688199570007
 30
0.0
 11
220.4896736273
 21
176.74151507315005
 31
0.0
  0
LINE
  5
18B
330
17
100
AcDbEntity
  8
0
  6
HIDDEN
 62
7
370
18
100
AcDbLine
 10
216.30426741600002
 20
184.18713744445006
 30
0.0
 11
228.6786360868
 21
177.04356646600007
 31
0.0
  0
LINE
  5
18C
330
17
100
AcDbEntity
  8
0
  6
HIDDEN
 62
7
370
18
100
AcDbLine
 10
236.927965631
 20
191.33337269530006
 30
0.0
 11
224.55359696025
 21
198.47694367375007
 31
0.0
  0
LINE
  5
18D
330
17
100
AcDbEntity
  8
0
  6
HIDDEN
 62
7
370
18
100
AcDbLine
 10
229.55356497785002
 20
178.55915197520005
 30
0.0
 11
231.3213319308
 21
177.53864183540006
 31
0.0
  0
LINE
  5
18E
330
17
100
AcDbEntity
  8
0
  6
HIDDEN
 62
7
370
18
100
AcDbLine
 10
237.82080369295
 20
188.79727704635005
 30
0.0
 11
236.05303673995002
 21
189.81778718615007
 31
0.0
  0
LINE
  5
18F
330
17
100
AcDbEntity
  8
0
  6
HIDDEN
 62
7
370
18
100
AcDbLine
 10
246.55255778705
 20
191.67265465110006
 30
0.0
 11
244.0776840529
 21
193.10136884680006
 31
0.0
  0
LINE
  5
190
330
17
100
AcDbEntity
  8
0
  6
HIDDEN
 62
7
370
18
100
AcDbLine
 10
241.32790753815001
 20
188.33810010370007
 30
0.0
 11
243.8027812723
 21
186.90938590800005
 31
0.0
  0
LINE
  5
191
330
17
100
AcDbEntity
  8
0
  6
HIDDEN
 62
7
370
18
100
AcDbLine
 10
243.70271452815
 20
192.45183220000007
 30
0.0
 11
232.03545263855
 21
199.18719912255006
 31
0.0
  0
LINE
  5
192
330
17
100
AcDbEntity
  8
0
  6
HIDDEN
 62
7
370
18
100
AcDbLine
 10
230.03561517330002
 20
195.72300367300005
 30
0.0
 11
241.70287706285
 21
188.98763675050006
 31
0.0
  0
MTEXT
  5
1B4
330
17
100
AcDbEntity
  8
0
100
AcDbMText
 10
224.477
 20
22.51
 30
0.0
 40
4.2124
 71
7
  1
\T1.000000;ÉzÉãÉ_Å[
  7
GMM008
  0
MTEXT
  5
1B5
330
17
100
AcDbEntity
  8
0
100
AcDbMText
 10
224.477
 20
14.877
 30
0.0
 40
4.2124
 71
7
  1
\T1.000000;ÉeÉXÉgëïíu
  7
GMM008
  0
MTEXT
  5
1B6
330
17
100
AcDbEntity
  8
0
100
AcDbMText
 10
273.605
 20
20.498
 30
0.0
 40
4.2124
 71
7
  1
\T1.000000;ÉXÉPÅ[ÉãÅ|ÇOÇOÇQ
  7
GMM008
  0
MTEXT
  5
1B7
330
17
100
AcDbEntity
  8
0
100
AcDbMText
 10
191.878
 20
22.586
 30
0.0
 40
4.2124
 71
8
  1
\T1.000000;Ç`Çh
  7
GMM008
  0
MTEXT
  5
1B8
330
17
100
AcDbEntity
  8
0
100
AcDbMText
 10
207.705
 20
22.586
 30
0.0
 40
4.2124
 71
8
  1
\T1.000000;ÇQÇUÅDÇOÇWÅDÇPÇO
  7
GMM009
  0
MTEXT
  5
1B9
330
17
100
AcDbEntity
  8
0
100
AcDbMText
 10
207.705
 20
14.722
 30
0.0
 40
4.2124
 71
8
  1
\T1.000000;ÅñÅñÅDÅñÅñÅDÅñÅñ
  7
GMM009
  0
MTEXT
  5
1BB
330
17
100
AcDbEntity
  8
0
100
AcDbMText
 10
176.415
 20
22.446
 30
0.0
 40
4.2124
 71
8
  1
\T1.000000;ÇPÅFÇQ
  7
VF001
  0
MTEXT
  5
1BD
330
17
100
AcDbEntity
  8
0
100
AcDbMText
 10
19.324
 20
275.03
 30
0.0
 40
7.0
 71
8
  1
\T1.000000;ÇOÇQ
  7
VF002
  0
MTEXT
  5
1BE
330
17
100
AcDbEntity
  8
0
100
AcDbMText
 10
33.595
 20
280.001
 30
0.0
 40
7.0
 71
4
  1
\T1.000000;çﬁéøÅ@ÇrÇSÇTÇbÅ@É}ÉãÇWÇO\P\T1.000000;å¬êîÅ@ÇP
  7
VF001
  0
MTEXT
  5
1BF
330
17
100
AcDbEntity
  8
0
100
AcDbMText
 10
224.593
 20
6.704
 30
0.0
 40
4.2124107142857
 71
7
  1
\T1.000000;ÇPÅDÇOÇX
  7
GMM008
  0
DIMENSION
  5
1CE
330
17
100
AcDbEntity
  8
1
100
AcDbDimension
  2
*D1
  3
GEN001
 10
172.17068004088674
 20
83.7039931697
 30
0.0
 11
182.17068004088674
 21
86.2039931697
 31
0.0
 70
32
 71
5
  1
<>
100
AcDbAlignedDimension
 13
172.17068004088674
 23
107.70399316969075
 33
0.0
 14
192.17068004088674
 24
107.70399316969075
 34
0.0
 50
0.0
100
AcDbRotatedDimension
  0
DIMENSION
  5
1DE
330
17
100
AcDbEntity
  8
1
100
AcDbDimension
  2
*D2
  3
GEN002
 10
172.17068004088674
 20
91.7039931697
 30
0.0
 11
180.92068004088674
 21
94.2039931697
 31
0.0
 70
32
 71
5
  1
<>
100
AcDbAlignedDimension
 13
172.17068004088674
 23
107.70399316969075
 33
0.0
 14
189.67068004088674
 24
118.20399316969075
 34
0.0
 50
0.0
100
AcDbRotatedDimension
  0
DIMENSION
  5
1EE
330
17
100
AcDbEntity
  8
1
100
AcDbDimension
  2
*D3
  3
GEN003
 10
189.67068004088674
 20
91.7039931697
 30
0.0
 11
190.92068004088674
 21
96.2039931697
 31
0.0
 70
32
 71
5
  1
<>
100
AcDbAlignedDimension
 13
189.67068004088674
 23
118.20399316969075
 33
0.0
 14
192.17068004088674
 24
107.70399316969075
 34
0.0
 50
0.0
100
AcDbRotatedDimension
  0
DIMENSION
  5
1FE
330
17
100
AcDbEntity
  8
1
100
AcDbDimension
  2
*D4
  3
GEN004
 10
156.1706800409
 20
118.20399316969075
 30
0.0
 11
153.6706800409
 21
126.45399316969076
 31
0.0
 70
32
 71
5
  1
<>
100
AcDbAlignedDimension
 13
172.17068004088674
 23
118.20399316969075
 33
0.0
 14
172.17068004088674
 24
134.70399316969076
 34
0.0
 50
90.0
100
AcDbRotatedDimension
  0
DIMENSION
  5
20E
330
17
100
AcDbEntity
  8
1
100
AcDbDimension
  2
*D5
  3
GEN005
 10
203.1706800409
 20
119.95399316969075
 30
0.0
 11
198.6706800409
 21
126.45399316969076
 31
0.0
 70
32
 71
5
  1
<>
100
AcDbAlignedDimension
 13
192.17068004088674
 23
119.95399316969075
 33
0.0
 14
192.17068004088674
 24
132.95399316969076
 34
0.0
 50
90.0
100
AcDbRotatedDimension
  0
DIMENSION
  5
21E
330
17
100
AcDbEntity
  8
1
100
AcDbDimension
  2
*D6
  3
GEN006
 10
212.14089916958136
 20
137.20855135127286
 30
0.0
 11
254.5324424749086
 21
110.57760964444304
 31
0.0
 70
35
 71
5
  1
<>
100
AcDbDiametricDimension
 15
242.85910083041858
 25
115.69943498810864
 35
0.0
  0
DIMENSION
  5
22C
330
17
100
AcDbEntity
  8
1
100
AcDbDimension
  2
*D7
  3
GEN007
 10
212.49999999999997
 20
91.7039931697
 30
0.0
 11
227.49999999999997
 21
94.2039931697
 31
0.0
 70
32
 71
5
  1
<>
100
AcDbAlignedDimension
 13
212.49999999999997
 23
126.45399316969075
 33
0.0
 14
242.49999999999997
 24
126.45399316969075
 34
0.0
 50
0.0
100
AcDbRotatedDimension
  0
LEADER
  5
23C
330
17
100
AcDbEntity
  8
1
100
AcDbLeader
  3
GENLDR
 73
3
 76
3
 10
244.444543648263
 20
128.39853681795375
 30
0.0
 10
261.055543648263
 20
145.10153681795376
 30
0.0
 10
271.055543648263
 20
145.10153681795376
 30
0.0
  0
MTEXT
  5
23D
330
17
100
AcDbEntity
  8
1
100
AcDbMText
 10
272.055543648263
 20
145.10153681795376
 30
0.0
 40
4.0
 71
7
  1
\A1;ÇQÅ|ÇWÉLÉäÅ@ÉUÉOÉä%%cÇPÇPê[Ç≥ÇV\PÇoÇbÇcÇUÇO
  7
VF003
  0
MTEXT
  5
23E
330
17
100
AcDbEntity
  8
0
100
AcDbMText
 10
292.0
 20
78.0
 30
0.0
 40
3.5
 71
1
  1
íçãLÅD\PÅ@ìhëïêFÇÕçHî‘éwíËêFÇ∆Ç∑ÇÈÅB\PÅ@éwé¶ñ≥Ç´äpïîÇÕÇbÇOÅDÇQÅAã˜ïîÇÕÇqÇQà»â∫Ç∆Ç∑ÇÈÅB
  7
VF003
  0
ENDSEC
  0
SECTION
  2
OBJECTS
  0
DICTIONARY
  5
A
330
0
100
AcDbDictionary
281
1
  3
ACAD_COLOR
350
B
  3
ACAD_GROUP
350
C
  3
ACAD_LAYOUT
350
D
  3
ACAD_MATERIAL
350
E
  3
ACAD_MLEADERSTYLE
350
F
  3
ACAD_MLINESTYLE
350
10
  3
ACAD_PLOTSETTINGS
350
11
  3
ACAD_PLOTSTYLENAME
350
12
  3
ACAD_SCALELIST
350
14
  3
ACAD_TABLESTYLE
350
15
  3
ACAD_VISUALSTYLE
350
16
  3
EZDXF_META
350
2D
  0
DICTIONARY
  5
B
330
A
100
AcDbDictionary
281
1
  0
DICTIONARY
  5
C
330
A
100
AcDbDictionary
281
1
  0
DICTIONARY
  5
D
330
A
100
AcDbDictionary
281
1
  3
Model
350
1A
  3
Layout1
350
1E
  0
DICTIONARY
  5
E
330
A
100
AcDbDictionary
281
1
  3
ByBlock
350
1F
  3
ByLayer
350
20
  3
Global
350
21
  0
DICTIONARY
  5
F
330
A
100
AcDbDictionary
281
1
  3
Standard
350
2C
  0
DICTIONARY
  5
10
330
A
100
AcDbDictionary
281
1
  3
Standard
350
22
  0
DICTIONARY
  5
11
330
A
100
AcDbDictionary
281
1
  0
ACDBDICTIONARYWDFLT
  5
12
330
A
100
AcDbDictionary
281
1
  3
Normal
350
13
100
AcDbDictionaryWithDefault
340
13
  0
ACDBPLACEHOLDER
  5
13
330
12
  0
DICTIONARY
  5
14
330
A
100
AcDbDictionary
281
1
  0
DICTIONARY
  5
15
330
A
100
AcDbDictionary
281
1
  0
DICTIONARY
  5
16
330
A
100
AcDbDictionary
281
1
  0
LAYOUT
  5
1A
330
D
100
AcDbPlotSettings
  1

  4
A3
  6

 40
7.5
 41
20.0
 42
7.5
 43
20.0
 44
420.0
 45
297.0
 46
0.0
 47
0.0
 48
0.0
 49
0.0
140
0.0
141
0.0
142
1.0
143
1.0
 70
1024
 72
1
 73
0
 74
5
  7

 75
16
 76
0
 77
2
 78
300
147
1.0
148
0.0
149
0.0
100
AcDbLayout
  1
Model
 70
1
 71
0
 10
0.0
 20
0.0
 11
420.0
 21
297.0
 12
0.0
 22
0.0
 32
0.0
 14
1e+20
 24
1e+20
 34
1e+20
 15
-1e+20
 25
-1e+20
 35
-1e+20
146
0.0
 13
0.0
 23
0.0
 33
0.0
 16
1.0
 26
0.0
 36
0.0
 17
0.0
 27
1.0
 37
0.0
 76
1
330
17
  0
LAYOUT
  5
1E
330
D
100
AcDbPlotSettings
  1

  4
A3
  6

 40
7.5
 41
20.0
 42
7.5
 43
20.0
 44
420.0
 45
297.0
 46
0.0
 47
0.0
 48
0.0
 49
0.0
140
0.0
141
0.0
142
1.0
143
1.0
 70
0
 72
1
 73
0
 74
5
  7

 75
16
 76
0
 77
2
 78
300
147
1.0
148
0.0
149
0.0
100
AcDbLayout
  1
Layout1
 70
1
 71
1
 10
0.0
 20
0.0
 11
420.0
 21
297.0
 12
0.0
 22
0.0
 32
0.0
 14
1e+20
 24
1e+20
 34
1e+20
 15
-1e+20
 25
-1e+20
 35
-1e+20
146
0.0
 13
0.0
 23
0.0
 33
0.0
 16
1.0
 26
0.0
 36
0.0
 17
0.0
 27
1.0
 37
0.0
 76
1
330
1B
  0
MATERIAL
  5
1F
102
{ACAD_REACTORS
330
E
102
}
330
E
100
AcDbMaterial
  1
ByBlock
  2

 70
0
 40
1.0
 71
1
 41
1.0
 91
-1023410177
 42
1.0
 72
1
  3

 73
1
 74
1
 75
1
 44
0.5
 73
0
 45
1.0
 46
1.0
 77
1
  4

 78
1
 79
1
170
1
 48
1.0
171
1
  6

172
1
173
1
174
1
140
1.0
141
1.0
175
1
  7

176
1
177
1
178
1
143
1.0
179
1
  8

270
1
271
1
272
1
145
1.0
146
1.0
273
1
  9

274
1
275
1
276
1
 42
1.0
 72
1
  3

 73
1
 74
1
 75
1
 94
63
  0
MATERIAL
  5
20
102
{ACAD_REACTORS
330
E
102
}
330
E
100
AcDbMaterial
  1
ByLayer
  2

 70
0
 40
1.0
 71
1
 41
1.0
 91
-1023410177
 42
1.0
 72
1
  3

 73
1
 74
1
 75
1
 44
0.5
 73
0
 45
1.0
 46
1.0
 77
1
  4

 78
1
 79
1
170
1
 48
1.0
171
1
  6

172
1
173
1
174
1
140
1.0
141
1.0
175
1
  7

176
1
177
1
178
1
143
1.0
179
1
  8

270
1
271
1
272
1
145
1.0
146
1.0
273
1
  9

274
1
275
1
276
1
 42
1.0
 72
1
  3

 73
1
 74
1
 75
1
 94
63
  0
MATERIAL
  5
21
102
{ACAD_REACTORS
330
E
102
}
330
E
100
AcDbMaterial
  1
Global
  2

 70
0
 40
1.0
 71
1
 41
1.0
 91
-1023410177
 42
1.0
 72
1
  3

 73
1
 74
1
 75
1
 44
0.5
 73
0
 45
1.0
 46
1.0
 77
1
  4

 78
1
 79
1
170
1
 48
1.0
171
1
  6

172
1
173
1
174
1
140
1.0
141
1.0
175
1
  7

176
1
177
1
178
1
143
1.0
179
1
  8

270
1
271
1
272
1
145
1.0
146
1.0
273
1
  9

274
1
275
1
276
1
 42
1.0
 72
1
  3

 73
1
 74
1
 75
1
 94
63
  0
MLINESTYLE
  5
22
102
{ACAD_REACTORS
330
10
102
}
330
10
100
AcDbMlineStyle
  2
Standard
 70
0
  3

 62
256
 51
90.0
 52
90.0
 71
2
 49
0.5
 62
256
  6
BYLAYER
 49
-0.5
 62
256
  6
BYLAYER
  0
MLEADERSTYLE
  5
2C
102
{ACAD_REACTORS
330
F
102
}
330
F
100
AcDbMLeaderStyle
179
2
170
2
171
1
172
0
 90
2
 40
0.0
 41
0.0
173
1
 91
-1056964608
 92
-2
290
1
 42
2.0
291
1
 43
8.0
  3
Standard
 44
4.0
300

342
29
174
1
175
1
176
0
178
1
 93
-1056964608
 45
4.0
292
0
297
0
 46
4.0
 94
-1056964608
 47
1.0
 49
1.0
140
1.0
294
1
141
0.0
177
0
142
1.0
295
0
296
0
143
3.75
271
0
272
9
273
9
  0
DICTIONARY
  5
2D
330
A
100
AcDbDictionary
280
1
281
1
  3
CREATED_BY_EZDXF
350
2E
  3
WRITTEN_BY_EZDXF
350
131
  0
DICTIONARYVAR
  5
2E
330
2D
100
DictionaryVariables
280
0
  1
1.4.4 @ 2026-08-09T08:45:52.074753+00:00
  0
DICTIONARYVAR
  5
131
330
2D
100
DictionaryVariables
280
0
  1
1.4.4 @ 2026-08-10T03:46:45.312490+00:00
  0
ENDSEC
  0
EOF
