  0
SECTION
  2
HEADER
  9
$ACADVER
  1
AC1015
  9
$ACADMAINTVER
 70
     6
  9
$DWGCODEPAGE
  3
DOS932
  9
$INSBASE
 10
0.0
 20
0.0
 30
0.0
  9
$EXTMIN
 10
0.0
 20
0.0
 30
0.0
  9
$EXTMAX
 10
841.0
 20
594.0
 30
0.0
  9
$LIMMIN
 10
0.0
 20
0.0
  9
$LIMMAX
 10
841.0
 20
594.0
  9
$ORTHOMODE
 70
     0
  9
$REGENMODE
 70
     1
  9
$FILLMODE
 70
     1
  9
$QTEXTMODE
 70
     0
  9
$MIRRTEXT
 70
     1
  9
$LTSCALE
 40
1.0
  9
$ATTMODE
 70
     1
  9
$TEXTSIZE
 40
3.5
  9
$TRACEWID
 40
1.0
  9
$TEXTSTYLE
  7
Standard
  9
$CLAYER
  8
0
  9
$CELTYPE
  6
ByLayer
  9
$CECOLOR
 62
   256
  9
$CELTSCALE
 40
1.0
  9
$DISPSILH
 70
     0
  9
$DIMSCALE
 40
1.0
  9
$DIMASZ
 40
3.302
  9
$DIMEXO
 40
1.0
  9
$DIMDLI
 40
3.75
  9
$DIMRND
 40
0.0
  9
$DIMDLE
 40
0.0
  9
$DIMEXE
 40
1.0
  9
$DIMTP
 40
0.0
  9
$DIMTM
 40
0.0
  9
$DIMTXT
 40
3.5
  9
$DIMCEN
 40
2.5
  9
$DIMTSZ
 40
0.0
  9
$DIMTOL
 70
     0
  9
$DIMLIM
 70
     0
  9
$DIMTIH
 70
     1
  9
$DIMTOH
 70
     1
  9
$DIMSE1
 70
     0
  9
$DIMSE2
 70
     0
  9
$DIMTAD
 70
     1
  9
$DIMZIN
 70
     1
  9
$DIMBLK
  1

  9
$DIMASO
 70
     1
  9
$DIMSHO
 70
     1
  9
$DIMPOST
  1

  9
$DIMAPOST
  1

  9
$DIMALT
 70
     0
  9
$DIMALTD
 70
     3
  9
$DIMALTF
 40
0.0393700787
  9
$DIMLFAC
 40
0.5
  9
$DIMTOFL
 70
     1
  9
$DIMTVP
 40
0.0
  9
$DIMTIX
 70
     0
  9
$DIMSOXD
 70
     0
  9
$DIMSAH
 70
     0
  9
$DIMBLK1
  1

  9
$DIMBLK2
  1

  9
$DIMSTYLE
  2
ISO-25
  9
$DIMCLRD
 70
     0
  9
$DIMCLRE
 70
     0
  9
$DIMCLRT
 70
     0
  9
$DIMTFAC
 40
1.0
  9
$DIMGAP
 40
1.524
  9
$DIMJUST
 70
     0
  9
$DIMSD1
 70
     0
  9
$DIMSD2
 70
     0
  9
$DIMTOLJ
 70
     0
  9
$DIMTZIN
 70
     1
  9
$DIMALTZ
 70
     0
  9
$DIMALTTZ
 70
     0
  9
$DIMUPT
 70
     0
  9
$DIMDEC
 70
     2
  9
$DIMTDEC
 70
     2
  9
$DIMALTU
 70
     2
  9
$DIMALTTD
 70
     3
  9
$DIMTXSTY
  7
Standard
  9
$DIMAUNIT
 70
     0
  9
$DIMADEC
 70
     2
  9
$DIMALTRND
 40
0.0
  9
$DIMAZIN
 70
     0
  9
$DIMDSEP
 70
    44
  9
$DIMATFIT
 70
     3
  9
$DIMFRAC
 70
     0
  9
$DIMLDRBLK
  1

  9
$DIMLUNIT
 70
     2
  9
$DIMLWD
 70
    -2
  9
$DIMLWE
 70
    -2
  9
$DIMTMOVE
 70
     0
  9
$LUNITS
 70
     2
  9
$LUPREC
 70
     2
  9
$SKETCHINC
 40
1.0
  9
$FILLETRAD
 40
0.0
  9
$AUNITS
 70
     0
  9
$AUPREC
 70
     2
  9
$MENU
  1
.
  9
$ELEVATION
 40
0.0
  9
$PELEVATION
 40
0.0
  9
$THICKNESS
 40
0.0
  9
$LIMCHECK
 70
     0
  9
$CHAMFERA
 40
0.0
  9
$CHAMFERB
 40
0.0
  9
$CHAMFERC
 40
0.0
  9
$CHAMFERD
 40
0.0
  9
$SKPOLY
 70
     0
  9
$TDCREATE
 40
2461263.427465035
  9
$TDUCREATE
 40
2461263.052465035
  9
$TDUPDATE
 40
2461263.427465741
  9
$TDUUPDATE
 40
2461263.052465741
  9
$TDINDWG
 40
0.0000000116
  9
$TDUSRTIMER
 40
0.0000000116
  9
$USRTIMER
 70
     1
  9
$ANGBASE
 50
0.0
  9
$ANGDIR
 70
     0
  9
$PDMODE
 70
     0
  9
$PDSIZE
 40
-1.0
  9
$PLINEWID
 40
0.0
  9
$SPLFRAME
 70
     0
  9
$SPLINETYPE
 70
     6
  9
$SPLINESEGS
 70
     8
  9
$HANDSEED
  5
118
  9
$SURFTAB1
 70
     6
  9
$SURFTAB2
 70
     6
  9
$SURFTYPE
 70
     6
  9
$SURFU
 70
     6
  9
$SURFV
 70
     6
  9
$UCSBASE
  2

  9
$UCSNAME
  2

  9
$UCSORG
 10
0.0
 20
0.0
 30
0.0
  9
$UCSXDIR
 10
1.0
 20
0.0
 30
0.0
  9
$UCSYDIR
 10
0.0
 20
1.0
 30
0.0
  9
$UCSORTHOREF
  2

  9
$UCSORTHOVIEW
 70
     0
  9
$UCSORGTOP
 10
0.0
 20
0.0
 30
0.0
  9
$UCSORGBOTTOM
 10
0.0
 20
0.0
 30
0.0
  9
$UCSORGLEFT
 10
0.0
 20
0.0
 30
0.0
  9
$UCSORGRIGHT
 10
0.0
 20
0.0
 30
0.0
  9
$UCSORGFRONT
 10
0.0
 20
0.0
 30
0.0
  9
$UCSORGBACK
 10
0.0
 20
0.0
 30
0.0
  9
$PUCSBASE
  2

  9
$PUCSNAME
  2

  9
$PUCSORG
 10
0.0
 20
0.0
 30
0.0
  9
$PUCSXDIR
 10
1.0
 20
0.0
 30
0.0
  9
$PUCSYDIR
 10
0.0
 20
1.0
 30
0.0
  9
$PUCSORTHOREF
  2

  9
$PUCSORTHOVIEW
 70
     0
  9
$PUCSORGTOP
 10
0.0
 20
0.0
 30
0.0
  9
$PUCSORGBOTTOM
 10
0.0
 20
0.0
 30
0.0
  9
$PUCSORGLEFT
 10
0.0
 20
0.0
 30
0.0
  9
$PUCSORGRIGHT
 10
0.0
 20
0.0
 30
0.0
  9
$PUCSORGFRONT
 10
0.0
 20
0.0
 30
0.0
  9
$PUCSORGBACK
 10
0.0
 20
0.0
 30
0.0
  9
$USERI1
 70
     0
  9
$USERI2
 70
     0
  9
$USERI3
 70
     0
  9
$USERI4
 70
     0
  9
$USERI5
 70
     0
  9
$USERR1
 40
0.0
  9
$USERR2
 40
0.0
  9
$USERR3
 40
0.0
  9
$USERR4
 40
0.0
  9
$USERR5
 40
0.0
  9
$WORLDVIEW
 70
     1
  9
$SHADEDGE
 70
     3
  9
$SHADEDIF
 70
    70
  9
$TILEMODE
 70
     1
  9
$MAXACTVP
 70
    64
  9
$PINSBASE
 10
0.0
 20
0.0
 30
0.0
  9
$PLIMCHECK
 70
     0
  9
$PEXTMIN
 10
1.0000000000E+20
 20
1.0000000000E+20
 30
1.0000000000E+20
  9
$PEXTMAX
 10
-1.0000000000E+20
 20
-1.0000000000E+20
 30
-1.0000000000E+20
  9
$PLIMMIN
 10
0.0
 20
0.0
  9
$PLIMMAX
 10
420.0
 20
297.0
  9
$UNITMODE
 70
     0
  9
$VISRETAIN
 70
     1
  9
$PLINEGEN
 70
     0
  9
$PSLTSCALE
 70
     1
  9
$TREEDEPTH
 70
  3020
  9
$CMLSTYLE
  2
Standard
  9
$CMLJUST
 70
     0
  9
$CMLSCALE
 40
20.0
  9
$PROXYGRAPHICS
 70
     1
  9
$MEASUREMENT
 70
     1
  9
$CELWEIGHT
370
    -1
  9
$ENDCAPS
280
     0
  9
$JOINSTYLE
280
     0
  9
$LWDISPLAY
290
     1
  9
$INSUNITS
 70
     4
  9
$HYPERLINKBASE
  1

  9
$STYLESHEET
  1

  9
$XEDIT
290
     1
  9
$CEPSNTYPE
380
     0
  9
$PSTYLEMODE
290
     1
  9
$FINGERPRINTGUID
  2
{11773bca-9091-4fd1-9d97-f215f040fed6}
  9
$VERSIONGUID
  2
{FAEB1C32-E019-11D5-929B-00C0DF256EC4}
  9
$EXTNAMES
290
     1
  9
$PSVPSCALE
 40
0.0
  9
$OLESTARTUP
290
     0
  0
ENDSEC
  0
SECTION
  2
CLASSES
  0
CLASS
  1
ACDBDICTIONARYWDFLT
  2
AcDbDictionaryWithDefault
  3
ObjectDBX Classes
 90
        0
280
     0
281
     0
  0
CLASS
  1
VISUALSTYLE
  2
AcDbVisualStyle
  3
ObjectDBX Classes
 90
     4095
280
     0
281
     0
  0
CLASS
  1
MATERIAL
  2
AcDbMaterial
  3
ObjectDBX Classes
 90
     1153
280
     0
281
     0
  0
CLASS
  1
SCALE
  2
AcDbScale
  3
ObjectDBX Classes
 90
     1153
280
     0
281
     0
  0
CLASS
  1
TABLESTYLE
  2
AcDbTableStyle
  3
ObjectDBX Classes
 90
     4095
280
     0
281
     0
  0
CLASS
  1
MLEADERSTYLE
  2
AcDbMLeaderStyle
  3
ACDB_MLEADERSTYLE_CLASS
 90
     4095
280
     0
281
     0
  0
CLASS
  1
SUN
  2
AcDbSun
  3
SCENEOE
 90
     1153
280
     0
281
     0
  0
CLASS
  1
ACDBPLACEHOLDER
  2
AcDbPlaceHolder
  3
ObjectDBX Classes
 90
        0
280
     0
281
     0
  0
CLASS
  1
LAYOUT
  2
AcDbLayout
  3
ObjectDBX Classes
 90
        0
280
     0
281
     0
  0
ENDSEC
  0
SECTION
  2
TABLES
  0
TABLE
  2
VPORT
  5
8
330
0
100
AcDbSymbolTable
 70
     1
  0
VPORT
  5
29
330
8
100
AcDbSymbolTableRecord
100
AcDbViewportTableRecord
  2
*Active
 70
     0
 10
0.0
 20
0.0
 11
1.0
 21
1.0
 12
420.5
 22
297.0
 13
0.0
 23
0.0
 14
10.0
 24
10.0
 15
10.0
 25
10.0
 16
0.0
 26
0.0
 36
1.0
 17
0.0
 27
0.0
 37
0.0
 40
594.0
 41
1.4158249158
 42
50.0
 43
0.0
 44
0.0
 50
0.0
 51
0.0
 71
     0
 72
  2000
 73
     1
 74
     3
 75
     0
 76
     0
 77
     0
 78
     0
281
     0
 65
     1
110
0.0
120
0.0
130
0.0
111
1.0
121
0.0
131
0.0
112
0.0
122
1.0
132
0.0
 79
     0
146
0.0
  0
ENDTAB
  0
TABLE
  2
LTYPE
  5
5
330
0
100
AcDbSymbolTable
 70
     6
  0
LTYPE
  5
14
330
5
100
AcDbSymbolTableRecord
100
AcDbLinetypeTableRecord
  2
ByBlock
 70
     0
  3

 72
    65
 73
     0
 40
0.0
  0
LTYPE
  5
15
330
5
100
AcDbSymbolTableRecord
100
AcDbLinetypeTableRecord
  2
ByLayer
 70
     0
  3

 72
    65
 73
     0
 40
0.0
  0
LTYPE
  5
16
330
5
100
AcDbSymbolTableRecord
100
AcDbLinetypeTableRecord
  2
Continuous
 70
     0
  3
Solid line
 72
    65
 73
     0
 40
0.0
  0
LTYPE
  5
5E
330
5
100
AcDbSymbolTableRecord
100
AcDbLinetypeTableRecord
  2
HIDDEN
 70
     0
  3
Hidden __ __ __ __ __ __ __ __ __ __ __ __ __ __
 72
    65
 73
     2
 40
1.905
 49
1.27
 74
     0
 49
-0.635
 74
     0
  0
LTYPE
  5
5F
330
5
100
AcDbSymbolTableRecord
100
AcDbLinetypeTableRecord
  2
PHANTOM
 70
     0
  3
Phantom ______  __  __  ______  __  __  ______
 72
    65
 73
     6
 40
12.7
 49
6.35
 74
     0
 49
-1.27
 74
     0
 49
1.27
 74
     0
 49
-1.27
 74
     0
 49
1.27
 74
     0
 49
-1.27
 74
     0
  0
LTYPE
  5
60
330
5
100
AcDbSymbolTableRecord
100
AcDbLinetypeTableRecord
  2
CENTER
 70
     0
  3
Center ____ _ ____ _ ____ _ ____ _ ____ _ ____
 72
    65
 73
     4
 40
10.16
 49
6.35
 74
     0
 49
-1.27
 74
     0
 49
1.27
 74
     0
 49
-1.27
 74
     0
  0
LTYPE
  5
61
330
5
100
AcDbSymbolTableRecord
100
AcDbLinetypeTableRecord
  2
CENTERX2
 70
     0
  3
Center (2x) ________  __  ________  __  _____
 72
    65
 73
     4
 40
20.32
 49
12.7
 74
     0
 49
-2.54
 74
     0
 49
2.54
 74
     0
 49
-2.54
 74
     0
  0
LTYPE
  5
62
330
5
100
AcDbSymbolTableRecord
100
AcDbLinetypeTableRecord
  2
DOT2
 70
     0
  3
Dot (.5x) ........................................
 72
    65
 73
     2
 40
0.635
 49
0.0
 74
     0
 49
-0.635
 74
     0
  0
ENDTAB
  0
TABLE
  2
LAYER
  5
2
330
0
100
AcDbSymbolTable
 70
     1
  0
LAYER
  5
10
330
2
100
AcDbSymbolTableRecord
100
AcDbLayerTableRecord
  2
0
 70
     0
 62
     7
  6
Continuous
370
    -3
390
F
  0
ENDTAB
  0
TABLE
  2
STYLE
  5
3
330
0
100
AcDbSymbolTable
 70
     1
  0
STYLE
  5
11
330
3
100
AcDbSymbolTableRecord
100
AcDbTextStyleTableRecord
  2
Standard
 70
     0
 40
0.0
 41
1.0
 50
0.0
 71
     0
 42
3.5
  3
txt
  4
bigfont
  0
ENDTAB
  0
TABLE
  2
VIEW
  5
6
330
0
100
AcDbSymbolTable
 70
     0
  0
ENDTAB
  0
TABLE
  2
UCS
  5
7
330
0
100
AcDbSymbolTable
 70
     0
  0
ENDTAB
  0
TABLE
  2
APPID
  5
9
330
0
100
AcDbSymbolTable
 70
     1
  0
APPID
  5
12
330
9
100
AcDbSymbolTableRecord
100
AcDbRegAppTableRecord
  2
ACAD
 70
     0
  0
ENDTAB
  0
TABLE
  2
DIMSTYLE
  5
A
330
0
100
AcDbSymbolTable
 70
     1
100
AcDbDimStyleTable
  0
DIMSTYLE
105
27
330
A
100
AcDbSymbolTableRecord
100
AcDbDimStyleTableRecord
  2
ISO-25
 70
     0
 41
2.5
 42
0.625
 43
3.75
 44
1.25
 73
     0
 74
     0
 77
     1
 78
     8
140
2.5
141
2.5
143
0.0393700787
147
0.625
171
     3
172
     1
178
     0
271
     2
272
     2
274
     3
278
    44
283
     0
284
     8
340
11
  0
ENDTAB
  0
TABLE
  2
BLOCK_RECORD
  5
1
330
0
100
AcDbSymbolTable
 70
     1
  0
BLOCK_RECORD
  5
1F
330
1
100
AcDbSymbolTableRecord
100
AcDbBlockTableRecord
  2
*Model_Space
340
22
  0
BLOCK_RECORD
  5
1B
330
1
100
AcDbSymbolTableRecord
100
AcDbBlockTableRecord
  2
*Paper_Space
340
1E
  0
BLOCK_RECORD
  5
23
330
1
100
AcDbSymbolTableRecord
100
AcDbBlockTableRecord
  2
*Paper_Space0
340
26
  0
ENDTAB
  0
ENDSEC
  0
SECTION
  2
BLOCKS
  0
BLOCK
  5
20
330
1F
100
AcDbEntity
  8
0
100
AcDbBlockBegin
  2
*Model_Space
 70
     0
 10
0.0
 20
0.0
 30
0.0
  3
*Model_Space
  1

  0
ENDBLK
  5
21
330
1F
100
AcDbEntity
  8
0
100
AcDbBlockEnd
  0
BLOCK
  5
1C
330
1B
100
AcDbEntity
 67
     1
  8
0
100
AcDbBlockBegin
  2
*Paper_Space
 70
     0
 10
0.0
 20
0.0
 30
0.0
  3
*Paper_Space
  1

  0
ENDBLK
  5
1D
330
1B
100
AcDbEntity
 67
     1
  8
0
100
AcDbBlockEnd
  0
BLOCK
  5
24
330
23
100
AcDbEntity
  8
0
100
AcDbBlockBegin
  2
*Paper_Space0
 70
     0
 10
0.0
 20
0.0
 30
0.0
  3
*Paper_Space0
  1

  0
ENDBLK
  5
25
330
23
100
AcDbEntity
  8
0
100
AcDbBlockEnd
  0
ENDSEC
  0
SECTION
  2
ENTITIES
  0
LINE
  5
63
330
1F
100
AcDbEntity
  8
0
  6
Continuous
 62
     7
370
    25
100
AcDbLine
 10
287.2230303803
 20
234.7752318479
 30
0.0
 11
287.2230303803
 21
204.7752318479
 31
0.0
  0
LINE
  5
64
330
1F
100
AcDbEntity
  8
0
  6
Continuous
 62
     7
370
    25
100
AcDbLine
 10
371.2230303803
 20
204.7752318479
 30
0.0
 11
371.2230303803
 21
234.7752318479
 31
0.0
  0
ARC
  5
65
330
1F
100
AcDbEntity
  8
0
  6
Continuous
 62
     7
370
    25
100
AcDbCircle
 10
365.7230303803
 20
203.2752318479
 30
0.0
 40
1.5
100
AcDbArc
 50
90.0
 51
180.0
  0
ARC
  5
66
330
1F
100
AcDbEntity
  8
0
  6
Continuous
 62
     7
370
    25
100
AcDbCircle
 10
292.7230303803
 20
203.2752318479
 30
0.0
 40
1.5
100
AcDbArc
 50
0.0
 51
90.0
  0
LINE
  5
67
330
1F
100
AcDbEntity
  8
0
  6
Continuous
 62
     7
370
    25
100
AcDbLine
 10
364.2230303803
 20
195.7752318479
 30
0.0
 11
364.2230303803
 21
203.2752318479
 31
0.0
  0
LINE
  5
68
330
1F
100
AcDbEntity
  8
0
  6
Continuous
 62
     7
370
    25
100
AcDbLine
 10
294.2230303803
 20
195.7752318479
 30
0.0
 11
295.2230303803
 21
194.7752318479
 31
0.0
  0
LINE
  5
69
330
1F
100
AcDbEntity
  8
0
  6
Continuous
 62
     7
370
    25
100
AcDbLine
 10
294.2230303803
 20
203.2752318479
 30
0.0
 11
294.2230303803
 21
195.7752318479
 31
0.0
  0
LINE
  5
6A
330
1F
100
AcDbEntity
  8
0
  6
Continuous
 62
     7
370
    25
100
AcDbLine
 10
363.2230303803
 20
194.7752318479
 30
0.0
 11
364.2230303803
 21
195.7752318479
 31
0.0
  0
LINE
  5
6B
330
1F
100
AcDbEntity
  8
0
  6
Continuous
 62
     7
370
    25
100
AcDbLine
 10
316.7230303803
 20
192.2752318479
 30
0.0
 11
317.2230303803
 21
191.7752318479
 31
0.0
  0
LINE
  5
6C
330
1F
100
AcDbEntity
  8
0
  6
Continuous
 62
     7
370
    25
100
AcDbLine
 10
341.2230303803
 20
191.7752318479
 30
0.0
 11
341.7230303803
 21
192.2752318479
 31
0.0
  0
LINE
  5
6D
330
1F
100
AcDbEntity
  8
0
  6
Continuous
 62
     7
370
    25
100
AcDbLine
 10
341.7230303803
 20
192.2752318479
 30
0.0
 11
341.7230303803
 21
194.7752318479
 31
0.0
  0
LINE
  5
6E
330
1F
100
AcDbEntity
  8
0
  6
Continuous
 62
     7
370
    25
100
AcDbLine
 10
316.7230303803
 20
194.7752318479
 30
0.0
 11
316.7230303803
 21
192.2752318479
 31
0.0
  0
LINE
  5
6F
330
1F
100
AcDbEntity
  8
0
  6
Continuous
 62
     7
370
    25
100
AcDbLine
 10
329.2230303803
 20
234.7752318479
 30
0.0
 11
287.2230303803
 21
234.7752318479
 31
0.0
  0
LINE
  5
70
330
1F
100
AcDbEntity
  8
0
  6
Continuous
 62
     7
370
    25
100
AcDbLine
 10
329.2230303803
 20
204.7752318479
 30
0.0
 11
287.2230303803
 21
204.7752318479
 31
0.0
  0
LINE
  5
71
330
1F
100
AcDbEntity
  8
0
  6
Continuous
 62
     7
370
    25
100
AcDbLine
 10
371.2230303803
 20
234.7752318479
 30
0.0
 11
329.2230303803
 21
234.7752318479
 31
0.0
  0
LINE
  5
72
330
1F
100
AcDbEntity
  8
0
  6
Continuous
 62
     7
370
    25
100
AcDbLine
 10
371.2230303803
 20
204.7752318479
 30
0.0
 11
329.2230303803
 21
204.7752318479
 31
0.0
  0
LINE
  5
73
330
1F
100
AcDbEntity
  8
0
  6
Continuous
 62
     7
370
    25
100
AcDbLine
 10
364.2230303803
 20
195.7752318479
 30
0.0
 11
329.2230303803
 21
195.7752318479
 31
0.0
  0
LINE
  5
74
330
1F
100
AcDbEntity
  8
0
  6
Continuous
 62
     7
370
    25
100
AcDbLine
 10
329.2230303803
 20
195.7752318479
 30
0.0
 11
294.2230303803
 21
195.7752318479
 31
0.0
  0
LINE
  5
75
330
1F
100
AcDbEntity
  8
0
  6
Continuous
 62
     7
370
    25
100
AcDbLine
 10
329.2230303803
 20
194.7752318479
 30
0.0
 11
295.2230303803
 21
194.7752318479
 31
0.0
  0
LINE
  5
76
330
1F
100
AcDbEntity
  8
0
  6
Continuous
 62
     7
370
    25
100
AcDbLine
 10
363.2230303803
 20
194.7752318479
 30
0.0
 11
329.2230303803
 21
194.7752318479
 31
0.0
  0
LINE
  5
77
330
1F
100
AcDbEntity
  8
0
  6
Continuous
 62
     7
370
    25
100
AcDbLine
 10
329.2230303803
 20
192.2752318479
 30
0.0
 11
316.7230303803
 21
192.2752318479
 31
0.0
  0
LINE
  5
78
330
1F
100
AcDbEntity
  8
0
  6
Continuous
 62
     7
370
    25
100
AcDbLine
 10
329.2230303803
 20
191.7752318479
 30
0.0
 11
317.2230303803
 21
191.7752318479
 31
0.0
  0
LINE
  5
79
330
1F
100
AcDbEntity
  8
0
  6
Continuous
 62
     7
370
    25
100
AcDbLine
 10
341.7230303803
 20
192.2752318479
 30
0.0
 11
329.2230303803
 21
192.2752318479
 31
0.0
  0
LINE
  5
7A
330
1F
100
AcDbEntity
  8
0
  6
Continuous
 62
     7
370
    25
100
AcDbLine
 10
341.2230303803
 20
191.7752318479
 30
0.0
 11
329.2230303803
 21
191.7752318479
 31
0.0
  0
LINE
  5
7B
330
1F
100
AcDbEntity
  8
0
  6
HIDDEN
 62
     7
370
    18
100
AcDbLine
 10
358.2230303803
 20
223.7752318479
 30
0.0
 11
329.2230303803
 21
223.7752318479
 31
0.0
  0
LINE
  5
7C
330
1F
100
AcDbEntity
  8
0
  6
HIDDEN
 62
     7
370
    18
100
AcDbLine
 10
329.2230303803
 20
223.7752318479
 30
0.0
 11
300.2230303803
 21
223.7752318479
 31
0.0
  0
LINE
  5
7D
330
1F
100
AcDbEntity
  8
0
  6
HIDDEN
 62
     7
370
    18
100
AcDbLine
 10
358.2230303803
 20
223.7752318479
 30
0.0
 11
358.2230303803
 21
234.7752318479
 31
0.0
  0
LINE
  5
7E
330
1F
100
AcDbEntity
  8
0
  6
HIDDEN
 62
     7
370
    18
100
AcDbLine
 10
300.2230303803
 20
234.7752318479
 30
0.0
 11
300.2230303803
 21
223.7752318479
 31
0.0
  0
LINE
  5
7F
330
1F
100
AcDbEntity
  8
0
  6
HIDDEN
 62
     7
370
    18
100
AcDbLine
 10
333.7230303803
 20
223.7752318479
 30
0.0
 11
333.7230303803
 21
194.7752318479
 31
0.0
  0
LINE
  5
80
330
1F
100
AcDbEntity
  8
0
  6
HIDDEN
 62
     7
370
    18
100
AcDbLine
 10
344.7230303803
 20
194.7752318479
 30
0.0
 11
344.7230303803
 21
223.7752318479
 31
0.0
  0
LINE
  5
81
330
1F
100
AcDbEntity
  8
0
  6
HIDDEN
 62
     7
370
    18
100
AcDbLine
 10
324.7230303803
 20
194.7752318479
 30
0.0
 11
324.7230303803
 21
223.7752318479
 31
0.0
  0
LINE
  5
82
330
1F
100
AcDbEntity
  8
0
  6
HIDDEN
 62
     7
370
    18
100
AcDbLine
 10
313.7230303803
 20
223.7752318479
 30
0.0
 11
313.7230303803
 21
194.7752318479
 31
0.0
  0
LINE
  5
83
330
1F
100
AcDbEntity
  8
0
  6
HIDDEN
 62
     7
370
    18
100
AcDbLine
 10
339.2230303803
 20
191.7752318479
 30
0.0
 11
339.2230303803
 21
223.7752318479
 31
0.0
  0
LINE
  5
84
330
1F
100
AcDbEntity
  8
0
  6
HIDDEN
 62
     7
370
    18
100
AcDbLine
 10
319.2230303803
 20
223.7752318479
 30
0.0
 11
319.2230303803
 21
191.7752318479
 31
0.0
  0
LINE
  5
85
330
1F
100
AcDbEntity
  8
0
  6
HIDDEN
 62
     7
370
    18
100
AcDbLine
 10
354.7230303803
 20
194.7752318479
 30
0.0
 11
354.7230303803
 21
223.7752318479
 31
0.0
  0
LINE
  5
86
330
1F
100
AcDbEntity
  8
0
  6
HIDDEN
 62
     7
370
    18
100
AcDbLine
 10
343.7230303803
 20
223.7752318479
 30
0.0
 11
343.7230303803
 21
194.7752318479
 31
0.0
  0
LINE
  5
87
330
1F
100
AcDbEntity
  8
0
  6
HIDDEN
 62
     7
370
    18
100
AcDbLine
 10
314.7230303803
 20
194.7752318479
 30
0.0
 11
314.7230303803
 21
223.7752318479
 31
0.0
  0
LINE
  5
88
330
1F
100
AcDbEntity
  8
0
  6
HIDDEN
 62
     7
370
    18
100
AcDbLine
 10
303.7230303803
 20
223.7752318479
 30
0.0
 11
303.7230303803
 21
194.7752318479
 31
0.0
  0
ARC
  5
89
330
1F
100
AcDbEntity
  8
0
  6
Continuous
 62
     7
370
    25
100
AcDbCircle
 10
329.2230303803
 20
350.38
 30
0.0
 40
29.0
100
AcDbArc
 50
90.0
 51
270.0
  0
ARC
  5
8A
330
1F
100
AcDbEntity
  8
0
  6
Continuous
 62
     7
370
    25
100
AcDbCircle
 10
329.2230303803
 20
350.38
 30
0.0
 40
29.0
100
AcDbArc
 50
270.0
 51
90.0
  0
ARC
  5
8B
330
1F
100
AcDbEntity
  8
0
  6
Continuous
 62
     7
370
    25
100
AcDbCircle
 10
329.2230303803
 20
350.38
 30
0.0
 40
42.0
100
AcDbArc
 50
90.0
 51
270.0
  0
ARC
  5
8C
330
1F
100
AcDbEntity
  8
0
  6
Continuous
 62
     7
370
    25
100
AcDbCircle
 10
329.2230303803
 20
350.38
 30
0.0
 40
42.0
100
AcDbArc
 50
270.0
 51
90.0
  0
ARC
  5
8D
330
1F
100
AcDbEntity
  8
0
  6
Continuous
 62
     7
370
    25
100
AcDbCircle
 10
319.2230303803
 20
367.7005080757
 30
0.0
 40
5.5
100
AcDbArc
 50
90.0
 51
270.0
  0
ARC
  5
8E
330
1F
100
AcDbEntity
  8
0
  6
Continuous
 62
     7
370
    25
100
AcDbCircle
 10
319.2230303803
 20
367.7005080757
 30
0.0
 40
5.5
100
AcDbArc
 50
270.0
 51
90.0
  0
ARC
  5
8F
330
1F
100
AcDbEntity
  8
0
  6
Continuous
 62
     7
370
    25
100
AcDbCircle
 10
339.2230303803
 20
367.7005080757
 30
0.0
 40
5.5
100
AcDbArc
 50
90.0
 51
270.0
  0
ARC
  5
90
330
1F
100
AcDbEntity
  8
0
  6
Continuous
 62
     7
370
    25
100
AcDbCircle
 10
339.2230303803
 20
367.7005080757
 30
0.0
 40
5.5
100
AcDbArc
 50
270.0
 51
90.0
  0
ARC
  5
91
330
1F
100
AcDbEntity
  8
0
  6
Continuous
 62
     7
370
    25
100
AcDbCircle
 10
349.2230303803
 20
350.38
 30
0.0
 40
5.5
100
AcDbArc
 50
90.0
 51
270.0
  0
ARC
  5
92
330
1F
100
AcDbEntity
  8
0
  6
Continuous
 62
     7
370
    25
100
AcDbCircle
 10
349.2230303803
 20
350.38
 30
0.0
 40
5.5
100
AcDbArc
 50
270.0
 51
90.0
  0
ARC
  5
93
330
1F
100
AcDbEntity
  8
0
  6
Continuous
 62
     7
370
    25
100
AcDbCircle
 10
339.2230303803
 20
333.0594919243
 30
0.0
 40
5.5
100
AcDbArc
 50
90.0
 51
270.0
  0
ARC
  5
94
330
1F
100
AcDbEntity
  8
0
  6
Continuous
 62
     7
370
    25
100
AcDbCircle
 10
339.2230303803
 20
333.0594919243
 30
0.0
 40
5.5
100
AcDbArc
 50
270.0
 51
90.0
  0
ARC
  5
95
330
1F
100
AcDbEntity
  8
0
  6
Continuous
 62
     7
370
    25
100
AcDbCircle
 10
319.2230303803
 20
333.0594919243
 30
0.0
 40
5.500000000000057
100
AcDbArc
 50
90.0
 51
270.0
  0
ARC
  5
96
330
1F
100
AcDbEntity
  8
0
  6
Continuous
 62
     7
370
    25
100
AcDbCircle
 10
319.2230303803
 20
333.0594919243
 30
0.0
 40
5.500000000000057
100
AcDbArc
 50
270.0
 51
90.0
  0
ARC
  5
97
330
1F
100
AcDbEntity
  8
0
  6
Continuous
 62
     7
370
    25
100
AcDbCircle
 10
309.2230303803
 20
350.38
 30
0.0
 40
5.500000000000057
100
AcDbArc
 50
90.0
 51
270.0
  0
ARC
  5
98
330
1F
100
AcDbEntity
  8
0
  6
Continuous
 62
     7
370
    25
100
AcDbCircle
 10
309.2230303803
 20
350.38
 30
0.0
 40
5.500000000000057
100
AcDbArc
 50
270.0
 51
90.0
  0
ARC
  5
99
330
1F
100
AcDbEntity
  8
0
  6
Continuous
 62
     7
370
    25
100
AcDbCircle
 10
329.2230303803
 20
350.38
 30
0.0
 40
10.0
100
AcDbArc
 50
90.0
 51
270.0
  0
ARC
  5
9A
330
1F
100
AcDbEntity
  8
0
  6
Continuous
 62
     7
370
    25
100
AcDbCircle
 10
329.2230303803
 20
350.38
 30
0.0
 40
10.0
100
AcDbArc
 50
270.0
 51
90.0
  0
ARC
  5
9B
330
1F
100
AcDbEntity
  8
0
  6
HIDDEN
 62
     7
370
    18
100
AcDbCircle
 10
329.2230303803
 20
350.38
 30
0.0
 40
35.0
100
AcDbArc
 50
270.0
 51
90.0
  0
ARC
  5
9C
330
1F
100
AcDbEntity
  8
0
  6
HIDDEN
 62
     7
370
    18
100
AcDbCircle
 10
329.2230303803
 20
350.38
 30
0.0
 40
35.0
100
AcDbArc
 50
90.0
 51
270.0
  0
ARC
  5
9D
330
1F
100
AcDbEntity
  8
0
  6
HIDDEN
 62
     7
370
    18
100
AcDbCircle
 10
329.2230303803
 20
350.38
 30
0.0
 40
34.0
100
AcDbArc
 50
90.0
 51
270.0
  0
ARC
  5
9E
330
1F
100
AcDbEntity
  8
0
  6
HIDDEN
 62
     7
370
    18
100
AcDbCircle
 10
329.2230303803
 20
350.38
 30
0.0
 40
34.0
100
AcDbArc
 50
270.0
 51
90.0
  0
ARC
  5
9F
330
1F
100
AcDbEntity
  8
0
  6
HIDDEN
 62
     7
370
    18
100
AcDbCircle
 10
329.2230303803
 20
350.38
 30
0.0
 40
12.5
100
AcDbArc
 50
90.0
 51
270.0
  0
ARC
  5
A0
330
1F
100
AcDbEntity
  8
0
  6
HIDDEN
 62
     7
370
    18
100
AcDbCircle
 10
329.2230303803
 20
350.38
 30
0.0
 40
12.5
100
AcDbArc
 50
270.0
 51
90.0
  0
ARC
  5
A1
330
1F
100
AcDbEntity
  8
0
  6
HIDDEN
 62
     7
370
    18
100
AcDbCircle
 10
329.2230303803
 20
350.38
 30
0.0
 40
12.0
100
AcDbArc
 50
90.0
 51
270.0
  0
ARC
  5
A2
330
1F
100
AcDbEntity
  8
0
  6
HIDDEN
 62
     7
370
    18
100
AcDbCircle
 10
329.2230303803
 20
350.38
 30
0.0
 40
12.0
100
AcDbArc
 50
270.0
 51
90.0
  0
LINE
  5
A3
330
1F
100
AcDbEntity
  8
0
  6
Continuous
 62
     7
370
    25
100
AcDbLine
 10
536.38
 20
234.7752318479
 30
0.0
 11
536.38
 21
204.7752318479
 31
0.0
  0
LINE
  5
A4
330
1F
100
AcDbEntity
  8
0
  6
Continuous
 62
     7
370
    25
100
AcDbLine
 10
452.38
 20
234.7752318479
 30
0.0
 11
452.38
 21
204.7752318479
 31
0.0
  0
LINE
  5
A5
330
1F
100
AcDbEntity
  8
0
  6
Continuous
 62
     7
370
    25
100
AcDbLine
 10
536.38
 20
234.7752318479
 30
0.0
 11
452.38
 21
234.7752318479
 31
0.0
  0
LINE
  5
A6
330
1F
100
AcDbEntity
  8
0
  6
Continuous
 62
     7
370
    25
100
AcDbLine
 10
536.38
 20
204.7752318479
 30
0.0
 11
452.38
 21
204.7752318479
 31
0.0
  0
ARC
  5
A7
330
1F
100
AcDbEntity
  8
0
  6
Continuous
 62
     7
370
    25
100
AcDbCircle
 10
530.88
 20
203.2752318479
 30
0.0
 40
1.5
100
AcDbArc
 50
90.0
 51
180.0
  0
ARC
  5
A8
330
1F
100
AcDbEntity
  8
0
  6
Continuous
 62
     7
370
    25
100
AcDbCircle
 10
457.88
 20
203.2752318479
 30
0.0
 40
1.5
100
AcDbArc
 50
0.0
 51
90.0
  0
LINE
  5
A9
330
1F
100
AcDbEntity
  8
0
  6
Continuous
 62
     7
370
    25
100
AcDbLine
 10
460.38
 20
194.7752318479
 30
0.0
 11
459.38
 21
195.7752318479
 31
0.0
  0
LINE
  5
AA
330
1F
100
AcDbEntity
  8
0
  6
Continuous
 62
     7
370
    25
100
AcDbLine
 10
529.38
 20
195.7752318479
 30
0.0
 11
459.38
 21
195.7752318479
 31
0.0
  0
LINE
  5
AB
330
1F
100
AcDbEntity
  8
0
  6
Continuous
 62
     7
370
    25
100
AcDbLine
 10
528.38
 20
194.7752318479
 30
0.0
 11
529.38
 21
195.7752318479
 31
0.0
  0
LINE
  5
AC
330
1F
100
AcDbEntity
  8
0
  6
Continuous
 62
     7
370
    25
100
AcDbLine
 10
528.38
 20
194.7752318479
 30
0.0
 11
460.38
 21
194.7752318479
 31
0.0
  0
LINE
  5
AD
330
1F
100
AcDbEntity
  8
0
  6
Continuous
 62
     7
370
    25
100
AcDbLine
 10
529.38
 20
203.2752318479
 30
0.0
 11
529.38
 21
195.7752318479
 31
0.0
  0
LINE
  5
AE
330
1F
100
AcDbEntity
  8
0
  6
Continuous
 62
     7
370
    25
100
AcDbLine
 10
459.38
 20
203.2752318479
 30
0.0
 11
459.38
 21
195.7752318479
 31
0.0
  0
LINE
  5
AF
330
1F
100
AcDbEntity
  8
0
  6
Continuous
 62
     7
370
    25
100
AcDbLine
 10
482.38
 20
191.7752318479
 30
0.0
 11
481.88
 21
192.2752318479
 31
0.0
  0
LINE
  5
B0
330
1F
100
AcDbEntity
  8
0
  6
Continuous
 62
     7
370
    25
100
AcDbLine
 10
506.88
 20
192.2752318479
 30
0.0
 11
481.88
 21
192.2752318479
 31
0.0
  0
LINE
  5
B1
330
1F
100
AcDbEntity
  8
0
  6
Continuous
 62
     7
370
    25
100
AcDbLine
 10
506.38
 20
191.7752318479
 30
0.0
 11
506.88
 21
192.2752318479
 31
0.0
  0
LINE
  5
B2
330
1F
100
AcDbEntity
  8
0
  6
Continuous
 62
     7
370
    25
100
AcDbLine
 10
506.38
 20
191.7752318479
 30
0.0
 11
482.38
 21
191.7752318479
 31
0.0
  0
LINE
  5
B3
330
1F
100
AcDbEntity
  8
0
  6
Continuous
 62
     7
370
    25
100
AcDbLine
 10
506.88
 20
194.7752318479
 30
0.0
 11
506.88
 21
192.2752318479
 31
0.0
  0
LINE
  5
B4
330
1F
100
AcDbEntity
  8
0
  6
Continuous
 62
     7
370
    25
100
AcDbLine
 10
481.88
 20
194.7752318479
 30
0.0
 11
481.88
 21
192.2752318479
 31
0.0
  0
LINE
  5
B5
330
1F
100
AcDbEntity
  8
0
  6
HIDDEN
 62
     7
370
    18
100
AcDbLine
 10
523.38
 20
234.7752318479
 30
0.0
 11
523.38
 21
223.7752318479
 31
0.0
  0
LINE
  5
B6
330
1F
100
AcDbEntity
  8
0
  6
HIDDEN
 62
     7
370
    18
100
AcDbLine
 10
465.38
 20
234.7752318479
 30
0.0
 11
465.38
 21
223.7752318479
 31
0.0
  0
LINE
  5
B7
330
1F
100
AcDbEntity
  8
0
  6
HIDDEN
 62
     7
370
    18
100
AcDbLine
 10
523.38
 20
223.7752318479
 30
0.0
 11
465.38
 21
223.7752318479
 31
0.0
  0
LINE
  5
B8
330
1F
100
AcDbEntity
  8
0
  6
HIDDEN
 62
     7
370
    18
100
AcDbLine
 10
488.88
 20
194.7752318479
 30
0.0
 11
488.88
 21
223.7752318479
 31
0.0
  0
LINE
  5
B9
330
1F
100
AcDbEntity
  8
0
  6
HIDDEN
 62
     7
370
    18
100
AcDbLine
 10
499.88
 20
194.7752318479
 30
0.0
 11
499.88
 21
223.7752318479
 31
0.0
  0
LINE
  5
BA
330
1F
100
AcDbEntity
  8
0
  6
HIDDEN
 62
     7
370
    18
100
AcDbLine
 10
506.2005080757
 20
194.7752318479
 30
0.0
 11
506.2005080757
 21
223.7752318479
 31
0.0
  0
LINE
  5
BB
330
1F
100
AcDbEntity
  8
0
  6
HIDDEN
 62
     7
370
    18
100
AcDbLine
 10
517.2005080757
 20
194.7752318479
 30
0.0
 11
517.2005080757
 21
223.7752318479
 31
0.0
  0
LINE
  5
BC
330
1F
100
AcDbEntity
  8
0
  6
HIDDEN
 62
     7
370
    18
100
AcDbLine
 10
471.5594919243
 20
194.7752318479
 30
0.0
 11
471.5594919243
 21
223.7752318479
 31
0.0
  0
LINE
  5
BD
330
1F
100
AcDbEntity
  8
0
  6
HIDDEN
 62
     7
370
    18
100
AcDbLine
 10
482.5594919243
 20
194.7752318479
 30
0.0
 11
482.5594919243
 21
223.7752318479
 31
0.0
  0
LINE
  5
BE
330
1F
100
AcDbEntity
  8
0
  6
HIDDEN
 62
     7
370
    18
100
AcDbLine
 10
504.38
 20
223.7752318479
 30
0.0
 11
504.38
 21
191.7752318479
 31
0.0
  0
LINE
  5
BF
330
1F
100
AcDbEntity
  8
0
  6
HIDDEN
 62
     7
370
    18
100
AcDbLine
 10
484.38
 20
223.7752318479
 30
0.0
 11
484.38
 21
191.7752318479
 31
0.0
  0
LINE
  5
C0
330
1F
100
AcDbEntity
  8
0
  6
Continuous
 62
     7
370
    25
100
AcDbLine
 10
536.38
 20
343.439403099
 30
0.0
 11
536.38
 21
367.9356274555
 31
0.0
  0
LINE
  5
C1
330
1F
100
AcDbEntity
  8
0
  6
Continuous
 62
     7
370
    25
100
AcDbLine
 10
452.38
 20
367.9356274555
 30
0.0
 11
452.38
 21
343.439403099
 31
0.0
  0
LINE
  5
C2
330
1F
100
AcDbEntity
  8
0
  6
Continuous
 62
     7
370
    25
100
AcDbLine
 10
518.4255370491
 20
321.3973126136
 30
0.0
 11
519.132758727
 21
321.8057157088
 31
0.0
  0
LWPOLYLINE
  5
C3
330
1F
100
AcDbEntity
  8
0
  6
Continuous
 62
     7
370
    25
100
AcDbPolyline
 90
       53
 70
   128
 43
0.0
 10
536.38
 20
343.439403099
 10
536.3555149394
 20
342.6116148767
 10
536.2467500114
 20
341.5095652913
 10
536.0512098507
 20
340.4115155894
 10
535.7692997441
 20
339.3197416468
 10
535.4016039934
 20
338.2365063316
 10
534.9488847041
 20
337.1640548145
 10
534.4120802062
 20
336.104609915
 10
533.7923031089
 20
335.0603674945
 10
533.0908379948
 20
334.0334919048
 10
532.3091387576
 20
333.0261115023
 10
531.4488255883
 20
332.0403142369
 10
530.5116816174
 20
331.0781433239
 10
529.4996492187
 20
330.1415930094
 10
528.414825984
 20
329.232604437
 10
527.2594603752
 20
328.3530616242
 10
526.0359470637
 20
327.504787558
 10
524.746821968
 20
326.6895404158
 10
523.3947569965
 20
325.9090099218
 10
521.9825545104
 20
325.1648138446
 10
520.5131415149
 20
324.4584946444
 10
518.989563593
 20
323.7915162754
 10
517.4149785925
 20
323.1652611523
 10
515.7926500812
 20
322.5810272843
 10
514.1259405828
 20
322.0400255854
 10
512.4183046073
 20
321.5433773642
 10
510.6732814908
 20
321.092112
 10
508.8944880604
 20
320.6871648092
 10
507.085611137
 20
320.3293751067
 10
505.2503998943
 20
320.0194844663
 10
503.3926580878
 20
319.7581351835
 10
501.5162361712
 20
319.5458689449
 10
499.6250233153
 20
319.3831257044
 10
497.7229393477
 20
319.2702427724
 10
495.8139266278
 20
319.207454116
 10
493.901941876
 20
319.1948898742
 10
491.9909479726
 20
319.2325760884
 10
490.0849057444
 20
319.3204346481
 10
488.187765755
 20
319.458283453
 10
486.3034601166
 20
319.6458367905
 10
484.4358943404
 20
319.8827059276
 10
482.5889392418
 20
320.1683999168
 10
480.7664229171
 20
320.5023266138
 10
478.9721228099
 20
320.8837939044
 10
477.2097578809
 20
321.3120111394
 10
475.4829809008
 20
321.7860907733
 10
473.7953708785
 20
322.3050502036
 10
472.1504256435
 20
322.8678138076
 10
470.5515545959
 20
323.4732151719
 10
469.0020716401
 20
324.1199995096
 10
467.5051883163
 20
324.8068262614
 10
466.0640071436
 20
325.5322718741
 10
464.6815151902
 20
326.2948327507
  0
LWPOLYLINE
  5
C4
330
1F
100
AcDbEntity
  8
0
  6
Continuous
 62
     7
370
    25
100
AcDbPolyline
 90
       70
 70
   128
 43
0.0
 10
524.0784848098
 20
385.0801978038
 10
525.3994221184
 20
384.282102187
 10
526.6560669377
 20
383.4501260052
 10
527.8458146795
 20
382.5859936559
 10
528.9661994099
 20
381.6914961855
 10
530.0148989605
 20
380.7684875765
 10
530.9897397414
 20
379.8188809052
 10
531.8887012461
 20
378.8446443765
 10
532.7099202396
 20
377.8477972444
 10
533.4516946202
 20
376.8304056267
 10
534.1124869472
 20
375.794578223
 10
534.6909276276
 20
374.7424619437
 10
535.1858177547
 20
373.6762374605
 10
535.5961315932
 20
372.5981146864
 10
535.9210187051
 20
371.5103281956
 10
536.159805712
 20
370.4151325915
 10
536.3119976916
 20
369.3147978345
 10
536.3772792027
 20
368.2116045362
 10
536.3555149394
 20
367.1078392333
 10
536.2467500114
 20
366.0057896479
 10
536.0512098507
 20
364.907739946
 10
535.7692997441
 20
363.8159660034
 10
535.4016039934
 20
362.7327306882
 10
534.9488847041
 20
361.6602791711
 10
534.4120802062
 20
360.6008342716
 10
533.7923031089
 20
359.5565918511
 10
533.0908379948
 20
358.5297162613
 10
532.3091387576
 20
357.5223358589
 10
531.4488255883
 20
356.5365385935
 10
530.5116816174
 20
355.5743676805
 10
529.4996492187
 20
354.637817366
 10
528.414825984
 20
353.7288287935
 10
527.2594603752
 20
352.8492859808
 10
526.0359470637
 20
352.0010119145
 10
524.746821968
 20
351.1857647723
 10
523.3947569965
 20
350.4052342783
 10
521.9825545104
 20
349.6610382012
 10
520.5131415149
 20
348.954719001
 10
518.989563593
 20
348.287740632
 10
517.4149785925
 20
347.6614855088
 10
515.7926500812
 20
347.0772516409
 10
514.1259405828
 20
346.536249942
 10
512.4183046073
 20
346.0396017208
 10
510.6732814908
 20
345.5883363566
 10
508.8944880604
 20
345.1833891658
 10
507.085611137
 20
344.8255994633
 10
505.2503998943
 20
344.5157088228
 10
503.3926580878
 20
344.2543595401
 10
501.5162361712
 20
344.0420933014
 10
499.6250233153
 20
343.879350061
 10
497.7229393477
 20
343.766467129
 10
495.8139266278
 20
343.7036784726
 10
493.901941876
 20
343.6911142308
 10
491.9909479726
 20
343.728800445
 10
490.0849057444
 20
343.8166590047
 10
488.187765755
 20
343.9545078096
 10
486.3034601166
 20
344.1420611471
 10
484.4358943404
 20
344.3789302841
 10
482.5889392418
 20
344.6646242734
 10
480.7664229171
 20
344.9985509703
 10
478.9721228099
 20
345.3800182609
 10
477.2097578809
 20
345.808235496
 10
475.4829809008
 20
346.2823151299
 10
473.7953708785
 20
346.8012745602
 10
472.1504256435
 20
347.3640381642
 10
470.5515545959
 20
347.9694395285
 10
469.0020716401
 20
348.6162238662
 10
467.5051883163
 20
349.303050618
 10
466.0640071436
 20
350.0284962306
 10
464.6815151902
 20
350.7910571073
  0
LWPOLYLINE
  5
C5
330
1F
100
AcDbEntity
  8
0
  6
Continuous
 62
     7
370
    25
100
AcDbPolyline
 90
       70
 70
   128
 43
0.0
 10
464.6815151902
 20
350.7910571073
 10
463.3605778816
 20
351.589152724
 10
462.1039330623
 20
352.4211289059
 10
460.9141853205
 20
353.2852612552
 10
459.7938005901
 20
354.1797587256
 10
458.7451010395
 20
355.1027673346
 10
457.7702602586
 20
356.0523740059
 10
456.8712987539
 20
357.0266105346
 10
456.0500797604
 20
358.0234576667
 10
455.3083053798
 20
359.0408492843
 10
454.6475130528
 20
360.0766766881
 10
454.0690723724
 20
361.1287929674
 10
453.5741822453
 20
362.1950174506
 10
453.1638684068
 20
363.2731402247
 10
452.8389812949
 20
364.3609267155
 10
452.600194288
 20
365.4561223196
 10
452.4480023084
 20
366.5564570766
 10
452.3827207973
 20
367.6596503749
 10
452.4044850606
 20
368.7634156778
 10
452.5132499886
 20
369.8654652632
 10
452.7087901493
 20
370.9635149651
 10
452.9907002559
 20
372.0552889077
 10
453.3583960066
 20
373.1385242229
 10
453.8111152959
 20
374.21097574
 10
454.3479197938
 20
375.2704206395
 10
454.9676968911
 20
376.31466306
 10
455.6691620052
 20
377.3415386497
 10
456.4508612424
 20
378.3489190522
 10
457.3111744117
 20
379.3347163176
 10
458.2483183826
 20
380.2968872306
 10
459.2603507813
 20
381.2334375451
 10
460.345174016
 20
382.1424261176
 10
461.5005396248
 20
383.0219689303
 10
462.7240529363
 20
383.8702429965
 10
464.013178032
 20
384.6854901388
 10
465.3652430035
 20
385.4660206328
 10
466.7774454896
 20
386.2102167099
 10
468.2468584851
 20
386.9165359101
 10
469.770436407
 20
387.5835142791
 10
471.3450214075
 20
388.2097694023
 10
472.9673499188
 20
388.7940032702
 10
474.6340594172
 20
389.3350049691
 10
476.3416953927
 20
389.8316531903
 10
478.0867185092
 20
390.2829185545
 10
479.8655119396
 20
390.6878657453
 10
481.674388863
 20
391.0456554478
 10
483.5096001057
 20
391.3555460883
 10
485.3673419122
 20
391.616895371
 10
487.2437638288
 20
391.8291616097
 10
489.1349766847
 20
391.9919048501
 10
491.0370606523
 20
392.1047877821
 10
492.9460733722
 20
392.1675764385
 10
494.858058124
 20
392.1801406803
 10
496.7690520274
 20
392.1424544661
 10
498.6750942556
 20
392.0545959064
 10
500.572234245
 20
391.9167471015
 10
502.4565398834
 20
391.729193764
 10
504.3241056596
 20
391.4923246269
 10
506.1710607582
 20
391.2066306377
 10
507.9935770829
 20
390.8727039408
 10
509.7878771901
 20
390.4912366501
 10
511.5502421191
 20
390.0630194151
 10
513.2770190992
 20
389.5889397812
 10
514.9646291215
 20
389.0699803509
 10
516.6095743565
 20
388.5072167469
 10
518.2084454041
 20
387.9018153826
 10
519.7579283599
 20
387.2550310449
 10
521.2548116837
 20
386.5682042931
 10
522.6959928564
 20
385.8427586805
 10
524.0784848098
 20
385.0801978038
  0
LWPOLYLINE
  5
C6
330
1F
100
AcDbEntity
  8
0
  6
Continuous
 62
     7
370
    25
100
AcDbPolyline
 90
       58
 70
   128
 43
0.0
 10
473.8739033456
 20
356.0977098341
 10
472.775406578
 20
356.7678098865
 10
471.7425222507
 20
357.4718262339
 10
470.7783871992
 20
358.2076208016
 10
469.88592947
 20
358.9729590058
 10
469.0678594281
 20
359.7655165395
 10
468.3266615251
 20
360.5828864315
 10
467.6645867548
 20
361.4225863564
 10
467.0836458165
 20
362.282066173
 10
466.5856030087
 20
363.1587156695
 10
466.1719708711
 20
364.04987249
 10
465.8440055908
 20
364.9528302206
 10
465.6027031876
 20
365.8648466084
 10
465.4487964891
 20
366.7831518896
 10
465.3827529047
 20
367.7049572012
 10
465.4047730068
 20
368.6274630508
 10
465.5147899209
 20
369.5478678184
 10
465.7124695293
 20
370.463376265
 10
465.9972114855
 20
371.3712080216
 10
466.3681510376
 20
372.2686060329
 10
466.8241616544
 20
373.1528449307
 10
467.3638584465
 20
374.0212393104
 10
467.9856023726
 20
374.871151887
 10
468.6875052168
 20
375.7000015039
 10
469.4674353233
 20
376.5052709719
 10
470.3230240698
 20
377.2845147142
 10
471.2516730616
 20
378.0353661932
 10
472.2505620222
 20
378.7555450976
 10
473.3166573586
 20
379.4428642677
 10
474.4467213743
 20
380.0952363379
 10
475.637322102
 20
380.7106800755
 10
476.8848437265
 20
381.2873263982
 10
478.1854975657
 20
381.82342405
 10
479.5353335764
 20
382.31734492
 10
480.9302523512
 20
382.7675889867
 10
482.3660175675
 20
383.1727888737
 10
483.8382688536
 20
383.5317140023
 10
485.3425350308
 20
383.8432743287
 10
486.874247692
 20
384.1065236543
 10
488.4287550763
 20
384.3206624997
 10
490.0013361959
 20
384.4850405321
 10
491.5872151735
 20
384.599158541
 10
493.1815757468
 20
384.6626699536
 10
494.7795758952
 20
384.6753818879
 10
496.3763625447
 20
384.6372557382
 10
497.9670863068
 20
384.5484072924
 10
499.5469162057
 20
384.4091063801
 10
501.1110543499
 20
384.2197760538
 10
502.6547505032
 20
383.9809913034
 10
504.1733165113
 20
383.6934773104
 10
505.6621405389
 20
383.3581072453
 10
507.1167010766
 20
382.9758996159
 10
508.5325806717
 20
382.5480151743
 10
509.9054793444
 20
382.0757533914
 10
511.2312276467
 20
381.5605485109
 10
512.5057993244
 20
381.0039651929
 10
513.7253235453
 20
380.4076937626
 10
514.8860966544
 20
379.773545077
  0
LWPOLYLINE
  5
C7
330
1F
100
AcDbEntity
  8
0
  6
Continuous
 62
     7
370
    25
100
AcDbPolyline
 90
       58
 70
   128
 43
0.0
 10
514.8860966544
 20
379.773545077
 10
515.984593422
 20
379.1034450246
 10
517.0174777493
 20
378.3994286772
 10
517.9816128008
 20
377.6636341095
 10
518.87407053
 20
376.8982959053
 10
519.6921405719
 20
376.1057383716
 10
520.4333384749
 20
375.2883684796
 10
521.0954132452
 20
374.4486685547
 10
521.6763541835
 20
373.5891887381
 10
522.1743969913
 20
372.7125392416
 10
522.5880291289
 20
371.8213824211
 10
522.9159944092
 20
370.9184246905
 10
523.1572968124
 20
370.0064083027
 10
523.3112035109
 20
369.0881030215
 10
523.3772470953
 20
368.1662977099
 10
523.3552269932
 20
367.2437918603
 10
523.2452100791
 20
366.3233870927
 10
523.0475304707
 20
365.4078786461
 10
522.7627885145
 20
364.5000468895
 10
522.3918489624
 20
363.6026488782
 10
521.9358383456
 20
362.7184099804
 10
521.3961415535
 20
361.8500156006
 10
520.7743976274
 20
361.0001030241
 10
520.0724947832
 20
360.1712534072
 10
519.2925646767
 20
359.3659839392
 10
518.4369759302
 20
358.5867401969
 10
517.5083269384
 20
357.8358887179
 10
516.5094379778
 20
357.1157098135
 10
515.4433426414
 20
356.4283906433
 10
514.3132786257
 20
355.7760185732
 10
513.122677898
 20
355.1605748356
 10
511.8751562735
 20
354.5839285129
 10
510.5745024343
 20
354.0478308611
 10
509.2246664236
 20
353.5539099911
 10
507.8297476488
 20
353.1036659244
 10
506.3939824325
 20
352.6984660374
 10
504.9217311464
 20
352.3395409088
 10
503.4174649692
 20
352.0279805824
 10
501.885752308
 20
351.7647312568
 10
500.3312449237
 20
351.5505924114
 10
498.7586638041
 20
351.386214379
 10
497.1727848265
 20
351.2720963701
 10
495.5784242532
 20
351.2085849575
 10
493.9804241048
 20
351.1958730231
 10
492.3836374553
 20
351.2339991728
 10
490.7929136932
 20
351.3228476187
 10
489.2130837943
 20
351.462148531
 10
487.6489456501
 20
351.6514788573
 10
486.1052494968
 20
351.8902636076
 10
484.5866834887
 20
352.1777776007
 10
483.0978594611
 20
352.5131476658
 10
481.6432989234
 20
352.8953552952
 10
480.2274193283
 20
353.3232397368
 10
478.8545206556
 20
353.7955015196
 10
477.5287723533
 20
354.3107064002
 10
476.2542006756
 20
354.8672897182
 10
475.0346764547
 20
355.4635611484
 10
473.8739033456
 20
356.0977098341
  0
ARC
  5
C8
330
1F
100
AcDbEntity
  8
0
  6
Continuous
 62
     7
370
    25
100
AcDbCircle
 10
506.6546602127
 20
355.0345420927
 30
0.0
 40
17.77755040321926
100
AcDbArc
 50
28.2340735453
 51
62.4175721535
  0
LWPOLYLINE
  5
C9
330
1F
100
AcDbEntity
  8
0
  6
Continuous
 62
     7
370
    25
100
AcDbPolyline
 90
       39
 70
   128
 43
0.0
 10
466.4429219334
 20
363.4446529902
 10
466.8241616544
 20
364.1708959999
 10
467.3638584465
 20
365.0392903797
 10
467.9856023726
 20
365.8892029563
 10
468.6875052168
 20
366.7180525731
 10
469.4674353233
 20
367.5233220412
 10
470.3230240698
 20
368.3025657835
 10
471.2516730616
 20
369.0534172625
 10
472.2505620222
 20
369.7735961669
 10
473.3166573586
 20
370.460915337
 10
474.4467213743
 20
371.1132874071
 10
475.637322102
 20
371.7287311447
 10
476.8848437265
 20
372.3053774674
 10
478.1854975657
 20
372.8414751192
 10
479.5353335764
 20
373.3353959892
 10
480.9302523512
 20
373.7856400559
 10
482.3660175675
 20
374.190839943
 10
483.8382688536
 20
374.5497650716
 10
485.3425350308
 20
374.8613253979
 10
486.874247692
 20
375.1245747236
 10
488.4287550763
 20
375.3387135689
 10
490.0013361959
 20
375.5030916014
 10
491.5872151735
 20
375.6172096103
 10
493.1815757468
 20
375.6807210229
 10
494.7795758952
 20
375.6934329572
 10
496.3763625447
 20
375.6553068075
 10
497.9670863068
 20
375.5664583616
 10
499.5469162057
 20
375.4271574494
 10
501.1110543499
 20
375.2378271231
 10
502.6547505032
 20
374.9990423727
 10
504.1733165113
 20
374.7115283797
 10
505.6621405389
 20
374.3761583145
 10
507.1167010766
 20
373.9939506851
 10
508.5325806717
 20
373.5660662435
 10
509.9054793444
 20
373.0938044607
 10
511.2312276467
 20
372.5785995801
 10
512.5057993244
 20
372.0220162621
 10
513.7253235453
 20
371.4257448319
 10
514.8860966544
 20
370.7915961462
  0
LWPOLYLINE
  5
CA
330
1F
100
AcDbEntity
  8
0
  6
Continuous
 62
     7
370
    25
100
AcDbPolyline
 90
       26
 70
   128
 43
0.0
 10
503.4454681986
 20
372.3511430384
 10
502.9273696971
 20
372.6148280169
 10
502.3561086887
 20
372.8389476059
 10
501.7406943005
 20
373.0199673055
 10
501.0908319853
 20
373.1550323269
 10
500.4167704598
 20
373.242012614
 10
499.729140077
 20
373.2795364358
 10
499.0387851788
 20
373.2670120192
 10
498.3565930744
 20
373.2046368816
 10
497.6933223407
 20
373.0933947164
 10
497.0594331535
 20
372.9350398788
 10
496.4649223239
 20
372.7320697192
 10
495.9191656428
 20
372.4876851984
 10
495.4307700191
 20
372.2057404062
 10
495.0074377435
 20
371.8906817805
 10
494.655845019
 20
371.5474779838
 10
494.3815366728
 20
371.1815415452
 10
494.1888387114
 20
370.7986435009
 10
494.0807900967
 20
370.4048223817
 10
494.05909482
 20
370.006288982
 10
494.1240950288
 20
369.6093284116
 10
494.2747656308
 20
369.2202009757
 10
494.5087304608
 20
368.8450434466
 10
494.8222997535
 20
368.4897722825
 10
495.210528334
 20
368.1599903219
 10
495.6672936055
 20
367.8608984233
  0
LWPOLYLINE
  5
CB
330
1F
100
AcDbEntity
  8
0
  6
Continuous
 62
     7
370
    25
100
AcDbPolyline
 90
       26
 70
   128
 43
0.0
 10
495.6672936055
 20
367.8608984233
 10
496.185392107
 20
367.5972134448
 10
496.7566531154
 20
367.3730938558
 10
497.3720675036
 20
367.1920741562
 10
498.0219298188
 20
367.0570091348
 10
498.6959913443
 20
366.9700288477
 10
499.3836217271
 20
366.9325050259
 10
500.0739766253
 20
366.9450294425
 10
500.7561687297
 20
367.0074045801
 10
501.4194394634
 20
367.1186467454
 10
502.0533286506
 20
367.2770015829
 10
502.6478394802
 20
367.4799717425
 10
503.1935961613
 20
367.7243562633
 10
503.681991785
 20
368.0063010555
 10
504.1053240606
 20
368.3213596812
 10
504.4569167851
 20
368.6645634779
 10
504.7312251313
 20
369.0304999165
 10
504.9239230927
 20
369.4133979608
 10
505.0319717074
 20
369.80721908
 10
505.0536669841
 20
370.2057524797
 10
504.9886667753
 20
370.6027130501
 10
504.8379961733
 20
370.991840486
 10
504.6040313433
 20
371.3669980151
 10
504.2904620506
 20
371.7222691793
 10
503.9022334701
 20
372.0520511398
 10
503.4454681986
 20
372.3511430384
  0
LWPOLYLINE
  5
CC
330
1F
100
AcDbEntity
  8
0
  6
Continuous
 62
     7
370
    25
100
AcDbPolyline
 90
       26
 70
   128
 43
0.0
 10
517.5876038223
 20
364.1870619201
 10
517.0695053209
 20
364.4507468987
 10
516.4982443124
 20
364.6748664877
 10
515.8828299243
 20
364.8558861873
 10
515.232967609
 20
364.9909512087
 10
514.5589060835
 20
365.0779314958
 10
513.8712757007
 20
365.1154553176
 10
513.1809208025
 20
365.1029309009
 10
512.4987286981
 20
365.0405557634
 10
511.8354579644
 20
364.9293135981
 10
511.2015687772
 20
364.7709587605
 10
510.6070579476
 20
364.567988601
 10
510.0613012665
 20
364.3236040802
 10
509.5729056428
 20
364.041659288
 10
509.1495733673
 20
363.7266006622
 10
508.7979806427
 20
363.3833968656
 10
508.5236722965
 20
363.017460427
 10
508.3309743351
 20
362.6345623827
 10
508.2229257205
 20
362.2407412635
 10
508.2012304438
 20
361.8422078638
 10
508.2662306525
 20
361.4452472933
 10
508.4169012546
 20
361.0561198575
 10
508.6508660845
 20
360.6809623283
 10
508.9644353773
 20
360.3256911642
 10
509.3526639577
 20
359.9959092036
 10
509.8094292293
 20
359.6968173051
  0
LWPOLYLINE
  5
CD
330
1F
100
AcDbEntity
  8
0
  6
Continuous
 62
     7
370
    25
100
AcDbPolyline
 90
       26
 70
   128
 43
0.0
 10
509.8094292293
 20
359.6968173051
 10
510.3275277307
 20
359.4331323265
 10
510.8987887392
 20
359.2090127376
 10
511.5142031273
 20
359.027993038
 10
512.1640654426
 20
358.8929280166
 10
512.8381269681
 20
358.8059477295
 10
513.5257573509
 20
358.7684239077
 10
514.216112249
 20
358.7809483243
 10
514.8983043535
 20
358.8433234619
 10
515.5615750871
 20
358.9545656271
 10
516.1954642743
 20
359.1129204647
 10
516.789975104
 20
359.3158906242
 10
517.3357317851
 20
359.560275145
 10
517.8241274087
 20
359.8422199372
 10
518.2474596843
 20
360.157278563
 10
518.5990524088
 20
360.5004823597
 10
518.873360755
 20
360.8664187983
 10
519.0660587164
 20
361.2493168426
 10
519.1741073311
 20
361.6431379618
 10
519.1958026078
 20
362.0416713615
 10
519.1308023991
 20
362.4386319319
 10
518.980131797
 20
362.8277593678
 10
518.746166967
 20
363.2029168969
 10
518.4325976743
 20
363.558188061
 10
518.0443690938
 20
363.8879700216
 10
517.5876038223
 20
364.1870619201
  0
ARC
  5
CE
330
1F
100
AcDbEntity
  8
0
  6
Continuous
 62
     7
370
    25
100
AcDbCircle
 10
508.3887248501
 20
346.9733735571
 30
0.0
 40
7.063226505700107
100
AcDbArc
 50
76.5368378954
 51
134.202401381
  0
ARC
  5
CF
330
1F
100
AcDbEntity
  8
0
  6
Continuous
 62
     7
370
    25
100
AcDbCircle
 10
475.0750137686
 20
350.8270514361
 30
0.0
 40
8.338815364092786
100
AcDbArc
 50
62.3052380448
 51
119.670414982
  0
LWPOLYLINE
  5
D0
330
1F
100
AcDbEntity
  8
0
  6
Continuous
 62
     7
370
    25
100
AcDbPolyline
 90
       14
 70
   128
 43
0.0
 10
478.9930911777
 20
353.7451129945
 10
479.1870943572
 20
353.8656977616
 10
479.6104266327
 20
354.1807563874
 10
479.9620193573
 20
354.523960184
 10
480.2363277035
 20
354.8898966226
 10
480.4290256649
 20
355.2727946669
 10
480.5370742795
 20
355.6666157861
 10
480.5587695562
 20
356.0651491858
 10
480.4937693475
 20
356.4621097563
 10
480.3430987454
 20
356.8512371921
 10
480.1091339155
 20
357.2263947213
 10
479.7955646227
 20
357.5816658854
 10
479.4073360423
 20
357.911447846
 10
478.9505707707
 20
358.2105397445
  0
LWPOLYLINE
  5
D1
330
1F
100
AcDbEntity
  8
0
  6
Continuous
 62
     7
370
    25
100
AcDbPolyline
 90
       26
 70
   128
 43
0.0
 10
484.1269516728
 20
369.3628819505
 10
483.6088531714
 20
369.6265669291
 10
483.0375921629
 20
369.8506865181
 10
482.4221777748
 20
370.0317062177
 10
481.7723154595
 20
370.1667712391
 10
481.098253934
 20
370.2537515262
 10
480.4106235512
 20
370.291275348
 10
479.720268653
 20
370.2787509313
 10
479.0380765486
 20
370.2163757938
 10
478.3748058149
 20
370.1051336285
 10
477.7409166277
 20
369.9467787909
 10
477.1464057981
 20
369.7438086314
 10
476.600649117
 20
369.4994241106
 10
476.1122534933
 20
369.2174793184
 10
475.6889212178
 20
368.9024206926
 10
475.3373284932
 20
368.559216896
 10
475.063020147
 20
368.1932804574
 10
474.8703221856
 20
367.8103824131
 10
474.762273571
 20
367.4165612939
 10
474.7405782943
 20
367.0180278942
 10
474.805578503
 20
366.6210673237
 10
474.956249105
 20
366.2319398879
 10
475.190213935
 20
365.8567823587
 10
475.5037832277
 20
365.5015111946
 10
475.8920118082
 20
365.171729234
 10
476.3487770797
 20
364.8726373355
  0
LWPOLYLINE
  5
D2
330
1F
100
AcDbEntity
  8
0
  6
Continuous
 62
     7
370
    25
100
AcDbPolyline
 90
       26
 70
   128
 43
0.0
 10
476.3487770797
 20
364.8726373355
 10
476.8668755812
 20
364.6089523569
 10
477.4381365896
 20
364.384832768
 10
478.0535509778
 20
364.2038130684
 10
478.7034132931
 20
364.068748047
 10
479.3774748185
 20
363.9817677599
 10
480.0651052013
 20
363.9442439381
 10
480.7554600995
 20
363.9567683547
 10
481.437652204
 20
364.0191434923
 10
482.1009229376
 20
364.1303856575
 10
482.7348121248
 20
364.2887404951
 10
483.3293229545
 20
364.4917106546
 10
483.8750796355
 20
364.7360951754
 10
484.3634752592
 20
365.0180399676
 10
484.7868075348
 20
365.3330985934
 10
485.1384002593
 20
365.6763023901
 10
485.4127086055
 20
366.0422388287
 10
485.6054065669
 20
366.425136873
 10
485.7134551816
 20
366.8189579922
 10
485.7351504583
 20
367.2174913919
 10
485.6701502495
 20
367.6144519623
 10
485.5194796475
 20
368.0035793982
 10
485.2855148175
 20
368.3787369273
 10
484.9719455248
 20
368.7340080914
 10
484.5837169443
 20
369.063790052
 10
484.1269516728
 20
369.3628819505
  0
LWPOLYLINE
  5
D3
330
1F
100
AcDbEntity
  8
0
  6
Continuous
 62
     7
370
    25
100
AcDbPolyline
 90
       34
 70
   128
 43
0.0
 10
487.3089321881
 20
354.8716379657
 10
486.6688028025
 20
355.2781443856
 10
486.0985072129
 20
355.7179370118
 10
485.6032101043
 20
356.1870330142
 10
485.1873969642
 20
356.6811841868
 10
484.8548334606
 20
357.19591542
 10
484.6085313403
 20
357.7265652281
 10
484.4507211533
 20
358.2683279642
 10
484.3828320531
 20
358.8162973411
 10
484.4054788539
 20
359.3655108633
 10
484.5184564628
 20
359.9109947681
 10
484.7207417371
 20
360.4478090687
 10
485.01050275
 20
360.9710922918
 10
485.3851153809
 20
361.4761055033
 10
485.8411870798
 20
361.9582752256
 10
486.3745875908
 20
362.4132348548
 10
486.9804863562
 20
362.8368642062
 10
487.653396263
 20
363.2253268268
 10
488.3872233349
 20
363.5751047388
 10
489.1753219203
 20
363.8830302994
 10
490.0105548763
 20
364.146314887
 10
490.885358204
 20
364.3625741556
 10
491.791809549
 20
364.5298496278
 10
492.7216999475
 20
364.646626431
 10
493.666608168
 20
364.7118470164
 10
494.6179769755
 20
364.7249207362
 10
495.5671906266
 20
364.6857291929
 10
496.5056528955
 20
364.5946273111
 10
497.4248649227
 20
364.4524401235
 10
498.3165021816
 20
364.2604552995
 10
499.1724898672
 20
364.0204114831
 10
499.9850760224
 20
363.7344825485
 10
500.7469017412
 20
363.4052579124
 10
501.4510678119
 20
363.0357190839
  0
LWPOLYLINE
  5
D4
330
1F
100
AcDbEntity
  8
0
  6
Continuous
 62
     7
370
    25
100
AcDbPolyline
 90
       34
 70
   128
 43
0.0
 10
501.4510678119
 20
363.0357190839
 10
502.0911971975
 20
362.629212664
 10
502.6614927871
 20
362.1894200378
 10
503.1567898957
 20
361.7203240354
 10
503.5726030358
 20
361.2261728628
 10
503.9051665394
 20
360.7114416296
 10
504.1514686597
 20
360.1807918215
 10
504.3092788467
 20
359.6390290854
 10
504.3771679469
 20
359.0910597085
 10
504.3545211461
 20
358.5418461863
 10
504.2415435372
 20
357.9963622815
 10
504.0392582629
 20
357.4595479809
 10
503.74949725
 20
356.9362647578
 10
503.3748846191
 20
356.4312515463
 10
502.9188129202
 20
355.949081824
 10
502.3854124092
 20
355.4941221948
 10
501.7795136438
 20
355.0704928434
 10
501.106603737
 20
354.6820302228
 10
500.3727766651
 20
354.3322523108
 10
499.5846780797
 20
354.0243267502
 10
498.7494451237
 20
353.7610421626
 10
497.874641796
 20
353.544782894
 10
496.968190451
 20
353.3775074218
 10
496.0383000525
 20
353.2607306186
 10
495.093391832
 20
353.1955100332
 10
494.1420230245
 20
353.1824363134
 10
493.1928093734
 20
353.2216278567
 10
492.2543471045
 20
353.3127297385
 10
491.3351350773
 20
353.4549169261
 10
490.4434978184
 20
353.6469017501
 10
489.5875101328
 20
353.8869455665
 10
488.7749239776
 20
354.1728745011
 10
488.0130982588
 20
354.5020991372
 10
487.3089321881
 20
354.8716379657
  0
LWPOLYLINE
  5
D5
330
1F
100
AcDbEntity
  8
0
  6
Continuous
 62
     7
370
    25
100
AcDbPolyline
 90
       19
 70
   128
 43
0.0
 10
464.6815151902
 20
326.2948327507
 10
463.3605778816
 20
327.0929283675
 10
462.1039330623
 20
327.9249045493
 10
460.9141853205
 20
328.7890368986
 10
459.7938005901
 20
329.6835343691
 10
458.7451010395
 20
330.6065429781
 10
457.7702602586
 20
331.5561496493
 10
456.8712987539
 20
332.530386178
 10
456.0500797604
 20
333.5272333101
 10
455.3083053798
 20
334.5446249278
 10
454.6475130528
 20
335.5804523315
 10
454.0690723724
 20
336.6325686108
 10
453.5741822453
 20
337.698793094
 10
453.1638684068
 20
338.7769158681
 10
452.8389812949
 20
339.864702359
 10
452.600194288
 20
340.959897963
 10
452.4480023084
 20
342.06023272
 10
452.3827207973
 20
343.1634260183
 10
452.38
 20
343.439403099
  0
LWPOLYLINE
  5
D6
330
1F
100
AcDbEntity
  8
0
  6
Continuous
 62
     7
370
    25
100
AcDbPolyline
 90
       40
 70
   128
 43
0.0
 10
526.0943132814
 20
327.5435122632
 10
525.722147363
 20
327.097627216
 10
524.9066942539
 20
326.2069227407
 10
524.015346973
 20
325.3407904847
 10
523.0503215501
 20
324.5013837893
 10
522.0140171905
 20
323.6907895518
 10
520.9090103101
 20
322.9110230372
 10
519.7380481301
 20
322.1640228679
 10
518.5040418469
 20
321.451646204
 10
517.2100593947
 20
320.7756641262
 10
515.8593178177
 20
320.1377572324
 10
514.4551752723
 20
319.5395114596
 10
513.001122678
 20
318.9824141411
 10
511.5007750388
 20
318.4678503086
 10
509.9578624553
 20
317.997099249
 10
508.3762208512
 20
317.5713313234
 10
506.7597824368
 20
317.191605058
 10
505.1125659327
 20
316.8588645122
 10
503.4386665786
 20
316.5739369314
 10
501.7422459521
 20
316.3375306904
 10
500.0275216221
 20
316.1502335325
 10
498.2987566636
 20
316.0125111078
 10
496.5602490586
 20
315.924705816
 10
494.8163210108
 20
315.8870359549
 10
493.0713082003
 20
315.8995951777
 10
491.3295490038
 20
315.9623522601
 10
489.5953737091
 20
316.0751511783
 10
487.8730937493
 20
316.2377114963
 10
486.1669909836
 20
316.4496290636
 10
484.4813070524
 20
316.7103770196
 10
482.8202328316
 20
317.019307104
 10
481.1878980133
 20
317.3756512677
 10
479.5883608391
 20
317.7785235832
 10
478.0255980104
 20
318.2269224462
 10
476.503494802
 20
318.7197330667
 10
475.0258354021
 20
319.2557302398
 10
473.5962935049
 20
319.8335813919
 10
472.2184231768
 20
320.4518498942
 10
470.8956500205
 20
321.1089986337
 10
469.6312626585
 20
321.8033938351
  0
LINE
  5
D7
330
1F
100
AcDbEntity
  8
0
  6
Continuous
 62
     7
370
    25
100
AcDbLine
 10
470.3383694397
 20
321.3950570791
 30
0.0
 11
469.6312626585
 21
321.8033938351
 31
0.0
  0
LWPOLYLINE
  5
D8
330
1F
100
AcDbEntity
  8
0
  6
Continuous
 62
     7
370
    25
100
AcDbPolyline
 90
       33
 70
   128
 43
0.0
 10
518.4255370491
 20
321.3973126136
 10
518.4216305603
 20
321.3950570791
 10
517.1730846945
 20
320.7099139273
 10
515.8660293072
 20
320.0621565628
 10
514.5038195908
 20
319.4534477692
 10
513.0899523181
 20
318.8853500934
 10
511.6280568661
 20
318.3593218341
 10
510.1218858996
 20
317.8767132981
 10
508.5753057377
 20
317.4387633346
 10
506.9922864296
 20
317.046596155
 10
505.3768915631
 20
316.7012184468
 10
503.7332678337
 20
316.4035167895
 10
502.0656343998
 20
316.1542553791
 10
500.3782720528
 20
315.9540740661
 10
498.6755122274
 20
315.8034867129
 10
496.9617258837
 20
315.7028798753
 10
495.2413122866
 20
315.6525118094
 10
493.5186877134
 20
315.6525118094
 10
491.7982741163
 20
315.7028798753
 10
490.0844877726
 20
315.8034867129
 10
488.3817279472
 20
315.9540740661
 10
486.6943656002
 20
316.1542553791
 10
485.0267321663
 20
316.4035167895
 10
483.3831084369
 20
316.7012184468
 10
481.7677135704
 20
317.046596155
 10
480.1846942623
 20
317.4387633346
 10
478.6381141004
 20
317.8767132981
 10
477.1319431339
 20
318.3593218341
 10
475.6700476819
 20
318.8853500934
 10
474.2561804092
 20
319.4534477692
 10
472.8939706928
 20
320.0621565628
 10
471.5869153055
 20
320.7099139273
 10
470.3383694397
 20
321.3950570791
  0
ARC
  5
D9
330
1F
100
AcDbEntity
  8
0
  6
Continuous
 62
     7
370
    25
100
AcDbCircle
 10
481.4906469978
 20
343.2910247319
 30
0.0
 40
24.5430902387324
100
AcDbArc
 50
219.9132575135
 51
241.1049565328
  0
LWPOLYLINE
  5
DA
330
1F
100
AcDbEntity
  8
0
  6
HIDDEN
 62
     7
370
    18
100
AcDbPolyline
 90
       19
 70
   128
 43
0.0
 10
524.0784848098
 20
360.5839734472
 10
525.3994221184
 20
359.7858778305
 10
526.6560669377
 20
358.9539016486
 10
527.8458146795
 20
358.0897692993
 10
528.9661994099
 20
357.1952718289
 10
530.0148989605
 20
356.2722632199
 10
530.9897397414
 20
355.3226565486
 10
531.8887012461
 20
354.34842002
 10
532.7099202396
 20
353.3515728878
 10
533.4516946202
 20
352.3341812702
 10
534.1124869472
 20
351.2983538664
 10
534.6909276276
 20
350.2462375872
 10
535.1858177547
 20
349.1800131039
 10
535.5961315932
 20
348.1018903298
 10
535.9210187051
 20
347.014103839
 10
536.159805712
 20
345.918908235
 10
536.3119976916
 20
344.8185734779
 10
536.3772792027
 20
343.7153801796
 10
536.38
 20
343.439403099
  0
LWPOLYLINE
  5
DB
330
1F
100
AcDbEntity
  8
0
  6
HIDDEN
 62
     7
370
    18
100
AcDbPolyline
 90
       49
 70
   128
 43
0.0
 10
522.3170780666
 20
363.4446529902
 10
522.5880291289
 20
362.8394334904
 10
522.9159944092
 20
361.9364757597
 10
523.1572968124
 20
361.0244593719
 10
523.3112035109
 20
360.1061540907
 10
523.3772470953
 20
359.1843487791
 10
523.3552269932
 20
358.2618429296
 10
523.2452100791
 20
357.3414381619
 10
523.0475304707
 20
356.4259297153
 10
522.7627885145
 20
355.5180979588
 10
522.3918489624
 20
354.6206999474
 10
521.9358383456
 20
353.7364610497
 10
521.3961415535
 20
352.8680666699
 10
520.7743976274
 20
352.0181540933
 10
520.0724947832
 20
351.1893044765
 10
519.2925646767
 20
350.3840350084
 10
518.4369759302
 20
349.6047912661
 10
517.5083269384
 20
348.8539397871
 10
516.5094379778
 20
348.1337608827
 10
515.4433426414
 20
347.4464417126
 10
514.3132786257
 20
346.7940696425
 10
513.122677898
 20
346.1786259049
 10
511.8751562735
 20
345.6019795822
 10
510.5745024343
 20
345.0658819304
 10
509.2246664236
 20
344.5719610604
 10
507.8297476488
 20
344.1217169937
 10
506.3939824325
 20
343.7165171066
 10
504.9217311464
 20
343.357591978
 10
503.4174649692
 20
343.0460316517
 10
501.885752308
 20
342.782782326
 10
500.3312449237
 20
342.5686434807
 10
498.7586638041
 20
342.4042654482
 10
497.1727848265
 20
342.2901474393
 10
495.5784242532
 20
342.2266360267
 10
493.9804241048
 20
342.2139240924
 10
492.3836374553
 20
342.2520502421
 10
490.7929136932
 20
342.340898688
 10
489.2130837943
 20
342.4801996002
 10
487.6489456501
 20
342.6695299265
 10
486.1052494968
 20
342.9083146769
 10
484.5866834887
 20
343.1958286699
 10
483.0978594611
 20
343.5311987351
 10
481.6432989234
 20
343.9134063645
 10
480.2274193283
 20
344.3412908061
 10
478.8545206556
 20
344.8135525889
 10
477.5287723533
 20
345.3287574695
 10
476.2542006756
 20
345.8853407875
 10
475.0346764547
 20
346.4816122177
 10
473.8739033456
 20
347.1157609034
  0
LWPOLYLINE
  5
DC
330
1F
100
AcDbEntity
  8
0
  6
HIDDEN
 62
     7
370
    18
100
AcDbPolyline
 90
       21
 70
   128
 43
0.0
 10
473.8739033456
 20
347.1157609034
 10
472.775406578
 20
347.7858609558
 10
471.7425222507
 20
348.4898773031
 10
470.7783871992
 20
349.2256718708
 10
469.88592947
 20
349.991010075
 10
469.0678594281
 20
350.7835676087
 10
468.3266615251
 20
351.6009375008
 10
467.6645867548
 20
352.4406374257
 10
467.0836458165
 20
353.3001172423
 10
466.5856030087
 20
354.1767667387
 10
466.1719708711
 20
355.0679235592
 10
465.8440055908
 20
355.9708812899
 10
465.6027031876
 20
356.8828976777
 10
465.4487964891
 20
357.8012029589
 10
465.3827529047
 20
358.7230082705
 10
465.4047730068
 20
359.64551412
 10
465.5147899209
 20
360.5659188877
 10
465.7124695293
 20
361.4814273343
 10
465.9972114855
 20
362.3892590908
 10
466.3681510376
 20
363.2866571022
 10
466.4429219334
 20
363.4446529902
  0
ARC
  5
DD
330
1F
100
AcDbEntity
  8
0
  6
HIDDEN
 62
     7
370
    18
100
AcDbCircle
 10
508.9121057673
 20
346.6378860567
 30
0.0
 40
7.291316869453891
100
AcDbArc
 50
61.3210018646
 51
81.1553705131
  0
LWPOLYLINE
  5
DE
330
1F
100
AcDbEntity
  8
0
  6
HIDDEN
 62
     7
370
    18
100
AcDbPolyline
 90
       11
 70
   128
 43
0.0
 10
503.4642775912
 20
352.0368691742
 10
503.3472913945
 20
351.8651182209
 10
503.1545934331
 20
351.4822201766
 10
503.0465448184
 20
351.0883990574
 10
503.0248495417
 20
350.6898656577
 10
503.0898497505
 20
350.2929050873
 10
503.2405203525
 20
349.9037776514
 10
503.4744851825
 20
349.5286201223
 10
503.7880544752
 20
349.1733489582
 10
504.1762830557
 20
348.8435669976
 10
504.6330483272
 20
348.5444750991
  0
LWPOLYLINE
  5
DF
330
1F
100
AcDbEntity
  8
0
  6
HIDDEN
 62
     7
370
    18
100
AcDbPolyline
 90
       26
 70
   128
 43
0.0
 10
504.6330483272
 20
348.5444750991
 10
505.1511468286
 20
348.2807901205
 10
505.7224078371
 20
348.0566705315
 10
506.3378222252
 20
347.8756508319
 10
506.9876845405
 20
347.7405858105
 10
507.661746066
 20
347.6536055234
 10
508.3493764488
 20
347.6160817016
 10
509.039731347
 20
347.6286061183
 10
509.7219234514
 20
347.6909812558
 10
510.3851941851
 20
347.8022234211
 10
511.0190833723
 20
347.9605782587
 10
511.6135942019
 20
348.1635484182
 10
512.159350883
 20
348.407932939
 10
512.6477465067
 20
348.6898777312
 10
513.0710787822
 20
349.004936357
 10
513.4226715068
 20
349.3481401536
 10
513.696979853
 20
349.7140765922
 10
513.8896778144
 20
350.0969746365
 10
513.997726429
 20
350.4907957557
 10
514.0194217057
 20
350.8893291554
 10
513.954421497
 20
351.2862897259
 10
513.803750895
 20
351.6754171617
 10
513.569786065
 20
352.0505746909
 10
513.2562167723
 20
352.405845855
 10
512.8679881918
 20
352.7356278156
 10
512.4112229203
 20
353.0347197141
  0
LWPOLYLINE
  5
E0
330
1F
100
AcDbEntity
  8
0
  6
HIDDEN
 62
     7
370
    18
100
AcDbPolyline
 90
       26
 70
   128
 43
0.0
 10
493.0927063945
 20
350.0464586263
 10
492.574607893
 20
350.3101436048
 10
492.0033468846
 20
350.5342631938
 10
491.3879324964
 20
350.7152828934
 10
490.7380701812
 20
350.8503479148
 10
490.0640086557
 20
350.9373282019
 10
489.3763782729
 20
350.9748520237
 10
488.6860233747
 20
350.9623276071
 10
488.0038312703
 20
350.8999524695
 10
487.3405605366
 20
350.7887103042
 10
486.7066713494
 20
350.6303554667
 10
486.1121605198
 20
350.4273853071
 10
485.5664038387
 20
350.1830007863
 10
485.078008215
 20
349.9010559941
 10
484.6546759394
 20
349.5859973684
 10
484.3030832149
 20
349.2427935717
 10
484.0287748687
 20
348.8768571331
 10
483.8360769073
 20
348.4939590888
 10
483.7280282926
 20
348.1001379696
 10
483.7063330159
 20
347.7016045699
 10
483.7713332247
 20
347.3046439995
 10
483.9220038267
 20
346.9155165636
 10
484.1559686567
 20
346.5403590345
 10
484.4695379494
 20
346.1850878703
 10
484.8577665299
 20
345.8553059098
 10
485.3145318014
 20
345.5562140112
  0
LWPOLYLINE
  5
E1
330
1F
100
AcDbEntity
  8
0
  6
HIDDEN
 62
     7
370
    18
100
AcDbPolyline
 90
       26
 70
   128
 43
0.0
 10
485.3145318014
 20
345.5562140112
 10
485.8326303029
 20
345.2925290327
 10
486.4038913113
 20
345.0684094437
 10
487.0193056995
 20
344.8873897441
 10
487.6691680147
 20
344.7523247227
 10
488.3432295402
 20
344.6653444356
 10
489.030859923
 20
344.6278206138
 10
489.7212148212
 20
344.6403450304
 10
490.4034069256
 20
344.702720168
 10
491.0666776593
 20
344.8139623332
 10
491.7005668465
 20
344.9723171708
 10
492.2950776761
 20
345.1752873304
 10
492.8408343572
 20
345.4196718512
 10
493.3292299809
 20
345.7016166434
 10
493.7525622565
 20
346.0166752691
 10
494.104154981
 20
346.3598790658
 10
494.3784633272
 20
346.7258155044
 10
494.5711612886
 20
347.1087135487
 10
494.6792099033
 20
347.5025346679
 10
494.70090518
 20
347.9010680676
 10
494.6359049712
 20
348.298028638
 10
494.4852343692
 20
348.6871560739
 10
494.2512695392
 20
349.062313603
 10
493.9377002465
 20
349.4175847671
 10
493.549471666
 20
349.7473667277
 10
493.0927063945
 20
350.0464586263
  0
ARC
  5
E2
330
1F
100
AcDbEntity
  8
0
  6
HIDDEN
 62
     7
370
    18
100
AcDbCircle
 10
472.012162935
 20
355.9456921903
 30
0.0
 40
2.378571059511908
100
AcDbArc
 50
116.5978451974
 51
249.3257041164
  0
ARC
  5
E3
330
1F
100
AcDbEntity
  8
0
  6
HIDDEN
 62
     7
370
    18
100
AcDbCircle
 10
475.0591525058
 20
361.1668391015
 30
0.0
 40
8.399874515847179
100
AcDbArc
 50
242.4374947029
 51
297.9261441172
  0
LINE
  5
E4
330
1F
100
AcDbEntity
  8
0
  6
HIDDEN
 62
     7
370
    18
100
AcDbLine
 10
529.38
 20
342.2145918811
 30
0.0
 11
529.379893415
 21
342.1647276671
 31
0.0
  0
LWPOLYLINE
  5
E5
330
1F
100
AcDbEntity
  8
0
  6
HIDDEN
 62
     7
370
    18
100
AcDbPolyline
 90
       53
 70
   128
 43
0.0
 10
452.38
 20
343.439403099
 10
452.4044850606
 20
344.2671913212
 10
452.5132499886
 20
345.3692409067
 10
452.7087901493
 20
346.4672906085
 10
452.9907002559
 20
347.5590645511
 10
453.3583960066
 20
348.6422998663
 10
453.8111152959
 20
349.7147513834
 10
454.3479197938
 20
350.7741962829
 10
454.9676968911
 20
351.8184387034
 10
455.6691620052
 20
352.8453142932
 10
456.4508612424
 20
353.8526946956
 10
457.3111744117
 20
354.838491961
 10
458.2483183826
 20
355.8006628741
 10
459.2603507813
 20
356.7372131886
 10
460.345174016
 20
357.646201761
 10
461.5005396248
 20
358.5257445737
 10
462.7240529363
 20
359.37401864
 10
464.013178032
 20
360.1892657822
 10
465.3652430035
 20
360.9697962762
 10
466.7774454896
 20
361.7139923533
 10
468.2468584851
 20
362.4203115536
 10
469.770436407
 20
363.0872899225
 10
471.3450214075
 20
363.7135450457
 10
472.9673499188
 20
364.2977789137
 10
474.6340594172
 20
364.8387806126
 10
476.3416953927
 20
365.3354288337
 10
478.0867185092
 20
365.7866941979
 10
479.8655119396
 20
366.1916413887
 10
481.674388863
 20
366.5494310912
 10
483.5096001057
 20
366.8593217317
 10
485.3673419122
 20
367.1206710144
 10
487.2437638288
 20
367.3329372531
 10
489.1349766847
 20
367.4956804935
 10
491.0370606523
 20
367.6085634255
 10
492.9460733722
 20
367.6713520819
 10
494.858058124
 20
367.6839163237
 10
496.7690520274
 20
367.6462301095
 10
498.6750942556
 20
367.5583715499
 10
500.572234245
 20
367.4205227449
 10
502.4565398834
 20
367.2329694074
 10
504.3241056596
 20
366.9961002704
 10
506.1710607582
 20
366.7104062811
 10
507.9935770829
 20
366.3764795842
 10
509.7878771901
 20
365.9950122936
 10
511.5502421191
 20
365.5667950585
 10
513.2770190992
 20
365.0927154246
 10
514.9646291215
 20
364.5737559943
 10
516.6095743565
 20
364.0109923903
 10
518.2084454041
 20
363.4055910261
 10
519.7579283599
 20
362.7588066884
 10
521.2548116837
 20
362.0719799365
 10
522.6959928564
 20
361.3465343239
 10
524.0784848098
 20
360.5839734472
  0
LWPOLYLINE
  5
E6
330
1F
100
AcDbEntity
  8
0
  6
HIDDEN
 62
     7
370
    18
100
AcDbPolyline
 90
       26
 70
   128
 43
0.0
 10
519.1287373415
 20
350.3776777489
 10
520.3315954431
 20
349.6477624615
 10
521.4699337893
 20
348.8841417725
 10
522.5409222918
 20
348.0887141632
 10
523.5418983044
 20
347.263457192
 10
524.470373243
 20
346.4104225778
 10
525.3240387727
 20
345.5317310991
 10
526.1007725463
 20
344.6295673212
 10
526.7986434814
 20
343.7061741655
 10
527.4159165608
 20
342.7638473329
 10
527.9510571464
 20
341.8049295963
 10
528.4027347945
 20
340.8318049764
 10
528.7698265632
 20
339.8468928142
 10
529.0514198045
 20
338.8526417566
 10
529.2468144332
 20
337.8515236684
 10
529.3555246676
 20
336.8460274869
 10
529.3772802368
 20
335.8386530339
 10
529.3120270532
 20
334.8319048012
 10
529.1599273463
 20
333.8282857234
 10
528.92135926
 20
332.8302909558
 10
528.5969159122
 20
331.8404016705
 10
528.1874039201
 20
330.8610788883
 10
527.6938413951
 20
329.8947573599
 10
527.1174554115
 20
328.9438395129
 10
526.4596789554
 20
328.010689479
 10
526.0943132814
 20
327.5435122632
  0
LWPOLYLINE
  5
E7
330
1F
100
AcDbEntity
  8
0
  6
HIDDEN
 62
     7
370
    18
100
AcDbPolyline
 90
       32
 70
   128
 43
0.0
 10
518.4216305603
 20
349.1529328811
 10
519.6084619053
 20
348.4321626948
 10
520.7305321504
 20
347.6776156807
 10
521.7849609574
 20
346.8912287501
 10
522.7690416227
 20
346.075020547
 10
523.6802480253
 20
345.2310862663
 10
524.5162411114
 20
344.361592275
 10
525.2748748988
 20
343.4687705518
 10
525.9542019855
 20
342.5549129572
 10
526.5524785484
 20
341.6223653506
 10
527.0681688204
 20
340.6735215683
 10
527.4999490318
 20
339.7108172787
 10
527.8467108091
 20
338.7367237299
 10
528.1075640197
 20
337.7537414061
 10
528.2818390572
 20
336.7643936087
 10
528.3690885601
 20
335.7712199795
 10
528.3690885601
 20
334.7767699808
 10
528.2818390572
 20
333.7835963515
 10
528.1075640197
 20
332.7942485541
 10
527.8467108091
 20
331.8112662303
 10
527.4999490318
 20
330.8371726815
 10
527.0681688204
 20
329.8744683919
 10
526.5524785484
 20
328.9256246096
 10
525.9542019855
 20
327.993077003
 10
525.2748748988
 20
327.0792194084
 10
524.5162411114
 20
326.1863976852
 10
523.6802480253
 20
325.3169036939
 10
522.7690416227
 20
324.4729694132
 10
521.7849609574
 20
323.6567612101
 10
520.7305321504
 20
322.8703742796
 10
519.6084619053
 20
322.1158272654
 10
518.4255370491
 20
321.3973126136
  0
LWPOLYLINE
  5
E8
330
1F
100
AcDbEntity
  8
0
  6
HIDDEN
 62
     7
370
    18
100
AcDbPolyline
 90
       26
 70
   128
 43
0.0
 10
485.3145318014
 20
321.8765304665
 10
485.8326303029
 20
321.612845488
 10
486.4038913113
 20
321.388725899
 10
487.0193056995
 20
321.2077061994
 10
487.6691680147
 20
321.072641178
 10
488.3432295402
 20
320.9856608909
 10
489.030859923
 20
320.9481370691
 10
489.7212148212
 20
320.9606614857
 10
490.4034069256
 20
321.0230366233
 10
491.0666776593
 20
321.1342787886
 10
491.7005668465
 20
321.2926336261
 10
492.2950776761
 20
321.4956037857
 10
492.8408343572
 20
321.7399883065
 10
493.3292299809
 20
322.0219330987
 10
493.7525622565
 20
322.3369917244
 10
494.104154981
 20
322.6801955211
 10
494.3784633272
 20
323.0461319597
 10
494.5711612886
 20
323.429030004
 10
494.6792099033
 20
323.8228511232
 10
494.70090518
 20
324.2213845229
 10
494.6359049712
 20
324.6183450933
 10
494.4852343692
 20
325.0074725292
 10
494.2512695392
 20
325.3826300584
 10
493.9377002465
 20
325.7379012225
 10
493.549471666
 20
326.067683183
 10
493.0927063945
 20
326.3667750816
  0
LWPOLYLINE
  5
E9
330
1F
100
AcDbEntity
  8
0
  6
HIDDEN
 62
     7
370
    18
100
AcDbPolyline
 90
       26
 70
   128
 43
0.0
 10
493.0927063945
 20
326.3667750816
 10
492.574607893
 20
326.6304600601
 10
492.0033468846
 20
326.8545796491
 10
491.3879324964
 20
327.0355993487
 10
490.7380701812
 20
327.1706643701
 10
490.0640086557
 20
327.2576446572
 10
489.3763782729
 20
327.295168479
 10
488.6860233747
 20
327.2826440624
 10
488.0038312703
 20
327.2202689248
 10
487.3405605366
 20
327.1090267596
 10
486.7066713494
 20
326.950671922
 10
486.1121605198
 20
326.7477017624
 10
485.5664038387
 20
326.5033172416
 10
485.078008215
 20
326.2213724495
 10
484.6546759394
 20
325.9063138237
 10
484.3030832149
 20
325.563110027
 10
484.0287748687
 20
325.1971735884
 10
483.8360769073
 20
324.8142755441
 10
483.7280282926
 20
324.4204544249
 10
483.7063330159
 20
324.0219210252
 10
483.7713332247
 20
323.6249604548
 10
483.9220038267
 20
323.2358330189
 10
484.1559686567
 20
322.8606754898
 10
484.4695379494
 20
322.5054043257
 10
484.8577665299
 20
322.1756223651
 10
485.3145318014
 20
321.8765304665
  0
LWPOLYLINE
  5
EA
330
1F
100
AcDbEntity
  8
0
  6
HIDDEN
 62
     7
370
    18
100
AcDbPolyline
 90
       26
 70
   128
 43
0.0
 10
504.6330483272
 20
324.8647915544
 10
505.1511468286
 20
324.6011065758
 10
505.7224078371
 20
324.3769869868
 10
506.3378222252
 20
324.1959672872
 10
506.9876845405
 20
324.0609022658
 10
507.661746066
 20
323.9739219787
 10
508.3493764488
 20
323.9363981569
 10
509.039731347
 20
323.9489225736
 10
509.7219234514
 20
324.0112977111
 10
510.3851941851
 20
324.1225398764
 10
511.0190833723
 20
324.280894714
 10
511.6135942019
 20
324.4838648735
 10
512.159350883
 20
324.7282493943
 10
512.6477465067
 20
325.0101941865
 10
513.0710787822
 20
325.3252528123
 10
513.4226715068
 20
325.6684566089
 10
513.696979853
 20
326.0343930475
 10
513.8896778144
 20
326.4172910919
 10
513.997726429
 20
326.811112211
 10
514.0194217057
 20
327.2096456107
 10
513.954421497
 20
327.6066061812
 10
513.803750895
 20
327.995733617
 10
513.569786065
 20
328.3708911462
 10
513.2562167723
 20
328.7261623103
 10
512.8679881918
 20
329.0559442709
 10
512.4112229203
 20
329.3550361694
  0
LWPOLYLINE
  5
EB
330
1F
100
AcDbEntity
  8
0
  6
HIDDEN
 62
     7
370
    18
100
AcDbPolyline
 90
       26
 70
   128
 43
0.0
 10
512.4112229203
 20
329.3550361694
 10
511.8931244188
 20
329.618721148
 10
511.3218634104
 20
329.8428407369
 10
510.7064490222
 20
330.0238604365
 10
510.0565867069
 20
330.1589254579
 10
509.3825251815
 20
330.2459057451
 10
508.6948947987
 20
330.2834295669
 10
508.0045399005
 20
330.2709051502
 10
507.322347796
 20
330.2085300127
 10
506.6590770624
 20
330.0972878474
 10
506.0251878752
 20
329.9389330098
 10
505.4306770455
 20
329.7359628503
 10
504.8849203645
 20
329.4915783295
 10
504.3965247408
 20
329.2096335373
 10
503.9731924652
 20
328.8945749115
 10
503.6215997407
 20
328.5513711149
 10
503.3472913945
 20
328.1854346762
 10
503.1545934331
 20
327.8025366319
 10
503.0465448184
 20
327.4087155127
 10
503.0248495417
 20
327.010182113
 10
503.0898497505
 20
326.6132215426
 10
503.2405203525
 20
326.2240941067
 10
503.4744851825
 20
325.8489365776
 10
503.7880544752
 20
325.4936654135
 10
504.1762830557
 20
325.1638834529
 10
504.6330483272
 20
324.8647915544
  0
LWPOLYLINE
  5
EC
330
1F
100
AcDbEntity
  8
0
  6
HIDDEN
 62
     7
370
    18
100
AcDbPolyline
 90
       34
 70
   128
 43
0.0
 10
501.4510678119
 20
336.9064131036
 10
502.0911971975
 20
336.4999066837
 10
502.6614927871
 20
336.0601140575
 10
503.1567898957
 20
335.5910180551
 10
503.5726030358
 20
335.0968668825
 10
503.9051665394
 20
334.5821356493
 10
504.1514686597
 20
334.0514858412
 10
504.3092788467
 20
333.5097231051
 10
504.3771679469
 20
332.9617537281
 10
504.3545211461
 20
332.4125402059
 10
504.2415435372
 20
331.8670563012
 10
504.0392582629
 20
331.3302420005
 10
503.74949725
 20
330.8069587775
 10
503.3748846191
 20
330.3019455659
 10
502.9188129202
 20
329.8197758437
 10
502.3854124092
 20
329.3648162144
 10
501.7795136438
 20
328.941186863
 10
501.106603737
 20
328.5527242425
 10
500.3727766651
 20
328.2029463304
 10
499.5846780797
 20
327.8950207698
 10
498.7494451237
 20
327.6317361822
 10
497.874641796
 20
327.4154769136
 10
496.968190451
 20
327.2482014414
 10
496.0383000525
 20
327.1314246382
 10
495.093391832
 20
327.0662040529
 10
494.1420230245
 20
327.053130333
 10
493.1928093734
 20
327.0923218764
 10
492.2543471045
 20
327.1834237582
 10
491.3351350773
 20
327.3256109457
 10
490.4434978184
 20
327.5175957698
 10
489.5875101328
 20
327.7576395861
 10
488.7749239776
 20
328.0435685207
 10
488.0130982588
 20
328.3727931569
 10
487.3089321881
 20
328.7423319853
  0
LWPOLYLINE
  5
ED
330
1F
100
AcDbEntity
  8
0
  6
HIDDEN
 62
     7
370
    18
100
AcDbPolyline
 90
       26
 70
   128
 43
0.0
 10
471.1723961777
 20
330.0406115848
 10
471.6904946791
 20
329.7769266062
 10
472.2617556876
 20
329.5528070172
 10
472.8771700757
 20
329.3717873176
 10
473.527032391
 20
329.2367222962
 10
474.2010939165
 20
329.1497420091
 10
474.8887242993
 20
329.1122181873
 10
475.5790791975
 20
329.124742604
 10
476.2612713019
 20
329.1871177415
 10
476.9245420356
 20
329.2983599068
 10
477.5584312228
 20
329.4567147444
 10
478.1529420524
 20
329.6596849039
 10
478.6986987335
 20
329.9040694247
 10
479.1870943572
 20
330.1860142169
 10
479.6104266327
 20
330.5010728427
 10
479.9620193573
 20
330.8442766393
 10
480.2363277035
 20
331.2102130779
 10
480.4290256649
 20
331.5931111223
 10
480.5370742795
 20
331.9869322414
 10
480.5587695562
 20
332.3854656411
 10
480.4937693475
 20
332.7824262116
 10
480.3430987454
 20
333.1715536474
 10
480.1091339155
 20
333.5467111766
 10
479.7955646227
 20
333.9019823407
 10
479.4073360423
 20
334.2317643013
 10
478.9505707707
 20
334.5308561998
  0
LINE
  5
EE
330
1F
100
AcDbEntity
  8
0
  6
HIDDEN
 62
     7
370
    18
100
AcDbLine
 10
459.38
 20
342.2145918811
 30
0.0
 11
459.380106585
 21
342.2644560952
 31
0.0
  0
LWPOLYLINE
  5
EF
330
1F
100
AcDbEntity
  8
0
  6
HIDDEN
 62
     7
370
    18
100
AcDbPolyline
 90
       58
 70
   128
 43
0.0
 10
462.6656867186
 20
327.5435122632
 10
462.6592274537
 20
327.5515042628
 10
461.9613565186
 20
328.4748974185
 10
461.3440834392
 20
329.4172242511
 10
460.8089428536
 20
330.3761419877
 10
460.3572652055
 20
331.3492666076
 10
459.9901734368
 20
332.3341787698
 10
459.7085801955
 20
333.3284298274
 10
459.5131855668
 20
334.3295479156
 10
459.4044753324
 20
335.3350440971
 10
459.3827197632
 20
336.3424185501
 10
459.4479729468
 20
337.3491667828
 10
459.6000726537
 20
338.3527858606
 10
459.83864074
 20
339.3507806282
 10
460.1630840878
 20
340.3406699135
 10
460.5725960799
 20
341.3199926957
 10
461.0661586049
 20
342.2863142241
 10
461.6425445885
 20
343.2372320711
 10
462.3003210446
 20
344.170382105
 10
463.037852637
 20
345.083444368
 10
463.8533057461
 20
345.9741488433
 10
464.744653027
 20
346.8402810993
 10
465.7096784499
 20
347.6796877947
 10
466.7459828095
 20
348.4902820322
 10
467.8509896899
 20
349.2700485468
 10
469.0219518699
 20
350.0170487161
 10
470.2559581531
 20
350.72942538
 10
471.5499406053
 20
351.4054074578
 10
472.9006821823
 20
352.0433143516
 10
474.3048247277
 20
352.6415601244
 10
475.758877322
 20
353.1986574429
 10
477.2592249612
 20
353.7132212754
 10
478.8021375447
 20
354.183972335
 10
480.3837791488
 20
354.6097402606
 10
482.0002175632
 20
354.989466526
 10
483.6474340673
 20
355.3222070718
 10
485.3213334214
 20
355.6071346526
 10
487.0177540479
 20
355.8435408936
 10
488.7324783779
 20
356.0308380515
 10
490.4612433364
 20
356.1685604762
 10
492.1997509414
 20
356.256365768
 10
493.9436789892
 20
356.2940356291
 10
495.6886917997
 20
356.2814764063
 10
497.4304509962
 20
356.2187193239
 10
499.1646262909
 20
356.1059204057
 10
500.8869062507
 20
355.9433600877
 10
502.5930090164
 20
355.7314425204
 10
504.2786929476
 20
355.4706945644
 10
505.9397671684
 20
355.16176448
 10
507.5721019867
 20
354.8054203163
 10
509.1716391609
 20
354.4025480008
 10
510.7344019896
 20
353.9541491378
 10
512.256505198
 20
353.4613385173
 10
513.7341645979
 20
352.9253413442
 10
515.1637064951
 20
352.3474901921
 10
516.5415768232
 20
351.7292216898
 10
517.8643499795
 20
351.0720729503
 10
519.1287373415
 20
350.3776777489
  0
LWPOLYLINE
  5
F0
330
1F
100
AcDbEntity
  8
0
  6
HIDDEN
 62
     7
370
    18
100
AcDbPolyline
 90
       26
 70
   128
 43
0.0
 10
478.9505707707
 20
334.5308561998
 10
478.4324722693
 20
334.7945411784
 10
477.8612112608
 20
335.0186607673
 10
477.2457968727
 20
335.1996804669
 10
476.5959345574
 20
335.3347454883
 10
475.9218730319
 20
335.4217257755
 10
475.2342426491
 20
335.4592495972
 10
474.543887751
 20
335.4467251806
 10
473.8616956465
 20
335.3843500431
 10
473.1984249129
 20
335.2731078778
 10
472.5645357257
 20
335.1147530402
 10
471.970024896
 20
334.9117828807
 10
471.4242682149
 20
334.6673983599
 10
470.9358725913
 20
334.3854535677
 10
470.5125403157
 20
334.0703949419
 10
470.1609475912
 20
333.7271911453
 10
469.886639245
 20
333.3612547066
 10
469.6939412836
 20
332.9783566623
 10
469.5858926689
 20
332.5845355431
 10
469.5641973922
 20
332.1860021434
 10
469.6291976009
 20
331.789041573
 10
469.779868203
 20
331.3999141371
 10
470.013833033
 20
331.024756608
 10
470.3274023257
 20
330.6694854439
 10
470.7156309062
 20
330.3397034833
 10
471.1723961777
 20
330.0406115848
  0
LWPOLYLINE
  5
F1
330
1F
100
AcDbEntity
  8
0
  6
HIDDEN
 62
     7
370
    18
100
AcDbPolyline
 90
       34
 70
   128
 43
0.0
 10
487.3089321881
 20
328.7423319853
 10
486.6688028025
 20
329.1488384052
 10
486.0985072129
 20
329.5886310314
 10
485.6032101043
 20
330.0577270338
 10
485.1873969642
 20
330.5518782064
 10
484.8548334606
 20
331.0666094396
 10
484.6085313403
 20
331.5972592477
 10
484.4507211533
 20
332.1390219838
 10
484.3828320531
 20
332.6869913608
 10
484.4054788539
 20
333.236204883
 10
484.5184564628
 20
333.7816887877
 10
484.7207417371
 20
334.3185030884
 10
485.01050275
 20
334.8417863114
 10
485.3851153809
 20
335.346799523
 10
485.8411870798
 20
335.8289692452
 10
486.3745875908
 20
336.2839288745
 10
486.9804863562
 20
336.7075582259
 10
487.653396263
 20
337.0960208464
 10
488.3872233349
 20
337.4457987585
 10
489.1753219203
 20
337.7537243191
 10
490.0105548763
 20
338.0170089067
 10
490.885358204
 20
338.2332681753
 10
491.791809549
 20
338.4005436475
 10
492.7216999475
 20
338.5173204507
 10
493.666608168
 20
338.582541036
 10
494.6179769755
 20
338.5956147559
 10
495.5671906266
 20
338.5564232125
 10
496.5056528955
 20
338.4653213307
 10
497.4248649227
 20
338.3231341432
 10
498.3165021816
 20
338.1311493191
 10
499.1724898672
 20
337.8911055028
 10
499.9850760224
 20
337.6051765682
 10
500.7469017412
 20
337.275951932
 10
501.4510678119
 20
336.9064131036
  0
LWPOLYLINE
  5
F2
330
1F
100
AcDbEntity
  8
0
  6
HIDDEN
 62
     7
370
    18
100
AcDbPolyline
 90
       63
 70
   128
 43
0.0
 10
470.3383694397
 20
321.3950570791
 10
469.1515380947
 20
322.1158272654
 10
468.0294678496
 20
322.8703742796
 10
466.9750390426
 20
323.6567612101
 10
465.9909583773
 20
324.4729694132
 10
465.0797519747
 20
325.3169036939
 10
464.2437588886
 20
326.1863976852
 10
463.4851251012
 20
327.0792194084
 10
462.8057980145
 20
327.993077003
 10
462.2075214516
 20
328.9256246096
 10
461.6918311796
 20
329.8744683919
 10
461.2600509682
 20
330.8371726815
 10
460.9132891909
 20
331.8112662303
 10
460.6524359803
 20
332.7942485541
 10
460.4781609428
 20
333.7835963515
 10
460.3909114399
 20
334.7767699808
 10
460.3909114399
 20
335.7712199795
 10
460.4781609428
 20
336.7643936087
 10
460.6524359803
 20
337.7537414061
 10
460.9132891909
 20
338.7367237299
 10
461.2600509682
 20
339.7108172787
 10
461.6918311796
 20
340.6735215683
 10
462.2075214516
 20
341.6223653506
 10
462.8057980145
 20
342.5549129572
 10
463.4851251012
 20
343.4687705518
 10
464.2437588886
 20
344.361592275
 10
465.0797519747
 20
345.2310862663
 10
465.9909583773
 20
346.075020547
 10
466.9750390426
 20
346.8912287501
 10
468.0294678496
 20
347.6776156807
 10
469.1515380947
 20
348.4321626948
 10
470.3383694397
 20
349.1529328811
 10
471.5869153055
 20
349.8380760329
 10
472.8939706928
 20
350.4858333975
 10
474.2561804092
 20
351.094542191
 10
475.6700476819
 20
351.6626398668
 10
477.1319431339
 20
352.1886681262
 10
478.6381141004
 20
352.6712766622
 10
480.1846942623
 20
353.1092266256
 10
481.7677135704
 20
353.5013938052
 10
483.3831084369
 20
353.8467715135
 10
485.0267321663
 20
354.1444731707
 10
486.6943656002
 20
354.3937345811
 10
488.3817279472
 20
354.5939158941
 10
490.0844877726
 20
354.7445032473
 10
491.7982741163
 20
354.8451100849
 10
493.5186877134
 20
354.8954781508
 10
495.2413122866
 20
354.8954781508
 10
496.9617258837
 20
354.8451100849
 10
498.6755122274
 20
354.7445032473
 10
500.3782720528
 20
354.5939158941
 10
502.0656343998
 20
354.3937345811
 10
503.7332678337
 20
354.1444731707
 10
505.3768915631
 20
353.8467715135
 10
506.9922864296
 20
353.5013938052
 10
508.5753057377
 20
353.1092266256
 10
510.1218858996
 20
352.6712766622
 10
511.6280568661
 20
352.1886681262
 10
513.0899523181
 20
351.6626398668
 10
514.5038195908
 20
351.094542191
 10
515.8660293072
 20
350.4858333975
 10
517.1730846945
 20
349.8380760329
 10
518.4216305603
 20
349.1529328811
  0
LWPOLYLINE
  5
F3
330
1F
100
AcDbEntity
  8
0
  6
HIDDEN
 62
     7
370
    18
100
AcDbPolyline
 90
       26
 70
   128
 43
0.0
 10
509.8094292293
 20
336.0171337604
 10
510.3275277307
 20
335.7534487819
 10
510.8987887392
 20
335.5293291929
 10
511.5142031273
 20
335.3483094933
 10
512.1640654426
 20
335.2132444719
 10
512.8381269681
 20
335.1262641848
 10
513.5257573509
 20
335.088740363
 10
514.216112249
 20
335.1012647796
 10
514.8983043535
 20
335.1636399172
 10
515.5615750871
 20
335.2748820824
 10
516.1954642743
 20
335.43323692
 10
516.789975104
 20
335.6362070796
 10
517.3357317851
 20
335.8805916004
 10
517.8241274087
 20
336.1625363925
 10
518.2474596843
 20
336.4775950183
 10
518.5990524088
 20
336.820798815
 10
518.873360755
 20
337.1867352536
 10
519.0660587164
 20
337.5696332979
 10
519.1741073311
 20
337.9634544171
 10
519.1958026078
 20
338.3619878168
 10
519.1308023991
 20
338.7589483872
 10
518.980131797
 20
339.1480758231
 10
518.746166967
 20
339.5232333522
 10
518.4325976743
 20
339.8785045163
 10
518.0443690938
 20
340.2082864769
 10
517.5876038223
 20
340.5073783755
  0
LWPOLYLINE
  5
F4
330
1F
100
AcDbEntity
  8
0
  6
HIDDEN
 62
     7
370
    18
100
AcDbPolyline
 90
       26
 70
   128
 43
0.0
 10
517.5876038223
 20
340.5073783755
 10
517.0695053209
 20
340.771063354
 10
516.4982443124
 20
340.995182943
 10
515.8828299243
 20
341.1762026426
 10
515.232967609
 20
341.311267664
 10
514.5589060835
 20
341.3982479511
 10
513.8712757007
 20
341.4357717729
 10
513.1809208025
 20
341.4232473563
 10
512.4987286981
 20
341.3608722187
 10
511.8354579644
 20
341.2496300534
 10
511.2015687772
 20
341.0912752159
 10
510.6070579476
 20
340.8883050563
 10
510.0613012665
 20
340.6439205355
 10
509.5729056428
 20
340.3619757433
 10
509.1495733673
 20
340.0469171176
 10
508.7979806427
 20
339.7037133209
 10
508.5236722965
 20
339.3377768823
 10
508.3309743351
 20
338.954878838
 10
508.2229257205
 20
338.5610577188
 10
508.2012304438
 20
338.1625243191
 10
508.2662306525
 20
337.7655637487
 10
508.4169012546
 20
337.3764363128
 10
508.6508660845
 20
337.0012787836
 10
508.9644353773
 20
336.6460076195
 10
509.3526639577
 20
336.316225659
 10
509.8094292293
 20
336.0171337604
  0
LWPOLYLINE
  5
F5
330
1F
100
AcDbEntity
  8
0
  6
HIDDEN
 62
     7
370
    18
100
AcDbPolyline
 90
       38
 70
   128
 43
0.0
 10
503.2188347648
 20
338.3351936493
 10
503.9365783148
 20
337.8840851227
 10
504.5854664991
 20
337.3994628487
 10
505.1608240634
 20
336.8848185419
 10
505.6585055432
 20
336.3438602262
 10
506.0749251322
 20
335.7804855188
 10
506.4070825176
 20
335.1987535473
 10
506.6525844979
 20
334.6028557038
 10
506.8096622256
 20
333.9970854461
 10
506.8771839522
 20
333.3858073627
 10
506.854663182
 20
332.7734257262
 10
506.7422621778
 20
332.1643527603
 10
506.5407907912
 20
331.5629768497
 10
506.2517006284
 20
330.9736309216
 10
505.8770745905
 20
330.400561227
 10
505.4196118667
 20
329.847896746
 10
504.8826084864
 20
329.3196194391
 10
504.2699335713
 20
328.8195355562
 10
503.5860014583
 20
328.3512482132
 10
502.8357398937
 20
327.9181314311
 10
502.0245545295
 20
327.5233058263
 10
501.1582899747
 20
327.1696161263
 10
500.2431876853
 20
326.8596106736
 10
499.2858409943
 20
326.5955230644
 10
498.2931476065
 20
326.3792560561
 10
497.2722599005
 20
326.2123678574
 10
496.2305333957
 20
326.0960609016
 10
495.1754737553
 20
326.031173183
 10
494.1146827083
 20
326.0181722191
 10
493.0558032785
 20
326.0571516822
 10
492.0064647164
 20
326.1478307242
 10
490.9742275304
 20
326.2895560007
 10
489.9665290131
 20
326.4813063778
 10
488.9906296554
 20
326.7217002896
 10
488.0535608345
 20
327.0090056925
 10
487.1620741528
 20
327.3411525444
 10
486.3225927922
 20
327.7157477197
 10
485.5411652352
 20
328.1300922515
  0
LWPOLYLINE
  5
F6
330
1F
100
AcDbEntity
  8
0
  6
HIDDEN
 62
     7
370
    18
100
AcDbPolyline
 90
       38
 70
   128
 43
0.0
 10
503.2188347648
 20
340.376545679
 10
503.9365783148
 20
339.9254371524
 10
504.5854664991
 20
339.4408148785
 10
505.1608240634
 20
338.9261705716
 10
505.6585055432
 20
338.3852122559
 10
506.0749251322
 20
337.8218375485
 10
506.4070825176
 20
337.240105577
 10
506.6525844979
 20
336.6442077335
 10
506.8096622256
 20
336.0384374758
 10
506.8771839522
 20
335.4271593924
 10
506.854663182
 20
334.8147777559
 10
506.7422621778
 20
334.20570479
 10
506.5407907912
 20
333.6043288794
 10
506.2517006284
 20
333.0149829513
 10
505.8770745905
 20
332.4419132567
 10
505.4196118667
 20
331.8892487757
 10
504.8826084864
 20
331.3609714688
 10
504.2699335713
 20
330.8608875859
 10
503.5860014583
 20
330.3926002429
 10
502.8357398937
 20
329.9594834608
 10
502.0245545295
 20
329.564657856
 10
501.1582899747
 20
329.2109681561
 10
500.2431876853
 20
328.9009627033
 10
499.2858409943
 20
328.6368750941
 10
498.2931476065
 20
328.4206080858
 10
497.2722599005
 20
328.2537198871
 10
496.2305333957
 20
328.1374129313
 10
495.1754737553
 20
328.0725252127
 10
494.1146827083
 20
328.0595242488
 10
493.0558032785
 20
328.0985037119
 10
492.0064647164
 20
328.189182754
 10
490.9742275304
 20
328.3309080305
 10
489.9665290131
 20
328.5226584075
 10
488.9906296554
 20
328.7630523193
 10
488.0535608345
 20
329.0503577222
 10
487.1620741528
 20
329.3825045741
 10
486.3225927922
 20
329.7570997494
 10
485.5411652352
 20
330.1714442812
  0
LINE
  5
F7
330
1F
100
AcDbEntity
  8
0
  6
HIDDEN
 62
     7
370
    18
100
AcDbLine
 10
485.8947186258
 20
327.9259238735
 30
0.0
 11
485.5411652352
 21
328.1300922515
 31
0.0
  0
LWPOLYLINE
  5
F8
330
1F
100
AcDbEntity
  8
0
  6
HIDDEN
 62
     7
370
    18
100
AcDbPolyline
 90
       38
 70
   128
 43
0.0
 10
502.8652813742
 20
337.7228212154
 10
503.5543151822
 20
337.2897570299
 10
504.1772478391
 20
336.8245196469
 10
504.7295911008
 20
336.3304611123
 10
505.2073653215
 20
335.8111411292
 10
505.6071281269
 20
335.2703014101
 10
505.9259992169
 20
334.7118387174
 10
506.161681118
 20
334.1397767877
 10
506.3124757366
 20
333.5582373403
 10
506.3772965941
 20
332.9714103803
 10
506.3556766547
 20
332.3835240092
 10
506.2477716906
 20
331.7988139619
 10
506.0543591596
 20
331.2214930878
 10
505.7768326032
 20
330.6557209968
 10
505.4171916069
 20
330.10557409
 10
504.978027392
 20
329.5750161883
 10
504.462504147
 20
329.0678699736
 10
503.8743362285
 20
328.587789446
 10
503.2177613999
 20
328.1382335967
 10
502.497510298
 20
327.7224414859
 10
501.7187723483
 20
327.3434089053
 10
500.8871583757
 20
327.0038667934
 10
500.0086601779
 20
326.7062615587
 10
499.0896073545
 20
326.4527374539
 10
498.1366217022
 20
326.2451211259
 10
497.1565695045
 20
326.0849084552
 10
496.1565120598
 20
325.9732537776
 10
495.1436548051
 20
325.9109615678
 10
494.1252954
 20
325.8984806424
 10
493.1087711474
 20
325.935900927
 10
492.1014061278
 20
326.0229528073
 10
491.1104584292
 20
326.1590090728
 10
490.1430678526
 20
326.3430894348
 10
489.2062044692
 20
326.5738675901
 10
488.3066184011
 20
326.8496807768
 10
487.4507911867
 20
327.1685417547
 10
486.6448890805
 20
327.5281531229
 10
485.8947186258
 20
327.9259238735
  0
LWPOLYLINE
  5
F9
330
1F
100
AcDbEntity
  8
0
  6
HIDDEN
 62
     7
370
    18
100
AcDbPolyline
 90
       26
 70
   128
 43
0.0
 10
476.3487770797
 20
341.1929537908
 10
476.8668755812
 20
340.9292688123
 10
477.4381365896
 20
340.7051492233
 10
478.0535509778
 20
340.5241295237
 10
478.7034132931
 20
340.3890645023
 10
479.3774748185
 20
340.3020842152
 10
480.0651052013
 20
340.2645603934
 10
480.7554600995
 20
340.27708481
 10
481.437652204
 20
340.3394599476
 10
482.1009229376
 20
340.4507021128
 10
482.7348121248
 20
340.6090569504
 10
483.3293229545
 20
340.81202711
 10
483.8750796355
 20
341.0564116308
 10
484.3634752592
 20
341.3383564229
 10
484.7868075348
 20
341.6534150487
 10
485.1384002593
 20
341.9966188454
 10
485.4127086055
 20
342.362555284
 10
485.6054065669
 20
342.7454533283
 10
485.7134551816
 20
343.1392744475
 10
485.7351504583
 20
343.5378078472
 10
485.6701502495
 20
343.9347684176
 10
485.5194796475
 20
344.3238958535
 10
485.2855148175
 20
344.6990533826
 10
484.9719455248
 20
345.0543245467
 10
484.5837169443
 20
345.3841065073
 10
484.1269516728
 20
345.6831984059
  0
LWPOLYLINE
  5
FA
330
1F
100
AcDbEntity
  8
0
  6
HIDDEN
 62
     7
370
    18
100
AcDbPolyline
 90
       26
 70
   128
 43
0.0
 10
484.1269516728
 20
345.6831984059
 10
483.6088531714
 20
345.9468833844
 10
483.0375921629
 20
346.1710029734
 10
482.4221777748
 20
346.352022673
 10
481.7723154595
 20
346.4870876944
 10
481.098253934
 20
346.5740679815
 10
480.4106235512
 20
346.6115918033
 10
479.720268653
 20
346.5990673867
 10
479.0380765486
 20
346.5366922491
 10
478.3748058149
 20
346.4254500838
 10
477.7409166277
 20
346.2670952463
 10
477.1464057981
 20
346.0641250867
 10
476.600649117
 20
345.8197405659
 10
476.1122534933
 20
345.5377957737
 10
475.6889212178
 20
345.2227371479
 10
475.3373284932
 20
344.8795333513
 10
475.063020147
 20
344.5135969127
 10
474.8703221856
 20
344.1306988684
 10
474.762273571
 20
343.7368777492
 10
474.7405782943
 20
343.3383443495
 10
474.805578503
 20
342.9413837791
 10
474.956249105
 20
342.5522563432
 10
475.190213935
 20
342.177098814
 10
475.5037832277
 20
341.8218276499
 10
475.8920118082
 20
341.4920456894
 10
476.3487770797
 20
341.1929537908
  0
LWPOLYLINE
  5
FB
330
1F
100
AcDbEntity
  8
0
  6
HIDDEN
 62
     7
370
    18
100
AcDbPolyline
 90
       26
 70
   128
 43
0.0
 10
495.6672936055
 20
344.1812148787
 10
496.185392107
 20
343.9175299001
 10
496.7566531154
 20
343.6934103111
 10
497.3720675036
 20
343.5123906115
 10
498.0219298188
 20
343.3773255901
 10
498.6959913443
 20
343.290345303
 10
499.3836217271
 20
343.2528214812
 10
500.0739766253
 20
343.2653458979
 10
500.7561687297
 20
343.3277210354
 10
501.4194394634
 20
343.4389632007
 10
502.0533286506
 20
343.5973180383
 10
502.6478394802
 20
343.8002881978
 10
503.1935961613
 20
344.0446727186
 10
503.681991785
 20
344.3266175108
 10
504.1053240606
 20
344.6416761366
 10
504.4569167851
 20
344.9848799332
 10
504.7312251313
 20
345.3508163718
 10
504.9239230927
 20
345.7337144161
 10
505.0319717074
 20
346.1275355353
 10
505.0536669841
 20
346.526068935
 10
504.9886667753
 20
346.9230295054
 10
504.8379961733
 20
347.3121569413
 10
504.6040313433
 20
347.6873144705
 10
504.2904620506
 20
348.0425856346
 10
503.9022334701
 20
348.3723675952
 10
503.4454681986
 20
348.6714594937
  0
LWPOLYLINE
  5
FC
330
1F
100
AcDbEntity
  8
0
  6
HIDDEN
 62
     7
370
    18
100
AcDbPolyline
 90
       38
 70
   128
 43
0.0
 10
485.5411652352
 20
328.1300922515
 10
484.8234216852
 20
328.5812007781
 10
484.1745335009
 20
329.0658230521
 10
483.5991759366
 20
329.5804673589
 10
483.1014944568
 20
330.1214256746
 10
482.6850748678
 20
330.684800382
 10
482.3529174824
 20
331.2665323535
 10
482.1074155021
 20
331.862430197
 10
481.9503377744
 20
332.4682004547
 10
481.8828160478
 20
333.0794785381
 10
481.905336818
 20
333.6918601746
 10
482.0177378222
 20
334.3009331405
 10
482.2192092088
 20
334.9023090511
 10
482.5082993716
 20
335.4916549792
 10
482.8829254095
 20
336.0647246738
 10
483.3403881333
 20
336.6173891548
 10
483.8773915136
 20
337.1456664617
 10
484.4900664287
 20
337.6457503446
 10
485.1739985417
 20
338.1140376876
 10
485.9242601063
 20
338.5471544697
 10
486.7354454705
 20
338.9419800745
 10
487.6017100253
 20
339.2956697745
 10
488.5168123147
 20
339.6056752272
 10
489.4741590057
 20
339.8697628364
 10
490.4668523935
 20
340.0860298447
 10
491.4877400995
 20
340.2529180434
 10
492.5294666043
 20
340.3692249992
 10
493.5845262447
 20
340.4341127178
 10
494.6453172917
 20
340.4471136817
 10
495.7041967215
 20
340.4081342186
 10
496.7535352836
 20
340.3174551766
 10
497.7857724696
 20
340.1757299001
 10
498.7934709869
 20
339.983979523
 10
499.7693703446
 20
339.7435856112
 10
500.7064391655
 20
339.4562802083
 10
501.5979258472
 20
339.1241333564
 10
502.4374072078
 20
338.7495381811
 10
503.2188347648
 20
338.3351936493
  0
LWPOLYLINE
  5
FD
330
1F
100
AcDbEntity
  8
0
  6
HIDDEN
 62
     7
370
    18
100
AcDbPolyline
 90
       38
 70
   128
 43
0.0
 10
485.5411652352
 20
330.1714442812
 10
484.8234216852
 20
330.6225528078
 10
484.1745335009
 20
331.1071750818
 10
483.5991759366
 20
331.6218193886
 10
483.1014944568
 20
332.1627777043
 10
482.6850748678
 20
332.7261524117
 10
482.3529174824
 20
333.3078843833
 10
482.1074155021
 20
333.9037822267
 10
481.9503377744
 20
334.5095524844
 10
481.8828160478
 20
335.1208305678
 10
481.905336818
 20
335.7332122043
 10
482.0177378222
 20
336.3422851702
 10
482.2192092088
 20
336.9436610808
 10
482.5082993716
 20
337.5330070089
 10
482.8829254095
 20
338.1060767036
 10
483.3403881333
 20
338.6587411845
 10
483.8773915136
 20
339.1870184915
 10
484.4900664287
 20
339.6871023744
 10
485.1739985417
 20
340.1553897174
 10
485.9242601063
 20
340.5885064994
 10
486.7354454705
 20
340.9833321042
 10
487.6017100253
 20
341.3370218042
 10
488.5168123147
 20
341.6470272569
 10
489.4741590057
 20
341.9111148661
 10
490.4668523935
 20
342.1273818744
 10
491.4877400995
 20
342.2942700731
 10
492.5294666043
 20
342.4105770289
 10
493.5845262447
 20
342.4754647475
 10
494.6453172917
 20
342.4884657114
 10
495.7041967215
 20
342.4494862483
 10
496.7535352836
 20
342.3588072063
 10
497.7857724696
 20
342.2170819298
 10
498.7934709869
 20
342.0253315527
 10
499.7693703446
 20
341.7849376409
 10
500.7064391655
 20
341.4976322381
 10
501.5979258472
 20
341.1654853861
 10
502.4374072078
 20
340.7908902109
 10
503.2188347648
 20
340.376545679
  0
LWPOLYLINE
  5
FE
330
1F
100
AcDbEntity
  8
0
  6
HIDDEN
 62
     7
370
    18
100
AcDbPolyline
 90
       38
 70
   128
 43
0.0
 10
485.8947186258
 20
327.9259238735
 10
485.2056848178
 20
328.358988059
 10
484.5827521609
 20
328.8242254421
 10
484.0304088992
 20
329.3182839766
 10
483.5526346785
 20
329.8376039597
 10
483.1528718731
 20
330.3784436788
 10
482.8340007831
 20
330.9369063715
 10
482.598318882
 20
331.5089683012
 10
482.4475242634
 20
332.0905077486
 10
482.3827034059
 20
332.6773347087
 10
482.4043233453
 20
333.2652210797
 10
482.5122283094
 20
333.849931127
 10
482.7056408404
 20
334.4272520011
 10
482.9831673968
 20
334.9930240921
 10
483.3428083931
 20
335.543170999
 10
483.781972608
 20
336.0737289007
 10
484.297495853
 20
336.5808751153
 10
484.8856637715
 20
337.0609556429
 10
485.5422386001
 20
337.5105114922
 10
486.262489702
 20
337.926303603
 10
487.0412276517
 20
338.3053361836
 10
487.8728416243
 20
338.6448782956
 10
488.7513398221
 20
338.9424835302
 10
489.6703926455
 20
339.196007635
 10
490.6233782978
 20
339.403623963
 10
491.6034304955
 20
339.5638366338
 10
492.6034879402
 20
339.6754913113
 10
493.6163451949
 20
339.7377835211
 10
494.6347046
 20
339.7502644465
 10
495.6512288526
 20
339.7128441619
 10
496.6585938722
 20
339.6257922816
 10
497.6495415708
 20
339.4897360161
 10
498.6169321474
 20
339.3056556541
 10
499.5537955308
 20
339.0748774988
 10
500.4533815989
 20
338.7990643121
 10
501.3092088133
 20
338.4802033342
 10
502.1151109195
 20
338.120591966
 10
502.8652813742
 20
337.7228212154
  0
LWPOLYLINE
  5
FF
330
1F
100
AcDbEntity
  8
0
  6
HIDDEN
 62
     7
370
    18
100
AcDbPolyline
 90
       26
 70
   128
 43
0.0
 10
503.4454681986
 20
348.6714594937
 10
502.9273696971
 20
348.9351444722
 10
502.3561086887
 20
349.1592640612
 10
501.7406943005
 20
349.3402837608
 10
501.0908319853
 20
349.4753487822
 10
500.4167704598
 20
349.5623290693
 10
499.729140077
 20
349.5998528911
 10
499.0387851788
 20
349.5873284745
 10
498.3565930744
 20
349.5249533369
 10
497.6933223407
 20
349.4137111717
 10
497.0594331535
 20
349.2553563341
 10
496.4649223239
 20
349.0523861746
 10
495.9191656428
 20
348.8080016538
 10
495.4307700191
 20
348.5260568616
 10
495.0074377435
 20
348.2109982358
 10
494.655845019
 20
347.8677944391
 10
494.3815366728
 20
347.5018580005
 10
494.1888387114
 20
347.1189599562
 10
494.0807900967
 20
346.725138837
 10
494.05909482
 20
346.3266054373
 10
494.1240950288
 20
345.9296448669
 10
494.2747656308
 20
345.540517431
 10
494.5087304608
 20
345.1653599019
 10
494.8222997535
 20
344.8100887378
 10
495.210528334
 20
344.4803067772
 10
495.6672936055
 20
344.1812148787
  0
LINE
  5
100
330
1F
100
AcDbEntity
  8
0
  6
HIDDEN
 62
     7
370
    18
100
AcDbLine
 10
523.38
 20
358.9536785248
 30
0.0
 11
523.38
 21
367.9356274555
 31
0.0
  0
SPLINE
  5
101
330
1F
100
AcDbEntity
  8
0
  6
HIDDEN
 62
     7
370
    18
100
AcDbSpline
210
0.0
220
0.0
230
1.0
 70
     8
 71
     3
 72
    58
 73
    54
 74
     0
 42
0.00000001
 43
0.00000001
 40
0.0
 40
0.0
 40
0.0
 40
0.0
 40
0.0175691501770593
 40
0.0382823334203726
 40
0.0589407494640538
 40
0.0795003074878547
 40
0.0999334681783793
 40
0.1202300771953164
 40
0.1403941583132336
 40
0.1604390775922777
 40
0.1803829701133129
 40
0.200245300839166
 40
0.2200446733942747
 40
0.2397976507191518
 40
0.2595182746784836
 40
0.2792180156830079
 40
0.2989059580355705
 40
0.3185890942101096
 40
0.3382717533310431
 40
0.3579574867276053
 40
0.3776492719395704
 40
0.3973490896041387
 40
0.4170581415754854
 40
0.4367770300010971
 40
0.4565059012899405
 40
0.4762445600189292
 40
0.4959925578061741
 40
0.5157492617590368
 40
0.535513906516077
 40
0.555285633277316
 40
0.5750635186270014
 40
0.5948465954305683
 40
0.6146338676440898
 40
0.6344243205105499
 40
0.6542169273268639
 40
0.6740106537409941
 40
0.6938044603720868
 40
0.7135969769684707
 40
0.7333871393318245
 40
0.7531739028275026
 40
0.7729562253133573
 40
0.7927330714067664
 40
0.8125034192265186
 40
0.8322662705718281
 40
0.8520206657310991
 40
0.8717657044054448
 40
0.8915005745975559
 40
0.9112245917599121
 40
0.9309372510161207
 40
0.9506382958508065
 40
0.9703278072697956
 40
0.9900063179865878
 40
1.0
 40
1.0
 40
1.0
 40
1.0
 10
529.374911784954
 20
342.1689511477433
 30
0.0
 10
529.3704373861851
 20
341.9114580566921
 30
0.0
 10
529.3606878864202
 20
341.3503929928886
 30
0.0
 10
529.251544246278
 20
340.4869755923589
 30
0.0
 10
529.066957907063
 20
339.5808380844418
 30
0.0
 10
528.8035196505278
 20
338.6807998605502
 30
0.0
 10
528.4650480603206
 20
337.7892745436761
 30
0.0
 10
528.0521549366659
 20
336.9082848962577
 30
0.0
 10
527.5663748781474
 20
336.0395201309937
 30
0.0
 10
527.0089549754854
 20
335.1844593363188
 30
0.0
 10
526.3811522029613
 20
334.3444955786893
 30
0.0
 10
525.6841905657885
 20
333.521028439498
 30
0.0
 10
524.9193350989069
 20
332.71551641052
 30
0.0
 10
524.087937157918
 20
331.9294955947815
 30
0.0
 10
523.1914767677256
 20
331.1645754898624
 30
0.0
 10
522.2315906321352
 20
330.4224217710121
 30
0.0
 10
521.2100890560228
 20
329.7047333240671
 30
0.0
 10
520.1289796768275
 20
329.013228655267
 30
0.0
 10
518.9904595519225
 20
328.349613390149
 30
0.0
 10
517.7968989913029
 20
327.7155529804384
 30
0.0
 10
516.5508125609109
 20
327.1126489442559
 30
0.0
 10
515.254860282433
 20
326.5424351892206
 30
0.0
 10
513.9118500055062
 20
326.0063738638458
 30
0.0
 10
512.5247259410536
 20
325.5058459317564
 30
0.0
 10
511.0965569921179
 20
325.042143754644
 30
0.0
 10
509.6305251884789
 20
324.6164653174831
 30
0.0
 10
508.1299143937804
 20
324.2299097655867
 30
0.0
 10
506.598099366206
 20
323.8834739737893
 30
0.0
 10
505.0385351964338
 20
323.5780499189199
 30
0.0
 10
503.4547471115181
 20
323.3144226732909
 30
0.0
 10
501.8503206135261
 20
323.0932688770098
 30
0.0
 10
500.228891912104
 20
322.9151555800975
 30
0.0
 10
498.5941386068605
 20
322.7805393720542
 30
0.0
 10
496.9497705760954
 20
322.6897657374514
 30
0.0
 10
495.2995210302618
 20
322.6430685923526
 30
0.0
 10
493.6471376936224
 20
322.6405699686108
 30
0.0
 10
491.996383176347
 20
322.6822795930413
 30
0.0
 10
490.3510176174791
 20
322.7680939116155
 30
0.0
 10
488.7147891735557
 20
322.897796088336
 30
0.0
 10
487.0914162796678
 20
323.0710574684331
 30
0.0
 10
485.4845875051825
 20
323.2874376793267
 30
0.0
 10
483.8979532908131
 20
323.5463849415482
 30
0.0
 10
482.335117063156
 20
323.8472365617232
 30
0.0
 10
480.7996259804582
 20
324.1892194847351
 30
0.0
 10
479.2949621778231
 20
324.5714514076602
 30
0.0
 10
477.8245310237174
 20
324.9929408030528
 30
0.0
 10
476.3916591230085
 20
325.45259233275
 30
0.0
 10
474.9995542836415
 20
325.9491939286454
 30
0.0
 10
473.6514053426726
 20
326.4814746192363
 30
0.0
 10
472.3499582440401
 20
327.047901763133
 30
0.0
 10
471.0990426750028
 20
327.6474542855104
 30
0.0
 10
470.0946794357552
 20
328.1736309684268
 30
0.0
 10
469.5155829427426
 20
328.503212950474
 30
0.0
 10
469.320541536168
 20
328.6142171339491
 30
0.0
  0
LINE
  5
102
330
1F
100
AcDbEntity
  8
0
  6
HIDDEN
 62
     7
370
    18
100
AcDbLine
 10
529.38
 20
336.090535792
 30
0.0
 11
529.38
 21
342.2145918811
 31
0.0
  0
LINE
  5
103
330
1F
100
AcDbEntity
  8
0
  6
HIDDEN
 62
     7
370
    18
100
AcDbLine
 10
465.38
 20
367.9356274555
 30
0.0
 11
465.38
 21
358.9536785248
 31
0.0
  0
LINE
  5
104
330
1F
100
AcDbEntity
  8
0
  6
HIDDEN
 62
     7
370
    18
100
AcDbLine
 10
494.7036190979
 20
324.1216527741
 30
0.0
 11
494.7036190979
 21
347.8013363187
 31
0.0
  0
LINE
  5
105
330
1F
100
AcDbEntity
  8
0
  6
HIDDEN
 62
     7
370
    18
100
AcDbLine
 10
483.7036190979
 20
347.8013363187
 30
0.0
 11
483.7036190979
 21
324.1216527741
 31
0.0
  0
LINE
  5
106
330
1F
100
AcDbEntity
  8
0
  6
HIDDEN
 62
     7
370
    18
100
AcDbLine
 10
514.0221356237
 20
327.1099138619
 30
0.0
 11
514.0221356237
 21
350.7895974066
 31
0.0
  0
LINE
  5
107
330
1F
100
AcDbEntity
  8
0
  6
HIDDEN
 62
     7
370
    18
100
AcDbLine
 10
503.0221356237
 20
350.7895974066
 30
0.0
 11
503.0221356237
 21
327.1099138619
 31
0.0
  0
LINE
  5
108
330
1F
100
AcDbEntity
  8
0
  6
HIDDEN
 62
     7
370
    18
100
AcDbLine
 10
504.38
 20
332.8243725445
 30
0.0
 11
504.38
 21
358.9536785248
 31
0.0
  0
LINE
  5
109
330
1F
100
AcDbEntity
  8
0
  6
HIDDEN
 62
     7
370
    18
100
AcDbLine
 10
480.5614834742
 20
332.2857338923
 30
0.0
 11
480.5614834742
 21
355.965417437
 31
0.0
  0
SPLINE
  5
10A
330
1F
100
AcDbEntity
  8
0
  6
HIDDEN
 62
     7
370
    18
100
AcDbSpline
210
0.0
220
0.0
230
1.0
 70
     8
 71
     3
 72
    25
 73
    21
 74
     0
 42
0.00000001
 43
0.00000001
 40
0.0
 40
0.0
 40
0.0
 40
0.0
 40
0.0310263190560941
 40
0.0901502142024458
 40
0.149256895021399
 40
0.2083596671608149
 40
0.2674711705165094
 40
0.3266123728180677
 40
0.3858105258302825
 40
0.4451000299374901
 40
0.5045229775184427
 40
0.564129026655894
 40
0.6239740876481048
 40
0.6841171251981096
 40
0.7446142731260156
 40
0.805509616867307
 40
0.8668227478561068
 40
0.9285348844522369
 40
0.990577907797198
 40
1.0
 40
1.0
 40
1.0
 40
1.0
 10
469.320541536168
 20
328.6142171339491
 30
0.0
 10
469.1222234024225
 20
328.7303957915357
 30
0.0
 10
468.5459893282141
 20
329.0679650290676
 30
0.0
 10
467.6352366675079
 20
329.6483444093229
 30
0.0
 10
466.6099376960842
 20
330.362472547382
 30
0.0
 10
465.6472655788606
 20
331.1010204485345
 30
0.0
 10
464.7481305787823
 20
331.8616021660997
 30
0.0
 10
463.9144357183649
 20
332.6424654420918
 30
0.0
 10
463.1475377338572
 20
333.4417348513079
 30
0.0
 10
462.4486766057067
 20
334.2576525996896
 30
0.0
 10
461.8188835213525
 20
335.088558701844
 30
0.0
 10
461.2590478036274
 20
335.9329431574246
 30
0.0
 10
460.7699384093881
 20
336.7894689303969
 30
0.0
 10
460.3523441139334
 20
337.6569793208215
 30
0.0
 10
460.0068701685623
 20
338.5344690437167
 30
0.0
 10
459.7350474277728
 20
339.4210031987129
 30
0.0
 10
459.5354438440966
 20
340.315587916147
 30
0.0
 10
459.4184245696349
 20
341.2169653270975
 30
0.0
 10
459.3696884431881
 20
341.8660400891516
 30
0.0
 10
459.3832943829385
 20
342.2143153623189
 30
0.0
 10
459.385088215046
 20
342.2602326145417
 30
0.0
  0
LINE
  5
10B
330
1F
100
AcDbEntity
  8
0
  6
HIDDEN
 62
     7
370
    18
100
AcDbLine
 10
459.38
 20
342.2145918811
 30
0.0
 11
459.38
 21
336.090535792
 31
0.0
  0
LINE
  5
10C
330
1F
100
AcDbEntity
  8
0
  6
HIDDEN
 62
     7
370
    18
100
AcDbLine
 10
469.5614834742
 20
355.965417437
 30
0.0
 11
469.5614834742
 21
332.2857338923
 31
0.0
  0
LINE
  5
10D
330
1F
100
AcDbEntity
  8
0
  6
HIDDEN
 62
     7
370
    18
100
AcDbLine
 10
484.38
 20
358.9536785248
 30
0.0
 11
484.38
 21
332.8243725445
 31
0.0
  0
LINE
  5
10E
330
1F
100
AcDbEntity
  8
0
  6
HIDDEN
 62
     7
370
    18
100
AcDbLine
 10
519.1985165258
 20
338.2622560679
 30
0.0
 11
519.1985165258
 21
361.9419396126
 31
0.0
  0
LINE
  5
10F
330
1F
100
AcDbEntity
  8
0
  6
HIDDEN
 62
     7
370
    18
100
AcDbLine
 10
508.1985165258
 20
361.9419396126
 30
0.0
 11
508.1985165258
 21
338.2622560679
 31
0.0
  0
LINE
  5
110
330
1F
100
AcDbEntity
  8
0
  6
HIDDEN
 62
     7
370
    18
100
AcDbLine
 10
506.88
 20
333.2326429504
 30
0.0
 11
506.88
 21
335.2739949801
 31
0.0
  0
LINE
  5
111
330
1F
100
AcDbEntity
  8
0
  6
HIDDEN
 62
     7
370
    18
100
AcDbLine
 10
502.866660135
 20
327.9267199445
 30
0.0
 11
503.2202709739
 21
328.1309214921
 31
0.0
  0
LINE
  5
112
330
1F
100
AcDbEntity
  8
0
  6
HIDDEN
 62
     7
370
    18
100
AcDbLine
 10
485.7378643763
 20
343.4380760983
 30
0.0
 11
485.7378643763
 21
367.117759643
 31
0.0
  0
LINE
  5
113
330
1F
100
AcDbEntity
  8
0
  6
HIDDEN
 62
     7
370
    18
100
AcDbLine
 10
474.7378643763
 20
367.117759643
 30
0.0
 11
474.7378643763
 21
343.4380760983
 31
0.0
  0
LINE
  5
114
330
1F
100
AcDbEntity
  8
0
  6
HIDDEN
 62
     7
370
    18
100
AcDbLine
 10
505.0563809021
 20
346.4263371862
 30
0.0
 11
505.0563809021
 21
370.1060207309
 31
0.0
  0
LINE
  5
115
330
1F
100
AcDbEntity
  8
0
  6
HIDDEN
 62
     7
370
    18
100
AcDbLine
 10
481.88
 20
335.2739949801
 30
0.0
 11
481.88
 21
333.2326429504
 31
0.0
  0
LINE
  5
116
330
1F
100
AcDbEntity
  8
0
  6
HIDDEN
 62
     7
370
    18
100
AcDbLine
 10
494.0563809021
 20
370.1060207309
 30
0.0
 11
494.0563809021
 21
346.4263371862
 31
0.0
  0
ENDSEC
  0
SECTION
  2
OBJECTS
  0
DICTIONARY
  5
C
330
0
100
AcDbDictionary
281
     1
  3
ACAD_GROUP
350
D
  3
ACAD_LAYOUT
350
1A
  3
ACAD_MLINESTYLE
350
17
  3
ACAD_PLOTSETTINGS
350
19
  3
ACAD_PLOTSTYLENAME
350
E
  3
ACAD_SCALELIST
350
47
  3
DWGPROPS
350
117
  0
DICTIONARY
  5
D
102
{ACAD_REACTORS
330
C
102
}
330
C
100
AcDbDictionary
281
     1
  0
DICTIONARY
  5
1A
102
{ACAD_REACTORS
330
C
102
}
330
C
100
AcDbDictionary
281
     1
  3
Layout1
350
1E
  3
Layout2
350
26
  3
Model
350
22
  0
DICTIONARY
  5
17
102
{ACAD_REACTORS
330
C
102
}
330
C
100
AcDbDictionary
281
     1
  3
Standard
350
18
  0
DICTIONARY
  5
19
102
{ACAD_REACTORS
330
C
102
}
330
C
100
AcDbDictionary
281
     1
  0
ACDBDICTIONARYWDFLT
  5
E
102
{ACAD_REACTORS
330
C
102
}
330
C
100
AcDbDictionary
281
     1
  3
Normal
350
F
100
AcDbDictionaryWithDefault
340
F
  0
DICTIONARY
  5
47
102
{ACAD_REACTORS
330
C
102
}
330
C
100
AcDbDictionary
281
     1
  3
A0
350
48
  3
A1
350
49
  3
A2
350
4A
  3
A3
350
4B
  3
A4
350
4C
  3
A5
350
4D
  3
A6
350
4E
  3
A7
350
4F
  3
A8
350
50
  3
A9
350
51
  3
B0
350
52
  3
B1
350
53
  3
B2
350
54
  3
B3
350
55
  3
B4
350
56
  3
B5
350
57
  3
B6
350
58
  0
XRECORD
  5
117
102
{ACAD_REACTORS
330
C
102
}
330
C
100
AcDbXrecord
280
     1
  1
DWGPROPS COOKIE
  2

  3

  4

  6

  7

  8
imaizumi
  9

300
=
301
=
302
=
303
=
304
=
305
=
306
=
307
=
308
=
309
=
 40
0.0
 41
2461263.052465035
 42
2461263.052465741
  1

 90
        0
  0
LAYOUT
  5
1E
102
{ACAD_REACTORS
330
1A
102
}
330
1A
100
AcDbPlotSettings
  1

  2
none_device
  4

  6

 40
0.0
 41
0.0
 42
0.0
 43
0.0
 44
0.0
 45
0.0
 46
0.0
 47
0.0
 48
0.0
 49
0.0
140
0.0
141
0.0
142
1.0
143
1.0
 70
   688
 72
     1
 73
     0
 74
     5
  7

 75
    16
147
1.0
148
0.0
149
0.0
100
AcDbLayout
  1
Layout1
 70
     1
 71
     1
 10
0.0
 20
0.0
 11
420.0
 21
297.0
 12
0.0
 22
0.0
 32
0.0
 14
1.0000000000E+20
 24
1.0000000000E+20
 34
1.0000000000E+20
 15
-1.0000000000E+20
 25
-1.0000000000E+20
 35
-1.0000000000E+20
146
0.0
 13
0.0
 23
0.0
 33
0.0
 16
1.0
 26
0.0
 36
0.0
 17
0.0
 27
1.0
 37
0.0
 76
     0
330
1B
  0
LAYOUT
  5
26
102
{ACAD_REACTORS
330
1A
102
}
330
1A
100
AcDbPlotSettings
  1

  2
none_device
  4

  6

 40
0.0
 41
0.0
 42
0.0
 43
0.0
 44
0.0
 45
0.0
 46
0.0
 47
0.0
 48
0.0
 49
0.0
140
0.0
141
0.0
142
1.0
143
1.0
 70
   688
 72
     1
 73
     0
 74
     5
  7

 75
    16
147
1.0
148
0.0
149
0.0
100
AcDbLayout
  1
Layout2
 70
     1
 71
     2
 10
0.0
 20
0.0
 11
0.0
 21
0.0
 12
0.0
 22
0.0
 32
0.0
 14
0.0
 24
0.0
 34
0.0
 15
0.0
 25
0.0
 35
0.0
146
0.0
 13
0.0
 23
0.0
 33
0.0
 16
1.0
 26
0.0
 36
0.0
 17
0.0
 27
1.0
 37
0.0
 76
     0
330
23
  0
LAYOUT
  5
22
102
{ACAD_REACTORS
330
1A
102
}
330
1A
100
AcDbPlotSettings
  1

  2
none_device
  4
Letter_(8.50_x_11.00_Inches)
  6

 40
6.35
 41
6.35
 42
6.35000508
 43
6.35000508
 44
215.9
 45
279.4
 46
0.0
 47
0.0
 48
0.0
 49
0.0
140
0.0
141
0.0
142
1.0
143
1.0
 70
  1712
 72
     1
 73
     0
 74
     0
  7

 75
     0
147
1.0
148
0.0
149
0.0
100
AcDbLayout
  1
Model
 70
     1
 71
     0
 10
0.0
 20
0.0
 11
841.0
 21
594.0
 12
0.0
 22
0.0
 32
0.0
 14
0.0
 24
0.0
 34
0.0
 15
841.0
 25
594.0
 35
0.0
146
0.0
 13
0.0
 23
0.0
 33
0.0
 16
1.0
 26
0.0
 36
0.0
 17
0.0
 27
1.0
 37
0.0
 76
     0
330
1F
331
29
  0
MLINESTYLE
  5
18
102
{ACAD_REACTORS
330
17
102
}
330
17
100
AcDbMlineStyle
  2
Standard
 70
     0
  3

 62
   256
 51
90.0
 52
90.0
 71
     2
 49
0.5
 62
   256
  6
BYLAYER
 49
-0.5
 62
   256
  6
BYLAYER
  0
ACDBPLACEHOLDER
  5
F
102
{ACAD_REACTORS
330
E
102
}
330
E
  0
SCALE
  5
48
102
{ACAD_REACTORS
330
47
102
}
330
47
100
AcDbScale
 70
     0
300
1:1
140
1.0
141
1.0
290
     1
  0
SCALE
  5
49
102
{ACAD_REACTORS
330
47
102
}
330
47
100
AcDbScale
 70
     0
300
1:2
140
1.0
141
2.0
290
     0
  0
SCALE
  5
4A
102
{ACAD_REACTORS
330
47
102
}
330
47
100
AcDbScale
 70
     0
300
1:4
140
1.0
141
4.0
290
     0
  0
SCALE
  5
4B
102
{ACAD_REACTORS
330
47
102
}
330
47
100
AcDbScale
 70
     0
300
1:5
140
1.0
141
5.0
290
     0
  0
SCALE
  5
4C
102
{ACAD_REACTORS
330
47
102
}
330
47
100
AcDbScale
 70
     0
300
1:8
140
1.0
141
8.0
290
     0
  0
SCALE
  5
4D
102
{ACAD_REACTORS
330
47
102
}
330
47
100
AcDbScale
 70
     0
300
1:10
140
1.0
141
10.0
290
     0
  0
SCALE
  5
4E
102
{ACAD_REACTORS
330
47
102
}
330
47
100
AcDbScale
 70
     0
300
1:16
140
1.0
141
16.0
290
     0
  0
SCALE
  5
4F
102
{ACAD_REACTORS
330
47
102
}
330
47
100
AcDbScale
 70
     0
300
1:20
140
1.0
141
20.0
290
     0
  0
SCALE
  5
50
102
{ACAD_REACTORS
330
47
102
}
330
47
100
AcDbScale
 70
     0
300
1:30
140
1.0
141
30.0
290
     0
  0
SCALE
  5
51
102
{ACAD_REACTORS
330
47
102
}
330
47
100
AcDbScale
 70
     0
300
1:40
140
1.0
141
40.0
290
     0
  0
SCALE
  5
52
102
{ACAD_REACTORS
330
47
102
}
330
47
100
AcDbScale
 70
     0
300
1:50
140
1.0
141
50.0
290
     0
  0
SCALE
  5
53
102
{ACAD_REACTORS
330
47
102
}
330
47
100
AcDbScale
 70
     0
300
1:100
140
1.0
141
100.0
290
     0
  0
SCALE
  5
54
102
{ACAD_REACTORS
330
47
102
}
330
47
100
AcDbScale
 70
     0
300
2:1
140
2.0
141
1.0
290
     0
  0
SCALE
  5
55
102
{ACAD_REACTORS
330
47
102
}
330
47
100
AcDbScale
 70
     0
300
4:1
140
4.0
141
1.0
290
     0
  0
SCALE
  5
56
102
{ACAD_REACTORS
330
47
102
}
330
47
100
AcDbScale
 70
     0
300
8:1
140
8.0
141
1.0
290
     0
  0
SCALE
  5
57
102
{ACAD_REACTORS
330
47
102
}
330
47
100
AcDbScale
 70
     0
300
10:1
140
10.0
141
1.0
290
     0
  0
SCALE
  5
58
102
{ACAD_REACTORS
330
47
102
}
330
47
100
AcDbScale
 70
     0
300
100:1
140
100.0
141
1.0
290
     0
  0
ENDSEC
  0
EOF
