  0
SECTION
  2
HEADER
  9
$ACADVER
  1
AC1015
  9
$ACADMAINTVER
 70
     6
  9
$DWGCODEPAGE
  3
DOS932
  9
$INSBASE
 10
0.0
 20
0.0
 30
0.0
  9
$EXTMIN
 10
0.0
 20
0.0
 30
0.0
  9
$EXTMAX
 10
841.0
 20
594.0
 30
0.0
  9
$LIMMIN
 10
0.0
 20
0.0
  9
$LIMMAX
 10
841.0
 20
594.0
  9
$ORTHOMODE
 70
     0
  9
$REGENMODE
 70
     1
  9
$FILLMODE
 70
     1
  9
$QTEXTMODE
 70
     0
  9
$MIRRTEXT
 70
     1
  9
$LTSCALE
 40
1.0
  9
$ATTMODE
 70
     1
  9
$TEXTSIZE
 40
3.5
  9
$TRACEWID
 40
1.0
  9
$TEXTSTYLE
  7
Standard
  9
$CLAYER
  8
0
  9
$CELTYPE
  6
ByLayer
  9
$CECOLOR
 62
   256
  9
$CELTSCALE
 40
1.0
  9
$DISPSILH
 70
     0
  9
$DIMSCALE
 40
1.0
  9
$DIMASZ
 40
3.302
  9
$DIMEXO
 40
1.0
  9
$DIMDLI
 40
3.75
  9
$DIMRND
 40
0.0
  9
$DIMDLE
 40
0.0
  9
$DIMEXE
 40
1.0
  9
$DIMTP
 40
0.0
  9
$DIMTM
 40
0.0
  9
$DIMTXT
 40
3.5
  9
$DIMCEN
 40
2.5
  9
$DIMTSZ
 40
0.0
  9
$DIMTOL
 70
     0
  9
$DIMLIM
 70
     0
  9
$DIMTIH
 70
     1
  9
$DIMTOH
 70
     1
  9
$DIMSE1
 70
     0
  9
$DIMSE2
 70
     0
  9
$DIMTAD
 70
     1
  9
$DIMZIN
 70
     1
  9
$DIMBLK
  1

  9
$DIMASO
 70
     1
  9
$DIMSHO
 70
     1
  9
$DIMPOST
  1

  9
$DIMAPOST
  1

  9
$DIMALT
 70
     0
  9
$DIMALTD
 70
     3
  9
$DIMALTF
 40
0.0393700787
  9
$DIMLFAC
 40
0.5
  9
$DIMTOFL
 70
     1
  9
$DIMTVP
 40
0.0
  9
$DIMTIX
 70
     0
  9
$DIMSOXD
 70
     0
  9
$DIMSAH
 70
     0
  9
$DIMBLK1
  1

  9
$DIMBLK2
  1

  9
$DIMSTYLE
  2
ISO-25
  9
$DIMCLRD
 70
     0
  9
$DIMCLRE
 70
     0
  9
$DIMCLRT
 70
     0
  9
$DIMTFAC
 40
1.0
  9
$DIMGAP
 40
1.524
  9
$DIMJUST
 70
     0
  9
$DIMSD1
 70
     0
  9
$DIMSD2
 70
     0
  9
$DIMTOLJ
 70
     0
  9
$DIMTZIN
 70
     1
  9
$DIMALTZ
 70
     0
  9
$DIMALTTZ
 70
     0
  9
$DIMUPT
 70
     0
  9
$DIMDEC
 70
     2
  9
$DIMTDEC
 70
     2
  9
$DIMALTU
 70
     2
  9
$DIMALTTD
 70
     3
  9
$DIMTXSTY
  7
Standard
  9
$DIMAUNIT
 70
     0
  9
$DIMADEC
 70
     2
  9
$DIMALTRND
 40
0.0
  9
$DIMAZIN
 70
     0
  9
$DIMDSEP
 70
    44
  9
$DIMATFIT
 70
     3
  9
$DIMFRAC
 70
     0
  9
$DIMLDRBLK
  1

  9
$DIMLUNIT
 70
     2
  9
$DIMLWD
 70
    -2
  9
$DIMLWE
 70
    -2
  9
$DIMTMOVE
 70
     0
  9
$LUNITS
 70
     2
  9
$LUPREC
 70
     2
  9
$SKETCHINC
 40
1.0
  9
$FILLETRAD
 40
0.0
  9
$AUNITS
 70
     0
  9
$AUPREC
 70
     2
  9
$MENU
  1
.
  9
$ELEVATION
 40
0.0
  9
$PELEVATION
 40
0.0
  9
$THICKNESS
 40
0.0
  9
$LIMCHECK
 70
     0
  9
$CHAMFERA
 40
0.0
  9
$CHAMFERB
 40
0.0
  9
$CHAMFERC
 40
0.0
  9
$CHAMFERD
 40
0.0
  9
$SKPOLY
 70
     0
  9
$TDCREATE
 40
2461263.447178681
  9
$TDUCREATE
 40
2461263.072178681
  9
$TDUPDATE
 40
2461263.447179306
  9
$TDUUPDATE
 40
2461263.072179306
  9
$TDINDWG
 40
0.0000000116
  9
$TDUSRTIMER
 40
0.0000000116
  9
$USRTIMER
 70
     1
  9
$ANGBASE
 50
0.0
  9
$ANGDIR
 70
     0
  9
$PDMODE
 70
     0
  9
$PDSIZE
 40
-1.0
  9
$PLINEWID
 40
0.0
  9
$SPLFRAME
 70
     0
  9
$SPLINETYPE
 70
     6
  9
$SPLINESEGS
 70
     8
  9
$HANDSEED
  5
16E
  9
$SURFTAB1
 70
     6
  9
$SURFTAB2
 70
     6
  9
$SURFTYPE
 70
     6
  9
$SURFU
 70
     6
  9
$SURFV
 70
     6
  9
$UCSBASE
  2

  9
$UCSNAME
  2

  9
$UCSORG
 10
0.0
 20
0.0
 30
0.0
  9
$UCSXDIR
 10
1.0
 20
0.0
 30
0.0
  9
$UCSYDIR
 10
0.0
 20
1.0
 30
0.0
  9
$UCSORTHOREF
  2

  9
$UCSORTHOVIEW
 70
     0
  9
$UCSORGTOP
 10
0.0
 20
0.0
 30
0.0
  9
$UCSORGBOTTOM
 10
0.0
 20
0.0
 30
0.0
  9
$UCSORGLEFT
 10
0.0
 20
0.0
 30
0.0
  9
$UCSORGRIGHT
 10
0.0
 20
0.0
 30
0.0
  9
$UCSORGFRONT
 10
0.0
 20
0.0
 30
0.0
  9
$UCSORGBACK
 10
0.0
 20
0.0
 30
0.0
  9
$PUCSBASE
  2

  9
$PUCSNAME
  2

  9
$PUCSORG
 10
0.0
 20
0.0
 30
0.0
  9
$PUCSXDIR
 10
1.0
 20
0.0
 30
0.0
  9
$PUCSYDIR
 10
0.0
 20
1.0
 30
0.0
  9
$PUCSORTHOREF
  2

  9
$PUCSORTHOVIEW
 70
     0
  9
$PUCSORGTOP
 10
0.0
 20
0.0
 30
0.0
  9
$PUCSORGBOTTOM
 10
0.0
 20
0.0
 30
0.0
  9
$PUCSORGLEFT
 10
0.0
 20
0.0
 30
0.0
  9
$PUCSORGRIGHT
 10
0.0
 20
0.0
 30
0.0
  9
$PUCSORGFRONT
 10
0.0
 20
0.0
 30
0.0
  9
$PUCSORGBACK
 10
0.0
 20
0.0
 30
0.0
  9
$USERI1
 70
     0
  9
$USERI2
 70
     0
  9
$USERI3
 70
     0
  9
$USERI4
 70
     0
  9
$USERI5
 70
     0
  9
$USERR1
 40
0.0
  9
$USERR2
 40
0.0
  9
$USERR3
 40
0.0
  9
$USERR4
 40
0.0
  9
$USERR5
 40
0.0
  9
$WORLDVIEW
 70
     1
  9
$SHADEDGE
 70
     3
  9
$SHADEDIF
 70
    70
  9
$TILEMODE
 70
     1
  9
$MAXACTVP
 70
    64
  9
$PINSBASE
 10
0.0
 20
0.0
 30
0.0
  9
$PLIMCHECK
 70
     0
  9
$PEXTMIN
 10
1.0000000000E+20
 20
1.0000000000E+20
 30
1.0000000000E+20
  9
$PEXTMAX
 10
-1.0000000000E+20
 20
-1.0000000000E+20
 30
-1.0000000000E+20
  9
$PLIMMIN
 10
0.0
 20
0.0
  9
$PLIMMAX
 10
420.0
 20
297.0
  9
$UNITMODE
 70
     0
  9
$VISRETAIN
 70
     1
  9
$PLINEGEN
 70
     0
  9
$PSLTSCALE
 70
     1
  9
$TREEDEPTH
 70
  3020
  9
$CMLSTYLE
  2
Standard
  9
$CMLJUST
 70
     0
  9
$CMLSCALE
 40
20.0
  9
$PROXYGRAPHICS
 70
     1
  9
$MEASUREMENT
 70
     1
  9
$CELWEIGHT
370
    -1
  9
$ENDCAPS
280
     0
  9
$JOINSTYLE
280
     0
  9
$LWDISPLAY
290
     1
  9
$INSUNITS
 70
     4
  9
$HYPERLINKBASE
  1

  9
$STYLESHEET
  1

  9
$XEDIT
290
     1
  9
$CEPSNTYPE
380
     0
  9
$PSTYLEMODE
290
     1
  9
$FINGERPRINTGUID
  2
{a335a781-030e-4ec3-9299-334e592c9058}
  9
$VERSIONGUID
  2
{FAEB1C32-E019-11D5-929B-00C0DF256EC4}
  9
$EXTNAMES
290
     1
  9
$PSVPSCALE
 40
0.0
  9
$OLESTARTUP
290
     0
  0
ENDSEC
  0
SECTION
  2
CLASSES
  0
CLASS
  1
ACDBDICTIONARYWDFLT
  2
AcDbDictionaryWithDefault
  3
ObjectDBX Classes
 90
        0
280
     0
281
     0
  0
CLASS
  1
VISUALSTYLE
  2
AcDbVisualStyle
  3
ObjectDBX Classes
 90
     4095
280
     0
281
     0
  0
CLASS
  1
MATERIAL
  2
AcDbMaterial
  3
ObjectDBX Classes
 90
     1153
280
     0
281
     0
  0
CLASS
  1
SCALE
  2
AcDbScale
  3
ObjectDBX Classes
 90
     1153
280
     0
281
     0
  0
CLASS
  1
TABLESTYLE
  2
AcDbTableStyle
  3
ObjectDBX Classes
 90
     4095
280
     0
281
     0
  0
CLASS
  1
MLEADERSTYLE
  2
AcDbMLeaderStyle
  3
ACDB_MLEADERSTYLE_CLASS
 90
     4095
280
     0
281
     0
  0
CLASS
  1
SUN
  2
AcDbSun
  3
SCENEOE
 90
     1153
280
     0
281
     0
  0
CLASS
  1
ACDBPLACEHOLDER
  2
AcDbPlaceHolder
  3
ObjectDBX Classes
 90
        0
280
     0
281
     0
  0
CLASS
  1
LAYOUT
  2
AcDbLayout
  3
ObjectDBX Classes
 90
        0
280
     0
281
     0
  0
ENDSEC
  0
SECTION
  2
TABLES
  0
TABLE
  2
VPORT
  5
8
330
0
100
AcDbSymbolTable
 70
     1
  0
VPORT
  5
29
330
8
100
AcDbSymbolTableRecord
100
AcDbViewportTableRecord
  2
*Active
 70
     0
 10
0.0
 20
0.0
 11
1.0
 21
1.0
 12
420.5
 22
297.0
 13
0.0
 23
0.0
 14
10.0
 24
10.0
 15
10.0
 25
10.0
 16
0.0
 26
0.0
 36
1.0
 17
0.0
 27
0.0
 37
0.0
 40
594.0
 41
1.4158249158
 42
50.0
 43
0.0
 44
0.0
 50
0.0
 51
0.0
 71
     0
 72
  2000
 73
     1
 74
     3
 75
     0
 76
     0
 77
     0
 78
     0
281
     0
 65
     1
110
0.0
120
0.0
130
0.0
111
1.0
121
0.0
131
0.0
112
0.0
122
1.0
132
0.0
 79
     0
146
0.0
  0
ENDTAB
  0
TABLE
  2
LTYPE
  5
5
330
0
100
AcDbSymbolTable
 70
     6
  0
LTYPE
  5
14
330
5
100
AcDbSymbolTableRecord
100
AcDbLinetypeTableRecord
  2
ByBlock
 70
     0
  3

 72
    65
 73
     0
 40
0.0
  0
LTYPE
  5
15
330
5
100
AcDbSymbolTableRecord
100
AcDbLinetypeTableRecord
  2
ByLayer
 70
     0
  3

 72
    65
 73
     0
 40
0.0
  0
LTYPE
  5
16
330
5
100
AcDbSymbolTableRecord
100
AcDbLinetypeTableRecord
  2
Continuous
 70
     0
  3
Solid line
 72
    65
 73
     0
 40
0.0
  0
LTYPE
  5
5E
330
5
100
AcDbSymbolTableRecord
100
AcDbLinetypeTableRecord
  2
HIDDEN
 70
     0
  3
Hidden __ __ __ __ __ __ __ __ __ __ __ __ __ __
 72
    65
 73
     2
 40
1.905
 49
1.27
 74
     0
 49
-0.635
 74
     0
  0
LTYPE
  5
5F
330
5
100
AcDbSymbolTableRecord
100
AcDbLinetypeTableRecord
  2
PHANTOM
 70
     0
  3
Phantom ______  __  __  ______  __  __  ______
 72
    65
 73
     6
 40
12.7
 49
6.35
 74
     0
 49
-1.27
 74
     0
 49
1.27
 74
     0
 49
-1.27
 74
     0
 49
1.27
 74
     0
 49
-1.27
 74
     0
  0
LTYPE
  5
60
330
5
100
AcDbSymbolTableRecord
100
AcDbLinetypeTableRecord
  2
CENTER
 70
     0
  3
Center ____ _ ____ _ ____ _ ____ _ ____ _ ____
 72
    65
 73
     4
 40
10.16
 49
6.35
 74
     0
 49
-1.27
 74
     0
 49
1.27
 74
     0
 49
-1.27
 74
     0
  0
LTYPE
  5
61
330
5
100
AcDbSymbolTableRecord
100
AcDbLinetypeTableRecord
  2
CENTERX2
 70
     0
  3
Center (2x) ________  __  ________  __  _____
 72
    65
 73
     4
 40
20.32
 49
12.7
 74
     0
 49
-2.54
 74
     0
 49
2.54
 74
     0
 49
-2.54
 74
     0
  0
LTYPE
  5
62
330
5
100
AcDbSymbolTableRecord
100
AcDbLinetypeTableRecord
  2
DOT2
 70
     0
  3
Dot (.5x) ........................................
 72
    65
 73
     2
 40
0.635
 49
0.0
 74
     0
 49
-0.635
 74
     0
  0
ENDTAB
  0
TABLE
  2
LAYER
  5
2
330
0
100
AcDbSymbolTable
 70
     1
  0
LAYER
  5
10
330
2
100
AcDbSymbolTableRecord
100
AcDbLayerTableRecord
  2
0
 70
     0
 62
     7
  6
Continuous
370
    -3
390
F
  0
ENDTAB
  0
TABLE
  2
STYLE
  5
3
330
0
100
AcDbSymbolTable
 70
     1
  0
STYLE
  5
11
330
3
100
AcDbSymbolTableRecord
100
AcDbTextStyleTableRecord
  2
Standard
 70
     0
 40
0.0
 41
1.0
 50
0.0
 71
     0
 42
3.5
  3
txt
  4
bigfont
  0
ENDTAB
  0
TABLE
  2
VIEW
  5
6
330
0
100
AcDbSymbolTable
 70
     0
  0
ENDTAB
  0
TABLE
  2
UCS
  5
7
330
0
100
AcDbSymbolTable
 70
     0
  0
ENDTAB
  0
TABLE
  2
APPID
  5
9
330
0
100
AcDbSymbolTable
 70
     1
  0
APPID
  5
12
330
9
100
AcDbSymbolTableRecord
100
AcDbRegAppTableRecord
  2
ACAD
 70
     0
  0
ENDTAB
  0
TABLE
  2
DIMSTYLE
  5
A
330
0
100
AcDbSymbolTable
 70
     1
100
AcDbDimStyleTable
  0
DIMSTYLE
105
27
330
A
100
AcDbSymbolTableRecord
100
AcDbDimStyleTableRecord
  2
ISO-25
 70
     0
 41
2.5
 42
0.625
 43
3.75
 44
1.25
 73
     0
 74
     0
 77
     1
 78
     8
140
2.5
141
2.5
143
0.0393700787
147
0.625
171
     3
172
     1
178
     0
271
     2
272
     2
274
     3
278
    44
283
     0
284
     8
340
11
  0
ENDTAB
  0
TABLE
  2
BLOCK_RECORD
  5
1
330
0
100
AcDbSymbolTable
 70
     1
  0
BLOCK_RECORD
  5
1F
330
1
100
AcDbSymbolTableRecord
100
AcDbBlockTableRecord
  2
*Model_Space
340
22
  0
BLOCK_RECORD
  5
1B
330
1
100
AcDbSymbolTableRecord
100
AcDbBlockTableRecord
  2
*Paper_Space
340
1E
  0
BLOCK_RECORD
  5
23
330
1
100
AcDbSymbolTableRecord
100
AcDbBlockTableRecord
  2
*Paper_Space0
340
26
  0
ENDTAB
  0
ENDSEC
  0
SECTION
  2
BLOCKS
  0
BLOCK
  5
20
330
1F
100
AcDbEntity
  8
0
100
AcDbBlockBegin
  2
*Model_Space
 70
     0
 10
0.0
 20
0.0
 30
0.0
  3
*Model_Space
  1

  0
ENDBLK
  5
21
330
1F
100
AcDbEntity
  8
0
100
AcDbBlockEnd
  0
BLOCK
  5
1C
330
1B
100
AcDbEntity
 67
     1
  8
0
100
AcDbBlockBegin
  2
*Paper_Space
 70
     0
 10
0.0
 20
0.0
 30
0.0
  3
*Paper_Space
  1

  0
ENDBLK
  5
1D
330
1B
100
AcDbEntity
 67
     1
  8
0
100
AcDbBlockEnd
  0
BLOCK
  5
24
330
23
100
AcDbEntity
  8
0
100
AcDbBlockBegin
  2
*Paper_Space0
 70
     0
 10
0.0
 20
0.0
 30
0.0
  3
*Paper_Space0
  1

  0
ENDBLK
  5
25
330
23
100
AcDbEntity
  8
0
100
AcDbBlockEnd
  0
ENDSEC
  0
SECTION
  2
ENTITIES
  0
LINE
  5
63
330
1F
100
AcDbEntity
  8
0
  6
Continuous
 62
     7
370
    25
100
AcDbLine
 10
348.8663476322
 20
194.938118381
 30
0.0
 11
347.8663476322
 21
193.938118381
 31
0.0
  0
LINE
  5
64
330
1F
100
AcDbEntity
  8
0
  6
Continuous
 62
     7
370
    25
100
AcDbLine
 10
347.8663476322
 20
193.938118381
 30
0.0
 11
347.8663476322
 21
238.938118381
 31
0.0
  0
LINE
  5
65
330
1F
100
AcDbEntity
  8
0
  6
Continuous
 62
     7
370
    25
100
AcDbLine
 10
348.8663476322
 20
237.938118381
 30
0.0
 11
347.8663476322
 21
238.938118381
 31
0.0
  0
LINE
  5
66
330
1F
100
AcDbEntity
  8
0
  6
Continuous
 62
     7
370
    25
100
AcDbLine
 10
348.8663476322
 20
194.938118381
 30
0.0
 11
348.8663476322
 21
237.938118381
 31
0.0
  0
LINE
  5
67
330
1F
100
AcDbEntity
  8
0
  6
Continuous
 62
     7
370
    25
100
AcDbLine
 10
347.8663476322
 20
193.938118381
 30
0.0
 11
284.3663476322
 21
193.938118381
 31
0.0
  0
LINE
  5
68
330
1F
100
AcDbEntity
  8
0
  6
Continuous
 62
     7
370
    25
100
AcDbLine
 10
284.3663476322
 20
193.938118381
 30
0.0
 11
284.3663476322
 21
238.938118381
 31
0.0
  0
LINE
  5
69
330
1F
100
AcDbEntity
  8
0
  6
Continuous
 62
     7
370
    25
100
AcDbLine
 10
347.8663476322
 20
238.938118381
 30
0.0
 11
284.3663476322
 21
238.938118381
 31
0.0
  0
SPLINE
  5
6A
330
1F
100
AcDbEntity
  8
0
  6
Continuous
 62
     7
370
    25
100
AcDbSpline
210
0.0
220
0.0
230
1.0
 70
     8
 71
     3
 72
    27
 73
    23
 74
     0
 42
0.00000001
 43
0.00000001
 40
0.0
 40
0.0
 40
0.0
 40
0.0
 40
0.0198984354819557
 40
0.0401820194773437
 40
0.0608517213881337
 40
0.081908456746039
 40
0.1033530909695446
 40
0.1251864428084284
 40
0.1776640265494566
 40
0.2501849519892564
 40
0.3226075389798432
 40
0.3752265804707088
 40
0.4997771054762059
 40
0.6243491109594913
 40
0.6770465900803943
 40
0.7494056580102699
 40
0.8219954993357755
 40
0.8743946267954372
 40
0.9071153844445923
 40
0.9389545727706895
 40
0.9699150667277742
 40
1.0
 40
1.0
 40
1.0
 40
1.0
 10
304.366347632186
 20
198.3232016499835
 30
0.0
 10
304.3143381524126
 20
198.3226356794909
 30
0.0
 10
304.2093125120221
 20
198.3214927837402
 30
0.0
 10
304.0508939339251
 20
198.3121816269954
 30
0.0
 10
303.8907827140525
 20
198.2970164122887
 30
0.0
 10
303.7297461909361
 20
198.2752087771367
 30
0.0
 10
303.5686098345854
 20
198.246689349595
 30
0.0
 10
303.3342680703792
 20
198.1949210668598
 30
0.0
 10
302.9917643792559
 20
198.091144989427
 30
0.0
 10
302.5846630767458
 20
197.9051529136844
 30
0.0
 10
302.2607232657154
 20
197.6770440768373
 30
0.0
 10
301.9607485776367
 20
197.36003356048
 30
0.0
 10
301.8003896693844
 20
196.9470544365943
 30
0.0
 10
301.959633063275
 20
196.5649603820885
 30
0.0
 10
302.2589068796023
 20
196.300884308264
 30
0.0
 10
302.5824520735644
 20
196.1215582450375
 30
0.0
 10
302.9890271354101
 20
195.9843324069449
 30
0.0
 10
303.3565964493502
 20
195.9065533089197
 30
0.0
 10
303.6447772875629
 20
195.8643837682595
 30
0.0
 10
303.8874948744183
 20
195.8402536381225
 30
0.0
 10
304.1281061776832
 20
195.8257869786387
 30
0.0
 10
304.2876968047127
 20
195.8240551464434
 30
0.0
 10
304.366347632186
 20
195.8232016499835
 30
0.0
  0
SPLINE
  5
6B
330
1F
100
AcDbEntity
  8
0
  6
Continuous
 62
     7
370
    25
100
AcDbSpline
210
0.0
220
0.0
230
1.0
 70
     8
 71
     3
 72
    27
 73
    23
 74
     0
 42
0.00000001
 43
0.00000001
 40
0.0
 40
0.0
 40
0.0
 40
0.0
 40
0.0199265458642075
 40
0.0402401513984629
 40
0.060941790125551
 40
0.0820323812839855
 40
0.1035127936268153
 40
0.125383848903323
 40
0.1778462589531378
 40
0.2504639307536714
 40
0.3228239951658955
 40
0.3754816563635595
 40
0.4998992234133204
 40
0.6243842085392967
 40
0.6771127149468049
 40
0.7495852945518339
 40
0.8222534650616143
 40
0.874767185695661
 40
0.9073825876889324
 40
0.9391245782653003
 40
0.9699960123486729
 40
1.0
 40
1.0
 40
1.0
 40
1.0
 10
304.366347632186
 20
195.8232016499835
 30
0.0
 10
304.4184307458503
 20
195.8235754587844
 30
0.0
 10
304.5236086524197
 20
195.8243303373692
 30
0.0
 10
304.6822603878203
 20
195.8305743817281
 30
0.0
 10
304.8426137287321
 20
195.8408667065206
 30
0.0
 10
305.0038974987826
 20
195.8558131011958
 30
0.0
 10
305.1652817989567
 20
195.8755187995561
 30
0.0
 10
305.3997179271004
 20
195.9115864533213
 30
0.0
 10
305.7423929364098
 20
195.983972005851
 30
0.0
 10
306.1493121152948
 20
196.1211524002579
 30
0.0
 10
306.4730477091221
 20
196.3003864200854
 30
0.0
 10
306.7724072169483
 20
196.5641524935179
 30
0.0
 10
306.9321854792406
 20
196.9457584682719
 30
0.0
 10
306.772859967494
 20
197.3585801317499
 30
0.0
 10
306.473427657742
 20
197.6758480460753
 30
0.0
 10
306.1493522569817
 20
197.9044448745636
 30
0.0
 10
305.7419168212833
 20
198.0908098807924
 30
0.0
 10
305.3739454348829
 20
198.2023447508933
 30
0.0
 10
305.0858805618919
 20
198.26287441209
 30
0.0
 10
304.8438644796288
 20
198.2979429498733
 30
0.0
 10
304.6039331913507
 20
198.3192980667768
 30
0.0
 10
304.4447868983682
 20
198.3219128755172
 30
0.0
 10
304.366347632186
 20
198.3232016499835
 30
0.0
  0
LINE
  5
6C
330
1F
100
AcDbEntity
  8
0
  6
Continuous
 62
     7
370
    25
100
AcDbLine
 10
355.8663476322
 20
219.438118381
 30
0.0
 11
387.3663476322
 21
219.438118381
 31
0.0
  0
SPLINE
  5
6D
330
1F
100
AcDbEntity
  8
0
  6
Continuous
 62
     7
370
    25
100
AcDbSpline
210
0.0
220
0.0
230
1.0
 70
     8
 71
     3
 72
    21
 73
    17
 74
     0
 42
0.00000001
 43
0.00000001
 40
0.0
 40
0.0
 40
0.0
 40
0.0
 40
0.0313399934193003
 40
0.062624165569441
 40
0.0939292235287482
 40
0.1253317213227984
 40
0.1876157809644316
 40
0.2500903882167149
 40
0.3750207771426178
 40
0.5000914489812796
 40
0.6245407573241483
 40
0.7496555537339771
 40
0.8120438496738798
 40
0.8741280025437641
 40
0.93709861073076
 40
1.0
 40
1.0
 40
1.0
 40
1.0
 10
352.866347632186
 20
216.4381183810207
 30
0.0
 10
352.8670497936732
 20
216.4876264377414
 30
0.0
 10
352.8684528659918
 20
216.5865543698446
 30
0.0
 10
352.8798506824946
 20
216.7345363547154
 30
0.0
 10
352.8980635127285
 20
216.881822552179
 30
0.0
 10
352.9320990607715
 20
217.0760821975362
 30
0.0
 10
352.9922745144942
 20
217.3150640166579
 30
0.0
 10
353.1253153987877
 20
217.684776393409
 30
0.0
 10
353.3582034869586
 20
218.1188618714318
 30
0.0
 10
353.7314174985571
 20
218.572674044501
 30
0.0
 10
354.1852879015502
 20
218.9459590493268
 30
0.0
 10
354.6182772954616
 20
219.1784630208851
 30
0.0
 10
354.9876209572589
 20
219.3117052196901
 30
0.0
 10
355.2742853881244
 20
219.3837072658023
 30
0.0
 10
355.5680348034737
 20
219.4295839018399
 30
0.0
 10
355.7669464841305
 20
219.4352745977604
 30
0.0
 10
355.866347632186
 20
219.4381183810207
 30
0.0
  0
SPLINE
  5
6E
330
1F
100
AcDbEntity
  8
0
  6
Continuous
 62
     7
370
    25
100
AcDbSpline
210
0.0
220
0.0
230
1.0
 70
     8
 71
     3
 72
    24
 73
    20
 74
     0
 42
0.00000001
 43
0.00000001
 40
0.0
 40
0.0
 40
0.0
 40
0.0
 40
0.0358680519647465
 40
0.0714958841654953
 40
0.1070079407968213
 40
0.1425298826013186
 40
0.1781872654176894
 40
0.2141042241966705
 40
0.2504022301823776
 40
0.3747725408214356
 40
0.5002453833811487
 40
0.5625581433586574
 40
0.6252483842866636
 40
0.6879479409315664
 40
0.7501238609389526
 40
0.8130964043974035
 40
0.8753295697128736
 40
0.9374279386313065
 40
1.0
 40
1.0
 40
1.0
 40
1.0
 10
355.866347632186
 20
213.4381183810207
 30
0.0
 10
355.8096629256895
 20
213.4390218837019
 30
0.0
 10
355.6966731482235
 20
213.4408228380192
 30
0.0
 10
355.5281388419402
 20
213.4554298628248
 30
0.0
 10
355.3613247027876
 20
213.4787960119365
 30
0.0
 10
355.196235744846
 20
213.5117827975807
 30
0.0
 10
355.0328817660609
 20
213.5541943695645
 30
0.0
 10
354.8712541398646
 20
213.6061430830584
 30
0.0
 10
354.5830004208996
 20
213.7169822825198
 30
0.0
 10
354.1849058683287
 20
213.9291263863475
 30
0.0
 10
353.8070679771503
 20
214.2413447986859
 30
0.0
 10
353.5443082309608
 20
214.5311913608167
 30
0.0
 10
353.3695844472823
 20
214.7671314884053
 30
0.0
 10
353.2179205942633
 20
215.018893376727
 30
0.0
 10
353.09146606268
 20
215.2854698619916
 30
0.0
 10
352.9913157946674
 20
215.5630731477781
 30
0.0
 10
352.9194031155581
 20
215.8497438775421
 30
0.0
 10
352.8745308979477
 20
216.1421128213192
 30
0.0
 10
352.8690822882083
 20
216.3392002461287
 30
0.0
 10
352.866347632186
 20
216.4381183810207
 30
0.0
  0
LINE
  5
6F
330
1F
100
AcDbEntity
  8
0
  6
Continuous
 62
     7
370
    25
100
AcDbLine
 10
387.3663476322
 20
213.438118381
 30
0.0
 11
355.8663476322
 21
213.438118381
 31
0.0
  0
LINE
  5
70
330
1F
100
AcDbEntity
  8
0
  6
Continuous
 62
     7
370
    25
100
AcDbLine
 10
387.3663476322
 20
206.938118381
 30
0.0
 11
387.3663476322
 21
213.438118381
 31
0.0
  0
LINE
  5
71
330
1F
100
AcDbEntity
  8
0
  6
Continuous
 62
     7
370
    25
100
AcDbLine
 10
387.3663476322
 20
206.938118381
 30
0.0
 11
348.8663476322
 21
206.938118381
 31
0.0
  0
LINE
  5
72
330
1F
100
AcDbEntity
  8
0
  6
Continuous
 62
     7
370
    25
100
AcDbLine
 10
387.3663476322
 20
225.938118381
 30
0.0
 11
348.8663476322
 21
225.938118381
 31
0.0
  0
LINE
  5
73
330
1F
100
AcDbEntity
  8
0
  6
Continuous
 62
     7
370
    25
100
AcDbLine
 10
387.3663476322
 20
219.438118381
 30
0.0
 11
387.3663476322
 21
225.938118381
 31
0.0
  0
LINE
  5
74
330
1F
100
AcDbEntity
  8
0
  6
Continuous
 62
     7
370
    25
100
AcDbLine
 10
387.8663476322
 20
225.438118381
 30
0.0
 11
387.3663476322
 21
225.938118381
 31
0.0
  0
LINE
  5
75
330
1F
100
AcDbEntity
  8
0
  6
Continuous
 62
     7
370
    25
100
AcDbLine
 10
387.8663476322
 20
219.438118381
 30
0.0
 11
387.8663476322
 21
225.438118381
 31
0.0
  0
SPLINE
  5
76
330
1F
100
AcDbEntity
  8
0
  6
Continuous
 62
     7
370
    25
100
AcDbSpline
210
0.0
220
0.0
230
1.0
 70
    24
 71
     3
 72
     8
 73
     4
 74
     0
 42
0.00000001
 43
0.00000001
 40
0.0
 40
0.0
 40
0.0
 40
0.0
 40
1.0
 40
1.0
 40
1.0
 40
1.0
 10
387.366347632186
 20
219.4381183810207
 30
0.0
 10
387.53328808213
 20
219.4381183810207
 30
0.0
 10
387.6999708223686
 20
219.4381183810207
 30
0.0
 10
387.866347632186
 20
219.4381183810207
 30
0.0
  0
LINE
  5
77
330
1F
100
AcDbEntity
  8
0
  6
Continuous
 62
     7
370
    25
100
AcDbLine
 10
387.8663476322
 20
207.438118381
 30
0.0
 11
387.8663476322
 21
213.438118381
 31
0.0
  0
LINE
  5
78
330
1F
100
AcDbEntity
  8
0
  6
Continuous
 62
     7
370
    25
100
AcDbLine
 10
387.8663476322
 20
207.438118381
 30
0.0
 11
387.3663476322
 21
206.938118381
 31
0.0
  0
SPLINE
  5
79
330
1F
100
AcDbEntity
  8
0
  6
Continuous
 62
     7
370
    25
100
AcDbSpline
210
0.0
220
0.0
230
1.0
 70
    24
 71
     3
 72
     8
 73
     4
 74
     0
 42
0.00000001
 43
0.00000001
 40
0.0
 40
0.0
 40
0.0
 40
0.0
 40
1.0
 40
1.0
 40
1.0
 40
1.0
 10
387.866347632186
 20
213.4381183810207
 30
0.0
 10
387.699974116474
 20
213.4381183810207
 30
0.0
 10
387.5332912042264
 20
213.4381183810207
 30
0.0
 10
387.366347632186
 20
213.4381183810207
 30
0.0
  0
LINE
  5
7A
330
1F
100
AcDbEntity
  8
0
  6
Continuous
 62
     7
370
    25
100
AcDbLine
 10
387.8663476322
 20
219.438118381
 30
0.0
 11
387.8663476322
 21
213.438118381
 31
0.0
  0
SPLINE
  5
7B
330
1F
100
AcDbEntity
  8
0
  6
HIDDEN
 62
     7
370
    18
100
AcDbSpline
210
0.0
220
0.0
230
1.0
 70
     8
 71
     3
 72
    27
 73
    23
 74
     0
 42
0.00000001
 43
0.00000001
 40
0.0
 40
0.0
 40
0.0
 40
0.0
 40
0.0198890731569932
 40
0.0401775678469556
 40
0.0608690296469908
 40
0.081966800379532
 40
0.1034740318751969
 40
0.1253936987421025
 40
0.1775711040769506
 40
0.2504879615112514
 40
0.322631781384096
 40
0.3755038833704467
 40
0.4998918051908062
 40
0.6243934993581436
 40
0.6773482354854674
 40
0.7496577925649828
 40
0.8225785705106142
 40
0.8748034742257584
 40
0.9074702841350653
 40
0.9392181983831296
 40
0.970057642955798
 40
1.0
 40
1.0
 40
1.0
 40
1.0
 10
304.366347632186
 20
205.0238427058926
 30
0.0
 10
304.3142611502751
 20
205.0241285660914
 30
0.0
 10
304.2090421617194
 20
205.0247060272651
 30
0.0
 10
304.0502931486729
 20
205.0295519814096
 30
0.0
 10
303.8897651161136
 20
205.0376320888509
 30
0.0
 10
303.7282337339928
 20
205.0494763303369
 30
0.0
 10
303.5665374275816
 20
205.0652127065638
 30
0.0
 10
303.3325990786707
 20
205.0941397065973
 30
0.0
 10
302.9901395652631
 20
205.1522822066609
 30
0.0
 10
302.5843327008554
 20
205.2672445251194
 30
0.0
 10
302.2605248164843
 20
205.4245267199218
 30
0.0
 10
301.960917662966
 20
205.664494165411
 30
0.0
 10
301.8001417102193
 20
206.0333793479262
 30
0.0
 10
301.9604907827641
 20
206.4610386165612
 30
0.0
 10
302.2603727856345
 20
206.8014287748659
 30
0.0
 10
302.5846437995605
 20
207.0516158393417
 30
0.0
 10
302.9910391688803
 20
207.25917342528
 30
0.0
 10
303.3586886283067
 20
207.3858266998094
 30
0.0
 10
303.6462653692685
 20
207.4546497237012
 30
0.0
 10
303.8886050160363
 20
207.4947988648705
 30
0.0
 10
304.1287045261233
 20
207.5193328129163
 30
0.0
 10
304.2879165413295
 20
207.5223542729579
 30
0.0
 10
304.366347632186
 20
207.5238427058926
 30
0.0
  0
SPLINE
  5
7C
330
1F
100
AcDbEntity
  8
0
  6
HIDDEN
 62
     7
370
    18
100
AcDbSpline
210
0.0
220
0.0
230
1.0
 70
     8
 71
     3
 72
    27
 73
    23
 74
     0
 42
0.00000001
 43
0.00000001
 40
0.0
 40
0.0
 40
0.0
 40
0.0
 40
0.0198603671420117
 40
0.0401181594695939
 40
0.0607769070917284
 40
0.0818399379357617
 40
0.1033103913524126
 40
0.1251912307431824
 40
0.177393337398186
 40
0.250232656069871
 40
0.3224554972762641
 40
0.3753116364423925
 40
0.4998656681345288
 40
0.6243737129816723
 40
0.6772746196763744
 40
0.7494201265870566
 40
0.8222911783577936
 40
0.87440253750201
 40
0.9071832424200812
 40
0.9390358884040613
 40
0.9699709819409229
 40
1.0
 40
1.0
 40
1.0
 40
1.0
 10
304.366347632186
 20
207.5238427058926
 30
0.0
 10
304.418358812067
 20
207.5231888863198
 30
0.0
 10
304.5234219659226
 20
207.5218681636111
 30
0.0
 10
304.6819322589698
 20
207.5111497966353
 30
0.0
 10
304.8422121722211
 20
207.49373926501
 30
0.0
 10
305.0034899871897
 20
207.4687552762078
 30
0.0
 10
305.1649318662862
 20
207.4361371603815
 30
0.0
 10
305.3987963162868
 20
207.3773058257829
 30
0.0
 10
305.7411519185164
 20
207.2593573712635
 30
0.0
 10
306.147221450807
 20
207.0521018091294
 30
0.0
 10
306.4712877546922
 20
206.8023324056034
 30
0.0
 10
306.7715020562654
 20
206.4622061564426
 30
0.0
 10
306.9326485017019
 20
206.0343748343917
 30
0.0
 10
306.7722844091719
 20
205.665075724739
 30
0.0
 10
306.4727391821884
 20
205.4248667362691
 30
0.0
 10
306.1491166098236
 20
205.2675282118234
 30
0.0
 10
305.7436635149193
 20
205.1525504775354
 30
0.0
 10
305.3763472193332
 20
205.0900639184764
 30
0.0
 10
305.088621931282
 20
205.0562726608948
 30
0.0
 10
304.8455263367032
 20
205.0371300387568
 30
0.0
 10
304.6046953275172
 20
205.0258209414289
 30
0.0
 10
304.4450057382933
 20
205.024495551562
 30
0.0
 10
304.366347632186
 20
205.0238427058926
 30
0.0
  0
LINE
  5
7D
330
1F
100
AcDbEntity
  8
0
  6
HIDDEN
 62
     7
370
    18
100
AcDbLine
 10
285.3663476322
 20
204.438118381
 30
0.0
 11
284.3663476322
 21
203.438118381
 31
0.0
  0
LINE
  5
7E
330
1F
100
AcDbEntity
  8
0
  6
HIDDEN
 62
     7
370
    18
100
AcDbLine
 10
285.3663476322
 20
204.438118381
 30
0.0
 11
285.3663476322
 21
228.438118381
 31
0.0
  0
LINE
  5
7F
330
1F
100
AcDbEntity
  8
0
  6
HIDDEN
 62
     7
370
    18
100
AcDbLine
 10
285.3663476322
 20
228.438118381
 30
0.0
 11
284.3663476322
 21
229.438118381
 31
0.0
  0
LINE
  5
80
330
1F
100
AcDbEntity
  8
0
  6
HIDDEN
 62
     7
370
    18
100
AcDbLine
 10
335.3663476322
 20
204.438118381
 30
0.0
 11
285.3663476322
 21
204.438118381
 31
0.0
  0
LINE
  5
81
330
1F
100
AcDbEntity
  8
0
  6
HIDDEN
 62
     7
370
    18
100
AcDbLine
 10
335.3663476322
 20
228.438118381
 30
0.0
 11
285.3663476322
 21
228.438118381
 31
0.0
  0
LINE
  5
82
330
1F
100
AcDbEntity
  8
0
  6
HIDDEN
 62
     7
370
    18
100
AcDbLine
 10
335.3663476322
 20
204.438118381
 30
0.0
 11
335.3663476322
 21
228.438118381
 31
0.0
  0
LINE
  5
83
330
1F
100
AcDbEntity
  8
0
  6
HIDDEN
 62
     7
370
    18
100
AcDbLine
 10
337.3663476322
 20
206.438118381
 30
0.0
 11
337.3663476322
 21
226.438118381
 31
0.0
  0
LINE
  5
84
330
1F
100
AcDbEntity
  8
0
  6
HIDDEN
 62
     7
370
    18
100
AcDbLine
 10
343.3749538225
 20
216.438118381
 30
0.0
 11
337.3663476322
 21
206.438118381
 31
0.0
  0
LINE
  5
85
330
1F
100
AcDbEntity
  8
0
  6
HIDDEN
 62
     7
370
    18
100
AcDbLine
 10
343.3749538225
 20
216.438118381
 30
0.0
 11
337.3663476322
 21
226.438118381
 31
0.0
  0
LINE
  5
86
330
1F
100
AcDbEntity
  8
0
  6
HIDDEN
 62
     7
370
    18
100
AcDbLine
 10
337.3663476322
 20
206.438118381
 30
0.0
 11
335.3663476322
 21
206.438118381
 31
0.0
  0
LINE
  5
87
330
1F
100
AcDbEntity
  8
0
  6
HIDDEN
 62
     7
370
    18
100
AcDbLine
 10
337.3663476322
 20
226.438118381
 30
0.0
 11
335.3663476322
 21
226.438118381
 31
0.0
  0
SPLINE
  5
88
330
1F
100
AcDbEntity
  8
0
  6
HIDDEN
 62
     7
370
    18
100
AcDbSpline
210
0.0
220
0.0
230
1.0
 70
     8
 71
     3
 72
    20
 73
    16
 74
     0
 42
0.00000001
 43
0.00000001
 40
0.0
 40
0.0
 40
0.0
 40
0.0
 40
0.0528513951085048
 40
0.1040445197054425
 40
0.1536110532015075
 40
0.2015858973980008
 40
0.2480075443408446
 40
0.3772340916617243
 40
0.4983397403618428
 40
0.6245749637362384
 40
0.7490921948746928
 40
0.8112171898273165
 40
0.8735657358349364
 40
0.9364060181579309
 40
1.0
 40
1.0
 40
1.0
 40
1.0
 10
337.366347632186
 20
212.4381183810207
 30
0.0
 10
337.4157425949652
 20
212.4759879327817
 30
0.0
 10
337.5129826993689
 20
212.5505388375656
 30
0.0
 10
337.6560713841793
 20
212.6713420819117
 30
0.0
 10
337.7939586868821
 20
212.7962570278024
 30
0.0
 10
337.9265124356195
 20
212.925771984232
 30
0.0
 10
338.1304925175928
 20
213.1403171583211
 30
0.0
 10
338.3955770928239
 20
213.4606377754732
 30
0.0
 10
338.7093338255435
 20
213.9377360492074
 30
0.0
 10
338.9818347157514
 20
214.4806466305693
 30
0.0
 10
339.1613703005585
 20
214.991789496715
 30
0.0
 10
339.2656249032172
 20
215.4208624843491
 30
0.0
 10
339.3226999584684
 20
215.752472206472
 30
0.0
 10
339.3594239072935
 20
216.0926604283516
 30
0.0
 10
339.3640305701473
 20
216.3225090059365
 30
0.0
 10
339.366347632186
 20
216.4381183810207
 30
0.0
  0
SPLINE
  5
89
330
1F
100
AcDbEntity
  8
0
  6
HIDDEN
 62
     7
370
    18
100
AcDbSpline
210
0.0
220
0.0
230
1.0
 70
     8
 71
     3
 72
    21
 73
    17
 74
     0
 42
0.00000001
 43
0.00000001
 40
0.0
 40
0.0
 40
0.0
 40
0.0
 40
0.036332681631463
 40
0.0723863315660809
 40
0.1082083397606744
 40
0.1438470202907817
 40
0.1793514356925195
 40
0.2147712064886958
 40
0.2501563093356265
 40
0.3743403217379342
 40
0.5002168065827743
 40
0.6210670716355301
 40
0.7499907977818763
 40
0.8288113439646725
 40
0.9120922248288025
 40
1.0
 40
1.0
 40
1.0
 40
1.0
 10
339.366347632186
 20
216.4381183810207
 30
0.0
 10
339.3655923632405
 20
216.5041540977434
 30
0.0
 10
339.3640876257464
 20
216.6357183828786
 30
0.0
 10
339.3520082350294
 20
216.831832286588
 30
0.0
 10
339.3330013052491
 20
217.0255768123829
 30
0.0
 10
339.3065967796231
 20
217.2166784677728
 30
0.0
 10
339.2732263325433
 20
217.4048774563141
 30
0.0
 10
339.2330824251265
 20
217.5899421175188
 30
0.0
 10
339.1474845371164
 20
217.9234878285889
 30
0.0
 10
338.9840203506579
 20
218.3902416798045
 30
0.0
 10
338.7127576806029
 20
218.9324875771418
 30
0.0
 10
338.4001221099178
 20
219.4093691581115
 30
0.0
 10
338.1068383763956
 20
219.7650557202385
 30
0.0
 10
337.8403633464571
 20
220.0383775013755
 30
0.0
 10
337.6084738793459
 20
220.2498287691507
 30
0.0
 10
337.4484976625792
 20
220.3742343638219
 30
0.0
 10
337.366347632186
 20
220.4381183810207
 30
0.0
  0
SPLINE
  5
8A
330
1F
100
AcDbEntity
  8
0
  6
HIDDEN
 62
     7
370
    18
100
AcDbSpline
210
0.0
220
0.0
230
1.0
 70
     8
 71
     3
 72
    16
 73
    12
 74
     0
 42
0.00000001
 43
0.00000001
 40
0.0
 40
0.0
 40
0.0
 40
0.0
 40
0.0949264622958472
 40
0.1851041649649391
 40
0.2705369937666873
 40
0.351229538994236
 40
0.4271872695333206
 40
0.4984167642075384
 40
0.6738971358450424
 40
0.8410351049699483
 40
1.0
 40
1.0
 40
1.0
 40
1.0
 10
337.366347632186
 20
220.4381183810207
 30
0.0
 10
337.310552421601
 20
220.4789350960741
 30
0.0
 10
337.2017531930762
 20
220.5585266427707
 30
0.0
 10
337.036583317773
 20
220.666745715206
 30
0.0
 10
336.8763291310384
 20
220.7637730411589
 30
0.0
 10
336.7213603109208
 20
220.8498950895348
 30
0.0
 10
336.5724951147359
 20
220.9260613040806
 30
0.0
 10
336.3578689673511
 20
221.0272788126958
 30
0.0
 10
336.0743851724901
 20
221.142096222577
 30
0.0
 10
335.7198476967969
 20
221.2572834181407
 30
0.0
 10
335.4821955721901
 20
221.3109413241681
 30
0.0
 10
335.366347632186
 20
221.3370978665871
 30
0.0
  0
SPLINE
  5
8B
330
1F
100
AcDbEntity
  8
0
  6
HIDDEN
 62
     7
370
    18
100
AcDbSpline
210
0.0
220
0.0
230
1.0
 70
     8
 71
     3
 72
    15
 73
    11
 74
     0
 42
0.00000001
 43
0.00000001
 40
0.0
 40
0.0
 40
0.0
 40
0.0
 40
0.0938619119213239
 40
0.1905981821452872
 40
0.2902481459593816
 40
0.3928477841625093
 40
0.4984300586615077
 40
0.6464827049572042
 40
0.8136594873948865
 40
1.0
 40
1.0
 40
1.0
 40
1.0
 10
335.366347632186
 20
211.5391388954543
 30
0.0
 10
335.4348939826572
 20
211.5540038414659
 30
0.0
 10
335.5740857967283
 20
211.5841889466858
 30
0.0
 10
335.7826036595013
 20
211.6413417693029
 30
0.0
 10
335.9941777428447
 20
211.7087015380186
 30
0.0
 10
336.2079184677232
 20
211.7877235493358
 30
0.0
 10
336.4500439925968
 20
211.8900228048745
 30
0.0
 10
336.7274898362718
 20
212.0265202578313
 30
0.0
 10
337.0461575703445
 20
212.2094262989726
 30
0.0
 10
337.2558289374309
 20
212.3591816699204
 30
0.0
 10
337.366347632186
 20
212.4381183810207
 30
0.0
  0
SPLINE
  5
8C
330
1F
100
AcDbEntity
  8
0
  6
HIDDEN
 62
     7
370
    18
100
AcDbSpline
210
0.0
220
0.0
230
1.0
 70
     8
 71
     3
 72
    19
 73
    15
 74
     0
 42
0.00000001
 43
0.00000001
 40
0.0
 40
0.0
 40
0.0
 40
0.0
 40
0.0506788078432395
 40
0.1009765386960806
 40
0.1509105629275991
 40
0.2004986331430133
 40
0.2497588760005645
 40
0.3736063611404444
 40
0.5002325719550953
 40
0.6210040873110243
 40
0.7501997584177739
 40
0.8249167572679991
 40
0.9081793555393098
 40
1.0
 40
1.0
 40
1.0
 40
1.0
 10
335.366347632186
 20
221.3370978665871
 30
0.0
 10
335.2959675788409
 20
221.350557764233
 30
0.0
 10
335.1557366917607
 20
221.3773763484367
 30
0.0
 10
334.9438565212286
 20
221.4060694712395
 30
0.0
 10
334.7324129398322
 20
221.4262267143077
 30
0.0
 10
334.5215990453462
 20
221.4371753916424
 30
0.0
 10
334.205608423812
 20
221.4403493328348
 30
0.0
 10
333.780393198285
 20
221.4132033337245
 30
0.0
 10
333.2616818422706
 20
221.3239733859072
 30
0.0
 10
332.7502517871702
 20
221.1795101346582
 30
0.0
 10
332.3266608374732
 20
221.010135822703
 30
0.0
 10
331.9685977036647
 20
220.8295471793874
 30
0.0
 10
331.6677772433781
 20
220.6540388897786
 30
0.0
 10
331.4700458639739
 20
220.5123996531107
 30
0.0
 10
331.366347632186
 20
220.4381183810207
 30
0.0
  0
LINE
  5
8D
330
1F
100
AcDbEntity
  8
0
  6
HIDDEN
 62
     7
370
    18
100
AcDbLine
 10
331.3663476322
 20
220.438118381
 30
0.0
 11
285.3663476322
 21
220.438118381
 31
0.0
  0
LINE
  5
8E
330
1F
100
AcDbEntity
  8
0
  6
HIDDEN
 62
     7
370
    18
100
AcDbLine
 10
331.3663476322
 20
212.438118381
 30
0.0
 11
285.3663476322
 21
212.438118381
 31
0.0
  0
SPLINE
  5
8F
330
1F
100
AcDbEntity
  8
0
  6
HIDDEN
 62
     7
370
    18
100
AcDbSpline
210
0.0
220
0.0
230
1.0
 70
     8
 71
     3
 72
    19
 73
    15
 74
     0
 42
0.00000001
 43
0.00000001
 40
0.0
 40
0.0
 40
0.0
 40
0.0
 40
0.0561049099622132
 40
0.1091299705863196
 40
0.1590775021764509
 40
0.20595030205607
 40
0.2497517767817599
 40
0.3786730117634542
 40
0.499217577301735
 40
0.625816509551625
 40
0.7496482091265739
 40
0.8321201966401806
 40
0.915543179542415
 40
1.0
 40
1.0
 40
1.0
 40
1.0
 10
331.366347632186
 20
212.4381183810207
 30
0.0
 10
331.4292901883031
 20
212.3922186474191
 30
0.0
 10
331.5517201022325
 20
212.3029388217989
 30
0.0
 10
331.7377879256836
 20
212.18312577796
 30
0.0
 10
331.9175894363847
 20
212.077210547811
 30
0.0
 10
332.0905699897597
 20
211.9847166177261
 30
0.0
 10
332.3663688510237
 20
211.8503715288626
 30
0.0
 10
332.7488814412998
 20
211.697200627065
 30
0.0
 10
333.2595357748851
 20
211.5527688104431
 30
0.0
 10
333.7778110166482
 20
211.4633761102942
 30
0.0
 10
334.2500452501533
 20
211.4328290793862
 30
0.0
 10
334.6612029357208
 20
211.4429470055106
 30
0.0
 10
335.0151627866629
 20
211.4749781458861
 30
0.0
 10
335.2488064088905
 20
211.5176643555135
 30
0.0
 10
335.366347632186
 20
211.5391388954543
 30
0.0
  0
LINE
  5
90
330
1F
100
AcDbEntity
  8
0
  6
HIDDEN
 62
     7
370
    18
100
AcDbLine
 10
387.3663476322
 20
219.438118381
 30
0.0
 11
387.3663476322
 21
213.438118381
 31
0.0
  0
LINE
  5
91
330
1F
100
AcDbEntity
  8
0
  6
HIDDEN
 62
     7
370
    18
100
AcDbLine
 10
331.3319279572
 20
220.4078974401
 30
0.0
 11
331.3890497103
 21
220.4517000928
 31
0.0
  0
LINE
  5
92
330
1F
100
AcDbEntity
  8
0
  6
HIDDEN
 62
     7
370
    18
100
AcDbLine
 10
337.3340197272
 20
220.4572394043
 30
0.0
 11
337.4109283533
 21
220.4012709585
 31
0.0
  0
LINE
  5
93
330
1F
100
AcDbEntity
  8
0
  6
HIDDEN
 62
     7
370
    18
100
AcDbLine
 10
337.480315043
 20
212.5292952679
 30
0.0
 11
337.3447335468
 21
212.4253551423
 31
0.0
  0
LINE
  5
94
330
1F
100
AcDbEntity
  8
0
  6
HIDDEN
 62
     7
370
    18
100
AcDbLine
 10
335.5957078623
 20
211.6132008683
 30
0.0
 11
335.3420333751
 21
211.5368240303
 31
0.0
  0
LINE
  5
95
330
1F
100
AcDbEntity
  8
0
  6
HIDDEN
 62
     7
370
    18
100
AcDbLine
 10
331.4004205442
 20
212.4177323619
 30
0.0
 11
331.348205698
 21
212.4557937483
 31
0.0
  0
SPLINE
  5
96
330
1F
100
AcDbEntity
  8
0
  6
HIDDEN
 62
     7
370
    18
100
AcDbSpline
210
0.0
220
0.0
230
1.0
 70
    24
 71
     3
 72
     8
 73
     4
 74
     0
 42
0.00000001
 43
0.00000001
 40
0.0
 40
0.0
 40
0.0
 40
0.0
 40
1.0
 40
1.0
 40
1.0
 40
1.0
 10
285.366347632186
 20
220.4381183810207
 30
0.0
 10
285.0338535848398
 20
220.4381183810207
 30
0.0
 10
284.7004523447983
 20
220.4381183810207
 30
0.0
 10
284.366347632186
 20
220.4381183810207
 30
0.0
  0
SPLINE
  5
97
330
1F
100
AcDbEntity
  8
0
  6
HIDDEN
 62
     7
370
    18
100
AcDbSpline
210
0.0
220
0.0
230
1.0
 70
    24
 71
     3
 72
     8
 73
     4
 74
     0
 42
0.00000001
 43
0.00000001
 40
0.0
 40
0.0
 40
0.0
 40
0.0
 40
1.0
 40
1.0
 40
1.0
 40
1.0
 10
284.366347632186
 20
212.4381183810207
 30
0.0
 10
284.7004523447983
 20
212.4381183810207
 30
0.0
 10
285.0338535848398
 20
212.4381183810207
 30
0.0
 10
285.366347632186
 20
212.4381183810207
 30
0.0
  0
ARC
  5
98
330
1F
100
AcDbEntity
  8
0
  6
HIDDEN
 62
     7
370
    18
100
AcDbCircle
 10
304.3663476322
 20
216.438118381
 30
0.0
 40
2.500000000000057
100
AcDbArc
 50
180.0
 51
0.0
  0
ARC
  5
99
330
1F
100
AcDbEntity
  8
0
  6
HIDDEN
 62
     7
370
    18
100
AcDbCircle
 10
304.3663476322
 20
216.438118381
 30
0.0
 40
2.500000000000057
100
AcDbArc
 50
0.0
 51
180.0
  0
ARC
  5
9A
330
1F
100
AcDbEntity
  8
0
  6
HIDDEN
 62
     7
370
    18
100
AcDbCircle
 10
334.3663476322
 20
216.438118381
 30
0.0
 40
5.0
100
AcDbArc
 50
126.8698976458
 51
180.0
  0
ARC
  5
9B
330
1F
100
AcDbEntity
  8
0
  6
HIDDEN
 62
     7
370
    18
100
AcDbCircle
 10
334.3663476322
 20
216.438118381
 30
0.0
 40
5.0
100
AcDbArc
 50
180.0
 51
233.1301023542
  0
LINE
  5
9C
330
1F
100
AcDbEntity
  8
0
  6
HIDDEN
 62
     7
370
    18
100
AcDbLine
 10
301.8663476322
 20
206.0458220977
 30
0.0
 11
301.8663476322
 21
196.9525554438
 31
0.0
  0
LINE
  5
9D
330
1F
100
AcDbEntity
  8
0
  6
HIDDEN
 62
     7
370
    18
100
AcDbLine
 10
306.8663476322
 20
196.9525510433
 30
0.0
 11
306.8663476322
 21
206.045823729
 31
0.0
  0
LINE
  5
9E
330
1F
100
AcDbEntity
  8
0
  6
Continuous
 62
     7
370
    25
100
AcDbLine
 10
348.8663476322
 20
372.8786227473
 30
0.0
 11
347.8663476322
 21
373.8786227473
 31
0.0
  0
LINE
  5
9F
330
1F
100
AcDbEntity
  8
0
  6
Continuous
 62
     7
370
    25
100
AcDbLine
 10
347.8663476322
 20
328.8786227473
 30
0.0
 11
348.8663476322
 21
329.8786227473
 31
0.0
  0
LINE
  5
A0
330
1F
100
AcDbEntity
  8
0
  6
Continuous
 62
     7
370
    25
100
AcDbLine
 10
301.8663476322
 20
373.8786227473
 30
0.0
 11
284.3663476322
 21
373.8786227473
 31
0.0
  0
LINE
  5
A1
330
1F
100
AcDbEntity
  8
0
  6
Continuous
 62
     7
370
    25
100
AcDbLine
 10
329.3663476322
 20
373.8786227473
 30
0.0
 11
306.8663476322
 21
373.8786227473
 31
0.0
  0
LINE
  5
A2
330
1F
100
AcDbEntity
  8
0
  6
Continuous
 62
     7
370
    25
100
AcDbLine
 10
347.8663476322
 20
373.8786227473
 30
0.0
 11
339.3663476322
 21
373.8786227473
 31
0.0
  0
LINE
  5
A3
330
1F
100
AcDbEntity
  8
0
  6
Continuous
 62
     7
370
    25
100
AcDbLine
 10
284.3663476322
 20
328.8786227473
 30
0.0
 11
347.8663476322
 21
328.8786227473
 31
0.0
  0
LINE
  5
A4
330
1F
100
AcDbEntity
  8
0
  6
Continuous
 62
     7
370
    25
100
AcDbLine
 10
387.8663476322
 20
360.3786227473
 30
0.0
 11
387.3663476322
 21
360.8786227473
 31
0.0
  0
LINE
  5
A5
330
1F
100
AcDbEntity
  8
0
  6
Continuous
 62
     7
370
    25
100
AcDbLine
 10
387.3663476322
 20
360.8786227473
 30
0.0
 11
348.8663476322
 21
360.8786227473
 31
0.0
  0
LINE
  5
A6
330
1F
100
AcDbEntity
  8
0
  6
Continuous
 62
     7
370
    25
100
AcDbLine
 10
348.8663476322
 20
341.8786227473
 30
0.0
 11
352.8663476322
 21
341.8786227473
 31
0.0
  0
LINE
  5
A7
330
1F
100
AcDbEntity
  8
0
  6
Continuous
 62
     7
370
    25
100
AcDbLine
 10
347.8663476322
 20
351.3786227473
 30
0.0
 11
347.8663476322
 21
373.8786227473
 31
0.0
  0
LINE
  5
A8
330
1F
100
AcDbEntity
  8
0
  6
Continuous
 62
     7
370
    25
100
AcDbLine
 10
348.8663476322
 20
351.3786227473
 30
0.0
 11
348.8663476322
 21
372.8786227473
 31
0.0
  0
LINE
  5
A9
330
1F
100
AcDbEntity
  8
0
  6
Continuous
 62
     7
370
    25
100
AcDbLine
 10
347.8663476322
 20
328.8786227473
 30
0.0
 11
347.8663476322
 21
351.3786227473
 31
0.0
  0
LINE
  5
AA
330
1F
100
AcDbEntity
  8
0
  6
Continuous
 62
     7
370
    25
100
AcDbLine
 10
348.8663476322
 20
329.8786227473
 30
0.0
 11
348.8663476322
 21
351.3786227473
 31
0.0
  0
LINE
  5
AB
330
1F
100
AcDbEntity
  8
0
  6
Continuous
 62
     7
370
    25
100
AcDbLine
 10
284.3663476322
 20
351.3786227473
 30
0.0
 11
284.3663476322
 21
373.8786227473
 31
0.0
  0
SPLINE
  5
AC
330
1F
100
AcDbEntity
  8
0
  6
Continuous
 62
     7
370
    25
100
AcDbSpline
210
0.0
220
0.0
230
1.0
 70
     8
 71
     3
 72
    27
 73
    23
 74
     0
 42
0.00000001
 43
0.00000001
 40
0.0
 40
0.0
 40
0.0
 40
0.0
 40
0.0199151416621005
 40
0.0402087608678157
 40
0.060881817493647
 40
0.0819352190026989
 40
0.1033698240357269
 40
0.1251864457089653
 40
0.1778587886157399
 40
0.2501854983571479
 40
0.3228045760552814
 40
0.3752265940276683
 40
0.499776914247593
 40
0.6243489660763321
 40
0.676851719941687
 40
0.7494050469591726
 40
0.8217984299997149
 40
0.874394584370766
 40
0.9070925366886076
 40
0.9389241453337096
 40
0.9698922643960367
 40
1.0
 40
1.0
 40
1.0
 40
1.0
 10
301.866347632186
 20
373.8786227473153
 30
0.0
 10
301.8672879276594
 20
373.8785118340919
 30
0.0
 10
301.8691863884626
 20
373.8782878997935
 30
0.0
 10
301.8847424564453
 20
373.8765163324227
 30
0.0
 10
301.9101874882985
 20
373.873700247918
 30
0.0
 10
301.9469038075856
 20
373.8697333298479
 30
0.0
 10
301.9950548825548
 20
373.8646358073493
 30
0.0
 10
302.0829729388258
 20
373.8555505433745
 30
0.0
 10
302.2590872784807
 20
373.8374162426878
 30
0.0
 10
302.5825267483527
 20
373.809139686498
 30
0.0
 10
302.9894003485807
 20
373.7808112151796
 30
0.0
 10
303.5702616825276
 20
373.7499662915678
 30
0.0
 10
304.3644913173232
 20
373.7318418077954
 30
0.0
 10
305.1591748699072
 20
373.7498450912823
 30
0.0
 10
305.740521701258
 20
373.7806352827268
 30
0.0
 10
306.1479573663577
 20
373.8089606419749
 30
0.0
 10
306.4718255769505
 20
373.8372484945315
 30
0.0
 10
306.6613775600132
 20
373.8567400888871
 30
0.0
 10
306.7644466117832
 20
373.8674303170415
 30
0.0
 10
306.8238563141995
 20
373.8738290659688
 30
0.0
 10
306.8598285328422
 20
373.8778537754418
 30
0.0
 10
306.8641951032185
 20
373.8783688419604
 30
0.0
 10
306.866347632186
 20
373.8786227473153
 30
0.0
  0
SPLINE
  5
AD
330
1F
100
AcDbEntity
  8
0
  6
Continuous
 62
     7
370
    25
100
AcDbSpline
210
0.0
220
0.0
230
1.0
 70
     8
 71
     3
 72
    37
 73
    33
 74
     0
 42
0.00000001
 43
0.00000001
 40
0.0
 40
0.0
 40
0.0
 40
0.0
 40
0.0132198026509974
 40
0.0266042752377748
 40
0.040154598670732
 40
0.053871910984003
 40
0.0677573091105318
 40
0.0818118505843943
 40
0.0960365551724068
 40
0.1104324064371513
 40
0.1250003532336273
 40
0.154824867727035
 40
0.1876616640010465
 40
0.2140474269207555
 40
0.2500101106252682
 40
0.3126176113915514
 40
0.3749084123126657
 40
0.4392259624944118
 40
0.4998775065014381
 40
0.5605121287711907
 40
0.6247969733226384
 40
0.6870973970885333
 40
0.7496543301946363
 40
0.7857783551578107
 40
0.8121922126198574
 40
0.8448910845288263
 40
0.8745965662408609
 40
0.9007858577906136
 40
0.9264148291288702
 40
0.9514892968697191
 40
0.9760154737130375
 40
1.0
 40
1.0
 40
1.0
 40
1.0
 10
329.366347632186
 20
373.8786227473153
 30
0.0
 10
329.3671821968766
 20
373.878426085678
 30
0.0
 10
329.3688617218527
 20
373.8780303127252
 30
0.0
 10
329.3825657332297
 20
373.8748749685961
 30
0.0
 10
329.4048078443232
 20
373.869852590188
 30
0.0
 10
329.43668368955
 20
373.8627725921535
 30
0.0
 10
329.4782427432672
 20
373.8536869501273
 30
0.0
 10
329.5297971922817
 20
373.8425816702612
 30
0.0
 10
329.5915609990168
 20
373.8294598774343
 30
0.0
 10
329.6637496019767
 20
373.8143233796098
 30
0.0
 10
329.7751060828018
 20
373.7912386528113
 30
0.0
 10
329.9473372089352
 20
373.7562037222824
 30
0.0
 10
330.1861687834501
 20
373.710350644451
 30
0.0
 10
330.4794700753802
 20
373.6568120606364
 30
0.0
 10
330.9141423040609
 20
373.5839470610744
 30
0.0
 10
331.5666011416767
 20
373.4890173176584
 30
0.0
 10
332.4431478974373
 20
373.3936022377307
 30
0.0
 10
333.3887610887287
 20
373.3312694089683
 30
0.0
 10
334.3641352796078
 20
373.3086874821113
 30
0.0
 10
335.3394205120042
 20
373.3310699288167
 30
0.0
 10
336.2851052234874
 20
373.3932116905922
 30
0.0
 10
337.1617864831885
 20
373.4884681022521
 30
0.0
 10
337.8152860036374
 20
373.5834320578724
 30
0.0
 10
338.2508742061321
 20
373.6563917491562
 30
0.0
 10
338.5445631445796
 20
373.7099856552452
 30
0.0
 10
338.7830743314843
 20
373.7557537336606
 30
0.0
 10
338.9811223884392
 20
373.7960240659492
 30
0.0
 10
339.1289248657616
 20
373.8268147913303
 30
0.0
 10
339.2373842573027
 20
373.8499280566913
 30
0.0
 10
339.3123512233029
 20
373.8663338014969
 30
0.0
 10
339.3580318423009
 20
373.8766638304663
 30
0.0
 10
339.3635964127927
 20
373.8779746537368
 30
0.0
 10
339.366347632186
 20
373.8786227473153
 30
0.0
  0
LINE
  5
AE
330
1F
100
AcDbEntity
  8
0
  6
Continuous
 62
     7
370
    25
100
AcDbLine
 10
284.3663476322
 20
328.8786227473
 30
0.0
 11
284.3663476322
 21
351.3786227473
 31
0.0
  0
SPLINE
  5
AF
330
1F
100
AcDbEntity
  8
0
  6
Continuous
 62
     7
370
    25
100
AcDbSpline
210
0.0
220
0.0
230
1.0
 70
     8
 71
     3
 72
     8
 73
     4
 74
     0
 42
0.00000001
 43
0.00000001
 40
0.0
 40
0.0
 40
0.0
 40
0.0
 40
1.0
 40
1.0
 40
1.0
 40
1.0
 10
387.366347632186
 20
342.3647445586553
 30
0.0
 10
387.53328808213
 20
342.5406881693047
 30
0.0
 10
387.6999708223686
 20
342.7168721173958
 30
0.0
 10
387.866347632186
 20
342.8933413730767
 30
0.0
  0
LINE
  5
B0
330
1F
100
AcDbEntity
  8
0
  6
Continuous
 62
     7
370
    25
100
AcDbLine
 10
387.3663476322
 20
342.3647445587
 30
0.0
 11
387.3663476322
 21
351.3786227473
 31
0.0
  0
LINE
  5
B1
330
1F
100
AcDbEntity
  8
0
  6
Continuous
 62
     7
370
    25
100
AcDbLine
 10
387.8663476322
 20
342.8933413731
 30
0.0
 11
387.8663476322
 21
351.3786227473
 31
0.0
  0
LINE
  5
B2
330
1F
100
AcDbEntity
  8
0
  6
Continuous
 62
     7
370
    25
100
AcDbLine
 10
387.3663476322
 20
351.3786227473
 30
0.0
 11
387.3663476322
 21
360.8786227473
 31
0.0
  0
LINE
  5
B3
330
1F
100
AcDbEntity
  8
0
  6
Continuous
 62
     7
370
    25
100
AcDbLine
 10
387.8663476322
 20
351.3786227473
 30
0.0
 11
387.8663476322
 21
360.3786227473
 31
0.0
  0
LINE
  5
B4
330
1F
100
AcDbEntity
  8
0
  6
Continuous
 62
     7
370
    25
100
AcDbLine
 10
355.8663476322
 20
342.3647445587
 30
0.0
 11
387.3663476322
 21
342.3647445587
 31
0.0
  0
SPLINE
  5
B5
330
1F
100
AcDbEntity
  8
0
  6
Continuous
 62
     7
370
    25
100
AcDbSpline
210
0.0
220
0.0
230
1.0
 70
     8
 71
     3
 72
    21
 73
    17
 74
     0
 42
0.00000001
 43
0.00000001
 40
0.0
 40
0.0
 40
0.0
 40
0.0
 40
0.0313399934193003
 40
0.062624165569441
 40
0.0939292235287482
 40
0.1253317213227984
 40
0.1876157809644316
 40
0.2500903882167149
 40
0.3750207771426178
 40
0.5000914489812796
 40
0.6245407573241483
 40
0.7496555537339771
 40
0.8120438496738798
 40
0.8741280025437641
 40
0.93709861073076
 40
1.0
 40
1.0
 40
1.0
 40
1.0
 10
352.866347632186
 20
341.8786227473153
 30
0.0
 10
352.8670497936732
 20
341.8788463575997
 30
0.0
 10
352.8684528659918
 20
341.8792931798847
 30
0.0
 10
352.8798506824946
 20
341.8828932481606
 30
0.0
 10
352.8980635127285
 20
341.8886035915209
 30
0.0
 10
352.9320990607715
 20
341.8992043256144
 30
0.0
 10
352.9922745144942
 20
341.9177705064297
 30
0.0
 10
353.1253153987877
 20
341.9576298020265
 30
0.0
 10
353.3582034869586
 20
342.0240594494734
 30
0.0
 10
353.7314174985571
 20
342.1182810783048
 30
0.0
 10
354.1852879015502
 20
342.213533334608
 30
0.0
 10
354.6182772954616
 20
342.2818849645973
 30
0.0
 10
354.9876209572589
 20
342.3235051328693
 30
0.0
 10
355.2742853881244
 20
342.3467476650681
 30
0.0
 10
355.5680348034737
 20
342.3618961370108
 30
0.0
 10
355.7669464841305
 20
342.3637954329243
 30
0.0
 10
355.866347632186
 20
342.3647445586553
 30
0.0
  0
SPLINE
  5
B6
330
1F
100
AcDbEntity
  8
0
  6
HIDDEN
 62
     7
370
    18
100
AcDbSpline
210
0.0
220
0.0
230
1.0
 70
     8
 71
     3
 72
    27
 73
    23
 74
     0
 42
0.00000001
 43
0.00000001
 40
0.0
 40
0.0
 40
0.0
 40
0.0
 40
0.0198984354819557
 40
0.0401820194773437
 40
0.0608517213881337
 40
0.081908456746039
 40
0.1033530909695446
 40
0.1251864428084284
 40
0.1776640265494566
 40
0.2501849519892564
 40
0.3226075389798432
 40
0.3752265804707088
 40
0.4997771054762059
 40
0.6243491109594913
 40
0.6770465900803943
 40
0.7494056580102699
 40
0.8219954993357755
 40
0.8743946267954372
 40
0.9071153844445923
 40
0.9389545727706895
 40
0.9699150667277742
 40
1.0
 40
1.0
 40
1.0
 40
1.0
 10
304.366347632186
 20
338.0332193503554
 30
0.0
 10
304.3143381524126
 20
338.0339765538399
 30
0.0
 10
304.2093125120221
 20
338.0355056170263
 30
0.0
 10
304.0508939339251
 20
338.0480705926119
 30
0.0
 10
303.8907827140525
 20
338.0686751241006
 30
0.0
 10
303.7297461909361
 20
338.0984708294187
 30
0.0
 10
303.5686098345854
 20
338.1376181420937
 30
0.0
 10
303.3342680703792
 20
338.2090637294164
 30
0.0
 10
302.9917643792559
 20
338.3523961811315
 30
0.0
 10
302.5846630767458
 20
338.6179961552774
 30
0.0
 10
302.2607232657154
 20
338.9564311647408
 30
0.0
 10
301.9607485776367
 20
339.4440506240649
 30
0.0
 10
301.8003896693844
 20
340.1233091594818
 30
0.0
 10
301.959633063275
 20
340.8209163035481
 30
0.0
 10
302.2589068796023
 20
341.3396584236343
 30
0.0
 10
302.5824520735644
 20
341.7069146115411
 30
0.0
 10
302.9890271354101
 20
342.0011670926259
 30
0.0
 10
303.3565964493502
 20
342.1750227521853
 30
0.0
 10
303.6447772875629
 20
342.2695092539163
 30
0.0
 10
303.8874948744183
 20
342.324170713665
 30
0.0
 10
304.1281061776832
 20
342.357321224453
 30
0.0
 10
304.2876968047127
 20
342.3613572837631
 30
0.0
 10
304.366347632186
 20
342.3633463692776
 30
0.0
  0
SPLINE
  5
B7
330
1F
100
AcDbEntity
  8
0
  6
HIDDEN
 62
     7
370
    18
100
AcDbSpline
210
0.0
220
0.0
230
1.0
 70
     8
 71
     3
 72
    27
 73
    23
 74
     0
 42
0.00000001
 43
0.00000001
 40
0.0
 40
0.0
 40
0.0
 40
0.0
 40
0.0199265458642075
 40
0.0402401513984629
 40
0.060941790125551
 40
0.0820323812839855
 40
0.1035127936268153
 40
0.125383848903323
 40
0.1778462589531378
 40
0.2504639307536714
 40
0.3228239951658955
 40
0.3754816563635595
 40
0.4998992234133204
 40
0.6243842085392967
 40
0.6771127149468049
 40
0.7495852945518339
 40
0.8222534650616143
 40
0.874767185695661
 40
0.9073825876889324
 40
0.9391245782653003
 40
0.9699960123486729
 40
1.0
 40
1.0
 40
1.0
 40
1.0
 10
304.366347632186
 20
342.3633463692776
 30
0.0
 10
304.4184307458503
 20
342.3624751430698
 30
0.0
 10
304.5236086524197
 20
342.3607157676744
 30
0.0
 10
304.6822603878203
 20
342.3463275834575
 30
0.0
 10
304.8426137287321
 20
342.3228213398447
 30
0.0
 10
305.0038974987826
 20
342.2889332688951
 30
0.0
 10
305.1652817989567
 20
342.2445213558424
 30
0.0
 10
305.3997179271004
 20
342.1637969584526
 30
0.0
 10
305.7423929364098
 20
342.001941893167
 30
0.0
 10
306.1493121152948
 20
341.7077713837037
 30
0.0
 10
306.4730477091221
 20
341.340662430299
 30
0.0
 10
306.7724072169483
 20
340.8224561871129
 30
0.0
 10
306.9321854792406
 20
340.12558173599
 30
0.0
 10
306.772859967494
 20
339.4463668577391
 30
0.0
 10
306.473427657742
 20
338.9582279754383
 30
0.0
 10
306.1493522569817
 20
338.6190140356815
 30
0.0
 10
305.7419168212833
 20
338.3528660619664
 30
0.0
 10
305.3739454348829
 20
338.1987909339658
 30
0.0
 10
305.0858805618919
 20
338.115329113952
 30
0.0
 10
304.8438644796288
 20
338.067383007879
 30
0.0
 10
304.6039331913507
 20
338.0384424052937
 30
0.0
 10
304.4447868983682
 20
338.034943750601
 30
0.0
 10
304.366347632186
 20
338.0332193503554
 30
0.0
  0
LINE
  5
B8
330
1F
100
AcDbEntity
  8
0
  6
HIDDEN
 62
     7
370
    18
100
AcDbLine
 10
285.3663476322
 20
339.3786227473
 30
0.0
 11
285.3663476322
 21
351.3786227473
 31
0.0
  0
LINE
  5
B9
330
1F
100
AcDbEntity
  8
0
  6
HIDDEN
 62
     7
370
    18
100
AcDbLine
 10
335.3663476322
 20
351.3786227473
 30
0.0
 11
335.3663476322
 21
362.3330738974
 31
0.0
  0
LINE
  5
BA
330
1F
100
AcDbEntity
  8
0
  6
HIDDEN
 62
     7
370
    18
100
AcDbLine
 10
285.3663476322
 20
351.3786227473
 30
0.0
 11
285.3663476322
 21
362.6923312463
 31
0.0
  0
SPLINE
  5
BB
330
1F
100
AcDbEntity
  8
0
  6
HIDDEN
 62
     7
370
    18
100
AcDbSpline
210
0.0
220
0.0
230
1.0
 70
     8
 71
     3
 72
    27
 73
    23
 74
     0
 42
0.00000001
 43
0.00000001
 40
0.0
 40
0.0
 40
0.0
 40
0.0
 40
0.0198603671420117
 40
0.0401181594695939
 40
0.0607769070917284
 40
0.0818399379357617
 40
0.1033103913524126
 40
0.1251912307431824
 40
0.177393337398186
 40
0.250232656069871
 40
0.3224554972762641
 40
0.3753116364423925
 40
0.4998656681345288
 40
0.6243737129816723
 40
0.6772746196763744
 40
0.7494201265870566
 40
0.8222911783577936
 40
0.87440253750201
 40
0.9071832424200812
 40
0.9390358884040613
 40
0.9699709819409229
 40
1.0
 40
1.0
 40
1.0
 40
1.0
 10
304.366347632186
 20
343.3452119407016
 30
0.0
 10
304.418358812067
 20
343.3459186000982
 30
0.0
 10
304.5234219659226
 20
343.3473460598307
 30
0.0
 10
304.6819322589698
 20
343.3591136036148
 30
0.0
 10
304.8422121722211
 20
343.3784670072682
 30
0.0
 10
305.0034899871897
 20
343.4065241949023
 30
0.0
 10
305.1649318662862
 20
343.4434667886241
 30
0.0
 10
305.3987963162868
 20
343.5107615437968
 30
0.0
 10
305.7411519185164
 20
343.6458719651743
 30
0.0
 10
306.147221450807
 20
343.898143017234
 30
0.0
 10
306.4712877546922
 20
344.2238133080648
 30
0.0
 10
306.7715020562654
 20
344.6973701334667
 30
0.0
 10
306.9326485017019
 20
345.3704970399145
 30
0.0
 10
306.7722844091719
 20
346.0777225358518
 30
0.0
 10
306.4727391821884
 20
346.6091219474925
 30
0.0
 10
306.1491166098236
 20
346.9885310730714
 30
0.0
 10
305.7436635149193
 20
347.2943858711832
 30
0.0
 10
305.3763472193332
 20
347.4769415951058
 30
0.0
 10
305.088621931282
 20
347.5762248377288
 30
0.0
 10
304.8455263367032
 20
347.6339268984424
 30
0.0
 10
304.6046953275172
 20
347.6689579125998
 30
0.0
 10
304.4450057382933
 20
347.6732331239739
 30
0.0
 10
304.366347632186
 20
347.6753389596238
 30
0.0
  0
SPLINE
  5
BC
330
1F
100
AcDbEntity
  8
0
  6
HIDDEN
 62
     7
370
    18
100
AcDbSpline
210
0.0
220
0.0
230
1.0
 70
     8
 71
     3
 72
    27
 73
    23
 74
     0
 42
0.00000001
 43
0.00000001
 40
0.0
 40
0.0
 40
0.0
 40
0.0
 40
0.0198890731569932
 40
0.0401775678469556
 40
0.0608690296469908
 40
0.081966800379532
 40
0.1034740318751969
 40
0.1253936987421025
 40
0.1775711040769506
 40
0.2504879615112514
 40
0.322631781384096
 40
0.3755038833704467
 40
0.4998918051908062
 40
0.6243934993581436
 40
0.6773482354854674
 40
0.7496577925649828
 40
0.8225785705106142
 40
0.8748034742257584
 40
0.9074702841350653
 40
0.9392181983831296
 40
0.970057642955798
 40
1.0
 40
1.0
 40
1.0
 40
1.0
 10
304.366347632186
 20
347.6753389596238
 30
0.0
 10
304.3142611502751
 20
347.6744167102047
 30
0.0
 10
304.2090421617194
 20
347.6725536903288
 30
0.0
 10
304.0502931486729
 20
347.6573420401711
 30
0.0
 10
303.8897651161136
 20
347.632511154418
 30
0.0
 10
303.7282337339928
 20
347.5967332876748
 30
0.0
 10
303.5665374275816
 20
347.5498632831545
 30
0.0
 10
303.3325990786707
 20
347.4650939799997
 30
0.0
 10
302.9901395652631
 20
347.2950953941988
 30
0.0
 10
302.5843327008554
 20
346.9892603968851
 30
0.0
 10
302.2605248164843
 20
346.6099153116115
 30
0.0
 10
301.960917662966
 20
346.0789340196851
 30
0.0
 10
301.8001417102193
 20
345.3722633387443
 30
0.0
 10
301.9604907827641
 20
344.6990998934638
 30
0.0
 10
302.2603727856345
 20
344.2250172115839
 30
0.0
 10
302.5846437995605
 20
343.8987374618471
 30
0.0
 10
302.9910391688803
 20
343.6460957209694
 30
0.0
 10
303.3586886283067
 20
343.5009667705525
 30
0.0
 10
303.6462653692685
 20
343.4223753116968
 30
0.0
 10
303.8886050160363
 20
343.3772324685062
 30
0.0
 10
304.1287045261233
 20
343.3500872966951
 30
0.0
 10
304.2879165413295
 20
343.3468209900665
 30
0.0
 10
304.366347632186
 20
343.3452119407016
 30
0.0
  0
LINE
  5
BD
330
1F
100
AcDbEntity
  8
0
  6
HIDDEN
 62
     7
370
    18
100
AcDbLine
 10
335.3663476322
 20
339.3786227473
 30
0.0
 11
335.3663476322
 21
351.3786227473
 31
0.0
  0
SPLINE
  5
BE
330
1F
100
AcDbEntity
  8
0
  6
HIDDEN
 62
     7
370
    18
100
AcDbSpline
210
0.0
220
0.0
230
1.0
 70
     8
 71
     3
 72
    21
 73
    17
 74
     0
 42
0.00000001
 43
0.00000001
 40
0.0
 40
0.0
 40
0.0
 40
0.0
 40
0.036332681631463
 40
0.0723863315660809
 40
0.1082083397606744
 40
0.1438470202907817
 40
0.1793514356925195
 40
0.2147712064886958
 40
0.2501563093356265
 40
0.3743403217379342
 40
0.5002168065827743
 40
0.6210670716355301
 40
0.7499907977818763
 40
0.8288113439646725
 40
0.9120922248288025
 40
1.0
 40
1.0
 40
1.0
 40
1.0
 10
339.366347632186
 20
358.0500637826143
 30
0.0
 10
339.3655923632405
 20
358.0507355017791
 30
0.0
 10
339.3640876257464
 20
358.0520737813665
 30
0.0
 10
339.3520082350294
 20
358.0630103286636
 30
0.0
 10
339.3330013052491
 20
358.0805030393823
 30
0.0
 10
339.3065967796231
 20
358.1051806926337
 30
0.0
 10
339.2732263325433
 20
358.136870783863
 30
0.0
 10
339.2330824251265
 20
358.1756413210383
 30
0.0
 10
339.1474845371164
 20
358.2596384421834
 30
0.0
 10
338.9840203506579
 20
358.4267633244681
 30
0.0
 10
338.7127576806029
 20
358.7288025839437
 30
0.0
 10
338.4001221099178
 20
359.1084110514944
 30
0.0
 10
338.1068383763956
 20
359.4907735670845
 30
0.0
 10
337.8403633464571
 20
359.8572052193957
 30
0.0
 10
337.6084738793459
 20
360.1863503755247
 30
0.0
 10
337.4484976625792
 20
360.422505281696
 30
0.0
 10
337.366347632186
 20
360.543774137227
 30
0.0
  0
LINE
  5
BF
330
1F
100
AcDbEntity
  8
0
  6
HIDDEN
 62
     7
370
    18
100
AcDbLine
 10
337.3663476322
 20
351.3786227473
 30
0.0
 11
337.3663476322
 21
360.5437741372
 31
0.0
  0
LINE
  5
C0
330
1F
100
AcDbEntity
  8
0
  6
HIDDEN
 62
     7
370
    18
100
AcDbLine
 10
337.3663476322
 20
341.3786227473
 30
0.0
 11
337.3663476322
 21
351.3786227473
 31
0.0
  0
LINE
  5
C1
330
1F
100
AcDbEntity
  8
0
  6
HIDDEN
 62
     7
370
    18
100
AcDbLine
 10
331.3663476322
 20
366.6786227473
 30
0.0
 11
331.3663476322
 21
362.6923312463
 31
0.0
  0
LINE
  5
C2
330
1F
100
AcDbEntity
  8
0
  6
HIDDEN
 62
     7
370
    18
100
AcDbLine
 10
339.3663476322
 20
373.8786227473
 30
0.0
 11
339.3663476322
 21
358.0500637826
 31
0.0
  0
LINE
  5
C3
330
1F
100
AcDbEntity
  8
0
  6
HIDDEN
 62
     7
370
    18
100
AcDbLine
 10
329.3663476322
 20
373.8786227473
 30
0.0
 11
329.3663476322
 21
366.6786227473
 31
0.0
  0
SPLINE
  5
C4
330
1F
100
AcDbEntity
  8
0
  6
HIDDEN
 62
     7
370
    18
100
AcDbSpline
210
0.0
220
0.0
230
1.0
 70
     8
 71
     3
 72
    16
 73
    12
 74
     0
 42
0.00000001
 43
0.00000001
 40
0.0
 40
0.0
 40
0.0
 40
0.0
 40
0.0949264622958472
 40
0.1851041649649391
 40
0.2705369937666873
 40
0.351229538994236
 40
0.4271872695333206
 40
0.4984167642075384
 40
0.6738971358450424
 40
0.8410351049699483
 40
1.0
 40
1.0
 40
1.0
 40
1.0
 10
337.366347632186
 20
360.543774137227
 30
0.0
 10
337.310552421601
 20
360.5257901443629
 30
0.0
 10
337.2017531930762
 20
360.4907218198795
 30
0.0
 10
337.036583317773
 20
360.44099698394
 30
0.0
 10
336.8763291310384
 20
360.3951193019786
 30
0.0
 10
336.7213603109208
 20
360.3531828969878
 30
0.0
 10
336.5724951147359
 20
360.315160958429
 30
0.0
 10
336.3578689673511
 20
360.2636815731832
 30
0.0
 10
336.0743851724901
 20
360.2037305321326
 30
0.0
 10
335.7198476967969
 20
360.1411722003964
 30
0.0
 10
335.4821955721901
 20
360.1110864782027
 30
0.0
 10
335.366347632186
 20
360.0964206343967
 30
0.0
  0
SPLINE
  5
C5
330
1F
100
AcDbEntity
  8
0
  6
HIDDEN
 62
     7
370
    18
100
AcDbSpline
210
0.0
220
0.0
230
1.0
 70
     8
 71
     3
 72
    19
 73
    15
 74
     0
 42
0.00000001
 43
0.00000001
 40
0.0
 40
0.0
 40
0.0
 40
0.0
 40
0.0506788078432395
 40
0.1009765386960806
 40
0.1509105629275991
 40
0.2004986331430133
 40
0.2497588760005645
 40
0.3736063611404444
 40
0.5002325719550953
 40
0.6210040873110243
 40
0.7501997584177739
 40
0.8249167572679991
 40
0.9081793555393098
 40
1.0
 40
1.0
 40
1.0
 40
1.0
 10
335.366347632186
 20
362.3330738974187
 30
0.0
 10
335.2959675788409
 20
362.3270421590025
 30
0.0
 10
335.1557366917607
 20
362.315024037553
 30
0.0
 10
334.9438565212286
 20
362.3020363348506
 30
0.0
 10
334.7324129398322
 20
362.2928424806857
 30
0.0
 10
334.5215990453462
 20
362.287791695756
 30
0.0
 10
334.205608423812
 20
362.2862819374087
 30
0.0
 10
333.780393198285
 20
362.2989057674675
 30
0.0
 10
333.2616818422706
 20
362.3391026553103
 30
0.0
 10
332.7502517871702
 20
362.4028720327729
 30
0.0
 10
332.3266608374732
 20
362.4740421851503
 30
0.0
 10
331.9685977036647
 20
362.5467646524392
 30
0.0
 10
331.6677772433781
 20
362.6146907075911
 30
0.0
 10
331.4700458639739
 20
362.6656212407789
 30
0.0
 10
331.366347632186
 20
362.6923312463001
 30
0.0
  0
LINE
  5
C6
330
1F
100
AcDbEntity
  8
0
  6
HIDDEN
 62
     7
370
    18
100
AcDbLine
 10
331.3663476322
 20
362.6923312463
 30
0.0
 11
285.3663476322
 21
362.6923312463
 31
0.0
  0
SPLINE
  5
C7
330
1F
100
AcDbEntity
  8
0
  6
HIDDEN
 62
     7
370
    18
100
AcDbSpline
210
0.0
220
0.0
230
1.0
 70
     8
 71
     3
 72
     8
 73
     4
 74
     0
 42
0.00000001
 43
0.00000001
 40
0.0
 40
0.0
 40
0.0
 40
0.0
 40
1.0
 40
1.0
 40
1.0
 40
1.0
 10
285.366347632186
 20
362.6923312463001
 30
0.0
 10
285.0338535848398
 20
363.044994439674
 30
0.0
 10
284.7004523447983
 20
363.3967996778639
 30
0.0
 10
284.366347632186
 20
363.7479396241683
 30
0.0
  0
LINE
  5
C8
330
1F
100
AcDbEntity
  8
0
  6
HIDDEN
 62
     7
370
    18
100
AcDbLine
 10
331.3663476322
 20
366.6786227473
 30
0.0
 11
284.3663476322
 21
366.6786227473
 31
0.0
  0
LINE
  5
C9
330
1F
100
AcDbEntity
  8
0
  6
HIDDEN
 62
     7
370
    18
100
AcDbLine
 10
355.8663476322
 20
345.3786227473
 30
0.0
 11
352.8663476322
 21
345.3786227473
 31
0.0
  0
LINE
  5
CA
330
1F
100
AcDbEntity
  8
0
  6
HIDDEN
 62
     7
370
    18
100
AcDbLine
 10
352.8663476322
 20
341.8786227473
 30
0.0
 11
352.8663476322
 21
345.3786227473
 31
0.0
  0
LINE
  5
CB
330
1F
100
AcDbEntity
  8
0
  6
HIDDEN
 62
     7
370
    18
100
AcDbLine
 10
387.8663476322
 20
345.3786227473
 30
0.0
 11
355.8663476322
 21
345.3786227473
 31
0.0
  0
LINE
  5
CC
330
1F
100
AcDbEntity
  8
0
  6
HIDDEN
 62
     7
370
    18
100
AcDbLine
 10
306.8663476322
 20
373.8786227473
 30
0.0
 11
306.8663476322
 21
366.6786227473
 31
0.0
  0
LINE
  5
CD
330
1F
100
AcDbEntity
  8
0
  6
HIDDEN
 62
     7
370
    18
100
AcDbLine
 10
301.8663476322
 20
373.8786227473
 30
0.0
 11
301.8663476322
 21
366.6786227473
 31
0.0
  0
LINE
  5
CE
330
1F
100
AcDbEntity
  8
0
  6
HIDDEN
 62
     7
370
    18
100
AcDbLine
 10
284.3663476322
 20
338.3786227473
 30
0.0
 11
285.3663476322
 21
339.3786227473
 31
0.0
  0
LINE
  5
CF
330
1F
100
AcDbEntity
  8
0
  6
HIDDEN
 62
     7
370
    18
100
AcDbLine
 10
285.3663476322
 20
339.3786227473
 30
0.0
 11
335.3663476322
 21
339.3786227473
 31
0.0
  0
LINE
  5
D0
330
1F
100
AcDbEntity
  8
0
  6
HIDDEN
 62
     7
370
    18
100
AcDbLine
 10
343.3749538225
 20
351.3786227473
 30
0.0
 11
339.3663476322
 21
358.0500637826
 31
0.0
  0
LINE
  5
D1
330
1F
100
AcDbEntity
  8
0
  6
HIDDEN
 62
     7
370
    18
100
AcDbLine
 10
337.3663476322
 20
341.3786227473
 30
0.0
 11
343.3749538225
 21
351.3786227473
 31
0.0
  0
LINE
  5
D2
330
1F
100
AcDbEntity
  8
0
  6
HIDDEN
 62
     7
370
    18
100
AcDbLine
 10
335.3663476322
 20
341.3786227473
 30
0.0
 11
337.3663476322
 21
341.3786227473
 31
0.0
  0
LINE
  5
D3
330
1F
100
AcDbEntity
  8
0
  6
HIDDEN
 62
     7
370
    18
100
AcDbLine
 10
306.8663476322
 20
340.1286251996
 30
0.0
 11
306.8663476322
 21
345.3786286325
 31
0.0
  0
LINE
  5
D4
330
1F
100
AcDbEntity
  8
0
  6
HIDDEN
 62
     7
370
    18
100
AcDbLine
 10
301.8663476322
 20
345.3786276907
 30
0.0
 11
301.8663476322
 21
340.1286277402
 31
0.0
  0
ARC
  5
D5
330
1F
100
AcDbEntity
  8
0
  6
Continuous
 62
     7
370
    25
100
AcDbCircle
 10
504.1286227473
 20
216.438118381
 30
0.0
 40
9.500000000000068
100
AcDbArc
 50
198.4084801706
 51
270.0
  0
SPLINE
  5
D6
330
1F
100
AcDbEntity
  8
0
  6
Continuous
 62
     7
370
    25
100
AcDbSpline
210
0.0
220
0.0
230
1.0
 70
    24
 71
     3
 72
     8
 73
     4
 74
     0
 42
0.00000001
 43
0.00000001
 40
0.0
 40
0.0
 40
0.0
 40
0.0
 40
1.0
 40
1.0
 40
1.0
 40
1.0
 10
495.6433413730765
 20
213.4381183810207
 30
0.0
 10
495.4668756113218
 20
213.4381183810207
 30
0.0
 10
495.2906914597769
 20
213.4381183810207
 30
0.0
 10
495.114744558655
 20
213.4381183810207
 30
0.0
  0
ARC
  5
D7
330
1F
100
AcDbEntity
  8
0
  6
Continuous
 62
     7
370
    25
100
AcDbCircle
 10
504.1286227473
 20
216.438118381
 30
0.0
 40
9.000000000000064
100
AcDbArc
 50
199.4712206345
 51
270.0
  0
ARC
  5
D8
330
1F
100
AcDbEntity
  8
0
  6
Continuous
 62
     7
370
    25
100
AcDbCircle
 10
504.1286227473
 20
216.438118381
 30
0.0
 40
9.500000000000068
100
AcDbArc
 50
90.0
 51
161.5915198294
  0
ARC
  5
D9
330
1F
100
AcDbEntity
  8
0
  6
Continuous
 62
     7
370
    25
100
AcDbCircle
 10
504.1286227473
 20
216.438118381
 30
0.0
 40
9.000000000000064
100
AcDbArc
 50
90.0
 51
160.5287793655
  0
SPLINE
  5
DA
330
1F
100
AcDbEntity
  8
0
  6
Continuous
 62
     7
370
    25
100
AcDbSpline
210
0.0
220
0.0
230
1.0
 70
    24
 71
     3
 72
     8
 73
     4
 74
     0
 42
0.00000001
 43
0.00000001
 40
0.0
 40
0.0
 40
0.0
 40
0.0
 40
1.0
 40
1.0
 40
1.0
 40
1.0
 10
495.114744558655
 20
219.4381183810207
 30
0.0
 10
495.2906881693045
 20
219.4381183810207
 30
0.0
 10
495.4668721173955
 20
219.4381183810207
 30
0.0
 10
495.6433413730765
 20
219.4381183810207
 30
0.0
  0
ARC
  5
DB
330
1F
100
AcDbEntity
  8
0
  6
Continuous
 62
     7
370
    25
100
AcDbCircle
 10
504.1286227473
 20
216.438118381
 30
0.0
 40
9.0
100
AcDbArc
 50
270.0
 51
90.0
  0
LINE
  5
DC
330
1F
100
AcDbEntity
  8
0
  6
Continuous
 62
     7
370
    25
100
AcDbLine
 10
498.1286227473
 20
219.438118381
 30
0.0
 11
498.1286227473
 21
213.438118381
 31
0.0
  0
LINE
  5
DD
330
1F
100
AcDbEntity
  8
0
  6
Continuous
 62
     7
370
    25
100
AcDbLine
 10
498.1286227473
 20
213.438118381
 30
0.0
 11
495.6433413731
 21
213.438118381
 31
0.0
  0
LINE
  5
DE
330
1F
100
AcDbEntity
  8
0
  6
Continuous
 62
     7
370
    25
100
AcDbLine
 10
495.6433413731
 20
219.438118381
 30
0.0
 11
498.1286227473
 21
219.438118381
 31
0.0
  0
ARC
  5
DF
330
1F
100
AcDbEntity
  8
0
  6
Continuous
 62
     7
370
    25
100
AcDbCircle
 10
504.1286227473
 20
216.438118381
 30
0.0
 40
9.5
100
AcDbArc
 50
270.0
 51
90.0
  0
SPLINE
  5
E0
330
1F
100
AcDbEntity
  8
0
  6
Continuous
 62
     7
370
    25
100
AcDbSpline
210
0.0
220
0.0
230
1.0
 70
     8
 71
     3
 72
    24
 73
    20
 74
     0
 42
0.00000001
 43
0.00000001
 40
0.0
 40
0.0
 40
0.0
 40
0.0
 40
0.0358680519647465
 40
0.0714958841654953
 40
0.1070079407968213
 40
0.1425298826013186
 40
0.1781872654176894
 40
0.2141042241966705
 40
0.2504022301823776
 40
0.3747725408214356
 40
0.5002453833811487
 40
0.5625581433586574
 40
0.6252483842866636
 40
0.6879479409315664
 40
0.7501238609389526
 40
0.8130964043974035
 40
0.8753295697128736
 40
0.9374279386313065
 40
1.0
 40
1.0
 40
1.0
 40
1.0
 10
495.114744558655
 20
213.4381183810207
 30
0.0
 10
495.1144435921852
 20
213.4390218837019
 30
0.0
 10
495.1138436749137
 20
213.4408228380192
 30
0.0
 10
495.1089942038377
 20
213.4554298628248
 30
0.0
 10
495.1012922204201
 20
213.4787960119365
 30
0.0
 10
495.0905322905339
 20
213.5117827975807
 30
0.0
 10
495.0768942043709
 20
213.5541943695645
 30
0.0
 10
495.0604863128603
 20
213.6061430830584
 30
0.0
 10
495.0262467686502
 20
213.7169822825198
 30
0.0
 10
494.9638459979022
 20
213.9291263863475
 30
0.0
 10
494.8841368458136
 20
214.2413447986859
 30
0.0
 10
494.8210220145138
 20
214.5311913608167
 30
0.0
 10
494.7756338238913
 20
214.7671314884053
 30
0.0
 10
494.7340126763027
 20
215.018893376727
 30
0.0
 10
494.6974829881258
 20
215.2854698619916
 30
0.0
 10
494.667553128758
 20
215.5630731477781
 30
0.0
 10
494.6454963135517
 20
215.8497438775421
 30
0.0
 10
494.6312991145609
 20
216.1421128213192
 30
0.0
 10
494.6295171266521
 20
216.3392002461287
 30
0.0
 10
494.628622747315
 20
216.4381183810207
 30
0.0
  0
SPLINE
  5
E1
330
1F
100
AcDbEntity
  8
0
  6
Continuous
 62
     7
370
    25
100
AcDbSpline
210
0.0
220
0.0
230
1.0
 70
     8
 71
     3
 72
    21
 73
    17
 74
     0
 42
0.00000001
 43
0.00000001
 40
0.0
 40
0.0
 40
0.0
 40
0.0
 40
0.0313399934193003
 40
0.062624165569441
 40
0.0939292235287482
 40
0.1253317213227984
 40
0.1876157809644316
 40
0.2500903882167149
 40
0.3750207771426178
 40
0.5000914489812796
 40
0.6245407573241483
 40
0.7496555537339771
 40
0.8120438496738798
 40
0.8741280025437641
 40
0.93709861073076
 40
1.0
 40
1.0
 40
1.0
 40
1.0
 10
494.628622747315
 20
216.4381183810207
 30
0.0
 10
494.6288463575994
 20
216.4876264377414
 30
0.0
 10
494.6292931798845
 20
216.5865543698446
 30
0.0
 10
494.6328932481604
 20
216.7345363547154
 30
0.0
 10
494.6386035915206
 20
216.881822552179
 30
0.0
 10
494.6492043256141
 20
217.0760821975362
 30
0.0
 10
494.6677705064294
 20
217.3150640166579
 30
0.0
 10
494.7076298020263
 20
217.684776393409
 30
0.0
 10
494.7740594494731
 20
218.1188618714318
 30
0.0
 10
494.8682810783045
 20
218.572674044501
 30
0.0
 10
494.9635333346078
 20
218.9459590493268
 30
0.0
 10
495.031884964597
 20
219.1784630208851
 30
0.0
 10
495.073505132869
 20
219.3117052196901
 30
0.0
 10
495.0967476650678
 20
219.3837072658023
 30
0.0
 10
495.1118961370105
 20
219.4295839018399
 30
0.0
 10
495.1137954329241
 20
219.4352745977604
 30
0.0
 10
495.114744558655
 20
219.4381183810207
 30
0.0
  0
ARC
  5
E2
330
1F
100
AcDbEntity
  8
0
  6
Continuous
 62
     7
370
    25
100
AcDbCircle
 10
504.1286227473
 20
216.438118381
 30
0.0
 40
21.5
100
AcDbArc
 50
270.0
 51
90.0
  0
ARC
  5
E3
330
1F
100
AcDbEntity
  8
0
  6
Continuous
 62
     7
370
    25
100
AcDbCircle
 10
504.1286227473
 20
216.438118381
 30
0.0
 40
21.5
100
AcDbArc
 50
90.0
 51
270.0
  0
ARC
  5
E4
330
1F
100
AcDbEntity
  8
0
  6
Continuous
 62
     7
370
    25
100
AcDbCircle
 10
504.1286227473
 20
216.438118381
 30
0.0
 40
22.5
100
AcDbArc
 50
90.0
 51
270.0
  0
ARC
  5
E5
330
1F
100
AcDbEntity
  8
0
  6
Continuous
 62
     7
370
    25
100
AcDbCircle
 10
504.1286227473
 20
216.438118381
 30
0.0
 40
22.5
100
AcDbArc
 50
270.0
 51
90.0
  0
LINE
  5
E6
330
1F
100
AcDbEntity
  8
0
  6
HIDDEN
 62
     7
370
    18
100
AcDbLine
 10
515.0830738974
 20
211.5391388955
 30
0.0
 11
512.8464206344
 21
211.5391388955
 31
0.0
  0
SPLINE
  5
E7
330
1F
100
AcDbEntity
  8
0
  6
HIDDEN
 62
     7
370
    18
100
AcDbSpline
210
0.0
220
0.0
230
1.0
 70
     8
 71
     3
 72
    11
 73
     7
 74
     0
 42
0.00000001
 43
0.00000001
 40
0.0
 40
0.0
 40
0.0
 40
0.0
 40
0.327237028926041
 40
0.6541706340409282
 40
0.9823132288507276
 40
1.0
 40
1.0
 40
1.0
 40
1.0
 10
515.4423312462998
 20
212.4381183810207
 30
0.0
 10
515.3702782043931
 20
212.2452099208313
 30
0.0
 10
515.2262389302823
 20
211.8595718708585
 30
0.0
 10
515.0859035909156
 20
211.5448162334786
 30
0.0
 10
515.0222120818854
 20
211.4047177643458
 30
0.0
 10
515.039082740982
 20
211.4419751282626
 30
0.0
 10
515.0399455580704
 20
211.4438805837677
 30
0.0
  0
LINE
  5
E8
330
1F
100
AcDbEntity
  8
0
  6
HIDDEN
 62
     7
370
    18
100
AcDbLine
 10
515.4423312463
 20
212.438118381
 30
0.0
 11
519.4286227473
 21
212.438118381
 31
0.0
  0
LINE
  5
E9
330
1F
100
AcDbEntity
  8
0
  6
HIDDEN
 62
     7
370
    18
100
AcDbLine
 10
519.4286227473
 20
212.438118381
 30
0.0
 11
519.4286227473
 21
216.438118381
 31
0.0
  0
SPLINE
  5
EA
330
1F
100
AcDbEntity
  8
0
  6
HIDDEN
 62
     7
370
    18
100
AcDbSpline
210
0.0
220
0.0
230
1.0
 70
     8
 71
     3
 72
    20
 73
    16
 74
     0
 42
0.00000001
 43
0.00000001
 40
0.0
 40
0.0
 40
0.0
 40
0.0
 40
0.0528513951085048
 40
0.1040445197054425
 40
0.1536110532015075
 40
0.2015858973980008
 40
0.2480075443408446
 40
0.3772340916617243
 40
0.4983397403618428
 40
0.6245749637362384
 40
0.7490921948746928
 40
0.8112171898273165
 40
0.8735657358349364
 40
0.9364060181579309
 40
1.0
 40
1.0
 40
1.0
 40
1.0
 10
513.2937741372268
 20
212.4381183810207
 30
0.0
 10
513.2206153281392
 20
212.4759879327817
 30
0.0
 10
513.076593147871
 20
212.5505388375656
 30
0.0
 10
512.8694611270715
 20
212.6713420819117
 30
0.0
 10
512.6733398737771
 20
212.7962570278024
 30
0.0
 10
512.4885706166738
 20
212.925771984232
 30
0.0
 10
512.2101026464223
 20
213.1403171583211
 30
0.0
 10
511.8641114105689
 20
213.4606377754732
 30
0.0
 10
511.4827662782183
 20
213.9377360492074
 30
0.0
 10
511.179059443071
 20
214.4806466305693
 30
0.0
 10
510.9954407443245
 20
214.991789496715
 30
0.0
 10
510.8939636923867
 20
215.4208624843491
 30
0.0
 10
510.8399206167505
 20
215.752472206472
 30
0.0
 10
510.8062186165438
 20
216.0926604283516
 30
0.0
 10
510.8021235311272
 20
216.3225090059365
 30
0.0
 10
510.800063782614
 20
216.4381183810207
 30
0.0
  0
LINE
  5
EB
330
1F
100
AcDbEntity
  8
0
  6
HIDDEN
 62
     7
370
    18
100
AcDbLine
 10
519.4286227473
 20
216.438118381
 30
0.0
 11
519.4286227473
 21
220.438118381
 31
0.0
  0
LINE
  5
EC
330
1F
100
AcDbEntity
  8
0
  6
HIDDEN
 62
     7
370
    18
100
AcDbLine
 10
519.4286227473
 20
220.438118381
 30
0.0
 11
515.4423312463
 21
220.438118381
 31
0.0
  0
SPLINE
  5
ED
330
1F
100
AcDbEntity
  8
0
  6
HIDDEN
 62
     7
370
    18
100
AcDbSpline
210
0.0
220
0.0
230
1.0
 70
     8
 71
     3
 72
    11
 73
     7
 74
     0
 42
0.00000001
 43
0.00000001
 40
0.0
 40
0.0
 40
0.0
 40
0.0
 40
0.0168613847003961
 40
0.3450628678304053
 40
0.6726542058470983
 40
1.0
 40
1.0
 40
1.0
 40
1.0
 10
515.0398235709919
 20
221.4326252609036
 30
0.0
 10
515.0390007027552
 20
221.434442500016
 30
0.0
 10
515.0221609663618
 20
221.471631719692
 30
0.0
 10
515.0857066209561
 20
221.3318501559783
 30
0.0
 10
515.2260455341894
 20
221.017166182149
 30
0.0
 10
515.3702540307671
 20
220.6310860660262
 30
0.0
 10
515.4423312462998
 20
220.4381183810207
 30
0.0
  0
LINE
  5
EE
330
1F
100
AcDbEntity
  8
0
  6
HIDDEN
 62
     7
370
    18
100
AcDbLine
 10
512.8464206344
 20
221.3370978666
 30
0.0
 11
515.0830738974
 21
221.3370978666
 31
0.0
  0
SPLINE
  5
EF
330
1F
100
AcDbEntity
  8
0
  6
HIDDEN
 62
     7
370
    18
100
AcDbSpline
210
0.0
220
0.0
230
1.0
 70
     8
 71
     3
 72
    21
 73
    17
 74
     0
 42
0.00000001
 43
0.00000001
 40
0.0
 40
0.0
 40
0.0
 40
0.0
 40
0.036332681631463
 40
0.0723863315660809
 40
0.1082083397606744
 40
0.1438470202907817
 40
0.1793514356925195
 40
0.2147712064886958
 40
0.2501563093356265
 40
0.3743403217379342
 40
0.5002168065827743
 40
0.6210670716355301
 40
0.7499907977818763
 40
0.8288113439646725
 40
0.9120922248288025
 40
1.0
 40
1.0
 40
1.0
 40
1.0
 10
510.800063782614
 20
216.4381183810207
 30
0.0
 10
510.8007355017788
 20
216.5041540977434
 30
0.0
 10
510.8020737813662
 20
216.6357183828786
 30
0.0
 10
510.8130103286632
 20
216.831832286588
 30
0.0
 10
510.8305030393821
 20
217.0255768123829
 30
0.0
 10
510.8551806926334
 20
217.2166784677728
 30
0.0
 10
510.8868707838627
 20
217.4048774563141
 30
0.0
 10
510.925641321038
 20
217.5899421175188
 30
0.0
 10
511.0096384421832
 20
217.9234878285889
 30
0.0
 10
511.1767633244679
 20
218.3902416798045
 30
0.0
 10
511.4788025839435
 20
218.9324875771418
 30
0.0
 10
511.8584110514942
 20
219.4093691581115
 30
0.0
 10
512.2407735670843
 20
219.7650557202385
 30
0.0
 10
512.6072052193954
 20
220.0383775013755
 30
0.0
 10
512.9363503755244
 20
220.2498287691507
 30
0.0
 10
513.1725052816957
 20
220.3742343638219
 30
0.0
 10
513.2937741372268
 20
220.4381183810207
 30
0.0
  0
ARC
  5
F0
330
1F
100
AcDbEntity
  8
0
  6
HIDDEN
 62
     7
370
    18
100
AcDbCircle
 10
504.1286227473
 20
216.438118381
 30
0.0
 40
10.00000000000004
100
AcDbArc
 50
23.5781784782
 51
90.0
  0
ARC
  5
F1
330
1F
100
AcDbEntity
  8
0
  6
HIDDEN
 62
     7
370
    18
100
AcDbCircle
 10
504.1286227473
 20
216.438118381
 30
0.0
 40
10.00000000000004
100
AcDbArc
 50
270.0
 51
336.4218215218
  0
ARC
  5
F2
330
1F
100
AcDbEntity
  8
0
  6
HIDDEN
 62
     7
370
    18
100
AcDbCircle
 10
504.1286227473
 20
216.438118381
 30
0.0
 40
10.0
100
AcDbArc
 50
90.0
 51
270.0
  0
ARC
  5
F3
330
1F
100
AcDbEntity
  8
0
  6
HIDDEN
 62
     7
370
    18
100
AcDbCircle
 10
504.1286227473
 20
216.438118381
 30
0.0
 40
12.0
100
AcDbArc
 50
24.0948425521
 51
90.0
  0
ARC
  5
F4
330
1F
100
AcDbEntity
  8
0
  6
HIDDEN
 62
     7
370
    18
100
AcDbCircle
 10
504.1286227473
 20
216.438118381
 30
0.0
 40
12.0
100
AcDbArc
 50
270.0
 51
335.9051574479
  0
ARC
  5
F5
330
1F
100
AcDbEntity
  8
0
  6
HIDDEN
 62
     7
370
    18
100
AcDbCircle
 10
504.1286227473
 20
216.438118381
 30
0.0
 40
12.0
100
AcDbArc
 50
90.0
 51
270.0
  0
LINE
  5
F6
330
1F
100
AcDbEntity
  8
0
  6
HIDDEN
 62
     7
370
    18
100
AcDbLine
 10
495.1133463693
 20
195.82320165
 30
0.0
 11
500.4253389596
 21
205.0238427059
 31
0.0
  0
LINE
  5
F7
330
1F
100
AcDbEntity
  8
0
  6
HIDDEN
 62
     7
370
    18
100
AcDbLine
 10
490.7832193504
 20
198.32320165
 30
0.0
 11
496.0952119407
 21
207.5238427059
 31
0.0
  0
ARC
  5
F8
330
1F
100
AcDbEntity
  8
0
  6
HIDDEN
 62
     7
370
    18
100
AcDbCircle
 10
504.1286227473
 20
216.438118381
 30
0.0
 40
13.0
100
AcDbArc
 50
17.9202131394
 51
90.0
  0
ARC
  5
F9
330
1F
100
AcDbEntity
  8
0
  6
HIDDEN
 62
     7
370
    18
100
AcDbCircle
 10
504.1286227473
 20
216.438118381
 30
0.0
 40
13.0
100
AcDbArc
 50
270.0
 51
342.0797868606
  0
ARC
  5
FA
330
1F
100
AcDbEntity
  8
0
  6
HIDDEN
 62
     7
370
    18
100
AcDbCircle
 10
504.1286227473
 20
216.438118381
 30
0.0
 40
13.0
100
AcDbArc
 50
90.0
 51
270.0
  0
LINE
  5
FB
330
1F
100
AcDbEntity
  8
0
  6
HIDDEN
 62
     7
370
    18
100
AcDbLine
 10
515.0399455581
 20
211.438118381
 30
0.0
 11
526.0660775834
 21
211.438118381
 31
0.0
  0
LINE
  5
FC
330
1F
100
AcDbEntity
  8
0
  6
HIDDEN
 62
     7
370
    18
100
AcDbLine
 10
526.066079628
 20
221.438118381
 30
0.0
 11
515.039823571
 21
221.438118381
 31
0.0
  0
LINE
  5
FD
330
1F
100
AcDbEntity
  8
0
  6
HIDDEN
 62
     7
370
    18
100
AcDbLine
 10
519.4286227473
 20
213.938118381
 30
0.0
 11
526.4893074613
 21
213.938118381
 31
0.0
  0
LINE
  5
FE
330
1F
100
AcDbEntity
  8
0
  6
HIDDEN
 62
     7
370
    18
100
AcDbLine
 10
526.4893125763
 20
218.938118381
 30
0.0
 11
519.4286227473
 21
218.938118381
 31
0.0
  0
LINE
  5
FF
330
1F
100
AcDbEntity
  8
0
  6
Continuous
 62
     7
370
    25
100
AcDbLine
 10
478.7872836805
 20
310.7687785029
 30
0.0
 11
523.6885642858
 21
336.6897360533
 31
0.0
  0
LINE
  5
100
330
1F
100
AcDbEntity
  8
0
  6
Continuous
 62
     7
370
    25
100
AcDbLine
 10
501.1903928015
 20
375.6619348604
 30
0.0
 11
456.2891121962
 21
349.74097731
 31
0.0
  0
LINE
  5
101
330
1F
100
AcDbEntity
  8
0
  6
Continuous
 62
     7
370
    25
100
AcDbLine
 10
528.3493811204
 20
346.9912441988
 30
0.0
 11
528.3493811204
 21
347.8076523106
 31
0.0
  0
LINE
  5
102
330
1F
100
AcDbEntity
  8
0
  6
Continuous
 62
     7
370
    25
100
AcDbLine
 10
527.5406337162
 20
353.9241887958
 30
0.0
 11
545.1198103805
 21
364.0724314727
 31
0.0
  0
LINE
  5
103
330
1F
100
AcDbEntity
  8
0
  6
Continuous
 62
     7
370
    25
100
AcDbLine
 10
535.6205824205
 20
380.5273598579
 30
0.0
 11
518.0414057562
 21
370.3791171811
 31
0.0
  0
LWPOLYLINE
  5
104
330
1F
100
AcDbEntity
  8
0
  6
Continuous
 62
     7
370
    25
100
AcDbPolyline
 90
       52
 70
   128
 43
0.0
 10
467.5381979383
 20
311.882709639
 10
468.5176259574
 20
311.3521438423
 10
469.4933386706
 20
310.8932825906
 10
470.4616348653
 20
310.5078665017
 10
471.4188414624
 20
310.197357591
 10
472.3613274493
 20
309.962933725
 10
473.285517654
 20
309.8054841538
 10
474.1879063064
 20
309.7256061376
 10
475.0650703372
 20
309.723602681
 10
475.9136823629
 20
309.7994813839
 10
476.7305233074
 20
309.9529544122
 10
477.5124946131
 20
310.1834395903
 10
478.2566299951
 20
310.490062609
 10
478.9601066929
 20
310.871660342
 10
479.6202561786
 20
311.3267852584
 10
480.2345742789
 20
311.8537109137
 10
480.8007306749
 20
312.4504384982
 10
481.3165777415
 20
313.1147044199
 10
481.780158694
 20
313.8439888906
 10
482.1897150112
 20
314.6355254845
 10
482.5436931055
 20
315.4863116321
 10
482.840750217
 20
316.3931200103
 10
483.0797595061
 20
317.3525107841
 10
483.2598143288
 20
318.3608446559
 10
483.3802316755
 20
319.4142966697
 10
483.4405547619
 20
320.5088707214
 10
483.4405547619
 20
321.6404147166
 10
483.3802316755
 20
322.8046363214
 10
483.2598143288
 20
323.9971192444
 10
483.0797595061
 20
325.2133399894
 10
482.840750217
 20
326.4486850146
 10
482.5436931055
 20
327.6984682332
 10
482.1897150112
 20
328.9579487893
 10
481.780158694
 20
330.2223490418
 10
481.3165777415
 20
331.4868726874
 10
480.8007306749
 20
332.7467229548
 10
480.2345742789
 20
333.9971208004
 10
479.6202561786
 20
335.2333230369
 10
478.9601066929
 20
336.4506403258
 10
478.2566299951
 20
337.6444549656
 10
477.5124946131
 20
338.8102384085
 10
476.7305233074
 20
339.9435684386
 10
475.9136823629
 20
341.0401459468
 10
475.0650703372
 20
342.0958112392
 10
474.1879063064
 20
343.1065598156
 10
473.285517654
 20
344.0685575605
 10
472.3613274493
 20
344.9781552869
 10
471.4188414624
 20
345.8319025791
 10
470.4616348653
 20
346.6265608812
 10
469.4933386706
 20
347.359115782
 10
468.5176259574
 20
348.02678845
 10
467.5381979383
 20
348.6270461739
  0
LWPOLYLINE
  5
105
330
1F
100
AcDbEntity
  8
0
  6
Continuous
 62
     7
370
    25
100
AcDbPolyline
 90
       40
 70
   128
 43
0.0
 10
523.6885642858
 20
336.6897360533
 10
523.8613872983
 20
336.7926178923
 10
524.5215367839
 20
337.2477428088
 10
525.1358548842
 20
337.7746684641
 10
525.7020112802
 20
338.3713960486
 10
526.2178583468
 20
339.0356619703
 10
526.6814392993
 20
339.764946441
 10
527.0909956165
 20
340.5564830349
 10
527.4449737109
 20
341.4072691825
 10
527.7420308223
 20
342.3140775606
 10
527.9810401114
 20
343.2734683345
 10
528.1610949341
 20
344.2818022062
 10
528.2815122808
 20
345.3352542201
 10
528.3418353672
 20
346.4298282718
 10
528.3418353672
 20
347.561372267
 10
528.2815122808
 20
348.7255938717
 10
528.1610949341
 20
349.9180767947
 10
527.9810401114
 20
351.1342975398
 10
527.7420308223
 20
352.369642565
 10
527.4449737109
 20
353.6194257836
 10
527.0909956165
 20
354.8789063397
 10
526.6814392993
 20
356.1433065921
 10
526.2178583468
 20
357.4078302377
 10
525.7020112802
 20
358.6676805051
 10
525.1358548842
 20
359.9180783508
 10
524.5215367839
 20
361.1542805873
 10
523.8613872983
 20
362.3715978761
 10
523.1579106004
 20
363.5654125159
 10
522.4137752184
 20
364.7311959588
 10
521.6318039127
 20
365.8645259889
 10
520.8149629683
 20
366.9611034972
 10
519.9663509426
 20
368.0167687896
 10
519.0891869117
 20
369.027517366
 10
518.1867982593
 20
369.9895151109
 10
517.2626080547
 20
370.8991128373
 10
516.3201220677
 20
371.7528601295
 10
515.3629154706
 20
372.5475184316
 10
514.3946192759
 20
373.2800733324
 10
513.4189065628
 20
373.9477460004
 10
512.4394785437
 20
374.5480037243
  0
LWPOLYLINE
  5
106
330
1F
100
AcDbEntity
  8
0
  6
Continuous
 62
     7
370
    25
100
AcDbPolyline
 90
       52
 70
   128
 43
0.0
 10
467.5381979383
 20
348.6270461739
 10
466.5587699192
 20
349.1576119706
 10
465.583057206
 20
349.6164732223
 10
464.6147610113
 20
350.0018893112
 10
463.6575544143
 20
350.3123982219
 10
462.7150684273
 20
350.5468220879
 10
461.7908782226
 20
350.7042716591
 10
460.8884895702
 20
350.7841496753
 10
460.0113255394
 20
350.7861531319
 10
459.1627135137
 20
350.710274429
 10
458.3458725692
 20
350.5568014007
 10
457.5639012635
 20
350.3263162226
 10
456.8197658815
 20
350.019693204
 10
456.1162891837
 20
349.638095471
 10
455.4561396981
 20
349.1829705545
 10
454.8418215978
 20
348.6560448992
 10
454.2756652017
 20
348.0593173147
 10
453.7598181352
 20
347.395051393
 10
453.2962371826
 20
346.6657669223
 10
452.8866808655
 20
345.8742303284
 10
452.5327027711
 20
345.0234441808
 10
452.2356456597
 20
344.1166358026
 10
451.9966363705
 20
343.1572450288
 10
451.8165815478
 20
342.148911157
 10
451.6961642012
 20
341.0954591432
 10
451.6358411148
 20
340.0008850915
 10
451.6358411148
 20
338.8693410963
 10
451.6961642012
 20
337.7051194915
 10
451.8165815478
 20
336.5126365685
 10
451.9966363705
 20
335.2964158235
 10
452.2356456597
 20
334.0610707983
 10
452.5327027711
 20
332.8112875797
 10
452.8866808655
 20
331.5518070236
 10
453.2962371826
 20
330.2874067711
 10
453.7598181352
 20
329.0228831255
 10
454.2756652017
 20
327.7630328581
 10
454.8418215978
 20
326.5126350125
 10
455.4561396981
 20
325.276432776
 10
456.1162891837
 20
324.0591154872
 10
456.8197658815
 20
322.8653008473
 10
457.5639012635
 20
321.6995174044
 10
458.3458725692
 20
320.5661873743
 10
459.1627135137
 20
319.4696098661
 10
460.0113255394
 20
318.4139445737
 10
460.8884895702
 20
317.4031959973
 10
461.7908782226
 20
316.4411982524
 10
462.7150684273
 20
315.531600526
 10
463.6575544143
 20
314.6778532338
 10
464.6147610113
 20
313.8831949317
 10
465.583057206
 20
313.1506400309
 10
466.5587699192
 20
312.4829673629
 10
467.5381979383
 20
311.882709639
  0
LINE
  5
107
330
1F
100
AcDbEntity
  8
0
  6
Continuous
 62
     7
370
    25
100
AcDbLine
 10
456.7194641862
 20
339.7665632094
 30
0.0
 11
456.7194641862
 21
333.2342367144
 31
0.0
  0
LINE
  5
108
330
1F
100
AcDbEntity
  8
0
  6
Continuous
 62
     7
370
    25
100
AcDbLine
 10
456.7194641862
 20
333.2342367144
 30
0.0
 11
458.791770096
 21
332.0379199769
 31
0.0
  0
ARC
  5
109
330
1F
100
AcDbEntity
  8
0
  6
Continuous
 62
     7
370
    25
100
AcDbCircle
 10
478.4940452093
 20
336.6530264479
 30
0.0
 40
20.23558381604304
100
AcDbArc
 50
193.1834038986
 51
237.2199884455
  0
LWPOLYLINE
  5
10A
330
1F
100
AcDbEntity
  8
0
  6
Continuous
 62
     7
370
    25
100
AcDbPolyline
 90
       40
 70
   128
 43
0.0
 10
467.5381979383
 20
319.6398473519
 10
468.2778778715
 20
319.2472604889
 10
469.0127606965
 20
318.9260622487
 10
469.7380804161
 20
318.6783357254
 10
470.4491330537
 20
318.5056875203
 10
471.1413071601
 20
318.4092373234
 10
471.8101137206
 20
318.3896106513
 10
472.4512152679
 20
318.4469347904
 10
473.0604540126
 20
318.5808379717
 10
473.6338788075
 20
318.7904517816
 10
474.1677707729
 20
319.0744167943
 10
474.6586674145
 20
319.4308913875
 10
475.1033850793
 20
319.8575636869
 10
475.4990396024
 20
320.3516665587
 10
475.8430650124
 20
320.9099955563
 10
476.1332301727
 20
321.5289297018
 10
476.3676532507
 20
322.2044549699
 10
476.5448139229
 20
322.9321903199
 10
476.6635632344
 20
323.7074161089
 10
476.7231310501
 20
324.5251047001
 10
476.7231310501
 20
325.3799530692
 10
476.6635632344
 20
326.2664171966
 10
476.5448139229
 20
327.1787480222
 10
476.3676532507
 20
328.1110287305
 10
476.1332301727
 20
329.0572131233
 10
475.8430650124
 20
330.0111648318
 10
475.4990396024
 20
330.9666971132
 10
475.1033850793
 20
331.9176129739
 10
474.6586674145
 20
332.8577453595
 10
474.1677707729
 20
333.780997151
 10
473.6338788075
 20
334.6813807061
 10
473.0604540126
 20
335.5530566919
 10
472.4512152679
 20
336.3903719552
 10
471.8101137206
 20
337.1878961853
 10
471.1413071601
 20
337.9404571314
 10
470.4491330537
 20
338.643174147
 10
469.7380804161
 20
339.2914898426
 10
469.0127606965
 20
339.8811996422
 10
468.2778778715
 20
340.4084790514
 10
467.5381979383
 20
340.869908461
  0
LWPOLYLINE
  5
10B
330
1F
100
AcDbEntity
  8
0
  6
Continuous
 62
     7
370
    25
100
AcDbPolyline
 90
       16
 70
   128
 43
0.0
 10
467.5381979383
 20
340.869908461
 10
466.768148332
 20
341.2771377235
 10
466.003512041
 20
341.6068824089
 10
465.2496643261
 20
341.8568244694
 10
464.5119046059
 20
342.0252068554
 10
463.7954192036
 20
342.110845868
 10
463.1052448874
 20
342.1131394798
 10
462.4462334632
 20
342.032071567
 10
461.8230176671
 20
341.8682120231
 10
461.2399785982
 20
341.6227127522
 10
460.7012149202
 20
341.2972995717
 10
460.2105140484
 20
340.8942600799
 10
459.7713255248
 20
340.4164275746
 10
459.3867367688
 20
339.8671611356
 10
459.0594513727
 20
339.2503220106
 10
458.791770096
 20
338.570246472
  0
LINE
  5
10C
330
1F
100
AcDbEntity
  8
0
  6
Continuous
 62
     7
370
    25
100
AcDbLine
 10
458.791770096
 20
338.570246472
 30
0.0
 11
456.7194641862
 21
339.7665632094
 31
0.0
  0
LWPOLYLINE
  5
10D
330
1F
100
AcDbEntity
  8
0
  6
Continuous
 62
     7
370
    25
100
AcDbPolyline
 90
       20
 70
   128
 43
0.0
 10
468.2453047195
 20
320.8645922197
 10
468.9649068509
 20
320.4844739233
 10
469.6793242324
 20
320.177692731
 10
470.3834094705
 20
319.9464590083
 10
471.0720896148
 20
319.7924387997
 10
471.7404027092
 20
319.7167418241
 10
472.3835335425
 20
319.71991348
 10
472.9968483424
 20
319.8019309157
 10
473.5759281615
 20
319.9622031935
 10
474.1166007165
 20
320.199575548
 10
474.6149704494
 20
320.512337706
 10
475.0674465947
 20
320.898236209
 10
475.4707690515
 20
321.3544906495
 10
475.8220318722
 20
321.8778137036
 10
476.1187042002
 20
322.4644348168
 10
476.3586485044
 20
323.1101273706
 10
476.5401359808
 20
323.8102391353
 10
476.6618590079
 20
324.5597257897
 10
476.7229405685
 20
325.353187265
 10
476.7235116609
 20
325.3686838405
  0
LWPOLYLINE
  5
10E
330
1F
100
AcDbEntity
  8
0
  6
Continuous
 62
     7
370
    25
100
AcDbPolyline
 90
       14
 70
   128
 43
0.0
 10
512.4394785437
 20
374.5480037243
 10
511.4600505245
 20
375.078569521
 10
510.4843378114
 20
375.5374307727
 10
509.5160416167
 20
375.9228468616
 10
508.5588350196
 20
376.2333557723
 10
507.6163490327
 20
376.4677796383
 10
506.692158828
 20
376.6252292094
 10
505.7897701756
 20
376.7051072257
 10
504.9126061447
 20
376.7071106822
 10
504.063994119
 20
376.6312319794
 10
503.2471531746
 20
376.477758951
 10
502.4651818689
 20
376.2472737729
 10
501.7210464869
 20
375.9406507543
 10
501.1903928015
 20
375.6619348604
  0
SPLINE
  5
10F
330
1F
100
AcDbEntity
  8
0
  6
Continuous
 62
     7
370
    25
100
AcDbSpline
210
0.0
220
0.0
230
1.0
 70
     8
 71
     3
 72
     8
 73
     4
 74
     0
 42
0.00000001
 43
0.00000001
 40
0.0
 40
0.0
 40
0.0
 40
0.0
 40
1.0
 40
1.0
 40
1.0
 40
1.0
 10
460.2453047194955
 20
338.5475469065942
 30
0.0
 10
459.7608253884032
 20
338.555780033807
 30
0.0
 10
459.2763112411328
 20
338.5632926204962
 30
0.0
 10
458.791770096041
 20
338.5702464719827
 30
0.0
  0
LWPOLYLINE
  5
110
330
1F
100
AcDbEntity
  8
0
  6
Continuous
 62
     7
370
    25
100
AcDbPolyline
 90
       15
 70
   128
 43
0.0
 10
467.900262321
 20
340.6526560352
 10
467.5001915824
 20
340.8538650687
 10
466.760835148
 20
341.1674250068
 10
466.0329476434
 20
341.3998289724
 10
465.3221526869
 20
341.5492814255
 10
464.6339418411
 20
341.6146277046
 10
463.9736321849
 20
341.595362948
 10
463.3463252339
 20
341.4916359943
 10
462.7568675271
 20
341.3042482319
 10
462.2098131819
 20
341.0346474086
 10
461.70938871
 20
340.6849164451
 10
461.2594603631
 20
340.2577573437
 10
460.8635042627
 20
339.7564703119
 10
460.5245795436
 20
339.1849282655
 10
460.2453047195
 20
338.5475469066
  0
LINE
  5
111
330
1F
100
AcDbEntity
  8
0
  6
Continuous
 62
     7
370
    25
100
AcDbLine
 10
465.4181778571
 20
341.5337830051
 30
0.0
 11
460.2453047195
 21
338.5475469066
 31
0.0
  0
SPLINE
  5
112
330
1F
100
AcDbEntity
  8
0
  6
Continuous
 62
     7
370
    25
100
AcDbSpline
210
0.0
220
0.0
230
1.0
 70
     8
 71
     3
 72
     8
 73
     4
 74
     0
 42
0.00000001
 43
0.00000001
 40
0.0
 40
0.0
 40
0.0
 40
0.0
 40
1.0
 40
1.0
 40
1.0
 40
1.0
 10
458.791770096041
 20
332.0379199768967
 30
0.0
 10
459.2763112411328
 20
332.0309661254101
 30
0.0
 10
459.7608253884032
 20
332.023453538721
 30
0.0
 10
460.2453047194955
 20
332.0152204115082
 30
0.0
  0
ARC
  5
113
330
1F
100
AcDbEntity
  8
0
  6
Continuous
 62
     7
370
    25
100
AcDbCircle
 10
478.3906212527
 20
336.5884405793
 30
0.0
 40
18.71274578444723
100
AcDbArc
 50
194.1458261041
 51
237.1691471628
  0
LINE
  5
114
330
1F
100
AcDbEntity
  8
0
  6
Continuous
 62
     7
370
    25
100
AcDbLine
 10
470.9172685171
 20
338.1760139757
 30
0.0
 11
460.2453047195
 21
332.0152204115
 31
0.0
  0
LINE
  5
115
330
1F
100
AcDbEntity
  8
0
  6
Continuous
 62
     7
370
    25
100
AcDbLine
 10
468.6720280984
 20
340.1343049888
 30
0.0
 11
456.7194641862
 21
333.2342367144
 31
0.0
  0
LINE
  5
116
330
1F
100
AcDbEntity
  8
0
  6
Continuous
 62
     7
370
    25
100
AcDbLine
 10
513.1465853248
 20
374.1396669683
 30
0.0
 11
512.4394785437
 21
374.5480037243
 31
0.0
  0
ARC
  5
117
330
1F
100
AcDbEntity
  8
0
  6
Continuous
 62
     7
370
    25
100
AcDbCircle
 10
495.3879116088
 20
346.3320154236
 30
0.0
 40
32.99448403269763
100
AcDbArc
 50
2.5633368485
 51
57.4366632972
  0
LINE
  5
118
330
1F
100
AcDbEntity
  8
0
  6
Continuous
 62
     7
370
    25
100
AcDbLine
 10
525.8108509475
 20
358.9855836028
 30
0.0
 11
546.7439707925
 21
371.0700164649
 31
0.0
  0
LINE
  5
119
330
1F
100
AcDbEntity
  8
0
  6
Continuous
 62
     7
370
    25
100
AcDbLine
 10
546.7439707925
 20
366.1707715936
 30
0.0
 11
527.2697556361
 21
354.9285464812
 31
0.0
  0
ARC
  5
11A
330
1F
100
AcDbEntity
  8
0
  6
Continuous
 62
     7
370
    25
100
AcDbCircle
 10
543.1346403394
 20
367.2867334241
 30
0.0
 40
3.777914388471258
100
AcDbArc
 50
301.6996992834
 51
342.8190163304
  0
ARC
  5
11B
330
1F
100
AcDbEntity
  8
0
  6
Continuous
 62
     7
370
    25
100
AcDbCircle
 10
532.3353333312
 20
367.6048323805
 30
0.0
 40
14.81945796010114
100
AcDbArc
 50
13.5224674077
 51
57.1676083604
  0
ARC
  5
11C
330
1F
100
AcDbEntity
  8
0
  6
Continuous
 62
     7
370
    25
100
AcDbCircle
 10
537.5983186847
 20
376.2823592993
 30
0.0
 40
4.683104789954687
100
AcDbArc
 50
53.7088352483
 51
114.9807063226
  0
LINE
  5
11D
330
1F
100
AcDbEntity
  8
0
  6
Continuous
 62
     7
370
    25
100
AcDbLine
 10
544.9663904782
 20
370.0438411922
 30
0.0
 11
544.9663904782
 21
367.6051509222
 31
0.0
  0
LINE
  5
11E
330
1F
100
AcDbEntity
  8
0
  6
Continuous
 62
     7
370
    25
100
AcDbLine
 10
526.5973585639
 20
357.0009345151
 30
0.0
 11
544.9663904782
 21
367.6051509222
 31
0.0
  0
SPLINE
  5
11F
330
1F
100
AcDbEntity
  8
0
  6
Continuous
 62
     7
370
    25
100
AcDbSpline
210
0.0
220
0.0
230
1.0
 70
     8
 71
     3
 72
     8
 73
     4
 74
     0
 42
0.00000001
 43
0.00000001
 40
0.0
 40
0.0
 40
0.0
 40
0.0
 40
1.0
 40
1.0
 40
1.0
 40
1.0
 10
546.7237497911167
 20
366.5906489851101
 30
0.0
 10
546.730886086731
 20
366.4507006015224
 30
0.0
 10
546.7376044774677
 20
366.310740875444
 30
0.0
 10
546.7439707925143
 20
366.1707715935658
 30
0.0
  0
LINE
  5
120
330
1F
100
AcDbEntity
  8
0
  6
Continuous
 62
     7
370
    25
100
AcDbLine
 10
544.9663904782
 20
367.6051509222
 30
0.0
 11
546.7237497911
 21
366.5906489851
 31
0.0
  0
LINE
  5
121
330
1F
100
AcDbEntity
  8
0
  6
Continuous
 62
     7
370
    25
100
AcDbLine
 10
540.7237497911
 20
379.8528650003
 30
0.0
 11
540.3701964005
 21
380.0570333782
 31
0.0
  0
ARC
  5
122
330
1F
100
AcDbEntity
  8
0
  6
Continuous
 62
     7
370
    25
100
AcDbCircle
 10
533.0773607282
 20
368.0331449685
 30
0.0
 40
14.07739490571833
100
AcDbArc
 50
14.2145264659
 51
57.100446801
  0
SPLINE
  5
123
330
1F
100
AcDbEntity
  8
0
  6
Continuous
 62
     7
370
    25
100
AcDbSpline
210
0.0
220
0.0
230
1.0
 70
     8
 71
     3
 72
     8
 73
     4
 74
     0
 42
0.00000001
 43
0.00000001
 40
0.0
 40
0.0
 40
0.0
 40
0.0
 40
1.0
 40
1.0
 40
1.0
 40
1.0
 10
546.7439707925145
 20
371.0700164648803
 30
0.0
 10
546.7376045965275
 20
371.2099831291219
 30
0.0
 10
546.7308862280256
 20
371.3499427019349
 30
0.0
 10
546.7237497911167
 20
371.4898938564246
 30
0.0
  0
LWPOLYLINE
  5
124
330
1F
100
AcDbEntity
  8
0
  6
HIDDEN
 62
     7
370
    18
100
AcDbPolyline
 90
       14
 70
   128
 43
0.0
 10
512.4394785437
 20
337.8036671894
 10
513.4189065628
 20
337.2731013927
 10
514.3946192759
 20
336.8142401409
 10
515.3629154706
 20
336.4288240521
 10
516.3201220677
 20
336.1183151413
 10
517.2626080547
 20
335.8838912754
 10
518.1867982593
 20
335.7264417042
 10
519.0891869117
 20
335.646563688
 10
519.9663509426
 20
335.6445602314
 10
520.8149629683
 20
335.7204389343
 10
521.6318039127
 20
335.8739119626
 10
522.4137752184
 20
336.1043971407
 10
523.1579106004
 20
336.4110201593
 10
523.6885642858
 20
336.6897360533
  0
SPLINE
  5
125
330
1F
100
AcDbEntity
  8
0
  6
HIDDEN
 62
     7
370
    18
100
AcDbSpline
210
0.0
220
0.0
230
1.0
 70
     8
 71
     3
 72
    27
 73
    23
 74
     0
 42
0.00000001
 43
0.00000001
 40
0.0
 40
0.0
 40
0.0
 40
0.0
 40
0.0198984354819557
 40
0.0401820194773437
 40
0.0608517213881337
 40
0.081908456746039
 40
0.1033530909695446
 40
0.1251864428084284
 40
0.1776640265494566
 40
0.2501849519892564
 40
0.3226075389798432
 40
0.3752265804707088
 40
0.4997771054762059
 40
0.6243491109594913
 40
0.6770465900803943
 40
0.7494056580102699
 40
0.8219954993357755
 40
0.8743946267954372
 40
0.9071153844445923
 40
0.9389545727706895
 40
0.9699150667277742
 40
1.0
 40
1.0
 40
1.0
 40
1.0
 10
491.1169588017002
 20
318.1797424154665
 30
0.0
 10
491.0796471221478
 20
318.1583588904052
 30
0.0
 10
491.0043015686812
 20
318.1151779467933
 30
0.0
 10
490.883397938401
 20
318.0480369751909
 30
0.0
 10
490.7556126051461
 20
317.9787067624368
 30
0.0
 10
490.6206738423512
 20
317.9073269041981
 30
0.0
 10
490.4790519018222
 20
317.8342432052735
 30
0.0
 10
490.262827591955
 20
317.7254774095627
 30
0.0
 10
489.9192895608085
 20
317.559437499294
 30
0.0
 10
489.4436179263722
 20
317.3498059626077
 30
0.0
 10
488.9752481991138
 20
317.169462786562
 30
0.0
 10
488.4183350366624
 20
316.9872081188521
 30
0.0
 10
487.8246358486413
 20
316.8618107421621
 30
0.0
 10
487.4439551901472
 20
316.8995852175831
 30
0.0
 10
487.2887676643037
 20
317.0178737489069
 30
0.0
 10
487.2578593240731
 20
317.1534346255557
 30
0.0
 10
487.3372833826094
 20
317.3274647738265
 30
0.0
 10
487.4742596212304
 20
317.4849668361315
 30
0.0
 10
487.6112222000341
 20
317.6067400453938
 30
0.0
 10
487.744197962755
 20
317.7084281423076
 30
0.0
 10
487.8908948959457
 20
317.8083662072775
 30
0.0
 10
488.0008885856245
 20
317.8737451726299
 30
0.0
 10
488.0550966232212
 20
317.9059657974876
 30
0.0
  0
SPLINE
  5
126
330
1F
100
AcDbEntity
  8
0
  6
HIDDEN
 62
     7
370
    18
100
AcDbSpline
210
0.0
220
0.0
230
1.0
 70
     8
 71
     3
 72
    27
 73
    23
 74
     0
 42
0.00000001
 43
0.00000001
 40
0.0
 40
0.0
 40
0.0
 40
0.0
 40
0.0199265458642075
 40
0.0402401513984629
 40
0.060941790125551
 40
0.0820323812839855
 40
0.1035127936268153
 40
0.125383848903323
 40
0.1778462589531378
 40
0.2504639307536714
 40
0.3228239951658955
 40
0.3754816563635595
 40
0.4998992234133204
 40
0.6243842085392967
 40
0.6771127149468049
 40
0.7495852945518339
 40
0.8222534650616143
 40
0.874767185695661
 40
0.9073825876889324
 40
0.9391245782653003
 40
0.9699960123486729
 40
1.0
 40
1.0
 40
1.0
 40
1.0
 10
488.0550966232212
 20
317.9059657974876
 30
0.0
 10
488.0925409960381
 20
317.9271759277999
 30
0.0
 10
488.168157073277
 20
317.9700081808541
 30
0.0
 10
488.2905147738546
 20
318.0339956646176
 30
0.0
 10
488.4205231328581
 20
318.0982613080171
 30
0.0
 10
488.558530465126
 20
318.1624690903386
 30
0.0
 10
488.7040503630411
 20
318.226308200129
 30
0.0
 10
488.9269025078081
 20
318.3185046633523
 30
0.0
 10
489.2836591448667
 20
318.4514218557238
 30
0.0
 10
489.7794044177178
 20
318.6094597105042
 30
0.0
 10
490.2679052818113
 20
318.7381064212736
 30
0.0
 10
490.846011568418
 20
318.8641480600253
 30
0.0
 10
491.4517565111957
 20
318.9565000697761
 30
0.0
 10
491.8193738077177
 20
318.9512902177941
 30
0.0
 10
491.9528095048215
 20
318.8888626632278
 30
0.0
 10
491.9635140684031
 20
318.8047639041142
 30
0.0
 10
491.8636087459381
 20
318.6819790578902
 30
0.0
 10
491.7123612511531
 20
318.5599503267231
 30
0.0
 10
491.5676850449415
 20
318.4577165624559
 30
0.0
 10
491.4304568487527
 20
318.3679877134294
 30
0.0
 10
491.2812639041322
 20
318.2756704415527
 30
0.0
 10
491.1712044036217
 20
318.21141321229
 30
0.0
 10
491.1169588017002
 20
318.1797424154665
 30
0.0
  0
ARC
  5
127
330
1F
100
AcDbEntity
  8
0
  6
HIDDEN
 62
     7
370
    18
100
AcDbCircle
 10
458.4379856805
 20
325.0247572954
 30
0.0
 40
18.28876009598054
100
AcDbArc
 50
1.077530736
 51
57.5713829076
  0
LINE
  5
128
330
1F
100
AcDbEntity
  8
0
  6
HIDDEN
 62
     7
370
    18
100
AcDbLine
 10
468.2453047195
 20
340.461571705
 30
0.0
 11
467.5381979383
 21
340.869908461
 31
0.0
  0
LWPOLYLINE
  5
129
330
1F
100
AcDbEntity
  8
0
  6
HIDDEN
 62
     7
370
    18
100
AcDbPolyline
 90
       38
 70
   128
 43
0.0
 10
503.6006437788
 20
341.2747950153
 10
504.3202459102
 20
340.8946767188
 10
505.0346632917
 20
340.5878955265
 10
505.7387485298
 20
340.3566618039
 10
506.4274286742
 20
340.2026415952
 10
507.0957417686
 20
340.1269446197
 10
507.7388726019
 20
340.1301162756
 10
508.3521874017
 20
340.2121337112
 10
508.9312672208
 20
340.372405989
 10
509.4719397759
 20
340.6097783436
 10
509.9703095087
 20
340.9225405016
 10
510.4227856541
 20
341.3084390046
 10
510.8261081109
 20
341.764693445
 10
511.1773709316
 20
342.2880164991
 10
511.4740432595
 20
342.8746376124
 10
511.7139875638
 20
343.5203301662
 10
511.8954750402
 20
344.2204419309
 10
512.0171980672
 20
344.9699285852
 10
512.0782796278
 20
345.7633900606
 10
512.0782796278
 20
346.595109449
 10
512.0171980672
 20
347.4590941931
 10
511.8954750402
 20
348.349119263
 10
511.7139875638
 20
349.2587720077
 10
511.4740432595
 20
350.1814983584
 10
511.1773709316
 20
351.1106500505
 10
510.8261081109
 20
352.0395325249
 10
510.4227856541
 20
352.9614531619
 10
509.9703095087
 20
353.8697695023
 10
509.4719397759
 20
354.7579371061
 10
508.9312672208
 20
355.6195567052
 10
508.3521874017
 20
356.4484203108
 10
507.7388726019
 20
357.2385559416
 10
507.0957417686
 20
357.9842706522
 10
506.4274286742
 20
358.6801915511
 10
505.7387485298
 20
359.3213045122
 10
505.0346632917
 20
359.902990302
 10
504.3202459102
 20
360.421057861
 10
503.6006437788
 20
360.8717745006
  0
SPLINE
  5
12A
330
1F
100
AcDbEntity
  8
0
  6
HIDDEN
 62
     7
370
    18
100
AcDbSpline
210
0.0
220
0.0
230
1.0
 70
     8
 71
     3
 72
    27
 73
    23
 74
     0
 42
0.00000001
 43
0.00000001
 40
0.0
 40
0.0
 40
0.0
 40
0.0
 40
0.0198603671420117
 40
0.0401181594695939
 40
0.0607769070917284
 40
0.0818399379357617
 40
0.1033103913524126
 40
0.1251912307431824
 40
0.177393337398186
 40
0.250232656069871
 40
0.3224554972762641
 40
0.3753116364423925
 40
0.4998656681345288
 40
0.6243737129816723
 40
0.6772746196763744
 40
0.7494201265870566
 40
0.8222911783577936
 40
0.87440253750201
 40
0.9071832424200812
 40
0.9390358884040613
 40
0.9699709819409229
 40
1.0
 40
1.0
 40
1.0
 40
1.0
 10
487.3608128194538
 20
327.8608182534782
 30
0.0
 10
487.3970905937938
 20
327.8818040189255
 30
0.0
 10
487.4703720958812
 20
327.9241954953158
 30
0.0
 10
487.574134888975
 20
327.9849516148696
 30
0.0
 10
487.6737849795607
 20
328.0440622537782
 30
0.0
 10
487.7679861885429
 20
328.100949123266
 30
0.0
 10
487.8560204774842
 20
328.1552964469212
 30
0.0
 10
487.9738030382372
 20
328.2301926702306
 30
0.0
 10
488.1203475109859
 20
328.3287865108128
 30
0.0
 10
488.2290994592933
 20
328.4282911825429
 30
0.0
 10
488.2279652692472
 20
328.4895693842407
 30
0.0
 10
488.10539359518
 20
328.5276989329856
 30
0.0
 10
487.7433687393639
 20
328.518910963906
 30
0.0
 10
487.1298902580717
 20
328.4405942119737
 30
0.0
 10
486.54232366931
 20
328.3390975880633
 30
0.0
 10
486.045205188305
 20
328.2333965588588
 30
0.0
 10
485.5422345536417
 20
328.098856117642
 30
0.0
 10
485.1534163198623
 20
327.9724132772504
 30
0.0
 10
484.8797599634456
 20
327.8678985291021
 30
0.0
 10
484.6670639016234
 20
327.7765894044163
 30
0.0
 10
484.4719999942454
 20
327.6833466722253
 30
0.0
 10
484.3560593718666
 20
327.6188236579222
 30
0.0
 10
484.2989506409748
 20
327.5870416354993
 30
0.0
  0
SPLINE
  5
12B
330
1F
100
AcDbEntity
  8
0
  6
HIDDEN
 62
     7
370
    18
100
AcDbSpline
210
0.0
220
0.0
230
1.0
 70
     8
 71
     3
 72
    27
 73
    23
 74
     0
 42
0.00000001
 43
0.00000001
 40
0.0
 40
0.0
 40
0.0
 40
0.0
 40
0.0198890731569932
 40
0.0401775678469556
 40
0.0608690296469908
 40
0.081966800379532
 40
0.1034740318751969
 40
0.1253936987421025
 40
0.1775711040769506
 40
0.2504879615112514
 40
0.322631781384096
 40
0.3755038833704467
 40
0.4998918051908062
 40
0.6243934993581436
 40
0.6773482354854674
 40
0.7496577925649828
 40
0.8225785705106142
 40
0.8748034742257584
 40
0.9074702841350653
 40
0.9392181983831296
 40
0.970057642955798
 40
1.0
 40
1.0
 40
1.0
 40
1.0
 10
484.2989506409748
 20
327.5870416354993
 30
0.0
 10
484.2627720652255
 20
327.5656366728904
 30
0.0
 10
484.189688358896
 20
327.5223968833492
 30
0.0
 10
484.0881921162437
 20
327.4553423543917
 30
0.0
 10
483.9922397435494
 20
327.3862758296274
 30
0.0
 10
483.9033185800678
 20
327.3154047005315
 30
0.0
 10
483.8221241233421
 20
327.2431164799033
 30
0.0
 10
483.7166456795449
 20
327.1366387997728
 30
0.0
 10
483.5946973881445
 20
326.9749270493982
 30
0.0
 10
483.5240066029945
 20
326.7783033799377
 30
0.0
 10
483.5632773343607
 20
326.6197008168418
 30
0.0
 10
483.7268835566203
 20
326.476594457384
 30
0.0
 10
484.1128894207403
 20
326.4237090296497
 30
0.0
 10
484.7022717742985
 20
326.563577369191
 30
0.0
 10
485.2495474512843
 20
326.7704104016968
 30
0.0
 10
485.7095563077764
 20
326.973878376342
 30
0.0
 10
486.1755659174506
 20
327.2061204708182
 30
0.0
 10
486.5381550082968
 20
327.4003718127316
 30
0.0
 10
486.7970750254427
 20
327.5418772603182
 30
0.0
 10
487.0003558435646
 20
327.6551572076781
 30
0.0
 10
487.1893263703709
 20
327.7621190021422
 30
0.0
 10
487.3042158935361
 20
327.828243818321
 30
0.0
 10
487.3608128194538
 20
327.8608182534782
 30
0.0
  0
LWPOLYLINE
  5
12C
330
1F
100
AcDbEntity
  8
0
  6
HIDDEN
 62
     7
370
    18
100
AcDbPolyline
 90
       40
 70
   128
 43
0.0
 10
501.1903928015
 20
375.6619348604
 10
501.0175697891
 20
375.5590530213
 10
500.3574203034
 20
375.1039281048
 10
499.7431022031
 20
374.5770024496
 10
499.1769458071
 20
373.980274865
 10
498.6610987405
 20
373.3160089434
 10
498.197517788
 20
372.5867244727
 10
497.7879614708
 20
371.7951878788
 10
497.4339833764
 20
370.9444017311
 10
497.136926265
 20
370.037593353
 10
496.8979169759
 20
369.0782025792
 10
496.7178621532
 20
368.0698687074
 10
496.5974448065
 20
367.0164166935
 10
496.5371217201
 20
365.9218426419
 10
496.5371217201
 20
364.7902986467
 10
496.5974448065
 20
363.6260770419
 10
496.7178621532
 20
362.4335941189
 10
496.8979169759
 20
361.2173733739
 10
497.136926265
 20
359.9820283487
 10
497.4339833764
 20
358.7322451301
 10
497.7879614708
 20
357.472764574
 10
498.197517788
 20
356.2083643215
 10
498.6610987405
 20
354.9438406759
 10
499.1769458071
 20
353.6839904085
 10
499.7431022031
 20
352.4335925629
 10
500.3574203034
 20
351.1973903264
 10
501.0175697891
 20
349.9800730375
 10
501.7210464869
 20
348.7862583977
 10
502.4651818689
 20
347.6204749548
 10
503.2471531746
 20
346.4871449247
 10
504.063994119
 20
345.3905674164
 10
504.9126061447
 20
344.3349021241
 10
505.7897701756
 20
343.3241535477
 10
506.692158828
 20
342.3621558028
 10
507.6163490327
 20
341.4525580764
 10
508.5588350196
 20
340.5988107842
 10
509.5160416167
 20
339.8041524821
 10
510.4843378114
 20
339.0715975812
 10
511.4600505245
 20
338.4039249133
 10
512.4394785437
 20
337.8036671894
  0
SPLINE
  5
12D
330
1F
100
AcDbEntity
  8
0
  6
HIDDEN
 62
     7
370
    18
100
AcDbSpline
210
0.0
220
0.0
230
1.0
 70
     8
 71
     3
 72
    27
 73
    23
 74
     0
 42
0.00000001
 43
0.00000001
 40
0.0
 40
0.0
 40
0.0
 40
0.0
 40
0.0199151416621005
 40
0.0402087608678157
 40
0.060881817493647
 40
0.0819352190026989
 40
0.1033698240357269
 40
0.1251864457089653
 40
0.1778587886157399
 40
0.2501854983571479
 40
0.3228045760552814
 40
0.3752265940276683
 40
0.499776914247593
 40
0.6243489660763321
 40
0.676851719941687
 40
0.7494050469591726
 40
0.8217984299997149
 40
0.874394584370766
 40
0.9070925366886076
 40
0.9389241453337096
 40
0.9698922643960367
 40
1.0
 40
1.0
 40
1.0
 40
1.0
 10
464.0026640323762
 20
346.5830401429097
 30
0.0
 10
464.0034073491742
 20
346.6258822249221
 30
0.0
 10
464.0049081091428
 20
346.7123805817977
 30
0.0
 10
464.0171605976032
 20
346.8474259958401
 30
0.0
 10
464.0371442246239
 20
346.9874201407613
 30
0.0
 10
464.0659116176398
 20
347.132258286852
 30
0.0
 10
464.103564061998
 20
347.2813436436262
 30
0.0
 10
464.1721557675413
 20
347.5052073742308
 30
0.0
 10
464.3095102983631
 20
347.8493036876789
 30
0.0
 10
464.5582110854434
 20
348.3024341106359
 30
0.0
 10
464.8659454214203
 20
348.7211207283399
 30
0.0
 10
465.2984870642343
 20
349.1904190175745
 30
0.0
 10
465.8729081701985
 20
349.6380872602286
 30
0.0
 10
466.4221040552909
 20
349.8398800830138
 30
0.0
 10
466.8114063887959
 20
349.8455479498786
 30
0.0
 10
467.0794778568813
 20
349.7595883626865
 30
0.0
 10
467.2884847324343
 20
349.5711311744462
 30
0.0
 10
467.4087355865003
 20
349.3564027829806
 30
0.0
 10
467.4740572791169
 20
349.1671962249077
 30
0.0
 10
467.5115416838061
 20
348.9959213487495
 30
0.0
 10
467.534131984182
 20
348.8157330055593
 30
0.0
 10
467.5368554086776
 20
348.6873484267794
 30
0.0
 10
467.538197938309
 20
348.6240604224665
 30
0.0
  0
SPLINE
  5
12E
330
1F
100
AcDbEntity
  8
0
  6
HIDDEN
 62
     7
370
    18
100
AcDbSpline
210
0.0
220
0.0
230
1.0
 70
     8
 71
     3
 72
    27
 73
    23
 74
     0
 42
0.00000001
 43
0.00000001
 40
0.0
 40
0.0
 40
0.0
 40
0.0
 40
0.0199433334275298
 40
0.0402670240378074
 40
0.0609720357963448
 40
0.0820592798518186
 40
0.1035296181671242
 40
0.1253838668528878
 40
0.1780424730405668
 40
0.2504644996167772
 40
0.3230196262440394
 40
0.3754816876063819
 40
0.499899112363713
 40
0.624384121977906
 40
0.676916940672165
 40
0.7495847426264491
 40
0.822057211000881
 40
0.8747671042819333
 40
0.9073599141381028
 40
0.9390944025507109
 40
0.9699734036264469
 40
1.0
 40
1.0
 40
1.0
 40
1.0
 10
467.538197938309
 20
348.6240604224665
 30
0.0
 10
467.5376098252805
 20
348.5810662596484
 30
0.0
 10
467.536422382793
 20
348.4942579538065
 30
0.0
 10
467.5266468758444
 20
348.3575547589526
 30
0.0
 10
467.5105975984358
 20
348.2150289949707
 30
0.0
 10
467.4873684162804
 20
348.0666992300415
 30
0.0
 10
467.4568280864621
 20
347.9131815832564
 30
0.0
 10
467.4009647578075
 20
347.6817377780586
 30
0.0
 10
467.2890344351484
 20
347.3225419699033
 30
0.0
 10
467.0800923176321
 20
346.8463374854291
 30
0.0
 10
466.8121461668794
 20
346.4045304989793
 30
0.0
 10
466.4232820464092
 20
345.9106281017633
 30
0.0
 10
465.8747489957396
 20
345.4488368533388
 30
0.0
 10
465.3004890507433
 20
345.2620425933573
 30
0.0
 10
464.8675641598775
 20
345.2816102031538
 30
0.0
 10
464.5591594946896
 20
345.39099922816
 30
0.0
 10
464.3099575104603
 20
345.6031762475178
 30
0.0
 10
464.1623305548601
 20
345.8342435980372
 30
0.0
 10
464.0821753032503
 20
346.0322186155927
 30
0.0
 10
464.0359122151626
 20
346.2082719261481
 30
0.0
 10
464.0077891163581
 20
346.3912635912048
 30
0.0
 10
464.0043563794057
 20
346.5197138679143
 30
0.0
 10
464.0026640323762
 20
346.5830401429097
 30
0.0
  0
SPLINE
  5
12F
330
1F
100
AcDbEntity
  8
0
  6
HIDDEN
 62
     7
370
    18
100
AcDbSpline
210
0.0
220
0.0
230
1.0
 70
     8
 71
     3
 72
    37
 73
    33
 74
     0
 42
0.00000001
 43
0.00000001
 40
0.0
 40
0.0
 40
0.0
 40
0.0
 40
0.0132198026509974
 40
0.0266042752377748
 40
0.040154598670732
 40
0.053871910984003
 40
0.0677573091105318
 40
0.0818118505843943
 40
0.0960365551724068
 40
0.1104324064371513
 40
0.1250003532336273
 40
0.154824867727035
 40
0.1876616640010465
 40
0.2140474269207555
 40
0.2500101106252682
 40
0.3126176113915514
 40
0.3749084123126657
 40
0.4392259624944118
 40
0.4998775065014381
 40
0.5605121287711907
 40
0.6247969733226384
 40
0.6870973970885333
 40
0.7496543301946363
 40
0.7857783551578107
 40
0.8121922126198574
 40
0.8448910845288263
 40
0.8745965662408609
 40
0.9007858577906136
 40
0.9264148291288702
 40
0.9514892968697191
 40
0.9760154737130375
 40
1.0
 40
1.0
 40
1.0
 40
1.0
 10
483.4481005150063
 20
357.8086516804719
 30
0.0
 10
483.4488297021358
 20
357.8655597299872
 30
0.0
 10
483.4502971593742
 20
357.9800846932201
 30
0.0
 10
483.4622185239789
 20
358.1561400719421
 30
0.0
 10
483.4814974293911
 20
358.3363981067634
 30
0.0
 10
483.5090433703281
 20
358.5208849189634
 30
0.0
 10
483.5448545781194
 20
358.7092767950881
 30
0.0
 10
483.5891616973182
 20
358.90130918049
 30
0.0
 10
483.6421138125817
 20
359.0966617471427
 30
0.0
 10
483.7038619835141
 20
359.2949987432453
 30
0.0
 10
483.7989262730957
 20
359.5652638884485
 30
0.0
 10
483.9454855072714
 20
359.9200109589517
 30
0.0
 10
484.1467879554451
 20
360.3253973315799
 30
0.0
 10
484.3920407835701
 20
360.7510289903718
 30
0.0
 10
484.7509237993652
 20
361.2965074837188
 30
0.0
 10
485.2794073331941
 20
361.9619615325762
 30
0.0
 10
485.9666881382639
 20
362.664503616885
 30
0.0
 10
486.6794136041139
 20
363.2581043851133
 30
0.0
 10
487.3850751422917
 20
363.7237853317607
 30
0.0
 10
488.0588791638654
 20
364.0549968333594
 30
0.0
 10
488.6836383750733
 20
364.2341347564293
 30
0.0
 10
489.2361891841109
 20
364.2480467583713
 30
0.0
 10
489.6311334695351
 20
364.1159386624308
 30
0.0
 10
489.8875505488638
 20
363.9256014289713
 30
0.0
 10
490.0573233743738
 20
363.7395679696227
 30
0.0
 10
490.1936133334135
 20
363.5299817959861
 30
0.0
 10
490.3051790324453
 20
363.2847930217146
 30
0.0
 10
490.3879188357214
 20
363.0304483159343
 30
0.0
 10
490.4482676602914
 20
362.766964758001
 30
0.0
 10
490.4896766969127
 20
362.487796836169
 30
0.0
 10
490.5146733388409
 20
362.1971975790518
 30
0.0
 10
490.5176811923465
 20
361.9920973310739
 30
0.0
 10
490.5191683268718
 20
361.8906922395855
 30
0.0
  0
SPLINE
  5
130
330
1F
100
AcDbEntity
  8
0
  6
HIDDEN
 62
     7
370
    18
100
AcDbSpline
210
0.0
220
0.0
230
1.0
 70
     8
 71
     3
 72
    22
 73
    18
 74
     0
 42
0.00000001
 43
0.00000001
 40
0.0
 40
0.0
 40
0.0
 40
0.0
 40
0.126422109796149
 40
0.1701979630183399
 40
0.214773783239274
 40
0.2601564316717952
 40
0.3218933337128982
 40
0.3898387503054939
 40
0.444934256981164
 40
0.520214141554308
 40
0.5831539384254153
 40
0.63142205361203
 40
0.6782153884673482
 40
0.7313208775415371
 40
0.7801389598274387
 40
0.913698712448162
 40
1.0
 40
1.0
 40
1.0
 40
1.0
 10
490.5191683268718
 20
361.8906922395855
 30
0.0
 10
490.5101771095794
 20
361.6213031246057
 30
0.0
 10
490.4980725269975
 20
361.2586333455394
 30
0.0
 10
490.4295622238147
 20
360.7660964457388
 30
0.0
 10
490.3758170240155
 20
360.454753061045
 30
0.0
 10
490.3004512695587
 20
360.0963875987599
 30
0.0
 10
490.1946413664606
 20
359.6785597831195
 30
0.0
 10
490.0584791933034
 20
359.2366753319853
 30
0.0
 10
489.8886674533927
 20
358.7664599567037
 30
0.0
 10
489.6981909484057
 20
358.3162576475945
 30
0.0
 10
489.4902282467055
 20
357.8961688342107
 30
0.0
 10
489.2984040202061
 20
357.5528300658769
 30
0.0
 10
489.106044510491
 20
357.2430388359011
 30
0.0
 10
488.9004075361742
 20
356.9462775503603
 30
0.0
 10
488.5556312814365
 20
356.5053840018517
 30
0.0
 10
488.1277932619798
 20
356.0460060531648
 30
0.0
 10
487.7412439802628
 20
355.7876848407
 30
0.0
 10
487.5895131384172
 20
355.6862869158099
 30
0.0
  0
SPLINE
  5
131
330
1F
100
AcDbEntity
  8
0
  6
HIDDEN
 62
     7
370
    18
100
AcDbSpline
210
0.0
220
0.0
230
1.0
 70
     8
 71
     3
 72
    21
 73
    17
 74
     0
 42
0.00000001
 43
0.00000001
 40
0.0
 40
0.0
 40
0.0
 40
0.0
 40
0.086124056435129
 40
0.1298923526757605
 40
0.1745152880611608
 40
0.2199999182423761
 40
0.2817610376799167
 40
0.3502452870763577
 40
0.403769007495103
 40
0.4803734991053079
 40
0.5552449836186695
 40
0.6101237406845437
 40
0.6784247799988998
 40
0.7404660676414185
 40
0.8737660817974795
 40
1.0
 40
1.0
 40
1.0
 40
1.0
 10
487.1653286967335
 20
355.441410449968
 30
0.0
 10
487.0093592379316
 20
355.3636250989712
 30
0.0
 10
486.7741260082403
 20
355.2463091867522
 30
0.0
 10
486.4548551409255
 20
355.1645796883811
 30
0.0
 10
486.2115166732616
 20
355.1191211350533
 30
0.0
 10
485.9380911451697
 20
355.0945191964846
 30
0.0
 10
485.6274449072726
 20
355.1006989275493
 30
0.0
 10
485.3141188163988
 20
355.1509220735576
 30
0.0
 10
484.9908143724139
 20
355.2484015559737
 30
0.0
 10
484.6779438451457
 20
355.394843617005
 30
0.0
 10
484.3926516865026
 20
355.5934150097026
 30
0.0
 10
484.1472354921829
 20
355.8233998428433
 30
0.0
 10
483.9455535787705
 20
356.0712607750327
 30
0.0
 10
483.7060001974917
 20
356.469941761899
 30
0.0
 10
483.4952394834551
 20
357.0294153371278
 30
0.0
 10
483.4635256902216
 20
357.5536639807892
 30
0.0
 10
483.4481005150063
 20
357.8086516804719
 30
0.0
  0
LINE
  5
132
330
1F
100
AcDbEntity
  8
0
  6
HIDDEN
 62
     7
370
    18
100
AcDbLine
 10
468.2453047195
 20
340.461571705
 30
0.0
 11
467.900262321
 21
340.6526560352
 31
0.0
  0
SPLINE
  5
133
330
1F
100
AcDbEntity
  8
0
  6
HIDDEN
 62
     7
370
    18
100
AcDbSpline
210
0.0
220
0.0
230
1.0
 70
     8
 71
     3
 72
    19
 73
    15
 74
     0
 42
0.00000001
 43
0.00000001
 40
0.0
 40
0.0
 40
0.0
 40
0.0
 40
0.0506788078432395
 40
0.1009765386960806
 40
0.1509105629275991
 40
0.2004986331430133
 40
0.2497588760005645
 40
0.3736063611404444
 40
0.5002325719550953
 40
0.6210040873110243
 40
0.7501997584177739
 40
0.8249167572679991
 40
0.9081793555393098
 40
1.0
 40
1.0
 40
1.0
 40
1.0
 10
495.8546770864081
 20
359.5451528342455
 30
0.0
 10
495.8091759565639
 20
359.5249517866808
 30
0.0
 10
495.7185158405517
 20
359.4847015924099
 30
0.0
 10
495.5778776278224
 20
359.4163387203003
 30
0.0
 10
495.4348654742038
 20
359.3427328358385
 30
0.0
 10
495.2893689841187
 20
359.2635560400531
 30
0.0
 10
495.0669974332058
 20
359.1365427497502
 30
0.0
 10
494.7573984679327
 20
358.945955452533
 30
0.0
 10
494.3621906586403
 20
358.6777640117778
 30
0.0
 10
493.9554632393402
 20
358.3770669670315
 30
0.0
 10
493.6056143089962
 20
358.0949063299817
 30
0.0
 10
493.3010028892226
 20
357.8309711151615
 30
0.0
 10
493.0402597276171
 20
357.5925929930967
 30
0.0
 10
492.8644292030005
 20
357.4170140749562
 30
0.0
 10
492.7722166540767
 20
357.3249334785165
 30
0.0
  0
LINE
  5
134
330
1F
100
AcDbEntity
  8
0
  6
HIDDEN
 62
     7
370
    18
100
AcDbLine
 10
492.7722166541
 20
357.3249334785
 30
0.0
 11
465.4181778571
 21
341.5337830051
 31
0.0
  0
LWPOLYLINE
  5
135
330
1F
100
AcDbEntity
  8
0
  6
HIDDEN
 62
     7
370
    18
100
AcDbPolyline
 90
       14
 70
   128
 43
0.0
 10
503.6006437788
 20
360.8717745006
 10
502.850831005
 20
361.2663009831
 10
502.1068846937
 20
361.5810782923
 10
501.3746254092
 20
361.8136436409
 10
500.6597822771
 20
361.9621774601
 10
499.967948161
 20
362.0255176357
 10
499.3045359042
 20
362.0031686002
 10
498.6747359801
 20
361.8953052104
 10
498.0834758822
 20
361.702771379
 10
497.5353815725
 20
361.427073472
 10
497.0347412878
 20
361.0703685233
 10
496.5854719894
 20
360.6354473578
 10
496.1910887167
 20
360.1257127567
 10
495.8546770864
 20
359.5451528342
  0
LINE
  5
136
330
1F
100
AcDbEntity
  8
0
  6
HIDDEN
 62
     7
370
    18
100
AcDbLine
 10
492.7722166541
 20
350.7926069834
 30
0.0
 11
470.9172685171
 21
338.1760139757
 31
0.0
  0
SPLINE
  5
137
330
1F
100
AcDbEntity
  8
0
  6
HIDDEN
 62
     7
370
    18
100
AcDbSpline
210
0.0
220
0.0
230
1.0
 70
     8
 71
     3
 72
    19
 73
    15
 74
     0
 42
0.00000001
 43
0.00000001
 40
0.0
 40
0.0
 40
0.0
 40
0.0
 40
0.0561049099622132
 40
0.1091299705863196
 40
0.1590775021764509
 40
0.20595030205607
 40
0.2497517767817599
 40
0.3786730117634542
 40
0.499217577301735
 40
0.625816509551625
 40
0.7496482091265739
 40
0.8321201966401806
 40
0.915543179542415
 40
1.0
 40
1.0
 40
1.0
 40
1.0
 10
492.7722166540767
 20
350.7926069834305
 30
0.0
 10
492.8283167175729
 20
350.7741289137794
 30
0.0
 10
492.9374372612713
 20
350.738187118331
 30
0.0
 10
493.1006596518182
 20
350.698035878255
 30
0.0
 10
493.2566233900036
 20
350.6683072325071
 30
0.0
 10
493.4048706893075
 20
350.6484235464659
 30
0.0
 10
493.6383786787455
 20
350.6290884331235
 30
0.0
 10
493.954347683865
 20
350.6338994981328
 30
0.0
 10
494.3605142568572
 20
350.6983923939545
 30
0.0
 10
494.7554623142979
 20
350.8205250570578
 30
0.0
 10
495.0994214483178
 20
350.9825546370241
 30
0.0
 10
495.3868007494814
 20
351.1605882671025
 30
0.0
 10
495.6267144813243
 20
351.3372194446855
 30
0.0
 10
495.7783782261105
 20
351.4752694091792
 30
0.0
 10
495.8546770864081
 20
351.5447194611335
 30
0.0
  0
ARC
  5
138
330
1F
100
AcDbEntity
  8
0
  6
HIDDEN
 62
     7
370
    18
100
AcDbCircle
 10
513.6567080588
 20
356.9155734727
 30
0.0
 40
18.59457930566613
100
AcDbArc
 50
196.7885074989
 51
237.2614608986
  0
LINE
  5
139
330
1F
100
AcDbEntity
  8
0
  6
HIDDEN
 62
     7
370
    18
100
AcDbLine
 10
489.9534829019
 20
352.4198273422
 30
0.0
 11
468.6720280984
 21
340.1343049888
 31
0.0
  0
ARC
  5
13A
330
1F
100
AcDbEntity
  8
0
  6
HIDDEN
 62
     7
370
    18
100
AcDbCircle
 10
496.0310563905
 20
354.5606368917
 30
0.0
 40
7.49815447907955
100
AcDbArc
 50
144.1489770242
 51
177.6385801897
  0
ARC
  5
13B
330
1F
100
AcDbEntity
  8
0
  6
HIDDEN
 62
     7
370
    18
100
AcDbCircle
 10
490.832831911
 20
354.5605463597
 30
0.0
 40
2.314288787454169
100
AcDbArc
 50
172.326146262
 51
247.668478079
  0
LWPOLYLINE
  5
13C
330
1F
100
AcDbEntity
  8
0
  6
HIDDEN
 62
     7
370
    18
100
AcDbPolyline
 90
       18
 70
   128
 43
0.0
 10
469.0938328569
 20
343.6439709403
 10
469.1239324486
 20
343.2862496136
 10
469.2132062182
 20
342.9754623065
 10
469.3586140545
 20
342.7221925079
 10
469.5552042681
 20
342.5350650171
 10
469.796282215
 20
342.4204522365
 10
470.0736382749
 20
342.3822571666
 10
470.3778274198
 20
342.421780495
 10
470.6984908532
 20
342.5376763019
 10
471.0247087665
 20
342.7259978947
 10
471.3453722
 20
342.9803322075
 10
471.6495613449
 20
343.2920181902
 10
471.9269174048
 20
343.6504417505
 10
472.1679953517
 20
344.043397204
 10
472.3645855653
 20
344.457502924
 10
472.5099934016
 20
344.8786570368
 10
472.5992671712
 20
345.2925176443
 10
472.6293667629
 20
345.6849912199
  0
LWPOLYLINE
  5
13D
330
1F
100
AcDbEntity
  8
0
  6
HIDDEN
 62
     7
370
    18
100
AcDbPolyline
 90
       18
 70
   128
 43
0.0
 10
472.6293667629
 20
345.6849912199
 10
472.5992671712
 20
346.0427125466
 10
472.5099934016
 20
346.3534998538
 10
472.3645855653
 20
346.6067696523
 10
472.1679953517
 20
346.7938971431
 10
471.9269174048
 20
346.9085099238
 10
471.6495613449
 20
346.9467049936
 10
471.3453722
 20
346.9071816653
 10
471.0247087665
 20
346.7912858584
 10
470.6984908532
 20
346.6029642655
 10
470.3778274198
 20
346.3486299528
 10
470.0736382749
 20
346.0369439701
 10
469.796282215
 20
345.6785204098
 10
469.5552042681
 20
345.2855649563
 10
469.3586140545
 20
344.8714592363
 10
469.2132062182
 20
344.4503051234
 10
469.1239324486
 20
344.0364445159
 10
469.0938328569
 20
343.6439709403
  0
LINE
  5
13E
330
1F
100
AcDbEntity
  8
0
  6
HIDDEN
 62
     7
370
    18
100
AcDbLine
 10
489.9534829019
 20
358.9521538373
 30
0.0
 11
456.7194641862
 21
339.7665632094
 31
0.0
  0
LINE
  5
13F
330
1F
100
AcDbEntity
  8
0
  6
HIDDEN
 62
     7
370
    18
100
AcDbLine
 10
492.7722166541
 20
350.7926069834
 30
0.0
 11
489.9534829019
 21
352.4198273422
 31
0.0
  0
LWPOLYLINE
  5
140
330
1F
100
AcDbEntity
  8
0
  6
HIDDEN
 62
     7
370
    18
100
AcDbPolyline
 90
       26
 70
   128
 43
0.0
 10
513.1465853248
 20
339.0284120572
 10
514.1011767711
 20
338.5119801658
 10
515.0520008811
 20
338.0668704362
 10
515.9953051864
 20
337.6948395134
 10
516.9273668958
 20
337.3973556332
 10
517.8445075877
 20
337.1755928288
 10
518.7431077266
 20
337.0304262966
 10
519.6196209485
 20
336.9624289425
 10
520.4705880559
 20
336.9718691211
 10
521.2926506707
 20
337.0587095763
 10
522.0825644871
 20
337.2226075885
 10
522.8372120762
 20
337.4629163271
 10
523.5536151887
 20
337.7786874032
 10
524.2289465089
 20
338.1686746129
 10
524.8605408125
 20
338.6313388545
 10
525.4459054854
 20
339.1648542039
 10
525.9827303607
 20
339.7671151196
 10
526.4688968358
 20
340.435744753
 10
526.9024862337
 20
341.1681043284
 10
527.2817873753
 20
341.961303557
 10
527.6053033321
 20
342.812212044
 10
527.8717573345
 20
343.7174716422
 10
528.0800978102
 20
344.6735097057
 10
528.2295025346
 20
345.6765531889
 10
528.3193818756
 20
346.7226435374
 10
528.3493811204
 20
347.8076523106
  0
LINE
  5
141
330
1F
100
AcDbEntity
  8
0
  6
HIDDEN
 62
     7
370
    18
100
AcDbLine
 10
495.8546770864
 20
351.5447194611
 30
0.0
 11
497.4362297759
 21
350.6317085275
 31
0.0
  0
ARC
  5
142
330
1F
100
AcDbEntity
  8
0
  6
HIDDEN
 62
     7
370
    18
100
AcDbCircle
 10
511.775769626
 20
355.7543045782
 30
0.0
 40
15.2270612204431
100
AcDbArc
 50
199.6585434221
 51
237.5284069306
  0
LWPOLYLINE
  5
143
330
1F
100
AcDbEntity
  8
0
  6
HIDDEN
 62
     7
370
    18
100
AcDbPolyline
 90
       35
 70
   128
 43
0.0
 10
503.6006437788
 20
342.9078766391
 10
504.2530796055
 20
342.5660656449
 10
504.8999490797
 20
342.2968352447
 10
505.5357333392
 20
342.1024824172
 10
506.1550080969
 20
341.9846653123
 10
506.7524899189
 20
341.944389104
 10
507.3230813009
 20
341.9819974146
 10
507.8619141584
 20
342.0971693833
 10
508.3643913596
 20
342.2889224035
 10
508.8262259461
 20
342.555620506
 10
509.243477708
 20
342.8949883167
 10
509.6125868004
 20
343.304130469
 10
509.9304041147
 20
343.7795563064
 10
510.1942181456
 20
344.3172096633
 10
510.4017781249
 20
344.9125034707
 10
510.5513132239
 20
345.5603588919
 10
510.641547662
 20
346.2552486527
 10
510.6717115907
 20
346.9912441988
 10
510.641547662
 20
347.7620662757
 10
510.5513132239
 20
348.5611385011
 10
510.4017781249
 20
349.3816434727
 10
510.1942181456
 20
350.2165809312
 10
509.9304041147
 20
351.0588274847
 10
509.6125868004
 20
351.9011973826
 10
509.243477708
 20
352.7365038219
 10
508.8262259461
 20
353.5576202626
 10
508.3643913596
 20
354.3575412287
 10
507.8619141584
 20
355.1294420765
 10
507.3230813009
 20
355.8667372203
 10
506.7524899189
 20
356.5631363178
 10
506.1550080969
 20
357.2126979375
 10
505.5357333392
 20
357.8098802486
 10
504.8999490797
 20
358.3495883023
 10
504.2530796055
 20
358.8272174996
 10
503.6006437788
 20
359.2386928768
  0
LWPOLYLINE
  5
144
330
1F
100
AcDbEntity
  8
0
  6
HIDDEN
 62
     7
370
    18
100
AcDbPolyline
 90
       12
 70
   128
 43
0.0
 10
503.6006437788
 20
359.2386928768
 10
502.9210567361
 20
359.593211637
 10
502.2477614458
 20
359.8688512141
 10
501.5869914101
 20
360.063059682
 10
500.9448641699
 20
360.1740390198
 10
500.3273246671
 20
360.2007617587
 10
499.7400902059
 20
360.1429804942
 10
499.18859752
 20
360.0012301769
 10
498.6779524387
 20
359.7768231594
 10
498.2128826161
 20
359.4718370467
 10
497.7976937614
 20
359.0890954611
 10
497.4362297759
 20
358.6321419006
  0
LINE
  5
145
330
1F
100
AcDbEntity
  8
0
  6
HIDDEN
 62
     7
370
    18
100
AcDbLine
 10
497.4362297759
 20
358.6321419006
 30
0.0
 11
495.8546770864
 21
359.5451528342
 31
0.0
  0
LWPOLYLINE
  5
146
330
1F
100
AcDbEntity
  8
0
  6
HIDDEN
 62
     7
370
    18
100
AcDbPolyline
 90
       35
 70
   128
 43
0.0
 10
505.0148573412
 20
343.7242847509
 10
505.6672931679
 20
343.3824737568
 10
506.3141626421
 20
343.1132433565
 10
506.9499469016
 20
342.9188905291
 10
507.5692216593
 20
342.8010734242
 10
508.1667034812
 20
342.7607972158
 10
508.7372948632
 20
342.7984055264
 10
509.2761277208
 20
342.9135774951
 10
509.778604922
 20
343.1053305153
 10
510.2404395084
 20
343.3720286178
 10
510.6576912703
 20
343.7113964285
 10
511.0268003628
 20
344.1205385809
 10
511.3446176771
 20
344.5959644183
 10
511.608431708
 20
345.1336177751
 10
511.8159916873
 20
345.7289115826
 10
511.9655267863
 20
346.3767670037
 10
512.0557612244
 20
347.0716567646
 10
512.0859251531
 20
347.8076523106
 10
512.0557612244
 20
348.5784743875
 10
511.9655267863
 20
349.3775466129
 10
511.8159916873
 20
350.1980515845
 10
511.608431708
 20
351.032989043
 10
511.3446176771
 20
351.8752355966
 10
511.0268003628
 20
352.7176054944
 10
510.6576912703
 20
353.5529119337
 10
510.2404395084
 20
354.3740283744
 10
509.778604922
 20
355.1739493405
 10
509.2761277208
 20
355.9458501884
 10
508.7372948632
 20
356.6831453321
 10
508.1667034812
 20
357.3795444297
 10
507.5692216593
 20
358.0291060493
 10
506.9499469016
 20
358.6262883604
 10
506.3141626421
 20
359.1659964141
 10
505.6672931679
 20
359.6436256114
 10
505.0148573412
 20
360.0551009886
  0
SPLINE
  5
147
330
1F
100
AcDbEntity
  8
0
  6
HIDDEN
 62
     7
370
    18
100
AcDbSpline
210
0.0
220
0.0
230
1.0
 70
     8
 71
     3
 72
    16
 73
    12
 74
     0
 42
0.00000001
 43
0.00000001
 40
0.0
 40
0.0
 40
0.0
 40
0.0
 40
0.0949264622958472
 40
0.1851041649649391
 40
0.2705369937666873
 40
0.351229538994236
 40
0.4271872695333206
 40
0.4984167642075384
 40
0.6738971358450424
 40
0.8410351049699483
 40
1.0
 40
1.0
 40
1.0
 40
1.0
 10
498.5341166427881
 20
358.8971080877038
 30
0.0
 10
498.5073800743328
 20
358.9003196312621
 30
0.0
 10
498.455244452102
 20
358.906582058769
 30
0.0
 10
498.3736124819137
 20
358.9072264553138
 30
0.0
 10
498.2927360797801
 20
358.9023093619681
 30
0.0
 10
498.21281009255
 20
358.8922540177509
 30
0.0
 10
498.1344320734339
 20
358.8781587540144
 30
0.0
 10
498.0190698915968
 20
358.8521816229558
 30
0.0
 10
497.8610083655601
 20
358.8057432310785
 30
0.0
 10
497.654547932903
 20
358.7295380769665
 30
0.0
 10
497.5077763222102
 20
358.6640602721334
 30
0.0
 10
497.4362297758539
 20
358.6321419006126
 30
0.0
  0
LWPOLYLINE
  5
148
330
1F
100
AcDbEntity
  8
0
  6
HIDDEN
 62
     7
370
    18
100
AcDbPolyline
 90
       13
 70
   128
 43
0.0
 10
505.0148573412
 20
360.0551009886
 10
504.3328074228
 20
360.4107664281
 10
503.6571180179
 20
360.6869678851
 10
502.9940903243
 20
360.8811296197
 10
502.3499074621
 20
360.9914409606
 10
501.7305768125
 20
361.0168731902
 10
501.141873995
 20
360.957189138
 10
500.5892890069
 20
360.8129453927
 10
500.0779750256
 20
360.5854871113
 10
499.6127003523
 20
360.2769354751
 10
499.1978039448
 20
359.8901679081
 10
498.8371549542
 20
359.4287912434
 10
498.5341166428
 20
358.8971080877
  0
LWPOLYLINE
  5
149
330
1F
100
AcDbEntity
  8
0
  6
HIDDEN
 62
     7
370
    18
100
AcDbPolyline
 90
       51
 70
   128
 43
0.0
 10
513.1465853248
 20
374.1396669683
 10
512.1919938785
 20
374.6560988597
 10
511.2411697686
 20
375.1012085892
 10
510.2978654633
 20
375.4732395121
 10
509.3658037539
 20
375.7707233922
 10
508.448663062
 20
375.9924861966
 10
507.5500629231
 20
376.1376527289
 10
506.6735497012
 20
376.2056500829
 10
505.8225825937
 20
376.1962099043
 10
505.000519979
 20
376.1093694492
 10
504.2106061626
 20
375.945471437
 10
503.4559585735
 20
375.7051626984
 10
502.739555461
 20
375.3893916222
 10
502.0642241408
 20
374.9994044126
 10
501.4326298372
 20
374.5367401709
 10
500.8472651643
 20
374.0032248216
 10
500.310440289
 20
373.4009639058
 10
499.8242738139
 20
372.7323342725
 10
499.3906844159
 20
371.9999746971
 10
499.0113832744
 20
371.2067754685
 10
498.6878673176
 20
370.3558669815
 10
498.4214133152
 20
369.4506073833
 10
498.2130728395
 20
368.4945693198
 10
498.063668115
 20
367.4915258366
 10
497.9737887741
 20
366.4454354881
 10
497.9437895293
 20
365.3604267148
 10
497.9737887741
 20
364.2407815509
 10
498.063668115
 20
363.0909187241
 10
498.2130728395
 20
361.9153762178
 10
498.4214133152
 20
360.7187933612
 10
498.6878673176
 20
359.5058925201
 10
499.0113832744
 20
358.2814604601
 10
499.3906844159
 20
357.0503294551
 10
499.8242738139
 20
355.8173582167
 10
500.310440289
 20
354.5874127191
 10
500.8472651643
 20
353.3653469953
 10
501.4326298372
 20
352.1559839804
 10
502.0642241408
 20
350.9640964777
 10
502.739555461
 20
349.7943883227
 10
503.4559585735
 20
348.6514758189
 10
504.2106061626
 20
347.5398695201
 10
505.000519979
 20
346.4639564283
 10
505.8225825937
 20
345.427982681
 10
506.6735497012
 20
344.4360367934
 10
507.5500629231
 20
343.4920335225
 10
508.448663062
 20
342.5996984182
 10
509.3658037539
 20
341.7625531193
 10
510.2978654633
 20
340.9839014559
 10
511.2411697686
 20
340.2668164103
 10
512.1919938785
 20
339.6141279898
 10
513.1465853248
 20
339.0284120572
  0
ARC
  5
14A
330
1F
100
AcDbEntity
  8
0
  6
HIDDEN
 62
     7
370
    18
100
AcDbCircle
 10
513.4514682842
 20
356.8027665559
 30
0.0
 40
15.56351793542488
100
AcDbArc
 50
196.5679986996
 51
237.1749205993
  0
SPLINE
  5
14B
330
1F
100
AcDbEntity
  8
0
  6
HIDDEN
 62
     7
370
    18
100
AcDbSpline
210
0.0
220
0.0
230
1.0
 70
     8
 71
     3
 72
    20
 73
    16
 74
     0
 42
0.00000001
 43
0.00000001
 40
0.0
 40
0.0
 40
0.0
 40
0.0
 40
0.0528513951085048
 40
0.1040445197054425
 40
0.1536110532015075
 40
0.2015858973980008
 40
0.2480075443408446
 40
0.3772340916617243
 40
0.4983397403618428
 40
0.6245749637362384
 40
0.7490921948746928
 40
0.8112171898273165
 40
0.8735657358349364
 40
0.9364060181579309
 40
1.0
 40
1.0
 40
1.0
 40
1.0
 10
498.5341166427881
 20
352.3647815926178
 30
0.0
 10
498.6207752459351
 20
352.3860031287113
 30
0.0
 10
498.7913734434711
 20
352.4277803519186
 30
0.0
 10
499.0390168793198
 20
352.5002783816306
 30
0.0
 10
499.2751965942398
 20
352.5785051981416
 30
0.0
 10
499.4995778434964
 20
352.6629448635194
 30
0.0
 10
499.8407201327947
 20
352.807723496045
 30
0.0
 10
500.2728159826315
 20
353.0362519258218
 30
0.0
 10
500.7643272250382
 20
353.398232278744
 30
0.0
 10
501.1717676150089
 20
353.8288025323379
 30
0.0
 10
501.4285564715266
 20
354.2445047995793
 30
0.0
 10
501.5740307195965
 20
354.5959942127301
 30
0.0
 10
501.6526031034597
 20
354.8680047508378
 30
0.0
 10
501.7024017695916
 20
355.1470158894082
 30
0.0
 10
501.7085548348018
 20
355.3349054615449
 30
0.0
 10
501.711649707223
 20
355.4294102709625
 30
0.0
  0
SPLINE
  5
14C
330
1F
100
AcDbEntity
  8
0
  6
HIDDEN
 62
     7
370
    18
100
AcDbSpline
210
0.0
220
0.0
230
1.0
 70
     8
 71
     3
 72
    21
 73
    17
 74
     0
 42
0.00000001
 43
0.00000001
 40
0.0
 40
0.0
 40
0.0
 40
0.0
 40
0.036332681631463
 40
0.0723863315660809
 40
0.1082083397606744
 40
0.1438470202907817
 40
0.1793514356925195
 40
0.2147712064886958
 40
0.2501563093356265
 40
0.3743403217379342
 40
0.5002168065827743
 40
0.6210670716355301
 40
0.7499907977818763
 40
0.8288113439646725
 40
0.9120922248288025
 40
1.0
 40
1.0
 40
1.0
 40
1.0
 10
501.711649707223
 20
355.4294102709625
 30
0.0
 10
501.7106406742535
 20
355.4832970233493
 30
0.0
 10
501.7086303575962
 20
355.5906566827562
 30
0.0
 10
501.6923556317511
 20
355.7503251755937
 30
0.0
 10
501.6665464884433
 20
355.9079073776223
 30
0.0
 10
501.6304259333614
 20
356.0632447621597
 30
0.0
 10
501.5844211855352
 20
356.2162309889858
 30
0.0
 10
501.5286202466307
 20
356.3667832223944
 30
0.0
 10
501.4086984656017
 20
356.6384834685857
 30
0.0
 10
501.1749366933071
 20
357.0211013480918
 30
0.0
 10
500.7695510112686
 20
357.476430381974
 30
0.0
 10
500.2800605575962
 20
357.893162263409
 30
0.0
 10
499.8023065131657
 20
358.2199571777607
 30
0.0
 10
499.3547739062886
 20
358.4839382655041
 30
0.0
 10
498.958062519715
 20
358.6962970220851
 30
0.0
 10
498.6779555164465
 20
358.8289757173501
 30
0.0
 10
498.5341166427881
 20
358.8971080877038
 30
0.0
  0
LINE
  5
14D
330
1F
100
AcDbEntity
  8
0
  6
HIDDEN
 62
     7
370
    18
100
AcDbLine
 10
524.4701071851
 20
358.2115887037
 30
0.0
 11
525.8108509475
 21
358.9855836028
 31
0.0
  0
SPLINE
  5
14E
330
1F
100
AcDbEntity
  8
0
  6
HIDDEN
 62
     7
370
    18
100
AcDbSpline
210
0.0
220
0.0
230
1.0
 70
     8
 71
     3
 72
    21
 73
    17
 74
     0
 42
0.00000001
 43
0.00000001
 40
0.0
 40
0.0
 40
0.0
 40
0.0
 40
0.0313399934193003
 40
0.062624165569441
 40
0.0939292235287482
 40
0.1253317213227984
 40
0.1876157809644316
 40
0.2500903882167149
 40
0.3750207771426178
 40
0.5000914489812796
 40
0.6245407573241483
 40
0.7496555537339771
 40
0.8120438496738798
 40
0.8741280025437641
 40
0.93709861073076
 40
1.0
 40
1.0
 40
1.0
 40
1.0
 10
522.6925268708598
 20
354.3389172052254
 30
0.0
 10
522.6928652576603
 20
354.379720457847
 30
0.0
 10
522.6935414285437
 20
354.4612542863249
 30
0.0
 10
522.6990552691929
 20
354.5882098137925
 30
0.0
 10
522.7078958624428
 20
354.7182405415405
 30
0.0
 10
522.7244667783024
 20
354.895082181486
 30
0.0
 10
522.7538889773356
 20
355.1223632446851
 30
0.0
 10
522.8197783105845
 20
355.4948270436606
 30
0.0
 10
522.9374822028062
 20
355.9714582659985
 30
0.0
 10
523.1347596085603
 20
356.5328235505411
 30
0.0
 10
523.3883409319413
 20
357.061780088164
 30
0.0
 10
523.6461787674873
 20
357.4562785092178
 30
0.0
 10
523.8779142721131
 20
357.7328333046747
 30
0.0
 10
524.0641816829735
 20
357.9181311931426
 30
0.0
 10
524.2611822993011
 20
358.0816847092343
 30
0.0
 10
524.400491092531
 20
358.168303249809
 30
0.0
 10
524.4701071851382
 20
358.2115887036726
 30
0.0
  0
SPLINE
  5
14F
330
1F
100
AcDbEntity
  8
0
  6
HIDDEN
 62
     7
370
    18
100
AcDbSpline
210
0.0
220
0.0
230
1.0
 70
     8
 71
     3
 72
    24
 73
    20
 74
     0
 42
0.00000001
 43
0.00000001
 40
0.0
 40
0.0
 40
0.0
 40
0.0
 40
0.0358680519647465
 40
0.0714958841654953
 40
0.1070079407968213
 40
0.1425298826013186
 40
0.1781872654176894
 40
0.2141042241966705
 40
0.2504022301823776
 40
0.3747725408214356
 40
0.5002453833811487
 40
0.5625581433586574
 40
0.6252483842866636
 40
0.6879479409315664
 40
0.7501238609389526
 40
0.8130964043974035
 40
0.8753295697128736
 40
0.9374279386313065
 40
1.0
 40
1.0
 40
1.0
 40
1.0
 10
524.4701071851382
 20
353.3123438323582
 30
0.0
 10
524.4302378602166
 20
353.2898197963373
 30
0.0
 10
524.3507662279364
 20
353.2449225749362
 30
0.0
 10
524.235023570984
 20
353.1860738456828
 30
0.0
 10
524.1225142866945
 20
353.133915070994
 30
0.0
 10
524.0133871844226
 20
353.0890678984866
 30
0.0
 10
523.9075220614982
 20
353.0514497991317
 30
0.0
 10
523.8048362023399
 20
353.0211932234003
 30
0.0
 10
523.6252210568532
 20
352.9800548952851
 30
0.0
 10
523.387849707324
 20
352.9653031553544
 30
0.0
 10
523.177040854247
 20
353.033469672419
 30
0.0
 10
523.0358705810992
 20
353.137117895334
 30
0.0
 10
522.9444165062004
 20
353.2399220380073
 30
0.0
 10
522.8666045629706
 20
353.3665961735045
 30
0.0
 10
522.8030180964006
 20
353.5177359336565
 30
0.0
 10
522.7533647692702
 20
353.6913111104246
 30
0.0
 10
522.7181113498225
 20
353.8870307321384
 30
0.0
 10
522.6964208361435
 20
354.1016495314234
 30
0.0
 10
522.6938281429831
 20
354.2596278980032
 30
0.0
 10
522.6925268708598
 20
354.3389172052254
 30
0.0
  0
LINE
  5
150
330
1F
100
AcDbEntity
  8
0
  6
HIDDEN
 62
     7
370
    18
100
AcDbLine
 10
527.2697556361
 20
354.9285464812
 30
0.0
 11
524.4701071851
 21
353.3123438324
 31
0.0
  0
ARC
  5
151
330
1F
100
AcDbEntity
  8
0
  6
HIDDEN
 62
     7
370
    18
100
AcDbCircle
 10
543.1411752828
 20
368.3083551188
 30
0.0
 40
4.675258921754695
100
AcDbArc
 50
233.6518729526
 51
295.0376686183
  0
LWPOLYLINE
  5
152
330
1F
100
AcDbEntity
  8
0
  6
HIDDEN
 62
     7
370
    18
100
AcDbPolyline
 90
       34
 70
   128
 43
0.0
 10
513.1465853248
 20
348.8269017998
 10
513.7851256666
 20
348.493405227
 10
514.4178832881
 20
348.2331786912
 10
515.0391278384
 20
348.0485788442
 10
515.6432332306
 20
347.9412774507
 10
516.2247285928
 20
347.9122462488
 10
516.7783478128
 20
347.9617481496
 10
517.2990772294
 20
348.0893348561
 10
517.7822010363
 20
348.2938509235
 10
518.2233439894
 20
348.5734442224
 10
518.61851103
 20
348.9255827129
 10
518.964123464
 20
349.347077374
 10
519.2570513717
 20
349.8341110849
 10
519.4946419527
 20
350.3822731929
 10
519.6747435498
 20
350.9865994571
 10
519.7957251352
 20
351.6416170052
 10
519.8564910807
 20
352.3413938969
 10
519.8564910807
 20
353.0795928443
 10
519.7957251352
 20
353.8495286034
 10
519.6747435498
 20
354.6442285167
 10
519.4946419527
 20
355.4564956588
 10
519.2570513717
 20
356.2789740126
 10
518.964123464
 20
357.1042150869
 10
518.61851103
 20
357.9247453706
 10
518.2233439894
 20
358.7331340144
 10
517.7822010363
 20
359.5220601257
 10
517.2990772294
 20
360.2843790673
 10
516.7783478128
 20
361.0131871609
 10
516.2247285928
 20
361.7018842075
 10
515.6432332306
 20
362.34423326
 10
515.0391278384
 20
362.934417106
 10
514.4178832881
 20
363.4670909491
 10
513.7851256666
 20
363.9374308125
 10
513.1465853248
 20
364.3411772257
  0
LINE
  5
153
330
1F
100
AcDbEntity
  8
0
  6
HIDDEN
 62
     7
370
    18
100
AcDbLine
 10
489.9534829019
 20
358.9521538373
 30
0.0
 11
492.7722166541
 21
357.3249334785
 31
0.0
  0
SPLINE
  5
154
330
1F
100
AcDbEntity
  8
0
  6
HIDDEN
 62
     7
370
    18
100
AcDbSpline
210
0.0
220
0.0
230
1.0
 70
     8
 71
     3
 72
    15
 73
    11
 74
     0
 42
0.00000001
 43
0.00000001
 40
0.0
 40
0.0
 40
0.0
 40
0.0
 40
0.0938619119213239
 40
0.1905981821452872
 40
0.2902481459593816
 40
0.3928477841625093
 40
0.4984300586615077
 40
0.6464827049572042
 40
0.8136594873948865
 40
1.0
 40
1.0
 40
1.0
 40
1.0
 10
497.4362297758539
 20
350.6317085275006
 30
0.0
 10
497.4787999655262
 20
350.6752329117471
 30
0.0
 10
497.5652439831156
 20
350.7636145390395
 30
0.0
 10
497.6903469861898
 20
350.9082973994289
 30
0.0
 10
497.8141248032475
 20
351.0645747847412
 30
0.0
 10
497.9356153862897
 20
351.2334641229124
 30
0.0
 10
498.0693359972847
 20
351.4374736170914
 30
0.0
 10
498.2167705852345
 20
351.690326219557
 30
0.0
 10
498.3796276762878
 20
352.0058239924714
 30
0.0
 10
498.4807923177498
 20
352.2408816651421
 30
0.0
 10
498.5341166427881
 20
352.3647815926178
 30
0.0
  0
LWPOLYLINE
  5
155
330
1F
100
AcDbEntity
  8
0
  6
HIDDEN
 62
     7
370
    18
100
AcDbPolyline
 90
       26
 70
   128
 43
0.0
 10
535.6205824205
 20
380.5273598579
 10
535.2934377359
 20
380.3104909556
 10
534.8982706954
 20
379.9583524652
 10
534.5526582614
 20
379.5368578041
 10
534.2597303537
 20
379.0498240932
 10
534.0221397727
 20
378.5016619851
 10
533.8420381756
 20
377.8973357209
 10
533.7210565902
 20
377.2423181728
 10
533.6602906446
 20
376.5425412811
 10
533.6602906446
 20
375.8043423338
 10
533.7210565902
 20
375.0344065747
 10
533.8420381756
 20
374.2397066614
 10
534.0221397727
 20
373.4274395193
 10
534.2597303537
 20
372.6049611654
 10
534.5526582614
 20
371.7797200912
 10
534.8982706954
 20
370.9591898075
 10
535.2934377359
 20
370.1508011636
 10
535.7345806891
 20
369.3618750524
 10
536.2177044959
 20
368.5995561108
 10
536.7384339125
 20
367.8707480172
 10
537.2920531326
 20
367.1820509706
 10
537.8735484948
 20
366.5397019181
 10
538.477653887
 20
365.9495180721
 10
539.0988984373
 20
365.416844229
 10
539.7316560588
 20
364.9465043655
 10
540.3701964005
 20
364.5427579524
  0
LWPOLYLINE
  5
156
330
1F
100
AcDbEntity
  8
0
  6
HIDDEN
 62
     7
370
    18
100
AcDbPolyline
 90
       34
 70
   128
 43
0.0
 10
513.1465853248
 20
364.3411772257
 10
512.5080449831
 20
364.6746737984
 10
511.8752873616
 20
364.9349003342
 10
511.2540428113
 20
365.1195001813
 10
510.6499374191
 20
365.2268015748
 10
510.0684420569
 20
365.2558327767
 10
509.5148228369
 20
365.2063308759
 10
508.9940934203
 20
365.0787441694
 10
508.5109696134
 20
364.874228102
 10
508.0698266602
 20
364.594634803
 10
507.6746596197
 20
364.2424963126
 10
507.3290471857
 20
363.8210016515
 10
507.036119278
 20
363.3339679406
 10
506.798528697
 20
362.7858058325
 10
506.6184270999
 20
362.1814795684
 10
506.4974455145
 20
361.5264620203
 10
506.4366795689
 20
360.8266851286
 10
506.4366795689
 20
360.0884861812
 10
506.4974455145
 20
359.3185504221
 10
506.6184270999
 20
358.5238505088
 10
506.798528697
 20
357.7115833667
 10
507.036119278
 20
356.8891050128
 10
507.3290471857
 20
356.0638639386
 10
507.6746596197
 20
355.2433336549
 10
508.0698266602
 20
354.434945011
 10
508.5109696134
 20
353.6460188998
 10
508.9940934203
 20
352.8836999582
 10
509.5148228369
 20
352.1548918646
 10
510.0684420569
 20
351.466194818
 10
510.6499374191
 20
350.8238457655
 10
511.2540428113
 20
350.2336619195
 10
511.8752873616
 20
349.7009880764
 10
512.5080449831
 20
349.2306482129
 10
513.1465853248
 20
348.8269017998
  0
ARC
  5
157
330
1F
100
AcDbEntity
  8
0
  6
HIDDEN
 62
     7
370
    18
100
AcDbCircle
 10
521.5173660465
 20
355.5690880513
 30
0.0
 40
1.314790138971727
100
AcDbArc
 50
171.3146750033
 51
308.674573242
  0
LINE
  5
158
330
1F
100
AcDbEntity
  8
0
  6
HIDDEN
 62
     7
370
    18
100
AcDbLine
 10
544.9663904782
 20
372.5043957935
 30
0.0
 11
544.9663904782
 21
370.0438411922
 31
0.0
  0
LINE
  5
159
330
1F
100
AcDbEntity
  8
0
  6
HIDDEN
 62
     7
370
    18
100
AcDbLine
 10
522.3389734803
 20
354.542621133
 30
0.0
 11
526.5973585639
 21
357.0009345151
 31
0.0
  0
LINE
  5
15A
330
1F
100
AcDbEntity
  8
0
  6
HIDDEN
 62
     7
370
    18
100
AcDbLine
 10
544.9663904782
 20
372.5043957935
 30
0.0
 11
522.3389734803
 21
359.4418660043
 31
0.0
  0
ARC
  5
15B
330
1F
100
AcDbEntity
  8
0
  6
HIDDEN
 62
     7
370
    18
100
AcDbCircle
 10
524.8038362364
 20
355.5692870852
 30
0.0
 40
4.590470116602719
100
AcDbArc
 50
122.4763978922
 51
177.5236019622
  0
LINE
  5
15C
330
1F
100
AcDbEntity
  8
0
  6
HIDDEN
 62
     7
370
    18
100
AcDbLine
 10
546.7237497911
 20
371.4898938564
 30
0.0
 11
544.9663904782
 21
372.5043957935
 31
0.0
  0
LWPOLYLINE
  5
15D
330
1F
100
AcDbEntity
  8
0
  6
HIDDEN
 62
     7
370
    18
100
AcDbPolyline
 90
       33
 70
   128
 43
0.0
 10
540.7237497911
 20
379.8528650003
 10
540.0999725297
 20
380.1775771436
 10
539.4822025843
 20
380.428388522
 10
538.8763894173
 20
380.6028836849
 10
538.2883673405
 20
380.6993821483
 10
537.723799328
 20
380.7169545794
 10
537.1881224784
 20
380.655431746
 10
536.6864956526
 20
380.5154061467
 10
536.2237497911
 20
380.2982263045
 10
535.8043413896
 20
380.00598378
 10
535.4323095802
 20
379.6414930284
 10
535.1112372327
 20
379.2082642951
 10
534.8442164492
 20
378.7104698094
 10
534.6338187858
 20
378.1529036045
 10
534.4820704872
 20
377.5409353476
 10
534.3904329722
 20
376.8804586276
 10
534.3597887604
 20
376.1778341965
 10
534.3904329722
 20
375.4398287115
 10
534.4820704872
 20
374.6735495689
 10
534.6338187858
 20
373.8863764557
 10
534.8442164492
 20
373.0858902794
 10
535.1112372327
 20
372.2798001593
 10
535.4323095802
 20
371.4758691841
 10
535.8043413896
 20
370.6818396484
 10
536.2237497911
 20
369.9053584909
 10
536.6864956526
 20
369.1539036494
 10
537.1881224784
 20
368.4347120448
 10
537.723799328
 20
367.7547098856
 10
538.2883673405
 20
367.1204459642
 10
538.8763894173
 20
366.5380285889
 10
539.4822025843
 20
366.0130667574
 10
540.0999725297
 20
365.5506161391
 10
540.7237497911
 20
365.1551303863
  0
LWPOLYLINE
  5
15E
330
1F
100
AcDbEntity
  8
0
  6
HIDDEN
 62
     7
370
    18
100
AcDbPolyline
 90
       13
 70
   128
 43
0.0
 10
540.7237497911
 20
365.1551303863
 10
541.3754203169
 20
364.8175598729
 10
542.0202395552
 20
364.5608001278
 10
542.6514282488
 20
364.3875505747
 10
543.2623504443
 20
364.2996326593
 10
543.8465832586
 20
364.2979706999
 10
544.3979844053
 20
364.3825821694
 10
544.9107567711
 20
364.5525775115
 10
545.3795093635
 20
364.8061694935
 10
545.7993139885
 20
365.1406919957
 10
546.1657570626
 20
365.5526280417
 10
546.474986015
 20
366.0376467738
 10
546.7237497911
 20
366.5906489851
  0
LINE
  5
15F
330
1F
100
AcDbEntity
  8
0
  6
HIDDEN
 62
     7
370
    18
100
AcDbLine
 10
476.7305860937
 20
324.9482251796
 30
0.0
 11
476.7305860937
 21
325.7646332914
 31
0.0
  0
LINE
  5
160
330
1F
100
AcDbEntity
  8
0
  6
HIDDEN
 62
     7
370
    18
100
AcDbLine
 10
474.2448171153
 20
320.2704956138
 30
0.0
 11
509.6001561746
 21
340.6806984094
 31
0.0
  0
LINE
  5
161
330
1F
100
AcDbEntity
  8
0
  6
HIDDEN
 62
     7
370
    18
100
AcDbLine
 10
497.601131383
 20
361.4658711065
 30
0.0
 11
462.2457923237
 21
341.0556683109
 31
0.0
  0
LINE
  5
162
330
1F
100
AcDbEntity
  8
0
  6
HIDDEN
 62
     7
370
    18
100
AcDbLine
 10
483.5598458157
 20
326.6632308781
 30
0.0
 11
487.2872085297
 21
317.0563409221
 31
0.0
  0
LINE
  5
163
330
1F
100
AcDbEntity
  8
0
  6
HIDDEN
 62
     7
370
    18
100
AcDbLine
 10
491.9486478953
 20
318.864926845
 30
0.0
 11
488.2212858465
 21
328.4718150865
 31
0.0
  0
LINE
  5
164
330
1F
100
AcDbEntity
  8
0
  6
HIDDEN
 62
     7
370
    18
100
AcDbLine
 10
472.1114982257
 20
346.8296032361
 30
0.0
 11
467.0695198355
 21
349.7402754053
 31
0.0
  0
LINE
  5
165
330
1F
100
AcDbEntity
  8
0
  6
HIDDEN
 62
     7
370
    18
100
AcDbLine
 10
508.600237442
 20
342.4127961341
 30
0.0
 11
510.0144510044
 21
343.229204246
 31
0.0
  0
LINE
  5
166
330
1F
100
AcDbEntity
  8
0
  6
HIDDEN
 62
     7
370
    18
100
AcDbLine
 10
464.5697213808
 20
345.4100320304
 30
0.0
 11
469.6117013941
 21
342.4993589242
 31
0.0
  0
LINE
  5
167
330
1F
100
AcDbEntity
  8
0
  6
HIDDEN
 62
     7
370
    18
100
AcDbLine
 10
500.015263678
 20
360.5501814936
 30
0.0
 11
498.6010501156
 21
359.7337733817
 31
0.0
  0
LINE
  5
168
330
1F
100
AcDbEntity
  8
0
  6
HIDDEN
 62
     7
370
    18
100
AcDbLine
 10
517.8961993049
 20
348.3565753201
 30
0.0
 11
527.5406337162
 21
353.9241887958
 31
0.0
  0
LINE
  5
169
330
1F
100
AcDbEntity
  8
0
  6
HIDDEN
 62
     7
370
    18
100
AcDbLine
 10
499.4512753582
 20
358.4256023538
 30
0.0
 11
489.6811125573
 21
364.0657972838
 31
0.0
  0
LINE
  5
16A
330
1F
100
AcDbEntity
  8
0
  6
HIDDEN
 62
     7
370
    18
100
AcDbLine
 10
484.681515158
 20
355.4053108168
 30
0.0
 11
489.5750064139
 21
352.5803584456
 31
0.0
  0
LINE
  5
16B
330
1F
100
AcDbEntity
  8
0
  6
HIDDEN
 62
     7
370
    18
100
AcDbLine
 10
518.0414057562
 20
370.3791171811
 30
0.0
 11
508.3969713448
 21
364.8115037054
 31
0.0
  0
LINE
  5
16C
330
1F
100
AcDbEntity
  8
0
  6
HIDDEN
 62
     7
370
    18
100
AcDbLine
 10
520.8390953813
 20
354.3940969815
 30
0.0
 11
523.1443309595
 21
353.0633128087
 31
0.0
  0
ENDSEC
  0
SECTION
  2
OBJECTS
  0
DICTIONARY
  5
C
330
0
100
AcDbDictionary
281
     1
  3
ACAD_GROUP
350
D
  3
ACAD_LAYOUT
350
1A
  3
ACAD_MLINESTYLE
350
17
  3
ACAD_PLOTSETTINGS
350
19
  3
ACAD_PLOTSTYLENAME
350
E
  3
ACAD_SCALELIST
350
47
  3
DWGPROPS
350
16D
  0
DICTIONARY
  5
D
102
{ACAD_REACTORS
330
C
102
}
330
C
100
AcDbDictionary
281
     1
  0
DICTIONARY
  5
1A
102
{ACAD_REACTORS
330
C
102
}
330
C
100
AcDbDictionary
281
     1
  3
Layout1
350
1E
  3
Layout2
350
26
  3
Model
350
22
  0
DICTIONARY
  5
17
102
{ACAD_REACTORS
330
C
102
}
330
C
100
AcDbDictionary
281
     1
  3
Standard
350
18
  0
DICTIONARY
  5
19
102
{ACAD_REACTORS
330
C
102
}
330
C
100
AcDbDictionary
281
     1
  0
ACDBDICTIONARYWDFLT
  5
E
102
{ACAD_REACTORS
330
C
102
}
330
C
100
AcDbDictionary
281
     1
  3
Normal
350
F
100
AcDbDictionaryWithDefault
340
F
  0
DICTIONARY
  5
47
102
{ACAD_REACTORS
330
C
102
}
330
C
100
AcDbDictionary
281
     1
  3
A0
350
48
  3
A1
350
49
  3
A2
350
4A
  3
A3
350
4B
  3
A4
350
4C
  3
A5
350
4D
  3
A6
350
4E
  3
A7
350
4F
  3
A8
350
50
  3
A9
350
51
  3
B0
350
52
  3
B1
350
53
  3
B2
350
54
  3
B3
350
55
  3
B4
350
56
  3
B5
350
57
  3
B6
350
58
  0
XRECORD
  5
16D
102
{ACAD_REACTORS
330
C
102
}
330
C
100
AcDbXrecord
280
     1
  1
DWGPROPS COOKIE
  2

  3

  4

  6

  7

  8
imaizumi
  9

300
=
301
=
302
=
303
=
304
=
305
=
306
=
307
=
308
=
309
=
 40
0.0
 41
2461263.072178681
 42
2461263.072179306
  1

 90
        0
  0
LAYOUT
  5
1E
102
{ACAD_REACTORS
330
1A
102
}
330
1A
100
AcDbPlotSettings
  1

  2
none_device
  4

  6

 40
0.0
 41
0.0
 42
0.0
 43
0.0
 44
0.0
 45
0.0
 46
0.0
 47
0.0
 48
0.0
 49
0.0
140
0.0
141
0.0
142
1.0
143
1.0
 70
   688
 72
     1
 73
     0
 74
     5
  7

 75
    16
147
1.0
148
0.0
149
0.0
100
AcDbLayout
  1
Layout1
 70
     1
 71
     1
 10
0.0
 20
0.0
 11
420.0
 21
297.0
 12
0.0
 22
0.0
 32
0.0
 14
1.0000000000E+20
 24
1.0000000000E+20
 34
1.0000000000E+20
 15
-1.0000000000E+20
 25
-1.0000000000E+20
 35
-1.0000000000E+20
146
0.0
 13
0.0
 23
0.0
 33
0.0
 16
1.0
 26
0.0
 36
0.0
 17
0.0
 27
1.0
 37
0.0
 76
     0
330
1B
  0
LAYOUT
  5
26
102
{ACAD_REACTORS
330
1A
102
}
330
1A
100
AcDbPlotSettings
  1

  2
none_device
  4

  6

 40
0.0
 41
0.0
 42
0.0
 43
0.0
 44
0.0
 45
0.0
 46
0.0
 47
0.0
 48
0.0
 49
0.0
140
0.0
141
0.0
142
1.0
143
1.0
 70
   688
 72
     1
 73
     0
 74
     5
  7

 75
    16
147
1.0
148
0.0
149
0.0
100
AcDbLayout
  1
Layout2
 70
     1
 71
     2
 10
0.0
 20
0.0
 11
0.0
 21
0.0
 12
0.0
 22
0.0
 32
0.0
 14
0.0
 24
0.0
 34
0.0
 15
0.0
 25
0.0
 35
0.0
146
0.0
 13
0.0
 23
0.0
 33
0.0
 16
1.0
 26
0.0
 36
0.0
 17
0.0
 27
1.0
 37
0.0
 76
     0
330
23
  0
LAYOUT
  5
22
102
{ACAD_REACTORS
330
1A
102
}
330
1A
100
AcDbPlotSettings
  1

  2
none_device
  4
Letter_(8.50_x_11.00_Inches)
  6

 40
6.35
 41
6.35
 42
6.35000508
 43
6.35000508
 44
215.9
 45
279.4
 46
0.0
 47
0.0
 48
0.0
 49
0.0
140
0.0
141
0.0
142
1.0
143
1.0
 70
  1712
 72
     1
 73
     0
 74
     0
  7

 75
     0
147
1.0
148
0.0
149
0.0
100
AcDbLayout
  1
Model
 70
     1
 71
     0
 10
0.0
 20
0.0
 11
841.0
 21
594.0
 12
0.0
 22
0.0
 32
0.0
 14
0.0
 24
0.0
 34
0.0
 15
841.0
 25
594.0
 35
0.0
146
0.0
 13
0.0
 23
0.0
 33
0.0
 16
1.0
 26
0.0
 36
0.0
 17
0.0
 27
1.0
 37
0.0
 76
     0
330
1F
331
29
  0
MLINESTYLE
  5
18
102
{ACAD_REACTORS
330
17
102
}
330
17
100
AcDbMlineStyle
  2
Standard
 70
     0
  3

 62
   256
 51
90.0
 52
90.0
 71
     2
 49
0.5
 62
   256
  6
BYLAYER
 49
-0.5
 62
   256
  6
BYLAYER
  0
ACDBPLACEHOLDER
  5
F
102
{ACAD_REACTORS
330
E
102
}
330
E
  0
SCALE
  5
48
102
{ACAD_REACTORS
330
47
102
}
330
47
100
AcDbScale
 70
     0
300
1:1
140
1.0
141
1.0
290
     1
  0
SCALE
  5
49
102
{ACAD_REACTORS
330
47
102
}
330
47
100
AcDbScale
 70
     0
300
1:2
140
1.0
141
2.0
290
     0
  0
SCALE
  5
4A
102
{ACAD_REACTORS
330
47
102
}
330
47
100
AcDbScale
 70
     0
300
1:4
140
1.0
141
4.0
290
     0
  0
SCALE
  5
4B
102
{ACAD_REACTORS
330
47
102
}
330
47
100
AcDbScale
 70
     0
300
1:5
140
1.0
141
5.0
290
     0
  0
SCALE
  5
4C
102
{ACAD_REACTORS
330
47
102
}
330
47
100
AcDbScale
 70
     0
300
1:8
140
1.0
141
8.0
290
     0
  0
SCALE
  5
4D
102
{ACAD_REACTORS
330
47
102
}
330
47
100
AcDbScale
 70
     0
300
1:10
140
1.0
141
10.0
290
     0
  0
SCALE
  5
4E
102
{ACAD_REACTORS
330
47
102
}
330
47
100
AcDbScale
 70
     0
300
1:16
140
1.0
141
16.0
290
     0
  0
SCALE
  5
4F
102
{ACAD_REACTORS
330
47
102
}
330
47
100
AcDbScale
 70
     0
300
1:20
140
1.0
141
20.0
290
     0
  0
SCALE
  5
50
102
{ACAD_REACTORS
330
47
102
}
330
47
100
AcDbScale
 70
     0
300
1:30
140
1.0
141
30.0
290
     0
  0
SCALE
  5
51
102
{ACAD_REACTORS
330
47
102
}
330
47
100
AcDbScale
 70
     0
300
1:40
140
1.0
141
40.0
290
     0
  0
SCALE
  5
52
102
{ACAD_REACTORS
330
47
102
}
330
47
100
AcDbScale
 70
     0
300
1:50
140
1.0
141
50.0
290
     0
  0
SCALE
  5
53
102
{ACAD_REACTORS
330
47
102
}
330
47
100
AcDbScale
 70
     0
300
1:100
140
1.0
141
100.0
290
     0
  0
SCALE
  5
54
102
{ACAD_REACTORS
330
47
102
}
330
47
100
AcDbScale
 70
     0
300
2:1
140
2.0
141
1.0
290
     0
  0
SCALE
  5
55
102
{ACAD_REACTORS
330
47
102
}
330
47
100
AcDbScale
 70
     0
300
4:1
140
4.0
141
1.0
290
     0
  0
SCALE
  5
56
102
{ACAD_REACTORS
330
47
102
}
330
47
100
AcDbScale
 70
     0
300
8:1
140
8.0
141
1.0
290
     0
  0
SCALE
  5
57
102
{ACAD_REACTORS
330
47
102
}
330
47
100
AcDbScale
 70
     0
300
10:1
140
10.0
141
1.0
290
     0
  0
SCALE
  5
58
102
{ACAD_REACTORS
330
47
102
}
330
47
100
AcDbScale
 70
     0
300
100:1
140
100.0
141
1.0
290
     0
  0
ENDSEC
  0
EOF
