  0
SECTION
  2
HEADER
  9
$ACADVER
  1
AC1015
  9
$ACADMAINTVER
 70
     6
  9
$DWGCODEPAGE
  3
DOS932
  9
$INSBASE
 10
0.0
 20
0.0
 30
0.0
  9
$EXTMIN
 10
0.0
 20
0.0
 30
0.0
  9
$EXTMAX
 10
841.0
 20
594.0
 30
0.0
  9
$LIMMIN
 10
0.0
 20
0.0
  9
$LIMMAX
 10
841.0
 20
594.0
  9
$ORTHOMODE
 70
     0
  9
$REGENMODE
 70
     1
  9
$FILLMODE
 70
     1
  9
$QTEXTMODE
 70
     0
  9
$MIRRTEXT
 70
     1
  9
$LTSCALE
 40
1.0
  9
$ATTMODE
 70
     1
  9
$TEXTSIZE
 40
3.5
  9
$TRACEWID
 40
1.0
  9
$TEXTSTYLE
  7
Standard
  9
$CLAYER
  8
0
  9
$CELTYPE
  6
ByLayer
  9
$CECOLOR
 62
   256
  9
$CELTSCALE
 40
1.0
  9
$DISPSILH
 70
     0
  9
$DIMSCALE
 40
1.0
  9
$DIMASZ
 40
3.302
  9
$DIMEXO
 40
1.0
  9
$DIMDLI
 40
3.75
  9
$DIMRND
 40
0.0
  9
$DIMDLE
 40
0.0
  9
$DIMEXE
 40
1.0
  9
$DIMTP
 40
0.0
  9
$DIMTM
 40
0.0
  9
$DIMTXT
 40
3.5
  9
$DIMCEN
 40
2.5
  9
$DIMTSZ
 40
0.0
  9
$DIMTOL
 70
     0
  9
$DIMLIM
 70
     0
  9
$DIMTIH
 70
     1
  9
$DIMTOH
 70
     1
  9
$DIMSE1
 70
     0
  9
$DIMSE2
 70
     0
  9
$DIMTAD
 70
     1
  9
$DIMZIN
 70
     1
  9
$DIMBLK
  1

  9
$DIMASO
 70
     1
  9
$DIMSHO
 70
     1
  9
$DIMPOST
  1

  9
$DIMAPOST
  1

  9
$DIMALT
 70
     0
  9
$DIMALTD
 70
     3
  9
$DIMALTF
 40
0.0393700787
  9
$DIMLFAC
 40
0.2
  9
$DIMTOFL
 70
     1
  9
$DIMTVP
 40
0.0
  9
$DIMTIX
 70
     0
  9
$DIMSOXD
 70
     0
  9
$DIMSAH
 70
     0
  9
$DIMBLK1
  1

  9
$DIMBLK2
  1

  9
$DIMSTYLE
  2
ISO-25
  9
$DIMCLRD
 70
     0
  9
$DIMCLRE
 70
     0
  9
$DIMCLRT
 70
     0
  9
$DIMTFAC
 40
1.0
  9
$DIMGAP
 40
1.524
  9
$DIMJUST
 70
     0
  9
$DIMSD1
 70
     0
  9
$DIMSD2
 70
     0
  9
$DIMTOLJ
 70
     0
  9
$DIMTZIN
 70
     1
  9
$DIMALTZ
 70
     0
  9
$DIMALTTZ
 70
     0
  9
$DIMUPT
 70
     0
  9
$DIMDEC
 70
     2
  9
$DIMTDEC
 70
     2
  9
$DIMALTU
 70
     2
  9
$DIMALTTD
 70
     3
  9
$DIMTXSTY
  7
Standard
  9
$DIMAUNIT
 70
     0
  9
$DIMADEC
 70
     2
  9
$DIMALTRND
 40
0.0
  9
$DIMAZIN
 70
     0
  9
$DIMDSEP
 70
    44
  9
$DIMATFIT
 70
     3
  9
$DIMFRAC
 70
     0
  9
$DIMLDRBLK
  1

  9
$DIMLUNIT
 70
     2
  9
$DIMLWD
 70
    -2
  9
$DIMLWE
 70
    -2
  9
$DIMTMOVE
 70
     0
  9
$LUNITS
 70
     2
  9
$LUPREC
 70
     2
  9
$SKETCHINC
 40
1.0
  9
$FILLETRAD
 40
0.0
  9
$AUNITS
 70
     0
  9
$AUPREC
 70
     2
  9
$MENU
  1
.
  9
$ELEVATION
 40
0.0
  9
$PELEVATION
 40
0.0
  9
$THICKNESS
 40
0.0
  9
$LIMCHECK
 70
     0
  9
$CHAMFERA
 40
0.0
  9
$CHAMFERB
 40
0.0
  9
$CHAMFERC
 40
0.0
  9
$CHAMFERD
 40
0.0
  9
$SKPOLY
 70
     0
  9
$TDCREATE
 40
2461263.381209653
  9
$TDUCREATE
 40
2461263.006209653
  9
$TDUPDATE
 40
2461263.381209954
  9
$TDUUPDATE
 40
2461263.006209954
  9
$TDINDWG
 40
0.0000000116
  9
$TDUSRTIMER
 40
0.0000000116
  9
$USRTIMER
 70
     1
  9
$ANGBASE
 50
0.0
  9
$ANGDIR
 70
     0
  9
$PDMODE
 70
     0
  9
$PDSIZE
 40
-1.0
  9
$PLINEWID
 40
0.0
  9
$SPLFRAME
 70
     0
  9
$SPLINETYPE
 70
     6
  9
$SPLINESEGS
 70
     8
  9
$HANDSEED
  5
98
  9
$SURFTAB1
 70
     6
  9
$SURFTAB2
 70
     6
  9
$SURFTYPE
 70
     6
  9
$SURFU
 70
     6
  9
$SURFV
 70
     6
  9
$UCSBASE
  2

  9
$UCSNAME
  2

  9
$UCSORG
 10
0.0
 20
0.0
 30
0.0
  9
$UCSXDIR
 10
1.0
 20
0.0
 30
0.0
  9
$UCSYDIR
 10
0.0
 20
1.0
 30
0.0
  9
$UCSORTHOREF
  2

  9
$UCSORTHOVIEW
 70
     0
  9
$UCSORGTOP
 10
0.0
 20
0.0
 30
0.0
  9
$UCSORGBOTTOM
 10
0.0
 20
0.0
 30
0.0
  9
$UCSORGLEFT
 10
0.0
 20
0.0
 30
0.0
  9
$UCSORGRIGHT
 10
0.0
 20
0.0
 30
0.0
  9
$UCSORGFRONT
 10
0.0
 20
0.0
 30
0.0
  9
$UCSORGBACK
 10
0.0
 20
0.0
 30
0.0
  9
$PUCSBASE
  2

  9
$PUCSNAME
  2

  9
$PUCSORG
 10
0.0
 20
0.0
 30
0.0
  9
$PUCSXDIR
 10
1.0
 20
0.0
 30
0.0
  9
$PUCSYDIR
 10
0.0
 20
1.0
 30
0.0
  9
$PUCSORTHOREF
  2

  9
$PUCSORTHOVIEW
 70
     0
  9
$PUCSORGTOP
 10
0.0
 20
0.0
 30
0.0
  9
$PUCSORGBOTTOM
 10
0.0
 20
0.0
 30
0.0
  9
$PUCSORGLEFT
 10
0.0
 20
0.0
 30
0.0
  9
$PUCSORGRIGHT
 10
0.0
 20
0.0
 30
0.0
  9
$PUCSORGFRONT
 10
0.0
 20
0.0
 30
0.0
  9
$PUCSORGBACK
 10
0.0
 20
0.0
 30
0.0
  9
$USERI1
 70
     0
  9
$USERI2
 70
     0
  9
$USERI3
 70
     0
  9
$USERI4
 70
     0
  9
$USERI5
 70
     0
  9
$USERR1
 40
0.0
  9
$USERR2
 40
0.0
  9
$USERR3
 40
0.0
  9
$USERR4
 40
0.0
  9
$USERR5
 40
0.0
  9
$WORLDVIEW
 70
     1
  9
$SHADEDGE
 70
     3
  9
$SHADEDIF
 70
    70
  9
$TILEMODE
 70
     1
  9
$MAXACTVP
 70
    64
  9
$PINSBASE
 10
0.0
 20
0.0
 30
0.0
  9
$PLIMCHECK
 70
     0
  9
$PEXTMIN
 10
1.0000000000E+20
 20
1.0000000000E+20
 30
1.0000000000E+20
  9
$PEXTMAX
 10
-1.0000000000E+20
 20
-1.0000000000E+20
 30
-1.0000000000E+20
  9
$PLIMMIN
 10
0.0
 20
0.0
  9
$PLIMMAX
 10
420.0
 20
297.0
  9
$UNITMODE
 70
     0
  9
$VISRETAIN
 70
     1
  9
$PLINEGEN
 70
     0
  9
$PSLTSCALE
 70
     1
  9
$TREEDEPTH
 70
  3020
  9
$CMLSTYLE
  2
Standard
  9
$CMLJUST
 70
     0
  9
$CMLSCALE
 40
20.0
  9
$PROXYGRAPHICS
 70
     1
  9
$MEASUREMENT
 70
     1
  9
$CELWEIGHT
370
    -1
  9
$ENDCAPS
280
     0
  9
$JOINSTYLE
280
     0
  9
$LWDISPLAY
290
     1
  9
$INSUNITS
 70
     4
  9
$HYPERLINKBASE
  1

  9
$STYLESHEET
  1

  9
$XEDIT
290
     1
  9
$CEPSNTYPE
380
     0
  9
$PSTYLEMODE
290
     1
  9
$FINGERPRINTGUID
  2
{74d825a1-f3f2-4f9b-93c7-f3199a8d7b7b}
  9
$VERSIONGUID
  2
{FAEB1C32-E019-11D5-929B-00C0DF256EC4}
  9
$EXTNAMES
290
     1
  9
$PSVPSCALE
 40
0.0
  9
$OLESTARTUP
290
     0
  0
ENDSEC
  0
SECTION
  2
CLASSES
  0
CLASS
  1
ACDBDICTIONARYWDFLT
  2
AcDbDictionaryWithDefault
  3
ObjectDBX Classes
 90
        0
280
     0
281
     0
  0
CLASS
  1
VISUALSTYLE
  2
AcDbVisualStyle
  3
ObjectDBX Classes
 90
     4095
280
     0
281
     0
  0
CLASS
  1
MATERIAL
  2
AcDbMaterial
  3
ObjectDBX Classes
 90
     1153
280
     0
281
     0
  0
CLASS
  1
SCALE
  2
AcDbScale
  3
ObjectDBX Classes
 90
     1153
280
     0
281
     0
  0
CLASS
  1
TABLESTYLE
  2
AcDbTableStyle
  3
ObjectDBX Classes
 90
     4095
280
     0
281
     0
  0
CLASS
  1
MLEADERSTYLE
  2
AcDbMLeaderStyle
  3
ACDB_MLEADERSTYLE_CLASS
 90
     4095
280
     0
281
     0
  0
CLASS
  1
SUN
  2
AcDbSun
  3
SCENEOE
 90
     1153
280
     0
281
     0
  0
CLASS
  1
ACDBPLACEHOLDER
  2
AcDbPlaceHolder
  3
ObjectDBX Classes
 90
        0
280
     0
281
     0
  0
CLASS
  1
LAYOUT
  2
AcDbLayout
  3
ObjectDBX Classes
 90
        0
280
     0
281
     0
  0
ENDSEC
  0
SECTION
  2
TABLES
  0
TABLE
  2
VPORT
  5
8
330
0
100
AcDbSymbolTable
 70
     1
  0
VPORT
  5
29
330
8
100
AcDbSymbolTableRecord
100
AcDbViewportTableRecord
  2
*Active
 70
     0
 10
0.0
 20
0.0
 11
1.0
 21
1.0
 12
420.5
 22
297.0
 13
0.0
 23
0.0
 14
10.0
 24
10.0
 15
10.0
 25
10.0
 16
0.0
 26
0.0
 36
1.0
 17
0.0
 27
0.0
 37
0.0
 40
594.0
 41
1.4158249158
 42
50.0
 43
0.0
 44
0.0
 50
0.0
 51
0.0
 71
     0
 72
  2000
 73
     1
 74
     3
 75
     0
 76
     0
 77
     0
 78
     0
281
     0
 65
     1
110
0.0
120
0.0
130
0.0
111
1.0
121
0.0
131
0.0
112
0.0
122
1.0
132
0.0
 79
     0
146
0.0
  0
ENDTAB
  0
TABLE
  2
LTYPE
  5
5
330
0
100
AcDbSymbolTable
 70
     6
  0
LTYPE
  5
14
330
5
100
AcDbSymbolTableRecord
100
AcDbLinetypeTableRecord
  2
ByBlock
 70
     0
  3

 72
    65
 73
     0
 40
0.0
  0
LTYPE
  5
15
330
5
100
AcDbSymbolTableRecord
100
AcDbLinetypeTableRecord
  2
ByLayer
 70
     0
  3

 72
    65
 73
     0
 40
0.0
  0
LTYPE
  5
16
330
5
100
AcDbSymbolTableRecord
100
AcDbLinetypeTableRecord
  2
Continuous
 70
     0
  3
Solid line
 72
    65
 73
     0
 40
0.0
  0
LTYPE
  5
5E
330
5
100
AcDbSymbolTableRecord
100
AcDbLinetypeTableRecord
  2
HIDDEN
 70
     0
  3
Hidden __ __ __ __ __ __ __ __ __ __ __ __ __ __
 72
    65
 73
     2
 40
1.905
 49
1.27
 74
     0
 49
-0.635
 74
     0
  0
LTYPE
  5
5F
330
5
100
AcDbSymbolTableRecord
100
AcDbLinetypeTableRecord
  2
PHANTOM
 70
     0
  3
Phantom ______  __  __  ______  __  __  ______
 72
    65
 73
     6
 40
12.7
 49
6.35
 74
     0
 49
-1.27
 74
     0
 49
1.27
 74
     0
 49
-1.27
 74
     0
 49
1.27
 74
     0
 49
-1.27
 74
     0
  0
LTYPE
  5
60
330
5
100
AcDbSymbolTableRecord
100
AcDbLinetypeTableRecord
  2
CENTER
 70
     0
  3
Center ____ _ ____ _ ____ _ ____ _ ____ _ ____
 72
    65
 73
     4
 40
10.16
 49
6.35
 74
     0
 49
-1.27
 74
     0
 49
1.27
 74
     0
 49
-1.27
 74
     0
  0
LTYPE
  5
61
330
5
100
AcDbSymbolTableRecord
100
AcDbLinetypeTableRecord
  2
CENTERX2
 70
     0
  3
Center (2x) ________  __  ________  __  _____
 72
    65
 73
     4
 40
20.32
 49
12.7
 74
     0
 49
-2.54
 74
     0
 49
2.54
 74
     0
 49
-2.54
 74
     0
  0
LTYPE
  5
62
330
5
100
AcDbSymbolTableRecord
100
AcDbLinetypeTableRecord
  2
DOT2
 70
     0
  3
Dot (.5x) ........................................
 72
    65
 73
     2
 40
0.635
 49
0.0
 74
     0
 49
-0.635
 74
     0
  0
ENDTAB
  0
TABLE
  2
LAYER
  5
2
330
0
100
AcDbSymbolTable
 70
     1
  0
LAYER
  5
10
330
2
100
AcDbSymbolTableRecord
100
AcDbLayerTableRecord
  2
0
 70
     0
 62
     7
  6
Continuous
370
    -3
390
F
  0
ENDTAB
  0
TABLE
  2
STYLE
  5
3
330
0
100
AcDbSymbolTable
 70
     1
  0
STYLE
  5
11
330
3
100
AcDbSymbolTableRecord
100
AcDbTextStyleTableRecord
  2
Standard
 70
     0
 40
0.0
 41
1.0
 50
0.0
 71
     0
 42
3.5
  3
txt
  4
bigfont
  0
ENDTAB
  0
TABLE
  2
VIEW
  5
6
330
0
100
AcDbSymbolTable
 70
     0
  0
ENDTAB
  0
TABLE
  2
UCS
  5
7
330
0
100
AcDbSymbolTable
 70
     0
  0
ENDTAB
  0
TABLE
  2
APPID
  5
9
330
0
100
AcDbSymbolTable
 70
     1
  0
APPID
  5
12
330
9
100
AcDbSymbolTableRecord
100
AcDbRegAppTableRecord
  2
ACAD
 70
     0
  0
ENDTAB
  0
TABLE
  2
DIMSTYLE
  5
A
330
0
100
AcDbSymbolTable
 70
     1
100
AcDbDimStyleTable
  0
DIMSTYLE
105
27
330
A
100
AcDbSymbolTableRecord
100
AcDbDimStyleTableRecord
  2
ISO-25
 70
     0
 41
2.5
 42
0.625
 43
3.75
 44
1.25
 73
     0
 74
     0
 77
     1
 78
     8
140
2.5
141
2.5
143
0.0393700787
147
0.625
171
     3
172
     1
178
     0
271
     2
272
     2
274
     3
278
    44
283
     0
284
     8
340
11
  0
ENDTAB
  0
TABLE
  2
BLOCK_RECORD
  5
1
330
0
100
AcDbSymbolTable
 70
     1
  0
BLOCK_RECORD
  5
1F
330
1
100
AcDbSymbolTableRecord
100
AcDbBlockTableRecord
  2
*Model_Space
340
22
  0
BLOCK_RECORD
  5
1B
330
1
100
AcDbSymbolTableRecord
100
AcDbBlockTableRecord
  2
*Paper_Space
340
1E
  0
BLOCK_RECORD
  5
23
330
1
100
AcDbSymbolTableRecord
100
AcDbBlockTableRecord
  2
*Paper_Space0
340
26
  0
ENDTAB
  0
ENDSEC
  0
SECTION
  2
BLOCKS
  0
BLOCK
  5
20
330
1F
100
AcDbEntity
  8
0
100
AcDbBlockBegin
  2
*Model_Space
 70
     0
 10
0.0
 20
0.0
 30
0.0
  3
*Model_Space
  1

  0
ENDBLK
  5
21
330
1F
100
AcDbEntity
  8
0
100
AcDbBlockEnd
  0
BLOCK
  5
1C
330
1B
100
AcDbEntity
 67
     1
  8
0
100
AcDbBlockBegin
  2
*Paper_Space
 70
     0
 10
0.0
 20
0.0
 30
0.0
  3
*Paper_Space
  1

  0
ENDBLK
  5
1D
330
1B
100
AcDbEntity
 67
     1
  8
0
100
AcDbBlockEnd
  0
BLOCK
  5
24
330
23
100
AcDbEntity
  8
0
100
AcDbBlockBegin
  2
*Paper_Space0
 70
     0
 10
0.0
 20
0.0
 30
0.0
  3
*Paper_Space0
  1

  0
ENDBLK
  5
25
330
23
100
AcDbEntity
  8
0
100
AcDbBlockEnd
  0
ENDSEC
  0
SECTION
  2
ENTITIES
  0
ARC
  5
63
330
1F
100
AcDbEntity
  8
0
  6
Continuous
 62
     7
370
    25
100
AcDbCircle
 10
369.528116908
 20
234.5015110051
 30
0.0
 40
24.00000000000006
100
AcDbArc
 50
0.0
 51
180.0
  0
ARC
  5
64
330
1F
100
AcDbEntity
  8
0
  6
Continuous
 62
     7
370
    25
100
AcDbCircle
 10
361.528116908
 20
234.5015110051
 30
0.0
 40
3.300000000000011
100
AcDbArc
 50
180.0
 51
0.0
  0
ARC
  5
65
330
1F
100
AcDbEntity
  8
0
  6
Continuous
 62
     7
370
    25
100
AcDbCircle
 10
377.528116908
 20
234.5015110051
 30
0.0
 40
3.300000000000011
100
AcDbArc
 50
180.0
 51
0.0
  0
ARC
  5
66
330
1F
100
AcDbEntity
  8
0
  6
Continuous
 62
     7
370
    25
100
AcDbCircle
 10
369.528116908
 20
234.5015110051
 30
0.0
 40
24.00000000000006
100
AcDbArc
 50
180.0
 51
0.0
  0
ARC
  5
67
330
1F
100
AcDbEntity
  8
0
  6
Continuous
 62
     7
370
    25
100
AcDbCircle
 10
361.528116908
 20
234.5015110051
 30
0.0
 40
3.300000000000011
100
AcDbArc
 50
0.0
 51
180.0
  0
ARC
  5
68
330
1F
100
AcDbEntity
  8
0
  6
Continuous
 62
     7
370
    25
100
AcDbCircle
 10
377.528116908
 20
234.5015110051
 30
0.0
 40
3.300000000000011
100
AcDbArc
 50
0.0
 51
180.0
  0
LINE
  5
69
330
1F
100
AcDbEntity
  8
0
  6
Continuous
 62
     7
370
    25
100
AcDbLine
 10
345.528116908
 20
349.88
 30
0.0
 11
345.528116908
 21
355.88
 31
0.0
  0
LINE
  5
6A
330
1F
100
AcDbEntity
  8
0
  6
Continuous
 62
     7
370
    25
100
AcDbLine
 10
393.528116908
 20
355.88
 30
0.0
 11
345.528116908
 21
355.88
 31
0.0
  0
LINE
  5
6B
330
1F
100
AcDbEntity
  8
0
  6
Continuous
 62
     7
370
    25
100
AcDbLine
 10
393.528116908
 20
349.88
 30
0.0
 11
393.528116908
 21
355.88
 31
0.0
  0
LINE
  5
6C
330
1F
100
AcDbEntity
  8
0
  6
Continuous
 62
     7
370
    25
100
AcDbLine
 10
393.528116908
 20
349.88
 30
0.0
 11
345.528116908
 21
349.88
 31
0.0
  0
LINE
  5
6D
330
1F
100
AcDbEntity
  8
0
  6
HIDDEN
 62
     7
370
    18
100
AcDbLine
 10
374.228116908
 20
349.88
 30
0.0
 11
374.228116908
 21
355.88
 31
0.0
  0
LINE
  5
6E
330
1F
100
AcDbEntity
  8
0
  6
HIDDEN
 62
     7
370
    18
100
AcDbLine
 10
380.828116908
 20
349.88
 30
0.0
 11
380.828116908
 21
355.88
 31
0.0
  0
LINE
  5
6F
330
1F
100
AcDbEntity
  8
0
  6
HIDDEN
 62
     7
370
    18
100
AcDbLine
 10
358.228116908
 20
349.88
 30
0.0
 11
358.228116908
 21
355.88
 31
0.0
  0
LINE
  5
70
330
1F
100
AcDbEntity
  8
0
  6
HIDDEN
 62
     7
370
    18
100
AcDbLine
 10
364.828116908
 20
349.88
 30
0.0
 11
364.828116908
 21
355.88
 31
0.0
  0
LINE
  5
71
330
1F
100
AcDbEntity
  8
0
  6
Continuous
 62
     7
370
    25
100
AcDbLine
 10
473.38
 20
210.5015110051
 30
0.0
 11
479.38
 21
210.5015110051
 31
0.0
  0
LINE
  5
72
330
1F
100
AcDbEntity
  8
0
  6
Continuous
 62
     7
370
    25
100
AcDbLine
 10
479.38
 20
258.5015110051
 30
0.0
 11
473.38
 21
258.5015110051
 31
0.0
  0
LINE
  5
73
330
1F
100
AcDbEntity
  8
0
  6
Continuous
 62
     7
370
    25
100
AcDbLine
 10
479.38
 20
210.5015110051
 30
0.0
 11
479.38
 21
234.5015110051
 31
0.0
  0
LINE
  5
74
330
1F
100
AcDbEntity
  8
0
  6
Continuous
 62
     7
370
    25
100
AcDbLine
 10
473.38
 20
210.5015110051
 30
0.0
 11
473.38
 21
234.5015110051
 31
0.0
  0
LINE
  5
75
330
1F
100
AcDbEntity
  8
0
  6
Continuous
 62
     7
370
    25
100
AcDbLine
 10
479.38
 20
234.5015110051
 30
0.0
 11
479.38
 21
258.5015110051
 31
0.0
  0
LINE
  5
76
330
1F
100
AcDbEntity
  8
0
  6
Continuous
 62
     7
370
    25
100
AcDbLine
 10
473.38
 20
234.5015110051
 30
0.0
 11
473.38
 21
258.5015110051
 31
0.0
  0
LINE
  5
77
330
1F
100
AcDbEntity
  8
0
  6
PHANTOM
 62
     8
370
    18
100
AcDbLine
 10
473.38
 20
234.5015110051
 30
0.0
 11
479.38
 21
234.5015110051
 31
0.0
  0
LINE
  5
78
330
1F
100
AcDbEntity
  8
0
  6
HIDDEN
 62
     7
370
    18
100
AcDbLine
 10
479.38
 20
237.8015110051
 30
0.0
 11
473.38
 21
237.8015110051
 31
0.0
  0
LINE
  5
79
330
1F
100
AcDbEntity
  8
0
  6
HIDDEN
 62
     7
370
    18
100
AcDbLine
 10
473.38
 20
231.2015110051
 30
0.0
 11
479.38
 21
231.2015110051
 31
0.0
  0
LINE
  5
7A
330
1F
100
AcDbEntity
  8
0
  6
HIDDEN
 62
     7
370
    18
100
AcDbLine
 10
473.38
 20
234.5015110051
 30
0.0
 11
479.38
 21
234.5015110051
 31
0.0
  0
LINE
  5
7B
330
1F
100
AcDbEntity
  8
0
  6
Continuous
 62
     7
370
    25
100
AcDbLine
 10
466.5022955519
 20
374.8897848649
 30
0.0
 11
462.2596548648
 21
372.4405605294
 31
0.0
  0
LINE
  5
7C
330
1F
100
AcDbEntity
  8
0
  6
Continuous
 62
     7
370
    25
100
AcDbLine
 10
486.2577044481
 20
330.8702151351
 30
0.0
 11
490.5003451352
 21
333.3194394706
 31
0.0
  0
LWPOLYLINE
  5
7D
330
1F
100
AcDbEntity
  8
0
  6
Continuous
 62
     7
370
    25
100
AcDbPolyline
 90
       72
 70
   128
 43
0.0
 10
491.2292424049
 20
341.8584904904
 10
491.2126320682
 20
342.734919422
 10
491.1628335734
 20
343.6288105895
 10
491.0799444035
 20
344.5384141589
 10
490.964126818
 20
345.4619495384
 10
490.8156075351
 20
346.3976088642
 10
490.6346772884
 20
347.3435605393
 10
490.4216902574
 20
348.2979528187
 10
490.177063374
 20
349.2589174349
 10
489.901275507
 20
350.2245732544
 10
489.5948665241
 20
351.1930299607
 10
489.2584362351
 20
352.1623917542
 10
488.8926432183
 20
353.1307610637
 10
488.4982035306
 20
354.0962422608
 10
488.0758893062
 20
355.0569453708
 10
487.6265272451
 20
356.0109897721
 10
487.1509969946
 20
356.9565078781
 10
486.6502294274
 20
357.8916487927
 10
486.1252048197
 20
358.8145819336
 10
485.5769509317
 20
359.7235006158
 10
485.0065409962
 20
360.6166255884
 10
484.4150916174
 20
361.4922085172
 10
483.8037605852
 20
362.3485354077
 10
483.1737446089
 20
363.1839299596
 10
482.5262769742
 20
363.9967568489
 10
481.8626251296
 20
364.7854249288
 10
481.1840882046
 20
365.5483903445
 10
480.4919944672
 20
366.2841595553
 10
479.7876987233
 20
366.9912922586
 10
479.072579665
 20
367.6684042087
 10
478.3480371713
 20
368.3141699274
 10
477.6154895683
 20
368.9273252978
 10
476.8763708522
 20
369.5066700395
 10
476.1321278827
 20
370.0510700579
 10
475.3842175503
 20
370.5594596646
 10
474.6341039246
 20
371.0308436629
 10
473.8832553883
 20
371.4642992966
 10
473.1331417626
 20
371.8589780558
 10
472.3852314302
 20
372.2141073384
 10
471.6409884607
 20
372.5289919622
 10
470.9018697446
 20
372.8030155256
 10
470.1693221415
 20
373.0356416147
 10
469.4447796479
 20
373.2264148531
 10
468.7296605895
 20
373.374961793
 10
468.0253648457
 20
373.480991647
 10
467.3332711082
 20
373.5442968566
 10
466.6547341833
 20
373.5647534988
 10
465.9910823386
 20
373.5423215289
 10
465.343614704
 20
373.4770448585
 10
464.7135987277
 20
373.3690512697
 10
464.1022676955
 20
373.2185521651
 10
463.5108183167
 20
373.0258421536
 10
462.9404083812
 20
372.7912984743
 10
462.3921544932
 20
372.5153802574
 10
461.8671298855
 20
372.1986276257
 10
461.3663623183
 20
371.8416606373
 10
460.8908320678
 20
371.4451780721
 10
460.4414700067
 20
371.009956063
 10
460.0191557823
 20
370.5368465778
 10
459.6247160946
 20
370.0267757505
 10
459.2589230777
 20
369.4807420685
 10
458.9224927888
 20
368.8998144186
 10
458.6160838059
 20
368.2851299938
 10
458.3402959389
 20
367.6378920678
 10
458.0956690555
 20
366.9593676392
 10
457.8826820245
 20
366.2508849514
 10
457.7017517778
 20
365.5138308927
 10
457.5532324949
 20
364.7496482809
 10
457.4374149094
 20
363.9598330393
 10
457.3545257395
 20
363.1459312684
 10
457.3047272447
 20
362.3095362192
 10
457.288116908
 20
361.4522851741
  0
LWPOLYLINE
  5
7E
330
1F
100
AcDbEntity
  8
0
  6
Continuous
 62
     7
370
    25
100
AcDbPolyline
 90
       72
 70
   128
 43
0.0
 10
457.288116908
 20
361.4522851741
 10
457.3047272447
 20
360.5758562425
 10
457.3545257395
 20
359.681965075
 10
457.4374149094
 20
358.7723615057
 10
457.5532324949
 20
357.8488261262
 10
457.7017517778
 20
356.9131668003
 10
457.8826820245
 20
355.9672151253
 10
458.0956690555
 20
355.0128228458
 10
458.3402959389
 20
354.0518582296
 10
458.6160838059
 20
353.0862024101
 10
458.9224927888
 20
352.1177457038
 10
459.2589230777
 20
351.1483839103
 10
459.6247160946
 20
350.1800146008
 10
460.0191557823
 20
349.2145334037
 10
460.4414700067
 20
348.2538302938
 10
460.8908320678
 20
347.2997858924
 10
461.3663623183
 20
346.3542677864
 10
461.8671298855
 20
345.4191268718
 10
462.3921544932
 20
344.496193731
 10
462.9404083812
 20
343.5872750487
 10
463.5108183167
 20
342.6941500761
 10
464.1022676955
 20
341.8185671473
 10
464.7135987277
 20
340.9622402569
 10
465.343614704
 20
340.126845705
 10
465.9910823386
 20
339.3140188157
 10
466.6547341833
 20
338.5253507358
 10
467.3332711082
 20
337.7623853201
 10
468.0253648457
 20
337.0266161092
 10
468.7296605895
 20
336.3194834059
 10
469.4447796479
 20
335.6423714558
 10
470.1693221415
 20
334.9966057372
 10
470.9018697446
 20
334.3834503668
 10
471.6409884607
 20
333.8041056251
 10
472.3852314302
 20
333.2597056066
 10
473.1331417626
 20
332.7513159999
 10
473.8832553883
 20
332.2799320016
 10
474.6341039246
 20
331.846476368
 10
475.3842175503
 20
331.4517976087
 10
476.1321278827
 20
331.0966683261
 10
476.8763708522
 20
330.7817837024
 10
477.6154895683
 20
330.5077601389
 10
478.3480371713
 20
330.2751340498
 10
479.072579665
 20
330.0843608115
 10
479.7876987233
 20
329.9358138715
 10
480.4919944672
 20
329.8297840175
 10
481.1840882046
 20
329.766478808
 10
481.8626251296
 20
329.7460221657
 10
482.5262769742
 20
329.7684541356
 10
483.1737446089
 20
329.833730806
 10
483.8037605852
 20
329.9417243948
 10
484.4150916174
 20
330.0922234995
 10
485.0065409962
 20
330.2849335109
 10
485.5769509317
 20
330.5194771902
 10
486.1252048197
 20
330.7953954072
 10
486.6502294274
 20
331.1121480389
 10
487.1509969946
 20
331.4691150272
 10
487.6265272451
 20
331.8655975925
 10
488.0758893062
 20
332.3008196015
 10
488.4982035306
 20
332.7739290867
 10
488.8926432183
 20
333.2839999141
 10
489.2584362351
 20
333.830033596
 10
489.5948665241
 20
334.410961246
 10
489.901275507
 20
335.0256456708
 10
490.177063374
 20
335.6728835968
 10
490.4216902574
 20
336.3514080254
 10
490.6346772884
 20
337.0598907131
 10
490.8156075351
 20
337.7969447718
 10
490.964126818
 20
338.5611273837
 10
491.0799444035
 20
339.3509426252
 10
491.1628335734
 20
340.1648443961
 10
491.2126320682
 20
341.0012394454
 10
491.2292424049
 20
341.8584904904
  0
LWPOLYLINE
  5
7F
330
1F
100
AcDbEntity
  8
0
  6
Continuous
 62
     7
370
    25
100
AcDbPolyline
 90
       27
 70
   128
 43
0.0
 10
470.9352777849
 20
353.573946895
 10
470.9182642898
 20
353.9085648686
 10
470.8674718996
 20
354.2579467219
 10
470.7836412818
 20
354.6169976808
 10
470.6679948755
 20
354.9804819737
 10
470.5222190658
 20
355.3430991813
 10
470.3484395922
 20
355.699561528
 10
470.1491905507
 20
356.0446709902
 10
469.927377441
 20
356.3733950948
 10
469.6862347978
 20
356.6809403042
 10
469.4292790238
 20
356.9628219166
 10
469.1602571129
 20
357.2149294634
 10
468.8830920101
 20
357.4335866488
 10
468.6018254069
 20
357.6156049588
 10
468.3205588038
 20
357.7583301565
 10
468.043393701
 20
357.8596809871
 10
467.7743717901
 20
357.9181795273
 10
467.5174160161
 20
357.9329727366
 10
467.2762733729
 20
357.9038448968
 10
467.0544602632
 20
357.8312207574
 10
466.8552112217
 20
357.7161593418
 10
466.6814317481
 20
357.5603385045
 10
466.5356559383
 20
357.3660304643
 10
466.4200095321
 20
357.13606867
 10
466.3361789143
 20
356.8738064822
 10
466.2853865241
 20
356.5830682743
 10
466.268373029
 20
356.2680936641
  0
LWPOLYLINE
  5
80
330
1F
100
AcDbEntity
  8
0
  6
Continuous
 62
     7
370
    25
100
AcDbPolyline
 90
       27
 70
   128
 43
0.0
 10
466.268373029
 20
356.2680936641
 10
466.2853865241
 20
355.9334756905
 10
466.3361789143
 20
355.5840938372
 10
466.4200095321
 20
355.2250428784
 10
466.5356559383
 20
354.8615585854
 10
466.6814317481
 20
354.4989413778
 10
466.8552112217
 20
354.1424790311
 10
467.0544602632
 20
353.7973695689
 10
467.2762733729
 20
353.4686454643
 10
467.5174160161
 20
353.1611002549
 10
467.7743717901
 20
352.8792186425
 10
468.043393701
 20
352.6271110958
 10
468.3205588038
 20
352.4084539103
 10
468.6018254069
 20
352.2264356003
 10
468.8830920101
 20
352.0837104027
 10
469.1602571129
 20
351.982359572
 10
469.4292790238
 20
351.9238610318
 10
469.6862347978
 20
351.9090678225
 10
469.927377441
 20
351.9381956623
 10
470.1491905507
 20
352.0108198017
 10
470.3484395922
 20
352.1258812173
 10
470.5222190658
 20
352.2817020546
 10
470.6679948755
 20
352.4760100948
 10
470.7836412818
 20
352.7059718892
 10
470.8674718996
 20
352.9682340769
 10
470.9182642898
 20
353.2589722848
 10
470.9352777849
 20
353.573946895
  0
LWPOLYLINE
  5
81
330
1F
100
AcDbEntity
  8
0
  6
Continuous
 62
     7
370
    25
100
AcDbPolyline
 90
       27
 70
   128
 43
0.0
 10
482.2489862838
 20
347.0426820005
 10
482.2319727888
 20
347.377299974
 10
482.1811803986
 20
347.7266818273
 10
482.0973497808
 20
348.0857327862
 10
481.9817033745
 20
348.4492170791
 10
481.8359275648
 20
348.8118342867
 10
481.6621480911
 20
349.1682966334
 10
481.4628990497
 20
349.5134060957
 10
481.24108594
 20
349.8421302003
 10
480.9999432968
 20
350.1496754096
 10
480.7429875228
 20
350.431557022
 10
480.4739656118
 20
350.6836645688
 10
480.1968005091
 20
350.9023217542
 10
479.9155339059
 20
351.0843400642
 10
479.6342673028
 20
351.2270652619
 10
479.3571022
 20
351.3284160925
 10
479.088080289
 20
351.3869146327
 10
478.8311245151
 20
351.401707842
 10
478.5899818719
 20
351.3725800023
 10
478.3681687622
 20
351.2999558628
 10
478.1689197207
 20
351.1848944472
 10
477.9951402471
 20
351.0290736099
 10
477.8493644373
 20
350.8347655698
 10
477.733718031
 20
350.6048037754
 10
477.6498874132
 20
350.3425415876
 10
477.5990950231
 20
350.0518033797
 10
477.582081528
 20
349.7368287695
  0
LWPOLYLINE
  5
82
330
1F
100
AcDbEntity
  8
0
  6
Continuous
 62
     7
370
    25
100
AcDbPolyline
 90
       27
 70
   128
 43
0.0
 10
477.582081528
 20
349.7368287695
 10
477.5990950231
 20
349.4022107959
 10
477.6498874132
 20
349.0528289426
 10
477.733718031
 20
348.6937779838
 10
477.8493644373
 20
348.3302936908
 10
477.9951402471
 20
347.9676764833
 10
478.1689197207
 20
347.6112141365
 10
478.3681687622
 20
347.2661046743
 10
478.5899818719
 20
346.9373805697
 10
478.8311245151
 20
346.6298353603
 10
479.088080289
 20
346.347953748
 10
479.3571022
 20
346.0958462012
 10
479.6342673028
 20
345.8771890157
 10
479.9155339059
 20
345.6951707058
 10
480.1968005091
 20
345.5524455081
 10
480.4739656118
 20
345.4510946775
 10
480.7429875228
 20
345.3925961373
 10
480.9999432968
 20
345.3778029279
 10
481.24108594
 20
345.4069307677
 10
481.4628990497
 20
345.4795549071
 10
481.6621480911
 20
345.5946163228
 10
481.8359275648
 20
345.75043716
 10
481.9817033745
 20
345.9447452002
 10
482.0973497808
 20
346.1747069946
 10
482.1811803986
 20
346.4369691823
 10
482.2319727888
 20
346.7277073902
 10
482.2489862838
 20
347.0426820005
  0
LWPOLYLINE
  5
83
330
1F
100
AcDbEntity
  8
0
  6
Continuous
 62
     7
370
    25
100
AcDbPolyline
 90
       55
 70
   128
 43
0.0
 10
495.471883092
 20
344.3077148259
 10
495.4552727553
 20
345.1841437575
 10
495.4054742605
 20
346.078034925
 10
495.3225850906
 20
346.9876384943
 10
495.2067675051
 20
347.9111738738
 10
495.0582482222
 20
348.8468331997
 10
494.8773179755
 20
349.7927848747
 10
494.6643309445
 20
350.7471771542
 10
494.4197040611
 20
351.7081417704
 10
494.1439161941
 20
352.6737975899
 10
493.8375072112
 20
353.6422542962
 10
493.5010769223
 20
354.6116160897
 10
493.1352839054
 20
355.5799853992
 10
492.7408442177
 20
356.5454665963
 10
492.3185299933
 20
357.5061697062
 10
491.8691679322
 20
358.4602141076
 10
491.3936376817
 20
359.4057322136
 10
490.8928701145
 20
360.3408731282
 10
490.3678455068
 20
361.263806269
 10
489.8195916188
 20
362.1727249513
 10
489.2491816833
 20
363.0658499239
 10
488.6577323045
 20
363.9414328527
 10
488.0464012723
 20
364.7977597431
 10
487.416385296
 20
365.633154295
 10
486.7689176614
 20
366.4459811843
 10
486.1052658167
 20
367.2346492642
 10
485.4267288918
 20
367.9976146799
 10
484.7346351543
 20
368.7333838908
 10
484.0303394105
 20
369.4405165941
 10
483.3152203521
 20
370.1176285442
 10
482.5906778585
 20
370.7633942628
 10
481.8581302554
 20
371.3765496332
 10
481.1190115393
 20
371.9558943749
 10
480.3747685698
 20
372.5002943934
 10
479.6268582374
 20
373.0086840001
 10
478.8767446117
 20
373.4800679984
 10
478.1258960754
 20
373.913523632
 10
477.3757824497
 20
374.3082023913
 10
476.6278721173
 20
374.6633316739
 10
475.8836291478
 20
374.9782162976
 10
475.1445104317
 20
375.2522398611
 10
474.4119628287
 20
375.4848659502
 10
473.687420335
 20
375.6756391885
 10
472.9723012767
 20
375.8241861285
 10
472.2680055328
 20
375.9302159825
 10
471.5759117954
 20
375.993521192
 10
470.8973748704
 20
376.0139778343
 10
470.2337230258
 20
375.9915458644
 10
469.5862553911
 20
375.926269194
 10
468.9562394148
 20
375.8182756052
 10
468.3449083826
 20
375.6677765005
 10
467.7534590038
 20
375.4750664891
 10
467.1830490683
 20
375.2405228098
 10
466.6347951803
 20
374.9646045928
 10
466.5022955519
 20
374.8897848649
  0
LWPOLYLINE
  5
84
330
1F
100
AcDbEntity
  8
0
  6
Continuous
 62
     7
370
    25
100
AcDbPolyline
 90
       19
 70
   128
 43
0.0
 10
490.5003451352
 20
333.3194394706
 10
490.8928701145
 20
333.5613723743
 10
491.3936376817
 20
333.9183393627
 10
491.8691679322
 20
334.3148219279
 10
492.3185299933
 20
334.750043937
 10
492.7408442177
 20
335.2231534222
 10
493.1352839054
 20
335.7332242495
 10
493.5010769223
 20
336.2792579315
 10
493.8375072112
 20
336.8601855814
 10
494.1439161941
 20
337.4748700062
 10
494.4197040611
 20
338.1221079322
 10
494.6643309445
 20
338.8006323608
 10
494.8773179755
 20
339.5091150486
 10
495.0582482222
 20
340.2461691073
 10
495.2067675051
 20
341.0103517191
 10
495.3225850906
 20
341.8001669607
 10
495.4054742605
 20
342.6140687316
 10
495.4552727553
 20
343.4504637808
 10
495.471883092
 20
344.3077148259
  0
LINE
  5
85
330
1F
100
AcDbEntity
  8
0
  6
PHANTOM
 62
     8
370
    18
100
AcDbLine
 10
491.2292424049
 20
341.8584904904
 30
0.0
 11
495.471883092
 21
344.3077148259
 31
0.0
  0
LINE
  5
86
330
1F
100
AcDbEntity
  8
0
  6
PHANTOM
 62
     8
370
    18
100
AcDbLine
 10
477.582081528
 20
349.7368287695
 30
0.0
 11
479.9159131576
 21
351.0841210913
 31
0.0
  0
LINE
  5
87
330
1F
100
AcDbEntity
  8
0
  6
PHANTOM
 62
     8
370
    18
100
AcDbLine
 10
466.268373029
 20
356.2680936641
 30
0.0
 11
468.6022046586
 21
357.6153859859
 31
0.0
  0
LWPOLYLINE
  5
88
330
1F
100
AcDbEntity
  8
0
  6
HIDDEN
 62
     7
370
    18
100
AcDbPolyline
 90
       19
 70
   128
 43
0.0
 10
466.5022955519
 20
374.8897848649
 10
466.1097705726
 20
374.6478519611
 10
465.6090030054
 20
374.2908849728
 10
465.1334727549
 20
373.8944024075
 10
464.6841106938
 20
373.4591803985
 10
464.2617964694
 20
372.9860709133
 10
463.8673567817
 20
372.4760000859
 10
463.5015637649
 20
371.929966404
 10
463.1651334759
 20
371.349038754
 10
462.858724493
 20
370.7343543292
 10
462.582936626
 20
370.0871164032
 10
462.3383097426
 20
369.4085919746
 10
462.1253227116
 20
368.7001092869
 10
461.9443924649
 20
367.9630552282
 10
461.795873182
 20
367.1988726163
 10
461.6800555965
 20
366.4090573748
 10
461.5971664266
 20
365.5951556039
 10
461.5473679318
 20
364.7587605546
 10
461.5307575951
 20
363.9015095096
  0
LWPOLYLINE
  5
89
330
1F
100
AcDbEntity
  8
0
  6
HIDDEN
 62
     7
370
    18
100
AcDbPolyline
 90
       55
 70
   128
 43
0.0
 10
461.5307575951
 20
363.9015095096
 10
461.5473679318
 20
363.025080578
 10
461.5971664266
 20
362.1311894105
 10
461.6800555965
 20
361.2215858411
 10
461.795873182
 20
360.2980504616
 10
461.9443924649
 20
359.3623911358
 10
462.1253227116
 20
358.4164394607
 10
462.3383097426
 20
357.4620471813
 10
462.582936626
 20
356.5010825651
 10
462.858724493
 20
355.5354267456
 10
463.1651334759
 20
354.5669700393
 10
463.5015637649
 20
353.5976082458
 10
463.8673567817
 20
352.6292389363
 10
464.2617964694
 20
351.6637577392
 10
464.6841106938
 20
350.7030546292
 10
465.1334727549
 20
349.7490102279
 10
465.6090030054
 20
348.8034921219
 10
466.1097705726
 20
347.8683512073
 10
466.6347951803
 20
346.9454180664
 10
467.1830490683
 20
346.0364993842
 10
467.7534590038
 20
345.1433744116
 10
468.3449083826
 20
344.2677914828
 10
468.9562394148
 20
343.4114645923
 10
469.5862553911
 20
342.5760700404
 10
470.2337230258
 20
341.7632431511
 10
470.8973748704
 20
340.9745750712
 10
471.5759117954
 20
340.2116096555
 10
472.2680055328
 20
339.4758404447
 10
472.9723012767
 20
338.7687077414
 10
473.687420335
 20
338.0915957913
 10
474.4119628287
 20
337.4458300726
 10
475.1445104317
 20
336.8326747022
 10
475.8836291478
 20
336.2533299605
 10
476.6278721173
 20
335.7089299421
 10
477.3757824497
 20
335.2005403354
 10
478.1258960754
 20
334.7291563371
 10
478.8767446117
 20
334.2957007034
 10
479.6268582374
 20
333.9010219442
 10
480.3747685698
 20
333.5458926616
 10
481.1190115393
 20
333.2310080378
 10
481.8581302554
 20
332.9569844744
 10
482.5906778585
 20
332.7243583853
 10
483.3152203521
 20
332.5335851469
 10
484.0303394105
 20
332.385038207
 10
484.7346351543
 20
332.279008353
 10
485.4267288918
 20
332.2157031434
 10
486.1052658167
 20
332.1952465012
 10
486.7689176614
 20
332.2176784711
 10
487.416385296
 20
332.2829551415
 10
488.0464012723
 20
332.3909487303
 10
488.6577323045
 20
332.5414478349
 10
489.2491816833
 20
332.7341578464
 10
489.8195916188
 20
332.9687015257
 10
490.3678455068
 20
333.2446197426
 10
490.5003451352
 20
333.3194394706
  0
LWPOLYLINE
  5
8A
330
1F
100
AcDbEntity
  8
0
  6
HIDDEN
 62
     7
370
    18
100
AcDbPolyline
 90
       27
 70
   128
 43
0.0
 10
486.491626971
 20
349.4919063359
 10
486.4746134759
 20
349.8265243095
 10
486.4238210857
 20
350.1759061628
 10
486.3399904679
 20
350.5349571216
 10
486.2243440617
 20
350.8984414146
 10
486.0785682519
 20
351.2610586222
 10
485.9047887783
 20
351.6175209689
 10
485.7055397368
 20
351.9626304311
 10
485.4837266271
 20
352.2913545357
 10
485.2425839839
 20
352.5988997451
 10
484.9856282099
 20
352.8807813575
 10
484.716606299
 20
353.1328889042
 10
484.4394411962
 20
353.3515460897
 10
484.1581745931
 20
353.5335643997
 10
483.8769079899
 20
353.6762895973
 10
483.5997428871
 20
353.777640428
 10
483.3307209762
 20
353.8361389682
 10
483.0737652022
 20
353.8509321775
 10
482.832622559
 20
353.8218043377
 10
482.6108094493
 20
353.7491801983
 10
482.4115604078
 20
353.6341187827
 10
482.2377809342
 20
353.4782979454
 10
482.0920051245
 20
353.2839899052
 10
481.9763587182
 20
353.0540281108
 10
481.8925281004
 20
352.7917659231
 10
481.8417357102
 20
352.5010277152
 10
481.8247222151
 20
352.186053105
  0
LWPOLYLINE
  5
8B
330
1F
100
AcDbEntity
  8
0
  6
HIDDEN
 62
     7
370
    18
100
AcDbPolyline
 90
       27
 70
   128
 43
0.0
 10
481.8247222151
 20
352.186053105
 10
481.8417357102
 20
351.8514351314
 10
481.8925281004
 20
351.5020532781
 10
481.9763587182
 20
351.1430023192
 10
482.0920051245
 20
350.7795180263
 10
482.2377809342
 20
350.4169008187
 10
482.4115604078
 20
350.060438472
 10
482.6108094493
 20
349.7153290098
 10
482.832622559
 20
349.3866049052
 10
483.0737652022
 20
349.0790596958
 10
483.3307209762
 20
348.7971780834
 10
483.5997428871
 20
348.5450705366
 10
483.8769079899
 20
348.3264133512
 10
484.1581745931
 20
348.1443950412
 10
484.4394411962
 20
348.0016698435
 10
484.716606299
 20
347.9003190129
 10
484.9856282099
 20
347.8418204727
 10
485.2425839839
 20
347.8270272634
 10
485.4837266271
 20
347.8561551032
 10
485.7055397368
 20
347.9287792426
 10
485.9047887783
 20
348.0438406582
 10
486.0785682519
 20
348.1996614955
 10
486.2243440617
 20
348.3939695357
 10
486.3399904679
 20
348.62393133
 10
486.4238210857
 20
348.8861935178
 10
486.4746134759
 20
349.1769317257
 10
486.491626971
 20
349.4919063359
  0
LWPOLYLINE
  5
8C
330
1F
100
AcDbEntity
  8
0
  6
HIDDEN
 62
     7
370
    18
100
AcDbPolyline
 90
       27
 70
   128
 43
0.0
 10
475.177918472
 20
356.0231712305
 10
475.1609049769
 20
356.3577892041
 10
475.1101125868
 20
356.7071710574
 10
475.026281969
 20
357.0662220162
 10
474.9106355627
 20
357.4297063092
 10
474.7648597529
 20
357.7923235167
 10
474.5910802793
 20
358.1487858635
 10
474.3918312378
 20
358.4938953257
 10
474.1700181281
 20
358.8226194303
 10
473.9288754849
 20
359.1301646397
 10
473.671919711
 20
359.412046252
 10
473.4028978
 20
359.6641537988
 10
473.1257326972
 20
359.8828109843
 10
472.8444660941
 20
360.0648292942
 10
472.5631994909
 20
360.2075544919
 10
472.2860343882
 20
360.3089053225
 10
472.0170124772
 20
360.3674038627
 10
471.7600567032
 20
360.3821970721
 10
471.51891406
 20
360.3530692323
 10
471.2971009503
 20
360.2804450929
 10
471.0978519089
 20
360.1653836772
 10
470.9240724352
 20
360.00956284
 10
470.7782966255
 20
359.8152547998
 10
470.6626502192
 20
359.5852930054
 10
470.5788196014
 20
359.3230308177
 10
470.5280272112
 20
359.0322926098
 10
470.5110137162
 20
358.7173179995
  0
LWPOLYLINE
  5
8D
330
1F
100
AcDbEntity
  8
0
  6
HIDDEN
 62
     7
370
    18
100
AcDbPolyline
 90
       27
 70
   128
 43
0.0
 10
470.5110137162
 20
358.7173179995
 10
470.5280272112
 20
358.382700026
 10
470.5788196014
 20
358.0333181727
 10
470.6626502192
 20
357.6742672138
 10
470.7782966255
 20
357.3107829209
 10
470.9240724352
 20
356.9481657133
 10
471.0978519089
 20
356.5917033666
 10
471.2971009503
 20
356.2465939043
 10
471.51891406
 20
355.9178697997
 10
471.7600567032
 20
355.6103245904
 10
472.0170124772
 20
355.328442978
 10
472.2860343882
 20
355.0763354312
 10
472.5631994909
 20
354.8576782458
 10
472.8444660941
 20
354.6756599358
 10
473.1257326972
 20
354.5329347381
 10
473.4028978
 20
354.4315839075
 10
473.671919711
 20
354.3730853673
 10
473.9288754849
 20
354.358292158
 10
474.1700181281
 20
354.3874199977
 10
474.3918312378
 20
354.4600441372
 10
474.5910802793
 20
354.5751055528
 10
474.7648597529
 20
354.7309263901
 10
474.9106355627
 20
354.9252344302
 10
475.026281969
 20
355.1551962246
 10
475.1101125868
 20
355.4174584124
 10
475.1609049769
 20
355.7081966203
 10
475.177918472
 20
356.0231712305
  0
LINE
  5
8E
330
1F
100
AcDbEntity
  8
0
  6
HIDDEN
 62
     7
370
    18
100
AcDbLine
 10
482.5083086842
 20
353.6969409663
 30
0.0
 11
478.2656679971
 21
351.2477166308
 31
0.0
  0
LINE
  5
8F
330
1F
100
AcDbEntity
  8
0
  6
HIDDEN
 62
     7
370
    18
100
AcDbLine
 10
481.5653998148
 20
345.5317941391
 30
0.0
 11
485.8080405019
 21
347.9810184746
 31
0.0
  0
LINE
  5
90
330
1F
100
AcDbEntity
  8
0
  6
HIDDEN
 62
     7
370
    18
100
AcDbLine
 10
471.1946001852
 20
360.2282058609
 30
0.0
 11
466.9519594981
 21
357.7789815254
 31
0.0
  0
LINE
  5
91
330
1F
100
AcDbEntity
  8
0
  6
HIDDEN
 62
     7
370
    18
100
AcDbLine
 10
470.2516913158
 20
352.0630590337
 30
0.0
 11
474.4943320029
 21
354.5122833692
 31
0.0
  0
LINE
  5
92
330
1F
100
AcDbEntity
  8
0
  6
HIDDEN
 62
     7
370
    18
100
AcDbLine
 10
457.288116908
 20
361.4522851741
 30
0.0
 11
461.5307575951
 21
363.9015095096
 31
0.0
  0
LINE
  5
93
330
1F
100
AcDbEntity
  8
0
  6
HIDDEN
 62
     7
370
    18
100
AcDbLine
 10
479.9159131576
 20
351.0841210913
 30
0.0
 11
481.8247222151
 21
352.186053105
 31
0.0
  0
LINE
  5
94
330
1F
100
AcDbEntity
  8
0
  6
HIDDEN
 62
     7
370
    18
100
AcDbLine
 10
482.2489862838
 20
347.0426820005
 30
0.0
 11
486.491626971
 21
349.4919063359
 31
0.0
  0
LINE
  5
95
330
1F
100
AcDbEntity
  8
0
  6
HIDDEN
 62
     7
370
    18
100
AcDbLine
 10
468.6022046586
 20
357.6153859859
 30
0.0
 11
470.5110137162
 21
358.7173179995
 31
0.0
  0
LINE
  5
96
330
1F
100
AcDbEntity
  8
0
  6
HIDDEN
 62
     7
370
    18
100
AcDbLine
 10
470.9352777849
 20
353.573946895
 30
0.0
 11
475.177918472
 21
356.0231712305
 31
0.0
  0
ENDSEC
  0
SECTION
  2
OBJECTS
  0
DICTIONARY
  5
C
330
0
100
AcDbDictionary
281
     1
  3
ACAD_GROUP
350
D
  3
ACAD_LAYOUT
350
1A
  3
ACAD_MLINESTYLE
350
17
  3
ACAD_PLOTSETTINGS
350
19
  3
ACAD_PLOTSTYLENAME
350
E
  3
ACAD_SCALELIST
350
47
  3
DWGPROPS
350
97
  0
DICTIONARY
  5
D
102
{ACAD_REACTORS
330
C
102
}
330
C
100
AcDbDictionary
281
     1
  0
DICTIONARY
  5
1A
102
{ACAD_REACTORS
330
C
102
}
330
C
100
AcDbDictionary
281
     1
  3
Layout1
350
1E
  3
Layout2
350
26
  3
Model
350
22
  0
DICTIONARY
  5
17
102
{ACAD_REACTORS
330
C
102
}
330
C
100
AcDbDictionary
281
     1
  3
Standard
350
18
  0
DICTIONARY
  5
19
102
{ACAD_REACTORS
330
C
102
}
330
C
100
AcDbDictionary
281
     1
  0
ACDBDICTIONARYWDFLT
  5
E
102
{ACAD_REACTORS
330
C
102
}
330
C
100
AcDbDictionary
281
     1
  3
Normal
350
F
100
AcDbDictionaryWithDefault
340
F
  0
DICTIONARY
  5
47
102
{ACAD_REACTORS
330
C
102
}
330
C
100
AcDbDictionary
281
     1
  3
A0
350
48
  3
A1
350
49
  3
A2
350
4A
  3
A3
350
4B
  3
A4
350
4C
  3
A5
350
4D
  3
A6
350
4E
  3
A7
350
4F
  3
A8
350
50
  3
A9
350
51
  3
B0
350
52
  3
B1
350
53
  3
B2
350
54
  3
B3
350
55
  3
B4
350
56
  3
B5
350
57
  3
B6
350
58
  0
XRECORD
  5
97
102
{ACAD_REACTORS
330
C
102
}
330
C
100
AcDbXrecord
280
     1
  1
DWGPROPS COOKIE
  2

  3

  4

  6

  7

  8
imaizumi
  9

300
=
301
=
302
=
303
=
304
=
305
=
306
=
307
=
308
=
309
=
 40
0.0
 41
2461263.006209653
 42
2461263.006209954
  1

 90
        0
  0
LAYOUT
  5
1E
102
{ACAD_REACTORS
330
1A
102
}
330
1A
100
AcDbPlotSettings
  1

  2
none_device
  4

  6

 40
0.0
 41
0.0
 42
0.0
 43
0.0
 44
0.0
 45
0.0
 46
0.0
 47
0.0
 48
0.0
 49
0.0
140
0.0
141
0.0
142
1.0
143
1.0
 70
   688
 72
     1
 73
     0
 74
     5
  7

 75
    16
147
1.0
148
0.0
149
0.0
100
AcDbLayout
  1
Layout1
 70
     1
 71
     1
 10
0.0
 20
0.0
 11
420.0
 21
297.0
 12
0.0
 22
0.0
 32
0.0
 14
1.0000000000E+20
 24
1.0000000000E+20
 34
1.0000000000E+20
 15
-1.0000000000E+20
 25
-1.0000000000E+20
 35
-1.0000000000E+20
146
0.0
 13
0.0
 23
0.0
 33
0.0
 16
1.0
 26
0.0
 36
0.0
 17
0.0
 27
1.0
 37
0.0
 76
     0
330
1B
  0
LAYOUT
  5
26
102
{ACAD_REACTORS
330
1A
102
}
330
1A
100
AcDbPlotSettings
  1

  2
none_device
  4

  6

 40
0.0
 41
0.0
 42
0.0
 43
0.0
 44
0.0
 45
0.0
 46
0.0
 47
0.0
 48
0.0
 49
0.0
140
0.0
141
0.0
142
1.0
143
1.0
 70
   688
 72
     1
 73
     0
 74
     5
  7

 75
    16
147
1.0
148
0.0
149
0.0
100
AcDbLayout
  1
Layout2
 70
     1
 71
     2
 10
0.0
 20
0.0
 11
0.0
 21
0.0
 12
0.0
 22
0.0
 32
0.0
 14
0.0
 24
0.0
 34
0.0
 15
0.0
 25
0.0
 35
0.0
146
0.0
 13
0.0
 23
0.0
 33
0.0
 16
1.0
 26
0.0
 36
0.0
 17
0.0
 27
1.0
 37
0.0
 76
     0
330
23
  0
LAYOUT
  5
22
102
{ACAD_REACTORS
330
1A
102
}
330
1A
100
AcDbPlotSettings
  1

  2
none_device
  4
Letter_(8.50_x_11.00_Inches)
  6

 40
6.35
 41
6.35
 42
6.35000508
 43
6.35000508
 44
215.9
 45
279.4
 46
0.0
 47
0.0
 48
0.0
 49
0.0
140
0.0
141
0.0
142
1.0
143
1.0
 70
  1712
 72
     1
 73
     0
 74
     0
  7

 75
     0
147
1.0
148
0.0
149
0.0
100
AcDbLayout
  1
Model
 70
     1
 71
     0
 10
0.0
 20
0.0
 11
841.0
 21
594.0
 12
0.0
 22
0.0
 32
0.0
 14
0.0
 24
0.0
 34
0.0
 15
841.0
 25
594.0
 35
0.0
146
0.0
 13
0.0
 23
0.0
 33
0.0
 16
1.0
 26
0.0
 36
0.0
 17
0.0
 27
1.0
 37
0.0
 76
     0
330
1F
331
29
  0
MLINESTYLE
  5
18
102
{ACAD_REACTORS
330
17
102
}
330
17
100
AcDbMlineStyle
  2
Standard
 70
     0
  3

 62
   256
 51
90.0
 52
90.0
 71
     2
 49
0.5
 62
   256
  6
BYLAYER
 49
-0.5
 62
   256
  6
BYLAYER
  0
ACDBPLACEHOLDER
  5
F
102
{ACAD_REACTORS
330
E
102
}
330
E
  0
SCALE
  5
48
102
{ACAD_REACTORS
330
47
102
}
330
47
100
AcDbScale
 70
     0
300
1:1
140
1.0
141
1.0
290
     1
  0
SCALE
  5
49
102
{ACAD_REACTORS
330
47
102
}
330
47
100
AcDbScale
 70
     0
300
1:2
140
1.0
141
2.0
290
     0
  0
SCALE
  5
4A
102
{ACAD_REACTORS
330
47
102
}
330
47
100
AcDbScale
 70
     0
300
1:4
140
1.0
141
4.0
290
     0
  0
SCALE
  5
4B
102
{ACAD_REACTORS
330
47
102
}
330
47
100
AcDbScale
 70
     0
300
1:5
140
1.0
141
5.0
290
     0
  0
SCALE
  5
4C
102
{ACAD_REACTORS
330
47
102
}
330
47
100
AcDbScale
 70
     0
300
1:8
140
1.0
141
8.0
290
     0
  0
SCALE
  5
4D
102
{ACAD_REACTORS
330
47
102
}
330
47
100
AcDbScale
 70
     0
300
1:10
140
1.0
141
10.0
290
     0
  0
SCALE
  5
4E
102
{ACAD_REACTORS
330
47
102
}
330
47
100
AcDbScale
 70
     0
300
1:16
140
1.0
141
16.0
290
     0
  0
SCALE
  5
4F
102
{ACAD_REACTORS
330
47
102
}
330
47
100
AcDbScale
 70
     0
300
1:20
140
1.0
141
20.0
290
     0
  0
SCALE
  5
50
102
{ACAD_REACTORS
330
47
102
}
330
47
100
AcDbScale
 70
     0
300
1:30
140
1.0
141
30.0
290
     0
  0
SCALE
  5
51
102
{ACAD_REACTORS
330
47
102
}
330
47
100
AcDbScale
 70
     0
300
1:40
140
1.0
141
40.0
290
     0
  0
SCALE
  5
52
102
{ACAD_REACTORS
330
47
102
}
330
47
100
AcDbScale
 70
     0
300
1:50
140
1.0
141
50.0
290
     0
  0
SCALE
  5
53
102
{ACAD_REACTORS
330
47
102
}
330
47
100
AcDbScale
 70
     0
300
1:100
140
1.0
141
100.0
290
     0
  0
SCALE
  5
54
102
{ACAD_REACTORS
330
47
102
}
330
47
100
AcDbScale
 70
     0
300
2:1
140
2.0
141
1.0
290
     0
  0
SCALE
  5
55
102
{ACAD_REACTORS
330
47
102
}
330
47
100
AcDbScale
 70
     0
300
4:1
140
4.0
141
1.0
290
     0
  0
SCALE
  5
56
102
{ACAD_REACTORS
330
47
102
}
330
47
100
AcDbScale
 70
     0
300
8:1
140
8.0
141
1.0
290
     0
  0
SCALE
  5
57
102
{ACAD_REACTORS
330
47
102
}
330
47
100
AcDbScale
 70
     0
300
10:1
140
10.0
141
1.0
290
     0
  0
SCALE
  5
58
102
{ACAD_REACTORS
330
47
102
}
330
47
100
AcDbScale
 70
     0
300
100:1
140
100.0
141
1.0
290
     0
  0
ENDSEC
  0
EOF
