  0
SECTION
  2
HEADER
  9
$ACADVER
  1
AC1015
  9
$ACADMAINTVER
 70
     6
  9
$DWGCODEPAGE
  3
DOS932
  9
$INSBASE
 10
0.0
 20
0.0
 30
0.0
  9
$EXTMIN
 10
0.0
 20
0.0
 30
0.0
  9
$EXTMAX
 10
841.0
 20
594.0
 30
0.0
  9
$LIMMIN
 10
0.0
 20
0.0
  9
$LIMMAX
 10
841.0
 20
594.0
  9
$ORTHOMODE
 70
     0
  9
$REGENMODE
 70
     1
  9
$FILLMODE
 70
     1
  9
$QTEXTMODE
 70
     0
  9
$MIRRTEXT
 70
     1
  9
$LTSCALE
 40
1.0
  9
$ATTMODE
 70
     1
  9
$TEXTSIZE
 40
3.5
  9
$TRACEWID
 40
1.0
  9
$TEXTSTYLE
  7
Standard
  9
$CLAYER
  8
0
  9
$CELTYPE
  6
ByLayer
  9
$CECOLOR
 62
   256
  9
$CELTSCALE
 40
1.0
  9
$DISPSILH
 70
     0
  9
$DIMSCALE
 40
1.0
  9
$DIMASZ
 40
3.302
  9
$DIMEXO
 40
1.0
  9
$DIMDLI
 40
3.75
  9
$DIMRND
 40
0.0
  9
$DIMDLE
 40
0.0
  9
$DIMEXE
 40
1.0
  9
$DIMTP
 40
0.0
  9
$DIMTM
 40
0.0
  9
$DIMTXT
 40
3.5
  9
$DIMCEN
 40
2.5
  9
$DIMTSZ
 40
0.0
  9
$DIMTOL
 70
     0
  9
$DIMLIM
 70
     0
  9
$DIMTIH
 70
     1
  9
$DIMTOH
 70
     1
  9
$DIMSE1
 70
     0
  9
$DIMSE2
 70
     0
  9
$DIMTAD
 70
     1
  9
$DIMZIN
 70
     1
  9
$DIMBLK
  1

  9
$DIMASO
 70
     1
  9
$DIMSHO
 70
     1
  9
$DIMPOST
  1

  9
$DIMAPOST
  1

  9
$DIMALT
 70
     0
  9
$DIMALTD
 70
     3
  9
$DIMALTF
 40
0.0393700787
  9
$DIMLFAC
 40
0.2
  9
$DIMTOFL
 70
     1
  9
$DIMTVP
 40
0.0
  9
$DIMTIX
 70
     0
  9
$DIMSOXD
 70
     0
  9
$DIMSAH
 70
     0
  9
$DIMBLK1
  1

  9
$DIMBLK2
  1

  9
$DIMSTYLE
  2
ISO-25
  9
$DIMCLRD
 70
     0
  9
$DIMCLRE
 70
     0
  9
$DIMCLRT
 70
     0
  9
$DIMTFAC
 40
1.0
  9
$DIMGAP
 40
1.524
  9
$DIMJUST
 70
     0
  9
$DIMSD1
 70
     0
  9
$DIMSD2
 70
     0
  9
$DIMTOLJ
 70
     0
  9
$DIMTZIN
 70
     1
  9
$DIMALTZ
 70
     0
  9
$DIMALTTZ
 70
     0
  9
$DIMUPT
 70
     0
  9
$DIMDEC
 70
     2
  9
$DIMTDEC
 70
     2
  9
$DIMALTU
 70
     2
  9
$DIMALTTD
 70
     3
  9
$DIMTXSTY
  7
Standard
  9
$DIMAUNIT
 70
     0
  9
$DIMADEC
 70
     2
  9
$DIMALTRND
 40
0.0
  9
$DIMAZIN
 70
     0
  9
$DIMDSEP
 70
    44
  9
$DIMATFIT
 70
     3
  9
$DIMFRAC
 70
     0
  9
$DIMLDRBLK
  1

  9
$DIMLUNIT
 70
     2
  9
$DIMLWD
 70
    -2
  9
$DIMLWE
 70
    -2
  9
$DIMTMOVE
 70
     0
  9
$LUNITS
 70
     2
  9
$LUPREC
 70
     2
  9
$SKETCHINC
 40
1.0
  9
$FILLETRAD
 40
0.0
  9
$AUNITS
 70
     0
  9
$AUPREC
 70
     2
  9
$MENU
  1
.
  9
$ELEVATION
 40
0.0
  9
$PELEVATION
 40
0.0
  9
$THICKNESS
 40
0.0
  9
$LIMCHECK
 70
     0
  9
$CHAMFERA
 40
0.0
  9
$CHAMFERB
 40
0.0
  9
$CHAMFERC
 40
0.0
  9
$CHAMFERD
 40
0.0
  9
$SKPOLY
 70
     0
  9
$TDCREATE
 40
2461263.381078218
  9
$TDUCREATE
 40
2461263.006078218
  9
$TDUPDATE
 40
2461263.38107875
  9
$TDUUPDATE
 40
2461263.00607875
  9
$TDINDWG
 40
0.0000000116
  9
$TDUSRTIMER
 40
0.0000000116
  9
$USRTIMER
 70
     1
  9
$ANGBASE
 50
0.0
  9
$ANGDIR
 70
     0
  9
$PDMODE
 70
     0
  9
$PDSIZE
 40
-1.0
  9
$PLINEWID
 40
0.0
  9
$SPLFRAME
 70
     0
  9
$SPLINETYPE
 70
     6
  9
$SPLINESEGS
 70
     8
  9
$HANDSEED
  5
9E
  9
$SURFTAB1
 70
     6
  9
$SURFTAB2
 70
     6
  9
$SURFTYPE
 70
     6
  9
$SURFU
 70
     6
  9
$SURFV
 70
     6
  9
$UCSBASE
  2

  9
$UCSNAME
  2

  9
$UCSORG
 10
0.0
 20
0.0
 30
0.0
  9
$UCSXDIR
 10
1.0
 20
0.0
 30
0.0
  9
$UCSYDIR
 10
0.0
 20
1.0
 30
0.0
  9
$UCSORTHOREF
  2

  9
$UCSORTHOVIEW
 70
     0
  9
$UCSORGTOP
 10
0.0
 20
0.0
 30
0.0
  9
$UCSORGBOTTOM
 10
0.0
 20
0.0
 30
0.0
  9
$UCSORGLEFT
 10
0.0
 20
0.0
 30
0.0
  9
$UCSORGRIGHT
 10
0.0
 20
0.0
 30
0.0
  9
$UCSORGFRONT
 10
0.0
 20
0.0
 30
0.0
  9
$UCSORGBACK
 10
0.0
 20
0.0
 30
0.0
  9
$PUCSBASE
  2

  9
$PUCSNAME
  2

  9
$PUCSORG
 10
0.0
 20
0.0
 30
0.0
  9
$PUCSXDIR
 10
1.0
 20
0.0
 30
0.0
  9
$PUCSYDIR
 10
0.0
 20
1.0
 30
0.0
  9
$PUCSORTHOREF
  2

  9
$PUCSORTHOVIEW
 70
     0
  9
$PUCSORGTOP
 10
0.0
 20
0.0
 30
0.0
  9
$PUCSORGBOTTOM
 10
0.0
 20
0.0
 30
0.0
  9
$PUCSORGLEFT
 10
0.0
 20
0.0
 30
0.0
  9
$PUCSORGRIGHT
 10
0.0
 20
0.0
 30
0.0
  9
$PUCSORGFRONT
 10
0.0
 20
0.0
 30
0.0
  9
$PUCSORGBACK
 10
0.0
 20
0.0
 30
0.0
  9
$USERI1
 70
     0
  9
$USERI2
 70
     0
  9
$USERI3
 70
     0
  9
$USERI4
 70
     0
  9
$USERI5
 70
     0
  9
$USERR1
 40
0.0
  9
$USERR2
 40
0.0
  9
$USERR3
 40
0.0
  9
$USERR4
 40
0.0
  9
$USERR5
 40
0.0
  9
$WORLDVIEW
 70
     1
  9
$SHADEDGE
 70
     3
  9
$SHADEDIF
 70
    70
  9
$TILEMODE
 70
     1
  9
$MAXACTVP
 70
    64
  9
$PINSBASE
 10
0.0
 20
0.0
 30
0.0
  9
$PLIMCHECK
 70
     0
  9
$PEXTMIN
 10
1.0000000000E+20
 20
1.0000000000E+20
 30
1.0000000000E+20
  9
$PEXTMAX
 10
-1.0000000000E+20
 20
-1.0000000000E+20
 30
-1.0000000000E+20
  9
$PLIMMIN
 10
0.0
 20
0.0
  9
$PLIMMAX
 10
420.0
 20
297.0
  9
$UNITMODE
 70
     0
  9
$VISRETAIN
 70
     1
  9
$PLINEGEN
 70
     0
  9
$PSLTSCALE
 70
     1
  9
$TREEDEPTH
 70
  3020
  9
$CMLSTYLE
  2
Standard
  9
$CMLJUST
 70
     0
  9
$CMLSCALE
 40
20.0
  9
$PROXYGRAPHICS
 70
     1
  9
$MEASUREMENT
 70
     1
  9
$CELWEIGHT
370
    -1
  9
$ENDCAPS
280
     0
  9
$JOINSTYLE
280
     0
  9
$LWDISPLAY
290
     1
  9
$INSUNITS
 70
     4
  9
$HYPERLINKBASE
  1

  9
$STYLESHEET
  1

  9
$XEDIT
290
     1
  9
$CEPSNTYPE
380
     0
  9
$PSTYLEMODE
290
     1
  9
$FINGERPRINTGUID
  2
{072f34c4-468e-4bb4-8660-7f406831d7d2}
  9
$VERSIONGUID
  2
{FAEB1C32-E019-11D5-929B-00C0DF256EC4}
  9
$EXTNAMES
290
     1
  9
$PSVPSCALE
 40
0.0
  9
$OLESTARTUP
290
     0
  0
ENDSEC
  0
SECTION
  2
CLASSES
  0
CLASS
  1
ACDBDICTIONARYWDFLT
  2
AcDbDictionaryWithDefault
  3
ObjectDBX Classes
 90
        0
280
     0
281
     0
  0
CLASS
  1
VISUALSTYLE
  2
AcDbVisualStyle
  3
ObjectDBX Classes
 90
     4095
280
     0
281
     0
  0
CLASS
  1
MATERIAL
  2
AcDbMaterial
  3
ObjectDBX Classes
 90
     1153
280
     0
281
     0
  0
CLASS
  1
SCALE
  2
AcDbScale
  3
ObjectDBX Classes
 90
     1153
280
     0
281
     0
  0
CLASS
  1
TABLESTYLE
  2
AcDbTableStyle
  3
ObjectDBX Classes
 90
     4095
280
     0
281
     0
  0
CLASS
  1
MLEADERSTYLE
  2
AcDbMLeaderStyle
  3
ACDB_MLEADERSTYLE_CLASS
 90
     4095
280
     0
281
     0
  0
CLASS
  1
SUN
  2
AcDbSun
  3
SCENEOE
 90
     1153
280
     0
281
     0
  0
CLASS
  1
ACDBPLACEHOLDER
  2
AcDbPlaceHolder
  3
ObjectDBX Classes
 90
        0
280
     0
281
     0
  0
CLASS
  1
LAYOUT
  2
AcDbLayout
  3
ObjectDBX Classes
 90
        0
280
     0
281
     0
  0
ENDSEC
  0
SECTION
  2
TABLES
  0
TABLE
  2
VPORT
  5
8
330
0
100
AcDbSymbolTable
 70
     1
  0
VPORT
  5
29
330
8
100
AcDbSymbolTableRecord
100
AcDbViewportTableRecord
  2
*Active
 70
     0
 10
0.0
 20
0.0
 11
1.0
 21
1.0
 12
420.5
 22
297.0
 13
0.0
 23
0.0
 14
10.0
 24
10.0
 15
10.0
 25
10.0
 16
0.0
 26
0.0
 36
1.0
 17
0.0
 27
0.0
 37
0.0
 40
594.0
 41
1.4158249158
 42
50.0
 43
0.0
 44
0.0
 50
0.0
 51
0.0
 71
     0
 72
  2000
 73
     1
 74
     3
 75
     0
 76
     0
 77
     0
 78
     0
281
     0
 65
     1
110
0.0
120
0.0
130
0.0
111
1.0
121
0.0
131
0.0
112
0.0
122
1.0
132
0.0
 79
     0
146
0.0
  0
ENDTAB
  0
TABLE
  2
LTYPE
  5
5
330
0
100
AcDbSymbolTable
 70
     6
  0
LTYPE
  5
14
330
5
100
AcDbSymbolTableRecord
100
AcDbLinetypeTableRecord
  2
ByBlock
 70
     0
  3

 72
    65
 73
     0
 40
0.0
  0
LTYPE
  5
15
330
5
100
AcDbSymbolTableRecord
100
AcDbLinetypeTableRecord
  2
ByLayer
 70
     0
  3

 72
    65
 73
     0
 40
0.0
  0
LTYPE
  5
16
330
5
100
AcDbSymbolTableRecord
100
AcDbLinetypeTableRecord
  2
Continuous
 70
     0
  3
Solid line
 72
    65
 73
     0
 40
0.0
  0
LTYPE
  5
5E
330
5
100
AcDbSymbolTableRecord
100
AcDbLinetypeTableRecord
  2
HIDDEN
 70
     0
  3
Hidden __ __ __ __ __ __ __ __ __ __ __ __ __ __
 72
    65
 73
     2
 40
1.905
 49
1.27
 74
     0
 49
-0.635
 74
     0
  0
LTYPE
  5
5F
330
5
100
AcDbSymbolTableRecord
100
AcDbLinetypeTableRecord
  2
PHANTOM
 70
     0
  3
Phantom ______  __  __  ______  __  __  ______
 72
    65
 73
     6
 40
12.7
 49
6.35
 74
     0
 49
-1.27
 74
     0
 49
1.27
 74
     0
 49
-1.27
 74
     0
 49
1.27
 74
     0
 49
-1.27
 74
     0
  0
LTYPE
  5
60
330
5
100
AcDbSymbolTableRecord
100
AcDbLinetypeTableRecord
  2
CENTER
 70
     0
  3
Center ____ _ ____ _ ____ _ ____ _ ____ _ ____
 72
    65
 73
     4
 40
10.16
 49
6.35
 74
     0
 49
-1.27
 74
     0
 49
1.27
 74
     0
 49
-1.27
 74
     0
  0
LTYPE
  5
61
330
5
100
AcDbSymbolTableRecord
100
AcDbLinetypeTableRecord
  2
CENTERX2
 70
     0
  3
Center (2x) ________  __  ________  __  _____
 72
    65
 73
     4
 40
20.32
 49
12.7
 74
     0
 49
-2.54
 74
     0
 49
2.54
 74
     0
 49
-2.54
 74
     0
  0
LTYPE
  5
62
330
5
100
AcDbSymbolTableRecord
100
AcDbLinetypeTableRecord
  2
DOT2
 70
     0
  3
Dot (.5x) ........................................
 72
    65
 73
     2
 40
0.635
 49
0.0
 74
     0
 49
-0.635
 74
     0
  0
ENDTAB
  0
TABLE
  2
LAYER
  5
2
330
0
100
AcDbSymbolTable
 70
     1
  0
LAYER
  5
10
330
2
100
AcDbSymbolTableRecord
100
AcDbLayerTableRecord
  2
0
 70
     0
 62
     7
  6
Continuous
370
    -3
390
F
  0
ENDTAB
  0
TABLE
  2
STYLE
  5
3
330
0
100
AcDbSymbolTable
 70
     1
  0
STYLE
  5
11
330
3
100
AcDbSymbolTableRecord
100
AcDbTextStyleTableRecord
  2
Standard
 70
     0
 40
0.0
 41
1.0
 50
0.0
 71
     0
 42
3.5
  3
txt
  4
bigfont
  0
ENDTAB
  0
TABLE
  2
VIEW
  5
6
330
0
100
AcDbSymbolTable
 70
     0
  0
ENDTAB
  0
TABLE
  2
UCS
  5
7
330
0
100
AcDbSymbolTable
 70
     0
  0
ENDTAB
  0
TABLE
  2
APPID
  5
9
330
0
100
AcDbSymbolTable
 70
     1
  0
APPID
  5
12
330
9
100
AcDbSymbolTableRecord
100
AcDbRegAppTableRecord
  2
ACAD
 70
     0
  0
ENDTAB
  0
TABLE
  2
DIMSTYLE
  5
A
330
0
100
AcDbSymbolTable
 70
     1
100
AcDbDimStyleTable
  0
DIMSTYLE
105
27
330
A
100
AcDbSymbolTableRecord
100
AcDbDimStyleTableRecord
  2
ISO-25
 70
     0
 41
2.5
 42
0.625
 43
3.75
 44
1.25
 73
     0
 74
     0
 77
     1
 78
     8
140
2.5
141
2.5
143
0.0393700787
147
0.625
171
     3
172
     1
178
     0
271
     2
272
     2
274
     3
278
    44
283
     0
284
     8
340
11
  0
ENDTAB
  0
TABLE
  2
BLOCK_RECORD
  5
1
330
0
100
AcDbSymbolTable
 70
     1
  0
BLOCK_RECORD
  5
1F
330
1
100
AcDbSymbolTableRecord
100
AcDbBlockTableRecord
  2
*Model_Space
340
22
  0
BLOCK_RECORD
  5
1B
330
1
100
AcDbSymbolTableRecord
100
AcDbBlockTableRecord
  2
*Paper_Space
340
1E
  0
BLOCK_RECORD
  5
23
330
1
100
AcDbSymbolTableRecord
100
AcDbBlockTableRecord
  2
*Paper_Space0
340
26
  0
ENDTAB
  0
ENDSEC
  0
SECTION
  2
BLOCKS
  0
BLOCK
  5
20
330
1F
100
AcDbEntity
  8
0
100
AcDbBlockBegin
  2
*Model_Space
 70
     0
 10
0.0
 20
0.0
 30
0.0
  3
*Model_Space
  1

  0
ENDBLK
  5
21
330
1F
100
AcDbEntity
  8
0
100
AcDbBlockEnd
  0
BLOCK
  5
1C
330
1B
100
AcDbEntity
 67
     1
  8
0
100
AcDbBlockBegin
  2
*Paper_Space
 70
     0
 10
0.0
 20
0.0
 30
0.0
  3
*Paper_Space
  1

  0
ENDBLK
  5
1D
330
1B
100
AcDbEntity
 67
     1
  8
0
100
AcDbBlockEnd
  0
BLOCK
  5
24
330
23
100
AcDbEntity
  8
0
100
AcDbBlockBegin
  2
*Paper_Space0
 70
     0
 10
0.0
 20
0.0
 30
0.0
  3
*Paper_Space0
  1

  0
ENDBLK
  5
25
330
23
100
AcDbEntity
  8
0
100
AcDbBlockEnd
  0
ENDSEC
  0
SECTION
  2
ENTITIES
  0
ARC
  5
63
330
1F
100
AcDbEntity
  8
0
  6
Continuous
 62
     7
370
    25
100
AcDbCircle
 10
370.2352236891
 20
244.2999343977
 30
0.0
 40
4.75
100
AcDbArc
 50
180.0
 51
0.0
  0
LINE
  5
64
330
1F
100
AcDbEntity
  8
0
  6
Continuous
 62
     7
370
    25
100
AcDbLine
 10
382.7352236891
 20
256.7999343977
 30
0.0
 11
357.7352236891
 21
256.7999343977
 31
0.0
  0
LINE
  5
65
330
1F
100
AcDbEntity
  8
0
  6
Continuous
 62
     7
370
    25
100
AcDbLine
 10
357.7352236891
 20
256.7999343977
 30
0.0
 11
357.7352236891
 21
231.7999343977
 31
0.0
  0
LINE
  5
66
330
1F
100
AcDbEntity
  8
0
  6
Continuous
 62
     7
370
    25
100
AcDbLine
 10
357.7352236891
 20
231.7999343977
 30
0.0
 11
382.7352236891
 21
231.7999343977
 31
0.0
  0
ARC
  5
67
330
1F
100
AcDbEntity
  8
0
  6
Continuous
 62
     7
370
    25
100
AcDbCircle
 10
370.2352236891
 20
244.2999343977
 30
0.0
 40
4.75
100
AcDbArc
 50
0.0
 51
180.0
  0
LINE
  5
68
330
1F
100
AcDbEntity
  8
0
  6
Continuous
 62
     7
370
    25
100
AcDbLine
 10
382.7352236891
 20
231.7999343977
 30
0.0
 11
382.7352236891
 21
256.7999343977
 31
0.0
  0
ARC
  5
69
330
1F
100
AcDbEntity
  8
0
  6
Continuous
 62
     7
370
    25
100
AcDbCircle
 10
370.2352236891
 20
244.2999343977
 30
0.0
 40
2.75
100
AcDbArc
 50
180.0
 51
0.0
  0
ARC
  5
6A
330
1F
100
AcDbEntity
  8
0
  6
Continuous
 62
     7
370
    25
100
AcDbCircle
 10
370.2352236891
 20
244.2999343977
 30
0.0
 40
2.75
100
AcDbArc
 50
0.0
 51
180.0
  0
LINE
  5
6B
330
1F
100
AcDbEntity
  8
0
  6
Continuous
 62
     7
370
    25
100
AcDbLine
 10
382.7352236891
 20
327.88
 30
0.0
 11
357.7352236891
 21
327.88
 31
0.0
  0
LINE
  5
6C
330
1F
100
AcDbEntity
  8
0
  6
Continuous
 62
     7
370
    25
100
AcDbLine
 10
357.7352236891
 20
327.88
 30
0.0
 11
357.7352236891
 21
354.88
 31
0.0
  0
LINE
  5
6D
330
1F
100
AcDbEntity
  8
0
  6
Continuous
 62
     7
370
    25
100
AcDbLine
 10
382.7352236891
 20
354.88
 30
0.0
 11
357.7352236891
 21
354.88
 31
0.0
  0
LINE
  5
6E
330
1F
100
AcDbEntity
  8
0
  6
Continuous
 62
     7
370
    25
100
AcDbLine
 10
382.7352236891
 20
327.88
 30
0.0
 11
382.7352236891
 21
354.88
 31
0.0
  0
LINE
  5
6F
330
1F
100
AcDbEntity
  8
0
  6
HIDDEN
 62
     7
370
    18
100
AcDbLine
 10
374.9852236891
 20
339.88
 30
0.0
 11
374.9852236891
 21
327.88
 31
0.0
  0
LINE
  5
70
330
1F
100
AcDbEntity
  8
0
  6
HIDDEN
 62
     7
370
    18
100
AcDbLine
 10
365.4852236891
 20
339.88
 30
0.0
 11
365.4852236891
 21
327.88
 31
0.0
  0
LINE
  5
71
330
1F
100
AcDbEntity
  8
0
  6
HIDDEN
 62
     7
370
    18
100
AcDbLine
 10
374.9852236891
 20
339.88
 30
0.0
 11
365.4852236891
 21
339.88
 31
0.0
  0
LINE
  5
72
330
1F
100
AcDbEntity
  8
0
  6
HIDDEN
 62
     7
370
    18
100
AcDbLine
 10
367.4852236891
 20
339.88
 30
0.0
 11
367.4852236891
 21
354.88
 31
0.0
  0
LINE
  5
73
330
1F
100
AcDbEntity
  8
0
  6
HIDDEN
 62
     7
370
    18
100
AcDbLine
 10
372.9852236891
 20
339.88
 30
0.0
 11
372.9852236891
 21
354.88
 31
0.0
  0
LINE
  5
74
330
1F
100
AcDbEntity
  8
0
  6
Continuous
 62
     7
370
    25
100
AcDbLine
 10
451.38
 20
231.7999343977
 30
0.0
 11
478.38
 21
231.7999343977
 31
0.0
  0
LINE
  5
75
330
1F
100
AcDbEntity
  8
0
  6
Continuous
 62
     7
370
    25
100
AcDbLine
 10
451.38
 20
231.7999343977
 30
0.0
 11
451.38
 21
256.7999343977
 31
0.0
  0
LINE
  5
76
330
1F
100
AcDbEntity
  8
0
  6
Continuous
 62
     7
370
    25
100
AcDbLine
 10
451.38
 20
256.7999343977
 30
0.0
 11
478.38
 21
256.7999343977
 31
0.0
  0
LINE
  5
77
330
1F
100
AcDbEntity
  8
0
  6
Continuous
 62
     7
370
    25
100
AcDbLine
 10
478.38
 20
231.7999343977
 30
0.0
 11
478.38
 21
256.7999343977
 31
0.0
  0
LINE
  5
78
330
1F
100
AcDbEntity
  8
0
  6
HIDDEN
 62
     7
370
    18
100
AcDbLine
 10
463.38
 20
244.2999343977
 30
0.0
 11
463.38
 21
249.0499343977
 31
0.0
  0
LINE
  5
79
330
1F
100
AcDbEntity
  8
0
  6
HIDDEN
 62
     7
370
    18
100
AcDbLine
 10
463.38
 20
239.5499343977
 30
0.0
 11
463.38
 21
244.2999343977
 31
0.0
  0
LINE
  5
7A
330
1F
100
AcDbEntity
  8
0
  6
HIDDEN
 62
     7
370
    18
100
AcDbLine
 10
463.38
 20
249.0499343977
 30
0.0
 11
451.38
 21
249.0499343977
 31
0.0
  0
LINE
  5
7B
330
1F
100
AcDbEntity
  8
0
  6
HIDDEN
 62
     7
370
    18
100
AcDbLine
 10
451.38
 20
239.5499343977
 30
0.0
 11
463.38
 21
239.5499343977
 31
0.0
  0
LINE
  5
7C
330
1F
100
AcDbEntity
  8
0
  6
HIDDEN
 62
     7
370
    18
100
AcDbLine
 10
478.38
 20
247.0499343977
 30
0.0
 11
463.38
 21
247.0499343977
 31
0.0
  0
LINE
  5
7D
330
1F
100
AcDbEntity
  8
0
  6
HIDDEN
 62
     7
370
    18
100
AcDbLine
 10
463.38
 20
241.5499343977
 30
0.0
 11
478.38
 21
241.5499343977
 31
0.0
  0
LINE
  5
7E
330
1F
100
AcDbEntity
  8
0
  6
HIDDEN
 62
     7
370
    18
100
AcDbLine
 10
463.38
 20
244.2999343977
 30
0.0
 11
451.38
 21
244.2999343977
 31
0.0
  0
LINE
  5
7F
330
1F
100
AcDbEntity
  8
0
  6
HIDDEN
 62
     7
370
    18
100
AcDbLine
 10
463.38
 20
244.2999343977
 30
0.0
 11
478.38
 21
244.2999343977
 31
0.0
  0
LINE
  5
80
330
1F
100
AcDbEntity
  8
0
  6
Continuous
 62
     7
370
    25
100
AcDbLine
 10
464.1728932188
 20
320.5599343977
 30
0.0
 11
483.2647763109
 21
331.5814439073
 31
0.0
  0
LINE
  5
81
330
1F
100
AcDbEntity
  8
0
  6
Continuous
 62
     7
370
    25
100
AcDbLine
 10
464.1728932188
 20
320.5599343977
 30
0.0
 11
464.1728932188
 21
340.9734546949
 31
0.0
  0
LINE
  5
82
330
1F
100
AcDbEntity
  8
0
  6
Continuous
 62
     7
370
    25
100
AcDbLine
 10
464.1728932188
 20
340.9734546949
 30
0.0
 11
483.2647763109
 21
351.9949642045
 31
0.0
  0
LINE
  5
83
330
1F
100
AcDbEntity
  8
0
  6
Continuous
 62
     7
370
    25
100
AcDbLine
 10
483.2647763109
 20
331.5814439073
 30
0.0
 11
483.2647763109
 21
351.9949642045
 31
0.0
  0
LINE
  5
84
330
1F
100
AcDbEntity
  8
0
  6
Continuous
 62
     7
370
    25
100
AcDbLine
 10
446.4952236891
 20
330.7650357955
 30
0.0
 11
464.1728932188
 21
320.5599343977
 31
0.0
  0
LINE
  5
85
330
1F
100
AcDbEntity
  8
0
  6
Continuous
 62
     7
370
    25
100
AcDbLine
 10
446.4952236891
 20
351.1785560927
 30
0.0
 11
446.4952236891
 21
330.7650357955
 31
0.0
  0
LINE
  5
86
330
1F
100
AcDbEntity
  8
0
  6
Continuous
 62
     7
370
    25
100
AcDbLine
 10
464.1728932188
 20
340.9734546949
 30
0.0
 11
446.4952236891
 21
351.1785560927
 31
0.0
  0
LWPOLYLINE
  5
87
330
1F
100
AcDbEntity
  8
0
  6
Continuous
 62
     7
370
    25
100
AcDbPolyline
 90
       40
 70
   128
 43
0.0
 10
451.9753012433
 20
337.8082145108
 10
451.986192658
 20
337.4898319035
 10
452.0187962671
 20
337.1609391699
 10
452.0729006236
 20
336.8236693055
 10
452.14815484
 20
336.4802096348
 10
452.244070864
 20
336.1327876256
 10
452.3600266431
 20
335.783656443
 10
452.4952701598
 20
335.4350803366
 10
452.6489243079
 20
335.0893199562
 10
452.8199925813
 20
334.7486176906
 10
453.0073655366
 20
334.4151831247
 10
453.2098279884
 20
334.0911787096
 10
453.4260668898
 20
333.7787057383
 10
453.6546798487
 20
333.479790718
 10
453.8941842222
 20
333.1963722271
 10
454.1430267327
 20
332.9302883434
 10
454.3995935409
 20
332.683264723
 10
454.6622207127
 20
332.4569034089
 10
454.92920501
 20
332.252672441
 10
455.1988149373
 20
332.0718963355
 10
455.4693019707
 20
331.9157474949
 10
455.7389118979
 20
331.7852386042
 10
456.0058961953
 20
331.6812160638
 10
456.268523367
 20
331.6043544997
 10
456.5250901753
 20
331.5551523886
 10
456.7739326857
 20
331.5339288252
 10
457.0134370593
 20
331.5408214524
 10
457.2420500182
 20
331.5757855688
 10
457.4582889196
 20
331.6385944188
 10
457.6607513713
 20
331.7288406628
 10
457.8481243266
 20
331.8459390193
 10
458.0191926001
 20
331.9891300605
 10
458.1728467482
 20
332.1574851377
 10
458.3080902648
 20
332.3499124035
 10
458.424046044
 20
332.5651638932
 10
458.5199620679
 20
332.8018436184
 10
458.5952162844
 20
333.0584166202
 10
458.6493206409
 20
333.3332189242
 10
458.6819242499
 20
333.6244683321
 10
458.6928156646
 20
333.9302759796
  0
LWPOLYLINE
  5
88
330
1F
100
AcDbEntity
  8
0
  6
Continuous
 62
     7
370
    25
100
AcDbPolyline
 90
       40
 70
   128
 43
0.0
 10
458.6928156646
 20
333.9302759796
 10
458.6819242499
 20
334.2486585869
 10
458.6493206409
 20
334.5775513205
 10
458.5952162844
 20
334.9148211849
 10
458.5199620679
 20
335.2582808556
 10
458.424046044
 20
335.6057028648
 10
458.3080902648
 20
335.9548340474
 10
458.1728467482
 20
336.3034101538
 10
458.0191926001
 20
336.6491705342
 10
457.8481243266
 20
336.9898727998
 10
457.6607513713
 20
337.3233073657
 10
457.4582889196
 20
337.6473117808
 10
457.2420500182
 20
337.959784752
 10
457.0134370593
 20
338.2586997724
 10
456.7739326857
 20
338.5421182633
 10
456.5250901753
 20
338.808202147
 10
456.268523367
 20
339.0552257674
 10
456.0058961953
 20
339.2815870815
 10
455.7389118979
 20
339.4858180494
 10
455.4693019707
 20
339.6665941549
 10
455.1988149373
 20
339.8227429955
 10
454.92920501
 20
339.9532518862
 10
454.6622207127
 20
340.0572744266
 10
454.3995935409
 20
340.1341359907
 10
454.1430267327
 20
340.1833381018
 10
453.8941842222
 20
340.2045616652
 10
453.6546798487
 20
340.197669038
 10
453.4260668898
 20
340.1627049216
 10
453.2098279884
 20
340.0998960716
 10
453.0073655366
 20
340.0096498276
 10
452.8199925813
 20
339.8925514711
 10
452.6489243079
 20
339.7493604299
 10
452.4952701598
 20
339.5810053527
 10
452.3600266431
 20
339.3885780869
 10
452.244070864
 20
339.1733265972
 10
452.14815484
 20
338.936646872
 10
452.0729006236
 20
338.6800738702
 10
452.0187962671
 20
338.4052715662
 10
451.986192658
 20
338.1140221583
 10
451.9753012433
 20
337.8082145108
  0
LINE
  5
89
330
1F
100
AcDbEntity
  8
0
  6
Continuous
 62
     7
370
    25
100
AcDbLine
 10
446.4952236891
 20
351.1785560927
 30
0.0
 11
465.5871067812
 21
362.2000656023
 31
0.0
  0
LINE
  5
8A
330
1F
100
AcDbEntity
  8
0
  6
Continuous
 62
     7
370
    25
100
AcDbLine
 10
483.2647763109
 20
351.9949642045
 30
0.0
 11
465.5871067812
 21
362.2000656023
 31
0.0
  0
LINE
  5
8B
330
1F
100
AcDbEntity
  8
0
  6
PHANTOM
 62
     8
370
    18
100
AcDbLine
 10
455.3346043465
 20
339.7474989134
 30
0.0
 11
451.9753012433
 21
337.8082145108
 31
0.0
  0
LWPOLYLINE
  5
8C
330
1F
100
AcDbEntity
  8
0
  6
HIDDEN
 62
     7
370
    18
100
AcDbPolyline
 90
       40
 70
   128
 43
0.0
 10
467.1780970389
 20
338.8287246506
 10
467.1672056242
 20
339.1471072578
 10
467.1346020151
 20
339.4759999915
 10
467.0804976586
 20
339.8132698558
 10
467.0052434422
 20
340.1567295265
 10
466.9093274182
 20
340.5041515357
 10
466.7933716391
 20
340.8532827183
 10
466.6581281224
 20
341.2018588248
 10
466.5044739743
 20
341.5476192051
 10
466.3334057009
 20
341.8883214707
 10
466.1460327456
 20
342.2217560366
 10
465.9435702938
 20
342.5457604517
 10
465.7273313924
 20
342.858233423
 10
465.4987184335
 20
343.1571484434
 10
465.25921406
 20
343.4405669342
 10
465.0103715495
 20
343.7066508179
 10
464.7538047413
 20
343.9536744383
 10
464.4911775695
 20
344.1800357524
 10
464.2241932722
 20
344.3842667203
 10
463.9545833449
 20
344.5650428258
 10
463.6840963115
 20
344.7211916665
 10
463.4144863843
 20
344.8517005571
 10
463.1475020869
 20
344.9557230975
 10
462.8848749152
 20
345.0325846617
 10
462.6283081069
 20
345.0817867727
 10
462.3794655965
 20
345.1030103361
 10
462.1399612229
 20
345.0961177089
 10
461.911348264
 20
345.0611535925
 10
461.6951093626
 20
344.9983447426
 10
461.4926469109
 20
344.9080984986
 10
461.3052739556
 20
344.7910001421
 10
461.1342056821
 20
344.6478091008
 10
460.980551534
 20
344.4794540236
 10
460.8453080174
 20
344.2870267579
 10
460.7293522382
 20
344.0717752681
 10
460.6334362143
 20
343.8350955429
 10
460.5581819978
 20
343.5785225412
 10
460.5040776413
 20
343.3037202371
 10
460.4714740323
 20
343.0124708293
 10
460.4605826176
 20
342.7066631817
  0
LWPOLYLINE
  5
8D
330
1F
100
AcDbEntity
  8
0
  6
HIDDEN
 62
     7
370
    18
100
AcDbPolyline
 90
       40
 70
   128
 43
0.0
 10
460.4605826176
 20
342.7066631817
 10
460.4714740323
 20
342.3882805744
 10
460.5040776413
 20
342.0593878408
 10
460.5581819978
 20
341.7221179764
 10
460.6334362143
 20
341.3786583058
 10
460.7293522382
 20
341.0312362966
 10
460.8453080174
 20
340.6821051139
 10
460.980551534
 20
340.3335290075
 10
461.1342056821
 20
339.9877686271
 10
461.3052739556
 20
339.6470663615
 10
461.4926469109
 20
339.3136317956
 10
461.6951093626
 20
338.9896273806
 10
461.911348264
 20
338.6771544093
 10
462.1399612229
 20
338.3782393889
 10
462.3794655965
 20
338.094820898
 10
462.6283081069
 20
337.8287370144
 10
462.8848749152
 20
337.581713394
 10
463.1475020869
 20
337.3553520798
 10
463.4144863843
 20
337.1511211119
 10
463.6840963115
 20
336.9703450064
 10
463.9545833449
 20
336.8141961658
 10
464.2241932722
 20
336.6836872751
 10
464.4911775695
 20
336.5796647347
 10
464.7538047413
 20
336.5028031706
 10
465.0103715495
 20
336.4536010596
 10
465.25921406
 20
336.4323774962
 10
465.4987184335
 20
336.4392701233
 10
465.7273313924
 20
336.4742342397
 10
465.9435702938
 20
336.5370430897
 10
466.1460327456
 20
336.6272893337
 10
466.3334057009
 20
336.7443876902
 10
466.5044739743
 20
336.8875787315
 10
466.6581281224
 20
337.0559338086
 10
466.7933716391
 20
337.2483610744
 10
466.9093274182
 20
337.4636125641
 10
467.0052434422
 20
337.7002922893
 10
467.0804976586
 20
337.9568652911
 10
467.1346020151
 20
338.2316675951
 10
467.1672056242
 20
338.522917003
 10
467.1780970389
 20
338.8287246506
  0
LINE
  5
8E
330
1F
100
AcDbEntity
  8
0
  6
HIDDEN
 62
     7
370
    18
100
AcDbLine
 10
446.4952236891
 20
330.7650357955
 30
0.0
 11
465.5871067812
 21
341.7865453051
 31
0.0
  0
LINE
  5
8F
330
1F
100
AcDbEntity
  8
0
  6
HIDDEN
 62
     7
370
    18
100
AcDbLine
 10
465.5871067812
 20
362.2000656023
 30
0.0
 11
465.5871067812
 21
341.7865453051
 31
0.0
  0
LINE
  5
90
330
1F
100
AcDbEntity
  8
0
  6
HIDDEN
 62
     7
370
    18
100
AcDbLine
 10
465.5871067812
 20
341.7865453051
 30
0.0
 11
483.2647763109
 21
331.5814439073
 31
0.0
  0
LWPOLYLINE
  5
91
330
1F
100
AcDbEntity
  8
0
  6
HIDDEN
 62
     7
370
    18
100
AcDbPolyline
 90
       30
 70
   128
 43
0.0
 10
465.7638834765
 20
339.6451327624
 10
465.7524844783
 20
339.8944931394
 10
465.7184211266
 20
340.1540909972
 10
465.662092783
 20
340.4208827882
 10
465.5841598459
 20
340.6917406226
 10
465.4855360076
 20
340.9634889399
 10
465.3673775426
 20
341.2329417396
 10
465.2310697507
 20
341.4969399339
 10
465.0782107163
 20
341.7523883854
 10
464.9105925717
 20
341.9962921946
 10
464.7301804864
 20
342.2257918122
 10
464.5390896272
 20
342.4381965652
 10
464.3395603596
 20
342.631016202
 10
464.133931982
 20
342.8019900887
 10
463.924615299
 20
342.9491137127
 10
463.7140643574
 20
343.070662184
 10
463.5047476744
 20
343.1652104581
 10
463.2991192968
 20
343.2316500428
 10
463.0995900293
 20
343.2692019947
 10
462.9084991701
 20
343.2774260515
 10
462.7280870848
 20
343.2562257937
 10
462.5604689402
 20
343.2058497749
 10
462.4076099057
 20
343.1268886079
 10
462.2713021139
 20
343.0202680402
 10
462.1531436488
 20
342.8872381005
 10
462.0545198106
 20
342.7293584431
 10
461.9765868734
 20
342.5484800626
 10
461.9202585299
 20
342.3467235928
 10
461.8861951781
 20
342.1264544438
 10
461.87479618
 20
341.8902550699
  0
LWPOLYLINE
  5
92
330
1F
100
AcDbEntity
  8
0
  6
HIDDEN
 62
     7
370
    18
100
AcDbPolyline
 90
       30
 70
   128
 43
0.0
 10
461.87479618
 20
341.8902550699
 10
461.8861951781
 20
341.6408946928
 10
461.9202585299
 20
341.381296835
 10
461.9765868734
 20
341.114505044
 10
462.0545198106
 20
340.8436472097
 10
462.1531436488
 20
340.5718988924
 10
462.2713021139
 20
340.3024460927
 10
462.4076099057
 20
340.0384478984
 10
462.5604689402
 20
339.7829994469
 10
462.7280870848
 20
339.5390956377
 10
462.9084991701
 20
339.30959602
 10
463.0995900293
 20
339.097191267
 10
463.2991192968
 20
338.9043716302
 10
463.5047476744
 20
338.7333977436
 10
463.7140643574
 20
338.5862741196
 10
463.924615299
 20
338.4647256482
 10
464.133931982
 20
338.3701773742
 10
464.3395603596
 20
338.3037377895
 10
464.5390896272
 20
338.2661858376
 10
464.7301804864
 20
338.2579617808
 10
464.9105925717
 20
338.2791620386
 10
465.0782107163
 20
338.3295380573
 10
465.2310697507
 20
338.4084992243
 10
465.3673775426
 20
338.515119792
 10
465.4855360076
 20
338.6481497318
 10
465.5841598459
 20
338.8060293892
 10
465.662092783
 20
338.9869077696
 10
465.7184211266
 20
339.1886642394
 10
465.7524844783
 20
339.4089333885
 10
465.7638834765
 20
339.6451327624
  0
LWPOLYLINE
  5
93
330
1F
100
AcDbEntity
  8
0
  6
HIDDEN
 62
     7
370
    18
100
AcDbPolyline
 90
       30
 70
   128
 43
0.0
 10
476.3704851943
 20
345.768193601
 10
476.3590861961
 20
346.0175539781
 10
476.3250228444
 20
346.2771518359
 10
476.2686945008
 20
346.5439436269
 10
476.1907615637
 20
346.8148014613
 10
476.0921377254
 20
347.0865497786
 10
475.9739792604
 20
347.3560025782
 10
475.8376714685
 20
347.6200007725
 10
475.6848124341
 20
347.8754492241
 10
475.5171942895
 20
348.1193530332
 10
475.3367822042
 20
348.3488526509
 10
475.145691345
 20
348.5612574039
 10
474.9461620774
 20
348.7540770407
 10
474.7405336998
 20
348.9250509273
 10
474.5312170168
 20
349.0721745513
 10
474.3206660752
 20
349.1937230227
 10
474.1113493922
 20
349.2882712968
 10
473.9057210146
 20
349.3547108814
 10
473.7061917471
 20
349.3922628333
 10
473.5151008879
 20
349.4004868902
 10
473.3346888026
 20
349.3792866324
 10
473.167070658
 20
349.3289106136
 10
473.0142116235
 20
349.2499494466
 10
472.8779038317
 20
349.1433288789
 10
472.7597453666
 20
349.0102989391
 10
472.6611215284
 20
348.8524192817
 10
472.5831885912
 20
348.6715409013
 10
472.5268602476
 20
348.4697844315
 10
472.4927968959
 20
348.2495152825
 10
472.4813978978
 20
348.0133159086
  0
LWPOLYLINE
  5
94
330
1F
100
AcDbEntity
  8
0
  6
HIDDEN
 62
     7
370
    18
100
AcDbPolyline
 90
       30
 70
   128
 43
0.0
 10
472.4813978978
 20
348.0133159086
 10
472.4927968959
 20
347.7639555315
 10
472.5268602476
 20
347.5043576737
 10
472.5831885912
 20
347.2375658827
 10
472.6611215284
 20
346.9667080483
 10
472.7597453666
 20
346.694959731
 10
472.8779038317
 20
346.4255069314
 10
473.0142116235
 20
346.1615087371
 10
473.167070658
 20
345.9060602855
 10
473.3346888026
 20
345.6621564764
 10
473.5151008879
 20
345.4326568587
 10
473.7061917471
 20
345.2202521057
 10
473.9057210146
 20
345.0274324689
 10
474.1113493922
 20
344.8564585823
 10
474.3206660752
 20
344.7093349583
 10
474.5312170168
 20
344.5877864869
 10
474.7405336998
 20
344.4932382129
 10
474.9461620774
 20
344.4267986282
 10
475.145691345
 20
344.3892466763
 10
475.3367822042
 20
344.3810226195
 10
475.5171942895
 20
344.4022228772
 10
475.6848124341
 20
344.452598896
 10
475.8376714685
 20
344.531560063
 10
475.9739792604
 20
344.6381806307
 10
476.0921377254
 20
344.7712105705
 10
476.1907615637
 20
344.9290902279
 10
476.2686945008
 20
345.1099686083
 10
476.3250228444
 20
345.3117250781
 10
476.3590861961
 20
345.5319942271
 10
476.3704851943
 20
345.768193601
  0
LINE
  5
95
330
1F
100
AcDbEntity
  8
0
  6
HIDDEN
 62
     7
370
    18
100
AcDbLine
 10
461.4445328382
 20
344.8814260124
 30
0.0
 11
452.959251464
 21
339.9829773415
 31
0.0
  0
LINE
  5
96
330
1F
100
AcDbEntity
  8
0
  6
HIDDEN
 62
     7
370
    18
100
AcDbLine
 10
457.708865444
 20
331.7555131489
 30
0.0
 11
466.1941468182
 21
336.6539618198
 31
0.0
  0
LINE
  5
97
330
1F
100
AcDbEntity
  8
0
  6
HIDDEN
 62
     7
370
    18
100
AcDbLine
 10
473.0510532886
 20
349.2723891264
 30
0.0
 11
462.4444515708
 21
343.1493282877
 31
0.0
  0
LINE
  5
98
330
1F
100
AcDbEntity
  8
0
  6
HIDDEN
 62
     7
370
    18
100
AcDbLine
 10
465.1942280856
 20
338.3860595446
 30
0.0
 11
475.8008298034
 21
344.5091203833
 31
0.0
  0
LINE
  5
99
330
1F
100
AcDbEntity
  8
0
  6
HIDDEN
 62
     7
370
    18
100
AcDbLine
 10
467.1780970389
 20
338.8287246506
 30
0.0
 11
458.6928156646
 21
333.9302759796
 31
0.0
  0
LINE
  5
9A
330
1F
100
AcDbEntity
  8
0
  6
HIDDEN
 62
     7
370
    18
100
AcDbLine
 10
460.4605826176
 20
342.7066631817
 30
0.0
 11
455.3346043465
 21
339.7474989134
 31
0.0
  0
LINE
  5
9B
330
1F
100
AcDbEntity
  8
0
  6
HIDDEN
 62
     7
370
    18
100
AcDbLine
 10
461.87479618
 20
341.8902550699
 30
0.0
 11
472.4813978978
 21
348.0133159086
 31
0.0
  0
LINE
  5
9C
330
1F
100
AcDbEntity
  8
0
  6
HIDDEN
 62
     7
370
    18
100
AcDbLine
 10
465.7638834765
 20
339.6451327624
 30
0.0
 11
476.3704851943
 21
345.768193601
 31
0.0
  0
ENDSEC
  0
SECTION
  2
OBJECTS
  0
DICTIONARY
  5
C
330
0
100
AcDbDictionary
281
     1
  3
ACAD_GROUP
350
D
  3
ACAD_LAYOUT
350
1A
  3
ACAD_MLINESTYLE
350
17
  3
ACAD_PLOTSETTINGS
350
19
  3
ACAD_PLOTSTYLENAME
350
E
  3
ACAD_SCALELIST
350
47
  3
DWGPROPS
350
9D
  0
DICTIONARY
  5
D
102
{ACAD_REACTORS
330
C
102
}
330
C
100
AcDbDictionary
281
     1
  0
DICTIONARY
  5
1A
102
{ACAD_REACTORS
330
C
102
}
330
C
100
AcDbDictionary
281
     1
  3
Layout1
350
1E
  3
Layout2
350
26
  3
Model
350
22
  0
DICTIONARY
  5
17
102
{ACAD_REACTORS
330
C
102
}
330
C
100
AcDbDictionary
281
     1
  3
Standard
350
18
  0
DICTIONARY
  5
19
102
{ACAD_REACTORS
330
C
102
}
330
C
100
AcDbDictionary
281
     1
  0
ACDBDICTIONARYWDFLT
  5
E
102
{ACAD_REACTORS
330
C
102
}
330
C
100
AcDbDictionary
281
     1
  3
Normal
350
F
100
AcDbDictionaryWithDefault
340
F
  0
DICTIONARY
  5
47
102
{ACAD_REACTORS
330
C
102
}
330
C
100
AcDbDictionary
281
     1
  3
A0
350
48
  3
A1
350
49
  3
A2
350
4A
  3
A3
350
4B
  3
A4
350
4C
  3
A5
350
4D
  3
A6
350
4E
  3
A7
350
4F
  3
A8
350
50
  3
A9
350
51
  3
B0
350
52
  3
B1
350
53
  3
B2
350
54
  3
B3
350
55
  3
B4
350
56
  3
B5
350
57
  3
B6
350
58
  0
XRECORD
  5
9D
102
{ACAD_REACTORS
330
C
102
}
330
C
100
AcDbXrecord
280
     1
  1
DWGPROPS COOKIE
  2

  3

  4

  6

  7

  8
imaizumi
  9

300
=
301
=
302
=
303
=
304
=
305
=
306
=
307
=
308
=
309
=
 40
0.0
 41
2461263.006078218
 42
2461263.00607875
  1

 90
        0
  0
LAYOUT
  5
1E
102
{ACAD_REACTORS
330
1A
102
}
330
1A
100
AcDbPlotSettings
  1

  2
none_device
  4

  6

 40
0.0
 41
0.0
 42
0.0
 43
0.0
 44
0.0
 45
0.0
 46
0.0
 47
0.0
 48
0.0
 49
0.0
140
0.0
141
0.0
142
1.0
143
1.0
 70
   688
 72
     1
 73
     0
 74
     5
  7

 75
    16
147
1.0
148
0.0
149
0.0
100
AcDbLayout
  1
Layout1
 70
     1
 71
     1
 10
0.0
 20
0.0
 11
420.0
 21
297.0
 12
0.0
 22
0.0
 32
0.0
 14
1.0000000000E+20
 24
1.0000000000E+20
 34
1.0000000000E+20
 15
-1.0000000000E+20
 25
-1.0000000000E+20
 35
-1.0000000000E+20
146
0.0
 13
0.0
 23
0.0
 33
0.0
 16
1.0
 26
0.0
 36
0.0
 17
0.0
 27
1.0
 37
0.0
 76
     0
330
1B
  0
LAYOUT
  5
26
102
{ACAD_REACTORS
330
1A
102
}
330
1A
100
AcDbPlotSettings
  1

  2
none_device
  4

  6

 40
0.0
 41
0.0
 42
0.0
 43
0.0
 44
0.0
 45
0.0
 46
0.0
 47
0.0
 48
0.0
 49
0.0
140
0.0
141
0.0
142
1.0
143
1.0
 70
   688
 72
     1
 73
     0
 74
     5
  7

 75
    16
147
1.0
148
0.0
149
0.0
100
AcDbLayout
  1
Layout2
 70
     1
 71
     2
 10
0.0
 20
0.0
 11
0.0
 21
0.0
 12
0.0
 22
0.0
 32
0.0
 14
0.0
 24
0.0
 34
0.0
 15
0.0
 25
0.0
 35
0.0
146
0.0
 13
0.0
 23
0.0
 33
0.0
 16
1.0
 26
0.0
 36
0.0
 17
0.0
 27
1.0
 37
0.0
 76
     0
330
23
  0
LAYOUT
  5
22
102
{ACAD_REACTORS
330
1A
102
}
330
1A
100
AcDbPlotSettings
  1

  2
none_device
  4
Letter_(8.50_x_11.00_Inches)
  6

 40
6.35
 41
6.35
 42
6.35000508
 43
6.35000508
 44
215.9
 45
279.4
 46
0.0
 47
0.0
 48
0.0
 49
0.0
140
0.0
141
0.0
142
1.0
143
1.0
 70
  1712
 72
     1
 73
     0
 74
     0
  7

 75
     0
147
1.0
148
0.0
149
0.0
100
AcDbLayout
  1
Model
 70
     1
 71
     0
 10
0.0
 20
0.0
 11
841.0
 21
594.0
 12
0.0
 22
0.0
 32
0.0
 14
0.0
 24
0.0
 34
0.0
 15
841.0
 25
594.0
 35
0.0
146
0.0
 13
0.0
 23
0.0
 33
0.0
 16
1.0
 26
0.0
 36
0.0
 17
0.0
 27
1.0
 37
0.0
 76
     0
330
1F
331
29
  0
MLINESTYLE
  5
18
102
{ACAD_REACTORS
330
17
102
}
330
17
100
AcDbMlineStyle
  2
Standard
 70
     0
  3

 62
   256
 51
90.0
 52
90.0
 71
     2
 49
0.5
 62
   256
  6
BYLAYER
 49
-0.5
 62
   256
  6
BYLAYER
  0
ACDBPLACEHOLDER
  5
F
102
{ACAD_REACTORS
330
E
102
}
330
E
  0
SCALE
  5
48
102
{ACAD_REACTORS
330
47
102
}
330
47
100
AcDbScale
 70
     0
300
1:1
140
1.0
141
1.0
290
     1
  0
SCALE
  5
49
102
{ACAD_REACTORS
330
47
102
}
330
47
100
AcDbScale
 70
     0
300
1:2
140
1.0
141
2.0
290
     0
  0
SCALE
  5
4A
102
{ACAD_REACTORS
330
47
102
}
330
47
100
AcDbScale
 70
     0
300
1:4
140
1.0
141
4.0
290
     0
  0
SCALE
  5
4B
102
{ACAD_REACTORS
330
47
102
}
330
47
100
AcDbScale
 70
     0
300
1:5
140
1.0
141
5.0
290
     0
  0
SCALE
  5
4C
102
{ACAD_REACTORS
330
47
102
}
330
47
100
AcDbScale
 70
     0
300
1:8
140
1.0
141
8.0
290
     0
  0
SCALE
  5
4D
102
{ACAD_REACTORS
330
47
102
}
330
47
100
AcDbScale
 70
     0
300
1:10
140
1.0
141
10.0
290
     0
  0
SCALE
  5
4E
102
{ACAD_REACTORS
330
47
102
}
330
47
100
AcDbScale
 70
     0
300
1:16
140
1.0
141
16.0
290
     0
  0
SCALE
  5
4F
102
{ACAD_REACTORS
330
47
102
}
330
47
100
AcDbScale
 70
     0
300
1:20
140
1.0
141
20.0
290
     0
  0
SCALE
  5
50
102
{ACAD_REACTORS
330
47
102
}
330
47
100
AcDbScale
 70
     0
300
1:30
140
1.0
141
30.0
290
     0
  0
SCALE
  5
51
102
{ACAD_REACTORS
330
47
102
}
330
47
100
AcDbScale
 70
     0
300
1:40
140
1.0
141
40.0
290
     0
  0
SCALE
  5
52
102
{ACAD_REACTORS
330
47
102
}
330
47
100
AcDbScale
 70
     0
300
1:50
140
1.0
141
50.0
290
     0
  0
SCALE
  5
53
102
{ACAD_REACTORS
330
47
102
}
330
47
100
AcDbScale
 70
     0
300
1:100
140
1.0
141
100.0
290
     0
  0
SCALE
  5
54
102
{ACAD_REACTORS
330
47
102
}
330
47
100
AcDbScale
 70
     0
300
2:1
140
2.0
141
1.0
290
     0
  0
SCALE
  5
55
102
{ACAD_REACTORS
330
47
102
}
330
47
100
AcDbScale
 70
     0
300
4:1
140
4.0
141
1.0
290
     0
  0
SCALE
  5
56
102
{ACAD_REACTORS
330
47
102
}
330
47
100
AcDbScale
 70
     0
300
8:1
140
8.0
141
1.0
290
     0
  0
SCALE
  5
57
102
{ACAD_REACTORS
330
47
102
}
330
47
100
AcDbScale
 70
     0
300
10:1
140
10.0
141
1.0
290
     0
  0
SCALE
  5
58
102
{ACAD_REACTORS
330
47
102
}
330
47
100
AcDbScale
 70
     0
300
100:1
140
100.0
141
1.0
290
     0
  0
ENDSEC
  0
EOF
