  0
SECTION
  2
HEADER
  9
$ACADVER
  1
AC1015
  9
$ACADMAINTVER
 70
     6
  9
$DWGCODEPAGE
  3
DOS932
  9
$INSBASE
 10
0.0
 20
0.0
 30
0.0
  9
$EXTMIN
 10
0.0
 20
0.0
 30
0.0
  9
$EXTMAX
 10
841.0
 20
594.0
 30
0.0
  9
$LIMMIN
 10
0.0
 20
0.0
  9
$LIMMAX
 10
841.0
 20
594.0
  9
$ORTHOMODE
 70
     0
  9
$REGENMODE
 70
     1
  9
$FILLMODE
 70
     1
  9
$QTEXTMODE
 70
     0
  9
$MIRRTEXT
 70
     1
  9
$LTSCALE
 40
1.0
  9
$ATTMODE
 70
     1
  9
$TEXTSIZE
 40
3.5
  9
$TRACEWID
 40
1.0
  9
$TEXTSTYLE
  7
Standard
  9
$CLAYER
  8
0
  9
$CELTYPE
  6
ByLayer
  9
$CECOLOR
 62
   256
  9
$CELTSCALE
 40
1.0
  9
$DISPSILH
 70
     0
  9
$DIMSCALE
 40
1.0
  9
$DIMASZ
 40
3.302
  9
$DIMEXO
 40
1.0
  9
$DIMDLI
 40
3.75
  9
$DIMRND
 40
0.0
  9
$DIMDLE
 40
0.0
  9
$DIMEXE
 40
1.0
  9
$DIMTP
 40
0.0
  9
$DIMTM
 40
0.0
  9
$DIMTXT
 40
3.5
  9
$DIMCEN
 40
2.5
  9
$DIMTSZ
 40
0.0
  9
$DIMTOL
 70
     0
  9
$DIMLIM
 70
     0
  9
$DIMTIH
 70
     1
  9
$DIMTOH
 70
     1
  9
$DIMSE1
 70
     0
  9
$DIMSE2
 70
     0
  9
$DIMTAD
 70
     1
  9
$DIMZIN
 70
     1
  9
$DIMBLK
  1

  9
$DIMASO
 70
     1
  9
$DIMSHO
 70
     1
  9
$DIMPOST
  1

  9
$DIMAPOST
  1

  9
$DIMALT
 70
     0
  9
$DIMALTD
 70
     3
  9
$DIMALTF
 40
0.0393700787
  9
$DIMLFAC
 40
0.2
  9
$DIMTOFL
 70
     1
  9
$DIMTVP
 40
0.0
  9
$DIMTIX
 70
     0
  9
$DIMSOXD
 70
     0
  9
$DIMSAH
 70
     0
  9
$DIMBLK1
  1

  9
$DIMBLK2
  1

  9
$DIMSTYLE
  2
ISO-25
  9
$DIMCLRD
 70
     0
  9
$DIMCLRE
 70
     0
  9
$DIMCLRT
 70
     0
  9
$DIMTFAC
 40
1.0
  9
$DIMGAP
 40
1.524
  9
$DIMJUST
 70
     0
  9
$DIMSD1
 70
     0
  9
$DIMSD2
 70
     0
  9
$DIMTOLJ
 70
     0
  9
$DIMTZIN
 70
     1
  9
$DIMALTZ
 70
     0
  9
$DIMALTTZ
 70
     0
  9
$DIMUPT
 70
     0
  9
$DIMDEC
 70
     2
  9
$DIMTDEC
 70
     2
  9
$DIMALTU
 70
     2
  9
$DIMALTTD
 70
     3
  9
$DIMTXSTY
  7
Standard
  9
$DIMAUNIT
 70
     0
  9
$DIMADEC
 70
     2
  9
$DIMALTRND
 40
0.0
  9
$DIMAZIN
 70
     0
  9
$DIMDSEP
 70
    44
  9
$DIMATFIT
 70
     3
  9
$DIMFRAC
 70
     0
  9
$DIMLDRBLK
  1

  9
$DIMLUNIT
 70
     2
  9
$DIMLWD
 70
    -2
  9
$DIMLWE
 70
    -2
  9
$DIMTMOVE
 70
     0
  9
$LUNITS
 70
     2
  9
$LUPREC
 70
     2
  9
$SKETCHINC
 40
1.0
  9
$FILLETRAD
 40
0.0
  9
$AUNITS
 70
     0
  9
$AUPREC
 70
     2
  9
$MENU
  1
.
  9
$ELEVATION
 40
0.0
  9
$PELEVATION
 40
0.0
  9
$THICKNESS
 40
0.0
  9
$LIMCHECK
 70
     0
  9
$CHAMFERA
 40
0.0
  9
$CHAMFERB
 40
0.0
  9
$CHAMFERC
 40
0.0
  9
$CHAMFERD
 40
0.0
  9
$SKPOLY
 70
     0
  9
$TDCREATE
 40
2461263.39254081
  9
$TDUCREATE
 40
2461263.01754081
  9
$TDUPDATE
 40
2461263.392541678
  9
$TDUUPDATE
 40
2461263.017541678
  9
$TDINDWG
 40
0.0000000116
  9
$TDUSRTIMER
 40
0.0000000116
  9
$USRTIMER
 70
     1
  9
$ANGBASE
 50
0.0
  9
$ANGDIR
 70
     0
  9
$PDMODE
 70
     0
  9
$PDSIZE
 40
-1.0
  9
$PLINEWID
 40
0.0
  9
$SPLFRAME
 70
     0
  9
$SPLINETYPE
 70
     6
  9
$SPLINESEGS
 70
     8
  9
$HANDSEED
  5
99
  9
$SURFTAB1
 70
     6
  9
$SURFTAB2
 70
     6
  9
$SURFTYPE
 70
     6
  9
$SURFU
 70
     6
  9
$SURFV
 70
     6
  9
$UCSBASE
  2

  9
$UCSNAME
  2

  9
$UCSORG
 10
0.0
 20
0.0
 30
0.0
  9
$UCSXDIR
 10
1.0
 20
0.0
 30
0.0
  9
$UCSYDIR
 10
0.0
 20
1.0
 30
0.0
  9
$UCSORTHOREF
  2

  9
$UCSORTHOVIEW
 70
     0
  9
$UCSORGTOP
 10
0.0
 20
0.0
 30
0.0
  9
$UCSORGBOTTOM
 10
0.0
 20
0.0
 30
0.0
  9
$UCSORGLEFT
 10
0.0
 20
0.0
 30
0.0
  9
$UCSORGRIGHT
 10
0.0
 20
0.0
 30
0.0
  9
$UCSORGFRONT
 10
0.0
 20
0.0
 30
0.0
  9
$UCSORGBACK
 10
0.0
 20
0.0
 30
0.0
  9
$PUCSBASE
  2

  9
$PUCSNAME
  2

  9
$PUCSORG
 10
0.0
 20
0.0
 30
0.0
  9
$PUCSXDIR
 10
1.0
 20
0.0
 30
0.0
  9
$PUCSYDIR
 10
0.0
 20
1.0
 30
0.0
  9
$PUCSORTHOREF
  2

  9
$PUCSORTHOVIEW
 70
     0
  9
$PUCSORGTOP
 10
0.0
 20
0.0
 30
0.0
  9
$PUCSORGBOTTOM
 10
0.0
 20
0.0
 30
0.0
  9
$PUCSORGLEFT
 10
0.0
 20
0.0
 30
0.0
  9
$PUCSORGRIGHT
 10
0.0
 20
0.0
 30
0.0
  9
$PUCSORGFRONT
 10
0.0
 20
0.0
 30
0.0
  9
$PUCSORGBACK
 10
0.0
 20
0.0
 30
0.0
  9
$USERI1
 70
     0
  9
$USERI2
 70
     0
  9
$USERI3
 70
     0
  9
$USERI4
 70
     0
  9
$USERI5
 70
     0
  9
$USERR1
 40
0.0
  9
$USERR2
 40
0.0
  9
$USERR3
 40
0.0
  9
$USERR4
 40
0.0
  9
$USERR5
 40
0.0
  9
$WORLDVIEW
 70
     1
  9
$SHADEDGE
 70
     3
  9
$SHADEDIF
 70
    70
  9
$TILEMODE
 70
     1
  9
$MAXACTVP
 70
    64
  9
$PINSBASE
 10
0.0
 20
0.0
 30
0.0
  9
$PLIMCHECK
 70
     0
  9
$PEXTMIN
 10
1.0000000000E+20
 20
1.0000000000E+20
 30
1.0000000000E+20
  9
$PEXTMAX
 10
-1.0000000000E+20
 20
-1.0000000000E+20
 30
-1.0000000000E+20
  9
$PLIMMIN
 10
0.0
 20
0.0
  9
$PLIMMAX
 10
420.0
 20
297.0
  9
$UNITMODE
 70
     0
  9
$VISRETAIN
 70
     1
  9
$PLINEGEN
 70
     0
  9
$PSLTSCALE
 70
     1
  9
$TREEDEPTH
 70
  3020
  9
$CMLSTYLE
  2
Standard
  9
$CMLJUST
 70
     0
  9
$CMLSCALE
 40
20.0
  9
$PROXYGRAPHICS
 70
     1
  9
$MEASUREMENT
 70
     1
  9
$CELWEIGHT
370
    -1
  9
$ENDCAPS
280
     0
  9
$JOINSTYLE
280
     0
  9
$LWDISPLAY
290
     1
  9
$INSUNITS
 70
     4
  9
$HYPERLINKBASE
  1

  9
$STYLESHEET
  1

  9
$XEDIT
290
     1
  9
$CEPSNTYPE
380
     0
  9
$PSTYLEMODE
290
     1
  9
$FINGERPRINTGUID
  2
{e9f42203-54d9-4b97-a917-7eaa1075d7a3}
  9
$VERSIONGUID
  2
{FAEB1C32-E019-11D5-929B-00C0DF256EC4}
  9
$EXTNAMES
290
     1
  9
$PSVPSCALE
 40
0.0
  9
$OLESTARTUP
290
     0
  0
ENDSEC
  0
SECTION
  2
CLASSES
  0
CLASS
  1
ACDBDICTIONARYWDFLT
  2
AcDbDictionaryWithDefault
  3
ObjectDBX Classes
 90
        0
280
     0
281
     0
  0
CLASS
  1
VISUALSTYLE
  2
AcDbVisualStyle
  3
ObjectDBX Classes
 90
     4095
280
     0
281
     0
  0
CLASS
  1
MATERIAL
  2
AcDbMaterial
  3
ObjectDBX Classes
 90
     1153
280
     0
281
     0
  0
CLASS
  1
SCALE
  2
AcDbScale
  3
ObjectDBX Classes
 90
     1153
280
     0
281
     0
  0
CLASS
  1
TABLESTYLE
  2
AcDbTableStyle
  3
ObjectDBX Classes
 90
     4095
280
     0
281
     0
  0
CLASS
  1
MLEADERSTYLE
  2
AcDbMLeaderStyle
  3
ACDB_MLEADERSTYLE_CLASS
 90
     4095
280
     0
281
     0
  0
CLASS
  1
SUN
  2
AcDbSun
  3
SCENEOE
 90
     1153
280
     0
281
     0
  0
CLASS
  1
ACDBPLACEHOLDER
  2
AcDbPlaceHolder
  3
ObjectDBX Classes
 90
        0
280
     0
281
     0
  0
CLASS
  1
LAYOUT
  2
AcDbLayout
  3
ObjectDBX Classes
 90
        0
280
     0
281
     0
  0
ENDSEC
  0
SECTION
  2
TABLES
  0
TABLE
  2
VPORT
  5
8
330
0
100
AcDbSymbolTable
 70
     1
  0
VPORT
  5
29
330
8
100
AcDbSymbolTableRecord
100
AcDbViewportTableRecord
  2
*Active
 70
     0
 10
0.0
 20
0.0
 11
1.0
 21
1.0
 12
420.5
 22
297.0
 13
0.0
 23
0.0
 14
10.0
 24
10.0
 15
10.0
 25
10.0
 16
0.0
 26
0.0
 36
1.0
 17
0.0
 27
0.0
 37
0.0
 40
594.0
 41
1.4158249158
 42
50.0
 43
0.0
 44
0.0
 50
0.0
 51
0.0
 71
     0
 72
  2000
 73
     1
 74
     3
 75
     0
 76
     0
 77
     0
 78
     0
281
     0
 65
     1
110
0.0
120
0.0
130
0.0
111
1.0
121
0.0
131
0.0
112
0.0
122
1.0
132
0.0
 79
     0
146
0.0
  0
ENDTAB
  0
TABLE
  2
LTYPE
  5
5
330
0
100
AcDbSymbolTable
 70
     6
  0
LTYPE
  5
14
330
5
100
AcDbSymbolTableRecord
100
AcDbLinetypeTableRecord
  2
ByBlock
 70
     0
  3

 72
    65
 73
     0
 40
0.0
  0
LTYPE
  5
15
330
5
100
AcDbSymbolTableRecord
100
AcDbLinetypeTableRecord
  2
ByLayer
 70
     0
  3

 72
    65
 73
     0
 40
0.0
  0
LTYPE
  5
16
330
5
100
AcDbSymbolTableRecord
100
AcDbLinetypeTableRecord
  2
Continuous
 70
     0
  3
Solid line
 72
    65
 73
     0
 40
0.0
  0
LTYPE
  5
5E
330
5
100
AcDbSymbolTableRecord
100
AcDbLinetypeTableRecord
  2
HIDDEN
 70
     0
  3
Hidden __ __ __ __ __ __ __ __ __ __ __ __ __ __
 72
    65
 73
     2
 40
1.905
 49
1.27
 74
     0
 49
-0.635
 74
     0
  0
LTYPE
  5
5F
330
5
100
AcDbSymbolTableRecord
100
AcDbLinetypeTableRecord
  2
PHANTOM
 70
     0
  3
Phantom ______  __  __  ______  __  __  ______
 72
    65
 73
     6
 40
12.7
 49
6.35
 74
     0
 49
-1.27
 74
     0
 49
1.27
 74
     0
 49
-1.27
 74
     0
 49
1.27
 74
     0
 49
-1.27
 74
     0
  0
LTYPE
  5
60
330
5
100
AcDbSymbolTableRecord
100
AcDbLinetypeTableRecord
  2
CENTER
 70
     0
  3
Center ____ _ ____ _ ____ _ ____ _ ____ _ ____
 72
    65
 73
     4
 40
10.16
 49
6.35
 74
     0
 49
-1.27
 74
     0
 49
1.27
 74
     0
 49
-1.27
 74
     0
  0
LTYPE
  5
61
330
5
100
AcDbSymbolTableRecord
100
AcDbLinetypeTableRecord
  2
CENTERX2
 70
     0
  3
Center (2x) ________  __  ________  __  _____
 72
    65
 73
     4
 40
20.32
 49
12.7
 74
     0
 49
-2.54
 74
     0
 49
2.54
 74
     0
 49
-2.54
 74
     0
  0
LTYPE
  5
62
330
5
100
AcDbSymbolTableRecord
100
AcDbLinetypeTableRecord
  2
DOT2
 70
     0
  3
Dot (.5x) ........................................
 72
    65
 73
     2
 40
0.635
 49
0.0
 74
     0
 49
-0.635
 74
     0
  0
ENDTAB
  0
TABLE
  2
LAYER
  5
2
330
0
100
AcDbSymbolTable
 70
     1
  0
LAYER
  5
10
330
2
100
AcDbSymbolTableRecord
100
AcDbLayerTableRecord
  2
0
 70
     0
 62
     7
  6
Continuous
370
    -3
390
F
  0
ENDTAB
  0
TABLE
  2
STYLE
  5
3
330
0
100
AcDbSymbolTable
 70
     1
  0
STYLE
  5
11
330
3
100
AcDbSymbolTableRecord
100
AcDbTextStyleTableRecord
  2
Standard
 70
     0
 40
0.0
 41
1.0
 50
0.0
 71
     0
 42
3.5
  3
txt
  4
bigfont
  0
ENDTAB
  0
TABLE
  2
VIEW
  5
6
330
0
100
AcDbSymbolTable
 70
     0
  0
ENDTAB
  0
TABLE
  2
UCS
  5
7
330
0
100
AcDbSymbolTable
 70
     0
  0
ENDTAB
  0
TABLE
  2
APPID
  5
9
330
0
100
AcDbSymbolTable
 70
     1
  0
APPID
  5
12
330
9
100
AcDbSymbolTableRecord
100
AcDbRegAppTableRecord
  2
ACAD
 70
     0
  0
ENDTAB
  0
TABLE
  2
DIMSTYLE
  5
A
330
0
100
AcDbSymbolTable
 70
     1
100
AcDbDimStyleTable
  0
DIMSTYLE
105
27
330
A
100
AcDbSymbolTableRecord
100
AcDbDimStyleTableRecord
  2
ISO-25
 70
     0
 41
2.5
 42
0.625
 43
3.75
 44
1.25
 73
     0
 74
     0
 77
     1
 78
     8
140
2.5
141
2.5
143
0.0393700787
147
0.625
171
     3
172
     1
178
     0
271
     2
272
     2
274
     3
278
    44
283
     0
284
     8
340
11
  0
ENDTAB
  0
TABLE
  2
BLOCK_RECORD
  5
1
330
0
100
AcDbSymbolTable
 70
     1
  0
BLOCK_RECORD
  5
1F
330
1
100
AcDbSymbolTableRecord
100
AcDbBlockTableRecord
  2
*Model_Space
340
22
  0
BLOCK_RECORD
  5
1B
330
1
100
AcDbSymbolTableRecord
100
AcDbBlockTableRecord
  2
*Paper_Space
340
1E
  0
BLOCK_RECORD
  5
23
330
1
100
AcDbSymbolTableRecord
100
AcDbBlockTableRecord
  2
*Paper_Space0
340
26
  0
ENDTAB
  0
ENDSEC
  0
SECTION
  2
BLOCKS
  0
BLOCK
  5
20
330
1F
100
AcDbEntity
  8
0
100
AcDbBlockBegin
  2
*Model_Space
 70
     0
 10
0.0
 20
0.0
 30
0.0
  3
*Model_Space
  1

  0
ENDBLK
  5
21
330
1F
100
AcDbEntity
  8
0
100
AcDbBlockEnd
  0
BLOCK
  5
1C
330
1B
100
AcDbEntity
 67
     1
  8
0
100
AcDbBlockBegin
  2
*Paper_Space
 70
     0
 10
0.0
 20
0.0
 30
0.0
  3
*Paper_Space
  1

  0
ENDBLK
  5
1D
330
1B
100
AcDbEntity
 67
     1
  8
0
100
AcDbBlockEnd
  0
BLOCK
  5
24
330
23
100
AcDbEntity
  8
0
100
AcDbBlockBegin
  2
*Paper_Space0
 70
     0
 10
0.0
 20
0.0
 30
0.0
  3
*Paper_Space0
  1

  0
ENDBLK
  5
25
330
23
100
AcDbEntity
  8
0
100
AcDbBlockEnd
  0
ENDSEC
  0
SECTION
  2
ENTITIES
  0
LINE
  5
63
330
1F
100
AcDbEntity
  8
0
  6
Continuous
 62
     7
370
    25
100
AcDbLine
 10
340.3357287525
 20
244.745
 30
0.0
 11
340.3357287525
 21
242.745
 31
0.0
  0
LINE
  5
64
330
1F
100
AcDbEntity
  8
0
  6
Continuous
 62
     7
370
    25
100
AcDbLine
 10
380.3357287525
 20
242.745
 30
0.0
 11
380.3357287525
 21
244.745
 31
0.0
  0
LINE
  5
65
330
1F
100
AcDbEntity
  8
0
  6
Continuous
 62
     7
370
    25
100
AcDbLine
 10
341.3357287525
 20
247.495
 30
0.0
 11
341.3357287525
 21
244.745
 31
0.0
  0
LINE
  5
66
330
1F
100
AcDbEntity
  8
0
  6
Continuous
 62
     7
370
    25
100
AcDbLine
 10
379.3357287525
 20
244.745
 30
0.0
 11
379.3357287525
 21
247.495
 31
0.0
  0
LINE
  5
67
330
1F
100
AcDbEntity
  8
0
  6
Continuous
 62
     7
370
    25
100
AcDbLine
 10
360.3357287525
 20
244.745
 30
0.0
 11
340.3357287525
 21
244.745
 31
0.0
  0
LINE
  5
68
330
1F
100
AcDbEntity
  8
0
  6
Continuous
 62
     7
370
    25
100
AcDbLine
 10
360.3357287525
 20
242.745
 30
0.0
 11
340.3357287525
 21
242.745
 31
0.0
  0
LINE
  5
69
330
1F
100
AcDbEntity
  8
0
  6
Continuous
 62
     7
370
    25
100
AcDbLine
 10
380.3357287525
 20
244.745
 30
0.0
 11
360.3357287525
 21
244.745
 31
0.0
  0
LINE
  5
6A
330
1F
100
AcDbEntity
  8
0
  6
Continuous
 62
     7
370
    25
100
AcDbLine
 10
380.3357287525
 20
242.745
 30
0.0
 11
360.3357287525
 21
242.745
 31
0.0
  0
LINE
  5
6B
330
1F
100
AcDbEntity
  8
0
  6
Continuous
 62
     7
370
    25
100
AcDbLine
 10
360.3357287525
 20
247.495
 30
0.0
 11
341.3357287525
 21
247.495
 31
0.0
  0
LINE
  5
6C
330
1F
100
AcDbEntity
  8
0
  6
Continuous
 62
     7
370
    25
100
AcDbLine
 10
379.3357287525
 20
247.495
 30
0.0
 11
360.3357287525
 21
247.495
 31
0.0
  0
LINE
  5
6D
330
1F
100
AcDbEntity
  8
0
  6
HIDDEN
 62
     7
370
    18
100
AcDbLine
 10
375.3357287525
 20
242.745
 30
0.0
 11
375.3357287525
 21
247.495
 31
0.0
  0
LINE
  5
6E
330
1F
100
AcDbEntity
  8
0
  6
HIDDEN
 62
     7
370
    18
100
AcDbLine
 10
345.3357287525
 20
247.495
 30
0.0
 11
345.3357287525
 21
242.745
 31
0.0
  0
ARC
  5
6F
330
1F
100
AcDbEntity
  8
0
  6
Continuous
 62
     7
370
    25
100
AcDbCircle
 10
360.3357287525
 20
331.255
 30
0.0
 40
19.00000000000006
100
AcDbArc
 50
90.0
 51
270.0
  0
ARC
  5
70
330
1F
100
AcDbEntity
  8
0
  6
Continuous
 62
     7
370
    25
100
AcDbCircle
 10
360.3357287525
 20
331.255
 30
0.0
 40
19.00000000000006
100
AcDbArc
 50
270.0
 51
90.0
  0
ARC
  5
71
330
1F
100
AcDbEntity
  8
0
  6
Continuous
 62
     7
370
    25
100
AcDbCircle
 10
360.3357287525
 20
331.255
 30
0.0
 40
15.00000000000006
100
AcDbArc
 50
90.0
 51
270.0
  0
ARC
  5
72
330
1F
100
AcDbEntity
  8
0
  6
Continuous
 62
     7
370
    25
100
AcDbCircle
 10
360.3357287525
 20
331.255
 30
0.0
 40
15.00000000000006
100
AcDbArc
 50
270.0
 51
90.0
  0
ARC
  5
73
330
1F
100
AcDbEntity
  8
0
  6
Continuous
 62
     7
370
    25
100
AcDbCircle
 10
360.3357287525
 20
331.255
 30
0.0
 40
20.00000000000006
100
AcDbArc
 50
90.0
 51
270.0
  0
ARC
  5
74
330
1F
100
AcDbEntity
  8
0
  6
Continuous
 62
     7
370
    25
100
AcDbCircle
 10
360.3357287525
 20
331.255
 30
0.0
 40
20.00000000000006
100
AcDbArc
 50
270.0
 51
90.0
  0
LINE
  5
75
330
1F
100
AcDbEntity
  8
0
  6
Continuous
 62
     7
370
    25
100
AcDbLine
 10
492.38
 20
244.745
 30
0.0
 11
492.38
 21
242.745
 31
0.0
  0
LINE
  5
76
330
1F
100
AcDbEntity
  8
0
  6
Continuous
 62
     7
370
    25
100
AcDbLine
 10
452.38
 20
244.745
 30
0.0
 11
452.38
 21
242.745
 31
0.0
  0
LINE
  5
77
330
1F
100
AcDbEntity
  8
0
  6
Continuous
 62
     7
370
    25
100
AcDbLine
 10
492.38
 20
244.745
 30
0.0
 11
452.38
 21
244.745
 31
0.0
  0
LINE
  5
78
330
1F
100
AcDbEntity
  8
0
  6
Continuous
 62
     7
370
    25
100
AcDbLine
 10
492.38
 20
242.745
 30
0.0
 11
452.38
 21
242.745
 31
0.0
  0
LINE
  5
79
330
1F
100
AcDbEntity
  8
0
  6
Continuous
 62
     7
370
    25
100
AcDbLine
 10
491.38
 20
247.495
 30
0.0
 11
491.38
 21
244.745
 31
0.0
  0
LINE
  5
7A
330
1F
100
AcDbEntity
  8
0
  6
Continuous
 62
     7
370
    25
100
AcDbLine
 10
453.38
 20
247.495
 30
0.0
 11
453.38
 21
244.745
 31
0.0
  0
LINE
  5
7B
330
1F
100
AcDbEntity
  8
0
  6
Continuous
 62
     7
370
    25
100
AcDbLine
 10
491.38
 20
247.495
 30
0.0
 11
453.38
 21
247.495
 31
0.0
  0
LINE
  5
7C
330
1F
100
AcDbEntity
  8
0
  6
HIDDEN
 62
     7
370
    18
100
AcDbLine
 10
487.38
 20
247.495
 30
0.0
 11
487.38
 21
242.745
 31
0.0
  0
LINE
  5
7D
330
1F
100
AcDbEntity
  8
0
  6
HIDDEN
 62
     7
370
    18
100
AcDbLine
 10
457.38
 20
247.495
 30
0.0
 11
457.38
 21
242.745
 31
0.0
  0
LINE
  5
7E
330
1F
100
AcDbEntity
  8
0
  6
Continuous
 62
     7
370
    25
100
AcDbLine
 10
491.38
 20
330.9487971955
 30
0.0
 11
491.38
 21
333.1942844282
 31
0.0
  0
LINE
  5
7F
330
1F
100
AcDbEntity
  8
0
  6
Continuous
 62
     7
370
    25
100
AcDbLine
 10
492.38
 20
329.3157155718
 30
0.0
 11
492.38
 21
330.9487971955
 31
0.0
  0
LINE
  5
80
330
1F
100
AcDbEntity
  8
0
  6
Continuous
 62
     7
370
    25
100
AcDbLine
 10
453.38
 20
333.1942844282
 30
0.0
 11
453.38
 21
330.9487971955
 31
0.0
  0
LINE
  5
81
330
1F
100
AcDbEntity
  8
0
  6
Continuous
 62
     7
370
    25
100
AcDbLine
 10
452.38
 20
330.9487971955
 30
0.0
 11
452.38
 21
329.3157155718
 31
0.0
  0
LWPOLYLINE
  5
82
330
1F
100
AcDbEntity
  8
0
  6
Continuous
 62
     7
370
    25
100
AcDbPolyline
 90
       70
 70
   128
 43
0.0
 10
458.9449711575
 20
325.4384073659
 10
458.3474042798
 20
325.7994506211
 10
457.7789220996
 20
326.1758207986
 10
457.2407028831
 20
326.5667378138
 10
456.7338621717
 20
326.9713914314
 10
456.2594504702
 20
327.388942945
 10
455.8184510694
 20
327.8185269153
 10
455.4117780077
 20
328.259252964
 10
455.0402741773
 20
328.710207619
 10
454.7047095766
 20
329.1704562079
 10
454.4057797144
 20
329.6390447953
 10
454.1441041685
 20
330.1150021598
 10
453.9202253014
 20
330.5973418069
 10
453.7346071364
 20
331.0850640143
 10
453.5876343953
 20
331.577157903
 10
453.4796117017
 20
332.0726035334
 10
453.410762949
 20
332.5703740187
 10
453.3812308369
 20
333.0694376536
 10
453.391076575
 20
333.5687600526
 10
453.4402797567
 20
334.0673062936
 10
453.5287384009
 20
334.5640430635
 10
453.6562691634
 20
335.0579407995
 10
453.8226077173
 20
335.547975823
 10
454.0274093005
 20
336.0331324617
 10
454.2702494305
 20
336.5124051543
 10
454.5506247841
 20
336.984800535
 10
454.8679542404
 20
337.4493394923
 10
455.2215800858
 20
337.9050591981
 10
455.6107693767
 20
338.3510151039
 10
456.0347154588
 20
338.7862828979
 10
456.4925396392
 20
339.2099604211
 10
456.9832930072
 20
339.6211695372
 10
457.5059584017
 20
340.0190579525
 10
458.0594525188
 20
340.4028009825
 10
458.6426281573
 20
340.7716032611
 10
459.2542765968
 20
341.1247003893
 10
459.8931301025
 20
341.4613605195
 10
460.5578645528
 20
341.780885872
 10
461.2471021841
 20
342.0826141817
 10
461.9594144463
 20
342.3659200708
 10
462.6933249633
 20
342.6302163444
 10
463.4473125935
 20
342.8749552082
 10
464.2198145824
 20
343.0996294035
 10
465.0092298018
 20
343.3037732587
 10
465.8139220679
 20
343.4869636545
 10
466.6322235333
 20
343.6488209009
 10
467.4624381431
 20
343.789009524
 10
468.3028451507
 20
343.9072389614
 10
469.1517026845
 20
344.0032641646
 10
470.0072513573
 20
344.0768861067
 10
470.8677179141
 20
344.127952195
 10
471.7313189065
 20
344.1563565872
 10
472.5962643894
 20
344.1620404109
 10
473.4607616314
 20
344.1449918854
 10
474.3230188299
 20
344.1052463465
 10
475.1812488251
 20
344.0428861728
 10
476.0336728044
 20
343.9580406154
 10
476.8785239889
 20
343.8508855296
 10
477.7140512954
 20
343.7216430106
 10
478.5385229661
 20
343.5705809334
 10
479.3502301574
 20
343.3980123972
 10
480.1474904824
 20
343.2042950766
 10
480.9286514972
 20
342.9898304803
 10
481.6920941264
 20
342.755063119
 10
482.4362360184
 20
342.5004795838
 10
483.1595348257
 20
342.2266075381
 10
483.8604914009
 20
341.9340146234
 10
484.5376529045
 20
341.6233072833
 10
485.189615816
 20
341.2951295062
 10
485.8150288425
 20
340.9501614905
  0
LWPOLYLINE
  5
83
330
1F
100
AcDbEntity
  8
0
  6
Continuous
 62
     7
370
    25
100
AcDbPolyline
 90
       70
 70
   128
 43
0.0
 10
485.8150288425
 20
340.9501614905
 10
486.4125957202
 20
340.5891182353
 10
486.9810779004
 20
340.2127480578
 10
487.5192971169
 20
339.8218310427
 10
488.0261378283
 20
339.4171774251
 10
488.5005495298
 20
338.9996259115
 10
488.9415489306
 20
338.5700419412
 10
489.3482219923
 20
338.1293158925
 10
489.7197258227
 20
337.6783612375
 10
490.0552904234
 20
337.2181126485
 10
490.3542202856
 20
336.7495240611
 10
490.6158958315
 20
336.2735666967
 10
490.8397746986
 20
335.7912270495
 10
491.0253928636
 20
335.3035048422
 10
491.1723656047
 20
334.8114109535
 10
491.2803882983
 20
334.3159653231
 10
491.349237051
 20
333.8181948377
 10
491.3787691631
 20
333.3191312028
 10
491.368923425
 20
332.8198088039
 10
491.3197202433
 20
332.3212625628
 10
491.2312615991
 20
331.824525793
 10
491.1037308366
 20
331.330628057
 10
490.9373922827
 20
330.8405930335
 10
490.7325906995
 20
330.3554363948
 10
490.4897505695
 20
329.8761637022
 10
490.2093752159
 20
329.4037683214
 10
489.8920457596
 20
328.9392293642
 10
489.5384199142
 20
328.4835096583
 10
489.1492306233
 20
328.0375537525
 10
488.7252845412
 20
327.6022859585
 10
488.2674603608
 20
327.1786084353
 10
487.7767069928
 20
326.7673993192
 10
487.2540415983
 20
326.3695109039
 10
486.7005474812
 20
325.985767874
 10
486.1173718427
 20
325.6169655953
 10
485.5057234032
 20
325.2638684671
 10
484.8668698975
 20
324.927208337
 10
484.2021354472
 20
324.6076829845
 10
483.5128978159
 20
324.3059546747
 10
482.8005855537
 20
324.0226487857
 10
482.0666750367
 20
323.7583525121
 10
481.3126874065
 20
323.5136136483
 10
480.5401854176
 20
323.288939453
 10
479.7507701982
 20
323.0847955978
 10
478.9460779321
 20
322.9016052019
 10
478.1277764667
 20
322.7397479555
 10
477.2975618569
 20
322.5995593325
 10
476.4571548493
 20
322.4813298951
 10
475.6082973155
 20
322.3853046918
 10
474.7527486427
 20
322.3116827497
 10
473.8922820859
 20
322.2606166615
 10
473.0286810935
 20
322.2322122693
 10
472.1637356106
 20
322.2265284456
 10
471.2992383686
 20
322.2435769711
 10
470.4369811701
 20
322.28332251
 10
469.5787511749
 20
322.3456826836
 10
468.7263271956
 20
322.4305282411
 10
467.8814760111
 20
322.5376833269
 10
467.0459487046
 20
322.6669258458
 10
466.2214770339
 20
322.817987923
 10
465.4097698426
 20
322.9905564592
 10
464.6125095176
 20
323.1842737799
 10
463.8313485028
 20
323.3987383762
 10
463.0679058736
 20
323.6335057375
 10
462.3237639816
 20
323.8880892726
 10
461.6004651743
 20
324.1619613184
 10
460.8995085991
 20
324.454554233
 10
460.2223470955
 20
324.7652615731
 10
459.570384184
 20
325.0934393503
 10
458.9449711575
 20
325.4384073659
  0
LWPOLYLINE
  5
84
330
1F
100
AcDbEntity
  8
0
  6
Continuous
 62
     7
370
    25
100
AcDbPolyline
 90
       62
 70
   128
 43
0.0
 10
461.7733982822
 20
327.0712235896
 10
461.2414470339
 20
327.3945497652
 10
460.7390332257
 20
327.7332557946
 10
460.2674891688
 20
328.0864434902
 10
459.828065313
 20
328.4531762617
 10
459.4219269316
 20
328.8324815997
 10
459.0501510306
 20
329.2233536548
 10
458.7137234926
 20
329.6247559044
 10
458.4135364632
 20
330.0356239019
 10
458.1503859844
 20
330.4548680994
 10
457.9249698839
 20
330.8813767365
 10
457.7378859246
 20
331.3140187889
 10
457.5896302197
 20
331.7516469679
 10
457.4805959166
 20
332.193100762
 10
457.4110721546
 20
332.6372095153
 10
457.3812432983
 20
333.0827955311
 10
457.3911884485
 20
333.5286771953
 10
457.4408812324
 20
333.9736721101
 10
457.5301898737
 20
334.4166002289
 10
457.6588775418
 20
334.8562869859
 10
457.8266029803
 20
335.2915664109
 10
458.0329214115
 20
335.7212842211
 10
458.2772857159
 20
336.1443008821
 10
458.5590478833
 20
336.5594946298
 10
458.8774607312
 20
336.965764445
 10
459.2316798859
 20
337.3620329732
 10
459.6207660218
 20
337.7472493815
 10
460.0436873525
 20
338.1203921453
 10
460.4993223667
 20
338.4804717569
 10
460.9864628021
 20
338.82653335
 10
461.50381685
 20
339.1576592315
 10
462.0500125804
 20
339.4729713151
 10
462.6236015805
 20
339.7716334497
 10
463.2230627952
 20
340.0528536372
 10
463.8468065612
 20
340.3158861321
 10
464.4931788223
 20
340.5600334195
 10
465.1604655153
 20
340.7846480647
 10
465.8468971159
 20
340.9891344301
 10
466.5506533309
 20
341.1729502545
 10
467.2698679253
 20
341.3356080915
 10
468.0026336713
 20
341.4766766017
 10
468.747007406
 20
341.5957816968
 10
469.5010151838
 20
341.6926075314
 10
470.2626575119
 20
341.766897341
 10
471.0299146516
 20
341.8184541221
 10
471.8007519749
 20
341.8471411557
 10
472.5731253599
 20
341.8528823687
 10
473.3449866111
 20
341.8356625365
 10
474.1142888914
 20
341.795527323
 10
474.8789921492
 20
341.7325831596
 10
475.6370685291
 20
341.6469969629
 10
476.3865077488
 20
341.5389956921
 10
477.1253224302
 20
341.4088657472
 10
477.8515533696
 20
341.2569522093
 10
478.5632747331
 20
341.0836579259
 10
479.2585991635
 20
340.8894424422
 10
479.9356827855
 20
340.6748207829
 10
480.5927300951
 20
340.4403620859
 10
481.2279987208
 20
340.1866880936
 10
481.8398040445
 20
339.9144715038
 10
482.4265236685
 20
339.624434186
 10
482.9866017178
 20
339.3173452669
  0
LWPOLYLINE
  5
85
330
1F
100
AcDbEntity
  8
0
  6
Continuous
 62
     7
370
    25
100
AcDbPolyline
 90
       62
 70
   128
 43
0.0
 10
482.9866017178
 20
339.3173452669
 10
483.5185529661
 20
338.9940190912
 10
484.0209667743
 20
338.6553130619
 10
484.4925108312
 20
338.3021253663
 10
484.931934687
 20
337.9353925948
 10
485.3380730684
 20
337.5560872567
 10
485.7098489694
 20
337.1652152017
 10
486.0462765074
 20
336.7638129521
 10
486.3464635368
 20
336.3529449545
 10
486.6096140156
 20
335.9337007571
 10
486.8350301161
 20
335.50719212
 10
487.0221140754
 20
335.0745500675
 10
487.1703697803
 20
334.6369218886
 10
487.2794040834
 20
334.1954680944
 10
487.3489278454
 20
333.7513593412
 10
487.3787567017
 20
333.3057733254
 10
487.3688115515
 20
332.8598916611
 10
487.3191187676
 20
332.4148967463
 10
487.2298101263
 20
331.9719686276
 10
487.1011224582
 20
331.5322818706
 10
486.9333970197
 20
331.0970024456
 10
486.7270785885
 20
330.6672846354
 10
486.4827142841
 20
330.2442679744
 10
486.2009521167
 20
329.8290742267
 10
485.8825392688
 20
329.4228044114
 10
485.5283201141
 20
329.0265358832
 10
485.1392339782
 20
328.6413194749
 10
484.7163126475
 20
328.2681767112
 10
484.2606776333
 20
327.9080970996
 10
483.7735371979
 20
327.5620355064
 10
483.25618315
 20
327.2309096249
 10
482.7099874196
 20
326.9155975414
 10
482.1363984195
 20
326.6169354067
 10
481.5369372048
 20
326.3357152193
 10
480.9131934388
 20
326.0726827244
 10
480.2668211777
 20
325.828535437
 10
479.5995344847
 20
325.6039207918
 10
478.9131028841
 20
325.3994344264
 10
478.2093466691
 20
325.215618602
 10
477.4901320747
 20
325.052960765
 10
476.7573663287
 20
324.9118922548
 10
476.012992594
 20
324.7927871597
 10
475.2589848162
 20
324.695961325
 10
474.4973424881
 20
324.6216715155
 10
473.7300853484
 20
324.5701147343
 10
472.9592480251
 20
324.5414277008
 10
472.1868746401
 20
324.5356864878
 10
471.4150133889
 20
324.55290632
 10
470.6457111086
 20
324.5930415335
 10
469.8810078508
 20
324.6559856969
 10
469.1229314709
 20
324.7415718936
 10
468.3734922512
 20
324.8495731644
 10
467.6346775698
 20
324.9797031093
 10
466.9084466304
 20
325.1316166472
 10
466.1967252669
 20
325.3049109306
 10
465.5014008365
 20
325.4991264142
 10
464.8243172145
 20
325.7137480736
 10
464.1672699049
 20
325.9482067705
 10
463.5320012792
 20
326.2018807629
 10
462.9201959555
 20
326.4740973527
 10
462.3334763315
 20
326.7641346705
 10
461.7733982822
 20
327.0712235896
  0
LWPOLYLINE
  5
86
330
1F
100
AcDbEntity
  8
0
  6
Continuous
 62
     7
370
    25
100
AcDbPolyline
 90
       53
 70
   128
 43
0.0
 10
491.38
 20
330.9487971955
 10
491.368923425
 20
330.5743215712
 10
491.3197202433
 20
330.0757753302
 10
491.2312615991
 20
329.5790385603
 10
491.1037308366
 20
329.0851408243
 10
490.9373922827
 20
328.5951058008
 10
490.7325906995
 20
328.1099491621
 10
490.4897505695
 20
327.6306764695
 10
490.2093752159
 20
327.1582810888
 10
489.8920457596
 20
326.6937421315
 10
489.5384199142
 20
326.2380224256
 10
489.1492306233
 20
325.7920665199
 10
488.7252845412
 20
325.3567987259
 10
488.2674603608
 20
324.9331212026
 10
487.7767069928
 20
324.5219120865
 10
487.2540415983
 20
324.1240236712
 10
486.7005474812
 20
323.7402806413
 10
486.1173718427
 20
323.3714783627
 10
485.5057234032
 20
323.0183812344
 10
484.8668698975
 20
322.6817211043
 10
484.2021354472
 20
322.3621957518
 10
483.5128978159
 20
322.060467442
 10
482.8005855537
 20
321.777161553
 10
482.0666750367
 20
321.5128652794
 10
481.3126874065
 20
321.2681264156
 10
480.5401854176
 20
321.0434522203
 10
479.7507701982
 20
320.8393083651
 10
478.9460779321
 20
320.6561179692
 10
478.1277764667
 20
320.4942607229
 10
477.2975618569
 20
320.3540720998
 10
476.4571548493
 20
320.2358426624
 10
475.6082973155
 20
320.1398174592
 10
474.7527486427
 20
320.0661955171
 10
473.8922820859
 20
320.0151294288
 10
473.0286810935
 20
319.9867250366
 10
472.1637356106
 20
319.9810412129
 10
471.2992383686
 20
319.9980897384
 10
470.4369811701
 20
320.0378352773
 10
469.5787511749
 20
320.1001954509
 10
468.7263271956
 20
320.1850410084
 10
467.8814760111
 20
320.2921960942
 10
467.0459487046
 20
320.4214386131
 10
466.2214770339
 20
320.5725006903
 10
465.4097698426
 20
320.7450692266
 10
464.6125095176
 20
320.9387865472
 10
463.8313485028
 20
321.1532511435
 10
463.0679058736
 20
321.3880185048
 10
462.3237639816
 20
321.6426020399
 10
461.6004651743
 20
321.9164740857
 10
460.8995085991
 20
322.2090670003
 10
460.2223470955
 20
322.5197743405
 10
459.570384184
 20
322.8479521176
 10
458.9449711575
 20
323.1929201332
  0
LWPOLYLINE
  5
87
330
1F
100
AcDbEntity
  8
0
  6
Continuous
 62
     7
370
    25
100
AcDbPolyline
 90
       27
 70
   128
 43
0.0
 10
458.2378643763
 20
322.7847160773
 10
457.6261523351
 20
323.1538314942
 10
457.0433216435
 20
323.5382059225
 10
456.4905132201
 20
323.9370869312
 10
455.9688092132
 20
324.349693692
 10
455.4792308829
 20
324.7752185079
 10
455.0227366019
 20
325.2128283939
 10
454.600219979
 20
325.6616667082
 10
454.2125081105
 20
326.1208548287
 10
453.8603599605
 20
326.5894938732
 10
453.5444648755
 20
327.0666664586
 10
453.2654412351
 20
327.5514384972
 10
453.0238352411
 20
328.042861025
 10
452.8201198486
 20
328.5399720593
 10
452.65469384
 20
329.041798482
 10
452.5278810445
 20
329.5473579442
 10
452.4399297041
 20
330.0556607895
 10
452.3910119877
 20
330.5657119913
 10
452.381223654
 20
331.0765131003
 10
452.4105838642
 20
331.5870641995
 10
452.4790351442
 20
332.0963658611
 10
452.5864434975
 20
332.6034211031
 10
452.7325986671
 20
333.1072373411
 10
452.9172145475
 20
333.6068283311
 10
453.1399297443
 20
334.1012161004
 10
453.4003082823
 20
334.5894328616
 10
453.6293947948
 20
334.9656082573
  0
LWPOLYLINE
  5
88
330
1F
100
AcDbEntity
  8
0
  6
Continuous
 62
     7
370
    25
100
AcDbPolyline
 90
       63
 70
   128
 43
0.0
 10
491.1306052052
 20
334.9656082573
 10
491.2155351245
 20
334.8309279325
 10
491.4945587649
 20
334.3461558939
 10
491.7361647589
 20
333.8547333661
 10
491.9398801514
 20
333.3576223318
 10
492.10530616
 20
332.8557959091
 10
492.2321189555
 20
332.3502364469
 10
492.3200702959
 20
331.8419336016
 10
492.3689880123
 20
331.3318823998
 10
492.378776346
 20
330.8210812907
 10
492.3494161358
 20
330.3105301916
 10
492.2809648558
 20
329.80122853
 10
492.1735565025
 20
329.294173288
 10
492.0274013329
 20
328.79035705
 10
491.8427854525
 20
328.29076606
 10
491.6200702557
 20
327.7963782907
 10
491.3596917177
 20
327.3081615294
 10
491.062159542
 20
326.8270714835
 10
490.7280561616
 20
326.3540499092
 10
490.3580355997
 20
325.8900227684
 10
489.9528221888
 20
325.4358984162
 10
489.5132091533
 20
324.9925658222
 10
489.0400570563
 20
324.5608928308
 10
488.5342921153
 20
324.1417244622
 10
487.9969043888
 20
323.7358812582
 10
487.4289458386
 20
323.3441576758
 10
486.8315282702
 20
322.9673205323
 10
486.2058211566
 20
322.6061075043
 10
485.5530493488
 20
322.2612256831
 10
484.8744906784
 20
321.9333501911
 10
484.1714734556
 20
321.62312286
 10
483.4453738699
 20
321.3311509743
 10
482.6976132952
 20
321.0580060827
 10
481.9296555079
 20
320.8042228793
 10
481.1430038215
 20
320.5702981564
 10
480.3391981436
 20
320.3566898328
 10
479.5198119616
 20
320.1638160567
 10
478.6864492624
 20
319.9920543877
 10
477.8407413927
 20
319.8417410573
 10
476.9843438652
 20
319.7131703108
 10
476.1189331183
 20
319.6065938316
 10
475.2462032343
 20
319.5222202482
 10
474.3678626229
 20
319.4602147256
 10
473.4856306771
 20
319.4206986428
 10
472.6012344073
 20
319.4037493543
 10
471.7164050607
 20
319.409400039
 10
470.8328747324
 20
319.4376396356
 10
469.9523729744
 20
319.4884128637
 10
469.0766234104
 20
319.5616203322
 10
468.2073403611
 20
319.6571187343
 10
467.3462254891
 20
319.7747211271
 10
466.494964467
 20
319.9141972986
 10
465.6552236784
 20
320.0752742176
 10
464.8286469552
 20
320.2576365685
 10
464.0168523602
 20
320.4609273683
 10
463.2214290194
 20
320.6847486659
 10
462.4439340115
 20
320.9286623204
 10
461.6858893193
 20
321.1921908595
 10
460.9487788509
 20
321.4748184136
 10
460.2340455348
 20
321.7759917262
 10
459.5430884949
 20
322.0951212362
 10
458.8772603121
 20
322.4315822326
 10
458.2378643763
 20
322.7847160773
  0
LWPOLYLINE
  5
89
330
1F
100
AcDbEntity
  8
0
  6
Continuous
 62
     7
370
    25
100
AcDbPolyline
 90
       19
 70
   128
 43
0.0
 10
458.9449711575
 20
323.1929201332
 10
458.3474042798
 20
323.5539633884
 10
457.7789220996
 20
323.9303335659
 10
457.2407028831
 20
324.3212505811
 10
456.7338621717
 20
324.7259041987
 10
456.2594504702
 20
325.1434557123
 10
455.8184510694
 20
325.5730396826
 10
455.4117780077
 20
326.0137657313
 10
455.0402741773
 20
326.4647203863
 10
454.7047095766
 20
326.9249689752
 10
454.4057797144
 20
327.3935575626
 10
454.1441041685
 20
327.8695149271
 10
453.9202253014
 20
328.3518545743
 10
453.7346071364
 20
328.8395767816
 10
453.5876343953
 20
329.3316706703
 10
453.4796117017
 20
329.8271163007
 10
453.410762949
 20
330.324886786
 10
453.3812308369
 20
330.823950421
 10
453.38
 20
330.9487971955
  0
LWPOLYLINE
  5
8A
330
1F
100
AcDbEntity
  8
0
  6
Continuous
 62
     7
370
    25
100
AcDbPolyline
 90
       55
 70
   128
 43
0.0
 10
492.38
 20
329.3157155718
 10
492.378776346
 20
329.187999667
 10
492.3494161358
 20
328.6774485678
 10
492.2809648558
 20
328.1681469062
 10
492.1735565025
 20
327.6610916642
 10
492.0274013329
 20
327.1572754262
 10
491.8427854525
 20
326.6576844362
 10
491.6200702557
 20
326.1632966669
 10
491.3596917177
 20
325.6750799057
 10
491.062159542
 20
325.1939898597
 10
490.7280561616
 20
324.7209682854
 10
490.3580355997
 20
324.2569411447
 10
489.9528221888
 20
323.8028167924
 10
489.5132091533
 20
323.3594841984
 10
489.0400570563
 20
322.9278112071
 10
488.5342921153
 20
322.5086428385
 10
487.9969043888
 20
322.1027996344
 10
487.4289458386
 20
321.711076052
 10
486.8315282702
 20
321.3342389086
 10
486.2058211566
 20
320.9730258805
 10
485.5530493488
 20
320.6281440593
 10
484.8744906784
 20
320.3002685673
 10
484.1714734556
 20
319.9900412362
 10
483.4453738699
 20
319.6980693505
 10
482.6976132952
 20
319.424924459
 10
481.9296555079
 20
319.1711412555
 10
481.1430038215
 20
318.9372165326
 10
480.3391981436
 20
318.723608209
 10
479.5198119616
 20
318.530734433
 10
478.6864492624
 20
318.358972764
 10
477.8407413927
 20
318.2086594335
 10
476.9843438652
 20
318.0800886871
 10
476.1189331183
 20
317.9735122079
 10
475.2462032343
 20
317.8891386244
 10
474.3678626229
 20
317.8271331019
 10
473.4856306771
 20
317.787617019
 10
472.6012344073
 20
317.7706677305
 10
471.7164050607
 20
317.7763184152
 10
470.8328747324
 20
317.8045580118
 10
469.9523729744
 20
317.8553312399
 10
469.0766234104
 20
317.9285387085
 10
468.2073403611
 20
318.0240371105
 10
467.3462254891
 20
318.1416395034
 10
466.494964467
 20
318.2811156749
 10
465.6552236784
 20
318.4421925939
 10
464.8286469552
 20
318.6245549447
 10
464.0168523602
 20
318.8278457446
 10
463.2214290194
 20
319.0516670421
 10
462.4439340115
 20
319.2955806966
 10
461.6858893193
 20
319.5591092357
 10
460.9487788509
 20
319.8417367899
 10
460.2340455348
 20
320.1429101024
 10
459.5430884949
 20
320.4620396124
 10
458.8772603121
 20
320.7985006088
 10
458.2378643763
 20
321.1516344535
  0
ARC
  5
8B
330
1F
100
AcDbEntity
  8
0
  6
Continuous
 62
     7
370
    25
100
AcDbCircle
 10
478.9949434385
 20
327.594723433
 30
0.0
 40
8.801278482813604
100
AcDbArc
 50
24.5747527449
 51
63.0295027945
  0
LWPOLYLINE
  5
8C
330
1F
100
AcDbEntity
  8
0
  6
Continuous
 62
     7
370
    25
100
AcDbPolyline
 90
       19
 70
   128
 43
0.0
 10
458.2378643763
 20
321.1516344535
 10
457.6261523351
 20
321.5207498704
 10
457.0433216435
 20
321.9051242987
 10
456.4905132201
 20
322.3040053074
 10
455.9688092132
 20
322.7166120683
 10
455.4792308829
 20
323.1421368841
 10
455.0227366019
 20
323.5797467701
 10
454.600219979
 20
324.0285850844
 10
454.2125081105
 20
324.487773205
 10
453.8603599605
 20
324.9564122494
 10
453.5444648755
 20
325.4335848348
 10
453.2654412351
 20
325.9183568734
 10
453.0238352411
 20
326.4097794012
 10
452.8201198486
 20
326.9068904355
 10
452.65469384
 20
327.4087168582
 10
452.5278810445
 20
327.9142763204
 10
452.4399297041
 20
328.4225791657
 10
452.3910119877
 20
328.9326303675
 10
452.38
 20
329.3157155718
  0
LWPOLYLINE
  5
8D
330
1F
100
AcDbEntity
  8
0
  6
Continuous
 62
     7
370
    25
100
AcDbPolyline
 90
       43
 70
   128
 43
0.0
 10
457.7610026895
 20
331.255
 10
457.8266029803
 20
331.4129975544
 10
458.0329214115
 20
331.8427153646
 10
458.2772857159
 20
332.2657320256
 10
458.5590478833
 20
332.6809257733
 10
458.8774607312
 20
333.0871955886
 10
459.2316798859
 20
333.4834641168
 10
459.6207660218
 20
333.8686805251
 10
460.0436873525
 20
334.2418232888
 10
460.4993223667
 20
334.6019029004
 10
460.9864628021
 20
334.9479644936
 10
461.50381685
 20
335.2790903751
 10
462.0500125804
 20
335.5944024586
 10
462.6236015805
 20
335.8930645933
 10
463.2230627952
 20
336.1742847807
 10
463.8468065612
 20
336.4373172756
 10
464.4931788223
 20
336.681464563
 10
465.1604655153
 20
336.9060792082
 10
465.8468971159
 20
337.1105655736
 10
466.5506533309
 20
337.294381398
 10
467.2698679253
 20
337.457039235
 10
468.0026336713
 20
337.5981077452
 10
468.747007406
 20
337.7172128403
 10
469.5010151838
 20
337.814038675
 10
470.2626575119
 20
337.8883284845
 10
471.0299146516
 20
337.9398852657
 10
471.8007519749
 20
337.9685722992
 10
472.5731253599
 20
337.9743135122
 10
473.3449866111
 20
337.95709368
 10
474.1142888914
 20
337.9169584665
 10
474.8789921492
 20
337.8540143031
 10
475.6370685291
 20
337.7684281064
 10
476.3865077488
 20
337.6604268356
 10
477.1253224302
 20
337.5302968907
 10
477.8515533696
 20
337.3783833528
 10
478.5632747331
 20
337.2050890694
 10
479.2585991635
 20
337.0108735858
 10
479.9356827855
 20
336.7962519264
 10
480.5927300951
 20
336.5617932295
 10
481.2279987208
 20
336.3081192371
 10
481.8398040445
 20
336.0359026473
 10
482.4265236685
 20
335.7458653295
 10
482.9866017178
 20
335.4387764104
  0
LWPOLYLINE
  5
8E
330
1F
100
AcDbEntity
  8
0
  6
HIDDEN
 62
     7
370
    18
100
AcDbPolyline
 90
       19
 70
   128
 43
0.0
 10
485.8150288425
 20
338.7046742579
 10
486.4125957202
 20
338.3436310027
 10
486.9810779004
 20
337.9672608251
 10
487.5192971169
 20
337.57634381
 10
488.0261378283
 20
337.1716901924
 10
488.5005495298
 20
336.7541386788
 10
488.9415489306
 20
336.3245547085
 10
489.3482219923
 20
335.8838286598
 10
489.7197258227
 20
335.4328740048
 10
490.0552904234
 20
334.9726254158
 10
490.3542202856
 20
334.5040368284
 10
490.6158958315
 20
334.028079464
 10
490.8397746986
 20
333.5457398168
 10
491.0253928636
 20
333.0580176095
 10
491.1723656047
 20
332.5659237208
 10
491.2803882983
 20
332.0704780904
 10
491.349237051
 20
331.5727076051
 10
491.3787691631
 20
331.0736439701
 10
491.38
 20
330.9487971955
  0
LWPOLYLINE
  5
8F
330
1F
100
AcDbEntity
  8
0
  6
HIDDEN
 62
     7
370
    18
100
AcDbPolyline
 90
       47
 70
   128
 43
0.0
 10
453.6293947948
 20
334.9656082573
 10
453.697840458
 20
335.0705229076
 10
454.0319438384
 20
335.5435444819
 10
454.4019644003
 20
336.0075716227
 10
454.8071778112
 20
336.4616959749
 10
455.2467908467
 20
336.9050285689
 10
455.7199429437
 20
337.3367015603
 10
456.2257078847
 20
337.7558699289
 10
456.7630956112
 20
338.1617131329
 10
457.3310541614
 20
338.5534367153
 10
457.9284717298
 20
338.9302738588
 10
458.5541788434
 20
339.2914868868
 10
459.2069506512
 20
339.636368708
 10
459.8855093216
 20
339.9642442
 10
460.5885265444
 20
340.2744715311
 10
461.3146261301
 20
340.5664434168
 10
462.0623867048
 20
340.8395883083
 10
462.8303444921
 20
341.0933715118
 10
463.6169961785
 20
341.3272962347
 10
464.4208018564
 20
341.5409045583
 10
465.2401880384
 20
341.7337783344
 10
466.0735507376
 20
341.9055400034
 10
466.9192586073
 20
342.0558533338
 10
467.7756561348
 20
342.1844240802
 10
468.6410668817
 20
342.2910005594
 10
469.5137967657
 20
342.3753741429
 10
470.3921373771
 20
342.4373796655
 10
471.2743693229
 20
342.4768957483
 10
472.1587655927
 20
342.4938450368
 10
473.0435949393
 20
342.4881943521
 10
473.9271252676
 20
342.4599547555
 10
474.8076270256
 20
342.4091815274
 10
475.6833765896
 20
342.3359740589
 10
476.5526596389
 20
342.2404756568
 10
477.4137745109
 20
342.122873264
 10
478.265035533
 20
341.9833970924
 10
479.1047763216
 20
341.8223201734
 10
479.9313530448
 20
341.6399578226
 10
480.7431476398
 20
341.4366670228
 10
481.5385709806
 20
341.2128457252
 10
482.3160659885
 20
340.9689320707
 10
483.0741106807
 20
340.7054035316
 10
483.8112211491
 20
340.4227759775
 10
484.5259544652
 20
340.1216026649
 10
485.2169115051
 20
339.8024731549
 10
485.8827396879
 20
339.4660121585
 10
486.5221356237
 20
339.1128783138
  0
ARC
  5
90
330
1F
100
AcDbEntity
  8
0
  6
HIDDEN
 62
     7
370
    18
100
AcDbCircle
 10
480.2202149465
 20
327.4760354048
 30
0.0
 40
13.23368116247557
100
AcDbArc
 50
34.4681347398
 51
61.5622839473
  0
LWPOLYLINE
  5
91
330
1F
100
AcDbEntity
  8
0
  6
HIDDEN
 62
     7
370
    18
100
AcDbPolyline
 90
       53
 70
   128
 43
0.0
 10
453.38
 20
330.9487971955
 10
453.391076575
 20
331.3232728199
 10
453.4402797567
 20
331.8218190609
 10
453.5287384009
 20
332.3185558308
 10
453.6562691634
 20
332.8124535668
 10
453.8226077173
 20
333.3024885903
 10
454.0274093005
 20
333.787645229
 10
454.2702494305
 20
334.2669179216
 10
454.5506247841
 20
334.7393133023
 10
454.8679542404
 20
335.2038522596
 10
455.2215800858
 20
335.6595719654
 10
455.6107693767
 20
336.1055278712
 10
456.0347154588
 20
336.5407956652
 10
456.4925396392
 20
336.9644731885
 10
456.9832930072
 20
337.3756823046
 10
457.5059584017
 20
337.7735707198
 10
458.0594525188
 20
338.1573137498
 10
458.6426281573
 20
338.5261160284
 10
459.2542765968
 20
338.8792131567
 10
459.8931301025
 20
339.2158732868
 10
460.5578645528
 20
339.5353986393
 10
461.2471021841
 20
339.8371269491
 10
461.9594144463
 20
340.1204328381
 10
462.6933249633
 20
340.3847291117
 10
463.4473125935
 20
340.6294679755
 10
464.2198145824
 20
340.8541421708
 10
465.0092298018
 20
341.058286026
 10
465.8139220679
 20
341.2414764219
 10
466.6322235333
 20
341.4033336682
 10
467.4624381431
 20
341.5435222913
 10
468.3028451507
 20
341.6617517287
 10
469.1517026845
 20
341.7577769319
 10
470.0072513573
 20
341.831398874
 10
470.8677179141
 20
341.8824649623
 10
471.7313189065
 20
341.9108693545
 10
472.5962643894
 20
341.9165531782
 10
473.4607616314
 20
341.8995046527
 10
474.3230188299
 20
341.8597591138
 10
475.1812488251
 20
341.7973989401
 10
476.0336728044
 20
341.7125533827
 10
476.8785239889
 20
341.6053982969
 10
477.7140512954
 20
341.476155778
 10
478.5385229661
 20
341.3250937008
 10
479.3502301574
 20
341.1525251645
 10
480.1474904824
 20
340.9588078439
 10
480.9286514972
 20
340.7443432476
 10
481.6920941264
 20
340.5095758863
 10
482.4362360184
 20
340.2549923511
 10
483.1595348257
 20
339.9811203054
 10
483.8604914009
 20
339.6885273907
 10
484.5376529045
 20
339.3778200506
 10
485.189615816
 20
339.0496422735
 10
485.8150288425
 20
338.7046742579
  0
LWPOLYLINE
  5
92
330
1F
100
AcDbEntity
  8
0
  6
HIDDEN
 62
     7
370
    18
100
AcDbPolyline
 90
       19
 70
   128
 43
0.0
 10
486.5221356237
 20
337.47979669
 10
487.1338476649
 20
337.1106812731
 10
487.7166783565
 20
336.7263068448
 10
488.2694867799
 20
336.3274258361
 10
488.7911907868
 20
335.9148190753
 10
489.2807691171
 20
335.4892942594
 10
489.7372633981
 20
335.0516843734
 10
490.159780021
 20
334.6028460591
 10
490.5474918895
 20
334.1436579386
 10
490.8996400395
 20
333.6750188942
 10
491.2155351245
 20
333.1978463088
 10
491.4945587649
 20
332.7130742701
 10
491.7361647589
 20
332.2216517423
 10
491.9398801514
 20
331.724540708
 10
492.10530616
 20
331.2227142853
 10
492.2321189555
 20
330.7171548232
 10
492.3200702959
 20
330.2088519778
 10
492.3689880123
 20
329.698800776
 10
492.38
 20
329.3157155718
  0
LWPOLYLINE
  5
93
330
1F
100
AcDbEntity
  8
0
  6
HIDDEN
 62
     7
370
    18
100
AcDbPolyline
 90
       52
 70
   128
 43
0.0
 10
486.9989973105
 20
331.255
 10
487.0221140754
 20
331.1959812111
 10
487.1703697803
 20
330.7583530321
 10
487.2794040834
 20
330.316899238
 10
487.3489278454
 20
329.8727904847
 10
487.3787567017
 20
329.4272044689
 10
487.3688115515
 20
328.9813228047
 10
487.3191187676
 20
328.5363278899
 10
487.2298101263
 20
328.0933997711
 10
487.1011224582
 20
327.6537130141
 10
486.9333970197
 20
327.2184335891
 10
486.7270785885
 20
326.7887157789
 10
486.4827142841
 20
326.3656991179
 10
486.2009521167
 20
325.9505053702
 10
485.8825392688
 20
325.544235555
 10
485.5283201141
 20
325.1479670268
 10
485.1392339782
 20
324.7627506185
 10
484.7163126475
 20
324.3896078547
 10
484.2606776333
 20
324.0295282431
 10
483.7735371979
 20
323.68346665
 10
483.25618315
 20
323.3523407685
 10
482.7099874196
 20
323.0370286849
 10
482.1363984195
 20
322.7383665503
 10
481.5369372048
 20
322.4571463628
 10
480.9131934388
 20
322.1941138679
 10
480.2668211777
 20
321.9499665805
 10
479.5995344847
 20
321.7253519353
 10
478.9131028841
 20
321.5208655699
 10
478.2093466691
 20
321.3370497455
 10
477.4901320747
 20
321.1743919085
 10
476.7573663287
 20
321.0333233983
 10
476.012992594
 20
320.9142183032
 10
475.2589848162
 20
320.8173924686
 10
474.4973424881
 20
320.743102659
 10
473.7300853484
 20
320.6915458779
 10
472.9592480251
 20
320.6628588443
 10
472.1868746401
 20
320.6571176313
 10
471.4150133889
 20
320.6743374635
 10
470.6457111086
 20
320.714472677
 10
469.8810078508
 20
320.7774168404
 10
469.1229314709
 20
320.8630030371
 10
468.3734922512
 20
320.9710043079
 10
467.6346775698
 20
321.1011342528
 10
466.9084466304
 20
321.2530477907
 10
466.1967252669
 20
321.4263420741
 10
465.5014008365
 20
321.6205575578
 10
464.8243172145
 20
321.8351792171
 10
464.1672699049
 20
322.0696379141
 10
463.5320012792
 20
322.3233119064
 10
462.9201959555
 20
322.5955284962
 10
462.3334763315
 20
322.885565814
 10
461.7733982822
 20
323.1926547331
  0
LWPOLYLINE
  5
94
330
1F
100
AcDbEntity
  8
0
  6
HIDDEN
 62
     7
370
    18
100
AcDbPolyline
 90
       55
 70
   128
 43
0.0
 10
452.38
 20
329.3157155718
 10
452.381223654
 20
329.4434314766
 10
452.4105838642
 20
329.9539825758
 10
452.4790351442
 20
330.4632842373
 10
452.5864434975
 20
330.9703394793
 10
452.7325986671
 20
331.4741557173
 10
452.9172145475
 20
331.9737467074
 10
453.1399297443
 20
332.4681344766
 10
453.4003082823
 20
332.9563512379
 10
453.697840458
 20
333.4374412838
 10
454.0319438384
 20
333.9104628582
 10
454.4019644003
 20
334.3744899989
 10
454.8071778112
 20
334.8286143511
 10
455.2467908467
 20
335.2719469451
 10
455.7199429437
 20
335.7036199365
 10
456.2257078847
 20
336.1227883051
 10
456.7630956112
 20
336.5286315092
 10
457.3310541614
 20
336.9203550916
 10
457.9284717298
 20
337.297192235
 10
458.5541788434
 20
337.658405263
 10
459.2069506512
 20
338.0032870842
 10
459.8855093216
 20
338.3311625762
 10
460.5885265444
 20
338.6413899073
 10
461.3146261301
 20
338.933361793
 10
462.0623867048
 20
339.2065066846
 10
462.8303444921
 20
339.4602898881
 10
463.6169961785
 20
339.6942146109
 10
464.4208018564
 20
339.9078229345
 10
465.2401880384
 20
340.1006967106
 10
466.0735507376
 20
340.2724583796
 10
466.9192586073
 20
340.42277171
 10
467.7756561348
 20
340.5513424565
 10
468.6410668817
 20
340.6579189357
 10
469.5137967657
 20
340.7422925192
 10
470.3921373771
 20
340.8042980417
 10
471.2743693229
 20
340.8438141245
 10
472.1587655927
 20
340.8607634131
 10
473.0435949393
 20
340.8551127283
 10
473.9271252676
 20
340.8268731317
 10
474.8076270256
 20
340.7760999037
 10
475.6833765896
 20
340.7028924351
 10
476.5526596389
 20
340.6073940331
 10
477.4137745109
 20
340.4897916402
 10
478.265035533
 20
340.3503154687
 10
479.1047763216
 20
340.1892385497
 10
479.9313530448
 20
340.0068761988
 10
480.7431476398
 20
339.803585399
 10
481.5385709806
 20
339.5797641015
 10
482.3160659885
 20
339.3358504469
 10
483.0741106807
 20
339.0723219078
 10
483.8112211491
 20
338.7896943537
 10
484.5259544652
 20
338.4885210411
 10
485.2169115051
 20
338.1693915312
 10
485.8827396879
 20
337.8329305347
 10
486.5221356237
 20
337.47979669
  0
LWPOLYLINE
  5
95
330
1F
100
AcDbEntity
  8
0
  6
HIDDEN
 62
     7
370
    18
100
AcDbPolyline
 90
       21
 70
   128
 43
0.0
 10
461.7733982822
 20
323.1926547331
 10
461.2414470339
 20
323.5159809088
 10
460.7390332257
 20
323.8546869381
 10
460.2674891688
 20
324.2078746337
 10
459.828065313
 20
324.5746074052
 10
459.4219269316
 20
324.9539127433
 10
459.0501510306
 20
325.3447847983
 10
458.7137234926
 20
325.7461870479
 10
458.4135364632
 20
326.1570550455
 10
458.1503859844
 20
326.5762992429
 10
457.9249698839
 20
327.00280788
 10
457.7378859246
 20
327.4354499325
 10
457.5896302197
 20
327.8730781114
 10
457.4805959166
 20
328.3145319056
 10
457.4110721546
 20
328.7586406588
 10
457.3812432983
 20
329.2042266746
 10
457.3911884485
 20
329.6501083389
 10
457.4408812324
 20
330.0951032537
 10
457.5301898737
 20
330.5380313724
 10
457.6588775418
 20
330.9777181294
 10
457.7610026895
 20
331.255
  0
LINE
  5
96
330
1F
100
AcDbEntity
  8
0
  6
HIDDEN
 62
     7
370
    18
100
AcDbLine
 10
487.38
 20
329.3157155718
 30
0.0
 11
487.38
 21
333.1942844282
 31
0.0
  0
LINE
  5
97
330
1F
100
AcDbEntity
  8
0
  6
HIDDEN
 62
     7
370
    18
100
AcDbLine
 10
457.38
 20
333.1942844282
 30
0.0
 11
457.38
 21
329.3157155718
 31
0.0
  0
ENDSEC
  0
SECTION
  2
OBJECTS
  0
DICTIONARY
  5
C
330
0
100
AcDbDictionary
281
     1
  3
ACAD_GROUP
350
D
  3
ACAD_LAYOUT
350
1A
  3
ACAD_MLINESTYLE
350
17
  3
ACAD_PLOTSETTINGS
350
19
  3
ACAD_PLOTSTYLENAME
350
E
  3
ACAD_SCALELIST
350
47
  3
DWGPROPS
350
98
  0
DICTIONARY
  5
D
102
{ACAD_REACTORS
330
C
102
}
330
C
100
AcDbDictionary
281
     1
  0
DICTIONARY
  5
1A
102
{ACAD_REACTORS
330
C
102
}
330
C
100
AcDbDictionary
281
     1
  3
Layout1
350
1E
  3
Layout2
350
26
  3
Model
350
22
  0
DICTIONARY
  5
17
102
{ACAD_REACTORS
330
C
102
}
330
C
100
AcDbDictionary
281
     1
  3
Standard
350
18
  0
DICTIONARY
  5
19
102
{ACAD_REACTORS
330
C
102
}
330
C
100
AcDbDictionary
281
     1
  0
ACDBDICTIONARYWDFLT
  5
E
102
{ACAD_REACTORS
330
C
102
}
330
C
100
AcDbDictionary
281
     1
  3
Normal
350
F
100
AcDbDictionaryWithDefault
340
F
  0
DICTIONARY
  5
47
102
{ACAD_REACTORS
330
C
102
}
330
C
100
AcDbDictionary
281
     1
  3
A0
350
48
  3
A1
350
49
  3
A2
350
4A
  3
A3
350
4B
  3
A4
350
4C
  3
A5
350
4D
  3
A6
350
4E
  3
A7
350
4F
  3
A8
350
50
  3
A9
350
51
  3
B0
350
52
  3
B1
350
53
  3
B2
350
54
  3
B3
350
55
  3
B4
350
56
  3
B5
350
57
  3
B6
350
58
  0
XRECORD
  5
98
102
{ACAD_REACTORS
330
C
102
}
330
C
100
AcDbXrecord
280
     1
  1
DWGPROPS COOKIE
  2

  3

  4

  6

  7

  8
imaizumi
  9

300
=
301
=
302
=
303
=
304
=
305
=
306
=
307
=
308
=
309
=
 40
0.0
 41
2461263.01754081
 42
2461263.017541678
  1

 90
        0
  0
LAYOUT
  5
1E
102
{ACAD_REACTORS
330
1A
102
}
330
1A
100
AcDbPlotSettings
  1

  2
none_device
  4

  6

 40
0.0
 41
0.0
 42
0.0
 43
0.0
 44
0.0
 45
0.0
 46
0.0
 47
0.0
 48
0.0
 49
0.0
140
0.0
141
0.0
142
1.0
143
1.0
 70
   688
 72
     1
 73
     0
 74
     5
  7

 75
    16
147
1.0
148
0.0
149
0.0
100
AcDbLayout
  1
Layout1
 70
     1
 71
     1
 10
0.0
 20
0.0
 11
420.0
 21
297.0
 12
0.0
 22
0.0
 32
0.0
 14
1.0000000000E+20
 24
1.0000000000E+20
 34
1.0000000000E+20
 15
-1.0000000000E+20
 25
-1.0000000000E+20
 35
-1.0000000000E+20
146
0.0
 13
0.0
 23
0.0
 33
0.0
 16
1.0
 26
0.0
 36
0.0
 17
0.0
 27
1.0
 37
0.0
 76
     0
330
1B
  0
LAYOUT
  5
26
102
{ACAD_REACTORS
330
1A
102
}
330
1A
100
AcDbPlotSettings
  1

  2
none_device
  4

  6

 40
0.0
 41
0.0
 42
0.0
 43
0.0
 44
0.0
 45
0.0
 46
0.0
 47
0.0
 48
0.0
 49
0.0
140
0.0
141
0.0
142
1.0
143
1.0
 70
   688
 72
     1
 73
     0
 74
     5
  7

 75
    16
147
1.0
148
0.0
149
0.0
100
AcDbLayout
  1
Layout2
 70
     1
 71
     2
 10
0.0
 20
0.0
 11
0.0
 21
0.0
 12
0.0
 22
0.0
 32
0.0
 14
0.0
 24
0.0
 34
0.0
 15
0.0
 25
0.0
 35
0.0
146
0.0
 13
0.0
 23
0.0
 33
0.0
 16
1.0
 26
0.0
 36
0.0
 17
0.0
 27
1.0
 37
0.0
 76
     0
330
23
  0
LAYOUT
  5
22
102
{ACAD_REACTORS
330
1A
102
}
330
1A
100
AcDbPlotSettings
  1

  2
none_device
  4
Letter_(8.50_x_11.00_Inches)
  6

 40
6.35
 41
6.35
 42
6.35000508
 43
6.35000508
 44
215.9
 45
279.4
 46
0.0
 47
0.0
 48
0.0
 49
0.0
140
0.0
141
0.0
142
1.0
143
1.0
 70
  1712
 72
     1
 73
     0
 74
     0
  7

 75
     0
147
1.0
148
0.0
149
0.0
100
AcDbLayout
  1
Model
 70
     1
 71
     0
 10
0.0
 20
0.0
 11
841.0
 21
594.0
 12
0.0
 22
0.0
 32
0.0
 14
0.0
 24
0.0
 34
0.0
 15
841.0
 25
594.0
 35
0.0
146
0.0
 13
0.0
 23
0.0
 33
0.0
 16
1.0
 26
0.0
 36
0.0
 17
0.0
 27
1.0
 37
0.0
 76
     0
330
1F
331
29
  0
MLINESTYLE
  5
18
102
{ACAD_REACTORS
330
17
102
}
330
17
100
AcDbMlineStyle
  2
Standard
 70
     0
  3

 62
   256
 51
90.0
 52
90.0
 71
     2
 49
0.5
 62
   256
  6
BYLAYER
 49
-0.5
 62
   256
  6
BYLAYER
  0
ACDBPLACEHOLDER
  5
F
102
{ACAD_REACTORS
330
E
102
}
330
E
  0
SCALE
  5
48
102
{ACAD_REACTORS
330
47
102
}
330
47
100
AcDbScale
 70
     0
300
1:1
140
1.0
141
1.0
290
     1
  0
SCALE
  5
49
102
{ACAD_REACTORS
330
47
102
}
330
47
100
AcDbScale
 70
     0
300
1:2
140
1.0
141
2.0
290
     0
  0
SCALE
  5
4A
102
{ACAD_REACTORS
330
47
102
}
330
47
100
AcDbScale
 70
     0
300
1:4
140
1.0
141
4.0
290
     0
  0
SCALE
  5
4B
102
{ACAD_REACTORS
330
47
102
}
330
47
100
AcDbScale
 70
     0
300
1:5
140
1.0
141
5.0
290
     0
  0
SCALE
  5
4C
102
{ACAD_REACTORS
330
47
102
}
330
47
100
AcDbScale
 70
     0
300
1:8
140
1.0
141
8.0
290
     0
  0
SCALE
  5
4D
102
{ACAD_REACTORS
330
47
102
}
330
47
100
AcDbScale
 70
     0
300
1:10
140
1.0
141
10.0
290
     0
  0
SCALE
  5
4E
102
{ACAD_REACTORS
330
47
102
}
330
47
100
AcDbScale
 70
     0
300
1:16
140
1.0
141
16.0
290
     0
  0
SCALE
  5
4F
102
{ACAD_REACTORS
330
47
102
}
330
47
100
AcDbScale
 70
     0
300
1:20
140
1.0
141
20.0
290
     0
  0
SCALE
  5
50
102
{ACAD_REACTORS
330
47
102
}
330
47
100
AcDbScale
 70
     0
300
1:30
140
1.0
141
30.0
290
     0
  0
SCALE
  5
51
102
{ACAD_REACTORS
330
47
102
}
330
47
100
AcDbScale
 70
     0
300
1:40
140
1.0
141
40.0
290
     0
  0
SCALE
  5
52
102
{ACAD_REACTORS
330
47
102
}
330
47
100
AcDbScale
 70
     0
300
1:50
140
1.0
141
50.0
290
     0
  0
SCALE
  5
53
102
{ACAD_REACTORS
330
47
102
}
330
47
100
AcDbScale
 70
     0
300
1:100
140
1.0
141
100.0
290
     0
  0
SCALE
  5
54
102
{ACAD_REACTORS
330
47
102
}
330
47
100
AcDbScale
 70
     0
300
2:1
140
2.0
141
1.0
290
     0
  0
SCALE
  5
55
102
{ACAD_REACTORS
330
47
102
}
330
47
100
AcDbScale
 70
     0
300
4:1
140
4.0
141
1.0
290
     0
  0
SCALE
  5
56
102
{ACAD_REACTORS
330
47
102
}
330
47
100
AcDbScale
 70
     0
300
8:1
140
8.0
141
1.0
290
     0
  0
SCALE
  5
57
102
{ACAD_REACTORS
330
47
102
}
330
47
100
AcDbScale
 70
     0
300
10:1
140
10.0
141
1.0
290
     0
  0
SCALE
  5
58
102
{ACAD_REACTORS
330
47
102
}
330
47
100
AcDbScale
 70
     0
300
100:1
140
100.0
141
1.0
290
     0
  0
ENDSEC
  0
EOF
