  0
SECTION
  2
HEADER
  9
$ACADVER
  1
AC1015
  9
$ACADMAINTVER
 70
     6
  9
$DWGCODEPAGE
  3
DOS932
  9
$INSBASE
 10
0.0
 20
0.0
 30
0.0
  9
$EXTMIN
 10
0.0
 20
0.0
 30
0.0
  9
$EXTMAX
 10
841.0
 20
594.0
 30
0.0
  9
$LIMMIN
 10
0.0
 20
0.0
  9
$LIMMAX
 10
841.0
 20
594.0
  9
$ORTHOMODE
 70
     0
  9
$REGENMODE
 70
     1
  9
$FILLMODE
 70
     1
  9
$QTEXTMODE
 70
     0
  9
$MIRRTEXT
 70
     1
  9
$LTSCALE
 40
1.0
  9
$ATTMODE
 70
     1
  9
$TEXTSIZE
 40
3.5
  9
$TRACEWID
 40
1.0
  9
$TEXTSTYLE
  7
Standard
  9
$CLAYER
  8
0
  9
$CELTYPE
  6
ByLayer
  9
$CECOLOR
 62
   256
  9
$CELTSCALE
 40
1.0
  9
$DISPSILH
 70
     0
  9
$DIMSCALE
 40
1.0
  9
$DIMASZ
 40
3.302
  9
$DIMEXO
 40
1.0
  9
$DIMDLI
 40
3.75
  9
$DIMRND
 40
0.0
  9
$DIMDLE
 40
0.0
  9
$DIMEXE
 40
1.0
  9
$DIMTP
 40
0.0
  9
$DIMTM
 40
0.0
  9
$DIMTXT
 40
3.5
  9
$DIMCEN
 40
2.5
  9
$DIMTSZ
 40
0.0
  9
$DIMTOL
 70
     0
  9
$DIMLIM
 70
     0
  9
$DIMTIH
 70
     1
  9
$DIMTOH
 70
     1
  9
$DIMSE1
 70
     0
  9
$DIMSE2
 70
     0
  9
$DIMTAD
 70
     1
  9
$DIMZIN
 70
     1
  9
$DIMBLK
  1

  9
$DIMASO
 70
     1
  9
$DIMSHO
 70
     1
  9
$DIMPOST
  1

  9
$DIMAPOST
  1

  9
$DIMALT
 70
     0
  9
$DIMALTD
 70
     3
  9
$DIMALTF
 40
0.0393700787
  9
$DIMLFAC
 40
1.0
  9
$DIMTOFL
 70
     1
  9
$DIMTVP
 40
0.0
  9
$DIMTIX
 70
     0
  9
$DIMSOXD
 70
     0
  9
$DIMSAH
 70
     0
  9
$DIMBLK1
  1

  9
$DIMBLK2
  1

  9
$DIMSTYLE
  2
ISO-25
  9
$DIMCLRD
 70
     0
  9
$DIMCLRE
 70
     0
  9
$DIMCLRT
 70
     0
  9
$DIMTFAC
 40
1.0
  9
$DIMGAP
 40
1.524
  9
$DIMJUST
 70
     0
  9
$DIMSD1
 70
     0
  9
$DIMSD2
 70
     0
  9
$DIMTOLJ
 70
     0
  9
$DIMTZIN
 70
     1
  9
$DIMALTZ
 70
     0
  9
$DIMALTTZ
 70
     0
  9
$DIMUPT
 70
     0
  9
$DIMDEC
 70
     2
  9
$DIMTDEC
 70
     2
  9
$DIMALTU
 70
     2
  9
$DIMALTTD
 70
     3
  9
$DIMTXSTY
  7
Standard
  9
$DIMAUNIT
 70
     0
  9
$DIMADEC
 70
     2
  9
$DIMALTRND
 40
0.0
  9
$DIMAZIN
 70
     0
  9
$DIMDSEP
 70
    44
  9
$DIMATFIT
 70
     3
  9
$DIMFRAC
 70
     0
  9
$DIMLDRBLK
  1

  9
$DIMLUNIT
 70
     2
  9
$DIMLWD
 70
    -2
  9
$DIMLWE
 70
    -2
  9
$DIMTMOVE
 70
     0
  9
$LUNITS
 70
     2
  9
$LUPREC
 70
     2
  9
$SKETCHINC
 40
1.0
  9
$FILLETRAD
 40
0.0
  9
$AUNITS
 70
     0
  9
$AUPREC
 70
     2
  9
$MENU
  1
.
  9
$ELEVATION
 40
0.0
  9
$PELEVATION
 40
0.0
  9
$THICKNESS
 40
0.0
  9
$LIMCHECK
 70
     0
  9
$CHAMFERA
 40
0.0
  9
$CHAMFERB
 40
0.0
  9
$CHAMFERC
 40
0.0
  9
$CHAMFERD
 40
0.0
  9
$SKPOLY
 70
     0
  9
$TDCREATE
 40
2461263.444863889
  9
$TDUCREATE
 40
2461263.069863889
  9
$TDUPDATE
 40
2461263.44486434
  9
$TDUUPDATE
 40
2461263.06986434
  9
$TDINDWG
 40
0.0000000116
  9
$TDUSRTIMER
 40
0.0000000116
  9
$USRTIMER
 70
     1
  9
$ANGBASE
 50
0.0
  9
$ANGDIR
 70
     0
  9
$PDMODE
 70
     0
  9
$PDSIZE
 40
-1.0
  9
$PLINEWID
 40
0.0
  9
$SPLFRAME
 70
     0
  9
$SPLINETYPE
 70
     6
  9
$SPLINESEGS
 70
     8
  9
$HANDSEED
  5
E5
  9
$SURFTAB1
 70
     6
  9
$SURFTAB2
 70
     6
  9
$SURFTYPE
 70
     6
  9
$SURFU
 70
     6
  9
$SURFV
 70
     6
  9
$UCSBASE
  2

  9
$UCSNAME
  2

  9
$UCSORG
 10
0.0
 20
0.0
 30
0.0
  9
$UCSXDIR
 10
1.0
 20
0.0
 30
0.0
  9
$UCSYDIR
 10
0.0
 20
1.0
 30
0.0
  9
$UCSORTHOREF
  2

  9
$UCSORTHOVIEW
 70
     0
  9
$UCSORGTOP
 10
0.0
 20
0.0
 30
0.0
  9
$UCSORGBOTTOM
 10
0.0
 20
0.0
 30
0.0
  9
$UCSORGLEFT
 10
0.0
 20
0.0
 30
0.0
  9
$UCSORGRIGHT
 10
0.0
 20
0.0
 30
0.0
  9
$UCSORGFRONT
 10
0.0
 20
0.0
 30
0.0
  9
$UCSORGBACK
 10
0.0
 20
0.0
 30
0.0
  9
$PUCSBASE
  2

  9
$PUCSNAME
  2

  9
$PUCSORG
 10
0.0
 20
0.0
 30
0.0
  9
$PUCSXDIR
 10
1.0
 20
0.0
 30
0.0
  9
$PUCSYDIR
 10
0.0
 20
1.0
 30
0.0
  9
$PUCSORTHOREF
  2

  9
$PUCSORTHOVIEW
 70
     0
  9
$PUCSORGTOP
 10
0.0
 20
0.0
 30
0.0
  9
$PUCSORGBOTTOM
 10
0.0
 20
0.0
 30
0.0
  9
$PUCSORGLEFT
 10
0.0
 20
0.0
 30
0.0
  9
$PUCSORGRIGHT
 10
0.0
 20
0.0
 30
0.0
  9
$PUCSORGFRONT
 10
0.0
 20
0.0
 30
0.0
  9
$PUCSORGBACK
 10
0.0
 20
0.0
 30
0.0
  9
$USERI1
 70
     0
  9
$USERI2
 70
     0
  9
$USERI3
 70
     0
  9
$USERI4
 70
     0
  9
$USERI5
 70
     0
  9
$USERR1
 40
0.0
  9
$USERR2
 40
0.0
  9
$USERR3
 40
0.0
  9
$USERR4
 40
0.0
  9
$USERR5
 40
0.0
  9
$WORLDVIEW
 70
     1
  9
$SHADEDGE
 70
     3
  9
$SHADEDIF
 70
    70
  9
$TILEMODE
 70
     1
  9
$MAXACTVP
 70
    64
  9
$PINSBASE
 10
0.0
 20
0.0
 30
0.0
  9
$PLIMCHECK
 70
     0
  9
$PEXTMIN
 10
1.0000000000E+20
 20
1.0000000000E+20
 30
1.0000000000E+20
  9
$PEXTMAX
 10
-1.0000000000E+20
 20
-1.0000000000E+20
 30
-1.0000000000E+20
  9
$PLIMMIN
 10
0.0
 20
0.0
  9
$PLIMMAX
 10
420.0
 20
297.0
  9
$UNITMODE
 70
     0
  9
$VISRETAIN
 70
     1
  9
$PLINEGEN
 70
     0
  9
$PSLTSCALE
 70
     1
  9
$TREEDEPTH
 70
  3020
  9
$CMLSTYLE
  2
Standard
  9
$CMLJUST
 70
     0
  9
$CMLSCALE
 40
20.0
  9
$PROXYGRAPHICS
 70
     1
  9
$MEASUREMENT
 70
     1
  9
$CELWEIGHT
370
    -1
  9
$ENDCAPS
280
     0
  9
$JOINSTYLE
280
     0
  9
$LWDISPLAY
290
     1
  9
$INSUNITS
 70
     4
  9
$HYPERLINKBASE
  1

  9
$STYLESHEET
  1

  9
$XEDIT
290
     1
  9
$CEPSNTYPE
380
     0
  9
$PSTYLEMODE
290
     1
  9
$FINGERPRINTGUID
  2
{39ab0ed4-be7e-4e95-93cb-a7fc9258b871}
  9
$VERSIONGUID
  2
{FAEB1C32-E019-11D5-929B-00C0DF256EC4}
  9
$EXTNAMES
290
     1
  9
$PSVPSCALE
 40
0.0
  9
$OLESTARTUP
290
     0
  0
ENDSEC
  0
SECTION
  2
CLASSES
  0
CLASS
  1
ACDBDICTIONARYWDFLT
  2
AcDbDictionaryWithDefault
  3
ObjectDBX Classes
 90
        0
280
     0
281
     0
  0
CLASS
  1
VISUALSTYLE
  2
AcDbVisualStyle
  3
ObjectDBX Classes
 90
     4095
280
     0
281
     0
  0
CLASS
  1
MATERIAL
  2
AcDbMaterial
  3
ObjectDBX Classes
 90
     1153
280
     0
281
     0
  0
CLASS
  1
SCALE
  2
AcDbScale
  3
ObjectDBX Classes
 90
     1153
280
     0
281
     0
  0
CLASS
  1
TABLESTYLE
  2
AcDbTableStyle
  3
ObjectDBX Classes
 90
     4095
280
     0
281
     0
  0
CLASS
  1
MLEADERSTYLE
  2
AcDbMLeaderStyle
  3
ACDB_MLEADERSTYLE_CLASS
 90
     4095
280
     0
281
     0
  0
CLASS
  1
SUN
  2
AcDbSun
  3
SCENEOE
 90
     1153
280
     0
281
     0
  0
CLASS
  1
ACDBPLACEHOLDER
  2
AcDbPlaceHolder
  3
ObjectDBX Classes
 90
        0
280
     0
281
     0
  0
CLASS
  1
LAYOUT
  2
AcDbLayout
  3
ObjectDBX Classes
 90
        0
280
     0
281
     0
  0
ENDSEC
  0
SECTION
  2
TABLES
  0
TABLE
  2
VPORT
  5
8
330
0
100
AcDbSymbolTable
 70
     1
  0
VPORT
  5
29
330
8
100
AcDbSymbolTableRecord
100
AcDbViewportTableRecord
  2
*Active
 70
     0
 10
0.0
 20
0.0
 11
1.0
 21
1.0
 12
420.5
 22
297.0
 13
0.0
 23
0.0
 14
10.0
 24
10.0
 15
10.0
 25
10.0
 16
0.0
 26
0.0
 36
1.0
 17
0.0
 27
0.0
 37
0.0
 40
594.0
 41
1.4158249158
 42
50.0
 43
0.0
 44
0.0
 50
0.0
 51
0.0
 71
     0
 72
  2000
 73
     1
 74
     3
 75
     0
 76
     0
 77
     0
 78
     0
281
     0
 65
     1
110
0.0
120
0.0
130
0.0
111
1.0
121
0.0
131
0.0
112
0.0
122
1.0
132
0.0
 79
     0
146
0.0
  0
ENDTAB
  0
TABLE
  2
LTYPE
  5
5
330
0
100
AcDbSymbolTable
 70
     6
  0
LTYPE
  5
14
330
5
100
AcDbSymbolTableRecord
100
AcDbLinetypeTableRecord
  2
ByBlock
 70
     0
  3

 72
    65
 73
     0
 40
0.0
  0
LTYPE
  5
15
330
5
100
AcDbSymbolTableRecord
100
AcDbLinetypeTableRecord
  2
ByLayer
 70
     0
  3

 72
    65
 73
     0
 40
0.0
  0
LTYPE
  5
16
330
5
100
AcDbSymbolTableRecord
100
AcDbLinetypeTableRecord
  2
Continuous
 70
     0
  3
Solid line
 72
    65
 73
     0
 40
0.0
  0
LTYPE
  5
5E
330
5
100
AcDbSymbolTableRecord
100
AcDbLinetypeTableRecord
  2
HIDDEN
 70
     0
  3
Hidden __ __ __ __ __ __ __ __ __ __ __ __ __ __
 72
    65
 73
     2
 40
1.905
 49
1.27
 74
     0
 49
-0.635
 74
     0
  0
LTYPE
  5
5F
330
5
100
AcDbSymbolTableRecord
100
AcDbLinetypeTableRecord
  2
PHANTOM
 70
     0
  3
Phantom ______  __  __  ______  __  __  ______
 72
    65
 73
     6
 40
12.7
 49
6.35
 74
     0
 49
-1.27
 74
     0
 49
1.27
 74
     0
 49
-1.27
 74
     0
 49
1.27
 74
     0
 49
-1.27
 74
     0
  0
LTYPE
  5
60
330
5
100
AcDbSymbolTableRecord
100
AcDbLinetypeTableRecord
  2
CENTER
 70
     0
  3
Center ____ _ ____ _ ____ _ ____ _ ____ _ ____
 72
    65
 73
     4
 40
10.16
 49
6.35
 74
     0
 49
-1.27
 74
     0
 49
1.27
 74
     0
 49
-1.27
 74
     0
  0
LTYPE
  5
61
330
5
100
AcDbSymbolTableRecord
100
AcDbLinetypeTableRecord
  2
CENTERX2
 70
     0
  3
Center (2x) ________  __  ________  __  _____
 72
    65
 73
     4
 40
20.32
 49
12.7
 74
     0
 49
-2.54
 74
     0
 49
2.54
 74
     0
 49
-2.54
 74
     0
  0
LTYPE
  5
62
330
5
100
AcDbSymbolTableRecord
100
AcDbLinetypeTableRecord
  2
DOT2
 70
     0
  3
Dot (.5x) ........................................
 72
    65
 73
     2
 40
0.635
 49
0.0
 74
     0
 49
-0.635
 74
     0
  0
ENDTAB
  0
TABLE
  2
LAYER
  5
2
330
0
100
AcDbSymbolTable
 70
     1
  0
LAYER
  5
10
330
2
100
AcDbSymbolTableRecord
100
AcDbLayerTableRecord
  2
0
 70
     0
 62
     7
  6
Continuous
370
    -3
390
F
  0
ENDTAB
  0
TABLE
  2
STYLE
  5
3
330
0
100
AcDbSymbolTable
 70
     1
  0
STYLE
  5
11
330
3
100
AcDbSymbolTableRecord
100
AcDbTextStyleTableRecord
  2
Standard
 70
     0
 40
0.0
 41
1.0
 50
0.0
 71
     0
 42
3.5
  3
txt
  4
bigfont
  0
ENDTAB
  0
TABLE
  2
VIEW
  5
6
330
0
100
AcDbSymbolTable
 70
     0
  0
ENDTAB
  0
TABLE
  2
UCS
  5
7
330
0
100
AcDbSymbolTable
 70
     0
  0
ENDTAB
  0
TABLE
  2
APPID
  5
9
330
0
100
AcDbSymbolTable
 70
     1
  0
APPID
  5
12
330
9
100
AcDbSymbolTableRecord
100
AcDbRegAppTableRecord
  2
ACAD
 70
     0
  0
ENDTAB
  0
TABLE
  2
DIMSTYLE
  5
A
330
0
100
AcDbSymbolTable
 70
     1
100
AcDbDimStyleTable
  0
DIMSTYLE
105
27
330
A
100
AcDbSymbolTableRecord
100
AcDbDimStyleTableRecord
  2
ISO-25
 70
     0
 41
2.5
 42
0.625
 43
3.75
 44
1.25
 73
     0
 74
     0
 77
     1
 78
     8
140
2.5
141
2.5
143
0.0393700787
147
0.625
171
     3
172
     1
178
     0
271
     2
272
     2
274
     3
278
    44
283
     0
284
     8
340
11
  0
ENDTAB
  0
TABLE
  2
BLOCK_RECORD
  5
1
330
0
100
AcDbSymbolTable
 70
     1
  0
BLOCK_RECORD
  5
1F
330
1
100
AcDbSymbolTableRecord
100
AcDbBlockTableRecord
  2
*Model_Space
340
22
  0
BLOCK_RECORD
  5
1B
330
1
100
AcDbSymbolTableRecord
100
AcDbBlockTableRecord
  2
*Paper_Space
340
1E
  0
BLOCK_RECORD
  5
23
330
1
100
AcDbSymbolTableRecord
100
AcDbBlockTableRecord
  2
*Paper_Space0
340
26
  0
ENDTAB
  0
ENDSEC
  0
SECTION
  2
BLOCKS
  0
BLOCK
  5
20
330
1F
100
AcDbEntity
  8
0
100
AcDbBlockBegin
  2
*Model_Space
 70
     0
 10
0.0
 20
0.0
 30
0.0
  3
*Model_Space
  1

  0
ENDBLK
  5
21
330
1F
100
AcDbEntity
  8
0
100
AcDbBlockEnd
  0
BLOCK
  5
1C
330
1B
100
AcDbEntity
 67
     1
  8
0
100
AcDbBlockBegin
  2
*Paper_Space
 70
     0
 10
0.0
 20
0.0
 30
0.0
  3
*Paper_Space
  1

  0
ENDBLK
  5
1D
330
1B
100
AcDbEntity
 67
     1
  8
0
100
AcDbBlockEnd
  0
BLOCK
  5
24
330
23
100
AcDbEntity
  8
0
100
AcDbBlockBegin
  2
*Paper_Space0
 70
     0
 10
0.0
 20
0.0
 30
0.0
  3
*Paper_Space0
  1

  0
ENDBLK
  5
25
330
23
100
AcDbEntity
  8
0
100
AcDbBlockEnd
  0
ENDSEC
  0
SECTION
  2
ENTITIES
  0
LINE
  5
63
330
1F
100
AcDbEntity
  8
0
  6
Continuous
 62
     7
370
    25
100
AcDbLine
 10
411.589516728
 20
215.1033712986
 30
0.0
 11
416.089516728
 21
215.1033712986
 31
0.0
  0
LINE
  5
64
330
1F
100
AcDbEntity
  8
0
  6
Continuous
 62
     7
370
    25
100
AcDbLine
 10
416.089516728
 20
215.1033712986
 30
0.0
 11
416.089516728
 21
210.1033712986
 31
0.0
  0
LINE
  5
65
330
1F
100
AcDbEntity
  8
0
  6
Continuous
 62
     7
370
    25
100
AcDbLine
 10
411.589516728
 20
210.1033712986
 30
0.0
 11
411.589516728
 21
215.1033712986
 31
0.0
  0
LINE
  5
66
330
1F
100
AcDbEntity
  8
0
  6
Continuous
 62
     7
370
    25
100
AcDbLine
 10
416.089516728
 20
165.1033712986
 30
0.0
 11
411.589516728
 21
165.1033712986
 31
0.0
  0
LINE
  5
67
330
1F
100
AcDbEntity
  8
0
  6
Continuous
 62
     7
370
    25
100
AcDbLine
 10
411.589516728
 20
165.1033712986
 30
0.0
 11
411.589516728
 21
170.1033712986
 31
0.0
  0
LINE
  5
68
330
1F
100
AcDbEntity
  8
0
  6
Continuous
 62
     7
370
    25
100
AcDbLine
 10
416.089516728
 20
170.1033712986
 30
0.0
 11
416.089516728
 21
165.1033712986
 31
0.0
  0
LINE
  5
69
330
1F
100
AcDbEntity
  8
0
  6
Continuous
 62
     7
370
    25
100
AcDbLine
 10
411.589516728
 20
210.1033712986
 30
0.0
 11
411.589516728
 21
170.1033712986
 31
0.0
  0
LINE
  5
6A
330
1F
100
AcDbEntity
  8
0
  6
Continuous
 62
     7
370
    25
100
AcDbLine
 10
416.089516728
 20
210.1033712986
 30
0.0
 11
416.089516728
 21
170.1033712986
 31
0.0
  0
ARC
  5
6B
330
1F
100
AcDbEntity
  8
0
  6
Continuous
 62
     7
370
    25
100
AcDbCircle
 10
216.089516728
 20
155.1033712986
 30
0.0
 40
10.00000000000003
100
AcDbArc
 50
90.0
 51
180.0
  0
LINE
  5
6C
330
1F
100
AcDbEntity
  8
0
  6
Continuous
 62
     7
370
    25
100
AcDbLine
 10
156.089516728
 20
115.1033712986
 30
0.0
 11
206.089516728
 21
115.1033712986
 31
0.0
  0
LINE
  5
6D
330
1F
100
AcDbEntity
  8
0
  6
Continuous
 62
     7
370
    25
100
AcDbLine
 10
156.089516728
 20
205.1033712986
 30
0.0
 11
156.089516728
 21
115.1033712986
 31
0.0
  0
ARC
  5
6E
330
1F
100
AcDbEntity
  8
0
  6
Continuous
 62
     7
370
    25
100
AcDbCircle
 10
196.289516728
 20
208.1033712986
 30
0.0
 40
2.500000000000028
100
AcDbArc
 50
180.0
 51
0.0
  0
ARC
  5
6F
330
1F
100
AcDbEntity
  8
0
  6
Continuous
 62
     7
370
    25
100
AcDbCircle
 10
166.089516728
 20
149.4033712986
 30
0.0
 40
2.5
100
AcDbArc
 50
180.0
 51
0.0
  0
ARC
  5
70
330
1F
100
AcDbEntity
  8
0
  6
Continuous
 62
     7
370
    25
100
AcDbCircle
 10
166.089516728
 20
205.1033712986
 30
0.0
 40
10.00000000000003
100
AcDbArc
 50
90.0
 51
180.0
  0
LINE
  5
71
330
1F
100
AcDbEntity
  8
0
  6
Continuous
 62
     7
370
    25
100
AcDbLine
 10
206.089516728
 20
155.1033712986
 30
0.0
 11
206.089516728
 21
115.1033712986
 31
0.0
  0
ARC
  5
72
330
1F
100
AcDbEntity
  8
0
  6
Continuous
 62
     7
370
    25
100
AcDbCircle
 10
166.089516728
 20
149.4033712986
 30
0.0
 40
2.5
100
AcDbArc
 50
0.0
 51
180.0
  0
ARC
  5
73
330
1F
100
AcDbEntity
  8
0
  6
Continuous
 62
     7
370
    25
100
AcDbCircle
 10
196.289516728
 20
208.1033712986
 30
0.0
 40
2.500000000000028
100
AcDbArc
 50
0.0
 51
180.0
  0
LINE
  5
74
330
1F
100
AcDbEntity
  8
0
  6
Continuous
 62
     7
370
    25
100
AcDbLine
 10
166.089516728
 20
215.1033712986
 30
0.0
 11
411.589516728
 21
215.1033712986
 31
0.0
  0
LINE
  5
75
330
1F
100
AcDbEntity
  8
0
  6
Continuous
 62
     7
370
    25
100
AcDbLine
 10
411.589516728
 20
165.1033712986
 30
0.0
 11
216.089516728
 21
165.1033712986
 31
0.0
  0
LINE
  5
76
330
1F
100
AcDbEntity
  8
0
  6
HIDDEN
 62
     7
370
    18
100
AcDbLine
 10
411.589516728
 20
170.1033712986
 30
0.0
 11
416.089516728
 21
170.1033712986
 31
0.0
  0
LINE
  5
77
330
1F
100
AcDbEntity
  8
0
  6
HIDDEN
 62
     7
370
    18
100
AcDbLine
 10
416.089516728
 20
180.1033712986
 30
0.0
 11
411.589516728
 21
180.1033712986
 31
0.0
  0
LINE
  5
78
330
1F
100
AcDbEntity
  8
0
  6
HIDDEN
 62
     7
370
    18
100
AcDbLine
 10
416.089516728
 20
210.1033712986
 30
0.0
 11
411.589516728
 21
210.1033712986
 31
0.0
  0
LINE
  5
79
330
1F
100
AcDbEntity
  8
0
  6
HIDDEN
 62
     7
370
    18
100
AcDbLine
 10
411.589516728
 20
200.1033712986
 30
0.0
 11
416.089516728
 21
200.1033712986
 31
0.0
  0
LINE
  5
7A
330
1F
100
AcDbEntity
  8
0
  6
Continuous
 62
     7
370
    25
100
AcDbLine
 10
166.089516728
 20
389.38
 30
0.0
 11
411.589516728
 21
389.38
 31
0.0
  0
LINE
  5
7B
330
1F
100
AcDbEntity
  8
0
  6
Continuous
 62
     7
370
    25
100
AcDbLine
 10
411.589516728
 20
393.88
 30
0.0
 11
166.089516728
 21
393.88
 31
0.0
  0
ARC
  5
7C
330
1F
100
AcDbEntity
  8
0
  6
Continuous
 62
     7
370
    25
100
AcDbCircle
 10
411.589516728
 20
389.38
 30
0.0
 40
4.5
100
AcDbArc
 50
0.0
 51
90.0
  0
LINE
  5
7D
330
1F
100
AcDbEntity
  8
0
  6
Continuous
 62
     7
370
    25
100
AcDbLine
 10
416.089516728
 20
368.88
 30
0.0
 11
416.089516728
 21
389.38
 31
0.0
  0
LINE
  5
7E
330
1F
100
AcDbEntity
  8
0
  6
Continuous
 62
     7
370
    25
100
AcDbLine
 10
411.589516728
 20
389.38
 30
0.0
 11
411.589516728
 21
368.88
 31
0.0
  0
LINE
  5
7F
330
1F
100
AcDbEntity
  8
0
  6
Continuous
 62
     7
370
    25
100
AcDbLine
 10
166.089516728
 20
389.38
 30
0.0
 11
156.089516728
 21
389.38
 31
0.0
  0
LINE
  5
80
330
1F
100
AcDbEntity
  8
0
  6
Continuous
 62
     7
370
    25
100
AcDbLine
 10
156.089516728
 20
389.38
 30
0.0
 11
156.089516728
 21
393.88
 31
0.0
  0
LINE
  5
81
330
1F
100
AcDbEntity
  8
0
  6
Continuous
 62
     7
370
    25
100
AcDbLine
 10
156.089516728
 20
393.88
 30
0.0
 11
166.089516728
 21
393.88
 31
0.0
  0
LINE
  5
82
330
1F
100
AcDbEntity
  8
0
  6
Continuous
 62
     7
370
    25
100
AcDbLine
 10
416.089516728
 20
363.88
 30
0.0
 11
411.589516728
 21
363.88
 31
0.0
  0
LINE
  5
83
330
1F
100
AcDbEntity
  8
0
  6
Continuous
 62
     7
370
    25
100
AcDbLine
 10
411.589516728
 20
363.88
 30
0.0
 11
411.589516728
 21
368.88
 31
0.0
  0
LINE
  5
84
330
1F
100
AcDbEntity
  8
0
  6
Continuous
 62
     7
370
    25
100
AcDbLine
 10
416.089516728
 20
368.88
 30
0.0
 11
416.089516728
 21
363.88
 31
0.0
  0
LINE
  5
85
330
1F
100
AcDbEntity
  8
0
  6
HIDDEN
 62
     7
370
    18
100
AcDbLine
 10
198.789516728
 20
393.88
 30
0.0
 11
198.789516728
 21
389.38
 31
0.0
  0
LINE
  5
86
330
1F
100
AcDbEntity
  8
0
  6
HIDDEN
 62
     7
370
    18
100
AcDbLine
 10
193.789516728
 20
393.88
 30
0.0
 11
193.789516728
 21
389.38
 31
0.0
  0
LINE
  5
87
330
1F
100
AcDbEntity
  8
0
  6
HIDDEN
 62
     7
370
    18
100
AcDbLine
 10
416.089516728
 20
368.88
 30
0.0
 11
411.589516728
 21
368.88
 31
0.0
  0
LINE
  5
88
330
1F
100
AcDbEntity
  8
0
  6
HIDDEN
 62
     7
370
    18
100
AcDbLine
 10
416.089516728
 20
378.88
 30
0.0
 11
411.589516728
 21
378.88
 31
0.0
  0
LINE
  5
89
330
1F
100
AcDbEntity
  8
0
  6
HIDDEN
 62
     7
370
    18
100
AcDbLine
 10
206.089516728
 20
393.88
 30
0.0
 11
206.089516728
 21
389.38
 31
0.0
  0
LINE
  5
8A
330
1F
100
AcDbEntity
  8
0
  6
HIDDEN
 62
     7
370
    18
100
AcDbLine
 10
168.589516728
 20
393.88
 30
0.0
 11
168.589516728
 21
389.38
 31
0.0
  0
LINE
  5
8B
330
1F
100
AcDbEntity
  8
0
  6
HIDDEN
 62
     7
370
    18
100
AcDbLine
 10
163.589516728
 20
393.88
 30
0.0
 11
163.589516728
 21
389.38
 31
0.0
  0
ARC
  5
8C
330
1F
100
AcDbEntity
  8
0
  6
Continuous
 62
     7
370
    25
100
AcDbCircle
 10
572.38
 20
210.1033712986
 30
0.0
 40
5.000000000000028
100
AcDbArc
 50
90.0
 51
180.0
  0
LINE
  5
8D
330
1F
100
AcDbEntity
  8
0
  6
Continuous
 62
     7
370
    25
100
AcDbLine
 10
572.38
 20
215.1033712986
 30
0.0
 11
592.88
 21
215.1033712986
 31
0.0
  0
ARC
  5
8E
330
1F
100
AcDbEntity
  8
0
  6
Continuous
 62
     7
370
    25
100
AcDbCircle
 10
572.38
 20
170.1033712986
 30
0.0
 40
5.0
100
AcDbArc
 50
180.0
 51
270.0
  0
LINE
  5
8F
330
1F
100
AcDbEntity
  8
0
  6
Continuous
 62
     7
370
    25
100
AcDbLine
 10
567.38
 20
210.1033712986
 30
0.0
 11
567.38
 21
170.1033712986
 31
0.0
  0
ARC
  5
90
330
1F
100
AcDbEntity
  8
0
  6
Continuous
 62
     7
370
    25
100
AcDbCircle
 10
577.38
 20
205.1033712986
 30
0.0
 40
5.0
100
AcDbArc
 50
0.0
 51
180.0
  0
ARC
  5
91
330
1F
100
AcDbEntity
  8
0
  6
Continuous
 62
     7
370
    25
100
AcDbCircle
 10
577.38
 20
205.1033712986
 30
0.0
 40
5.0
100
AcDbArc
 50
180.0
 51
0.0
  0
ARC
  5
92
330
1F
100
AcDbEntity
  8
0
  6
Continuous
 62
     7
370
    25
100
AcDbCircle
 10
577.38
 20
175.1033712986
 30
0.0
 40
4.999999999999886
100
AcDbArc
 50
0.0
 51
180.0
  0
ARC
  5
93
330
1F
100
AcDbEntity
  8
0
  6
Continuous
 62
     7
370
    25
100
AcDbCircle
 10
577.38
 20
175.1033712986
 30
0.0
 40
4.999999999999886
100
AcDbArc
 50
180.0
 51
0.0
  0
LINE
  5
94
330
1F
100
AcDbEntity
  8
0
  6
Continuous
 62
     7
370
    25
100
AcDbLine
 10
592.88
 20
165.1033712986
 30
0.0
 11
572.38
 21
165.1033712986
 31
0.0
  0
LINE
  5
95
330
1F
100
AcDbEntity
  8
0
  6
Continuous
 62
     7
370
    25
100
AcDbLine
 10
592.88
 20
215.1033712986
 30
0.0
 11
597.38
 21
215.1033712986
 31
0.0
  0
LINE
  5
96
330
1F
100
AcDbEntity
  8
0
  6
Continuous
 62
     7
370
    25
100
AcDbLine
 10
597.38
 20
215.1033712986
 30
0.0
 11
597.38
 21
165.1033712986
 31
0.0
  0
LINE
  5
97
330
1F
100
AcDbEntity
  8
0
  6
Continuous
 62
     7
370
    25
100
AcDbLine
 10
597.38
 20
165.1033712986
 30
0.0
 11
592.88
 21
165.1033712986
 31
0.0
  0
LINE
  5
98
330
1F
100
AcDbEntity
  8
0
  6
Continuous
 62
     7
370
    25
100
AcDbLine
 10
592.88
 20
165.1033712986
 30
0.0
 11
592.88
 21
155.1033712986
 31
0.0
  0
LINE
  5
99
330
1F
100
AcDbEntity
  8
0
  6
Continuous
 62
     7
370
    25
100
AcDbLine
 10
597.38
 20
155.1033712986
 30
0.0
 11
597.38
 21
165.1033712986
 31
0.0
  0
LINE
  5
9A
330
1F
100
AcDbEntity
  8
0
  6
Continuous
 62
     7
370
    25
100
AcDbLine
 10
597.38
 20
115.1033712986
 30
0.0
 11
592.88
 21
115.1033712986
 31
0.0
  0
LINE
  5
9B
330
1F
100
AcDbEntity
  8
0
  6
Continuous
 62
     7
370
    25
100
AcDbLine
 10
592.88
 20
155.1033712986
 30
0.0
 11
592.88
 21
115.1033712986
 31
0.0
  0
LINE
  5
9C
330
1F
100
AcDbEntity
  8
0
  6
Continuous
 62
     7
370
    25
100
AcDbLine
 10
597.38
 20
115.1033712986
 30
0.0
 11
597.38
 21
155.1033712986
 31
0.0
  0
LINE
  5
9D
330
1F
100
AcDbEntity
  8
0
  6
HIDDEN
 62
     7
370
    18
100
AcDbLine
 10
592.88
 20
215.1033712986
 30
0.0
 11
592.88
 21
165.1033712986
 31
0.0
  0
LINE
  5
9E
330
1F
100
AcDbEntity
  8
0
  6
HIDDEN
 62
     7
370
    18
100
AcDbLine
 10
597.38
 20
210.6033712986
 30
0.0
 11
592.88
 21
210.6033712986
 31
0.0
  0
LINE
  5
9F
330
1F
100
AcDbEntity
  8
0
  6
HIDDEN
 62
     7
370
    18
100
AcDbLine
 10
592.88
 20
205.6033712986
 30
0.0
 11
597.38
 21
205.6033712986
 31
0.0
  0
LINE
  5
A0
330
1F
100
AcDbEntity
  8
0
  6
HIDDEN
 62
     7
370
    18
100
AcDbLine
 10
592.88
 20
146.9033712986
 30
0.0
 11
597.38
 21
146.9033712986
 31
0.0
  0
LINE
  5
A1
330
1F
100
AcDbEntity
  8
0
  6
HIDDEN
 62
     7
370
    18
100
AcDbLine
 10
597.38
 20
151.9033712986
 30
0.0
 11
592.88
 21
151.9033712986
 31
0.0
  0
LINE
  5
A2
330
1F
100
AcDbEntity
  8
0
  6
Continuous
 62
     7
370
    25
100
AcDbLine
 10
683.0465222414
 20
331.9365335702
 30
0.0
 11
683.0465222414
 21
372.7635741645
 31
0.0
  0
LINE
  5
A3
330
1F
100
AcDbEntity
  8
0
  6
Continuous
 62
     7
370
    25
100
AcDbLine
 10
661.5510363955
 20
323.3208101715
 30
0.0
 11
664.7330169108
 21
321.4838919199
 31
0.0
  0
LINE
  5
A4
330
1F
100
AcDbEntity
  8
0
  6
Continuous
 62
     7
370
    25
100
AcDbLine
 10
503.1341943122
 20
475.3096686473
 30
0.0
 11
499.9522137969
 21
473.4727503957
 31
0.0
  0
ARC
  5
A5
330
1F
100
AcDbEntity
  8
0
  6
Continuous
 62
     7
370
    25
100
AcDbCircle
 10
671.3733603433
 20
356.0854441664
 30
0.0
 40
7.6840240378606
100
AcDbArc
 50
122.60547834
 51
177.3945215143
  0
ARC
  5
A6
330
1F
100
AcDbEntity
  8
0
  6
Continuous
 62
     7
370
    25
100
AcDbCircle
 10
668.191379828
 20
357.922362418
 30
0.0
 40
7.684024037861562
100
AcDbArc
 50
122.60547834
 51
177.3945215143
  0
LINE
  5
A7
330
1F
100
AcDbEntity
  8
0
  6
Continuous
 62
     7
370
    25
100
AcDbLine
 10
667.2328137424
 20
362.5584727667
 30
0.0
 11
681.7285027567
 21
370.9266559129
 31
0.0
  0
LINE
  5
A8
330
1F
100
AcDbEntity
  8
0
  6
Continuous
 62
     7
370
    25
100
AcDbLine
 10
681.7285027567
 20
330.0996153186
 30
0.0
 11
667.2328137424
 21
321.7314321724
 31
0.0
  0
ARC
  5
A9
330
1F
100
AcDbEntity
  8
0
  6
Continuous
 62
     7
370
    25
100
AcDbCircle
 10
665.8526516736
 20
323.4234799678
 30
0.0
 40
2.183545987142367
100
AcDbArc
 50
170.7859630095
 51
309.2032852357
  0
LINE
  5
AA
330
1F
100
AcDbEntity
  8
0
  6
Continuous
 62
     7
370
    25
100
AcDbLine
 10
663.6972798365
 20
356.4347484277
 30
0.0
 11
663.6972798365
 21
323.7731159523
 31
0.0
  0
LWPOLYLINE
  5
AB
330
1F
100
AcDbEntity
  8
0
  6
Continuous
 62
     7
370
    25
100
AcDbPolyline
 90
       17
 70
   128
 43
0.0
 10
674.3038815543
 20
358.475105207
 10
674.2359472616
 20
359.2323836242
 10
674.0347550605
 20
359.8821249919
 10
673.7080366544
 20
360.3993601136
 10
673.2683476483
 20
360.7642119336
 10
672.7325850443
 20
360.9626594011
 10
672.1213378987
 20
360.9870762913
 10
671.4580960965
 20
360.8365242767
 10
670.7683476483
 20
360.5167889868
 10
670.0785992001
 20
360.0401576695
 10
669.415357398
 20
359.4249469991
 10
668.8041102524
 20
358.6947991765
 10
668.2683476483
 20
357.8777733732
 10
667.8286586423
 20
357.0052674325
 10
667.5019402361
 20
356.1108112685
 10
667.300748035
 20
355.2287783299
 10
667.2328137424
 20
354.3930646478
  0
LWPOLYLINE
  5
AC
330
1F
100
AcDbEntity
  8
0
  6
Continuous
 62
     7
370
    25
100
AcDbPolyline
 90
       17
 70
   128
 43
0.0
 10
667.2328137424
 20
354.3930646478
 10
667.300748035
 20
353.6357862306
 10
667.5019402361
 20
352.9860448629
 10
667.8286586423
 20
352.4688097412
 10
668.2683476483
 20
352.1039579212
 10
668.8041102524
 20
351.9055104536
 10
669.415357398
 20
351.8810935635
 10
670.0785992001
 20
352.0316455781
 10
670.7683476483
 20
352.351380868
 10
671.4580960965
 20
352.8280121852
 10
672.1213378987
 20
353.4432228557
 10
672.7325850443
 20
354.1733706783
 10
673.2683476483
 20
354.9903964816
 10
673.7080366544
 20
355.8629024223
 10
674.0347550605
 20
356.7573585863
 10
674.2359472616
 20
357.6393915249
 10
674.3038815543
 20
358.475105207
  0
LWPOLYLINE
  5
AD
330
1F
100
AcDbEntity
  8
0
  6
Continuous
 62
     7
370
    25
100
AcDbPolyline
 90
       17
 70
   128
 43
0.0
 10
674.3038815543
 20
333.9788808504
 10
674.2359472616
 20
334.7361592677
 10
674.0347550605
 20
335.3859006353
 10
673.7080366544
 20
335.903135757
 10
673.2683476483
 20
336.267987577
 10
672.7325850443
 20
336.4664350446
 10
672.1213378987
 20
336.4908519347
 10
671.4580960965
 20
336.3402999201
 10
670.7683476483
 20
336.0205646303
 10
670.0785992001
 20
335.543933313
 10
669.415357398
 20
334.9287226425
 10
668.8041102524
 20
334.19857482
 10
668.2683476483
 20
333.3815490166
 10
667.8286586423
 20
332.5090430759
 10
667.5019402361
 20
331.6145869119
 10
667.300748035
 20
330.7325539733
 10
667.2328137424
 20
329.8968402913
  0
LWPOLYLINE
  5
AE
330
1F
100
AcDbEntity
  8
0
  6
Continuous
 62
     7
370
    25
100
AcDbPolyline
 90
       17
 70
   128
 43
0.0
 10
667.2328137424
 20
329.8968402913
 10
667.300748035
 20
329.139561874
 10
667.5019402361
 20
328.4898205063
 10
667.8286586423
 20
327.9725853846
 10
668.2683476483
 20
327.6077335646
 10
668.8041102524
 20
327.4092860971
 10
669.415357398
 20
327.3848692069
 10
670.0785992001
 20
327.5354212215
 10
670.7683476483
 20
327.8551565114
 10
671.4580960965
 20
328.3317878287
 10
672.1213378987
 20
328.9469984991
 10
672.7325850443
 20
329.6771463217
 10
673.2683476483
 20
330.494172125
 10
673.7080366544
 20
331.3666780657
 10
674.0347550605
 20
332.2611342298
 10
674.2359472616
 20
333.1431671684
 10
674.3038815543
 20
333.9788808504
  0
LINE
  5
AF
330
1F
100
AcDbEntity
  8
0
  6
Continuous
 62
     7
370
    25
100
AcDbLine
 10
660.5152993211
 20
358.2716666793
 30
0.0
 11
660.5152993211
 21
325.6100342039
 31
0.0
  0
LINE
  5
B0
330
1F
100
AcDbEntity
  8
0
  6
Continuous
 62
     7
370
    25
100
AcDbLine
 10
504.9518074601
 20
472.9776698907
 30
0.0
 11
678.5465222414
 21
372.7635741645
 31
0.0
  0
LINE
  5
B1
330
1F
100
AcDbEntity
  8
0
  6
Continuous
 62
     7
370
    25
100
AcDbLine
 10
681.7285027567
 20
374.6004924161
 30
0.0
 11
508.1337879754
 21
474.8145881423
 31
0.0
  0
ARC
  5
B2
330
1F
100
AcDbEntity
  8
0
  6
Continuous
 62
     7
370
    25
100
AcDbCircle
 10
681.0313311361
 20
372.7635741645
 30
0.0
 40
1.964768925754312
100
AcDbArc
 50
290.7834207995
 51
69.2165792005
  0
LINE
  5
B3
330
1F
100
AcDbEntity
  8
0
  6
Continuous
 62
     7
370
    25
100
AcDbLine
 10
678.5465222414
 20
372.7635741645
 30
0.0
 11
664.050833227
 21
364.3953910183
 31
0.0
  0
LINE
  5
B4
330
1F
100
AcDbEntity
  8
0
  6
Continuous
 62
     7
370
    25
100
AcDbLine
 10
671.105713391
 20
360.6929165572
 30
0.0
 11
671.1219010389
 21
360.3120234586
 31
0.0
  0
ARC
  5
B5
330
1F
100
AcDbEntity
  8
0
  6
Continuous
 62
     7
370
    25
100
AcDbCircle
 10
663.6563708585
 20
360.5611573034
 30
0.0
 40
7.469685973763514
100
AcDbArc
 50
298.748210601
 51
358.088679273
  0
ARC
  5
B6
330
1F
100
AcDbEntity
  8
0
  6
Continuous
 62
     7
370
    25
100
AcDbCircle
 10
680.7944654602
 20
332.1611122662
 30
0.0
 40
2.263226753222479
100
AcDbArc
 50
294.3746582936
 51
354.3052007488
  0
LINE
  5
B7
330
1F
100
AcDbEntity
  8
0
  6
Continuous
 62
     7
370
    25
100
AcDbLine
 10
660.5152993211
 20
342.3457369959
 30
0.0
 11
540.3071465194
 21
411.7404265009
 31
0.0
  0
LWPOLYLINE
  5
B8
330
1F
100
AcDbEntity
  8
0
  6
Continuous
 62
     7
370
    25
100
AcDbPolyline
 90
       12
 70
   128
 43
0.0
 10
540.3071465194
 20
411.7404265009
 10
539.3008286473
 20
412.2382493618
 10
538.3149965052
 20
412.5597138226
 10
537.3697187924
 20
412.698275794
 10
536.4842386373
 20
412.6511145538
 10
535.6765818623
 20
412.4191901688
 10
534.9631900304
 20
412.0072239507
 10
534.3585857418
 20
411.4236023438
 10
533.8750769964
 20
410.6802062008
 10
533.522506638
 20
409.7921689235
 10
533.3080519822
 20
408.7775683899
 10
533.2360787075
 20
407.6570589411
  0
LINE
  5
B9
330
1F
100
AcDbEntity
  8
0
  6
Continuous
 62
     7
370
    25
100
AcDbLine
 10
533.2360787075
 20
407.6570589411
 30
0.0
 11
533.2360787075
 21
374.9954264657
 31
0.0
  0
LINE
  5
BA
330
1F
100
AcDbEntity
  8
0
  6
Continuous
 62
     7
370
    25
100
AcDbLine
 10
497.8807396482
 20
395.4056292613
 30
0.0
 11
533.2360787075
 21
374.9954264657
 31
0.0
  0
LINE
  5
BB
330
1F
100
AcDbEntity
  8
0
  6
Continuous
 62
     7
370
    25
100
AcDbLine
 10
497.8807396482
 20
468.894302331
 30
0.0
 11
497.8807396482
 21
395.4056292613
 31
0.0
  0
LWPOLYLINE
  5
BC
330
1F
100
AcDbEntity
  8
0
  6
Continuous
 62
     7
370
    25
100
AcDbPolyline
 90
       12
 70
   128
 43
0.0
 10
504.9518074601
 20
472.9776698907
 10
503.945489588
 20
473.4754927516
 10
502.9596574458
 20
473.7969572124
 10
502.0143797331
 20
473.9355191838
 10
501.128899578
 20
473.8883579436
 10
500.321242803
 20
473.6564335587
 10
499.607850971
 20
473.2444673406
 10
499.0032466825
 20
472.6608457336
 10
498.5197379371
 20
471.9174495906
 10
498.1671675786
 20
471.0294123133
 10
497.9527129229
 20
470.0148117798
 10
497.8807396482
 20
468.894302331
  0
LWPOLYLINE
  5
BD
330
1F
100
AcDbEntity
  8
0
  6
Continuous
 62
     7
370
    25
100
AcDbPolyline
 90
       12
 70
   128
 43
0.0
 10
524.5386652989
 20
455.9546318588
 10
524.6102722815
 20
455.3381787009
 10
524.8192920575
 20
454.6889912493
 10
525.1487910876
 20
454.0596628106
 10
525.5720753202
 20
453.501177832
 10
526.0548527839
 20
453.0587814451
 10
526.5580117199
 20
452.7683139741
 10
527.0407891837
 20
452.653307366
 10
527.4640734162
 20
452.7230787723
 10
527.7935724463
 20
452.9719757286
 10
528.0025922223
 20
453.3798340836
 10
528.0741992049
 20
453.9136115792
  0
LWPOLYLINE
  5
BE
330
1F
100
AcDbEntity
  8
0
  6
Continuous
 62
     7
370
    25
100
AcDbPolyline
 90
       12
 70
   128
 43
0.0
 10
528.0741992049
 20
453.9136115792
 10
528.0025922223
 20
454.5300647371
 10
527.7935724463
 20
455.1792521887
 10
527.4640734162
 20
455.8085806274
 10
527.0407891837
 20
456.367065606
 10
526.5580117199
 20
456.8094619929
 10
526.0548527839
 20
457.0999294639
 10
525.5720753202
 20
457.214936072
 10
525.1487910876
 20
457.1451646657
 10
524.8192920575
 20
456.8962677094
 10
524.6102722815
 20
456.4884093544
 10
524.5386652989
 20
455.9546318588
  0
LWPOLYLINE
  5
BF
330
1F
100
AcDbEntity
  8
0
  6
Continuous
 62
     7
370
    25
100
AcDbPolyline
 90
       12
 70
   128
 43
0.0
 10
503.1840405071
 20
420.3514486896
 10
503.2556474897
 20
419.7349955317
 10
503.4646672657
 20
419.0858080801
 10
503.7941662958
 20
418.4564796414
 10
504.2174505283
 20
417.8979946628
 10
504.7002279921
 20
417.4555982759
 10
505.2033869281
 20
417.1651308049
 10
505.6861643918
 20
417.0501241968
 10
506.1094486243
 20
417.1198956031
 10
506.4389476545
 20
417.3687925594
 10
506.6479674304
 20
417.7766509145
 10
506.719574413
 20
418.31042841
  0
LWPOLYLINE
  5
C0
330
1F
100
AcDbEntity
  8
0
  6
Continuous
 62
     7
370
    25
100
AcDbPolyline
 90
       12
 70
   128
 43
0.0
 10
506.719574413
 20
418.31042841
 10
506.6479674304
 20
418.926881568
 10
506.4389476545
 20
419.5760690195
 10
506.1094486243
 20
420.2053974583
 10
505.6861643918
 20
420.7638824369
 10
505.2033869281
 20
421.2062788238
 10
504.7002279921
 20
421.4967462948
 10
504.2174505283
 20
421.6117529028
 10
503.7941662958
 20
421.5419814965
 10
503.4646672657
 20
421.2930845403
 10
503.2556474897
 20
420.8852261852
 10
503.1840405071
 20
420.3514486896
  0
LINE
  5
C1
330
1F
100
AcDbEntity
  8
0
  6
Continuous
 62
     7
370
    25
100
AcDbLine
 10
671.105713391
 20
336.1966922007
 30
0.0
 11
671.1219010389
 21
335.815799102
 31
0.0
  0
ARC
  5
C2
330
1F
100
AcDbEntity
  8
0
  6
Continuous
 62
     7
370
    25
100
AcDbCircle
 10
662.9653088332
 20
325.3396005173
 30
0.0
 40
2.464889650340446
100
AcDbArc
 50
173.7011524861
 51
234.9866671205
  0
ARC
  5
C3
330
1F
100
AcDbEntity
  8
0
  6
Continuous
 62
     7
370
    25
100
AcDbCircle
 10
663.6563708585
 20
336.0649329468
 30
0.0
 40
7.469685973764371
100
AcDbArc
 50
298.748210601
 51
358.088679273
  0
ARC
  5
C4
330
1F
100
AcDbEntity
  8
0
  6
Continuous
 62
     7
370
    25
100
AcDbCircle
 10
542.6877126422
 20
409.7383532292
 30
0.0
 40
6.274414207325269
100
AcDbArc
 50
151.7940572013
 51
182.2321219862
  0
ARC
  5
C5
330
1F
100
AcDbEntity
  8
0
  6
Continuous
 62
     7
370
    25
100
AcDbCircle
 10
505.2098445107
 20
470.7788637584
 30
0.0
 40
4.98362485422978
100
AcDbArc
 50
54.0761010947
 51
114.6134404762
  0
LINE
  5
C6
330
1F
100
AcDbEntity
  8
0
  6
Continuous
 62
     7
370
    25
100
AcDbLine
 10
536.4180592229
 20
376.8323447173
 30
0.0
 11
533.2360787075
 21
374.9954264657
 31
0.0
  0
LINE
  5
C7
330
1F
100
AcDbEntity
  8
0
  6
Continuous
 62
     7
370
    25
100
AcDbLine
 10
536.4180592229
 20
376.8323447173
 30
0.0
 11
536.4180592229
 21
409.4939771927
 31
0.0
  0
LWPOLYLINE
  5
C8
330
1F
100
AcDbEntity
  8
0
  6
HIDDEN
 62
     7
370
    18
100
AcDbPolyline
 90
       17
 70
   128
 43
0.0
 10
664.050833227
 20
356.2299828994
 10
664.1187675197
 20
357.0656965815
 10
664.3199597208
 20
357.9477295201
 10
664.6466781269
 20
358.8421856841
 10
665.086367133
 20
359.7146916248
 10
665.622129737
 20
360.5317174281
 10
666.2333768826
 20
361.2618652507
 10
666.8966186848
 20
361.8770759211
 10
667.586367133
 20
362.3537072384
 10
668.2761155812
 20
362.6734425283
 10
668.9393573833
 20
362.8239945429
 10
669.5506045289
 20
362.7995776527
 10
670.086367133
 20
362.6011301852
 10
670.526056139
 20
362.2362783652
 10
670.8527745452
 20
361.7190432435
 10
671.0539667463
 20
361.0693018758
 10
671.105713391
 20
360.6929165572
  0
LWPOLYLINE
  5
C9
330
1F
100
AcDbEntity
  8
0
  6
HIDDEN
 62
     7
370
    18
100
AcDbPolyline
 90
        9
 70
   128
 43
0.0
 10
667.2490013903
 20
354.0121715492
 10
666.8966186848
 20
353.8685638297
 10
666.2333768826
 20
353.7180118151
 10
665.622129737
 20
353.7424287052
 10
665.086367133
 20
353.9408761728
 10
664.6466781269
 20
354.3057279928
 10
664.3199597208
 20
354.8229631145
 10
664.1187675197
 20
355.4727044822
 10
664.050833227
 20
356.2299828994
  0
ARC
  5
CA
330
1F
100
AcDbEntity
  8
0
  6
HIDDEN
 62
     7
370
    18
100
AcDbCircle
 10
680.7944654602
 20
331.7119548741
 30
0.0
 40
2.263226753222228
100
AcDbArc
 50
5.6947992512
 51
65.6253417064
  0
LINE
  5
CB
330
1F
100
AcDbEntity
  8
0
  6
HIDDEN
 62
     7
370
    18
100
AcDbLine
 10
678.5465222414
 20
331.9365335702
 30
0.0
 11
660.5152993211
 21
342.3457369959
 31
0.0
  0
LINE
  5
CC
330
1F
100
AcDbEntity
  8
0
  6
HIDDEN
 62
     7
370
    18
100
AcDbLine
 10
678.5465222414
 20
372.7635741645
 30
0.0
 11
678.5465222414
 21
331.9365335702
 31
0.0
  0
LWPOLYLINE
  5
CD
330
1F
100
AcDbEntity
  8
0
  6
HIDDEN
 62
     7
370
    18
100
AcDbPolyline
 90
       17
 70
   128
 43
0.0
 10
664.050833227
 20
331.7337585429
 10
664.1187675197
 20
332.5694722249
 10
664.3199597208
 20
333.4515051635
 10
664.6466781269
 20
334.3459613275
 10
665.086367133
 20
335.2184672682
 10
665.622129737
 20
336.0354930716
 10
666.2333768826
 20
336.7656408941
 10
666.8966186848
 20
337.3808515646
 10
667.586367133
 20
337.8574828819
 10
668.2761155812
 20
338.1772181717
 10
668.9393573833
 20
338.3277701863
 10
669.5506045289
 20
338.3033532962
 10
670.086367133
 20
338.1049058286
 10
670.526056139
 20
337.7400540086
 10
670.8527745452
 20
337.2228188869
 10
671.0539667463
 20
336.5730775193
 10
671.105713391
 20
336.1966922007
  0
ARC
  5
CE
330
1F
100
AcDbEntity
  8
0
  6
HIDDEN
 62
     7
370
    18
100
AcDbCircle
 10
662.5862329528
 20
325.6127570696
 30
0.0
 40
2.514886179508918
100
AcDbArc
 50
245.6928809539
 51
305.6175774752
  0
LWPOLYLINE
  5
CF
330
1F
100
AcDbEntity
  8
0
  6
HIDDEN
 62
     7
370
    18
100
AcDbPolyline
 90
        9
 70
   128
 43
0.0
 10
667.2490013903
 20
329.5159471926
 10
666.8966186848
 20
329.3723394731
 10
666.2333768826
 20
329.2217874585
 10
665.622129737
 20
329.2462043487
 10
665.086367133
 20
329.4446518162
 10
664.6466781269
 20
329.8095036362
 10
664.3199597208
 20
330.3267387579
 10
664.1187675197
 20
330.9764801256
 10
664.050833227
 20
331.7337585429
  0
LINE
  5
D0
330
1F
100
AcDbEntity
  8
0
  6
HIDDEN
 62
     7
370
    18
100
AcDbLine
 10
543.4891270347
 20
413.5773447525
 30
0.0
 11
681.7285027567
 21
333.7734518218
 31
0.0
  0
LINE
  5
D1
330
1F
100
AcDbEntity
  8
0
  6
HIDDEN
 62
     7
370
    18
100
AcDbLine
 10
664.050833227
 20
323.568350424
 30
0.0
 11
678.5465222414
 21
331.9365335702
 31
0.0
  0
LWPOLYLINE
  5
D2
330
1F
100
AcDbEntity
  8
0
  6
HIDDEN
 62
     7
370
    18
100
AcDbPolyline
 90
       12
 70
   128
 43
0.0
 10
527.7206458143
 20
457.7915501104
 10
527.7922527969
 20
458.325327606
 10
528.0012725728
 20
458.733185961
 10
528.330771603
 20
458.9820829173
 10
528.7540558355
 20
459.0518543236
 10
529.2368332992
 20
458.9368477155
 10
529.7399922353
 20
458.6463802445
 10
530.222769699
 20
458.2039838576
 10
530.6460539315
 20
457.645498879
 10
530.9755529617
 20
457.0161704403
 10
531.1845727376
 20
456.3669829887
 10
531.2561797202
 20
455.7505298308
  0
LWPOLYLINE
  5
D3
330
1F
100
AcDbEntity
  8
0
  6
HIDDEN
 62
     7
370
    18
100
AcDbPolyline
 90
       12
 70
   128
 43
0.0
 10
531.2561797202
 20
455.7505298308
 10
531.1845727376
 20
455.2167523352
 10
530.9755529617
 20
454.8088939802
 10
530.6460539315
 20
454.5599970239
 10
530.222769699
 20
454.4902256176
 10
529.7399922353
 20
454.6052322257
 10
529.2368332992
 20
454.8956996967
 10
528.7540558355
 20
455.3380960836
 10
528.330771603
 20
455.8965810622
 10
528.0012725728
 20
456.5259095009
 10
527.7922527969
 20
457.1750969525
 10
527.7206458143
 20
457.7915501104
  0
LWPOLYLINE
  5
D4
330
1F
100
AcDbEntity
  8
0
  6
HIDDEN
 62
     7
370
    18
100
AcDbPolyline
 90
        9
 70
   128
 43
0.0
 10
537.1583573031
 20
412.7039059904
 10
537.5405662571
 20
413.2605205954
 10
538.1451705457
 20
413.8441422023
 10
538.8585623777
 20
414.2561084204
 10
539.6662191526
 20
414.4880328054
 10
540.5516993077
 20
414.5351940456
 10
541.4969770205
 20
414.3966320742
 10
542.4828091627
 20
414.0751676134
 10
543.4891270347
 20
413.5773447525
  0
ARC
  5
D5
330
1F
100
AcDbEntity
  8
0
  6
HIDDEN
 62
     7
370
    18
100
AcDbCircle
 10
506.0204908308
 20
471.2459587884
 30
0.0
 40
4.984420268201954
100
AcDbArc
 50
125.3847106268
 51
185.9274697666
  0
LINE
  5
D6
330
1F
100
AcDbEntity
  8
0
  6
HIDDEN
 62
     7
370
    18
100
AcDbLine
 10
501.0627201635
 20
470.7312205826
 30
0.0
 11
501.0627201635
 21
397.2425475129
 31
0.0
  0
LINE
  5
D7
330
1F
100
AcDbEntity
  8
0
  6
HIDDEN
 62
     7
370
    18
100
AcDbLine
 10
501.0627201635
 20
397.2425475129
 30
0.0
 11
497.8807396482
 21
395.4056292613
 31
0.0
  0
LINE
  5
D8
330
1F
100
AcDbEntity
  8
0
  6
HIDDEN
 62
     7
370
    18
100
AcDbLine
 10
536.4180592229
 20
376.8323447173
 30
0.0
 11
501.0627201635
 21
397.2425475129
 31
0.0
  0
LWPOLYLINE
  5
D9
330
1F
100
AcDbEntity
  8
0
  6
HIDDEN
 62
     7
370
    18
100
AcDbPolyline
 90
       12
 70
   128
 43
0.0
 10
506.3660210224
 20
422.1883669412
 10
506.4376280051
 20
422.7221444368
 10
506.646647781
 20
423.1300027919
 10
506.9761468111
 20
423.3788997481
 10
507.3994310437
 20
423.4486711544
 10
507.8822085074
 20
423.3336645464
 10
508.3853674434
 20
423.0431970754
 10
508.8681449072
 20
422.6008006885
 10
509.2914291397
 20
422.0423157099
 10
509.6209281698
 20
421.4129872711
 10
509.8299479458
 20
420.7637998196
 10
509.9015549284
 20
420.1473466616
  0
LWPOLYLINE
  5
DA
330
1F
100
AcDbEntity
  8
0
  6
HIDDEN
 62
     7
370
    18
100
AcDbPolyline
 90
       12
 70
   128
 43
0.0
 10
509.9015549284
 20
420.1473466616
 10
509.8299479458
 20
419.6135691661
 10
509.6209281698
 20
419.205710811
 10
509.2914291397
 20
418.9568138547
 10
508.8681449072
 20
418.8870424484
 10
508.3853674434
 20
419.0020490565
 10
507.8822085074
 20
419.2925165275
 10
507.3994310437
 20
419.7349129144
 10
506.9761468111
 20
420.293397893
 10
506.646647781
 20
420.9227263317
 10
506.4376280051
 20
421.5719137833
 10
506.3660210224
 20
422.1883669412
  0
LINE
  5
DB
330
1F
100
AcDbEntity
  8
0
  6
HIDDEN
 62
     7
370
    18
100
AcDbLine
 10
673.2681444799
 20
360.7643292393
 30
0.0
 11
670.0861639646
 21
362.6012474909
 31
0.0
  0
LINE
  5
DC
330
1F
100
AcDbEntity
  8
0
  6
HIDDEN
 62
     7
370
    18
100
AcDbLine
 10
665.0865703014
 20
353.9407588671
 30
0.0
 11
668.2685508167
 21
352.1038406155
 31
0.0
  0
LINE
  5
DD
330
1F
100
AcDbEntity
  8
0
  6
HIDDEN
 62
     7
370
    18
100
AcDbLine
 10
673.2681444799
 20
336.2681048827
 30
0.0
 11
670.0861639646
 21
338.1050231343
 31
0.0
  0
LINE
  5
DE
330
1F
100
AcDbEntity
  8
0
  6
HIDDEN
 62
     7
370
    18
100
AcDbLine
 10
665.0865703014
 20
329.4445345105
 30
0.0
 11
668.2685508167
 21
327.6076162589
 31
0.0
  0
LINE
  5
DF
330
1F
100
AcDbEntity
  8
0
  6
HIDDEN
 62
     7
370
    18
100
AcDbLine
 10
528.2385143515
 20
458.9361621265
 30
0.0
 11
525.0565338361
 21
457.0992438749
 31
0.0
  0
LINE
  5
E0
330
1F
100
AcDbEntity
  8
0
  6
HIDDEN
 62
     7
370
    18
100
AcDbLine
 10
527.5563306677
 20
452.768999563
 30
0.0
 11
530.738311183
 21
454.6059178146
 31
0.0
  0
LINE
  5
E1
330
1F
100
AcDbEntity
  8
0
  6
HIDDEN
 62
     7
370
    18
100
AcDbLine
 10
538.4895333716
 20
414.0724252574
 30
0.0
 11
535.3075528562
 21
412.2355070058
 31
0.0
  0
LINE
  5
E2
330
1F
100
AcDbEntity
  8
0
  6
HIDDEN
 62
     7
370
    18
100
AcDbLine
 10
506.8838895596
 20
423.3329789574
 30
0.0
 11
503.7019090443
 21
421.4960607058
 31
0.0
  0
LINE
  5
E3
330
1F
100
AcDbEntity
  8
0
  6
HIDDEN
 62
     7
370
    18
100
AcDbLine
 10
506.2017058759
 20
417.1658163939
 30
0.0
 11
509.3836863912
 21
419.0027346455
 31
0.0
  0
ENDSEC
  0
SECTION
  2
OBJECTS
  0
DICTIONARY
  5
C
330
0
100
AcDbDictionary
281
     1
  3
ACAD_GROUP
350
D
  3
ACAD_LAYOUT
350
1A
  3
ACAD_MLINESTYLE
350
17
  3
ACAD_PLOTSETTINGS
350
19
  3
ACAD_PLOTSTYLENAME
350
E
  3
ACAD_SCALELIST
350
47
  3
DWGPROPS
350
E4
  0
DICTIONARY
  5
D
102
{ACAD_REACTORS
330
C
102
}
330
C
100
AcDbDictionary
281
     1
  0
DICTIONARY
  5
1A
102
{ACAD_REACTORS
330
C
102
}
330
C
100
AcDbDictionary
281
     1
  3
Layout1
350
1E
  3
Layout2
350
26
  3
Model
350
22
  0
DICTIONARY
  5
17
102
{ACAD_REACTORS
330
C
102
}
330
C
100
AcDbDictionary
281
     1
  3
Standard
350
18
  0
DICTIONARY
  5
19
102
{ACAD_REACTORS
330
C
102
}
330
C
100
AcDbDictionary
281
     1
  0
ACDBDICTIONARYWDFLT
  5
E
102
{ACAD_REACTORS
330
C
102
}
330
C
100
AcDbDictionary
281
     1
  3
Normal
350
F
100
AcDbDictionaryWithDefault
340
F
  0
DICTIONARY
  5
47
102
{ACAD_REACTORS
330
C
102
}
330
C
100
AcDbDictionary
281
     1
  3
A0
350
48
  3
A1
350
49
  3
A2
350
4A
  3
A3
350
4B
  3
A4
350
4C
  3
A5
350
4D
  3
A6
350
4E
  3
A7
350
4F
  3
A8
350
50
  3
A9
350
51
  3
B0
350
52
  3
B1
350
53
  3
B2
350
54
  3
B3
350
55
  3
B4
350
56
  3
B5
350
57
  3
B6
350
58
  0
XRECORD
  5
E4
102
{ACAD_REACTORS
330
C
102
}
330
C
100
AcDbXrecord
280
     1
  1
DWGPROPS COOKIE
  2

  3

  4

  6

  7

  8
imaizumi
  9

300
=
301
=
302
=
303
=
304
=
305
=
306
=
307
=
308
=
309
=
 40
0.0
 41
2461263.069863889
 42
2461263.06986434
  1

 90
        0
  0
LAYOUT
  5
1E
102
{ACAD_REACTORS
330
1A
102
}
330
1A
100
AcDbPlotSettings
  1

  2
none_device
  4

  6

 40
0.0
 41
0.0
 42
0.0
 43
0.0
 44
0.0
 45
0.0
 46
0.0
 47
0.0
 48
0.0
 49
0.0
140
0.0
141
0.0
142
1.0
143
1.0
 70
   688
 72
     1
 73
     0
 74
     5
  7

 75
    16
147
1.0
148
0.0
149
0.0
100
AcDbLayout
  1
Layout1
 70
     1
 71
     1
 10
0.0
 20
0.0
 11
420.0
 21
297.0
 12
0.0
 22
0.0
 32
0.0
 14
1.0000000000E+20
 24
1.0000000000E+20
 34
1.0000000000E+20
 15
-1.0000000000E+20
 25
-1.0000000000E+20
 35
-1.0000000000E+20
146
0.0
 13
0.0
 23
0.0
 33
0.0
 16
1.0
 26
0.0
 36
0.0
 17
0.0
 27
1.0
 37
0.0
 76
     0
330
1B
  0
LAYOUT
  5
26
102
{ACAD_REACTORS
330
1A
102
}
330
1A
100
AcDbPlotSettings
  1

  2
none_device
  4

  6

 40
0.0
 41
0.0
 42
0.0
 43
0.0
 44
0.0
 45
0.0
 46
0.0
 47
0.0
 48
0.0
 49
0.0
140
0.0
141
0.0
142
1.0
143
1.0
 70
   688
 72
     1
 73
     0
 74
     5
  7

 75
    16
147
1.0
148
0.0
149
0.0
100
AcDbLayout
  1
Layout2
 70
     1
 71
     2
 10
0.0
 20
0.0
 11
0.0
 21
0.0
 12
0.0
 22
0.0
 32
0.0
 14
0.0
 24
0.0
 34
0.0
 15
0.0
 25
0.0
 35
0.0
146
0.0
 13
0.0
 23
0.0
 33
0.0
 16
1.0
 26
0.0
 36
0.0
 17
0.0
 27
1.0
 37
0.0
 76
     0
330
23
  0
LAYOUT
  5
22
102
{ACAD_REACTORS
330
1A
102
}
330
1A
100
AcDbPlotSettings
  1

  2
none_device
  4
Letter_(8.50_x_11.00_Inches)
  6

 40
6.35
 41
6.35
 42
6.35000508
 43
6.35000508
 44
215.9
 45
279.4
 46
0.0
 47
0.0
 48
0.0
 49
0.0
140
0.0
141
0.0
142
1.0
143
1.0
 70
  1712
 72
     1
 73
     0
 74
     0
  7

 75
     0
147
1.0
148
0.0
149
0.0
100
AcDbLayout
  1
Model
 70
     1
 71
     0
 10
0.0
 20
0.0
 11
841.0
 21
594.0
 12
0.0
 22
0.0
 32
0.0
 14
0.0
 24
0.0
 34
0.0
 15
841.0
 25
594.0
 35
0.0
146
0.0
 13
0.0
 23
0.0
 33
0.0
 16
1.0
 26
0.0
 36
0.0
 17
0.0
 27
1.0
 37
0.0
 76
     0
330
1F
331
29
  0
MLINESTYLE
  5
18
102
{ACAD_REACTORS
330
17
102
}
330
17
100
AcDbMlineStyle
  2
Standard
 70
     0
  3

 62
   256
 51
90.0
 52
90.0
 71
     2
 49
0.5
 62
   256
  6
BYLAYER
 49
-0.5
 62
   256
  6
BYLAYER
  0
ACDBPLACEHOLDER
  5
F
102
{ACAD_REACTORS
330
E
102
}
330
E
  0
SCALE
  5
48
102
{ACAD_REACTORS
330
47
102
}
330
47
100
AcDbScale
 70
     0
300
1:1
140
1.0
141
1.0
290
     1
  0
SCALE
  5
49
102
{ACAD_REACTORS
330
47
102
}
330
47
100
AcDbScale
 70
     0
300
1:2
140
1.0
141
2.0
290
     0
  0
SCALE
  5
4A
102
{ACAD_REACTORS
330
47
102
}
330
47
100
AcDbScale
 70
     0
300
1:4
140
1.0
141
4.0
290
     0
  0
SCALE
  5
4B
102
{ACAD_REACTORS
330
47
102
}
330
47
100
AcDbScale
 70
     0
300
1:5
140
1.0
141
5.0
290
     0
  0
SCALE
  5
4C
102
{ACAD_REACTORS
330
47
102
}
330
47
100
AcDbScale
 70
     0
300
1:8
140
1.0
141
8.0
290
     0
  0
SCALE
  5
4D
102
{ACAD_REACTORS
330
47
102
}
330
47
100
AcDbScale
 70
     0
300
1:10
140
1.0
141
10.0
290
     0
  0
SCALE
  5
4E
102
{ACAD_REACTORS
330
47
102
}
330
47
100
AcDbScale
 70
     0
300
1:16
140
1.0
141
16.0
290
     0
  0
SCALE
  5
4F
102
{ACAD_REACTORS
330
47
102
}
330
47
100
AcDbScale
 70
     0
300
1:20
140
1.0
141
20.0
290
     0
  0
SCALE
  5
50
102
{ACAD_REACTORS
330
47
102
}
330
47
100
AcDbScale
 70
     0
300
1:30
140
1.0
141
30.0
290
     0
  0
SCALE
  5
51
102
{ACAD_REACTORS
330
47
102
}
330
47
100
AcDbScale
 70
     0
300
1:40
140
1.0
141
40.0
290
     0
  0
SCALE
  5
52
102
{ACAD_REACTORS
330
47
102
}
330
47
100
AcDbScale
 70
     0
300
1:50
140
1.0
141
50.0
290
     0
  0
SCALE
  5
53
102
{ACAD_REACTORS
330
47
102
}
330
47
100
AcDbScale
 70
     0
300
1:100
140
1.0
141
100.0
290
     0
  0
SCALE
  5
54
102
{ACAD_REACTORS
330
47
102
}
330
47
100
AcDbScale
 70
     0
300
2:1
140
2.0
141
1.0
290
     0
  0
SCALE
  5
55
102
{ACAD_REACTORS
330
47
102
}
330
47
100
AcDbScale
 70
     0
300
4:1
140
4.0
141
1.0
290
     0
  0
SCALE
  5
56
102
{ACAD_REACTORS
330
47
102
}
330
47
100
AcDbScale
 70
     0
300
8:1
140
8.0
141
1.0
290
     0
  0
SCALE
  5
57
102
{ACAD_REACTORS
330
47
102
}
330
47
100
AcDbScale
 70
     0
300
10:1
140
10.0
141
1.0
290
     0
  0
SCALE
  5
58
102
{ACAD_REACTORS
330
47
102
}
330
47
100
AcDbScale
 70
     0
300
100:1
140
100.0
141
1.0
290
     0
  0
ENDSEC
  0
EOF
