  0
SECTION
  2
HEADER
  9
$ACADVER
  1
AC1015
  9
$ACADMAINTVER
 70
     6
  9
$DWGCODEPAGE
  3
DOS932
  9
$INSBASE
 10
0.0
 20
0.0
 30
0.0
  9
$EXTMIN
 10
0.0
 20
0.0
 30
0.0
  9
$EXTMAX
 10
841.0
 20
594.0
 30
0.0
  9
$LIMMIN
 10
0.0
 20
0.0
  9
$LIMMAX
 10
841.0
 20
594.0
  9
$ORTHOMODE
 70
     0
  9
$REGENMODE
 70
     1
  9
$FILLMODE
 70
     1
  9
$QTEXTMODE
 70
     0
  9
$MIRRTEXT
 70
     1
  9
$LTSCALE
 40
1.0
  9
$ATTMODE
 70
     1
  9
$TEXTSIZE
 40
3.5
  9
$TRACEWID
 40
1.0
  9
$TEXTSTYLE
  7
Standard
  9
$CLAYER
  8
0
  9
$CELTYPE
  6
ByLayer
  9
$CECOLOR
 62
   256
  9
$CELTSCALE
 40
1.0
  9
$DISPSILH
 70
     0
  9
$DIMSCALE
 40
1.0
  9
$DIMASZ
 40
3.302
  9
$DIMEXO
 40
1.0
  9
$DIMDLI
 40
3.75
  9
$DIMRND
 40
0.0
  9
$DIMDLE
 40
0.0
  9
$DIMEXE
 40
1.0
  9
$DIMTP
 40
0.0
  9
$DIMTM
 40
0.0
  9
$DIMTXT
 40
3.5
  9
$DIMCEN
 40
2.5
  9
$DIMTSZ
 40
0.0
  9
$DIMTOL
 70
     0
  9
$DIMLIM
 70
     0
  9
$DIMTIH
 70
     1
  9
$DIMTOH
 70
     1
  9
$DIMSE1
 70
     0
  9
$DIMSE2
 70
     0
  9
$DIMTAD
 70
     1
  9
$DIMZIN
 70
     1
  9
$DIMBLK
  1

  9
$DIMASO
 70
     1
  9
$DIMSHO
 70
     1
  9
$DIMPOST
  1

  9
$DIMAPOST
  1

  9
$DIMALT
 70
     0
  9
$DIMALTD
 70
     3
  9
$DIMALTF
 40
0.0393700787
  9
$DIMLFAC
 40
0.1
  9
$DIMTOFL
 70
     1
  9
$DIMTVP
 40
0.0
  9
$DIMTIX
 70
     0
  9
$DIMSOXD
 70
     0
  9
$DIMSAH
 70
     0
  9
$DIMBLK1
  1

  9
$DIMBLK2
  1

  9
$DIMSTYLE
  2
ISO-25
  9
$DIMCLRD
 70
     0
  9
$DIMCLRE
 70
     0
  9
$DIMCLRT
 70
     0
  9
$DIMTFAC
 40
1.0
  9
$DIMGAP
 40
1.524
  9
$DIMJUST
 70
     0
  9
$DIMSD1
 70
     0
  9
$DIMSD2
 70
     0
  9
$DIMTOLJ
 70
     0
  9
$DIMTZIN
 70
     1
  9
$DIMALTZ
 70
     0
  9
$DIMALTTZ
 70
     0
  9
$DIMUPT
 70
     0
  9
$DIMDEC
 70
     2
  9
$DIMTDEC
 70
     2
  9
$DIMALTU
 70
     2
  9
$DIMALTTD
 70
     3
  9
$DIMTXSTY
  7
Standard
  9
$DIMAUNIT
 70
     0
  9
$DIMADEC
 70
     2
  9
$DIMALTRND
 40
0.0
  9
$DIMAZIN
 70
     0
  9
$DIMDSEP
 70
    44
  9
$DIMATFIT
 70
     3
  9
$DIMFRAC
 70
     0
  9
$DIMLDRBLK
  1

  9
$DIMLUNIT
 70
     2
  9
$DIMLWD
 70
    -2
  9
$DIMLWE
 70
    -2
  9
$DIMTMOVE
 70
     0
  9
$LUNITS
 70
     2
  9
$LUPREC
 70
     2
  9
$SKETCHINC
 40
1.0
  9
$FILLETRAD
 40
0.0
  9
$AUNITS
 70
     0
  9
$AUPREC
 70
     2
  9
$MENU
  1
.
  9
$ELEVATION
 40
0.0
  9
$PELEVATION
 40
0.0
  9
$THICKNESS
 40
0.0
  9
$LIMCHECK
 70
     0
  9
$CHAMFERA
 40
0.0
  9
$CHAMFERB
 40
0.0
  9
$CHAMFERC
 40
0.0
  9
$CHAMFERD
 40
0.0
  9
$SKPOLY
 70
     0
  9
$TDCREATE
 40
2461263.441896355
  9
$TDUCREATE
 40
2461263.066896355
  9
$TDUPDATE
 40
2461263.441896679
  9
$TDUUPDATE
 40
2461263.066896679
  9
$TDINDWG
 40
0.0000000116
  9
$TDUSRTIMER
 40
0.0000000116
  9
$USRTIMER
 70
     1
  9
$ANGBASE
 50
0.0
  9
$ANGDIR
 70
     0
  9
$PDMODE
 70
     0
  9
$PDSIZE
 40
-1.0
  9
$PLINEWID
 40
0.0
  9
$SPLFRAME
 70
     0
  9
$SPLINETYPE
 70
     6
  9
$SPLINESEGS
 70
     8
  9
$HANDSEED
  5
9E
  9
$SURFTAB1
 70
     6
  9
$SURFTAB2
 70
     6
  9
$SURFTYPE
 70
     6
  9
$SURFU
 70
     6
  9
$SURFV
 70
     6
  9
$UCSBASE
  2

  9
$UCSNAME
  2

  9
$UCSORG
 10
0.0
 20
0.0
 30
0.0
  9
$UCSXDIR
 10
1.0
 20
0.0
 30
0.0
  9
$UCSYDIR
 10
0.0
 20
1.0
 30
0.0
  9
$UCSORTHOREF
  2

  9
$UCSORTHOVIEW
 70
     0
  9
$UCSORGTOP
 10
0.0
 20
0.0
 30
0.0
  9
$UCSORGBOTTOM
 10
0.0
 20
0.0
 30
0.0
  9
$UCSORGLEFT
 10
0.0
 20
0.0
 30
0.0
  9
$UCSORGRIGHT
 10
0.0
 20
0.0
 30
0.0
  9
$UCSORGFRONT
 10
0.0
 20
0.0
 30
0.0
  9
$UCSORGBACK
 10
0.0
 20
0.0
 30
0.0
  9
$PUCSBASE
  2

  9
$PUCSNAME
  2

  9
$PUCSORG
 10
0.0
 20
0.0
 30
0.0
  9
$PUCSXDIR
 10
1.0
 20
0.0
 30
0.0
  9
$PUCSYDIR
 10
0.0
 20
1.0
 30
0.0
  9
$PUCSORTHOREF
  2

  9
$PUCSORTHOVIEW
 70
     0
  9
$PUCSORGTOP
 10
0.0
 20
0.0
 30
0.0
  9
$PUCSORGBOTTOM
 10
0.0
 20
0.0
 30
0.0
  9
$PUCSORGLEFT
 10
0.0
 20
0.0
 30
0.0
  9
$PUCSORGRIGHT
 10
0.0
 20
0.0
 30
0.0
  9
$PUCSORGFRONT
 10
0.0
 20
0.0
 30
0.0
  9
$PUCSORGBACK
 10
0.0
 20
0.0
 30
0.0
  9
$USERI1
 70
     0
  9
$USERI2
 70
     0
  9
$USERI3
 70
     0
  9
$USERI4
 70
     0
  9
$USERI5
 70
     0
  9
$USERR1
 40
0.0
  9
$USERR2
 40
0.0
  9
$USERR3
 40
0.0
  9
$USERR4
 40
0.0
  9
$USERR5
 40
0.0
  9
$WORLDVIEW
 70
     1
  9
$SHADEDGE
 70
     3
  9
$SHADEDIF
 70
    70
  9
$TILEMODE
 70
     1
  9
$MAXACTVP
 70
    64
  9
$PINSBASE
 10
0.0
 20
0.0
 30
0.0
  9
$PLIMCHECK
 70
     0
  9
$PEXTMIN
 10
1.0000000000E+20
 20
1.0000000000E+20
 30
1.0000000000E+20
  9
$PEXTMAX
 10
-1.0000000000E+20
 20
-1.0000000000E+20
 30
-1.0000000000E+20
  9
$PLIMMIN
 10
0.0
 20
0.0
  9
$PLIMMAX
 10
420.0
 20
297.0
  9
$UNITMODE
 70
     0
  9
$VISRETAIN
 70
     1
  9
$PLINEGEN
 70
     0
  9
$PSLTSCALE
 70
     1
  9
$TREEDEPTH
 70
  3020
  9
$CMLSTYLE
  2
Standard
  9
$CMLJUST
 70
     0
  9
$CMLSCALE
 40
20.0
  9
$PROXYGRAPHICS
 70
     1
  9
$MEASUREMENT
 70
     1
  9
$CELWEIGHT
370
    -1
  9
$ENDCAPS
280
     0
  9
$JOINSTYLE
280
     0
  9
$LWDISPLAY
290
     1
  9
$INSUNITS
 70
     4
  9
$HYPERLINKBASE
  1

  9
$STYLESHEET
  1

  9
$XEDIT
290
     1
  9
$CEPSNTYPE
380
     0
  9
$PSTYLEMODE
290
     1
  9
$FINGERPRINTGUID
  2
{51bb7193-13bb-42d3-adaa-d5cc56a6437a}
  9
$VERSIONGUID
  2
{FAEB1C32-E019-11D5-929B-00C0DF256EC4}
  9
$EXTNAMES
290
     1
  9
$PSVPSCALE
 40
0.0
  9
$OLESTARTUP
290
     0
  0
ENDSEC
  0
SECTION
  2
CLASSES
  0
CLASS
  1
ACDBDICTIONARYWDFLT
  2
AcDbDictionaryWithDefault
  3
ObjectDBX Classes
 90
        0
280
     0
281
     0
  0
CLASS
  1
VISUALSTYLE
  2
AcDbVisualStyle
  3
ObjectDBX Classes
 90
     4095
280
     0
281
     0
  0
CLASS
  1
MATERIAL
  2
AcDbMaterial
  3
ObjectDBX Classes
 90
     1153
280
     0
281
     0
  0
CLASS
  1
SCALE
  2
AcDbScale
  3
ObjectDBX Classes
 90
     1153
280
     0
281
     0
  0
CLASS
  1
TABLESTYLE
  2
AcDbTableStyle
  3
ObjectDBX Classes
 90
     4095
280
     0
281
     0
  0
CLASS
  1
MLEADERSTYLE
  2
AcDbMLeaderStyle
  3
ACDB_MLEADERSTYLE_CLASS
 90
     4095
280
     0
281
     0
  0
CLASS
  1
SUN
  2
AcDbSun
  3
SCENEOE
 90
     1153
280
     0
281
     0
  0
CLASS
  1
ACDBPLACEHOLDER
  2
AcDbPlaceHolder
  3
ObjectDBX Classes
 90
        0
280
     0
281
     0
  0
CLASS
  1
LAYOUT
  2
AcDbLayout
  3
ObjectDBX Classes
 90
        0
280
     0
281
     0
  0
ENDSEC
  0
SECTION
  2
TABLES
  0
TABLE
  2
VPORT
  5
8
330
0
100
AcDbSymbolTable
 70
     1
  0
VPORT
  5
29
330
8
100
AcDbSymbolTableRecord
100
AcDbViewportTableRecord
  2
*Active
 70
     0
 10
0.0
 20
0.0
 11
1.0
 21
1.0
 12
420.5
 22
297.0
 13
0.0
 23
0.0
 14
10.0
 24
10.0
 15
10.0
 25
10.0
 16
0.0
 26
0.0
 36
1.0
 17
0.0
 27
0.0
 37
0.0
 40
594.0
 41
1.4158249158
 42
50.0
 43
0.0
 44
0.0
 50
0.0
 51
0.0
 71
     0
 72
  2000
 73
     1
 74
     3
 75
     0
 76
     0
 77
     0
 78
     0
281
     0
 65
     1
110
0.0
120
0.0
130
0.0
111
1.0
121
0.0
131
0.0
112
0.0
122
1.0
132
0.0
 79
     0
146
0.0
  0
ENDTAB
  0
TABLE
  2
LTYPE
  5
5
330
0
100
AcDbSymbolTable
 70
     6
  0
LTYPE
  5
14
330
5
100
AcDbSymbolTableRecord
100
AcDbLinetypeTableRecord
  2
ByBlock
 70
     0
  3

 72
    65
 73
     0
 40
0.0
  0
LTYPE
  5
15
330
5
100
AcDbSymbolTableRecord
100
AcDbLinetypeTableRecord
  2
ByLayer
 70
     0
  3

 72
    65
 73
     0
 40
0.0
  0
LTYPE
  5
16
330
5
100
AcDbSymbolTableRecord
100
AcDbLinetypeTableRecord
  2
Continuous
 70
     0
  3
Solid line
 72
    65
 73
     0
 40
0.0
  0
LTYPE
  5
5E
330
5
100
AcDbSymbolTableRecord
100
AcDbLinetypeTableRecord
  2
HIDDEN
 70
     0
  3
Hidden __ __ __ __ __ __ __ __ __ __ __ __ __ __
 72
    65
 73
     2
 40
1.905
 49
1.27
 74
     0
 49
-0.635
 74
     0
  0
LTYPE
  5
5F
330
5
100
AcDbSymbolTableRecord
100
AcDbLinetypeTableRecord
  2
PHANTOM
 70
     0
  3
Phantom ______  __  __  ______  __  __  ______
 72
    65
 73
     6
 40
12.7
 49
6.35
 74
     0
 49
-1.27
 74
     0
 49
1.27
 74
     0
 49
-1.27
 74
     0
 49
1.27
 74
     0
 49
-1.27
 74
     0
  0
LTYPE
  5
60
330
5
100
AcDbSymbolTableRecord
100
AcDbLinetypeTableRecord
  2
CENTER
 70
     0
  3
Center ____ _ ____ _ ____ _ ____ _ ____ _ ____
 72
    65
 73
     4
 40
10.16
 49
6.35
 74
     0
 49
-1.27
 74
     0
 49
1.27
 74
     0
 49
-1.27
 74
     0
  0
LTYPE
  5
61
330
5
100
AcDbSymbolTableRecord
100
AcDbLinetypeTableRecord
  2
CENTERX2
 70
     0
  3
Center (2x) ________  __  ________  __  _____
 72
    65
 73
     4
 40
20.32
 49
12.7
 74
     0
 49
-2.54
 74
     0
 49
2.54
 74
     0
 49
-2.54
 74
     0
  0
LTYPE
  5
62
330
5
100
AcDbSymbolTableRecord
100
AcDbLinetypeTableRecord
  2
DOT2
 70
     0
  3
Dot (.5x) ........................................
 72
    65
 73
     2
 40
0.635
 49
0.0
 74
     0
 49
-0.635
 74
     0
  0
ENDTAB
  0
TABLE
  2
LAYER
  5
2
330
0
100
AcDbSymbolTable
 70
     1
  0
LAYER
  5
10
330
2
100
AcDbSymbolTableRecord
100
AcDbLayerTableRecord
  2
0
 70
     0
 62
     7
  6
Continuous
370
    -3
390
F
  0
ENDTAB
  0
TABLE
  2
STYLE
  5
3
330
0
100
AcDbSymbolTable
 70
     1
  0
STYLE
  5
11
330
3
100
AcDbSymbolTableRecord
100
AcDbTextStyleTableRecord
  2
Standard
 70
     0
 40
0.0
 41
1.0
 50
0.0
 71
     0
 42
3.5
  3
txt
  4
bigfont
  0
ENDTAB
  0
TABLE
  2
VIEW
  5
6
330
0
100
AcDbSymbolTable
 70
     0
  0
ENDTAB
  0
TABLE
  2
UCS
  5
7
330
0
100
AcDbSymbolTable
 70
     0
  0
ENDTAB
  0
TABLE
  2
APPID
  5
9
330
0
100
AcDbSymbolTable
 70
     1
  0
APPID
  5
12
330
9
100
AcDbSymbolTableRecord
100
AcDbRegAppTableRecord
  2
ACAD
 70
     0
  0
ENDTAB
  0
TABLE
  2
DIMSTYLE
  5
A
330
0
100
AcDbSymbolTable
 70
     1
100
AcDbDimStyleTable
  0
DIMSTYLE
105
27
330
A
100
AcDbSymbolTableRecord
100
AcDbDimStyleTableRecord
  2
ISO-25
 70
     0
 41
2.5
 42
0.625
 43
3.75
 44
1.25
 73
     0
 74
     0
 77
     1
 78
     8
140
2.5
141
2.5
143
0.0393700787
147
0.625
171
     3
172
     1
178
     0
271
     2
272
     2
274
     3
278
    44
283
     0
284
     8
340
11
  0
ENDTAB
  0
TABLE
  2
BLOCK_RECORD
  5
1
330
0
100
AcDbSymbolTable
 70
     1
  0
BLOCK_RECORD
  5
1F
330
1
100
AcDbSymbolTableRecord
100
AcDbBlockTableRecord
  2
*Model_Space
340
22
  0
BLOCK_RECORD
  5
1B
330
1
100
AcDbSymbolTableRecord
100
AcDbBlockTableRecord
  2
*Paper_Space
340
1E
  0
BLOCK_RECORD
  5
23
330
1
100
AcDbSymbolTableRecord
100
AcDbBlockTableRecord
  2
*Paper_Space0
340
26
  0
ENDTAB
  0
ENDSEC
  0
SECTION
  2
BLOCKS
  0
BLOCK
  5
20
330
1F
100
AcDbEntity
  8
0
100
AcDbBlockBegin
  2
*Model_Space
 70
     0
 10
0.0
 20
0.0
 30
0.0
  3
*Model_Space
  1

  0
ENDBLK
  5
21
330
1F
100
AcDbEntity
  8
0
100
AcDbBlockEnd
  0
BLOCK
  5
1C
330
1B
100
AcDbEntity
 67
     1
  8
0
100
AcDbBlockBegin
  2
*Paper_Space
 70
     0
 10
0.0
 20
0.0
 30
0.0
  3
*Paper_Space
  1

  0
ENDBLK
  5
1D
330
1B
100
AcDbEntity
 67
     1
  8
0
100
AcDbBlockEnd
  0
BLOCK
  5
24
330
23
100
AcDbEntity
  8
0
100
AcDbBlockBegin
  2
*Paper_Space0
 70
     0
 10
0.0
 20
0.0
 30
0.0
  3
*Paper_Space0
  1

  0
ENDBLK
  5
25
330
23
100
AcDbEntity
  8
0
100
AcDbBlockEnd
  0
ENDSEC
  0
SECTION
  2
ENTITIES
  0
LINE
  5
63
330
1F
100
AcDbEntity
  8
0
  6
Continuous
 62
     7
370
    25
100
AcDbLine
 10
355.3565440327
 20
244.8320618427
 30
0.0
 11
389.3565440327
 21
244.8320618427
 31
0.0
  0
LINE
  5
64
330
1F
100
AcDbEntity
  8
0
  6
Continuous
 62
     7
370
    25
100
AcDbLine
 10
389.3565440327
 20
256.8320618427
 30
0.0
 11
355.3565440327
 21
256.8320618427
 31
0.0
  0
ARC
  5
65
330
1F
100
AcDbEntity
  8
0
  6
Continuous
 62
     7
370
    25
100
AcDbCircle
 10
362.3565440327
 20
250.8320618427
 30
0.0
 40
3.5
100
AcDbArc
 50
270.0
 51
90.0
  0
ARC
  5
66
330
1F
100
AcDbEntity
  8
0
  6
Continuous
 62
     7
370
    25
100
AcDbCircle
 10
362.3565440327
 20
250.8320618427
 30
0.0
 40
3.5
100
AcDbArc
 50
90.0
 51
270.0
  0
ARC
  5
67
330
1F
100
AcDbEntity
  8
0
  6
Continuous
 62
     7
370
    25
100
AcDbCircle
 10
382.3565440327
 20
250.8320618427
 30
0.0
 40
3.5
100
AcDbArc
 50
270.0
 51
90.0
  0
ARC
  5
68
330
1F
100
AcDbEntity
  8
0
  6
Continuous
 62
     7
370
    25
100
AcDbCircle
 10
382.3565440327
 20
250.8320618427
 30
0.0
 40
3.5
100
AcDbArc
 50
90.0
 51
270.0
  0
LINE
  5
69
330
1F
100
AcDbEntity
  8
0
  6
Continuous
 62
     7
370
    25
100
AcDbLine
 10
355.3565440327
 20
256.8320618427
 30
0.0
 11
355.3565440327
 21
244.8320618427
 31
0.0
  0
LINE
  5
6A
330
1F
100
AcDbEntity
  8
0
  6
Continuous
 62
     7
370
    25
100
AcDbLine
 10
389.3565440327
 20
244.8320618427
 30
0.0
 11
389.3565440327
 21
256.8320618427
 31
0.0
  0
LINE
  5
6B
330
1F
100
AcDbEntity
  8
0
  6
HIDDEN
 62
     7
370
    18
100
AcDbLine
 10
374.8565440327
 20
256.8320618427
 30
0.0
 11
374.8565440327
 21
244.8320618427
 31
0.0
  0
LINE
  5
6C
330
1F
100
AcDbEntity
  8
0
  6
HIDDEN
 62
     7
370
    18
100
AcDbLine
 10
369.8565440327
 20
256.8320618427
 30
0.0
 11
369.8565440327
 21
244.8320618427
 31
0.0
  0
LINE
  5
6D
330
1F
100
AcDbEntity
  8
0
  6
Continuous
 62
     7
370
    25
100
AcDbLine
 10
355.3565440327
 20
328.88
 30
0.0
 11
355.3565440327
 21
340.88
 31
0.0
  0
ARC
  5
6E
330
1F
100
AcDbEntity
  8
0
  6
Continuous
 62
     7
370
    25
100
AcDbCircle
 10
372.3565440327
 20
333.88
 30
0.0
 40
2.5
100
AcDbArc
 50
180.0
 51
0.0
  0
ARC
  5
6F
330
1F
100
AcDbEntity
  8
0
  6
Continuous
 62
     7
370
    25
100
AcDbCircle
 10
372.3565440327
 20
333.88
 30
0.0
 40
2.5
100
AcDbArc
 50
0.0
 51
180.0
  0
LINE
  5
70
330
1F
100
AcDbEntity
  8
0
  6
Continuous
 62
     7
370
    25
100
AcDbLine
 10
389.3565440327
 20
328.88
 30
0.0
 11
355.3565440327
 21
328.88
 31
0.0
  0
LINE
  5
71
330
1F
100
AcDbEntity
  8
0
  6
Continuous
 62
     7
370
    25
100
AcDbLine
 10
389.3565440327
 20
340.88
 30
0.0
 11
355.3565440327
 21
340.88
 31
0.0
  0
LINE
  5
72
330
1F
100
AcDbEntity
  8
0
  6
Continuous
 62
     7
370
    25
100
AcDbLine
 10
389.3565440327
 20
328.88
 30
0.0
 11
389.3565440327
 21
340.88
 31
0.0
  0
LINE
  5
73
330
1F
100
AcDbEntity
  8
0
  6
HIDDEN
 62
     7
370
    18
100
AcDbLine
 10
385.8565440327
 20
328.88
 30
0.0
 11
385.8565440327
 21
340.88
 31
0.0
  0
LINE
  5
74
330
1F
100
AcDbEntity
  8
0
  6
HIDDEN
 62
     7
370
    18
100
AcDbLine
 10
378.8565440327
 20
340.88
 30
0.0
 11
378.8565440327
 21
328.88
 31
0.0
  0
LINE
  5
75
330
1F
100
AcDbEntity
  8
0
  6
HIDDEN
 62
     7
370
    18
100
AcDbLine
 10
365.8565440327
 20
328.88
 30
0.0
 11
365.8565440327
 21
340.88
 31
0.0
  0
LINE
  5
76
330
1F
100
AcDbEntity
  8
0
  6
HIDDEN
 62
     7
370
    18
100
AcDbLine
 10
358.8565440327
 20
340.88
 30
0.0
 11
358.8565440327
 21
328.88
 31
0.0
  0
LINE
  5
77
330
1F
100
AcDbEntity
  8
0
  6
Continuous
 62
     7
370
    25
100
AcDbLine
 10
463.38
 20
244.8320618427
 30
0.0
 11
475.38
 21
244.8320618427
 31
0.0
  0
LINE
  5
78
330
1F
100
AcDbEntity
  8
0
  6
Continuous
 62
     7
370
    25
100
AcDbLine
 10
463.38
 20
244.8320618427
 30
0.0
 11
463.38
 21
256.8320618427
 31
0.0
  0
LINE
  5
79
330
1F
100
AcDbEntity
  8
0
  6
Continuous
 62
     7
370
    25
100
AcDbLine
 10
463.38
 20
256.8320618427
 30
0.0
 11
475.38
 21
256.8320618427
 31
0.0
  0
LINE
  5
7A
330
1F
100
AcDbEntity
  8
0
  6
Continuous
 62
     7
370
    25
100
AcDbLine
 10
475.38
 20
244.8320618427
 30
0.0
 11
475.38
 21
256.8320618427
 31
0.0
  0
LINE
  5
7B
330
1F
100
AcDbEntity
  8
0
  6
HIDDEN
 62
     7
370
    18
100
AcDbLine
 10
463.38
 20
254.3320618427
 30
0.0
 11
475.38
 21
254.3320618427
 31
0.0
  0
LINE
  5
7C
330
1F
100
AcDbEntity
  8
0
  6
HIDDEN
 62
     7
370
    18
100
AcDbLine
 10
463.38
 20
247.3320618427
 30
0.0
 11
475.38
 21
247.3320618427
 31
0.0
  0
LINE
  5
7D
330
1F
100
AcDbEntity
  8
0
  6
HIDDEN
 62
     7
370
    18
100
AcDbLine
 10
465.88
 20
256.8320618427
 30
0.0
 11
465.88
 21
244.8320618427
 31
0.0
  0
LINE
  5
7E
330
1F
100
AcDbEntity
  8
0
  6
HIDDEN
 62
     7
370
    18
100
AcDbLine
 10
470.88
 20
244.8320618427
 30
0.0
 11
470.88
 21
256.8320618427
 31
0.0
  0
LINE
  5
7F
330
1F
100
AcDbEntity
  8
0
  6
Continuous
 62
     7
370
    25
100
AcDbLine
 10
477.1581745931
 20
330.3905515854
 30
0.0
 11
477.1581745931
 21
320.5920618427
 31
0.0
  0
LINE
  5
80
330
1F
100
AcDbEntity
  8
0
  6
Continuous
 62
     7
370
    25
100
AcDbLine
 10
477.1581745931
 20
330.3905515854
 30
0.0
 11
485.6434559673
 21
335.2890002563
 31
0.0
  0
LINE
  5
81
330
1F
100
AcDbEntity
  8
0
  6
Continuous
 62
     7
370
    25
100
AcDbLine
 10
485.6434559673
 20
335.2890002563
 30
0.0
 11
485.6434559673
 21
325.4905105137
 31
0.0
  0
LINE
  5
82
330
1F
100
AcDbEntity
  8
0
  6
Continuous
 62
     7
370
    25
100
AcDbLine
 10
477.1581745931
 20
320.5920618427
 30
0.0
 11
485.6434559673
 21
325.4905105137
 31
0.0
  0
LINE
  5
83
330
1F
100
AcDbEntity
  8
0
  6
Continuous
 62
     7
370
    25
100
AcDbLine
 10
453.1165440327
 20
344.2694894863
 30
0.0
 11
477.1581745931
 21
330.3905515854
 31
0.0
  0
LINE
  5
84
330
1F
100
AcDbEntity
  8
0
  6
Continuous
 62
     7
370
    25
100
AcDbLine
 10
461.6018254069
 20
349.1679381573
 30
0.0
 11
453.1165440327
 21
344.2694894863
 31
0.0
  0
LINE
  5
85
330
1F
100
AcDbEntity
  8
0
  6
Continuous
 62
     7
370
    25
100
AcDbLine
 10
485.6434559673
 20
335.2890002563
 30
0.0
 11
461.6018254069
 21
349.1679381573
 31
0.0
  0
LWPOLYLINE
  5
86
330
1F
100
AcDbEntity
  8
0
  6
Continuous
 62
     7
370
    25
100
AcDbPolyline
 90
       37
 70
   128
 43
0.0
 10
459.834058454
 20
342.4325712347
 10
460.0591755542
 20
342.3134872767
 10
460.3014146609
 20
342.2061829972
 10
460.5589321881
 20
342.1114750466
 10
460.829768272
 20
342.0300842095
 10
461.1118616865
 20
341.9626299195
 10
461.4030655303
 20
341.9096255444
 10
461.7011635663
 20
341.8714744794
 10
462.0038870885
 20
341.8484670772
 10
462.3089321881
 20
341.8407784381
 10
462.6139772878
 20
341.8484670772
 10
462.91670081
 20
341.8714744794
 10
463.214798846
 20
341.9096255444
 10
463.5060026898
 20
341.9626299195
 10
463.7880961042
 20
342.0300842095
 10
464.0589321881
 20
342.1114750466
 10
464.3164497154
 20
342.2061829972
 10
464.558688822
 20
342.3134872767
 10
464.7838059223
 20
342.4325712347
 10
464.9900877391
 20
342.5625285705
 10
465.1759643431
 20
342.7023702302
 10
465.3400211014
 20
342.8510319343
 10
465.4810094428
 20
343.0073822775
 10
465.5978563609
 20
343.1702313393
 10
465.6896725801
 20
343.3383397401
 10
465.7557593237
 20
343.5104280733
 10
465.7956136315
 20
343.6851866428
 10
465.8089321881
 20
343.8612854304
 10
465.7956136315
 20
344.0373842181
 10
465.7557593237
 20
344.2121427876
 10
465.6896725801
 20
344.3842311208
 10
465.5978563609
 20
344.5523395215
 10
465.4810094428
 20
344.7151885833
 10
465.3400211014
 20
344.8715389266
 10
465.1759643431
 20
345.0202006307
 10
464.9900877391
 20
345.1600422904
 10
464.7838059223
 20
345.2899996261
  0
LWPOLYLINE
  5
87
330
1F
100
AcDbEntity
  8
0
  6
Continuous
 62
     7
370
    25
100
AcDbPolyline
 90
       37
 70
   128
 43
0.0
 10
464.7838059223
 20
345.2899996261
 10
464.558688822
 20
345.4090835842
 10
464.3164497154
 20
345.5163878637
 10
464.0589321881
 20
345.6110958143
 10
463.7880961042
 20
345.6924866513
 10
463.5060026898
 20
345.7599409413
 10
463.214798846
 20
345.8129453165
 10
462.91670081
 20
345.8510963815
 10
462.6139772878
 20
345.8741037836
 10
462.3089321881
 20
345.8817924227
 10
462.0038870885
 20
345.8741037836
 10
461.7011635663
 20
345.8510963815
 10
461.4030655303
 20
345.8129453165
 10
461.1118616865
 20
345.7599409413
 10
460.829768272
 20
345.6924866513
 10
460.5589321881
 20
345.6110958143
 10
460.3014146609
 20
345.5163878637
 10
460.0591755542
 20
345.4090835842
 10
459.834058454
 20
345.2899996261
 10
459.6277766372
 20
345.1600422904
 10
459.4419000331
 20
345.0202006307
 10
459.2778432749
 20
344.8715389266
 10
459.1368549335
 20
344.7151885833
 10
459.0200080154
 20
344.5523395215
 10
458.9281917961
 20
344.3842311208
 10
458.8621050526
 20
344.2121427876
 10
458.8222507448
 20
344.0373842181
 10
458.8089321881
 20
343.8612854304
 10
458.8222507448
 20
343.6851866428
 10
458.8621050526
 20
343.5104280733
 10
458.9281917961
 20
343.3383397401
 10
459.0200080154
 20
343.1702313393
 10
459.1368549335
 20
343.0073822775
 10
459.2778432749
 20
342.8510319343
 10
459.4419000331
 20
342.7023702302
 10
459.6277766372
 20
342.5625285705
 10
459.834058454
 20
342.4325712347
  0
LWPOLYLINE
  5
88
330
1F
100
AcDbEntity
  8
0
  6
Continuous
 62
     7
370
    25
100
AcDbPolyline
 90
       37
 70
   128
 43
0.0
 10
473.9761940777
 20
334.2684901165
 10
474.201311178
 20
334.1494061585
 10
474.4435502846
 20
334.042101879
 10
474.7010678119
 20
333.9473939283
 10
474.9719038958
 20
333.8660030913
 10
475.2539973102
 20
333.7985488013
 10
475.545201154
 20
333.7455444261
 10
475.84329919
 20
333.7073933612
 10
476.1460227122
 20
333.684385959
 10
476.4510678119
 20
333.6766973199
 10
476.7561129115
 20
333.684385959
 10
477.0588364337
 20
333.7073933612
 10
477.3569344697
 20
333.7455444261
 10
477.6481383135
 20
333.7985488013
 10
477.930231728
 20
333.8660030913
 10
478.2010678119
 20
333.9473939283
 10
478.4585853391
 20
334.042101879
 10
478.7008244458
 20
334.1494061585
 10
478.925941546
 20
334.2684901165
 10
479.1322233628
 20
334.3984474523
 10
479.3180999669
 20
334.5382891119
 10
479.4821567251
 20
334.6869508161
 10
479.6231450665
 20
334.8433011593
 10
479.7399919846
 20
335.0061502211
 10
479.8318082039
 20
335.1742586218
 10
479.8978949474
 20
335.346346955
 10
479.9377492552
 20
335.5211055246
 10
479.9510678119
 20
335.6972043122
 10
479.9377492552
 20
335.8733030998
 10
479.8978949474
 20
336.0480616694
 10
479.8318082039
 20
336.2201500026
 10
479.7399919846
 20
336.3882584033
 10
479.6231450665
 20
336.5511074651
 10
479.4821567251
 20
336.7074578084
 10
479.3180999669
 20
336.8561195125
 10
479.1322233628
 20
336.9959611721
 10
478.925941546
 20
337.1259185079
  0
LWPOLYLINE
  5
89
330
1F
100
AcDbEntity
  8
0
  6
Continuous
 62
     7
370
    25
100
AcDbPolyline
 90
       37
 70
   128
 43
0.0
 10
478.925941546
 20
337.1259185079
 10
478.7008244458
 20
337.2450024659
 10
478.4585853391
 20
337.3523067454
 10
478.2010678119
 20
337.4470146961
 10
477.930231728
 20
337.5284055331
 10
477.6481383135
 20
337.5958598231
 10
477.3569344697
 20
337.6488641983
 10
477.0588364337
 20
337.6870152632
 10
476.7561129115
 20
337.7100226654
 10
476.4510678119
 20
337.7177113045
 10
476.1460227122
 20
337.7100226654
 10
475.84329919
 20
337.6870152632
 10
475.545201154
 20
337.6488641983
 10
475.2539973102
 20
337.5958598231
 10
474.9719038958
 20
337.5284055331
 10
474.7010678119
 20
337.4470146961
 10
474.4435502846
 20
337.3523067454
 10
474.201311178
 20
337.2450024659
 10
473.9761940777
 20
337.1259185079
 10
473.7699122609
 20
336.9959611721
 10
473.5840356569
 20
336.8561195125
 10
473.4199788986
 20
336.7074578084
 10
473.2789905572
 20
336.5511074651
 10
473.1621436391
 20
336.3882584033
 10
473.0703274199
 20
336.2201500026
 10
473.0042406763
 20
336.0480616694
 10
472.9643863685
 20
335.8733030998
 10
472.9510678119
 20
335.6972043122
 10
472.9643863685
 20
335.5211055246
 10
473.0042406763
 20
335.346346955
 10
473.0703274199
 20
335.1742586218
 10
473.1621436391
 20
335.0061502211
 10
473.2789905572
 20
334.8433011593
 10
473.4199788986
 20
334.6869508161
 10
473.5840356569
 20
334.5382891119
 10
473.7699122609
 20
334.3984474523
 10
473.9761940777
 20
334.2684901165
  0
LINE
  5
8A
330
1F
100
AcDbEntity
  8
0
  6
Continuous
 62
     7
370
    25
100
AcDbLine
 10
453.1165440327
 20
344.2694894863
 30
0.0
 11
453.1165440327
 21
334.4709997437
 31
0.0
  0
LINE
  5
8B
330
1F
100
AcDbEntity
  8
0
  6
Continuous
 62
     7
370
    25
100
AcDbLine
 10
453.1165440327
 20
334.4709997437
 30
0.0
 11
477.1581745931
 21
320.5920618427
 31
0.0
  0
LWPOLYLINE
  5
8C
330
1F
100
AcDbEntity
  8
0
  6
Continuous
 62
     7
370
    25
100
AcDbPolyline
 90
       31
 70
   128
 43
0.0
 10
463.3695923599
 20
334.2678266162
 10
463.3792763722
 20
334.0488567642
 10
463.4082223092
 20
333.8211050691
 10
463.456113033
 20
333.5870668261
 10
463.5224238428
 20
333.3493062072
 10
463.6064282236
 20
333.1104281674
 10
463.7072058058
 20
332.8730499046
 10
463.8236524491
 20
332.6397721847
 10
463.9544923397
 20
332.4131508472
 10
464.0982919684
 20
332.1956688029
 10
464.2534758364
 20
331.9897088305
 10
464.4183437167
 20
331.7975274707
 10
464.5910892823
 20
331.6212303026
 10
464.7698198967
 20
331.462748875
 10
464.9525773499
 20
331.3238195434
 10
465.1373593129
 20
331.2059644467
 10
465.3221412759
 20
331.1104748301
 10
465.504898729
 20
331.0383968976
 10
465.6836293434
 20
330.9905203504
 10
465.8563749091
 20
330.9673697337
 10
466.0212427894
 20
330.9691986907
 10
466.1764266573
 20
330.9959871829
 10
466.320226286
 20
331.0474417099
 10
466.4510661766
 20
331.1229985253
 10
466.5675128199
 20
331.2218298126
 10
466.6682904021
 20
331.3428527557
 10
466.7522947829
 20
331.4847414018
 10
466.8186055928
 20
331.6459411894
 10
466.8664963166
 20
331.8246859796
 10
466.8954422535
 20
332.0190174073
 10
466.9051262658
 20
332.2268063366
  0
LWPOLYLINE
  5
8D
330
1F
100
AcDbEntity
  8
0
  6
Continuous
 62
     7
370
    25
100
AcDbPolyline
 90
       31
 70
   128
 43
0.0
 10
466.9051262658
 20
332.2268063366
 10
466.8954422535
 20
332.4457761886
 10
466.8664963166
 20
332.6735278837
 10
466.8186055928
 20
332.9075661267
 10
466.7522947829
 20
333.1453267456
 10
466.6682904021
 20
333.3842047854
 10
466.5675128199
 20
333.6215830482
 10
466.4510661766
 20
333.8548607681
 10
466.320226286
 20
334.0814821057
 10
466.1764266573
 20
334.29896415
 10
466.0212427894
 20
334.5049241223
 10
465.8563749091
 20
334.6971054821
 10
465.6836293434
 20
334.8734026502
 10
465.504898729
 20
335.0318840779
 10
465.3221412759
 20
335.1708134095
 10
465.1373593129
 20
335.2886685061
 10
464.9525773499
 20
335.3841581228
 10
464.7698198967
 20
335.4562360552
 10
464.5910892823
 20
335.5041126025
 10
464.4183437167
 20
335.5272632191
 10
464.2534758364
 20
335.5254342621
 10
464.0982919684
 20
335.4986457699
 10
463.9544923397
 20
335.4471912429
 10
463.8236524491
 20
335.3716344276
 10
463.7072058058
 20
335.2728031402
 10
463.6064282236
 20
335.1517801971
 10
463.5224238428
 20
335.009891551
 10
463.456113033
 20
334.8486917635
 10
463.4082223092
 20
334.6699469732
 10
463.3792763722
 20
334.4756155455
 10
463.3695923599
 20
334.2678266162
  0
LWPOLYLINE
  5
8E
330
1F
100
AcDbEntity
  8
0
  6
HIDDEN
 62
     7
370
    18
100
AcDbPolyline
 90
       37
 70
   128
 43
0.0
 10
473.9761940777
 20
324.4700003739
 10
474.201311178
 20
324.3509164158
 10
474.4435502846
 20
324.2436121363
 10
474.7010678119
 20
324.1489041857
 10
474.9719038958
 20
324.0675133487
 10
475.2539973102
 20
324.0000590587
 10
475.545201154
 20
323.9470546835
 10
475.84329919
 20
323.9089036185
 10
476.1460227122
 20
323.8858962164
 10
476.4510678119
 20
323.8782075773
 10
476.7561129115
 20
323.8858962164
 10
477.0588364337
 20
323.9089036185
 10
477.3569344697
 20
323.9470546835
 10
477.6481383135
 20
324.0000590587
 10
477.930231728
 20
324.0675133487
 10
478.2010678119
 20
324.1489041857
 10
478.4585853391
 20
324.2436121363
 10
478.7008244458
 20
324.3509164158
 10
478.925941546
 20
324.4700003739
 10
479.1322233628
 20
324.5999577096
 10
479.3180999669
 20
324.7397993693
 10
479.4821567251
 20
324.8884610734
 10
479.6231450665
 20
325.0448114167
 10
479.7399919846
 20
325.2076604785
 10
479.8318082039
 20
325.3757688792
 10
479.8978949474
 20
325.5478572124
 10
479.9377492552
 20
325.7226157819
 10
479.9510678119
 20
325.8987145696
 10
479.9377492552
 20
326.0748133572
 10
479.8978949474
 20
326.2495719267
 10
479.8318082039
 20
326.4216602599
 10
479.7399919846
 20
326.5897686607
 10
479.6231450665
 20
326.7526177225
 10
479.4821567251
 20
326.9089680657
 10
479.3180999669
 20
327.0576297698
 10
479.1322233628
 20
327.1974714295
 10
478.925941546
 20
327.3274287653
  0
LWPOLYLINE
  5
8F
330
1F
100
AcDbEntity
  8
0
  6
HIDDEN
 62
     7
370
    18
100
AcDbPolyline
 90
       37
 70
   128
 43
0.0
 10
478.925941546
 20
327.3274287653
 10
478.7008244458
 20
327.4465127233
 10
478.4585853391
 20
327.5538170028
 10
478.2010678119
 20
327.6485249534
 10
477.930231728
 20
327.7299157905
 10
477.6481383135
 20
327.7973700805
 10
477.3569344697
 20
327.8503744556
 10
477.0588364337
 20
327.8885255206
 10
476.7561129115
 20
327.9115329228
 10
476.4510678119
 20
327.9192215619
 10
476.1460227122
 20
327.9115329228
 10
475.84329919
 20
327.8885255206
 10
475.545201154
 20
327.8503744556
 10
475.2539973102
 20
327.7973700805
 10
474.9719038958
 20
327.7299157905
 10
474.7010678119
 20
327.6485249534
 10
474.4435502846
 20
327.5538170028
 10
474.201311178
 20
327.4465127233
 10
473.9761940777
 20
327.3274287653
 10
473.7699122609
 20
327.1974714295
 10
473.5840356569
 20
327.0576297698
 10
473.4199788986
 20
326.9089680657
 10
473.2789905572
 20
326.7526177225
 10
473.1621436391
 20
326.5897686607
 10
473.0703274199
 20
326.4216602599
 10
473.0042406763
 20
326.2495719267
 10
472.9643863685
 20
326.0748133572
 10
472.9510678119
 20
325.8987145696
 10
472.9643863685
 20
325.7226157819
 10
473.0042406763
 20
325.5478572124
 10
473.0703274199
 20
325.3757688792
 10
473.1621436391
 20
325.2076604785
 10
473.2789905572
 20
325.0448114167
 10
473.4199788986
 20
324.8884610734
 10
473.5840356569
 20
324.7397993693
 10
473.7699122609
 20
324.5999577096
 10
473.9761940777
 20
324.4700003739
  0
LINE
  5
90
330
1F
100
AcDbEntity
  8
0
  6
HIDDEN
 62
     7
370
    18
100
AcDbLine
 10
485.6434559673
 20
325.4905105137
 30
0.0
 11
461.6018254069
 21
339.3694484146
 31
0.0
  0
LWPOLYLINE
  5
91
330
1F
100
AcDbEntity
  8
0
  6
HIDDEN
 62
     7
370
    18
100
AcDbPolyline
 90
       31
 70
   128
 43
0.0
 10
471.8548737342
 20
339.1662752871
 10
471.8645577465
 20
339.3740642165
 10
471.8935036834
 20
339.5683956442
 10
471.9413944072
 20
339.7471404344
 10
472.0077052171
 20
339.9083402219
 10
472.0917095979
 20
340.0502288681
 10
472.1924871801
 20
340.1712518112
 10
472.3089338234
 20
340.2700830985
 10
472.439773714
 20
340.3456399138
 10
472.5835733427
 20
340.3970944409
 10
472.7387572106
 20
340.423882933
 10
472.9036250909
 20
340.42571189
 10
473.0763706566
 20
340.4025612734
 10
473.255101271
 20
340.3546847261
 10
473.4378587241
 20
340.2826067937
 10
473.6226406871
 20
340.1871171771
 10
473.8074226501
 20
340.0692620804
 10
473.9901801033
 20
339.9303327488
 10
474.1689107177
 20
339.7718513211
 10
474.3416562833
 20
339.5955541531
 10
474.5065241636
 20
339.4033727933
 10
474.6617080316
 20
339.1974128209
 10
474.8055076603
 20
338.9799307766
 10
474.9363475509
 20
338.7533094391
 10
475.0527941942
 20
338.5200317191
 10
475.1535717764
 20
338.2826534563
 10
475.2375761572
 20
338.0437754166
 10
475.303886967
 20
337.8060147977
 10
475.3517776908
 20
337.5719765547
 10
475.3807236278
 20
337.3442248596
 10
475.3904076401
 20
337.1252550076
  0
LWPOLYLINE
  5
92
330
1F
100
AcDbEntity
  8
0
  6
HIDDEN
 62
     7
370
    18
100
AcDbPolyline
 90
       31
 70
   128
 43
0.0
 10
475.3904076401
 20
337.1252550076
 10
475.3807236278
 20
336.9174660782
 10
475.3517776908
 20
336.7231346506
 10
475.303886967
 20
336.5443898603
 10
475.2375761572
 20
336.3831900728
 10
475.1535717764
 20
336.2413014266
 10
475.0527941942
 20
336.1202784835
 10
474.9363475509
 20
336.0214471962
 10
474.8055076603
 20
335.9458903809
 10
474.6617080316
 20
335.8944358538
 10
474.5065241636
 20
335.8676473617
 10
474.3416562833
 20
335.8658184047
 10
474.1689107177
 20
335.8889690213
 10
473.9901801033
 20
335.9368455686
 10
473.8074226501
 20
336.008923501
 10
473.6226406871
 20
336.1044131176
 10
473.4378587241
 20
336.2222682143
 10
473.255101271
 20
336.3611975459
 10
473.0763706566
 20
336.5196789736
 10
472.9036250909
 20
336.6959761416
 10
472.7387572106
 20
336.8881575014
 10
472.5835733427
 20
337.0941174738
 10
472.439773714
 20
337.3115995181
 10
472.3089338234
 20
337.5382208556
 10
472.1924871801
 20
337.7714985756
 10
472.0917095979
 20
338.0088768384
 10
472.0077052171
 20
338.2477548781
 10
471.9413944072
 20
338.4855154971
 10
471.8935036834
 20
338.7195537401
 10
471.8645577465
 20
338.9473054352
 10
471.8548737342
 20
339.1662752871
  0
LWPOLYLINE
  5
93
330
1F
100
AcDbEntity
  8
0
  6
HIDDEN
 62
     7
370
    18
100
AcDbPolyline
 90
       37
 70
   128
 43
0.0
 10
459.834058454
 20
332.6340814921
 10
460.0591755542
 20
332.5149975341
 10
460.3014146609
 20
332.4076932546
 10
460.5589321881
 20
332.3129853039
 10
460.829768272
 20
332.2315944669
 10
461.1118616865
 20
332.1641401769
 10
461.4030655303
 20
332.1111358017
 10
461.7011635663
 20
332.0729847368
 10
462.0038870885
 20
332.0499773346
 10
462.3089321881
 20
332.0422886955
 10
462.6139772878
 20
332.0499773346
 10
462.91670081
 20
332.0729847368
 10
463.214798846
 20
332.1111358017
 10
463.5060026898
 20
332.1641401769
 10
463.7880961042
 20
332.2315944669
 10
464.0589321881
 20
332.3129853039
 10
464.3164497154
 20
332.4076932546
 10
464.558688822
 20
332.5149975341
 10
464.7838059223
 20
332.6340814921
 10
464.9900877391
 20
332.7640388279
 10
465.1759643431
 20
332.9038804875
 10
465.3400211014
 20
333.0525421916
 10
465.4810094428
 20
333.2088925349
 10
465.5978563609
 20
333.3717415967
 10
465.6896725801
 20
333.5398499974
 10
465.7557593237
 20
333.7119383306
 10
465.7956136315
 20
333.8866969002
 10
465.8089321881
 20
334.0627956878
 10
465.7956136315
 20
334.2388944754
 10
465.7557593237
 20
334.413653045
 10
465.6896725801
 20
334.5857413782
 10
465.5978563609
 20
334.7538497789
 10
465.4810094428
 20
334.9166988407
 10
465.3400211014
 20
335.0730491839
 10
465.1759643431
 20
335.2217108881
 10
464.9900877391
 20
335.3615525477
 10
464.7838059223
 20
335.4915098835
  0
LWPOLYLINE
  5
94
330
1F
100
AcDbEntity
  8
0
  6
HIDDEN
 62
     7
370
    18
100
AcDbPolyline
 90
       37
 70
   128
 43
0.0
 10
464.7838059223
 20
335.4915098835
 10
464.558688822
 20
335.6105938415
 10
464.3164497154
 20
335.717898121
 10
464.0589321881
 20
335.8126060717
 10
463.7880961042
 20
335.8939969087
 10
463.5060026898
 20
335.9614511987
 10
463.214798846
 20
336.0144555739
 10
462.91670081
 20
336.0526066388
 10
462.6139772878
 20
336.075614041
 10
462.3089321881
 20
336.0833026801
 10
462.0038870885
 20
336.075614041
 10
461.7011635663
 20
336.0526066388
 10
461.4030655303
 20
336.0144555739
 10
461.1118616865
 20
335.9614511987
 10
460.829768272
 20
335.8939969087
 10
460.5589321881
 20
335.8126060717
 10
460.3014146609
 20
335.717898121
 10
460.0591755542
 20
335.6105938415
 10
459.834058454
 20
335.4915098835
 10
459.6277766372
 20
335.3615525477
 10
459.4419000331
 20
335.2217108881
 10
459.2778432749
 20
335.0730491839
 10
459.1368549335
 20
334.9166988407
 10
459.0200080154
 20
334.7538497789
 10
458.9281917961
 20
334.5857413782
 10
458.8621050526
 20
334.413653045
 10
458.8222507448
 20
334.2388944754
 10
458.8089321881
 20
334.0627956878
 10
458.8222507448
 20
333.8866969002
 10
458.8621050526
 20
333.7119383306
 10
458.9281917961
 20
333.5398499974
 10
459.0200080154
 20
333.3717415967
 10
459.1368549335
 20
333.2088925349
 10
459.2778432749
 20
333.0525421916
 10
459.4419000331
 20
332.9038804875
 10
459.6277766372
 20
332.7640388279
 10
459.834058454
 20
332.6340814921
  0
LINE
  5
95
330
1F
100
AcDbEntity
  8
0
  6
HIDDEN
 62
     7
370
    18
100
AcDbLine
 10
461.6018254069
 20
349.1679381573
 30
0.0
 11
461.6018254069
 21
339.3694484146
 31
0.0
  0
LINE
  5
96
330
1F
100
AcDbEntity
  8
0
  6
HIDDEN
 62
     7
370
    18
100
AcDbLine
 10
461.6018254069
 20
339.3694484146
 30
0.0
 11
453.1165440327
 21
334.4709997437
 31
0.0
  0
LINE
  5
97
330
1F
100
AcDbEntity
  8
0
  6
HIDDEN
 62
     7
370
    18
100
AcDbLine
 10
479.9510678119
 20
325.8987145696
 30
0.0
 11
479.9510678119
 21
335.6972043122
 31
0.0
  0
LINE
  5
98
330
1F
100
AcDbEntity
  8
0
  6
HIDDEN
 62
     7
370
    18
100
AcDbLine
 10
472.9510678119
 20
335.6972043122
 30
0.0
 11
472.9510678119
 21
325.8987145696
 31
0.0
  0
LINE
  5
99
330
1F
100
AcDbEntity
  8
0
  6
HIDDEN
 62
     7
370
    18
100
AcDbLine
 10
472.3727422713
 20
340.3108873033
 30
0.0
 11
463.8874608971
 21
335.4124386324
 31
0.0
  0
LINE
  5
9A
330
1F
100
AcDbEntity
  8
0
  6
HIDDEN
 62
     7
370
    18
100
AcDbLine
 10
466.3872577287
 20
331.0821943205
 30
0.0
 11
474.8725391029
 21
335.9806429914
 31
0.0
  0
LINE
  5
9B
330
1F
100
AcDbEntity
  8
0
  6
HIDDEN
 62
     7
370
    18
100
AcDbLine
 10
465.8089321881
 20
334.0627956878
 30
0.0
 11
465.8089321881
 21
343.8612854304
 31
0.0
  0
LINE
  5
9C
330
1F
100
AcDbEntity
  8
0
  6
HIDDEN
 62
     7
370
    18
100
AcDbLine
 10
458.8089321881
 20
343.8612854304
 30
0.0
 11
458.8089321881
 21
334.0627956878
 31
0.0
  0
ENDSEC
  0
SECTION
  2
OBJECTS
  0
DICTIONARY
  5
C
330
0
100
AcDbDictionary
281
     1
  3
ACAD_GROUP
350
D
  3
ACAD_LAYOUT
350
1A
  3
ACAD_MLINESTYLE
350
17
  3
ACAD_PLOTSETTINGS
350
19
  3
ACAD_PLOTSTYLENAME
350
E
  3
ACAD_SCALELIST
350
47
  3
DWGPROPS
350
9D
  0
DICTIONARY
  5
D
102
{ACAD_REACTORS
330
C
102
}
330
C
100
AcDbDictionary
281
     1
  0
DICTIONARY
  5
1A
102
{ACAD_REACTORS
330
C
102
}
330
C
100
AcDbDictionary
281
     1
  3
Layout1
350
1E
  3
Layout2
350
26
  3
Model
350
22
  0
DICTIONARY
  5
17
102
{ACAD_REACTORS
330
C
102
}
330
C
100
AcDbDictionary
281
     1
  3
Standard
350
18
  0
DICTIONARY
  5
19
102
{ACAD_REACTORS
330
C
102
}
330
C
100
AcDbDictionary
281
     1
  0
ACDBDICTIONARYWDFLT
  5
E
102
{ACAD_REACTORS
330
C
102
}
330
C
100
AcDbDictionary
281
     1
  3
Normal
350
F
100
AcDbDictionaryWithDefault
340
F
  0
DICTIONARY
  5
47
102
{ACAD_REACTORS
330
C
102
}
330
C
100
AcDbDictionary
281
     1
  3
A0
350
48
  3
A1
350
49
  3
A2
350
4A
  3
A3
350
4B
  3
A4
350
4C
  3
A5
350
4D
  3
A6
350
4E
  3
A7
350
4F
  3
A8
350
50
  3
A9
350
51
  3
B0
350
52
  3
B1
350
53
  3
B2
350
54
  3
B3
350
55
  3
B4
350
56
  3
B5
350
57
  3
B6
350
58
  0
XRECORD
  5
9D
102
{ACAD_REACTORS
330
C
102
}
330
C
100
AcDbXrecord
280
     1
  1
DWGPROPS COOKIE
  2

  3

  4

  6

  7

  8
imaizumi
  9

300
=
301
=
302
=
303
=
304
=
305
=
306
=
307
=
308
=
309
=
 40
0.0
 41
2461263.066896355
 42
2461263.066896679
  1

 90
        0
  0
LAYOUT
  5
1E
102
{ACAD_REACTORS
330
1A
102
}
330
1A
100
AcDbPlotSettings
  1

  2
none_device
  4

  6

 40
0.0
 41
0.0
 42
0.0
 43
0.0
 44
0.0
 45
0.0
 46
0.0
 47
0.0
 48
0.0
 49
0.0
140
0.0
141
0.0
142
1.0
143
1.0
 70
   688
 72
     1
 73
     0
 74
     5
  7

 75
    16
147
1.0
148
0.0
149
0.0
100
AcDbLayout
  1
Layout1
 70
     1
 71
     1
 10
0.0
 20
0.0
 11
420.0
 21
297.0
 12
0.0
 22
0.0
 32
0.0
 14
1.0000000000E+20
 24
1.0000000000E+20
 34
1.0000000000E+20
 15
-1.0000000000E+20
 25
-1.0000000000E+20
 35
-1.0000000000E+20
146
0.0
 13
0.0
 23
0.0
 33
0.0
 16
1.0
 26
0.0
 36
0.0
 17
0.0
 27
1.0
 37
0.0
 76
     0
330
1B
  0
LAYOUT
  5
26
102
{ACAD_REACTORS
330
1A
102
}
330
1A
100
AcDbPlotSettings
  1

  2
none_device
  4

  6

 40
0.0
 41
0.0
 42
0.0
 43
0.0
 44
0.0
 45
0.0
 46
0.0
 47
0.0
 48
0.0
 49
0.0
140
0.0
141
0.0
142
1.0
143
1.0
 70
   688
 72
     1
 73
     0
 74
     5
  7

 75
    16
147
1.0
148
0.0
149
0.0
100
AcDbLayout
  1
Layout2
 70
     1
 71
     2
 10
0.0
 20
0.0
 11
0.0
 21
0.0
 12
0.0
 22
0.0
 32
0.0
 14
0.0
 24
0.0
 34
0.0
 15
0.0
 25
0.0
 35
0.0
146
0.0
 13
0.0
 23
0.0
 33
0.0
 16
1.0
 26
0.0
 36
0.0
 17
0.0
 27
1.0
 37
0.0
 76
     0
330
23
  0
LAYOUT
  5
22
102
{ACAD_REACTORS
330
1A
102
}
330
1A
100
AcDbPlotSettings
  1

  2
none_device
  4
Letter_(8.50_x_11.00_Inches)
  6

 40
6.35
 41
6.35
 42
6.35000508
 43
6.35000508
 44
215.9
 45
279.4
 46
0.0
 47
0.0
 48
0.0
 49
0.0
140
0.0
141
0.0
142
1.0
143
1.0
 70
  1712
 72
     1
 73
     0
 74
     0
  7

 75
     0
147
1.0
148
0.0
149
0.0
100
AcDbLayout
  1
Model
 70
     1
 71
     0
 10
0.0
 20
0.0
 11
841.0
 21
594.0
 12
0.0
 22
0.0
 32
0.0
 14
0.0
 24
0.0
 34
0.0
 15
841.0
 25
594.0
 35
0.0
146
0.0
 13
0.0
 23
0.0
 33
0.0
 16
1.0
 26
0.0
 36
0.0
 17
0.0
 27
1.0
 37
0.0
 76
     0
330
1F
331
29
  0
MLINESTYLE
  5
18
102
{ACAD_REACTORS
330
17
102
}
330
17
100
AcDbMlineStyle
  2
Standard
 70
     0
  3

 62
   256
 51
90.0
 52
90.0
 71
     2
 49
0.5
 62
   256
  6
BYLAYER
 49
-0.5
 62
   256
  6
BYLAYER
  0
ACDBPLACEHOLDER
  5
F
102
{ACAD_REACTORS
330
E
102
}
330
E
  0
SCALE
  5
48
102
{ACAD_REACTORS
330
47
102
}
330
47
100
AcDbScale
 70
     0
300
1:1
140
1.0
141
1.0
290
     1
  0
SCALE
  5
49
102
{ACAD_REACTORS
330
47
102
}
330
47
100
AcDbScale
 70
     0
300
1:2
140
1.0
141
2.0
290
     0
  0
SCALE
  5
4A
102
{ACAD_REACTORS
330
47
102
}
330
47
100
AcDbScale
 70
     0
300
1:4
140
1.0
141
4.0
290
     0
  0
SCALE
  5
4B
102
{ACAD_REACTORS
330
47
102
}
330
47
100
AcDbScale
 70
     0
300
1:5
140
1.0
141
5.0
290
     0
  0
SCALE
  5
4C
102
{ACAD_REACTORS
330
47
102
}
330
47
100
AcDbScale
 70
     0
300
1:8
140
1.0
141
8.0
290
     0
  0
SCALE
  5
4D
102
{ACAD_REACTORS
330
47
102
}
330
47
100
AcDbScale
 70
     0
300
1:10
140
1.0
141
10.0
290
     0
  0
SCALE
  5
4E
102
{ACAD_REACTORS
330
47
102
}
330
47
100
AcDbScale
 70
     0
300
1:16
140
1.0
141
16.0
290
     0
  0
SCALE
  5
4F
102
{ACAD_REACTORS
330
47
102
}
330
47
100
AcDbScale
 70
     0
300
1:20
140
1.0
141
20.0
290
     0
  0
SCALE
  5
50
102
{ACAD_REACTORS
330
47
102
}
330
47
100
AcDbScale
 70
     0
300
1:30
140
1.0
141
30.0
290
     0
  0
SCALE
  5
51
102
{ACAD_REACTORS
330
47
102
}
330
47
100
AcDbScale
 70
     0
300
1:40
140
1.0
141
40.0
290
     0
  0
SCALE
  5
52
102
{ACAD_REACTORS
330
47
102
}
330
47
100
AcDbScale
 70
     0
300
1:50
140
1.0
141
50.0
290
     0
  0
SCALE
  5
53
102
{ACAD_REACTORS
330
47
102
}
330
47
100
AcDbScale
 70
     0
300
1:100
140
1.0
141
100.0
290
     0
  0
SCALE
  5
54
102
{ACAD_REACTORS
330
47
102
}
330
47
100
AcDbScale
 70
     0
300
2:1
140
2.0
141
1.0
290
     0
  0
SCALE
  5
55
102
{ACAD_REACTORS
330
47
102
}
330
47
100
AcDbScale
 70
     0
300
4:1
140
4.0
141
1.0
290
     0
  0
SCALE
  5
56
102
{ACAD_REACTORS
330
47
102
}
330
47
100
AcDbScale
 70
     0
300
8:1
140
8.0
141
1.0
290
     0
  0
SCALE
  5
57
102
{ACAD_REACTORS
330
47
102
}
330
47
100
AcDbScale
 70
     0
300
10:1
140
10.0
141
1.0
290
     0
  0
SCALE
  5
58
102
{ACAD_REACTORS
330
47
102
}
330
47
100
AcDbScale
 70
     0
300
100:1
140
100.0
141
1.0
290
     0
  0
ENDSEC
  0
EOF
