  0
SECTION
  2
HEADER
  9
$ACADVER
  1
AC1015
  9
$ACADMAINTVER
 70
6
  9
$DWGCODEPAGE
  3
ANSI_932
  9
$INSBASE
 10
0.0
 20
0.0
 30
0.0
  9
$EXTMIN
 10
1e+20
 20
1e+20
 30
1e+20
  9
$EXTMAX
 10
-1e+20
 20
-1e+20
 30
-1e+20
  9
$LIMMIN
 10
0.0
 20
0.0
  9
$LIMMAX
 10
420.0
 20
297.0
  9
$ORTHOMODE
 70
0
  9
$REGENMODE
 70
1
  9
$FILLMODE
 70
1
  9
$QTEXTMODE
 70
0
  9
$MIRRTEXT
 70
1
  9
$LTSCALE
 40
8.4
  9
$ATTMODE
 70
1
  9
$TEXTSIZE
 40
2.5
  9
$TRACEWID
 40
1.0
  9
$TEXTSTYLE
  7
Standard
  9
$CLAYER
  8
0
  9
$CELTYPE
  6
ByLayer
  9
$CECOLOR
 62
256
  9
$CELTSCALE
 40
1.0
  9
$DISPSILH
 70
0
  9
$DIMSCALE
 40
1.0
  9
$DIMASZ
 40
2.5
  9
$DIMEXO
 40
0.625
  9
$DIMDLI
 40
3.75
  9
$DIMRND
 40
0.0
  9
$DIMDLE
 40
0.0
  9
$DIMEXE
 40
1.25
  9
$DIMTP
 40
0.0
  9
$DIMTM
 40
0.0
  9
$DIMTXT
 40
2.5
  9
$DIMCEN
 40
2.5
  9
$DIMTSZ
 40
0.0
  9
$DIMTOL
 70
0
  9
$DIMLIM
 70
0
  9
$DIMTIH
 70
0
  9
$DIMTOH
 70
0
  9
$DIMSE1
 70
0
  9
$DIMSE2
 70
0
  9
$DIMTAD
 70
1
  9
$DIMZIN
 70
8
  9
$DIMBLK
  1

  9
$DIMASO
 70
1
  9
$DIMSHO
 70
1
  9
$DIMPOST
  1

  9
$DIMAPOST
  1

  9
$DIMALT
 70
0
  9
$DIMALTD
 70
3
  9
$DIMALTF
 40
0.03937007874
  9
$DIMLFAC
 40
1.0
  9
$DIMTOFL
 70
1
  9
$DIMTVP
 40
0.0
  9
$DIMTIX
 70
0
  9
$DIMSOXD
 70
0
  9
$DIMSAH
 70
0
  9
$DIMBLK1
  1

  9
$DIMBLK2
  1

  9
$DIMSTYLE
  2
ISO-25
  9
$DIMCLRD
 70
0
  9
$DIMCLRE
 70
0
  9
$DIMCLRT
 70
0
  9
$DIMTFAC
 40
1.0
  9
$DIMGAP
 40
0.625
  9
$DIMJUST
 70
0
  9
$DIMSD1
 70
0
  9
$DIMSD2
 70
0
  9
$DIMTOLJ
 70
0
  9
$DIMTZIN
 70
8
  9
$DIMALTZ
 70
0
  9
$DIMALTTZ
 70
0
  9
$DIMUPT
 70
0
  9
$DIMDEC
 70
2
  9
$DIMTDEC
 70
2
  9
$DIMALTU
 70
2
  9
$DIMALTTD
 70
3
  9
$DIMTXSTY
  7
Standard
  9
$DIMAUNIT
 70
0
  9
$DIMADEC
 70
0
  9
$DIMALTRND
 40
0.0
  9
$DIMAZIN
 70
0
  9
$DIMDSEP
 70
44
  9
$DIMATFIT
 70
3
  9
$DIMFRAC
 70
0
  9
$DIMLDRBLK
  1

  9
$DIMLUNIT
 70
2
  9
$DIMLWD
 70
-2
  9
$DIMLWE
 70
-2
  9
$DIMTMOVE
 70
0
  9
$LUNITS
 70
2
  9
$LUPREC
 70
4
  9
$SKETCHINC
 40
1.0
  9
$FILLETRAD
 40
10.0
  9
$AUNITS
 70
0
  9
$AUPREC
 70
2
  9
$MENU
  1
.
  9
$ELEVATION
 40
0.0
  9
$PELEVATION
 40
0.0
  9
$THICKNESS
 40
0.0
  9
$LIMCHECK
 70
0
  9
$CHAMFERA
 40
0.0
  9
$CHAMFERB
 40
0.0
  9
$CHAMFERC
 40
0.0
  9
$CHAMFERD
 40
0.0
  9
$SKPOLY
 70
0
  9
$TDCREATE
 40
2461264.2621875
  9
$TDUCREATE
 40
2458532.153996898
  9
$TDUPDATE
 40
2461264.2621875
  9
$TDUUPDATE
 40
2458532.1544311
  9
$TDINDWG
 40
0.0
  9
$TDUSRTIMER
 40
0.0
  9
$USRTIMER
 70
1
  9
$ANGBASE
 50
0.0
  9
$ANGDIR
 70
0
  9
$PDMODE
 70
0
  9
$PDSIZE
 40
0.0
  9
$PLINEWID
 40
0.0
  9
$SPLFRAME
 70
0
  9
$SPLINETYPE
 70
6
  9
$SPLINESEGS
 70
8
  9
$HANDSEED
  5
26E
  9
$SURFTAB1
 70
6
  9
$SURFTAB2
 70
6
  9
$SURFTYPE
 70
6
  9
$SURFU
 70
6
  9
$SURFV
 70
6
  9
$UCSBASE
  2

  9
$UCSNAME
  2

  9
$UCSORG
 10
0.0
 20
0.0
 30
0.0
  9
$UCSXDIR
 10
1.0
 20
0.0
 30
0.0
  9
$UCSYDIR
 10
0.0
 20
1.0
 30
0.0
  9
$UCSORTHOREF
  2

  9
$UCSORTHOVIEW
 70
0
  9
$UCSORGTOP
 10
0.0
 20
0.0
 30
0.0
  9
$UCSORGBOTTOM
 10
0.0
 20
0.0
 30
0.0
  9
$UCSORGLEFT
 10
0.0
 20
0.0
 30
0.0
  9
$UCSORGRIGHT
 10
0.0
 20
0.0
 30
0.0
  9
$UCSORGFRONT
 10
0.0
 20
0.0
 30
0.0
  9
$UCSORGBACK
 10
0.0
 20
0.0
 30
0.0
  9
$PUCSBASE
  2

  9
$PUCSNAME
  2

  9
$PUCSORG
 10
0.0
 20
0.0
 30
0.0
  9
$PUCSXDIR
 10
1.0
 20
0.0
 30
0.0
  9
$PUCSYDIR
 10
0.0
 20
1.0
 30
0.0
  9
$PUCSORTHOREF
  2

  9
$PUCSORTHOVIEW
 70
0
  9
$PUCSORGTOP
 10
0.0
 20
0.0
 30
0.0
  9
$PUCSORGBOTTOM
 10
0.0
 20
0.0
 30
0.0
  9
$PUCSORGLEFT
 10
0.0
 20
0.0
 30
0.0
  9
$PUCSORGRIGHT
 10
0.0
 20
0.0
 30
0.0
  9
$PUCSORGFRONT
 10
0.0
 20
0.0
 30
0.0
  9
$PUCSORGBACK
 10
0.0
 20
0.0
 30
0.0
  9
$USERI1
 70
0
  9
$USERI2
 70
0
  9
$USERI3
 70
0
  9
$USERI4
 70
0
  9
$USERI5
 70
0
  9
$USERR1
 40
0.0
  9
$USERR2
 40
0.0
  9
$USERR3
 40
0.0
  9
$USERR4
 40
0.0
  9
$USERR5
 40
0.0
  9
$WORLDVIEW
 70
1
  9
$SHADEDGE
 70
3
  9
$SHADEDIF
 70
70
  9
$TILEMODE
 70
1
  9
$MAXACTVP
 70
64
  9
$PINSBASE
 10
0.0
 20
0.0
 30
0.0
  9
$PLIMCHECK
 70
0
  9
$PEXTMIN
 10
1e+20
 20
1e+20
 30
1e+20
  9
$PEXTMAX
 10
-1e+20
 20
-1e+20
 30
-1e+20
  9
$PLIMMIN
 10
0.0
 20
0.0
  9
$PLIMMAX
 10
420.0
 20
297.0
  9
$UNITMODE
 70
0
  9
$VISRETAIN
 70
1
  9
$PLINEGEN
 70
0
  9
$PSLTSCALE
 70
1
  9
$TREEDEPTH
 70
3020
  9
$CMLSTYLE
  2
Standard
  9
$CMLJUST
 70
0
  9
$CMLSCALE
 40
20.0
  9
$PROXYGRAPHICS
 70
1
  9
$MEASUREMENT
 70
1
  9
$CELWEIGHT
370
-1
  9
$ENDCAPS
280
0
  9
$JOINSTYLE
280
0
  9
$LWDISPLAY
290
0
  9
$INSUNITS
 70
4
  9
$HYPERLINKBASE
  1

  9
$STYLESHEET
  1

  9
$XEDIT
290
1
  9
$CEPSNTYPE
380
0
  9
$PSTYLEMODE
290
1
  9
$FINGERPRINTGUID
  2
{CFE3CBFC-70A5-4945-8F60-F4F0D84321E6}
  9
$VERSIONGUID
  2
{A24F3505-5186-42A7-BF9D-1F6312616AAD}
  9
$EXTNAMES
290
1
  9
$PSVPSCALE
 40
0.0
  9
$OLESTARTUP
290
0
  0
ENDSEC
  0
SECTION
  2
CLASSES
  0
CLASS
  1
ACDBDICTIONARYWDFLT
  2
AcDbDictionaryWithDefault
  3
ObjectDBX Classes
 90
0
280
0
281
0
  0
CLASS
  1
SUN
  2
AcDbSun
  3
SCENEOE
 90
1153
280
0
281
0
  0
CLASS
  1
VISUALSTYLE
  2
AcDbVisualStyle
  3
ObjectDBX Classes
 90
4095
280
0
281
0
  0
CLASS
  1
MATERIAL
  2
AcDbMaterial
  3
ObjectDBX Classes
 90
1153
280
0
281
0
  0
CLASS
  1
SCALE
  2
AcDbScale
  3
ObjectDBX Classes
 90
1153
280
0
281
0
  0
CLASS
  1
TABLESTYLE
  2
AcDbTableStyle
  3
ObjectDBX Classes
 90
4095
280
0
281
0
  0
CLASS
  1
MLEADERSTYLE
  2
AcDbMLeaderStyle
  3
ACDB_MLEADERSTYLE_CLASS
 90
4095
280
0
281
0
  0
CLASS
  1
DICTIONARYVAR
  2
AcDbDictionaryVar
  3
ObjectDBX Classes
 90
0
280
0
281
0
  0
CLASS
  1
CELLSTYLEMAP
  2
AcDbCellStyleMap
  3
ObjectDBX Classes
 90
1152
280
0
281
0
  0
CLASS
  1
MENTALRAYRENDERSETTINGS
  2
AcDbMentalRayRenderSettings
  3
SCENEOE
 90
1024
280
0
281
0
  0
CLASS
  1
ACDBDETAILVIEWSTYLE
  2
AcDbDetailViewStyle
  3
ObjectDBX Classes
 90
1025
280
0
281
0
  0
CLASS
  1
ACDBSECTIONVIEWSTYLE
  2
AcDbSectionViewStyle
  3
ObjectDBX Classes
 90
1025
280
0
281
0
  0
CLASS
  1
RASTERVARIABLES
  2
AcDbRasterVariables
  3
ISM
 90
0
280
0
281
0
  0
CLASS
  1
ACDBPLACEHOLDER
  2
AcDbPlaceHolder
  3
ObjectDBX Classes
 90
0
280
0
281
0
  0
CLASS
  1
LAYOUT
  2
AcDbLayout
  3
ObjectDBX Classes
 90
0
280
0
281
0
  0
ENDSEC
  0
SECTION
  2
TABLES
  0
TABLE
  2
VPORT
  5
8
330
0
100
AcDbSymbolTable
 70
1
  0
VPORT
  5
23
330
8
100
AcDbSymbolTableRecord
100
AcDbViewportTableRecord
  2
*Active
 70
0
 10
0.0
 20
0.0
 11
1.0
 21
1.0
 12
0.0
 22
0.0
 13
0.0
 23
0.0
 14
0.5
 24
0.5
 15
0.5
 25
0.5
 16
0.0
 26
0.0
 36
1.0
 17
0.0
 27
0.0
 37
0.0
 40
1000.0
 41
1.34
 42
50.0
 43
0.0
 44
0.0
 50
0.0
 51
0.0
 71
0
 72
1000
 73
1
 74
3
 75
0
 76
0
 77
0
 78
0
281
0
 65
0
146
0.0
  0
ENDTAB
  0
TABLE
  2
LTYPE
  5
2
330
0
100
AcDbSymbolTable
 70
7
  0
LTYPE
  5
24
330
2
100
AcDbSymbolTableRecord
100
AcDbLinetypeTableRecord
  2
ByBlock
 70
0
  3

 72
65
 73
0
 40
0.0
  0
LTYPE
  5
25
330
2
100
AcDbSymbolTableRecord
100
AcDbLinetypeTableRecord
  2
ByLayer
 70
0
  3

 72
65
 73
0
 40
0.0
  0
LTYPE
  5
26
330
2
100
AcDbSymbolTableRecord
100
AcDbLinetypeTableRecord
  2
Continuous
 70
0
  3

 72
65
 73
0
 40
0.0
  0
LTYPE
  5
122
330
2
100
AcDbSymbolTableRecord
100
AcDbLinetypeTableRecord
  2
DASHDOT
 70
0
  3
__ . __ . __ . __ . __ . __ . __ . __ . __ . __
 72
65
 73
4
 40
1.0
 49
0.5
 74
0
 49
-0.25
 74
0
 49
0.0
 74
0
 49
-0.25
 74
0
  0
LTYPE
  5
13B
330
2
100
AcDbSymbolTableRecord
100
AcDbLinetypeTableRecord
  2
HIDDEN
 70
0
  3
Hidden __ __ __ __ __ __ __ __ __ __ __ __ __ __
 72
65
 73
2
 40
1.905
 49
1.27
 74
0
 49
-0.635
 74
0
  0
LTYPE
  5
13C
330
2
100
AcDbSymbolTableRecord
100
AcDbLinetypeTableRecord
  2
PHANTOM
 70
0
  3
Phantom ______  __  __  ______  __  __  ______
 72
65
 73
6
 40
12.7
 49
6.35
 74
0
 49
-1.27
 74
0
 49
1.27
 74
0
 49
-1.27
 74
0
 49
1.27
 74
0
 49
-1.27
 74
0
  0
LTYPE
  5
13D
330
2
100
AcDbSymbolTableRecord
100
AcDbLinetypeTableRecord
  2
CENTER
 70
0
  3
Center ____ _ ____ _ ____ _ ____ _ ____ _ ____
 72
65
 73
4
 40
10.16
 49
6.35
 74
0
 49
-1.27
 74
0
 49
1.27
 74
0
 49
-1.27
 74
0
  0
ENDTAB
  0
TABLE
  2
LAYER
  5
1
330
0
100
AcDbSymbolTable
 70
5
  0
LAYER
  5
27
330
1
100
AcDbSymbolTableRecord
100
AcDbLayerTableRecord
  2
0
 70
0
 62
7
  6
Continuous
370
-3
390
13
  0
LAYER
  5
28
330
1
100
AcDbSymbolTableRecord
100
AcDbLayerTableRecord
  2
Defpoints
 70
0
 62
7
  6
Continuous
290
0
370
-3
390
13
  0
LAYER
  5
11F
330
1
100
AcDbSymbolTableRecord
100
AcDbLayerTableRecord
  2
2
 70
0
 62
7
  6
CONTINUOUS
370
-3
390
30
  0
LAYER
  5
120
330
1
100
AcDbSymbolTableRecord
100
AcDbLayerTableRecord
  2
254
 70
0
 62
7
  6
CONTINUOUS
370
-3
390
30
  0
LAYER
  5
121
330
1
100
AcDbSymbolTableRecord
100
AcDbLayerTableRecord
  2
1
 70
0
 62
7
  6
CONTINUOUS
370
-3
390
30
  0
ENDTAB
  0
TABLE
  2
STYLE
  5
5
330
0
100
AcDbSymbolTable
 70
16
  0
STYLE
  5
29
330
5
100
AcDbSymbolTableRecord
100
AcDbTextStyleTableRecord
  2
Standard
 70
0
 40
0.0
 41
1.0
 50
0.0
 71
0
 42
2.5
  3
txt
  4

  0
STYLE
  5
123
330
5
100
AcDbSymbolTableRecord
100
AcDbTextStyleTableRecord
  2
GMM014
 70
0
 40
0.0
 41
0.82727272727273
 50
0.0
 71
0
 42
1.0
  3
txt.shx
  4
bigfont.shx
  0
STYLE
  5
124
330
5
100
AcDbSymbolTableRecord
100
AcDbTextStyleTableRecord
  2
GMM010
 70
0
 40
0.0
 41
0.7
 50
0.0
 71
0
 42
1.0
  3
txt.shx
  4
bigfont.shx
  0
STYLE
  5
125
330
5
100
AcDbSymbolTableRecord
100
AcDbTextStyleTableRecord
  2
GMM008
 70
0
 40
0.0
 41
0.8
 50
0.0
 71
0
 42
1.0
  3
txt.shx
  4
bigfont.shx
  0
STYLE
  5
126
330
5
100
AcDbSymbolTableRecord
100
AcDbTextStyleTableRecord
  2
GMM015
 70
0
 40
0.0
 41
0.41152263374486
 50
0.0
 71
0
 42
1.0
  3
txt.shx
  4
bigfont.shx
  0
STYLE
  5
127
330
5
100
AcDbSymbolTableRecord
100
AcDbTextStyleTableRecord
  2
GMM001
 70
0
 40
0.0
 41
1.0
 50
0.0
 71
0
 42
1.0
  3
txt.shx
  4
bigfont.shx
  0
STYLE
  5
128
330
5
100
AcDbSymbolTableRecord
100
AcDbTextStyleTableRecord
  2
GMM012
 70
0
 40
0.0
 41
1.0666666666667
 50
0.0
 71
0
 42
1.0
  3
txt.shx
  4
bigfont.shx
  0
STYLE
  5
129
330
5
100
AcDbSymbolTableRecord
100
AcDbTextStyleTableRecord
  2
GMM004
 70
0
 40
0.0
 41
0.66666666666667
 50
0.0
 71
0
 42
1.0
  3
txt.shx
  4
bigfont.shx
  0
STYLE
  5
12A
330
5
100
AcDbSymbolTableRecord
100
AcDbTextStyleTableRecord
  2
STANDARD1
 70
4
 40
0.0
 41
1.0
 50
0.0
 71
0
 42
0.2
  3
TXT
  4
BIGFONT
  0
STYLE
  5
12B
330
5
100
AcDbSymbolTableRecord
100
AcDbTextStyleTableRecord
  2
GMM007
 70
0
 40
0.0
 41
0.625
 50
0.0
 71
0
 42
1.0
  3
txt.shx
  4
bigfont.shx
  0
STYLE
  5
12C
330
5
100
AcDbSymbolTableRecord
100
AcDbTextStyleTableRecord
  2
GMM011
 70
0
 40
0.0
 41
0.95
 50
0.0
 71
0
 42
1.0
  3
txt.shx
  4
bigfont.shx
  0
STYLE
  5
12D
330
5
100
AcDbSymbolTableRecord
100
AcDbTextStyleTableRecord
  2
GMM003
 70
0
 40
0.0
 41
0.91125
 50
0.0
 71
0
 42
1.0
  3
txt.shx
  4
bigfont.shx
  0
STYLE
  5
12E
330
5
100
AcDbSymbolTableRecord
100
AcDbTextStyleTableRecord
  2
GMM009
 70
0
 40
0.0
 41
0.49382716049383
 50
0.0
 71
0
 42
1.0
  3
txt.shx
  4
bigfont.shx
  0
STYLE
  5
163
330
5
100
AcDbSymbolTableRecord
100
AcDbTextStyleTableRecord
  2
VF001
 70
0
 40
0.0
 41
0.548697
 50
0.0
 71
0
 42
2.5
  3
txt.shx
  4

  0
STYLE
  5
165
330
5
100
AcDbSymbolTableRecord
100
AcDbTextStyleTableRecord
  2
VF002
 70
0
 40
0.0
 41
0.428571
 50
0.0
 71
0
 42
2.5
  3
txt.shx
  4

  0
STYLE
  5
16D
330
5
100
AcDbSymbolTableRecord
100
AcDbTextStyleTableRecord
  2
VF003
 70
0
 40
0.0
 41
0.75
 50
0.0
 71
0
 42
2.5
  3
txt.shx
  4

  0
ENDTAB
  0
TABLE
  2
VIEW
  5
7
330
0
100
AcDbSymbolTable
 70
0
  0
ENDTAB
  0
TABLE
  2
UCS
  5
6
330
0
100
AcDbSymbolTable
 70
0
  0
ENDTAB
  0
TABLE
  2
APPID
  5
3
330
0
100
AcDbSymbolTable
 70
3
  0
APPID
  5
2A
330
3
100
AcDbSymbolTableRecord
100
AcDbRegAppTableRecord
  2
ACAD
 70
0
  0
APPID
  5
12F
330
3
100
AcDbSymbolTableRecord
100
AcDbRegAppTableRecord
  2
HATCHBACKGROUNDCOLOR
 70
0
  0
APPID
  5
130
330
3
100
AcDbSymbolTableRecord
100
AcDbRegAppTableRecord
  2
EZDXF
 70
0
  0
ENDTAB
  0
TABLE
  2
DIMSTYLE
  5
4
330
0
100
AcDbSymbolTable
 70
14
100
AcDbDimStyleTable
  0
DIMSTYLE
105
2B
330
4
100
AcDbSymbolTableRecord
100
AcDbDimStyleTableRecord
  2
Standard
 70
0
  3

  4

 40
1.0
 41
2.5
 42
0.625
 43
3.75
 44
1.25
 45
0.0
 46
0.0
 47
0.0
 48
0.0
140
2.5
141
2.5
142
0.0
143
0.03937007874
144
1.0
145
0.0
146
1.0
147
0.625
148
0.0
 71
0
 72
0
 73
0
 74
0
 75
0
 76
0
 77
1
 78
8
 79
3
170
0
171
3
172
1
173
0
174
0
175
0
176
0
177
0
178
0
179
2
271
2
272
2
273
2
274
3
275
0
276
0
277
2
278
44
279
0
280
0
281
0
282
0
283
0
284
8
285
0
286
0
288
0
289
3
371
-2
372
-2
  0
DIMSTYLE
105
173
330
4
100
AcDbSymbolTableRecord
100
AcDbDimStyleTableRecord
  2
GEN001
 70
0
  3

  4

 40
1.0
 41
3.0
 42
1.0
 43
8.0
 44
2.0
 45
0.0
 46
0.0
 47
0.0
 48
0.0
140
4.0
141
1.0
142
0.0
143
0.03937007874
144
1.0
145
0.0
146
1.0
147
0.5
148
0.0
 71
0
 72
0
 73
0
 74
0
 75
0
 76
0
 77
3
 78
8
 79
3
170
0
171
3
172
1
173
1
174
0
175
0
176
3
177
3
178
7
179
2
271
2
272
2
273
2
274
3
275
0
276
0
277
2
278
46
279
0
280
0
281
0
282
0
283
0
284
8
285
0
286
0
288
0
289
3
340
16D
343
16E
344
16E
371
-2
372
-2
  0
DIMSTYLE
105
183
330
4
100
AcDbSymbolTableRecord
100
AcDbDimStyleTableRecord
  2
GEN002
 70
0
  3

  4

 40
1.0
 41
3.0
 42
1.0
 43
8.0
 44
2.0
 45
0.0
 46
0.0
 47
0.0
 48
0.0
140
4.0
141
1.0
142
0.0
143
0.03937007874
144
1.0
145
0.0
146
1.0
147
0.5
148
0.0
 71
0
 72
0
 73
0
 74
0
 75
0
 76
0
 77
3
 78
8
 79
3
170
0
171
3
172
1
173
1
174
0
175
0
176
3
177
3
178
7
179
2
271
2
272
2
273
2
274
3
275
0
276
0
277
2
278
46
279
0
280
0
281
0
282
0
283
0
284
8
285
0
286
0
288
0
289
3
340
16D
343
16E
344
16E
371
-2
372
-2
  0
DIMSTYLE
105
193
330
4
100
AcDbSymbolTableRecord
100
AcDbDimStyleTableRecord
  2
GEN003
 70
0
  3

  4

 40
1.0
 41
3.0
 42
1.0
 43
8.0
 44
2.0
 45
0.0
 46
0.0
 47
0.0
 48
0.0
140
4.0
141
1.0
142
0.0
143
0.03937007874
144
1.0
145
0.0
146
1.0
147
0.5
148
0.0
 71
0
 72
0
 73
0
 74
0
 75
0
 76
0
 77
3
 78
8
 79
3
170
0
171
3
172
1
173
1
174
0
175
0
176
3
177
3
178
7
179
2
271
2
272
2
273
2
274
3
275
0
276
0
277
2
278
46
279
0
280
0
281
0
282
0
283
0
284
8
285
0
286
0
288
0
289
3
340
16D
343
16E
344
16E
371
-2
372
-2
  0
DIMSTYLE
105
1A3
330
4
100
AcDbSymbolTableRecord
100
AcDbDimStyleTableRecord
  2
GEN004
 70
0
  3

  4

 40
1.0
 41
3.0
 42
1.0
 43
8.0
 44
2.0
 45
0.0
 46
0.0
 47
0.0
 48
0.0
140
4.0
141
1.0
142
0.0
143
0.03937007874
144
1.0
145
0.0
146
1.0
147
0.5
148
0.0
 71
0
 72
0
 73
0
 74
0
 75
0
 76
0
 77
3
 78
8
 79
3
170
0
171
3
172
1
173
1
174
0
175
0
176
3
177
3
178
7
179
2
271
2
272
2
273
2
274
3
275
0
276
0
277
2
278
46
279
0
280
0
281
0
282
0
283
0
284
8
285
0
286
0
288
0
289
3
340
16D
343
16E
344
16E
371
-2
372
-2
  0
DIMSTYLE
105
1B3
330
4
100
AcDbSymbolTableRecord
100
AcDbDimStyleTableRecord
  2
GEN005
 70
0
  3

  4

 40
1.0
 41
3.0
 42
1.0
 43
8.0
 44
2.0
 45
0.0
 46
0.0
 47
0.0
 48
0.0
140
4.0
141
1.0
142
0.0
143
0.03937007874
144
1.0
145
0.0
146
1.0
147
0.5
148
0.0
 71
0
 72
0
 73
0
 74
0
 75
0
 76
0
 77
3
 78
8
 79
3
170
0
171
3
172
1
173
1
174
0
175
0
176
3
177
3
178
7
179
2
271
2
272
2
273
2
274
3
275
0
276
0
277
2
278
46
279
0
280
0
281
0
282
0
283
0
284
8
285
0
286
0
288
0
289
3
340
16D
343
16E
344
16E
371
-2
372
-2
  0
DIMSTYLE
105
1C3
330
4
100
AcDbSymbolTableRecord
100
AcDbDimStyleTableRecord
  2
GEN006
 70
0
  3

  4

 40
1.0
 41
3.0
 42
1.0
 43
8.0
 44
2.0
 45
0.0
 46
0.0
 47
0.0
 48
0.0
140
4.0
141
1.0
142
0.0
143
0.03937007874
144
1.0
145
0.0
146
1.0
147
0.5
148
0.0
 71
0
 72
0
 73
0
 74
0
 75
0
 76
0
 77
3
 78
8
 79
3
170
0
171
3
172
1
173
1
174
0
175
0
176
3
177
3
178
7
179
2
271
2
272
2
273
2
274
3
275
0
276
0
277
2
278
46
279
0
280
0
281
0
282
0
283
0
284
8
285
0
286
0
288
0
289
3
340
16D
343
16E
344
16E
371
-2
372
-2
  0
DIMSTYLE
105
1D3
330
4
100
AcDbSymbolTableRecord
100
AcDbDimStyleTableRecord
  2
GEN007
 70
0
  3

  4

 40
1.0
 41
3.0
 42
1.0
 43
8.0
 44
2.0
 45
0.0
 46
0.0
 47
0.0
 48
0.0
140
4.0
141
1.0
142
0.0
143
0.03937007874
144
1.0
145
0.0
146
1.0
147
0.5
148
0.0
 71
0
 72
0
 73
0
 74
0
 75
0
 76
0
 77
3
 78
8
 79
3
170
0
171
3
172
1
173
1
174
0
175
0
176
3
177
3
178
7
179
2
271
2
272
2
273
2
274
3
275
0
276
0
277
2
278
46
279
0
280
0
281
0
282
0
283
0
284
8
285
0
286
0
288
0
289
3
340
16D
343
16E
344
16E
371
-2
372
-2
  0
DIMSTYLE
105
1E3
330
4
100
AcDbSymbolTableRecord
100
AcDbDimStyleTableRecord
  2
GEN008
 70
0
  3
R<>
  4

 40
1.0
 41
3.0
 42
1.0
 43
8.0
 44
2.0
 45
0.0
 46
0.0
 47
0.0
 48
0.0
140
4.0
141
1.0
142
0.0
143
0.03937007874
144
1.0
145
0.0
146
1.0
147
0.5
148
0.0
 71
0
 72
0
 73
0
 74
0
 75
0
 76
0
 77
3
 78
8
 79
3
170
0
171
3
172
1
173
1
174
0
175
0
176
3
177
3
178
7
179
2
271
2
272
2
273
2
274
3
275
0
276
0
277
2
278
46
279
0
280
0
281
0
282
0
283
0
284
8
285
0
286
0
288
0
289
3
340
16D
343
16E
344
16E
371
-2
372
-2
  0
DIMSTYLE
105
1EF
330
4
100
AcDbSymbolTableRecord
100
AcDbDimStyleTableRecord
  2
GEN009
 70
0
  3

  4

 40
1.0
 41
3.0
 42
1.0
 43
8.0
 44
2.0
 45
0.0
 46
0.0
 47
0.0
 48
0.0
140
4.0
141
1.0
142
0.0
143
0.03937007874
144
1.0
145
0.0
146
1.0
147
0.5
148
0.0
 71
0
 72
0
 73
0
 74
0
 75
0
 76
0
 77
3
 78
8
 79
3
170
0
171
3
172
1
173
1
174
0
175
0
176
3
177
3
178
7
179
2
271
2
272
2
273
2
274
3
275
0
276
0
277
2
278
46
279
0
280
0
281
0
282
0
283
0
284
8
285
0
286
0
288
0
289
3
340
16D
343
16E
344
16E
371
-2
372
-2
  0
DIMSTYLE
105
1FF
330
4
100
AcDbSymbolTableRecord
100
AcDbDimStyleTableRecord
  2
GEN010
 70
0
  3

  4

 40
1.0
 41
3.0
 42
1.0
 43
8.0
 44
2.0
 45
0.0
 46
0.0
 47
0.0
 48
0.0
140
4.0
141
1.0
142
0.0
143
0.03937007874
144
1.0
145
0.0
146
1.0
147
0.5
148
0.0
 71
0
 72
0
 73
0
 74
0
 75
0
 76
0
 77
3
 78
8
 79
3
170
0
171
3
172
1
173
1
174
0
175
0
176
3
177
3
178
7
179
2
271
2
272
2
273
2
274
3
275
0
276
0
277
2
278
46
279
0
280
0
281
0
282
0
283
0
284
8
285
0
286
0
288
0
289
3
340
16D
343
16E
344
16E
371
-2
372
-2
  0
DIMSTYLE
105
20F
330
4
100
AcDbSymbolTableRecord
100
AcDbDimStyleTableRecord
  2
GEN011
 70
0
  3

  4

 40
1.0
 41
3.0
 42
1.0
 43
8.0
 44
2.0
 45
0.0
 46
0.0
 47
0.0
 48
0.0
140
4.0
141
1.0
142
0.0
143
0.03937007874
144
1.0
145
0.0
146
1.0
147
0.5
148
0.0
 71
0
 72
0
 73
0
 74
0
 75
0
 76
0
 77
3
 78
8
 79
3
170
0
171
3
172
1
173
1
174
0
175
0
176
3
177
3
178
7
179
2
271
2
272
2
273
2
274
3
275
0
276
0
277
2
278
46
279
0
280
0
281
0
282
0
283
0
284
8
285
0
286
0
288
0
289
3
340
16D
343
16E
344
16E
371
-2
372
-2
  0
DIMSTYLE
105
21F
330
4
100
AcDbSymbolTableRecord
100
AcDbDimStyleTableRecord
  2
GEN012
 70
0
  3

  4

 40
1.0
 41
3.0
 42
1.0
 43
8.0
 44
2.0
 45
0.0
 46
0.0
 47
0.0
 48
0.0
140
4.0
141
1.0
142
0.0
143
0.03937007874
144
1.0
145
0.0
146
1.0
147
0.5
148
0.0
 71
0
 72
0
 73
0
 74
0
 75
0
 76
0
 77
3
 78
8
 79
3
170
0
171
3
172
1
173
1
174
0
175
0
176
3
177
3
178
7
179
2
271
2
272
2
273
2
274
3
275
0
276
0
277
2
278
46
279
0
280
0
281
0
282
0
283
0
284
8
285
0
286
0
288
0
289
3
340
16D
343
16E
344
16E
371
-2
372
-2
  0
DIMSTYLE
105
22F
330
4
100
AcDbSymbolTableRecord
100
AcDbDimStyleTableRecord
  2
GENLDR
 70
0
  3

  4

 40
1.0
 41
3.0
 42
1.0
 43
8.0
 44
2.0
 45
0.0
 46
0.0
 47
0.0
 48
0.0
140
4.0
141
1.0
142
0.0
143
0.03937007874
144
1.0
145
0.0
146
1.0
147
0.5
148
0.0
 71
0
 72
0
 73
0
 74
0
 75
0
 76
0
 77
3
 78
8
 79
3
170
0
171
3
172
1
173
1
174
0
175
0
176
3
177
3
178
7
179
2
271
2
272
2
273
2
274
3
275
0
276
0
277
2
278
46
279
0
280
0
281
0
282
0
283
0
284
8
285
0
286
0
288
0
289
3
340
16D
343
16E
344
16E
371
-2
372
-2
  0
ENDTAB
  0
TABLE
  2
BLOCK_RECORD
  5
9
330
0
100
AcDbSymbolTable
 70
19
  0
BLOCK_RECORD
  5
17
330
9
100
AcDbSymbolTableRecord
100
AcDbBlockTableRecord
  2
*Model_Space
340
1A
  0
BLOCK_RECORD
  5
1B
330
9
100
AcDbSymbolTableRecord
100
AcDbBlockTableRecord
  2
*Paper_Space
340
1E
  0
BLOCK_RECORD
  5
C8
330
9
100
AcDbSymbolTableRecord
100
AcDbBlockTableRecord
  2
BLOCK004
340
0
  0
BLOCK_RECORD
  5
D6
330
9
100
AcDbSymbolTableRecord
100
AcDbBlockTableRecord
  2
BLOCK005
340
0
  0
BLOCK_RECORD
  5
111
330
9
100
AcDbSymbolTableRecord
100
AcDbBlockTableRecord
  2
BLOCK006
340
0
  0
BLOCK_RECORD
  5
118
330
9
100
AcDbSymbolTableRecord
100
AcDbBlockTableRecord
  2
BLOCK007
340
0
  0
BLOCK_RECORD
  5
16E
330
9
100
AcDbSymbolTableRecord
100
AcDbBlockTableRecord
  2
_OPEN30
340
0
  0
BLOCK_RECORD
  5
175
330
9
100
AcDbSymbolTableRecord
100
AcDbBlockTableRecord
  2
*D1
340
0
  0
BLOCK_RECORD
  5
185
330
9
100
AcDbSymbolTableRecord
100
AcDbBlockTableRecord
  2
*D2
340
0
  0
BLOCK_RECORD
  5
195
330
9
100
AcDbSymbolTableRecord
100
AcDbBlockTableRecord
  2
*D3
340
0
  0
BLOCK_RECORD
  5
1A5
330
9
100
AcDbSymbolTableRecord
100
AcDbBlockTableRecord
  2
*D4
340
0
  0
BLOCK_RECORD
  5
1B5
330
9
100
AcDbSymbolTableRecord
100
AcDbBlockTableRecord
  2
*D5
340
0
  0
BLOCK_RECORD
  5
1C5
330
9
100
AcDbSymbolTableRecord
100
AcDbBlockTableRecord
  2
*D6
340
0
  0
BLOCK_RECORD
  5
1D5
330
9
100
AcDbSymbolTableRecord
100
AcDbBlockTableRecord
  2
*D7
340
0
  0
BLOCK_RECORD
  5
1E5
330
9
100
AcDbSymbolTableRecord
100
AcDbBlockTableRecord
  2
*D8
340
0
  0
BLOCK_RECORD
  5
1F1
330
9
100
AcDbSymbolTableRecord
100
AcDbBlockTableRecord
  2
*D9
340
0
  0
BLOCK_RECORD
  5
201
330
9
100
AcDbSymbolTableRecord
100
AcDbBlockTableRecord
  2
*D10
340
0
  0
BLOCK_RECORD
  5
211
330
9
100
AcDbSymbolTableRecord
100
AcDbBlockTableRecord
  2
*D11
340
0
  0
BLOCK_RECORD
  5
221
330
9
100
AcDbSymbolTableRecord
100
AcDbBlockTableRecord
  2
*D12
340
0
  0
ENDTAB
  0
ENDSEC
  0
SECTION
  2
BLOCKS
  0
BLOCK
  5
18
330
17
100
AcDbEntity
  8
0
100
AcDbBlockBegin
  2
*Model_Space
 70
0
 10
0.0
 20
0.0
 30
0.0
  3
*Model_Space
  1

  0
ENDBLK
  5
19
330
17
100
AcDbEntity
  8
0
100
AcDbBlockEnd
  0
BLOCK
  5
1C
330
1B
100
AcDbEntity
  8
0
100
AcDbBlockBegin
  2
*Paper_Space
 70
0
 10
0.0
 20
0.0
 30
0.0
  3
*Paper_Space
  1

  0
ENDBLK
  5
1D
330
1B
100
AcDbEntity
  8
0
100
AcDbBlockEnd
  0
BLOCK
  5
C9
330
C8
100
AcDbEntity
  8
0
100
AcDbBlockBegin
  2
BLOCK004
 70
64
 10
0.0
 20
0.0
 30
0.0
  3
BLOCK004
  1

  0
CIRCLE
  5
CB
330
C8
100
AcDbEntity
  8
2
  6
CONTINUOUS
 62
7
370
20
100
AcDbCircle
 10
170.52102818258
 20
10.197623906063
 30
0.0
 40
2.1782975474943
  0
CIRCLE
  5
CC
330
C8
100
AcDbEntity
  8
2
  6
CONTINUOUS
 62
7
370
20
100
AcDbCircle
 10
170.52102818258
 20
10.197623906063
 30
0.0
 40
1.43691326178
  0
LWPOLYLINE
  5
CD
330
C8
100
AcDbEntity
  8
2
  6
CONTINUOUS
 62
7
370
20
100
AcDbPolyline
 90
4
 70
1
 10
175.06221618808
 20
11.634537167843
 10
180.26350009482
 20
12.375921453557
 10
180.26350009482
 20
8.0193263585682
 10
175.06221618808
 20
8.7607106442827
  0
LINE
  5
CE
330
C8
100
AcDbEntity
  8
2
  6
CONTINUOUS
 62
7
370
20
100
AcDbLine
 10
168.03987259152
 20
10.197623906063
 30
0.0
 11
170.80115164912
 21
10.197623906063
 31
0.0
  0
LINE
  5
CF
330
C8
100
AcDbEntity
  8
2
  6
CONTINUOUS
 62
7
370
20
100
AcDbLine
 10
171.25447468719
 20
10.197623906063
 30
0.0
 11
172.20027039241
 21
10.197623906063
 31
0.0
  0
LINE
  5
D0
330
C8
100
AcDbEntity
  8
2
  6
CONTINUOUS
 62
7
370
20
100
AcDbLine
 10
177.29615748089
 20
10.197623906063
 30
0.0
 11
178.2468966452
 21
10.197623906063
 31
0.0
  0
LINE
  5
D1
330
C8
100
AcDbEntity
  8
2
  6
CONTINUOUS
 62
7
370
20
100
AcDbLine
 10
172.99280424365
 20
10.197623906063
 30
0.0
 11
176.67551000266
 21
10.197623906063
 31
0.0
  0
LINE
  5
D2
330
C8
100
AcDbEntity
  8
2
  6
CONTINUOUS
 62
7
370
20
100
AcDbLine
 10
178.91739616362
 20
10.197623906063
 30
0.0
 11
181.17172699337
 21
10.197623906063
 31
0.0
  0
LINE
  5
D3
330
C8
100
AcDbEntity
  8
2
  6
CONTINUOUS
 62
7
370
20
100
AcDbLine
 10
170.52102818258
 20
10.450588115875
 30
0.0
 11
170.52102818258
 21
7.6687870559977
 31
0.0
  0
LINE
  5
D4
330
C8
100
AcDbEntity
  8
2
  6
CONTINUOUS
 62
7
370
20
100
AcDbLine
 10
170.52102818258
 20
11.879149095869
 30
0.0
 11
170.52102818258
 21
10.974485114891
 31
0.0
  0
LINE
  5
D5
330
C8
100
AcDbEntity
  8
2
  6
CONTINUOUS
 62
7
370
20
100
AcDbLine
 10
170.52102818258
 20
12.751764531148
 30
0.0
 11
170.52102818258
 21
12.118986673823
 31
0.0
  0
ENDBLK
  5
CA
330
C8
100
AcDbEntity
  8
0
100
AcDbBlockEnd
  0
BLOCK
  5
D7
330
D6
100
AcDbEntity
  8
0
100
AcDbBlockBegin
  2
BLOCK005
 70
64
 10
0.0
 20
0.0
 30
0.0
  3
BLOCK005
  1

  0
MTEXT
  5
D9
330
D6
100
AcDbEntity
  8
254
 62
7
370
20
100
AcDbMText
 10
149.40450574984
 20
18.703608255046
 30
0.0
 40
2.3113364687439
 41
0.0
 71
1
  1
{\T1.000000;ÇPÇOÇOÇOÅ`}\P{\T1.000000;ÇQÇOÇOÇO}
  7
GMM010
 44
0.79999984000003
  0
MTEXT
  5
DA
330
D6
100
AcDbEntity
  8
254
 62
7
370
20
100
AcDbMText
 10
140.98345281688
 20
18.703608255046
 30
0.0
 40
2.3113364687439
 41
0.0
 71
1
  1
{\T1.000000;ÇSÇOÇOÅ`}\P{\T1.000000;ÇPÇOÇOÇO}
  7
GMM010
 44
0.79999984000003
  0
MTEXT
  5
DB
330
D6
100
AcDbEntity
  8
254
 62
7
370
20
100
AcDbMText
 10
132.43154947819
 20
18.703608255046
 30
0.0
 40
2.3113364687439
 41
0.0
 71
1
  1
{\T1.000000;ÇPÇQÇOÅ`}\P{\T1.000000;ÇSÇOÇO}
  7
GMM010
 44
0.79999984000003
  0
MTEXT
  5
DC
330
D6
100
AcDbEntity
  8
254
 62
7
370
20
100
AcDbMText
 10
124.12265403585
 20
18.703608255046
 30
0.0
 40
2.3113364687439
 41
0.0
 71
1
  1
{\T1.000000;ÇRÇOÅ@Å`}\P{\T1.000000;ÇPÇQÇO}
  7
GMM010
 44
0.79999984000003
  0
MTEXT
  5
DD
330
D6
100
AcDbEntity
  8
254
 62
7
370
20
100
AcDbMText
 10
115.58944361226
 20
18.703608255046
 30
0.0
 40
2.3113364687439
 41
0.0
 71
1
  1
{\T1.000000;ÇUÅ@Å`}\P{\T1.000000;ÇRÇO}
  7
GMM010
 44
0.79999984000003
  0
MTEXT
  5
DE
330
D6
100
AcDbEntity
  8
254
 62
7
370
20
100
AcDbMText
 10
107.24316233971
 20
18.703608255046
 30
0.0
 40
2.3113364687439
 41
0.0
 71
1
  1
{\T1.000000;ÇRÅ@Å`}\P{\T1.000000;ÇU}
  7
GMM010
 44
0.79999984000003
  0
LINE
  5
DF
330
D6
100
AcDbEntity
  8
2
  6
CONTINUOUS
 62
3
370
9
100
AcDbLine
 10
96.972262552243
 20
20.550214344458
 30
0.0
 11
166.43737735483
 21
20.550214344458
 31
0.0
  0
LINE
  5
E0
330
D6
100
AcDbEntity
  8
2
  6
CONTINUOUS
 62
3
370
9
100
AcDbLine
 10
96.972262552243
 20
13.84845139869
 30
0.0
 11
106.70490438971
 21
13.84845139869
 31
0.0
  0
LINE
  5
E1
330
D6
100
AcDbEntity
  8
2
  6
CONTINUOUS
 62
3
370
9
100
AcDbLine
 10
106.70490438971
 20
13.84845139869
 30
0.0
 11
115.2381148133
 21
13.84845139869
 31
0.0
  0
LINE
  5
E2
330
D6
100
AcDbEntity
  8
2
  6
CONTINUOUS
 62
3
370
9
100
AcDbLine
 10
115.2381148133
 20
13.84845139869
 30
0.0
 11
123.77132523688
 21
13.84845139869
 31
0.0
  0
LINE
  5
E3
330
D6
100
AcDbEntity
  8
2
  6
CONTINUOUS
 62
3
370
9
100
AcDbLine
 10
123.77132523688
 20
13.84845139869
 30
0.0
 11
132.30453566047
 21
13.84845139869
 31
0.0
  0
LINE
  5
E4
330
D6
100
AcDbEntity
  8
2
  6
CONTINUOUS
 62
3
370
9
100
AcDbLine
 10
132.30453566047
 20
13.84845139869
 30
0.0
 11
140.83774608406
 21
13.84845139869
 31
0.0
  0
LINE
  5
E5
330
D6
100
AcDbEntity
  8
2
  6
CONTINUOUS
 62
3
370
9
100
AcDbLine
 10
140.83774608406
 20
13.84845139869
 30
0.0
 11
149.37095650765
 21
13.84845139869
 31
0.0
  0
LINE
  5
E6
330
D6
100
AcDbEntity
  8
2
  6
CONTINUOUS
 62
3
370
9
100
AcDbLine
 10
149.37095650765
 20
13.84845139869
 30
0.0
 11
157.90416693124
 21
13.84845139869
 31
0.0
  0
LINE
  5
E7
330
D6
100
AcDbEntity
  8
2
  6
CONTINUOUS
 62
3
370
9
100
AcDbLine
 10
157.90416693124
 20
13.84845139869
 30
0.0
 11
166.43737735483
 21
13.84845139869
 31
0.0
  0
MTEXT
  5
E8
330
D6
100
AcDbEntity
  8
254
 62
7
370
20
100
AcDbMText
 10
101.75381223092
 20
18.703608255046
 30
0.0
 40
2.3113364687439
 41
0.0
 71
2
  1
{\T1.000000;Å†Çí¥Ç¶}\P{\T1.000000;Å†à»â∫}
  7
GMM011
 44
0.79999984000003
  0
MTEXT
  5
E9
330
D6
100
AcDbEntity
  8
254
 62
7
370
20
100
AcDbMText
 10
157.87528390182
 20
18.703608255046
 30
0.0
 40
2.3113364687439
 41
0.0
 71
1
  1
{\T1.000000;ÇQÇOÇOÇOÅ`}\P{\T1.000000;ÇSÇOÇOÇO}
  7
GMM010
 44
0.79999984000003
  0
LINE
  5
EA
330
D6
100
AcDbEntity
  8
2
  6
CONTINUOUS
 62
3
370
9
100
AcDbLine
 10
157.90416693124
 20
9.424225699345
 30
0.0
 11
166.43737735483
 21
9.424225699345
 31
0.0
  0
LINE
  5
EB
330
D6
100
AcDbEntity
  8
2
  6
CONTINUOUS
 62
3
370
9
100
AcDbLine
 10
149.37095650765
 20
9.424225699345
 30
0.0
 11
157.90416693124
 21
9.424225699345
 31
0.0
  0
LINE
  5
EC
330
D6
100
AcDbEntity
  8
2
  6
CONTINUOUS
 62
3
370
9
100
AcDbLine
 10
140.83774608406
 20
9.424225699345
 30
0.0
 11
149.37095650765
 21
9.424225699345
 31
0.0
  0
LINE
  5
ED
330
D6
100
AcDbEntity
  8
2
  6
CONTINUOUS
 62
3
370
9
100
AcDbLine
 10
132.30453566047
 20
9.424225699345
 30
0.0
 11
140.83774608406
 21
9.424225699345
 31
0.0
  0
LINE
  5
EE
330
D6
100
AcDbEntity
  8
2
  6
CONTINUOUS
 62
3
370
9
100
AcDbLine
 10
123.77132523688
 20
9.424225699345
 30
0.0
 11
132.30453566047
 21
9.424225699345
 31
0.0
  0
LINE
  5
EF
330
D6
100
AcDbEntity
  8
2
  6
CONTINUOUS
 62
3
370
9
100
AcDbLine
 10
115.2381148133
 20
9.424225699345
 30
0.0
 11
123.77132523688
 21
9.424225699345
 31
0.0
  0
LINE
  5
F0
330
D6
100
AcDbEntity
  8
2
  6
CONTINUOUS
 62
3
370
9
100
AcDbLine
 10
106.70490438971
 20
9.424225699345
 30
0.0
 11
115.2381148133
 21
9.424225699345
 31
0.0
  0
LINE
  5
F1
330
D6
100
AcDbEntity
  8
2
  6
CONTINUOUS
 62
3
370
9
100
AcDbLine
 10
96.972262552243
 20
9.424225699345
 30
0.0
 11
106.70490438971
 21
9.424225699345
 31
0.0
  0
LINE
  5
F2
330
D6
100
AcDbEntity
  8
2
  6
CONTINUOUS
 62
3
370
9
100
AcDbLine
 10
106.70490438971
 20
20.550214344458
 30
0.0
 11
106.70490438971
 21
4.9999999999998
 31
0.0
  0
LINE
  5
F3
330
D6
100
AcDbEntity
  8
2
  6
CONTINUOUS
 62
3
370
9
100
AcDbLine
 10
115.2381148133
 20
20.550214344458
 30
0.0
 11
115.2381148133
 21
4.9999999999998
 31
0.0
  0
LINE
  5
F4
330
D6
100
AcDbEntity
  8
2
  6
CONTINUOUS
 62
3
370
9
100
AcDbLine
 10
123.77132523688
 20
20.550214344458
 30
0.0
 11
123.77132523688
 21
4.9999999999998
 31
0.0
  0
LINE
  5
F5
330
D6
100
AcDbEntity
  8
2
  6
CONTINUOUS
 62
3
370
9
100
AcDbLine
 10
132.30453566047
 20
20.550214344458
 30
0.0
 11
132.30453566047
 21
4.9999999999998
 31
0.0
  0
LINE
  5
F6
330
D6
100
AcDbEntity
  8
2
  6
CONTINUOUS
 62
3
370
9
100
AcDbLine
 10
140.83774608406
 20
20.550214344458
 30
0.0
 11
140.83774608406
 21
4.9999999999998
 31
0.0
  0
LINE
  5
F7
330
D6
100
AcDbEntity
  8
2
  6
CONTINUOUS
 62
3
370
9
100
AcDbLine
 10
149.37095650765
 20
20.550214344458
 30
0.0
 11
149.37095650765
 21
4.9999999999998
 31
0.0
  0
LINE
  5
F8
330
D6
100
AcDbEntity
  8
2
  6
CONTINUOUS
 62
3
370
9
100
AcDbLine
 10
157.90416693124
 20
20.550214344458
 30
0.0
 11
157.90416693124
 21
4.9999999999998
 31
0.0
  0
MTEXT
  5
F9
330
D6
100
AcDbEntity
  8
254
 62
7
370
20
100
AcDbMText
 10
110.66396580379
 20
7.3356081976647
 30
0.0
 40
2.3113364687439
 41
0.0
 71
5
  1
%%p\T1.000000;ÇP
  7
GMM010
 44
0.79999984000003
  0
MTEXT
  5
FA
330
D6
100
AcDbEntity
  8
254
 62
7
370
20
100
AcDbMText
 10
119.19717622738
 20
7.3356081976647
 30
0.0
 40
2.3113364687439
 41
0.0
 71
5
  1
%%p\T1.000000;ÇP
  7
GMM010
 44
0.79999984000003
  0
MTEXT
  5
FB
330
D6
100
AcDbEntity
  8
254
 62
7
370
20
100
AcDbMText
 10
127.73038665097
 20
7.3356081976647
 30
0.0
 40
2.3113364687439
 41
0.0
 71
5
  1
%%p\T1.000000;ÇPÅDÇT
  7
GMM010
 44
0.79999984000003
  0
MTEXT
  5
FC
330
D6
100
AcDbEntity
  8
254
 62
7
370
20
100
AcDbMText
 10
136.26359707456
 20
7.3356081976647
 30
0.0
 40
2.3113364687439
 41
0.0
 71
5
  1
%%p\T1.000000;ÇQ
  7
GMM010
 44
0.79999984000003
  0
MTEXT
  5
FD
330
D6
100
AcDbEntity
  8
254
 62
7
370
20
100
AcDbMText
 10
144.79680749815
 20
7.3356081976647
 30
0.0
 40
2.3113364687439
 41
0.0
 71
5
  1
%%p\T1.000000;ÇQÅDÇT
  7
GMM010
 44
0.79999984000003
  0
MTEXT
  5
FE
330
D6
100
AcDbEntity
  8
254
 62
7
370
20
100
AcDbMText
 10
153.33001792174
 20
7.3356081976647
 30
0.0
 40
2.3113364687439
 41
0.0
 71
5
  1
%%p\T1.000000;ÇR
  7
GMM010
 44
0.79999984000003
  0
MTEXT
  5
FF
330
D6
100
AcDbEntity
  8
254
 62
7
370
20
100
AcDbMText
 10
161.12785112996
 20
7.3356081976647
 30
0.0
 40
2.3113364687439
 41
0.0
 71
5
  1
%%p\T1.000000;ÇS
  7
GMM010
 44
0.79999984000003
  0
MTEXT
  5
100
330
D6
100
AcDbEntity
  8
254
 62
7
370
20
100
AcDbMText
 10
110.51442248296
 20
11.634920373638
 30
0.0
 40
2.3113364687439
 41
0.0
 71
5
  1
%%p\T1.000000;ÇOÅDÇP
  7
GMM010
 44
0.79999984000003
  0
MTEXT
  5
101
330
D6
100
AcDbEntity
  8
254
 62
7
370
20
100
AcDbMText
 10
119.04763290655
 20
11.634920373638
 30
0.0
 40
2.3113364687439
 41
0.0
 71
5
  1
%%p\T1.000000;ÇOÅDÇQ
  7
GMM010
 44
0.79999984000003
  0
MTEXT
  5
102
330
D6
100
AcDbEntity
  8
254
 62
7
370
20
100
AcDbMText
 10
127.58084333014
 20
11.634920373638
 30
0.0
 40
2.3113364687439
 41
0.0
 71
5
  1
%%p\T1.000000;ÇOÅDÇR
  7
GMM010
 44
0.79999984000003
  0
MTEXT
  5
103
330
D6
100
AcDbEntity
  8
254
 62
7
370
20
100
AcDbMText
 10
136.11405375372
 20
11.634920373638
 30
0.0
 40
2.3113364687439
 41
0.0
 71
5
  1
%%p\T1.000000;ÇOÅDÇT
  7
GMM010
 44
0.79999984000003
  0
MTEXT
  5
104
330
D6
100
AcDbEntity
  8
254
 62
7
370
20
100
AcDbMText
 10
144.64726417731
 20
11.634920373638
 30
0.0
 40
2.3113364687439
 41
0.0
 71
5
  1
%%p\T1.000000;ÇOÅDÇW
  7
GMM010
 44
0.79999984000003
  0
MTEXT
  5
105
330
D6
100
AcDbEntity
  8
254
 62
7
370
20
100
AcDbMText
 10
153.1804746009
 20
11.634920373638
 30
0.0
 40
2.3113364687439
 41
0.0
 71
5
  1
%%p\T1.000000;ÇPÅDÇQ
  7
GMM010
 44
0.79999984000003
  0
MTEXT
  5
106
330
D6
100
AcDbEntity
  8
254
 62
7
370
20
100
AcDbMText
 10
160.97830780913
 20
11.634920373638
 30
0.0
 40
2.3113364687439
 41
0.0
 71
5
  1
%%p\T1.000000;ÇQ
  7
GMM010
 44
0.79999984000003
  0
MTEXT
  5
107
330
D6
100
AcDbEntity
  8
254
 62
7
370
20
100
AcDbMText
 10
99.896982663893
 20
11.634920373638
 30
0.0
 40
2.5424701156183
 41
0.0
 71
5
  1
\T1.000000;ã@äB
  7
GMM001
 44
0.79999984000003
  0
MTEXT
  5
108
330
D6
100
AcDbEntity
  8
254
 62
7
370
20
100
AcDbMText
 10
99.896982663893
 20
7.3356081976647
 30
0.0
 40
2.5424701156183
 41
0.0
 71
5
  1
\T1.000000;êªä 
  7
GMM001
 44
0.79999984000003
  0
MTEXT
  5
109
330
D6
100
AcDbEntity
  8
254
 62
7
370
20
100
AcDbMText
 10
104.68236893058
 20
11.335833731969
 30
0.0
 40
1.7335023515579
 41
0.0
 71
5
  1
\T1.000000;â¡çH
  7
GMM012
 44
0.79999984000003
  0
MTEXT
  5
10A
330
D6
100
AcDbEntity
  8
254
 62
7
370
20
100
AcDbMText
 10
104.68236893058
 20
6.9116080326244
 30
0.0
 40
1.7335023515579
 41
0.0
 71
5
  1
\T1.000000;â¡çH
  7
GMM012
 44
0.79999984000003
  0
LINE
  5
10B
330
D6
100
AcDbEntity
  8
2
  6
CONTINUOUS
 62
3
370
9
100
AcDbLine
 10
92.759851837957
 20
24.469731335988
 30
0.0
 11
166.43737735483
 21
24.469731335988
 31
0.0
  0
TEXT
  5
10C
330
D6
100
AcDbEntity
  8
254
 62
3
370
9
100
AcDbText
 10
94.70298091284
 20
24.260906217143
 30
0.0
 40
2.3113364687439
  1
àÍî ê°ñ@åˆç∑
  7
STANDARD1
 41
1.0935
100
AcDbText
  0
LINE
  5
10D
330
D6
100
AcDbEntity
  8
254
  6
CONTINUOUS
 62
3
370
9
100
AcDbLine
 10
96.972262552243
 20
4.9999999999998
 30
0.0
 11
96.972262552243
 21
24.469731335988
 31
0.0
  0
MTEXT
  5
10E
330
D6
100
AcDbEntity
  8
254
 62
7
370
20
100
AcDbMText
 10
97.619100225429
 20
22.588396985111
 30
0.0
 40
2.3113364687439
 41
0.0
 71
4
  1
\W0.950000;\T1.000000;ÇiÇhÇr\W0.475000;\T1.000000; \W0.950000;\T1.000000;Ça\W0.475000;\T1.000000; \W0.950000;\T1.000000;ÇOÇSÇOÇTÅ|ÇçÅiíÜãâÅjíPà \W0.475000;\T1.000000;:\W0.950000;\T1.000000;ÇçÇç
  7
GMM011
 44
0.79999984000003
  0
MTEXT
  5
10F
330
D6
100
AcDbEntity
  8
254
 62
3
370
9
100
AcDbMText
 10
93.394501411866
 20
26.559319493178
 30
0.0
 40
2.5424701156183
 41
0.0
 71
4
  1
\T1.000000;ì¡ãLÇ»Ç´äpÇÕéÖñ éÊÇËÅAã˜ÇÕÇqÇOÅDÇTà»â∫ÅAçaâ¡çHÇÃíÍÇqÇÕÇqÇPÅDÇTà»â∫
  7
GMM014
 44
0.79999984000003
  0
LWPOLYLINE
  5
110
330
D6
100
AcDbEntity
  8
2
  6
CONTINUOUS
 62
1
370
15
100
AcDbPolyline
 90
4
 70
1
 10
92.759851837957
 20
4.9999999999998
 10
166.43737735483
 20
4.9999999999998
 10
166.43737735483
 20
28.5895
 10
92.759851837957
 20
28.5895
  0
ENDBLK
  5
D8
330
D6
100
AcDbEntity
  8
0
100
AcDbBlockEnd
  0
BLOCK
  5
112
330
111
100
AcDbEntity
  8
0
100
AcDbBlockBegin
  2
BLOCK006
 70
64
 10
0.0
 20
0.0
 30
0.0
  3
BLOCK006
  1

  0
LINE
  5
114
330
111
100
AcDbEntity
  8
254
  6
CONTINUOUS
 62
1
370
15
100
AcDbLine
 10
11.33285798981
 20
12.029538831528
 30
0.0
 11
6.7003419901737
 21
12.029538831528
 31
0.0
  0
LINE
  5
115
330
111
100
AcDbEntity
  8
254
  6
CONTINUOUS
 62
1
370
15
100
AcDbLine
 10
9.0165999899916
 20
15.967177431219
 30
0.0
 11
11.33285798981
 21
12.029538831528
 31
0.0
  0
LINE
  5
116
330
111
100
AcDbEntity
  8
254
  6
CONTINUOUS
 62
1
370
15
100
AcDbLine
 10
9.0165999899916
 20
15.967177431219
 30
0.0
 11
6.7003419901737
 21
12.029538831528
 31
0.0
  0
MTEXT
  5
117
330
111
100
AcDbEntity
  8
254
 62
7
370
20
100
AcDbMText
 10
9.0165999899916
 20
13.392043537304
 30
0.0
 40
2.8433772321429
 41
0.0
 71
5
  1
\T1.000000;ÇP
  7
GMM001
 44
0.79999984000003
  0
ENDBLK
  5
113
330
111
100
AcDbEntity
  8
0
100
AcDbBlockEnd
  0
BLOCK
  5
119
330
118
100
AcDbEntity
  8
0
100
AcDbBlockBegin
  2
BLOCK007
 70
64
 10
0.0
 20
0.0
 30
0.0
  3
BLOCK007
  1

  0
LINE
  5
11B
330
118
100
AcDbEntity
  8
254
  6
CONTINUOUS
 62
1
370
15
100
AcDbLine
 10
11.33285798981
 20
17.926913831528
 30
0.0
 11
6.7003419901737
 21
17.926913831528
 31
0.0
  0
LINE
  5
11C
330
118
100
AcDbEntity
  8
254
  6
CONTINUOUS
 62
1
370
15
100
AcDbLine
 10
9.0165999899916
 20
21.864552431219
 30
0.0
 11
11.33285798981
 21
17.926913831528
 31
0.0
  0
LINE
  5
11D
330
118
100
AcDbEntity
  8
254
  6
CONTINUOUS
 62
1
370
15
100
AcDbLine
 10
9.0165999899916
 20
21.864552431219
 30
0.0
 11
6.7003419901737
 21
17.926913831528
 31
0.0
  0
MTEXT
  5
11E
330
118
100
AcDbEntity
  8
254
 62
7
370
20
100
AcDbMText
 10
9.0165999899916
 20
19.289418537303
 30
0.0
 40
2.8433772321429
 41
0.0
 71
5
  1
\T1.000000;ÇQ
  7
GMM001
 44
0.79999984000003
  0
ENDBLK
  5
11A
330
118
100
AcDbEntity
  8
0
100
AcDbBlockEnd
  0
BLOCK
  5
16F
330
16E
100
AcDbEntity
  8
0
100
AcDbBlockBegin
  2
_OPEN30
 70
0
 10
0.0
 20
0.0
 30
0.0
  3
_OPEN30
  1

  0
LWPOLYLINE
  5
171
330
16E
100
AcDbEntity
  8
0
  6
BYBLOCK
 62
0
100
AcDbPolyline
 90
3
 70
0
 10
-1.0
 20
0.25881904510252074
 10
0.0
 20
0.0
 10
-1.0
 20
-0.25881904510252074
  0
LINE
  5
172
330
16E
100
AcDbEntity
  8
0
  6
BYBLOCK
 62
0
100
AcDbLine
 10
0.0
 20
0.0
 30
0.0
 11
-1.0
 21
0.0
 31
0.0
  0
ENDBLK
  5
170
330
16E
100
AcDbEntity
  8
0
100
AcDbBlockEnd
  0
BLOCK
  5
176
330
175
100
AcDbEntity
  8
0
100
AcDbBlockBegin
  2
*D1
 70
1
 10
0.0
 20
0.0
 30
0.0
  3
*D1
  1

  0
LINE
  5
178
330
175
100
AcDbEntity
  8
0
 62
3
100
AcDbLine
 10
166.0
 20
75.69999999999996
 30
0.0
 11
166.0
 21
47.49999999997962
 31
0.0
  0
LINE
  5
179
330
175
100
AcDbEntity
  8
0
 62
3
100
AcDbLine
 10
254.0
 20
78.89999999999996
 30
0.0
 11
254.0
 21
47.49999999997962
 31
0.0
  0
INSERT
  5
17A
330
175
100
AcDbEntity
  8
1
 62
3
100
AcDbBlockReference
  2
_OPEN30
 10
166.0
 20
49.49999999997962
 30
0.0
 41
3.0
 42
3.0
 50
180.0
  0
INSERT
  5
17C
330
175
100
AcDbEntity
  8
1
 62
3
100
AcDbBlockReference
  2
_OPEN30
 10
254.0
 20
49.49999999997962
 30
0.0
 41
3.0
 42
3.0
  0
LINE
  5
17E
330
175
100
AcDbEntity
  8
0
 62
3
100
AcDbLine
 10
169.0
 20
49.49999999997962
 30
0.0
 11
251.0
 21
49.49999999997962
 31
0.0
  0
MTEXT
  5
17F
330
175
100
AcDbEntity
  8
1
 62
7
100
AcDbMText
 10
210.0
 20
51.99999999997962
 30
0.0
 40
4.0
 71
5
  1
88
  7
VF003
  0
POINT
  5
180
330
175
100
AcDbEntity
  8
Defpoints
100
AcDbPoint
 10
166.0
 20
49.49999999997962
 30
0.0
  0
POINT
  5
181
330
175
100
AcDbEntity
  8
Defpoints
100
AcDbPoint
 10
166.0
 20
76.69999999999996
 30
0.0
  0
POINT
  5
182
330
175
100
AcDbEntity
  8
Defpoints
100
AcDbPoint
 10
254.0
 20
79.89999999999996
 30
0.0
  0
ENDBLK
  5
177
330
175
100
AcDbEntity
  8
0
100
AcDbBlockEnd
  0
BLOCK
  5
186
330
185
100
AcDbEntity
  8
0
100
AcDbBlockBegin
  2
*D2
 70
1
 10
0.0
 20
0.0
 30
0.0
  3
*D2
  1

  0
LINE
  5
188
330
185
100
AcDbEntity
  8
0
 62
3
100
AcDbLine
 10
166.0
 20
75.69999999999996
 30
0.0
 11
166.0
 21
55.49999999997962
 31
0.0
  0
LINE
  5
189
330
185
100
AcDbEntity
  8
0
 62
3
100
AcDbLine
 10
209.0
 20
75.69999999999996
 30
0.0
 11
209.0
 21
55.49999999997962
 31
0.0
  0
INSERT
  5
18A
330
185
100
AcDbEntity
  8
1
 62
3
100
AcDbBlockReference
  2
_OPEN30
 10
166.0
 20
57.49999999997962
 30
0.0
 41
3.0
 42
3.0
 50
180.0
  0
INSERT
  5
18C
330
185
100
AcDbEntity
  8
1
 62
3
100
AcDbBlockReference
  2
_OPEN30
 10
209.0
 20
57.49999999997962
 30
0.0
 41
3.0
 42
3.0
  0
LINE
  5
18E
330
185
100
AcDbEntity
  8
0
 62
3
100
AcDbLine
 10
169.0
 20
57.49999999997962
 30
0.0
 11
206.0
 21
57.49999999997962
 31
0.0
  0
MTEXT
  5
18F
330
185
100
AcDbEntity
  8
1
 62
7
100
AcDbMText
 10
187.5
 20
59.99999999997962
 30
0.0
 40
4.0
 71
5
  1
43
  7
VF003
  0
POINT
  5
190
330
185
100
AcDbEntity
  8
Defpoints
100
AcDbPoint
 10
166.0
 20
57.49999999997962
 30
0.0
  0
POINT
  5
191
330
185
100
AcDbEntity
  8
Defpoints
100
AcDbPoint
 10
166.0
 20
76.69999999999996
 30
0.0
  0
POINT
  5
192
330
185
100
AcDbEntity
  8
Defpoints
100
AcDbPoint
 10
209.0
 20
76.69999999999996
 30
0.0
  0
ENDBLK
  5
187
330
185
100
AcDbEntity
  8
0
100
AcDbBlockEnd
  0
BLOCK
  5
196
330
195
100
AcDbEntity
  8
0
100
AcDbBlockBegin
  2
*D3
 70
1
 10
0.0
 20
0.0
 30
0.0
  3
*D3
  1

  0
LINE
  5
198
330
195
100
AcDbEntity
  8
0
 62
3
100
AcDbLine
 10
209.0
 20
75.69999999999996
 30
0.0
 11
209.0
 21
55.49999999997962
 31
0.0
  0
LINE
  5
199
330
195
100
AcDbEntity
  8
0
 62
3
100
AcDbLine
 10
254.0
 20
78.89999999999996
 30
0.0
 11
254.0
 21
55.49999999997962
 31
0.0
  0
INSERT
  5
19A
330
195
100
AcDbEntity
  8
1
 62
3
100
AcDbBlockReference
  2
_OPEN30
 10
209.0
 20
57.49999999997962
 30
0.0
 41
3.0
 42
3.0
 50
180.0
  0
INSERT
  5
19C
330
195
100
AcDbEntity
  8
1
 62
3
100
AcDbBlockReference
  2
_OPEN30
 10
254.0
 20
57.49999999997962
 30
0.0
 41
3.0
 42
3.0
  0
LINE
  5
19E
330
195
100
AcDbEntity
  8
0
 62
3
100
AcDbLine
 10
212.0
 20
57.49999999997962
 30
0.0
 11
251.0
 21
57.49999999997962
 31
0.0
  0
MTEXT
  5
19F
330
195
100
AcDbEntity
  8
1
 62
7
100
AcDbMText
 10
231.5
 20
59.99999999997962
 30
0.0
 40
4.0
 71
5
  1
45
  7
VF003
  0
POINT
  5
1A0
330
195
100
AcDbEntity
  8
Defpoints
100
AcDbPoint
 10
209.0
 20
57.49999999997962
 30
0.0
  0
POINT
  5
1A1
330
195
100
AcDbEntity
  8
Defpoints
100
AcDbPoint
 10
209.0
 20
76.69999999999996
 30
0.0
  0
POINT
  5
1A2
330
195
100
AcDbEntity
  8
Defpoints
100
AcDbPoint
 10
254.0
 20
79.89999999999996
 30
0.0
  0
ENDBLK
  5
197
330
195
100
AcDbEntity
  8
0
100
AcDbBlockEnd
  0
BLOCK
  5
1A6
330
1A5
100
AcDbEntity
  8
0
100
AcDbBlockBegin
  2
*D4
 70
1
 10
0.0
 20
0.0
 30
0.0
  3
*D4
  1

  0
LINE
  5
1A8
330
1A5
100
AcDbEntity
  8
0
 62
3
100
AcDbLine
 10
166.0
 20
204.29999999999998
 30
0.0
 11
166.0
 21
39.49999999997962
 31
0.0
  0
LINE
  5
1A9
330
1A5
100
AcDbEntity
  8
0
 62
3
100
AcDbLine
 10
211.0
 20
204.29999999999998
 30
0.0
 11
211.0
 21
39.49999999997962
 31
0.0
  0
INSERT
  5
1AA
330
1A5
100
AcDbEntity
  8
1
 62
3
100
AcDbBlockReference
  2
_OPEN30
 10
166.0
 20
41.49999999997962
 30
0.0
 41
3.0
 42
3.0
 50
180.0
  0
INSERT
  5
1AC
330
1A5
100
AcDbEntity
  8
1
 62
3
100
AcDbBlockReference
  2
_OPEN30
 10
211.0
 20
41.49999999997962
 30
0.0
 41
3.0
 42
3.0
  0
LINE
  5
1AE
330
1A5
100
AcDbEntity
  8
0
 62
3
100
AcDbLine
 10
169.0
 20
41.49999999997962
 30
0.0
 11
208.0
 21
41.49999999997962
 31
0.0
  0
MTEXT
  5
1AF
330
1A5
100
AcDbEntity
  8
1
 62
7
100
AcDbMText
 10
188.5
 20
43.99999999997962
 30
0.0
 40
4.0
 71
5
  1
45
  7
VF003
  0
POINT
  5
1B0
330
1A5
100
AcDbEntity
  8
Defpoints
100
AcDbPoint
 10
166.0
 20
41.49999999997962
 30
0.0
  0
POINT
  5
1B1
330
1A5
100
AcDbEntity
  8
Defpoints
100
AcDbPoint
 10
166.0
 20
205.29999999999998
 30
0.0
  0
POINT
  5
1B2
330
1A5
100
AcDbEntity
  8
Defpoints
100
AcDbPoint
 10
211.0
 20
205.29999999999998
 30
0.0
  0
ENDBLK
  5
1A7
330
1A5
100
AcDbEntity
  8
0
100
AcDbBlockEnd
  0
BLOCK
  5
1B6
330
1B5
100
AcDbEntity
  8
0
100
AcDbBlockBegin
  2
*D5
 70
1
 10
0.0
 20
0.0
 30
0.0
  3
*D5
  1

  0
LINE
  5
1B8
330
1B5
100
AcDbEntity
  8
0
 62
3
100
AcDbLine
 10
253.0
 20
73.49999999999996
 30
0.0
 11
148.00000000003996
 21
73.49999999999996
 31
0.0
  0
LINE
  5
1B9
330
1B5
100
AcDbEntity
  8
0
 62
3
100
AcDbLine
 10
210.0
 20
208.49999999999997
 30
0.0
 11
148.00000000003996
 21
208.49999999999997
 31
0.0
  0
INSERT
  5
1BA
330
1B5
100
AcDbEntity
  8
1
 62
3
100
AcDbBlockReference
  2
_OPEN30
 10
150.00000000003996
 20
73.49999999999996
 30
0.0
 41
3.0
 42
3.0
 50
270.0
  0
INSERT
  5
1BC
330
1B5
100
AcDbEntity
  8
1
 62
3
100
AcDbBlockReference
  2
_OPEN30
 10
150.00000000003996
 20
208.49999999999997
 30
0.0
 41
3.0
 42
3.0
 50
90.0
  0
LINE
  5
1BE
330
1B5
100
AcDbEntity
  8
0
 62
3
100
AcDbLine
 10
150.00000000003996
 20
76.49999999999996
 30
0.0
 11
150.00000000003996
 21
205.49999999999997
 31
0.0
  0
MTEXT
  5
1BF
330
1B5
100
AcDbEntity
  8
1
 62
7
100
AcDbMText
 10
147.50000000003996
 20
140.99999999999994
 30
0.0
 40
4.0
 71
5
  1
135
  7
VF003
 50
90.0
  0
POINT
  5
1C0
330
1B5
100
AcDbEntity
  8
Defpoints
100
AcDbPoint
 10
150.00000000003996
 20
73.49999999999996
 30
0.0
  0
POINT
  5
1C1
330
1B5
100
AcDbEntity
  8
Defpoints
100
AcDbPoint
 10
254.0
 20
73.49999999999996
 30
0.0
  0
POINT
  5
1C2
330
1B5
100
AcDbEntity
  8
Defpoints
100
AcDbPoint
 10
211.0
 20
208.49999999999997
 30
0.0
  0
ENDBLK
  5
1B7
330
1B5
100
AcDbEntity
  8
0
100
AcDbBlockEnd
  0
BLOCK
  5
1C6
330
1C5
100
AcDbEntity
  8
0
100
AcDbBlockBegin
  2
*D6
 70
1
 10
0.0
 20
0.0
 30
0.0
  3
*D6
  1

  0
LINE
  5
1C8
330
1C5
100
AcDbEntity
  8
0
 62
3
100
AcDbLine
 10
253.0
 20
73.49999999999996
 30
0.0
 11
140.00000000003996
 21
73.49999999999996
 31
0.0
  0
LINE
  5
1C9
330
1C5
100
AcDbEntity
  8
0
 62
3
100
AcDbLine
 10
253.0
 20
79.89999999999996
 30
0.0
 11
140.00000000003996
 21
79.89999999999996
 31
0.0
  0
INSERT
  5
1CA
330
1C5
100
AcDbEntity
  8
1
 62
3
100
AcDbBlockReference
  2
_OPEN30
 10
142.00000000003996
 20
73.49999999999996
 30
0.0
 41
3.0
 42
3.0
 50
90.0
  0
INSERT
  5
1CC
330
1C5
100
AcDbEntity
  8
1
 62
3
100
AcDbBlockReference
  2
_OPEN30
 10
142.00000000003996
 20
79.89999999999996
 30
0.0
 41
3.0
 42
3.0
 50
270.0
  0
LINE
  5
1CE
330
1C5
100
AcDbEntity
  8
0
 62
3
100
AcDbLine
 10
142.00000000003996
 20
73.49999999999996
 30
0.0
 11
142.00000000003996
 21
79.89999999999996
 31
0.0
  0
MTEXT
  5
1CF
330
1C5
100
AcDbEntity
  8
1
 62
7
100
AcDbMText
 10
137.50000000003996
 20
76.69999999999996
 30
0.0
 40
4.0
 71
5
  1
6.4
  7
VF003
 50
90.0
  0
POINT
  5
1D0
330
1C5
100
AcDbEntity
  8
Defpoints
100
AcDbPoint
 10
142.00000000003996
 20
73.49999999999996
 30
0.0
  0
POINT
  5
1D1
330
1C5
100
AcDbEntity
  8
Defpoints
100
AcDbPoint
 10
254.0
 20
73.49999999999996
 30
0.0
  0
POINT
  5
1D2
330
1C5
100
AcDbEntity
  8
Defpoints
100
AcDbPoint
 10
254.0
 20
79.89999999999996
 30
0.0
  0
ENDBLK
  5
1C7
330
1C5
100
AcDbEntity
  8
0
100
AcDbBlockEnd
  0
BLOCK
  5
1D6
330
1D5
100
AcDbEntity
  8
0
100
AcDbBlockBegin
  2
*D7
 70
1
 10
0.0
 20
0.0
 30
0.0
  3
*D7
  1

  0
LINE
  5
1D8
330
1D5
100
AcDbEntity
  8
0
 62
3
100
AcDbLine
 10
212.0
 20
205.29999999999998
 30
0.0
 11
272.00000000003996
 21
205.29999999999998
 31
0.0
  0
LINE
  5
1D9
330
1D5
100
AcDbEntity
  8
0
 62
3
100
AcDbLine
 10
212.0
 20
208.49999999999997
 30
0.0
 11
272.00000000003996
 21
208.49999999999997
 31
0.0
  0
INSERT
  5
1DA
330
1D5
100
AcDbEntity
  8
1
 62
3
100
AcDbBlockReference
  2
_OPEN30
 10
270.00000000003996
 20
205.29999999999998
 30
0.0
 41
3.0
 42
3.0
 50
90.0
  0
INSERT
  5
1DC
330
1D5
100
AcDbEntity
  8
1
 62
3
100
AcDbBlockReference
  2
_OPEN30
 10
270.00000000003996
 20
208.49999999999997
 30
0.0
 41
3.0
 42
3.0
 50
270.0
  0
LINE
  5
1DE
330
1D5
100
AcDbEntity
  8
0
 62
3
100
AcDbLine
 10
270.00000000003996
 20
205.29999999999998
 30
0.0
 11
270.00000000003996
 21
208.49999999999997
 31
0.0
  0
MTEXT
  5
1DF
330
1D5
100
AcDbEntity
  8
1
 62
7
100
AcDbMText
 10
265.50000000003996
 20
206.89999999999998
 30
0.0
 40
4.0
 71
5
  1
3.2
  7
VF003
 50
90.0
  0
POINT
  5
1E0
330
1D5
100
AcDbEntity
  8
Defpoints
100
AcDbPoint
 10
270.00000000003996
 20
205.29999999999998
 30
0.0
  0
POINT
  5
1E1
330
1D5
100
AcDbEntity
  8
Defpoints
100
AcDbPoint
 10
211.0
 20
205.29999999999998
 30
0.0
  0
POINT
  5
1E2
330
1D5
100
AcDbEntity
  8
Defpoints
100
AcDbPoint
 10
211.0
 20
208.49999999999997
 30
0.0
  0
ENDBLK
  5
1D7
330
1D5
100
AcDbEntity
  8
0
100
AcDbBlockEnd
  0
BLOCK
  5
1E6
330
1E5
100
AcDbEntity
  8
0
100
AcDbBlockBegin
  2
*D8
 70
1
 10
0.0
 20
0.0
 30
0.0
  3
*D8
  1

  0
INSERT
  5
1E8
330
1E5
100
AcDbEntity
  8
1
 62
3
100
AcDbBlockReference
  2
_OPEN30
 10
166.93725830020304
 20
74.43725830020301
 30
0.0
 41
3.0
 42
3.0
 50
45.0
  0
LINE
  5
1EA
330
1E5
100
AcDbEntity
  8
0
 62
3
100
AcDbLine
 10
169.2
 20
76.69999999999996
 30
0.0
 11
166.93725830020304
 21
74.43725830020301
 31
0.0
  0
LINE
  5
1EB
330
1E5
100
AcDbEntity
  8
0
 62
3
100
AcDbLine
 10
164.8159379566434
 20
72.31593795664337
 30
0.0
 11
155.97710319181158
 21
63.47710319181152
 31
0.0
  0
MTEXT
  5
1EC
330
1E5
100
AcDbEntity
  8
1
 62
7
100
AcDbMText
 10
158.45197692596446
 20
69.48751083189718
 30
0.0
 40
4.0
 71
5
  1
R3.2
  7
VF003
 50
45.0
  0
POINT
  5
1ED
330
1E5
100
AcDbEntity
  8
Defpoints
100
AcDbPoint
 10
169.2
 20
76.69999999999996
 30
0.0
  0
POINT
  5
1EE
330
1E5
100
AcDbEntity
  8
Defpoints
100
AcDbPoint
 10
166.93725830020304
 20
74.43725830020301
 30
0.0
  0
ENDBLK
  5
1E7
330
1E5
100
AcDbEntity
  8
0
100
AcDbBlockEnd
  0
BLOCK
  5
1F2
330
1F1
100
AcDbEntity
  8
0
100
AcDbBlockBegin
  2
*D9
 70
1
 10
0.0
 20
0.0
 30
0.0
  3
*D9
  1

  0
LINE
  5
1F4
330
1F1
100
AcDbEntity
  8
0
 62
3
100
AcDbLine
 10
253.00000000000023
 20
248.49999999999994
 30
0.0
 11
148.00000000003996
 21
248.49999999999994
 31
0.0
  0
LINE
  5
1F5
330
1F1
100
AcDbEntity
  8
0
 62
3
100
AcDbLine
 10
253.00000000000023
 20
223.49999999999994
 30
0.0
 11
148.00000000003996
 21
223.49999999999994
 31
0.0
  0
INSERT
  5
1F6
330
1F1
100
AcDbEntity
  8
1
 62
3
100
AcDbBlockReference
  2
_OPEN30
 10
150.00000000003996
 20
248.49999999999994
 30
0.0
 41
3.0
 42
3.0
 50
270.0
  0
INSERT
  5
1F8
330
1F1
100
AcDbEntity
  8
1
 62
3
100
AcDbBlockReference
  2
_OPEN30
 10
150.00000000003996
 20
223.49999999999994
 30
0.0
 41
3.0
 42
3.0
 50
90.0
  0
LINE
  5
1FA
330
1F1
100
AcDbEntity
  8
0
 62
3
100
AcDbLine
 10
150.00000000003996
 20
251.49999999999994
 30
0.0
 11
150.00000000003996
 21
220.49999999999994
 31
0.0
  0
MTEXT
  5
1FB
330
1F1
100
AcDbEntity
  8
1
 62
7
100
AcDbMText
 10
152.50000000003996
 20
235.99999999999994
 30
0.0
 40
4.0
 71
5
  1
25
  7
VF003
 50
90.0
  0
POINT
  5
1FC
330
1F1
100
AcDbEntity
  8
Defpoints
100
AcDbPoint
 10
150.00000000003996
 20
248.49999999999994
 30
0.0
  0
POINT
  5
1FD
330
1F1
100
AcDbEntity
  8
Defpoints
100
AcDbPoint
 10
254.00000000000023
 20
248.49999999999994
 30
0.0
  0
POINT
  5
1FE
330
1F1
100
AcDbEntity
  8
Defpoints
100
AcDbPoint
 10
254.00000000000023
 20
223.49999999999994
 30
0.0
  0
ENDBLK
  5
1F3
330
1F1
100
AcDbEntity
  8
0
100
AcDbBlockEnd
  0
BLOCK
  5
202
330
201
100
AcDbEntity
  8
0
100
AcDbBlockBegin
  2
*D10
 70
1
 10
0.0
 20
0.0
 30
0.0
  3
*D10
  1

  0
LINE
  5
204
330
201
100
AcDbEntity
  8
0
 62
3
100
AcDbLine
 10
169.19999999999976
 20
224.49999999999994
 30
0.0
 11
169.19999999999976
 21
274.4999999999999
 31
0.0
  0
LINE
  5
205
330
201
100
AcDbEntity
  8
0
 62
3
100
AcDbLine
 10
165.99999999999977
 20
224.49999999999994
 30
0.0
 11
165.99999999999977
 21
274.4999999999999
 31
0.0
  0
INSERT
  5
206
330
201
100
AcDbEntity
  8
1
 62
3
100
AcDbBlockReference
  2
_OPEN30
 10
169.19999999999976
 20
272.4999999999999
 30
0.0
 41
3.0
 42
3.0
  0
INSERT
  5
208
330
201
100
AcDbEntity
  8
1
 62
3
100
AcDbBlockReference
  2
_OPEN30
 10
165.99999999999977
 20
272.4999999999999
 30
0.0
 41
3.0
 42
3.0
 50
180.0
  0
LINE
  5
20A
330
201
100
AcDbEntity
  8
0
 62
3
100
AcDbLine
 10
169.19999999999976
 20
272.4999999999999
 30
0.0
 11
165.99999999999977
 21
272.4999999999999
 31
0.0
  0
MTEXT
  5
20B
330
201
100
AcDbEntity
  8
1
 62
7
100
AcDbMText
 10
167.59999999999977
 20
267.9999999999999
 30
0.0
 40
4.0
 71
5
  1
3.2
  7
VF003
  0
POINT
  5
20C
330
201
100
AcDbEntity
  8
Defpoints
100
AcDbPoint
 10
169.19999999999976
 20
272.4999999999999
 30
0.0
  0
POINT
  5
20D
330
201
100
AcDbEntity
  8
Defpoints
100
AcDbPoint
 10
169.19999999999976
 20
223.49999999999994
 30
0.0
  0
POINT
  5
20E
330
201
100
AcDbEntity
  8
Defpoints
100
AcDbPoint
 10
165.99999999999977
 20
223.49999999999994
 30
0.0
  0
ENDBLK
  5
203
330
201
100
AcDbEntity
  8
0
100
AcDbBlockEnd
  0
BLOCK
  5
212
330
211
100
AcDbEntity
  8
0
100
AcDbBlockBegin
  2
*D11
 70
1
 10
0.0
 20
0.0
 30
0.0
  3
*D11
  1

  0
LINE
  5
214
330
211
100
AcDbEntity
  8
0
 62
3
100
AcDbLine
 10
219.00000000000023
 20
236.99999999999994
 30
0.0
 11
219.00000000000023
 21
266.4999999999999
 31
0.0
  0
LINE
  5
215
330
211
100
AcDbEntity
  8
0
 62
3
100
AcDbLine
 10
239.00000000000023
 20
236.99999999999994
 30
0.0
 11
239.00000000000023
 21
266.4999999999999
 31
0.0
  0
INSERT
  5
216
330
211
100
AcDbEntity
  8
1
 62
3
100
AcDbBlockReference
  2
_OPEN30
 10
219.00000000000023
 20
264.4999999999999
 30
0.0
 41
3.0
 42
3.0
 50
180.0
  0
INSERT
  5
218
330
211
100
AcDbEntity
  8
1
 62
3
100
AcDbBlockReference
  2
_OPEN30
 10
239.00000000000023
 20
264.4999999999999
 30
0.0
 41
3.0
 42
3.0
  0
LINE
  5
21A
330
211
100
AcDbEntity
  8
0
 62
3
100
AcDbLine
 10
222.00000000000023
 20
264.4999999999999
 30
0.0
 11
236.00000000000023
 21
264.4999999999999
 31
0.0
  0
MTEXT
  5
21B
330
211
100
AcDbEntity
  8
1
 62
7
100
AcDbMText
 10
229.00000000000023
 20
266.9999999999999
 30
0.0
 40
4.0
 71
5
  1
20
  7
VF003
  0
POINT
  5
21C
330
211
100
AcDbEntity
  8
Defpoints
100
AcDbPoint
 10
219.00000000000023
 20
264.4999999999999
 30
0.0
  0
POINT
  5
21D
330
211
100
AcDbEntity
  8
Defpoints
100
AcDbPoint
 10
219.00000000000023
 20
235.99999999999994
 30
0.0
  0
POINT
  5
21E
330
211
100
AcDbEntity
  8
Defpoints
100
AcDbPoint
 10
239.00000000000023
 20
235.99999999999994
 30
0.0
  0
ENDBLK
  5
213
330
211
100
AcDbEntity
  8
0
100
AcDbBlockEnd
  0
BLOCK
  5
222
330
221
100
AcDbEntity
  8
0
100
AcDbBlockBegin
  2
*D12
 70
1
 10
0.0
 20
0.0
 30
0.0
  3
*D12
  1

  0
LINE
  5
224
330
221
100
AcDbEntity
  8
0
 62
3
100
AcDbLine
 10
239.00000000000023
 20
236.99999999999994
 30
0.0
 11
239.00000000000023
 21
266.4999999999999
 31
0.0
  0
LINE
  5
225
330
221
100
AcDbEntity
  8
0
 62
3
100
AcDbLine
 10
254.00000000000023
 20
224.49999999999994
 30
0.0
 11
254.00000000000023
 21
266.4999999999999
 31
0.0
  0
INSERT
  5
226
330
221
100
AcDbEntity
  8
1
 62
3
100
AcDbBlockReference
  2
_OPEN30
 10
239.00000000000023
 20
264.4999999999999
 30
0.0
 41
3.0
 42
3.0
 50
180.0
  0
INSERT
  5
228
330
221
100
AcDbEntity
  8
1
 62
3
100
AcDbBlockReference
  2
_OPEN30
 10
254.00000000000023
 20
264.4999999999999
 30
0.0
 41
3.0
 42
3.0
  0
LINE
  5
22A
330
221
100
AcDbEntity
  8
0
 62
3
100
AcDbLine
 10
242.00000000000023
 20
264.4999999999999
 30
0.0
 11
251.00000000000023
 21
264.4999999999999
 31
0.0
  0
MTEXT
  5
22B
330
221
100
AcDbEntity
  8
1
 62
7
100
AcDbMText
 10
246.50000000000023
 20
266.9999999999999
 30
0.0
 40
4.0
 71
5
  1
15
  7
VF003
  0
POINT
  5
22C
330
221
100
AcDbEntity
  8
Defpoints
100
AcDbPoint
 10
239.00000000000023
 20
264.4999999999999
 30
0.0
  0
POINT
  5
22D
330
221
100
AcDbEntity
  8
Defpoints
100
AcDbPoint
 10
239.00000000000023
 20
235.99999999999994
 30
0.0
  0
POINT
  5
22E
330
221
100
AcDbEntity
  8
Defpoints
100
AcDbPoint
 10
254.00000000000023
 20
223.49999999999994
 30
0.0
  0
ENDBLK
  5
223
330
221
100
AcDbEntity
  8
0
100
AcDbBlockEnd
  0
ENDSEC
  0
SECTION
  2
ENTITIES
  0
LWPOLYLINE
  5
31
330
17
100
AcDbEntity
  8
1
  6
CONTINUOUS
 62
7
370
20
100
AcDbPolyline
 90
4
 70
1
 10
5.0
 20
292.0
 10
5.0
 20
5.0
 10
415.0
 20
5.0
 10
415.0
 20
292.0
  0
LINE
  5
32
330
17
100
AcDbEntity
  8
254
  6
CONTINUOUS
 62
3
370
9
100
AcDbLine
 10
325.18000713133
 20
4.9999999999998
 30
0.0
 11
325.18000713133
 21
18.122
 31
0.0
  0
LINE
  5
33
330
17
100
AcDbEntity
  8
254
  6
CONTINUOUS
 62
3
370
9
100
AcDbLine
 10
325.18000713133
 20
18.122
 30
0.0
 11
415.0
 21
18.122
 31
0.0
  0
MTEXT
  5
34
330
17
100
AcDbEntity
  8
254
 62
3
370
9
100
AcDbMText
 10
354.47071050214
 20
20.913826357749
 30
0.0
 40
2.916
 41
0.0
 71
5
  1
\T1.500000;ïîïiñºÅiå^éÆÅj
  7
GMM001
 44
0.79999984000003
  0
MTEXT
  5
35
330
17
100
AcDbEntity
  8
254
 62
3
370
9
100
AcDbMText
 10
384.36838887415
 20
20.913826357749
 30
0.0
 40
2.916
 41
0.0
 71
5
  1
\T1.000000;ÉÅÅ[ÉJÅ[
  7
GMM001
 44
0.79999984000003
  0
MTEXT
  5
36
330
17
100
AcDbEntity
  8
254
 62
3
370
9
100
AcDbMText
 10
406.97447618747
 20
20.913826357749
 30
0.0
 40
2.916
 41
0.0
 71
5
  1
\T1.000000;îıçl
  7
GMM001
 44
0.79999984000003
  0
LINE
  5
37
330
17
100
AcDbEntity
  8
254
  6
CONTINUOUS
 62
3
370
9
100
AcDbLine
 10
325.18000713133
 20
23.5895
 30
0.0
 11
415.0
 21
23.5895
 31
0.0
  0
LINE
  5
38
330
17
100
AcDbEntity
  8
254
  6
CONTINUOUS
 62
3
370
9
100
AcDbLine
 10
398.08000713133
 20
18.122
 30
0.0
 11
398.08000713133
 21
23.5895
 31
0.0
  0
LINE
  5
39
330
17
100
AcDbEntity
  8
254
  6
CONTINUOUS
 62
3
370
9
100
AcDbLine
 10
391.51900713133
 20
18.122
 30
0.0
 11
391.51900713133
 21
23.5895
 31
0.0
  0
LINE
  5
3A
330
17
100
AcDbEntity
  8
254
  6
CONTINUOUS
 62
3
370
9
100
AcDbLine
 10
376.21000713133
 20
18.122
 30
0.0
 11
376.21000713133
 21
23.5895
 31
0.0
  0
LINE
  5
3B
330
17
100
AcDbEntity
  8
254
  6
CONTINUOUS
 62
3
370
9
100
AcDbLine
 10
332.47000713133
 20
18.122
 30
0.0
 11
332.47000713133
 21
23.5895
 31
0.0
  0
LINE
  5
3C
330
17
100
AcDbEntity
  8
254
  6
CONTINUOUS
 62
3
370
9
100
AcDbLine
 10
325.18000713133
 20
18.122
 30
0.0
 11
325.18000713133
 21
23.5895
 31
0.0
  0
MTEXT
  5
3D
330
17
100
AcDbEntity
  8
254
 62
3
370
9
100
AcDbMText
 10
325.91897077517
 20
19.561222878301
 30
0.0
 40
2.916
 41
0.0
 71
7
  1
\T1.000000;ïiî‘
  7
GMM001
 44
0.79999984000003
  0
MTEXT
  5
3E
330
17
100
AcDbEntity
  8
254
 62
7
370
20
100
AcDbMText
 10
360.49798976328
 20
11.631430728461
 30
0.0
 40
5.5662694627463
 41
0.0
 71
4
  1
\T1.000000;ÉâÉCÉìÉèÅ|ÉNÉX
  7
GMM001
 44
0.79999984000003
  0
MTEXT
  5
3F
330
17
100
AcDbEntity
  8
254
 62
7
370
20
100
AcDbMText
 10
352.94784324569
 20
12.052597702861
 30
0.0
 40
3.3397616776478
 41
0.0
 71
4
  1
{\T1.000000;äîéÆ}\P{\T1.000000;âÔé–}
  7
GMM001
 44
0.79999984000003
  0
LINE
  5
40
330
17
100
AcDbEntity
  8
254
  6
CONTINUOUS
 62
3
370
9
100
AcDbLine
 10
398.08000713133
 20
23.5895
 30
0.0
 11
398.08000713133
 21
28.5895
 31
0.0
  0
LINE
  5
41
330
17
100
AcDbEntity
  8
254
  6
CONTINUOUS
 62
3
370
9
100
AcDbLine
 10
391.51900713133
 20
23.5895
 30
0.0
 11
391.51900713133
 21
28.5895
 31
0.0
  0
LINE
  5
42
330
17
100
AcDbEntity
  8
254
  6
CONTINUOUS
 62
3
370
9
100
AcDbLine
 10
376.21000713133
 20
23.5895
 30
0.0
 11
376.21000713133
 21
28.5895
 31
0.0
  0
LINE
  5
43
330
17
100
AcDbEntity
  8
254
  6
CONTINUOUS
 62
3
370
9
100
AcDbLine
 10
332.47000713133
 20
23.5895
 30
0.0
 11
332.47000713133
 21
28.5895
 31
0.0
  0
LINE
  5
44
330
17
100
AcDbEntity
  8
254
  6
CONTINUOUS
 62
3
370
9
100
AcDbLine
 10
325.18000713133
 20
23.5895
 30
0.0
 11
325.18000713133
 21
28.5895
 31
0.0
  0
MTEXT
  5
45
330
17
100
AcDbEntity
  8
254
 62
3
370
9
100
AcDbMText
 10
391.83137173292
 20
19.561222878301
 30
0.0
 40
2.916
 41
0.0
 71
7
  1
\T1.000000;å¬êî
  7
GMM001
 44
0.79999984000003
  0
LINE
  5
46
330
17
100
AcDbEntity
  8
1
  6
CONTINUOUS
 62
3
370
9
100
AcDbLine
 10
325.18000713133
 20
25.412
 30
0.0
 11
325.18000713133
 21
4.9999999999998
 31
0.0
  0
MTEXT
  5
47
330
17
100
AcDbEntity
  8
254
 62
3
370
9
100
AcDbMText
 10
319.11745461417
 20
13.591878580434
 30
0.0
 40
2.5274464285714
 41
0.0
 71
7
  1
\T1.000000;REV
  7
GMM004
 44
0.79999984000003
  0
MTEXT
  5
48
330
17
100
AcDbEntity
  8
254
 62
3
370
9
100
AcDbMText
 10
319.11745461417
 20
25.457656387089
 30
0.0
 40
2.5274464285714
 41
0.0
 71
7
  1
\T1.000000;REV
  7
GMM004
 44
0.79999984000003
  0
LINE
  5
49
330
17
100
AcDbEntity
  8
254
  6
CONTINUOUS
 62
3
370
9
100
AcDbLine
 10
317.59766784561
 20
16.794734368391
 30
0.0
 11
317.59766784561
 21
4.9999999999998
 31
0.0
  0
LINE
  5
4A
330
17
100
AcDbEntity
  8
254
  6
CONTINUOUS
 62
3
370
9
100
AcDbLine
 10
317.59766784561
 20
28.589484368391
 30
0.0
 11
317.59766784561
 21
16.79475
 31
0.0
  0
LINE
  5
4B
330
17
100
AcDbEntity
  8
254
  6
CONTINUOUS
 62
3
370
9
100
AcDbLine
 10
317.59766784561
 20
25.472316071428
 30
0.0
 11
325.18000713133
 21
25.472316071428
 31
0.0
  0
LINE
  5
4C
330
17
100
AcDbEntity
  8
254
  6
CONTINUOUS
 62
3
370
9
100
AcDbLine
 10
317.59766784561
 20
13.677566071429
 30
0.0
 11
325.18000713133
 21
13.677566071429
 31
0.0
  0
LINE
  5
4D
330
17
100
AcDbEntity
  8
254
  6
CONTINUOUS
 62
3
370
9
100
AcDbLine
 10
267.71322795736
 20
16.79475
 30
0.0
 11
325.18000713133
 21
16.79475
 31
0.0
  0
TEXT
  5
4E
330
17
100
AcDbEntity
  8
254
 62
3
370
9
100
AcDbText
 10
270.14932182782
 20
14.45637354981
 30
0.0
 40
3.3699285714286
  1
ê}î‘
  7
STANDARD1
 41
0.75
100
AcDbText
  0
LINE
  5
4F
330
17
100
AcDbEntity
  8
254
  6
CONTINUOUS
 62
3
370
9
100
AcDbLine
 10
267.71322795736
 20
4.9999999999998
 30
0.0
 11
267.71322795736
 21
28.5895
 31
0.0
  0
LINE
  5
50
330
17
100
AcDbEntity
  8
1
  6
CONTINUOUS
 62
3
370
9
100
AcDbLine
 10
267.71322795736
 20
28.5895
 30
0.0
 11
267.71322795736
 21
4.9999999999998
 31
0.0
  0
LINE
  5
51
330
17
100
AcDbEntity
  8
254
  6
CONTINUOUS
 62
3
370
9
100
AcDbLine
 10
273.18936188593
 20
4.9999999999998
 30
0.0
 11
273.18936188593
 21
16.79475
 31
0.0
  0
LINE
  5
52
330
17
100
AcDbEntity
  8
254
  6
CONTINUOUS
 62
3
370
9
100
AcDbLine
 10
273.18936188593
 20
16.79475
 30
0.0
 11
273.18936188593
 21
28.5895
 31
0.0
  0
TEXT
  5
53
330
17
100
AcDbEntity
  8
254
 62
3
370
9
100
AcDbText
 10
270.14932182782
 20
27.712778419251
 30
0.0
 40
2.5274464285714
  1
êªçÏî‘çÜ
  7
STANDARD1
100
AcDbText
  0
MTEXT
  5
54
330
17
100
AcDbEntity
  8
254
 62
7
370
20
100
AcDbMText
 10
267.09039456035
 20
6.2412531331843
 30
0.0
 40
4.6226729374878
 41
0.0
 71
9
  1
\T1.000000;ÇãÇá
  7
GMM007
 44
0.79999984000003
  0
LINE
  5
55
330
17
100
AcDbEntity
  8
254
  6
CONTINUOUS
 62
3
370
9
100
AcDbLine
 10
217.16311492467
 20
28.5895
 30
0.0
 11
325.18000713133
 21
28.5895
 31
0.0
  0
LINE
  5
56
330
17
100
AcDbEntity
  8
254
  6
CONTINUOUS
 62
3
370
9
100
AcDbLine
 10
166.43737735483
 20
4.9999999999998
 30
0.0
 11
166.43737735483
 21
12.815804374491
 31
0.0
  0
LINE
  5
57
330
17
100
AcDbEntity
  8
254
  6
CONTINUOUS
 62
3
370
9
100
AcDbLine
 10
166.43737735483
 20
12.815804374491
 30
0.0
 11
166.43737735483
 21
20.631608748982
 31
0.0
  0
LINE
  5
58
330
17
100
AcDbEntity
  8
254
  6
CONTINUOUS
 62
3
370
9
100
AcDbLine
 10
223.30492199768
 20
4.9999999999998
 30
0.0
 11
223.30492199768
 21
28.5895
 31
0.0
  0
LINE
  5
59
330
17
100
AcDbEntity
  8
254
  6
CONTINUOUS
 62
7
370
20
100
AcDbLine
 10
217.82878806911
 20
4.9999999999998
 30
0.0
 11
217.82878806911
 21
28.5895
 31
0.0
  0
LINE
  5
5A
330
17
100
AcDbEntity
  8
254
  6
CONTINUOUS
 62
3
370
9
100
AcDbLine
 10
217.82878806911
 20
4.9999999999998
 30
0.0
 11
217.82878806911
 21
28.5895
 31
0.0
  0
TEXT
  5
5B
330
17
100
AcDbEntity
  8
254
 62
3
370
9
100
AcDbText
 10
220.2355970388
 20
27.408725253101
 30
0.0
 40
2.5274464285714
  1
ïiñº
  7
STANDARD1
100
AcDbText
  0
LINE
  5
5C
330
17
100
AcDbEntity
  8
1
  6
CONTINUOUS
 62
3
370
9
100
AcDbLine
 10
217.82878806911
 20
28.5895
 30
0.0
 11
202.24286842626
 21
28.5895
 31
0.0
  0
LINE
  5
5D
330
17
100
AcDbEntity
  8
254
  6
CONTINUOUS
 62
3
370
9
100
AcDbLine
 10
166.43737735483
 20
20.631608748982
 30
0.0
 11
166.43737735483
 21
28.5895
 31
0.0
  0
LINE
  5
5E
330
17
100
AcDbEntity
  8
1
  6
CONTINUOUS
 62
3
370
9
100
AcDbLine
 10
166.43737735483
 20
28.5895
 30
0.0
 11
202.24286842626
 21
28.5895
 31
0.0
  0
LINE
  5
5F
330
17
100
AcDbEntity
  8
254
  6
CONTINUOUS
 62
3
370
9
100
AcDbLine
 10
217.82878806911
 20
12.863166666667
 30
0.0
 11
267.71322795736
 21
12.863166666667
 31
0.0
  0
LINE
  5
60
330
17
100
AcDbEntity
  8
254
  6
CONTINUOUS
 62
3
370
9
100
AcDbLine
 10
217.82878806911
 20
20.726333333333
 30
0.0
 11
267.71322795736
 21
20.726333333333
 31
0.0
  0
TEXT
  5
61
330
17
100
AcDbEntity
  8
254
 62
3
370
9
100
AcDbText
 10
220.59281442956
 20
11.80382974045
 30
0.0
 40
2.5274464285714
  1
èdó 
  7
STANDARD1
100
AcDbText
  0
TEXT
  5
62
330
17
100
AcDbEntity
  8
254
 62
3
370
9
100
AcDbText
 10
220.63752676512
 20
20.213063918481
 30
0.0
 40
2.5274464285714
  1
ëïíuñº
  7
STANDARD1
100
AcDbText
  0
LINE
  5
63
330
17
100
AcDbEntity
  8
1
  6
CONTINUOUS
 62
3
370
9
100
AcDbLine
 10
92.759851837957
 20
28.5895
 30
0.0
 11
92.759851837957
 21
4.9999999999998
 31
0.0
  0
LINE
  5
64
330
17
100
AcDbEntity
  8
2
  6
CONTINUOUS
 62
3
370
9
100
AcDbLine
 10
166.43737735483
 20
20.726333333333
 30
0.0
 11
182.02329699768
 21
20.726333333333
 31
0.0
  0
TEXT
  5
65
330
17
100
AcDbEntity
  8
254
 62
3
370
9
100
AcDbText
 10
168.38089831337
 20
27.433909723082
 30
0.0
 40
2.5274464285714
  1
é⁄ìx
  7
STANDARD1
100
AcDbText
  0
LINE
  5
66
330
17
100
AcDbEntity
  8
2
  6
CONTINUOUS
 62
3
370
9
100
AcDbLine
 10
166.43737735483
 20
12.863166666667
 30
0.0
 11
182.02329699768
 21
12.863166666667
 31
0.0
  0
MTEXT
  5
67
330
17
100
AcDbEntity
  8
254
 62
7
370
20
100
AcDbMText
 10
176.4152706333
 20
14.58269282434
 30
0.0
 40
4.2124107142857
 41
0.0
 71
8
  1
\T1.000000;Ç`ÇR
  7
GMM008
 44
0.79999984000003
  0
TEXT
  5
68
330
17
100
AcDbEntity
  8
254
 62
3
370
9
100
AcDbText
 10
168.38089831337
 20
19.757672207458
 30
0.0
 40
2.5274464285714
  1
ê}òg
  7
STANDARD1
100
AcDbText
  0
LINE
  5
69
330
17
100
AcDbEntity
  8
254
  6
CONTINUOUS
 62
3
370
9
100
AcDbLine
 10
170.64978806911
 20
28.5895
 30
0.0
 11
170.64978806911
 21
12.863166666667
 31
0.0
  0
INSERT
  5
6A
330
17
100
AcDbEntity
  8
0
100
AcDbBlockReference
  2
BLOCK004
 10
0.0
 20
0.0
 30
0.0
  0
MTEXT
  5
6C
330
17
100
AcDbEntity
  8
254
 62
3
370
9
100
AcDbMText
 10
170.51077147172
 20
5.3410491057923
 30
0.0
 40
1.8490691749951
 41
0.0
 71
7
  1
\T1.000000;ëÊéOäpñ@
  7
GMM001
 44
0.79999984000003
  0
MTEXT
  5
6D
330
17
100
AcDbEntity
  8
254
 62
7
370
20
100
AcDbMText
 10
191.87839303901
 20
6.9539510936227
 30
0.0
 40
4.2124107142857
 41
0.0
 71
8
  1
\T1.000000;ÅñÅñ
  7
GMM008
 44
0.79999984000003
  0
TEXT
  5
6E
330
17
100
AcDbEntity
  8
254
 62
3
370
9
100
AcDbText
 10
184.02331530209
 20
11.916209053108
 30
0.0
 40
2.5274464285714
  1
êRç∏
  7
STANDARD1
100
AcDbText
  0
TEXT
  5
6F
330
17
100
AcDbEntity
  8
254
 62
3
370
9
100
AcDbText
 10
184.08020453162
 20
19.653144268485
 30
0.0
 40
2.5274464285714
  1
çXêV
  7
STANDARD1
100
AcDbText
  0
LINE
  5
70
330
17
100
AcDbEntity
  8
254
  6
CONTINUOUS
 62
3
370
9
100
AcDbLine
 10
197.60921664054
 20
4.9999999999998
 30
0.0
 11
197.60921664054
 21
12.815804374491
 31
0.0
  0
LINE
  5
71
330
17
100
AcDbEntity
  8
254
  6
CONTINUOUS
 62
3
370
9
100
AcDbLine
 10
197.60921664054
 20
12.815804374491
 30
0.0
 11
197.60921664054
 21
20.631608748982
 31
0.0
  0
LINE
  5
72
330
17
100
AcDbEntity
  8
254
  6
CONTINUOUS
 62
3
370
9
100
AcDbLine
 10
186.23570771197
 20
4.9999999999998
 30
0.0
 11
186.23570771197
 21
12.815804374491
 31
0.0
  0
LINE
  5
73
330
17
100
AcDbEntity
  8
254
  6
CONTINUOUS
 62
3
370
9
100
AcDbLine
 10
186.23570771197
 20
12.815804374491
 30
0.0
 11
186.23570771197
 21
20.631608748982
 31
0.0
  0
TEXT
  5
74
330
17
100
AcDbEntity
  8
254
 62
3
370
9
100
AcDbText
 10
183.96642607257
 20
27.532166360389
 30
0.0
 40
2.5274464285714
  1
êªê}
  7
STANDARD1
100
AcDbText
  0
LINE
  5
75
330
17
100
AcDbEntity
  8
254
  6
CONTINUOUS
 62
3
370
9
100
AcDbLine
 10
197.60921664054
 20
20.631608748982
 30
0.0
 11
197.60921664054
 21
28.5895
 31
0.0
  0
LINE
  5
76
330
17
100
AcDbEntity
  8
254
  6
CONTINUOUS
 62
3
370
9
100
AcDbLine
 10
186.23570771197
 20
20.631608748982
 30
0.0
 11
186.23570771197
 21
28.5895
 31
0.0
  0
LINE
  5
77
330
17
100
AcDbEntity
  8
1
  6
CONTINUOUS
 62
3
370
9
100
AcDbLine
 10
182.02329699768
 20
12.863166666667
 30
0.0
 11
217.82878806911
 21
12.863166666667
 31
0.0
  0
LINE
  5
78
330
17
100
AcDbEntity
  8
1
  6
CONTINUOUS
 62
3
370
9
100
AcDbLine
 10
182.02329699768
 20
20.726333333333
 30
0.0
 11
217.82878806911
 21
20.726333333333
 31
0.0
  0
MTEXT
  5
79
330
17
100
AcDbEntity
  8
254
 62
7
370
20
100
AcDbMText
 10
207.70539689736
 20
6.8592265092718
 30
0.0
 40
4.2124107142857
 41
0.0
 71
8
  1
\T1.000000;ÅñÅñÅDÅñÅñÅDÅñÅñ
  7
GMM009
 44
0.79999984000003
  0
LINE
  5
7A
330
17
100
AcDbEntity
  8
254
  6
CONTINUOUS
 62
3
370
9
100
AcDbLine
 10
181.96979638834
 20
12.815804374491
 30
0.0
 11
181.96979638834
 21
20.631608748982
 31
0.0
  0
LINE
  5
7B
330
17
100
AcDbEntity
  8
254
  6
CONTINUOUS
 62
3
370
9
100
AcDbLine
 10
181.96979638834
 20
20.631608748982
 30
0.0
 11
181.96979638834
 21
28.5895
 31
0.0
  0
LINE
  5
7C
330
17
100
AcDbEntity
  8
254
  6
CONTINUOUS
 62
3
370
9
100
AcDbLine
 10
181.96979638834
 20
4.9999999999998
 30
0.0
 11
181.96979638834
 21
12.815804374491
 31
0.0
  0
INSERT
  5
7D
330
17
100
AcDbEntity
  8
0
100
AcDbBlockReference
  2
BLOCK005
 10
0.0
 20
0.0
 30
0.0
  0
POINT
  5
7F
330
17
100
AcDbEntity
  8
1
 62
3
100
AcDbPoint
 10
415.0
 20
4.9999999999998
 30
0.0
  0
LINE
  5
80
330
17
100
AcDbEntity
  8
254
  6
CONTINUOUS
 62
3
370
9
100
AcDbLine
 10
5.0
 20
5.0
 30
0.0
 11
5.0
 21
11.763017397237
 31
0.0
  0
LINE
  5
81
330
17
100
AcDbEntity
  8
254
  6
CONTINUOUS
 62
3
370
9
100
AcDbLine
 10
5.0
 20
11.804
 30
0.0
 11
5.0
 21
18.567017397237
 31
0.0
  0
INSERT
  5
82
330
17
100
AcDbEntity
  8
0
100
AcDbBlockReference
  2
BLOCK006
 10
0.0
 20
0.0
 30
0.0
  0
LINE
  5
84
330
17
100
AcDbEntity
  8
254
  6
CONTINUOUS
 62
3
370
9
100
AcDbLine
 10
12.898270089286
 20
5.0
 30
0.0
 11
12.898270089286
 21
10.861853280869
 31
0.0
  0
LINE
  5
85
330
17
100
AcDbEntity
  8
254
  6
CONTINUOUS
 62
3
370
9
100
AcDbLine
 10
36.593080357143
 20
5.0
 30
0.0
 11
36.593080357143
 21
10.861853280869
 31
0.0
  0
MTEXT
  5
86
330
17
100
AcDbEntity
  8
254
 62
7
370
20
100
AcDbMText
 10
38.413381681514
 20
12.163600656498
 30
0.0
 40
3.1593080357143
 41
0.0
 71
7
  1
\T1.000000;Åñ
  7
GMM008
 44
0.79999984000003
  0
MTEXT
  5
87
330
17
100
AcDbEntity
  8
254
 62
3
370
9
100
AcDbMText
 10
8.9491350446428
 20
6.4071855891086
 30
0.0
 40
3.1593080357143
 41
0.0
 71
8
  1
\T1.000000;ÇqÇdÇu
  7
GMM008
 44
0.79999984000003
  0
MTEXT
  5
88
330
17
100
AcDbEntity
  8
254
 62
3
370
9
100
AcDbMText
 10
17.227619624579
 20
6.4071855891086
 30
0.0
 40
3.1593080357143
 41
0.0
 71
8
  1
\T1.000000;êªê}
  7
GMM008
 44
0.79999984000003
  0
MTEXT
  5
89
330
17
100
AcDbEntity
  8
254
 62
7
370
20
100
AcDbMText
 10
17.1633359375
 20
12.327316601086
 30
0.0
 40
3.1593080357143
 41
0.0
 71
8
  1
\T1.000000;ÅñÅñ
  7
GMM008
 44
0.79999984000003
  0
LINE
  5
8A
330
17
100
AcDbEntity
  8
254
  6
CONTINUOUS
 62
3
370
9
100
AcDbLine
 10
21.428401785714
 20
10.897375
 30
0.0
 11
21.428401785714
 21
16.759228280869
 31
0.0
  0
LINE
  5
8B
330
17
100
AcDbEntity
  8
254
  6
CONTINUOUS
 62
3
370
9
100
AcDbLine
 10
36.593080357143
 20
10.897375
 30
0.0
 11
36.593080357143
 21
16.759228280869
 31
0.0
  0
LINE
  5
8C
330
17
100
AcDbEntity
  8
254
  6
CONTINUOUS
 62
3
370
9
100
AcDbLine
 10
12.898270089286
 20
10.897375
 30
0.0
 11
12.898270089286
 21
16.759228280869
 31
0.0
  0
MTEXT
  5
8D
330
17
100
AcDbEntity
  8
254
 62
3
370
9
100
AcDbMText
 10
43.315724723913
 20
6.4646750653583
 30
0.0
 40
3.1593080357143
 41
0.0
 71
8
  1
\T1.000000;ïœçXì‡óe
  7
GMM008
 44
0.79999984000003
  0
MTEXT
  5
8E
330
17
100
AcDbEntity
  8
254
 62
7
370
20
100
AcDbMText
 10
29.018366611674
 20
12.327316601086
 30
0.0
 40
3.1593080357143
 41
0.0
 71
8
  1
\T1.000000;ÅñÅñÅDÅñÅñÅDÅñÅñ
  7
GMM015
 44
0.79999984000003
  0
MTEXT
  5
8F
330
17
100
AcDbEntity
  8
254
 62
7
370
20
100
AcDbMText
 10
38.413381681514
 20
18.060975656498
 30
0.0
 40
3.1593080357143
 41
0.0
 71
7
  1
\T1.000000;Åñ
  7
GMM008
 44
0.79999984000003
  0
MTEXT
  5
90
330
17
100
AcDbEntity
  8
254
 62
7
370
20
100
AcDbMText
 10
17.1633359375
 20
18.224691601086
 30
0.0
 40
3.1593080357143
 41
0.0
 71
8
  1
\T1.000000;ÅñÅñ
  7
GMM008
 44
0.79999984000003
  0
LINE
  5
91
330
17
100
AcDbEntity
  8
254
  6
CONTINUOUS
 62
3
370
9
100
AcDbLine
 10
21.428401785714
 20
16.79475
 30
0.0
 11
21.428401785714
 21
22.656603280869
 31
0.0
  0
LINE
  5
92
330
17
100
AcDbEntity
  8
254
  6
CONTINUOUS
 62
3
370
9
100
AcDbLine
 10
36.593080357143
 20
16.79475
 30
0.0
 11
36.593080357143
 21
22.656603280869
 31
0.0
  0
LINE
  5
93
330
17
100
AcDbEntity
  8
254
  6
CONTINUOUS
 62
3
370
9
100
AcDbLine
 10
12.898270089286
 20
16.79475
 30
0.0
 11
12.898270089286
 21
22.656603280869
 31
0.0
  0
MTEXT
  5
94
330
17
100
AcDbEntity
  8
254
 62
7
370
20
100
AcDbMText
 10
29.018366611674
 20
18.224691601086
 30
0.0
 40
3.1593080357143
 41
0.0
 71
8
  1
\T1.000000;ÅñÅñÅDÅñÅñÅDÅñÅñ
  7
GMM015
 44
0.79999984000003
  0
LINE
  5
95
330
17
100
AcDbEntity
  8
254
  6
CONTINUOUS
 62
3
370
9
100
AcDbLine
 10
5.0
 20
10.897375
 30
0.0
 11
92.759851837957
 21
10.897375
 31
0.0
  0
LINE
  5
96
330
17
100
AcDbEntity
  8
254
  6
CONTINUOUS
 62
3
370
9
100
AcDbLine
 10
5.0
 20
16.79475
 30
0.0
 11
92.759851837957
 21
16.79475
 31
0.0
  0
LINE
  5
97
330
17
100
AcDbEntity
  8
254
  6
CONTINUOUS
 62
3
370
9
100
AcDbLine
 10
5.0
 20
22.692125
 30
0.0
 11
92.759851837957
 21
22.692125
 31
0.0
  0
MTEXT
  5
98
330
17
100
AcDbEntity
  8
254
 62
7
370
20
100
AcDbMText
 10
38.413381681514
 20
23.958350656497
 30
0.0
 40
3.1593080357143
 41
0.0
 71
7
  1
\T1.000000;Åñ
  7
GMM008
 44
0.79999984000003
  0
MTEXT
  5
99
330
17
100
AcDbEntity
  8
254
 62
7
370
20
100
AcDbMText
 10
17.1633359375
 20
24.122066601086
 30
0.0
 40
3.1593080357143
 41
0.0
 71
8
  1
\T1.000000;ÅñÅñ
  7
GMM008
 44
0.79999984000003
  0
LINE
  5
9A
330
17
100
AcDbEntity
  8
254
  6
CONTINUOUS
 62
3
370
9
100
AcDbLine
 10
21.428401785714
 20
22.692125
 30
0.0
 11
21.428401785714
 21
28.553978280869
 31
0.0
  0
LINE
  5
9B
330
17
100
AcDbEntity
  8
254
  6
CONTINUOUS
 62
3
370
9
100
AcDbLine
 10
36.593080357143
 20
22.692125
 30
0.0
 11
36.593080357143
 21
28.553978280869
 31
0.0
  0
LINE
  5
9C
330
17
100
AcDbEntity
  8
254
  6
CONTINUOUS
 62
3
370
9
100
AcDbLine
 10
12.898270089286
 20
22.692125
 30
0.0
 11
12.898270089286
 21
28.553978280869
 31
0.0
  0
MTEXT
  5
9D
330
17
100
AcDbEntity
  8
254
 62
7
370
20
100
AcDbMText
 10
29.018366611674
 20
24.122066601086
 30
0.0
 40
3.1593080357143
 41
0.0
 71
8
  1
\T1.000000;ÅñÅñÅDÅñÅñÅDÅñÅñ
  7
GMM015
 44
0.79999984000003
  0
LINE
  5
9E
330
17
100
AcDbEntity
  8
254
  6
CONTINUOUS
 62
3
370
9
100
AcDbLine
 10
5.0
 20
28.5895
 30
0.0
 11
92.759851837957
 21
28.5895
 31
0.0
  0
INSERT
  5
9F
330
17
100
AcDbEntity
  8
0
100
AcDbBlockReference
  2
BLOCK007
 10
0.0
 20
0.0
 30
0.0
  0
LINE
  5
A1
330
17
100
AcDbEntity
  8
254
  6
CONTINUOUS
 62
3
370
9
100
AcDbLine
 10
5.0
 20
18.526034794474
 30
0.0
 11
5.0
 21
28.5895
 31
0.0
  0
LINE
  5
A2
330
17
100
AcDbEntity
  8
254
  6
CONTINUOUS
 62
3
370
9
100
AcDbLine
 10
325.18000713133
 20
28.5895
 30
0.0
 11
415.0
 21
28.5895
 31
0.0
  0
MTEXT
  5
A3
330
17
100
AcDbEntity
  8
254
 62
7
370
20
100
AcDbMText
 10
383.87898754983
 20
24.45606176625
 30
0.0
 40
3.2
 41
0.0
 71
8
  1
\T1.000000;Åñ
  7
GMM003
 44
0.79999984000003
  0
CIRCLE
  5
A4
330
17
100
AcDbEntity
  8
254
  6
CONTINUOUS
 62
3
370
9
100
AcDbCircle
 10
19.323632491628
 20
278.8442948685
 30
0.0
 40
10.0
  0
LINE
  5
13E
330
17
100
AcDbEntity
  8
0
  6
Continuous
 62
7
370
25
100
AcDbLine
 10
169.20000000003995
 20
73.49999999997964
 30
0.0
 11
254.00000000003996
 21
73.49999999997964
 31
0.0
  0
ARC
  5
13F
330
17
100
AcDbEntity
  8
0
  6
Continuous
 62
7
370
25
100
AcDbCircle
 10
169.20000000003995
 20
76.69999999997962
 30
0.0
 40
3.200000000000003
100
AcDbArc
 50
180.0
 51
-90.00000000000001
  0
LINE
  5
140
330
17
100
AcDbEntity
  8
0
  6
Continuous
 62
7
370
25
100
AcDbLine
 10
166.00000000003996
 20
205.29999999997963
 30
0.0
 11
166.00000000003996
 21
76.69999999997962
 31
0.0
  0
ARC
  5
141
330
17
100
AcDbEntity
  8
0
  6
Continuous
 62
7
370
25
100
AcDbCircle
 10
169.20000000003995
 20
205.29999999997963
 30
0.0
 40
3.19999999999996
100
AcDbArc
 50
90.0
 51
180.0
  0
LINE
  5
142
330
17
100
AcDbEntity
  8
0
  6
Continuous
 62
7
370
25
100
AcDbLine
 10
211.00000000003996
 20
208.49999999997962
 30
0.0
 11
169.20000000003995
 21
208.49999999997962
 31
0.0
  0
LINE
  5
143
330
17
100
AcDbEntity
  8
0
  6
Continuous
 62
7
370
25
100
AcDbLine
 10
211.00000000003996
 20
205.29999999997963
 30
0.0
 11
211.00000000003996
 21
208.49999999997962
 31
0.0
  0
LINE
  5
144
330
17
100
AcDbEntity
  8
0
  6
Continuous
 62
7
370
25
100
AcDbLine
 10
169.20000000003995
 20
205.29999999997963
 30
0.0
 11
211.00000000003996
 21
205.29999999997963
 31
0.0
  0
LINE
  5
145
330
17
100
AcDbEntity
  8
0
  6
Continuous
 62
7
370
25
100
AcDbLine
 10
169.20000000003995
 20
76.69999999997962
 30
0.0
 11
169.20000000003995
 21
205.29999999997963
 31
0.0
  0
LINE
  5
146
330
17
100
AcDbEntity
  8
0
  6
Continuous
 62
7
370
25
100
AcDbLine
 10
209.00000000003996
 20
76.69999999997962
 30
0.0
 11
169.20000000003995
 21
76.69999999997962
 31
0.0
  0
LINE
  5
147
330
17
100
AcDbEntity
  8
0
  6
Continuous
 62
7
370
25
100
AcDbLine
 10
209.00000000003996
 20
79.89999999997963
 30
0.0
 11
209.00000000003996
 21
76.69999999997962
 31
0.0
  0
LINE
  5
148
330
17
100
AcDbEntity
  8
0
  6
Continuous
 62
7
370
25
100
AcDbLine
 10
254.00000000003996
 20
79.89999999997963
 30
0.0
 11
209.00000000003996
 21
79.89999999997963
 31
0.0
  0
LINE
  5
149
330
17
100
AcDbEntity
  8
0
  6
Continuous
 62
7
370
25
100
AcDbLine
 10
254.00000000003996
 20
73.49999999997964
 30
0.0
 11
254.00000000003996
 21
79.89999999997963
 31
0.0
  0
LINE
  5
14A
330
17
100
AcDbEntity
  8
0
  6
HIDDEN
 62
7
370
18
100
AcDbLine
 10
235.00000000003996
 20
73.49999999997964
 30
0.0
 11
235.00000000003996
 21
79.89999999997963
 31
0.0
  0
LINE
  5
14B
330
17
100
AcDbEntity
  8
0
  6
HIDDEN
 62
7
370
18
100
AcDbLine
 10
243.00000000003996
 20
73.49999999997964
 30
0.0
 11
243.00000000003996
 21
79.89999999997963
 31
0.0
  0
LINE
  5
14C
330
17
100
AcDbEntity
  8
0
  6
HIDDEN
 62
7
370
18
100
AcDbLine
 10
215.00000000003996
 20
73.49999999997964
 30
0.0
 11
215.00000000003996
 21
79.89999999997963
 31
0.0
  0
LINE
  5
14D
330
17
100
AcDbEntity
  8
0
  6
HIDDEN
 62
7
370
18
100
AcDbLine
 10
223.00000000003996
 20
73.49999999997964
 30
0.0
 11
223.00000000003996
 21
79.89999999997963
 31
0.0
  0
LINE
  5
14E
330
17
100
AcDbEntity
  8
0
  6
Continuous
 62
7
370
25
100
AcDbLine
 10
211.00000000003996
 20
248.4999999999999
 30
0.0
 11
211.00000000003996
 21
223.4999999999999
 31
0.0
  0
LINE
  5
14F
330
17
100
AcDbEntity
  8
0
  6
Continuous
 62
7
370
25
100
AcDbLine
 10
211.00000000003996
 20
248.4999999999999
 30
0.0
 11
169.20000000003995
 21
248.4999999999999
 31
0.0
  0
LINE
  5
150
330
17
100
AcDbEntity
  8
0
  6
Continuous
 62
7
370
25
100
AcDbLine
 10
211.00000000003996
 20
223.4999999999999
 30
0.0
 11
169.20000000003995
 21
223.4999999999999
 31
0.0
  0
LINE
  5
151
330
17
100
AcDbEntity
  8
0
  6
Continuous
 62
7
370
25
100
AcDbLine
 10
166.00000000003996
 20
248.4999999999999
 30
0.0
 11
166.00000000003996
 21
223.4999999999999
 31
0.0
  0
LINE
  5
152
330
17
100
AcDbEntity
  8
0
  6
Continuous
 62
7
370
25
100
AcDbLine
 10
169.20000000003995
 20
248.4999999999999
 30
0.0
 11
166.00000000003996
 21
248.4999999999999
 31
0.0
  0
LINE
  5
153
330
17
100
AcDbEntity
  8
0
  6
Continuous
 62
7
370
25
100
AcDbLine
 10
169.20000000003995
 20
223.4999999999999
 30
0.0
 11
166.00000000003996
 21
223.4999999999999
 31
0.0
  0
ARC
  5
154
330
17
100
AcDbEntity
  8
0
  6
Continuous
 62
7
370
25
100
AcDbCircle
 10
219.00000000003996
 20
235.9999999999999
 30
0.0
 40
4.0
100
AcDbArc
 50
0.0
 51
180.0
  0
ARC
  5
155
330
17
100
AcDbEntity
  8
0
  6
Continuous
 62
7
370
25
100
AcDbCircle
 10
219.00000000003996
 20
235.9999999999999
 30
0.0
 40
4.0
100
AcDbArc
 50
180.0
 51
0.0
  0
ARC
  5
156
330
17
100
AcDbEntity
  8
0
  6
Continuous
 62
7
370
25
100
AcDbCircle
 10
239.00000000003996
 20
235.9999999999999
 30
0.0
 40
4.0
100
AcDbArc
 50
0.0
 51
180.0
  0
ARC
  5
157
330
17
100
AcDbEntity
  8
0
  6
Continuous
 62
7
370
25
100
AcDbCircle
 10
239.00000000003996
 20
235.9999999999999
 30
0.0
 40
4.0
100
AcDbArc
 50
180.0
 51
0.0
  0
LINE
  5
158
330
17
100
AcDbEntity
  8
0
  6
Continuous
 62
7
370
25
100
AcDbLine
 10
254.00000000003996
 20
248.4999999999999
 30
0.0
 11
254.00000000003996
 21
223.4999999999999
 31
0.0
  0
LINE
  5
159
330
17
100
AcDbEntity
  8
0
  6
Continuous
 62
7
370
25
100
AcDbLine
 10
254.00000000003996
 20
248.4999999999999
 30
0.0
 11
211.00000000003996
 21
248.4999999999999
 31
0.0
  0
LINE
  5
15A
330
17
100
AcDbEntity
  8
0
  6
Continuous
 62
7
370
25
100
AcDbLine
 10
254.00000000003996
 20
223.4999999999999
 30
0.0
 11
211.00000000003996
 21
223.4999999999999
 31
0.0
  0
LINE
  5
15B
330
17
100
AcDbEntity
  8
0
  6
HIDDEN
 62
7
370
18
100
AcDbLine
 10
169.20000000003995
 20
248.4999999999999
 30
0.0
 11
169.20000000003995
 21
223.4999999999999
 31
0.0
  0
LINE
  5
15C
330
17
100
AcDbEntity
  8
0
  6
HIDDEN
 62
7
370
18
100
AcDbLine
 10
209.00000000003996
 20
248.4999999999999
 30
0.0
 11
209.00000000003996
 21
223.4999999999999
 31
0.0
  0
MTEXT
  5
15D
330
17
100
AcDbEntity
  8
0
100
AcDbMText
 10
224.477
 20
22.51
 30
0.0
 40
4.2124
 71
7
  1
\T1.000000;éwêj
  7
GMM008
  0
MTEXT
  5
15E
330
17
100
AcDbEntity
  8
0
100
AcDbMText
 10
224.477
 20
14.877
 30
0.0
 40
4.2124
 71
7
  1
\T1.000000;É^Å[Éìé≤
  7
GMM008
  0
MTEXT
  5
15F
330
17
100
AcDbEntity
  8
0
100
AcDbMText
 10
273.605
 20
20.498
 30
0.0
 40
4.2124
 71
7
  1
\T1.000000;ÇQÇTÇPÇTÇSÅ|ÇQÅ|ÇPÇU
  7
GMM008
  0
MTEXT
  5
160
330
17
100
AcDbEntity
  8
0
100
AcDbMText
 10
191.878
 20
22.586
 30
0.0
 40
4.2124
 71
8
  1
\T1.000000;Ç`Çh
  7
GMM008
  0
MTEXT
  5
161
330
17
100
AcDbEntity
  8
0
100
AcDbMText
 10
207.705
 20
22.586
 30
0.0
 40
4.2124
 71
8
  1
\T1.000000;ÇQÇUÅDÇOÇWÅDÇPÇP
  7
GMM009
  0
MTEXT
  5
162
330
17
100
AcDbEntity
  8
0
100
AcDbMText
 10
207.705
 20
14.722
 30
0.0
 40
4.2124
 71
8
  1
\T1.000000;ÅñÅñÅDÅñÅñÅDÅñÅñ
  7
GMM009
  0
MTEXT
  5
164
330
17
100
AcDbEntity
  8
0
100
AcDbMText
 10
176.415
 20
22.446
 30
0.0
 40
4.2124
 71
8
  1
\T1.000000;ÇPÅFÇP
  7
VF001
  0
MTEXT
  5
166
330
17
100
AcDbEntity
  8
0
100
AcDbMText
 10
19.324
 20
275.03
 30
0.0
 40
7.0
 71
8
  1
\T1.000000;ÇPÇU
  7
VF002
  0
MTEXT
  5
167
330
17
100
AcDbEntity
  8
0
100
AcDbMText
 10
33.595
 20
280.001
 30
0.0
 40
7.0
 71
4
  1
\T1.000000;çﬁéøÅ@ÇrÇrÇSÇOÇOÅ@\P\T1.000000;å¬êîÅ@ÇP
  7
VF001
  0
MTEXT
  5
168
330
17
100
AcDbEntity
  8
0
100
AcDbMText
 10
224.593
 20
6.704
 30
0.0
 40
4.2124107142857
 71
7
  1
\T1.000000;ÇOÅDÇPÇX
  7
GMM008
  0
DIMENSION
  5
174
330
17
100
AcDbEntity
  8
1
100
AcDbDimension
  2
*D1
  3
GEN001
 10
166.0
 20
49.49999999997962
 30
0.0
 11
210.0
 21
51.99999999997962
 31
0.0
 70
32
 71
5
  1
<>
100
AcDbAlignedDimension
 13
166.0
 23
76.69999999999996
 33
0.0
 14
254.0
 24
79.89999999999996
 34
0.0
 50
0.0
100
AcDbRotatedDimension
  0
DIMENSION
  5
184
330
17
100
AcDbEntity
  8
1
100
AcDbDimension
  2
*D2
  3
GEN002
 10
166.0
 20
57.49999999997962
 30
0.0
 11
187.5
 21
59.99999999997962
 31
0.0
 70
32
 71
5
  1
<>
100
AcDbAlignedDimension
 13
166.0
 23
76.69999999999996
 33
0.0
 14
209.0
 24
76.69999999999996
 34
0.0
 50
0.0
100
AcDbRotatedDimension
  0
DIMENSION
  5
194
330
17
100
AcDbEntity
  8
1
100
AcDbDimension
  2
*D3
  3
GEN003
 10
209.0
 20
57.49999999997962
 30
0.0
 11
231.5
 21
59.99999999997962
 31
0.0
 70
32
 71
5
  1
<>
100
AcDbAlignedDimension
 13
209.0
 23
76.69999999999996
 33
0.0
 14
254.0
 24
79.89999999999996
 34
0.0
 50
0.0
100
AcDbRotatedDimension
  0
DIMENSION
  5
1A4
330
17
100
AcDbEntity
  8
1
100
AcDbDimension
  2
*D4
  3
GEN004
 10
166.0
 20
41.49999999997962
 30
0.0
 11
188.5
 21
43.99999999997962
 31
0.0
 70
32
 71
5
  1
<>
100
AcDbAlignedDimension
 13
166.0
 23
205.29999999999998
 33
0.0
 14
211.0
 24
205.29999999999998
 34
0.0
 50
0.0
100
AcDbRotatedDimension
  0
DIMENSION
  5
1B4
330
17
100
AcDbEntity
  8
1
100
AcDbDimension
  2
*D5
  3
GEN005
 10
150.00000000003996
 20
73.49999999999996
 30
0.0
 11
147.50000000003996
 21
140.99999999999994
 31
0.0
 70
32
 71
5
  1
<>
100
AcDbAlignedDimension
 13
254.0
 23
73.49999999999996
 33
0.0
 14
211.0
 24
208.49999999999997
 34
0.0
 50
90.0
100
AcDbRotatedDimension
  0
DIMENSION
  5
1C4
330
17
100
AcDbEntity
  8
1
100
AcDbDimension
  2
*D6
  3
GEN006
 10
142.00000000003996
 20
73.49999999999996
 30
0.0
 11
137.50000000003996
 21
76.69999999999996
 31
0.0
 70
32
 71
5
  1
<>
100
AcDbAlignedDimension
 13
254.0
 23
73.49999999999996
 33
0.0
 14
254.0
 24
79.89999999999996
 34
0.0
 50
90.0
100
AcDbRotatedDimension
  0
DIMENSION
  5
1D4
330
17
100
AcDbEntity
  8
1
100
AcDbDimension
  2
*D7
  3
GEN007
 10
270.00000000003996
 20
205.29999999999998
 30
0.0
 11
265.50000000003996
 21
206.89999999999998
 31
0.0
 70
32
 71
5
  1
<>
100
AcDbAlignedDimension
 13
211.0
 23
205.29999999999998
 33
0.0
 14
211.0
 24
208.49999999999997
 34
0.0
 50
90.0
100
AcDbRotatedDimension
  0
DIMENSION
  5
1E4
330
17
100
AcDbEntity
  8
1
100
AcDbDimension
  2
*D8
  3
GEN008
 10
169.2
 20
76.69999999999996
 30
0.0
 11
158.45197692596446
 21
69.48751083189718
 31
0.0
 70
36
 71
5
  1
<>
100
AcDbRadialDimension
 15
166.93725830020304
 25
74.43725830020301
 35
0.0
  0
DIMENSION
  5
1F0
330
17
100
AcDbEntity
  8
1
100
AcDbDimension
  2
*D9
  3
GEN009
 10
150.00000000003996
 20
248.49999999999994
 30
0.0
 11
152.50000000003996
 21
235.99999999999994
 31
0.0
 70
32
 71
5
  1
<>
100
AcDbAlignedDimension
 13
254.00000000000023
 23
248.49999999999994
 33
0.0
 14
254.00000000000023
 24
223.49999999999994
 34
0.0
 50
90.0
100
AcDbRotatedDimension
  0
DIMENSION
  5
200
330
17
100
AcDbEntity
  8
1
100
AcDbDimension
  2
*D10
  3
GEN010
 10
169.19999999999976
 20
272.4999999999999
 30
0.0
 11
167.59999999999977
 21
267.9999999999999
 31
0.0
 70
32
 71
5
  1
<>
100
AcDbAlignedDimension
 13
169.19999999999976
 23
223.49999999999994
 33
0.0
 14
165.99999999999977
 24
223.49999999999994
 34
0.0
 50
0.0
100
AcDbRotatedDimension
  0
DIMENSION
  5
210
330
17
100
AcDbEntity
  8
1
100
AcDbDimension
  2
*D11
  3
GEN011
 10
219.00000000000023
 20
264.4999999999999
 30
0.0
 11
229.00000000000023
 21
266.9999999999999
 31
0.0
 70
32
 71
5
  1
<>
100
AcDbAlignedDimension
 13
219.00000000000023
 23
235.99999999999994
 33
0.0
 14
239.00000000000023
 24
235.99999999999994
 34
0.0
 50
0.0
100
AcDbRotatedDimension
  0
DIMENSION
  5
220
330
17
100
AcDbEntity
  8
1
100
AcDbDimension
  2
*D12
  3
GEN012
 10
239.00000000000023
 20
264.4999999999999
 30
0.0
 11
246.50000000000023
 21
266.9999999999999
 31
0.0
 70
32
 71
5
  1
<>
100
AcDbAlignedDimension
 13
239.00000000000023
 23
235.99999999999994
 33
0.0
 14
254.00000000000023
 24
223.49999999999994
 34
0.0
 50
0.0
100
AcDbRotatedDimension
  0
LEADER
  5
230
330
17
100
AcDbEntity
  8
1
100
AcDbLeader
  3
GENLDR
 73
3
 76
3
 10
243.00000000000023
 20
235.99999999999994
 30
0.0
 10
257.0000000000002
 20
243.99999999999994
 30
0.0
 10
269.0000000000002
 20
243.99999999999994
 30
0.0
  0
MTEXT
  5
231
330
17
100
AcDbEntity
  8
1
100
AcDbMText
 10
270.0000000000002
 20
243.99999999999994
 30
0.0
 40
4.0
 71
7
  1
\A1;ÇQÅ|%%cÇWí Çµ
  7
VF003
  0
MTEXT
  5
232
330
17
100
AcDbEntity
  8
0
100
AcDbMText
 10
290.0
 20
120.0
 30
0.0
 40
3.5
 71
1
  1
íçãLÅD\PÅ@éwé¶ñ≥Ç´äpïîÇÕÇbÇOÅDÇQÅAã˜ïîÇÕÇqÇQà»â∫Ç∆Ç∑ÇÈÅB
  7
VF003
  0
LINE
  5
24E
330
17
100
AcDbEntity
  8
0
  6
DASHDOT
 62
3
100
AcDbLine
 10
219.0
 20
8.0
 30
0.0
 11
219.0
 21
245.0
 31
0.0
  0
LINE
  5
24F
330
17
100
AcDbEntity
  8
0
  6
DASHDOT
 62
3
100
AcDbLine
 10
210.0
 20
236.0
 30
0.0
 11
248.0
 21
236.0
 31
0.0
  0
LINE
  5
250
330
17
100
AcDbEntity
  8
0
  6
DASHDOT
 62
3
100
AcDbLine
 10
239.0
 20
227.0
 30
0.0
 11
239.0
 21
245.0
 31
0.0
  0
LINE
  5
251
330
17
100
AcDbEntity
  8
0
  6
DASHDOT
 62
3
100
AcDbLine
 10
218.99999999999977
 20
68.49999999997964
 30
0.0
 11
218.99999999999977
 21
84.89999999997963
 31
0.0
  0
LINE
  5
252
330
17
100
AcDbEntity
  8
0
  6
DASHDOT
 62
3
100
AcDbLine
 10
238.99999999999977
 20
68.49999999997964
 30
0.0
 11
238.99999999999977
 21
84.89999999997963
 31
0.0
  0
ENDSEC
  0
SECTION
  2
OBJECTS
  0
DICTIONARY
  5
A
330
0
100
AcDbDictionary
281
1
  3
ACAD_COLOR
350
B
  3
ACAD_GROUP
350
C
  3
ACAD_LAYOUT
350
D
  3
ACAD_MATERIAL
350
E
  3
ACAD_MLEADERSTYLE
350
F
  3
ACAD_MLINESTYLE
350
10
  3
ACAD_PLOTSETTINGS
350
11
  3
ACAD_PLOTSTYLENAME
350
12
  3
ACAD_SCALELIST
350
14
  3
ACAD_TABLESTYLE
350
15
  3
ACAD_VISUALSTYLE
350
16
  3
EZDXF_META
350
2D
  0
DICTIONARY
  5
B
330
A
100
AcDbDictionary
281
1
  0
DICTIONARY
  5
C
330
A
100
AcDbDictionary
281
1
  0
DICTIONARY
  5
D
330
A
100
AcDbDictionary
281
1
  3
Model
350
1A
  3
Layout1
350
1E
  0
DICTIONARY
  5
E
330
A
100
AcDbDictionary
281
1
  3
ByBlock
350
1F
  3
ByLayer
350
20
  3
Global
350
21
  0
DICTIONARY
  5
F
330
A
100
AcDbDictionary
281
1
  3
Standard
350
2C
  0
DICTIONARY
  5
10
330
A
100
AcDbDictionary
281
1
  3
Standard
350
22
  0
DICTIONARY
  5
11
330
A
100
AcDbDictionary
281
1
  0
ACDBDICTIONARYWDFLT
  5
12
330
A
100
AcDbDictionary
281
1
  3
Normal
350
13
100
AcDbDictionaryWithDefault
340
13
  0
ACDBPLACEHOLDER
  5
13
330
12
  0
DICTIONARY
  5
14
330
A
100
AcDbDictionary
281
1
  0
DICTIONARY
  5
15
330
A
100
AcDbDictionary
281
1
  0
DICTIONARY
  5
16
330
A
100
AcDbDictionary
281
1
  0
LAYOUT
  5
1A
330
D
100
AcDbPlotSettings
  1

  4
A3
  6

 40
7.5
 41
20.0
 42
7.5
 43
20.0
 44
420.0
 45
297.0
 46
0.0
 47
0.0
 48
0.0
 49
0.0
140
0.0
141
0.0
142
1.0
143
1.0
 70
1024
 72
1
 73
0
 74
5
  7

 75
16
 76
0
 77
2
 78
300
147
1.0
148
0.0
149
0.0
100
AcDbLayout
  1
Model
 70
1
 71
0
 10
0.0
 20
0.0
 11
420.0
 21
297.0
 12
0.0
 22
0.0
 32
0.0
 14
1e+20
 24
1e+20
 34
1e+20
 15
-1e+20
 25
-1e+20
 35
-1e+20
146
0.0
 13
0.0
 23
0.0
 33
0.0
 16
1.0
 26
0.0
 36
0.0
 17
0.0
 27
1.0
 37
0.0
 76
1
330
17
  0
LAYOUT
  5
1E
330
D
100
AcDbPlotSettings
  1

  4
A3
  6

 40
7.5
 41
20.0
 42
7.5
 43
20.0
 44
420.0
 45
297.0
 46
0.0
 47
0.0
 48
0.0
 49
0.0
140
0.0
141
0.0
142
1.0
143
1.0
 70
0
 72
1
 73
0
 74
5
  7

 75
16
 76
0
 77
2
 78
300
147
1.0
148
0.0
149
0.0
100
AcDbLayout
  1
Layout1
 70
1
 71
1
 10
0.0
 20
0.0
 11
420.0
 21
297.0
 12
0.0
 22
0.0
 32
0.0
 14
1e+20
 24
1e+20
 34
1e+20
 15
-1e+20
 25
-1e+20
 35
-1e+20
146
0.0
 13
0.0
 23
0.0
 33
0.0
 16
1.0
 26
0.0
 36
0.0
 17
0.0
 27
1.0
 37
0.0
 76
1
330
1B
  0
MATERIAL
  5
1F
102
{ACAD_REACTORS
330
E
102
}
330
E
100
AcDbMaterial
  1
ByBlock
  2

 70
0
 40
1.0
 71
1
 41
1.0
 91
-1023410177
 42
1.0
 72
1
  3

 73
1
 74
1
 75
1
 44
0.5
 73
0
 45
1.0
 46
1.0
 77
1
  4

 78
1
 79
1
170
1
 48
1.0
171
1
  6

172
1
173
1
174
1
140
1.0
141
1.0
175
1
  7

176
1
177
1
178
1
143
1.0
179
1
  8

270
1
271
1
272
1
145
1.0
146
1.0
273
1
  9

274
1
275
1
276
1
 42
1.0
 72
1
  3

 73
1
 74
1
 75
1
 94
63
  0
MATERIAL
  5
20
102
{ACAD_REACTORS
330
E
102
}
330
E
100
AcDbMaterial
  1
ByLayer
  2

 70
0
 40
1.0
 71
1
 41
1.0
 91
-1023410177
 42
1.0
 72
1
  3

 73
1
 74
1
 75
1
 44
0.5
 73
0
 45
1.0
 46
1.0
 77
1
  4

 78
1
 79
1
170
1
 48
1.0
171
1
  6

172
1
173
1
174
1
140
1.0
141
1.0
175
1
  7

176
1
177
1
178
1
143
1.0
179
1
  8

270
1
271
1
272
1
145
1.0
146
1.0
273
1
  9

274
1
275
1
276
1
 42
1.0
 72
1
  3

 73
1
 74
1
 75
1
 94
63
  0
MATERIAL
  5
21
102
{ACAD_REACTORS
330
E
102
}
330
E
100
AcDbMaterial
  1
Global
  2

 70
0
 40
1.0
 71
1
 41
1.0
 91
-1023410177
 42
1.0
 72
1
  3

 73
1
 74
1
 75
1
 44
0.5
 73
0
 45
1.0
 46
1.0
 77
1
  4

 78
1
 79
1
170
1
 48
1.0
171
1
  6

172
1
173
1
174
1
140
1.0
141
1.0
175
1
  7

176
1
177
1
178
1
143
1.0
179
1
  8

270
1
271
1
272
1
145
1.0
146
1.0
273
1
  9

274
1
275
1
276
1
 42
1.0
 72
1
  3

 73
1
 74
1
 75
1
 94
63
  0
MLINESTYLE
  5
22
102
{ACAD_REACTORS
330
10
102
}
330
10
100
AcDbMlineStyle
  2
Standard
 70
0
  3

 62
256
 51
90.0
 52
90.0
 71
2
 49
0.5
 62
256
  6
BYLAYER
 49
-0.5
 62
256
  6
BYLAYER
  0
MLEADERSTYLE
  5
2C
102
{ACAD_REACTORS
330
F
102
}
330
F
100
AcDbMLeaderStyle
179
2
170
2
171
1
172
0
 90
2
 40
0.0
 41
0.0
173
1
 91
-1056964608
 92
-2
290
1
 42
2.0
291
1
 43
8.0
  3
Standard
 44
4.0
300

342
29
174
1
175
1
176
0
178
1
 93
-1056964608
 45
4.0
292
0
297
0
 46
4.0
 94
-1056964608
 47
1.0
 49
1.0
140
1.0
294
1
141
0.0
177
0
142
1.0
295
0
296
0
143
3.75
271
0
272
9
273
9
  0
DICTIONARY
  5
2D
330
A
100
AcDbDictionary
280
1
281
1
  3
CREATED_BY_EZDXF
350
2E
  3
WRITTEN_BY_EZDXF
350
131
  0
DICTIONARYVAR
  5
2E
330
2D
100
DictionaryVariables
280
0
  1
1.4.4 @ 2026-08-09T08:45:52.074753+00:00
  0
DICTIONARYVAR
  5
131
330
2D
100
DictionaryVariables
280
0
  1
1.4.4 @ 2026-08-10T21:17:33.897427+00:00
  0
ENDSEC
  0
EOF
