  0
SECTION
  2
HEADER
  9
$ACADVER
  1
AC1015
  9
$ACADMAINTVER
 70
     6
  9
$DWGCODEPAGE
  3
DOS932
  9
$INSBASE
 10
0.0
 20
0.0
 30
0.0
  9
$EXTMIN
 10
0.0
 20
0.0
 30
0.0
  9
$EXTMAX
 10
841.0
 20
594.0
 30
0.0
  9
$LIMMIN
 10
0.0
 20
0.0
  9
$LIMMAX
 10
841.0
 20
594.0
  9
$ORTHOMODE
 70
     0
  9
$REGENMODE
 70
     1
  9
$FILLMODE
 70
     1
  9
$QTEXTMODE
 70
     0
  9
$MIRRTEXT
 70
     1
  9
$LTSCALE
 40
1.0
  9
$ATTMODE
 70
     1
  9
$TEXTSIZE
 40
3.5
  9
$TRACEWID
 40
1.0
  9
$TEXTSTYLE
  7
Standard
  9
$CLAYER
  8
0
  9
$CELTYPE
  6
ByLayer
  9
$CECOLOR
 62
   256
  9
$CELTSCALE
 40
1.0
  9
$DISPSILH
 70
     0
  9
$DIMSCALE
 40
1.0
  9
$DIMASZ
 40
3.302
  9
$DIMEXO
 40
1.0
  9
$DIMDLI
 40
3.75
  9
$DIMRND
 40
0.0
  9
$DIMDLE
 40
0.0
  9
$DIMEXE
 40
1.0
  9
$DIMTP
 40
0.0
  9
$DIMTM
 40
0.0
  9
$DIMTXT
 40
3.5
  9
$DIMCEN
 40
2.5
  9
$DIMTSZ
 40
0.0
  9
$DIMTOL
 70
     0
  9
$DIMLIM
 70
     0
  9
$DIMTIH
 70
     1
  9
$DIMTOH
 70
     1
  9
$DIMSE1
 70
     0
  9
$DIMSE2
 70
     0
  9
$DIMTAD
 70
     1
  9
$DIMZIN
 70
     1
  9
$DIMBLK
  1

  9
$DIMASO
 70
     1
  9
$DIMSHO
 70
     1
  9
$DIMPOST
  1

  9
$DIMAPOST
  1

  9
$DIMALT
 70
     0
  9
$DIMALTD
 70
     3
  9
$DIMALTF
 40
0.0393700787
  9
$DIMLFAC
 40
0.5
  9
$DIMTOFL
 70
     1
  9
$DIMTVP
 40
0.0
  9
$DIMTIX
 70
     0
  9
$DIMSOXD
 70
     0
  9
$DIMSAH
 70
     0
  9
$DIMBLK1
  1

  9
$DIMBLK2
  1

  9
$DIMSTYLE
  2
ISO-25
  9
$DIMCLRD
 70
     0
  9
$DIMCLRE
 70
     0
  9
$DIMCLRT
 70
     0
  9
$DIMTFAC
 40
1.0
  9
$DIMGAP
 40
1.524
  9
$DIMJUST
 70
     0
  9
$DIMSD1
 70
     0
  9
$DIMSD2
 70
     0
  9
$DIMTOLJ
 70
     0
  9
$DIMTZIN
 70
     1
  9
$DIMALTZ
 70
     0
  9
$DIMALTTZ
 70
     0
  9
$DIMUPT
 70
     0
  9
$DIMDEC
 70
     2
  9
$DIMTDEC
 70
     2
  9
$DIMALTU
 70
     2
  9
$DIMALTTD
 70
     3
  9
$DIMTXSTY
  7
Standard
  9
$DIMAUNIT
 70
     0
  9
$DIMADEC
 70
     2
  9
$DIMALTRND
 40
0.0
  9
$DIMAZIN
 70
     0
  9
$DIMDSEP
 70
    44
  9
$DIMATFIT
 70
     3
  9
$DIMFRAC
 70
     0
  9
$DIMLDRBLK
  1

  9
$DIMLUNIT
 70
     2
  9
$DIMLWD
 70
    -2
  9
$DIMLWE
 70
    -2
  9
$DIMTMOVE
 70
     0
  9
$LUNITS
 70
     2
  9
$LUPREC
 70
     2
  9
$SKETCHINC
 40
1.0
  9
$FILLETRAD
 40
0.0
  9
$AUNITS
 70
     0
  9
$AUPREC
 70
     2
  9
$MENU
  1
.
  9
$ELEVATION
 40
0.0
  9
$PELEVATION
 40
0.0
  9
$THICKNESS
 40
0.0
  9
$LIMCHECK
 70
     0
  9
$CHAMFERA
 40
0.0
  9
$CHAMFERB
 40
0.0
  9
$CHAMFERC
 40
0.0
  9
$CHAMFERD
 40
0.0
  9
$SKPOLY
 70
     0
  9
$TDCREATE
 40
2461263.440641458
  9
$TDUCREATE
 40
2461263.065641458
  9
$TDUPDATE
 40
2461263.440642037
  9
$TDUUPDATE
 40
2461263.065642037
  9
$TDINDWG
 40
0.0000000116
  9
$TDUSRTIMER
 40
0.0000000116
  9
$USRTIMER
 70
     1
  9
$ANGBASE
 50
0.0
  9
$ANGDIR
 70
     0
  9
$PDMODE
 70
     0
  9
$PDSIZE
 40
-1.0
  9
$PLINEWID
 40
0.0
  9
$SPLFRAME
 70
     0
  9
$SPLINETYPE
 70
     6
  9
$SPLINESEGS
 70
     8
  9
$HANDSEED
  5
BA
  9
$SURFTAB1
 70
     6
  9
$SURFTAB2
 70
     6
  9
$SURFTYPE
 70
     6
  9
$SURFU
 70
     6
  9
$SURFV
 70
     6
  9
$UCSBASE
  2

  9
$UCSNAME
  2

  9
$UCSORG
 10
0.0
 20
0.0
 30
0.0
  9
$UCSXDIR
 10
1.0
 20
0.0
 30
0.0
  9
$UCSYDIR
 10
0.0
 20
1.0
 30
0.0
  9
$UCSORTHOREF
  2

  9
$UCSORTHOVIEW
 70
     0
  9
$UCSORGTOP
 10
0.0
 20
0.0
 30
0.0
  9
$UCSORGBOTTOM
 10
0.0
 20
0.0
 30
0.0
  9
$UCSORGLEFT
 10
0.0
 20
0.0
 30
0.0
  9
$UCSORGRIGHT
 10
0.0
 20
0.0
 30
0.0
  9
$UCSORGFRONT
 10
0.0
 20
0.0
 30
0.0
  9
$UCSORGBACK
 10
0.0
 20
0.0
 30
0.0
  9
$PUCSBASE
  2

  9
$PUCSNAME
  2

  9
$PUCSORG
 10
0.0
 20
0.0
 30
0.0
  9
$PUCSXDIR
 10
1.0
 20
0.0
 30
0.0
  9
$PUCSYDIR
 10
0.0
 20
1.0
 30
0.0
  9
$PUCSORTHOREF
  2

  9
$PUCSORTHOVIEW
 70
     0
  9
$PUCSORGTOP
 10
0.0
 20
0.0
 30
0.0
  9
$PUCSORGBOTTOM
 10
0.0
 20
0.0
 30
0.0
  9
$PUCSORGLEFT
 10
0.0
 20
0.0
 30
0.0
  9
$PUCSORGRIGHT
 10
0.0
 20
0.0
 30
0.0
  9
$PUCSORGFRONT
 10
0.0
 20
0.0
 30
0.0
  9
$PUCSORGBACK
 10
0.0
 20
0.0
 30
0.0
  9
$USERI1
 70
     0
  9
$USERI2
 70
     0
  9
$USERI3
 70
     0
  9
$USERI4
 70
     0
  9
$USERI5
 70
     0
  9
$USERR1
 40
0.0
  9
$USERR2
 40
0.0
  9
$USERR3
 40
0.0
  9
$USERR4
 40
0.0
  9
$USERR5
 40
0.0
  9
$WORLDVIEW
 70
     1
  9
$SHADEDGE
 70
     3
  9
$SHADEDIF
 70
    70
  9
$TILEMODE
 70
     1
  9
$MAXACTVP
 70
    64
  9
$PINSBASE
 10
0.0
 20
0.0
 30
0.0
  9
$PLIMCHECK
 70
     0
  9
$PEXTMIN
 10
1.0000000000E+20
 20
1.0000000000E+20
 30
1.0000000000E+20
  9
$PEXTMAX
 10
-1.0000000000E+20
 20
-1.0000000000E+20
 30
-1.0000000000E+20
  9
$PLIMMIN
 10
0.0
 20
0.0
  9
$PLIMMAX
 10
420.0
 20
297.0
  9
$UNITMODE
 70
     0
  9
$VISRETAIN
 70
     1
  9
$PLINEGEN
 70
     0
  9
$PSLTSCALE
 70
     1
  9
$TREEDEPTH
 70
  3020
  9
$CMLSTYLE
  2
Standard
  9
$CMLJUST
 70
     0
  9
$CMLSCALE
 40
20.0
  9
$PROXYGRAPHICS
 70
     1
  9
$MEASUREMENT
 70
     1
  9
$CELWEIGHT
370
    -1
  9
$ENDCAPS
280
     0
  9
$JOINSTYLE
280
     0
  9
$LWDISPLAY
290
     1
  9
$INSUNITS
 70
     4
  9
$HYPERLINKBASE
  1

  9
$STYLESHEET
  1

  9
$XEDIT
290
     1
  9
$CEPSNTYPE
380
     0
  9
$PSTYLEMODE
290
     1
  9
$FINGERPRINTGUID
  2
{e31040c6-304e-459c-a24f-eee2a353f135}
  9
$VERSIONGUID
  2
{FAEB1C32-E019-11D5-929B-00C0DF256EC4}
  9
$EXTNAMES
290
     1
  9
$PSVPSCALE
 40
0.0
  9
$OLESTARTUP
290
     0
  0
ENDSEC
  0
SECTION
  2
CLASSES
  0
CLASS
  1
ACDBDICTIONARYWDFLT
  2
AcDbDictionaryWithDefault
  3
ObjectDBX Classes
 90
        0
280
     0
281
     0
  0
CLASS
  1
VISUALSTYLE
  2
AcDbVisualStyle
  3
ObjectDBX Classes
 90
     4095
280
     0
281
     0
  0
CLASS
  1
MATERIAL
  2
AcDbMaterial
  3
ObjectDBX Classes
 90
     1153
280
     0
281
     0
  0
CLASS
  1
SCALE
  2
AcDbScale
  3
ObjectDBX Classes
 90
     1153
280
     0
281
     0
  0
CLASS
  1
TABLESTYLE
  2
AcDbTableStyle
  3
ObjectDBX Classes
 90
     4095
280
     0
281
     0
  0
CLASS
  1
MLEADERSTYLE
  2
AcDbMLeaderStyle
  3
ACDB_MLEADERSTYLE_CLASS
 90
     4095
280
     0
281
     0
  0
CLASS
  1
SUN
  2
AcDbSun
  3
SCENEOE
 90
     1153
280
     0
281
     0
  0
CLASS
  1
ACDBPLACEHOLDER
  2
AcDbPlaceHolder
  3
ObjectDBX Classes
 90
        0
280
     0
281
     0
  0
CLASS
  1
LAYOUT
  2
AcDbLayout
  3
ObjectDBX Classes
 90
        0
280
     0
281
     0
  0
ENDSEC
  0
SECTION
  2
TABLES
  0
TABLE
  2
VPORT
  5
8
330
0
100
AcDbSymbolTable
 70
     1
  0
VPORT
  5
29
330
8
100
AcDbSymbolTableRecord
100
AcDbViewportTableRecord
  2
*Active
 70
     0
 10
0.0
 20
0.0
 11
1.0
 21
1.0
 12
420.5
 22
297.0
 13
0.0
 23
0.0
 14
10.0
 24
10.0
 15
10.0
 25
10.0
 16
0.0
 26
0.0
 36
1.0
 17
0.0
 27
0.0
 37
0.0
 40
594.0
 41
1.4158249158
 42
50.0
 43
0.0
 44
0.0
 50
0.0
 51
0.0
 71
     0
 72
  2000
 73
     1
 74
     3
 75
     0
 76
     0
 77
     0
 78
     0
281
     0
 65
     1
110
0.0
120
0.0
130
0.0
111
1.0
121
0.0
131
0.0
112
0.0
122
1.0
132
0.0
 79
     0
146
0.0
  0
ENDTAB
  0
TABLE
  2
LTYPE
  5
5
330
0
100
AcDbSymbolTable
 70
     6
  0
LTYPE
  5
14
330
5
100
AcDbSymbolTableRecord
100
AcDbLinetypeTableRecord
  2
ByBlock
 70
     0
  3

 72
    65
 73
     0
 40
0.0
  0
LTYPE
  5
15
330
5
100
AcDbSymbolTableRecord
100
AcDbLinetypeTableRecord
  2
ByLayer
 70
     0
  3

 72
    65
 73
     0
 40
0.0
  0
LTYPE
  5
16
330
5
100
AcDbSymbolTableRecord
100
AcDbLinetypeTableRecord
  2
Continuous
 70
     0
  3
Solid line
 72
    65
 73
     0
 40
0.0
  0
LTYPE
  5
5E
330
5
100
AcDbSymbolTableRecord
100
AcDbLinetypeTableRecord
  2
HIDDEN
 70
     0
  3
Hidden __ __ __ __ __ __ __ __ __ __ __ __ __ __
 72
    65
 73
     2
 40
1.905
 49
1.27
 74
     0
 49
-0.635
 74
     0
  0
LTYPE
  5
5F
330
5
100
AcDbSymbolTableRecord
100
AcDbLinetypeTableRecord
  2
PHANTOM
 70
     0
  3
Phantom ______  __  __  ______  __  __  ______
 72
    65
 73
     6
 40
12.7
 49
6.35
 74
     0
 49
-1.27
 74
     0
 49
1.27
 74
     0
 49
-1.27
 74
     0
 49
1.27
 74
     0
 49
-1.27
 74
     0
  0
LTYPE
  5
60
330
5
100
AcDbSymbolTableRecord
100
AcDbLinetypeTableRecord
  2
CENTER
 70
     0
  3
Center ____ _ ____ _ ____ _ ____ _ ____ _ ____
 72
    65
 73
     4
 40
10.16
 49
6.35
 74
     0
 49
-1.27
 74
     0
 49
1.27
 74
     0
 49
-1.27
 74
     0
  0
LTYPE
  5
61
330
5
100
AcDbSymbolTableRecord
100
AcDbLinetypeTableRecord
  2
CENTERX2
 70
     0
  3
Center (2x) ________  __  ________  __  _____
 72
    65
 73
     4
 40
20.32
 49
12.7
 74
     0
 49
-2.54
 74
     0
 49
2.54
 74
     0
 49
-2.54
 74
     0
  0
LTYPE
  5
62
330
5
100
AcDbSymbolTableRecord
100
AcDbLinetypeTableRecord
  2
DOT2
 70
     0
  3
Dot (.5x) ........................................
 72
    65
 73
     2
 40
0.635
 49
0.0
 74
     0
 49
-0.635
 74
     0
  0
ENDTAB
  0
TABLE
  2
LAYER
  5
2
330
0
100
AcDbSymbolTable
 70
     1
  0
LAYER
  5
10
330
2
100
AcDbSymbolTableRecord
100
AcDbLayerTableRecord
  2
0
 70
     0
 62
     7
  6
Continuous
370
    -3
390
F
  0
ENDTAB
  0
TABLE
  2
STYLE
  5
3
330
0
100
AcDbSymbolTable
 70
     1
  0
STYLE
  5
11
330
3
100
AcDbSymbolTableRecord
100
AcDbTextStyleTableRecord
  2
Standard
 70
     0
 40
0.0
 41
1.0
 50
0.0
 71
     0
 42
3.5
  3
txt
  4
bigfont
  0
ENDTAB
  0
TABLE
  2
VIEW
  5
6
330
0
100
AcDbSymbolTable
 70
     0
  0
ENDTAB
  0
TABLE
  2
UCS
  5
7
330
0
100
AcDbSymbolTable
 70
     0
  0
ENDTAB
  0
TABLE
  2
APPID
  5
9
330
0
100
AcDbSymbolTable
 70
     1
  0
APPID
  5
12
330
9
100
AcDbSymbolTableRecord
100
AcDbRegAppTableRecord
  2
ACAD
 70
     0
  0
ENDTAB
  0
TABLE
  2
DIMSTYLE
  5
A
330
0
100
AcDbSymbolTable
 70
     1
100
AcDbDimStyleTable
  0
DIMSTYLE
105
27
330
A
100
AcDbSymbolTableRecord
100
AcDbDimStyleTableRecord
  2
ISO-25
 70
     0
 41
2.5
 42
0.625
 43
3.75
 44
1.25
 73
     0
 74
     0
 77
     1
 78
     8
140
2.5
141
2.5
143
0.0393700787
147
0.625
171
     3
172
     1
178
     0
271
     2
272
     2
274
     3
278
    44
283
     0
284
     8
340
11
  0
ENDTAB
  0
TABLE
  2
BLOCK_RECORD
  5
1
330
0
100
AcDbSymbolTable
 70
     1
  0
BLOCK_RECORD
  5
1F
330
1
100
AcDbSymbolTableRecord
100
AcDbBlockTableRecord
  2
*Model_Space
340
22
  0
BLOCK_RECORD
  5
1B
330
1
100
AcDbSymbolTableRecord
100
AcDbBlockTableRecord
  2
*Paper_Space
340
1E
  0
BLOCK_RECORD
  5
23
330
1
100
AcDbSymbolTableRecord
100
AcDbBlockTableRecord
  2
*Paper_Space0
340
26
  0
ENDTAB
  0
ENDSEC
  0
SECTION
  2
BLOCKS
  0
BLOCK
  5
20
330
1F
100
AcDbEntity
  8
0
100
AcDbBlockBegin
  2
*Model_Space
 70
     0
 10
0.0
 20
0.0
 30
0.0
  3
*Model_Space
  1

  0
ENDBLK
  5
21
330
1F
100
AcDbEntity
  8
0
100
AcDbBlockEnd
  0
BLOCK
  5
1C
330
1B
100
AcDbEntity
 67
     1
  8
0
100
AcDbBlockBegin
  2
*Paper_Space
 70
     0
 10
0.0
 20
0.0
 30
0.0
  3
*Paper_Space
  1

  0
ENDBLK
  5
1D
330
1B
100
AcDbEntity
 67
     1
  8
0
100
AcDbBlockEnd
  0
BLOCK
  5
24
330
23
100
AcDbEntity
  8
0
100
AcDbBlockBegin
  2
*Paper_Space0
 70
     0
 10
0.0
 20
0.0
 30
0.0
  3
*Paper_Space0
  1

  0
ENDBLK
  5
25
330
23
100
AcDbEntity
  8
0
100
AcDbBlockEnd
  0
ENDSEC
  0
SECTION
  2
ENTITIES
  0
SPLINE
  5
63
330
1F
100
AcDbEntity
  8
0
  6
Continuous
 62
     7
370
    25
100
AcDbSpline
210
0.0
220
0.0
230
1.0
 70
     8
 71
     3
 72
    27
 73
    23
 74
     0
 42
0.00000001
 43
0.00000001
 40
0.0
 40
0.0
 40
0.0
 40
0.0
 40
0.0208481973189663
 40
0.0416533851608544
 40
0.062438029817941
 40
0.0832246641920886
 40
0.1040358147221285
 40
0.1248939284157588
 40
0.1874780724542242
 40
0.2500978779581333
 40
0.3123570342200394
 40
0.3746525175722022
 40
0.4997722488242721
 40
0.6242839869496233
 40
0.6867917486875726
 40
0.7493416887146391
 40
0.8118607467584753
 40
0.8744215510898157
 40
0.9058432214714099
 40
0.9371965455446144
 40
0.968556997449925
 40
1.0
 40
1.0
 40
1.0
 40
1.0
 10
404.0466040729072
 20
233.9713964685839
 30
0.0
 10
404.0455868265158
 20
234.0807194534018
 30
0.0
 10
404.0435544322952
 20
234.2991398915761
 30
0.0
 10
404.027058673669
 20
234.6261992229769
 30
0.0
 10
404.0007087483832
 20
234.9522309837778
 30
0.0
 10
403.9635467923463
 20
235.2772317664813
 30
0.0
 10
403.9158228246773
 20
235.6012091904495
 30
0.0
 10
403.818674433162
 20
236.1390259871489
 30
0.0
 10
403.6338644502598
 20
236.8832072875759
 30
0.0
 10
403.304094688405
 20
237.8095254486132
 30
0.0
 10
402.8869859753864
 20
238.6976082625201
 30
0.0
 10
402.2180107058088
 20
239.8206927197433
 30
0.0
 10
401.1816468412169
 20
241.0917913671946
 30
0.0
 10
399.9176702301505
 20
242.1337790329199
 30
0.0
 10
398.8032058727348
 20
242.8055527924975
 30
0.0
 10
397.9199108618781
 20
243.2250232346181
 30
0.0
 10
397.0000360748239
 20
243.5560847199808
 30
0.0
 10
396.2091735920752
 20
243.754761212175
 30
0.0
 10
395.5667764878324
 20
243.8670346886948
 30
0.0
 10
395.0806515867387
 20
243.9269708066044
 30
0.0
 10
394.5920066181757
 20
243.964475122912
 30
0.0
 10
394.2652314036338
 20
243.9690873325535
 30
0.0
 10
394.1016290350501
 20
243.9713964685839
 30
0.0
  0
LINE
  5
64
330
1F
100
AcDbEntity
  8
0
  6
Continuous
 62
     7
370
    25
100
AcDbLine
 10
404.0466040729
 20
233.9713964686
 30
0.0
 11
404.0466040729
 21
203.9713964686
 31
0.0
  0
SPLINE
  5
65
330
1F
100
AcDbEntity
  8
0
  6
Continuous
 62
     7
370
    25
100
AcDbSpline
210
0.0
220
0.0
230
1.0
 70
     8
 71
     3
 72
    27
 73
    23
 74
     0
 42
0.00000001
 43
0.00000001
 40
0.0
 40
0.0
 40
0.0
 40
0.0
 40
0.0208563055669984
 40
0.0416673064140008
 40
0.0624549220936347
 40
0.0832411461392202
 40
0.104047976497139
 40
0.124897345889378
 40
0.1875006576134945
 40
0.2500936321213147
 40
0.3123734689628658
 40
0.3746426657187151
 40
0.4997710068078306
 40
0.6242315178669846
 40
0.6867811250605597
 40
0.7493412176066616
 40
0.8118416543333761
 40
0.8743630287933316
 40
0.9058059417143501
 40
0.9371747829959162
 40
0.9685469962044838
 40
1.0
 40
1.0
 40
1.0
 40
1.0
 10
394.1016290350501
 20
193.9713964685839
 30
0.0
 10
394.2101426659264
 20
193.9724124796799
 30
0.0
 10
394.4269342109721
 20
193.9744422948606
 30
0.0
 10
394.7515003175227
 20
193.9909187649797
 30
0.0
 10
395.0749889291507
 20
194.0172381643268
 30
0.0
 10
395.3973938047193
 20
194.0543569213434
 30
0.0
 10
395.7187235088579
 20
194.1020240689512
 30
0.0
 10
396.2523035282679
 20
194.1991071173964
 30
0.0
 10
396.9905581931204
 20
194.383810508812
 30
0.0
 10
397.9099864836354
 20
194.7136947825176
 30
0.0
 10
398.791684247572
 20
195.1312139173063
 30
0.0
 10
399.9076204823361
 20
195.801562113118
 30
0.0
 10
401.1718202385335
 20
196.8411653378891
 30
0.0
 10
402.210356982731
 20
198.1116984598588
 30
0.0
 10
402.880811851265
 20
199.2332737239369
 30
0.0
 10
403.2998911244213
 20
200.122954951929
 30
0.0
 10
403.6307931066439
 20
201.0495381422443
 30
0.0
 10
403.8295722593057
 20
201.8464524251717
 30
0.0
 10
403.9420170094034
 20
202.4939675908476
 30
0.0
 10
404.0020824079185
 20
202.9842444043607
 30
0.0
 10
404.03966792665
 20
203.4769943783279
 30
0.0
 10
404.0442900428724
 20
203.8064545478578
 30
0.0
 10
404.0466040729072
 20
203.9713964685839
 30
0.0
  0
LINE
  5
66
330
1F
100
AcDbEntity
  8
0
  6
Continuous
 62
     7
370
    25
100
AcDbLine
 10
293.9915791108
 20
193.9713964686
 30
0.0
 11
394.1016290351
 21
193.9713964686
 31
0.0
  0
SPLINE
  5
67
330
1F
100
AcDbEntity
  8
0
  6
Continuous
 62
     7
370
    25
100
AcDbSpline
210
0.0
220
0.0
230
1.0
 70
     8
 71
     3
 72
    27
 73
    23
 74
     0
 42
0.00000001
 43
0.00000001
 40
0.0
 40
0.0
 40
0.0
 40
0.0
 40
0.0208481973188437
 40
0.0416533851606593
 40
0.0624380298177223
 40
0.0832246641918997
 40
0.104035814722013
 40
0.1248939284157766
 40
0.1874780724545605
 40
0.2500978779581611
 40
0.3123570342223914
 40
0.3746525175722545
 40
0.4997722488243244
 40
0.6242839869496701
 40
0.6867917486950129
 40
0.7493416887145165
 40
0.8118607467606286
 40
0.8744215510897148
 40
0.9058432214729785
 40
0.9371965455467707
 40
0.9685569974515486
 40
1.0
 40
1.0
 40
1.0
 40
1.0
 10
284.0466040729074
 20
203.9713964685839
 30
0.0
 10
284.0476213192988
 20
203.8620734837667
 30
0.0
 10
284.0496537135194
 20
203.6436530455935
 30
0.0
 10
284.0661494721459
 20
203.3165937141937
 30
0.0
 10
284.0924993974316
 20
202.9905619533932
 30
0.0
 10
284.1296613534698
 20
202.6655611706894
 30
0.0
 10
284.177385321138
 20
202.3415837467199
 30
0.0
 10
284.2745337126561
 20
201.8037669500182
 30
0.0
 10
284.4593436955544
 20
201.0595856495895
 30
0.0
 10
284.7891134574178
 20
200.1332674885423
 30
0.0
 10
285.2062221704326
 20
199.2451846746352
 30
0.0
 10
285.8751974400174
 20
198.1221002174159
 30
0.0
 10
286.9115613046012
 20
196.8510015699762
 30
0.0
 10
288.1755379156907
 20
195.809013904214
 30
0.0
 10
289.2900022731245
 20
195.1372401446689
 30
0.0
 10
290.1732972839825
 20
194.7177697025276
 30
0.0
 10
291.0931720710016
 20
194.3867082171807
 30
0.0
 10
291.8840345537592
 20
194.1880317249864
 30
0.0
 10
292.5264316580034
 20
194.0757582484747
 30
0.0
 10
293.0125565591059
 20
194.0158221305642
 30
0.0
 10
293.5012015276608
 20
193.9783178142563
 30
0.0
 10
293.8279767421914
 20
193.9737056046145
 30
0.0
 10
293.9915791107667
 20
193.9713964685839
 30
0.0
  0
LINE
  5
68
330
1F
100
AcDbEntity
  8
0
  6
Continuous
 62
     7
370
    25
100
AcDbLine
 10
284.0466040729
 20
233.9713964686
 30
0.0
 11
284.0466040729
 21
203.9713964686
 31
0.0
  0
SPLINE
  5
69
330
1F
100
AcDbEntity
  8
0
  6
Continuous
 62
     7
370
    25
100
AcDbSpline
210
0.0
220
0.0
230
1.0
 70
     8
 71
     3
 72
    27
 73
    23
 74
     0
 42
0.00000001
 43
0.00000001
 40
0.0
 40
0.0
 40
0.0
 40
0.0
 40
0.020856305559425
 40
0.0416673064018806
 40
0.0624549220800021
 40
0.0832411461271188
 40
0.1040479764896211
 40
0.1248973458893826
 40
0.1875006575999646
 40
0.250093632121475
 40
0.3123734689324756
 40
0.3746426657185105
 40
0.4997710068076648
 40
0.6242315178668553
 40
0.6867811250610057
 40
0.7493412176065767
 40
0.8118416543342857
 40
0.874363028793279
 40
0.905805941714643
 40
0.9371747829963362
 40
0.9685469962048048
 40
1.0
 40
1.0
 40
1.0
 40
1.0
 10
293.9915791107667
 20
243.9713964685839
 30
0.0
 10
293.8830654799299
 20
243.9703804574878
 30
0.0
 10
293.6662739349472
 20
243.9683506423066
 30
0.0
 10
293.3417078284677
 20
243.9518741721866
 30
0.0
 10
293.0182192168636
 20
243.9255547728386
 30
0.0
 10
292.695814341271
 20
243.8884360158217
 30
0.0
 10
292.3744846370614
 20
243.8407688682116
 30
0.0
 10
291.8409046176508
 20
243.7436858198118
 30
0.0
 10
291.1026499527562
 20
243.5589824283995
 30
0.0
 10
290.1832216623869
 20
243.2290981547462
 30
0.0
 10
289.3015238984203
 20
242.811579019869
 30
0.0
 10
288.1855876635806
 20
242.1412308241887
 30
0.0
 10
286.9213879072906
 20
241.1016275992657
 30
0.0
 10
285.882851163084
 20
239.8310944773078
 30
0.0
 10
285.2123962945489
 20
238.709519213229
 30
0.0
 10
284.7933170213926
 20
237.8198379852313
 30
0.0
 10
284.462415039172
 20
236.8932547949184
 30
0.0
 10
284.2636358865096
 20
236.0963405119894
 30
0.0
 10
284.1511911364129
 20
235.4488253463161
 30
0.0
 10
284.0911257378966
 20
234.9585485328014
 30
0.0
 10
284.0535402191647
 20
234.4657985588359
 30
0.0
 10
284.0489181029422
 20
234.1363383893083
 30
0.0
 10
284.0466040729074
 20
233.9713964685839
 30
0.0
  0
SPLINE
  5
6A
330
1F
100
AcDbEntity
  8
0
  6
Continuous
 62
     7
370
    25
100
AcDbSpline
210
0.0
220
0.0
230
1.0
 70
     8
 71
     3
 72
    29
 73
    25
 74
     0
 42
0.00000001
 43
0.00000001
 40
0.0
 40
0.0
 40
0.0
 40
0.0
 40
0.0156090596955973
 40
0.0311866571588254
 40
0.0467712218497776
 40
0.0624011318373729
 40
0.0936866564238193
 40
0.1250283819911281
 40
0.1875481454823479
 40
0.2498885461741617
 40
0.3125232072681688
 40
0.3748027727348771
 40
0.4374043834363575
 40
0.499805986808242
 40
0.5622451695627639
 40
0.6248192576428497
 40
0.6870920392908911
 40
0.749724334758132
 40
0.8119990667827262
 40
0.8745681990177511
 40
0.9057410747685565
 40
0.9370643136106175
 40
0.9685815698068948
 40
1.0
 40
1.0
 40
1.0
 40
1.0
 10
397.5466040729072
 20
218.9713964685839
 30
0.0
 10
397.5457958505588
 20
218.9140301784938
 30
0.0
 10
397.5441810349465
 20
218.7994132280559
 30
0.0
 10
397.5310604659393
 20
218.6279421199209
 30
0.0
 10
397.5100904279419
 20
218.4572374867842
 30
0.0
 10
397.4707349989831
 20
218.2309393138786
 30
0.0
 10
397.4007547391091
 20
217.9516082558157
 30
0.0
 10
397.2453285068294
 20
217.5186258982977
 30
0.0
 10
396.9727385718776
 20
217.0101174502068
 30
0.0
 10
396.5335658181643
 20
216.4767504432592
 30
0.0
 10
396.0002891501281
 20
216.040383193435
 30
0.0
 10
395.3923749416921
 20
215.7162304888636
 30
0.0
 10
394.7344600602588
 20
215.5168098768274
 30
0.0
 10
394.0500597606052
 20
215.4490609107048
 30
0.0
 10
393.3654688810283
 20
215.5154551868816
 30
0.0
 10
392.7067747935322
 20
215.7137576348265
 30
0.0
 10
392.0978943454921
 20
216.0370302972918
 30
0.0
 10
391.5636614955737
 20
216.4727302775598
 30
0.0
 10
391.1233975804524
 20
217.0057352385315
 30
0.0
 10
390.8502486391884
 20
217.513418139842
 30
0.0
 10
390.6942013133503
 20
217.9460485464147
 30
0.0
 10
390.6102247536548
 20
218.281495233336
 30
0.0
 10
390.5565482899902
 20
218.6245113083871
 30
0.0
 10
390.5499153400946
 20
218.855889190413
 30
0.0
 10
390.546604072907
 20
218.9713964685839
 30
0.0
  0
SPLINE
  5
6B
330
1F
100
AcDbEntity
  8
0
  6
Continuous
 62
     7
370
    25
100
AcDbSpline
210
0.0
220
0.0
230
1.0
 70
     8
 71
     3
 72
    29
 73
    25
 74
     0
 42
0.00000001
 43
0.00000001
 40
0.0
 40
0.0
 40
0.0
 40
0.0
 40
0.0156423034789533
 40
0.0312525614661383
 40
0.0468692828091262
 40
0.0625309286792312
 40
0.0938516604627271
 40
0.1252236456762821
 40
0.1875149256581001
 40
0.2501602774383942
 40
0.3125206365778715
 40
0.3750465033429102
 40
0.4376065080547368
 40
0.4999317491139855
 40
0.5625789634633488
 40
0.6248563037858232
 40
0.6874681002588076
 40
0.7498652518913024
 40
0.8123219475629615
 40
0.8749071569700682
 40
0.9060782501009105
 40
0.9372735371376636
 40
0.9686286411147151
 40
1.0
 40
1.0
 40
1.0
 40
1.0
 10
390.546604072907
 20
218.9713964685839
 30
0.0
 10
390.5474156910369
 20
219.0288851778141
 30
0.0
 10
390.5490372645812
 20
219.1437448224465
 30
0.0
 10
390.5622131846536
 20
219.3155762348568
 30
0.0
 10
390.583271623657
 20
219.486633929886
 30
0.0
 10
390.6227748441814
 20
219.7132919572964
 30
0.0
 10
390.692982711388
 20
219.9929726066963
 30
0.0
 10
390.8485016772923
 20
220.4254044405787
 30
0.0
 10
391.1215364113451
 20
220.9343655329036
 30
0.0
 10
391.5608922033907
 20
221.4673554401867
 30
0.0
 10
392.0957152480769
 20
221.9043067633395
 30
0.0
 10
392.7042484850159
 20
222.2280901077725
 30
0.0
 10
393.3632822255419
 20
222.4268578981732
 30
0.0
 10
394.0482368652421
 20
222.4937821730485
 30
0.0
 10
394.7320181201073
 20
222.4264390670834
 30
0.0
 10
395.3908891975987
 20
222.2271791974012
 30
0.0
 10
395.9983171560541
 20
221.9037661574103
 30
0.0
 10
396.5323524591856
 20
221.4671832984958
 30
0.0
 10
396.9717849497886
 20
220.9342444885102
 30
0.0
 10
397.2445082772287
 20
220.4258015001443
 30
0.0
 10
397.4000747660372
 20
219.9935638681353
 30
0.0
 10
397.4836963079196
 20
219.6591725894934
 30
0.0
 10
397.5368135211532
 20
219.3173408823817
 30
0.0
 10
397.5433399919003
 20
219.0867311932146
 30
0.0
 10
397.5466040729072
 20
218.9713964685839
 30
0.0
  0
SPLINE
  5
6C
330
1F
100
AcDbEntity
  8
0
  6
Continuous
 62
     7
370
    25
100
AcDbSpline
210
0.0
220
0.0
230
1.0
 70
     8
 71
     3
 72
    29
 73
    25
 74
     0
 42
0.00000001
 43
0.00000001
 40
0.0
 40
0.0
 40
0.0
 40
0.0
 40
0.0156101369899669
 40
0.0311884788037494
 40
0.0467732970491667
 40
0.0624028157580412
 40
0.0936897006688876
 40
0.1250275156857189
 40
0.1875461052502642
 40
0.2498847677018642
 40
0.3125187047464763
 40
0.3747980538701386
 40
0.4374005788421028
 40
0.4998069230187668
 40
0.5622452615873819
 40
0.6248234768097795
 40
0.6870958432370675
 40
0.7497283850187294
 40
0.8120016394787207
 40
0.8745696435447801
 40
0.9057434075811406
 40
0.9370641758765453
 40
0.9685834193082076
 40
1.0
 40
1.0
 40
1.0
 40
1.0
 10
297.5466040729078
 20
218.9713964685839
 30
0.0
 10
297.5457957603826
 20
218.9140262542628
 30
0.0
 10
297.5441807817264
 20
218.7994026789239
 30
0.0
 10
297.5310587591058
 20
218.627922277481
 30
0.0
 10
297.5100865520205
 20
218.4572102237531
 30
0.0
 10
297.470725770723
 20
218.2308937996796
 30
0.0
 10
297.4007357214832
 20
217.9515400683838
 30
0.0
 10
297.2452657160759
 20
217.5184731060991
 30
0.0
 10
296.9725415887505
 20
217.0097783211452
 30
0.0
 10
296.5329768044338
 20
216.4761127158819
 30
0.0
 10
295.9991005796966
 20
216.0395438385374
 30
0.0
 10
295.3905108006999
 20
215.7154236265555
 30
0.0
 10
294.7320438940468
 20
215.5163078219123
 30
0.0
 10
294.0474215704769
 20
215.4490578520196
 30
0.0
 10
293.3630034848636
 20
215.5159604635442
 30
0.0
 10
292.7048340580254
 20
215.7145914910244
 30
0.0
 10
292.0966250773881
 20
216.0379215443483
 30
0.0
 10
291.5630158465872
 20
216.4734244138155
 30
0.0
 10
291.1231707877327
 20
217.0061221807881
 30
0.0
 10
290.8501762868132
 20
217.5135922602841
 30
0.0
 10
290.6941848966056
 20
217.9461166242994
 30
0.0
 10
290.6102249207811
 20
218.2815244710235
 30
0.0
 10
290.5565496554889
 20
218.6245170589762
 30
0.0
 10
290.5499156599128
 20
218.8558958092886
 30
0.0
 10
290.5466040729076
 20
218.9713964685839
 30
0.0
  0
SPLINE
  5
6D
330
1F
100
AcDbEntity
  8
0
  6
Continuous
 62
     7
370
    25
100
AcDbSpline
210
0.0
220
0.0
230
1.0
 70
     8
 71
     3
 72
    29
 73
    25
 74
     0
 42
0.00000001
 43
0.00000001
 40
0.0
 40
0.0
 40
0.0
 40
0.0
 40
0.0156416010518398
 40
0.0312514894789271
 40
0.0468683357409612
 40
0.0625307587610918
 40
0.0938491969148934
 40
0.1252241753532462
 40
0.1875170916080256
 40
0.2501622195353559
 40
0.3125274455918754
 40
0.3750495537574295
 40
0.4376105854393472
 40
0.4999321535570735
 40
0.562578056535833
 40
0.6248521161283895
 40
0.6874640083454853
 40
0.7498611757800309
 40
0.812318540589352
 40
0.874906497818848
 40
0.9060754435093634
 40
0.9372738187141552
 40
0.9686277792028488
 40
0.9999999999999999
 40
0.9999999999999999
 40
0.9999999999999999
 40
0.9999999999999999
 10
290.5466040729076
 20
218.9713964685839
 30
0.0
 10
290.5474156393092
 20
219.0288826264934
 30
0.0
 10
290.5490371266989
 20
219.1437383917785
 30
0.0
 10
290.5622122195704
 20
219.315564601265
 30
0.0
 10
290.5832694930332
 20
219.4866189230152
 30
0.0
 10
290.6227681637732
 20
219.7132578290548
 30
0.0
 10
290.6929657639014
 20
219.9929101265765
 30
0.0
 10
290.8484391862176
 20
220.4252522695518
 30
0.0
 10
291.1213350231376
 20
220.9340191003335
 30
0.0
 10
291.5603030349102
 20
221.4667189383019
 30
0.0
 10
292.0945212431677
 20
221.9034648287223
 30
0.0
 10
292.7023853586429
 20
222.2272838391129
 30
0.0
 10
293.360864129346
 20
222.4263582197501
 30
0.0
 10
294.0456010792869
 20
222.4937805798172
 30
0.0
 10
294.7295551475378
 20
222.4269448051321
 30
0.0
 10
295.3889467177968
 20
222.2280157668957
 30
0.0
 10
295.9970485349626
 20
221.9046581042258
 30
0.0
 10
296.5317055068654
 20
221.4678796675574
 30
0.0
 10
296.9715587824035
 20
220.9346311193698
 30
0.0
 10
297.2444365527201
 20
220.4259775877822
 30
0.0
 10
297.4000570609791
 20
219.993629807311
 30
0.0
 10
297.4836922485065
 20
219.6591985463017
 30
0.0
 10
297.5368135676251
 20
219.3173424348822
 30
0.0
 10
297.5433399378466
 20
219.0867341682509
 30
0.0
 10
297.5466040729079
 20
218.9713964685839
 30
0.0
  0
LINE
  5
6E
330
1F
100
AcDbEntity
  8
0
  6
Continuous
 62
     7
370
    25
100
AcDbLine
 10
293.9915791108
 20
243.9713964686
 30
0.0
 11
394.1016290351
 21
243.9713964686
 31
0.0
  0
SPLINE
  5
6F
330
1F
100
AcDbEntity
  8
0
  6
HIDDEN
 62
     7
370
    18
100
AcDbSpline
210
0.0
220
0.0
230
1.0
 70
     8
 71
     3
 72
    27
 73
    23
 74
     0
 42
0.00000001
 43
0.00000001
 40
0.0
 40
0.0
 40
0.0
 40
0.0
 40
0.0208481931802269
 40
0.0416533754557224
 40
0.0624380148796937
 40
0.0832246461190814
 40
0.1040357973704725
 40
0.1248939173806624
 40
0.1874780455518865
 40
0.2500978940961843
 40
0.3123570040304847
 40
0.3746525425670806
 40
0.499772231466178
 40
0.624284180826239
 40
0.6867917473335481
 40
0.7493416799233509
 40
0.8118607468636944
 40
0.8744217931365867
 40
0.9058433368616085
 40
0.9371965844890213
 40
0.9685570010604565
 40
1.0
 40
1.0
 40
1.0
 40
1.0
 10
284.4054330634069
 20
233.9713964685839
 30
0.0
 10
284.4064504125952
 20
234.0807212376515
 30
0.0
 10
284.4084830121274
 20
234.2991452331133
 30
0.0
 10
284.4249804399529
 20
234.6262098615902
 30
0.0
 10
284.451333032817
 20
234.9522468525086
 30
0.0
 10
284.4884987520642
 20
235.2772527979979
 30
0.0
 10
284.5362275544918
 20
235.6012353179245
 30
0.0
 10
284.6333857496843
 20
236.1390602627973
 30
0.0
 10
284.8182143341386
 20
236.8832523474464
 30
0.0
 10
285.1480167533834
 20
237.8095814470677
 30
0.0
 10
285.5651661167893
 20
238.6976724132922
 30
0.0
 10
286.2342047480435
 20
239.8207625130009
 30
0.0
 10
287.2706637476267
 20
241.0918599750279
 30
0.0
 10
288.5347468122881
 20
242.1338338811213
 30
0.0
 10
289.6492989528017
 20
242.8055931052706
 30
0.0
 10
290.5326595056319
 20
243.2250516463978
 30
0.0
 10
291.4526019523875
 20
243.5561024282578
 30
0.0
 10
292.2435201838547
 20
243.7547711481045
 30
0.0
 10
292.8859613978699
 20
243.8670397276813
 30
0.0
 10
293.3721179403658
 20
243.9269729587238
 30
0.0
 10
293.8607951222156
 20
243.9644754625806
 30
0.0
 10
294.1875920269218
 20
243.9690874450981
 30
0.0
 10
294.351205337512
 20
243.9713964685839
 30
0.0
  0
SPLINE
  5
70
330
1F
100
AcDbEntity
  8
0
  6
HIDDEN
 62
     7
370
    18
100
AcDbSpline
210
0.0
220
0.0
230
1.0
 70
     8
 71
     3
 72
    27
 73
    23
 74
     0
 42
0.00000001
 43
0.00000001
 40
0.0
 40
0.0
 40
0.0
 40
0.0
 40
0.0208481931803285
 40
0.0416533754558831
 40
0.062438014879867
 40
0.0832246461192268
 40
0.1040357973705465
 40
0.124893917380625
 40
0.1874780455188187
 40
0.2500978940957792
 40
0.3123570039980061
 40
0.3746525425669702
 40
0.4997722314660304
 40
0.6242841808260653
 40
0.6867917473276869
 40
0.7493416799236167
 40
0.8118607468816816
 40
0.8744217931366812
 40
0.9058433368583919
 40
0.9371965844846722
 40
0.9685570010571831
 40
1.0
 40
1.0
 40
1.0
 40
1.0
 10
403.6877750824096
 20
203.9713964685839
 30
0.0
 10
403.6867577332214
 20
203.8620716995158
 30
0.0
 10
403.6847251336891
 20
203.6436477040532
 30
0.0
 10
403.6682277058629
 20
203.3165830755752
 30
0.0
 10
403.6418751129996
 20
202.9905460846565
 30
0.0
 10
403.6047093937526
 20
202.6655401391674
 30
0.0
 10
403.5569805913241
 20
202.3415576192421
 30
0.0
 10
403.4598223961694
 20
201.8037326745386
 30
0.0
 10
403.2749938116445
 20
201.0595405899123
 30
0.0
 10
402.9451913925643
 20
200.1332114904163
 30
0.0
 10
402.5280420291795
 20
199.2451205239852
 30
0.0
 10
401.8590033978381
 20
198.1220304243258
 30
0.0
 10
400.8225443982168
 20
196.8509329621098
 30
0.0
 10
399.5584613335137
 20
195.8089590561293
 30
0.0
 10
398.4439091931018
 20
195.1371998318009
 30
0.0
 10
397.5605486401221
 20
194.7177412907546
 30
0.0
 10
396.6406061933225
 20
194.386690508942
 30
0.0
 10
395.849687961886
 20
194.1880217890498
 30
0.0
 10
395.2072467479861
 20
194.0757532094845
 30
0.0
 10
394.7210902055076
 20
194.0158199784422
 30
0.0
 10
394.2324130236408
 20
193.9783174745866
 30
0.0
 10
393.9056161189118
 20
193.9737054920696
 30
0.0
 10
393.7420028083045
 20
193.9713964685839
 30
0.0
  0
SPLINE
  5
71
330
1F
100
AcDbEntity
  8
0
  6
HIDDEN
 62
     7
370
    18
100
AcDbSpline
210
0.0
220
0.0
230
1.0
 70
     8
 71
     3
 72
    27
 73
    23
 74
     0
 42
0.00000001
 43
0.00000001
 40
0.0
 40
0.0
 40
0.0
 40
0.0
 40
0.0208563489940428
 40
0.0416673804105482
 40
0.0624550111710606
 40
0.0832412322180955
 40
0.1040480389638719
 40
0.124897361668923
 40
0.187500760475006
 40
0.2500936133253429
 40
0.3123735380753904
 40
0.3746426112202964
 40
0.4997709778364235
 40
0.6242312896159672
 40
0.6867810556731714
 40
0.7493412031492441
 40
0.8118415637376338
 40
0.8743628018905856
 40
0.90580578222284
 40
0.9371746794723061
 40
0.9685469436762157
 40
1.0
 40
1.0
 40
1.0
 40
1.0
 10
294.351205337512
 20
193.9713964685839
 30
0.0
 10
294.2426842087619
 20
193.9724124346944
 30
0.0
 10
294.0258777506659
 20
193.9744421593802
 30
0.0
 10
293.7012894206704
 20
193.99091790471
 30
0.0
 10
293.3777788418752
 20
194.0172361494943
 30
0.0
 10
293.0553522590013
 20
194.0543532787752
 30
0.0
 10
292.7340011079261
 20
194.1020183369708
 30
0.0
 10
292.2003844873462
 20
194.1990973699129
 30
0.0
 10
291.4620788669458
 20
194.3837935213359
 30
0.0
 10
290.5425839542034
 20
194.7136668845036
 30
0.0
 10
289.6608206140989
 20
195.1311742005862
 30
0.0
 10
288.5447967008901
 20
195.8015079230517
 30
0.0
 10
287.2804917442119
 20
196.8410965297556
 30
0.0
 10
286.2418602764429
 20
198.1116271752753
 30
0.0
 10
285.5713415327782
 20
199.233208061057
 30
0.0
 10
285.1522211659203
 20
200.1228978005816
 30
0.0
 10
284.8212865840819
 20
201.0494911882871
 30
0.0
 10
284.6224874353335
 20
201.8464160145338
 30
0.0
 10
284.5100311183224
 20
202.4939410159476
 30
0.0
 10
284.4499594039864
 20
202.9842265394056
 30
0.0
 10
284.4123699366133
 20
203.476985390397
 30
0.0
 10
284.4077473360001
 20
203.8064515468675
 30
0.0
 10
284.4054330634069
 20
203.9713964685839
 30
0.0
  0
SPLINE
  5
72
330
1F
100
AcDbEntity
  8
0
  6
HIDDEN
 62
     7
370
    18
100
AcDbSpline
210
0.0
220
0.0
230
1.0
 70
     8
 71
     3
 72
    27
 73
    23
 74
     0
 42
0.00000001
 43
0.00000001
 40
0.0
 40
0.0
 40
0.0
 40
0.0
 40
0.0208563489915317
 40
0.0416673804065132
 40
0.0624550111665641
 40
0.0832412322140839
 40
0.1040480389613754
 40
0.1248973616688895
 40
0.1875007604726099
 40
0.2500936133253869
 40
0.3123735380755744
 40
0.3746426112203093
 40
0.4997709778364475
 40
0.624231289615905
 40
0.6867810556742281
 40
0.7493412031492084
 40
0.8118415637384901
 40
0.8743628018905564
 40
0.9058057822226774
 40
0.9371746794721042
 40
0.968546943676068
 40
1.0
 40
1.0
 40
1.0
 40
1.0
 10
393.7420028083045
 20
243.9713964685839
 30
0.0
 10
393.8505239370415
 20
243.9703805024734
 30
0.0
 10
394.0673303951166
 20
243.9683507777875
 30
0.0
 10
394.3919187250886
 20
243.9518750324573
 30
0.0
 10
394.7154293038759
 20
243.9255567876729
 30
0.0
 10
395.0378558867579
 20
243.8884396583917
 30
0.0
 10
395.3592070378564
 20
243.8407746001956
 30
0.0
 10
395.8928236584468
 20
243.7436955672657
 30
0.0
 10
396.6311292788632
 20
243.5589994158497
 30
0.0
 10
397.5506241916025
 20
243.2291260526681
 30
0.0
 10
398.4323875317139
 20
242.8116187365725
 30
0.0
 10
399.5484114449301
 20
242.1412850141204
 30
0.0
 10
400.8127164016046
 20
241.1016964074116
 30
0.0
 10
401.8513478693737
 20
239.8311657618866
 30
0.0
 10
402.5218666130421
 20
238.7095848761074
 30
0.0
 10
402.9409869798976
 20
237.8198951365763
 30
0.0
 10
403.2719215617327
 20
236.8933017488759
 30
0.0
 10
403.4707207104814
 20
236.0963769226301
 30
0.0
 10
403.5831770274929
 20
235.4488519212221
 30
0.0
 10
403.6432487418296
 20
234.9585663977649
 30
0.0
 10
403.6808382092034
 20
234.4658075467726
 30
0.0
 10
403.6854608098166
 20
234.1363413903011
 30
0.0
 10
403.6877750824096
 20
233.9713964685839
 30
0.0
  0
LINE
  5
73
330
1F
100
AcDbEntity
  8
0
  6
HIDDEN
 62
     7
370
    18
100
AcDbLine
 10
284.4054330634
 20
233.9713964686
 30
0.0
 11
284.4054330634
 21
203.9713964686
 31
0.0
  0
LINE
  5
74
330
1F
100
AcDbEntity
  8
0
  6
HIDDEN
 62
     7
370
    18
100
AcDbLine
 10
403.6877750824
 20
233.9713964686
 30
0.0
 11
403.6877750824
 21
203.9713964686
 31
0.0
  0
SPLINE
  5
75
330
1F
100
AcDbEntity
  8
0
  6
Continuous
 62
     7
370
    25
100
AcDbSpline
210
0.0
220
0.0
230
1.0
 70
     8
 71
     3
 72
    27
 73
    23
 74
     0
 42
0.00000001
 43
0.00000001
 40
0.0
 40
0.0
 40
0.0
 40
0.0
 40
0.0208563489915317
 40
0.0416673804065132
 40
0.0624550111665641
 40
0.0832412322140839
 40
0.1040480389613754
 40
0.1248973616688895
 40
0.1875007604726099
 40
0.2500936133253869
 40
0.3123735380755744
 40
0.3746426112203093
 40
0.4997709778364475
 40
0.624231289615905
 40
0.6867810556742281
 40
0.7493412031492084
 40
0.8118415637384901
 40
0.8743628018905564
 40
0.9058057822226774
 40
0.9371746794721042
 40
0.968546943676068
 40
1.0
 40
1.0
 40
1.0
 40
1.0
 10
393.7420028083045
 20
355.5433320025435
 30
0.0
 10
393.8505239370415
 20
355.556911401213
 30
0.0
 10
394.0673303951166
 20
355.5840406926474
 30
0.0
 10
394.3919187250886
 20
355.6249986365718
 30
0.0
 10
394.7154293038759
 20
355.6660690060946
 30
0.0
 10
395.0378558867579
 20
355.7072729415191
 30
0.0
 10
395.3592070378564
 20
355.7486024618127
 30
0.0
 10
395.8928236584468
 20
355.8176696549758
 30
0.0
 10
396.6311292788632
 20
355.9144469275609
 30
0.0
 10
397.5506241916025
 20
356.0371830659174
 30
0.0
 10
398.4323875317139
 20
356.1569238364885
 30
0.0
 10
399.5484114449301
 20
356.3109356470562
 30
0.0
 10
400.8127164016046
 20
356.4895287092108
 30
0.0
 10
401.8513478693737
 20
356.6399838408302
 30
0.0
 10
402.5218666130421
 20
356.7384294633591
 30
0.0
 10
402.9409869798976
 20
356.8004650310791
 30
0.0
 10
403.2719215617327
 20
356.8497687226777
 30
0.0
 10
403.4707207104814
 20
356.879532529542
 30
0.0
 10
403.5831770274929
 20
356.8964059489774
 30
0.0
 10
403.6432487418296
 20
356.9054306603286
 30
0.0
 10
403.6808382092034
 20
356.9110825865741
 30
0.0
 10
403.6854608098166
 20
356.9117779179992
 30
0.0
 10
403.6877750824096
 20
356.9121260308029
 30
0.0
  0
LINE
  5
76
330
1F
100
AcDbEntity
  8
0
  6
Continuous
 62
     7
370
    25
100
AcDbLine
 10
403.6877750824
 20
356.9121260308
 30
0.0
 11
404.0466040729
 21
355.348118213
 31
0.0
  0
SPLINE
  5
77
330
1F
100
AcDbEntity
  8
0
  6
Continuous
 62
     7
370
    25
100
AcDbSpline
210
0.0
220
0.0
230
1.0
 70
     8
 71
     3
 72
    27
 73
    23
 74
     0
 42
0.00000001
 43
0.00000001
 40
0.0
 40
0.0
 40
0.0
 40
0.0
 40
0.0208481973189663
 40
0.0416533851608544
 40
0.062438029817941
 40
0.0832246641920886
 40
0.1040358147221285
 40
0.1248939284157588
 40
0.1874780724542242
 40
0.2500978779581333
 40
0.3123570342200394
 40
0.3746525175722022
 40
0.4997722488242721
 40
0.6242839869496233
 40
0.6867917486875726
 40
0.7493416887146391
 40
0.8118607467584753
 40
0.8744215510898157
 40
0.9058432214714099
 40
0.9371965455446144
 40
0.968556997449925
 40
1.0
 40
1.0
 40
1.0
 40
1.0
 10
404.0466040729072
 20
355.3481182129732
 30
0.0
 10
404.0455868265158
 20
355.3479648922986
 30
0.0
 10
404.0435544322952
 20
355.3476585672471
 30
0.0
 10
404.027058673669
 20
355.345172739262
 30
0.0
 10
404.0007087483832
 20
355.3412034098728
 30
0.0
 10
403.9635467923463
 20
355.3356083858277
 30
0.0
 10
403.9158228246773
 20
355.328428350194
 30
0.0
 10
403.818674433162
 20
355.3138258676498
 30
0.0
 10
403.6338644502598
 20
355.2860971988788
 30
0.0
 10
403.304094688405
 20
355.2368599412545
 30
0.0
 10
402.8869859753864
 20
355.1749838606107
 30
0.0
 10
402.2180107058088
 20
355.0765343625066
 30
0.0
 10
401.1816468412169
 20
354.9260392634067
 30
0.0
 10
399.9176702301505
 20
354.7470270727669
 30
0.0
 10
398.8032058727348
 20
354.5927929787918
 30
0.0
 10
397.9199108618781
 20
354.4724966771907
 30
0.0
 10
397.0000360748239
 20
354.3493418729135
 30
0.0
 10
396.2091735920752
 20
354.2453510965986
 30
0.0
 10
395.5667764878324
 20
354.1620634547424
 30
0.0
 10
395.0806515867387
 20
354.0996479315752
 30
0.0
 10
394.5920066181757
 20
354.0374712156885
 30
0.0
 10
394.2652314036338
 20
353.9964079406382
 30
0.0
 10
394.1016290350501
 20
353.9758493157453
 30
0.0
  0
ARC
  5
78
330
1F
100
AcDbEntity
  8
0
  6
Continuous
 62
     7
370
    25
100
AcDbCircle
 10
344.0466040729
 20
753.4520744857
 30
0.0
 40
402.6000000000001
100
AcDbArc
 50
262.8579676405
 51
277.1420323595
  0
ARC
  5
79
330
1F
100
AcDbEntity
  8
0
  6
Continuous
 62
     7
370
    25
100
AcDbCircle
 10
344.0466040729
 20
753.4520744857
 30
0.0
 40
401.0000000000002
100
AcDbArc
 50
262.8811076591
 51
277.1188923409
  0
SPLINE
  5
7A
330
1F
100
AcDbEntity
  8
0
  6
Continuous
 62
     7
370
    25
100
AcDbSpline
210
0.0
220
0.0
230
1.0
 70
     8
 71
     3
 72
    27
 73
    23
 74
     0
 42
0.00000001
 43
0.00000001
 40
0.0
 40
0.0
 40
0.0
 40
0.0
 40
0.020856305559425
 40
0.0416673064018806
 40
0.0624549220800021
 40
0.0832411461271188
 40
0.1040479764896211
 40
0.1248973458893826
 40
0.1875006575999646
 40
0.250093632121475
 40
0.3123734689324756
 40
0.3746426657185105
 40
0.4997710068076648
 40
0.6242315178668553
 40
0.6867811250610057
 40
0.7493412176065767
 40
0.8118416543342857
 40
0.874363028793279
 40
0.905805941714643
 40
0.9371747829963362
 40
0.9685469962048048
 40
1.0
 40
1.0
 40
1.0
 40
1.0
 10
293.9915791107667
 20
353.9758493157452
 30
0.0
 10
293.8830654799299
 20
353.9894721860376
 30
0.0
 10
293.6662739349472
 20
354.0166883345991
 30
0.0
 10
293.3417078284677
 20
354.057774974856
 30
0.0
 10
293.0182192168636
 20
354.0989726529479
 30
0.0
 10
292.695814341271
 20
354.1403024206596
 30
0.0
 10
292.3744846370614
 20
354.1817563367588
 30
0.0
 10
291.8409046176508
 20
354.2510282333134
 30
0.0
 10
291.1026499527562
 20
354.3480838699224
 30
0.0
 10
290.1832216623869
 20
354.4711575072074
 30
0.0
 10
289.3015238984203
 20
354.5912135896912
 30
0.0
 10
288.1855876635806
 20
354.7456140515063
 30
0.0
 10
286.9213879072906
 20
354.9246301556987
 30
0.0
 10
285.882851163084
 20
355.0754166437235
 30
0.0
 10
285.2123962945489
 20
355.1740704938615
 30
0.0
 10
284.7933170213926
 20
355.2362340303409
 30
0.0
 10
284.462415039172
 20
355.2856374489701
 30
0.0
 10
284.2636358865096
 20
355.3154605128156
 30
0.0
 10
284.1511911364129
 20
355.3323672659478
 30
0.0
 10
284.0911257378966
 20
355.341409717113
 30
0.0
 10
284.0535402191647
 20
355.3470727251225
 30
0.0
 10
284.0489181029422
 20
355.3477694183837
 30
0.0
 10
284.0466040729074
 20
355.3481182129735
 30
0.0
  0
LINE
  5
7B
330
1F
100
AcDbEntity
  8
0
  6
Continuous
 62
     7
370
    25
100
AcDbLine
 10
284.0466040729
 20
355.348118213
 30
0.0
 11
284.4054330634
 21
356.9121260308
 31
0.0
  0
SPLINE
  5
7C
330
1F
100
AcDbEntity
  8
0
  6
Continuous
 62
     7
370
    25
100
AcDbSpline
210
0.0
220
0.0
230
1.0
 70
     8
 71
     3
 72
    27
 73
    23
 74
     0
 42
0.00000001
 43
0.00000001
 40
0.0
 40
0.0
 40
0.0
 40
0.0
 40
0.0208481931802269
 40
0.0416533754557224
 40
0.0624380148796937
 40
0.0832246461190814
 40
0.1040357973704725
 40
0.1248939173806624
 40
0.1874780455518865
 40
0.2500978940961843
 40
0.3123570040304847
 40
0.3746525425670806
 40
0.499772231466178
 40
0.624284180826239
 40
0.6867917473335481
 40
0.7493416799233509
 40
0.8118607468636944
 40
0.8744217931365867
 40
0.9058433368616085
 40
0.9371965844890213
 40
0.9685570010604565
 40
1.0
 40
1.0
 40
1.0
 40
1.0
 10
284.4054330634069
 20
356.9121260308029
 30
0.0
 10
284.4064504125952
 20
356.911973010455
 30
0.0
 10
284.4084830121274
 20
356.9116672854478
 30
0.0
 10
284.4249804399529
 20
356.90918632901
 30
0.0
 10
284.451333032817
 20
356.9052247870961
 30
0.0
 10
284.4884987520642
 20
356.8996407580103
 30
0.0
 10
284.5362275544918
 20
356.892474862995
 30
0.0
 10
284.6333857496843
 20
356.877901225674
 30
0.0
 10
284.8182143341386
 20
356.8502276418849
 30
0.0
 10
285.1480167533834
 20
356.8010897328039
 30
0.0
 10
285.5651661167893
 20
356.7393410363617
 30
0.0
 10
286.2342047480435
 20
356.6410993051026
 30
0.0
 10
287.2706637476267
 20
356.4909346796271
 30
0.0
 10
288.5347468122881
 20
356.3123451665024
 30
0.0
 10
289.6492989528017
 20
356.1584990357707
 30
0.0
 10
290.5326595056319
 20
356.038518548028
 30
0.0
 10
291.4526019523875
 20
355.9157011882386
 30
0.0
 10
292.2435201838547
 20
355.8120083896844
 30
0.0
 10
292.8859613978699
 20
355.7289676409954
 30
0.0
 10
293.3721179403658
 20
355.6667416014946
 30
0.0
 10
293.8607951222156
 20
355.6047575322557
 30
0.0
 10
294.1875920269218
 20
355.563825120259
 30
0.0
 10
294.351205337512
 20
355.5433320025434
 30
0.0
  0
LINE
  5
7D
330
1F
100
AcDbEntity
  8
0
  6
HIDDEN
 62
     7
370
    18
100
AcDbLine
 10
390.5466040729
 20
353.5464481187
 30
0.0
 11
390.5466040729
 21
355.1572716072
 31
0.0
  0
LINE
  5
7E
330
1F
100
AcDbEntity
  8
0
  6
HIDDEN
 62
     7
370
    18
100
AcDbLine
 10
397.5466040729
 20
354.4226144204
 30
0.0
 11
397.5466040729
 21
356.0369892159
 31
0.0
  0
LINE
  5
7F
330
1F
100
AcDbEntity
  8
0
  6
HIDDEN
 62
     7
370
    18
100
AcDbLine
 10
290.5466040729
 20
354.4226144204
 30
0.0
 11
290.5466040729
 21
356.0369892159
 31
0.0
  0
LINE
  5
80
330
1F
100
AcDbEntity
  8
0
  6
HIDDEN
 62
     7
370
    18
100
AcDbLine
 10
297.5466040729
 20
353.5464481187
 30
0.0
 11
297.5466040729
 21
355.1572716072
 31
0.0
  0
LINE
  5
81
330
1F
100
AcDbEntity
  8
0
  6
Continuous
 62
     7
370
    25
100
AcDbLine
 10
509.3520739795
 20
243.9713964686
 30
0.0
 11
509.3520739795
 21
193.9713964686
 31
0.0
  0
SPLINE
  5
82
330
1F
100
AcDbEntity
  8
0
  6
Continuous
 62
     7
370
    25
100
AcDbSpline
210
0.0
220
0.0
230
1.0
 70
     8
 71
     3
 72
    27
 73
    23
 74
     0
 42
0.00000001
 43
0.00000001
 40
0.0
 40
0.0
 40
0.0
 40
0.0
 40
0.0208481931803285
 40
0.0416533754558831
 40
0.062438014879867
 40
0.0832246461192268
 40
0.1040357973705465
 40
0.124893917380625
 40
0.1874780455188187
 40
0.2500978940957792
 40
0.3123570039980061
 40
0.3746525425669702
 40
0.4997722314660304
 40
0.6242841808260653
 40
0.6867917473276869
 40
0.7493416799236167
 40
0.8118607468816816
 40
0.8744217931366812
 40
0.9058433368583919
 40
0.9371965844846722
 40
0.9685570010571831
 40
1.0
 40
1.0
 40
1.0
 40
1.0
 10
515.4121255246131
 20
203.9713964685839
 30
0.0
 10
515.4119725042652
 20
203.8620716995158
 30
0.0
 10
515.4116667792583
 20
203.6436477040532
 30
0.0
 10
515.4091858228202
 20
203.3165830755752
 30
0.0
 10
515.4052242809066
 20
202.9905460846565
 30
0.0
 10
515.3996402518208
 20
202.6655401391674
 30
0.0
 10
515.3924743568052
 20
202.3415576192421
 30
0.0
 10
515.37790071949
 20
201.8037326745386
 30
0.0
 10
515.3502271356906
 20
201.0595405899123
 30
0.0
 10
515.3010892266336
 20
200.1332114904163
 30
0.0
 10
515.2393405301947
 20
199.2451205239852
 30
0.0
 10
515.1410987989223
 20
198.1220304243258
 30
0.0
 10
514.9909341734415
 20
196.8509329621098
 30
0.0
 10
514.8123446603108
 20
195.8089590561293
 30
0.0
 10
514.6584985295933
 20
195.1371998318009
 30
0.0
 10
514.5385180418298
 20
194.7177412907546
 30
0.0
 10
514.415700682035
 20
194.386690508942
 30
0.0
 10
514.312007883485
 20
194.1880217890498
 30
0.0
 10
514.2289671348109
 20
194.0757532094845
 30
0.0
 10
514.1667410953121
 20
194.0158199784422
 30
0.0
 10
514.1047570260711
 20
193.9783174745866
 30
0.0
 10
514.0638246140716
 20
193.9737054920696
 30
0.0
 10
514.0433314963537
 20
193.9713964685839
 30
0.0
  0
LINE
  5
83
330
1F
100
AcDbEntity
  8
0
  6
Continuous
 62
     7
370
    25
100
AcDbLine
 10
514.0433314964
 20
193.9713964686
 30
0.0
 11
512.4758488096
 21
193.9713964686
 31
0.0
  0
SPLINE
  5
84
330
1F
100
AcDbEntity
  8
0
  6
Continuous
 62
     7
370
    25
100
AcDbSpline
210
0.0
220
0.0
230
1.0
 70
     8
 71
     3
 72
    27
 73
    23
 74
     0
 42
0.00000001
 43
0.00000001
 40
0.0
 40
0.0
 40
0.0
 40
0.0
 40
0.0208563055669984
 40
0.0416673064140008
 40
0.0624549220936347
 40
0.0832411461392202
 40
0.104047976497139
 40
0.124897345889378
 40
0.1875006576134945
 40
0.2500936321213147
 40
0.3123734689628658
 40
0.3746426657187151
 40
0.4997710068078306
 40
0.6242315178669846
 40
0.6867811250605597
 40
0.7493412176066616
 40
0.8118416543333761
 40
0.8743630287933316
 40
0.9058059417143501
 40
0.9371747829959162
 40
0.9685469962044838
 40
1.0
 40
1.0
 40
1.0
 40
1.0
 10
512.4758488095556
 20
193.9713964685839
 30
0.0
 10
512.489471679853
 20
193.9724124796799
 30
0.0
 10
512.5166878284224
 20
193.9744422948606
 30
0.0
 10
512.5577744686886
 20
193.9909187649797
 30
0.0
 10
512.5989721467834
 20
194.0172381643268
 30
0.0
 10
512.6403019144923
 20
194.0543569213434
 30
0.0
 10
512.6817558305823
 20
194.1020240689512
 30
0.0
 10
512.7510277271372
 20
194.1991071173964
 30
0.0
 10
512.8480833637406
 20
194.383810508812
 30
0.0
 10
512.9711570010455
 20
194.7136947825176
 30
0.0
 10
513.0912130835256
 20
195.1312139173063
 30
0.0
 10
513.2456135453311
 20
195.801562113118
 30
0.0
 10
513.4246296495099
 20
196.8411653378891
 30
0.0
 10
513.5754161375337
 20
198.1116984598588
 30
0.0
 10
513.6740699876716
 20
199.2332737239369
 30
0.0
 10
513.7362335241509
 20
200.122954951929
 30
0.0
 10
513.7856369427805
 20
201.0495381422443
 30
0.0
 10
513.8154600066258
 20
201.8464524251717
 30
0.0
 10
513.832366759758
 20
202.4939675908476
 30
0.0
 10
513.8414092109233
 20
202.9842444043607
 30
0.0
 10
513.8470722189326
 20
203.4769943783279
 30
0.0
 10
513.8477689121936
 20
203.8064545478578
 30
0.0
 10
513.8481177067836
 20
203.9713964685839
 30
0.0
  0
LINE
  5
85
330
1F
100
AcDbEntity
  8
0
  6
Continuous
 62
     7
370
    25
100
AcDbLine
 10
515.4121255246
 20
233.9713964686
 30
0.0
 11
515.4121255246
 21
203.9713964686
 31
0.0
  0
LINE
  5
86
330
1F
100
AcDbEntity
  8
0
  6
Continuous
 62
     7
370
    25
100
AcDbLine
 10
513.8481177068
 20
233.9713964686
 30
0.0
 11
513.8481177068
 21
203.9713964686
 31
0.0
  0
SPLINE
  5
87
330
1F
100
AcDbEntity
  8
0
  6
Continuous
 62
     7
370
    25
100
AcDbSpline
210
0.0
220
0.0
230
1.0
 70
     8
 71
     3
 72
    27
 73
    23
 74
     0
 42
0.00000001
 43
0.00000001
 40
0.0
 40
0.0
 40
0.0
 40
0.0
 40
0.0208481973189663
 40
0.0416533851608544
 40
0.062438029817941
 40
0.0832246641920886
 40
0.1040358147221285
 40
0.1248939284157588
 40
0.1874780724542242
 40
0.2500978779581333
 40
0.3123570342200394
 40
0.3746525175722022
 40
0.4997722488242721
 40
0.6242839869496233
 40
0.6867917486875726
 40
0.7493416887146391
 40
0.8118607467584753
 40
0.8744215510898157
 40
0.9058432214714099
 40
0.9371965455446144
 40
0.968556997449925
 40
1.0
 40
1.0
 40
1.0
 40
1.0
 10
513.8481177067836
 20
233.9713964685839
 30
0.0
 10
513.847964386109
 20
234.0807194534018
 30
0.0
 10
513.8476580610574
 20
234.2991398915761
 30
0.0
 10
513.8451722330724
 20
234.6261992229769
 30
0.0
 10
513.8412029036832
 20
234.9522309837778
 30
0.0
 10
513.835607879638
 20
235.2772317664813
 30
0.0
 10
513.8284278440044
 20
235.6012091904495
 30
0.0
 10
513.8138253614601
 20
236.1390259871489
 30
0.0
 10
513.7860966926892
 20
236.8832072875759
 30
0.0
 10
513.7368594350648
 20
237.8095254486132
 30
0.0
 10
513.674983354421
 20
238.6976082625201
 30
0.0
 10
513.5765338563169
 20
239.8206927197433
 30
0.0
 10
513.4260387572169
 20
241.0917913671946
 30
0.0
 10
513.2470265665771
 20
242.1337790329199
 30
0.0
 10
513.0927924726021
 20
242.8055527924975
 30
0.0
 10
512.9724961710011
 20
243.2250232346181
 30
0.0
 10
512.8493413667239
 20
243.5560847199808
 30
0.0
 10
512.745350590409
 20
243.754761212175
 30
0.0
 10
512.6620629485527
 20
243.8670346886948
 30
0.0
 10
512.5996474253856
 20
243.9269708066044
 30
0.0
 10
512.5374707094987
 20
243.964475122912
 30
0.0
 10
512.4964074344484
 20
243.9690873325535
 30
0.0
 10
512.4758488095556
 20
243.9713964685839
 30
0.0
  0
LINE
  5
88
330
1F
100
AcDbEntity
  8
0
  6
Continuous
 62
     7
370
    25
100
AcDbLine
 10
509.3520739795
 20
193.9713964686
 30
0.0
 11
512.4758488096
 21
193.9713964686
 31
0.0
  0
LINE
  5
89
330
1F
100
AcDbEntity
  8
0
  6
Continuous
 62
     7
370
    25
100
AcDbLine
 10
509.3520739795
 20
243.9713964686
 30
0.0
 11
512.4758488096
 21
243.9713964686
 31
0.0
  0
SPLINE
  5
8A
330
1F
100
AcDbEntity
  8
0
  6
Continuous
 62
     7
370
    25
100
AcDbSpline
210
0.0
220
0.0
230
1.0
 70
     8
 71
     3
 72
    29
 73
    25
 74
     0
 42
0.00000001
 43
0.00000001
 40
0.0
 40
0.0
 40
0.0
 40
0.0
 40
0.0156090596955973
 40
0.0311866571588254
 40
0.0467712218497776
 40
0.0624011318373729
 40
0.0936866564238193
 40
0.1250283819911281
 40
0.1875481454823479
 40
0.2498885461741617
 40
0.3125232072681688
 40
0.3748027727348771
 40
0.4374043834363575
 40
0.499805986808242
 40
0.5622451695627639
 40
0.6248192576428497
 40
0.6870920392908911
 40
0.749724334758132
 40
0.8119990667827262
 40
0.8745681990177511
 40
0.9057410747685565
 40
0.9370643136106175
 40
0.9685815698068948
 40
1.0
 40
1.0
 40
1.0
 40
1.0
 10
512.92261391422
 20
218.9713964685839
 30
0.0
 10
512.922505547089
 20
218.9140301784938
 30
0.0
 10
512.9222890312562
 20
218.7994132280559
 30
0.0
 10
512.9205300891444
 20
218.6279421199209
 30
0.0
 10
512.9177197675945
 20
218.4572374867842
 30
0.0
 10
512.9124480668914
 20
218.2309393138786
 30
0.0
 10
512.9030820106655
 20
217.9516082558157
 30
0.0
 10
512.8823200774833
 20
217.5186258982977
 30
0.0
 10
512.8460305647195
 20
217.0101174502068
 30
0.0
 10
512.7879979132055
 20
216.4767504432592
 30
0.0
 10
512.7182000091788
 20
216.040383193435
 30
0.0
 10
512.6395284937025
 20
215.7162304888636
 30
0.0
 10
512.5554591103239
 20
215.5168098768274
 30
0.0
 10
512.4691898032055
 20
215.4490609107048
 30
0.0
 10
512.3841017536511
 20
215.5154551868816
 30
0.0
 10
512.3033719157163
 20
215.7137576348265
 30
0.0
 10
512.229738875131
 20
216.0370302972918
 30
0.0
 10
512.1659185663117
 20
216.4727302775598
 30
0.0
 10
512.113875183765
 20
217.0057352385315
 30
0.0
 10
512.0818554650197
 20
217.513418139842
 30
0.0
 10
512.0636332491422
 20
217.9460485464147
 30
0.0
 10
512.0538484271478
 20
218.281495233336
 30
0.0
 10
512.0476036735515
 20
218.6245113083871
 30
0.0
 10
512.0468325625611
 20
218.855889190413
 30
0.0
 10
512.0464476124922
 20
218.9713964685839
 30
0.0
  0
SPLINE
  5
8B
330
1F
100
AcDbEntity
  8
0
  6
Continuous
 62
     7
370
    25
100
AcDbSpline
210
0.0
220
0.0
230
1.0
 70
     8
 71
     3
 72
    29
 73
    25
 74
     0
 42
0.00000001
 43
0.00000001
 40
0.0
 40
0.0
 40
0.0
 40
0.0
 40
0.0156423034789533
 40
0.0312525614661383
 40
0.0468692828091262
 40
0.0625309286792312
 40
0.0938516604627271
 40
0.1252236456762821
 40
0.1875149256581001
 40
0.2501602774383942
 40
0.3125206365778715
 40
0.3750465033429102
 40
0.4376065080547368
 40
0.4999317491139855
 40
0.5625789634633488
 40
0.6248563037858232
 40
0.6874681002588076
 40
0.7498652518913024
 40
0.8123219475629615
 40
0.8749071569700682
 40
0.9060782501009105
 40
0.9372735371376636
 40
0.9686286411147151
 40
1.0
 40
1.0
 40
1.0
 40
1.0
 10
512.0464476124922
 20
218.9713964685839
 30
0.0
 10
512.046541980891
 20
219.0288851778141
 30
0.0
 10
512.046730524361
 20
219.1437448224465
 30
0.0
 10
512.0482627892004
 20
219.3155762348568
 30
0.0
 10
512.0507126556159
 20
219.486633929886
 30
0.0
 10
512.0553108864697
 20
219.7132919572964
 30
0.0
 10
512.06349105825
 20
219.9929726066963
 30
0.0
 10
512.0816511139692
 20
220.4254044405787
 30
0.0
 10
512.113656306474
 20
220.9343655329036
 30
0.0
 10
512.1655893010562
 20
221.4673554401867
 30
0.0
 10
512.2294772551635
 20
221.9043067633395
 30
0.0
 10
512.3030636977808
 20
222.2280901077725
 30
0.0
 10
512.3838323138483
 20
222.4268578981732
 30
0.0
 10
512.468961188721
 20
222.4937821730485
 30
0.0
 10
512.5551494711929
 20
222.4264390670834
 30
0.0
 10
512.6393372276772
 20
222.2271791974012
 30
0.0
 10
512.7179432029973
 20
221.9037661574103
 30
0.0
 10
512.7878383596595
 20
221.4671832984958
 30
0.0
 10
512.845903859591
 20
220.9342444885102
 30
0.0
 10
512.8822107032454
 20
220.4258015001443
 30
0.0
 10
512.9029911424925
 20
219.9935638681353
 30
0.0
 10
512.9141826391227
 20
219.6591725894934
 30
0.0
 10
512.9213010203409
 20
219.3173408823817
 30
0.0
 10
512.9221762073283
 20
219.0867311932146
 30
0.0
 10
512.92261391422
 20
218.9713964685839
 30
0.0
  0
LINE
  5
8C
330
1F
100
AcDbEntity
  8
0
  6
Continuous
 62
     7
370
    25
100
AcDbLine
 10
512.4758488096
 20
243.9713964686
 30
0.0
 11
514.0433314964
 21
243.9713964686
 31
0.0
  0
SPLINE
  5
8D
330
1F
100
AcDbEntity
  8
0
  6
Continuous
 62
     7
370
    25
100
AcDbSpline
210
0.0
220
0.0
230
1.0
 70
     8
 71
     3
 72
    27
 73
    23
 74
     0
 42
0.00000001
 43
0.00000001
 40
0.0
 40
0.0
 40
0.0
 40
0.0
 40
0.0208563489915317
 40
0.0416673804065132
 40
0.0624550111665641
 40
0.0832412322140839
 40
0.1040480389613754
 40
0.1248973616688895
 40
0.1875007604726099
 40
0.2500936133253869
 40
0.3123735380755744
 40
0.3746426112203093
 40
0.4997709778364475
 40
0.624231289615905
 40
0.6867810556742281
 40
0.7493412031492084
 40
0.8118415637384901
 40
0.8743628018905564
 40
0.9058057822226774
 40
0.9371746794721042
 40
0.968546943676068
 40
1.0
 40
1.0
 40
1.0
 40
1.0
 10
514.0433314963537
 20
243.9713964685839
 30
0.0
 10
514.0569108950233
 20
243.9703805024734
 30
0.0
 10
514.0840401864577
 20
243.9683507777875
 30
0.0
 10
514.1249981303821
 20
243.9518750324573
 30
0.0
 10
514.166068499905
 20
243.9255567876729
 30
0.0
 10
514.2072724353295
 20
243.8884396583917
 30
0.0
 10
514.2486019556229
 20
243.8407746001956
 30
0.0
 10
514.3176691487861
 20
243.7436955672657
 30
0.0
 10
514.4144464213713
 20
243.5589994158497
 30
0.0
 10
514.5371825597277
 20
243.2291260526681
 30
0.0
 10
514.6569233302989
 20
242.8116187365725
 30
0.0
 10
514.8109351408665
 20
242.1412850141204
 30
0.0
 10
514.9895282030212
 20
241.1016964074116
 30
0.0
 10
515.1399833346405
 20
239.8311657618866
 30
0.0
 10
515.2384289571694
 20
238.7095848761074
 30
0.0
 10
515.3004645248894
 20
237.8198951365763
 30
0.0
 10
515.3497682164881
 20
236.8933017488759
 30
0.0
 10
515.3795320233523
 20
236.0963769226301
 30
0.0
 10
515.3964054427878
 20
235.4488519212221
 30
0.0
 10
515.405430154139
 20
234.9585663977649
 30
0.0
 10
515.4110820803844
 20
234.4658075467726
 30
0.0
 10
515.4117774118095
 20
234.1363413903011
 30
0.0
 10
515.4121255246132
 20
233.9713964685839
 30
0.0
  0
SPLINE
  5
8E
330
1F
100
AcDbEntity
  8
0
  6
HIDDEN
 62
     7
370
    18
100
AcDbSpline
210
0.0
220
0.0
230
1.0
 70
     8
 71
     3
 72
     9
 73
     5
 74
     0
 42
0.00000001
 43
0.00000001
 40
0.0
 40
0.0
 40
0.0
 40
0.0
 40
0.998266587527041
 40
1.0
 40
1.0
 40
1.0
 40
1.0
 10
512.92261391422
 20
218.9713964685839
 30
0.0
 10
512.9225391616196
 20
219.2041864614981
 30
0.0
 10
512.9224642792171
 20
219.4373806761726
 30
0.0
 10
512.9135160986798
 20
219.6570666891067
 30
0.0
 10
512.9135005877921
 20
219.6574474955817
 30
0.0
  0
SPLINE
  5
8F
330
1F
100
AcDbEntity
  8
0
  6
HIDDEN
 62
     7
370
    18
100
AcDbSpline
210
0.0
220
0.0
230
1.0
 70
     8
 71
     3
 72
    29
 73
    25
 74
     0
 42
0.00000001
 43
0.00000001
 40
0.0
 40
0.0
 40
0.0
 40
0.0
 40
0.0156090569064975
 40
0.0311866552451088
 40
0.0467712323495993
 40
0.0624011740669932
 40
0.0936866373714418
 40
0.1250284327877347
 40
0.1875483707599927
 40
0.2498887273817774
 40
0.3125234624069521
 40
0.3748031591458271
 40
0.4374046548255528
 40
0.4998064921232899
 40
0.562245431812151
 40
0.6248195509657841
 40
0.6870922152693332
 40
0.7497244803734148
 40
0.8119990880488078
 40
0.8745682441775647
 40
0.9057411308441834
 40
0.9370643237025116
 40
0.968581606109158
 40
1.0
 40
1.0
 40
1.0
 40
1.0
 10
514.5369887097171
 20
218.9713964685839
 30
0.0
 10
514.5368798955773
 20
219.0287645622786
 30
0.0
 10
514.5366624866024
 20
219.1433851297377
 30
0.0
 10
514.5348962883927
 20
219.3148616111948
 30
0.0
 10
514.5320743734815
 20
219.4855715461174
 30
0.0
 10
514.5267809389273
 20
219.7118761214294
 30
0.0
 10
514.5173762917827
 20
219.9912144991509
 30
0.0
 10
514.4965289254408
 20
220.4242060919408
 30
0.0
 10
514.460090451316
 20
220.932719632014
 30
0.0
 10
514.4018208216106
 20
221.4660816896966
 30
0.0
 10
514.3317394389738
 20
221.9024365435367
 30
0.0
 10
514.2527499287977
 20
222.2265747022931
 30
0.0
 10
514.1683418214106
 20
222.4259847848
 30
0.0
 10
514.0817256624979
 20
222.4937305766463
 30
0.0
 10
513.9962953826562
 20
222.4273418208676
 30
0.0
 10
513.915240357959
 20
222.2290518547805
 30
0.0
 10
513.8413096721428
 20
221.9057934330464
 30
0.0
 10
513.7772303922227
 20
221.4701046607994
 30
0.0
 10
513.7249748994658
 20
220.9371027828698
 30
0.0
 10
513.6928241770706
 20
220.4294139773857
 30
0.0
 10
513.6745272771635
 20
219.9967741782137
 30
0.0
 10
513.6647023128669
 20
219.6613185736283
 30
0.0
 10
513.6584319126415
 20
219.3182924443545
 30
0.0
 10
513.6576576327101
 20
219.0869072715006
 30
0.0
 10
513.6572711010432
 20
218.9713964685839
 30
0.0
  0
SPLINE
  5
90
330
1F
100
AcDbEntity
  8
0
  6
HIDDEN
 62
     7
370
    18
100
AcDbSpline
210
0.0
220
0.0
230
1.0
 70
     8
 71
     3
 72
    29
 73
    25
 74
     0
 42
0.00000001
 43
0.00000001
 40
0.0
 40
0.0
 40
0.0
 40
0.0
 40
0.0156423001534742
 40
0.0312525558072119
 40
0.0468692823427241
 40
0.062530947401719
 40
0.093851663871441
 40
0.125223722022086
 40
0.1875150482801967
 40
0.2501603848065248
 40
0.3125210086307183
 40
0.3750466900624574
 40
0.4376069199422273
 40
0.499932028003215
 40
0.5625792713457948
 40
0.624856581753502
 40
0.6874683186519832
 40
0.7498653625256311
 40
0.8123220462703775
 40
0.874907151612554
 40
0.9060783093438946
 40
0.9372735278231294
 40
0.9686286607505568
 40
1.0
 40
1.0
 40
1.0
 40
1.0
 10
513.6572711010432
 20
218.9713964685839
 30
0.0
 10
513.6573658569914
 20
218.9139059539653
 30
0.0
 10
513.6575551747725
 20
218.7990426986334
 30
0.0
 10
513.6590937328353
 20
218.6272059271307
 30
0.0
 10
513.6615536614075
 20
218.4561429589795
 30
0.0
 10
513.6661707726511
 20
218.2294783066485
 30
0.0
 10
513.6743845224681
 20
217.9497899213731
 30
0.0
 10
513.6926190441694
 20
217.5173483486241
 30
0.0
 10
513.7247552449498
 20
217.0083807531078
 30
0.0
 10
513.7769000651347
 20
216.4753929292048
 30
0.0
 10
513.8410474580269
 20
216.0384526586398
 30
0.0
 10
513.914931596729
 20
215.7146838144867
 30
0.0
 10
513.9960257173022
 20
215.5159294501929
 30
0.0
 10
514.0814970687377
 20
215.4490122517715
 30
0.0
 10
514.1680318616293
 20
215.5163536530725
 30
0.0
 10
514.2525586419918
 20
215.7156039581148
 30
0.0
 10
514.3314821525018
 20
216.0390030390492
 30
0.0
 10
514.401660985725
 20
216.4755733106238
 30
0.0
 10
514.459963397083
 20
217.0085063585115
 30
0.0
 10
514.4964191723116
 20
217.5169537226544
 30
0.0
 10
514.5172850648048
 20
217.949199577471
 30
0.0
 10
514.5285226653813
 20
218.2835995170028
 30
0.0
 10
514.5356703995278
 20
218.6254411306447
 30
0.0
 10
514.536549197304
 20
218.8560581614848
 30
0.0
 10
514.5369887097171
 20
218.9713964685839
 30
0.0
  0
SPLINE
  5
91
330
1F
100
AcDbEntity
  8
0
  6
HIDDEN
 62
     7
370
    18
100
AcDbSpline
210
0.0
220
0.0
230
1.0
 70
     8
 71
     3
 72
     9
 73
     5
 74
     0
 42
0.00000001
 43
0.00000001
 40
0.0
 40
0.0
 40
0.0
 40
0.0
 40
0.9982666079913498
 40
1.0
 40
1.0
 40
1.0
 40
1.0
 10
514.5369887097171
 20
218.9713964685839
 30
0.0
 10
514.5369136116378
 20
218.7385985063211
 30
0.0
 10
514.536838383158
 20
218.5053963132403
 30
0.0
 10
514.5278533753776
 20
218.2857053176135
 30
0.0
 10
514.5278378008371
 20
218.2853245069973
 30
0.0
  0
LINE
  5
92
330
1F
100
AcDbEntity
  8
0
  6
HIDDEN
 62
     7
370
    18
100
AcDbLine
 10
510.9520739795
 20
243.9713964686
 30
0.0
 11
510.9520739795
 21
193.9713964686
 31
0.0
  0
LINE
  5
93
330
1F
100
AcDbEntity
  8
0
  6
HIDDEN
 62
     7
370
    18
100
AcDbLine
 10
514.0814992236
 20
222.4713964686
 30
0.0
 11
512.4689588246
 21
222.4713964686
 31
0.0
  0
LINE
  5
94
330
1F
100
AcDbEntity
  8
0
  6
HIDDEN
 62
     7
370
    18
100
AcDbLine
 10
512.4689651195
 20
215.4713964686
 30
0.0
 11
514.0814929211
 21
215.4713964686
 31
0.0
  0
LINE
  5
95
330
1F
100
AcDbEntity
  8
0
  6
Continuous
 62
     7
370
    25
100
AcDbLine
 10
554.2312175125
 20
313.5291206068
 30
0.0
 11
555.0837134424
 21
314.3143120558
 31
0.0
  0
LINE
  5
96
330
1F
100
AcDbEntity
  8
0
  6
Continuous
 62
     7
370
    25
100
AcDbLine
 10
474.5084137171
 20
396.3155068809
 30
0.0
 11
473.1477998069
 21
395.8231995688
 31
0.0
  0
SPLINE
  5
97
330
1F
100
AcDbEntity
  8
0
  6
Continuous
 62
     7
370
    25
100
AcDbSpline
210
0.0
220
0.0
230
1.0
 70
     8
 71
     3
 72
    27
 73
    23
 74
     0
 42
0.00000001
 43
0.00000001
 40
0.0
 40
0.0
 40
0.0
 40
0.0
 40
0.0208481973189663
 40
0.0416533851608544
 40
0.062438029817941
 40
0.0832246641920886
 40
0.1040358147221285
 40
0.1248939284157588
 40
0.1874780724542242
 40
0.2500978779581333
 40
0.3123570342200394
 40
0.3746525175722022
 40
0.4997722488242721
 40
0.6242839869496233
 40
0.6867917486875726
 40
0.7493416887146391
 40
0.8118607467584753
 40
0.8744215510898157
 40
0.9058432214714099
 40
0.9371965455446144
 40
0.968556997449925
 40
1.0
 40
1.0
 40
1.0
 40
1.0
 10
555.8457456894495
 20
342.2376316864312
 30
0.0
 10
555.8449179735392
 20
342.3272510231937
 30
0.0
 10
555.8432642492826
 20
342.5063048135486
 30
0.0
 10
555.829842240672
 20
342.7790810160561
 30
0.0
 10
555.8084032900908
 20
343.0544351047398
 30
0.0
 10
555.7781695395317
 20
343.3326972573838
 30
0.0
 10
555.7393465464821
 20
343.6137882436828
 30
0.0
 10
555.660326745631
 20
344.0866331823464
 30
0.0
 10
555.5100392237689
 20
344.7584088151235
 30
0.0
 10
555.242040790178
 20
345.6292999044433
 30
0.0
 10
554.903347394494
 20
346.49946316766
 30
0.0
 10
554.3606961372157
 20
347.6493983960947
 30
0.0
 10
553.5214601156772
 20
349.0489175407506
 30
0.0
 10
552.5011129488145
 20
350.3426298722344
 30
0.0
 10
551.6040076705551
 20
351.2831304514288
 30
0.0
 10
550.8943614479764
 20
351.9371043545734
 30
0.0
 10
550.1568281509676
 20
352.5326538970106
 30
0.0
 10
549.5240713433169
 20
352.9752651777065
 30
0.0
 10
549.0109347383466
 20
353.2951718036219
 30
0.0
 10
548.6230580845969
 20
353.5170719765984
 30
0.0
 10
548.2335683362979
 20
353.7217818519453
 30
0.0
 10
547.9734672459258
 20
353.8421766818733
 30
0.0
 10
547.8432457586084
 20
353.9024532220297
 30
0.0
  0
LINE
  5
98
330
1F
100
AcDbEntity
  8
0
  6
Continuous
 62
     7
370
    25
100
AcDbLine
 10
555.8457456895
 20
342.2376316864
 30
0.0
 11
555.8457456895
 21
317.7414073299
 31
0.0
  0
SPLINE
  5
99
330
1F
100
AcDbEntity
  8
0
  6
Continuous
 62
     7
370
    25
100
AcDbSpline
210
0.0
220
0.0
230
1.0
 70
     8
 71
     3
 72
    27
 73
    23
 74
     0
 42
0.00000001
 43
0.00000001
 40
0.0
 40
0.0
 40
0.0
 40
0.0
 40
0.0208563055669984
 40
0.0416673064140008
 40
0.0624549220936347
 40
0.0832411461392202
 40
0.104047976497139
 40
0.124897345889378
 40
0.1875006576134945
 40
0.2500936321213147
 40
0.3123734689628658
 40
0.3746426657187151
 40
0.4997710068078306
 40
0.6242315178669846
 40
0.6867811250605597
 40
0.7493412176066616
 40
0.8118416543333761
 40
0.8743630287933316
 40
0.9058059417143501
 40
0.9371747829959162
 40
0.9685469962044838
 40
1.0
 40
1.0
 40
1.0
 40
1.0
 10
547.8432457586084
 20
313.0754126277422
 30
0.0
 10
547.9296093068186
 20
313.0375074489306
 30
0.0
 10
548.1021488016356
 20
312.9617794301235
 30
0.0
 10
548.3607043384693
 20
312.8595156725067
 30
0.0
 10
548.618576486938
 20
312.7657742322027
 30
0.0
 10
548.875775719752
 20
312.6813472131491
 30
0.0
 10
549.1323024777191
 20
312.6060229527243
 30
0.0
 10
549.5585831555492
 20
312.4957627649801
 30
0.0
 10
550.1492367341036
 20
312.3848405781869
 30
0.0
 10
550.8863969166651
 20
312.3291293514826
 30
0.0
 10
551.5947438545462
 20
312.3591455412592
 30
0.0
 10
552.4930075470805
 20
312.5140093988878
 30
0.0
 10
553.5135152686686
 20
312.9199114919186
 30
0.0
 10
554.354493791195
 20
313.5949703836532
 30
0.0
 10
554.8983357816375
 20
314.2773708654909
 30
0.0
 10
555.238625835728
 20
314.8581374463849
 30
0.0
 10
555.5075423635925
 20
315.4998215814928
 30
0.0
 10
555.669188541079
 20
316.0815660563519
 30
0.0
 10
555.7606538661696
 20
316.5712896175862
 30
0.0
 10
555.8095204953117
 20
316.9507928708882
 30
0.0
 10
555.8401018218465
 20
317.3401124363364
 30
0.0
 10
555.8438627881002
 20
317.6075277370743
 30
0.0
 10
555.8457456894495
 20
317.7414073298586
 30
0.0
  0
ARC
  5
9A
330
1F
100
AcDbEntity
  8
0
  6
Continuous
 62
     7
370
    25
100
AcDbCircle
 10
700.7536950661
 20
659.6967223736
 30
0.0
 40
378.8508121640159
100
AcDbArc
 50
233.8098371921
 51
246.1955393406
  0
SPLINE
  5
9B
330
1F
100
AcDbEntity
  8
0
  6
Continuous
 62
     7
370
    25
100
AcDbSpline
210
0.0
220
0.0
230
1.0
 70
     8
 71
     3
 72
    27
 73
    23
 74
     0
 42
0.00000001
 43
0.00000001
 40
0.0
 40
0.0
 40
0.0
 40
0.0
 40
0.0208481973188437
 40
0.0416533851606593
 40
0.0624380298177223
 40
0.0832246641918997
 40
0.104035814722013
 40
0.1248939284157766
 40
0.1874780724545605
 40
0.2500978779581611
 40
0.3123570342223914
 40
0.3746525175722545
 40
0.4997722488243244
 40
0.6242839869496701
 40
0.6867917486950129
 40
0.7493416887145165
 40
0.8118607467606286
 40
0.8744215510897148
 40
0.9058432214729785
 40
0.9371965455467707
 40
0.9685569974515486
 40
1.0
 40
1.0
 40
1.0
 40
1.0
 10
470.9929319470642
 20
366.7258940392213
 30
0.0
 10
470.9935428347968
 20
366.6361495302167
 30
0.0
 10
470.9947633500112
 20
366.4568456536059
 30
0.0
 10
471.0046698669717
 20
366.1820400009676
 30
0.0
 10
471.020495338097
 20
365.9034453195723
 30
0.0
 10
471.0428165297704
 20
365.6206153439112
 30
0.0
 10
471.0714854190483
 20
365.333662518277
 30
0.0
 10
471.1298541910422
 20
364.8488959944083
 30
0.0
 10
471.2409274534602
 20
364.154482451517
 30
0.0
 10
471.4392938895498
 20
363.2433936656567
 30
0.0
 10
471.6904812927984
 20
362.3227142682761
 30
0.0
 10
472.0939039346536
 20
361.0924040709843
 30
0.0
 10
472.7203077459694
 20
359.570019506647
 30
0.0
 10
473.4874934450129
 20
358.1301601705686
 30
0.0
 10
474.1664787758038
 20
357.0637416259516
 30
0.0
 10
474.7060003371557
 20
356.3115568463403
 30
0.0
 10
475.2693664396627
 20
355.6154627227102
 30
0.0
 10
475.7550580810928
 20
355.0879525286719
 30
0.0
 10
476.1504081733727
 20
354.7000491963365
 30
0.0
 10
476.4500159477623
 20
354.427192483938
 30
0.0
 10
476.7515745411856
 20
354.1717210333781
 30
0.0
 10
476.953603391059
 20
354.017801812606
 30
0.0
 10
477.0547505922239
 20
353.9407410443229
 30
0.0
  0
LINE
  5
9C
330
1F
100
AcDbEntity
  8
0
  6
Continuous
 62
     7
370
    25
100
AcDbLine
 10
470.9929319471
 20
391.2221183958
 30
0.0
 11
470.9929319471
 21
366.7258940392
 31
0.0
  0
SPLINE
  5
9D
330
1F
100
AcDbEntity
  8
0
  6
Continuous
 62
     7
370
    25
100
AcDbSpline
210
0.0
220
0.0
230
1.0
 70
     8
 71
     3
 72
    27
 73
    23
 74
     0
 42
0.00000001
 43
0.00000001
 40
0.0
 40
0.0
 40
0.0
 40
0.0
 40
0.020856305559425
 40
0.0416673064018806
 40
0.0624549220800021
 40
0.0832411461271188
 40
0.1040479764896211
 40
0.1248973458893826
 40
0.1875006575999646
 40
0.250093632121475
 40
0.3123734689324756
 40
0.3746426657185105
 40
0.4997710068076648
 40
0.6242315178668553
 40
0.6867811250610057
 40
0.7493412176065767
 40
0.8118416543342857
 40
0.874363028793279
 40
0.905805941714643
 40
0.9371747829963362
 40
0.9685469962048048
 40
1.0
 40
1.0
 40
1.0
 40
1.0
 10
477.0547505922239
 20
394.7677816386104
 30
0.0
 10
476.987652691971
 20
394.8168086392209
 30
0.0
 10
476.8536026436154
 20
394.9147561424631
 30
0.0
 10
476.6531523907223
 20
395.0505633664472
 30
0.0
 10
476.4535425573683
 20
395.1779389253245
 30
0.0
 10
476.2547924425631
 20
395.2961079020059
 30
0.0
 10
476.0568903749002
 20
395.4052754758244
 30
0.0
 10
475.7285749526688
 20
395.5720898018745
 30
0.0
 10
475.2751787716778
 20
395.7622489977111
 30
0.0
 10
474.7120709962524
 20
395.9184385402377
 30
0.0
 10
474.1735089984415
 20
395.9864371100131
 30
0.0
 10
473.4936005329826
 20
395.9576270420137
 30
0.0
 10
472.7262598137515
 20
395.6978751485005
 30
0.0
 10
472.0985255876052
 20
395.1459195687559
 30
0.0
 10
471.6942012100073
 20
394.5440608904331
 30
0.0
 10
471.4418236722909
 20
394.0140451249758
 30
0.0
 10
471.2427741290811
 20
393.4126943415899
 30
0.0
 10
471.1233041329559
 20
392.8552976579725
 30
0.0
 10
471.0557485674412
 20
392.3793769071416
 30
0.0
 10
471.0196698953732
 20
392.0072559843208
 30
0.0
 10
470.9970972715689
 20
391.6225597445504
 30
0.0
 10
470.994321578374
 20
391.3557132298442
 30
0.0
 10
470.9929319470642
 20
391.2221183957938
 30
0.0
  0
ARC
  5
9E
330
1F
100
AcDbEntity
  8
0
  6
Continuous
 62
     7
370
    25
100
AcDbCircle
 10
700.7536950661
 20
700.5237629679
 30
0.0
 40
378.8508121640035
100
AcDbArc
 50
233.8098371921
 51
246.1955393406
  0
SPLINE
  5
9F
330
1F
100
AcDbEntity
  8
0
  6
Continuous
 62
     7
370
    25
100
AcDbSpline
210
0.0
220
0.0
230
1.0
 70
     8
 71
     3
 72
    29
 73
    25
 74
     0
 42
0.00000001
 43
0.00000001
 40
0.0
 40
0.0
 40
0.0
 40
0.0
 40
0.0156090596955973
 40
0.0311866571588254
 40
0.0467712218497776
 40
0.0624011318373729
 40
0.0936866564238193
 40
0.1250283819911281
 40
0.1875481454823479
 40
0.2498885461741617
 40
0.3125232072681688
 40
0.3748027727348771
 40
0.4374043834363575
 40
0.499805986808242
 40
0.5622451695627639
 40
0.6248192576428497
 40
0.6870920392908911
 40
0.749724334758132
 40
0.8119990667827262
 40
0.8745681990177511
 40
0.9057410747685565
 40
0.9370643136106175
 40
0.9685815698068948
 40
1.0
 40
1.0
 40
1.0
 40
1.0
 10
550.5951216040013
 20
332.2650514696829
 30
0.0
 10
550.5944734773649
 20
332.2184952363363
 30
0.0
 10
550.5931785304814
 20
332.1254766102112
 30
0.0
 10
550.5826571272684
 20
331.9901013145401
 30
0.0
 10
550.5658418737734
 20
331.8581268847141
 30
0.0
 10
550.5342857277647
 20
331.6872583069961
 30
0.0
 10
550.478179409588
 20
331.4839160618354
 30
0.0
 10
550.3535955630255
 20
331.1853388091736
 30
0.0
 10
550.1351848109764
 20
330.8665796988694
 30
0.0
 10
549.7836074972976
 20
330.5866467055714
 30
0.0
 10
549.3571693778307
 20
330.4195289484172
 30
0.0
 10
548.8716799565865
 20
330.370884049679
 30
0.0
 10
548.3470178514043
 20
330.4422950409926
 30
0.0
 10
547.8020721464014
 20
330.6311347423097
 30
0.0
 10
547.2578269562762
 20
330.930067865229
 30
0.0
 10
546.7349752844325
 20
331.3279172579157
 30
0.0
 10
546.2523653683742
 20
331.8103727428247
 30
0.0
 10
545.8294779243207
 20
332.3581638656795
 30
0.0
 10
545.4813640957123
 20
332.9518573652355
 30
0.0
 10
545.2655772668138
 20
333.4648311002829
 30
0.0
 10
545.1423500921125
 20
333.8743522526046
 30
0.0
 10
545.0760507833063
 20
334.1785435309324
 30
0.0
 10
545.033680084244
 20
334.4779919717732
 30
0.0
 10
545.0284446225833
 20
334.6693142818312
 30
0.0
 10
545.0258310022964
 20
334.7648252230444
 30
0.0
  0
SPLINE
  5
A0
330
1F
100
AcDbEntity
  8
0
  6
Continuous
 62
     7
370
    25
100
AcDbSpline
210
0.0
220
0.0
230
1.0
 70
     8
 71
     3
 72
    29
 73
    25
 74
     0
 42
0.00000001
 43
0.00000001
 40
0.0
 40
0.0
 40
0.0
 40
0.0
 40
0.0156423034789533
 40
0.0312525614661383
 40
0.0468692828091262
 40
0.0625309286792312
 40
0.0938516604627271
 40
0.1252236456762821
 40
0.1875149256581001
 40
0.2501602774383942
 40
0.3125206365778715
 40
0.3750465033429102
 40
0.4376065080547368
 40
0.4999317491139855
 40
0.5625789634633488
 40
0.6248563037858232
 40
0.6874681002588076
 40
0.7498652518913024
 40
0.8123219475629615
 40
0.8749071569700682
 40
0.9060782501009105
 40
0.9372735371376636
 40
0.9686286411147151
 40
1.0
 40
1.0
 40
1.0
 40
1.0
 10
545.0258310022964
 20
334.7648252230444
 30
0.0
 10
545.0264716315145
 20
334.8114743161041
 30
0.0
 10
545.0277515775301
 20
334.9046769348965
 30
0.0
 10
545.0381518348202
 20
335.0402313086019
 30
0.0
 10
545.0547747169961
 20
335.1723108029752
 30
0.0
 10
545.0859591523258
 20
335.3431379743422
 30
0.0
 10
545.1413878662573
 20
335.5461886820201
 30
0.0
 10
545.2641974801973
 20
335.8432164584905
 30
0.0
 10
545.4798932807986
 20
336.1604147255815
 30
0.0
 10
545.8272869133441
 20
336.4374751799241
 30
0.0
 10
546.250639520562
 20
336.6020261540406
 30
0.0
 10
546.7329709715569
 20
336.6480410178401
 30
0.0
 10
547.2560902346421
 20
336.5742928615946
 30
0.0
 10
547.8006215098766
 20
336.3840879532934
 30
0.0
 10
548.3450721910347
 20
336.0851596837586
 30
0.0
 10
548.8704941313594
 20
335.6878678054925
 30
0.0
 10
549.355593378056
 20
335.2079205808729
 30
0.0
 10
549.7826367015415
 20
334.6619689684994
 30
0.0
 10
550.134420904275
 20
334.0711271275255
 30
0.0
 10
550.3529382338472
 20
333.5594565094421
 30
0.0
 10
550.4776343425167
 20
333.1514966303626
 30
0.0
 10
550.5446772849939
 20
332.8488862659711
 30
0.0
 10
550.5872702822996
 20
332.5509898165218
 30
0.0
 10
550.5925040446757
 20
332.3603807167489
 30
0.0
 10
550.5951216040013
 20
332.2650514696829
 30
0.0
  0
SPLINE
  5
A1
330
1F
100
AcDbEntity
  8
0
  6
Continuous
 62
     7
370
    25
100
AcDbSpline
210
0.0
220
0.0
230
1.0
 70
     8
 71
     3
 72
    29
 73
    25
 74
     0
 42
0.00000001
 43
0.00000001
 40
0.0
 40
0.0
 40
0.0
 40
0.0
 40
0.0156101369899669
 40
0.0311884788037494
 40
0.0467732970491667
 40
0.0624028157580412
 40
0.0936897006688876
 40
0.1250275156857189
 40
0.1875461052502642
 40
0.2498847677018642
 40
0.3125187047464763
 40
0.3747980538701386
 40
0.4374005788421028
 40
0.4998069230187668
 40
0.5622452615873819
 40
0.6248234768097795
 40
0.6870958432370675
 40
0.7497283850187294
 40
0.8120016394787207
 40
0.8745696435447801
 40
0.9057434075811406
 40
0.9370641758765453
 40
0.9685834193082076
 40
1.0
 40
1.0
 40
1.0
 40
1.0
 10
479.2649003519483
 20
372.7278024228001
 30
0.0
 10
479.264395245452
 20
372.6813256225491
 30
0.0
 10
479.2633860612748
 20
372.5884666873314
 30
0.0
 10
479.255186432312
 20
372.4544253217817
 30
0.0
 10
479.242082062378
 20
372.3245888510818
 30
0.0
 10
479.2174894892584
 20
372.1577297252941
 30
0.0
 10
479.1737653143708
 20
371.9615250178011
 30
0.0
 10
479.0766682960809
 20
371.678782226837
 30
0.0
 10
478.9064281982214
 20
371.3877888473684
 30
0.0
 10
478.6323481924365
 20
371.1526703368911
 30
0.0
 10
478.2999349174518
 20
371.040156812942
 30
0.0
 10
477.9216341180153
 20
371.0539686612602
 30
0.0
 10
477.5130876838422
 20
371.1931113681715
 30
0.0
 10
477.0891503381201
 20
371.4523964212738
 30
0.0
 10
476.6661915342919
 20
371.8216206908098
 30
0.0
 10
476.2602596337138
 20
372.2868063921313
 30
0.0
 10
475.885842755035
 20
372.8312190585966
 30
0.0
 10
475.5579060322168
 20
373.4331539893546
 30
0.0
 10
475.287984170445
 20
374.0713939564581
 30
0.0
 10
475.1206453868135
 20
374.6120362886654
 30
0.0
 10
475.0250765932584
 20
375.0373920301806
 30
0.0
 10
474.9736533926488
 20
375.350125849161
 30
0.0
 10
474.9407855478208
 20
375.6550400144455
 30
0.0
 10
474.9367236520071
 20
375.8470413723398
 30
0.0
 10
474.9346960170412
 20
375.9428854521979
 30
0.0
  0
SPLINE
  5
A2
330
1F
100
AcDbEntity
  8
0
  6
Continuous
 62
     7
370
    25
100
AcDbSpline
210
0.0
220
0.0
230
1.0
 70
     8
 71
     3
 72
    29
 73
    25
 74
     0
 42
0.00000001
 43
0.00000001
 40
0.0
 40
0.0
 40
0.0
 40
0.0
 40
0.0156416010518398
 40
0.0312514894789271
 40
0.0468683357409612
 40
0.0625307587610918
 40
0.0938491969148934
 40
0.1252241753532462
 40
0.1875170916080256
 40
0.2501622195353559
 40
0.3125274455918754
 40
0.3750495537574295
 40
0.4376105854393472
 40
0.4999321535570735
 40
0.562578056535833
 40
0.6248521161283895
 40
0.6874640083454853
 40
0.7498611757800309
 40
0.812318540589352
 40
0.874906497818848
 40
0.9060754435093634
 40
0.9372738187141552
 40
0.9686277792028488
 40
0.9999999999999999
 40
0.9999999999999999
 40
0.9999999999999999
 40
0.9999999999999999
 10
474.9346960170412
 20
375.9428854521979
 30
0.0
 10
474.9351929369531
 20
375.9894495426149
 30
0.0
 10
474.9361857692946
 20
376.0824833169033
 30
0.0
 10
474.9442530389319
 20
376.2166873124381
 30
0.0
 10
474.9571473192961
 20
376.346612527939
 30
0.0
 10
474.9813358887307
 20
376.5133891729907
 30
0.0
 10
475.0243297640291
 20
376.7092466327843
 30
0.0
 10
475.1195808946434
 20
376.9903291813359
 30
0.0
 10
475.2868583972183
 20
377.2795309342036
 30
0.0
 10
475.5562399094352
 20
377.5116356836137
 30
0.0
 10
475.884548924833
 20
377.6216452092166
 30
0.0
 10
476.2587503393335
 20
377.6058133305413
 30
0.0
 10
476.6648710878857
 20
377.4652267948296
 30
0.0
 10
477.0880238803128
 20
377.2055360104644
 30
0.0
 10
477.5115452823721
 20
376.8370699245198
 30
0.0
 10
477.9206626417902
 20
376.3724820436966
 30
0.0
 10
478.2986581827889
 20
375.8302002399842
 30
0.0
 10
478.6315560744747
 20
375.2292323940381
 30
0.0
 10
478.9058148888419
 20
374.5930396528684
 30
0.0
 10
479.0761505870639
 20
374.0532563655078
 30
0.0
 10
479.1733414385069
 20
373.6292839967813
 30
0.0
 10
479.2255898000925
 20
373.3180891149855
 30
0.0
 10
479.258782243717
 20
373.0147425622183
 30
0.0
 10
479.2628605867871
 20
372.8234676967061
 30
0.0
 10
479.2649003519484
 20
372.7278024228001
 30
0.0
  0
SPLINE
  5
A3
330
1F
100
AcDbEntity
  8
0
  6
Continuous
 62
     7
370
    25
100
AcDbSpline
210
0.0
220
0.0
230
1.0
 70
     8
 71
     3
 72
    27
 73
    23
 74
     0
 42
0.00000001
 43
0.00000001
 40
0.0
 40
0.0
 40
0.0
 40
0.0
 40
0.0208563489915317
 40
0.0416673804065132
 40
0.0624550111665641
 40
0.0832412322140839
 40
0.1040480389613754
 40
0.1248973616688895
 40
0.1875007604726099
 40
0.2500936133253869
 40
0.3123735380755744
 40
0.3746426112203093
 40
0.4997709778364475
 40
0.624231289615905
 40
0.6867810556742281
 40
0.7493412031492084
 40
0.8118415637384901
 40
0.8743628018905564
 40
0.9058057822226774
 40
0.9371746794721042
 40
0.968546943676068
 40
1.0
 40
1.0
 40
1.0
 40
1.0
 10
548.6973292522116
 20
354.6891068967212
 30
0.0
 10
548.7836673631273
 20
354.6495217196396
 30
0.0
 10
548.9561559857792
 20
354.5704373778602
 30
0.0
 10
549.2146362348889
 20
354.4412051854275
 30
0.0
 10
549.4724338957303
 20
354.3044220254896
 30
0.0
 10
549.7295595010712
 20
354.1593181493052
 30
0.0
 10
549.9860134632179
 20
354.0060917185497
 30
0.0
 10
550.4121752748343
 20
353.737191765737
 30
0.0
 10
551.0026680513286
 20
353.3245053467406
 30
0.0
 10
551.7396366951215
 20
352.7299101196629
 30
0.0
 10
552.4478070431715
 20
352.0779376532277
 30
0.0
 10
553.3458579158081
 20
351.1378855691252
 30
0.0
 10
554.3661408894828
 20
349.8458270452819
 30
0.0
 10
555.2069520873285
 20
348.4458297376784
 30
0.0
 10
555.7506920051575
 20
347.2964906022816
 30
0.0
 10
556.0909206293039
 20
346.4242591567271
 30
0.0
 10
556.3597896909155
 20
345.5526949679818
 30
0.0
 10
556.5214081067576
 20
344.8329724111975
 30
0.0
 10
556.6128580404081
 20
344.2652244943652
 30
0.0
 10
556.6617165915678
 20
343.8440487613248
 30
0.0
 10
556.6922928742241
 20
343.4286540152473
 30
0.0
 10
556.6960532200302
 20
343.1580283251419
 30
0.0
 10
556.6979358107984
 20
343.022541470446
 30
0.0
  0
ARC
  5
A4
330
1F
100
AcDbEntity
  8
0
  6
Continuous
 62
     7
370
    25
100
AcDbCircle
 10
701.123194308
 20
699.8837021556
 30
0.0
 40
377.3499078228918
100
AcDbArc
 50
233.8299534635
 51
246.1754230692
  0
LINE
  5
A5
330
1F
100
AcDbEntity
  8
0
  6
Continuous
 62
     7
370
    25
100
AcDbLine
 10
556.6979358108
 20
343.0225414704
 30
0.0
 11
556.6979358108
 21
318.5263171139
 31
0.0
  0
SPLINE
  5
A6
330
1F
100
AcDbEntity
  8
0
  6
Continuous
 62
     7
370
    25
100
AcDbSpline
210
0.0
220
0.0
230
1.0
 70
     8
 71
     3
 72
    10
 73
     6
 74
     0
 42
0.00000001
 43
0.00000001
 40
0.0
 40
0.0
 40
0.0
 40
0.0
 40
0.1922085130087343
 40
0.5946934729079597
 40
1.0
 40
1.0
 40
1.0
 40
1.0
 10
546.500797438876
 20
336.6052176377938
 30
0.0
 10
546.4577887221933
 20
336.5472196935387
 30
0.0
 10
546.3247196781172
 20
336.3677739533333
 30
0.0
 10
546.1994885580967
 20
335.9703088942072
 30
0.0
 10
546.1764265137087
 20
335.6054410548439
 30
0.0
 10
546.1648552143461
 20
335.4223699044276
 30
0.0
  0
SPLINE
  5
A7
330
1F
100
AcDbEntity
  8
0
  6
Continuous
 62
     7
370
    25
100
AcDbSpline
210
0.0
220
0.0
230
1.0
 70
     8
 71
     3
 72
    18
 73
    14
 74
     0
 42
0.00000001
 43
0.00000001
 40
0.0
 40
0.0
 40
0.0
 40
0.0
 40
0.0950780572142539
 40
0.1904309105737508
 40
0.2852906447788279
 40
0.3806894800428519
 40
0.4756547433656175
 40
0.5708713630444097
 40
0.666140594487861
 40
0.7610517729795567
 40
0.8564535120199762
 40
0.9512919023249663
 40
1.0
 40
1.0
 40
1.0
 40
1.0
 10
546.1648552143461
 20
335.4223699044276
 30
0.0
 10
546.1752111558045
 20
335.2299857624407
 30
0.0
 10
546.1959529696312
 20
334.8446614466947
 30
0.0
 10
546.3615148790942
 20
334.2281162476507
 30
0.0
 10
546.6187801175373
 20
333.6125695449431
 30
0.0
 10
546.9667836485443
 20
333.0189912616031
 30
0.0
 10
547.3901944093462
 20
332.4701821504472
 30
0.0
 10
547.8728052107584
 20
331.987451728468
 30
0.0
 10
548.3959921990748
 20
331.5896043345646
 30
0.0
 10
548.9412902048028
 20
331.2889567460609
 30
0.0
 10
549.483962451133
 20
331.1050255159392
 30
0.0
 10
549.9300155287184
 20
331.0298307792876
 30
0.0
 10
550.1694736992869
 20
331.0628826426906
 30
0.0
 10
550.250726484536
 20
331.0740977787321
 30
0.0
  0
SPLINE
  5
A8
330
1F
100
AcDbEntity
  8
0
  6
Continuous
 62
     7
370
    25
100
AcDbSpline
210
0.0
220
0.0
230
1.0
 70
     8
 71
     3
 72
    12
 73
     8
 74
     0
 42
0.00000001
 43
0.00000001
 40
0.0
 40
0.0
 40
0.0
 40
0.0
 40
0.2031318158330199
 40
0.4067741686740923
 40
0.6105411051000065
 40
0.8131748031634505
 40
0.9999999999999999
 40
0.9999999999999999
 40
0.9999999999999999
 40
0.9999999999999999
 10
556.6979358107984
 20
318.5263171138733
 30
0.0
 10
556.6845923920619
 20
318.1756811843833
 30
0.0
 10
556.6578720181924
 20
317.4735280620836
 30
0.0
 10
556.4435517947805
 20
316.5119200321198
 30
0.0
 10
556.1026464134476
 20
315.6441695747436
 30
0.0
 10
555.6543138698329
 20
314.8960308081146
 30
0.0
 10
555.2656722920578
 20
314.505941991728
 30
0.0
 10
555.0792391659501
 20
314.3188146186997
 30
0.0
  0
SPLINE
  5
A9
330
1F
100
AcDbEntity
  8
0
  6
Continuous
 62
     7
370
    25
100
AcDbSpline
210
0.0
220
0.0
230
1.0
 70
     8
 71
     3
 72
    13
 73
     9
 74
     0
 42
0.00000001
 43
0.00000001
 40
0.0
 40
0.0
 40
0.0
 40
0.0
 40
0.0591387258039897
 40
0.246956369396694
 40
0.434913409298197
 40
0.6228204191281904
 40
0.8113306741689617
 40
0.9999999999999999
 40
0.9999999999999999
 40
0.9999999999999999
 40
0.9999999999999999
 10
474.5148245657908
 20
396.2983511514174
 30
0.0
 10
474.5763314782956
 20
396.3261258571998
 30
0.0
 10
474.8331771170621
 20
396.4421097646622
 30
0.0
 10
475.3534459466663
 20
396.4861393639247
 30
0.0
 10
476.0635194845157
 20
396.4261776471248
 30
0.0
 10
476.8219701280261
 20
396.1943939464649
 30
0.0
 10
477.6100179719149
 20
395.8208448601397
 30
0.0
 10
478.1482119138248
 20
395.4475564596661
 30
0.0
 10
478.4174223730755
 20
395.2608335445626
 30
0.0
  0
SPLINE
  5
AA
330
1F
100
AcDbEntity
  8
0
  6
Continuous
 62
     7
370
    25
100
AcDbSpline
210
0.0
220
0.0
230
1.0
 70
     8
 71
     3
 72
    10
 73
     6
 74
     0
 42
0.00000001
 43
0.00000001
 40
0.0
 40
0.0
 40
0.0
 40
0.0
 40
0.0125177046662676
 40
0.5045278785129207
 40
1.0
 40
1.0
 40
1.0
 40
1.0
 10
476.2463651951418
 20
377.5857538420509
 30
0.0
 10
476.2446677140133
 20
377.5828522159984
 30
0.0
 10
476.1762504941296
 20
377.4659017625787
 30
0.0
 10
476.1057013732006
 20
377.1415724345076
 30
0.0
 10
476.0860776451115
 20
376.7821973088355
 30
0.0
 10
476.076231382314
 20
376.6018797914805
 30
0.0
  0
SPLINE
  5
AB
330
1F
100
AcDbEntity
  8
0
  6
Continuous
 62
     7
370
    25
100
AcDbSpline
210
0.0
220
0.0
230
1.0
 70
     8
 71
     3
 72
    18
 73
    14
 74
     0
 42
0.00000001
 43
0.00000001
 40
0.0
 40
0.0
 40
0.0
 40
0.0
 40
0.0991414718172043
 40
0.1985711731350741
 40
0.2974885226019585
 40
0.3969650355442341
 40
0.4959975990287147
 40
0.5952784473496155
 40
0.6946218190873948
 40
0.7935843126853955
 40
0.8930621167556267
 40
0.9919493351453936
 40
1.0
 40
1.0
 40
1.0
 40
1.0
 10
476.076231382314
 20
376.6018797914805
 30
0.0
 10
476.0842565837697
 20
376.4081500624736
 30
0.0
 10
476.1003303179849
 20
376.0201273828127
 30
0.0
 10
476.2286156565079
 20
375.3821727988622
 30
0.0
 10
476.4279165514127
 20
374.7335108830588
 30
0.0
 10
476.6974892203892
 20
374.0952041040744
 30
0.0
 10
477.0254901884529
 20
373.492016341784
 30
0.0
 10
477.3995445863079
 20
372.9470147917728
 30
0.0
 10
477.8051871055937
 20
372.4819780426951
 30
0.0
 10
478.2288965227282
 20
372.1091823347841
 30
0.0
 10
478.6491093827419
 20
371.860451651395
 30
0.0
 10
478.9403982847096
 20
371.7358487318081
 30
0.0
 10
479.0749430376108
 20
371.7322809730824
 30
0.0
 10
479.0850720459723
 20
371.7320123794942
 30
0.0
  0
SPLINE
  5
AC
330
1F
100
AcDbEntity
  8
0
  6
HIDDEN
 62
     7
370
    18
100
AcDbSpline
210
0.0
220
0.0
230
1.0
 70
     8
 71
     3
 72
    21
 73
    17
 74
     0
 42
0.00000001
 43
0.00000001
 40
0.0
 40
0.0
 40
0.0
 40
0.0
 40
0.0737700108649879
 40
0.147829554381197
 40
0.2218539141393324
 40
0.2956656474150297
 40
0.3698259282668176
 40
0.4435658395103597
 40
0.5176867645766903
 40
0.591571291713394
 40
0.6654997485281736
 40
0.7395882594577962
 40
0.8133198442131901
 40
0.8874772006486479
 40
0.9612110863797175
 40
1.0
 40
1.0
 40
1.0
 40
1.0
 10
551.7366569692745
 20
332.9240458089655
 30
0.0
 10
551.726175739475
 20
333.1159246557122
 30
0.0
 10
551.7051721431294
 20
333.5004354355962
 30
0.0
 10
551.5373235704106
 20
334.1154467219097
 30
0.0
 10
551.276834053477
 20
334.7281903864403
 30
0.0
 10
550.9246286594266
 20
335.3194867634627
 30
0.0
 10
550.498110118027
 20
335.8647886490403
 30
0.0
 10
550.0123708683404
 20
336.345386042987
 30
0.0
 10
549.4874848074043
 20
336.7423129268413
 30
0.0
 10
548.9423268158504
 20
337.0416208665773
 30
0.0
 10
548.3977826401693
 20
337.2320553998802
 30
0.0
 10
547.8749813248776
 20
337.3056605200666
 30
0.0
 10
547.3911596499908
 20
337.2610848371443
 30
0.0
 10
546.9718443860925
 20
337.0934639288186
 30
0.0
 10
546.6671810214654
 20
336.8724972211155
 30
0.0
 10
546.5434500418116
 20
336.6737350345393
 30
0.0
 10
546.500797438876
 20
336.6052176377938
 30
0.0
  0
SPLINE
  5
AD
330
1F
100
AcDbEntity
  8
0
  6
HIDDEN
 62
     7
370
    18
100
AcDbSpline
210
0.0
220
0.0
230
1.0
 70
     8
 71
     3
 72
    13
 73
     9
 74
     0
 42
0.00000001
 43
0.00000001
 40
0.0
 40
0.0
 40
0.0
 40
0.0
 40
0.0892897917766944
 40
0.2712035752628635
 40
0.4532912342073017
 40
0.6357532964442606
 40
0.8173543646123498
 40
1.0
 40
1.0
 40
1.0
 40
1.0
 10
550.250726484536
 20
331.0740977787321
 30
0.0
 10
550.3308506166438
 20
331.0791854861938
 30
0.0
 10
550.5742149549413
 20
331.0946385903621
 30
0.0
 10
550.922022366363
 20
331.2489008769921
 30
0.0
 10
551.2764980877247
 20
331.5233302235697
 30
0.0
 10
551.5364977642867
 20
331.9072675945843
 30
0.0
 10
551.7049723285024
 20
332.3741085119161
 30
0.0
 10
551.7260752497407
 20
332.7403832489139
 30
0.0
 10
551.7366569692745
 20
332.9240458089655
 30
0.0
  0
SPLINE
  5
AE
330
1F
100
AcDbEntity
  8
0
  6
HIDDEN
 62
     7
370
    18
100
AcDbSpline
210
0.0
220
0.0
230
1.0
 70
     8
 71
     3
 72
    15
 73
    11
 74
     0
 42
0.00000001
 43
0.00000001
 40
0.0
 40
0.0
 40
0.0
 40
0.0
 40
0.0115445658431968
 40
0.1529144482854259
 40
0.2935367954258501
 40
0.4345631699108142
 40
0.5756942126830787
 40
0.7167876894623825
 40
0.8583341240788922
 40
1.0
 40
1.0
 40
1.0
 40
1.0
 10
555.0792391659501
 20
314.3188146186997
 30
0.0
 10
555.0633720556281
 20
314.3013252719537
 30
0.0
 10
554.8532030069407
 20
314.0696687640463
 30
0.0
 10
554.3459321886784
 20
313.7482700560311
 30
0.0
 10
553.5644531961397
 20
313.3751277196241
 30
0.0
 10
552.6898867358692
 20
313.1649610290282
 30
0.0
 10
551.7513514331563
 20
313.1029970625386
 30
0.0
 10
550.7612266798452
 20
313.1983703889335
 30
0.0
 10
549.7371740683228
 20
313.4363810988273
 30
0.0
 10
549.0440416309385
 20
313.7201313451742
 30
0.0
 10
548.6973292522111
 20
313.8620663024337
 30
0.0
  0
ARC
  5
AF
330
1F
100
AcDbEntity
  8
0
  6
HIDDEN
 62
     7
370
    18
100
AcDbCircle
 10
701.123194308
 20
659.0566615613
 30
0.0
 40
377.3499078228886
100
AcDbArc
 50
233.8299534635
 51
246.1754230692
  0
SPLINE
  5
B0
330
1F
100
AcDbEntity
  8
0
  6
HIDDEN
 62
     7
370
    18
100
AcDbSpline
210
0.0
220
0.0
230
1.0
 70
     8
 71
     3
 72
    14
 73
    10
 74
     0
 42
0.00000001
 43
0.00000001
 40
0.0
 40
0.0
 40
0.0
 40
0.0
 40
0.1494390708742851
 40
0.2992537312969943
 40
0.4491600446873817
 40
0.5982326626459603
 40
0.7479239662231354
 40
0.8979152822949797
 40
1.0
 40
1.0
 40
1.0
 40
1.0
 10
472.3525828933483
 20
391.7140772812085
 30
0.0
 10
472.3624113956628
 20
392.0627399688449
 30
0.0
 10
472.3820931025516
 20
392.760941648157
 30
0.0
 10
472.5408308914021
 20
393.6896216365107
 30
0.0
 10
472.7918651585096
 20
394.5086839615646
 30
0.0
 10
473.1390655955528
 20
395.200287144663
 30
0.0
 10
473.5781294342608
 20
395.7474377560289
 30
0.0
 10
474.0370317808222
 20
396.1238802746057
 30
0.0
 10
474.3771036541119
 20
396.2480609650189
 30
0.0
 10
474.5148245657908
 20
396.2983511514174
 30
0.0
  0
SPLINE
  5
B1
330
1F
100
AcDbEntity
  8
0
  6
HIDDEN
 62
     7
370
    18
100
AcDbSpline
210
0.0
220
0.0
230
1.0
 70
     8
 71
     3
 72
    21
 73
    17
 74
     0
 42
0.00000001
 43
0.00000001
 40
0.0
 40
0.0
 40
0.0
 40
0.0
 40
0.0713870222190795
 40
0.1430491297084817
 40
0.2146785256228978
 40
0.2861015169629151
 40
0.3578629597102055
 40
0.4292182090258221
 40
0.5009434594538069
 40
0.5724443760414542
 40
0.6439813488523042
 40
0.7156789416757259
 40
0.7870259063640601
 40
0.8587856380259097
 40
0.9301336003641992
 40
1.0
 40
1.0
 40
1.0
 40
1.0
 10
480.4039245639972
 20
373.3853471041837
 30
0.0
 10
480.3957653064188
 20
373.5785713432685
 30
0.0
 10
480.3794153500907
 20
373.9657643985391
 30
0.0
 10
480.2487403833779
 20
374.6023463157856
 30
0.0
 10
480.0459031250393
 20
375.2487020898382
 30
0.0
 10
479.7716105707321
 20
375.8855448167042
 30
0.0
 10
479.4394702491166
 20
376.4859892782583
 30
0.0
 10
479.0613573453559
 20
377.0292485829855
 30
0.0
 10
478.6530549386363
 20
377.4936761798749
 30
0.0
 10
478.2293788430939
 20
377.8629046483163
 30
0.0
 10
477.8066576107629
 20
378.1230360681805
 30
0.0
 10
477.4010676213925
 20
378.2638625195494
 30
0.0
 10
477.0265513447797
 20
378.2808233370473
 30
0.0
 10
476.7000547841845
 20
378.1700426591623
 30
0.0
 10
476.4280041182777
 20
377.9464256932652
 30
0.0
 10
476.3064865320958
 20
377.705133948045
 30
0.0
 10
476.2463651951419
 20
377.5857538420509
 30
0.0
  0
LINE
  5
B2
330
1F
100
AcDbEntity
  8
0
  6
HIDDEN
 62
     7
370
    18
100
AcDbLine
 10
472.3525828933
 20
391.7140772812
 30
0.0
 11
472.3525828933
 21
367.2178529246
 31
0.0
  0
SPLINE
  5
B3
330
1F
100
AcDbEntity
  8
0
  6
HIDDEN
 62
     7
370
    18
100
AcDbSpline
210
0.0
220
0.0
230
1.0
 70
     8
 71
     3
 72
    13
 73
     9
 74
     0
 42
0.00000001
 43
0.00000001
 40
0.0
 40
0.0
 40
0.0
 40
0.0
 40
0.1555510213332794
 40
0.3242266897954134
 40
0.4930653654801944
 40
0.662256864967881
 40
0.8306456546549071
 40
1.0
 40
1.0
 40
1.0
 40
1.0
 10
479.0850720459723
 20
371.7320123794942
 30
0.0
 10
479.203031291707
 20
371.7197629289989
 30
0.0
 10
479.4489026170606
 20
371.6942304782838
 30
0.0
 10
479.7703490428696
 20
371.8118571163049
 30
0.0
 10
480.0454076645078
 20
372.0439354019942
 30
0.0
 10
480.2481517864849
 20
372.3939186486467
 30
0.0
 10
480.3792461796297
 20
372.8395028144228
 30
0.0
 10
480.3956827726445
 20
373.2030525633312
 30
0.0
 10
480.4039245639972
 20
373.3853471041837
 30
0.0
  0
SPLINE
  5
B4
330
1F
100
AcDbEntity
  8
0
  6
HIDDEN
 62
     7
370
    18
100
AcDbSpline
210
0.0
220
0.0
230
1.0
 70
     8
 71
     3
 72
    27
 73
    23
 74
     0
 42
0.00000001
 43
0.00000001
 40
0.0
 40
0.0
 40
0.0
 40
0.0
 40
0.0208563489940428
 40
0.0416673804105482
 40
0.0624550111710606
 40
0.0832412322180955
 40
0.1040480389638719
 40
0.124897361668923
 40
0.187500760475006
 40
0.2500936133253429
 40
0.3123735380753904
 40
0.3746426112202964
 40
0.4997709778364235
 40
0.6242312896159672
 40
0.6867810556731714
 40
0.7493412031492441
 40
0.8118415637376338
 40
0.8743628018905856
 40
0.90580578222284
 40
0.9371746794723061
 40
0.9685469436762157
 40
1.0
 40
1.0
 40
1.0
 40
1.0
 10
478.4174223730756
 20
354.4337929502752
 30
0.0
 10
478.3502884319191
 20
354.4844644585901
 30
0.0
 10
478.2161664211384
 20
354.5856973739742
 30
0.0
 10
478.015609451799
 20
354.7483679640808
 30
0.0
 10
477.8158940645436
 20
354.9186813068562
 30
0.0
 10
477.6170396235083
 20
355.0974244101564
 30
0.0
 10
477.4190344295014
 20
355.2843925965261
 30
0.0
 10
477.0905483791777
 20
355.6096795661032
 30
0.0
 10
476.6369193341129
 20
356.1013757354764
 30
0.0
 10
476.0735258017747
 20
356.7961737415122
 30
0.0
 10
475.5346944754399
 20
357.5459035443439
 30
0.0
 10
474.8544491940781
 20
358.6116921199177
 30
0.0
 10
474.0867349510461
 20
360.0495554684172
 30
0.0
 10
473.4586994408651
 20
361.5723855659356
 30
0.0
 10
473.0541826575753
 20
362.8020965061388
 30
0.0
 10
472.8016855746463
 20
363.7249742923972
 30
0.0
 10
472.6025424623665
 20
364.6367904149121
 30
0.0
 10
472.4830164258599
 20
365.3808123850596
 30
0.0
 10
472.4154291108188
 20
365.9623358983979
 30
0.0
 10
472.3793334288488
 20
366.3908794789925
 30
0.0
 10
472.3567501769431
 20
366.8108885035032
 30
0.0
 10
472.3539731782686
 20
367.0820818678237
 30
0.0
 10
472.3525828933486
 20
367.2178529246358
 30
0.0
  0
LINE
  5
B5
330
1F
100
AcDbEntity
  8
0
  6
HIDDEN
 62
     7
370
    18
100
AcDbLine
 10
546.9755224282
 20
337.074272148
 30
0.0
 11
545.8361433532
 21
336.4165226086
 31
0.0
  0
LINE
  5
B6
330
1F
100
AcDbEntity
  8
0
  6
HIDDEN
 62
     7
370
    18
100
AcDbLine
 10
549.7738207035
 20
330.6070105294
 30
0.0
 11
550.9149450418
 21
331.2657675879
 31
0.0
  0
LINE
  5
B7
330
1F
100
AcDbEntity
  8
0
  6
HIDDEN
 62
     7
370
    18
100
AcDbLine
 10
476.7045413382
 20
378.1485094308
 30
0.0
 11
475.5634066626
 21
377.4897464048
 31
0.0
  0
LINE
  5
B8
330
1F
100
AcDbEntity
  8
0
  6
HIDDEN
 62
     7
370
    18
100
AcDbLine
 10
478.6251608323
 20
371.1745746367
 30
0.0
 11
479.7645501473
 21
371.8323300875
 31
0.0
  0
ENDSEC
  0
SECTION
  2
OBJECTS
  0
DICTIONARY
  5
C
330
0
100
AcDbDictionary
281
     1
  3
ACAD_GROUP
350
D
  3
ACAD_LAYOUT
350
1A
  3
ACAD_MLINESTYLE
350
17
  3
ACAD_PLOTSETTINGS
350
19
  3
ACAD_PLOTSTYLENAME
350
E
  3
ACAD_SCALELIST
350
47
  3
DWGPROPS
350
B9
  0
DICTIONARY
  5
D
102
{ACAD_REACTORS
330
C
102
}
330
C
100
AcDbDictionary
281
     1
  0
DICTIONARY
  5
1A
102
{ACAD_REACTORS
330
C
102
}
330
C
100
AcDbDictionary
281
     1
  3
Layout1
350
1E
  3
Layout2
350
26
  3
Model
350
22
  0
DICTIONARY
  5
17
102
{ACAD_REACTORS
330
C
102
}
330
C
100
AcDbDictionary
281
     1
  3
Standard
350
18
  0
DICTIONARY
  5
19
102
{ACAD_REACTORS
330
C
102
}
330
C
100
AcDbDictionary
281
     1
  0
ACDBDICTIONARYWDFLT
  5
E
102
{ACAD_REACTORS
330
C
102
}
330
C
100
AcDbDictionary
281
     1
  3
Normal
350
F
100
AcDbDictionaryWithDefault
340
F
  0
DICTIONARY
  5
47
102
{ACAD_REACTORS
330
C
102
}
330
C
100
AcDbDictionary
281
     1
  3
A0
350
48
  3
A1
350
49
  3
A2
350
4A
  3
A3
350
4B
  3
A4
350
4C
  3
A5
350
4D
  3
A6
350
4E
  3
A7
350
4F
  3
A8
350
50
  3
A9
350
51
  3
B0
350
52
  3
B1
350
53
  3
B2
350
54
  3
B3
350
55
  3
B4
350
56
  3
B5
350
57
  3
B6
350
58
  0
XRECORD
  5
B9
102
{ACAD_REACTORS
330
C
102
}
330
C
100
AcDbXrecord
280
     1
  1
DWGPROPS COOKIE
  2

  3

  4

  6

  7

  8
imaizumi
  9

300
=
301
=
302
=
303
=
304
=
305
=
306
=
307
=
308
=
309
=
 40
0.0
 41
2461263.065641458
 42
2461263.065642037
  1

 90
        0
  0
LAYOUT
  5
1E
102
{ACAD_REACTORS
330
1A
102
}
330
1A
100
AcDbPlotSettings
  1

  2
none_device
  4

  6

 40
0.0
 41
0.0
 42
0.0
 43
0.0
 44
0.0
 45
0.0
 46
0.0
 47
0.0
 48
0.0
 49
0.0
140
0.0
141
0.0
142
1.0
143
1.0
 70
   688
 72
     1
 73
     0
 74
     5
  7

 75
    16
147
1.0
148
0.0
149
0.0
100
AcDbLayout
  1
Layout1
 70
     1
 71
     1
 10
0.0
 20
0.0
 11
420.0
 21
297.0
 12
0.0
 22
0.0
 32
0.0
 14
1.0000000000E+20
 24
1.0000000000E+20
 34
1.0000000000E+20
 15
-1.0000000000E+20
 25
-1.0000000000E+20
 35
-1.0000000000E+20
146
0.0
 13
0.0
 23
0.0
 33
0.0
 16
1.0
 26
0.0
 36
0.0
 17
0.0
 27
1.0
 37
0.0
 76
     0
330
1B
  0
LAYOUT
  5
26
102
{ACAD_REACTORS
330
1A
102
}
330
1A
100
AcDbPlotSettings
  1

  2
none_device
  4

  6

 40
0.0
 41
0.0
 42
0.0
 43
0.0
 44
0.0
 45
0.0
 46
0.0
 47
0.0
 48
0.0
 49
0.0
140
0.0
141
0.0
142
1.0
143
1.0
 70
   688
 72
     1
 73
     0
 74
     5
  7

 75
    16
147
1.0
148
0.0
149
0.0
100
AcDbLayout
  1
Layout2
 70
     1
 71
     2
 10
0.0
 20
0.0
 11
0.0
 21
0.0
 12
0.0
 22
0.0
 32
0.0
 14
0.0
 24
0.0
 34
0.0
 15
0.0
 25
0.0
 35
0.0
146
0.0
 13
0.0
 23
0.0
 33
0.0
 16
1.0
 26
0.0
 36
0.0
 17
0.0
 27
1.0
 37
0.0
 76
     0
330
23
  0
LAYOUT
  5
22
102
{ACAD_REACTORS
330
1A
102
}
330
1A
100
AcDbPlotSettings
  1

  2
none_device
  4
Letter_(8.50_x_11.00_Inches)
  6

 40
6.35
 41
6.35
 42
6.35000508
 43
6.35000508
 44
215.9
 45
279.4
 46
0.0
 47
0.0
 48
0.0
 49
0.0
140
0.0
141
0.0
142
1.0
143
1.0
 70
  1712
 72
     1
 73
     0
 74
     0
  7

 75
     0
147
1.0
148
0.0
149
0.0
100
AcDbLayout
  1
Model
 70
     1
 71
     0
 10
0.0
 20
0.0
 11
841.0
 21
594.0
 12
0.0
 22
0.0
 32
0.0
 14
0.0
 24
0.0
 34
0.0
 15
841.0
 25
594.0
 35
0.0
146
0.0
 13
0.0
 23
0.0
 33
0.0
 16
1.0
 26
0.0
 36
0.0
 17
0.0
 27
1.0
 37
0.0
 76
     0
330
1F
331
29
  0
MLINESTYLE
  5
18
102
{ACAD_REACTORS
330
17
102
}
330
17
100
AcDbMlineStyle
  2
Standard
 70
     0
  3

 62
   256
 51
90.0
 52
90.0
 71
     2
 49
0.5
 62
   256
  6
BYLAYER
 49
-0.5
 62
   256
  6
BYLAYER
  0
ACDBPLACEHOLDER
  5
F
102
{ACAD_REACTORS
330
E
102
}
330
E
  0
SCALE
  5
48
102
{ACAD_REACTORS
330
47
102
}
330
47
100
AcDbScale
 70
     0
300
1:1
140
1.0
141
1.0
290
     1
  0
SCALE
  5
49
102
{ACAD_REACTORS
330
47
102
}
330
47
100
AcDbScale
 70
     0
300
1:2
140
1.0
141
2.0
290
     0
  0
SCALE
  5
4A
102
{ACAD_REACTORS
330
47
102
}
330
47
100
AcDbScale
 70
     0
300
1:4
140
1.0
141
4.0
290
     0
  0
SCALE
  5
4B
102
{ACAD_REACTORS
330
47
102
}
330
47
100
AcDbScale
 70
     0
300
1:5
140
1.0
141
5.0
290
     0
  0
SCALE
  5
4C
102
{ACAD_REACTORS
330
47
102
}
330
47
100
AcDbScale
 70
     0
300
1:8
140
1.0
141
8.0
290
     0
  0
SCALE
  5
4D
102
{ACAD_REACTORS
330
47
102
}
330
47
100
AcDbScale
 70
     0
300
1:10
140
1.0
141
10.0
290
     0
  0
SCALE
  5
4E
102
{ACAD_REACTORS
330
47
102
}
330
47
100
AcDbScale
 70
     0
300
1:16
140
1.0
141
16.0
290
     0
  0
SCALE
  5
4F
102
{ACAD_REACTORS
330
47
102
}
330
47
100
AcDbScale
 70
     0
300
1:20
140
1.0
141
20.0
290
     0
  0
SCALE
  5
50
102
{ACAD_REACTORS
330
47
102
}
330
47
100
AcDbScale
 70
     0
300
1:30
140
1.0
141
30.0
290
     0
  0
SCALE
  5
51
102
{ACAD_REACTORS
330
47
102
}
330
47
100
AcDbScale
 70
     0
300
1:40
140
1.0
141
40.0
290
     0
  0
SCALE
  5
52
102
{ACAD_REACTORS
330
47
102
}
330
47
100
AcDbScale
 70
     0
300
1:50
140
1.0
141
50.0
290
     0
  0
SCALE
  5
53
102
{ACAD_REACTORS
330
47
102
}
330
47
100
AcDbScale
 70
     0
300
1:100
140
1.0
141
100.0
290
     0
  0
SCALE
  5
54
102
{ACAD_REACTORS
330
47
102
}
330
47
100
AcDbScale
 70
     0
300
2:1
140
2.0
141
1.0
290
     0
  0
SCALE
  5
55
102
{ACAD_REACTORS
330
47
102
}
330
47
100
AcDbScale
 70
     0
300
4:1
140
4.0
141
1.0
290
     0
  0
SCALE
  5
56
102
{ACAD_REACTORS
330
47
102
}
330
47
100
AcDbScale
 70
     0
300
8:1
140
8.0
141
1.0
290
     0
  0
SCALE
  5
57
102
{ACAD_REACTORS
330
47
102
}
330
47
100
AcDbScale
 70
     0
300
10:1
140
10.0
141
1.0
290
     0
  0
SCALE
  5
58
102
{ACAD_REACTORS
330
47
102
}
330
47
100
AcDbScale
 70
     0
300
100:1
140
100.0
141
1.0
290
     0
  0
ENDSEC
  0
EOF
