  0
SECTION
  2
HEADER
  9
$ACADVER
  1
AC1015
  9
$ACADMAINTVER
 70
     6
  9
$DWGCODEPAGE
  3
DOS932
  9
$INSBASE
 10
0.0
 20
0.0
 30
0.0
  9
$EXTMIN
 10
0.0
 20
0.0
 30
0.0
  9
$EXTMAX
 10
841.0
 20
594.0
 30
0.0
  9
$LIMMIN
 10
0.0
 20
0.0
  9
$LIMMAX
 10
841.0
 20
594.0
  9
$ORTHOMODE
 70
     0
  9
$REGENMODE
 70
     1
  9
$FILLMODE
 70
     1
  9
$QTEXTMODE
 70
     0
  9
$MIRRTEXT
 70
     1
  9
$LTSCALE
 40
1.0
  9
$ATTMODE
 70
     1
  9
$TEXTSIZE
 40
3.5
  9
$TRACEWID
 40
1.0
  9
$TEXTSTYLE
  7
Standard
  9
$CLAYER
  8
0
  9
$CELTYPE
  6
ByLayer
  9
$CECOLOR
 62
   256
  9
$CELTSCALE
 40
1.0
  9
$DISPSILH
 70
     0
  9
$DIMSCALE
 40
1.0
  9
$DIMASZ
 40
3.302
  9
$DIMEXO
 40
1.0
  9
$DIMDLI
 40
3.75
  9
$DIMRND
 40
0.0
  9
$DIMDLE
 40
0.0
  9
$DIMEXE
 40
1.0
  9
$DIMTP
 40
0.0
  9
$DIMTM
 40
0.0
  9
$DIMTXT
 40
3.5
  9
$DIMCEN
 40
2.5
  9
$DIMTSZ
 40
0.0
  9
$DIMTOL
 70
     0
  9
$DIMLIM
 70
     0
  9
$DIMTIH
 70
     1
  9
$DIMTOH
 70
     1
  9
$DIMSE1
 70
     0
  9
$DIMSE2
 70
     0
  9
$DIMTAD
 70
     1
  9
$DIMZIN
 70
     1
  9
$DIMBLK
  1

  9
$DIMASO
 70
     1
  9
$DIMSHO
 70
     1
  9
$DIMPOST
  1

  9
$DIMAPOST
  1

  9
$DIMALT
 70
     0
  9
$DIMALTD
 70
     3
  9
$DIMALTF
 40
0.0393700787
  9
$DIMLFAC
 40
0.1
  9
$DIMTOFL
 70
     1
  9
$DIMTVP
 40
0.0
  9
$DIMTIX
 70
     0
  9
$DIMSOXD
 70
     0
  9
$DIMSAH
 70
     0
  9
$DIMBLK1
  1

  9
$DIMBLK2
  1

  9
$DIMSTYLE
  2
ISO-25
  9
$DIMCLRD
 70
     0
  9
$DIMCLRE
 70
     0
  9
$DIMCLRT
 70
     0
  9
$DIMTFAC
 40
1.0
  9
$DIMGAP
 40
1.524
  9
$DIMJUST
 70
     0
  9
$DIMSD1
 70
     0
  9
$DIMSD2
 70
     0
  9
$DIMTOLJ
 70
     0
  9
$DIMTZIN
 70
     1
  9
$DIMALTZ
 70
     0
  9
$DIMALTTZ
 70
     0
  9
$DIMUPT
 70
     0
  9
$DIMDEC
 70
     2
  9
$DIMTDEC
 70
     2
  9
$DIMALTU
 70
     2
  9
$DIMALTTD
 70
     3
  9
$DIMTXSTY
  7
Standard
  9
$DIMAUNIT
 70
     0
  9
$DIMADEC
 70
     2
  9
$DIMALTRND
 40
0.0
  9
$DIMAZIN
 70
     0
  9
$DIMDSEP
 70
    44
  9
$DIMATFIT
 70
     3
  9
$DIMFRAC
 70
     0
  9
$DIMLDRBLK
  1

  9
$DIMLUNIT
 70
     2
  9
$DIMLWD
 70
    -2
  9
$DIMLWE
 70
    -2
  9
$DIMTMOVE
 70
     0
  9
$LUNITS
 70
     2
  9
$LUPREC
 70
     2
  9
$SKETCHINC
 40
1.0
  9
$FILLETRAD
 40
0.0
  9
$AUNITS
 70
     0
  9
$AUPREC
 70
     2
  9
$MENU
  1
.
  9
$ELEVATION
 40
0.0
  9
$PELEVATION
 40
0.0
  9
$THICKNESS
 40
0.0
  9
$LIMCHECK
 70
     0
  9
$CHAMFERA
 40
0.0
  9
$CHAMFERB
 40
0.0
  9
$CHAMFERC
 40
0.0
  9
$CHAMFERD
 40
0.0
  9
$SKPOLY
 70
     0
  9
$TDCREATE
 40
2461263.442948611
  9
$TDUCREATE
 40
2461263.067948611
  9
$TDUPDATE
 40
2461263.442949283
  9
$TDUUPDATE
 40
2461263.067949283
  9
$TDINDWG
 40
0.0000000116
  9
$TDUSRTIMER
 40
0.0000000116
  9
$USRTIMER
 70
     1
  9
$ANGBASE
 50
0.0
  9
$ANGDIR
 70
     0
  9
$PDMODE
 70
     0
  9
$PDSIZE
 40
-1.0
  9
$PLINEWID
 40
0.0
  9
$SPLFRAME
 70
     0
  9
$SPLINETYPE
 70
     6
  9
$SPLINESEGS
 70
     8
  9
$HANDSEED
  5
D5
  9
$SURFTAB1
 70
     6
  9
$SURFTAB2
 70
     6
  9
$SURFTYPE
 70
     6
  9
$SURFU
 70
     6
  9
$SURFV
 70
     6
  9
$UCSBASE
  2

  9
$UCSNAME
  2

  9
$UCSORG
 10
0.0
 20
0.0
 30
0.0
  9
$UCSXDIR
 10
1.0
 20
0.0
 30
0.0
  9
$UCSYDIR
 10
0.0
 20
1.0
 30
0.0
  9
$UCSORTHOREF
  2

  9
$UCSORTHOVIEW
 70
     0
  9
$UCSORGTOP
 10
0.0
 20
0.0
 30
0.0
  9
$UCSORGBOTTOM
 10
0.0
 20
0.0
 30
0.0
  9
$UCSORGLEFT
 10
0.0
 20
0.0
 30
0.0
  9
$UCSORGRIGHT
 10
0.0
 20
0.0
 30
0.0
  9
$UCSORGFRONT
 10
0.0
 20
0.0
 30
0.0
  9
$UCSORGBACK
 10
0.0
 20
0.0
 30
0.0
  9
$PUCSBASE
  2

  9
$PUCSNAME
  2

  9
$PUCSORG
 10
0.0
 20
0.0
 30
0.0
  9
$PUCSXDIR
 10
1.0
 20
0.0
 30
0.0
  9
$PUCSYDIR
 10
0.0
 20
1.0
 30
0.0
  9
$PUCSORTHOREF
  2

  9
$PUCSORTHOVIEW
 70
     0
  9
$PUCSORGTOP
 10
0.0
 20
0.0
 30
0.0
  9
$PUCSORGBOTTOM
 10
0.0
 20
0.0
 30
0.0
  9
$PUCSORGLEFT
 10
0.0
 20
0.0
 30
0.0
  9
$PUCSORGRIGHT
 10
0.0
 20
0.0
 30
0.0
  9
$PUCSORGFRONT
 10
0.0
 20
0.0
 30
0.0
  9
$PUCSORGBACK
 10
0.0
 20
0.0
 30
0.0
  9
$USERI1
 70
     0
  9
$USERI2
 70
     0
  9
$USERI3
 70
     0
  9
$USERI4
 70
     0
  9
$USERI5
 70
     0
  9
$USERR1
 40
0.0
  9
$USERR2
 40
0.0
  9
$USERR3
 40
0.0
  9
$USERR4
 40
0.0
  9
$USERR5
 40
0.0
  9
$WORLDVIEW
 70
     1
  9
$SHADEDGE
 70
     3
  9
$SHADEDIF
 70
    70
  9
$TILEMODE
 70
     1
  9
$MAXACTVP
 70
    64
  9
$PINSBASE
 10
0.0
 20
0.0
 30
0.0
  9
$PLIMCHECK
 70
     0
  9
$PEXTMIN
 10
1.0000000000E+20
 20
1.0000000000E+20
 30
1.0000000000E+20
  9
$PEXTMAX
 10
-1.0000000000E+20
 20
-1.0000000000E+20
 30
-1.0000000000E+20
  9
$PLIMMIN
 10
0.0
 20
0.0
  9
$PLIMMAX
 10
420.0
 20
297.0
  9
$UNITMODE
 70
     0
  9
$VISRETAIN
 70
     1
  9
$PLINEGEN
 70
     0
  9
$PSLTSCALE
 70
     1
  9
$TREEDEPTH
 70
  3020
  9
$CMLSTYLE
  2
Standard
  9
$CMLJUST
 70
     0
  9
$CMLSCALE
 40
20.0
  9
$PROXYGRAPHICS
 70
     1
  9
$MEASUREMENT
 70
     1
  9
$CELWEIGHT
370
    -1
  9
$ENDCAPS
280
     0
  9
$JOINSTYLE
280
     0
  9
$LWDISPLAY
290
     1
  9
$INSUNITS
 70
     4
  9
$HYPERLINKBASE
  1

  9
$STYLESHEET
  1

  9
$XEDIT
290
     1
  9
$CEPSNTYPE
380
     0
  9
$PSTYLEMODE
290
     1
  9
$FINGERPRINTGUID
  2
{1555cf6b-62de-4a49-88b0-ebb9e32ece5f}
  9
$VERSIONGUID
  2
{FAEB1C32-E019-11D5-929B-00C0DF256EC4}
  9
$EXTNAMES
290
     1
  9
$PSVPSCALE
 40
0.0
  9
$OLESTARTUP
290
     0
  0
ENDSEC
  0
SECTION
  2
CLASSES
  0
CLASS
  1
ACDBDICTIONARYWDFLT
  2
AcDbDictionaryWithDefault
  3
ObjectDBX Classes
 90
        0
280
     0
281
     0
  0
CLASS
  1
VISUALSTYLE
  2
AcDbVisualStyle
  3
ObjectDBX Classes
 90
     4095
280
     0
281
     0
  0
CLASS
  1
MATERIAL
  2
AcDbMaterial
  3
ObjectDBX Classes
 90
     1153
280
     0
281
     0
  0
CLASS
  1
SCALE
  2
AcDbScale
  3
ObjectDBX Classes
 90
     1153
280
     0
281
     0
  0
CLASS
  1
TABLESTYLE
  2
AcDbTableStyle
  3
ObjectDBX Classes
 90
     4095
280
     0
281
     0
  0
CLASS
  1
MLEADERSTYLE
  2
AcDbMLeaderStyle
  3
ACDB_MLEADERSTYLE_CLASS
 90
     4095
280
     0
281
     0
  0
CLASS
  1
SUN
  2
AcDbSun
  3
SCENEOE
 90
     1153
280
     0
281
     0
  0
CLASS
  1
ACDBPLACEHOLDER
  2
AcDbPlaceHolder
  3
ObjectDBX Classes
 90
        0
280
     0
281
     0
  0
CLASS
  1
LAYOUT
  2
AcDbLayout
  3
ObjectDBX Classes
 90
        0
280
     0
281
     0
  0
ENDSEC
  0
SECTION
  2
TABLES
  0
TABLE
  2
VPORT
  5
8
330
0
100
AcDbSymbolTable
 70
     1
  0
VPORT
  5
29
330
8
100
AcDbSymbolTableRecord
100
AcDbViewportTableRecord
  2
*Active
 70
     0
 10
0.0
 20
0.0
 11
1.0
 21
1.0
 12
420.5
 22
297.0
 13
0.0
 23
0.0
 14
10.0
 24
10.0
 15
10.0
 25
10.0
 16
0.0
 26
0.0
 36
1.0
 17
0.0
 27
0.0
 37
0.0
 40
594.0
 41
1.4158249158
 42
50.0
 43
0.0
 44
0.0
 50
0.0
 51
0.0
 71
     0
 72
  2000
 73
     1
 74
     3
 75
     0
 76
     0
 77
     0
 78
     0
281
     0
 65
     1
110
0.0
120
0.0
130
0.0
111
1.0
121
0.0
131
0.0
112
0.0
122
1.0
132
0.0
 79
     0
146
0.0
  0
ENDTAB
  0
TABLE
  2
LTYPE
  5
5
330
0
100
AcDbSymbolTable
 70
     6
  0
LTYPE
  5
14
330
5
100
AcDbSymbolTableRecord
100
AcDbLinetypeTableRecord
  2
ByBlock
 70
     0
  3

 72
    65
 73
     0
 40
0.0
  0
LTYPE
  5
15
330
5
100
AcDbSymbolTableRecord
100
AcDbLinetypeTableRecord
  2
ByLayer
 70
     0
  3

 72
    65
 73
     0
 40
0.0
  0
LTYPE
  5
16
330
5
100
AcDbSymbolTableRecord
100
AcDbLinetypeTableRecord
  2
Continuous
 70
     0
  3
Solid line
 72
    65
 73
     0
 40
0.0
  0
LTYPE
  5
5E
330
5
100
AcDbSymbolTableRecord
100
AcDbLinetypeTableRecord
  2
HIDDEN
 70
     0
  3
Hidden __ __ __ __ __ __ __ __ __ __ __ __ __ __
 72
    65
 73
     2
 40
1.905
 49
1.27
 74
     0
 49
-0.635
 74
     0
  0
LTYPE
  5
5F
330
5
100
AcDbSymbolTableRecord
100
AcDbLinetypeTableRecord
  2
PHANTOM
 70
     0
  3
Phantom ______  __  __  ______  __  __  ______
 72
    65
 73
     6
 40
12.7
 49
6.35
 74
     0
 49
-1.27
 74
     0
 49
1.27
 74
     0
 49
-1.27
 74
     0
 49
1.27
 74
     0
 49
-1.27
 74
     0
  0
LTYPE
  5
60
330
5
100
AcDbSymbolTableRecord
100
AcDbLinetypeTableRecord
  2
CENTER
 70
     0
  3
Center ____ _ ____ _ ____ _ ____ _ ____ _ ____
 72
    65
 73
     4
 40
10.16
 49
6.35
 74
     0
 49
-1.27
 74
     0
 49
1.27
 74
     0
 49
-1.27
 74
     0
  0
LTYPE
  5
61
330
5
100
AcDbSymbolTableRecord
100
AcDbLinetypeTableRecord
  2
CENTERX2
 70
     0
  3
Center (2x) ________  __  ________  __  _____
 72
    65
 73
     4
 40
20.32
 49
12.7
 74
     0
 49
-2.54
 74
     0
 49
2.54
 74
     0
 49
-2.54
 74
     0
  0
LTYPE
  5
62
330
5
100
AcDbSymbolTableRecord
100
AcDbLinetypeTableRecord
  2
DOT2
 70
     0
  3
Dot (.5x) ........................................
 72
    65
 73
     2
 40
0.635
 49
0.0
 74
     0
 49
-0.635
 74
     0
  0
ENDTAB
  0
TABLE
  2
LAYER
  5
2
330
0
100
AcDbSymbolTable
 70
     1
  0
LAYER
  5
10
330
2
100
AcDbSymbolTableRecord
100
AcDbLayerTableRecord
  2
0
 70
     0
 62
     7
  6
Continuous
370
    -3
390
F
  0
ENDTAB
  0
TABLE
  2
STYLE
  5
3
330
0
100
AcDbSymbolTable
 70
     1
  0
STYLE
  5
11
330
3
100
AcDbSymbolTableRecord
100
AcDbTextStyleTableRecord
  2
Standard
 70
     0
 40
0.0
 41
1.0
 50
0.0
 71
     0
 42
3.5
  3
txt
  4
bigfont
  0
ENDTAB
  0
TABLE
  2
VIEW
  5
6
330
0
100
AcDbSymbolTable
 70
     0
  0
ENDTAB
  0
TABLE
  2
UCS
  5
7
330
0
100
AcDbSymbolTable
 70
     0
  0
ENDTAB
  0
TABLE
  2
APPID
  5
9
330
0
100
AcDbSymbolTable
 70
     1
  0
APPID
  5
12
330
9
100
AcDbSymbolTableRecord
100
AcDbRegAppTableRecord
  2
ACAD
 70
     0
  0
ENDTAB
  0
TABLE
  2
DIMSTYLE
  5
A
330
0
100
AcDbSymbolTable
 70
     1
100
AcDbDimStyleTable
  0
DIMSTYLE
105
27
330
A
100
AcDbSymbolTableRecord
100
AcDbDimStyleTableRecord
  2
ISO-25
 70
     0
 41
2.5
 42
0.625
 43
3.75
 44
1.25
 73
     0
 74
     0
 77
     1
 78
     8
140
2.5
141
2.5
143
0.0393700787
147
0.625
171
     3
172
     1
178
     0
271
     2
272
     2
274
     3
278
    44
283
     0
284
     8
340
11
  0
ENDTAB
  0
TABLE
  2
BLOCK_RECORD
  5
1
330
0
100
AcDbSymbolTable
 70
     1
  0
BLOCK_RECORD
  5
1F
330
1
100
AcDbSymbolTableRecord
100
AcDbBlockTableRecord
  2
*Model_Space
340
22
  0
BLOCK_RECORD
  5
1B
330
1
100
AcDbSymbolTableRecord
100
AcDbBlockTableRecord
  2
*Paper_Space
340
1E
  0
BLOCK_RECORD
  5
23
330
1
100
AcDbSymbolTableRecord
100
AcDbBlockTableRecord
  2
*Paper_Space0
340
26
  0
ENDTAB
  0
ENDSEC
  0
SECTION
  2
BLOCKS
  0
BLOCK
  5
20
330
1F
100
AcDbEntity
  8
0
100
AcDbBlockBegin
  2
*Model_Space
 70
     0
 10
0.0
 20
0.0
 30
0.0
  3
*Model_Space
  1

  0
ENDBLK
  5
21
330
1F
100
AcDbEntity
  8
0
100
AcDbBlockEnd
  0
BLOCK
  5
1C
330
1B
100
AcDbEntity
 67
     1
  8
0
100
AcDbBlockBegin
  2
*Paper_Space
 70
     0
 10
0.0
 20
0.0
 30
0.0
  3
*Paper_Space
  1

  0
ENDBLK
  5
1D
330
1B
100
AcDbEntity
 67
     1
  8
0
100
AcDbBlockEnd
  0
BLOCK
  5
24
330
23
100
AcDbEntity
  8
0
100
AcDbBlockBegin
  2
*Paper_Space0
 70
     0
 10
0.0
 20
0.0
 30
0.0
  3
*Paper_Space0
  1

  0
ENDBLK
  5
25
330
23
100
AcDbEntity
  8
0
100
AcDbBlockEnd
  0
ENDSEC
  0
SECTION
  2
ENTITIES
  0
LINE
  5
63
330
1F
100
AcDbEntity
  8
0
  6
Continuous
 62
     7
370
    25
100
AcDbLine
 10
372.0081944622
 20
250.3376382702
 30
0.0
 11
375.0081944622
 21
248.3376382702
 31
0.0
  0
LINE
  5
64
330
1F
100
AcDbEntity
  8
0
  6
Continuous
 62
     7
370
    25
100
AcDbLine
 10
372.0081944622
 20
253.3376382702
 30
0.0
 11
372.0081944622
 21
250.3376382702
 31
0.0
  0
LINE
  5
65
330
1F
100
AcDbEntity
  8
0
  6
Continuous
 62
     7
370
    25
100
AcDbLine
 10
361.0081944622
 20
253.3376382702
 30
0.0
 11
372.0081944622
 21
253.3376382702
 31
0.0
  0
LINE
  5
66
330
1F
100
AcDbEntity
  8
0
  6
Continuous
 62
     7
370
    25
100
AcDbLine
 10
378.0081944622
 20
253.3376382702
 30
0.0
 11
389.0081944622
 21
253.3376382702
 31
0.0
  0
LINE
  5
67
330
1F
100
AcDbEntity
  8
0
  6
Continuous
 62
     7
370
    25
100
AcDbLine
 10
378.0081944622
 20
250.3376382702
 30
0.0
 11
378.0081944622
 21
253.3376382702
 31
0.0
  0
LINE
  5
68
330
1F
100
AcDbEntity
  8
0
  6
Continuous
 62
     7
370
    25
100
AcDbLine
 10
375.0081944622
 20
248.3376382702
 30
0.0
 11
378.0081944622
 21
250.3376382702
 31
0.0
  0
LINE
  5
69
330
1F
100
AcDbEntity
  8
0
  6
Continuous
 62
     7
370
    25
100
AcDbLine
 10
361.0081944622
 20
258.8376382702
 30
0.0
 11
361.0081944622
 21
253.3376382702
 31
0.0
  0
LINE
  5
6A
330
1F
100
AcDbEntity
  8
0
  6
Continuous
 62
     7
370
    25
100
AcDbLine
 10
375.0081944622
 20
257.8376382702
 30
0.0
 11
361.0081944622
 21
258.8376382702
 31
0.0
  0
LINE
  5
6B
330
1F
100
AcDbEntity
  8
0
  6
Continuous
 62
     7
370
    25
100
AcDbLine
 10
389.0081944622
 20
253.3376382702
 30
0.0
 11
389.0081944622
 21
258.8376382702
 31
0.0
  0
LINE
  5
6C
330
1F
100
AcDbEntity
  8
0
  6
Continuous
 62
     7
370
    25
100
AcDbLine
 10
389.0081944622
 20
258.8376382702
 30
0.0
 11
375.0081944622
 21
257.8376382702
 31
0.0
  0
LINE
  5
6D
330
1F
100
AcDbEntity
  8
0
  6
HIDDEN
 62
     7
370
    18
100
AcDbLine
 10
368.7081944622
 20
254.9976382702
 30
0.0
 11
370.3681944622
 21
253.3376382702
 31
0.0
  0
LINE
  5
6E
330
1F
100
AcDbEntity
  8
0
  6
HIDDEN
 62
     7
370
    18
100
AcDbLine
 10
368.7081944622
 20
254.9976382702
 30
0.0
 11
365.3081944622
 21
254.9976382702
 31
0.0
  0
LINE
  5
6F
330
1F
100
AcDbEntity
  8
0
  6
HIDDEN
 62
     7
370
    18
100
AcDbLine
 10
365.3081944622
 20
254.9976382702
 30
0.0
 11
363.6481944622
 21
253.3376382702
 31
0.0
  0
LINE
  5
70
330
1F
100
AcDbEntity
  8
0
  6
HIDDEN
 62
     7
370
    18
100
AcDbLine
 10
384.7081944622
 20
254.9976382702
 30
0.0
 11
386.3681944622
 21
253.3376382702
 31
0.0
  0
LINE
  5
71
330
1F
100
AcDbEntity
  8
0
  6
HIDDEN
 62
     7
370
    18
100
AcDbLine
 10
384.7081944622
 20
254.9976382702
 30
0.0
 11
381.3081944622
 21
254.9976382702
 31
0.0
  0
LINE
  5
72
330
1F
100
AcDbEntity
  8
0
  6
HIDDEN
 62
     7
370
    18
100
AcDbLine
 10
381.3081944622
 20
254.9976382702
 30
0.0
 11
379.6481944622
 21
253.3376382702
 31
0.0
  0
LINE
  5
73
330
1F
100
AcDbEntity
  8
0
  6
HIDDEN
 62
     7
370
    18
100
AcDbLine
 10
368.7081944622
 20
258.2876382702
 30
0.0
 11
368.7081944622
 21
254.9976382702
 31
0.0
  0
LINE
  5
74
330
1F
100
AcDbEntity
  8
0
  6
HIDDEN
 62
     7
370
    18
100
AcDbLine
 10
365.3081944622
 20
258.5304954131
 30
0.0
 11
365.3081944622
 21
254.9976382702
 31
0.0
  0
LINE
  5
75
330
1F
100
AcDbEntity
  8
0
  6
HIDDEN
 62
     7
370
    18
100
AcDbLine
 10
384.7081944622
 20
258.5304954131
 30
0.0
 11
384.7081944622
 21
254.9976382702
 31
0.0
  0
LINE
  5
76
330
1F
100
AcDbEntity
  8
0
  6
HIDDEN
 62
     7
370
    18
100
AcDbLine
 10
381.3081944622
 20
258.2876382702
 30
0.0
 11
381.3081944622
 21
254.9976382702
 31
0.0
  0
LINE
  5
77
330
1F
100
AcDbEntity
  8
0
  6
Continuous
 62
     7
370
    25
100
AcDbLine
 10
389.0081944622
 20
329.63
 30
0.0
 11
389.0081944622
 21
338.63
 31
0.0
  0
LINE
  5
78
330
1F
100
AcDbEntity
  8
0
  6
Continuous
 62
     7
370
    25
100
AcDbLine
 10
389.0081944622
 20
329.63
 30
0.0
 11
375.0081944622
 21
329.63
 31
0.0
  0
LINE
  5
79
330
1F
100
AcDbEntity
  8
0
  6
Continuous
 62
     7
370
    25
100
AcDbLine
 10
375.0081944622
 20
329.63
 30
0.0
 11
375.0081944622
 21
338.63
 31
0.0
  0
LINE
  5
7A
330
1F
100
AcDbEntity
  8
0
  6
Continuous
 62
     7
370
    25
100
AcDbLine
 10
389.0081944622
 20
338.63
 30
0.0
 11
375.0081944622
 21
338.63
 31
0.0
  0
SPLINE
  5
7B
330
1F
100
AcDbEntity
  8
0
  6
Continuous
 62
     7
370
    25
100
AcDbSpline
210
0.0
220
0.0
230
1.0
 70
     8
 71
     3
 72
    22
 73
    18
 74
     0
 42
0.00000001
 43
0.00000001
 40
0.0
 40
0.0
 40
0.0
 40
0.0
 40
0.1250000000000003
 40
0.1250000000000003
 40
0.2500000000000002
 40
0.2500000000000002
 40
0.3750000000000002
 40
0.3750000000000002
 40
0.5000000000000002
 40
0.5000000000000002
 40
0.6250000000000001
 40
0.6250000000000001
 40
0.7500000000000001
 40
0.7500000000000001
 40
0.875
 40
0.875
 40
1.0
 40
1.0
 40
1.0
 40
1.0
 10
381.308194462159
 20
334.13
 30
0.0
 10
381.308194462159
 20
334.2716666666666
 30
0.0
 10
381.3254211288256
 20
334.43192
 30
0.0
 10
381.4269677954923
 20
334.78008
 30
0.0
 10
381.512194462159
 20
334.9686666666666
 30
0.0
 10
381.784194462159
 20
335.3313333333333
 30
0.0
 10
381.9729003445119
 20
335.5045098039216
 30
0.0
 10
382.4434885798061
 20
335.7554901960784
 30
0.0
 10
382.7248611288256
 20
335.83
 30
0.0
 10
383.2915277954923
 20
335.83
 30
0.0
 10
383.5729003445119
 20
335.7554901960784
 30
0.0
 10
384.043488579806
 20
335.5045098039216
 30
0.0
 10
384.2321944621589
 20
335.3313333333333
 30
0.0
 10
384.504194462159
 20
334.9686666666666
 30
0.0
 10
384.5894211288257
 20
334.78008
 30
0.0
 10
384.6909677954923
 20
334.43192
 30
0.0
 10
384.708194462159
 20
334.2716666666666
 30
0.0
 10
384.708194462159
 20
334.13
 30
0.0
  0
SPLINE
  5
7C
330
1F
100
AcDbEntity
  8
0
  6
Continuous
 62
     7
370
    25
100
AcDbSpline
210
0.0
220
0.0
230
1.0
 70
     8
 71
     3
 72
    22
 73
    18
 74
     0
 42
0.00000001
 43
0.00000001
 40
0.0
 40
0.0
 40
0.0
 40
0.0
 40
0.125
 40
0.125
 40
0.25
 40
0.25
 40
0.375
 40
0.375
 40
0.5
 40
0.5
 40
0.625
 40
0.625
 40
0.75
 40
0.75
 40
0.875
 40
0.875
 40
1.0
 40
1.0
 40
1.0
 40
1.0
 10
384.708194462159
 20
334.13
 30
0.0
 10
384.708194462159
 20
333.9883333333333
 30
0.0
 10
384.6909677954923
 20
333.82808
 30
0.0
 10
384.5894211288257
 20
333.47992
 30
0.0
 10
384.504194462159
 20
333.2913333333333
 30
0.0
 10
384.2321944621589
 20
332.9286666666666
 30
0.0
 10
384.043488579806
 20
332.7554901960784
 30
0.0
 10
383.5729003445119
 20
332.5045098039216
 30
0.0
 10
383.2915277954923
 20
332.43
 30
0.0
 10
382.7248611288256
 20
332.43
 30
0.0
 10
382.4434885798061
 20
332.5045098039216
 30
0.0
 10
381.9729003445119
 20
332.7554901960784
 30
0.0
 10
381.784194462159
 20
332.9286666666666
 30
0.0
 10
381.512194462159
 20
333.2913333333333
 30
0.0
 10
381.4269677954923
 20
333.47992
 30
0.0
 10
381.3254211288257
 20
333.82808
 30
0.0
 10
381.308194462159
 20
333.9883333333333
 30
0.0
 10
381.308194462159
 20
334.13
 30
0.0
  0
LINE
  5
7D
330
1F
100
AcDbEntity
  8
0
  6
Continuous
 62
     7
370
    25
100
AcDbLine
 10
361.0081944622
 20
329.63
 30
0.0
 11
361.0081944622
 21
338.63
 31
0.0
  0
SPLINE
  5
7E
330
1F
100
AcDbEntity
  8
0
  6
Continuous
 62
     7
370
    25
100
AcDbSpline
210
0.0
220
0.0
230
1.0
 70
     8
 71
     3
 72
    22
 73
    18
 74
     0
 42
0.00000001
 43
0.00000001
 40
0.0
 40
0.0
 40
0.0
 40
0.0
 40
0.125
 40
0.125
 40
0.25
 40
0.25
 40
0.375
 40
0.375
 40
0.5
 40
0.5
 40
0.625
 40
0.625
 40
0.75
 40
0.75
 40
0.875
 40
0.875
 40
1.0
 40
1.0
 40
1.0
 40
1.0
 10
365.308194462159
 20
334.13
 30
0.0
 10
365.308194462159
 20
334.2716666666666
 30
0.0
 10
365.3254211288257
 20
334.43192
 30
0.0
 10
365.4269677954923
 20
334.78008
 30
0.0
 10
365.512194462159
 20
334.9686666666666
 30
0.0
 10
365.784194462159
 20
335.3313333333333
 30
0.0
 10
365.9729003445119
 20
335.5045098039216
 30
0.0
 10
366.443488579806
 20
335.7554901960784
 30
0.0
 10
366.7248611288256
 20
335.83
 30
0.0
 10
367.2915277954923
 20
335.83
 30
0.0
 10
367.5729003445119
 20
335.7554901960784
 30
0.0
 10
368.043488579806
 20
335.5045098039216
 30
0.0
 10
368.232194462159
 20
335.3313333333333
 30
0.0
 10
368.504194462159
 20
334.9686666666666
 30
0.0
 10
368.5894211288256
 20
334.78008
 30
0.0
 10
368.6909677954923
 20
334.43192
 30
0.0
 10
368.708194462159
 20
334.2716666666666
 30
0.0
 10
368.708194462159
 20
334.13
 30
0.0
  0
SPLINE
  5
7F
330
1F
100
AcDbEntity
  8
0
  6
Continuous
 62
     7
370
    25
100
AcDbSpline
210
0.0
220
0.0
230
1.0
 70
     8
 71
     3
 72
    22
 73
    18
 74
     0
 42
0.00000001
 43
0.00000001
 40
0.0
 40
0.0
 40
0.0
 40
0.0
 40
0.125
 40
0.125
 40
0.25
 40
0.25
 40
0.375
 40
0.375
 40
0.5
 40
0.5
 40
0.625
 40
0.625
 40
0.75
 40
0.75
 40
0.875
 40
0.875
 40
1.0
 40
1.0
 40
1.0
 40
1.0
 10
368.708194462159
 20
334.13
 30
0.0
 10
368.708194462159
 20
333.9883333333333
 30
0.0
 10
368.6909677954923
 20
333.82808
 30
0.0
 10
368.5894211288256
 20
333.47992
 30
0.0
 10
368.504194462159
 20
333.2913333333333
 30
0.0
 10
368.232194462159
 20
332.9286666666666
 30
0.0
 10
368.043488579806
 20
332.7554901960784
 30
0.0
 10
367.5729003445119
 20
332.5045098039216
 30
0.0
 10
367.2915277954923
 20
332.43
 30
0.0
 10
366.7248611288256
 20
332.43
 30
0.0
 10
366.443488579806
 20
332.5045098039216
 30
0.0
 10
365.9729003445119
 20
332.7554901960784
 30
0.0
 10
365.784194462159
 20
332.9286666666666
 30
0.0
 10
365.512194462159
 20
333.2913333333333
 30
0.0
 10
365.4269677954923
 20
333.47992
 30
0.0
 10
365.3254211288257
 20
333.82808
 30
0.0
 10
365.308194462159
 20
333.9883333333333
 30
0.0
 10
365.308194462159
 20
334.13
 30
0.0
  0
LINE
  5
80
330
1F
100
AcDbEntity
  8
0
  6
Continuous
 62
     7
370
    25
100
AcDbLine
 10
375.0081944622
 20
329.63
 30
0.0
 11
361.0081944622
 21
329.63
 31
0.0
  0
LINE
  5
81
330
1F
100
AcDbEntity
  8
0
  6
Continuous
 62
     7
370
    25
100
AcDbLine
 10
375.0081944622
 20
338.63
 30
0.0
 11
361.0081944622
 21
338.63
 31
0.0
  0
ARC
  5
82
330
1F
100
AcDbEntity
  8
0
  6
HIDDEN
 62
     7
370
    18
100
AcDbCircle
 10
383.0081944622
 20
334.13
 30
0.0
 40
3.360000000000014
100
AcDbArc
 50
0.0
 51
180.0
  0
ARC
  5
83
330
1F
100
AcDbEntity
  8
0
  6
HIDDEN
 62
     7
370
    18
100
AcDbCircle
 10
383.0081944622
 20
334.13
 30
0.0
 40
3.360000000000014
100
AcDbArc
 50
180.0
 51
0.0
  0
LINE
  5
84
330
1F
100
AcDbEntity
  8
0
  6
HIDDEN
 62
     7
370
    18
100
AcDbLine
 10
378.0081944622
 20
329.63
 30
0.0
 11
378.0081944622
 21
338.63
 31
0.0
  0
ARC
  5
85
330
1F
100
AcDbEntity
  8
0
  6
HIDDEN
 62
     7
370
    18
100
AcDbCircle
 10
367.0081944622
 20
334.13
 30
0.0
 40
3.360000000000014
100
AcDbArc
 50
0.0
 51
180.0
  0
ARC
  5
86
330
1F
100
AcDbEntity
  8
0
  6
HIDDEN
 62
     7
370
    18
100
AcDbCircle
 10
367.0081944622
 20
334.13
 30
0.0
 40
3.360000000000014
100
AcDbArc
 50
180.0
 51
0.0
  0
LINE
  5
87
330
1F
100
AcDbEntity
  8
0
  6
HIDDEN
 62
     7
370
    18
100
AcDbLine
 10
372.0081944622
 20
329.63
 30
0.0
 11
372.0081944622
 21
338.63
 31
0.0
  0
LINE
  5
88
330
1F
100
AcDbEntity
  8
0
  6
Continuous
 62
     7
370
    25
100
AcDbLine
 10
461.88
 20
253.3376382702
 30
0.0
 11
470.88
 21
253.3376382702
 31
0.0
  0
LINE
  5
89
330
1F
100
AcDbEntity
  8
0
  6
Continuous
 62
     7
370
    25
100
AcDbLine
 10
461.88
 20
253.3376382702
 30
0.0
 11
461.88
 21
258.8376382702
 31
0.0
  0
LINE
  5
8A
330
1F
100
AcDbEntity
  8
0
  6
Continuous
 62
     7
370
    25
100
AcDbLine
 10
470.88
 20
253.3376382702
 30
0.0
 11
470.88
 21
258.8376382702
 31
0.0
  0
LINE
  5
8B
330
1F
100
AcDbEntity
  8
0
  6
Continuous
 62
     7
370
    25
100
AcDbLine
 10
461.88
 20
258.8376382702
 30
0.0
 11
470.88
 21
258.8376382702
 31
0.0
  0
LINE
  5
8C
330
1F
100
AcDbEntity
  8
0
  6
Continuous
 62
     7
370
    25
100
AcDbLine
 10
461.88
 20
250.3376382702
 30
0.0
 11
470.88
 21
250.3376382702
 31
0.0
  0
LINE
  5
8D
330
1F
100
AcDbEntity
  8
0
  6
Continuous
 62
     7
370
    25
100
AcDbLine
 10
461.88
 20
250.3376382702
 30
0.0
 11
461.88
 21
253.3376382702
 31
0.0
  0
LINE
  5
8E
330
1F
100
AcDbEntity
  8
0
  6
Continuous
 62
     7
370
    25
100
AcDbLine
 10
470.88
 20
250.3376382702
 30
0.0
 11
470.88
 21
253.3376382702
 31
0.0
  0
LINE
  5
8F
330
1F
100
AcDbEntity
  8
0
  6
Continuous
 62
     7
370
    25
100
AcDbLine
 10
461.88
 20
248.3376382702
 30
0.0
 11
470.88
 21
248.3376382702
 31
0.0
  0
LINE
  5
90
330
1F
100
AcDbEntity
  8
0
  6
Continuous
 62
     7
370
    25
100
AcDbLine
 10
461.88
 20
248.3376382702
 30
0.0
 11
461.88
 21
250.3376382702
 31
0.0
  0
LINE
  5
91
330
1F
100
AcDbEntity
  8
0
  6
Continuous
 62
     7
370
    25
100
AcDbLine
 10
470.88
 20
248.3376382702
 30
0.0
 11
470.88
 21
250.3376382702
 31
0.0
  0
LINE
  5
92
330
1F
100
AcDbEntity
  8
0
  6
HIDDEN
 62
     7
370
    18
100
AcDbLine
 10
466.38
 20
254.9976382702
 30
0.0
 11
464.68
 21
254.9976382702
 31
0.0
  0
LINE
  5
93
330
1F
100
AcDbEntity
  8
0
  6
HIDDEN
 62
     7
370
    18
100
AcDbLine
 10
468.08
 20
254.9976382702
 30
0.0
 11
466.38
 21
254.9976382702
 31
0.0
  0
SPLINE
  5
94
330
1F
100
AcDbEntity
  8
0
  6
HIDDEN
 62
     7
370
    18
100
AcDbSpline
210
0.0
220
0.0
230
1.0
 70
     8
 71
     3
 72
    22
 73
    18
 74
     0
 42
0.00000001
 43
0.00000001
 40
0.0
 40
0.0
 40
0.0
 40
0.0
 40
0.1250000000000003
 40
0.1250000000000003
 40
0.2500000000000002
 40
0.2500000000000002
 40
0.3750000000000002
 40
0.3750000000000002
 40
0.5000000000000002
 40
0.5000000000000002
 40
0.6250000000000001
 40
0.6250000000000001
 40
0.7500000000000001
 40
0.7500000000000001
 40
0.875
 40
0.875
 40
1.0
 40
1.0
 40
1.0
 40
1.0
 10
466.38
 20
258.2876382702205
 30
0.0
 10
466.5216666666666
 20
258.2876382702205
 30
0.0
 10
466.68192
 20
258.288868746411
 30
0.0
 10
467.03008
 20
258.2961220797444
 30
0.0
 10
467.2186666666666
 20
258.302209698792
 30
0.0
 10
467.5813333333334
 20
258.3216382702205
 30
0.0
 10
467.7545098039216
 20
258.3351172618172
 30
0.0
 10
468.0054901960785
 20
258.3687307071953
 30
0.0
 10
468.08
 20
258.388828746411
 30
0.0
 10
468.08
 20
258.4293049368872
 30
0.0
 10
468.0054901960785
 20
258.4494029761029
 30
0.0
 10
467.7545098039216
 20
258.483016421481
 30
0.0
 10
467.5813333333334
 20
258.4964954130777
 30
0.0
 10
467.2186666666666
 20
258.5159239845062
 30
0.0
 10
467.03008
 20
258.5220116035539
 30
0.0
 10
466.68192
 20
258.5292649368872
 30
0.0
 10
466.5216666666666
 20
258.5304954130776
 30
0.0
 10
466.38
 20
258.5304954130776
 30
0.0
  0
SPLINE
  5
95
330
1F
100
AcDbEntity
  8
0
  6
HIDDEN
 62
     7
370
    18
100
AcDbSpline
210
0.0
220
0.0
230
1.0
 70
     8
 71
     3
 72
    22
 73
    18
 74
     0
 42
0.00000001
 43
0.00000001
 40
0.0
 40
0.0
 40
0.0
 40
0.0
 40
0.125
 40
0.125
 40
0.25
 40
0.25
 40
0.375
 40
0.375
 40
0.5
 40
0.5
 40
0.625
 40
0.625
 40
0.75
 40
0.75
 40
0.875
 40
0.875
 40
1.0
 40
1.0
 40
1.0
 40
1.0
 10
466.38
 20
258.5304954130776
 30
0.0
 10
466.2383333333333
 20
258.5304954130776
 30
0.0
 10
466.07808
 20
258.5292649368872
 30
0.0
 10
465.72992
 20
258.5220116035539
 30
0.0
 10
465.5413333333333
 20
258.5159239845062
 30
0.0
 10
465.1786666666667
 20
258.4964954130777
 30
0.0
 10
465.0054901960784
 20
258.483016421481
 30
0.0
 10
464.7545098039216
 20
258.4494029761029
 30
0.0
 10
464.6800000000001
 20
258.4293049368872
 30
0.0
 10
464.6800000000001
 20
258.388828746411
 30
0.0
 10
464.7545098039216
 20
258.3687307071953
 30
0.0
 10
465.0054901960784
 20
258.3351172618172
 30
0.0
 10
465.1786666666667
 20
258.3216382702205
 30
0.0
 10
465.5413333333333
 20
258.3022096987919
 30
0.0
 10
465.72992
 20
258.2961220797444
 30
0.0
 10
466.07808
 20
258.288868746411
 30
0.0
 10
466.2383333333333
 20
258.2876382702205
 30
0.0
 10
466.38
 20
258.2876382702205
 30
0.0
  0
LINE
  5
96
330
1F
100
AcDbEntity
  8
0
  6
HIDDEN
 62
     7
370
    18
100
AcDbLine
 10
461.88
 20
257.8376382702
 30
0.0
 11
470.88
 21
257.8376382702
 31
0.0
  0
LINE
  5
97
330
1F
100
AcDbEntity
  8
0
  6
HIDDEN
 62
     7
370
    18
100
AcDbLine
 10
464.68
 20
254.9976382702
 30
0.0
 11
463.02
 21
253.3376382702
 31
0.0
  0
LINE
  5
98
330
1F
100
AcDbEntity
  8
0
  6
HIDDEN
 62
     7
370
    18
100
AcDbLine
 10
469.74
 20
253.3376382702
 30
0.0
 11
468.08
 21
254.9976382702
 31
0.0
  0
LINE
  5
99
330
1F
100
AcDbEntity
  8
0
  6
HIDDEN
 62
     7
370
    18
100
AcDbLine
 10
468.08
 20
254.9976382702
 30
0.0
 11
468.08
 21
258.4090668416
 31
0.0
  0
LINE
  5
9A
330
1F
100
AcDbEntity
  8
0
  6
HIDDEN
 62
     7
370
    18
100
AcDbLine
 10
464.68
 20
258.4090668416
 30
0.0
 11
464.68
 21
254.9976382702
 31
0.0
  0
LINE
  5
9B
330
1F
100
AcDbEntity
  8
0
  6
Continuous
 62
     7
370
    25
100
AcDbLine
 10
461.9605826176
 20
337.7023826395
 30
0.0
 11
462.6676893988
 21
335.66136236
 31
0.0
  0
LINE
  5
9C
330
1F
100
AcDbEntity
  8
0
  6
Continuous
 62
     7
370
    25
100
AcDbLine
 10
464.0819029611
 20
338.9269948072
 30
0.0
 11
461.9605826176
 21
337.7023826395
 31
0.0
  0
LINE
  5
9D
330
1F
100
AcDbEntity
  8
0
  6
Continuous
 62
     7
370
    25
100
AcDbLine
 10
456.3037283681
 20
343.4172394223
 30
0.0
 11
464.0819029611
 21
338.9269948072
 31
0.0
  0
LINE
  5
9E
330
1F
100
AcDbEntity
  8
0
  6
Continuous
 62
     7
370
    25
100
AcDbLine
 10
460.1928156646
 20
345.6623617298
 30
0.0
 11
456.3037283681
 21
343.4172394223
 31
0.0
  0
LINE
  5
9F
330
1F
100
AcDbEntity
  8
0
  6
Continuous
 62
     7
370
    25
100
AcDbLine
 10
469.38520382
 20
339.5393008911
 30
0.0
 11
460.1928156646
 21
345.6623617298
 31
0.0
  0
LINE
  5
A0
330
1F
100
AcDbEntity
  8
0
  6
Continuous
 62
     7
370
    25
100
AcDbLine
 10
479.9918055378
 20
334.2326481643
 30
0.0
 11
469.38520382
 21
339.5393008911
 31
0.0
  0
LINE
  5
A1
330
1F
100
AcDbEntity
  8
0
  6
Continuous
 62
     7
370
    25
100
AcDbLine
 10
476.1027182413
 20
331.9875258567
 30
0.0
 11
479.9918055378
 21
334.2326481643
 31
0.0
  0
LINE
  5
A2
330
1F
100
AcDbEntity
  8
0
  6
Continuous
 62
     7
370
    25
100
AcDbLine
 10
468.3245436483
 20
336.4777704718
 30
0.0
 11
476.1027182413
 21
331.9875258567
 31
0.0
  0
LINE
  5
A3
330
1F
100
AcDbEntity
  8
0
  6
Continuous
 62
     7
370
    25
100
AcDbLine
 10
466.2032233047
 20
335.253158304
 30
0.0
 11
468.3245436483
 21
336.4777704718
 31
0.0
  0
LINE
  5
A4
330
1F
100
AcDbEntity
  8
0
  6
Continuous
 62
     7
370
    25
100
AcDbLine
 10
462.6676893988
 20
335.66136236
 30
0.0
 11
466.2032233047
 21
335.253158304
 31
0.0
  0
LINE
  5
A5
330
1F
100
AcDbEntity
  8
0
  6
Continuous
 62
     7
370
    25
100
AcDbLine
 10
476.1027182413
 20
331.9875258567
 30
0.0
 11
476.1027182413
 21
324.6386585498
 31
0.0
  0
LINE
  5
A6
330
1F
100
AcDbEntity
  8
0
  6
Continuous
 62
     7
370
    25
100
AcDbLine
 10
479.9918055378
 20
334.2326481643
 30
0.0
 11
479.9918055378
 21
326.8837808573
 31
0.0
  0
LINE
  5
A7
330
1F
100
AcDbEntity
  8
0
  6
Continuous
 62
     7
370
    25
100
AcDbLine
 10
476.1027182413
 20
324.6386585498
 30
0.0
 11
479.9918055378
 21
326.8837808573
 31
0.0
  0
LINE
  5
A8
330
1F
100
AcDbEntity
  8
0
  6
Continuous
 62
     7
370
    25
100
AcDbLine
 10
468.3245436483
 20
336.4777704718
 30
0.0
 11
468.3245436483
 21
329.1289031648
 31
0.0
  0
LINE
  5
A9
330
1F
100
AcDbEntity
  8
0
  6
Continuous
 62
     7
370
    25
100
AcDbLine
 10
468.3245436483
 20
329.1289031648
 30
0.0
 11
476.1027182413
 21
324.6386585498
 31
0.0
  0
LWPOLYLINE
  5
AA
330
1F
100
AcDbEntity
  8
0
  6
Continuous
 62
     7
370
    25
100
AcDbPolyline
 90
       40
 70
   128
 43
0.0
 10
469.4841987694
 20
332.1338821666
 10
469.4919030122
 20
331.9086683644
 10
469.5149657757
 20
331.6760200307
 10
469.5532374889
 20
331.4374459793
 10
469.6064699452
 20
331.1944934543
 10
469.6743179116
 20
330.9487380963
 10
469.756341368
 20
330.7017737229
 10
469.8520083608
 20
330.4552019928
 10
469.960698453
 20
330.2106220185
 10
470.0817067474
 20
329.9696199948
 10
470.214248459
 20
329.7337589124
 10
470.3574640038
 20
329.5045684209
 10
470.5104245741
 20
329.2835349086
 10
470.6721381618
 20
329.0720918626
 10
470.8415559924
 20
328.8716105723
 10
471.0175793261
 20
328.6833912356
 10
471.1990665841
 20
328.5086545273
 10
471.3848407519
 20
328.3485336819
 10
471.5736970128
 20
328.2040671446
 10
471.7644105613
 20
328.0761918363
 10
471.9557445471
 20
327.9657370774
 10
472.1464580956
 20
327.8734192095
 10
472.3353143565
 20
327.7998369494
 10
472.5210885243
 20
327.7454675061
 10
472.7025757823
 20
327.7106634865
 10
472.878599116
 20
327.695650608
 10
473.0480169466
 20
327.7005262348
 10
473.2097305343
 20
327.7252587466
 10
473.3626911046
 20
327.7696877436
 10
473.5059066494
 20
327.8335250867
 10
473.638448361
 20
327.9163567663
 10
473.7594566554
 20
328.0176455871
 10
473.8681467476
 20
328.1367346522
 10
473.9638137404
 20
328.2728516233
 10
474.0458371968
 20
328.4251137297
 10
474.1136851632
 20
328.5925334932
 10
474.1669176195
 20
328.7740251324
 10
474.2051893327
 20
328.9684116043
 10
474.2282520962
 20
329.1744322381
 10
474.235956339
 20
329.3907509109
  0
LWPOLYLINE
  5
AB
330
1F
100
AcDbEntity
  8
0
  6
Continuous
 62
     7
370
    25
100
AcDbPolyline
 90
       40
 70
   128
 43
0.0
 10
474.235956339
 20
329.3907509109
 10
474.2282520962
 20
329.6159647131
 10
474.2051893327
 20
329.8486130467
 10
474.1669176195
 20
330.0871870982
 10
474.1136851632
 20
330.3301396231
 10
474.0458371968
 20
330.5758949812
 10
473.9638137404
 20
330.8228593546
 10
473.8681467476
 20
331.0694310846
 10
473.7594566554
 20
331.314011059
 10
473.638448361
 20
331.5550130826
 10
473.5059066494
 20
331.790874165
 10
473.3626911046
 20
332.0200646565
 10
473.2097305343
 20
332.2410981688
 10
473.0480169466
 20
332.4525412148
 10
472.878599116
 20
332.6530225052
 10
472.7025757823
 20
332.8412418419
 10
472.5210885243
 20
333.0159785502
 10
472.3353143565
 20
333.1760993956
 10
472.1464580956
 20
333.3205659329
 10
471.9557445471
 20
333.4484412412
 10
471.7644105613
 20
333.558896
 10
471.5736970128
 20
333.6512138679
 10
471.3848407519
 20
333.7247961281
 10
471.1990665841
 20
333.7791655714
 10
471.0175793261
 20
333.813969591
 10
470.8415559924
 20
333.8289824695
 10
470.6721381618
 20
333.8241068427
 10
470.5104245741
 20
333.7993743309
 10
470.3574640038
 20
333.7549453339
 10
470.214248459
 20
333.6911079907
 10
470.0817067474
 20
333.6082763112
 10
469.960698453
 20
333.5069874904
 10
469.8520083608
 20
333.3878984253
 10
469.756341368
 20
333.2517814541
 10
469.6743179116
 20
333.0995193477
 10
469.6064699452
 20
332.9320995842
 10
469.5532374889
 20
332.7506079451
 10
469.5149657757
 20
332.5562214732
 10
469.4919030122
 20
332.3502008394
 10
469.4841987694
 20
332.1338821666
  0
ARC
  5
AC
330
1F
100
AcDbEntity
  8
0
  6
Continuous
 62
     7
370
    25
100
AcDbCircle
 10
472.5529491686
 20
332.2582223625
 30
0.0
 40
0.7317966218527958
100
AcDbArc
 50
90.2834219654
 51
189.7826365116
  0
LINE
  5
AD
330
1F
100
AcDbEntity
  8
0
  6
Continuous
 62
     7
370
    25
100
AcDbLine
 10
462.6676893988
 20
335.66136236
 30
0.0
 11
462.6676893988
 21
328.312495053
 31
0.0
  0
LINE
  5
AE
330
1F
100
AcDbEntity
  8
0
  6
Continuous
 62
     7
370
    25
100
AcDbLine
 10
466.2032233047
 20
335.253158304
 30
0.0
 11
466.2032233047
 21
327.9042909971
 31
0.0
  0
LINE
  5
AF
330
1F
100
AcDbEntity
  8
0
  6
Continuous
 62
     7
370
    25
100
AcDbLine
 10
462.6676893988
 20
328.312495053
 30
0.0
 11
466.2032233047
 21
327.9042909971
 31
0.0
  0
LWPOLYLINE
  5
B0
330
1F
100
AcDbEntity
  8
0
  6
Continuous
 62
     7
370
    25
100
AcDbPolyline
 90
       26
 70
   128
 43
0.0
 10
471.8317932829
 20
332.1338821666
 10
471.8393517193
 20
331.974098715
 10
471.8619319766
 20
331.8075978482
 10
471.899250095
 20
331.6364734111
 10
471.9508367775
 20
331.4628773929
 10
472.0160432917
 20
331.2889928643
 10
472.0940496279
 20
331.1170065239
 10
472.183874811
 20
330.9490812
 10
472.2843892372
 20
330.7873286508
 10
472.3943288795
 20
330.6337830085
 10
472.5123111829
 20
330.4903751986
 10
472.6368524515
 20
330.3589086576
 10
472.7663865067
 20
330.2410366535
 10
472.8992843824
 20
330.1382414952
 10
473.033874811
 20
330.0518158913
 10
473.1684652395
 20
329.9828466941
 10
473.3013631153
 20
329.9322012311
 10
473.4308971704
 20
329.9005163985
 10
473.5554384391
 20
329.8881906515
 10
473.6734207425
 20
329.8953789933
 10
473.7833603847
 20
329.9219910266
 10
473.883874811
 20
329.9676920894
 10
473.9736999941
 20
330.0319074645
 10
474.0517063302
 20
330.1138296062
 10
474.1169128444
 20
330.2124282961
 10
474.1338940369
 20
330.2451658926
  0
LINE
  5
B1
330
1F
100
AcDbEntity
  8
0
  6
Continuous
 62
     7
370
    25
100
AcDbLine
 10
466.2032233047
 20
327.9042909971
 30
0.0
 11
468.3245436483
 21
329.1289031648
 31
0.0
  0
LINE
  5
B2
330
1F
100
AcDbEntity
  8
0
  6
Continuous
 62
     7
370
    25
100
AcDbLine
 10
461.9605826176
 20
337.7023826395
 30
0.0
 11
461.9605826176
 21
330.3535153325
 31
0.0
  0
LINE
  5
B3
330
1F
100
AcDbEntity
  8
0
  6
Continuous
 62
     7
370
    25
100
AcDbLine
 10
461.9605826176
 20
330.3535153325
 30
0.0
 11
462.6676893988
 21
328.312495053
 31
0.0
  0
LINE
  5
B4
330
1F
100
AcDbEntity
  8
0
  6
Continuous
 62
     7
370
    25
100
AcDbLine
 10
456.3037283681
 20
343.4172394223
 30
0.0
 11
456.3037283681
 21
336.0683721153
 31
0.0
  0
LWPOLYLINE
  5
B5
330
1F
100
AcDbEntity
  8
0
  6
Continuous
 62
     7
370
    25
100
AcDbPolyline
 90
       29
 70
   128
 43
0.0
 10
458.1704902704
 20
338.6651470612
 10
458.1781945132
 20
338.439933259
 10
458.2012572767
 20
338.2072849253
 10
458.2395289899
 20
337.9687108739
 10
458.2927614462
 20
337.7257583489
 10
458.3606094126
 20
337.4800029908
 10
458.442632869
 20
337.2330386174
 10
458.5382998619
 20
336.9864668874
 10
458.646989954
 20
336.7418869131
 10
458.7679982484
 20
336.5008848894
 10
458.90053996
 20
336.265023807
 10
459.0437555048
 20
336.0358333155
 10
459.1967160751
 20
335.8147998032
 10
459.3584296628
 20
335.6033567572
 10
459.5278474934
 20
335.4028754668
 10
459.7038708271
 20
335.2146561302
 10
459.8853580851
 20
335.0399194219
 10
460.071132253
 20
334.8797985765
 10
460.2599885138
 20
334.7353320392
 10
460.4507020624
 20
334.6074567309
 10
460.6420360481
 20
334.497001972
 10
460.8327495966
 20
334.4046841041
 10
461.0216058575
 20
334.3311018439
 10
461.2073800253
 20
334.2767324007
 10
461.3888672833
 20
334.2419283811
 10
461.564890617
 20
334.2269155026
 10
461.7343084476
 20
334.2317911293
 10
461.8960220354
 20
334.2565236412
 10
461.9605826176
 20
334.2725736147
  0
LWPOLYLINE
  5
B6
330
1F
100
AcDbEntity
  8
0
  6
Continuous
 62
     7
370
    25
100
AcDbPolyline
 90
       32
 70
   128
 43
0.0
 10
462.3936965975
 20
337.952414018
 10
462.324739862
 20
338.0862779772
 10
462.1921981504
 20
338.3221390596
 10
462.0489826056
 20
338.5513295511
 10
461.8960220354
 20
338.7723630634
 10
461.7343084476
 20
338.9838061094
 10
461.564890617
 20
339.1842873998
 10
461.3888672833
 20
339.3725067365
 10
461.2073800253
 20
339.5472434448
 10
461.0216058575
 20
339.7073642901
 10
460.8327495966
 20
339.8518308275
 10
460.6420360481
 20
339.9797061358
 10
460.4507020624
 20
340.0901608946
 10
460.2599885138
 20
340.1824787625
 10
460.071132253
 20
340.2560610227
 10
459.8853580851
 20
340.3104304659
 10
459.7038708271
 20
340.3452344855
 10
459.5278474934
 20
340.3602473641
 10
459.3584296628
 20
340.3553717373
 10
459.1967160751
 20
340.3306392255
 10
459.0437555048
 20
340.2862102284
 10
458.90053996
 20
340.2223728853
 10
458.7679982484
 20
340.1395412058
 10
458.646989954
 20
340.038252385
 10
458.5382998619
 20
339.9191633199
 10
458.442632869
 20
339.7830463487
 10
458.3606094126
 20
339.6307842423
 10
458.2927614462
 20
339.4633644788
 10
458.2395289899
 20
339.2818728396
 10
458.2012572767
 20
339.0874863677
 10
458.1781945132
 20
338.881465734
 10
458.1704902704
 20
338.6651470612
  0
LINE
  5
B7
330
1F
100
AcDbEntity
  8
0
  6
Continuous
 62
     7
370
    25
100
AcDbLine
 10
456.3037283681
 20
336.0683721153
 30
0.0
 11
461.9605826176
 21
332.802739668
 31
0.0
  0
ARC
  5
B8
330
1F
100
AcDbEntity
  8
0
  6
Continuous
 62
     7
370
    25
100
AcDbCircle
 10
461.2392406696
 20
338.7894872571
 30
0.0
 40
0.7317966218528639
100
AcDbArc
 50
90.2834219654
 51
189.7826365116
  0
ARC
  5
B9
330
1F
100
AcDbEntity
  8
0
  6
Continuous
 62
     7
370
    25
100
AcDbCircle
 10
463.0189290279
 20
338.7394146334
 30
0.0
 40
2.501946762961326
100
AcDbArc
 50
181.7010128507
 51
244.9752850596
  0
LINE
  5
BA
330
1F
100
AcDbEntity
  8
0
  6
HIDDEN
 62
     7
370
    18
100
AcDbLine
 10
474.235956339
 20
330.7459883765
 30
0.0
 11
474.235956339
 21
329.3907509109
 31
0.0
  0
ARC
  5
BB
330
1F
100
AcDbEntity
  8
0
  6
HIDDEN
 62
     7
370
    18
100
AcDbCircle
 10
471.9171070783
 20
330.7589731352
 30
0.0
 40
2.318885615465875
100
AcDbArc
 50
359.6791666838
 51
74.178546582
  0
LINE
  5
BC
330
1F
100
AcDbEntity
  8
0
  6
HIDDEN
 62
     7
370
    18
100
AcDbLine
 10
479.9918055378
 20
326.8837808573
 30
0.0
 11
469.38520382
 21
332.1904335841
 31
0.0
  0
ARC
  5
BD
330
1F
100
AcDbEntity
  8
0
  6
HIDDEN
 62
     7
370
    18
100
AcDbCircle
 10
473.1040762662
 20
330.7158426631
 30
0.0
 40
1.132281441733267
100
AcDbArc
 50
335.4372958548
 51
1.5256156305
  0
SPLINE
  5
BE
330
1F
100
AcDbEntity
  8
0
  6
HIDDEN
 62
     7
370
    18
100
AcDbSpline
210
0.0
220
0.0
230
1.0
 70
     8
 71
     3
 72
    22
 73
    18
 74
     0
 42
0.00000001
 43
0.00000001
 40
0.0
 40
0.0
 40
0.0
 40
0.0
 40
0.125
 40
0.125
 40
0.25
 40
0.25
 40
0.375
 40
0.375
 40
0.5
 40
0.5
 40
0.625
 40
0.625
 40
0.75
 40
0.75
 40
0.875
 40
0.875
 40
1.0
 40
1.0
 40
1.0
 40
1.0
 10
476.7340635816602
 20
332.1881149911645
 30
0.0
 10
476.7340635816602
 20
332.3037916061817
 30
0.0
 10
476.7210124107846
 20
332.4411747029205
 30
0.0
 10
476.6440791929915
 20
332.7639524730988
 30
0.0
 10
476.5795102423437
 20
332.9502460632287
 30
0.0
 10
476.373439123255
 20
333.3494788792228
 30
0.0
 10
476.2304728278319
 20
333.5624128626278
 30
0.0
 10
475.8739484003429
 20
333.9457234773817
 30
0.0
 10
475.6607765030735
 20
334.1132170877775
 30
0.0
 10
475.2314616716388
 20
334.3280101743404
 30
0.0
 10
475.0182897743693
 20
334.3738231931611
 30
0.0
 10
474.6617653468803
 20
334.3472623415566
 30
0.0
 10
474.5187990514572
 20
334.2773850131744
 30
0.0
 10
474.3127279323685
 20
334.0843535602807
 30
0.0
 10
474.2481589817207
 20
333.9626697305889
 30
0.0
 10
474.1712257639277
 20
333.7168738026348
 30
0.0
 10
474.158174593052
 20
333.5925501255589
 30
0.0
 10
474.158174593052
 20
333.4768735105418
 30
0.0
  0
SPLINE
  5
BF
330
1F
100
AcDbEntity
  8
0
  6
HIDDEN
 62
     7
370
    18
100
AcDbSpline
210
0.0
220
0.0
230
1.0
 70
     8
 71
     3
 72
    22
 73
    18
 74
     0
 42
0.00000001
 43
0.00000001
 40
0.0
 40
0.0
 40
0.0
 40
0.0
 40
0.1250000000000003
 40
0.1250000000000003
 40
0.2500000000000002
 40
0.2500000000000002
 40
0.3750000000000002
 40
0.3750000000000002
 40
0.5000000000000002
 40
0.5000000000000002
 40
0.6250000000000001
 40
0.6250000000000001
 40
0.7500000000000001
 40
0.7500000000000001
 40
0.875
 40
0.875
 40
1.0
 40
1.0
 40
1.0
 40
1.0
 10
474.158174593052
 20
333.4768735105418
 30
0.0
 10
474.158174593052
 20
333.3611968955247
 30
0.0
 10
474.1712257639277
 20
333.2238137987857
 30
0.0
 10
474.2481589817207
 20
332.9010360286076
 30
0.0
 10
474.3127279323685
 20
332.7147424384776
 30
0.0
 10
474.5187990514572
 20
332.3155096224835
 30
0.0
 10
474.6617653468803
 20
332.1025756390785
 30
0.0
 10
475.0182897743693
 20
331.7192650243246
 30
0.0
 10
475.2314616716388
 20
331.5517714139288
 30
0.0
 10
475.6607765030735
 20
331.336978327366
 30
0.0
 10
475.8739484003429
 20
331.2911653085453
 30
0.0
 10
476.2304728278319
 20
331.3177261601498
 30
0.0
 10
476.373439123255
 20
331.3876034885319
 30
0.0
 10
476.5795102423437
 20
331.5806349414257
 30
0.0
 10
476.6440791929915
 20
331.7023187711175
 30
0.0
 10
476.7210124107846
 20
331.9481146990715
 30
0.0
 10
476.7340635816602
 20
332.0724383761474
 30
0.0
 10
476.7340635816602
 20
332.1881149911645
 30
0.0
  0
LINE
  5
C0
330
1F
100
AcDbEntity
  8
0
  6
HIDDEN
 62
     7
370
    18
100
AcDbLine
 10
464.0819029611
 20
331.5781275003
 30
0.0
 11
461.9605826176
 21
330.3535153325
 31
0.0
  0
ARC
  5
C1
330
1F
100
AcDbEntity
  8
0
  6
HIDDEN
 62
     7
370
    18
100
AcDbCircle
 10
461.3949488125
 20
335.707410278
 30
0.0
 40
1.542302775639107
100
AcDbArc
 50
291.5150913178
 51
7.9984419292
  0
ARC
  5
C2
330
1F
100
AcDbEntity
  8
0
  6
HIDDEN
 62
     7
370
    18
100
AcDbCircle
 10
458.2064468177
 20
335.7783982485
 30
0.0
 40
4.717987418829873
100
AcDbArc
 50
1.7443775245
 51
27.4382928273
  0
LINE
  5
C3
330
1F
100
AcDbEntity
  8
0
  6
HIDDEN
 62
     7
370
    18
100
AcDbLine
 10
464.0819029611
 20
338.9269948072
 30
0.0
 11
464.0819029611
 21
331.5781275003
 31
0.0
  0
LINE
  5
C4
330
1F
100
AcDbEntity
  8
0
  6
HIDDEN
 62
     7
370
    18
100
AcDbLine
 10
461.9605826176
 20
332.802739668
 30
0.0
 11
464.0819029611
 21
331.5781275003
 31
0.0
  0
LINE
  5
C5
330
1F
100
AcDbEntity
  8
0
  6
HIDDEN
 62
     7
370
    18
100
AcDbLine
 10
469.38520382
 20
339.5393008911
 30
0.0
 11
469.38520382
 21
332.1904335841
 31
0.0
  0
LINE
  5
C6
330
1F
100
AcDbEntity
  8
0
  6
HIDDEN
 62
     7
370
    18
100
AcDbLine
 10
469.38520382
 20
332.1904335841
 30
0.0
 11
460.1928156646
 21
338.3134944228
 31
0.0
  0
LINE
  5
C7
330
1F
100
AcDbEntity
  8
0
  6
HIDDEN
 62
     7
370
    18
100
AcDbLine
 10
462.92224784
 20
337.2772532711
 30
0.0
 11
462.92224784
 21
335.9220158055
 31
0.0
  0
ARC
  5
C8
330
1F
100
AcDbEntity
  8
0
  6
HIDDEN
 62
     7
370
    18
100
AcDbCircle
 10
460.6033985793
 20
337.2902380298
 30
0.0
 40
2.318885615466214
100
AcDbArc
 50
359.6791666838
 51
74.178546582
  0
LWPOLYLINE
  5
C9
330
1F
100
AcDbEntity
  8
0
  6
HIDDEN
 62
     7
370
    18
100
AcDbPolyline
 90
       14
 70
   128
 43
0.0
 10
461.9605826176
 20
336.4723371137
 10
461.9876546163
 20
336.4634661257
 10
462.1171886714
 20
336.4317812931
 10
462.2417299401
 20
336.4194555461
 10
462.3597122435
 20
336.4266438879
 10
462.4696518857
 20
336.4532559212
 10
462.570166312
 20
336.498956984
 10
462.6599914951
 20
336.5631723591
 10
462.7379978312
 20
336.6450945008
 10
462.8032043454
 20
336.7436931907
 10
462.8547910279
 20
336.857728493
 10
462.8921091464
 20
336.9857663476
 10
462.9146894037
 20
337.1261966043
 10
462.92224784
 20
337.2772532711
  0
SPLINE
  5
CA
330
1F
100
AcDbEntity
  8
0
  6
HIDDEN
 62
     7
370
    18
100
AcDbSpline
210
0.0
220
0.0
230
1.0
 70
     8
 71
     3
 72
    22
 73
    18
 74
     0
 42
0.00000001
 43
0.00000001
 40
0.0
 40
0.0
 40
0.0
 40
0.0
 40
0.125
 40
0.125
 40
0.25
 40
0.25
 40
0.375
 40
0.375
 40
0.5
 40
0.5
 40
0.625
 40
0.625
 40
0.75
 40
0.75
 40
0.875
 40
0.875
 40
1.0
 40
1.0
 40
1.0
 40
1.0
 10
465.2486291501016
 20
338.6202446150249
 30
0.0
 10
465.2486291501016
 20
338.735921230042
 30
0.0
 10
465.2373181353427
 20
338.8743088975243
 30
0.0
 10
465.170642679922
 20
339.2030083478735
 30
0.0
 10
465.1146829226939
 20
339.3942719195756
 30
0.0
 10
464.9360879528171
 20
339.8093663788851
 30
0.0
 10
464.8121838301171
 20
340.0333047203688
 30
0.0
 10
464.5031959929599
 20
340.4440576245958
 30
0.0
 10
464.3184470153264
 20
340.6279594372389
 30
0.0
 10
463.9463741614163
 20
340.8757976140423
 30
0.0
 10
463.7616251837828
 20
340.9380188351103
 30
0.0
 10
463.4526373466256
 20
340.9389002729789
 30
0.0
 10
463.3287332239257
 20
340.8800273026754
 30
0.0
 10
463.1501382540488
 20
340.7028574930972
 30
0.0
 10
463.0941784968207
 20
340.5861436449775
 30
0.0
 10
463.0275030414001
 20
340.3462693971945
 30
0.0
 10
463.0161920266412
 20
340.2229502908619
 30
0.0
 10
463.0161920266412
 20
340.1072736758448
 30
0.0
  0
SPLINE
  5
CB
330
1F
100
AcDbEntity
  8
0
  6
HIDDEN
 62
     7
370
    18
100
AcDbSpline
210
0.0
220
0.0
230
1.0
 70
     8
 71
     3
 72
    22
 73
    18
 74
     0
 42
0.00000001
 43
0.00000001
 40
0.0
 40
0.0
 40
0.0
 40
0.0
 40
0.125
 40
0.125
 40
0.25
 40
0.25
 40
0.375
 40
0.375
 40
0.5
 40
0.5
 40
0.625
 40
0.625
 40
0.75
 40
0.75
 40
0.875
 40
0.875
 40
1.0
 40
1.0
 40
1.0
 40
1.0
 10
463.0161920266412
 20
340.1072736758448
 30
0.0
 10
463.0161920266412
 20
339.9915970608276
 30
0.0
 10
463.0275030414001
 20
339.8532093933455
 30
0.0
 10
463.0941784968207
 20
339.5245099429961
 30
0.0
 10
463.1501382540488
 20
339.3332463712941
 30
0.0
 10
463.3287332239257
 20
338.9181519119846
 30
0.0
 10
463.4526373466256
 20
338.6942135705008
 30
0.0
 10
463.7616251837828
 20
338.2834606662739
 30
0.0
 10
463.9463741614163
 20
338.0995588536308
 30
0.0
 10
464.3184470153264
 20
337.8517206768274
 30
0.0
 10
464.5031959929599
 20
337.7894994557594
 30
0.0
 10
464.8121838301171
 20
337.7886180178908
 30
0.0
 10
464.9360879528171
 20
337.8474909881943
 30
0.0
 10
465.1146829226939
 20
338.0246607977725
 30
0.0
 10
465.170642679922
 20
338.1413746458921
 30
0.0
 10
465.2373181353427
 20
338.3812488936751
 30
0.0
 10
465.2486291501016
 20
338.5045680000077
 30
0.0
 10
465.2486291501016
 20
338.6202446150249
 30
0.0
  0
LINE
  5
CC
330
1F
100
AcDbEntity
  8
0
  6
HIDDEN
 62
     7
370
    18
100
AcDbLine
 10
460.1928156646
 20
345.6623617298
 30
0.0
 11
460.1928156646
 21
338.3134944228
 31
0.0
  0
LINE
  5
CD
330
1F
100
AcDbEntity
  8
0
  6
HIDDEN
 62
     7
370
    18
100
AcDbLine
 10
460.1928156646
 20
338.3134944228
 30
0.0
 11
456.3037283681
 21
336.0683721153
 31
0.0
  0
LINE
  5
CE
330
1F
100
AcDbEntity
  8
0
  6
HIDDEN
 62
     7
370
    18
100
AcDbLine
 10
473.034070183
 20
332.8279418475
 30
0.0
 11
471.8604637013
 21
333.5056707124
 31
0.0
  0
LINE
  5
CF
330
1F
100
AcDbEntity
  8
0
  6
HIDDEN
 62
     7
370
    18
100
AcDbLine
 10
474.53558944
 20
334.2697944178
 30
0.0
 11
472.1839438882
 21
332.9122183376
 31
0.0
  0
LINE
  5
D0
330
1F
100
AcDbEntity
  8
0
  6
HIDDEN
 62
     7
370
    18
100
AcDbLine
 10
473.8838057337
 20
329.9676522055
 30
0.0
 11
476.3566487347
 21
331.3951940839
 31
0.0
  0
LINE
  5
D1
330
1F
100
AcDbEntity
  8
0
  6
HIDDEN
 62
     7
370
    18
100
AcDbLine
 10
461.720361684
 20
339.3592067421
 30
0.0
 11
460.5467552023
 21
340.036935607
 31
0.0
  0
LINE
  5
D2
330
1F
100
AcDbEntity
  8
0
  6
HIDDEN
 62
     7
370
    18
100
AcDbLine
 10
463.3430783902
 20
340.8710251106
 30
0.0
 11
460.8702353892
 21
339.4434832322
 31
0.0
  0
LINE
  5
D3
330
1F
100
AcDbEntity
  8
0
  6
HIDDEN
 62
     7
370
    18
100
AcDbLine
 10
462.5700972347
 20
336.4989171001
 30
0.0
 11
464.9217427865
 21
337.8564931803
 31
0.0
  0
ENDSEC
  0
SECTION
  2
OBJECTS
  0
DICTIONARY
  5
C
330
0
100
AcDbDictionary
281
     1
  3
ACAD_GROUP
350
D
  3
ACAD_LAYOUT
350
1A
  3
ACAD_MLINESTYLE
350
17
  3
ACAD_PLOTSETTINGS
350
19
  3
ACAD_PLOTSTYLENAME
350
E
  3
ACAD_SCALELIST
350
47
  3
DWGPROPS
350
D4
  0
DICTIONARY
  5
D
102
{ACAD_REACTORS
330
C
102
}
330
C
100
AcDbDictionary
281
     1
  0
DICTIONARY
  5
1A
102
{ACAD_REACTORS
330
C
102
}
330
C
100
AcDbDictionary
281
     1
  3
Layout1
350
1E
  3
Layout2
350
26
  3
Model
350
22
  0
DICTIONARY
  5
17
102
{ACAD_REACTORS
330
C
102
}
330
C
100
AcDbDictionary
281
     1
  3
Standard
350
18
  0
DICTIONARY
  5
19
102
{ACAD_REACTORS
330
C
102
}
330
C
100
AcDbDictionary
281
     1
  0
ACDBDICTIONARYWDFLT
  5
E
102
{ACAD_REACTORS
330
C
102
}
330
C
100
AcDbDictionary
281
     1
  3
Normal
350
F
100
AcDbDictionaryWithDefault
340
F
  0
DICTIONARY
  5
47
102
{ACAD_REACTORS
330
C
102
}
330
C
100
AcDbDictionary
281
     1
  3
A0
350
48
  3
A1
350
49
  3
A2
350
4A
  3
A3
350
4B
  3
A4
350
4C
  3
A5
350
4D
  3
A6
350
4E
  3
A7
350
4F
  3
A8
350
50
  3
A9
350
51
  3
B0
350
52
  3
B1
350
53
  3
B2
350
54
  3
B3
350
55
  3
B4
350
56
  3
B5
350
57
  3
B6
350
58
  0
XRECORD
  5
D4
102
{ACAD_REACTORS
330
C
102
}
330
C
100
AcDbXrecord
280
     1
  1
DWGPROPS COOKIE
  2

  3

  4

  6

  7

  8
imaizumi
  9

300
=
301
=
302
=
303
=
304
=
305
=
306
=
307
=
308
=
309
=
 40
0.0
 41
2461263.067948611
 42
2461263.067949283
  1

 90
        0
  0
LAYOUT
  5
1E
102
{ACAD_REACTORS
330
1A
102
}
330
1A
100
AcDbPlotSettings
  1

  2
none_device
  4

  6

 40
0.0
 41
0.0
 42
0.0
 43
0.0
 44
0.0
 45
0.0
 46
0.0
 47
0.0
 48
0.0
 49
0.0
140
0.0
141
0.0
142
1.0
143
1.0
 70
   688
 72
     1
 73
     0
 74
     5
  7

 75
    16
147
1.0
148
0.0
149
0.0
100
AcDbLayout
  1
Layout1
 70
     1
 71
     1
 10
0.0
 20
0.0
 11
420.0
 21
297.0
 12
0.0
 22
0.0
 32
0.0
 14
1.0000000000E+20
 24
1.0000000000E+20
 34
1.0000000000E+20
 15
-1.0000000000E+20
 25
-1.0000000000E+20
 35
-1.0000000000E+20
146
0.0
 13
0.0
 23
0.0
 33
0.0
 16
1.0
 26
0.0
 36
0.0
 17
0.0
 27
1.0
 37
0.0
 76
     0
330
1B
  0
LAYOUT
  5
26
102
{ACAD_REACTORS
330
1A
102
}
330
1A
100
AcDbPlotSettings
  1

  2
none_device
  4

  6

 40
0.0
 41
0.0
 42
0.0
 43
0.0
 44
0.0
 45
0.0
 46
0.0
 47
0.0
 48
0.0
 49
0.0
140
0.0
141
0.0
142
1.0
143
1.0
 70
   688
 72
     1
 73
     0
 74
     5
  7

 75
    16
147
1.0
148
0.0
149
0.0
100
AcDbLayout
  1
Layout2
 70
     1
 71
     2
 10
0.0
 20
0.0
 11
0.0
 21
0.0
 12
0.0
 22
0.0
 32
0.0
 14
0.0
 24
0.0
 34
0.0
 15
0.0
 25
0.0
 35
0.0
146
0.0
 13
0.0
 23
0.0
 33
0.0
 16
1.0
 26
0.0
 36
0.0
 17
0.0
 27
1.0
 37
0.0
 76
     0
330
23
  0
LAYOUT
  5
22
102
{ACAD_REACTORS
330
1A
102
}
330
1A
100
AcDbPlotSettings
  1

  2
none_device
  4
Letter_(8.50_x_11.00_Inches)
  6

 40
6.35
 41
6.35
 42
6.35000508
 43
6.35000508
 44
215.9
 45
279.4
 46
0.0
 47
0.0
 48
0.0
 49
0.0
140
0.0
141
0.0
142
1.0
143
1.0
 70
  1712
 72
     1
 73
     0
 74
     0
  7

 75
     0
147
1.0
148
0.0
149
0.0
100
AcDbLayout
  1
Model
 70
     1
 71
     0
 10
0.0
 20
0.0
 11
841.0
 21
594.0
 12
0.0
 22
0.0
 32
0.0
 14
0.0
 24
0.0
 34
0.0
 15
841.0
 25
594.0
 35
0.0
146
0.0
 13
0.0
 23
0.0
 33
0.0
 16
1.0
 26
0.0
 36
0.0
 17
0.0
 27
1.0
 37
0.0
 76
     0
330
1F
331
29
  0
MLINESTYLE
  5
18
102
{ACAD_REACTORS
330
17
102
}
330
17
100
AcDbMlineStyle
  2
Standard
 70
     0
  3

 62
   256
 51
90.0
 52
90.0
 71
     2
 49
0.5
 62
   256
  6
BYLAYER
 49
-0.5
 62
   256
  6
BYLAYER
  0
ACDBPLACEHOLDER
  5
F
102
{ACAD_REACTORS
330
E
102
}
330
E
  0
SCALE
  5
48
102
{ACAD_REACTORS
330
47
102
}
330
47
100
AcDbScale
 70
     0
300
1:1
140
1.0
141
1.0
290
     1
  0
SCALE
  5
49
102
{ACAD_REACTORS
330
47
102
}
330
47
100
AcDbScale
 70
     0
300
1:2
140
1.0
141
2.0
290
     0
  0
SCALE
  5
4A
102
{ACAD_REACTORS
330
47
102
}
330
47
100
AcDbScale
 70
     0
300
1:4
140
1.0
141
4.0
290
     0
  0
SCALE
  5
4B
102
{ACAD_REACTORS
330
47
102
}
330
47
100
AcDbScale
 70
     0
300
1:5
140
1.0
141
5.0
290
     0
  0
SCALE
  5
4C
102
{ACAD_REACTORS
330
47
102
}
330
47
100
AcDbScale
 70
     0
300
1:8
140
1.0
141
8.0
290
     0
  0
SCALE
  5
4D
102
{ACAD_REACTORS
330
47
102
}
330
47
100
AcDbScale
 70
     0
300
1:10
140
1.0
141
10.0
290
     0
  0
SCALE
  5
4E
102
{ACAD_REACTORS
330
47
102
}
330
47
100
AcDbScale
 70
     0
300
1:16
140
1.0
141
16.0
290
     0
  0
SCALE
  5
4F
102
{ACAD_REACTORS
330
47
102
}
330
47
100
AcDbScale
 70
     0
300
1:20
140
1.0
141
20.0
290
     0
  0
SCALE
  5
50
102
{ACAD_REACTORS
330
47
102
}
330
47
100
AcDbScale
 70
     0
300
1:30
140
1.0
141
30.0
290
     0
  0
SCALE
  5
51
102
{ACAD_REACTORS
330
47
102
}
330
47
100
AcDbScale
 70
     0
300
1:40
140
1.0
141
40.0
290
     0
  0
SCALE
  5
52
102
{ACAD_REACTORS
330
47
102
}
330
47
100
AcDbScale
 70
     0
300
1:50
140
1.0
141
50.0
290
     0
  0
SCALE
  5
53
102
{ACAD_REACTORS
330
47
102
}
330
47
100
AcDbScale
 70
     0
300
1:100
140
1.0
141
100.0
290
     0
  0
SCALE
  5
54
102
{ACAD_REACTORS
330
47
102
}
330
47
100
AcDbScale
 70
     0
300
2:1
140
2.0
141
1.0
290
     0
  0
SCALE
  5
55
102
{ACAD_REACTORS
330
47
102
}
330
47
100
AcDbScale
 70
     0
300
4:1
140
4.0
141
1.0
290
     0
  0
SCALE
  5
56
102
{ACAD_REACTORS
330
47
102
}
330
47
100
AcDbScale
 70
     0
300
8:1
140
8.0
141
1.0
290
     0
  0
SCALE
  5
57
102
{ACAD_REACTORS
330
47
102
}
330
47
100
AcDbScale
 70
     0
300
10:1
140
10.0
141
1.0
290
     0
  0
SCALE
  5
58
102
{ACAD_REACTORS
330
47
102
}
330
47
100
AcDbScale
 70
     0
300
100:1
140
100.0
141
1.0
290
     0
  0
ENDSEC
  0
EOF
