  0
SECTION
  2
HEADER
  9
$ACADVER
  1
AC1015
  9
$ACADMAINTVER
 70
     6
  9
$DWGCODEPAGE
  3
DOS932
  9
$INSBASE
 10
0.0
 20
0.0
 30
0.0
  9
$EXTMIN
 10
0.0
 20
0.0
 30
0.0
  9
$EXTMAX
 10
841.0
 20
594.0
 30
0.0
  9
$LIMMIN
 10
0.0
 20
0.0
  9
$LIMMAX
 10
841.0
 20
594.0
  9
$ORTHOMODE
 70
     0
  9
$REGENMODE
 70
     1
  9
$FILLMODE
 70
     1
  9
$QTEXTMODE
 70
     0
  9
$MIRRTEXT
 70
     1
  9
$LTSCALE
 40
1.0
  9
$ATTMODE
 70
     1
  9
$TEXTSIZE
 40
3.5
  9
$TRACEWID
 40
1.0
  9
$TEXTSTYLE
  7
Standard
  9
$CLAYER
  8
0
  9
$CELTYPE
  6
ByLayer
  9
$CECOLOR
 62
   256
  9
$CELTSCALE
 40
1.0
  9
$DISPSILH
 70
     0
  9
$DIMSCALE
 40
1.0
  9
$DIMASZ
 40
3.302
  9
$DIMEXO
 40
1.0
  9
$DIMDLI
 40
3.75
  9
$DIMRND
 40
0.0
  9
$DIMDLE
 40
0.0
  9
$DIMEXE
 40
1.0
  9
$DIMTP
 40
0.0
  9
$DIMTM
 40
0.0
  9
$DIMTXT
 40
3.5
  9
$DIMCEN
 40
2.5
  9
$DIMTSZ
 40
0.0
  9
$DIMTOL
 70
     0
  9
$DIMLIM
 70
     0
  9
$DIMTIH
 70
     1
  9
$DIMTOH
 70
     1
  9
$DIMSE1
 70
     0
  9
$DIMSE2
 70
     0
  9
$DIMTAD
 70
     1
  9
$DIMZIN
 70
     1
  9
$DIMBLK
  1

  9
$DIMASO
 70
     1
  9
$DIMSHO
 70
     1
  9
$DIMPOST
  1

  9
$DIMAPOST
  1

  9
$DIMALT
 70
     0
  9
$DIMALTD
 70
     3
  9
$DIMALTF
 40
0.0393700787
  9
$DIMLFAC
 40
0.5
  9
$DIMTOFL
 70
     1
  9
$DIMTVP
 40
0.0
  9
$DIMTIX
 70
     0
  9
$DIMSOXD
 70
     0
  9
$DIMSAH
 70
     0
  9
$DIMBLK1
  1

  9
$DIMBLK2
  1

  9
$DIMSTYLE
  2
ISO-25
  9
$DIMCLRD
 70
     0
  9
$DIMCLRE
 70
     0
  9
$DIMCLRT
 70
     0
  9
$DIMTFAC
 40
1.0
  9
$DIMGAP
 40
1.524
  9
$DIMJUST
 70
     0
  9
$DIMSD1
 70
     0
  9
$DIMSD2
 70
     0
  9
$DIMTOLJ
 70
     0
  9
$DIMTZIN
 70
     1
  9
$DIMALTZ
 70
     0
  9
$DIMALTTZ
 70
     0
  9
$DIMUPT
 70
     0
  9
$DIMDEC
 70
     2
  9
$DIMTDEC
 70
     2
  9
$DIMALTU
 70
     2
  9
$DIMALTTD
 70
     3
  9
$DIMTXSTY
  7
Standard
  9
$DIMAUNIT
 70
     0
  9
$DIMADEC
 70
     2
  9
$DIMALTRND
 40
0.0
  9
$DIMAZIN
 70
     0
  9
$DIMDSEP
 70
    44
  9
$DIMATFIT
 70
     3
  9
$DIMFRAC
 70
     0
  9
$DIMLDRBLK
  1

  9
$DIMLUNIT
 70
     2
  9
$DIMLWD
 70
    -2
  9
$DIMLWE
 70
    -2
  9
$DIMTMOVE
 70
     0
  9
$LUNITS
 70
     2
  9
$LUPREC
 70
     2
  9
$SKETCHINC
 40
1.0
  9
$FILLETRAD
 40
0.0
  9
$AUNITS
 70
     0
  9
$AUPREC
 70
     2
  9
$MENU
  1
.
  9
$ELEVATION
 40
0.0
  9
$PELEVATION
 40
0.0
  9
$THICKNESS
 40
0.0
  9
$LIMCHECK
 70
     0
  9
$CHAMFERA
 40
0.0
  9
$CHAMFERB
 40
0.0
  9
$CHAMFERC
 40
0.0
  9
$CHAMFERD
 40
0.0
  9
$SKPOLY
 70
     0
  9
$TDCREATE
 40
2461263.442747928
  9
$TDUCREATE
 40
2461263.067747928
  9
$TDUPDATE
 40
2461263.442748276
  9
$TDUUPDATE
 40
2461263.067748276
  9
$TDINDWG
 40
0.0000000116
  9
$TDUSRTIMER
 40
0.0000000116
  9
$USRTIMER
 70
     1
  9
$ANGBASE
 50
0.0
  9
$ANGDIR
 70
     0
  9
$PDMODE
 70
     0
  9
$PDSIZE
 40
-1.0
  9
$PLINEWID
 40
0.0
  9
$SPLFRAME
 70
     0
  9
$SPLINETYPE
 70
     6
  9
$SPLINESEGS
 70
     8
  9
$HANDSEED
  5
DA
  9
$SURFTAB1
 70
     6
  9
$SURFTAB2
 70
     6
  9
$SURFTYPE
 70
     6
  9
$SURFU
 70
     6
  9
$SURFV
 70
     6
  9
$UCSBASE
  2

  9
$UCSNAME
  2

  9
$UCSORG
 10
0.0
 20
0.0
 30
0.0
  9
$UCSXDIR
 10
1.0
 20
0.0
 30
0.0
  9
$UCSYDIR
 10
0.0
 20
1.0
 30
0.0
  9
$UCSORTHOREF
  2

  9
$UCSORTHOVIEW
 70
     0
  9
$UCSORGTOP
 10
0.0
 20
0.0
 30
0.0
  9
$UCSORGBOTTOM
 10
0.0
 20
0.0
 30
0.0
  9
$UCSORGLEFT
 10
0.0
 20
0.0
 30
0.0
  9
$UCSORGRIGHT
 10
0.0
 20
0.0
 30
0.0
  9
$UCSORGFRONT
 10
0.0
 20
0.0
 30
0.0
  9
$UCSORGBACK
 10
0.0
 20
0.0
 30
0.0
  9
$PUCSBASE
  2

  9
$PUCSNAME
  2

  9
$PUCSORG
 10
0.0
 20
0.0
 30
0.0
  9
$PUCSXDIR
 10
1.0
 20
0.0
 30
0.0
  9
$PUCSYDIR
 10
0.0
 20
1.0
 30
0.0
  9
$PUCSORTHOREF
  2

  9
$PUCSORTHOVIEW
 70
     0
  9
$PUCSORGTOP
 10
0.0
 20
0.0
 30
0.0
  9
$PUCSORGBOTTOM
 10
0.0
 20
0.0
 30
0.0
  9
$PUCSORGLEFT
 10
0.0
 20
0.0
 30
0.0
  9
$PUCSORGRIGHT
 10
0.0
 20
0.0
 30
0.0
  9
$PUCSORGFRONT
 10
0.0
 20
0.0
 30
0.0
  9
$PUCSORGBACK
 10
0.0
 20
0.0
 30
0.0
  9
$USERI1
 70
     0
  9
$USERI2
 70
     0
  9
$USERI3
 70
     0
  9
$USERI4
 70
     0
  9
$USERI5
 70
     0
  9
$USERR1
 40
0.0
  9
$USERR2
 40
0.0
  9
$USERR3
 40
0.0
  9
$USERR4
 40
0.0
  9
$USERR5
 40
0.0
  9
$WORLDVIEW
 70
     1
  9
$SHADEDGE
 70
     3
  9
$SHADEDIF
 70
    70
  9
$TILEMODE
 70
     1
  9
$MAXACTVP
 70
    64
  9
$PINSBASE
 10
0.0
 20
0.0
 30
0.0
  9
$PLIMCHECK
 70
     0
  9
$PEXTMIN
 10
1.0000000000E+20
 20
1.0000000000E+20
 30
1.0000000000E+20
  9
$PEXTMAX
 10
-1.0000000000E+20
 20
-1.0000000000E+20
 30
-1.0000000000E+20
  9
$PLIMMIN
 10
0.0
 20
0.0
  9
$PLIMMAX
 10
420.0
 20
297.0
  9
$UNITMODE
 70
     0
  9
$VISRETAIN
 70
     1
  9
$PLINEGEN
 70
     0
  9
$PSLTSCALE
 70
     1
  9
$TREEDEPTH
 70
  3020
  9
$CMLSTYLE
  2
Standard
  9
$CMLJUST
 70
     0
  9
$CMLSCALE
 40
20.0
  9
$PROXYGRAPHICS
 70
     1
  9
$MEASUREMENT
 70
     1
  9
$CELWEIGHT
370
    -1
  9
$ENDCAPS
280
     0
  9
$JOINSTYLE
280
     0
  9
$LWDISPLAY
290
     1
  9
$INSUNITS
 70
     4
  9
$HYPERLINKBASE
  1

  9
$STYLESHEET
  1

  9
$XEDIT
290
     1
  9
$CEPSNTYPE
380
     0
  9
$PSTYLEMODE
290
     1
  9
$FINGERPRINTGUID
  2
{5f2aa7d2-ba3a-4510-b358-bbd9035c8e22}
  9
$VERSIONGUID
  2
{FAEB1C32-E019-11D5-929B-00C0DF256EC4}
  9
$EXTNAMES
290
     1
  9
$PSVPSCALE
 40
0.0
  9
$OLESTARTUP
290
     0
  0
ENDSEC
  0
SECTION
  2
CLASSES
  0
CLASS
  1
ACDBDICTIONARYWDFLT
  2
AcDbDictionaryWithDefault
  3
ObjectDBX Classes
 90
        0
280
     0
281
     0
  0
CLASS
  1
VISUALSTYLE
  2
AcDbVisualStyle
  3
ObjectDBX Classes
 90
     4095
280
     0
281
     0
  0
CLASS
  1
MATERIAL
  2
AcDbMaterial
  3
ObjectDBX Classes
 90
     1153
280
     0
281
     0
  0
CLASS
  1
SCALE
  2
AcDbScale
  3
ObjectDBX Classes
 90
     1153
280
     0
281
     0
  0
CLASS
  1
TABLESTYLE
  2
AcDbTableStyle
  3
ObjectDBX Classes
 90
     4095
280
     0
281
     0
  0
CLASS
  1
MLEADERSTYLE
  2
AcDbMLeaderStyle
  3
ACDB_MLEADERSTYLE_CLASS
 90
     4095
280
     0
281
     0
  0
CLASS
  1
SUN
  2
AcDbSun
  3
SCENEOE
 90
     1153
280
     0
281
     0
  0
CLASS
  1
ACDBPLACEHOLDER
  2
AcDbPlaceHolder
  3
ObjectDBX Classes
 90
        0
280
     0
281
     0
  0
CLASS
  1
LAYOUT
  2
AcDbLayout
  3
ObjectDBX Classes
 90
        0
280
     0
281
     0
  0
ENDSEC
  0
SECTION
  2
TABLES
  0
TABLE
  2
VPORT
  5
8
330
0
100
AcDbSymbolTable
 70
     1
  0
VPORT
  5
29
330
8
100
AcDbSymbolTableRecord
100
AcDbViewportTableRecord
  2
*Active
 70
     0
 10
0.0
 20
0.0
 11
1.0
 21
1.0
 12
420.5
 22
297.0
 13
0.0
 23
0.0
 14
10.0
 24
10.0
 15
10.0
 25
10.0
 16
0.0
 26
0.0
 36
1.0
 17
0.0
 27
0.0
 37
0.0
 40
594.0
 41
1.4158249158
 42
50.0
 43
0.0
 44
0.0
 50
0.0
 51
0.0
 71
     0
 72
  2000
 73
     1
 74
     3
 75
     0
 76
     0
 77
     0
 78
     0
281
     0
 65
     1
110
0.0
120
0.0
130
0.0
111
1.0
121
0.0
131
0.0
112
0.0
122
1.0
132
0.0
 79
     0
146
0.0
  0
ENDTAB
  0
TABLE
  2
LTYPE
  5
5
330
0
100
AcDbSymbolTable
 70
     6
  0
LTYPE
  5
14
330
5
100
AcDbSymbolTableRecord
100
AcDbLinetypeTableRecord
  2
ByBlock
 70
     0
  3

 72
    65
 73
     0
 40
0.0
  0
LTYPE
  5
15
330
5
100
AcDbSymbolTableRecord
100
AcDbLinetypeTableRecord
  2
ByLayer
 70
     0
  3

 72
    65
 73
     0
 40
0.0
  0
LTYPE
  5
16
330
5
100
AcDbSymbolTableRecord
100
AcDbLinetypeTableRecord
  2
Continuous
 70
     0
  3
Solid line
 72
    65
 73
     0
 40
0.0
  0
LTYPE
  5
5E
330
5
100
AcDbSymbolTableRecord
100
AcDbLinetypeTableRecord
  2
HIDDEN
 70
     0
  3
Hidden __ __ __ __ __ __ __ __ __ __ __ __ __ __
 72
    65
 73
     2
 40
1.905
 49
1.27
 74
     0
 49
-0.635
 74
     0
  0
LTYPE
  5
5F
330
5
100
AcDbSymbolTableRecord
100
AcDbLinetypeTableRecord
  2
PHANTOM
 70
     0
  3
Phantom ______  __  __  ______  __  __  ______
 72
    65
 73
     6
 40
12.7
 49
6.35
 74
     0
 49
-1.27
 74
     0
 49
1.27
 74
     0
 49
-1.27
 74
     0
 49
1.27
 74
     0
 49
-1.27
 74
     0
  0
LTYPE
  5
60
330
5
100
AcDbSymbolTableRecord
100
AcDbLinetypeTableRecord
  2
CENTER
 70
     0
  3
Center ____ _ ____ _ ____ _ ____ _ ____ _ ____
 72
    65
 73
     4
 40
10.16
 49
6.35
 74
     0
 49
-1.27
 74
     0
 49
1.27
 74
     0
 49
-1.27
 74
     0
  0
LTYPE
  5
61
330
5
100
AcDbSymbolTableRecord
100
AcDbLinetypeTableRecord
  2
CENTERX2
 70
     0
  3
Center (2x) ________  __  ________  __  _____
 72
    65
 73
     4
 40
20.32
 49
12.7
 74
     0
 49
-2.54
 74
     0
 49
2.54
 74
     0
 49
-2.54
 74
     0
  0
LTYPE
  5
62
330
5
100
AcDbSymbolTableRecord
100
AcDbLinetypeTableRecord
  2
DOT2
 70
     0
  3
Dot (.5x) ........................................
 72
    65
 73
     2
 40
0.635
 49
0.0
 74
     0
 49
-0.635
 74
     0
  0
ENDTAB
  0
TABLE
  2
LAYER
  5
2
330
0
100
AcDbSymbolTable
 70
     1
  0
LAYER
  5
10
330
2
100
AcDbSymbolTableRecord
100
AcDbLayerTableRecord
  2
0
 70
     0
 62
     7
  6
Continuous
370
    -3
390
F
  0
ENDTAB
  0
TABLE
  2
STYLE
  5
3
330
0
100
AcDbSymbolTable
 70
     1
  0
STYLE
  5
11
330
3
100
AcDbSymbolTableRecord
100
AcDbTextStyleTableRecord
  2
Standard
 70
     0
 40
0.0
 41
1.0
 50
0.0
 71
     0
 42
3.5
  3
txt
  4
bigfont
  0
ENDTAB
  0
TABLE
  2
VIEW
  5
6
330
0
100
AcDbSymbolTable
 70
     0
  0
ENDTAB
  0
TABLE
  2
UCS
  5
7
330
0
100
AcDbSymbolTable
 70
     0
  0
ENDTAB
  0
TABLE
  2
APPID
  5
9
330
0
100
AcDbSymbolTable
 70
     1
  0
APPID
  5
12
330
9
100
AcDbSymbolTableRecord
100
AcDbRegAppTableRecord
  2
ACAD
 70
     0
  0
ENDTAB
  0
TABLE
  2
DIMSTYLE
  5
A
330
0
100
AcDbSymbolTable
 70
     1
100
AcDbDimStyleTable
  0
DIMSTYLE
105
27
330
A
100
AcDbSymbolTableRecord
100
AcDbDimStyleTableRecord
  2
ISO-25
 70
     0
 41
2.5
 42
0.625
 43
3.75
 44
1.25
 73
     0
 74
     0
 77
     1
 78
     8
140
2.5
141
2.5
143
0.0393700787
147
0.625
171
     3
172
     1
178
     0
271
     2
272
     2
274
     3
278
    44
283
     0
284
     8
340
11
  0
ENDTAB
  0
TABLE
  2
BLOCK_RECORD
  5
1
330
0
100
AcDbSymbolTable
 70
     1
  0
BLOCK_RECORD
  5
1F
330
1
100
AcDbSymbolTableRecord
100
AcDbBlockTableRecord
  2
*Model_Space
340
22
  0
BLOCK_RECORD
  5
1B
330
1
100
AcDbSymbolTableRecord
100
AcDbBlockTableRecord
  2
*Paper_Space
340
1E
  0
BLOCK_RECORD
  5
23
330
1
100
AcDbSymbolTableRecord
100
AcDbBlockTableRecord
  2
*Paper_Space0
340
26
  0
ENDTAB
  0
ENDSEC
  0
SECTION
  2
BLOCKS
  0
BLOCK
  5
20
330
1F
100
AcDbEntity
  8
0
100
AcDbBlockBegin
  2
*Model_Space
 70
     0
 10
0.0
 20
0.0
 30
0.0
  3
*Model_Space
  1

  0
ENDBLK
  5
21
330
1F
100
AcDbEntity
  8
0
100
AcDbBlockEnd
  0
BLOCK
  5
1C
330
1B
100
AcDbEntity
 67
     1
  8
0
100
AcDbBlockBegin
  2
*Paper_Space
 70
     0
 10
0.0
 20
0.0
 30
0.0
  3
*Paper_Space
  1

  0
ENDBLK
  5
1D
330
1B
100
AcDbEntity
 67
     1
  8
0
100
AcDbBlockEnd
  0
BLOCK
  5
24
330
23
100
AcDbEntity
  8
0
100
AcDbBlockBegin
  2
*Paper_Space0
 70
     0
 10
0.0
 20
0.0
 30
0.0
  3
*Paper_Space0
  1

  0
ENDBLK
  5
25
330
23
100
AcDbEntity
  8
0
100
AcDbBlockEnd
  0
ENDSEC
  0
SECTION
  2
ENTITIES
  0
LINE
  5
63
330
1F
100
AcDbEntity
  8
0
  6
Continuous
 62
     7
370
    25
100
AcDbLine
 10
335.0627579795
 20
250.5060217128
 30
0.0
 11
353.8627579795
 21
250.5060217128
 31
0.0
  0
LINE
  5
64
330
1F
100
AcDbEntity
  8
0
  6
Continuous
 62
     7
370
    25
100
AcDbLine
 10
335.0627579795
 20
204.0060217128
 30
0.0
 11
353.8627579795
 21
204.0060217128
 31
0.0
  0
ARC
  5
65
330
1F
100
AcDbEntity
  8
0
  6
Continuous
 62
     7
370
    25
100
AcDbCircle
 10
335.0627579795
 20
207.0060217128
 30
0.0
 40
3.0
100
AcDbArc
 50
180.0
 51
270.0
  0
ARC
  5
66
330
1F
100
AcDbEntity
  8
0
  6
Continuous
 62
     7
370
    25
100
AcDbCircle
 10
341.5627579795
 20
219.0060217128
 30
0.0
 40
2.0
100
AcDbArc
 50
180.0
 51
0.0
  0
ARC
  5
67
330
1F
100
AcDbEntity
  8
0
  6
Continuous
 62
     7
370
    25
100
AcDbCircle
 10
341.5627579795
 20
219.0060217128
 30
0.0
 40
2.0
100
AcDbArc
 50
0.0
 51
180.0
  0
ARC
  5
68
330
1F
100
AcDbEntity
  8
0
  6
Continuous
 62
     7
370
    25
100
AcDbCircle
 10
341.5627579795
 20
235.5060217128
 30
0.0
 40
2.0
100
AcDbArc
 50
180.0
 51
0.0
  0
ARC
  5
69
330
1F
100
AcDbEntity
  8
0
  6
Continuous
 62
     7
370
    25
100
AcDbCircle
 10
341.5627579795
 20
235.5060217128
 30
0.0
 40
2.0
100
AcDbArc
 50
0.0
 51
180.0
  0
LINE
  5
6A
330
1F
100
AcDbEntity
  8
0
  6
Continuous
 62
     7
370
    25
100
AcDbLine
 10
332.0627579795
 20
207.0060217128
 30
0.0
 11
332.0627579795
 21
247.5060217128
 31
0.0
  0
ARC
  5
6B
330
1F
100
AcDbEntity
  8
0
  6
Continuous
 62
     7
370
    25
100
AcDbCircle
 10
335.0627579795
 20
247.5060217128
 30
0.0
 40
3.000000000000028
100
AcDbArc
 50
90.0
 51
180.0
  0
LINE
  5
6C
330
1F
100
AcDbEntity
  8
0
  6
Continuous
 62
     7
370
    25
100
AcDbLine
 10
357.0627579795
 20
204.0060217128
 30
0.0
 11
357.0627579795
 21
250.5060217128
 31
0.0
  0
LINE
  5
6D
330
1F
100
AcDbEntity
  8
0
  6
Continuous
 62
     7
370
    25
100
AcDbLine
 10
353.8627579795
 20
204.0060217128
 30
0.0
 11
357.0627579795
 21
204.0060217128
 31
0.0
  0
LINE
  5
6E
330
1F
100
AcDbEntity
  8
0
  6
Continuous
 62
     7
370
    25
100
AcDbLine
 10
353.8627579795
 20
250.5060217128
 30
0.0
 11
357.0627579795
 21
250.5060217128
 31
0.0
  0
ARC
  5
6F
330
1F
100
AcDbEntity
  8
0
  6
Continuous
 62
     7
370
    25
100
AcDbCircle
 10
376.0627579795
 20
247.5060217128
 30
0.0
 40
3.000000000000028
100
AcDbArc
 50
0.0
 51
90.0
  0
LINE
  5
70
330
1F
100
AcDbEntity
  8
0
  6
Continuous
 62
     7
370
    25
100
AcDbLine
 10
379.0627579795
 20
207.0060217128
 30
0.0
 11
379.0627579795
 21
247.5060217128
 31
0.0
  0
ARC
  5
71
330
1F
100
AcDbEntity
  8
0
  6
Continuous
 62
     7
370
    25
100
AcDbCircle
 10
376.0627579795
 20
207.0060217128
 30
0.0
 40
3.0
100
AcDbArc
 50
270.0
 51
0.0
  0
LINE
  5
72
330
1F
100
AcDbEntity
  8
0
  6
Continuous
 62
     7
370
    25
100
AcDbLine
 10
372.5627579795
 20
214.0060217128
 30
0.0
 11
372.5627579795
 21
240.5060217128
 31
0.0
  0
ARC
  5
73
330
1F
100
AcDbEntity
  8
0
  6
Continuous
 62
     7
370
    25
100
AcDbCircle
 10
369.0627579795
 20
240.5060217128
 30
0.0
 40
3.500000000000057
100
AcDbArc
 50
0.0
 51
180.0
  0
LINE
  5
74
330
1F
100
AcDbEntity
  8
0
  6
Continuous
 62
     7
370
    25
100
AcDbLine
 10
365.5627579795
 20
240.5060217128
 30
0.0
 11
365.5627579795
 21
214.0060217128
 31
0.0
  0
ARC
  5
75
330
1F
100
AcDbEntity
  8
0
  6
Continuous
 62
     7
370
    25
100
AcDbCircle
 10
369.0627579795
 20
214.0060217128
 30
0.0
 40
3.500000000000057
100
AcDbArc
 50
180.0
 51
0.0
  0
LINE
  5
76
330
1F
100
AcDbEntity
  8
0
  6
Continuous
 62
     7
370
    25
100
AcDbLine
 10
357.0627579795
 20
204.0060217128
 30
0.0
 11
376.0627579795
 21
204.0060217128
 31
0.0
  0
LINE
  5
77
330
1F
100
AcDbEntity
  8
0
  6
Continuous
 62
     7
370
    25
100
AcDbLine
 10
357.0627579795
 20
250.5060217128
 30
0.0
 11
376.0627579795
 21
250.5060217128
 31
0.0
  0
LINE
  5
78
330
1F
100
AcDbEntity
  8
0
  6
HIDDEN
 62
     7
370
    18
100
AcDbLine
 10
353.8627579795
 20
204.0060217128
 30
0.0
 11
353.8627579795
 21
250.5060217128
 31
0.0
  0
LINE
  5
79
330
1F
100
AcDbEntity
  8
0
  6
Continuous
 62
     7
370
    25
100
AcDbLine
 10
335.0627579795
 20
329.13
 30
0.0
 11
332.0627579795
 21
329.13
 31
0.0
  0
LINE
  5
7A
330
1F
100
AcDbEntity
  8
0
  6
Continuous
 62
     7
370
    25
100
AcDbLine
 10
332.0627579795
 20
329.13
 30
0.0
 11
332.0627579795
 21
332.33
 31
0.0
  0
LINE
  5
7B
330
1F
100
AcDbEntity
  8
0
  6
Continuous
 62
     7
370
    25
100
AcDbLine
 10
332.0627579795
 20
332.33
 30
0.0
 11
335.0627579795
 21
332.33
 31
0.0
  0
LINE
  5
7C
330
1F
100
AcDbEntity
  8
0
  6
Continuous
 62
     7
370
    25
100
AcDbLine
 10
357.0627579795
 20
332.33
 30
0.0
 11
357.0627579795
 21
371.93
 31
0.0
  0
ARC
  5
7D
330
1F
100
AcDbEntity
  8
0
  6
Continuous
 62
     7
370
    25
100
AcDbCircle
 10
353.8627579795
 20
332.33
 30
0.0
 40
3.200000000000045
100
AcDbArc
 50
270.0
 51
0.0
  0
LINE
  5
7E
330
1F
100
AcDbEntity
  8
0
  6
Continuous
 62
     7
370
    25
100
AcDbLine
 10
353.8627579795
 20
371.93
 30
0.0
 11
353.8627579795
 21
332.33
 31
0.0
  0
ARC
  5
7F
330
1F
100
AcDbEntity
  8
0
  6
Continuous
 62
     7
370
    25
100
AcDbCircle
 10
357.0627579795
 20
371.93
 30
0.0
 40
3.199999999999989
100
AcDbArc
 50
90.0
 51
180.0
  0
LINE
  5
80
330
1F
100
AcDbEntity
  8
0
  6
Continuous
 62
     7
370
    25
100
AcDbLine
 10
376.0627579795
 20
375.13
 30
0.0
 11
357.0627579795
 21
375.13
 31
0.0
  0
LINE
  5
81
330
1F
100
AcDbEntity
  8
0
  6
Continuous
 62
     7
370
    25
100
AcDbLine
 10
357.0627579795
 20
371.93
 30
0.0
 11
376.0627579795
 21
371.93
 31
0.0
  0
LINE
  5
82
330
1F
100
AcDbEntity
  8
0
  6
Continuous
 62
     7
370
    25
100
AcDbLine
 10
353.8627579795
 20
332.33
 30
0.0
 11
335.0627579795
 21
332.33
 31
0.0
  0
LINE
  5
83
330
1F
100
AcDbEntity
  8
0
  6
Continuous
 62
     7
370
    25
100
AcDbLine
 10
335.0627579795
 20
329.13
 30
0.0
 11
353.8627579795
 21
329.13
 31
0.0
  0
LINE
  5
84
330
1F
100
AcDbEntity
  8
0
  6
Continuous
 62
     7
370
    25
100
AcDbLine
 10
379.0627579795
 20
375.13
 30
0.0
 11
379.0627579795
 21
371.93
 31
0.0
  0
LINE
  5
85
330
1F
100
AcDbEntity
  8
0
  6
Continuous
 62
     7
370
    25
100
AcDbLine
 10
376.0627579795
 20
375.13
 30
0.0
 11
379.0627579795
 21
375.13
 31
0.0
  0
LINE
  5
86
330
1F
100
AcDbEntity
  8
0
  6
Continuous
 62
     7
370
    25
100
AcDbLine
 10
379.0627579795
 20
371.93
 30
0.0
 11
376.0627579795
 21
371.93
 31
0.0
  0
LINE
  5
87
330
1F
100
AcDbEntity
  8
0
  6
HIDDEN
 62
     7
370
    18
100
AcDbLine
 10
372.5627579795
 20
375.13
 30
0.0
 11
372.5627579795
 21
371.93
 31
0.0
  0
LINE
  5
88
330
1F
100
AcDbEntity
  8
0
  6
HIDDEN
 62
     7
370
    18
100
AcDbLine
 10
365.5627579795
 20
375.13
 30
0.0
 11
365.5627579795
 21
371.93
 31
0.0
  0
LINE
  5
89
330
1F
100
AcDbEntity
  8
0
  6
HIDDEN
 62
     7
370
    18
100
AcDbLine
 10
343.5627579795
 20
332.33
 30
0.0
 11
343.5627579795
 21
329.13
 31
0.0
  0
LINE
  5
8A
330
1F
100
AcDbEntity
  8
0
  6
HIDDEN
 62
     7
370
    18
100
AcDbLine
 10
339.5627579795
 20
332.33
 30
0.0
 11
339.5627579795
 21
329.13
 31
0.0
  0
LINE
  5
8B
330
1F
100
AcDbEntity
  8
0
  6
Continuous
 62
     7
370
    25
100
AcDbLine
 10
495.68
 20
250.5060217128
 30
0.0
 11
498.88
 21
250.5060217128
 31
0.0
  0
LINE
  5
8C
330
1F
100
AcDbEntity
  8
0
  6
Continuous
 62
     7
370
    25
100
AcDbLine
 10
495.68
 20
247.5060217128
 30
0.0
 11
495.68
 21
250.5060217128
 31
0.0
  0
LINE
  5
8D
330
1F
100
AcDbEntity
  8
0
  6
Continuous
 62
     7
370
    25
100
AcDbLine
 10
498.88
 20
250.5060217128
 30
0.0
 11
498.88
 21
247.5060217128
 31
0.0
  0
LINE
  5
8E
330
1F
100
AcDbEntity
  8
0
  6
Continuous
 62
     7
370
    25
100
AcDbLine
 10
498.88
 20
204.0060217128
 30
0.0
 11
495.68
 21
204.0060217128
 31
0.0
  0
LINE
  5
8F
330
1F
100
AcDbEntity
  8
0
  6
Continuous
 62
     7
370
    25
100
AcDbLine
 10
495.68
 20
204.0060217128
 30
0.0
 11
495.68
 21
207.0060217128
 31
0.0
  0
LINE
  5
90
330
1F
100
AcDbEntity
  8
0
  6
Continuous
 62
     7
370
    25
100
AcDbLine
 10
498.88
 20
207.0060217128
 30
0.0
 11
498.88
 21
204.0060217128
 31
0.0
  0
LINE
  5
91
330
1F
100
AcDbEntity
  8
0
  6
Continuous
 62
     7
370
    25
100
AcDbLine
 10
495.68
 20
207.0060217128
 30
0.0
 11
495.68
 21
247.5060217128
 31
0.0
  0
LINE
  5
92
330
1F
100
AcDbEntity
  8
0
  6
Continuous
 62
     7
370
    25
100
AcDbLine
 10
498.88
 20
207.0060217128
 30
0.0
 11
498.88
 21
247.5060217128
 31
0.0
  0
LINE
  5
93
330
1F
100
AcDbEntity
  8
0
  6
Continuous
 62
     7
370
    25
100
AcDbLine
 10
452.88
 20
204.0060217128
 30
0.0
 11
452.88
 21
250.5060217128
 31
0.0
  0
LINE
  5
94
330
1F
100
AcDbEntity
  8
0
  6
Continuous
 62
     7
370
    25
100
AcDbLine
 10
452.88
 20
204.0060217128
 30
0.0
 11
456.08
 21
204.0060217128
 31
0.0
  0
LINE
  5
95
330
1F
100
AcDbEntity
  8
0
  6
Continuous
 62
     7
370
    25
100
AcDbLine
 10
452.88
 20
250.5060217128
 30
0.0
 11
456.08
 21
250.5060217128
 31
0.0
  0
LINE
  5
96
330
1F
100
AcDbEntity
  8
0
  6
Continuous
 62
     7
370
    25
100
AcDbLine
 10
456.08
 20
204.0060217128
 30
0.0
 11
495.68
 21
204.0060217128
 31
0.0
  0
LINE
  5
97
330
1F
100
AcDbEntity
  8
0
  6
Continuous
 62
     7
370
    25
100
AcDbLine
 10
456.08
 20
250.5060217128
 30
0.0
 11
495.68
 21
250.5060217128
 31
0.0
  0
LINE
  5
98
330
1F
100
AcDbEntity
  8
0
  6
HIDDEN
 62
     7
370
    18
100
AcDbLine
 10
456.08
 20
204.0060217128
 30
0.0
 11
456.08
 21
250.5060217128
 31
0.0
  0
LINE
  5
99
330
1F
100
AcDbEntity
  8
0
  6
HIDDEN
 62
     7
370
    18
100
AcDbLine
 10
498.88
 20
244.0060217128
 30
0.0
 11
495.68
 21
244.0060217128
 31
0.0
  0
LINE
  5
9A
330
1F
100
AcDbEntity
  8
0
  6
HIDDEN
 62
     7
370
    18
100
AcDbLine
 10
495.68
 20
210.5060217128
 30
0.0
 11
498.88
 21
210.5060217128
 31
0.0
  0
LINE
  5
9B
330
1F
100
AcDbEntity
  8
0
  6
HIDDEN
 62
     7
370
    18
100
AcDbLine
 10
456.08
 20
221.0060217128
 30
0.0
 11
452.88
 21
221.0060217128
 31
0.0
  0
LINE
  5
9C
330
1F
100
AcDbEntity
  8
0
  6
HIDDEN
 62
     7
370
    18
100
AcDbLine
 10
452.88
 20
233.5060217128
 30
0.0
 11
456.08
 21
233.5060217128
 31
0.0
  0
LINE
  5
9D
330
1F
100
AcDbEntity
  8
0
  6
HIDDEN
 62
     7
370
    18
100
AcDbLine
 10
456.08
 20
237.5060217128
 30
0.0
 11
452.88
 21
237.5060217128
 31
0.0
  0
LINE
  5
9E
330
1F
100
AcDbEntity
  8
0
  6
HIDDEN
 62
     7
370
    18
100
AcDbLine
 10
452.88
 20
217.0060217128
 30
0.0
 11
456.08
 21
217.0060217128
 31
0.0
  0
LINE
  5
9F
330
1F
100
AcDbEntity
  8
0
  6
Continuous
 62
     7
370
    25
100
AcDbLine
 10
507.6946013334
 20
368.3995590893
 30
0.0
 11
507.6946013334
 21
371.0124896874
 31
0.0
  0
LINE
  5
A0
330
1F
100
AcDbEntity
  8
0
  6
Continuous
 62
     7
370
    25
100
AcDbLine
 10
444.0653986666
 20
335.8604409107
 30
0.0
 11
444.0653986666
 21
333.2475103126
 31
0.0
  0
LINE
  5
A1
330
1F
100
AcDbEntity
  8
0
  6
Continuous
 62
     7
370
    25
100
AcDbLine
 10
491.2595724908
 20
358.1944576915
 30
0.0
 11
491.2595724908
 21
325.8594415409
 31
0.0
  0
ARC
  5
A2
330
1F
100
AcDbEntity
  8
0
  6
Continuous
 62
     7
370
    25
100
AcDbCircle
 10
496.1532551164
 20
357.9818777571
 30
0.0
 40
4.89829765008267
100
AcDbArc
 50
122.4873455707
 51
177.5126542837
  0
LINE
  5
A3
330
1F
100
AcDbEntity
  8
0
  6
Continuous
 62
     7
370
    25
100
AcDbLine
 10
506.8159216769
 20
369.7878775196
 30
0.0
 11
493.5223141906
 21
362.1136412685
 31
0.0
  0
LINE
  5
A4
330
1F
100
AcDbEntity
  8
0
  6
Continuous
 62
     7
370
    25
100
AcDbLine
 10
493.5223141906
 20
359.5007106704
 30
0.0
 11
506.8159216769
 21
367.1749469216
 31
0.0
  0
LINE
  5
A5
330
1F
100
AcDbEntity
  8
0
  6
Continuous
 62
     7
370
    25
100
AcDbLine
 10
493.5223141906
 20
327.1656945198
 30
0.0
 11
493.5223141906
 21
359.5007106704
 31
0.0
  0
ARC
  5
A6
330
1F
100
AcDbEntity
  8
0
  6
Continuous
 62
     7
370
    25
100
AcDbCircle
 10
488.628631565
 20
327.3782744542
 30
0.0
 40
4.898297650083154
100
AcDbArc
 50
302.4873455707
 51
357.5126542837
  0
LINE
  5
A7
330
1F
100
AcDbEntity
  8
0
  6
Continuous
 62
     7
370
    25
100
AcDbLine
 10
477.8245436483
 20
315.4906338805
 30
0.0
 11
491.2595724908
 21
323.2465109428
 31
0.0
  0
LINE
  5
A8
330
1F
100
AcDbEntity
  8
0
  6
Continuous
 62
     7
370
    25
100
AcDbLine
 10
491.2595724908
 20
325.8594415409
 30
0.0
 11
477.8245436483
 21
318.1035644785
 31
0.0
  0
ARC
  5
A9
330
1F
100
AcDbEntity
  8
0
  6
Continuous
 62
     7
370
    25
100
AcDbCircle
 10
463.2727897913
 20
376.963366357
 30
0.0
 40
4.89829765008264
100
AcDbArc
 50
122.4873455707
 51
177.5126542837
  0
LINE
  5
AA
330
1F
100
AcDbEntity
  8
0
  6
Continuous
 62
     7
370
    25
100
AcDbLine
 10
458.3791071656
 20
377.1759462914
 30
0.0
 11
458.3791071656
 21
344.8409301407
 31
0.0
  0
LINE
  5
AB
330
1F
100
AcDbEntity
  8
0
  6
Continuous
 62
     7
370
    25
100
AcDbLine
 10
458.3791071656
 20
344.8409301407
 30
0.0
 11
491.2595724908
 21
325.8594415409
 31
0.0
  0
ARC
  5
AC
330
1F
100
AcDbEntity
  8
0
  6
Continuous
 62
     7
370
    25
100
AcDbCircle
 10
506.3392465627
 20
371.0124896874
 30
0.0
 40
1.314113437212702
100
AcDbArc
 50
291.2682653033
 51
68.7317346967
  0
LINE
  5
AD
330
1F
100
AcDbEntity
  8
0
  6
Continuous
 62
     7
370
    25
100
AcDbLine
 10
473.9354563517
 20
388.7693661195
 30
0.0
 11
460.6418488654
 21
381.0951298684
 31
0.0
  0
ARC
  5
AE
330
1F
100
AcDbEntity
  8
0
  6
Continuous
 62
     7
370
    25
100
AcDbCircle
 10
476.0567766953
 20
384.6958361679
 30
0.0
 40
4.592781974622689
100
AcDbArc
 50
62.4914255688
 51
117.5085744312
  0
LINE
  5
AF
330
1F
100
AcDbEntity
  8
0
  6
Continuous
 62
     7
370
    25
100
AcDbLine
 10
478.1780970389
 20
388.7693661195
 30
0.0
 11
506.8159216769
 21
372.2371018551
 31
0.0
  0
LWPOLYLINE
  5
B0
330
1F
100
AcDbEntity
  8
0
  6
Continuous
 62
     7
370
    25
100
AcDbPolyline
 90
       19
 70
   128
 43
0.0
 10
481.3600775542
 20
380.8093870292
 10
481.0930168645
 20
380.9387517364
 10
480.7911005153
 20
381.039379615
 10
480.463502082
 20
381.108213138
 10
480.1201754773
 20
381.1431608335
 10
479.7715525063
 20
381.1431608335
 10
479.4282259016
 20
381.108213138
 10
479.1006274683
 20
381.039379615
 10
478.7987111191
 20
380.9387517364
 10
478.5316504294
 20
380.8093870292
 10
478.3075599032
 20
380.6552161747
 10
478.1332484177
 20
380.4809235762
 10
478.0140123392
 20
380.2918050262
 10
477.9534745956
 20
380.0936067961
 10
477.9534745956
 20
379.8923510387
 10
478.0140123392
 20
379.6941528086
 10
478.1332484177
 20
379.5050342586
 10
478.3075599032
 20
379.3307416601
 10
478.5316504294
 20
379.1765708056
  0
LWPOLYLINE
  5
B1
330
1F
100
AcDbEntity
  8
0
  6
Continuous
 62
     7
370
    25
100
AcDbPolyline
 90
       19
 70
   128
 43
0.0
 10
478.5316504294
 20
379.1765708056
 10
478.7987111191
 20
379.0472060984
 10
479.1006274683
 20
378.9465782198
 10
479.4282259016
 20
378.8777446968
 10
479.7715525063
 20
378.8427970013
 10
480.1201754773
 20
378.8427970013
 10
480.463502082
 20
378.8777446968
 10
480.7911005153
 20
378.9465782198
 10
481.0930168645
 20
379.0472060984
 10
481.3600775542
 20
379.1765708056
 10
481.5841680804
 20
379.3307416601
 10
481.7584795659
 20
379.5050342586
 10
481.8777156444
 20
379.6941528086
 10
481.938253388
 20
379.8923510387
 10
481.938253388
 20
380.0936067961
 10
481.8777156444
 20
380.2918050262
 10
481.7584795659
 20
380.4809235762
 10
481.5841680804
 20
380.6552161747
 10
481.3600775542
 20
380.8093870292
  0
LWPOLYLINE
  5
B2
330
1F
100
AcDbEntity
  8
0
  6
Continuous
 62
     7
370
    25
100
AcDbPolyline
 90
       19
 70
   128
 43
0.0
 10
493.0273394438
 20
374.0740201067
 10
492.7602787541
 20
374.2033848139
 10
492.4583624049
 20
374.3040126925
 10
492.1307639716
 20
374.3728462155
 10
491.7874373669
 20
374.407793911
 10
491.4388143959
 20
374.407793911
 10
491.0954877912
 20
374.3728462155
 10
490.7678893579
 20
374.3040126925
 10
490.4659730087
 20
374.2033848139
 10
490.198912319
 20
374.0740201067
 10
489.9748217928
 20
373.9198492522
 10
489.8005103073
 20
373.7455566537
 10
489.6812742288
 20
373.5564381036
 10
489.6207364852
 20
373.3582398735
 10
489.6207364852
 20
373.1569841162
 10
489.6812742288
 20
372.9587858861
 10
489.8005103073
 20
372.7696673361
 10
489.9748217928
 20
372.5953747376
 10
490.198912319
 20
372.441203883
  0
LWPOLYLINE
  5
B3
330
1F
100
AcDbEntity
  8
0
  6
Continuous
 62
     7
370
    25
100
AcDbPolyline
 90
       19
 70
   128
 43
0.0
 10
490.198912319
 20
372.441203883
 10
490.4659730087
 20
372.3118391759
 10
490.7678893579
 20
372.2112112972
 10
491.0954877912
 20
372.1423777743
 10
491.4388143959
 20
372.1074300788
 10
491.7874373669
 20
372.1074300788
 10
492.1307639716
 20
372.1423777743
 10
492.4583624049
 20
372.2112112972
 10
492.7602787541
 20
372.3118391759
 10
493.0273394438
 20
372.441203883
 10
493.25142997
 20
372.5953747376
 10
493.4257414555
 20
372.7696673361
 10
493.544977534
 20
372.9587858861
 10
493.6055152776
 20
373.1569841162
 10
493.6055152776
 20
373.3582398735
 10
493.544977534
 20
373.5564381036
 10
493.4257414555
 20
373.7455566537
 10
493.25142997
 20
373.9198492522
 10
493.0273394438
 20
374.0740201067
  0
ARC
  5
B4
330
1F
100
AcDbEntity
  8
0
  6
Continuous
 62
     7
370
    25
100
AcDbCircle
 10
475.7032233047
 20
319.5641638321
 30
0.0
 40
4.59278197462279
100
AcDbArc
 50
242.4914255688
 51
297.5085744312
  0
ARC
  5
B5
330
1F
100
AcDbEntity
  8
0
  6
Continuous
 62
     7
370
    25
100
AcDbCircle
 10
475.7032233047
 20
322.1770944301
 30
0.0
 40
4.592781974623092
100
AcDbArc
 50
242.4914255688
 51
297.5085744312
  0
LINE
  5
B6
330
1F
100
AcDbEntity
  8
0
  6
Continuous
 62
     7
370
    25
100
AcDbLine
 10
444.9440783231
 20
334.635828743
 30
0.0
 11
473.5819029611
 21
318.1035644785
 31
0.0
  0
ARC
  5
B7
330
1F
100
AcDbEntity
  8
0
  6
Continuous
 62
     7
370
    25
100
AcDbCircle
 10
445.4207534373
 20
335.8604409107
 30
0.0
 40
1.314113437212776
100
AcDbArc
 50
111.2682653033
 51
248.7317346967
  0
LINE
  5
B8
330
1F
100
AcDbEntity
  8
0
  6
Continuous
 62
     7
370
    25
100
AcDbLine
 10
458.3791071656
 20
344.8409301407
 30
0.0
 11
444.9440783231
 21
337.0850530784
 31
0.0
  0
LINE
  5
B9
330
1F
100
AcDbEntity
  8
0
  6
Continuous
 62
     7
370
    25
100
AcDbLine
 10
454.4900198691
 20
334.431726715
 30
0.0
 11
473.2283495706
 21
323.6143192333
 31
0.0
  0
LWPOLYLINE
  5
BA
330
1F
100
AcDbEntity
  8
0
  6
Continuous
 62
     7
370
    25
100
AcDbPolyline
 90
       26
 70
   128
 43
0.0
 10
473.2283495706
 20
323.6143192333
 10
473.5580486169
 20
323.4465197015
 10
473.9215783496
 20
323.3038981449
 10
474.3132056875
 20
323.1887037906
 10
474.7267544336
 20
323.1027533225
 10
475.1557026771
 20
323.0474022306
 10
475.5932856479
 20
323.023523435
 10
476.0326024013
 20
323.0314935183
 10
476.4667246496
 20
323.0711867876
 10
476.8888060256
 20
323.1419772564
 10
477.2921900538
 20
323.2427485167
 10
477.6705151272
 20
323.3719113455
 10
478.0178148333
 20
323.5274287678
 10
478.3286120484
 20
323.7068481811
 10
478.5980053147
 20
323.9073400338
 10
478.8217461394
 20
324.1257424499
 10
478.996305996
 20
324.3586110926
 10
479.1189319715
 20
324.6022734845
 10
479.1876901808
 20
324.8528869239
 10
479.201496266
 20
325.1064990874
 10
479.1601324968
 20
325.3591103595
 10
479.0642512046
 20
325.6067369096
 10
478.9153644946
 20
325.845473519
 10
478.7158203992
 20
326.0715551689
 10
478.468765848
 20
326.2814164166
 10
478.1780970389
 20
326.4717476247
  0
LINE
  5
BB
330
1F
100
AcDbEntity
  8
0
  6
Continuous
 62
     7
370
    25
100
AcDbLine
 10
478.1780970389
 20
326.4717476247
 30
0.0
 11
459.4397673374
 21
337.2891551064
 31
0.0
  0
LWPOLYLINE
  5
BC
330
1F
100
AcDbEntity
  8
0
  6
Continuous
 62
     7
370
    25
100
AcDbPolyline
 90
       26
 70
   128
 43
0.0
 10
459.4397673374
 20
337.2891551064
 10
459.110068291
 20
337.4569546382
 10
458.7465385584
 20
337.5995761948
 10
458.3549112205
 20
337.7147705491
 10
457.9413624744
 20
337.8007210173
 10
457.5124142309
 20
337.8560721091
 10
457.07483126
 20
337.8799509048
 10
456.6355145066
 20
337.8719808214
 10
456.2013922584
 20
337.8322875521
 10
455.7793108824
 20
337.7614970833
 10
455.3759268542
 20
337.660725823
 10
454.9976017808
 20
337.5315629942
 10
454.6503020746
 20
337.3760455719
 10
454.3395048596
 20
337.1966261587
 10
454.0701115933
 20
336.9961343059
 10
453.8463707686
 20
336.7777318898
 10
453.6718109119
 20
336.5448632471
 10
453.5491849365
 20
336.3012008552
 10
453.4804267271
 20
336.0505874158
 10
453.466620642
 20
335.7969752523
 10
453.5079844112
 20
335.5443639802
 10
453.6038657034
 20
335.2967374301
 10
453.7527524134
 20
335.0580008207
 10
453.9522965087
 20
334.8319191708
 10
454.1993510599
 20
334.6220579231
 10
454.4900198691
 20
334.431726715
  0
ARC
  5
BD
330
1F
100
AcDbEntity
  8
0
  6
Continuous
 62
     7
370
    25
100
AcDbCircle
 10
506.2062407642
 20
368.5399428843
 30
0.0
 40
1.494966485779994
100
AcDbArc
 50
294.0681184713
 51
354.6117405711
  0
LINE
  5
BE
330
1F
100
AcDbEntity
  8
0
  6
Continuous
 62
     7
370
    25
100
AcDbLine
 10
444.9440783231
 20
332.0228981449
 30
0.0
 11
473.5819029611
 21
315.4906338805
 31
0.0
  0
LINE
  5
BF
330
1F
100
AcDbEntity
  8
0
  6
Continuous
 62
     7
370
    25
100
AcDbLine
 10
478.37311758
 20
323.73656813
 30
0.0
 11
478.1780970389
 21
323.8588170267
 31
0.0
  0
LINE
  5
C0
330
1F
100
AcDbEntity
  8
0
  6
Continuous
 62
     7
370
    25
100
AcDbLine
 10
478.1780970389
 20
323.8588170267
 30
0.0
 11
459.4397673374
 21
334.6762245083
 31
0.0
  0
ARC
  5
C1
330
1F
100
AcDbEntity
  8
0
  6
Continuous
 62
     7
370
    25
100
AcDbCircle
 10
456.9760125865
 20
330.043506164
 30
0.0
 40
5.247110321921522
100
AcDbArc
 50
61.9952303036
 51
120.7271579527
  0
ARC
  5
C2
330
1F
100
AcDbEntity
  8
0
  6
Continuous
 62
     7
370
    25
100
AcDbCircle
 10
445.5537592358
 20
333.3878941077
 30
0.0
 40
1.494966485780116
100
AcDbArc
 50
185.3882594289
 51
245.9318815287
  0
LINE
  5
C3
330
1F
100
AcDbEntity
  8
0
  6
HIDDEN
 62
     7
370
    18
100
AcDbLine
 10
460.6418488654
 20
378.4821992703
 30
0.0
 11
493.5223141906
 21
359.5007106704
 31
0.0
  0
ARC
  5
C4
330
1F
100
AcDbEntity
  8
0
  6
HIDDEN
 62
     7
370
    18
100
AcDbCircle
 10
506.2062407642
 20
368.2591752943
 30
0.0
 40
1.494966485780046
100
AcDbArc
 50
5.3882594289
 51
65.9318815287
  0
LWPOLYLINE
  5
C5
330
1F
100
AcDbEntity
  8
0
  6
HIDDEN
 62
     7
370
    18
100
AcDbPolyline
 90
       19
 70
   128
 43
0.0
 10
493.0273394438
 20
371.4610895087
 10
493.25142997
 20
371.3069186541
 10
493.4257414555
 20
371.1326260556
 10
493.544977534
 20
370.9435075056
 10
493.6055152776
 20
370.7453092755
 10
493.6055152776
 20
370.5440535182
 10
493.544977534
 20
370.345855288
 10
493.4257414555
 20
370.156736738
 10
493.25142997
 20
369.9824441395
 10
493.0273394438
 20
369.828273285
 10
492.7602787541
 20
369.6989085778
 10
492.4583624049
 20
369.5982806992
 10
492.1307639716
 20
369.5294471762
 10
491.7874373669
 20
369.4944994807
 10
491.4388143959
 20
369.4944994807
 10
491.0954877912
 20
369.5294471762
 10
490.7678893579
 20
369.5982806992
 10
490.4659730087
 20
369.6989085778
 10
490.198912319
 20
369.828273285
  0
LINE
  5
C6
330
1F
100
AcDbEntity
  8
0
  6
HIDDEN
 62
     7
370
    18
100
AcDbLine
 10
444.9440783231
 20
334.4721224804
 30
0.0
 11
458.3791071656
 21
342.2279995427
 31
0.0
  0
LINE
  5
C7
330
1F
100
AcDbEntity
  8
0
  6
HIDDEN
 62
     7
370
    18
100
AcDbLine
 10
460.6418488654
 20
346.1471831197
 30
0.0
 11
460.6418488654
 21
378.4821992703
 31
0.0
  0
LINE
  5
C8
330
1F
100
AcDbEntity
  8
0
  6
HIDDEN
 62
     7
370
    18
100
AcDbLine
 10
460.6418488654
 20
378.4821992703
 30
0.0
 11
473.9354563517
 21
386.1564355215
 31
0.0
  0
LINE
  5
C9
330
1F
100
AcDbEntity
  8
0
  6
HIDDEN
 62
     7
370
    18
100
AcDbLine
 10
478.1780970389
 20
386.1564355215
 30
0.0
 11
506.8159216769
 21
369.624171257
 31
0.0
  0
LWPOLYLINE
  5
CA
330
1F
100
AcDbEntity
  8
0
  6
HIDDEN
 62
     7
370
    18
100
AcDbPolyline
 90
       19
 70
   128
 43
0.0
 10
490.198912319
 20
369.828273285
 10
489.9748217928
 20
369.9824441395
 10
489.8005103073
 20
370.156736738
 10
489.6812742288
 20
370.345855288
 10
489.6207364852
 20
370.5440535182
 10
489.6207364852
 20
370.7453092755
 10
489.6812742288
 20
370.9435075056
 10
489.8005103073
 20
371.1326260556
 10
489.9748217928
 20
371.3069186541
 10
490.198912319
 20
371.4610895087
 10
490.4659730087
 20
371.5904542158
 10
490.7678893579
 20
371.6910820945
 10
491.0954877912
 20
371.7599156174
 10
491.4388143959
 20
371.7948633129
 10
491.7874373669
 20
371.7948633129
 10
492.1307639716
 20
371.7599156174
 10
492.4583624049
 20
371.6910820945
 10
492.7602787541
 20
371.5904542158
 10
493.0273394438
 20
371.4610895087
  0
LWPOLYLINE
  5
CB
330
1F
100
AcDbEntity
  8
0
  6
HIDDEN
 62
     7
370
    18
100
AcDbPolyline
 90
       26
 70
   128
 43
0.0
 10
473.2283495706
 20
321.0013886353
 10
473.5580486169
 20
320.8335891035
 10
473.9215783496
 20
320.6909675469
 10
474.3132056875
 20
320.5757731926
 10
474.7267544336
 20
320.4898227244
 10
475.1557026771
 20
320.4344716326
 10
475.5932856479
 20
320.4105928369
 10
476.0326024013
 20
320.4185629203
 10
476.4667246496
 20
320.4582561896
 10
476.8888060256
 20
320.5290466584
 10
477.2921900538
 20
320.6298179187
 10
477.6705151272
 20
320.7589807475
 10
478.0178148333
 20
320.9144981698
 10
478.3286120484
 20
321.093917583
 10
478.5980053147
 20
321.2944094358
 10
478.8217461394
 20
321.5128118518
 10
478.996305996
 20
321.7456804946
 10
479.1189319715
 20
321.9893428864
 10
479.1876901808
 20
322.2399563259
 10
479.201496266
 20
322.4935684893
 10
479.1601324968
 20
322.7461797614
 10
479.0642512046
 20
322.9938063115
 10
478.9153644946
 20
323.232542921
 10
478.7158203992
 20
323.4586245709
 10
478.468765848
 20
323.6684858185
 10
478.37311758
 20
323.73656813
  0
LINE
  5
CC
330
1F
100
AcDbEntity
  8
0
  6
HIDDEN
 62
     7
370
    18
100
AcDbLine
 10
454.4900198691
 20
331.818796117
 30
0.0
 11
473.2283495706
 21
321.0013886353
 31
0.0
  0
ARC
  5
CD
330
1F
100
AcDbEntity
  8
0
  6
HIDDEN
 62
     7
370
    18
100
AcDbCircle
 10
455.7481662398
 20
346.359763054
 30
0.0
 40
4.898297650083184
100
AcDbArc
 50
302.4873455707
 51
357.5126542837
  0
LWPOLYLINE
  5
CE
330
1F
100
AcDbEntity
  8
0
  6
HIDDEN
 62
     7
370
    18
100
AcDbPolyline
 90
       19
 70
   128
 43
0.0
 10
481.3600775542
 20
378.1964564312
 10
481.5841680804
 20
378.0422855767
 10
481.7584795659
 20
377.8679929782
 10
481.8777156444
 20
377.6788744281
 10
481.938253388
 20
377.480676198
 10
481.938253388
 20
377.2794204407
 10
481.8777156444
 20
377.0812222106
 10
481.7584795659
 20
376.8921036606
 10
481.5841680804
 20
376.7178110621
 10
481.3600775542
 20
376.5636402075
 10
481.0930168645
 20
376.4342755004
 10
480.7911005153
 20
376.3336476217
 10
480.463502082
 20
376.2648140988
 10
480.1201754773
 20
376.2298664033
 10
479.7715525063
 20
376.2298664033
 10
479.4282259016
 20
376.2648140988
 10
479.1006274683
 20
376.3336476217
 10
478.7987111191
 20
376.4342755004
 10
478.5316504294
 20
376.5636402075
  0
LWPOLYLINE
  5
CF
330
1F
100
AcDbEntity
  8
0
  6
HIDDEN
 62
     7
370
    18
100
AcDbPolyline
 90
       19
 70
   128
 43
0.0
 10
478.5316504294
 20
376.5636402075
 10
478.3075599032
 20
376.7178110621
 10
478.1332484177
 20
376.8921036606
 10
478.0140123392
 20
377.0812222106
 10
477.9534745956
 20
377.2794204407
 10
477.9534745956
 20
377.480676198
 10
478.0140123392
 20
377.6788744281
 10
478.1332484177
 20
377.8679929782
 10
478.3075599032
 20
378.0422855767
 10
478.5316504294
 20
378.1964564312
 10
478.7987111191
 20
378.3258211384
 10
479.1006274683
 20
378.426449017
 10
479.4282259016
 20
378.49528254
 10
479.7715525063
 20
378.5302302355
 10
480.1201754773
 20
378.5302302355
 10
480.463502082
 20
378.49528254
 10
480.7911005153
 20
378.426449017
 10
481.0930168645
 20
378.3258211384
 10
481.3600775542
 20
378.1964564312
  0
ARC
  5
D0
330
1F
100
AcDbEntity
  8
0
  6
HIDDEN
 62
     7
370
    18
100
AcDbCircle
 10
454.9990349422
 20
333.2296316188
 30
0.0
 40
1.499851045191018
100
AcDbArc
 50
117.9955956907
 51
250.1610728277
  0
ARC
  5
D1
330
1F
100
AcDbEntity
  8
0
  6
HIDDEN
 62
     7
370
    18
100
AcDbCircle
 10
445.5537592358
 20
333.1071265176
 30
0.0
 40
1.494966485779717
100
AcDbArc
 50
114.0681184713
 51
174.6117405711
  0
ARC
  5
D2
330
1F
100
AcDbEntity
  8
0
  6
HIDDEN
 62
     7
370
    18
100
AcDbCircle
 10
476.0567766953
 20
382.0829055699
 30
0.0
 40
4.592781974623167
100
AcDbArc
 50
62.4914255688
 51
117.5085744312
  0
LINE
  5
D3
330
1F
100
AcDbEntity
  8
0
  6
HIDDEN
 62
     7
370
    18
100
AcDbLine
 10
493.6131258814
 20
370.6446813968
 30
0.0
 11
493.6131258814
 21
373.2576119949
 31
0.0
  0
LINE
  5
D4
330
1F
100
AcDbEntity
  8
0
  6
HIDDEN
 62
     7
370
    18
100
AcDbLine
 10
489.6131258814
 20
373.2576119949
 30
0.0
 11
489.6131258814
 21
370.6446813968
 31
0.0
  0
LINE
  5
D5
330
1F
100
AcDbEntity
  8
0
  6
HIDDEN
 62
     7
370
    18
100
AcDbLine
 10
479.2032233047
 20
322.430102831
 30
0.0
 11
479.2032233047
 21
325.043033429
 31
0.0
  0
LINE
  5
D6
330
1F
100
AcDbEntity
  8
0
  6
HIDDEN
 62
     7
370
    18
100
AcDbLine
 10
481.9458639918
 20
377.3800483194
 30
0.0
 11
481.9458639918
 21
379.9929789174
 31
0.0
  0
LINE
  5
D7
330
1F
100
AcDbEntity
  8
0
  6
HIDDEN
 62
     7
370
    18
100
AcDbLine
 10
477.9458639918
 20
379.9929789174
 30
0.0
 11
477.9458639918
 21
377.3800483194
 31
0.0
  0
LINE
  5
D8
330
1F
100
AcDbEntity
  8
0
  6
HIDDEN
 62
     7
370
    18
100
AcDbLine
 10
453.4648936033
 20
335.8604409107
 30
0.0
 11
453.4648936033
 21
333.2475103126
 31
0.0
  0
ENDSEC
  0
SECTION
  2
OBJECTS
  0
DICTIONARY
  5
C
330
0
100
AcDbDictionary
281
     1
  3
ACAD_GROUP
350
D
  3
ACAD_LAYOUT
350
1A
  3
ACAD_MLINESTYLE
350
17
  3
ACAD_PLOTSETTINGS
350
19
  3
ACAD_PLOTSTYLENAME
350
E
  3
ACAD_SCALELIST
350
47
  3
DWGPROPS
350
D9
  0
DICTIONARY
  5
D
102
{ACAD_REACTORS
330
C
102
}
330
C
100
AcDbDictionary
281
     1
  0
DICTIONARY
  5
1A
102
{ACAD_REACTORS
330
C
102
}
330
C
100
AcDbDictionary
281
     1
  3
Layout1
350
1E
  3
Layout2
350
26
  3
Model
350
22
  0
DICTIONARY
  5
17
102
{ACAD_REACTORS
330
C
102
}
330
C
100
AcDbDictionary
281
     1
  3
Standard
350
18
  0
DICTIONARY
  5
19
102
{ACAD_REACTORS
330
C
102
}
330
C
100
AcDbDictionary
281
     1
  0
ACDBDICTIONARYWDFLT
  5
E
102
{ACAD_REACTORS
330
C
102
}
330
C
100
AcDbDictionary
281
     1
  3
Normal
350
F
100
AcDbDictionaryWithDefault
340
F
  0
DICTIONARY
  5
47
102
{ACAD_REACTORS
330
C
102
}
330
C
100
AcDbDictionary
281
     1
  3
A0
350
48
  3
A1
350
49
  3
A2
350
4A
  3
A3
350
4B
  3
A4
350
4C
  3
A5
350
4D
  3
A6
350
4E
  3
A7
350
4F
  3
A8
350
50
  3
A9
350
51
  3
B0
350
52
  3
B1
350
53
  3
B2
350
54
  3
B3
350
55
  3
B4
350
56
  3
B5
350
57
  3
B6
350
58
  0
XRECORD
  5
D9
102
{ACAD_REACTORS
330
C
102
}
330
C
100
AcDbXrecord
280
     1
  1
DWGPROPS COOKIE
  2

  3

  4

  6

  7

  8
imaizumi
  9

300
=
301
=
302
=
303
=
304
=
305
=
306
=
307
=
308
=
309
=
 40
0.0
 41
2461263.067747928
 42
2461263.067748276
  1

 90
        0
  0
LAYOUT
  5
1E
102
{ACAD_REACTORS
330
1A
102
}
330
1A
100
AcDbPlotSettings
  1

  2
none_device
  4

  6

 40
0.0
 41
0.0
 42
0.0
 43
0.0
 44
0.0
 45
0.0
 46
0.0
 47
0.0
 48
0.0
 49
0.0
140
0.0
141
0.0
142
1.0
143
1.0
 70
   688
 72
     1
 73
     0
 74
     5
  7

 75
    16
147
1.0
148
0.0
149
0.0
100
AcDbLayout
  1
Layout1
 70
     1
 71
     1
 10
0.0
 20
0.0
 11
420.0
 21
297.0
 12
0.0
 22
0.0
 32
0.0
 14
1.0000000000E+20
 24
1.0000000000E+20
 34
1.0000000000E+20
 15
-1.0000000000E+20
 25
-1.0000000000E+20
 35
-1.0000000000E+20
146
0.0
 13
0.0
 23
0.0
 33
0.0
 16
1.0
 26
0.0
 36
0.0
 17
0.0
 27
1.0
 37
0.0
 76
     0
330
1B
  0
LAYOUT
  5
26
102
{ACAD_REACTORS
330
1A
102
}
330
1A
100
AcDbPlotSettings
  1

  2
none_device
  4

  6

 40
0.0
 41
0.0
 42
0.0
 43
0.0
 44
0.0
 45
0.0
 46
0.0
 47
0.0
 48
0.0
 49
0.0
140
0.0
141
0.0
142
1.0
143
1.0
 70
   688
 72
     1
 73
     0
 74
     5
  7

 75
    16
147
1.0
148
0.0
149
0.0
100
AcDbLayout
  1
Layout2
 70
     1
 71
     2
 10
0.0
 20
0.0
 11
0.0
 21
0.0
 12
0.0
 22
0.0
 32
0.0
 14
0.0
 24
0.0
 34
0.0
 15
0.0
 25
0.0
 35
0.0
146
0.0
 13
0.0
 23
0.0
 33
0.0
 16
1.0
 26
0.0
 36
0.0
 17
0.0
 27
1.0
 37
0.0
 76
     0
330
23
  0
LAYOUT
  5
22
102
{ACAD_REACTORS
330
1A
102
}
330
1A
100
AcDbPlotSettings
  1

  2
none_device
  4
Letter_(8.50_x_11.00_Inches)
  6

 40
6.35
 41
6.35
 42
6.35000508
 43
6.35000508
 44
215.9
 45
279.4
 46
0.0
 47
0.0
 48
0.0
 49
0.0
140
0.0
141
0.0
142
1.0
143
1.0
 70
  1712
 72
     1
 73
     0
 74
     0
  7

 75
     0
147
1.0
148
0.0
149
0.0
100
AcDbLayout
  1
Model
 70
     1
 71
     0
 10
0.0
 20
0.0
 11
841.0
 21
594.0
 12
0.0
 22
0.0
 32
0.0
 14
0.0
 24
0.0
 34
0.0
 15
841.0
 25
594.0
 35
0.0
146
0.0
 13
0.0
 23
0.0
 33
0.0
 16
1.0
 26
0.0
 36
0.0
 17
0.0
 27
1.0
 37
0.0
 76
     0
330
1F
331
29
  0
MLINESTYLE
  5
18
102
{ACAD_REACTORS
330
17
102
}
330
17
100
AcDbMlineStyle
  2
Standard
 70
     0
  3

 62
   256
 51
90.0
 52
90.0
 71
     2
 49
0.5
 62
   256
  6
BYLAYER
 49
-0.5
 62
   256
  6
BYLAYER
  0
ACDBPLACEHOLDER
  5
F
102
{ACAD_REACTORS
330
E
102
}
330
E
  0
SCALE
  5
48
102
{ACAD_REACTORS
330
47
102
}
330
47
100
AcDbScale
 70
     0
300
1:1
140
1.0
141
1.0
290
     1
  0
SCALE
  5
49
102
{ACAD_REACTORS
330
47
102
}
330
47
100
AcDbScale
 70
     0
300
1:2
140
1.0
141
2.0
290
     0
  0
SCALE
  5
4A
102
{ACAD_REACTORS
330
47
102
}
330
47
100
AcDbScale
 70
     0
300
1:4
140
1.0
141
4.0
290
     0
  0
SCALE
  5
4B
102
{ACAD_REACTORS
330
47
102
}
330
47
100
AcDbScale
 70
     0
300
1:5
140
1.0
141
5.0
290
     0
  0
SCALE
  5
4C
102
{ACAD_REACTORS
330
47
102
}
330
47
100
AcDbScale
 70
     0
300
1:8
140
1.0
141
8.0
290
     0
  0
SCALE
  5
4D
102
{ACAD_REACTORS
330
47
102
}
330
47
100
AcDbScale
 70
     0
300
1:10
140
1.0
141
10.0
290
     0
  0
SCALE
  5
4E
102
{ACAD_REACTORS
330
47
102
}
330
47
100
AcDbScale
 70
     0
300
1:16
140
1.0
141
16.0
290
     0
  0
SCALE
  5
4F
102
{ACAD_REACTORS
330
47
102
}
330
47
100
AcDbScale
 70
     0
300
1:20
140
1.0
141
20.0
290
     0
  0
SCALE
  5
50
102
{ACAD_REACTORS
330
47
102
}
330
47
100
AcDbScale
 70
     0
300
1:30
140
1.0
141
30.0
290
     0
  0
SCALE
  5
51
102
{ACAD_REACTORS
330
47
102
}
330
47
100
AcDbScale
 70
     0
300
1:40
140
1.0
141
40.0
290
     0
  0
SCALE
  5
52
102
{ACAD_REACTORS
330
47
102
}
330
47
100
AcDbScale
 70
     0
300
1:50
140
1.0
141
50.0
290
     0
  0
SCALE
  5
53
102
{ACAD_REACTORS
330
47
102
}
330
47
100
AcDbScale
 70
     0
300
1:100
140
1.0
141
100.0
290
     0
  0
SCALE
  5
54
102
{ACAD_REACTORS
330
47
102
}
330
47
100
AcDbScale
 70
     0
300
2:1
140
2.0
141
1.0
290
     0
  0
SCALE
  5
55
102
{ACAD_REACTORS
330
47
102
}
330
47
100
AcDbScale
 70
     0
300
4:1
140
4.0
141
1.0
290
     0
  0
SCALE
  5
56
102
{ACAD_REACTORS
330
47
102
}
330
47
100
AcDbScale
 70
     0
300
8:1
140
8.0
141
1.0
290
     0
  0
SCALE
  5
57
102
{ACAD_REACTORS
330
47
102
}
330
47
100
AcDbScale
 70
     0
300
10:1
140
10.0
141
1.0
290
     0
  0
SCALE
  5
58
102
{ACAD_REACTORS
330
47
102
}
330
47
100
AcDbScale
 70
     0
300
100:1
140
100.0
141
1.0
290
     0
  0
ENDSEC
  0
EOF
