  0
SECTION
  2
HEADER
  9
$ACADVER
  1
AC1015
  9
$ACADMAINTVER
 70
     6
  9
$DWGCODEPAGE
  3
DOS932
  9
$INSBASE
 10
0.0
 20
0.0
 30
0.0
  9
$EXTMIN
 10
0.0
 20
0.0
 30
0.0
  9
$EXTMAX
 10
841.0
 20
594.0
 30
0.0
  9
$LIMMIN
 10
0.0
 20
0.0
  9
$LIMMAX
 10
841.0
 20
594.0
  9
$ORTHOMODE
 70
     0
  9
$REGENMODE
 70
     1
  9
$FILLMODE
 70
     1
  9
$QTEXTMODE
 70
     0
  9
$MIRRTEXT
 70
     1
  9
$LTSCALE
 40
1.0
  9
$ATTMODE
 70
     1
  9
$TEXTSIZE
 40
3.5
  9
$TRACEWID
 40
1.0
  9
$TEXTSTYLE
  7
Standard
  9
$CLAYER
  8
0
  9
$CELTYPE
  6
ByLayer
  9
$CECOLOR
 62
   256
  9
$CELTSCALE
 40
1.0
  9
$DISPSILH
 70
     0
  9
$DIMSCALE
 40
1.0
  9
$DIMASZ
 40
3.302
  9
$DIMEXO
 40
1.0
  9
$DIMDLI
 40
3.75
  9
$DIMRND
 40
0.0
  9
$DIMDLE
 40
0.0
  9
$DIMEXE
 40
1.0
  9
$DIMTP
 40
0.0
  9
$DIMTM
 40
0.0
  9
$DIMTXT
 40
3.5
  9
$DIMCEN
 40
2.5
  9
$DIMTSZ
 40
0.0
  9
$DIMTOL
 70
     0
  9
$DIMLIM
 70
     0
  9
$DIMTIH
 70
     1
  9
$DIMTOH
 70
     1
  9
$DIMSE1
 70
     0
  9
$DIMSE2
 70
     0
  9
$DIMTAD
 70
     1
  9
$DIMZIN
 70
     1
  9
$DIMBLK
  1

  9
$DIMASO
 70
     1
  9
$DIMSHO
 70
     1
  9
$DIMPOST
  1

  9
$DIMAPOST
  1

  9
$DIMALT
 70
     0
  9
$DIMALTD
 70
     3
  9
$DIMALTF
 40
0.0393700787
  9
$DIMLFAC
 40
0.5
  9
$DIMTOFL
 70
     1
  9
$DIMTVP
 40
0.0
  9
$DIMTIX
 70
     0
  9
$DIMSOXD
 70
     0
  9
$DIMSAH
 70
     0
  9
$DIMBLK1
  1

  9
$DIMBLK2
  1

  9
$DIMSTYLE
  2
ISO-25
  9
$DIMCLRD
 70
     0
  9
$DIMCLRE
 70
     0
  9
$DIMCLRT
 70
     0
  9
$DIMTFAC
 40
1.0
  9
$DIMGAP
 40
1.524
  9
$DIMJUST
 70
     0
  9
$DIMSD1
 70
     0
  9
$DIMSD2
 70
     0
  9
$DIMTOLJ
 70
     0
  9
$DIMTZIN
 70
     1
  9
$DIMALTZ
 70
     0
  9
$DIMALTTZ
 70
     0
  9
$DIMUPT
 70
     0
  9
$DIMDEC
 70
     2
  9
$DIMTDEC
 70
     2
  9
$DIMALTU
 70
     2
  9
$DIMALTTD
 70
     3
  9
$DIMTXSTY
  7
Standard
  9
$DIMAUNIT
 70
     0
  9
$DIMADEC
 70
     2
  9
$DIMALTRND
 40
0.0
  9
$DIMAZIN
 70
     0
  9
$DIMDSEP
 70
    44
  9
$DIMATFIT
 70
     3
  9
$DIMFRAC
 70
     0
  9
$DIMLDRBLK
  1

  9
$DIMLUNIT
 70
     2
  9
$DIMLWD
 70
    -2
  9
$DIMLWE
 70
    -2
  9
$DIMTMOVE
 70
     0
  9
$LUNITS
 70
     2
  9
$LUPREC
 70
     2
  9
$SKETCHINC
 40
1.0
  9
$FILLETRAD
 40
0.0
  9
$AUNITS
 70
     0
  9
$AUPREC
 70
     2
  9
$MENU
  1
.
  9
$ELEVATION
 40
0.0
  9
$PELEVATION
 40
0.0
  9
$THICKNESS
 40
0.0
  9
$LIMCHECK
 70
     0
  9
$CHAMFERA
 40
0.0
  9
$CHAMFERB
 40
0.0
  9
$CHAMFERC
 40
0.0
  9
$CHAMFERD
 40
0.0
  9
$SKPOLY
 70
     0
  9
$TDCREATE
 40
2461263.446156157
  9
$TDUCREATE
 40
2461263.071156157
  9
$TDUPDATE
 40
2461263.446156528
  9
$TDUUPDATE
 40
2461263.071156528
  9
$TDINDWG
 40
0.0000000116
  9
$TDUSRTIMER
 40
0.0000000116
  9
$USRTIMER
 70
     1
  9
$ANGBASE
 50
0.0
  9
$ANGDIR
 70
     0
  9
$PDMODE
 70
     0
  9
$PDSIZE
 40
-1.0
  9
$PLINEWID
 40
0.0
  9
$SPLFRAME
 70
     0
  9
$SPLINETYPE
 70
     6
  9
$SPLINESEGS
 70
     8
  9
$HANDSEED
  5
DA
  9
$SURFTAB1
 70
     6
  9
$SURFTAB2
 70
     6
  9
$SURFTYPE
 70
     6
  9
$SURFU
 70
     6
  9
$SURFV
 70
     6
  9
$UCSBASE
  2

  9
$UCSNAME
  2

  9
$UCSORG
 10
0.0
 20
0.0
 30
0.0
  9
$UCSXDIR
 10
1.0
 20
0.0
 30
0.0
  9
$UCSYDIR
 10
0.0
 20
1.0
 30
0.0
  9
$UCSORTHOREF
  2

  9
$UCSORTHOVIEW
 70
     0
  9
$UCSORGTOP
 10
0.0
 20
0.0
 30
0.0
  9
$UCSORGBOTTOM
 10
0.0
 20
0.0
 30
0.0
  9
$UCSORGLEFT
 10
0.0
 20
0.0
 30
0.0
  9
$UCSORGRIGHT
 10
0.0
 20
0.0
 30
0.0
  9
$UCSORGFRONT
 10
0.0
 20
0.0
 30
0.0
  9
$UCSORGBACK
 10
0.0
 20
0.0
 30
0.0
  9
$PUCSBASE
  2

  9
$PUCSNAME
  2

  9
$PUCSORG
 10
0.0
 20
0.0
 30
0.0
  9
$PUCSXDIR
 10
1.0
 20
0.0
 30
0.0
  9
$PUCSYDIR
 10
0.0
 20
1.0
 30
0.0
  9
$PUCSORTHOREF
  2

  9
$PUCSORTHOVIEW
 70
     0
  9
$PUCSORGTOP
 10
0.0
 20
0.0
 30
0.0
  9
$PUCSORGBOTTOM
 10
0.0
 20
0.0
 30
0.0
  9
$PUCSORGLEFT
 10
0.0
 20
0.0
 30
0.0
  9
$PUCSORGRIGHT
 10
0.0
 20
0.0
 30
0.0
  9
$PUCSORGFRONT
 10
0.0
 20
0.0
 30
0.0
  9
$PUCSORGBACK
 10
0.0
 20
0.0
 30
0.0
  9
$USERI1
 70
     0
  9
$USERI2
 70
     0
  9
$USERI3
 70
     0
  9
$USERI4
 70
     0
  9
$USERI5
 70
     0
  9
$USERR1
 40
0.0
  9
$USERR2
 40
0.0
  9
$USERR3
 40
0.0
  9
$USERR4
 40
0.0
  9
$USERR5
 40
0.0
  9
$WORLDVIEW
 70
     1
  9
$SHADEDGE
 70
     3
  9
$SHADEDIF
 70
    70
  9
$TILEMODE
 70
     1
  9
$MAXACTVP
 70
    64
  9
$PINSBASE
 10
0.0
 20
0.0
 30
0.0
  9
$PLIMCHECK
 70
     0
  9
$PEXTMIN
 10
1.0000000000E+20
 20
1.0000000000E+20
 30
1.0000000000E+20
  9
$PEXTMAX
 10
-1.0000000000E+20
 20
-1.0000000000E+20
 30
-1.0000000000E+20
  9
$PLIMMIN
 10
0.0
 20
0.0
  9
$PLIMMAX
 10
420.0
 20
297.0
  9
$UNITMODE
 70
     0
  9
$VISRETAIN
 70
     1
  9
$PLINEGEN
 70
     0
  9
$PSLTSCALE
 70
     1
  9
$TREEDEPTH
 70
  3020
  9
$CMLSTYLE
  2
Standard
  9
$CMLJUST
 70
     0
  9
$CMLSCALE
 40
20.0
  9
$PROXYGRAPHICS
 70
     1
  9
$MEASUREMENT
 70
     1
  9
$CELWEIGHT
370
    -1
  9
$ENDCAPS
280
     0
  9
$JOINSTYLE
280
     0
  9
$LWDISPLAY
290
     1
  9
$INSUNITS
 70
     4
  9
$HYPERLINKBASE
  1

  9
$STYLESHEET
  1

  9
$XEDIT
290
     1
  9
$CEPSNTYPE
380
     0
  9
$PSTYLEMODE
290
     1
  9
$FINGERPRINTGUID
  2
{ec3e8f41-01c8-48b4-a6a7-bca5e5fbf47c}
  9
$VERSIONGUID
  2
{FAEB1C32-E019-11D5-929B-00C0DF256EC4}
  9
$EXTNAMES
290
     1
  9
$PSVPSCALE
 40
0.0
  9
$OLESTARTUP
290
     0
  0
ENDSEC
  0
SECTION
  2
CLASSES
  0
CLASS
  1
ACDBDICTIONARYWDFLT
  2
AcDbDictionaryWithDefault
  3
ObjectDBX Classes
 90
        0
280
     0
281
     0
  0
CLASS
  1
VISUALSTYLE
  2
AcDbVisualStyle
  3
ObjectDBX Classes
 90
     4095
280
     0
281
     0
  0
CLASS
  1
MATERIAL
  2
AcDbMaterial
  3
ObjectDBX Classes
 90
     1153
280
     0
281
     0
  0
CLASS
  1
SCALE
  2
AcDbScale
  3
ObjectDBX Classes
 90
     1153
280
     0
281
     0
  0
CLASS
  1
TABLESTYLE
  2
AcDbTableStyle
  3
ObjectDBX Classes
 90
     4095
280
     0
281
     0
  0
CLASS
  1
MLEADERSTYLE
  2
AcDbMLeaderStyle
  3
ACDB_MLEADERSTYLE_CLASS
 90
     4095
280
     0
281
     0
  0
CLASS
  1
SUN
  2
AcDbSun
  3
SCENEOE
 90
     1153
280
     0
281
     0
  0
CLASS
  1
ACDBPLACEHOLDER
  2
AcDbPlaceHolder
  3
ObjectDBX Classes
 90
        0
280
     0
281
     0
  0
CLASS
  1
LAYOUT
  2
AcDbLayout
  3
ObjectDBX Classes
 90
        0
280
     0
281
     0
  0
ENDSEC
  0
SECTION
  2
TABLES
  0
TABLE
  2
VPORT
  5
8
330
0
100
AcDbSymbolTable
 70
     1
  0
VPORT
  5
29
330
8
100
AcDbSymbolTableRecord
100
AcDbViewportTableRecord
  2
*Active
 70
     0
 10
0.0
 20
0.0
 11
1.0
 21
1.0
 12
420.5
 22
297.0
 13
0.0
 23
0.0
 14
10.0
 24
10.0
 15
10.0
 25
10.0
 16
0.0
 26
0.0
 36
1.0
 17
0.0
 27
0.0
 37
0.0
 40
594.0
 41
1.4158249158
 42
50.0
 43
0.0
 44
0.0
 50
0.0
 51
0.0
 71
     0
 72
  2000
 73
     1
 74
     3
 75
     0
 76
     0
 77
     0
 78
     0
281
     0
 65
     1
110
0.0
120
0.0
130
0.0
111
1.0
121
0.0
131
0.0
112
0.0
122
1.0
132
0.0
 79
     0
146
0.0
  0
ENDTAB
  0
TABLE
  2
LTYPE
  5
5
330
0
100
AcDbSymbolTable
 70
     6
  0
LTYPE
  5
14
330
5
100
AcDbSymbolTableRecord
100
AcDbLinetypeTableRecord
  2
ByBlock
 70
     0
  3

 72
    65
 73
     0
 40
0.0
  0
LTYPE
  5
15
330
5
100
AcDbSymbolTableRecord
100
AcDbLinetypeTableRecord
  2
ByLayer
 70
     0
  3

 72
    65
 73
     0
 40
0.0
  0
LTYPE
  5
16
330
5
100
AcDbSymbolTableRecord
100
AcDbLinetypeTableRecord
  2
Continuous
 70
     0
  3
Solid line
 72
    65
 73
     0
 40
0.0
  0
LTYPE
  5
5E
330
5
100
AcDbSymbolTableRecord
100
AcDbLinetypeTableRecord
  2
HIDDEN
 70
     0
  3
Hidden __ __ __ __ __ __ __ __ __ __ __ __ __ __
 72
    65
 73
     2
 40
1.905
 49
1.27
 74
     0
 49
-0.635
 74
     0
  0
LTYPE
  5
5F
330
5
100
AcDbSymbolTableRecord
100
AcDbLinetypeTableRecord
  2
PHANTOM
 70
     0
  3
Phantom ______  __  __  ______  __  __  ______
 72
    65
 73
     6
 40
12.7
 49
6.35
 74
     0
 49
-1.27
 74
     0
 49
1.27
 74
     0
 49
-1.27
 74
     0
 49
1.27
 74
     0
 49
-1.27
 74
     0
  0
LTYPE
  5
60
330
5
100
AcDbSymbolTableRecord
100
AcDbLinetypeTableRecord
  2
CENTER
 70
     0
  3
Center ____ _ ____ _ ____ _ ____ _ ____ _ ____
 72
    65
 73
     4
 40
10.16
 49
6.35
 74
     0
 49
-1.27
 74
     0
 49
1.27
 74
     0
 49
-1.27
 74
     0
  0
LTYPE
  5
61
330
5
100
AcDbSymbolTableRecord
100
AcDbLinetypeTableRecord
  2
CENTERX2
 70
     0
  3
Center (2x) ________  __  ________  __  _____
 72
    65
 73
     4
 40
20.32
 49
12.7
 74
     0
 49
-2.54
 74
     0
 49
2.54
 74
     0
 49
-2.54
 74
     0
  0
LTYPE
  5
62
330
5
100
AcDbSymbolTableRecord
100
AcDbLinetypeTableRecord
  2
DOT2
 70
     0
  3
Dot (.5x) ........................................
 72
    65
 73
     2
 40
0.635
 49
0.0
 74
     0
 49
-0.635
 74
     0
  0
ENDTAB
  0
TABLE
  2
LAYER
  5
2
330
0
100
AcDbSymbolTable
 70
     1
  0
LAYER
  5
10
330
2
100
AcDbSymbolTableRecord
100
AcDbLayerTableRecord
  2
0
 70
     0
 62
     7
  6
Continuous
370
    -3
390
F
  0
ENDTAB
  0
TABLE
  2
STYLE
  5
3
330
0
100
AcDbSymbolTable
 70
     1
  0
STYLE
  5
11
330
3
100
AcDbSymbolTableRecord
100
AcDbTextStyleTableRecord
  2
Standard
 70
     0
 40
0.0
 41
1.0
 50
0.0
 71
     0
 42
3.5
  3
txt
  4
bigfont
  0
ENDTAB
  0
TABLE
  2
VIEW
  5
6
330
0
100
AcDbSymbolTable
 70
     0
  0
ENDTAB
  0
TABLE
  2
UCS
  5
7
330
0
100
AcDbSymbolTable
 70
     0
  0
ENDTAB
  0
TABLE
  2
APPID
  5
9
330
0
100
AcDbSymbolTable
 70
     1
  0
APPID
  5
12
330
9
100
AcDbSymbolTableRecord
100
AcDbRegAppTableRecord
  2
ACAD
 70
     0
  0
ENDTAB
  0
TABLE
  2
DIMSTYLE
  5
A
330
0
100
AcDbSymbolTable
 70
     1
100
AcDbDimStyleTable
  0
DIMSTYLE
105
27
330
A
100
AcDbSymbolTableRecord
100
AcDbDimStyleTableRecord
  2
ISO-25
 70
     0
 41
2.5
 42
0.625
 43
3.75
 44
1.25
 73
     0
 74
     0
 77
     1
 78
     8
140
2.5
141
2.5
143
0.0393700787
147
0.625
171
     3
172
     1
178
     0
271
     2
272
     2
274
     3
278
    44
283
     0
284
     8
340
11
  0
ENDTAB
  0
TABLE
  2
BLOCK_RECORD
  5
1
330
0
100
AcDbSymbolTable
 70
     1
  0
BLOCK_RECORD
  5
1F
330
1
100
AcDbSymbolTableRecord
100
AcDbBlockTableRecord
  2
*Model_Space
340
22
  0
BLOCK_RECORD
  5
1B
330
1
100
AcDbSymbolTableRecord
100
AcDbBlockTableRecord
  2
*Paper_Space
340
1E
  0
BLOCK_RECORD
  5
23
330
1
100
AcDbSymbolTableRecord
100
AcDbBlockTableRecord
  2
*Paper_Space0
340
26
  0
ENDTAB
  0
ENDSEC
  0
SECTION
  2
BLOCKS
  0
BLOCK
  5
20
330
1F
100
AcDbEntity
  8
0
100
AcDbBlockBegin
  2
*Model_Space
 70
     0
 10
0.0
 20
0.0
 30
0.0
  3
*Model_Space
  1

  0
ENDBLK
  5
21
330
1F
100
AcDbEntity
  8
0
100
AcDbBlockEnd
  0
BLOCK
  5
1C
330
1B
100
AcDbEntity
 67
     1
  8
0
100
AcDbBlockBegin
  2
*Paper_Space
 70
     0
 10
0.0
 20
0.0
 30
0.0
  3
*Paper_Space
  1

  0
ENDBLK
  5
1D
330
1B
100
AcDbEntity
 67
     1
  8
0
100
AcDbBlockEnd
  0
BLOCK
  5
24
330
23
100
AcDbEntity
  8
0
100
AcDbBlockBegin
  2
*Paper_Space0
 70
     0
 10
0.0
 20
0.0
 30
0.0
  3
*Paper_Space0
  1

  0
ENDBLK
  5
25
330
23
100
AcDbEntity
  8
0
100
AcDbBlockEnd
  0
ENDSEC
  0
SECTION
  2
ENTITIES
  0
LINE
  5
63
330
1F
100
AcDbEntity
  8
0
  6
Continuous
 62
     7
370
    25
100
AcDbLine
 10
378.8127579795
 20
207.4560217128
 30
0.0
 11
378.8127579795
 21
204.2560217128
 31
0.0
  0
LINE
  5
64
330
1F
100
AcDbEntity
  8
0
  6
Continuous
 62
     7
370
    25
100
AcDbLine
 10
375.8127579795
 20
207.4560217128
 30
0.0
 11
378.8127579795
 21
207.4560217128
 31
0.0
  0
LINE
  5
65
330
1F
100
AcDbEntity
  8
0
  6
Continuous
 62
     7
370
    25
100
AcDbLine
 10
378.8127579795
 20
204.2560217128
 30
0.0
 11
375.8127579795
 21
204.2560217128
 31
0.0
  0
LINE
  5
66
330
1F
100
AcDbEntity
  8
0
  6
Continuous
 62
     7
370
    25
100
AcDbLine
 10
332.3127579795
 20
204.2560217128
 30
0.0
 11
332.3127579795
 21
207.4560217128
 31
0.0
  0
LINE
  5
67
330
1F
100
AcDbEntity
  8
0
  6
Continuous
 62
     7
370
    25
100
AcDbLine
 10
332.3127579795
 20
207.4560217128
 30
0.0
 11
335.3127579795
 21
207.4560217128
 31
0.0
  0
LINE
  5
68
330
1F
100
AcDbEntity
  8
0
  6
Continuous
 62
     7
370
    25
100
AcDbLine
 10
335.3127579795
 20
204.2560217128
 30
0.0
 11
332.3127579795
 21
204.2560217128
 31
0.0
  0
LINE
  5
69
330
1F
100
AcDbEntity
  8
0
  6
Continuous
 62
     7
370
    25
100
AcDbLine
 10
335.3127579795
 20
207.4560217128
 30
0.0
 11
375.8127579795
 21
207.4560217128
 31
0.0
  0
LINE
  5
6A
330
1F
100
AcDbEntity
  8
0
  6
Continuous
 62
     7
370
    25
100
AcDbLine
 10
335.3127579795
 20
204.2560217128
 30
0.0
 11
375.8127579795
 21
204.2560217128
 31
0.0
  0
LINE
  5
6B
330
1F
100
AcDbEntity
  8
0
  6
Continuous
 62
     7
370
    25
100
AcDbLine
 10
332.3127579795
 20
250.2560217128
 30
0.0
 11
378.8127579795
 21
250.2560217128
 31
0.0
  0
LINE
  5
6C
330
1F
100
AcDbEntity
  8
0
  6
Continuous
 62
     7
370
    25
100
AcDbLine
 10
332.3127579795
 20
250.2560217128
 30
0.0
 11
332.3127579795
 21
247.0560217128
 31
0.0
  0
LINE
  5
6D
330
1F
100
AcDbEntity
  8
0
  6
Continuous
 62
     7
370
    25
100
AcDbLine
 10
378.8127579795
 20
250.2560217128
 30
0.0
 11
378.8127579795
 21
247.0560217128
 31
0.0
  0
LINE
  5
6E
330
1F
100
AcDbEntity
  8
0
  6
Continuous
 62
     7
370
    25
100
AcDbLine
 10
332.3127579795
 20
247.0560217128
 30
0.0
 11
332.3127579795
 21
207.4560217128
 31
0.0
  0
LINE
  5
6F
330
1F
100
AcDbEntity
  8
0
  6
Continuous
 62
     7
370
    25
100
AcDbLine
 10
378.8127579795
 20
247.0560217128
 30
0.0
 11
378.8127579795
 21
207.4560217128
 31
0.0
  0
LINE
  5
70
330
1F
100
AcDbEntity
  8
0
  6
HIDDEN
 62
     7
370
    18
100
AcDbLine
 10
332.3127579795
 20
247.0560217128
 30
0.0
 11
378.8127579795
 21
247.0560217128
 31
0.0
  0
LINE
  5
71
330
1F
100
AcDbEntity
  8
0
  6
HIDDEN
 62
     7
370
    18
100
AcDbLine
 10
372.3127579795
 20
204.2560217128
 30
0.0
 11
372.3127579795
 21
207.4560217128
 31
0.0
  0
LINE
  5
72
330
1F
100
AcDbEntity
  8
0
  6
HIDDEN
 62
     7
370
    18
100
AcDbLine
 10
338.8127579795
 20
207.4560217128
 30
0.0
 11
338.8127579795
 21
204.2560217128
 31
0.0
  0
LINE
  5
73
330
1F
100
AcDbEntity
  8
0
  6
HIDDEN
 62
     7
370
    18
100
AcDbLine
 10
349.3127579795
 20
247.0560217128
 30
0.0
 11
349.3127579795
 21
250.2560217128
 31
0.0
  0
LINE
  5
74
330
1F
100
AcDbEntity
  8
0
  6
HIDDEN
 62
     7
370
    18
100
AcDbLine
 10
361.8127579795
 20
250.2560217128
 30
0.0
 11
361.8127579795
 21
247.0560217128
 31
0.0
  0
LINE
  5
75
330
1F
100
AcDbEntity
  8
0
  6
HIDDEN
 62
     7
370
    18
100
AcDbLine
 10
365.8127579795
 20
247.0560217128
 30
0.0
 11
365.8127579795
 21
250.2560217128
 31
0.0
  0
LINE
  5
76
330
1F
100
AcDbEntity
  8
0
  6
HIDDEN
 62
     7
370
    18
100
AcDbLine
 10
345.3127579795
 20
250.2560217128
 30
0.0
 11
345.3127579795
 21
247.0560217128
 31
0.0
  0
LINE
  5
77
330
1F
100
AcDbEntity
  8
0
  6
Continuous
 62
     7
370
    25
100
AcDbLine
 10
378.8127579795
 20
372.38
 30
0.0
 11
378.8127579795
 21
353.58
 31
0.0
  0
LINE
  5
78
330
1F
100
AcDbEntity
  8
0
  6
Continuous
 62
     7
370
    25
100
AcDbLine
 10
332.3127579795
 20
372.38
 30
0.0
 11
332.3127579795
 21
353.58
 31
0.0
  0
ARC
  5
79
330
1F
100
AcDbEntity
  8
0
  6
Continuous
 62
     7
370
    25
100
AcDbCircle
 10
335.3127579795
 20
372.38
 30
0.0
 40
3.0
100
AcDbArc
 50
90.0
 51
180.0
  0
ARC
  5
7A
330
1F
100
AcDbEntity
  8
0
  6
Continuous
 62
     7
370
    25
100
AcDbCircle
 10
347.3127579795
 20
365.88
 30
0.0
 40
2.0
100
AcDbArc
 50
90.0
 51
270.0
  0
ARC
  5
7B
330
1F
100
AcDbEntity
  8
0
  6
Continuous
 62
     7
370
    25
100
AcDbCircle
 10
347.3127579795
 20
365.88
 30
0.0
 40
2.0
100
AcDbArc
 50
270.0
 51
90.0
  0
ARC
  5
7C
330
1F
100
AcDbEntity
  8
0
  6
Continuous
 62
     7
370
    25
100
AcDbCircle
 10
363.8127579795
 20
365.88
 30
0.0
 40
2.0
100
AcDbArc
 50
90.0
 51
270.0
  0
ARC
  5
7D
330
1F
100
AcDbEntity
  8
0
  6
Continuous
 62
     7
370
    25
100
AcDbCircle
 10
363.8127579795
 20
365.88
 30
0.0
 40
2.0
100
AcDbArc
 50
270.0
 51
90.0
  0
LINE
  5
7E
330
1F
100
AcDbEntity
  8
0
  6
Continuous
 62
     7
370
    25
100
AcDbLine
 10
335.3127579795
 20
375.38
 30
0.0
 11
375.8127579795
 21
375.38
 31
0.0
  0
ARC
  5
7F
330
1F
100
AcDbEntity
  8
0
  6
Continuous
 62
     7
370
    25
100
AcDbCircle
 10
375.8127579795
 20
372.38
 30
0.0
 40
3.0
100
AcDbArc
 50
0.0
 51
90.0
  0
LINE
  5
80
330
1F
100
AcDbEntity
  8
0
  6
Continuous
 62
     7
370
    25
100
AcDbLine
 10
332.3127579795
 20
350.38
 30
0.0
 11
378.8127579795
 21
350.38
 31
0.0
  0
LINE
  5
81
330
1F
100
AcDbEntity
  8
0
  6
Continuous
 62
     7
370
    25
100
AcDbLine
 10
332.3127579795
 20
353.58
 30
0.0
 11
332.3127579795
 21
350.38
 31
0.0
  0
LINE
  5
82
330
1F
100
AcDbEntity
  8
0
  6
Continuous
 62
     7
370
    25
100
AcDbLine
 10
378.8127579795
 20
353.58
 30
0.0
 11
378.8127579795
 21
350.38
 31
0.0
  0
ARC
  5
83
330
1F
100
AcDbEntity
  8
0
  6
Continuous
 62
     7
370
    25
100
AcDbCircle
 10
375.8127579795
 20
331.38
 30
0.0
 40
3.0
100
AcDbArc
 50
270.0
 51
0.0
  0
LINE
  5
84
330
1F
100
AcDbEntity
  8
0
  6
Continuous
 62
     7
370
    25
100
AcDbLine
 10
335.3127579795
 20
328.38
 30
0.0
 11
375.8127579795
 21
328.38
 31
0.0
  0
ARC
  5
85
330
1F
100
AcDbEntity
  8
0
  6
Continuous
 62
     7
370
    25
100
AcDbCircle
 10
335.3127579795
 20
331.38
 30
0.0
 40
3.0
100
AcDbArc
 50
180.0
 51
270.0
  0
LINE
  5
86
330
1F
100
AcDbEntity
  8
0
  6
Continuous
 62
     7
370
    25
100
AcDbLine
 10
342.3127579795
 20
334.88
 30
0.0
 11
368.8127579795
 21
334.88
 31
0.0
  0
ARC
  5
87
330
1F
100
AcDbEntity
  8
0
  6
Continuous
 62
     7
370
    25
100
AcDbCircle
 10
368.8127579795
 20
338.38
 30
0.0
 40
3.5
100
AcDbArc
 50
270.0
 51
90.0
  0
LINE
  5
88
330
1F
100
AcDbEntity
  8
0
  6
Continuous
 62
     7
370
    25
100
AcDbLine
 10
368.8127579795
 20
341.88
 30
0.0
 11
342.3127579795
 21
341.88
 31
0.0
  0
ARC
  5
89
330
1F
100
AcDbEntity
  8
0
  6
Continuous
 62
     7
370
    25
100
AcDbCircle
 10
342.3127579795
 20
338.38
 30
0.0
 40
3.5
100
AcDbArc
 50
90.0
 51
270.0
  0
LINE
  5
8A
330
1F
100
AcDbEntity
  8
0
  6
Continuous
 62
     7
370
    25
100
AcDbLine
 10
332.3127579795
 20
350.38
 30
0.0
 11
332.3127579795
 21
331.38
 31
0.0
  0
LINE
  5
8B
330
1F
100
AcDbEntity
  8
0
  6
Continuous
 62
     7
370
    25
100
AcDbLine
 10
378.8127579795
 20
350.38
 30
0.0
 11
378.8127579795
 21
331.38
 31
0.0
  0
LINE
  5
8C
330
1F
100
AcDbEntity
  8
0
  6
HIDDEN
 62
     7
370
    18
100
AcDbLine
 10
332.3127579795
 20
353.58
 30
0.0
 11
378.8127579795
 21
353.58
 31
0.0
  0
LINE
  5
8D
330
1F
100
AcDbEntity
  8
0
  6
Continuous
 62
     7
370
    25
100
AcDbLine
 10
496.13
 20
250.2560217128
 30
0.0
 11
499.13
 21
250.2560217128
 31
0.0
  0
LINE
  5
8E
330
1F
100
AcDbEntity
  8
0
  6
Continuous
 62
     7
370
    25
100
AcDbLine
 10
499.13
 20
250.2560217128
 30
0.0
 11
499.13
 21
247.0560217128
 31
0.0
  0
LINE
  5
8F
330
1F
100
AcDbEntity
  8
0
  6
Continuous
 62
     7
370
    25
100
AcDbLine
 10
499.13
 20
247.0560217128
 30
0.0
 11
496.13
 21
247.0560217128
 31
0.0
  0
LINE
  5
90
330
1F
100
AcDbEntity
  8
0
  6
Continuous
 62
     7
370
    25
100
AcDbLine
 10
474.13
 20
247.0560217128
 30
0.0
 11
474.13
 21
207.4560217128
 31
0.0
  0
ARC
  5
91
330
1F
100
AcDbEntity
  8
0
  6
Continuous
 62
     7
370
    25
100
AcDbCircle
 10
477.33
 20
247.0560217128
 30
0.0
 40
3.199999999999989
100
AcDbArc
 50
90.0
 51
180.0
  0
LINE
  5
92
330
1F
100
AcDbEntity
  8
0
  6
Continuous
 62
     7
370
    25
100
AcDbLine
 10
477.33
 20
207.4560217128
 30
0.0
 11
477.33
 21
247.0560217128
 31
0.0
  0
ARC
  5
93
330
1F
100
AcDbEntity
  8
0
  6
Continuous
 62
     7
370
    25
100
AcDbCircle
 10
474.13
 20
207.4560217128
 30
0.0
 40
3.199999999999989
100
AcDbArc
 50
270.0
 51
0.0
  0
LINE
  5
94
330
1F
100
AcDbEntity
  8
0
  6
Continuous
 62
     7
370
    25
100
AcDbLine
 10
455.13
 20
204.2560217128
 30
0.0
 11
474.13
 21
204.2560217128
 31
0.0
  0
LINE
  5
95
330
1F
100
AcDbEntity
  8
0
  6
Continuous
 62
     7
370
    25
100
AcDbLine
 10
474.13
 20
207.4560217128
 30
0.0
 11
455.13
 21
207.4560217128
 31
0.0
  0
LINE
  5
96
330
1F
100
AcDbEntity
  8
0
  6
Continuous
 62
     7
370
    25
100
AcDbLine
 10
477.33
 20
247.0560217128
 30
0.0
 11
496.13
 21
247.0560217128
 31
0.0
  0
LINE
  5
97
330
1F
100
AcDbEntity
  8
0
  6
Continuous
 62
     7
370
    25
100
AcDbLine
 10
496.13
 20
250.2560217128
 30
0.0
 11
477.33
 21
250.2560217128
 31
0.0
  0
LINE
  5
98
330
1F
100
AcDbEntity
  8
0
  6
Continuous
 62
     7
370
    25
100
AcDbLine
 10
452.13
 20
204.2560217128
 30
0.0
 11
452.13
 21
207.4560217128
 31
0.0
  0
LINE
  5
99
330
1F
100
AcDbEntity
  8
0
  6
Continuous
 62
     7
370
    25
100
AcDbLine
 10
455.13
 20
204.2560217128
 30
0.0
 11
452.13
 21
204.2560217128
 31
0.0
  0
LINE
  5
9A
330
1F
100
AcDbEntity
  8
0
  6
Continuous
 62
     7
370
    25
100
AcDbLine
 10
452.13
 20
207.4560217128
 30
0.0
 11
455.13
 21
207.4560217128
 31
0.0
  0
LINE
  5
9B
330
1F
100
AcDbEntity
  8
0
  6
HIDDEN
 62
     7
370
    18
100
AcDbLine
 10
458.63
 20
204.2560217128
 30
0.0
 11
458.63
 21
207.4560217128
 31
0.0
  0
LINE
  5
9C
330
1F
100
AcDbEntity
  8
0
  6
HIDDEN
 62
     7
370
    18
100
AcDbLine
 10
465.63
 20
204.2560217128
 30
0.0
 11
465.63
 21
207.4560217128
 31
0.0
  0
LINE
  5
9D
330
1F
100
AcDbEntity
  8
0
  6
HIDDEN
 62
     7
370
    18
100
AcDbLine
 10
487.63
 20
247.0560217128
 30
0.0
 11
487.63
 21
250.2560217128
 31
0.0
  0
LINE
  5
9E
330
1F
100
AcDbEntity
  8
0
  6
HIDDEN
 62
     7
370
    18
100
AcDbLine
 10
491.63
 20
247.0560217128
 30
0.0
 11
491.63
 21
250.2560217128
 31
0.0
  0
LINE
  5
9F
330
1F
100
AcDbEntity
  8
0
  6
Continuous
 62
     7
370
    25
100
AcDbLine
 10
507.4446013334
 20
368.1495590893
 30
0.0
 11
507.4446013334
 21
370.7624896873
 31
0.0
  0
LINE
  5
A0
330
1F
100
AcDbEntity
  8
0
  6
Continuous
 62
     7
370
    25
100
AcDbLine
 10
443.8153986666
 20
335.6104409107
 30
0.0
 11
443.8153986666
 21
332.9975103126
 31
0.0
  0
LINE
  5
A1
330
1F
100
AcDbEntity
  8
0
  6
Continuous
 62
     7
370
    25
100
AcDbLine
 10
491.0095724908
 20
357.9444576915
 30
0.0
 11
491.0095724908
 21
325.6094415409
 31
0.0
  0
ARC
  5
A2
330
1F
100
AcDbEntity
  8
0
  6
Continuous
 62
     7
370
    25
100
AcDbCircle
 10
495.9032551164
 20
357.7318777571
 30
0.0
 40
4.898297650083211
100
AcDbArc
 50
122.4873455707
 51
177.5126542837
  0
LINE
  5
A3
330
1F
100
AcDbEntity
  8
0
  6
Continuous
 62
     7
370
    25
100
AcDbLine
 10
506.5659216769
 20
369.5378775196
 30
0.0
 11
493.2723141906
 21
361.8636412685
 31
0.0
  0
LINE
  5
A4
330
1F
100
AcDbEntity
  8
0
  6
Continuous
 62
     7
370
    25
100
AcDbLine
 10
493.2723141906
 20
359.2507106704
 30
0.0
 11
506.5659216769
 21
366.9249469216
 31
0.0
  0
LINE
  5
A5
330
1F
100
AcDbEntity
  8
0
  6
Continuous
 62
     7
370
    25
100
AcDbLine
 10
493.2723141906
 20
326.9156945198
 30
0.0
 11
493.2723141906
 21
359.2507106704
 31
0.0
  0
ARC
  5
A6
330
1F
100
AcDbEntity
  8
0
  6
Continuous
 62
     7
370
    25
100
AcDbCircle
 10
488.378631565
 20
327.1282744542
 30
0.0
 40
4.898297650082857
100
AcDbArc
 50
302.4873455707
 51
357.5126542837
  0
LINE
  5
A7
330
1F
100
AcDbEntity
  8
0
  6
Continuous
 62
     7
370
    25
100
AcDbLine
 10
477.5745436483
 20
315.2406338805
 30
0.0
 11
491.0095724908
 21
322.9965109428
 31
0.0
  0
LINE
  5
A8
330
1F
100
AcDbEntity
  8
0
  6
Continuous
 62
     7
370
    25
100
AcDbLine
 10
491.0095724908
 20
325.6094415409
 30
0.0
 11
477.5745436483
 21
317.8535644785
 31
0.0
  0
ARC
  5
A9
330
1F
100
AcDbEntity
  8
0
  6
Continuous
 62
     7
370
    25
100
AcDbCircle
 10
463.0227897913
 20
376.713366357
 30
0.0
 40
4.898297650082448
100
AcDbArc
 50
122.4873455707
 51
177.5126542837
  0
LINE
  5
AA
330
1F
100
AcDbEntity
  8
0
  6
Continuous
 62
     7
370
    25
100
AcDbLine
 10
458.1291071656
 20
376.9259462914
 30
0.0
 11
458.1291071656
 21
344.5909301407
 31
0.0
  0
LINE
  5
AB
330
1F
100
AcDbEntity
  8
0
  6
Continuous
 62
     7
370
    25
100
AcDbLine
 10
458.1291071656
 20
344.5909301407
 30
0.0
 11
491.0095724908
 21
325.6094415409
 31
0.0
  0
ARC
  5
AC
330
1F
100
AcDbEntity
  8
0
  6
Continuous
 62
     7
370
    25
100
AcDbCircle
 10
506.0892465627
 20
370.7624896874
 30
0.0
 40
1.314113437212796
100
AcDbArc
 50
291.2682653033
 51
68.7317346967
  0
LINE
  5
AD
330
1F
100
AcDbEntity
  8
0
  6
Continuous
 62
     7
370
    25
100
AcDbLine
 10
473.6854563517
 20
388.5193661195
 30
0.0
 11
460.3918488654
 21
380.8451298684
 31
0.0
  0
ARC
  5
AE
330
1F
100
AcDbEntity
  8
0
  6
Continuous
 62
     7
370
    25
100
AcDbCircle
 10
475.8067766953
 20
384.4458361679
 30
0.0
 40
4.592781974622512
100
AcDbArc
 50
62.4914255688
 51
117.5085744312
  0
LINE
  5
AF
330
1F
100
AcDbEntity
  8
0
  6
Continuous
 62
     7
370
    25
100
AcDbLine
 10
477.9280970389
 20
388.5193661195
 30
0.0
 11
506.5659216769
 21
371.9871018551
 31
0.0
  0
LWPOLYLINE
  5
B0
330
1F
100
AcDbEntity
  8
0
  6
Continuous
 62
     7
370
    25
100
AcDbPolyline
 90
       19
 70
   128
 43
0.0
 10
481.1100775542
 20
380.5593870292
 10
480.8430168645
 20
380.6887517364
 10
480.5411005153
 20
380.789379615
 10
480.213502082
 20
380.858213138
 10
479.8701754773
 20
380.8931608335
 10
479.5215525063
 20
380.8931608335
 10
479.1782259016
 20
380.858213138
 10
478.8506274683
 20
380.789379615
 10
478.5487111191
 20
380.6887517364
 10
478.2816504294
 20
380.5593870292
 10
478.0575599032
 20
380.4052161747
 10
477.8832484177
 20
380.2309235762
 10
477.7640123392
 20
380.0418050262
 10
477.7034745956
 20
379.8436067961
 10
477.7034745956
 20
379.6423510387
 10
477.7640123392
 20
379.4441528086
 10
477.8832484177
 20
379.2550342586
 10
478.0575599032
 20
379.0807416601
 10
478.2816504294
 20
378.9265708056
  0
LWPOLYLINE
  5
B1
330
1F
100
AcDbEntity
  8
0
  6
Continuous
 62
     7
370
    25
100
AcDbPolyline
 90
       19
 70
   128
 43
0.0
 10
478.2816504294
 20
378.9265708056
 10
478.5487111191
 20
378.7972060984
 10
478.8506274683
 20
378.6965782198
 10
479.1782259016
 20
378.6277446968
 10
479.5215525063
 20
378.5927970013
 10
479.8701754773
 20
378.5927970013
 10
480.213502082
 20
378.6277446968
 10
480.5411005153
 20
378.6965782198
 10
480.8430168645
 20
378.7972060984
 10
481.1100775542
 20
378.9265708056
 10
481.3341680804
 20
379.0807416601
 10
481.5084795659
 20
379.2550342586
 10
481.6277156444
 20
379.4441528086
 10
481.688253388
 20
379.6423510387
 10
481.688253388
 20
379.8436067961
 10
481.6277156444
 20
380.0418050262
 10
481.5084795659
 20
380.2309235762
 10
481.3341680804
 20
380.4052161747
 10
481.1100775542
 20
380.5593870292
  0
LWPOLYLINE
  5
B2
330
1F
100
AcDbEntity
  8
0
  6
Continuous
 62
     7
370
    25
100
AcDbPolyline
 90
       19
 70
   128
 43
0.0
 10
492.7773394438
 20
373.8240201067
 10
492.5102787541
 20
373.9533848139
 10
492.2083624049
 20
374.0540126925
 10
491.8807639716
 20
374.1228462155
 10
491.5374373669
 20
374.157793911
 10
491.1888143959
 20
374.157793911
 10
490.8454877912
 20
374.1228462155
 10
490.5178893579
 20
374.0540126925
 10
490.2159730087
 20
373.9533848139
 10
489.948912319
 20
373.8240201067
 10
489.7248217928
 20
373.6698492522
 10
489.5505103073
 20
373.4955566537
 10
489.4312742288
 20
373.3064381036
 10
489.3707364852
 20
373.1082398735
 10
489.3707364852
 20
372.9069841162
 10
489.4312742288
 20
372.7087858861
 10
489.5505103073
 20
372.5196673361
 10
489.7248217928
 20
372.3453747376
 10
489.948912319
 20
372.191203883
  0
LWPOLYLINE
  5
B3
330
1F
100
AcDbEntity
  8
0
  6
Continuous
 62
     7
370
    25
100
AcDbPolyline
 90
       19
 70
   128
 43
0.0
 10
489.948912319
 20
372.191203883
 10
490.2159730087
 20
372.0618391759
 10
490.5178893579
 20
371.9612112972
 10
490.8454877912
 20
371.8923777743
 10
491.1888143959
 20
371.8574300788
 10
491.5374373669
 20
371.8574300788
 10
491.8807639716
 20
371.8923777743
 10
492.2083624049
 20
371.9612112972
 10
492.5102787541
 20
372.0618391759
 10
492.7773394438
 20
372.191203883
 10
493.00142997
 20
372.3453747376
 10
493.1757414555
 20
372.5196673361
 10
493.294977534
 20
372.7087858861
 10
493.3555152776
 20
372.9069841162
 10
493.3555152776
 20
373.1082398735
 10
493.294977534
 20
373.3064381036
 10
493.1757414555
 20
373.4955566537
 10
493.00142997
 20
373.6698492522
 10
492.7773394438
 20
373.8240201067
  0
ARC
  5
B4
330
1F
100
AcDbEntity
  8
0
  6
Continuous
 62
     7
370
    25
100
AcDbCircle
 10
475.4532233047
 20
319.3141638321
 30
0.0
 40
4.592781974623193
100
AcDbArc
 50
242.4914255688
 51
297.5085744312
  0
ARC
  5
B5
330
1F
100
AcDbEntity
  8
0
  6
Continuous
 62
     7
370
    25
100
AcDbCircle
 10
475.4532233047
 20
321.9270944301
 30
0.0
 40
4.592781974622941
100
AcDbArc
 50
242.4914255688
 51
297.5085744312
  0
LINE
  5
B6
330
1F
100
AcDbEntity
  8
0
  6
Continuous
 62
     7
370
    25
100
AcDbLine
 10
444.6940783231
 20
334.385828743
 30
0.0
 11
473.3319029611
 21
317.8535644785
 31
0.0
  0
ARC
  5
B7
330
1F
100
AcDbEntity
  8
0
  6
Continuous
 62
     7
370
    25
100
AcDbCircle
 10
445.1707534373
 20
335.6104409107
 30
0.0
 40
1.314113437212723
100
AcDbArc
 50
111.2682653033
 51
248.7317346967
  0
LINE
  5
B8
330
1F
100
AcDbEntity
  8
0
  6
Continuous
 62
     7
370
    25
100
AcDbLine
 10
458.1291071656
 20
344.5909301407
 30
0.0
 11
444.6940783231
 21
336.8350530784
 31
0.0
  0
LINE
  5
B9
330
1F
100
AcDbEntity
  8
0
  6
Continuous
 62
     7
370
    25
100
AcDbLine
 10
454.2400198691
 20
334.181726715
 30
0.0
 11
472.9783495706
 21
323.3643192333
 31
0.0
  0
LWPOLYLINE
  5
BA
330
1F
100
AcDbEntity
  8
0
  6
Continuous
 62
     7
370
    25
100
AcDbPolyline
 90
       26
 70
   128
 43
0.0
 10
472.9783495706
 20
323.3643192333
 10
473.3080486169
 20
323.1965197015
 10
473.6715783496
 20
323.0538981449
 10
474.0632056875
 20
322.9387037906
 10
474.4767544336
 20
322.8527533225
 10
474.9057026771
 20
322.7974022306
 10
475.3432856479
 20
322.773523435
 10
475.7826024013
 20
322.7814935183
 10
476.2167246496
 20
322.8211867876
 10
476.6388060256
 20
322.8919772564
 10
477.0421900538
 20
322.9927485167
 10
477.4205151272
 20
323.1219113455
 10
477.7678148333
 20
323.2774287678
 10
478.0786120484
 20
323.4568481811
 10
478.3480053147
 20
323.6573400338
 10
478.5717461394
 20
323.8757424499
 10
478.746305996
 20
324.1086110926
 10
478.8689319715
 20
324.3522734845
 10
478.9376901808
 20
324.6028869239
 10
478.951496266
 20
324.8564990874
 10
478.9101324968
 20
325.1091103595
 10
478.8142512046
 20
325.3567369096
 10
478.6653644946
 20
325.595473519
 10
478.4658203992
 20
325.8215551689
 10
478.218765848
 20
326.0314164166
 10
477.9280970389
 20
326.2217476247
  0
LINE
  5
BB
330
1F
100
AcDbEntity
  8
0
  6
Continuous
 62
     7
370
    25
100
AcDbLine
 10
477.9280970389
 20
326.2217476247
 30
0.0
 11
459.1897673374
 21
337.0391551064
 31
0.0
  0
LWPOLYLINE
  5
BC
330
1F
100
AcDbEntity
  8
0
  6
Continuous
 62
     7
370
    25
100
AcDbPolyline
 90
       26
 70
   128
 43
0.0
 10
459.1897673374
 20
337.0391551064
 10
458.860068291
 20
337.2069546382
 10
458.4965385584
 20
337.3495761948
 10
458.1049112205
 20
337.4647705491
 10
457.6913624744
 20
337.5507210173
 10
457.2624142309
 20
337.6060721091
 10
456.82483126
 20
337.6299509048
 10
456.3855145066
 20
337.6219808214
 10
455.9513922584
 20
337.5822875521
 10
455.5293108824
 20
337.5114970833
 10
455.1259268542
 20
337.410725823
 10
454.7476017808
 20
337.2815629942
 10
454.4003020746
 20
337.1260455719
 10
454.0895048596
 20
336.9466261587
 10
453.8201115933
 20
336.7461343059
 10
453.5963707686
 20
336.5277318898
 10
453.4218109119
 20
336.2948632471
 10
453.2991849365
 20
336.0512008552
 10
453.2304267271
 20
335.8005874158
 10
453.216620642
 20
335.5469752523
 10
453.2579844112
 20
335.2943639802
 10
453.3538657034
 20
335.0467374301
 10
453.5027524134
 20
334.8080008207
 10
453.7022965087
 20
334.5819191708
 10
453.9493510599
 20
334.3720579231
 10
454.2400198691
 20
334.181726715
  0
ARC
  5
BD
330
1F
100
AcDbEntity
  8
0
  6
Continuous
 62
     7
370
    25
100
AcDbCircle
 10
505.9562407642
 20
368.2899428843
 30
0.0
 40
1.494966485779777
100
AcDbArc
 50
294.0681184713
 51
354.6117405711
  0
LINE
  5
BE
330
1F
100
AcDbEntity
  8
0
  6
Continuous
 62
     7
370
    25
100
AcDbLine
 10
444.6940783231
 20
331.7728981449
 30
0.0
 11
473.3319029611
 21
315.2406338805
 31
0.0
  0
LINE
  5
BF
330
1F
100
AcDbEntity
  8
0
  6
Continuous
 62
     7
370
    25
100
AcDbLine
 10
478.12311758
 20
323.48656813
 30
0.0
 11
477.9280970389
 21
323.6088170267
 31
0.0
  0
LINE
  5
C0
330
1F
100
AcDbEntity
  8
0
  6
Continuous
 62
     7
370
    25
100
AcDbLine
 10
477.9280970389
 20
323.6088170267
 30
0.0
 11
459.1897673374
 21
334.4262245083
 31
0.0
  0
ARC
  5
C1
330
1F
100
AcDbEntity
  8
0
  6
Continuous
 62
     7
370
    25
100
AcDbCircle
 10
456.7260125865
 20
329.793506164
 30
0.0
 40
5.247110321921199
100
AcDbArc
 50
61.9952303036
 51
120.7271579527
  0
ARC
  5
C2
330
1F
100
AcDbEntity
  8
0
  6
Continuous
 62
     7
370
    25
100
AcDbCircle
 10
445.3037592358
 20
333.1378941077
 30
0.0
 40
1.494966485780004
100
AcDbArc
 50
185.3882594289
 51
245.9318815287
  0
LINE
  5
C3
330
1F
100
AcDbEntity
  8
0
  6
HIDDEN
 62
     7
370
    18
100
AcDbLine
 10
460.3918488654
 20
378.2321992703
 30
0.0
 11
493.2723141906
 21
359.2507106704
 31
0.0
  0
ARC
  5
C4
330
1F
100
AcDbEntity
  8
0
  6
HIDDEN
 62
     7
370
    18
100
AcDbCircle
 10
505.9562407642
 20
368.0091752943
 30
0.0
 40
1.49496648577988
100
AcDbArc
 50
5.3882594289
 51
65.9318815287
  0
LWPOLYLINE
  5
C5
330
1F
100
AcDbEntity
  8
0
  6
HIDDEN
 62
     7
370
    18
100
AcDbPolyline
 90
       19
 70
   128
 43
0.0
 10
492.7773394438
 20
371.2110895087
 10
493.00142997
 20
371.0569186541
 10
493.1757414555
 20
370.8826260556
 10
493.294977534
 20
370.6935075056
 10
493.3555152776
 20
370.4953092755
 10
493.3555152776
 20
370.2940535182
 10
493.294977534
 20
370.095855288
 10
493.1757414555
 20
369.906736738
 10
493.00142997
 20
369.7324441395
 10
492.7773394438
 20
369.578273285
 10
492.5102787541
 20
369.4489085778
 10
492.2083624049
 20
369.3482806992
 10
491.8807639716
 20
369.2794471762
 10
491.5374373669
 20
369.2444994807
 10
491.1888143959
 20
369.2444994807
 10
490.8454877912
 20
369.2794471762
 10
490.5178893579
 20
369.3482806992
 10
490.2159730087
 20
369.4489085778
 10
489.948912319
 20
369.578273285
  0
LINE
  5
C6
330
1F
100
AcDbEntity
  8
0
  6
HIDDEN
 62
     7
370
    18
100
AcDbLine
 10
444.6940783231
 20
334.2221224804
 30
0.0
 11
458.1291071656
 21
341.9779995427
 31
0.0
  0
LINE
  5
C7
330
1F
100
AcDbEntity
  8
0
  6
HIDDEN
 62
     7
370
    18
100
AcDbLine
 10
460.3918488654
 20
345.8971831197
 30
0.0
 11
460.3918488654
 21
378.2321992703
 31
0.0
  0
LINE
  5
C8
330
1F
100
AcDbEntity
  8
0
  6
HIDDEN
 62
     7
370
    18
100
AcDbLine
 10
460.3918488654
 20
378.2321992703
 30
0.0
 11
473.6854563517
 21
385.9064355215
 31
0.0
  0
LINE
  5
C9
330
1F
100
AcDbEntity
  8
0
  6
HIDDEN
 62
     7
370
    18
100
AcDbLine
 10
477.9280970389
 20
385.9064355215
 30
0.0
 11
506.5659216769
 21
369.374171257
 31
0.0
  0
LWPOLYLINE
  5
CA
330
1F
100
AcDbEntity
  8
0
  6
HIDDEN
 62
     7
370
    18
100
AcDbPolyline
 90
       19
 70
   128
 43
0.0
 10
489.948912319
 20
369.578273285
 10
489.7248217928
 20
369.7324441395
 10
489.5505103073
 20
369.906736738
 10
489.4312742288
 20
370.095855288
 10
489.3707364852
 20
370.2940535182
 10
489.3707364852
 20
370.4953092755
 10
489.4312742288
 20
370.6935075056
 10
489.5505103073
 20
370.8826260556
 10
489.7248217928
 20
371.0569186541
 10
489.948912319
 20
371.2110895087
 10
490.2159730087
 20
371.3404542158
 10
490.5178893579
 20
371.4410820945
 10
490.8454877912
 20
371.5099156174
 10
491.1888143959
 20
371.5448633129
 10
491.5374373669
 20
371.5448633129
 10
491.8807639716
 20
371.5099156174
 10
492.2083624049
 20
371.4410820945
 10
492.5102787541
 20
371.3404542158
 10
492.7773394438
 20
371.2110895087
  0
LWPOLYLINE
  5
CB
330
1F
100
AcDbEntity
  8
0
  6
HIDDEN
 62
     7
370
    18
100
AcDbPolyline
 90
       26
 70
   128
 43
0.0
 10
472.9783495706
 20
320.7513886353
 10
473.3080486169
 20
320.5835891035
 10
473.6715783496
 20
320.4409675469
 10
474.0632056875
 20
320.3257731926
 10
474.4767544336
 20
320.2398227244
 10
474.9057026771
 20
320.1844716326
 10
475.3432856479
 20
320.1605928369
 10
475.7826024013
 20
320.1685629203
 10
476.2167246496
 20
320.2082561896
 10
476.6388060256
 20
320.2790466584
 10
477.0421900538
 20
320.3798179187
 10
477.4205151272
 20
320.5089807475
 10
477.7678148333
 20
320.6644981698
 10
478.0786120484
 20
320.843917583
 10
478.3480053147
 20
321.0444094358
 10
478.5717461394
 20
321.2628118518
 10
478.746305996
 20
321.4956804946
 10
478.8689319715
 20
321.7393428864
 10
478.9376901808
 20
321.9899563259
 10
478.951496266
 20
322.2435684893
 10
478.9101324968
 20
322.4961797614
 10
478.8142512046
 20
322.7438063115
 10
478.6653644946
 20
322.982542921
 10
478.4658203992
 20
323.2086245709
 10
478.218765848
 20
323.4184858185
 10
478.12311758
 20
323.48656813
  0
LINE
  5
CC
330
1F
100
AcDbEntity
  8
0
  6
HIDDEN
 62
     7
370
    18
100
AcDbLine
 10
454.2400198691
 20
331.568796117
 30
0.0
 11
472.9783495706
 21
320.7513886353
 31
0.0
  0
ARC
  5
CD
330
1F
100
AcDbEntity
  8
0
  6
HIDDEN
 62
     7
370
    18
100
AcDbCircle
 10
455.4981662398
 20
346.109763054
 30
0.0
 40
4.898297650083144
100
AcDbArc
 50
302.4873455707
 51
357.5126542837
  0
LWPOLYLINE
  5
CE
330
1F
100
AcDbEntity
  8
0
  6
HIDDEN
 62
     7
370
    18
100
AcDbPolyline
 90
       19
 70
   128
 43
0.0
 10
481.1100775542
 20
377.9464564312
 10
481.3341680804
 20
377.7922855767
 10
481.5084795659
 20
377.6179929782
 10
481.6277156444
 20
377.4288744281
 10
481.688253388
 20
377.230676198
 10
481.688253388
 20
377.0294204407
 10
481.6277156444
 20
376.8312222106
 10
481.5084795659
 20
376.6421036606
 10
481.3341680804
 20
376.4678110621
 10
481.1100775542
 20
376.3136402075
 10
480.8430168645
 20
376.1842755004
 10
480.5411005153
 20
376.0836476217
 10
480.213502082
 20
376.0148140988
 10
479.8701754773
 20
375.9798664033
 10
479.5215525063
 20
375.9798664033
 10
479.1782259016
 20
376.0148140988
 10
478.8506274683
 20
376.0836476217
 10
478.5487111191
 20
376.1842755004
 10
478.2816504294
 20
376.3136402075
  0
LWPOLYLINE
  5
CF
330
1F
100
AcDbEntity
  8
0
  6
HIDDEN
 62
     7
370
    18
100
AcDbPolyline
 90
       19
 70
   128
 43
0.0
 10
478.2816504294
 20
376.3136402075
 10
478.0575599032
 20
376.4678110621
 10
477.8832484177
 20
376.6421036606
 10
477.7640123392
 20
376.8312222106
 10
477.7034745956
 20
377.0294204407
 10
477.7034745956
 20
377.230676198
 10
477.7640123392
 20
377.4288744281
 10
477.8832484177
 20
377.6179929782
 10
478.0575599032
 20
377.7922855767
 10
478.2816504294
 20
377.9464564312
 10
478.5487111191
 20
378.0758211384
 10
478.8506274683
 20
378.176449017
 10
479.1782259016
 20
378.24528254
 10
479.5215525063
 20
378.2802302355
 10
479.8701754773
 20
378.2802302355
 10
480.213502082
 20
378.24528254
 10
480.5411005153
 20
378.176449017
 10
480.8430168645
 20
378.0758211384
 10
481.1100775542
 20
377.9464564312
  0
ARC
  5
D0
330
1F
100
AcDbEntity
  8
0
  6
HIDDEN
 62
     7
370
    18
100
AcDbCircle
 10
454.7490349422
 20
332.9796316188
 30
0.0
 40
1.499851045190938
100
AcDbArc
 50
117.9955956907
 51
250.1610728277
  0
ARC
  5
D1
330
1F
100
AcDbEntity
  8
0
  6
HIDDEN
 62
     7
370
    18
100
AcDbCircle
 10
445.3037592358
 20
332.8571265176
 30
0.0
 40
1.494966485779829
100
AcDbArc
 50
114.0681184713
 51
174.6117405711
  0
ARC
  5
D2
330
1F
100
AcDbEntity
  8
0
  6
HIDDEN
 62
     7
370
    18
100
AcDbCircle
 10
475.8067766953
 20
381.8329055699
 30
0.0
 40
4.592781974623143
100
AcDbArc
 50
62.4914255688
 51
117.5085744312
  0
LINE
  5
D3
330
1F
100
AcDbEntity
  8
0
  6
HIDDEN
 62
     7
370
    18
100
AcDbLine
 10
493.3631258814
 20
370.3946813968
 30
0.0
 11
493.3631258814
 21
373.0076119949
 31
0.0
  0
LINE
  5
D4
330
1F
100
AcDbEntity
  8
0
  6
HIDDEN
 62
     7
370
    18
100
AcDbLine
 10
489.3631258814
 20
373.0076119949
 30
0.0
 11
489.3631258814
 21
370.3946813968
 31
0.0
  0
LINE
  5
D5
330
1F
100
AcDbEntity
  8
0
  6
HIDDEN
 62
     7
370
    18
100
AcDbLine
 10
478.9532233047
 20
322.180102831
 30
0.0
 11
478.9532233047
 21
324.793033429
 31
0.0
  0
LINE
  5
D6
330
1F
100
AcDbEntity
  8
0
  6
HIDDEN
 62
     7
370
    18
100
AcDbLine
 10
481.6958639918
 20
377.1300483194
 30
0.0
 11
481.6958639918
 21
379.7429789174
 31
0.0
  0
LINE
  5
D7
330
1F
100
AcDbEntity
  8
0
  6
HIDDEN
 62
     7
370
    18
100
AcDbLine
 10
477.6958639918
 20
379.7429789174
 30
0.0
 11
477.6958639918
 21
377.1300483194
 31
0.0
  0
LINE
  5
D8
330
1F
100
AcDbEntity
  8
0
  6
HIDDEN
 62
     7
370
    18
100
AcDbLine
 10
453.2148936033
 20
335.6104409107
 30
0.0
 11
453.2148936033
 21
332.9975103126
 31
0.0
  0
ENDSEC
  0
SECTION
  2
OBJECTS
  0
DICTIONARY
  5
C
330
0
100
AcDbDictionary
281
     1
  3
ACAD_GROUP
350
D
  3
ACAD_LAYOUT
350
1A
  3
ACAD_MLINESTYLE
350
17
  3
ACAD_PLOTSETTINGS
350
19
  3
ACAD_PLOTSTYLENAME
350
E
  3
ACAD_SCALELIST
350
47
  3
DWGPROPS
350
D9
  0
DICTIONARY
  5
D
102
{ACAD_REACTORS
330
C
102
}
330
C
100
AcDbDictionary
281
     1
  0
DICTIONARY
  5
1A
102
{ACAD_REACTORS
330
C
102
}
330
C
100
AcDbDictionary
281
     1
  3
Layout1
350
1E
  3
Layout2
350
26
  3
Model
350
22
  0
DICTIONARY
  5
17
102
{ACAD_REACTORS
330
C
102
}
330
C
100
AcDbDictionary
281
     1
  3
Standard
350
18
  0
DICTIONARY
  5
19
102
{ACAD_REACTORS
330
C
102
}
330
C
100
AcDbDictionary
281
     1
  0
ACDBDICTIONARYWDFLT
  5
E
102
{ACAD_REACTORS
330
C
102
}
330
C
100
AcDbDictionary
281
     1
  3
Normal
350
F
100
AcDbDictionaryWithDefault
340
F
  0
DICTIONARY
  5
47
102
{ACAD_REACTORS
330
C
102
}
330
C
100
AcDbDictionary
281
     1
  3
A0
350
48
  3
A1
350
49
  3
A2
350
4A
  3
A3
350
4B
  3
A4
350
4C
  3
A5
350
4D
  3
A6
350
4E
  3
A7
350
4F
  3
A8
350
50
  3
A9
350
51
  3
B0
350
52
  3
B1
350
53
  3
B2
350
54
  3
B3
350
55
  3
B4
350
56
  3
B5
350
57
  3
B6
350
58
  0
XRECORD
  5
D9
102
{ACAD_REACTORS
330
C
102
}
330
C
100
AcDbXrecord
280
     1
  1
DWGPROPS COOKIE
  2

  3

  4

  6

  7

  8
imaizumi
  9

300
=
301
=
302
=
303
=
304
=
305
=
306
=
307
=
308
=
309
=
 40
0.0
 41
2461263.071156157
 42
2461263.071156528
  1

 90
        0
  0
LAYOUT
  5
1E
102
{ACAD_REACTORS
330
1A
102
}
330
1A
100
AcDbPlotSettings
  1

  2
none_device
  4

  6

 40
0.0
 41
0.0
 42
0.0
 43
0.0
 44
0.0
 45
0.0
 46
0.0
 47
0.0
 48
0.0
 49
0.0
140
0.0
141
0.0
142
1.0
143
1.0
 70
   688
 72
     1
 73
     0
 74
     5
  7

 75
    16
147
1.0
148
0.0
149
0.0
100
AcDbLayout
  1
Layout1
 70
     1
 71
     1
 10
0.0
 20
0.0
 11
420.0
 21
297.0
 12
0.0
 22
0.0
 32
0.0
 14
1.0000000000E+20
 24
1.0000000000E+20
 34
1.0000000000E+20
 15
-1.0000000000E+20
 25
-1.0000000000E+20
 35
-1.0000000000E+20
146
0.0
 13
0.0
 23
0.0
 33
0.0
 16
1.0
 26
0.0
 36
0.0
 17
0.0
 27
1.0
 37
0.0
 76
     0
330
1B
  0
LAYOUT
  5
26
102
{ACAD_REACTORS
330
1A
102
}
330
1A
100
AcDbPlotSettings
  1

  2
none_device
  4

  6

 40
0.0
 41
0.0
 42
0.0
 43
0.0
 44
0.0
 45
0.0
 46
0.0
 47
0.0
 48
0.0
 49
0.0
140
0.0
141
0.0
142
1.0
143
1.0
 70
   688
 72
     1
 73
     0
 74
     5
  7

 75
    16
147
1.0
148
0.0
149
0.0
100
AcDbLayout
  1
Layout2
 70
     1
 71
     2
 10
0.0
 20
0.0
 11
0.0
 21
0.0
 12
0.0
 22
0.0
 32
0.0
 14
0.0
 24
0.0
 34
0.0
 15
0.0
 25
0.0
 35
0.0
146
0.0
 13
0.0
 23
0.0
 33
0.0
 16
1.0
 26
0.0
 36
0.0
 17
0.0
 27
1.0
 37
0.0
 76
     0
330
23
  0
LAYOUT
  5
22
102
{ACAD_REACTORS
330
1A
102
}
330
1A
100
AcDbPlotSettings
  1

  2
none_device
  4
Letter_(8.50_x_11.00_Inches)
  6

 40
6.35
 41
6.35
 42
6.35000508
 43
6.35000508
 44
215.9
 45
279.4
 46
0.0
 47
0.0
 48
0.0
 49
0.0
140
0.0
141
0.0
142
1.0
143
1.0
 70
  1712
 72
     1
 73
     0
 74
     0
  7

 75
     0
147
1.0
148
0.0
149
0.0
100
AcDbLayout
  1
Model
 70
     1
 71
     0
 10
0.0
 20
0.0
 11
841.0
 21
594.0
 12
0.0
 22
0.0
 32
0.0
 14
0.0
 24
0.0
 34
0.0
 15
841.0
 25
594.0
 35
0.0
146
0.0
 13
0.0
 23
0.0
 33
0.0
 16
1.0
 26
0.0
 36
0.0
 17
0.0
 27
1.0
 37
0.0
 76
     0
330
1F
331
29
  0
MLINESTYLE
  5
18
102
{ACAD_REACTORS
330
17
102
}
330
17
100
AcDbMlineStyle
  2
Standard
 70
     0
  3

 62
   256
 51
90.0
 52
90.0
 71
     2
 49
0.5
 62
   256
  6
BYLAYER
 49
-0.5
 62
   256
  6
BYLAYER
  0
ACDBPLACEHOLDER
  5
F
102
{ACAD_REACTORS
330
E
102
}
330
E
  0
SCALE
  5
48
102
{ACAD_REACTORS
330
47
102
}
330
47
100
AcDbScale
 70
     0
300
1:1
140
1.0
141
1.0
290
     1
  0
SCALE
  5
49
102
{ACAD_REACTORS
330
47
102
}
330
47
100
AcDbScale
 70
     0
300
1:2
140
1.0
141
2.0
290
     0
  0
SCALE
  5
4A
102
{ACAD_REACTORS
330
47
102
}
330
47
100
AcDbScale
 70
     0
300
1:4
140
1.0
141
4.0
290
     0
  0
SCALE
  5
4B
102
{ACAD_REACTORS
330
47
102
}
330
47
100
AcDbScale
 70
     0
300
1:5
140
1.0
141
5.0
290
     0
  0
SCALE
  5
4C
102
{ACAD_REACTORS
330
47
102
}
330
47
100
AcDbScale
 70
     0
300
1:8
140
1.0
141
8.0
290
     0
  0
SCALE
  5
4D
102
{ACAD_REACTORS
330
47
102
}
330
47
100
AcDbScale
 70
     0
300
1:10
140
1.0
141
10.0
290
     0
  0
SCALE
  5
4E
102
{ACAD_REACTORS
330
47
102
}
330
47
100
AcDbScale
 70
     0
300
1:16
140
1.0
141
16.0
290
     0
  0
SCALE
  5
4F
102
{ACAD_REACTORS
330
47
102
}
330
47
100
AcDbScale
 70
     0
300
1:20
140
1.0
141
20.0
290
     0
  0
SCALE
  5
50
102
{ACAD_REACTORS
330
47
102
}
330
47
100
AcDbScale
 70
     0
300
1:30
140
1.0
141
30.0
290
     0
  0
SCALE
  5
51
102
{ACAD_REACTORS
330
47
102
}
330
47
100
AcDbScale
 70
     0
300
1:40
140
1.0
141
40.0
290
     0
  0
SCALE
  5
52
102
{ACAD_REACTORS
330
47
102
}
330
47
100
AcDbScale
 70
     0
300
1:50
140
1.0
141
50.0
290
     0
  0
SCALE
  5
53
102
{ACAD_REACTORS
330
47
102
}
330
47
100
AcDbScale
 70
     0
300
1:100
140
1.0
141
100.0
290
     0
  0
SCALE
  5
54
102
{ACAD_REACTORS
330
47
102
}
330
47
100
AcDbScale
 70
     0
300
2:1
140
2.0
141
1.0
290
     0
  0
SCALE
  5
55
102
{ACAD_REACTORS
330
47
102
}
330
47
100
AcDbScale
 70
     0
300
4:1
140
4.0
141
1.0
290
     0
  0
SCALE
  5
56
102
{ACAD_REACTORS
330
47
102
}
330
47
100
AcDbScale
 70
     0
300
8:1
140
8.0
141
1.0
290
     0
  0
SCALE
  5
57
102
{ACAD_REACTORS
330
47
102
}
330
47
100
AcDbScale
 70
     0
300
10:1
140
10.0
141
1.0
290
     0
  0
SCALE
  5
58
102
{ACAD_REACTORS
330
47
102
}
330
47
100
AcDbScale
 70
     0
300
100:1
140
100.0
141
1.0
290
     0
  0
ENDSEC
  0
EOF
