  0
SECTION
  2
HEADER
  9
$ACADVER
  1
AC1015
  9
$ACADMAINTVER
 70
     6
  9
$DWGCODEPAGE
  3
DOS932
  9
$INSBASE
 10
0.0
 20
0.0
 30
0.0
  9
$EXTMIN
 10
0.0
 20
0.0
 30
0.0
  9
$EXTMAX
 10
841.0
 20
594.0
 30
0.0
  9
$LIMMIN
 10
0.0
 20
0.0
  9
$LIMMAX
 10
841.0
 20
594.0
  9
$ORTHOMODE
 70
     0
  9
$REGENMODE
 70
     1
  9
$FILLMODE
 70
     1
  9
$QTEXTMODE
 70
     0
  9
$MIRRTEXT
 70
     1
  9
$LTSCALE
 40
1.0
  9
$ATTMODE
 70
     1
  9
$TEXTSIZE
 40
3.5
  9
$TRACEWID
 40
1.0
  9
$TEXTSTYLE
  7
Standard
  9
$CLAYER
  8
0
  9
$CELTYPE
  6
ByLayer
  9
$CECOLOR
 62
   256
  9
$CELTSCALE
 40
1.0
  9
$DISPSILH
 70
     0
  9
$DIMSCALE
 40
1.0
  9
$DIMASZ
 40
3.302
  9
$DIMEXO
 40
1.0
  9
$DIMDLI
 40
3.75
  9
$DIMRND
 40
0.0
  9
$DIMDLE
 40
0.0
  9
$DIMEXE
 40
1.0
  9
$DIMTP
 40
0.0
  9
$DIMTM
 40
0.0
  9
$DIMTXT
 40
3.5
  9
$DIMCEN
 40
2.5
  9
$DIMTSZ
 40
0.0
  9
$DIMTOL
 70
     0
  9
$DIMLIM
 70
     0
  9
$DIMTIH
 70
     1
  9
$DIMTOH
 70
     1
  9
$DIMSE1
 70
     0
  9
$DIMSE2
 70
     0
  9
$DIMTAD
 70
     1
  9
$DIMZIN
 70
     1
  9
$DIMBLK
  1

  9
$DIMASO
 70
     1
  9
$DIMSHO
 70
     1
  9
$DIMPOST
  1

  9
$DIMAPOST
  1

  9
$DIMALT
 70
     0
  9
$DIMALTD
 70
     3
  9
$DIMALTF
 40
0.0393700787
  9
$DIMLFAC
 40
0.2
  9
$DIMTOFL
 70
     1
  9
$DIMTVP
 40
0.0
  9
$DIMTIX
 70
     0
  9
$DIMSOXD
 70
     0
  9
$DIMSAH
 70
     0
  9
$DIMBLK1
  1

  9
$DIMBLK2
  1

  9
$DIMSTYLE
  2
ISO-25
  9
$DIMCLRD
 70
     0
  9
$DIMCLRE
 70
     0
  9
$DIMCLRT
 70
     0
  9
$DIMTFAC
 40
1.0
  9
$DIMGAP
 40
1.524
  9
$DIMJUST
 70
     0
  9
$DIMSD1
 70
     0
  9
$DIMSD2
 70
     0
  9
$DIMTOLJ
 70
     0
  9
$DIMTZIN
 70
     1
  9
$DIMALTZ
 70
     0
  9
$DIMALTTZ
 70
     0
  9
$DIMUPT
 70
     0
  9
$DIMDEC
 70
     2
  9
$DIMTDEC
 70
     2
  9
$DIMALTU
 70
     2
  9
$DIMALTTD
 70
     3
  9
$DIMTXSTY
  7
Standard
  9
$DIMAUNIT
 70
     0
  9
$DIMADEC
 70
     2
  9
$DIMALTRND
 40
0.0
  9
$DIMAZIN
 70
     0
  9
$DIMDSEP
 70
    44
  9
$DIMATFIT
 70
     3
  9
$DIMFRAC
 70
     0
  9
$DIMLDRBLK
  1

  9
$DIMLUNIT
 70
     2
  9
$DIMLWD
 70
    -2
  9
$DIMLWE
 70
    -2
  9
$DIMTMOVE
 70
     0
  9
$LUNITS
 70
     2
  9
$LUPREC
 70
     2
  9
$SKETCHINC
 40
1.0
  9
$FILLETRAD
 40
0.0
  9
$AUNITS
 70
     0
  9
$AUPREC
 70
     2
  9
$MENU
  1
.
  9
$ELEVATION
 40
0.0
  9
$PELEVATION
 40
0.0
  9
$THICKNESS
 40
0.0
  9
$LIMCHECK
 70
     0
  9
$CHAMFERA
 40
0.0
  9
$CHAMFERB
 40
0.0
  9
$CHAMFERC
 40
0.0
  9
$CHAMFERD
 40
0.0
  9
$SKPOLY
 70
     0
  9
$TDCREATE
 40
2461263.415659873
  9
$TDUCREATE
 40
2461263.040659873
  9
$TDUPDATE
 40
2461263.415660486
  9
$TDUUPDATE
 40
2461263.040660486
  9
$TDINDWG
 40
0.0000000116
  9
$TDUSRTIMER
 40
0.0000000116
  9
$USRTIMER
 70
     1
  9
$ANGBASE
 50
0.0
  9
$ANGDIR
 70
     0
  9
$PDMODE
 70
     0
  9
$PDSIZE
 40
-1.0
  9
$PLINEWID
 40
0.0
  9
$SPLFRAME
 70
     0
  9
$SPLINETYPE
 70
     6
  9
$SPLINESEGS
 70
     8
  9
$HANDSEED
  5
B4
  9
$SURFTAB1
 70
     6
  9
$SURFTAB2
 70
     6
  9
$SURFTYPE
 70
     6
  9
$SURFU
 70
     6
  9
$SURFV
 70
     6
  9
$UCSBASE
  2

  9
$UCSNAME
  2

  9
$UCSORG
 10
0.0
 20
0.0
 30
0.0
  9
$UCSXDIR
 10
1.0
 20
0.0
 30
0.0
  9
$UCSYDIR
 10
0.0
 20
1.0
 30
0.0
  9
$UCSORTHOREF
  2

  9
$UCSORTHOVIEW
 70
     0
  9
$UCSORGTOP
 10
0.0
 20
0.0
 30
0.0
  9
$UCSORGBOTTOM
 10
0.0
 20
0.0
 30
0.0
  9
$UCSORGLEFT
 10
0.0
 20
0.0
 30
0.0
  9
$UCSORGRIGHT
 10
0.0
 20
0.0
 30
0.0
  9
$UCSORGFRONT
 10
0.0
 20
0.0
 30
0.0
  9
$UCSORGBACK
 10
0.0
 20
0.0
 30
0.0
  9
$PUCSBASE
  2

  9
$PUCSNAME
  2

  9
$PUCSORG
 10
0.0
 20
0.0
 30
0.0
  9
$PUCSXDIR
 10
1.0
 20
0.0
 30
0.0
  9
$PUCSYDIR
 10
0.0
 20
1.0
 30
0.0
  9
$PUCSORTHOREF
  2

  9
$PUCSORTHOVIEW
 70
     0
  9
$PUCSORGTOP
 10
0.0
 20
0.0
 30
0.0
  9
$PUCSORGBOTTOM
 10
0.0
 20
0.0
 30
0.0
  9
$PUCSORGLEFT
 10
0.0
 20
0.0
 30
0.0
  9
$PUCSORGRIGHT
 10
0.0
 20
0.0
 30
0.0
  9
$PUCSORGFRONT
 10
0.0
 20
0.0
 30
0.0
  9
$PUCSORGBACK
 10
0.0
 20
0.0
 30
0.0
  9
$USERI1
 70
     0
  9
$USERI2
 70
     0
  9
$USERI3
 70
     0
  9
$USERI4
 70
     0
  9
$USERI5
 70
     0
  9
$USERR1
 40
0.0
  9
$USERR2
 40
0.0
  9
$USERR3
 40
0.0
  9
$USERR4
 40
0.0
  9
$USERR5
 40
0.0
  9
$WORLDVIEW
 70
     1
  9
$SHADEDGE
 70
     3
  9
$SHADEDIF
 70
    70
  9
$TILEMODE
 70
     1
  9
$MAXACTVP
 70
    64
  9
$PINSBASE
 10
0.0
 20
0.0
 30
0.0
  9
$PLIMCHECK
 70
     0
  9
$PEXTMIN
 10
1.0000000000E+20
 20
1.0000000000E+20
 30
1.0000000000E+20
  9
$PEXTMAX
 10
-1.0000000000E+20
 20
-1.0000000000E+20
 30
-1.0000000000E+20
  9
$PLIMMIN
 10
0.0
 20
0.0
  9
$PLIMMAX
 10
420.0
 20
297.0
  9
$UNITMODE
 70
     0
  9
$VISRETAIN
 70
     1
  9
$PLINEGEN
 70
     0
  9
$PSLTSCALE
 70
     1
  9
$TREEDEPTH
 70
  3020
  9
$CMLSTYLE
  2
Standard
  9
$CMLJUST
 70
     0
  9
$CMLSCALE
 40
20.0
  9
$PROXYGRAPHICS
 70
     1
  9
$MEASUREMENT
 70
     1
  9
$CELWEIGHT
370
    -1
  9
$ENDCAPS
280
     0
  9
$JOINSTYLE
280
     0
  9
$LWDISPLAY
290
     1
  9
$INSUNITS
 70
     4
  9
$HYPERLINKBASE
  1

  9
$STYLESHEET
  1

  9
$XEDIT
290
     1
  9
$CEPSNTYPE
380
     0
  9
$PSTYLEMODE
290
     1
  9
$FINGERPRINTGUID
  2
{3fcbe477-a701-415a-be14-c947c5c781d6}
  9
$VERSIONGUID
  2
{FAEB1C32-E019-11D5-929B-00C0DF256EC4}
  9
$EXTNAMES
290
     1
  9
$PSVPSCALE
 40
0.0
  9
$OLESTARTUP
290
     0
  0
ENDSEC
  0
SECTION
  2
CLASSES
  0
CLASS
  1
ACDBDICTIONARYWDFLT
  2
AcDbDictionaryWithDefault
  3
ObjectDBX Classes
 90
        0
280
     0
281
     0
  0
CLASS
  1
VISUALSTYLE
  2
AcDbVisualStyle
  3
ObjectDBX Classes
 90
     4095
280
     0
281
     0
  0
CLASS
  1
MATERIAL
  2
AcDbMaterial
  3
ObjectDBX Classes
 90
     1153
280
     0
281
     0
  0
CLASS
  1
SCALE
  2
AcDbScale
  3
ObjectDBX Classes
 90
     1153
280
     0
281
     0
  0
CLASS
  1
TABLESTYLE
  2
AcDbTableStyle
  3
ObjectDBX Classes
 90
     4095
280
     0
281
     0
  0
CLASS
  1
MLEADERSTYLE
  2
AcDbMLeaderStyle
  3
ACDB_MLEADERSTYLE_CLASS
 90
     4095
280
     0
281
     0
  0
CLASS
  1
SUN
  2
AcDbSun
  3
SCENEOE
 90
     1153
280
     0
281
     0
  0
CLASS
  1
ACDBPLACEHOLDER
  2
AcDbPlaceHolder
  3
ObjectDBX Classes
 90
        0
280
     0
281
     0
  0
CLASS
  1
LAYOUT
  2
AcDbLayout
  3
ObjectDBX Classes
 90
        0
280
     0
281
     0
  0
ENDSEC
  0
SECTION
  2
TABLES
  0
TABLE
  2
VPORT
  5
8
330
0
100
AcDbSymbolTable
 70
     1
  0
VPORT
  5
29
330
8
100
AcDbSymbolTableRecord
100
AcDbViewportTableRecord
  2
*Active
 70
     0
 10
0.0
 20
0.0
 11
1.0
 21
1.0
 12
420.5
 22
297.0
 13
0.0
 23
0.0
 14
10.0
 24
10.0
 15
10.0
 25
10.0
 16
0.0
 26
0.0
 36
1.0
 17
0.0
 27
0.0
 37
0.0
 40
594.0
 41
1.4158249158
 42
50.0
 43
0.0
 44
0.0
 50
0.0
 51
0.0
 71
     0
 72
  2000
 73
     1
 74
     3
 75
     0
 76
     0
 77
     0
 78
     0
281
     0
 65
     1
110
0.0
120
0.0
130
0.0
111
1.0
121
0.0
131
0.0
112
0.0
122
1.0
132
0.0
 79
     0
146
0.0
  0
ENDTAB
  0
TABLE
  2
LTYPE
  5
5
330
0
100
AcDbSymbolTable
 70
     6
  0
LTYPE
  5
14
330
5
100
AcDbSymbolTableRecord
100
AcDbLinetypeTableRecord
  2
ByBlock
 70
     0
  3

 72
    65
 73
     0
 40
0.0
  0
LTYPE
  5
15
330
5
100
AcDbSymbolTableRecord
100
AcDbLinetypeTableRecord
  2
ByLayer
 70
     0
  3

 72
    65
 73
     0
 40
0.0
  0
LTYPE
  5
16
330
5
100
AcDbSymbolTableRecord
100
AcDbLinetypeTableRecord
  2
Continuous
 70
     0
  3
Solid line
 72
    65
 73
     0
 40
0.0
  0
LTYPE
  5
5E
330
5
100
AcDbSymbolTableRecord
100
AcDbLinetypeTableRecord
  2
HIDDEN
 70
     0
  3
Hidden __ __ __ __ __ __ __ __ __ __ __ __ __ __
 72
    65
 73
     2
 40
1.905
 49
1.27
 74
     0
 49
-0.635
 74
     0
  0
LTYPE
  5
5F
330
5
100
AcDbSymbolTableRecord
100
AcDbLinetypeTableRecord
  2
PHANTOM
 70
     0
  3
Phantom ______  __  __  ______  __  __  ______
 72
    65
 73
     6
 40
12.7
 49
6.35
 74
     0
 49
-1.27
 74
     0
 49
1.27
 74
     0
 49
-1.27
 74
     0
 49
1.27
 74
     0
 49
-1.27
 74
     0
  0
LTYPE
  5
60
330
5
100
AcDbSymbolTableRecord
100
AcDbLinetypeTableRecord
  2
CENTER
 70
     0
  3
Center ____ _ ____ _ ____ _ ____ _ ____ _ ____
 72
    65
 73
     4
 40
10.16
 49
6.35
 74
     0
 49
-1.27
 74
     0
 49
1.27
 74
     0
 49
-1.27
 74
     0
  0
LTYPE
  5
61
330
5
100
AcDbSymbolTableRecord
100
AcDbLinetypeTableRecord
  2
CENTERX2
 70
     0
  3
Center (2x) ________  __  ________  __  _____
 72
    65
 73
     4
 40
20.32
 49
12.7
 74
     0
 49
-2.54
 74
     0
 49
2.54
 74
     0
 49
-2.54
 74
     0
  0
LTYPE
  5
62
330
5
100
AcDbSymbolTableRecord
100
AcDbLinetypeTableRecord
  2
DOT2
 70
     0
  3
Dot (.5x) ........................................
 72
    65
 73
     2
 40
0.635
 49
0.0
 74
     0
 49
-0.635
 74
     0
  0
ENDTAB
  0
TABLE
  2
LAYER
  5
2
330
0
100
AcDbSymbolTable
 70
     1
  0
LAYER
  5
10
330
2
100
AcDbSymbolTableRecord
100
AcDbLayerTableRecord
  2
0
 70
     0
 62
     7
  6
Continuous
370
    -3
390
F
  0
ENDTAB
  0
TABLE
  2
STYLE
  5
3
330
0
100
AcDbSymbolTable
 70
     1
  0
STYLE
  5
11
330
3
100
AcDbSymbolTableRecord
100
AcDbTextStyleTableRecord
  2
Standard
 70
     0
 40
0.0
 41
1.0
 50
0.0
 71
     0
 42
3.5
  3
txt
  4
bigfont
  0
ENDTAB
  0
TABLE
  2
VIEW
  5
6
330
0
100
AcDbSymbolTable
 70
     0
  0
ENDTAB
  0
TABLE
  2
UCS
  5
7
330
0
100
AcDbSymbolTable
 70
     0
  0
ENDTAB
  0
TABLE
  2
APPID
  5
9
330
0
100
AcDbSymbolTable
 70
     1
  0
APPID
  5
12
330
9
100
AcDbSymbolTableRecord
100
AcDbRegAppTableRecord
  2
ACAD
 70
     0
  0
ENDTAB
  0
TABLE
  2
DIMSTYLE
  5
A
330
0
100
AcDbSymbolTable
 70
     1
100
AcDbDimStyleTable
  0
DIMSTYLE
105
27
330
A
100
AcDbSymbolTableRecord
100
AcDbDimStyleTableRecord
  2
ISO-25
 70
     0
 41
2.5
 42
0.625
 43
3.75
 44
1.25
 73
     0
 74
     0
 77
     1
 78
     8
140
2.5
141
2.5
143
0.0393700787
147
0.625
171
     3
172
     1
178
     0
271
     2
272
     2
274
     3
278
    44
283
     0
284
     8
340
11
  0
ENDTAB
  0
TABLE
  2
BLOCK_RECORD
  5
1
330
0
100
AcDbSymbolTable
 70
     1
  0
BLOCK_RECORD
  5
1F
330
1
100
AcDbSymbolTableRecord
100
AcDbBlockTableRecord
  2
*Model_Space
340
22
  0
BLOCK_RECORD
  5
1B
330
1
100
AcDbSymbolTableRecord
100
AcDbBlockTableRecord
  2
*Paper_Space
340
1E
  0
BLOCK_RECORD
  5
23
330
1
100
AcDbSymbolTableRecord
100
AcDbBlockTableRecord
  2
*Paper_Space0
340
26
  0
ENDTAB
  0
ENDSEC
  0
SECTION
  2
BLOCKS
  0
BLOCK
  5
20
330
1F
100
AcDbEntity
  8
0
100
AcDbBlockBegin
  2
*Model_Space
 70
     0
 10
0.0
 20
0.0
 30
0.0
  3
*Model_Space
  1

  0
ENDBLK
  5
21
330
1F
100
AcDbEntity
  8
0
100
AcDbBlockEnd
  0
BLOCK
  5
1C
330
1B
100
AcDbEntity
 67
     1
  8
0
100
AcDbBlockBegin
  2
*Paper_Space
 70
     0
 10
0.0
 20
0.0
 30
0.0
  3
*Paper_Space
  1

  0
ENDBLK
  5
1D
330
1B
100
AcDbEntity
 67
     1
  8
0
100
AcDbBlockEnd
  0
BLOCK
  5
24
330
23
100
AcDbEntity
  8
0
100
AcDbBlockBegin
  2
*Paper_Space0
 70
     0
 10
0.0
 20
0.0
 30
0.0
  3
*Paper_Space0
  1

  0
ENDBLK
  5
25
330
23
100
AcDbEntity
  8
0
100
AcDbBlockEnd
  0
ENDSEC
  0
SECTION
  2
ENTITIES
  0
LINE
  5
63
330
1F
100
AcDbEntity
  8
0
  6
Continuous
 62
     7
370
    25
100
AcDbLine
 10
348.6390296114
 20
257.6789345294
 30
0.0
 11
360.6390296114
 21
257.6789345294
 31
0.0
  0
LINE
  5
64
330
1F
100
AcDbEntity
  8
0
  6
Continuous
 62
     7
370
    25
100
AcDbLine
 10
365.6390296114
 20
262.6789345294
 30
0.0
 11
348.6390296114
 21
263.6789345294
 31
0.0
  0
LINE
  5
65
330
1F
100
AcDbEntity
  8
0
  6
Continuous
 62
     7
370
    25
100
AcDbLine
 10
370.6390296114
 20
257.6789345294
 30
0.0
 11
382.6390296114
 21
257.6789345294
 31
0.0
  0
LINE
  5
66
330
1F
100
AcDbEntity
  8
0
  6
Continuous
 62
     7
370
    25
100
AcDbLine
 10
370.6390296114
 20
232.6789345294
 30
0.0
 11
370.6390296114
 21
257.6789345294
 31
0.0
  0
LINE
  5
67
330
1F
100
AcDbEntity
  8
0
  6
Continuous
 62
     7
370
    25
100
AcDbLine
 10
360.6390296114
 20
232.6789345294
 30
0.0
 11
370.6390296114
 21
232.6789345294
 31
0.0
  0
LINE
  5
68
330
1F
100
AcDbEntity
  8
0
  6
Continuous
 62
     7
370
    25
100
AcDbLine
 10
360.6390296114
 20
257.6789345294
 30
0.0
 11
360.6390296114
 21
232.6789345294
 31
0.0
  0
LINE
  5
69
330
1F
100
AcDbEntity
  8
0
  6
Continuous
 62
     7
370
    25
100
AcDbLine
 10
348.6390296114
 20
263.6789345294
 30
0.0
 11
348.6390296114
 21
257.6789345294
 31
0.0
  0
LINE
  5
6A
330
1F
100
AcDbEntity
  8
0
  6
Continuous
 62
     7
370
    25
100
AcDbLine
 10
382.6390296114
 20
257.6789345294
 30
0.0
 11
382.6390296114
 21
263.6789345294
 31
0.0
  0
LINE
  5
6B
330
1F
100
AcDbEntity
  8
0
  6
Continuous
 62
     7
370
    25
100
AcDbLine
 10
382.6390296114
 20
263.6789345294
 30
0.0
 11
365.6390296114
 21
262.6789345294
 31
0.0
  0
LINE
  5
6C
330
1F
100
AcDbEntity
  8
0
  6
HIDDEN
 62
     7
370
    18
100
AcDbLine
 10
379.1390296114
 20
263.4730521765
 30
0.0
 11
379.1390296114
 21
257.6789345294
 31
0.0
  0
LINE
  5
6D
330
1F
100
AcDbEntity
  8
0
  6
HIDDEN
 62
     7
370
    18
100
AcDbLine
 10
374.1390296114
 20
263.1789345294
 30
0.0
 11
374.1390296114
 21
257.6789345294
 31
0.0
  0
LINE
  5
6E
330
1F
100
AcDbEntity
  8
0
  6
HIDDEN
 62
     7
370
    18
100
AcDbLine
 10
357.1390296114
 20
263.1789345294
 30
0.0
 11
357.1390296114
 21
257.6789345294
 31
0.0
  0
LINE
  5
6F
330
1F
100
AcDbEntity
  8
0
  6
HIDDEN
 62
     7
370
    18
100
AcDbLine
 10
352.1390296114
 20
263.4730521765
 30
0.0
 11
352.1390296114
 21
257.6789345294
 31
0.0
  0
LINE
  5
70
330
1F
100
AcDbEntity
  8
0
  6
Continuous
 62
     7
370
    25
100
AcDbLine
 10
382.6390296114
 20
339.88
 30
0.0
 11
382.6390296114
 21
348.88
 31
0.0
  0
LINE
  5
71
330
1F
100
AcDbEntity
  8
0
  6
Continuous
 62
     7
370
    25
100
AcDbLine
 10
382.6390296114
 20
339.88
 30
0.0
 11
365.6390296114
 21
339.88
 31
0.0
  0
LINE
  5
72
330
1F
100
AcDbEntity
  8
0
  6
Continuous
 62
     7
370
    25
100
AcDbLine
 10
365.6390296114
 20
339.88
 30
0.0
 11
365.6390296114
 21
348.88
 31
0.0
  0
LINE
  5
73
330
1F
100
AcDbEntity
  8
0
  6
Continuous
 62
     7
370
    25
100
AcDbLine
 10
382.6390296114
 20
348.88
 30
0.0
 11
365.6390296114
 21
348.88
 31
0.0
  0
SPLINE
  5
74
330
1F
100
AcDbEntity
  8
0
  6
Continuous
 62
     7
370
    25
100
AcDbSpline
210
0.0
220
0.0
230
1.0
 70
     8
 71
     3
 72
    26
 73
    22
 74
     0
 42
0.00000001
 43
0.00000001
 40
0.0
 40
0.0
 40
0.0
 40
0.0
 40
0.1250000000000002
 40
0.1250000000000002
 40
0.2500000000000003
 40
0.2500000000000003
 40
0.3750000000000005
 40
0.3750000000000005
 40
0.4375000000000002
 40
0.4375000000000002
 40
0.5
 40
0.5
 40
0.5624999999999998
 40
0.5624999999999998
 40
0.6249999999999994
 40
0.6249999999999994
 40
0.7499999999999997
 40
0.7499999999999997
 40
0.8749999999999998
 40
0.8749999999999998
 40
1.0
 40
1.0
 40
1.0
 40
1.0
 10
374.1390296114373
 20
344.3800000000001
 30
0.0
 10
374.1390296114373
 20
344.1716666666667
 30
0.0
 10
374.1643629447706
 20
343.9360000000001
 30
0.0
 10
374.313696278104
 20
343.424
 30
0.0
 10
374.4390296114373
 20
343.1466666666668
 30
0.0
 10
374.8390296114373
 20
342.6133333333335
 30
0.0
 10
375.1165382619564
 20
342.3586620530566
 30
0.0
 10
375.6355694038248
 20
342.08184544406
 30
0.0
 10
375.8248284280053
 20
342.0074161735701
 30
0.0
 10
376.2224615641
 20
341.9064299802762
 30
0.0
 10
376.4306962781039
 20
341.8800000000001
 30
0.0
 10
376.8473629447706
 20
341.8800000000001
 30
0.0
 10
377.0555976587746
 20
341.9064299802762
 30
0.0
 10
377.4532307948692
 20
342.0074161735701
 30
0.0
 10
377.6424898190497
 20
342.08184544406
 30
0.0
 10
378.1615209609183
 20
342.3586620530566
 30
0.0
 10
378.4390296114373
 20
342.6133333333335
 30
0.0
 10
378.8390296114373
 20
343.1466666666668
 30
0.0
 10
378.9643629447706
 20
343.424
 30
0.0
 10
379.113696278104
 20
343.9360000000001
 30
0.0
 10
379.1390296114373
 20
344.1716666666667
 30
0.0
 10
379.1390296114373
 20
344.3800000000001
 30
0.0
  0
SPLINE
  5
75
330
1F
100
AcDbEntity
  8
0
  6
Continuous
 62
     7
370
    25
100
AcDbSpline
210
0.0
220
0.0
230
1.0
 70
     8
 71
     3
 72
    26
 73
    22
 74
     0
 42
0.00000001
 43
0.00000001
 40
0.0
 40
0.0
 40
0.0
 40
0.0
 40
0.1250000000000001
 40
0.1250000000000001
 40
0.2500000000000003
 40
0.2500000000000003
 40
0.3750000000000004
 40
0.3750000000000004
 40
0.4375000000000003
 40
0.4375000000000003
 40
0.5000000000000001
 40
0.5000000000000001
 40
0.5625
 40
0.5625
 40
0.6249999999999998
 40
0.6249999999999998
 40
0.7499999999999999
 40
0.7499999999999999
 40
0.8750000000000001
 40
0.8750000000000001
 40
1.0
 40
1.0
 40
1.0
 40
1.0
 10
379.1390296114373
 20
344.3800000000001
 30
0.0
 10
379.1390296114373
 20
344.5883333333334
 30
0.0
 10
379.113696278104
 20
344.8240000000001
 30
0.0
 10
378.9643629447706
 20
345.3360000000001
 30
0.0
 10
378.8390296114373
 20
345.6133333333334
 30
0.0
 10
378.4390296114373
 20
346.1466666666667
 30
0.0
 10
378.1615209609183
 20
346.4013379469436
 30
0.0
 10
377.6424898190497
 20
346.6781545559401
 30
0.0
 10
377.4532307948692
 20
346.7525838264301
 30
0.0
 10
377.0555976587746
 20
346.8535700197239
 30
0.0
 10
376.8473629447706
 20
346.8800000000001
 30
0.0
 10
376.4306962781039
 20
346.8800000000001
 30
0.0
 10
376.2224615641
 20
346.8535700197239
 30
0.0
 10
375.8248284280053
 20
346.7525838264301
 30
0.0
 10
375.6355694038248
 20
346.6781545559401
 30
0.0
 10
375.1165382619564
 20
346.4013379469436
 30
0.0
 10
374.8390296114373
 20
346.1466666666667
 30
0.0
 10
374.4390296114373
 20
345.6133333333334
 30
0.0
 10
374.313696278104
 20
345.3360000000001
 30
0.0
 10
374.1643629447706
 20
344.8240000000001
 30
0.0
 10
374.1390296114373
 20
344.5883333333334
 30
0.0
 10
374.1390296114373
 20
344.3800000000001
 30
0.0
  0
LINE
  5
76
330
1F
100
AcDbEntity
  8
0
  6
Continuous
 62
     7
370
    25
100
AcDbLine
 10
348.6390296114
 20
339.88
 30
0.0
 11
348.6390296114
 21
348.88
 31
0.0
  0
SPLINE
  5
77
330
1F
100
AcDbEntity
  8
0
  6
Continuous
 62
     7
370
    25
100
AcDbSpline
210
0.0
220
0.0
230
1.0
 70
     8
 71
     3
 72
    26
 73
    22
 74
     0
 42
0.00000001
 43
0.00000001
 40
0.0
 40
0.0
 40
0.0
 40
0.0
 40
0.1250000000000002
 40
0.1250000000000002
 40
0.2500000000000005
 40
0.2500000000000005
 40
0.3750000000000008
 40
0.3750000000000008
 40
0.4375000000000006
 40
0.4375000000000006
 40
0.5000000000000003
 40
0.5000000000000003
 40
0.5625000000000001
 40
0.5625000000000001
 40
0.6249999999999999
 40
0.6249999999999999
 40
0.7499999999999999
 40
0.7499999999999999
 40
0.875
 40
0.875
 40
1.0
 40
1.0
 40
1.0
 40
1.0
 10
352.1390296114373
 20
344.3800000000001
 30
0.0
 10
352.1390296114373
 20
344.1716666666667
 30
0.0
 10
352.1643629447706
 20
343.9360000000001
 30
0.0
 10
352.3136962781039
 20
343.424
 30
0.0
 10
352.4390296114373
 20
343.1466666666668
 30
0.0
 10
352.8390296114373
 20
342.6133333333335
 30
0.0
 10
353.1165382619564
 20
342.3586620530566
 30
0.0
 10
353.6355694038248
 20
342.08184544406
 30
0.0
 10
353.8248284280053
 20
342.0074161735701
 30
0.0
 10
354.2224615641001
 20
341.9064299802762
 30
0.0
 10
354.430696278104
 20
341.8800000000001
 30
0.0
 10
354.8473629447706
 20
341.8800000000001
 30
0.0
 10
355.0555976587746
 20
341.9064299802762
 30
0.0
 10
355.4532307948692
 20
342.0074161735701
 30
0.0
 10
355.6424898190498
 20
342.08184544406
 30
0.0
 10
356.1615209609183
 20
342.3586620530566
 30
0.0
 10
356.4390296114373
 20
342.6133333333335
 30
0.0
 10
356.8390296114373
 20
343.1466666666668
 30
0.0
 10
356.9643629447706
 20
343.424
 30
0.0
 10
357.113696278104
 20
343.9360000000001
 30
0.0
 10
357.1390296114373
 20
344.1716666666667
 30
0.0
 10
357.1390296114373
 20
344.3800000000001
 30
0.0
  0
SPLINE
  5
78
330
1F
100
AcDbEntity
  8
0
  6
Continuous
 62
     7
370
    25
100
AcDbSpline
210
0.0
220
0.0
230
1.0
 70
     8
 71
     3
 72
    26
 73
    22
 74
     0
 42
0.00000001
 43
0.00000001
 40
0.0
 40
0.0
 40
0.0
 40
0.0
 40
0.1250000000000001
 40
0.1250000000000001
 40
0.2500000000000003
 40
0.2500000000000003
 40
0.3750000000000004
 40
0.3750000000000004
 40
0.4375000000000003
 40
0.4375000000000003
 40
0.5000000000000001
 40
0.5000000000000001
 40
0.5625
 40
0.5625
 40
0.6249999999999998
 40
0.6249999999999998
 40
0.7499999999999999
 40
0.7499999999999999
 40
0.8750000000000001
 40
0.8750000000000001
 40
1.0
 40
1.0
 40
1.0
 40
1.0
 10
357.1390296114373
 20
344.3800000000001
 30
0.0
 10
357.1390296114373
 20
344.5883333333334
 30
0.0
 10
357.113696278104
 20
344.8240000000001
 30
0.0
 10
356.9643629447706
 20
345.3360000000001
 30
0.0
 10
356.8390296114372
 20
345.6133333333334
 30
0.0
 10
356.4390296114373
 20
346.1466666666667
 30
0.0
 10
356.1615209609183
 20
346.4013379469436
 30
0.0
 10
355.6424898190498
 20
346.6781545559401
 30
0.0
 10
355.4532307948692
 20
346.7525838264301
 30
0.0
 10
355.0555976587746
 20
346.8535700197239
 30
0.0
 10
354.8473629447706
 20
346.8800000000001
 30
0.0
 10
354.430696278104
 20
346.8800000000001
 30
0.0
 10
354.2224615641001
 20
346.8535700197239
 30
0.0
 10
353.8248284280053
 20
346.7525838264301
 30
0.0
 10
353.6355694038248
 20
346.6781545559401
 30
0.0
 10
353.1165382619564
 20
346.4013379469436
 30
0.0
 10
352.8390296114373
 20
346.1466666666667
 30
0.0
 10
352.4390296114373
 20
345.6133333333334
 30
0.0
 10
352.3136962781039
 20
345.3360000000001
 30
0.0
 10
352.1643629447706
 20
344.8240000000001
 30
0.0
 10
352.1390296114373
 20
344.5883333333334
 30
0.0
 10
352.1390296114373
 20
344.3800000000001
 30
0.0
  0
LINE
  5
79
330
1F
100
AcDbEntity
  8
0
  6
Continuous
 62
     7
370
    25
100
AcDbLine
 10
365.6390296114
 20
339.88
 30
0.0
 11
348.6390296114
 21
339.88
 31
0.0
  0
LINE
  5
7A
330
1F
100
AcDbEntity
  8
0
  6
Continuous
 62
     7
370
    25
100
AcDbLine
 10
365.6390296114
 20
348.88
 30
0.0
 11
348.6390296114
 21
348.88
 31
0.0
  0
LINE
  5
7B
330
1F
100
AcDbEntity
  8
0
  6
HIDDEN
 62
     7
370
    18
100
AcDbLine
 10
370.6390296114
 20
339.88
 30
0.0
 11
370.6390296114
 21
348.88
 31
0.0
  0
LINE
  5
7C
330
1F
100
AcDbEntity
  8
0
  6
HIDDEN
 62
     7
370
    18
100
AcDbLine
 10
360.6390296114
 20
339.88
 30
0.0
 11
360.6390296114
 21
348.88
 31
0.0
  0
LINE
  5
7D
330
1F
100
AcDbEntity
  8
0
  6
Continuous
 62
     7
370
    25
100
AcDbLine
 10
464.88
 20
257.6789345294
 30
0.0
 11
473.88
 21
257.6789345294
 31
0.0
  0
LINE
  5
7E
330
1F
100
AcDbEntity
  8
0
  6
Continuous
 62
     7
370
    25
100
AcDbLine
 10
464.88
 20
257.6789345294
 30
0.0
 11
464.88
 21
263.6789345294
 31
0.0
  0
LINE
  5
7F
330
1F
100
AcDbEntity
  8
0
  6
Continuous
 62
     7
370
    25
100
AcDbLine
 10
473.88
 20
257.6789345294
 30
0.0
 11
473.88
 21
263.6789345294
 31
0.0
  0
LINE
  5
80
330
1F
100
AcDbEntity
  8
0
  6
Continuous
 62
     7
370
    25
100
AcDbLine
 10
464.88
 20
263.6789345294
 30
0.0
 11
473.88
 21
263.6789345294
 31
0.0
  0
LINE
  5
81
330
1F
100
AcDbEntity
  8
0
  6
Continuous
 62
     7
370
    25
100
AcDbLine
 10
464.88
 20
232.6789345294
 30
0.0
 11
473.88
 21
232.6789345294
 31
0.0
  0
LINE
  5
82
330
1F
100
AcDbEntity
  8
0
  6
Continuous
 62
     7
370
    25
100
AcDbLine
 10
464.88
 20
232.6789345294
 30
0.0
 11
464.88
 21
257.6789345294
 31
0.0
  0
LINE
  5
83
330
1F
100
AcDbEntity
  8
0
  6
Continuous
 62
     7
370
    25
100
AcDbLine
 10
473.88
 20
232.6789345294
 30
0.0
 11
473.88
 21
257.6789345294
 31
0.0
  0
SPLINE
  5
84
330
1F
100
AcDbEntity
  8
0
  6
HIDDEN
 62
     7
370
    18
100
AcDbSpline
210
0.0
220
0.0
230
1.0
 70
     8
 71
     3
 72
    26
 73
    22
 74
     0
 42
0.00000001
 43
0.00000001
 40
0.0
 40
0.0
 40
0.0
 40
0.0
 40
0.1250000000000002
 40
0.1250000000000002
 40
0.2500000000000003
 40
0.2500000000000003
 40
0.3750000000000005
 40
0.3750000000000005
 40
0.4375000000000002
 40
0.4375000000000002
 40
0.5
 40
0.5
 40
0.5624999999999998
 40
0.5624999999999998
 40
0.6249999999999994
 40
0.6249999999999994
 40
0.7499999999999997
 40
0.7499999999999997
 40
0.8749999999999998
 40
0.8749999999999998
 40
1.0
 40
1.0
 40
1.0
 40
1.0
 10
469.3800000000001
 20
263.1789345293951
 30
0.0
 10
469.1716666666668
 20
263.1789345293951
 30
0.0
 10
468.9360000000001
 20
263.1804247254735
 30
0.0
 10
468.4240000000001
 20
263.1892090391991
 30
0.0
 10
468.1466666666668
 20
263.1965815882187
 30
0.0
 10
467.6133333333335
 20
263.2201109999833
 30
0.0
 10
467.3586620530567
 20
263.2364350382492
 30
0.0
 10
467.0818454440601
 20
263.2669662818885
 30
0.0
 10
467.0074161735702
 20
263.2780991656638
 30
0.0
 10
466.9064299802762
 20
263.3014893501399
 30
0.0
 10
466.8800000000001
 20
263.3137384509638
 30
0.0
 10
466.8800000000001
 20
263.3382482548853
 30
0.0
 10
466.9064299802762
 20
263.3504973557091
 30
0.0
 10
467.0074161735702
 20
263.3738875401853
 30
0.0
 10
467.0818454440601
 20
263.3850204239606
 30
0.0
 10
467.3586620530567
 20
263.4155516675999
 30
0.0
 10
467.6133333333335
 20
263.4318757058658
 30
0.0
 10
468.1466666666668
 20
263.4554051176304
 30
0.0
 10
468.4240000000001
 20
263.46277766665
 30
0.0
 10
468.9360000000001
 20
263.4715619803755
 30
0.0
 10
469.1716666666668
 20
263.473052176454
 30
0.0
 10
469.3800000000001
 20
263.473052176454
 30
0.0
  0
SPLINE
  5
85
330
1F
100
AcDbEntity
  8
0
  6
HIDDEN
 62
     7
370
    18
100
AcDbSpline
210
0.0
220
0.0
230
1.0
 70
     8
 71
     3
 72
    26
 73
    22
 74
     0
 42
0.00000001
 43
0.00000001
 40
0.0
 40
0.0
 40
0.0
 40
0.0
 40
0.1250000000000001
 40
0.1250000000000001
 40
0.2500000000000003
 40
0.2500000000000003
 40
0.3750000000000004
 40
0.3750000000000004
 40
0.4375000000000003
 40
0.4375000000000003
 40
0.5000000000000001
 40
0.5000000000000001
 40
0.5625
 40
0.5625
 40
0.6249999999999998
 40
0.6249999999999998
 40
0.7499999999999999
 40
0.7499999999999999
 40
0.8750000000000001
 40
0.8750000000000001
 40
1.0
 40
1.0
 40
1.0
 40
1.0
 10
469.3800000000001
 20
263.473052176454
 30
0.0
 10
469.5883333333334
 20
263.473052176454
 30
0.0
 10
469.8240000000001
 20
263.4715619803755
 30
0.0
 10
470.3360000000001
 20
263.46277766665
 30
0.0
 10
470.6133333333335
 20
263.4554051176304
 30
0.0
 10
471.1466666666668
 20
263.4318757058658
 30
0.0
 10
471.4013379469436
 20
263.4155516675999
 30
0.0
 10
471.6781545559401
 20
263.3850204239606
 30
0.0
 10
471.7525838264301
 20
263.3738875401853
 30
0.0
 10
471.853570019724
 20
263.3504973557091
 30
0.0
 10
471.8800000000001
 20
263.3382482548853
 30
0.0
 10
471.8800000000001
 20
263.3137384509637
 30
0.0
 10
471.853570019724
 20
263.3014893501399
 30
0.0
 10
471.7525838264301
 20
263.2780991656638
 30
0.0
 10
471.6781545559401
 20
263.2669662818885
 30
0.0
 10
471.4013379469436
 20
263.2364350382492
 30
0.0
 10
471.1466666666668
 20
263.2201109999833
 30
0.0
 10
470.6133333333335
 20
263.1965815882187
 30
0.0
 10
470.3360000000001
 20
263.1892090391991
 30
0.0
 10
469.8240000000001
 20
263.1804247254735
 30
0.0
 10
469.5883333333334
 20
263.1789345293951
 30
0.0
 10
469.3800000000001
 20
263.1789345293951
 30
0.0
  0
LINE
  5
86
330
1F
100
AcDbEntity
  8
0
  6
HIDDEN
 62
     7
370
    18
100
AcDbLine
 10
464.88
 20
262.6789345294
 30
0.0
 11
473.88
 21
262.6789345294
 31
0.0
  0
LINE
  5
87
330
1F
100
AcDbEntity
  8
0
  6
HIDDEN
 62
     7
370
    18
100
AcDbLine
 10
466.88
 20
263.3259933529
 30
0.0
 11
466.88
 21
257.6789345294
 31
0.0
  0
LINE
  5
88
330
1F
100
AcDbEntity
  8
0
  6
HIDDEN
 62
     7
370
    18
100
AcDbLine
 10
471.88
 20
257.6789345294
 30
0.0
 11
471.88
 21
263.3259933529
 31
0.0
  0
LINE
  5
89
330
1F
100
AcDbEntity
  8
0
  6
Continuous
 62
     7
370
    25
100
AcDbLine
 10
464.0766991411
 20
358.8718411351
 30
0.0
 11
472.5619805153
 21
353.9733924642
 31
0.0
  0
LINE
  5
8A
330
1F
100
AcDbEntity
  8
0
  6
Continuous
 62
     7
370
    25
100
AcDbLine
 10
468.3193398282
 20
361.3210654706
 30
0.0
 11
464.0766991411
 21
358.8718411351
 31
0.0
  0
LINE
  5
8B
330
1F
100
AcDbEntity
  8
0
  6
Continuous
 62
     7
370
    25
100
AcDbLine
 10
479.6330483272
 20
353.9733924642
 30
0.0
 11
468.3193398282
 21
361.3210654706
 31
0.0
  0
LINE
  5
8C
330
1F
100
AcDbEntity
  8
0
  6
Continuous
 62
     7
370
    25
100
AcDbLine
 10
492.3609703886
 20
347.4421275696
 30
0.0
 11
479.6330483272
 21
353.9733924642
 31
0.0
  0
LINE
  5
8D
330
1F
100
AcDbEntity
  8
0
  6
Continuous
 62
     7
370
    25
100
AcDbLine
 10
488.1183297014
 20
344.9929032342
 30
0.0
 11
492.3609703886
 21
347.4421275696
 31
0.0
  0
LINE
  5
8E
330
1F
100
AcDbEntity
  8
0
  6
Continuous
 62
     7
370
    25
100
AcDbLine
 10
479.6330483272
 20
349.8913519051
 30
0.0
 11
488.1183297014
 21
344.9929032342
 31
0.0
  0
LINE
  5
8F
330
1F
100
AcDbEntity
  8
0
  6
Continuous
 62
     7
370
    25
100
AcDbLine
 10
461.9553787975
 20
339.6862505073
 30
0.0
 11
479.6330483272
 21
349.8913519051
 31
0.0
  0
LINE
  5
90
330
1F
100
AcDbEntity
  8
0
  6
Continuous
 62
     7
370
    25
100
AcDbLine
 10
454.8843109857
 20
343.7682910664
 30
0.0
 11
461.9553787975
 21
339.6862505073
 31
0.0
  0
LINE
  5
91
330
1F
100
AcDbEntity
  8
0
  6
Continuous
 62
     7
370
    25
100
AcDbLine
 10
472.5619805153
 20
353.9733924642
 30
0.0
 11
454.8843109857
 21
343.7682910664
 31
0.0
  0
LINE
  5
92
330
1F
100
AcDbEntity
  8
0
  6
Continuous
 62
     7
370
    25
100
AcDbLine
 10
454.8843109857
 20
343.7682910664
 30
0.0
 11
454.8843109857
 21
336.4194237594
 31
0.0
  0
LINE
  5
93
330
1F
100
AcDbEntity
  8
0
  6
Continuous
 62
     7
370
    25
100
AcDbLine
 10
461.9553787975
 20
339.6862505073
 30
0.0
 11
461.9553787975
 21
332.3373832003
 31
0.0
  0
LINE
  5
94
330
1F
100
AcDbEntity
  8
0
  6
Continuous
 62
     7
370
    25
100
AcDbLine
 10
454.8843109857
 20
336.4194237594
 30
0.0
 11
461.9553787975
 21
332.3373832003
 31
0.0
  0
LINE
  5
95
330
1F
100
AcDbEntity
  8
0
  6
Continuous
 62
     7
370
    25
100
AcDbLine
 10
479.6330483272
 20
349.8913519051
 30
0.0
 11
479.6330483272
 21
342.5424845981
 31
0.0
  0
LINE
  5
96
330
1F
100
AcDbEntity
  8
0
  6
Continuous
 62
     7
370
    25
100
AcDbLine
 10
461.9553787975
 20
332.3373832003
 30
0.0
 11
479.6330483272
 21
342.5424845981
 31
0.0
  0
LINE
  5
97
330
1F
100
AcDbEntity
  8
0
  6
Continuous
 62
     7
370
    25
100
AcDbLine
 10
488.1183297014
 20
344.9929032342
 30
0.0
 11
488.1183297014
 21
337.6440359272
 31
0.0
  0
LWPOLYLINE
  5
98
330
1F
100
AcDbEntity
  8
0
  6
Continuous
 62
     7
370
    25
100
AcDbPolyline
 90
       28
 70
   128
 43
0.0
 10
482.1079220614
 20
344.7882040559
 10
482.1198750691
 20
344.5443172255
 10
482.1555724484
 20
344.2899278972
 10
482.2145314534
 20
344.0284762501
 10
482.2959547647
 20
343.7634979694
 10
482.3987412717
 20
343.4985764316
 10
482.5215009633
 20
343.2372942461
 10
482.6625737252
 20
342.9831848063
 10
482.8200517902
 20
342.7396845064
 10
482.9918055378
 20
342.5100862702
 10
483.1755122932
 20
342.29749502
 10
483.3686877375
 20
342.1047856878
 10
483.5687195044
 20
341.9345643367
 10
483.7729025073
 20
341.7891329184
 10
483.9784755214
 20
341.6704581435
 10
484.1826585242
 20
341.5801448846
 10
484.3826902911
 20
341.5194144736
 10
484.5758657355
 20
341.4890881852
 10
484.7595724908
 20
341.4895761304
 10
484.9313262384
 20
341.5208717106
 10
485.0888043035
 20
341.5825517068
 10
485.2298770654
 20
341.6737820027
 10
485.3526367569
 20
341.7933288652
 10
485.455423264
 20
341.939575628
 10
485.5368465753
 20
342.1105445546
 10
485.5958055803
 20
342.3039235834
 10
485.6315029596
 20
342.517097595
 10
485.6434559673
 20
342.7471837764
  0
LWPOLYLINE
  5
99
330
1F
100
AcDbEntity
  8
0
  6
Continuous
 62
     7
370
    25
100
AcDbPolyline
 90
       28
 70
   128
 43
0.0
 10
485.6434559673
 20
342.7471837764
 10
485.6315029596
 20
342.9910706067
 10
485.5958055803
 20
343.2454599351
 10
485.5368465753
 20
343.5069115821
 10
485.455423264
 20
343.7718898629
 10
485.3526367569
 20
344.0368114007
 10
485.2298770654
 20
344.2980935861
 10
485.0888043035
 20
344.5522030259
 10
484.9313262384
 20
344.7957033259
 10
484.7595724908
 20
345.025301562
 10
484.5758657355
 20
345.2378928122
 10
484.3826902911
 20
345.4306021444
 10
484.1826585242
 20
345.6008234956
 10
483.9784755214
 20
345.7462549138
 10
483.7729025073
 20
345.8649296888
 10
483.5687195044
 20
345.9552429477
 10
483.3686877375
 20
346.0159733586
 10
483.1755122932
 20
346.046299647
 10
482.9918055378
 20
346.0458117018
 10
482.8200517902
 20
346.0145161216
 10
482.6625737252
 20
345.9528361255
 10
482.5215009633
 20
345.8616058296
 10
482.3987412717
 20
345.7420589671
 10
482.2959547647
 20
345.5958122043
 10
482.2145314534
 20
345.4248432777
 10
482.1555724484
 20
345.2314642488
 10
482.1198750691
 20
345.0182902373
 10
482.1079220614
 20
344.7882040559
  0
LINE
  5
9A
330
1F
100
AcDbEntity
  8
0
  6
Continuous
 62
     7
370
    25
100
AcDbLine
 10
479.6330483272
 20
342.5424845981
 30
0.0
 11
488.1183297014
 21
337.6440359272
 31
0.0
  0
LINE
  5
9B
330
1F
100
AcDbEntity
  8
0
  6
Continuous
 62
     7
370
    25
100
AcDbLine
 10
492.3609703886
 20
347.4421275696
 30
0.0
 11
492.3609703886
 21
340.0932602626
 31
0.0
  0
LINE
  5
9C
330
1F
100
AcDbEntity
  8
0
  6
Continuous
 62
     7
370
    25
100
AcDbLine
 10
488.1183297014
 20
337.6440359272
 30
0.0
 11
492.3609703886
 21
340.0932602626
 31
0.0
  0
LINE
  5
9D
330
1F
100
AcDbEntity
  8
0
  6
Continuous
 62
     7
370
    25
100
AcDbLine
 10
464.0766991411
 20
358.8718411351
 30
0.0
 11
464.0766991411
 21
351.5229738282
 31
0.0
  0
ARC
  5
9E
330
1F
100
AcDbEntity
  8
0
  6
Continuous
 62
     7
370
    25
100
AcDbCircle
 10
470.4766894373
 20
353.9755365524
 30
0.0
 40
3.930562830265745
100
AcDbArc
 50
183.0165458518
 51
225.4068780855
  0
LWPOLYLINE
  5
9F
330
1F
100
AcDbEntity
  8
0
  6
Continuous
 62
     7
370
    25
100
AcDbPolyline
 90
       26
 70
   128
 43
0.0
 10
469.9814815897
 20
352.4837021434
 10
469.9804973892
 20
352.4874008122
 10
469.8990740779
 20
352.7523790929
 10
469.7962875708
 20
353.0173006307
 10
469.6735278793
 20
353.2785828162
 10
469.5324551174
 20
353.532692256
 10
469.3749770523
 20
353.7761925559
 10
469.2032233047
 20
354.0057907921
 10
469.0195165494
 20
354.2183820423
 10
468.826341105
 20
354.4110913745
 10
468.6263093381
 20
354.5813127256
 10
468.4221263353
 20
354.7267441439
 10
468.2165533212
 20
354.8454189188
 10
468.0123703183
 20
354.9357321777
 10
467.8123385514
 20
354.9964625887
 10
467.6191631071
 20
355.0267888771
 10
467.4354563517
 20
355.0263009319
 10
467.2637026041
 20
354.9950053517
 10
467.106224539
 20
354.9333253556
 10
466.9651517772
 20
354.8420950596
 10
466.8423920856
 20
354.7225481971
 10
466.7396055786
 20
354.5763014343
 10
466.6581822672
 20
354.4053325078
 10
466.5992232623
 20
354.2119534789
 10
466.563525883
 20
353.9987794674
 10
466.5515728753
 20
353.768693286
  0
LINE
  5
A0
330
1F
100
AcDbEntity
  8
0
  6
Continuous
 62
     7
370
    25
100
AcDbLine
 10
464.0766991411
 20
351.5229738282
 30
0.0
 11
466.1969850779
 21
350.2989588107
 31
0.0
  0
LINE
  5
A1
330
1F
100
AcDbEntity
  8
0
  6
HIDDEN
 62
     7
370
    18
100
AcDbLine
 10
472.5619805153
 20
346.6245251572
 30
0.0
 11
454.8843109857
 21
336.4194237594
 31
0.0
  0
LINE
  5
A2
330
1F
100
AcDbEntity
  8
0
  6
HIDDEN
 62
     7
370
    18
100
AcDbLine
 10
492.3609703886
 20
340.0932602626
 30
0.0
 11
479.6330483272
 21
346.6245251572
 31
0.0
  0
SPLINE
  5
A3
330
1F
100
AcDbEntity
  8
0
  6
HIDDEN
 62
     7
370
    18
100
AcDbSpline
210
0.0
220
0.0
230
1.0
 70
     8
 71
     3
 72
    26
 73
    22
 74
     0
 42
0.00000001
 43
0.00000001
 40
0.0
 40
0.0
 40
0.0
 40
0.0
 40
0.1250000000000002
 40
0.1250000000000002
 40
0.2500000000000003
 40
0.2500000000000003
 40
0.3750000000000005
 40
0.3750000000000005
 40
0.4375000000000002
 40
0.4375000000000002
 40
0.5
 40
0.5
 40
0.5624999999999998
 40
0.5624999999999998
 40
0.6249999999999994
 40
0.6249999999999994
 40
0.7499999999999997
 40
0.7499999999999997
 40
0.8749999999999998
 40
0.8749999999999998
 40
1.0
 40
1.0
 40
1.0
 40
1.0
 10
485.997009357884
 20
347.0333263634239
 30
0.0
 10
485.997009357884
 20
347.2034390325667
 30
0.0
 10
486.0159764574264
 20
347.386137618568
 30
0.0
 10
486.1277825178869
 20
347.7468338343953
 30
0.0
 10
486.2216197472021
 20
347.9251357489629
 30
0.0
 10
486.5211002662929
 20
348.2069473609196
 30
0.0
 10
486.7288713530669
 20
348.3082802368175
 30
0.0
 10
487.1174706425445
 20
348.3349046557015
 30
0.0
 10
487.259169119555
 20
348.3229673796782
 30
0.0
 10
487.5568775645683
 20
348.2526592371927
 30
0.0
 10
487.7127831651749
 20
348.1942382725451
 30
0.0
 10
488.0247420392278
 20
348.0341582506191
 30
0.0
 10
488.1806476398343
 20
347.9325749708659
 30
0.0
 10
488.4783560848476
 20
347.6973481318575
 30
0.0
 10
488.6200545618581
 20
347.5638617819263
 30
0.0
 10
489.0086538513357
 20
347.1384220835034
 30
0.0
 10
489.2164249381099
 20
346.8238559714788
 30
0.0
 10
489.5159054572006
 20
346.2346907174241
 30
0.0
 10
489.6097426865157
 20
345.9600846616658
 30
0.0
 10
489.7215487469763
 20
345.484643086122
 30
0.0
 10
489.7405158465187
 20
345.2824787694545
 30
0.0
 10
489.7405158465187
 20
345.1123661003116
 30
0.0
  0
SPLINE
  5
A4
330
1F
100
AcDbEntity
  8
0
  6
HIDDEN
 62
     7
370
    18
100
AcDbSpline
210
0.0
220
0.0
230
1.0
 70
     8
 71
     3
 72
    26
 73
    22
 74
     0
 42
0.00000001
 43
0.00000001
 40
0.0
 40
0.0
 40
0.0
 40
0.0
 40
0.1250000000000001
 40
0.1250000000000001
 40
0.2500000000000003
 40
0.2500000000000003
 40
0.3750000000000004
 40
0.3750000000000004
 40
0.4375000000000003
 40
0.4375000000000003
 40
0.5000000000000001
 40
0.5000000000000001
 40
0.5625
 40
0.5625
 40
0.6249999999999998
 40
0.6249999999999998
 40
0.7499999999999999
 40
0.7499999999999999
 40
0.8750000000000001
 40
0.8750000000000001
 40
1.0
 40
1.0
 40
1.0
 40
1.0
 10
489.7405158465187
 20
345.1123661003116
 30
0.0
 10
489.7405158465187
 20
344.9422534311688
 30
0.0
 10
489.7215487469763
 20
344.7595548451675
 30
0.0
 10
489.6097426865157
 20
344.3988586293402
 30
0.0
 10
489.5159054572006
 20
344.2205567147726
 30
0.0
 10
489.2164249381099
 20
343.9387451028159
 30
0.0
 10
489.0086538513357
 20
343.837412226918
 30
0.0
 10
488.6200545618581
 20
343.8107878080339
 30
0.0
 10
488.4783560848476
 20
343.8227250840573
 30
0.0
 10
488.1806476398343
 20
343.8930332265427
 30
0.0
 10
488.0247420392278
 20
343.9514541911904
 30
0.0
 10
487.7127831651749
 20
344.1115342131163
 30
0.0
 10
487.5568775645683
 20
344.2131174928696
 30
0.0
 10
487.259169119555
 20
344.4483443318779
 30
0.0
 10
487.1174706425446
 20
344.5818306818091
 30
0.0
 10
486.7288713530668
 20
345.0072703802321
 30
0.0
 10
486.5211002662929
 20
345.3218364922567
 30
0.0
 10
486.2216197472021
 20
345.9110017463114
 30
0.0
 10
486.1277825178869
 20
346.1856078020697
 30
0.0
 10
486.0159764574265
 20
346.6610493776135
 30
0.0
 10
485.997009357884
 20
346.8632136942809
 30
0.0
 10
485.997009357884
 20
347.0333263634239
 30
0.0
  0
LINE
  5
A5
330
1F
100
AcDbEntity
  8
0
  6
HIDDEN
 62
     7
370
    18
100
AcDbLine
 10
479.6330483272
 20
353.9733924642
 30
0.0
 11
479.6330483272
 21
349.8913519051
 31
0.0
  0
LINE
  5
A6
330
1F
100
AcDbEntity
  8
0
  6
HIDDEN
 62
     7
370
    18
100
AcDbLine
 10
479.6330483272
 20
346.6245251572
 30
0.0
 11
468.3193398282
 21
353.9721981636
 31
0.0
  0
LWPOLYLINE
  5
A7
330
1F
100
AcDbEntity
  8
0
  6
HIDDEN
 62
     7
370
    18
100
AcDbPolyline
 90
       18
 70
   128
 43
0.0
 10
467.7171687321
 20
351.1765421544
 10
467.8123385514
 20
351.0852749179
 10
468.0123703183
 20
350.9150535668
 10
468.2165533212
 20
350.7696221485
 10
468.4221263353
 20
350.6509473735
 10
468.6263093381
 20
350.5606341146
 10
468.826341105
 20
350.4999037037
 10
469.0195165494
 20
350.4695774153
 10
469.2032233047
 20
350.4700653605
 10
469.3749770523
 20
350.5013609407
 10
469.5324551174
 20
350.5630409368
 10
469.6735278793
 20
350.6542712328
 10
469.7962875708
 20
350.7738180952
 10
469.8990740779
 20
350.9200648581
 10
469.9804973892
 20
351.0910337846
 10
470.0394563942
 20
351.2844128135
 10
470.0751537735
 20
351.497586825
 10
470.0871067812
 20
351.7276730064
  0
ARC
  5
A8
330
1F
100
AcDbEntity
  8
0
  6
HIDDEN
 62
     7
370
    18
100
AcDbCircle
 10
467.1167106948
 20
351.6980705932
 30
0.0
 40
2.970543588777316
100
AcDbArc
 50
0.5709801469
 51
15.3357002448
  0
LINE
  5
A9
330
1F
100
AcDbEntity
  8
0
  6
HIDDEN
 62
     7
370
    18
100
AcDbLine
 10
472.5619805153
 20
353.9733924642
 30
0.0
 11
472.5619805153
 21
346.6245251572
 31
0.0
  0
LINE
  5
AA
330
1F
100
AcDbEntity
  8
0
  6
HIDDEN
 62
     7
370
    18
100
AcDbLine
 10
466.1969850779
 20
350.2989588107
 30
0.0
 11
472.5619805153
 21
346.6245251572
 31
0.0
  0
SPLINE
  5
AB
330
1F
100
AcDbEntity
  8
0
  6
HIDDEN
 62
     7
370
    18
100
AcDbSpline
210
0.0
220
0.0
230
1.0
 70
     8
 71
     3
 72
    26
 73
    22
 74
     0
 42
0.00000001
 43
0.00000001
 40
0.0
 40
0.0
 40
0.0
 40
0.0
 40
0.1250000000000002
 40
0.1250000000000002
 40
0.2500000000000005
 40
0.2500000000000005
 40
0.3750000000000008
 40
0.3750000000000008
 40
0.4375000000000006
 40
0.4375000000000006
 40
0.5000000000000003
 40
0.5000000000000003
 40
0.5625000000000001
 40
0.5625000000000001
 40
0.6249999999999999
 40
0.6249999999999999
 40
0.7499999999999999
 40
0.7499999999999999
 40
0.875
 40
0.875
 40
1.0
 40
1.0
 40
1.0
 40
1.0
 10
470.6486327544819
 20
356.1338756099182
 30
0.0
 10
470.6486327544819
 20
356.3039882790611
 30
0.0
 10
470.6654923985196
 20
356.4854702568957
 30
0.0
 10
470.7648755633734
 20
356.8389948877407
 30
0.0
 10
470.8482864338758
 20
357.0112777934838
 30
0.0
 10
471.1144913397343
 20
357.2738798028095
 30
0.0
 10
471.2991767502
 20
357.3618856014494
 30
0.0
 10
471.6445983408468
 20
357.3635840653623
 30
0.0
 10
471.7705525426339
 20
357.3425578127168
 30
0.0
 10
472.0351822715347
 20
357.253153733888
 30
0.0
 10
472.1737650276294
 20
357.1847325039653
 30
0.0
 10
472.4510618045653
 20
357.0046424792985
 30
0.0
 10
472.58964456066
 20
356.8930589342702
 30
0.0
 10
472.8542742895607
 20
356.6387361589186
 30
0.0
 10
472.9802284913478
 20
356.4961608323653
 30
0.0
 10
473.3256500819946
 20
356.0457951789711
 30
0.0
 10
473.5103354924604
 20
355.7179019896886
 30
0.0
 10
473.7765403983188
 20
355.1095271330028
 30
0.0
 10
473.8599512688212
 20
354.82890206842
 30
0.0
 10
473.959334433675
 20
354.3462889078939
 30
0.0
 10
473.9761940777128
 20
354.1429079830597
 30
0.0
 10
473.9761940777128
 20
353.9727953139169
 30
0.0
  0
SPLINE
  5
AC
330
1F
100
AcDbEntity
  8
0
  6
HIDDEN
 62
     7
370
    18
100
AcDbSpline
210
0.0
220
0.0
230
1.0
 70
     8
 71
     3
 72
    26
 73
    22
 74
     0
 42
0.00000001
 43
0.00000001
 40
0.0
 40
0.0
 40
0.0
 40
0.0
 40
0.1250000000000001
 40
0.1250000000000001
 40
0.2500000000000003
 40
0.2500000000000003
 40
0.3750000000000004
 40
0.3750000000000004
 40
0.4375000000000003
 40
0.4375000000000003
 40
0.5000000000000001
 40
0.5000000000000001
 40
0.5625
 40
0.5625
 40
0.6249999999999998
 40
0.6249999999999998
 40
0.7499999999999999
 40
0.7499999999999999
 40
0.8750000000000001
 40
0.8750000000000001
 40
1.0
 40
1.0
 40
1.0
 40
1.0
 10
473.9761940777128
 20
353.9727953139169
 30
0.0
 10
473.9761940777128
 20
353.8026826447741
 30
0.0
 10
473.959334433675
 20
353.6212006669394
 30
0.0
 10
473.8599512688212
 20
353.2676760360944
 30
0.0
 10
473.7765403983188
 20
353.0953931303512
 30
0.0
 10
473.5103354924604
 20
352.8327911210256
 30
0.0
 10
473.3256500819946
 20
352.7447853223857
 30
0.0
 10
472.9802284913478
 20
352.7430868584729
 30
0.0
 10
472.8542742895607
 20
352.7641131111183
 30
0.0
 10
472.58964456066
 20
352.8535171899471
 30
0.0
 10
472.4510618045653
 20
352.9219384198698
 30
0.0
 10
472.1737650276294
 20
353.1020284445365
 30
0.0
 10
472.0351822715346
 20
353.2136119895648
 30
0.0
 10
471.7705525426339
 20
353.4679347649165
 30
0.0
 10
471.6445983408468
 20
353.6105100914698
 30
0.0
 10
471.2991767502
 20
354.060875744864
 30
0.0
 10
471.1144913397342
 20
354.3887689341465
 30
0.0
 10
470.8482864338758
 20
354.9971437908324
 30
0.0
 10
470.7648755633734
 20
355.2777688554151
 30
0.0
 10
470.6654923985196
 20
355.7603820159412
 30
0.0
 10
470.6486327544819
 20
355.9637629407754
 30
0.0
 10
470.6486327544819
 20
356.1338756099182
 30
0.0
  0
LINE
  5
AD
330
1F
100
AcDbEntity
  8
0
  6
HIDDEN
 62
     7
370
    18
100
AcDbLine
 10
468.3193398282
 20
361.3210654706
 30
0.0
 11
468.3193398282
 21
353.9721981636
 31
0.0
  0
LINE
  5
AE
330
1F
100
AcDbEntity
  8
0
  6
HIDDEN
 62
     7
370
    18
100
AcDbLine
 10
468.3193398282
 20
353.9721981636
 30
0.0
 11
464.0766991411
 21
351.5229738282
 31
0.0
  0
LINE
  5
AF
330
1F
100
AcDbEntity
  8
0
  6
HIDDEN
 62
     7
370
    18
100
AcDbLine
 10
486.5454747276
 20
348.195601555
 30
0.0
 11
482.6257905985
 21
345.9328160721
 31
0.0
  0
LINE
  5
B0
330
1F
100
AcDbEntity
  8
0
  6
HIDDEN
 62
     7
370
    18
100
AcDbLine
 10
485.1255874301
 20
341.6025717602
 30
0.0
 11
489.1920504768
 21
343.9500909087
 31
0.0
  0
LINE
  5
B1
330
1F
100
AcDbEntity
  8
0
  6
HIDDEN
 62
     7
370
    18
100
AcDbLine
 10
471.1359044592
 20
357.2608244507
 30
0.0
 11
467.0694414124
 21
354.9133053021
 31
0.0
  0
LINE
  5
B2
330
1F
100
AcDbEntity
  8
0
  6
HIDDEN
 62
     7
370
    18
100
AcDbLine
 10
469.569238244
 20
350.5830609902
 30
0.0
 11
473.488922373
 21
352.8458464732
 31
0.0
  0
ENDSEC
  0
SECTION
  2
OBJECTS
  0
DICTIONARY
  5
C
330
0
100
AcDbDictionary
281
     1
  3
ACAD_GROUP
350
D
  3
ACAD_LAYOUT
350
1A
  3
ACAD_MLINESTYLE
350
17
  3
ACAD_PLOTSETTINGS
350
19
  3
ACAD_PLOTSTYLENAME
350
E
  3
ACAD_SCALELIST
350
47
  3
DWGPROPS
350
B3
  0
DICTIONARY
  5
D
102
{ACAD_REACTORS
330
C
102
}
330
C
100
AcDbDictionary
281
     1
  0
DICTIONARY
  5
1A
102
{ACAD_REACTORS
330
C
102
}
330
C
100
AcDbDictionary
281
     1
  3
Layout1
350
1E
  3
Layout2
350
26
  3
Model
350
22
  0
DICTIONARY
  5
17
102
{ACAD_REACTORS
330
C
102
}
330
C
100
AcDbDictionary
281
     1
  3
Standard
350
18
  0
DICTIONARY
  5
19
102
{ACAD_REACTORS
330
C
102
}
330
C
100
AcDbDictionary
281
     1
  0
ACDBDICTIONARYWDFLT
  5
E
102
{ACAD_REACTORS
330
C
102
}
330
C
100
AcDbDictionary
281
     1
  3
Normal
350
F
100
AcDbDictionaryWithDefault
340
F
  0
DICTIONARY
  5
47
102
{ACAD_REACTORS
330
C
102
}
330
C
100
AcDbDictionary
281
     1
  3
A0
350
48
  3
A1
350
49
  3
A2
350
4A
  3
A3
350
4B
  3
A4
350
4C
  3
A5
350
4D
  3
A6
350
4E
  3
A7
350
4F
  3
A8
350
50
  3
A9
350
51
  3
B0
350
52
  3
B1
350
53
  3
B2
350
54
  3
B3
350
55
  3
B4
350
56
  3
B5
350
57
  3
B6
350
58
  0
XRECORD
  5
B3
102
{ACAD_REACTORS
330
C
102
}
330
C
100
AcDbXrecord
280
     1
  1
DWGPROPS COOKIE
  2

  3

  4

  6

  7

  8
imaizumi
  9

300
=
301
=
302
=
303
=
304
=
305
=
306
=
307
=
308
=
309
=
 40
0.0
 41
2461263.040659873
 42
2461263.040660486
  1

 90
        0
  0
LAYOUT
  5
1E
102
{ACAD_REACTORS
330
1A
102
}
330
1A
100
AcDbPlotSettings
  1

  2
none_device
  4

  6

 40
0.0
 41
0.0
 42
0.0
 43
0.0
 44
0.0
 45
0.0
 46
0.0
 47
0.0
 48
0.0
 49
0.0
140
0.0
141
0.0
142
1.0
143
1.0
 70
   688
 72
     1
 73
     0
 74
     5
  7

 75
    16
147
1.0
148
0.0
149
0.0
100
AcDbLayout
  1
Layout1
 70
     1
 71
     1
 10
0.0
 20
0.0
 11
420.0
 21
297.0
 12
0.0
 22
0.0
 32
0.0
 14
1.0000000000E+20
 24
1.0000000000E+20
 34
1.0000000000E+20
 15
-1.0000000000E+20
 25
-1.0000000000E+20
 35
-1.0000000000E+20
146
0.0
 13
0.0
 23
0.0
 33
0.0
 16
1.0
 26
0.0
 36
0.0
 17
0.0
 27
1.0
 37
0.0
 76
     0
330
1B
  0
LAYOUT
  5
26
102
{ACAD_REACTORS
330
1A
102
}
330
1A
100
AcDbPlotSettings
  1

  2
none_device
  4

  6

 40
0.0
 41
0.0
 42
0.0
 43
0.0
 44
0.0
 45
0.0
 46
0.0
 47
0.0
 48
0.0
 49
0.0
140
0.0
141
0.0
142
1.0
143
1.0
 70
   688
 72
     1
 73
     0
 74
     5
  7

 75
    16
147
1.0
148
0.0
149
0.0
100
AcDbLayout
  1
Layout2
 70
     1
 71
     2
 10
0.0
 20
0.0
 11
0.0
 21
0.0
 12
0.0
 22
0.0
 32
0.0
 14
0.0
 24
0.0
 34
0.0
 15
0.0
 25
0.0
 35
0.0
146
0.0
 13
0.0
 23
0.0
 33
0.0
 16
1.0
 26
0.0
 36
0.0
 17
0.0
 27
1.0
 37
0.0
 76
     0
330
23
  0
LAYOUT
  5
22
102
{ACAD_REACTORS
330
1A
102
}
330
1A
100
AcDbPlotSettings
  1

  2
none_device
  4
Letter_(8.50_x_11.00_Inches)
  6

 40
6.35
 41
6.35
 42
6.35000508
 43
6.35000508
 44
215.9
 45
279.4
 46
0.0
 47
0.0
 48
0.0
 49
0.0
140
0.0
141
0.0
142
1.0
143
1.0
 70
  1712
 72
     1
 73
     0
 74
     0
  7

 75
     0
147
1.0
148
0.0
149
0.0
100
AcDbLayout
  1
Model
 70
     1
 71
     0
 10
0.0
 20
0.0
 11
841.0
 21
594.0
 12
0.0
 22
0.0
 32
0.0
 14
0.0
 24
0.0
 34
0.0
 15
841.0
 25
594.0
 35
0.0
146
0.0
 13
0.0
 23
0.0
 33
0.0
 16
1.0
 26
0.0
 36
0.0
 17
0.0
 27
1.0
 37
0.0
 76
     0
330
1F
331
29
  0
MLINESTYLE
  5
18
102
{ACAD_REACTORS
330
17
102
}
330
17
100
AcDbMlineStyle
  2
Standard
 70
     0
  3

 62
   256
 51
90.0
 52
90.0
 71
     2
 49
0.5
 62
   256
  6
BYLAYER
 49
-0.5
 62
   256
  6
BYLAYER
  0
ACDBPLACEHOLDER
  5
F
102
{ACAD_REACTORS
330
E
102
}
330
E
  0
SCALE
  5
48
102
{ACAD_REACTORS
330
47
102
}
330
47
100
AcDbScale
 70
     0
300
1:1
140
1.0
141
1.0
290
     1
  0
SCALE
  5
49
102
{ACAD_REACTORS
330
47
102
}
330
47
100
AcDbScale
 70
     0
300
1:2
140
1.0
141
2.0
290
     0
  0
SCALE
  5
4A
102
{ACAD_REACTORS
330
47
102
}
330
47
100
AcDbScale
 70
     0
300
1:4
140
1.0
141
4.0
290
     0
  0
SCALE
  5
4B
102
{ACAD_REACTORS
330
47
102
}
330
47
100
AcDbScale
 70
     0
300
1:5
140
1.0
141
5.0
290
     0
  0
SCALE
  5
4C
102
{ACAD_REACTORS
330
47
102
}
330
47
100
AcDbScale
 70
     0
300
1:8
140
1.0
141
8.0
290
     0
  0
SCALE
  5
4D
102
{ACAD_REACTORS
330
47
102
}
330
47
100
AcDbScale
 70
     0
300
1:10
140
1.0
141
10.0
290
     0
  0
SCALE
  5
4E
102
{ACAD_REACTORS
330
47
102
}
330
47
100
AcDbScale
 70
     0
300
1:16
140
1.0
141
16.0
290
     0
  0
SCALE
  5
4F
102
{ACAD_REACTORS
330
47
102
}
330
47
100
AcDbScale
 70
     0
300
1:20
140
1.0
141
20.0
290
     0
  0
SCALE
  5
50
102
{ACAD_REACTORS
330
47
102
}
330
47
100
AcDbScale
 70
     0
300
1:30
140
1.0
141
30.0
290
     0
  0
SCALE
  5
51
102
{ACAD_REACTORS
330
47
102
}
330
47
100
AcDbScale
 70
     0
300
1:40
140
1.0
141
40.0
290
     0
  0
SCALE
  5
52
102
{ACAD_REACTORS
330
47
102
}
330
47
100
AcDbScale
 70
     0
300
1:50
140
1.0
141
50.0
290
     0
  0
SCALE
  5
53
102
{ACAD_REACTORS
330
47
102
}
330
47
100
AcDbScale
 70
     0
300
1:100
140
1.0
141
100.0
290
     0
  0
SCALE
  5
54
102
{ACAD_REACTORS
330
47
102
}
330
47
100
AcDbScale
 70
     0
300
2:1
140
2.0
141
1.0
290
     0
  0
SCALE
  5
55
102
{ACAD_REACTORS
330
47
102
}
330
47
100
AcDbScale
 70
     0
300
4:1
140
4.0
141
1.0
290
     0
  0
SCALE
  5
56
102
{ACAD_REACTORS
330
47
102
}
330
47
100
AcDbScale
 70
     0
300
8:1
140
8.0
141
1.0
290
     0
  0
SCALE
  5
57
102
{ACAD_REACTORS
330
47
102
}
330
47
100
AcDbScale
 70
     0
300
10:1
140
10.0
141
1.0
290
     0
  0
SCALE
  5
58
102
{ACAD_REACTORS
330
47
102
}
330
47
100
AcDbScale
 70
     0
300
100:1
140
100.0
141
1.0
290
     0
  0
ENDSEC
  0
EOF
