  0
SECTION
  2
HEADER
  9
$ACADVER
  1
AC1015
  9
$ACADMAINTVER
 70
     6
  9
$DWGCODEPAGE
  3
DOS932
  9
$INSBASE
 10
0.0
 20
0.0
 30
0.0
  9
$EXTMIN
 10
0.0
 20
0.0
 30
0.0
  9
$EXTMAX
 10
841.0
 20
594.0
 30
0.0
  9
$LIMMIN
 10
0.0
 20
0.0
  9
$LIMMAX
 10
841.0
 20
594.0
  9
$ORTHOMODE
 70
     0
  9
$REGENMODE
 70
     1
  9
$FILLMODE
 70
     1
  9
$QTEXTMODE
 70
     0
  9
$MIRRTEXT
 70
     1
  9
$LTSCALE
 40
1.0
  9
$ATTMODE
 70
     1
  9
$TEXTSIZE
 40
3.5
  9
$TRACEWID
 40
1.0
  9
$TEXTSTYLE
  7
Standard
  9
$CLAYER
  8
0
  9
$CELTYPE
  6
ByLayer
  9
$CECOLOR
 62
   256
  9
$CELTSCALE
 40
1.0
  9
$DISPSILH
 70
     0
  9
$DIMSCALE
 40
1.0
  9
$DIMASZ
 40
3.302
  9
$DIMEXO
 40
1.0
  9
$DIMDLI
 40
3.75
  9
$DIMRND
 40
0.0
  9
$DIMDLE
 40
0.0
  9
$DIMEXE
 40
1.0
  9
$DIMTP
 40
0.0
  9
$DIMTM
 40
0.0
  9
$DIMTXT
 40
3.5
  9
$DIMCEN
 40
2.5
  9
$DIMTSZ
 40
0.0
  9
$DIMTOL
 70
     0
  9
$DIMLIM
 70
     0
  9
$DIMTIH
 70
     1
  9
$DIMTOH
 70
     1
  9
$DIMSE1
 70
     0
  9
$DIMSE2
 70
     0
  9
$DIMTAD
 70
     1
  9
$DIMZIN
 70
     1
  9
$DIMBLK
  1

  9
$DIMASO
 70
     1
  9
$DIMSHO
 70
     1
  9
$DIMPOST
  1

  9
$DIMAPOST
  1

  9
$DIMALT
 70
     0
  9
$DIMALTD
 70
     3
  9
$DIMALTF
 40
0.0393700787
  9
$DIMLFAC
 40
2.0
  9
$DIMTOFL
 70
     1
  9
$DIMTVP
 40
0.0
  9
$DIMTIX
 70
     0
  9
$DIMSOXD
 70
     0
  9
$DIMSAH
 70
     0
  9
$DIMBLK1
  1

  9
$DIMBLK2
  1

  9
$DIMSTYLE
  2
ISO-25
  9
$DIMCLRD
 70
     0
  9
$DIMCLRE
 70
     0
  9
$DIMCLRT
 70
     0
  9
$DIMTFAC
 40
1.0
  9
$DIMGAP
 40
1.524
  9
$DIMJUST
 70
     0
  9
$DIMSD1
 70
     0
  9
$DIMSD2
 70
     0
  9
$DIMTOLJ
 70
     0
  9
$DIMTZIN
 70
     1
  9
$DIMALTZ
 70
     0
  9
$DIMALTTZ
 70
     0
  9
$DIMUPT
 70
     0
  9
$DIMDEC
 70
     2
  9
$DIMTDEC
 70
     2
  9
$DIMALTU
 70
     2
  9
$DIMALTTD
 70
     3
  9
$DIMTXSTY
  7
Standard
  9
$DIMAUNIT
 70
     0
  9
$DIMADEC
 70
     2
  9
$DIMALTRND
 40
0.0
  9
$DIMAZIN
 70
     0
  9
$DIMDSEP
 70
    44
  9
$DIMATFIT
 70
     3
  9
$DIMFRAC
 70
     0
  9
$DIMLDRBLK
  1

  9
$DIMLUNIT
 70
     2
  9
$DIMLWD
 70
    -2
  9
$DIMLWE
 70
    -2
  9
$DIMTMOVE
 70
     0
  9
$LUNITS
 70
     2
  9
$LUPREC
 70
     2
  9
$SKETCHINC
 40
1.0
  9
$FILLETRAD
 40
0.0
  9
$AUNITS
 70
     0
  9
$AUPREC
 70
     2
  9
$MENU
  1
.
  9
$ELEVATION
 40
0.0
  9
$PELEVATION
 40
0.0
  9
$THICKNESS
 40
0.0
  9
$LIMCHECK
 70
     0
  9
$CHAMFERA
 40
0.0
  9
$CHAMFERB
 40
0.0
  9
$CHAMFERC
 40
0.0
  9
$CHAMFERD
 40
0.0
  9
$SKPOLY
 70
     0
  9
$TDCREATE
 40
2461263.440118796
  9
$TDUCREATE
 40
2461263.065118796
  9
$TDUPDATE
 40
2461263.440119352
  9
$TDUUPDATE
 40
2461263.065119352
  9
$TDINDWG
 40
0.0000000116
  9
$TDUSRTIMER
 40
0.0000000116
  9
$USRTIMER
 70
     1
  9
$ANGBASE
 50
0.0
  9
$ANGDIR
 70
     0
  9
$PDMODE
 70
     0
  9
$PDSIZE
 40
-1.0
  9
$PLINEWID
 40
0.0
  9
$SPLFRAME
 70
     0
  9
$SPLINETYPE
 70
     6
  9
$SPLINESEGS
 70
     8
  9
$HANDSEED
  5
14D
  9
$SURFTAB1
 70
     6
  9
$SURFTAB2
 70
     6
  9
$SURFTYPE
 70
     6
  9
$SURFU
 70
     6
  9
$SURFV
 70
     6
  9
$UCSBASE
  2

  9
$UCSNAME
  2

  9
$UCSORG
 10
0.0
 20
0.0
 30
0.0
  9
$UCSXDIR
 10
1.0
 20
0.0
 30
0.0
  9
$UCSYDIR
 10
0.0
 20
1.0
 30
0.0
  9
$UCSORTHOREF
  2

  9
$UCSORTHOVIEW
 70
     0
  9
$UCSORGTOP
 10
0.0
 20
0.0
 30
0.0
  9
$UCSORGBOTTOM
 10
0.0
 20
0.0
 30
0.0
  9
$UCSORGLEFT
 10
0.0
 20
0.0
 30
0.0
  9
$UCSORGRIGHT
 10
0.0
 20
0.0
 30
0.0
  9
$UCSORGFRONT
 10
0.0
 20
0.0
 30
0.0
  9
$UCSORGBACK
 10
0.0
 20
0.0
 30
0.0
  9
$PUCSBASE
  2

  9
$PUCSNAME
  2

  9
$PUCSORG
 10
0.0
 20
0.0
 30
0.0
  9
$PUCSXDIR
 10
1.0
 20
0.0
 30
0.0
  9
$PUCSYDIR
 10
0.0
 20
1.0
 30
0.0
  9
$PUCSORTHOREF
  2

  9
$PUCSORTHOVIEW
 70
     0
  9
$PUCSORGTOP
 10
0.0
 20
0.0
 30
0.0
  9
$PUCSORGBOTTOM
 10
0.0
 20
0.0
 30
0.0
  9
$PUCSORGLEFT
 10
0.0
 20
0.0
 30
0.0
  9
$PUCSORGRIGHT
 10
0.0
 20
0.0
 30
0.0
  9
$PUCSORGFRONT
 10
0.0
 20
0.0
 30
0.0
  9
$PUCSORGBACK
 10
0.0
 20
0.0
 30
0.0
  9
$USERI1
 70
     0
  9
$USERI2
 70
     0
  9
$USERI3
 70
     0
  9
$USERI4
 70
     0
  9
$USERI5
 70
     0
  9
$USERR1
 40
0.0
  9
$USERR2
 40
0.0
  9
$USERR3
 40
0.0
  9
$USERR4
 40
0.0
  9
$USERR5
 40
0.0
  9
$WORLDVIEW
 70
     1
  9
$SHADEDGE
 70
     3
  9
$SHADEDIF
 70
    70
  9
$TILEMODE
 70
     1
  9
$MAXACTVP
 70
    64
  9
$PINSBASE
 10
0.0
 20
0.0
 30
0.0
  9
$PLIMCHECK
 70
     0
  9
$PEXTMIN
 10
1.0000000000E+20
 20
1.0000000000E+20
 30
1.0000000000E+20
  9
$PEXTMAX
 10
-1.0000000000E+20
 20
-1.0000000000E+20
 30
-1.0000000000E+20
  9
$PLIMMIN
 10
0.0
 20
0.0
  9
$PLIMMAX
 10
420.0
 20
297.0
  9
$UNITMODE
 70
     0
  9
$VISRETAIN
 70
     1
  9
$PLINEGEN
 70
     0
  9
$PSLTSCALE
 70
     1
  9
$TREEDEPTH
 70
  3020
  9
$CMLSTYLE
  2
Standard
  9
$CMLJUST
 70
     0
  9
$CMLSCALE
 40
20.0
  9
$PROXYGRAPHICS
 70
     1
  9
$MEASUREMENT
 70
     1
  9
$CELWEIGHT
370
    -1
  9
$ENDCAPS
280
     0
  9
$JOINSTYLE
280
     0
  9
$LWDISPLAY
290
     1
  9
$INSUNITS
 70
     4
  9
$HYPERLINKBASE
  1

  9
$STYLESHEET
  1

  9
$XEDIT
290
     1
  9
$CEPSNTYPE
380
     0
  9
$PSTYLEMODE
290
     1
  9
$FINGERPRINTGUID
  2
{5a149692-4550-4dae-8e85-1a6185a4f2bd}
  9
$VERSIONGUID
  2
{FAEB1C32-E019-11D5-929B-00C0DF256EC4}
  9
$EXTNAMES
290
     1
  9
$PSVPSCALE
 40
0.0
  9
$OLESTARTUP
290
     0
  0
ENDSEC
  0
SECTION
  2
CLASSES
  0
CLASS
  1
ACDBDICTIONARYWDFLT
  2
AcDbDictionaryWithDefault
  3
ObjectDBX Classes
 90
        0
280
     0
281
     0
  0
CLASS
  1
VISUALSTYLE
  2
AcDbVisualStyle
  3
ObjectDBX Classes
 90
     4095
280
     0
281
     0
  0
CLASS
  1
MATERIAL
  2
AcDbMaterial
  3
ObjectDBX Classes
 90
     1153
280
     0
281
     0
  0
CLASS
  1
SCALE
  2
AcDbScale
  3
ObjectDBX Classes
 90
     1153
280
     0
281
     0
  0
CLASS
  1
TABLESTYLE
  2
AcDbTableStyle
  3
ObjectDBX Classes
 90
     4095
280
     0
281
     0
  0
CLASS
  1
MLEADERSTYLE
  2
AcDbMLeaderStyle
  3
ACDB_MLEADERSTYLE_CLASS
 90
     4095
280
     0
281
     0
  0
CLASS
  1
SUN
  2
AcDbSun
  3
SCENEOE
 90
     1153
280
     0
281
     0
  0
CLASS
  1
ACDBPLACEHOLDER
  2
AcDbPlaceHolder
  3
ObjectDBX Classes
 90
        0
280
     0
281
     0
  0
CLASS
  1
LAYOUT
  2
AcDbLayout
  3
ObjectDBX Classes
 90
        0
280
     0
281
     0
  0
ENDSEC
  0
SECTION
  2
TABLES
  0
TABLE
  2
VPORT
  5
8
330
0
100
AcDbSymbolTable
 70
     1
  0
VPORT
  5
29
330
8
100
AcDbSymbolTableRecord
100
AcDbViewportTableRecord
  2
*Active
 70
     0
 10
0.0
 20
0.0
 11
1.0
 21
1.0
 12
420.5
 22
297.0
 13
0.0
 23
0.0
 14
10.0
 24
10.0
 15
10.0
 25
10.0
 16
0.0
 26
0.0
 36
1.0
 17
0.0
 27
0.0
 37
0.0
 40
594.0
 41
1.4158249158
 42
50.0
 43
0.0
 44
0.0
 50
0.0
 51
0.0
 71
     0
 72
  2000
 73
     1
 74
     3
 75
     0
 76
     0
 77
     0
 78
     0
281
     0
 65
     1
110
0.0
120
0.0
130
0.0
111
1.0
121
0.0
131
0.0
112
0.0
122
1.0
132
0.0
 79
     0
146
0.0
  0
ENDTAB
  0
TABLE
  2
LTYPE
  5
5
330
0
100
AcDbSymbolTable
 70
     6
  0
LTYPE
  5
14
330
5
100
AcDbSymbolTableRecord
100
AcDbLinetypeTableRecord
  2
ByBlock
 70
     0
  3

 72
    65
 73
     0
 40
0.0
  0
LTYPE
  5
15
330
5
100
AcDbSymbolTableRecord
100
AcDbLinetypeTableRecord
  2
ByLayer
 70
     0
  3

 72
    65
 73
     0
 40
0.0
  0
LTYPE
  5
16
330
5
100
AcDbSymbolTableRecord
100
AcDbLinetypeTableRecord
  2
Continuous
 70
     0
  3
Solid line
 72
    65
 73
     0
 40
0.0
  0
LTYPE
  5
5E
330
5
100
AcDbSymbolTableRecord
100
AcDbLinetypeTableRecord
  2
HIDDEN
 70
     0
  3
Hidden __ __ __ __ __ __ __ __ __ __ __ __ __ __
 72
    65
 73
     2
 40
1.905
 49
1.27
 74
     0
 49
-0.635
 74
     0
  0
LTYPE
  5
5F
330
5
100
AcDbSymbolTableRecord
100
AcDbLinetypeTableRecord
  2
PHANTOM
 70
     0
  3
Phantom ______  __  __  ______  __  __  ______
 72
    65
 73
     6
 40
12.7
 49
6.35
 74
     0
 49
-1.27
 74
     0
 49
1.27
 74
     0
 49
-1.27
 74
     0
 49
1.27
 74
     0
 49
-1.27
 74
     0
  0
LTYPE
  5
60
330
5
100
AcDbSymbolTableRecord
100
AcDbLinetypeTableRecord
  2
CENTER
 70
     0
  3
Center ____ _ ____ _ ____ _ ____ _ ____ _ ____
 72
    65
 73
     4
 40
10.16
 49
6.35
 74
     0
 49
-1.27
 74
     0
 49
1.27
 74
     0
 49
-1.27
 74
     0
  0
LTYPE
  5
61
330
5
100
AcDbSymbolTableRecord
100
AcDbLinetypeTableRecord
  2
CENTERX2
 70
     0
  3
Center (2x) ________  __  ________  __  _____
 72
    65
 73
     4
 40
20.32
 49
12.7
 74
     0
 49
-2.54
 74
     0
 49
2.54
 74
     0
 49
-2.54
 74
     0
  0
LTYPE
  5
62
330
5
100
AcDbSymbolTableRecord
100
AcDbLinetypeTableRecord
  2
DOT2
 70
     0
  3
Dot (.5x) ........................................
 72
    65
 73
     2
 40
0.635
 49
0.0
 74
     0
 49
-0.635
 74
     0
  0
ENDTAB
  0
TABLE
  2
LAYER
  5
2
330
0
100
AcDbSymbolTable
 70
     1
  0
LAYER
  5
10
330
2
100
AcDbSymbolTableRecord
100
AcDbLayerTableRecord
  2
0
 70
     0
 62
     7
  6
Continuous
370
    -3
390
F
  0
ENDTAB
  0
TABLE
  2
STYLE
  5
3
330
0
100
AcDbSymbolTable
 70
     1
  0
STYLE
  5
11
330
3
100
AcDbSymbolTableRecord
100
AcDbTextStyleTableRecord
  2
Standard
 70
     0
 40
0.0
 41
1.0
 50
0.0
 71
     0
 42
3.5
  3
txt
  4
bigfont
  0
ENDTAB
  0
TABLE
  2
VIEW
  5
6
330
0
100
AcDbSymbolTable
 70
     0
  0
ENDTAB
  0
TABLE
  2
UCS
  5
7
330
0
100
AcDbSymbolTable
 70
     0
  0
ENDTAB
  0
TABLE
  2
APPID
  5
9
330
0
100
AcDbSymbolTable
 70
     1
  0
APPID
  5
12
330
9
100
AcDbSymbolTableRecord
100
AcDbRegAppTableRecord
  2
ACAD
 70
     0
  0
ENDTAB
  0
TABLE
  2
DIMSTYLE
  5
A
330
0
100
AcDbSymbolTable
 70
     1
100
AcDbDimStyleTable
  0
DIMSTYLE
105
27
330
A
100
AcDbSymbolTableRecord
100
AcDbDimStyleTableRecord
  2
ISO-25
 70
     0
 41
2.5
 42
0.625
 43
3.75
 44
1.25
 73
     0
 74
     0
 77
     1
 78
     8
140
2.5
141
2.5
143
0.0393700787
147
0.625
171
     3
172
     1
178
     0
271
     2
272
     2
274
     3
278
    44
283
     0
284
     8
340
11
  0
ENDTAB
  0
TABLE
  2
BLOCK_RECORD
  5
1
330
0
100
AcDbSymbolTable
 70
     1
  0
BLOCK_RECORD
  5
1F
330
1
100
AcDbSymbolTableRecord
100
AcDbBlockTableRecord
  2
*Model_Space
340
22
  0
BLOCK_RECORD
  5
1B
330
1
100
AcDbSymbolTableRecord
100
AcDbBlockTableRecord
  2
*Paper_Space
340
1E
  0
BLOCK_RECORD
  5
23
330
1
100
AcDbSymbolTableRecord
100
AcDbBlockTableRecord
  2
*Paper_Space0
340
26
  0
ENDTAB
  0
ENDSEC
  0
SECTION
  2
BLOCKS
  0
BLOCK
  5
20
330
1F
100
AcDbEntity
  8
0
100
AcDbBlockBegin
  2
*Model_Space
 70
     0
 10
0.0
 20
0.0
 30
0.0
  3
*Model_Space
  1

  0
ENDBLK
  5
21
330
1F
100
AcDbEntity
  8
0
100
AcDbBlockEnd
  0
BLOCK
  5
1C
330
1B
100
AcDbEntity
 67
     1
  8
0
100
AcDbBlockBegin
  2
*Paper_Space
 70
     0
 10
0.0
 20
0.0
 30
0.0
  3
*Paper_Space
  1

  0
ENDBLK
  5
1D
330
1B
100
AcDbEntity
 67
     1
  8
0
100
AcDbBlockEnd
  0
BLOCK
  5
24
330
23
100
AcDbEntity
  8
0
100
AcDbBlockBegin
  2
*Paper_Space0
 70
     0
 10
0.0
 20
0.0
 30
0.0
  3
*Paper_Space0
  1

  0
ENDBLK
  5
25
330
23
100
AcDbEntity
  8
0
100
AcDbBlockEnd
  0
ENDSEC
  0
SECTION
  2
ENTITIES
  0
LINE
  5
63
330
1F
100
AcDbEntity
  8
0
  6
Continuous
 62
     7
370
    25
100
AcDbLine
 10
385.6301012678
 20
-41.2718137448
 30
0.0
 11
385.6301012678
 21
-46.2718137448
 31
0.0
  0
LINE
  5
64
330
1F
100
AcDbEntity
  8
0
  6
Continuous
 62
     7
370
    25
100
AcDbLine
 10
385.6301012678
 20
-46.2718137448
 30
0.0
 11
376.6301012678
 21
-46.2718137448
 31
0.0
  0
LINE
  5
65
330
1F
100
AcDbEntity
  8
0
  6
Continuous
 62
     7
370
    25
100
AcDbLine
 10
376.6301012678
 20
-46.2718137448
 30
0.0
 11
376.6301012678
 21
-41.2718137448
 31
0.0
  0
LINE
  5
66
330
1F
100
AcDbEntity
  8
0
  6
Continuous
 62
     7
370
    25
100
AcDbLine
 10
0.6301012678
 20
161.7281862552
 30
0.0
 11
-4.3698987322
 21
161.7281862552
 31
0.0
  0
LINE
  5
67
330
1F
100
AcDbEntity
  8
0
  6
Continuous
 62
     7
370
    25
100
AcDbLine
 10
-4.3698987322
 20
161.7281862552
 30
0.0
 11
-4.3698987322
 21
170.7281862552
 31
0.0
  0
LINE
  5
68
330
1F
100
AcDbEntity
  8
0
  6
Continuous
 62
     7
370
    25
100
AcDbLine
 10
-4.3698987322
 20
170.7281862552
 30
0.0
 11
0.6301012678
 21
170.7281862552
 31
0.0
  0
LINE
  5
69
330
1F
100
AcDbEntity
  8
0
  6
Continuous
 62
     7
370
    25
100
AcDbLine
 10
385.6301012678
 20
-41.2718137448
 30
0.0
 11
385.6301012678
 21
152.7281862552
 31
0.0
  0
ARC
  5
6A
330
1F
100
AcDbEntity
  8
0
  6
Continuous
 62
     7
370
    25
100
AcDbCircle
 10
367.6301012678
 20
152.7281862552
 30
0.0
 40
9.0
100
AcDbArc
 50
0.0
 51
90.0
  0
LINE
  5
6B
330
1F
100
AcDbEntity
  8
0
  6
Continuous
 62
     7
370
    25
100
AcDbLine
 10
376.6301012678
 20
152.7281862552
 30
0.0
 11
376.6301012678
 21
-41.2718137448
 31
0.0
  0
LINE
  5
6C
330
1F
100
AcDbEntity
  8
0
  6
Continuous
 62
     7
370
    25
100
AcDbLine
 10
0.6301012678
 20
161.7281862552
 30
0.0
 11
367.6301012678
 21
161.7281862552
 31
0.0
  0
LINE
  5
6D
330
1F
100
AcDbEntity
  8
0
  6
Continuous
 62
     7
370
    25
100
AcDbLine
 10
367.6301012678
 20
170.7281862552
 30
0.0
 11
0.6301012678
 21
170.7281862552
 31
0.0
  0
ARC
  5
6E
330
1F
100
AcDbEntity
  8
0
  6
Continuous
 62
     7
370
    25
100
AcDbCircle
 10
367.6301012678
 20
152.7281862552
 30
0.0
 40
18.0
100
AcDbArc
 50
0.0
 51
90.0
  0
LINE
  5
6F
330
1F
100
AcDbEntity
  8
0
  6
Continuous
 62
     7
370
    25
100
AcDbLine
 10
326.6301012678
 20
-21.2718137448
 30
0.0
 11
326.6301012678
 21
56.7457792653
 31
0.0
  0
LINE
  5
70
330
1F
100
AcDbEntity
  8
0
  6
Continuous
 62
     7
370
    25
100
AcDbLine
 10
346.6301012678
 20
-41.2718137448
 30
0.0
 11
376.6301012678
 21
-41.2718137448
 31
0.0
  0
LINE
  5
71
330
1F
100
AcDbEntity
  8
0
  6
Continuous
 62
     7
370
    25
100
AcDbLine
 10
302.0603670285
 20
86.2502232318
 30
0.0
 11
0.6301012678
 21
141.7281862552
 31
0.0
  0
LINE
  5
72
330
1F
100
AcDbEntity
  8
0
  6
Continuous
 62
     7
370
    25
100
AcDbLine
 10
0.6301012678
 20
141.7281862552
 30
0.0
 11
0.6301012678
 21
161.7281862552
 31
0.0
  0
ARC
  5
73
330
1F
100
AcDbEntity
  8
0
  6
Continuous
 62
     7
370
    25
100
AcDbCircle
 10
296.6301012678
 20
56.7457792653
 30
0.0
 40
30.0
100
AcDbArc
 50
0.0
 51
79.5714715226
  0
LINE
  5
74
330
1F
100
AcDbEntity
  8
0
  6
Continuous
 62
     7
370
    25
100
AcDbLine
 10
346.6301012678
 20
-41.2718137448
 30
0.0
 11
326.6301012678
 21
-21.2718137448
 31
0.0
  0
LINE
  5
75
330
1F
100
AcDbEntity
  8
0
  6
HIDDEN
 62
     7
370
    18
100
AcDbLine
 10
376.6301012678
 20
5.7281862552
 30
0.0
 11
385.6301012678
 21
5.7281862552
 31
0.0
  0
LINE
  5
76
330
1F
100
AcDbEntity
  8
0
  6
HIDDEN
 62
     7
370
    18
100
AcDbLine
 10
376.6301012678
 20
-8.2718137448
 30
0.0
 11
385.6301012678
 21
-8.2718137448
 31
0.0
  0
LINE
  5
77
330
1F
100
AcDbEntity
  8
0
  6
HIDDEN
 62
     7
370
    18
100
AcDbLine
 10
376.6301012678
 20
-24.2718137448
 30
0.0
 11
385.6301012678
 21
-24.2718137448
 31
0.0
  0
LINE
  5
78
330
1F
100
AcDbEntity
  8
0
  6
HIDDEN
 62
     7
370
    18
100
AcDbLine
 10
376.6301012678
 20
-38.2718137448
 30
0.0
 11
385.6301012678
 21
-38.2718137448
 31
0.0
  0
LINE
  5
79
330
1F
100
AcDbEntity
  8
0
  6
HIDDEN
 62
     7
370
    18
100
AcDbLine
 10
72.6301012678
 20
161.7281862552
 30
0.0
 11
72.6301012678
 21
170.7281862552
 31
0.0
  0
LINE
  5
7A
330
1F
100
AcDbEntity
  8
0
  6
HIDDEN
 62
     7
370
    18
100
AcDbLine
 10
232.6301012678
 20
170.7281862552
 30
0.0
 11
232.6301012678
 21
161.7281862552
 31
0.0
  0
LINE
  5
7B
330
1F
100
AcDbEntity
  8
0
  6
HIDDEN
 62
     7
370
    18
100
AcDbLine
 10
238.6301012678
 20
161.7281862552
 30
0.0
 11
238.6301012678
 21
170.7281862552
 31
0.0
  0
LINE
  5
7C
330
1F
100
AcDbEntity
  8
0
  6
HIDDEN
 62
     7
370
    18
100
AcDbLine
 10
66.6301012678
 20
170.7281862552
 30
0.0
 11
66.6301012678
 21
161.7281862552
 31
0.0
  0
LINE
  5
7D
330
1F
100
AcDbEntity
  8
0
  6
HIDDEN
 62
     7
370
    18
100
AcDbLine
 10
270.1301012678
 20
161.7281862552
 30
0.0
 11
270.1301012678
 21
170.7281862552
 31
0.0
  0
LINE
  5
7E
330
1F
100
AcDbEntity
  8
0
  6
HIDDEN
 62
     7
370
    18
100
AcDbLine
 10
35.1301012678
 20
170.7281862552
 30
0.0
 11
35.1301012678
 21
161.7281862552
 31
0.0
  0
LINE
  5
7F
330
1F
100
AcDbEntity
  8
0
  6
HIDDEN
 62
     7
370
    18
100
AcDbLine
 10
43.1301012678
 20
161.7281862552
 30
0.0
 11
43.1301012678
 21
170.7281862552
 31
0.0
  0
LINE
  5
80
330
1F
100
AcDbEntity
  8
0
  6
HIDDEN
 62
     7
370
    18
100
AcDbLine
 10
262.1301012678
 20
170.7281862552
 30
0.0
 11
262.1301012678
 21
161.7281862552
 31
0.0
  0
LINE
  5
81
330
1F
100
AcDbEntity
  8
0
  6
Continuous
 62
     7
370
    25
100
AcDbLine
 10
385.6301012678
 20
522.38
 30
0.0
 11
385.6301012678
 21
352.38
 31
0.0
  0
LINE
  5
82
330
1F
100
AcDbEntity
  8
0
  6
Continuous
 62
     7
370
    25
100
AcDbLine
 10
385.6301012678
 20
352.38
 30
0.0
 11
367.6301012678
 21
352.38
 31
0.0
  0
LINE
  5
83
330
1F
100
AcDbEntity
  8
0
  6
Continuous
 62
     7
370
    25
100
AcDbLine
 10
385.6301012678
 20
522.38
 30
0.0
 11
367.6301012678
 21
522.38
 31
0.0
  0
LINE
  5
84
330
1F
100
AcDbEntity
  8
0
  6
Continuous
 62
     7
370
    25
100
AcDbLine
 10
367.6301012678
 20
352.38
 30
0.0
 11
0.6301012678
 21
352.38
 31
0.0
  0
ARC
  5
85
330
1F
100
AcDbEntity
  8
0
  6
Continuous
 62
     7
370
    25
100
AcDbCircle
 10
0.6301012678
 20
357.38
 30
0.0
 40
5.000000000000004
100
AcDbArc
 50
180.0
 51
270.0
  0
LINE
  5
86
330
1F
100
AcDbEntity
  8
0
  6
Continuous
 62
     7
370
    25
100
AcDbLine
 10
-4.3698987322
 20
517.38
 30
0.0
 11
-4.3698987322
 21
357.38
 31
0.0
  0
ARC
  5
87
330
1F
100
AcDbEntity
  8
0
  6
Continuous
 62
     7
370
    25
100
AcDbCircle
 10
39.1301012678
 20
422.38
 30
0.0
 40
4.000000000000057
100
AcDbArc
 50
90.0
 51
270.0
  0
ARC
  5
88
330
1F
100
AcDbEntity
  8
0
  6
Continuous
 62
     7
370
    25
100
AcDbCircle
 10
39.1301012678
 20
422.38
 30
0.0
 40
4.000000000000057
100
AcDbArc
 50
270.0
 51
90.0
  0
ARC
  5
89
330
1F
100
AcDbEntity
  8
0
  6
Continuous
 62
     7
370
    25
100
AcDbCircle
 10
69.6301012678
 20
450.38
 30
0.0
 40
3.0
100
AcDbArc
 50
90.0
 51
270.0
  0
ARC
  5
8A
330
1F
100
AcDbEntity
  8
0
  6
Continuous
 62
     7
370
    25
100
AcDbCircle
 10
69.6301012678
 20
450.38
 30
0.0
 40
3.0
100
AcDbArc
 50
270.0
 51
90.0
  0
ARC
  5
8B
330
1F
100
AcDbEntity
  8
0
  6
Continuous
 62
     7
370
    25
100
AcDbCircle
 10
39.1301012678
 20
462.38
 30
0.0
 40
4.0
100
AcDbArc
 50
90.0
 51
270.0
  0
ARC
  5
8C
330
1F
100
AcDbEntity
  8
0
  6
Continuous
 62
     7
370
    25
100
AcDbCircle
 10
39.1301012678
 20
462.38
 30
0.0
 40
4.0
100
AcDbArc
 50
270.0
 51
90.0
  0
ARC
  5
8D
330
1F
100
AcDbEntity
  8
0
  6
Continuous
 62
     7
370
    25
100
AcDbCircle
 10
266.1301012678
 20
462.38
 30
0.0
 40
4.0
100
AcDbArc
 50
90.0
 51
270.0
  0
ARC
  5
8E
330
1F
100
AcDbEntity
  8
0
  6
Continuous
 62
     7
370
    25
100
AcDbCircle
 10
266.1301012678
 20
462.38
 30
0.0
 40
4.0
100
AcDbArc
 50
270.0
 51
90.0
  0
ARC
  5
8F
330
1F
100
AcDbEntity
  8
0
  6
Continuous
 62
     7
370
    25
100
AcDbCircle
 10
235.6301012678
 20
450.38
 30
0.0
 40
3.0
100
AcDbArc
 50
90.0
 51
270.0
  0
ARC
  5
90
330
1F
100
AcDbEntity
  8
0
  6
Continuous
 62
     7
370
    25
100
AcDbCircle
 10
235.6301012678
 20
450.38
 30
0.0
 40
3.0
100
AcDbArc
 50
270.0
 51
90.0
  0
ARC
  5
91
330
1F
100
AcDbEntity
  8
0
  6
Continuous
 62
     7
370
    25
100
AcDbCircle
 10
266.1301012678
 20
422.38
 30
0.0
 40
4.000000000000057
100
AcDbArc
 50
90.0
 51
270.0
  0
ARC
  5
92
330
1F
100
AcDbEntity
  8
0
  6
Continuous
 62
     7
370
    25
100
AcDbCircle
 10
266.1301012678
 20
422.38
 30
0.0
 40
4.000000000000057
100
AcDbArc
 50
270.0
 51
90.0
  0
ARC
  5
93
330
1F
100
AcDbEntity
  8
0
  6
Continuous
 62
     7
370
    25
100
AcDbCircle
 10
235.6301012678
 20
358.38
 30
0.0
 40
3.000000000000057
100
AcDbArc
 50
90.0
 51
270.0
  0
ARC
  5
94
330
1F
100
AcDbEntity
  8
0
  6
Continuous
 62
     7
370
    25
100
AcDbCircle
 10
235.6301012678
 20
358.38
 30
0.0
 40
3.000000000000057
100
AcDbArc
 50
270.0
 51
90.0
  0
ARC
  5
95
330
1F
100
AcDbEntity
  8
0
  6
Continuous
 62
     7
370
    25
100
AcDbCircle
 10
69.6301012678
 20
358.38
 30
0.0
 40
3.000000000000057
100
AcDbArc
 50
90.0
 51
270.0
  0
ARC
  5
96
330
1F
100
AcDbEntity
  8
0
  6
Continuous
 62
     7
370
    25
100
AcDbCircle
 10
69.6301012678
 20
358.38
 30
0.0
 40
3.000000000000057
100
AcDbArc
 50
270.0
 51
90.0
  0
ARC
  5
97
330
1F
100
AcDbEntity
  8
0
  6
Continuous
 62
     7
370
    25
100
AcDbCircle
 10
0.6301012678
 20
517.38
 30
0.0
 40
5.000000000000004
100
AcDbArc
 50
90.0
 51
180.0
  0
LINE
  5
98
330
1F
100
AcDbEntity
  8
0
  6
Continuous
 62
     7
370
    25
100
AcDbLine
 10
367.6301012678
 20
522.38
 30
0.0
 11
0.6301012678
 21
522.38
 31
0.0
  0
LINE
  5
99
330
1F
100
AcDbEntity
  8
0
  6
HIDDEN
 62
     7
370
    18
100
AcDbLine
 10
376.6301012678
 20
441.88
 30
0.0
 11
367.6301012678
 21
441.88
 31
0.0
  0
LINE
  5
9A
330
1F
100
AcDbEntity
  8
0
  6
HIDDEN
 62
     7
370
    18
100
AcDbLine
 10
376.6301012678
 20
522.38
 30
0.0
 11
376.6301012678
 21
441.88
 31
0.0
  0
LINE
  5
9B
330
1F
100
AcDbEntity
  8
0
  6
HIDDEN
 62
     7
370
    18
100
AcDbLine
 10
0.6301012678
 20
441.88
 30
0.0
 11
367.6301012678
 21
441.88
 31
0.0
  0
LINE
  5
9C
330
1F
100
AcDbEntity
  8
0
  6
HIDDEN
 62
     7
370
    18
100
AcDbLine
 10
0.6301012678
 20
432.88
 30
0.0
 11
0.6301012678
 21
441.88
 31
0.0
  0
LINE
  5
9D
330
1F
100
AcDbEntity
  8
0
  6
HIDDEN
 62
     7
370
    18
100
AcDbLine
 10
0.6301012678
 20
432.88
 30
0.0
 11
367.6301012678
 21
432.88
 31
0.0
  0
LINE
  5
9E
330
1F
100
AcDbEntity
  8
0
  6
HIDDEN
 62
     7
370
    18
100
AcDbLine
 10
376.6301012678
 20
432.88
 30
0.0
 11
376.6301012678
 21
352.38
 31
0.0
  0
LINE
  5
9F
330
1F
100
AcDbEntity
  8
0
  6
HIDDEN
 62
     7
370
    18
100
AcDbLine
 10
367.6301012678
 20
432.88
 30
0.0
 11
376.6301012678
 21
432.88
 31
0.0
  0
LINE
  5
A0
330
1F
100
AcDbEntity
  8
0
  6
HIDDEN
 62
     7
370
    18
100
AcDbLine
 10
326.6301012678
 20
441.88
 30
0.0
 11
326.6301012678
 21
432.88
 31
0.0
  0
LINE
  5
A1
330
1F
100
AcDbEntity
  8
0
  6
HIDDEN
 62
     7
370
    18
100
AcDbLine
 10
346.6301012678
 20
441.88
 30
0.0
 11
346.6301012678
 21
432.88
 31
0.0
  0
LINE
  5
A2
330
1F
100
AcDbEntity
  8
0
  6
HIDDEN
 62
     7
370
    18
100
AcDbLine
 10
376.6301012678
 20
441.88
 30
0.0
 11
376.6301012678
 21
432.88
 31
0.0
  0
LINE
  5
A3
330
1F
100
AcDbEntity
  8
0
  6
HIDDEN
 62
     7
370
    18
100
AcDbLine
 10
385.6301012678
 20
514.38
 30
0.0
 11
376.6301012678
 21
514.38
 31
0.0
  0
LINE
  5
A4
330
1F
100
AcDbEntity
  8
0
  6
HIDDEN
 62
     7
370
    18
100
AcDbLine
 10
376.6301012678
 20
500.38
 30
0.0
 11
385.6301012678
 21
500.38
 31
0.0
  0
LINE
  5
A5
330
1F
100
AcDbEntity
  8
0
  6
HIDDEN
 62
     7
370
    18
100
AcDbLine
 10
385.6301012678
 20
374.38
 30
0.0
 11
376.6301012678
 21
374.38
 31
0.0
  0
LINE
  5
A6
330
1F
100
AcDbEntity
  8
0
  6
HIDDEN
 62
     7
370
    18
100
AcDbLine
 10
376.6301012678
 20
360.38
 30
0.0
 11
385.6301012678
 21
360.38
 31
0.0
  0
ARC
  5
A7
330
1F
100
AcDbEntity
  8
0
  6
Continuous
 62
     7
370
    25
100
AcDbCircle
 10
567.38
 20
-41.2718137448
 30
0.0
 40
5.000000000000007
100
AcDbArc
 50
180.0
 51
270.0
  0
LINE
  5
A8
330
1F
100
AcDbEntity
  8
0
  6
Continuous
 62
     7
370
    25
100
AcDbLine
 10
562.38
 20
-41.2718137448
 30
0.0
 11
562.38
 21
152.7281862552
 31
0.0
  0
LINE
  5
A9
330
1F
100
AcDbEntity
  8
0
  6
Continuous
 62
     7
370
    25
100
AcDbLine
 10
732.38
 20
-41.2718137448
 30
0.0
 11
732.38
 21
152.7281862552
 31
0.0
  0
ARC
  5
AA
330
1F
100
AcDbEntity
  8
0
  6
Continuous
 62
     7
370
    25
100
AcDbCircle
 10
727.38
 20
-41.2718137448
 30
0.0
 40
5.000000000000007
100
AcDbArc
 50
270.0
 51
0.0
  0
LINE
  5
AB
330
1F
100
AcDbEntity
  8
0
  6
Continuous
 62
     7
370
    25
100
AcDbLine
 10
727.38
 20
-46.2718137448
 30
0.0
 11
567.38
 21
-46.2718137448
 31
0.0
  0
ARC
  5
AC
330
1F
100
AcDbEntity
  8
0
  6
Continuous
 62
     7
370
    25
100
AcDbCircle
 10
577.38
 20
-1.2718137448
 30
0.0
 40
7.000000000000007
100
AcDbArc
 50
270.0
 51
90.0
  0
ARC
  5
AD
330
1F
100
AcDbEntity
  8
0
  6
Continuous
 62
     7
370
    25
100
AcDbCircle
 10
577.38
 20
-1.2718137448
 30
0.0
 40
7.000000000000007
100
AcDbArc
 50
90.0
 51
270.0
  0
ARC
  5
AE
330
1F
100
AcDbEntity
  8
0
  6
Continuous
 62
     7
370
    25
100
AcDbCircle
 10
717.38
 20
-1.2718137448
 30
0.0
 40
7.000000000000007
100
AcDbArc
 50
270.0
 51
90.0
  0
ARC
  5
AF
330
1F
100
AcDbEntity
  8
0
  6
Continuous
 62
     7
370
    25
100
AcDbCircle
 10
717.38
 20
-1.2718137448
 30
0.0
 40
7.000000000000007
100
AcDbArc
 50
90.0
 51
270.0
  0
ARC
  5
B0
330
1F
100
AcDbEntity
  8
0
  6
Continuous
 62
     7
370
    25
100
AcDbCircle
 10
717.38
 20
-31.2718137448
 30
0.0
 40
7.000000000000007
100
AcDbArc
 50
270.0
 51
90.0
  0
ARC
  5
B1
330
1F
100
AcDbEntity
  8
0
  6
Continuous
 62
     7
370
    25
100
AcDbCircle
 10
717.38
 20
-31.2718137448
 30
0.0
 40
7.000000000000007
100
AcDbArc
 50
90.0
 51
270.0
  0
ARC
  5
B2
330
1F
100
AcDbEntity
  8
0
  6
Continuous
 62
     7
370
    25
100
AcDbCircle
 10
577.38
 20
-31.2718137448
 30
0.0
 40
7.000000000000007
100
AcDbArc
 50
270.0
 51
90.0
  0
ARC
  5
B3
330
1F
100
AcDbEntity
  8
0
  6
Continuous
 62
     7
370
    25
100
AcDbCircle
 10
577.38
 20
-31.2718137448
 30
0.0
 40
7.000000000000007
100
AcDbArc
 50
90.0
 51
270.0
  0
LINE
  5
B4
330
1F
100
AcDbEntity
  8
0
  6
Continuous
 62
     7
370
    25
100
AcDbLine
 10
732.38
 20
152.7281862552
 30
0.0
 11
732.38
 21
170.7281862552
 31
0.0
  0
LINE
  5
B5
330
1F
100
AcDbEntity
  8
0
  6
Continuous
 62
     7
370
    25
100
AcDbLine
 10
562.38
 20
152.7281862552
 30
0.0
 11
562.38
 21
170.7281862552
 31
0.0
  0
LINE
  5
B6
330
1F
100
AcDbEntity
  8
0
  6
Continuous
 62
     7
370
    25
100
AcDbLine
 10
732.38
 20
170.7281862552
 30
0.0
 11
562.38
 21
170.7281862552
 31
0.0
  0
LINE
  5
B7
330
1F
100
AcDbEntity
  8
0
  6
HIDDEN
 62
     7
370
    18
100
AcDbLine
 10
732.38
 20
161.7281862552
 30
0.0
 11
651.88
 21
161.7281862552
 31
0.0
  0
LINE
  5
B8
330
1F
100
AcDbEntity
  8
0
  6
HIDDEN
 62
     7
370
    18
100
AcDbLine
 10
651.88
 20
152.7281862552
 30
0.0
 11
651.88
 21
161.7281862552
 31
0.0
  0
LINE
  5
B9
330
1F
100
AcDbEntity
  8
0
  6
HIDDEN
 62
     7
370
    18
100
AcDbLine
 10
651.88
 20
152.7281862552
 30
0.0
 11
651.88
 21
-41.2718137448
 31
0.0
  0
LINE
  5
BA
330
1F
100
AcDbEntity
  8
0
  6
HIDDEN
 62
     7
370
    18
100
AcDbLine
 10
651.88
 20
-41.2718137448
 30
0.0
 11
642.88
 21
-41.2718137448
 31
0.0
  0
LINE
  5
BB
330
1F
100
AcDbEntity
  8
0
  6
HIDDEN
 62
     7
370
    18
100
AcDbLine
 10
642.88
 20
161.7281862552
 30
0.0
 11
642.88
 21
152.7281862552
 31
0.0
  0
LINE
  5
BC
330
1F
100
AcDbEntity
  8
0
  6
HIDDEN
 62
     7
370
    18
100
AcDbLine
 10
642.88
 20
161.7281862552
 30
0.0
 11
562.38
 21
161.7281862552
 31
0.0
  0
LINE
  5
BD
330
1F
100
AcDbEntity
  8
0
  6
HIDDEN
 62
     7
370
    18
100
AcDbLine
 10
642.88
 20
-41.2718137448
 30
0.0
 11
642.88
 21
152.7281862552
 31
0.0
  0
LINE
  5
BE
330
1F
100
AcDbEntity
  8
0
  6
HIDDEN
 62
     7
370
    18
100
AcDbLine
 10
651.88
 20
-21.2718137448
 30
0.0
 11
642.88
 21
-21.2718137448
 31
0.0
  0
LINE
  5
BF
330
1F
100
AcDbEntity
  8
0
  6
HIDDEN
 62
     7
370
    18
100
AcDbLine
 10
668.38
 20
161.7281862552
 30
0.0
 11
668.38
 21
170.7281862552
 31
0.0
  0
LINE
  5
C0
330
1F
100
AcDbEntity
  8
0
  6
HIDDEN
 62
     7
370
    18
100
AcDbLine
 10
676.38
 20
161.7281862552
 30
0.0
 11
676.38
 21
170.7281862552
 31
0.0
  0
LINE
  5
C1
330
1F
100
AcDbEntity
  8
0
  6
HIDDEN
 62
     7
370
    18
100
AcDbLine
 10
628.38
 20
161.7281862552
 30
0.0
 11
628.38
 21
170.7281862552
 31
0.0
  0
LINE
  5
C2
330
1F
100
AcDbEntity
  8
0
  6
HIDDEN
 62
     7
370
    18
100
AcDbLine
 10
636.38
 20
161.7281862552
 30
0.0
 11
636.38
 21
170.7281862552
 31
0.0
  0
LINE
  5
C3
330
1F
100
AcDbEntity
  8
0
  6
HIDDEN
 62
     7
370
    18
100
AcDbLine
 10
657.38
 20
161.7281862552
 30
0.0
 11
657.38
 21
170.7281862552
 31
0.0
  0
LINE
  5
C4
330
1F
100
AcDbEntity
  8
0
  6
HIDDEN
 62
     7
370
    18
100
AcDbLine
 10
663.38
 20
161.7281862552
 30
0.0
 11
663.38
 21
170.7281862552
 31
0.0
  0
LINE
  5
C5
330
1F
100
AcDbEntity
  8
0
  6
HIDDEN
 62
     7
370
    18
100
AcDbLine
 10
565.38
 20
161.7281862552
 30
0.0
 11
565.38
 21
170.7281862552
 31
0.0
  0
LINE
  5
C6
330
1F
100
AcDbEntity
  8
0
  6
HIDDEN
 62
     7
370
    18
100
AcDbLine
 10
571.38
 20
161.7281862552
 30
0.0
 11
571.38
 21
170.7281862552
 31
0.0
  0
LINE
  5
C7
330
1F
100
AcDbEntity
  8
0
  6
HIDDEN
 62
     7
370
    18
100
AcDbLine
 10
651.88
 20
141.7281862552
 30
0.0
 11
642.88
 21
141.7281862552
 31
0.0
  0
LINE
  5
C8
330
1F
100
AcDbEntity
  8
0
  6
HIDDEN
 62
     7
370
    18
100
AcDbLine
 10
642.88
 20
161.7281862552
 30
0.0
 11
651.88
 21
161.7281862552
 31
0.0
  0
LINE
  5
C9
330
1F
100
AcDbEntity
  8
0
  6
Continuous
 62
     7
370
    25
100
AcDbLine
 10
719.8335219742
 20
239.9555027855
 30
0.0
 11
726.1974830049
 21
236.2816662823
 31
0.0
  0
LINE
  5
CA
330
1F
100
AcDbEntity
  8
0
  6
Continuous
 62
     7
370
    25
100
AcDbLine
 10
451.4611690796
 20
570.8771242399
 30
0.0
 11
451.4611690796
 21
563.5282569329
 31
0.0
  0
ARC
  5
CB
330
1F
100
AcDbEntity
  8
0
  6
Continuous
 62
     7
370
    25
100
AcDbCircle
 10
697.63497727
 20
395.7841589129
 30
0.0
 40
27.55272344435171
100
AcDbArc
 50
2.487128189
 51
57.5128719567
  0
LINE
  5
CC
330
1F
100
AcDbEntity
  8
0
  6
Continuous
 62
     7
370
    25
100
AcDbLine
 10
725.1617459305
 20
238.5708903146
 30
0.0
 11
725.1617459305
 21
396.9798078205
 31
0.0
  0
LINE
  5
CD
330
1F
100
AcDbEntity
  8
0
  6
Continuous
 62
     7
370
    25
100
AcDbLine
 10
718.7977848998
 20
400.6536443237
 30
0.0
 11
718.7977848998
 21
242.2447268178
 31
0.0
  0
ARC
  5
CE
330
1F
100
AcDbEntity
  8
0
  6
Continuous
 62
     7
370
    25
100
AcDbCircle
 10
704.9808399875
 20
400.0248966533
 30
0.0
 40
13.83124326814839
100
AcDbArc
 50
2.6054784857
 51
57.39452166
  0
LINE
  5
CF
330
1F
100
AcDbEntity
  8
0
  6
Continuous
 62
     7
370
    25
100
AcDbLine
 10
452.9256351737
 20
561.4872366533
 30
0.0
 11
712.4338238692
 21
411.6763481339
 31
0.0
  0
LINE
  5
D0
330
1F
100
AcDbEntity
  8
0
  6
Continuous
 62
     7
370
    25
100
AcDbLine
 10
712.4338238692
 20
419.0252154408
 30
0.0
 11
452.9256351737
 21
568.8361039603
 31
0.0
  0
ARC
  5
D1
330
1F
100
AcDbEntity
  8
0
  6
Continuous
 62
     7
370
    25
100
AcDbCircle
 10
817.8431300717
 20
465.1788484178
 30
0.0
 40
27.55272344435191
100
AcDbArc
 50
2.487128189
 51
57.5128719567
  0
ARC
  5
D2
330
1F
100
AcDbEntity
  8
0
  6
Continuous
 62
     7
370
    25
100
AcDbCircle
 10
727.3171177677
 20
238.2212543301
 30
0.0
 40
2.183545987142445
100
AcDbArc
 50
170.7859630095
 51
309.2032852357
  0
LINE
  5
D3
330
1F
100
AcDbEntity
  8
0
  6
Continuous
 62
     7
370
    25
100
AcDbLine
 10
845.3698987322
 20
307.9655798196
 30
0.0
 11
845.3698987322
 21
466.3744973254
 31
0.0
  0
ARC
  5
D4
330
1F
100
AcDbEntity
  8
0
  6
Continuous
 62
     7
370
    25
100
AcDbCircle
 10
837.6938182254
 20
308.3148840809
 30
0.0
 40
7.684024037859944
100
AcDbArc
 50
302.60547834
 51
357.3945215143
  0
LINE
  5
D5
330
1F
100
AcDbEntity
  8
0
  6
Continuous
 62
     7
370
    25
100
AcDbLine
 10
841.8343648263
 20
301.8418554806
 30
0.0
 11
728.6972798365
 21
236.5292065348
 31
0.0
  0
LWPOLYLINE
  5
D6
330
1F
100
AcDbEntity
  8
0
  6
Continuous
 62
     7
370
    25
100
AcDbPolyline
 90
       15
 70
   128
 43
0.0
 10
735.7683476483
 20
271.6397979455
 10
736.8697700778
 20
272.4189422605
 10
737.9159625876
 20
273.4456303873
 10
738.8544647166
 20
274.6683798961
 10
739.6382160493
 20
276.0258770209
 10
740.2279160212
 20
277.4500511874
 10
740.5939946134
 20
278.869488356
 10
740.7180951166
 20
280.2130120201
 10
740.5939946134
 20
281.4132522931
 10
740.2279160212
 20
282.4100241159
 10
739.6382160493
 20
283.1533451871
 10
738.8544647166
 20
283.6059422845
 10
737.9159625876
 20
283.7451202996
 10
736.8697700778
 20
283.5639002657
 10
735.7683476483
 20
283.0713693119
  0
LWPOLYLINE
  5
D7
330
1F
100
AcDbEntity
  8
0
  6
Continuous
 62
     7
370
    25
100
AcDbPolyline
 90
       15
 70
   128
 43
0.0
 10
735.7683476483
 20
283.0713693119
 10
734.6669252188
 20
282.292224997
 10
733.6207327091
 20
281.2655368702
 10
732.6822305801
 20
280.0427873613
 10
731.8984792473
 20
278.6852902366
 10
731.3087792754
 20
277.2611160701
 10
730.9427006832
 20
275.8416789014
 10
730.81860018
 20
274.4981552374
 10
730.9427006832
 20
273.2979149644
 10
731.3087792754
 20
272.3011431416
 10
731.8984792473
 20
271.5578220704
 10
732.6822305801
 20
271.105224973
 10
733.6207327091
 20
270.9660469579
 10
734.6669252188
 20
271.1472669918
 10
735.7683476483
 20
271.6397979455
  0
LWPOLYLINE
  5
D8
330
1F
100
AcDbEntity
  8
0
  6
Continuous
 62
     7
370
    25
100
AcDbPolyline
 90
       15
 70
   128
 43
0.0
 10
834.7632970144
 20
328.7883657731
 10
835.8647194439
 20
329.5675100881
 10
836.9109119537
 20
330.5941982149
 10
837.8494140827
 20
331.8169477237
 10
838.6331654154
 20
333.1744448485
 10
839.2228653874
 20
334.598619015
 10
839.5889439795
 20
336.0180561836
 10
839.7130444827
 20
337.3615798477
 10
839.5889439795
 20
338.5618201207
 10
839.2228653874
 20
339.5585919435
 10
838.6331654154
 20
340.3019130147
 10
837.8494140827
 20
340.7545101121
 10
836.9109119537
 20
340.8936881272
 10
835.8647194439
 20
340.7124680933
 10
834.7632970144
 20
340.2199371395
  0
LWPOLYLINE
  5
D9
330
1F
100
AcDbEntity
  8
0
  6
Continuous
 62
     7
370
    25
100
AcDbPolyline
 90
       15
 70
   128
 43
0.0
 10
834.7632970144
 20
340.2199371395
 10
833.6618745849
 20
339.4407928246
 10
832.6156820752
 20
338.4141046978
 10
831.6771799462
 20
337.1913551889
 10
830.8934286134
 20
335.8338580641
 10
830.3037286415
 20
334.4096838977
 10
829.9376500493
 20
332.990246729
 10
829.8135495461
 20
331.646723065
 10
829.9376500493
 20
330.446482792
 10
830.3037286415
 20
329.4497109692
 10
830.8934286134
 20
328.706389898
 10
831.6771799462
 20
328.2537928006
 10
832.6156820752
 20
328.1146147855
 10
833.6618745849
 20
328.2958348194
 10
834.7632970144
 20
328.7883657731
  0
LWPOLYLINE
  5
DA
330
1F
100
AcDbEntity
  8
0
  6
Continuous
 62
     7
370
    25
100
AcDbPolyline
 90
       15
 70
   128
 43
0.0
 10
834.7632970144
 20
304.2921414166
 10
835.8647194439
 20
305.0712857315
 10
836.9109119537
 20
306.0979738583
 10
837.8494140827
 20
307.3207233672
 10
838.6331654154
 20
308.678220492
 10
839.2228653874
 20
310.1023946584
 10
839.5889439795
 20
311.5218318271
 10
839.7130444827
 20
312.8653554911
 10
839.5889439795
 20
314.0655957641
 10
839.2228653874
 20
315.0623675869
 10
838.6331654154
 20
315.8056886581
 10
837.8494140827
 20
316.2582857555
 10
836.9109119537
 20
316.3974637706
 10
835.8647194439
 20
316.2162437367
 10
834.7632970144
 20
315.723712783
  0
LWPOLYLINE
  5
DB
330
1F
100
AcDbEntity
  8
0
  6
Continuous
 62
     7
370
    25
100
AcDbPolyline
 90
       15
 70
   128
 43
0.0
 10
834.7632970144
 20
315.723712783
 10
833.6618745849
 20
314.944568468
 10
832.6156820752
 20
313.9178803412
 10
831.6771799462
 20
312.6951308324
 10
830.8934286134
 20
311.3376337076
 10
830.3037286415
 20
309.9134595411
 10
829.9376500493
 20
308.4940223725
 10
829.8135495461
 20
307.1504987084
 10
829.9376500493
 20
305.9502584354
 10
830.3037286415
 20
304.9534866126
 10
830.8934286134
 20
304.2101655414
 10
831.6771799462
 20
303.757568444
 10
832.6156820752
 20
303.6183904289
 10
833.6618745849
 20
303.7996104628
 10
834.7632970144
 20
304.2921414166
  0
LWPOLYLINE
  5
DC
330
1F
100
AcDbEntity
  8
0
  6
Continuous
 62
     7
370
    25
100
AcDbPolyline
 90
       15
 70
   128
 43
0.0
 10
735.7683476483
 20
247.143573589
 10
736.8697700778
 20
247.9227179039
 10
737.9159625876
 20
248.9494060307
 10
738.8544647166
 20
250.1721555396
 10
739.6382160493
 20
251.5296526644
 10
740.2279160212
 20
252.9538268308
 10
740.5939946134
 20
254.3732639995
 10
740.7180951166
 20
255.7167876636
 10
740.5939946134
 20
256.9170279365
 10
740.2279160212
 20
257.9137997593
 10
739.6382160493
 20
258.6571208305
 10
738.8544647166
 20
259.1097179279
 10
737.9159625876
 20
259.2488959431
 10
736.8697700778
 20
259.0676759091
 10
735.7683476483
 20
258.5751449554
  0
LWPOLYLINE
  5
DD
330
1F
100
AcDbEntity
  8
0
  6
Continuous
 62
     7
370
    25
100
AcDbPolyline
 90
       15
 70
   128
 43
0.0
 10
735.7683476483
 20
258.5751449554
 10
734.6669252188
 20
257.7960006404
 10
733.6207327091
 20
256.7693125136
 10
732.6822305801
 20
255.5465630048
 10
731.8984792473
 20
254.18906588
 10
731.3087792754
 20
252.7648917135
 10
730.9427006832
 20
251.3454545449
 10
730.81860018
 20
250.0019308808
 10
730.9427006832
 20
248.8016906078
 10
731.3087792754
 20
247.8049187851
 10
731.8984792473
 20
247.0615977138
 10
732.6822305801
 20
246.6090006164
 10
733.6207327091
 20
246.4698226013
 10
734.6669252188
 20
246.6510426352
 10
735.7683476483
 20
247.143573589
  0
ARC
  5
DE
330
1F
100
AcDbEntity
  8
0
  6
Continuous
 62
     7
370
    25
100
AcDbCircle
 10
569.5982540695
 20
631.4072380404
 30
0.0
 40
7.685109539558857
100
AcDbArc
 50
62.6096722366
 51
117.3903277634
  0
LINE
  5
DF
330
1F
100
AcDbEntity
  8
0
  6
Continuous
 62
     7
370
    25
100
AcDbLine
 10
832.6419766709
 20
488.4199049458
 30
0.0
 11
573.1337879754
 21
638.2307934652
 31
0.0
  0
ARC
  5
E0
330
1F
100
AcDbEntity
  8
0
  6
Continuous
 62
     7
370
    25
100
AcDbCircle
 10
453.7002703077
 20
570.8771242399
 30
0.0
 40
2.183076584171454
100
AcDbArc
 50
110.7834207995
 51
249.2165792005
  0
LINE
  5
E1
330
1F
100
AcDbEntity
  8
0
  6
Continuous
 62
     7
370
    25
100
AcDbLine
 10
566.0627201635
 20
638.2307934652
 30
0.0
 11
452.9256351737
 21
572.9181445194
 31
0.0
  0
LWPOLYLINE
  5
E2
330
1F
100
AcDbEntity
  8
0
  6
Continuous
 62
     7
370
    25
100
AcDbPolyline
 90
       11
 70
   128
 43
0.0
 10
532.4751480572
 20
583.3273479451
 10
531.4626829314
 20
583.7520001927
 10
530.2724587926
 20
583.9752530911
 10
529.0209830723
 20
583.9752530911
 10
527.8307589335
 20
583.7520001927
 10
526.8182938077
 20
583.3273479451
 10
526.0826948357
 20
582.7428642691
 10
525.6959675701
 20
582.0557624992
 10
525.6959675701
 20
581.3333009438
 10
526.0826948357
 20
580.6461991739
 10
526.8182938077
 20
580.0617154979
  0
LWPOLYLINE
  5
E3
330
1F
100
AcDbEntity
  8
0
  6
Continuous
 62
     7
370
    25
100
AcDbPolyline
 90
       11
 70
   128
 43
0.0
 10
526.8182938077
 20
580.0617154979
 10
527.8307589335
 20
579.6370632503
 10
529.0209830723
 20
579.4138103519
 10
530.2724587926
 20
579.4138103519
 10
531.4626829314
 20
579.6370632503
 10
532.4751480572
 20
580.0617154979
 10
533.2107470292
 20
580.6461991739
 10
533.5974742948
 20
581.3333009438
 10
533.5974742948
 20
582.0557624992
 10
533.2107470292
 20
582.7428642691
 10
532.4751480572
 20
583.3273479451
  0
LWPOLYLINE
  5
E4
330
1F
100
AcDbEntity
  8
0
  6
Continuous
 62
     7
370
    25
100
AcDbPolyline
 90
       10
 70
   128
 43
0.0
 10
573.1337879754
 20
581.8986337495
 10
572.2803224171
 20
582.2436226282
 10
571.2739348601
 20
582.3992944559
 10
570.2360104965
 20
582.3468729126
 10
569.2917383228
 20
582.0926808102
 10
568.555011499
 20
581.6673774677
 10
568.114690153
 20
581.1222607449
 10
568.0238835376
 20
580.5230797637
 10
568.2935442707
 20
579.9421045935
 10
568.8911472883
 20
579.449409414
  0
LWPOLYLINE
  5
E5
330
1F
100
AcDbEntity
  8
0
  6
Continuous
 62
     7
370
    25
100
AcDbPolyline
 90
       10
 70
   128
 43
0.0
 10
568.8911472883
 20
579.449409414
 10
569.7446128466
 20
579.1044205353
 10
570.7510004036
 20
578.9487487076
 10
571.7889247672
 20
579.0011702508
 10
572.7331969409
 20
579.2553623532
 10
573.4699237647
 20
579.6806656958
 10
573.9102451107
 20
580.2257824186
 10
574.0010517261
 20
580.8249633997
 10
573.731390993
 20
581.4059385699
 10
573.1337879754
 20
581.8986337495
  0
LWPOLYLINE
  5
E6
330
1F
100
AcDbEntity
  8
0
  6
Continuous
 62
     7
370
    25
100
AcDbPolyline
 90
       11
 70
   128
 43
0.0
 10
560.7594193046
 20
599.6555101816
 10
559.7469541789
 20
600.0801624292
 10
558.5567300401
 20
600.3034153275
 10
557.3052543197
 20
600.3034153275
 10
556.1150301809
 20
600.0801624292
 10
555.1025650552
 20
599.6555101816
 10
554.3669660831
 20
599.0710265056
 10
553.9802388175
 20
598.3839247356
 10
553.9802388175
 20
597.6614631803
 10
554.3669660831
 20
596.9743614103
 10
555.1025650552
 20
596.3898777343
  0
LWPOLYLINE
  5
E7
330
1F
100
AcDbEntity
  8
0
  6
Continuous
 62
     7
370
    25
100
AcDbPolyline
 90
       11
 70
   128
 43
0.0
 10
555.1025650552
 20
596.3898777343
 10
556.1150301809
 20
595.9652254868
 10
557.3052543197
 20
595.7419725884
 10
558.5567300401
 20
595.7419725884
 10
559.7469541789
 20
595.9652254868
 10
560.7594193046
 20
596.3898777343
 10
561.4950182767
 20
596.9743614103
 10
561.8817455423
 20
597.6614631803
 10
561.8817455423
 20
598.3839247356
 10
561.4950182767
 20
599.0710265056
 10
560.7594193046
 20
599.6555101816
  0
LWPOLYLINE
  5
E8
330
1F
100
AcDbEntity
  8
0
  6
Continuous
 62
     7
370
    25
100
AcDbPolyline
 90
       11
 70
   128
 43
0.0
 10
721.272658634
 20
506.9931894897
 10
720.2601935082
 20
507.4178417373
 10
719.0699693694
 20
507.6410946357
 10
717.8184936491
 20
507.6410946357
 10
716.6282695103
 20
507.4178417373
 10
715.6158043845
 20
506.9931894897
 10
714.8802054125
 20
506.4087058137
 10
714.4934781469
 20
505.7216040437
 10
714.4934781469
 20
504.9991424884
 10
714.8802054125
 20
504.3120407185
 10
715.6158043845
 20
503.7275570424
  0
LWPOLYLINE
  5
E9
330
1F
100
AcDbEntity
  8
0
  6
Continuous
 62
     7
370
    25
100
AcDbPolyline
 90
       11
 70
   128
 43
0.0
 10
715.6158043845
 20
503.7275570424
 10
716.6282695103
 20
503.3029047949
 10
717.8184936491
 20
503.0796518965
 10
719.0699693694
 20
503.0796518965
 10
720.2601935082
 20
503.3029047949
 10
721.272658634
 20
503.7275570424
 10
722.008257606
 20
504.3120407185
 10
722.3949848716
 20
504.9991424884
 10
722.3949848716
 20
505.7216040437
 10
722.008257606
 20
506.4087058137
 10
721.272658634
 20
506.9931894897
  0
LWPOLYLINE
  5
EA
330
1F
100
AcDbEntity
  8
0
  6
Continuous
 62
     7
370
    25
100
AcDbPolyline
 90
       10
 70
   128
 43
0.0
 10
690.5135136524
 20
514.1367604682
 10
689.660048094
 20
514.4817493469
 10
688.6536605371
 20
514.6374211746
 10
687.6157361735
 20
514.5849996313
 10
686.6714639998
 20
514.3308075289
 10
685.934737176
 20
513.9055041864
 10
685.49441583
 20
513.3603874636
 10
685.4036092145
 20
512.7612064825
 10
685.6732699477
 20
512.1802313122
 10
686.2708729653
 20
511.6875361327
  0
LWPOLYLINE
  5
EB
330
1F
100
AcDbEntity
  8
0
  6
Continuous
 62
     7
370
    25
100
AcDbPolyline
 90
       10
 70
   128
 43
0.0
 10
686.2708729653
 20
511.6875361327
 10
687.1243385236
 20
511.342547254
 10
688.1307260806
 20
511.1868754263
 10
689.1686504441
 20
511.2392969695
 10
690.1129226179
 20
511.4934890719
 10
690.8496494417
 20
511.9187924145
 10
691.2899707877
 20
512.4639091373
 10
691.3807774031
 20
513.0630901184
 10
691.1111166699
 20
513.6440652887
 10
690.5135136524
 20
514.1367604682
  0
LWPOLYLINE
  5
EC
330
1F
100
AcDbEntity
  8
0
  6
Continuous
 62
     7
370
    25
100
AcDbPolyline
 90
       11
 70
   128
 43
0.0
 10
692.9883873865
 20
490.6650272533
 10
691.9759222607
 20
491.0896795008
 10
690.7856981219
 20
491.3129323992
 10
689.5342224016
 20
491.3129323992
 10
688.3439982628
 20
491.0896795008
 10
687.331533137
 20
490.6650272533
 10
686.595934165
 20
490.0805435772
 10
686.2092068994
 20
489.3934418073
 10
686.2092068994
 20
488.670980252
 10
686.595934165
 20
487.983878482
 10
687.331533137
 20
487.399394806
  0
LWPOLYLINE
  5
ED
330
1F
100
AcDbEntity
  8
0
  6
Continuous
 62
     7
370
    25
100
AcDbPolyline
 90
       11
 70
   128
 43
0.0
 10
687.331533137
 20
487.399394806
 10
688.3439982628
 20
486.9747425584
 10
689.5342224016
 20
486.75148966
 10
690.7856981219
 20
486.75148966
 10
691.9759222607
 20
486.9747425584
 10
692.9883873865
 20
487.399394806
 10
693.7239863585
 20
487.983878482
 10
694.1107136242
 20
488.670980252
 10
694.1107136242
 20
489.3934418073
 10
693.7239863585
 20
490.0805435772
 10
692.9883873865
 20
490.6650272533
  0
LWPOLYLINE
  5
EE
330
1F
100
AcDbEntity
  8
0
  6
Continuous
 62
     7
370
    25
100
AcDbPolyline
 90
       10
 70
   128
 43
0.0
 10
625.4596897832
 20
476.5819873243
 10
624.6062242249
 20
476.9269762031
 10
623.5998366679
 20
477.0826480308
 10
622.5619123043
 20
477.0302264875
 10
621.6176401306
 20
476.7760343851
 10
620.8809133068
 20
476.3507310425
 10
620.4405919608
 20
475.8056143198
 10
620.3497853454
 20
475.2064333386
 10
620.6194460785
 20
474.6254581684
 10
621.2170490961
 20
474.1327629889
  0
LWPOLYLINE
  5
EF
330
1F
100
AcDbEntity
  8
0
  6
Continuous
 62
     7
370
    25
100
AcDbPolyline
 90
       10
 70
   128
 43
0.0
 10
621.2170490961
 20
474.1327629889
 10
622.0705146544
 20
473.7877741101
 10
623.0769022114
 20
473.6321022824
 10
624.114826575
 20
473.6845238257
 10
625.0590987487
 20
473.9387159281
 10
625.7958255725
 20
474.3640192707
 10
626.2361469185
 20
474.9091359934
 10
626.3269535339
 20
475.5083169746
 10
626.0572928008
 20
476.0892921448
 10
625.4596897832
 20
476.5819873243
  0
LWPOLYLINE
  5
F0
330
1F
100
AcDbEntity
  8
0
  6
Continuous
 62
     7
370
    25
100
AcDbPolyline
 90
       10
 70
   128
 43
0.0
 10
508.0799641063
 20
544.3438606056
 10
507.2264985479
 20
544.6888494844
 10
506.2201109909
 20
544.844521312
 10
505.1821866274
 20
544.7920997688
 10
504.2379144536
 20
544.5379076664
 10
503.5011876298
 20
544.1126043238
 10
503.0608662838
 20
543.5674876011
 10
502.9700596684
 20
542.9683066199
 10
503.2397204016
 20
542.3873314497
 10
503.8373234191
 20
541.8946362701
  0
LWPOLYLINE
  5
F1
330
1F
100
AcDbEntity
  8
0
  6
Continuous
 62
     7
370
    25
100
AcDbPolyline
 90
       10
 70
   128
 43
0.0
 10
503.8373234191
 20
541.8946362701
 10
504.6907889775
 20
541.5496473914
 10
505.6971765344
 20
541.3939755637
 10
506.735100898
 20
541.446397107
 10
507.6793730717
 20
541.7005892094
 10
508.4160998956
 20
542.1258925519
 10
508.8564212416
 20
542.6710092747
 10
508.947227857
 20
543.2701902559
 10
508.6775671238
 20
543.8511654261
 10
508.0799641063
 20
544.3438606056
  0
ARC
  5
F2
330
1F
100
AcDbEntity
  8
0
  6
Continuous
 62
     7
370
    25
100
AcDbCircle
 10
722.8614603816
 20
284.8065710491
 30
0.0
 40
11.6016449382323
100
AcDbArc
 50
315.4425664647
 51
344.562810068
  0
ARC
  5
F3
330
1F
100
AcDbEntity
  8
0
  6
Continuous
 62
     7
370
    25
100
AcDbCircle
 10
722.8614603816
 20
260.3103466925
 30
0.0
 40
11.60164493823443
100
AcDbArc
 50
315.4425664647
 51
344.562810068
  0
ARC
  5
F4
330
1F
100
AcDbEntity
  8
0
  6
Continuous
 62
     7
370
    25
100
AcDbCircle
 10
721.247794412
 20
241.9742931313
 30
0.0
 40
2.464889650374206
100
AcDbArc
 50
173.7011524866
 51
234.98666712
  0
ARC
  5
F5
330
1F
100
AcDbEntity
  8
0
  6
Continuous
 62
     7
370
    25
100
AcDbCircle
 10
821.8564097478
 20
341.9551388767
 30
0.0
 40
11.60164493823546
100
AcDbArc
 50
315.4425664647
 51
344.562810068
  0
ARC
  5
F6
330
1F
100
AcDbEntity
  8
0
  6
Continuous
 62
     7
370
    25
100
AcDbCircle
 10
821.8564097478
 20
317.4589145201
 30
0.0
 40
11.60164493823423
100
AcDbArc
 50
315.4425664647
 51
344.562810068
  0
ARC
  5
F7
330
1F
100
AcDbEntity
  8
0
  6
Continuous
 62
     7
370
    25
100
AcDbCircle
 10
453.9634543921
 20
563.7777888174
 30
0.0
 40
2.514696392468607
100
AcDbArc
 50
185.6947992512
 51
245.6253417064
  0
LINE
  5
F8
330
1F
100
AcDbEntity
  8
0
  6
HIDDEN
 62
     7
370
    18
100
AcDbLine
 10
740.364541726
 20
311.846172352
 30
0.0
 11
740.364541726
 21
375.5507210899
 31
0.0
  0
LWPOLYLINE
  5
F9
330
1F
100
AcDbEntity
  8
0
  6
HIDDEN
 62
     7
370
    18
100
AcDbPolyline
 90
       14
 70
   128
 43
0.0
 10
740.364541726
 20
375.5507210899
 10
740.2436084
 20
378.2324802883
 10
739.8821872676
 20
381.0232895101
 10
739.2843991456
 20
383.8913287767
 10
738.4570598367
 20
386.8038975552
 10
737.4096024182
 20
389.7277876003
 10
736.1539696889
 20
392.6296615853
 10
734.7044780006
 20
395.476433204
 10
733.0776540276
 20
398.2356444108
 10
731.2920463342
 20
400.8758354982
 10
729.3680138895
 20
403.3669037907
 10
727.3274939406
 20
405.6804468667
 10
725.1937518906
 20
407.7900863943
 10
722.9911160335
 20
409.6717688896
  0
LINE
  5
FA
330
1F
100
AcDbEntity
  8
0
  6
HIDDEN
 62
     7
370
    18
100
AcDbLine
 10
722.9911160335
 20
409.6717688896
 30
0.0
 11
509.8477310592
 21
578.0168469165
 31
0.0
  0
LINE
  5
FB
330
1F
100
AcDbEntity
  8
0
  6
HIDDEN
 62
     7
370
    18
100
AcDbLine
 10
509.8477310592
 20
578.0168469165
 30
0.0
 11
509.8477310592
 21
594.3476631542
 31
0.0
  0
LINE
  5
FC
330
1F
100
AcDbEntity
  8
0
  6
HIDDEN
 62
     7
370
    18
100
AcDbLine
 10
754.5066773498
 20
287.3512749961
 30
0.0
 11
775.7198807854
 21
275.1051533187
 31
0.0
  0
LINE
  5
FD
330
1F
100
AcDbEntity
  8
0
  6
HIDDEN
 62
     7
370
    18
100
AcDbLine
 10
754.5066773498
 20
287.3512749961
 30
0.0
 11
740.364541726
 21
311.846172352
 31
0.0
  0
LINE
  5
FE
330
1F
100
AcDbEntity
  8
0
  6
HIDDEN
 62
     7
370
    18
100
AcDbLine
 10
509.8477310592
 20
594.3476631542
 30
0.0
 11
769.3559197547
 21
444.5367746347
 31
0.0
  0
LINE
  5
FF
330
1F
100
AcDbEntity
  8
0
  6
HIDDEN
 62
     7
370
    18
100
AcDbLine
 10
775.7198807854
 20
275.1051533187
 30
0.0
 11
775.7198807854
 21
433.5140708245
 31
0.0
  0
ARC
  5
100
330
1F
100
AcDbEntity
  8
0
  6
HIDDEN
 62
     7
370
    18
100
AcDbCircle
 10
761.9029358731
 20
432.8853231542
 30
0.0
 40
13.83124326814871
100
AcDbArc
 50
2.6054784857
 51
57.39452166
  0
ARC
  5
101
330
1F
100
AcDbEntity
  8
0
  6
HIDDEN
 62
     7
370
    18
100
AcDbCircle
 10
768.2668969037
 20
436.5591596574
 30
0.0
 40
13.83124326814827
100
AcDbArc
 50
2.6054784857
 51
57.39452166
  0
LINE
  5
102
330
1F
100
AcDbEntity
  8
0
  6
HIDDEN
 62
     7
370
    18
100
AcDbLine
 10
516.2116920899
 20
598.0214996574
 30
0.0
 11
775.7198807854
 21
448.2106111379
 31
0.0
  0
LINE
  5
103
330
1F
100
AcDbEntity
  8
0
  6
HIDDEN
 62
     7
370
    18
100
AcDbLine
 10
782.083841816
 20
437.1879073277
 30
0.0
 11
782.083841816
 21
278.7789898219
 31
0.0
  0
LWPOLYLINE
  5
104
330
1F
100
AcDbEntity
  8
0
  6
HIDDEN
 62
     7
370
    18
100
AcDbPolyline
 90
       10
 70
   128
 43
0.0
 10
621.2170490961
 20
466.7838956819
 10
622.0705146544
 20
466.4389068032
 10
623.0769022114
 20
466.2832349755
 10
624.114826575
 20
466.3356565187
 10
625.0590987487
 20
466.5898486211
 10
625.7958255725
 20
467.0151519637
 10
626.2361469185
 20
467.5602686864
 10
626.3269535339
 20
468.1594496676
 10
626.0572928008
 20
468.7404248378
 10
625.4596897832
 20
469.2331200174
  0
LWPOLYLINE
  5
105
330
1F
100
AcDbEntity
  8
0
  6
HIDDEN
 62
     7
370
    18
100
AcDbPolyline
 90
       10
 70
   128
 43
0.0
 10
625.4596897832
 20
469.2331200174
 10
624.6062242249
 20
469.5781088961
 10
623.5998366679
 20
469.7337807238
 10
622.5619123043
 20
469.6813591805
 10
621.6176401306
 20
469.4271670781
 10
620.8809133068
 20
469.0018637356
 10
620.4405919608
 20
468.4567470128
 10
620.3497853454
 20
467.8575660316
 10
620.6194460785
 20
467.2765908614
 10
621.2170490961
 20
466.7838956819
  0
ARC
  5
106
330
1F
100
AcDbEntity
  8
0
  6
HIDDEN
 62
     7
370
    18
100
AcDbCircle
 10
825.1889927892
 20
469.4195861583
 30
0.0
 40
13.83124326814854
100
AcDbArc
 50
2.6054784857
 51
57.39452166
  0
LINE
  5
107
330
1F
100
AcDbEntity
  8
0
  6
HIDDEN
 62
     7
370
    18
100
AcDbLine
 10
573.1337879754
 20
630.8819261583
 30
0.0
 11
832.6419766709
 21
481.0710376388
 31
0.0
  0
LINE
  5
108
330
1F
100
AcDbEntity
  8
0
  6
HIDDEN
 62
     7
370
    18
100
AcDbLine
 10
839.0059377016
 20
470.0483338286
 30
0.0
 11
839.0059377016
 21
311.6394163228
 31
0.0
  0
LWPOLYLINE
  5
109
330
1F
100
AcDbEntity
  8
0
  6
HIDDEN
 62
     7
370
    18
100
AcDbPolyline
 90
       15
 70
   128
 43
0.0
 10
729.4043866176
 20
286.7452058151
 10
728.3029641881
 20
285.9660615002
 10
727.2567716784
 20
284.9393733734
 10
726.3182695494
 20
283.7166238645
 10
725.5345182167
 20
282.3591267398
 10
724.9448182447
 20
280.9349525733
 10
724.5787396525
 20
279.5155154047
 10
724.4546391493
 20
278.1719917406
 10
724.5787396525
 20
276.9717514676
 10
724.9448182447
 20
275.9749796448
 10
725.5345182167
 20
275.2316585736
 10
726.3182695494
 20
274.7790614762
 10
727.2567716784
 20
274.6398834611
 10
728.3029641881
 20
274.821103495
 10
729.4043866176
 20
275.3136344487
  0
LWPOLYLINE
  5
10A
330
1F
100
AcDbEntity
  8
0
  6
HIDDEN
 62
     7
370
    18
100
AcDbPolyline
 90
        3
 70
   128
 43
0.0
 10
729.4043866176
 20
275.3136344487
 10
730.5058090471
 20
276.0927787637
 10
731.1281834374
 20
276.6665799439
  0
LWPOLYLINE
  5
10B
330
1F
100
AcDbEntity
  8
0
  6
HIDDEN
 62
     7
370
    18
100
AcDbPolyline
 90
       10
 70
   128
 43
0.0
 10
734.0445508286
 20
281.7184238168
 10
734.2300335827
 20
282.5433248592
 10
734.3541340859
 20
283.8868485233
 10
734.2300335827
 20
285.0870887963
 10
733.8639549906
 20
286.0838606191
 10
733.2742550186
 20
286.8271816903
 10
732.4905036859
 20
287.2797787877
 10
731.5520015569
 20
287.4189568028
 10
730.5058090471
 20
287.2377367689
 10
729.4043866176
 20
286.7452058151
  0
LWPOLYLINE
  5
10C
330
1F
100
AcDbEntity
  8
0
  6
HIDDEN
 62
     7
370
    18
100
AcDbPolyline
 90
       11
 70
   128
 43
0.0
 10
687.331533137
 20
480.050527499
 10
688.3439982628
 20
479.6258752514
 10
689.5342224016
 20
479.4026223531
 10
690.7856981219
 20
479.4026223531
 10
691.9759222607
 20
479.6258752514
 10
692.9883873865
 20
480.050527499
 10
693.7239863585
 20
480.635011175
 10
694.1107136242
 20
481.322112945
 10
694.1107136242
 20
482.0445745003
 10
693.7239863585
 20
482.7316762703
 10
692.9883873865
 20
483.3161599463
  0
LWPOLYLINE
  5
10D
330
1F
100
AcDbEntity
  8
0
  6
HIDDEN
 62
     7
370
    18
100
AcDbPolyline
 90
       11
 70
   128
 43
0.0
 10
692.9883873865
 20
483.3161599463
 10
691.9759222607
 20
483.7408121939
 10
690.7856981219
 20
483.9640650922
 10
689.5342224016
 20
483.9640650922
 10
688.3439982628
 20
483.7408121939
 10
687.331533137
 20
483.3161599463
 10
686.595934165
 20
482.7316762703
 10
686.2092068994
 20
482.0445745003
 10
686.2092068994
 20
481.322112945
 10
686.595934165
 20
480.635011175
 10
687.331533137
 20
480.050527499
  0
LINE
  5
10E
330
1F
100
AcDbEntity
  8
0
  6
HIDDEN
 62
     7
370
    18
100
AcDbLine
 10
729.3550770641
 20
413.3456053928
 30
0.0
 11
516.2116920899
 21
581.6906834197
 31
0.0
  0
LWPOLYLINE
  5
10F
330
1F
100
AcDbEntity
  8
0
  6
HIDDEN
 62
     7
370
    18
100
AcDbPolyline
 90
       15
 70
   128
 43
0.0
 10
729.4043866176
 20
262.2489814586
 10
728.3029641881
 20
261.4698371436
 10
727.2567716784
 20
260.4431490168
 10
726.3182695494
 20
259.220399508
 10
725.5345182167
 20
257.8629023832
 10
724.9448182447
 20
256.4387282167
 10
724.5787396525
 20
255.0192910481
 10
724.4546391493
 20
253.675767384
 10
724.5787396525
 20
252.475527111
 10
724.9448182447
 20
251.4787552883
 10
725.5345182167
 20
250.735434217
 10
726.3182695494
 20
250.2828371196
 10
727.2567716784
 20
250.1436591045
 10
728.3029641881
 20
250.3248791384
 10
729.4043866176
 20
250.8174100922
  0
LWPOLYLINE
  5
110
330
1F
100
AcDbEntity
  8
0
  6
HIDDEN
 62
     7
370
    18
100
AcDbPolyline
 90
        3
 70
   128
 43
0.0
 10
729.4043866176
 20
250.8174100922
 10
730.5058090471
 20
251.5965544071
 10
731.1281834374
 20
252.1703555873
  0
LWPOLYLINE
  5
111
330
1F
100
AcDbEntity
  8
0
  6
HIDDEN
 62
     7
370
    18
100
AcDbPolyline
 90
       10
 70
   128
 43
0.0
 10
734.0445508286
 20
257.2221994603
 10
734.2300335827
 20
258.0471005027
 10
734.3541340859
 20
259.3906241668
 10
734.2300335827
 20
260.5908644397
 10
733.8639549906
 20
261.5876362625
 10
733.2742550186
 20
262.3309573337
 10
732.4905036859
 20
262.7835544311
 10
731.5520015569
 20
262.9227324463
 10
730.5058090471
 20
262.7415124123
 10
729.4043866176
 20
262.2489814586
  0
ARC
  5
112
330
1F
100
AcDbEntity
  8
0
  6
HIDDEN
 62
     7
370
    18
100
AcDbCircle
 10
720.8687185315
 20
242.2474496836
 30
0.0
 40
2.514886179509067
100
AcDbArc
 50
245.6928809539
 51
305.6175774752
  0
LWPOLYLINE
  5
113
330
1F
100
AcDbEntity
  8
0
  6
HIDDEN
 62
     7
370
    18
100
AcDbPolyline
 90
       11
 70
   128
 43
0.0
 10
715.6158043845
 20
496.3786897355
 10
716.6282695103
 20
495.9540374879
 10
717.8184936491
 20
495.7307845895
 10
719.0699693694
 20
495.7307845895
 10
720.2601935082
 20
495.9540374879
 10
721.272658634
 20
496.3786897355
 10
722.008257606
 20
496.9631734115
 10
722.3949848716
 20
497.6502751815
 10
722.3949848716
 20
498.3727367368
 10
722.008257606
 20
499.0598385067
 10
721.272658634
 20
499.6443221828
  0
LINE
  5
114
330
1F
100
AcDbEntity
  8
0
  6
HIDDEN
 62
     7
370
    18
100
AcDbLine
 10
835.4704037956
 20
305.5156919838
 30
0.0
 11
722.3333188058
 21
240.203043038
 31
0.0
  0
LWPOLYLINE
  5
115
330
1F
100
AcDbEntity
  8
0
  6
HIDDEN
 62
     7
370
    18
100
AcDbPolyline
 90
       14
 70
   128
 43
0.0
 10
746.7285027567
 20
379.2245575931
 10
746.6075694306
 20
381.9063167915
 10
746.2461482983
 20
384.6971260133
 10
745.6483601763
 20
387.5651652799
 10
744.8210208673
 20
390.4777340584
 10
743.7735634489
 20
393.4016241035
 10
742.5179307196
 20
396.3034980885
 10
741.0684390313
 20
399.1502697072
 10
739.4416150583
 20
401.909480914
 10
737.6560073649
 20
404.5496720014
 10
735.7319749201
 20
407.0407402939
 10
733.6914549713
 20
409.3542833699
 10
731.5577129213
 20
411.4639228975
 10
729.3550770641
 20
413.3456053928
  0
LWPOLYLINE
  5
116
330
1F
100
AcDbEntity
  8
0
  6
HIDDEN
 62
     7
370
    18
100
AcDbPolyline
 90
       11
 70
   128
 43
0.0
 10
721.272658634
 20
499.6443221828
 10
720.2601935082
 20
500.0689744303
 10
719.0699693694
 20
500.2922273287
 10
717.8184936491
 20
500.2922273287
 10
716.6282695103
 20
500.0689744303
 10
715.6158043845
 20
499.6443221828
 10
714.8802054125
 20
499.0598385067
 10
714.4934781469
 20
498.3727367368
 10
714.4934781469
 20
497.6502751815
 10
714.8802054125
 20
496.9631734115
 10
715.6158043845
 20
496.3786897355
  0
LWPOLYLINE
  5
117
330
1F
100
AcDbEntity
  8
0
  6
HIDDEN
 62
     7
370
    18
100
AcDbPolyline
 90
       10
 70
   128
 43
0.0
 10
686.2708729653
 20
504.3386688257
 10
687.1243385236
 20
503.993679947
 10
688.1307260806
 20
503.8380081193
 10
689.1686504441
 20
503.8904296626
 10
690.1129226179
 20
504.144621765
 10
690.8496494417
 20
504.5699251075
 10
691.2899707877
 20
505.1150418303
 10
691.3807774031
 20
505.7142228114
 10
691.1111166699
 20
506.2951979817
 10
690.5135136524
 20
506.7878931612
  0
LWPOLYLINE
  5
118
330
1F
100
AcDbEntity
  8
0
  6
HIDDEN
 62
     7
370
    18
100
AcDbPolyline
 90
       10
 70
   128
 43
0.0
 10
690.5135136524
 20
506.7878931612
 10
689.660048094
 20
507.1328820399
 10
688.6536605371
 20
507.2885538676
 10
687.6157361735
 20
507.2361323244
 10
686.6714639998
 20
506.981940222
 10
685.934737176
 20
506.5566368794
 10
685.49441583
 20
506.0115201566
 10
685.4036092145
 20
505.4123391755
 10
685.6732699477
 20
504.8313640053
 10
686.2708729653
 20
504.3386688257
  0
LINE
  5
119
330
1F
100
AcDbEntity
  8
0
  6
HIDDEN
 62
     7
370
    18
100
AcDbLine
 10
746.7285027567
 20
315.5200088552
 30
0.0
 11
746.7285027567
 21
379.2245575931
 31
0.0
  0
LINE
  5
11A
330
1F
100
AcDbEntity
  8
0
  6
HIDDEN
 62
     7
370
    18
100
AcDbLine
 10
760.8706383804
 20
291.0251114993
 30
0.0
 11
782.083841816
 21
278.7789898219
 31
0.0
  0
LINE
  5
11B
330
1F
100
AcDbEntity
  8
0
  6
HIDDEN
 62
     7
370
    18
100
AcDbLine
 10
782.083841816
 20
278.7789898219
 30
0.0
 11
775.7198807854
 21
275.1051533187
 31
0.0
  0
LINE
  5
11C
330
1F
100
AcDbEntity
  8
0
  6
HIDDEN
 62
     7
370
    18
100
AcDbLine
 10
760.8706383804
 20
291.0251114993
 30
0.0
 11
754.5066773498
 21
287.3512749961
 31
0.0
  0
LINE
  5
11D
330
1F
100
AcDbEntity
  8
0
  6
HIDDEN
 62
     7
370
    18
100
AcDbLine
 10
746.7285027567
 20
315.5200088552
 30
0.0
 11
740.364541726
 21
311.846172352
 31
0.0
  0
LINE
  5
11E
330
1F
100
AcDbEntity
  8
0
  6
HIDDEN
 62
     7
370
    18
100
AcDbLine
 10
760.8706383804
 20
291.0251114993
 30
0.0
 11
746.7285027567
 21
315.5200088552
 31
0.0
  0
LWPOLYLINE
  5
11F
330
1F
100
AcDbEntity
  8
0
  6
HIDDEN
 62
     7
370
    18
100
AcDbPolyline
 90
       15
 70
   128
 43
0.0
 10
828.3993359838
 20
343.8937736427
 10
827.2979135543
 20
343.1146293278
 10
826.2517210445
 20
342.087941201
 10
825.3132189155
 20
340.8651916921
 10
824.5294675828
 20
339.5076945673
 10
823.9397676108
 20
338.0835204009
 10
823.5736890187
 20
336.6640832322
 10
823.4495885155
 20
335.3205595682
 10
823.5736890187
 20
334.1203192952
 10
823.9397676108
 20
333.1235474724
 10
824.5294675828
 20
332.3802264012
 10
825.3132189155
 20
331.9276293038
 10
826.2517210445
 20
331.7884512887
 10
827.2979135543
 20
331.9696713226
 10
828.3993359838
 20
332.4622022763
  0
LWPOLYLINE
  5
120
330
1F
100
AcDbEntity
  8
0
  6
HIDDEN
 62
     7
370
    18
100
AcDbPolyline
 90
       10
 70
   128
 43
0.0
 10
503.8373234191
 20
534.5457689632
 10
504.6907889775
 20
534.2007800844
 10
505.6971765344
 20
534.0451082567
 10
506.735100898
 20
534.0975298
 10
507.6793730717
 20
534.3517219024
 10
508.4160998956
 20
534.777025245
 10
508.8564212416
 20
535.3221419677
 10
508.947227857
 20
535.9213229489
 10
508.6775671238
 20
536.5022981191
 10
508.0799641063
 20
536.9949932986
  0
LWPOLYLINE
  5
121
330
1F
100
AcDbEntity
  8
0
  6
HIDDEN
 62
     7
370
    18
100
AcDbPolyline
 90
       10
 70
   128
 43
0.0
 10
508.0799641063
 20
536.9949932986
 10
507.2264985479
 20
537.3399821774
 10
506.2201109909
 20
537.4956540051
 10
505.1821866274
 20
537.4432324618
 10
504.2379144536
 20
537.1890403594
 10
503.5011876298
 20
536.7637370169
 10
503.0608662838
 20
536.2186202941
 10
502.9700596684
 20
535.6194393129
 10
503.2397204016
 20
535.0384641427
 10
503.8373234191
 20
534.5457689632
  0
LWPOLYLINE
  5
122
330
1F
100
AcDbEntity
  8
0
  6
HIDDEN
 62
     7
370
    18
100
AcDbPolyline
 90
        3
 70
   128
 43
0.0
 10
828.3993359838
 20
332.4622022763
 10
829.5007584133
 20
333.2413465913
 10
830.1231328035
 20
333.8151477715
  0
LWPOLYLINE
  5
123
330
1F
100
AcDbEntity
  8
0
  6
HIDDEN
 62
     7
370
    18
100
AcDbPolyline
 90
       10
 70
   128
 43
0.0
 10
833.0395001947
 20
338.8669916444
 10
833.2249829489
 20
339.6918926868
 10
833.3490834521
 20
341.0354163509
 10
833.2249829489
 20
342.2356566239
 10
832.8589043567
 20
343.2324284467
 10
832.2692043847
 20
343.9757495179
 10
831.485453052
 20
344.4283466153
 10
830.546950923
 20
344.5675246304
 10
829.5007584133
 20
344.3863045965
 10
828.3993359838
 20
343.8937736427
  0
LWPOLYLINE
  5
124
330
1F
100
AcDbEntity
  8
0
  6
HIDDEN
 62
     7
370
    18
100
AcDbPolyline
 90
       15
 70
   128
 43
0.0
 10
828.3993359838
 20
319.3975492862
 10
827.2979135543
 20
318.6184049712
 10
826.2517210445
 20
317.5917168444
 10
825.3132189155
 20
316.3689673356
 10
824.5294675828
 20
315.0114702108
 10
823.9397676108
 20
313.5872960443
 10
823.5736890187
 20
312.1678588757
 10
823.4495885155
 20
310.8243352116
 10
823.5736890187
 20
309.6240949386
 10
823.9397676108
 20
308.6273231159
 10
824.5294675828
 20
307.8840020446
 10
825.3132189155
 20
307.4314049472
 10
826.2517210445
 20
307.2922269321
 10
827.2979135543
 20
307.473446966
 10
828.3993359838
 20
307.9659779198
  0
LWPOLYLINE
  5
125
330
1F
100
AcDbEntity
  8
0
  6
HIDDEN
 62
     7
370
    18
100
AcDbPolyline
 90
        3
 70
   128
 43
0.0
 10
828.3993359838
 20
307.9659779198
 10
829.5007584133
 20
308.7451222347
 10
830.1231328035
 20
309.3189234149
  0
LWPOLYLINE
  5
126
330
1F
100
AcDbEntity
  8
0
  6
HIDDEN
 62
     7
370
    18
100
AcDbPolyline
 90
       10
 70
   128
 43
0.0
 10
833.0395001947
 20
314.3707672878
 10
833.2249829489
 20
315.1956683303
 10
833.3490834521
 20
316.5391919943
 10
833.2249829489
 20
317.7394322673
 10
832.8589043567
 20
318.7362040901
 10
832.2692043847
 20
319.4795251613
 10
831.485453052
 20
319.9321222587
 10
830.546950923
 20
320.0713002738
 10
829.5007584133
 20
319.8900802399
 10
828.3993359838
 20
319.3975492862
  0
ARC
  5
127
330
1F
100
AcDbEntity
  8
0
  6
HIDDEN
 62
     7
370
    18
100
AcDbCircle
 10
831.3298571947
 20
311.9887205841
 30
0.0
 40
7.684024037860866
100
AcDbArc
 50
302.60547834
 51
357.3945215143
  0
ARC
  5
128
330
1F
100
AcDbEntity
  8
0
  6
HIDDEN
 62
     7
370
    18
100
AcDbCircle
 10
453.9634543921
 20
563.2787250484
 30
0.0
 40
2.514696392469138
100
AcDbArc
 50
114.3746582936
 51
174.3052007488
  0
LINE
  5
129
330
1F
100
AcDbEntity
  8
0
  6
HIDDEN
 62
     7
370
    18
100
AcDbLine
 10
566.0627201635
 20
630.8819261583
 30
0.0
 11
452.9256351737
 21
565.5692772124
 31
0.0
  0
LWPOLYLINE
  5
12A
330
1F
100
AcDbEntity
  8
0
  6
HIDDEN
 62
     7
370
    18
100
AcDbPolyline
 90
       10
 70
   128
 43
0.0
 10
568.8911472883
 20
572.100542107
 10
569.7446128466
 20
571.7555532283
 10
570.7510004036
 20
571.5998814006
 10
571.7889247672
 20
571.6523029438
 10
572.7331969409
 20
571.9064950463
 10
573.4699237647
 20
572.3317983888
 10
573.9102451107
 20
572.8769151116
 10
574.0010517261
 20
573.4760960927
 10
573.731390993
 20
574.057071263
 10
573.1337879754
 20
574.5497664425
  0
LWPOLYLINE
  5
12B
330
1F
100
AcDbEntity
  8
0
  6
HIDDEN
 62
     7
370
    18
100
AcDbPolyline
 90
       11
 70
   128
 43
0.0
 10
526.8182938077
 20
572.7128481909
 10
527.8307589335
 20
572.2881959433
 10
529.0209830723
 20
572.0649430449
 10
530.2724587926
 20
572.0649430449
 10
531.4626829314
 20
572.2881959433
 10
532.4751480572
 20
572.7128481909
 10
533.2107470292
 20
573.2973318669
 10
533.5974742948
 20
573.9844336369
 10
533.5974742948
 20
574.7068951922
 10
533.2107470292
 20
575.3939969621
 10
532.4751480572
 20
575.9784806382
  0
LWPOLYLINE
  5
12C
330
1F
100
AcDbEntity
  8
0
  6
HIDDEN
 62
     7
370
    18
100
AcDbPolyline
 90
       10
 70
   128
 43
0.0
 10
573.1337879754
 20
574.5497664425
 10
572.2803224171
 20
574.8947553212
 10
571.2739348601
 20
575.0504271489
 10
570.2360104965
 20
574.9980056057
 10
569.2917383228
 20
574.7438135032
 10
568.555011499
 20
574.3185101607
 10
568.114690153
 20
573.7733934379
 10
568.0238835376
 20
573.1742124568
 10
568.2935442707
 20
572.5932372865
 10
568.8911472883
 20
572.100542107
  0
LWPOLYLINE
  5
12D
330
1F
100
AcDbEntity
  8
0
  6
HIDDEN
 62
     7
370
    18
100
AcDbPolyline
 90
       11
 70
   128
 43
0.0
 10
532.4751480572
 20
575.9784806382
 10
531.4626829314
 20
576.4031328857
 10
530.2724587926
 20
576.6263857841
 10
529.0209830723
 20
576.6263857841
 10
527.8307589335
 20
576.4031328857
 10
526.8182938077
 20
575.9784806382
 10
526.0826948357
 20
575.3939969621
 10
525.6959675701
 20
574.7068951922
 10
525.6959675701
 20
573.9844336369
 10
526.0826948357
 20
573.2973318669
 10
526.8182938077
 20
572.7128481909
  0
LWPOLYLINE
  5
12E
330
1F
100
AcDbEntity
  8
0
  6
HIDDEN
 62
     7
370
    18
100
AcDbPolyline
 90
       11
 70
   128
 43
0.0
 10
555.1025650552
 20
589.0410104273
 10
556.1150301809
 20
588.6163581798
 10
557.3052543197
 20
588.3931052814
 10
558.5567300401
 20
588.3931052814
 10
559.7469541789
 20
588.6163581798
 10
560.7594193046
 20
589.0410104273
 10
561.4950182767
 20
589.6254941034
 10
561.8817455423
 20
590.3125958733
 10
561.8817455423
 20
591.0350574286
 10
561.4950182767
 20
591.7221591986
 10
560.7594193046
 20
592.3066428746
  0
LWPOLYLINE
  5
12F
330
1F
100
AcDbEntity
  8
0
  6
HIDDEN
 62
     7
370
    18
100
AcDbPolyline
 90
       11
 70
   128
 43
0.0
 10
560.7594193046
 20
592.3066428746
 10
559.7469541789
 20
592.7312951222
 10
558.5567300401
 20
592.9545480206
 10
557.3052543197
 20
592.9545480206
 10
556.1150301809
 20
592.7312951222
 10
555.1025650552
 20
592.3066428746
 10
554.3669660831
 20
591.7221591986
 10
553.9802388175
 20
591.0350574286
 10
553.9802388175
 20
590.3125958733
 10
554.3669660831
 20
589.6254941034
 10
555.1025650552
 20
589.0410104273
  0
LINE
  5
130
330
1F
100
AcDbEntity
  8
0
  6
HIDDEN
 62
     7
370
    18
100
AcDbLine
 10
516.2116920899
 20
581.6906834197
 30
0.0
 11
509.8477310592
 21
578.0168469165
 31
0.0
  0
LINE
  5
131
330
1F
100
AcDbEntity
  8
0
  6
HIDDEN
 62
     7
370
    18
100
AcDbLine
 10
516.2116920899
 20
598.0214996574
 30
0.0
 11
516.2116920899
 21
581.6906834197
 31
0.0
  0
LINE
  5
132
330
1F
100
AcDbEntity
  8
0
  6
HIDDEN
 62
     7
370
    18
100
AcDbLine
 10
509.8477310592
 20
594.3476631542
 30
0.0
 11
516.2116920899
 21
598.0214996574
 31
0.0
  0
ARC
  5
133
330
1F
100
AcDbEntity
  8
0
  6
HIDDEN
 62
     7
370
    18
100
AcDbCircle
 10
569.5982540695
 20
624.0583707335
 30
0.0
 40
7.685109539559463
100
AcDbArc
 50
62.6096722366
 51
117.3903277634
  0
LINE
  5
134
330
1F
100
AcDbEntity
  8
0
  6
HIDDEN
 62
     7
370
    18
100
AcDbLine
 10
626.3383694397
 20
468.0085078496
 30
0.0
 11
626.3383694397
 21
475.3573751566
 31
0.0
  0
LINE
  5
135
330
1F
100
AcDbEntity
  8
0
  6
HIDDEN
 62
     7
370
    18
100
AcDbLine
 10
620.3383694397
 20
475.3573751566
 30
0.0
 11
620.3383694397
 21
468.0085078496
 31
0.0
  0
LINE
  5
136
330
1F
100
AcDbEntity
  8
0
  6
HIDDEN
 62
     7
370
    18
100
AcDbLine
 10
725.9046710534
 20
274.9670780953
 30
0.0
 11
732.2686320841
 21
271.2932415921
 31
0.0
  0
LINE
  5
137
330
1F
100
AcDbEntity
  8
0
  6
HIDDEN
 62
     7
370
    18
100
AcDbLine
 10
739.2680632125
 20
283.4179256654
 30
0.0
 11
732.9041021819
 21
287.0917621686
 31
0.0
  0
LINE
  5
138
330
1F
100
AcDbEntity
  8
0
  6
HIDDEN
 62
     7
370
    18
100
AcDbLine
 10
694.1599602618
 20
481.6833437227
 30
0.0
 11
694.1599602618
 21
489.0322110296
 31
0.0
  0
LINE
  5
139
330
1F
100
AcDbEntity
  8
0
  6
HIDDEN
 62
     7
370
    18
100
AcDbLine
 10
686.1599602618
 20
489.0322110296
 30
0.0
 11
686.1599602618
 21
481.6833437227
 31
0.0
  0
LINE
  5
13A
330
1F
100
AcDbEntity
  8
0
  6
HIDDEN
 62
     7
370
    18
100
AcDbLine
 10
725.9046710534
 20
250.4708537387
 30
0.0
 11
732.2686320841
 21
246.7970172355
 31
0.0
  0
LINE
  5
13B
330
1F
100
AcDbEntity
  8
0
  6
HIDDEN
 62
     7
370
    18
100
AcDbLine
 10
739.2680632125
 20
258.9217013088
 30
0.0
 11
732.9041021819
 21
262.595537812
 31
0.0
  0
LINE
  5
13C
330
1F
100
AcDbEntity
  8
0
  6
HIDDEN
 62
     7
370
    18
100
AcDbLine
 10
722.4442315092
 20
498.0115059591
 30
0.0
 11
722.4442315092
 21
505.3603732661
 31
0.0
  0
LINE
  5
13D
330
1F
100
AcDbEntity
  8
0
  6
HIDDEN
 62
     7
370
    18
100
AcDbLine
 10
714.4442315092
 20
505.3603732661
 30
0.0
 11
714.4442315092
 21
498.0115059591
 31
0.0
  0
LINE
  5
13E
330
1F
100
AcDbEntity
  8
0
  6
HIDDEN
 62
     7
370
    18
100
AcDbLine
 10
691.3921933088
 20
505.5632809935
 30
0.0
 11
691.3921933088
 21
512.9121483004
 31
0.0
  0
LINE
  5
13F
330
1F
100
AcDbEntity
  8
0
  6
HIDDEN
 62
     7
370
    18
100
AcDbLine
 10
685.3921933088
 20
512.9121483004
 30
0.0
 11
685.3921933088
 21
505.5632809935
 31
0.0
  0
LINE
  5
140
330
1F
100
AcDbEntity
  8
0
  6
HIDDEN
 62
     7
370
    18
100
AcDbLine
 10
824.8996204195
 20
332.1156459229
 30
0.0
 11
831.2635814502
 21
328.4418094197
 31
0.0
  0
LINE
  5
141
330
1F
100
AcDbEntity
  8
0
  6
HIDDEN
 62
     7
370
    18
100
AcDbLine
 10
508.9586437627
 20
535.7703811309
 30
0.0
 11
508.9586437627
 21
543.1192484379
 31
0.0
  0
LINE
  5
142
330
1F
100
AcDbEntity
  8
0
  6
HIDDEN
 62
     7
370
    18
100
AcDbLine
 10
502.9586437627
 20
543.1192484379
 30
0.0
 11
502.9586437627
 21
535.7703811309
 31
0.0
  0
LINE
  5
143
330
1F
100
AcDbEntity
  8
0
  6
HIDDEN
 62
     7
370
    18
100
AcDbLine
 10
838.2630125787
 20
340.566493493
 30
0.0
 11
831.899051548
 21
344.2403299962
 31
0.0
  0
LINE
  5
144
330
1F
100
AcDbEntity
  8
0
  6
HIDDEN
 62
     7
370
    18
100
AcDbLine
 10
824.8996204195
 20
307.6194215663
 30
0.0
 11
831.2635814502
 21
303.9455850631
 31
0.0
  0
LINE
  5
145
330
1F
100
AcDbEntity
  8
0
  6
HIDDEN
 62
     7
370
    18
100
AcDbLine
 10
838.2630125787
 20
316.0702691364
 30
0.0
 11
831.899051548
 21
319.7441056396
 31
0.0
  0
LINE
  5
146
330
1F
100
AcDbEntity
  8
0
  6
HIDDEN
 62
     7
370
    18
100
AcDbLine
 10
574.0124676319
 20
573.3251542748
 30
0.0
 11
574.0124676319
 21
580.6740215817
 31
0.0
  0
LINE
  5
147
330
1F
100
AcDbEntity
  8
0
  6
HIDDEN
 62
     7
370
    18
100
AcDbLine
 10
533.6467209324
 20
574.3456644145
 30
0.0
 11
533.6467209324
 21
581.6945317215
 31
0.0
  0
LINE
  5
148
330
1F
100
AcDbEntity
  8
0
  6
HIDDEN
 62
     7
370
    18
100
AcDbLine
 10
568.0124676319
 20
580.6740215817
 30
0.0
 11
568.0124676319
 21
573.3251542748
 31
0.0
  0
LINE
  5
149
330
1F
100
AcDbEntity
  8
0
  6
HIDDEN
 62
     7
370
    18
100
AcDbLine
 10
525.6467209324
 20
581.6945317215
 30
0.0
 11
525.6467209324
 21
574.3456644145
 31
0.0
  0
LINE
  5
14A
330
1F
100
AcDbEntity
  8
0
  6
HIDDEN
 62
     7
370
    18
100
AcDbLine
 10
561.9309921799
 20
590.673826651
 30
0.0
 11
561.9309921799
 21
598.022693958
 31
0.0
  0
LINE
  5
14B
330
1F
100
AcDbEntity
  8
0
  6
HIDDEN
 62
     7
370
    18
100
AcDbLine
 10
553.9309921799
 20
598.022693958
 30
0.0
 11
553.9309921799
 21
590.673826651
 31
0.0
  0
ENDSEC
  0
SECTION
  2
OBJECTS
  0
DICTIONARY
  5
C
330
0
100
AcDbDictionary
281
     1
  3
ACAD_GROUP
350
D
  3
ACAD_LAYOUT
350
1A
  3
ACAD_MLINESTYLE
350
17
  3
ACAD_PLOTSETTINGS
350
19
  3
ACAD_PLOTSTYLENAME
350
E
  3
ACAD_SCALELIST
350
47
  3
DWGPROPS
350
14C
  0
DICTIONARY
  5
D
102
{ACAD_REACTORS
330
C
102
}
330
C
100
AcDbDictionary
281
     1
  0
DICTIONARY
  5
1A
102
{ACAD_REACTORS
330
C
102
}
330
C
100
AcDbDictionary
281
     1
  3
Layout1
350
1E
  3
Layout2
350
26
  3
Model
350
22
  0
DICTIONARY
  5
17
102
{ACAD_REACTORS
330
C
102
}
330
C
100
AcDbDictionary
281
     1
  3
Standard
350
18
  0
DICTIONARY
  5
19
102
{ACAD_REACTORS
330
C
102
}
330
C
100
AcDbDictionary
281
     1
  0
ACDBDICTIONARYWDFLT
  5
E
102
{ACAD_REACTORS
330
C
102
}
330
C
100
AcDbDictionary
281
     1
  3
Normal
350
F
100
AcDbDictionaryWithDefault
340
F
  0
DICTIONARY
  5
47
102
{ACAD_REACTORS
330
C
102
}
330
C
100
AcDbDictionary
281
     1
  3
A0
350
48
  3
A1
350
49
  3
A2
350
4A
  3
A3
350
4B
  3
A4
350
4C
  3
A5
350
4D
  3
A6
350
4E
  3
A7
350
4F
  3
A8
350
50
  3
A9
350
51
  3
B0
350
52
  3
B1
350
53
  3
B2
350
54
  3
B3
350
55
  3
B4
350
56
  3
B5
350
57
  3
B6
350
58
  0
XRECORD
  5
14C
102
{ACAD_REACTORS
330
C
102
}
330
C
100
AcDbXrecord
280
     1
  1
DWGPROPS COOKIE
  2

  3

  4

  6

  7

  8
imaizumi
  9

300
=
301
=
302
=
303
=
304
=
305
=
306
=
307
=
308
=
309
=
 40
0.0
 41
2461263.065118796
 42
2461263.065119352
  1

 90
        0
  0
LAYOUT
  5
1E
102
{ACAD_REACTORS
330
1A
102
}
330
1A
100
AcDbPlotSettings
  1

  2
none_device
  4

  6

 40
0.0
 41
0.0
 42
0.0
 43
0.0
 44
0.0
 45
0.0
 46
0.0
 47
0.0
 48
0.0
 49
0.0
140
0.0
141
0.0
142
1.0
143
1.0
 70
   688
 72
     1
 73
     0
 74
     5
  7

 75
    16
147
1.0
148
0.0
149
0.0
100
AcDbLayout
  1
Layout1
 70
     1
 71
     1
 10
0.0
 20
0.0
 11
420.0
 21
297.0
 12
0.0
 22
0.0
 32
0.0
 14
1.0000000000E+20
 24
1.0000000000E+20
 34
1.0000000000E+20
 15
-1.0000000000E+20
 25
-1.0000000000E+20
 35
-1.0000000000E+20
146
0.0
 13
0.0
 23
0.0
 33
0.0
 16
1.0
 26
0.0
 36
0.0
 17
0.0
 27
1.0
 37
0.0
 76
     0
330
1B
  0
LAYOUT
  5
26
102
{ACAD_REACTORS
330
1A
102
}
330
1A
100
AcDbPlotSettings
  1

  2
none_device
  4

  6

 40
0.0
 41
0.0
 42
0.0
 43
0.0
 44
0.0
 45
0.0
 46
0.0
 47
0.0
 48
0.0
 49
0.0
140
0.0
141
0.0
142
1.0
143
1.0
 70
   688
 72
     1
 73
     0
 74
     5
  7

 75
    16
147
1.0
148
0.0
149
0.0
100
AcDbLayout
  1
Layout2
 70
     1
 71
     2
 10
0.0
 20
0.0
 11
0.0
 21
0.0
 12
0.0
 22
0.0
 32
0.0
 14
0.0
 24
0.0
 34
0.0
 15
0.0
 25
0.0
 35
0.0
146
0.0
 13
0.0
 23
0.0
 33
0.0
 16
1.0
 26
0.0
 36
0.0
 17
0.0
 27
1.0
 37
0.0
 76
     0
330
23
  0
LAYOUT
  5
22
102
{ACAD_REACTORS
330
1A
102
}
330
1A
100
AcDbPlotSettings
  1

  2
none_device
  4
Letter_(8.50_x_11.00_Inches)
  6

 40
6.35
 41
6.35
 42
6.35000508
 43
6.35000508
 44
215.9
 45
279.4
 46
0.0
 47
0.0
 48
0.0
 49
0.0
140
0.0
141
0.0
142
1.0
143
1.0
 70
  1712
 72
     1
 73
     0
 74
     0
  7

 75
     0
147
1.0
148
0.0
149
0.0
100
AcDbLayout
  1
Model
 70
     1
 71
     0
 10
0.0
 20
0.0
 11
841.0
 21
594.0
 12
0.0
 22
0.0
 32
0.0
 14
0.0
 24
0.0
 34
0.0
 15
841.0
 25
594.0
 35
0.0
146
0.0
 13
0.0
 23
0.0
 33
0.0
 16
1.0
 26
0.0
 36
0.0
 17
0.0
 27
1.0
 37
0.0
 76
     0
330
1F
331
29
  0
MLINESTYLE
  5
18
102
{ACAD_REACTORS
330
17
102
}
330
17
100
AcDbMlineStyle
  2
Standard
 70
     0
  3

 62
   256
 51
90.0
 52
90.0
 71
     2
 49
0.5
 62
   256
  6
BYLAYER
 49
-0.5
 62
   256
  6
BYLAYER
  0
ACDBPLACEHOLDER
  5
F
102
{ACAD_REACTORS
330
E
102
}
330
E
  0
SCALE
  5
48
102
{ACAD_REACTORS
330
47
102
}
330
47
100
AcDbScale
 70
     0
300
1:1
140
1.0
141
1.0
290
     1
  0
SCALE
  5
49
102
{ACAD_REACTORS
330
47
102
}
330
47
100
AcDbScale
 70
     0
300
1:2
140
1.0
141
2.0
290
     0
  0
SCALE
  5
4A
102
{ACAD_REACTORS
330
47
102
}
330
47
100
AcDbScale
 70
     0
300
1:4
140
1.0
141
4.0
290
     0
  0
SCALE
  5
4B
102
{ACAD_REACTORS
330
47
102
}
330
47
100
AcDbScale
 70
     0
300
1:5
140
1.0
141
5.0
290
     0
  0
SCALE
  5
4C
102
{ACAD_REACTORS
330
47
102
}
330
47
100
AcDbScale
 70
     0
300
1:8
140
1.0
141
8.0
290
     0
  0
SCALE
  5
4D
102
{ACAD_REACTORS
330
47
102
}
330
47
100
AcDbScale
 70
     0
300
1:10
140
1.0
141
10.0
290
     0
  0
SCALE
  5
4E
102
{ACAD_REACTORS
330
47
102
}
330
47
100
AcDbScale
 70
     0
300
1:16
140
1.0
141
16.0
290
     0
  0
SCALE
  5
4F
102
{ACAD_REACTORS
330
47
102
}
330
47
100
AcDbScale
 70
     0
300
1:20
140
1.0
141
20.0
290
     0
  0
SCALE
  5
50
102
{ACAD_REACTORS
330
47
102
}
330
47
100
AcDbScale
 70
     0
300
1:30
140
1.0
141
30.0
290
     0
  0
SCALE
  5
51
102
{ACAD_REACTORS
330
47
102
}
330
47
100
AcDbScale
 70
     0
300
1:40
140
1.0
141
40.0
290
     0
  0
SCALE
  5
52
102
{ACAD_REACTORS
330
47
102
}
330
47
100
AcDbScale
 70
     0
300
1:50
140
1.0
141
50.0
290
     0
  0
SCALE
  5
53
102
{ACAD_REACTORS
330
47
102
}
330
47
100
AcDbScale
 70
     0
300
1:100
140
1.0
141
100.0
290
     0
  0
SCALE
  5
54
102
{ACAD_REACTORS
330
47
102
}
330
47
100
AcDbScale
 70
     0
300
2:1
140
2.0
141
1.0
290
     0
  0
SCALE
  5
55
102
{ACAD_REACTORS
330
47
102
}
330
47
100
AcDbScale
 70
     0
300
4:1
140
4.0
141
1.0
290
     0
  0
SCALE
  5
56
102
{ACAD_REACTORS
330
47
102
}
330
47
100
AcDbScale
 70
     0
300
8:1
140
8.0
141
1.0
290
     0
  0
SCALE
  5
57
102
{ACAD_REACTORS
330
47
102
}
330
47
100
AcDbScale
 70
     0
300
10:1
140
10.0
141
1.0
290
     0
  0
SCALE
  5
58
102
{ACAD_REACTORS
330
47
102
}
330
47
100
AcDbScale
 70
     0
300
100:1
140
100.0
141
1.0
290
     0
  0
ENDSEC
  0
EOF
