  0
SECTION
  2
HEADER
  9
$ACADVER
  1
AC1015
  9
$ACADMAINTVER
 70
     6
  9
$DWGCODEPAGE
  3
DOS932
  9
$INSBASE
 10
0.0
 20
0.0
 30
0.0
  9
$EXTMIN
 10
0.0
 20
0.0
 30
0.0
  9
$EXTMAX
 10
841.0
 20
594.0
 30
0.0
  9
$LIMMIN
 10
0.0
 20
0.0
  9
$LIMMAX
 10
841.0
 20
594.0
  9
$ORTHOMODE
 70
     0
  9
$REGENMODE
 70
     1
  9
$FILLMODE
 70
     1
  9
$QTEXTMODE
 70
     0
  9
$MIRRTEXT
 70
     1
  9
$LTSCALE
 40
1.0
  9
$ATTMODE
 70
     1
  9
$TEXTSIZE
 40
3.5
  9
$TRACEWID
 40
1.0
  9
$TEXTSTYLE
  7
Standard
  9
$CLAYER
  8
0
  9
$CELTYPE
  6
ByLayer
  9
$CECOLOR
 62
   256
  9
$CELTSCALE
 40
1.0
  9
$DISPSILH
 70
     0
  9
$DIMSCALE
 40
1.0
  9
$DIMASZ
 40
3.302
  9
$DIMEXO
 40
1.0
  9
$DIMDLI
 40
3.75
  9
$DIMRND
 40
0.0
  9
$DIMDLE
 40
0.0
  9
$DIMEXE
 40
1.0
  9
$DIMTP
 40
0.0
  9
$DIMTM
 40
0.0
  9
$DIMTXT
 40
3.5
  9
$DIMCEN
 40
2.5
  9
$DIMTSZ
 40
0.0
  9
$DIMTOL
 70
     0
  9
$DIMLIM
 70
     0
  9
$DIMTIH
 70
     1
  9
$DIMTOH
 70
     1
  9
$DIMSE1
 70
     0
  9
$DIMSE2
 70
     0
  9
$DIMTAD
 70
     1
  9
$DIMZIN
 70
     1
  9
$DIMBLK
  1

  9
$DIMASO
 70
     1
  9
$DIMSHO
 70
     1
  9
$DIMPOST
  1

  9
$DIMAPOST
  1

  9
$DIMALT
 70
     0
  9
$DIMALTD
 70
     3
  9
$DIMALTF
 40
0.0393700787
  9
$DIMLFAC
 40
0.2
  9
$DIMTOFL
 70
     1
  9
$DIMTVP
 40
0.0
  9
$DIMTIX
 70
     0
  9
$DIMSOXD
 70
     0
  9
$DIMSAH
 70
     0
  9
$DIMBLK1
  1

  9
$DIMBLK2
  1

  9
$DIMSTYLE
  2
ISO-25
  9
$DIMCLRD
 70
     0
  9
$DIMCLRE
 70
     0
  9
$DIMCLRT
 70
     0
  9
$DIMTFAC
 40
1.0
  9
$DIMGAP
 40
1.524
  9
$DIMJUST
 70
     0
  9
$DIMSD1
 70
     0
  9
$DIMSD2
 70
     0
  9
$DIMTOLJ
 70
     0
  9
$DIMTZIN
 70
     1
  9
$DIMALTZ
 70
     0
  9
$DIMALTTZ
 70
     0
  9
$DIMUPT
 70
     0
  9
$DIMDEC
 70
     2
  9
$DIMTDEC
 70
     2
  9
$DIMALTU
 70
     2
  9
$DIMALTTD
 70
     3
  9
$DIMTXSTY
  7
Standard
  9
$DIMAUNIT
 70
     0
  9
$DIMADEC
 70
     2
  9
$DIMALTRND
 40
0.0
  9
$DIMAZIN
 70
     0
  9
$DIMDSEP
 70
    44
  9
$DIMATFIT
 70
     3
  9
$DIMFRAC
 70
     0
  9
$DIMLDRBLK
  1

  9
$DIMLUNIT
 70
     2
  9
$DIMLWD
 70
    -2
  9
$DIMLWE
 70
    -2
  9
$DIMTMOVE
 70
     0
  9
$LUNITS
 70
     2
  9
$LUPREC
 70
     2
  9
$SKETCHINC
 40
1.0
  9
$FILLETRAD
 40
0.0
  9
$AUNITS
 70
     0
  9
$AUPREC
 70
     2
  9
$MENU
  1
.
  9
$ELEVATION
 40
0.0
  9
$PELEVATION
 40
0.0
  9
$THICKNESS
 40
0.0
  9
$LIMCHECK
 70
     0
  9
$CHAMFERA
 40
0.0
  9
$CHAMFERB
 40
0.0
  9
$CHAMFERC
 40
0.0
  9
$CHAMFERD
 40
0.0
  9
$SKPOLY
 70
     0
  9
$TDCREATE
 40
2461263.4459136
  9
$TDUCREATE
 40
2461263.0709136
  9
$TDUPDATE
 40
2461263.445914421
  9
$TDUUPDATE
 40
2461263.070914421
  9
$TDINDWG
 40
0.0000000116
  9
$TDUSRTIMER
 40
0.0000000116
  9
$USRTIMER
 70
     1
  9
$ANGBASE
 50
0.0
  9
$ANGDIR
 70
     0
  9
$PDMODE
 70
     0
  9
$PDSIZE
 40
-1.0
  9
$PLINEWID
 40
0.0
  9
$SPLFRAME
 70
     0
  9
$SPLINETYPE
 70
     6
  9
$SPLINESEGS
 70
     8
  9
$HANDSEED
  5
9E
  9
$SURFTAB1
 70
     6
  9
$SURFTAB2
 70
     6
  9
$SURFTYPE
 70
     6
  9
$SURFU
 70
     6
  9
$SURFV
 70
     6
  9
$UCSBASE
  2

  9
$UCSNAME
  2

  9
$UCSORG
 10
0.0
 20
0.0
 30
0.0
  9
$UCSXDIR
 10
1.0
 20
0.0
 30
0.0
  9
$UCSYDIR
 10
0.0
 20
1.0
 30
0.0
  9
$UCSORTHOREF
  2

  9
$UCSORTHOVIEW
 70
     0
  9
$UCSORGTOP
 10
0.0
 20
0.0
 30
0.0
  9
$UCSORGBOTTOM
 10
0.0
 20
0.0
 30
0.0
  9
$UCSORGLEFT
 10
0.0
 20
0.0
 30
0.0
  9
$UCSORGRIGHT
 10
0.0
 20
0.0
 30
0.0
  9
$UCSORGFRONT
 10
0.0
 20
0.0
 30
0.0
  9
$UCSORGBACK
 10
0.0
 20
0.0
 30
0.0
  9
$PUCSBASE
  2

  9
$PUCSNAME
  2

  9
$PUCSORG
 10
0.0
 20
0.0
 30
0.0
  9
$PUCSXDIR
 10
1.0
 20
0.0
 30
0.0
  9
$PUCSYDIR
 10
0.0
 20
1.0
 30
0.0
  9
$PUCSORTHOREF
  2

  9
$PUCSORTHOVIEW
 70
     0
  9
$PUCSORGTOP
 10
0.0
 20
0.0
 30
0.0
  9
$PUCSORGBOTTOM
 10
0.0
 20
0.0
 30
0.0
  9
$PUCSORGLEFT
 10
0.0
 20
0.0
 30
0.0
  9
$PUCSORGRIGHT
 10
0.0
 20
0.0
 30
0.0
  9
$PUCSORGFRONT
 10
0.0
 20
0.0
 30
0.0
  9
$PUCSORGBACK
 10
0.0
 20
0.0
 30
0.0
  9
$USERI1
 70
     0
  9
$USERI2
 70
     0
  9
$USERI3
 70
     0
  9
$USERI4
 70
     0
  9
$USERI5
 70
     0
  9
$USERR1
 40
0.0
  9
$USERR2
 40
0.0
  9
$USERR3
 40
0.0
  9
$USERR4
 40
0.0
  9
$USERR5
 40
0.0
  9
$WORLDVIEW
 70
     1
  9
$SHADEDGE
 70
     3
  9
$SHADEDIF
 70
    70
  9
$TILEMODE
 70
     1
  9
$MAXACTVP
 70
    64
  9
$PINSBASE
 10
0.0
 20
0.0
 30
0.0
  9
$PLIMCHECK
 70
     0
  9
$PEXTMIN
 10
1.0000000000E+20
 20
1.0000000000E+20
 30
1.0000000000E+20
  9
$PEXTMAX
 10
-1.0000000000E+20
 20
-1.0000000000E+20
 30
-1.0000000000E+20
  9
$PLIMMIN
 10
0.0
 20
0.0
  9
$PLIMMAX
 10
420.0
 20
297.0
  9
$UNITMODE
 70
     0
  9
$VISRETAIN
 70
     1
  9
$PLINEGEN
 70
     0
  9
$PSLTSCALE
 70
     1
  9
$TREEDEPTH
 70
  3020
  9
$CMLSTYLE
  2
Standard
  9
$CMLJUST
 70
     0
  9
$CMLSCALE
 40
20.0
  9
$PROXYGRAPHICS
 70
     1
  9
$MEASUREMENT
 70
     1
  9
$CELWEIGHT
370
    -1
  9
$ENDCAPS
280
     0
  9
$JOINSTYLE
280
     0
  9
$LWDISPLAY
290
     1
  9
$INSUNITS
 70
     4
  9
$HYPERLINKBASE
  1

  9
$STYLESHEET
  1

  9
$XEDIT
290
     1
  9
$CEPSNTYPE
380
     0
  9
$PSTYLEMODE
290
     1
  9
$FINGERPRINTGUID
  2
{d263e436-607f-413a-87b8-d259efa56f1e}
  9
$VERSIONGUID
  2
{FAEB1C32-E019-11D5-929B-00C0DF256EC4}
  9
$EXTNAMES
290
     1
  9
$PSVPSCALE
 40
0.0
  9
$OLESTARTUP
290
     0
  0
ENDSEC
  0
SECTION
  2
CLASSES
  0
CLASS
  1
ACDBDICTIONARYWDFLT
  2
AcDbDictionaryWithDefault
  3
ObjectDBX Classes
 90
        0
280
     0
281
     0
  0
CLASS
  1
VISUALSTYLE
  2
AcDbVisualStyle
  3
ObjectDBX Classes
 90
     4095
280
     0
281
     0
  0
CLASS
  1
MATERIAL
  2
AcDbMaterial
  3
ObjectDBX Classes
 90
     1153
280
     0
281
     0
  0
CLASS
  1
SCALE
  2
AcDbScale
  3
ObjectDBX Classes
 90
     1153
280
     0
281
     0
  0
CLASS
  1
TABLESTYLE
  2
AcDbTableStyle
  3
ObjectDBX Classes
 90
     4095
280
     0
281
     0
  0
CLASS
  1
MLEADERSTYLE
  2
AcDbMLeaderStyle
  3
ACDB_MLEADERSTYLE_CLASS
 90
     4095
280
     0
281
     0
  0
CLASS
  1
SUN
  2
AcDbSun
  3
SCENEOE
 90
     1153
280
     0
281
     0
  0
CLASS
  1
ACDBPLACEHOLDER
  2
AcDbPlaceHolder
  3
ObjectDBX Classes
 90
        0
280
     0
281
     0
  0
CLASS
  1
LAYOUT
  2
AcDbLayout
  3
ObjectDBX Classes
 90
        0
280
     0
281
     0
  0
ENDSEC
  0
SECTION
  2
TABLES
  0
TABLE
  2
VPORT
  5
8
330
0
100
AcDbSymbolTable
 70
     1
  0
VPORT
  5
29
330
8
100
AcDbSymbolTableRecord
100
AcDbViewportTableRecord
  2
*Active
 70
     0
 10
0.0
 20
0.0
 11
1.0
 21
1.0
 12
420.5
 22
297.0
 13
0.0
 23
0.0
 14
10.0
 24
10.0
 15
10.0
 25
10.0
 16
0.0
 26
0.0
 36
1.0
 17
0.0
 27
0.0
 37
0.0
 40
594.0
 41
1.4158249158
 42
50.0
 43
0.0
 44
0.0
 50
0.0
 51
0.0
 71
     0
 72
  2000
 73
     1
 74
     3
 75
     0
 76
     0
 77
     0
 78
     0
281
     0
 65
     1
110
0.0
120
0.0
130
0.0
111
1.0
121
0.0
131
0.0
112
0.0
122
1.0
132
0.0
 79
     0
146
0.0
  0
ENDTAB
  0
TABLE
  2
LTYPE
  5
5
330
0
100
AcDbSymbolTable
 70
     6
  0
LTYPE
  5
14
330
5
100
AcDbSymbolTableRecord
100
AcDbLinetypeTableRecord
  2
ByBlock
 70
     0
  3

 72
    65
 73
     0
 40
0.0
  0
LTYPE
  5
15
330
5
100
AcDbSymbolTableRecord
100
AcDbLinetypeTableRecord
  2
ByLayer
 70
     0
  3

 72
    65
 73
     0
 40
0.0
  0
LTYPE
  5
16
330
5
100
AcDbSymbolTableRecord
100
AcDbLinetypeTableRecord
  2
Continuous
 70
     0
  3
Solid line
 72
    65
 73
     0
 40
0.0
  0
LTYPE
  5
5E
330
5
100
AcDbSymbolTableRecord
100
AcDbLinetypeTableRecord
  2
HIDDEN
 70
     0
  3
Hidden __ __ __ __ __ __ __ __ __ __ __ __ __ __
 72
    65
 73
     2
 40
1.905
 49
1.27
 74
     0
 49
-0.635
 74
     0
  0
LTYPE
  5
5F
330
5
100
AcDbSymbolTableRecord
100
AcDbLinetypeTableRecord
  2
PHANTOM
 70
     0
  3
Phantom ______  __  __  ______  __  __  ______
 72
    65
 73
     6
 40
12.7
 49
6.35
 74
     0
 49
-1.27
 74
     0
 49
1.27
 74
     0
 49
-1.27
 74
     0
 49
1.27
 74
     0
 49
-1.27
 74
     0
  0
LTYPE
  5
60
330
5
100
AcDbSymbolTableRecord
100
AcDbLinetypeTableRecord
  2
CENTER
 70
     0
  3
Center ____ _ ____ _ ____ _ ____ _ ____ _ ____
 72
    65
 73
     4
 40
10.16
 49
6.35
 74
     0
 49
-1.27
 74
     0
 49
1.27
 74
     0
 49
-1.27
 74
     0
  0
LTYPE
  5
61
330
5
100
AcDbSymbolTableRecord
100
AcDbLinetypeTableRecord
  2
CENTERX2
 70
     0
  3
Center (2x) ________  __  ________  __  _____
 72
    65
 73
     4
 40
20.32
 49
12.7
 74
     0
 49
-2.54
 74
     0
 49
2.54
 74
     0
 49
-2.54
 74
     0
  0
LTYPE
  5
62
330
5
100
AcDbSymbolTableRecord
100
AcDbLinetypeTableRecord
  2
DOT2
 70
     0
  3
Dot (.5x) ........................................
 72
    65
 73
     2
 40
0.635
 49
0.0
 74
     0
 49
-0.635
 74
     0
  0
ENDTAB
  0
TABLE
  2
LAYER
  5
2
330
0
100
AcDbSymbolTable
 70
     1
  0
LAYER
  5
10
330
2
100
AcDbSymbolTableRecord
100
AcDbLayerTableRecord
  2
0
 70
     0
 62
     7
  6
Continuous
370
    -3
390
F
  0
ENDTAB
  0
TABLE
  2
STYLE
  5
3
330
0
100
AcDbSymbolTable
 70
     1
  0
STYLE
  5
11
330
3
100
AcDbSymbolTableRecord
100
AcDbTextStyleTableRecord
  2
Standard
 70
     0
 40
0.0
 41
1.0
 50
0.0
 71
     0
 42
3.5
  3
txt
  4
bigfont
  0
ENDTAB
  0
TABLE
  2
VIEW
  5
6
330
0
100
AcDbSymbolTable
 70
     0
  0
ENDTAB
  0
TABLE
  2
UCS
  5
7
330
0
100
AcDbSymbolTable
 70
     0
  0
ENDTAB
  0
TABLE
  2
APPID
  5
9
330
0
100
AcDbSymbolTable
 70
     1
  0
APPID
  5
12
330
9
100
AcDbSymbolTableRecord
100
AcDbRegAppTableRecord
  2
ACAD
 70
     0
  0
ENDTAB
  0
TABLE
  2
DIMSTYLE
  5
A
330
0
100
AcDbSymbolTable
 70
     1
100
AcDbDimStyleTable
  0
DIMSTYLE
105
27
330
A
100
AcDbSymbolTableRecord
100
AcDbDimStyleTableRecord
  2
ISO-25
 70
     0
 41
2.5
 42
0.625
 43
3.75
 44
1.25
 73
     0
 74
     0
 77
     1
 78
     8
140
2.5
141
2.5
143
0.0393700787
147
0.625
171
     3
172
     1
178
     0
271
     2
272
     2
274
     3
278
    44
283
     0
284
     8
340
11
  0
ENDTAB
  0
TABLE
  2
BLOCK_RECORD
  5
1
330
0
100
AcDbSymbolTable
 70
     1
  0
BLOCK_RECORD
  5
1F
330
1
100
AcDbSymbolTableRecord
100
AcDbBlockTableRecord
  2
*Model_Space
340
22
  0
BLOCK_RECORD
  5
1B
330
1
100
AcDbSymbolTableRecord
100
AcDbBlockTableRecord
  2
*Paper_Space
340
1E
  0
BLOCK_RECORD
  5
23
330
1
100
AcDbSymbolTableRecord
100
AcDbBlockTableRecord
  2
*Paper_Space0
340
26
  0
ENDTAB
  0
ENDSEC
  0
SECTION
  2
BLOCKS
  0
BLOCK
  5
20
330
1F
100
AcDbEntity
  8
0
100
AcDbBlockBegin
  2
*Model_Space
 70
     0
 10
0.0
 20
0.0
 30
0.0
  3
*Model_Space
  1

  0
ENDBLK
  5
21
330
1F
100
AcDbEntity
  8
0
100
AcDbBlockEnd
  0
BLOCK
  5
1C
330
1B
100
AcDbEntity
 67
     1
  8
0
100
AcDbBlockBegin
  2
*Paper_Space
 70
     0
 10
0.0
 20
0.0
 30
0.0
  3
*Paper_Space
  1

  0
ENDBLK
  5
1D
330
1B
100
AcDbEntity
 67
     1
  8
0
100
AcDbBlockEnd
  0
BLOCK
  5
24
330
23
100
AcDbEntity
  8
0
100
AcDbBlockBegin
  2
*Paper_Space0
 70
     0
 10
0.0
 20
0.0
 30
0.0
  3
*Paper_Space0
  1

  0
ENDBLK
  5
25
330
23
100
AcDbEntity
  8
0
100
AcDbBlockEnd
  0
ENDSEC
  0
SECTION
  2
ENTITIES
  0
ARC
  5
63
330
1F
100
AcDbEntity
  8
0
  6
Continuous
 62
     7
370
    25
100
AcDbCircle
 10
372.3565440327
 20
252.6666537239
 30
0.0
 40
3.0
100
AcDbArc
 50
180.0
 51
0.0
  0
LINE
  5
64
330
1F
100
AcDbEntity
  8
0
  6
Continuous
 62
     7
370
    25
100
AcDbLine
 10
389.3565440327
 20
258.6666537239
 30
0.0
 11
355.3565440327
 21
258.6666537239
 31
0.0
  0
LINE
  5
65
330
1F
100
AcDbEntity
  8
0
  6
Continuous
 62
     7
370
    25
100
AcDbLine
 10
355.3565440327
 20
226.6666537239
 30
0.0
 11
389.3565440327
 21
226.6666537239
 31
0.0
  0
ARC
  5
66
330
1F
100
AcDbEntity
  8
0
  6
Continuous
 62
     7
370
    25
100
AcDbCircle
 10
372.3565440327
 20
252.6666537239
 30
0.0
 40
3.0
100
AcDbArc
 50
0.0
 51
180.0
  0
LINE
  5
67
330
1F
100
AcDbEntity
  8
0
  6
Continuous
 62
     7
370
    25
100
AcDbLine
 10
355.3565440327
 20
258.6666537239
 30
0.0
 11
355.3565440327
 21
226.6666537239
 31
0.0
  0
LINE
  5
68
330
1F
100
AcDbEntity
  8
0
  6
Continuous
 62
     7
370
    25
100
AcDbLine
 10
389.3565440327
 20
226.6666537239
 30
0.0
 11
389.3565440327
 21
258.6666537239
 31
0.0
  0
LINE
  5
69
330
1F
100
AcDbEntity
  8
0
  6
HIDDEN
 62
     7
370
    18
100
AcDbLine
 10
385.8565440327
 20
226.6666537239
 30
0.0
 11
385.8565440327
 21
258.6666537239
 31
0.0
  0
LINE
  5
6A
330
1F
100
AcDbEntity
  8
0
  6
HIDDEN
 62
     7
370
    18
100
AcDbLine
 10
378.8565440327
 20
258.6666537239
 30
0.0
 11
378.8565440327
 21
226.6666537239
 31
0.0
  0
LINE
  5
6B
330
1F
100
AcDbEntity
  8
0
  6
HIDDEN
 62
     7
370
    18
100
AcDbLine
 10
365.8565440327
 20
226.6666537239
 30
0.0
 11
365.8565440327
 21
258.6666537239
 31
0.0
  0
LINE
  5
6C
330
1F
100
AcDbEntity
  8
0
  6
HIDDEN
 62
     7
370
    18
100
AcDbLine
 10
358.8565440327
 20
258.6666537239
 30
0.0
 11
358.8565440327
 21
226.6666537239
 31
0.0
  0
LINE
  5
6D
330
1F
100
AcDbEntity
  8
0
  6
Continuous
 62
     7
370
    25
100
AcDbLine
 10
389.3565440327
 20
338.88
 30
0.0
 11
355.3565440327
 21
338.88
 31
0.0
  0
LINE
  5
6E
330
1F
100
AcDbEntity
  8
0
  6
Continuous
 62
     7
370
    25
100
AcDbLine
 10
355.3565440327
 20
338.88
 30
0.0
 11
355.3565440327
 21
350.88
 31
0.0
  0
ARC
  5
6F
330
1F
100
AcDbEntity
  8
0
  6
Continuous
 62
     7
370
    25
100
AcDbCircle
 10
362.3565440327
 20
344.88
 30
0.0
 40
3.5
100
AcDbArc
 50
90.0
 51
270.0
  0
ARC
  5
70
330
1F
100
AcDbEntity
  8
0
  6
Continuous
 62
     7
370
    25
100
AcDbCircle
 10
362.3565440327
 20
344.88
 30
0.0
 40
3.5
100
AcDbArc
 50
270.0
 51
90.0
  0
ARC
  5
71
330
1F
100
AcDbEntity
  8
0
  6
Continuous
 62
     7
370
    25
100
AcDbCircle
 10
382.3565440327
 20
344.88
 30
0.0
 40
3.5
100
AcDbArc
 50
90.0
 51
270.0
  0
ARC
  5
72
330
1F
100
AcDbEntity
  8
0
  6
Continuous
 62
     7
370
    25
100
AcDbCircle
 10
382.3565440327
 20
344.88
 30
0.0
 40
3.5
100
AcDbArc
 50
270.0
 51
90.0
  0
LINE
  5
73
330
1F
100
AcDbEntity
  8
0
  6
Continuous
 62
     7
370
    25
100
AcDbLine
 10
389.3565440327
 20
350.88
 30
0.0
 11
355.3565440327
 21
350.88
 31
0.0
  0
LINE
  5
74
330
1F
100
AcDbEntity
  8
0
  6
Continuous
 62
     7
370
    25
100
AcDbLine
 10
389.3565440327
 20
338.88
 30
0.0
 11
389.3565440327
 21
350.88
 31
0.0
  0
LINE
  5
75
330
1F
100
AcDbEntity
  8
0
  6
HIDDEN
 62
     7
370
    18
100
AcDbLine
 10
369.3565440327
 20
338.88
 30
0.0
 11
369.3565440327
 21
350.88
 31
0.0
  0
LINE
  5
76
330
1F
100
AcDbEntity
  8
0
  6
HIDDEN
 62
     7
370
    18
100
AcDbLine
 10
375.3565440327
 20
338.88
 30
0.0
 11
375.3565440327
 21
350.88
 31
0.0
  0
LINE
  5
77
330
1F
100
AcDbEntity
  8
0
  6
Continuous
 62
     7
370
    25
100
AcDbLine
 10
463.38
 20
226.6666537239
 30
0.0
 11
475.38
 21
226.6666537239
 31
0.0
  0
LINE
  5
78
330
1F
100
AcDbEntity
  8
0
  6
Continuous
 62
     7
370
    25
100
AcDbLine
 10
463.38
 20
226.6666537239
 30
0.0
 11
463.38
 21
258.6666537239
 31
0.0
  0
LINE
  5
79
330
1F
100
AcDbEntity
  8
0
  6
Continuous
 62
     7
370
    25
100
AcDbLine
 10
463.38
 20
258.6666537239
 30
0.0
 11
475.38
 21
258.6666537239
 31
0.0
  0
LINE
  5
7A
330
1F
100
AcDbEntity
  8
0
  6
Continuous
 62
     7
370
    25
100
AcDbLine
 10
475.38
 20
226.6666537239
 30
0.0
 11
475.38
 21
258.6666537239
 31
0.0
  0
LINE
  5
7B
330
1F
100
AcDbEntity
  8
0
  6
HIDDEN
 62
     7
370
    18
100
AcDbLine
 10
465.88
 20
226.6666537239
 30
0.0
 11
465.88
 21
258.6666537239
 31
0.0
  0
LINE
  5
7C
330
1F
100
AcDbEntity
  8
0
  6
HIDDEN
 62
     7
370
    18
100
AcDbLine
 10
472.88
 20
226.6666537239
 30
0.0
 11
472.88
 21
258.6666537239
 31
0.0
  0
LINE
  5
7D
330
1F
100
AcDbEntity
  8
0
  6
HIDDEN
 62
     7
370
    18
100
AcDbLine
 10
463.38
 20
249.6666537239
 30
0.0
 11
475.38
 21
249.6666537239
 31
0.0
  0
LINE
  5
7E
330
1F
100
AcDbEntity
  8
0
  6
HIDDEN
 62
     7
370
    18
100
AcDbLine
 10
475.38
 20
255.6666537239
 30
0.0
 11
463.38
 21
255.6666537239
 31
0.0
  0
LINE
  5
7F
330
1F
100
AcDbEntity
  8
0
  6
Continuous
 62
     7
370
    25
100
AcDbLine
 10
477.1581745931
 20
322.4266537239
 30
0.0
 11
485.6434559673
 21
327.3251023948
 31
0.0
  0
LINE
  5
80
330
1F
100
AcDbEntity
  8
0
  6
Continuous
 62
     7
370
    25
100
AcDbLine
 10
477.1581745931
 20
322.4266537239
 30
0.0
 11
477.1581745931
 21
348.5559597042
 31
0.0
  0
LINE
  5
81
330
1F
100
AcDbEntity
  8
0
  6
Continuous
 62
     7
370
    25
100
AcDbLine
 10
477.1581745931
 20
348.5559597042
 30
0.0
 11
485.6434559673
 21
353.4544083751
 31
0.0
  0
LINE
  5
82
330
1F
100
AcDbEntity
  8
0
  6
Continuous
 62
     7
370
    25
100
AcDbLine
 10
485.6434559673
 20
327.3251023948
 30
0.0
 11
485.6434559673
 21
353.4544083751
 31
0.0
  0
LINE
  5
83
330
1F
100
AcDbEntity
  8
0
  6
Continuous
 62
     7
370
    25
100
AcDbLine
 10
453.1165440327
 20
336.3055916249
 30
0.0
 11
477.1581745931
 21
322.4266537239
 31
0.0
  0
LINE
  5
84
330
1F
100
AcDbEntity
  8
0
  6
Continuous
 62
     7
370
    25
100
AcDbLine
 10
453.1165440327
 20
362.4348976052
 30
0.0
 11
453.1165440327
 21
336.3055916249
 31
0.0
  0
LINE
  5
85
330
1F
100
AcDbEntity
  8
0
  6
Continuous
 62
     7
370
    25
100
AcDbLine
 10
477.1581745931
 20
348.5559597042
 30
0.0
 11
453.1165440327
 21
362.4348976052
 31
0.0
  0
LWPOLYLINE
  5
86
330
1F
100
AcDbEntity
  8
0
  6
Continuous
 62
     7
370
    25
100
AcDbPolyline
 90
       30
 70
   128
 43
0.0
 10
467.2586796564
 20
349.3715716157
 10
467.2462443857
 20
349.6436011179
 10
467.2090843656
 20
349.926798781
 10
467.1476352635
 20
350.2178443711
 10
467.0626175139
 20
350.513325645
 10
466.9550278722
 20
350.8097783548
 10
466.8261277285
 20
351.1037268635
 10
466.6774283192
 20
351.3917248937
 10
466.5106730089
 20
351.6703959317
 10
466.3278168512
 20
351.9364728144
 10
466.1310036672
 20
352.1868360337
 10
465.9225409117
 20
352.4185503097
 10
465.7048726199
 20
352.6288990044
 10
465.4805507534
 20
352.8154159716
 10
465.252205281
 20
352.9759144705
 10
465.0225133447
 20
353.1085128029
 10
464.7941678724
 20
353.2116563746
 10
464.5698460059
 20
353.2841359215
 10
464.352177714
 20
353.3251016872
 10
464.1437149585
 20
353.3340733856
 10
463.9469017746
 20
353.3109458316
 10
463.7640456168
 20
353.2559901748
 10
463.5972903065
 20
353.1698507199
 10
463.4485908972
 20
353.0535373733
 10
463.3196907536
 20
352.9084138027
 10
463.2121011118
 20
352.7361814491
 10
463.1270833622
 20
352.5388595796
 10
463.0656342601
 20
352.3187616125
 10
463.0284742401
 20
352.0784679954
 10
463.0160389693
 20
351.8207959511
  0
LWPOLYLINE
  5
87
330
1F
100
AcDbEntity
  8
0
  6
Continuous
 62
     7
370
    25
100
AcDbPolyline
 90
       30
 70
   128
 43
0.0
 10
463.0160389693
 20
351.8207959511
 10
463.0284742401
 20
351.5487664489
 10
463.0656342601
 20
351.2655687858
 10
463.1270833622
 20
350.9745231957
 10
463.2121011118
 20
350.6790419218
 10
463.3196907536
 20
350.382589212
 10
463.4485908972
 20
350.0886407033
 10
463.5972903065
 20
349.8006426731
 10
463.7640456168
 20
349.5219716351
 10
463.9469017746
 20
349.2558947524
 10
464.1437149585
 20
349.0055315331
 10
464.352177714
 20
348.7738172571
 10
464.5698460059
 20
348.5634685624
 10
464.7941678724
 20
348.3769515952
 10
465.0225133447
 20
348.2164530963
 10
465.252205281
 20
348.0838547639
 10
465.4805507534
 20
347.9807111922
 10
465.7048726199
 20
347.9082316453
 10
465.9225409117
 20
347.8672658796
 10
466.1310036672
 20
347.8582941812
 10
466.3278168512
 20
347.8814217351
 10
466.5106730089
 20
347.936377392
 10
466.6774283192
 20
348.0225168469
 10
466.8261277285
 20
348.1388301935
 10
466.9550278722
 20
348.2839537641
 10
467.0626175139
 20
348.4561861177
 10
467.1476352635
 20
348.6535079872
 10
467.2090843656
 20
348.8736059543
 10
467.2462443857
 20
349.1138995714
 10
467.2586796564
 20
349.3715716157
  0
LINE
  5
88
330
1F
100
AcDbEntity
  8
0
  6
Continuous
 62
     7
370
    25
100
AcDbLine
 10
453.1165440327
 20
362.4348976052
 30
0.0
 11
461.6018254069
 21
367.3333462761
 31
0.0
  0
LINE
  5
89
330
1F
100
AcDbEntity
  8
0
  6
Continuous
 62
     7
370
    25
100
AcDbLine
 10
485.6434559673
 20
353.4544083751
 30
0.0
 11
461.6018254069
 21
367.3333462761
 31
0.0
  0
LWPOLYLINE
  5
8A
330
1F
100
AcDbEntity
  8
0
  6
Continuous
 62
     7
370
    25
100
AcDbPolyline
 90
       33
 70
   128
 43
0.0
 10
464.7838059223
 20
363.455407745
 10
464.5293086827
 20
363.5885665754
 10
464.2534280037
 20
363.7066837148
 10
463.958820767
 20
363.8086216306
 10
463.6483242014
 20
363.8933986048
 10
463.3249285585
 20
363.9601981888
 10
462.9917483152
 20
364.0083770663
 10
462.6519921793
 20
364.0374712482
 10
462.3089321881
 20
364.0472005416
 10
461.965872197
 20
364.0374712482
 10
461.6261160611
 20
364.0083770663
 10
461.2929358177
 20
363.9601981888
 10
460.9695401749
 20
363.8933986048
 10
460.6590436092
 20
363.8086216306
 10
460.3644363726
 20
363.7066837148
 10
460.0885556936
 20
363.5885665754
 10
459.834058454
 20
363.455407745
 10
459.6033956014
 20
363.3084896158
 10
459.3987885451
 20
363.1492270898
 10
459.2222077629
 20
362.9791539522
 10
459.0753538243
 20
362.7999081002
 10
458.9596410131
 20
362.6132157694
 10
458.8761837067
 20
362.420874909
 10
458.8257856448
 20
362.2247378667
 10
458.8089321881
 20
362.0266935493
 10
458.8257856448
 20
361.8286492319
 10
458.8761837067
 20
361.6325121895
 10
458.9596410131
 20
361.4401713291
 10
459.0753538243
 20
361.2534789984
 10
459.2222077629
 20
361.0742331464
 10
459.3987885451
 20
360.9041600088
 10
459.6033956014
 20
360.7448974828
 10
459.834058454
 20
360.5979793536
  0
LWPOLYLINE
  5
8B
330
1F
100
AcDbEntity
  8
0
  6
Continuous
 62
     7
370
    25
100
AcDbPolyline
 90
       33
 70
   128
 43
0.0
 10
459.834058454
 20
360.5979793536
 10
460.0885556936
 20
360.4648205231
 10
460.3644363726
 20
360.3467033837
 10
460.6590436092
 20
360.244765468
 10
460.9695401749
 20
360.1599884938
 10
461.2929358177
 20
360.0931889097
 10
461.6261160611
 20
360.0450100323
 10
461.965872197
 20
360.0159158504
 10
462.3089321881
 20
360.006186557
 10
462.6519921793
 20
360.0159158504
 10
462.9917483152
 20
360.0450100323
 10
463.3249285585
 20
360.0931889097
 10
463.6483242014
 20
360.1599884938
 10
463.958820767
 20
360.244765468
 10
464.2534280037
 20
360.3467033837
 10
464.5293086827
 20
360.4648205231
 10
464.7838059223
 20
360.5979793536
 10
465.0144687749
 20
360.7448974828
 10
465.2190758312
 20
360.9041600088
 10
465.3956566134
 20
361.0742331464
 10
465.5425105519
 20
361.2534789984
 10
465.6582233632
 20
361.4401713291
 10
465.7416806695
 20
361.6325121895
 10
465.7920787315
 20
361.8286492319
 10
465.8089321881
 20
362.0266935493
 10
465.7920787315
 20
362.2247378667
 10
465.7416806695
 20
362.420874909
 10
465.6582233632
 20
362.6132157694
 10
465.5425105519
 20
362.7999081002
 10
465.3956566134
 20
362.9791539522
 10
465.2190758312
 20
363.1492270898
 10
465.0144687749
 20
363.3084896158
 10
464.7838059223
 20
363.455407745
  0
LWPOLYLINE
  5
8C
330
1F
100
AcDbEntity
  8
0
  6
Continuous
 62
     7
370
    25
100
AcDbPolyline
 90
       33
 70
   128
 43
0.0
 10
478.925941546
 20
355.2913266267
 10
478.6714443064
 20
355.4244854572
 10
478.3955636274
 20
355.5426025966
 10
478.1009563908
 20
355.6445405123
 10
477.7904598251
 20
355.7293174865
 10
477.4670641823
 20
355.7961170706
 10
477.1338839389
 20
355.8442959481
 10
476.794127803
 20
355.8733901299
 10
476.4510678119
 20
355.8831194234
 10
476.1080078207
 20
355.8733901299
 10
475.7682516848
 20
355.8442959481
 10
475.4350714415
 20
355.7961170706
 10
475.1116757986
 20
355.7293174865
 10
474.801179233
 20
355.6445405123
 10
474.5065719963
 20
355.5426025966
 10
474.2306913173
 20
355.4244854572
 10
473.9761940777
 20
355.2913266267
 10
473.7455312251
 20
355.1444084976
 10
473.5409241688
 20
354.9851459716
 10
473.3643433866
 20
354.815072834
 10
473.2174894481
 20
354.635826982
 10
473.1017766368
 20
354.4491346512
 10
473.0183193305
 20
354.2567937908
 10
472.9679212685
 20
354.0606567485
 10
472.9510678119
 20
353.8626124311
 10
472.9679212685
 20
353.6645681137
 10
473.0183193305
 20
353.4684310713
 10
473.1017766368
 20
353.2760902109
 10
473.2174894481
 20
353.0893978801
 10
473.3643433866
 20
352.9101520282
 10
473.5409241688
 20
352.7400788905
 10
473.7455312251
 20
352.5808163645
 10
473.9761940777
 20
352.4338982354
  0
LWPOLYLINE
  5
8D
330
1F
100
AcDbEntity
  8
0
  6
Continuous
 62
     7
370
    25
100
AcDbPolyline
 90
       33
 70
   128
 43
0.0
 10
473.9761940777
 20
352.4338982354
 10
474.2306913173
 20
352.3007394049
 10
474.5065719963
 20
352.1826222655
 10
474.801179233
 20
352.0806843498
 10
475.1116757986
 20
351.9959073756
 10
475.4350714415
 20
351.9291077915
 10
475.7682516848
 20
351.8809289141
 10
476.1080078207
 20
351.8518347322
 10
476.4510678119
 20
351.8421054388
 10
476.794127803
 20
351.8518347322
 10
477.1338839389
 20
351.8809289141
 10
477.4670641823
 20
351.9291077915
 10
477.7904598251
 20
351.9959073756
 10
478.1009563908
 20
352.0806843498
 10
478.3955636274
 20
352.1826222655
 10
478.6714443064
 20
352.3007394049
 10
478.925941546
 20
352.4338982354
 10
479.1566043986
 20
352.5808163645
 10
479.3612114549
 20
352.7400788905
 10
479.5377922371
 20
352.9101520282
 10
479.6846461757
 20
353.0893978801
 10
479.8003589869
 20
353.2760902109
 10
479.8838162933
 20
353.4684310713
 10
479.9342143552
 20
353.6645681137
 10
479.9510678119
 20
353.8626124311
 10
479.9342143552
 20
354.0606567485
 10
479.8838162933
 20
354.2567937908
 10
479.8003589869
 20
354.4491346512
 10
479.6846461757
 20
354.635826982
 10
479.5377922371
 20
354.815072834
 10
479.3612114549
 20
354.9851459716
 10
479.1566043986
 20
355.1444084976
 10
478.925941546
 20
355.2913266267
  0
LWPOLYLINE
  5
8E
330
1F
100
AcDbEntity
  8
0
  6
HIDDEN
 62
     7
370
    18
100
AcDbPolyline
 90
       33
 70
   128
 43
0.0
 10
473.9761940777
 20
326.304592255
 10
474.2306913173
 20
326.1714334246
 10
474.5065719963
 20
326.0533162852
 10
474.801179233
 20
325.9513783694
 10
475.1116757986
 20
325.8666013952
 10
475.4350714415
 20
325.7998018112
 10
475.7682516848
 20
325.7516229337
 10
476.1080078207
 20
325.7225287518
 10
476.4510678119
 20
325.7127994584
 10
476.794127803
 20
325.7225287518
 10
477.1338839389
 20
325.7516229337
 10
477.4670641823
 20
325.7998018112
 10
477.7904598251
 20
325.8666013952
 10
478.1009563908
 20
325.9513783694
 10
478.3955636274
 20
326.0533162852
 10
478.6714443064
 20
326.1714334246
 10
478.925941546
 20
326.304592255
 10
479.1566043986
 20
326.4515103842
 10
479.3612114549
 20
326.6107729102
 10
479.5377922371
 20
326.7808460478
 10
479.6846461757
 20
326.9600918998
 10
479.8003589869
 20
327.1467842306
 10
479.8838162933
 20
327.339125091
 10
479.9342143552
 20
327.5352621333
 10
479.9510678119
 20
327.7333064507
 10
479.9342143552
 20
327.9313507681
 10
479.8838162933
 20
328.1274878105
 10
479.8003589869
 20
328.3198286709
 10
479.6846461757
 20
328.5065210016
 10
479.5377922371
 20
328.6857668536
 10
479.3612114549
 20
328.8558399912
 10
479.1566043986
 20
329.0151025172
 10
478.925941546
 20
329.1620206464
  0
LWPOLYLINE
  5
8F
330
1F
100
AcDbEntity
  8
0
  6
HIDDEN
 62
     7
370
    18
100
AcDbPolyline
 90
       33
 70
   128
 43
0.0
 10
478.925941546
 20
329.1620206464
 10
478.6714443064
 20
329.2951794769
 10
478.3955636274
 20
329.4132966163
 10
478.1009563908
 20
329.515234532
 10
477.7904598251
 20
329.6000115062
 10
477.4670641823
 20
329.6668110903
 10
477.1338839389
 20
329.7149899677
 10
476.794127803
 20
329.7440841496
 10
476.4510678119
 20
329.753813443
 10
476.1080078207
 20
329.7440841496
 10
475.7682516848
 20
329.7149899677
 10
475.4350714415
 20
329.6668110903
 10
475.1116757986
 20
329.6000115062
 10
474.801179233
 20
329.515234532
 10
474.5065719963
 20
329.4132966163
 10
474.2306913173
 20
329.2951794769
 10
473.9761940777
 20
329.1620206464
 10
473.7455312251
 20
329.0151025172
 10
473.5409241688
 20
328.8558399912
 10
473.3643433866
 20
328.6857668536
 10
473.2174894481
 20
328.5065210016
 10
473.1017766368
 20
328.3198286709
 10
473.0183193305
 20
328.1274878105
 10
472.9679212685
 20
327.9313507681
 10
472.9510678119
 20
327.7333064507
 10
472.9679212685
 20
327.5352621333
 10
473.0183193305
 20
327.339125091
 10
473.1017766368
 20
327.1467842306
 10
473.2174894481
 20
326.9600918998
 10
473.3643433866
 20
326.7808460478
 10
473.5409241688
 20
326.6107729102
 10
473.7455312251
 20
326.4515103842
 10
473.9761940777
 20
326.304592255
  0
LWPOLYLINE
  5
90
330
1F
100
AcDbEntity
  8
0
  6
HIDDEN
 62
     7
370
    18
100
AcDbPolyline
 90
       30
 70
   128
 43
0.0
 10
475.7439610307
 20
354.2700202866
 10
475.7315257599
 20
354.5420497888
 10
475.6943657399
 20
354.8252474519
 10
475.6329166378
 20
355.1162930421
 10
475.5478988882
 20
355.4117743159
 10
475.4403092464
 20
355.7082270257
 10
475.3114091028
 20
356.0021755344
 10
475.1627096935
 20
356.2901735646
 10
474.9959543832
 20
356.5688446026
 10
474.8130982254
 20
356.8349214853
 10
474.6162850415
 20
357.0852847046
 10
474.407822286
 20
357.3169989806
 10
474.1901539941
 20
357.5273476753
 10
473.9658321276
 20
357.7138646425
 10
473.7374866553
 20
357.8743631414
 10
473.507794719
 20
358.0069614739
 10
473.2794492466
 20
358.1101050455
 10
473.0551273801
 20
358.1825845925
 10
472.8374590883
 20
358.2235503582
 10
472.6289963328
 20
358.2325220565
 10
472.4321831488
 20
358.2093945026
 10
472.2493269911
 20
358.1544388457
 10
472.0825716808
 20
358.0682993909
 10
471.9338722715
 20
357.9519860443
 10
471.8049721278
 20
357.8068624736
 10
471.6973824861
 20
357.6346301201
 10
471.6123647365
 20
357.4373082505
 10
471.5509156344
 20
357.2172102835
 10
471.5137556143
 20
356.9769166663
 10
471.5013203436
 20
356.7192446221
  0
LWPOLYLINE
  5
91
330
1F
100
AcDbEntity
  8
0
  6
HIDDEN
 62
     7
370
    18
100
AcDbPolyline
 90
       30
 70
   128
 43
0.0
 10
471.5013203436
 20
356.7192446221
 10
471.5137556143
 20
356.4472151198
 10
471.5509156344
 20
356.1640174568
 10
471.6123647365
 20
355.8729718666
 10
471.6973824861
 20
355.5774905927
 10
471.8049721278
 20
355.2810378829
 10
471.9338722715
 20
354.9870893742
 10
472.0825716808
 20
354.6990913441
 10
472.2493269911
 20
354.420420306
 10
472.4321831488
 20
354.1543434233
 10
472.6289963328
 20
353.903980204
 10
472.8374590883
 20
353.672265928
 10
473.0551273801
 20
353.4619172333
 10
473.2794492466
 20
353.2754002661
 10
473.507794719
 20
353.1149017672
 10
473.7374866553
 20
352.9823034348
 10
473.9658321276
 20
352.8791598631
 10
474.1901539941
 20
352.8066803162
 10
474.407822286
 20
352.7657145505
 10
474.6162850415
 20
352.7567428521
 10
474.8130982254
 20
352.7798704061
 10
474.9959543832
 20
352.8348260629
 10
475.1627096935
 20
352.9209655178
 10
475.3114091028
 20
353.0372788644
 10
475.4403092464
 20
353.1824024351
 10
475.5478988882
 20
353.3546347886
 10
475.6329166378
 20
353.5519566581
 10
475.6943657399
 20
353.7720546252
 10
475.7315257599
 20
354.0123482423
 10
475.7439610307
 20
354.2700202866
  0
LWPOLYLINE
  5
92
330
1F
100
AcDbEntity
  8
0
  6
HIDDEN
 62
     7
370
    18
100
AcDbPolyline
 90
       33
 70
   128
 43
0.0
 10
459.834058454
 20
334.4686733733
 10
460.0885556936
 20
334.3355145428
 10
460.3644363726
 20
334.2173974034
 10
460.6590436092
 20
334.1154594877
 10
460.9695401749
 20
334.0306825135
 10
461.2929358177
 20
333.9638829294
 10
461.6261160611
 20
333.9157040519
 10
461.965872197
 20
333.8866098701
 10
462.3089321881
 20
333.8768805766
 10
462.6519921793
 20
333.8866098701
 10
462.9917483152
 20
333.9157040519
 10
463.3249285585
 20
333.9638829294
 10
463.6483242014
 20
334.0306825135
 10
463.958820767
 20
334.1154594877
 10
464.2534280037
 20
334.2173974034
 10
464.5293086827
 20
334.3355145428
 10
464.7838059223
 20
334.4686733733
 10
465.0144687749
 20
334.6155915024
 10
465.2190758312
 20
334.7748540284
 10
465.3956566134
 20
334.944927166
 10
465.5425105519
 20
335.124173018
 10
465.6582233632
 20
335.3108653488
 10
465.7416806695
 20
335.5032062092
 10
465.7920787315
 20
335.6993432515
 10
465.8089321881
 20
335.8973875689
 10
465.7920787315
 20
336.0954318863
 10
465.7416806695
 20
336.2915689287
 10
465.6582233632
 20
336.4839097891
 10
465.5425105519
 20
336.6706021199
 10
465.3956566134
 20
336.8498479718
 10
465.2190758312
 20
337.0199211095
 10
465.0144687749
 20
337.1791836355
 10
464.7838059223
 20
337.3261017646
  0
LWPOLYLINE
  5
93
330
1F
100
AcDbEntity
  8
0
  6
HIDDEN
 62
     7
370
    18
100
AcDbPolyline
 90
       33
 70
   128
 43
0.0
 10
464.7838059223
 20
337.3261017646
 10
464.5293086827
 20
337.4592605951
 10
464.2534280037
 20
337.5773777345
 10
463.958820767
 20
337.6793156502
 10
463.6483242014
 20
337.7640926244
 10
463.3249285585
 20
337.8308922085
 10
462.9917483152
 20
337.8790710859
 10
462.6519921793
 20
337.9081652678
 10
462.3089321881
 20
337.9178945612
 10
461.965872197
 20
337.9081652678
 10
461.6261160611
 20
337.8790710859
 10
461.2929358177
 20
337.8308922085
 10
460.9695401749
 20
337.7640926244
 10
460.6590436092
 20
337.6793156502
 10
460.3644363726
 20
337.5773777345
 10
460.0885556936
 20
337.4592605951
 10
459.834058454
 20
337.3261017646
 10
459.6033956014
 20
337.1791836355
 10
459.3987885451
 20
337.0199211095
 10
459.2222077629
 20
336.8498479718
 10
459.0753538243
 20
336.6706021199
 10
458.9596410131
 20
336.4839097891
 10
458.8761837067
 20
336.2915689287
 10
458.8257856448
 20
336.0954318863
 10
458.8089321881
 20
335.8973875689
 10
458.8257856448
 20
335.6993432515
 10
458.8761837067
 20
335.5032062092
 10
458.9596410131
 20
335.3108653488
 10
459.0753538243
 20
335.124173018
 10
459.2222077629
 20
334.944927166
 10
459.3987885451
 20
334.7748540284
 10
459.6033956014
 20
334.6155915024
 10
459.834058454
 20
334.4686733733
  0
LINE
  5
94
330
1F
100
AcDbEntity
  8
0
  6
HIDDEN
 62
     7
370
    18
100
AcDbLine
 10
461.6018254069
 20
341.2040402958
 30
0.0
 11
485.6434559673
 21
327.3251023948
 31
0.0
  0
LINE
  5
95
330
1F
100
AcDbEntity
  8
0
  6
HIDDEN
 62
     7
370
    18
100
AcDbLine
 10
453.1165440327
 20
336.3055916249
 30
0.0
 11
461.6018254069
 21
341.2040402958
 31
0.0
  0
LINE
  5
96
330
1F
100
AcDbEntity
  8
0
  6
HIDDEN
 62
     7
370
    18
100
AcDbLine
 10
461.6018254069
 20
367.3333462761
 30
0.0
 11
461.6018254069
 21
341.2040402958
 31
0.0
  0
LINE
  5
97
330
1F
100
AcDbEntity
  8
0
  6
HIDDEN
 62
     7
370
    18
100
AcDbLine
 10
479.9510678119
 20
327.7333064507
 30
0.0
 11
479.9510678119
 21
353.8626124311
 31
0.0
  0
LINE
  5
98
330
1F
100
AcDbEntity
  8
0
  6
HIDDEN
 62
     7
370
    18
100
AcDbLine
 10
472.9510678119
 20
353.8626124311
 30
0.0
 11
472.9510678119
 21
327.7333064507
 31
0.0
  0
LINE
  5
99
330
1F
100
AcDbEntity
  8
0
  6
HIDDEN
 62
     7
370
    18
100
AcDbLine
 10
472.1227625882
 20
358.0927790415
 30
0.0
 11
463.6374812139
 21
353.1943303705
 31
0.0
  0
LINE
  5
9A
330
1F
100
AcDbEntity
  8
0
  6
HIDDEN
 62
     7
370
    18
100
AcDbLine
 10
466.6372374118
 20
347.9980371962
 30
0.0
 11
475.1225187861
 21
352.8964858672
 31
0.0
  0
LINE
  5
9B
330
1F
100
AcDbEntity
  8
0
  6
HIDDEN
 62
     7
370
    18
100
AcDbLine
 10
465.8089321881
 20
335.8973875689
 30
0.0
 11
465.8089321881
 21
362.0266935493
 31
0.0
  0
LINE
  5
9C
330
1F
100
AcDbEntity
  8
0
  6
HIDDEN
 62
     7
370
    18
100
AcDbLine
 10
458.8089321881
 20
362.0266935493
 30
0.0
 11
458.8089321881
 21
335.8973875689
 31
0.0
  0
ENDSEC
  0
SECTION
  2
OBJECTS
  0
DICTIONARY
  5
C
330
0
100
AcDbDictionary
281
     1
  3
ACAD_GROUP
350
D
  3
ACAD_LAYOUT
350
1A
  3
ACAD_MLINESTYLE
350
17
  3
ACAD_PLOTSETTINGS
350
19
  3
ACAD_PLOTSTYLENAME
350
E
  3
ACAD_SCALELIST
350
47
  3
DWGPROPS
350
9D
  0
DICTIONARY
  5
D
102
{ACAD_REACTORS
330
C
102
}
330
C
100
AcDbDictionary
281
     1
  0
DICTIONARY
  5
1A
102
{ACAD_REACTORS
330
C
102
}
330
C
100
AcDbDictionary
281
     1
  3
Layout1
350
1E
  3
Layout2
350
26
  3
Model
350
22
  0
DICTIONARY
  5
17
102
{ACAD_REACTORS
330
C
102
}
330
C
100
AcDbDictionary
281
     1
  3
Standard
350
18
  0
DICTIONARY
  5
19
102
{ACAD_REACTORS
330
C
102
}
330
C
100
AcDbDictionary
281
     1
  0
ACDBDICTIONARYWDFLT
  5
E
102
{ACAD_REACTORS
330
C
102
}
330
C
100
AcDbDictionary
281
     1
  3
Normal
350
F
100
AcDbDictionaryWithDefault
340
F
  0
DICTIONARY
  5
47
102
{ACAD_REACTORS
330
C
102
}
330
C
100
AcDbDictionary
281
     1
  3
A0
350
48
  3
A1
350
49
  3
A2
350
4A
  3
A3
350
4B
  3
A4
350
4C
  3
A5
350
4D
  3
A6
350
4E
  3
A7
350
4F
  3
A8
350
50
  3
A9
350
51
  3
B0
350
52
  3
B1
350
53
  3
B2
350
54
  3
B3
350
55
  3
B4
350
56
  3
B5
350
57
  3
B6
350
58
  0
XRECORD
  5
9D
102
{ACAD_REACTORS
330
C
102
}
330
C
100
AcDbXrecord
280
     1
  1
DWGPROPS COOKIE
  2

  3

  4

  6

  7

  8
imaizumi
  9

300
=
301
=
302
=
303
=
304
=
305
=
306
=
307
=
308
=
309
=
 40
0.0
 41
2461263.0709136
 42
2461263.070914421
  1

 90
        0
  0
LAYOUT
  5
1E
102
{ACAD_REACTORS
330
1A
102
}
330
1A
100
AcDbPlotSettings
  1

  2
none_device
  4

  6

 40
0.0
 41
0.0
 42
0.0
 43
0.0
 44
0.0
 45
0.0
 46
0.0
 47
0.0
 48
0.0
 49
0.0
140
0.0
141
0.0
142
1.0
143
1.0
 70
   688
 72
     1
 73
     0
 74
     5
  7

 75
    16
147
1.0
148
0.0
149
0.0
100
AcDbLayout
  1
Layout1
 70
     1
 71
     1
 10
0.0
 20
0.0
 11
420.0
 21
297.0
 12
0.0
 22
0.0
 32
0.0
 14
1.0000000000E+20
 24
1.0000000000E+20
 34
1.0000000000E+20
 15
-1.0000000000E+20
 25
-1.0000000000E+20
 35
-1.0000000000E+20
146
0.0
 13
0.0
 23
0.0
 33
0.0
 16
1.0
 26
0.0
 36
0.0
 17
0.0
 27
1.0
 37
0.0
 76
     0
330
1B
  0
LAYOUT
  5
26
102
{ACAD_REACTORS
330
1A
102
}
330
1A
100
AcDbPlotSettings
  1

  2
none_device
  4

  6

 40
0.0
 41
0.0
 42
0.0
 43
0.0
 44
0.0
 45
0.0
 46
0.0
 47
0.0
 48
0.0
 49
0.0
140
0.0
141
0.0
142
1.0
143
1.0
 70
   688
 72
     1
 73
     0
 74
     5
  7

 75
    16
147
1.0
148
0.0
149
0.0
100
AcDbLayout
  1
Layout2
 70
     1
 71
     2
 10
0.0
 20
0.0
 11
0.0
 21
0.0
 12
0.0
 22
0.0
 32
0.0
 14
0.0
 24
0.0
 34
0.0
 15
0.0
 25
0.0
 35
0.0
146
0.0
 13
0.0
 23
0.0
 33
0.0
 16
1.0
 26
0.0
 36
0.0
 17
0.0
 27
1.0
 37
0.0
 76
     0
330
23
  0
LAYOUT
  5
22
102
{ACAD_REACTORS
330
1A
102
}
330
1A
100
AcDbPlotSettings
  1

  2
none_device
  4
Letter_(8.50_x_11.00_Inches)
  6

 40
6.35
 41
6.35
 42
6.35000508
 43
6.35000508
 44
215.9
 45
279.4
 46
0.0
 47
0.0
 48
0.0
 49
0.0
140
0.0
141
0.0
142
1.0
143
1.0
 70
  1712
 72
     1
 73
     0
 74
     0
  7

 75
     0
147
1.0
148
0.0
149
0.0
100
AcDbLayout
  1
Model
 70
     1
 71
     0
 10
0.0
 20
0.0
 11
841.0
 21
594.0
 12
0.0
 22
0.0
 32
0.0
 14
0.0
 24
0.0
 34
0.0
 15
841.0
 25
594.0
 35
0.0
146
0.0
 13
0.0
 23
0.0
 33
0.0
 16
1.0
 26
0.0
 36
0.0
 17
0.0
 27
1.0
 37
0.0
 76
     0
330
1F
331
29
  0
MLINESTYLE
  5
18
102
{ACAD_REACTORS
330
17
102
}
330
17
100
AcDbMlineStyle
  2
Standard
 70
     0
  3

 62
   256
 51
90.0
 52
90.0
 71
     2
 49
0.5
 62
   256
  6
BYLAYER
 49
-0.5
 62
   256
  6
BYLAYER
  0
ACDBPLACEHOLDER
  5
F
102
{ACAD_REACTORS
330
E
102
}
330
E
  0
SCALE
  5
48
102
{ACAD_REACTORS
330
47
102
}
330
47
100
AcDbScale
 70
     0
300
1:1
140
1.0
141
1.0
290
     1
  0
SCALE
  5
49
102
{ACAD_REACTORS
330
47
102
}
330
47
100
AcDbScale
 70
     0
300
1:2
140
1.0
141
2.0
290
     0
  0
SCALE
  5
4A
102
{ACAD_REACTORS
330
47
102
}
330
47
100
AcDbScale
 70
     0
300
1:4
140
1.0
141
4.0
290
     0
  0
SCALE
  5
4B
102
{ACAD_REACTORS
330
47
102
}
330
47
100
AcDbScale
 70
     0
300
1:5
140
1.0
141
5.0
290
     0
  0
SCALE
  5
4C
102
{ACAD_REACTORS
330
47
102
}
330
47
100
AcDbScale
 70
     0
300
1:8
140
1.0
141
8.0
290
     0
  0
SCALE
  5
4D
102
{ACAD_REACTORS
330
47
102
}
330
47
100
AcDbScale
 70
     0
300
1:10
140
1.0
141
10.0
290
     0
  0
SCALE
  5
4E
102
{ACAD_REACTORS
330
47
102
}
330
47
100
AcDbScale
 70
     0
300
1:16
140
1.0
141
16.0
290
     0
  0
SCALE
  5
4F
102
{ACAD_REACTORS
330
47
102
}
330
47
100
AcDbScale
 70
     0
300
1:20
140
1.0
141
20.0
290
     0
  0
SCALE
  5
50
102
{ACAD_REACTORS
330
47
102
}
330
47
100
AcDbScale
 70
     0
300
1:30
140
1.0
141
30.0
290
     0
  0
SCALE
  5
51
102
{ACAD_REACTORS
330
47
102
}
330
47
100
AcDbScale
 70
     0
300
1:40
140
1.0
141
40.0
290
     0
  0
SCALE
  5
52
102
{ACAD_REACTORS
330
47
102
}
330
47
100
AcDbScale
 70
     0
300
1:50
140
1.0
141
50.0
290
     0
  0
SCALE
  5
53
102
{ACAD_REACTORS
330
47
102
}
330
47
100
AcDbScale
 70
     0
300
1:100
140
1.0
141
100.0
290
     0
  0
SCALE
  5
54
102
{ACAD_REACTORS
330
47
102
}
330
47
100
AcDbScale
 70
     0
300
2:1
140
2.0
141
1.0
290
     0
  0
SCALE
  5
55
102
{ACAD_REACTORS
330
47
102
}
330
47
100
AcDbScale
 70
     0
300
4:1
140
4.0
141
1.0
290
     0
  0
SCALE
  5
56
102
{ACAD_REACTORS
330
47
102
}
330
47
100
AcDbScale
 70
     0
300
8:1
140
8.0
141
1.0
290
     0
  0
SCALE
  5
57
102
{ACAD_REACTORS
330
47
102
}
330
47
100
AcDbScale
 70
     0
300
10:1
140
10.0
141
1.0
290
     0
  0
SCALE
  5
58
102
{ACAD_REACTORS
330
47
102
}
330
47
100
AcDbScale
 70
     0
300
100:1
140
100.0
141
1.0
290
     0
  0
ENDSEC
  0
EOF
