  0
SECTION
  2
HEADER
  9
$ACADVER
  1
AC1015
  9
$ACADMAINTVER
 70
     6
  9
$DWGCODEPAGE
  3
DOS932
  9
$INSBASE
 10
0.0
 20
0.0
 30
0.0
  9
$EXTMIN
 10
0.0
 20
0.0
 30
0.0
  9
$EXTMAX
 10
841.0
 20
594.0
 30
0.0
  9
$LIMMIN
 10
0.0
 20
0.0
  9
$LIMMAX
 10
841.0
 20
594.0
  9
$ORTHOMODE
 70
     0
  9
$REGENMODE
 70
     1
  9
$FILLMODE
 70
     1
  9
$QTEXTMODE
 70
     0
  9
$MIRRTEXT
 70
     1
  9
$LTSCALE
 40
1.0
  9
$ATTMODE
 70
     1
  9
$TEXTSIZE
 40
3.5
  9
$TRACEWID
 40
1.0
  9
$TEXTSTYLE
  7
Standard
  9
$CLAYER
  8
0
  9
$CELTYPE
  6
ByLayer
  9
$CECOLOR
 62
   256
  9
$CELTSCALE
 40
1.0
  9
$DISPSILH
 70
     0
  9
$DIMSCALE
 40
1.0
  9
$DIMASZ
 40
3.302
  9
$DIMEXO
 40
1.0
  9
$DIMDLI
 40
3.75
  9
$DIMRND
 40
0.0
  9
$DIMDLE
 40
0.0
  9
$DIMEXE
 40
1.0
  9
$DIMTP
 40
0.0
  9
$DIMTM
 40
0.0
  9
$DIMTXT
 40
3.5
  9
$DIMCEN
 40
2.5
  9
$DIMTSZ
 40
0.0
  9
$DIMTOL
 70
     0
  9
$DIMLIM
 70
     0
  9
$DIMTIH
 70
     1
  9
$DIMTOH
 70
     1
  9
$DIMSE1
 70
     0
  9
$DIMSE2
 70
     0
  9
$DIMTAD
 70
     1
  9
$DIMZIN
 70
     1
  9
$DIMBLK
  1

  9
$DIMASO
 70
     1
  9
$DIMSHO
 70
     1
  9
$DIMPOST
  1

  9
$DIMAPOST
  1

  9
$DIMALT
 70
     0
  9
$DIMALTD
 70
     3
  9
$DIMALTF
 40
0.0393700787
  9
$DIMLFAC
 40
0.2
  9
$DIMTOFL
 70
     1
  9
$DIMTVP
 40
0.0
  9
$DIMTIX
 70
     0
  9
$DIMSOXD
 70
     0
  9
$DIMSAH
 70
     0
  9
$DIMBLK1
  1

  9
$DIMBLK2
  1

  9
$DIMSTYLE
  2
ISO-25
  9
$DIMCLRD
 70
     0
  9
$DIMCLRE
 70
     0
  9
$DIMCLRT
 70
     0
  9
$DIMTFAC
 40
1.0
  9
$DIMGAP
 40
1.524
  9
$DIMJUST
 70
     0
  9
$DIMSD1
 70
     0
  9
$DIMSD2
 70
     0
  9
$DIMTOLJ
 70
     0
  9
$DIMTZIN
 70
     1
  9
$DIMALTZ
 70
     0
  9
$DIMALTTZ
 70
     0
  9
$DIMUPT
 70
     0
  9
$DIMDEC
 70
     2
  9
$DIMTDEC
 70
     2
  9
$DIMALTU
 70
     2
  9
$DIMALTTD
 70
     3
  9
$DIMTXSTY
  7
Standard
  9
$DIMAUNIT
 70
     0
  9
$DIMADEC
 70
     2
  9
$DIMALTRND
 40
0.0
  9
$DIMAZIN
 70
     0
  9
$DIMDSEP
 70
    44
  9
$DIMATFIT
 70
     3
  9
$DIMFRAC
 70
     0
  9
$DIMLDRBLK
  1

  9
$DIMLUNIT
 70
     2
  9
$DIMLWD
 70
    -2
  9
$DIMLWE
 70
    -2
  9
$DIMTMOVE
 70
     0
  9
$LUNITS
 70
     2
  9
$LUPREC
 70
     2
  9
$SKETCHINC
 40
1.0
  9
$FILLETRAD
 40
0.0
  9
$AUNITS
 70
     0
  9
$AUPREC
 70
     2
  9
$MENU
  1
.
  9
$ELEVATION
 40
0.0
  9
$PELEVATION
 40
0.0
  9
$THICKNESS
 40
0.0
  9
$LIMCHECK
 70
     0
  9
$CHAMFERA
 40
0.0
  9
$CHAMFERB
 40
0.0
  9
$CHAMFERC
 40
0.0
  9
$CHAMFERD
 40
0.0
  9
$SKPOLY
 70
     0
  9
$TDCREATE
 40
2461263.428289757
  9
$TDUCREATE
 40
2461263.053289757
  9
$TDUPDATE
 40
2461263.428290151
  9
$TDUUPDATE
 40
2461263.053290151
  9
$TDINDWG
 40
0.0000000116
  9
$TDUSRTIMER
 40
0.0000000116
  9
$USRTIMER
 70
     1
  9
$ANGBASE
 50
0.0
  9
$ANGDIR
 70
     0
  9
$PDMODE
 70
     0
  9
$PDSIZE
 40
-1.0
  9
$PLINEWID
 40
0.0
  9
$SPLFRAME
 70
     0
  9
$SPLINETYPE
 70
     6
  9
$SPLINESEGS
 70
     8
  9
$HANDSEED
  5
C0
  9
$SURFTAB1
 70
     6
  9
$SURFTAB2
 70
     6
  9
$SURFTYPE
 70
     6
  9
$SURFU
 70
     6
  9
$SURFV
 70
     6
  9
$UCSBASE
  2

  9
$UCSNAME
  2

  9
$UCSORG
 10
0.0
 20
0.0
 30
0.0
  9
$UCSXDIR
 10
1.0
 20
0.0
 30
0.0
  9
$UCSYDIR
 10
0.0
 20
1.0
 30
0.0
  9
$UCSORTHOREF
  2

  9
$UCSORTHOVIEW
 70
     0
  9
$UCSORGTOP
 10
0.0
 20
0.0
 30
0.0
  9
$UCSORGBOTTOM
 10
0.0
 20
0.0
 30
0.0
  9
$UCSORGLEFT
 10
0.0
 20
0.0
 30
0.0
  9
$UCSORGRIGHT
 10
0.0
 20
0.0
 30
0.0
  9
$UCSORGFRONT
 10
0.0
 20
0.0
 30
0.0
  9
$UCSORGBACK
 10
0.0
 20
0.0
 30
0.0
  9
$PUCSBASE
  2

  9
$PUCSNAME
  2

  9
$PUCSORG
 10
0.0
 20
0.0
 30
0.0
  9
$PUCSXDIR
 10
1.0
 20
0.0
 30
0.0
  9
$PUCSYDIR
 10
0.0
 20
1.0
 30
0.0
  9
$PUCSORTHOREF
  2

  9
$PUCSORTHOVIEW
 70
     0
  9
$PUCSORGTOP
 10
0.0
 20
0.0
 30
0.0
  9
$PUCSORGBOTTOM
 10
0.0
 20
0.0
 30
0.0
  9
$PUCSORGLEFT
 10
0.0
 20
0.0
 30
0.0
  9
$PUCSORGRIGHT
 10
0.0
 20
0.0
 30
0.0
  9
$PUCSORGFRONT
 10
0.0
 20
0.0
 30
0.0
  9
$PUCSORGBACK
 10
0.0
 20
0.0
 30
0.0
  9
$USERI1
 70
     0
  9
$USERI2
 70
     0
  9
$USERI3
 70
     0
  9
$USERI4
 70
     0
  9
$USERI5
 70
     0
  9
$USERR1
 40
0.0
  9
$USERR2
 40
0.0
  9
$USERR3
 40
0.0
  9
$USERR4
 40
0.0
  9
$USERR5
 40
0.0
  9
$WORLDVIEW
 70
     1
  9
$SHADEDGE
 70
     3
  9
$SHADEDIF
 70
    70
  9
$TILEMODE
 70
     1
  9
$MAXACTVP
 70
    64
  9
$PINSBASE
 10
0.0
 20
0.0
 30
0.0
  9
$PLIMCHECK
 70
     0
  9
$PEXTMIN
 10
1.0000000000E+20
 20
1.0000000000E+20
 30
1.0000000000E+20
  9
$PEXTMAX
 10
-1.0000000000E+20
 20
-1.0000000000E+20
 30
-1.0000000000E+20
  9
$PLIMMIN
 10
0.0
 20
0.0
  9
$PLIMMAX
 10
420.0
 20
297.0
  9
$UNITMODE
 70
     0
  9
$VISRETAIN
 70
     1
  9
$PLINEGEN
 70
     0
  9
$PSLTSCALE
 70
     1
  9
$TREEDEPTH
 70
  3020
  9
$CMLSTYLE
  2
Standard
  9
$CMLJUST
 70
     0
  9
$CMLSCALE
 40
20.0
  9
$PROXYGRAPHICS
 70
     1
  9
$MEASUREMENT
 70
     1
  9
$CELWEIGHT
370
    -1
  9
$ENDCAPS
280
     0
  9
$JOINSTYLE
280
     0
  9
$LWDISPLAY
290
     1
  9
$INSUNITS
 70
     4
  9
$HYPERLINKBASE
  1

  9
$STYLESHEET
  1

  9
$XEDIT
290
     1
  9
$CEPSNTYPE
380
     0
  9
$PSTYLEMODE
290
     1
  9
$FINGERPRINTGUID
  2
{a79d07a9-2303-42c9-b78a-382efe009e74}
  9
$VERSIONGUID
  2
{FAEB1C32-E019-11D5-929B-00C0DF256EC4}
  9
$EXTNAMES
290
     1
  9
$PSVPSCALE
 40
0.0
  9
$OLESTARTUP
290
     0
  0
ENDSEC
  0
SECTION
  2
CLASSES
  0
CLASS
  1
ACDBDICTIONARYWDFLT
  2
AcDbDictionaryWithDefault
  3
ObjectDBX Classes
 90
        0
280
     0
281
     0
  0
CLASS
  1
VISUALSTYLE
  2
AcDbVisualStyle
  3
ObjectDBX Classes
 90
     4095
280
     0
281
     0
  0
CLASS
  1
MATERIAL
  2
AcDbMaterial
  3
ObjectDBX Classes
 90
     1153
280
     0
281
     0
  0
CLASS
  1
SCALE
  2
AcDbScale
  3
ObjectDBX Classes
 90
     1153
280
     0
281
     0
  0
CLASS
  1
TABLESTYLE
  2
AcDbTableStyle
  3
ObjectDBX Classes
 90
     4095
280
     0
281
     0
  0
CLASS
  1
MLEADERSTYLE
  2
AcDbMLeaderStyle
  3
ACDB_MLEADERSTYLE_CLASS
 90
     4095
280
     0
281
     0
  0
CLASS
  1
SUN
  2
AcDbSun
  3
SCENEOE
 90
     1153
280
     0
281
     0
  0
CLASS
  1
ACDBPLACEHOLDER
  2
AcDbPlaceHolder
  3
ObjectDBX Classes
 90
        0
280
     0
281
     0
  0
CLASS
  1
LAYOUT
  2
AcDbLayout
  3
ObjectDBX Classes
 90
        0
280
     0
281
     0
  0
ENDSEC
  0
SECTION
  2
TABLES
  0
TABLE
  2
VPORT
  5
8
330
0
100
AcDbSymbolTable
 70
     1
  0
VPORT
  5
29
330
8
100
AcDbSymbolTableRecord
100
AcDbViewportTableRecord
  2
*Active
 70
     0
 10
0.0
 20
0.0
 11
1.0
 21
1.0
 12
420.5
 22
297.0
 13
0.0
 23
0.0
 14
10.0
 24
10.0
 15
10.0
 25
10.0
 16
0.0
 26
0.0
 36
1.0
 17
0.0
 27
0.0
 37
0.0
 40
594.0
 41
1.4158249158
 42
50.0
 43
0.0
 44
0.0
 50
0.0
 51
0.0
 71
     0
 72
  2000
 73
     1
 74
     3
 75
     0
 76
     0
 77
     0
 78
     0
281
     0
 65
     1
110
0.0
120
0.0
130
0.0
111
1.0
121
0.0
131
0.0
112
0.0
122
1.0
132
0.0
 79
     0
146
0.0
  0
ENDTAB
  0
TABLE
  2
LTYPE
  5
5
330
0
100
AcDbSymbolTable
 70
     6
  0
LTYPE
  5
14
330
5
100
AcDbSymbolTableRecord
100
AcDbLinetypeTableRecord
  2
ByBlock
 70
     0
  3

 72
    65
 73
     0
 40
0.0
  0
LTYPE
  5
15
330
5
100
AcDbSymbolTableRecord
100
AcDbLinetypeTableRecord
  2
ByLayer
 70
     0
  3

 72
    65
 73
     0
 40
0.0
  0
LTYPE
  5
16
330
5
100
AcDbSymbolTableRecord
100
AcDbLinetypeTableRecord
  2
Continuous
 70
     0
  3
Solid line
 72
    65
 73
     0
 40
0.0
  0
LTYPE
  5
5E
330
5
100
AcDbSymbolTableRecord
100
AcDbLinetypeTableRecord
  2
HIDDEN
 70
     0
  3
Hidden __ __ __ __ __ __ __ __ __ __ __ __ __ __
 72
    65
 73
     2
 40
1.905
 49
1.27
 74
     0
 49
-0.635
 74
     0
  0
LTYPE
  5
5F
330
5
100
AcDbSymbolTableRecord
100
AcDbLinetypeTableRecord
  2
PHANTOM
 70
     0
  3
Phantom ______  __  __  ______  __  __  ______
 72
    65
 73
     6
 40
12.7
 49
6.35
 74
     0
 49
-1.27
 74
     0
 49
1.27
 74
     0
 49
-1.27
 74
     0
 49
1.27
 74
     0
 49
-1.27
 74
     0
  0
LTYPE
  5
60
330
5
100
AcDbSymbolTableRecord
100
AcDbLinetypeTableRecord
  2
CENTER
 70
     0
  3
Center ____ _ ____ _ ____ _ ____ _ ____ _ ____
 72
    65
 73
     4
 40
10.16
 49
6.35
 74
     0
 49
-1.27
 74
     0
 49
1.27
 74
     0
 49
-1.27
 74
     0
  0
LTYPE
  5
61
330
5
100
AcDbSymbolTableRecord
100
AcDbLinetypeTableRecord
  2
CENTERX2
 70
     0
  3
Center (2x) ________  __  ________  __  _____
 72
    65
 73
     4
 40
20.32
 49
12.7
 74
     0
 49
-2.54
 74
     0
 49
2.54
 74
     0
 49
-2.54
 74
     0
  0
LTYPE
  5
62
330
5
100
AcDbSymbolTableRecord
100
AcDbLinetypeTableRecord
  2
DOT2
 70
     0
  3
Dot (.5x) ........................................
 72
    65
 73
     2
 40
0.635
 49
0.0
 74
     0
 49
-0.635
 74
     0
  0
ENDTAB
  0
TABLE
  2
LAYER
  5
2
330
0
100
AcDbSymbolTable
 70
     1
  0
LAYER
  5
10
330
2
100
AcDbSymbolTableRecord
100
AcDbLayerTableRecord
  2
0
 70
     0
 62
     7
  6
Continuous
370
    -3
390
F
  0
ENDTAB
  0
TABLE
  2
STYLE
  5
3
330
0
100
AcDbSymbolTable
 70
     1
  0
STYLE
  5
11
330
3
100
AcDbSymbolTableRecord
100
AcDbTextStyleTableRecord
  2
Standard
 70
     0
 40
0.0
 41
1.0
 50
0.0
 71
     0
 42
3.5
  3
txt
  4
bigfont
  0
ENDTAB
  0
TABLE
  2
VIEW
  5
6
330
0
100
AcDbSymbolTable
 70
     0
  0
ENDTAB
  0
TABLE
  2
UCS
  5
7
330
0
100
AcDbSymbolTable
 70
     0
  0
ENDTAB
  0
TABLE
  2
APPID
  5
9
330
0
100
AcDbSymbolTable
 70
     1
  0
APPID
  5
12
330
9
100
AcDbSymbolTableRecord
100
AcDbRegAppTableRecord
  2
ACAD
 70
     0
  0
ENDTAB
  0
TABLE
  2
DIMSTYLE
  5
A
330
0
100
AcDbSymbolTable
 70
     1
100
AcDbDimStyleTable
  0
DIMSTYLE
105
27
330
A
100
AcDbSymbolTableRecord
100
AcDbDimStyleTableRecord
  2
ISO-25
 70
     0
 41
2.5
 42
0.625
 43
3.75
 44
1.25
 73
     0
 74
     0
 77
     1
 78
     8
140
2.5
141
2.5
143
0.0393700787
147
0.625
171
     3
172
     1
178
     0
271
     2
272
     2
274
     3
278
    44
283
     0
284
     8
340
11
  0
ENDTAB
  0
TABLE
  2
BLOCK_RECORD
  5
1
330
0
100
AcDbSymbolTable
 70
     1
  0
BLOCK_RECORD
  5
1F
330
1
100
AcDbSymbolTableRecord
100
AcDbBlockTableRecord
  2
*Model_Space
340
22
  0
BLOCK_RECORD
  5
1B
330
1
100
AcDbSymbolTableRecord
100
AcDbBlockTableRecord
  2
*Paper_Space
340
1E
  0
BLOCK_RECORD
  5
23
330
1
100
AcDbSymbolTableRecord
100
AcDbBlockTableRecord
  2
*Paper_Space0
340
26
  0
ENDTAB
  0
ENDSEC
  0
SECTION
  2
BLOCKS
  0
BLOCK
  5
20
330
1F
100
AcDbEntity
  8
0
100
AcDbBlockBegin
  2
*Model_Space
 70
     0
 10
0.0
 20
0.0
 30
0.0
  3
*Model_Space
  1

  0
ENDBLK
  5
21
330
1F
100
AcDbEntity
  8
0
100
AcDbBlockEnd
  0
BLOCK
  5
1C
330
1B
100
AcDbEntity
 67
     1
  8
0
100
AcDbBlockBegin
  2
*Paper_Space
 70
     0
 10
0.0
 20
0.0
 30
0.0
  3
*Paper_Space
  1

  0
ENDBLK
  5
1D
330
1B
100
AcDbEntity
 67
     1
  8
0
100
AcDbBlockEnd
  0
BLOCK
  5
24
330
23
100
AcDbEntity
  8
0
100
AcDbBlockBegin
  2
*Paper_Space0
 70
     0
 10
0.0
 20
0.0
 30
0.0
  3
*Paper_Space0
  1

  0
ENDBLK
  5
25
330
23
100
AcDbEntity
  8
0
100
AcDbBlockEnd
  0
ENDSEC
  0
SECTION
  2
ENTITIES
  0
LINE
  5
63
330
1F
100
AcDbEntity
  8
0
  6
Continuous
 62
     7
370
    25
100
AcDbLine
 10
355.7958838609
 20
259.4302915509
 30
0.0
 11
355.7958838609
 21
212.4302915509
 31
0.0
  0
LINE
  5
64
330
1F
100
AcDbEntity
  8
0
  6
Continuous
 62
     7
370
    25
100
AcDbLine
 10
358.0958838609
 20
259.4302915509
 30
0.0
 11
358.0958838609
 21
212.4302915509
 31
0.0
  0
LINE
  5
65
330
1F
100
AcDbEntity
  8
0
  6
Continuous
 62
     7
370
    25
100
AcDbLine
 10
355.7958838609
 20
259.4302915509
 30
0.0
 11
358.0958838609
 21
259.4302915509
 31
0.0
  0
LINE
  5
66
330
1F
100
AcDbEntity
  8
0
  6
Continuous
 62
     7
370
    25
100
AcDbLine
 10
355.7958838609
 20
212.4302915509
 30
0.0
 11
358.0958838609
 21
212.4302915509
 31
0.0
  0
ARC
  5
67
330
1F
100
AcDbEntity
  8
0
  6
Continuous
 62
     7
370
    25
100
AcDbCircle
 10
377.7958838609
 20
227.9302915509
 30
0.0
 40
2.0
100
AcDbArc
 50
180.0
 51
0.0
  0
ARC
  5
68
330
1F
100
AcDbEntity
  8
0
  6
Continuous
 62
     7
370
    25
100
AcDbCircle
 10
377.7958838609
 20
244.4302915509
 30
0.0
 40
2.0
100
AcDbArc
 50
180.0
 51
0.0
  0
ARC
  5
69
330
1F
100
AcDbEntity
  8
0
  6
Continuous
 62
     7
370
    25
100
AcDbCircle
 10
377.7958838609
 20
244.4302915509
 30
0.0
 40
2.0
100
AcDbArc
 50
0.0
 51
180.0
  0
ARC
  5
6A
330
1F
100
AcDbEntity
  8
0
  6
Continuous
 62
     7
370
    25
100
AcDbCircle
 10
377.7958838609
 20
227.9302915509
 30
0.0
 40
2.0
100
AcDbArc
 50
0.0
 51
180.0
  0
LINE
  5
6B
330
1F
100
AcDbEntity
  8
0
  6
Continuous
 62
     7
370
    25
100
AcDbLine
 10
386.7958838609
 20
259.4302915509
 30
0.0
 11
386.7958838609
 21
212.4302915509
 31
0.0
  0
LINE
  5
6C
330
1F
100
AcDbEntity
  8
0
  6
Continuous
 62
     7
370
    25
100
AcDbLine
 10
358.0958838609
 20
259.4302915509
 30
0.0
 11
386.7958838609
 21
259.4302915509
 31
0.0
  0
LINE
  5
6D
330
1F
100
AcDbEntity
  8
0
  6
Continuous
 62
     7
370
    25
100
AcDbLine
 10
358.0958838609
 20
212.4302915509
 30
0.0
 11
386.7958838609
 21
212.4302915509
 31
0.0
  0
LINE
  5
6E
330
1F
100
AcDbEntity
  8
0
  6
HIDDEN
 62
     7
370
    18
100
AcDbLine
 10
358.0958838609
 20
251.9302915509
 30
0.0
 11
355.7958838609
 21
251.9302915509
 31
0.0
  0
LINE
  5
6F
330
1F
100
AcDbEntity
  8
0
  6
HIDDEN
 62
     7
370
    18
100
AcDbLine
 10
355.7958838609
 20
245.9302915509
 30
0.0
 11
358.0958838609
 21
245.9302915509
 31
0.0
  0
LINE
  5
70
330
1F
100
AcDbEntity
  8
0
  6
HIDDEN
 62
     7
370
    18
100
AcDbLine
 10
358.0958838609
 20
225.4302915509
 30
0.0
 11
355.7958838609
 21
225.4302915509
 31
0.0
  0
LINE
  5
71
330
1F
100
AcDbEntity
  8
0
  6
HIDDEN
 62
     7
370
    18
100
AcDbLine
 10
355.7958838609
 20
219.4302915509
 30
0.0
 11
358.0958838609
 21
219.4302915509
 31
0.0
  0
LINE
  5
72
330
1F
100
AcDbEntity
  8
0
  6
Continuous
 62
     7
370
    25
100
AcDbLine
 10
355.7958838609
 20
359.08
 30
0.0
 11
355.7958838609
 21
343.38
 31
0.0
  0
LINE
  5
73
330
1F
100
AcDbEntity
  8
0
  6
Continuous
 62
     7
370
    25
100
AcDbLine
 10
358.0958838609
 20
359.08
 30
0.0
 11
386.7958838609
 21
359.08
 31
0.0
  0
LINE
  5
74
330
1F
100
AcDbEntity
  8
0
  6
Continuous
 62
     7
370
    25
100
AcDbLine
 10
358.0958838609
 20
343.38
 30
0.0
 11
358.0958838609
 21
359.08
 31
0.0
  0
LINE
  5
75
330
1F
100
AcDbEntity
  8
0
  6
Continuous
 62
     7
370
    25
100
AcDbLine
 10
355.7958838609
 20
343.38
 30
0.0
 11
358.0958838609
 21
343.38
 31
0.0
  0
ARC
  5
76
330
1F
100
AcDbEntity
  8
0
  6
Continuous
 62
     7
370
    25
100
AcDbCircle
 10
358.0958838609
 20
359.08
 30
0.0
 40
2.300000000000068
100
AcDbArc
 50
90.0
 51
180.0
  0
LINE
  5
77
330
1F
100
AcDbEntity
  8
0
  6
Continuous
 62
     7
370
    25
100
AcDbLine
 10
386.7958838609
 20
359.08
 30
0.0
 11
386.7958838609
 21
361.38
 31
0.0
  0
LINE
  5
78
330
1F
100
AcDbEntity
  8
0
  6
Continuous
 62
     7
370
    25
100
AcDbLine
 10
386.7958838609
 20
361.38
 30
0.0
 11
358.0958838609
 21
361.38
 31
0.0
  0
LINE
  5
79
330
1F
100
AcDbEntity
  8
0
  6
HIDDEN
 62
     7
370
    18
100
AcDbLine
 10
355.7958838609
 20
354.38
 30
0.0
 11
358.0958838609
 21
354.38
 31
0.0
  0
LINE
  5
7A
330
1F
100
AcDbEntity
  8
0
  6
HIDDEN
 62
     7
370
    18
100
AcDbLine
 10
355.7958838609
 20
348.38
 30
0.0
 11
358.0958838609
 21
348.38
 31
0.0
  0
LINE
  5
7B
330
1F
100
AcDbEntity
  8
0
  6
HIDDEN
 62
     7
370
    18
100
AcDbLine
 10
379.7958838609
 20
361.38
 30
0.0
 11
379.7958838609
 21
359.08
 31
0.0
  0
LINE
  5
7C
330
1F
100
AcDbEntity
  8
0
  6
HIDDEN
 62
     7
370
    18
100
AcDbLine
 10
375.7958838609
 20
361.38
 30
0.0
 11
375.7958838609
 21
359.08
 31
0.0
  0
LINE
  5
7D
330
1F
100
AcDbEntity
  8
0
  6
Continuous
 62
     7
370
    25
100
AcDbLine
 10
474.58
 20
259.4302915509
 30
0.0
 11
474.58
 21
212.4302915509
 31
0.0
  0
LINE
  5
7E
330
1F
100
AcDbEntity
  8
0
  6
Continuous
 62
     7
370
    25
100
AcDbLine
 10
474.58
 20
259.4302915509
 30
0.0
 11
476.88
 21
259.4302915509
 31
0.0
  0
LINE
  5
7F
330
1F
100
AcDbEntity
  8
0
  6
Continuous
 62
     7
370
    25
100
AcDbLine
 10
474.58
 20
212.4302915509
 30
0.0
 11
476.88
 21
212.4302915509
 31
0.0
  0
LINE
  5
80
330
1F
100
AcDbEntity
  8
0
  6
Continuous
 62
     7
370
    25
100
AcDbLine
 10
476.88
 20
259.4302915509
 30
0.0
 11
476.88
 21
212.4302915509
 31
0.0
  0
LINE
  5
81
330
1F
100
AcDbEntity
  8
0
  6
Continuous
 62
     7
370
    25
100
AcDbLine
 10
458.88
 20
259.4302915509
 30
0.0
 11
458.88
 21
212.4302915509
 31
0.0
  0
ARC
  5
82
330
1F
100
AcDbEntity
  8
0
  6
Continuous
 62
     7
370
    25
100
AcDbCircle
 10
466.88
 20
222.4302915509
 30
0.0
 40
3.0
100
AcDbArc
 50
180.0
 51
0.0
  0
ARC
  5
83
330
1F
100
AcDbEntity
  8
0
  6
Continuous
 62
     7
370
    25
100
AcDbCircle
 10
466.88
 20
222.4302915509
 30
0.0
 40
3.0
100
AcDbArc
 50
0.0
 51
180.0
  0
ARC
  5
84
330
1F
100
AcDbEntity
  8
0
  6
Continuous
 62
     7
370
    25
100
AcDbCircle
 10
466.88
 20
248.9302915509
 30
0.0
 40
3.000000000000114
100
AcDbArc
 50
180.0
 51
0.0
  0
ARC
  5
85
330
1F
100
AcDbEntity
  8
0
  6
Continuous
 62
     7
370
    25
100
AcDbCircle
 10
466.88
 20
248.9302915509
 30
0.0
 40
3.000000000000114
100
AcDbArc
 50
0.0
 51
180.0
  0
LINE
  5
86
330
1F
100
AcDbEntity
  8
0
  6
Continuous
 62
     7
370
    25
100
AcDbLine
 10
458.88
 20
259.4302915509
 30
0.0
 11
474.58
 21
259.4302915509
 31
0.0
  0
LINE
  5
87
330
1F
100
AcDbEntity
  8
0
  6
Continuous
 62
     7
370
    25
100
AcDbLine
 10
458.88
 20
212.4302915509
 30
0.0
 11
474.58
 21
212.4302915509
 31
0.0
  0
LINE
  5
88
330
1F
100
AcDbEntity
  8
0
  6
HIDDEN
 62
     7
370
    18
100
AcDbLine
 10
476.88
 20
246.4302915509
 30
0.0
 11
474.58
 21
246.4302915509
 31
0.0
  0
LINE
  5
89
330
1F
100
AcDbEntity
  8
0
  6
HIDDEN
 62
     7
370
    18
100
AcDbLine
 10
474.58
 20
225.9302915509
 30
0.0
 11
476.88
 21
225.9302915509
 31
0.0
  0
LINE
  5
8A
330
1F
100
AcDbEntity
  8
0
  6
HIDDEN
 62
     7
370
    18
100
AcDbLine
 10
474.58
 20
242.4302915509
 30
0.0
 11
476.88
 21
242.4302915509
 31
0.0
  0
LINE
  5
8B
330
1F
100
AcDbEntity
  8
0
  6
HIDDEN
 62
     7
370
    18
100
AcDbLine
 10
476.88
 20
229.9302915509
 30
0.0
 11
474.58
 21
229.9302915509
 31
0.0
  0
LINE
  5
8C
330
1F
100
AcDbEntity
  8
0
  6
Continuous
 62
     7
370
    25
100
AcDbLine
 10
461.6574603256
 20
380.6308391205
 30
0.0
 11
450.5558838609
 21
374.2220354427
 31
0.0
  0
ARC
  5
8D
330
1F
100
AcDbEntity
  8
0
  6
Continuous
 62
     7
370
    25
100
AcDbCircle
 10
463.2838059223
 20
377.507799491
 30
0.0
 40
3.521132847211282
100
AcDbArc
 50
62.4914255688
 51
117.5085744312
  0
LINE
  5
8E
330
1F
100
AcDbEntity
  8
0
  6
Continuous
 62
     7
370
    25
100
AcDbLine
 10
485.2041161391
 20
368.9153827159
 30
0.0
 11
464.910151519
 21
380.6308391205
 31
0.0
  0
LINE
  5
8F
330
1F
100
AcDbEntity
  8
0
  6
Continuous
 62
     7
370
    25
100
AcDbLine
 10
483.5777705423
 20
367.9765133873
 30
0.0
 11
485.2041161391
 21
368.9153827159
 31
0.0
  0
LINE
  5
90
330
1F
100
AcDbEntity
  8
0
  6
Continuous
 62
     7
370
    25
100
AcDbLine
 10
463.2838059223
 20
379.691969792
 30
0.0
 11
483.5777705423
 21
367.9765133873
 31
0.0
  0
LINE
  5
91
330
1F
100
AcDbEntity
  8
0
  6
Continuous
 62
     7
370
    25
100
AcDbLine
 10
452.1822294577
 20
373.2831661141
 30
0.0
 11
463.2838059223
 21
379.691969792
 31
0.0
  0
LINE
  5
92
330
1F
100
AcDbEntity
  8
0
  6
Continuous
 62
     7
370
    25
100
AcDbLine
 10
450.5558838609
 20
374.2220354427
 30
0.0
 11
452.1822294577
 21
373.2831661141
 31
0.0
  0
LINE
  5
93
330
1F
100
AcDbEntity
  8
0
  6
Continuous
 62
     7
370
    25
100
AcDbLine
 10
463.2838059223
 20
379.691969792
 30
0.0
 11
463.2838059223
 21
341.3145516333
 31
0.0
  0
LINE
  5
94
330
1F
100
AcDbEntity
  8
0
  6
Continuous
 62
     7
370
    25
100
AcDbLine
 10
483.5777705423
 20
367.9765133873
 30
0.0
 11
483.5777705423
 21
329.5990952287
 31
0.0
  0
LINE
  5
95
330
1F
100
AcDbEntity
  8
0
  6
Continuous
 62
     7
370
    25
100
AcDbLine
 10
463.2838059223
 20
341.3145516333
 30
0.0
 11
483.5777705423
 21
329.5990952287
 31
0.0
  0
LWPOLYLINE
  5
96
330
1F
100
AcDbEntity
  8
0
  6
Continuous
 62
     7
370
    25
100
AcDbPolyline
 90
       23
 70
   128
 43
0.0
 10
475.7995959493
 20
346.7457224279
 10
475.8139906042
 20
346.5050008233
 10
475.8568815354
 20
346.2525599016
 10
475.9273956071
 20
345.9935386319
 10
476.0240973561
 20
345.7332099404
 10
476.1450182139
 20
345.4768733684
 10
476.2876965803
 20
345.2297471894
 10
476.4492279352
 20
344.9968621797
 10
476.6263239663
 20
344.7829592065
 10
476.8153795088
 20
344.5923927175
 10
477.0125459372
 20
344.4290420969
 10
477.2138095117
 20
344.2962326923
 10
477.4150730861
 20
344.1966681201
 10
477.6122395145
 20
344.132375228
 10
477.8012950571
 20
344.1046628337
 10
477.9783910881
 20
344.1140950817
 10
478.1399224431
 20
344.1604799587
 10
478.2826008095
 20
344.2428732024
 10
478.4035216672
 20
344.3595975237
 10
478.5002234163
 20
344.5082767523
 10
478.5707374879
 20
344.6858842078
 10
478.6136284191
 20
344.8888043145
 10
478.628023074
 20
345.1129062043
  0
LWPOLYLINE
  5
97
330
1F
100
AcDbEntity
  8
0
  6
Continuous
 62
     7
370
    25
100
AcDbPolyline
 90
       23
 70
   128
 43
0.0
 10
478.628023074
 20
345.1129062043
 10
478.6136284191
 20
345.3536278089
 10
478.5707374879
 20
345.6060687306
 10
478.5002234163
 20
345.8650900003
 10
478.4035216672
 20
346.1254186918
 10
478.2826008095
 20
346.3817552638
 10
478.1399224431
 20
346.6288814428
 10
477.9783910881
 20
346.8617664525
 10
477.8012950571
 20
347.0756694257
 10
477.6122395145
 20
347.2662359147
 10
477.4150730861
 20
347.4295865352
 10
477.2138095117
 20
347.5623959399
 10
477.0125459372
 20
347.661960512
 10
476.8153795088
 20
347.7262534042
 10
476.6263239663
 20
347.7539657985
 10
476.4492279352
 20
347.7445335504
 10
476.2876965803
 20
347.6981486735
 10
476.1450182139
 20
347.6157554298
 10
476.0240973561
 20
347.4990311084
 10
475.9273956071
 20
347.3503518798
 10
475.8568815354
 20
347.1727444244
 10
475.8139906042
 20
346.9698243177
 10
475.7995959493
 20
346.7457224279
  0
LWPOLYLINE
  5
98
330
1F
100
AcDbEntity
  8
0
  6
Continuous
 62
     7
370
    25
100
AcDbPolyline
 90
       23
 70
   128
 43
0.0
 10
475.7995959493
 20
360.218645824
 10
475.8139906042
 20
359.9779242194
 10
475.8568815354
 20
359.7254832977
 10
475.9273956071
 20
359.466462028
 10
476.0240973561
 20
359.2061333365
 10
476.1450182139
 20
358.9497967645
 10
476.2876965803
 20
358.7026705855
 10
476.4492279352
 20
358.4697855758
 10
476.6263239663
 20
358.2558826026
 10
476.8153795088
 20
358.0653161136
 10
477.0125459372
 20
357.9019654931
 10
477.2138095117
 20
357.7691560884
 10
477.4150730861
 20
357.6695915163
 10
477.6122395145
 20
357.6052986241
 10
477.8012950571
 20
357.5775862298
 10
477.9783910881
 20
357.5870184779
 10
478.1399224431
 20
357.6334033549
 10
478.2826008095
 20
357.7157965985
 10
478.4035216672
 20
357.8325209199
 10
478.5002234163
 20
357.9812001485
 10
478.5707374879
 20
358.1588076039
 10
478.6136284191
 20
358.3617277106
 10
478.628023074
 20
358.5858296004
  0
LWPOLYLINE
  5
99
330
1F
100
AcDbEntity
  8
0
  6
Continuous
 62
     7
370
    25
100
AcDbPolyline
 90
       23
 70
   128
 43
0.0
 10
478.628023074
 20
358.5858296004
 10
478.6136284191
 20
358.826551205
 10
478.5707374879
 20
359.0789921267
 10
478.5002234163
 20
359.3380133964
 10
478.4035216672
 20
359.598342088
 10
478.2826008095
 20
359.8546786599
 10
478.1399224431
 20
360.101804839
 10
477.9783910881
 20
360.3346898487
 10
477.8012950571
 20
360.5485928218
 10
477.6122395145
 20
360.7391593108
 10
477.4150730861
 20
360.9025099314
 10
477.2138095117
 20
361.035319336
 10
477.0125459372
 20
361.1348839082
 10
476.8153795088
 20
361.1991768003
 10
476.6263239663
 20
361.2268891946
 10
476.4492279352
 20
361.2174569466
 10
476.2876965803
 20
361.1710720696
 10
476.1450182139
 20
361.088678826
 10
476.0240973561
 20
360.9719545046
 10
475.9273956071
 20
360.823275276
 10
475.8568815354
 20
360.6456678205
 10
475.8139906042
 20
360.4427477138
 10
475.7995959493
 20
360.218645824
  0
LINE
  5
9A
330
1F
100
AcDbEntity
  8
0
  6
Continuous
 62
     7
370
    25
100
AcDbLine
 10
485.2041161391
 20
368.9153827159
 30
0.0
 11
485.2041161391
 21
330.5379645573
 31
0.0
  0
LINE
  5
9B
330
1F
100
AcDbEntity
  8
0
  6
Continuous
 62
     7
370
    25
100
AcDbLine
 10
483.5777705423
 20
329.5990952287
 30
0.0
 11
485.2041161391
 21
330.5379645573
 31
0.0
  0
LINE
  5
9C
330
1F
100
AcDbEntity
  8
0
  6
Continuous
 62
     7
370
    25
100
AcDbLine
 10
450.5558838609
 20
374.2220354427
 30
0.0
 11
450.5558838609
 21
335.8446172841
 31
0.0
  0
LINE
  5
9D
330
1F
100
AcDbEntity
  8
0
  6
Continuous
 62
     7
370
    25
100
AcDbLine
 10
452.1822294577
 20
373.2831661141
 30
0.0
 11
452.1822294577
 21
334.9057479555
 31
0.0
  0
LINE
  5
9E
330
1F
100
AcDbEntity
  8
0
  6
Continuous
 62
     7
370
    25
100
AcDbLine
 10
450.5558838609
 20
335.8446172841
 30
0.0
 11
452.1822294577
 21
334.9057479555
 31
0.0
  0
LINE
  5
9F
330
1F
100
AcDbEntity
  8
0
  6
Continuous
 62
     7
370
    25
100
AcDbLine
 10
452.1822294577
 20
334.9057479555
 30
0.0
 11
463.2838059223
 21
341.3145516333
 31
0.0
  0
LWPOLYLINE
  5
A0
330
1F
100
AcDbEntity
  8
0
  6
Continuous
 62
     7
370
    25
100
AcDbPolyline
 90
       28
 70
   128
 43
0.0
 10
455.7177633636
 20
345.1121763539
 10
455.7321069729
 20
344.8360729362
 10
455.774943828
 20
344.5802641224
 10
455.845694634
 20
344.3482092878
 10
455.9434026076
 20
344.1430465759
 10
456.066746416
 20
343.9675504605
 10
456.2140580459
 20
343.8240942255
 10
456.3833453601
 20
343.7146178704
 10
456.5723190382
 20
343.6406018751
 10
456.7784235354
 20
343.6030471788
 10
456.9988716418
 20
343.6024616446
 10
457.230682175
 20
343.6388531906
 10
457.4707202952
 20
343.7117296838
 10
457.7157398987
 20
343.8201055945
 10
457.9624275156
 20
343.9625153244
 10
458.2074471191
 20
344.1370330263
 10
458.4474852393
 20
344.3412986477
 10
458.6792957725
 20
344.5725498464
 10
458.8997438789
 20
344.8276593466
 10
459.1058483761
 20
345.10317723
 10
459.2948220542
 20
345.3953775899
 10
459.4641093684
 20
345.7003089177
 10
459.6114209983
 20
346.0138475402
 10
459.7347648067
 20
346.3317533856
 10
459.8324727803
 20
346.6497273225
 10
459.9032235863
 20
346.9634692989
 10
459.9460604414
 20
347.2687364929
 10
459.9604040507
 20
347.5614006894
  0
LWPOLYLINE
  5
A1
330
1F
100
AcDbEntity
  8
0
  6
Continuous
 62
     7
370
    25
100
AcDbPolyline
 90
       28
 70
   128
 43
0.0
 10
459.9604040507
 20
347.5614006894
 10
459.9460604414
 20
347.8375041071
 10
459.9032235863
 20
348.0933129209
 10
459.8324727803
 20
348.3253677555
 10
459.7347648067
 20
348.5305304674
 10
459.6114209983
 20
348.7060265828
 10
459.4641093684
 20
348.8494828178
 10
459.2948220542
 20
348.9589591729
 10
459.1058483761
 20
349.0329751683
 10
458.8997438789
 20
349.0705298645
 10
458.6792957725
 20
349.0711153987
 10
458.4474852393
 20
349.0347238527
 10
458.2074471191
 20
348.9618473595
 10
457.9624275156
 20
348.8534714488
 10
457.7157398987
 20
348.7110617189
 10
457.4707202952
 20
348.536544017
 10
457.230682175
 20
348.3322783956
 10
456.9988716418
 20
348.101027197
 10
456.7784235354
 20
347.8459176968
 10
456.5723190382
 20
347.5703998133
 10
456.3833453601
 20
347.2781994534
 10
456.2140580459
 20
346.9732681256
 10
456.066746416
 20
346.6597295031
 10
455.9434026076
 20
346.3418236578
 10
455.845694634
 20
346.0238497209
 10
455.774943828
 20
345.7101077444
 10
455.7321069729
 20
345.4048405504
 10
455.7177633636
 20
345.1121763539
  0
LWPOLYLINE
  5
A2
330
1F
100
AcDbEntity
  8
0
  6
Continuous
 62
     7
370
    25
100
AcDbPolyline
 90
       28
 70
   128
 43
0.0
 10
455.7177633636
 20
366.7505078689
 10
455.7321069729
 20
366.4744044512
 10
455.774943828
 20
366.2185956374
 10
455.845694634
 20
365.9865408028
 10
455.9434026076
 20
365.7813780909
 10
456.066746416
 20
365.6058819755
 10
456.2140580459
 20
365.4624257405
 10
456.3833453601
 20
365.3529493854
 10
456.5723190382
 20
365.27893339
 10
456.7784235354
 20
365.2413786938
 10
456.9988716418
 20
365.2407931596
 10
457.230682175
 20
365.2771847056
 10
457.4707202952
 20
365.3500611988
 10
457.7157398987
 20
365.4584371095
 10
457.9624275156
 20
365.6008468394
 10
458.2074471191
 20
365.7753645413
 10
458.4474852393
 20
365.9796301627
 10
458.6792957725
 20
366.2108813613
 10
458.8997438789
 20
366.4659908615
 10
459.1058483761
 20
366.741508745
 10
459.2948220542
 20
367.0337091049
 10
459.4641093684
 20
367.3386404327
 10
459.6114209983
 20
367.6521790552
 10
459.7347648067
 20
367.9700849005
 10
459.8324727803
 20
368.2880588374
 10
459.9032235863
 20
368.6018008139
 10
459.9460604414
 20
368.9070680079
 10
459.9604040507
 20
369.1997322044
  0
LWPOLYLINE
  5
A3
330
1F
100
AcDbEntity
  8
0
  6
Continuous
 62
     7
370
    25
100
AcDbPolyline
 90
       28
 70
   128
 43
0.0
 10
459.9604040507
 20
369.1997322044
 10
459.9460604414
 20
369.475835622
 10
459.9032235863
 20
369.7316444359
 10
459.8324727803
 20
369.9636992705
 10
459.7347648067
 20
370.1688619824
 10
459.6114209983
 20
370.3443580978
 10
459.4641093684
 20
370.4878143328
 10
459.2948220542
 20
370.5972906879
 10
459.1058483761
 20
370.6713066832
 10
458.8997438789
 20
370.7088613795
 10
458.6792957725
 20
370.7094469137
 10
458.4474852393
 20
370.6730553676
 10
458.2074471191
 20
370.6001788745
 10
457.9624275156
 20
370.4918029638
 10
457.7157398987
 20
370.3493932339
 10
457.4707202952
 20
370.1748755319
 10
457.230682175
 20
369.9706099106
 10
456.9988716418
 20
369.7393587119
 10
456.7784235354
 20
369.4842492117
 10
456.5723190382
 20
369.2087313283
 10
456.3833453601
 20
368.9165309684
 10
456.2140580459
 20
368.6115996406
 10
456.066746416
 20
368.2980610181
 10
455.9434026076
 20
367.9801551727
 10
455.845694634
 20
367.6621812358
 10
455.774943828
 20
367.3484392594
 10
455.7321069729
 20
367.0431720653
 10
455.7177633636
 20
366.7505078689
  0
ARC
  5
A4
330
1F
100
AcDbEntity
  8
0
  6
Continuous
 62
     7
370
    25
100
AcDbCircle
 10
480.6102371124
 20
361.3629536311
 30
0.0
 40
3.201961113290531
100
AcDbArc
 50
188.6759346703
 51
231.318688797
  0
LWPOLYLINE
  5
A5
330
1F
100
AcDbEntity
  8
0
  6
Continuous
 62
     7
370
    25
100
AcDbPolyline
 90
        3
 70
   128
 43
0.0
 10
458.2863073624
 20
370.6278619621
 10
458.3197148447
 20
370.4147049506
 10
458.334058454
 20
370.138601533
  0
ARC
  5
A6
330
1F
100
AcDbEntity
  8
0
  6
Continuous
 62
     7
370
    25
100
AcDbCircle
 10
453.9483399947
 20
370.2544703185
 30
0.0
 40
4.38724879389937
100
AcDbArc
 50
294.4686025585
 51
358.4866223204
  0
ARC
  5
A7
330
1F
100
AcDbEntity
  8
0
  6
Continuous
 62
     7
370
    25
100
AcDbCircle
 10
480.6102371124
 20
347.890030235
 30
0.0
 40
3.201961113289885
100
AcDbArc
 50
188.6759346703
 51
231.318688797
  0
LWPOLYLINE
  5
A8
330
1F
100
AcDbEntity
  8
0
  6
Continuous
 62
     7
370
    25
100
AcDbPolyline
 90
        3
 70
   128
 43
0.0
 10
458.2863073624
 20
348.9895304472
 10
458.3197148447
 20
348.7763734357
 10
458.334058454
 20
348.500270018
  0
ARC
  5
A9
330
1F
100
AcDbEntity
  8
0
  6
Continuous
 62
     7
370
    25
100
AcDbCircle
 10
453.9483399947
 20
348.6161388036
 30
0.0
 40
4.387248793899368
100
AcDbArc
 50
294.4686025585
 51
358.4866223204
  0
LWPOLYLINE
  5
AA
330
1F
100
AcDbEntity
  8
0
  6
HIDDEN
 62
     7
370
    18
100
AcDbPolyline
 90
       23
 70
   128
 43
0.0
 10
477.425941546
 20
361.1575151526
 10
477.440336201
 20
361.3816170424
 10
477.4832271321
 20
361.5845371491
 10
477.5537412038
 20
361.7621446046
 10
477.6504429529
 20
361.9108238332
 10
477.7713638106
 20
362.0275481546
 10
477.914042177
 20
362.1099413982
 10
478.075573532
 20
362.1563262752
 10
478.252669563
 20
362.1657585232
 10
478.4417251055
 20
362.1380461289
 10
478.638891534
 20
362.0737532368
 10
478.8401551084
 20
361.9741886646
 10
479.0414186828
 20
361.84137926
 10
479.2385851112
 20
361.6780286394
 10
479.4276406538
 20
361.4874621504
 10
479.6047366848
 20
361.2735591773
 10
479.7662680398
 20
361.0406741676
 10
479.9089464062
 20
360.7935479885
 10
480.0298672639
 20
360.5372114166
 10
480.126569013
 20
360.276882725
 10
480.1970830847
 20
360.0178614553
 10
480.2399740158
 20
359.7654205336
 10
480.2543686708
 20
359.524698929
  0
LWPOLYLINE
  5
AB
330
1F
100
AcDbEntity
  8
0
  6
HIDDEN
 62
     7
370
    18
100
AcDbPolyline
 90
       14
 70
   128
 43
0.0
 10
480.2543686708
 20
359.524698929
 10
480.2399740158
 20
359.3005970392
 10
480.1970830847
 20
359.0976769325
 10
480.126569013
 20
358.9200694771
 10
480.0298672639
 20
358.7713902485
 10
479.9089464062
 20
358.6546659271
 10
479.7662680398
 20
358.5722726834
 10
479.6047366848
 20
358.5258878065
 10
479.4276406538
 20
358.5164555584
 10
479.2385851112
 20
358.5441679527
 10
479.0414186828
 20
358.6084608449
 10
478.8401551084
 20
358.708025417
 10
478.638891534
 20
358.8408348217
 10
478.6090496432
 20
358.8633929328
  0
LWPOLYLINE
  5
AC
330
1F
100
AcDbEntity
  8
0
  6
HIDDEN
 62
     7
370
    18
100
AcDbPolyline
 90
        3
 70
   128
 43
0.0
 10
477.4449149768
 20
360.8799518202
 10
477.440336201
 20
360.916793548
 10
477.425941546
 20
361.1575151526
  0
LWPOLYLINE
  5
AD
330
1F
100
AcDbEntity
  8
0
  6
HIDDEN
 62
     7
370
    18
100
AcDbPolyline
 90
       27
 70
   128
 43
0.0
 10
454.0914177669
 20
367.6893771975
 10
454.1057613761
 20
367.9820413939
 10
454.1485982313
 20
368.287308588
 10
454.2193490373
 20
368.6010505644
 10
454.3170570108
 20
368.9190245013
 10
454.4404008193
 20
369.2369303467
 10
454.5877124492
 20
369.5504689692
 10
454.7569997634
 20
369.855400297
 10
454.9459734415
 20
370.1476006569
 10
455.1520779386
 20
370.4231185403
 10
455.3725260451
 20
370.6782280405
 10
455.6043365783
 20
370.9094792392
 10
455.8443746985
 20
371.1137448605
 10
456.089394302
 20
371.2882625625
 10
456.3360819189
 20
371.4306722924
 10
456.5811015223
 20
371.5390482031
 10
456.8211396426
 20
371.6119246962
 10
457.0529501758
 20
371.6483162423
 10
457.2733982822
 20
371.6477307081
 10
457.4795027793
 20
371.6101760118
 10
457.6684764574
 20
371.5361600165
 10
457.8377637717
 20
371.4266836613
 10
457.9850754016
 20
371.2832274264
 10
458.10841921
 20
371.107731311
 10
458.2061271836
 20
370.9025685991
 10
458.2768779896
 20
370.6705137645
 10
458.2863073624
 20
370.6278619621
  0
LWPOLYLINE
  5
AE
330
1F
100
AcDbEntity
  8
0
  6
HIDDEN
 62
     7
370
    18
100
AcDbPolyline
 90
       13
 70
   128
 43
0.0
 10
455.7655144552
 20
366.2612474397
 10
455.6043365783
 20
366.2160540342
 10
455.3725260451
 20
366.1796624881
 10
455.1520779386
 20
366.1802480224
 10
454.9459734415
 20
366.2178027186
 10
454.7569997634
 20
366.291818714
 10
454.5877124492
 20
366.4012950691
 10
454.4404008193
 20
366.5447513041
 10
454.3170570108
 20
366.7202474195
 10
454.2193490373
 20
366.9254101313
 10
454.1485982313
 20
367.157464966
 10
454.1057613761
 20
367.4132737798
 10
454.0914177669
 20
367.6893771975
  0
ARC
  5
AF
330
1F
100
AcDbEntity
  8
0
  6
HIDDEN
 62
     7
370
    18
100
AcDbCircle
 10
463.2838059223
 20
339.1303813324
 30
0.0
 40
3.521132847210979
100
AcDbArc
 50
62.4914255688
 51
117.5085744312
  0
LINE
  5
B0
330
1F
100
AcDbEntity
  8
0
  6
HIDDEN
 62
     7
370
    18
100
AcDbLine
 10
461.6574603256
 20
342.2534209619
 30
0.0
 11
450.5558838609
 21
335.8446172841
 31
0.0
  0
LINE
  5
B1
330
1F
100
AcDbEntity
  8
0
  6
HIDDEN
 62
     7
370
    18
100
AcDbLine
 10
485.2041161391
 20
330.5379645573
 30
0.0
 11
464.910151519
 21
342.2534209619
 31
0.0
  0
LWPOLYLINE
  5
B2
330
1F
100
AcDbEntity
  8
0
  6
HIDDEN
 62
     7
370
    18
100
AcDbPolyline
 90
       23
 70
   128
 43
0.0
 10
477.425941546
 20
347.6845917565
 10
477.440336201
 20
347.9086936463
 10
477.4832271321
 20
348.111613753
 10
477.5537412038
 20
348.2892212084
 10
477.6504429529
 20
348.437900437
 10
477.7713638106
 20
348.5546247584
 10
477.914042177
 20
348.6370180021
 10
478.075573532
 20
348.683402879
 10
478.252669563
 20
348.6928351271
 10
478.4417251055
 20
348.6651227328
 10
478.638891534
 20
348.6008298406
 10
478.8401551084
 20
348.5012652685
 10
479.0414186828
 20
348.3684558638
 10
479.2385851112
 20
348.2051052433
 10
479.4276406538
 20
348.0145387543
 10
479.6047366848
 20
347.8006357811
 10
479.7662680398
 20
347.5677507714
 10
479.9089464062
 20
347.3206245924
 10
480.0298672639
 20
347.0642880204
 10
480.126569013
 20
346.8039593289
 10
480.1970830847
 20
346.5449380592
 10
480.2399740158
 20
346.2924971375
 10
480.2543686708
 20
346.0517755329
  0
LWPOLYLINE
  5
B3
330
1F
100
AcDbEntity
  8
0
  6
HIDDEN
 62
     7
370
    18
100
AcDbPolyline
 90
       14
 70
   128
 43
0.0
 10
480.2543686708
 20
346.0517755329
 10
480.2399740158
 20
345.8276736431
 10
480.1970830847
 20
345.6247535364
 10
480.126569013
 20
345.4471460809
 10
480.0298672639
 20
345.2984668523
 10
479.9089464062
 20
345.1817425309
 10
479.7662680398
 20
345.0993492873
 10
479.6047366848
 20
345.0529644103
 10
479.4276406538
 20
345.0435321623
 10
479.2385851112
 20
345.0712445566
 10
479.0414186828
 20
345.1355374487
 10
478.8401551084
 20
345.2351020209
 10
478.638891534
 20
345.3679114255
 10
478.6090496432
 20
345.3904695367
  0
LWPOLYLINE
  5
B4
330
1F
100
AcDbEntity
  8
0
  6
HIDDEN
 62
     7
370
    18
100
AcDbPolyline
 90
        3
 70
   128
 43
0.0
 10
477.4449149768
 20
347.4070284241
 10
477.440336201
 20
347.4438701519
 10
477.425941546
 20
347.6845917565
  0
LWPOLYLINE
  5
B5
330
1F
100
AcDbEntity
  8
0
  6
HIDDEN
 62
     7
370
    18
100
AcDbPolyline
 90
       27
 70
   128
 43
0.0
 10
454.0914177669
 20
346.0510456825
 10
454.1057613761
 20
346.343709879
 10
454.1485982313
 20
346.648977073
 10
454.2193490373
 20
346.9627190494
 10
454.3170570108
 20
347.2806929864
 10
454.4404008193
 20
347.5985988317
 10
454.5877124492
 20
347.9121374542
 10
454.7569997634
 20
348.217068782
 10
454.9459734415
 20
348.5092691419
 10
455.1520779386
 20
348.7847870253
 10
455.3725260451
 20
349.0398965256
 10
455.6043365783
 20
349.2711477242
 10
455.8443746985
 20
349.4754133456
 10
456.089394302
 20
349.6499310475
 10
456.3360819189
 20
349.7923407774
 10
456.5811015223
 20
349.9007166881
 10
456.8211396426
 20
349.9735931813
 10
457.0529501758
 20
350.0099847273
 10
457.2733982822
 20
350.0093991931
 10
457.4795027793
 20
349.9718444969
 10
457.6684764574
 20
349.8978285015
 10
457.8377637717
 20
349.7883521464
 10
457.9850754016
 20
349.6448959114
 10
458.10841921
 20
349.469399796
 10
458.2061271836
 20
349.2642370841
 10
458.2768779896
 20
349.0321822495
 10
458.2863073624
 20
348.9895304472
  0
LWPOLYLINE
  5
B6
330
1F
100
AcDbEntity
  8
0
  6
HIDDEN
 62
     7
370
    18
100
AcDbPolyline
 90
       13
 70
   128
 43
0.0
 10
455.7655144552
 20
344.6229159248
 10
455.6043365783
 20
344.5777225192
 10
455.3725260451
 20
344.5413309732
 10
455.1520779386
 20
344.5419165074
 10
454.9459734415
 20
344.5794712037
 10
454.7569997634
 20
344.653487199
 10
454.5877124492
 20
344.7629635541
 10
454.4404008193
 20
344.9064197891
 10
454.3170570108
 20
345.0819159045
 10
454.2193490373
 20
345.2870786164
 10
454.1485982313
 20
345.519133451
 10
454.1057613761
 20
345.7749422648
 10
454.0914177669
 20
346.0510456825
  0
LINE
  5
B7
330
1F
100
AcDbEntity
  8
0
  6
HIDDEN
 62
     7
370
    18
100
AcDbLine
 10
477.8402363758
 20
362.0732047656
 30
0.0
 11
476.213890779
 21
361.134335437
 31
0.0
  0
LINE
  5
B8
330
1F
100
AcDbEntity
  8
0
  6
HIDDEN
 62
     7
370
    18
100
AcDbLine
 10
478.2137282443
 20
357.6701399874
 30
0.0
 11
479.840073841
 21
358.609009316
 31
0.0
  0
LINE
  5
B9
330
1F
100
AcDbEntity
  8
0
  6
HIDDEN
 62
     7
370
    18
100
AcDbLine
 10
459.3389618061
 20
370.5732666238
 30
0.0
 11
457.7126162094
 21
371.5121359524
 31
0.0
  0
LINE
  5
BA
330
1F
100
AcDbEntity
  8
0
  6
HIDDEN
 62
     7
370
    18
100
AcDbLine
 10
454.7128600115
 20
366.3158427781
 30
0.0
 11
456.3392056082
 21
365.3769734495
 31
0.0
  0
LINE
  5
BB
330
1F
100
AcDbEntity
  8
0
  6
HIDDEN
 62
     7
370
    18
100
AcDbLine
 10
477.8402363758
 20
348.6002813695
 30
0.0
 11
476.213890779
 21
347.6614120409
 31
0.0
  0
LINE
  5
BC
330
1F
100
AcDbEntity
  8
0
  6
HIDDEN
 62
     7
370
    18
100
AcDbLine
 10
478.2137282443
 20
344.1972165913
 30
0.0
 11
479.840073841
 21
345.1360859199
 31
0.0
  0
LINE
  5
BD
330
1F
100
AcDbEntity
  8
0
  6
HIDDEN
 62
     7
370
    18
100
AcDbLine
 10
459.3389618061
 20
348.9349351088
 30
0.0
 11
457.7126162094
 21
349.8738044374
 31
0.0
  0
LINE
  5
BE
330
1F
100
AcDbEntity
  8
0
  6
HIDDEN
 62
     7
370
    18
100
AcDbLine
 10
454.7128600115
 20
344.6775112631
 30
0.0
 11
456.3392056082
 21
343.7386419345
 31
0.0
  0
ENDSEC
  0
SECTION
  2
OBJECTS
  0
DICTIONARY
  5
C
330
0
100
AcDbDictionary
281
     1
  3
ACAD_GROUP
350
D
  3
ACAD_LAYOUT
350
1A
  3
ACAD_MLINESTYLE
350
17
  3
ACAD_PLOTSETTINGS
350
19
  3
ACAD_PLOTSTYLENAME
350
E
  3
ACAD_SCALELIST
350
47
  3
DWGPROPS
350
BF
  0
DICTIONARY
  5
D
102
{ACAD_REACTORS
330
C
102
}
330
C
100
AcDbDictionary
281
     1
  0
DICTIONARY
  5
1A
102
{ACAD_REACTORS
330
C
102
}
330
C
100
AcDbDictionary
281
     1
  3
Layout1
350
1E
  3
Layout2
350
26
  3
Model
350
22
  0
DICTIONARY
  5
17
102
{ACAD_REACTORS
330
C
102
}
330
C
100
AcDbDictionary
281
     1
  3
Standard
350
18
  0
DICTIONARY
  5
19
102
{ACAD_REACTORS
330
C
102
}
330
C
100
AcDbDictionary
281
     1
  0
ACDBDICTIONARYWDFLT
  5
E
102
{ACAD_REACTORS
330
C
102
}
330
C
100
AcDbDictionary
281
     1
  3
Normal
350
F
100
AcDbDictionaryWithDefault
340
F
  0
DICTIONARY
  5
47
102
{ACAD_REACTORS
330
C
102
}
330
C
100
AcDbDictionary
281
     1
  3
A0
350
48
  3
A1
350
49
  3
A2
350
4A
  3
A3
350
4B
  3
A4
350
4C
  3
A5
350
4D
  3
A6
350
4E
  3
A7
350
4F
  3
A8
350
50
  3
A9
350
51
  3
B0
350
52
  3
B1
350
53
  3
B2
350
54
  3
B3
350
55
  3
B4
350
56
  3
B5
350
57
  3
B6
350
58
  0
XRECORD
  5
BF
102
{ACAD_REACTORS
330
C
102
}
330
C
100
AcDbXrecord
280
     1
  1
DWGPROPS COOKIE
  2

  3

  4

  6

  7

  8
imaizumi
  9

300
=
301
=
302
=
303
=
304
=
305
=
306
=
307
=
308
=
309
=
 40
0.0
 41
2461263.053289757
 42
2461263.053290151
  1

 90
        0
  0
LAYOUT
  5
1E
102
{ACAD_REACTORS
330
1A
102
}
330
1A
100
AcDbPlotSettings
  1

  2
none_device
  4

  6

 40
0.0
 41
0.0
 42
0.0
 43
0.0
 44
0.0
 45
0.0
 46
0.0
 47
0.0
 48
0.0
 49
0.0
140
0.0
141
0.0
142
1.0
143
1.0
 70
   688
 72
     1
 73
     0
 74
     5
  7

 75
    16
147
1.0
148
0.0
149
0.0
100
AcDbLayout
  1
Layout1
 70
     1
 71
     1
 10
0.0
 20
0.0
 11
420.0
 21
297.0
 12
0.0
 22
0.0
 32
0.0
 14
1.0000000000E+20
 24
1.0000000000E+20
 34
1.0000000000E+20
 15
-1.0000000000E+20
 25
-1.0000000000E+20
 35
-1.0000000000E+20
146
0.0
 13
0.0
 23
0.0
 33
0.0
 16
1.0
 26
0.0
 36
0.0
 17
0.0
 27
1.0
 37
0.0
 76
     0
330
1B
  0
LAYOUT
  5
26
102
{ACAD_REACTORS
330
1A
102
}
330
1A
100
AcDbPlotSettings
  1

  2
none_device
  4

  6

 40
0.0
 41
0.0
 42
0.0
 43
0.0
 44
0.0
 45
0.0
 46
0.0
 47
0.0
 48
0.0
 49
0.0
140
0.0
141
0.0
142
1.0
143
1.0
 70
   688
 72
     1
 73
     0
 74
     5
  7

 75
    16
147
1.0
148
0.0
149
0.0
100
AcDbLayout
  1
Layout2
 70
     1
 71
     2
 10
0.0
 20
0.0
 11
0.0
 21
0.0
 12
0.0
 22
0.0
 32
0.0
 14
0.0
 24
0.0
 34
0.0
 15
0.0
 25
0.0
 35
0.0
146
0.0
 13
0.0
 23
0.0
 33
0.0
 16
1.0
 26
0.0
 36
0.0
 17
0.0
 27
1.0
 37
0.0
 76
     0
330
23
  0
LAYOUT
  5
22
102
{ACAD_REACTORS
330
1A
102
}
330
1A
100
AcDbPlotSettings
  1

  2
none_device
  4
Letter_(8.50_x_11.00_Inches)
  6

 40
6.35
 41
6.35
 42
6.35000508
 43
6.35000508
 44
215.9
 45
279.4
 46
0.0
 47
0.0
 48
0.0
 49
0.0
140
0.0
141
0.0
142
1.0
143
1.0
 70
  1712
 72
     1
 73
     0
 74
     0
  7

 75
     0
147
1.0
148
0.0
149
0.0
100
AcDbLayout
  1
Model
 70
     1
 71
     0
 10
0.0
 20
0.0
 11
841.0
 21
594.0
 12
0.0
 22
0.0
 32
0.0
 14
0.0
 24
0.0
 34
0.0
 15
841.0
 25
594.0
 35
0.0
146
0.0
 13
0.0
 23
0.0
 33
0.0
 16
1.0
 26
0.0
 36
0.0
 17
0.0
 27
1.0
 37
0.0
 76
     0
330
1F
331
29
  0
MLINESTYLE
  5
18
102
{ACAD_REACTORS
330
17
102
}
330
17
100
AcDbMlineStyle
  2
Standard
 70
     0
  3

 62
   256
 51
90.0
 52
90.0
 71
     2
 49
0.5
 62
   256
  6
BYLAYER
 49
-0.5
 62
   256
  6
BYLAYER
  0
ACDBPLACEHOLDER
  5
F
102
{ACAD_REACTORS
330
E
102
}
330
E
  0
SCALE
  5
48
102
{ACAD_REACTORS
330
47
102
}
330
47
100
AcDbScale
 70
     0
300
1:1
140
1.0
141
1.0
290
     1
  0
SCALE
  5
49
102
{ACAD_REACTORS
330
47
102
}
330
47
100
AcDbScale
 70
     0
300
1:2
140
1.0
141
2.0
290
     0
  0
SCALE
  5
4A
102
{ACAD_REACTORS
330
47
102
}
330
47
100
AcDbScale
 70
     0
300
1:4
140
1.0
141
4.0
290
     0
  0
SCALE
  5
4B
102
{ACAD_REACTORS
330
47
102
}
330
47
100
AcDbScale
 70
     0
300
1:5
140
1.0
141
5.0
290
     0
  0
SCALE
  5
4C
102
{ACAD_REACTORS
330
47
102
}
330
47
100
AcDbScale
 70
     0
300
1:8
140
1.0
141
8.0
290
     0
  0
SCALE
  5
4D
102
{ACAD_REACTORS
330
47
102
}
330
47
100
AcDbScale
 70
     0
300
1:10
140
1.0
141
10.0
290
     0
  0
SCALE
  5
4E
102
{ACAD_REACTORS
330
47
102
}
330
47
100
AcDbScale
 70
     0
300
1:16
140
1.0
141
16.0
290
     0
  0
SCALE
  5
4F
102
{ACAD_REACTORS
330
47
102
}
330
47
100
AcDbScale
 70
     0
300
1:20
140
1.0
141
20.0
290
     0
  0
SCALE
  5
50
102
{ACAD_REACTORS
330
47
102
}
330
47
100
AcDbScale
 70
     0
300
1:30
140
1.0
141
30.0
290
     0
  0
SCALE
  5
51
102
{ACAD_REACTORS
330
47
102
}
330
47
100
AcDbScale
 70
     0
300
1:40
140
1.0
141
40.0
290
     0
  0
SCALE
  5
52
102
{ACAD_REACTORS
330
47
102
}
330
47
100
AcDbScale
 70
     0
300
1:50
140
1.0
141
50.0
290
     0
  0
SCALE
  5
53
102
{ACAD_REACTORS
330
47
102
}
330
47
100
AcDbScale
 70
     0
300
1:100
140
1.0
141
100.0
290
     0
  0
SCALE
  5
54
102
{ACAD_REACTORS
330
47
102
}
330
47
100
AcDbScale
 70
     0
300
2:1
140
2.0
141
1.0
290
     0
  0
SCALE
  5
55
102
{ACAD_REACTORS
330
47
102
}
330
47
100
AcDbScale
 70
     0
300
4:1
140
4.0
141
1.0
290
     0
  0
SCALE
  5
56
102
{ACAD_REACTORS
330
47
102
}
330
47
100
AcDbScale
 70
     0
300
8:1
140
8.0
141
1.0
290
     0
  0
SCALE
  5
57
102
{ACAD_REACTORS
330
47
102
}
330
47
100
AcDbScale
 70
     0
300
10:1
140
10.0
141
1.0
290
     0
  0
SCALE
  5
58
102
{ACAD_REACTORS
330
47
102
}
330
47
100
AcDbScale
 70
     0
300
100:1
140
100.0
141
1.0
290
     0
  0
ENDSEC
  0
EOF
