  0
SECTION
  2
HEADER
  9
$ACADVER
  1
AC1015
  9
$ACADMAINTVER
 70
     6
  9
$DWGCODEPAGE
  3
DOS932
  9
$INSBASE
 10
0.0
 20
0.0
 30
0.0
  9
$EXTMIN
 10
0.0
 20
0.0
 30
0.0
  9
$EXTMAX
 10
841.0
 20
594.0
 30
0.0
  9
$LIMMIN
 10
0.0
 20
0.0
  9
$LIMMAX
 10
841.0
 20
594.0
  9
$ORTHOMODE
 70
     0
  9
$REGENMODE
 70
     1
  9
$FILLMODE
 70
     1
  9
$QTEXTMODE
 70
     0
  9
$MIRRTEXT
 70
     1
  9
$LTSCALE
 40
1.0
  9
$ATTMODE
 70
     1
  9
$TEXTSIZE
 40
3.5
  9
$TRACEWID
 40
1.0
  9
$TEXTSTYLE
  7
Standard
  9
$CLAYER
  8
0
  9
$CELTYPE
  6
ByLayer
  9
$CECOLOR
 62
   256
  9
$CELTSCALE
 40
1.0
  9
$DISPSILH
 70
     0
  9
$DIMSCALE
 40
1.0
  9
$DIMASZ
 40
3.302
  9
$DIMEXO
 40
1.0
  9
$DIMDLI
 40
3.75
  9
$DIMRND
 40
0.0
  9
$DIMDLE
 40
0.0
  9
$DIMEXE
 40
1.0
  9
$DIMTP
 40
0.0
  9
$DIMTM
 40
0.0
  9
$DIMTXT
 40
3.5
  9
$DIMCEN
 40
2.5
  9
$DIMTSZ
 40
0.0
  9
$DIMTOL
 70
     0
  9
$DIMLIM
 70
     0
  9
$DIMTIH
 70
     1
  9
$DIMTOH
 70
     1
  9
$DIMSE1
 70
     0
  9
$DIMSE2
 70
     0
  9
$DIMTAD
 70
     1
  9
$DIMZIN
 70
     1
  9
$DIMBLK
  1

  9
$DIMASO
 70
     1
  9
$DIMSHO
 70
     1
  9
$DIMPOST
  1

  9
$DIMAPOST
  1

  9
$DIMALT
 70
     0
  9
$DIMALTD
 70
     3
  9
$DIMALTF
 40
0.0393700787
  9
$DIMLFAC
 40
0.2
  9
$DIMTOFL
 70
     1
  9
$DIMTVP
 40
0.0
  9
$DIMTIX
 70
     0
  9
$DIMSOXD
 70
     0
  9
$DIMSAH
 70
     0
  9
$DIMBLK1
  1

  9
$DIMBLK2
  1

  9
$DIMSTYLE
  2
ISO-25
  9
$DIMCLRD
 70
     0
  9
$DIMCLRE
 70
     0
  9
$DIMCLRT
 70
     0
  9
$DIMTFAC
 40
1.0
  9
$DIMGAP
 40
1.524
  9
$DIMJUST
 70
     0
  9
$DIMSD1
 70
     0
  9
$DIMSD2
 70
     0
  9
$DIMTOLJ
 70
     0
  9
$DIMTZIN
 70
     1
  9
$DIMALTZ
 70
     0
  9
$DIMALTTZ
 70
     0
  9
$DIMUPT
 70
     0
  9
$DIMDEC
 70
     2
  9
$DIMTDEC
 70
     2
  9
$DIMALTU
 70
     2
  9
$DIMALTTD
 70
     3
  9
$DIMTXSTY
  7
Standard
  9
$DIMAUNIT
 70
     0
  9
$DIMADEC
 70
     2
  9
$DIMALTRND
 40
0.0
  9
$DIMAZIN
 70
     0
  9
$DIMDSEP
 70
    44
  9
$DIMATFIT
 70
     3
  9
$DIMFRAC
 70
     0
  9
$DIMLDRBLK
  1

  9
$DIMLUNIT
 70
     2
  9
$DIMLWD
 70
    -2
  9
$DIMLWE
 70
    -2
  9
$DIMTMOVE
 70
     0
  9
$LUNITS
 70
     2
  9
$LUPREC
 70
     2
  9
$SKETCHINC
 40
1.0
  9
$FILLETRAD
 40
0.0
  9
$AUNITS
 70
     0
  9
$AUPREC
 70
     2
  9
$MENU
  1
.
  9
$ELEVATION
 40
0.0
  9
$PELEVATION
 40
0.0
  9
$THICKNESS
 40
0.0
  9
$LIMCHECK
 70
     0
  9
$CHAMFERA
 40
0.0
  9
$CHAMFERB
 40
0.0
  9
$CHAMFERC
 40
0.0
  9
$CHAMFERD
 40
0.0
  9
$SKPOLY
 70
     0
  9
$TDCREATE
 40
2461263.415883125
  9
$TDUCREATE
 40
2461263.040883125
  9
$TDUPDATE
 40
2461263.415883484
  9
$TDUUPDATE
 40
2461263.040883484
  9
$TDINDWG
 40
0.0000000116
  9
$TDUSRTIMER
 40
0.0000000116
  9
$USRTIMER
 70
     1
  9
$ANGBASE
 50
0.0
  9
$ANGDIR
 70
     0
  9
$PDMODE
 70
     0
  9
$PDSIZE
 40
-1.0
  9
$PLINEWID
 40
0.0
  9
$SPLFRAME
 70
     0
  9
$SPLINETYPE
 70
     6
  9
$SPLINESEGS
 70
     8
  9
$HANDSEED
  5
99
  9
$SURFTAB1
 70
     6
  9
$SURFTAB2
 70
     6
  9
$SURFTYPE
 70
     6
  9
$SURFU
 70
     6
  9
$SURFV
 70
     6
  9
$UCSBASE
  2

  9
$UCSNAME
  2

  9
$UCSORG
 10
0.0
 20
0.0
 30
0.0
  9
$UCSXDIR
 10
1.0
 20
0.0
 30
0.0
  9
$UCSYDIR
 10
0.0
 20
1.0
 30
0.0
  9
$UCSORTHOREF
  2

  9
$UCSORTHOVIEW
 70
     0
  9
$UCSORGTOP
 10
0.0
 20
0.0
 30
0.0
  9
$UCSORGBOTTOM
 10
0.0
 20
0.0
 30
0.0
  9
$UCSORGLEFT
 10
0.0
 20
0.0
 30
0.0
  9
$UCSORGRIGHT
 10
0.0
 20
0.0
 30
0.0
  9
$UCSORGFRONT
 10
0.0
 20
0.0
 30
0.0
  9
$UCSORGBACK
 10
0.0
 20
0.0
 30
0.0
  9
$PUCSBASE
  2

  9
$PUCSNAME
  2

  9
$PUCSORG
 10
0.0
 20
0.0
 30
0.0
  9
$PUCSXDIR
 10
1.0
 20
0.0
 30
0.0
  9
$PUCSYDIR
 10
0.0
 20
1.0
 30
0.0
  9
$PUCSORTHOREF
  2

  9
$PUCSORTHOVIEW
 70
     0
  9
$PUCSORGTOP
 10
0.0
 20
0.0
 30
0.0
  9
$PUCSORGBOTTOM
 10
0.0
 20
0.0
 30
0.0
  9
$PUCSORGLEFT
 10
0.0
 20
0.0
 30
0.0
  9
$PUCSORGRIGHT
 10
0.0
 20
0.0
 30
0.0
  9
$PUCSORGFRONT
 10
0.0
 20
0.0
 30
0.0
  9
$PUCSORGBACK
 10
0.0
 20
0.0
 30
0.0
  9
$USERI1
 70
     0
  9
$USERI2
 70
     0
  9
$USERI3
 70
     0
  9
$USERI4
 70
     0
  9
$USERI5
 70
     0
  9
$USERR1
 40
0.0
  9
$USERR2
 40
0.0
  9
$USERR3
 40
0.0
  9
$USERR4
 40
0.0
  9
$USERR5
 40
0.0
  9
$WORLDVIEW
 70
     1
  9
$SHADEDGE
 70
     3
  9
$SHADEDIF
 70
    70
  9
$TILEMODE
 70
     1
  9
$MAXACTVP
 70
    64
  9
$PINSBASE
 10
0.0
 20
0.0
 30
0.0
  9
$PLIMCHECK
 70
     0
  9
$PEXTMIN
 10
1.0000000000E+20
 20
1.0000000000E+20
 30
1.0000000000E+20
  9
$PEXTMAX
 10
-1.0000000000E+20
 20
-1.0000000000E+20
 30
-1.0000000000E+20
  9
$PLIMMIN
 10
0.0
 20
0.0
  9
$PLIMMAX
 10
420.0
 20
297.0
  9
$UNITMODE
 70
     0
  9
$VISRETAIN
 70
     1
  9
$PLINEGEN
 70
     0
  9
$PSLTSCALE
 70
     1
  9
$TREEDEPTH
 70
  3020
  9
$CMLSTYLE
  2
Standard
  9
$CMLJUST
 70
     0
  9
$CMLSCALE
 40
20.0
  9
$PROXYGRAPHICS
 70
     1
  9
$MEASUREMENT
 70
     1
  9
$CELWEIGHT
370
    -1
  9
$ENDCAPS
280
     0
  9
$JOINSTYLE
280
     0
  9
$LWDISPLAY
290
     1
  9
$INSUNITS
 70
     4
  9
$HYPERLINKBASE
  1

  9
$STYLESHEET
  1

  9
$XEDIT
290
     1
  9
$CEPSNTYPE
380
     0
  9
$PSTYLEMODE
290
     1
  9
$FINGERPRINTGUID
  2
{d989757a-e282-4f83-a3ff-3503bb0e6f76}
  9
$VERSIONGUID
  2
{FAEB1C32-E019-11D5-929B-00C0DF256EC4}
  9
$EXTNAMES
290
     1
  9
$PSVPSCALE
 40
0.0
  9
$OLESTARTUP
290
     0
  0
ENDSEC
  0
SECTION
  2
CLASSES
  0
CLASS
  1
ACDBDICTIONARYWDFLT
  2
AcDbDictionaryWithDefault
  3
ObjectDBX Classes
 90
        0
280
     0
281
     0
  0
CLASS
  1
VISUALSTYLE
  2
AcDbVisualStyle
  3
ObjectDBX Classes
 90
     4095
280
     0
281
     0
  0
CLASS
  1
MATERIAL
  2
AcDbMaterial
  3
ObjectDBX Classes
 90
     1153
280
     0
281
     0
  0
CLASS
  1
SCALE
  2
AcDbScale
  3
ObjectDBX Classes
 90
     1153
280
     0
281
     0
  0
CLASS
  1
TABLESTYLE
  2
AcDbTableStyle
  3
ObjectDBX Classes
 90
     4095
280
     0
281
     0
  0
CLASS
  1
MLEADERSTYLE
  2
AcDbMLeaderStyle
  3
ACDB_MLEADERSTYLE_CLASS
 90
     4095
280
     0
281
     0
  0
CLASS
  1
SUN
  2
AcDbSun
  3
SCENEOE
 90
     1153
280
     0
281
     0
  0
CLASS
  1
ACDBPLACEHOLDER
  2
AcDbPlaceHolder
  3
ObjectDBX Classes
 90
        0
280
     0
281
     0
  0
CLASS
  1
LAYOUT
  2
AcDbLayout
  3
ObjectDBX Classes
 90
        0
280
     0
281
     0
  0
ENDSEC
  0
SECTION
  2
TABLES
  0
TABLE
  2
VPORT
  5
8
330
0
100
AcDbSymbolTable
 70
     1
  0
VPORT
  5
29
330
8
100
AcDbSymbolTableRecord
100
AcDbViewportTableRecord
  2
*Active
 70
     0
 10
0.0
 20
0.0
 11
1.0
 21
1.0
 12
420.5
 22
297.0
 13
0.0
 23
0.0
 14
10.0
 24
10.0
 15
10.0
 25
10.0
 16
0.0
 26
0.0
 36
1.0
 17
0.0
 27
0.0
 37
0.0
 40
594.0
 41
1.4158249158
 42
50.0
 43
0.0
 44
0.0
 50
0.0
 51
0.0
 71
     0
 72
  2000
 73
     1
 74
     3
 75
     0
 76
     0
 77
     0
 78
     0
281
     0
 65
     1
110
0.0
120
0.0
130
0.0
111
1.0
121
0.0
131
0.0
112
0.0
122
1.0
132
0.0
 79
     0
146
0.0
  0
ENDTAB
  0
TABLE
  2
LTYPE
  5
5
330
0
100
AcDbSymbolTable
 70
     6
  0
LTYPE
  5
14
330
5
100
AcDbSymbolTableRecord
100
AcDbLinetypeTableRecord
  2
ByBlock
 70
     0
  3

 72
    65
 73
     0
 40
0.0
  0
LTYPE
  5
15
330
5
100
AcDbSymbolTableRecord
100
AcDbLinetypeTableRecord
  2
ByLayer
 70
     0
  3

 72
    65
 73
     0
 40
0.0
  0
LTYPE
  5
16
330
5
100
AcDbSymbolTableRecord
100
AcDbLinetypeTableRecord
  2
Continuous
 70
     0
  3
Solid line
 72
    65
 73
     0
 40
0.0
  0
LTYPE
  5
5E
330
5
100
AcDbSymbolTableRecord
100
AcDbLinetypeTableRecord
  2
HIDDEN
 70
     0
  3
Hidden __ __ __ __ __ __ __ __ __ __ __ __ __ __
 72
    65
 73
     2
 40
1.905
 49
1.27
 74
     0
 49
-0.635
 74
     0
  0
LTYPE
  5
5F
330
5
100
AcDbSymbolTableRecord
100
AcDbLinetypeTableRecord
  2
PHANTOM
 70
     0
  3
Phantom ______  __  __  ______  __  __  ______
 72
    65
 73
     6
 40
12.7
 49
6.35
 74
     0
 49
-1.27
 74
     0
 49
1.27
 74
     0
 49
-1.27
 74
     0
 49
1.27
 74
     0
 49
-1.27
 74
     0
  0
LTYPE
  5
60
330
5
100
AcDbSymbolTableRecord
100
AcDbLinetypeTableRecord
  2
CENTER
 70
     0
  3
Center ____ _ ____ _ ____ _ ____ _ ____ _ ____
 72
    65
 73
     4
 40
10.16
 49
6.35
 74
     0
 49
-1.27
 74
     0
 49
1.27
 74
     0
 49
-1.27
 74
     0
  0
LTYPE
  5
61
330
5
100
AcDbSymbolTableRecord
100
AcDbLinetypeTableRecord
  2
CENTERX2
 70
     0
  3
Center (2x) ________  __  ________  __  _____
 72
    65
 73
     4
 40
20.32
 49
12.7
 74
     0
 49
-2.54
 74
     0
 49
2.54
 74
     0
 49
-2.54
 74
     0
  0
LTYPE
  5
62
330
5
100
AcDbSymbolTableRecord
100
AcDbLinetypeTableRecord
  2
DOT2
 70
     0
  3
Dot (.5x) ........................................
 72
    65
 73
     2
 40
0.635
 49
0.0
 74
     0
 49
-0.635
 74
     0
  0
ENDTAB
  0
TABLE
  2
LAYER
  5
2
330
0
100
AcDbSymbolTable
 70
     1
  0
LAYER
  5
10
330
2
100
AcDbSymbolTableRecord
100
AcDbLayerTableRecord
  2
0
 70
     0
 62
     7
  6
Continuous
370
    -3
390
F
  0
ENDTAB
  0
TABLE
  2
STYLE
  5
3
330
0
100
AcDbSymbolTable
 70
     1
  0
STYLE
  5
11
330
3
100
AcDbSymbolTableRecord
100
AcDbTextStyleTableRecord
  2
Standard
 70
     0
 40
0.0
 41
1.0
 50
0.0
 71
     0
 42
3.5
  3
txt
  4
bigfont
  0
ENDTAB
  0
TABLE
  2
VIEW
  5
6
330
0
100
AcDbSymbolTable
 70
     0
  0
ENDTAB
  0
TABLE
  2
UCS
  5
7
330
0
100
AcDbSymbolTable
 70
     0
  0
ENDTAB
  0
TABLE
  2
APPID
  5
9
330
0
100
AcDbSymbolTable
 70
     1
  0
APPID
  5
12
330
9
100
AcDbSymbolTableRecord
100
AcDbRegAppTableRecord
  2
ACAD
 70
     0
  0
ENDTAB
  0
TABLE
  2
DIMSTYLE
  5
A
330
0
100
AcDbSymbolTable
 70
     1
100
AcDbDimStyleTable
  0
DIMSTYLE
105
27
330
A
100
AcDbSymbolTableRecord
100
AcDbDimStyleTableRecord
  2
ISO-25
 70
     0
 41
2.5
 42
0.625
 43
3.75
 44
1.25
 73
     0
 74
     0
 77
     1
 78
     8
140
2.5
141
2.5
143
0.0393700787
147
0.625
171
     3
172
     1
178
     0
271
     2
272
     2
274
     3
278
    44
283
     0
284
     8
340
11
  0
ENDTAB
  0
TABLE
  2
BLOCK_RECORD
  5
1
330
0
100
AcDbSymbolTable
 70
     1
  0
BLOCK_RECORD
  5
1F
330
1
100
AcDbSymbolTableRecord
100
AcDbBlockTableRecord
  2
*Model_Space
340
22
  0
BLOCK_RECORD
  5
1B
330
1
100
AcDbSymbolTableRecord
100
AcDbBlockTableRecord
  2
*Paper_Space
340
1E
  0
BLOCK_RECORD
  5
23
330
1
100
AcDbSymbolTableRecord
100
AcDbBlockTableRecord
  2
*Paper_Space0
340
26
  0
ENDTAB
  0
ENDSEC
  0
SECTION
  2
BLOCKS
  0
BLOCK
  5
20
330
1F
100
AcDbEntity
  8
0
100
AcDbBlockBegin
  2
*Model_Space
 70
     0
 10
0.0
 20
0.0
 30
0.0
  3
*Model_Space
  1

  0
ENDBLK
  5
21
330
1F
100
AcDbEntity
  8
0
100
AcDbBlockEnd
  0
BLOCK
  5
1C
330
1B
100
AcDbEntity
 67
     1
  8
0
100
AcDbBlockBegin
  2
*Paper_Space
 70
     0
 10
0.0
 20
0.0
 30
0.0
  3
*Paper_Space
  1

  0
ENDBLK
  5
1D
330
1B
100
AcDbEntity
 67
     1
  8
0
100
AcDbBlockEnd
  0
BLOCK
  5
24
330
23
100
AcDbEntity
  8
0
100
AcDbBlockBegin
  2
*Paper_Space0
 70
     0
 10
0.0
 20
0.0
 30
0.0
  3
*Paper_Space0
  1

  0
ENDBLK
  5
25
330
23
100
AcDbEntity
  8
0
100
AcDbBlockEnd
  0
ENDSEC
  0
SECTION
  2
ENTITIES
  0
LINE
  5
63
330
1F
100
AcDbEntity
  8
0
  6
Continuous
 62
     7
370
    25
100
AcDbLine
 10
359.9607287525
 20
265.12
 30
0.0
 11
357.9607287525
 21
265.12
 31
0.0
  0
LINE
  5
64
330
1F
100
AcDbEntity
  8
0
  6
Continuous
 62
     7
370
    25
100
AcDbLine
 10
357.9607287525
 20
225.12
 30
0.0
 11
359.9607287525
 21
225.12
 31
0.0
  0
LINE
  5
65
330
1F
100
AcDbEntity
  8
0
  6
Continuous
 62
     7
370
    25
100
AcDbLine
 10
362.7107287525
 20
264.12
 30
0.0
 11
359.9607287525
 21
264.12
 31
0.0
  0
LINE
  5
66
330
1F
100
AcDbEntity
  8
0
  6
Continuous
 62
     7
370
    25
100
AcDbLine
 10
359.9607287525
 20
226.12
 30
0.0
 11
362.7107287525
 21
226.12
 31
0.0
  0
LINE
  5
67
330
1F
100
AcDbEntity
  8
0
  6
Continuous
 62
     7
370
    25
100
AcDbLine
 10
359.9607287525
 20
245.12
 30
0.0
 11
359.9607287525
 21
265.12
 31
0.0
  0
LINE
  5
68
330
1F
100
AcDbEntity
  8
0
  6
Continuous
 62
     7
370
    25
100
AcDbLine
 10
357.9607287525
 20
245.12
 30
0.0
 11
357.9607287525
 21
265.12
 31
0.0
  0
LINE
  5
69
330
1F
100
AcDbEntity
  8
0
  6
Continuous
 62
     7
370
    25
100
AcDbLine
 10
359.9607287525
 20
225.12
 30
0.0
 11
359.9607287525
 21
245.12
 31
0.0
  0
LINE
  5
6A
330
1F
100
AcDbEntity
  8
0
  6
Continuous
 62
     7
370
    25
100
AcDbLine
 10
357.9607287525
 20
225.12
 30
0.0
 11
357.9607287525
 21
245.12
 31
0.0
  0
LINE
  5
6B
330
1F
100
AcDbEntity
  8
0
  6
Continuous
 62
     7
370
    25
100
AcDbLine
 10
362.7107287525
 20
245.12
 30
0.0
 11
362.7107287525
 21
264.12
 31
0.0
  0
LINE
  5
6C
330
1F
100
AcDbEntity
  8
0
  6
Continuous
 62
     7
370
    25
100
AcDbLine
 10
362.7107287525
 20
226.12
 30
0.0
 11
362.7107287525
 21
245.12
 31
0.0
  0
LINE
  5
6D
330
1F
100
AcDbEntity
  8
0
  6
HIDDEN
 62
     7
370
    18
100
AcDbLine
 10
357.9607287525
 20
230.12
 30
0.0
 11
362.7107287525
 21
230.12
 31
0.0
  0
LINE
  5
6E
330
1F
100
AcDbEntity
  8
0
  6
HIDDEN
 62
     7
370
    18
100
AcDbLine
 10
362.7107287525
 20
260.12
 30
0.0
 11
357.9607287525
 21
260.12
 31
0.0
  0
LINE
  5
6F
330
1F
100
AcDbEntity
  8
0
  6
Continuous
 62
     7
370
    25
100
AcDbLine
 10
359.9607287525
 20
368.88
 30
0.0
 11
357.9607287525
 21
368.88
 31
0.0
  0
LINE
  5
70
330
1F
100
AcDbEntity
  8
0
  6
Continuous
 62
     7
370
    25
100
AcDbLine
 10
359.9607287525
 20
328.88
 30
0.0
 11
359.9607287525
 21
368.88
 31
0.0
  0
LINE
  5
71
330
1F
100
AcDbEntity
  8
0
  6
Continuous
 62
     7
370
    25
100
AcDbLine
 10
359.9607287525
 20
328.88
 30
0.0
 11
357.9607287525
 21
328.88
 31
0.0
  0
LINE
  5
72
330
1F
100
AcDbEntity
  8
0
  6
Continuous
 62
     7
370
    25
100
AcDbLine
 10
357.9607287525
 20
328.88
 30
0.0
 11
357.9607287525
 21
368.88
 31
0.0
  0
LINE
  5
73
330
1F
100
AcDbEntity
  8
0
  6
Continuous
 62
     7
370
    25
100
AcDbLine
 10
362.7107287525
 20
367.88
 30
0.0
 11
359.9607287525
 21
367.88
 31
0.0
  0
LINE
  5
74
330
1F
100
AcDbEntity
  8
0
  6
Continuous
 62
     7
370
    25
100
AcDbLine
 10
362.7107287525
 20
329.88
 30
0.0
 11
362.7107287525
 21
367.88
 31
0.0
  0
LINE
  5
75
330
1F
100
AcDbEntity
  8
0
  6
Continuous
 62
     7
370
    25
100
AcDbLine
 10
362.7107287525
 20
329.88
 30
0.0
 11
359.9607287525
 21
329.88
 31
0.0
  0
LINE
  5
76
330
1F
100
AcDbEntity
  8
0
  6
HIDDEN
 62
     7
370
    18
100
AcDbLine
 10
362.7107287525
 20
363.88
 30
0.0
 11
357.9607287525
 21
363.88
 31
0.0
  0
LINE
  5
77
330
1F
100
AcDbEntity
  8
0
  6
HIDDEN
 62
     7
370
    18
100
AcDbLine
 10
362.7107287525
 20
333.88
 30
0.0
 11
357.9607287525
 21
333.88
 31
0.0
  0
ARC
  5
78
330
1F
100
AcDbEntity
  8
0
  6
Continuous
 62
     7
370
    25
100
AcDbCircle
 10
454.755
 20
245.12
 30
0.0
 40
19.00000000000006
100
AcDbArc
 50
0.0
 51
180.0
  0
ARC
  5
79
330
1F
100
AcDbEntity
  8
0
  6
Continuous
 62
     7
370
    25
100
AcDbCircle
 10
454.755
 20
245.12
 30
0.0
 40
19.00000000000006
100
AcDbArc
 50
180.0
 51
0.0
  0
ARC
  5
7A
330
1F
100
AcDbEntity
  8
0
  6
Continuous
 62
     7
370
    25
100
AcDbCircle
 10
454.755
 20
245.12
 30
0.0
 40
15.00000000000006
100
AcDbArc
 50
0.0
 51
180.0
  0
ARC
  5
7B
330
1F
100
AcDbEntity
  8
0
  6
Continuous
 62
     7
370
    25
100
AcDbCircle
 10
454.755
 20
245.12
 30
0.0
 40
15.00000000000006
100
AcDbArc
 50
180.0
 51
0.0
  0
ARC
  5
7C
330
1F
100
AcDbEntity
  8
0
  6
Continuous
 62
     7
370
    25
100
AcDbCircle
 10
454.755
 20
245.12
 30
0.0
 40
20.00000000000006
100
AcDbArc
 50
0.0
 51
180.0
  0
ARC
  5
7D
330
1F
100
AcDbEntity
  8
0
  6
Continuous
 62
     7
370
    25
100
AcDbCircle
 10
454.755
 20
245.12
 30
0.0
 40
20.00000000000006
100
AcDbArc
 50
180.0
 51
0.0
  0
LINE
  5
7E
330
1F
100
AcDbEntity
  8
0
  6
Continuous
 62
     7
370
    25
100
AcDbLine
 10
473.755
 20
348.5737971955
 30
0.0
 11
473.755
 21
350.8192844282
 31
0.0
  0
LINE
  5
7F
330
1F
100
AcDbEntity
  8
0
  6
Continuous
 62
     7
370
    25
100
AcDbLine
 10
474.755
 20
346.9407155718
 30
0.0
 11
474.755
 21
348.5737971955
 31
0.0
  0
LINE
  5
80
330
1F
100
AcDbEntity
  8
0
  6
Continuous
 62
     7
370
    25
100
AcDbLine
 10
435.755
 20
350.8192844282
 30
0.0
 11
435.755
 21
348.5737971955
 31
0.0
  0
LINE
  5
81
330
1F
100
AcDbEntity
  8
0
  6
Continuous
 62
     7
370
    25
100
AcDbLine
 10
434.755
 20
348.5737971955
 30
0.0
 11
434.755
 21
346.9407155718
 31
0.0
  0
LWPOLYLINE
  5
82
330
1F
100
AcDbEntity
  8
0
  6
Continuous
 62
     7
370
    25
100
AcDbPolyline
 90
       70
 70
   128
 43
0.0
 10
441.3199711575
 20
343.0634073659
 10
440.7224042798
 20
343.4244506211
 10
440.1539220996
 20
343.8008207986
 10
439.6157028831
 20
344.1917378138
 10
439.1088621717
 20
344.5963914314
 10
438.6344504702
 20
345.013942945
 10
438.1934510694
 20
345.4435269153
 10
437.7867780077
 20
345.884252964
 10
437.4152741773
 20
346.335207619
 10
437.0797095766
 20
346.7954562079
 10
436.7807797144
 20
347.2640447953
 10
436.5191041685
 20
347.7400021598
 10
436.2952253014
 20
348.2223418069
 10
436.1096071364
 20
348.7100640143
 10
435.9626343953
 20
349.202157903
 10
435.8546117017
 20
349.6976035334
 10
435.785762949
 20
350.1953740187
 10
435.7562308369
 20
350.6944376536
 10
435.766076575
 20
351.1937600526
 10
435.8152797567
 20
351.6923062936
 10
435.9037384009
 20
352.1890430635
 10
436.0312691634
 20
352.6829407995
 10
436.1976077173
 20
353.172975823
 10
436.4024093005
 20
353.6581324617
 10
436.6452494305
 20
354.1374051543
 10
436.9256247841
 20
354.609800535
 10
437.2429542404
 20
355.0743394923
 10
437.5965800858
 20
355.5300591981
 10
437.9857693767
 20
355.9760151039
 10
438.4097154588
 20
356.4112828979
 10
438.8675396392
 20
356.8349604211
 10
439.3582930072
 20
357.2461695372
 10
439.8809584017
 20
357.6440579525
 10
440.4344525188
 20
358.0278009825
 10
441.0176281573
 20
358.3966032611
 10
441.6292765968
 20
358.7497003893
 10
442.2681301025
 20
359.0863605195
 10
442.9328645528
 20
359.405885872
 10
443.6221021841
 20
359.7076141817
 10
444.3344144463
 20
359.9909200708
 10
445.0683249633
 20
360.2552163444
 10
445.8223125935
 20
360.4999552082
 10
446.5948145824
 20
360.7246294035
 10
447.3842298018
 20
360.9287732587
 10
448.1889220679
 20
361.1119636545
 10
449.0072235333
 20
361.2738209009
 10
449.8374381431
 20
361.414009524
 10
450.6778451507
 20
361.5322389614
 10
451.5267026845
 20
361.6282641646
 10
452.3822513573
 20
361.7018861067
 10
453.2427179141
 20
361.752952195
 10
454.1063189065
 20
361.7813565872
 10
454.9712643894
 20
361.7870404109
 10
455.8357616314
 20
361.7699918854
 10
456.6980188299
 20
361.7302463465
 10
457.5562488251
 20
361.6678861728
 10
458.4086728044
 20
361.5830406154
 10
459.2535239889
 20
361.4758855296
 10
460.0890512954
 20
361.3466430106
 10
460.9135229661
 20
361.1955809334
 10
461.7252301574
 20
361.0230123972
 10
462.5224904824
 20
360.8292950766
 10
463.3036514972
 20
360.6148304803
 10
464.0670941264
 20
360.380063119
 10
464.8112360184
 20
360.1254795838
 10
465.5345348257
 20
359.8516075381
 10
466.2354914009
 20
359.5590146234
 10
466.9126529045
 20
359.2483072833
 10
467.564615816
 20
358.9201295062
 10
468.1900288425
 20
358.5751614905
  0
LWPOLYLINE
  5
83
330
1F
100
AcDbEntity
  8
0
  6
Continuous
 62
     7
370
    25
100
AcDbPolyline
 90
       70
 70
   128
 43
0.0
 10
468.1900288425
 20
358.5751614905
 10
468.7875957202
 20
358.2141182353
 10
469.3560779004
 20
357.8377480578
 10
469.8942971169
 20
357.4468310427
 10
470.4011378283
 20
357.0421774251
 10
470.8755495298
 20
356.6246259115
 10
471.3165489306
 20
356.1950419412
 10
471.7232219923
 20
355.7543158925
 10
472.0947258227
 20
355.3033612375
 10
472.4302904234
 20
354.8431126485
 10
472.7292202856
 20
354.3745240611
 10
472.9908958315
 20
353.8985666967
 10
473.2147746986
 20
353.4162270495
 10
473.4003928636
 20
352.9285048422
 10
473.5473656047
 20
352.4364109535
 10
473.6553882983
 20
351.9409653231
 10
473.724237051
 20
351.4431948377
 10
473.7537691631
 20
350.9441312028
 10
473.743923425
 20
350.4448088039
 10
473.6947202433
 20
349.9462625628
 10
473.6062615991
 20
349.449525793
 10
473.4787308366
 20
348.955628057
 10
473.3123922827
 20
348.4655930335
 10
473.1075906995
 20
347.9804363948
 10
472.8647505695
 20
347.5011637022
 10
472.5843752159
 20
347.0287683214
 10
472.2670457596
 20
346.5642293642
 10
471.9134199142
 20
346.1085096583
 10
471.5242306233
 20
345.6625537525
 10
471.1002845412
 20
345.2272859585
 10
470.6424603608
 20
344.8036084353
 10
470.1517069928
 20
344.3923993192
 10
469.6290415983
 20
343.9945109039
 10
469.0755474812
 20
343.610767874
 10
468.4923718427
 20
343.2419655953
 10
467.8807234032
 20
342.8888684671
 10
467.2418698975
 20
342.552208337
 10
466.5771354472
 20
342.2326829845
 10
465.8878978159
 20
341.9309546747
 10
465.1755855537
 20
341.6476487857
 10
464.4416750367
 20
341.3833525121
 10
463.6876874065
 20
341.1386136483
 10
462.9151854176
 20
340.913939453
 10
462.1257701982
 20
340.7097955978
 10
461.3210779321
 20
340.5266052019
 10
460.5027764667
 20
340.3647479555
 10
459.6725618569
 20
340.2245593325
 10
458.8321548493
 20
340.1063298951
 10
457.9832973155
 20
340.0103046918
 10
457.1277486427
 20
339.9366827497
 10
456.2672820859
 20
339.8856166615
 10
455.4036810935
 20
339.8572122693
 10
454.5387356106
 20
339.8515284456
 10
453.6742383686
 20
339.8685769711
 10
452.8119811701
 20
339.90832251
 10
451.9537511749
 20
339.9706826836
 10
451.1013271956
 20
340.0555282411
 10
450.2564760111
 20
340.1626833269
 10
449.4209487046
 20
340.2919258458
 10
448.5964770339
 20
340.442987923
 10
447.7847698426
 20
340.6155564592
 10
446.9875095176
 20
340.8092737799
 10
446.2063485028
 20
341.0237383762
 10
445.4429058736
 20
341.2585057375
 10
444.6987639816
 20
341.5130892726
 10
443.9754651743
 20
341.7869613184
 10
443.2745085991
 20
342.079554233
 10
442.5973470955
 20
342.3902615731
 10
441.945384184
 20
342.7184393503
 10
441.3199711575
 20
343.0634073659
  0
LWPOLYLINE
  5
84
330
1F
100
AcDbEntity
  8
0
  6
Continuous
 62
     7
370
    25
100
AcDbPolyline
 90
       62
 70
   128
 43
0.0
 10
444.1483982822
 20
344.6962235896
 10
443.6164470339
 20
345.0195497652
 10
443.1140332257
 20
345.3582557946
 10
442.6424891688
 20
345.7114434902
 10
442.203065313
 20
346.0781762617
 10
441.7969269316
 20
346.4574815997
 10
441.4251510306
 20
346.8483536548
 10
441.0887234926
 20
347.2497559044
 10
440.7885364632
 20
347.6606239019
 10
440.5253859844
 20
348.0798680994
 10
440.2999698839
 20
348.5063767365
 10
440.1128859246
 20
348.9390187889
 10
439.9646302197
 20
349.3766469679
 10
439.8555959166
 20
349.818100762
 10
439.7860721546
 20
350.2622095153
 10
439.7562432983
 20
350.7077955311
 10
439.7661884485
 20
351.1536771953
 10
439.8158812324
 20
351.5986721101
 10
439.9051898737
 20
352.0416002289
 10
440.0338775418
 20
352.4812869859
 10
440.2016029803
 20
352.9165664109
 10
440.4079214115
 20
353.3462842211
 10
440.6522857159
 20
353.7693008821
 10
440.9340478833
 20
354.1844946298
 10
441.2524607312
 20
354.590764445
 10
441.6066798859
 20
354.9870329732
 10
441.9957660218
 20
355.3722493815
 10
442.4186873525
 20
355.7453921453
 10
442.8743223667
 20
356.1054717569
 10
443.3614628021
 20
356.45153335
 10
443.87881685
 20
356.7826592315
 10
444.4250125804
 20
357.0979713151
 10
444.9986015805
 20
357.3966334497
 10
445.5980627952
 20
357.6778536372
 10
446.2218065612
 20
357.9408861321
 10
446.8681788223
 20
358.1850334195
 10
447.5354655153
 20
358.4096480647
 10
448.2218971159
 20
358.6141344301
 10
448.9256533309
 20
358.7979502545
 10
449.6448679253
 20
358.9606080915
 10
450.3776336713
 20
359.1016766017
 10
451.122007406
 20
359.2207816968
 10
451.8760151838
 20
359.3176075314
 10
452.6376575119
 20
359.391897341
 10
453.4049146516
 20
359.4434541221
 10
454.1757519749
 20
359.4721411557
 10
454.9481253599
 20
359.4778823687
 10
455.7199866111
 20
359.4606625365
 10
456.4892888914
 20
359.420527323
 10
457.2539921492
 20
359.3575831596
 10
458.0120685291
 20
359.2719969629
 10
458.7615077488
 20
359.1639956921
 10
459.5003224302
 20
359.0338657472
 10
460.2265533696
 20
358.8819522093
 10
460.9382747331
 20
358.7086579259
 10
461.6335991635
 20
358.5144424422
 10
462.3106827855
 20
358.2998207829
 10
462.9677300951
 20
358.0653620859
 10
463.6029987208
 20
357.8116880936
 10
464.2148040445
 20
357.5394715038
 10
464.8015236685
 20
357.249434186
 10
465.3616017178
 20
356.9423452669
  0
LWPOLYLINE
  5
85
330
1F
100
AcDbEntity
  8
0
  6
Continuous
 62
     7
370
    25
100
AcDbPolyline
 90
       62
 70
   128
 43
0.0
 10
465.3616017178
 20
356.9423452669
 10
465.8935529661
 20
356.6190190912
 10
466.3959667743
 20
356.2803130619
 10
466.8675108312
 20
355.9271253663
 10
467.306934687
 20
355.5603925948
 10
467.7130730684
 20
355.1810872567
 10
468.0848489694
 20
354.7902152017
 10
468.4212765074
 20
354.3888129521
 10
468.7214635368
 20
353.9779449545
 10
468.9846140156
 20
353.5587007571
 10
469.2100301161
 20
353.13219212
 10
469.3971140754
 20
352.6995500675
 10
469.5453697803
 20
352.2619218886
 10
469.6544040834
 20
351.8204680944
 10
469.7239278454
 20
351.3763593412
 10
469.7537567017
 20
350.9307733254
 10
469.7438115515
 20
350.4848916611
 10
469.6941187676
 20
350.0398967463
 10
469.6048101263
 20
349.5969686276
 10
469.4761224582
 20
349.1572818706
 10
469.3083970197
 20
348.7220024456
 10
469.1020785885
 20
348.2922846354
 10
468.8577142841
 20
347.8692679744
 10
468.5759521167
 20
347.4540742267
 10
468.2575392688
 20
347.0478044114
 10
467.9033201141
 20
346.6515358832
 10
467.5142339782
 20
346.2663194749
 10
467.0913126475
 20
345.8931767112
 10
466.6356776333
 20
345.5330970996
 10
466.1485371979
 20
345.1870355064
 10
465.63118315
 20
344.8559096249
 10
465.0849874196
 20
344.5405975414
 10
464.5113984195
 20
344.2419354067
 10
463.9119372048
 20
343.9607152193
 10
463.2881934388
 20
343.6976827244
 10
462.6418211777
 20
343.453535437
 10
461.9745344847
 20
343.2289207918
 10
461.2881028841
 20
343.0244344264
 10
460.5843466691
 20
342.840618602
 10
459.8651320747
 20
342.677960765
 10
459.1323663287
 20
342.5368922548
 10
458.387992594
 20
342.4177871597
 10
457.6339848162
 20
342.320961325
 10
456.8723424881
 20
342.2466715155
 10
456.1050853484
 20
342.1951147343
 10
455.3342480251
 20
342.1664277008
 10
454.5618746401
 20
342.1606864878
 10
453.7900133889
 20
342.17790632
 10
453.0207111086
 20
342.2180415335
 10
452.2560078508
 20
342.2809856969
 10
451.4979314709
 20
342.3665718936
 10
450.7484922512
 20
342.4745731644
 10
450.0096775698
 20
342.6047031093
 10
449.2834466304
 20
342.7566166472
 10
448.5717252669
 20
342.9299109306
 10
447.8764008365
 20
343.1241264142
 10
447.1993172145
 20
343.3387480736
 10
446.5422699049
 20
343.5732067705
 10
445.9070012792
 20
343.8268807629
 10
445.2951959555
 20
344.0990973527
 10
444.7084763315
 20
344.3891346705
 10
444.1483982822
 20
344.6962235896
  0
LWPOLYLINE
  5
86
330
1F
100
AcDbEntity
  8
0
  6
Continuous
 62
     7
370
    25
100
AcDbPolyline
 90
       53
 70
   128
 43
0.0
 10
473.755
 20
348.5737971955
 10
473.743923425
 20
348.1993215712
 10
473.6947202433
 20
347.7007753302
 10
473.6062615991
 20
347.2040385603
 10
473.4787308366
 20
346.7101408243
 10
473.3123922827
 20
346.2201058008
 10
473.1075906995
 20
345.7349491621
 10
472.8647505695
 20
345.2556764695
 10
472.5843752159
 20
344.7832810888
 10
472.2670457596
 20
344.3187421315
 10
471.9134199142
 20
343.8630224256
 10
471.5242306233
 20
343.4170665199
 10
471.1002845412
 20
342.9817987259
 10
470.6424603608
 20
342.5581212026
 10
470.1517069928
 20
342.1469120865
 10
469.6290415983
 20
341.7490236712
 10
469.0755474812
 20
341.3652806413
 10
468.4923718427
 20
340.9964783627
 10
467.8807234032
 20
340.6433812344
 10
467.2418698975
 20
340.3067211043
 10
466.5771354472
 20
339.9871957518
 10
465.8878978159
 20
339.685467442
 10
465.1755855537
 20
339.402161553
 10
464.4416750367
 20
339.1378652794
 10
463.6876874065
 20
338.8931264156
 10
462.9151854176
 20
338.6684522203
 10
462.1257701982
 20
338.4643083651
 10
461.3210779321
 20
338.2811179692
 10
460.5027764667
 20
338.1192607229
 10
459.6725618569
 20
337.9790720998
 10
458.8321548493
 20
337.8608426624
 10
457.9832973155
 20
337.7648174592
 10
457.1277486427
 20
337.6911955171
 10
456.2672820859
 20
337.6401294288
 10
455.4036810935
 20
337.6117250366
 10
454.5387356106
 20
337.6060412129
 10
453.6742383686
 20
337.6230897384
 10
452.8119811701
 20
337.6628352773
 10
451.9537511749
 20
337.7251954509
 10
451.1013271956
 20
337.8100410084
 10
450.2564760111
 20
337.9171960942
 10
449.4209487046
 20
338.0464386131
 10
448.5964770339
 20
338.1975006903
 10
447.7847698426
 20
338.3700692266
 10
446.9875095176
 20
338.5637865472
 10
446.2063485028
 20
338.7782511435
 10
445.4429058736
 20
339.0130185048
 10
444.6987639816
 20
339.2676020399
 10
443.9754651743
 20
339.5414740857
 10
443.2745085991
 20
339.8340670003
 10
442.5973470955
 20
340.1447743405
 10
441.945384184
 20
340.4729521176
 10
441.3199711575
 20
340.8179201332
  0
LWPOLYLINE
  5
87
330
1F
100
AcDbEntity
  8
0
  6
Continuous
 62
     7
370
    25
100
AcDbPolyline
 90
       27
 70
   128
 43
0.0
 10
440.6128643763
 20
340.4097160773
 10
440.0011523351
 20
340.7788314942
 10
439.4183216435
 20
341.1632059225
 10
438.8655132201
 20
341.5620869312
 10
438.3438092132
 20
341.974693692
 10
437.8542308829
 20
342.4002185079
 10
437.3977366019
 20
342.8378283939
 10
436.975219979
 20
343.2866667082
 10
436.5875081105
 20
343.7458548287
 10
436.2353599605
 20
344.2144938732
 10
435.9194648755
 20
344.6916664586
 10
435.6404412351
 20
345.1764384972
 10
435.3988352411
 20
345.667861025
 10
435.1951198486
 20
346.1649720593
 10
435.02969384
 20
346.666798482
 10
434.9028810445
 20
347.1723579442
 10
434.8149297041
 20
347.6806607895
 10
434.7660119877
 20
348.1907119913
 10
434.756223654
 20
348.7015131003
 10
434.7855838642
 20
349.2120641995
 10
434.8540351442
 20
349.7213658611
 10
434.9614434975
 20
350.2284211031
 10
435.1075986671
 20
350.7322373411
 10
435.2922145475
 20
351.2318283311
 10
435.5149297443
 20
351.7262161004
 10
435.7753082823
 20
352.2144328616
 10
436.0043947948
 20
352.5906082573
  0
LWPOLYLINE
  5
88
330
1F
100
AcDbEntity
  8
0
  6
Continuous
 62
     7
370
    25
100
AcDbPolyline
 90
       63
 70
   128
 43
0.0
 10
473.5056052052
 20
352.5906082573
 10
473.5905351245
 20
352.4559279325
 10
473.8695587649
 20
351.9711558939
 10
474.1111647589
 20
351.4797333661
 10
474.3148801514
 20
350.9826223318
 10
474.48030616
 20
350.4807959091
 10
474.6071189555
 20
349.9752364469
 10
474.6950702959
 20
349.4669336016
 10
474.7439880123
 20
348.9568823998
 10
474.753776346
 20
348.4460812907
 10
474.7244161358
 20
347.9355301916
 10
474.6559648558
 20
347.42622853
 10
474.5485565025
 20
346.919173288
 10
474.4024013329
 20
346.41535705
 10
474.2177854525
 20
345.91576606
 10
473.9950702557
 20
345.4213782907
 10
473.7346917177
 20
344.9331615294
 10
473.437159542
 20
344.4520714835
 10
473.1030561616
 20
343.9790499092
 10
472.7330355997
 20
343.5150227684
 10
472.3278221888
 20
343.0608984162
 10
471.8882091533
 20
342.6175658222
 10
471.4150570563
 20
342.1858928308
 10
470.9092921153
 20
341.7667244622
 10
470.3719043888
 20
341.3608812582
 10
469.8039458386
 20
340.9691576758
 10
469.2065282702
 20
340.5923205323
 10
468.5808211566
 20
340.2311075043
 10
467.9280493488
 20
339.8862256831
 10
467.2494906784
 20
339.5583501911
 10
466.5464734556
 20
339.24812286
 10
465.8203738699
 20
338.9561509743
 10
465.0726132952
 20
338.6830060827
 10
464.3046555079
 20
338.4292228793
 10
463.5180038215
 20
338.1952981564
 10
462.7141981436
 20
337.9816898328
 10
461.8948119616
 20
337.7888160567
 10
461.0614492624
 20
337.6170543877
 10
460.2157413927
 20
337.4667410573
 10
459.3593438652
 20
337.3381703108
 10
458.4939331183
 20
337.2315938316
 10
457.6212032343
 20
337.1472202482
 10
456.7428626229
 20
337.0852147256
 10
455.8606306771
 20
337.0456986428
 10
454.9762344073
 20
337.0287493543
 10
454.0914050607
 20
337.034400039
 10
453.2078747324
 20
337.0626396356
 10
452.3273729744
 20
337.1134128637
 10
451.4516234104
 20
337.1866203322
 10
450.5823403611
 20
337.2821187343
 10
449.7212254891
 20
337.3997211271
 10
448.869964467
 20
337.5391972986
 10
448.0302236784
 20
337.7002742176
 10
447.2036469552
 20
337.8826365685
 10
446.3918523602
 20
338.0859273683
 10
445.5964290194
 20
338.3097486659
 10
444.8189340115
 20
338.5536623204
 10
444.0608893193
 20
338.8171908595
 10
443.3237788509
 20
339.0998184136
 10
442.6090455348
 20
339.4009917262
 10
441.9180884949
 20
339.7201212362
 10
441.2522603121
 20
340.0565822326
 10
440.6128643763
 20
340.4097160773
  0
LWPOLYLINE
  5
89
330
1F
100
AcDbEntity
  8
0
  6
Continuous
 62
     7
370
    25
100
AcDbPolyline
 90
       19
 70
   128
 43
0.0
 10
441.3199711575
 20
340.8179201332
 10
440.7224042798
 20
341.1789633884
 10
440.1539220996
 20
341.5553335659
 10
439.6157028831
 20
341.9462505811
 10
439.1088621717
 20
342.3509041987
 10
438.6344504702
 20
342.7684557123
 10
438.1934510694
 20
343.1980396826
 10
437.7867780077
 20
343.6387657313
 10
437.4152741773
 20
344.0897203863
 10
437.0797095766
 20
344.5499689752
 10
436.7807797144
 20
345.0185575626
 10
436.5191041685
 20
345.4945149271
 10
436.2952253014
 20
345.9768545743
 10
436.1096071364
 20
346.4645767816
 10
435.9626343953
 20
346.9566706703
 10
435.8546117017
 20
347.4521163007
 10
435.785762949
 20
347.949886786
 10
435.7562308369
 20
348.448950421
 10
435.755
 20
348.5737971955
  0
LWPOLYLINE
  5
8A
330
1F
100
AcDbEntity
  8
0
  6
Continuous
 62
     7
370
    25
100
AcDbPolyline
 90
       55
 70
   128
 43
0.0
 10
474.755
 20
346.9407155718
 10
474.753776346
 20
346.812999667
 10
474.7244161358
 20
346.3024485678
 10
474.6559648558
 20
345.7931469062
 10
474.5485565025
 20
345.2860916642
 10
474.4024013329
 20
344.7822754262
 10
474.2177854525
 20
344.2826844362
 10
473.9950702557
 20
343.7882966669
 10
473.7346917177
 20
343.3000799057
 10
473.437159542
 20
342.8189898597
 10
473.1030561616
 20
342.3459682854
 10
472.7330355997
 20
341.8819411447
 10
472.3278221888
 20
341.4278167924
 10
471.8882091533
 20
340.9844841984
 10
471.4150570563
 20
340.5528112071
 10
470.9092921153
 20
340.1336428385
 10
470.3719043888
 20
339.7277996344
 10
469.8039458386
 20
339.336076052
 10
469.2065282702
 20
338.9592389086
 10
468.5808211566
 20
338.5980258805
 10
467.9280493488
 20
338.2531440593
 10
467.2494906784
 20
337.9252685673
 10
466.5464734556
 20
337.6150412362
 10
465.8203738699
 20
337.3230693505
 10
465.0726132952
 20
337.049924459
 10
464.3046555079
 20
336.7961412555
 10
463.5180038215
 20
336.5622165326
 10
462.7141981436
 20
336.348608209
 10
461.8948119616
 20
336.155734433
 10
461.0614492624
 20
335.983972764
 10
460.2157413927
 20
335.8336594335
 10
459.3593438652
 20
335.7050886871
 10
458.4939331183
 20
335.5985122079
 10
457.6212032343
 20
335.5141386244
 10
456.7428626229
 20
335.4521331019
 10
455.8606306771
 20
335.412617019
 10
454.9762344073
 20
335.3956677305
 10
454.0914050607
 20
335.4013184152
 10
453.2078747324
 20
335.4295580118
 10
452.3273729744
 20
335.4803312399
 10
451.4516234104
 20
335.5535387085
 10
450.5823403611
 20
335.6490371105
 10
449.7212254891
 20
335.7666395034
 10
448.869964467
 20
335.9061156749
 10
448.0302236784
 20
336.0671925939
 10
447.2036469552
 20
336.2495549447
 10
446.3918523602
 20
336.4528457446
 10
445.5964290194
 20
336.6766670421
 10
444.8189340115
 20
336.9205806966
 10
444.0608893193
 20
337.1841092357
 10
443.3237788509
 20
337.4667367899
 10
442.6090455348
 20
337.7679101024
 10
441.9180884949
 20
338.0870396124
 10
441.2522603121
 20
338.4235006088
 10
440.6128643763
 20
338.7766344535
  0
ARC
  5
8B
330
1F
100
AcDbEntity
  8
0
  6
Continuous
 62
     7
370
    25
100
AcDbCircle
 10
461.3699434385
 20
345.219723433
 30
0.0
 40
8.801278482813919
100
AcDbArc
 50
24.5747527449
 51
63.0295027945
  0
LWPOLYLINE
  5
8C
330
1F
100
AcDbEntity
  8
0
  6
Continuous
 62
     7
370
    25
100
AcDbPolyline
 90
       19
 70
   128
 43
0.0
 10
440.6128643763
 20
338.7766344535
 10
440.0011523351
 20
339.1457498704
 10
439.4183216435
 20
339.5301242987
 10
438.8655132201
 20
339.9290053074
 10
438.3438092132
 20
340.3416120683
 10
437.8542308829
 20
340.7671368841
 10
437.3977366019
 20
341.2047467701
 10
436.975219979
 20
341.6535850844
 10
436.5875081105
 20
342.112773205
 10
436.2353599605
 20
342.5814122494
 10
435.9194648755
 20
343.0585848348
 10
435.6404412351
 20
343.5433568734
 10
435.3988352411
 20
344.0347794012
 10
435.1951198486
 20
344.5318904355
 10
435.02969384
 20
345.0337168582
 10
434.9028810445
 20
345.5392763204
 10
434.8149297041
 20
346.0475791657
 10
434.7660119877
 20
346.5576303675
 10
434.755
 20
346.9407155718
  0
LWPOLYLINE
  5
8D
330
1F
100
AcDbEntity
  8
0
  6
Continuous
 62
     7
370
    25
100
AcDbPolyline
 90
       43
 70
   128
 43
0.0
 10
440.1360026895
 20
348.88
 10
440.2016029803
 20
349.0379975544
 10
440.4079214115
 20
349.4677153646
 10
440.6522857159
 20
349.8907320256
 10
440.9340478833
 20
350.3059257733
 10
441.2524607312
 20
350.7121955886
 10
441.6066798859
 20
351.1084641168
 10
441.9957660218
 20
351.4936805251
 10
442.4186873525
 20
351.8668232888
 10
442.8743223667
 20
352.2269029004
 10
443.3614628021
 20
352.5729644936
 10
443.87881685
 20
352.9040903751
 10
444.4250125804
 20
353.2194024586
 10
444.9986015805
 20
353.5180645933
 10
445.5980627952
 20
353.7992847807
 10
446.2218065612
 20
354.0623172756
 10
446.8681788223
 20
354.306464563
 10
447.5354655153
 20
354.5310792082
 10
448.2218971159
 20
354.7355655736
 10
448.9256533309
 20
354.919381398
 10
449.6448679253
 20
355.082039235
 10
450.3776336713
 20
355.2231077452
 10
451.122007406
 20
355.3422128403
 10
451.8760151838
 20
355.439038675
 10
452.6376575119
 20
355.5133284845
 10
453.4049146516
 20
355.5648852657
 10
454.1757519749
 20
355.5935722992
 10
454.9481253599
 20
355.5993135122
 10
455.7199866111
 20
355.58209368
 10
456.4892888914
 20
355.5419584665
 10
457.2539921492
 20
355.4790143031
 10
458.0120685291
 20
355.3934281064
 10
458.7615077488
 20
355.2854268356
 10
459.5003224302
 20
355.1552968907
 10
460.2265533696
 20
355.0033833528
 10
460.9382747331
 20
354.8300890694
 10
461.6335991635
 20
354.6358735858
 10
462.3106827855
 20
354.4212519264
 10
462.9677300951
 20
354.1867932295
 10
463.6029987208
 20
353.9331192371
 10
464.2148040445
 20
353.6609026473
 10
464.8015236685
 20
353.3708653295
 10
465.3616017178
 20
353.0637764104
  0
LWPOLYLINE
  5
8E
330
1F
100
AcDbEntity
  8
0
  6
HIDDEN
 62
     7
370
    18
100
AcDbPolyline
 90
       19
 70
   128
 43
0.0
 10
468.1900288425
 20
356.3296742579
 10
468.7875957202
 20
355.9686310027
 10
469.3560779004
 20
355.5922608251
 10
469.8942971169
 20
355.20134381
 10
470.4011378283
 20
354.7966901924
 10
470.8755495298
 20
354.3791386788
 10
471.3165489306
 20
353.9495547085
 10
471.7232219923
 20
353.5088286598
 10
472.0947258227
 20
353.0578740048
 10
472.4302904234
 20
352.5976254158
 10
472.7292202856
 20
352.1290368284
 10
472.9908958315
 20
351.653079464
 10
473.2147746986
 20
351.1707398168
 10
473.4003928636
 20
350.6830176095
 10
473.5473656047
 20
350.1909237208
 10
473.6553882983
 20
349.6954780904
 10
473.724237051
 20
349.1977076051
 10
473.7537691631
 20
348.6986439701
 10
473.755
 20
348.5737971955
  0
LWPOLYLINE
  5
8F
330
1F
100
AcDbEntity
  8
0
  6
HIDDEN
 62
     7
370
    18
100
AcDbPolyline
 90
       47
 70
   128
 43
0.0
 10
436.0043947948
 20
352.5906082573
 10
436.072840458
 20
352.6955229076
 10
436.4069438384
 20
353.1685444819
 10
436.7769644003
 20
353.6325716227
 10
437.1821778112
 20
354.0866959749
 10
437.6217908467
 20
354.5300285689
 10
438.0949429437
 20
354.9617015603
 10
438.6007078847
 20
355.3808699289
 10
439.1380956112
 20
355.7867131329
 10
439.7060541614
 20
356.1784367153
 10
440.3034717298
 20
356.5552738588
 10
440.9291788434
 20
356.9164868868
 10
441.5819506512
 20
357.261368708
 10
442.2605093216
 20
357.5892442
 10
442.9635265444
 20
357.8994715311
 10
443.6896261301
 20
358.1914434168
 10
444.4373867048
 20
358.4645883083
 10
445.2053444921
 20
358.7183715118
 10
445.9919961785
 20
358.9522962347
 10
446.7958018564
 20
359.1659045583
 10
447.6151880384
 20
359.3587783344
 10
448.4485507376
 20
359.5305400034
 10
449.2942586073
 20
359.6808533338
 10
450.1506561348
 20
359.8094240802
 10
451.0160668817
 20
359.9160005594
 10
451.8887967657
 20
360.0003741429
 10
452.7671373771
 20
360.0623796655
 10
453.6493693229
 20
360.1018957483
 10
454.5337655927
 20
360.1188450368
 10
455.4185949393
 20
360.1131943521
 10
456.3021252676
 20
360.0849547555
 10
457.1826270256
 20
360.0341815274
 10
458.0583765896
 20
359.9609740589
 10
458.9276596389
 20
359.8654756568
 10
459.7887745109
 20
359.747873264
 10
460.640035533
 20
359.6083970924
 10
461.4797763216
 20
359.4473201734
 10
462.3063530448
 20
359.2649578226
 10
463.1181476398
 20
359.0616670228
 10
463.9135709806
 20
358.8378457252
 10
464.6910659885
 20
358.5939320707
 10
465.4491106807
 20
358.3304035316
 10
466.1862211491
 20
358.0477759774
 10
466.9009544652
 20
357.7466026649
 10
467.5919115051
 20
357.4274731549
 10
468.2577396879
 20
357.0910121585
 10
468.8971356237
 20
356.7378783138
  0
ARC
  5
90
330
1F
100
AcDbEntity
  8
0
  6
HIDDEN
 62
     7
370
    18
100
AcDbCircle
 10
462.5952149465
 20
345.1010354048
 30
0.0
 40
13.23368116247719
100
AcDbArc
 50
34.4681347398
 51
61.5622839473
  0
LWPOLYLINE
  5
91
330
1F
100
AcDbEntity
  8
0
  6
HIDDEN
 62
     7
370
    18
100
AcDbPolyline
 90
       53
 70
   128
 43
0.0
 10
435.755
 20
348.5737971955
 10
435.766076575
 20
348.9482728199
 10
435.8152797567
 20
349.4468190609
 10
435.9037384009
 20
349.9435558308
 10
436.0312691634
 20
350.4374535668
 10
436.1976077173
 20
350.9274885903
 10
436.4024093005
 20
351.412645229
 10
436.6452494305
 20
351.8919179216
 10
436.9256247841
 20
352.3643133023
 10
437.2429542404
 20
352.8288522596
 10
437.5965800858
 20
353.2845719654
 10
437.9857693767
 20
353.7305278712
 10
438.4097154588
 20
354.1657956652
 10
438.8675396392
 20
354.5894731885
 10
439.3582930072
 20
355.0006823046
 10
439.8809584017
 20
355.3985707198
 10
440.4344525188
 20
355.7823137498
 10
441.0176281573
 20
356.1511160284
 10
441.6292765968
 20
356.5042131567
 10
442.2681301025
 20
356.8408732868
 10
442.9328645528
 20
357.1603986393
 10
443.6221021841
 20
357.4621269491
 10
444.3344144463
 20
357.7454328381
 10
445.0683249633
 20
358.0097291117
 10
445.8223125935
 20
358.2544679755
 10
446.5948145824
 20
358.4791421708
 10
447.3842298018
 20
358.683286026
 10
448.1889220679
 20
358.8664764219
 10
449.0072235333
 20
359.0283336682
 10
449.8374381431
 20
359.1685222913
 10
450.6778451507
 20
359.2867517287
 10
451.5267026845
 20
359.3827769319
 10
452.3822513573
 20
359.456398874
 10
453.2427179141
 20
359.5074649623
 10
454.1063189065
 20
359.5358693545
 10
454.9712643894
 20
359.5415531782
 10
455.8357616314
 20
359.5245046527
 10
456.6980188299
 20
359.4847591138
 10
457.5562488251
 20
359.4223989401
 10
458.4086728044
 20
359.3375533827
 10
459.2535239889
 20
359.2303982969
 10
460.0890512954
 20
359.101155778
 10
460.9135229661
 20
358.9500937008
 10
461.7252301574
 20
358.7775251645
 10
462.5224904824
 20
358.5838078439
 10
463.3036514972
 20
358.3693432476
 10
464.0670941264
 20
358.1345758863
 10
464.8112360184
 20
357.8799923511
 10
465.5345348257
 20
357.6061203054
 10
466.2354914009
 20
357.3135273907
 10
466.9126529045
 20
357.0028200506
 10
467.564615816
 20
356.6746422735
 10
468.1900288425
 20
356.3296742579
  0
LWPOLYLINE
  5
92
330
1F
100
AcDbEntity
  8
0
  6
HIDDEN
 62
     7
370
    18
100
AcDbPolyline
 90
       19
 70
   128
 43
0.0
 10
468.8971356237
 20
355.10479669
 10
469.5088476649
 20
354.7356812731
 10
470.0916783565
 20
354.3513068448
 10
470.6444867799
 20
353.9524258361
 10
471.1661907868
 20
353.5398190753
 10
471.6557691171
 20
353.1142942594
 10
472.1122633981
 20
352.6766843734
 10
472.534780021
 20
352.2278460591
 10
472.9224918895
 20
351.7686579386
 10
473.2746400395
 20
351.3000188942
 10
473.5905351245
 20
350.8228463088
 10
473.8695587649
 20
350.3380742701
 10
474.1111647589
 20
349.8466517423
 10
474.3148801514
 20
349.349540708
 10
474.48030616
 20
348.8477142853
 10
474.6071189555
 20
348.3421548232
 10
474.6950702959
 20
347.8338519778
 10
474.7439880123
 20
347.323800776
 10
474.755
 20
346.9407155718
  0
LWPOLYLINE
  5
93
330
1F
100
AcDbEntity
  8
0
  6
HIDDEN
 62
     7
370
    18
100
AcDbPolyline
 90
       52
 70
   128
 43
0.0
 10
469.3739973105
 20
348.88
 10
469.3971140754
 20
348.8209812111
 10
469.5453697803
 20
348.3833530321
 10
469.6544040834
 20
347.941899238
 10
469.7239278454
 20
347.4977904847
 10
469.7537567017
 20
347.0522044689
 10
469.7438115515
 20
346.6063228047
 10
469.6941187676
 20
346.1613278899
 10
469.6048101263
 20
345.7183997711
 10
469.4761224582
 20
345.2787130141
 10
469.3083970197
 20
344.8434335891
 10
469.1020785885
 20
344.4137157789
 10
468.8577142841
 20
343.9906991179
 10
468.5759521167
 20
343.5755053702
 10
468.2575392688
 20
343.169235555
 10
467.9033201141
 20
342.7729670268
 10
467.5142339782
 20
342.3877506185
 10
467.0913126475
 20
342.0146078547
 10
466.6356776333
 20
341.6545282431
 10
466.1485371979
 20
341.30846665
 10
465.63118315
 20
340.9773407685
 10
465.0849874196
 20
340.6620286849
 10
464.5113984195
 20
340.3633665503
 10
463.9119372048
 20
340.0821463628
 10
463.2881934388
 20
339.8191138679
 10
462.6418211777
 20
339.5749665805
 10
461.9745344847
 20
339.3503519353
 10
461.2881028841
 20
339.1458655699
 10
460.5843466691
 20
338.9620497455
 10
459.8651320747
 20
338.7993919085
 10
459.1323663287
 20
338.6583233983
 10
458.387992594
 20
338.5392183032
 10
457.6339848162
 20
338.4423924686
 10
456.8723424881
 20
338.368102659
 10
456.1050853484
 20
338.3165458779
 10
455.3342480251
 20
338.2878588443
 10
454.5618746401
 20
338.2821176313
 10
453.7900133889
 20
338.2993374635
 10
453.0207111086
 20
338.339472677
 10
452.2560078508
 20
338.4024168404
 10
451.4979314709
 20
338.4880030371
 10
450.7484922512
 20
338.5960043079
 10
450.0096775698
 20
338.7261342528
 10
449.2834466304
 20
338.8780477907
 10
448.5717252669
 20
339.0513420741
 10
447.8764008365
 20
339.2455575578
 10
447.1993172145
 20
339.4601792171
 10
446.5422699049
 20
339.6946379141
 10
445.9070012792
 20
339.9483119064
 10
445.2951959555
 20
340.2205284962
 10
444.7084763315
 20
340.510565814
 10
444.1483982822
 20
340.8176547331
  0
LWPOLYLINE
  5
94
330
1F
100
AcDbEntity
  8
0
  6
HIDDEN
 62
     7
370
    18
100
AcDbPolyline
 90
       55
 70
   128
 43
0.0
 10
434.755
 20
346.9407155718
 10
434.756223654
 20
347.0684314766
 10
434.7855838642
 20
347.5789825758
 10
434.8540351442
 20
348.0882842373
 10
434.9614434975
 20
348.5953394793
 10
435.1075986671
 20
349.0991557173
 10
435.2922145475
 20
349.5987467074
 10
435.5149297443
 20
350.0931344766
 10
435.7753082823
 20
350.5813512379
 10
436.072840458
 20
351.0624412838
 10
436.4069438384
 20
351.5354628582
 10
436.7769644003
 20
351.9994899989
 10
437.1821778112
 20
352.4536143511
 10
437.6217908467
 20
352.8969469451
 10
438.0949429437
 20
353.3286199365
 10
438.6007078847
 20
353.7477883051
 10
439.1380956112
 20
354.1536315092
 10
439.7060541614
 20
354.5453550916
 10
440.3034717298
 20
354.922192235
 10
440.9291788434
 20
355.283405263
 10
441.5819506512
 20
355.6282870842
 10
442.2605093216
 20
355.9561625762
 10
442.9635265444
 20
356.2663899073
 10
443.6896261301
 20
356.558361793
 10
444.4373867048
 20
356.8315066846
 10
445.2053444921
 20
357.0852898881
 10
445.9919961785
 20
357.3192146109
 10
446.7958018564
 20
357.5328229345
 10
447.6151880384
 20
357.7256967106
 10
448.4485507376
 20
357.8974583796
 10
449.2942586073
 20
358.04777171
 10
450.1506561348
 20
358.1763424565
 10
451.0160668817
 20
358.2829189357
 10
451.8887967657
 20
358.3672925192
 10
452.7671373771
 20
358.4292980417
 10
453.6493693229
 20
358.4688141245
 10
454.5337655927
 20
358.4857634131
 10
455.4185949393
 20
358.4801127283
 10
456.3021252676
 20
358.4518731317
 10
457.1826270256
 20
358.4010999037
 10
458.0583765896
 20
358.3278924351
 10
458.9276596389
 20
358.2323940331
 10
459.7887745109
 20
358.1147916402
 10
460.640035533
 20
357.9753154687
 10
461.4797763216
 20
357.8142385497
 10
462.3063530448
 20
357.6318761988
 10
463.1181476398
 20
357.428585399
 10
463.9135709806
 20
357.2047641015
 10
464.6910659885
 20
356.9608504469
 10
465.4491106807
 20
356.6973219078
 10
466.1862211491
 20
356.4146943537
 10
466.9009544652
 20
356.1135210411
 10
467.5919115051
 20
355.7943915312
 10
468.2577396879
 20
355.4579305347
 10
468.8971356237
 20
355.10479669
  0
LWPOLYLINE
  5
95
330
1F
100
AcDbEntity
  8
0
  6
HIDDEN
 62
     7
370
    18
100
AcDbPolyline
 90
       21
 70
   128
 43
0.0
 10
444.1483982822
 20
340.8176547331
 10
443.6164470339
 20
341.1409809088
 10
443.1140332257
 20
341.4796869381
 10
442.6424891688
 20
341.8328746337
 10
442.203065313
 20
342.1996074052
 10
441.7969269316
 20
342.5789127433
 10
441.4251510306
 20
342.9697847983
 10
441.0887234926
 20
343.3711870479
 10
440.7885364632
 20
343.7820550455
 10
440.5253859844
 20
344.2012992429
 10
440.2999698839
 20
344.62780788
 10
440.1128859246
 20
345.0604499325
 10
439.9646302197
 20
345.4980781114
 10
439.8555959166
 20
345.9395319056
 10
439.7860721546
 20
346.3836406588
 10
439.7562432983
 20
346.8292266746
 10
439.7661884485
 20
347.2751083389
 10
439.8158812324
 20
347.7201032537
 10
439.9051898737
 20
348.1630313724
 10
440.0338775418
 20
348.6027181294
 10
440.1360026895
 20
348.88
  0
LINE
  5
96
330
1F
100
AcDbEntity
  8
0
  6
HIDDEN
 62
     7
370
    18
100
AcDbLine
 10
469.755
 20
346.9407155718
 30
0.0
 11
469.755
 21
350.8192844282
 31
0.0
  0
LINE
  5
97
330
1F
100
AcDbEntity
  8
0
  6
HIDDEN
 62
     7
370
    18
100
AcDbLine
 10
439.755
 20
350.8192844282
 30
0.0
 11
439.755
 21
346.9407155718
 31
0.0
  0
ENDSEC
  0
SECTION
  2
OBJECTS
  0
DICTIONARY
  5
C
330
0
100
AcDbDictionary
281
     1
  3
ACAD_GROUP
350
D
  3
ACAD_LAYOUT
350
1A
  3
ACAD_MLINESTYLE
350
17
  3
ACAD_PLOTSETTINGS
350
19
  3
ACAD_PLOTSTYLENAME
350
E
  3
ACAD_SCALELIST
350
47
  3
DWGPROPS
350
98
  0
DICTIONARY
  5
D
102
{ACAD_REACTORS
330
C
102
}
330
C
100
AcDbDictionary
281
     1
  0
DICTIONARY
  5
1A
102
{ACAD_REACTORS
330
C
102
}
330
C
100
AcDbDictionary
281
     1
  3
Layout1
350
1E
  3
Layout2
350
26
  3
Model
350
22
  0
DICTIONARY
  5
17
102
{ACAD_REACTORS
330
C
102
}
330
C
100
AcDbDictionary
281
     1
  3
Standard
350
18
  0
DICTIONARY
  5
19
102
{ACAD_REACTORS
330
C
102
}
330
C
100
AcDbDictionary
281
     1
  0
ACDBDICTIONARYWDFLT
  5
E
102
{ACAD_REACTORS
330
C
102
}
330
C
100
AcDbDictionary
281
     1
  3
Normal
350
F
100
AcDbDictionaryWithDefault
340
F
  0
DICTIONARY
  5
47
102
{ACAD_REACTORS
330
C
102
}
330
C
100
AcDbDictionary
281
     1
  3
A0
350
48
  3
A1
350
49
  3
A2
350
4A
  3
A3
350
4B
  3
A4
350
4C
  3
A5
350
4D
  3
A6
350
4E
  3
A7
350
4F
  3
A8
350
50
  3
A9
350
51
  3
B0
350
52
  3
B1
350
53
  3
B2
350
54
  3
B3
350
55
  3
B4
350
56
  3
B5
350
57
  3
B6
350
58
  0
XRECORD
  5
98
102
{ACAD_REACTORS
330
C
102
}
330
C
100
AcDbXrecord
280
     1
  1
DWGPROPS COOKIE
  2

  3

  4

  6

  7

  8
imaizumi
  9

300
=
301
=
302
=
303
=
304
=
305
=
306
=
307
=
308
=
309
=
 40
0.0
 41
2461263.040883125
 42
2461263.040883484
  1

 90
        0
  0
LAYOUT
  5
1E
102
{ACAD_REACTORS
330
1A
102
}
330
1A
100
AcDbPlotSettings
  1

  2
none_device
  4

  6

 40
0.0
 41
0.0
 42
0.0
 43
0.0
 44
0.0
 45
0.0
 46
0.0
 47
0.0
 48
0.0
 49
0.0
140
0.0
141
0.0
142
1.0
143
1.0
 70
   688
 72
     1
 73
     0
 74
     5
  7

 75
    16
147
1.0
148
0.0
149
0.0
100
AcDbLayout
  1
Layout1
 70
     1
 71
     1
 10
0.0
 20
0.0
 11
420.0
 21
297.0
 12
0.0
 22
0.0
 32
0.0
 14
1.0000000000E+20
 24
1.0000000000E+20
 34
1.0000000000E+20
 15
-1.0000000000E+20
 25
-1.0000000000E+20
 35
-1.0000000000E+20
146
0.0
 13
0.0
 23
0.0
 33
0.0
 16
1.0
 26
0.0
 36
0.0
 17
0.0
 27
1.0
 37
0.0
 76
     0
330
1B
  0
LAYOUT
  5
26
102
{ACAD_REACTORS
330
1A
102
}
330
1A
100
AcDbPlotSettings
  1

  2
none_device
  4

  6

 40
0.0
 41
0.0
 42
0.0
 43
0.0
 44
0.0
 45
0.0
 46
0.0
 47
0.0
 48
0.0
 49
0.0
140
0.0
141
0.0
142
1.0
143
1.0
 70
   688
 72
     1
 73
     0
 74
     5
  7

 75
    16
147
1.0
148
0.0
149
0.0
100
AcDbLayout
  1
Layout2
 70
     1
 71
     2
 10
0.0
 20
0.0
 11
0.0
 21
0.0
 12
0.0
 22
0.0
 32
0.0
 14
0.0
 24
0.0
 34
0.0
 15
0.0
 25
0.0
 35
0.0
146
0.0
 13
0.0
 23
0.0
 33
0.0
 16
1.0
 26
0.0
 36
0.0
 17
0.0
 27
1.0
 37
0.0
 76
     0
330
23
  0
LAYOUT
  5
22
102
{ACAD_REACTORS
330
1A
102
}
330
1A
100
AcDbPlotSettings
  1

  2
none_device
  4
Letter_(8.50_x_11.00_Inches)
  6

 40
6.35
 41
6.35
 42
6.35000508
 43
6.35000508
 44
215.9
 45
279.4
 46
0.0
 47
0.0
 48
0.0
 49
0.0
140
0.0
141
0.0
142
1.0
143
1.0
 70
  1712
 72
     1
 73
     0
 74
     0
  7

 75
     0
147
1.0
148
0.0
149
0.0
100
AcDbLayout
  1
Model
 70
     1
 71
     0
 10
0.0
 20
0.0
 11
841.0
 21
594.0
 12
0.0
 22
0.0
 32
0.0
 14
0.0
 24
0.0
 34
0.0
 15
841.0
 25
594.0
 35
0.0
146
0.0
 13
0.0
 23
0.0
 33
0.0
 16
1.0
 26
0.0
 36
0.0
 17
0.0
 27
1.0
 37
0.0
 76
     0
330
1F
331
29
  0
MLINESTYLE
  5
18
102
{ACAD_REACTORS
330
17
102
}
330
17
100
AcDbMlineStyle
  2
Standard
 70
     0
  3

 62
   256
 51
90.0
 52
90.0
 71
     2
 49
0.5
 62
   256
  6
BYLAYER
 49
-0.5
 62
   256
  6
BYLAYER
  0
ACDBPLACEHOLDER
  5
F
102
{ACAD_REACTORS
330
E
102
}
330
E
  0
SCALE
  5
48
102
{ACAD_REACTORS
330
47
102
}
330
47
100
AcDbScale
 70
     0
300
1:1
140
1.0
141
1.0
290
     1
  0
SCALE
  5
49
102
{ACAD_REACTORS
330
47
102
}
330
47
100
AcDbScale
 70
     0
300
1:2
140
1.0
141
2.0
290
     0
  0
SCALE
  5
4A
102
{ACAD_REACTORS
330
47
102
}
330
47
100
AcDbScale
 70
     0
300
1:4
140
1.0
141
4.0
290
     0
  0
SCALE
  5
4B
102
{ACAD_REACTORS
330
47
102
}
330
47
100
AcDbScale
 70
     0
300
1:5
140
1.0
141
5.0
290
     0
  0
SCALE
  5
4C
102
{ACAD_REACTORS
330
47
102
}
330
47
100
AcDbScale
 70
     0
300
1:8
140
1.0
141
8.0
290
     0
  0
SCALE
  5
4D
102
{ACAD_REACTORS
330
47
102
}
330
47
100
AcDbScale
 70
     0
300
1:10
140
1.0
141
10.0
290
     0
  0
SCALE
  5
4E
102
{ACAD_REACTORS
330
47
102
}
330
47
100
AcDbScale
 70
     0
300
1:16
140
1.0
141
16.0
290
     0
  0
SCALE
  5
4F
102
{ACAD_REACTORS
330
47
102
}
330
47
100
AcDbScale
 70
     0
300
1:20
140
1.0
141
20.0
290
     0
  0
SCALE
  5
50
102
{ACAD_REACTORS
330
47
102
}
330
47
100
AcDbScale
 70
     0
300
1:30
140
1.0
141
30.0
290
     0
  0
SCALE
  5
51
102
{ACAD_REACTORS
330
47
102
}
330
47
100
AcDbScale
 70
     0
300
1:40
140
1.0
141
40.0
290
     0
  0
SCALE
  5
52
102
{ACAD_REACTORS
330
47
102
}
330
47
100
AcDbScale
 70
     0
300
1:50
140
1.0
141
50.0
290
     0
  0
SCALE
  5
53
102
{ACAD_REACTORS
330
47
102
}
330
47
100
AcDbScale
 70
     0
300
1:100
140
1.0
141
100.0
290
     0
  0
SCALE
  5
54
102
{ACAD_REACTORS
330
47
102
}
330
47
100
AcDbScale
 70
     0
300
2:1
140
2.0
141
1.0
290
     0
  0
SCALE
  5
55
102
{ACAD_REACTORS
330
47
102
}
330
47
100
AcDbScale
 70
     0
300
4:1
140
4.0
141
1.0
290
     0
  0
SCALE
  5
56
102
{ACAD_REACTORS
330
47
102
}
330
47
100
AcDbScale
 70
     0
300
8:1
140
8.0
141
1.0
290
     0
  0
SCALE
  5
57
102
{ACAD_REACTORS
330
47
102
}
330
47
100
AcDbScale
 70
     0
300
10:1
140
10.0
141
1.0
290
     0
  0
SCALE
  5
58
102
{ACAD_REACTORS
330
47
102
}
330
47
100
AcDbScale
 70
     0
300
100:1
140
100.0
141
1.0
290
     0
  0
ENDSEC
  0
EOF
