  0
SECTION
  2
HEADER
  9
$ACADVER
  1
AC1015
  9
$ACADMAINTVER
 70
     6
  9
$DWGCODEPAGE
  3
DOS932
  9
$INSBASE
 10
0.0
 20
0.0
 30
0.0
  9
$EXTMIN
 10
0.0
 20
0.0
 30
0.0
  9
$EXTMAX
 10
841.0
 20
594.0
 30
0.0
  9
$LIMMIN
 10
0.0
 20
0.0
  9
$LIMMAX
 10
841.0
 20
594.0
  9
$ORTHOMODE
 70
     0
  9
$REGENMODE
 70
     1
  9
$FILLMODE
 70
     1
  9
$QTEXTMODE
 70
     0
  9
$MIRRTEXT
 70
     1
  9
$LTSCALE
 40
1.0
  9
$ATTMODE
 70
     1
  9
$TEXTSIZE
 40
3.5
  9
$TRACEWID
 40
1.0
  9
$TEXTSTYLE
  7
Standard
  9
$CLAYER
  8
0
  9
$CELTYPE
  6
ByLayer
  9
$CECOLOR
 62
   256
  9
$CELTSCALE
 40
1.0
  9
$DISPSILH
 70
     0
  9
$DIMSCALE
 40
1.0
  9
$DIMASZ
 40
3.302
  9
$DIMEXO
 40
1.0
  9
$DIMDLI
 40
3.75
  9
$DIMRND
 40
0.0
  9
$DIMDLE
 40
0.0
  9
$DIMEXE
 40
1.0
  9
$DIMTP
 40
0.0
  9
$DIMTM
 40
0.0
  9
$DIMTXT
 40
3.5
  9
$DIMCEN
 40
2.5
  9
$DIMTSZ
 40
0.0
  9
$DIMTOL
 70
     0
  9
$DIMLIM
 70
     0
  9
$DIMTIH
 70
     1
  9
$DIMTOH
 70
     1
  9
$DIMSE1
 70
     0
  9
$DIMSE2
 70
     0
  9
$DIMTAD
 70
     1
  9
$DIMZIN
 70
     1
  9
$DIMBLK
  1

  9
$DIMASO
 70
     1
  9
$DIMSHO
 70
     1
  9
$DIMPOST
  1

  9
$DIMAPOST
  1

  9
$DIMALT
 70
     0
  9
$DIMALTD
 70
     3
  9
$DIMALTF
 40
0.0393700787
  9
$DIMLFAC
 40
2.0
  9
$DIMTOFL
 70
     1
  9
$DIMTVP
 40
0.0
  9
$DIMTIX
 70
     0
  9
$DIMSOXD
 70
     0
  9
$DIMSAH
 70
     0
  9
$DIMBLK1
  1

  9
$DIMBLK2
  1

  9
$DIMSTYLE
  2
ISO-25
  9
$DIMCLRD
 70
     0
  9
$DIMCLRE
 70
     0
  9
$DIMCLRT
 70
     0
  9
$DIMTFAC
 40
1.0
  9
$DIMGAP
 40
1.524
  9
$DIMJUST
 70
     0
  9
$DIMSD1
 70
     0
  9
$DIMSD2
 70
     0
  9
$DIMTOLJ
 70
     0
  9
$DIMTZIN
 70
     1
  9
$DIMALTZ
 70
     0
  9
$DIMALTTZ
 70
     0
  9
$DIMUPT
 70
     0
  9
$DIMDEC
 70
     2
  9
$DIMTDEC
 70
     2
  9
$DIMALTU
 70
     2
  9
$DIMALTTD
 70
     3
  9
$DIMTXSTY
  7
Standard
  9
$DIMAUNIT
 70
     0
  9
$DIMADEC
 70
     2
  9
$DIMALTRND
 40
0.0
  9
$DIMAZIN
 70
     0
  9
$DIMDSEP
 70
    44
  9
$DIMATFIT
 70
     3
  9
$DIMFRAC
 70
     0
  9
$DIMLDRBLK
  1

  9
$DIMLUNIT
 70
     2
  9
$DIMLWD
 70
    -2
  9
$DIMLWE
 70
    -2
  9
$DIMTMOVE
 70
     0
  9
$LUNITS
 70
     2
  9
$LUPREC
 70
     2
  9
$SKETCHINC
 40
1.0
  9
$FILLETRAD
 40
0.0
  9
$AUNITS
 70
     0
  9
$AUPREC
 70
     2
  9
$MENU
  1
.
  9
$ELEVATION
 40
0.0
  9
$PELEVATION
 40
0.0
  9
$THICKNESS
 40
0.0
  9
$LIMCHECK
 70
     0
  9
$CHAMFERA
 40
0.0
  9
$CHAMFERB
 40
0.0
  9
$CHAMFERC
 40
0.0
  9
$CHAMFERD
 40
0.0
  9
$SKPOLY
 70
     0
  9
$TDCREATE
 40
2461263.44053676
  9
$TDUCREATE
 40
2461263.06553676
  9
$TDUPDATE
 40
2461263.44053713
  9
$TDUUPDATE
 40
2461263.06553713
  9
$TDINDWG
 40
0.0000000116
  9
$TDUSRTIMER
 40
0.0000000116
  9
$USRTIMER
 70
     1
  9
$ANGBASE
 50
0.0
  9
$ANGDIR
 70
     0
  9
$PDMODE
 70
     0
  9
$PDSIZE
 40
-1.0
  9
$PLINEWID
 40
0.0
  9
$SPLFRAME
 70
     0
  9
$SPLINETYPE
 70
     6
  9
$SPLINESEGS
 70
     8
  9
$HANDSEED
  5
187
  9
$SURFTAB1
 70
     6
  9
$SURFTAB2
 70
     6
  9
$SURFTYPE
 70
     6
  9
$SURFU
 70
     6
  9
$SURFV
 70
     6
  9
$UCSBASE
  2

  9
$UCSNAME
  2

  9
$UCSORG
 10
0.0
 20
0.0
 30
0.0
  9
$UCSXDIR
 10
1.0
 20
0.0
 30
0.0
  9
$UCSYDIR
 10
0.0
 20
1.0
 30
0.0
  9
$UCSORTHOREF
  2

  9
$UCSORTHOVIEW
 70
     0
  9
$UCSORGTOP
 10
0.0
 20
0.0
 30
0.0
  9
$UCSORGBOTTOM
 10
0.0
 20
0.0
 30
0.0
  9
$UCSORGLEFT
 10
0.0
 20
0.0
 30
0.0
  9
$UCSORGRIGHT
 10
0.0
 20
0.0
 30
0.0
  9
$UCSORGFRONT
 10
0.0
 20
0.0
 30
0.0
  9
$UCSORGBACK
 10
0.0
 20
0.0
 30
0.0
  9
$PUCSBASE
  2

  9
$PUCSNAME
  2

  9
$PUCSORG
 10
0.0
 20
0.0
 30
0.0
  9
$PUCSXDIR
 10
1.0
 20
0.0
 30
0.0
  9
$PUCSYDIR
 10
0.0
 20
1.0
 30
0.0
  9
$PUCSORTHOREF
  2

  9
$PUCSORTHOVIEW
 70
     0
  9
$PUCSORGTOP
 10
0.0
 20
0.0
 30
0.0
  9
$PUCSORGBOTTOM
 10
0.0
 20
0.0
 30
0.0
  9
$PUCSORGLEFT
 10
0.0
 20
0.0
 30
0.0
  9
$PUCSORGRIGHT
 10
0.0
 20
0.0
 30
0.0
  9
$PUCSORGFRONT
 10
0.0
 20
0.0
 30
0.0
  9
$PUCSORGBACK
 10
0.0
 20
0.0
 30
0.0
  9
$USERI1
 70
     0
  9
$USERI2
 70
     0
  9
$USERI3
 70
     0
  9
$USERI4
 70
     0
  9
$USERI5
 70
     0
  9
$USERR1
 40
0.0
  9
$USERR2
 40
0.0
  9
$USERR3
 40
0.0
  9
$USERR4
 40
0.0
  9
$USERR5
 40
0.0
  9
$WORLDVIEW
 70
     1
  9
$SHADEDGE
 70
     3
  9
$SHADEDIF
 70
    70
  9
$TILEMODE
 70
     1
  9
$MAXACTVP
 70
    64
  9
$PINSBASE
 10
0.0
 20
0.0
 30
0.0
  9
$PLIMCHECK
 70
     0
  9
$PEXTMIN
 10
1.0000000000E+20
 20
1.0000000000E+20
 30
1.0000000000E+20
  9
$PEXTMAX
 10
-1.0000000000E+20
 20
-1.0000000000E+20
 30
-1.0000000000E+20
  9
$PLIMMIN
 10
0.0
 20
0.0
  9
$PLIMMAX
 10
420.0
 20
297.0
  9
$UNITMODE
 70
     0
  9
$VISRETAIN
 70
     1
  9
$PLINEGEN
 70
     0
  9
$PSLTSCALE
 70
     1
  9
$TREEDEPTH
 70
  3020
  9
$CMLSTYLE
  2
Standard
  9
$CMLJUST
 70
     0
  9
$CMLSCALE
 40
20.0
  9
$PROXYGRAPHICS
 70
     1
  9
$MEASUREMENT
 70
     1
  9
$CELWEIGHT
370
    -1
  9
$ENDCAPS
280
     0
  9
$JOINSTYLE
280
     0
  9
$LWDISPLAY
290
     1
  9
$INSUNITS
 70
     4
  9
$HYPERLINKBASE
  1

  9
$STYLESHEET
  1

  9
$XEDIT
290
     1
  9
$CEPSNTYPE
380
     0
  9
$PSTYLEMODE
290
     1
  9
$FINGERPRINTGUID
  2
{fecb46a8-b2c5-4ed3-b423-9d2216cea833}
  9
$VERSIONGUID
  2
{FAEB1C32-E019-11D5-929B-00C0DF256EC4}
  9
$EXTNAMES
290
     1
  9
$PSVPSCALE
 40
0.0
  9
$OLESTARTUP
290
     0
  0
ENDSEC
  0
SECTION
  2
CLASSES
  0
CLASS
  1
ACDBDICTIONARYWDFLT
  2
AcDbDictionaryWithDefault
  3
ObjectDBX Classes
 90
        0
280
     0
281
     0
  0
CLASS
  1
VISUALSTYLE
  2
AcDbVisualStyle
  3
ObjectDBX Classes
 90
     4095
280
     0
281
     0
  0
CLASS
  1
MATERIAL
  2
AcDbMaterial
  3
ObjectDBX Classes
 90
     1153
280
     0
281
     0
  0
CLASS
  1
SCALE
  2
AcDbScale
  3
ObjectDBX Classes
 90
     1153
280
     0
281
     0
  0
CLASS
  1
TABLESTYLE
  2
AcDbTableStyle
  3
ObjectDBX Classes
 90
     4095
280
     0
281
     0
  0
CLASS
  1
MLEADERSTYLE
  2
AcDbMLeaderStyle
  3
ACDB_MLEADERSTYLE_CLASS
 90
     4095
280
     0
281
     0
  0
CLASS
  1
SUN
  2
AcDbSun
  3
SCENEOE
 90
     1153
280
     0
281
     0
  0
CLASS
  1
ACDBPLACEHOLDER
  2
AcDbPlaceHolder
  3
ObjectDBX Classes
 90
        0
280
     0
281
     0
  0
CLASS
  1
LAYOUT
  2
AcDbLayout
  3
ObjectDBX Classes
 90
        0
280
     0
281
     0
  0
ENDSEC
  0
SECTION
  2
TABLES
  0
TABLE
  2
VPORT
  5
8
330
0
100
AcDbSymbolTable
 70
     1
  0
VPORT
  5
29
330
8
100
AcDbSymbolTableRecord
100
AcDbViewportTableRecord
  2
*Active
 70
     0
 10
0.0
 20
0.0
 11
1.0
 21
1.0
 12
420.5
 22
297.0
 13
0.0
 23
0.0
 14
10.0
 24
10.0
 15
10.0
 25
10.0
 16
0.0
 26
0.0
 36
1.0
 17
0.0
 27
0.0
 37
0.0
 40
594.0
 41
1.4158249158
 42
50.0
 43
0.0
 44
0.0
 50
0.0
 51
0.0
 71
     0
 72
  2000
 73
     1
 74
     3
 75
     0
 76
     0
 77
     0
 78
     0
281
     0
 65
     1
110
0.0
120
0.0
130
0.0
111
1.0
121
0.0
131
0.0
112
0.0
122
1.0
132
0.0
 79
     0
146
0.0
  0
ENDTAB
  0
TABLE
  2
LTYPE
  5
5
330
0
100
AcDbSymbolTable
 70
     6
  0
LTYPE
  5
14
330
5
100
AcDbSymbolTableRecord
100
AcDbLinetypeTableRecord
  2
ByBlock
 70
     0
  3

 72
    65
 73
     0
 40
0.0
  0
LTYPE
  5
15
330
5
100
AcDbSymbolTableRecord
100
AcDbLinetypeTableRecord
  2
ByLayer
 70
     0
  3

 72
    65
 73
     0
 40
0.0
  0
LTYPE
  5
16
330
5
100
AcDbSymbolTableRecord
100
AcDbLinetypeTableRecord
  2
Continuous
 70
     0
  3
Solid line
 72
    65
 73
     0
 40
0.0
  0
LTYPE
  5
5E
330
5
100
AcDbSymbolTableRecord
100
AcDbLinetypeTableRecord
  2
HIDDEN
 70
     0
  3
Hidden __ __ __ __ __ __ __ __ __ __ __ __ __ __
 72
    65
 73
     2
 40
1.905
 49
1.27
 74
     0
 49
-0.635
 74
     0
  0
LTYPE
  5
5F
330
5
100
AcDbSymbolTableRecord
100
AcDbLinetypeTableRecord
  2
PHANTOM
 70
     0
  3
Phantom ______  __  __  ______  __  __  ______
 72
    65
 73
     6
 40
12.7
 49
6.35
 74
     0
 49
-1.27
 74
     0
 49
1.27
 74
     0
 49
-1.27
 74
     0
 49
1.27
 74
     0
 49
-1.27
 74
     0
  0
LTYPE
  5
60
330
5
100
AcDbSymbolTableRecord
100
AcDbLinetypeTableRecord
  2
CENTER
 70
     0
  3
Center ____ _ ____ _ ____ _ ____ _ ____ _ ____
 72
    65
 73
     4
 40
10.16
 49
6.35
 74
     0
 49
-1.27
 74
     0
 49
1.27
 74
     0
 49
-1.27
 74
     0
  0
LTYPE
  5
61
330
5
100
AcDbSymbolTableRecord
100
AcDbLinetypeTableRecord
  2
CENTERX2
 70
     0
  3
Center (2x) ________  __  ________  __  _____
 72
    65
 73
     4
 40
20.32
 49
12.7
 74
     0
 49
-2.54
 74
     0
 49
2.54
 74
     0
 49
-2.54
 74
     0
  0
LTYPE
  5
62
330
5
100
AcDbSymbolTableRecord
100
AcDbLinetypeTableRecord
  2
DOT2
 70
     0
  3
Dot (.5x) ........................................
 72
    65
 73
     2
 40
0.635
 49
0.0
 74
     0
 49
-0.635
 74
     0
  0
ENDTAB
  0
TABLE
  2
LAYER
  5
2
330
0
100
AcDbSymbolTable
 70
     1
  0
LAYER
  5
10
330
2
100
AcDbSymbolTableRecord
100
AcDbLayerTableRecord
  2
0
 70
     0
 62
     7
  6
Continuous
370
    -3
390
F
  0
ENDTAB
  0
TABLE
  2
STYLE
  5
3
330
0
100
AcDbSymbolTable
 70
     1
  0
STYLE
  5
11
330
3
100
AcDbSymbolTableRecord
100
AcDbTextStyleTableRecord
  2
Standard
 70
     0
 40
0.0
 41
1.0
 50
0.0
 71
     0
 42
3.5
  3
txt
  4
bigfont
  0
ENDTAB
  0
TABLE
  2
VIEW
  5
6
330
0
100
AcDbSymbolTable
 70
     0
  0
ENDTAB
  0
TABLE
  2
UCS
  5
7
330
0
100
AcDbSymbolTable
 70
     0
  0
ENDTAB
  0
TABLE
  2
APPID
  5
9
330
0
100
AcDbSymbolTable
 70
     1
  0
APPID
  5
12
330
9
100
AcDbSymbolTableRecord
100
AcDbRegAppTableRecord
  2
ACAD
 70
     0
  0
ENDTAB
  0
TABLE
  2
DIMSTYLE
  5
A
330
0
100
AcDbSymbolTable
 70
     1
100
AcDbDimStyleTable
  0
DIMSTYLE
105
27
330
A
100
AcDbSymbolTableRecord
100
AcDbDimStyleTableRecord
  2
ISO-25
 70
     0
 41
2.5
 42
0.625
 43
3.75
 44
1.25
 73
     0
 74
     0
 77
     1
 78
     8
140
2.5
141
2.5
143
0.0393700787
147
0.625
171
     3
172
     1
178
     0
271
     2
272
     2
274
     3
278
    44
283
     0
284
     8
340
11
  0
ENDTAB
  0
TABLE
  2
BLOCK_RECORD
  5
1
330
0
100
AcDbSymbolTable
 70
     1
  0
BLOCK_RECORD
  5
1F
330
1
100
AcDbSymbolTableRecord
100
AcDbBlockTableRecord
  2
*Model_Space
340
22
  0
BLOCK_RECORD
  5
1B
330
1
100
AcDbSymbolTableRecord
100
AcDbBlockTableRecord
  2
*Paper_Space
340
1E
  0
BLOCK_RECORD
  5
23
330
1
100
AcDbSymbolTableRecord
100
AcDbBlockTableRecord
  2
*Paper_Space0
340
26
  0
ENDTAB
  0
ENDSEC
  0
SECTION
  2
BLOCKS
  0
BLOCK
  5
20
330
1F
100
AcDbEntity
  8
0
100
AcDbBlockBegin
  2
*Model_Space
 70
     0
 10
0.0
 20
0.0
 30
0.0
  3
*Model_Space
  1

  0
ENDBLK
  5
21
330
1F
100
AcDbEntity
  8
0
100
AcDbBlockEnd
  0
BLOCK
  5
1C
330
1B
100
AcDbEntity
 67
     1
  8
0
100
AcDbBlockBegin
  2
*Paper_Space
 70
     0
 10
0.0
 20
0.0
 30
0.0
  3
*Paper_Space
  1

  0
ENDBLK
  5
1D
330
1B
100
AcDbEntity
 67
     1
  8
0
100
AcDbBlockEnd
  0
BLOCK
  5
24
330
23
100
AcDbEntity
  8
0
100
AcDbBlockBegin
  2
*Paper_Space0
 70
     0
 10
0.0
 20
0.0
 30
0.0
  3
*Paper_Space0
  1

  0
ENDBLK
  5
25
330
23
100
AcDbEntity
  8
0
100
AcDbBlockEnd
  0
ENDSEC
  0
SECTION
  2
ENTITIES
  0
ARC
  5
63
330
1F
100
AcDbEntity
  8
0
  6
Continuous
 62
     7
370
    25
100
AcDbCircle
 10
220.6821394682
 20
151.4324500774
 30
0.0
 40
109.55
100
AcDbArc
 50
0.0
 51
180.0
  0
ARC
  5
64
330
1F
100
AcDbEntity
  8
0
  6
Continuous
 62
     7
370
    25
100
AcDbCircle
 10
220.6821394682
 20
151.4324500774
 30
0.0
 40
109.55
100
AcDbArc
 50
180.0
 51
0.0
  0
ARC
  5
65
330
1F
100
AcDbEntity
  8
0
  6
Continuous
 62
     7
370
    25
100
AcDbCircle
 10
220.6821394682
 20
151.4324500774
 30
0.0
 40
96.00000000000003
100
AcDbArc
 50
0.0
 51
180.0
  0
ARC
  5
66
330
1F
100
AcDbEntity
  8
0
  6
Continuous
 62
     7
370
    25
100
AcDbCircle
 10
220.6821394682
 20
151.4324500774
 30
0.0
 40
96.00000000000003
100
AcDbArc
 50
180.0
 51
0.0
  0
ARC
  5
67
330
1F
100
AcDbEntity
  8
0
  6
Continuous
 62
     7
370
    25
100
AcDbCircle
 10
117.6821394682
 20
151.4324500774
 30
0.0
 40
4.0
100
AcDbArc
 50
180.0
 51
0.0
  0
ARC
  5
68
330
1F
100
AcDbEntity
  8
0
  6
Continuous
 62
     7
370
    25
100
AcDbCircle
 10
117.6821394682
 20
151.4324500774
 30
0.0
 40
4.0
100
AcDbArc
 50
0.0
 51
180.0
  0
ARC
  5
69
330
1F
100
AcDbEntity
  8
0
  6
Continuous
 62
     7
370
    25
100
AcDbCircle
 10
147.850141006
 20
224.2644485396
 30
0.0
 40
4.0
100
AcDbArc
 50
180.0
 51
0.0
  0
ARC
  5
6A
330
1F
100
AcDbEntity
  8
0
  6
Continuous
 62
     7
370
    25
100
AcDbCircle
 10
147.850141006
 20
224.2644485396
 30
0.0
 40
4.0
100
AcDbArc
 50
0.0
 51
180.0
  0
ARC
  5
6B
330
1F
100
AcDbEntity
  8
0
  6
Continuous
 62
     7
370
    25
100
AcDbCircle
 10
220.6821394682
 20
254.4324500774
 30
0.0
 40
4.0
100
AcDbArc
 50
180.0
 51
0.0
  0
ARC
  5
6C
330
1F
100
AcDbEntity
  8
0
  6
Continuous
 62
     7
370
    25
100
AcDbCircle
 10
220.6821394682
 20
254.4324500774
 30
0.0
 40
4.0
100
AcDbArc
 50
0.0
 51
180.0
  0
ARC
  5
6D
330
1F
100
AcDbEntity
  8
0
  6
Continuous
 62
     7
370
    25
100
AcDbCircle
 10
293.5141379304
 20
224.2644485396
 30
0.0
 40
4.000000000000057
100
AcDbArc
 50
180.0
 51
0.0
  0
ARC
  5
6E
330
1F
100
AcDbEntity
  8
0
  6
Continuous
 62
     7
370
    25
100
AcDbCircle
 10
293.5141379304
 20
224.2644485396
 30
0.0
 40
4.000000000000057
100
AcDbArc
 50
0.0
 51
180.0
  0
ARC
  5
6F
330
1F
100
AcDbEntity
  8
0
  6
Continuous
 62
     7
370
    25
100
AcDbCircle
 10
323.6821394682
 20
151.4324500774
 30
0.0
 40
4.0
100
AcDbArc
 50
180.0
 51
0.0
  0
ARC
  5
70
330
1F
100
AcDbEntity
  8
0
  6
Continuous
 62
     7
370
    25
100
AcDbCircle
 10
323.6821394682
 20
151.4324500774
 30
0.0
 40
4.0
100
AcDbArc
 50
0.0
 51
180.0
  0
ARC
  5
71
330
1F
100
AcDbEntity
  8
0
  6
Continuous
 62
     7
370
    25
100
AcDbCircle
 10
293.5141379304
 20
78.6004516152
 30
0.0
 40
4.0
100
AcDbArc
 50
180.0
 51
0.0
  0
ARC
  5
72
330
1F
100
AcDbEntity
  8
0
  6
Continuous
 62
     7
370
    25
100
AcDbCircle
 10
293.5141379304
 20
78.6004516152
 30
0.0
 40
4.0
100
AcDbArc
 50
0.0
 51
180.0
  0
ARC
  5
73
330
1F
100
AcDbEntity
  8
0
  6
Continuous
 62
     7
370
    25
100
AcDbCircle
 10
220.6821394682
 20
48.4324500774
 30
0.0
 40
4.0
100
AcDbArc
 50
180.0
 51
0.0
  0
ARC
  5
74
330
1F
100
AcDbEntity
  8
0
  6
Continuous
 62
     7
370
    25
100
AcDbCircle
 10
220.6821394682
 20
48.4324500774
 30
0.0
 40
4.0
100
AcDbArc
 50
0.0
 51
180.0
  0
ARC
  5
75
330
1F
100
AcDbEntity
  8
0
  6
Continuous
 62
     7
370
    25
100
AcDbCircle
 10
147.850141006
 20
78.6004516152
 30
0.0
 40
4.0
100
AcDbArc
 50
180.0
 51
0.0
  0
ARC
  5
76
330
1F
100
AcDbEntity
  8
0
  6
Continuous
 62
     7
370
    25
100
AcDbCircle
 10
147.850141006
 20
78.6004516152
 30
0.0
 40
4.0
100
AcDbArc
 50
0.0
 51
180.0
  0
ARC
  5
77
330
1F
100
AcDbEntity
  8
0
  6
Continuous
 62
     7
370
    25
100
AcDbCircle
 10
220.6821394682
 20
151.4324500774
 30
0.0
 40
95.00000000000003
100
AcDbArc
 50
180.0
 51
0.0
  0
ARC
  5
78
330
1F
100
AcDbEntity
  8
0
  6
Continuous
 62
     7
370
    25
100
AcDbCircle
 10
220.6821394682
 20
151.4324500774
 30
0.0
 40
95.00000000000003
100
AcDbArc
 50
0.0
 51
180.0
  0
LINE
  5
79
330
1F
100
AcDbEntity
  8
0
  6
Continuous
 62
     7
370
    25
100
AcDbLine
 10
340.6821394682
 20
48.9324500774
 30
0.0
 11
340.6821394682
 21
253.9324500774
 31
0.0
  0
ARC
  5
7A
330
1F
100
AcDbEntity
  8
0
  6
Continuous
 62
     7
370
    25
100
AcDbCircle
 10
325.6821394682
 20
48.9324500774
 30
0.0
 40
15.0
100
AcDbArc
 50
270.0
 51
0.0
  0
LINE
  5
7B
330
1F
100
AcDbEntity
  8
0
  6
Continuous
 62
     7
370
    25
100
AcDbLine
 10
115.6821394682
 20
33.9324500774
 30
0.0
 11
325.6821394682
 21
33.9324500774
 31
0.0
  0
LINE
  5
7C
330
1F
100
AcDbEntity
  8
0
  6
Continuous
 62
     7
370
    25
100
AcDbLine
 10
325.6821394682
 20
268.9324500774
 30
0.0
 11
115.6821394682
 21
268.9324500774
 31
0.0
  0
ARC
  5
7D
330
1F
100
AcDbEntity
  8
0
  6
Continuous
 62
     7
370
    25
100
AcDbCircle
 10
325.6821394682
 20
253.9324500774
 30
0.0
 40
15.0
100
AcDbArc
 50
0.0
 51
90.0
  0
ARC
  5
7E
330
1F
100
AcDbEntity
  8
0
  6
Continuous
 62
     7
370
    25
100
AcDbCircle
 10
315.6821394682
 20
51.4324500774
 30
0.0
 40
8.500000000000007
100
AcDbArc
 50
90.0
 51
180.0
  0
ARC
  5
7F
330
1F
100
AcDbEntity
  8
0
  6
Continuous
 62
     7
370
    25
100
AcDbCircle
 10
315.6821394682
 20
51.4324500774
 30
0.0
 40
8.5
100
AcDbArc
 50
180.0
 51
270.0
  0
LINE
  5
80
330
1F
100
AcDbEntity
  8
0
  6
Continuous
 62
     7
370
    25
100
AcDbLine
 10
315.6821394682
 20
42.9324500774
 30
0.0
 11
325.6821394682
 21
42.9324500774
 31
0.0
  0
ARC
  5
81
330
1F
100
AcDbEntity
  8
0
  6
Continuous
 62
     7
370
    25
100
AcDbCircle
 10
325.6821394682
 20
51.4324500774
 30
0.0
 40
8.500000000000007
100
AcDbArc
 50
270.0
 51
90.0
  0
LINE
  5
82
330
1F
100
AcDbEntity
  8
0
  6
Continuous
 62
     7
370
    25
100
AcDbLine
 10
325.6821394682
 20
59.9324500774
 30
0.0
 11
315.6821394682
 21
59.9324500774
 31
0.0
  0
ARC
  5
83
330
1F
100
AcDbEntity
  8
0
  6
Continuous
 62
     7
370
    25
100
AcDbCircle
 10
315.6821394682
 20
251.4324500774
 30
0.0
 40
8.5
100
AcDbArc
 50
90.0
 51
180.0
  0
ARC
  5
84
330
1F
100
AcDbEntity
  8
0
  6
Continuous
 62
     7
370
    25
100
AcDbCircle
 10
315.6821394682
 20
251.4324500774
 30
0.0
 40
8.5
100
AcDbArc
 50
180.0
 51
270.0
  0
LINE
  5
85
330
1F
100
AcDbEntity
  8
0
  6
Continuous
 62
     7
370
    25
100
AcDbLine
 10
315.6821394682
 20
242.9324500774
 30
0.0
 11
325.6821394682
 21
242.9324500774
 31
0.0
  0
ARC
  5
86
330
1F
100
AcDbEntity
  8
0
  6
Continuous
 62
     7
370
    25
100
AcDbCircle
 10
325.6821394682
 20
251.4324500774
 30
0.0
 40
8.5
100
AcDbArc
 50
270.0
 51
90.0
  0
LINE
  5
87
330
1F
100
AcDbEntity
  8
0
  6
Continuous
 62
     7
370
    25
100
AcDbLine
 10
325.6821394682
 20
259.9324500774
 30
0.0
 11
315.6821394682
 21
259.9324500774
 31
0.0
  0
ARC
  5
88
330
1F
100
AcDbEntity
  8
0
  6
Continuous
 62
     7
370
    25
100
AcDbCircle
 10
115.6821394682
 20
251.4324500774
 30
0.0
 40
8.500000000000014
100
AcDbArc
 50
90.0
 51
180.0
  0
ARC
  5
89
330
1F
100
AcDbEntity
  8
0
  6
Continuous
 62
     7
370
    25
100
AcDbCircle
 10
115.6821394682
 20
251.4324500774
 30
0.0
 40
8.500000000000014
100
AcDbArc
 50
180.0
 51
270.0
  0
LINE
  5
8A
330
1F
100
AcDbEntity
  8
0
  6
Continuous
 62
     7
370
    25
100
AcDbLine
 10
115.6821394682
 20
242.9324500774
 30
0.0
 11
125.6821394682
 21
242.9324500774
 31
0.0
  0
ARC
  5
8B
330
1F
100
AcDbEntity
  8
0
  6
Continuous
 62
     7
370
    25
100
AcDbCircle
 10
125.6821394682
 20
251.4324500774
 30
0.0
 40
8.5
100
AcDbArc
 50
270.0
 51
90.0
  0
LINE
  5
8C
330
1F
100
AcDbEntity
  8
0
  6
Continuous
 62
     7
370
    25
100
AcDbLine
 10
125.6821394682
 20
259.9324500774
 30
0.0
 11
115.6821394682
 21
259.9324500774
 31
0.0
  0
ARC
  5
8D
330
1F
100
AcDbEntity
  8
0
  6
Continuous
 62
     7
370
    25
100
AcDbCircle
 10
115.6821394682
 20
51.4324500774
 30
0.0
 40
8.500000000000014
100
AcDbArc
 50
90.0
 51
180.0
  0
ARC
  5
8E
330
1F
100
AcDbEntity
  8
0
  6
Continuous
 62
     7
370
    25
100
AcDbCircle
 10
115.6821394682
 20
51.4324500774
 30
0.0
 40
8.500000000000014
100
AcDbArc
 50
180.0
 51
270.0
  0
LINE
  5
8F
330
1F
100
AcDbEntity
  8
0
  6
Continuous
 62
     7
370
    25
100
AcDbLine
 10
115.6821394682
 20
42.9324500774
 30
0.0
 11
125.6821394682
 21
42.9324500774
 31
0.0
  0
ARC
  5
90
330
1F
100
AcDbEntity
  8
0
  6
Continuous
 62
     7
370
    25
100
AcDbCircle
 10
125.6821394682
 20
51.4324500774
 30
0.0
 40
8.500000000000007
100
AcDbArc
 50
270.0
 51
90.0
  0
LINE
  5
91
330
1F
100
AcDbEntity
  8
0
  6
Continuous
 62
     7
370
    25
100
AcDbLine
 10
125.6821394682
 20
59.9324500774
 30
0.0
 11
115.6821394682
 21
59.9324500774
 31
0.0
  0
ARC
  5
92
330
1F
100
AcDbEntity
  8
0
  6
Continuous
 62
     7
370
    25
100
AcDbCircle
 10
115.6821394682
 20
48.9324500774
 30
0.0
 40
15.0
100
AcDbArc
 50
180.0
 51
270.0
  0
LINE
  5
93
330
1F
100
AcDbEntity
  8
0
  6
Continuous
 62
     7
370
    25
100
AcDbLine
 10
100.6821394682
 20
253.9324500774
 30
0.0
 11
100.6821394682
 21
48.9324500774
 31
0.0
  0
ARC
  5
94
330
1F
100
AcDbEntity
  8
0
  6
Continuous
 62
     7
370
    25
100
AcDbCircle
 10
115.6821394682
 20
253.9324500774
 30
0.0
 40
15.0
100
AcDbArc
 50
90.0
 51
180.0
  0
ARC
  5
95
330
1F
100
AcDbEntity
  8
0
  6
HIDDEN
 62
     7
370
    18
100
AcDbCircle
 10
220.6821394682
 20
151.4324500774
 30
0.0
 40
100.0
100
AcDbArc
 50
0.0
 51
180.0
  0
ARC
  5
96
330
1F
100
AcDbEntity
  8
0
  6
HIDDEN
 62
     7
370
    18
100
AcDbCircle
 10
220.6821394682
 20
151.4324500774
 30
0.0
 40
100.0
100
AcDbArc
 50
180.0
 51
0.0
  0
LINE
  5
97
330
1F
100
AcDbEntity
  8
0
  6
Continuous
 62
     7
370
    25
100
AcDbLine
 10
115.6821394682
 20
452.88
 30
0.0
 11
100.6821394682
 21
452.88
 31
0.0
  0
LINE
  5
98
330
1F
100
AcDbEntity
  8
0
  6
Continuous
 62
     7
370
    25
100
AcDbLine
 10
100.6821394682
 20
452.88
 30
0.0
 11
100.6821394682
 21
466.88
 31
0.0
  0
LINE
  5
99
330
1F
100
AcDbEntity
  8
0
  6
Continuous
 62
     7
370
    25
100
AcDbLine
 10
115.6821394682
 20
466.88
 30
0.0
 11
100.6821394682
 21
466.88
 31
0.0
  0
LINE
  5
9A
330
1F
100
AcDbEntity
  8
0
  6
Continuous
 62
     7
370
    25
100
AcDbLine
 10
325.6821394682
 20
452.88
 30
0.0
 11
115.6821394682
 21
452.88
 31
0.0
  0
LINE
  5
9B
330
1F
100
AcDbEntity
  8
0
  6
Continuous
 62
     7
370
    25
100
AcDbLine
 10
325.6821394682
 20
466.88
 30
0.0
 11
115.6821394682
 21
466.88
 31
0.0
  0
LINE
  5
9C
330
1F
100
AcDbEntity
  8
0
  6
Continuous
 62
     7
370
    25
100
AcDbLine
 10
340.6821394682
 20
452.88
 30
0.0
 11
340.6821394682
 21
466.88
 31
0.0
  0
LINE
  5
9D
330
1F
100
AcDbEntity
  8
0
  6
Continuous
 62
     7
370
    25
100
AcDbLine
 10
340.6821394682
 20
452.88
 30
0.0
 11
325.6821394682
 21
452.88
 31
0.0
  0
LINE
  5
9E
330
1F
100
AcDbEntity
  8
0
  6
Continuous
 62
     7
370
    25
100
AcDbLine
 10
340.6821394682
 20
466.88
 30
0.0
 11
325.6821394682
 21
466.88
 31
0.0
  0
LINE
  5
9F
330
1F
100
AcDbEntity
  8
0
  6
Continuous
 62
     7
370
    25
100
AcDbLine
 10
111.1321394682
 20
425.88
 30
0.0
 11
111.1321394682
 21
452.88
 31
0.0
  0
LINE
  5
A0
330
1F
100
AcDbEntity
  8
0
  6
Continuous
 62
     7
370
    25
100
AcDbLine
 10
330.2321394682
 20
425.88
 30
0.0
 11
330.2321394682
 21
452.88
 31
0.0
  0
LINE
  5
A1
330
1F
100
AcDbEntity
  8
0
  6
Continuous
 62
     7
370
    25
100
AcDbLine
 10
330.2321394682
 20
425.88
 30
0.0
 11
111.1321394682
 21
425.88
 31
0.0
  0
LINE
  5
A2
330
1F
100
AcDbEntity
  8
0
  6
HIDDEN
 62
     7
370
    18
100
AcDbLine
 10
107.1821394682
 20
452.88
 30
0.0
 11
107.1821394682
 21
466.88
 31
0.0
  0
LINE
  5
A3
330
1F
100
AcDbEntity
  8
0
  6
HIDDEN
 62
     7
370
    18
100
AcDbLine
 10
307.1821394682
 20
452.88
 30
0.0
 11
307.1821394682
 21
466.88
 31
0.0
  0
LINE
  5
A4
330
1F
100
AcDbEntity
  8
0
  6
HIDDEN
 62
     7
370
    18
100
AcDbLine
 10
224.6821394682
 20
440.88
 30
0.0
 11
224.6821394682
 21
425.88
 31
0.0
  0
LINE
  5
A5
330
1F
100
AcDbEntity
  8
0
  6
HIDDEN
 62
     7
370
    18
100
AcDbLine
 10
224.6821394682
 20
440.88
 30
0.0
 11
216.6821394682
 21
440.88
 31
0.0
  0
LINE
  5
A6
330
1F
100
AcDbEntity
  8
0
  6
HIDDEN
 62
     7
370
    18
100
AcDbLine
 10
216.6821394682
 20
440.88
 30
0.0
 11
216.6821394682
 21
425.88
 31
0.0
  0
LINE
  5
A7
330
1F
100
AcDbEntity
  8
0
  6
HIDDEN
 62
     7
370
    18
100
AcDbLine
 10
120.6821394682
 20
452.88
 30
0.0
 11
120.6821394682
 21
466.88
 31
0.0
  0
LINE
  5
A8
330
1F
100
AcDbEntity
  8
0
  6
HIDDEN
 62
     7
370
    18
100
AcDbLine
 10
320.6821394682
 20
452.88
 30
0.0
 11
320.6821394682
 21
466.88
 31
0.0
  0
LINE
  5
A9
330
1F
100
AcDbEntity
  8
0
  6
HIDDEN
 62
     7
370
    18
100
AcDbLine
 10
315.6821394682
 20
426.88
 30
0.0
 11
316.6821394682
 21
425.88
 31
0.0
  0
LINE
  5
AA
330
1F
100
AcDbEntity
  8
0
  6
HIDDEN
 62
     7
370
    18
100
AcDbLine
 10
315.6821394682
 20
426.88
 30
0.0
 11
125.6821394682
 21
426.88
 31
0.0
  0
LINE
  5
AB
330
1F
100
AcDbEntity
  8
0
  6
HIDDEN
 62
     7
370
    18
100
AcDbLine
 10
125.6821394682
 20
426.88
 30
0.0
 11
124.6821394682
 21
425.88
 31
0.0
  0
LINE
  5
AC
330
1F
100
AcDbEntity
  8
0
  6
HIDDEN
 62
     7
370
    18
100
AcDbLine
 10
125.6821394682
 20
426.88
 30
0.0
 11
125.6821394682
 21
452.88
 31
0.0
  0
LINE
  5
AD
330
1F
100
AcDbEntity
  8
0
  6
HIDDEN
 62
     7
370
    18
100
AcDbLine
 10
315.6821394682
 20
426.88
 30
0.0
 11
315.6821394682
 21
452.88
 31
0.0
  0
LINE
  5
AE
330
1F
100
AcDbEntity
  8
0
  6
HIDDEN
 62
     7
370
    18
100
AcDbLine
 10
151.850141006
 20
440.88
 30
0.0
 11
151.850141006
 21
425.88
 31
0.0
  0
LINE
  5
AF
330
1F
100
AcDbEntity
  8
0
  6
HIDDEN
 62
     7
370
    18
100
AcDbLine
 10
151.850141006
 20
440.88
 30
0.0
 11
143.850141006
 21
440.88
 31
0.0
  0
LINE
  5
B0
330
1F
100
AcDbEntity
  8
0
  6
HIDDEN
 62
     7
370
    18
100
AcDbLine
 10
143.850141006
 20
440.88
 30
0.0
 11
143.850141006
 21
425.88
 31
0.0
  0
LINE
  5
B1
330
1F
100
AcDbEntity
  8
0
  6
HIDDEN
 62
     7
370
    18
100
AcDbLine
 10
297.5141379304
 20
440.88
 30
0.0
 11
297.5141379304
 21
425.88
 31
0.0
  0
LINE
  5
B2
330
1F
100
AcDbEntity
  8
0
  6
HIDDEN
 62
     7
370
    18
100
AcDbLine
 10
297.5141379304
 20
440.88
 30
0.0
 11
289.5141379304
 21
440.88
 31
0.0
  0
LINE
  5
B3
330
1F
100
AcDbEntity
  8
0
  6
HIDDEN
 62
     7
370
    18
100
AcDbLine
 10
289.5141379304
 20
440.88
 30
0.0
 11
289.5141379304
 21
425.88
 31
0.0
  0
LINE
  5
B4
330
1F
100
AcDbEntity
  8
0
  6
HIDDEN
 62
     7
370
    18
100
AcDbLine
 10
121.6821394682
 20
440.88
 30
0.0
 11
121.6821394682
 21
425.88
 31
0.0
  0
LINE
  5
B5
330
1F
100
AcDbEntity
  8
0
  6
HIDDEN
 62
     7
370
    18
100
AcDbLine
 10
121.6821394682
 20
440.88
 30
0.0
 11
113.6821394682
 21
440.88
 31
0.0
  0
LINE
  5
B6
330
1F
100
AcDbEntity
  8
0
  6
HIDDEN
 62
     7
370
    18
100
AcDbLine
 10
113.6821394682
 20
440.88
 30
0.0
 11
113.6821394682
 21
425.88
 31
0.0
  0
LINE
  5
B7
330
1F
100
AcDbEntity
  8
0
  6
HIDDEN
 62
     7
370
    18
100
AcDbLine
 10
327.6821394682
 20
440.88
 30
0.0
 11
327.6821394682
 21
425.88
 31
0.0
  0
LINE
  5
B8
330
1F
100
AcDbEntity
  8
0
  6
HIDDEN
 62
     7
370
    18
100
AcDbLine
 10
327.6821394682
 20
440.88
 30
0.0
 11
319.6821394682
 21
440.88
 31
0.0
  0
LINE
  5
B9
330
1F
100
AcDbEntity
  8
0
  6
HIDDEN
 62
     7
370
    18
100
AcDbLine
 10
319.6821394682
 20
440.88
 30
0.0
 11
319.6821394682
 21
425.88
 31
0.0
  0
LINE
  5
BA
330
1F
100
AcDbEntity
  8
0
  6
HIDDEN
 62
     7
370
    18
100
AcDbLine
 10
134.1821394682
 20
452.88
 30
0.0
 11
134.1821394682
 21
466.88
 31
0.0
  0
LINE
  5
BB
330
1F
100
AcDbEntity
  8
0
  6
HIDDEN
 62
     7
370
    18
100
AcDbLine
 10
334.1821394682
 20
452.88
 30
0.0
 11
334.1821394682
 21
466.88
 31
0.0
  0
LINE
  5
BC
330
1F
100
AcDbEntity
  8
0
  6
Continuous
 62
     7
370
    25
100
AcDbLine
 10
578.88
 20
260.9824500774
 30
0.0
 11
551.88
 21
260.9824500774
 31
0.0
  0
LINE
  5
BD
330
1F
100
AcDbEntity
  8
0
  6
Continuous
 62
     7
370
    25
100
AcDbLine
 10
551.88
 20
41.8824500774
 30
0.0
 11
578.88
 21
41.8824500774
 31
0.0
  0
LINE
  5
BE
330
1F
100
AcDbEntity
  8
0
  6
Continuous
 62
     7
370
    25
100
AcDbLine
 10
578.88
 20
48.9324500774
 30
0.0
 11
578.88
 21
253.9324500774
 31
0.0
  0
LINE
  5
BF
330
1F
100
AcDbEntity
  8
0
  6
Continuous
 62
     7
370
    25
100
AcDbLine
 10
592.88
 20
48.9324500774
 30
0.0
 11
592.88
 21
253.9324500774
 31
0.0
  0
LINE
  5
C0
330
1F
100
AcDbEntity
  8
0
  6
Continuous
 62
     7
370
    25
100
AcDbLine
 10
578.88
 20
253.9324500774
 30
0.0
 11
578.88
 21
268.9324500774
 31
0.0
  0
LINE
  5
C1
330
1F
100
AcDbEntity
  8
0
  6
Continuous
 62
     7
370
    25
100
AcDbLine
 10
578.88
 20
268.9324500774
 30
0.0
 11
592.88
 21
268.9324500774
 31
0.0
  0
LINE
  5
C2
330
1F
100
AcDbEntity
  8
0
  6
Continuous
 62
     7
370
    25
100
AcDbLine
 10
592.88
 20
253.9324500774
 30
0.0
 11
592.88
 21
268.9324500774
 31
0.0
  0
LINE
  5
C3
330
1F
100
AcDbEntity
  8
0
  6
Continuous
 62
     7
370
    25
100
AcDbLine
 10
578.88
 20
33.9324500774
 30
0.0
 11
592.88
 21
33.9324500774
 31
0.0
  0
LINE
  5
C4
330
1F
100
AcDbEntity
  8
0
  6
Continuous
 62
     7
370
    25
100
AcDbLine
 10
578.88
 20
33.9324500774
 30
0.0
 11
578.88
 21
48.9324500774
 31
0.0
  0
LINE
  5
C5
330
1F
100
AcDbEntity
  8
0
  6
Continuous
 62
     7
370
    25
100
AcDbLine
 10
592.88
 20
33.9324500774
 30
0.0
 11
592.88
 21
48.9324500774
 31
0.0
  0
LINE
  5
C6
330
1F
100
AcDbEntity
  8
0
  6
Continuous
 62
     7
370
    25
100
AcDbLine
 10
551.88
 20
151.4324500774
 30
0.0
 11
551.88
 21
260.9824500774
 31
0.0
  0
LINE
  5
C7
330
1F
100
AcDbEntity
  8
0
  6
Continuous
 62
     7
370
    25
100
AcDbLine
 10
551.88
 20
41.8824500774
 30
0.0
 11
551.88
 21
151.4324500774
 31
0.0
  0
LINE
  5
C8
330
1F
100
AcDbEntity
  8
0
  6
HIDDEN
 62
     7
370
    18
100
AcDbLine
 10
578.88
 20
259.9324500774
 30
0.0
 11
592.88
 21
259.9324500774
 31
0.0
  0
LINE
  5
C9
330
1F
100
AcDbEntity
  8
0
  6
HIDDEN
 62
     7
370
    18
100
AcDbLine
 10
578.88
 20
242.9324500774
 30
0.0
 11
592.88
 21
242.9324500774
 31
0.0
  0
LINE
  5
CA
330
1F
100
AcDbEntity
  8
0
  6
HIDDEN
 62
     7
370
    18
100
AcDbLine
 10
578.88
 20
59.9324500774
 30
0.0
 11
592.88
 21
59.9324500774
 31
0.0
  0
LINE
  5
CB
330
1F
100
AcDbEntity
  8
0
  6
HIDDEN
 62
     7
370
    18
100
AcDbLine
 10
578.88
 20
42.9324500774
 30
0.0
 11
592.88
 21
42.9324500774
 31
0.0
  0
LINE
  5
CC
330
1F
100
AcDbEntity
  8
0
  6
HIDDEN
 62
     7
370
    18
100
AcDbLine
 10
566.88
 20
151.4324500774
 30
0.0
 11
566.88
 21
155.4324500774
 31
0.0
  0
LINE
  5
CD
330
1F
100
AcDbEntity
  8
0
  6
HIDDEN
 62
     7
370
    18
100
AcDbLine
 10
566.88
 20
147.4324500774
 30
0.0
 11
566.88
 21
151.4324500774
 31
0.0
  0
LINE
  5
CE
330
1F
100
AcDbEntity
  8
0
  6
HIDDEN
 62
     7
370
    18
100
AcDbLine
 10
552.88
 20
151.4324500774
 30
0.0
 11
552.88
 21
246.4324500774
 31
0.0
  0
LINE
  5
CF
330
1F
100
AcDbEntity
  8
0
  6
HIDDEN
 62
     7
370
    18
100
AcDbLine
 10
552.88
 20
56.4324500774
 30
0.0
 11
552.88
 21
151.4324500774
 31
0.0
  0
LINE
  5
D0
330
1F
100
AcDbEntity
  8
0
  6
HIDDEN
 62
     7
370
    18
100
AcDbLine
 10
566.88
 20
220.2644485396
 30
0.0
 11
566.88
 21
224.2644485396
 31
0.0
  0
LINE
  5
D1
330
1F
100
AcDbEntity
  8
0
  6
HIDDEN
 62
     7
370
    18
100
AcDbLine
 10
566.88
 20
224.2644485396
 30
0.0
 11
566.88
 21
228.2644485396
 31
0.0
  0
LINE
  5
D2
330
1F
100
AcDbEntity
  8
0
  6
HIDDEN
 62
     7
370
    18
100
AcDbLine
 10
566.88
 20
74.6004516152
 30
0.0
 11
566.88
 21
78.6004516152
 31
0.0
  0
LINE
  5
D3
330
1F
100
AcDbEntity
  8
0
  6
HIDDEN
 62
     7
370
    18
100
AcDbLine
 10
566.88
 20
78.6004516152
 30
0.0
 11
566.88
 21
82.6004516152
 31
0.0
  0
LINE
  5
D4
330
1F
100
AcDbEntity
  8
0
  6
HIDDEN
 62
     7
370
    18
100
AcDbLine
 10
566.88
 20
250.4324500774
 30
0.0
 11
566.88
 21
254.4324500774
 31
0.0
  0
LINE
  5
D5
330
1F
100
AcDbEntity
  8
0
  6
HIDDEN
 62
     7
370
    18
100
AcDbLine
 10
566.88
 20
254.4324500774
 30
0.0
 11
566.88
 21
258.4324500774
 31
0.0
  0
LINE
  5
D6
330
1F
100
AcDbEntity
  8
0
  6
HIDDEN
 62
     7
370
    18
100
AcDbLine
 10
566.88
 20
44.4324500774
 30
0.0
 11
566.88
 21
48.4324500774
 31
0.0
  0
LINE
  5
D7
330
1F
100
AcDbEntity
  8
0
  6
HIDDEN
 62
     7
370
    18
100
AcDbLine
 10
566.88
 20
48.4324500774
 30
0.0
 11
566.88
 21
52.4324500774
 31
0.0
  0
LINE
  5
D8
330
1F
100
AcDbEntity
  8
0
  6
HIDDEN
 62
     7
370
    18
100
AcDbLine
 10
566.88
 20
155.4324500774
 30
0.0
 11
551.88
 21
155.4324500774
 31
0.0
  0
LINE
  5
D9
330
1F
100
AcDbEntity
  8
0
  6
HIDDEN
 62
     7
370
    18
100
AcDbLine
 10
551.88
 20
147.4324500774
 30
0.0
 11
566.88
 21
147.4324500774
 31
0.0
  0
LINE
  5
DA
330
1F
100
AcDbEntity
  8
0
  6
HIDDEN
 62
     7
370
    18
100
AcDbLine
 10
578.88
 20
51.4324500774
 30
0.0
 11
592.88
 21
51.4324500774
 31
0.0
  0
LINE
  5
DB
330
1F
100
AcDbEntity
  8
0
  6
HIDDEN
 62
     7
370
    18
100
AcDbLine
 10
592.88
 20
251.4324500774
 30
0.0
 11
578.88
 21
251.4324500774
 31
0.0
  0
LINE
  5
DC
330
1F
100
AcDbEntity
  8
0
  6
HIDDEN
 62
     7
370
    18
100
AcDbLine
 10
552.88
 20
246.4324500774
 30
0.0
 11
551.88
 21
247.4324500774
 31
0.0
  0
LINE
  5
DD
330
1F
100
AcDbEntity
  8
0
  6
HIDDEN
 62
     7
370
    18
100
AcDbLine
 10
551.88
 20
55.4324500774
 30
0.0
 11
552.88
 21
56.4324500774
 31
0.0
  0
LINE
  5
DE
330
1F
100
AcDbEntity
  8
0
  6
HIDDEN
 62
     7
370
    18
100
AcDbLine
 10
552.88
 20
56.4324500774
 30
0.0
 11
578.88
 21
56.4324500774
 31
0.0
  0
LINE
  5
DF
330
1F
100
AcDbEntity
  8
0
  6
HIDDEN
 62
     7
370
    18
100
AcDbLine
 10
578.88
 20
246.4324500774
 30
0.0
 11
552.88
 21
246.4324500774
 31
0.0
  0
LINE
  5
E0
330
1F
100
AcDbEntity
  8
0
  6
HIDDEN
 62
     7
370
    18
100
AcDbLine
 10
551.88
 20
220.2644485396
 30
0.0
 11
566.88
 21
220.2644485396
 31
0.0
  0
LINE
  5
E1
330
1F
100
AcDbEntity
  8
0
  6
HIDDEN
 62
     7
370
    18
100
AcDbLine
 10
566.88
 20
228.2644485396
 30
0.0
 11
551.88
 21
228.2644485396
 31
0.0
  0
LINE
  5
E2
330
1F
100
AcDbEntity
  8
0
  6
HIDDEN
 62
     7
370
    18
100
AcDbLine
 10
551.88
 20
74.6004516152
 30
0.0
 11
566.88
 21
74.6004516152
 31
0.0
  0
LINE
  5
E3
330
1F
100
AcDbEntity
  8
0
  6
HIDDEN
 62
     7
370
    18
100
AcDbLine
 10
566.88
 20
82.6004516152
 30
0.0
 11
551.88
 21
82.6004516152
 31
0.0
  0
LINE
  5
E4
330
1F
100
AcDbEntity
  8
0
  6
HIDDEN
 62
     7
370
    18
100
AcDbLine
 10
551.88
 20
250.4324500774
 30
0.0
 11
566.88
 21
250.4324500774
 31
0.0
  0
LINE
  5
E5
330
1F
100
AcDbEntity
  8
0
  6
HIDDEN
 62
     7
370
    18
100
AcDbLine
 10
566.88
 20
258.4324500774
 30
0.0
 11
551.88
 21
258.4324500774
 31
0.0
  0
LINE
  5
E6
330
1F
100
AcDbEntity
  8
0
  6
HIDDEN
 62
     7
370
    18
100
AcDbLine
 10
551.88
 20
44.4324500774
 30
0.0
 11
566.88
 21
44.4324500774
 31
0.0
  0
LINE
  5
E7
330
1F
100
AcDbEntity
  8
0
  6
HIDDEN
 62
     7
370
    18
100
AcDbLine
 10
566.88
 20
52.4324500774
 30
0.0
 11
551.88
 21
52.4324500774
 31
0.0
  0
LINE
  5
E8
330
1F
100
AcDbEntity
  8
0
  6
Continuous
 62
     7
370
    25
100
AcDbLine
 10
681.93
 20
441.0724847227
 30
0.0
 11
681.93
 21
463.1190866437
 31
0.0
  0
LINE
  5
E9
330
1F
100
AcDbEntity
  8
0
  6
Continuous
 62
     7
370
    25
100
AcDbLine
 10
462.83
 20
463.1190866437
 30
0.0
 11
462.83
 21
441.0724847227
 31
0.0
  0
LINE
  5
EA
330
1F
100
AcDbEntity
  8
0
  6
Continuous
 62
     7
370
    25
100
AcDbLine
 10
410.6553429038
 20
440.051974583
 30
0.0
 11
410.6553429038
 21
428.6204032166
 31
0.0
  0
LINE
  5
EB
330
1F
100
AcDbEntity
  8
0
  6
Continuous
 62
     7
370
    25
100
AcDbLine
 10
734.1046570962
 20
430.6614234961
 30
0.0
 11
734.1046570962
 21
442.0929948625
 31
0.0
  0
LWPOLYLINE
  5
EC
330
1F
100
AcDbEntity
  8
0
  6
Continuous
 62
     7
370
    25
100
AcDbPolyline
 90
       69
 70
   128
 43
0.0
 10
494.916452121
 20
418.4003323186
 10
498.5766422385
 20
416.3827816152
 10
502.3943324408
 20
414.464968542
 10
506.3613755847
 20
412.6509858088
 10
510.4693058
 20
410.9447045461
 10
514.7093565568
 20
409.3497660442
 10
519.072479373
 20
407.8695739821
 10
523.5493631247
 20
406.5072871644
 10
528.1304539163
 20
405.2658127797
 10
532.8059754692
 20
404.147800197
 10
537.5659499848
 20
403.1556353115
 10
542.4002194376
 20
402.2914354529
 10
547.298467253
 20
401.5570448674
 10
552.2502403232
 20
400.9540307816
 10
557.244971315
 20
400.4836800577
 10
562.2720012208
 20
400.146996448
 10
567.3206021054
 20
399.9446984523
 10
572.38
 20
399.8772177847
 10
577.4393978946
 20
399.9446984523
 10
582.4879987792
 20
400.146996448
 10
587.515028685
 20
400.4836800577
 10
592.5097596768
 20
400.9540307816
 10
597.461532747
 20
401.5570448674
 10
602.3597805624
 20
402.2914354529
 10
607.1940500152
 20
403.1556353115
 10
611.9540245308
 20
404.147800197
 10
616.6295460837
 20
405.2658127797
 10
621.2106368753
 20
406.5072871644
 10
625.687520627
 20
407.8695739821
 10
630.0506434432
 20
409.3497660442
 10
634.2906942
 20
410.9447045461
 10
638.3986244153
 20
412.6509858088
 10
642.3656675592
 20
414.464968542
 10
646.1833577615
 20
416.3827816152
 10
649.843547879
 20
418.4003323186
 10
653.3384268815
 20
420.5133150973
 10
656.6605365212
 20
422.7172207396
 10
659.8027872486
 20
425.0073459999
 10
662.7584733422
 20
427.3788036353
 10
665.5212872192
 20
429.8265328358
 10
668.0853328953
 20
432.3453100239
 10
670.4451385679
 20
434.9297600022
 10
672.5956682929
 20
437.5743674242
 10
674.5323327312
 20
440.2734885643
 10
676.2509989436
 20
443.021363362
 10
677.7479992096
 20
445.812127714
 10
679.0201388552
 20
448.6398259885
 10
680.0647030704
 20
451.498423735
 10
680.8794627024
 20
454.3818205618
 10
681.4626790131
 20
457.2838631546
 10
681.8131073896
 20
460.1983584085
 10
681.93
 20
463.1190866437
 10
681.8131073896
 20
466.0398148788
 10
681.4626790131
 20
468.9543101327
 10
680.8794627024
 20
471.8563527256
 10
680.0647030704
 20
474.7397495523
 10
679.0201388552
 20
477.5983472988
 10
677.7479992096
 20
480.4260455734
 10
676.2509989436
 20
483.2168099254
 10
674.5323327312
 20
485.9646847231
 10
672.5956682929
 20
488.6638058632
 10
670.4451385679
 20
491.3084132851
 10
668.0853328953
 20
493.8928632634
 10
665.5212872192
 20
496.4116404515
 10
662.7584733422
 20
498.859369652
 10
659.8027872486
 20
501.2308272874
 10
656.6605365212
 20
503.5209525477
 10
653.3384268815
 20
505.72485819
 10
649.843547879
 20
507.8378409687
  0
LWPOLYLINE
  5
ED
330
1F
100
AcDbEntity
  8
0
  6
Continuous
 62
     7
370
    25
100
AcDbPolyline
 90
       69
 70
   128
 43
0.0
 10
649.843547879
 20
507.8378409687
 10
646.1833577615
 20
509.8553916721
 10
642.3656675592
 20
511.7732047453
 10
638.3986244153
 20
513.5871874785
 10
634.2906942
 20
515.2934687412
 10
630.0506434432
 20
516.8884072431
 10
625.687520627
 20
518.3685993052
 10
621.2106368753
 20
519.7308861229
 10
616.6295460837
 20
520.9723605076
 10
611.9540245308
 20
522.0903730903
 10
607.1940500152
 20
523.0825379758
 10
602.3597805624
 20
523.9467378344
 10
597.461532747
 20
524.6811284199
 10
592.5097596768
 20
525.2841425058
 10
587.515028685
 20
525.7544932296
 10
582.4879987792
 20
526.0911768393
 10
577.4393978946
 20
526.293474835
 10
572.38
 20
526.3609555026
 10
567.3206021054
 20
526.293474835
 10
562.2720012208
 20
526.0911768393
 10
557.244971315
 20
525.7544932296
 10
552.2502403232
 20
525.2841425058
 10
547.298467253
 20
524.6811284199
 10
542.4002194376
 20
523.9467378344
 10
537.5659499848
 20
523.0825379758
 10
532.8059754692
 20
522.0903730903
 10
528.1304539163
 20
520.9723605076
 10
523.5493631247
 20
519.7308861229
 10
519.072479373
 20
518.3685993052
 10
514.7093565568
 20
516.8884072431
 10
510.4693058
 20
515.2934687412
 10
506.3613755847
 20
513.5871874785
 10
502.3943324408
 20
511.7732047453
 10
498.5766422385
 20
509.8553916721
 10
494.916452121
 20
507.8378409687
 10
491.4215731185
 20
505.72485819
 10
488.0994634788
 20
503.5209525477
 10
484.9572127515
 20
501.2308272874
 10
482.0015266578
 20
498.859369652
 10
479.2387127808
 20
496.4116404515
 10
476.6746671047
 20
493.8928632634
 10
474.3148614321
 20
491.3084132851
 10
472.1643317071
 20
488.6638058631
 10
470.2276672688
 20
485.9646847231
 10
468.5090010564
 20
483.2168099254
 10
467.0120007904
 20
480.4260455734
 10
465.7398611448
 20
477.5983472988
 10
464.6952969296
 20
474.7397495523
 10
463.8805372976
 20
471.8563527256
 10
463.2973209869
 20
468.9543101327
 10
462.9468926104
 20
466.0398148788
 10
462.83
 20
463.1190866437
 10
462.9468926104
 20
460.1983584085
 10
463.2973209869
 20
457.2838631546
 10
463.8805372976
 20
454.3818205618
 10
464.6952969296
 20
451.498423735
 10
465.7398611448
 20
448.6398259885
 10
467.0120007904
 20
445.812127714
 10
468.5090010564
 20
443.021363362
 10
470.2276672688
 20
440.2734885643
 10
472.1643317071
 20
437.5743674242
 10
474.3148614321
 20
434.9297600022
 10
476.6746671047
 20
432.3453100239
 10
479.2387127808
 20
429.8265328358
 10
482.0015266578
 20
427.3788036353
 10
484.9572127515
 20
425.0073459999
 10
488.0994634788
 20
422.7172207396
 10
491.4215731185
 20
420.5133150973
 10
494.916452121
 20
418.4003323186
  0
LWPOLYLINE
  5
EE
330
1F
100
AcDbEntity
  8
0
  6
Continuous
 62
     7
370
    25
100
AcDbPolyline
 90
       65
 70
   128
 43
0.0
 10
640.2622509939
 20
502.3066760111
 10
643.5113080341
 20
500.3366289708
 10
646.5890035228
 20
498.2769216111
 10
649.4879230221
 20
496.1325159475
 10
652.201082781
 20
493.908578041
 10
654.72194656
 20
491.610465553
 10
657.0444413774
 20
489.2437148376
 10
659.1629721399
 20
486.8140276046
 10
661.0724351211
 20
484.3272571835
 10
662.7682302576
 20
481.7893944219
 10
664.2462722303
 20
479.2065532535
 10
665.5030003067
 20
476.584955969
 10
666.5353869187
 20
473.9309182257
 10
667.3409449566
 20
471.2508338332
 10
667.9177337605
 20
468.5511593495
 10
668.2643637957
 20
465.8383985268
 10
668.38
 20
463.1190866437
 10
668.2643637957
 20
460.3997747605
 10
667.9177337605
 20
457.6870139378
 10
667.3409449566
 20
454.9873394541
 10
666.5353869187
 20
452.3072550616
 10
665.5030003067
 20
449.6532173184
 10
664.2462722303
 20
447.0316200338
 10
662.7682302576
 20
444.4487788655
 10
661.0724351211
 20
441.9109161038
 10
659.1629721399
 20
439.4241456827
 10
657.0444413774
 20
436.9944584497
 10
654.72194656
 20
434.6277077343
 10
652.201082781
 20
432.3295952463
 10
649.4879230221
 20
430.1056573398
 10
646.5890035228
 20
427.9612516762
 10
643.5113080341
 20
425.9015443165
 10
640.2622509939
 20
423.9314972762
 10
636.8496596653
 20
422.055856571
 10
633.2817552797
 20
420.2791407838
 10
629.5671332313
 20
418.6056301785
 10
625.7147423699
 20
417.0393563888
 10
621.7338634425
 20
415.5840927054
 10
617.6340867353
 20
414.2433449859
 10
613.4252889693
 20
413.0203432091
 10
609.117609507
 20
411.9180336933
 10
604.7214259257
 20
410.9390719988
 10
600.2473290164
 20
410.08581653
 10
595.7060972707
 20
409.3603228541
 10
591.1086709135
 20
408.7643387488
 10
586.4661255477
 20
408.2992999922
 10
581.7896454716
 20
407.9663269032
 10
577.0904967354
 20
407.7662216433
 10
572.38
 20
407.6994662834
 10
567.6695032646
 20
407.7662216433
 10
562.9703545284
 20
407.9663269032
 10
558.2938744523
 20
408.2992999922
 10
553.6513290865
 20
408.7643387488
 10
549.0539027293
 20
409.3603228541
 10
544.5126709836
 20
410.08581653
 10
540.0385740743
 20
410.9390719988
 10
535.642390493
 20
411.9180336933
 10
531.3347110307
 20
413.0203432091
 10
527.1259132647
 20
414.2433449859
 10
523.0261365575
 20
415.5840927054
 10
519.0452576301
 20
417.0393563888
 10
515.1928667687
 20
418.6056301785
 10
511.4782447203
 20
420.2791407838
 10
507.9103403347
 20
422.055856571
 10
504.4977490061
 20
423.9314972762
  0
LWPOLYLINE
  5
EF
330
1F
100
AcDbEntity
  8
0
  6
Continuous
 62
     7
370
    25
100
AcDbPolyline
 90
       65
 70
   128
 43
0.0
 10
504.4977490061
 20
423.9314972762
 10
501.2486919659
 20
425.9015443165
 10
498.1709964772
 20
427.9612516762
 10
495.2720769779
 20
430.1056573398
 10
492.558917219
 20
432.3295952463
 10
490.03805344
 20
434.6277077343
 10
487.7155586226
 20
436.9944584497
 10
485.5970278601
 20
439.4241456827
 10
483.6875648789
 20
441.9109161038
 10
481.9917697424
 20
444.4487788655
 10
480.5137277697
 20
447.0316200338
 10
479.2569996933
 20
449.6532173184
 10
478.2246130813
 20
452.3072550616
 10
477.4190550434
 20
454.9873394541
 10
476.8422662395
 20
457.6870139378
 10
476.4956362043
 20
460.3997747605
 10
476.38
 20
463.1190866437
 10
476.4956362043
 20
465.8383985268
 10
476.8422662395
 20
468.5511593495
 10
477.4190550434
 20
471.2508338332
 10
478.2246130813
 20
473.9309182257
 10
479.2569996933
 20
476.584955969
 10
480.5137277697
 20
479.2065532535
 10
481.9917697424
 20
481.7893944219
 10
483.6875648789
 20
484.3272571835
 10
485.5970278602
 20
486.8140276046
 10
487.7155586226
 20
489.2437148376
 10
490.03805344
 20
491.610465553
 10
492.558917219
 20
493.908578041
 10
495.2720769779
 20
496.1325159475
 10
498.1709964772
 20
498.2769216111
 10
501.2486919659
 20
500.3366289708
 10
504.4977490061
 20
502.3066760111
 10
507.9103403347
 20
504.1823167163
 10
511.4782447203
 20
505.9590325035
 10
515.1928667687
 20
507.6325431088
 10
519.0452576301
 20
509.1988168985
 10
523.0261365575
 20
510.654080582
 10
527.1259132647
 20
511.9948283014
 10
531.3347110307
 20
513.2178300783
 10
535.642390493
 20
514.320139594
 10
540.0385740743
 20
515.2991012885
 10
544.5126709836
 20
516.1523567573
 10
549.0539027293
 20
516.8778504332
 10
553.6513290865
 20
517.4738345385
 10
558.2938744523
 20
517.9388732951
 10
562.9703545284
 20
518.2718463841
 10
567.6695032646
 20
518.4719516441
 10
572.38
 20
518.5387070039
 10
577.0904967354
 20
518.4719516441
 10
581.7896454716
 20
518.2718463841
 10
586.4661255477
 20
517.9388732951
 10
591.1086709135
 20
517.4738345385
 10
595.7060972707
 20
516.8778504332
 10
600.2473290164
 20
516.1523567573
 10
604.7214259257
 20
515.2991012885
 10
609.117609507
 20
514.320139594
 10
613.4252889693
 20
513.2178300783
 10
617.6340867353
 20
511.9948283014
 10
621.7338634426
 20
510.654080582
 10
625.7147423699
 20
509.1988168985
 10
629.5671332313
 20
507.6325431088
 10
633.2817552797
 20
505.9590325035
 10
636.8496596653
 20
504.1823167163
 10
640.2622509939
 20
502.3066760111
  0
LWPOLYLINE
  5
F0
330
1F
100
AcDbEntity
  8
0
  6
Continuous
 62
     7
370
    25
100
AcDbPolyline
 90
       14
 70
   128
 43
0.0
 10
648.040425587
 20
506.7969206262
 10
647.2813497189
 20
507.1402324535
 10
646.4020106776
 20
507.3686989014
 10
645.4535124519
 20
507.4690423304
 10
644.490978311
 20
507.4354311451
 10
643.5703472404
 20
507.2698187055
 10
642.7451229717
 20
506.9818298046
 10
642.0632645398
 20
506.5882013104
 10
641.5643990782
 20
506.1118094804
 10
641.2775188344
 20
505.580340476
 10
641.2192962453
 20
505.024681344
 10
641.3931149962
 20
504.4771249733
 10
641.788873373
 20
503.96949335
 10
642.3835713375
 20
503.5312881789
  0
LWPOLYLINE
  5
F1
330
1F
100
AcDbEntity
  8
0
  6
Continuous
 62
     7
370
    25
100
AcDbPolyline
 90
       14
 70
   128
 43
0.0
 10
642.3835713375
 20
503.5312881789
 10
643.1426472055
 20
503.1879763516
 10
644.0219862468
 20
502.9595099037
 10
644.9704844725
 20
502.8591664747
 10
645.9330186135
 20
502.89277766
 10
646.853649684
 20
503.0583900996
 10
647.6788739527
 20
503.3463790005
 10
648.3607323847
 20
503.7400074946
 10
648.8595978462
 20
504.2163993246
 10
649.14647809
 20
504.747868329
 10
649.2047006791
 20
505.3035274611
 10
649.0308819282
 20
505.8510838317
 10
648.6351235514
 20
506.358715455
 10
648.040425587
 20
506.7969206262
  0
LWPOLYLINE
  5
F2
330
1F
100
AcDbEntity
  8
0
  6
Continuous
 62
     7
370
    25
100
AcDbPolyline
 90
       14
 70
   128
 43
0.0
 10
678.2084271247
 20
464.7519028673
 10
677.4493512567
 20
465.0952146946
 10
676.5700122154
 20
465.3236811425
 10
675.6215139897
 20
465.4240245715
 10
674.6589798487
 20
465.3904133862
 10
673.7383487782
 20
465.2248009466
 10
672.9131245095
 20
464.9368120457
 10
672.2312660776
 20
464.5431835516
 10
671.732400616
 20
464.0667917215
 10
671.4455203722
 20
463.5353227171
 10
671.3872977831
 20
462.9796635851
 10
671.561116534
 20
462.4321072145
 10
671.9568749108
 20
461.9244755912
 10
672.5515728753
 20
461.48627042
  0
LWPOLYLINE
  5
F3
330
1F
100
AcDbEntity
  8
0
  6
Continuous
 62
     7
370
    25
100
AcDbPolyline
 90
       14
 70
   128
 43
0.0
 10
672.5515728753
 20
461.48627042
 10
673.3106487433
 20
461.1429585927
 10
674.1899877846
 20
460.9144921448
 10
675.1384860103
 20
460.8141487158
 10
676.1010201513
 20
460.8477599011
 10
677.0216512218
 20
461.0133723407
 10
677.8468754905
 20
461.3013612416
 10
678.5287339224
 20
461.6949897357
 10
679.027599384
 20
462.1713815658
 10
679.3144796278
 20
462.7028505702
 10
679.3727022169
 20
463.2585097022
 10
679.198883466
 20
463.8060660729
 10
678.8031250892
 20
464.3136976961
 10
678.2084271247
 20
464.7519028673
  0
LWPOLYLINE
  5
F4
330
1F
100
AcDbEntity
  8
0
  6
Continuous
 62
     7
370
    25
100
AcDbPolyline
 90
       14
 70
   128
 43
0.0
 10
648.040425587
 20
422.7068851084
 10
647.2813497189
 20
423.0501969357
 10
646.4020106776
 20
423.2786633836
 10
645.4535124519
 20
423.3790068126
 10
644.490978311
 20
423.3453956274
 10
643.5703472404
 20
423.1797831878
 10
642.7451229717
 20
422.8917942868
 10
642.0632645398
 20
422.4981657927
 10
641.5643990782
 20
422.0217739627
 10
641.2775188344
 20
421.4903049583
 10
641.2192962453
 20
420.9346458262
 10
641.3931149962
 20
420.3870894556
 10
641.788873373
 20
419.8794578323
 10
642.3835713375
 20
419.4412526611
  0
LWPOLYLINE
  5
F5
330
1F
100
AcDbEntity
  8
0
  6
Continuous
 62
     7
370
    25
100
AcDbPolyline
 90
       14
 70
   128
 43
0.0
 10
642.3835713375
 20
419.4412526611
 10
643.1426472055
 20
419.0979408339
 10
644.0219862468
 20
418.869474386
 10
644.9704844725
 20
418.769130957
 10
645.9330186135
 20
418.8027421422
 10
646.853649684
 20
418.9683545818
 10
647.6788739527
 20
419.2563434827
 10
648.3607323847
 20
419.6499719769
 10
648.8595978462
 20
420.1263638069
 10
649.14647809
 20
420.6578328113
 10
649.2047006791
 20
421.2134919433
 10
649.0308819282
 20
421.761048314
 10
648.6351235514
 20
422.2686799373
 10
648.040425587
 20
422.7068851084
  0
LWPOLYLINE
  5
F6
330
1F
100
AcDbEntity
  8
0
  6
Continuous
 62
     7
370
    25
100
AcDbPolyline
 90
       14
 70
   128
 43
0.0
 10
575.2084271247
 20
405.2912685225
 10
574.4493512567
 20
405.6345803498
 10
573.5700122154
 20
405.8630467977
 10
572.6215139897
 20
405.9633902267
 10
571.6589798487
 20
405.9297790414
 10
570.7383487782
 20
405.7641666018
 10
569.9131245095
 20
405.4761777009
 10
569.2312660776
 20
405.0825492068
 10
568.732400616
 20
404.6061573767
 10
568.4455203722
 20
404.0746883723
 10
568.3872977831
 20
403.5190292403
 10
568.561116534
 20
402.9714728697
 10
568.9568749108
 20
402.4638412464
 10
569.5515728753
 20
402.0256360752
  0
LWPOLYLINE
  5
F7
330
1F
100
AcDbEntity
  8
0
  6
Continuous
 62
     7
370
    25
100
AcDbPolyline
 90
       14
 70
   128
 43
0.0
 10
569.5515728753
 20
402.0256360752
 10
570.3106487433
 20
401.6823242479
 10
571.1899877846
 20
401.4538578
 10
572.1384860103
 20
401.353514371
 10
573.1010201513
 20
401.3871255563
 10
574.0216512218
 20
401.5527379959
 10
574.8468754905
 20
401.8407268968
 10
575.5287339224
 20
402.2343553909
 10
576.027599384
 20
402.710747221
 10
576.3144796278
 20
403.2422162254
 10
576.3727022169
 20
403.7978753574
 10
576.198883466
 20
404.345431728
 10
575.8031250892
 20
404.8530633513
 10
575.2084271247
 20
405.2912685225
  0
LWPOLYLINE
  5
F8
330
1F
100
AcDbEntity
  8
0
  6
Continuous
 62
     7
370
    25
100
AcDbPolyline
 90
       14
 70
   128
 43
0.0
 10
502.3764286625
 20
422.7068851084
 10
501.6173527945
 20
423.0501969357
 10
500.7380137532
 20
423.2786633836
 10
499.7895155275
 20
423.3790068126
 10
498.8269813865
 20
423.3453956274
 10
497.906350316
 20
423.1797831878
 10
497.0811260473
 20
422.8917942868
 10
496.3992676153
 20
422.4981657927
 10
495.9004021538
 20
422.0217739627
 10
495.61352191
 20
421.4903049583
 10
495.5552993209
 20
420.9346458262
 10
495.7291180718
 20
420.3870894556
 10
496.1248764486
 20
419.8794578323
 10
496.719574413
 20
419.4412526611
  0
LWPOLYLINE
  5
F9
330
1F
100
AcDbEntity
  8
0
  6
Continuous
 62
     7
370
    25
100
AcDbPolyline
 90
       14
 70
   128
 43
0.0
 10
496.719574413
 20
419.4412526611
 10
497.4786502811
 20
419.0979408339
 10
498.3579893224
 20
418.869474386
 10
499.3064875481
 20
418.769130957
 10
500.269021689
 20
418.8027421422
 10
501.1896527596
 20
418.9683545818
 10
502.0148770283
 20
419.2563434827
 10
502.6967354602
 20
419.6499719769
 10
503.1956009218
 20
420.1263638069
 10
503.4824811656
 20
420.6578328113
 10
503.5407037547
 20
421.2134919433
 10
503.3668850038
 20
421.761048314
 10
502.971126627
 20
422.2686799373
 10
502.3764286625
 20
422.7068851084
  0
LWPOLYLINE
  5
FA
330
1F
100
AcDbEntity
  8
0
  6
Continuous
 62
     7
370
    25
100
AcDbPolyline
 90
       14
 70
   128
 43
0.0
 10
472.2084271247
 20
464.7519028673
 10
471.4493512567
 20
465.0952146946
 10
470.5700122154
 20
465.3236811425
 10
469.6215139897
 20
465.4240245715
 10
468.6589798487
 20
465.3904133862
 10
467.7383487782
 20
465.2248009466
 10
466.9131245095
 20
464.9368120457
 10
466.2312660776
 20
464.5431835516
 10
465.732400616
 20
464.0667917215
 10
465.4455203722
 20
463.5353227171
 10
465.3872977831
 20
462.9796635851
 10
465.561116534
 20
462.4321072145
 10
465.9568749108
 20
461.9244755912
 10
466.5515728753
 20
461.48627042
  0
LWPOLYLINE
  5
FB
330
1F
100
AcDbEntity
  8
0
  6
Continuous
 62
     7
370
    25
100
AcDbPolyline
 90
       14
 70
   128
 43
0.0
 10
466.5515728753
 20
461.48627042
 10
467.3106487433
 20
461.1429585927
 10
468.1899877846
 20
460.9144921448
 10
469.1384860103
 20
460.8141487158
 10
470.1010201513
 20
460.8477599011
 10
471.0216512218
 20
461.0133723407
 10
471.8468754905
 20
461.3013612416
 10
472.5287339224
 20
461.6949897357
 10
473.027599384
 20
462.1713815658
 10
473.3144796278
 20
462.7028505702
 10
473.3727022169
 20
463.2585097022
 10
473.198883466
 20
463.8060660729
 10
472.8031250892
 20
464.3136976961
 10
472.2084271247
 20
464.7519028673
  0
LWPOLYLINE
  5
FC
330
1F
100
AcDbEntity
  8
0
  6
Continuous
 62
     7
370
    25
100
AcDbPolyline
 90
       14
 70
   128
 43
0.0
 10
502.3764286625
 20
506.7969206262
 10
501.6173527945
 20
507.1402324535
 10
500.7380137532
 20
507.3686989014
 10
499.7895155275
 20
507.4690423304
 10
498.8269813865
 20
507.4354311451
 10
497.906350316
 20
507.2698187055
 10
497.0811260473
 20
506.9818298046
 10
496.3992676154
 20
506.5882013104
 10
495.9004021538
 20
506.1118094804
 10
495.61352191
 20
505.580340476
 10
495.5552993209
 20
505.024681344
 10
495.7291180718
 20
504.4771249733
 10
496.1248764486
 20
503.96949335
 10
496.719574413
 20
503.5312881789
  0
LWPOLYLINE
  5
FD
330
1F
100
AcDbEntity
  8
0
  6
Continuous
 62
     7
370
    25
100
AcDbPolyline
 90
       14
 70
   128
 43
0.0
 10
496.719574413
 20
503.5312881789
 10
497.4786502811
 20
503.1879763516
 10
498.3579893224
 20
502.9595099037
 10
499.3064875481
 20
502.8591664747
 10
500.269021689
 20
502.89277766
 10
501.1896527596
 20
503.0583900996
 10
502.0148770283
 20
503.3463790005
 10
502.6967354602
 20
503.7400074946
 10
503.1956009218
 20
504.2163993246
 10
503.4824811656
 20
504.747868329
 10
503.5407037547
 20
505.3035274611
 10
503.3668850038
 20
505.8510838317
 10
502.971126627
 20
506.358715455
 10
502.3764286625
 20
506.7969206262
  0
LWPOLYLINE
  5
FE
330
1F
100
AcDbEntity
  8
0
  6
Continuous
 62
     7
370
    25
100
AcDbPolyline
 90
       14
 70
   128
 43
0.0
 10
575.2084271247
 20
524.2125372121
 10
574.4493512567
 20
524.5558490394
 10
573.5700122154
 20
524.7843154873
 10
572.6215139897
 20
524.8846589163
 10
571.6589798487
 20
524.851047731
 10
570.7383487782
 20
524.6854352914
 10
569.9131245095
 20
524.3974463905
 10
569.2312660776
 20
524.0038178964
 10
568.732400616
 20
523.5274260664
 10
568.4455203722
 20
522.995957062
 10
568.3872977831
 20
522.4402979299
 10
568.561116534
 20
521.8927415593
 10
568.9568749108
 20
521.385109936
 10
569.5515728753
 20
520.9469047648
  0
LWPOLYLINE
  5
FF
330
1F
100
AcDbEntity
  8
0
  6
Continuous
 62
     7
370
    25
100
AcDbPolyline
 90
       14
 70
   128
 43
0.0
 10
569.5515728753
 20
520.9469047648
 10
570.3106487433
 20
520.6035929375
 10
571.1899877846
 20
520.3751264896
 10
572.1384860103
 20
520.2747830606
 10
573.1010201513
 20
520.3083942459
 10
574.0216512218
 20
520.4740066855
 10
574.8468754905
 20
520.7619955864
 10
575.5287339224
 20
521.1556240806
 10
576.027599384
 20
521.6320159106
 10
576.3144796278
 20
522.163484915
 10
576.3727022169
 20
522.719144047
 10
576.198883466
 20
523.2667004177
 10
575.8031250892
 20
523.774332041
 10
575.2084271247
 20
524.2125372121
  0
LWPOLYLINE
  5
100
330
1F
100
AcDbEntity
  8
0
  6
Continuous
 62
     7
370
    25
100
AcDbPolyline
 90
       52
 70
   128
 43
0.0
 10
494.916452121
 20
396.3537303977
 10
498.5766422385
 20
394.3361796943
 10
502.3943324408
 20
392.4183666211
 10
506.3613755847
 20
390.6043838879
 10
510.4693058
 20
388.8981026252
 10
514.7093565568
 20
387.3031641233
 10
519.072479373
 20
385.8229720612
 10
523.5493631247
 20
384.4606852435
 10
528.1304539163
 20
383.2192108588
 10
532.8059754692
 20
382.1011982761
 10
537.5659499848
 20
381.1090333906
 10
542.4002194376
 20
380.244833532
 10
547.298467253
 20
379.5104429465
 10
552.2502403232
 20
378.9074288606
 10
557.244971315
 20
378.4370781368
 10
562.2720012208
 20
378.1003945271
 10
567.3206021054
 20
377.8980965314
 10
572.38
 20
377.8306158638
 10
577.4393978946
 20
377.8980965314
 10
582.4879987792
 20
378.1003945271
 10
587.515028685
 20
378.4370781368
 10
592.5097596768
 20
378.9074288606
 10
597.461532747
 20
379.5104429465
 10
602.3597805624
 20
380.244833532
 10
607.1940500152
 20
381.1090333906
 10
611.9540245308
 20
382.1011982761
 10
616.6295460837
 20
383.2192108588
 10
621.2106368753
 20
384.4606852435
 10
625.687520627
 20
385.8229720612
 10
630.0506434432
 20
387.3031641233
 10
634.2906942
 20
388.8981026252
 10
638.3986244153
 20
390.6043838879
 10
642.3656675592
 20
392.4183666211
 10
646.1833577615
 20
394.3361796943
 10
649.843547879
 20
396.3537303977
 10
653.3384268815
 20
398.4667131764
 10
656.6605365212
 20
400.6706188187
 10
659.8027872486
 20
402.960744079
 10
662.7584733422
 20
405.3322017144
 10
665.5212872192
 20
407.7799309149
 10
668.0853328953
 20
410.298708103
 10
670.4451385679
 20
412.8831580813
 10
672.5956682929
 20
415.5277655033
 10
674.5323327312
 20
418.2268866433
 10
676.2509989436
 20
420.974761441
 10
677.7479992096
 20
423.7655257931
 10
679.0201388552
 20
426.5932240676
 10
680.0647030704
 20
429.4518218141
 10
680.8794627024
 20
432.3352186408
 10
681.4626790131
 20
435.2372612337
 10
681.8131073896
 20
438.1517564876
 10
681.93
 20
441.0724847227
  0
LINE
  5
101
330
1F
100
AcDbEntity
  8
0
  6
Continuous
 62
     7
370
    25
100
AcDbLine
 10
415.048741186
 20
433.9289137443
 30
0.0
 11
560.0056313292
 21
350.2470822825
 31
0.0
  0
LWPOLYLINE
  5
102
330
1F
100
AcDbEntity
  8
0
  6
Continuous
 62
     7
370
    25
100
AcDbPolyline
 90
       13
 70
   128
 43
0.0
 10
415.048741186
 20
446.1750354216
 10
413.7550427994
 20
445.3234319713
 10
412.664961847
 20
444.3816324236
 10
411.7971499161
 20
443.3657512298
 10
411.1664555095
 20
442.2931703988
 10
410.7836699832
 20
441.1822420861
 10
410.6553429038
 20
440.051974583
 10
410.7836699832
 20
438.9217070799
 10
411.1664555095
 20
437.8107787671
 10
411.7971499161
 20
436.7381979361
 10
412.664961847
 20
435.7223167423
 10
413.7550427994
 20
434.7805171946
 10
415.048741186
 20
433.9289137443
  0
LINE
  5
103
330
1F
100
AcDbEntity
  8
0
  6
Continuous
 62
     7
370
    25
100
AcDbLine
 10
563.5411652352
 20
531.897887163
 30
0.0
 11
552.0462496064
 21
525.2620136191
 31
0.0
  0
LINE
  5
104
330
1F
100
AcDbEntity
  8
0
  6
Continuous
 62
     7
370
    25
100
AcDbLine
 10
464.7336294391
 20
474.8575108865
 30
0.0
 11
415.048741186
 21
446.1750354216
 31
0.0
  0
ARC
  5
105
330
1F
100
AcDbEntity
  8
0
  6
Continuous
 62
     7
370
    25
100
AcDbCircle
 10
574.147766953
 20
511.4272208887
 30
0.0
 40
23.05532861867667
100
AcDbArc
 50
62.6096722366
 51
117.3903277634
  0
LINE
  5
106
330
1F
100
AcDbEntity
  8
0
  6
Continuous
 62
     7
370
    25
100
AcDbLine
 10
729.711258814
 20
448.2160557012
 30
0.0
 11
679.0830271691
 21
477.4431117144
 31
0.0
  0
LINE
  5
107
330
1F
100
AcDbEntity
  8
0
  6
Continuous
 62
     7
370
    25
100
AcDbLine
 10
597.1926276913
 20
524.7174330707
 30
0.0
 11
584.7543686708
 21
531.897887163
 31
0.0
  0
LWPOLYLINE
  5
108
330
1F
100
AcDbEntity
  8
0
  6
Continuous
 62
     7
370
    25
100
AcDbPolyline
 90
       13
 70
   128
 43
0.0
 10
729.711258814
 20
435.9699340239
 10
731.0049572006
 20
436.8215374741
 10
732.095038153
 20
437.7633370219
 10
732.9628500839
 20
438.7792182157
 10
733.5935444905
 20
439.8517990466
 10
733.9763300168
 20
440.9627273594
 10
734.1046570962
 20
442.0929948625
 10
733.9763300168
 20
443.2232623656
 10
733.5935444905
 20
444.3341906784
 10
732.9628500839
 20
445.4067715094
 10
732.095038153
 20
446.4226527032
 10
731.0049572006
 20
447.3644522509
 10
729.711258814
 20
448.2160557012
  0
LINE
  5
109
330
1F
100
AcDbEntity
  8
0
  6
Continuous
 62
     7
370
    25
100
AcDbLine
 10
581.2188347648
 20
350.2470822825
 30
0.0
 11
729.711258814
 21
435.9699340239
 31
0.0
  0
ARC
  5
10A
330
1F
100
AcDbEntity
  8
0
  6
Continuous
 62
     7
370
    25
100
AcDbCircle
 10
570.612233047
 20
370.7177485568
 30
0.0
 40
23.05532861867632
100
AcDbArc
 50
242.6096722366
 51
297.3903277634
  0
LWPOLYLINE
  5
10B
330
1F
100
AcDbEntity
  8
0
  6
Continuous
 62
     7
370
    25
100
AcDbPolyline
 90
       18
 70
   128
 43
0.0
 10
462.83
 20
441.0724847227
 10
462.9468926104
 20
438.1517564876
 10
463.2973209869
 20
435.2372612337
 10
463.8805372976
 20
432.3352186408
 10
464.6952969296
 20
429.4518218141
 10
465.7398611448
 20
426.5932240676
 10
467.0120007904
 20
423.765525793
 10
468.5090010564
 20
420.974761441
 10
470.2276672688
 20
418.2268866433
 10
472.1643317071
 20
415.5277655033
 10
474.3148614321
 20
412.8831580813
 10
476.6746671047
 20
410.298708103
 10
479.2387127808
 20
407.7799309149
 10
482.0015266578
 20
405.3322017144
 10
484.9572127515
 20
402.960744079
 10
488.0994634788
 20
400.6706188187
 10
491.4215731185
 20
398.4667131764
 10
494.916452121
 20
396.3537303977
  0
LWPOLYLINE
  5
10C
330
1F
100
AcDbEntity
  8
0
  6
Continuous
 62
     7
370
    25
100
AcDbPolyline
 90
       10
 70
   128
 43
0.0
 10
440.5045853087
 20
439.6437705271
 10
441.4569700451
 20
440.2989966588
 10
442.1977938584
 20
441.0397402023
 10
442.7045471921
 20
441.84349404
 10
442.9618326024
 20
442.685836518
 10
442.9618326024
 20
443.5411734866
 10
442.7045471921
 20
444.3835159646
 10
442.1977938584
 20
445.1872698022
 10
441.4569700451
 20
445.9280133458
 10
440.5045853087
 20
446.5832394775
  0
ARC
  5
10D
330
1F
100
AcDbEntity
  8
0
  6
Continuous
 62
     7
370
    25
100
AcDbCircle
 10
434.4941776686
 20
435.0469225023
 30
0.0
 40
13.00813627517191
100
AcDbArc
 50
62.4805390039
 51
117.5194609961
  0
LINE
  5
10E
330
1F
100
AcDbEntity
  8
0
  6
Continuous
 62
     7
370
    25
100
AcDbLine
 10
428.4837700285
 20
446.5832394775
 30
0.0
 11
421.4127022167
 21
442.5011989184
 31
0.0
  0
LWPOLYLINE
  5
10F
330
1F
100
AcDbEntity
  8
0
  6
Continuous
 62
     7
370
    25
100
AcDbPolyline
 90
       20
 70
   128
 43
0.0
 10
421.4127022167
 20
442.5011989184
 10
420.50539576
 20
441.8827767383
 10
419.7867865107
 20
441.1865781916
 10
419.2764762559
 20
440.4315937598
 10
418.988384929
 20
439.6384174501
 10
418.9303709105
 20
438.8286850446
 10
419.1040166715
 20
438.0244839324
 10
419.5045856083
 20
437.2477506236
 10
420.1211512446
 20
436.519672378
 10
420.9368952771
 20
435.8601092722
 10
421.9295663349
 20
435.2870524684
 10
423.0720869395
 20
434.8161334622
 10
424.333292107
 20
434.4601976967
 10
425.6787794481
 20
434.2289541716
 10
427.0718475756
 20
434.1287106075
 10
428.4744972225
 20
434.1622013876
 10
429.8484677629
 20
434.3285129705
 10
431.156280862
 20
434.62310881
 10
432.3622627877
 20
435.0379530994
 10
433.4335174968
 20
435.5617299679
  0
LINE
  5
110
330
1F
100
AcDbEntity
  8
0
  6
Continuous
 62
     7
370
    25
100
AcDbLine
 10
433.4335174968
 20
435.5617299679
 30
0.0
 11
440.5045853087
 21
439.6437705271
 31
0.0
  0
LWPOLYLINE
  5
111
330
1F
100
AcDbEntity
  8
0
  6
Continuous
 62
     7
370
    25
100
AcDbPolyline
 90
       10
 70
   128
 43
0.0
 10
581.925941546
 20
358.0029593448
 10
582.8783262824
 20
358.6581854765
 10
583.6191500957
 20
359.3989290201
 10
584.1259034294
 20
360.2026828577
 10
584.3831888397
 20
361.0450253358
 10
584.3831888397
 20
361.9003623043
 10
584.1259034294
 20
362.7427047824
 10
583.6191500957
 20
363.54645862
 10
582.8783262824
 20
364.2872021635
 10
581.925941546
 20
364.9424282953
  0
ARC
  5
112
330
1F
100
AcDbEntity
  8
0
  6
Continuous
 62
     7
370
    25
100
AcDbCircle
 10
575.9155339059
 20
353.40611132
 30
0.0
 40
13.0081362751716
100
AcDbArc
 50
62.4805390039
 51
117.5194609961
  0
LINE
  5
113
330
1F
100
AcDbEntity
  8
0
  6
Continuous
 62
     7
370
    25
100
AcDbLine
 10
569.9051262658
 20
364.9424282953
 30
0.0
 11
562.834058454
 21
360.8603877362
 31
0.0
  0
LWPOLYLINE
  5
114
330
1F
100
AcDbEntity
  8
0
  6
Continuous
 62
     7
370
    25
100
AcDbPolyline
 90
       20
 70
   128
 43
0.0
 10
562.834058454
 20
360.8603877362
 10
561.9267519973
 20
360.241965556
 10
561.208142748
 20
359.5457670093
 10
560.6978324932
 20
358.7907825775
 10
560.4097411663
 20
357.9976062678
 10
560.3517271478
 20
357.1878738623
 10
560.5253729088
 20
356.3836727502
 10
560.9259418456
 20
355.6069394414
 10
561.5425074819
 20
354.8788611958
 10
562.3582515144
 20
354.21929809
 10
563.3509225722
 20
353.6462412861
 10
564.4934431768
 20
353.17532228
 10
565.7546483443
 20
352.8193865144
 10
567.1001356854
 20
352.5881429894
 10
568.493203813
 20
352.4878994253
 10
569.8958534599
 20
352.5213902053
 10
571.2698240002
 20
352.6877017883
 10
572.5776370993
 20
352.9822976277
 10
573.783619025
 20
353.3971419171
 10
574.8548737342
 20
353.9209187857
  0
LINE
  5
115
330
1F
100
AcDbEntity
  8
0
  6
Continuous
 62
     7
370
    25
100
AcDbLine
 10
574.8548737342
 20
353.9209187857
 30
0.0
 11
581.925941546
 21
358.0029593448
 31
0.0
  0
LWPOLYLINE
  5
116
330
1F
100
AcDbEntity
  8
0
  6
Continuous
 62
     7
370
    25
100
AcDbPolyline
 90
       10
 70
   128
 43
0.0
 10
723.3472977833
 20
439.6437705271
 10
724.2996825197
 20
440.2989966588
 10
725.0405063331
 20
441.0397402023
 10
725.5472596667
 20
441.84349404
 10
725.804545077
 20
442.685836518
 10
725.804545077
 20
443.5411734866
 10
725.5472596667
 20
444.3835159646
 10
725.0405063331
 20
445.1872698022
 10
724.2996825197
 20
445.9280133458
 10
723.3472977833
 20
446.5832394775
  0
ARC
  5
117
330
1F
100
AcDbEntity
  8
0
  6
Continuous
 62
     7
370
    25
100
AcDbCircle
 10
717.3368901432
 20
435.0469225023
 30
0.0
 40
13.00813627517165
100
AcDbArc
 50
62.4805390039
 51
117.5194609961
  0
LINE
  5
118
330
1F
100
AcDbEntity
  8
0
  6
Continuous
 62
     7
370
    25
100
AcDbLine
 10
711.3264825032
 20
446.5832394775
 30
0.0
 11
704.2554146913
 21
442.5011989184
 31
0.0
  0
LWPOLYLINE
  5
119
330
1F
100
AcDbEntity
  8
0
  6
Continuous
 62
     7
370
    25
100
AcDbPolyline
 90
       20
 70
   128
 43
0.0
 10
704.2554146913
 20
442.5011989184
 10
703.3481082346
 20
441.8827767383
 10
702.6294989853
 20
441.1865781916
 10
702.1191887305
 20
440.4315937598
 10
701.8310974036
 20
439.6384174501
 10
701.7730833851
 20
438.8286850446
 10
701.9467291461
 20
438.0244839324
 10
702.3472980829
 20
437.2477506236
 10
702.9638637192
 20
436.519672378
 10
703.7796077517
 20
435.8601092722
 10
704.7722788096
 20
435.2870524684
 10
705.9147994141
 20
434.8161334622
 10
707.1760045816
 20
434.4601976967
 10
708.5214919227
 20
434.2289541716
 10
709.9145600503
 20
434.1287106075
 10
711.3172096972
 20
434.1622013876
 10
712.6911802375
 20
434.3285129705
 10
713.9989933366
 20
434.62310881
 10
715.2049752623
 20
435.0379530994
 10
716.2762299715
 20
435.5617299679
  0
LINE
  5
11A
330
1F
100
AcDbEntity
  8
0
  6
Continuous
 62
     7
370
    25
100
AcDbLine
 10
716.2762299715
 20
435.5617299679
 30
0.0
 11
723.3472977833
 21
439.6437705271
 31
0.0
  0
ARC
  5
11B
330
1F
100
AcDbEntity
  8
0
  6
Continuous
 62
     7
370
    25
100
AcDbCircle
 10
579.689889678
 20
523.7901832511
 30
0.0
 40
4.965793809111969
100
AcDbArc
 50
26.3667452594
 51
63.2376493263
  0
ARC
  5
11C
330
1F
100
AcDbEntity
  8
0
  6
Continuous
 62
     7
370
    25
100
AcDbCircle
 10
575.9155339059
 20
516.6877336846
 30
0.0
 40
13.00813627517211
100
AcDbArc
 50
62.4805390039
 51
117.5194609961
  0
LINE
  5
11D
330
1F
100
AcDbEntity
  8
0
  6
Continuous
 62
     7
370
    25
100
AcDbLine
 10
569.9051262658
 20
528.2240506598
 30
0.0
 11
566.5210128215
 21
526.2704435521
 31
0.0
  0
ARC
  5
11E
330
1F
100
AcDbEntity
  8
0
  6
Continuous
 62
     7
370
    25
100
AcDbCircle
 10
570.612233047
 20
359.2861771904
 30
0.0
 40
23.05532861867632
100
AcDbArc
 50
242.6096722366
 51
297.3903277634
  0
LINE
  5
11F
330
1F
100
AcDbEntity
  8
0
  6
Continuous
 62
     7
370
    25
100
AcDbLine
 10
581.2188347648
 20
338.8155109161
 30
0.0
 11
729.711258814
 21
424.5383626575
 31
0.0
  0
LINE
  5
120
330
1F
100
AcDbEntity
  8
0
  6
Continuous
 62
     7
370
    25
100
AcDbLine
 10
415.048741186
 20
422.4973423779
 30
0.0
 11
560.0056313292
 21
338.8155109161
 31
0.0
  0
LWPOLYLINE
  5
121
330
1F
100
AcDbEntity
  8
0
  6
Continuous
 62
     7
370
    25
100
AcDbPolyline
 90
       33
 70
   128
 43
0.0
 10
639.9178182471
 20
423.7336642959
 10
641.2089877816
 20
424.5020107521
 10
644.3873136988
 20
426.5295826403
 10
647.3866180885
 20
428.6460917514
 10
650.1994442075
 20
430.8462761103
 10
652.8187989267
 20
433.124665712
 10
655.2381701177
 20
435.4755961211
 10
657.4515428424
 20
437.8932225541
 10
659.4534143076
 20
440.3715344107
 10
661.2388075454
 20
442.9043702172
 10
662.8032837868
 20
445.4854329447
 10
664.1429534975
 20
448.1083056646
 10
665.2544860473
 20
450.766467502
 10
666.1351179914
 20
453.4533098478
 10
666.7826599399
 20
456.1621527885
 10
667.1955020014
 20
458.8862617139
 10
667.3726177857
 20
461.6188640598
 10
667.3135669549
 20
464.3531661464
 10
667.0184963187
 20
467.0823700677
 10
666.4881394692
 20
469.7996905929
 10
665.7238149572
 20
472.4983720349
 10
664.7274230136
 20
475.1717050466
 10
663.5014408261
 20
477.8130433007
 10
662.0489163793
 20
480.4158200142
 10
660.373460878
 20
482.9735642742
 10
658.4792397685
 20
485.4799171253
 10
656.3709623829
 20
487.9286473796
 10
654.0538702311
 20
490.3136671076
 10
651.5337239692
 20
492.6290467747
 10
648.8167890778
 20
494.8690299822
 10
645.9098202853
 20
497.0280477788
 10
642.820044774
 20
499.1007325061
 10
639.5551442127
 20
501.0819311434
  0
LWPOLYLINE
  5
122
330
1F
100
AcDbEntity
  8
0
  6
Continuous
 62
     7
370
    25
100
AcDbPolyline
 90
       13
 70
   128
 43
0.0
 10
665.5834876661
 20
451.6875152773
 10
664.7274230136
 20
453.9416439375
 10
663.5014408261
 20
456.5829821917
 10
662.0489163793
 20
459.1857589052
 10
660.373460878
 20
461.7435031652
 10
658.4792397685
 20
464.2498560163
 10
656.3709623829
 20
466.6985862705
 10
654.0538702311
 20
469.0836059986
 10
651.5337239692
 20
471.3989856657
 10
648.8167890778
 20
473.6389688731
 10
645.9098202853
 20
475.7979866697
 10
642.820044774
 20
477.8706713971
 10
639.5551442127
 20
479.8518700343
  0
ARC
  5
123
330
1F
100
AcDbEntity
  8
0
  6
Continuous
 62
     7
370
    25
100
AcDbCircle
 10
610.7852863389
 20
411.2430521793
 30
0.0
 40
67.45696003431281
100
AcDbArc
 50
36.055294935
 51
61.3861707151
  0
LINE
  5
124
330
1F
100
AcDbEntity
  8
0
  6
Continuous
 62
     7
370
    25
100
AcDbLine
 10
569.9051262658
 20
353.5108569289
 30
0.0
 11
568.1539528318
 21
352.4999260237
 31
0.0
  0
ARC
  5
125
330
1F
100
AcDbEntity
  8
0
  6
Continuous
 62
     7
370
    25
100
AcDbCircle
 10
575.7391787861
 20
342.5095737333
 30
0.0
 40
12.45248572604881
100
AcDbArc
 50
86.0081782365
 51
117.9373001578
  0
LWPOLYLINE
  5
126
330
1F
100
AcDbEntity
  8
0
  6
Continuous
 62
     7
370
    25
100
AcDbPolyline
 90
       64
 70
   128
 43
0.0
 10
639.5551442127
 20
501.0819311434
 10
636.1232356587
 20
502.9667181186
 10
632.5328513772
 20
504.7504075543
 10
628.7929176295
 20
506.4285649177
 10
624.91273248
 20
507.997018045
 10
620.9019426803
 20
509.4518675147
 10
616.7705196859
 20
510.7894963417
 10
612.5287348654
 20
512.00657897
 10
608.187133964
 20
513.1000895405
 10
603.7565108857
 20
514.0673094136
 10
599.2478808577
 20
514.9058339282
 10
594.6724530444
 20
515.6135783803
 10
590.0416026805
 20
516.1887832057
 10
585.3668427895
 20
516.6300183546
 10
580.659795561
 20
516.9361868468
 10
575.9321634563
 20
517.1065274993
 10
571.1957001134
 20
517.1406168183
 10
566.4621811267
 20
517.0383700524
 10
561.7433747702
 20
516.8000414032
 10
557.0510127399
 20
516.4262233933
 10
552.3967609872
 20
515.9178453932
 10
547.7921907153
 20
515.2761713105
 10
543.2487496113
 20
514.5027964483
 10
538.7777333859
 20
513.5996435383
 10
534.3902576896
 20
512.5689579609
 10
530.0972304785
 20
511.4133021629
 10
525.9093248946
 20
510.1355492866
 10
521.836952731
 20
508.7388760271
 10
517.8902385467
 20
507.2267547341
 10
514.0789944948
 20
505.6029447794
 10
510.4126959286
 20
503.8714832104
 10
506.900457844
 20
502.0366747134
 10
503.5510122184
 20
500.1030809114
 10
500.3726863012
 20
498.0755090233
 10
497.3733819115
 20
495.9589999122
 10
494.5605557925
 20
493.7588155533
 10
491.9412010733
 20
491.4804259515
 10
489.5218298823
 20
489.1294955424
 10
487.3084571576
 20
486.7118691095
 10
485.3065856924
 20
484.2335572528
 10
483.5211924546
 20
481.7007214463
 10
481.9567162132
 20
479.1196587188
 10
480.6170465025
 20
476.496785999
 10
479.5055139527
 20
473.8386241615
 10
478.6248820086
 20
471.1517818158
 10
477.9773400601
 20
468.442938875
 10
477.5644979986
 20
465.7188299497
 10
477.3873822143
 20
462.9862276037
 10
477.4464330451
 20
460.2519255172
 10
477.7415036813
 20
457.5227215958
 10
478.2718605308
 20
454.8054010706
 10
479.0361850428
 20
452.1067196286
 10
480.0325769864
 20
449.433386617
 10
481.2585591739
 20
446.7920483629
 10
482.7110836207
 20
444.1892716493
 10
484.386539122
 20
441.6315273894
 10
486.2807602315
 20
439.1251745382
 10
488.3890376171
 20
436.676444284
 10
490.7061297689
 20
434.2914245559
 10
493.2262760308
 20
431.9760448888
 10
495.9432109222
 20
429.7360616814
 10
498.8501797147
 20
427.5770438848
 10
501.939955226
 20
425.5043591575
 10
504.8421817529
 20
423.7336642959
  0
LWPOLYLINE
  5
127
330
1F
100
AcDbEntity
  8
0
  6
Continuous
 62
     7
370
    25
100
AcDbPolyline
 90
       45
 70
   128
 43
0.0
 10
639.5551442127
 20
479.8518700343
 10
636.1232356587
 20
481.7366570095
 10
632.5328513772
 20
483.5203464453
 10
628.7929176295
 20
485.1985038087
 10
624.91273248
 20
486.766956936
 10
620.9019426803
 20
488.2218064056
 10
616.7705196859
 20
489.5594352327
 10
612.5287348654
 20
490.776517861
 10
608.187133964
 20
491.8700284315
 10
603.7565108857
 20
492.8372483045
 10
599.2478808577
 20
493.6757728192
 10
594.6724530444
 20
494.3835172713
 10
590.0416026805
 20
494.9587220967
 10
585.3668427895
 20
495.3999572456
 10
580.659795561
 20
495.7061257378
 10
575.9321634563
 20
495.8764663903
 10
571.1957001134
 20
495.9105557093
 10
566.4621811267
 20
495.8083089434
 10
561.7433747702
 20
495.5699802942
 10
557.0510127399
 20
495.1961622843
 10
552.3967609872
 20
494.6877842841
 10
547.7921907153
 20
494.0461102015
 10
543.2487496113
 20
493.2727353393
 10
538.7777333859
 20
492.3695824293
 10
534.3902576896
 20
491.3388968519
 10
530.0972304785
 20
490.1832410538
 10
525.9093248946
 20
488.9054881776
 10
521.836952731
 20
487.508814918
 10
517.8902385467
 20
485.996693625
 10
514.0789944948
 20
484.3728836703
 10
510.4126959286
 20
482.6414221014
 10
506.900457844
 20
480.8066136044
 10
503.5510122184
 20
478.8730198024
 10
500.3726863012
 20
476.8454479142
 10
497.3733819115
 20
474.7289388032
 10
494.5605557925
 20
472.5287544442
 10
491.9412010733
 20
470.2503648425
 10
489.5218298823
 20
467.8994344334
 10
487.3084571576
 20
465.4818080004
 10
485.3065856924
 20
463.0034961438
 10
483.5211924546
 20
460.4706603373
 10
481.9567162132
 20
457.8895976098
 10
480.6170465025
 20
455.2667248899
 10
479.5055139527
 20
452.6085630525
 10
479.1765123339
 20
451.6875152773
  0
LWPOLYLINE
  5
128
330
1F
100
AcDbEntity
  8
0
  6
Continuous
 62
     7
370
    25
100
AcDbPolyline
 90
       42
 70
   128
 43
0.0
 10
643.0906781187
 20
470.4613189475
 10
639.5918322576
 20
472.3858217208
 10
635.9360100481
 20
474.2104917801
 10
632.1317498322
 20
475.9310675239
 10
628.1879366359
 20
477.5435304676
 10
624.1137814178
 20
479.0441146296
 10
619.918799556
 20
480.4293153259
 10
615.6127886252
 20
481.695897356
 10
611.2058055133
 20
482.8409025591
 10
606.7081429336
 20
483.8616567223
 10
602.1303053855
 20
484.755775827
 10
597.4829846207
 20
485.5211716167
 10
592.7770346722
 20
486.156056474
 10
588.023446504
 20
486.6589475959
 10
583.2333223417
 20
487.0286704569
 10
578.4178497422
 20
487.2643615521
 10
573.5882754649
 20
487.365470414
 10
568.7558792042
 20
487.3317608982
 10
563.9319472456
 20
487.1633117349
 10
559.1277461056
 20
486.8605163448
 10
554.3544962186
 20
486.4240819207
 10
549.6233457309
 20
485.8550277753
 10
544.9453444638
 20
485.154682961
 10
540.3314181058
 20
484.3246831655
 10
535.7923426958
 20
483.3669668918
 10
531.3387194547
 20
482.2837709307
 10
526.980950026
 20
481.0776251365
 10
522.7292121822
 20
479.7513465186
 10
518.5934360538
 20
478.3080326622
 10
514.5832809378
 20
476.7510544936
 10
510.7081127371
 20
475.0840484076
 10
506.9769820868
 20
473.310907774
 10
503.3986032153
 20
471.4357738449
 10
499.9813335922
 20
469.4630260827
 10
496.7331544091
 20
467.3972719309
 10
493.6616519391
 20
465.2433360543
 10
490.7739998184
 20
463.0062490698
 10
488.0769422923
 20
460.6912357978
 10
485.5767784638
 20
458.3037030589
 10
483.2793475812
 20
455.8492270467
 10
481.1900154008
 20
453.3335403034
 10
479.4391775815
 20
450.9459080159
  0
ARC
  5
129
330
1F
100
AcDbEntity
  8
0
  6
Continuous
 62
     7
370
    25
100
AcDbCircle
 10
418.1945603677
 20
429.3922188051
 30
0.0
 40
7.578621198559508
100
AcDbArc
 50
185.8452026488
 51
245.4749383088
  0
ARC
  5
12A
330
1F
100
AcDbEntity
  8
0
  6
Continuous
 62
     7
370
    25
100
AcDbCircle
 10
726.5654396323
 20
431.4332390847
 30
0.0
 40
7.578621198559638
100
AcDbArc
 50
294.5250616912
 51
354.1547973512
  0
LINE
  5
12B
330
1F
100
AcDbEntity
  8
0
  6
Continuous
 62
     7
370
    25
100
AcDbLine
 10
711.3264825032
 20
435.1516681111
 30
0.0
 11
709.5753090691
 21
434.1407372059
 31
0.0
  0
LINE
  5
12C
330
1F
100
AcDbEntity
  8
0
  6
Continuous
 62
     7
370
    25
100
AcDbLine
 10
428.4837700285
 20
435.1516681111
 30
0.0
 11
426.7325965945
 21
434.1407372059
 31
0.0
  0
ARC
  5
12D
330
1F
100
AcDbEntity
  8
0
  6
Continuous
 62
     7
370
    25
100
AcDbCircle
 10
717.1605350234
 20
424.1503849156
 30
0.0
 40
12.45248572604747
100
AcDbArc
 50
86.0081782365
 51
117.9373001578
  0
ARC
  5
12E
330
1F
100
AcDbEntity
  8
0
  6
Continuous
 62
     7
370
    25
100
AcDbCircle
 10
434.3178225488
 20
424.1503849156
 30
0.0
 40
12.45248572604797
100
AcDbArc
 50
86.0081782365
 51
117.9373001578
  0
LWPOLYLINE
  5
12F
330
1F
100
AcDbEntity
  8
0
  6
HIDDEN
 62
     7
370
    18
100
AcDbPolyline
 90
       18
 70
   128
 43
0.0
 10
681.93
 20
441.0724847227
 10
681.8131073896
 20
443.9932129579
 10
681.4626790131
 20
446.9077082118
 10
680.8794627024
 20
449.8097508046
 10
680.0647030704
 20
452.6931476314
 10
679.0201388552
 20
455.5517453779
 10
677.7479992096
 20
458.3794436524
 10
676.2509989436
 20
461.1702080044
 10
674.5323327312
 20
463.9180828021
 10
672.5956682929
 20
466.6172039422
 10
670.4451385679
 20
469.2618113642
 10
668.0853328953
 20
471.8462613425
 10
665.5212872192
 20
474.3650385306
 10
662.7584733422
 20
476.8127677311
 10
659.8027872486
 20
479.1842253665
 10
656.6605365212
 20
481.4743506268
 10
653.3384268815
 20
483.6782562691
 10
649.843547879
 20
485.7912390478
  0
LINE
  5
130
330
1F
100
AcDbEntity
  8
0
  6
HIDDEN
 62
     7
370
    18
100
AcDbLine
 10
552.0462496064
 20
525.2620136191
 30
0.0
 11
464.7336294391
 21
474.8575108865
 31
0.0
  0
LINE
  5
131
330
1F
100
AcDbEntity
  8
0
  6
HIDDEN
 62
     7
370
    18
100
AcDbLine
 10
679.0830271691
 20
477.4431117144
 30
0.0
 11
597.1926276913
 21
524.7174330707
 31
0.0
  0
LWPOLYLINE
  5
132
330
1F
100
AcDbEntity
  8
0
  6
HIDDEN
 62
     7
370
    18
100
AcDbPolyline
 90
       52
 70
   128
 43
0.0
 10
649.843547879
 20
485.7912390478
 10
646.1833577615
 20
487.8087897512
 10
642.3656675592
 20
489.7266028244
 10
638.3986244153
 20
491.5405855576
 10
634.2906942
 20
493.2468668203
 10
630.0506434432
 20
494.8418053222
 10
625.687520627
 20
496.3219973843
 10
621.2106368753
 20
497.684284202
 10
616.6295460837
 20
498.9257585867
 10
611.9540245308
 20
500.0437711694
 10
607.1940500152
 20
501.0359360549
 10
602.3597805624
 20
501.9001359135
 10
597.461532747
 20
502.634526499
 10
592.5097596768
 20
503.2375405848
 10
587.515028685
 20
503.7078913087
 10
582.4879987792
 20
504.0445749184
 10
577.4393978946
 20
504.2468729141
 10
572.38
 20
504.3143535817
 10
567.3206021054
 20
504.2468729141
 10
562.2720012208
 20
504.0445749184
 10
557.244971315
 20
503.7078913087
 10
552.2502403232
 20
503.2375405848
 10
547.298467253
 20
502.634526499
 10
542.4002194376
 20
501.9001359135
 10
537.5659499848
 20
501.0359360549
 10
532.8059754692
 20
500.0437711694
 10
528.1304539163
 20
498.9257585867
 10
523.5493631247
 20
497.684284202
 10
519.072479373
 20
496.3219973843
 10
514.7093565568
 20
494.8418053222
 10
510.4693058
 20
493.2468668203
 10
506.3613755847
 20
491.5405855576
 10
502.3943324408
 20
489.7266028244
 10
498.5766422385
 20
487.8087897512
 10
494.916452121
 20
485.7912390478
 10
491.4215731185
 20
483.6782562691
 10
488.0994634788
 20
481.4743506268
 10
484.9572127515
 20
479.1842253665
 10
482.0015266578
 20
476.8127677311
 10
479.2387127808
 20
474.3650385306
 10
476.6746671047
 20
471.8462613425
 10
474.3148614321
 20
469.2618113642
 10
472.1643317071
 20
466.6172039422
 10
470.2276672688
 20
463.9180828021
 10
468.5090010564
 20
461.1702080044
 10
467.0120007904
 20
458.3794436524
 10
465.7398611448
 20
455.5517453779
 10
464.6952969296
 20
452.6931476314
 10
463.8805372976
 20
449.8097508046
 10
463.2973209869
 20
446.9077082118
 10
462.9468926104
 20
443.9932129579
 10
462.83
 20
441.0724847227
  0
ARC
  5
133
330
1F
100
AcDbEntity
  8
0
  6
HIDDEN
 62
     7
370
    18
100
AcDbCircle
 10
580.5573560209
 20
524.8028668489
 30
0.0
 40
3.775096907786917
100
AcDbArc
 50
291.2556477022
 51
18.4175211038
  0
LINE
  5
134
330
1F
100
AcDbEntity
  8
0
  6
HIDDEN
 62
     7
370
    18
100
AcDbLine
 10
566.5210128215
 20
526.2704435521
 30
0.0
 11
562.834058454
 21
524.1420101007
 31
0.0
  0
LWPOLYLINE
  5
135
330
1F
100
AcDbEntity
  8
0
  6
HIDDEN
 62
     7
370
    18
100
AcDbPolyline
 90
       20
 70
   128
 43
0.0
 10
562.834058454
 20
524.1420101007
 10
561.9267519973
 20
523.5235879206
 10
561.208142748
 20
522.8273893739
 10
560.6978324932
 20
522.0724049421
 10
560.4097411663
 20
521.2792286324
 10
560.3517271478
 20
520.4694962269
 10
560.5253729088
 20
519.6652951147
 10
560.9259418456
 20
518.8885618059
 10
561.5425074819
 20
518.1604835603
 10
562.3582515144
 20
517.5009204545
 10
563.3509225722
 20
516.9278636506
 10
564.4934431768
 20
516.4569446445
 10
565.7546483443
 20
516.101008879
 10
567.1001356854
 20
515.8697653539
 10
568.493203813
 20
515.7695217898
 10
569.8958534599
 20
515.8030125698
 10
571.2698240002
 20
515.9693241528
 10
572.5776370993
 20
516.2639199923
 10
573.783619025
 20
516.6787642817
 10
574.8548737342
 20
517.2025411502
  0
LINE
  5
136
330
1F
100
AcDbEntity
  8
0
  6
HIDDEN
 62
     7
370
    18
100
AcDbLine
 10
574.8548737342
 20
517.2025411502
 30
0.0
 11
581.925941546
 21
521.2845817093
 31
0.0
  0
LWPOLYLINE
  5
137
330
1F
100
AcDbEntity
  8
0
  6
HIDDEN
 62
     7
370
    18
100
AcDbPolyline
 90
       20
 70
   128
 43
0.0
 10
562.834058454
 20
349.4288163698
 10
561.9267519973
 20
348.8103941896
 10
561.208142748
 20
348.1141956429
 10
560.6978324932
 20
347.3592112111
 10
560.4097411663
 20
346.5660349014
 10
560.3517271478
 20
345.7563024959
 10
560.5253729088
 20
344.9521013838
 10
560.9259418456
 20
344.175368075
 10
561.5425074819
 20
343.4472898294
 10
562.3582515144
 20
342.7877267236
 10
563.3509225722
 20
342.2146699197
 10
564.4934431768
 20
341.7437509136
 10
565.7546483443
 20
341.387815148
 10
567.1001356854
 20
341.156571623
 10
568.493203813
 20
341.0563280589
 10
569.8958534599
 20
341.0898188389
 10
571.2698240002
 20
341.2561304219
 10
572.5776370993
 20
341.5507262613
 10
573.783619025
 20
341.9655705507
 10
574.8548737342
 20
342.4893474193
  0
LINE
  5
138
330
1F
100
AcDbEntity
  8
0
  6
HIDDEN
 62
     7
370
    18
100
AcDbLine
 10
505.2048557873
 20
423.5231605202
 30
0.0
 11
504.4977490061
 21
423.9314972762
 31
0.0
  0
LWPOLYLINE
  5
139
330
1F
100
AcDbEntity
  8
0
  6
HIDDEN
 62
     7
370
    18
100
AcDbPolyline
 90
       33
 70
   128
 43
0.0
 10
505.2048557873
 20
423.5231605202
 10
508.6367643413
 20
421.638373545
 10
512.2271486228
 20
419.8546841092
 10
515.9670823705
 20
418.1765267459
 10
519.84726752
 20
416.6080736186
 10
523.8580573197
 20
415.1532241489
 10
527.9894803141
 20
413.8155953219
 10
532.2312651346
 20
412.5985126935
 10
536.572866036
 20
411.505002123
 10
541.0034891143
 20
410.53778225
 10
545.5121191423
 20
409.6992577354
 10
550.0875469556
 20
408.9915132832
 10
554.7183973195
 20
408.4163084578
 10
559.3931572105
 20
407.9750733089
 10
564.100204439
 20
407.6689048167
 10
568.8278365437
 20
407.4985641643
 10
573.5642998866
 20
407.4644748453
 10
578.2978188733
 20
407.5667216111
 10
583.0166252298
 20
407.8050502603
 10
587.7089872601
 20
408.1788682702
 10
592.3632390128
 20
408.6872462704
 10
596.9678092847
 20
409.328920353
 10
601.5112503887
 20
410.1022952152
 10
605.9822666141
 20
411.0054481252
 10
610.3697423104
 20
412.0361337026
 10
614.6627695215
 20
413.1917895007
 10
618.8506751054
 20
414.4695423769
 10
622.923047269
 20
415.8662156365
 10
626.8697614534
 20
417.3783369295
 10
630.6810055052
 20
419.0021468842
 10
634.3473040714
 20
420.7336084532
 10
637.859542156
 20
422.5684169502
 10
639.9178182471
 20
423.7336642959
  0
LWPOLYLINE
  5
13A
330
1F
100
AcDbEntity
  8
0
  6
HIDDEN
 62
     7
370
    18
100
AcDbPolyline
 90
       53
 70
   128
 43
0.0
 10
505.2048557873
 20
402.2930994112
 10
508.6367643413
 20
400.408312436
 10
512.2271486228
 20
398.6246230002
 10
515.9670823705
 20
396.9464656368
 10
519.84726752
 20
395.3780125095
 10
523.8580573197
 20
393.9231630399
 10
527.9894803141
 20
392.5855342128
 10
532.2312651346
 20
391.3684515845
 10
536.572866036
 20
390.274941014
 10
541.0034891143
 20
389.3077211409
 10
545.5121191423
 20
388.4691966263
 10
550.0875469556
 20
387.7614521742
 10
554.7183973195
 20
387.1862473488
 10
559.3931572105
 20
386.7450121999
 10
564.100204439
 20
386.4388437077
 10
568.8278365437
 20
386.2685030552
 10
573.5642998866
 20
386.2344137362
 10
578.2978188733
 20
386.3366605021
 10
583.0166252298
 20
386.5749891513
 10
587.7089872601
 20
386.9488071612
 10
592.3632390128
 20
387.4571851614
 10
596.9678092847
 20
388.098859244
 10
601.5112503887
 20
388.8722341062
 10
605.9822666141
 20
389.7753870162
 10
610.3697423104
 20
390.8060725936
 10
614.6627695215
 20
391.9617283916
 10
618.8506751054
 20
393.2394812679
 10
622.923047269
 20
394.6361545274
 10
626.8697614534
 20
396.1482758205
 10
630.6810055052
 20
397.7720857751
 10
634.3473040714
 20
399.5035473441
 10
637.859542156
 20
401.3383558411
 10
641.2089877816
 20
403.2719496431
 10
644.3873136988
 20
405.2995215312
 10
647.3866180885
 20
407.4160306423
 10
650.1994442075
 20
409.6162150013
 10
652.8187989267
 20
411.894604603
 10
655.2381701177
 20
414.2455350121
 10
657.4515428424
 20
416.663161445
 10
659.4534143076
 20
419.1414733017
 10
661.2388075454
 20
421.6743091082
 10
662.8032837868
 20
424.2553718357
 10
664.1429534975
 20
426.8782445556
 10
665.2544860473
 20
429.536406393
 10
666.1351179914
 20
432.2232487388
 10
666.7826599399
 20
434.9320916795
 10
667.1955020014
 20
437.6562006049
 10
667.3726177857
 20
440.3888029508
 10
667.3135669549
 20
443.1231050374
 10
667.0184963187
 20
445.8523089587
 10
666.4881394692
 20
448.5696294839
 10
665.7238149572
 20
451.2683109259
 10
665.5834876661
 20
451.6875152773
  0
LINE
  5
13B
330
1F
100
AcDbEntity
  8
0
  6
HIDDEN
 62
     7
370
    18
100
AcDbLine
 10
574.8548737342
 20
342.4893474193
 30
0.0
 11
581.925941546
 21
346.5713879784
 31
0.0
  0
LWPOLYLINE
  5
13C
330
1F
100
AcDbEntity
  8
0
  6
HIDDEN
 62
     7
370
    18
100
AcDbPolyline
 90
       10
 70
   128
 43
0.0
 10
581.925941546
 20
346.5713879784
 10
582.8783262824
 20
347.2266141101
 10
583.6191500957
 20
347.9673576537
 10
584.1259034294
 20
348.7711114913
 10
584.3831888397
 20
349.6134539694
 10
584.3831888397
 20
350.4687909379
 10
584.1259034294
 20
351.311133416
 10
583.6191500957
 20
352.1148872536
 10
582.8783262824
 20
352.8556307971
 10
581.925941546
 20
353.5108569289
  0
LWPOLYLINE
  5
13D
330
1F
100
AcDbEntity
  8
0
  6
HIDDEN
 62
     7
370
    18
100
AcDbPolyline
 90
       66
 70
   128
 43
0.0
 10
501.6693218813
 20
400.2520791316
 10
505.1681677424
 20
398.3275763582
 10
508.8239899519
 20
396.502906299
 10
512.6282501678
 20
394.7823305552
 10
516.5720633641
 20
393.1698676114
 10
520.6462185822
 20
391.6692834495
 10
524.841200444
 20
390.2840827532
 10
529.1472113748
 20
389.0175007231
 10
533.5541944867
 20
387.87249552
 10
538.0518570664
 20
386.8517413568
 10
542.6296946145
 20
385.957622252
 10
547.2770153793
 20
385.1922264623
 10
551.9829653278
 20
384.5573416051
 10
556.736553496
 20
384.0544504832
 10
561.5266776583
 20
383.6847276222
 10
566.3421502578
 20
383.449036527
 10
571.1717245351
 20
383.3479276651
 10
576.0041207958
 20
383.3816371809
 10
580.8280527544
 20
383.5500863442
 10
585.6322538944
 20
383.8528817343
 10
590.4055037814
 20
384.2893161584
 10
595.1366542691
 20
384.8583703038
 10
599.8146555362
 20
385.5587151181
 10
604.4285818942
 20
386.3887149136
 10
608.9676573042
 20
387.3464311872
 10
613.4212805453
 20
388.4296271483
 10
617.779049974
 20
389.6357729425
 10
622.0307878178
 20
390.9620515604
 10
626.1665639462
 20
392.4053654169
 10
630.1767190622
 20
393.9623435854
 10
634.0518872629
 20
395.6293496715
 10
637.7830179132
 20
397.4024903051
 10
641.3613967847
 20
399.2776242341
 10
644.7786664078
 20
401.2503719964
 10
648.0268455909
 20
403.3161261481
 10
651.0983480609
 20
405.4700620248
 10
653.9860001816
 20
407.7071490093
 10
656.6830577077
 20
410.0221622813
 10
659.1832215362
 20
412.4096950201
 10
661.4806524188
 20
414.8641710324
 10
663.5699845992
 20
417.3798577757
 10
665.4463383452
 20
419.950879747
 10
667.1053313458
 20
422.5712322054
 10
668.5430889459
 20
425.2347951964
 10
669.7562531959
 20
427.935347845
 10
670.7419906947
 20
430.6665828856
 10
671.4979992066
 20
433.4221213921
 10
672.0225130387
 20
436.1955276766
 10
672.3143071645
 20
438.9803243202
 10
672.3727000856
 20
441.7700073014
 10
672.1975554223
 20
444.5580611864
 10
671.7892822333
 20
447.3379743459
 10
671.1488340595
 20
450.1032541642
 10
670.2777066973
 20
452.847442202
 10
669.1779347049
 20
455.5641292809
 10
667.8520866509
 20
458.2469704526
 10
666.3032591147
 20
460.889699817
 10
664.5350694549
 20
463.4861451574
 10
662.5516473604
 20
466.0302423552
 10
660.3576252054
 20
468.5160495537
 10
657.9581272301
 20
470.9377610349
 10
655.3587575735
 20
473.2897207795
 10
652.5655871837
 20
475.5664356765
 10
649.5851396396
 20
477.7625883527
 10
646.4243759145
 20
479.8730495918
 10
643.0906781187
 20
481.8928903139
  0
LWPOLYLINE
  5
13E
330
1F
100
AcDbEntity
  8
0
  6
HIDDEN
 62
     7
370
    18
100
AcDbPolyline
 90
       58
 70
   128
 43
0.0
 10
501.6693218813
 20
388.8205077652
 10
505.1681677424
 20
386.8960049918
 10
508.8239899519
 20
385.0713349326
 10
512.6282501678
 20
383.3507591888
 10
516.5720633641
 20
381.738296245
 10
520.6462185822
 20
380.2377120831
 10
524.841200444
 20
378.8525113868
 10
529.1472113748
 20
377.5859293567
 10
533.5541944867
 20
376.4409241536
 10
538.0518570664
 20
375.4201699904
 10
542.6296946145
 20
374.5260508856
 10
547.2770153793
 20
373.7606550959
 10
551.9829653278
 20
373.1257702387
 10
556.736553496
 20
372.6228791168
 10
561.5266776583
 20
372.2531562558
 10
566.3421502578
 20
372.0174651606
 10
571.1717245351
 20
371.9163562987
 10
576.0041207958
 20
371.9500658145
 10
580.8280527544
 20
372.1185149778
 10
585.6322538944
 20
372.4213103679
 10
590.4055037814
 20
372.857744792
 10
595.1366542691
 20
373.4267989374
 10
599.8146555362
 20
374.1271437517
 10
604.4285818942
 20
374.9571435472
 10
608.9676573042
 20
375.9148598208
 10
613.4212805453
 20
376.9980557819
 10
617.779049974
 20
378.2042015761
 10
622.0307878178
 20
379.530480194
 10
626.1665639462
 20
380.9737940505
 10
630.1767190622
 20
382.530772219
 10
634.0518872629
 20
384.1977783051
 10
637.7830179132
 20
385.9709189387
 10
641.3613967847
 20
387.8460528677
 10
644.7786664078
 20
389.81880063
 10
648.0268455909
 20
391.8845547817
 10
651.0983480609
 20
394.0384906584
 10
653.9860001816
 20
396.2755776429
 10
656.6830577077
 20
398.5905909149
 10
659.1832215362
 20
400.9781236537
 10
661.4806524188
 20
403.432599666
 10
663.5699845992
 20
405.9482864093
 10
665.4463383452
 20
408.5193083806
 10
667.1053313458
 20
411.139660839
 10
668.5430889459
 20
413.80322383
 10
669.7562531959
 20
416.5037764786
 10
670.7419906947
 20
419.2350115192
 10
671.4979992066
 20
421.9905500257
 10
672.0225130387
 20
424.7639563102
 10
672.3143071645
 20
427.5487529538
 10
672.3727000856
 20
430.338435935
 10
672.1975554223
 20
433.1264898199
 10
671.7892822333
 20
435.9064029795
 10
671.1488340595
 20
438.6716827978
 10
670.2777066973
 20
441.4158708356
 10
669.1779347049
 20
444.1325579145
 10
667.8520866509
 20
446.8153990862
 10
666.3032591147
 20
449.4581284506
 10
665.3208224185
 20
450.9459080159
  0
LINE
  5
13F
330
1F
100
AcDbEntity
  8
0
  6
HIDDEN
 62
     7
370
    18
100
AcDbLine
 10
568.1539528318
 20
352.4999260237
 30
0.0
 11
562.834058454
 21
349.4288163698
 31
0.0
  0
ARC
  5
140
330
1F
100
AcDbEntity
  8
0
  6
HIDDEN
 62
     7
370
    18
100
AcDbCircle
 10
576.1844514099
 20
342.6847125627
 30
0.0
 40
12.25439149119139
100
AcDbArc
 50
62.0613991675
 51
88.0284271711
  0
LWPOLYLINE
  5
141
330
1F
100
AcDbEntity
  8
0
  6
HIDDEN
 62
     7
370
    18
100
AcDbPolyline
 90
       14
 70
   128
 43
0.0
 10
569.5515728753
 20
389.7775238969
 10
570.3106487433
 20
389.4342120696
 10
571.1899877846
 20
389.2057456217
 10
572.1384860103
 20
389.1054021927
 10
573.1010201513
 20
389.139013378
 10
574.0216512218
 20
389.3046258176
 10
574.8468754905
 20
389.5926147185
 10
575.5287339224
 20
389.9862432126
 10
576.027599384
 20
390.4626350427
 10
576.3144796278
 20
390.9941040471
 10
576.3727022169
 20
391.5497631791
 10
576.198883466
 20
392.0973195498
 10
575.8031250892
 20
392.604951173
 10
575.2084271247
 20
393.0431563442
  0
LWPOLYLINE
  5
142
330
1F
100
AcDbEntity
  8
0
  6
HIDDEN
 62
     7
370
    18
100
AcDbPolyline
 90
       14
 70
   128
 43
0.0
 10
575.2084271247
 20
393.0431563442
 10
574.4493512567
 20
393.3864681715
 10
573.5700122154
 20
393.6149346194
 10
572.6215139897
 20
393.7152780484
 10
571.6589798487
 20
393.6816668631
 10
570.7383487782
 20
393.5160544235
 10
569.9131245095
 20
393.2280655226
 10
569.2312660776
 20
392.8344370285
 10
568.732400616
 20
392.3580451984
 10
568.4455203722
 20
391.826576194
 10
568.3872977831
 20
391.270917062
 10
568.561116534
 20
390.7233606914
 10
568.9568749108
 20
390.2157290681
 10
569.5515728753
 20
389.7775238969
  0
LWPOLYLINE
  5
143
330
1F
100
AcDbEntity
  8
0
  6
HIDDEN
 62
     7
370
    18
100
AcDbPolyline
 90
       14
 70
   128
 43
0.0
 10
642.3835713375
 20
407.1931404829
 10
643.1426472055
 20
406.8498286556
 10
644.0219862468
 20
406.6213622077
 10
644.9704844725
 20
406.5210187787
 10
645.9330186135
 20
406.5546299639
 10
646.853649684
 20
406.7202424035
 10
647.6788739527
 20
407.0082313045
 10
648.3607323847
 20
407.4018597986
 10
648.8595978462
 20
407.8782516286
 10
649.14647809
 20
408.409720633
 10
649.2047006791
 20
408.965379765
 10
649.0308819282
 20
409.5129361357
 10
648.6351235514
 20
410.020567759
 10
648.040425587
 20
410.4587729301
  0
LWPOLYLINE
  5
144
330
1F
100
AcDbEntity
  8
0
  6
HIDDEN
 62
     7
370
    18
100
AcDbPolyline
 90
       14
 70
   128
 43
0.0
 10
496.719574413
 20
407.1931404829
 10
497.4786502811
 20
406.8498286556
 10
498.3579893224
 20
406.6213622077
 10
499.3064875481
 20
406.5210187787
 10
500.269021689
 20
406.5546299639
 10
501.1896527596
 20
406.7202424035
 10
502.0148770283
 20
407.0082313045
 10
502.6967354602
 20
407.4018597986
 10
503.1956009218
 20
407.8782516286
 10
503.4824811656
 20
408.409720633
 10
503.5407037547
 20
408.965379765
 10
503.3668850038
 20
409.5129361357
 10
502.971126627
 20
410.020567759
 10
502.3764286625
 20
410.4587729301
  0
LWPOLYLINE
  5
145
330
1F
100
AcDbEntity
  8
0
  6
HIDDEN
 62
     7
370
    18
100
AcDbPolyline
 90
       14
 70
   128
 43
0.0
 10
648.040425587
 20
410.4587729301
 10
647.2813497189
 20
410.8020847574
 10
646.4020106776
 20
411.0305512053
 10
645.4535124519
 20
411.1308946343
 10
644.490978311
 20
411.0972834491
 10
643.5703472404
 20
410.9316710095
 10
642.7451229717
 20
410.6436821086
 10
642.0632645398
 20
410.2500536144
 10
641.5643990782
 20
409.7736617844
 10
641.2775188344
 20
409.24219278
 10
641.2192962453
 20
408.686533648
 10
641.3931149962
 20
408.1389772773
 10
641.788873373
 20
407.631345654
 10
642.3835713375
 20
407.1931404829
  0
LWPOLYLINE
  5
146
330
1F
100
AcDbEntity
  8
0
  6
HIDDEN
 62
     7
370
    18
100
AcDbPolyline
 90
       14
 70
   128
 43
0.0
 10
502.3764286625
 20
410.4587729301
 10
501.6173527945
 20
410.8020847574
 10
500.7380137532
 20
411.0305512053
 10
499.7895155275
 20
411.1308946343
 10
498.8269813865
 20
411.0972834491
 10
497.906350316
 20
410.9316710095
 10
497.0811260473
 20
410.6436821086
 10
496.3992676153
 20
410.2500536144
 10
495.9004021538
 20
409.7736617844
 10
495.61352191
 20
409.24219278
 10
495.5552993209
 20
408.686533648
 10
495.7291180718
 20
408.1389772773
 10
496.1248764486
 20
407.631345654
 10
496.719574413
 20
407.1931404829
  0
LINE
  5
147
330
1F
100
AcDbEntity
  8
0
  6
HIDDEN
 62
     7
370
    18
100
AcDbLine
 10
504.8421817529
 20
423.7336642959
 30
0.0
 11
505.2048557873
 21
423.5231605202
 31
0.0
  0
LWPOLYLINE
  5
148
330
1F
100
AcDbEntity
  8
0
  6
HIDDEN
 62
     7
370
    18
100
AcDbPolyline
 90
       21
 70
   128
 43
0.0
 10
479.1765123339
 20
451.6875152773
 10
478.6248820086
 20
449.9217207067
 10
477.9773400601
 20
447.212877766
 10
477.5644979986
 20
444.4887688406
 10
477.3873822143
 20
441.7561664947
 10
477.4464330451
 20
439.0218644081
 10
477.7415036813
 20
436.2926604868
 10
478.2718605308
 20
433.5753399616
 10
479.0361850428
 20
430.8766585196
 10
480.0325769864
 20
428.2033255079
 10
481.2585591739
 20
425.5619872538
 10
482.7110836207
 20
422.9592105403
 10
484.386539122
 20
420.4014662803
 10
486.2807602315
 20
417.8951134292
 10
488.3890376171
 20
415.446383175
 10
490.7061297689
 20
413.0613634469
 10
493.2262760308
 20
410.7459837798
 10
495.9432109222
 20
408.5060005723
 10
498.8501797147
 20
406.3469827758
 10
501.939955226
 20
404.2742980484
 10
505.2048557873
 20
402.2930994112
  0
LWPOLYLINE
  5
149
330
1F
100
AcDbEntity
  8
0
  6
HIDDEN
 62
     7
370
    18
100
AcDbPolyline
 90
       66
 70
   128
 43
0.0
 10
643.0906781187
 20
481.8928903139
 10
639.5918322576
 20
483.8173930872
 10
635.9360100481
 20
485.6420631465
 10
632.1317498322
 20
487.3626388903
 10
628.1879366359
 20
488.975101834
 10
624.1137814178
 20
490.475685996
 10
619.918799556
 20
491.8608866923
 10
615.6127886252
 20
493.1274687224
 10
611.2058055133
 20
494.2724739255
 10
606.7081429336
 20
495.2932280887
 10
602.1303053855
 20
496.1873471934
 10
597.4829846207
 20
496.9527429831
 10
592.7770346722
 20
497.5876278404
 10
588.023446504
 20
498.0905189623
 10
583.2333223417
 20
498.4602418233
 10
578.4178497422
 20
498.6959329185
 10
573.5882754649
 20
498.7970417804
 10
568.7558792042
 20
498.7633322646
 10
563.9319472456
 20
498.5948831013
 10
559.1277461056
 20
498.2920877112
 10
554.3544962186
 20
497.8556532871
 10
549.6233457309
 20
497.2865991417
 10
544.9453444638
 20
496.5862543274
 10
540.3314181058
 20
495.7562545319
 10
535.7923426958
 20
494.7985382582
 10
531.3387194547
 20
493.7153422971
 10
526.980950026
 20
492.5091965029
 10
522.7292121822
 20
491.182917885
 10
518.5934360538
 20
489.7396040286
 10
514.5832809378
 20
488.18262586
 10
510.7081127371
 20
486.515619774
 10
506.9769820868
 20
484.7424791404
 10
503.3986032153
 20
482.8673452113
 10
499.9813335922
 20
480.8945974491
 10
496.7331544091
 20
478.8288432973
 10
493.6616519391
 20
476.6749074207
 10
490.7739998184
 20
474.4378204362
 10
488.0769422923
 20
472.1228071642
 10
485.5767784638
 20
469.7352744253
 10
483.2793475812
 20
467.2807984131
 10
481.1900154008
 20
464.7651116698
 10
479.3136616548
 20
462.1940896985
 10
477.6546686542
 20
459.57373724
 10
476.2169110541
 20
456.9101742491
 10
475.0037468041
 20
454.2096216004
 10
474.0180093053
 20
451.4783865599
 10
473.2620007934
 20
448.7228480534
 10
472.7374869613
 20
445.9494417689
 10
472.4456928355
 20
443.1646451253
 10
472.3872999144
 20
440.3749621441
 10
472.5624445777
 20
437.5869082591
 10
472.9707177667
 20
434.8069950996
 10
473.6111659405
 20
432.0417152813
 10
474.4822933027
 20
429.2975272435
 10
475.5820652951
 20
426.5808401645
 10
476.9079133491
 20
423.8979989929
 10
478.4567408853
 20
421.2552696284
 10
480.2249305451
 20
418.6588242881
 10
482.2083526396
 20
416.1147270902
 10
484.4023747946
 20
413.6289198918
 10
486.8018727699
 20
411.2072084105
 10
489.4012424265
 20
408.855248666
 10
492.1944128163
 20
406.578533769
 10
495.1748603604
 20
404.3823810928
 10
498.3356240855
 20
402.2719198537
 10
501.6693218813
 20
400.2520791316
  0
LWPOLYLINE
  5
14A
330
1F
100
AcDbEntity
  8
0
  6
HIDDEN
 62
     7
370
    18
100
AcDbPolyline
 90
       26
 70
   128
 43
0.0
 10
479.4391775815
 20
450.9459080159
 10
479.3136616548
 20
450.7625183321
 10
477.6546686542
 20
448.1421658736
 10
476.2169110541
 20
445.4786028827
 10
475.0037468041
 20
442.778050234
 10
474.0180093053
 20
440.0468151935
 10
473.2620007934
 20
437.291276687
 10
472.7374869613
 20
434.5178704025
 10
472.4456928355
 20
431.7330737589
 10
472.3872999144
 20
428.9433907777
 10
472.5624445777
 20
426.1553368927
 10
472.9707177667
 20
423.3754237332
 10
473.6111659405
 20
420.6101439149
 10
474.4822933027
 20
417.8659558771
 10
475.5820652951
 20
415.1492687981
 10
476.9079133491
 20
412.4664276265
 10
478.4567408853
 20
409.823698262
 10
480.2249305451
 20
407.2272529217
 10
482.2083526396
 20
404.6831557238
 10
484.4023747946
 20
402.1973485254
 10
486.8018727699
 20
399.7756370441
 10
489.4012424265
 20
397.4236772996
 10
492.1944128163
 20
395.1469624026
 10
495.1748603604
 20
392.9508097264
 10
498.3356240855
 20
390.8403484873
 10
501.6693218813
 20
388.8205077652
  0
LWPOLYLINE
  5
14B
330
1F
100
AcDbEntity
  8
0
  6
HIDDEN
 62
     7
370
    18
100
AcDbPolyline
 90
       14
 70
   128
 43
0.0
 10
672.5515728753
 20
449.2381582417
 10
673.3106487433
 20
448.8948464144
 10
674.1899877846
 20
448.6663799665
 10
675.1384860103
 20
448.5660365375
 10
676.1010201513
 20
448.5996477228
 10
677.0216512218
 20
448.7652601624
 10
677.8468754905
 20
449.0532490633
 10
678.5287339224
 20
449.4468775575
 10
679.027599384
 20
449.9232693875
 10
679.3144796278
 20
450.4547383919
 10
679.3727022169
 20
451.0103975239
 10
679.198883466
 20
451.5579538946
 10
678.8031250892
 20
452.0655855179
 10
678.2084271247
 20
452.503790689
  0
LWPOLYLINE
  5
14C
330
1F
100
AcDbEntity
  8
0
  6
HIDDEN
 62
     7
370
    18
100
AcDbPolyline
 90
       14
 70
   128
 43
0.0
 10
466.5515728753
 20
449.2381582417
 10
467.3106487433
 20
448.8948464144
 10
468.1899877846
 20
448.6663799665
 10
469.1384860103
 20
448.5660365375
 10
470.1010201513
 20
448.5996477228
 10
471.0216512218
 20
448.7652601624
 10
471.8468754905
 20
449.0532490633
 10
472.5287339224
 20
449.4468775575
 10
473.027599384
 20
449.9232693875
 10
473.3144796278
 20
450.4547383919
 10
473.3727022169
 20
451.0103975239
 10
473.198883466
 20
451.5579538946
 10
472.8031250892
 20
452.0655855179
 10
472.2084271247
 20
452.503790689
  0
LWPOLYLINE
  5
14D
330
1F
100
AcDbEntity
  8
0
  6
HIDDEN
 62
     7
370
    18
100
AcDbPolyline
 90
       14
 70
   128
 43
0.0
 10
678.2084271247
 20
452.503790689
 10
677.4493512567
 20
452.8471025163
 10
676.5700122154
 20
453.0755689642
 10
675.6215139897
 20
453.1759123932
 10
674.6589798487
 20
453.1423012079
 10
673.7383487782
 20
452.9766887683
 10
672.9131245095
 20
452.6886998674
 10
672.2312660776
 20
452.2950713733
 10
671.732400616
 20
451.8186795433
 10
671.4455203722
 20
451.2872105389
 10
671.3872977831
 20
450.7315514068
 10
671.561116534
 20
450.1839950362
 10
671.9568749108
 20
449.6763634129
 10
672.5515728753
 20
449.2381582417
  0
LWPOLYLINE
  5
14E
330
1F
100
AcDbEntity
  8
0
  6
HIDDEN
 62
     7
370
    18
100
AcDbPolyline
 90
       14
 70
   128
 43
0.0
 10
472.2084271247
 20
452.503790689
 10
471.4493512567
 20
452.8471025163
 10
470.5700122154
 20
453.0755689642
 10
469.6215139897
 20
453.1759123932
 10
468.6589798487
 20
453.1423012079
 10
467.7383487782
 20
452.9766887683
 10
466.9131245095
 20
452.6886998674
 10
466.2312660776
 20
452.2950713733
 10
465.732400616
 20
451.8186795433
 10
465.4455203722
 20
451.2872105389
 10
465.3872977831
 20
450.7315514068
 10
465.561116534
 20
450.1839950362
 10
465.9568749108
 20
449.6763634129
 10
466.5515728753
 20
449.2381582417
  0
LWPOLYLINE
  5
14F
330
1F
100
AcDbEntity
  8
0
  6
HIDDEN
 62
     7
370
    18
100
AcDbPolyline
 90
       20
 70
   128
 43
0.0
 10
704.2554146913
 20
431.069627552
 10
703.3481082346
 20
430.4512053719
 10
702.6294989853
 20
429.7550068252
 10
702.1191887305
 20
429.0000223934
 10
701.8310974036
 20
428.2068460837
 10
701.7730833851
 20
427.3971136782
 10
701.9467291461
 20
426.592912566
 10
702.3472980829
 20
425.8161792572
 10
702.9638637192
 20
425.0881010116
 10
703.7796077517
 20
424.4285379058
 10
704.7722788096
 20
423.855481102
 10
705.9147994141
 20
423.3845620958
 10
707.1760045816
 20
423.0286263303
 10
708.5214919227
 20
422.7973828052
 10
709.9145600503
 20
422.6971392411
 10
711.3172096972
 20
422.7306300212
 10
712.6911802375
 20
422.8969416041
 10
713.9989933366
 20
423.1915374436
 10
715.2049752623
 20
423.606381733
 10
716.2762299715
 20
424.1301586015
  0
LWPOLYLINE
  5
150
330
1F
100
AcDbEntity
  8
0
  6
HIDDEN
 62
     7
370
    18
100
AcDbPolyline
 90
       20
 70
   128
 43
0.0
 10
421.4127022167
 20
431.069627552
 10
420.50539576
 20
430.4512053719
 10
419.7867865107
 20
429.7550068252
 10
419.2764762559
 20
429.0000223934
 10
418.988384929
 20
428.2068460837
 10
418.9303709105
 20
427.3971136782
 10
419.1040166715
 20
426.592912566
 10
419.5045856083
 20
425.8161792572
 10
420.1211512446
 20
425.0881010116
 10
420.9368952771
 20
424.4285379058
 10
421.9295663349
 20
423.855481102
 10
423.0720869395
 20
423.3845620958
 10
424.333292107
 20
423.0286263303
 10
425.6787794481
 20
422.7973828052
 10
427.0718475756
 20
422.6971392411
 10
428.4744972225
 20
422.7306300212
 10
429.8484677629
 20
422.8969416041
 10
431.156280862
 20
423.1915374436
 10
432.3622627877
 20
423.606381733
 10
433.4335174968
 20
424.1301586015
  0
ARC
  5
151
330
1F
100
AcDbEntity
  8
0
  6
HIDDEN
 62
     7
370
    18
100
AcDbCircle
 10
418.1945603677
 20
427.848587628
 30
0.0
 40
7.578621198559775
100
AcDbArc
 50
114.5250616912
 51
174.1547973512
  0
LINE
  5
152
330
1F
100
AcDbEntity
  8
0
  6
HIDDEN
 62
     7
370
    18
100
AcDbLine
 10
716.2762299715
 20
424.1301586015
 30
0.0
 11
723.3472977833
 21
428.2121991607
 31
0.0
  0
LINE
  5
153
330
1F
100
AcDbEntity
  8
0
  6
HIDDEN
 62
     7
370
    18
100
AcDbLine
 10
433.4335174968
 20
424.1301586015
 30
0.0
 11
440.5045853087
 21
428.2121991607
 31
0.0
  0
ARC
  5
154
330
1F
100
AcDbEntity
  8
0
  6
HIDDEN
 62
     7
370
    18
100
AcDbCircle
 10
726.5654396323
 20
429.8896079075
 30
0.0
 40
7.578621198559632
100
AcDbArc
 50
5.8452026488
 51
65.4749383088
  0
LWPOLYLINE
  5
155
330
1F
100
AcDbEntity
  8
0
  6
HIDDEN
 62
     7
370
    18
100
AcDbPolyline
 90
       10
 70
   128
 43
0.0
 10
723.3472977833
 20
428.2121991607
 10
724.2996825197
 20
428.8674252924
 10
725.0405063331
 20
429.6081688359
 10
725.5472596667
 20
430.4119226736
 10
725.804545077
 20
431.2542651516
 10
725.804545077
 20
432.1096021202
 10
725.5472596667
 20
432.9519445982
 10
725.0405063331
 20
433.7556984358
 10
724.2996825197
 20
434.4964419794
 10
723.3472977833
 20
435.1516681111
  0
LWPOLYLINE
  5
156
330
1F
100
AcDbEntity
  8
0
  6
HIDDEN
 62
     7
370
    18
100
AcDbPolyline
 90
       10
 70
   128
 43
0.0
 10
440.5045853087
 20
428.2121991607
 10
441.4569700451
 20
428.8674252924
 10
442.1977938584
 20
429.6081688359
 10
442.7045471921
 20
430.4119226736
 10
442.9618326024
 20
431.2542651516
 10
442.9618326024
 20
432.1096021202
 10
442.7045471921
 20
432.9519445982
 10
442.1977938584
 20
433.7556984358
 10
441.4569700451
 20
434.4964419794
 10
440.5045853087
 20
435.1516681111
  0
LINE
  5
157
330
1F
100
AcDbEntity
  8
0
  6
HIDDEN
 62
     7
370
    18
100
AcDbLine
 10
709.5753090691
 20
434.1407372059
 30
0.0
 11
704.2554146913
 21
431.069627552
 31
0.0
  0
LINE
  5
158
330
1F
100
AcDbEntity
  8
0
  6
HIDDEN
 62
     7
370
    18
100
AcDbLine
 10
426.7325965945
 20
434.1407372059
 30
0.0
 11
421.4127022167
 21
431.069627552
 31
0.0
  0
ARC
  5
159
330
1F
100
AcDbEntity
  8
0
  6
HIDDEN
 62
     7
370
    18
100
AcDbCircle
 10
717.6058076473
 20
424.325523745
 30
0.0
 40
12.25439149116916
100
AcDbArc
 50
62.0613991674
 51
88.0284271711
  0
ARC
  5
15A
330
1F
100
AcDbEntity
  8
0
  6
HIDDEN
 62
     7
370
    18
100
AcDbCircle
 10
434.7630951726
 20
424.325523745
 30
0.0
 40
12.25439149116933
100
AcDbArc
 50
62.0613991674
 51
88.0284271711
  0
LINE
  5
15B
330
1F
100
AcDbEntity
  8
0
  6
HIDDEN
 62
     7
370
    18
100
AcDbLine
 10
563.5411652352
 20
520.4663157966
 30
0.0
 11
415.048741186
 21
434.7434640552
 31
0.0
  0
LINE
  5
15C
330
1F
100
AcDbEntity
  8
0
  6
HIDDEN
 62
     7
370
    18
100
AcDbLine
 10
729.711258814
 20
436.7844843348
 30
0.0
 11
584.7543686708
 21
520.4663157966
 31
0.0
  0
LWPOLYLINE
  5
15D
330
1F
100
AcDbEntity
  8
0
  6
HIDDEN
 62
     7
370
    18
100
AcDbPolyline
 90
       14
 70
   128
 43
0.0
 10
642.3835713375
 20
491.2831760006
 10
643.1426472055
 20
490.9398641733
 10
644.0219862468
 20
490.7113977254
 10
644.9704844725
 20
490.6110542964
 10
645.9330186135
 20
490.6446654817
 10
646.853649684
 20
490.8102779213
 10
647.6788739527
 20
491.0982668222
 10
648.3607323847
 20
491.4918953163
 10
648.8595978462
 20
491.9682871464
 10
649.14647809
 20
492.4997561508
 10
649.2047006791
 20
493.0554152828
 10
649.0308819282
 20
493.6029716534
 10
648.6351235514
 20
494.1106032767
 10
648.040425587
 20
494.5488084479
  0
LWPOLYLINE
  5
15E
330
1F
100
AcDbEntity
  8
0
  6
HIDDEN
 62
     7
370
    18
100
AcDbPolyline
 90
       14
 70
   128
 43
0.0
 10
496.719574413
 20
491.2831760006
 10
497.4786502811
 20
490.9398641733
 10
498.3579893224
 20
490.7113977254
 10
499.3064875481
 20
490.6110542964
 10
500.269021689
 20
490.6446654817
 10
501.1896527596
 20
490.8102779213
 10
502.0148770283
 20
491.0982668222
 10
502.6967354602
 20
491.4918953163
 10
503.1956009218
 20
491.9682871464
 10
503.4824811656
 20
492.4997561508
 10
503.5407037547
 20
493.0554152828
 10
503.3668850038
 20
493.6029716534
 10
502.971126627
 20
494.1106032767
 10
502.3764286625
 20
494.5488084479
  0
LWPOLYLINE
  5
15F
330
1F
100
AcDbEntity
  8
0
  6
HIDDEN
 62
     7
370
    18
100
AcDbPolyline
 90
       14
 70
   128
 43
0.0
 10
648.040425587
 20
494.5488084479
 10
647.2813497189
 20
494.8921202752
 10
646.4020106776
 20
495.1205867231
 10
645.4535124519
 20
495.2209301521
 10
644.490978311
 20
495.1873189668
 10
643.5703472404
 20
495.0217065272
 10
642.7451229717
 20
494.7337176263
 10
642.0632645398
 20
494.3400891322
 10
641.5643990782
 20
493.8636973021
 10
641.2775188344
 20
493.3322282977
 10
641.2192962453
 20
492.7765691657
 10
641.3931149962
 20
492.229012795
 10
641.788873373
 20
491.7213811718
 10
642.3835713375
 20
491.2831760006
  0
LWPOLYLINE
  5
160
330
1F
100
AcDbEntity
  8
0
  6
HIDDEN
 62
     7
370
    18
100
AcDbPolyline
 90
       14
 70
   128
 43
0.0
 10
502.3764286625
 20
494.5488084479
 10
501.6173527945
 20
494.8921202752
 10
500.7380137532
 20
495.1205867231
 10
499.7895155275
 20
495.2209301521
 10
498.8269813865
 20
495.1873189668
 10
497.906350316
 20
495.0217065272
 10
497.0811260473
 20
494.7337176263
 10
496.3992676154
 20
494.3400891322
 10
495.9004021538
 20
493.8636973021
 10
495.61352191
 20
493.3322282977
 10
495.5552993209
 20
492.7765691657
 10
495.7291180718
 20
492.229012795
 10
496.1248764486
 20
491.7213811718
 10
496.719574413
 20
491.2831760006
  0
LWPOLYLINE
  5
161
330
1F
100
AcDbEntity
  8
0
  6
HIDDEN
 62
     7
370
    18
100
AcDbPolyline
 90
       14
 70
   128
 43
0.0
 10
569.5515728753
 20
508.6987925865
 10
570.3106487433
 20
508.3554807593
 10
571.1899877846
 20
508.1270143114
 10
572.1384860103
 20
508.0266708824
 10
573.1010201513
 20
508.0602820676
 10
574.0216512218
 20
508.2258945072
 10
574.8468754905
 20
508.5138834081
 10
575.5287339224
 20
508.9075119023
 10
576.027599384
 20
509.3839037323
 10
576.3144796278
 20
509.9153727367
 10
576.3727022169
 20
510.4710318687
 10
576.198883466
 20
511.0185882394
 10
575.8031250892
 20
511.5262198627
 10
575.2084271247
 20
511.9644250338
  0
LWPOLYLINE
  5
162
330
1F
100
AcDbEntity
  8
0
  6
HIDDEN
 62
     7
370
    18
100
AcDbPolyline
 90
       14
 70
   128
 43
0.0
 10
575.2084271247
 20
511.9644250338
 10
574.4493512567
 20
512.3077368611
 10
573.5700122154
 20
512.536203309
 10
572.6215139897
 20
512.636546738
 10
571.6589798487
 20
512.6029355528
 10
570.7383487782
 20
512.4373231132
 10
569.9131245095
 20
512.1493342122
 10
569.2312660776
 20
511.7557057181
 10
568.732400616
 20
511.2793138881
 10
568.4455203722
 20
510.7478448837
 10
568.3872977831
 20
510.1921857516
 10
568.561116534
 20
509.644629381
 10
568.9568749108
 20
509.1369977577
 10
569.5515728753
 20
508.6987925865
  0
LWPOLYLINE
  5
163
330
1F
100
AcDbEntity
  8
0
  6
HIDDEN
 62
     7
370
    18
100
AcDbPolyline
 90
       20
 70
   128
 43
0.0
 10
562.834058454
 20
512.7104387343
 10
561.9267519973
 20
512.0920165542
 10
561.208142748
 20
511.3958180075
 10
560.6978324932
 20
510.6408335757
 10
560.4097411663
 20
509.847657266
 10
560.3517271478
 20
509.0379248604
 10
560.5253729088
 20
508.2337237483
 10
560.9259418456
 20
507.4569904395
 10
561.5425074819
 20
506.7289121939
 10
562.3582515144
 20
506.0693490881
 10
563.3509225722
 20
505.4962922842
 10
564.4934431768
 20
505.0253732781
 10
565.7546483443
 20
504.6694375126
 10
567.1001356854
 20
504.4381939875
 10
568.493203813
 20
504.3379504234
 10
569.8958534599
 20
504.3714412034
 10
571.2698240002
 20
504.5377527864
 10
572.5776370993
 20
504.8323486259
 10
573.783619025
 20
505.2471929153
 10
574.8548737342
 20
505.7709697838
  0
LINE
  5
164
330
1F
100
AcDbEntity
  8
0
  6
HIDDEN
 62
     7
370
    18
100
AcDbLine
 10
574.8548737342
 20
505.7709697838
 30
0.0
 11
581.925941546
 21
509.8530103429
 31
0.0
  0
LWPOLYLINE
  5
165
330
1F
100
AcDbEntity
  8
0
  6
HIDDEN
 62
     7
370
    18
100
AcDbPolyline
 90
       10
 70
   128
 43
0.0
 10
581.925941546
 20
509.8530103429
 10
582.8783262824
 20
510.5082364747
 10
583.6191500957
 20
511.2489800182
 10
584.1259034294
 20
512.0527338558
 10
584.3831888397
 20
512.8950763339
 10
584.3831888397
 20
513.7504133024
 10
584.1259034294
 20
514.5927557805
 10
583.6191500957
 20
515.3965096181
 10
582.8783262824
 20
516.1372531617
 10
581.925941546
 20
516.7924792934
  0
LINE
  5
166
330
1F
100
AcDbEntity
  8
0
  6
HIDDEN
 62
     7
370
    18
100
AcDbLine
 10
569.9051262658
 20
516.7924792934
 30
0.0
 11
562.834058454
 21
512.7104387343
 31
0.0
  0
ARC
  5
167
330
1F
100
AcDbEntity
  8
0
  6
HIDDEN
 62
     7
370
    18
100
AcDbCircle
 10
575.9155339059
 20
505.2561623182
 30
0.0
 40
13.00813627517251
100
AcDbArc
 50
62.4805390039
 51
117.5194609961
  0
ARC
  5
168
330
1F
100
AcDbEntity
  8
0
  6
HIDDEN
 62
     7
370
    18
100
AcDbCircle
 10
574.147766953
 20
499.9956495223
 30
0.0
 40
23.05532861867546
100
AcDbArc
 50
62.6096722366
 51
117.3903277634
  0
LINE
  5
169
330
1F
100
AcDbEntity
  8
0
  6
HIDDEN
 62
     7
370
    18
100
AcDbLine
 10
560.3444660941
 20
357.3906532609
 30
0.0
 11
560.3444660941
 21
345.9590818945
 31
0.0
  0
LINE
  5
16A
330
1F
100
AcDbEntity
  8
0
  6
HIDDEN
 62
     7
370
    18
100
AcDbLine
 10
639.5660594019
 20
423.5294627488
 30
0.0
 11
640.2732810798
 21
423.937865844
 31
0.0
  0
LINE
  5
16B
330
1F
100
AcDbEntity
  8
0
  6
HIDDEN
 62
     7
370
    18
100
AcDbLine
 10
667.38
 20
441.0724847227
 30
0.0
 11
667.38
 21
462.3025458318
 31
0.0
  0
LINE
  5
16C
330
1F
100
AcDbEntity
  8
0
  6
HIDDEN
 62
     7
370
    18
100
AcDbLine
 10
584.4155339059
 20
350.0411224536
 30
0.0
 11
584.4155339059
 21
361.47269382
 31
0.0
  0
LINE
  5
16D
330
1F
100
AcDbEntity
  8
0
  6
HIDDEN
 62
     7
370
    18
100
AcDbLine
 10
672.38
 20
429.6409133563
 30
0.0
 11
672.38
 21
441.0724847227
 31
0.0
  0
LINE
  5
16E
330
1F
100
AcDbEntity
  8
0
  6
HIDDEN
 62
     7
370
    18
100
AcDbLine
 10
576.38
 20
391.4103401206
 30
0.0
 11
576.38
 21
403.6584522988
 31
0.0
  0
LINE
  5
16F
330
1F
100
AcDbEntity
  8
0
  6
HIDDEN
 62
     7
370
    18
100
AcDbLine
 10
568.38
 20
403.6584522988
 30
0.0
 11
568.38
 21
391.4103401206
 31
0.0
  0
LINE
  5
170
330
1F
100
AcDbEntity
  8
0
  6
HIDDEN
 62
     7
370
    18
100
AcDbLine
 10
649.2119984622
 20
408.8259567065
 30
0.0
 11
649.2119984622
 21
421.0740688848
 31
0.0
  0
LINE
  5
171
330
1F
100
AcDbEntity
  8
0
  6
HIDDEN
 62
     7
370
    18
100
AcDbLine
 10
503.5480015378
 20
408.8259567065
 30
0.0
 11
503.5480015378
 21
421.0740688848
 31
0.0
  0
LINE
  5
172
330
1F
100
AcDbEntity
  8
0
  6
HIDDEN
 62
     7
370
    18
100
AcDbLine
 10
641.2119984622
 20
421.0740688848
 30
0.0
 11
641.2119984622
 21
408.8259567065
 31
0.0
  0
LINE
  5
173
330
1F
100
AcDbEntity
  8
0
  6
HIDDEN
 62
     7
370
    18
100
AcDbLine
 10
495.5480015378
 20
421.0740688848
 30
0.0
 11
495.5480015378
 21
408.8259567065
 31
0.0
  0
LINE
  5
174
330
1F
100
AcDbEntity
  8
0
  6
HIDDEN
 62
     7
370
    18
100
AcDbLine
 10
477.38
 20
462.3025458318
 30
0.0
 11
477.38
 21
441.0724847227
 31
0.0
  0
LINE
  5
175
330
1F
100
AcDbEntity
  8
0
  6
HIDDEN
 62
     7
370
    18
100
AcDbLine
 10
472.38
 20
441.0724847227
 30
0.0
 11
472.38
 21
429.6409133563
 31
0.0
  0
LINE
  5
176
330
1F
100
AcDbEntity
  8
0
  6
HIDDEN
 62
     7
370
    18
100
AcDbLine
 10
679.38
 20
450.8709744654
 30
0.0
 11
679.38
 21
463.1190866437
 31
0.0
  0
LINE
  5
177
330
1F
100
AcDbEntity
  8
0
  6
HIDDEN
 62
     7
370
    18
100
AcDbLine
 10
473.38
 20
450.8709744654
 30
0.0
 11
473.38
 21
463.1190866437
 31
0.0
  0
LINE
  5
178
330
1F
100
AcDbEntity
  8
0
  6
HIDDEN
 62
     7
370
    18
100
AcDbLine
 10
671.38
 20
463.1190866437
 30
0.0
 11
671.38
 21
450.8709744654
 31
0.0
  0
LINE
  5
179
330
1F
100
AcDbEntity
  8
0
  6
HIDDEN
 62
     7
370
    18
100
AcDbLine
 10
465.38
 20
463.1190866437
 30
0.0
 11
465.38
 21
450.8709744654
 31
0.0
  0
LINE
  5
17A
330
1F
100
AcDbEntity
  8
0
  6
HIDDEN
 62
     7
370
    18
100
AcDbLine
 10
701.7658223314
 20
439.0314644432
 30
0.0
 11
701.7658223314
 21
427.5998930768
 31
0.0
  0
LINE
  5
17B
330
1F
100
AcDbEntity
  8
0
  6
HIDDEN
 62
     7
370
    18
100
AcDbLine
 10
418.9231098568
 20
439.0314644432
 30
0.0
 11
418.9231098568
 21
427.5998930768
 31
0.0
  0
LINE
  5
17C
330
1F
100
AcDbEntity
  8
0
  6
HIDDEN
 62
     7
370
    18
100
AcDbLine
 10
725.8368901432
 20
431.6819336359
 30
0.0
 11
725.8368901432
 21
443.1135050023
 31
0.0
  0
LINE
  5
17D
330
1F
100
AcDbEntity
  8
0
  6
HIDDEN
 62
     7
370
    18
100
AcDbLine
 10
442.9941776686
 20
431.6819336359
 30
0.0
 11
442.9941776686
 21
443.1135050023
 31
0.0
  0
LINE
  5
17E
330
1F
100
AcDbEntity
  8
0
  6
HIDDEN
 62
     7
370
    18
100
AcDbLine
 10
649.2119984622
 20
492.9159922242
 30
0.0
 11
649.2119984622
 21
505.1641044025
 31
0.0
  0
LINE
  5
17F
330
1F
100
AcDbEntity
  8
0
  6
HIDDEN
 62
     7
370
    18
100
AcDbLine
 10
503.5480015378
 20
492.9159922242
 30
0.0
 11
503.5480015378
 21
505.1641044025
 31
0.0
  0
LINE
  5
180
330
1F
100
AcDbEntity
  8
0
  6
HIDDEN
 62
     7
370
    18
100
AcDbLine
 10
641.2119984622
 20
505.1641044025
 30
0.0
 11
641.2119984622
 21
492.9159922242
 31
0.0
  0
LINE
  5
181
330
1F
100
AcDbEntity
  8
0
  6
HIDDEN
 62
     7
370
    18
100
AcDbLine
 10
495.5480015378
 20
505.1641044025
 30
0.0
 11
495.5480015378
 21
492.9159922242
 31
0.0
  0
LINE
  5
182
330
1F
100
AcDbEntity
  8
0
  6
HIDDEN
 62
     7
370
    18
100
AcDbLine
 10
576.38
 20
510.3316088102
 30
0.0
 11
576.38
 21
522.5797209885
 31
0.0
  0
LINE
  5
183
330
1F
100
AcDbEntity
  8
0
  6
HIDDEN
 62
     7
370
    18
100
AcDbLine
 10
568.38
 20
522.5797209885
 30
0.0
 11
568.38
 21
510.3316088102
 31
0.0
  0
LINE
  5
184
330
1F
100
AcDbEntity
  8
0
  6
HIDDEN
 62
     7
370
    18
100
AcDbLine
 10
560.3444660941
 20
520.6722756255
 30
0.0
 11
560.3444660941
 21
509.2407042591
 31
0.0
  0
LINE
  5
185
330
1F
100
AcDbEntity
  8
0
  6
HIDDEN
 62
     7
370
    18
100
AcDbLine
 10
584.4155339059
 20
513.3227448182
 30
0.0
 11
584.4155339059
 21
524.7543161846
 31
0.0
  0
ENDSEC
  0
SECTION
  2
OBJECTS
  0
DICTIONARY
  5
C
330
0
100
AcDbDictionary
281
     1
  3
ACAD_GROUP
350
D
  3
ACAD_LAYOUT
350
1A
  3
ACAD_MLINESTYLE
350
17
  3
ACAD_PLOTSETTINGS
350
19
  3
ACAD_PLOTSTYLENAME
350
E
  3
ACAD_SCALELIST
350
47
  3
DWGPROPS
350
186
  0
DICTIONARY
  5
D
102
{ACAD_REACTORS
330
C
102
}
330
C
100
AcDbDictionary
281
     1
  0
DICTIONARY
  5
1A
102
{ACAD_REACTORS
330
C
102
}
330
C
100
AcDbDictionary
281
     1
  3
Layout1
350
1E
  3
Layout2
350
26
  3
Model
350
22
  0
DICTIONARY
  5
17
102
{ACAD_REACTORS
330
C
102
}
330
C
100
AcDbDictionary
281
     1
  3
Standard
350
18
  0
DICTIONARY
  5
19
102
{ACAD_REACTORS
330
C
102
}
330
C
100
AcDbDictionary
281
     1
  0
ACDBDICTIONARYWDFLT
  5
E
102
{ACAD_REACTORS
330
C
102
}
330
C
100
AcDbDictionary
281
     1
  3
Normal
350
F
100
AcDbDictionaryWithDefault
340
F
  0
DICTIONARY
  5
47
102
{ACAD_REACTORS
330
C
102
}
330
C
100
AcDbDictionary
281
     1
  3
A0
350
48
  3
A1
350
49
  3
A2
350
4A
  3
A3
350
4B
  3
A4
350
4C
  3
A5
350
4D
  3
A6
350
4E
  3
A7
350
4F
  3
A8
350
50
  3
A9
350
51
  3
B0
350
52
  3
B1
350
53
  3
B2
350
54
  3
B3
350
55
  3
B4
350
56
  3
B5
350
57
  3
B6
350
58
  0
XRECORD
  5
186
102
{ACAD_REACTORS
330
C
102
}
330
C
100
AcDbXrecord
280
     1
  1
DWGPROPS COOKIE
  2

  3

  4

  6

  7

  8
imaizumi
  9

300
=
301
=
302
=
303
=
304
=
305
=
306
=
307
=
308
=
309
=
 40
0.0
 41
2461263.06553676
 42
2461263.06553713
  1

 90
        0
  0
LAYOUT
  5
1E
102
{ACAD_REACTORS
330
1A
102
}
330
1A
100
AcDbPlotSettings
  1

  2
none_device
  4

  6

 40
0.0
 41
0.0
 42
0.0
 43
0.0
 44
0.0
 45
0.0
 46
0.0
 47
0.0
 48
0.0
 49
0.0
140
0.0
141
0.0
142
1.0
143
1.0
 70
   688
 72
     1
 73
     0
 74
     5
  7

 75
    16
147
1.0
148
0.0
149
0.0
100
AcDbLayout
  1
Layout1
 70
     1
 71
     1
 10
0.0
 20
0.0
 11
420.0
 21
297.0
 12
0.0
 22
0.0
 32
0.0
 14
1.0000000000E+20
 24
1.0000000000E+20
 34
1.0000000000E+20
 15
-1.0000000000E+20
 25
-1.0000000000E+20
 35
-1.0000000000E+20
146
0.0
 13
0.0
 23
0.0
 33
0.0
 16
1.0
 26
0.0
 36
0.0
 17
0.0
 27
1.0
 37
0.0
 76
     0
330
1B
  0
LAYOUT
  5
26
102
{ACAD_REACTORS
330
1A
102
}
330
1A
100
AcDbPlotSettings
  1

  2
none_device
  4

  6

 40
0.0
 41
0.0
 42
0.0
 43
0.0
 44
0.0
 45
0.0
 46
0.0
 47
0.0
 48
0.0
 49
0.0
140
0.0
141
0.0
142
1.0
143
1.0
 70
   688
 72
     1
 73
     0
 74
     5
  7

 75
    16
147
1.0
148
0.0
149
0.0
100
AcDbLayout
  1
Layout2
 70
     1
 71
     2
 10
0.0
 20
0.0
 11
0.0
 21
0.0
 12
0.0
 22
0.0
 32
0.0
 14
0.0
 24
0.0
 34
0.0
 15
0.0
 25
0.0
 35
0.0
146
0.0
 13
0.0
 23
0.0
 33
0.0
 16
1.0
 26
0.0
 36
0.0
 17
0.0
 27
1.0
 37
0.0
 76
     0
330
23
  0
LAYOUT
  5
22
102
{ACAD_REACTORS
330
1A
102
}
330
1A
100
AcDbPlotSettings
  1

  2
none_device
  4
Letter_(8.50_x_11.00_Inches)
  6

 40
6.35
 41
6.35
 42
6.35000508
 43
6.35000508
 44
215.9
 45
279.4
 46
0.0
 47
0.0
 48
0.0
 49
0.0
140
0.0
141
0.0
142
1.0
143
1.0
 70
  1712
 72
     1
 73
     0
 74
     0
  7

 75
     0
147
1.0
148
0.0
149
0.0
100
AcDbLayout
  1
Model
 70
     1
 71
     0
 10
0.0
 20
0.0
 11
841.0
 21
594.0
 12
0.0
 22
0.0
 32
0.0
 14
0.0
 24
0.0
 34
0.0
 15
841.0
 25
594.0
 35
0.0
146
0.0
 13
0.0
 23
0.0
 33
0.0
 16
1.0
 26
0.0
 36
0.0
 17
0.0
 27
1.0
 37
0.0
 76
     0
330
1F
331
29
  0
MLINESTYLE
  5
18
102
{ACAD_REACTORS
330
17
102
}
330
17
100
AcDbMlineStyle
  2
Standard
 70
     0
  3

 62
   256
 51
90.0
 52
90.0
 71
     2
 49
0.5
 62
   256
  6
BYLAYER
 49
-0.5
 62
   256
  6
BYLAYER
  0
ACDBPLACEHOLDER
  5
F
102
{ACAD_REACTORS
330
E
102
}
330
E
  0
SCALE
  5
48
102
{ACAD_REACTORS
330
47
102
}
330
47
100
AcDbScale
 70
     0
300
1:1
140
1.0
141
1.0
290
     1
  0
SCALE
  5
49
102
{ACAD_REACTORS
330
47
102
}
330
47
100
AcDbScale
 70
     0
300
1:2
140
1.0
141
2.0
290
     0
  0
SCALE
  5
4A
102
{ACAD_REACTORS
330
47
102
}
330
47
100
AcDbScale
 70
     0
300
1:4
140
1.0
141
4.0
290
     0
  0
SCALE
  5
4B
102
{ACAD_REACTORS
330
47
102
}
330
47
100
AcDbScale
 70
     0
300
1:5
140
1.0
141
5.0
290
     0
  0
SCALE
  5
4C
102
{ACAD_REACTORS
330
47
102
}
330
47
100
AcDbScale
 70
     0
300
1:8
140
1.0
141
8.0
290
     0
  0
SCALE
  5
4D
102
{ACAD_REACTORS
330
47
102
}
330
47
100
AcDbScale
 70
     0
300
1:10
140
1.0
141
10.0
290
     0
  0
SCALE
  5
4E
102
{ACAD_REACTORS
330
47
102
}
330
47
100
AcDbScale
 70
     0
300
1:16
140
1.0
141
16.0
290
     0
  0
SCALE
  5
4F
102
{ACAD_REACTORS
330
47
102
}
330
47
100
AcDbScale
 70
     0
300
1:20
140
1.0
141
20.0
290
     0
  0
SCALE
  5
50
102
{ACAD_REACTORS
330
47
102
}
330
47
100
AcDbScale
 70
     0
300
1:30
140
1.0
141
30.0
290
     0
  0
SCALE
  5
51
102
{ACAD_REACTORS
330
47
102
}
330
47
100
AcDbScale
 70
     0
300
1:40
140
1.0
141
40.0
290
     0
  0
SCALE
  5
52
102
{ACAD_REACTORS
330
47
102
}
330
47
100
AcDbScale
 70
     0
300
1:50
140
1.0
141
50.0
290
     0
  0
SCALE
  5
53
102
{ACAD_REACTORS
330
47
102
}
330
47
100
AcDbScale
 70
     0
300
1:100
140
1.0
141
100.0
290
     0
  0
SCALE
  5
54
102
{ACAD_REACTORS
330
47
102
}
330
47
100
AcDbScale
 70
     0
300
2:1
140
2.0
141
1.0
290
     0
  0
SCALE
  5
55
102
{ACAD_REACTORS
330
47
102
}
330
47
100
AcDbScale
 70
     0
300
4:1
140
4.0
141
1.0
290
     0
  0
SCALE
  5
56
102
{ACAD_REACTORS
330
47
102
}
330
47
100
AcDbScale
 70
     0
300
8:1
140
8.0
141
1.0
290
     0
  0
SCALE
  5
57
102
{ACAD_REACTORS
330
47
102
}
330
47
100
AcDbScale
 70
     0
300
10:1
140
10.0
141
1.0
290
     0
  0
SCALE
  5
58
102
{ACAD_REACTORS
330
47
102
}
330
47
100
AcDbScale
 70
     0
300
100:1
140
100.0
141
1.0
290
     0
  0
ENDSEC
  0
EOF
