  0
SECTION
  2
HEADER
  9
$ACADVER
  1
AC1015
  9
$ACADMAINTVER
 70
     6
  9
$DWGCODEPAGE
  3
DOS932
  9
$INSBASE
 10
0.0
 20
0.0
 30
0.0
  9
$EXTMIN
 10
0.0
 20
0.0
 30
0.0
  9
$EXTMAX
 10
841.0
 20
594.0
 30
0.0
  9
$LIMMIN
 10
0.0
 20
0.0
  9
$LIMMAX
 10
841.0
 20
594.0
  9
$ORTHOMODE
 70
     0
  9
$REGENMODE
 70
     1
  9
$FILLMODE
 70
     1
  9
$QTEXTMODE
 70
     0
  9
$MIRRTEXT
 70
     1
  9
$LTSCALE
 40
1.0
  9
$ATTMODE
 70
     1
  9
$TEXTSIZE
 40
3.5
  9
$TRACEWID
 40
1.0
  9
$TEXTSTYLE
  7
Standard
  9
$CLAYER
  8
0
  9
$CELTYPE
  6
ByLayer
  9
$CECOLOR
 62
   256
  9
$CELTSCALE
 40
1.0
  9
$DISPSILH
 70
     0
  9
$DIMSCALE
 40
1.0
  9
$DIMASZ
 40
3.302
  9
$DIMEXO
 40
1.0
  9
$DIMDLI
 40
3.75
  9
$DIMRND
 40
0.0
  9
$DIMDLE
 40
0.0
  9
$DIMEXE
 40
1.0
  9
$DIMTP
 40
0.0
  9
$DIMTM
 40
0.0
  9
$DIMTXT
 40
3.5
  9
$DIMCEN
 40
2.5
  9
$DIMTSZ
 40
0.0
  9
$DIMTOL
 70
     0
  9
$DIMLIM
 70
     0
  9
$DIMTIH
 70
     1
  9
$DIMTOH
 70
     1
  9
$DIMSE1
 70
     0
  9
$DIMSE2
 70
     0
  9
$DIMTAD
 70
     1
  9
$DIMZIN
 70
     1
  9
$DIMBLK
  1

  9
$DIMASO
 70
     1
  9
$DIMSHO
 70
     1
  9
$DIMPOST
  1

  9
$DIMAPOST
  1

  9
$DIMALT
 70
     0
  9
$DIMALTD
 70
     3
  9
$DIMALTF
 40
0.0393700787
  9
$DIMLFAC
 40
0.5
  9
$DIMTOFL
 70
     1
  9
$DIMTVP
 40
0.0
  9
$DIMTIX
 70
     0
  9
$DIMSOXD
 70
     0
  9
$DIMSAH
 70
     0
  9
$DIMBLK1
  1

  9
$DIMBLK2
  1

  9
$DIMSTYLE
  2
ISO-25
  9
$DIMCLRD
 70
     0
  9
$DIMCLRE
 70
     0
  9
$DIMCLRT
 70
     0
  9
$DIMTFAC
 40
1.0
  9
$DIMGAP
 40
1.524
  9
$DIMJUST
 70
     0
  9
$DIMSD1
 70
     0
  9
$DIMSD2
 70
     0
  9
$DIMTOLJ
 70
     0
  9
$DIMTZIN
 70
     1
  9
$DIMALTZ
 70
     0
  9
$DIMALTTZ
 70
     0
  9
$DIMUPT
 70
     0
  9
$DIMDEC
 70
     2
  9
$DIMTDEC
 70
     2
  9
$DIMALTU
 70
     2
  9
$DIMALTTD
 70
     3
  9
$DIMTXSTY
  7
Standard
  9
$DIMAUNIT
 70
     0
  9
$DIMADEC
 70
     2
  9
$DIMALTRND
 40
0.0
  9
$DIMAZIN
 70
     0
  9
$DIMDSEP
 70
    44
  9
$DIMATFIT
 70
     3
  9
$DIMFRAC
 70
     0
  9
$DIMLDRBLK
  1

  9
$DIMLUNIT
 70
     2
  9
$DIMLWD
 70
    -2
  9
$DIMLWE
 70
    -2
  9
$DIMTMOVE
 70
     0
  9
$LUNITS
 70
     2
  9
$LUPREC
 70
     2
  9
$SKETCHINC
 40
1.0
  9
$FILLETRAD
 40
0.0
  9
$AUNITS
 70
     0
  9
$AUPREC
 70
     2
  9
$MENU
  1
.
  9
$ELEVATION
 40
0.0
  9
$PELEVATION
 40
0.0
  9
$THICKNESS
 40
0.0
  9
$LIMCHECK
 70
     0
  9
$CHAMFERA
 40
0.0
  9
$CHAMFERB
 40
0.0
  9
$CHAMFERC
 40
0.0
  9
$CHAMFERD
 40
0.0
  9
$SKPOLY
 70
     0
  9
$TDCREATE
 40
2461263.439794618
  9
$TDUCREATE
 40
2461263.064794618
  9
$TDUPDATE
 40
2461263.439795267
  9
$TDUUPDATE
 40
2461263.064795267
  9
$TDINDWG
 40
0.0000000116
  9
$TDUSRTIMER
 40
0.0000000116
  9
$USRTIMER
 70
     1
  9
$ANGBASE
 50
0.0
  9
$ANGDIR
 70
     0
  9
$PDMODE
 70
     0
  9
$PDSIZE
 40
-1.0
  9
$PLINEWID
 40
0.0
  9
$SPLFRAME
 70
     0
  9
$SPLINETYPE
 70
     6
  9
$SPLINESEGS
 70
     8
  9
$HANDSEED
  5
16D
  9
$SURFTAB1
 70
     6
  9
$SURFTAB2
 70
     6
  9
$SURFTYPE
 70
     6
  9
$SURFU
 70
     6
  9
$SURFV
 70
     6
  9
$UCSBASE
  2

  9
$UCSNAME
  2

  9
$UCSORG
 10
0.0
 20
0.0
 30
0.0
  9
$UCSXDIR
 10
1.0
 20
0.0
 30
0.0
  9
$UCSYDIR
 10
0.0
 20
1.0
 30
0.0
  9
$UCSORTHOREF
  2

  9
$UCSORTHOVIEW
 70
     0
  9
$UCSORGTOP
 10
0.0
 20
0.0
 30
0.0
  9
$UCSORGBOTTOM
 10
0.0
 20
0.0
 30
0.0
  9
$UCSORGLEFT
 10
0.0
 20
0.0
 30
0.0
  9
$UCSORGRIGHT
 10
0.0
 20
0.0
 30
0.0
  9
$UCSORGFRONT
 10
0.0
 20
0.0
 30
0.0
  9
$UCSORGBACK
 10
0.0
 20
0.0
 30
0.0
  9
$PUCSBASE
  2

  9
$PUCSNAME
  2

  9
$PUCSORG
 10
0.0
 20
0.0
 30
0.0
  9
$PUCSXDIR
 10
1.0
 20
0.0
 30
0.0
  9
$PUCSYDIR
 10
0.0
 20
1.0
 30
0.0
  9
$PUCSORTHOREF
  2

  9
$PUCSORTHOVIEW
 70
     0
  9
$PUCSORGTOP
 10
0.0
 20
0.0
 30
0.0
  9
$PUCSORGBOTTOM
 10
0.0
 20
0.0
 30
0.0
  9
$PUCSORGLEFT
 10
0.0
 20
0.0
 30
0.0
  9
$PUCSORGRIGHT
 10
0.0
 20
0.0
 30
0.0
  9
$PUCSORGFRONT
 10
0.0
 20
0.0
 30
0.0
  9
$PUCSORGBACK
 10
0.0
 20
0.0
 30
0.0
  9
$USERI1
 70
     0
  9
$USERI2
 70
     0
  9
$USERI3
 70
     0
  9
$USERI4
 70
     0
  9
$USERI5
 70
     0
  9
$USERR1
 40
0.0
  9
$USERR2
 40
0.0
  9
$USERR3
 40
0.0
  9
$USERR4
 40
0.0
  9
$USERR5
 40
0.0
  9
$WORLDVIEW
 70
     1
  9
$SHADEDGE
 70
     3
  9
$SHADEDIF
 70
    70
  9
$TILEMODE
 70
     1
  9
$MAXACTVP
 70
    64
  9
$PINSBASE
 10
0.0
 20
0.0
 30
0.0
  9
$PLIMCHECK
 70
     0
  9
$PEXTMIN
 10
1.0000000000E+20
 20
1.0000000000E+20
 30
1.0000000000E+20
  9
$PEXTMAX
 10
-1.0000000000E+20
 20
-1.0000000000E+20
 30
-1.0000000000E+20
  9
$PLIMMIN
 10
0.0
 20
0.0
  9
$PLIMMAX
 10
420.0
 20
297.0
  9
$UNITMODE
 70
     0
  9
$VISRETAIN
 70
     1
  9
$PLINEGEN
 70
     0
  9
$PSLTSCALE
 70
     1
  9
$TREEDEPTH
 70
  3020
  9
$CMLSTYLE
  2
Standard
  9
$CMLJUST
 70
     0
  9
$CMLSCALE
 40
20.0
  9
$PROXYGRAPHICS
 70
     1
  9
$MEASUREMENT
 70
     1
  9
$CELWEIGHT
370
    -1
  9
$ENDCAPS
280
     0
  9
$JOINSTYLE
280
     0
  9
$LWDISPLAY
290
     1
  9
$INSUNITS
 70
     4
  9
$HYPERLINKBASE
  1

  9
$STYLESHEET
  1

  9
$XEDIT
290
     1
  9
$CEPSNTYPE
380
     0
  9
$PSTYLEMODE
290
     1
  9
$FINGERPRINTGUID
  2
{c5d0fdd8-5206-476f-9b9e-fc20b1e45903}
  9
$VERSIONGUID
  2
{FAEB1C32-E019-11D5-929B-00C0DF256EC4}
  9
$EXTNAMES
290
     1
  9
$PSVPSCALE
 40
0.0
  9
$OLESTARTUP
290
     0
  0
ENDSEC
  0
SECTION
  2
CLASSES
  0
CLASS
  1
ACDBDICTIONARYWDFLT
  2
AcDbDictionaryWithDefault
  3
ObjectDBX Classes
 90
        0
280
     0
281
     0
  0
CLASS
  1
VISUALSTYLE
  2
AcDbVisualStyle
  3
ObjectDBX Classes
 90
     4095
280
     0
281
     0
  0
CLASS
  1
MATERIAL
  2
AcDbMaterial
  3
ObjectDBX Classes
 90
     1153
280
     0
281
     0
  0
CLASS
  1
SCALE
  2
AcDbScale
  3
ObjectDBX Classes
 90
     1153
280
     0
281
     0
  0
CLASS
  1
TABLESTYLE
  2
AcDbTableStyle
  3
ObjectDBX Classes
 90
     4095
280
     0
281
     0
  0
CLASS
  1
MLEADERSTYLE
  2
AcDbMLeaderStyle
  3
ACDB_MLEADERSTYLE_CLASS
 90
     4095
280
     0
281
     0
  0
CLASS
  1
SUN
  2
AcDbSun
  3
SCENEOE
 90
     1153
280
     0
281
     0
  0
CLASS
  1
ACDBPLACEHOLDER
  2
AcDbPlaceHolder
  3
ObjectDBX Classes
 90
        0
280
     0
281
     0
  0
CLASS
  1
LAYOUT
  2
AcDbLayout
  3
ObjectDBX Classes
 90
        0
280
     0
281
     0
  0
ENDSEC
  0
SECTION
  2
TABLES
  0
TABLE
  2
VPORT
  5
8
330
0
100
AcDbSymbolTable
 70
     1
  0
VPORT
  5
29
330
8
100
AcDbSymbolTableRecord
100
AcDbViewportTableRecord
  2
*Active
 70
     0
 10
0.0
 20
0.0
 11
1.0
 21
1.0
 12
420.5
 22
297.0
 13
0.0
 23
0.0
 14
10.0
 24
10.0
 15
10.0
 25
10.0
 16
0.0
 26
0.0
 36
1.0
 17
0.0
 27
0.0
 37
0.0
 40
594.0
 41
1.4158249158
 42
50.0
 43
0.0
 44
0.0
 50
0.0
 51
0.0
 71
     0
 72
  2000
 73
     1
 74
     3
 75
     0
 76
     0
 77
     0
 78
     0
281
     0
 65
     1
110
0.0
120
0.0
130
0.0
111
1.0
121
0.0
131
0.0
112
0.0
122
1.0
132
0.0
 79
     0
146
0.0
  0
ENDTAB
  0
TABLE
  2
LTYPE
  5
5
330
0
100
AcDbSymbolTable
 70
     6
  0
LTYPE
  5
14
330
5
100
AcDbSymbolTableRecord
100
AcDbLinetypeTableRecord
  2
ByBlock
 70
     0
  3

 72
    65
 73
     0
 40
0.0
  0
LTYPE
  5
15
330
5
100
AcDbSymbolTableRecord
100
AcDbLinetypeTableRecord
  2
ByLayer
 70
     0
  3

 72
    65
 73
     0
 40
0.0
  0
LTYPE
  5
16
330
5
100
AcDbSymbolTableRecord
100
AcDbLinetypeTableRecord
  2
Continuous
 70
     0
  3
Solid line
 72
    65
 73
     0
 40
0.0
  0
LTYPE
  5
5E
330
5
100
AcDbSymbolTableRecord
100
AcDbLinetypeTableRecord
  2
HIDDEN
 70
     0
  3
Hidden __ __ __ __ __ __ __ __ __ __ __ __ __ __
 72
    65
 73
     2
 40
1.905
 49
1.27
 74
     0
 49
-0.635
 74
     0
  0
LTYPE
  5
5F
330
5
100
AcDbSymbolTableRecord
100
AcDbLinetypeTableRecord
  2
PHANTOM
 70
     0
  3
Phantom ______  __  __  ______  __  __  ______
 72
    65
 73
     6
 40
12.7
 49
6.35
 74
     0
 49
-1.27
 74
     0
 49
1.27
 74
     0
 49
-1.27
 74
     0
 49
1.27
 74
     0
 49
-1.27
 74
     0
  0
LTYPE
  5
60
330
5
100
AcDbSymbolTableRecord
100
AcDbLinetypeTableRecord
  2
CENTER
 70
     0
  3
Center ____ _ ____ _ ____ _ ____ _ ____ _ ____
 72
    65
 73
     4
 40
10.16
 49
6.35
 74
     0
 49
-1.27
 74
     0
 49
1.27
 74
     0
 49
-1.27
 74
     0
  0
LTYPE
  5
61
330
5
100
AcDbSymbolTableRecord
100
AcDbLinetypeTableRecord
  2
CENTERX2
 70
     0
  3
Center (2x) ________  __  ________  __  _____
 72
    65
 73
     4
 40
20.32
 49
12.7
 74
     0
 49
-2.54
 74
     0
 49
2.54
 74
     0
 49
-2.54
 74
     0
  0
LTYPE
  5
62
330
5
100
AcDbSymbolTableRecord
100
AcDbLinetypeTableRecord
  2
DOT2
 70
     0
  3
Dot (.5x) ........................................
 72
    65
 73
     2
 40
0.635
 49
0.0
 74
     0
 49
-0.635
 74
     0
  0
ENDTAB
  0
TABLE
  2
LAYER
  5
2
330
0
100
AcDbSymbolTable
 70
     1
  0
LAYER
  5
10
330
2
100
AcDbSymbolTableRecord
100
AcDbLayerTableRecord
  2
0
 70
     0
 62
     7
  6
Continuous
370
    -3
390
F
  0
ENDTAB
  0
TABLE
  2
STYLE
  5
3
330
0
100
AcDbSymbolTable
 70
     1
  0
STYLE
  5
11
330
3
100
AcDbSymbolTableRecord
100
AcDbTextStyleTableRecord
  2
Standard
 70
     0
 40
0.0
 41
1.0
 50
0.0
 71
     0
 42
3.5
  3
txt
  4
bigfont
  0
ENDTAB
  0
TABLE
  2
VIEW
  5
6
330
0
100
AcDbSymbolTable
 70
     0
  0
ENDTAB
  0
TABLE
  2
UCS
  5
7
330
0
100
AcDbSymbolTable
 70
     0
  0
ENDTAB
  0
TABLE
  2
APPID
  5
9
330
0
100
AcDbSymbolTable
 70
     1
  0
APPID
  5
12
330
9
100
AcDbSymbolTableRecord
100
AcDbRegAppTableRecord
  2
ACAD
 70
     0
  0
ENDTAB
  0
TABLE
  2
DIMSTYLE
  5
A
330
0
100
AcDbSymbolTable
 70
     1
100
AcDbDimStyleTable
  0
DIMSTYLE
105
27
330
A
100
AcDbSymbolTableRecord
100
AcDbDimStyleTableRecord
  2
ISO-25
 70
     0
 41
2.5
 42
0.625
 43
3.75
 44
1.25
 73
     0
 74
     0
 77
     1
 78
     8
140
2.5
141
2.5
143
0.0393700787
147
0.625
171
     3
172
     1
178
     0
271
     2
272
     2
274
     3
278
    44
283
     0
284
     8
340
11
  0
ENDTAB
  0
TABLE
  2
BLOCK_RECORD
  5
1
330
0
100
AcDbSymbolTable
 70
     1
  0
BLOCK_RECORD
  5
1F
330
1
100
AcDbSymbolTableRecord
100
AcDbBlockTableRecord
  2
*Model_Space
340
22
  0
BLOCK_RECORD
  5
1B
330
1
100
AcDbSymbolTableRecord
100
AcDbBlockTableRecord
  2
*Paper_Space
340
1E
  0
BLOCK_RECORD
  5
23
330
1
100
AcDbSymbolTableRecord
100
AcDbBlockTableRecord
  2
*Paper_Space0
340
26
  0
ENDTAB
  0
ENDSEC
  0
SECTION
  2
BLOCKS
  0
BLOCK
  5
20
330
1F
100
AcDbEntity
  8
0
100
AcDbBlockBegin
  2
*Model_Space
 70
     0
 10
0.0
 20
0.0
 30
0.0
  3
*Model_Space
  1

  0
ENDBLK
  5
21
330
1F
100
AcDbEntity
  8
0
100
AcDbBlockEnd
  0
BLOCK
  5
1C
330
1B
100
AcDbEntity
 67
     1
  8
0
100
AcDbBlockBegin
  2
*Paper_Space
 70
     0
 10
0.0
 20
0.0
 30
0.0
  3
*Paper_Space
  1

  0
ENDBLK
  5
1D
330
1B
100
AcDbEntity
 67
     1
  8
0
100
AcDbBlockEnd
  0
BLOCK
  5
24
330
23
100
AcDbEntity
  8
0
100
AcDbBlockBegin
  2
*Paper_Space0
 70
     0
 10
0.0
 20
0.0
 30
0.0
  3
*Paper_Space0
  1

  0
ENDBLK
  5
25
330
23
100
AcDbEntity
  8
0
100
AcDbBlockEnd
  0
ENDSEC
  0
SECTION
  2
ENTITIES
  0
LINE
  5
63
330
1F
100
AcDbEntity
  8
0
  6
Continuous
 62
     7
370
    25
100
AcDbLine
 10
323.3663476322
 20
194.9394956337
 30
0.0
 11
324.3663476322
 21
193.9394956337
 31
0.0
  0
LINE
  5
64
330
1F
100
AcDbEntity
  8
0
  6
Continuous
 62
     7
370
    25
100
AcDbLine
 10
324.3663476322
 20
238.9394956337
 30
0.0
 11
323.3663476322
 21
237.9394956337
 31
0.0
  0
LINE
  5
65
330
1F
100
AcDbEntity
  8
0
  6
Continuous
 62
     7
370
    25
100
AcDbLine
 10
370.3663476322
 20
193.9394956337
 30
0.0
 11
387.8663476322
 21
193.9394956337
 31
0.0
  0
LINE
  5
66
330
1F
100
AcDbEntity
  8
0
  6
Continuous
 62
     7
370
    25
100
AcDbLine
 10
342.8663476322
 20
193.9394956337
 30
0.0
 11
365.3663476322
 21
193.9394956337
 31
0.0
  0
LINE
  5
67
330
1F
100
AcDbEntity
  8
0
  6
Continuous
 62
     7
370
    25
100
AcDbLine
 10
324.3663476322
 20
193.9394956337
 30
0.0
 11
332.8663476322
 21
193.9394956337
 31
0.0
  0
LINE
  5
68
330
1F
100
AcDbEntity
  8
0
  6
Continuous
 62
     7
370
    25
100
AcDbLine
 10
387.8663476322
 20
238.9394956337
 30
0.0
 11
324.3663476322
 21
238.9394956337
 31
0.0
  0
LINE
  5
69
330
1F
100
AcDbEntity
  8
0
  6
Continuous
 62
     7
370
    25
100
AcDbLine
 10
284.3663476322
 20
207.4394956337
 30
0.0
 11
284.8663476322
 21
206.9394956337
 31
0.0
  0
LINE
  5
6A
330
1F
100
AcDbEntity
  8
0
  6
Continuous
 62
     7
370
    25
100
AcDbLine
 10
284.8663476322
 20
206.9394956337
 30
0.0
 11
323.3663476322
 21
206.9394956337
 31
0.0
  0
LINE
  5
6B
330
1F
100
AcDbEntity
  8
0
  6
Continuous
 62
     7
370
    25
100
AcDbLine
 10
323.3663476322
 20
225.9394956337
 30
0.0
 11
319.3663476322
 21
225.9394956337
 31
0.0
  0
LINE
  5
6C
330
1F
100
AcDbEntity
  8
0
  6
Continuous
 62
     7
370
    25
100
AcDbLine
 10
324.3663476322
 20
216.4394956337
 30
0.0
 11
324.3663476322
 21
193.9394956337
 31
0.0
  0
LINE
  5
6D
330
1F
100
AcDbEntity
  8
0
  6
Continuous
 62
     7
370
    25
100
AcDbLine
 10
323.3663476322
 20
216.4394956337
 30
0.0
 11
323.3663476322
 21
194.9394956337
 31
0.0
  0
LINE
  5
6E
330
1F
100
AcDbEntity
  8
0
  6
Continuous
 62
     7
370
    25
100
AcDbLine
 10
324.3663476322
 20
238.9394956337
 30
0.0
 11
324.3663476322
 21
216.4394956337
 31
0.0
  0
LINE
  5
6F
330
1F
100
AcDbEntity
  8
0
  6
Continuous
 62
     7
370
    25
100
AcDbLine
 10
323.3663476322
 20
237.9394956337
 30
0.0
 11
323.3663476322
 21
216.4394956337
 31
0.0
  0
LINE
  5
70
330
1F
100
AcDbEntity
  8
0
  6
Continuous
 62
     7
370
    25
100
AcDbLine
 10
387.8663476322
 20
216.4394956337
 30
0.0
 11
387.8663476322
 21
193.9394956337
 31
0.0
  0
SPLINE
  5
71
330
1F
100
AcDbEntity
  8
0
  6
Continuous
 62
     7
370
    25
100
AcDbSpline
210
0.0
220
0.0
230
1.0
 70
     8
 71
     3
 72
    27
 73
    23
 74
     0
 42
0.00000001
 43
0.00000001
 40
0.0
 40
0.0
 40
0.0
 40
0.0
 40
0.0199151416621005
 40
0.0402087608678157
 40
0.060881817493647
 40
0.0819352190026989
 40
0.1033698240357269
 40
0.1251864457089653
 40
0.1778587886157399
 40
0.2501854983571479
 40
0.3228045760552814
 40
0.3752265940276683
 40
0.499776914247593
 40
0.6243489660763321
 40
0.676851719941687
 40
0.7494050469591726
 40
0.8217984299997149
 40
0.874394584370766
 40
0.9070925366886076
 40
0.9389241453337096
 40
0.9698922643960367
 40
1.0
 40
1.0
 40
1.0
 40
1.0
 10
370.366347632186
 20
193.9394956337053
 30
0.0
 10
370.3654073367126
 20
193.9396065469288
 30
0.0
 10
370.3635088759094
 20
193.9398304812272
 30
0.0
 10
370.3479528079267
 20
193.9416020485979
 30
0.0
 10
370.3225077760735
 20
193.9444181331028
 30
0.0
 10
370.2857914567864
 20
193.9483850511728
 30
0.0
 10
370.2376403818172
 20
193.9534825736715
 30
0.0
 10
370.1497223255462
 20
193.9625678376462
 30
0.0
 10
369.9736079858913
 20
193.9807021383328
 30
0.0
 10
369.6501685160193
 20
194.0089786945227
 30
0.0
 10
369.2432949157914
 20
194.0373071658411
 30
0.0
 10
368.6624335818444
 20
194.0681520894529
 30
0.0
 10
367.8682039470488
 20
194.0862765732252
 30
0.0
 10
367.0735203944648
 20
194.0682732897384
 30
0.0
 10
366.492173563114
 20
194.0374830982939
 30
0.0
 10
366.0847378980143
 20
194.0091577390458
 30
0.0
 10
365.7608696874215
 20
193.9808698864892
 30
0.0
 10
365.5713177043588
 20
193.9613782921336
 30
0.0
 10
365.4682486525888
 20
193.9506880639792
 30
0.0
 10
365.4088389501725
 20
193.9442893150519
 30
0.0
 10
365.3728667315299
 20
193.9402646055789
 30
0.0
 10
365.3685001611535
 20
193.9397495390604
 30
0.0
 10
365.366347632186
 20
193.9394956337053
 30
0.0
  0
SPLINE
  5
72
330
1F
100
AcDbEntity
  8
0
  6
Continuous
 62
     7
370
    25
100
AcDbSpline
210
0.0
220
0.0
230
1.0
 70
     8
 71
     3
 72
    37
 73
    33
 74
     0
 42
0.00000001
 43
0.00000001
 40
0.0
 40
0.0
 40
0.0
 40
0.0
 40
0.0132198026509974
 40
0.0266042752377748
 40
0.040154598670732
 40
0.053871910984003
 40
0.0677573091105318
 40
0.0818118505843943
 40
0.0960365551724068
 40
0.1104324064371513
 40
0.1250003532336273
 40
0.154824867727035
 40
0.1876616640010465
 40
0.2140474269207555
 40
0.2500101106252682
 40
0.3126176113915514
 40
0.3749084123126657
 40
0.4392259624944118
 40
0.4998775065014381
 40
0.5605121287711907
 40
0.6247969733226384
 40
0.6870973970885333
 40
0.7496543301946363
 40
0.7857783551578107
 40
0.8121922126198574
 40
0.8448910845288263
 40
0.8745965662408609
 40
0.9007858577906136
 40
0.9264148291288702
 40
0.9514892968697191
 40
0.9760154737130375
 40
1.0
 40
1.0
 40
1.0
 40
1.0
 10
342.866347632186
 20
193.9394956337053
 30
0.0
 10
342.8655130674954
 20
193.9396922953428
 30
0.0
 10
342.8638335425193
 20
193.9400880682954
 30
0.0
 10
342.8501295311423
 20
193.9432434124246
 30
0.0
 10
342.8278874200489
 20
193.9482657908327
 30
0.0
 10
342.796011574822
 20
193.9553457888672
 30
0.0
 10
342.7544525211048
 20
193.9644314308934
 30
0.0
 10
342.7028980720903
 20
193.9755367107595
 30
0.0
 10
342.6411342653552
 20
193.9886585035864
 30
0.0
 10
342.5689456623953
 20
194.0037950014109
 30
0.0
 10
342.4575891815703
 20
194.0268797282094
 30
0.0
 10
342.2853580554368
 20
194.0619146587383
 30
0.0
 10
342.046526480922
 20
194.1077677365697
 30
0.0
 10
341.7532251889918
 20
194.1613063203843
 30
0.0
 10
341.3185529603111
 20
194.2341713199463
 30
0.0
 10
340.6660941226953
 20
194.3291010633623
 30
0.0
 10
339.7895473669347
 20
194.42451614329
 30
0.0
 10
338.8439341756433
 20
194.4868489720524
 30
0.0
 10
337.8685599847642
 20
194.5094308989094
 30
0.0
 10
336.8932747523679
 20
194.487048452204
 30
0.0
 10
335.9475900408846
 20
194.4249066904285
 30
0.0
 10
335.0709087811835
 20
194.3296502787686
 30
0.0
 10
334.4174092607346
 20
194.2346863231483
 30
0.0
 10
333.9818210582399
 20
194.1617266318645
 30
0.0
 10
333.6881321197924
 20
194.1081327257754
 30
0.0
 10
333.4496209328877
 20
194.06236464736
 30
0.0
 10
333.2515728759328
 20
194.0220943150715
 30
0.0
 10
333.1037703986104
 20
193.9913035896903
 30
0.0
 10
332.9953110070693
 20
193.9681903243294
 30
0.0
 10
332.9203440410691
 20
193.9517845795238
 30
0.0
 10
332.8746634220711
 20
193.9414545505544
 30
0.0
 10
332.8690988515793
 20
193.9401437272839
 30
0.0
 10
332.866347632186
 20
193.9394956337053
 30
0.0
  0
LINE
  5
73
330
1F
100
AcDbEntity
  8
0
  6
Continuous
 62
     7
370
    25
100
AcDbLine
 10
387.8663476322
 20
238.9394956337
 30
0.0
 11
387.8663476322
 21
216.4394956337
 31
0.0
  0
SPLINE
  5
74
330
1F
100
AcDbEntity
  8
0
  6
Continuous
 62
     7
370
    25
100
AcDbSpline
210
0.0
220
0.0
230
1.0
 70
     8
 71
     3
 72
     8
 73
     4
 74
     0
 42
0.00000001
 43
0.00000001
 40
0.0
 40
0.0
 40
0.0
 40
0.0
 40
1.0
 40
1.0
 40
1.0
 40
1.0
 10
284.866347632186
 20
225.4533738223654
 30
0.0
 10
284.699407182242
 20
225.2774302117159
 30
0.0
 10
284.5327244420034
 20
225.1012462636249
 30
0.0
 10
284.366347632186
 20
224.9247770079439
 30
0.0
  0
LINE
  5
75
330
1F
100
AcDbEntity
  8
0
  6
Continuous
 62
     7
370
    25
100
AcDbLine
 10
284.8663476322
 20
225.4533738224
 30
0.0
 11
284.8663476322
 21
216.4394956337
 31
0.0
  0
LINE
  5
76
330
1F
100
AcDbEntity
  8
0
  6
Continuous
 62
     7
370
    25
100
AcDbLine
 10
284.3663476322
 20
224.9247770079
 30
0.0
 11
284.3663476322
 21
216.4394956337
 31
0.0
  0
LINE
  5
77
330
1F
100
AcDbEntity
  8
0
  6
Continuous
 62
     7
370
    25
100
AcDbLine
 10
284.8663476322
 20
216.4394956337
 30
0.0
 11
284.8663476322
 21
206.9394956337
 31
0.0
  0
LINE
  5
78
330
1F
100
AcDbEntity
  8
0
  6
Continuous
 62
     7
370
    25
100
AcDbLine
 10
284.3663476322
 20
216.4394956337
 30
0.0
 11
284.3663476322
 21
207.4394956337
 31
0.0
  0
LINE
  5
79
330
1F
100
AcDbEntity
  8
0
  6
Continuous
 62
     7
370
    25
100
AcDbLine
 10
316.3663476322
 20
225.4533738224
 30
0.0
 11
284.8663476322
 21
225.4533738224
 31
0.0
  0
SPLINE
  5
7A
330
1F
100
AcDbEntity
  8
0
  6
Continuous
 62
     7
370
    25
100
AcDbSpline
210
0.0
220
0.0
230
1.0
 70
     8
 71
     3
 72
    21
 73
    17
 74
     0
 42
0.00000001
 43
0.00000001
 40
0.0
 40
0.0
 40
0.0
 40
0.0
 40
0.0313399934193003
 40
0.062624165569441
 40
0.0939292235287482
 40
0.1253317213227984
 40
0.1876157809644316
 40
0.2500903882167149
 40
0.3750207771426178
 40
0.5000914489812796
 40
0.6245407573241483
 40
0.7496555537339771
 40
0.8120438496738798
 40
0.8741280025437641
 40
0.93709861073076
 40
1.0
 40
1.0
 40
1.0
 40
1.0
 10
319.366347632186
 20
225.9394956337053
 30
0.0
 10
319.3656454706988
 20
225.939272023421
 30
0.0
 10
319.3642423983802
 20
225.938825201136
 30
0.0
 10
319.3528445818774
 20
225.9352251328601
 30
0.0
 10
319.3346317516435
 20
225.9295147894998
 30
0.0
 10
319.3005962036005
 20
225.9189140554063
 30
0.0
 10
319.2404207498778
 20
225.900347874591
 30
0.0
 10
319.1073798655843
 20
225.8604885789941
 30
0.0
 10
318.8744917774134
 20
225.7940589315473
 30
0.0
 10
318.5012777658149
 20
225.6998373027159
 30
0.0
 10
318.0474073628218
 20
225.6045850464126
 30
0.0
 10
317.6144179689105
 20
225.5362334164234
 30
0.0
 10
317.2450743071131
 20
225.4946132481514
 30
0.0
 10
316.9584098762476
 20
225.4713707159526
 30
0.0
 10
316.6646604608983
 20
225.4562222440099
 30
0.0
 10
316.4657487802415
 20
225.4543229480963
 30
0.0
 10
316.366347632186
 20
225.4533738223654
 30
0.0
  0
SPLINE
  5
7B
330
1F
100
AcDbEntity
  8
0
  6
HIDDEN
 62
     7
370
    18
100
AcDbSpline
210
0.0
220
0.0
230
1.0
 70
     8
 71
     3
 72
    27
 73
    23
 74
     0
 42
0.00000001
 43
0.00000001
 40
0.0
 40
0.0
 40
0.0
 40
0.0
 40
0.0198984354819557
 40
0.0401820194773437
 40
0.0608517213881337
 40
0.081908456746039
 40
0.1033530909695446
 40
0.1251864428084284
 40
0.1776640265494566
 40
0.2501849519892564
 40
0.3226075389798432
 40
0.3752265804707088
 40
0.4997771054762059
 40
0.6243491109594913
 40
0.6770465900803943
 40
0.7494056580102699
 40
0.8219954993357755
 40
0.8743946267954372
 40
0.9071153844445923
 40
0.9389545727706895
 40
0.9699150667277742
 40
1.0
 40
1.0
 40
1.0
 40
1.0
 10
367.866347632186
 20
229.7848990306652
 30
0.0
 10
367.9183571119594
 20
229.7841418271807
 30
0.0
 10
368.0233827523499
 20
229.7826127639943
 30
0.0
 10
368.1818013304469
 20
229.7700477884088
 30
0.0
 10
368.3419125503195
 20
229.7494432569201
 30
0.0
 10
368.502949073436
 20
229.719647551602
 30
0.0
 10
368.6640854297866
 20
229.680500238927
 30
0.0
 10
368.8984271939929
 20
229.6090546516043
 30
0.0
 10
369.2409308851161
 20
229.4657221998892
 30
0.0
 10
369.6480321876262
 20
229.2001222257433
 30
0.0
 10
369.9719719986566
 20
228.8616872162799
 30
0.0
 10
370.2719466867354
 20
228.3740677569558
 30
0.0
 10
370.4323055949876
 20
227.6948092215388
 30
0.0
 10
370.273062201097
 20
226.9972020774726
 30
0.0
 10
369.9737883847697
 20
226.4784599573863
 30
0.0
 10
369.6502431908076
 20
226.1112037694796
 30
0.0
 10
369.2436681289619
 20
225.8169512883948
 30
0.0
 10
368.8760988150218
 20
225.6430956288354
 30
0.0
 10
368.5879179768091
 20
225.5486091271044
 30
0.0
 10
368.3452003899537
 20
225.4939476673557
 30
0.0
 10
368.1045890866889
 20
225.4607971565677
 30
0.0
 10
367.9449984596594
 20
225.4567610972575
 30
0.0
 10
367.866347632186
 20
225.454772011743
 30
0.0
  0
SPLINE
  5
7C
330
1F
100
AcDbEntity
  8
0
  6
HIDDEN
 62
     7
370
    18
100
AcDbSpline
210
0.0
220
0.0
230
1.0
 70
     8
 71
     3
 72
    27
 73
    23
 74
     0
 42
0.00000001
 43
0.00000001
 40
0.0
 40
0.0
 40
0.0
 40
0.0
 40
0.0199265458642075
 40
0.0402401513984629
 40
0.060941790125551
 40
0.0820323812839855
 40
0.1035127936268153
 40
0.125383848903323
 40
0.1778462589531378
 40
0.2504639307536714
 40
0.3228239951658955
 40
0.3754816563635595
 40
0.4998992234133204
 40
0.6243842085392967
 40
0.6771127149468049
 40
0.7495852945518339
 40
0.8222534650616143
 40
0.874767185695661
 40
0.9073825876889324
 40
0.9391245782653003
 40
0.9699960123486729
 40
1.0
 40
1.0
 40
1.0
 40
1.0
 10
367.866347632186
 20
225.454772011743
 30
0.0
 10
367.8142645185217
 20
225.4556432379509
 30
0.0
 10
367.7090866119523
 20
225.4574026133462
 30
0.0
 10
367.5504348765517
 20
225.4717907975632
 30
0.0
 10
367.3900815356399
 20
225.495297041176
 30
0.0
 10
367.2287977655894
 20
225.5291851121256
 30
0.0
 10
367.0674134654153
 20
225.5735970251783
 30
0.0
 10
366.8329773372716
 20
225.654321422568
 30
0.0
 10
366.4903023279622
 20
225.8161764878537
 30
0.0
 10
366.0833831490772
 20
226.110346997317
 30
0.0
 10
365.75964755525
 20
226.4774559507217
 30
0.0
 10
365.4602880474237
 20
226.9956621939078
 30
0.0
 10
365.3005097851315
 20
227.6925366450307
 30
0.0
 10
365.459835296878
 20
228.3717515232816
 30
0.0
 10
365.75926760663
 20
228.8598904055823
 30
0.0
 10
366.0833430073904
 20
229.1991043453392
 30
0.0
 10
366.4907784430887
 20
229.4652523190542
 30
0.0
 10
366.8587498294891
 20
229.6193274470548
 30
0.0
 10
367.1468147024801
 20
229.7027892670687
 30
0.0
 10
367.3888307847432
 20
229.7507353731417
 30
0.0
 10
367.6287620730213
 20
229.779675975727
 30
0.0
 10
367.7879083660038
 20
229.7831746304196
 30
0.0
 10
367.866347632186
 20
229.7848990306652
 30
0.0
  0
LINE
  5
7D
330
1F
100
AcDbEntity
  8
0
  6
HIDDEN
 62
     7
370
    18
100
AcDbLine
 10
386.8663476322
 20
228.4394956337
 30
0.0
 11
386.8663476322
 21
216.4394956337
 31
0.0
  0
LINE
  5
7E
330
1F
100
AcDbEntity
  8
0
  6
HIDDEN
 62
     7
370
    18
100
AcDbLine
 10
336.8663476322
 20
216.4394956337
 30
0.0
 11
336.8663476322
 21
205.4850444836
 31
0.0
  0
LINE
  5
7F
330
1F
100
AcDbEntity
  8
0
  6
HIDDEN
 62
     7
370
    18
100
AcDbLine
 10
386.8663476322
 20
216.4394956337
 30
0.0
 11
386.8663476322
 21
205.1257871347
 31
0.0
  0
SPLINE
  5
80
330
1F
100
AcDbEntity
  8
0
  6
HIDDEN
 62
     7
370
    18
100
AcDbSpline
210
0.0
220
0.0
230
1.0
 70
     8
 71
     3
 72
    27
 73
    23
 74
     0
 42
0.00000001
 43
0.00000001
 40
0.0
 40
0.0
 40
0.0
 40
0.0
 40
0.0198603671420117
 40
0.0401181594695939
 40
0.0607769070917284
 40
0.0818399379357617
 40
0.1033103913524126
 40
0.1251912307431824
 40
0.177393337398186
 40
0.250232656069871
 40
0.3224554972762641
 40
0.3753116364423925
 40
0.4998656681345288
 40
0.6243737129816723
 40
0.6772746196763744
 40
0.7494201265870566
 40
0.8222911783577936
 40
0.87440253750201
 40
0.9071832424200812
 40
0.9390358884040613
 40
0.9699709819409229
 40
1.0
 40
1.0
 40
1.0
 40
1.0
 10
367.866347632186
 20
224.4729064403191
 30
0.0
 10
367.814336452305
 20
224.4721997809224
 30
0.0
 10
367.7092732984494
 20
224.47077232119
 30
0.0
 10
367.5507630054022
 20
224.4590047774059
 30
0.0
 10
367.3904830921509
 20
224.4396513737525
 30
0.0
 10
367.2292052771823
 20
224.4115941861184
 30
0.0
 10
367.0677633980858
 20
224.3746515923966
 30
0.0
 10
366.8338989480852
 20
224.3073568372239
 30
0.0
 10
366.4915433458556
 20
224.1722464158464
 30
0.0
 10
366.085473813565
 20
223.9199753637866
 30
0.0
 10
365.7614075096798
 20
223.5943050729558
 30
0.0
 10
365.4611932081066
 20
223.120748247554
 30
0.0
 10
365.3000467626701
 20
222.4476213411062
 30
0.0
 10
365.4604108552001
 20
221.7403958451688
 30
0.0
 10
365.7599560821836
 20
221.2089964335281
 30
0.0
 10
366.0835786545484
 20
220.8295873079493
 30
0.0
 10
366.4890317494527
 20
220.5237325098375
 30
0.0
 10
366.8563480450388
 20
220.3411767859148
 30
0.0
 10
367.14407333309
 20
220.2418935432919
 30
0.0
 10
367.3871689276688
 20
220.1841914825783
 30
0.0
 10
367.6279999368548
 20
220.1491604684209
 30
0.0
 10
367.7876895260787
 20
220.1448852570468
 30
0.0
 10
367.866347632186
 20
220.1427794213969
 30
0.0
  0
SPLINE
  5
81
330
1F
100
AcDbEntity
  8
0
  6
HIDDEN
 62
     7
370
    18
100
AcDbSpline
210
0.0
220
0.0
230
1.0
 70
     8
 71
     3
 72
    27
 73
    23
 74
     0
 42
0.00000001
 43
0.00000001
 40
0.0
 40
0.0
 40
0.0
 40
0.0
 40
0.0198890731569932
 40
0.0401775678469556
 40
0.0608690296469908
 40
0.081966800379532
 40
0.1034740318751969
 40
0.1253936987421025
 40
0.1775711040769506
 40
0.2504879615112514
 40
0.322631781384096
 40
0.3755038833704467
 40
0.4998918051908062
 40
0.6243934993581436
 40
0.6773482354854674
 40
0.7496577925649828
 40
0.8225785705106142
 40
0.8748034742257584
 40
0.9074702841350653
 40
0.9392181983831296
 40
0.970057642955798
 40
1.0
 40
1.0
 40
1.0
 40
1.0
 10
367.866347632186
 20
220.1427794213969
 30
0.0
 10
367.918434114097
 20
220.1437016708159
 30
0.0
 10
368.0236531026526
 20
220.1455646906919
 30
0.0
 10
368.1824021156991
 20
220.1607763408495
 30
0.0
 10
368.3429301482585
 20
220.1856072266027
 30
0.0
 10
368.5044615303793
 20
220.2213850933458
 30
0.0
 10
368.6661578367904
 20
220.2682550978662
 30
0.0
 10
368.9000961857013
 20
220.353024401021
 30
0.0
 10
369.2425556991089
 20
220.5230229868219
 30
0.0
 10
369.6483625635166
 20
220.8288579841356
 30
0.0
 10
369.9721704478877
 20
221.2082030694092
 30
0.0
 10
370.2717776014061
 20
221.7391843613356
 30
0.0
 10
370.4325535541527
 20
222.4458550422764
 30
0.0
 10
370.272204481608
 20
223.1190184875569
 30
0.0
 10
369.9723224787375
 20
223.5931011694367
 30
0.0
 10
369.6480514648115
 20
223.9193809191736
 30
0.0
 10
369.2416560954917
 20
224.1720226600513
 30
0.0
 10
368.8740066360654
 20
224.3171516104682
 30
0.0
 10
368.5864298951035
 20
224.3957430693238
 30
0.0
 10
368.3440902483357
 20
224.4408859125145
 30
0.0
 10
368.1039907382487
 20
224.4680310843256
 30
0.0
 10
367.9447787230425
 20
224.4712973909542
 30
0.0
 10
367.866347632186
 20
224.4729064403191
 30
0.0
  0
LINE
  5
82
330
1F
100
AcDbEntity
  8
0
  6
HIDDEN
 62
     7
370
    18
100
AcDbLine
 10
336.8663476322
 20
228.4394956337
 30
0.0
 11
336.8663476322
 21
216.4394956337
 31
0.0
  0
SPLINE
  5
83
330
1F
100
AcDbEntity
  8
0
  6
HIDDEN
 62
     7
370
    18
100
AcDbSpline
210
0.0
220
0.0
230
1.0
 70
     8
 71
     3
 72
    21
 73
    17
 74
     0
 42
0.00000001
 43
0.00000001
 40
0.0
 40
0.0
 40
0.0
 40
0.0
 40
0.036332681631463
 40
0.0723863315660809
 40
0.1082083397606744
 40
0.1438470202907817
 40
0.1793514356925195
 40
0.2147712064886958
 40
0.2501563093356265
 40
0.3743403217379342
 40
0.5002168065827743
 40
0.6210670716355301
 40
0.7499907977818763
 40
0.8288113439646725
 40
0.9120922248288025
 40
1.0
 40
1.0
 40
1.0
 40
1.0
 10
332.866347632186
 20
209.7680545984064
 30
0.0
 10
332.8671029011315
 20
209.7673828792416
 30
0.0
 10
332.8686076386256
 20
209.7660445996542
 30
0.0
 10
332.8806870293427
 20
209.7551080523571
 30
0.0
 10
332.8996939591229
 20
209.7376153416384
 30
0.0
 10
332.9260984847489
 20
209.7129376883871
 30
0.0
 10
332.9594689318287
 20
209.6812475971576
 30
0.0
 10
332.9996128392455
 20
209.6424770599825
 30
0.0
 10
333.0852107272556
 20
209.5584799388373
 30
0.0
 10
333.2486749137141
 20
209.3913550565525
 30
0.0
 10
333.5199375837691
 20
209.0893157970769
 30
0.0
 10
333.8325731544542
 20
208.7097073295262
 30
0.0
 10
334.1258568879764
 20
208.3273448139362
 30
0.0
 10
334.3923319179149
 20
207.960913161625
 30
0.0
 10
334.6242213850262
 20
207.631768005496
 30
0.0
 10
334.7841976017929
 20
207.3956130993246
 30
0.0
 10
334.866347632186
 20
207.2743442437937
 30
0.0
  0
LINE
  5
84
330
1F
100
AcDbEntity
  8
0
  6
HIDDEN
 62
     7
370
    18
100
AcDbLine
 10
334.8663476322
 20
216.4394956337
 30
0.0
 11
334.8663476322
 21
207.2743442438
 31
0.0
  0
LINE
  5
85
330
1F
100
AcDbEntity
  8
0
  6
HIDDEN
 62
     7
370
    18
100
AcDbLine
 10
334.8663476322
 20
226.4394956337
 30
0.0
 11
334.8663476322
 21
216.4394956337
 31
0.0
  0
LINE
  5
86
330
1F
100
AcDbEntity
  8
0
  6
HIDDEN
 62
     7
370
    18
100
AcDbLine
 10
340.8663476322
 20
201.1394956337
 30
0.0
 11
340.8663476322
 21
205.1257871347
 31
0.0
  0
LINE
  5
87
330
1F
100
AcDbEntity
  8
0
  6
HIDDEN
 62
     7
370
    18
100
AcDbLine
 10
332.8663476322
 20
193.9394956337
 30
0.0
 11
332.8663476322
 21
209.7680545984
 31
0.0
  0
LINE
  5
88
330
1F
100
AcDbEntity
  8
0
  6
HIDDEN
 62
     7
370
    18
100
AcDbLine
 10
342.8663476322
 20
193.9394956337
 30
0.0
 11
342.8663476322
 21
201.1394956337
 31
0.0
  0
SPLINE
  5
89
330
1F
100
AcDbEntity
  8
0
  6
HIDDEN
 62
     7
370
    18
100
AcDbSpline
210
0.0
220
0.0
230
1.0
 70
     8
 71
     3
 72
    16
 73
    12
 74
     0
 42
0.00000001
 43
0.00000001
 40
0.0
 40
0.0
 40
0.0
 40
0.0
 40
0.0949264622958472
 40
0.1851041649649391
 40
0.2705369937666873
 40
0.351229538994236
 40
0.4271872695333206
 40
0.4984167642075384
 40
0.6738971358450424
 40
0.8410351049699483
 40
1.0
 40
1.0
 40
1.0
 40
1.0
 10
334.866347632186
 20
207.2743442437937
 30
0.0
 10
334.922142842771
 20
207.2923282366578
 30
0.0
 10
335.0309420712958
 20
207.3273965611412
 30
0.0
 10
335.196111946599
 20
207.3771213970807
 30
0.0
 10
335.3563661333337
 20
207.4229990790421
 30
0.0
 10
335.5113349534512
 20
207.4649354840328
 30
0.0
 10
335.6602001496361
 20
207.5029574225917
 30
0.0
 10
335.8748262970209
 20
207.5544368078375
 30
0.0
 10
336.1583100918819
 20
207.614387848888
 30
0.0
 10
336.5128475675751
 20
207.6769461806243
 30
0.0
 10
336.7504996921819
 20
207.7070319028179
 30
0.0
 10
336.866347632186
 20
207.721697746624
 30
0.0
  0
SPLINE
  5
8A
330
1F
100
AcDbEntity
  8
0
  6
HIDDEN
 62
     7
370
    18
100
AcDbSpline
210
0.0
220
0.0
230
1.0
 70
     8
 71
     3
 72
    19
 73
    15
 74
     0
 42
0.00000001
 43
0.00000001
 40
0.0
 40
0.0
 40
0.0
 40
0.0
 40
0.0506788078432395
 40
0.1009765386960806
 40
0.1509105629275991
 40
0.2004986331430133
 40
0.2497588760005645
 40
0.3736063611404444
 40
0.5002325719550953
 40
0.6210040873110243
 40
0.7501997584177739
 40
0.8249167572679991
 40
0.9081793555393098
 40
1.0
 40
1.0
 40
1.0
 40
1.0
 10
336.866347632186
 20
205.4850444836021
 30
0.0
 10
336.9367276855311
 20
205.4910762220181
 30
0.0
 10
337.0769585726113
 20
205.5030943434676
 30
0.0
 10
337.2888387431434
 20
205.5160820461701
 30
0.0
 10
337.5002823245399
 20
205.525275900335
 30
0.0
 10
337.7110962190258
 20
205.5303266852647
 30
0.0
 10
338.02708684056
 20
205.531836443612
 30
0.0
 10
338.452302066087
 20
205.5192126135532
 30
0.0
 10
338.9710134221014
 20
205.4790157257104
 30
0.0
 10
339.4824434772019
 20
205.4152463482478
 30
0.0
 10
339.9060344268988
 20
205.3440761958704
 30
0.0
 10
340.2640975607073
 20
205.2713537285815
 30
0.0
 10
340.564918020994
 20
205.2034276734296
 30
0.0
 10
340.7626494003981
 20
205.1524971402418
 30
0.0
 10
340.866347632186
 20
205.1257871347206
 30
0.0
  0
LINE
  5
8B
330
1F
100
AcDbEntity
  8
0
  6
HIDDEN
 62
     7
370
    18
100
AcDbLine
 10
340.8663476322
 20
205.1257871347
 30
0.0
 11
386.8663476322
 21
205.1257871347
 31
0.0
  0
SPLINE
  5
8C
330
1F
100
AcDbEntity
  8
0
  6
HIDDEN
 62
     7
370
    18
100
AcDbSpline
210
0.0
220
0.0
230
1.0
 70
     8
 71
     3
 72
     8
 73
     4
 74
     0
 42
0.00000001
 43
0.00000001
 40
0.0
 40
0.0
 40
0.0
 40
0.0
 40
1.0
 40
1.0
 40
1.0
 40
1.0
 10
386.866347632186
 20
205.1257871347206
 30
0.0
 10
387.1988416795322
 20
204.7731239413467
 30
0.0
 10
387.5322429195737
 20
204.4213187031567
 30
0.0
 10
387.866347632186
 20
204.0701787568524
 30
0.0
  0
LINE
  5
8D
330
1F
100
AcDbEntity
  8
0
  6
HIDDEN
 62
     7
370
    18
100
AcDbLine
 10
340.8663476322
 20
201.1394956337
 30
0.0
 11
387.8663476322
 21
201.1394956337
 31
0.0
  0
LINE
  5
8E
330
1F
100
AcDbEntity
  8
0
  6
HIDDEN
 62
     7
370
    18
100
AcDbLine
 10
316.3663476322
 20
222.4394956337
 30
0.0
 11
319.3663476322
 21
222.4394956337
 31
0.0
  0
LINE
  5
8F
330
1F
100
AcDbEntity
  8
0
  6
HIDDEN
 62
     7
370
    18
100
AcDbLine
 10
319.3663476322
 20
225.9394956337
 30
0.0
 11
319.3663476322
 21
222.4394956337
 31
0.0
  0
LINE
  5
90
330
1F
100
AcDbEntity
  8
0
  6
HIDDEN
 62
     7
370
    18
100
AcDbLine
 10
284.3663476322
 20
222.4394956337
 30
0.0
 11
316.3663476322
 21
222.4394956337
 31
0.0
  0
LINE
  5
91
330
1F
100
AcDbEntity
  8
0
  6
HIDDEN
 62
     7
370
    18
100
AcDbLine
 10
365.3663476322
 20
193.9394956337
 30
0.0
 11
365.3663476322
 21
201.1394956337
 31
0.0
  0
LINE
  5
92
330
1F
100
AcDbEntity
  8
0
  6
HIDDEN
 62
     7
370
    18
100
AcDbLine
 10
370.3663476322
 20
193.9394956337
 30
0.0
 11
370.3663476322
 21
201.1394956337
 31
0.0
  0
LINE
  5
93
330
1F
100
AcDbEntity
  8
0
  6
HIDDEN
 62
     7
370
    18
100
AcDbLine
 10
387.8663476322
 20
229.4394956337
 30
0.0
 11
386.8663476322
 21
228.4394956337
 31
0.0
  0
LINE
  5
94
330
1F
100
AcDbEntity
  8
0
  6
HIDDEN
 62
     7
370
    18
100
AcDbLine
 10
386.8663476322
 20
228.4394956337
 30
0.0
 11
336.8663476322
 21
228.4394956337
 31
0.0
  0
LINE
  5
95
330
1F
100
AcDbEntity
  8
0
  6
HIDDEN
 62
     7
370
    18
100
AcDbLine
 10
328.8577414419
 20
216.4394956337
 30
0.0
 11
332.8663476322
 21
209.7680545984
 31
0.0
  0
LINE
  5
96
330
1F
100
AcDbEntity
  8
0
  6
HIDDEN
 62
     7
370
    18
100
AcDbLine
 10
334.8663476322
 20
226.4394956337
 30
0.0
 11
328.8577414419
 21
216.4394956337
 31
0.0
  0
LINE
  5
97
330
1F
100
AcDbEntity
  8
0
  6
HIDDEN
 62
     7
370
    18
100
AcDbLine
 10
336.8663476322
 20
226.4394956337
 30
0.0
 11
334.8663476322
 21
226.4394956337
 31
0.0
  0
LINE
  5
98
330
1F
100
AcDbEntity
  8
0
  6
HIDDEN
 62
     7
370
    18
100
AcDbLine
 10
365.3663476322
 20
227.6894931815
 30
0.0
 11
365.3663476322
 21
222.4394897485
 31
0.0
  0
LINE
  5
99
330
1F
100
AcDbEntity
  8
0
  6
HIDDEN
 62
     7
370
    18
100
AcDbLine
 10
370.3663476322
 20
222.4394906904
 30
0.0
 11
370.3663476322
 21
227.6894906408
 31
0.0
  0
LINE
  5
9A
330
1F
100
AcDbEntity
  8
0
  6
Continuous
 62
     7
370
    25
100
AcDbLine
 10
323.3663476322
 20
372.8813772527
 30
0.0
 11
324.3663476322
 21
373.8813772527
 31
0.0
  0
LINE
  5
9B
330
1F
100
AcDbEntity
  8
0
  6
Continuous
 62
     7
370
    25
100
AcDbLine
 10
324.3663476322
 20
373.8813772527
 30
0.0
 11
324.3663476322
 21
328.8813772527
 31
0.0
  0
LINE
  5
9C
330
1F
100
AcDbEntity
  8
0
  6
Continuous
 62
     7
370
    25
100
AcDbLine
 10
323.3663476322
 20
329.8813772527
 30
0.0
 11
324.3663476322
 21
328.8813772527
 31
0.0
  0
LINE
  5
9D
330
1F
100
AcDbEntity
  8
0
  6
Continuous
 62
     7
370
    25
100
AcDbLine
 10
323.3663476322
 20
372.8813772527
 30
0.0
 11
323.3663476322
 21
329.8813772527
 31
0.0
  0
LINE
  5
9E
330
1F
100
AcDbEntity
  8
0
  6
Continuous
 62
     7
370
    25
100
AcDbLine
 10
324.3663476322
 20
373.8813772527
 30
0.0
 11
387.8663476322
 21
373.8813772527
 31
0.0
  0
LINE
  5
9F
330
1F
100
AcDbEntity
  8
0
  6
Continuous
 62
     7
370
    25
100
AcDbLine
 10
387.8663476322
 20
373.8813772527
 30
0.0
 11
387.8663476322
 21
328.8813772527
 31
0.0
  0
LINE
  5
A0
330
1F
100
AcDbEntity
  8
0
  6
Continuous
 62
     7
370
    25
100
AcDbLine
 10
324.3663476322
 20
328.8813772527
 30
0.0
 11
387.8663476322
 21
328.8813772527
 31
0.0
  0
SPLINE
  5
A1
330
1F
100
AcDbEntity
  8
0
  6
Continuous
 62
     7
370
    25
100
AcDbSpline
210
0.0
220
0.0
230
1.0
 70
     8
 71
     3
 72
    27
 73
    23
 74
     0
 42
0.00000001
 43
0.00000001
 40
0.0
 40
0.0
 40
0.0
 40
0.0
 40
0.0198984354819557
 40
0.0401820194773437
 40
0.0608517213881337
 40
0.081908456746039
 40
0.1033530909695446
 40
0.1251864428084284
 40
0.1776640265494566
 40
0.2501849519892564
 40
0.3226075389798432
 40
0.3752265804707088
 40
0.4997771054762059
 40
0.6243491109594913
 40
0.6770465900803943
 40
0.7494056580102699
 40
0.8219954993357755
 40
0.8743946267954372
 40
0.9071153844445923
 40
0.9389545727706895
 40
0.9699150667277742
 40
1.0
 40
1.0
 40
1.0
 40
1.0
 10
367.866347632186
 20
369.4962939837218
 30
0.0
 10
367.9183571119594
 20
369.4968599542144
 30
0.0
 10
368.0233827523499
 20
369.4980028499651
 30
0.0
 10
368.1818013304469
 20
369.5073140067099
 30
0.0
 10
368.3419125503195
 20
369.5224792214166
 30
0.0
 10
368.502949073436
 20
369.5442868565686
 30
0.0
 10
368.6640854297866
 20
369.5728062841104
 30
0.0
 10
368.8984271939929
 20
369.6245745668455
 30
0.0
 10
369.2409308851161
 20
369.7283506442784
 30
0.0
 10
369.6480321876262
 20
369.914342720021
 30
0.0
 10
369.9719719986566
 20
370.142451556868
 30
0.0
 10
370.2719466867354
 20
370.4594620732253
 30
0.0
 10
370.4323055949876
 20
370.872441197111
 30
0.0
 10
370.273062201097
 20
371.2545352516169
 30
0.0
 10
369.9737883847697
 20
371.5186113254413
 30
0.0
 10
369.6502431908076
 20
371.6979373886678
 30
0.0
 10
369.2436681289619
 20
371.8351632267604
 30
0.0
 10
368.8760988150218
 20
371.9129423247856
 30
0.0
 10
368.5879179768091
 20
371.9551118654458
 30
0.0
 10
368.3452003899537
 20
371.9792419955829
 30
0.0
 10
368.1045890866889
 20
371.9937086550667
 30
0.0
 10
367.9449984596594
 20
371.9954404872619
 30
0.0
 10
367.866347632186
 20
371.9962939837218
 30
0.0
  0
SPLINE
  5
A2
330
1F
100
AcDbEntity
  8
0
  6
Continuous
 62
     7
370
    25
100
AcDbSpline
210
0.0
220
0.0
230
1.0
 70
     8
 71
     3
 72
    27
 73
    23
 74
     0
 42
0.00000001
 43
0.00000001
 40
0.0
 40
0.0
 40
0.0
 40
0.0
 40
0.0199265458642075
 40
0.0402401513984629
 40
0.060941790125551
 40
0.0820323812839855
 40
0.1035127936268153
 40
0.125383848903323
 40
0.1778462589531378
 40
0.2504639307536714
 40
0.3228239951658955
 40
0.3754816563635595
 40
0.4998992234133204
 40
0.6243842085392967
 40
0.6771127149468049
 40
0.7495852945518339
 40
0.8222534650616143
 40
0.874767185695661
 40
0.9073825876889324
 40
0.9391245782653003
 40
0.9699960123486729
 40
1.0
 40
1.0
 40
1.0
 40
1.0
 10
367.866347632186
 20
371.9962939837218
 30
0.0
 10
367.8142645185217
 20
371.995920174921
 30
0.0
 10
367.7090866119523
 20
371.9951652963362
 30
0.0
 10
367.5504348765517
 20
371.9889212519772
 30
0.0
 10
367.3900815356399
 20
371.9786289271847
 30
0.0
 10
367.2287977655894
 20
371.9636825325095
 30
0.0
 10
367.0674134654153
 20
371.9439768341493
 30
0.0
 10
366.8329773372716
 20
371.907909180384
 30
0.0
 10
366.4903023279622
 20
371.8355236278543
 30
0.0
 10
366.0833831490772
 20
371.6983432334474
 30
0.0
 10
365.75964755525
 20
371.51910921362
 30
0.0
 10
365.4602880474237
 20
371.2553431401874
 30
0.0
 10
365.3005097851315
 20
370.8737371654335
 30
0.0
 10
365.459835296878
 20
370.4609155019554
 30
0.0
 10
365.75926760663
 20
370.14364758763
 30
0.0
 10
366.0833430073904
 20
369.9150507591418
 30
0.0
 10
366.4907784430887
 20
369.728685752913
 30
0.0
 10
366.8587498294891
 20
369.617150882812
 30
0.0
 10
367.1468147024801
 20
369.5566212216154
 30
0.0
 10
367.3888307847432
 20
369.521552683832
 30
0.0
 10
367.6287620730213
 20
369.5001975669285
 30
0.0
 10
367.7879083660038
 20
369.4975827581882
 30
0.0
 10
367.866347632186
 20
369.4962939837218
 30
0.0
  0
LINE
  5
A3
330
1F
100
AcDbEntity
  8
0
  6
Continuous
 62
     7
370
    25
100
AcDbLine
 10
316.3663476322
 20
348.3813772527
 30
0.0
 11
284.8663476322
 21
348.3813772527
 31
0.0
  0
SPLINE
  5
A4
330
1F
100
AcDbEntity
  8
0
  6
Continuous
 62
     7
370
    25
100
AcDbSpline
210
0.0
220
0.0
230
1.0
 70
     8
 71
     3
 72
    21
 73
    17
 74
     0
 42
0.00000001
 43
0.00000001
 40
0.0
 40
0.0
 40
0.0
 40
0.0
 40
0.0313399934193003
 40
0.062624165569441
 40
0.0939292235287482
 40
0.1253317213227984
 40
0.1876157809644316
 40
0.2500903882167149
 40
0.3750207771426178
 40
0.5000914489812796
 40
0.6245407573241483
 40
0.7496555537339771
 40
0.8120438496738798
 40
0.8741280025437641
 40
0.93709861073076
 40
1.0
 40
1.0
 40
1.0
 40
1.0
 10
319.366347632186
 20
351.3813772526847
 30
0.0
 10
319.3656454706988
 20
351.3318691959639
 30
0.0
 10
319.3642423983802
 20
351.2329412638607
 30
0.0
 10
319.3528445818774
 20
351.08495927899
 30
0.0
 10
319.3346317516435
 20
350.9376730815263
 30
0.0
 10
319.3005962036005
 20
350.7434134361691
 30
0.0
 10
319.2404207498778
 20
350.5044316170474
 30
0.0
 10
319.1073798655843
 20
350.1347192402963
 30
0.0
 10
318.8744917774134
 20
349.7006337622736
 30
0.0
 10
318.5012777658149
 20
349.2468215892043
 30
0.0
 10
318.0474073628218
 20
348.8735365843785
 30
0.0
 10
317.6144179689105
 20
348.6410326128202
 30
0.0
 10
317.2450743071131
 20
348.5077904140152
 30
0.0
 10
316.9584098762476
 20
348.435788367903
 30
0.0
 10
316.6646604608983
 20
348.3899117318655
 30
0.0
 10
316.4657487802415
 20
348.384221035945
 30
0.0
 10
316.366347632186
 20
348.3813772526846
 30
0.0
  0
SPLINE
  5
A5
330
1F
100
AcDbEntity
  8
0
  6
Continuous
 62
     7
370
    25
100
AcDbSpline
210
0.0
220
0.0
230
1.0
 70
     8
 71
     3
 72
    24
 73
    20
 74
     0
 42
0.00000001
 43
0.00000001
 40
0.0
 40
0.0
 40
0.0
 40
0.0
 40
0.0358680519647465
 40
0.0714958841654953
 40
0.1070079407968213
 40
0.1425298826013186
 40
0.1781872654176894
 40
0.2141042241966705
 40
0.2504022301823776
 40
0.3747725408214356
 40
0.5002453833811487
 40
0.5625581433586574
 40
0.6252483842866636
 40
0.6879479409315664
 40
0.7501238609389526
 40
0.8130964043974035
 40
0.8753295697128736
 40
0.9374279386313065
 40
1.0
 40
1.0
 40
1.0
 40
1.0
 10
316.366347632186
 20
354.3813772526847
 30
0.0
 10
316.4230323386825
 20
354.3804737500034
 30
0.0
 10
316.5360221161485
 20
354.3786727956862
 30
0.0
 10
316.7045564224318
 20
354.3640657708806
 30
0.0
 10
316.8713705615845
 20
354.3406996217689
 30
0.0
 10
317.036459519526
 20
354.3077128361246
 30
0.0
 10
317.1998134983111
 20
354.2653012641409
 30
0.0
 10
317.3614411245074
 20
354.2133525506469
 30
0.0
 10
317.6496948434724
 20
354.1025133511855
 30
0.0
 10
318.0477893960433
 20
353.8903692473579
 30
0.0
 10
318.4256272872217
 20
353.5781508350194
 30
0.0
 10
318.6883870334112
 20
353.2883042728886
 30
0.0
 10
318.8631108170898
 20
353.0523641453
 30
0.0
 10
319.0147746701087
 20
352.8006022569784
 30
0.0
 10
319.1412292016921
 20
352.5340257717137
 30
0.0
 10
319.2413794697046
 20
352.2564224859272
 30
0.0
 10
319.3132921488139
 20
351.9697517561632
 30
0.0
 10
319.3581643664243
 20
351.6773828123862
 30
0.0
 10
319.3636129761637
 20
351.4802953875766
 30
0.0
 10
319.366347632186
 20
351.3813772526847
 30
0.0
  0
LINE
  5
A6
330
1F
100
AcDbEntity
  8
0
  6
Continuous
 62
     7
370
    25
100
AcDbLine
 10
284.8663476322
 20
354.3813772527
 30
0.0
 11
316.3663476322
 21
354.3813772527
 31
0.0
  0
LINE
  5
A7
330
1F
100
AcDbEntity
  8
0
  6
Continuous
 62
     7
370
    25
100
AcDbLine
 10
284.8663476322
 20
360.8813772527
 30
0.0
 11
284.8663476322
 21
354.3813772527
 31
0.0
  0
LINE
  5
A8
330
1F
100
AcDbEntity
  8
0
  6
Continuous
 62
     7
370
    25
100
AcDbLine
 10
284.8663476322
 20
360.8813772527
 30
0.0
 11
323.3663476322
 21
360.8813772527
 31
0.0
  0
LINE
  5
A9
330
1F
100
AcDbEntity
  8
0
  6
Continuous
 62
     7
370
    25
100
AcDbLine
 10
284.8663476322
 20
341.8813772527
 30
0.0
 11
323.3663476322
 21
341.8813772527
 31
0.0
  0
LINE
  5
AA
330
1F
100
AcDbEntity
  8
0
  6
Continuous
 62
     7
370
    25
100
AcDbLine
 10
284.8663476322
 20
348.3813772527
 30
0.0
 11
284.8663476322
 21
341.8813772527
 31
0.0
  0
LINE
  5
AB
330
1F
100
AcDbEntity
  8
0
  6
Continuous
 62
     7
370
    25
100
AcDbLine
 10
284.3663476322
 20
342.3813772527
 30
0.0
 11
284.8663476322
 21
341.8813772527
 31
0.0
  0
LINE
  5
AC
330
1F
100
AcDbEntity
  8
0
  6
Continuous
 62
     7
370
    25
100
AcDbLine
 10
284.3663476322
 20
348.3813772527
 30
0.0
 11
284.3663476322
 21
342.3813772527
 31
0.0
  0
SPLINE
  5
AD
330
1F
100
AcDbEntity
  8
0
  6
Continuous
 62
     7
370
    25
100
AcDbSpline
210
0.0
220
0.0
230
1.0
 70
    24
 71
     3
 72
     8
 73
     4
 74
     0
 42
0.00000001
 43
0.00000001
 40
0.0
 40
0.0
 40
0.0
 40
0.0
 40
1.0
 40
1.0
 40
1.0
 40
1.0
 10
284.866347632186
 20
348.3813772526846
 30
0.0
 10
284.699407182242
 20
348.3813772526846
 30
0.0
 10
284.5327244420034
 20
348.3813772526846
 30
0.0
 10
284.366347632186
 20
348.3813772526846
 30
0.0
  0
LINE
  5
AE
330
1F
100
AcDbEntity
  8
0
  6
Continuous
 62
     7
370
    25
100
AcDbLine
 10
284.3663476322
 20
360.3813772527
 30
0.0
 11
284.3663476322
 21
354.3813772527
 31
0.0
  0
LINE
  5
AF
330
1F
100
AcDbEntity
  8
0
  6
Continuous
 62
     7
370
    25
100
AcDbLine
 10
284.3663476322
 20
360.3813772527
 30
0.0
 11
284.8663476322
 21
360.8813772527
 31
0.0
  0
SPLINE
  5
B0
330
1F
100
AcDbEntity
  8
0
  6
Continuous
 62
     7
370
    25
100
AcDbSpline
210
0.0
220
0.0
230
1.0
 70
    24
 71
     3
 72
     8
 73
     4
 74
     0
 42
0.00000001
 43
0.00000001
 40
0.0
 40
0.0
 40
0.0
 40
0.0
 40
1.0
 40
1.0
 40
1.0
 40
1.0
 10
284.366347632186
 20
354.3813772526847
 30
0.0
 10
284.532721147898
 20
354.3813772526847
 30
0.0
 10
284.6994040601456
 20
354.3813772526847
 30
0.0
 10
284.866347632186
 20
354.3813772526847
 30
0.0
  0
LINE
  5
B1
330
1F
100
AcDbEntity
  8
0
  6
Continuous
 62
     7
370
    25
100
AcDbLine
 10
284.3663476322
 20
348.3813772527
 30
0.0
 11
284.3663476322
 21
354.3813772527
 31
0.0
  0
SPLINE
  5
B2
330
1F
100
AcDbEntity
  8
0
  6
HIDDEN
 62
     7
370
    18
100
AcDbSpline
210
0.0
220
0.0
230
1.0
 70
     8
 71
     3
 72
    27
 73
    23
 74
     0
 42
0.00000001
 43
0.00000001
 40
0.0
 40
0.0
 40
0.0
 40
0.0
 40
0.0198890731569932
 40
0.0401775678469556
 40
0.0608690296469908
 40
0.081966800379532
 40
0.1034740318751969
 40
0.1253936987421025
 40
0.1775711040769506
 40
0.2504879615112514
 40
0.322631781384096
 40
0.3755038833704467
 40
0.4998918051908062
 40
0.6243934993581436
 40
0.6773482354854674
 40
0.7496577925649828
 40
0.8225785705106142
 40
0.8748034742257584
 40
0.9074702841350653
 40
0.9392181983831296
 40
0.970057642955798
 40
1.0
 40
1.0
 40
1.0
 40
1.0
 10
367.866347632186
 20
362.7956529278127
 30
0.0
 10
367.918434114097
 20
362.7953670676139
 30
0.0
 10
368.0236531026526
 20
362.7947896064402
 30
0.0
 10
368.1824021156991
 20
362.7899436522958
 30
0.0
 10
368.3429301482585
 20
362.7818635448545
 30
0.0
 10
368.5044615303793
 20
362.7700193033684
 30
0.0
 10
368.6661578367904
 20
362.7542829271415
 30
0.0
 10
368.9000961857013
 20
362.725355927108
 30
0.0
 10
369.2425556991089
 20
362.6672134270445
 30
0.0
 10
369.6483625635166
 20
362.5522511085859
 30
0.0
 10
369.9721704478877
 20
362.3949689137835
 30
0.0
 10
370.2717776014061
 20
362.1550014682943
 30
0.0
 10
370.4325535541527
 20
361.7861162857791
 30
0.0
 10
370.272204481608
 20
361.3584570171441
 30
0.0
 10
369.9723224787375
 20
361.0180668588395
 30
0.0
 10
369.6480514648115
 20
360.7678797943636
 30
0.0
 10
369.2416560954917
 20
360.5603222084254
 30
0.0
 10
368.8740066360654
 20
360.4336689338959
 30
0.0
 10
368.5864298951035
 20
360.3648459100042
 30
0.0
 10
368.3440902483357
 20
360.3246967688348
 30
0.0
 10
368.1039907382487
 20
360.300162820789
 30
0.0
 10
367.9447787230425
 20
360.2971413607475
 30
0.0
 10
367.866347632186
 20
360.2956529278127
 30
0.0
  0
SPLINE
  5
B3
330
1F
100
AcDbEntity
  8
0
  6
HIDDEN
 62
     7
370
    18
100
AcDbSpline
210
0.0
220
0.0
230
1.0
 70
     8
 71
     3
 72
    27
 73
    23
 74
     0
 42
0.00000001
 43
0.00000001
 40
0.0
 40
0.0
 40
0.0
 40
0.0
 40
0.0198603671420117
 40
0.0401181594695939
 40
0.0607769070917284
 40
0.0818399379357617
 40
0.1033103913524126
 40
0.1251912307431824
 40
0.177393337398186
 40
0.250232656069871
 40
0.3224554972762641
 40
0.3753116364423925
 40
0.4998656681345288
 40
0.6243737129816723
 40
0.6772746196763744
 40
0.7494201265870566
 40
0.8222911783577936
 40
0.87440253750201
 40
0.9071832424200812
 40
0.9390358884040613
 40
0.9699709819409229
 40
1.0
 40
1.0
 40
1.0
 40
1.0
 10
367.866347632186
 20
360.2956529278127
 30
0.0
 10
367.814336452305
 20
360.2963067473855
 30
0.0
 10
367.7092732984494
 20
360.2976274700942
 30
0.0
 10
367.5507630054022
 20
360.3083458370701
 30
0.0
 10
367.3904830921509
 20
360.3257563686953
 30
0.0
 10
367.2292052771823
 20
360.3507403574976
 30
0.0
 10
367.0677633980858
 20
360.3833584733239
 30
0.0
 10
366.8338989480852
 20
360.4421898079224
 30
0.0
 10
366.4915433458556
 20
360.5601382624418
 30
0.0
 10
366.085473813565
 20
360.7673938245759
 30
0.0
 10
365.7614075096798
 20
361.0171632281019
 30
0.0
 10
365.4611932081066
 20
361.3572894772628
 30
0.0
 10
365.3000467626701
 20
361.7851207993136
 30
0.0
 10
365.4604108552001
 20
362.1544199089664
 30
0.0
 10
365.7599560821836
 20
362.3946288974362
 30
0.0
 10
366.0835786545484
 20
362.551967421882
 30
0.0
 10
366.4890317494527
 20
362.6669451561699
 30
0.0
 10
366.8563480450388
 20
362.7294317152289
 30
0.0
 10
367.14407333309
 20
362.7632229728105
 30
0.0
 10
367.3871689276688
 20
362.7823655949485
 30
0.0
 10
367.6279999368548
 20
362.7936746922765
 30
0.0
 10
367.7876895260787
 20
362.7950000821432
 30
0.0
 10
367.866347632186
 20
362.7956529278127
 30
0.0
  0
LINE
  5
B4
330
1F
100
AcDbEntity
  8
0
  6
HIDDEN
 62
     7
370
    18
100
AcDbLine
 10
386.8663476322
 20
363.3813772527
 30
0.0
 11
387.8663476322
 21
364.3813772527
 31
0.0
  0
LINE
  5
B5
330
1F
100
AcDbEntity
  8
0
  6
HIDDEN
 62
     7
370
    18
100
AcDbLine
 10
386.8663476322
 20
363.3813772527
 30
0.0
 11
386.8663476322
 21
339.3813772527
 31
0.0
  0
LINE
  5
B6
330
1F
100
AcDbEntity
  8
0
  6
HIDDEN
 62
     7
370
    18
100
AcDbLine
 10
386.8663476322
 20
339.3813772527
 30
0.0
 11
387.8663476322
 21
338.3813772527
 31
0.0
  0
LINE
  5
B7
330
1F
100
AcDbEntity
  8
0
  6
HIDDEN
 62
     7
370
    18
100
AcDbLine
 10
336.8663476322
 20
363.3813772527
 30
0.0
 11
386.8663476322
 21
363.3813772527
 31
0.0
  0
LINE
  5
B8
330
1F
100
AcDbEntity
  8
0
  6
HIDDEN
 62
     7
370
    18
100
AcDbLine
 10
336.8663476322
 20
339.3813772527
 30
0.0
 11
386.8663476322
 21
339.3813772527
 31
0.0
  0
LINE
  5
B9
330
1F
100
AcDbEntity
  8
0
  6
HIDDEN
 62
     7
370
    18
100
AcDbLine
 10
336.8663476322
 20
363.3813772527
 30
0.0
 11
336.8663476322
 21
339.3813772527
 31
0.0
  0
LINE
  5
BA
330
1F
100
AcDbEntity
  8
0
  6
HIDDEN
 62
     7
370
    18
100
AcDbLine
 10
334.8663476322
 20
361.3813772527
 30
0.0
 11
334.8663476322
 21
341.3813772527
 31
0.0
  0
LINE
  5
BB
330
1F
100
AcDbEntity
  8
0
  6
HIDDEN
 62
     7
370
    18
100
AcDbLine
 10
328.8577414419
 20
351.3813772527
 30
0.0
 11
334.8663476322
 21
361.3813772527
 31
0.0
  0
LINE
  5
BC
330
1F
100
AcDbEntity
  8
0
  6
HIDDEN
 62
     7
370
    18
100
AcDbLine
 10
328.8577414419
 20
351.3813772527
 30
0.0
 11
334.8663476322
 21
341.3813772527
 31
0.0
  0
LINE
  5
BD
330
1F
100
AcDbEntity
  8
0
  6
HIDDEN
 62
     7
370
    18
100
AcDbLine
 10
334.8663476322
 20
361.3813772527
 30
0.0
 11
336.8663476322
 21
361.3813772527
 31
0.0
  0
LINE
  5
BE
330
1F
100
AcDbEntity
  8
0
  6
HIDDEN
 62
     7
370
    18
100
AcDbLine
 10
334.8663476322
 20
341.3813772527
 30
0.0
 11
336.8663476322
 21
341.3813772527
 31
0.0
  0
SPLINE
  5
BF
330
1F
100
AcDbEntity
  8
0
  6
HIDDEN
 62
     7
370
    18
100
AcDbSpline
210
0.0
220
0.0
230
1.0
 70
     8
 71
     3
 72
    20
 73
    16
 74
     0
 42
0.00000001
 43
0.00000001
 40
0.0
 40
0.0
 40
0.0
 40
0.0
 40
0.0528513951085048
 40
0.1040445197054425
 40
0.1536110532015075
 40
0.2015858973980008
 40
0.2480075443408446
 40
0.3772340916617243
 40
0.4983397403618428
 40
0.6245749637362384
 40
0.7490921948746928
 40
0.8112171898273165
 40
0.8735657358349364
 40
0.9364060181579309
 40
1.0
 40
1.0
 40
1.0
 40
1.0
 10
334.866347632186
 20
355.3813772526847
 30
0.0
 10
334.8169526694068
 20
355.3435077009237
 30
0.0
 10
334.7197125650031
 20
355.2689567961398
 30
0.0
 10
334.5766238801928
 20
355.1481535517937
 30
0.0
 10
334.4387365774899
 20
355.0232386059029
 30
0.0
 10
334.3061828287525
 20
354.8937236494734
 30
0.0
 10
334.1022027467792
 20
354.6791784753843
 30
0.0
 10
333.8371181715481
 20
354.3588578582321
 30
0.0
 10
333.5233614388285
 20
353.881759584498
 30
0.0
 10
333.2508605486206
 20
353.338849003136
 30
0.0
 10
333.0713249638135
 20
352.8277061369903
 30
0.0
 10
332.9670703611548
 20
352.3986331493562
 30
0.0
 10
332.9099953059036
 20
352.0670234272333
 30
0.0
 10
332.8732713570785
 20
351.7268352053537
 30
0.0
 10
332.8686646942247
 20
351.4969866277688
 30
0.0
 10
332.866347632186
 20
351.3813772526847
 30
0.0
  0
SPLINE
  5
C0
330
1F
100
AcDbEntity
  8
0
  6
HIDDEN
 62
     7
370
    18
100
AcDbSpline
210
0.0
220
0.0
230
1.0
 70
     8
 71
     3
 72
    21
 73
    17
 74
     0
 42
0.00000001
 43
0.00000001
 40
0.0
 40
0.0
 40
0.0
 40
0.0
 40
0.036332681631463
 40
0.0723863315660809
 40
0.1082083397606744
 40
0.1438470202907817
 40
0.1793514356925195
 40
0.2147712064886958
 40
0.2501563093356265
 40
0.3743403217379342
 40
0.5002168065827743
 40
0.6210670716355301
 40
0.7499907977818763
 40
0.8288113439646725
 40
0.9120922248288025
 40
1.0
 40
1.0
 40
1.0
 40
1.0
 10
332.866347632186
 20
351.3813772526847
 30
0.0
 10
332.8671029011315
 20
351.315341535962
 30
0.0
 10
332.8686076386256
 20
351.1837772508267
 30
0.0
 10
332.8806870293427
 20
350.9876633471173
 30
0.0
 10
332.8996939591229
 20
350.7939188213224
 30
0.0
 10
332.9260984847489
 20
350.6028171659325
 30
0.0
 10
332.9594689318287
 20
350.4146181773913
 30
0.0
 10
332.9996128392455
 20
350.2295535161866
 30
0.0
 10
333.0852107272556
 20
349.8960078051165
 30
0.0
 10
333.2486749137141
 20
349.4292539539009
 30
0.0
 10
333.5199375837691
 20
348.8870080565635
 30
0.0
 10
333.8325731544542
 20
348.4101264755938
 30
0.0
 10
334.1258568879764
 20
348.0544399134669
 30
0.0
 10
334.3923319179149
 20
347.7811181323299
 30
0.0
 10
334.6242213850262
 20
347.5696668645546
 30
0.0
 10
334.7841976017929
 20
347.4452612698834
 30
0.0
 10
334.866347632186
 20
347.3813772526846
 30
0.0
  0
SPLINE
  5
C1
330
1F
100
AcDbEntity
  8
0
  6
HIDDEN
 62
     7
370
    18
100
AcDbSpline
210
0.0
220
0.0
230
1.0
 70
     8
 71
     3
 72
    16
 73
    12
 74
     0
 42
0.00000001
 43
0.00000001
 40
0.0
 40
0.0
 40
0.0
 40
0.0
 40
0.0949264622958472
 40
0.1851041649649391
 40
0.2705369937666873
 40
0.351229538994236
 40
0.4271872695333206
 40
0.4984167642075384
 40
0.6738971358450424
 40
0.8410351049699483
 40
1.0
 40
1.0
 40
1.0
 40
1.0
 10
334.866347632186
 20
347.3813772526846
 30
0.0
 10
334.922142842771
 20
347.3405605376313
 30
0.0
 10
335.0309420712958
 20
347.2609689909347
 30
0.0
 10
335.196111946599
 20
347.1527499184993
 30
0.0
 10
335.3563661333337
 20
347.0557225925465
 30
0.0
 10
335.5113349534512
 20
346.9696005441705
 30
0.0
 10
335.6602001496361
 20
346.8934343296247
 30
0.0
 10
335.8748262970209
 20
346.7922168210096
 30
0.0
 10
336.1583100918819
 20
346.6773994111284
 30
0.0
 10
336.5128475675751
 20
346.5622122155647
 30
0.0
 10
336.7504996921819
 20
346.5085543095372
 30
0.0
 10
336.866347632186
 20
346.4823977671183
 30
0.0
  0
SPLINE
  5
C2
330
1F
100
AcDbEntity
  8
0
  6
HIDDEN
 62
     7
370
    18
100
AcDbSpline
210
0.0
220
0.0
230
1.0
 70
     8
 71
     3
 72
    15
 73
    11
 74
     0
 42
0.00000001
 43
0.00000001
 40
0.0
 40
0.0
 40
0.0
 40
0.0
 40
0.0938619119213239
 40
0.1905981821452872
 40
0.2902481459593816
 40
0.3928477841625093
 40
0.4984300586615077
 40
0.6464827049572042
 40
0.8136594873948865
 40
1.0
 40
1.0
 40
1.0
 40
1.0
 10
336.866347632186
 20
356.280356738251
 30
0.0
 10
336.7978012817148
 20
356.2654917922395
 30
0.0
 10
336.6586094676437
 20
356.2353066870195
 30
0.0
 10
336.4500916048707
 20
356.1781538644024
 30
0.0
 10
336.2385175215273
 20
356.1107940956868
 30
0.0
 10
336.0247767966488
 20
356.0317720843695
 30
0.0
 10
335.7826512717752
 20
355.9294728288308
 30
0.0
 10
335.5052054281002
 20
355.7929753758741
 30
0.0
 10
335.1865376940275
 20
355.6100693347327
 30
0.0
 10
334.9768663269412
 20
355.460313963785
 30
0.0
 10
334.866347632186
 20
355.3813772526847
 30
0.0
  0
SPLINE
  5
C3
330
1F
100
AcDbEntity
  8
0
  6
HIDDEN
 62
     7
370
    18
100
AcDbSpline
210
0.0
220
0.0
230
1.0
 70
     8
 71
     3
 72
    19
 73
    15
 74
     0
 42
0.00000001
 43
0.00000001
 40
0.0
 40
0.0
 40
0.0
 40
0.0
 40
0.0506788078432395
 40
0.1009765386960806
 40
0.1509105629275991
 40
0.2004986331430133
 40
0.2497588760005645
 40
0.3736063611404444
 40
0.5002325719550953
 40
0.6210040873110243
 40
0.7501997584177739
 40
0.8249167572679991
 40
0.9081793555393098
 40
1.0
 40
1.0
 40
1.0
 40
1.0
 10
336.866347632186
 20
346.4823977671183
 30
0.0
 10
336.9367276855311
 20
346.4689378694724
 30
0.0
 10
337.0769585726113
 20
346.4421192852686
 30
0.0
 10
337.2888387431434
 20
346.4134261624658
 30
0.0
 10
337.5002823245399
 20
346.3932689193977
 30
0.0
 10
337.7110962190258
 20
346.382320242063
 30
0.0
 10
338.02708684056
 20
346.3791463008705
 30
0.0
 10
338.452302066087
 20
346.4062922999807
 30
0.0
 10
338.9710134221014
 20
346.4955222477982
 30
0.0
 10
339.4824434772019
 20
346.6399854990471
 30
0.0
 10
339.9060344268988
 20
346.8093598110023
 30
0.0
 10
340.2640975607073
 20
346.989948454318
 30
0.0
 10
340.564918020994
 20
347.1654567439267
 30
0.0
 10
340.7626494003981
 20
347.3070959805947
 30
0.0
 10
340.866347632186
 20
347.3813772526846
 30
0.0
  0
LINE
  5
C4
330
1F
100
AcDbEntity
  8
0
  6
HIDDEN
 62
     7
370
    18
100
AcDbLine
 10
340.8663476322
 20
347.3813772527
 30
0.0
 11
386.8663476322
 21
347.3813772527
 31
0.0
  0
LINE
  5
C5
330
1F
100
AcDbEntity
  8
0
  6
HIDDEN
 62
     7
370
    18
100
AcDbLine
 10
340.8663476322
 20
355.3813772527
 30
0.0
 11
386.8663476322
 21
355.3813772527
 31
0.0
  0
SPLINE
  5
C6
330
1F
100
AcDbEntity
  8
0
  6
HIDDEN
 62
     7
370
    18
100
AcDbSpline
210
0.0
220
0.0
230
1.0
 70
     8
 71
     3
 72
    19
 73
    15
 74
     0
 42
0.00000001
 43
0.00000001
 40
0.0
 40
0.0
 40
0.0
 40
0.0
 40
0.0561049099622132
 40
0.1091299705863196
 40
0.1590775021764509
 40
0.20595030205607
 40
0.2497517767817599
 40
0.3786730117634542
 40
0.499217577301735
 40
0.625816509551625
 40
0.7496482091265739
 40
0.8321201966401806
 40
0.915543179542415
 40
1.0
 40
1.0
 40
1.0
 40
1.0
 10
340.866347632186
 20
355.3813772526847
 30
0.0
 10
340.8034050760689
 20
355.4272769862862
 30
0.0
 10
340.6809751621395
 20
355.5165568119064
 30
0.0
 10
340.4949073386884
 20
355.6363698557453
 30
0.0
 10
340.3151058279873
 20
355.7422850858943
 30
0.0
 10
340.1421252746123
 20
355.8347790159792
 30
0.0
 10
339.8663264133484
 20
355.9691241048428
 30
0.0
 10
339.4838138230722
 20
356.1222950066403
 30
0.0
 10
338.9731594894869
 20
356.2667268232622
 30
0.0
 10
338.4548842477238
 20
356.3561195234112
 30
0.0
 10
337.9826500142187
 20
356.3866665543192
 30
0.0
 10
337.5714923286512
 20
356.3765486281947
 30
0.0
 10
337.2175324777091
 20
356.3445174878192
 30
0.0
 10
336.9838888554816
 20
356.3018312781919
 30
0.0
 10
336.866347632186
 20
356.280356738251
 30
0.0
  0
LINE
  5
C7
330
1F
100
AcDbEntity
  8
0
  6
HIDDEN
 62
     7
370
    18
100
AcDbLine
 10
284.8663476322
 20
348.3813772527
 30
0.0
 11
284.8663476322
 21
354.3813772527
 31
0.0
  0
LINE
  5
C8
330
1F
100
AcDbEntity
  8
0
  6
HIDDEN
 62
     7
370
    18
100
AcDbLine
 10
340.9007673072
 20
347.4115981936
 30
0.0
 11
340.8436455541
 21
347.3677955409
 31
0.0
  0
LINE
  5
C9
330
1F
100
AcDbEntity
  8
0
  6
HIDDEN
 62
     7
370
    18
100
AcDbLine
 10
334.8986755372
 20
347.3622562294
 30
0.0
 11
334.8217669111
 21
347.4182246752
 31
0.0
  0
LINE
  5
CA
330
1F
100
AcDbEntity
  8
0
  6
HIDDEN
 62
     7
370
    18
100
AcDbLine
 10
334.7523802214
 20
355.2902003658
 30
0.0
 11
334.8879617176
 21
355.3941404914
 31
0.0
  0
LINE
  5
CB
330
1F
100
AcDbEntity
  8
0
  6
HIDDEN
 62
     7
370
    18
100
AcDbLine
 10
336.6369874021
 20
356.2062947654
 30
0.0
 11
336.8906618892
 21
356.2826716034
 31
0.0
  0
LINE
  5
CC
330
1F
100
AcDbEntity
  8
0
  6
HIDDEN
 62
     7
370
    18
100
AcDbLine
 10
340.8322747201
 20
355.4017632718
 30
0.0
 11
340.8844895664
 21
355.3637018854
 31
0.0
  0
SPLINE
  5
CD
330
1F
100
AcDbEntity
  8
0
  6
HIDDEN
 62
     7
370
    18
100
AcDbSpline
210
0.0
220
0.0
230
1.0
 70
    24
 71
     3
 72
     8
 73
     4
 74
     0
 42
0.00000001
 43
0.00000001
 40
0.0
 40
0.0
 40
0.0
 40
0.0
 40
1.0
 40
1.0
 40
1.0
 40
1.0
 10
386.866347632186
 20
347.3813772526846
 30
0.0
 10
387.1988416795322
 20
347.3813772526846
 30
0.0
 10
387.5322429195737
 20
347.3813772526846
 30
0.0
 10
387.866347632186
 20
347.3813772526846
 30
0.0
  0
SPLINE
  5
CE
330
1F
100
AcDbEntity
  8
0
  6
HIDDEN
 62
     7
370
    18
100
AcDbSpline
210
0.0
220
0.0
230
1.0
 70
    24
 71
     3
 72
     8
 73
     4
 74
     0
 42
0.00000001
 43
0.00000001
 40
0.0
 40
0.0
 40
0.0
 40
0.0
 40
1.0
 40
1.0
 40
1.0
 40
1.0
 10
387.866347632186
 20
355.3813772526847
 30
0.0
 10
387.5322429195737
 20
355.3813772526847
 30
0.0
 10
387.1988416795322
 20
355.3813772526847
 30
0.0
 10
386.866347632186
 20
355.3813772526847
 30
0.0
  0
ARC
  5
CF
330
1F
100
AcDbEntity
  8
0
  6
HIDDEN
 62
     7
370
    18
100
AcDbCircle
 10
367.8663476322
 20
351.3813772527
 30
0.0
 40
2.5
100
AcDbArc
 50
0.0
 51
180.0
  0
ARC
  5
D0
330
1F
100
AcDbEntity
  8
0
  6
HIDDEN
 62
     7
370
    18
100
AcDbCircle
 10
367.8663476322
 20
351.3813772527
 30
0.0
 40
2.5
100
AcDbArc
 50
180.0
 51
0.0
  0
ARC
  5
D1
330
1F
100
AcDbEntity
  8
0
  6
HIDDEN
 62
     7
370
    18
100
AcDbCircle
 10
337.8663476322
 20
351.3813772527
 30
0.0
 40
5.000000000000045
100
AcDbArc
 50
306.8698976458
 51
0.0
  0
ARC
  5
D2
330
1F
100
AcDbEntity
  8
0
  6
HIDDEN
 62
     7
370
    18
100
AcDbCircle
 10
337.8663476322
 20
351.3813772527
 30
0.0
 40
5.0
100
AcDbArc
 50
0.0
 51
53.1301023542
  0
LINE
  5
D3
330
1F
100
AcDbEntity
  8
0
  6
HIDDEN
 62
     7
370
    18
100
AcDbLine
 10
370.3663476322
 20
361.773673536
 30
0.0
 11
370.3663476322
 21
370.8669401899
 31
0.0
  0
LINE
  5
D4
330
1F
100
AcDbEntity
  8
0
  6
HIDDEN
 62
     7
370
    18
100
AcDbLine
 10
365.3663476322
 20
370.8669445904
 30
0.0
 11
365.3663476322
 21
361.7736719047
 31
0.0
  0
ARC
  5
D5
330
1F
100
AcDbEntity
  8
0
  6
Continuous
 62
     7
370
    25
100
AcDbCircle
 10
504.13
 20
216.4394956337
 30
0.0
 40
22.5
100
AcDbArc
 50
0.0
 51
180.0
  0
LINE
  5
D6
330
1F
100
AcDbEntity
  8
0
  6
Continuous
 62
     7
370
    25
100
AcDbLine
 10
500.13
 20
201.1394956337
 30
0.0
 11
508.13
 21
201.1394956337
 31
0.0
  0
LINE
  5
D7
330
1F
100
AcDbEntity
  8
0
  6
Continuous
 62
     7
370
    25
100
AcDbLine
 10
508.13
 20
201.1394956337
 30
0.0
 11
508.13
 21
204.0701787569
 31
0.0
  0
ARC
  5
D8
330
1F
100
AcDbEntity
  8
0
  6
Continuous
 62
     7
370
    25
100
AcDbCircle
 10
504.13
 20
216.4394956337
 30
0.0
 40
13.00000000000006
100
AcDbArc
 50
287.9202131394
 51
0.0
  0
ARC
  5
D9
330
1F
100
AcDbEntity
  8
0
  6
Continuous
 62
     7
370
    25
100
AcDbCircle
 10
504.13
 20
216.4394956337
 30
0.0
 40
13.00000000000006
100
AcDbArc
 50
0.0
 51
180.0
  0
ARC
  5
DA
330
1F
100
AcDbEntity
  8
0
  6
Continuous
 62
     7
370
    25
100
AcDbCircle
 10
504.13
 20
216.4394956337
 30
0.0
 40
13.00000000000001
100
AcDbArc
 50
180.0
 51
252.0797868606
  0
LINE
  5
DB
330
1F
100
AcDbEntity
  8
0
  6
Continuous
 62
     7
370
    25
100
AcDbLine
 10
500.13
 20
204.0701787569
 30
0.0
 11
500.13
 21
201.1394956337
 31
0.0
  0
ARC
  5
DC
330
1F
100
AcDbEntity
  8
0
  6
Continuous
 62
     7
370
    25
100
AcDbCircle
 10
504.13
 20
216.4394956337
 30
0.0
 40
22.5
100
AcDbArc
 50
180.0
 51
0.0
  0
ARC
  5
DD
330
1F
100
AcDbEntity
  8
0
  6
Continuous
 62
     7
370
    25
100
AcDbCircle
 10
504.13
 20
216.4394956337
 30
0.0
 40
12.00000000000006
100
AcDbArc
 50
0.0
 51
180.0
  0
SPLINE
  5
DE
330
1F
100
AcDbEntity
  8
0
  6
Continuous
 62
     7
370
    25
100
AcDbSpline
210
0.0
220
0.0
230
1.0
 70
    24
 71
     3
 72
     8
 73
     4
 74
     0
 42
0.00000001
 43
0.00000001
 40
0.0
 40
0.0
 40
0.0
 40
0.0
 40
1.0
 40
1.0
 40
1.0
 40
1.0
 10
500.1300000000001
 20
205.1257871347206
 30
0.0
 10
500.1300000000001
 20
204.7731239413467
 30
0.0
 10
500.1300000000001
 20
204.4213187031567
 30
0.0
 10
500.1300000000001
 20
204.0701787568524
 30
0.0
  0
ARC
  5
DF
330
1F
100
AcDbEntity
  8
0
  6
Continuous
 62
     7
370
    25
100
AcDbCircle
 10
504.13
 20
216.4394956337
 30
0.0
 40
12.00000000000001
100
AcDbArc
 50
180.0
 51
250.5287793655
  0
ARC
  5
E0
330
1F
100
AcDbEntity
  8
0
  6
Continuous
 62
     7
370
    25
100
AcDbCircle
 10
504.13
 20
216.4394956337
 30
0.0
 40
12.00000000000006
100
AcDbArc
 50
289.4712206345
 51
0.0
  0
SPLINE
  5
E1
330
1F
100
AcDbEntity
  8
0
  6
Continuous
 62
     7
370
    25
100
AcDbSpline
210
0.0
220
0.0
230
1.0
 70
    24
 71
     3
 72
     8
 73
     4
 74
     0
 42
0.00000001
 43
0.00000001
 40
0.0
 40
0.0
 40
0.0
 40
0.0
 40
1.0
 40
1.0
 40
1.0
 40
1.0
 10
508.1300000000001
 20
204.0701787568524
 30
0.0
 10
508.1300000000001
 20
204.4213187031567
 30
0.0
 10
508.1300000000001
 20
204.7731239413467
 30
0.0
 10
508.1300000000001
 20
205.1257871347206
 30
0.0
  0
SPLINE
  5
E2
330
1F
100
AcDbEntity
  8
0
  6
Continuous
 62
     7
370
    25
100
AcDbSpline
210
0.0
220
0.0
230
1.0
 70
     8
 71
     3
 72
    20
 73
    16
 74
     0
 42
0.00000001
 43
0.00000001
 40
0.0
 40
0.0
 40
0.0
 40
0.0
 40
0.0528513951085048
 40
0.1040445197054425
 40
0.1536110532015075
 40
0.2015858973980008
 40
0.2480075443408446
 40
0.3772340916617243
 40
0.4983397403618428
 40
0.6245749637362384
 40
0.7490921948746928
 40
0.8112171898273165
 40
0.8735657358349364
 40
0.9364060181579309
 40
1.0
 40
1.0
 40
1.0
 40
1.0
 10
508.1300000000001
 20
207.2743442437937
 30
0.0
 10
508.0921304482391
 20
207.3475030528813
 30
0.0
 10
508.0175795434553
 20
207.4915252331494
 30
0.0
 10
507.896776299109
 20
207.6986572539489
 30
0.0
 10
507.7718613532184
 20
207.8947785072434
 30
0.0
 10
507.6423463967889
 20
208.0795477643467
 30
0.0
 10
507.4278012226997
 20
208.3580157345981
 30
0.0
 10
507.1074806055476
 20
208.7040069704515
 30
0.0
 10
506.6303823318135
 20
209.0853521028021
 30
0.0
 10
506.0874717504514
 20
209.3890589379495
 30
0.0
 10
505.5763288843058
 20
209.5726776366959
 30
0.0
 10
505.1472558966717
 20
209.6741546886337
 30
0.0
 10
504.8156461745488
 20
209.7281977642699
 30
0.0
 10
504.4754579526691
 20
209.7618997644766
 30
0.0
 10
504.2456093750842
 20
209.7659948498932
 30
0.0
 10
504.1300000000001
 20
209.7680545984064
 30
0.0
  0
SPLINE
  5
E3
330
1F
100
AcDbEntity
  8
0
  6
Continuous
 62
     7
370
    25
100
AcDbSpline
210
0.0
220
0.0
230
1.0
 70
     8
 71
     3
 72
    15
 73
    11
 74
     0
 42
0.00000001
 43
0.00000001
 40
0.0
 40
0.0
 40
0.0
 40
0.0
 40
0.0938619119213239
 40
0.1905981821452872
 40
0.2902481459593816
 40
0.3928477841625093
 40
0.4984300586615077
 40
0.6464827049572042
 40
0.8136594873948865
 40
1.0
 40
1.0
 40
1.0
 40
1.0
 10
509.0289794855665
 20
207.721697746624
 30
0.0
 10
509.0141145395549
 20
207.7133547357401
 30
0.0
 10
508.983929434335
 20
207.69641322373
 30
0.0
 10
508.9267766117178
 20
207.6648177245982
 30
0.0
 10
508.8594168430022
 20
207.6282919088587
 30
0.0
 10
508.780394831685
 20
207.5863648142191
 30
0.0
 10
508.6780955761463
 20
207.5333487909834
 30
0.0
 10
508.5415981231895
 20
207.46440694115
 30
0.0
 10
508.3586920820482
 20
207.3760539139734
 30
0.0
 10
508.2089367111005
 20
207.3094509548752
 30
0.0
 10
508.1300000000001
 20
207.2743442437937
 30
0.0
  0
LINE
  5
E4
330
1F
100
AcDbEntity
  8
0
  6
Continuous
 62
     7
370
    25
100
AcDbLine
 10
509.0289794856
 20
205.4850444836
 30
0.0
 11
509.0289794856
 21
207.7216977466
 31
0.0
  0
LINE
  5
E5
330
1F
100
AcDbEntity
  8
0
  6
Continuous
 62
     7
370
    25
100
AcDbLine
 10
509.1242377973
 20
205.528172823
 30
0.0
 11
509.0289794856
 21
205.4850444836
 31
0.0
  0
LINE
  5
E6
330
1F
100
AcDbEntity
  8
0
  6
Continuous
 62
     7
370
    25
100
AcDbLine
 10
499.2310205144
 20
207.7216977466
 30
0.0
 11
499.2310205144
 21
205.4850444836
 31
0.0
  0
SPLINE
  5
E7
330
1F
100
AcDbEntity
  8
0
  6
Continuous
 62
     7
370
    25
100
AcDbSpline
210
0.0
220
0.0
230
1.0
 70
     8
 71
     3
 72
    16
 73
    12
 74
     0
 42
0.00000001
 43
0.00000001
 40
0.0
 40
0.0
 40
0.0
 40
0.0
 40
0.0949264622958472
 40
0.1851041649649391
 40
0.2705369937666873
 40
0.351229538994236
 40
0.4271872695333206
 40
0.4984167642075384
 40
0.6738971358450424
 40
0.8410351049699483
 40
1.0
 40
1.0
 40
1.0
 40
1.0
 10
500.1300000000001
 20
207.2743442437937
 30
0.0
 10
500.0891832849467
 20
207.2923282366578
 30
0.0
 10
500.0095917382501
 20
207.3273965611412
 30
0.0
 10
499.9013726658147
 20
207.3771213970807
 30
0.0
 10
499.804345339862
 20
207.4229990790421
 30
0.0
 10
499.718223291486
 20
207.4649354840328
 30
0.0
 10
499.6420570769402
 20
207.5029574225917
 30
0.0
 10
499.540839568325
 20
207.5544368078375
 30
0.0
 10
499.4260221584438
 20
207.614387848888
 30
0.0
 10
499.3108349628802
 20
207.6769461806243
 30
0.0
 10
499.2571770568526
 20
207.707031902818
 30
0.0
 10
499.2310205144337
 20
207.721697746624
 30
0.0
  0
SPLINE
  5
E8
330
1F
100
AcDbEntity
  8
0
  6
Continuous
 62
     7
370
    25
100
AcDbSpline
210
0.0
220
0.0
230
1.0
 70
     8
 71
     3
 72
    21
 73
    17
 74
     0
 42
0.00000001
 43
0.00000001
 40
0.0
 40
0.0
 40
0.0
 40
0.0
 40
0.036332681631463
 40
0.0723863315660809
 40
0.1082083397606744
 40
0.1438470202907817
 40
0.1793514356925195
 40
0.2147712064886958
 40
0.2501563093356265
 40
0.3743403217379342
 40
0.5002168065827743
 40
0.6210670716355301
 40
0.7499907977818763
 40
0.8288113439646725
 40
0.9120922248288025
 40
1.0
 40
1.0
 40
1.0
 40
1.0
 10
504.1300000000001
 20
209.7680545984064
 30
0.0
 10
504.0639642832774
 20
209.7673828792416
 30
0.0
 10
503.9323999981421
 20
209.7660445996542
 30
0.0
 10
503.7362860944328
 20
209.7551080523571
 30
0.0
 10
503.5425415686379
 20
209.7376153416384
 30
0.0
 10
503.351439913248
 20
209.7129376883871
 30
0.0
 10
503.1632409247067
 20
209.6812475971576
 30
0.0
 10
502.978176263502
 20
209.6424770599825
 30
0.0
 10
502.6446305524319
 20
209.5584799388373
 30
0.0
 10
502.1778767012164
 20
209.3913550565525
 30
0.0
 10
501.6356308038789
 20
209.0893157970769
 30
0.0
 10
501.1587492229093
 20
208.7097073295262
 30
0.0
 10
500.8030626607824
 20
208.3273448139362
 30
0.0
 10
500.5297408796453
 20
207.960913161625
 30
0.0
 10
500.3182896118701
 20
207.631768005496
 30
0.0
 10
500.1938840171989
 20
207.3956130993246
 30
0.0
 10
500.1300000000001
 20
207.2743442437937
 30
0.0
  0
LINE
  5
E9
330
1F
100
AcDbEntity
  8
0
  6
Continuous
 62
     7
370
    25
100
AcDbLine
 10
499.2310205144
 20
205.4850444836
 30
0.0
 11
499.1354931201
 21
205.52829481
 31
0.0
  0
ARC
  5
EA
330
1F
100
AcDbEntity
  8
0
  6
Continuous
 62
     7
370
    25
100
AcDbCircle
 10
504.13
 20
216.4394956337
 30
0.0
 40
10.00000000000006
100
AcDbArc
 50
299.3338742512
 51
0.0
  0
ARC
  5
EB
330
1F
100
AcDbEntity
  8
0
  6
Continuous
 62
     7
370
    25
100
AcDbCircle
 10
504.13
 20
216.4394956337
 30
0.0
 40
10.00000000000006
100
AcDbArc
 50
0.0
 51
180.0
  0
ARC
  5
EC
330
1F
100
AcDbEntity
  8
0
  6
Continuous
 62
     7
370
    25
100
AcDbCircle
 10
504.13
 20
216.4394956337
 30
0.0
 40
10.0
100
AcDbArc
 50
180.0
 51
240.6661257488
  0
LINE
  5
ED
330
1F
100
AcDbEntity
  8
0
  6
HIDDEN
 62
     7
370
    18
100
AcDbLine
 10
524.744916731
 20
225.4547720117
 30
0.0
 11
515.5442756751
 21
220.1427794214
 31
0.0
  0
LINE
  5
EE
330
1F
100
AcDbEntity
  8
0
  6
HIDDEN
 62
     7
370
    18
100
AcDbLine
 10
522.244916731
 20
229.7848990307
 30
0.0
 11
513.0442756751
 21
224.4729064403
 31
0.0
  0
ARC
  5
EF
330
1F
100
AcDbEntity
  8
0
  6
HIDDEN
 62
     7
370
    18
100
AcDbCircle
 10
504.13
 20
216.4394956337
 30
0.0
 40
9.5
100
AcDbArc
 50
180.0
 51
0.0
  0
ARC
  5
F0
330
1F
100
AcDbEntity
  8
0
  6
HIDDEN
 62
     7
370
    18
100
AcDbCircle
 10
504.13
 20
216.4394956337
 30
0.0
 40
9.5
100
AcDbArc
 50
0.0
 51
180.0
  0
ARC
  5
F1
330
1F
100
AcDbEntity
  8
0
  6
HIDDEN
 62
     7
370
    18
100
AcDbCircle
 10
504.13
 20
216.4394956337
 30
0.0
 40
21.5
100
AcDbArc
 50
0.0
 51
180.0
  0
ARC
  5
F2
330
1F
100
AcDbEntity
  8
0
  6
HIDDEN
 62
     7
370
    18
100
AcDbCircle
 10
504.13
 20
216.4394956337
 30
0.0
 40
21.5
100
AcDbArc
 50
180.0
 51
0.0
  0
LINE
  5
F3
330
1F
100
AcDbEntity
  8
0
  6
HIDDEN
 62
     7
370
    18
100
AcDbLine
 10
504.13
 20
222.4394956337
 30
0.0
 11
507.13
 21
222.4394956337
 31
0.0
  0
LINE
  5
F4
330
1F
100
AcDbEntity
  8
0
  6
HIDDEN
 62
     7
370
    18
100
AcDbLine
 10
507.13
 20
225.4533738224
 30
0.0
 11
507.13
 21
222.4394956337
 31
0.0
  0
LINE
  5
F5
330
1F
100
AcDbEntity
  8
0
  6
HIDDEN
 62
     7
370
    18
100
AcDbLine
 10
501.13
 20
225.4533738224
 30
0.0
 11
501.13
 21
222.4394956337
 31
0.0
  0
LINE
  5
F6
330
1F
100
AcDbEntity
  8
0
  6
HIDDEN
 62
     7
370
    18
100
AcDbLine
 10
501.13
 20
222.4394956337
 30
0.0
 11
504.13
 21
222.4394956337
 31
0.0
  0
ARC
  5
F7
330
1F
100
AcDbEntity
  8
0
  6
HIDDEN
 62
     7
370
    18
100
AcDbCircle
 10
504.13
 20
216.4394956337
 30
0.0
 40
9.000000000000057
100
AcDbArc
 50
180.0
 51
0.0
  0
ARC
  5
F8
330
1F
100
AcDbEntity
  8
0
  6
HIDDEN
 62
     7
370
    18
100
AcDbCircle
 10
504.13
 20
216.4394956337
 30
0.0
 40
9.0
100
AcDbArc
 50
109.4712206345
 51
180.0
  0
ARC
  5
F9
330
1F
100
AcDbEntity
  8
0
  6
HIDDEN
 62
     7
370
    18
100
AcDbCircle
 10
504.13
 20
216.4394956337
 30
0.0
 40
9.000000000000057
100
AcDbArc
 50
0.0
 51
70.5287793655
  0
LINE
  5
FA
330
1F
100
AcDbEntity
  8
0
  6
HIDDEN
 62
     7
370
    18
100
AcDbLine
 10
501.63
 20
201.1394956337
 30
0.0
 11
501.63
 21
194.0788058047
 31
0.0
  0
LINE
  5
FB
330
1F
100
AcDbEntity
  8
0
  6
HIDDEN
 62
     7
370
    18
100
AcDbLine
 10
506.63
 20
194.0788109197
 30
0.0
 11
506.63
 21
201.1394956337
 31
0.0
  0
LINE
  5
FC
330
1F
100
AcDbEntity
  8
0
  6
HIDDEN
 62
     7
370
    18
100
AcDbLine
 10
509.13
 20
194.5020407976
 30
0.0
 11
509.13
 21
205.528172823
 31
0.0
  0
LINE
  5
FD
330
1F
100
AcDbEntity
  8
0
  6
HIDDEN
 62
     7
370
    18
100
AcDbLine
 10
499.13
 20
205.52829481
 30
0.0
 11
499.13
 21
194.5020387531
 31
0.0
  0
LINE
  5
FE
330
1F
100
AcDbEntity
  8
0
  6
Continuous
 62
     7
370
    25
100
AcDbLine
 10
478.7872836805
 20
310.7701557556
 30
0.0
 11
523.6885642858
 21
336.6911133059
 31
0.0
  0
LINE
  5
FF
330
1F
100
AcDbEntity
  8
0
  6
Continuous
 62
     7
370
    25
100
AcDbLine
 10
501.1903928015
 20
375.6633121131
 30
0.0
 11
456.2891121962
 21
349.7423545627
 31
0.0
  0
LINE
  5
100
330
1F
100
AcDbEntity
  8
0
  6
Continuous
 62
     7
370
    25
100
AcDbLine
 10
528.3493811204
 20
346.9926214515
 30
0.0
 11
528.3493811204
 21
347.8090295633
 31
0.0
  0
LINE
  5
101
330
1F
100
AcDbEntity
  8
0
  6
Continuous
 62
     7
370
    25
100
AcDbLine
 10
527.5406337162
 20
353.9255660485
 30
0.0
 11
545.1198103805
 21
364.0738087254
 31
0.0
  0
LINE
  5
102
330
1F
100
AcDbEntity
  8
0
  6
Continuous
 62
     7
370
    25
100
AcDbLine
 10
535.6205824205
 20
380.5287371106
 30
0.0
 11
518.0414057562
 21
370.3804944337
 31
0.0
  0
LWPOLYLINE
  5
103
330
1F
100
AcDbEntity
  8
0
  6
Continuous
 62
     7
370
    25
100
AcDbPolyline
 90
       52
 70
   128
 43
0.0
 10
467.5381979383
 20
311.8840868917
 10
468.5176259574
 20
311.353521095
 10
469.4933386706
 20
310.8946598432
 10
470.4616348653
 20
310.5092437544
 10
471.4188414624
 20
310.1987348437
 10
472.3613274493
 20
309.9643109777
 10
473.285517654
 20
309.8068614065
 10
474.1879063064
 20
309.7269833903
 10
475.0650703372
 20
309.7249799337
 10
475.9136823629
 20
309.8008586366
 10
476.7305233074
 20
309.9543316649
 10
477.5124946131
 20
310.184816843
 10
478.2566299951
 20
310.4914398616
 10
478.9601066929
 20
310.8730375946
 10
479.6202561786
 20
311.3281625111
 10
480.2345742789
 20
311.8550881664
 10
480.8007306749
 20
312.4518157509
 10
481.3165777415
 20
313.1160816726
 10
481.780158694
 20
313.8453661433
 10
482.1897150112
 20
314.6369027372
 10
482.5436931055
 20
315.4876888848
 10
482.840750217
 20
316.394497263
 10
483.0797595061
 20
317.3538880368
 10
483.2598143288
 20
318.3622219085
 10
483.3802316755
 20
319.4156739224
 10
483.4405547619
 20
320.5102479741
 10
483.4405547619
 20
321.6417919693
 10
483.3802316755
 20
322.8060135741
 10
483.2598143288
 20
323.9984964971
 10
483.0797595061
 20
325.2147172421
 10
482.840750217
 20
326.4500622673
 10
482.5436931055
 20
327.6998454859
 10
482.1897150112
 20
328.959326042
 10
481.780158694
 20
330.2237262944
 10
481.3165777415
 20
331.48824994
 10
480.8007306749
 20
332.7481002075
 10
480.2345742789
 20
333.9984980531
 10
479.6202561786
 20
335.2347002896
 10
478.9601066929
 20
336.4520175784
 10
478.2566299951
 20
337.6458322183
 10
477.5124946131
 20
338.8116156612
 10
476.7305233074
 20
339.9449456912
 10
475.9136823629
 20
341.0415231995
 10
475.0650703372
 20
342.0971884919
 10
474.1879063064
 20
343.1079370683
 10
473.285517654
 20
344.0699348132
 10
472.3613274493
 20
344.9795325396
 10
471.4188414624
 20
345.8332798318
 10
470.4616348653
 20
346.6279381339
 10
469.4933386706
 20
347.3604930347
 10
468.5176259574
 20
348.0281657027
 10
467.5381979383
 20
348.6284234266
  0
LWPOLYLINE
  5
104
330
1F
100
AcDbEntity
  8
0
  6
Continuous
 62
     7
370
    25
100
AcDbPolyline
 90
       40
 70
   128
 43
0.0
 10
523.6885642858
 20
336.6911133059
 10
523.8613872983
 20
336.793995145
 10
524.5215367839
 20
337.2491200615
 10
525.1358548842
 20
337.7760457168
 10
525.7020112802
 20
338.3727733013
 10
526.2178583468
 20
339.037039223
 10
526.6814392993
 20
339.7663236937
 10
527.0909956165
 20
340.5578602875
 10
527.4449737109
 20
341.4086464352
 10
527.7420308223
 20
342.3154548133
 10
527.9810401114
 20
343.2748455872
 10
528.1610949341
 20
344.2831794589
 10
528.2815122808
 20
345.3366314728
 10
528.3418353672
 20
346.4312055245
 10
528.3418353672
 20
347.5627495197
 10
528.2815122808
 20
348.7269711244
 10
528.1610949341
 20
349.9194540474
 10
527.9810401114
 20
351.1356747925
 10
527.7420308223
 20
352.3710198177
 10
527.4449737109
 20
353.6208030362
 10
527.0909956165
 20
354.8802835923
 10
526.6814392993
 20
356.1446838448
 10
526.2178583468
 20
357.4092074904
 10
525.7020112802
 20
358.6690577578
 10
525.1358548842
 20
359.9194556034
 10
524.5215367839
 20
361.1556578399
 10
523.8613872983
 20
362.3729751288
 10
523.1579106004
 20
363.5667897686
 10
522.4137752184
 20
364.7325732115
 10
521.6318039127
 20
365.8659032416
 10
520.8149629683
 20
366.9624807499
 10
519.9663509426
 20
368.0181460423
 10
519.0891869117
 20
369.0288946187
 10
518.1867982593
 20
369.9908923635
 10
517.2626080547
 20
370.90049009
 10
516.3201220677
 20
371.7542373822
 10
515.3629154706
 20
372.5488956843
 10
514.3946192759
 20
373.2814505851
 10
513.4189065628
 20
373.949123253
 10
512.4394785437
 20
374.5493809769
  0
LWPOLYLINE
  5
105
330
1F
100
AcDbEntity
  8
0
  6
Continuous
 62
     7
370
    25
100
AcDbPolyline
 90
       52
 70
   128
 43
0.0
 10
467.5381979383
 20
348.6284234266
 10
466.5587699192
 20
349.1589892233
 10
465.583057206
 20
349.617850475
 10
464.6147610113
 20
350.0032665639
 10
463.6575544143
 20
350.3137754746
 10
462.7150684273
 20
350.5481993406
 10
461.7908782226
 20
350.7056489118
 10
460.8884895702
 20
350.785526928
 10
460.0113255394
 20
350.7875303846
 10
459.1627135137
 20
350.7116516817
 10
458.3458725692
 20
350.5581786534
 10
457.5639012635
 20
350.3276934753
 10
456.8197658815
 20
350.0210704566
 10
456.1162891837
 20
349.6394727236
 10
455.4561396981
 20
349.1843478072
 10
454.8418215978
 20
348.6574221519
 10
454.2756652017
 20
348.0606945674
 10
453.7598181352
 20
347.3964286457
 10
453.2962371826
 20
346.667144175
 10
452.8866808655
 20
345.8756075811
 10
452.5327027711
 20
345.0248214335
 10
452.2356456597
 20
344.1180130553
 10
451.9966363705
 20
343.1586222815
 10
451.8165815478
 20
342.1502884097
 10
451.6961642012
 20
341.0968363959
 10
451.6358411148
 20
340.0022623442
 10
451.6358411148
 20
338.870718349
 10
451.6961642012
 20
337.7064967442
 10
451.8165815478
 20
336.5140138212
 10
451.9966363705
 20
335.2977930762
 10
452.2356456597
 20
334.062448051
 10
452.5327027711
 20
332.8126648324
 10
452.8866808655
 20
331.5531842763
 10
453.2962371826
 20
330.2887840238
 10
453.7598181352
 20
329.0242603782
 10
454.2756652017
 20
327.7644101108
 10
454.8418215978
 20
326.5140122652
 10
455.4561396981
 20
325.2778100287
 10
456.1162891837
 20
324.0604927398
 10
456.8197658815
 20
322.8666781
 10
457.5639012635
 20
321.7008946571
 10
458.3458725692
 20
320.567564627
 10
459.1627135137
 20
319.4709871188
 10
460.0113255394
 20
318.4153218264
 10
460.8884895702
 20
317.40457325
 10
461.7908782226
 20
316.4425755051
 10
462.7150684273
 20
315.5329777787
 10
463.6575544143
 20
314.6792304865
 10
464.6147610113
 20
313.8845721844
 10
465.583057206
 20
313.1520172835
 10
466.5587699192
 20
312.4843446156
 10
467.5381979383
 20
311.8840868917
  0
LINE
  5
106
330
1F
100
AcDbEntity
  8
0
  6
Continuous
 62
     7
370
    25
100
AcDbLine
 10
456.7194641862
 20
339.7679404621
 30
0.0
 11
456.7194641862
 21
333.235613967
 31
0.0
  0
LINE
  5
107
330
1F
100
AcDbEntity
  8
0
  6
Continuous
 62
     7
370
    25
100
AcDbLine
 10
456.7194641862
 20
333.235613967
 30
0.0
 11
458.791770096
 21
332.0392972296
 31
0.0
  0
ARC
  5
108
330
1F
100
AcDbEntity
  8
0
  6
Continuous
 62
     7
370
    25
100
AcDbCircle
 10
478.4940452093
 20
336.6544037006
 30
0.0
 40
20.23558381604305
100
AcDbArc
 50
193.1834038986
 51
237.2199884455
  0
LWPOLYLINE
  5
109
330
1F
100
AcDbEntity
  8
0
  6
Continuous
 62
     7
370
    25
100
AcDbPolyline
 90
       40
 70
   128
 43
0.0
 10
467.5381979383
 20
319.6412246046
 10
468.2778778715
 20
319.2486377416
 10
469.0127606965
 20
318.9274395014
 10
469.7380804161
 20
318.679712978
 10
470.4491330537
 20
318.507064773
 10
471.1413071601
 20
318.4106145761
 10
471.8101137206
 20
318.390987904
 10
472.4512152679
 20
318.4483120431
 10
473.0604540126
 20
318.5822152244
 10
473.6338788075
 20
318.7918290343
 10
474.1677707729
 20
319.075794047
 10
474.6586674145
 20
319.4322686402
 10
475.1033850793
 20
319.8589409396
 10
475.4990396024
 20
320.3530438114
 10
475.8430650124
 20
320.911372809
 10
476.1332301727
 20
321.5303069545
 10
476.3676532507
 20
322.2058322226
 10
476.5448139229
 20
322.9335675726
 10
476.6635632344
 20
323.7087933616
 10
476.7231310501
 20
324.5264819528
 10
476.7231310501
 20
325.3813303219
 10
476.6635632344
 20
326.2677944493
 10
476.5448139229
 20
327.1801252749
 10
476.3676532507
 20
328.1124059831
 10
476.1332301727
 20
329.058590376
 10
475.8430650124
 20
330.0125420845
 10
475.4990396024
 20
330.9680743659
 10
475.1033850793
 20
331.9189902265
 10
474.6586674145
 20
332.8591226122
 10
474.1677707729
 20
333.7823744037
 10
473.6338788075
 20
334.6827579588
 10
473.0604540126
 20
335.5544339446
 10
472.4512152679
 20
336.3917492079
 10
471.8101137206
 20
337.189273438
 10
471.1413071601
 20
337.9418343841
 10
470.4491330537
 20
338.6445513997
 10
469.7380804161
 20
339.2928670953
 10
469.0127606965
 20
339.8825768949
 10
468.2778778715
 20
340.4098563041
 10
467.5381979383
 20
340.8712857137
  0
LWPOLYLINE
  5
10A
330
1F
100
AcDbEntity
  8
0
  6
Continuous
 62
     7
370
    25
100
AcDbPolyline
 90
       16
 70
   128
 43
0.0
 10
467.5381979383
 20
340.8712857137
 10
466.768148332
 20
341.2785149761
 10
466.003512041
 20
341.6082596616
 10
465.2496643261
 20
341.8582017221
 10
464.5119046059
 20
342.0265841081
 10
463.7954192036
 20
342.1122231207
 10
463.1052448874
 20
342.1145167324
 10
462.4462334632
 20
342.0334488197
 10
461.8230176671
 20
341.8695892757
 10
461.2399785982
 20
341.6240900049
 10
460.7012149202
 20
341.2986768244
 10
460.2105140484
 20
340.8956373326
 10
459.7713255248
 20
340.4178048273
 10
459.3867367688
 20
339.8685383882
 10
459.0594513727
 20
339.2516992633
 10
458.791770096
 20
338.5716237247
  0
LINE
  5
10B
330
1F
100
AcDbEntity
  8
0
  6
Continuous
 62
     7
370
    25
100
AcDbLine
 10
458.791770096
 20
338.5716237247
 30
0.0
 11
456.7194641862
 21
339.7679404621
 31
0.0
  0
LWPOLYLINE
  5
10C
330
1F
100
AcDbEntity
  8
0
  6
Continuous
 62
     7
370
    25
100
AcDbPolyline
 90
       20
 70
   128
 43
0.0
 10
468.2453047195
 20
320.8659694724
 10
468.9649068509
 20
320.485851176
 10
469.6793242324
 20
320.1790699836
 10
470.3834094705
 20
319.947836261
 10
471.0720896148
 20
319.7938160524
 10
471.7404027092
 20
319.7181190768
 10
472.3835335425
 20
319.7212907327
 10
472.9968483424
 20
319.8033081684
 10
473.5759281615
 20
319.9635804462
 10
474.1166007165
 20
320.2009528007
 10
474.6149704494
 20
320.5137149587
 10
475.0674465947
 20
320.8996134617
 10
475.4707690515
 20
321.3558679021
 10
475.8220318722
 20
321.8791909563
 10
476.1187042002
 20
322.4658120695
 10
476.3586485044
 20
323.1115046233
 10
476.5401359808
 20
323.811616388
 10
476.6618590079
 20
324.5611030423
 10
476.7229405685
 20
325.3545645177
 10
476.7235116609
 20
325.3700610931
  0
LWPOLYLINE
  5
10D
330
1F
100
AcDbEntity
  8
0
  6
Continuous
 62
     7
370
    25
100
AcDbPolyline
 90
       14
 70
   128
 43
0.0
 10
512.4394785437
 20
374.5493809769
 10
511.4600505245
 20
375.0799467737
 10
510.4843378114
 20
375.5388080254
 10
509.5160416167
 20
375.9242241143
 10
508.5588350196
 20
376.234733025
 10
507.6163490327
 20
376.469156891
 10
506.692158828
 20
376.6266064621
 10
505.7897701756
 20
376.7064844783
 10
504.9126061447
 20
376.7084879349
 10
504.063994119
 20
376.6326092321
 10
503.2471531746
 20
376.4791362037
 10
502.4651818689
 20
376.2486510256
 10
501.7210464869
 20
375.942028007
 10
501.1903928015
 20
375.6633121131
  0
SPLINE
  5
10E
330
1F
100
AcDbEntity
  8
0
  6
Continuous
 62
     7
370
    25
100
AcDbSpline
210
0.0
220
0.0
230
1.0
 70
     8
 71
     3
 72
     8
 73
     4
 74
     0
 42
0.00000001
 43
0.00000001
 40
0.0
 40
0.0
 40
0.0
 40
0.0
 40
1.0
 40
1.0
 40
1.0
 40
1.0
 10
460.2453047194955
 20
338.5489241592789
 30
0.0
 10
459.7608253884032
 20
338.5571572864917
 30
0.0
 10
459.2763112411328
 20
338.5646698731808
 30
0.0
 10
458.791770096041
 20
338.5716237246673
 30
0.0
  0
LWPOLYLINE
  5
10F
330
1F
100
AcDbEntity
  8
0
  6
Continuous
 62
     7
370
    25
100
AcDbPolyline
 90
       15
 70
   128
 43
0.0
 10
467.900262321
 20
340.6540332879
 10
467.5001915824
 20
340.8552423214
 10
466.760835148
 20
341.1688022595
 10
466.0329476434
 20
341.4012062251
 10
465.3221526869
 20
341.5506586781
 10
464.6339418411
 20
341.6160049573
 10
463.9736321849
 20
341.5967402007
 10
463.3463252339
 20
341.4930132469
 10
462.7568675271
 20
341.3056254846
 10
462.2098131819
 20
341.0360246612
 10
461.70938871
 20
340.6862936978
 10
461.2594603631
 20
340.2591345964
 10
460.8635042627
 20
339.7578475646
 10
460.5245795436
 20
339.1863055181
 10
460.2453047195
 20
338.5489241593
  0
LINE
  5
110
330
1F
100
AcDbEntity
  8
0
  6
Continuous
 62
     7
370
    25
100
AcDbLine
 10
465.4181778571
 20
341.5351602578
 30
0.0
 11
460.2453047195
 21
338.5489241593
 31
0.0
  0
SPLINE
  5
111
330
1F
100
AcDbEntity
  8
0
  6
Continuous
 62
     7
370
    25
100
AcDbSpline
210
0.0
220
0.0
230
1.0
 70
     8
 71
     3
 72
     8
 73
     4
 74
     0
 42
0.00000001
 43
0.00000001
 40
0.0
 40
0.0
 40
0.0
 40
0.0
 40
1.0
 40
1.0
 40
1.0
 40
1.0
 10
458.791770096041
 20
332.0392972295814
 30
0.0
 10
459.2763112411328
 20
332.0323433780948
 30
0.0
 10
459.7608253884032
 20
332.0248307914057
 30
0.0
 10
460.2453047194955
 20
332.0165976641929
 30
0.0
  0
ARC
  5
112
330
1F
100
AcDbEntity
  8
0
  6
Continuous
 62
     7
370
    25
100
AcDbCircle
 10
478.3906212527
 20
336.589817832
 30
0.0
 40
18.71274578444723
100
AcDbArc
 50
194.1458261041
 51
237.1691471628
  0
LINE
  5
113
330
1F
100
AcDbEntity
  8
0
  6
Continuous
 62
     7
370
    25
100
AcDbLine
 10
470.9172685171
 20
338.1773912284
 30
0.0
 11
460.2453047195
 21
332.0165976642
 31
0.0
  0
LINE
  5
114
330
1F
100
AcDbEntity
  8
0
  6
Continuous
 62
     7
370
    25
100
AcDbLine
 10
468.6720280984
 20
340.1356822415
 30
0.0
 11
456.7194641862
 21
333.235613967
 31
0.0
  0
LINE
  5
115
330
1F
100
AcDbEntity
  8
0
  6
Continuous
 62
     7
370
    25
100
AcDbLine
 10
513.1465853248
 20
374.141044221
 30
0.0
 11
512.4394785437
 21
374.5493809769
 31
0.0
  0
ARC
  5
116
330
1F
100
AcDbEntity
  8
0
  6
Continuous
 62
     7
370
    25
100
AcDbCircle
 10
495.3879116088
 20
346.3333926763
 30
0.0
 40
32.99448403269769
100
AcDbArc
 50
2.5633368485
 51
57.4366632972
  0
LINE
  5
117
330
1F
100
AcDbEntity
  8
0
  6
Continuous
 62
     7
370
    25
100
AcDbLine
 10
525.8108509475
 20
358.9869608554
 30
0.0
 11
546.7439707925
 21
371.0713937176
 31
0.0
  0
LINE
  5
118
330
1F
100
AcDbEntity
  8
0
  6
Continuous
 62
     7
370
    25
100
AcDbLine
 10
546.7439707925
 20
366.1721488463
 30
0.0
 11
527.2697556361
 21
354.9299237339
 31
0.0
  0
ARC
  5
119
330
1F
100
AcDbEntity
  8
0
  6
Continuous
 62
     7
370
    25
100
AcDbCircle
 10
543.1346403394
 20
367.2881106768
 30
0.0
 40
3.77791438847115
100
AcDbArc
 50
301.6996992834
 51
342.8190163304
  0
ARC
  5
11A
330
1F
100
AcDbEntity
  8
0
  6
Continuous
 62
     7
370
    25
100
AcDbCircle
 10
532.3353333312
 20
367.6062096332
 30
0.0
 40
14.81945796010109
100
AcDbArc
 50
13.5224674077
 51
57.1676083604
  0
ARC
  5
11B
330
1F
100
AcDbEntity
  8
0
  6
Continuous
 62
     7
370
    25
100
AcDbCircle
 10
537.5983186847
 20
376.283736552
 30
0.0
 40
4.683104789954733
100
AcDbArc
 50
53.7088352483
 51
114.9807063226
  0
LINE
  5
11C
330
1F
100
AcDbEntity
  8
0
  6
Continuous
 62
     7
370
    25
100
AcDbLine
 10
544.9663904782
 20
370.0452184449
 30
0.0
 11
544.9663904782
 21
367.6065281748
 31
0.0
  0
LINE
  5
11D
330
1F
100
AcDbEntity
  8
0
  6
Continuous
 62
     7
370
    25
100
AcDbLine
 10
526.5973585639
 20
357.0023117678
 30
0.0
 11
544.9663904782
 21
367.6065281748
 31
0.0
  0
SPLINE
  5
11E
330
1F
100
AcDbEntity
  8
0
  6
Continuous
 62
     7
370
    25
100
AcDbSpline
210
0.0
220
0.0
230
1.0
 70
     8
 71
     3
 72
     8
 73
     4
 74
     0
 42
0.00000001
 43
0.00000001
 40
0.0
 40
0.0
 40
0.0
 40
0.0
 40
1.0
 40
1.0
 40
1.0
 40
1.0
 10
546.7237497911167
 20
366.5920262377948
 30
0.0
 10
546.730886086731
 20
366.4520778542071
 30
0.0
 10
546.7376044774677
 20
366.3121181281286
 30
0.0
 10
546.7439707925143
 20
366.1721488462505
 30
0.0
  0
LINE
  5
11F
330
1F
100
AcDbEntity
  8
0
  6
Continuous
 62
     7
370
    25
100
AcDbLine
 10
544.9663904782
 20
367.6065281748
 30
0.0
 11
546.7237497911
 21
366.5920262378
 31
0.0
  0
LINE
  5
120
330
1F
100
AcDbEntity
  8
0
  6
Continuous
 62
     7
370
    25
100
AcDbLine
 10
540.7237497911
 20
379.8542422529
 30
0.0
 11
540.3701964005
 21
380.0584106309
 31
0.0
  0
ARC
  5
121
330
1F
100
AcDbEntity
  8
0
  6
Continuous
 62
     7
370
    25
100
AcDbCircle
 10
533.0773607282
 20
368.0345222212
 30
0.0
 40
14.07739490571842
100
AcDbArc
 50
14.2145264659
 51
57.100446801
  0
SPLINE
  5
122
330
1F
100
AcDbEntity
  8
0
  6
Continuous
 62
     7
370
    25
100
AcDbSpline
210
0.0
220
0.0
230
1.0
 70
     8
 71
     3
 72
     8
 73
     4
 74
     0
 42
0.00000001
 43
0.00000001
 40
0.0
 40
0.0
 40
0.0
 40
0.0
 40
1.0
 40
1.0
 40
1.0
 40
1.0
 10
546.7439707925145
 20
371.071393717565
 30
0.0
 10
546.7376045965275
 20
371.2113603818066
 30
0.0
 10
546.7308862280256
 20
371.3513199546196
 30
0.0
 10
546.7237497911167
 20
371.4912711091093
 30
0.0
  0
LWPOLYLINE
  5
123
330
1F
100
AcDbEntity
  8
0
  6
HIDDEN
 62
     7
370
    18
100
AcDbPolyline
 90
       14
 70
   128
 43
0.0
 10
512.4394785437
 20
337.8050444421
 10
513.4189065628
 20
337.2744786454
 10
514.3946192759
 20
336.8156173936
 10
515.3629154706
 20
336.4302013048
 10
516.3201220677
 20
336.119692394
 10
517.2626080547
 20
335.8852685281
 10
518.1867982593
 20
335.7278189569
 10
519.0891869117
 20
335.6479409407
 10
519.9663509426
 20
335.6459374841
 10
520.8149629683
 20
335.7218161869
 10
521.6318039127
 20
335.8752892153
 10
522.4137752184
 20
336.1057743934
 10
523.1579106004
 20
336.412397412
 10
523.6885642858
 20
336.6911133059
  0
SPLINE
  5
124
330
1F
100
AcDbEntity
  8
0
  6
HIDDEN
 62
     7
370
    18
100
AcDbSpline
210
0.0
220
0.0
230
1.0
 70
     8
 71
     3
 72
    27
 73
    23
 74
     0
 42
0.00000001
 43
0.00000001
 40
0.0
 40
0.0
 40
0.0
 40
0.0
 40
0.0198984354819557
 40
0.0401820194773437
 40
0.0608517213881337
 40
0.081908456746039
 40
0.1033530909695446
 40
0.1251864428084284
 40
0.1776640265494566
 40
0.2501849519892564
 40
0.3226075389798432
 40
0.3752265804707088
 40
0.4997771054762059
 40
0.6243491109594913
 40
0.6770465900803943
 40
0.7494056580102699
 40
0.8219954993357755
 40
0.8743946267954372
 40
0.9071153844445923
 40
0.9389545727706895
 40
0.9699150667277742
 40
1.0
 40
1.0
 40
1.0
 40
1.0
 10
491.1169588017002
 20
318.1811196681512
 30
0.0
 10
491.0796471221478
 20
318.1597361430898
 30
0.0
 10
491.0043015686812
 20
318.116555199478
 30
0.0
 10
490.883397938401
 20
318.0494142278756
 30
0.0
 10
490.7556126051461
 20
317.9800840151215
 30
0.0
 10
490.6206738423512
 20
317.9087041568828
 30
0.0
 10
490.4790519018222
 20
317.8356204579582
 30
0.0
 10
490.262827591955
 20
317.7268546622474
 30
0.0
 10
489.9192895608085
 20
317.5608147519787
 30
0.0
 10
489.4436179263722
 20
317.3511832152924
 30
0.0
 10
488.9752481991138
 20
317.1708400392466
 30
0.0
 10
488.4183350366624
 20
316.9885853715368
 30
0.0
 10
487.8246358486413
 20
316.8631879948468
 30
0.0
 10
487.4439551901472
 20
316.9009624702678
 30
0.0
 10
487.2887676643037
 20
317.0192510015916
 30
0.0
 10
487.2578593240731
 20
317.1548118782404
 30
0.0
 10
487.3372833826094
 20
317.3288420265112
 30
0.0
 10
487.4742596212304
 20
317.4863440888162
 30
0.0
 10
487.6112222000341
 20
317.6081172980785
 30
0.0
 10
487.744197962755
 20
317.7098053949923
 30
0.0
 10
487.8908948959457
 20
317.8097434599621
 30
0.0
 10
488.0008885856245
 20
317.8751224253145
 30
0.0
 10
488.0550966232212
 20
317.9073430501722
 30
0.0
  0
SPLINE
  5
125
330
1F
100
AcDbEntity
  8
0
  6
HIDDEN
 62
     7
370
    18
100
AcDbSpline
210
0.0
220
0.0
230
1.0
 70
     8
 71
     3
 72
    27
 73
    23
 74
     0
 42
0.00000001
 43
0.00000001
 40
0.0
 40
0.0
 40
0.0
 40
0.0
 40
0.0199265458642075
 40
0.0402401513984629
 40
0.060941790125551
 40
0.0820323812839855
 40
0.1035127936268153
 40
0.125383848903323
 40
0.1778462589531378
 40
0.2504639307536714
 40
0.3228239951658955
 40
0.3754816563635595
 40
0.4998992234133204
 40
0.6243842085392967
 40
0.6771127149468049
 40
0.7495852945518339
 40
0.8222534650616143
 40
0.874767185695661
 40
0.9073825876889324
 40
0.9391245782653003
 40
0.9699960123486729
 40
1.0
 40
1.0
 40
1.0
 40
1.0
 10
488.0550966232212
 20
317.9073430501722
 30
0.0
 10
488.0925409960381
 20
317.9285531804846
 30
0.0
 10
488.168157073277
 20
317.9713854335387
 30
0.0
 10
488.2905147738546
 20
318.0353729173023
 30
0.0
 10
488.4205231328581
 20
318.0996385607017
 30
0.0
 10
488.558530465126
 20
318.1638463430232
 30
0.0
 10
488.7040503630411
 20
318.2276854528137
 30
0.0
 10
488.9269025078081
 20
318.3198819160369
 30
0.0
 10
489.2836591448667
 20
318.4527991084084
 30
0.0
 10
489.7794044177178
 20
318.6108369631888
 30
0.0
 10
490.2679052818113
 20
318.7394836739583
 30
0.0
 10
490.846011568418
 20
318.86552531271
 30
0.0
 10
491.4517565111957
 20
318.9578773224608
 30
0.0
 10
491.8193738077177
 20
318.9526674704788
 30
0.0
 10
491.9528095048215
 20
318.8902399159125
 30
0.0
 10
491.9635140684031
 20
318.8061411567988
 30
0.0
 10
491.8636087459381
 20
318.6833563105749
 30
0.0
 10
491.7123612511531
 20
318.5613275794078
 30
0.0
 10
491.5676850449415
 20
318.4590938151405
 30
0.0
 10
491.4304568487527
 20
318.3693649661141
 30
0.0
 10
491.2812639041322
 20
318.2770476942374
 30
0.0
 10
491.1712044036217
 20
318.2127904649747
 30
0.0
 10
491.1169588017002
 20
318.1811196681512
 30
0.0
  0
ARC
  5
126
330
1F
100
AcDbEntity
  8
0
  6
HIDDEN
 62
     7
370
    18
100
AcDbCircle
 10
458.4379856805
 20
325.0261345481
 30
0.0
 40
18.2887600959805
100
AcDbArc
 50
1.077530736
 51
57.5713829076
  0
LINE
  5
127
330
1F
100
AcDbEntity
  8
0
  6
HIDDEN
 62
     7
370
    18
100
AcDbLine
 10
468.2453047195
 20
340.4629489577
 30
0.0
 11
467.5381979383
 21
340.8712857137
 31
0.0
  0
LWPOLYLINE
  5
128
330
1F
100
AcDbEntity
  8
0
  6
HIDDEN
 62
     7
370
    18
100
AcDbPolyline
 90
       38
 70
   128
 43
0.0
 10
503.6006437788
 20
341.276172268
 10
504.3202459102
 20
340.8960539715
 10
505.0346632917
 20
340.5892727792
 10
505.7387485298
 20
340.3580390566
 10
506.4274286742
 20
340.2040188479
 10
507.0957417686
 20
340.1283218723
 10
507.7388726019
 20
340.1314935283
 10
508.3521874017
 20
340.2135109639
 10
508.9312672208
 20
340.3737832417
 10
509.4719397759
 20
340.6111555963
 10
509.9703095087
 20
340.9239177543
 10
510.4227856541
 20
341.3098162573
 10
510.8261081109
 20
341.7660706977
 10
511.1773709316
 20
342.2893937518
 10
511.4740432595
 20
342.8760148651
 10
511.7139875638
 20
343.5217074189
 10
511.8954750402
 20
344.2218191836
 10
512.0171980672
 20
344.9713058379
 10
512.0782796278
 20
345.7647673133
 10
512.0782796278
 20
346.5964867017
 10
512.0171980672
 20
347.4604714457
 10
511.8954750402
 20
348.3504965157
 10
511.7139875638
 20
349.2601492604
 10
511.4740432595
 20
350.1828756111
 10
511.1773709316
 20
351.1120273032
 10
510.8261081109
 20
352.0409097775
 10
510.4227856541
 20
352.9628304146
 10
509.9703095087
 20
353.871146755
 10
509.4719397759
 20
354.7593143587
 10
508.9312672208
 20
355.6209339579
 10
508.3521874017
 20
356.4497975635
 10
507.7388726019
 20
357.2399331943
 10
507.0957417686
 20
357.9856479049
 10
506.4274286742
 20
358.6815688037
 10
505.7387485298
 20
359.3226817649
 10
505.0346632917
 20
359.9043675546
 10
504.3202459102
 20
360.4224351136
 10
503.6006437788
 20
360.8731517532
  0
SPLINE
  5
129
330
1F
100
AcDbEntity
  8
0
  6
HIDDEN
 62
     7
370
    18
100
AcDbSpline
210
0.0
220
0.0
230
1.0
 70
     8
 71
     3
 72
    27
 73
    23
 74
     0
 42
0.00000001
 43
0.00000001
 40
0.0
 40
0.0
 40
0.0
 40
0.0
 40
0.0198603671420117
 40
0.0401181594695939
 40
0.0607769070917284
 40
0.0818399379357617
 40
0.1033103913524126
 40
0.1251912307431824
 40
0.177393337398186
 40
0.250232656069871
 40
0.3224554972762641
 40
0.3753116364423925
 40
0.4998656681345288
 40
0.6243737129816723
 40
0.6772746196763744
 40
0.7494201265870566
 40
0.8222911783577936
 40
0.87440253750201
 40
0.9071832424200812
 40
0.9390358884040613
 40
0.9699709819409229
 40
1.0
 40
1.0
 40
1.0
 40
1.0
 10
487.3608128194538
 20
327.8621955061629
 30
0.0
 10
487.3970905937938
 20
327.8831812716102
 30
0.0
 10
487.4703720958812
 20
327.9255727480005
 30
0.0
 10
487.574134888975
 20
327.9863288675543
 30
0.0
 10
487.6737849795607
 20
328.0454395064629
 30
0.0
 10
487.7679861885429
 20
328.1023263759507
 30
0.0
 10
487.8560204774842
 20
328.1566736996059
 30
0.0
 10
487.9738030382372
 20
328.2315699229152
 30
0.0
 10
488.1203475109859
 20
328.3301637634975
 30
0.0
 10
488.2290994592933
 20
328.4296684352276
 30
0.0
 10
488.2279652692472
 20
328.4909466369254
 30
0.0
 10
488.10539359518
 20
328.5290761856703
 30
0.0
 10
487.7433687393639
 20
328.5202882165906
 30
0.0
 10
487.1298902580717
 20
328.4419714646584
 30
0.0
 10
486.54232366931
 20
328.340474840748
 30
0.0
 10
486.045205188305
 20
328.2347738115435
 30
0.0
 10
485.5422345536417
 20
328.1002333703267
 30
0.0
 10
485.1534163198623
 20
327.9737905299351
 30
0.0
 10
484.8797599634456
 20
327.8692757817868
 30
0.0
 10
484.6670639016234
 20
327.777966657101
 30
0.0
 10
484.4719999942454
 20
327.68472392491
 30
0.0
 10
484.3560593718666
 20
327.6202009106069
 30
0.0
 10
484.2989506409748
 20
327.588418888184
 30
0.0
  0
SPLINE
  5
12A
330
1F
100
AcDbEntity
  8
0
  6
HIDDEN
 62
     7
370
    18
100
AcDbSpline
210
0.0
220
0.0
230
1.0
 70
     8
 71
     3
 72
    27
 73
    23
 74
     0
 42
0.00000001
 43
0.00000001
 40
0.0
 40
0.0
 40
0.0
 40
0.0
 40
0.0198890731569932
 40
0.0401775678469556
 40
0.0608690296469908
 40
0.081966800379532
 40
0.1034740318751969
 40
0.1253936987421025
 40
0.1775711040769506
 40
0.2504879615112514
 40
0.322631781384096
 40
0.3755038833704467
 40
0.4998918051908062
 40
0.6243934993581436
 40
0.6773482354854674
 40
0.7496577925649828
 40
0.8225785705106142
 40
0.8748034742257584
 40
0.9074702841350653
 40
0.9392181983831296
 40
0.970057642955798
 40
1.0
 40
1.0
 40
1.0
 40
1.0
 10
484.2989506409748
 20
327.588418888184
 30
0.0
 10
484.2627720652255
 20
327.5670139255751
 30
0.0
 10
484.189688358896
 20
327.5237741360339
 30
0.0
 10
484.0881921162437
 20
327.4567196070764
 30
0.0
 10
483.9922397435494
 20
327.3876530823121
 30
0.0
 10
483.9033185800678
 20
327.3167819532162
 30
0.0
 10
483.8221241233421
 20
327.244493732588
 30
0.0
 10
483.7166456795449
 20
327.1380160524575
 30
0.0
 10
483.5946973881445
 20
326.9763043020829
 30
0.0
 10
483.5240066029945
 20
326.7796806326224
 30
0.0
 10
483.5632773343607
 20
326.6210780695264
 30
0.0
 10
483.7268835566203
 20
326.4779717100686
 30
0.0
 10
484.1128894207403
 20
326.4250862823343
 30
0.0
 10
484.7022717742985
 20
326.5649546218756
 30
0.0
 10
485.2495474512843
 20
326.7717876543815
 30
0.0
 10
485.7095563077764
 20
326.9752556290267
 30
0.0
 10
486.1755659174506
 20
327.2074977235029
 30
0.0
 10
486.5381550082968
 20
327.4017490654163
 30
0.0
 10
486.7970750254427
 20
327.5432545130029
 30
0.0
 10
487.0003558435646
 20
327.6565344603628
 30
0.0
 10
487.1893263703709
 20
327.7634962548269
 30
0.0
 10
487.3042158935361
 20
327.8296210710057
 30
0.0
 10
487.3608128194538
 20
327.8621955061629
 30
0.0
  0
LWPOLYLINE
  5
12B
330
1F
100
AcDbEntity
  8
0
  6
HIDDEN
 62
     7
370
    18
100
AcDbPolyline
 90
       40
 70
   128
 43
0.0
 10
501.1903928015
 20
375.6633121131
 10
501.0175697891
 20
375.560430274
 10
500.3574203034
 20
375.1053053575
 10
499.7431022031
 20
374.5783797023
 10
499.1769458071
 20
373.9816521177
 10
498.6610987405
 20
373.317386196
 10
498.197517788
 20
372.5881017254
 10
497.7879614708
 20
371.7965651315
 10
497.4339833764
 20
370.9457789838
 10
497.136926265
 20
370.0389706057
 10
496.8979169759
 20
369.0795798318
 10
496.7178621532
 20
368.0712459601
 10
496.5974448065
 20
367.0177939462
 10
496.5371217201
 20
365.9232198945
 10
496.5371217201
 20
364.7916758993
 10
496.5974448065
 20
363.6274542946
 10
496.7178621532
 20
362.4349713716
 10
496.8979169759
 20
361.2187506266
 10
497.136926265
 20
359.9834056013
 10
497.4339833764
 20
358.7336223828
 10
497.7879614708
 20
357.4741418267
 10
498.197517788
 20
356.2097415742
 10
498.6610987405
 20
354.9452179286
 10
499.1769458071
 20
353.6853676612
 10
499.7431022031
 20
352.4349698156
 10
500.3574203034
 20
351.1987675791
 10
501.0175697891
 20
349.9814502902
 10
501.7210464869
 20
348.7876356504
 10
502.4651818689
 20
347.6218522075
 10
503.2471531746
 20
346.4885221774
 10
504.063994119
 20
345.3919446691
 10
504.9126061447
 20
344.3362793768
 10
505.7897701756
 20
343.3255308004
 10
506.692158828
 20
342.3635330555
 10
507.6163490327
 20
341.4539353291
 10
508.5588350196
 20
340.6001880369
 10
509.5160416167
 20
339.8055297348
 10
510.4843378114
 20
339.0729748339
 10
511.4600505245
 20
338.405302166
 10
512.4394785437
 20
337.8050444421
  0
SPLINE
  5
12C
330
1F
100
AcDbEntity
  8
0
  6
HIDDEN
 62
     7
370
    18
100
AcDbSpline
210
0.0
220
0.0
230
1.0
 70
     8
 71
     3
 72
    27
 73
    23
 74
     0
 42
0.00000001
 43
0.00000001
 40
0.0
 40
0.0
 40
0.0
 40
0.0
 40
0.0199151416621005
 40
0.0402087608678157
 40
0.060881817493647
 40
0.0819352190026989
 40
0.1033698240357269
 40
0.1251864457089653
 40
0.1778587886157399
 40
0.2501854983571479
 40
0.3228045760552814
 40
0.3752265940276683
 40
0.499776914247593
 40
0.6243489660763321
 40
0.676851719941687
 40
0.7494050469591726
 40
0.8217984299997149
 40
0.874394584370766
 40
0.9070925366886076
 40
0.9389241453337096
 40
0.9698922643960367
 40
1.0
 40
1.0
 40
1.0
 40
1.0
 10
464.0026640323762
 20
346.5844173955944
 30
0.0
 10
464.0034073491742
 20
346.6272594776067
 30
0.0
 10
464.0049081091428
 20
346.7137578344824
 30
0.0
 10
464.0171605976032
 20
346.8488032485248
 30
0.0
 10
464.0371442246239
 20
346.988797393446
 30
0.0
 10
464.0659116176398
 20
347.1336355395367
 30
0.0
 10
464.103564061998
 20
347.2827208963109
 30
0.0
 10
464.1721557675413
 20
347.5065846269155
 30
0.0
 10
464.3095102983631
 20
347.8506809403635
 30
0.0
 10
464.5582110854434
 20
348.3038113633206
 30
0.0
 10
464.8659454214203
 20
348.7224979810246
 30
0.0
 10
465.2984870642343
 20
349.1917962702591
 30
0.0
 10
465.8729081701985
 20
349.6394645129133
 30
0.0
 10
466.4221040552909
 20
349.8412573356985
 30
0.0
 10
466.8114063887959
 20
349.8469252025632
 30
0.0
 10
467.0794778568813
 20
349.7609656153712
 30
0.0
 10
467.2884847324343
 20
349.5725084271309
 30
0.0
 10
467.4087355865003
 20
349.3577800356653
 30
0.0
 10
467.4740572791169
 20
349.1685734775924
 30
0.0
 10
467.5115416838061
 20
348.9972986014342
 30
0.0
 10
467.534131984182
 20
348.8171102582439
 30
0.0
 10
467.5368554086776
 20
348.688725679464
 30
0.0
 10
467.538197938309
 20
348.6254376751511
 30
0.0
  0
SPLINE
  5
12D
330
1F
100
AcDbEntity
  8
0
  6
HIDDEN
 62
     7
370
    18
100
AcDbSpline
210
0.0
220
0.0
230
1.0
 70
     8
 71
     3
 72
    27
 73
    23
 74
     0
 42
0.00000001
 43
0.00000001
 40
0.0
 40
0.0
 40
0.0
 40
0.0
 40
0.0199433334275298
 40
0.0402670240378074
 40
0.0609720357963448
 40
0.0820592798518186
 40
0.1035296181671242
 40
0.1253838668528878
 40
0.1780424730405668
 40
0.2504644996167772
 40
0.3230196262440394
 40
0.3754816876063819
 40
0.499899112363713
 40
0.624384121977906
 40
0.676916940672165
 40
0.7495847426264491
 40
0.822057211000881
 40
0.8747671042819333
 40
0.9073599141381028
 40
0.9390944025507109
 40
0.9699734036264469
 40
1.0
 40
1.0
 40
1.0
 40
1.0
 10
467.538197938309
 20
348.6254376751511
 30
0.0
 10
467.5376098252805
 20
348.582443512333
 30
0.0
 10
467.536422382793
 20
348.4956352064912
 30
0.0
 10
467.5266468758444
 20
348.3589320116373
 30
0.0
 10
467.5105975984358
 20
348.2164062476554
 30
0.0
 10
467.4873684162804
 20
348.0680764827262
 30
0.0
 10
467.4568280864621
 20
347.9145588359411
 30
0.0
 10
467.4009647578075
 20
347.6831150307432
 30
0.0
 10
467.2890344351484
 20
347.323919222588
 30
0.0
 10
467.0800923176321
 20
346.8477147381138
 30
0.0
 10
466.8121461668794
 20
346.405907751664
 30
0.0
 10
466.4232820464092
 20
345.912005354448
 30
0.0
 10
465.8747489957396
 20
345.4502141060235
 30
0.0
 10
465.3004890507433
 20
345.2634198460419
 30
0.0
 10
464.8675641598775
 20
345.2829874558385
 30
0.0
 10
464.5591594946896
 20
345.3923764808447
 30
0.0
 10
464.3099575104603
 20
345.6045535002024
 30
0.0
 10
464.1623305548601
 20
345.8356208507219
 30
0.0
 10
464.0821753032503
 20
346.0335958682774
 30
0.0
 10
464.0359122151626
 20
346.2096491788328
 30
0.0
 10
464.0077891163581
 20
346.3926408438895
 30
0.0
 10
464.0043563794057
 20
346.521091120599
 30
0.0
 10
464.0026640323762
 20
346.5844173955944
 30
0.0
  0
SPLINE
  5
12E
330
1F
100
AcDbEntity
  8
0
  6
HIDDEN
 62
     7
370
    18
100
AcDbSpline
210
0.0
220
0.0
230
1.0
 70
     8
 71
     3
 72
    37
 73
    33
 74
     0
 42
0.00000001
 43
0.00000001
 40
0.0
 40
0.0
 40
0.0
 40
0.0
 40
0.0132198026509974
 40
0.0266042752377748
 40
0.040154598670732
 40
0.053871910984003
 40
0.0677573091105318
 40
0.0818118505843943
 40
0.0960365551724068
 40
0.1104324064371513
 40
0.1250003532336273
 40
0.154824867727035
 40
0.1876616640010465
 40
0.2140474269207555
 40
0.2500101106252682
 40
0.3126176113915514
 40
0.3749084123126657
 40
0.4392259624944118
 40
0.4998775065014381
 40
0.5605121287711907
 40
0.6247969733226384
 40
0.6870973970885333
 40
0.7496543301946363
 40
0.7857783551578107
 40
0.8121922126198574
 40
0.8448910845288263
 40
0.8745965662408609
 40
0.9007858577906136
 40
0.9264148291288702
 40
0.9514892968697191
 40
0.9760154737130375
 40
1.0
 40
1.0
 40
1.0
 40
1.0
 10
483.4481005150063
 20
357.8100289331566
 30
0.0
 10
483.4488297021358
 20
357.8669369826719
 30
0.0
 10
483.4502971593742
 20
357.9814619459048
 30
0.0
 10
483.4622185239789
 20
358.1575173246268
 30
0.0
 10
483.4814974293911
 20
358.3377753594481
 30
0.0
 10
483.5090433703281
 20
358.522262171648
 30
0.0
 10
483.5448545781194
 20
358.7106540477728
 30
0.0
 10
483.5891616973182
 20
358.9026864331747
 30
0.0
 10
483.6421138125817
 20
359.0980389998273
 30
0.0
 10
483.7038619835141
 20
359.29637599593
 30
0.0
 10
483.7989262730957
 20
359.5666411411332
 30
0.0
 10
483.9454855072714
 20
359.9213882116363
 30
0.0
 10
484.1467879554451
 20
360.3267745842646
 30
0.0
 10
484.3920407835701
 20
360.7524062430564
 30
0.0
 10
484.7509237993652
 20
361.2978847364034
 30
0.0
 10
485.2794073331941
 20
361.9633387852609
 30
0.0
 10
485.9666881382639
 20
362.6658808695697
 30
0.0
 10
486.6794136041139
 20
363.2594816377979
 30
0.0
 10
487.3850751422917
 20
363.7251625844453
 30
0.0
 10
488.0588791638654
 20
364.0563740860441
 30
0.0
 10
488.6836383750733
 20
364.235512009114
 30
0.0
 10
489.2361891841109
 20
364.249424011056
 30
0.0
 10
489.6311334695351
 20
364.1173159151155
 30
0.0
 10
489.8875505488638
 20
363.926978681656
 30
0.0
 10
490.0573233743738
 20
363.7409452223074
 30
0.0
 10
490.1936133334135
 20
363.5313590486708
 30
0.0
 10
490.3051790324453
 20
363.2861702743993
 30
0.0
 10
490.3879188357214
 20
363.031825568619
 30
0.0
 10
490.4482676602914
 20
362.7683420106857
 30
0.0
 10
490.4896766969127
 20
362.4891740888537
 30
0.0
 10
490.5146733388409
 20
362.1985748317365
 30
0.0
 10
490.5176811923465
 20
361.9934745837585
 30
0.0
 10
490.5191683268718
 20
361.8920694922701
 30
0.0
  0
SPLINE
  5
12F
330
1F
100
AcDbEntity
  8
0
  6
HIDDEN
 62
     7
370
    18
100
AcDbSpline
210
0.0
220
0.0
230
1.0
 70
     8
 71
     3
 72
    22
 73
    18
 74
     0
 42
0.00000001
 43
0.00000001
 40
0.0
 40
0.0
 40
0.0
 40
0.0
 40
0.126422109796149
 40
0.1701979630183399
 40
0.214773783239274
 40
0.2601564316717952
 40
0.3218933337128982
 40
0.3898387503054939
 40
0.444934256981164
 40
0.520214141554308
 40
0.5831539384254153
 40
0.63142205361203
 40
0.6782153884673482
 40
0.7313208775415371
 40
0.7801389598274387
 40
0.913698712448162
 40
1.0
 40
1.0
 40
1.0
 40
1.0
 10
490.5191683268718
 20
361.8920694922701
 30
0.0
 10
490.5101771095794
 20
361.6226803772904
 30
0.0
 10
490.4980725269975
 20
361.2600105982241
 30
0.0
 10
490.4295622238147
 20
360.7674736984235
 30
0.0
 10
490.3758170240155
 20
360.4561303137297
 30
0.0
 10
490.3004512695587
 20
360.0977648514445
 30
0.0
 10
490.1946413664606
 20
359.6799370358042
 30
0.0
 10
490.0584791933034
 20
359.23805258467
 30
0.0
 10
489.8886674533927
 20
358.7678372093884
 30
0.0
 10
489.6981909484057
 20
358.3176349002791
 30
0.0
 10
489.4902282467055
 20
357.8975460868954
 30
0.0
 10
489.2984040202061
 20
357.5542073185616
 30
0.0
 10
489.106044510491
 20
357.2444160885858
 30
0.0
 10
488.9004075361742
 20
356.9476548030449
 30
0.0
 10
488.5556312814365
 20
356.5067612545364
 30
0.0
 10
488.1277932619798
 20
356.0473833058495
 30
0.0
 10
487.7412439802628
 20
355.7890620933846
 30
0.0
 10
487.5895131384172
 20
355.6876641684946
 30
0.0
  0
SPLINE
  5
130
330
1F
100
AcDbEntity
  8
0
  6
HIDDEN
 62
     7
370
    18
100
AcDbSpline
210
0.0
220
0.0
230
1.0
 70
     8
 71
     3
 72
    21
 73
    17
 74
     0
 42
0.00000001
 43
0.00000001
 40
0.0
 40
0.0
 40
0.0
 40
0.0
 40
0.086124056435129
 40
0.1298923526757605
 40
0.1745152880611608
 40
0.2199999182423761
 40
0.2817610376799167
 40
0.3502452870763577
 40
0.403769007495103
 40
0.4803734991053079
 40
0.5552449836186695
 40
0.6101237406845437
 40
0.6784247799988998
 40
0.7404660676414185
 40
0.8737660817974795
 40
1.0
 40
1.0
 40
1.0
 40
1.0
 10
487.1653286967335
 20
355.4427877026527
 30
0.0
 10
487.0093592379316
 20
355.3650023516558
 30
0.0
 10
486.7741260082403
 20
355.2476864394369
 30
0.0
 10
486.4548551409255
 20
355.1659569410658
 30
0.0
 10
486.2115166732616
 20
355.1204983877379
 30
0.0
 10
485.9380911451697
 20
355.0958964491692
 30
0.0
 10
485.6274449072726
 20
355.102076180234
 30
0.0
 10
485.3141188163988
 20
355.1522993262423
 30
0.0
 10
484.9908143724139
 20
355.2497788086584
 30
0.0
 10
484.6779438451457
 20
355.3962208696897
 30
0.0
 10
484.3926516865026
 20
355.5947922623873
 30
0.0
 10
484.1472354921829
 20
355.824777095528
 30
0.0
 10
483.9455535787705
 20
356.0726380277174
 30
0.0
 10
483.7060001974917
 20
356.4713190145836
 30
0.0
 10
483.4952394834551
 20
357.0307925898125
 30
0.0
 10
483.4635256902216
 20
357.5550412334738
 30
0.0
 10
483.4481005150063
 20
357.8100289331566
 30
0.0
  0
LINE
  5
131
330
1F
100
AcDbEntity
  8
0
  6
HIDDEN
 62
     7
370
    18
100
AcDbLine
 10
468.2453047195
 20
340.4629489577
 30
0.0
 11
467.900262321
 21
340.6540332879
 31
0.0
  0
SPLINE
  5
132
330
1F
100
AcDbEntity
  8
0
  6
HIDDEN
 62
     7
370
    18
100
AcDbSpline
210
0.0
220
0.0
230
1.0
 70
     8
 71
     3
 72
    19
 73
    15
 74
     0
 42
0.00000001
 43
0.00000001
 40
0.0
 40
0.0
 40
0.0
 40
0.0
 40
0.0506788078432395
 40
0.1009765386960806
 40
0.1509105629275991
 40
0.2004986331430133
 40
0.2497588760005645
 40
0.3736063611404444
 40
0.5002325719550953
 40
0.6210040873110243
 40
0.7501997584177739
 40
0.8249167572679991
 40
0.9081793555393098
 40
1.0
 40
1.0
 40
1.0
 40
1.0
 10
495.8546770864081
 20
359.5465300869302
 30
0.0
 10
495.8091759565639
 20
359.5263290393655
 30
0.0
 10
495.7185158405517
 20
359.4860788450945
 30
0.0
 10
495.5778776278224
 20
359.417715972985
 30
0.0
 10
495.4348654742038
 20
359.3441100885232
 30
0.0
 10
495.2893689841187
 20
359.2649332927377
 30
0.0
 10
495.0669974332058
 20
359.1379200024348
 30
0.0
 10
494.7573984679327
 20
358.9473327052177
 30
0.0
 10
494.3621906586403
 20
358.6791412644624
 30
0.0
 10
493.9554632393402
 20
358.3784442197161
 30
0.0
 10
493.6056143089962
 20
358.0962835826663
 30
0.0
 10
493.3010028892226
 20
357.8323483678462
 30
0.0
 10
493.0402597276171
 20
357.5939702457814
 30
0.0
 10
492.8644292030005
 20
357.4183913276409
 30
0.0
 10
492.7722166540767
 20
357.3263107312012
 30
0.0
  0
LINE
  5
133
330
1F
100
AcDbEntity
  8
0
  6
HIDDEN
 62
     7
370
    18
100
AcDbLine
 10
492.7722166541
 20
357.3263107312
 30
0.0
 11
465.4181778571
 21
341.5351602578
 31
0.0
  0
LWPOLYLINE
  5
134
330
1F
100
AcDbEntity
  8
0
  6
HIDDEN
 62
     7
370
    18
100
AcDbPolyline
 90
       14
 70
   128
 43
0.0
 10
503.6006437788
 20
360.8731517532
 10
502.850831005
 20
361.2676782358
 10
502.1068846937
 20
361.582455545
 10
501.3746254092
 20
361.8150208936
 10
500.6597822771
 20
361.9635547128
 10
499.967948161
 20
362.0268948884
 10
499.3045359042
 20
362.0045458529
 10
498.6747359801
 20
361.8966824631
 10
498.0834758822
 20
361.7041486317
 10
497.5353815725
 20
361.4284507247
 10
497.0347412878
 20
361.0717457759
 10
496.5854719894
 20
360.6368246105
 10
496.1910887167
 20
360.1270900094
 10
495.8546770864
 20
359.5465300869
  0
LINE
  5
135
330
1F
100
AcDbEntity
  8
0
  6
HIDDEN
 62
     7
370
    18
100
AcDbLine
 10
492.7722166541
 20
350.7939842361
 30
0.0
 11
470.9172685171
 21
338.1773912284
 31
0.0
  0
SPLINE
  5
136
330
1F
100
AcDbEntity
  8
0
  6
HIDDEN
 62
     7
370
    18
100
AcDbSpline
210
0.0
220
0.0
230
1.0
 70
     8
 71
     3
 72
    19
 73
    15
 74
     0
 42
0.00000001
 43
0.00000001
 40
0.0
 40
0.0
 40
0.0
 40
0.0
 40
0.0561049099622132
 40
0.1091299705863196
 40
0.1590775021764509
 40
0.20595030205607
 40
0.2497517767817599
 40
0.3786730117634542
 40
0.499217577301735
 40
0.625816509551625
 40
0.7496482091265739
 40
0.8321201966401806
 40
0.915543179542415
 40
1.0
 40
1.0
 40
1.0
 40
1.0
 10
492.7722166540767
 20
350.7939842361152
 30
0.0
 10
492.8283167175729
 20
350.7755061664641
 30
0.0
 10
492.9374372612713
 20
350.7395643710157
 30
0.0
 10
493.1006596518182
 20
350.6994131309397
 30
0.0
 10
493.2566233900036
 20
350.6696844851917
 30
0.0
 10
493.4048706893075
 20
350.6498007991506
 30
0.0
 10
493.6383786787455
 20
350.6304656858081
 30
0.0
 10
493.954347683865
 20
350.6352767508175
 30
0.0
 10
494.3605142568572
 20
350.6997696466391
 30
0.0
 10
494.7554623142979
 20
350.8219023097425
 30
0.0
 10
495.0994214483178
 20
350.9839318897088
 30
0.0
 10
495.3868007494814
 20
351.1619655197872
 30
0.0
 10
495.6267144813243
 20
351.3385966973702
 30
0.0
 10
495.7783782261105
 20
351.4766466618639
 30
0.0
 10
495.8546770864081
 20
351.5460967138182
 30
0.0
  0
ARC
  5
137
330
1F
100
AcDbEntity
  8
0
  6
HIDDEN
 62
     7
370
    18
100
AcDbCircle
 10
513.6567080588
 20
356.9169507253
 30
0.0
 40
18.59457930566622
100
AcDbArc
 50
196.7885074989
 51
237.2614608986
  0
LINE
  5
138
330
1F
100
AcDbEntity
  8
0
  6
HIDDEN
 62
     7
370
    18
100
AcDbLine
 10
489.9534829019
 20
352.4212045949
 30
0.0
 11
468.6720280984
 21
340.1356822415
 31
0.0
  0
ARC
  5
139
330
1F
100
AcDbEntity
  8
0
  6
HIDDEN
 62
     7
370
    18
100
AcDbCircle
 10
496.0310563905
 20
354.5620141444
 30
0.0
 40
7.498154479079483
100
AcDbArc
 50
144.1489770242
 51
177.6385801897
  0
ARC
  5
13A
330
1F
100
AcDbEntity
  8
0
  6
HIDDEN
 62
     7
370
    18
100
AcDbCircle
 10
490.832831911
 20
354.5619236124
 30
0.0
 40
2.314288787454079
100
AcDbArc
 50
172.326146262
 51
247.668478079
  0
LWPOLYLINE
  5
13B
330
1F
100
AcDbEntity
  8
0
  6
HIDDEN
 62
     7
370
    18
100
AcDbPolyline
 90
       18
 70
   128
 43
0.0
 10
469.0938328569
 20
343.645348193
 10
469.1239324486
 20
343.2876268663
 10
469.2132062182
 20
342.9768395592
 10
469.3586140545
 20
342.7235697606
 10
469.5552042681
 20
342.5364422698
 10
469.796282215
 20
342.4218294891
 10
470.0736382749
 20
342.3836344193
 10
470.3778274198
 20
342.4231577476
 10
470.6984908532
 20
342.5390535546
 10
471.0247087665
 20
342.7273751474
 10
471.3453722
 20
342.9817094601
 10
471.6495613449
 20
343.2933954428
 10
471.9269174048
 20
343.6518190032
 10
472.1679953517
 20
344.0447744567
 10
472.3645855653
 20
344.4588801766
 10
472.5099934016
 20
344.8800342895
 10
472.5992671712
 20
345.293894897
 10
472.6293667629
 20
345.6863684726
  0
LWPOLYLINE
  5
13C
330
1F
100
AcDbEntity
  8
0
  6
HIDDEN
 62
     7
370
    18
100
AcDbPolyline
 90
       18
 70
   128
 43
0.0
 10
472.6293667629
 20
345.6863684726
 10
472.5992671712
 20
346.0440897993
 10
472.5099934016
 20
346.3548771065
 10
472.3645855653
 20
346.608146905
 10
472.1679953517
 20
346.7952743958
 10
471.9269174048
 20
346.9098871765
 10
471.6495613449
 20
346.9480822463
 10
471.3453722
 20
346.908558918
 10
471.0247087665
 20
346.7926631111
 10
470.6984908532
 20
346.6043415182
 10
470.3778274198
 20
346.3500072055
 10
470.0736382749
 20
346.0383212228
 10
469.796282215
 20
345.6798976625
 10
469.5552042681
 20
345.286942209
 10
469.3586140545
 20
344.872836489
 10
469.2132062182
 20
344.4516823761
 10
469.1239324486
 20
344.0378217686
 10
469.0938328569
 20
343.645348193
  0
LINE
  5
13D
330
1F
100
AcDbEntity
  8
0
  6
HIDDEN
 62
     7
370
    18
100
AcDbLine
 10
489.9534829019
 20
358.95353109
 30
0.0
 11
456.7194641862
 21
339.7679404621
 31
0.0
  0
LINE
  5
13E
330
1F
100
AcDbEntity
  8
0
  6
HIDDEN
 62
     7
370
    18
100
AcDbLine
 10
492.7722166541
 20
350.7939842361
 30
0.0
 11
489.9534829019
 21
352.4212045949
 31
0.0
  0
LWPOLYLINE
  5
13F
330
1F
100
AcDbEntity
  8
0
  6
HIDDEN
 62
     7
370
    18
100
AcDbPolyline
 90
       26
 70
   128
 43
0.0
 10
513.1465853248
 20
339.0297893099
 10
514.1011767711
 20
338.5133574185
 10
515.0520008811
 20
338.0682476889
 10
515.9953051864
 20
337.6962167661
 10
516.9273668958
 20
337.3987328859
 10
517.8445075877
 20
337.1769700815
 10
518.7431077266
 20
337.0318035493
 10
519.6196209485
 20
336.9638061952
 10
520.4705880559
 20
336.9732463738
 10
521.2926506707
 20
337.060086829
 10
522.0825644871
 20
337.2239848412
 10
522.8372120762
 20
337.4642935797
 10
523.5536151887
 20
337.7800646559
 10
524.2289465089
 20
338.1700518655
 10
524.8605408125
 20
338.6327161072
 10
525.4459054854
 20
339.1662314566
 10
525.9827303607
 20
339.7684923723
 10
526.4688968358
 20
340.4371220057
 10
526.9024862337
 20
341.169481581
 10
527.2817873753
 20
341.9626808097
 10
527.6053033321
 20
342.8135892967
 10
527.8717573345
 20
343.7188488949
 10
528.0800978102
 20
344.6748869584
 10
528.2295025346
 20
345.6779304415
 10
528.3193818756
 20
346.7240207901
 10
528.3493811204
 20
347.8090295633
  0
LINE
  5
140
330
1F
100
AcDbEntity
  8
0
  6
HIDDEN
 62
     7
370
    18
100
AcDbLine
 10
495.8546770864
 20
351.5460967138
 30
0.0
 11
497.4362297759
 21
350.6330857802
 31
0.0
  0
ARC
  5
141
330
1F
100
AcDbEntity
  8
0
  6
HIDDEN
 62
     7
370
    18
100
AcDbCircle
 10
511.775769626
 20
355.7556818309
 30
0.0
 40
15.22706122044305
100
AcDbArc
 50
199.6585434221
 51
237.5284069306
  0
LWPOLYLINE
  5
142
330
1F
100
AcDbEntity
  8
0
  6
HIDDEN
 62
     7
370
    18
100
AcDbPolyline
 90
       35
 70
   128
 43
0.0
 10
503.6006437788
 20
342.9092538918
 10
504.2530796055
 20
342.5674428976
 10
504.8999490797
 20
342.2982124974
 10
505.5357333392
 20
342.1038596699
 10
506.1550080969
 20
341.986042565
 10
506.7524899189
 20
341.9457663567
 10
507.3230813009
 20
341.9833746673
 10
507.8619141584
 20
342.098546636
 10
508.3643913596
 20
342.2902996562
 10
508.8262259461
 20
342.5569977587
 10
509.243477708
 20
342.8963655694
 10
509.6125868004
 20
343.3055077217
 10
509.9304041147
 20
343.7809335591
 10
510.1942181456
 20
344.318586916
 10
510.4017781249
 20
344.9138807234
 10
510.5513132239
 20
345.5617361446
 10
510.641547662
 20
346.2566259054
 10
510.6717115907
 20
346.9926214515
 10
510.641547662
 20
347.7634435284
 10
510.5513132239
 20
348.5625157538
 10
510.4017781249
 20
349.3830207254
 10
510.1942181456
 20
350.2179581839
 10
509.9304041147
 20
351.0602047374
 10
509.6125868004
 20
351.9025746353
 10
509.243477708
 20
352.7378810746
 10
508.8262259461
 20
353.5589975152
 10
508.3643913596
 20
354.3589184813
 10
507.8619141584
 20
355.1308193292
 10
507.3230813009
 20
355.868114473
 10
506.7524899189
 20
356.5645135705
 10
506.1550080969
 20
357.2140751902
 10
505.5357333392
 20
357.8112575013
 10
504.8999490797
 20
358.350965555
 10
504.2530796055
 20
358.8285947523
 10
503.6006437788
 20
359.2400701295
  0
LWPOLYLINE
  5
143
330
1F
100
AcDbEntity
  8
0
  6
HIDDEN
 62
     7
370
    18
100
AcDbPolyline
 90
       12
 70
   128
 43
0.0
 10
503.6006437788
 20
359.2400701295
 10
502.9210567361
 20
359.5945888897
 10
502.2477614458
 20
359.8702284668
 10
501.5869914101
 20
360.0644369347
 10
500.9448641699
 20
360.1754162725
 10
500.3273246671
 20
360.2021390114
 10
499.7400902059
 20
360.1443577469
 10
499.18859752
 20
360.0026074296
 10
498.6779524387
 20
359.7782004121
 10
498.2128826161
 20
359.4732142994
 10
497.7976937614
 20
359.0904727138
 10
497.4362297759
 20
358.6335191533
  0
LINE
  5
144
330
1F
100
AcDbEntity
  8
0
  6
HIDDEN
 62
     7
370
    18
100
AcDbLine
 10
497.4362297759
 20
358.6335191533
 30
0.0
 11
495.8546770864
 21
359.5465300869
 31
0.0
  0
LWPOLYLINE
  5
145
330
1F
100
AcDbEntity
  8
0
  6
HIDDEN
 62
     7
370
    18
100
AcDbPolyline
 90
       35
 70
   128
 43
0.0
 10
505.0148573412
 20
343.7256620036
 10
505.6672931679
 20
343.3838510094
 10
506.3141626421
 20
343.1146206092
 10
506.9499469016
 20
342.9202677818
 10
507.5692216593
 20
342.8024506768
 10
508.1667034812
 20
342.7621744685
 10
508.7372948632
 20
342.7997827791
 10
509.2761277208
 20
342.9149547478
 10
509.778604922
 20
343.106707768
 10
510.2404395084
 20
343.3734058705
 10
510.6576912703
 20
343.7127736812
 10
511.0268003628
 20
344.1219158336
 10
511.3446176771
 20
344.597341671
 10
511.608431708
 20
345.1349950278
 10
511.8159916873
 20
345.7302888352
 10
511.9655267863
 20
346.3781442564
 10
512.0557612244
 20
347.0730340172
 10
512.0859251531
 20
347.8090295633
 10
512.0557612244
 20
348.5798516402
 10
511.9655267863
 20
349.3789238656
 10
511.8159916873
 20
350.1994288372
 10
511.608431708
 20
351.0343662957
 10
511.3446176771
 20
351.8766128492
 10
511.0268003628
 20
352.7189827471
 10
510.6576912703
 20
353.5542891864
 10
510.2404395084
 20
354.3754056271
 10
509.778604922
 20
355.1753265932
 10
509.2761277208
 20
355.947227441
 10
508.7372948632
 20
356.6845225848
 10
508.1667034812
 20
357.3809216823
 10
507.5692216593
 20
358.030483302
 10
506.9499469016
 20
358.6276656131
 10
506.3141626421
 20
359.1673736668
 10
505.6672931679
 20
359.6450028641
 10
505.0148573412
 20
360.0564782413
  0
SPLINE
  5
146
330
1F
100
AcDbEntity
  8
0
  6
HIDDEN
 62
     7
370
    18
100
AcDbSpline
210
0.0
220
0.0
230
1.0
 70
     8
 71
     3
 72
    16
 73
    12
 74
     0
 42
0.00000001
 43
0.00000001
 40
0.0
 40
0.0
 40
0.0
 40
0.0
 40
0.0949264622958472
 40
0.1851041649649391
 40
0.2705369937666873
 40
0.351229538994236
 40
0.4271872695333206
 40
0.4984167642075384
 40
0.6738971358450424
 40
0.8410351049699483
 40
1.0
 40
1.0
 40
1.0
 40
1.0
 10
498.5341166427881
 20
358.8984853403885
 30
0.0
 10
498.5073800743328
 20
358.9016968839468
 30
0.0
 10
498.455244452102
 20
358.9079593114537
 30
0.0
 10
498.3736124819137
 20
358.9086037079985
 30
0.0
 10
498.2927360797801
 20
358.9036866146528
 30
0.0
 10
498.21281009255
 20
358.8936312704356
 30
0.0
 10
498.1344320734339
 20
358.879536006699
 30
0.0
 10
498.0190698915968
 20
358.8535588756405
 30
0.0
 10
497.8610083655601
 20
358.8071204837631
 30
0.0
 10
497.654547932903
 20
358.7309153296512
 30
0.0
 10
497.5077763222102
 20
358.6654375248181
 30
0.0
 10
497.4362297758539
 20
358.6335191532973
 30
0.0
  0
LWPOLYLINE
  5
147
330
1F
100
AcDbEntity
  8
0
  6
HIDDEN
 62
     7
370
    18
100
AcDbPolyline
 90
       13
 70
   128
 43
0.0
 10
505.0148573412
 20
360.0564782413
 10
504.3328074228
 20
360.4121436808
 10
503.6571180179
 20
360.6883451378
 10
502.9940903243
 20
360.8825068724
 10
502.3499074621
 20
360.9928182133
 10
501.7305768125
 20
361.0182504429
 10
501.141873995
 20
360.9585663907
 10
500.5892890069
 20
360.8143226454
 10
500.0779750256
 20
360.586864364
 10
499.6127003523
 20
360.2783127278
 10
499.1978039448
 20
359.8915451607
 10
498.8371549542
 20
359.4301684961
 10
498.5341166428
 20
358.8984853404
  0
LWPOLYLINE
  5
148
330
1F
100
AcDbEntity
  8
0
  6
HIDDEN
 62
     7
370
    18
100
AcDbPolyline
 90
       51
 70
   128
 43
0.0
 10
513.1465853248
 20
374.141044221
 10
512.1919938785
 20
374.6574761124
 10
511.2411697686
 20
375.1025858419
 10
510.2978654633
 20
375.4746167648
 10
509.3658037539
 20
375.7721006449
 10
508.448663062
 20
375.9938634493
 10
507.5500629231
 20
376.1390299816
 10
506.6735497012
 20
376.2070273356
 10
505.8225825937
 20
376.197587157
 10
505.000519979
 20
376.1107467018
 10
504.2106061626
 20
375.9468486897
 10
503.4559585735
 20
375.7065399511
 10
502.739555461
 20
375.3907688749
 10
502.0642241408
 20
375.0007816653
 10
501.4326298372
 20
374.5381174236
 10
500.8472651643
 20
374.0046020742
 10
500.310440289
 20
373.4023411585
 10
499.8242738139
 20
372.7337115251
 10
499.3906844159
 20
372.0013519498
 10
499.0113832744
 20
371.2081527212
 10
498.6878673176
 20
370.3572442342
 10
498.4214133152
 20
369.4519846359
 10
498.2130728395
 20
368.4959465725
 10
498.063668115
 20
367.4929030893
 10
497.9737887741
 20
366.4468127407
 10
497.9437895293
 20
365.3618039675
 10
497.9737887741
 20
364.2421588036
 10
498.063668115
 20
363.0922959768
 10
498.2130728395
 20
361.9167534705
 10
498.4214133152
 20
360.7201706139
 10
498.6878673176
 20
359.5072697728
 10
499.0113832744
 20
358.2828377128
 10
499.3906844159
 20
357.0517067078
 10
499.8242738139
 20
355.8187354694
 10
500.310440289
 20
354.5887899718
 10
500.8472651643
 20
353.366724248
 10
501.4326298372
 20
352.1573612331
 10
502.0642241408
 20
350.9654737304
 10
502.739555461
 20
349.7957655753
 10
503.4559585735
 20
348.6528530716
 10
504.2106061626
 20
347.5412467728
 10
505.000519979
 20
346.465333681
 10
505.8225825937
 20
345.4293599337
 10
506.6735497012
 20
344.437414046
 10
507.5500629231
 20
343.4934107752
 10
508.448663062
 20
342.6010756708
 10
509.3658037539
 20
341.7639303719
 10
510.2978654633
 20
340.9852787085
 10
511.2411697686
 20
340.268193663
 10
512.1919938785
 20
339.6155052425
 10
513.1465853248
 20
339.0297893099
  0
ARC
  5
149
330
1F
100
AcDbEntity
  8
0
  6
HIDDEN
 62
     7
370
    18
100
AcDbCircle
 10
513.4514682842
 20
356.8041438086
 30
0.0
 40
15.56351793542499
100
AcDbArc
 50
196.5679986996
 51
237.1749205993
  0
SPLINE
  5
14A
330
1F
100
AcDbEntity
  8
0
  6
HIDDEN
 62
     7
370
    18
100
AcDbSpline
210
0.0
220
0.0
230
1.0
 70
     8
 71
     3
 72
    20
 73
    16
 74
     0
 42
0.00000001
 43
0.00000001
 40
0.0
 40
0.0
 40
0.0
 40
0.0
 40
0.0528513951085048
 40
0.1040445197054425
 40
0.1536110532015075
 40
0.2015858973980008
 40
0.2480075443408446
 40
0.3772340916617243
 40
0.4983397403618428
 40
0.6245749637362384
 40
0.7490921948746928
 40
0.8112171898273165
 40
0.8735657358349364
 40
0.9364060181579309
 40
1.0
 40
1.0
 40
1.0
 40
1.0
 10
498.5341166427881
 20
352.3661588453025
 30
0.0
 10
498.6207752459351
 20
352.387380381396
 30
0.0
 10
498.7913734434711
 20
352.4291576046032
 30
0.0
 10
499.0390168793198
 20
352.5016556343152
 30
0.0
 10
499.2751965942398
 20
352.5798824508262
 30
0.0
 10
499.4995778434964
 20
352.6643221162041
 30
0.0
 10
499.8407201327947
 20
352.8091007487296
 30
0.0
 10
500.2728159826315
 20
353.0376291785065
 30
0.0
 10
500.7643272250382
 20
353.3996095314287
 30
0.0
 10
501.1717676150089
 20
353.8301797850226
 30
0.0
 10
501.4285564715266
 20
354.245882052264
 30
0.0
 10
501.5740307195965
 20
354.5973714654148
 30
0.0
 10
501.6526031034597
 20
354.8693820035224
 30
0.0
 10
501.7024017695916
 20
355.1483931420929
 30
0.0
 10
501.7085548348018
 20
355.3362827142296
 30
0.0
 10
501.711649707223
 20
355.4307875236472
 30
0.0
  0
SPLINE
  5
14B
330
1F
100
AcDbEntity
  8
0
  6
HIDDEN
 62
     7
370
    18
100
AcDbSpline
210
0.0
220
0.0
230
1.0
 70
     8
 71
     3
 72
    21
 73
    17
 74
     0
 42
0.00000001
 43
0.00000001
 40
0.0
 40
0.0
 40
0.0
 40
0.0
 40
0.036332681631463
 40
0.0723863315660809
 40
0.1082083397606744
 40
0.1438470202907817
 40
0.1793514356925195
 40
0.2147712064886958
 40
0.2501563093356265
 40
0.3743403217379342
 40
0.5002168065827743
 40
0.6210670716355301
 40
0.7499907977818763
 40
0.8288113439646725
 40
0.9120922248288025
 40
1.0
 40
1.0
 40
1.0
 40
1.0
 10
501.711649707223
 20
355.4307875236472
 30
0.0
 10
501.7106406742535
 20
355.484674276034
 30
0.0
 10
501.7086303575962
 20
355.5920339354408
 30
0.0
 10
501.6923556317511
 20
355.7517024282784
 30
0.0
 10
501.6665464884433
 20
355.909284630307
 30
0.0
 10
501.6304259333614
 20
356.0646220148444
 30
0.0
 10
501.5844211855352
 20
356.2176082416705
 30
0.0
 10
501.5286202466307
 20
356.368160475079
 30
0.0
 10
501.4086984656017
 20
356.6398607212704
 30
0.0
 10
501.1749366933071
 20
357.0224786007765
 30
0.0
 10
500.7695510112686
 20
357.4778076346586
 30
0.0
 10
500.2800605575962
 20
357.8945395160937
 30
0.0
 10
499.8023065131657
 20
358.2213344304454
 30
0.0
 10
499.3547739062886
 20
358.4853155181888
 30
0.0
 10
498.958062519715
 20
358.6976742747698
 30
0.0
 10
498.6779555164465
 20
358.8303529700347
 30
0.0
 10
498.5341166427881
 20
358.8984853403885
 30
0.0
  0
LINE
  5
14C
330
1F
100
AcDbEntity
  8
0
  6
HIDDEN
 62
     7
370
    18
100
AcDbLine
 10
524.4701071851
 20
358.2129659564
 30
0.0
 11
525.8108509475
 21
358.9869608554
 31
0.0
  0
SPLINE
  5
14D
330
1F
100
AcDbEntity
  8
0
  6
HIDDEN
 62
     7
370
    18
100
AcDbSpline
210
0.0
220
0.0
230
1.0
 70
     8
 71
     3
 72
    21
 73
    17
 74
     0
 42
0.00000001
 43
0.00000001
 40
0.0
 40
0.0
 40
0.0
 40
0.0
 40
0.0313399934193003
 40
0.062624165569441
 40
0.0939292235287482
 40
0.1253317213227984
 40
0.1876157809644316
 40
0.2500903882167149
 40
0.3750207771426178
 40
0.5000914489812796
 40
0.6245407573241483
 40
0.7496555537339771
 40
0.8120438496738798
 40
0.8741280025437641
 40
0.93709861073076
 40
1.0
 40
1.0
 40
1.0
 40
1.0
 10
522.6925268708598
 20
354.34029445791
 30
0.0
 10
522.6928652576603
 20
354.3810977105317
 30
0.0
 10
522.6935414285437
 20
354.4626315390096
 30
0.0
 10
522.6990552691929
 20
354.5895870664772
 30
0.0
 10
522.7078958624428
 20
354.7196177942251
 30
0.0
 10
522.7244667783024
 20
354.8964594341707
 30
0.0
 10
522.7538889773356
 20
355.1237404973697
 30
0.0
 10
522.8197783105845
 20
355.4962042963453
 30
0.0
 10
522.9374822028062
 20
355.9728355186832
 30
0.0
 10
523.1347596085603
 20
356.5342008032258
 30
0.0
 10
523.3883409319413
 20
357.0631573408486
 30
0.0
 10
523.6461787674873
 20
357.4576557619025
 30
0.0
 10
523.8779142721131
 20
357.7342105573594
 30
0.0
 10
524.0641816829735
 20
357.9195084458273
 30
0.0
 10
524.2611822993011
 20
358.083061961919
 30
0.0
 10
524.400491092531
 20
358.1696805024936
 30
0.0
 10
524.4701071851382
 20
358.2129659563573
 30
0.0
  0
SPLINE
  5
14E
330
1F
100
AcDbEntity
  8
0
  6
HIDDEN
 62
     7
370
    18
100
AcDbSpline
210
0.0
220
0.0
230
1.0
 70
     8
 71
     3
 72
    24
 73
    20
 74
     0
 42
0.00000001
 43
0.00000001
 40
0.0
 40
0.0
 40
0.0
 40
0.0
 40
0.0358680519647465
 40
0.0714958841654953
 40
0.1070079407968213
 40
0.1425298826013186
 40
0.1781872654176894
 40
0.2141042241966705
 40
0.2504022301823776
 40
0.3747725408214356
 40
0.5002453833811487
 40
0.5625581433586574
 40
0.6252483842866636
 40
0.6879479409315664
 40
0.7501238609389526
 40
0.8130964043974035
 40
0.8753295697128736
 40
0.9374279386313065
 40
1.0
 40
1.0
 40
1.0
 40
1.0
 10
524.4701071851382
 20
353.3137210850429
 30
0.0
 10
524.4302378602166
 20
353.2911970490219
 30
0.0
 10
524.3507662279364
 20
353.2462998276209
 30
0.0
 10
524.235023570984
 20
353.1874510983675
 30
0.0
 10
524.1225142866945
 20
353.1352923236787
 30
0.0
 10
524.0133871844226
 20
353.0904451511713
 30
0.0
 10
523.9075220614982
 20
353.0528270518164
 30
0.0
 10
523.8048362023399
 20
353.022570476085
 30
0.0
 10
523.6252210568532
 20
352.9814321479698
 30
0.0
 10
523.387849707324
 20
352.966680408039
 30
0.0
 10
523.177040854247
 20
353.0348469251037
 30
0.0
 10
523.0358705810992
 20
353.1384951480187
 30
0.0
 10
522.9444165062004
 20
353.2412992906919
 30
0.0
 10
522.8666045629706
 20
353.3679734261892
 30
0.0
 10
522.8030180964006
 20
353.5191131863411
 30
0.0
 10
522.7533647692702
 20
353.6926883631093
 30
0.0
 10
522.7181113498225
 20
353.8884079848231
 30
0.0
 10
522.6964208361435
 20
354.1030267841081
 30
0.0
 10
522.6938281429831
 20
354.2610051506879
 30
0.0
 10
522.6925268708598
 20
354.34029445791
 30
0.0
  0
LINE
  5
14F
330
1F
100
AcDbEntity
  8
0
  6
HIDDEN
 62
     7
370
    18
100
AcDbLine
 10
527.2697556361
 20
354.9299237339
 30
0.0
 11
524.4701071851
 21
353.313721085
 31
0.0
  0
ARC
  5
150
330
1F
100
AcDbEntity
  8
0
  6
HIDDEN
 62
     7
370
    18
100
AcDbCircle
 10
543.1411752828
 20
368.3097323715
 30
0.0
 40
4.675258921754747
100
AcDbArc
 50
233.6518729526
 51
295.0376686183
  0
LWPOLYLINE
  5
151
330
1F
100
AcDbEntity
  8
0
  6
HIDDEN
 62
     7
370
    18
100
AcDbPolyline
 90
       34
 70
   128
 43
0.0
 10
513.1465853248
 20
348.8282790525
 10
513.7851256666
 20
348.4947824797
 10
514.4178832881
 20
348.2345559439
 10
515.0391278384
 20
348.0499560969
 10
515.6432332306
 20
347.9426547034
 10
516.2247285928
 20
347.9136235015
 10
516.7783478128
 20
347.9631254022
 10
517.2990772294
 20
348.0907121088
 10
517.7822010363
 20
348.2952281761
 10
518.2233439894
 20
348.5748214751
 10
518.61851103
 20
348.9269599655
 10
518.964123464
 20
349.3484546267
 10
519.2570513717
 20
349.8354883376
 10
519.4946419527
 20
350.3836504456
 10
519.6747435498
 20
350.9879767098
 10
519.7957251352
 20
351.6429942579
 10
519.8564910807
 20
352.3427711496
 10
519.8564910807
 20
353.080970097
 10
519.7957251352
 20
353.8509058561
 10
519.6747435498
 20
354.6456057694
 10
519.4946419527
 20
355.4578729115
 10
519.2570513717
 20
356.2803512653
 10
518.964123464
 20
357.1055923396
 10
518.61851103
 20
357.9261226233
 10
518.2233439894
 20
358.7345112671
 10
517.7822010363
 20
359.5234373784
 10
517.2990772294
 20
360.28575632
 10
516.7783478128
 20
361.0145644135
 10
516.2247285928
 20
361.7032614602
 10
515.6432332306
 20
362.3456105127
 10
515.0391278384
 20
362.9357943587
 10
514.4178832881
 20
363.4684682018
 10
513.7851256666
 20
363.9388080652
 10
513.1465853248
 20
364.3425544783
  0
LINE
  5
152
330
1F
100
AcDbEntity
  8
0
  6
HIDDEN
 62
     7
370
    18
100
AcDbLine
 10
489.9534829019
 20
358.95353109
 30
0.0
 11
492.7722166541
 21
357.3263107312
 31
0.0
  0
SPLINE
  5
153
330
1F
100
AcDbEntity
  8
0
  6
HIDDEN
 62
     7
370
    18
100
AcDbSpline
210
0.0
220
0.0
230
1.0
 70
     8
 71
     3
 72
    15
 73
    11
 74
     0
 42
0.00000001
 43
0.00000001
 40
0.0
 40
0.0
 40
0.0
 40
0.0
 40
0.0938619119213239
 40
0.1905981821452872
 40
0.2902481459593816
 40
0.3928477841625093
 40
0.4984300586615077
 40
0.6464827049572042
 40
0.8136594873948865
 40
1.0
 40
1.0
 40
1.0
 40
1.0
 10
497.4362297758539
 20
350.6330857801853
 30
0.0
 10
497.4787999655262
 20
350.6766101644318
 30
0.0
 10
497.5652439831156
 20
350.7649917917242
 30
0.0
 10
497.6903469861898
 20
350.9096746521136
 30
0.0
 10
497.8141248032475
 20
351.0659520374259
 30
0.0
 10
497.9356153862897
 20
351.2348413755971
 30
0.0
 10
498.0693359972847
 20
351.4388508697761
 30
0.0
 10
498.2167705852345
 20
351.6917034722417
 30
0.0
 10
498.3796276762878
 20
352.0072012451561
 30
0.0
 10
498.4807923177498
 20
352.2422589178267
 30
0.0
 10
498.5341166427881
 20
352.3661588453025
 30
0.0
  0
LWPOLYLINE
  5
154
330
1F
100
AcDbEntity
  8
0
  6
HIDDEN
 62
     7
370
    18
100
AcDbPolyline
 90
       26
 70
   128
 43
0.0
 10
535.6205824205
 20
380.5287371106
 10
535.2934377359
 20
380.3118682083
 10
534.8982706954
 20
379.9597297179
 10
534.5526582614
 20
379.5382350568
 10
534.2597303537
 20
379.0512013458
 10
534.0221397727
 20
378.5030392378
 10
533.8420381756
 20
377.8987129736
 10
533.7210565902
 20
377.2436954255
 10
533.6602906446
 20
376.5439185338
 10
533.6602906446
 20
375.8057195865
 10
533.7210565902
 20
375.0357838274
 10
533.8420381756
 20
374.241083914
 10
534.0221397727
 20
373.4288167719
 10
534.2597303537
 20
372.6063384181
 10
534.5526582614
 20
371.7810973438
 10
534.8982706954
 20
370.9605670601
 10
535.2934377359
 20
370.1521784163
 10
535.7345806891
 20
369.3632523051
 10
536.2177044959
 20
368.6009333635
 10
536.7384339125
 20
367.8721252699
 10
537.2920531326
 20
367.1834282233
 10
537.8735484948
 20
366.5410791707
 10
538.477653887
 20
365.9508953248
 10
539.0988984373
 20
365.4182214817
 10
539.7316560588
 20
364.9478816182
 10
540.3701964005
 20
364.5441352051
  0
LWPOLYLINE
  5
155
330
1F
100
AcDbEntity
  8
0
  6
HIDDEN
 62
     7
370
    18
100
AcDbPolyline
 90
       34
 70
   128
 43
0.0
 10
513.1465853248
 20
364.3425544783
 10
512.5080449831
 20
364.6760510511
 10
511.8752873616
 20
364.9362775869
 10
511.2540428113
 20
365.120877434
 10
510.6499374191
 20
365.2281788275
 10
510.0684420569
 20
365.2572100294
 10
509.5148228369
 20
365.2077081286
 10
508.9940934203
 20
365.0801214221
 10
508.5109696134
 20
364.8756053547
 10
508.0698266602
 20
364.5960120557
 10
507.6746596197
 20
364.2438735653
 10
507.3290471857
 20
363.8223789042
 10
507.036119278
 20
363.3353451932
 10
506.798528697
 20
362.7871830852
 10
506.6184270999
 20
362.182856821
 10
506.4974455145
 20
361.5278392729
 10
506.4366795689
 20
360.8280623812
 10
506.4366795689
 20
360.0898634339
 10
506.4974455145
 20
359.3199276748
 10
506.6184270999
 20
358.5252277615
 10
506.798528697
 20
357.7129606194
 10
507.036119278
 20
356.8904822655
 10
507.3290471857
 20
356.0652411913
 10
507.6746596197
 20
355.2447109076
 10
508.0698266602
 20
354.4363222637
 10
508.5109696134
 20
353.6473961525
 10
508.9940934203
 20
352.8850772109
 10
509.5148228369
 20
352.1562691173
 10
510.0684420569
 20
351.4675720707
 10
510.6499374191
 20
350.8252230182
 10
511.2540428113
 20
350.2350391722
 10
511.8752873616
 20
349.7023653291
 10
512.5080449831
 20
349.2320254656
 10
513.1465853248
 20
348.8282790525
  0
ARC
  5
156
330
1F
100
AcDbEntity
  8
0
  6
HIDDEN
 62
     7
370
    18
100
AcDbCircle
 10
521.5173660465
 20
355.5704653039
 30
0.0
 40
1.314790138971771
100
AcDbArc
 50
171.3146750033
 51
308.674573242
  0
LINE
  5
157
330
1F
100
AcDbEntity
  8
0
  6
HIDDEN
 62
     7
370
    18
100
AcDbLine
 10
544.9663904782
 20
372.5057730462
 30
0.0
 11
544.9663904782
 21
370.0452184449
 31
0.0
  0
LINE
  5
158
330
1F
100
AcDbEntity
  8
0
  6
HIDDEN
 62
     7
370
    18
100
AcDbLine
 10
522.3389734803
 20
354.5439983857
 30
0.0
 11
526.5973585639
 21
357.0023117678
 31
0.0
  0
LINE
  5
159
330
1F
100
AcDbEntity
  8
0
  6
HIDDEN
 62
     7
370
    18
100
AcDbLine
 10
544.9663904782
 20
372.5057730462
 30
0.0
 11
522.3389734803
 21
359.443243257
 31
0.0
  0
ARC
  5
15A
330
1F
100
AcDbEntity
  8
0
  6
HIDDEN
 62
     7
370
    18
100
AcDbCircle
 10
524.8038362364
 20
355.5706643379
 30
0.0
 40
4.590470116602719
100
AcDbArc
 50
122.4763978922
 51
177.5236019622
  0
LINE
  5
15B
330
1F
100
AcDbEntity
  8
0
  6
HIDDEN
 62
     7
370
    18
100
AcDbLine
 10
546.7237497911
 20
371.4912711091
 30
0.0
 11
544.9663904782
 21
372.5057730462
 31
0.0
  0
LWPOLYLINE
  5
15C
330
1F
100
AcDbEntity
  8
0
  6
HIDDEN
 62
     7
370
    18
100
AcDbPolyline
 90
       33
 70
   128
 43
0.0
 10
540.7237497911
 20
379.8542422529
 10
540.0999725297
 20
380.1789543963
 10
539.4822025843
 20
380.4297657747
 10
538.8763894173
 20
380.6042609376
 10
538.2883673405
 20
380.700759401
 10
537.723799328
 20
380.7183318321
 10
537.1881224784
 20
380.6568089987
 10
536.6864956526
 20
380.5167833994
 10
536.2237497911
 20
380.2996035572
 10
535.8043413896
 20
380.0073610326
 10
535.4323095802
 20
379.6428702811
 10
535.1112372327
 20
379.2096415478
 10
534.8442164492
 20
378.7118470621
 10
534.6338187858
 20
378.1542808572
 10
534.4820704872
 20
377.5423126003
 10
534.3904329722
 20
376.8818358803
 10
534.3597887604
 20
376.1792114492
 10
534.3904329722
 20
375.4412059642
 10
534.4820704872
 20
374.6749268215
 10
534.6338187858
 20
373.8877537084
 10
534.8442164492
 20
373.087267532
 10
535.1112372327
 20
372.281177412
 10
535.4323095802
 20
371.4772464368
 10
535.8043413896
 20
370.6832169011
 10
536.2237497911
 20
369.9067357436
 10
536.6864956526
 20
369.155280902
 10
537.1881224784
 20
368.4360892975
 10
537.723799328
 20
367.7560871383
 10
538.2883673405
 20
367.1218232169
 10
538.8763894173
 20
366.5394058416
 10
539.4822025843
 20
366.0144440101
 10
540.0999725297
 20
365.5519933918
 10
540.7237497911
 20
365.156507639
  0
LWPOLYLINE
  5
15D
330
1F
100
AcDbEntity
  8
0
  6
HIDDEN
 62
     7
370
    18
100
AcDbPolyline
 90
       13
 70
   128
 43
0.0
 10
540.7237497911
 20
365.156507639
 10
541.3754203169
 20
364.8189371256
 10
542.0202395552
 20
364.5621773804
 10
542.6514282488
 20
364.3889278273
 10
543.2623504443
 20
364.301009912
 10
543.8465832586
 20
364.2993479526
 10
544.3979844053
 20
364.383959422
 10
544.9107567711
 20
364.5539547642
 10
545.3795093635
 20
364.8075467462
 10
545.7993139885
 20
365.1420692484
 10
546.1657570626
 20
365.5540052944
 10
546.474986015
 20
366.0390240265
 10
546.7237497911
 20
366.5920262378
  0
LINE
  5
15E
330
1F
100
AcDbEntity
  8
0
  6
HIDDEN
 62
     7
370
    18
100
AcDbLine
 10
476.7305860937
 20
324.9496024323
 30
0.0
 11
476.7305860937
 21
325.7660105441
 31
0.0
  0
LINE
  5
15F
330
1F
100
AcDbEntity
  8
0
  6
HIDDEN
 62
     7
370
    18
100
AcDbLine
 10
474.2448171153
 20
320.2718728665
 30
0.0
 11
509.6001561746
 21
340.6820756621
 31
0.0
  0
LINE
  5
160
330
1F
100
AcDbEntity
  8
0
  6
HIDDEN
 62
     7
370
    18
100
AcDbLine
 10
497.601131383
 20
361.4672483592
 30
0.0
 11
462.2457923237
 21
341.0570455636
 31
0.0
  0
LINE
  5
161
330
1F
100
AcDbEntity
  8
0
  6
HIDDEN
 62
     7
370
    18
100
AcDbLine
 10
483.5598458157
 20
326.6646081307
 30
0.0
 11
487.2872085297
 21
317.0577181748
 31
0.0
  0
LINE
  5
162
330
1F
100
AcDbEntity
  8
0
  6
HIDDEN
 62
     7
370
    18
100
AcDbLine
 10
491.9486478953
 20
318.8663040977
 30
0.0
 11
488.2212858465
 21
328.4731923392
 31
0.0
  0
LINE
  5
163
330
1F
100
AcDbEntity
  8
0
  6
HIDDEN
 62
     7
370
    18
100
AcDbLine
 10
472.1114982257
 20
346.8309804888
 30
0.0
 11
467.0695198355
 21
349.741652658
 31
0.0
  0
LINE
  5
164
330
1F
100
AcDbEntity
  8
0
  6
HIDDEN
 62
     7
370
    18
100
AcDbLine
 10
508.600237442
 20
342.4141733868
 30
0.0
 11
510.0144510044
 21
343.2305814986
 31
0.0
  0
LINE
  5
165
330
1F
100
AcDbEntity
  8
0
  6
HIDDEN
 62
     7
370
    18
100
AcDbLine
 10
464.5697213808
 20
345.4114092831
 30
0.0
 11
469.6117013941
 21
342.5007361769
 31
0.0
  0
LINE
  5
166
330
1F
100
AcDbEntity
  8
0
  6
HIDDEN
 62
     7
370
    18
100
AcDbLine
 10
500.015263678
 20
360.5515587462
 30
0.0
 11
498.6010501156
 21
359.7351506344
 31
0.0
  0
LINE
  5
167
330
1F
100
AcDbEntity
  8
0
  6
HIDDEN
 62
     7
370
    18
100
AcDbLine
 10
517.8961993049
 20
348.3579525728
 30
0.0
 11
527.5406337162
 21
353.9255660485
 31
0.0
  0
LINE
  5
168
330
1F
100
AcDbEntity
  8
0
  6
HIDDEN
 62
     7
370
    18
100
AcDbLine
 10
499.4512753582
 20
358.4269796065
 30
0.0
 11
489.6811125573
 21
364.0671745365
 31
0.0
  0
LINE
  5
169
330
1F
100
AcDbEntity
  8
0
  6
HIDDEN
 62
     7
370
    18
100
AcDbLine
 10
484.681515158
 20
355.4066880695
 30
0.0
 11
489.5750064139
 21
352.5817356982
 31
0.0
  0
LINE
  5
16A
330
1F
100
AcDbEntity
  8
0
  6
HIDDEN
 62
     7
370
    18
100
AcDbLine
 10
518.0414057562
 20
370.3804944337
 30
0.0
 11
508.3969713448
 21
364.812880958
 31
0.0
  0
LINE
  5
16B
330
1F
100
AcDbEntity
  8
0
  6
HIDDEN
 62
     7
370
    18
100
AcDbLine
 10
520.8390953813
 20
354.3954742342
 30
0.0
 11
523.1443309595
 21
353.0646900614
 31
0.0
  0
ENDSEC
  0
SECTION
  2
OBJECTS
  0
DICTIONARY
  5
C
330
0
100
AcDbDictionary
281
     1
  3
ACAD_GROUP
350
D
  3
ACAD_LAYOUT
350
1A
  3
ACAD_MLINESTYLE
350
17
  3
ACAD_PLOTSETTINGS
350
19
  3
ACAD_PLOTSTYLENAME
350
E
  3
ACAD_SCALELIST
350
47
  3
DWGPROPS
350
16C
  0
DICTIONARY
  5
D
102
{ACAD_REACTORS
330
C
102
}
330
C
100
AcDbDictionary
281
     1
  0
DICTIONARY
  5
1A
102
{ACAD_REACTORS
330
C
102
}
330
C
100
AcDbDictionary
281
     1
  3
Layout1
350
1E
  3
Layout2
350
26
  3
Model
350
22
  0
DICTIONARY
  5
17
102
{ACAD_REACTORS
330
C
102
}
330
C
100
AcDbDictionary
281
     1
  3
Standard
350
18
  0
DICTIONARY
  5
19
102
{ACAD_REACTORS
330
C
102
}
330
C
100
AcDbDictionary
281
     1
  0
ACDBDICTIONARYWDFLT
  5
E
102
{ACAD_REACTORS
330
C
102
}
330
C
100
AcDbDictionary
281
     1
  3
Normal
350
F
100
AcDbDictionaryWithDefault
340
F
  0
DICTIONARY
  5
47
102
{ACAD_REACTORS
330
C
102
}
330
C
100
AcDbDictionary
281
     1
  3
A0
350
48
  3
A1
350
49
  3
A2
350
4A
  3
A3
350
4B
  3
A4
350
4C
  3
A5
350
4D
  3
A6
350
4E
  3
A7
350
4F
  3
A8
350
50
  3
A9
350
51
  3
B0
350
52
  3
B1
350
53
  3
B2
350
54
  3
B3
350
55
  3
B4
350
56
  3
B5
350
57
  3
B6
350
58
  0
XRECORD
  5
16C
102
{ACAD_REACTORS
330
C
102
}
330
C
100
AcDbXrecord
280
     1
  1
DWGPROPS COOKIE
  2

  3

  4

  6

  7

  8
imaizumi
  9

300
=
301
=
302
=
303
=
304
=
305
=
306
=
307
=
308
=
309
=
 40
0.0
 41
2461263.064794618
 42
2461263.064795267
  1

 90
        0
  0
LAYOUT
  5
1E
102
{ACAD_REACTORS
330
1A
102
}
330
1A
100
AcDbPlotSettings
  1

  2
none_device
  4

  6

 40
0.0
 41
0.0
 42
0.0
 43
0.0
 44
0.0
 45
0.0
 46
0.0
 47
0.0
 48
0.0
 49
0.0
140
0.0
141
0.0
142
1.0
143
1.0
 70
   688
 72
     1
 73
     0
 74
     5
  7

 75
    16
147
1.0
148
0.0
149
0.0
100
AcDbLayout
  1
Layout1
 70
     1
 71
     1
 10
0.0
 20
0.0
 11
420.0
 21
297.0
 12
0.0
 22
0.0
 32
0.0
 14
1.0000000000E+20
 24
1.0000000000E+20
 34
1.0000000000E+20
 15
-1.0000000000E+20
 25
-1.0000000000E+20
 35
-1.0000000000E+20
146
0.0
 13
0.0
 23
0.0
 33
0.0
 16
1.0
 26
0.0
 36
0.0
 17
0.0
 27
1.0
 37
0.0
 76
     0
330
1B
  0
LAYOUT
  5
26
102
{ACAD_REACTORS
330
1A
102
}
330
1A
100
AcDbPlotSettings
  1

  2
none_device
  4

  6

 40
0.0
 41
0.0
 42
0.0
 43
0.0
 44
0.0
 45
0.0
 46
0.0
 47
0.0
 48
0.0
 49
0.0
140
0.0
141
0.0
142
1.0
143
1.0
 70
   688
 72
     1
 73
     0
 74
     5
  7

 75
    16
147
1.0
148
0.0
149
0.0
100
AcDbLayout
  1
Layout2
 70
     1
 71
     2
 10
0.0
 20
0.0
 11
0.0
 21
0.0
 12
0.0
 22
0.0
 32
0.0
 14
0.0
 24
0.0
 34
0.0
 15
0.0
 25
0.0
 35
0.0
146
0.0
 13
0.0
 23
0.0
 33
0.0
 16
1.0
 26
0.0
 36
0.0
 17
0.0
 27
1.0
 37
0.0
 76
     0
330
23
  0
LAYOUT
  5
22
102
{ACAD_REACTORS
330
1A
102
}
330
1A
100
AcDbPlotSettings
  1

  2
none_device
  4
Letter_(8.50_x_11.00_Inches)
  6

 40
6.35
 41
6.35
 42
6.35000508
 43
6.35000508
 44
215.9
 45
279.4
 46
0.0
 47
0.0
 48
0.0
 49
0.0
140
0.0
141
0.0
142
1.0
143
1.0
 70
  1712
 72
     1
 73
     0
 74
     0
  7

 75
     0
147
1.0
148
0.0
149
0.0
100
AcDbLayout
  1
Model
 70
     1
 71
     0
 10
0.0
 20
0.0
 11
841.0
 21
594.0
 12
0.0
 22
0.0
 32
0.0
 14
0.0
 24
0.0
 34
0.0
 15
841.0
 25
594.0
 35
0.0
146
0.0
 13
0.0
 23
0.0
 33
0.0
 16
1.0
 26
0.0
 36
0.0
 17
0.0
 27
1.0
 37
0.0
 76
     0
330
1F
331
29
  0
MLINESTYLE
  5
18
102
{ACAD_REACTORS
330
17
102
}
330
17
100
AcDbMlineStyle
  2
Standard
 70
     0
  3

 62
   256
 51
90.0
 52
90.0
 71
     2
 49
0.5
 62
   256
  6
BYLAYER
 49
-0.5
 62
   256
  6
BYLAYER
  0
ACDBPLACEHOLDER
  5
F
102
{ACAD_REACTORS
330
E
102
}
330
E
  0
SCALE
  5
48
102
{ACAD_REACTORS
330
47
102
}
330
47
100
AcDbScale
 70
     0
300
1:1
140
1.0
141
1.0
290
     1
  0
SCALE
  5
49
102
{ACAD_REACTORS
330
47
102
}
330
47
100
AcDbScale
 70
     0
300
1:2
140
1.0
141
2.0
290
     0
  0
SCALE
  5
4A
102
{ACAD_REACTORS
330
47
102
}
330
47
100
AcDbScale
 70
     0
300
1:4
140
1.0
141
4.0
290
     0
  0
SCALE
  5
4B
102
{ACAD_REACTORS
330
47
102
}
330
47
100
AcDbScale
 70
     0
300
1:5
140
1.0
141
5.0
290
     0
  0
SCALE
  5
4C
102
{ACAD_REACTORS
330
47
102
}
330
47
100
AcDbScale
 70
     0
300
1:8
140
1.0
141
8.0
290
     0
  0
SCALE
  5
4D
102
{ACAD_REACTORS
330
47
102
}
330
47
100
AcDbScale
 70
     0
300
1:10
140
1.0
141
10.0
290
     0
  0
SCALE
  5
4E
102
{ACAD_REACTORS
330
47
102
}
330
47
100
AcDbScale
 70
     0
300
1:16
140
1.0
141
16.0
290
     0
  0
SCALE
  5
4F
102
{ACAD_REACTORS
330
47
102
}
330
47
100
AcDbScale
 70
     0
300
1:20
140
1.0
141
20.0
290
     0
  0
SCALE
  5
50
102
{ACAD_REACTORS
330
47
102
}
330
47
100
AcDbScale
 70
     0
300
1:30
140
1.0
141
30.0
290
     0
  0
SCALE
  5
51
102
{ACAD_REACTORS
330
47
102
}
330
47
100
AcDbScale
 70
     0
300
1:40
140
1.0
141
40.0
290
     0
  0
SCALE
  5
52
102
{ACAD_REACTORS
330
47
102
}
330
47
100
AcDbScale
 70
     0
300
1:50
140
1.0
141
50.0
290
     0
  0
SCALE
  5
53
102
{ACAD_REACTORS
330
47
102
}
330
47
100
AcDbScale
 70
     0
300
1:100
140
1.0
141
100.0
290
     0
  0
SCALE
  5
54
102
{ACAD_REACTORS
330
47
102
}
330
47
100
AcDbScale
 70
     0
300
2:1
140
2.0
141
1.0
290
     0
  0
SCALE
  5
55
102
{ACAD_REACTORS
330
47
102
}
330
47
100
AcDbScale
 70
     0
300
4:1
140
4.0
141
1.0
290
     0
  0
SCALE
  5
56
102
{ACAD_REACTORS
330
47
102
}
330
47
100
AcDbScale
 70
     0
300
8:1
140
8.0
141
1.0
290
     0
  0
SCALE
  5
57
102
{ACAD_REACTORS
330
47
102
}
330
47
100
AcDbScale
 70
     0
300
10:1
140
10.0
141
1.0
290
     0
  0
SCALE
  5
58
102
{ACAD_REACTORS
330
47
102
}
330
47
100
AcDbScale
 70
     0
300
100:1
140
100.0
141
1.0
290
     0
  0
ENDSEC
  0
EOF
