  0
SECTION
  2
HEADER
  9
$ACADVER
  1
AC1015
  9
$ACADMAINTVER
 70
     6
  9
$DWGCODEPAGE
  3
DOS932
  9
$INSBASE
 10
0.0
 20
0.0
 30
0.0
  9
$EXTMIN
 10
0.0
 20
0.0
 30
0.0
  9
$EXTMAX
 10
841.0
 20
594.0
 30
0.0
  9
$LIMMIN
 10
0.0
 20
0.0
  9
$LIMMAX
 10
841.0
 20
594.0
  9
$ORTHOMODE
 70
     0
  9
$REGENMODE
 70
     1
  9
$FILLMODE
 70
     1
  9
$QTEXTMODE
 70
     0
  9
$MIRRTEXT
 70
     1
  9
$LTSCALE
 40
1.0
  9
$ATTMODE
 70
     1
  9
$TEXTSIZE
 40
3.5
  9
$TRACEWID
 40
1.0
  9
$TEXTSTYLE
  7
Standard
  9
$CLAYER
  8
0
  9
$CELTYPE
  6
ByLayer
  9
$CECOLOR
 62
   256
  9
$CELTSCALE
 40
1.0
  9
$DISPSILH
 70
     0
  9
$DIMSCALE
 40
1.0
  9
$DIMASZ
 40
3.302
  9
$DIMEXO
 40
1.0
  9
$DIMDLI
 40
3.75
  9
$DIMRND
 40
0.0
  9
$DIMDLE
 40
0.0
  9
$DIMEXE
 40
1.0
  9
$DIMTP
 40
0.0
  9
$DIMTM
 40
0.0
  9
$DIMTXT
 40
3.5
  9
$DIMCEN
 40
2.5
  9
$DIMTSZ
 40
0.0
  9
$DIMTOL
 70
     0
  9
$DIMLIM
 70
     0
  9
$DIMTIH
 70
     1
  9
$DIMTOH
 70
     1
  9
$DIMSE1
 70
     0
  9
$DIMSE2
 70
     0
  9
$DIMTAD
 70
     1
  9
$DIMZIN
 70
     1
  9
$DIMBLK
  1

  9
$DIMASO
 70
     1
  9
$DIMSHO
 70
     1
  9
$DIMPOST
  1

  9
$DIMAPOST
  1

  9
$DIMALT
 70
     0
  9
$DIMALTD
 70
     3
  9
$DIMALTF
 40
0.0393700787
  9
$DIMLFAC
 40
0.5
  9
$DIMTOFL
 70
     1
  9
$DIMTVP
 40
0.0
  9
$DIMTIX
 70
     0
  9
$DIMSOXD
 70
     0
  9
$DIMSAH
 70
     0
  9
$DIMBLK1
  1

  9
$DIMBLK2
  1

  9
$DIMSTYLE
  2
ISO-25
  9
$DIMCLRD
 70
     0
  9
$DIMCLRE
 70
     0
  9
$DIMCLRT
 70
     0
  9
$DIMTFAC
 40
1.0
  9
$DIMGAP
 40
1.524
  9
$DIMJUST
 70
     0
  9
$DIMSD1
 70
     0
  9
$DIMSD2
 70
     0
  9
$DIMTOLJ
 70
     0
  9
$DIMTZIN
 70
     1
  9
$DIMALTZ
 70
     0
  9
$DIMALTTZ
 70
     0
  9
$DIMUPT
 70
     0
  9
$DIMDEC
 70
     2
  9
$DIMTDEC
 70
     2
  9
$DIMALTU
 70
     2
  9
$DIMALTTD
 70
     3
  9
$DIMTXSTY
  7
Standard
  9
$DIMAUNIT
 70
     0
  9
$DIMADEC
 70
     2
  9
$DIMALTRND
 40
0.0
  9
$DIMAZIN
 70
     0
  9
$DIMDSEP
 70
    44
  9
$DIMATFIT
 70
     3
  9
$DIMFRAC
 70
     0
  9
$DIMLDRBLK
  1

  9
$DIMLUNIT
 70
     2
  9
$DIMLWD
 70
    -2
  9
$DIMLWE
 70
    -2
  9
$DIMTMOVE
 70
     0
  9
$LUNITS
 70
     2
  9
$LUPREC
 70
     2
  9
$SKETCHINC
 40
1.0
  9
$FILLETRAD
 40
0.0
  9
$AUNITS
 70
     0
  9
$AUPREC
 70
     2
  9
$MENU
  1
.
  9
$ELEVATION
 40
0.0
  9
$PELEVATION
 40
0.0
  9
$THICKNESS
 40
0.0
  9
$LIMCHECK
 70
     0
  9
$CHAMFERA
 40
0.0
  9
$CHAMFERB
 40
0.0
  9
$CHAMFERC
 40
0.0
  9
$CHAMFERD
 40
0.0
  9
$SKPOLY
 70
     0
  9
$TDCREATE
 40
2461263.415269375
  9
$TDUCREATE
 40
2461263.040269375
  9
$TDUPDATE
 40
2461263.415269734
  9
$TDUUPDATE
 40
2461263.040269734
  9
$TDINDWG
 40
0.0000000116
  9
$TDUSRTIMER
 40
0.0000000116
  9
$USRTIMER
 70
     1
  9
$ANGBASE
 50
0.0
  9
$ANGDIR
 70
     0
  9
$PDMODE
 70
     0
  9
$PDSIZE
 40
-1.0
  9
$PLINEWID
 40
0.0
  9
$SPLFRAME
 70
     0
  9
$SPLINETYPE
 70
     6
  9
$SPLINESEGS
 70
     8
  9
$HANDSEED
  5
D4
  9
$SURFTAB1
 70
     6
  9
$SURFTAB2
 70
     6
  9
$SURFTYPE
 70
     6
  9
$SURFU
 70
     6
  9
$SURFV
 70
     6
  9
$UCSBASE
  2

  9
$UCSNAME
  2

  9
$UCSORG
 10
0.0
 20
0.0
 30
0.0
  9
$UCSXDIR
 10
1.0
 20
0.0
 30
0.0
  9
$UCSYDIR
 10
0.0
 20
1.0
 30
0.0
  9
$UCSORTHOREF
  2

  9
$UCSORTHOVIEW
 70
     0
  9
$UCSORGTOP
 10
0.0
 20
0.0
 30
0.0
  9
$UCSORGBOTTOM
 10
0.0
 20
0.0
 30
0.0
  9
$UCSORGLEFT
 10
0.0
 20
0.0
 30
0.0
  9
$UCSORGRIGHT
 10
0.0
 20
0.0
 30
0.0
  9
$UCSORGFRONT
 10
0.0
 20
0.0
 30
0.0
  9
$UCSORGBACK
 10
0.0
 20
0.0
 30
0.0
  9
$PUCSBASE
  2

  9
$PUCSNAME
  2

  9
$PUCSORG
 10
0.0
 20
0.0
 30
0.0
  9
$PUCSXDIR
 10
1.0
 20
0.0
 30
0.0
  9
$PUCSYDIR
 10
0.0
 20
1.0
 30
0.0
  9
$PUCSORTHOREF
  2

  9
$PUCSORTHOVIEW
 70
     0
  9
$PUCSORGTOP
 10
0.0
 20
0.0
 30
0.0
  9
$PUCSORGBOTTOM
 10
0.0
 20
0.0
 30
0.0
  9
$PUCSORGLEFT
 10
0.0
 20
0.0
 30
0.0
  9
$PUCSORGRIGHT
 10
0.0
 20
0.0
 30
0.0
  9
$PUCSORGFRONT
 10
0.0
 20
0.0
 30
0.0
  9
$PUCSORGBACK
 10
0.0
 20
0.0
 30
0.0
  9
$USERI1
 70
     0
  9
$USERI2
 70
     0
  9
$USERI3
 70
     0
  9
$USERI4
 70
     0
  9
$USERI5
 70
     0
  9
$USERR1
 40
0.0
  9
$USERR2
 40
0.0
  9
$USERR3
 40
0.0
  9
$USERR4
 40
0.0
  9
$USERR5
 40
0.0
  9
$WORLDVIEW
 70
     1
  9
$SHADEDGE
 70
     3
  9
$SHADEDIF
 70
    70
  9
$TILEMODE
 70
     1
  9
$MAXACTVP
 70
    64
  9
$PINSBASE
 10
0.0
 20
0.0
 30
0.0
  9
$PLIMCHECK
 70
     0
  9
$PEXTMIN
 10
1.0000000000E+20
 20
1.0000000000E+20
 30
1.0000000000E+20
  9
$PEXTMAX
 10
-1.0000000000E+20
 20
-1.0000000000E+20
 30
-1.0000000000E+20
  9
$PLIMMIN
 10
0.0
 20
0.0
  9
$PLIMMAX
 10
420.0
 20
297.0
  9
$UNITMODE
 70
     0
  9
$VISRETAIN
 70
     1
  9
$PLINEGEN
 70
     0
  9
$PSLTSCALE
 70
     1
  9
$TREEDEPTH
 70
  3020
  9
$CMLSTYLE
  2
Standard
  9
$CMLJUST
 70
     0
  9
$CMLSCALE
 40
20.0
  9
$PROXYGRAPHICS
 70
     1
  9
$MEASUREMENT
 70
     1
  9
$CELWEIGHT
370
    -1
  9
$ENDCAPS
280
     0
  9
$JOINSTYLE
280
     0
  9
$LWDISPLAY
290
     1
  9
$INSUNITS
 70
     4
  9
$HYPERLINKBASE
  1

  9
$STYLESHEET
  1

  9
$XEDIT
290
     1
  9
$CEPSNTYPE
380
     0
  9
$PSTYLEMODE
290
     1
  9
$FINGERPRINTGUID
  2
{2dd3aa3d-d4b6-4438-ac73-7bc151f09b05}
  9
$VERSIONGUID
  2
{FAEB1C32-E019-11D5-929B-00C0DF256EC4}
  9
$EXTNAMES
290
     1
  9
$PSVPSCALE
 40
0.0
  9
$OLESTARTUP
290
     0
  0
ENDSEC
  0
SECTION
  2
CLASSES
  0
CLASS
  1
ACDBDICTIONARYWDFLT
  2
AcDbDictionaryWithDefault
  3
ObjectDBX Classes
 90
        0
280
     0
281
     0
  0
CLASS
  1
VISUALSTYLE
  2
AcDbVisualStyle
  3
ObjectDBX Classes
 90
     4095
280
     0
281
     0
  0
CLASS
  1
MATERIAL
  2
AcDbMaterial
  3
ObjectDBX Classes
 90
     1153
280
     0
281
     0
  0
CLASS
  1
SCALE
  2
AcDbScale
  3
ObjectDBX Classes
 90
     1153
280
     0
281
     0
  0
CLASS
  1
TABLESTYLE
  2
AcDbTableStyle
  3
ObjectDBX Classes
 90
     4095
280
     0
281
     0
  0
CLASS
  1
MLEADERSTYLE
  2
AcDbMLeaderStyle
  3
ACDB_MLEADERSTYLE_CLASS
 90
     4095
280
     0
281
     0
  0
CLASS
  1
SUN
  2
AcDbSun
  3
SCENEOE
 90
     1153
280
     0
281
     0
  0
CLASS
  1
ACDBPLACEHOLDER
  2
AcDbPlaceHolder
  3
ObjectDBX Classes
 90
        0
280
     0
281
     0
  0
CLASS
  1
LAYOUT
  2
AcDbLayout
  3
ObjectDBX Classes
 90
        0
280
     0
281
     0
  0
ENDSEC
  0
SECTION
  2
TABLES
  0
TABLE
  2
VPORT
  5
8
330
0
100
AcDbSymbolTable
 70
     1
  0
VPORT
  5
29
330
8
100
AcDbSymbolTableRecord
100
AcDbViewportTableRecord
  2
*Active
 70
     0
 10
0.0
 20
0.0
 11
1.0
 21
1.0
 12
420.5
 22
297.0
 13
0.0
 23
0.0
 14
10.0
 24
10.0
 15
10.0
 25
10.0
 16
0.0
 26
0.0
 36
1.0
 17
0.0
 27
0.0
 37
0.0
 40
594.0
 41
1.4158249158
 42
50.0
 43
0.0
 44
0.0
 50
0.0
 51
0.0
 71
     0
 72
  2000
 73
     1
 74
     3
 75
     0
 76
     0
 77
     0
 78
     0
281
     0
 65
     1
110
0.0
120
0.0
130
0.0
111
1.0
121
0.0
131
0.0
112
0.0
122
1.0
132
0.0
 79
     0
146
0.0
  0
ENDTAB
  0
TABLE
  2
LTYPE
  5
5
330
0
100
AcDbSymbolTable
 70
     6
  0
LTYPE
  5
14
330
5
100
AcDbSymbolTableRecord
100
AcDbLinetypeTableRecord
  2
ByBlock
 70
     0
  3

 72
    65
 73
     0
 40
0.0
  0
LTYPE
  5
15
330
5
100
AcDbSymbolTableRecord
100
AcDbLinetypeTableRecord
  2
ByLayer
 70
     0
  3

 72
    65
 73
     0
 40
0.0
  0
LTYPE
  5
16
330
5
100
AcDbSymbolTableRecord
100
AcDbLinetypeTableRecord
  2
Continuous
 70
     0
  3
Solid line
 72
    65
 73
     0
 40
0.0
  0
LTYPE
  5
5E
330
5
100
AcDbSymbolTableRecord
100
AcDbLinetypeTableRecord
  2
HIDDEN
 70
     0
  3
Hidden __ __ __ __ __ __ __ __ __ __ __ __ __ __
 72
    65
 73
     2
 40
1.905
 49
1.27
 74
     0
 49
-0.635
 74
     0
  0
LTYPE
  5
5F
330
5
100
AcDbSymbolTableRecord
100
AcDbLinetypeTableRecord
  2
PHANTOM
 70
     0
  3
Phantom ______  __  __  ______  __  __  ______
 72
    65
 73
     6
 40
12.7
 49
6.35
 74
     0
 49
-1.27
 74
     0
 49
1.27
 74
     0
 49
-1.27
 74
     0
 49
1.27
 74
     0
 49
-1.27
 74
     0
  0
LTYPE
  5
60
330
5
100
AcDbSymbolTableRecord
100
AcDbLinetypeTableRecord
  2
CENTER
 70
     0
  3
Center ____ _ ____ _ ____ _ ____ _ ____ _ ____
 72
    65
 73
     4
 40
10.16
 49
6.35
 74
     0
 49
-1.27
 74
     0
 49
1.27
 74
     0
 49
-1.27
 74
     0
  0
LTYPE
  5
61
330
5
100
AcDbSymbolTableRecord
100
AcDbLinetypeTableRecord
  2
CENTERX2
 70
     0
  3
Center (2x) ________  __  ________  __  _____
 72
    65
 73
     4
 40
20.32
 49
12.7
 74
     0
 49
-2.54
 74
     0
 49
2.54
 74
     0
 49
-2.54
 74
     0
  0
LTYPE
  5
62
330
5
100
AcDbSymbolTableRecord
100
AcDbLinetypeTableRecord
  2
DOT2
 70
     0
  3
Dot (.5x) ........................................
 72
    65
 73
     2
 40
0.635
 49
0.0
 74
     0
 49
-0.635
 74
     0
  0
ENDTAB
  0
TABLE
  2
LAYER
  5
2
330
0
100
AcDbSymbolTable
 70
     1
  0
LAYER
  5
10
330
2
100
AcDbSymbolTableRecord
100
AcDbLayerTableRecord
  2
0
 70
     0
 62
     7
  6
Continuous
370
    -3
390
F
  0
ENDTAB
  0
TABLE
  2
STYLE
  5
3
330
0
100
AcDbSymbolTable
 70
     1
  0
STYLE
  5
11
330
3
100
AcDbSymbolTableRecord
100
AcDbTextStyleTableRecord
  2
Standard
 70
     0
 40
0.0
 41
1.0
 50
0.0
 71
     0
 42
3.5
  3
txt
  4
bigfont
  0
ENDTAB
  0
TABLE
  2
VIEW
  5
6
330
0
100
AcDbSymbolTable
 70
     0
  0
ENDTAB
  0
TABLE
  2
UCS
  5
7
330
0
100
AcDbSymbolTable
 70
     0
  0
ENDTAB
  0
TABLE
  2
APPID
  5
9
330
0
100
AcDbSymbolTable
 70
     1
  0
APPID
  5
12
330
9
100
AcDbSymbolTableRecord
100
AcDbRegAppTableRecord
  2
ACAD
 70
     0
  0
ENDTAB
  0
TABLE
  2
DIMSTYLE
  5
A
330
0
100
AcDbSymbolTable
 70
     1
100
AcDbDimStyleTable
  0
DIMSTYLE
105
27
330
A
100
AcDbSymbolTableRecord
100
AcDbDimStyleTableRecord
  2
ISO-25
 70
     0
 41
2.5
 42
0.625
 43
3.75
 44
1.25
 73
     0
 74
     0
 77
     1
 78
     8
140
2.5
141
2.5
143
0.0393700787
147
0.625
171
     3
172
     1
178
     0
271
     2
272
     2
274
     3
278
    44
283
     0
284
     8
340
11
  0
ENDTAB
  0
TABLE
  2
BLOCK_RECORD
  5
1
330
0
100
AcDbSymbolTable
 70
     1
  0
BLOCK_RECORD
  5
1F
330
1
100
AcDbSymbolTableRecord
100
AcDbBlockTableRecord
  2
*Model_Space
340
22
  0
BLOCK_RECORD
  5
1B
330
1
100
AcDbSymbolTableRecord
100
AcDbBlockTableRecord
  2
*Paper_Space
340
1E
  0
BLOCK_RECORD
  5
23
330
1
100
AcDbSymbolTableRecord
100
AcDbBlockTableRecord
  2
*Paper_Space0
340
26
  0
ENDTAB
  0
ENDSEC
  0
SECTION
  2
BLOCKS
  0
BLOCK
  5
20
330
1F
100
AcDbEntity
  8
0
100
AcDbBlockBegin
  2
*Model_Space
 70
     0
 10
0.0
 20
0.0
 30
0.0
  3
*Model_Space
  1

  0
ENDBLK
  5
21
330
1F
100
AcDbEntity
  8
0
100
AcDbBlockEnd
  0
BLOCK
  5
1C
330
1B
100
AcDbEntity
 67
     1
  8
0
100
AcDbBlockBegin
  2
*Paper_Space
 70
     0
 10
0.0
 20
0.0
 30
0.0
  3
*Paper_Space
  1

  0
ENDBLK
  5
1D
330
1B
100
AcDbEntity
 67
     1
  8
0
100
AcDbBlockEnd
  0
BLOCK
  5
24
330
23
100
AcDbEntity
  8
0
100
AcDbBlockBegin
  2
*Paper_Space0
 70
     0
 10
0.0
 20
0.0
 30
0.0
  3
*Paper_Space0
  1

  0
ENDBLK
  5
25
330
23
100
AcDbEntity
  8
0
100
AcDbBlockEnd
  0
ENDSEC
  0
SECTION
  2
ENTITIES
  0
ARC
  5
63
330
1F
100
AcDbEntity
  8
0
  6
Continuous
 62
     7
370
    25
100
AcDbCircle
 10
293.8940981922
 20
214.7309509318
 30
0.0
 40
2.5
100
AcDbArc
 50
90.0
 51
270.0
  0
ARC
  5
64
330
1F
100
AcDbEntity
  8
0
  6
Continuous
 62
     7
370
    25
100
AcDbCircle
 10
293.8940981922
 20
214.7309509318
 30
0.0
 40
2.5
100
AcDbArc
 50
270.0
 51
90.0
  0
ARC
  5
65
330
1F
100
AcDbEntity
  8
0
  6
Continuous
 62
     7
370
    25
100
AcDbCircle
 10
352.5940981922
 20
244.9309509318
 30
0.0
 40
2.5
100
AcDbArc
 50
90.0
 51
270.0
  0
ARC
  5
66
330
1F
100
AcDbEntity
  8
0
  6
Continuous
 62
     7
370
    25
100
AcDbCircle
 10
352.5940981922
 20
244.9309509318
 30
0.0
 40
2.5
100
AcDbArc
 50
270.0
 51
90.0
  0
ARC
  5
67
330
1F
100
AcDbEntity
  8
0
  6
Continuous
 62
     7
370
    25
100
AcDbCircle
 10
378.6940981922
 20
214.7309509318
 30
0.0
 40
2.5
100
AcDbArc
 50
90.0
 51
270.0
  0
ARC
  5
68
330
1F
100
AcDbEntity
  8
0
  6
Continuous
 62
     7
370
    25
100
AcDbCircle
 10
378.6940981922
 20
214.7309509318
 30
0.0
 40
2.5
100
AcDbArc
 50
270.0
 51
90.0
  0
ARC
  5
69
330
1F
100
AcDbEntity
  8
0
  6
Continuous
 62
     7
370
    25
100
AcDbCircle
 10
319.9940981922
 20
244.9309509318
 30
0.0
 40
2.5
100
AcDbArc
 50
90.0
 51
270.0
  0
ARC
  5
6A
330
1F
100
AcDbEntity
  8
0
  6
Continuous
 62
     7
370
    25
100
AcDbCircle
 10
319.9940981922
 20
244.9309509318
 30
0.0
 40
2.5
100
AcDbArc
 50
270.0
 51
90.0
  0
LINE
  5
6B
330
1F
100
AcDbEntity
  8
0
  6
Continuous
 62
     7
370
    25
100
AcDbLine
 10
286.2940981922
 20
249.9309509318
 30
0.0
 11
386.2940981922
 21
249.9309509318
 31
0.0
  0
LINE
  5
6C
330
1F
100
AcDbEntity
  8
0
  6
Continuous
 62
     7
370
    25
100
AcDbLine
 10
386.2940981922
 20
249.9309509318
 30
0.0
 11
386.2940981922
 21
205.1309509318
 31
0.0
  0
LINE
  5
6D
330
1F
100
AcDbEntity
  8
0
  6
Continuous
 62
     7
370
    25
100
AcDbLine
 10
286.2940981922
 20
249.9309509318
 30
0.0
 11
286.2940981922
 21
205.1309509318
 31
0.0
  0
LINE
  5
6E
330
1F
100
AcDbEntity
  8
0
  6
Continuous
 62
     7
370
    25
100
AcDbLine
 10
286.2940981922
 20
201.9309509318
 30
0.0
 11
386.2940981922
 21
201.9309509318
 31
0.0
  0
LINE
  5
6F
330
1F
100
AcDbEntity
  8
0
  6
Continuous
 62
     7
370
    25
100
AcDbLine
 10
386.2940981922
 20
205.1309509318
 30
0.0
 11
386.2940981922
 21
201.9309509318
 31
0.0
  0
LINE
  5
70
330
1F
100
AcDbEntity
  8
0
  6
Continuous
 62
     7
370
    25
100
AcDbLine
 10
286.2940981922
 20
205.1309509318
 30
0.0
 11
286.2940981922
 21
201.9309509318
 31
0.0
  0
LINE
  5
71
330
1F
100
AcDbEntity
  8
0
  6
HIDDEN
 62
     7
370
    18
100
AcDbLine
 10
286.2940981922
 20
205.1309509318
 30
0.0
 11
386.2940981922
 21
205.1309509318
 31
0.0
  0
LINE
  5
72
330
1F
100
AcDbEntity
  8
0
  6
HIDDEN
 62
     7
370
    18
100
AcDbLine
 10
369.7940981922
 20
201.9309509318
 30
0.0
 11
369.7940981922
 21
205.1309509318
 31
0.0
  0
LINE
  5
73
330
1F
100
AcDbEntity
  8
0
  6
HIDDEN
 62
     7
370
    18
100
AcDbLine
 10
302.7940981922
 20
205.1309509318
 30
0.0
 11
302.7940981922
 21
201.9309509318
 31
0.0
  0
LINE
  5
74
330
1F
100
AcDbEntity
  8
0
  6
Continuous
 62
     7
370
    25
100
AcDbLine
 10
286.2940981922
 20
345.08
 30
0.0
 11
286.2940981922
 21
341.88
 31
0.0
  0
LINE
  5
75
330
1F
100
AcDbEntity
  8
0
  6
Continuous
 62
     7
370
    25
100
AcDbLine
 10
286.2940981922
 20
345.08
 30
0.0
 11
386.2940981922
 21
345.08
 31
0.0
  0
LINE
  5
76
330
1F
100
AcDbEntity
  8
0
  6
Continuous
 62
     7
370
    25
100
AcDbLine
 10
386.2940981922
 20
345.08
 30
0.0
 11
386.2940981922
 21
341.88
 31
0.0
  0
LINE
  5
77
330
1F
100
AcDbEntity
  8
0
  6
Continuous
 62
     7
370
    25
100
AcDbLine
 10
286.2940981922
 20
341.88
 30
0.0
 11
386.2940981922
 21
341.88
 31
0.0
  0
LINE
  5
78
330
1F
100
AcDbEntity
  8
0
  6
Continuous
 62
     7
370
    25
100
AcDbLine
 10
366.2940981922
 20
357.38
 30
0.0
 11
306.2940981922
 21
357.38
 31
0.0
  0
ARC
  5
79
330
1F
100
AcDbEntity
  8
0
  6
Continuous
 62
     7
370
    25
100
AcDbCircle
 10
306.2940981922
 20
353.88
 30
0.0
 40
3.500000000000057
100
AcDbArc
 50
90.0
 51
270.0
  0
LINE
  5
7A
330
1F
100
AcDbEntity
  8
0
  6
Continuous
 62
     7
370
    25
100
AcDbLine
 10
306.2940981922
 20
350.38
 30
0.0
 11
366.2940981922
 21
350.38
 31
0.0
  0
ARC
  5
7B
330
1F
100
AcDbEntity
  8
0
  6
Continuous
 62
     7
370
    25
100
AcDbCircle
 10
366.2940981922
 20
353.88
 30
0.0
 40
3.500000000000057
100
AcDbArc
 50
270.0
 51
90.0
  0
LINE
  5
7C
330
1F
100
AcDbEntity
  8
0
  6
Continuous
 62
     7
370
    25
100
AcDbLine
 10
286.2940981922
 20
363.88
 30
0.0
 11
386.2940981922
 21
363.88
 31
0.0
  0
LINE
  5
7D
330
1F
100
AcDbEntity
  8
0
  6
Continuous
 62
     7
370
    25
100
AcDbLine
 10
286.2940981922
 20
363.88
 30
0.0
 11
286.2940981922
 21
345.08
 31
0.0
  0
LINE
  5
7E
330
1F
100
AcDbEntity
  8
0
  6
Continuous
 62
     7
370
    25
100
AcDbLine
 10
386.2940981922
 20
363.88
 30
0.0
 11
386.2940981922
 21
345.08
 31
0.0
  0
LINE
  5
7F
330
1F
100
AcDbEntity
  8
0
  6
HIDDEN
 62
     7
370
    18
100
AcDbLine
 10
355.0940981922
 20
341.88
 30
0.0
 11
355.0940981922
 21
345.08
 31
0.0
  0
LINE
  5
80
330
1F
100
AcDbEntity
  8
0
  6
HIDDEN
 62
     7
370
    18
100
AcDbLine
 10
350.0940981922
 20
345.08
 30
0.0
 11
350.0940981922
 21
341.88
 31
0.0
  0
LINE
  5
81
330
1F
100
AcDbEntity
  8
0
  6
HIDDEN
 62
     7
370
    18
100
AcDbLine
 10
322.4940981922
 20
341.88
 30
0.0
 11
322.4940981922
 21
345.08
 31
0.0
  0
LINE
  5
82
330
1F
100
AcDbEntity
  8
0
  6
HIDDEN
 62
     7
370
    18
100
AcDbLine
 10
317.4940981922
 20
345.08
 30
0.0
 11
317.4940981922
 21
341.88
 31
0.0
  0
LINE
  5
83
330
1F
100
AcDbEntity
  8
0
  6
HIDDEN
 62
     7
370
    18
100
AcDbLine
 10
381.1940981922
 20
341.88
 30
0.0
 11
381.1940981922
 21
345.08
 31
0.0
  0
LINE
  5
84
330
1F
100
AcDbEntity
  8
0
  6
HIDDEN
 62
     7
370
    18
100
AcDbLine
 10
376.1940981922
 20
345.08
 30
0.0
 11
376.1940981922
 21
341.88
 31
0.0
  0
LINE
  5
85
330
1F
100
AcDbEntity
  8
0
  6
HIDDEN
 62
     7
370
    18
100
AcDbLine
 10
296.3940981922
 20
341.88
 30
0.0
 11
296.3940981922
 21
345.08
 31
0.0
  0
LINE
  5
86
330
1F
100
AcDbEntity
  8
0
  6
HIDDEN
 62
     7
370
    18
100
AcDbLine
 10
291.3940981922
 20
345.08
 30
0.0
 11
291.3940981922
 21
341.88
 31
0.0
  0
LINE
  5
87
330
1F
100
AcDbEntity
  8
0
  6
Continuous
 62
     7
370
    25
100
AcDbLine
 10
494.58
 20
201.9309509318
 30
0.0
 11
513.38
 21
201.9309509318
 31
0.0
  0
ARC
  5
88
330
1F
100
AcDbEntity
  8
0
  6
Continuous
 62
     7
370
    25
100
AcDbCircle
 10
494.58
 20
205.1309509318
 30
0.0
 40
3.199999999999989
100
AcDbArc
 50
180.0
 51
270.0
  0
LINE
  5
89
330
1F
100
AcDbEntity
  8
0
  6
Continuous
 62
     7
370
    25
100
AcDbLine
 10
491.38
 20
249.9309509318
 30
0.0
 11
491.38
 21
205.1309509318
 31
0.0
  0
LINE
  5
8A
330
1F
100
AcDbEntity
  8
0
  6
Continuous
 62
     7
370
    25
100
AcDbLine
 10
513.38
 20
205.1309509318
 30
0.0
 11
494.58
 21
205.1309509318
 31
0.0
  0
LINE
  5
8B
330
1F
100
AcDbEntity
  8
0
  6
Continuous
 62
     7
370
    25
100
AcDbLine
 10
513.38
 20
201.9309509318
 30
0.0
 11
513.38
 21
205.1309509318
 31
0.0
  0
LINE
  5
8C
330
1F
100
AcDbEntity
  8
0
  6
Continuous
 62
     7
370
    25
100
AcDbLine
 10
494.58
 20
205.1309509318
 30
0.0
 11
494.58
 21
249.9309509318
 31
0.0
  0
LINE
  5
8D
330
1F
100
AcDbEntity
  8
0
  6
Continuous
 62
     7
370
    25
100
AcDbLine
 10
494.58
 20
249.9309509318
 30
0.0
 11
491.38
 21
249.9309509318
 31
0.0
  0
LINE
  5
8E
330
1F
100
AcDbEntity
  8
0
  6
HIDDEN
 62
     7
370
    18
100
AcDbLine
 10
494.58
 20
212.2309509318
 30
0.0
 11
491.38
 21
212.2309509318
 31
0.0
  0
LINE
  5
8F
330
1F
100
AcDbEntity
  8
0
  6
HIDDEN
 62
     7
370
    18
100
AcDbLine
 10
494.58
 20
217.2309509318
 30
0.0
 11
491.38
 21
217.2309509318
 31
0.0
  0
LINE
  5
90
330
1F
100
AcDbEntity
  8
0
  6
HIDDEN
 62
     7
370
    18
100
AcDbLine
 10
506.88
 20
201.9309509318
 30
0.0
 11
506.88
 21
205.1309509318
 31
0.0
  0
LINE
  5
91
330
1F
100
AcDbEntity
  8
0
  6
HIDDEN
 62
     7
370
    18
100
AcDbLine
 10
499.88
 20
201.9309509318
 30
0.0
 11
499.88
 21
205.1309509318
 31
0.0
  0
LINE
  5
92
330
1F
100
AcDbEntity
  8
0
  6
HIDDEN
 62
     7
370
    18
100
AcDbLine
 10
494.58
 20
242.4309509318
 30
0.0
 11
491.38
 21
242.4309509318
 31
0.0
  0
LINE
  5
93
330
1F
100
AcDbEntity
  8
0
  6
HIDDEN
 62
     7
370
    18
100
AcDbLine
 10
494.58
 20
247.4309509318
 30
0.0
 11
491.38
 21
247.4309509318
 31
0.0
  0
ARC
  5
94
330
1F
100
AcDbEntity
  8
0
  6
Continuous
 62
     7
370
    25
100
AcDbCircle
 10
454.9317289738
 20
369.6590113885
 30
0.0
 40
4.881866238703238
100
AcDbArc
 50
122.3868559778
 51
177.6131438766
  0
ARC
  5
95
330
1F
100
AcDbEntity
  8
0
  6
Continuous
 62
     7
370
    25
100
AcDbCircle
 10
525.6424070924
 20
328.8386057974
 30
0.0
 40
4.88186623870296
100
AcDbArc
 50
122.3868559778
 51
177.6131438766
  0
LINE
  5
96
330
1F
100
AcDbEntity
  8
0
  6
Continuous
 62
     7
370
    25
100
AcDbLine
 10
520.7647763109
 20
329.0419181953
 30
0.0
 11
520.7647763109
 21
313.6909509318
 31
0.0
  0
LINE
  5
97
330
1F
100
AcDbEntity
  8
0
  6
Continuous
 62
     7
370
    25
100
AcDbLine
 10
554.7059018078
 20
351.248643477
 30
0.0
 11
523.0275180106
 21
332.9611017722
 31
0.0
  0
LINE
  5
98
330
1F
100
AcDbEntity
  8
0
  6
Continuous
 62
     7
370
    25
100
AcDbLine
 10
554.7059018078
 20
348.635712879
 30
0.0
 11
554.7059018078
 21
351.248643477
 31
0.0
  0
LINE
  5
99
330
1F
100
AcDbEntity
  8
0
  6
Continuous
 62
     7
370
    25
100
AcDbLine
 10
523.0275180106
 20
330.3481711742
 30
0.0
 11
554.7059018078
 21
348.635712879
 31
0.0
  0
LINE
  5
9A
330
1F
100
AcDbEntity
  8
0
  6
Continuous
 62
     7
370
    25
100
AcDbLine
 10
523.0275180106
 20
314.9972039107
 30
0.0
 11
523.0275180106
 21
330.3481711742
 31
0.0
  0
LINE
  5
9B
330
1F
100
AcDbEntity
  8
0
  6
Continuous
 62
     7
370
    25
100
AcDbLine
 10
520.7647763109
 20
313.6909509318
 30
0.0
 11
523.0275180106
 21
314.9972039107
 31
0.0
  0
LINE
  5
9C
330
1F
100
AcDbEntity
  8
0
  6
Continuous
 62
     7
370
    25
100
AcDbLine
 10
450.0540981922
 20
369.8623237864
 30
0.0
 11
450.0540981922
 21
354.511356523
 31
0.0
  0
LINE
  5
9D
330
1F
100
AcDbEntity
  8
0
  6
Continuous
 62
     7
370
    25
100
AcDbLine
 10
450.0540981922
 20
354.511356523
 30
0.0
 11
520.7647763109
 21
313.6909509318
 31
0.0
  0
LINE
  5
9E
330
1F
100
AcDbEntity
  8
0
  6
Continuous
 62
     7
370
    25
100
AcDbLine
 10
464.1962338159
 20
357.3705763652
 30
0.0
 11
506.6226406871
 21
332.8783330105
 31
0.0
  0
LWPOLYLINE
  5
9F
330
1F
100
AcDbEntity
  8
0
  6
Continuous
 62
     7
370
    25
100
AcDbPolyline
 90
       22
 70
   128
 43
0.0
 10
464.1962338159
 20
351.654790682
 10
463.8273730261
 20
351.8996497852
 10
463.4667519768
 20
352.2028797442
 10
463.1224263463
 20
352.5577069029
 10
462.8020878003
 20
352.9562050087
 10
462.5128921725
 20
353.3894722725
 10
462.2612996154
 20
353.8478302197
 10
462.052930291
 20
354.321039891
 10
461.8924388256
 20
354.7985305644
 10
461.7834103334
 20
355.2696358872
 10
461.7282803307
 20
355.7238321451
 10
461.7282803307
 20
356.1509733441
 10
461.7834103334
 20
356.5415178558
 10
461.8924388256
 20
356.8867415609
 10
462.052930291
 20
357.1789327326
 10
462.2612996154
 20
357.4115643028
 10
462.5128921725
 20
357.5794396666
 10
462.8020878003
 20
357.6788087658
 10
463.1224263463
 20
357.707451859
 10
463.4667519768
 20
357.6647291068
 10
463.8273730261
 20
357.5515948648
 10
464.1962338159
 20
357.3705763652
  0
LINE
  5
A0
330
1F
100
AcDbEntity
  8
0
  6
Continuous
 62
     7
370
    25
100
AcDbLine
 10
506.6226406871
 20
327.1625473273
 30
0.0
 11
464.1962338159
 21
351.654790682
 31
0.0
  0
LWPOLYLINE
  5
A1
330
1F
100
AcDbEntity
  8
0
  6
Continuous
 62
     7
370
    25
100
AcDbPolyline
 90
       22
 70
   128
 43
0.0
 10
506.6226406871
 20
332.8783330105
 10
506.991501477
 20
332.6334739073
 10
507.3521225263
 20
332.3302439483
 10
507.6964481567
 20
331.9754167896
 10
508.0167867027
 20
331.5769186838
 10
508.3059823305
 20
331.14365142
 10
508.5575748876
 20
330.6852934728
 10
508.7659442121
 20
330.2120838015
 10
508.9264356775
 20
329.7345931281
 10
509.0354641697
 20
329.2634878053
 10
509.0905941724
 20
328.8092915474
 10
509.0905941724
 20
328.3821503484
 10
509.0354641697
 20
327.9916058367
 10
508.9264356775
 20
327.6463821315
 10
508.7659442121
 20
327.3541909599
 10
508.5575748876
 20
327.1215593897
 10
508.3059823305
 20
326.9536840259
 10
508.0167867027
 20
326.8543149267
 10
507.6964481567
 20
326.8256718335
 10
507.3521225263
 20
326.8683945857
 10
506.991501477
 20
326.9815288276
 10
506.6226406871
 20
327.1625473273
  0
LINE
  5
A2
330
1F
100
AcDbEntity
  8
0
  6
Continuous
 62
     7
370
    25
100
AcDbLine
 10
483.9952236892
 20
392.0690490682
 30
0.0
 11
452.316839892
 21
373.7815073634
 31
0.0
  0
LINE
  5
A3
330
1F
100
AcDbEntity
  8
0
  6
Continuous
 62
     7
370
    25
100
AcDbLine
 10
483.9952236892
 20
392.0690490682
 30
0.0
 11
554.7059018078
 21
351.248643477
 31
0.0
  0
LWPOLYLINE
  5
A4
330
1F
100
AcDbEntity
  8
0
  6
Continuous
 62
     7
370
    25
100
AcDbPolyline
 90
       18
 70
   128
 43
0.0
 10
466.2468434814
 20
375.618425615
 10
465.8919175645
 20
375.7885677366
 10
465.4888790406
 20
375.9181636236
 10
465.0514529033
 20
376.0028000433
 10
464.594535175
 20
376.0395948041
 10
464.133685641
 20
376.0272949043
 10
463.6845979794
 20
375.9663192025
 10
463.262565332
 20
375.858744153
 10
462.8819595143
 20
375.708233095
 10
462.5557416009
 20
375.5199115022
 10
462.2950205518
 20
375.3001924405
 10
462.1086749094
 20
375.056558179
 10
462.0030504512
 20
374.7973053903
 10
461.9817440914
 20
374.5312626172
 10
462.0454813925
 20
374.2674896273
 10
462.1920918572
 20
374.0149688933
 10
462.4165828419
 20
373.7822997059
 10
462.7113095754
 20
373.5774053354
  0
LWPOLYLINE
  5
A5
330
1F
100
AcDbEntity
  8
0
  6
Continuous
 62
     7
370
    25
100
AcDbPolyline
 90
       18
 70
   128
 43
0.0
 10
462.7113095754
 20
373.5774053354
 10
463.0662354923
 20
373.4072632137
 10
463.4692740162
 20
373.2776673268
 10
463.9067001535
 20
373.193030907
 10
464.3636178818
 20
373.1562361463
 10
464.8244674158
 20
373.168536046
 10
465.2735550774
 20
373.2295117478
 10
465.6955877248
 20
373.3370867974
 10
466.0761935425
 20
373.4875978553
 10
466.4024114559
 20
373.6759194482
 10
466.663132505
 20
373.8956385099
 10
466.8494781474
 20
374.1392727714
 10
466.9551026056
 20
374.39852556
 10
466.9764089654
 20
374.6645683331
 10
466.9126716643
 20
374.9283413231
 10
466.7660611996
 20
375.1808620571
 10
466.5415702149
 20
375.4135312444
 10
466.2468434814
 20
375.618425615
  0
LWPOLYLINE
  5
A6
330
1F
100
AcDbEntity
  8
0
  6
Continuous
 62
     7
370
    25
100
AcDbPolyline
 90
       18
 70
   128
 43
0.0
 10
529.1086363289
 20
363.9846100215
 10
528.7537104119
 20
364.1547521432
 10
528.3506718881
 20
364.2843480301
 10
527.9132457508
 20
364.3689844499
 10
527.4563280225
 20
364.4057792106
 10
526.9954784885
 20
364.3934793109
 10
526.5463908269
 20
364.332503609
 10
526.1243581795
 20
364.2249285595
 10
525.7437523618
 20
364.0744175016
 10
525.4175344484
 20
363.8860959087
 10
525.1568133993
 20
363.666376847
 10
524.9704677569
 20
363.4227425855
 10
524.8648432987
 20
363.1634897969
 10
524.8435369389
 20
362.8974470238
 10
524.90727424
 20
362.6336740338
 10
525.0538847047
 20
362.3811532998
 10
525.2783756894
 20
362.1484841125
 10
525.5731024229
 20
361.9435897419
  0
LWPOLYLINE
  5
A7
330
1F
100
AcDbEntity
  8
0
  6
Continuous
 62
     7
370
    25
100
AcDbPolyline
 90
       18
 70
   128
 43
0.0
 10
525.5731024229
 20
361.9435897419
 10
525.9280283398
 20
361.7734476202
 10
526.3310668637
 20
361.6438517333
 10
526.768493001
 20
361.5592153136
 10
527.2254107293
 20
361.5224205528
 10
527.6862602633
 20
361.5347204525
 10
528.1353479248
 20
361.5956961544
 10
528.5573805723
 20
361.7032712039
 10
528.93798639
 20
361.8537822619
 10
529.2642043033
 20
362.0421038547
 10
529.5249253525
 20
362.2618229164
 10
529.7112709949
 20
362.5054571779
 10
529.8168954531
 20
362.7647099666
 10
529.8382018129
 20
363.0307527396
 10
529.7744645118
 20
363.2945257296
 10
529.6278540471
 20
363.5470464636
 10
529.4033630624
 20
363.7797156509
 10
529.1086363289
 20
363.9846100215
  0
LWPOLYLINE
  5
A8
330
1F
100
AcDbEntity
  8
0
  6
Continuous
 62
     7
370
    25
100
AcDbPolyline
 90
       18
 70
   128
 43
0.0
 10
526.209498526
 20
341.0027216737
 10
525.8545726091
 20
341.1728637954
 10
525.4515340852
 20
341.3024596823
 10
525.0141079479
 20
341.387096102
 10
524.5571902196
 20
341.4238908628
 10
524.0963406856
 20
341.4115909631
 10
523.6472530241
 20
341.3506152612
 10
523.2252203766
 20
341.2430402117
 10
522.8446145589
 20
341.0925291537
 10
522.5183966456
 20
340.9042075609
 10
522.2576755964
 20
340.6844884992
 10
522.071329954
 20
340.4408542377
 10
521.9657054958
 20
340.181601449
 10
521.944399136
 20
339.915558676
 10
522.0081364371
 20
339.651785686
 10
522.1547469018
 20
339.399264952
 10
522.3792378865
 20
339.1665957646
 10
522.6739646201
 20
338.9617013941
  0
LWPOLYLINE
  5
A9
330
1F
100
AcDbEntity
  8
0
  6
Continuous
 62
     7
370
    25
100
AcDbPolyline
 90
       18
 70
   128
 43
0.0
 10
522.6739646201
 20
338.9617013941
 10
523.028890537
 20
338.7915592724
 10
523.4319290608
 20
338.6619633855
 10
523.8693551981
 20
338.5773269657
 10
524.3262729264
 20
338.540532205
 10
524.7871224604
 20
338.5528321047
 10
525.236210122
 20
338.6138078066
 10
525.6582427694
 20
338.7213828561
 10
526.0388485872
 20
338.871893914
 10
526.3650665005
 20
339.0602155069
 10
526.6257875496
 20
339.2799345686
 10
526.812133192
 20
339.5235688301
 10
526.9177576502
 20
339.7828216187
 10
526.93906401
 20
340.0488643918
 10
526.8753267089
 20
340.3126373818
 10
526.7287162442
 20
340.5651581158
 10
526.5042252595
 20
340.7978273031
 10
526.209498526
 20
341.0027216737
  0
LWPOLYLINE
  5
AA
330
1F
100
AcDbEntity
  8
0
  6
Continuous
 62
     7
370
    25
100
AcDbPolyline
 90
       18
 70
   128
 43
0.0
 10
506.0569552622
 20
377.2920622442
 10
505.7020293453
 20
377.4622043659
 10
505.2989908214
 20
377.5918002528
 10
504.8615646841
 20
377.6764366726
 10
504.4046469558
 20
377.7132314333
 10
503.9437974218
 20
377.7009315336
 10
503.4947097602
 20
377.6399558318
 10
503.0726771128
 20
377.5323807822
 10
502.6920712951
 20
377.3818697243
 10
502.3658533817
 20
377.1935481314
 10
502.1051323326
 20
376.9738290697
 10
501.9187866902
 20
376.7301948082
 10
501.813162232
 20
376.4709420196
 10
501.7918558722
 20
376.2048992465
 10
501.8555931733
 20
375.9411262565
 10
502.002203638
 20
375.6886055225
 10
502.2266946227
 20
375.4559363352
 10
502.5214213562
 20
375.2510419646
  0
LWPOLYLINE
  5
AB
330
1F
100
AcDbEntity
  8
0
  6
Continuous
 62
     7
370
    25
100
AcDbPolyline
 90
       18
 70
   128
 43
0.0
 10
502.5214213562
 20
375.2510419646
 10
502.8763472731
 20
375.0808998429
 10
503.279385797
 20
374.951303956
 10
503.7168119343
 20
374.8666675363
 10
504.1737296626
 20
374.8298727755
 10
504.6345791966
 20
374.8421726753
 10
505.0836668582
 20
374.9031483771
 10
505.5056995056
 20
375.0107234266
 10
505.8863053233
 20
375.1612344846
 10
506.2125232367
 20
375.3495560774
 10
506.4732442858
 20
375.5692751391
 10
506.6595899282
 20
375.8129094006
 10
506.7652143864
 20
376.0721621893
 10
506.7865207462
 20
376.3382049624
 10
506.7227834451
 20
376.6019779523
 10
506.5761729804
 20
376.8544986863
 10
506.3516819957
 20
377.0871678737
 10
506.0569552622
 20
377.2920622442
  0
ARC
  5
AC
330
1F
100
AcDbEntity
  8
0
  6
Continuous
 62
     7
370
    25
100
AcDbCircle
 10
524.441731573
 20
334.6851662221
 30
0.0
 40
4.129535600949201
100
AcDbArc
 50
75.0943671413
 51
104.9056328587
  0
LINE
  5
AD
330
1F
100
AcDbEntity
  8
0
  6
Continuous
 62
     7
370
    25
100
AcDbLine
 10
509.0890839178
 20
328.3609028811
 30
0.0
 11
508.8853823869
 21
328.4688003062
 31
0.0
  0
LINE
  5
AE
330
1F
100
AcDbEntity
  8
0
  6
Continuous
 62
     7
370
    25
100
AcDbLine
 10
508.8853823869
 20
328.4688003062
 30
0.0
 11
466.4589755157
 21
352.9610436609
 31
0.0
  0
ARC
  5
AF
330
1F
100
AcDbEntity
  8
0
  6
Continuous
 62
     7
370
    25
100
AcDbCircle
 10
527.3408693759
 20
357.66705457
 30
0.0
 40
4.129535600939588
100
AcDbArc
 50
75.0943671413
 51
104.9056328587
  0
ARC
  5
B0
330
1F
100
AcDbEntity
  8
0
  6
Continuous
 62
     7
370
    25
100
AcDbCircle
 10
469.2628784608
 20
357.4239629431
 30
0.0
 40
5.270628069330863
100
AcDbArc
 50
179.407414615
 51
237.8602272982
  0
ARC
  5
B1
330
1F
100
AcDbEntity
  8
0
  6
Continuous
 62
     7
370
    25
100
AcDbCircle
 10
464.4790765284
 20
369.3008701634
 30
0.0
 40
4.129535600938357
100
AcDbArc
 50
75.0943671413
 51
104.9056328587
  0
ARC
  5
B2
330
1F
100
AcDbEntity
  8
0
  6
Continuous
 62
     7
370
    25
100
AcDbCircle
 10
504.2891883092
 20
370.9745067927
 30
0.0
 40
4.129535600939119
100
AcDbArc
 50
75.0943671413
 51
104.9056328587
  0
LINE
  5
B3
330
1F
100
AcDbEntity
  8
0
  6
HIDDEN
 62
     7
370
    18
100
AcDbLine
 10
452.316839892
 20
371.1685767653
 30
0.0
 11
523.0275180106
 21
330.3481711742
 31
0.0
  0
LWPOLYLINE
  5
B4
330
1F
100
AcDbEntity
  8
0
  6
HIDDEN
 62
     7
370
    18
100
AcDbPolyline
 90
       18
 70
   128
 43
0.0
 10
522.6739646201
 20
336.3487707961
 10
523.028890537
 20
336.1786286744
 10
523.4319290608
 20
336.0490327874
 10
523.8693551981
 20
335.9643963677
 10
524.3262729264
 20
335.927601607
 10
524.7871224604
 20
335.9399015067
 10
525.236210122
 20
336.0008772085
 10
525.6582427694
 20
336.1084522581
 10
526.0388485872
 20
336.258963316
 10
526.3650665005
 20
336.4472849088
 10
526.6257875496
 20
336.6670039706
 10
526.812133192
 20
336.910638232
 10
526.9177576502
 20
337.1698910207
 10
526.93906401
 20
337.4359337938
 10
526.8753267089
 20
337.6997067838
 10
526.7287162442
 20
337.9522275178
 10
526.5042252595
 20
338.1848967051
 10
526.209498526
 20
338.3897910756
  0
LWPOLYLINE
  5
B5
330
1F
100
AcDbEntity
  8
0
  6
HIDDEN
 62
     7
370
    18
100
AcDbPolyline
 90
        3
 70
   128
 43
0.0
 10
526.209498526
 20
338.3897910756
 10
525.8545726091
 20
338.5599331973
 10
525.5039629233
 20
338.6757462349
  0
LWPOLYLINE
  5
B6
330
1F
100
AcDbEntity
  8
0
  6
HIDDEN
 62
     7
370
    18
100
AcDbPolyline
 90
       12
 70
   128
 43
0.0
 10
523.3795002228
 20
338.6757462349
 10
523.2252203766
 20
338.6301096137
 10
522.8446145589
 20
338.4795985557
 10
522.5183966456
 20
338.2912769629
 10
522.2576755964
 20
338.0715579012
 10
522.071329954
 20
337.8279236397
 10
521.9657054958
 20
337.568670851
 10
521.944399136
 20
337.3026280779
 10
522.0081364371
 20
337.038855088
 10
522.1547469018
 20
336.7863343539
 10
522.3792378865
 20
336.5536651666
 10
522.6739646201
 20
336.3487707961
  0
LINE
  5
B7
330
1F
100
AcDbEntity
  8
0
  6
HIDDEN
 62
     7
370
    18
100
AcDbLine
 10
452.316839892
 20
355.8176095019
 30
0.0
 11
523.0275180106
 21
314.9972039107
 31
0.0
  0
LWPOLYLINE
  5
B8
330
1F
100
AcDbEntity
  8
0
  6
HIDDEN
 62
     7
370
    18
100
AcDbPolyline
 90
       22
 70
   128
 43
0.0
 10
508.8853823869
 20
334.1845859894
 10
509.2542431768
 20
333.9397268862
 10
509.6148642261
 20
333.6364969272
 10
509.9591898565
 20
333.2816697685
 10
510.2795284025
 20
332.8831716627
 10
510.5687240303
 20
332.4499043989
 10
510.8203165874
 20
331.9915464517
 10
511.0286859119
 20
331.5183367804
 10
511.1891773772
 20
331.040846107
 10
511.2982058695
 20
330.5697407842
 10
511.3533358722
 20
330.1155445263
 10
511.3533358722
 20
329.6884033273
 10
511.2982058695
 20
329.2978588156
 10
511.1891773772
 20
328.9526351105
 10
511.0286859119
 20
328.6604439388
 10
510.8203165874
 20
328.4278123686
 10
510.5687240303
 20
328.2599370048
 10
510.2795284025
 20
328.1605679056
 10
509.9591898565
 20
328.1319248124
 10
509.6148642261
 20
328.1746475646
 10
509.2542431768
 20
328.2877818066
 10
509.0890839178
 20
328.3609028811
  0
LINE
  5
B9
330
1F
100
AcDbEntity
  8
0
  6
HIDDEN
 62
     7
370
    18
100
AcDbLine
 10
466.4589755157
 20
358.6768293441
 30
0.0
 11
508.8853823869
 21
334.1845859894
 31
0.0
  0
LINE
  5
BA
330
1F
100
AcDbEntity
  8
0
  6
HIDDEN
 62
     7
370
    18
100
AcDbLine
 10
483.9952236892
 20
389.4561184701
 30
0.0
 11
554.7059018078
 21
348.635712879
 31
0.0
  0
LWPOLYLINE
  5
BB
330
1F
100
AcDbEntity
  8
0
  6
HIDDEN
 62
     7
370
    18
100
AcDbPolyline
 90
       18
 70
   128
 43
0.0
 10
525.5731024229
 20
359.3306591439
 10
525.9280283398
 20
359.1605170222
 10
526.3310668637
 20
359.0309211352
 10
526.768493001
 20
358.9462847155
 10
527.2254107293
 20
358.9094899548
 10
527.6862602633
 20
358.9217898545
 10
528.1353479248
 20
358.9827655563
 10
528.5573805723
 20
359.0903406059
 10
528.93798639
 20
359.2408516638
 10
529.2642043033
 20
359.4291732566
 10
529.5249253525
 20
359.6488923184
 10
529.7112709949
 20
359.8925265798
 10
529.8168954531
 20
360.1517793685
 10
529.8382018129
 20
360.4178221416
 10
529.7744645118
 20
360.6815951316
 10
529.6278540471
 20
360.9341158656
 10
529.4033630624
 20
361.1667850529
 10
529.1086363289
 20
361.3716794234
  0
LWPOLYLINE
  5
BC
330
1F
100
AcDbEntity
  8
0
  6
HIDDEN
 62
     7
370
    18
100
AcDbPolyline
 90
        3
 70
   128
 43
0.0
 10
529.1086363289
 20
361.3716794234
 10
528.7537104119
 20
361.5418215451
 10
528.4031007261
 20
361.6576345827
  0
LWPOLYLINE
  5
BD
330
1F
100
AcDbEntity
  8
0
  6
HIDDEN
 62
     7
370
    18
100
AcDbPolyline
 90
       12
 70
   128
 43
0.0
 10
526.2786380256
 20
361.6576345827
 10
526.1243581795
 20
361.6119979615
 10
525.7437523618
 20
361.4614869035
 10
525.4175344484
 20
361.2731653107
 10
525.1568133993
 20
361.053446249
 10
524.9704677569
 20
360.8098119875
 10
524.8648432987
 20
360.5505591988
 10
524.8435369389
 20
360.2845164257
 10
524.90727424
 20
360.0207434358
 10
525.0538847047
 20
359.7682227018
 10
525.2783756894
 20
359.5355535144
 10
525.5731024229
 20
359.3306591439
  0
LWPOLYLINE
  5
BE
330
1F
100
AcDbEntity
  8
0
  6
HIDDEN
 62
     7
370
    18
100
AcDbPolyline
 90
       11
 70
   128
 43
0.0
 10
463.992532285
 20
357.4784737903
 10
464.0461520332
 20
357.8477708347
 10
464.1551805254
 20
358.1929945399
 10
464.3156719908
 20
358.4851857115
 10
464.5240413152
 20
358.7178172817
 10
464.7756338723
 20
358.8856926455
 10
465.0648295001
 20
358.9850617447
 10
465.3851680461
 20
359.0137048379
 10
465.7294936766
 20
358.9709820857
 10
466.0901147259
 20
358.8578478438
 10
466.4589755157
 20
358.6768293441
  0
LINE
  5
BF
330
1F
100
AcDbEntity
  8
0
  6
HIDDEN
 62
     7
370
    18
100
AcDbLine
 10
483.9952236892
 20
389.4561184701
 30
0.0
 11
483.9952236892
 21
392.0690490682
 31
0.0
  0
LINE
  5
C0
330
1F
100
AcDbEntity
  8
0
  6
HIDDEN
 62
     7
370
    18
100
AcDbLine
 10
450.0540981922
 20
354.511356523
 30
0.0
 11
452.316839892
 21
355.8176095019
 31
0.0
  0
LINE
  5
C1
330
1F
100
AcDbEntity
  8
0
  6
HIDDEN
 62
     7
370
    18
100
AcDbLine
 10
452.316839892
 20
355.8176095019
 30
0.0
 11
452.316839892
 21
371.1685767653
 31
0.0
  0
LINE
  5
C2
330
1F
100
AcDbEntity
  8
0
  6
HIDDEN
 62
     7
370
    18
100
AcDbLine
 10
452.316839892
 20
371.1685767653
 30
0.0
 11
483.9952236892
 21
389.4561184701
 31
0.0
  0
LWPOLYLINE
  5
C3
330
1F
100
AcDbEntity
  8
0
  6
HIDDEN
 62
     7
370
    18
100
AcDbPolyline
 90
       18
 70
   128
 43
0.0
 10
462.7113095754
 20
370.9644747374
 10
463.0662354923
 20
370.7943326157
 10
463.4692740162
 20
370.6647367287
 10
463.9067001535
 20
370.580100309
 10
464.3636178818
 20
370.5433055483
 10
464.8244674158
 20
370.555605448
 10
465.2735550774
 20
370.6165811498
 10
465.6955877248
 20
370.7241561993
 10
466.0761935425
 20
370.8746672573
 10
466.4024114559
 20
371.0629888501
 10
466.663132505
 20
371.2827079118
 10
466.8494781474
 20
371.5263421733
 10
466.9551026056
 20
371.785594962
 10
466.9764089654
 20
372.0516377351
 10
466.9126716643
 20
372.315410725
 10
466.7660611996
 20
372.5679314591
 10
466.5415702149
 20
372.8006006464
 10
466.2468434814
 20
373.0054950169
  0
LWPOLYLINE
  5
C4
330
1F
100
AcDbEntity
  8
0
  6
HIDDEN
 62
     7
370
    18
100
AcDbPolyline
 90
        3
 70
   128
 43
0.0
 10
466.2468434814
 20
373.0054950169
 10
465.8919175645
 20
373.1756371386
 10
465.5413078787
 20
373.2914501762
  0
LWPOLYLINE
  5
C5
330
1F
100
AcDbEntity
  8
0
  6
HIDDEN
 62
     7
370
    18
100
AcDbPolyline
 90
       12
 70
   128
 43
0.0
 10
463.4168451781
 20
373.2914501762
 10
463.262565332
 20
373.245813555
 10
462.8819595143
 20
373.095302497
 10
462.5557416009
 20
372.9069809042
 10
462.2950205518
 20
372.6872618424
 10
462.1086749094
 20
372.443627581
 10
462.0030504512
 20
372.1843747923
 10
461.9817440914
 20
371.9183320192
 10
462.0454813925
 20
371.6545590292
 10
462.1920918572
 20
371.4020382952
 10
462.4165828419
 20
371.1693691079
 10
462.7113095754
 20
370.9644747374
  0
LWPOLYLINE
  5
C6
330
1F
100
AcDbEntity
  8
0
  6
HIDDEN
 62
     7
370
    18
100
AcDbPolyline
 90
       18
 70
   128
 43
0.0
 10
502.5214213562
 20
372.6381113666
 10
502.8763472731
 20
372.4679692449
 10
503.279385797
 20
372.338373358
 10
503.7168119343
 20
372.2537369382
 10
504.1737296626
 20
372.2169421775
 10
504.6345791966
 20
372.2292420772
 10
505.0836668582
 20
372.290217779
 10
505.5056995056
 20
372.3977928286
 10
505.8863053233
 20
372.5483038865
 10
506.2125232367
 20
372.7366254794
 10
506.4732442858
 20
372.9563445411
 10
506.6595899282
 20
373.1999788026
 10
506.7652143864
 20
373.4592315912
 10
506.7865207462
 20
373.7252743643
 10
506.7227834451
 20
373.9890473543
 10
506.5761729804
 20
374.2415680883
 10
506.3516819957
 20
374.4742372756
 10
506.0569552622
 20
374.6791316462
  0
LWPOLYLINE
  5
C7
330
1F
100
AcDbEntity
  8
0
  6
HIDDEN
 62
     7
370
    18
100
AcDbPolyline
 90
        3
 70
   128
 43
0.0
 10
506.0569552622
 20
374.6791316462
 10
505.7020293453
 20
374.8492737678
 10
505.3514196595
 20
374.9650868054
  0
LWPOLYLINE
  5
C8
330
1F
100
AcDbEntity
  8
0
  6
HIDDEN
 62
     7
370
    18
100
AcDbPolyline
 90
       12
 70
   128
 43
0.0
 10
503.2269569589
 20
374.9650868054
 10
503.0726771128
 20
374.9194501842
 10
502.6920712951
 20
374.7689391262
 10
502.3658533817
 20
374.5806175334
 10
502.1051323326
 20
374.3608984717
 10
501.9187866902
 20
374.1172642102
 10
501.813162232
 20
373.8580114215
 10
501.7918558722
 20
373.5919686484
 10
501.8555931733
 20
373.3281956585
 10
502.002203638
 20
373.0756749245
 10
502.2266946227
 20
372.8430057371
 10
502.5214213562
 20
372.6381113666
  0
LINE
  5
C9
330
1F
100
AcDbEntity
  8
0
  6
HIDDEN
 62
     7
370
    18
100
AcDbLine
 10
526.941731573
 20
337.3692809359
 30
0.0
 11
526.941731573
 21
339.9822115339
 31
0.0
  0
LINE
  5
CA
330
1F
100
AcDbEntity
  8
0
  6
HIDDEN
 62
     7
370
    18
100
AcDbLine
 10
521.941731573
 20
339.9822115339
 30
0.0
 11
521.941731573
 21
337.3692809359
 31
0.0
  0
LINE
  5
CB
330
1F
100
AcDbEntity
  8
0
  6
HIDDEN
 62
     7
370
    18
100
AcDbLine
 10
508.3724984692
 20
326.9892691506
 30
0.0
 11
510.635240169
 21
328.2955221295
 31
0.0
  0
LINE
  5
CC
330
1F
100
AcDbEntity
  8
0
  6
HIDDEN
 62
     7
370
    18
100
AcDbLine
 10
529.8408693759
 20
360.3511692837
 30
0.0
 11
529.8408693759
 21
362.9640998817
 31
0.0
  0
LINE
  5
CD
330
1F
100
AcDbEntity
  8
0
  6
HIDDEN
 62
     7
370
    18
100
AcDbLine
 10
524.8408693759
 20
362.9640998817
 30
0.0
 11
524.8408693759
 21
360.3511692837
 31
0.0
  0
LINE
  5
CE
330
1F
100
AcDbEntity
  8
0
  6
HIDDEN
 62
     7
370
    18
100
AcDbLine
 10
464.7091177336
 20
358.8501075208
 30
0.0
 11
462.4463760338
 21
357.5438545419
 31
0.0
  0
LINE
  5
CF
330
1F
100
AcDbEntity
  8
0
  6
HIDDEN
 62
     7
370
    18
100
AcDbLine
 10
466.9790765284
 20
371.9849848771
 30
0.0
 11
466.9790765284
 21
374.5979154752
 31
0.0
  0
LINE
  5
D0
330
1F
100
AcDbEntity
  8
0
  6
HIDDEN
 62
     7
370
    18
100
AcDbLine
 10
461.9790765284
 20
374.5979154752
 30
0.0
 11
461.9790765284
 21
371.9849848771
 31
0.0
  0
LINE
  5
D1
330
1F
100
AcDbEntity
  8
0
  6
HIDDEN
 62
     7
370
    18
100
AcDbLine
 10
506.7891883092
 20
373.6586215064
 30
0.0
 11
506.7891883092
 21
376.2715521044
 31
0.0
  0
LINE
  5
D2
330
1F
100
AcDbEntity
  8
0
  6
HIDDEN
 62
     7
370
    18
100
AcDbLine
 10
501.7891883092
 20
376.2715521044
 30
0.0
 11
501.7891883092
 21
373.6586215064
 31
0.0
  0
ENDSEC
  0
SECTION
  2
OBJECTS
  0
DICTIONARY
  5
C
330
0
100
AcDbDictionary
281
     1
  3
ACAD_GROUP
350
D
  3
ACAD_LAYOUT
350
1A
  3
ACAD_MLINESTYLE
350
17
  3
ACAD_PLOTSETTINGS
350
19
  3
ACAD_PLOTSTYLENAME
350
E
  3
ACAD_SCALELIST
350
47
  3
DWGPROPS
350
D3
  0
DICTIONARY
  5
D
102
{ACAD_REACTORS
330
C
102
}
330
C
100
AcDbDictionary
281
     1
  0
DICTIONARY
  5
1A
102
{ACAD_REACTORS
330
C
102
}
330
C
100
AcDbDictionary
281
     1
  3
Layout1
350
1E
  3
Layout2
350
26
  3
Model
350
22
  0
DICTIONARY
  5
17
102
{ACAD_REACTORS
330
C
102
}
330
C
100
AcDbDictionary
281
     1
  3
Standard
350
18
  0
DICTIONARY
  5
19
102
{ACAD_REACTORS
330
C
102
}
330
C
100
AcDbDictionary
281
     1
  0
ACDBDICTIONARYWDFLT
  5
E
102
{ACAD_REACTORS
330
C
102
}
330
C
100
AcDbDictionary
281
     1
  3
Normal
350
F
100
AcDbDictionaryWithDefault
340
F
  0
DICTIONARY
  5
47
102
{ACAD_REACTORS
330
C
102
}
330
C
100
AcDbDictionary
281
     1
  3
A0
350
48
  3
A1
350
49
  3
A2
350
4A
  3
A3
350
4B
  3
A4
350
4C
  3
A5
350
4D
  3
A6
350
4E
  3
A7
350
4F
  3
A8
350
50
  3
A9
350
51
  3
B0
350
52
  3
B1
350
53
  3
B2
350
54
  3
B3
350
55
  3
B4
350
56
  3
B5
350
57
  3
B6
350
58
  0
XRECORD
  5
D3
102
{ACAD_REACTORS
330
C
102
}
330
C
100
AcDbXrecord
280
     1
  1
DWGPROPS COOKIE
  2

  3

  4

  6

  7

  8
imaizumi
  9

300
=
301
=
302
=
303
=
304
=
305
=
306
=
307
=
308
=
309
=
 40
0.0
 41
2461263.040269375
 42
2461263.040269734
  1

 90
        0
  0
LAYOUT
  5
1E
102
{ACAD_REACTORS
330
1A
102
}
330
1A
100
AcDbPlotSettings
  1

  2
none_device
  4

  6

 40
0.0
 41
0.0
 42
0.0
 43
0.0
 44
0.0
 45
0.0
 46
0.0
 47
0.0
 48
0.0
 49
0.0
140
0.0
141
0.0
142
1.0
143
1.0
 70
   688
 72
     1
 73
     0
 74
     5
  7

 75
    16
147
1.0
148
0.0
149
0.0
100
AcDbLayout
  1
Layout1
 70
     1
 71
     1
 10
0.0
 20
0.0
 11
420.0
 21
297.0
 12
0.0
 22
0.0
 32
0.0
 14
1.0000000000E+20
 24
1.0000000000E+20
 34
1.0000000000E+20
 15
-1.0000000000E+20
 25
-1.0000000000E+20
 35
-1.0000000000E+20
146
0.0
 13
0.0
 23
0.0
 33
0.0
 16
1.0
 26
0.0
 36
0.0
 17
0.0
 27
1.0
 37
0.0
 76
     0
330
1B
  0
LAYOUT
  5
26
102
{ACAD_REACTORS
330
1A
102
}
330
1A
100
AcDbPlotSettings
  1

  2
none_device
  4

  6

 40
0.0
 41
0.0
 42
0.0
 43
0.0
 44
0.0
 45
0.0
 46
0.0
 47
0.0
 48
0.0
 49
0.0
140
0.0
141
0.0
142
1.0
143
1.0
 70
   688
 72
     1
 73
     0
 74
     5
  7

 75
    16
147
1.0
148
0.0
149
0.0
100
AcDbLayout
  1
Layout2
 70
     1
 71
     2
 10
0.0
 20
0.0
 11
0.0
 21
0.0
 12
0.0
 22
0.0
 32
0.0
 14
0.0
 24
0.0
 34
0.0
 15
0.0
 25
0.0
 35
0.0
146
0.0
 13
0.0
 23
0.0
 33
0.0
 16
1.0
 26
0.0
 36
0.0
 17
0.0
 27
1.0
 37
0.0
 76
     0
330
23
  0
LAYOUT
  5
22
102
{ACAD_REACTORS
330
1A
102
}
330
1A
100
AcDbPlotSettings
  1

  2
none_device
  4
Letter_(8.50_x_11.00_Inches)
  6

 40
6.35
 41
6.35
 42
6.35000508
 43
6.35000508
 44
215.9
 45
279.4
 46
0.0
 47
0.0
 48
0.0
 49
0.0
140
0.0
141
0.0
142
1.0
143
1.0
 70
  1712
 72
     1
 73
     0
 74
     0
  7

 75
     0
147
1.0
148
0.0
149
0.0
100
AcDbLayout
  1
Model
 70
     1
 71
     0
 10
0.0
 20
0.0
 11
841.0
 21
594.0
 12
0.0
 22
0.0
 32
0.0
 14
0.0
 24
0.0
 34
0.0
 15
841.0
 25
594.0
 35
0.0
146
0.0
 13
0.0
 23
0.0
 33
0.0
 16
1.0
 26
0.0
 36
0.0
 17
0.0
 27
1.0
 37
0.0
 76
     0
330
1F
331
29
  0
MLINESTYLE
  5
18
102
{ACAD_REACTORS
330
17
102
}
330
17
100
AcDbMlineStyle
  2
Standard
 70
     0
  3

 62
   256
 51
90.0
 52
90.0
 71
     2
 49
0.5
 62
   256
  6
BYLAYER
 49
-0.5
 62
   256
  6
BYLAYER
  0
ACDBPLACEHOLDER
  5
F
102
{ACAD_REACTORS
330
E
102
}
330
E
  0
SCALE
  5
48
102
{ACAD_REACTORS
330
47
102
}
330
47
100
AcDbScale
 70
     0
300
1:1
140
1.0
141
1.0
290
     1
  0
SCALE
  5
49
102
{ACAD_REACTORS
330
47
102
}
330
47
100
AcDbScale
 70
     0
300
1:2
140
1.0
141
2.0
290
     0
  0
SCALE
  5
4A
102
{ACAD_REACTORS
330
47
102
}
330
47
100
AcDbScale
 70
     0
300
1:4
140
1.0
141
4.0
290
     0
  0
SCALE
  5
4B
102
{ACAD_REACTORS
330
47
102
}
330
47
100
AcDbScale
 70
     0
300
1:5
140
1.0
141
5.0
290
     0
  0
SCALE
  5
4C
102
{ACAD_REACTORS
330
47
102
}
330
47
100
AcDbScale
 70
     0
300
1:8
140
1.0
141
8.0
290
     0
  0
SCALE
  5
4D
102
{ACAD_REACTORS
330
47
102
}
330
47
100
AcDbScale
 70
     0
300
1:10
140
1.0
141
10.0
290
     0
  0
SCALE
  5
4E
102
{ACAD_REACTORS
330
47
102
}
330
47
100
AcDbScale
 70
     0
300
1:16
140
1.0
141
16.0
290
     0
  0
SCALE
  5
4F
102
{ACAD_REACTORS
330
47
102
}
330
47
100
AcDbScale
 70
     0
300
1:20
140
1.0
141
20.0
290
     0
  0
SCALE
  5
50
102
{ACAD_REACTORS
330
47
102
}
330
47
100
AcDbScale
 70
     0
300
1:30
140
1.0
141
30.0
290
     0
  0
SCALE
  5
51
102
{ACAD_REACTORS
330
47
102
}
330
47
100
AcDbScale
 70
     0
300
1:40
140
1.0
141
40.0
290
     0
  0
SCALE
  5
52
102
{ACAD_REACTORS
330
47
102
}
330
47
100
AcDbScale
 70
     0
300
1:50
140
1.0
141
50.0
290
     0
  0
SCALE
  5
53
102
{ACAD_REACTORS
330
47
102
}
330
47
100
AcDbScale
 70
     0
300
1:100
140
1.0
141
100.0
290
     0
  0
SCALE
  5
54
102
{ACAD_REACTORS
330
47
102
}
330
47
100
AcDbScale
 70
     0
300
2:1
140
2.0
141
1.0
290
     0
  0
SCALE
  5
55
102
{ACAD_REACTORS
330
47
102
}
330
47
100
AcDbScale
 70
     0
300
4:1
140
4.0
141
1.0
290
     0
  0
SCALE
  5
56
102
{ACAD_REACTORS
330
47
102
}
330
47
100
AcDbScale
 70
     0
300
8:1
140
8.0
141
1.0
290
     0
  0
SCALE
  5
57
102
{ACAD_REACTORS
330
47
102
}
330
47
100
AcDbScale
 70
     0
300
10:1
140
10.0
141
1.0
290
     0
  0
SCALE
  5
58
102
{ACAD_REACTORS
330
47
102
}
330
47
100
AcDbScale
 70
     0
300
100:1
140
100.0
141
1.0
290
     0
  0
ENDSEC
  0
EOF
